TITLE:   BLOCKBUSTER_DC_v4.1_Sound_Voit_20161122 
FCM: NON-DROP FRAME

====== COMMAS ======

000061  A053R0F7                         V     C        14:40:00:14 14:40:01:11 01:05:46:18 01:05:47:15 
*FROM CLIP NAME:  09_10-05-03 
000062  A050R0F7                         V     C        12:45:52:01 12:45:54:00 01:05:47:15 01:05:49:14 
*FROM CLIP NAME:  11_12_13_14-01-05 
000063  A053R0F7                         V     C        14:40:06:05 14:40:08:07 01:05:49:14 01:05:51:16 
*FROM CLIP NAME:  09_10-05-03 

====== SLASHES ======

000078  A234L0F7                         V     C        22:06:44:01 22:06:44:08 01:06:28:22 01:06:29:05 
*FROM CLIP NAME:  15_16-02-01A 
000079  B033R56W                         V     C        22:06:44:08 22:06:45:17 01:06:29:05 01:06:30:14 
*FROM CLIP NAME:  15_16-02-01B 
000080  A234L0F7                         V     C        22:06:46:16 22:06:47:12 01:06:30:14 01:06:31:10 
*FROM CLIP NAME:  15_16-02-01A 
000081  B033R56W                         V     C        22:06:47:12 22:06:49:03 01:06:31:10 01:06:33:01 
*FROM CLIP NAME:  15_16-02-01B 
000082  A234L0F7                         V     C        22:06:51:11 22:06:53:04 01:06:33:01 01:06:34:18 
*FROM CLIP NAME:  15_16-02-01A 
000083  B033R56W                         V     C        22:06:58:09 22:07:02:19 01:06:34:18 01:06:39:04 
*FROM CLIP NAME:  15_16-02-01B 
000084  A234L0F7                         V     C        22:07:02:19 22:07:03:23 01:06:39:04 01:06:40:08 
*FROM CLIP NAME:  15_16-02-01A 

====== MULTIPLE CAMERAS BAD FORMAT ======

000110  B033R56W                         V     C        00:33:22:14 00:33:25:12 01:07:41:07 01:07:44:05 
*FROM CLIP NAME:  16A-01-08B 
000111  B033R56W                         V     C        00:33:42:11 00:33:45:05 01:07:44:05 01:07:46:23 
*FROM CLIP NAME:  16A-01-08B 
000112  B033R56W                         V     C        00:34:30:22 00:34:36:04 01:07:46:23 01:07:52:05 
*FROM CLIP NAME:  16A-01-08B 

====== CORRECT CLIP NAME ======

000138  A036R0F7                         V     C        00:36:32:05 00:36:38:10 01:09:01:11 01:09:07:16 
*FROM CLIP NAME:  19-01-02 
000139  A037R0F7                         V     C        01:08:37:16 01:08:39:17 01:09:07:16 01:09:09:17 
*FROM CLIP NAME:  19-02-01 
000140  A036R0F7                         V     C        00:36:49:08 00:36:54:03 01:09:09:17 01:09:14:12 
*FROM CLIP NAME:  19-01-02 
000141  A035R0F7                         V     C        07:25:17:18 07:25:22:17 01:09:14:12 01:09:19:11 
*FROM CLIP NAME:  21-03-03 

====== INCORRECT CLIP NAME ======

000965  A134C005_160803_L0F7             V     C        14:44:14:03 14:44:14:13 02:07:55:21 02:07:56:07 
*FROM CLIP NAME:  A134C005_160803_L0F7.MXF 
000966  B016C005_160803_R59N             V     C        14:44:14:13 14:44:15:10 02:07:56:07 02:07:57:04 
*FROM CLIP NAME:  B016C005_160803_R59N.MXF 
000967  A134C005_160803_L0F7             V     C        14:44:15:10 14:44:16:01 02:07:57:04 02:07:57:19 
*FROM CLIP NAME:  A134C005_160803_L0F7.MXF 
000968  A141L0F7                         V     C        18:24:56:15 18:25:01:00 02:07:57:19 02:08:02:04 
*FROM CLIP NAME:  113-14-05 
000969  A141L0F7                         V     C        18:21:22:10 18:21:24:19 02:08:02:04 02:08:04:13 
*FROM CLIP NAME:  113-14-03 
000970  A140C001_160803_L0F7             V     C        17:42:13:18 17:42:15:02 02:08:04:13 02:08:05:21 
*FROM CLIP NAME:  113-12-01 
000971  A137C002_160803_L0F7             V     C        16:37:58:21 16:38:06:14 02:08:05:21 02:08:13:14 
*FROM CLIP NAME:  113-07-02 
