TITLE:   BLOCKBUSTER_DC_v4.1_Sound_Voit_20161122 
FCM: NON-DROP FRAME
000001  BL                               V     C        00:00:00:00 00:00:00:00 01:00:04:19 01:00:04:19 
000001  A197C004_160811_L0F7         V     D    015 00:29:42:17 00:29:43:08 01:00:04:19 01:00:05:10 
*BLEND, DISSOLVE 
*TO CLIP NAME:  01-02-01 
000002  A197C004_160811_L0F7         V     C        00:29:43:08 00:29:47:11 01:00:05:10 01:00:09:13 
*FROM CLIP NAME:  01-02-01 
000003  A197C004_160811_L0F7         V     C        00:29:47:11 00:29:47:11 01:00:09:13 01:00:09:13 
000003  BL                               V     D    015 00:00:00:00 00:00:00:15 01:00:09:13 01:00:10:04 
*BLEND, DISSOLVE 
*FROM CLIP NAME:  01-02-01 
000004  BL                               V     C        00:00:00:00 00:00:00:00 01:00:10:19 01:00:10:19 
000004  A197C001_160811_L0F7         V     D    018 00:13:16:20 00:13:17:14 01:00:10:19 01:00:11:13 
*BLEND, DISSOLVE 
*TO CLIP NAME:  01-01-02 
000005  A197C001_160811_L0F7         V     C        00:13:17:14 00:13:28:18 01:00:11:13 01:00:22:17 
*FROM CLIP NAME:  01-01-02 
000006  A197C001_160811_L0F7         V     C        00:13:28:18 00:13:28:18 01:00:22:17 01:00:22:17 
000006  BL                               V     D    002 00:00:00:00 00:00:00:02 01:00:22:17 01:00:22:19 
*BLEND, DISSOLVE 
*FROM CLIP NAME:  01-01-02 
000007  BL                               V     C        00:00:00:00 00:00:00:00 01:00:25:12 01:00:25:12 
000007  A197C003_160811_L0F7         V     D    018 00:18:38:15 00:18:39:09 01:00:25:12 01:00:26:06 
*BLEND, DISSOLVE 
*TO CLIP NAME:  01-01-04 
000008  A197C003_160811_L0F7         V     C        00:18:39:09 00:18:48:22 01:00:26:06 01:00:35:19 
*FROM CLIP NAME:  01-01-04 
000009  A197C003_160811_L0F7         V     C        00:18:48:22 00:18:48:22 01:00:35:19 01:00:35:19 
000009  BL                               V     D    005 00:00:00:00 00:00:00:05 01:00:35:19 01:00:36:00 
*BLEND, DISSOLVE 
*FROM CLIP NAME:  01-01-04 
000010  BL                               V     C        00:00:00:00 00:00:00:00 01:00:36:14 01:00:36:14 
000010  A229L0F7                         V     D    028 20:56:08:16 20:56:09:20 01:00:36:14 01:00:37:18 
*BLEND, DISSOLVE 
*TO CLIP NAME:  A229C007_160815_L0F7 
000011  A229L0F7                         V     C        20:56:09:20 20:56:16:03 01:00:37:18 01:00:44:01 
*FROM CLIP NAME:  A229C007_160815_L0F7 
000012  A002R0F7                         V     C        11:38:53:19 11:38:58:05 01:00:44:01 01:00:48:11 
*FROM CLIP NAME:  02-03-01 
000013  A002R0F7                         V     C        12:09:01:07 12:09:07:01 01:00:48:11 01:00:54:05 
*FROM CLIP NAME:  02-04-03 
000014  A002R0F7                         V     C        11:39:03:17 11:39:05:22 01:00:54:05 01:00:56:10 
*FROM CLIP NAME:  02-03-01 
000015  A002R0F7                         V     C        12:12:14:03 12:12:16:06 01:00:56:10 01:00:58:13 
*FROM CLIP NAME:  02-04-05 
000016  A001R0F7                         V     C        11:24:54:14 11:24:55:11 01:00:58:13 01:00:59:10 
*FROM CLIP NAME:  02-02-01 
000017  A002R0F7                         V     C        12:12:17:15 12:12:20:02 01:00:59:10 01:01:01:21 
*FROM CLIP NAME:  02-04-05 
000018  A009R0F7                         V     C        20:59:12:23 20:59:20:01 01:01:01:21 01:01:08:23 
*FROM CLIP NAME:  03-01-03 
000019  A009R0F7                         V     C        20:59:20:01 20:59:20:01 01:01:08:23 01:01:08:23 
000019  BL                               V     D    005 00:00:00:00 00:00:00:05 01:01:08:23 01:01:09:04 
*BLEND, DISSOLVE 
*FROM CLIP NAME:  03-01-03 
000020  BL                               V     C        00:00:00:00 00:00:00:00 01:01:11:15 01:01:11:15 
000020  A021R0F7                         V     D    007 13:15:37:16 13:15:37:23 01:01:11:15 01:01:11:22 
*BLEND, DISSOLVE 
*TO CLIP NAME:  04-01-06 
000021  A021R0F7                         V     C        13:15:37:23 13:16:27:08 01:01:11:22 01:02:01:07 
*FROM CLIP NAME:  04-01-06 
000022  A018R0F7                         V     C        17:28:47:23 17:29:30:16 01:02:01:07 01:02:44:00 
*FROM CLIP NAME:  05-01-04 
000023  A018R0F7                         V     C        17:19:16:08 17:19:39:15 01:02:44:00 01:03:07:07 
*FROM CLIP NAME:  05-01-02 
000024  A027R0F7                         V     C        00:56:24:13 00:56:43:10 01:03:07:07 01:03:26:04 
*FROM CLIP NAME:  06-03-02 
000025  A026R0F7                         V     C        00:34:28:16 00:34:33:22 01:03:26:04 01:03:31:10 
*FROM CLIP NAME:  06-02-01 
000026  A027R0F7                         V     C        00:57:01:11 00:57:07:22 01:03:31:10 01:03:37:21 
*FROM CLIP NAME:  06-03-02 
000027  A026R0F7                         V     C        00:28:24:20 00:28:31:06 01:03:37:21 01:03:44:07 
*FROM CLIP NAME:  06-01-01 
000028  A026R0F7                         V     C        00:35:10:15 00:35:12:15 01:03:44:07 01:03:46:07 
*FROM CLIP NAME:  06-02-01 
000029  A027R0F7                         V     C        00:57:17:04 00:57:18:06 01:03:46:07 01:03:47:09 
*FROM CLIP NAME:  06-03-02 
000030  A026R0F7                         V     C        00:28:41:23 00:28:43:12 01:03:47:09 01:03:48:22 
*FROM CLIP NAME:  06-01-01 
000031  A027R0F7                         V     C        00:56:52:22 00:56:55:10 01:03:48:22 01:03:51:10 
*FROM CLIP NAME:  06-03-02 
000032  A027R0F7                         V     C        01:01:24:08 01:01:25:21 01:03:51:10 01:03:52:23 
*FROM CLIP NAME:  06-03-05 PU 
000033  A026R0F7                         V     C        00:35:26:03 00:35:28:22 01:03:52:23 01:03:55:18 
*FROM CLIP NAME:  06-02-01 
000034  A026R0F7                         V     C        00:28:57:05 00:28:59:09 01:03:55:18 01:03:57:22 
*FROM CLIP NAME:  06-01-01 
000035  A241L0F7                         V     C        04:23:52:19 04:23:54:18 01:03:57:22 01:03:59:21 
*FROM CLIP NAME:  07-03-01 
000036  A241L0F7                         V     C        03:54:50:20 03:54:54:09 01:03:59:21 01:04:03:10 
*FROM CLIP NAME:  07-01-03 
000037  A242L0F7                         V     C        04:42:09:07 04:42:12:07 01:04:03:10 01:04:06:10 
*FROM CLIP NAME:  07-04-02 
000038  A241L0F7                         V     C        04:26:17:06 04:26:19:01 01:04:06:10 01:04:08:05 
*FROM CLIP NAME:  07-03-02 
000039  A242L0F7                         V     C        04:42:16:02 04:42:19:15 01:04:08:05 01:04:11:18 
*FROM CLIP NAME:  07-04-02 
000040  A241L0F7                         V     C        04:33:59:03 04:34:05:22 01:04:11:18 01:04:18:13 
*FROM CLIP NAME:  07-04-01 
000041  A241L0F7                         V     C        04:26:19:21 04:26:23:04 01:04:18:13 01:04:21:20 
*FROM CLIP NAME:  07-03-02 
000042  A241L0F7                         V     C        04:34:06:23 04:34:12:11 01:04:21:20 01:04:27:08 
*FROM CLIP NAME:  07-04-01 
000043  A241L0F7                         V     C        04:09:08:11 04:09:11:00 01:04:27:08 01:04:29:21 
*FROM CLIP NAME:  07-02-01 
000044  A242L0F7                         V     C        04:42:35:09 04:42:45:13 01:04:29:21 01:04:40:01 
*FROM CLIP NAME:  07-04-02 
000045  A242L0F7                         V     C        04:42:45:13 04:42:55:02 01:04:40:01 01:04:49:14 
*FROM CLIP NAME:  07-04-02 
000046  A240L0F7                         V     C        03:09:14:21 03:09:17:18 01:04:49:14 01:04:52:11 
*FROM CLIP NAME:  08-05-01 
000047  A239L0F7                         V     C        02:31:41:08 02:31:56:03 01:04:52:11 01:05:07:06 
*FROM CLIP NAME:  08-02-02 
000048  B034R56W                         V     C        02:17:46:21 02:17:52:00 01:05:07:06 01:05:12:09 
*FROM CLIP NAME:  B034C001_160817_R56W 
000049  A236L0F7                         V     C        23:34:41:18 23:34:49:21 01:05:12:09 01:05:20:12 
*FROM CLIP NAME:  16A-01-01A 
000050  A053R0F7                         V     C        14:39:23:18 14:39:26:00 01:05:20:12 01:05:22:18 
*FROM CLIP NAME:  09_10-05-03 
000051  A053R0F7                         V     C        14:59:58:02 15:00:01:04 01:05:22:18 01:05:25:20 
*FROM CLIP NAME:  09_10-07-02 
000052  A048R0F7                         V     C        11:44:33:18 11:44:42:20 01:05:25:20 01:05:34:22 
*FROM CLIP NAME:  09_10-01-08 
000053  A049R0F7                         V     C        12:08:53:19 12:08:56:09 01:05:34:22 01:05:37:12 
*FROM CLIP NAME:  09_10-03-02 
000054  A048R0F7                         V     C        11:47:46:23 11:47:47:17 01:05:37:12 01:05:38:06 
*FROM CLIP NAME:  09_10-01-09 
000055  A049R0F7                         V     C        12:08:57:03 12:08:58:10 01:05:38:06 01:05:39:13 
*FROM CLIP NAME:  09_10-03-02 
000056  A048R0F7                         V     C        11:47:49:06 11:47:50:09 01:05:39:13 01:05:40:16 
*FROM CLIP NAME:  09_10-01-09 
000057  A053R0F7                         V     C        14:32:05:04 14:32:06:09 01:05:40:16 01:05:41:21 
*FROM CLIP NAME:  09_10-05-01 
000058  A050R0F7                         V     C        12:45:37:17 12:45:38:13 01:05:41:21 01:05:42:17 
*FROM CLIP NAME:  11_12_13_14-01-05 
000059  A053R0F7                         V     C        14:32:07:19 14:32:09:04 01:05:42:17 01:05:44:02 
*FROM CLIP NAME:  09_10-05-01 
000060  A047R0F7                         V     C        11:31:20:14 11:31:23:06 01:05:44:02 01:05:46:18 
*FROM CLIP NAME:  09_10-01-04 
000061  A053R0F7                         V     C        14:40:00:14 14:40:01:11 01:05:46:18 01:05:47:15 
*FROM CLIP NAME:  09_10-05-03 
000062  A050R0F7                         V     C        12:45:52:01 12:45:54:00 01:05:47:15 01:05:49:14 
*FROM CLIP NAME:  11_12_13_14-01-05 
000063  A053R0F7                         V     C        14:40:06:05 14:40:08:07 01:05:49:14 01:05:51:16 
*FROM CLIP NAME:  09_10-05-03 
000064  A050R0F7                         V     C        12:45:57:17 12:45:59:07 01:05:51:16 01:05:53:06 
*FROM CLIP NAME:  11_12_13_14-01-05 
000065  A048R0F7                         V     C        11:40:34:01 11:40:35:12 01:05:53:06 01:05:54:17 
*FROM CLIP NAME:  09_10-01-07 
000066  A048R0F7                         V     C        11:48:15:07 11:48:17:21 01:05:54:17 01:05:57:07 
*FROM CLIP NAME:  09_10-01-09 
000067  A050R0F7                         V     C        12:41:53:16 12:41:54:10 01:05:57:07 01:05:58:01 
*FROM CLIP NAME:  11_12_13_14-01-04 
000068  A049R0F7                         V     C        12:09:29:01 12:09:30:13 01:05:58:01 01:05:59:13 
*FROM CLIP NAME:  09_10-03-02 
000069  A050R0F7                         V     C        12:41:57:03 12:42:00:16 01:05:59:13 01:06:03:02 
*FROM CLIP NAME:  11_12_13_14-01-04 
000070  A050R0F7                         V     C        13:02:30:13 13:02:34:23 01:06:03:02 01:06:07:12 
*FROM CLIP NAME:  11_12_13_14-02-02 
000071  A050R0F7                         V     C        12:42:05:16 12:42:07:05 01:06:07:12 01:06:09:01 
*FROM CLIP NAME:  11_12_13_14-01-04 
000072  A051R0F7                         V     C        13:20:48:13 13:20:50:14 01:06:09:01 01:06:11:02 
*FROM CLIP NAME:  11_12_13_14-03-01 
000073  A050R0F7                         V     C        12:46:18:19 12:46:20:09 01:06:11:02 01:06:12:16 
*FROM CLIP NAME:  11_12_13_14-01-05 
000074  A050R0F7                         V     C        13:05:42:23 13:05:44:13 01:06:12:16 01:06:14:06 
*FROM CLIP NAME:  11_12_13_14-02-03 
000075  A051R0F7                         V     C        13:20:53:20 13:20:54:10 01:06:14:06 01:06:14:20 
*FROM CLIP NAME:  11_12_13_14-03-01 
000076  A049R0F7                         V     C        12:34:21:05 12:34:23:22 01:06:14:20 01:06:17:13 
*FROM CLIP NAME:  11_12_13_14-01-02 
000077  A052R0F7                         V     C        14:03:41:20 14:03:53:05 01:06:17:13 01:06:28:22 
*FROM CLIP NAME:  11_12_13_14-05-04 
000078  A234L0F7                         V     C        22:06:44:01 22:06:44:08 01:06:28:22 01:06:29:05 
*FROM CLIP NAME:  15_16-02-01A 
000079  B033R56W                         V     C        22:06:44:08 22:06:45:17 01:06:29:05 01:06:30:14 
*FROM CLIP NAME:  15_16-02-01B 
000080  A234L0F7                         V     C        22:06:46:16 22:06:47:12 01:06:30:14 01:06:31:10 
*FROM CLIP NAME:  15_16-02-01A 
000081  B033R56W                         V     C        22:06:47:12 22:06:49:03 01:06:31:10 01:06:33:01 
*FROM CLIP NAME:  15_16-02-01B 
000082  A234L0F7                         V     C        22:06:51:11 22:06:53:04 01:06:33:01 01:06:34:18 
*FROM CLIP NAME:  15_16-02-01A 
000083  B033R56W                         V     C        22:06:58:09 22:07:02:19 01:06:34:18 01:06:39:04 
*FROM CLIP NAME:  15_16-02-01B 
000084  A234L0F7                         V     C        22:07:02:19 22:07:03:23 01:06:39:04 01:06:40:08 
*FROM CLIP NAME:  15_16-02-01A 
000085  B033R56W                         V     C        22:07:03:23 22:07:04:14 01:06:40:08 01:06:40:23 
*FROM CLIP NAME:  15_16-02-01B 
000086  A234L0F7                         V     C        22:07:10:13 22:07:11:12 01:06:40:23 01:06:41:22 
*FROM CLIP NAME:  15_16-02-01A 
000087  B033R56W                         V     C        22:07:11:12 22:07:13:14 01:06:41:22 01:06:44:00 
*FROM CLIP NAME:  15_16-02-01B 
000088  A234L0F7                         V     C        22:07:16:02 22:07:17:06 01:06:44:00 01:06:45:04 
*FROM CLIP NAME:  15_16-02-01A 
000089  B033R56W                         V     C        22:07:18:09 22:07:19:00 01:06:45:04 01:06:45:19 
*FROM CLIP NAME:  15_16-02-01B 
000090  A235L0F7                         V     C        22:28:53:15 22:28:54:16 01:06:45:19 01:06:46:20 
*FROM CLIP NAME:  15_16-03-02A 
000091  B033R56W                         V     C        22:07:23:17 22:07:26:09 01:06:46:20 01:06:49:12 
*FROM CLIP NAME:  15_16-02-01B 
000092  A235L0F7                         V     C        22:29:07:04 22:29:11:09 01:06:49:12 01:06:53:17 
*FROM CLIP NAME:  15_16-03-02A 
000093  A235L0F7                         V     C        22:38:31:21 22:38:33:10 01:06:53:17 01:06:55:06 
*FROM CLIP NAME:  15_16-04-01A 
000094  B033R56W                         V     C        22:38:37:13 22:38:38:22 01:06:55:06 01:06:56:15 
*FROM CLIP NAME:  15_16-04-01B 
000095  A235L0F7                         V     C        22:38:43:17 22:38:47:01 01:06:56:15 01:06:59:23 
*FROM CLIP NAME:  15_16-04-01A 
000096  B033R56W                         V     C        22:38:47:23 22:38:49:14 01:06:59:23 01:07:01:14 
*FROM CLIP NAME:  15_16-04-01B 
000097  A235L0F7                         V     C        22:38:49:13 22:38:50:15 01:07:01:14 01:07:02:16 
*FROM CLIP NAME:  15_16-04-01A 
000098  B033R56W                         V     C        22:38:52:02 22:38:52:17 01:07:02:16 01:07:03:07 
*FROM CLIP NAME:  15_16-04-01B 
000099  B033R56W                         V     C        22:38:52:17 22:38:53:20 01:07:03:07 01:07:04:10 
*FROM CLIP NAME:  15_16-04-01B 
000100  A235L0F7                         V     C        22:38:57:03 22:38:58:22 01:07:04:10 01:07:06:05 
*FROM CLIP NAME:  15_16-04-01A 
000101  B033R56W                         V     C        22:38:58:23 22:39:00:01 01:07:06:05 01:07:07:07 
*FROM CLIP NAME:  15_16-04-01B 
000102  A235L0F7                         V     C        22:39:00:00 22:39:03:08 01:07:07:07 01:07:10:15 
*FROM CLIP NAME:  15_16-04-01A 
000103  B033R56W                         V     C        22:39:03:09 22:39:04:00 01:07:10:15 01:07:11:06 
*FROM CLIP NAME:  15_16-04-01B 
000104  A235L0F7                         V     C        22:39:03:23 22:39:10:16 01:07:11:06 01:07:17:23 
*FROM CLIP NAME:  15_16-04-01A 
000105  A237L0F7                         V     C        23:51:29:16 23:51:31:10 01:07:17:23 01:07:19:17 
*FROM CLIP NAME:  16A-01-06A 
000106  A237L0F7                         V     C        23:51:56:08 23:51:59:22 01:07:19:17 01:07:23:07 
*FROM CLIP NAME:  16A-01-06A 
000107  A237L0F7                         V     C        23:52:23:12 23:52:29:05 01:07:23:07 01:07:29:00 
*FROM CLIP NAME:  16A-01-06A 
000108  A237L0F7                         V     C        23:52:05:18 23:52:14:14 01:07:29:00 01:07:37:20 
*FROM CLIP NAME:  16A-01-06A 
000109  A237L0F7                         V     C        23:56:46:16 23:56:50:03 01:07:37:20 01:07:41:07 
*FROM CLIP NAME:  16A-01-07A 
000110  B033R56W                         V     C        00:33:22:14 00:33:25:12 01:07:41:07 01:07:44:05 
*FROM CLIP NAME:  16A-01-08B 
000111  B033R56W                         V     C        00:33:42:11 00:33:45:05 01:07:44:05 01:07:46:23 
*FROM CLIP NAME:  16A-01-08B 
000112  B033R56W                         V     C        00:34:30:22 00:34:36:04 01:07:46:23 01:07:52:05 
*FROM CLIP NAME:  16A-01-08B 
000113  A238L0F7                         V     C        00:31:36:00 00:31:40:03 01:07:52:05 01:07:56:08 
*FROM CLIP NAME:  16A-01-08A 
000114  A238L0F7                         V     C        00:31:40:03 00:31:42:14 01:07:56:08 01:07:58:19 
*FROM CLIP NAME:  16A-01-08A 
000115  A237L0F7                         V     C        23:57:55:17 23:58:01:08 01:07:58:19 01:08:04:10 
*FROM CLIP NAME:  16A-01-07A 
000116  B034R56W                         V     C        02:53:20:13 02:53:21:17 01:08:04:10 01:08:05:14 
*FROM CLIP NAME:  B034C009_160817_R56W 
000117  B034R56W                         V     C        03:00:18:14 03:00:20:00 01:08:05:14 01:08:07:00 
*FROM CLIP NAME:  B034C011_160817_R56W 
000118  B034R56W                         V     C        02:51:41:01 02:51:42:05 01:08:07:00 01:08:08:04 
*FROM CLIP NAME:  B034C009_160817_R56W 
000119  B035R56W                         V     C        04:22:06:00 04:22:07:11 01:08:08:04 01:08:09:15 
*FROM CLIP NAME:  B035C007_160817_R56W 
000120  A237L0F7                         V     C        23:58:36:02 23:58:42:01 01:08:09:15 01:08:15:14 
*FROM CLIP NAME:  16A-01-07A 
000121  C002C007_160808_R0V3         V     C        02:30:57:01 02:30:59:00 01:08:15:14 01:08:17:13 
*FROM CLIP NAME:  49-03-03C 
000122  B035R56W                         V     C        04:36:03:20 04:36:05:13 01:08:17:13 01:08:19:06 
*FROM CLIP NAME:  B035C008_160817_R56W 
000123  B035R56W                         V     C        03:20:16:11 03:20:17:16 01:08:19:06 01:08:20:11 
*FROM CLIP NAME:  B035C001_160817_R56W 
000124  B035R56W                         V     C        03:33:26:08 03:33:27:13 01:08:20:11 01:08:21:16 
*FROM CLIP NAME:  B035C003_160817_R56W 
000125  B035R56W                         V     C        03:38:19:06 03:38:20:21 01:08:21:16 01:08:23:07 
*FROM CLIP NAME:  B035C004_160817_R56W 
000126  B034R56W                         V     C        03:03:58:15 03:04:00:10 01:08:23:07 01:08:25:02 
*FROM CLIP NAME:  B034C011_160817_R56W 
000127  B035R56W                         V     C        04:18:03:03 04:18:05:01 01:08:25:02 01:08:27:00 
*FROM CLIP NAME:  B035C006_160817_R56W 
000128  A238L0F7                         V     C        00:41:09:06 00:41:11:13 01:08:27:00 01:08:29:07 
*FROM CLIP NAME:  16A-01-09A 
000129  A036R0F7                         V     C        03:00:51:22 03:00:55:02 01:08:29:07 01:08:32:11 
*FROM CLIP NAME:  17_18-02-01 
000130  B006R59N                         V     C        23:59:45:04 23:59:50:12 01:08:32:11 01:08:37:19 
*FROM CLIP NAME:  17_18-04 
000131  B006R59N                         V     C        23:59:50:12 23:59:51:06 01:08:37:19 01:08:38:13 
*FROM CLIP NAME:  17_18-04 
000132  A046R0F7                         V     C        02:39:57:06 02:39:58:20 01:08:38:13 01:08:40:03 
*FROM CLIP NAME:  18-02-01 
000133  B006R59N                         V     C        23:59:51:14 23:59:54:11 01:08:40:03 01:08:43:00 
*FROM CLIP NAME:  17_18-04 
000134  A046R0F7                         V     C        02:38:23:17 02:38:25:10 01:08:43:00 01:08:44:17 
*FROM CLIP NAME:  18-02-01 
000135  B006R59N                         V     C        23:59:54:23 23:59:59:20 01:08:44:17 01:08:49:14 
*FROM CLIP NAME:  17_18-04 
000136  A037R0F7                         V     C        00:48:22:21 00:48:29:13 01:08:49:14 01:08:56:06 
*FROM CLIP NAME:  19-01-04 
000137  A046R0F7                         V     C        02:34:43:07 02:34:48:12 01:08:56:06 01:09:01:11 
*FROM CLIP NAME:  18-01-02 
000138  A036R0F7                         V     C        00:36:32:05 00:36:38:10 01:09:01:11 01:09:07:16 
*FROM CLIP NAME:  19-01-02 
000139  A037R0F7                         V     C        01:08:37:16 01:08:39:17 01:09:07:16 01:09:09:17 
*FROM CLIP NAME:  19-02-01 
000140  A036R0F7                         V     C        00:36:49:08 00:36:54:03 01:09:09:17 01:09:14:12 
*FROM CLIP NAME:  19-01-02 
000141  A035R0F7                         V     C        07:25:17:18 07:25:22:17 01:09:14:12 01:09:19:11 
*FROM CLIP NAME:  21-03-03 
000142  B005R59N                         V     C        08:59:57:19 09:00:01:01 01:09:19:11 01:09:22:17 
*FROM CLIP NAME:  21-01-02B 
000143  A034R0F7                         V     C        07:22:55:21 07:22:57:21 01:09:22:17 01:09:24:17 
*FROM CLIP NAME:  21-03-02 
000144  B005R59N                         V     C        09:00:03:19 09:00:06:22 01:09:24:17 01:09:27:20 
*FROM CLIP NAME:  21-01-02B 
000145  A035R0F7                         V     C        07:25:34:23 07:25:39:22 01:09:27:20 01:09:32:19 
*FROM CLIP NAME:  21-03-03 
000146  A030R0F7                         V     C        03:27:06:20 03:27:09:03 01:09:32:19 01:09:35:02 
*FROM CLIP NAME:  23-01-01A 
000147  B005R59N                         V     C        08:26:29:01 08:26:35:20 01:09:35:02 01:09:41:21 
*FROM CLIP NAME:  22-03-01B 
000148  A032R0F7                         V     C        05:46:13:09 05:46:18:12 01:09:41:21 01:09:47:00 
*FROM CLIP NAME:  22-01-02 
000149  A033R0F7                         V     C        06:28:22:14 06:28:34:06 01:09:47:00 01:09:58:16 
*FROM CLIP NAME:  22-03-01A 
000150  A033R0F7                         V     C        06:00:37:04 06:00:39:03 01:09:58:16 01:10:00:15 
*FROM CLIP NAME:  22-02-01 
000151  A033R0F7                         V     C        06:28:46:12 06:28:57:08 01:10:00:15 01:10:11:11 
*FROM CLIP NAME:  22-03-01A 
000152  A032R0F7                         V     C        05:46:55:23 05:47:02:01 01:10:11:11 01:10:17:13 
*FROM CLIP NAME:  22-01-02 
000153  B005R59N                         V     C        05:26:14:19 05:26:16:15 01:10:17:13 01:10:19:09 
*FROM CLIP NAME:  23-01-01B 
000154  A031R0F7                         V     C        03:49:04:18 03:49:09:03 01:10:19:09 01:10:23:18 
*FROM CLIP NAME:  23-03-02 
000155  B005R59N                         V     C        05:35:30:13 05:35:36:06 01:10:23:18 01:10:29:11 
*FROM CLIP NAME:  23-01-03B 
000156  A033R0F7                         V     C        06:01:19:08 06:01:22:17 01:10:29:11 01:10:32:20 
*FROM CLIP NAME:  22-02-01 
000157  A033R0F7                         V     C        06:29:32:00 06:29:41:12 01:10:32:20 01:10:42:08 
*FROM CLIP NAME:  22-03-01A 
000158  A032R0F7                         V     C        05:33:31:23 05:33:35:02 01:10:42:08 01:10:45:11 
*FROM CLIP NAME:  22-01-01 
000159  A033R0F7                         V     C        06:01:38:20 06:01:43:23 01:10:45:11 01:10:50:14 
*FROM CLIP NAME:  22-02-01 
000160  B005R59N                         V     C        08:28:09:19 08:28:13:09 01:10:50:14 01:10:54:04 
*FROM CLIP NAME:  22-03-01B 
000161  A031R0F7                         V     C        04:54:12:01 04:54:12:22 01:10:54:04 01:10:55:01 
*FROM CLIP NAME:  23-05-01 
000162  A031R0F7                         V     C        04:54:07:09 04:54:07:16 01:10:55:01 01:10:55:08 
*FROM CLIP NAME:  23-05-01 
000163  A032R0F7                         V     C        05:06:04:02 05:06:04:09 01:10:55:08 01:10:55:15 
*FROM CLIP NAME:  23-06-01 
000164  A031R0F7                         V     C        04:54:07:23 04:54:08:00 01:10:55:15 01:10:55:16 
*FROM CLIP NAME:  23-05-01 
000165  A031R0F7                         V     C        04:54:14:00 04:54:15:08 01:10:55:16 01:10:57:00 
*FROM CLIP NAME:  23-05-01 
000166  A032R0F7                         V     C        05:06:09:20 05:06:10:22 01:10:57:00 01:10:58:02 
*FROM CLIP NAME:  23-06-01 
000167  A032R0F7                         V     C        05:33:48:21 05:33:49:20 01:10:58:02 01:10:59:01 
*FROM CLIP NAME:  22-01-01 
000168  A032R0F7                         V     C        05:06:10:22 05:06:15:15 01:10:59:01 01:11:03:18 
*FROM CLIP NAME:  23-06-01 
000169  A032R0F7                         V     C        05:33:50:12 05:33:51:09 01:11:03:18 01:11:04:15 
*FROM CLIP NAME:  22-01-01 
000170  A031R0F7                         V     C        04:54:18:22 04:54:20:19 01:11:04:15 01:11:06:12 
*FROM CLIP NAME:  23-05-01 
000171  A032R0F7                         V     C        05:33:52:23 05:33:58:13 01:11:06:12 01:11:12:02 
*FROM CLIP NAME:  22-01-01 
000172  A033R0F7                         V     C        06:02:02:18 06:02:05:02 01:11:12:02 01:11:14:10 
*FROM CLIP NAME:  22-02-01 
000173  A033R0F7                         V     C        06:30:05:11 06:30:06:05 01:11:14:10 01:11:15:04 
*FROM CLIP NAME:  22-03-01A 
000174  A033R0F7                         V     C        06:02:13:23 06:02:18:23 01:11:15:04 01:11:20:04 
*FROM CLIP NAME:  22-02-01 
000175  B005R59N                         V     C        08:28:33:13 08:28:37:06 01:11:20:04 01:11:23:21 
*FROM CLIP NAME:  22-03-01B 
000176  A039R0F7                         V     C        03:32:56:14 03:33:05:05 01:11:23:21 01:11:32:12 
*FROM CLIP NAME:  25-01-02 
000177  A039R0F7                         V     C        03:45:51:16 03:45:53:01 01:11:32:12 01:11:33:21 
*FROM CLIP NAME:  25-02-04 
000178  A039R0F7                         V     C        03:51:17:06 03:51:19:10 01:11:33:21 01:11:36:01 
*FROM CLIP NAME:  25-03-02 
000179  B032R59N                         V     C        00:20:41:20 00:21:20:15 01:11:36:01 01:12:14:20 
*FROM CLIP NAME:  26-01-05 
000180  A196C004_160811_L0F7         V     C        02:05:57:13 02:06:22:14 01:12:14:20 01:12:39:21 
*FROM CLIP NAME:  27-01-07 
000181  B032R59N                         V     C        00:58:22:19 00:58:29:11 01:12:39:21 01:12:46:13 
*FROM CLIP NAME:  26-02-03 
000182  A196C004_160811_L0F7         V     C        02:06:44:03 02:06:48:19 01:12:46:13 01:12:51:05 
*FROM CLIP NAME:  27-01-07 
000183  B032R59N                         V     C        00:58:30:01 00:58:33:16 01:12:51:05 01:12:54:20 
*FROM CLIP NAME:  26-02-03 
000184  B006R59N                         V     C        01:23:35:08 01:23:37:10 01:12:54:20 01:12:56:22 
*FROM CLIP NAME:  29_30-01-01 
000185  B006R59N                         V     C        03:42:17:09 03:42:20:03 01:12:56:22 01:12:59:16 
*FROM CLIP NAME:  29_30-02-01 
000186  B006R59N                         V     C        01:23:41:08 01:23:44:13 01:12:59:16 01:13:02:21 
*FROM CLIP NAME:  29_30-01-01 
000187  B006R59N                         V     C        01:23:44:13 01:23:47:17 01:13:02:21 01:13:06:01 
*FROM CLIP NAME:  29_30-01-01 
000188  A038R0F7                         V     C        02:36:09:14 02:36:11:05 01:13:06:01 01:13:07:16 
*FROM CLIP NAME:  31_32-03-03 
000189  A038R0F7                         V     C        02:41:56:02 02:41:58:00 01:13:07:16 01:13:09:14 
*FROM CLIP NAME:  31_32-04-01 
000190  A038R0F7                         V     C        02:21:27:12 02:21:30:03 01:13:09:14 01:13:12:05 
*FROM CLIP NAME:  31_32-02-01 
000191  A038R0F7                         V     C        02:42:04:22 02:42:05:18 01:13:12:05 01:13:13:01 
*FROM CLIP NAME:  31_32-04-01 
000192  A038R0F7                         V     C        02:36:23:11 02:36:24:23 01:13:13:01 01:13:14:13 
*FROM CLIP NAME:  31_32-03-03 
000193  A038R0F7                         V     C        02:42:08:13 02:42:10:11 01:13:14:13 01:13:16:11 
*FROM CLIP NAME:  31_32-04-01 
000194  A038R0F7                         V     C        02:25:21:03 02:25:25:23 01:13:16:11 01:13:21:07 
*FROM CLIP NAME:  31_32-02-03 
000195  A038R0F7                         V     C        02:42:16:11 02:42:17:15 01:13:21:07 01:13:22:11 
*FROM CLIP NAME:  31_32-04-01 
000196  A030R0F7                         V     C        01:33:44:17 01:33:49:17 01:13:22:11 01:13:27:11 
*FROM CLIP NAME:  33-03-02 
000197  A029R0F7                         V     C        00:59:47:23 00:59:50:15 01:13:27:11 01:13:30:03 
*FROM CLIP NAME:  33-02-03 
000198  A030R0F7                         V     C        01:33:53:18 01:33:55:21 01:13:30:03 01:13:32:06 
*FROM CLIP NAME:  33-03-02 
000199  A029R0F7                         V     C        00:59:54:16 01:00:00:11 01:13:32:06 01:13:38:01 
*FROM CLIP NAME:  33-02-03 
000200  A029R0F7                         V     C        00:34:52:04 00:34:57:10 01:13:38:01 01:13:43:07 
*FROM CLIP NAME:  33-01-05 
000201  A029R0F7                         V     C        01:00:08:19 01:00:10:12 01:13:43:07 01:13:45:00 
*FROM CLIP NAME:  33-02-03 
000202  A029R0F7                         V     C        00:34:59:07 00:35:01:12 01:13:45:00 01:13:47:05 
*FROM CLIP NAME:  33-01-05 
000203  A029R0F7                         V     C        01:00:12:06 01:00:13:03 01:13:47:05 01:13:48:02 
*FROM CLIP NAME:  33-02-03 
000204  A198C004_160813_L0F7         V     C        12:16:46:06 12:16:49:09 01:13:48:02 01:13:51:05 
*FROM CLIP NAME:  34-01-03 
000205  A198C006_160813_L0F7         V     C        12:21:08:13 12:21:10:06 01:13:51:05 01:13:52:22 
*FROM CLIP NAME:  34-02-02 
000206  A199C002_160813_L0F7         V     C        12:45:49:22 12:45:55:19 01:13:52:22 01:13:58:19 
*FROM CLIP NAME:  34-05-03 
000207  A199C006_160813_L0F7         V     C        12:58:02:16 12:58:06:03 01:13:58:19 01:14:02:06 
*FROM CLIP NAME:  34-07-01 
000208  A198C007_160813_L0F7         V     C        12:24:21:20 12:24:24:06 01:14:02:06 01:14:04:16 
*FROM CLIP NAME:  34-03-01 
000209  A199C003_160813_L0F7         V     C        12:48:27:00 12:48:28:08 01:14:04:16 01:14:06:00 
*FROM CLIP NAME:  34-05-04 
000210  A200C003_160813_L0F7         V     C        13:57:05:00 13:57:07:23 01:14:06:00 01:14:08:23 
*FROM CLIP NAME:  35-03-01 
000211  A200C001_160813_L0F7         V     C        13:41:48:20 13:41:50:06 01:14:08:23 01:14:10:09 
*FROM CLIP NAME:  35-01-02 
000212  A200C002_160813_L0F7         V     C        13:54:26:21 13:54:28:07 01:14:10:09 01:14:11:19 
*FROM CLIP NAME:  35-02-01 
000213  A200C001_160813_L0F7         V     C        13:41:54:22 13:41:57:07 01:14:11:19 01:14:14:04 
*FROM CLIP NAME:  35-01-02 
000214  A200C003_160813_L0F7         V     C        13:57:17:10 13:57:22:15 01:14:14:04 01:14:19:09 
*FROM CLIP NAME:  35-03-01 
000215  A199C007_160813_L0F7         V     C        13:36:53:16 13:36:58:22 01:14:19:09 01:14:24:15 
*FROM CLIP NAME:  35-01-01 
000216  A200C003_160813_L0F7         V     C        13:57:28:17 13:57:36:03 01:14:24:15 01:14:32:01 
*FROM CLIP NAME:  35-03-01 
000217  A199C007_160813_L0F7         V     C        13:37:06:08 13:37:08:10 01:14:32:01 01:14:34:03 
*FROM CLIP NAME:  35-01-01 
000218  A201C005_160813_L0F7         V     C        14:21:37:05 14:21:41:05 01:14:34:03 01:14:38:03 
*FROM CLIP NAME:  35-08-01 
000219  A199C007_160813_L0F7         V     C        13:37:18:17 13:37:21:23 01:14:38:03 01:14:41:09 
*FROM CLIP NAME:  35-01-01 
000220  A201C006_160813_L0F7         V     C        14:28:15:10 14:28:18:11 01:14:41:09 01:14:44:10 
*FROM CLIP NAME:  35-09-01 
000221  A201C002_160813_L0F7         V     C        14:10:29:20 14:10:33:22 01:14:44:10 01:14:48:12 
*FROM CLIP NAME:  35-06-01 
000222  A200C001_160813_L0F7         V     C        13:42:45:10 13:42:49:01 01:14:48:12 01:14:52:03 
*FROM CLIP NAME:  35-01-02 
000223  A201C004_160813_L0F7         V     C        14:17:22:01 14:17:24:02 01:14:52:03 01:14:54:04 
*FROM CLIP NAME:  35-07-01 
000224  A201C001_160813_L0F7         V     C        14:04:03:21 14:04:06:07 01:14:54:04 01:14:56:14 
*FROM CLIP NAME:  35-05-01 
000225  A201C003_160813_L0F7         V     C        14:13:28:14 14:13:31:23 01:14:56:14 01:14:59:23 
*FROM CLIP NAME:  35-06-02 
000226  A201C006_160813_L0F7         V     C        14:28:44:00 14:28:46:04 01:14:59:23 01:15:02:03 
*FROM CLIP NAME:  35-09-01 
000227  A201C005_160813_L0F7         V     C        14:22:18:16 14:22:19:15 01:15:02:03 01:15:03:02 
*FROM CLIP NAME:  35-08-01 
000228  A200C003_160813_L0F7         V     C        13:58:19:04 13:58:20:21 01:15:03:02 01:15:04:19 
*FROM CLIP NAME:  35-03-01 
000229  A202C003_160813_L0F7         V     C        15:16:57:00 15:17:04:08 01:15:04:19 01:15:12:03 
*FROM CLIP NAME:  36-01-02 
000230  A203C002_160813_L0F7         V     C        15:35:26:21 15:35:30:11 01:15:12:03 01:15:15:17 
*FROM CLIP NAME:  36-02-04 
000231  A202C002_160813_L0F7         V     C        15:14:16:21 15:14:23:01 01:15:15:17 01:15:21:21 
*FROM CLIP NAME:  36-01-01 
000232  A203C003_160813_L0F7         V     C        15:38:23:21 15:38:34:16 01:15:21:21 01:15:32:16 
*FROM CLIP NAME:  36-02-05 
000233  A202C003_160813_L0F7         V     C        15:17:31:17 15:17:33:01 01:15:32:16 01:15:34:00 
*FROM CLIP NAME:  36-01-02 
000234  A203C007_160813_L0F7         V     C        16:12:39:11 16:13:05:06 01:15:34:00 01:15:59:19 
*FROM CLIP NAME:  37-01-04 
000235  A205C002_160813_L0F7         V     C        18:42:57:16 18:43:04:19 01:15:59:19 01:16:06:22 
*FROM CLIP NAME:  39-01-02 
000236  A208C001_160813_L0F7         V     C        19:34:03:19 19:34:05:20 01:16:06:22 01:16:08:23 
*FROM CLIP NAME:  39-07-01 
000237  A205C002_160813_L0F7         V     C        18:43:13:10 18:43:22:07 01:16:08:23 01:16:17:20 
*FROM CLIP NAME:  39-01-02 
000238  A208C001_160813_L0F7         V     C        19:34:23:04 19:34:27:01 01:16:17:20 01:16:21:17 
*FROM CLIP NAME:  39-07-01 
000239  A207C001_160813_L0F7         V     C        19:12:30:13 19:12:32:04 01:16:21:17 01:16:23:08 
*FROM CLIP NAME:  39-04-01 
000240  A208C001_160813_L0F7         V     C        19:34:28:16 19:34:29:11 01:16:23:08 01:16:24:03 
*FROM CLIP NAME:  39-07-01 
000241  A207C001_160813_L0F7         V     C        19:12:36:18 19:12:38:12 01:16:24:03 01:16:25:21 
*FROM CLIP NAME:  39-04-01 
000242  A208C001_160813_L0F7         V     C        19:34:31:05 19:34:34:00 01:16:25:21 01:16:28:16 
*FROM CLIP NAME:  39-07-01 
000243  A207C001_160813_L0F7         V     C        19:12:48:10 19:12:49:22 01:16:28:16 01:16:30:04 
*FROM CLIP NAME:  39-04-01 
000244  A209C001_160813_L0F7             V     C        19:47:21:16 19:47:26:11 01:16:30:04 01:16:34:23 
*FROM CLIP NAME:  A209C001_160813_L0F7.MXF 
000245  A207C001_160813_L0F7         V     C        19:12:54:18 19:12:58:05 01:16:34:23 01:16:38:10 
*FROM CLIP NAME:  39-04-01 
000246  A209C001_160813_L0F7             V     C        19:47:28:21 19:47:33:09 01:16:38:10 01:16:42:22 
*FROM CLIP NAME:  A209C001_160813_L0F7.MXF 
000247  A043R0F7                         V     C        00:30:19:18 00:30:20:15 01:16:42:22 01:16:43:19 
*FROM CLIP NAME:  40-07-01 
000248  A043R0F7                         V     C        00:32:02:06 00:32:04:01 01:16:43:19 01:16:45:14 
*FROM CLIP NAME:  40-07-02 
000249  A040R0F7                         V     C        23:14:11:02 23:14:12:14 01:16:45:14 01:16:47:02 
*FROM CLIP NAME:  40-03-02 
000250  A040C007_160721_R0F7             V     C        23:10:17:05 23:10:19:05 01:16:47:02 01:16:49:02 
*FROM CLIP NAME:  A040C007_160721_R0F7.MXF 
000251  A040R0F7                         V     C        23:14:13:22 23:14:15:15 01:16:49:02 01:16:50:19 
*FROM CLIP NAME:  40-03-02 
000252  A044C001_160722_R0F7             V     C        00:41:19:05 00:41:23:15 01:16:50:19 01:16:55:05 
*FROM CLIP NAME:  A044C001_160722_R0F7.MXF 
000253  A043R0F7                         V     C        00:29:15:04 00:29:20:05 01:16:55:05 01:17:00:06 
*FROM CLIP NAME:  41-01-01A 
000254  B007C002_160722_R59N             V     C        01:36:45:23 01:36:47:21 01:17:00:06 01:17:02:04 
*FROM CLIP NAME:  B007C002_160722_R59N.MXF 
000255  A046C002_160722_R0F7             V     C        02:00:16:01 02:00:21:23 01:17:02:04 01:17:08:02 
*FROM CLIP NAME:  A046C002_160722_R0F7.MXF 
000256  A046R0F7                         V     C        01:46:47:14 01:46:54:20 01:17:08:02 01:17:15:08 
*FROM CLIP NAME:  41-05-04 
000257  A044C001_160722_R0F7             V     C        00:41:53:00 00:41:59:03 01:17:15:08 01:17:21:11 
*FROM CLIP NAME:  A044C001_160722_R0F7.MXF 
000258  A045R0F7                         V     C        01:28:11:08 01:28:12:16 01:17:21:11 01:17:22:19 
*FROM CLIP NAME:  41-04-02 
000259  A046R0F7                         V     C        02:05:25:14 02:05:28:09 01:17:22:19 01:17:25:14 
*FROM CLIP NAME:  41-07-01 
000260  A046R0F7                         V     C        01:47:07:04 01:47:11:14 01:17:25:14 01:17:30:00 
*FROM CLIP NAME:  41-05-04 
000261  A046R0F7                         V     C        02:05:38:22 02:05:42:15 01:17:30:00 01:17:33:17 
*FROM CLIP NAME:  41-07-01 
000262  A045R0F7                         V     C        01:08:40:21 01:08:42:15 01:17:33:17 01:17:35:11 
*FROM CLIP NAME:  41-03-03 
000263  A238L0F7                         V     C        00:31:16:18 00:31:18:21 01:17:35:11 01:17:37:14 
*FROM CLIP NAME:  16A-01-08A 
000264  B009R59N                         V     C        03:32:41:22 03:32:52:08 01:17:37:14 01:17:48:00 
*FROM CLIP NAME:  43-06-01 
000265  A046R0F7                         V     C        02:33:17:10 02:33:18:11 01:17:48:00 01:17:49:01 
*FROM CLIP NAME:  18-01-01 
000266  B009R59N                         V     C        03:41:32:00 03:41:33:04 01:17:49:01 01:17:50:05 
*FROM CLIP NAME:  43-06-02 
000267  B009R59N                         V     C        03:41:33:14 03:41:35:05 01:17:50:05 01:17:51:20 
*FROM CLIP NAME:  43-06-02 
000268  A081R0F7                         V     C        00:11:35:23 00:11:36:17 01:17:51:20 01:17:52:14 
*FROM CLIP NAME:  43-07-01 
000269  B009R59N                         V     C        03:41:35:17 03:41:36:08 01:17:52:14 01:17:53:05 
*FROM CLIP NAME:  43-06-02 
000270  A080R0F7                         V     C        00:34:31:20 00:34:32:13 01:17:53:05 01:17:53:22 
*FROM CLIP NAME:  43-02-02 
000271  A080R0F7                         V     C        00:35:49:20 00:35:52:03 01:17:53:22 01:17:56:05 
*FROM CLIP NAME:  43-02-03 
000272  A080R0F7                         V     C        00:36:13:01 00:36:16:03 01:17:56:05 01:17:59:07 
*FROM CLIP NAME:  43-02-03 
000273  A080R0F7                         V     C        00:37:07:19 00:37:09:07 01:17:59:07 01:18:00:19 
*FROM CLIP NAME:  43-03-01 
000274  A080R0F7                         V     C        00:36:17:05 00:36:18:09 01:18:00:19 01:18:01:23 
*FROM CLIP NAME:  43-02-03 
000275  B009R59N                         V     C        00:57:43:21 00:57:46:02 01:18:01:23 01:18:04:04 
*FROM CLIP NAME:  43-01-03 
000276  A080R0F7                         V     C        00:36:19:16 00:36:24:17 01:18:04:04 01:18:09:05 
*FROM CLIP NAME:  43-02-03 
000277  A080R0F7                         V     C        00:39:18:06 00:39:21:02 01:18:09:05 01:18:12:01 
*FROM CLIP NAME:  43-05-01 
000278  A080R0F7                         V     C        00:36:27:13 00:36:36:03 01:18:12:01 01:18:20:15 
*FROM CLIP NAME:  43-02-03 
000279  A080R0F7                         V     C        00:39:22:01 00:39:24:02 01:18:20:15 01:18:22:16 
*FROM CLIP NAME:  43-05-01 
000280  A080R0F7                         V     C        00:39:26:21 00:39:30:16 01:18:22:16 01:18:26:11 
*FROM CLIP NAME:  43-05-01 
000281  A080R0F7                         V     C        00:36:17:10 00:36:22:07 01:18:26:11 01:18:31:08 
*FROM CLIP NAME:  43-02-03 
000282  A080R0F7                         V     C        00:39:11:17 00:39:16:12 01:18:31:08 01:18:36:03 
*FROM CLIP NAME:  43-05-01 
000283  B009R59N                         V     C        00:57:45:17 00:57:49:14 01:18:36:03 01:18:40:00 
*FROM CLIP NAME:  43-01-03 
000284  A080R0F7                         V     C        00:36:27:05 00:36:30:20 01:18:40:00 01:18:43:15 
*FROM CLIP NAME:  43-02-03 
000285  B035R56W                         V     C        03:21:29:02 03:21:30:19 01:18:43:15 01:18:45:08 
*FROM CLIP NAME:  B035C001_160817_R56W 
000286  C001C010_160808_R0V3         V     C        00:09:47:05 00:09:51:00 01:18:58:23 01:19:02:18 
*FROM CLIP NAME:  44-01-05C 
000287  A174C003_160809_L0F7         V     C        00:09:56:08 00:09:58:12 01:19:02:18 01:19:04:22 
*FROM CLIP NAME:  44-01-05A 
000288  B027C017_160808_R59N         V     C        00:10:03:07 00:10:11:14 01:19:04:22 01:19:13:05 
*FROM CLIP NAME:  44-01-05B 
000289  C001C010_160808_R0V3         V     C        00:10:11:14 00:10:17:21 01:19:13:05 01:19:19:12 
*FROM CLIP NAME:  44-01-05C 
000290  A174C003_160809_L0F7         V     C        00:10:17:21 00:10:22:21 01:19:19:12 01:19:24:12 
*FROM CLIP NAME:  44-01-05A 
000291  B027C017_160808_R59N         V     C        00:10:22:21 00:10:38:03 01:19:24:12 01:19:39:18 
*FROM CLIP NAME:  44-01-05B 
000292  A174C003_160809_L0F7         V     C        00:10:38:03 00:10:39:18 01:19:39:18 01:19:41:09 
*FROM CLIP NAME:  44-01-05A 
000293  B027C017_160808_R59N         V     C        00:10:39:18 00:10:41:18 01:19:41:09 01:19:43:09 
*FROM CLIP NAME:  44-01-05B 
000294  C001C010_160808_R0V3         V     C        00:10:46:16 00:10:50:00 01:19:43:09 01:19:46:17 
*FROM CLIP NAME:  44-01-05C 
000295  A174C003_160809_L0F7         V     C        00:10:50:01 00:10:54:17 01:19:46:17 01:19:51:09 
*FROM CLIP NAME:  44-01-05A 
000296  B027C015_160808_R59N         V     C        00:03:57:14 00:04:03:05 01:19:51:09 01:19:57:00 
*FROM CLIP NAME:  44-01-03B 
000297  A046R0F7                         V     C        02:34:15:21 02:34:17:05 01:19:57:00 01:19:58:08 
*FROM CLIP NAME:  18-01-02 
000298  B028C008_160809_R59N         V     C        02:04:24:02 02:04:31:10 01:19:58:08 01:20:05:16 
*FROM CLIP NAME:  44-03-01B 
000299  A174C003_160809_L0F7         V     C        00:11:13:00 00:11:14:23 01:20:05:16 01:20:07:15 
*FROM CLIP NAME:  44-01-05A 
000300  B028C008_160809_R59N         V     C        02:04:34:15 02:04:36:17 01:20:07:15 01:20:09:17 
*FROM CLIP NAME:  44-03-01B 
000301  C002C002_160808_R0V3         V     C        02:04:38:04 02:04:42:01 01:20:09:17 01:20:13:14 
*FROM CLIP NAME:  44-03-01C 
000302  B028C008_160809_R59N         V     C        02:04:42:01 02:04:54:23 01:20:13:14 01:20:26:12 
*FROM CLIP NAME:  44-03-01B 
000303  C002C002_160808_R0V3         V     C        02:04:54:23 02:05:03:22 01:20:26:12 01:20:35:11 
*FROM CLIP NAME:  44-03-01C 
000304  A178C004_160809_L0F7         V     C        03:33:54:08 03:33:56:06 01:20:35:11 01:20:37:09 
*FROM CLIP NAME:  45-01-04 
000305  A076R0F7                         V     C        00:29:20:14 00:29:30:02 01:20:37:09 01:20:46:21 
*FROM CLIP NAME:  46-01-03 
000306  A076R0F7                         V     C        00:29:31:04 00:29:33:09 01:20:46:21 01:20:49:02 
*FROM CLIP NAME:  46-01-03 
000307  A076R0F7                         V     C        00:29:35:10 00:29:37:15 01:20:49:02 01:20:51:07 
*FROM CLIP NAME:  46-01-03 
000308  A078R0F7                         V     C        01:11:39:23 01:11:43:14 01:20:51:07 01:20:54:22 
*FROM CLIP NAME:  46-03-01A 
000309  A076R0F7                         V     C        00:20:27:15 00:20:30:06 01:20:54:22 01:20:57:13 
*FROM CLIP NAME:  46-01-01 
000310  A078R0F7                         V     C        01:11:46:21 01:11:47:15 01:20:57:13 01:20:58:07 
*FROM CLIP NAME:  46-03-01A 
000311  A076R0F7                         V     C        00:29:45:14 00:29:51:11 01:20:58:07 01:21:04:04 
*FROM CLIP NAME:  46-01-03 
000312  A078R0F7                         V     C        01:11:53:04 01:11:55:11 01:21:04:04 01:21:06:11 
*FROM CLIP NAME:  46-03-01A 
000313  A076R0F7                         V     C        00:29:56:07 00:29:58:20 01:21:06:11 01:21:09:00 
*FROM CLIP NAME:  46-01-03 
000314  A078R0F7                         V     C        01:24:05:12 01:24:06:08 01:21:09:00 01:21:09:20 
*FROM CLIP NAME:  46-04-02A 
000315  A078R0F7                         V     C        01:20:37:22 01:20:39:01 01:21:09:20 01:21:10:23 
*FROM CLIP NAME:  46-04-01A 
000316  A076R0F7                         V     C        00:29:48:15 00:29:49:06 01:21:10:23 01:21:11:14 
*FROM CLIP NAME:  46-01-03 
000317  A076R0F7                         V     C        00:30:02:11 00:30:05:02 01:21:11:14 01:21:14:05 
*FROM CLIP NAME:  46-01-03 
000318  A078R0F7                         V     C        01:20:42:07 01:20:44:08 01:21:14:05 01:21:16:06 
*FROM CLIP NAME:  46-04-01A 
000319  A077R0F7                         V     C        00:43:11:18 00:43:15:01 01:21:16:06 01:21:19:13 
*FROM CLIP NAME:  46-02-03 
000320  A078R0F7                         V     C        01:24:16:10 01:24:19:05 01:21:19:13 01:21:22:08 
*FROM CLIP NAME:  46-04-02A 
000321  A077R0F7                         V     C        00:43:17:19 00:43:18:08 01:21:22:08 01:21:22:21 
*FROM CLIP NAME:  46-02-03 
000322  A077R0F7                         V     C        00:43:18:08 00:43:20:16 01:21:22:21 01:21:25:05 
*FROM CLIP NAME:  46-02-03 
000323  A078R0F7                         V     C        01:24:21:23 01:24:22:11 01:21:25:05 01:21:25:17 
*FROM CLIP NAME:  46-04-02A 
000324  A077R0F7                         V     C        00:43:21:21 00:43:23:18 01:21:25:17 01:21:27:14 
*FROM CLIP NAME:  46-02-03 
000325  A077R0F7                         V     C        01:31:41:16 01:31:52:05 01:21:27:14 01:21:38:03 
*FROM CLIP NAME:  46-05-01A 
000326  B009R59N                         V     C        00:16:11:02 00:16:13:23 01:21:38:03 01:21:41:00 
*FROM CLIP NAME:  46-05-01B 
000327  A078R0F7                         V     C        01:24:38:09 01:24:53:02 01:21:41:00 01:21:55:17 
*FROM CLIP NAME:  46-04-02A 
000328  A077R0F7                         V     C        01:32:12:19 01:32:35:00 01:21:55:17 01:22:17:22 
*FROM CLIP NAME:  46-05-01A 
000329  A077R0F7                         V     C        00:44:05:21 00:44:09:10 01:22:17:22 01:22:21:11 
*FROM CLIP NAME:  46-02-03 
000330  A077R0F7                         V     C        01:32:44:02 01:32:45:19 01:22:21:11 01:22:23:04 
*FROM CLIP NAME:  46-05-01A 
000331  B009R59N                         V     C        00:21:53:01 00:21:55:15 01:22:23:04 01:22:25:18 
*FROM CLIP NAME:  47-01-01 
000332  A175C003_160809_L0F7         V     C        01:07:05:23 01:07:09:08 01:22:25:18 01:22:29:03 
*FROM CLIP NAME:  49-01-01A 
000333  B028C003_160809_R59N         V     C        01:07:09:08 01:07:12:15 01:22:29:03 01:22:32:10 
*FROM CLIP NAME:  49-01-01B 
000334  C002C001_160808_R0V3         V     C        01:52:41:14 01:52:43:19 01:22:32:10 01:22:34:15 
*FROM CLIP NAME:  49-02-01C 
000335  C002C003_160808_R0V3         V     C        02:26:16:06 02:26:18:17 01:22:34:15 01:22:37:02 
*FROM CLIP NAME:  49-03-01C 
000336  C002C001_160808_R0V3         V     C        01:52:48:09 01:52:53:13 01:22:37:02 01:22:42:06 
*FROM CLIP NAME:  49-02-01C 
000337  B028C003_160809_R59N         V     C        01:07:20:19 01:07:25:10 01:22:42:06 01:22:46:21 
*FROM CLIP NAME:  49-01-01B 
000338  A175C003_160809_L0F7         V     C        01:07:25:10 01:07:45:02 01:22:46:21 01:23:06:13 
*FROM CLIP NAME:  49-01-01A 
000339  C001C014_160808_R0V3         V     C        01:07:45:02 01:07:50:20 01:23:06:13 01:23:12:07 
*FROM CLIP NAME:  49-01-01C 
000340  B028C003_160809_R59N         V     C        01:07:50:20 01:07:54:20 01:23:12:07 01:23:16:07 
*FROM CLIP NAME:  49-01-01B 
000341  A175C003_160809_L0F7         V     C        01:07:54:20 01:08:06:16 01:23:16:07 01:23:28:03 
*FROM CLIP NAME:  49-01-01A 
000342  B028C003_160809_R59N         V     C        01:08:06:16 01:08:07:23 01:23:28:03 01:23:29:10 
*FROM CLIP NAME:  49-01-01B 
000343  A176C001_160809_L0F7         V     C        01:17:44:07 01:17:52:01 01:23:29:10 01:23:37:04 
*FROM CLIP NAME:  49-01-02A 
000344  B028C006_160809_R59N         V     C        01:55:40:14 01:55:49:22 01:23:37:04 01:23:46:12 
*FROM CLIP NAME:  49-02-01B 
000345  A177C001_160809_L0F7         V     C        01:55:49:22 01:55:58:04 01:23:46:12 01:23:54:18 
*FROM CLIP NAME:  49-02-01A 
000346  C002C001_160808_R0V3         V     C        01:55:58:04 01:56:07:04 01:23:54:18 01:24:03:18 
*FROM CLIP NAME:  49-02-01C 
000347  B028C005_160809_R59N         V     C        01:22:37:20 01:22:41:14 01:24:03:18 01:24:07:12 
*FROM CLIP NAME:  49-01-03B 
000348  A176C002_160809_L0F7         V     C        01:22:41:14 01:22:45:05 01:24:07:12 01:24:11:03 
*FROM CLIP NAME:  49-01-03A 
000349  B028C005_160809_R59N         V     C        01:22:45:05 01:22:47:14 01:24:11:03 01:24:13:12 
*FROM CLIP NAME:  49-01-03B 
000350  C001C018_160808_R0V3         V     C        01:22:47:14 01:22:50:06 01:24:13:12 01:24:16:04 
*FROM CLIP NAME:  49-01-03C 
000351  B028C004_160809_R59N         V     C        01:18:35:22 01:18:40:05 01:24:16:04 01:24:20:11 
*FROM CLIP NAME:  49-01-02B 
000352  A176C002_160809_L0F7         V     C        01:22:58:08 01:23:03:02 01:24:20:11 01:24:25:05 
*FROM CLIP NAME:  49-01-03A 
000353  B028C005_160809_R59N         V     C        01:23:03:02 01:23:08:06 01:24:25:05 01:24:30:09 
*FROM CLIP NAME:  49-01-03B 
000354  C001C018_160808_R0V3         V     C        01:23:10:01 01:23:13:21 01:24:30:09 01:24:34:05 
*FROM CLIP NAME:  49-01-03C 
000355  B036R56W                         V     C        04:55:11:04 04:55:14:06 01:24:34:05 01:24:37:07 
*FROM CLIP NAME:  B036C001_160817_R56W 
000356  A176C002_160809_L0F7         V     C        01:23:16:23 01:23:20:19 01:24:37:07 01:24:41:03 
*FROM CLIP NAME:  49-01-03A 
000357  A106R0F7                         V     C        03:35:33:13 03:35:51:11 01:24:41:03 01:24:59:01 
*FROM CLIP NAME:  50-04-02 
000358  A105R0F7                         V     C        03:18:11:15 03:18:13:12 01:24:59:01 01:25:00:22 
*FROM CLIP NAME:  50-03-02 
000359  A104R0F7                         V     C        02:58:52:02 02:58:54:23 01:25:00:22 01:25:03:19 
*FROM CLIP NAME:  50-01-02 
000360  A105R0F7                         V     C        03:18:18:12 03:18:20:15 01:25:03:19 01:25:05:22 
*FROM CLIP NAME:  50-03-02 
000361  A104R0F7                         V     C        02:58:58:07 02:59:00:00 01:25:05:22 01:25:07:15 
*FROM CLIP NAME:  50-01-02 
000362  A105R0F7                         V     C        03:15:48:00 03:15:50:00 01:25:07:15 01:25:09:15 
*FROM CLIP NAME:  50-03-01 
000363  A104R0F7                         V     C        02:59:02:23 02:59:21:15 01:25:09:15 01:25:28:07 
*FROM CLIP NAME:  50-01-02 
000364  A105R0F7                         V     C        03:18:42:19 03:18:53:01 01:25:28:07 01:25:38:13 
*FROM CLIP NAME:  50-03-02 
000365  A107R0F7                         V     C        04:43:33:19 04:43:57:23 01:25:38:13 01:26:02:17 
*FROM CLIP NAME:  52_53-02-04 
000366  A106R0F7                         V     C        04:04:13:09 04:04:16:23 01:26:02:17 01:26:06:07 
*FROM CLIP NAME:  52_53-01-01 
000367  A107R0F7                         V     C        04:33:33:09 04:33:52:14 01:26:06:07 01:26:25:12 
*FROM CLIP NAME:  52_53-02-03 
000368  A073R0F7                         V     C        23:16:00:09 23:16:06:07 01:26:25:12 01:26:31:10 
*FROM CLIP NAME:  54-03-03 
000369  A073R0F7                         V     C        23:13:54:18 23:13:56:03 01:26:31:10 01:26:32:19 
*FROM CLIP NAME:  54-03-02 
000370  A073R0F7                         V     C        23:13:59:07 23:14:00:06 01:26:32:19 01:26:33:18 
*FROM CLIP NAME:  54-03-02 
000371  A060R0F7                         V     C        13:26:34:20 13:26:39:13 01:26:33:18 01:26:38:11 
*FROM CLIP NAME:  55-01-05 
000372  A060R0F7                         V     C        13:26:39:13 13:26:39:13 01:26:38:11 01:26:38:11 
000372  A060R0F7                         V     D    002 13:26:40:04 13:26:40:06 01:26:38:11 01:26:38:13 
*BLEND, DISSOLVE 
*FROM CLIP NAME:  55-01-05 
*TO CLIP NAME:  55-01-05 
000373  A060R0F7                         V     C        13:26:40:06 13:26:41:05 01:26:38:13 01:26:39:12 
*FROM CLIP NAME:  55-01-05 
000374  A065R0F7                         V     C        16:21:24:06 16:21:29:02 01:26:39:12 01:26:44:08 
*FROM CLIP NAME:  55-10-02 
000375  A060R0F7                         V     C        13:26:45:14 13:26:47:15 01:26:44:08 01:26:46:09 
*FROM CLIP NAME:  55-01-05 
000376  A063R0F7                         V     C        15:17:19:09 15:17:20:18 01:26:46:09 01:26:47:18 
*FROM CLIP NAME:  55-06-03 
000377  A060R0F7                         V     C        13:26:48:05 13:26:49:02 01:26:47:18 01:26:48:15 
*FROM CLIP NAME:  55-01-05 
000378  A063R0F7                         V     C        15:35:15:14 15:35:21:15 01:26:48:15 01:26:54:16 
*FROM CLIP NAME:  55-07-01 
000379  A057R0F7                         V     C        13:03:16:04 13:03:50:14 01:26:54:16 01:27:29:02 
*FROM CLIP NAME:  55-01-01 
000380  A065R0F7                         V     C        16:22:25:18 16:22:28:04 01:27:29:02 01:27:31:12 
*FROM CLIP NAME:  55-10-02 
000381  A057R0F7                         V     C        13:03:53:22 13:03:55:04 01:27:31:12 01:27:32:18 
*FROM CLIP NAME:  55-01-01 
000382  A062R0F7                         V     C        14:44:31:13 14:44:32:11 01:27:32:18 01:27:33:16 
*FROM CLIP NAME:  55-04-01 
000383  A062R0F7                         V     C        14:44:32:11 14:44:34:05 01:27:33:16 01:27:35:10 
*FROM CLIP NAME:  55-04-01 
000384  A065R0F7                         V     C        16:22:40:17 16:22:52:10 01:27:35:10 01:27:47:03 
*FROM CLIP NAME:  55-10-02 
000385  A060R0F7                         V     C        13:27:52:15 13:27:56:09 01:27:47:03 01:27:50:21 
*FROM CLIP NAME:  55-01-05 
000386  A062R0F7                         V     C        14:30:09:02 14:30:12:11 01:27:50:21 01:27:54:06 
*FROM CLIP NAME:  55-03-02 
000387  A060R0F7                         V     C        13:28:16:12 13:28:25:23 01:27:54:06 01:28:03:17 
*FROM CLIP NAME:  55-01-05 
000388  A064R0F7                         V     C        15:55:44:01 15:55:45:17 01:28:03:17 01:28:05:09 
*FROM CLIP NAME:  55-09-01 
000389  A065R0F7                         V     C        16:37:24:20 16:37:27:16 01:28:05:09 01:28:08:05 
*FROM CLIP NAME:  55-11-01 
000390  A064R0F7                         V     C        15:55:47:20 15:55:50:08 01:28:08:05 01:28:10:17 
*FROM CLIP NAME:  55-09-01 
000391  A060R0F7                         V     C        13:28:36:05 13:28:38:08 01:28:10:17 01:28:12:20 
*FROM CLIP NAME:  55-01-05 
000392  A064R0F7                         V     C        15:55:52:11 15:55:53:13 01:28:12:20 01:28:13:22 
*FROM CLIP NAME:  55-09-01 
000393  A065R0F7                         V     C        16:38:01:09 16:38:03:02 01:28:13:22 01:28:15:15 
*FROM CLIP NAME:  55-11-01 
000394  A064R0F7                         V     C        15:55:56:02 15:55:56:20 01:28:15:15 01:28:16:09 
*FROM CLIP NAME:  55-09-01 
000395  A060R0F7                         V     C        13:28:42:05 13:28:45:06 01:28:16:09 01:28:19:10 
*FROM CLIP NAME:  55-01-05 
000396  A062R0F7                         V     C        14:47:39:07 14:47:43:05 01:28:19:10 01:28:23:08 
*FROM CLIP NAME:  55-04-01 
000397  A060R0F7                         V     C        13:28:49:14 13:28:53:03 01:28:23:08 01:28:26:21 
*FROM CLIP NAME:  55-01-05 
000398  A064R0F7                         V     C        15:56:05:09 15:56:06:01 01:28:26:21 01:28:27:13 
*FROM CLIP NAME:  55-09-01 
000399  A065R0F7                         V     C        16:38:06:04 16:38:08:17 01:28:27:13 01:28:30:02 
*FROM CLIP NAME:  55-11-01 
000400  A064R0F7                         V     C        15:56:06:15 15:56:07:03 01:28:30:02 01:28:30:14 
*FROM CLIP NAME:  55-09-01 
000401  A060R0F7                         V     C        13:28:54:04 13:28:56:23 01:28:30:14 01:28:33:09 
*FROM CLIP NAME:  55-01-05 
000402  A064R0F7                         V     C        15:56:10:00 15:56:11:12 01:28:33:09 01:28:34:21 
*FROM CLIP NAME:  55-09-01 
000403  A065R0F7                         V     C        16:38:11:09 16:38:14:08 01:28:34:21 01:28:37:20 
*FROM CLIP NAME:  55-11-01 
000404  A065R0F7                         V     C        16:38:19:08 16:38:20:03 01:28:37:20 01:28:38:15 
*FROM CLIP NAME:  55-11-01 
000405  A065R0F7                         V     C        16:38:34:11 16:38:36:03 01:28:38:15 01:28:40:07 
*FROM CLIP NAME:  55-11-01 
000406  A064R0F7                         V     C        15:56:26:11 15:56:27:21 01:28:40:07 01:28:41:17 
*FROM CLIP NAME:  55-09-01 
000407  A060R0F7                         V     C        13:29:14:21 13:29:17:04 01:28:41:17 01:28:44:00 
*FROM CLIP NAME:  55-01-05 
000408  A060R0F7                         V     C        13:29:21:19 13:29:48:19 01:28:44:00 01:29:11:00 
*FROM CLIP NAME:  55-01-05 
000409  A062R0F7                         V     C        14:48:32:23 14:48:38:18 01:29:11:00 01:29:16:19 
*FROM CLIP NAME:  55-04-01 
000410  A060R0F7                         V     C        13:29:56:05 13:29:59:04 01:29:16:19 01:29:19:18 
*FROM CLIP NAME:  55-01-05 
000411  A065R0F7                         V     C        16:24:47:20 16:24:50:16 01:29:19:18 01:29:22:14 
*FROM CLIP NAME:  55-10-02 
000412  A065R0F7                         V     C        16:24:51:15 16:24:53:10 01:29:22:14 01:29:24:09 
*FROM CLIP NAME:  55-10-02 
000413  A065R0F7                         V     C        16:24:54:23 16:25:01:05 01:29:24:09 01:29:30:15 
*FROM CLIP NAME:  55-10-02 
000414  A065R0F7                         V     C        16:25:01:05 16:25:01:05 01:29:30:15 01:29:30:15 
000414  A074R0F7                         V     W002 008 16:59:01:20 16:59:02:04 01:29:30:15 01:29:30:23 
*EDGE WIPE, HORIZONTAL 
*FROM CLIP NAME:  55-10-02 
*TO CLIP NAME:  56-01-01 
000415  A074R0F7                         V     C        16:59:02:04 16:59:11:22 01:29:30:23 01:29:40:17 
*FROM CLIP NAME:  56-01-01 
000416  B008R59N                         V     C        20:47:54:02 20:48:32:21 01:29:40:17 01:30:19:12 
*FROM CLIP NAME:  57-01-09 
000417  B008R59N                         V     C        19:24:02:05 19:24:04:12 01:30:19:12 01:30:21:19 
*FROM CLIP NAME:  58-03-01 
000418  A075R0F7                         V     C        18:16:35:05 18:16:37:07 01:30:21:19 01:30:23:21 
*FROM CLIP NAME:  59-02-03 
000419  A074R0F7                         V     C        17:45:58:03 17:46:00:05 01:30:23:21 01:30:25:23 
*FROM CLIP NAME:  59-01-04 
000420  A069R0F7                         V     C        20:03:54:02 20:04:19:00 01:30:25:23 01:30:50:21 
*FROM CLIP NAME:  60_63-02-03 
000421  A214C010_160814_L0F7             V     C        01:10:54:18 01:10:57:02 01:30:50:21 01:30:53:05 
*FROM CLIP NAME:  61-02-02 
000422  A214C010_160814_L0F7             V     C        01:10:58:05 01:10:59:00 01:30:53:05 01:30:54:00 
*FROM CLIP NAME:  61-02-02 
000423  A214C007_160814_L0F7             V     C        01:03:38:17 01:03:42:01 01:30:54:00 01:30:57:08 
*FROM CLIP NAME:  61-01-03 
000424  A215C004_160814_L0F7             V     C        14:12:32:12 14:12:35:16 01:30:57:08 01:31:00:12 
*FROM CLIP NAME:  62-01-04 
000425  A216C002_160814_L0F7             V     C        14:42:06:08 14:42:13:14 01:31:00:12 01:31:07:18 
*FROM CLIP NAME:  62-03-01 
000426  A219C004_160814_L0F7             V     C        16:19:12:11 16:19:16:12 01:31:07:18 01:31:11:19 
*FROM CLIP NAME:  62-08-01 
000427  A216C001_160814_L0F7             V     C        14:33:56:04 14:33:58:19 01:31:11:19 01:31:14:10 
*FROM CLIP NAME:  62-02-01 
000428  A215C002_160814_L0F7             V     C        14:04:07:03 14:04:28:16 01:31:14:10 01:31:35:23 
*FROM CLIP NAME:  62-01-02 
000429  A216C001_160814_L0F7             V     C        14:34:22:15 14:34:29:12 01:31:35:23 01:31:42:20 
*FROM CLIP NAME:  62-02-01 
000430  A215C001_160814_L0F7             V     C        14:00:01:18 14:00:06:20 01:31:42:20 01:31:47:22 
*FROM CLIP NAME:  62-01-01 
000431  A216C001_160814_L0F7             V     C        14:34:34:09 14:34:39:15 01:31:47:22 01:31:53:04 
*FROM CLIP NAME:  62-02-01 
000432  A215C004_160814_L0F7             V     C        14:13:28:06 14:13:32:21 01:31:53:04 01:31:57:19 
*FROM CLIP NAME:  62-01-04 
000433  A216C001_160814_L0F7             V     C        14:34:44:09 14:34:51:02 01:31:57:19 01:32:04:12 
*FROM CLIP NAME:  62-02-01 
000434  A215C001_160814_L0F7             V     C        14:00:15:10 14:00:25:22 01:32:04:12 01:32:15:00 
*FROM CLIP NAME:  62-01-01 
000435  A215C001_160814_L0F7             V     C        14:00:25:22 14:00:29:21 01:32:15:00 01:32:18:23 
*FROM CLIP NAME:  62-01-01 
000436  A069C002_160725_R0F7             V     C        19:58:22:01 19:58:25:13 01:32:18:23 01:32:22:11 
*FROM CLIP NAME:  60_63-02-02 
000437  A218C001_160814_L0F7             V     C        15:39:18:00 15:39:21:22 01:32:22:11 01:32:26:09 
*FROM CLIP NAME:  62-04-03 
000438  A219C001_160814_L0F7         V     C        16:00:35:15 16:00:40:01 01:32:26:09 01:32:30:19 
*FROM CLIP NAME:  62-05-02 
000439  A219C001_160814_L0F7         V     C        16:00:38:01 16:00:44:23 01:32:30:19 01:32:37:17 
*FROM CLIP NAME:  62-05-02 
000440  A218C001_160814_L0F7             V     C        15:39:29:02 15:39:38:09 01:32:37:17 01:32:47:00 
*FROM CLIP NAME:  62-04-03 
000441  A219C001_160814_L0F7         V     C        16:00:55:07 16:00:59:07 01:32:47:00 01:32:51:00 
*FROM CLIP NAME:  62-05-02 
000442  A218C002_160814_L0F7             V     C        15:43:43:03 15:43:47:13 01:32:51:00 01:32:55:10 
*FROM CLIP NAME:  62-04-04 
000443  A218C001_160814_L0F7             V     C        15:39:46:09 15:39:50:14 01:32:55:10 01:32:59:15 
*FROM CLIP NAME:  62-04-03 
000444  A218C003_160814_L0F7             V     C        15:57:54:16 15:57:59:19 01:32:59:15 01:33:04:18 
*FROM CLIP NAME:  62-05-01 
000445  A218C001_160814_L0F7             V     C        15:39:57:23 15:40:15:14 01:33:04:18 01:33:22:09 
*FROM CLIP NAME:  62-04-03 
000446  A219C004_160814_L0F7             V     C        16:20:41:06 16:20:43:20 01:33:22:09 01:33:24:23 
*FROM CLIP NAME:  62-08-01 
000447  A217C003_160814_L0F7             V     C        15:19:13:13 15:19:18:09 01:33:24:23 01:33:29:19 
*FROM CLIP NAME:  62-04-02 
000448  A066R0F7                         V     C        18:43:01:09 18:43:34:06 01:33:29:19 01:34:02:16 
*FROM CLIP NAME:  60_63-01-05 
000449  A070R0F7                         V     C        21:05:13:20 21:05:29:04 01:34:02:16 01:34:18:00 
*FROM CLIP NAME:  64-01-04 
000450  A071R0F7                         V     C        21:35:02:17 21:35:04:17 01:34:18:00 01:34:20:00 
*FROM CLIP NAME:  64-02-04 
000451  A069R0F7                         V     C        20:54:46:01 20:54:48:11 01:34:20:00 01:34:22:10 
*FROM CLIP NAME:  64-01-02 
000452  A071R0F7                         V     C        21:31:28:20 21:31:34:06 01:34:22:10 01:34:27:20 
*FROM CLIP NAME:  64-02-03 
000453  A070R0F7                         V     C        21:01:21:15 21:01:23:19 01:34:27:20 01:34:30:00 
*FROM CLIP NAME:  64-01-03 
000454  A071R0F7                         V     C        21:31:36:19 21:31:40:09 01:34:30:00 01:34:33:14 
*FROM CLIP NAME:  64-02-03 
000455  A069R0F7                         V     C        20:55:01:19 20:55:04:19 01:34:33:14 01:34:36:14 
*FROM CLIP NAME:  64-01-02 
000456  A071R0F7                         V     C        21:31:44:13 21:31:46:06 01:34:36:14 01:34:38:07 
*FROM CLIP NAME:  64-02-03 
000457  A069R0F7                         V     C        20:55:09:03 20:55:11:10 01:34:38:07 01:34:40:14 
*FROM CLIP NAME:  64-01-02 
000458  A070R0F7                         V     C        21:21:56:18 21:22:05:20 01:34:40:14 01:34:49:16 
*FROM CLIP NAME:  64-02-01 
000459  A070R0F7                         V     C        21:06:01:02 21:06:04:02 01:34:49:16 01:34:52:16 
*FROM CLIP NAME:  64-01-04 
000460  A071R0F7                         V     C        21:28:57:22 21:29:04:00 01:34:52:16 01:34:58:18 
*FROM CLIP NAME:  64-02-02 
000461  A070R0F7                         V     C        21:06:03:04 21:06:05:08 01:34:58:18 01:35:00:22 
*FROM CLIP NAME:  64-01-04 
000462  A071R0F7                         V     C        21:35:43:10 21:35:44:02 01:35:00:22 01:35:01:14 
*FROM CLIP NAME:  64-02-04 
000463  A070R0F7                         V     C        21:22:11:07 21:22:21:12 01:35:01:14 01:35:11:19 
*FROM CLIP NAME:  64-02-01 
000464  A070R0F7                         V     C        21:06:27:09 21:06:28:13 01:35:11:19 01:35:12:23 
*FROM CLIP NAME:  64-01-04 
000465  A071R0F7                         V     C        21:35:58:01 21:36:04:21 01:35:12:23 01:35:19:19 
*FROM CLIP NAME:  64-02-04 
000466  A069R0F7                         V     C        20:55:44:10 20:55:49:23 01:35:19:19 01:35:25:08 
*FROM CLIP NAME:  64-01-02 
000467  A070R0F7                         V     C        21:06:43:16 21:06:46:07 01:35:25:08 01:35:27:23 
*FROM CLIP NAME:  64-01-04 
000468  A068R0F7                         V     C        19:45:32:06 19:45:37:12 01:35:47:14 01:35:52:20 
*FROM CLIP NAME:  65-06-01 
000469  A068R0F7                         V     C        19:30:17:12 19:30:24:04 01:35:52:20 01:35:59:12 
*FROM CLIP NAME:  65-04-01 
000470  A066R0F7                         V     C        18:58:29:02 18:58:34:00 01:35:59:12 01:36:04:10 
*FROM CLIP NAME:  65-01-01 
000471  A068R0F7                         V     C        19:30:27:16 19:30:39:14 01:36:04:10 01:36:16:08 
*FROM CLIP NAME:  65-04-01 
000472  A068R0F7                         V     C        19:45:49:07 19:45:51:18 01:36:16:08 01:36:18:19 
*FROM CLIP NAME:  65-06-01 
000473  A067R0F7                         V     C        19:02:59:14 19:03:01:14 01:36:18:19 01:36:20:19 
*FROM CLIP NAME:  65-02-01 
000474  A068R0F7                         V     C        19:30:43:10 19:30:48:15 01:36:20:19 01:36:26:00 
*FROM CLIP NAME:  65-04-01 
000475  A068R0F7                         V     C        19:45:55:02 19:45:57:19 01:36:26:00 01:36:28:17 
*FROM CLIP NAME:  65-06-01 
000476  A067R0F7                         V     C        19:09:54:14 19:09:56:20 01:36:28:17 01:36:30:23 
*FROM CLIP NAME:  65-03-01 
000477  A068R0F7                         V     C        19:45:59:12 19:46:01:14 01:36:30:23 01:36:33:01 
*FROM CLIP NAME:  65-06-01 
000478  A067R0F7                         V     C        19:09:58:18 19:10:02:00 01:36:33:01 01:36:36:07 
*FROM CLIP NAME:  65-03-01 
000479  A068R0F7                         V     C        19:30:54:19 19:31:05:03 01:36:36:07 01:36:46:15 
*FROM CLIP NAME:  65-04-01 
000480  A067R0F7                         V     C        19:03:22:08 19:03:23:19 01:36:46:15 01:36:48:02 
*FROM CLIP NAME:  65-02-01 
000481  A068R0F7                         V     C        19:31:01:21 19:31:11:00 01:36:48:02 01:36:57:05 
*FROM CLIP NAME:  65-04-01 
000482  A067R0F7                         V     C        19:13:35:12 19:13:42:02 01:36:57:05 01:37:03:19 
*FROM CLIP NAME:  65-03-02 
000483  A068R0F7                         V     C        19:46:13:20 19:46:15:17 01:37:03:19 01:37:05:16 
*FROM CLIP NAME:  65-06-01 
000484  A068R0F7                         V     C        19:31:22:09 19:31:27:09 01:37:05:16 01:37:10:16 
*FROM CLIP NAME:  65-04-01 
000485  A068R0F7                         V     C        19:46:20:07 19:46:23:20 01:37:10:16 01:37:14:05 
*FROM CLIP NAME:  65-06-01 
000486  A068R0F7                         V     C        19:31:28:12 19:31:38:20 01:37:14:05 01:37:24:13 
*FROM CLIP NAME:  65-04-01 
000487  A067R0F7                         V     C        19:10:32:11 19:10:34:02 01:37:24:13 01:37:26:04 
*FROM CLIP NAME:  65-03-01 
000488  A067R0F7                         V     C        19:03:49:19 19:03:52:02 01:37:26:04 01:37:28:11 
*FROM CLIP NAME:  65-02-01 
000489  A072R0F7                         V     C        22:10:54:14 22:10:59:11 01:37:28:11 01:37:33:08 
*FROM CLIP NAME:  66-01-03 
000490  A072R0F7                         V     C        22:08:38:00 22:08:43:17 01:37:33:08 01:37:39:01 
*FROM CLIP NAME:  66-01-02 
000491  A072R0F7                         V     C        22:11:05:20 22:11:08:15 01:37:39:01 01:37:41:20 
*FROM CLIP NAME:  66-01-03 
000492  A072R0F7                         V     C        22:11:08:15 22:11:10:18 01:37:41:20 01:37:43:23 
*FROM CLIP NAME:  66-01-03 
000493  A072R0F7                         V     C        22:08:48:02 22:09:10:12 01:37:43:23 01:38:06:09 
*FROM CLIP NAME:  66-01-02 
000494  A072R0F7                         V     C        22:09:10:12 22:09:10:12 01:38:06:09 01:38:06:09 
000494  A220C002_160814_L0F7         V     W002 008 16:32:59:09 16:32:59:17 01:38:06:09 01:38:06:17 
*EDGE WIPE, HORIZONTAL 
*FROM CLIP NAME:  66-01-02 
*TO CLIP NAME:  70-01-02 
000495  A220C002_160814_L0F7         V     C        16:32:59:17 16:33:11:09 01:38:06:17 01:38:18:09 
*FROM CLIP NAME:  70-01-02 
000496  A220C002_160814_L0F7         V     C        16:33:14:15 16:33:23:04 01:38:18:09 01:38:26:22 
*FROM CLIP NAME:  70-01-02 
000497  A220C007_160814_L0F7         V     C        18:49:29:14 18:49:38:15 01:38:26:22 01:38:35:23 
*FROM CLIP NAME:  70-02-04 
000498  A220C007_160814_L0F7         V     C        18:49:38:15 18:50:12:03 01:38:35:23 01:39:09:11 
*FROM CLIP NAME:  70-02-04 
000499  A242L0F7                         V     C        05:39:17:03 05:39:38:18 01:39:09:11 01:39:31:02 
*FROM CLIP NAME:  72-01-02 
000500  A054R0F7                         V     C        17:30:39:17 17:30:41:19 01:39:31:02 01:39:33:04 
*FROM CLIP NAME:  75-01-03 
000501  A054R0F7                         V     C        17:41:48:05 17:41:49:14 01:39:33:04 01:39:34:13 
*FROM CLIP NAME:  75-02-02 
000502  A054R0F7                         V     C        18:03:12:12 18:03:24:00 01:39:34:13 01:39:46:01 
*FROM CLIP NAME:  76-01-02 
000503  A055R0F7                         V     C        18:43:40:06 18:43:48:21 01:39:46:01 01:39:54:16 
*FROM CLIP NAME:  76-02-03 
000504  A054R0F7                         V     C        18:05:23:12 18:05:36:13 01:39:54:16 01:40:07:17 
*FROM CLIP NAME:  76-01-03 
000505  A055R0F7                         V     C        18:43:58:04 18:43:58:23 01:40:07:17 01:40:08:12 
*FROM CLIP NAME:  76-02-03 
000506  A056R0F7                         V     C        19:09:13:04 19:09:14:20 01:40:08:12 01:40:10:04 
*FROM CLIP NAME:  76-03-03 
000507  A054R0F7                         V     C        18:03:52:04 18:03:57:14 01:40:10:04 01:40:15:14 
*FROM CLIP NAME:  76-01-02 
000508  A055R0F7                         V     C        18:44:09:06 18:44:11:00 01:40:15:14 01:40:17:08 
*FROM CLIP NAME:  76-02-03 
000509  A054R0F7                         V     C        18:05:48:10 18:05:55:11 01:40:17:08 01:40:24:09 
*FROM CLIP NAME:  76-01-03 
000510  A055R0F7                         V     C        18:44:14:20 18:44:17:22 01:40:24:09 01:40:27:11 
*FROM CLIP NAME:  76-02-03 
000511  A056R0F7                         V     C        19:23:23:02 19:23:28:00 01:40:27:11 01:40:32:09 
*FROM CLIP NAME:  76-04-01 
000512  A116L0F7                         V     C        13:29:31:08 13:29:50:00 01:40:59:11 01:41:18:03 
*FROM CLIP NAME:  77-01-03 
000513  A116L0F7                         V     C        13:41:22:19 13:41:24:22 01:41:18:03 01:41:20:06 
*FROM CLIP NAME:  77-01-02 
000514  A116L0F7                         V     C        13:29:50:21 13:30:15:04 01:41:20:06 01:41:44:13 
*FROM CLIP NAME:  77-01-03 
000515  A116L0F7                         V     C        13:30:15:04 13:30:15:04 01:41:44:13 01:41:44:13 
000515  B004R59N                         V     W002 009 10:09:50:16 10:09:51:01 01:41:44:13 01:41:44:22 
*EDGE WIPE, HORIZONTAL 
*FROM CLIP NAME:  77-01-03 
*TO CLIP NAME:  79-01-03 
000516  B004R59N                         V     C        10:09:51:01 10:10:21:08 01:41:44:22 01:42:15:05 
*FROM CLIP NAME:  79-01-03 
000517  B004R59N                         V     C        10:10:10:11 10:10:10:20 01:42:15:05 01:42:15:14 
*FROM CLIP NAME:  79-01-03 
000518  B004R59N                         V     C        10:10:21:21 10:10:26:15 01:42:15:14 01:42:20:08 
*FROM CLIP NAME:  79-01-03 
000519  B004R59N                         V     C        10:39:13:04 10:39:32:09 01:42:20:08 01:42:39:13 
*FROM CLIP NAME:  80_82-01-01 
000520  A117L0F7                         V     C        16:57:09:00 16:57:22:02 01:42:39:13 01:42:52:15 
*FROM CLIP NAME:  81-01-04 
000521  A119L0F7                         V     C        17:50:19:06 17:50:20:02 01:42:52:15 01:42:53:11 
*FROM CLIP NAME:  81_83-02-02 
000522  A122L0F7                         V     C        19:52:09:00 19:52:09:23 01:42:53:11 01:42:54:10 
*FROM CLIP NAME:  81_83-05-01 
000523  A119L0F7                         V     C        17:50:20:20 17:50:25:10 01:42:54:10 01:42:59:00 
*FROM CLIP NAME:  81_83-02-02 
000524  A123L0F7                         V     C        20:02:52:11 20:02:53:14 01:42:59:00 01:43:00:03 
*FROM CLIP NAME:  81_83-06-01 
000525  B004R59N                         V     C        10:50:16:07 10:50:30:07 01:43:00:03 01:43:14:03 
*FROM CLIP NAME:  80_82-02-01 
000526  A120L0F7                         V     C        18:21:13:05 18:21:14:18 01:43:15:04 01:43:16:17 
*FROM CLIP NAME:  81_83-04-02 
000527  A123L0F7                         V     C        20:02:57:11 20:03:00:06 01:43:16:17 01:43:19:12 
*FROM CLIP NAME:  81_83-06-01 
000528  A120L0F7                         V     C        18:21:18:12 18:21:19:19 01:43:19:12 01:43:20:19 
*FROM CLIP NAME:  81_83-04-02 
000529  A122L0F7                         V     C        19:52:28:13 19:52:33:01 01:43:20:19 01:43:25:07 
*FROM CLIP NAME:  81_83-05-01 
000530  A120L0F7                         V     C        18:21:25:13 18:21:26:14 01:43:25:07 01:43:26:08 
*FROM CLIP NAME:  81_83-04-02 
000531  A122L0F7                         V     C        19:52:34:04 19:52:35:23 01:43:26:08 01:43:28:03 
*FROM CLIP NAME:  81_83-05-01 
000532  B004R59N                         V     C        10:39:52:02 10:40:20:06 01:43:28:03 01:43:56:07 
*FROM CLIP NAME:  80_82-01-01 
000533  A122L0F7                         V     C        19:52:38:16 19:52:40:17 01:43:56:07 01:43:58:08 
*FROM CLIP NAME:  81_83-05-01 
000534  A120L0F7                         V     C        18:21:32:09 18:21:34:00 01:43:58:08 01:43:59:23 
*FROM CLIP NAME:  81_83-04-02 
000535  A122L0F7                         V     C        19:52:42:21 19:52:44:05 01:43:59:23 01:44:01:07 
*FROM CLIP NAME:  81_83-05-01 
000536  A120L0F7                         V     C        18:21:37:01 18:21:37:19 01:44:01:07 01:44:02:01 
*FROM CLIP NAME:  81_83-04-02 
000537  A122L0F7                         V     C        19:52:47:16 19:52:53:05 01:44:02:01 01:44:07:14 
*FROM CLIP NAME:  81_83-05-01 
000538  A120L0F7                         V     C        18:21:48:02 18:21:49:13 01:44:07:14 01:44:09:01 
*FROM CLIP NAME:  81_83-04-02 
000539  A122L0F7                         V     C        19:52:58:23 19:53:00:16 01:44:09:01 01:44:10:18 
*FROM CLIP NAME:  81_83-05-01 
000540  A122L0F7                         V     C        19:53:00:16 19:53:01:18 01:44:10:18 01:44:11:20 
*FROM CLIP NAME:  81_83-05-01 
000541  B004R59N                         V     C        10:40:26:18 10:40:40:14 01:44:11:20 01:44:25:16 
*FROM CLIP NAME:  80_82-01-01 
000542  A122L0F7                         V     C        19:53:02:23 19:53:11:23 01:44:25:16 01:44:34:16 
*FROM CLIP NAME:  81_83-05-01 
000543  A119L0F7                         V     C        17:51:22:08 17:51:33:14 01:44:34:16 01:44:45:22 
*FROM CLIP NAME:  81_83-02-02 
000544  B004R59N                         V     C        10:40:42:15 10:41:06:22 01:44:45:22 01:45:10:05 
*FROM CLIP NAME:  80_82-01-01 
000545  B004R59N                         V     C        10:51:56:13 10:52:02:04 01:45:10:05 01:45:15:20 
*FROM CLIP NAME:  80_82-02-01 
000546  B004R59N                         V     C        10:52:02:21 10:52:11:18 01:45:15:20 01:45:24:17 
*FROM CLIP NAME:  80_82-02-01 
000547  A123L0F7                         V     C        20:04:10:04 20:04:15:23 01:45:24:17 01:45:30:12 
*FROM CLIP NAME:  81_83-06-01 
000548  A122L0F7                         V     C        19:53:38:14 19:53:41:18 01:45:30:12 01:45:33:16 
*FROM CLIP NAME:  81_83-05-01 
000549  A121L0F7                         V     C        18:29:43:20 18:29:48:07 01:45:33:16 01:45:38:03 
*FROM CLIP NAME:  81_83-04-03 
000550  A122L0F7                         V     C        19:53:47:12 19:53:52:08 01:45:38:03 01:45:42:23 
*FROM CLIP NAME:  81_83-05-01 
000551  A120L0F7                         V     C        18:23:08:23 18:23:11:03 01:45:42:23 01:45:45:03 
*FROM CLIP NAME:  81_83-04-02 
000552  A122L0F7                         V     C        19:53:58:01 19:54:01:12 01:45:45:03 01:45:48:14 
*FROM CLIP NAME:  81_83-05-01 
000553  A120L0F7                         V     C        18:23:27:08 18:23:30:21 01:45:48:14 01:45:52:03 
*FROM CLIP NAME:  81_83-04-02 
000554  A122L0F7                         V     C        19:54:17:01 19:54:18:05 01:45:52:03 01:45:53:07 
*FROM CLIP NAME:  81_83-05-01 
000555  A121L0F7                         V     C        18:30:22:10 18:30:22:16 01:45:53:07 01:45:53:13 
*FROM CLIP NAME:  81_83-04-03 
000556  A119L0F7                         V     C        18:04:38:16 18:04:39:00 01:45:53:13 01:45:53:21 
*FROM CLIP NAME:  81_83-03-01 
000557  A121L0F7                         V     C        18:30:23:00 18:30:23:14 01:45:53:21 01:45:54:11 
*FROM CLIP NAME:  81_83-04-03 
000558  A122L0F7                         V     C        19:54:20:05 19:54:23:20 01:45:54:11 01:45:58:02 
*FROM CLIP NAME:  81_83-05-01 
000559  A119L0F7                         V     C        17:52:22:14 17:52:35:11 01:45:58:02 01:46:10:23 
*FROM CLIP NAME:  81_83-02-02 
000560  A123L0F7                         V     C        20:05:09:06 20:05:17:04 01:46:10:23 01:46:18:21 
*FROM CLIP NAME:  81_83-06-01 
000561  A121L0F7                         V     C        18:30:49:18 18:30:52:05 01:46:18:21 01:46:21:08 
*FROM CLIP NAME:  81_83-04-03 
000562  A123L0F7                         V     C        20:05:19:04 20:05:21:13 01:46:21:08 01:46:23:17 
*FROM CLIP NAME:  81_83-06-01 
000563  A119L0F7                         V     C        18:04:40:11 18:04:41:22 01:46:23:17 01:46:25:04 
*FROM CLIP NAME:  81_83-03-01 
000564  A123L0F7                         V     C        20:05:23:00 20:05:31:08 01:46:25:04 01:46:33:12 
*FROM CLIP NAME:  81_83-06-01 
000565  A120L0F7                         V     C        18:24:12:08 18:24:14:05 01:46:33:12 01:46:35:09 
*FROM CLIP NAME:  81_83-04-02 
000566  A123L0F7                         V     C        20:05:36:10 20:05:37:06 01:46:35:09 01:46:36:05 
*FROM CLIP NAME:  81_83-06-01 
000567  A119L0F7                         V     C        18:05:24:15 18:05:24:19 01:46:36:05 01:46:36:09 
*FROM CLIP NAME:  81_83-03-01 
000568  A119L0F7                         V     C        18:05:24:19 18:05:29:04 01:46:36:09 01:46:40:18 
*FROM CLIP NAME:  81_83-03-01 
000569  A118L0F7                         V     C        17:34:53:02 17:34:58:08 01:46:41:05 01:46:46:11 
*FROM CLIP NAME:  81_83-01-01 
000570  A120L0F7                         V     C        18:19:36:07 18:19:42:23 01:46:46:15 01:46:53:07 
*FROM CLIP NAME:  81_83-04-01 
000571  A122L0F7                         V     C        19:55:06:02 19:55:14:15 01:46:53:07 01:47:01:20 
*FROM CLIP NAME:  81_83-05-01 
000572  A123L0F7                         V     C        20:05:28:22 20:05:40:07 01:47:01:20 01:47:13:05 
*FROM CLIP NAME:  81_83-06-01 
000573  A119L0F7                         V     C        18:04:40:14 18:04:45:17 01:47:13:05 01:47:18:08 
*FROM CLIP NAME:  81_83-03-01 
000574  A119L0F7                         V     C        18:04:43:11 18:04:43:15 01:47:18:08 01:47:18:12 
*FROM CLIP NAME:  81_83-03-01 
000575  A121L0F7                         V     C        19:11:21:13 19:11:25:21 01:47:18:12 01:47:22:20 
*FROM CLIP NAME:  85-04-02 
000576  A121L0F7                         V     C        18:57:24:19 18:57:25:14 01:47:22:20 01:47:23:15 
*FROM CLIP NAME:  85-03-02 
000577  A121L0F7                         V     C        18:57:22:11 18:57:22:16 01:47:23:15 01:47:23:20 
*FROM CLIP NAME:  85-03-02 
000578  A121L0F7                         V     C        18:57:25:22 18:57:28:10 01:47:23:20 01:47:26:08 
*FROM CLIP NAME:  85-03-02 
000579  A122L0F7                         V     C        19:29:37:18 19:29:40:05 01:47:26:08 01:47:28:19 
*FROM CLIP NAME:  85-05-02 
000580  A121L0F7                         V     C        18:57:31:07 18:57:32:15 01:47:28:19 01:47:30:03 
*FROM CLIP NAME:  85-03-02 
000581  A122L0F7                         V     C        19:32:53:18 19:33:02:10 01:47:30:03 01:47:38:19 
*FROM CLIP NAME:  85-05-03 
000582  A149C006_160804_L0F7         V     C        16:17:24:16 16:17:27:07 01:47:38:19 01:47:41:10 
*FROM CLIP NAME:  86-05-01 
000583  A148C004_160804_L0F7         V     C        14:41:43:18 14:41:49:23 01:47:41:10 01:47:47:15 
*FROM CLIP NAME:  84-01-04 
000584  A148C005_160804_L0F7         V     C        14:50:35:18 14:50:36:03 01:47:47:15 01:47:48:00 
*FROM CLIP NAME:  84-02-01 
000585  A148C004_160804_L0F7         V     C        14:41:50:19 14:41:54:14 01:47:48:00 01:47:51:19 
*FROM CLIP NAME:  84-01-04 
000586  A149C006_160804_L0F7         V     C        16:17:29:07 16:17:33:08 01:47:51:19 01:47:55:20 
*FROM CLIP NAME:  86-05-01 
000587  A148C010_160804_L0F7         V     C        15:19:20:13 15:19:20:20 01:47:55:20 01:47:56:03 
*FROM CLIP NAME:  84-04-03 
000588  A148C008_160804_L0F7         V     C        15:14:28:07 15:14:28:14 01:47:56:03 01:47:56:10 
*FROM CLIP NAME:  84-04-01 
000589  A148C007_160804_L0F7         V     C        15:02:44:21 15:02:45:01 01:47:56:10 01:47:56:14 
*FROM CLIP NAME:  84-03-02 
000590  A148C004_160804_L0F7         V     C        14:41:50:12 14:41:50:17 01:47:56:14 01:47:56:19 
*FROM CLIP NAME:  84-01-04 
000591  A148C012_160804_L0F7         V     C        15:34:24:09 15:34:25:09 01:47:56:19 01:47:57:19 
*FROM CLIP NAME:  86-01-02 
000592  A148C003_160804_L0F7         V     C        14:38:34:00 14:38:34:23 01:47:57:19 01:47:58:18 
*FROM CLIP NAME:  84-01-03 
000593  A148C015_160804_L0F7         V     C        15:50:23:15 15:50:26:18 01:47:58:18 01:48:01:21 
*FROM CLIP NAME:  86-02-02 
000594  A148C004_160804_L0F7         V     C        14:42:00:00 14:42:01:17 01:48:01:21 01:48:03:14 
*FROM CLIP NAME:  84-01-04 
000595  A149C006_160804_L0F7         V     C        16:17:24:01 16:17:25:10 01:48:03:14 01:48:04:23 
*FROM CLIP NAME:  86-05-01 
000596  A149C001_160804_L0F7         V     C        16:02:59:11 16:02:59:19 01:48:04:23 01:48:05:07 
*FROM CLIP NAME:  86-03-01 
000597  A149C007_160804_L0F7         V     C        16:22:00:05 16:22:01:01 01:48:05:07 01:48:06:03 
*FROM CLIP NAME:  86-05-02 
000598  A149C011_160804_L0F7         V     C        17:11:09:12 17:11:10:19 01:48:06:03 01:48:07:10 
*FROM CLIP NAME:  86-07-02 
000599  A149C007_160804_L0F7         V     C        16:21:43:07 16:21:44:02 01:48:07:10 01:48:08:05 
*FROM CLIP NAME:  86-05-02 
000600  A149C011_160804_L0F7         V     C        17:11:10:22 17:11:11:19 01:48:08:05 01:48:09:02 
*FROM CLIP NAME:  86-07-02 
000601  A150C001_160804_L0F7         V     C        17:48:54:05 17:48:54:13 01:48:09:02 01:48:09:10 
*FROM CLIP NAME:  86-09-01 
000602  A149C009_160804_L0F7         V     C        16:49:54:02 16:49:54:05 01:48:09:10 01:48:09:13 
*FROM CLIP NAME:  86-06-02 
000603  A149C009_160804_L0F7         V     C        16:49:50:07 16:49:50:15 01:48:09:13 01:48:09:21 
*FROM CLIP NAME:  86-06-02 
000604  A149C009_160804_L0F7         V     C        16:49:52:09 16:49:52:22 01:48:09:21 01:48:10:10 
*FROM CLIP NAME:  86-06-02 
000605  A149C009_160804_L0F7         V     C        16:49:52:22 16:49:53:02 01:48:10:10 01:48:10:14 
*FROM CLIP NAME:  86-06-02 
000606  A149C009_160804_L0F7         V     C        16:49:55:19 16:49:55:21 01:48:10:14 01:48:10:16 
*FROM CLIP NAME:  86-06-02 
000607  A149C014_160804_L0F7         V     C        17:28:14:21 17:28:15:18 01:48:10:16 01:48:11:13 
*FROM CLIP NAME:  86-08-03 
000608  A149C014_160804_L0F7         V     C        17:28:10:19 17:28:11:16 01:48:11:13 01:48:12:10 
*FROM CLIP NAME:  86-08-03 
000609  A149C008_160804_L0F7         V     C        16:43:35:18 16:43:36:11 01:48:12:10 01:48:13:03 
*FROM CLIP NAME:  86-06-01 
000610  A149C014_160804_L0F7         V     C        17:28:12:09 17:28:14:04 01:48:13:03 01:48:14:22 
*FROM CLIP NAME:  86-08-03 
000611  A149C014_160804_L0F7         V     C        17:28:20:03 17:28:20:17 01:48:14:22 01:48:15:12 
*FROM CLIP NAME:  86-08-03 
000612  A149C014_160804_L0F7         V     C        17:28:14:15 17:28:16:00 01:48:15:12 01:48:16:21 
*FROM CLIP NAME:  86-08-03 
000613  A150C004_160804_L0F7         V     C        18:24:28:00 18:24:28:15 01:48:16:21 01:48:17:12 
*FROM CLIP NAME:  86-11-02 
000614  A149C014_160804_L0F7         V     C        17:28:11:11 17:28:11:19 01:48:17:12 01:48:17:20 
*FROM CLIP NAME:  86-08-03 
000615  A149C014_160804_L0F7         V     C        17:28:24:00 17:28:24:09 01:48:17:20 01:48:18:05 
*FROM CLIP NAME:  86-08-03 
000616  A150C005_160804_L0F7         V     C        18:32:02:22 18:32:03:13 01:48:18:05 01:48:18:20 
*FROM CLIP NAME:  86-11-03 
000617  A150C002_160804_L0F7         V     C        17:58:25:13 17:58:26:19 01:48:18:20 01:48:20:02 
*FROM CLIP NAME:  86-10-01 
000618  A150C005_160804_L0F7         V     C        18:32:05:15 18:32:06:05 01:48:20:02 01:48:20:16 
*FROM CLIP NAME:  86-11-03 
000619  A149C014_160804_L0F7         V     C        17:28:27:03 17:28:29:17 01:48:20:16 01:48:23:06 
*FROM CLIP NAME:  86-08-03 
000620  A149C014_160804_L0F7         V     C        17:28:17:22 17:28:18:13 01:48:23:06 01:48:23:21 
*FROM CLIP NAME:  86-08-03 
000621  A149C014_160804_L0F7         V     C        17:28:30:15 17:28:32:01 01:48:23:21 01:48:25:07 
*FROM CLIP NAME:  86-08-03 
000622  A149C014_160804_L0F7         V     C        17:28:19:11 17:28:20:11 01:48:25:07 01:48:26:07 
*FROM CLIP NAME:  86-08-03 
000623  A149C014_160804_L0F7         V     C        17:28:33:13 17:28:34:00 01:48:26:07 01:48:26:18 
*FROM CLIP NAME:  86-08-03 
000624  A150C005_160804_L0F7         V     C        18:32:12:04 18:32:28:21 01:48:26:18 01:48:43:11 
*FROM CLIP NAME:  86-11-03 
000625  A011R0F7                         V     C        10:38:26:15 10:39:05:18 01:48:43:11 01:49:22:14 
*FROM CLIP NAME:  87-01-03 
000626  B002R59N                         V     C        10:50:21:00 10:50:23:10 01:49:22:14 01:49:25:00 
*FROM CLIP NAME:  87-02-02B 
000627  A011R0F7                         V     C        10:39:08:04 10:39:15:20 01:49:25:00 01:49:32:16 
*FROM CLIP NAME:  87-01-03 
000628  A005R0F7                         V     C        17:13:08:06 17:13:32:02 01:49:32:16 01:49:56:12 
*FROM CLIP NAME:  88-02-01 
000629  A005R0F7                         V     C        17:13:32:02 17:13:32:02 01:49:56:12 01:49:56:12 
000629  A025R0F7                         V     W002 008 17:21:03:13 17:21:03:21 01:49:56:12 01:49:56:20 
*EDGE WIPE, HORIZONTAL 
*FROM CLIP NAME:  88-02-01 
*TO CLIP NAME:  89-03-02 
000630  A025R0F7                         V     C        17:21:03:21 17:21:06:17 01:49:56:20 01:49:59:16 
*FROM CLIP NAME:  89-03-02 
000631  A023R0F7                         V     C        16:35:12:16 16:35:16:16 01:49:59:16 01:50:03:16 
*FROM CLIP NAME:  89-01-02 
000632  A024R0F7                         V     C        17:12:46:12 17:12:48:20 01:50:03:16 01:50:06:00 
*FROM CLIP NAME:  89-02-03 
000633  A025R0F7                         V     C        17:21:16:03 17:21:17:13 01:50:06:00 01:50:07:10 
*FROM CLIP NAME:  89-03-02 
000634  A024R0F7                         V     C        17:12:51:09 17:12:52:18 01:50:07:10 01:50:08:19 
*FROM CLIP NAME:  89-02-03 
000635  A023R0F7                         V     C        16:40:00:09 16:40:05:12 01:50:08:19 01:50:13:22 
*FROM CLIP NAME:  89-01-03 
000636  A025R0F7                         V     C        17:21:26:10 17:21:28:10 01:50:13:22 01:50:15:22 
*FROM CLIP NAME:  89-03-02 
000637  A025R0F7                         V     C        17:21:29:13 17:21:30:22 01:50:15:22 01:50:17:07 
*FROM CLIP NAME:  89-03-02 
000638  A023R0F7                         V     C        16:40:09:01 16:40:12:16 01:50:17:07 01:50:20:22 
*FROM CLIP NAME:  89-01-03 
000639  A024R0F7                         V     C        17:04:03:11 17:04:09:21 01:50:20:22 01:50:27:08 
*FROM CLIP NAME:  89-02-01 
000640  A023R0F7                         V     C        16:40:20:01 16:40:21:07 01:50:27:08 01:50:28:14 
*FROM CLIP NAME:  89-01-03 
000641  A025R0F7                         V     C        17:21:44:22 17:21:46:10 01:50:28:14 01:50:30:02 
*FROM CLIP NAME:  89-03-02 
000642  A024R0F7                         V     C        17:04:12:03 17:04:13:18 01:50:30:02 01:50:31:17 
*FROM CLIP NAME:  89-02-01 
000643  A023R0F7                         V     C        16:40:26:11 16:40:29:15 01:50:31:17 01:50:34:21 
*FROM CLIP NAME:  89-01-03 
000644  A025R0F7                         V     C        17:21:52:12 17:21:54:19 01:50:34:21 01:50:37:04 
*FROM CLIP NAME:  89-03-02 
000645  A024R0F7                         V     C        17:09:46:05 17:09:47:21 01:50:37:04 01:50:38:20 
*FROM CLIP NAME:  89-02-02 
000646  A025R0F7                         V     C        17:21:59:16 17:22:00:07 01:50:38:20 01:50:39:11 
*FROM CLIP NAME:  89-03-02 
000647  A025R0F7                         V     C        17:22:00:07 17:22:01:12 01:50:39:11 01:50:40:16 
*FROM CLIP NAME:  89-03-02 
000648  A024R0F7                         V     C        17:09:50:20 17:09:52:07 01:50:40:16 01:50:42:03 
*FROM CLIP NAME:  89-02-02 
000649  A025R0F7                         V     C        17:22:03:08 17:22:06:15 01:50:42:03 01:50:45:10 
*FROM CLIP NAME:  89-03-02 
000650  A024R0F7                         V     C        17:04:33:13 17:04:41:16 01:50:45:10 01:50:53:13 
*FROM CLIP NAME:  89-02-01 
000651  A025R0F7                         V     C        17:32:21:14 17:32:30:00 01:50:53:13 01:51:01:23 
*FROM CLIP NAME:  89-04-02 
000652  A023R0F7                         V     C        16:40:57:20 16:41:02:22 01:51:01:23 01:51:07:01 
*FROM CLIP NAME:  89-01-03 
000653  A026R0F7                         V     C        17:37:05:21 17:37:17:23 01:51:07:01 01:51:19:03 
*FROM CLIP NAME:  89-04-03 
000654  A024R0F7                         V     C        17:05:03:13 17:05:13:21 01:51:19:03 01:51:29:11 
*FROM CLIP NAME:  89-02-01 
000655  A024R0F7                         V     C        17:05:13:21 17:05:13:21 01:51:29:11 01:51:29:11 
000655  A146C001_160804_L0F7         V     W002 008 10:45:13:01 10:45:13:09 01:51:29:11 01:51:29:19 
*EDGE WIPE, HORIZONTAL 
*FROM CLIP NAME:  89-02-01 
*TO CLIP NAME:  91-07-01 
000656  A146C001_160804_L0F7         V     C        10:45:13:09 10:45:15:08 01:51:29:19 01:51:31:18 
*FROM CLIP NAME:  91-07-01 
000657  A147C001_160804_L0F7         V     C        11:13:41:23 11:13:44:03 01:51:31:18 01:51:33:22 
*FROM CLIP NAME:  91-09-02 
000658  A145C003_160804_L0F7         V     C        10:33:21:05 10:33:25:10 01:51:33:22 01:51:38:03 
*FROM CLIP NAME:  91-05-01 
000659  A145C002_160804_L0F7         V     C        10:26:16:02 10:26:17:13 01:51:38:03 01:51:39:14 
*FROM CLIP NAME:  91-04-01 
000660  A145C004_160804_L0F7         V     C        10:36:13:10 10:36:14:13 01:51:39:14 01:51:40:17 
*FROM CLIP NAME:  91-05-02 
000661  A144C005_160804_L0F7         V     C        10:15:56:06 10:15:57:17 01:51:40:17 01:51:42:04 
*FROM CLIP NAME:  91-02-02 
000662  A146C003_160804_L0F7         V     C        10:55:36:05 10:55:37:15 01:51:42:04 01:51:43:14 
*FROM CLIP NAME:  91-08-01 
000663  A146C004_160804_L0F7         V     C        11:06:13:04 11:06:16:00 01:51:43:14 01:51:46:10 
*FROM CLIP NAME:  91-09-01 
000664  A144C002_160804_L0F7         V     C        10:04:04:06 10:04:06:19 01:51:46:10 01:51:48:23 
*FROM CLIP NAME:  91-01-02 
000665  A145C003_160804_L0F7         V     C        10:33:42:02 10:33:45:06 01:51:48:23 01:51:52:03 
*FROM CLIP NAME:  91-05-01 
000666  A145C004_160804_L0F7         V     C        10:36:30:22 10:36:34:09 01:51:52:03 01:51:55:14 
*FROM CLIP NAME:  91-05-02 
000667  A144C002_160804_L0F7         V     C        10:04:13:19 10:04:18:21 01:51:55:14 01:52:00:16 
*FROM CLIP NAME:  91-01-02 
000668  A146C002_160804_L0F7         V     C        10:51:57:00 10:51:58:17 01:52:00:16 01:52:02:09 
*FROM CLIP NAME:  91-07-02 
000669  A145C005_160804_L0F7         V     C        10:38:44:07 10:38:46:04 01:52:02:09 01:52:04:06 
*FROM CLIP NAME:  91-06-01 
000670  A146C003_160804_L0F7         V     C        10:56:01:20 10:56:03:14 01:52:04:06 01:52:06:00 
*FROM CLIP NAME:  91-08-01 
000671  A145C005_160804_L0F7         V     C        10:38:52:11 10:38:53:22 01:52:06:00 01:52:07:11 
*FROM CLIP NAME:  91-06-01 
000672  A144C001_160804_L0F7         V     C        09:59:58:14 10:00:01:03 01:52:07:11 01:52:10:00 
*FROM CLIP NAME:  91-01-01 
000673  A144C005_160804_L0F7         V     C        10:16:33:00 10:16:36:06 01:52:10:00 01:52:13:06 
*FROM CLIP NAME:  91-02-02 
000674  A144C005_160804_L0F7         V     C        10:16:36:06 10:16:36:06 01:52:13:06 01:52:13:06 
000674  A021R0F7                         V     W002 008 14:45:40:04 14:45:40:12 01:52:13:06 01:52:13:14 
*EDGE WIPE, HORIZONTAL 
*FROM CLIP NAME:  91-02-02 
*TO CLIP NAME:  92-01-06 
000675  A021R0F7                         V     C        14:45:40:12 14:45:51:18 01:52:13:14 01:52:24:20 
*FROM CLIP NAME:  92-01-06 
000676  A022R0F7                         V     C        15:01:11:23 15:01:16:19 01:52:24:20 01:52:29:16 
*FROM CLIP NAME:  92-01-10 
000677  A021R0F7                         V     C        14:49:47:19 14:49:52:14 01:52:29:16 01:52:34:11 
*FROM CLIP NAME:  92-01-07 
000678  A022R0F7                         V     C        15:01:21:12 15:01:23:09 01:52:34:11 01:52:36:08 
*FROM CLIP NAME:  92-01-10 
000679  A021R0F7                         V     C        14:49:54:11 14:49:56:18 01:52:36:08 01:52:38:15 
*FROM CLIP NAME:  92-01-07 
000680  A022R0F7                         V     C        14:59:35:01 14:59:37:04 01:52:38:15 01:52:40:18 
*FROM CLIP NAME:  92-01-09 
000681  B001R0V7                         V     C        13:04:38:12 13:04:51:10 01:52:40:18 01:52:53:16 
*FROM CLIP NAME:  94-01-01B 
000682  A006R0F7                         V     C        18:32:47:12 18:32:50:18 01:52:53:16 01:52:56:22 
*FROM CLIP NAME:  93_95_97_99_101-02-01 
000683  A006R0F7                         V     C        18:28:24:23 18:28:30:03 01:52:56:22 01:53:02:02 
*FROM CLIP NAME:  93_95_97_99_101-01-02 
000684  B001R0V7                         V     C        13:04:59:20 13:05:03:22 01:53:02:02 01:53:06:04 
*FROM CLIP NAME:  94-01-01B 
000685  A003R0F7                         V     C        13:05:05:05 13:05:07:10 01:53:06:04 01:53:08:09 
*FROM CLIP NAME:  94-01-01A 
000686  A004R0F7                         V     C        13:40:45:02 13:40:46:21 01:53:08:09 01:53:10:04 
*FROM CLIP NAME:  94-03-01 
000687  A003R0F7                         V     C        13:26:42:15 13:26:47:13 01:53:10:04 01:53:15:02 
*FROM CLIP NAME:  94-02-02 
000688  A013R0F7                         V     C        12:04:10:03 12:04:17:08 01:53:15:02 01:53:22:07 
*FROM CLIP NAME:  94A-02-02 
000689  A014R0F7                         V     C        12:23:02:12 12:23:08:09 01:53:22:07 01:53:28:04 
*FROM CLIP NAME:  94B_98A-01-01 
000690  A013R0F7                         V     C        12:04:24:16 12:04:29:11 01:53:28:04 01:53:32:23 
*FROM CLIP NAME:  94A-02-02 
000691  A009R0F7                         V     C        20:19:58:00 20:20:01:21 01:53:32:23 01:53:36:20 
*FROM CLIP NAME:  93_95_97_99_101-04-01 
000692  A007R0F7                         V     C        19:01:11:09 19:01:13:18 01:53:36:20 01:53:39:05 
*FROM CLIP NAME:  95A-01-01 
000693  A009R0F7                         V     C        20:19:56:02 20:19:58:19 01:53:39:05 01:53:41:22 
*FROM CLIP NAME:  93_95_97_99_101-04-01 
000694  A009R0F7                         V     C        20:21:41:02 20:21:47:21 01:53:41:22 01:53:48:17 
*FROM CLIP NAME:  93_95_97_99_101-04-02 
000695  A007R0F7                         V     C        19:09:03:00 19:09:06:15 01:53:48:17 01:53:52:08 
*FROM CLIP NAME:  95A-02-01 
000696  A012R0F7                         V     C        11:40:35:04 11:40:40:19 01:53:52:08 01:53:57:23 
*FROM CLIP NAME:  94A-01-03 
000697  A013R0F7                         V     C        12:00:04:10 12:00:11:04 01:53:57:23 01:54:04:17 
*FROM CLIP NAME:  94A-02-01 
000698  A014R0F7                         V     C        12:23:48:15 12:24:02:04 01:54:04:17 01:54:18:06 
*FROM CLIP NAME:  94B_98A-01-01 
000699  A013R0F7                         V     C        12:00:21:08 12:00:23:10 01:54:18:06 01:54:20:08 
*FROM CLIP NAME:  94A-02-01 
000700  A003R0F7                         V     C        13:21:32:11 13:21:33:18 01:54:20:08 01:54:21:15 
*FROM CLIP NAME:  94-02-01 
000701  A012R0F7                         V     C        11:41:01:00 11:41:04:21 01:54:21:15 01:54:25:12 
*FROM CLIP NAME:  94A-01-03 
000702  A014R0F7                         V     C        12:24:10:15 12:24:42:19 01:54:25:12 01:54:57:16 
*FROM CLIP NAME:  94B_98A-01-01 
000703  A013R0F7                         V     C        11:45:46:03 11:45:47:06 01:54:57:16 01:54:58:19 
*FROM CLIP NAME:  94A-01-04 
000704  A009R0F7                         V     C        20:24:01:21 20:24:05:01 01:54:58:19 01:55:01:23 
*FROM CLIP NAME:  93_95_97_99_101-05-01 
000705  A007R0F7                         V     C        19:19:15:12 19:19:21:04 01:55:01:23 01:55:07:15 
*FROM CLIP NAME:  97A-01-03 
000706  A013R0F7                         V     C        11:45:54:14 11:45:57:03 01:55:07:15 01:55:10:04 
*FROM CLIP NAME:  94A-01-04 
000707  A004R0F7                         V     C        14:14:53:01 14:15:13:21 01:55:10:04 01:55:31:00 
*FROM CLIP NAME:  98-01-02 
000708  A014R0F7                         V     C        12:25:02:05 12:25:04:11 01:55:31:00 01:55:33:06 
*FROM CLIP NAME:  94B_98A-01-01 
000709  A013R0F7                         V     C        12:06:10:14 12:06:11:14 01:55:33:06 01:55:34:06 
*FROM CLIP NAME:  94A-02-02 
000710  A004R0F7                         V     C        14:15:17:03 14:15:20:19 01:55:34:06 01:55:37:22 
*FROM CLIP NAME:  98-01-02 
000711  A004R0F7                         V     C        14:15:23:16 14:15:26:04 01:55:45:07 01:55:47:19 
*FROM CLIP NAME:  98-01-02 
000712  A004R0F7                         V     C        14:15:26:04 14:15:29:08 01:55:47:19 01:55:50:23 
*FROM CLIP NAME:  98-01-02 
000713  A014R0F7                         V     C        12:08:41:02 12:08:43:19 01:55:50:23 01:55:53:16 
*FROM CLIP NAME:  98A-01-01 
000714  A017R0F7                         V     C        14:33:54:21 14:33:56:09 01:55:53:16 01:55:55:04 
*FROM CLIP NAME:  99B-04-01A 
000715  B002R59N                         V     C        14:33:55:18 14:33:57:05 01:55:55:04 01:55:56:15 
*FROM CLIP NAME:  99B-04-01B 
000716  A014R0F7                         V     C        12:08:46:20 12:08:48:05 01:55:56:15 01:55:58:00 
*FROM CLIP NAME:  98A-01-01 
000717  A015R0F7                         V     C        13:04:40:08 13:04:42:22 01:55:58:00 01:56:00:14 
*FROM CLIP NAME:  99B-01-03 
000718  A017R0F7                         V     C        14:10:11:14 14:10:13:07 01:56:00:14 01:56:02:07 
*FROM CLIP NAME:  99B-03-01 
000719  B002R59N                         V     C        14:33:59:19 14:34:01:10 01:56:02:07 01:56:03:22 
*FROM CLIP NAME:  99B-04-01B 
000720  A016R0F7                         V     C        13:53:56:21 13:54:03:16 01:56:03:22 01:56:10:17 
*FROM CLIP NAME:  99B-02-05 
000721  A017R0F7                         V     C        14:10:18:01 14:10:19:03 01:56:10:17 01:56:11:19 
*FROM CLIP NAME:  99B-03-01 
000722  A016R0F7                         V     C        13:54:04:05 13:54:04:17 01:56:11:19 01:56:12:07 
*FROM CLIP NAME:  99B-02-05 
000723  A017R0F7                         V     C        14:10:20:01 14:10:21:22 01:56:12:07 01:56:14:04 
*FROM CLIP NAME:  99B-03-01 
000724  A016R0F7                         V     C        13:54:06:09 13:54:08:06 01:56:14:04 01:56:16:01 
*FROM CLIP NAME:  99B-02-05 
000725  A017R0F7                         V     C        14:10:24:13 14:10:25:06 01:56:16:01 01:56:16:18 
*FROM CLIP NAME:  99B-03-01 
000726  A008R0F7                         V     C        19:38:51:06 19:38:52:05 01:56:16:18 01:56:17:17 
*FROM CLIP NAME:  99_101-01-02 
000727  A016R0F7                         V     C        13:54:10:12 13:54:16:11 01:56:17:17 01:56:23:16 
*FROM CLIP NAME:  99B-02-05 
000728  B002R59N                         V     C        14:34:21:21 14:34:23:09 01:56:23:16 01:56:25:04 
*FROM CLIP NAME:  99B-04-01B 
000729  A016R0F7                         V     C        13:54:17:23 13:54:25:00 01:56:25:04 01:56:32:05 
*FROM CLIP NAME:  99B-02-05 
000730  A008R0F7                         V     C        19:38:59:05 19:39:00:05 01:56:32:05 01:56:33:05 
*FROM CLIP NAME:  99_101-01-02 
000731  A016R0F7                         V     C        13:54:26:00 13:54:35:22 01:56:33:05 01:56:43:03 
*FROM CLIP NAME:  99B-02-05 
000732  A017R0F7                         V     C        14:11:02:01 14:11:04:22 01:56:43:03 01:56:46:00 
*FROM CLIP NAME:  99B-03-01 
000733  A016R0F7                         V     C        13:54:38:19 13:54:40:12 01:56:46:00 01:56:47:17 
*FROM CLIP NAME:  99B-02-05 
000734  A009R0F7                         V     C        20:10:14:01 20:10:17:05 01:56:47:17 01:56:50:21 
*FROM CLIP NAME:  99_101-03-02 
000735  A016R0F7                         V     C        13:54:41:17 13:54:58:19 01:56:50:21 01:57:07:23 
*FROM CLIP NAME:  99B-02-05 
000736  B002R59N                         V     C        14:35:06:00 14:35:07:07 01:57:07:23 01:57:09:06 
*FROM CLIP NAME:  99B-04-01B 
000737  A017R0F7                         V     C        14:11:19:15 14:11:21:14 01:57:09:06 01:57:11:05 
*FROM CLIP NAME:  99B-03-01 
000738  A017R0F7                         V     C        14:35:08:23 14:35:17:02 01:57:11:05 01:57:19:08 
*FROM CLIP NAME:  99B-04-01A 
000739  A015R0F7                         V     C        13:01:18:23 13:01:20:17 01:57:19:08 01:57:21:02 
*FROM CLIP NAME:  99B-01-02 
000740  B002R59N                         V     C        14:35:18:21 14:35:20:11 01:57:21:02 01:57:22:16 
*FROM CLIP NAME:  99B-04-01B 
000741  A009R0F7                         V     C        20:10:19:13 20:10:24:06 01:57:22:16 01:57:27:09 
*FROM CLIP NAME:  99_101-03-02 
000742  A184C002_160809_L0F7         V     C        21:47:02:12 21:47:04:02 01:57:27:09 01:57:28:23 
*FROM CLIP NAME:  102-05-01 
000743  A182C001_160809_L0F7         V     C        20:50:33:15 20:50:35:15 01:57:28:23 01:57:30:23 
*FROM CLIP NAME:  102-01-04 
000744  A184C002_160809_L0F7         V     C        21:47:06:21 21:47:07:23 01:57:30:23 01:57:32:01 
*FROM CLIP NAME:  102-05-01 
000745  A181C002_160809_L0F7         V     C        20:38:37:04 20:38:40:06 01:57:32:01 01:57:35:03 
*FROM CLIP NAME:  102-01-02 
000746  A184C002_160809_L0F7         V     C        21:47:10:07 21:47:12:14 01:57:35:03 01:57:37:10 
*FROM CLIP NAME:  102-05-01 
000747  A183C003_160809_L0F7         V     C        21:13:47:19 21:13:49:03 01:57:37:10 01:57:38:18 
*FROM CLIP NAME:  102-04-01 
000748  A181C001_160809_L0F7         V     C        20:33:34:15 20:33:36:19 01:57:38:18 01:57:40:22 
*FROM CLIP NAME:  102-01-01 
000749  A182C002_160809_L0F7         V     C        20:58:09:06 20:58:14:22 01:57:40:22 01:57:46:14 
*FROM CLIP NAME:  102-02-01 
000750  A182C001_160809_L0F7         V     C        20:51:15:15 20:51:20:00 01:57:46:14 01:57:50:23 
*FROM CLIP NAME:  102-01-04 
000751  A185C003_160809_L0F7         V     C        22:06:19:18 22:06:22:03 01:57:50:23 01:57:53:08 
*FROM CLIP NAME:  102-07-02 
000752  A182C002_160809_L0F7         V     C        20:58:17:08 20:58:18:14 01:57:53:08 01:57:54:14 
*FROM CLIP NAME:  102-02-01 
000753  A185C003_160809_L0F7         V     C        22:06:23:00 22:06:24:16 01:57:54:14 01:57:56:06 
*FROM CLIP NAME:  102-07-02 
000754  A183C002_160809_L0F7         V     C        21:07:48:21 21:07:49:15 01:57:56:06 01:57:57:00 
*FROM CLIP NAME:  102-03-02 
000755  A185C001_160809_L0F7         V     C        21:55:21:00 21:55:22:10 01:57:57:00 01:57:58:10 
*FROM CLIP NAME:  102-06-01 
000756  A181C003_160809_L0F7         V     C        20:42:10:10 20:42:12:18 01:57:58:10 01:58:00:18 
*FROM CLIP NAME:  102-01-03 
000757  A185C003_160809_L0F7         V     C        22:06:29:01 22:06:29:19 01:58:00:18 01:58:01:12 
*FROM CLIP NAME:  102-07-02 
000758  A185C001_160809_L0F7         V     C        21:55:26:15 21:55:30:01 01:58:01:12 01:58:04:22 
*FROM CLIP NAME:  102-06-01 
000759  A184C002_160809_L0F7         V     C        21:48:12:01 21:48:13:00 01:58:04:22 01:58:05:21 
*FROM CLIP NAME:  102-05-01 
000760  A185C001_160809_L0F7         V     C        21:55:29:16 21:55:33:21 01:58:05:21 01:58:10:02 
*FROM CLIP NAME:  102-06-01 
000761  A184C002_160809_L0F7         V     C        21:48:13:16 21:48:15:09 01:58:10:02 01:58:11:19 
*FROM CLIP NAME:  102-05-01 
000762  A185C001_160809_L0F7         V     C        21:55:35:14 21:55:37:19 01:58:11:19 01:58:14:00 
*FROM CLIP NAME:  102-06-01 
000763  A184C002_160809_L0F7         V     C        21:48:14:18 21:48:16:05 01:58:14:00 01:58:15:11 
*FROM CLIP NAME:  102-05-01 
000764  A185C003_160809_L0F7         V     C        22:06:41:22 22:06:44:11 01:58:15:11 01:58:18:00 
*FROM CLIP NAME:  102-07-02 
000765  A184C002_160809_L0F7         V     C        21:48:21:18 21:48:25:22 01:58:18:00 01:58:22:04 
*FROM CLIP NAME:  102-05-01 
000766  A185C001_160809_L0F7         V     C        21:55:48:23 21:55:51:18 01:58:22:04 01:58:24:23 
*FROM CLIP NAME:  102-06-01 
000767  A185C003_160809_L0F7         V     C        22:06:52:04 22:06:55:08 01:58:24:23 01:58:28:03 
*FROM CLIP NAME:  102-07-02 
000768  A184C002_160809_L0F7         V     C        21:48:34:18 21:48:36:06 01:58:28:03 01:58:29:15 
*FROM CLIP NAME:  102-05-01 
000769  A185C003_160809_L0F7         V     C        22:06:58:22 22:07:02:01 01:58:29:15 01:58:32:18 
*FROM CLIP NAME:  102-07-02 
000770  A184C002_160809_L0F7         V     C        21:48:39:04 21:48:41:08 01:58:32:18 01:58:34:22 
*FROM CLIP NAME:  102-05-01 
000771  A185C003_160809_L0F7         V     C        22:07:02:08 22:07:03:05 01:58:34:22 01:58:35:19 
*FROM CLIP NAME:  102-07-02 
000772  A184C002_160809_L0F7         V     C        21:48:44:12 21:48:49:03 01:58:35:19 01:58:40:10 
*FROM CLIP NAME:  102-05-01 
000773  A185C001_160809_L0F7         V     C        21:56:12:21 21:56:23:00 01:58:40:10 01:58:50:13 
*FROM CLIP NAME:  102-06-01 
000774  A185C003_160809_L0F7         V     C        22:07:23:23 22:07:27:22 01:58:50:13 01:58:54:12 
*FROM CLIP NAME:  102-07-02 
000775  A182C001_160809_L0F7         V     C        20:52:29:11 20:52:33:12 01:58:54:12 01:58:58:13 
*FROM CLIP NAME:  102-01-04 
000776  A185C003_160809_L0F7         V     C        22:07:38:17 22:07:39:15 01:58:58:13 01:58:59:11 
*FROM CLIP NAME:  102-07-02 
000777  A182C001_160809_L0F7         V     C        20:52:33:23 20:52:36:11 01:58:59:11 01:59:01:23 
*FROM CLIP NAME:  102-01-04 
000778  A183C003_160809_L0F7         V     C        21:15:18:19 21:15:20:08 01:59:01:23 01:59:03:12 
*FROM CLIP NAME:  102-04-01 
000779  A184C002_160809_L0F7         V     C        21:49:16:22 21:49:18:17 01:59:03:12 01:59:05:07 
*FROM CLIP NAME:  102-05-01 
000780  A183C002_160809_L0F7         V     C        21:09:04:00 21:09:08:08 01:59:05:07 01:59:09:15 
*FROM CLIP NAME:  102-03-02 
000781  A185C001_160809_L0F7         V     C        21:56:48:09 21:56:51:22 01:59:09:15 01:59:13:04 
*FROM CLIP NAME:  102-06-01 
000782  A182C002_160809_L0F7         V     C        20:59:46:05 20:59:54:03 01:59:13:04 01:59:21:02 
*FROM CLIP NAME:  102-02-01 
000783  A185C003_160809_L0F7         V     C        22:07:52:17 22:07:54:06 01:59:21:02 01:59:22:15 
*FROM CLIP NAME:  102-07-02 
000784  A184C002_160809_L0F7         V     C        21:49:38:06 21:49:39:18 01:59:22:15 01:59:24:03 
*FROM CLIP NAME:  102-05-01 
000785  A182C002_160809_L0F7         V     C        20:59:58:00 20:59:59:22 01:59:24:03 01:59:26:01 
*FROM CLIP NAME:  102-02-01 
000786  A184C002_160809_L0F7         V     C        21:49:44:12 21:49:45:05 01:59:26:01 01:59:26:18 
*FROM CLIP NAME:  102-05-01 
000787  A183C002_160809_L0F7         V     C        21:09:08:22 21:09:10:04 01:59:26:18 01:59:28:00 
*FROM CLIP NAME:  102-03-02 
000788  A184C002_160809_L0F7         V     C        21:49:46:06 21:49:47:13 01:59:28:00 01:59:29:07 
*FROM CLIP NAME:  102-05-01 
000789  B030C006_160810_R59N         V     C        01:37:49:09 01:37:53:21 01:59:29:07 01:59:33:19 
*FROM CLIP NAME:  103-02-01B 
000790  B030C007_160810_R59N         V     C        01:45:26:03 01:45:28:14 01:59:33:19 01:59:36:06 
*FROM CLIP NAME:  103-02-02B 
000791  B030C005_160809_R59N         V     C        00:54:11:20 00:54:12:10 01:59:36:06 01:59:36:20 
*FROM CLIP NAME:  103-01-05B 
000792  C003C007_160809_R0V3         V     C        00:54:12:10 00:54:13:15 01:59:36:20 01:59:38:01 
*FROM CLIP NAME:  103-01-05C 
000793  B030C005_160809_R59N         V     C        00:54:14:21 00:54:16:12 01:59:38:01 01:59:39:16 
*FROM CLIP NAME:  103-01-05B 
000794  C003C007_160809_R0V3         V     C        00:54:18:14 00:54:19:09 01:59:39:16 01:59:40:11 
*FROM CLIP NAME:  103-01-05C 
000795  B030C002_160809_R59N         V     C        00:30:54:21 00:30:59:22 01:59:40:11 01:59:45:12 
*FROM CLIP NAME:  103-01-02B 
000796  C003C004_160809_R0V3         V     C        00:31:00:17 00:31:03:03 01:59:45:12 01:59:47:22 
*FROM CLIP NAME:  103-01-02C 
000797  B030C002_160809_R59N         V     C        00:31:03:03 00:31:04:12 01:59:47:22 01:59:49:07 
*FROM CLIP NAME:  103-01-02B 
000798  A186C002_160810_L0F7         V     C        00:31:04:12 00:31:06:20 01:59:49:07 01:59:51:15 
*FROM CLIP NAME:  103-01-02A 
000799  C003C004_160809_R0V3         V     C        00:31:06:20 00:31:08:17 01:59:51:15 01:59:53:12 
*FROM CLIP NAME:  103-01-02C 
000800  C003C008_160809_R0V3         V     C        01:38:24:17 01:38:25:14 01:59:53:12 01:59:54:09 
*FROM CLIP NAME:  103-02-01C 
000801  B030C006_160810_R59N         V     C        01:38:25:14 01:38:30:05 01:59:54:09 01:59:59:00 
*FROM CLIP NAME:  103-02-01B 
000802  C003C008_160809_R0V3         V     C        01:38:34:00 01:38:38:03 01:59:59:00 02:00:03:03 
*FROM CLIP NAME:  103-02-01C 
000803  B030C002_160809_R59N         V     C        00:31:17:00 00:31:19:23 02:00:03:03 02:00:06:02 
*FROM CLIP NAME:  103-01-02B 
000804  A186C002_160810_L0F7         V     C        00:31:19:23 00:31:22:02 02:00:06:02 02:00:08:05 
*FROM CLIP NAME:  103-01-02A 
000805  C003C004_160809_R0V3         V     C        00:31:22:02 00:31:26:07 02:00:08:05 02:00:12:10 
*FROM CLIP NAME:  103-01-02C 
000806  B030C002_160809_R59N         V     C        00:31:26:07 00:31:35:09 02:00:12:10 02:00:21:12 
*FROM CLIP NAME:  103-01-02B 
000807  A190C002_160810_L0F7         V     C        02:43:43:06 02:43:49:04 02:00:21:12 02:00:27:10 
*FROM CLIP NAME:  103-03-01 
000808  B030C006_160810_R59N         V     C        01:39:12:22 01:39:14:11 02:00:27:10 02:00:28:23 
*FROM CLIP NAME:  103-02-01B 
000809  C003C008_160809_R0V3         V     C        01:39:14:11 01:39:16:10 02:00:28:23 02:00:30:22 
*FROM CLIP NAME:  103-02-01C 
000810  B030C005_160809_R59N         V     C        00:55:23:01 00:55:27:18 02:00:30:22 02:00:35:15 
*FROM CLIP NAME:  103-01-05B 
000811  C003C007_160809_R0V3         V     C        00:55:27:18 00:55:29:07 02:00:35:15 02:00:37:04 
*FROM CLIP NAME:  103-01-05C 
000812  A187C002_160810_L0F7         V     C        00:55:31:22 00:55:39:08 02:00:37:04 02:00:44:14 
*FROM CLIP NAME:  103-01-05A 
000813  C003C007_160809_R0V3         V     C        00:55:39:08 00:55:40:15 02:00:44:14 02:00:45:21 
*FROM CLIP NAME:  103-01-05C 
000814  B030C005_160809_R59N         V     C        00:55:43:06 00:55:52:15 02:00:45:21 02:00:55:06 
*FROM CLIP NAME:  103-01-05B 
000815  A187C002_160810_L0F7         V     C        00:55:52:15 00:55:55:04 02:00:55:06 02:00:57:19 
*FROM CLIP NAME:  103-01-05A 
000816  C003C007_160809_R0V3         V     C        00:55:55:04 00:55:56:15 02:00:57:19 02:00:59:06 
*FROM CLIP NAME:  103-01-05C 
000817  A187C002_160810_L0F7         V     C        00:55:58:17 00:56:00:10 02:00:59:06 02:01:00:23 
*FROM CLIP NAME:  103-01-05A 
000818  C003C007_160809_R0V3         V     C        00:56:00:10 00:56:04:22 02:01:00:23 02:01:05:11 
*FROM CLIP NAME:  103-01-05C 
000819  B030C005_160809_R59N         V     C        00:56:04:22 00:56:08:06 02:01:05:11 02:01:08:19 
*FROM CLIP NAME:  103-01-05B 
000820  A187C002_160810_L0F7         V     C        00:56:08:06 00:56:11:16 02:01:08:19 02:01:12:05 
*FROM CLIP NAME:  103-01-05A 
000821  C003C007_160809_R0V3         V     C        00:56:11:16 00:56:13:02 02:01:12:05 02:01:13:15 
*FROM CLIP NAME:  103-01-05C 
000822  B030C005_160809_R59N         V     C        00:56:13:02 00:56:14:16 02:01:13:15 02:01:15:05 
*FROM CLIP NAME:  103-01-05B 
000823  C003C007_160809_R0V3         V     C        00:56:14:16 00:56:16:01 02:01:15:05 02:01:16:14 
*FROM CLIP NAME:  103-01-05C 
000824  A188C001_160810_L0F7         V     C        01:40:21:10 01:40:22:05 02:01:16:14 02:01:17:09 
*FROM CLIP NAME:  103-02-01A 
000825  C003C009_160809_R0V3         V     C        01:47:47:07 01:47:48:21 02:01:17:09 02:01:18:23 
*FROM CLIP NAME:  103-02-02C 
000826  A188C002_160810_L0F7         V     C        01:47:48:21 01:47:49:11 02:01:18:23 02:01:19:13 
*FROM CLIP NAME:  103-02-02A 
000827  C003C009_160809_R0V3         V     C        01:47:49:11 01:47:49:23 02:01:19:13 02:01:20:01 
*FROM CLIP NAME:  103-02-02C 
000828  B030C007_160810_R59N         V     C        01:47:49:23 01:47:50:12 02:01:20:01 02:01:20:14 
*FROM CLIP NAME:  103-02-02B 
000829  C003C009_160809_R0V3         V     C        01:47:50:12 01:47:52:13 02:01:20:14 02:01:22:15 
*FROM CLIP NAME:  103-02-02C 
000830  A188C002_160810_L0F7         V     C        01:47:52:13 01:47:53:17 02:01:22:15 02:01:23:19 
*FROM CLIP NAME:  103-02-02A 
000831  A108L0F7                         V     C        12:36:40:20 12:36:45:01 02:01:23:19 02:01:28:00 
*FROM CLIP NAME:  104-01-03 
000832  A108L0F7                         V     C        12:56:25:23 12:56:30:22 02:01:28:00 02:01:32:23 
*FROM CLIP NAME:  104-02-03 
000833  A113L0F7                         V     C        22:11:31:04 22:11:33:20 02:01:32:23 02:01:35:15 
*FROM CLIP NAME:  105-03-01A 
000834  B015R59N                         V     C        22:11:35:13 22:11:36:21 02:01:35:15 02:01:36:23 
*FROM CLIP NAME:  105-03-01B 
000835  B015R59N                         V     C        23:06:12:07 23:06:13:17 02:01:36:23 02:01:38:09 
*FROM CLIP NAME:  105-04-01B 
000836  B015R59N                         V     C        22:11:42:14 22:11:43:11 02:01:38:09 02:01:39:06 
*FROM CLIP NAME:  105-03-01B 
000837  B015R59N                         V     C        23:06:16:15 23:06:17:18 02:01:39:06 02:01:40:09 
*FROM CLIP NAME:  105-04-01B 
000838  B015R59N                         V     C        22:11:45:21 22:11:46:18 02:01:40:09 02:01:41:06 
*FROM CLIP NAME:  105-03-01B 
000839  B015R59N                         V     C        23:06:19:22 23:06:23:12 02:01:41:06 02:01:44:20 
*FROM CLIP NAME:  105-04-01B 
000840  B015R59N                         V     C        22:11:52:15 22:11:57:19 02:01:44:20 02:01:50:00 
*FROM CLIP NAME:  105-03-01B 
000841  B015R59N                         V     C        23:14:01:11 23:14:11:16 02:01:50:00 02:02:00:05 
*FROM CLIP NAME:  105-04-02B 
000842  B015R59N                         V     C        22:12:06:06 22:12:13:04 02:02:00:05 02:02:07:03 
*FROM CLIP NAME:  105-03-01B 
000843  A113L0F7                         V     C        22:12:13:04 22:12:14:01 02:02:07:03 02:02:08:00 
*FROM CLIP NAME:  105-03-01A 
000844  B015R59N                         V     C        23:14:35:20 23:14:37:02 02:02:08:00 02:02:09:06 
*FROM CLIP NAME:  105-04-02B 
000845  A112L0F7                         V     C        22:04:11:15 22:04:15:03 02:02:09:06 02:02:12:18 
*FROM CLIP NAME:  105-02-02A 
000846  B015R59N                         V     C        23:14:55:02 23:15:04:11 02:02:12:18 02:02:22:03 
*FROM CLIP NAME:  105-04-02B 
000847  A114L0F7                         V     C        23:15:11:19 23:15:15:17 02:02:22:03 02:02:26:01 
*FROM CLIP NAME:  105-04-02A 
000848  B015R59N                         V     C        23:15:18:02 23:15:20:02 02:02:26:01 02:02:28:01 
*FROM CLIP NAME:  105-04-02B 
000849  A114L0F7                         V     C        23:15:22:13 23:15:27:19 02:02:28:01 02:02:33:07 
*FROM CLIP NAME:  105-04-02A 
000850  A114L0F7                         V     C        23:15:27:19 23:15:27:19 02:02:33:07 02:02:33:07 
000850  B013C005_160801_R59N             V     W002 008 14:20:20:12 14:20:20:20 02:02:33:07 02:02:33:15 
*EDGE WIPE, HORIZONTAL 
*FROM CLIP NAME:  105-04-02A 
*TO CLIP NAME:  B013C005_160801_R59N.MXF 
000851  B013C005_160801_R59N             V     C        14:20:20:20 14:20:57:01 02:02:33:15 02:03:09:20 
*FROM CLIP NAME:  B013C005_160801_R59N.MXF 
000852  A109C001_160801_L0F7             V     C        14:51:57:07 14:52:00:01 02:03:09:20 02:03:12:14 
*FROM CLIP NAME:  A109C001_160801_L0F7.MXF 
000853  A110C003_160801_L0F7             V     C        15:30:14:16 15:30:21:10 02:03:12:14 02:03:19:08 
*FROM CLIP NAME:  A110C003_160801_L0F7.MXF 
000854  A109C001_160801_L0F7             V     C        14:52:13:13 14:52:18:00 02:03:19:08 02:03:23:19 
*FROM CLIP NAME:  A109C001_160801_L0F7.MXF 
000855  B013C010_160801_R59N             V     C        15:02:17:04 15:02:18:10 02:03:23:19 02:03:25:01 
*FROM CLIP NAME:  B013C010_160801_R59N.MXF 
000856  B017C002_160803_R59N             V     C        19:38:15:18 19:38:23:04 02:03:25:01 02:03:32:11 
*FROM CLIP NAME:  B017C002_160803_R59N.MXF 
000857  A142C002_160803_L0F7             V     C        01:08:38:10 01:08:39:17 02:03:32:11 02:03:33:18 
*FROM CLIP NAME:  A142C002_160803_L0F7.MXF 
000858  B017C002_160803_R59N             V     C        19:38:24:05 19:38:32:08 02:03:33:18 02:03:41:21 
*FROM CLIP NAME:  B017C002_160803_R59N.MXF 
000859  B013C011_160801_R59N             V     C        15:04:36:22 15:04:37:18 02:03:41:21 02:03:42:17 
*FROM CLIP NAME:  B013C011_160801_R59N.MXF 
000860  A110C003_160801_L0F7             V     C        15:30:34:01 15:30:35:08 02:03:42:17 02:03:44:00 
*FROM CLIP NAME:  A110C003_160801_L0F7.MXF 
000861  A109C002_160801_L0F7             V     C        14:59:06:03 14:59:07:22 02:03:44:00 02:03:45:19 
*FROM CLIP NAME:  A109C002_160801_L0F7.MXF 
000862  B017C002_160803_R59N             V     C        19:38:35:22 19:38:38:03 02:03:45:19 02:03:48:00 
*FROM CLIP NAME:  B017C002_160803_R59N.MXF 
000863  B014C001_160801_R59N             V     C        16:02:46:05 16:02:47:18 02:03:48:00 02:03:49:13 
*FROM CLIP NAME:  B014C001_160801_R59N.MXF 
000864  A109C001_160801_L0F7             V     C        14:52:29:13 14:52:31:18 02:03:49:13 02:03:51:18 
*FROM CLIP NAME:  A109C001_160801_L0F7.MXF 
000865  B014C004_160801_R59N             V     C        16:17:39:06 16:17:42:18 02:03:51:18 02:03:55:06 
*FROM CLIP NAME:  B014C004_160801_R59N.MXF 
000866  B017C002_160803_R59N             V     C        19:38:42:10 19:38:43:16 02:03:55:06 02:03:56:12 
*FROM CLIP NAME:  B017C002_160803_R59N.MXF 
000867  A142C002_160803_L0F7             V     C        01:08:32:15 01:08:34:17 02:03:56:12 02:03:58:14 
*FROM CLIP NAME:  A142C002_160803_L0F7.MXF 
000868  B014C002_160801_R59N             V     C        16:09:14:15 16:09:16:01 02:03:58:14 02:04:00:00 
*FROM CLIP NAME:  B014C002_160801_R59N.MXF 
000869  B017R59N                         V     C        19:34:39:18 19:34:42:15 02:04:00:00 02:04:02:21 
*FROM CLIP NAME:  109_110-01-01B 
000870  B017R59N                         V     C        19:58:28:10 19:58:32:04 02:04:02:21 02:04:06:15 
*FROM CLIP NAME:  109_110-02-02B 
000871  A111C003_160801_L0F7             V     C        16:41:17:19 16:41:18:16 02:04:06:15 02:04:07:12 
*FROM CLIP NAME:  A111C003_160801_L0F7.MXF 
000872  B014C008_160801_R59N             V     C        16:41:19:23 16:41:21:09 02:04:07:12 02:04:08:22 
*FROM CLIP NAME:  B014C008_160801_R59N.MXF 
000873  A111C004_160801_L0F7             V     C        16:45:15:14 16:45:18:13 02:04:08:22 02:04:11:21 
*FROM CLIP NAME:  A111C004_160801_L0F7.MXF 
000874  B014C009_160801_R59N             V     C        16:45:18:10 16:45:25:19 02:04:11:21 02:04:19:06 
*FROM CLIP NAME:  B014C009_160801_R59N.MXF 
000875  A111C004_160801_L0F7             V     C        16:45:25:13 16:45:27:06 02:04:19:06 02:04:20:23 
*FROM CLIP NAME:  A111C004_160801_L0F7.MXF 
000876  B014C009_160801_R59N             V     C        16:45:28:21 16:45:32:03 02:04:20:23 02:04:24:05 
*FROM CLIP NAME:  B014C009_160801_R59N.MXF 
000877  A111C004_160801_L0F7             V     C        16:45:32:03 16:45:33:06 02:04:24:05 02:04:25:08 
*FROM CLIP NAME:  A111C004_160801_L0F7.MXF 
000878  B014C009_160801_R59N             V     C        16:45:33:06 16:45:35:10 02:04:25:08 02:04:27:12 
*FROM CLIP NAME:  B014C009_160801_R59N.MXF 
000879  B014C007_160801_R59N             V     C        16:36:39:05 16:36:41:05 02:04:27:12 02:04:29:12 
*FROM CLIP NAME:  B014C007_160801_R59N.MXF 
000880  A111C002_160801_L0F7             V     C        16:36:41:05 16:36:45:04 02:04:29:12 02:04:33:11 
*FROM CLIP NAME:  A111C002_160801_L0F7.MXF 
000881  B014C007_160801_R59N             V     C        16:36:45:04 16:36:47:08 02:04:33:11 02:04:35:15 
*FROM CLIP NAME:  B014C007_160801_R59N.MXF 
000882  A111C002_160801_L0F7             V     C        16:36:47:09 16:36:50:01 02:04:35:15 02:04:38:07 
*FROM CLIP NAME:  A111C002_160801_L0F7.MXF 
000883  A111C004_160801_L0F7             V     C        16:45:48:09 16:45:49:10 02:04:38:07 02:04:39:08 
*FROM CLIP NAME:  A111C004_160801_L0F7.MXF 
000884  A111C002_160801_L0F7             V     C        16:36:52:10 16:36:55:16 02:04:39:08 02:04:42:14 
*FROM CLIP NAME:  A111C002_160801_L0F7.MXF 
000885  B014C007_160801_R59N             V     C        16:36:55:16 16:36:57:00 02:04:42:14 02:04:43:22 
*FROM CLIP NAME:  B014C007_160801_R59N.MXF 
000886  A111C002_160801_L0F7             V     C        16:36:57:00 16:36:58:03 02:04:43:22 02:04:45:01 
*FROM CLIP NAME:  A111C002_160801_L0F7.MXF 
000887  B017C006_160803_R59N             V     C        20:02:24:03 20:02:28:05 02:04:45:01 02:04:49:03 
*FROM CLIP NAME:  B017C006_160803_R59N.MXF 
000888  A142C005_160803_L0F7             V     C        01:32:17:03 01:32:20:00 02:04:49:03 02:04:52:00 
*FROM CLIP NAME:  A142C005_160803_L0F7.MXF 
000889  B017C007_160803_R59N             V     C        20:08:44:21 20:08:49:00 02:04:52:00 02:04:56:03 
*FROM CLIP NAME:  B017C007_160803_R59N.MXF 
000890  A142C005_160803_L0F7             V     C        01:32:23:22 01:32:27:08 02:04:56:03 02:04:59:13 
*FROM CLIP NAME:  A142C005_160803_L0F7.MXF 
000891  B017C006_160803_R59N             V     C        20:02:39:09 20:02:47:02 02:04:59:13 02:05:07:06 
*FROM CLIP NAME:  B017C006_160803_R59N.MXF 
000892  A142C006_160803_L0F7             V     C        01:38:55:02 01:38:57:03 02:05:07:06 02:05:09:07 
*FROM CLIP NAME:  A142C006_160803_L0F7.MXF 
000893  B017C006_160803_R59N             V     C        20:02:49:03 20:02:53:17 02:05:09:07 02:05:13:21 
*FROM CLIP NAME:  B017C006_160803_R59N.MXF 
000894  A139C002_160803_L0F7             V     C        17:31:59:02 17:32:02:00 02:05:13:21 02:05:16:19 
*FROM CLIP NAME:  113-11-1 
000895  B017C006_160803_R59N             V     C        20:02:53:18 20:02:55:08 02:05:16:19 02:05:18:09 
*FROM CLIP NAME:  B017C006_160803_R59N.MXF 
000896  A142C006_160803_L0F7             V     C        01:39:01:12 01:39:03:00 02:05:18:09 02:05:19:21 
*FROM CLIP NAME:  A142C006_160803_L0F7.MXF 
000897  B017C006_160803_R59N             V     C        20:02:56:03 20:02:58:10 02:05:19:21 02:05:22:04 
*FROM CLIP NAME:  B017C006_160803_R59N.MXF 
000898  A142C005_160803_L0F7             V     C        01:32:48:18 01:32:50:15 02:05:22:04 02:05:24:01 
*FROM CLIP NAME:  A142C005_160803_L0F7.MXF 
000899  B017C006_160803_R59N             V     C        20:03:01:12 20:03:04:10 02:05:24:01 02:05:26:23 
*FROM CLIP NAME:  B017C006_160803_R59N.MXF 
000900  A139C002_160803_L0F7             V     C        17:31:15:22 17:31:21:16 02:05:26:23 02:05:32:17 
*FROM CLIP NAME:  113-11-1 
000901  A136C001_160803_L0F7             V     C        16:08:38:12 16:08:41:20 02:05:32:17 02:05:36:01 
*FROM CLIP NAME:  113-06-1A 
000902  A139C002_160803_L0F7             V     C        17:31:25:02 17:31:26:18 02:05:36:01 02:05:37:17 
*FROM CLIP NAME:  113-11-1 
000903  A136C001_160803_L0F7             V     C        16:08:45:07 16:08:46:16 02:05:37:17 02:05:39:02 
*FROM CLIP NAME:  113-06-1A 
000904  A139C002_160803_L0F7             V     C        17:31:29:10 17:31:30:21 02:05:39:02 02:05:40:13 
*FROM CLIP NAME:  113-11-1 
000905  B016C009_160803_R59N             V     C        16:08:50:05 16:08:51:17 02:05:40:13 02:05:42:01 
*FROM CLIP NAME:  B016C009_160803_R59N.MXF 
000906  A136C001_160803_L0F7             V     C        16:08:52:05 16:08:53:11 02:05:42:01 02:05:43:07 
*FROM CLIP NAME:  113-06-1A 
000907  A139C001_160803_L0F7             V     C        17:25:05:14 17:25:08:10 02:05:43:07 02:05:46:03 
*FROM CLIP NAME:  113-10-01 
000908  A136C001_160803_L0F7             V     C        16:08:58:14 16:09:00:01 02:05:46:03 02:05:47:14 
*FROM CLIP NAME:  113-06-1A 
000909  A139C001_160803_L0F7             V     C        17:25:10:22 17:25:14:16 02:05:47:14 02:05:51:08 
*FROM CLIP NAME:  113-10-01 
000910  A136C002_160803_L0F7             V     C        16:17:19:03 16:17:25:02 02:05:51:08 02:05:57:07 
*FROM CLIP NAME:  A136C002_160803_L0F7.MXF 
000911  A139C002_160803_L0F7             V     C        17:31:49:07 17:31:52:18 02:05:57:07 02:06:00:18 
*FROM CLIP NAME:  113-11-1 
000912  A136C001_160803_L0F7             V     C        16:09:07:03 16:09:10:07 02:06:00:18 02:06:03:22 
*FROM CLIP NAME:  113-06-1A 
000913  A138C003_160803_L0F7             V     C        17:12:30:02 17:12:31:17 02:06:03:22 02:06:05:13 
*FROM CLIP NAME:  A138C003_160803_L0F7.MXF 
000914  B016C009_160803_R59N             V     C        16:09:20:18 16:09:22:20 02:06:05:13 02:06:07:15 
*FROM CLIP NAME:  B016C009_160803_R59N.MXF 
000915  A136C001_160803_L0F7             V     C        16:09:15:18 16:09:16:13 02:06:07:15 02:06:08:10 
*FROM CLIP NAME:  113-06-1A 
000916  A139C001_160803_L0F7             V     C        17:25:40:03 17:25:44:06 02:06:08:10 02:06:12:13 
*FROM CLIP NAME:  113-10-01 
000917  B016C009_160803_R59N             V     C        16:09:26:06 16:09:28:12 02:06:12:13 02:06:14:19 
*FROM CLIP NAME:  B016C009_160803_R59N.MXF 
000918  A136C001_160803_L0F7             V     C        16:09:28:12 16:09:30:23 02:06:14:19 02:06:17:06 
*FROM CLIP NAME:  113-06-1A 
000919  A139C001_160803_L0F7             V     C        17:25:48:21 17:25:50:06 02:06:17:06 02:06:18:15 
*FROM CLIP NAME:  113-10-01 
000920  A136C001_160803_L0F7             V     C        16:09:32:07 16:09:33:20 02:06:18:15 02:06:20:04 
*FROM CLIP NAME:  113-06-1A 
000921  B016C009_160803_R59N             V     C        16:09:33:20 16:09:35:06 02:06:20:04 02:06:21:14 
*FROM CLIP NAME:  B016C009_160803_R59N.MXF 
000922  A136C001_160803_L0F7             V     C        16:09:35:06 16:09:36:06 02:06:21:14 02:06:22:14 
*FROM CLIP NAME:  113-06-1A 
000923  B016C009_160803_R59N             V     C        16:09:36:06 16:09:37:20 02:06:22:14 02:06:24:04 
*FROM CLIP NAME:  B016C009_160803_R59N.MXF 
000924  A136C001_160803_L0F7             V     C        16:09:38:16 16:09:40:13 02:06:24:04 02:06:26:01 
*FROM CLIP NAME:  113-06-1A 
000925  A139C002_160803_L0F7             V     C        17:32:26:07 17:32:28:09 02:06:26:01 02:06:28:03 
*FROM CLIP NAME:  113-11-1 
000926  B016C009_160803_R59N             V     C        16:09:44:03 16:09:46:01 02:06:28:03 02:06:30:01 
*FROM CLIP NAME:  B016C009_160803_R59N.MXF 
000927  A136C001_160803_L0F7             V     C        16:09:46:01 16:09:48:09 02:06:30:01 02:06:32:09 
*FROM CLIP NAME:  113-06-1A 
000928  B016C009_160803_R59N             V     C        16:09:48:09 16:09:48:21 02:06:32:09 02:06:32:21 
*FROM CLIP NAME:  B016C009_160803_R59N.MXF 
000929  B016C009_160803_R59N             V     C        16:09:48:21 16:09:50:07 02:06:32:21 02:06:34:07 
*FROM CLIP NAME:  B016C009_160803_R59N.MXF 
000930  A136C001_160803_L0F7             V     C        16:09:50:07 16:09:54:04 02:06:34:07 02:06:38:04 
*FROM CLIP NAME:  113-06-1A 
000931  A139C002_160803_L0F7             V     C        17:32:42:22 17:32:43:20 02:06:38:04 02:06:39:02 
*FROM CLIP NAME:  113-11-1 
000932  A136C001_160803_L0F7             V     C        16:09:55:02 16:09:56:09 02:06:39:02 02:06:40:09 
*FROM CLIP NAME:  113-06-1A 
000933  A139C002_160803_L0F7             V     C        17:32:44:11 17:32:48:02 02:06:40:09 02:06:44:00 
*FROM CLIP NAME:  113-11-1 
000934  A136C001_160803_L0F7             V     C        16:10:02:23 16:10:05:17 02:06:44:00 02:06:46:18 
*FROM CLIP NAME:  113-06-1A 
000935  B016C009_160803_R59N             V     C        16:10:06:04 16:10:12:08 02:06:46:18 02:06:52:22 
*FROM CLIP NAME:  B016C009_160803_R59N.MXF 
000936  A136C001_160803_L0F7             V     C        16:10:12:08 16:10:13:05 02:06:52:22 02:06:53:19 
*FROM CLIP NAME:  113-06-1A 
000937  B016R59N                         V     C        14:27:18:07 14:27:20:07 02:06:53:19 02:06:55:19 
*FROM CLIP NAME:  113-02-03B 
000938  A134C003_160803_L0F7             V     C        14:27:20:07 14:27:24:17 02:06:55:19 02:07:00:05 
*FROM CLIP NAME:  113-02-03A 
000939  B016R59N                         V     C        14:27:26:18 14:27:30:21 02:07:00:05 02:07:04:08 
*FROM CLIP NAME:  113-02-03B 
000940  A134C003_160803_L0F7             V     C        14:27:30:20 14:27:32:00 02:07:04:08 02:07:05:12 
*FROM CLIP NAME:  113-02-03A 
000941  A139C001_160803_L0F7             V     C        17:26:26:20 17:26:29:10 02:07:05:12 02:07:08:02 
*FROM CLIP NAME:  113-10-01 
000942  A134C003_160803_L0F7             V     C        14:27:49:19 14:27:54:06 02:07:08:02 02:07:12:13 
*FROM CLIP NAME:  113-02-03A 
000943  A137C002_160803_L0F7             V     C        16:37:19:20 16:37:21:23 02:07:12:13 02:07:14:16 
*FROM CLIP NAME:  113-07-02 
000944  A140C001_160803_L0F7             V     C        17:41:22:01 17:41:23:00 02:07:14:16 02:07:15:15 
*FROM CLIP NAME:  113-12-01 
000945  A137C002_160803_L0F7             V     C        16:37:24:07 16:37:25:08 02:07:15:15 02:07:16:16 
*FROM CLIP NAME:  113-07-02 
000946  A140C001_160803_L0F7             V     C        17:41:26:04 17:41:27:19 02:07:16:16 02:07:18:07 
*FROM CLIP NAME:  113-12-01 
000947  A137C002_160803_L0F7             V     C        16:37:27:16 16:37:29:22 02:07:18:07 02:07:20:13 
*FROM CLIP NAME:  113-07-02 
000948  A140C001_160803_L0F7             V     C        17:41:31:15 17:41:35:10 02:07:20:13 02:07:24:08 
*FROM CLIP NAME:  113-12-01 
000949  A137C002_160803_L0F7             V     C        16:37:34:22 16:37:39:19 02:07:24:08 02:07:29:05 
*FROM CLIP NAME:  113-07-02 
000950  A134C004_160803_L0F7             V     C        14:41:37:18 14:41:39:13 02:07:29:05 02:07:31:00 
*FROM CLIP NAME:  113-04-01A 
000951  A140C001_160803_L0F7             V     C        17:41:56:08 17:41:58:03 02:07:31:00 02:07:32:19 
*FROM CLIP NAME:  113-12-01 
000952  A137C002_160803_L0F7             V     C        16:37:44:22 16:37:46:23 02:07:32:19 02:07:34:20 
*FROM CLIP NAME:  113-07-02 
000953  A140C001_160803_L0F7             V     C        17:42:01:23 17:42:03:03 02:07:34:20 02:07:36:00 
*FROM CLIP NAME:  113-12-01 
000954  B016C005_160803_R59N             V     C        14:43:56:04 14:43:58:22 02:07:36:00 02:07:38:18 
*FROM CLIP NAME:  B016C005_160803_R59N.MXF 
000955  A134C005_160803_L0F7             V     C        14:43:58:20 14:44:01:17 02:07:38:18 02:07:41:15 
*FROM CLIP NAME:  A134C005_160803_L0F7.MXF 
000956  A140C001_160803_L0F7             V     C        17:42:02:18 17:42:05:17 02:07:41:15 02:07:44:14 
*FROM CLIP NAME:  113-12-01 
000957  A137C001_160803_L0F7             V     C        16:32:34:02 16:32:37:03 02:07:44:14 02:07:47:15 
*FROM CLIP NAME:  113-07-01 
000958  B016R59N                         V     C        15:31:04:01 15:31:05:16 02:07:47:15 02:07:49:06 
*FROM CLIP NAME:  113-05-03B 
000959  B016C005_160803_R59N             V     C        14:44:06:08 14:44:07:01 02:07:49:06 02:07:49:23 
*FROM CLIP NAME:  B016C005_160803_R59N.MXF 
000960  A134C005_160803_L0F7             V     C        14:44:07:01 14:44:08:17 02:07:49:23 02:07:51:15 
*FROM CLIP NAME:  A134C005_160803_L0F7.MXF 
000961  A141L0F7                         V     C        18:15:08:23 18:15:10:06 02:07:51:15 02:07:52:22 
*FROM CLIP NAME:  113-14-01 
000962  B016C005_160803_R59N             V     C        14:44:10:00 14:44:10:23 02:07:52:22 02:07:53:21 
*FROM CLIP NAME:  B016C005_160803_R59N.MXF 
000963  A141L0F7                         V     C        18:24:47:20 18:24:48:22 02:07:53:21 02:07:54:23 
*FROM CLIP NAME:  113-14-05 
000964  A134C005_160803_L0F7             V     C        14:44:13:05 14:44:14:03 02:07:54:23 02:07:55:21 
*FROM CLIP NAME:  A134C005_160803_L0F7.MXF 
000965  A134C005_160803_L0F7             V     C        14:44:14:03 14:44:14:13 02:07:55:21 02:07:56:07 
*FROM CLIP NAME:  A134C005_160803_L0F7.MXF 
000966  B016C005_160803_R59N             V     C        14:44:14:13 14:44:15:10 02:07:56:07 02:07:57:04 
*FROM CLIP NAME:  B016C005_160803_R59N.MXF 
000967  A134C005_160803_L0F7             V     C        14:44:15:10 14:44:16:01 02:07:57:04 02:07:57:19 
*FROM CLIP NAME:  A134C005_160803_L0F7.MXF 
000968  A141L0F7                         V     C        18:24:56:15 18:25:01:00 02:07:57:19 02:08:02:04 
*FROM CLIP NAME:  113-14-05 
000969  A141L0F7                         V     C        18:21:22:10 18:21:24:19 02:08:02:04 02:08:04:13 
*FROM CLIP NAME:  113-14-03 
000970  A140C001_160803_L0F7             V     C        17:42:13:18 17:42:15:02 02:08:04:13 02:08:05:21 
*FROM CLIP NAME:  113-12-01 
000971  A137C002_160803_L0F7             V     C        16:37:58:21 16:38:06:14 02:08:05:21 02:08:13:14 
*FROM CLIP NAME:  113-07-02 
000972  A140C001_160803_L0F7             V     C        17:42:22:04 17:42:23:04 02:08:13:14 02:08:14:14 
*FROM CLIP NAME:  113-12-01 
000973  A137C001_160803_L0F7             V     C        16:32:49:11 16:32:51:18 02:08:14:14 02:08:16:21 
*FROM CLIP NAME:  113-07-01 
000974  A140C001_160803_L0F7             V     C        17:42:24:21 17:42:26:20 02:08:16:21 02:08:18:20 
*FROM CLIP NAME:  113-12-01 
000975  A137C002_160803_L0F7             V     C        16:38:17:20 16:38:24:12 02:08:18:20 02:08:25:12 
*FROM CLIP NAME:  113-07-02 
000976  A140C001_160803_L0F7             V     C        17:42:34:06 17:42:35:06 02:08:25:12 02:08:26:12 
*FROM CLIP NAME:  113-12-01 
000977  A137C001_160803_L0F7             V     C        16:33:08:19 16:33:14:07 02:08:26:12 02:08:32:00 
*FROM CLIP NAME:  113-07-01 
000978  B016R59N                         V     C        15:19:45:22 15:19:49:13 02:08:32:00 02:08:35:15 
*FROM CLIP NAME:  113-05-01B 
000979  A137C001_160803_L0F7             V     C        16:33:17:22 16:33:19:08 02:08:35:15 02:08:37:01 
*FROM CLIP NAME:  113-07-01 
000980  A140C001_160803_L0F7             V     C        17:42:47:16 17:42:49:17 02:08:37:01 02:08:39:02 
*FROM CLIP NAME:  113-12-01 
000981  A137C002_160803_L0F7             V     C        16:38:39:02 16:38:43:14 02:08:39:02 02:08:43:14 
*FROM CLIP NAME:  113-07-02 
000982  B016R59N                         V     C        15:19:51:22 15:19:54:23 02:08:43:14 02:08:46:15 
*FROM CLIP NAME:  113-05-01B 
000983  A137C002_160803_L0F7             V     C        16:38:46:15 16:38:51:19 02:08:46:15 02:08:51:19 
*FROM CLIP NAME:  113-07-02 
000984  A140C001_160803_L0F7             V     C        17:43:04:10 17:43:05:12 02:08:51:19 02:08:52:21 
*FROM CLIP NAME:  113-12-01 
000985  A137C002_160803_L0F7             V     C        16:38:52:21 16:38:55:00 02:08:52:21 02:08:55:00 
*FROM CLIP NAME:  113-07-02 
000986  A140C001_160803_L0F7             V     C        17:43:08:20 17:43:10:02 02:08:55:00 02:08:56:06 
*FROM CLIP NAME:  113-12-01 
000987  A135L0F7                         V     C        15:26:29:11 15:26:30:21 02:08:56:06 02:08:57:16 
*FROM CLIP NAME:  113-05-02A 
000988  A140C001_160803_L0F7             V     C        17:43:12:09 17:43:13:10 02:08:57:16 02:08:58:17 
*FROM CLIP NAME:  113-12-01 
000989  A137C002_160803_L0F7             V     C        16:39:00:10 16:39:03:04 02:08:58:17 02:09:01:11 
*FROM CLIP NAME:  113-07-02 
000990  A140L0F7                         V     C        17:52:34:11 17:52:36:02 02:09:01:11 02:09:03:02 
*FROM CLIP NAME:  113-13-01 
000991  A137C001_160803_L0F7             V     C        16:33:51:21 16:33:52:18 02:09:03:02 02:09:03:23 
*FROM CLIP NAME:  113-07-01 
000992  A140C001_160803_L0F7             V     C        17:43:19:10 17:43:20:07 02:09:03:23 02:09:04:20 
*FROM CLIP NAME:  113-12-01 
000993  A137C001_160803_L0F7             V     C        16:33:53:08 16:33:58:13 02:09:04:20 02:09:10:01 
*FROM CLIP NAME:  113-07-01 
000994  A140C001_160803_L0F7             V     C        17:43:24:08 17:43:25:03 02:09:10:01 02:09:10:20 
*FROM CLIP NAME:  113-12-01 
000995  A137C001_160803_L0F7             V     C        16:33:59:08 16:34:00:14 02:09:10:20 02:09:12:02 
*FROM CLIP NAME:  113-07-01 
000996  A140C001_160803_L0F7             V     C        17:43:28:18 17:43:30:07 02:09:12:02 02:09:13:15 
*FROM CLIP NAME:  113-12-01 
000997  A135L0F7                         V     C        15:26:46:11 15:26:47:09 02:09:13:15 02:09:14:13 
*FROM CLIP NAME:  113-05-02A 
000998  A140C001_160803_L0F7             V     C        17:43:31:23 17:43:33:15 02:09:14:13 02:09:16:05 
*FROM CLIP NAME:  113-12-01 
000999  A135L0F7                         V     C        15:31:22:15 15:31:26:05 02:09:16:05 02:09:19:19 
*FROM CLIP NAME:  113-05-03A 
001000  A140C001_160803_L0F7             V     C        17:43:38:20 17:43:40:03 02:09:19:19 02:09:21:02 
*FROM CLIP NAME:  113-12-01 
001001  A138L0F7                         V     C        16:48:35:21 16:48:36:19 02:09:21:02 02:09:22:00 
*FROM CLIP NAME:  113-08-02 
001002  A140L0F7                         V     C        17:53:03:18 17:53:05:11 02:09:22:00 02:09:23:17 
*FROM CLIP NAME:  113-13-01 
001003  A138L0F7                         V     C        16:48:39:03 16:48:39:23 02:09:23:17 02:09:24:13 
*FROM CLIP NAME:  113-08-02 
001004  A140L0F7                         V     C        17:53:06:07 17:53:07:06 02:09:24:13 02:09:25:12 
*FROM CLIP NAME:  113-13-01 
001005  A138L0F7                         V     C        16:47:00:07 16:47:01:11 02:09:25:12 02:09:26:16 
*FROM CLIP NAME:  113-08-01 
001006  A140L0F7                         V     C        17:53:08:22 17:53:10:11 02:09:26:16 02:09:28:05 
*FROM CLIP NAME:  113-13-01 
001007  A135L0F7                         V     C        15:27:04:14 15:27:06:22 02:09:28:05 02:09:30:13 
*FROM CLIP NAME:  113-05-02A 
001008  A140L0F7                         V     C        17:53:13:16 17:53:14:14 02:09:30:13 02:09:31:11 
*FROM CLIP NAME:  113-13-01 
001009  A138L0F7                         V     C        16:48:50:14 16:48:53:11 02:09:31:11 02:09:34:08 
*FROM CLIP NAME:  113-08-02 
001010  A140L0F7                         V     C        17:53:17:07 17:53:19:05 02:09:34:08 02:09:36:06 
*FROM CLIP NAME:  113-13-01 
001011  A137C002_160803_L0F7             V     C        16:39:51:09 16:39:54:07 02:09:36:06 02:09:39:04 
*FROM CLIP NAME:  113-07-02 
001012  A140L0F7                         V     C        17:53:24:23 17:53:27:22 02:09:39:04 02:09:42:03 
*FROM CLIP NAME:  113-13-01 
001013  A135L0F7                         V     C        15:27:18:05 15:27:19:23 02:09:42:03 02:09:43:21 
*FROM CLIP NAME:  113-05-02A 
001014  A140L0F7                         V     C        17:53:29:16 17:53:31:00 02:09:43:21 02:09:45:05 
*FROM CLIP NAME:  113-13-01 
001015  B014C013_160801_R59N             V     C        19:31:28:09 19:31:34:07 02:09:45:05 02:09:51:03 
*FROM CLIP NAME:  113-01-04 
001016  B017C009_160803_R59N             V     C        20:21:50:00 20:21:51:17 02:09:51:03 02:09:52:20 
*FROM CLIP NAME:  B017C009_160803_R59N.MXF 
001017  A143C003_160803_L0F7             V     C        01:51:40:02 01:51:41:07 02:09:52:20 02:09:54:01 
*FROM CLIP NAME:  A143C003_160803_L0F7.MXF 
001018  B017C010_160803_R59N             V     C        20:25:03:19 20:25:05:10 02:09:54:01 02:09:55:16 
*FROM CLIP NAME:  B017C010_160803_R59N.MXF 
001019  A143C003_160803_L0F7             V     C        01:51:46:01 01:51:47:05 02:09:55:16 02:09:56:20 
*FROM CLIP NAME:  A143C003_160803_L0F7.MXF 
001020  B017C010_160803_R59N             V     C        20:25:05:08 20:25:05:18 02:09:56:20 02:09:57:06 
*FROM CLIP NAME:  B017C010_160803_R59N.MXF 
001021  A143C003_160803_L0F7             V     C        01:51:50:05 01:51:50:13 02:09:57:06 02:09:57:14 
*FROM CLIP NAME:  A143C003_160803_L0F7.MXF 
001022  B014C013_160801_R59N             V     C        19:31:34:11 19:31:36:08 02:09:57:14 02:09:59:11 
*FROM CLIP NAME:  113-01-04 
001023  B017C010_160803_R59N             V     C        20:25:08:21 20:25:09:22 02:09:59:11 02:10:00:12 
*FROM CLIP NAME:  B017C010_160803_R59N.MXF 
001024  B015R59N                         V     C        19:39:55:18 19:40:11:21 02:10:00:12 02:10:16:15 
*FROM CLIP NAME:  113-01-06 
001025  B015R59N                         V     C        19:39:52:14 19:39:52:16 02:10:16:15 02:10:16:17 
*FROM CLIP NAME:  113-01-06 
001026  B015R59N                         V     C        19:40:12:00 19:40:31:01 02:10:16:17 02:10:35:18 
*FROM CLIP NAME:  113-01-06 
001027  B015R59N                         V     C        22:43:21:21 22:43:23:10 02:10:35:18 02:10:37:07 
*FROM CLIP NAME:  115_117-02-02 
001028  B015R59N                         V     C        22:27:46:02 22:27:49:05 02:10:37:07 02:10:40:10 
*FROM CLIP NAME:  115_117-01-02B 
001029  B015R59N                         V     C        23:27:39:22 23:27:41:20 02:10:40:10 02:10:42:08 
*FROM CLIP NAME:  115_117-03-01B 
001030  A113L0F7                         V     C        22:27:49:19 22:27:51:12 02:10:42:08 02:10:44:01 
*FROM CLIP NAME:  115_117-01-02A 
001031  B015R59N                         V     C        23:27:43:13 23:27:49:02 02:10:44:01 02:10:49:14 
*FROM CLIP NAME:  115_117-03-01B 
001032  A113L0F7                         V     C        22:28:04:05 22:28:06:04 02:10:49:14 02:10:51:13 
*FROM CLIP NAME:  115_117-01-02A 
001033  B015R59N                         V     C        23:27:52:00 23:27:53:16 02:10:51:13 02:10:53:05 
*FROM CLIP NAME:  115_117-03-01B 
001034  B015R59N                         V     C        22:28:07:20 22:28:09:23 02:10:53:05 02:10:55:08 
*FROM CLIP NAME:  115_117-01-02B 
001035  B015R59N                         V     C        23:27:56:03 23:27:58:14 02:10:55:08 02:10:57:19 
*FROM CLIP NAME:  115_117-03-01B 
001036  A114L0F7                         V     C        23:27:58:14 23:28:00:13 02:10:57:19 02:10:59:18 
*FROM CLIP NAME:  115_117-03-01A 
001037  B015R59N                         V     C        23:30:13:11 23:30:14:07 02:10:59:18 02:11:00:14 
*FROM CLIP NAME:  115_117-03-02B 
001038  A114L0F7                         V     C        23:30:14:07 23:30:15:02 02:11:00:14 02:11:01:09 
*FROM CLIP NAME:  115_117-03-02A 
001039  A113L0F7                         V     C        22:28:17:22 22:28:19:07 02:11:01:09 02:11:02:18 
*FROM CLIP NAME:  115_117-01-02A 
001040  B015R59N                         V     C        22:28:20:04 22:28:22:01 02:11:02:18 02:11:04:15 
*FROM CLIP NAME:  115_117-01-02B 
001041  A113L0F7                         V     C        22:28:22:01 22:28:23:04 02:11:04:15 02:11:05:18 
*FROM CLIP NAME:  115_117-01-02A 
001042  A114L0F7                         V     C        23:28:12:23 23:28:15:04 02:11:05:18 02:11:07:23 
*FROM CLIP NAME:  115_117-03-01A 
001043  B015R59N                         V     C        22:28:29:00 22:28:31:04 02:11:07:23 02:11:10:03 
*FROM CLIP NAME:  115_117-01-02B 
001044  B015R59N                         V     C        23:28:17:19 23:28:18:17 02:11:10:03 02:11:11:01 
*FROM CLIP NAME:  115_117-03-01B 
001045  B015R59N                         V     C        23:28:18:17 23:28:18:17 02:11:11:01 02:11:11:01 
001045  A210C005_160813_L0F7         V     W002 008 20:48:26:01 20:48:26:09 02:11:11:01 02:11:11:09 
*EDGE WIPE, HORIZONTAL 
*FROM CLIP NAME:  115_117-03-01B 
*TO CLIP NAME:  116-01-03 
001046  A210C005_160813_L0F7         V     C        20:48:26:09 20:48:27:19 02:11:11:09 02:11:12:19 
*FROM CLIP NAME:  116-01-03 
001047  A210C005_160813_L0F7         V     C        20:48:27:23 20:48:29:01 02:11:12:19 02:11:13:21 
*FROM CLIP NAME:  116-01-03 
001048  A210C008_160813_L0F7         V     C        21:16:26:03 21:16:29:01 02:11:13:21 02:11:16:19 
*FROM CLIP NAME:  116-02-01 
001049  A210C005_160813_L0F7         V     C        20:48:31:23 20:48:38:16 02:11:16:19 02:11:23:12 
*FROM CLIP NAME:  116-01-03 
001050  A210C009_160813_L0F7         V     C        21:18:13:22 21:18:18:22 02:11:23:12 02:11:28:12 
*FROM CLIP NAME:  116-02-02 
001051  A210C005_160813_L0F7         V     C        20:48:45:20 20:48:51:00 02:11:28:12 02:11:33:16 
*FROM CLIP NAME:  116-01-03 
001052  A211C001_160813_L0F7         V     C        21:23:24:09 21:23:26:22 02:11:33:16 02:11:36:05 
*FROM CLIP NAME:  116-03-01 
001053  A210C005_160813_L0F7         V     C        20:48:54:08 20:48:59:01 02:11:36:05 02:11:40:22 
*FROM CLIP NAME:  116-01-03 
001054  A210C009_160813_L0F7         V     C        21:18:28:05 21:18:34:03 02:11:40:22 02:11:46:20 
*FROM CLIP NAME:  116-02-02 
001055  A210C005_160813_L0F7         V     C        20:49:05:14 20:49:10:14 02:11:46:20 02:11:51:20 
*FROM CLIP NAME:  116-01-03 
001056  B015R59N                         V     C        22:25:30:04 22:25:31:08 02:11:51:20 02:11:53:00 
*FROM CLIP NAME:  115_117-01-01B 
001057  B015R59N                         V     C        23:41:25:01 23:41:28:00 02:11:53:00 02:11:55:23 
*FROM CLIP NAME:  115_117-04-04B 
001058  A113L0F7                         V     C        22:25:50:04 22:25:51:16 02:11:55:23 02:11:57:11 
*FROM CLIP NAME:  115_117-01-01A 
001059  A115L0F7                         V     C        23:41:34:05 23:41:36:01 02:11:57:11 02:11:59:07 
*FROM CLIP NAME:  115_117-04-04A 
001060  B015R59N                         V     C        23:41:36:01 23:41:41:14 02:11:59:07 02:12:04:20 
*FROM CLIP NAME:  115_117-04-04B 
001061  A115L0F7                         V     C        23:41:41:14 23:41:45:12 02:12:04:20 02:12:08:18 
*FROM CLIP NAME:  115_117-04-04A 
001062  B015R59N                         V     C        23:41:45:12 23:41:49:06 02:12:08:18 02:12:12:12 
*FROM CLIP NAME:  115_117-04-04B 
001063  A115L0F7                         V     C        23:41:51:03 23:41:54:00 02:12:12:12 02:12:15:09 
*FROM CLIP NAME:  115_117-04-04A 
001064  B015R59N                         V     C        23:41:54:00 23:42:02:17 02:12:15:09 02:12:24:02 
*FROM CLIP NAME:  115_117-04-04B 
001065  A115L0F7                         V     C        23:42:02:17 23:42:07:22 02:12:24:02 02:12:29:07 
*FROM CLIP NAME:  115_117-04-04A 
001066  B015R59N                         V     C        23:42:09:21 23:42:17:09 02:12:29:07 02:12:36:19 
*FROM CLIP NAME:  115_117-04-04B 
001067  A115L0F7                         V     C        23:39:56:23 23:40:01:12 02:12:36:19 02:12:41:08 
*FROM CLIP NAME:  115_117-04-03A 
001068  A115L0F7                         V     C        23:40:01:12 23:40:01:12 02:12:41:08 02:12:41:08 
001068  A192C002_160810_L0F7         V     W002 008 04:01:33:19 04:01:34:03 02:12:41:08 02:12:41:16 
*EDGE WIPE, HORIZONTAL 
*FROM CLIP NAME:  115_117-04-03A 
*TO CLIP NAME:  118/119-02-01 A 
001069  A192C002_160810_L0F7         V     C        04:01:34:03 04:01:36:10 02:12:41:16 02:12:43:23 
*FROM CLIP NAME:  118_119-02-01A 
001070  A192C001_160810_L0F7         V     C        03:55:17:22 03:55:23:00 02:12:43:23 02:12:49:01 
*FROM CLIP NAME:  118_119-01-03A 
001071  B031R59N                         V     C        03:49:31:15 03:49:34:19 02:12:49:01 02:12:52:05 
*FROM CLIP NAME:  118_119-01-01B 
001072  A191C003_160810_L0F7         V     C        03:49:39:13 03:49:40:09 02:12:52:05 02:12:53:01 
*FROM CLIP NAME:  118_119-01-01A 
001073  B031R59N                         V     C        03:49:40:09 03:49:41:17 02:12:53:01 02:12:54:09 
*FROM CLIP NAME:  118_119-01-01B 
001074  A192C002_160810_L0F7         V     C        04:01:47:18 04:01:48:20 02:12:54:09 02:12:55:11 
*FROM CLIP NAME:  118_119-02-01A 
001075  B031R59N                         V     C        03:49:41:17 03:49:43:06 02:12:55:11 02:12:57:00 
*FROM CLIP NAME:  118_119-01-01B 
001076  A191C003_160810_L0F7         V     C        03:49:45:15 03:49:49:02 02:12:57:00 02:13:00:11 
*FROM CLIP NAME:  118_119-01-01A 
001077  B031R59N                         V     C        03:52:31:12 03:52:32:04 02:13:00:11 02:13:01:03 
*FROM CLIP NAME:  118_119-01-02B 
001078  A192C002_160810_L0F7         V     C        04:01:57:10 04:02:01:00 02:13:01:03 02:13:04:17 
*FROM CLIP NAME:  118_119-02-01A 
001079  B031R59N                         V     C        03:55:47:05 03:55:48:22 02:13:04:17 02:13:06:10 
*FROM CLIP NAME:  118_119-01-03B 
001080  A192C002_160810_L0F7         V     C        04:02:05:13 04:02:06:20 02:13:06:10 02:13:07:17 
*FROM CLIP NAME:  118_119-02-01A 
001081  B031R59N                         V     C        03:55:52:09 03:55:55:05 02:13:07:17 02:13:10:13 
*FROM CLIP NAME:  118_119-01-03B 
001082  A192C001_160810_L0F7         V     C        03:55:55:05 03:55:56:13 02:13:10:13 02:13:11:21 
*FROM CLIP NAME:  118_119-01-03A 
001083  B031R59N                         V     C        03:55:58:15 03:56:04:02 02:13:11:21 02:13:17:08 
*FROM CLIP NAME:  118_119-01-03B 
001084  B034R56W                         V     C        02:23:30:17 02:23:32:18 02:13:17:08 02:13:19:09 
*FROM CLIP NAME:  B034C003_160817_R56W 
001085  B030C010_160810_R59N         V     C        02:33:59:16 02:34:08:13 02:13:19:09 02:13:28:06 
*FROM CLIP NAME:  120-02-01B 
001086  B031C001_160810_R59N         V     C        02:47:22:02 02:47:30:10 02:13:28:06 02:13:36:14 
*FROM CLIP NAME:  120-03-01B 
001087  C003C012_160809_R0V3         V     C        02:47:30:10 02:47:33:17 02:13:36:14 02:13:39:21 
*FROM CLIP NAME:  120-03-01C 
001088  A191C001_160810_L0F7         V     C        02:47:33:17 02:47:40:17 02:13:39:21 02:13:46:21 
*FROM CLIP NAME:  120-03-01A  
001089  C003C012_160809_R0V3         V     C        02:47:40:17 02:47:43:21 02:13:46:21 02:13:50:01 
*FROM CLIP NAME:  120-03-01C 
001090  A191C001_160810_L0F7         V     C        02:47:43:21 02:47:45:09 02:13:50:01 02:13:51:13 
*FROM CLIP NAME:  120-03-01A  
001091  C003C012_160809_R0V3         V     C        02:47:45:09 02:47:45:18 02:13:51:13 02:13:51:22 
*FROM CLIP NAME:  120-03-01C 
001092  B031C001_160810_R59N         V     C        02:47:45:18 02:47:46:14 02:13:51:22 02:13:52:18 
*FROM CLIP NAME:  120-03-01B 
001093  A191C001_160810_L0F7         V     C        02:47:46:14 02:47:48:03 02:13:52:18 02:13:54:07 
*FROM CLIP NAME:  120-03-01A  
001094  B031C001_160810_R59N         V     C        02:47:48:11 02:47:50:10 02:13:54:07 02:13:56:06 
*FROM CLIP NAME:  120-03-01B 
001095  A191C001_160810_L0F7         V     C        02:47:50:00 02:47:51:01 02:13:56:06 02:13:57:07 
*FROM CLIP NAME:  120-03-01A  
001096  B031C001_160810_R59N         V     C        02:47:51:11 02:47:53:06 02:13:57:07 02:13:59:02 
*FROM CLIP NAME:  120-03-01B 
001097  A191C001_160810_L0F7         V     C        02:47:53:05 02:47:54:23 02:13:59:02 02:14:00:20 
*FROM CLIP NAME:  120-03-01A  
001098  C003C012_160809_R0V3         V     C        02:47:54:16 02:47:55:13 02:14:00:20 02:14:01:17 
*FROM CLIP NAME:  120-03-01C 
001099  A191C001_160810_L0F7         V     C        02:47:55:13 02:48:03:11 02:14:01:17 02:14:09:15 
*FROM CLIP NAME:  120-03-01A  
001100  B031C001_160810_R59N         V     C        02:48:03:11 02:48:04:21 02:14:09:15 02:14:11:01 
*FROM CLIP NAME:  120-03-01B 
001101  C003C012_160809_R0V3         V     C        02:48:04:21 02:48:06:10 02:14:11:01 02:14:12:14 
*FROM CLIP NAME:  120-03-01C 
001102  B031C001_160810_R59N         V     C        02:48:06:10 02:48:07:01 02:14:12:14 02:14:13:05 
*FROM CLIP NAME:  120-03-01B 
001103  A191C001_160810_L0F7         V     C        02:48:07:01 02:48:09:04 02:14:13:05 02:14:15:08 
*FROM CLIP NAME:  120-03-01A  
001104  B031C001_160810_R59N         V     C        02:48:09:04 02:48:10:03 02:14:15:08 02:14:16:07 
*FROM CLIP NAME:  120-03-01B 
001105  A191C001_160810_L0F7         V     C        02:48:10:03 02:48:11:00 02:14:16:07 02:14:17:04 
*FROM CLIP NAME:  120-03-01A  
001106  C003C012_160809_R0V3         V     C        02:48:11:00 02:48:12:02 02:14:17:04 02:14:18:06 
*FROM CLIP NAME:  120-03-01C 
001107  B031C001_160810_R59N         V     C        02:48:12:02 02:48:15:01 02:14:18:06 02:14:21:05 
*FROM CLIP NAME:  120-03-01B 
001108  A191C001_160810_L0F7         V     C        02:48:15:01 02:48:15:16 02:14:21:05 02:14:21:20 
*FROM CLIP NAME:  120-03-01A  
001109  B031C001_160810_R59N         V     C        02:48:15:16 02:48:17:16 02:14:21:20 02:14:23:20 
*FROM CLIP NAME:  120-03-01B 
001110  B031C001_160810_R59N         V     C        02:48:17:16 02:48:22:04 02:14:23:20 02:14:28:08 
*FROM CLIP NAME:  120-03-01B 
001111  B034R56W                         V     C        03:00:11:13 03:00:13:05 02:14:28:08 02:14:30:00 
*FROM CLIP NAME:  B034C011_160817_R56W 
001112  A211C004_160813_L0F7         V     C        22:09:03:20 22:09:05:14 02:14:30:00 02:14:31:18 
*FROM CLIP NAME:  121-01-03 PU 
001113  A212C003_160813_L0F7         V     C        22:35:55:11 22:35:57:23 02:14:31:18 02:14:34:06 
*FROM CLIP NAME:  121-02-03 
001114  A211C004_160813_L0F7         V     C        22:09:07:13 22:09:12:18 02:14:34:06 02:14:39:11 
*FROM CLIP NAME:  121-01-03 PU 
001115  B034R56W                         V     C        02:51:48:04 02:51:49:09 02:14:39:11 02:14:40:16 
*FROM CLIP NAME:  B034C009_160817_R56W 
001116  C003C011_160809_R0V3         V     C        02:36:46:21 02:36:48:04 02:14:40:16 02:14:41:23 
*FROM CLIP NAME:  120-02-01C 
001117  B034R56W                         V     C        02:51:50:16 02:51:51:18 02:14:41:23 02:14:43:01 
*FROM CLIP NAME:  B034C009_160817_R56W 
001118  B030C008_160810_R59N         V     C        02:03:52:19 02:03:53:17 02:14:43:01 02:14:43:23 
*FROM CLIP NAME:  12-01-01B 
001119  A212C002_160813_L0F7         V     C        22:32:59:12 22:33:00:10 02:14:43:23 02:14:44:21 
*FROM CLIP NAME:  121-02-02 
001120  A212C001_160813_L0F7         V     C        22:29:09:11 22:29:10:22 02:14:44:21 02:14:46:08 
*FROM CLIP NAME:  121-02-01 
001121  A211C003_160813_L0F7         V     C        22:07:41:04 22:07:42:15 02:14:46:08 02:14:47:19 
*FROM CLIP NAME:  121-01-02 
001122  A212C003_160813_L0F7         V     C        22:36:09:04 22:36:13:22 02:14:47:19 02:14:52:13 
*FROM CLIP NAME:  121-02-03 
001123  B034R56W                         V     C        02:25:44:23 02:25:45:18 02:14:52:13 02:14:53:08 
*FROM CLIP NAME:  B034C003_160817_R56W 
001124  A190C001_160810_L0F7         V     C        02:37:20:23 02:37:22:14 02:14:53:08 02:14:54:23 
*FROM CLIP NAME:  120-02-01A 
001125  C003C011_160809_R0V3         V     C        02:37:24:19 02:37:25:19 02:14:54:23 02:14:55:23 
*FROM CLIP NAME:  120-02-01C 
001126  A213C002_160813_L0F7         V     C        22:47:34:10 22:47:49:23 02:14:55:23 02:15:11:12 
*FROM CLIP NAME:  121-03-04 
001127  B031C001_160810_R59N         V     C        02:49:05:07 02:49:06:23 02:15:11:12 02:15:13:04 
*FROM CLIP NAME:  120-03-01B 
001128  A191C001_160810_L0F7         V     C        02:49:06:23 02:49:11:08 02:15:13:04 02:15:17:13 
*FROM CLIP NAME:  120-03-01A  
001129  C003C012_160809_R0V3         V     C        02:49:11:08 02:49:15:01 02:15:17:13 02:15:21:06 
*FROM CLIP NAME:  120-03-01C 
001130  A191C001_160810_L0F7         V     C        02:49:15:01 02:49:16:02 02:15:21:06 02:15:22:07 
*FROM CLIP NAME:  120-03-01A  
001131  B031C001_160810_R59N         V     C        02:49:16:02 02:49:18:15 02:15:22:07 02:15:24:20 
*FROM CLIP NAME:  120-03-01B 
001132  A191C001_160810_L0F7         V     C        02:49:18:15 02:49:23:08 02:15:24:20 02:15:29:13 
*FROM CLIP NAME:  120-03-01A  
001133  C003C012_160809_R0V3         V     C        02:49:23:08 02:49:24:18 02:15:29:13 02:15:30:23 
*FROM CLIP NAME:  120-03-01C 
001134  B031C001_160810_R59N         V     C        02:49:24:18 02:49:26:09 02:15:30:23 02:15:32:14 
*FROM CLIP NAME:  120-03-01B 
001135  A191C001_160810_L0F7         V     C        02:49:26:09 02:49:31:07 02:15:32:14 02:15:37:12 
*FROM CLIP NAME:  120-03-01A  
001136  B031C001_160810_R59N         V     C        02:49:31:07 02:49:38:05 02:15:37:12 02:15:44:10 
*FROM CLIP NAME:  120-03-01B 
001137  C003C012_160809_R0V3         V     C        02:49:38:05 02:49:44:15 02:15:44:10 02:15:50:20 
*FROM CLIP NAME:  120-03-01C 
001138  A103R0F7                         V     C        01:50:11:23 01:50:25:19 02:15:50:20 02:16:04:16 
*FROM CLIP NAME:  123_124-03-01 
001139  A103R0F7                         V     C        01:34:14:01 01:34:16:15 02:16:04:16 02:16:07:06 
*FROM CLIP NAME:  123_124-01-01 
001140  A103R0F7                         V     C        01:51:12:12 01:51:13:07 02:16:07:06 02:16:08:01 
*FROM CLIP NAME:  123_124-03-01 
001141  A103R0F7                         V     C        01:54:19:12 01:54:21:15 02:16:08:01 02:16:10:04 
*FROM CLIP NAME:  123_124-04-01 
001142  A103R0F7                         V     C        01:51:26:19 01:51:32:20 02:16:10:04 02:16:16:05 
*FROM CLIP NAME:  123_124-03-01 
001143  A104R0F7                         V     C        02:25:42:10 02:25:44:22 02:16:24:00 02:16:26:12 
*FROM CLIP NAME:  123_124-05-03 
001144  A089R0F7                         V     C        03:45:51:11 03:45:53:23 02:16:26:12 02:16:29:00 
*FROM CLIP NAME:  A089C001_160728_R0F7 
001145  A082R0F7                         V     C        18:51:37:17 18:51:41:21 02:16:29:00 02:16:33:04 
*FROM CLIP NAME:  125-01-03 
001146  A082R0F7                         V     C        19:08:29:22 19:08:44:04 02:16:33:04 02:16:47:10 
*FROM CLIP NAME:  125-03-02 
001147  A084R0F7                         V     C        20:28:11:19 20:28:13:08 02:16:47:10 02:16:48:23 
*FROM CLIP NAME:  125-04-01 
001148  A082R0F7                         V     C        19:08:50:05 19:08:51:16 02:16:48:23 02:16:50:10 
*FROM CLIP NAME:  125-03-02 
001149  A084R0F7                         V     C        21:12:05:19 21:12:07:16 02:16:50:10 02:16:52:07 
*FROM CLIP NAME:  126-01-01 
001150  A085R0F7                         V     C        21:42:09:16 21:42:11:03 02:16:52:07 02:16:53:18 
*FROM CLIP NAME:  126-02-03 
001151  A084R0F7                         V     C        21:12:08:12 21:12:09:23 02:16:53:18 02:16:55:05 
*FROM CLIP NAME:  126-01-01 
001152  A085R0F7                         V     C        21:42:13:00 21:42:16:02 02:16:55:05 02:16:58:07 
*FROM CLIP NAME:  126-02-03 
001153  A085R0F7                         V     C        00:04:23:22 00:04:25:05 02:16:58:07 02:16:59:14 
*FROM CLIP NAME:  126-03-02 
001154  A087R0F7                         V     C        00:37:04:09 00:37:05:02 02:16:59:14 02:17:00:07 
*FROM CLIP NAME:  126-07-01 
001155  A085R0F7                         V     C        21:42:17:23 21:42:19:04 02:17:00:07 02:17:01:12 
*FROM CLIP NAME:  126-02-03 
001156  A087R0F7                         V     C        00:37:06:08 00:37:07:23 02:17:01:12 02:17:03:03 
*FROM CLIP NAME:  126-07-01 
001157  A085R0F7                         V     C        21:42:21:01 21:42:22:12 02:17:03:03 02:17:04:14 
*FROM CLIP NAME:  126-02-03 
001158  A087R0F7                         V     C        00:37:09:22 00:37:11:21 02:17:04:14 02:17:06:13 
*FROM CLIP NAME:  126-07-01 
001159  A085R0F7                         V     C        21:33:53:06 21:33:55:00 02:17:06:13 02:17:08:07 
*FROM CLIP NAME:  126-02-02 
001160  A087R0F7                         V     C        00:37:13:12 00:37:15:09 02:17:08:07 02:17:10:04 
*FROM CLIP NAME:  126-07-01 
001161  A085R0F7                         V     C        21:33:57:18 21:34:00:14 02:17:10:04 02:17:13:00 
*FROM CLIP NAME:  126-02-02 
001162  A084R0F7                         V     C        21:18:34:00 21:18:35:20 02:17:13:00 02:17:14:20 
*FROM CLIP NAME:  126-01-02 
001163  A086R0F7                         V     C        00:18:25:04 00:18:30:00 02:17:14:20 02:17:19:16 
*FROM CLIP NAME:  126-05-01 
001164  A087R0F7                         V     C        00:30:20:13 00:30:24:16 02:17:19:16 02:17:23:19 
*FROM CLIP NAME:  126-06-01 
001165  A087R0F7                         V     C        00:37:47:01 00:37:49:18 02:17:23:19 02:17:26:12 
*FROM CLIP NAME:  126-07-01 
001166  A086R0F7                         V     C        00:18:40:17 00:18:44:01 02:17:26:12 02:17:29:20 
*FROM CLIP NAME:  126-05-01 
001167  A087R0F7                         V     C        00:37:52:22 00:37:55:11 02:17:29:20 02:17:32:09 
*FROM CLIP NAME:  126-07-01 
001168  A088R0F7                         V     C        00:42:07:18 00:42:11:20 02:17:32:09 02:17:36:11 
*FROM CLIP NAME:  126-07-02 
001169  A085R0F7                         V     C        00:05:58:16 00:06:00:14 02:17:36:11 02:17:38:09 
*FROM CLIP NAME:  126-03-02 
001170  A087R0F7                         V     C        00:38:06:13 00:38:10:20 02:17:38:09 02:17:42:16 
*FROM CLIP NAME:  126-07-01 
001171  A086R0F7                         V     C        00:19:03:07 00:19:15:01 02:17:42:16 02:17:54:10 
*FROM CLIP NAME:  126-05-01 
001172  A085R0F7                         V     C        21:43:36:09 21:43:39:02 02:17:54:10 02:17:57:03 
*FROM CLIP NAME:  126-02-03 
001173  A087R0F7                         V     C        00:31:00:19 00:31:09:03 02:17:57:03 02:18:05:11 
*FROM CLIP NAME:  126-06-01 
001174  A087R0F7                         V     C        00:31:09:03 00:31:09:15 02:18:05:11 02:18:05:23 
*FROM CLIP NAME:  126-06-01 
001175  A085R0F7                         V     C        00:05:52:21 00:05:54:23 02:18:05:23 02:18:08:01 
*FROM CLIP NAME:  126-03-02 
001176  A087R0F7                         V     C        00:38:38:03 00:38:49:03 02:18:08:01 02:18:19:01 
*FROM CLIP NAME:  126-07-01 
001177  A086R0F7                         V     C        00:12:42:15 00:12:46:12 02:18:19:01 02:18:22:22 
*FROM CLIP NAME:  126-04-02 
001178  B011R59N                         V     C        03:39:39:22 03:39:45:22 02:18:22:22 02:18:28:22 
*FROM CLIP NAME:  127-02-01 
001179  A091R0F7                         V     C        01:29:19:11 01:29:20:15 02:18:28:22 02:18:30:02 
*FROM CLIP NAME:  128-02-02 
001180  A090R0F7                         V     C        00:53:55:06 00:54:00:13 02:18:30:02 02:18:35:09 
*FROM CLIP NAME:  128-01-05 
001181  A091R0F7                         V     C        01:41:26:15 01:41:28:03 02:18:35:09 02:18:36:21 
*FROM CLIP NAME:  128-03-03 
001182  A090R0F7                         V     C        00:48:31:21 00:48:35:04 02:18:36:21 02:18:40:04 
*FROM CLIP NAME:  128-01-04 
001183  A091R0F7                         V     C        01:37:09:09 01:37:10:08 02:18:40:04 02:18:41:03 
*FROM CLIP NAME:  128-03-01 
001184  A090R0F7                         V     C        00:48:36:15 00:48:43:15 02:18:41:03 02:18:48:03 
*FROM CLIP NAME:  128-01-04 
001185  A091R0F7                         V     C        01:37:19:07 01:37:22:11 02:18:48:03 02:18:51:07 
*FROM CLIP NAME:  128-03-01 
001186  A090R0F7                         V     C        00:48:48:07 00:48:53:01 02:18:51:07 02:18:56:01 
*FROM CLIP NAME:  128-01-04 
001187  A090R0F7                         V     C        00:48:53:01 00:48:54:08 02:18:56:01 02:18:57:08 
*FROM CLIP NAME:  128-01-04 
001188  A091R0F7                         V     C        01:41:59:15 01:42:00:14 02:18:57:08 02:18:58:07 
*FROM CLIP NAME:  128-03-03 
001189  A091R0F7                         V     C        00:58:26:02 00:58:26:11 02:18:58:07 02:18:58:16 
*FROM CLIP NAME:  128-01-06 
001190  A091R0F7                         V     C        01:29:54:14 01:29:55:03 02:18:58:16 02:18:59:05 
*FROM CLIP NAME:  128-02-02 
001191  A091R0F7                         V     C        00:58:27:21 00:58:28:19 02:18:59:05 02:19:00:03 
*FROM CLIP NAME:  128-01-06 
001192  A090R0F7                         V     C        00:54:36:01 00:54:36:14 02:19:00:03 02:19:00:16 
*FROM CLIP NAME:  128-01-05 
001193  A089R0F7                         V     C        03:54:08:04 03:54:09:08 02:19:00:16 02:19:01:20 
*FROM CLIP NAME:  129-03UP-02 
001194  B010R59N                         V     C        03:05:35:14 03:05:37:03 02:19:01:20 02:19:03:09 
*FROM CLIP NAME:  130-02-01 
001195  B010R59N                         V     C        03:05:34:03 03:05:34:19 02:19:03:09 02:19:04:01 
*FROM CLIP NAME:  130-02-01 
001196  B010R59N                         V     C        01:39:21:22 01:39:22:10 02:19:04:01 02:19:04:13 
*FROM CLIP NAME:  131_132-02-01 
001197  A089R0F7                         V     C        03:54:09:14 03:54:10:08 02:19:04:13 02:19:05:07 
*FROM CLIP NAME:  129-03UP-02 
001198  B010R59N                         V     C        00:23:47:14 00:23:49:04 02:19:05:07 02:19:06:21 
*FROM CLIP NAME:  129-01-02 
001199  B011R59N                         V     C        03:27:09:07 03:27:09:19 02:19:06:21 02:19:07:09 
*FROM CLIP NAME:  129-03-01 
001200  B010R59N                         V     C        00:26:30:06 00:26:31:11 02:19:07:09 02:19:08:14 
*FROM CLIP NAME:  129-01-03 
001201  B011R59N                         V     C        03:27:13:17 03:27:15:18 02:19:08:14 02:19:10:15 
*FROM CLIP NAME:  129-03-01 
001202  A088R0F7                         V     C        00:48:33:19 00:48:34:01 02:19:10:15 02:19:10:21 
*FROM CLIP NAME:  129-02-03 
001203  B011R59N                         V     C        03:27:16:00 03:27:16:06 02:19:10:21 02:19:11:03 
*FROM CLIP NAME:  129-03-01 
001204  A088R0F7                         V     C        00:44:26:03 00:44:27:11 02:19:11:03 02:19:12:11 
*FROM CLIP NAME:  129-02-01 
001205  B010R59N                         V     C        00:26:36:10 00:26:38:08 02:19:12:11 02:19:14:09 
*FROM CLIP NAME:  129-01-03 
001206  A089R0F7                         V     C        03:50:21:19 03:50:23:02 02:19:14:09 02:19:15:16 
*FROM CLIP NAME:  129-03UP-01 
001207  B011R59N                         V     C        03:14:34:15 03:14:36:01 02:19:15:16 02:19:17:02 
*FROM CLIP NAME:  131_132-05-01 
001208  A088R0F7                         V     C        01:46:49:15 01:46:51:17 02:19:17:02 02:19:19:04 
*FROM CLIP NAME:  131_132-03-02 
001209  A093R0F7                         V     C        01:39:48:07 01:39:51:09 02:19:19:04 02:19:22:06 
*FROM CLIP NAME:  136-05-03 
001210  B010R59N                         V     C        02:06:47:07 02:06:48:14 02:19:22:06 02:19:23:13 
*FROM CLIP NAME:  131_132-04-03 
001211  B011R59N                         V     C        03:14:41:14 03:14:43:22 02:19:23:13 02:19:25:21 
*FROM CLIP NAME:  131_132-05-01 
001212  A088R0F7                         V     C        01:46:54:11 01:46:55:12 02:19:25:21 02:19:26:22 
*FROM CLIP NAME:  131_132-03-02 
001213  B010R59N                         V     C        02:06:50:23 02:06:51:23 02:19:26:22 02:19:27:22 
*FROM CLIP NAME:  131_132-04-03 
001214  A088R0F7                         V     C        01:44:38:01 01:44:38:14 02:19:27:22 02:19:28:11 
*FROM CLIP NAME:  131_132-03-01 
001215  B010R59N                         V     C        01:23:25:19 01:23:26:03 02:19:28:11 02:19:28:19 
*FROM CLIP NAME:  131_132-01-01 
001216  B010R59N                         V     C        01:23:31:23 01:23:35:08 02:19:28:19 02:19:32:04 
*FROM CLIP NAME:  131_132-01-01 
001217  A092R0F7                         V     C        00:29:11:22 00:29:13:02 02:19:32:04 02:19:33:08 
*FROM CLIP NAME:  136-03-01 
001218  A092R0F7                         V     C        00:13:47:02 00:13:49:14 02:19:33:08 02:19:35:20 
*FROM CLIP NAME:  136-02-03 
001219  A092R0F7                         V     C        00:29:15:14 00:29:16:22 02:19:35:20 02:19:37:04 
*FROM CLIP NAME:  136-03-01 
001220  B010R59N                         V     C        02:39:27:00 02:39:27:23 02:19:37:04 02:19:38:03 
*FROM CLIP NAME:  134_135-02-03 
001221  B010R59N                         V     C        02:31:27:11 02:31:28:02 02:19:38:03 02:19:38:18 
*FROM CLIP NAME:  134_135-01-01 
001222  A092R0F7                         V     C        00:29:21:00 00:29:22:12 02:19:38:18 02:19:40:06 
*FROM CLIP NAME:  136-03-01 
001223  B010R59N                         V     C        02:39:33:04 02:39:40:14 02:19:40:06 02:19:47:16 
*FROM CLIP NAME:  134_135-02-03 
001224  B010R59N                         V     C        02:36:02:08 02:36:05:08 02:19:47:16 02:19:50:16 
*FROM CLIP NAME:  134_135-02-02 
001225  A092R0F7                         V     C        02:20:20:06 02:20:23:09 02:19:50:16 02:19:53:19 
*FROM CLIP NAME:  136-01-02 
001226  A092R0F7                         V     C        02:20:23:09 02:20:25:17 02:19:53:19 02:19:56:03 
*FROM CLIP NAME:  136-01-02 
001227  A092R0F7                         V     C        02:20:25:17 02:20:26:07 02:19:56:03 02:19:56:17 
*FROM CLIP NAME:  136-01-02 
001228  A092R0F7                         V     C        02:20:29:14 02:20:31:16 02:19:56:17 02:19:58:19 
*FROM CLIP NAME:  136-01-02 
001229  A092R0F7                         V     C        02:20:31:16 02:20:31:16 02:19:58:19 02:19:58:19 
001229  B012R59N                         V     W002 008 03:52:46:16 03:52:47:00 02:19:58:19 02:19:59:03 
*EDGE WIPE, HORIZONTAL 
*FROM CLIP NAME:  136-01-02 
*TO CLIP NAME:  B012C002_160729_R59N 
001230  B012R59N                         V     C        03:52:47:00 03:52:52:11 02:19:59:03 02:20:04:14 
*FROM CLIP NAME:  B012C002_160729_R59N 
001231  A097R0F7                         V     C        00:40:19:13 00:40:24:10 02:20:04:14 02:20:09:11 
*FROM CLIP NAME:  A097C002_160729_R0F7 
001232  B012R59N                         V     C        03:52:51:08 03:52:55:12 02:20:09:11 02:20:13:15 
*FROM CLIP NAME:  B012C002_160729_R59N 
001233  A097R0F7                         V     C        00:40:31:11 00:40:33:07 02:20:13:15 02:20:15:11 
*FROM CLIP NAME:  A097C002_160729_R0F7 
001234  B012R59N                         V     C        03:53:20:16 03:53:28:00 02:20:15:11 02:20:22:19 
*FROM CLIP NAME:  B012C002_160729_R59N 
001235  A093R0F7                         V     C        01:13:03:20 01:13:08:21 02:20:22:19 02:20:27:20 
*FROM CLIP NAME:  138-02-02 
001236  A093R0F7                         V     C        00:50:08:10 00:50:16:13 02:20:27:20 02:20:35:23 
*FROM CLIP NAME:  138-01-03 
001237  A093R0F7                         V     C        01:11:03:01 01:11:06:08 02:20:35:23 02:20:39:06 
*FROM CLIP NAME:  138-02-01 
001238  A093R0F7                         V     C        00:50:31:08 00:50:35:06 02:20:39:06 02:20:43:04 
*FROM CLIP NAME:  138-01-03 
001239  A083R0F7                         V     C        19:38:09:09 19:38:16:02 02:20:43:04 02:20:49:21 
*FROM CLIP NAME:  139-01-03 
001240  A083R0F7                         V     C        19:53:10:10 19:53:11:18 02:20:49:21 02:20:51:05 
*FROM CLIP NAME:  139-02-01 
001241  A083R0F7                         V     C        19:43:57:05 19:43:58:15 02:20:51:05 02:20:52:15 
*FROM CLIP NAME:  139-01-06 
001242  A083R0F7                         V     C        19:56:45:01 19:56:47:03 02:20:52:15 02:20:54:17 
*FROM CLIP NAME:  139-02-02 
001243  A083R0F7                         V     C        19:44:00:23 19:44:01:13 02:20:54:17 02:20:55:07 
*FROM CLIP NAME:  139-01-06 
001244  A083R0F7                         V     C        20:08:47:13 20:08:48:19 02:20:55:07 02:20:56:13 
*FROM CLIP NAME:  139-03-02 
001245  A083R0F7                         V     C        19:44:02:19 19:44:04:06 02:20:56:13 02:20:58:00 
*FROM CLIP NAME:  139-01-06 
001246  A083R0F7                         V     C        19:56:51:03 19:56:55:15 02:20:58:00 02:21:02:12 
*FROM CLIP NAME:  139-02-02 
001247  A083R0F7                         V     C        19:44:09:21 19:44:10:16 02:21:02:12 02:21:03:07 
*FROM CLIP NAME:  139-01-06 
001248  A095R0F7                         V     C        02:27:21:01 02:27:25:07 02:21:03:07 02:21:07:13 
*FROM CLIP NAME:  140_141_142-01-05 
001249  A095R0F7                         V     C        02:27:29:17 02:28:02:00 02:21:07:13 02:21:39:20 
*FROM CLIP NAME:  140_141_142-01-05 
001250  A095R0F7                         V     C        02:42:46:18 02:42:59:15 02:21:39:20 02:21:52:17 
*FROM CLIP NAME:  140_141_142-03-02 
001251  A095R0F7                         V     C        02:28:33:17 02:28:36:07 02:21:52:17 02:21:55:07 
*FROM CLIP NAME:  140_141_142-01-05 
001252  A099R0F7                         V     C        21:17:22:16 21:17:26:13 02:21:55:07 02:21:59:04 
*FROM CLIP NAME:  143_144-02-03 
001253  A100R0F7                         V     C        21:29:10:05 21:29:21:01 02:21:59:04 02:22:10:00 
*FROM CLIP NAME:  143_144-03-04 
001254  A100R0F7                         V     C        21:37:55:09 21:37:57:02 02:22:10:00 02:22:11:17 
*FROM CLIP NAME:  143_144-04-01 
001255  A100R0F7                         V     C        21:29:27:13 21:29:35:22 02:22:11:17 02:22:20:02 
*FROM CLIP NAME:  143_144-03-04 
001256  A100R0F7                         V     C        21:38:09:20 21:38:12:21 02:22:20:02 02:22:23:03 
*FROM CLIP NAME:  143_144-04-01 
001257  A100R0F7                         V     C        21:29:42:00 21:29:47:03 02:22:23:03 02:22:28:06 
*FROM CLIP NAME:  143_144-03-04 
001258  A100R0F7                         V     C        21:38:22:20 21:38:33:13 02:22:28:06 02:22:38:23 
*FROM CLIP NAME:  143_144-04-01 
001259  A162C001_160806_L0F7         V     C        13:01:30:11 13:01:33:00 02:22:38:23 02:22:41:12 
*FROM CLIP NAME:  145-01-01 
001260  A163C002_160806_L0F7         V     C        13:24:46:14 13:24:58:00 02:22:41:12 02:22:52:22 
*FROM CLIP NAME:  145-02-02 
001261  A162C003_160806_L0F7         V     C        13:09:09:02 13:09:11:16 02:22:52:22 02:22:55:12 
*FROM CLIP NAME:  145-01-03 
001262  A163C002_160806_L0F7         V     C        13:25:00:14 13:25:06:14 02:22:55:12 02:23:01:12 
*FROM CLIP NAME:  145-02-02 
001263  A162C003_160806_L0F7         V     C        13:09:21:08 13:09:23:06 02:23:01:12 02:23:03:10 
*FROM CLIP NAME:  145-01-03 
001264  A163C002_160806_L0F7         V     C        13:25:07:22 13:25:31:03 02:23:03:10 02:23:26:15 
*FROM CLIP NAME:  145-02-02 
001265  A162C003_160806_L0F7         V     C        13:09:43:18 13:09:47:03 02:23:26:15 02:23:30:00 
*FROM CLIP NAME:  145-01-03 
001266  A163C002_160806_L0F7         V     C        13:25:34:23 13:25:38:02 02:23:30:00 02:23:33:03 
*FROM CLIP NAME:  145-02-02 
001267  A162C003_160806_L0F7         V     C        13:09:49:10 13:09:57:08 02:23:33:03 02:23:41:01 
*FROM CLIP NAME:  145-01-03 
001268  A162C003_160806_L0F7         V     C        13:09:57:08 13:09:58:14 02:23:41:01 02:23:42:07 
*FROM CLIP NAME:  145-01-03 
001269  A160C003_160806_L0F7         V     C        11:55:43:08 11:55:46:10 02:23:42:07 02:23:45:09 
*FROM CLIP NAME:  147_149-01-03 
001270  A161C003_160806_L0F7         V     C        12:15:15:10 12:15:24:01 02:23:45:09 02:23:54:00 
*FROM CLIP NAME:  147_149-03-01 
001271  A161C003_160806_L0F7         V     C        12:15:24:01 12:15:24:01 02:23:54:00 02:23:54:00 
001271  A147C005_160804_L0F7         V     D    020 12:24:32:07 12:24:33:03 02:23:54:00 02:23:54:20 
*BLEND, DISSOLVE 
*FROM CLIP NAME:  147_149-03-01 
*TO CLIP NAME:  146/148-02-02 
001272  A147C005_160804_L0F7         V     C        12:24:33:03 12:24:52:03 02:23:54:20 02:24:13:20 
*FROM CLIP NAME:  146_148-02-02 
001273  A169C007_160806_L0F7         V     C        21:04:11:01 21:04:14:11 02:24:13:20 02:24:17:06 
*FROM CLIP NAME:  154-01-01 
001274  A161C003_160806_L0F7         V     C        12:15:35:17 12:15:50:16 02:24:17:06 02:24:32:05 
*FROM CLIP NAME:  147_149-03-01 
001275  A160C002_160806_L0F7         V     C        11:53:16:23 11:53:19:17 02:24:32:05 02:24:34:23 
*FROM CLIP NAME:  147_149-01-02 
001276  A169C009_160806_L0F7         V     C        21:12:35:15 21:12:41:09 02:24:34:23 02:24:40:17 
*FROM CLIP NAME:  150-04-02 
001277  A169C009_160806_L0F7         V     C        21:12:48:22 21:12:51:13 02:24:40:17 02:24:43:08 
*FROM CLIP NAME:  150-04-02 
001278  A169C006_160806_L0F7         V     C        20:59:32:15 20:59:34:22 02:24:43:08 02:24:45:15 
*FROM CLIP NAME:  A169C006_160806_L0F7 
001279  A167C001_160806_L0F7         V     C        02:03:36:02 02:03:38:09 02:24:45:15 02:24:47:22 
*FROM CLIP NAME:  151-06-01 
001280  A166C003_160806_L0F7         V     C        01:43:07:04 01:43:08:13 02:24:47:22 02:24:49:07 
*FROM CLIP NAME:  151-05-01 
001281  A164C003_160806_L0F7         V     C        00:54:54:18 00:54:56:07 02:24:49:07 02:24:50:20 
*FROM CLIP NAME:  151-02-04 
001282  A166C003_160806_L0F7         V     C        01:43:09:13 01:43:10:01 02:24:50:20 02:24:51:08 
*FROM CLIP NAME:  151-05-01 
001283  B022R1TG                         V     C        15:51:32:07 15:51:34:14 02:24:51:08 02:24:53:15 
*FROM CLIP NAME:  151-01-02 
001284  A164C003_160806_L0F7         V     C        00:54:59:10 00:55:00:18 02:24:53:15 02:24:54:23 
*FROM CLIP NAME:  151-02-04 
001285  A167C001_160806_L0F7         V     C        02:04:06:17 02:04:07:16 02:24:54:23 02:24:55:22 
*FROM CLIP NAME:  151-06-01 
001286  A164C003_160806_L0F7         V     C        00:55:01:17 00:55:06:20 02:24:55:22 02:25:01:01 
*FROM CLIP NAME:  151-02-04 
001287  A166C003_160806_L0F7         V     C        01:43:13:11 01:43:17:00 02:25:01:01 02:25:04:14 
*FROM CLIP NAME:  151-05-01 
001288  A164C002_160806_L0F7         V     C        00:53:08:06 00:53:11:14 02:25:04:14 02:25:07:22 
*FROM CLIP NAME:  151-02-03 
001289  A167C001_160806_L0F7         V     C        02:04:16:21 02:04:19:16 02:25:07:22 02:25:10:17 
*FROM CLIP NAME:  151-06-01 
001290  A164C002_160806_L0F7         V     C        00:53:14:09 00:53:18:11 02:25:10:17 02:25:14:19 
*FROM CLIP NAME:  151-02-03 
001291  A165C002_160806_L0F7         V     C        01:15:29:15 01:15:31:21 02:25:14:19 02:25:17:01 
*FROM CLIP NAME:  151-03-02 
001292  A167C001_160806_L0F7         V     C        02:04:26:10 02:04:27:15 02:25:17:01 02:25:18:06 
*FROM CLIP NAME:  151-06-01 
001293  A165C002_160806_L0F7         V     C        01:15:32:11 01:15:33:18 02:25:18:06 02:25:19:13 
*FROM CLIP NAME:  151-03-02 
001294  A166C002_160806_L0F7         V     C        01:32:54:12 01:32:55:21 02:25:19:13 02:25:20:22 
*FROM CLIP NAME:  151-04-02 
001295  A165C002_160806_L0F7         V     C        01:15:37:09 01:15:39:09 02:25:20:22 02:25:22:22 
*FROM CLIP NAME:  151-03-02 
001296  A166C002_160806_L0F7         V     C        01:33:02:20 01:33:04:03 02:25:22:22 02:25:24:05 
*FROM CLIP NAME:  151-04-02 
001297  A165C001_160806_L0F7         V     C        01:08:12:10 01:08:15:12 02:25:24:05 02:25:27:07 
*FROM CLIP NAME:  151-03-01 
001298  A166C001_160806_L0F7         V     C        01:28:40:06 01:28:41:09 02:25:27:07 02:25:28:10 
*FROM CLIP NAME:  151-04-01 
001299  A165C002_160806_L0F7         V     C        01:15:45:23 01:15:47:16 02:25:28:10 02:25:30:03 
*FROM CLIP NAME:  151-03-02 
001300  A167C001_160806_L0F7         V     C        02:04:43:14 02:04:44:13 02:25:30:03 02:25:31:02 
*FROM CLIP NAME:  151-06-01 
001301  A166C001_160806_L0F7         V     C        01:28:43:14 01:28:49:02 02:25:31:02 02:25:36:14 
*FROM CLIP NAME:  151-04-01 
001302  A165C002_160806_L0F7         V     C        01:15:57:12 01:16:01:21 02:25:36:14 02:25:40:23 
*FROM CLIP NAME:  151-03-02 
001303  B023R1TG                         V     C        18:02:13:19 18:02:19:06 02:25:40:23 02:25:46:10 
*FROM CLIP NAME:  151-09-01 
001304  B023R1TG                         V     C        18:02:19:06 18:02:22:21 02:25:46:10 02:25:50:01 
*FROM CLIP NAME:  151-09-01 
001305  A165C001_160806_L0F7         V     C        01:09:06:18 01:09:15:10 02:25:50:01 02:25:58:17 
*FROM CLIP NAME:  151-03-01 
001306  A167C001_160806_L0F7         V     C        02:05:12:15 02:05:14:21 02:25:58:17 02:26:00:23 
*FROM CLIP NAME:  151-06-01 
001307  A166C001_160806_L0F7         V     C        01:29:17:14 01:29:18:17 02:26:00:23 02:26:02:02 
*FROM CLIP NAME:  151-04-01 
001308  A167C001_160806_L0F7         V     C        02:05:16:03 02:05:17:15 02:26:02:02 02:26:03:14 
*FROM CLIP NAME:  151-06-01 
001309  A166C002_160806_L0F7         V     C        01:33:47:04 01:33:48:07 02:26:03:14 02:26:04:17 
*FROM CLIP NAME:  151-04-02 
001310  A164C003_160806_L0F7         V     C        00:56:18:20 00:56:21:16 02:26:04:17 02:26:07:13 
*FROM CLIP NAME:  151-02-04 
001311  A166C002_160806_L0F7         V     C        01:33:51:03 01:33:56:02 02:26:07:13 02:26:12:12 
*FROM CLIP NAME:  151-04-02 
001312  A167C002_160806_L0F7         V     C        02:08:30:15 02:08:32:07 02:26:12:12 02:26:14:04 
*FROM CLIP NAME:  151-07-01 
001313  A165C001_160806_L0F7         V     C        01:09:33:03 01:09:34:12 02:26:14:04 02:26:15:13 
*FROM CLIP NAME:  151-03-01 
001314  A167C002_160806_L0F7         V     C        02:08:33:16 02:08:38:08 02:26:15:13 02:26:20:05 
*FROM CLIP NAME:  151-07-01 
001315  A167C001_160806_L0F7         V     C        02:05:34:14 02:05:42:21 02:26:20:05 02:26:28:12 
*FROM CLIP NAME:  151-06-01 
001316  B023R1TG                         V     C        18:03:04:08 18:03:09:17 02:26:28:12 02:26:33:21 
*FROM CLIP NAME:  151-09-01 
001317  A165C001_160806_L0F7         V     C        01:09:55:14 01:09:56:16 02:26:33:21 02:26:34:23 
*FROM CLIP NAME:  151-03-01 
001318  A167C004_160806_L0F7         V     C        02:12:35:07 02:12:39:04 02:26:34:23 02:26:38:20 
*FROM CLIP NAME:  151-08-02 
001319  A165C001_160806_L0F7         V     C        01:09:59:17 01:10:00:11 02:26:38:20 02:26:39:14 
*FROM CLIP NAME:  151-03-01 
001320  A167C004_160806_L0F7         V     C        02:12:39:22 02:12:40:21 02:26:39:14 02:26:40:13 
*FROM CLIP NAME:  151-08-02 
001321  A178C005_160809_L0F7         V     C        00:06:53:06 00:06:55:20 02:26:40:13 02:26:43:03 
*FROM CLIP NAME:  166_167_168-05-01 
001322  B025R1TG                         V     C        22:41:40:00 22:41:42:05 02:26:43:03 02:26:45:08 
*FROM CLIP NAME:  B025C001_160806_R1TG 
001323  B024R1TG                         V     C        22:16:12:01 22:16:15:07 02:26:45:08 02:26:48:14 
*FROM CLIP NAME:  B024C002_160806_R1TG 
001324  A170C001_160806_L0F7         V     C        21:23:06:20 21:23:09:06 02:26:48:14 02:26:51:00 
*FROM CLIP NAME:  154-02-01 
001325  A170C001_160806_L0F7         V     C        21:23:28:06 21:23:32:02 02:26:51:00 02:26:54:20 
*FROM CLIP NAME:  154-02-01 
001326  A168C003_160806_L0F7         V     C        19:36:52:15 19:36:58:21 02:26:54:20 02:27:01:02 
*FROM CLIP NAME:  155-01-03 
001327  A168C003_160806_L0F7         V     C        19:37:02:21 19:37:53:18 02:27:01:02 02:27:51:23 
*FROM CLIP NAME:  155-01-03 
001328  B018R1TG                         V     C        11:15:34:11 11:15:35:02 02:27:51:23 02:27:52:14 
*FROM CLIP NAME:  156_159-01-01 
001329  A168C002_160806_L0F7         V     C        19:32:33:13 19:32:36:05 02:27:52:14 02:27:55:06 
*FROM CLIP NAME:  155-01-02 
001330  B018R1TG                         V     C        11:21:45:06 11:21:48:15 02:27:55:06 02:27:58:15 
*FROM CLIP NAME:  156_159-01-02 
001331  A151C004_160805_L0F7         V     C        02:21:46:22 02:21:47:11 02:27:58:15 02:27:59:04 
*FROM CLIP NAME:  156_159-02-04 
001332  A152C003_160805_L0F7         V     C        02:41:49:18 02:41:50:15 02:27:59:04 02:28:00:01 
*FROM CLIP NAME:  156_159-03-03 
001333  A151C004_160805_L0F7         V     C        02:21:47:16 02:21:48:13 02:28:00:01 02:28:00:22 
*FROM CLIP NAME:  156_159-02-04 
001334  B018R1TG                         V     C        11:23:04:04 11:23:05:15 02:28:00:22 02:28:02:09 
*FROM CLIP NAME:  156_159-01-03 
001335  A151C004_160805_L0F7         V     C        02:21:50:08 02:21:52:02 02:28:02:09 02:28:04:03 
*FROM CLIP NAME:  156_159-02-04 
001336  A152C001_160805_L0F7         V     C        02:37:13:04 02:37:14:03 02:28:04:03 02:28:05:02 
*FROM CLIP NAME:  156_159-03-01 
001337  B018R1TG                         V     C        11:23:09:17 11:23:11:15 02:28:05:02 02:28:07:00 
*FROM CLIP NAME:  156_159-01-03 
001338  A152C001_160805_L0F7         V     C        02:37:16:13 02:37:19:03 02:28:07:00 02:28:09:14 
*FROM CLIP NAME:  156_159-03-01 
001339  A151C003_160805_L0F7         V     C        02:19:53:05 02:19:54:17 02:28:09:14 02:28:11:02 
*FROM CLIP NAME:  156_159-02-03 
001340  A152C001_160805_L0F7         V     C        02:37:19:19 02:37:21:05 02:28:11:02 02:28:12:12 
*FROM CLIP NAME:  156_159-03-01 
001341  A151C003_160805_L0F7         V     C        02:19:55:18 02:19:58:04 02:28:12:12 02:28:14:22 
*FROM CLIP NAME:  156_159-02-03 
001342  A151C004_160805_L0F7         V     C        02:22:02:12 02:22:03:06 02:28:14:22 02:28:15:16 
*FROM CLIP NAME:  156_159-02-04 
001343  B018R1TG                         V     C        11:23:20:06 11:23:22:01 02:28:15:16 02:28:17:11 
*FROM CLIP NAME:  156_159-01-03 
001344  A151C003_160805_L0F7         V     C        02:20:01:21 02:20:03:14 02:28:17:11 02:28:19:04 
*FROM CLIP NAME:  156_159-02-03 
001345  A152C002_160805_L0F7         V     C        02:40:07:19 02:40:09:05 02:28:19:04 02:28:20:14 
*FROM CLIP NAME:  156_159-03-02 
001346  A151C002_160805_L0F7         V     C        02:15:23:04 02:15:25:04 02:28:20:14 02:28:22:14 
*FROM CLIP NAME:  156_159-02-02 
001347  A152C003_160805_L0F7         V     C        02:42:15:05 02:42:16:08 02:28:22:14 02:28:23:17 
*FROM CLIP NAME:  156_159-03-03 
001348  B018R1TG                         V     C        11:23:29:14 11:23:30:19 02:28:23:17 02:28:24:22 
*FROM CLIP NAME:  156_159-01-03 
001349  A152C003_160805_L0F7         V     C        02:42:18:19 02:42:21:17 02:28:24:22 02:28:27:20 
*FROM CLIP NAME:  156_159-03-03 
001350  A151C001_160805_L0F7         V     C        02:12:28:19 02:12:29:23 02:28:27:20 02:28:29:00 
*FROM CLIP NAME:  156_159-02-01 
001351  A151C004_160805_L0F7         V     C        02:22:20:10 02:22:21:11 02:28:29:00 02:28:30:01 
*FROM CLIP NAME:  156_159-02-04 
001352  A194C002_160810_L0F7         V     C        20:50:19:20 20:50:25:07 02:28:30:01 02:28:35:12 
*FROM CLIP NAME:  165-02-02 
001353  A194C002_160810_L0F7         V     C        20:50:10:12 20:50:10:23 02:28:35:12 02:28:35:23 
*FROM CLIP NAME:  165-02-02 
001354  A194C002_160810_L0F7         V     C        20:50:26:04 20:50:31:11 02:28:35:23 02:28:41:06 
*FROM CLIP NAME:  165-02-02 
001355  A194C002_160810_L0F7         V     C        20:50:43:08 20:50:50:08 02:28:41:06 02:28:48:06 
*FROM CLIP NAME:  165-02-02 
001356  A155C003_160805_L0F7         V     C        04:24:06:22 04:24:09:02 02:28:48:06 02:28:50:10 
*FROM CLIP NAME:  156_159-11-02 
001357  A156C001_160805_L0F7         V     C        04:48:32:17 04:48:35:08 02:28:50:10 02:28:53:01 
*FROM CLIP NAME:  156_159-13-01 
001358  A155C003_160805_L0F7         V     C        04:24:10:15 04:24:11:13 02:28:53:01 02:28:53:23 
*FROM CLIP NAME:  156_159-11-02 
001359  A153C003_160805_L0F7         V     C        03:28:58:02 03:29:00:15 02:28:53:23 02:28:56:12 
*FROM CLIP NAME:  156_159-08-01 
001360  A154C003_160805_L0F7         V     C        03:55:37:00 03:55:38:14 02:28:56:12 02:28:58:02 
*FROM CLIP NAME:  156_159-09-01 
001361  A156C002_160805_L0F7         V     C        04:57:29:22 04:57:31:04 02:28:58:02 02:28:59:08 
*FROM CLIP NAME:  156_159-14-01 
001362  A154C003_160805_L0F7         V     C        03:55:40:11 03:55:42:05 02:28:59:08 02:29:01:02 
*FROM CLIP NAME:  156_159-09-01 
001363  A153C003_160805_L0F7         V     C        03:29:05:05 03:29:08:03 02:29:01:02 02:29:04:00 
*FROM CLIP NAME:  156_159-08-01 
001364  A154C003_160805_L0F7         V     C        03:56:01:03 03:56:02:18 02:29:04:00 02:29:05:15 
*FROM CLIP NAME:  156_159-09-01 
001365  A153C003_160805_L0F7         V     C        03:29:11:05 03:29:13:19 02:29:05:15 02:29:08:05 
*FROM CLIP NAME:  156_159-08-01 
001366  A154C003_160805_L0F7         V     C        03:56:05:00 03:56:06:20 02:29:08:05 02:29:10:01 
*FROM CLIP NAME:  156_159-09-01 
001367  A153C001_160805_L0F7         V     C        03:14:44:06 03:14:50:09 02:29:10:01 02:29:16:04 
*FROM CLIP NAME:  156_159-06-03 
001368  A155C003_160805_L0F7         V     C        04:24:11:16 04:24:13:03 02:29:16:04 02:29:17:15 
*FROM CLIP NAME:  156_159-11-02 
001369  A155C004_160805_L0F7         V     C        04:39:01:01 04:39:02:03 02:29:17:15 02:29:18:17 
*FROM CLIP NAME:  156_159-12-01 
001370  A155C001_160805_L0F7         V     C        04:13:00:14 04:13:06:09 02:29:18:17 02:29:24:12 
*FROM CLIP NAME:  156_159-10-02 
001371  A153C003_160805_L0F7         V     C        03:29:29:10 03:29:31:01 02:29:24:12 02:29:26:03 
*FROM CLIP NAME:  156_159-08-01 
001372  A155C001_160805_L0F7         V     C        04:13:08:00 04:13:11:05 02:29:26:03 02:29:29:08 
*FROM CLIP NAME:  156_159-10-02 
001373  A155C003_160805_L0F7         V     C        04:24:55:00 04:24:55:15 02:29:29:08 02:29:29:23 
*FROM CLIP NAME:  156_159-11-02 
001374  A153C003_160805_L0F7         V     C        03:29:32:19 03:29:33:23 02:29:29:23 02:29:31:03 
*FROM CLIP NAME:  156_159-08-01 
001375  A156C002_160805_L0F7         V     C        04:57:52:22 04:57:54:00 02:29:31:03 02:29:32:05 
*FROM CLIP NAME:  156_159-14-01 
001376  A156C001_160805_L0F7         V     C        04:49:05:19 04:49:06:21 02:29:32:05 02:29:33:07 
*FROM CLIP NAME:  156_159-13-01 
001377  A153C003_160805_L0F7         V     C        03:29:36:03 03:29:38:00 02:29:33:07 02:29:35:04 
*FROM CLIP NAME:  156_159-08-01 
001378  A157C001_160805_L0F7         V     C        05:17:12:12 05:17:13:12 02:29:35:04 02:29:36:04 
*FROM CLIP NAME:  156_159-15-01 
001379  A155C001_160805_L0F7         V     C        04:13:16:00 04:13:17:01 02:29:36:04 02:29:37:05 
*FROM CLIP NAME:  156_159-10-02 
001380  A153C003_160805_L0F7         V     C        03:29:49:01 03:29:52:13 02:29:37:05 02:29:40:17 
*FROM CLIP NAME:  156_159-08-01 
001381  A155C001_160805_L0F7         V     C        04:13:27:07 04:13:30:18 02:29:40:17 02:29:44:04 
*FROM CLIP NAME:  156_159-10-02 
001382  A153C003_160805_L0F7         V     C        03:29:57:21 03:30:03:19 02:29:44:04 02:29:50:02 
*FROM CLIP NAME:  156_159-08-01 
001383  A154C003_160805_L0F7         V     C        03:56:55:13 03:56:57:11 02:29:50:02 02:29:52:00 
*FROM CLIP NAME:  156_159-09-01 
001384  A156C001_160805_L0F7         V     C        04:49:38:02 04:49:42:00 02:29:52:00 02:29:55:22 
*FROM CLIP NAME:  156_159-13-01 
001385  A154C003_160805_L0F7         V     C        03:57:01:19 03:57:04:13 02:29:55:22 02:29:58:16 
*FROM CLIP NAME:  156_159-09-01 
001386  A154C001_160805_L0F7         V     C        03:39:37:05 03:39:38:23 02:29:58:16 02:30:00:10 
*FROM CLIP NAME:  156_159-08-02 
001387  A154C003_160805_L0F7         V     C        03:57:06:17 03:57:11:07 02:30:00:10 02:30:05:00 
*FROM CLIP NAME:  156_159-09-01 
001388  A153C002_160805_L0F7         V     C        03:18:32:17 03:18:37:00 02:30:05:00 02:30:09:07 
*FROM CLIP NAME:  156_159-07-01 
001389  A154C003_160805_L0F7         V     C        03:57:15:17 03:57:17:19 02:30:09:07 02:30:11:09 
*FROM CLIP NAME:  156_159-09-01 
001390  A153C002_160805_L0F7         V     C        03:18:39:02 03:18:44:02 02:30:11:09 02:30:16:09 
*FROM CLIP NAME:  156_159-07-01 
001391  A156C001_160805_L0F7         V     C        04:50:52:12 04:50:57:12 02:30:16:09 02:30:21:09 
*FROM CLIP NAME:  156_159-13-01 
001392  A153C002_160805_L0F7         V     C        03:18:49:02 03:18:50:09 02:30:21:09 02:30:22:16 
*FROM CLIP NAME:  156_159-07-01 
001393  A154C002_160805_L0F7         V     C        03:42:34:20 03:42:40:03 02:30:22:16 02:30:27:23 
*FROM CLIP NAME:  156_159-08-03 
001394  A154C003_160805_L0F7         V     C        03:57:35:04 03:57:36:06 02:30:27:23 02:30:29:01 
*FROM CLIP NAME:  156_159-09-01 
001395  A154C002_160805_L0F7         V     C        03:42:42:02 03:42:43:06 02:30:29:01 02:30:30:05 
*FROM CLIP NAME:  156_159-08-03 
001396  A155C001_160805_L0F7         V     C        04:14:20:20 04:14:23:04 02:30:30:05 02:30:32:13 
*FROM CLIP NAME:  156_159-10-02 
001397  A154C002_160805_L0F7         V     C        03:42:49:08 03:42:50:00 02:30:32:13 02:30:33:05 
*FROM CLIP NAME:  156_159-08-03 
001398  B023R1TG                         V     C        21:13:24:02 21:13:49:05 02:30:33:05 02:30:58:08 
*FROM CLIP NAME:  B023C004_160806_R1TG 
001399  A158C001_160805_L0F7         V     C        17:02:57:11 17:02:59:01 02:30:58:08 02:30:59:22 
*FROM CLIP NAME:  161-01-01 
001400  A158C010_160805_L0F7         V     C        17:38:29:02 17:38:31:03 02:30:59:22 02:31:01:23 
*FROM CLIP NAME:  161-03-02 
001401  A158C010_160805_L0F7         V     C        17:38:31:03 17:38:34:14 02:31:01:23 02:31:05:10 
*FROM CLIP NAME:  161-03-02 
001402  A158C006_160805_L0F7         V     C        17:14:18:03 17:14:18:13 02:31:05:10 02:31:05:20 
*FROM CLIP NAME:  161-01-05 
001403  A158C008_160805_L0F7         V     C        17:33:33:16 17:33:34:14 02:31:05:20 02:31:06:18 
*FROM CLIP NAME:  161-02-02 
001404  A158C010_160805_L0F7         V     C        17:38:36:20 17:38:39:11 02:31:06:18 02:31:09:09 
*FROM CLIP NAME:  161-03-02 
001405  A158C002_160805_L0F7         V     C        17:07:10:14 17:07:13:21 02:31:09:09 02:31:12:16 
*FROM CLIP NAME:  161-01-02 
001406  A158C012_160805_L0F7         V     C        17:42:06:16 17:42:07:18 02:31:12:16 02:31:13:18 
*FROM CLIP NAME:  161-04-02 
001407  A158C006_160805_L0F7         V     C        17:14:24:09 17:14:25:22 02:31:13:18 02:31:15:07 
*FROM CLIP NAME:  161-01-05 
001408  A158C007_160805_L0F7         V     C        17:29:35:12 17:29:36:01 02:31:15:07 02:31:15:20 
*FROM CLIP NAME:  161-02-01 
001409  A159C001_160805_L0F7         V     C        18:06:23:19 18:06:25:03 02:31:15:20 02:31:17:04 
*FROM CLIP NAME:  161-05-01 
001410  A158C006_160805_L0F7         V     C        17:14:28:18 17:14:29:03 02:31:17:04 02:31:17:13 
*FROM CLIP NAME:  161-01-05 
001411  A159C001_160805_L0F7         V     C        18:06:25:20 18:06:26:12 02:31:17:13 02:31:18:05 
*FROM CLIP NAME:  161-05-01 
001412  A158C006_160805_L0F7         V     C        17:14:30:11 17:14:31:04 02:31:18:05 02:31:18:22 
*FROM CLIP NAME:  161-01-05 
001413  A159C001_160805_L0F7         V     C        18:06:28:01 18:06:31:22 02:31:18:22 02:31:22:19 
*FROM CLIP NAME:  161-05-01 
001414  A158C006_160805_L0F7         V     C        17:14:35:12 17:14:36:18 02:31:22:19 02:31:24:01 
*FROM CLIP NAME:  161-01-05 
001415  A159C002_160805_L0F7         V     C        20:09:44:00 20:09:44:12 02:31:33:08 02:31:33:20 
*FROM CLIP NAME:  161-06-01 
001416  B019R1TG                         V     C        20:58:41:18 20:58:43:14 02:31:33:20 02:31:35:16 
*FROM CLIP NAME:  162_163-03-01 
001417  B019R1TG                         V     C        20:58:55:06 20:58:57:00 02:31:35:16 02:31:37:10 
*FROM CLIP NAME:  162_163-03-01 
001418  B019R1TG                         V     C        20:58:44:15 20:58:48:04 02:31:37:10 02:31:40:23 
*FROM CLIP NAME:  162_163-03-01 
001419  B019R1TG                         V     C        20:58:39:20 20:58:41:01 02:31:40:23 02:31:42:04 
*FROM CLIP NAME:  162_163-03-01 
001420  B019R1TG                         V     C        20:58:50:01 20:59:00:02 02:31:42:04 02:31:52:05 
*FROM CLIP NAME:  162_163-03-01 
001421  B019R1TG                         V     C        21:04:07:18 21:04:07:23 02:31:52:05 02:31:52:10 
*FROM CLIP NAME:  162_163-04-01 
001422  B019R1TG                         V     C        20:49:40:17 20:49:42:01 02:31:52:10 02:31:53:18 
*FROM CLIP NAME:  162_163-02-01 
001423  B019R1TG                         V     C        20:59:00:11 20:59:01:16 02:31:53:18 02:31:54:23 
*FROM CLIP NAME:  162_163-03-01 
001424  B019R1TG                         V     C        20:49:42:07 20:49:47:16 02:31:54:23 02:32:00:08 
*FROM CLIP NAME:  162_163-02-01 
001425  B020R1TG                         V     C        21:21:32:11 21:21:40:15 02:32:00:08 02:32:08:12 
*FROM CLIP NAME:  162_163-07-01B  
001426  B029C007_160809_R59N         V     C        04:34:59:17 04:35:00:21 02:32:08:12 02:32:09:16 
*FROM CLIP NAME:  166_167_168-08-06B 
001427  B027R59N                         V     C        20:26:20:03 20:26:21:05 02:32:09:16 02:32:10:18 
*FROM CLIP NAME:  166_167_168-01-05B 
001428  A171C004_160808_L0F7         V     C        20:19:37:09 20:19:41:20 02:32:10:18 02:32:15:05 
*FROM CLIP NAME:  166_167_168-01-03A 
001429  B027R59N                         V     C        20:26:22:06 20:26:23:02 02:32:15:05 02:32:16:01 
*FROM CLIP NAME:  166_167_168-01-05B 
001430  A179C001_160809_L0F7         V     C        00:20:27:15 00:20:28:17 02:32:16:01 02:32:17:03 
*FROM CLIP NAME:  166_167_168-05-03 
001431  B029R59N                         V     C        04:19:27:09 04:19:28:14 02:32:17:03 02:32:18:08 
*FROM CLIP NAME:  166_167_168-08-03B 
001432  A179C002_160809_L0F7         V     C        00:23:19:21 00:23:21:15 02:32:18:08 02:32:20:02 
*FROM CLIP NAME:  166_167_168-05-04 
001433  A193C004_160810_L0F7         V     C        20:28:37:20 20:28:38:23 02:32:20:02 02:32:21:05 
*FROM CLIP NAME:  165-01-04 
001434  A193C003_160810_L0F7         V     C        20:23:12:20 20:23:15:13 02:32:21:05 02:32:23:22 
*FROM CLIP NAME:  165-01-03 
001435  A193C006_160810_L0F7         V     C        20:34:18:23 20:34:24:21 02:32:23:22 02:32:29:20 
*FROM CLIP NAME:  165-01-06 
001436  B027R59N                         V     C        20:33:13:07 20:33:15:09 02:32:29:20 02:32:31:22 
*FROM CLIP NAME:  166_167_168-02-03 
001437  B027R59N                         V     C        20:16:34:12 20:16:35:06 02:32:31:22 02:32:32:16 
*FROM CLIP NAME:  166_167_168-01-02B 
001438  A180C002_160809_L0F7         V     C        00:35:38:21 00:35:40:00 02:32:32:16 02:32:33:19 
*FROM CLIP NAME:  166_167_168-06-03 
001439  B027R59N                         V     C        20:16:36:09 20:16:38:00 02:32:33:19 02:32:35:10 
*FROM CLIP NAME:  166_167_168-01-02B 
001440  A171C003_160808_L0F7         V     C        20:16:38:00 20:16:39:04 02:32:35:10 02:32:36:14 
*FROM CLIP NAME:  166_167_168-01-02A 
001441  B027R59N                         V     C        20:16:39:04 20:16:39:18 02:32:36:14 02:32:37:04 
*FROM CLIP NAME:  166_167_168-01-02B 
001442  A172C006_160808_L0F7         V     C        20:56:41:21 20:56:43:10 02:32:37:04 02:32:38:17 
*FROM CLIP NAME:  166_167_168-03-02 
001443  B027R59N                         V     C        20:16:41:07 20:16:43:19 02:32:38:17 02:32:41:05 
*FROM CLIP NAME:  166_167_168-01-02B 
001444  A171C003_160808_L0F7         V     C        20:16:44:23 20:16:46:00 02:32:41:05 02:32:42:06 
*FROM CLIP NAME:  166_167_168-01-02A 
001445  B027R59N                         V     C        20:16:46:04 20:16:47:23 02:32:42:06 02:32:44:01 
*FROM CLIP NAME:  166_167_168-01-02B 
001446  A172C006_160808_L0F7         V     C        20:56:48:07 20:56:51:00 02:32:44:01 02:32:46:18 
*FROM CLIP NAME:  166_167_168-03-02 
001447  A171C004_160808_L0F7         V     C        20:19:59:17 20:20:03:08 02:32:46:18 02:32:50:09 
*FROM CLIP NAME:  166_167_168-01-03A 
001448  B027R59N                         V     C        20:16:52:07 20:16:53:05 02:32:50:09 02:32:51:07 
*FROM CLIP NAME:  166_167_168-01-02B 
001449  A172C006_160808_L0F7         V     C        20:56:53:14 20:56:54:14 02:32:51:07 02:32:52:07 
*FROM CLIP NAME:  166_167_168-03-02 
001450  A171C004_160808_L0F7         V     C        20:20:07:08 20:20:10:16 02:32:52:07 02:32:55:15 
*FROM CLIP NAME:  166_167_168-01-03A 
001451  A172C006_160808_L0F7         V     C        20:57:03:14 20:57:05:02 02:32:55:15 02:32:57:03 
*FROM CLIP NAME:  166_167_168-03-02 
001452  B027R59N                         V     C        20:17:05:21 20:17:08:17 02:32:57:03 02:32:59:23 
*FROM CLIP NAME:  166_167_168-01-02B 
001453  A171C003_160808_L0F7         V     C        20:17:08:17 20:17:11:01 02:32:59:23 02:33:02:07 
*FROM CLIP NAME:  166_167_168-01-02A 
001454  C001C001_160808_R0V3         V     C        20:50:27:21 20:50:29:07 02:33:02:07 02:33:03:17 
*FROM CLIP NAME:  166_167_168-08-01C 
001455  A171C003_160808_L0F7         V     C        20:17:12:02 20:17:13:05 02:33:03:17 02:33:04:20 
*FROM CLIP NAME:  166_167_168-01-02A 
001456  A172C005_160808_L0F7         V     C        20:50:58:04 20:50:59:08 02:33:04:20 02:33:06:00 
*FROM CLIP NAME:  166_167_168-03-01 
001457  B032R59N                         V     C        20:42:33:07 20:42:34:20 02:33:06:00 02:33:07:13 
*FROM CLIP NAME:  166_167_168-12-01 
001458  B027R59N                         V     C        21:16:53:18 21:16:54:15 02:33:07:13 02:33:08:10 
*FROM CLIP NAME:  166_167_168-07-04 
001459  B027R59N                         V     C        20:27:15:06 20:27:16:01 02:33:08:10 02:33:09:05 
*FROM CLIP NAME:  166_167_168-01-05B 
001460  C001C001_160808_R0V3         V     C        20:50:40:03 20:50:41:09 02:33:09:05 02:33:10:11 
*FROM CLIP NAME:  166_167_168-08-01C 
001461  B027R59N                         V     C        20:27:17:09 20:27:18:02 02:33:10:11 02:33:11:04 
*FROM CLIP NAME:  166_167_168-01-05B 
001462  A171C005_160808_L0F7         V     C        20:27:17:19 20:27:20:12 02:33:11:04 02:33:13:21 
*FROM CLIP NAME:  166_167_168-01-04A 
001463  B027R59N                         V     C        20:17:22:07 20:17:23:00 02:33:13:21 02:33:14:14 
*FROM CLIP NAME:  166_167_168-01-02B 
001464  B027R59N                         V     C        20:17:23:00 20:17:23:13 02:33:14:14 02:33:15:03 
*FROM CLIP NAME:  166_167_168-01-02B 
001465  B032R59N                         V     C        20:15:02:00 20:15:02:21 02:33:15:09 02:33:16:06 
*FROM CLIP NAME:  166_167_168-10-01 
001466  B032R59N                         V     C        20:38:54:07 20:38:54:12 02:33:16:06 02:33:16:11 
*FROM CLIP NAME:  166_167_168-11-02 
001467  B032R59N                         V     C        20:42:39:19 20:42:40:07 02:33:17:06 02:33:17:18 
*FROM CLIP NAME:  166_167_168-12-01 
001468  B032R59N                         V     C        20:08:36:18 20:08:37:13 02:33:17:18 02:33:18:13 
*FROM CLIP NAME:  166_167_168-09-04 
001469  B032R59N                         V     C        20:42:45:23 20:42:47:09 02:33:18:13 02:33:19:23 
*FROM CLIP NAME:  166_167_168-12-01 
001470  B032R59N                         V     C        20:04:39:20 20:04:41:00 02:33:19:23 02:33:21:03 
*FROM CLIP NAME:  166_167_168-09-02 
001471  B032R59N                         V     C        20:55:21:18 20:55:31:05 02:33:21:03 02:33:30:14 
*FROM CLIP NAME:  166_167_168-12-03 
001472  C005C002_160810_R0V3         V     C        20:31:28:21 20:31:33:15 02:33:30:14 02:33:35:08 
*FROM CLIP NAME:  166_167_168-13-01 
001473  A172C002_160808_L0F7         V     C        20:33:07:01 20:33:09:10 02:33:35:08 02:33:37:17 
*FROM CLIP NAME:  166_167_168-02-01 
001474  A172C002_160808_L0F7         V     C        20:33:28:12 20:33:30:15 02:33:37:17 02:33:39:20 
*FROM CLIP NAME:  166_167_168-02-01 
001475  BL                               V     C        00:00:00:00 00:00:00:00 02:33:46:08 02:33:46:08 
001475  B032R59N                         V     D    040 04:22:33:02 04:22:34:18 02:33:46:08 02:33:48:00 
*BLEND, DISSOLVE 
*TO CLIP NAME:  169-01-06 
001476  B032R59N                         V     C        04:22:34:18 04:23:55:17 02:33:48:00 02:35:08:23 
*FROM CLIP NAME:  169-01-06 
001477  A170C006_160806_L0F7         V     C        00:54:39:01 00:55:03:12 02:35:08:23 02:35:33:10 
*FROM CLIP NAME:  170-01-04 
001478  A170C006_160806_L0F7         V     C        00:55:03:12 00:55:06:17 02:35:33:10 02:35:36:15 
*FROM CLIP NAME:  170-01-04 
001479  A127L0F7                         V     C        10:40:09:08 10:40:20:09 02:35:36:15 02:35:47:16 
*FROM CLIP NAME:  171_173_175-04-01 
001480  A130L0F7                         V     C        12:06:17:03 12:06:19:11 02:35:47:16 02:35:50:00 
*FROM CLIP NAME:  171_173_175-07-02 
001481  A127L0F7                         V     C        10:40:25:14 10:40:27:21 02:35:50:00 02:35:52:07 
*FROM CLIP NAME:  171_173_175-04-01 
001482  A030R0F7                         V     C        01:19:45:17 01:19:54:01 02:35:52:07 02:36:00:15 
*FROM CLIP NAME:  172-01-03 
001483  A030R0F7                         V     C        01:19:53:18 01:19:55:10 02:36:00:15 02:36:02:07 
*FROM CLIP NAME:  172-01-03 
001484  A126L0F7                         V     C        10:22:02:00 10:22:02:23 02:36:02:07 02:36:03:06 
*FROM CLIP NAME:  171_173_175-02-02 
001485  A129L0F7                         V     C        11:41:54:10 11:41:56:02 02:36:03:06 02:36:04:22 
*FROM CLIP NAME:  171_173_175-06-02 
001486  A126L0F7                         V     C        10:22:04:15 10:22:08:01 02:36:04:22 02:36:08:08 
*FROM CLIP NAME:  171_173_175-02-02 
001487  A129L0F7                         V     C        11:30:57:04 11:31:01:13 02:36:08:08 02:36:12:17 
*FROM CLIP NAME:  171_173_175-06-01 
001488  A126L0F7                         V     C        10:22:14:03 10:22:15:03 02:36:12:17 02:36:13:17 
*FROM CLIP NAME:  171_173_175-02-02 
001489  A129L0F7                         V     C        11:31:05:14 11:31:06:17 02:36:13:17 02:36:14:20 
*FROM CLIP NAME:  171_173_175-06-01 
001490  A126L0F7                         V     C        10:22:16:06 10:22:18:23 02:36:14:20 02:36:17:13 
*FROM CLIP NAME:  171_173_175-02-02 
001491  A129L0F7                         V     C        11:31:10:19 11:31:12:23 02:36:17:13 02:36:19:17 
*FROM CLIP NAME:  171_173_175-06-01 
001492  A126L0F7                         V     C        10:13:45:17 10:13:48:01 02:36:19:17 02:36:22:01 
*FROM CLIP NAME:  171_173_175-02-01 
001493  A129L0F7                         V     C        11:31:15:19 11:31:16:21 02:36:22:01 02:36:23:03 
*FROM CLIP NAME:  171_173_175-06-01 
001494  A126L0F7                         V     C        10:13:49:06 10:13:50:04 02:36:23:03 02:36:24:01 
*FROM CLIP NAME:  171_173_175-02-01 
001495  A128L0F7                         V     C        11:13:05:18 11:13:13:09 02:36:24:01 02:36:31:16 
*FROM CLIP NAME:  171_173_175-05-01 
001496  A125L0F7                         V     C        09:58:10:01 09:58:12:03 02:36:31:16 02:36:33:18 
*FROM CLIP NAME:  171_173_175-01-03 
001497  A128L0F7                         V     C        11:21:43:19 11:21:45:01 02:36:33:18 02:36:35:00 
*FROM CLIP NAME:  171_173_175-05-02 
001498  A132L0F7                         V     C        12:29:58:13 12:30:00:17 02:36:35:00 02:36:37:04 
*FROM CLIP NAME:  171_173_175-08-02 
001499  A128L0F7                         V     C        11:21:46:21 11:21:47:16 02:36:37:04 02:36:37:23 
*FROM CLIP NAME:  171_173_175-05-02 
001500  A124L0F7                         V     C        09:51:30:02 09:51:32:01 02:36:37:23 02:36:39:22 
*FROM CLIP NAME:  171_173_175-01-02 
001501  A009R0F7                         V     C        20:19:55:16 20:20:03:03 02:36:39:22 02:36:47:09 
*FROM CLIP NAME:  93_95_97_99_101-04-01 
001502  A006R0F7                         V     C        18:33:38:22 18:33:48:22 02:36:47:09 02:36:57:09 
*FROM CLIP NAME:  93_95_97_99_101-02-01 
001503  DIVA                             V     C        18:48:54:18 18:49:35:11 02:36:57:09 02:37:38:02 
*FROM CLIP NAME:  A019C002_160717_R0F7 
001504  A131L0F7                         V     C        12:12:47:08 12:12:48:09 02:37:38:02 02:37:39:03 
*FROM CLIP NAME:  171_173_175-07-03 
001505  A125L0F7                         V     C        09:58:25:15 09:58:26:23 02:37:39:03 02:37:40:11 
*FROM CLIP NAME:  171_173_175-01-03 
001506  A129L0F7                         V     C        11:42:56:05 11:42:57:22 02:37:40:11 02:37:42:04 
*FROM CLIP NAME:  171_173_175-06-02 
001507  A129L0F7                         V     C        11:42:57:22 11:42:59:08 02:37:42:04 02:37:43:14 
*FROM CLIP NAME:  171_173_175-06-02 
001508  A125L0F7                         V     C        10:04:26:22 10:04:28:01 02:37:43:14 02:37:44:17 
*FROM CLIP NAME:  171_173_175-01-04 
001509  A129L0F7                         V     C        11:43:02:07 11:43:05:17 02:37:44:17 02:37:48:03 
*FROM CLIP NAME:  171_173_175-06-02 
001510  A125L0F7                         V     C        10:04:32:06 10:04:34:08 02:37:48:03 02:37:50:05 
*FROM CLIP NAME:  171_173_175-01-04 
001511  A129L0F7                         V     C        11:43:08:21 11:43:13:05 02:37:50:05 02:37:54:13 
*FROM CLIP NAME:  171_173_175-06-02 
001512  A126L0F7                         V     C        10:23:20:11 10:23:22:15 02:37:54:13 02:37:56:17 
*FROM CLIP NAME:  171_173_175-02-02 
001513  A128L0F7                         V     C        11:22:23:05 11:22:26:21 02:37:56:17 02:38:00:09 
*FROM CLIP NAME:  171_173_175-05-02 
001514  A126L0F7                         V     C        10:14:47:10 10:14:49:00 02:38:00:09 02:38:01:23 
*FROM CLIP NAME:  171_173_175-02-01 
001515  A128L0F7                         V     C        11:22:28:11 11:22:30:08 02:38:01:23 02:38:03:20 
*FROM CLIP NAME:  171_173_175-05-02 
001516  A126L0F7                         V     C        10:14:50:21 10:14:52:03 02:38:03:20 02:38:05:02 
*FROM CLIP NAME:  171_173_175-02-01 
001517  A128L0F7                         V     C        11:22:31:14 11:22:38:19 02:38:05:02 02:38:12:07 
*FROM CLIP NAME:  171_173_175-05-02 
001518  A126L0F7                         V     C        10:14:57:08 10:14:58:15 02:38:12:07 02:38:13:14 
*FROM CLIP NAME:  171_173_175-02-01 
001519  A129L0F7                         V     C        11:32:39:07 11:32:40:04 02:38:13:14 02:38:14:11 
*FROM CLIP NAME:  171_173_175-06-01 
001520  A126L0F7                         V     C        10:15:01:00 10:15:05:02 02:38:14:11 02:38:18:13 
*FROM CLIP NAME:  171_173_175-02-01 
001521  A129L0F7                         V     C        11:32:45:19 11:32:48:04 02:38:18:13 02:38:20:22 
*FROM CLIP NAME:  171_173_175-06-01 
001522  A126L0F7                         V     C        10:15:07:13 10:15:09:16 02:38:20:22 02:38:23:01 
*FROM CLIP NAME:  171_173_175-02-01 
001523  A129L0F7                         V     C        11:43:49:00 11:43:52:01 02:38:23:01 02:38:26:02 
*FROM CLIP NAME:  171_173_175-06-02 
001524  A126L0F7                         V     C        10:15:13:02 10:15:15:22 02:38:26:02 02:38:28:22 
*FROM CLIP NAME:  171_173_175-02-01 
001525  A133L0F7                         V     C        12:49:31:20 12:49:42:15 02:38:28:22 02:38:39:17 
*FROM CLIP NAME:  171_173_175-09-01 
001526  A132L0F7                         V     C        12:27:38:22 12:27:42:07 02:38:39:17 02:38:43:02 
*FROM CLIP NAME:  171_173_175-08-01 
001527  A127L0F7                         V     C        10:42:40:15 10:42:43:07 02:38:43:02 02:38:45:18 
*FROM CLIP NAME:  171_173_175-04-01 
001528  A229L0F7                         V     C        20:56:10:20 20:56:15:04 02:38:45:18 02:38:50:02 
*FROM CLIP NAME:  A229C007_160815_L0F7 
001529  A229L0F7                         V     C        20:36:34:19 20:36:35:09 02:38:50:02 02:38:50:16 
*FROM CLIP NAME:  176-25-03 
001530  A229L0F7                         V     C        20:36:26:05 20:36:26:15 02:38:50:16 02:38:51:02 
*FROM CLIP NAME:  176-25-03 
001531  A229L0F7                         V     C        20:36:38:02 20:36:39:07 02:38:51:02 02:38:52:07 
*FROM CLIP NAME:  176-25-03 
001532  A229L0F7                         V     C        20:36:30:03 20:36:30:14 02:38:52:07 02:38:52:18 
*FROM CLIP NAME:  176-25-03 
001533  A225L0F7                         V     C        16:07:31:16 16:07:35:14 02:38:52:18 02:38:56:16 
*FROM CLIP NAME:  176-12-02 
001534  A222L0F7                         V     C        13:57:53:00 13:57:53:03 02:38:56:16 02:38:56:19 
*FROM CLIP NAME:  176-01-03 
001535  A222L0F7                         V     C        13:57:46:06 13:57:46:12 02:38:56:19 02:38:57:01 
*FROM CLIP NAME:  176-01-03 
001536  A222L0F7                         V     C        13:57:53:12 13:57:53:19 02:38:57:01 02:38:57:08 
*FROM CLIP NAME:  176-01-03 
001537  A222L0F7                         V     C        13:57:46:17 13:57:46:21 02:38:57:08 02:38:57:12 
*FROM CLIP NAME:  176-01-03 
001538  A222L0F7                         V     C        13:57:54:01 13:57:54:08 02:38:57:12 02:38:57:19 
*FROM CLIP NAME:  176-01-03 
001539  A222L0F7                         V     C        13:57:47:01 13:57:47:04 02:38:57:19 02:38:57:22 
*FROM CLIP NAME:  176-01-03 
001540  A222L0F7                         V     C        13:57:54:13 13:57:55:05 02:38:57:22 02:38:58:14 
*FROM CLIP NAME:  176-01-03 
001541  A223L0F7                         V     C        14:16:38:01 14:16:38:09 02:38:58:14 02:38:58:22 
*FROM CLIP NAME:  176-03-01 
001542  A223L0F7                         V     C        14:16:44:11 14:16:45:04 02:38:58:22 02:38:59:15 
*FROM CLIP NAME:  176-03-01 
001543  A223L0F7                         V     C        14:16:45:17 14:16:46:07 02:38:59:15 02:39:00:05 
*FROM CLIP NAME:  176-03-01 
001544  A223L0F7                         V     C        14:16:42:11 14:16:42:15 02:39:00:05 02:39:00:09 
*FROM CLIP NAME:  176-03-01 
001545  A223L0F7                         V     C        14:16:46:12 14:16:46:20 02:39:00:09 02:39:00:17 
*FROM CLIP NAME:  176-03-01 
001546  A223L0F7                         V     C        14:16:42:21 14:16:43:04 02:39:00:17 02:39:01:00 
*FROM CLIP NAME:  176-03-01 
001547  A223L0F7                         V     C        14:16:47:05 14:16:48:05 02:39:01:00 02:39:02:00 
*FROM CLIP NAME:  176-03-01 
001548  A223L0F7                         V     C        14:12:47:14 14:12:48:06 02:39:02:00 02:39:02:16 
*FROM CLIP NAME:  176-02-03 
001549  A222L0F7                         V     C        13:51:19:01 13:51:19:05 02:39:02:16 02:39:02:20 
*FROM CLIP NAME:  176-01-01 
001550  A222L0F7                         V     C        13:51:19:07 13:51:20:09 02:39:02:20 02:39:03:22 
*FROM CLIP NAME:  176-01-01 
001551  A224L0F7                         V     C        15:25:32:10 15:25:32:22 02:39:03:22 02:39:04:10 
*FROM CLIP NAME:  176-10-01 
001552  A224L0F7                         V     C        15:30:48:02 15:30:49:04 02:39:04:10 02:39:05:12 
*FROM CLIP NAME:  176-10-02 
001553  A225L0F7                         V     C        15:54:45:22 15:54:46:04 02:39:05:12 02:39:05:18 
*FROM CLIP NAME:  176-11-03 
001554  A225L0F7                         V     C        15:54:46:04 15:54:46:07 02:39:05:18 02:39:05:21 
*FROM CLIP NAME:  176-11-03 
001555  A225L0F7                         V     C        15:54:46:07 15:54:47:08 02:39:05:21 02:39:06:22 
*FROM CLIP NAME:  176-11-03 
001556  A225L0F7                         V     C        15:54:47:08 15:54:47:14 02:39:06:22 02:39:07:04 
*FROM CLIP NAME:  176-11-03 
001557  A225L0F7                         V     C        15:54:47:14 15:54:51:14 02:39:07:04 02:39:11:04 
*FROM CLIP NAME:  176-11-03 
001558  A227L0F7                         V     C        18:38:37:08 18:38:37:16 02:39:11:04 02:39:11:12 
*FROM CLIP NAME:  176-16-02 
001559  A225L0F7                         V     C        15:52:50:22 15:52:51:22 02:39:11:12 02:39:12:12 
*FROM CLIP NAME:  176-11-02 
001560  A228L0F7                         V     C        16:28:57:19 16:28:59:21 02:39:12:12 02:39:14:14 
*FROM CLIP NAME:  176-21-01 
001561  A228L0F7                         V     C        16:29:14:12 16:29:19:03 02:39:14:14 02:39:19:05 
*FROM CLIP NAME:  176-21-01 
001562  A227L0F7                         V     C        18:43:29:05 18:43:30:04 02:39:19:05 02:39:20:04 
*FROM CLIP NAME:  176-18-01 
001563  A227L0F7                         V     C        18:43:44:01 18:43:47:20 02:39:20:04 02:39:23:23 
*FROM CLIP NAME:  176-18-01 
001564  A228L0F7                         V     C        16:28:23:21 16:28:25:02 02:39:23:23 02:39:25:04 
*FROM CLIP NAME:  176-20-01 
001565  A228L0F7                         V     C        16:28:25:02 16:28:25:02 02:39:25:04 02:39:25:04 
001565  BL                               V     D    010 00:00:00:00 00:00:00:10 02:39:25:04 02:39:25:14 
*BLEND, DISSOLVE 
*FROM CLIP NAME:  176-20-01 
