TITLE:   GOLDRING_PREDMASTER_TO_SOUND_EDL_20191204 
FCM: NON-DROP FRAME
000001  BL                               V     C        00:00:00:00 00:00:01:10 01:00:00:00 01:00:01:10 
*SOURCE FILE: (NULL)
000002  MASTER_11_10.SUB.01_PART_1_.MOV  A     C        01:00:00:00 01:00:01:10 01:00:00:00 01:00:01:10 
*FROM CLIP NAME:  MASTER_11_10.SUB.01_PART_1_.MOV 
*SOURCE FILE: MASTER_11_10.SUB.01_PART_1_.MOV
000003  MASTER_11_10.SUB.01_PART_1_.MOV  A2    C        01:00:00:00 01:00:01:10 01:00:00:00 01:00:01:10 
*FROM CLIP NAME:  MASTER_11_10.SUB.01_PART_1_.MOV 
*SOURCE FILE: MASTER_11_10.SUB.01_PART_1_.MOV
000004  BL                               V     C        00:00:00:00 00:01:21:09 01:00:00:00 01:01:21:09 
*SOURCE FILE: (NULL)
000005  BL                               V     C        00:00:00:00 00:01:29:19 01:00:00:00 01:01:29:19 
*SOURCE FILE: (NULL)
000006  BL                               V     C        00:00:00:00 00:01:51:02 01:00:00:00 01:01:51:02 
*SOURCE FILE: (NULL)
000007  CINEMASCOPE_2-35-1_CROPLINES.PNG V     C        01:01:57:05 01:06:00:00 01:00:00:00 01:04:02:20 
*FROM CLIP NAME:  CINEMASCOPE 2-35-1 CROPLINES.PNG 
*SOURCE FILE: CINEMASCOPE 2-35-1 CROPLINES.PNG
000008  BL                               V     C        00:00:00:00 00:12:39:24 01:00:00:00 01:12:39:24 
*SOURCE FILE: (NULL)
000009  BL                               V     C        00:00:00:00 00:13:32:17 01:00:00:00 01:13:32:17 
*SOURCE FILE: (NULL)
000010  BL                               V     C        00:00:00:00 00:14:18:18 01:00:00:00 01:14:18:18 
*SOURCE FILE: (NULL)
000011  BL                               V     C        00:00:00:00 00:28:26:00 01:00:00:00 01:28:26:00 
*SOURCE FILE: (NULL)
000012  BL                               V     C        00:00:00:00 01:16:27:20 01:00:00:00 02:16:27:20 
*SOURCE FILE: (NULL)
000013  BL                               V     C        00:00:00:00 01:16:54:09 01:00:00:00 02:16:54:09 
*SOURCE FILE: (NULL)
000014  BL                               V     C        00:00:00:00 01:27:14:01 01:00:00:00 02:27:14:01 
*SOURCE FILE: (NULL)
000015  BL                               V     C        00:00:00:00 01:27:14:01 01:00:00:00 02:27:14:01 
*SOURCE FILE: (NULL)
000016  XSR001_02_2_LOUD_INSTRUMENTAL.MP A17   C        01:00:00:00 01:00:23:01 01:00:00:11 01:00:23:12 
*FROM CLIP NAME:  XSR001_02_2 LOUD_INSTRUMENTAL.MP3 
*A17 VOL = -12.0 DB  PAN L100 
*PATCH XSR001_02_2_LOUD_INSTRUMENTAL.MP:  FROM SOURCE 1 TO RECORD 17 
*SOURCE FILE: XSR001_02_2 LOUD_INSTRUMENTAL.MP3
000017  XSR001_02_2_LOUD_INSTRUMENTAL.MP A18   C        01:00:00:00 01:00:23:01 01:00:00:11 01:00:23:12 
*FROM CLIP NAME:  XSR001_02_2 LOUD_INSTRUMENTAL.MP3 
*A18 VOL = -12.0 DB  PAN R100 
*PATCH XSR001_02_2_LOUD_INSTRUMENTAL.MP:  FROM SOURCE 2 TO RECORD 18 
*SOURCE FILE: XSR001_02_2 LOUD_INSTRUMENTAL.MP3
000018  MSMMMOB.67                       V     C        00:00:15:05 00:00:15:22 01:00:01:10 01:00:02:02 
*FROM CLIP NAME:  08072019_131733.NEW.02 
*SOURCE FILE: MSMMMOB.67
000019  MSMMMOB.01                       A     C        09:52:21:22 09:52:22:14 01:00:01:10 01:00:02:02 
M2      MSMMMOB.01                                025.0 09:52:21:22 
*FROM CLIP NAME:  GX016375 
*SOURCE FILE: MSMMMOB.01
000020  MSMMMOB.01                       A2    C        09:52:21:22 09:52:22:14 01:00:01:10 01:00:02:02 
M2      MSMMMOB.01                                025.0 09:52:21:22 
*FROM CLIP NAME:  GX016375 
*SOURCE FILE: MSMMMOB.01
000021  19Y08M07                         A3    C        13:16:04:05 13:16:08:12 01:00:01:10 01:00:05:17 
*FROM CLIP NAME:  1AK8/01.SYNC.01 
*SOURCE FILE: 19Y08M07
000022  19Y08M07                         A4    C        13:16:04:05 13:16:08:12 01:00:01:10 01:00:05:17 
*FROM CLIP NAME:  1AK8/01.SYNC.01 
*SOURCE FILE: 19Y08M07
000023  19Y08M07                         A5    C        13:16:04:05 13:16:08:12 01:00:01:10 01:00:05:17 
*FROM CLIP NAME:  1AK8/01.SYNC.01 
*SOURCE FILE: 19Y08M07
000024  19Y08M07                         A6    C        13:16:04:05 13:16:08:12 01:00:01:10 01:00:05:17 
*FROM CLIP NAME:  1AK8/01.SYNC.01 
*SOURCE FILE: 19Y08M07
000025  19Y08M07                         A7    C        13:16:04:05 13:16:08:12 01:00:01:10 01:00:05:17 
*FROM CLIP NAME:  1AK8/01.SYNC.01 
*SOURCE FILE: 19Y08M07
000026  19Y08M07                         A8    C        13:16:04:05 13:16:08:12 01:00:01:10 01:00:05:17 
*FROM CLIP NAME:  1AK8/01.SYNC.01 
*SOURCE FILE: 19Y08M07
000027  19Y08M07                         A9    C        13:16:04:05 13:16:08:12 01:00:01:10 01:00:05:17 
*FROM CLIP NAME:  1AK8/01.SYNC.01 
*SOURCE FILE: 19Y08M07
000028  19Y08M07                         A10   C        13:16:04:05 13:16:08:12 01:00:01:10 01:00:05:17 
*FROM CLIP NAME:  1AK8/01.SYNC.01 
*PATCH 19Y08M07:  FROM SOURCE 1 TO RECORD 10 
*SOURCE FILE: 19Y08M07
000029  163143__BEMAN87__AMBIENCE-FETE-F A11   C        00:19:32:20 00:19:39:12 01:00:01:10 01:00:08:02 
*FROM CLIP NAME:  163143__BEMAN87__AMBIENCE-FETE-FORAINE-FOIRE-DU-TRONE-PARIS.WAV 
*A11 VOL =  -6.0 DB  PAN L100 
*PATCH 163143__BEMAN87__AMBIENCE-FETE-F:  FROM SOURCE 1 TO RECORD 11 
*SOURCE FILE: 163143__BEMAN87__AMBIENCE-FETE-FORAINE-FOIRE-DU-TRONE-PARIS.WAV
000030  163143__BEMAN87__AMBIENCE-FETE-F A12   C        00:19:32:20 00:19:39:12 01:00:01:10 01:00:08:02 
*FROM CLIP NAME:  163143__BEMAN87__AMBIENCE-FETE-FORAINE-FOIRE-DU-TRONE-PARIS.WAV 
*A12 VOL =  -6.0 DB  PAN R100 
*PATCH 163143__BEMAN87__AMBIENCE-FETE-F:  FROM SOURCE 2 TO RECORD 12 
*SOURCE FILE: 163143__BEMAN87__AMBIENCE-FETE-FORAINE-FOIRE-DU-TRONE-PARIS.WAV
000031  MSMMMOB.45                       V     C        00:00:12:10 00:00:16:00 01:00:02:02 01:00:05:17 
*FROM CLIP NAME:  08072019_131231.NEW.01 
*SOURCE FILE: MSMMMOB.45
000032  19Y08M07                         A     C        13:16:04:22 13:16:08:12 01:00:02:02 01:00:05:17 
*FROM CLIP NAME:  1AK8/01.SYNC.01 
*SOURCE FILE: 19Y08M07
000033  19Y08M07                         A2    C        13:16:04:22 13:16:08:12 01:00:02:02 01:00:05:17 
*FROM CLIP NAME:  1AK8/01.SYNC.01 
*SOURCE FILE: 19Y08M07
000034  MSMMMOB.45                       V     C        00:00:17:19 00:00:19:02 01:00:05:17 01:00:07:00 
*FROM CLIP NAME:  08072019_131231.NEW.01 
*SOURCE FILE: MSMMMOB.45
000035  19Y08M07                         A     C        13:16:10:06 13:16:11:14 01:00:05:17 01:00:07:00 
*FROM CLIP NAME:  1AK8/01.SYNC.01 
*SOURCE FILE: 19Y08M07
000036  19Y08M07                         A2    C        13:16:10:06 13:16:11:14 01:00:05:17 01:00:07:00 
*FROM CLIP NAME:  1AK8/01.SYNC.01 
*SOURCE FILE: 19Y08M07
000037  19Y08M07                         A3    C        13:16:10:06 13:16:11:14 01:00:05:17 01:00:07:00 
*FROM CLIP NAME:  1AK8/01.SYNC.01 
*SOURCE FILE: 19Y08M07
000038  19Y08M07                         A4    C        13:16:10:06 13:16:11:14 01:00:05:17 01:00:07:00 
*FROM CLIP NAME:  1AK8/01.SYNC.01 
*SOURCE FILE: 19Y08M07
000039  19Y08M07                         A5    C        13:16:10:06 13:16:11:14 01:00:05:17 01:00:07:00 
*FROM CLIP NAME:  1AK8/01.SYNC.01 
*SOURCE FILE: 19Y08M07
000040  19Y08M07                         A6    C        13:16:10:06 13:16:11:14 01:00:05:17 01:00:07:00 
*FROM CLIP NAME:  1AK8/01.SYNC.01 
*SOURCE FILE: 19Y08M07
000041  19Y08M07                         A7    C        13:16:10:06 13:16:11:14 01:00:05:17 01:00:07:00 
*FROM CLIP NAME:  1AK8/01.SYNC.01 
*SOURCE FILE: 19Y08M07
000042  19Y08M07                         A8    C        13:16:10:06 13:16:11:14 01:00:05:17 01:00:07:00 
*FROM CLIP NAME:  1AK8/01.SYNC.01 
*SOURCE FILE: 19Y08M07
000043  19Y08M07                         A9    C        13:16:10:06 13:16:11:14 01:00:05:17 01:00:07:00 
*FROM CLIP NAME:  1AK8/01.SYNC.01 
*SOURCE FILE: 19Y08M07
000044  19Y08M07                         A10   C        13:16:10:06 13:16:11:14 01:00:05:17 01:00:07:00 
*FROM CLIP NAME:  1AK8/01.SYNC.01 
*PATCH 19Y08M07:  FROM SOURCE 1 TO RECORD 10 
*SOURCE FILE: 19Y08M07
000045  MSMMMOB.45                       V     C        00:00:20:20 00:00:21:22 01:00:07:00 01:00:08:02 
*FROM CLIP NAME:  08072019_131231.NEW.01 
*SOURCE FILE: MSMMMOB.45
000046  19Y08M07                         A     C        13:16:13:07 13:16:14:09 01:00:07:00 01:00:08:02 
*FROM CLIP NAME:  1AK8/01.SYNC.01 
*SOURCE FILE: 19Y08M07
000047  19Y08M07                         A2    C        13:16:13:07 13:16:14:09 01:00:07:00 01:00:08:02 
*FROM CLIP NAME:  1AK8/01.SYNC.01 
*SOURCE FILE: 19Y08M07
000048  19Y08M07                         A3    C        13:16:13:07 13:16:14:09 01:00:07:00 01:00:08:02 
*FROM CLIP NAME:  1AK8/01.SYNC.01 
*SOURCE FILE: 19Y08M07
000049  19Y08M07                         A4    C        13:16:13:07 13:16:14:09 01:00:07:00 01:00:08:02 
*FROM CLIP NAME:  1AK8/01.SYNC.01 
*SOURCE FILE: 19Y08M07
000050  19Y08M07                         A5    C        13:16:13:07 13:16:14:09 01:00:07:00 01:00:08:02 
*FROM CLIP NAME:  1AK8/01.SYNC.01 
*SOURCE FILE: 19Y08M07
000051  19Y08M07                         A6    C        13:16:13:07 13:16:14:09 01:00:07:00 01:00:08:02 
*FROM CLIP NAME:  1AK8/01.SYNC.01 
*SOURCE FILE: 19Y08M07
000052  19Y08M07                         A7    C        13:16:13:07 13:16:14:09 01:00:07:00 01:00:08:02 
*FROM CLIP NAME:  1AK8/01.SYNC.01 
*SOURCE FILE: 19Y08M07
000053  19Y08M07                         A8    C        13:16:13:07 13:16:14:09 01:00:07:00 01:00:08:02 
*FROM CLIP NAME:  1AK8/01.SYNC.01 
*SOURCE FILE: 19Y08M07
000054  19Y08M07                         A9    C        13:16:13:07 13:16:14:09 01:00:07:00 01:00:08:02 
*FROM CLIP NAME:  1AK8/01.SYNC.01 
*SOURCE FILE: 19Y08M07
000055  19Y08M07                         A10   C        13:16:13:07 13:16:14:09 01:00:07:00 01:00:08:02 
*FROM CLIP NAME:  1AK8/01.SYNC.01 
*PATCH 19Y08M07:  FROM SOURCE 1 TO RECORD 10 
*SOURCE FILE: 19Y08M07
000056  19Y08M07                         A     C        13:21:27:14 13:21:28:14 01:00:08:02 01:00:09:02 
*FROM CLIP NAME:  1AK8/02.SYNC.01 
*SOURCE FILE: 19Y08M07
000057  19Y08M07                         A2    C        13:21:27:14 13:21:28:14 01:00:08:02 01:00:09:02 
*FROM CLIP NAME:  1AK8/02.SYNC.01 
*SOURCE FILE: 19Y08M07
000058  19Y08M07                         A3    C        13:21:27:14 13:21:28:14 01:00:08:02 01:00:09:02 
*FROM CLIP NAME:  1AK8/02.SYNC.01 
*SOURCE FILE: 19Y08M07
000059  19Y08M07                         A4    C        13:21:27:14 13:21:28:14 01:00:08:02 01:00:09:02 
*FROM CLIP NAME:  1AK8/02.SYNC.01 
*SOURCE FILE: 19Y08M07
000060  19Y08M07                         A5    C        13:21:27:14 13:21:28:14 01:00:08:02 01:00:09:02 
*FROM CLIP NAME:  1AK8/02.SYNC.01 
*SOURCE FILE: 19Y08M07
000061  19Y08M07                         A6    C        13:21:27:14 13:21:28:14 01:00:08:02 01:00:09:02 
*FROM CLIP NAME:  1AK8/02.SYNC.01 
*SOURCE FILE: 19Y08M07
000062  19Y08M07                         A7    C        13:21:27:14 13:21:28:14 01:00:08:02 01:00:09:02 
*FROM CLIP NAME:  1AK8/02.SYNC.01 
*SOURCE FILE: 19Y08M07
000063  19Y08M07                         A8    C        13:21:27:14 13:21:28:14 01:00:08:02 01:00:09:02 
*FROM CLIP NAME:  1AK8/02.SYNC.01 
*SOURCE FILE: 19Y08M07
000064  19Y08M07                         A9    C        13:21:27:14 13:21:28:14 01:00:08:02 01:00:09:02 
*FROM CLIP NAME:  1AK8/02.SYNC.01 
*A9 VOL = +11.4 DB  PAN R100 
*SOURCE FILE: 19Y08M07
000065  19Y08M07                         A10   C        13:21:27:14 13:21:28:14 01:00:08:02 01:00:09:02 
*FROM CLIP NAME:  1AK8/02.SYNC.01 
*PATCH 19Y08M07:  FROM SOURCE 1 TO RECORD 10 
*SOURCE FILE: 19Y08M07
000066  MSMMMOB.67                       V     C        00:00:33:21 00:00:36:15 01:00:08:02 01:00:10:21 
*FROM CLIP NAME:  08072019_131733.NEW.02 
*SOURCE FILE: MSMMMOB.67
000067  163143__BEMAN87__AMBIENCE-FETE-F A11   C        00:19:40:16 00:20:03:23 01:00:08:02 01:00:31:09 
*FROM CLIP NAME:  163143__BEMAN87__AMBIENCE-FETE-FORAINE-FOIRE-DU-TRONE-PARIS.WAV 
*A11 VOL =  -6.0 DB  PAN L100 
*PATCH 163143__BEMAN87__AMBIENCE-FETE-F:  FROM SOURCE 1 TO RECORD 11 
*SOURCE FILE: 163143__BEMAN87__AMBIENCE-FETE-FORAINE-FOIRE-DU-TRONE-PARIS.WAV
000068  163143__BEMAN87__AMBIENCE-FETE-F A12   C        00:19:40:16 00:20:03:23 01:00:08:02 01:00:31:09 
*FROM CLIP NAME:  163143__BEMAN87__AMBIENCE-FETE-FORAINE-FOIRE-DU-TRONE-PARIS.WAV 
*A12 VOL =  -6.0 DB  PAN R100 
*PATCH 163143__BEMAN87__AMBIENCE-FETE-F:  FROM SOURCE 2 TO RECORD 12 
*SOURCE FILE: 163143__BEMAN87__AMBIENCE-FETE-FORAINE-FOIRE-DU-TRONE-PARIS.WAV
000069  19Y08M07                         A     C        10:47:43:22 10:47:44:17 01:00:09:02 01:00:09:22 
*FROM CLIP NAME:  1AK1/02.SYNC.01 
*SOURCE FILE: 19Y08M07
000070  19Y08M07                         A2    C        10:47:43:22 10:47:44:17 01:00:09:02 01:00:09:22 
*FROM CLIP NAME:  1AK1/02.SYNC.01 
*SOURCE FILE: 19Y08M07
000071  19Y08M07                         A3    C        10:47:43:22 10:47:44:17 01:00:09:02 01:00:09:22 
*FROM CLIP NAME:  1AK1/02.SYNC.01 
*SOURCE FILE: 19Y08M07
000072  19Y08M07                         A4    C        10:47:43:22 10:47:44:17 01:00:09:02 01:00:09:22 
*FROM CLIP NAME:  1AK1/02.SYNC.01 
*SOURCE FILE: 19Y08M07
000073  19Y08M07                         A5    C        10:47:43:22 10:47:44:17 01:00:09:02 01:00:09:22 
*FROM CLIP NAME:  1AK1/02.SYNC.01 
*SOURCE FILE: 19Y08M07
000074  19Y08M07                         A6    C        10:47:43:22 10:47:44:17 01:00:09:02 01:00:09:22 
*FROM CLIP NAME:  1AK1/02.SYNC.01 
*SOURCE FILE: 19Y08M07
000075  19Y08M07                         A7    C        10:47:43:22 10:47:44:17 01:00:09:02 01:00:09:22 
*FROM CLIP NAME:  1AK1/02.SYNC.01 
*SOURCE FILE: 19Y08M07
000076  19Y08M07                         A8    C        10:47:43:22 10:47:44:17 01:00:09:02 01:00:09:22 
*FROM CLIP NAME:  1AK1/02.SYNC.01 
*SOURCE FILE: 19Y08M07
000077  19Y08M07                         A9    C        10:47:43:22 10:47:44:17 01:00:09:02 01:00:09:22 
*FROM CLIP NAME:  1AK1/02.SYNC.01 
*SOURCE FILE: 19Y08M07
000078  19Y08M07                         A10   C        10:47:43:22 10:47:44:17 01:00:09:02 01:00:09:22 
*FROM CLIP NAME:  1AK1/02.SYNC.01 
*PATCH 19Y08M07:  FROM SOURCE 1 TO RECORD 10 
*SOURCE FILE: 19Y08M07
000079  19Y08M07                         A     C        13:21:29:15 13:21:30:14 01:00:09:22 01:00:10:21 
*FROM CLIP NAME:  1AK8/02.SYNC.01 
*SOURCE FILE: 19Y08M07
000080  19Y08M07                         A2    C        13:21:29:15 13:21:30:14 01:00:09:22 01:00:10:21 
*FROM CLIP NAME:  1AK8/02.SYNC.01 
*SOURCE FILE: 19Y08M07
000081  19Y08M07                         A3    C        13:21:29:15 13:21:30:14 01:00:09:22 01:00:10:21 
*FROM CLIP NAME:  1AK8/02.SYNC.01 
*SOURCE FILE: 19Y08M07
000082  19Y08M07                         A4    C        13:21:29:15 13:21:30:14 01:00:09:22 01:00:10:21 
*FROM CLIP NAME:  1AK8/02.SYNC.01 
*SOURCE FILE: 19Y08M07
000083  19Y08M07                         A5    C        13:21:29:15 13:21:30:14 01:00:09:22 01:00:10:21 
*FROM CLIP NAME:  1AK8/02.SYNC.01 
*SOURCE FILE: 19Y08M07
000084  19Y08M07                         A6    C        13:21:29:15 13:21:30:14 01:00:09:22 01:00:10:21 
*FROM CLIP NAME:  1AK8/02.SYNC.01 
*SOURCE FILE: 19Y08M07
000085  19Y08M07                         A7    C        13:21:29:15 13:21:30:14 01:00:09:22 01:00:10:21 
*FROM CLIP NAME:  1AK8/02.SYNC.01 
*SOURCE FILE: 19Y08M07
000086  19Y08M07                         A8    C        13:21:29:15 13:21:30:14 01:00:09:22 01:00:10:21 
*FROM CLIP NAME:  1AK8/02.SYNC.01 
*SOURCE FILE: 19Y08M07
000087  19Y08M07                         A9    C        13:21:29:15 13:21:30:14 01:00:09:22 01:00:10:21 
*FROM CLIP NAME:  1AK8/02.SYNC.01 
*SOURCE FILE: 19Y08M07
000088  19Y08M07                         A10   C        13:21:29:15 13:21:30:14 01:00:09:22 01:00:10:21 
*FROM CLIP NAME:  1AK8/02.SYNC.01 
*PATCH 19Y08M07:  FROM SOURCE 1 TO RECORD 10 
*SOURCE FILE: 19Y08M07
000089  MSMMMOB.45                       V     C        00:00:35:21 00:00:37:23 01:00:10:21 01:00:12:23 
*FROM CLIP NAME:  08072019_131231.NEW.01 
*SOURCE FILE: MSMMMOB.45
000090  19Y08M07                         A     C        13:16:28:08 13:16:30:10 01:00:10:21 01:00:12:23 
*FROM CLIP NAME:  1AK8/01.SYNC.01 
*SOURCE FILE: 19Y08M07
000091  19Y08M07                         A2    C        13:16:28:08 13:16:30:10 01:00:10:21 01:00:12:23 
*FROM CLIP NAME:  1AK8/01.SYNC.01 
*SOURCE FILE: 19Y08M07
000092  19Y08M07                         A3    C        13:16:28:08 13:16:30:10 01:00:10:21 01:00:12:23 
*FROM CLIP NAME:  1AK8/01.SYNC.01 
*SOURCE FILE: 19Y08M07
000093  19Y08M07                         A4    C        13:16:28:08 13:16:30:10 01:00:10:21 01:00:12:23 
*FROM CLIP NAME:  1AK8/01.SYNC.01 
*SOURCE FILE: 19Y08M07
000094  19Y08M07                         A5    C        13:16:28:08 13:16:30:10 01:00:10:21 01:00:12:23 
*FROM CLIP NAME:  1AK8/01.SYNC.01 
*SOURCE FILE: 19Y08M07
000095  19Y08M07                         A6    C        13:16:28:08 13:16:30:10 01:00:10:21 01:00:12:23 
*FROM CLIP NAME:  1AK8/01.SYNC.01 
*SOURCE FILE: 19Y08M07
000096  19Y08M07                         A7    C        13:16:28:08 13:16:30:10 01:00:10:21 01:00:12:23 
*FROM CLIP NAME:  1AK8/01.SYNC.01 
*SOURCE FILE: 19Y08M07
000097  19Y08M07                         A8    C        13:16:28:08 13:16:30:10 01:00:10:21 01:00:12:23 
*FROM CLIP NAME:  1AK8/01.SYNC.01 
*A8 VOL = -35.5 DB  PAN L100 
*SOURCE FILE: 19Y08M07
000098  19Y08M07                         A9    C        13:16:28:08 13:16:30:10 01:00:10:21 01:00:12:23 
*FROM CLIP NAME:  1AK8/01.SYNC.01 
*SOURCE FILE: 19Y08M07
000099  19Y08M07                         A10   C        13:16:28:08 13:16:30:10 01:00:10:21 01:00:12:23 
*FROM CLIP NAME:  1AK8/01.SYNC.01 
*PATCH 19Y08M07:  FROM SOURCE 1 TO RECORD 10 
*SOURCE FILE: 19Y08M07
000100  MSMMMOB.67                       V     C        00:00:40:24 00:00:45:04 01:00:12:23 01:00:17:03 
*FROM CLIP NAME:  08072019_131733.NEW.02 
*SOURCE FILE: MSMMMOB.67
000101  19Y08M07                         A     C        13:21:34:23 13:21:39:03 01:00:12:23 01:00:17:03 
*FROM CLIP NAME:  1AK8/02.SYNC.01 
*SOURCE FILE: 19Y08M07
000102  19Y08M07                         A2    C        13:21:34:23 13:21:39:03 01:00:12:23 01:00:17:03 
*FROM CLIP NAME:  1AK8/02.SYNC.01 
*SOURCE FILE: 19Y08M07
000103  19Y08M07                         A3    C        13:21:34:23 13:21:39:03 01:00:12:23 01:00:17:03 
*FROM CLIP NAME:  1AK8/02.SYNC.01 
*SOURCE FILE: 19Y08M07
000104  19Y08M07                         A4    C        13:21:34:23 13:21:39:03 01:00:12:23 01:00:17:03 
*FROM CLIP NAME:  1AK8/02.SYNC.01 
*SOURCE FILE: 19Y08M07
000105  19Y08M07                         A5    C        13:21:34:23 13:21:39:03 01:00:12:23 01:00:17:03 
*FROM CLIP NAME:  1AK8/02.SYNC.01 
*SOURCE FILE: 19Y08M07
000106  19Y08M07                         A6    C        13:21:34:23 13:21:39:03 01:00:12:23 01:00:17:03 
*FROM CLIP NAME:  1AK8/02.SYNC.01 
*SOURCE FILE: 19Y08M07
000107  19Y08M07                         A7    C        13:21:34:23 13:21:39:03 01:00:12:23 01:00:17:03 
*FROM CLIP NAME:  1AK8/02.SYNC.01 
*SOURCE FILE: 19Y08M07
000108  19Y08M07                         A8    C        13:21:34:23 13:21:39:03 01:00:12:23 01:00:17:03 
*FROM CLIP NAME:  1AK8/02.SYNC.01 
*SOURCE FILE: 19Y08M07
000109  19Y08M07                         A9    C        13:21:34:23 13:21:39:03 01:00:12:23 01:00:17:03 
*FROM CLIP NAME:  1AK8/02.SYNC.01 
*SOURCE FILE: 19Y08M07
000110  19Y08M07                         A10   C        13:21:34:23 13:21:39:03 01:00:12:23 01:00:17:03 
*FROM CLIP NAME:  1AK8/02.SYNC.01 
*PATCH 19Y08M07:  FROM SOURCE 1 TO RECORD 10 
*SOURCE FILE: 19Y08M07
000111  MSMMMOB.45                       V     C        00:00:54:24 00:00:58:02 01:00:17:03 01:00:20:06 
*FROM CLIP NAME:  08072019_131231.NEW.01 
*SOURCE FILE: MSMMMOB.45
000112  19Y08M07                         A     C        13:16:47:11 13:16:50:14 01:00:17:03 01:00:20:06 
*FROM CLIP NAME:  1AK8/01.SYNC.01 
*SOURCE FILE: 19Y08M07
000113  19Y08M07                         A2    C        13:16:47:11 13:16:50:14 01:00:17:03 01:00:20:06 
*FROM CLIP NAME:  1AK8/01.SYNC.01 
*SOURCE FILE: 19Y08M07
000114  19Y08M07                         A3    C        13:16:47:11 13:16:50:14 01:00:17:03 01:00:20:06 
*FROM CLIP NAME:  1AK8/01.SYNC.01 
*SOURCE FILE: 19Y08M07
000115  19Y08M07                         A4    C        13:16:47:11 13:16:50:14 01:00:17:03 01:00:20:06 
*FROM CLIP NAME:  1AK8/01.SYNC.01 
*SOURCE FILE: 19Y08M07
000116  19Y08M07                         A5    C        13:16:47:11 13:16:50:14 01:00:17:03 01:00:20:06 
*FROM CLIP NAME:  1AK8/01.SYNC.01 
*SOURCE FILE: 19Y08M07
000117  19Y08M07                         A6    C        13:16:47:11 13:16:50:14 01:00:17:03 01:00:20:06 
*FROM CLIP NAME:  1AK8/01.SYNC.01 
*SOURCE FILE: 19Y08M07
000118  19Y08M07                         A7    C        13:16:47:11 13:16:50:14 01:00:17:03 01:00:20:06 
*FROM CLIP NAME:  1AK8/01.SYNC.01 
*A7 VOL = -43.6 DB  PAN R100 
*SOURCE FILE: 19Y08M07
000119  19Y08M07                         A8    C        13:16:47:11 13:16:50:14 01:00:17:03 01:00:20:06 
*FROM CLIP NAME:  1AK8/01.SYNC.01 
*SOURCE FILE: 19Y08M07
000120  19Y08M07                         A9    C        13:16:47:11 13:16:50:14 01:00:17:03 01:00:20:06 
*FROM CLIP NAME:  1AK8/01.SYNC.01 
*SOURCE FILE: 19Y08M07
000121  19Y08M07                         A10   C        13:16:47:11 13:16:50:14 01:00:17:03 01:00:20:06 
*FROM CLIP NAME:  1AK8/01.SYNC.01 
*PATCH 19Y08M07:  FROM SOURCE 1 TO RECORD 10 
*SOURCE FILE: 19Y08M07
000122  MSMMMOB.45                       V     C        00:01:03:03 00:01:13:15 01:00:20:06 01:00:30:18 
*FROM CLIP NAME:  08072019_131231.NEW.01 
*SOURCE FILE: MSMMMOB.45
000123  19Y08M07                         A     C        13:16:55:15 13:17:06:04 01:00:20:06 01:00:30:20 
*FROM CLIP NAME:  1AK8/01.SYNC.01 
*SOURCE FILE: 19Y08M07
000124  19Y08M07                         A2    C        13:16:55:15 13:17:06:04 01:00:20:06 01:00:30:20 
*FROM CLIP NAME:  1AK8/01.SYNC.01 
*SOURCE FILE: 19Y08M07
000125  19Y08M07                         A3    C        13:16:55:15 13:17:06:18 01:00:20:06 01:00:31:09 
*FROM CLIP NAME:  1AK8/01.SYNC.01 
*SOURCE FILE: 19Y08M07
000126  19Y08M07                         A4    C        13:16:55:15 13:17:06:18 01:00:20:06 01:00:31:09 
*FROM CLIP NAME:  1AK8/01.SYNC.01 
*SOURCE FILE: 19Y08M07
000127  19Y08M07                         A5    C        13:16:55:15 13:17:06:18 01:00:20:06 01:00:31:09 
*FROM CLIP NAME:  1AK8/01.SYNC.01 
*SOURCE FILE: 19Y08M07
000128  19Y08M07                         A6    C        13:16:55:15 13:17:06:18 01:00:20:06 01:00:31:09 
*FROM CLIP NAME:  1AK8/01.SYNC.01 
*SOURCE FILE: 19Y08M07
000129  19Y08M07                         A7    C        13:16:55:15 13:17:06:18 01:00:20:06 01:00:31:09 
*FROM CLIP NAME:  1AK8/01.SYNC.01 
*SOURCE FILE: 19Y08M07
000130  19Y08M07                         A8    C        13:16:55:15 13:17:06:18 01:00:20:06 01:00:31:09 
*FROM CLIP NAME:  1AK8/01.SYNC.01 
*SOURCE FILE: 19Y08M07
000131  19Y08M07                         A9    C        13:16:55:15 13:17:06:18 01:00:20:06 01:00:31:09 
*FROM CLIP NAME:  1AK8/01.SYNC.01 
*SOURCE FILE: 19Y08M07
000132  19Y08M07                         A10   C        13:16:55:15 13:17:06:18 01:00:20:06 01:00:31:09 
*FROM CLIP NAME:  1AK8/01.SYNC.01 
*PATCH 19Y08M07:  FROM SOURCE 1 TO RECORD 10 
*SOURCE FILE: 19Y08M07
000133  MSMMMOB.67                       V     C        00:00:14:16 00:00:15:07 01:00:30:18 01:00:31:09 
*FROM CLIP NAME:  08072019_131733.NEW.02 
*SOURCE FILE: MSMMMOB.67
000134  MSMMMOB.01                       A     C        09:52:21:22 09:52:22:11 01:00:30:20 01:00:31:09 
M2      MSMMMOB.01                                025.0 09:52:21:22 
*FROM CLIP NAME:  GX016375 
*SOURCE FILE: MSMMMOB.01
000135  MSMMMOB.01                       A2    C        09:52:21:22 09:52:22:11 01:00:30:20 01:00:31:09 
M2      MSMMMOB.01                                025.0 09:52:21:22 
*FROM CLIP NAME:  GX016375 
*SOURCE FILE: MSMMMOB.01
000136  XSR001_02_2_LOUD_INSTRUMENTAL.MP A17   C        01:01:26:23 01:01:27:08 01:00:31:01 01:00:31:11 
*FROM CLIP NAME:  XSR001_02_2 LOUD_INSTRUMENTAL.MP3 
*A17 VOL =  -6.0 DB  PAN L100 
*PATCH XSR001_02_2_LOUD_INSTRUMENTAL.MP:  FROM SOURCE 1 TO RECORD 17 
*SOURCE FILE: XSR001_02_2 LOUD_INSTRUMENTAL.MP3
000137  XSR001_02_2_LOUD_INSTRUMENTAL.MP A18   C        01:01:26:23 01:01:27:08 01:00:31:01 01:00:31:11 
*FROM CLIP NAME:  XSR001_02_2 LOUD_INSTRUMENTAL.MP3 
*A18 VOL =  -6.0 DB  PAN R100 
*PATCH XSR001_02_2_LOUD_INSTRUMENTAL.MP:  FROM SOURCE 2 TO RECORD 18 
*SOURCE FILE: XSR001_02_2 LOUD_INSTRUMENTAL.MP3
000138  MSMMMOB.67                       V     C        00:01:40:17 00:01:41:22 01:00:31:09 01:00:32:14 
*FROM CLIP NAME:  08072019_131733.NEW.02 
*SOURCE FILE: MSMMMOB.67
000139  19Y08M07                         A     C        13:22:34:16 13:22:35:21 01:00:31:09 01:00:32:14 
*FROM CLIP NAME:  1AK8/02.SYNC.01 
*SOURCE FILE: 19Y08M07
000140  19Y08M07                         A2    C        13:22:34:16 13:22:35:21 01:00:31:09 01:00:32:14 
*FROM CLIP NAME:  1AK8/02.SYNC.01 
*SOURCE FILE: 19Y08M07
000141  19Y08M07                         A3    C        13:22:34:16 13:22:35:21 01:00:31:09 01:00:32:14 
*FROM CLIP NAME:  1AK8/02.SYNC.01 
*SOURCE FILE: 19Y08M07
000142  19Y08M07                         A4    C        13:22:34:16 13:22:35:21 01:00:31:09 01:00:32:14 
*FROM CLIP NAME:  1AK8/02.SYNC.01 
*SOURCE FILE: 19Y08M07
000143  19Y08M07                         A5    C        13:22:34:16 13:22:35:21 01:00:31:09 01:00:32:14 
*FROM CLIP NAME:  1AK8/02.SYNC.01 
*SOURCE FILE: 19Y08M07
000144  19Y08M07                         A6    C        13:22:34:16 13:22:35:21 01:00:31:09 01:00:32:14 
*FROM CLIP NAME:  1AK8/02.SYNC.01 
*SOURCE FILE: 19Y08M07
000145  19Y08M07                         A7    C        13:22:34:16 13:22:35:21 01:00:31:09 01:00:32:14 
*FROM CLIP NAME:  1AK8/02.SYNC.01 
*SOURCE FILE: 19Y08M07
000146  19Y08M07                         A8    C        13:22:34:16 13:22:35:21 01:00:31:09 01:00:32:14 
*FROM CLIP NAME:  1AK8/02.SYNC.01 
*SOURCE FILE: 19Y08M07
000147  19Y08M07                         A9    C        13:22:34:16 13:22:35:21 01:00:31:09 01:00:32:14 
*FROM CLIP NAME:  1AK8/02.SYNC.01 
*SOURCE FILE: 19Y08M07
000148  19Y08M07                         A10   C        13:22:34:16 13:22:35:21 01:00:31:09 01:00:32:14 
*FROM CLIP NAME:  1AK8/02.SYNC.01 
*PATCH 19Y08M07:  FROM SOURCE 1 TO RECORD 10 
*SOURCE FILE: 19Y08M07
000149  163143__BEMAN87__AMBIENCE-FETE-F A11   C        00:20:03:10 00:20:09:09 01:00:31:09 01:00:37:08 
*FROM CLIP NAME:  163143__BEMAN87__AMBIENCE-FETE-FORAINE-FOIRE-DU-TRONE-PARIS.WAV 
*A11 VOL =  -6.0 DB  PAN L100 
*PATCH 163143__BEMAN87__AMBIENCE-FETE-F:  FROM SOURCE 1 TO RECORD 11 
*SOURCE FILE: 163143__BEMAN87__AMBIENCE-FETE-FORAINE-FOIRE-DU-TRONE-PARIS.WAV
000150  163143__BEMAN87__AMBIENCE-FETE-F A12   C        00:20:03:10 00:20:09:09 01:00:31:09 01:00:37:08 
*FROM CLIP NAME:  163143__BEMAN87__AMBIENCE-FETE-FORAINE-FOIRE-DU-TRONE-PARIS.WAV 
*A12 VOL =  -6.0 DB  PAN R100 
*PATCH 163143__BEMAN87__AMBIENCE-FETE-F:  FROM SOURCE 2 TO RECORD 12 
*SOURCE FILE: 163143__BEMAN87__AMBIENCE-FETE-FORAINE-FOIRE-DU-TRONE-PARIS.WAV
000151  XSR001_02_2_LOUD_INSTRUMENTAL.MP A19   C        01:01:03:07 01:01:12:23 01:00:31:09 01:00:41:00 
*FROM CLIP NAME:  XSR001_02_2 LOUD_INSTRUMENTAL.MP3 
*A19 VOL =  -6.0 DB  PAN L100 
*PATCH XSR001_02_2_LOUD_INSTRUMENTAL.MP:  FROM SOURCE 1 TO RECORD 19 
*SOURCE FILE: XSR001_02_2 LOUD_INSTRUMENTAL.MP3
000152  XSR001_02_2_LOUD_INSTRUMENTAL.MP A20   C        01:01:03:07 01:01:12:23 01:00:31:09 01:00:41:00 
*FROM CLIP NAME:  XSR001_02_2 LOUD_INSTRUMENTAL.MP3 
*A20 VOL =  -6.0 DB  PAN R100 
*PATCH XSR001_02_2_LOUD_INSTRUMENTAL.MP:  FROM SOURCE 2 TO RECORD 20 
*SOURCE FILE: XSR001_02_2 LOUD_INSTRUMENTAL.MP3
000153  MSMMMOB.13                       V     C        00:01:04:04 00:01:05:11 01:00:32:14 01:00:33:21 
*FROM CLIP NAME:  08072019_142231.NEW.01 
*SOURCE FILE: MSMMMOB.13
000154  MSMMMOB.13                       A     C        00:01:04:04 00:01:05:11 01:00:32:14 01:00:33:21 
*FROM CLIP NAME:  08072019_142231.NEW.01 
*SOURCE FILE: MSMMMOB.13
000155  MSMMMOB.13                       A2    C        00:01:04:04 00:01:05:11 01:00:32:14 01:00:33:21 
*FROM CLIP NAME:  08072019_142231.NEW.01 
*SOURCE FILE: MSMMMOB.13
000156  19Y08M07                         A3    C        14:26:56:16 14:26:57:23 01:00:32:14 01:00:33:21 
*FROM CLIP NAME:  1AK9/02.SYNC.01 
*SOURCE FILE: 19Y08M07
000157  19Y08M07                         A4    C        14:26:56:16 14:26:57:23 01:00:32:14 01:00:33:21 
*FROM CLIP NAME:  1AK9/02.SYNC.01 
*SOURCE FILE: 19Y08M07
000158  19Y08M07                         A5    C        14:26:56:16 14:26:57:23 01:00:32:14 01:00:33:21 
*FROM CLIP NAME:  1AK9/02.SYNC.01 
*SOURCE FILE: 19Y08M07
000159  19Y08M07                         A6    C        14:26:56:16 14:26:57:23 01:00:32:14 01:00:33:21 
*FROM CLIP NAME:  1AK9/02.SYNC.01 
*PATCH 19Y08M07:  FROM SOURCE 1 TO RECORD 6 
*SOURCE FILE: 19Y08M07
000160  19Y08M07                         A7    C        14:26:56:16 14:26:57:23 01:00:32:14 01:00:33:21 
*FROM CLIP NAME:  1AK9/02.SYNC.01 
*PATCH 19Y08M07:  FROM SOURCE 9 TO RECORD 7 
*SOURCE FILE: 19Y08M07
000161  19Y08M07                         A8    C        14:26:56:16 14:26:57:23 01:00:32:14 01:00:33:21 
*FROM CLIP NAME:  1AK9/02.SYNC.01 
*SOURCE FILE: 19Y08M07
000162  MSMMMOB.13                       V     C        00:01:07:23 00:01:09:03 01:00:33:21 01:00:35:01 
*FROM CLIP NAME:  08072019_142231.NEW.01 
*SOURCE FILE: MSMMMOB.13
000163  MSMMMOB.13                       A     C        00:01:07:23 00:01:09:03 01:00:33:21 01:00:35:01 
*FROM CLIP NAME:  08072019_142231.NEW.01 
*SOURCE FILE: MSMMMOB.13
000164  MSMMMOB.13                       A2    C        00:01:07:23 00:01:09:03 01:00:33:21 01:00:35:01 
*FROM CLIP NAME:  08072019_142231.NEW.01 
*SOURCE FILE: MSMMMOB.13
000165  19Y08M07                         A3    C        14:27:00:10 14:27:01:15 01:00:33:21 01:00:35:01 
*FROM CLIP NAME:  1AK9/02.SYNC.01 
*SOURCE FILE: 19Y08M07
000166  19Y08M07                         A4    C        14:27:00:10 14:27:01:15 01:00:33:21 01:00:35:01 
*FROM CLIP NAME:  1AK9/02.SYNC.01 
*SOURCE FILE: 19Y08M07
000167  19Y08M07                         A5    C        14:27:00:10 14:27:01:15 01:00:33:21 01:00:35:01 
*FROM CLIP NAME:  1AK9/02.SYNC.01 
*SOURCE FILE: 19Y08M07
000168  19Y08M07                         A6    C        14:27:00:10 14:27:01:15 01:00:33:21 01:00:35:01 
*FROM CLIP NAME:  1AK9/02.SYNC.01 
*PATCH 19Y08M07:  FROM SOURCE 1 TO RECORD 6 
*SOURCE FILE: 19Y08M07
000169  19Y08M07                         A7    C        14:27:00:10 14:27:01:15 01:00:33:21 01:00:35:01 
*FROM CLIP NAME:  1AK9/02.SYNC.01 
*PATCH 19Y08M07:  FROM SOURCE 9 TO RECORD 7 
*SOURCE FILE: 19Y08M07
000170  19Y08M07                         A8    C        14:27:00:10 14:27:01:15 01:00:33:21 01:00:35:01 
*FROM CLIP NAME:  1AK9/02.SYNC.01 
*SOURCE FILE: 19Y08M07
000171  MSMMMOB.82                       V     C        00:00:51:11 00:00:52:18 01:00:35:01 01:00:36:08 
*FROM CLIP NAME:  08072019_143702.NEW.01 
*SOURCE FILE: MSMMMOB.82
000172  MSMMMOB.82                       A     C        00:00:51:11 00:00:52:18 01:00:35:01 01:00:36:08 
*FROM CLIP NAME:  08072019_143702.NEW.01 
*SOURCE FILE: MSMMMOB.82
000173  MSMMMOB.82                       A2    C        00:00:51:11 00:00:52:18 01:00:35:01 01:00:36:08 
*FROM CLIP NAME:  08072019_143702.NEW.01 
*SOURCE FILE: MSMMMOB.82
000174  19Y08M07                         A3    C        14:41:14:23 14:41:16:05 01:00:35:01 01:00:36:08 
*FROM CLIP NAME:  1AK9/04.SYNC.01 
*SOURCE FILE: 19Y08M07
000175  19Y08M07                         A4    C        14:41:14:23 14:41:16:05 01:00:35:01 01:00:36:08 
*FROM CLIP NAME:  1AK9/04.SYNC.01 
*SOURCE FILE: 19Y08M07
000176  19Y08M07                         A5    C        14:41:14:23 14:41:16:05 01:00:35:01 01:00:36:08 
*FROM CLIP NAME:  1AK9/04.SYNC.01 
*SOURCE FILE: 19Y08M07
000177  19Y08M07                         A6    C        14:41:14:23 14:41:16:05 01:00:35:01 01:00:36:08 
*FROM CLIP NAME:  1AK9/04.SYNC.01 
*PATCH 19Y08M07:  FROM SOURCE 1 TO RECORD 6 
*SOURCE FILE: 19Y08M07
000178  19Y08M07                         A7    C        14:41:14:23 14:41:16:05 01:00:35:01 01:00:36:08 
*FROM CLIP NAME:  1AK9/04.SYNC.01 
*PATCH 19Y08M07:  FROM SOURCE 9 TO RECORD 7 
*SOURCE FILE: 19Y08M07
000179  19Y08M07                         A8    C        14:41:14:23 14:41:16:05 01:00:35:01 01:00:36:08 
*FROM CLIP NAME:  1AK9/04.SYNC.01 
*SOURCE FILE: 19Y08M07
000180  MSMMMOB.04                       V     C        00:01:02:23 00:01:03:20 01:00:36:08 01:00:37:05 
*FROM CLIP NAME:  08072019_142935.NEW.01 
*SOURCE FILE: MSMMMOB.04
000181  19Y08M07                         A     C        14:33:59:09 14:34:00:18 01:00:36:08 01:00:37:17 
*FROM CLIP NAME:  1AK9/03.SYNC.01 
*SOURCE FILE: 19Y08M07
000182  19Y08M07                         A2    C        14:33:59:09 14:34:00:18 01:00:36:08 01:00:37:17 
*FROM CLIP NAME:  1AK9/03.SYNC.01 
*SOURCE FILE: 19Y08M07
000183  19Y08M07                         A3    C        14:33:59:09 14:34:00:18 01:00:36:08 01:00:37:17 
*FROM CLIP NAME:  1AK9/03.SYNC.01 
*SOURCE FILE: 19Y08M07
000184  19Y08M07                         A4    C        14:33:59:09 14:34:00:18 01:00:36:08 01:00:37:17 
*FROM CLIP NAME:  1AK9/03.SYNC.01 
*SOURCE FILE: 19Y08M07
000185  19Y08M07                         A5    C        14:33:59:09 14:34:00:18 01:00:36:08 01:00:37:17 
*FROM CLIP NAME:  1AK9/03.SYNC.01 
*SOURCE FILE: 19Y08M07
000186  19Y08M07                         A6    C        14:33:59:09 14:34:00:18 01:00:36:08 01:00:37:17 
*FROM CLIP NAME:  1AK9/03.SYNC.01 
*PATCH 19Y08M07:  FROM SOURCE 1 TO RECORD 6 
*SOURCE FILE: 19Y08M07
000187  19Y08M07                         A7    C        14:33:59:09 14:34:00:18 01:00:36:08 01:00:37:17 
*FROM CLIP NAME:  1AK9/03.SYNC.01 
*PATCH 19Y08M07:  FROM SOURCE 9 TO RECORD 7 
*SOURCE FILE: 19Y08M07
000188  19Y08M07                         A8    C        14:33:59:09 14:34:00:18 01:00:36:08 01:00:37:17 
*FROM CLIP NAME:  1AK9/03.SYNC.01 
*SOURCE FILE: 19Y08M07
000189  MSMMMOB.82                       V     C        00:00:58:16 00:01:01:01 01:00:37:05 01:00:39:15 
*FROM CLIP NAME:  08072019_143702.NEW.01 
*SOURCE FILE: MSMMMOB.82
000190  163143__BEMAN87__AMBIENCE-FETE-F A11   C        00:20:09:09 00:20:09:09 01:00:37:08 01:00:37:08 
000190  BL                               A11   D    040 00:00:00:00 00:00:01:15 01:00:37:08 01:00:38:23 
*FROM CLIP NAME:  163143__BEMAN87__AMBIENCE-FETE-FORAINE-FOIRE-DU-TRONE-PARIS.WAV 
*A11 VOL =  -6.0 DB  PAN L100 
*PATCH 163143__BEMAN87__AMBIENCE-FETE-F:  FROM SOURCE 1 TO RECORD 11 
*SOURCE FILE: 163143__BEMAN87__AMBIENCE-FETE-FORAINE-FOIRE-DU-TRONE-PARIS.WAV
000191  163143__BEMAN87__AMBIENCE-FETE-F A12   C        00:20:09:09 00:20:09:09 01:00:37:08 01:00:37:08 
000191  BL                               A12   D    040 00:00:00:00 00:00:01:15 01:00:37:08 01:00:38:23 
*FROM CLIP NAME:  163143__BEMAN87__AMBIENCE-FETE-FORAINE-FOIRE-DU-TRONE-PARIS.WAV 
*A12 VOL =  -6.0 DB  PAN R100 
*PATCH 163143__BEMAN87__AMBIENCE-FETE-F:  FROM SOURCE 2 TO RECORD 12 
*SOURCE FILE: 163143__BEMAN87__AMBIENCE-FETE-FORAINE-FOIRE-DU-TRONE-PARIS.WAV
000192  MSMMMOB.04                       A     C        00:01:04:19 00:01:05:05 01:00:37:17 01:00:38:03 
*FROM CLIP NAME:  08072019_142935.NEW.01 
*SOURCE FILE: MSMMMOB.04
000193  MSMMMOB.04                       A2    C        00:01:04:19 00:01:05:05 01:00:37:17 01:00:38:03 
*FROM CLIP NAME:  08072019_142935.NEW.01 
*SOURCE FILE: MSMMMOB.04
000194  19Y08M07                         A3    C        14:34:01:05 14:34:01:16 01:00:37:17 01:00:38:03 
*FROM CLIP NAME:  1AK9/03.SYNC.01 
*SOURCE FILE: 19Y08M07
000195  19Y08M07                         A4    C        14:34:01:05 14:34:01:16 01:00:37:17 01:00:38:03 
*FROM CLIP NAME:  1AK9/03.SYNC.01 
*SOURCE FILE: 19Y08M07
000196  19Y08M07                         A5    C        14:34:01:05 14:34:01:16 01:00:37:17 01:00:38:03 
*FROM CLIP NAME:  1AK9/03.SYNC.01 
*SOURCE FILE: 19Y08M07
000197  19Y08M07                         A6    C        14:34:01:05 14:34:01:16 01:00:37:17 01:00:38:03 
*FROM CLIP NAME:  1AK9/03.SYNC.01 
*PATCH 19Y08M07:  FROM SOURCE 1 TO RECORD 6 
*SOURCE FILE: 19Y08M07
000198  19Y08M07                         A7    C        14:34:01:05 14:34:01:16 01:00:37:17 01:00:38:03 
*FROM CLIP NAME:  1AK9/03.SYNC.01 
*PATCH 19Y08M07:  FROM SOURCE 9 TO RECORD 7 
*SOURCE FILE: 19Y08M07
000199  19Y08M07                         A8    C        14:34:01:05 14:34:01:16 01:00:37:17 01:00:38:03 
*FROM CLIP NAME:  1AK9/03.SYNC.01 
*SOURCE FILE: 19Y08M07
000200  19Y08M07                         A2    C        14:41:18:21 14:41:19:10 01:00:38:03 01:00:38:17 
*FROM CLIP NAME:  1AK9/04.SYNC.01 
*SOURCE FILE: 19Y08M07
000201  19Y08M07                         A3    C        14:41:18:21 14:41:19:10 01:00:38:03 01:00:38:17 
*FROM CLIP NAME:  1AK9/04.SYNC.01 
*SOURCE FILE: 19Y08M07
000202  19Y08M07                         A4    C        14:41:18:21 14:41:19:10 01:00:38:03 01:00:38:17 
*FROM CLIP NAME:  1AK9/04.SYNC.01 
*SOURCE FILE: 19Y08M07
000203  19Y08M07                         A5    C        14:41:18:21 14:41:19:10 01:00:38:03 01:00:38:17 
*FROM CLIP NAME:  1AK9/04.SYNC.01 
*SOURCE FILE: 19Y08M07
000204  19Y08M07                         A6    C        14:41:18:21 14:41:19:10 01:00:38:03 01:00:38:17 
*FROM CLIP NAME:  1AK9/04.SYNC.01 
*PATCH 19Y08M07:  FROM SOURCE 1 TO RECORD 6 
*SOURCE FILE: 19Y08M07
000205  19Y08M07                         A7    C        14:41:18:21 14:41:19:10 01:00:38:03 01:00:38:17 
*FROM CLIP NAME:  1AK9/04.SYNC.01 
*PATCH 19Y08M07:  FROM SOURCE 9 TO RECORD 7 
*SOURCE FILE: 19Y08M07
000206  19Y08M07                         A8    C        14:41:18:21 14:41:19:10 01:00:38:03 01:00:38:17 
*FROM CLIP NAME:  1AK9/04.SYNC.01 
*SOURCE FILE: 19Y08M07
000207  MSMMMOB.82                       A     C        00:01:00:03 00:01:01:04 01:00:38:17 01:00:39:18 
*FROM CLIP NAME:  08072019_143702.NEW.01 
*A1 VOL = -27.5 DB  PAN R100 
*SOURCE FILE: MSMMMOB.82
000208  MSMMMOB.82                       A2    C        00:01:00:03 00:01:01:04 01:00:38:17 01:00:39:18 
*FROM CLIP NAME:  08072019_143702.NEW.01 
*SOURCE FILE: MSMMMOB.82
000209  19Y08M07                         A3    C        14:41:23:15 14:41:24:16 01:00:38:17 01:00:39:18 
*FROM CLIP NAME:  1AK9/04.SYNC.01 
*SOURCE FILE: 19Y08M07
000210  19Y08M07                         A4    C        14:41:23:15 14:41:24:16 01:00:38:17 01:00:39:18 
*FROM CLIP NAME:  1AK9/04.SYNC.01 
*SOURCE FILE: 19Y08M07
000211  19Y08M07                         A5    C        14:41:23:15 14:41:24:16 01:00:38:17 01:00:39:18 
*FROM CLIP NAME:  1AK9/04.SYNC.01 
*SOURCE FILE: 19Y08M07
000212  19Y08M07                         A6    C        14:41:23:15 14:41:24:16 01:00:38:17 01:00:39:18 
*FROM CLIP NAME:  1AK9/04.SYNC.01 
*PATCH 19Y08M07:  FROM SOURCE 1 TO RECORD 6 
*SOURCE FILE: 19Y08M07
000213  19Y08M07                         A7    C        14:41:23:15 14:41:24:16 01:00:38:17 01:00:39:18 
*FROM CLIP NAME:  1AK9/04.SYNC.01 
*A7 VOL =  +8.0 DB  PAN R100 
*PATCH 19Y08M07:  FROM SOURCE 9 TO RECORD 7 
*SOURCE FILE: 19Y08M07
000214  19Y08M07                         A8    C        14:41:23:15 14:41:24:16 01:00:38:17 01:00:39:18 
*FROM CLIP NAME:  1AK9/04.SYNC.01 
*SOURCE FILE: 19Y08M07
000215  MSMMMOB.35                       V     C        14:41:39:00 14:41:41:14 01:00:39:15 01:00:42:04 
M2      MSMMMOB.35                                025.0 14:41:39:00 
*FROM CLIP NAME:  1A-9-4-CAMA 
*SOURCE FILE: MSMMMOB.35
000216  19Y08M07                         A13   C        13:13:14:20 13:13:17:09 01:00:39:15 01:00:42:04 
*FROM CLIP NAME:  1AKZ/03.SUB.01 
*A13 VOL = -11.0 DB  PAN L100 
*PATCH 19Y08M07:  FROM SOURCE 1 TO RECORD 13 
*SOURCE FILE: 19Y08M07
000217  19Y08M07                         A14   C        13:13:14:20 13:13:17:09 01:00:39:15 01:00:42:04 
*FROM CLIP NAME:  1AKZ/03.SUB.01 
*A14 VOL = -11.0 DB  PAN R100 
*PATCH 19Y08M07:  FROM SOURCE 4 TO RECORD 14 
*SOURCE FILE: 19Y08M07
000218  MSMMMOB.82                       A2    C        00:00:55:09 00:00:56:11 01:00:39:18 01:00:40:20 
*FROM CLIP NAME:  08072019_143702.NEW.01 
*SOURCE FILE: MSMMMOB.82
000219  19Y08M07                         A3    C        14:41:18:21 14:41:19:23 01:00:39:18 01:00:40:20 
*FROM CLIP NAME:  1AK9/04.SYNC.01 
*SOURCE FILE: 19Y08M07
000220  19Y08M07                         A4    C        14:41:18:21 14:41:19:23 01:00:39:18 01:00:40:20 
*FROM CLIP NAME:  1AK9/04.SYNC.01 
*SOURCE FILE: 19Y08M07
000221  19Y08M07                         A5    C        14:41:18:21 14:41:19:23 01:00:39:18 01:00:40:20 
*FROM CLIP NAME:  1AK9/04.SYNC.01 
*SOURCE FILE: 19Y08M07
000222  19Y08M07                         A6    C        14:41:18:21 14:41:19:23 01:00:39:18 01:00:40:20 
*FROM CLIP NAME:  1AK9/04.SYNC.01 
*PATCH 19Y08M07:  FROM SOURCE 1 TO RECORD 6 
*SOURCE FILE: 19Y08M07
000223  19Y08M07                         A7    C        14:41:18:21 14:41:19:23 01:00:39:18 01:00:40:20 
*FROM CLIP NAME:  1AK9/04.SYNC.01 
*PATCH 19Y08M07:  FROM SOURCE 9 TO RECORD 7 
*SOURCE FILE: 19Y08M07
000224  19Y08M07                         A8    C        14:41:18:21 14:41:19:23 01:00:39:18 01:00:40:20 
*FROM CLIP NAME:  1AK9/04.SYNC.01 
*SOURCE FILE: 19Y08M07
000225  XSR001_02_2_LOUD_INSTRUMENTAL.MP A21   C        01:00:48:16 01:00:49:19 01:00:40:18 01:00:41:21 
*FROM CLIP NAME:  XSR001_02_2 LOUD_INSTRUMENTAL.MP3 
*A21 VOL = -15.0 DB  PAN L100 
*PATCH XSR001_02_2_LOUD_INSTRUMENTAL.MP:  FROM SOURCE 2 TO RECORD 21 
*SOURCE FILE: XSR001_02_2 LOUD_INSTRUMENTAL.MP3
000226  XSR001_02_2_LOUD_INSTRUMENTAL.MP A22   C        01:00:48:16 01:00:49:19 01:00:40:18 01:00:41:21 
*FROM CLIP NAME:  XSR001_02_2 LOUD_INSTRUMENTAL.MP3 
*A22 VOL = -15.0 DB  PAN R100 
*PATCH XSR001_02_2_LOUD_INSTRUMENTAL.MP:  FROM SOURCE 1 TO RECORD 22 
*SOURCE FILE: XSR001_02_2 LOUD_INSTRUMENTAL.MP3
000227  BL                               A     C        00:00:00:00 00:00:00:00 01:00:40:20 01:00:40:20 
000227  19Y08M07                         A     D    003 14:34:19:04 14:34:19:07 01:00:40:20 01:00:40:23 
*TO CLIP NAME:  1AK9/03.SYNC.01 
*A1 VOL =  +9.0 DB  PAN R100 
*PATCH 19Y08M07:  FROM SOURCE 9 TO RECORD 1 
*SOURCE FILE: (NULL)
000228  MSMMMOB.82                       A2    C        00:00:56:11 00:00:56:11 01:00:40:20 01:00:40:20 
000228  MSMMMOB.04                       A2    D    003 00:01:22:18 00:01:22:21 01:00:40:20 01:00:40:23 
*FROM CLIP NAME:  08072019_143702.NEW.01 
*TO CLIP NAME:  08072019_142935.NEW.01 
*SOURCE FILE: MSMMMOB.82
000229  19Y08M07                         A3    C        14:41:19:23 14:41:19:23 01:00:40:20 01:00:40:20 
000229  19Y08M07                         A3    D    003 14:34:19:04 14:34:19:07 01:00:40:20 01:00:40:23 
*FROM CLIP NAME:  1AK9/04.SYNC.01 
*TO CLIP NAME:  1AK9/03.SYNC.01 
*SOURCE FILE: 19Y08M07
000230  19Y08M07                         A4    C        14:41:19:23 14:41:19:23 01:00:40:20 01:00:40:20 
000230  19Y08M07                         A4    D    003 14:34:19:04 14:34:19:07 01:00:40:20 01:00:40:23 
*FROM CLIP NAME:  1AK9/04.SYNC.01 
*TO CLIP NAME:  1AK9/03.SYNC.01 
*SOURCE FILE: 19Y08M07
000231  19Y08M07                         A5    C        14:41:19:23 14:41:19:23 01:00:40:20 01:00:40:20 
000231  19Y08M07                         A5    D    003 14:34:19:04 14:34:19:07 01:00:40:20 01:00:40:23 
*FROM CLIP NAME:  1AK9/04.SYNC.01 
*TO CLIP NAME:  1AK9/03.SYNC.01 
*SOURCE FILE: 19Y08M07
000232  19Y08M07                         A6    C        14:41:19:23 14:41:19:23 01:00:40:20 01:00:40:20 
000232  19Y08M07                         A6    D    003 14:34:19:04 14:34:19:07 01:00:40:20 01:00:40:23 
*FROM CLIP NAME:  1AK9/04.SYNC.01 
*TO CLIP NAME:  1AK9/03.SYNC.01 
*PATCH 19Y08M07:  FROM SOURCE 1 TO RECORD 6 
*PATCH 19Y08M07:  FROM SOURCE 1 TO RECORD 6 
*SOURCE FILE: 19Y08M07
000233  19Y08M07                         A7    C        14:41:19:23 14:41:19:23 01:00:40:20 01:00:40:20 
000233  MSMMMOB.04                       A7    D    003 00:01:22:18 00:01:22:21 01:00:40:20 01:00:40:23 
*FROM CLIP NAME:  1AK9/04.SYNC.01 
*TO CLIP NAME:  08072019_142935.NEW.01 
*A7 VOL = -32.3 DB  PAN R100 
*PATCH 19Y08M07:  FROM SOURCE 9 TO RECORD 7 
*PATCH MSMMMOB.04:  FROM SOURCE 1 TO RECORD 7 
*SOURCE FILE: 19Y08M07
000234  19Y08M07                         A8    C        14:41:19:23 14:41:19:23 01:00:40:20 01:00:40:20 
000234  19Y08M07                         A8    D    003 14:34:19:04 14:34:19:07 01:00:40:20 01:00:40:23 
*FROM CLIP NAME:  1AK9/04.SYNC.01 
*TO CLIP NAME:  1AK9/03.SYNC.01 
*A8 VOL = -12.9 DB  PAN L100 
*SOURCE FILE: 19Y08M07
000235  19Y08M07                         A     C        14:34:19:07 14:34:20:12 01:00:40:23 01:00:42:03 
*FROM CLIP NAME:  1AK9/03.SYNC.01 
*A1 VOL =  +9.0 DB  PAN R100 
*PATCH 19Y08M07:  FROM SOURCE 9 TO RECORD 1 
*SOURCE FILE: 19Y08M07
000236  MSMMMOB.04                       A2    C        00:01:22:21 00:01:24:01 01:00:40:23 01:00:42:03 
*FROM CLIP NAME:  08072019_142935.NEW.01 
*SOURCE FILE: MSMMMOB.04
000237  19Y08M07                         A3    C        14:34:19:07 14:34:20:12 01:00:40:23 01:00:42:03 
*FROM CLIP NAME:  1AK9/03.SYNC.01 
*SOURCE FILE: 19Y08M07
000238  19Y08M07                         A4    C        14:34:19:07 14:34:20:12 01:00:40:23 01:00:42:03 
*FROM CLIP NAME:  1AK9/03.SYNC.01 
*SOURCE FILE: 19Y08M07
000239  19Y08M07                         A5    C        14:34:19:07 14:34:20:12 01:00:40:23 01:00:42:03 
*FROM CLIP NAME:  1AK9/03.SYNC.01 
*SOURCE FILE: 19Y08M07
000240  19Y08M07                         A6    C        14:34:19:07 14:34:20:12 01:00:40:23 01:00:42:03 
*FROM CLIP NAME:  1AK9/03.SYNC.01 
*PATCH 19Y08M07:  FROM SOURCE 1 TO RECORD 6 
*SOURCE FILE: 19Y08M07
000241  MSMMMOB.04                       A7    C        00:01:22:21 00:01:24:01 01:00:40:23 01:00:42:03 
*FROM CLIP NAME:  08072019_142935.NEW.01 
*A7 VOL = -32.3 DB  PAN R100 
*PATCH MSMMMOB.04:  FROM SOURCE 1 TO RECORD 7 
*SOURCE FILE: MSMMMOB.04
000242  19Y08M07                         A8    C        14:34:19:07 14:34:20:12 01:00:40:23 01:00:42:03 
*FROM CLIP NAME:  1AK9/03.SYNC.01 
*A8 VOL = -12.9 DB  PAN L100 
*SOURCE FILE: 19Y08M07
000243  XSR001_02_2_LOUD_INSTRUMENTAL.MP A21   C        01:00:49:19 01:00:49:19 01:00:41:21 01:00:41:21 
000243  BL                               A21   D    036 00:00:00:00 00:00:01:11 01:00:41:21 01:00:43:07 
*FROM CLIP NAME:  XSR001_02_2 LOUD_INSTRUMENTAL.MP3 
*A21 VOL = -15.0 DB  PAN L100 
*PATCH XSR001_02_2_LOUD_INSTRUMENTAL.MP:  FROM SOURCE 2 TO RECORD 21 
*SOURCE FILE: XSR001_02_2 LOUD_INSTRUMENTAL.MP3
000244  XSR001_02_2_LOUD_INSTRUMENTAL.MP A22   C        01:00:49:19 01:00:49:19 01:00:41:21 01:00:41:21 
000244  BL                               A22   D    036 00:00:00:00 00:00:01:11 01:00:41:21 01:00:43:07 
*FROM CLIP NAME:  XSR001_02_2 LOUD_INSTRUMENTAL.MP3 
*A22 VOL = -15.0 DB  PAN R100 
*PATCH XSR001_02_2_LOUD_INSTRUMENTAL.MP:  FROM SOURCE 1 TO RECORD 22 
*SOURCE FILE: XSR001_02_2 LOUD_INSTRUMENTAL.MP3
000245  19Y08M07                         A     C        14:34:20:12 14:34:20:12 01:00:42:03 01:00:42:03 
000245  19Y08M07                         A     D    003 14:34:19:18 14:34:19:21 01:00:42:03 01:00:42:06 
*FROM CLIP NAME:  1AK9/03.SYNC.01 
*TO CLIP NAME:  1AK9/03.SYNC.01 
*A1 VOL =  +9.0 DB  PAN R100 
*PATCH 19Y08M07:  FROM SOURCE 9 TO RECORD 1 
*SOURCE FILE: 19Y08M07
000246  MSMMMOB.04                       A2    C        00:01:24:01 00:01:24:01 01:00:42:03 01:00:42:03 
000246  19Y08M07                         A2    D    003 14:34:19:18 14:34:19:21 01:00:42:03 01:00:42:06 
*FROM CLIP NAME:  08072019_142935.NEW.01 
*TO CLIP NAME:  1AK9/03.SYNC.01 
*SOURCE FILE: MSMMMOB.04
000247  19Y08M07                         A3    C        14:34:20:12 14:34:20:12 01:00:42:03 01:00:42:03 
000247  19Y08M07                         A3    D    003 14:34:19:18 14:34:19:21 01:00:42:03 01:00:42:06 
*FROM CLIP NAME:  1AK9/03.SYNC.01 
*TO CLIP NAME:  1AK9/03.SYNC.01 
*PATCH 19Y08M07:  FROM SOURCE 9 TO RECORD 3 
*SOURCE FILE: 19Y08M07
000248  19Y08M07                         A4    C        14:34:20:12 14:34:20:12 01:00:42:03 01:00:42:03 
000248  19Y08M07                         A4    D    003 14:34:19:18 14:34:19:21 01:00:42:03 01:00:42:06 
*FROM CLIP NAME:  1AK9/03.SYNC.01 
*TO CLIP NAME:  1AK9/03.SYNC.01 
*PATCH 19Y08M07:  FROM SOURCE 9 TO RECORD 4 
*SOURCE FILE: 19Y08M07
000249  19Y08M07                         A5    C        14:34:20:12 14:34:20:12 01:00:42:03 01:00:42:03 
000249  19Y08M07                         A5    D    003 14:34:19:18 14:34:19:21 01:00:42:03 01:00:42:06 
*FROM CLIP NAME:  1AK9/03.SYNC.01 
*TO CLIP NAME:  1AK9/03.SYNC.01 
*SOURCE FILE: 19Y08M07
000250  19Y08M07                         A6    C        14:34:20:12 14:34:20:12 01:00:42:03 01:00:42:03 
000250  19Y08M07                         A6    D    003 14:34:19:18 14:34:19:21 01:00:42:03 01:00:42:06 
*FROM CLIP NAME:  1AK9/03.SYNC.01 
*TO CLIP NAME:  1AK9/03.SYNC.01 
*PATCH 19Y08M07:  FROM SOURCE 1 TO RECORD 6 
*PATCH 19Y08M07:  FROM SOURCE 1 TO RECORD 6 
*SOURCE FILE: 19Y08M07
000251  MSMMMOB.04                       A7    C        00:01:24:01 00:01:24:01 01:00:42:03 01:00:42:03 
000251  19Y08M07                         A7    D    003 14:34:19:18 14:34:19:21 01:00:42:03 01:00:42:06 
*FROM CLIP NAME:  08072019_142935.NEW.01 
*TO CLIP NAME:  1AK9/03.SYNC.01 
*A7 VOL = -32.3 DB  PAN R100 
*A7 VOL =  +9.0 DB  PAN R100 
*PATCH MSMMMOB.04:  FROM SOURCE 1 TO RECORD 7 
*PATCH 19Y08M07:  FROM SOURCE 9 TO RECORD 7 
*SOURCE FILE: MSMMMOB.04
000252  19Y08M07                         A8    C        14:34:20:12 14:34:20:12 01:00:42:03 01:00:42:03 
000252  19Y08M07                         A8    D    003 14:34:19:18 14:34:19:21 01:00:42:03 01:00:42:06 
*FROM CLIP NAME:  1AK9/03.SYNC.01 
*TO CLIP NAME:  1AK9/03.SYNC.01 
*A8 VOL = -12.9 DB  PAN L100 
*A8 VOL = -45.0 DB  PAN L100 
*SOURCE FILE: 19Y08M07
000253  MSMMMOB.57                       V     C        00:00:59:16 00:01:01:11 01:00:42:04 01:00:43:24 
*FROM CLIP NAME:  CAM3_S001_S001_T003 
*SOURCE FILE: MSMMMOB.57
000254  19Y08M07                         A13   C        13:13:18:11 13:13:37:11 01:00:42:04 01:01:01:04 
*FROM CLIP NAME:  1AKZ/03.SUB.01 
*A13 VOL = -11.0 DB  PAN L100 
*PATCH 19Y08M07:  FROM SOURCE 1 TO RECORD 13 
*SOURCE FILE: 19Y08M07
000255  19Y08M07                         A14   C        13:13:18:11 13:13:38:07 01:00:42:04 01:01:02:00 
*FROM CLIP NAME:  1AKZ/03.SUB.01 
*A14 VOL = -11.0 DB  PAN R100 
*PATCH 19Y08M07:  FROM SOURCE 4 TO RECORD 14 
*SOURCE FILE: 19Y08M07
000256  19Y08M07                         A     C        14:34:19:21 14:34:21:18 01:00:42:06 01:00:44:03 
*FROM CLIP NAME:  1AK9/03.SYNC.01 
*SOURCE FILE: 19Y08M07
000257  19Y08M07                         A2    C        14:34:19:21 14:34:21:18 01:00:42:06 01:00:44:03 
*FROM CLIP NAME:  1AK9/03.SYNC.01 
*SOURCE FILE: 19Y08M07
000258  19Y08M07                         A3    C        14:34:19:21 14:34:21:18 01:00:42:06 01:00:44:03 
*FROM CLIP NAME:  1AK9/03.SYNC.01 
*PATCH 19Y08M07:  FROM SOURCE 9 TO RECORD 3 
*SOURCE FILE: 19Y08M07
000259  19Y08M07                         A4    C        14:34:19:21 14:34:21:18 01:00:42:06 01:00:44:03 
*FROM CLIP NAME:  1AK9/03.SYNC.01 
*PATCH 19Y08M07:  FROM SOURCE 9 TO RECORD 4 
*SOURCE FILE: 19Y08M07
000260  19Y08M07                         A5    C        14:34:19:21 14:34:21:18 01:00:42:06 01:00:44:03 
*FROM CLIP NAME:  1AK9/03.SYNC.01 
*SOURCE FILE: 19Y08M07
000261  19Y08M07                         A6    C        14:34:19:21 14:34:21:18 01:00:42:06 01:00:44:03 
*FROM CLIP NAME:  1AK9/03.SYNC.01 
*PATCH 19Y08M07:  FROM SOURCE 1 TO RECORD 6 
*SOURCE FILE: 19Y08M07
000262  19Y08M07                         A7    C        14:34:19:21 14:34:21:18 01:00:42:06 01:00:44:03 
*FROM CLIP NAME:  1AK9/03.SYNC.01 
*A7 VOL =  +9.0 DB  PAN R100 
*PATCH 19Y08M07:  FROM SOURCE 9 TO RECORD 7 
*SOURCE FILE: 19Y08M07
000263  19Y08M07                         A8    C        14:34:19:21 14:34:21:18 01:00:42:06 01:00:44:03 
*FROM CLIP NAME:  1AK9/03.SYNC.01 
*A8 VOL = -45.0 DB  PAN L100 
*SOURCE FILE: 19Y08M07
000264  MSMMMOB.66                       V     C        00:00:57:06 00:01:00:01 01:00:43:24 01:00:46:19 
*FROM CLIP NAME:  CAM5___S001_S001_T003 
*SOURCE FILE: MSMMMOB.66
000265  DCD129_05_MISS_ADVENTURE.MP3     A9    C        01:00:00:00 01:00:11:15 01:00:44:02 01:00:55:17 
*FROM CLIP NAME:  DCD129_05 MISS ADVENTURE.MP3 
*A9 VOL =  -6.0 DB  PAN L100 
*PATCH DCD129_05_MISS_ADVENTURE.MP3:  FROM SOURCE 1 TO RECORD 9 
*SOURCE FILE: DCD129_05 MISS ADVENTURE.MP3
000266  DCD129_05_MISS_ADVENTURE.MP3     A10   C        01:00:00:00 01:00:11:15 01:00:44:02 01:00:55:17 
*FROM CLIP NAME:  DCD129_05 MISS ADVENTURE.MP3 
*A10 VOL =  -6.0 DB  PAN R100 
*PATCH DCD129_05_MISS_ADVENTURE.MP3:  FROM SOURCE 2 TO RECORD 10 
*SOURCE FILE: DCD129_05 MISS ADVENTURE.MP3
000267  19Y08M07                         A     C        14:41:54:04 14:41:54:24 01:00:44:03 01:00:44:23 
*FROM CLIP NAME:  1AK9/04.SYNC.01 
*SOURCE FILE: 19Y08M07
000268  19Y08M07                         A2    C        14:41:54:04 14:41:54:24 01:00:44:03 01:00:44:23 
*FROM CLIP NAME:  1AK9/04.SYNC.01 
*SOURCE FILE: 19Y08M07
000269  19Y08M07                         A3    C        14:41:54:04 14:41:54:24 01:00:44:03 01:00:44:23 
*FROM CLIP NAME:  1AK9/04.SYNC.01 
*SOURCE FILE: 19Y08M07
000270  19Y08M07                         A4    C        14:41:54:04 14:41:54:24 01:00:44:03 01:00:44:23 
*FROM CLIP NAME:  1AK9/04.SYNC.01 
*SOURCE FILE: 19Y08M07
000271  19Y08M07                         A5    C        14:41:54:04 14:41:54:24 01:00:44:03 01:00:44:23 
*FROM CLIP NAME:  1AK9/04.SYNC.01 
*SOURCE FILE: 19Y08M07
000272  19Y08M07                         A6    C        14:41:54:04 14:41:54:24 01:00:44:03 01:00:44:23 
*FROM CLIP NAME:  1AK9/04.SYNC.01 
*PATCH 19Y08M07:  FROM SOURCE 1 TO RECORD 6 
*SOURCE FILE: 19Y08M07
000273  19Y08M07                         A7    C        14:41:54:04 14:41:54:24 01:00:44:03 01:00:44:23 
*FROM CLIP NAME:  1AK9/04.SYNC.01 
*PATCH 19Y08M07:  FROM SOURCE 8 TO RECORD 7 
*SOURCE FILE: 19Y08M07
000274  19Y08M07                         A8    C        14:41:54:04 14:41:54:24 01:00:44:03 01:00:44:23 
*FROM CLIP NAME:  1AK9/04.SYNC.01 
*PATCH 19Y08M07:  FROM SOURCE 9 TO RECORD 8 
*SOURCE FILE: 19Y08M07
000275  19Y08M07                         A7    C        14:34:22:13 14:34:26:03 01:00:44:23 01:00:48:13 
*FROM CLIP NAME:  1AK9/03.SYNC.01 
*A7 VOL =  +9.0 DB  PAN R100 
*PATCH 19Y08M07:  FROM SOURCE 9 TO RECORD 7 
*SOURCE FILE: 19Y08M07
000276  19Y08M07                         A2    C        14:34:22:13 14:34:29:04 01:00:44:23 01:00:51:14 
*FROM CLIP NAME:  1AK9/03.SYNC.01 
*SOURCE FILE: 19Y08M07
000277  19Y08M07                         A3    C        14:34:22:13 14:34:29:04 01:00:44:23 01:00:51:14 
*FROM CLIP NAME:  1AK9/03.SYNC.01 
*PATCH 19Y08M07:  FROM SOURCE 9 TO RECORD 3 
*SOURCE FILE: 19Y08M07
000278  19Y08M07                         A4    C        14:34:22:13 14:34:29:04 01:00:44:23 01:00:51:14 
*FROM CLIP NAME:  1AK9/03.SYNC.01 
*PATCH 19Y08M07:  FROM SOURCE 9 TO RECORD 4 
*SOURCE FILE: 19Y08M07
000279  19Y08M07                         A     C        14:34:22:13 14:34:32:17 01:00:44:23 01:00:55:02 
*FROM CLIP NAME:  1AK9/03.SYNC.01 
*SOURCE FILE: 19Y08M07
000280  19Y08M07                         A5    C        14:34:22:13 14:34:32:17 01:00:44:23 01:00:55:02 
*FROM CLIP NAME:  1AK9/03.SYNC.01 
*SOURCE FILE: 19Y08M07
000281  19Y08M07                         A6    C        14:34:22:13 14:34:32:17 01:00:44:23 01:00:55:02 
*FROM CLIP NAME:  1AK9/03.SYNC.01 
*PATCH 19Y08M07:  FROM SOURCE 1 TO RECORD 6 
*SOURCE FILE: 19Y08M07
000282  19Y08M07                         A8    C        14:34:22:13 14:34:32:17 01:00:44:23 01:00:55:02 
*FROM CLIP NAME:  1AK9/03.SYNC.01 
*A8 VOL = -45.0 DB  PAN L100 
*SOURCE FILE: 19Y08M07
000283  MSMMMOB.61                       V     C        02:14:34:20 02:14:37:05 01:00:46:19 01:00:49:04 
*FROM CLIP NAME:  C0003_V1-0005 
*SOURCE FILE: MSMMMOB.61
000284  19Y08M07                         A7    C        14:34:26:03 14:34:29:04 01:00:48:13 01:00:51:14 
*FROM CLIP NAME:  1AK9/03.SYNC.01 
*A7 VOL =  +9.0 DB  PAN R100 
*PATCH 19Y08M07:  FROM SOURCE 9 TO RECORD 7 
*SOURCE FILE: 19Y08M07
000285  MSMMMOB.25                       V     C        05:45:27:11 05:45:30:14 01:00:49:04 01:00:52:07 
*FROM CLIP NAME:  C0003_V1-0006 
*SOURCE FILE: MSMMMOB.25
000286  19Y08M07                         A2    C        14:41:15:13 14:41:16:04 01:00:51:14 01:00:52:05 
*FROM CLIP NAME:  1AK9/04.SYNC.01 
*SOURCE FILE: 19Y08M07
000287  19Y08M07                         A3    C        14:41:15:13 14:41:16:04 01:00:51:14 01:00:52:05 
*FROM CLIP NAME:  1AK9/04.SYNC.01 
*SOURCE FILE: 19Y08M07
000288  19Y08M07                         A4    C        14:41:15:13 14:41:16:04 01:00:51:14 01:00:52:05 
*FROM CLIP NAME:  1AK9/04.SYNC.01 
*SOURCE FILE: 19Y08M07
000289  19Y08M07                         A7    C        14:41:15:13 14:41:16:04 01:00:51:14 01:00:52:05 
*FROM CLIP NAME:  1AK9/04.SYNC.01 
*PATCH 19Y08M07:  FROM SOURCE 9 TO RECORD 7 
*SOURCE FILE: 19Y08M07
000290  19Y08M07                         A2    C        14:34:29:20 14:34:32:17 01:00:52:05 01:00:55:02 
*FROM CLIP NAME:  1AK9/03.SYNC.01 
*SOURCE FILE: 19Y08M07
000291  19Y08M07                         A3    C        14:34:29:20 14:34:32:17 01:00:52:05 01:00:55:02 
*FROM CLIP NAME:  1AK9/03.SYNC.01 
*PATCH 19Y08M07:  FROM SOURCE 9 TO RECORD 3 
*SOURCE FILE: 19Y08M07
000292  19Y08M07                         A4    C        14:34:29:20 14:34:32:17 01:00:52:05 01:00:55:02 
*FROM CLIP NAME:  1AK9/03.SYNC.01 
*PATCH 19Y08M07:  FROM SOURCE 9 TO RECORD 4 
*SOURCE FILE: 19Y08M07
000293  19Y08M07                         A7    C        14:34:29:20 14:34:32:17 01:00:52:05 01:00:55:02 
*FROM CLIP NAME:  1AK9/03.SYNC.01 
*A7 VOL =  -0.1 DB  PAN R100 
*PATCH 19Y08M07:  FROM SOURCE 9 TO RECORD 7 
*SOURCE FILE: 19Y08M07
000294  MSMMMOB.57                       V     C        00:01:09:19 00:01:13:06 01:00:52:07 01:00:55:19 
*FROM CLIP NAME:  CAM3_S001_S001_T003 
*SOURCE FILE: MSMMMOB.57
000295  19Y08M07                         A     C        14:41:52:09 14:41:55:20 01:00:55:02 01:00:58:13 
*FROM CLIP NAME:  1AK9/04.SYNC.01 
*SOURCE FILE: 19Y08M07
000296  19Y08M07                         A2    C        14:41:52:09 14:41:55:20 01:00:55:02 01:00:58:13 
*FROM CLIP NAME:  1AK9/04.SYNC.01 
*SOURCE FILE: 19Y08M07
000297  19Y08M07                         A3    C        14:41:52:09 14:41:55:20 01:00:55:02 01:00:58:13 
*FROM CLIP NAME:  1AK9/04.SYNC.01 
*SOURCE FILE: 19Y08M07
000298  19Y08M07                         A4    C        14:41:52:09 14:41:55:20 01:00:55:02 01:00:58:13 
*FROM CLIP NAME:  1AK9/04.SYNC.01 
*SOURCE FILE: 19Y08M07
000299  19Y08M07                         A5    C        14:41:52:09 14:41:55:20 01:00:55:02 01:00:58:13 
*FROM CLIP NAME:  1AK9/04.SYNC.01 
*SOURCE FILE: 19Y08M07
000300  19Y08M07                         A6    C        14:41:52:09 14:41:55:20 01:00:55:02 01:00:58:13 
*FROM CLIP NAME:  1AK9/04.SYNC.01 
*PATCH 19Y08M07:  FROM SOURCE 1 TO RECORD 6 
*SOURCE FILE: 19Y08M07
000301  19Y08M07                         A7    C        14:41:52:09 14:41:55:20 01:00:55:02 01:00:58:13 
*FROM CLIP NAME:  1AK9/04.SYNC.01 
*PATCH 19Y08M07:  FROM SOURCE 8 TO RECORD 7 
*SOURCE FILE: 19Y08M07
000302  19Y08M07                         A8    C        14:41:52:09 14:41:55:20 01:00:55:02 01:00:58:13 
*FROM CLIP NAME:  1AK9/04.SYNC.01 
*A8 VOL =  +8.0 DB  PAN L100 
*PATCH 19Y08M07:  FROM SOURCE 9 TO RECORD 8 
*SOURCE FILE: 19Y08M07
000303  DCD129_05_MISS_ADVENTURE.MP3     A9    C        01:00:11:15 01:00:11:15 01:00:55:17 01:00:55:17 
000303  BL                               A9    D    122 00:00:00:00 00:00:04:22 01:00:55:17 01:01:00:14 
*FROM CLIP NAME:  DCD129_05 MISS ADVENTURE.MP3 
*A9 VOL =  -6.0 DB  PAN L100 
*PATCH DCD129_05_MISS_ADVENTURE.MP3:  FROM SOURCE 1 TO RECORD 9 
*SOURCE FILE: DCD129_05 MISS ADVENTURE.MP3
000304  DCD129_05_MISS_ADVENTURE.MP3     A10   C        01:00:11:15 01:00:11:15 01:00:55:17 01:00:55:17 
000304  BL                               A10   D    122 00:00:00:00 00:00:04:22 01:00:55:17 01:01:00:14 
*FROM CLIP NAME:  DCD129_05 MISS ADVENTURE.MP3 
*A10 VOL =  -6.0 DB  PAN R100 
*PATCH DCD129_05_MISS_ADVENTURE.MP3:  FROM SOURCE 2 TO RECORD 10 
*SOURCE FILE: DCD129_05 MISS ADVENTURE.MP3
000305  MSMMMOB.66                       V     C        00:01:09:01 00:01:11:01 01:00:55:19 01:00:57:19 
*FROM CLIP NAME:  CAM5___S001_S001_T003 
*SOURCE FILE: MSMMMOB.66
000306  MSMMMOB.57                       V     C        00:01:15:06 00:01:17:14 01:00:57:19 01:01:00:02 
*FROM CLIP NAME:  CAM3_S001_S001_T003 
*SOURCE FILE: MSMMMOB.57
000307  19Y08M07                         A3    C        14:34:36:03 14:34:39:00 01:00:58:13 01:01:01:10 
*FROM CLIP NAME:  1AK9/03.SYNC.01 
*PATCH 19Y08M07:  FROM SOURCE 9 TO RECORD 3 
*SOURCE FILE: 19Y08M07
000308  19Y08M07                         A4    C        14:34:36:03 14:34:39:00 01:00:58:13 01:01:01:10 
*FROM CLIP NAME:  1AK9/03.SYNC.01 
*PATCH 19Y08M07:  FROM SOURCE 9 TO RECORD 4 
*SOURCE FILE: 19Y08M07
000309  19Y08M07                         A     C        14:34:36:03 14:34:42:19 01:00:58:13 01:01:05:04 
*FROM CLIP NAME:  1AK9/03.SYNC.01 
*A1 VOL =  +0.3 DB  PAN R100 
*SOURCE FILE: 19Y08M07
000310  19Y08M07                         A2    C        14:34:36:03 14:34:42:19 01:00:58:13 01:01:05:04 
*FROM CLIP NAME:  1AK9/03.SYNC.01 
*A2 VOL =  +0.3 DB  PAN L100 
*SOURCE FILE: 19Y08M07
000311  19Y08M07                         A5    C        14:34:36:03 14:34:42:19 01:00:58:13 01:01:05:04 
*FROM CLIP NAME:  1AK9/03.SYNC.01 
*A5 VOL =  +0.3 DB  PAN R100 
*SOURCE FILE: 19Y08M07
000312  19Y08M07                         A6    C        14:34:36:03 14:34:42:19 01:00:58:13 01:01:05:04 
*FROM CLIP NAME:  1AK9/03.SYNC.01 
*A6 VOL =  +0.3 DB  PAN L100 
*PATCH 19Y08M07:  FROM SOURCE 1 TO RECORD 6 
*SOURCE FILE: 19Y08M07
000313  19Y08M07                         A7    C        14:34:36:03 14:34:42:19 01:00:58:13 01:01:05:04 
*FROM CLIP NAME:  1AK9/03.SYNC.01 
*A7 VOL =  +8.4 DB  PAN R100 
*PATCH 19Y08M07:  FROM SOURCE 9 TO RECORD 7 
*SOURCE FILE: 19Y08M07
000314  19Y08M07                         A8    C        14:34:36:03 14:34:42:19 01:00:58:13 01:01:05:04 
*FROM CLIP NAME:  1AK9/03.SYNC.01 
*A8 VOL = -44.7 DB  PAN L100 
*SOURCE FILE: 19Y08M07
000315  MSMMMOB.66                       V     C        00:01:13:09 00:01:14:23 01:01:00:02 01:01:01:16 
*FROM CLIP NAME:  CAM5___S001_S001_T003 
*SOURCE FILE: MSMMMOB.66
000316  MSMMMOB.04                       A12   C        14:39:34:13 14:39:54:18 01:01:01:04 01:01:21:09 
M2      MSMMMOB.04                                025.0 14:39:34:13 
*FROM CLIP NAME:  GX016378 
*A12 VOL = -17.1 DB  PAN L100 
*PATCH MSMMMOB.04:  FROM SOURCE 2 TO RECORD 12 
*SOURCE FILE: MSMMMOB.04
000317  MSMMMOB.04                       A13   C        14:39:34:13 14:39:54:18 01:01:01:04 01:01:21:09 
M2      MSMMMOB.04                                025.0 14:39:34:13 
*FROM CLIP NAME:  GX016378 
*A13 VOL = -17.1 DB  PAN R100 
*PATCH MSMMMOB.04:  FROM SOURCE 1 TO RECORD 13 
*SOURCE FILE: MSMMMOB.04
000318  324967__MARKKUYP__VUORISTORATA-V A16   C        01:01:33:23 01:01:36:20 01:01:01:06 01:01:04:03 
*FROM CLIP NAME:  324967__MARKKUYP__VUORISTORATA-VAUNUN-SISALTA-ROLLER-COASTER-INSIDE-A-CAR.WAV 
*A16 VOL = -19.0 DB  PAN L100 
*PATCH 324967__MARKKUYP__VUORISTORATA-V:  FROM SOURCE 2 TO RECORD 16 
*SOURCE FILE: 324967__MARKKUYP__VUORISTORATA-VAUNUN-SISALTA-ROLLER-COASTER-INSIDE-A-CAR.WAV
000319  324967__MARKKUYP__VUORISTORATA-V A17   C        01:01:33:23 01:01:36:20 01:01:01:06 01:01:04:03 
*FROM CLIP NAME:  324967__MARKKUYP__VUORISTORATA-VAUNUN-SISALTA-ROLLER-COASTER-INSIDE-A-CAR.WAV 
*A17 VOL = -19.0 DB  PAN R100 
*PATCH 324967__MARKKUYP__VUORISTORATA-V:  FROM SOURCE 1 TO RECORD 17 
*SOURCE FILE: 324967__MARKKUYP__VUORISTORATA-VAUNUN-SISALTA-ROLLER-COASTER-INSIDE-A-CAR.WAV
000320  MSMMMOB.04                       V     C        00:01:42:21 00:01:44:14 01:01:01:16 01:01:03:09 
*FROM CLIP NAME:  08072019_142935.NEW.01 
*SOURCE FILE: MSMMMOB.04
000321  BL                               A9    C        00:00:00:00 00:00:00:00 01:01:01:20 01:01:01:20 
000321  MSMMMOB.01                       A9    D    031 09:37:57:08 09:37:58:14 01:01:01:20 01:01:03:01 
M2      MSMMMOB.01                                025.0 09:37:57:08 
*TO CLIP NAME:  GX013210 
*A9 VOL = -14.0 DB  PAN R100 
*PATCH MSMMMOB.01:  FROM SOURCE 1 TO RECORD 9 
*SOURCE FILE: (NULL)
000322  BL                               A10   C        00:00:00:00 00:00:00:00 01:01:01:20 01:01:01:20 
000322  MSMMMOB.01                       A10   D    031 09:37:57:08 09:37:58:14 01:01:01:20 01:01:03:01 
M2      MSMMMOB.01                                025.0 09:37:57:08 
*TO CLIP NAME:  GX013210 
*A10 VOL = -14.0 DB  PAN L100 
*PATCH MSMMMOB.01:  FROM SOURCE 2 TO RECORD 10 
*SOURCE FILE: (NULL)
000323  XSR001_02_LOUD.MP3               A18   C        01:02:18:16 01:02:37:01 01:01:01:21 01:01:20:06 
*FROM CLIP NAME:  XSR001_02 LOUD.MP3 
*A18 VOL =  -3.0 DB  PAN L100 
*PATCH XSR001_02_LOUD.MP3:  FROM SOURCE 2 TO RECORD 18 
*SOURCE FILE: XSR001_02 LOUD.MP3
000324  XSR001_02_LOUD.MP3               A19   C        01:02:18:16 01:02:37:01 01:01:01:21 01:01:20:06 
*FROM CLIP NAME:  XSR001_02 LOUD.MP3 
*A19 VOL =  -3.0 DB  PAN R100 
*PATCH XSR001_02_LOUD.MP3:  FROM SOURCE 1 TO RECORD 19 
*SOURCE FILE: XSR001_02 LOUD.MP3
000325  MSMMMOB.01                       A9    C        09:37:58:14 09:38:16:22 01:01:03:01 01:01:21:09 
M2      MSMMMOB.01                                025.0 09:37:58:14 
*FROM CLIP NAME:  GX013210 
*A9 VOL = -14.0 DB  PAN R100 
*PATCH MSMMMOB.01:  FROM SOURCE 1 TO RECORD 9 
*SOURCE FILE: MSMMMOB.01
000326  MSMMMOB.01                       A10   C        09:37:58:14 09:38:16:22 01:01:03:01 01:01:21:09 
M2      MSMMMOB.01                                025.0 09:37:58:14 
*FROM CLIP NAME:  GX013210 
*A10 VOL = -14.0 DB  PAN L100 
*PATCH MSMMMOB.01:  FROM SOURCE 2 TO RECORD 10 
*SOURCE FILE: MSMMMOB.01
000327  MSMMMOB.35                       V     C        14:42:01:24 14:42:03:08 01:01:03:09 01:01:04:15 
M2      MSMMMOB.35                                027.5 14:42:01:24 
*FROM CLIP NAME:  1A-9-4-CAMA 
*SOURCE FILE: MSMMMOB.35
000328  324967__MARKKUYP__VUORISTORATA-V A16   C        01:01:36:20 01:01:52:23 01:01:04:03 01:01:20:06 
*FROM CLIP NAME:  324967__MARKKUYP__VUORISTORATA-VAUNUN-SISALTA-ROLLER-COASTER-INSIDE-A-CAR.WAV 
*A16 VOL = -30.0 DB  PAN L100 
*PATCH 324967__MARKKUYP__VUORISTORATA-V:  FROM SOURCE 2 TO RECORD 16 
*SOURCE FILE: 324967__MARKKUYP__VUORISTORATA-VAUNUN-SISALTA-ROLLER-COASTER-INSIDE-A-CAR.WAV
000329  324967__MARKKUYP__VUORISTORATA-V A17   C        01:01:36:20 01:01:52:23 01:01:04:03 01:01:20:06 
*FROM CLIP NAME:  324967__MARKKUYP__VUORISTORATA-VAUNUN-SISALTA-ROLLER-COASTER-INSIDE-A-CAR.WAV 
*A17 VOL = -30.0 DB  PAN R100 
*PATCH 324967__MARKKUYP__VUORISTORATA-V:  FROM SOURCE 1 TO RECORD 17 
*SOURCE FILE: 324967__MARKKUYP__VUORISTORATA-VAUNUN-SISALTA-ROLLER-COASTER-INSIDE-A-CAR.WAV
000330  MSMMMOB.01                       V     C        09:39:04:07 09:39:07:04 01:01:04:15 01:01:05:20 
M2      MSMMMOB.01                                060.0 09:39:04:07 
*FROM CLIP NAME:  GX013210 
*SOURCE FILE: MSMMMOB.01
000331  19Y08M07                         A     C        14:34:42:14 14:34:43:16 01:01:05:04 01:01:06:06 
*FROM CLIP NAME:  1AK9/03.SYNC.01 
*SOURCE FILE: 19Y08M07
000332  19Y08M07                         A2    C        14:34:42:14 14:34:43:16 01:01:05:04 01:01:06:06 
*FROM CLIP NAME:  1AK9/03.SYNC.01 
*SOURCE FILE: 19Y08M07
000333  19Y08M07                         A5    C        14:34:42:14 14:34:43:16 01:01:05:04 01:01:06:06 
*FROM CLIP NAME:  1AK9/03.SYNC.01 
*SOURCE FILE: 19Y08M07
000334  19Y08M07                         A6    C        14:34:42:14 14:34:43:16 01:01:05:04 01:01:06:06 
*FROM CLIP NAME:  1AK9/03.SYNC.01 
*PATCH 19Y08M07:  FROM SOURCE 1 TO RECORD 6 
*SOURCE FILE: 19Y08M07
000335  19Y08M07                         A7    C        14:34:42:14 14:34:43:16 01:01:05:04 01:01:06:06 
*FROM CLIP NAME:  1AK9/03.SYNC.01 
*A7 VOL =  +8.0 DB  PAN R100 
*PATCH 19Y08M07:  FROM SOURCE 9 TO RECORD 7 
*SOURCE FILE: 19Y08M07
000336  19Y08M07                         A8    C        14:34:42:14 14:34:43:16 01:01:05:04 01:01:06:06 
*FROM CLIP NAME:  1AK9/03.SYNC.01 
*A8 VOL = -45.0 DB  PAN L100 
*SOURCE FILE: 19Y08M07
000337  MSMMMOB.61                       V     C        02:14:53:00 02:14:53:20 01:01:05:20 01:01:06:15 
*FROM CLIP NAME:  C0003_V1-0005 
*SOURCE FILE: MSMMMOB.61
000338  MSMMMOB.82                       V     C        00:01:44:09 00:01:45:24 01:01:06:15 01:01:08:05 
*FROM CLIP NAME:  08072019_143702.NEW.01 
*SOURCE FILE: MSMMMOB.82
000339  19Y08M07                         A     C        14:42:07:21 14:42:09:11 01:01:06:15 01:01:08:05 
*FROM CLIP NAME:  1AK9/04.SYNC.01 
*A1 VOL = -15.0 DB  PAN R100 
*SOURCE FILE: 19Y08M07
000340  19Y08M07                         A2    C        14:42:07:21 14:42:09:11 01:01:06:15 01:01:08:05 
*FROM CLIP NAME:  1AK9/04.SYNC.01 
*A2 VOL = -15.0 DB  PAN L100 
*SOURCE FILE: 19Y08M07
000341  19Y08M07                         A3    C        14:42:07:21 14:42:09:11 01:01:06:15 01:01:08:05 
*FROM CLIP NAME:  1AK9/04.SYNC.01 
*A3 VOL = -14.0 DB  PAN R100 
*SOURCE FILE: 19Y08M07
000342  19Y08M07                         A4    C        14:42:07:21 14:42:09:11 01:01:06:15 01:01:08:05 
*FROM CLIP NAME:  1AK9/04.SYNC.01 
*A4 VOL = -15.0 DB  PAN L100 
*SOURCE FILE: 19Y08M07
000343  19Y08M07                         A5    C        14:42:07:21 14:42:09:11 01:01:06:15 01:01:08:05 
*FROM CLIP NAME:  1AK9/04.SYNC.01 
*A5 VOL = -14.0 DB  PAN R100 
*SOURCE FILE: 19Y08M07
000344  19Y08M07                         A6    C        14:42:07:21 14:42:09:11 01:01:06:15 01:01:08:05 
*FROM CLIP NAME:  1AK9/04.SYNC.01 
*A6 VOL = -14.0 DB  PAN L100 
*PATCH 19Y08M07:  FROM SOURCE 1 TO RECORD 6 
*SOURCE FILE: 19Y08M07
000345  19Y08M07                         A7    C        14:42:07:21 14:42:09:11 01:01:06:15 01:01:08:05 
*FROM CLIP NAME:  1AK9/04.SYNC.01 
*A7 VOL = -15.0 DB  PAN R100 
*PATCH 19Y08M07:  FROM SOURCE 9 TO RECORD 7 
*SOURCE FILE: 19Y08M07
000346  19Y08M07                         A8    C        14:42:07:21 14:42:09:11 01:01:06:15 01:01:08:05 
*FROM CLIP NAME:  1AK9/04.SYNC.01 
*A8 VOL = -15.0 DB  PAN L100 
*SOURCE FILE: 19Y08M07
000347  MSMMMOB.01                       V     C        09:39:07:03 09:39:08:15 01:01:08:05 01:01:08:20 
M2      MSMMMOB.01                                060.0 09:39:07:03 
*FROM CLIP NAME:  GX013210 
*SOURCE FILE: MSMMMOB.01
000348  MSMMMOB.35                       V     C        14:42:04:13 14:42:05:04 01:01:08:20 01:01:09:10 
M2      MSMMMOB.35                                027.5 14:42:04:13 
*FROM CLIP NAME:  1A-9-4-CAMA 
*SOURCE FILE: MSMMMOB.35
000349  MSMMMOB.35                       A     C        14:42:04:13 14:42:05:03 01:01:08:20 01:01:09:10 
M2      MSMMMOB.35                                025.0 14:42:04:13 
*FROM CLIP NAME:  1A-9-4-CAMA 
*A1 VOL = -14.0 DB  PAN R100 
*SOURCE FILE: MSMMMOB.35
000350  MSMMMOB.35                       A2    C        14:42:04:13 14:42:05:03 01:01:08:20 01:01:09:10 
M2      MSMMMOB.35                                025.0 14:42:04:13 
*FROM CLIP NAME:  1A-9-4-CAMA 
*A2 VOL = -14.0 DB  PAN L100 
*SOURCE FILE: MSMMMOB.35
000351  19Y08M07                         A3    C        14:35:04:07 14:35:05:12 01:01:09:10 01:01:10:15 
*FROM CLIP NAME:  1AK9/03.SYNC.01 
*SOURCE FILE: 19Y08M07
000352  19Y08M07                         A4    C        14:35:04:07 14:35:05:12 01:01:09:10 01:01:10:15 
*FROM CLIP NAME:  1AK9/03.SYNC.01 
*SOURCE FILE: 19Y08M07
000353  19Y08M07                         A5    C        14:35:04:07 14:35:05:12 01:01:09:10 01:01:10:15 
*FROM CLIP NAME:  1AK9/03.SYNC.01 
*SOURCE FILE: 19Y08M07
000354  19Y08M07                         A6    C        14:35:04:07 14:35:05:12 01:01:09:10 01:01:10:15 
*FROM CLIP NAME:  1AK9/03.SYNC.01 
*PATCH 19Y08M07:  FROM SOURCE 1 TO RECORD 6 
*SOURCE FILE: 19Y08M07
000355  19Y08M07                         A7    C        14:35:04:07 14:35:05:12 01:01:09:10 01:01:10:15 
*FROM CLIP NAME:  1AK9/03.SYNC.01 
*PATCH 19Y08M07:  FROM SOURCE 8 TO RECORD 7 
*SOURCE FILE: 19Y08M07
000356  19Y08M07                         A8    C        14:35:04:07 14:35:05:12 01:01:09:10 01:01:10:15 
*FROM CLIP NAME:  1AK9/03.SYNC.01 
*PATCH 19Y08M07:  FROM SOURCE 9 TO RECORD 8 
*SOURCE FILE: 19Y08M07
000357  MSMMMOB.57                       V     C        00:01:44:04 00:01:45:10 01:01:09:10 01:01:10:16 
*FROM CLIP NAME:  CAM3_S001_S001_T003 
*SOURCE FILE: MSMMMOB.57
000358  19Y08M07                         A     C        14:35:04:07 14:35:05:13 01:01:09:10 01:01:10:16 
*FROM CLIP NAME:  1AK9/03.SYNC.01 
*SOURCE FILE: 19Y08M07
000359  19Y08M07                         A2    C        14:35:04:07 14:35:05:13 01:01:09:10 01:01:10:16 
*FROM CLIP NAME:  1AK9/03.SYNC.01 
*SOURCE FILE: 19Y08M07
000360  19Y08M07                         A3    C        14:42:20:04 14:42:22:21 01:01:10:15 01:01:13:07 
*FROM CLIP NAME:  1AK9/04.SYNC.01 
*A3 VOL = -32.6 DB  PAN R100 
*SOURCE FILE: 19Y08M07
000361  19Y08M07                         A4    C        14:42:20:04 14:42:22:21 01:01:10:15 01:01:13:07 
*FROM CLIP NAME:  1AK9/04.SYNC.01 
*A4 VOL = -32.6 DB  PAN L100 
*SOURCE FILE: 19Y08M07
000362  19Y08M07                         A5    C        14:42:20:04 14:42:22:21 01:01:10:15 01:01:13:07 
*FROM CLIP NAME:  1AK9/04.SYNC.01 
*A5 VOL = -32.6 DB  PAN R100 
*SOURCE FILE: 19Y08M07
000363  19Y08M07                         A6    C        14:42:20:04 14:42:22:21 01:01:10:15 01:01:13:07 
*FROM CLIP NAME:  1AK9/04.SYNC.01 
*A6 VOL = -32.6 DB  PAN L100 
*PATCH 19Y08M07:  FROM SOURCE 1 TO RECORD 6 
*SOURCE FILE: 19Y08M07
000364  19Y08M07                         A7    C        14:42:20:04 14:42:22:21 01:01:10:15 01:01:13:07 
*FROM CLIP NAME:  1AK9/04.SYNC.01 
*A7 VOL = -32.3 DB  PAN R100 
*PATCH 19Y08M07:  FROM SOURCE 9 TO RECORD 7 
*SOURCE FILE: 19Y08M07
000365  19Y08M07                         A8    C        14:42:20:04 14:42:22:21 01:01:10:15 01:01:13:07 
*FROM CLIP NAME:  1AK9/04.SYNC.01 
*A8 VOL = -32.3 DB  PAN L100 
*SOURCE FILE: 19Y08M07
000366  MSMMMOB.82                       V     C        00:01:56:14 00:01:58:24 01:01:10:16 01:01:13:01 
*FROM CLIP NAME:  08072019_143702.NEW.01 
*SOURCE FILE: MSMMMOB.82
000367  19Y08M07                         A     C        14:42:20:05 14:42:22:21 01:01:10:16 01:01:13:07 
*FROM CLIP NAME:  1AK9/04.SYNC.01 
*A1 VOL = -32.6 DB  PAN R100 
*SOURCE FILE: 19Y08M07
000368  19Y08M07                         A2    C        14:42:20:05 14:42:22:21 01:01:10:16 01:01:13:07 
*FROM CLIP NAME:  1AK9/04.SYNC.01 
*A2 VOL = -32.6 DB  PAN L100 
*SOURCE FILE: 19Y08M07
000369  MSMMMOB.35                       V     C        14:42:14:00 14:42:15:10 01:01:13:01 01:01:14:08 
M2      MSMMMOB.35                                027.5 14:42:14:00 
*FROM CLIP NAME:  1A-9-4-CAMA 
*SOURCE FILE: MSMMMOB.35
000370  MSMMMOB.04                       V     C        14:43:01:03 14:43:02:18 01:01:14:08 01:01:15:10 
M2      MSMMMOB.04                                037.5 14:43:01:03 
*FROM CLIP NAME:  GX016378 
*SOURCE FILE: MSMMMOB.04
000371  MSMMMOB.06                       V     C        14:35:47:02 14:35:48:17 01:01:15:10 01:01:16:12 
M2      MSMMMOB.06                                037.5 14:35:47:02 
*FROM CLIP NAME:  GX013214 
*SOURCE FILE: MSMMMOB.06
000372  19Y08M07                         A     C        14:34:55:24 14:34:56:12 01:01:16:02 01:01:16:15 
*FROM CLIP NAME:  1AK9/03.SYNC.01 
*A1 VOL = -20.2 DB  PAN R100 
*SOURCE FILE: 19Y08M07
000373  19Y08M07                         A2    C        14:34:55:24 14:34:56:12 01:01:16:02 01:01:16:15 
*FROM CLIP NAME:  1AK9/03.SYNC.01 
*A2 VOL = -20.2 DB  PAN L100 
*SOURCE FILE: 19Y08M07
000374  19Y08M07                         A3    C        14:34:55:24 14:34:56:12 01:01:16:02 01:01:16:15 
*FROM CLIP NAME:  1AK9/03.SYNC.01 
*A3 VOL = -20.2 DB  PAN R100 
*SOURCE FILE: 19Y08M07
000375  19Y08M07                         A4    C        14:34:55:24 14:34:56:12 01:01:16:02 01:01:16:15 
*FROM CLIP NAME:  1AK9/03.SYNC.01 
*A4 VOL = -20.2 DB  PAN L100 
*SOURCE FILE: 19Y08M07
000376  19Y08M07                         A5    C        14:34:55:24 14:34:56:12 01:01:16:02 01:01:16:15 
*FROM CLIP NAME:  1AK9/03.SYNC.01 
*A5 VOL = -20.2 DB  PAN R100 
*SOURCE FILE: 19Y08M07
000377  19Y08M07                         A6    C        14:34:55:24 14:34:56:12 01:01:16:02 01:01:16:15 
*FROM CLIP NAME:  1AK9/03.SYNC.01 
*A6 VOL = -20.2 DB  PAN L100 
*PATCH 19Y08M07:  FROM SOURCE 1 TO RECORD 6 
*SOURCE FILE: 19Y08M07
000378  19Y08M07                         A7    C        14:34:55:24 14:34:56:12 01:01:16:02 01:01:16:15 
*FROM CLIP NAME:  1AK9/03.SYNC.01 
*A7 VOL = -32.3 DB  PAN R100 
*PATCH 19Y08M07:  FROM SOURCE 8 TO RECORD 7 
*SOURCE FILE: 19Y08M07
000379  19Y08M07                         A8    C        14:34:55:24 14:34:56:12 01:01:16:02 01:01:16:15 
*FROM CLIP NAME:  1AK9/03.SYNC.01 
*A8 VOL = -23.3 DB  PAN L100 
*PATCH 19Y08M07:  FROM SOURCE 9 TO RECORD 8 
*SOURCE FILE: 19Y08M07
000380  MSMMMOB.31                       V     C        15:20:58:20 15:20:59:05 01:01:16:12 01:01:16:21 
M2      MSMMMOB.31                                027.5 15:20:58:20 
*FROM CLIP NAME:  1A-9-3-CAMA 
*SOURCE FILE: MSMMMOB.31
000381  MSMMMOB.35                       V     C        14:42:17:11 14:42:18:18 01:01:16:21 01:01:17:21 
M2      MSMMMOB.35                                032.5 14:42:17:11 
*FROM CLIP NAME:  1A-9-4-CAMA 
*SOURCE FILE: MSMMMOB.35
000382  MSMMMOB.35                       A     C        14:42:16:23 14:42:18:07 01:01:16:21 01:01:18:05 
M2      MSMMMOB.35                                025.0 14:42:16:23 
*FROM CLIP NAME:  1A-9-4-CAMA 
*SOURCE FILE: MSMMMOB.35
000383  MSMMMOB.35                       A2    C        14:42:16:23 14:42:18:07 01:01:16:21 01:01:18:05 
M2      MSMMMOB.35                                025.0 14:42:16:23 
*FROM CLIP NAME:  1A-9-4-CAMA 
*SOURCE FILE: MSMMMOB.35
000384  MSMMMOB.82                       V     C        00:01:52:19 00:01:54:00 01:01:17:21 01:01:19:02 
*FROM CLIP NAME:  08072019_143702.NEW.01 
*SOURCE FILE: MSMMMOB.82
000385  19Y08M07                         A     C        14:34:45:11 14:34:46:15 01:01:18:05 01:01:19:09 
*FROM CLIP NAME:  1AK9/03.SYNC.01 
*A1 VOL = -12.1 DB  PAN R100 
*SOURCE FILE: 19Y08M07
000386  19Y08M07                         A2    C        14:34:45:11 14:34:46:15 01:01:18:05 01:01:19:09 
*FROM CLIP NAME:  1AK9/03.SYNC.01 
*A2 VOL = -12.1 DB  PAN L100 
*SOURCE FILE: 19Y08M07
000387  19Y08M07                         A3    C        14:34:45:11 14:34:46:15 01:01:18:05 01:01:19:09 
*FROM CLIP NAME:  1AK9/03.SYNC.01 
*A3 VOL = -12.1 DB  PAN R100 
*SOURCE FILE: 19Y08M07
000388  19Y08M07                         A4    C        14:34:45:11 14:34:46:15 01:01:18:05 01:01:19:09 
*FROM CLIP NAME:  1AK9/03.SYNC.01 
*A4 VOL = -12.1 DB  PAN L100 
*SOURCE FILE: 19Y08M07
000389  19Y08M07                         A5    C        14:34:45:11 14:34:46:15 01:01:18:05 01:01:19:09 
*FROM CLIP NAME:  1AK9/03.SYNC.01 
*A5 VOL = -12.1 DB  PAN R100 
*SOURCE FILE: 19Y08M07
000390  19Y08M07                         A6    C        14:34:45:11 14:34:46:15 01:01:18:05 01:01:19:09 
*FROM CLIP NAME:  1AK9/03.SYNC.01 
*A6 VOL = -12.1 DB  PAN L100 
*PATCH 19Y08M07:  FROM SOURCE 1 TO RECORD 6 
*SOURCE FILE: 19Y08M07
000391  19Y08M07                         A7    C        14:34:45:11 14:34:46:15 01:01:18:05 01:01:19:09 
*FROM CLIP NAME:  1AK9/03.SYNC.01 
*A7 VOL = -42.1 DB  PAN R100 
*PATCH 19Y08M07:  FROM SOURCE 8 TO RECORD 7 
*SOURCE FILE: 19Y08M07
000392  19Y08M07                         A8    C        14:34:45:11 14:34:46:15 01:01:18:05 01:01:19:09 
*FROM CLIP NAME:  1AK9/03.SYNC.01 
*A8 VOL =  -3.6 DB  PAN L100 
*PATCH 19Y08M07:  FROM SOURCE 9 TO RECORD 8 
*SOURCE FILE: 19Y08M07
000393  MSMMMOB.21                       V     C        02:12:34:11 02:12:35:15 01:01:19:02 01:01:20:06 
*FROM CLIP NAME:  C0002_V1-0003.NEW.01 
*SOURCE FILE: MSMMMOB.21
000394  MSMMMOB.82                       V     C        00:01:39:14 00:01:40:17 01:01:20:06 01:01:21:09 
*FROM CLIP NAME:  08072019_143702.NEW.01 
*SOURCE FILE: MSMMMOB.82
000395  324967__MARKKUYP__VUORISTORATA-V A16   C        01:01:52:23 01:01:54:13 01:01:20:06 01:01:21:21 
*FROM CLIP NAME:  324967__MARKKUYP__VUORISTORATA-VAUNUN-SISALTA-ROLLER-COASTER-INSIDE-A-CAR.WAV 
*A16 VOL = -30.0 DB  PAN L100 
*PATCH 324967__MARKKUYP__VUORISTORATA-V:  FROM SOURCE 2 TO RECORD 16 
*SOURCE FILE: 324967__MARKKUYP__VUORISTORATA-VAUNUN-SISALTA-ROLLER-COASTER-INSIDE-A-CAR.WAV
000396  324967__MARKKUYP__VUORISTORATA-V A17   C        01:01:52:23 01:01:54:13 01:01:20:06 01:01:21:21 
*FROM CLIP NAME:  324967__MARKKUYP__VUORISTORATA-VAUNUN-SISALTA-ROLLER-COASTER-INSIDE-A-CAR.WAV 
*A17 VOL = -30.0 DB  PAN R100 
*PATCH 324967__MARKKUYP__VUORISTORATA-V:  FROM SOURCE 1 TO RECORD 17 
*SOURCE FILE: 324967__MARKKUYP__VUORISTORATA-VAUNUN-SISALTA-ROLLER-COASTER-INSIDE-A-CAR.WAV
000397  XSR001_02_LOUD.MP3               A18   C        01:02:37:01 01:02:39:09 01:01:20:06 01:01:22:14 
*FROM CLIP NAME:  XSR001_02 LOUD.MP3 
*A18 VOL =  -3.0 DB  PAN L100 
*PATCH XSR001_02_LOUD.MP3:  FROM SOURCE 2 TO RECORD 18 
*SOURCE FILE: XSR001_02 LOUD.MP3
000398  XSR001_02_LOUD.MP3               A19   C        01:02:37:01 01:02:39:09 01:01:20:06 01:01:22:14 
*FROM CLIP NAME:  XSR001_02 LOUD.MP3 
*A19 VOL =  -3.0 DB  PAN R100 
*PATCH XSR001_02_LOUD.MP3:  FROM SOURCE 1 TO RECORD 19 
*SOURCE FILE: XSR001_02 LOUD.MP3
000399  19Y08M07                         A     C        14:42:03:04 14:42:03:23 01:01:20:15 01:01:21:09 
*FROM CLIP NAME:  1AK9/04.SYNC.01 
*A1 VOL = -15.0 DB  PAN R100 
*SOURCE FILE: 19Y08M07
000400  19Y08M07                         A2    C        14:42:03:04 14:42:03:23 01:01:20:15 01:01:21:09 
*FROM CLIP NAME:  1AK9/04.SYNC.01 
*A2 VOL = -15.0 DB  PAN L100 
*SOURCE FILE: 19Y08M07
000401  19Y08M07                         A3    C        14:42:03:04 14:42:04:10 01:01:20:15 01:01:21:21 
*FROM CLIP NAME:  1AK9/04.SYNC.01 
*A3 VOL = -15.0 DB  PAN R100 
*SOURCE FILE: 19Y08M07
000402  19Y08M07                         A4    C        14:42:03:04 14:42:04:10 01:01:20:15 01:01:21:21 
*FROM CLIP NAME:  1AK9/04.SYNC.01 
*A4 VOL = -15.0 DB  PAN L100 
*SOURCE FILE: 19Y08M07
000403  19Y08M07                         A5    C        14:42:03:04 14:42:04:10 01:01:20:15 01:01:21:21 
*FROM CLIP NAME:  1AK9/04.SYNC.01 
*A5 VOL = -15.0 DB  PAN R100 
*SOURCE FILE: 19Y08M07
000404  19Y08M07                         A6    C        14:42:03:04 14:42:04:10 01:01:20:15 01:01:21:21 
*FROM CLIP NAME:  1AK9/04.SYNC.01 
*A6 VOL = -15.0 DB  PAN L100 
*PATCH 19Y08M07:  FROM SOURCE 1 TO RECORD 6 
*SOURCE FILE: 19Y08M07
000405  19Y08M07                         A7    C        14:42:03:04 14:42:04:10 01:01:20:15 01:01:21:21 
*FROM CLIP NAME:  1AK9/04.SYNC.01 
*A7 VOL = -15.0 DB  PAN R100 
*PATCH 19Y08M07:  FROM SOURCE 8 TO RECORD 7 
*SOURCE FILE: 19Y08M07
000406  19Y08M07                         A8    C        14:42:03:04 14:42:04:10 01:01:20:15 01:01:21:21 
*FROM CLIP NAME:  1AK9/04.SYNC.01 
*A8 VOL =  -7.9 DB  PAN L100 
*PATCH 19Y08M07:  FROM SOURCE 9 TO RECORD 8 
*SOURCE FILE: 19Y08M07
000407  GLDR-APN-005_V01                 V     C        00:00:00:00 00:00:02:06 01:01:21:09 01:01:22:13 
M2      GLDR-APN-005_V01                          049.1 00:00:00:00 
*FROM CLIP NAME:  GLDR-APN-005_V01 
*SOURCE FILE: GLDR-APN-005_V01 
*REPAIR: FROM SOURCE TRUE SPEED IS 49.137932 FPS
000408  MSMMMOB.01                       V     C        09:51:22:18 09:51:24:11 01:01:21:09 01:01:22:13 
M2      MSMMMOB.01                                037.5 09:51:22:18 
*FROM CLIP NAME:  GX016375 
*SOURCE FILE: MSMMMOB.01
000409  MSMMMOB.01                       A     C        09:49:58:16 09:49:59:23 01:01:21:09 01:01:22:16 
M2      MSMMMOB.01                                025.0 09:49:58:16 
*FROM CLIP NAME:  GX016375 
*A1 VOL =  +7.7 DB  PAN R100 
*SOURCE FILE: MSMMMOB.01
000410  MSMMMOB.01                       A2    C        09:49:58:16 09:49:59:23 01:01:21:09 01:01:22:16 
M2      MSMMMOB.01                                025.0 09:49:58:16 
*FROM CLIP NAME:  GX016375 
*A2 VOL =  +7.0 DB  PAN L100 
*SOURCE FILE: MSMMMOB.01
000411  03202.MP3                        A9    C        01:00:00:05 01:00:01:16 01:01:22:13 01:01:23:24 
*FROM CLIP NAME:  03202.MP3 
*A9 VOL =  -3.4 DB  PAN R100 
*PATCH 03202.MP3:  FROM SOURCE 1 TO RECORD 9 
*SOURCE FILE: 03202.MP3
000412  03202.MP3                        A10   C        01:00:00:05 01:00:01:16 01:01:22:13 01:01:23:24 
*FROM CLIP NAME:  03202.MP3 
*A10 VOL =  -3.4 DB  PAN L100 
*PATCH 03202.MP3:  FROM SOURCE 2 TO RECORD 10 
*SOURCE FILE: 03202.MP3
000413  IMG_2602.JPG                     V     C        01:00:00:00 01:00:02:08 01:01:22:13 01:01:24:21 
*FROM CLIP NAME:  IMG_2602.JPG 
*SOURCE FILE: IMG_2602.JPG
000414  BL                               V     C        00:00:00:00 00:50:54:06 01:01:22:13 01:52:16:19 
*SOURCE FILE: (NULL)
000415  XSR001_02_LOUD.MP3               A18   C        01:02:39:09 01:02:39:09 01:01:22:14 01:01:22:14 
000415  XSR001_02_LOUD.MP3               A18   D    010 01:02:39:09 01:02:39:19 01:01:22:14 01:01:22:24 
*FROM CLIP NAME:  XSR001_02 LOUD.MP3 
*TO CLIP NAME:  XSR001_02 LOUD.MP3 
*A18 VOL =  -3.0 DB  PAN L100 
*A18 VOL =  -9.0 DB  PAN L100 
*PATCH XSR001_02_LOUD.MP3:  FROM SOURCE 2 TO RECORD 18 
*PATCH XSR001_02_LOUD.MP3:  FROM SOURCE 2 TO RECORD 18 
*SOURCE FILE: XSR001_02 LOUD.MP3
000416  XSR001_02_LOUD.MP3               A19   C        01:02:39:09 01:02:39:09 01:01:22:14 01:01:22:14 
000416  XSR001_02_LOUD.MP3               A19   D    010 01:02:39:09 01:02:39:19 01:01:22:14 01:01:22:24 
*FROM CLIP NAME:  XSR001_02 LOUD.MP3 
*TO CLIP NAME:  XSR001_02 LOUD.MP3 
*A19 VOL =  -3.0 DB  PAN R100 
*A19 VOL =  -9.0 DB  PAN R100 
*PATCH XSR001_02_LOUD.MP3:  FROM SOURCE 1 TO RECORD 19 
*PATCH XSR001_02_LOUD.MP3:  FROM SOURCE 1 TO RECORD 19 
*SOURCE FILE: XSR001_02 LOUD.MP3
000417  XSR001_02_LOUD.MP3               A18   C        01:02:39:19 01:02:47:20 01:01:22:24 01:01:31:00 
*FROM CLIP NAME:  XSR001_02 LOUD.MP3 
*A18 VOL =  -9.0 DB  PAN L100 
*PATCH XSR001_02_LOUD.MP3:  FROM SOURCE 2 TO RECORD 18 
*SOURCE FILE: XSR001_02 LOUD.MP3
000418  XSR001_02_LOUD.MP3               A19   C        01:02:39:19 01:02:47:20 01:01:22:24 01:01:31:00 
*FROM CLIP NAME:  XSR001_02 LOUD.MP3 
*A19 VOL =  -9.0 DB  PAN R100 
*PATCH XSR001_02_LOUD.MP3:  FROM SOURCE 1 TO RECORD 19 
*SOURCE FILE: XSR001_02 LOUD.MP3
000419  03202.MP3                        A9    C        01:00:00:06 01:00:00:23 01:01:24:20 01:01:25:12 
*FROM CLIP NAME:  03202.MP3 
*A9 VOL =  -9.0 DB  PAN R100 
*PATCH 03202.MP3:  FROM SOURCE 1 TO RECORD 9 
*SOURCE FILE: 03202.MP3
000420  03202.MP3                        A10   C        01:00:00:06 01:00:00:23 01:01:24:20 01:01:25:12 
*FROM CLIP NAME:  03202.MP3 
*A10 VOL =  -9.0 DB  PAN L100 
*PATCH 03202.MP3:  FROM SOURCE 2 TO RECORD 10 
*SOURCE FILE: 03202.MP3
000421  1_FOTO.JPG                       V     C        01:00:00:00 01:00:02:16 01:01:24:21 01:01:27:12 
*FROM CLIP NAME:  1_FOTO.JPG 
*SOURCE FILE: 1_FOTO.JPG
000422  03202.MP3                        A9    C        01:00:00:06 01:00:00:23 01:01:27:11 01:01:28:03 
*FROM CLIP NAME:  03202.MP3 
*A9 VOL =  -9.0 DB  PAN R100 
*PATCH 03202.MP3:  FROM SOURCE 1 TO RECORD 9 
*SOURCE FILE: 03202.MP3
000423  03202.MP3                        A10   C        01:00:00:06 01:00:00:23 01:01:27:11 01:01:28:03 
*FROM CLIP NAME:  03202.MP3 
*A10 VOL =  -9.0 DB  PAN L100 
*PATCH 03202.MP3:  FROM SOURCE 2 TO RECORD 10 
*SOURCE FILE: 03202.MP3
000424  2_FOTO.JPG                       V     C        01:00:00:00 01:00:02:07 01:01:27:12 01:01:29:19 
*FROM CLIP NAME:  2_FOTO.JPG 
*SOURCE FILE: 2_FOTO.JPG
000425  03202.MP3                        A9    C        01:00:00:06 01:00:00:23 01:01:29:18 01:01:30:10 
*FROM CLIP NAME:  03202.MP3 
*A9 VOL =  -9.0 DB  PAN R100 
*PATCH 03202.MP3:  FROM SOURCE 1 TO RECORD 9 
*SOURCE FILE: 03202.MP3
000426  03202.MP3                        A10   C        01:00:00:06 01:00:00:23 01:01:29:18 01:01:30:10 
*FROM CLIP NAME:  03202.MP3 
*A10 VOL =  -9.0 DB  PAN L100 
*PATCH 03202.MP3:  FROM SOURCE 2 TO RECORD 10 
*SOURCE FILE: 03202.MP3
000428  3_FOTO.JPG                       V     C        01:00:00:00 01:00:02:05 01:01:29:19 01:01:31:24 
*FROM CLIP NAME:  3_FOTO.JPG 
*SOURCE FILE: 3_FOTO.JPG
000427  BL                               V     C        00:00:00:00 00:00:02:05 01:01:29:19 01:01:31:24 
*SOURCE FILE: (NULL)
000429  BL                               A20   C        00:00:00:00 00:00:00:00 01:01:30:02 01:01:30:02 
000429  XSR001_02_LOUD.MP3               A20   D    014 01:02:56:14 01:02:57:03 01:01:30:02 01:01:30:16 
*TO CLIP NAME:  XSR001_02 LOUD.MP3 
*A20 VOL =  -3.0 DB  PAN L100 
*PATCH XSR001_02_LOUD.MP3:  FROM SOURCE 2 TO RECORD 20 
*SOURCE FILE: (NULL)
000430  BL                               A21   C        00:00:00:00 00:00:00:00 01:01:30:02 01:01:30:02 
000430  XSR001_02_LOUD.MP3               A21   D    014 01:02:56:14 01:02:57:03 01:01:30:02 01:01:30:16 
*TO CLIP NAME:  XSR001_02 LOUD.MP3 
*A21 VOL =  -3.0 DB  PAN R100 
*PATCH XSR001_02_LOUD.MP3:  FROM SOURCE 1 TO RECORD 21 
*SOURCE FILE: (NULL)
000431  03202.MP3                        A7    C        01:00:00:06 01:00:00:23 01:01:30:02 01:01:30:19 
*FROM CLIP NAME:  03202.MP3 
*A7 VOL =  -9.0 DB  PAN R100 
*PATCH 03202.MP3:  FROM SOURCE 1 TO RECORD 7 
*SOURCE FILE: 03202.MP3
000432  03202.MP3                        A8    C        01:00:00:06 01:00:00:23 01:01:30:02 01:01:30:19 
*FROM CLIP NAME:  03202.MP3 
*A8 VOL =  -9.0 DB  PAN L100 
*PATCH 03202.MP3:  FROM SOURCE 2 TO RECORD 8 
*SOURCE FILE: 03202.MP3
000433  XSR001_02_LOUD.MP3               A20   C        01:02:57:03 01:03:19:19 01:01:30:16 01:01:53:07 
*FROM CLIP NAME:  XSR001_02 LOUD.MP3 
*A20 VOL =  -3.0 DB  PAN L100 
*PATCH XSR001_02_LOUD.MP3:  FROM SOURCE 2 TO RECORD 20 
*SOURCE FILE: XSR001_02 LOUD.MP3
000434  XSR001_02_LOUD.MP3               A21   C        01:02:57:03 01:03:19:19 01:01:30:16 01:01:53:07 
*FROM CLIP NAME:  XSR001_02 LOUD.MP3 
*A21 VOL =  -3.0 DB  PAN R100 
*PATCH XSR001_02_LOUD.MP3:  FROM SOURCE 1 TO RECORD 21 
*SOURCE FILE: XSR001_02 LOUD.MP3
000435  03202.MP3                        A5    C        01:00:00:06 01:00:00:23 01:01:30:19 01:01:31:11 
*FROM CLIP NAME:  03202.MP3 
*A5 VOL =  -9.0 DB  PAN R100 
*PATCH 03202.MP3:  FROM SOURCE 1 TO RECORD 5 
*SOURCE FILE: 03202.MP3
000436  03202.MP3                        A6    C        01:00:00:06 01:00:00:23 01:01:30:19 01:01:31:11 
*FROM CLIP NAME:  03202.MP3 
*A6 VOL =  -9.0 DB  PAN L100 
*PATCH 03202.MP3:  FROM SOURCE 2 TO RECORD 6 
*SOURCE FILE: 03202.MP3
000437  XSR001_02_LOUD.MP3               A18   C        01:02:47:20 01:02:47:20 01:01:31:00 01:01:31:00 
000437  BL                               A18   D    012 00:00:00:00 00:00:00:12 01:01:31:00 01:01:31:12 
*FROM CLIP NAME:  XSR001_02 LOUD.MP3 
*A18 VOL =  -9.0 DB  PAN L100 
*PATCH XSR001_02_LOUD.MP3:  FROM SOURCE 2 TO RECORD 18 
*SOURCE FILE: XSR001_02 LOUD.MP3
000438  XSR001_02_LOUD.MP3               A19   C        01:02:47:20 01:02:47:20 01:01:31:00 01:01:31:00 
000438  BL                               A19   D    012 00:00:00:00 00:00:00:12 01:01:31:00 01:01:31:12 
*FROM CLIP NAME:  XSR001_02 LOUD.MP3 
*A19 VOL =  -9.0 DB  PAN R100 
*PATCH XSR001_02_LOUD.MP3:  FROM SOURCE 1 TO RECORD 19 
*SOURCE FILE: XSR001_02 LOUD.MP3
000439  03202.MP3                        A9    C        01:00:00:06 01:00:00:23 01:01:31:23 01:01:32:15 
*FROM CLIP NAME:  03202.MP3 
*A9 VOL =  -9.0 DB  PAN R100 
*PATCH 03202.MP3:  FROM SOURCE 1 TO RECORD 9 
*SOURCE FILE: 03202.MP3
000440  03202.MP3                        A10   C        01:00:00:06 01:00:00:23 01:01:31:23 01:01:32:15 
*FROM CLIP NAME:  03202.MP3 
*A10 VOL =  -9.0 DB  PAN L100 
*PATCH 03202.MP3:  FROM SOURCE 2 TO RECORD 10 
*SOURCE FILE: 03202.MP3
000441  4_FOTO.JPG                       V     C        01:00:00:00 01:00:01:11 01:01:31:24 01:01:33:10 
*FROM CLIP NAME:  4_FOTO.JPG 
*SOURCE FILE: 4_FOTO.JPG
000442  BL                               V     C        00:00:00:00 00:05:27:23 01:01:31:24 01:06:59:22 
*SOURCE FILE: (NULL)
000443  03202.MP3                        A9    C        01:00:00:06 01:00:00:23 01:01:33:08 01:01:34:00 
*FROM CLIP NAME:  03202.MP3 
*A9 VOL =  -9.0 DB  PAN R100 
*PATCH 03202.MP3:  FROM SOURCE 1 TO RECORD 9 
*SOURCE FILE: 03202.MP3
000444  03202.MP3                        A10   C        01:00:00:06 01:00:00:23 01:01:33:08 01:01:34:00 
*FROM CLIP NAME:  03202.MP3 
*A10 VOL =  -9.0 DB  PAN L100 
*PATCH 03202.MP3:  FROM SOURCE 2 TO RECORD 10 
*SOURCE FILE: 03202.MP3
000445  5_FOTO.JPG                       V     C        01:00:00:06 01:00:01:10 01:01:33:10 01:01:34:14 
*FROM CLIP NAME:  5_FOTO.JPG 
*SOURCE FILE: 5_FOTO.JPG
000446  03202.MP3                        A9    C        01:00:00:06 01:00:00:23 01:01:34:12 01:01:35:04 
*FROM CLIP NAME:  03202.MP3 
*A9 VOL =  -9.0 DB  PAN R100 
*PATCH 03202.MP3:  FROM SOURCE 1 TO RECORD 9 
*SOURCE FILE: 03202.MP3
000447  03202.MP3                        A10   C        01:00:00:06 01:00:00:23 01:01:34:12 01:01:35:04 
*FROM CLIP NAME:  03202.MP3 
*A10 VOL =  -9.0 DB  PAN L100 
*PATCH 03202.MP3:  FROM SOURCE 2 TO RECORD 10 
*SOURCE FILE: 03202.MP3
000448  6_FOTO.JPG                       V     C        01:00:00:00 01:00:01:05 01:01:34:14 01:01:35:19 
*FROM CLIP NAME:  6_FOTO.JPG 
*SOURCE FILE: 6_FOTO.JPG
000449  03202.MP3                        A9    C        01:00:00:06 01:00:00:23 01:01:35:16 01:01:36:08 
*FROM CLIP NAME:  03202.MP3 
*A9 VOL =  -9.0 DB  PAN R100 
*PATCH 03202.MP3:  FROM SOURCE 1 TO RECORD 9 
*SOURCE FILE: 03202.MP3
000450  03202.MP3                        A10   C        01:00:00:06 01:00:00:23 01:01:35:16 01:01:36:08 
*FROM CLIP NAME:  03202.MP3 
*A10 VOL =  -9.0 DB  PAN L100 
*PATCH 03202.MP3:  FROM SOURCE 2 TO RECORD 10 
*SOURCE FILE: 03202.MP3
000451  7_FOTO.JPG                       V     C        01:00:00:00 01:00:01:07 01:01:35:19 01:01:37:01 
*FROM CLIP NAME:  7_FOTO.JPG 
*SOURCE FILE: 7_FOTO.JPG
000452  03202.MP3                        A9    C        01:00:00:06 01:00:00:23 01:01:36:24 01:01:37:16 
*FROM CLIP NAME:  03202.MP3 
*A9 VOL =  -9.0 DB  PAN R100 
*PATCH 03202.MP3:  FROM SOURCE 1 TO RECORD 9 
*SOURCE FILE: 03202.MP3
000453  03202.MP3                        A10   C        01:00:00:06 01:00:00:23 01:01:36:24 01:01:37:16 
*FROM CLIP NAME:  03202.MP3 
*A10 VOL =  -9.0 DB  PAN L100 
*PATCH 03202.MP3:  FROM SOURCE 2 TO RECORD 10 
*SOURCE FILE: 03202.MP3
000454  8_FOTO.JPG                       V     C        01:00:00:00 01:00:01:05 01:01:37:01 01:01:38:06 
*FROM CLIP NAME:  8_FOTO.JPG 
*SOURCE FILE: 8_FOTO.JPG
000455  03202.MP3                        A9    C        01:00:00:06 01:00:00:23 01:01:38:05 01:01:38:22 
*FROM CLIP NAME:  03202.MP3 
*A9 VOL =  -9.0 DB  PAN R100 
*PATCH 03202.MP3:  FROM SOURCE 1 TO RECORD 9 
*SOURCE FILE: 03202.MP3
000456  03202.MP3                        A10   C        01:00:00:06 01:00:00:23 01:01:38:05 01:01:38:22 
*FROM CLIP NAME:  03202.MP3 
*A10 VOL =  -9.0 DB  PAN L100 
*PATCH 03202.MP3:  FROM SOURCE 2 TO RECORD 10 
*SOURCE FILE: 03202.MP3
000457  21_FOTO.JPG                      V     C        01:00:00:00 01:00:01:03 01:01:38:06 01:01:39:09 
*FROM CLIP NAME:  21_FOTO.JPG 
*SOURCE FILE: 21_FOTO.JPG
000458  03202.MP3                        A9    C        01:00:00:06 01:00:00:23 01:01:39:05 01:01:39:22 
*FROM CLIP NAME:  03202.MP3 
*A9 VOL =  -9.0 DB  PAN R100 
*PATCH 03202.MP3:  FROM SOURCE 1 TO RECORD 9 
*SOURCE FILE: 03202.MP3
000459  03202.MP3                        A10   C        01:00:00:06 01:00:00:23 01:01:39:05 01:01:39:22 
*FROM CLIP NAME:  03202.MP3 
*A10 VOL =  -9.0 DB  PAN L100 
*PATCH 03202.MP3:  FROM SOURCE 2 TO RECORD 10 
*SOURCE FILE: 03202.MP3
000460  9_FOTO.JPG                       V     C        01:00:00:00 01:00:01:05 01:01:39:09 01:01:40:14 
*FROM CLIP NAME:  9_FOTO.JPG 
*SOURCE FILE: 9_FOTO.JPG
000461  03202.MP3                        A9    C        01:00:00:06 01:00:00:23 01:01:40:12 01:01:41:04 
*FROM CLIP NAME:  03202.MP3 
*A9 VOL =  -9.0 DB  PAN R100 
*PATCH 03202.MP3:  FROM SOURCE 1 TO RECORD 9 
*SOURCE FILE: 03202.MP3
000462  03202.MP3                        A10   C        01:00:00:06 01:00:00:23 01:01:40:12 01:01:41:04 
*FROM CLIP NAME:  03202.MP3 
*A10 VOL =  -9.0 DB  PAN L100 
*PATCH 03202.MP3:  FROM SOURCE 2 TO RECORD 10 
*SOURCE FILE: 03202.MP3
000463  10_FOTO.JPG                      V     C        01:00:00:06 01:00:01:09 01:01:40:14 01:01:41:17 
*FROM CLIP NAME:  10_FOTO.JPG 
*SOURCE FILE: 10_FOTO.JPG
000464  03202.MP3                        A9    C        01:00:00:06 01:00:00:23 01:01:41:15 01:01:42:07 
*FROM CLIP NAME:  03202.MP3 
*A9 VOL =  -9.0 DB  PAN R100 
*PATCH 03202.MP3:  FROM SOURCE 1 TO RECORD 9 
*SOURCE FILE: 03202.MP3
000465  03202.MP3                        A10   C        01:00:00:06 01:00:00:23 01:01:41:15 01:01:42:07 
*FROM CLIP NAME:  03202.MP3 
*A10 VOL =  -9.0 DB  PAN L100 
*PATCH 03202.MP3:  FROM SOURCE 2 TO RECORD 10 
*SOURCE FILE: 03202.MP3
000466  11_FOTO.JPG                      V     C        01:00:00:00 01:00:01:07 01:01:41:17 01:01:42:24 
*FROM CLIP NAME:  11_FOTO.JPG 
*SOURCE FILE: 11_FOTO.JPG
000467  03202.MP3                        A9    C        01:00:00:06 01:00:00:23 01:01:42:22 01:01:43:14 
*FROM CLIP NAME:  03202.MP3 
*A9 VOL =  -9.0 DB  PAN R100 
*PATCH 03202.MP3:  FROM SOURCE 1 TO RECORD 9 
*SOURCE FILE: 03202.MP3
000468  03202.MP3                        A10   C        01:00:00:06 01:00:00:23 01:01:42:22 01:01:43:14 
*FROM CLIP NAME:  03202.MP3 
*A10 VOL =  -9.0 DB  PAN L100 
*PATCH 03202.MP3:  FROM SOURCE 2 TO RECORD 10 
*SOURCE FILE: 03202.MP3
000469  12_FOTO.JPG                      V     C        01:00:00:00 01:00:01:05 01:01:42:24 01:01:44:04 
*FROM CLIP NAME:  12_FOTO.JPG 
*SOURCE FILE: 12_FOTO.JPG
000470  03202.MP3                        A9    C        01:00:00:06 01:00:00:23 01:01:44:02 01:01:44:19 
*FROM CLIP NAME:  03202.MP3 
*A9 VOL =  -9.0 DB  PAN R100 
*PATCH 03202.MP3:  FROM SOURCE 1 TO RECORD 9 
*SOURCE FILE: 03202.MP3
000471  03202.MP3                        A10   C        01:00:00:06 01:00:00:23 01:01:44:02 01:01:44:19 
*FROM CLIP NAME:  03202.MP3 
*A10 VOL =  -9.0 DB  PAN L100 
*PATCH 03202.MP3:  FROM SOURCE 2 TO RECORD 10 
*SOURCE FILE: 03202.MP3
000472  13_FOTO.JPG                      V     C        01:00:00:00 01:00:02:11 01:01:44:04 01:01:46:15 
*FROM CLIP NAME:  13_FOTO.JPG 
*SOURCE FILE: 13_FOTO.JPG
000473  03202.MP3                        A9    C        01:00:00:06 01:00:00:23 01:01:46:12 01:01:47:04 
*FROM CLIP NAME:  03202.MP3 
*A9 VOL =  -9.0 DB  PAN R100 
*PATCH 03202.MP3:  FROM SOURCE 1 TO RECORD 9 
*SOURCE FILE: 03202.MP3
000474  03202.MP3                        A10   C        01:00:00:06 01:00:00:23 01:01:46:12 01:01:47:04 
*FROM CLIP NAME:  03202.MP3 
*A10 VOL =  -9.0 DB  PAN L100 
*PATCH 03202.MP3:  FROM SOURCE 2 TO RECORD 10 
*SOURCE FILE: 03202.MP3
000475  14_FOTO.JPG                      V     C        01:00:00:02 01:00:01:06 01:01:46:15 01:01:47:19 
*FROM CLIP NAME:  14_FOTO.JPG 
*SOURCE FILE: 14_FOTO.JPG
000476  03202.MP3                        A9    C        01:00:00:06 01:00:00:23 01:01:47:17 01:01:48:09 
*FROM CLIP NAME:  03202.MP3 
*A9 VOL =  -9.0 DB  PAN R100 
*PATCH 03202.MP3:  FROM SOURCE 1 TO RECORD 9 
*SOURCE FILE: 03202.MP3
000477  03202.MP3                        A10   C        01:00:00:06 01:00:00:23 01:01:47:17 01:01:48:09 
*FROM CLIP NAME:  03202.MP3 
*A10 VOL =  -9.0 DB  PAN L100 
*PATCH 03202.MP3:  FROM SOURCE 2 TO RECORD 10 
*SOURCE FILE: 03202.MP3
000478  15_FOTO.JPG                      V     C        01:00:00:00 01:00:01:05 01:01:47:19 01:01:48:24 
*FROM CLIP NAME:  15_FOTO.JPG 
*SOURCE FILE: 15_FOTO.JPG
000479  03202.MP3                        A9    C        01:00:00:06 01:00:00:23 01:01:48:22 01:01:49:14 
*FROM CLIP NAME:  03202.MP3 
*A9 VOL =  -9.0 DB  PAN R100 
*PATCH 03202.MP3:  FROM SOURCE 1 TO RECORD 9 
*SOURCE FILE: 03202.MP3
000480  03202.MP3                        A10   C        01:00:00:06 01:00:00:23 01:01:48:22 01:01:49:14 
*FROM CLIP NAME:  03202.MP3 
*A10 VOL =  -9.0 DB  PAN L100 
*PATCH 03202.MP3:  FROM SOURCE 2 TO RECORD 10 
*SOURCE FILE: 03202.MP3
000481  16_FOTO.JPG                      V     C        01:00:00:00 01:00:02:03 01:01:48:24 01:01:51:02 
*FROM CLIP NAME:  16_FOTO.JPG 
*SOURCE FILE: 16_FOTO.JPG
000482  03202.MP3                        A9    C        01:00:00:06 01:00:00:23 01:01:51:01 01:01:51:18 
*FROM CLIP NAME:  03202.MP3 
*A9 VOL =  -9.0 DB  PAN R100 
*PATCH 03202.MP3:  FROM SOURCE 1 TO RECORD 9 
*SOURCE FILE: 03202.MP3
000483  03202.MP3                        A10   C        01:00:00:06 01:00:00:23 01:01:51:01 01:01:51:18 
*FROM CLIP NAME:  03202.MP3 
*A10 VOL =  -9.0 DB  PAN L100 
*PATCH 03202.MP3:  FROM SOURCE 2 TO RECORD 10 
*SOURCE FILE: 03202.MP3
000484  17_FOTO.JPG                      V     C        01:00:01:02 01:00:02:01 01:01:51:02 01:01:52:01 
*FROM CLIP NAME:  17_FOTO.JPG 
*SOURCE FILE: 17_FOTO.JPG
000485  MSMMMOB.15                       V     C        19:13:34:19 19:13:41:19 01:01:51:02 01:01:58:02 
M2      MSMMMOB.15                                025.0 19:13:34:19 
*FROM CLIP NAME:  03-09-01NS 
*SOURCE FILE: MSMMMOB.15
000486  03202.MP3                        A9    C        01:00:00:06 01:00:00:23 01:01:52:01 01:01:52:18 
*FROM CLIP NAME:  03202.MP3 
*A9 VOL =  -9.0 DB  PAN R100 
*PATCH 03202.MP3:  FROM SOURCE 1 TO RECORD 9 
*SOURCE FILE: 03202.MP3
000487  03202.MP3                        A10   C        01:00:00:06 01:00:00:23 01:01:52:01 01:01:52:18 
*FROM CLIP NAME:  03202.MP3 
*A10 VOL =  -9.0 DB  PAN L100 
*PATCH 03202.MP3:  FROM SOURCE 2 TO RECORD 10 
*SOURCE FILE: 03202.MP3
000488  18_FOTO.JPG                      V     C        01:00:00:10 01:00:01:09 01:01:52:01 01:01:53:00 
*FROM CLIP NAME:  18_FOTO.JPG 
*SOURCE FILE: 18_FOTO.JPG
000489  03202.MP3                        A9    C        01:00:00:06 01:00:00:23 01:01:52:23 01:01:53:15 
*FROM CLIP NAME:  03202.MP3 
*A9 VOL =  -9.0 DB  PAN R100 
*PATCH 03202.MP3:  FROM SOURCE 1 TO RECORD 9 
*SOURCE FILE: 03202.MP3
000490  03202.MP3                        A10   C        01:00:00:06 01:00:00:23 01:01:52:23 01:01:53:15 
*FROM CLIP NAME:  03202.MP3 
*A10 VOL =  -9.0 DB  PAN L100 
*PATCH 03202.MP3:  FROM SOURCE 2 TO RECORD 10 
*SOURCE FILE: 03202.MP3
000491  19_FOTO.JPG                      V     C        01:00:01:18 01:00:02:17 01:01:53:00 01:01:53:24 
*FROM CLIP NAME:  19_FOTO.JPG 
*SOURCE FILE: 19_FOTO.JPG
000492  XSR001_02_LOUD.MP3               A20   C        01:03:19:19 01:03:19:19 01:01:53:07 01:01:53:07 
000492  XSR001_02_LOUD.MP3               A20   D    015 01:03:19:19 01:03:20:09 01:01:53:07 01:01:53:22 
*FROM CLIP NAME:  XSR001_02 LOUD.MP3 
*TO CLIP NAME:  XSR001_02 LOUD.MP3 
*A20 VOL =  -3.0 DB  PAN L100 
*A20 VOL =  -9.0 DB  PAN L100 
*PATCH XSR001_02_LOUD.MP3:  FROM SOURCE 2 TO RECORD 20 
*PATCH XSR001_02_LOUD.MP3:  FROM SOURCE 2 TO RECORD 20 
*SOURCE FILE: XSR001_02 LOUD.MP3
000493  XSR001_02_LOUD.MP3               A21   C        01:03:19:19 01:03:19:19 01:01:53:07 01:01:53:07 
000493  XSR001_02_LOUD.MP3               A21   D    015 01:03:19:19 01:03:20:09 01:01:53:07 01:01:53:22 
*FROM CLIP NAME:  XSR001_02 LOUD.MP3 
*TO CLIP NAME:  XSR001_02 LOUD.MP3 
*A21 VOL =  -3.0 DB  PAN R100 
*A21 VOL =  -9.0 DB  PAN R100 
*PATCH XSR001_02_LOUD.MP3:  FROM SOURCE 1 TO RECORD 21 
*PATCH XSR001_02_LOUD.MP3:  FROM SOURCE 1 TO RECORD 21 
*SOURCE FILE: XSR001_02 LOUD.MP3
000494  MSMMMOB.15                       A     C        19:13:37:06 19:13:41:19 01:01:53:14 01:01:58:02 
M2      MSMMMOB.15                                025.0 19:13:37:06 
*FROM CLIP NAME:  03-09-01NS 
*SOURCE FILE: MSMMMOB.15
000495  MSMMMOB.15                       A2    C        19:13:37:06 19:13:41:19 01:01:53:14 01:01:58:02 
M2      MSMMMOB.15                                025.0 19:13:37:06 
*FROM CLIP NAME:  03-09-01NS 
*SOURCE FILE: MSMMMOB.15
000496  XSR001_02_LOUD.MP3               A20   C        01:03:20:09 01:03:24:08 01:01:53:22 01:01:57:21 
*, EQ3 7-BAND 
*FROM CLIP NAME:  XSR001_02 LOUD.MP3 
*A20 VOL =  -9.0 DB  PAN L100 
*PATCH XSR001_02_LOUD.MP3:  FROM SOURCE 2 TO RECORD 20 
*SOURCE FILE: XSR001_02 LOUD.MP3
000497  XSR001_02_LOUD.MP3               A21   C        01:03:20:09 01:03:24:08 01:01:53:22 01:01:57:21 
*, EQ3 7-BAND 
*FROM CLIP NAME:  XSR001_02 LOUD.MP3 
*A21 VOL =  -9.0 DB  PAN R100 
*PATCH XSR001_02_LOUD.MP3:  FROM SOURCE 1 TO RECORD 21 
*SOURCE FILE: XSR001_02 LOUD.MP3
000498  03202.MP3                        A9    C        01:00:00:06 01:00:00:23 01:01:53:23 01:01:54:15 
*FROM CLIP NAME:  03202.MP3 
*A9 VOL =  -9.0 DB  PAN R100 
*PATCH 03202.MP3:  FROM SOURCE 1 TO RECORD 9 
*SOURCE FILE: 03202.MP3
000499  03202.MP3                        A10   C        01:00:00:06 01:00:00:23 01:01:53:23 01:01:54:15 
*FROM CLIP NAME:  03202.MP3 
*A10 VOL =  -9.0 DB  PAN L100 
*PATCH 03202.MP3:  FROM SOURCE 2 TO RECORD 10 
*SOURCE FILE: 03202.MP3
000500  20_FOTO.JPG                      V     C        01:00:01:05 01:00:02:05 01:01:53:24 01:01:54:24 
*FROM CLIP NAME:  20_FOTO.JPG 
*SOURCE FILE: 20_FOTO.JPG
000501  03202.MP3                        A9    C        01:00:00:06 01:00:00:23 01:01:54:23 01:01:55:15 
*FROM CLIP NAME:  03202.MP3 
*A9 VOL =  -9.0 DB  PAN R100 
*PATCH 03202.MP3:  FROM SOURCE 1 TO RECORD 9 
*SOURCE FILE: 03202.MP3
000502  03202.MP3                        A10   C        01:00:00:06 01:00:00:23 01:01:54:23 01:01:55:15 
*FROM CLIP NAME:  03202.MP3 
*A10 VOL =  -9.0 DB  PAN L100 
*PATCH 03202.MP3:  FROM SOURCE 2 TO RECORD 10 
*SOURCE FILE: 03202.MP3
000503  STOCK-PHOTO-BEAUTIFUL-PASSIONATE V     C        01:00:01:10 01:00:02:15 01:01:54:24 01:01:56:04 
*FROM CLIP NAME:  STOCK-PHOTO-BEAUTIFUL-PASSIONATE-COUPLE-IS-HAVING-SEX-ON-BED-662146459.JPG 
*SOURCE FILE: STOCK-PHOTO-BEAUTIFUL-PASSIONATE-COUPLE-IS-HAVING-SEX-ON-BED-662146459.JPG
000504  STOCK-PHOTO-NUDE-COUPLE-PASSIONA V     C        01:00:00:10 01:00:02:02 01:01:56:04 01:01:57:21 
*FROM CLIP NAME:  STOCK-PHOTO-NUDE-COUPLE-PASSIONATE-COUPLE-KISSING-BOY-AND-GIRL-HAVING-SEX-YOUNG-LOVERS-PEOPLE-IN-LOVE-1287826540.JPG 
*SOURCE FILE: STOCK-PHOTO-NUDE-COUPLE-PASSIONATE-COUPLE-KISSING-BOY-AND-GIRL-HAVING-SEX-YOUNG-LOVERS-PEOPLE-IN-LOVE-1287826540.JPG
000505  03202.MP3                        A9    C        01:00:00:06 01:00:00:23 01:01:56:05 01:01:56:22 
*FROM CLIP NAME:  03202.MP3 
*A9 VOL =  -9.0 DB  PAN R100 
*PATCH 03202.MP3:  FROM SOURCE 1 TO RECORD 9 
*SOURCE FILE: 03202.MP3
000506  03202.MP3                        A10   C        01:00:00:06 01:00:00:23 01:01:56:05 01:01:56:22 
*FROM CLIP NAME:  03202.MP3 
*A10 VOL =  -9.0 DB  PAN L100 
*PATCH 03202.MP3:  FROM SOURCE 2 TO RECORD 10 
*SOURCE FILE: 03202.MP3
000507  BL                               V     C        00:00:00:00 00:11:30:23 01:01:57:21 01:13:28:19 
*SOURCE FILE: (NULL)
000508  MSMMMOB.24                       V     C        17:21:56:22 17:22:00:02 01:01:58:02 01:02:01:07 
M2      MSMMMOB.24                                025.0 17:21:56:22 
*FROM CLIP NAME:  A054C007_190808_R32C 
*SOURCE FILE: MSMMMOB.24
000509  19Y08M08                         A     C        17:21:56:22 17:22:03:19 01:01:58:02 01:02:04:24 
*FROM CLIP NAME:  3K1/06.SYNC.01 
*SOURCE FILE: 19Y08M08
000510  19Y08M08                         A2    C        17:21:56:22 17:22:03:19 01:01:58:02 01:02:04:24 
*FROM CLIP NAME:  3K1/06.SYNC.01 
*SOURCE FILE: 19Y08M08
000511  19Y08M08                         A3    C        17:21:56:22 17:22:03:19 01:01:58:02 01:02:04:24 
*FROM CLIP NAME:  3K1/06.SYNC.01 
*SOURCE FILE: 19Y08M08
000512  19Y08M08                         A4    C        17:21:56:22 17:22:03:19 01:01:58:02 01:02:04:24 
*FROM CLIP NAME:  3K1/06.SYNC.01 
*SOURCE FILE: 19Y08M08
000513  19Y08M08                         A5    C        17:21:56:22 17:22:03:19 01:01:58:02 01:02:04:24 
*FROM CLIP NAME:  3K1/06.SYNC.01 
*SOURCE FILE: 19Y08M08
000514  19Y08M08                         A6    C        17:21:56:22 17:22:03:19 01:01:58:02 01:02:04:24 
*FROM CLIP NAME:  3K1/06.SYNC.01 
*SOURCE FILE: 19Y08M08
000515  19Y08M08                         A7    C        17:21:56:22 17:22:03:19 01:01:58:02 01:02:04:24 
*FROM CLIP NAME:  3K1/06.SYNC.01 
*SOURCE FILE: 19Y08M08
000516  19Y08M08                         A8    C        17:21:56:22 17:22:03:19 01:01:58:02 01:02:04:24 
*FROM CLIP NAME:  3K1/06.SYNC.01 
*SOURCE FILE: 19Y08M08
000517  19Y08M08                         A9    C        17:21:56:22 17:22:03:19 01:01:58:02 01:02:04:24 
*FROM CLIP NAME:  3K1/06.SYNC.01 
*SOURCE FILE: 19Y08M08
000518  19Y08M08                         A10   C        17:21:56:22 17:22:03:19 01:01:58:02 01:02:04:24 
*FROM CLIP NAME:  3K1/06.SYNC.01 
*PATCH 19Y08M08:  FROM SOURCE 1 TO RECORD 10 
*SOURCE FILE: 19Y08M08
000519  MSMMMOB.42                       V     C        17:22:00:02 17:22:01:24 01:02:01:07 01:02:03:04 
M2      MSMMMOB.42                                025.0 17:22:00:02 
*FROM CLIP NAME:  B009C001_190808_R16N 
*SOURCE FILE: MSMMMOB.42
000520  MSMMMOB.45                       V     C        17:33:17:13 17:33:18:16 01:02:03:04 01:02:04:07 
M2      MSMMMOB.45                                025.0 17:33:17:13 
*FROM CLIP NAME:  A054C008_190808_R32C 
*SOURCE FILE: MSMMMOB.45
000521  19Y08M08                         A11   C        17:33:17:21 17:33:18:21 01:02:03:12 01:02:04:12 
*FROM CLIP NAME:  3K2/01.SYNC.01 
*A11 VOL =  +7.0 DB  PAN R100 
*PATCH 19Y08M08:  FROM SOURCE 7 TO RECORD 11 
*SOURCE FILE: 19Y08M08
000522  MSMMMOB.42                       V     C        17:22:03:02 17:22:04:15 01:02:04:07 01:02:05:20 
M2      MSMMMOB.42                                025.0 17:22:03:02 
*FROM CLIP NAME:  B009C001_190808_R16N 
*SOURCE FILE: MSMMMOB.42
000523  19Y08M08                         A     C        19:00:45:00 19:00:45:06 01:02:04:24 01:02:05:05 
*FROM CLIP NAME:  3K8/01.SYNC.01 
*A1 VOL =  +7.0 DB  PAN R100 
*SOURCE FILE: 19Y08M08
000524  MSMMMOB.03                       A2    C        19:00:45:02 19:00:45:13 01:02:04:24 01:02:05:10 
*FROM CLIP NAME:  B010C007_190808_R16N 
*SOURCE FILE: MSMMMOB.03
000525  19Y08M08                         A3    C        19:00:45:00 19:00:45:11 01:02:04:24 01:02:05:10 
*FROM CLIP NAME:  3K8/01.SYNC.01 
*SOURCE FILE: 19Y08M08
000526  19Y08M08                         A4    C        19:00:45:00 19:00:45:11 01:02:04:24 01:02:05:10 
*FROM CLIP NAME:  3K8/01.SYNC.01 
*SOURCE FILE: 19Y08M08
000527  19Y08M08                         A5    C        19:00:45:00 19:00:45:11 01:02:04:24 01:02:05:10 
*FROM CLIP NAME:  3K8/01.SYNC.01 
*SOURCE FILE: 19Y08M08
000528  19Y08M08                         A6    C        19:00:45:00 19:00:45:11 01:02:04:24 01:02:05:10 
*FROM CLIP NAME:  3K8/01.SYNC.01 
*SOURCE FILE: 19Y08M08
000529  19Y08M08                         A7    C        19:00:45:00 19:00:45:11 01:02:04:24 01:02:05:10 
*FROM CLIP NAME:  3K8/01.SYNC.01 
*SOURCE FILE: 19Y08M08
000530  19Y08M08                         A8    C        19:00:45:00 19:00:45:11 01:02:04:24 01:02:05:10 
*FROM CLIP NAME:  3K8/01.SYNC.01 
*SOURCE FILE: 19Y08M08
000531  19Y08M08                         A9    C        19:00:45:00 19:00:45:11 01:02:04:24 01:02:05:10 
*FROM CLIP NAME:  3K8/01.SYNC.01 
*SOURCE FILE: 19Y08M08
000532  19Y08M08                         A     C        19:00:45:06 19:00:45:06 01:02:05:05 01:02:05:05 
000532  BL                               A     D    010 00:00:00:00 00:00:00:10 01:02:05:05 01:02:05:15 
*FROM CLIP NAME:  3K8/01.SYNC.01 
*A1 VOL =  +7.0 DB  PAN R100 
*SOURCE FILE: 19Y08M08
000533  MSMMMOB.53                       A2    C        18:18:49:12 18:18:52:16 01:02:05:10 01:02:08:14 
*FROM CLIP NAME:  A055C005_190808_R32C 
*SOURCE FILE: MSMMMOB.53
000534  19Y08M08                         A3    C        18:18:49:12 18:18:52:16 01:02:05:10 01:02:08:14 
*FROM CLIP NAME:  3K6/03.SYNC.01 
*SOURCE FILE: 19Y08M08
000535  19Y08M08                         A4    C        18:18:49:12 18:18:52:16 01:02:05:10 01:02:08:14 
*FROM CLIP NAME:  3K6/03.SYNC.01 
*SOURCE FILE: 19Y08M08
000536  19Y08M08                         A5    C        18:18:49:12 18:18:52:16 01:02:05:10 01:02:08:14 
*FROM CLIP NAME:  3K6/03.SYNC.01 
*SOURCE FILE: 19Y08M08
000537  19Y08M08                         A6    C        18:18:49:12 18:18:52:16 01:02:05:10 01:02:08:14 
*FROM CLIP NAME:  3K6/03.SYNC.01 
*SOURCE FILE: 19Y08M08
000538  19Y08M08                         A7    C        18:18:49:12 18:18:52:16 01:02:05:10 01:02:08:14 
*FROM CLIP NAME:  3K6/03.SYNC.01 
*SOURCE FILE: 19Y08M08
000539  19Y08M08                         A8    C        18:18:49:12 18:18:52:16 01:02:05:10 01:02:08:14 
*FROM CLIP NAME:  3K6/03.SYNC.01 
*SOURCE FILE: 19Y08M08
000540  19Y08M08                         A9    C        18:18:49:12 18:18:52:16 01:02:05:10 01:02:08:14 
*FROM CLIP NAME:  3K6/03.SYNC.01 
*SOURCE FILE: 19Y08M08
000541  MSMMMOB.59                       V     C        18:18:49:23 18:18:51:20 01:02:05:20 01:02:07:17 
M2      MSMMMOB.59                                025.0 18:18:49:23 
*FROM CLIP NAME:  B010C001_190808_R16N 
*SOURCE FILE: MSMMMOB.59
000542  MSMMMOB.53                       V     C        18:18:51:18 18:18:52:20 01:02:07:17 01:02:08:19 
M2      MSMMMOB.53                                025.0 18:18:51:18 
*FROM CLIP NAME:  A055C005_190808_R32C 
*SOURCE FILE: MSMMMOB.53
000543  BL                               A     C        00:00:00:00 00:00:00:00 01:02:08:14 01:02:08:14 
000543  19Y08M08                         A     D    002 19:05:14:17 19:05:14:19 01:02:08:14 01:02:08:16 
*TO CLIP NAME:  3K8/02.SYNC.01 
*SOURCE FILE: (NULL)
000544  MSMMMOB.53                       A2    C        18:18:52:16 18:18:52:16 01:02:08:14 01:02:08:14 
000544  MSMMMOB.80                       A2    D    002 19:05:14:19 19:05:14:21 01:02:08:14 01:02:08:16 
*FROM CLIP NAME:  A055C005_190808_R32C 
*TO CLIP NAME:  B010C008_190808_R16N 
*SOURCE FILE: MSMMMOB.53
000545  19Y08M08                         A3    C        18:18:52:16 18:18:52:16 01:02:08:14 01:02:08:14 
000545  19Y08M08                         A3    D    002 19:05:14:17 19:05:14:19 01:02:08:14 01:02:08:16 
*FROM CLIP NAME:  3K6/03.SYNC.01 
*TO CLIP NAME:  3K8/02.SYNC.01 
*SOURCE FILE: 19Y08M08
000546  19Y08M08                         A4    C        18:18:52:16 18:18:52:16 01:02:08:14 01:02:08:14 
000546  19Y08M08                         A4    D    002 19:05:14:17 19:05:14:19 01:02:08:14 01:02:08:16 
*FROM CLIP NAME:  3K6/03.SYNC.01 
*TO CLIP NAME:  3K8/02.SYNC.01 
*SOURCE FILE: 19Y08M08
000547  19Y08M08                         A5    C        18:18:52:16 18:18:52:16 01:02:08:14 01:02:08:14 
000547  19Y08M08                         A5    D    002 19:05:14:17 19:05:14:19 01:02:08:14 01:02:08:16 
*FROM CLIP NAME:  3K6/03.SYNC.01 
*TO CLIP NAME:  3K8/02.SYNC.01 
*SOURCE FILE: 19Y08M08
000548  19Y08M08                         A6    C        18:18:52:16 18:18:52:16 01:02:08:14 01:02:08:14 
000548  19Y08M08                         A6    D    002 19:05:14:17 19:05:14:19 01:02:08:14 01:02:08:16 
*FROM CLIP NAME:  3K6/03.SYNC.01 
*TO CLIP NAME:  3K8/02.SYNC.01 
*SOURCE FILE: 19Y08M08
000549  19Y08M08                         A7    C        18:18:52:16 18:18:52:16 01:02:08:14 01:02:08:14 
000549  19Y08M08                         A7    D    002 19:05:14:17 19:05:14:19 01:02:08:14 01:02:08:16 
*FROM CLIP NAME:  3K6/03.SYNC.01 
*TO CLIP NAME:  3K8/02.SYNC.01 
*SOURCE FILE: 19Y08M08
000550  19Y08M08                         A8    C        18:18:52:16 18:18:52:16 01:02:08:14 01:02:08:14 
000550  19Y08M08                         A8    D    002 19:05:14:17 19:05:14:19 01:02:08:14 01:02:08:16 
*FROM CLIP NAME:  3K6/03.SYNC.01 
*TO CLIP NAME:  3K8/02.SYNC.01 
*SOURCE FILE: 19Y08M08
000551  19Y08M08                         A9    C        18:18:52:16 18:18:52:16 01:02:08:14 01:02:08:14 
000551  19Y08M08                         A9    D    002 19:05:14:17 19:05:14:19 01:02:08:14 01:02:08:16 
*FROM CLIP NAME:  3K6/03.SYNC.01 
*TO CLIP NAME:  3K8/02.SYNC.01 
*SOURCE FILE: 19Y08M08
000552  19Y08M08                         A     C        19:05:14:19 19:05:19:02 01:02:08:16 01:02:12:24 
*FROM CLIP NAME:  3K8/02.SYNC.01 
*SOURCE FILE: 19Y08M08
000553  MSMMMOB.80                       A2    C        19:05:14:21 19:05:19:04 01:02:08:16 01:02:12:24 
*FROM CLIP NAME:  B010C008_190808_R16N 
*SOURCE FILE: MSMMMOB.80
000554  19Y08M08                         A3    C        19:05:14:19 19:05:19:02 01:02:08:16 01:02:12:24 
*FROM CLIP NAME:  3K8/02.SYNC.01 
*SOURCE FILE: 19Y08M08
000555  19Y08M08                         A4    C        19:05:14:19 19:05:19:02 01:02:08:16 01:02:12:24 
*FROM CLIP NAME:  3K8/02.SYNC.01 
*SOURCE FILE: 19Y08M08
000556  19Y08M08                         A5    C        19:05:14:19 19:05:19:02 01:02:08:16 01:02:12:24 
*FROM CLIP NAME:  3K8/02.SYNC.01 
*SOURCE FILE: 19Y08M08
000557  19Y08M08                         A6    C        19:05:14:19 19:05:19:02 01:02:08:16 01:02:12:24 
*FROM CLIP NAME:  3K8/02.SYNC.01 
*SOURCE FILE: 19Y08M08
000558  19Y08M08                         A7    C        19:05:14:19 19:05:19:02 01:02:08:16 01:02:12:24 
*FROM CLIP NAME:  3K8/02.SYNC.01 
*SOURCE FILE: 19Y08M08
000559  19Y08M08                         A8    C        19:05:14:19 19:05:19:02 01:02:08:16 01:02:12:24 
*FROM CLIP NAME:  3K8/02.SYNC.01 
*SOURCE FILE: 19Y08M08
000560  19Y08M08                         A9    C        19:05:14:19 19:05:19:02 01:02:08:16 01:02:12:24 
*FROM CLIP NAME:  3K8/02.SYNC.01 
*SOURCE FILE: 19Y08M08
000561  MSMMMOB.69                       V     C        17:33:24:23 17:33:25:23 01:02:08:19 01:02:09:19 
M2      MSMMMOB.69                                025.0 17:33:24:23 
*FROM CLIP NAME:  B009C002_190808_R16N 
*SOURCE FILE: MSMMMOB.69
000562  MSMMMOB.80                       V     C        19:05:15:24 19:05:19:06 01:02:09:19 01:02:13:01 
M2      MSMMMOB.80                                025.0 19:05:15:24 
*FROM CLIP NAME:  B010C008_190808_R16N 
*SOURCE FILE: MSMMMOB.80
000563  19Y08M08                         A     C        17:33:29:16 17:33:31:19 01:02:12:24 01:02:15:02 
*FROM CLIP NAME:  3K2/01.SYNC.01 
*SOURCE FILE: 19Y08M08
000564  19Y08M08                         A2    C        17:33:29:16 17:33:31:19 01:02:12:24 01:02:15:02 
*FROM CLIP NAME:  3K2/01.SYNC.01 
*SOURCE FILE: 19Y08M08
000565  19Y08M08                         A3    C        17:33:29:16 17:33:31:19 01:02:12:24 01:02:15:02 
*FROM CLIP NAME:  3K2/01.SYNC.01 
*SOURCE FILE: 19Y08M08
000566  19Y08M08                         A4    C        17:33:29:16 17:33:31:19 01:02:12:24 01:02:15:02 
*FROM CLIP NAME:  3K2/01.SYNC.01 
*SOURCE FILE: 19Y08M08
000567  19Y08M08                         A5    C        17:33:29:16 17:33:31:19 01:02:12:24 01:02:15:02 
*FROM CLIP NAME:  3K2/01.SYNC.01 
*SOURCE FILE: 19Y08M08
000568  19Y08M08                         A6    C        17:33:29:16 17:33:31:19 01:02:12:24 01:02:15:02 
*FROM CLIP NAME:  3K2/01.SYNC.01 
*SOURCE FILE: 19Y08M08
000569  19Y08M08                         A7    C        17:33:29:16 17:33:31:19 01:02:12:24 01:02:15:02 
*FROM CLIP NAME:  3K2/01.SYNC.01 
*SOURCE FILE: 19Y08M08
000570  19Y08M08                         A8    C        17:33:29:16 17:33:31:19 01:02:12:24 01:02:15:02 
*FROM CLIP NAME:  3K2/01.SYNC.01 
*SOURCE FILE: 19Y08M08
000571  19Y08M08                         A9    C        17:33:29:16 17:33:31:19 01:02:12:24 01:02:15:02 
*FROM CLIP NAME:  3K2/01.SYNC.01 
*SOURCE FILE: 19Y08M08
000572  19Y08M08                         A10   C        17:33:29:16 17:33:31:19 01:02:12:24 01:02:15:02 
*FROM CLIP NAME:  3K2/01.SYNC.01 
*PATCH 19Y08M08:  FROM SOURCE 1 TO RECORD 10 
*SOURCE FILE: 19Y08M08
000573  MSMMMOB.69                       V     C        17:33:29:19 17:33:31:23 01:02:13:01 01:02:15:05 
M2      MSMMMOB.69                                025.0 17:33:29:19 
*FROM CLIP NAME:  B009C002_190808_R16N 
*SOURCE FILE: MSMMMOB.69
000574  19Y08M08                         A     C        17:33:31:19 17:33:31:19 01:02:15:02 01:02:15:02 
000574  19Y08M08                         A     D    002 18:52:34:00 18:52:34:02 01:02:15:02 01:02:15:04 
*FROM CLIP NAME:  3K2/01.SYNC.01 
*TO CLIP NAME:  3K7/05.SYNC.01 
*SOURCE FILE: 19Y08M08
000575  19Y08M08                         A2    C        17:33:31:19 17:33:31:19 01:02:15:02 01:02:15:02 
000575  MSMMMOB.23                       A2    D    002 18:52:34:01 18:52:34:03 01:02:15:02 01:02:15:04 
*FROM CLIP NAME:  3K2/01.SYNC.01 
*TO CLIP NAME:  A056C003_190808_R32C 
*SOURCE FILE: 19Y08M08
000576  19Y08M08                         A3    C        17:33:31:19 17:33:31:19 01:02:15:02 01:02:15:02 
000576  19Y08M08                         A3    D    002 18:52:34:00 18:52:34:02 01:02:15:02 01:02:15:04 
*FROM CLIP NAME:  3K2/01.SYNC.01 
*TO CLIP NAME:  3K7/05.SYNC.01 
*SOURCE FILE: 19Y08M08
000577  19Y08M08                         A4    C        17:33:31:19 17:33:31:19 01:02:15:02 01:02:15:02 
000577  19Y08M08                         A4    D    002 18:52:34:00 18:52:34:02 01:02:15:02 01:02:15:04 
*FROM CLIP NAME:  3K2/01.SYNC.01 
*TO CLIP NAME:  3K7/05.SYNC.01 
*SOURCE FILE: 19Y08M08
000578  19Y08M08                         A5    C        17:33:31:19 17:33:31:19 01:02:15:02 01:02:15:02 
000578  19Y08M08                         A5    D    002 18:52:34:00 18:52:34:02 01:02:15:02 01:02:15:04 
*FROM CLIP NAME:  3K2/01.SYNC.01 
*TO CLIP NAME:  3K7/05.SYNC.01 
*SOURCE FILE: 19Y08M08
000579  19Y08M08                         A6    C        17:33:31:19 17:33:31:19 01:02:15:02 01:02:15:02 
000579  19Y08M08                         A6    D    002 18:52:34:00 18:52:34:02 01:02:15:02 01:02:15:04 
*FROM CLIP NAME:  3K2/01.SYNC.01 
*TO CLIP NAME:  3K7/05.SYNC.01 
*SOURCE FILE: 19Y08M08
000580  19Y08M08                         A7    C        17:33:31:19 17:33:31:19 01:02:15:02 01:02:15:02 
000580  19Y08M08                         A7    D    002 18:52:34:00 18:52:34:02 01:02:15:02 01:02:15:04 
*FROM CLIP NAME:  3K2/01.SYNC.01 
*TO CLIP NAME:  3K7/05.SYNC.01 
*SOURCE FILE: 19Y08M08
000581  19Y08M08                         A8    C        17:33:31:19 17:33:31:19 01:02:15:02 01:02:15:02 
000581  19Y08M08                         A8    D    002 18:52:34:00 18:52:34:02 01:02:15:02 01:02:15:04 
*FROM CLIP NAME:  3K2/01.SYNC.01 
*TO CLIP NAME:  3K7/05.SYNC.01 
*SOURCE FILE: 19Y08M08
000582  19Y08M08                         A9    C        17:33:31:19 17:33:31:19 01:02:15:02 01:02:15:02 
000582  19Y08M08                         A9    D    002 18:52:34:00 18:52:34:02 01:02:15:02 01:02:15:04 
*FROM CLIP NAME:  3K2/01.SYNC.01 
*TO CLIP NAME:  3K7/05.SYNC.01 
*SOURCE FILE: 19Y08M08
000583  19Y08M08                         A10   C        17:33:31:19 17:33:31:19 01:02:15:02 01:02:15:02 
000583  BL                               A10   D    002 00:00:00:00 00:00:00:02 01:02:15:02 01:02:15:04 
*FROM CLIP NAME:  3K2/01.SYNC.01 
*PATCH 19Y08M08:  FROM SOURCE 1 TO RECORD 10 
*SOURCE FILE: 19Y08M08
000584  19Y08M08                         A     C        18:52:34:02 18:52:36:05 01:02:15:04 01:02:17:07 
*FROM CLIP NAME:  3K7/05.SYNC.01 
*SOURCE FILE: 19Y08M08
000585  MSMMMOB.23                       A2    C        18:52:34:03 18:52:36:06 01:02:15:04 01:02:17:07 
*FROM CLIP NAME:  A056C003_190808_R32C 
*SOURCE FILE: MSMMMOB.23
000586  19Y08M08                         A3    C        18:52:34:02 18:52:36:05 01:02:15:04 01:02:17:07 
*FROM CLIP NAME:  3K7/05.SYNC.01 
*SOURCE FILE: 19Y08M08
000587  19Y08M08                         A4    C        18:52:34:02 18:52:36:05 01:02:15:04 01:02:17:07 
*FROM CLIP NAME:  3K7/05.SYNC.01 
*SOURCE FILE: 19Y08M08
000588  19Y08M08                         A5    C        18:52:34:02 18:52:36:05 01:02:15:04 01:02:17:07 
*FROM CLIP NAME:  3K7/05.SYNC.01 
*SOURCE FILE: 19Y08M08
000589  19Y08M08                         A6    C        18:52:34:02 18:52:36:05 01:02:15:04 01:02:17:07 
*FROM CLIP NAME:  3K7/05.SYNC.01 
*SOURCE FILE: 19Y08M08
000590  19Y08M08                         A7    C        18:52:34:02 18:52:36:05 01:02:15:04 01:02:17:07 
*FROM CLIP NAME:  3K7/05.SYNC.01 
*SOURCE FILE: 19Y08M08
000591  19Y08M08                         A8    C        18:52:34:02 18:52:36:05 01:02:15:04 01:02:17:07 
*FROM CLIP NAME:  3K7/05.SYNC.01 
*SOURCE FILE: 19Y08M08
000592  19Y08M08                         A9    C        18:52:34:02 18:52:36:05 01:02:15:04 01:02:17:07 
*FROM CLIP NAME:  3K7/05.SYNC.01 
*SOURCE FILE: 19Y08M08
000593  MSMMMOB.63                       V     C        18:52:34:05 18:52:36:05 01:02:15:05 01:02:17:05 
M2      MSMMMOB.63                                025.0 18:52:34:05 
*FROM CLIP NAME:  B010C006_190808_R16N 
*SOURCE FILE: MSMMMOB.63
000594  MSMMMOB.82                       V     C        17:56:10:16 17:56:12:24 01:02:17:05 01:02:19:13 
M2      MSMMMOB.82                                025.0 17:56:10:16 
*FROM CLIP NAME:  B009C005_190808_R16N 
*SOURCE FILE: MSMMMOB.82
000595  19Y08M08                         A     C        18:52:36:05 18:52:36:05 01:02:17:07 01:02:17:07 
000595  19Y08M08                         A     D    002 17:56:10:16 17:56:10:18 01:02:17:07 01:02:17:09 
*FROM CLIP NAME:  3K7/05.SYNC.01 
*TO CLIP NAME:  3K5/01.SYNC.01 
*SOURCE FILE: 19Y08M08
000596  MSMMMOB.23                       A2    C        18:52:36:06 18:52:36:06 01:02:17:07 01:02:17:07 
000596  MSMMMOB.82                       A2    D    002 17:56:10:18 17:56:10:20 01:02:17:07 01:02:17:09 
*FROM CLIP NAME:  A056C003_190808_R32C 
*TO CLIP NAME:  B009C005_190808_R16N 
*SOURCE FILE: MSMMMOB.23
000597  19Y08M08                         A3    C        18:52:36:05 18:52:36:05 01:02:17:07 01:02:17:07 
000597  19Y08M08                         A3    D    002 17:56:10:16 17:56:10:18 01:02:17:07 01:02:17:09 
*FROM CLIP NAME:  3K7/05.SYNC.01 
*TO CLIP NAME:  3K5/01.SYNC.01 
*SOURCE FILE: 19Y08M08
000598  19Y08M08                         A4    C        18:52:36:05 18:52:36:05 01:02:17:07 01:02:17:07 
000598  19Y08M08                         A4    D    002 17:56:10:16 17:56:10:18 01:02:17:07 01:02:17:09 
*FROM CLIP NAME:  3K7/05.SYNC.01 
*TO CLIP NAME:  3K5/01.SYNC.01 
*SOURCE FILE: 19Y08M08
000599  19Y08M08                         A5    C        18:52:36:05 18:52:36:05 01:02:17:07 01:02:17:07 
000599  19Y08M08                         A5    D    002 17:56:10:16 17:56:10:18 01:02:17:07 01:02:17:09 
*FROM CLIP NAME:  3K7/05.SYNC.01 
*TO CLIP NAME:  3K5/01.SYNC.01 
*SOURCE FILE: 19Y08M08
000600  19Y08M08                         A6    C        18:52:36:05 18:52:36:05 01:02:17:07 01:02:17:07 
000600  19Y08M08                         A6    D    002 17:56:10:16 17:56:10:18 01:02:17:07 01:02:17:09 
*FROM CLIP NAME:  3K7/05.SYNC.01 
*TO CLIP NAME:  3K5/01.SYNC.01 
*SOURCE FILE: 19Y08M08
000601  19Y08M08                         A7    C        18:52:36:05 18:52:36:05 01:02:17:07 01:02:17:07 
000601  19Y08M08                         A7    D    002 17:56:10:16 17:56:10:18 01:02:17:07 01:02:17:09 
*FROM CLIP NAME:  3K7/05.SYNC.01 
*TO CLIP NAME:  3K5/01.SYNC.01 
*SOURCE FILE: 19Y08M08
000602  19Y08M08                         A8    C        18:52:36:05 18:52:36:05 01:02:17:07 01:02:17:07 
000602  19Y08M08                         A8    D    002 17:56:10:16 17:56:10:18 01:02:17:07 01:02:17:09 
*FROM CLIP NAME:  3K7/05.SYNC.01 
*TO CLIP NAME:  3K5/01.SYNC.01 
*SOURCE FILE: 19Y08M08
000603  19Y08M08                         A9    C        18:52:36:05 18:52:36:05 01:02:17:07 01:02:17:07 
000603  19Y08M08                         A9    D    002 17:56:10:16 17:56:10:18 01:02:17:07 01:02:17:09 
*FROM CLIP NAME:  3K7/05.SYNC.01 
*TO CLIP NAME:  3K5/01.SYNC.01 
*SOURCE FILE: 19Y08M08
000604  19Y08M08                         A     C        17:56:10:18 17:56:13:02 01:02:17:09 01:02:19:18 
*FROM CLIP NAME:  3K5/01.SYNC.01 
*SOURCE FILE: 19Y08M08
000605  MSMMMOB.82                       A2    C        17:56:10:20 17:56:13:04 01:02:17:09 01:02:19:18 
*FROM CLIP NAME:  B009C005_190808_R16N 
*SOURCE FILE: MSMMMOB.82
000606  19Y08M08                         A3    C        17:56:10:18 17:56:13:02 01:02:17:09 01:02:19:18 
*FROM CLIP NAME:  3K5/01.SYNC.01 
*SOURCE FILE: 19Y08M08
000607  19Y08M08                         A4    C        17:56:10:18 17:56:13:02 01:02:17:09 01:02:19:18 
*FROM CLIP NAME:  3K5/01.SYNC.01 
*SOURCE FILE: 19Y08M08
000608  19Y08M08                         A5    C        17:56:10:18 17:56:13:02 01:02:17:09 01:02:19:18 
*FROM CLIP NAME:  3K5/01.SYNC.01 
*SOURCE FILE: 19Y08M08
000609  19Y08M08                         A6    C        17:56:10:18 17:56:13:02 01:02:17:09 01:02:19:18 
*FROM CLIP NAME:  3K5/01.SYNC.01 
*SOURCE FILE: 19Y08M08
000610  19Y08M08                         A7    C        17:56:10:18 17:56:13:02 01:02:17:09 01:02:19:18 
*FROM CLIP NAME:  3K5/01.SYNC.01 
*SOURCE FILE: 19Y08M08
000611  19Y08M08                         A8    C        17:56:10:18 17:56:13:02 01:02:17:09 01:02:19:18 
*FROM CLIP NAME:  3K5/01.SYNC.01 
*SOURCE FILE: 19Y08M08
000612  19Y08M08                         A9    C        17:56:10:18 17:56:13:02 01:02:17:09 01:02:19:18 
*FROM CLIP NAME:  3K5/01.SYNC.01 
*SOURCE FILE: 19Y08M08
000613  MSMMMOB.35                       V     C        17:37:15:14 17:37:17:18 01:02:19:13 01:02:21:17 
M2      MSMMMOB.35                                025.0 17:37:15:14 
*FROM CLIP NAME:  A054C009_190808_R32C 
*SOURCE FILE: MSMMMOB.35
000614  19Y08M08                         A     C        17:56:13:01 17:56:14:11 01:02:19:18 01:02:21:03 
*FROM CLIP NAME:  3K5/01.SYNC.01 
*SOURCE FILE: 19Y08M08
000615  MSMMMOB.82                       A2    C        17:56:13:03 17:56:14:13 01:02:19:18 01:02:21:03 
*FROM CLIP NAME:  B009C005_190808_R16N 
*SOURCE FILE: MSMMMOB.82
000616  19Y08M08                         A3    C        17:56:13:01 17:56:14:11 01:02:19:18 01:02:21:03 
*FROM CLIP NAME:  3K5/01.SYNC.01 
*SOURCE FILE: 19Y08M08
000617  19Y08M08                         A4    C        17:56:13:01 17:56:14:11 01:02:19:18 01:02:21:03 
*FROM CLIP NAME:  3K5/01.SYNC.01 
*SOURCE FILE: 19Y08M08
000618  19Y08M08                         A5    C        17:56:13:01 17:56:14:11 01:02:19:18 01:02:21:03 
*FROM CLIP NAME:  3K5/01.SYNC.01 
*SOURCE FILE: 19Y08M08
000619  19Y08M08                         A6    C        17:56:13:01 17:56:14:11 01:02:19:18 01:02:21:03 
*FROM CLIP NAME:  3K5/01.SYNC.01 
*SOURCE FILE: 19Y08M08
000620  19Y08M08                         A7    C        17:56:13:01 17:56:14:11 01:02:19:18 01:02:21:03 
*FROM CLIP NAME:  3K5/01.SYNC.01 
*SOURCE FILE: 19Y08M08
000621  19Y08M08                         A8    C        17:56:13:01 17:56:14:11 01:02:19:18 01:02:21:03 
*FROM CLIP NAME:  3K5/01.SYNC.01 
*SOURCE FILE: 19Y08M08
000622  19Y08M08                         A9    C        17:56:13:01 17:56:14:11 01:02:19:18 01:02:21:03 
*FROM CLIP NAME:  3K5/01.SYNC.01 
*SOURCE FILE: 19Y08M08
000623  19Y08M08                         A     C        19:05:28:05 19:05:32:18 01:02:21:03 01:02:25:16 
*FROM CLIP NAME:  3K8/02.SYNC.01 
*SOURCE FILE: 19Y08M08
000624  MSMMMOB.80                       A2    C        19:05:28:07 19:05:32:20 01:02:21:03 01:02:25:16 
*FROM CLIP NAME:  B010C008_190808_R16N 
*SOURCE FILE: MSMMMOB.80
000625  19Y08M08                         A3    C        19:05:28:05 19:05:32:18 01:02:21:03 01:02:25:16 
*FROM CLIP NAME:  3K8/02.SYNC.01 
*SOURCE FILE: 19Y08M08
000626  19Y08M08                         A4    C        19:05:28:05 19:05:32:18 01:02:21:03 01:02:25:16 
*FROM CLIP NAME:  3K8/02.SYNC.01 
*SOURCE FILE: 19Y08M08
000627  19Y08M08                         A5    C        19:05:28:05 19:05:32:18 01:02:21:03 01:02:25:16 
*FROM CLIP NAME:  3K8/02.SYNC.01 
*SOURCE FILE: 19Y08M08
000628  19Y08M08                         A6    C        19:05:28:05 19:05:32:18 01:02:21:03 01:02:25:16 
*FROM CLIP NAME:  3K8/02.SYNC.01 
*SOURCE FILE: 19Y08M08
000629  19Y08M08                         A7    C        19:05:28:05 19:05:32:18 01:02:21:03 01:02:25:16 
*FROM CLIP NAME:  3K8/02.SYNC.01 
*SOURCE FILE: 19Y08M08
000630  19Y08M08                         A8    C        19:05:28:05 19:05:32:18 01:02:21:03 01:02:25:16 
*FROM CLIP NAME:  3K8/02.SYNC.01 
*SOURCE FILE: 19Y08M08
000631  19Y08M08                         A9    C        19:05:28:05 19:05:32:18 01:02:21:03 01:02:25:16 
*FROM CLIP NAME:  3K8/02.SYNC.01 
*SOURCE FILE: 19Y08M08
000632  MSMMMOB.82                       V     C        17:56:14:14 17:56:16:01 01:02:21:17 01:02:23:04 
M2      MSMMMOB.82                                025.0 17:56:14:14 
*FROM CLIP NAME:  B009C005_190808_R16N 
*SOURCE FILE: MSMMMOB.82
000633  MSMMMOB.80                       V     C        19:05:30:08 19:05:32:20 01:02:23:04 01:02:25:16 
M2      MSMMMOB.80                                025.0 19:05:30:08 
*FROM CLIP NAME:  B010C008_190808_R16N 
*SOURCE FILE: MSMMMOB.80
000634  MSMMMOB.82                       V     C        17:56:17:06 17:56:21:08 01:02:25:16 01:02:29:18 
M2      MSMMMOB.82                                025.0 17:56:17:06 
*FROM CLIP NAME:  B009C005_190808_R16N 
*SOURCE FILE: MSMMMOB.82
000635  19Y08M08                         A     C        17:56:17:04 17:56:21:06 01:02:25:16 01:02:29:18 
*FROM CLIP NAME:  3K5/01.SYNC.01 
*SOURCE FILE: 19Y08M08
000636  MSMMMOB.82                       A2    C        17:56:17:06 17:56:21:08 01:02:25:16 01:02:29:18 
*FROM CLIP NAME:  B009C005_190808_R16N 
*SOURCE FILE: MSMMMOB.82
000637  19Y08M08                         A3    C        17:56:17:04 17:56:21:06 01:02:25:16 01:02:29:18 
*FROM CLIP NAME:  3K5/01.SYNC.01 
*SOURCE FILE: 19Y08M08
000638  19Y08M08                         A4    C        17:56:17:04 17:56:21:06 01:02:25:16 01:02:29:18 
*FROM CLIP NAME:  3K5/01.SYNC.01 
*SOURCE FILE: 19Y08M08
000639  19Y08M08                         A5    C        17:56:17:04 17:56:21:06 01:02:25:16 01:02:29:18 
*FROM CLIP NAME:  3K5/01.SYNC.01 
*SOURCE FILE: 19Y08M08
000640  19Y08M08                         A6    C        17:56:17:04 17:56:21:06 01:02:25:16 01:02:29:18 
*FROM CLIP NAME:  3K5/01.SYNC.01 
*SOURCE FILE: 19Y08M08
000641  19Y08M08                         A7    C        17:56:17:04 17:56:21:06 01:02:25:16 01:02:29:18 
*FROM CLIP NAME:  3K5/01.SYNC.01 
*SOURCE FILE: 19Y08M08
000642  19Y08M08                         A8    C        17:56:17:04 17:56:21:06 01:02:25:16 01:02:29:18 
*FROM CLIP NAME:  3K5/01.SYNC.01 
*SOURCE FILE: 19Y08M08
000643  19Y08M08                         A9    C        17:56:17:04 17:56:21:06 01:02:25:16 01:02:29:18 
*FROM CLIP NAME:  3K5/01.SYNC.01 
*SOURCE FILE: 19Y08M08
000644  MSMMMOB.42                       V     C        17:22:27:11 17:22:32:12 01:02:29:18 01:02:34:19 
M2      MSMMMOB.42                                025.0 17:22:27:11 
*FROM CLIP NAME:  B009C001_190808_R16N 
*SOURCE FILE: MSMMMOB.42
000645  19Y08M08                         A     C        17:22:27:11 17:22:32:16 01:02:29:18 01:02:34:23 
*FROM CLIP NAME:  3K1/06.SYNC.01 
*SOURCE FILE: 19Y08M08
000646  19Y08M08                         A2    C        17:22:27:11 17:22:32:16 01:02:29:18 01:02:34:23 
*FROM CLIP NAME:  3K1/06.SYNC.01 
*SOURCE FILE: 19Y08M08
000647  19Y08M08                         A3    C        17:22:27:11 17:22:32:16 01:02:29:18 01:02:34:23 
*FROM CLIP NAME:  3K1/06.SYNC.01 
*SOURCE FILE: 19Y08M08
000648  19Y08M08                         A4    C        17:22:27:11 17:22:32:16 01:02:29:18 01:02:34:23 
*FROM CLIP NAME:  3K1/06.SYNC.01 
*SOURCE FILE: 19Y08M08
000649  19Y08M08                         A5    C        17:22:27:11 17:22:32:16 01:02:29:18 01:02:34:23 
*FROM CLIP NAME:  3K1/06.SYNC.01 
*SOURCE FILE: 19Y08M08
000650  19Y08M08                         A6    C        17:22:27:11 17:22:32:16 01:02:29:18 01:02:34:23 
*FROM CLIP NAME:  3K1/06.SYNC.01 
*SOURCE FILE: 19Y08M08
000651  19Y08M08                         A7    C        17:22:27:11 17:22:32:16 01:02:29:18 01:02:34:23 
*FROM CLIP NAME:  3K1/06.SYNC.01 
*SOURCE FILE: 19Y08M08
000652  19Y08M08                         A8    C        17:22:27:11 17:22:32:16 01:02:29:18 01:02:34:23 
*FROM CLIP NAME:  3K1/06.SYNC.01 
*SOURCE FILE: 19Y08M08
000653  19Y08M08                         A9    C        17:22:27:11 17:22:32:16 01:02:29:18 01:02:34:23 
*FROM CLIP NAME:  3K1/06.SYNC.01 
*SOURCE FILE: 19Y08M08
000654  19Y08M08                         A10   C        17:22:27:11 17:22:32:16 01:02:29:18 01:02:34:23 
*FROM CLIP NAME:  3K1/06.SYNC.01 
*PATCH 19Y08M08:  FROM SOURCE 1 TO RECORD 10 
*SOURCE FILE: 19Y08M08
000655  MSMMMOB.53                       V     C        18:19:21:24 18:19:23:00 01:02:34:19 01:02:35:20 
M2      MSMMMOB.53                                025.0 18:19:21:24 
*FROM CLIP NAME:  A055C005_190808_R32C 
*SOURCE FILE: MSMMMOB.53
000656  19Y08M08                         A     C        19:05:43:20 19:05:46:10 01:02:34:23 01:02:37:13 
*FROM CLIP NAME:  3K8/02.SYNC.01 
*SOURCE FILE: 19Y08M08
000657  MSMMMOB.80                       A2    C        19:05:43:22 19:05:46:12 01:02:34:23 01:02:37:13 
*FROM CLIP NAME:  B010C008_190808_R16N 
*SOURCE FILE: MSMMMOB.80
000658  19Y08M08                         A3    C        19:05:43:20 19:05:46:10 01:02:34:23 01:02:37:13 
*FROM CLIP NAME:  3K8/02.SYNC.01 
*SOURCE FILE: 19Y08M08
000659  19Y08M08                         A4    C        19:05:43:20 19:05:46:10 01:02:34:23 01:02:37:13 
*FROM CLIP NAME:  3K8/02.SYNC.01 
*SOURCE FILE: 19Y08M08
000660  19Y08M08                         A5    C        19:05:43:20 19:05:46:10 01:02:34:23 01:02:37:13 
*FROM CLIP NAME:  3K8/02.SYNC.01 
*SOURCE FILE: 19Y08M08
000661  19Y08M08                         A6    C        19:05:43:20 19:05:46:10 01:02:34:23 01:02:37:13 
*FROM CLIP NAME:  3K8/02.SYNC.01 
*SOURCE FILE: 19Y08M08
000662  19Y08M08                         A7    C        19:05:43:20 19:05:46:10 01:02:34:23 01:02:37:13 
*FROM CLIP NAME:  3K8/02.SYNC.01 
*SOURCE FILE: 19Y08M08
000663  19Y08M08                         A8    C        19:05:43:20 19:05:46:10 01:02:34:23 01:02:37:13 
*FROM CLIP NAME:  3K8/02.SYNC.01 
*SOURCE FILE: 19Y08M08
000664  19Y08M08                         A9    C        19:05:43:20 19:05:46:10 01:02:34:23 01:02:37:13 
*FROM CLIP NAME:  3K8/02.SYNC.01 
*SOURCE FILE: 19Y08M08
000665  MSMMMOB.09                       V     C        19:05:44:18 19:05:45:21 01:02:35:20 01:02:36:23 
M2      MSMMMOB.09                                025.0 19:05:44:18 
*FROM CLIP NAME:  A056C005_190808_R32C 
*SOURCE FILE: MSMMMOB.09
000666  MSMMMOB.69                       V     C        17:33:50:15 17:33:51:22 01:02:36:23 01:02:38:05 
M2      MSMMMOB.69                                025.0 17:33:50:15 
*FROM CLIP NAME:  B009C002_190808_R16N 
*SOURCE FILE: MSMMMOB.69
000667  19Y08M08                         A     C        17:33:51:04 17:33:51:21 01:02:37:13 01:02:38:05 
*FROM CLIP NAME:  3K2/01.SYNC.01 
*SOURCE FILE: 19Y08M08
000668  19Y08M08                         A2    C        17:33:51:04 17:33:51:21 01:02:37:13 01:02:38:05 
*FROM CLIP NAME:  3K2/01.SYNC.01 
*SOURCE FILE: 19Y08M08
000669  19Y08M08                         A3    C        17:33:51:04 17:33:51:21 01:02:37:13 01:02:38:05 
*FROM CLIP NAME:  3K2/01.SYNC.01 
*SOURCE FILE: 19Y08M08
000670  19Y08M08                         A4    C        17:33:51:04 17:33:51:21 01:02:37:13 01:02:38:05 
*FROM CLIP NAME:  3K2/01.SYNC.01 
*SOURCE FILE: 19Y08M08
000671  19Y08M08                         A5    C        17:33:51:04 17:33:51:21 01:02:37:13 01:02:38:05 
*FROM CLIP NAME:  3K2/01.SYNC.01 
*SOURCE FILE: 19Y08M08
000672  19Y08M08                         A6    C        17:33:51:04 17:33:51:21 01:02:37:13 01:02:38:05 
*FROM CLIP NAME:  3K2/01.SYNC.01 
*SOURCE FILE: 19Y08M08
000673  19Y08M08                         A7    C        17:33:51:04 17:33:51:21 01:02:37:13 01:02:38:05 
*FROM CLIP NAME:  3K2/01.SYNC.01 
*SOURCE FILE: 19Y08M08
000674  19Y08M08                         A8    C        17:33:51:04 17:33:51:21 01:02:37:13 01:02:38:05 
*FROM CLIP NAME:  3K2/01.SYNC.01 
*SOURCE FILE: 19Y08M08
000675  19Y08M08                         A9    C        17:33:51:04 17:33:51:21 01:02:37:13 01:02:38:05 
*FROM CLIP NAME:  3K2/01.SYNC.01 
*SOURCE FILE: 19Y08M08
000676  19Y08M08                         A10   C        17:33:51:04 17:33:51:21 01:02:37:13 01:02:38:05 
*FROM CLIP NAME:  3K2/01.SYNC.01 
*PATCH 19Y08M08:  FROM SOURCE 1 TO RECORD 10 
*SOURCE FILE: 19Y08M08
000677  19Y08M08                         A     C        17:34:17:05 17:34:17:17 01:02:38:05 01:02:38:17 
*FROM CLIP NAME:  3K2/01.SYNC.01 
*SOURCE FILE: 19Y08M08
000678  19Y08M08                         A2    C        17:34:17:05 17:34:17:17 01:02:38:05 01:02:38:17 
*FROM CLIP NAME:  3K2/01.SYNC.01 
*SOURCE FILE: 19Y08M08
000679  19Y08M08                         A3    C        17:34:17:05 17:34:17:17 01:02:38:05 01:02:38:17 
*FROM CLIP NAME:  3K2/01.SYNC.01 
*SOURCE FILE: 19Y08M08
000680  19Y08M08                         A4    C        17:34:17:05 17:34:17:17 01:02:38:05 01:02:38:17 
*FROM CLIP NAME:  3K2/01.SYNC.01 
*SOURCE FILE: 19Y08M08
000681  19Y08M08                         A5    C        17:34:17:05 17:34:17:17 01:02:38:05 01:02:38:17 
*FROM CLIP NAME:  3K2/01.SYNC.01 
*SOURCE FILE: 19Y08M08
000682  19Y08M08                         A6    C        17:34:17:05 17:34:17:17 01:02:38:05 01:02:38:17 
*FROM CLIP NAME:  3K2/01.SYNC.01 
*SOURCE FILE: 19Y08M08
000683  19Y08M08                         A7    C        17:34:17:05 17:34:17:17 01:02:38:05 01:02:38:17 
*FROM CLIP NAME:  3K2/01.SYNC.01 
*SOURCE FILE: 19Y08M08
000684  19Y08M08                         A8    C        17:34:17:05 17:34:17:17 01:02:38:05 01:02:38:17 
*FROM CLIP NAME:  3K2/01.SYNC.01 
*SOURCE FILE: 19Y08M08
000685  19Y08M08                         A9    C        17:34:17:05 17:34:17:17 01:02:38:05 01:02:38:17 
*FROM CLIP NAME:  3K2/01.SYNC.01 
*SOURCE FILE: 19Y08M08
000686  19Y08M08                         A10   C        17:34:17:05 17:34:17:17 01:02:38:05 01:02:38:17 
*FROM CLIP NAME:  3K2/01.SYNC.01 
*PATCH 19Y08M08:  FROM SOURCE 1 TO RECORD 10 
*SOURCE FILE: 19Y08M08
000687  MSMMMOB.09                       V     C        19:05:48:22 19:05:50:17 01:02:38:05 01:02:40:00 
M2      MSMMMOB.09                                025.0 19:05:48:22 
*FROM CLIP NAME:  A056C005_190808_R32C 
*SOURCE FILE: MSMMMOB.09
000688  19Y08M08                         A     C        17:33:52:22 17:33:56:00 01:02:38:17 01:02:41:20 
*FROM CLIP NAME:  3K2/01.SYNC.01 
*SOURCE FILE: 19Y08M08
000689  19Y08M08                         A2    C        17:33:52:22 17:33:56:00 01:02:38:17 01:02:41:20 
*FROM CLIP NAME:  3K2/01.SYNC.01 
*SOURCE FILE: 19Y08M08
000690  19Y08M08                         A3    C        17:33:52:22 17:33:56:00 01:02:38:17 01:02:41:20 
*FROM CLIP NAME:  3K2/01.SYNC.01 
*SOURCE FILE: 19Y08M08
000691  19Y08M08                         A4    C        17:33:52:22 17:33:56:00 01:02:38:17 01:02:41:20 
*FROM CLIP NAME:  3K2/01.SYNC.01 
*SOURCE FILE: 19Y08M08
000692  19Y08M08                         A5    C        17:33:52:22 17:33:56:00 01:02:38:17 01:02:41:20 
*FROM CLIP NAME:  3K2/01.SYNC.01 
*SOURCE FILE: 19Y08M08
000693  19Y08M08                         A6    C        17:33:52:22 17:33:56:00 01:02:38:17 01:02:41:20 
*FROM CLIP NAME:  3K2/01.SYNC.01 
*SOURCE FILE: 19Y08M08
000694  19Y08M08                         A7    C        17:33:52:22 17:33:56:00 01:02:38:17 01:02:41:20 
*FROM CLIP NAME:  3K2/01.SYNC.01 
*SOURCE FILE: 19Y08M08
000695  19Y08M08                         A8    C        17:33:52:22 17:33:56:00 01:02:38:17 01:02:41:20 
*FROM CLIP NAME:  3K2/01.SYNC.01 
*SOURCE FILE: 19Y08M08
000696  19Y08M08                         A9    C        17:33:52:22 17:33:56:00 01:02:38:17 01:02:41:20 
*FROM CLIP NAME:  3K2/01.SYNC.01 
*SOURCE FILE: 19Y08M08
000697  19Y08M08                         A10   C        17:33:52:22 17:33:56:00 01:02:38:17 01:02:41:20 
*FROM CLIP NAME:  3K2/01.SYNC.01 
*PATCH 19Y08M08:  FROM SOURCE 1 TO RECORD 10 
*SOURCE FILE: 19Y08M08
000698  MSMMMOB.69                       V     C        17:33:54:06 17:33:56:01 01:02:40:00 01:02:41:20 
M2      MSMMMOB.69                                025.0 17:33:54:06 
*FROM CLIP NAME:  B009C002_190808_R16N 
*SOURCE FILE: MSMMMOB.69
000699  MSMMMOB.09                       V     C        19:05:52:12 19:05:54:18 01:02:41:20 01:02:44:01 
M2      MSMMMOB.09                                025.0 19:05:52:12 
*FROM CLIP NAME:  A056C005_190808_R32C 
*SOURCE FILE: MSMMMOB.09
000700  19Y08M08                         A     C        19:05:52:11 19:05:56:23 01:02:41:20 01:02:46:07 
*FROM CLIP NAME:  3K8/02.SYNC.01 
*SOURCE FILE: 19Y08M08
000701  MSMMMOB.80                       A2    C        19:05:52:13 19:05:57:00 01:02:41:20 01:02:46:07 
*FROM CLIP NAME:  B010C008_190808_R16N 
*SOURCE FILE: MSMMMOB.80
000702  19Y08M08                         A3    C        19:05:52:11 19:05:56:23 01:02:41:20 01:02:46:07 
*FROM CLIP NAME:  3K8/02.SYNC.01 
*SOURCE FILE: 19Y08M08
000703  19Y08M08                         A4    C        19:05:52:11 19:05:56:23 01:02:41:20 01:02:46:07 
*FROM CLIP NAME:  3K8/02.SYNC.01 
*SOURCE FILE: 19Y08M08
000704  19Y08M08                         A5    C        19:05:52:11 19:05:56:23 01:02:41:20 01:02:46:07 
*FROM CLIP NAME:  3K8/02.SYNC.01 
*SOURCE FILE: 19Y08M08
000705  19Y08M08                         A6    C        19:05:52:11 19:05:56:23 01:02:41:20 01:02:46:07 
*FROM CLIP NAME:  3K8/02.SYNC.01 
*SOURCE FILE: 19Y08M08
000706  19Y08M08                         A7    C        19:05:52:11 19:05:56:23 01:02:41:20 01:02:46:07 
*FROM CLIP NAME:  3K8/02.SYNC.01 
*SOURCE FILE: 19Y08M08
000707  19Y08M08                         A8    C        19:05:52:11 19:05:56:23 01:02:41:20 01:02:46:07 
*FROM CLIP NAME:  3K8/02.SYNC.01 
*SOURCE FILE: 19Y08M08
000708  19Y08M08                         A9    C        19:05:52:11 19:05:56:23 01:02:41:20 01:02:46:07 
*FROM CLIP NAME:  3K8/02.SYNC.01 
*SOURCE FILE: 19Y08M08
000709  MSMMMOB.69                       V     C        17:33:59:03 17:34:00:16 01:02:44:01 01:02:45:14 
M2      MSMMMOB.69                                025.0 17:33:59:03 
*FROM CLIP NAME:  B009C002_190808_R16N 
*SOURCE FILE: MSMMMOB.69
000710  MSMMMOB.09                       V     C        19:05:56:06 19:05:57:08 01:02:45:14 01:02:46:16 
M2      MSMMMOB.09                                025.0 19:05:56:06 
*FROM CLIP NAME:  A056C005_190808_R32C 
*SOURCE FILE: MSMMMOB.09
000711  19Y08M08                         A     C        19:06:01:01 19:06:01:10 01:02:46:07 01:02:46:16 
*FROM CLIP NAME:  3K8/02.SYNC.01 
*SOURCE FILE: 19Y08M08
000712  MSMMMOB.80                       A2    C        19:06:01:03 19:06:01:12 01:02:46:07 01:02:46:16 
*FROM CLIP NAME:  B010C008_190808_R16N 
*SOURCE FILE: MSMMMOB.80
000713  19Y08M08                         A3    C        19:06:01:01 19:06:01:10 01:02:46:07 01:02:46:16 
*FROM CLIP NAME:  3K8/02.SYNC.01 
*SOURCE FILE: 19Y08M08
000714  19Y08M08                         A4    C        19:06:01:01 19:06:01:10 01:02:46:07 01:02:46:16 
*FROM CLIP NAME:  3K8/02.SYNC.01 
*SOURCE FILE: 19Y08M08
000715  19Y08M08                         A5    C        19:06:01:01 19:06:01:10 01:02:46:07 01:02:46:16 
*FROM CLIP NAME:  3K8/02.SYNC.01 
*SOURCE FILE: 19Y08M08
000716  19Y08M08                         A6    C        19:06:01:01 19:06:01:10 01:02:46:07 01:02:46:16 
*FROM CLIP NAME:  3K8/02.SYNC.01 
*SOURCE FILE: 19Y08M08
000717  19Y08M08                         A7    C        19:06:01:01 19:06:01:10 01:02:46:07 01:02:46:16 
*FROM CLIP NAME:  3K8/02.SYNC.01 
*SOURCE FILE: 19Y08M08
000718  19Y08M08                         A8    C        19:06:01:01 19:06:01:10 01:02:46:07 01:02:46:16 
*FROM CLIP NAME:  3K8/02.SYNC.01 
*SOURCE FILE: 19Y08M08
000719  19Y08M08                         A9    C        19:06:01:01 19:06:01:10 01:02:46:07 01:02:46:16 
*FROM CLIP NAME:  3K8/02.SYNC.01 
*SOURCE FILE: 19Y08M08
000720  19Y08M08                         A     C        19:06:01:13 19:06:01:15 01:02:46:16 01:02:46:18 
*FROM CLIP NAME:  3K8/02.SYNC.01 
*SOURCE FILE: 19Y08M08
000721  MSMMMOB.80                       A2    C        19:06:01:15 19:06:01:17 01:02:46:16 01:02:46:18 
*FROM CLIP NAME:  B010C008_190808_R16N 
*SOURCE FILE: MSMMMOB.80
000722  19Y08M08                         A3    C        19:06:01:13 19:06:01:15 01:02:46:16 01:02:46:18 
*FROM CLIP NAME:  3K8/02.SYNC.01 
*SOURCE FILE: 19Y08M08
000723  19Y08M08                         A4    C        19:06:01:13 19:06:01:15 01:02:46:16 01:02:46:18 
*FROM CLIP NAME:  3K8/02.SYNC.01 
*SOURCE FILE: 19Y08M08
000724  19Y08M08                         A5    C        19:06:01:13 19:06:01:15 01:02:46:16 01:02:46:18 
*FROM CLIP NAME:  3K8/02.SYNC.01 
*SOURCE FILE: 19Y08M08
000725  19Y08M08                         A6    C        19:06:01:13 19:06:01:15 01:02:46:16 01:02:46:18 
*FROM CLIP NAME:  3K8/02.SYNC.01 
*SOURCE FILE: 19Y08M08
000726  19Y08M08                         A7    C        19:06:01:13 19:06:01:15 01:02:46:16 01:02:46:18 
*FROM CLIP NAME:  3K8/02.SYNC.01 
*SOURCE FILE: 19Y08M08
000727  19Y08M08                         A8    C        19:06:01:13 19:06:01:15 01:02:46:16 01:02:46:18 
*FROM CLIP NAME:  3K8/02.SYNC.01 
*SOURCE FILE: 19Y08M08
000728  19Y08M08                         A9    C        19:06:01:13 19:06:01:15 01:02:46:16 01:02:46:18 
*FROM CLIP NAME:  3K8/02.SYNC.01 
*SOURCE FILE: 19Y08M08
000729  MSMMMOB.69                       V     C        17:34:01:10 17:34:02:10 01:02:46:16 01:02:47:16 
M2      MSMMMOB.69                                025.0 17:34:01:10 
*FROM CLIP NAME:  B009C002_190808_R16N 
*SOURCE FILE: MSMMMOB.69
000730  19Y08M08                         A     C        19:06:01:15 19:06:01:15 01:02:46:18 01:02:46:18 
000730  19Y08M08                         A     D    002 17:34:01:11 17:34:01:13 01:02:46:18 01:02:46:20 
*FROM CLIP NAME:  3K8/02.SYNC.01 
*TO CLIP NAME:  3K2/01.SYNC.01 
*SOURCE FILE: 19Y08M08
000731  MSMMMOB.80                       A2    C        19:06:01:17 19:06:01:17 01:02:46:18 01:02:46:18 
000731  19Y08M08                         A2    D    002 17:34:01:11 17:34:01:13 01:02:46:18 01:02:46:20 
*FROM CLIP NAME:  B010C008_190808_R16N 
*TO CLIP NAME:  3K2/01.SYNC.01 
*SOURCE FILE: MSMMMOB.80
000732  19Y08M08                         A3    C        19:06:01:15 19:06:01:15 01:02:46:18 01:02:46:18 
000732  19Y08M08                         A3    D    002 17:34:01:11 17:34:01:13 01:02:46:18 01:02:46:20 
*FROM CLIP NAME:  3K8/02.SYNC.01 
*TO CLIP NAME:  3K2/01.SYNC.01 
*SOURCE FILE: 19Y08M08
000733  19Y08M08                         A4    C        19:06:01:15 19:06:01:15 01:02:46:18 01:02:46:18 
000733  19Y08M08                         A4    D    002 17:34:01:11 17:34:01:13 01:02:46:18 01:02:46:20 
*FROM CLIP NAME:  3K8/02.SYNC.01 
*TO CLIP NAME:  3K2/01.SYNC.01 
*SOURCE FILE: 19Y08M08
000734  19Y08M08                         A5    C        19:06:01:15 19:06:01:15 01:02:46:18 01:02:46:18 
000734  19Y08M08                         A5    D    002 17:34:01:11 17:34:01:13 01:02:46:18 01:02:46:20 
*FROM CLIP NAME:  3K8/02.SYNC.01 
*TO CLIP NAME:  3K2/01.SYNC.01 
*SOURCE FILE: 19Y08M08
000735  19Y08M08                         A6    C        19:06:01:15 19:06:01:15 01:02:46:18 01:02:46:18 
000735  19Y08M08                         A6    D    002 17:34:01:11 17:34:01:13 01:02:46:18 01:02:46:20 
*FROM CLIP NAME:  3K8/02.SYNC.01 
*TO CLIP NAME:  3K2/01.SYNC.01 
*SOURCE FILE: 19Y08M08
000736  19Y08M08                         A7    C        19:06:01:15 19:06:01:15 01:02:46:18 01:02:46:18 
000736  19Y08M08                         A7    D    002 17:34:01:11 17:34:01:13 01:02:46:18 01:02:46:20 
*FROM CLIP NAME:  3K8/02.SYNC.01 
*TO CLIP NAME:  3K2/01.SYNC.01 
*SOURCE FILE: 19Y08M08
000737  19Y08M08                         A8    C        19:06:01:15 19:06:01:15 01:02:46:18 01:02:46:18 
000737  19Y08M08                         A8    D    002 17:34:01:11 17:34:01:13 01:02:46:18 01:02:46:20 
*FROM CLIP NAME:  3K8/02.SYNC.01 
*TO CLIP NAME:  3K2/01.SYNC.01 
*SOURCE FILE: 19Y08M08
000738  19Y08M08                         A9    C        19:06:01:15 19:06:01:15 01:02:46:18 01:02:46:18 
000738  19Y08M08                         A9    D    002 17:34:01:11 17:34:01:13 01:02:46:18 01:02:46:20 
*FROM CLIP NAME:  3K8/02.SYNC.01 
*TO CLIP NAME:  3K2/01.SYNC.01 
*SOURCE FILE: 19Y08M08
000739  BL                               A10   C        00:00:00:00 00:00:00:00 01:02:46:18 01:02:46:18 
000739  19Y08M08                         A10   D    002 17:34:01:11 17:34:01:13 01:02:46:18 01:02:46:20 
*TO CLIP NAME:  3K2/01.SYNC.01 
*PATCH 19Y08M08:  FROM SOURCE 1 TO RECORD 10 
*SOURCE FILE: (NULL)
000740  19Y08M08                         A     C        17:34:01:13 17:34:02:09 01:02:46:20 01:02:47:16 
*FROM CLIP NAME:  3K2/01.SYNC.01 
*SOURCE FILE: 19Y08M08
000741  19Y08M08                         A2    C        17:34:01:13 17:34:02:09 01:02:46:20 01:02:47:16 
*FROM CLIP NAME:  3K2/01.SYNC.01 
*SOURCE FILE: 19Y08M08
000742  19Y08M08                         A3    C        17:34:01:13 17:34:02:09 01:02:46:20 01:02:47:16 
*FROM CLIP NAME:  3K2/01.SYNC.01 
*SOURCE FILE: 19Y08M08
000743  19Y08M08                         A4    C        17:34:01:13 17:34:02:09 01:02:46:20 01:02:47:16 
*FROM CLIP NAME:  3K2/01.SYNC.01 
*SOURCE FILE: 19Y08M08
000744  19Y08M08                         A5    C        17:34:01:13 17:34:02:09 01:02:46:20 01:02:47:16 
*FROM CLIP NAME:  3K2/01.SYNC.01 
*SOURCE FILE: 19Y08M08
000745  19Y08M08                         A6    C        17:34:01:13 17:34:02:09 01:02:46:20 01:02:47:16 
*FROM CLIP NAME:  3K2/01.SYNC.01 
*SOURCE FILE: 19Y08M08
000746  19Y08M08                         A7    C        17:34:01:13 17:34:02:09 01:02:46:20 01:02:47:16 
*FROM CLIP NAME:  3K2/01.SYNC.01 
*SOURCE FILE: 19Y08M08
000747  19Y08M08                         A8    C        17:34:01:13 17:34:02:09 01:02:46:20 01:02:47:16 
*FROM CLIP NAME:  3K2/01.SYNC.01 
*SOURCE FILE: 19Y08M08
000748  19Y08M08                         A9    C        17:34:01:13 17:34:02:09 01:02:46:20 01:02:47:16 
*FROM CLIP NAME:  3K2/01.SYNC.01 
*SOURCE FILE: 19Y08M08
000749  19Y08M08                         A10   C        17:34:01:13 17:34:02:09 01:02:46:20 01:02:47:16 
*FROM CLIP NAME:  3K2/01.SYNC.01 
*PATCH 19Y08M08:  FROM SOURCE 1 TO RECORD 10 
*SOURCE FILE: 19Y08M08
000750  MSMMMOB.23                       V     C        18:53:10:11 18:53:12:14 01:02:47:16 01:02:49:19 
M2      MSMMMOB.23                                025.0 18:53:10:11 
*FROM CLIP NAME:  A056C003_190808_R32C 
*SOURCE FILE: MSMMMOB.23
000751  19Y08M08                         A     C        18:53:10:10 18:53:12:13 01:02:47:16 01:02:49:19 
*FROM CLIP NAME:  3K7/05.SYNC.01 
*SOURCE FILE: 19Y08M08
000752  MSMMMOB.23                       A2    C        18:53:10:11 18:53:12:14 01:02:47:16 01:02:49:19 
*FROM CLIP NAME:  A056C003_190808_R32C 
*SOURCE FILE: MSMMMOB.23
000753  19Y08M08                         A3    C        18:53:10:10 18:53:12:13 01:02:47:16 01:02:49:19 
*FROM CLIP NAME:  3K7/05.SYNC.01 
*SOURCE FILE: 19Y08M08
000754  19Y08M08                         A4    C        18:53:10:10 18:53:12:13 01:02:47:16 01:02:49:19 
*FROM CLIP NAME:  3K7/05.SYNC.01 
*SOURCE FILE: 19Y08M08
000755  19Y08M08                         A5    C        18:53:10:10 18:53:12:13 01:02:47:16 01:02:49:19 
*FROM CLIP NAME:  3K7/05.SYNC.01 
*SOURCE FILE: 19Y08M08
000756  19Y08M08                         A6    C        18:53:10:10 18:53:12:13 01:02:47:16 01:02:49:19 
*FROM CLIP NAME:  3K7/05.SYNC.01 
*SOURCE FILE: 19Y08M08
000757  19Y08M08                         A7    C        18:53:10:10 18:53:12:13 01:02:47:16 01:02:49:19 
*FROM CLIP NAME:  3K7/05.SYNC.01 
*SOURCE FILE: 19Y08M08
000758  19Y08M08                         A8    C        18:53:10:10 18:53:12:13 01:02:47:16 01:02:49:19 
*FROM CLIP NAME:  3K7/05.SYNC.01 
*SOURCE FILE: 19Y08M08
000759  19Y08M08                         A9    C        18:53:10:10 18:53:12:13 01:02:47:16 01:02:49:19 
*FROM CLIP NAME:  3K7/05.SYNC.01 
*SOURCE FILE: 19Y08M08
000760  MSMMMOB.35                       V     C        17:37:49:19 17:37:53:04 01:02:49:19 01:02:53:04 
M2      MSMMMOB.35                                025.0 17:37:49:19 
*FROM CLIP NAME:  A054C009_190808_R32C 
*SOURCE FILE: MSMMMOB.35
000761  19Y08M08                         A     C        17:37:49:18 17:37:53:03 01:02:49:19 01:02:53:04 
*FROM CLIP NAME:  3K3/01.SYNC.01 
*SOURCE FILE: 19Y08M08
000762  19Y08M08                         A2    C        17:37:49:18 17:37:53:03 01:02:49:19 01:02:53:04 
*FROM CLIP NAME:  3K3/01.SYNC.01 
*SOURCE FILE: 19Y08M08
000763  19Y08M08                         A3    C        17:37:49:18 17:37:53:03 01:02:49:19 01:02:53:04 
*FROM CLIP NAME:  3K3/01.SYNC.01 
*SOURCE FILE: 19Y08M08
000764  19Y08M08                         A4    C        17:37:49:18 17:37:53:03 01:02:49:19 01:02:53:04 
*FROM CLIP NAME:  3K3/01.SYNC.01 
*SOURCE FILE: 19Y08M08
000765  19Y08M08                         A5    C        17:37:49:18 17:37:53:03 01:02:49:19 01:02:53:04 
*FROM CLIP NAME:  3K3/01.SYNC.01 
*SOURCE FILE: 19Y08M08
000766  19Y08M08                         A6    C        17:37:49:18 17:37:53:03 01:02:49:19 01:02:53:04 
*FROM CLIP NAME:  3K3/01.SYNC.01 
*SOURCE FILE: 19Y08M08
000767  19Y08M08                         A7    C        17:37:49:18 17:37:53:03 01:02:49:19 01:02:53:04 
*FROM CLIP NAME:  3K3/01.SYNC.01 
*SOURCE FILE: 19Y08M08
000768  19Y08M08                         A8    C        17:37:49:18 17:37:53:03 01:02:49:19 01:02:53:04 
*FROM CLIP NAME:  3K3/01.SYNC.01 
*SOURCE FILE: 19Y08M08
000769  19Y08M08                         A9    C        17:37:49:18 17:37:53:03 01:02:49:19 01:02:53:04 
*FROM CLIP NAME:  3K3/01.SYNC.01 
*SOURCE FILE: 19Y08M08
000770  19Y08M08                         A10   C        17:37:49:18 17:37:53:03 01:02:49:19 01:02:53:04 
*FROM CLIP NAME:  3K3/01.SYNC.01 
*PATCH 19Y08M08:  FROM SOURCE 1 TO RECORD 10 
*SOURCE FILE: 19Y08M08
000771  MSMMMOB.23                       V     C        18:53:18:04 18:53:19:24 01:02:53:04 01:02:54:24 
M2      MSMMMOB.23                                025.0 18:53:18:04 
*FROM CLIP NAME:  A056C003_190808_R32C 
*SOURCE FILE: MSMMMOB.23
000772  19Y08M08                         A     C        18:53:18:03 18:53:20:07 01:02:53:04 01:02:55:08 
*FROM CLIP NAME:  3K7/05.SYNC.01 
*SOURCE FILE: 19Y08M08
000773  MSMMMOB.23                       A2    C        18:53:18:04 18:53:20:08 01:02:53:04 01:02:55:08 
*FROM CLIP NAME:  A056C003_190808_R32C 
*SOURCE FILE: MSMMMOB.23
000774  19Y08M08                         A3    C        18:53:18:03 18:53:20:07 01:02:53:04 01:02:55:08 
*FROM CLIP NAME:  3K7/05.SYNC.01 
*SOURCE FILE: 19Y08M08
000775  19Y08M08                         A4    C        18:53:18:03 18:53:20:07 01:02:53:04 01:02:55:08 
*FROM CLIP NAME:  3K7/05.SYNC.01 
*SOURCE FILE: 19Y08M08
000776  19Y08M08                         A5    C        18:53:18:03 18:53:20:07 01:02:53:04 01:02:55:08 
*FROM CLIP NAME:  3K7/05.SYNC.01 
*SOURCE FILE: 19Y08M08
000777  19Y08M08                         A6    C        18:53:18:03 18:53:20:07 01:02:53:04 01:02:55:08 
*FROM CLIP NAME:  3K7/05.SYNC.01 
*SOURCE FILE: 19Y08M08
000778  19Y08M08                         A7    C        18:53:18:03 18:53:20:07 01:02:53:04 01:02:55:08 
*FROM CLIP NAME:  3K7/05.SYNC.01 
*SOURCE FILE: 19Y08M08
000779  19Y08M08                         A8    C        18:53:18:03 18:53:20:07 01:02:53:04 01:02:55:08 
*FROM CLIP NAME:  3K7/05.SYNC.01 
*SOURCE FILE: 19Y08M08
000780  19Y08M08                         A9    C        18:53:18:03 18:53:20:07 01:02:53:04 01:02:55:08 
*FROM CLIP NAME:  3K7/05.SYNC.01 
*SOURCE FILE: 19Y08M08
000781  MSMMMOB.41                       V     C        17:37:58:05 17:37:59:10 01:02:54:24 01:02:56:04 
M2      MSMMMOB.41                                025.0 17:37:58:05 
*FROM CLIP NAME:  B009C003_190808_R16N 
*SOURCE FILE: MSMMMOB.41
000782  19Y08M08                         A     C        18:53:20:09 18:53:21:05 01:02:55:08 01:02:56:04 
*FROM CLIP NAME:  3K7/05.SYNC.01 
*SOURCE FILE: 19Y08M08
000783  MSMMMOB.23                       A2    C        18:53:20:10 18:53:21:06 01:02:55:08 01:02:56:04 
*FROM CLIP NAME:  A056C003_190808_R32C 
*SOURCE FILE: MSMMMOB.23
000784  19Y08M08                         A3    C        18:53:20:09 18:53:21:05 01:02:55:08 01:02:56:04 
*FROM CLIP NAME:  3K7/05.SYNC.01 
*SOURCE FILE: 19Y08M08
000785  19Y08M08                         A4    C        18:53:20:09 18:53:21:05 01:02:55:08 01:02:56:04 
*FROM CLIP NAME:  3K7/05.SYNC.01 
*SOURCE FILE: 19Y08M08
000786  19Y08M08                         A5    C        18:53:20:09 18:53:21:05 01:02:55:08 01:02:56:04 
*FROM CLIP NAME:  3K7/05.SYNC.01 
*SOURCE FILE: 19Y08M08
000787  19Y08M08                         A6    C        18:53:20:09 18:53:21:05 01:02:55:08 01:02:56:04 
*FROM CLIP NAME:  3K7/05.SYNC.01 
*SOURCE FILE: 19Y08M08
000788  19Y08M08                         A7    C        18:53:20:09 18:53:21:05 01:02:55:08 01:02:56:04 
*FROM CLIP NAME:  3K7/05.SYNC.01 
*SOURCE FILE: 19Y08M08
000789  19Y08M08                         A8    C        18:53:20:09 18:53:21:05 01:02:55:08 01:02:56:04 
*FROM CLIP NAME:  3K7/05.SYNC.01 
*SOURCE FILE: 19Y08M08
000790  19Y08M08                         A9    C        18:53:20:09 18:53:21:05 01:02:55:08 01:02:56:04 
*FROM CLIP NAME:  3K7/05.SYNC.01 
*SOURCE FILE: 19Y08M08
000791  19Y08M08                         A     C        17:37:59:21 17:38:00:20 01:02:56:04 01:02:57:03 
*FROM CLIP NAME:  3K3/01.SYNC.01 
*SOURCE FILE: 19Y08M08
000792  19Y08M08                         A2    C        17:37:59:21 17:38:00:20 01:02:56:04 01:02:57:03 
*FROM CLIP NAME:  3K3/01.SYNC.01 
*SOURCE FILE: 19Y08M08
000793  19Y08M08                         A3    C        17:37:59:21 17:38:00:20 01:02:56:04 01:02:57:03 
*FROM CLIP NAME:  3K3/01.SYNC.01 
*SOURCE FILE: 19Y08M08
000794  19Y08M08                         A4    C        17:37:59:21 17:38:00:20 01:02:56:04 01:02:57:03 
*FROM CLIP NAME:  3K3/01.SYNC.01 
*SOURCE FILE: 19Y08M08
000795  19Y08M08                         A5    C        17:37:59:21 17:38:00:20 01:02:56:04 01:02:57:03 
*FROM CLIP NAME:  3K3/01.SYNC.01 
*SOURCE FILE: 19Y08M08
000796  19Y08M08                         A6    C        17:37:59:21 17:38:00:20 01:02:56:04 01:02:57:03 
*FROM CLIP NAME:  3K3/01.SYNC.01 
*SOURCE FILE: 19Y08M08
000797  19Y08M08                         A7    C        17:37:59:21 17:38:00:20 01:02:56:04 01:02:57:03 
*FROM CLIP NAME:  3K3/01.SYNC.01 
*SOURCE FILE: 19Y08M08
000798  19Y08M08                         A8    C        17:37:59:21 17:38:00:20 01:02:56:04 01:02:57:03 
*FROM CLIP NAME:  3K3/01.SYNC.01 
*SOURCE FILE: 19Y08M08
000799  19Y08M08                         A9    C        17:37:59:21 17:38:00:20 01:02:56:04 01:02:57:03 
*FROM CLIP NAME:  3K3/01.SYNC.01 
*SOURCE FILE: 19Y08M08
000800  19Y08M08                         A10   C        17:37:59:21 17:38:00:20 01:02:56:04 01:02:57:03 
*FROM CLIP NAME:  3K3/01.SYNC.01 
*PATCH 19Y08M08:  FROM SOURCE 1 TO RECORD 10 
*SOURCE FILE: 19Y08M08
000801  MSMMMOB.35                       V     C        17:37:59:22 17:38:01:19 01:02:56:04 01:02:58:01 
M2      MSMMMOB.35                                025.0 17:37:59:22 
*FROM CLIP NAME:  A054C009_190808_R32C 
*SOURCE FILE: MSMMMOB.35
000802  19Y08M08                         A     C        18:53:21:23 18:53:25:15 01:02:57:03 01:03:00:20 
*FROM CLIP NAME:  3K7/05.SYNC.01 
*SOURCE FILE: 19Y08M08
000803  MSMMMOB.23                       A2    C        18:53:21:24 18:53:25:16 01:02:57:03 01:03:00:20 
*FROM CLIP NAME:  A056C003_190808_R32C 
*SOURCE FILE: MSMMMOB.23
000804  19Y08M08                         A3    C        18:53:21:23 18:53:25:15 01:02:57:03 01:03:00:20 
*FROM CLIP NAME:  3K7/05.SYNC.01 
*SOURCE FILE: 19Y08M08
000805  19Y08M08                         A4    C        18:53:21:23 18:53:25:15 01:02:57:03 01:03:00:20 
*FROM CLIP NAME:  3K7/05.SYNC.01 
*SOURCE FILE: 19Y08M08
000806  19Y08M08                         A5    C        18:53:21:23 18:53:25:15 01:02:57:03 01:03:00:20 
*FROM CLIP NAME:  3K7/05.SYNC.01 
*SOURCE FILE: 19Y08M08
000807  19Y08M08                         A6    C        18:53:21:23 18:53:25:15 01:02:57:03 01:03:00:20 
*FROM CLIP NAME:  3K7/05.SYNC.01 
*SOURCE FILE: 19Y08M08
000808  19Y08M08                         A7    C        18:53:21:23 18:53:25:15 01:02:57:03 01:03:00:20 
*FROM CLIP NAME:  3K7/05.SYNC.01 
*SOURCE FILE: 19Y08M08
000809  19Y08M08                         A8    C        18:53:21:23 18:53:25:15 01:02:57:03 01:03:00:20 
*FROM CLIP NAME:  3K7/05.SYNC.01 
*SOURCE FILE: 19Y08M08
000810  19Y08M08                         A9    C        18:53:21:23 18:53:25:15 01:02:57:03 01:03:00:20 
*FROM CLIP NAME:  3K7/05.SYNC.01 
*SOURCE FILE: 19Y08M08
000811  MSMMMOB.23                       V     C        18:53:22:22 18:53:26:04 01:02:58:01 01:03:01:08 
M2      MSMMMOB.23                                025.0 18:53:22:22 
*FROM CLIP NAME:  A056C003_190808_R32C 
*SOURCE FILE: MSMMMOB.23
000812  19Y08M08                         A     C        18:53:25:15 18:53:28:11 01:03:00:20 01:03:03:16 
*FROM CLIP NAME:  3K7/05.SYNC.01 
*SOURCE FILE: 19Y08M08
000813  MSMMMOB.23                       A2    C        18:53:25:16 18:53:28:12 01:03:00:20 01:03:03:16 
*FROM CLIP NAME:  A056C003_190808_R32C 
*SOURCE FILE: MSMMMOB.23
000814  19Y08M08                         A3    C        18:53:25:15 18:53:28:11 01:03:00:20 01:03:03:16 
*FROM CLIP NAME:  3K7/05.SYNC.01 
*SOURCE FILE: 19Y08M08
000815  19Y08M08                         A4    C        18:53:25:15 18:53:28:11 01:03:00:20 01:03:03:16 
*FROM CLIP NAME:  3K7/05.SYNC.01 
*SOURCE FILE: 19Y08M08
000816  19Y08M08                         A5    C        18:53:25:15 18:53:28:11 01:03:00:20 01:03:03:16 
*FROM CLIP NAME:  3K7/05.SYNC.01 
*SOURCE FILE: 19Y08M08
000817  19Y08M08                         A6    C        18:53:25:15 18:53:28:11 01:03:00:20 01:03:03:16 
*FROM CLIP NAME:  3K7/05.SYNC.01 
*SOURCE FILE: 19Y08M08
000818  19Y08M08                         A7    C        18:53:25:15 18:53:28:11 01:03:00:20 01:03:03:16 
*FROM CLIP NAME:  3K7/05.SYNC.01 
*SOURCE FILE: 19Y08M08
000819  19Y08M08                         A8    C        18:53:25:15 18:53:28:11 01:03:00:20 01:03:03:16 
*FROM CLIP NAME:  3K7/05.SYNC.01 
*SOURCE FILE: 19Y08M08
000820  19Y08M08                         A9    C        18:53:25:15 18:53:28:11 01:03:00:20 01:03:03:16 
*FROM CLIP NAME:  3K7/05.SYNC.01 
*SOURCE FILE: 19Y08M08
000821  MSMMMOB.45                       V     C        17:34:22:18 17:34:25:01 01:03:01:08 01:03:03:16 
M2      MSMMMOB.45                                025.0 17:34:22:18 
*FROM CLIP NAME:  A054C008_190808_R32C 
*SOURCE FILE: MSMMMOB.45
000822  MSMMMOB.23                       V     C        18:53:26:04 18:53:27:20 01:03:03:16 01:03:05:07 
M2      MSMMMOB.23                                025.0 18:53:26:04 
*FROM CLIP NAME:  A056C003_190808_R32C 
*SOURCE FILE: MSMMMOB.23
000823  19Y08M08                         A     C        17:34:14:14 17:34:16:05 01:03:03:16 01:03:05:07 
*FROM CLIP NAME:  3K2/01.SYNC.01 
*SOURCE FILE: 19Y08M08
000824  19Y08M08                         A2    C        17:34:14:14 17:34:16:05 01:03:03:16 01:03:05:07 
*FROM CLIP NAME:  3K2/01.SYNC.01 
*SOURCE FILE: 19Y08M08
000825  19Y08M08                         A3    C        17:34:14:14 17:34:16:05 01:03:03:16 01:03:05:07 
*FROM CLIP NAME:  3K2/01.SYNC.01 
*SOURCE FILE: 19Y08M08
000826  19Y08M08                         A4    C        17:34:14:14 17:34:16:05 01:03:03:16 01:03:05:07 
*FROM CLIP NAME:  3K2/01.SYNC.01 
*SOURCE FILE: 19Y08M08
000827  19Y08M08                         A5    C        17:34:14:14 17:34:16:05 01:03:03:16 01:03:05:07 
*FROM CLIP NAME:  3K2/01.SYNC.01 
*SOURCE FILE: 19Y08M08
000828  19Y08M08                         A6    C        17:34:14:14 17:34:16:05 01:03:03:16 01:03:05:07 
*FROM CLIP NAME:  3K2/01.SYNC.01 
*SOURCE FILE: 19Y08M08
000829  19Y08M08                         A7    C        17:34:14:14 17:34:16:05 01:03:03:16 01:03:05:07 
*FROM CLIP NAME:  3K2/01.SYNC.01 
*SOURCE FILE: 19Y08M08
000830  19Y08M08                         A8    C        17:34:14:14 17:34:16:05 01:03:03:16 01:03:05:07 
*FROM CLIP NAME:  3K2/01.SYNC.01 
*SOURCE FILE: 19Y08M08
000831  19Y08M08                         A9    C        17:34:14:14 17:34:16:05 01:03:03:16 01:03:05:07 
*FROM CLIP NAME:  3K2/01.SYNC.01 
*SOURCE FILE: 19Y08M08
000832  19Y08M08                         A10   C        17:34:14:14 17:34:16:05 01:03:03:16 01:03:05:07 
*FROM CLIP NAME:  3K2/01.SYNC.01 
*PATCH 19Y08M08:  FROM SOURCE 1 TO RECORD 10 
*SOURCE FILE: 19Y08M08
000833  XCD064_07_1_MUSIC_PLEASE.WAV     A20   C        01:00:00:00 01:00:11:12 01:03:05:00 01:03:16:12 
*FROM CLIP NAME:  XCD064_07_1 MUSIC PLEASE.WAV 
*A20 VOL = -18.0 DB  PAN L100 
*PATCH XCD064_07_1_MUSIC_PLEASE.WAV:  FROM SOURCE 1 TO RECORD 20 
*SOURCE FILE: XCD064_07_1 MUSIC PLEASE.WAV
000834  XCD064_07_1_MUSIC_PLEASE.WAV     A21   C        01:00:00:00 01:00:11:12 01:03:05:00 01:03:16:12 
*FROM CLIP NAME:  XCD064_07_1 MUSIC PLEASE.WAV 
*A21 VOL = -18.0 DB  PAN R100 
*PATCH XCD064_07_1_MUSIC_PLEASE.WAV:  FROM SOURCE 2 TO RECORD 21 
*SOURCE FILE: XCD064_07_1 MUSIC PLEASE.WAV
000835  19Y08M08                         A     C        17:34:17:03 17:34:18:03 01:03:05:07 01:03:06:07 
*FROM CLIP NAME:  3K2/01.SYNC.01 
*SOURCE FILE: 19Y08M08
000836  19Y08M08                         A2    C        17:34:17:03 17:34:18:03 01:03:05:07 01:03:06:07 
*FROM CLIP NAME:  3K2/01.SYNC.01 
*SOURCE FILE: 19Y08M08
000837  19Y08M08                         A3    C        17:34:17:03 17:34:18:03 01:03:05:07 01:03:06:07 
*FROM CLIP NAME:  3K2/01.SYNC.01 
*SOURCE FILE: 19Y08M08
000838  19Y08M08                         A4    C        17:34:17:03 17:34:18:03 01:03:05:07 01:03:06:07 
*FROM CLIP NAME:  3K2/01.SYNC.01 
*SOURCE FILE: 19Y08M08
000839  19Y08M08                         A5    C        17:34:17:03 17:34:18:03 01:03:05:07 01:03:06:07 
*FROM CLIP NAME:  3K2/01.SYNC.01 
*SOURCE FILE: 19Y08M08
000840  19Y08M08                         A6    C        17:34:17:03 17:34:18:03 01:03:05:07 01:03:06:07 
*FROM CLIP NAME:  3K2/01.SYNC.01 
*SOURCE FILE: 19Y08M08
000841  19Y08M08                         A7    C        17:34:17:03 17:34:18:03 01:03:05:07 01:03:06:07 
*FROM CLIP NAME:  3K2/01.SYNC.01 
*SOURCE FILE: 19Y08M08
000842  19Y08M08                         A8    C        17:34:17:03 17:34:18:03 01:03:05:07 01:03:06:07 
*FROM CLIP NAME:  3K2/01.SYNC.01 
*SOURCE FILE: 19Y08M08
000843  19Y08M08                         A9    C        17:34:17:03 17:34:18:03 01:03:05:07 01:03:06:07 
*FROM CLIP NAME:  3K2/01.SYNC.01 
*SOURCE FILE: 19Y08M08
000844  19Y08M08                         A10   C        17:34:17:03 17:34:18:03 01:03:05:07 01:03:06:07 
*FROM CLIP NAME:  3K2/01.SYNC.01 
*PATCH 19Y08M08:  FROM SOURCE 1 TO RECORD 10 
*SOURCE FILE: 19Y08M08
000845  MSMMMOB.41                       V     C        17:38:04:22 17:38:06:08 01:03:05:07 01:03:06:18 
M2      MSMMMOB.41                                025.0 17:38:04:22 
*FROM CLIP NAME:  B009C003_190808_R16N 
*SOURCE FILE: MSMMMOB.41
000846  19Y08M08                         A     C        17:34:25:11 17:34:25:18 01:03:06:07 01:03:06:14 
*FROM CLIP NAME:  3K2/01.SYNC.01 
*SOURCE FILE: 19Y08M08
000847  19Y08M08                         A2    C        17:34:25:11 17:34:25:18 01:03:06:07 01:03:06:14 
*FROM CLIP NAME:  3K2/01.SYNC.01 
*SOURCE FILE: 19Y08M08
000848  19Y08M08                         A3    C        17:34:25:11 17:34:25:18 01:03:06:07 01:03:06:14 
*FROM CLIP NAME:  3K2/01.SYNC.01 
*SOURCE FILE: 19Y08M08
000849  19Y08M08                         A4    C        17:34:25:11 17:34:25:18 01:03:06:07 01:03:06:14 
*FROM CLIP NAME:  3K2/01.SYNC.01 
*SOURCE FILE: 19Y08M08
000850  19Y08M08                         A5    C        17:34:25:11 17:34:25:18 01:03:06:07 01:03:06:14 
*FROM CLIP NAME:  3K2/01.SYNC.01 
*SOURCE FILE: 19Y08M08
000851  19Y08M08                         A6    C        17:34:25:11 17:34:25:18 01:03:06:07 01:03:06:14 
*FROM CLIP NAME:  3K2/01.SYNC.01 
*SOURCE FILE: 19Y08M08
000852  19Y08M08                         A7    C        17:34:25:11 17:34:25:18 01:03:06:07 01:03:06:14 
*FROM CLIP NAME:  3K2/01.SYNC.01 
*SOURCE FILE: 19Y08M08
000853  19Y08M08                         A8    C        17:34:25:11 17:34:25:18 01:03:06:07 01:03:06:14 
*FROM CLIP NAME:  3K2/01.SYNC.01 
*SOURCE FILE: 19Y08M08
000854  19Y08M08                         A9    C        17:34:25:11 17:34:25:18 01:03:06:07 01:03:06:14 
*FROM CLIP NAME:  3K2/01.SYNC.01 
*SOURCE FILE: 19Y08M08
000855  19Y08M08                         A10   C        17:34:25:11 17:34:25:18 01:03:06:07 01:03:06:14 
*FROM CLIP NAME:  3K2/01.SYNC.01 
*PATCH 19Y08M08:  FROM SOURCE 1 TO RECORD 10 
*SOURCE FILE: 19Y08M08
000856  19Y08M08                         A     C        17:34:25:00 17:34:28:18 01:03:06:14 01:03:10:07 
*FROM CLIP NAME:  3K2/01.SYNC.01 
*SOURCE FILE: 19Y08M08
000857  19Y08M08                         A2    C        17:34:25:00 17:34:28:18 01:03:06:14 01:03:10:07 
*FROM CLIP NAME:  3K2/01.SYNC.01 
*SOURCE FILE: 19Y08M08
000858  19Y08M08                         A3    C        17:34:25:00 17:34:28:18 01:03:06:14 01:03:10:07 
*FROM CLIP NAME:  3K2/01.SYNC.01 
*SOURCE FILE: 19Y08M08
000859  19Y08M08                         A4    C        17:34:25:00 17:34:28:18 01:03:06:14 01:03:10:07 
*FROM CLIP NAME:  3K2/01.SYNC.01 
*SOURCE FILE: 19Y08M08
000860  19Y08M08                         A5    C        17:34:25:00 17:34:28:18 01:03:06:14 01:03:10:07 
*FROM CLIP NAME:  3K2/01.SYNC.01 
*SOURCE FILE: 19Y08M08
000861  19Y08M08                         A6    C        17:34:25:00 17:34:28:18 01:03:06:14 01:03:10:07 
*FROM CLIP NAME:  3K2/01.SYNC.01 
*SOURCE FILE: 19Y08M08
000862  19Y08M08                         A7    C        17:34:25:00 17:34:28:18 01:03:06:14 01:03:10:07 
*FROM CLIP NAME:  3K2/01.SYNC.01 
*SOURCE FILE: 19Y08M08
000863  19Y08M08                         A8    C        17:34:25:00 17:34:28:18 01:03:06:14 01:03:10:07 
*FROM CLIP NAME:  3K2/01.SYNC.01 
*SOURCE FILE: 19Y08M08
000864  19Y08M08                         A9    C        17:34:25:00 17:34:28:18 01:03:06:14 01:03:10:07 
*FROM CLIP NAME:  3K2/01.SYNC.01 
*SOURCE FILE: 19Y08M08
000865  19Y08M08                         A10   C        17:34:25:00 17:34:28:18 01:03:06:14 01:03:10:07 
*FROM CLIP NAME:  3K2/01.SYNC.01 
*PATCH 19Y08M08:  FROM SOURCE 1 TO RECORD 10 
*SOURCE FILE: 19Y08M08
000866  MSMMMOB.23                       V     C        18:53:27:22 18:53:29:02 01:03:06:18 01:03:07:23 
M2      MSMMMOB.23                                025.0 18:53:27:22 
*FROM CLIP NAME:  A056C003_190808_R32C 
*SOURCE FILE: MSMMMOB.23
000867  MSMMMOB.45                       V     C        17:34:26:09 17:34:30:04 01:03:07:23 01:03:11:18 
M2      MSMMMOB.45                                025.0 17:34:26:09 
*FROM CLIP NAME:  A054C008_190808_R32C 
*SOURCE FILE: MSMMMOB.45
000868  19Y08M08                         A     C        19:07:22:23 19:07:24:09 01:03:10:07 01:03:11:18 
*FROM CLIP NAME:  3K8/02.SYNC.01 
*SOURCE FILE: 19Y08M08
000869  MSMMMOB.80                       A2    C        19:07:23:00 19:07:24:11 01:03:10:07 01:03:11:18 
*FROM CLIP NAME:  B010C008_190808_R16N 
*SOURCE FILE: MSMMMOB.80
000870  19Y08M08                         A3    C        19:07:22:23 19:07:24:09 01:03:10:07 01:03:11:18 
*FROM CLIP NAME:  3K8/02.SYNC.01 
*SOURCE FILE: 19Y08M08
000871  19Y08M08                         A4    C        19:07:22:23 19:07:24:09 01:03:10:07 01:03:11:18 
*FROM CLIP NAME:  3K8/02.SYNC.01 
*SOURCE FILE: 19Y08M08
000872  19Y08M08                         A5    C        19:07:22:23 19:07:24:09 01:03:10:07 01:03:11:18 
*FROM CLIP NAME:  3K8/02.SYNC.01 
*SOURCE FILE: 19Y08M08
000873  19Y08M08                         A6    C        19:07:22:23 19:07:24:09 01:03:10:07 01:03:11:18 
*FROM CLIP NAME:  3K8/02.SYNC.01 
*SOURCE FILE: 19Y08M08
000874  19Y08M08                         A7    C        19:07:22:23 19:07:24:09 01:03:10:07 01:03:11:18 
*FROM CLIP NAME:  3K8/02.SYNC.01 
*SOURCE FILE: 19Y08M08
000875  19Y08M08                         A8    C        19:07:22:23 19:07:24:09 01:03:10:07 01:03:11:18 
*FROM CLIP NAME:  3K8/02.SYNC.01 
*SOURCE FILE: 19Y08M08
000876  19Y08M08                         A9    C        19:07:22:23 19:07:24:09 01:03:10:07 01:03:11:18 
*FROM CLIP NAME:  3K8/02.SYNC.01 
*SOURCE FILE: 19Y08M08
000877  MSMMMOB.80                       V     C        19:07:24:11 19:07:27:14 01:03:11:18 01:03:14:21 
M2      MSMMMOB.80                                025.0 19:07:24:11 
*FROM CLIP NAME:  B010C008_190808_R16N 
*SOURCE FILE: MSMMMOB.80
000878  19Y08M08                         A     C        19:07:24:09 19:07:28:07 01:03:11:18 01:03:15:16 
*FROM CLIP NAME:  3K8/02.SYNC.01 
*SOURCE FILE: 19Y08M08
000879  MSMMMOB.80                       A2    C        19:07:24:11 19:07:28:09 01:03:11:18 01:03:15:16 
*FROM CLIP NAME:  B010C008_190808_R16N 
*SOURCE FILE: MSMMMOB.80
000880  19Y08M08                         A3    C        19:07:24:09 19:07:28:07 01:03:11:18 01:03:15:16 
*FROM CLIP NAME:  3K8/02.SYNC.01 
*SOURCE FILE: 19Y08M08
000881  19Y08M08                         A4    C        19:07:24:09 19:07:28:07 01:03:11:18 01:03:15:16 
*FROM CLIP NAME:  3K8/02.SYNC.01 
*SOURCE FILE: 19Y08M08
000882  19Y08M08                         A5    C        19:07:24:09 19:07:28:07 01:03:11:18 01:03:15:16 
*FROM CLIP NAME:  3K8/02.SYNC.01 
*SOURCE FILE: 19Y08M08
000883  19Y08M08                         A6    C        19:07:24:09 19:07:28:07 01:03:11:18 01:03:15:16 
*FROM CLIP NAME:  3K8/02.SYNC.01 
*SOURCE FILE: 19Y08M08
000884  19Y08M08                         A7    C        19:07:24:09 19:07:28:07 01:03:11:18 01:03:15:16 
*FROM CLIP NAME:  3K8/02.SYNC.01 
*SOURCE FILE: 19Y08M08
000885  19Y08M08                         A8    C        19:07:24:09 19:07:28:07 01:03:11:18 01:03:15:16 
*FROM CLIP NAME:  3K8/02.SYNC.01 
*SOURCE FILE: 19Y08M08
000886  19Y08M08                         A9    C        19:07:24:09 19:07:28:07 01:03:11:18 01:03:15:16 
*FROM CLIP NAME:  3K8/02.SYNC.01 
*SOURCE FILE: 19Y08M08
000887  MSMMMOB.24                       V     C        17:23:15:18 17:23:18:07 01:03:14:21 01:03:17:10 
M2      MSMMMOB.24                                025.0 17:23:15:18 
*FROM CLIP NAME:  A054C007_190808_R32C 
*SOURCE FILE: MSMMMOB.24
000888  19Y08M08                         A     C        18:21:16:24 18:21:18:20 01:03:15:16 01:03:17:12 
*FROM CLIP NAME:  3K6/03.SYNC.01 
*SOURCE FILE: 19Y08M08
000889  MSMMMOB.53                       A2    C        18:21:16:24 18:21:18:20 01:03:15:16 01:03:17:12 
*FROM CLIP NAME:  A055C005_190808_R32C 
*SOURCE FILE: MSMMMOB.53
000890  19Y08M08                         A3    C        18:21:16:24 18:21:18:20 01:03:15:16 01:03:17:12 
*FROM CLIP NAME:  3K6/03.SYNC.01 
*SOURCE FILE: 19Y08M08
000891  19Y08M08                         A4    C        18:21:16:24 18:21:18:20 01:03:15:16 01:03:17:12 
*FROM CLIP NAME:  3K6/03.SYNC.01 
*SOURCE FILE: 19Y08M08
000892  19Y08M08                         A5    C        18:21:16:24 18:21:18:20 01:03:15:16 01:03:17:12 
*FROM CLIP NAME:  3K6/03.SYNC.01 
*SOURCE FILE: 19Y08M08
000893  19Y08M08                         A8    C        18:21:16:24 18:21:18:20 01:03:15:16 01:03:17:12 
*FROM CLIP NAME:  3K6/03.SYNC.01 
*A8 VOL = -44.4 DB  PAN L100 
*SOURCE FILE: 19Y08M08
000894  19Y08M08                         A6    C        18:21:16:24 18:21:19:11 01:03:15:16 01:03:18:03 
*FROM CLIP NAME:  3K6/03.SYNC.01 
*SOURCE FILE: 19Y08M08
000895  XCD064_07_1_MUSIC_PLEASE.WAV     A20   C        01:00:07:16 01:00:11:14 01:03:16:12 01:03:20:10 
*FROM CLIP NAME:  XCD064_07_1 MUSIC PLEASE.WAV 
*A20 VOL = -18.0 DB  PAN L100 
*PATCH XCD064_07_1_MUSIC_PLEASE.WAV:  FROM SOURCE 1 TO RECORD 20 
*SOURCE FILE: XCD064_07_1 MUSIC PLEASE.WAV
000896  XCD064_07_1_MUSIC_PLEASE.WAV     A21   C        01:00:07:16 01:00:11:14 01:03:16:12 01:03:20:10 
*FROM CLIP NAME:  XCD064_07_1 MUSIC PLEASE.WAV 
*A21 VOL = -18.0 DB  PAN R100 
*PATCH XCD064_07_1_MUSIC_PLEASE.WAV:  FROM SOURCE 2 TO RECORD 21 
*SOURCE FILE: XCD064_07_1 MUSIC PLEASE.WAV
000897  MSMMMOB.23                       V     C        18:53:35:16 18:53:36:18 01:03:17:10 01:03:18:12 
M2      MSMMMOB.23                                025.0 18:53:35:16 
*FROM CLIP NAME:  A056C003_190808_R32C 
*SOURCE FILE: MSMMMOB.23
000898  BL                               A12   C        00:00:00:00 00:00:00:00 01:03:18:00 01:03:18:00 
000898  19Y08M08                         A12   D    003 18:21:18:13 18:21:18:16 01:03:18:00 01:03:18:03 
*TO CLIP NAME:  3K6/03.SYNC.01 
*PATCH 19Y08M08:  FROM SOURCE 9 TO RECORD 12 
*SOURCE FILE: (NULL)
000899  19Y08M08                         A12   C        18:21:18:16 18:21:20:12 01:03:18:03 01:03:19:24 
*FROM CLIP NAME:  3K6/03.SYNC.01 
*PATCH 19Y08M08:  FROM SOURCE 9 TO RECORD 12 
*SOURCE FILE: 19Y08M08
000900  MSMMMOB.69                       V     C        17:34:33:24 17:34:35:22 01:03:18:12 01:03:20:10 
M2      MSMMMOB.69                                025.0 17:34:33:24 
*FROM CLIP NAME:  B009C002_190808_R16N 
*SOURCE FILE: MSMMMOB.69
000901  19Y08M08                         A     C        19:02:06:24 19:02:07:00 01:03:18:15 01:03:18:16 
*FROM CLIP NAME:  3K8/01.SYNC.01 
*A1 VOL = -29.1 DB  PAN R100 
*SOURCE FILE: 19Y08M08
000902  19Y08M08                         A2    C        17:23:25:16 17:23:27:11 01:03:18:15 01:03:20:10 
*FROM CLIP NAME:  3K1/06.SYNC.01 
*PATCH 19Y08M08:  FROM SOURCE 6 TO RECORD 2 
*SOURCE FILE: 19Y08M08
000903  19Y08M08                         A3    C        17:23:25:16 17:23:27:11 01:03:18:15 01:03:20:10 
*FROM CLIP NAME:  3K1/06.SYNC.01 
*PATCH 19Y08M08:  FROM SOURCE 7 TO RECORD 3 
*SOURCE FILE: 19Y08M08
000904  19Y08M08                         A4    C        17:23:25:16 17:23:27:11 01:03:18:15 01:03:20:10 
*FROM CLIP NAME:  3K1/06.SYNC.01 
*PATCH 19Y08M08:  FROM SOURCE 8 TO RECORD 4 
*SOURCE FILE: 19Y08M08
000905  19Y08M08                         A5    C        17:23:25:16 17:23:27:11 01:03:18:15 01:03:20:10 
*FROM CLIP NAME:  3K1/06.SYNC.01 
*PATCH 19Y08M08:  FROM SOURCE 9 TO RECORD 5 
*SOURCE FILE: 19Y08M08
000906  19Y08M08                         A6    C        17:23:25:16 17:23:27:11 01:03:18:15 01:03:20:10 
*FROM CLIP NAME:  3K1/06.SYNC.01 
*PATCH 19Y08M08:  FROM SOURCE 1 TO RECORD 6 
*SOURCE FILE: 19Y08M08
000907  19Y08M08                         A7    C        17:23:25:16 17:23:27:11 01:03:18:15 01:03:20:10 
*FROM CLIP NAME:  3K1/06.SYNC.01 
*PATCH 19Y08M08:  FROM SOURCE 1 TO RECORD 7 
*SOURCE FILE: 19Y08M08
000908  19Y08M08                         A8    C        17:23:25:16 17:23:27:11 01:03:18:15 01:03:20:10 
*FROM CLIP NAME:  3K1/06.SYNC.01 
*PATCH 19Y08M08:  FROM SOURCE 2 TO RECORD 8 
*SOURCE FILE: 19Y08M08
000909  19Y08M08                         A9    C        17:23:25:16 17:23:27:11 01:03:18:15 01:03:20:10 
*FROM CLIP NAME:  3K1/06.SYNC.01 
*PATCH 19Y08M08:  FROM SOURCE 3 TO RECORD 9 
*SOURCE FILE: 19Y08M08
000910  19Y08M08                         A10   C        17:23:25:16 17:23:27:11 01:03:18:15 01:03:20:10 
*FROM CLIP NAME:  3K1/06.SYNC.01 
*PATCH 19Y08M08:  FROM SOURCE 4 TO RECORD 10 
*SOURCE FILE: 19Y08M08
000911  19Y08M08                         A11   C        17:23:25:16 17:23:27:11 01:03:18:15 01:03:20:10 
*FROM CLIP NAME:  3K1/06.SYNC.01 
*PATCH 19Y08M08:  FROM SOURCE 5 TO RECORD 11 
*SOURCE FILE: 19Y08M08
000912  19Y08M08                         A     C        19:02:07:07 19:02:07:10 01:03:18:23 01:03:19:01 
*FROM CLIP NAME:  3K8/01.SYNC.01 
*A1 VOL = -29.1 DB  PAN R100 
*SOURCE FILE: 19Y08M08
000913  19Y08M08                         A     C        19:02:07:11 19:02:07:18 01:03:19:01 01:03:19:08 
*FROM CLIP NAME:  3K8/01.SYNC.01 
*SOURCE FILE: 19Y08M08
000914  19Y08M08                         A12   C        18:21:20:12 18:21:20:12 01:03:19:24 01:03:19:24 
000914  BL                               A12   D    007 00:00:00:00 00:00:00:07 01:03:19:24 01:03:20:06 
*FROM CLIP NAME:  3K6/03.SYNC.01 
*PATCH 19Y08M08:  FROM SOURCE 9 TO RECORD 12 
*SOURCE FILE: 19Y08M08
000915  XCD064_07_1_MUSIC_PLEASE.WAV     A22   C        01:00:19:08 01:00:20:02 01:03:20:10 01:03:21:04 
*FROM CLIP NAME:  XCD064_07_1 MUSIC PLEASE.WAV 
*A22 VOL = -11.0 DB  PAN L100 
*PATCH XCD064_07_1_MUSIC_PLEASE.WAV:  FROM SOURCE 1 TO RECORD 22 
*SOURCE FILE: XCD064_07_1 MUSIC PLEASE.WAV
000916  XCD064_07_1_MUSIC_PLEASE.WAV     A23   C        01:00:19:08 01:00:20:02 01:03:20:10 01:03:21:04 
*FROM CLIP NAME:  XCD064_07_1 MUSIC PLEASE.WAV 
*A23 VOL = -11.0 DB  PAN R100 
*PATCH XCD064_07_1_MUSIC_PLEASE.WAV:  FROM SOURCE 2 TO RECORD 23 
*SOURCE FILE: XCD064_07_1 MUSIC PLEASE.WAV
000917  MSMMMOB.96                       V     C        19:02:24:07 19:02:27:17 01:03:20:10 01:03:23:20 
M2      MSMMMOB.96                                025.0 19:02:24:07 
*FROM CLIP NAME:  A074C008_190813_R32C 
*SOURCE FILE: MSMMMOB.96
000918  19Y08M13                         A     C        19:02:24:06 19:02:28:01 01:03:20:10 01:03:24:05 
*FROM CLIP NAME:  4K5/03.SYNC.01 
*SOURCE FILE: 19Y08M13
000919  19Y08M13                         A2    C        19:02:24:06 19:02:28:01 01:03:20:10 01:03:24:05 
*FROM CLIP NAME:  4K5/03.SYNC.01 
*SOURCE FILE: 19Y08M13
000920  19Y08M13                         A3    C        19:02:24:06 19:02:28:01 01:03:20:10 01:03:24:05 
*FROM CLIP NAME:  4K5/03.SYNC.01 
*SOURCE FILE: 19Y08M13
000921  19Y08M13                         A4    C        19:02:24:06 19:02:28:01 01:03:20:10 01:03:24:05 
*FROM CLIP NAME:  4K5/03.SYNC.01 
*SOURCE FILE: 19Y08M13
000922  19Y08M13                         A5    C        19:02:24:06 19:02:28:01 01:03:20:10 01:03:24:05 
*FROM CLIP NAME:  4K5/03.SYNC.01 
*SOURCE FILE: 19Y08M13
000923  19Y08M13                         A6    C        19:02:24:06 19:02:28:01 01:03:20:10 01:03:24:05 
*FROM CLIP NAME:  4K5/03.SYNC.01 
*SOURCE FILE: 19Y08M13
000924  19Y08M13                         A7    C        19:02:24:06 19:02:28:01 01:03:20:10 01:03:24:05 
*FROM CLIP NAME:  4K5/03.SYNC.01 
*SOURCE FILE: 19Y08M13
000925  19Y08M13                         A8    C        19:02:24:06 19:02:28:01 01:03:20:10 01:03:24:05 
*FROM CLIP NAME:  4K5/03.SYNC.01 
*SOURCE FILE: 19Y08M13
000926  XCD064_07_1_MUSIC_PLEASE.WAV     A22   C        01:00:20:02 01:00:20:02 01:03:21:04 01:03:21:04 
000926  XCD064_07_1_MUSIC_PLEASE.WAV     A22   D    045 01:00:20:02 01:00:21:22 01:03:21:04 01:03:22:24 
*FROM CLIP NAME:  XCD064_07_1 MUSIC PLEASE.WAV 
*TO CLIP NAME:  XCD064_07_1 MUSIC PLEASE.WAV 
*A22 VOL = -11.0 DB  PAN L100 
*A22 VOL = -30.0 DB  PAN L100 
*PATCH XCD064_07_1_MUSIC_PLEASE.WAV:  FROM SOURCE 1 TO RECORD 22 
*PATCH XCD064_07_1_MUSIC_PLEASE.WAV:  FROM SOURCE 1 TO RECORD 22 
*SOURCE FILE: XCD064_07_1 MUSIC PLEASE.WAV
000927  XCD064_07_1_MUSIC_PLEASE.WAV     A23   C        01:00:20:02 01:00:20:02 01:03:21:04 01:03:21:04 
000927  XCD064_07_1_MUSIC_PLEASE.WAV     A23   D    045 01:00:20:02 01:00:21:22 01:03:21:04 01:03:22:24 
*FROM CLIP NAME:  XCD064_07_1 MUSIC PLEASE.WAV 
*TO CLIP NAME:  XCD064_07_1 MUSIC PLEASE.WAV 
*A23 VOL = -11.0 DB  PAN R100 
*A23 VOL = -30.0 DB  PAN R100 
*PATCH XCD064_07_1_MUSIC_PLEASE.WAV:  FROM SOURCE 2 TO RECORD 23 
*PATCH XCD064_07_1_MUSIC_PLEASE.WAV:  FROM SOURCE 2 TO RECORD 23 
*SOURCE FILE: XCD064_07_1 MUSIC PLEASE.WAV
000928  XCD064_07_1_MUSIC_PLEASE.WAV     A22   C        01:00:21:22 01:00:38:14 01:03:22:24 01:03:39:16 
*, EQ3 7-BAND 
*FROM CLIP NAME:  XCD064_07_1 MUSIC PLEASE.WAV 
*A22 VOL = -30.0 DB  PAN L100 
*PATCH XCD064_07_1_MUSIC_PLEASE.WAV:  FROM SOURCE 1 TO RECORD 22 
*SOURCE FILE: XCD064_07_1 MUSIC PLEASE.WAV
000929  XCD064_07_1_MUSIC_PLEASE.WAV     A23   C        01:00:21:22 01:00:38:14 01:03:22:24 01:03:39:16 
*, EQ3 7-BAND 
*FROM CLIP NAME:  XCD064_07_1 MUSIC PLEASE.WAV 
*A23 VOL = -30.0 DB  PAN R100 
*PATCH XCD064_07_1_MUSIC_PLEASE.WAV:  FROM SOURCE 2 TO RECORD 23 
*SOURCE FILE: XCD064_07_1 MUSIC PLEASE.WAV
000930  MSMMMOB.16                       V     C        18:17:16:16 18:17:18:03 01:03:23:20 01:03:25:07 
M2      MSMMMOB.16                                025.0 18:17:16:16 
*FROM CLIP NAME:  A073C007_190813_R32C 
*SOURCE FILE: MSMMMOB.16
000931  19Y08M13                         A     C        19:02:28:11 19:02:35:01 01:03:24:05 01:03:30:20 
*FROM CLIP NAME:  4K5/03.SYNC.01 
*SOURCE FILE: 19Y08M13
000932  19Y08M13                         A2    C        19:02:28:11 19:02:35:01 01:03:24:05 01:03:30:20 
*FROM CLIP NAME:  4K5/03.SYNC.01 
*SOURCE FILE: 19Y08M13
000933  19Y08M13                         A3    C        19:02:28:11 19:02:35:01 01:03:24:05 01:03:30:20 
*FROM CLIP NAME:  4K5/03.SYNC.01 
*SOURCE FILE: 19Y08M13
000934  19Y08M13                         A4    C        19:02:28:11 19:02:35:01 01:03:24:05 01:03:30:20 
*FROM CLIP NAME:  4K5/03.SYNC.01 
*SOURCE FILE: 19Y08M13
000935  19Y08M13                         A5    C        19:02:28:11 19:02:35:01 01:03:24:05 01:03:30:20 
*FROM CLIP NAME:  4K5/03.SYNC.01 
*SOURCE FILE: 19Y08M13
000936  19Y08M13                         A6    C        19:02:28:11 19:02:35:01 01:03:24:05 01:03:30:20 
*FROM CLIP NAME:  4K5/03.SYNC.01 
*SOURCE FILE: 19Y08M13
000937  19Y08M13                         A7    C        19:02:28:11 19:02:35:01 01:03:24:05 01:03:30:20 
*FROM CLIP NAME:  4K5/03.SYNC.01 
*SOURCE FILE: 19Y08M13
000938  19Y08M13                         A8    C        19:02:28:11 19:02:35:01 01:03:24:05 01:03:30:20 
*FROM CLIP NAME:  4K5/03.SYNC.01 
*SOURCE FILE: 19Y08M13
000939  MSMMMOB.96                       V     C        19:02:29:14 19:02:35:07 01:03:25:07 01:03:31:00 
M2      MSMMMOB.96                                025.0 19:02:29:14 
*FROM CLIP NAME:  A074C008_190813_R32C 
*SOURCE FILE: MSMMMOB.96
000940  19Y08M13                         A     C        19:02:35:01 19:02:35:01 01:03:30:20 01:03:30:20 
000940  19Y08M13                         A     D    002 19:00:06:06 19:00:06:08 01:03:30:20 01:03:30:22 
*FROM CLIP NAME:  4K5/03.SYNC.01 
*TO CLIP NAME:  4K5/02.SYNC.01 
*SOURCE FILE: 19Y08M13
000941  19Y08M13                         A2    C        19:02:35:01 19:02:35:01 01:03:30:20 01:03:30:20 
000941  19Y08M13                         A2    D    002 19:00:06:06 19:00:06:08 01:03:30:20 01:03:30:22 
*FROM CLIP NAME:  4K5/03.SYNC.01 
*TO CLIP NAME:  4K5/02.SYNC.01 
*SOURCE FILE: 19Y08M13
000942  19Y08M13                         A3    C        19:02:35:01 19:02:35:01 01:03:30:20 01:03:30:20 
000942  19Y08M13                         A3    D    002 19:00:06:06 19:00:06:08 01:03:30:20 01:03:30:22 
*FROM CLIP NAME:  4K5/03.SYNC.01 
*TO CLIP NAME:  4K5/02.SYNC.01 
*SOURCE FILE: 19Y08M13
000943  19Y08M13                         A4    C        19:02:35:01 19:02:35:01 01:03:30:20 01:03:30:20 
000943  19Y08M13                         A4    D    002 19:00:06:06 19:00:06:08 01:03:30:20 01:03:30:22 
*FROM CLIP NAME:  4K5/03.SYNC.01 
*TO CLIP NAME:  4K5/02.SYNC.01 
*SOURCE FILE: 19Y08M13
000944  19Y08M13                         A5    C        19:02:35:01 19:02:35:01 01:03:30:20 01:03:30:20 
000944  19Y08M13                         A5    D    002 19:00:06:06 19:00:06:08 01:03:30:20 01:03:30:22 
*FROM CLIP NAME:  4K5/03.SYNC.01 
*TO CLIP NAME:  4K5/02.SYNC.01 
*SOURCE FILE: 19Y08M13
000945  19Y08M13                         A6    C        19:02:35:01 19:02:35:01 01:03:30:20 01:03:30:20 
000945  19Y08M13                         A6    D    002 19:00:06:06 19:00:06:08 01:03:30:20 01:03:30:22 
*FROM CLIP NAME:  4K5/03.SYNC.01 
*TO CLIP NAME:  4K5/02.SYNC.01 
*SOURCE FILE: 19Y08M13
000946  19Y08M13                         A7    C        19:02:35:01 19:02:35:01 01:03:30:20 01:03:30:20 
000946  19Y08M13                         A7    D    002 19:00:06:06 19:00:06:08 01:03:30:20 01:03:30:22 
*FROM CLIP NAME:  4K5/03.SYNC.01 
*TO CLIP NAME:  4K5/02.SYNC.01 
*SOURCE FILE: 19Y08M13
000947  19Y08M13                         A8    C        19:02:35:01 19:02:35:01 01:03:30:20 01:03:30:20 
000947  19Y08M13                         A8    D    002 19:00:06:06 19:00:06:08 01:03:30:20 01:03:30:22 
*FROM CLIP NAME:  4K5/03.SYNC.01 
*TO CLIP NAME:  4K5/02.SYNC.01 
*SOURCE FILE: 19Y08M13
000948  19Y08M13                         A     C        19:00:06:08 19:00:06:20 01:03:30:22 01:03:31:09 
*FROM CLIP NAME:  4K5/02.SYNC.01 
*SOURCE FILE: 19Y08M13
000949  19Y08M13                         A2    C        19:00:06:08 19:00:06:20 01:03:30:22 01:03:31:09 
*FROM CLIP NAME:  4K5/02.SYNC.01 
*SOURCE FILE: 19Y08M13
000950  19Y08M13                         A3    C        19:00:06:08 19:00:06:20 01:03:30:22 01:03:31:09 
*FROM CLIP NAME:  4K5/02.SYNC.01 
*SOURCE FILE: 19Y08M13
000951  19Y08M13                         A4    C        19:00:06:08 19:00:06:20 01:03:30:22 01:03:31:09 
*FROM CLIP NAME:  4K5/02.SYNC.01 
*SOURCE FILE: 19Y08M13
000952  19Y08M13                         A5    C        19:00:06:08 19:00:06:20 01:03:30:22 01:03:31:09 
*FROM CLIP NAME:  4K5/02.SYNC.01 
*SOURCE FILE: 19Y08M13
000953  19Y08M13                         A6    C        19:00:06:08 19:00:06:20 01:03:30:22 01:03:31:09 
*FROM CLIP NAME:  4K5/02.SYNC.01 
*SOURCE FILE: 19Y08M13
000954  19Y08M13                         A7    C        19:00:06:08 19:00:06:20 01:03:30:22 01:03:31:09 
*FROM CLIP NAME:  4K5/02.SYNC.01 
*SOURCE FILE: 19Y08M13
000955  19Y08M13                         A8    C        19:00:06:08 19:00:06:20 01:03:30:22 01:03:31:09 
*FROM CLIP NAME:  4K5/02.SYNC.01 
*SOURCE FILE: 19Y08M13
000956  MSMMMOB.32                       V     C        18:38:57:12 18:38:58:16 01:03:31:00 01:03:32:04 
M2      MSMMMOB.32                                025.0 18:38:57:12 
*FROM CLIP NAME:  B021C001_190813_R481 
*SOURCE FILE: MSMMMOB.32
000957  19Y08M13                         A     C        19:00:06:20 19:00:06:20 01:03:31:09 01:03:31:09 
000957  19Y08M13                         A     D    002 19:47:06:10 19:47:06:12 01:03:31:09 01:03:31:11 
*FROM CLIP NAME:  4K5/02.SYNC.01 
*TO CLIP NAME:  4K6/01.SYNC.01 
*SOURCE FILE: 19Y08M13
000958  19Y08M13                         A2    C        19:00:06:20 19:00:06:20 01:03:31:09 01:03:31:09 
000958  19Y08M13                         A2    D    002 19:47:06:10 19:47:06:12 01:03:31:09 01:03:31:11 
*FROM CLIP NAME:  4K5/02.SYNC.01 
*TO CLIP NAME:  4K6/01.SYNC.01 
*SOURCE FILE: 19Y08M13
000959  19Y08M13                         A3    C        19:00:06:20 19:00:06:20 01:03:31:09 01:03:31:09 
000959  19Y08M13                         A3    D    002 19:47:06:10 19:47:06:12 01:03:31:09 01:03:31:11 
*FROM CLIP NAME:  4K5/02.SYNC.01 
*TO CLIP NAME:  4K6/01.SYNC.01 
*SOURCE FILE: 19Y08M13
000960  19Y08M13                         A4    C        19:00:06:20 19:00:06:20 01:03:31:09 01:03:31:09 
000960  19Y08M13                         A4    D    002 19:47:06:10 19:47:06:12 01:03:31:09 01:03:31:11 
*FROM CLIP NAME:  4K5/02.SYNC.01 
*TO CLIP NAME:  4K6/01.SYNC.01 
*SOURCE FILE: 19Y08M13
000961  19Y08M13                         A5    C        19:00:06:20 19:00:06:20 01:03:31:09 01:03:31:09 
000961  19Y08M13                         A5    D    002 19:47:06:10 19:47:06:12 01:03:31:09 01:03:31:11 
*FROM CLIP NAME:  4K5/02.SYNC.01 
*TO CLIP NAME:  4K6/01.SYNC.01 
*SOURCE FILE: 19Y08M13
000962  19Y08M13                         A6    C        19:00:06:20 19:00:06:20 01:03:31:09 01:03:31:09 
000962  19Y08M13                         A6    D    002 19:47:06:10 19:47:06:12 01:03:31:09 01:03:31:11 
*FROM CLIP NAME:  4K5/02.SYNC.01 
*TO CLIP NAME:  4K6/01.SYNC.01 
*SOURCE FILE: 19Y08M13
000963  19Y08M13                         A7    C        19:00:06:20 19:00:06:20 01:03:31:09 01:03:31:09 
000963  19Y08M13                         A7    D    002 19:47:06:10 19:47:06:12 01:03:31:09 01:03:31:11 
*FROM CLIP NAME:  4K5/02.SYNC.01 
*TO CLIP NAME:  4K6/01.SYNC.01 
*SOURCE FILE: 19Y08M13
000964  19Y08M13                         A8    C        19:00:06:20 19:00:06:20 01:03:31:09 01:03:31:09 
000964  19Y08M13                         A8    D    002 19:47:06:10 19:47:06:12 01:03:31:09 01:03:31:11 
*FROM CLIP NAME:  4K5/02.SYNC.01 
*TO CLIP NAME:  4K6/01.SYNC.01 
*SOURCE FILE: 19Y08M13
000965  19Y08M13                         A     C        19:47:06:12 19:47:13:09 01:03:31:11 01:03:38:08 
*FROM CLIP NAME:  4K6/01.SYNC.01 
*SOURCE FILE: 19Y08M13
000966  19Y08M13                         A2    C        19:47:06:12 19:47:13:09 01:03:31:11 01:03:38:08 
*FROM CLIP NAME:  4K6/01.SYNC.01 
*SOURCE FILE: 19Y08M13
000967  19Y08M13                         A3    C        19:47:06:12 19:47:13:09 01:03:31:11 01:03:38:08 
*FROM CLIP NAME:  4K6/01.SYNC.01 
*SOURCE FILE: 19Y08M13
000968  19Y08M13                         A4    C        19:47:06:12 19:47:13:09 01:03:31:11 01:03:38:08 
*FROM CLIP NAME:  4K6/01.SYNC.01 
*SOURCE FILE: 19Y08M13
000969  19Y08M13                         A5    C        19:47:06:12 19:47:13:09 01:03:31:11 01:03:38:08 
*FROM CLIP NAME:  4K6/01.SYNC.01 
*SOURCE FILE: 19Y08M13
000970  19Y08M13                         A6    C        19:47:06:12 19:47:13:09 01:03:31:11 01:03:38:08 
*FROM CLIP NAME:  4K6/01.SYNC.01 
*SOURCE FILE: 19Y08M13
000971  19Y08M13                         A7    C        19:47:06:12 19:47:13:09 01:03:31:11 01:03:38:08 
*FROM CLIP NAME:  4K6/01.SYNC.01 
*SOURCE FILE: 19Y08M13
000972  19Y08M13                         A8    C        19:47:06:12 19:47:13:09 01:03:31:11 01:03:38:08 
*FROM CLIP NAME:  4K6/01.SYNC.01 
*SOURCE FILE: 19Y08M13
000973  MSMMMOB.18                       V     C        19:47:07:06 19:47:10:11 01:03:32:04 01:03:35:09 
M2      MSMMMOB.18                                025.0 19:47:07:06 
*FROM CLIP NAME:  A074C009_190813_R32C 
*SOURCE FILE: MSMMMOB.18
000974  MSMMMOB.11                       V     C        19:47:10:11 19:47:13:10 01:03:35:09 01:03:38:08 
M2      MSMMMOB.11                                025.0 19:47:10:11 
*FROM CLIP NAME:  B021C002_190813_R481 
*SOURCE FILE: MSMMMOB.11
000975  19Y08M13                         A     C        18:49:44:17 18:49:46:06 01:03:38:08 01:03:39:22 
*FROM CLIP NAME:  4K4/04.SYNC.01 
*SOURCE FILE: 19Y08M13
000976  19Y08M13                         A2    C        18:49:44:17 18:49:46:06 01:03:38:08 01:03:39:22 
*FROM CLIP NAME:  4K4/04.SYNC.01 
*SOURCE FILE: 19Y08M13
000977  19Y08M13                         A3    C        18:49:44:17 18:49:46:06 01:03:38:08 01:03:39:22 
*FROM CLIP NAME:  4K4/04.SYNC.01 
*SOURCE FILE: 19Y08M13
000978  19Y08M13                         A4    C        18:49:44:17 18:49:46:06 01:03:38:08 01:03:39:22 
*FROM CLIP NAME:  4K4/04.SYNC.01 
*SOURCE FILE: 19Y08M13
000979  19Y08M13                         A5    C        18:49:44:17 18:49:46:06 01:03:38:08 01:03:39:22 
*FROM CLIP NAME:  4K4/04.SYNC.01 
*SOURCE FILE: 19Y08M13
000980  19Y08M13                         A6    C        18:49:44:17 18:49:46:06 01:03:38:08 01:03:39:22 
*FROM CLIP NAME:  4K4/04.SYNC.01 
*SOURCE FILE: 19Y08M13
000981  19Y08M13                         A7    C        18:49:44:17 18:49:46:06 01:03:38:08 01:03:39:22 
*FROM CLIP NAME:  4K4/04.SYNC.01 
*SOURCE FILE: 19Y08M13
000982  19Y08M13                         A8    C        18:49:44:17 18:49:46:06 01:03:38:08 01:03:39:22 
*FROM CLIP NAME:  4K4/04.SYNC.01 
*SOURCE FILE: 19Y08M13
000983  MSMMMOB.83                       V     C        18:49:44:18 18:49:46:19 01:03:38:08 01:03:40:09 
M2      MSMMMOB.83                                025.0 18:49:44:18 
*FROM CLIP NAME:  A074C005_190813_R32C 
*SOURCE FILE: MSMMMOB.83
000984  19Y08M13                         A     C        18:39:09:10 18:39:11:07 01:03:39:22 01:03:41:19 
*FROM CLIP NAME:  4K3/01.SYNC.01 
*SOURCE FILE: 19Y08M13
000985  19Y08M13                         A2    C        18:39:09:10 18:39:11:07 01:03:39:22 01:03:41:19 
*FROM CLIP NAME:  4K3/01.SYNC.01 
*SOURCE FILE: 19Y08M13
000986  19Y08M13                         A3    C        18:39:09:10 18:39:11:07 01:03:39:22 01:03:41:19 
*FROM CLIP NAME:  4K3/01.SYNC.01 
*SOURCE FILE: 19Y08M13
000987  19Y08M13                         A4    C        18:39:09:10 18:39:11:07 01:03:39:22 01:03:41:19 
*FROM CLIP NAME:  4K3/01.SYNC.01 
*SOURCE FILE: 19Y08M13
000988  19Y08M13                         A5    C        18:39:09:10 18:39:11:07 01:03:39:22 01:03:41:19 
*FROM CLIP NAME:  4K3/01.SYNC.01 
*SOURCE FILE: 19Y08M13
000989  19Y08M13                         A6    C        18:39:09:10 18:39:11:07 01:03:39:22 01:03:41:19 
*FROM CLIP NAME:  4K3/01.SYNC.01 
*SOURCE FILE: 19Y08M13
000990  19Y08M13                         A7    C        18:39:09:10 18:39:11:07 01:03:39:22 01:03:41:19 
*FROM CLIP NAME:  4K3/01.SYNC.01 
*SOURCE FILE: 19Y08M13
000991  19Y08M13                         A8    C        18:39:09:10 18:39:11:07 01:03:39:22 01:03:41:19 
*FROM CLIP NAME:  4K3/01.SYNC.01 
*SOURCE FILE: 19Y08M13
000992  MSMMMOB.68                       V     C        19:50:22:00 19:50:23:10 01:03:40:09 01:03:41:19 
M2      MSMMMOB.68                                025.0 19:50:22:00 
*FROM CLIP NAME:  A074C010_190813_R32C 
*SOURCE FILE: MSMMMOB.68
000993  19Y08M13                         A     C        18:39:12:17 18:39:12:23 01:03:41:19 01:03:42:00 
*FROM CLIP NAME:  4K3/01.SYNC.01 
*SOURCE FILE: 19Y08M13
000994  19Y08M13                         A2    C        18:39:12:17 18:39:12:23 01:03:41:19 01:03:42:00 
*FROM CLIP NAME:  4K3/01.SYNC.01 
*SOURCE FILE: 19Y08M13
000995  19Y08M13                         A3    C        18:39:12:17 18:39:12:23 01:03:41:19 01:03:42:00 
*FROM CLIP NAME:  4K3/01.SYNC.01 
*SOURCE FILE: 19Y08M13
000996  19Y08M13                         A4    C        18:39:12:17 18:39:12:23 01:03:41:19 01:03:42:00 
*FROM CLIP NAME:  4K3/01.SYNC.01 
*SOURCE FILE: 19Y08M13
000997  19Y08M13                         A5    C        18:39:12:17 18:39:12:23 01:03:41:19 01:03:42:00 
*FROM CLIP NAME:  4K3/01.SYNC.01 
*SOURCE FILE: 19Y08M13
000998  19Y08M13                         A6    C        18:39:12:17 18:39:12:23 01:03:41:19 01:03:42:00 
*FROM CLIP NAME:  4K3/01.SYNC.01 
*SOURCE FILE: 19Y08M13
000999  19Y08M13                         A7    C        18:39:12:17 18:39:12:23 01:03:41:19 01:03:42:00 
*FROM CLIP NAME:  4K3/01.SYNC.01 
*SOURCE FILE: 19Y08M13
001000  19Y08M13                         A8    C        18:39:12:17 18:39:12:23 01:03:41:19 01:03:42:00 
*FROM CLIP NAME:  4K3/01.SYNC.01 
*SOURCE FILE: 19Y08M13
001001  MSMMMOB.32                       V     C        18:39:11:02 18:39:12:16 01:03:41:19 01:03:43:08 
M2      MSMMMOB.32                                025.0 18:39:11:02 
*FROM CLIP NAME:  B021C001_190813_R481 
*SOURCE FILE: MSMMMOB.32
001002  19Y08M13                         A     C        18:39:11:07 18:39:12:15 01:03:42:00 01:03:43:08 
*FROM CLIP NAME:  4K3/01.SYNC.01 
*SOURCE FILE: 19Y08M13
001003  19Y08M13                         A2    C        18:39:11:07 18:39:12:15 01:03:42:00 01:03:43:08 
*FROM CLIP NAME:  4K3/01.SYNC.01 
*SOURCE FILE: 19Y08M13
001004  19Y08M13                         A3    C        18:39:11:07 18:39:12:15 01:03:42:00 01:03:43:08 
*FROM CLIP NAME:  4K3/01.SYNC.01 
*SOURCE FILE: 19Y08M13
001005  19Y08M13                         A4    C        18:39:11:07 18:39:12:15 01:03:42:00 01:03:43:08 
*FROM CLIP NAME:  4K3/01.SYNC.01 
*SOURCE FILE: 19Y08M13
001006  19Y08M13                         A5    C        18:39:11:07 18:39:12:15 01:03:42:00 01:03:43:08 
*FROM CLIP NAME:  4K3/01.SYNC.01 
*SOURCE FILE: 19Y08M13
001007  19Y08M13                         A6    C        18:39:11:07 18:39:12:15 01:03:42:00 01:03:43:08 
*FROM CLIP NAME:  4K3/01.SYNC.01 
*SOURCE FILE: 19Y08M13
001008  19Y08M13                         A7    C        18:39:11:07 18:39:12:15 01:03:42:00 01:03:43:08 
*FROM CLIP NAME:  4K3/01.SYNC.01 
*SOURCE FILE: 19Y08M13
001009  19Y08M13                         A8    C        18:39:11:07 18:39:12:15 01:03:42:00 01:03:43:08 
*FROM CLIP NAME:  4K3/01.SYNC.01 
*SOURCE FILE: 19Y08M13
001010  19Y08M13                         A     C        18:49:48:24 18:49:52:03 01:03:43:08 01:03:46:12 
*FROM CLIP NAME:  4K4/04.SYNC.01 
*SOURCE FILE: 19Y08M13
001011  19Y08M13                         A2    C        18:49:48:24 18:49:52:03 01:03:43:08 01:03:46:12 
*FROM CLIP NAME:  4K4/04.SYNC.01 
*SOURCE FILE: 19Y08M13
001012  19Y08M13                         A3    C        18:49:48:24 18:49:52:03 01:03:43:08 01:03:46:12 
*FROM CLIP NAME:  4K4/04.SYNC.01 
*SOURCE FILE: 19Y08M13
001013  19Y08M13                         A4    C        18:49:48:24 18:49:52:03 01:03:43:08 01:03:46:12 
*FROM CLIP NAME:  4K4/04.SYNC.01 
*SOURCE FILE: 19Y08M13
001014  19Y08M13                         A5    C        18:49:48:24 18:49:52:03 01:03:43:08 01:03:46:12 
*FROM CLIP NAME:  4K4/04.SYNC.01 
*SOURCE FILE: 19Y08M13
001015  19Y08M13                         A6    C        18:49:48:24 18:49:52:03 01:03:43:08 01:03:46:12 
*FROM CLIP NAME:  4K4/04.SYNC.01 
*SOURCE FILE: 19Y08M13
001016  19Y08M13                         A7    C        18:49:48:24 18:49:52:03 01:03:43:08 01:03:46:12 
*FROM CLIP NAME:  4K4/04.SYNC.01 
*SOURCE FILE: 19Y08M13
001017  19Y08M13                         A8    C        18:49:48:24 18:49:52:03 01:03:43:08 01:03:46:12 
*FROM CLIP NAME:  4K4/04.SYNC.01 
*SOURCE FILE: 19Y08M13
001018  MSMMMOB.83                       V     C        18:49:49:00 18:49:52:05 01:03:43:08 01:03:46:13 
M2      MSMMMOB.83                                025.0 18:49:49:00 
*FROM CLIP NAME:  A074C005_190813_R32C 
*SOURCE FILE: MSMMMOB.83
001019  19Y08M13                         A     C        18:49:52:03 18:49:52:03 01:03:46:12 01:03:46:12 
001019  19Y08M13                         A     D    002 20:00:38:11 20:00:38:13 01:03:46:12 01:03:46:14 
*FROM CLIP NAME:  4K4/04.SYNC.01 
*TO CLIP NAME:  4K7/02.SYNC.01 
*SOURCE FILE: 19Y08M13
001020  19Y08M13                         A2    C        18:49:52:03 18:49:52:03 01:03:46:12 01:03:46:12 
001020  19Y08M13                         A2    D    002 20:00:38:11 20:00:38:13 01:03:46:12 01:03:46:14 
*FROM CLIP NAME:  4K4/04.SYNC.01 
*TO CLIP NAME:  4K7/02.SYNC.01 
*SOURCE FILE: 19Y08M13
001021  19Y08M13                         A3    C        18:49:52:03 18:49:52:03 01:03:46:12 01:03:46:12 
001021  19Y08M13                         A3    D    002 20:00:38:11 20:00:38:13 01:03:46:12 01:03:46:14 
*FROM CLIP NAME:  4K4/04.SYNC.01 
*TO CLIP NAME:  4K7/02.SYNC.01 
*SOURCE FILE: 19Y08M13
001022  19Y08M13                         A4    C        18:49:52:03 18:49:52:03 01:03:46:12 01:03:46:12 
001022  19Y08M13                         A4    D    002 20:00:38:11 20:00:38:13 01:03:46:12 01:03:46:14 
*FROM CLIP NAME:  4K4/04.SYNC.01 
*TO CLIP NAME:  4K7/02.SYNC.01 
*SOURCE FILE: 19Y08M13
001023  19Y08M13                         A5    C        18:49:52:03 18:49:52:03 01:03:46:12 01:03:46:12 
001023  19Y08M13                         A5    D    002 20:00:38:11 20:00:38:13 01:03:46:12 01:03:46:14 
*FROM CLIP NAME:  4K4/04.SYNC.01 
*TO CLIP NAME:  4K7/02.SYNC.01 
*SOURCE FILE: 19Y08M13
001024  19Y08M13                         A6    C        18:49:52:03 18:49:52:03 01:03:46:12 01:03:46:12 
001024  19Y08M13                         A6    D    002 20:00:38:11 20:00:38:13 01:03:46:12 01:03:46:14 
*FROM CLIP NAME:  4K4/04.SYNC.01 
*TO CLIP NAME:  4K7/02.SYNC.01 
*SOURCE FILE: 19Y08M13
001025  19Y08M13                         A7    C        18:49:52:03 18:49:52:03 01:03:46:12 01:03:46:12 
001025  19Y08M13                         A7    D    002 20:00:38:11 20:00:38:13 01:03:46:12 01:03:46:14 
*FROM CLIP NAME:  4K4/04.SYNC.01 
*TO CLIP NAME:  4K7/02.SYNC.01 
*SOURCE FILE: 19Y08M13
001026  19Y08M13                         A8    C        18:49:52:03 18:49:52:03 01:03:46:12 01:03:46:12 
001026  19Y08M13                         A8    D    002 20:00:38:11 20:00:38:13 01:03:46:12 01:03:46:14 
*FROM CLIP NAME:  4K4/04.SYNC.01 
*TO CLIP NAME:  4K7/02.SYNC.01 
*SOURCE FILE: 19Y08M13
001027  MSMMMOB.93                       V     C        20:00:38:13 20:00:40:09 01:03:46:13 01:03:48:09 
M2      MSMMMOB.93                                025.0 20:00:38:13 
*FROM CLIP NAME:  B021C005_190813_R481 
*SOURCE FILE: MSMMMOB.93
001028  19Y08M13                         A     C        20:00:38:13 20:00:40:07 01:03:46:14 01:03:48:08 
*FROM CLIP NAME:  4K7/02.SYNC.01 
*SOURCE FILE: 19Y08M13
001029  19Y08M13                         A2    C        20:00:38:13 20:00:40:07 01:03:46:14 01:03:48:08 
*FROM CLIP NAME:  4K7/02.SYNC.01 
*SOURCE FILE: 19Y08M13
001030  19Y08M13                         A3    C        20:00:38:13 20:00:40:07 01:03:46:14 01:03:48:08 
*FROM CLIP NAME:  4K7/02.SYNC.01 
*SOURCE FILE: 19Y08M13
001031  19Y08M13                         A4    C        20:00:38:13 20:00:40:07 01:03:46:14 01:03:48:08 
*FROM CLIP NAME:  4K7/02.SYNC.01 
*SOURCE FILE: 19Y08M13
001032  19Y08M13                         A5    C        20:00:38:13 20:00:40:07 01:03:46:14 01:03:48:08 
*FROM CLIP NAME:  4K7/02.SYNC.01 
*SOURCE FILE: 19Y08M13
001033  19Y08M13                         A6    C        20:00:38:13 20:00:40:07 01:03:46:14 01:03:48:08 
*FROM CLIP NAME:  4K7/02.SYNC.01 
*SOURCE FILE: 19Y08M13
001034  19Y08M13                         A7    C        20:00:38:13 20:00:40:07 01:03:46:14 01:03:48:08 
*FROM CLIP NAME:  4K7/02.SYNC.01 
*SOURCE FILE: 19Y08M13
001035  19Y08M13                         A8    C        20:00:38:13 20:00:40:07 01:03:46:14 01:03:48:08 
*FROM CLIP NAME:  4K7/02.SYNC.01 
*SOURCE FILE: 19Y08M13
001036  19Y08M13                         A     C        20:00:40:07 20:00:40:07 01:03:48:08 01:03:48:08 
001036  19Y08M13                         A     D    002 18:39:18:14 18:39:18:16 01:03:48:08 01:03:48:10 
*FROM CLIP NAME:  4K7/02.SYNC.01 
*TO CLIP NAME:  4K3/01.SYNC.01 
*SOURCE FILE: 19Y08M13
001037  19Y08M13                         A2    C        20:00:40:07 20:00:40:07 01:03:48:08 01:03:48:08 
001037  19Y08M13                         A2    D    002 18:39:18:14 18:39:18:16 01:03:48:08 01:03:48:10 
*FROM CLIP NAME:  4K7/02.SYNC.01 
*TO CLIP NAME:  4K3/01.SYNC.01 
*SOURCE FILE: 19Y08M13
001038  19Y08M13                         A3    C        20:00:40:07 20:00:40:07 01:03:48:08 01:03:48:08 
001038  19Y08M13                         A3    D    002 18:39:18:14 18:39:18:16 01:03:48:08 01:03:48:10 
*FROM CLIP NAME:  4K7/02.SYNC.01 
*TO CLIP NAME:  4K3/01.SYNC.01 
*SOURCE FILE: 19Y08M13
001039  19Y08M13                         A4    C        20:00:40:07 20:00:40:07 01:03:48:08 01:03:48:08 
001039  19Y08M13                         A4    D    002 18:39:18:14 18:39:18:16 01:03:48:08 01:03:48:10 
*FROM CLIP NAME:  4K7/02.SYNC.01 
*TO CLIP NAME:  4K3/01.SYNC.01 
*SOURCE FILE: 19Y08M13
001040  19Y08M13                         A5    C        20:00:40:07 20:00:40:07 01:03:48:08 01:03:48:08 
001040  19Y08M13                         A5    D    002 18:39:18:14 18:39:18:16 01:03:48:08 01:03:48:10 
*FROM CLIP NAME:  4K7/02.SYNC.01 
*TO CLIP NAME:  4K3/01.SYNC.01 
*SOURCE FILE: 19Y08M13
001041  19Y08M13                         A6    C        20:00:40:07 20:00:40:07 01:03:48:08 01:03:48:08 
001041  19Y08M13                         A6    D    002 18:39:18:14 18:39:18:16 01:03:48:08 01:03:48:10 
*FROM CLIP NAME:  4K7/02.SYNC.01 
*TO CLIP NAME:  4K3/01.SYNC.01 
*SOURCE FILE: 19Y08M13
001042  19Y08M13                         A7    C        20:00:40:07 20:00:40:07 01:03:48:08 01:03:48:08 
001042  19Y08M13                         A7    D    002 18:39:18:14 18:39:18:16 01:03:48:08 01:03:48:10 
*FROM CLIP NAME:  4K7/02.SYNC.01 
*TO CLIP NAME:  4K3/01.SYNC.01 
*SOURCE FILE: 19Y08M13
001043  19Y08M13                         A8    C        20:00:40:07 20:00:40:07 01:03:48:08 01:03:48:08 
001043  19Y08M13                         A8    D    002 18:39:18:14 18:39:18:16 01:03:48:08 01:03:48:10 
*FROM CLIP NAME:  4K7/02.SYNC.01 
*TO CLIP NAME:  4K3/01.SYNC.01 
*SOURCE FILE: 19Y08M13
001044  MSMMMOB.41                       V     C        18:39:18:16 18:39:19:15 01:03:48:09 01:03:49:08 
M2      MSMMMOB.41                                025.0 18:39:18:16 
*FROM CLIP NAME:  A074C001_190813_R32C 
*SOURCE FILE: MSMMMOB.41
001045  19Y08M13                         A     C        18:39:18:16 18:39:18:19 01:03:48:10 01:03:48:13 
*FROM CLIP NAME:  4K3/01.SYNC.01 
*SOURCE FILE: 19Y08M13
001046  19Y08M13                         A2    C        18:39:18:16 18:39:18:19 01:03:48:10 01:03:48:13 
*FROM CLIP NAME:  4K3/01.SYNC.01 
*SOURCE FILE: 19Y08M13
001047  19Y08M13                         A3    C        18:39:18:16 18:39:18:19 01:03:48:10 01:03:48:13 
*FROM CLIP NAME:  4K3/01.SYNC.01 
*SOURCE FILE: 19Y08M13
001048  19Y08M13                         A4    C        18:39:18:16 18:39:18:19 01:03:48:10 01:03:48:13 
*FROM CLIP NAME:  4K3/01.SYNC.01 
*SOURCE FILE: 19Y08M13
001049  19Y08M13                         A5    C        18:39:18:16 18:39:18:19 01:03:48:10 01:03:48:13 
*FROM CLIP NAME:  4K3/01.SYNC.01 
*SOURCE FILE: 19Y08M13
001050  19Y08M13                         A6    C        18:39:18:16 18:39:18:19 01:03:48:10 01:03:48:13 
*FROM CLIP NAME:  4K3/01.SYNC.01 
*SOURCE FILE: 19Y08M13
001051  19Y08M13                         A7    C        18:39:18:16 18:39:18:19 01:03:48:10 01:03:48:13 
*FROM CLIP NAME:  4K3/01.SYNC.01 
*SOURCE FILE: 19Y08M13
001052  19Y08M13                         A8    C        18:39:18:16 18:39:18:19 01:03:48:10 01:03:48:13 
*FROM CLIP NAME:  4K3/01.SYNC.01 
*SOURCE FILE: 19Y08M13
001053  19Y08M13                         A     C        18:39:18:19 18:39:18:19 01:03:48:13 01:03:48:13 
001053  19Y08M13                         A     D    002 18:49:54:10 18:49:54:12 01:03:48:13 01:03:48:15 
*FROM CLIP NAME:  4K3/01.SYNC.01 
*TO CLIP NAME:  4K4/04.SYNC.01 
*SOURCE FILE: 19Y08M13
001054  19Y08M13                         A2    C        18:39:18:19 18:39:18:19 01:03:48:13 01:03:48:13 
001054  19Y08M13                         A2    D    002 18:49:54:10 18:49:54:12 01:03:48:13 01:03:48:15 
*FROM CLIP NAME:  4K3/01.SYNC.01 
*TO CLIP NAME:  4K4/04.SYNC.01 
*SOURCE FILE: 19Y08M13
001055  19Y08M13                         A3    C        18:39:18:19 18:39:18:19 01:03:48:13 01:03:48:13 
001055  19Y08M13                         A3    D    002 18:49:54:10 18:49:54:12 01:03:48:13 01:03:48:15 
*FROM CLIP NAME:  4K3/01.SYNC.01 
*TO CLIP NAME:  4K4/04.SYNC.01 
*SOURCE FILE: 19Y08M13
001056  19Y08M13                         A4    C        18:39:18:19 18:39:18:19 01:03:48:13 01:03:48:13 
001056  19Y08M13                         A4    D    002 18:49:54:10 18:49:54:12 01:03:48:13 01:03:48:15 
*FROM CLIP NAME:  4K3/01.SYNC.01 
*TO CLIP NAME:  4K4/04.SYNC.01 
*SOURCE FILE: 19Y08M13
001057  19Y08M13                         A5    C        18:39:18:19 18:39:18:19 01:03:48:13 01:03:48:13 
001057  19Y08M13                         A5    D    002 18:49:54:10 18:49:54:12 01:03:48:13 01:03:48:15 
*FROM CLIP NAME:  4K3/01.SYNC.01 
*TO CLIP NAME:  4K4/04.SYNC.01 
*SOURCE FILE: 19Y08M13
001058  19Y08M13                         A6    C        18:39:18:19 18:39:18:19 01:03:48:13 01:03:48:13 
001058  19Y08M13                         A6    D    002 18:49:54:10 18:49:54:12 01:03:48:13 01:03:48:15 
*FROM CLIP NAME:  4K3/01.SYNC.01 
*TO CLIP NAME:  4K4/04.SYNC.01 
*SOURCE FILE: 19Y08M13
001059  19Y08M13                         A7    C        18:39:18:19 18:39:18:19 01:03:48:13 01:03:48:13 
001059  19Y08M13                         A7    D    002 18:49:54:10 18:49:54:12 01:03:48:13 01:03:48:15 
*FROM CLIP NAME:  4K3/01.SYNC.01 
*TO CLIP NAME:  4K4/04.SYNC.01 
*SOURCE FILE: 19Y08M13
001060  19Y08M13                         A8    C        18:39:18:19 18:39:18:19 01:03:48:13 01:03:48:13 
001060  19Y08M13                         A8    D    002 18:49:54:10 18:49:54:12 01:03:48:13 01:03:48:15 
*FROM CLIP NAME:  4K3/01.SYNC.01 
*TO CLIP NAME:  4K4/04.SYNC.01 
*SOURCE FILE: 19Y08M13
001061  19Y08M13                         A     C        18:49:54:12 18:49:57:12 01:03:48:15 01:03:51:15 
*FROM CLIP NAME:  4K4/04.SYNC.01 
*SOURCE FILE: 19Y08M13
001062  19Y08M13                         A2    C        18:49:54:12 18:49:57:12 01:03:48:15 01:03:51:15 
*FROM CLIP NAME:  4K4/04.SYNC.01 
*SOURCE FILE: 19Y08M13
001063  19Y08M13                         A3    C        18:49:54:12 18:49:57:12 01:03:48:15 01:03:51:15 
*FROM CLIP NAME:  4K4/04.SYNC.01 
*SOURCE FILE: 19Y08M13
001064  19Y08M13                         A4    C        18:49:54:12 18:49:57:12 01:03:48:15 01:03:51:15 
*FROM CLIP NAME:  4K4/04.SYNC.01 
*SOURCE FILE: 19Y08M13
001065  19Y08M13                         A5    C        18:49:54:12 18:49:57:12 01:03:48:15 01:03:51:15 
*FROM CLIP NAME:  4K4/04.SYNC.01 
*SOURCE FILE: 19Y08M13
001066  19Y08M13                         A6    C        18:49:54:12 18:49:57:12 01:03:48:15 01:03:51:15 
*FROM CLIP NAME:  4K4/04.SYNC.01 
*SOURCE FILE: 19Y08M13
001067  19Y08M13                         A7    C        18:49:54:12 18:49:57:12 01:03:48:15 01:03:51:15 
*FROM CLIP NAME:  4K4/04.SYNC.01 
*SOURCE FILE: 19Y08M13
001068  19Y08M13                         A8    C        18:49:54:12 18:49:57:12 01:03:48:15 01:03:51:15 
*FROM CLIP NAME:  4K4/04.SYNC.01 
*SOURCE FILE: 19Y08M13
001069  MSMMMOB.83                       V     C        18:49:55:06 18:49:57:05 01:03:49:08 01:03:51:07 
M2      MSMMMOB.83                                025.0 18:49:55:06 
*FROM CLIP NAME:  A074C005_190813_R32C 
*SOURCE FILE: MSMMMOB.83
001070  MSMMMOB.32                       V     C        18:39:22:19 18:39:23:22 01:03:51:07 01:03:52:10 
M2      MSMMMOB.32                                025.0 18:39:22:19 
*FROM CLIP NAME:  B021C001_190813_R481 
*SOURCE FILE: MSMMMOB.32
001071  19Y08M13                         A     C        20:01:24:07 20:01:27:06 01:03:51:15 01:03:54:14 
*FROM CLIP NAME:  4K7/02.SYNC.01 
*SOURCE FILE: 19Y08M13
001072  19Y08M13                         A2    C        20:01:24:07 20:01:27:06 01:03:51:15 01:03:54:14 
*FROM CLIP NAME:  4K7/02.SYNC.01 
*SOURCE FILE: 19Y08M13
001073  19Y08M13                         A3    C        20:01:24:07 20:01:27:06 01:03:51:15 01:03:54:14 
*FROM CLIP NAME:  4K7/02.SYNC.01 
*SOURCE FILE: 19Y08M13
001074  19Y08M13                         A4    C        20:01:24:07 20:01:27:06 01:03:51:15 01:03:54:14 
*FROM CLIP NAME:  4K7/02.SYNC.01 
*SOURCE FILE: 19Y08M13
001075  19Y08M13                         A5    C        20:01:24:07 20:01:27:06 01:03:51:15 01:03:54:14 
*FROM CLIP NAME:  4K7/02.SYNC.01 
*SOURCE FILE: 19Y08M13
001076  19Y08M13                         A6    C        20:01:24:07 20:01:27:06 01:03:51:15 01:03:54:14 
*FROM CLIP NAME:  4K7/02.SYNC.01 
*SOURCE FILE: 19Y08M13
001077  19Y08M13                         A7    C        20:01:24:07 20:01:27:06 01:03:51:15 01:03:54:14 
*FROM CLIP NAME:  4K7/02.SYNC.01 
*SOURCE FILE: 19Y08M13
001078  19Y08M13                         A8    C        20:01:24:07 20:01:27:06 01:03:51:15 01:03:54:14 
*FROM CLIP NAME:  4K7/02.SYNC.01 
*SOURCE FILE: 19Y08M13
001079  MSMMMOB.93                       V     C        20:01:25:03 20:01:27:07 01:03:52:10 01:03:54:14 
M2      MSMMMOB.93                                025.0 20:01:25:03 
*FROM CLIP NAME:  B021C005_190813_R481 
*SOURCE FILE: MSMMMOB.93
001080  19Y08M13                         A     C        18:49:59:22 18:50:01:04 01:03:54:14 01:03:55:21 
*FROM CLIP NAME:  4K4/04.SYNC.01 
*SOURCE FILE: 19Y08M13
001081  19Y08M13                         A2    C        18:49:59:22 18:50:01:04 01:03:54:14 01:03:55:21 
*FROM CLIP NAME:  4K4/04.SYNC.01 
*SOURCE FILE: 19Y08M13
001082  19Y08M13                         A3    C        18:49:59:22 18:50:01:04 01:03:54:14 01:03:55:21 
*FROM CLIP NAME:  4K4/04.SYNC.01 
*SOURCE FILE: 19Y08M13
001083  19Y08M13                         A4    C        18:49:59:22 18:50:01:04 01:03:54:14 01:03:55:21 
*FROM CLIP NAME:  4K4/04.SYNC.01 
*SOURCE FILE: 19Y08M13
001084  19Y08M13                         A5    C        18:49:59:22 18:50:01:04 01:03:54:14 01:03:55:21 
*FROM CLIP NAME:  4K4/04.SYNC.01 
*SOURCE FILE: 19Y08M13
001085  19Y08M13                         A6    C        18:49:59:22 18:50:01:04 01:03:54:14 01:03:55:21 
*FROM CLIP NAME:  4K4/04.SYNC.01 
*SOURCE FILE: 19Y08M13
001086  19Y08M13                         A7    C        18:49:59:22 18:50:01:04 01:03:54:14 01:03:55:21 
*FROM CLIP NAME:  4K4/04.SYNC.01 
*SOURCE FILE: 19Y08M13
001087  19Y08M13                         A8    C        18:49:59:22 18:50:01:04 01:03:54:14 01:03:55:21 
*FROM CLIP NAME:  4K4/04.SYNC.01 
*SOURCE FILE: 19Y08M13
001088  MSMMMOB.83                       V     C        18:49:59:23 18:50:01:12 01:03:54:14 01:03:56:03 
M2      MSMMMOB.83                                025.0 18:49:59:23 
*FROM CLIP NAME:  A074C005_190813_R32C 
*SOURCE FILE: MSMMMOB.83
001089  19Y08M13                         A     C        19:02:58:22 19:02:59:06 01:03:55:21 01:03:56:05 
*FROM CLIP NAME:  4K5/03.SYNC.01 
*SOURCE FILE: 19Y08M13
001090  19Y08M13                         A2    C        19:02:58:22 19:02:59:06 01:03:55:21 01:03:56:05 
*FROM CLIP NAME:  4K5/03.SYNC.01 
*SOURCE FILE: 19Y08M13
001091  19Y08M13                         A3    C        19:02:58:22 19:02:59:06 01:03:55:21 01:03:56:05 
*FROM CLIP NAME:  4K5/03.SYNC.01 
*SOURCE FILE: 19Y08M13
001092  19Y08M13                         A4    C        19:02:58:22 19:02:59:06 01:03:55:21 01:03:56:05 
*FROM CLIP NAME:  4K5/03.SYNC.01 
*SOURCE FILE: 19Y08M13
001093  19Y08M13                         A5    C        19:02:58:22 19:02:59:06 01:03:55:21 01:03:56:05 
*FROM CLIP NAME:  4K5/03.SYNC.01 
*SOURCE FILE: 19Y08M13
001094  19Y08M13                         A6    C        19:02:58:22 19:02:59:06 01:03:55:21 01:03:56:05 
*FROM CLIP NAME:  4K5/03.SYNC.01 
*SOURCE FILE: 19Y08M13
001095  19Y08M13                         A7    C        19:02:58:22 19:02:59:06 01:03:55:21 01:03:56:05 
*FROM CLIP NAME:  4K5/03.SYNC.01 
*SOURCE FILE: 19Y08M13
001096  19Y08M13                         A8    C        19:02:58:22 19:02:59:06 01:03:55:21 01:03:56:05 
*FROM CLIP NAME:  4K5/03.SYNC.01 
*SOURCE FILE: 19Y08M13
001097  MSMMMOB.93                       V     C        20:01:28:12 20:01:29:15 01:03:56:03 01:03:57:06 
M2      MSMMMOB.93                                025.0 20:01:28:12 
*FROM CLIP NAME:  B021C005_190813_R481 
*SOURCE FILE: MSMMMOB.93
001098  19Y08M13                         A     C        20:01:28:13 20:01:29:14 01:03:56:05 01:03:57:06 
*FROM CLIP NAME:  4K7/02.SYNC.01 
*SOURCE FILE: 19Y08M13
001099  19Y08M13                         A2    C        20:01:28:13 20:01:29:14 01:03:56:05 01:03:57:06 
*FROM CLIP NAME:  4K7/02.SYNC.01 
*SOURCE FILE: 19Y08M13
001100  19Y08M13                         A3    C        20:01:28:13 20:01:29:14 01:03:56:05 01:03:57:06 
*FROM CLIP NAME:  4K7/02.SYNC.01 
*SOURCE FILE: 19Y08M13
001101  19Y08M13                         A4    C        20:01:28:13 20:01:29:14 01:03:56:05 01:03:57:06 
*FROM CLIP NAME:  4K7/02.SYNC.01 
*SOURCE FILE: 19Y08M13
001102  19Y08M13                         A5    C        20:01:28:13 20:01:29:14 01:03:56:05 01:03:57:06 
*FROM CLIP NAME:  4K7/02.SYNC.01 
*SOURCE FILE: 19Y08M13
001103  19Y08M13                         A6    C        20:01:28:13 20:01:29:14 01:03:56:05 01:03:57:06 
*FROM CLIP NAME:  4K7/02.SYNC.01 
*SOURCE FILE: 19Y08M13
001104  19Y08M13                         A7    C        20:01:28:13 20:01:29:14 01:03:56:05 01:03:57:06 
*FROM CLIP NAME:  4K7/02.SYNC.01 
*SOURCE FILE: 19Y08M13
001105  19Y08M13                         A8    C        20:01:28:13 20:01:29:14 01:03:56:05 01:03:57:06 
*FROM CLIP NAME:  4K7/02.SYNC.01 
*SOURCE FILE: 19Y08M13
001106  19Y08M13                         A     C        18:50:01:21 18:50:02:05 01:03:57:06 01:03:57:15 
*FROM CLIP NAME:  4K4/04.SYNC.01 
*SOURCE FILE: 19Y08M13
001107  19Y08M13                         A2    C        18:50:01:21 18:50:02:05 01:03:57:06 01:03:57:15 
*FROM CLIP NAME:  4K4/04.SYNC.01 
*SOURCE FILE: 19Y08M13
001108  19Y08M13                         A3    C        18:50:01:21 18:50:02:05 01:03:57:06 01:03:57:15 
*FROM CLIP NAME:  4K4/04.SYNC.01 
*SOURCE FILE: 19Y08M13
001109  19Y08M13                         A4    C        18:50:01:21 18:50:02:05 01:03:57:06 01:03:57:15 
*FROM CLIP NAME:  4K4/04.SYNC.01 
*SOURCE FILE: 19Y08M13
001110  19Y08M13                         A5    C        18:50:01:21 18:50:02:05 01:03:57:06 01:03:57:15 
*FROM CLIP NAME:  4K4/04.SYNC.01 
*SOURCE FILE: 19Y08M13
001111  19Y08M13                         A6    C        18:50:01:21 18:50:02:05 01:03:57:06 01:03:57:15 
*FROM CLIP NAME:  4K4/04.SYNC.01 
*SOURCE FILE: 19Y08M13
001112  19Y08M13                         A7    C        18:50:01:21 18:50:02:05 01:03:57:06 01:03:57:15 
*FROM CLIP NAME:  4K4/04.SYNC.01 
*SOURCE FILE: 19Y08M13
001113  19Y08M13                         A8    C        18:50:01:21 18:50:02:05 01:03:57:06 01:03:57:15 
*FROM CLIP NAME:  4K4/04.SYNC.01 
*SOURCE FILE: 19Y08M13
001114  MSMMMOB.83                       V     C        18:50:01:22 18:50:02:22 01:03:57:06 01:03:58:06 
M2      MSMMMOB.83                                025.0 18:50:01:22 
*FROM CLIP NAME:  A074C005_190813_R32C 
*SOURCE FILE: MSMMMOB.83
001115  19Y08M13                         A     C        20:01:29:14 20:01:32:08 01:03:57:15 01:04:00:09 
*FROM CLIP NAME:  4K7/02.SYNC.01 
*SOURCE FILE: 19Y08M13
001116  19Y08M13                         A2    C        20:01:29:14 20:01:32:08 01:03:57:15 01:04:00:09 
*FROM CLIP NAME:  4K7/02.SYNC.01 
*SOURCE FILE: 19Y08M13
001117  19Y08M13                         A3    C        20:01:29:14 20:01:32:08 01:03:57:15 01:04:00:09 
*FROM CLIP NAME:  4K7/02.SYNC.01 
*SOURCE FILE: 19Y08M13
001118  19Y08M13                         A4    C        20:01:29:14 20:01:32:08 01:03:57:15 01:04:00:09 
*FROM CLIP NAME:  4K7/02.SYNC.01 
*SOURCE FILE: 19Y08M13
001119  19Y08M13                         A5    C        20:01:29:14 20:01:32:08 01:03:57:15 01:04:00:09 
*FROM CLIP NAME:  4K7/02.SYNC.01 
*SOURCE FILE: 19Y08M13
001120  19Y08M13                         A6    C        20:01:29:14 20:01:32:08 01:03:57:15 01:04:00:09 
*FROM CLIP NAME:  4K7/02.SYNC.01 
*SOURCE FILE: 19Y08M13
001121  19Y08M13                         A7    C        20:01:29:14 20:01:32:08 01:03:57:15 01:04:00:09 
*FROM CLIP NAME:  4K7/02.SYNC.01 
*SOURCE FILE: 19Y08M13
001122  19Y08M13                         A8    C        20:01:29:14 20:01:32:08 01:03:57:15 01:04:00:09 
*FROM CLIP NAME:  4K7/02.SYNC.01 
*SOURCE FILE: 19Y08M13
001123  MSMMMOB.93                       V     C        20:01:30:06 20:01:32:10 01:03:58:06 01:04:00:10 
M2      MSMMMOB.93                                025.0 20:01:30:06 
*FROM CLIP NAME:  B021C005_190813_R481 
*SOURCE FILE: MSMMMOB.93
001124  19Y08M13                         A     C        18:39:30:23 18:39:33:18 01:04:00:09 01:04:03:04 
*FROM CLIP NAME:  4K3/01.SYNC.01 
*SOURCE FILE: 19Y08M13
001125  19Y08M13                         A2    C        18:39:30:23 18:39:33:18 01:04:00:09 01:04:03:04 
*FROM CLIP NAME:  4K3/01.SYNC.01 
*SOURCE FILE: 19Y08M13
001126  19Y08M13                         A3    C        18:39:30:23 18:39:33:18 01:04:00:09 01:04:03:04 
*FROM CLIP NAME:  4K3/01.SYNC.01 
*SOURCE FILE: 19Y08M13
001127  19Y08M13                         A4    C        18:39:30:23 18:39:33:18 01:04:00:09 01:04:03:04 
*FROM CLIP NAME:  4K3/01.SYNC.01 
*SOURCE FILE: 19Y08M13
001128  19Y08M13                         A5    C        18:39:30:23 18:39:33:18 01:04:00:09 01:04:03:04 
*FROM CLIP NAME:  4K3/01.SYNC.01 
*SOURCE FILE: 19Y08M13
001129  19Y08M13                         A6    C        18:39:30:23 18:39:33:18 01:04:00:09 01:04:03:04 
*FROM CLIP NAME:  4K3/01.SYNC.01 
*SOURCE FILE: 19Y08M13
001130  19Y08M13                         A7    C        18:39:30:23 18:39:33:18 01:04:00:09 01:04:03:04 
*FROM CLIP NAME:  4K3/01.SYNC.01 
*SOURCE FILE: 19Y08M13
001131  19Y08M13                         A8    C        18:39:30:23 18:39:33:18 01:04:00:09 01:04:03:04 
*FROM CLIP NAME:  4K3/01.SYNC.01 
*SOURCE FILE: 19Y08M13
001132  MSMMMOB.32                       V     C        18:39:31:00 18:39:33:10 01:04:00:10 01:04:02:20 
M2      MSMMMOB.32                                025.0 18:39:31:00 
*FROM CLIP NAME:  B021C001_190813_R481 
*SOURCE FILE: MSMMMOB.32
001133  MSMMMOB.16                       V     C        18:17:56:03 18:17:58:12 01:04:02:20 01:04:05:04 
M2      MSMMMOB.16                                025.0 18:17:56:03 
*FROM CLIP NAME:  A073C007_190813_R32C 
*SOURCE FILE: MSMMMOB.16
001134  CINEMASCOPE_2-35-1_CROPLINES.PNG V     C        01:01:57:05 01:05:53:15 01:04:02:20 01:07:59:05 
*FROM CLIP NAME:  CINEMASCOPE 2-35-1 CROPLINES.PNG 
*SOURCE FILE: CINEMASCOPE 2-35-1 CROPLINES.PNG
001135  19Y08M13                         A     C        18:39:33:18 18:39:33:18 01:04:03:04 01:04:03:04 
001135  19Y08M13                         A     D    002 18:17:56:11 18:17:56:13 01:04:03:04 01:04:03:06 
*FROM CLIP NAME:  4K3/01.SYNC.01 
*TO CLIP NAME:  4K1/03.SYNC.01 
*SOURCE FILE: 19Y08M13
001136  19Y08M13                         A2    C        18:39:33:18 18:39:33:18 01:04:03:04 01:04:03:04 
001136  19Y08M13                         A2    D    002 18:17:56:11 18:17:56:13 01:04:03:04 01:04:03:06 
*FROM CLIP NAME:  4K3/01.SYNC.01 
*TO CLIP NAME:  4K1/03.SYNC.01 
*SOURCE FILE: 19Y08M13
001137  19Y08M13                         A3    C        18:39:33:18 18:39:33:18 01:04:03:04 01:04:03:04 
001137  BL                               A3    D    002 00:00:00:00 00:00:00:02 01:04:03:04 01:04:03:06 
*FROM CLIP NAME:  4K3/01.SYNC.01 
*SOURCE FILE: 19Y08M13
001138  19Y08M13                         A4    C        18:39:33:18 18:39:33:18 01:04:03:04 01:04:03:04 
001138  19Y08M13                         A4    D    002 18:17:56:11 18:17:56:13 01:04:03:04 01:04:03:06 
*FROM CLIP NAME:  4K3/01.SYNC.01 
*TO CLIP NAME:  4K1/03.SYNC.01 
*SOURCE FILE: 19Y08M13
001139  19Y08M13                         A5    C        18:39:33:18 18:39:33:18 01:04:03:04 01:04:03:04 
001139  19Y08M13                         A5    D    002 18:17:56:11 18:17:56:13 01:04:03:04 01:04:03:06 
*FROM CLIP NAME:  4K3/01.SYNC.01 
*TO CLIP NAME:  4K1/03.SYNC.01 
*SOURCE FILE: 19Y08M13
001140  19Y08M13                         A6    C        18:39:33:18 18:39:33:18 01:04:03:04 01:04:03:04 
001140  19Y08M13                         A6    D    002 18:17:56:11 18:17:56:13 01:04:03:04 01:04:03:06 
*FROM CLIP NAME:  4K3/01.SYNC.01 
*TO CLIP NAME:  4K1/03.SYNC.01 
*SOURCE FILE: 19Y08M13
001141  19Y08M13                         A7    C        18:39:33:18 18:39:33:18 01:04:03:04 01:04:03:04 
001141  19Y08M13                         A7    D    002 18:17:56:11 18:17:56:13 01:04:03:04 01:04:03:06 
*FROM CLIP NAME:  4K3/01.SYNC.01 
*TO CLIP NAME:  4K1/03.SYNC.01 
*SOURCE FILE: 19Y08M13
001142  19Y08M13                         A8    C        18:39:33:18 18:39:33:18 01:04:03:04 01:04:03:04 
001142  19Y08M13                         A8    D    002 18:17:56:11 18:17:56:13 01:04:03:04 01:04:03:06 
*FROM CLIP NAME:  4K3/01.SYNC.01 
*TO CLIP NAME:  4K1/03.SYNC.01 
*SOURCE FILE: 19Y08M13
001143  19Y08M13                         A     C        18:17:56:13 18:17:58:11 01:04:03:06 01:04:05:04 
*FROM CLIP NAME:  4K1/03.SYNC.01 
*SOURCE FILE: 19Y08M13
001144  19Y08M13                         A2    C        18:17:56:13 18:17:58:11 01:04:03:06 01:04:05:04 
*FROM CLIP NAME:  4K1/03.SYNC.01 
*SOURCE FILE: 19Y08M13
001145  19Y08M13                         A4    C        18:17:56:13 18:17:58:11 01:04:03:06 01:04:05:04 
*FROM CLIP NAME:  4K1/03.SYNC.01 
*SOURCE FILE: 19Y08M13
001146  19Y08M13                         A5    C        18:17:56:13 18:17:58:11 01:04:03:06 01:04:05:04 
*FROM CLIP NAME:  4K1/03.SYNC.01 
*SOURCE FILE: 19Y08M13
001147  19Y08M13                         A6    C        18:17:56:13 18:17:58:11 01:04:03:06 01:04:05:04 
*FROM CLIP NAME:  4K1/03.SYNC.01 
*SOURCE FILE: 19Y08M13
001148  19Y08M13                         A7    C        18:17:56:13 18:17:58:11 01:04:03:06 01:04:05:04 
*FROM CLIP NAME:  4K1/03.SYNC.01 
*SOURCE FILE: 19Y08M13
001149  19Y08M13                         A8    C        18:17:56:13 18:17:58:11 01:04:03:06 01:04:05:04 
*FROM CLIP NAME:  4K1/03.SYNC.01 
*SOURCE FILE: 19Y08M13
001150  19Y08M13                         A3    C        18:17:57:24 18:17:58:11 01:04:04:17 01:04:05:04 
*FROM CLIP NAME:  4K1/03.SYNC.01 
*SOURCE FILE: 19Y08M13
001151  MSMMMOB.96                       V     C        19:03:28:15 19:03:29:17 01:04:05:04 01:04:06:06 
M2      MSMMMOB.96                                025.0 19:03:28:15 
*FROM CLIP NAME:  A074C008_190813_R32C 
*SOURCE FILE: MSMMMOB.96
001152  19Y08M13                         A     C        19:58:33:19 19:58:35:15 01:04:05:04 01:04:07:00 
*FROM CLIP NAME:  4K7/01.SYNC.01 
*SOURCE FILE: 19Y08M13
001153  19Y08M13                         A2    C        19:58:33:19 19:58:35:15 01:04:05:04 01:04:07:00 
*FROM CLIP NAME:  4K7/01.SYNC.01 
*SOURCE FILE: 19Y08M13
001154  19Y08M13                         A3    C        19:58:33:19 19:58:35:15 01:04:05:04 01:04:07:00 
*FROM CLIP NAME:  4K7/01.SYNC.01 
*SOURCE FILE: 19Y08M13
001155  19Y08M13                         A4    C        19:58:33:19 19:58:35:15 01:04:05:04 01:04:07:00 
*FROM CLIP NAME:  4K7/01.SYNC.01 
*SOURCE FILE: 19Y08M13
001156  19Y08M13                         A5    C        19:58:33:19 19:58:35:15 01:04:05:04 01:04:07:00 
*FROM CLIP NAME:  4K7/01.SYNC.01 
*SOURCE FILE: 19Y08M13
001157  19Y08M13                         A6    C        19:58:33:19 19:58:35:15 01:04:05:04 01:04:07:00 
*FROM CLIP NAME:  4K7/01.SYNC.01 
*SOURCE FILE: 19Y08M13
001158  19Y08M13                         A7    C        19:58:33:19 19:58:35:15 01:04:05:04 01:04:07:00 
*FROM CLIP NAME:  4K7/01.SYNC.01 
*SOURCE FILE: 19Y08M13
001159  19Y08M13                         A8    C        19:58:33:19 19:58:35:15 01:04:05:04 01:04:07:00 
*FROM CLIP NAME:  4K7/01.SYNC.01 
*SOURCE FILE: 19Y08M13
001160  MSMMMOB.64                       V     C        19:58:34:22 19:58:36:07 01:04:06:06 01:04:07:16 
M2      MSMMMOB.64                                025.0 19:58:34:22 
*FROM CLIP NAME:  B021C004_190813_R481 
*SOURCE FILE: MSMMMOB.64
001161  19Y08M13                         A     C        18:39:35:16 18:39:38:03 01:04:07:00 01:04:09:12 
*FROM CLIP NAME:  4K3/01.SYNC.01 
*SOURCE FILE: 19Y08M13
001162  19Y08M13                         A2    C        18:39:35:16 18:39:38:03 01:04:07:00 01:04:09:12 
*FROM CLIP NAME:  4K3/01.SYNC.01 
*SOURCE FILE: 19Y08M13
001163  19Y08M13                         A3    C        18:39:35:16 18:39:38:03 01:04:07:00 01:04:09:12 
*FROM CLIP NAME:  4K3/01.SYNC.01 
*SOURCE FILE: 19Y08M13
001164  19Y08M13                         A4    C        18:39:35:16 18:39:38:03 01:04:07:00 01:04:09:12 
*FROM CLIP NAME:  4K3/01.SYNC.01 
*SOURCE FILE: 19Y08M13
001165  19Y08M13                         A5    C        18:39:35:16 18:39:38:03 01:04:07:00 01:04:09:12 
*FROM CLIP NAME:  4K3/01.SYNC.01 
*SOURCE FILE: 19Y08M13
001166  19Y08M13                         A6    C        18:39:35:16 18:39:38:03 01:04:07:00 01:04:09:12 
*FROM CLIP NAME:  4K3/01.SYNC.01 
*SOURCE FILE: 19Y08M13
001167  19Y08M13                         A7    C        18:39:35:16 18:39:38:03 01:04:07:00 01:04:09:12 
*FROM CLIP NAME:  4K3/01.SYNC.01 
*SOURCE FILE: 19Y08M13
001168  19Y08M13                         A8    C        18:39:35:16 18:39:38:03 01:04:07:00 01:04:09:12 
*FROM CLIP NAME:  4K3/01.SYNC.01 
*SOURCE FILE: 19Y08M13
001169  MSMMMOB.32                       V     C        18:39:36:08 18:39:38:04 01:04:07:16 01:04:09:12 
M2      MSMMMOB.32                                025.0 18:39:36:08 
*FROM CLIP NAME:  B021C001_190813_R481 
*SOURCE FILE: MSMMMOB.32
001170  MSMMMOB.34                       V     C        20:01:40:05 20:01:42:07 01:04:09:12 01:04:11:14 
M2      MSMMMOB.34                                025.0 20:01:40:05 
*FROM CLIP NAME:  A074C012_190813_R32C 
*SOURCE FILE: MSMMMOB.34
001171  19Y08M13                         A     C        20:01:40:04 20:01:45:10 01:04:09:12 01:04:14:18 
*FROM CLIP NAME:  4K7/02.SYNC.01 
*SOURCE FILE: 19Y08M13
001172  19Y08M13                         A2    C        20:01:40:04 20:01:45:10 01:04:09:12 01:04:14:18 
*FROM CLIP NAME:  4K7/02.SYNC.01 
*SOURCE FILE: 19Y08M13
001173  19Y08M13                         A3    C        20:01:40:04 20:01:45:10 01:04:09:12 01:04:14:18 
*FROM CLIP NAME:  4K7/02.SYNC.01 
*SOURCE FILE: 19Y08M13
001174  19Y08M13                         A4    C        20:01:40:04 20:01:45:10 01:04:09:12 01:04:14:18 
*FROM CLIP NAME:  4K7/02.SYNC.01 
*SOURCE FILE: 19Y08M13
001175  19Y08M13                         A5    C        20:01:40:04 20:01:45:10 01:04:09:12 01:04:14:18 
*FROM CLIP NAME:  4K7/02.SYNC.01 
*SOURCE FILE: 19Y08M13
001176  19Y08M13                         A6    C        20:01:40:04 20:01:45:10 01:04:09:12 01:04:14:18 
*FROM CLIP NAME:  4K7/02.SYNC.01 
*SOURCE FILE: 19Y08M13
001177  19Y08M13                         A7    C        20:01:40:04 20:01:45:10 01:04:09:12 01:04:14:18 
*FROM CLIP NAME:  4K7/02.SYNC.01 
*SOURCE FILE: 19Y08M13
001178  19Y08M13                         A8    C        20:01:40:04 20:01:45:10 01:04:09:12 01:04:14:18 
*FROM CLIP NAME:  4K7/02.SYNC.01 
*SOURCE FILE: 19Y08M13
001179  MSMMMOB.32                       V     C        18:39:38:18 18:39:39:14 01:04:11:14 01:04:12:10 
M2      MSMMMOB.32                                025.0 18:39:38:18 
*FROM CLIP NAME:  B021C001_190813_R481 
*SOURCE FILE: MSMMMOB.32
001180  MSMMMOB.34                       V     C        20:01:43:03 20:01:44:18 01:04:12:10 01:04:14:00 
M2      MSMMMOB.34                                025.0 20:01:43:03 
*FROM CLIP NAME:  A074C012_190813_R32C 
*SOURCE FILE: MSMMMOB.34
001181  MSMMMOB.32                       V     C        18:39:41:05 18:39:42:12 01:04:14:00 01:04:15:07 
M2      MSMMMOB.32                                025.0 18:39:41:05 
*FROM CLIP NAME:  B021C001_190813_R481 
*SOURCE FILE: MSMMMOB.32
001182  19Y08M13                         A     C        19:00:00:23 19:00:01:12 01:04:14:18 01:04:15:07 
*FROM CLIP NAME:  4K5/02.SYNC.01 
*SOURCE FILE: 19Y08M13
001183  19Y08M13                         A2    C        19:00:00:23 19:00:01:12 01:04:14:18 01:04:15:07 
*FROM CLIP NAME:  4K5/02.SYNC.01 
*SOURCE FILE: 19Y08M13
001184  19Y08M13                         A3    C        19:00:00:23 19:00:01:12 01:04:14:18 01:04:15:07 
*FROM CLIP NAME:  4K5/02.SYNC.01 
*SOURCE FILE: 19Y08M13
001185  19Y08M13                         A4    C        19:00:00:23 19:00:01:12 01:04:14:18 01:04:15:07 
*FROM CLIP NAME:  4K5/02.SYNC.01 
*SOURCE FILE: 19Y08M13
001186  19Y08M13                         A5    C        19:00:00:23 19:00:01:12 01:04:14:18 01:04:15:07 
*FROM CLIP NAME:  4K5/02.SYNC.01 
*SOURCE FILE: 19Y08M13
001187  19Y08M13                         A6    C        19:00:00:23 19:00:01:12 01:04:14:18 01:04:15:07 
*FROM CLIP NAME:  4K5/02.SYNC.01 
*SOURCE FILE: 19Y08M13
001188  19Y08M13                         A7    C        19:00:00:23 19:00:01:12 01:04:14:18 01:04:15:07 
*FROM CLIP NAME:  4K5/02.SYNC.01 
*SOURCE FILE: 19Y08M13
001189  19Y08M13                         A8    C        19:00:00:23 19:00:01:12 01:04:14:18 01:04:15:07 
*FROM CLIP NAME:  4K5/02.SYNC.01 
*SOURCE FILE: 19Y08M13
001190  19Y08M13                         A     C        19:00:02:08 19:00:03:01 01:04:15:07 01:04:16:00 
*FROM CLIP NAME:  4K5/02.SYNC.01 
*SOURCE FILE: 19Y08M13
001191  19Y08M13                         A2    C        19:00:02:08 19:00:03:01 01:04:15:07 01:04:16:00 
*FROM CLIP NAME:  4K5/02.SYNC.01 
*SOURCE FILE: 19Y08M13
001192  19Y08M13                         A3    C        19:00:02:08 19:00:03:01 01:04:15:07 01:04:16:00 
*FROM CLIP NAME:  4K5/02.SYNC.01 
*SOURCE FILE: 19Y08M13
001193  19Y08M13                         A4    C        19:00:02:08 19:00:03:01 01:04:15:07 01:04:16:00 
*FROM CLIP NAME:  4K5/02.SYNC.01 
*SOURCE FILE: 19Y08M13
001194  19Y08M13                         A5    C        19:00:02:08 19:00:03:01 01:04:15:07 01:04:16:00 
*FROM CLIP NAME:  4K5/02.SYNC.01 
*SOURCE FILE: 19Y08M13
001195  19Y08M13                         A6    C        19:00:02:08 19:00:03:01 01:04:15:07 01:04:16:00 
*FROM CLIP NAME:  4K5/02.SYNC.01 
*SOURCE FILE: 19Y08M13
001196  19Y08M13                         A7    C        19:00:02:08 19:00:03:01 01:04:15:07 01:04:16:00 
*FROM CLIP NAME:  4K5/02.SYNC.01 
*SOURCE FILE: 19Y08M13
001197  19Y08M13                         A8    C        19:00:02:08 19:00:03:01 01:04:15:07 01:04:16:00 
*FROM CLIP NAME:  4K5/02.SYNC.01 
*SOURCE FILE: 19Y08M13
001198  MSMMMOB.59                       V     C        19:50:49:21 19:50:50:24 01:04:15:07 01:04:16:10 
M2      MSMMMOB.59                                025.0 19:50:49:21 
*FROM CLIP NAME:  B021C003_190813_R481 
*SOURCE FILE: MSMMMOB.59
001199  19Y08M13                         A     C        19:00:03:12 19:00:04:03 01:04:16:00 01:04:16:16 
*FROM CLIP NAME:  4K5/02.SYNC.01 
*SOURCE FILE: 19Y08M13
001200  19Y08M13                         A2    C        19:00:03:12 19:00:04:03 01:04:16:00 01:04:16:16 
*FROM CLIP NAME:  4K5/02.SYNC.01 
*SOURCE FILE: 19Y08M13
001201  19Y08M13                         A3    C        19:00:03:12 19:00:04:03 01:04:16:00 01:04:16:16 
*FROM CLIP NAME:  4K5/02.SYNC.01 
*SOURCE FILE: 19Y08M13
001202  19Y08M13                         A4    C        19:00:03:12 19:00:04:03 01:04:16:00 01:04:16:16 
*FROM CLIP NAME:  4K5/02.SYNC.01 
*SOURCE FILE: 19Y08M13
001203  19Y08M13                         A5    C        19:00:03:12 19:00:04:03 01:04:16:00 01:04:16:16 
*FROM CLIP NAME:  4K5/02.SYNC.01 
*SOURCE FILE: 19Y08M13
001204  19Y08M13                         A6    C        19:00:03:12 19:00:04:03 01:04:16:00 01:04:16:16 
*FROM CLIP NAME:  4K5/02.SYNC.01 
*SOURCE FILE: 19Y08M13
001205  19Y08M13                         A7    C        19:00:03:12 19:00:04:03 01:04:16:00 01:04:16:16 
*FROM CLIP NAME:  4K5/02.SYNC.01 
*SOURCE FILE: 19Y08M13
001206  19Y08M13                         A8    C        19:00:03:12 19:00:04:03 01:04:16:00 01:04:16:16 
*FROM CLIP NAME:  4K5/02.SYNC.01 
*SOURCE FILE: 19Y08M13
001207  MSMMMOB.83                       V     C        18:50:16:00 18:50:17:09 01:04:16:10 01:04:17:19 
M2      MSMMMOB.83                                025.0 18:50:16:00 
*FROM CLIP NAME:  A074C005_190813_R32C 
*SOURCE FILE: MSMMMOB.83
001208  19Y08M13                         A     C        19:00:04:03 19:00:04:03 01:04:16:16 01:04:16:16 
001208  19Y08M13                         A     D    002 19:03:31:24 19:03:32:01 01:04:16:16 01:04:16:18 
*FROM CLIP NAME:  4K5/02.SYNC.01 
*TO CLIP NAME:  4K5/03.SYNC.01 
*SOURCE FILE: 19Y08M13
001209  19Y08M13                         A2    C        19:00:04:03 19:00:04:03 01:04:16:16 01:04:16:16 
001209  19Y08M13                         A2    D    002 19:03:31:24 19:03:32:01 01:04:16:16 01:04:16:18 
*FROM CLIP NAME:  4K5/02.SYNC.01 
*TO CLIP NAME:  4K5/03.SYNC.01 
*SOURCE FILE: 19Y08M13
001210  19Y08M13                         A3    C        19:00:04:03 19:00:04:03 01:04:16:16 01:04:16:16 
001210  19Y08M13                         A3    D    002 19:03:31:24 19:03:32:01 01:04:16:16 01:04:16:18 
*FROM CLIP NAME:  4K5/02.SYNC.01 
*TO CLIP NAME:  4K5/03.SYNC.01 
*SOURCE FILE: 19Y08M13
001211  19Y08M13                         A4    C        19:00:04:03 19:00:04:03 01:04:16:16 01:04:16:16 
001211  19Y08M13                         A4    D    002 19:03:31:24 19:03:32:01 01:04:16:16 01:04:16:18 
*FROM CLIP NAME:  4K5/02.SYNC.01 
*TO CLIP NAME:  4K5/03.SYNC.01 
*SOURCE FILE: 19Y08M13
001212  19Y08M13                         A5    C        19:00:04:03 19:00:04:03 01:04:16:16 01:04:16:16 
001212  19Y08M13                         A5    D    002 19:03:31:24 19:03:32:01 01:04:16:16 01:04:16:18 
*FROM CLIP NAME:  4K5/02.SYNC.01 
*TO CLIP NAME:  4K5/03.SYNC.01 
*SOURCE FILE: 19Y08M13
001213  19Y08M13                         A6    C        19:00:04:03 19:00:04:03 01:04:16:16 01:04:16:16 
001213  19Y08M13                         A6    D    002 19:03:31:24 19:03:32:01 01:04:16:16 01:04:16:18 
*FROM CLIP NAME:  4K5/02.SYNC.01 
*TO CLIP NAME:  4K5/03.SYNC.01 
*SOURCE FILE: 19Y08M13
001214  19Y08M13                         A7    C        19:00:04:03 19:00:04:03 01:04:16:16 01:04:16:16 
001214  19Y08M13                         A7    D    002 19:03:31:24 19:03:32:01 01:04:16:16 01:04:16:18 
*FROM CLIP NAME:  4K5/02.SYNC.01 
*TO CLIP NAME:  4K5/03.SYNC.01 
*SOURCE FILE: 19Y08M13
001215  19Y08M13                         A8    C        19:00:04:03 19:00:04:03 01:04:16:16 01:04:16:16 
001215  19Y08M13                         A8    D    002 19:03:31:24 19:03:32:01 01:04:16:16 01:04:16:18 
*FROM CLIP NAME:  4K5/02.SYNC.01 
*TO CLIP NAME:  4K5/03.SYNC.01 
*SOURCE FILE: 19Y08M13
001216  19Y08M13                         A     C        19:03:32:01 19:03:38:05 01:04:16:18 01:04:22:22 
*FROM CLIP NAME:  4K5/03.SYNC.01 
*SOURCE FILE: 19Y08M13
001217  19Y08M13                         A2    C        19:03:32:01 19:03:38:05 01:04:16:18 01:04:22:22 
*FROM CLIP NAME:  4K5/03.SYNC.01 
*SOURCE FILE: 19Y08M13
001218  19Y08M13                         A3    C        19:03:32:01 19:03:38:05 01:04:16:18 01:04:22:22 
*FROM CLIP NAME:  4K5/03.SYNC.01 
*SOURCE FILE: 19Y08M13
001219  19Y08M13                         A4    C        19:03:32:01 19:03:38:05 01:04:16:18 01:04:22:22 
*FROM CLIP NAME:  4K5/03.SYNC.01 
*SOURCE FILE: 19Y08M13
001220  19Y08M13                         A5    C        19:03:32:01 19:03:38:05 01:04:16:18 01:04:22:22 
*FROM CLIP NAME:  4K5/03.SYNC.01 
*SOURCE FILE: 19Y08M13
001221  19Y08M13                         A6    C        19:03:32:01 19:03:38:05 01:04:16:18 01:04:22:22 
*FROM CLIP NAME:  4K5/03.SYNC.01 
*SOURCE FILE: 19Y08M13
001222  19Y08M13                         A7    C        19:03:32:01 19:03:38:05 01:04:16:18 01:04:22:22 
*FROM CLIP NAME:  4K5/03.SYNC.01 
*SOURCE FILE: 19Y08M13
001223  19Y08M13                         A8    C        19:03:32:01 19:03:38:05 01:04:16:18 01:04:22:22 
*FROM CLIP NAME:  4K5/03.SYNC.01 
*SOURCE FILE: 19Y08M13
001224  MSMMMOB.96                       V     C        19:03:33:03 19:03:37:01 01:04:17:19 01:04:21:17 
M2      MSMMMOB.96                                025.0 19:03:33:03 
*FROM CLIP NAME:  A074C008_190813_R32C 
*SOURCE FILE: MSMMMOB.96
001225  MSMMMOB.59                       V     C        19:50:56:15 19:50:57:23 01:04:21:17 01:04:23:00 
M2      MSMMMOB.59                                025.0 19:50:56:15 
*FROM CLIP NAME:  B021C003_190813_R481 
*SOURCE FILE: MSMMMOB.59
001226  19Y08M13                         A     C        19:50:57:19 19:50:58:20 01:04:22:22 01:04:23:23 
*FROM CLIP NAME:  4K6/02.SYNC.01 
*SOURCE FILE: 19Y08M13
001227  19Y08M13                         A2    C        19:50:57:19 19:50:58:20 01:04:22:22 01:04:23:23 
*FROM CLIP NAME:  4K6/02.SYNC.01 
*SOURCE FILE: 19Y08M13
001228  19Y08M13                         A3    C        19:50:57:19 19:50:58:20 01:04:22:22 01:04:23:23 
*FROM CLIP NAME:  4K6/02.SYNC.01 
*SOURCE FILE: 19Y08M13
001229  19Y08M13                         A4    C        19:50:57:19 19:50:58:20 01:04:22:22 01:04:23:23 
*FROM CLIP NAME:  4K6/02.SYNC.01 
*SOURCE FILE: 19Y08M13
001230  19Y08M13                         A5    C        19:50:57:19 19:50:58:20 01:04:22:22 01:04:23:23 
*FROM CLIP NAME:  4K6/02.SYNC.01 
*SOURCE FILE: 19Y08M13
001231  19Y08M13                         A6    C        19:50:57:19 19:50:58:20 01:04:22:22 01:04:23:23 
*FROM CLIP NAME:  4K6/02.SYNC.01 
*SOURCE FILE: 19Y08M13
001232  19Y08M13                         A7    C        19:50:57:19 19:50:58:20 01:04:22:22 01:04:23:23 
*FROM CLIP NAME:  4K6/02.SYNC.01 
*SOURCE FILE: 19Y08M13
001233  19Y08M13                         A8    C        19:50:57:19 19:50:58:20 01:04:22:22 01:04:23:23 
*FROM CLIP NAME:  4K6/02.SYNC.01 
*SOURCE FILE: 19Y08M13
001234  MSMMMOB.83                       V     C        18:50:19:12 18:50:20:19 01:04:23:00 01:04:24:07 
M2      MSMMMOB.83                                025.0 18:50:19:12 
*FROM CLIP NAME:  A074C005_190813_R32C 
*SOURCE FILE: MSMMMOB.83
001235  19Y08M13                         A     C        19:50:58:20 19:50:58:20 01:04:23:23 01:04:23:23 
001235  19Y08M13                         A     D    002 18:39:46:12 18:39:46:14 01:04:23:23 01:04:24:00 
*FROM CLIP NAME:  4K6/02.SYNC.01 
*TO CLIP NAME:  4K3/01.SYNC.01 
*SOURCE FILE: 19Y08M13
001236  19Y08M13                         A2    C        19:50:58:20 19:50:58:20 01:04:23:23 01:04:23:23 
001236  19Y08M13                         A2    D    002 18:39:46:12 18:39:46:14 01:04:23:23 01:04:24:00 
*FROM CLIP NAME:  4K6/02.SYNC.01 
*TO CLIP NAME:  4K3/01.SYNC.01 
*SOURCE FILE: 19Y08M13
001237  19Y08M13                         A3    C        19:50:58:20 19:50:58:20 01:04:23:23 01:04:23:23 
001237  19Y08M13                         A3    D    002 18:39:46:12 18:39:46:14 01:04:23:23 01:04:24:00 
*FROM CLIP NAME:  4K6/02.SYNC.01 
*TO CLIP NAME:  4K3/01.SYNC.01 
*SOURCE FILE: 19Y08M13
001238  19Y08M13                         A4    C        19:50:58:20 19:50:58:20 01:04:23:23 01:04:23:23 
001238  19Y08M13                         A4    D    002 18:39:46:12 18:39:46:14 01:04:23:23 01:04:24:00 
*FROM CLIP NAME:  4K6/02.SYNC.01 
*TO CLIP NAME:  4K3/01.SYNC.01 
*SOURCE FILE: 19Y08M13
001239  19Y08M13                         A5    C        19:50:58:20 19:50:58:20 01:04:23:23 01:04:23:23 
001239  19Y08M13                         A5    D    002 18:39:46:12 18:39:46:14 01:04:23:23 01:04:24:00 
*FROM CLIP NAME:  4K6/02.SYNC.01 
*TO CLIP NAME:  4K3/01.SYNC.01 
*SOURCE FILE: 19Y08M13
001240  19Y08M13                         A6    C        19:50:58:20 19:50:58:20 01:04:23:23 01:04:23:23 
001240  19Y08M13                         A6    D    002 18:39:46:12 18:39:46:14 01:04:23:23 01:04:24:00 
*FROM CLIP NAME:  4K6/02.SYNC.01 
*TO CLIP NAME:  4K3/01.SYNC.01 
*SOURCE FILE: 19Y08M13
001241  19Y08M13                         A7    C        19:50:58:20 19:50:58:20 01:04:23:23 01:04:23:23 
001241  19Y08M13                         A7    D    002 18:39:46:12 18:39:46:14 01:04:23:23 01:04:24:00 
*FROM CLIP NAME:  4K6/02.SYNC.01 
*TO CLIP NAME:  4K3/01.SYNC.01 
*SOURCE FILE: 19Y08M13
001242  19Y08M13                         A8    C        19:50:58:20 19:50:58:20 01:04:23:23 01:04:23:23 
001242  19Y08M13                         A8    D    002 18:39:46:12 18:39:46:14 01:04:23:23 01:04:24:00 
*FROM CLIP NAME:  4K6/02.SYNC.01 
*TO CLIP NAME:  4K3/01.SYNC.01 
*A8 VOL =  +8.0 DB  PAN L100 
*SOURCE FILE: 19Y08M13
001243  19Y08M13                         A     C        18:39:46:14 18:39:50:08 01:04:24:00 01:04:27:19 
*FROM CLIP NAME:  4K3/01.SYNC.01 
*SOURCE FILE: 19Y08M13
001244  19Y08M13                         A2    C        18:39:46:14 18:39:50:08 01:04:24:00 01:04:27:19 
*FROM CLIP NAME:  4K3/01.SYNC.01 
*SOURCE FILE: 19Y08M13
001245  19Y08M13                         A3    C        18:39:46:14 18:39:50:08 01:04:24:00 01:04:27:19 
*FROM CLIP NAME:  4K3/01.SYNC.01 
*SOURCE FILE: 19Y08M13
001246  19Y08M13                         A4    C        18:39:46:14 18:39:50:08 01:04:24:00 01:04:27:19 
*FROM CLIP NAME:  4K3/01.SYNC.01 
*SOURCE FILE: 19Y08M13
001247  19Y08M13                         A5    C        18:39:46:14 18:39:50:08 01:04:24:00 01:04:27:19 
*FROM CLIP NAME:  4K3/01.SYNC.01 
*SOURCE FILE: 19Y08M13
001248  19Y08M13                         A6    C        18:39:46:14 18:39:50:08 01:04:24:00 01:04:27:19 
*FROM CLIP NAME:  4K3/01.SYNC.01 
*SOURCE FILE: 19Y08M13
001249  19Y08M13                         A7    C        18:39:46:14 18:39:50:08 01:04:24:00 01:04:27:19 
*FROM CLIP NAME:  4K3/01.SYNC.01 
*SOURCE FILE: 19Y08M13
001250  19Y08M13                         A8    C        18:39:46:14 18:39:50:08 01:04:24:00 01:04:27:19 
*FROM CLIP NAME:  4K3/01.SYNC.01 
*A8 VOL =  +8.0 DB  PAN L100 
*SOURCE FILE: 19Y08M13
001251  MSMMMOB.32                       V     C        18:39:46:22 18:39:54:03 01:04:24:07 01:04:31:13 
M2      MSMMMOB.32                                025.0 18:39:46:22 
*FROM CLIP NAME:  B021C001_190813_R481 
*SOURCE FILE: MSMMMOB.32
001252  19Y08M13                         A     C        19:51:01:23 19:51:04:01 01:04:27:19 01:04:29:22 
*FROM CLIP NAME:  4K6/02.SYNC.01 
*SOURCE FILE: 19Y08M13
001253  19Y08M13                         A2    C        19:51:01:23 19:51:04:01 01:04:27:19 01:04:29:22 
*FROM CLIP NAME:  4K6/02.SYNC.01 
*SOURCE FILE: 19Y08M13
001254  19Y08M13                         A3    C        19:51:01:23 19:51:04:01 01:04:27:19 01:04:29:22 
*FROM CLIP NAME:  4K6/02.SYNC.01 
*SOURCE FILE: 19Y08M13
001255  19Y08M13                         A4    C        19:51:01:23 19:51:04:01 01:04:27:19 01:04:29:22 
*FROM CLIP NAME:  4K6/02.SYNC.01 
*SOURCE FILE: 19Y08M13
001256  19Y08M13                         A5    C        19:51:01:23 19:51:04:01 01:04:27:19 01:04:29:22 
*FROM CLIP NAME:  4K6/02.SYNC.01 
*SOURCE FILE: 19Y08M13
001257  19Y08M13                         A6    C        19:51:01:23 19:51:04:01 01:04:27:19 01:04:29:22 
*FROM CLIP NAME:  4K6/02.SYNC.01 
*SOURCE FILE: 19Y08M13
001258  19Y08M13                         A7    C        19:51:01:23 19:51:04:01 01:04:27:19 01:04:29:22 
*FROM CLIP NAME:  4K6/02.SYNC.01 
*SOURCE FILE: 19Y08M13
001259  19Y08M13                         A8    C        19:51:01:23 19:51:04:01 01:04:27:19 01:04:29:22 
*FROM CLIP NAME:  4K6/02.SYNC.01 
*SOURCE FILE: 19Y08M13
001260  19Y08M13                         A     C        20:01:58:22 20:01:59:13 01:04:29:22 01:04:30:13 
*FROM CLIP NAME:  4K7/02.SYNC.01 
*SOURCE FILE: 19Y08M13
001261  19Y08M13                         A2    C        20:01:58:22 20:01:59:13 01:04:29:22 01:04:30:13 
*FROM CLIP NAME:  4K7/02.SYNC.01 
*SOURCE FILE: 19Y08M13
001262  19Y08M13                         A3    C        20:01:58:22 20:01:59:13 01:04:29:22 01:04:30:13 
*FROM CLIP NAME:  4K7/02.SYNC.01 
*SOURCE FILE: 19Y08M13
001263  19Y08M13                         A4    C        20:01:58:22 20:01:59:13 01:04:29:22 01:04:30:13 
*FROM CLIP NAME:  4K7/02.SYNC.01 
*SOURCE FILE: 19Y08M13
001264  19Y08M13                         A5    C        20:01:58:22 20:01:59:13 01:04:29:22 01:04:30:13 
*FROM CLIP NAME:  4K7/02.SYNC.01 
*SOURCE FILE: 19Y08M13
001265  19Y08M13                         A6    C        20:01:58:22 20:01:59:13 01:04:29:22 01:04:30:13 
*FROM CLIP NAME:  4K7/02.SYNC.01 
*SOURCE FILE: 19Y08M13
001266  19Y08M13                         A7    C        20:01:58:22 20:01:59:13 01:04:29:22 01:04:30:13 
*FROM CLIP NAME:  4K7/02.SYNC.01 
*SOURCE FILE: 19Y08M13
001267  19Y08M13                         A8    C        20:01:58:22 20:01:59:13 01:04:29:22 01:04:30:13 
*FROM CLIP NAME:  4K7/02.SYNC.01 
*SOURCE FILE: 19Y08M13
001268  19Y08M13                         A     C        19:58:52:09 19:58:53:08 01:04:30:13 01:04:31:12 
*FROM CLIP NAME:  4K7/01.SYNC.01 
*SOURCE FILE: 19Y08M13
001269  19Y08M13                         A2    C        19:58:52:09 19:58:53:08 01:04:30:13 01:04:31:12 
*FROM CLIP NAME:  4K7/01.SYNC.01 
*SOURCE FILE: 19Y08M13
001270  19Y08M13                         A3    C        19:58:52:09 19:58:53:08 01:04:30:13 01:04:31:12 
*FROM CLIP NAME:  4K7/01.SYNC.01 
*SOURCE FILE: 19Y08M13
001271  19Y08M13                         A4    C        19:58:52:09 19:58:53:08 01:04:30:13 01:04:31:12 
*FROM CLIP NAME:  4K7/01.SYNC.01 
*SOURCE FILE: 19Y08M13
001272  19Y08M13                         A5    C        19:58:52:09 19:58:53:08 01:04:30:13 01:04:31:12 
*FROM CLIP NAME:  4K7/01.SYNC.01 
*SOURCE FILE: 19Y08M13
001273  19Y08M13                         A6    C        19:58:52:09 19:58:53:08 01:04:30:13 01:04:31:12 
*FROM CLIP NAME:  4K7/01.SYNC.01 
*SOURCE FILE: 19Y08M13
001274  19Y08M13                         A7    C        19:58:52:09 19:58:53:08 01:04:30:13 01:04:31:12 
*FROM CLIP NAME:  4K7/01.SYNC.01 
*SOURCE FILE: 19Y08M13
001275  19Y08M13                         A8    C        19:58:52:09 19:58:53:08 01:04:30:13 01:04:31:12 
*FROM CLIP NAME:  4K7/01.SYNC.01 
*SOURCE FILE: 19Y08M13
001276  19Y08M13                         A     C        19:51:06:07 19:51:11:03 01:04:31:12 01:04:36:08 
*FROM CLIP NAME:  4K6/02.SYNC.01 
*SOURCE FILE: 19Y08M13
001277  19Y08M13                         A2    C        19:51:06:07 19:51:11:03 01:04:31:12 01:04:36:08 
*FROM CLIP NAME:  4K6/02.SYNC.01 
*SOURCE FILE: 19Y08M13
001278  19Y08M13                         A3    C        19:51:06:07 19:51:11:03 01:04:31:12 01:04:36:08 
*FROM CLIP NAME:  4K6/02.SYNC.01 
*SOURCE FILE: 19Y08M13
001279  19Y08M13                         A4    C        19:51:06:07 19:51:11:03 01:04:31:12 01:04:36:08 
*FROM CLIP NAME:  4K6/02.SYNC.01 
*SOURCE FILE: 19Y08M13
001280  19Y08M13                         A5    C        19:51:06:07 19:51:11:03 01:04:31:12 01:04:36:08 
*FROM CLIP NAME:  4K6/02.SYNC.01 
*SOURCE FILE: 19Y08M13
001281  19Y08M13                         A6    C        19:51:06:07 19:51:11:03 01:04:31:12 01:04:36:08 
*FROM CLIP NAME:  4K6/02.SYNC.01 
*SOURCE FILE: 19Y08M13
001282  19Y08M13                         A7    C        19:51:06:07 19:51:11:03 01:04:31:12 01:04:36:08 
*FROM CLIP NAME:  4K6/02.SYNC.01 
*SOURCE FILE: 19Y08M13
001283  19Y08M13                         A8    C        19:51:06:07 19:51:11:03 01:04:31:12 01:04:36:08 
*FROM CLIP NAME:  4K6/02.SYNC.01 
*SOURCE FILE: 19Y08M13
001284  MSMMMOB.68                       V     C        19:51:06:09 19:51:10:17 01:04:31:13 01:04:35:21 
M2      MSMMMOB.68                                025.0 19:51:06:09 
*FROM CLIP NAME:  A074C010_190813_R32C 
*SOURCE FILE: MSMMMOB.68
001285  CAVENDISH_AB-C030704_LIFT_IT_UP. A13   C        01:00:25:02 01:00:33:03 01:04:31:23 01:04:39:24 
*FROM CLIP NAME:  CAVENDISH_AB-C030704_LIFT_IT_UP.MP3 
*A13 VOL = -20.2 DB  PAN R100 
*PATCH CAVENDISH_AB-C030704_LIFT_IT_UP.:  FROM SOURCE 1 TO RECORD 13 
*SOURCE FILE: CAVENDISH_AB-C030704_LIFT_IT_UP.MP3
001286  CAVENDISH_AB-C030704_LIFT_IT_UP. A14   C        01:00:25:02 01:00:33:03 01:04:31:23 01:04:39:24 
*FROM CLIP NAME:  CAVENDISH_AB-C030704_LIFT_IT_UP.MP3 
*A14 VOL = -20.2 DB  PAN L100 
*PATCH CAVENDISH_AB-C030704_LIFT_IT_UP.:  FROM SOURCE 2 TO RECORD 14 
*SOURCE FILE: CAVENDISH_AB-C030704_LIFT_IT_UP.MP3
001287  MSMMMOB.62                       V     C        18:31:01:14 18:31:05:23 01:04:35:21 01:04:40:05 
M2      MSMMMOB.62                                025.0 18:31:01:14 
*FROM CLIP NAME:  A073C009_190813_R32C 
*SOURCE FILE: MSMMMOB.62
001288  19Y08M13                         A     C        18:31:02:00 18:31:04:10 01:04:36:08 01:04:38:18 
*FROM CLIP NAME:  4K2/02.SYNC.01 
*SOURCE FILE: 19Y08M13
001289  19Y08M13                         A2    C        18:31:02:00 18:31:04:10 01:04:36:08 01:04:38:18 
*FROM CLIP NAME:  4K2/02.SYNC.01 
*SOURCE FILE: 19Y08M13
001290  19Y08M13                         A3    C        18:31:02:00 18:31:04:10 01:04:36:08 01:04:38:18 
*FROM CLIP NAME:  4K2/02.SYNC.01 
*SOURCE FILE: 19Y08M13
001291  19Y08M13                         A4    C        18:31:02:00 18:31:04:10 01:04:36:08 01:04:38:18 
*FROM CLIP NAME:  4K2/02.SYNC.01 
*SOURCE FILE: 19Y08M13
001292  19Y08M13                         A5    C        18:31:02:00 18:31:04:10 01:04:36:08 01:04:38:18 
*FROM CLIP NAME:  4K2/02.SYNC.01 
*PATCH 19Y08M13:  FROM SOURCE 6 TO RECORD 5 
*SOURCE FILE: 19Y08M13
001293  19Y08M13                         A6    C        18:31:02:00 18:31:04:10 01:04:36:08 01:04:38:18 
*FROM CLIP NAME:  4K2/02.SYNC.01 
*PATCH 19Y08M13:  FROM SOURCE 7 TO RECORD 6 
*SOURCE FILE: 19Y08M13
001294  19Y08M13                         A7    C        18:31:02:00 18:31:04:10 01:04:36:08 01:04:38:18 
*FROM CLIP NAME:  4K2/02.SYNC.01 
*PATCH 19Y08M13:  FROM SOURCE 8 TO RECORD 7 
*SOURCE FILE: 19Y08M13
001295  CAVENDISH_AB-C030704_LIFT_IT_UP. A13   C        01:00:33:03 01:00:33:03 01:04:39:24 01:04:39:24 
001295  CAVENDISH_AB-C030704_LIFT_IT_UP. A13   D    025 01:00:33:03 01:00:34:03 01:04:39:24 01:04:40:24 
*FROM CLIP NAME:  CAVENDISH_AB-C030704_LIFT_IT_UP.MP3 
*TO CLIP NAME:  CAVENDISH_AB-C030704_LIFT_IT_UP.MP3 
*A13 VOL = -20.2 DB  PAN R100 
*A13 VOL = -14.3 DB  PAN R100 
*PATCH CAVENDISH_AB-C030704_LIFT_IT_UP.:  FROM SOURCE 1 TO RECORD 13 
*PATCH CAVENDISH_AB-C030704_LIFT_IT_UP.:  FROM SOURCE 1 TO RECORD 13 
*SOURCE FILE: CAVENDISH_AB-C030704_LIFT_IT_UP.MP3
001296  CAVENDISH_AB-C030704_LIFT_IT_UP. A14   C        01:00:33:03 01:00:33:03 01:04:39:24 01:04:39:24 
001296  CAVENDISH_AB-C030704_LIFT_IT_UP. A14   D    025 01:00:33:03 01:00:34:03 01:04:39:24 01:04:40:24 
*FROM CLIP NAME:  CAVENDISH_AB-C030704_LIFT_IT_UP.MP3 
*TO CLIP NAME:  CAVENDISH_AB-C030704_LIFT_IT_UP.MP3 
*A14 VOL = -20.2 DB  PAN L100 
*A14 VOL = -14.3 DB  PAN L100 
*PATCH CAVENDISH_AB-C030704_LIFT_IT_UP.:  FROM SOURCE 2 TO RECORD 14 
*PATCH CAVENDISH_AB-C030704_LIFT_IT_UP.:  FROM SOURCE 2 TO RECORD 14 
*SOURCE FILE: CAVENDISH_AB-C030704_LIFT_IT_UP.MP3
001297  MSMMMOB.39                       V     C        13:40:05:21 13:40:06:14 01:04:40:05 01:04:40:23 
M2      MSMMMOB.39                                025.0 13:40:05:21 
*FROM CLIP NAME:  A052C006_190808_R32C 
*SOURCE FILE: MSMMMOB.39
001298  19Y08M08                         A     C        13:40:05:21 13:40:06:20 01:04:40:05 01:04:41:04 
*FROM CLIP NAME:  5-6BK9/02.SYNC.01 
*PATCH 19Y08M08:  FROM SOURCE 9 TO RECORD 1 
*SOURCE FILE: 19Y08M08
001299  MSMMMOB.01                       V     C        13:32:53:21 13:32:54:10 01:04:40:23 01:04:41:12 
M2      MSMMMOB.01                                025.0 13:32:53:21 
*FROM CLIP NAME:  A052C005_190808_R32C 
*SOURCE FILE: MSMMMOB.01
001300  CAVENDISH_AB-C030704_LIFT_IT_UP. A13   C        01:00:34:03 01:00:43:24 01:04:40:24 01:04:50:20 
*FROM CLIP NAME:  CAVENDISH_AB-C030704_LIFT_IT_UP.MP3 
*A13 VOL = -14.3 DB  PAN R100 
*PATCH CAVENDISH_AB-C030704_LIFT_IT_UP.:  FROM SOURCE 1 TO RECORD 13 
*SOURCE FILE: CAVENDISH_AB-C030704_LIFT_IT_UP.MP3
001301  CAVENDISH_AB-C030704_LIFT_IT_UP. A14   C        01:00:34:03 01:00:43:24 01:04:40:24 01:04:50:20 
*FROM CLIP NAME:  CAVENDISH_AB-C030704_LIFT_IT_UP.MP3 
*A14 VOL = -14.3 DB  PAN L100 
*PATCH CAVENDISH_AB-C030704_LIFT_IT_UP.:  FROM SOURCE 2 TO RECORD 14 
*SOURCE FILE: CAVENDISH_AB-C030704_LIFT_IT_UP.MP3
001302  MSMMMOB.39                       V     C        13:40:20:23 13:40:21:15 01:04:41:12 01:04:42:04 
M2      MSMMMOB.39                                025.0 13:40:20:23 
*FROM CLIP NAME:  A052C006_190808_R32C 
*SOURCE FILE: MSMMMOB.39
001303  MSMMMOB.39                       V     C        13:40:29:18 13:40:30:12 01:04:42:04 01:04:42:23 
M2      MSMMMOB.39                                025.0 13:40:29:18 
*FROM CLIP NAME:  A052C006_190808_R32C 
*SOURCE FILE: MSMMMOB.39
001304  MSMMMOB.65                       V     C        11:13:20:21 11:13:22:13 01:04:42:23 01:04:44:15 
M2      MSMMMOB.65                                025.0 11:13:20:21 
*FROM CLIP NAME:  B004C005_190808_R16N 
*SOURCE FILE: MSMMMOB.65
001305  MSMMMOB.39                       V     C        13:40:23:24 13:40:24:20 01:04:44:15 01:04:45:11 
M2      MSMMMOB.39                                025.0 13:40:23:24 
*FROM CLIP NAME:  A052C006_190808_R32C 
*SOURCE FILE: MSMMMOB.39
001306  MSMMMOB.50                       V     C        13:54:16:19 13:54:17:15 01:04:45:11 01:04:46:07 
M2      MSMMMOB.50                                025.0 13:54:16:19 
*FROM CLIP NAME:  A053C001_190808_R32C 
*SOURCE FILE: MSMMMOB.50
001307  MSMMMOB.74                       V     C        12:52:08:24 12:52:10:03 01:04:46:07 01:04:47:11 
M2      MSMMMOB.74                                025.0 12:52:08:24 
*FROM CLIP NAME:  B007C002_190808_R16N 
*SOURCE FILE: MSMMMOB.74
001308  MSMMMOB.51                       V     C        11:50:20:03 11:50:21:13 01:04:47:11 01:04:48:21 
M2      MSMMMOB.51                                025.0 11:50:20:03 
*FROM CLIP NAME:  B005C002_190808_R16N 
*SOURCE FILE: MSMMMOB.51
001309  MSMMMOB.39                       V     C        13:40:43:02 13:40:44:11 01:04:48:21 01:04:50:05 
M2      MSMMMOB.39                                025.0 13:40:43:02 
*FROM CLIP NAME:  A052C006_190808_R32C 
*SOURCE FILE: MSMMMOB.39
001310  BL                               A     C        00:00:00:00 00:00:00:00 01:04:49:22 01:04:49:22 
001310  19Y08M08                         A     D    038 12:52:22:22 12:52:24:10 01:04:49:22 01:04:51:10 
*TO CLIP NAME:  5-6BK7/02.SYNC.01 
*SOURCE FILE: (NULL)
001311  BL                               A2    C        00:00:00:00 00:00:00:00 01:04:49:22 01:04:49:22 
001311  19Y08M08                         A2    D    038 12:52:22:22 12:52:24:10 01:04:49:22 01:04:51:10 
*TO CLIP NAME:  5-6BK7/02.SYNC.01 
*SOURCE FILE: (NULL)
001312  BL                               A3    C        00:00:00:00 00:00:00:00 01:04:49:22 01:04:49:22 
001312  19Y08M08                         A3    D    038 12:52:22:22 12:52:24:10 01:04:49:22 01:04:51:10 
*TO CLIP NAME:  5-6BK7/02.SYNC.01 
*SOURCE FILE: (NULL)
001313  BL                               A4    C        00:00:00:00 00:00:00:00 01:04:49:22 01:04:49:22 
001313  19Y08M08                         A4    D    038 12:52:22:22 12:52:24:10 01:04:49:22 01:04:51:10 
*TO CLIP NAME:  5-6BK7/02.SYNC.01 
*SOURCE FILE: (NULL)
001314  BL                               A5    C        00:00:00:00 00:00:00:00 01:04:49:22 01:04:49:22 
001314  19Y08M08                         A5    D    038 12:52:22:22 12:52:24:10 01:04:49:22 01:04:51:10 
*TO CLIP NAME:  5-6BK7/02.SYNC.01 
*SOURCE FILE: (NULL)
001315  BL                               A6    C        00:00:00:00 00:00:00:00 01:04:49:22 01:04:49:22 
001315  19Y08M08                         A6    D    038 12:52:22:22 12:52:24:10 01:04:49:22 01:04:51:10 
*TO CLIP NAME:  5-6BK7/02.SYNC.01 
*SOURCE FILE: (NULL)
001316  BL                               A7    C        00:00:00:00 00:00:00:00 01:04:49:22 01:04:49:22 
001316  19Y08M08                         A7    D    038 12:52:22:22 12:52:24:10 01:04:49:22 01:04:51:10 
*TO CLIP NAME:  5-6BK7/02.SYNC.01 
*SOURCE FILE: (NULL)
001317  BL                               A8    C        00:00:00:00 00:00:00:00 01:04:49:22 01:04:49:22 
001317  19Y08M08                         A8    D    038 12:52:22:22 12:52:24:10 01:04:49:22 01:04:51:10 
*TO CLIP NAME:  5-6BK7/02.SYNC.01 
*SOURCE FILE: (NULL)
001318  BL                               A9    C        00:00:00:00 00:00:00:00 01:04:49:22 01:04:49:22 
001318  19Y08M08                         A9    D    038 12:52:22:22 12:52:24:10 01:04:49:22 01:04:51:10 
*TO CLIP NAME:  5-6BK7/02.SYNC.01 
*SOURCE FILE: (NULL)
001319  BL                               A10   C        00:00:00:00 00:00:00:00 01:04:49:22 01:04:49:22 
001319  19Y08M08                         A10   D    038 12:52:22:22 12:52:24:10 01:04:49:22 01:04:51:10 
*TO CLIP NAME:  5-6BK7/02.SYNC.01 
*PATCH 19Y08M08:  FROM SOURCE 1 TO RECORD 10 
*SOURCE FILE: (NULL)
001320  MSMMMOB.02                       V     C        12:27:29:08 12:27:30:03 01:04:50:05 01:04:51:00 
M2      MSMMMOB.02                                025.0 12:27:29:08 
*FROM CLIP NAME:  B006C001_190808_R16N 
*SOURCE FILE: MSMMMOB.02
001321  CAVENDISH_AB-C030704_LIFT_IT_UP. A13   C        01:00:43:24 01:00:43:24 01:04:50:20 01:04:50:20 
001321  CAVENDISH_AB-C030704_LIFT_IT_UP. A13   D    025 01:00:43:24 01:00:44:24 01:04:50:20 01:04:51:20 
*FROM CLIP NAME:  CAVENDISH_AB-C030704_LIFT_IT_UP.MP3 
*TO CLIP NAME:  CAVENDISH_AB-C030704_LIFT_IT_UP.MP3 
*A13 VOL = -14.3 DB  PAN R100 
*A13 VOL = -24.4 DB  PAN R100 
*PATCH CAVENDISH_AB-C030704_LIFT_IT_UP.:  FROM SOURCE 1 TO RECORD 13 
*PATCH CAVENDISH_AB-C030704_LIFT_IT_UP.:  FROM SOURCE 1 TO RECORD 13 
*SOURCE FILE: CAVENDISH_AB-C030704_LIFT_IT_UP.MP3
001322  CAVENDISH_AB-C030704_LIFT_IT_UP. A14   C        01:00:43:24 01:00:43:24 01:04:50:20 01:04:50:20 
001322  CAVENDISH_AB-C030704_LIFT_IT_UP. A14   D    025 01:00:43:24 01:00:44:24 01:04:50:20 01:04:51:20 
*FROM CLIP NAME:  CAVENDISH_AB-C030704_LIFT_IT_UP.MP3 
*TO CLIP NAME:  CAVENDISH_AB-C030704_LIFT_IT_UP.MP3 
*A14 VOL = -14.3 DB  PAN L100 
*A14 VOL = -24.4 DB  PAN L100 
*PATCH CAVENDISH_AB-C030704_LIFT_IT_UP.:  FROM SOURCE 2 TO RECORD 14 
*PATCH CAVENDISH_AB-C030704_LIFT_IT_UP.:  FROM SOURCE 2 TO RECORD 14 
*SOURCE FILE: CAVENDISH_AB-C030704_LIFT_IT_UP.MP3
001323  MSMMMOB.39                       V     C        13:40:49:18 13:40:51:02 01:04:51:00 01:04:52:09 
M2      MSMMMOB.39                                025.0 13:40:49:18 
*FROM CLIP NAME:  A052C006_190808_R32C 
*SOURCE FILE: MSMMMOB.39
001324  19Y08M08                         A     C        12:52:24:10 12:52:26:06 01:04:51:10 01:04:53:06 
*FROM CLIP NAME:  5-6BK7/02.SYNC.01 
*SOURCE FILE: 19Y08M08
001325  19Y08M08                         A2    C        12:52:24:10 12:52:26:06 01:04:51:10 01:04:53:06 
*FROM CLIP NAME:  5-6BK7/02.SYNC.01 
*SOURCE FILE: 19Y08M08
001326  19Y08M08                         A3    C        12:52:24:10 12:52:26:06 01:04:51:10 01:04:53:06 
*FROM CLIP NAME:  5-6BK7/02.SYNC.01 
*SOURCE FILE: 19Y08M08
001327  19Y08M08                         A4    C        12:52:24:10 12:52:26:06 01:04:51:10 01:04:53:06 
*FROM CLIP NAME:  5-6BK7/02.SYNC.01 
*SOURCE FILE: 19Y08M08
001328  19Y08M08                         A5    C        12:52:24:10 12:52:26:06 01:04:51:10 01:04:53:06 
*FROM CLIP NAME:  5-6BK7/02.SYNC.01 
*SOURCE FILE: 19Y08M08
001329  19Y08M08                         A6    C        12:52:24:10 12:52:26:06 01:04:51:10 01:04:53:06 
*FROM CLIP NAME:  5-6BK7/02.SYNC.01 
*SOURCE FILE: 19Y08M08
001330  19Y08M08                         A7    C        12:52:24:10 12:52:26:06 01:04:51:10 01:04:53:06 
*FROM CLIP NAME:  5-6BK7/02.SYNC.01 
*SOURCE FILE: 19Y08M08
001331  19Y08M08                         A8    C        12:52:24:10 12:52:26:06 01:04:51:10 01:04:53:06 
*FROM CLIP NAME:  5-6BK7/02.SYNC.01 
*SOURCE FILE: 19Y08M08
001332  19Y08M08                         A9    C        12:52:24:10 12:52:26:06 01:04:51:10 01:04:53:06 
*FROM CLIP NAME:  5-6BK7/02.SYNC.01 
*SOURCE FILE: 19Y08M08
001333  19Y08M08                         A10   C        12:52:24:10 12:52:26:06 01:04:51:10 01:04:53:06 
*FROM CLIP NAME:  5-6BK7/02.SYNC.01 
*PATCH 19Y08M08:  FROM SOURCE 1 TO RECORD 10 
*SOURCE FILE: 19Y08M08
001334  CAVENDISH_AB-C030704_LIFT_IT_UP. A13   C        01:00:44:24 01:00:53:20 01:04:51:20 01:05:00:16 
*FROM CLIP NAME:  CAVENDISH_AB-C030704_LIFT_IT_UP.MP3 
*A13 VOL = -24.4 DB  PAN R100 
*PATCH CAVENDISH_AB-C030704_LIFT_IT_UP.:  FROM SOURCE 1 TO RECORD 13 
*SOURCE FILE: CAVENDISH_AB-C030704_LIFT_IT_UP.MP3
001335  CAVENDISH_AB-C030704_LIFT_IT_UP. A14   C        01:00:44:24 01:00:53:20 01:04:51:20 01:05:00:16 
*FROM CLIP NAME:  CAVENDISH_AB-C030704_LIFT_IT_UP.MP3 
*A14 VOL = -24.4 DB  PAN L100 
*PATCH CAVENDISH_AB-C030704_LIFT_IT_UP.:  FROM SOURCE 2 TO RECORD 14 
*SOURCE FILE: CAVENDISH_AB-C030704_LIFT_IT_UP.MP3
001336  MSMMMOB.74                       V     C        12:52:25:09 12:52:26:16 01:04:52:09 01:04:53:16 
M2      MSMMMOB.74                                025.0 12:52:25:09 
*FROM CLIP NAME:  B007C002_190808_R16N 
*SOURCE FILE: MSMMMOB.74
001337  19Y08M08                         A     C        13:40:50:22 13:40:53:14 01:04:53:06 01:04:55:23 
*FROM CLIP NAME:  5-6BK9/02.SYNC.01 
*SOURCE FILE: 19Y08M08
001338  19Y08M08                         A2    C        13:40:50:22 13:40:53:14 01:04:53:06 01:04:55:23 
*FROM CLIP NAME:  5-6BK9/02.SYNC.01 
*SOURCE FILE: 19Y08M08
001339  19Y08M08                         A3    C        13:40:50:22 13:40:53:14 01:04:53:06 01:04:55:23 
*FROM CLIP NAME:  5-6BK9/02.SYNC.01 
*SOURCE FILE: 19Y08M08
001340  19Y08M08                         A4    C        13:40:50:22 13:40:53:14 01:04:53:06 01:04:55:23 
*FROM CLIP NAME:  5-6BK9/02.SYNC.01 
*SOURCE FILE: 19Y08M08
001341  19Y08M08                         A5    C        13:40:50:22 13:40:53:14 01:04:53:06 01:04:55:23 
*FROM CLIP NAME:  5-6BK9/02.SYNC.01 
*SOURCE FILE: 19Y08M08
001342  19Y08M08                         A6    C        13:40:50:22 13:40:53:14 01:04:53:06 01:04:55:23 
*FROM CLIP NAME:  5-6BK9/02.SYNC.01 
*SOURCE FILE: 19Y08M08
001343  19Y08M08                         A7    C        13:40:50:22 13:40:53:14 01:04:53:06 01:04:55:23 
*FROM CLIP NAME:  5-6BK9/02.SYNC.01 
*SOURCE FILE: 19Y08M08
001344  19Y08M08                         A8    C        13:40:50:22 13:40:53:14 01:04:53:06 01:04:55:23 
*FROM CLIP NAME:  5-6BK9/02.SYNC.01 
*SOURCE FILE: 19Y08M08
001345  19Y08M08                         A9    C        13:40:50:22 13:40:53:14 01:04:53:06 01:04:55:23 
*FROM CLIP NAME:  5-6BK9/02.SYNC.01 
*SOURCE FILE: 19Y08M08
001346  19Y08M08                         A10   C        13:40:50:22 13:40:53:14 01:04:53:06 01:04:55:23 
*FROM CLIP NAME:  5-6BK9/02.SYNC.01 
*PATCH 19Y08M08:  FROM SOURCE 1 TO RECORD 10 
*SOURCE FILE: 19Y08M08
001347  MSMMMOB.39                       V     C        13:40:51:07 13:40:52:10 01:04:53:16 01:04:54:19 
M2      MSMMMOB.39                                025.0 13:40:51:07 
*FROM CLIP NAME:  A052C006_190808_R32C 
*SOURCE FILE: MSMMMOB.39
001348  MSMMMOB.85                       V     C        14:07:49:05 14:07:54:11 01:04:54:19 01:05:00:00 
M2      MSMMMOB.85                                025.0 14:07:49:05 
*FROM CLIP NAME:  A053C003_190808_R32C 
*SOURCE FILE: MSMMMOB.85
001349  19Y08M08                         A     C        13:40:53:14 13:40:53:14 01:04:55:23 01:04:55:23 
001349  19Y08M08                         A     D    002 14:07:50:08 14:07:50:10 01:04:55:23 01:04:56:00 
*FROM CLIP NAME:  5-6BK9/02.SYNC.01 
*TO CLIP NAME:  5-6BK9/04 
*SOURCE FILE: 19Y08M08
001350  19Y08M08                         A2    C        13:40:53:14 13:40:53:14 01:04:55:23 01:04:55:23 
001350  19Y08M08                         A2    D    002 14:07:50:08 14:07:50:10 01:04:55:23 01:04:56:00 
*FROM CLIP NAME:  5-6BK9/02.SYNC.01 
*TO CLIP NAME:  5-6BK9/04 
*SOURCE FILE: 19Y08M08
001351  19Y08M08                         A3    C        13:40:53:14 13:40:53:14 01:04:55:23 01:04:55:23 
001351  19Y08M08                         A3    D    002 14:07:50:08 14:07:50:10 01:04:55:23 01:04:56:00 
*FROM CLIP NAME:  5-6BK9/02.SYNC.01 
*TO CLIP NAME:  5-6BK9/04 
*SOURCE FILE: 19Y08M08
001352  19Y08M08                         A4    C        13:40:53:14 13:40:53:14 01:04:55:23 01:04:55:23 
001352  19Y08M08                         A4    D    002 14:07:50:08 14:07:50:10 01:04:55:23 01:04:56:00 
*FROM CLIP NAME:  5-6BK9/02.SYNC.01 
*TO CLIP NAME:  5-6BK9/04 
*SOURCE FILE: 19Y08M08
001353  19Y08M08                         A5    C        13:40:53:14 13:40:53:14 01:04:55:23 01:04:55:23 
001353  19Y08M08                         A5    D    002 14:07:50:08 14:07:50:10 01:04:55:23 01:04:56:00 
*FROM CLIP NAME:  5-6BK9/02.SYNC.01 
*TO CLIP NAME:  5-6BK9/04 
*SOURCE FILE: 19Y08M08
001354  19Y08M08                         A6    C        13:40:53:14 13:40:53:14 01:04:55:23 01:04:55:23 
001354  19Y08M08                         A6    D    002 14:07:50:08 14:07:50:10 01:04:55:23 01:04:56:00 
*FROM CLIP NAME:  5-6BK9/02.SYNC.01 
*TO CLIP NAME:  5-6BK9/04 
*SOURCE FILE: 19Y08M08
001355  19Y08M08                         A7    C        13:40:53:14 13:40:53:14 01:04:55:23 01:04:55:23 
001355  19Y08M08                         A7    D    002 14:07:50:08 14:07:50:10 01:04:55:23 01:04:56:00 
*FROM CLIP NAME:  5-6BK9/02.SYNC.01 
*TO CLIP NAME:  5-6BK9/04 
*SOURCE FILE: 19Y08M08
001356  19Y08M08                         A8    C        13:40:53:14 13:40:53:14 01:04:55:23 01:04:55:23 
001356  19Y08M08                         A8    D    002 14:07:50:08 14:07:50:10 01:04:55:23 01:04:56:00 
*FROM CLIP NAME:  5-6BK9/02.SYNC.01 
*TO CLIP NAME:  5-6BK9/04 
*SOURCE FILE: 19Y08M08
001357  19Y08M08                         A9    C        13:40:53:14 13:40:53:14 01:04:55:23 01:04:55:23 
001357  19Y08M08                         A9    D    002 14:07:50:08 14:07:50:10 01:04:55:23 01:04:56:00 
*FROM CLIP NAME:  5-6BK9/02.SYNC.01 
*TO CLIP NAME:  5-6BK9/04 
*SOURCE FILE: 19Y08M08
001358  19Y08M08                         A10   C        13:40:53:14 13:40:53:14 01:04:55:23 01:04:55:23 
001358  BL                               A10   D    002 00:00:00:00 00:00:00:02 01:04:55:23 01:04:56:00 
*FROM CLIP NAME:  5-6BK9/02.SYNC.01 
*PATCH 19Y08M08:  FROM SOURCE 1 TO RECORD 10 
*SOURCE FILE: 19Y08M08
001359  19Y08M08                         A     C        14:07:50:10 14:07:54:09 01:04:56:00 01:04:59:24 
*FROM CLIP NAME:  5-6BK9/04 
*SOURCE FILE: 19Y08M08
001360  19Y08M08                         A2    C        14:07:50:10 14:07:54:09 01:04:56:00 01:04:59:24 
*FROM CLIP NAME:  5-6BK9/04 
*SOURCE FILE: 19Y08M08
001361  19Y08M08                         A3    C        14:07:50:10 14:07:54:09 01:04:56:00 01:04:59:24 
*FROM CLIP NAME:  5-6BK9/04 
*SOURCE FILE: 19Y08M08
001362  19Y08M08                         A4    C        14:07:50:10 14:07:54:09 01:04:56:00 01:04:59:24 
*FROM CLIP NAME:  5-6BK9/04 
*SOURCE FILE: 19Y08M08
001363  19Y08M08                         A5    C        14:07:50:10 14:07:54:09 01:04:56:00 01:04:59:24 
*FROM CLIP NAME:  5-6BK9/04 
*SOURCE FILE: 19Y08M08
001364  19Y08M08                         A6    C        14:07:50:10 14:07:54:09 01:04:56:00 01:04:59:24 
*FROM CLIP NAME:  5-6BK9/04 
*SOURCE FILE: 19Y08M08
001365  19Y08M08                         A7    C        14:07:50:10 14:07:54:09 01:04:56:00 01:04:59:24 
*FROM CLIP NAME:  5-6BK9/04 
*SOURCE FILE: 19Y08M08
001366  19Y08M08                         A8    C        14:07:50:10 14:07:54:09 01:04:56:00 01:04:59:24 
*FROM CLIP NAME:  5-6BK9/04 
*SOURCE FILE: 19Y08M08
001367  19Y08M08                         A9    C        14:07:50:10 14:07:54:09 01:04:56:00 01:04:59:24 
*FROM CLIP NAME:  5-6BK9/04 
*SOURCE FILE: 19Y08M08
001368  19Y08M08                         A     C        14:07:54:09 14:07:54:09 01:04:59:24 01:04:59:24 
001368  19Y08M08                         A     D    002 14:07:54:10 14:07:54:12 01:04:59:24 01:05:00:01 
*FROM CLIP NAME:  5-6BK9/04 
*TO CLIP NAME:  5-6BK9/04 
*PATCH 19Y08M08:  FROM SOURCE 5 TO RECORD 1 
*SOURCE FILE: 19Y08M08
001369  19Y08M08                         A2    C        14:07:54:09 14:07:54:09 01:04:59:24 01:04:59:24 
001369  19Y08M08                         A2    D    002 14:07:54:10 14:07:54:12 01:04:59:24 01:05:00:01 
*FROM CLIP NAME:  5-6BK9/04 
*TO CLIP NAME:  5-6BK9/04 
*PATCH 19Y08M08:  FROM SOURCE 6 TO RECORD 2 
*SOURCE FILE: 19Y08M08
001370  19Y08M08                         A3    C        14:07:54:09 14:07:54:09 01:04:59:24 01:04:59:24 
001370  19Y08M08                         A3    D    002 14:07:54:10 14:07:54:12 01:04:59:24 01:05:00:01 
*FROM CLIP NAME:  5-6BK9/04 
*TO CLIP NAME:  5-6BK9/04 
*SOURCE FILE: 19Y08M08
001371  19Y08M08                         A4    C        14:07:54:09 14:07:54:09 01:04:59:24 01:04:59:24 
001371  19Y08M08                         A4    D    002 14:07:54:10 14:07:54:12 01:04:59:24 01:05:00:01 
*FROM CLIP NAME:  5-6BK9/04 
*TO CLIP NAME:  5-6BK9/04 
*SOURCE FILE: 19Y08M08
001372  19Y08M08                         A5    C        14:07:54:09 14:07:54:09 01:04:59:24 01:04:59:24 
001372  19Y08M08                         A5    D    002 14:07:54:10 14:07:54:12 01:04:59:24 01:05:00:01 
*FROM CLIP NAME:  5-6BK9/04 
*TO CLIP NAME:  5-6BK9/04 
*PATCH 19Y08M08:  FROM SOURCE 1 TO RECORD 5 
*SOURCE FILE: 19Y08M08
001373  19Y08M08                         A6    C        14:07:54:09 14:07:54:09 01:04:59:24 01:04:59:24 
001373  19Y08M08                         A6    D    002 14:07:54:10 14:07:54:12 01:04:59:24 01:05:00:01 
*FROM CLIP NAME:  5-6BK9/04 
*TO CLIP NAME:  5-6BK9/04 
*PATCH 19Y08M08:  FROM SOURCE 2 TO RECORD 6 
*SOURCE FILE: 19Y08M08
001374  19Y08M08                         A7    C        14:07:54:09 14:07:54:09 01:04:59:24 01:04:59:24 
001374  19Y08M08                         A7    D    002 14:07:54:10 14:07:54:12 01:04:59:24 01:05:00:01 
*FROM CLIP NAME:  5-6BK9/04 
*TO CLIP NAME:  5-6BK9/04 
*SOURCE FILE: 19Y08M08
001375  19Y08M08                         A8    C        14:07:54:09 14:07:54:09 01:04:59:24 01:04:59:24 
001375  19Y08M08                         A8    D    002 14:07:54:10 14:07:54:12 01:04:59:24 01:05:00:01 
*FROM CLIP NAME:  5-6BK9/04 
*TO CLIP NAME:  5-6BK9/04 
*SOURCE FILE: 19Y08M08
001376  19Y08M08                         A9    C        14:07:54:09 14:07:54:09 01:04:59:24 01:04:59:24 
001376  19Y08M08                         A9    D    002 14:07:54:10 14:07:54:12 01:04:59:24 01:05:00:01 
*FROM CLIP NAME:  5-6BK9/04 
*TO CLIP NAME:  5-6BK9/04 
*SOURCE FILE: 19Y08M08
001377  MSMMMOB.74                       V     C        12:52:31:22 12:52:33:00 01:05:00:00 01:05:01:03 
M2      MSMMMOB.74                                025.0 12:52:31:22 
*FROM CLIP NAME:  B007C002_190808_R16N 
*SOURCE FILE: MSMMMOB.74
001378  19Y08M08                         A     C        14:07:54:12 14:07:55:23 01:05:00:01 01:05:01:12 
*FROM CLIP NAME:  5-6BK9/04 
*PATCH 19Y08M08:  FROM SOURCE 5 TO RECORD 1 
*SOURCE FILE: 19Y08M08
001379  19Y08M08                         A2    C        14:07:54:12 14:07:55:23 01:05:00:01 01:05:01:12 
*FROM CLIP NAME:  5-6BK9/04 
*PATCH 19Y08M08:  FROM SOURCE 6 TO RECORD 2 
*SOURCE FILE: 19Y08M08
001380  19Y08M08                         A3    C        14:07:54:12 14:07:55:23 01:05:00:01 01:05:01:12 
*FROM CLIP NAME:  5-6BK9/04 
*SOURCE FILE: 19Y08M08
001381  19Y08M08                         A4    C        14:07:54:12 14:07:55:23 01:05:00:01 01:05:01:12 
*FROM CLIP NAME:  5-6BK9/04 
*SOURCE FILE: 19Y08M08
001382  19Y08M08                         A5    C        14:07:54:12 14:07:55:23 01:05:00:01 01:05:01:12 
*FROM CLIP NAME:  5-6BK9/04 
*PATCH 19Y08M08:  FROM SOURCE 1 TO RECORD 5 
*SOURCE FILE: 19Y08M08
001383  19Y08M08                         A6    C        14:07:54:12 14:07:55:23 01:05:00:01 01:05:01:12 
*FROM CLIP NAME:  5-6BK9/04 
*PATCH 19Y08M08:  FROM SOURCE 2 TO RECORD 6 
*SOURCE FILE: 19Y08M08
001384  19Y08M08                         A7    C        14:07:54:12 14:07:55:23 01:05:00:01 01:05:01:12 
*FROM CLIP NAME:  5-6BK9/04 
*SOURCE FILE: 19Y08M08
001385  19Y08M08                         A8    C        14:07:54:12 14:07:55:23 01:05:00:01 01:05:01:12 
*FROM CLIP NAME:  5-6BK9/04 
*SOURCE FILE: 19Y08M08
001386  19Y08M08                         A9    C        14:07:54:12 14:07:55:23 01:05:00:01 01:05:01:12 
*FROM CLIP NAME:  5-6BK9/04 
*SOURCE FILE: 19Y08M08
001387  19Y08M08                         A10   C        13:40:57:24 13:40:58:15 01:05:01:03 01:05:01:19 
*FROM CLIP NAME:  5-6BK9/02.SYNC.01 
*PATCH 19Y08M08:  FROM SOURCE 1 TO RECORD 10 
*SOURCE FILE: 19Y08M08
001388  MSMMMOB.04                       V     C        13:40:57:24 13:40:59:03 01:05:01:03 01:05:02:07 
M2      MSMMMOB.04                                025.0 13:40:57:24 
*FROM CLIP NAME:  B007C006_190808_R16N 
*SOURCE FILE: MSMMMOB.04
001389  19Y08M08                         A11   C        13:19:01:19 13:19:02:01 01:05:01:04 01:05:01:11 
*FROM CLIP NAME:  5-6BK8/02.SYNC.01 
*PATCH 19Y08M08:  FROM SOURCE 1 TO RECORD 11 
*SOURCE FILE: 19Y08M08
001390  19Y08M08                         A12   C        13:19:01:19 13:19:02:01 01:05:01:04 01:05:01:11 
*FROM CLIP NAME:  5-6BK8/02.SYNC.01 
*PATCH 19Y08M08:  FROM SOURCE 2 TO RECORD 12 
*SOURCE FILE: 19Y08M08
001391  19Y08M08                         A13   C        13:19:01:19 13:19:02:01 01:05:01:04 01:05:01:11 
*FROM CLIP NAME:  5-6BK8/02.SYNC.01 
*PATCH 19Y08M08:  FROM SOURCE 3 TO RECORD 13 
*SOURCE FILE: 19Y08M08
001392  19Y08M08                         A14   C        13:19:01:19 13:19:02:01 01:05:01:04 01:05:01:11 
*FROM CLIP NAME:  5-6BK8/02.SYNC.01 
*PATCH 19Y08M08:  FROM SOURCE 4 TO RECORD 14 
*SOURCE FILE: 19Y08M08
001393  19Y08M08                         A15   C        13:19:01:19 13:19:02:01 01:05:01:04 01:05:01:11 
*FROM CLIP NAME:  5-6BK8/02.SYNC.01 
*PATCH 19Y08M08:  FROM SOURCE 5 TO RECORD 15 
*SOURCE FILE: 19Y08M08
001394  19Y08M08                         A16   C        13:19:01:19 13:19:02:01 01:05:01:04 01:05:01:11 
*FROM CLIP NAME:  5-6BK8/02.SYNC.01 
*PATCH 19Y08M08:  FROM SOURCE 6 TO RECORD 16 
*SOURCE FILE: 19Y08M08
001395  19Y08M08                         A17   C        13:19:01:19 13:19:02:01 01:05:01:04 01:05:01:11 
*FROM CLIP NAME:  5-6BK8/02.SYNC.01 
*PATCH 19Y08M08:  FROM SOURCE 7 TO RECORD 17 
*SOURCE FILE: 19Y08M08
001396  19Y08M08                         A     C        13:40:58:08 13:40:58:14 01:05:01:12 01:05:01:18 
*FROM CLIP NAME:  5-6BK9/02.SYNC.01 
*SOURCE FILE: 19Y08M08
001397  19Y08M08                         A2    C        13:40:58:08 13:40:58:14 01:05:01:12 01:05:01:18 
*FROM CLIP NAME:  5-6BK9/02.SYNC.01 
*SOURCE FILE: 19Y08M08
001398  19Y08M08                         A3    C        13:40:58:08 13:40:58:14 01:05:01:12 01:05:01:18 
*FROM CLIP NAME:  5-6BK9/02.SYNC.01 
*SOURCE FILE: 19Y08M08
001399  19Y08M08                         A4    C        13:40:58:08 13:40:58:14 01:05:01:12 01:05:01:18 
*FROM CLIP NAME:  5-6BK9/02.SYNC.01 
*SOURCE FILE: 19Y08M08
001400  19Y08M08                         A5    C        13:40:58:08 13:40:58:14 01:05:01:12 01:05:01:18 
*FROM CLIP NAME:  5-6BK9/02.SYNC.01 
*SOURCE FILE: 19Y08M08
001401  19Y08M08                         A6    C        13:40:58:08 13:40:58:14 01:05:01:12 01:05:01:18 
*FROM CLIP NAME:  5-6BK9/02.SYNC.01 
*SOURCE FILE: 19Y08M08
001402  19Y08M08                         A7    C        13:40:58:08 13:40:58:14 01:05:01:12 01:05:01:18 
*FROM CLIP NAME:  5-6BK9/02.SYNC.01 
*SOURCE FILE: 19Y08M08
001403  19Y08M08                         A9    C        13:40:58:08 13:40:58:14 01:05:01:12 01:05:01:18 
*FROM CLIP NAME:  5-6BK9/02.SYNC.01 
*SOURCE FILE: 19Y08M08
001404  19Y08M08                         A     C        13:40:58:14 13:40:58:14 01:05:01:18 01:05:01:18 
001404  19Y08M08                         A     D    002 14:07:57:03 14:07:57:05 01:05:01:18 01:05:01:20 
*FROM CLIP NAME:  5-6BK9/02.SYNC.01 
*TO CLIP NAME:  5-6BK9/04 
*SOURCE FILE: 19Y08M08
001405  19Y08M08                         A2    C        13:40:58:14 13:40:58:14 01:05:01:18 01:05:01:18 
001405  19Y08M08                         A2    D    002 14:07:57:03 14:07:57:05 01:05:01:18 01:05:01:20 
*FROM CLIP NAME:  5-6BK9/02.SYNC.01 
*TO CLIP NAME:  5-6BK9/04 
*SOURCE FILE: 19Y08M08
001406  19Y08M08                         A3    C        13:40:58:14 13:40:58:14 01:05:01:18 01:05:01:18 
001406  19Y08M08                         A3    D    002 14:07:57:03 14:07:57:05 01:05:01:18 01:05:01:20 
*FROM CLIP NAME:  5-6BK9/02.SYNC.01 
*TO CLIP NAME:  5-6BK9/04 
*SOURCE FILE: 19Y08M08
001407  19Y08M08                         A4    C        13:40:58:14 13:40:58:14 01:05:01:18 01:05:01:18 
001407  19Y08M08                         A4    D    002 14:07:57:03 14:07:57:05 01:05:01:18 01:05:01:20 
*FROM CLIP NAME:  5-6BK9/02.SYNC.01 
*TO CLIP NAME:  5-6BK9/04 
*SOURCE FILE: 19Y08M08
001408  19Y08M08                         A5    C        13:40:58:14 13:40:58:14 01:05:01:18 01:05:01:18 
001408  19Y08M08                         A5    D    002 14:07:57:03 14:07:57:05 01:05:01:18 01:05:01:20 
*FROM CLIP NAME:  5-6BK9/02.SYNC.01 
*TO CLIP NAME:  5-6BK9/04 
*SOURCE FILE: 19Y08M08
001409  19Y08M08                         A6    C        13:40:58:14 13:40:58:14 01:05:01:18 01:05:01:18 
001409  19Y08M08                         A6    D    002 14:07:57:03 14:07:57:05 01:05:01:18 01:05:01:20 
*FROM CLIP NAME:  5-6BK9/02.SYNC.01 
*TO CLIP NAME:  5-6BK9/04 
*SOURCE FILE: 19Y08M08
001410  19Y08M08                         A7    C        13:40:58:14 13:40:58:14 01:05:01:18 01:05:01:18 
001410  19Y08M08                         A7    D    002 14:07:57:03 14:07:57:05 01:05:01:18 01:05:01:20 
*FROM CLIP NAME:  5-6BK9/02.SYNC.01 
*TO CLIP NAME:  5-6BK9/04 
*SOURCE FILE: 19Y08M08
001411  BL                               A8    C        00:00:00:00 00:00:00:00 01:05:01:18 01:05:01:18 
001411  19Y08M08                         A8    D    002 14:07:57:03 14:07:57:05 01:05:01:18 01:05:01:20 
*TO CLIP NAME:  5-6BK9/04 
*SOURCE FILE: (NULL)
001412  19Y08M08                         A9    C        13:40:58:14 13:40:58:14 01:05:01:18 01:05:01:18 
001412  19Y08M08                         A9    D    002 14:07:57:03 14:07:57:05 01:05:01:18 01:05:01:20 
*FROM CLIP NAME:  5-6BK9/02.SYNC.01 
*TO CLIP NAME:  5-6BK9/04 
*SOURCE FILE: 19Y08M08
001413  19Y08M08                         A     C        14:07:57:05 14:08:02:06 01:05:01:20 01:05:06:21 
*FROM CLIP NAME:  5-6BK9/04 
*SOURCE FILE: 19Y08M08
001414  19Y08M08                         A2    C        14:07:57:05 14:08:02:06 01:05:01:20 01:05:06:21 
*FROM CLIP NAME:  5-6BK9/04 
*SOURCE FILE: 19Y08M08
001415  19Y08M08                         A3    C        14:07:57:05 14:08:02:06 01:05:01:20 01:05:06:21 
*FROM CLIP NAME:  5-6BK9/04 
*SOURCE FILE: 19Y08M08
001416  19Y08M08                         A4    C        14:07:57:05 14:08:02:06 01:05:01:20 01:05:06:21 
*FROM CLIP NAME:  5-6BK9/04 
*SOURCE FILE: 19Y08M08
001417  19Y08M08                         A5    C        14:07:57:05 14:08:02:06 01:05:01:20 01:05:06:21 
*FROM CLIP NAME:  5-6BK9/04 
*SOURCE FILE: 19Y08M08
001418  19Y08M08                         A6    C        14:07:57:05 14:08:02:06 01:05:01:20 01:05:06:21 
*FROM CLIP NAME:  5-6BK9/04 
*SOURCE FILE: 19Y08M08
001419  19Y08M08                         A7    C        14:07:57:05 14:08:02:06 01:05:01:20 01:05:06:21 
*FROM CLIP NAME:  5-6BK9/04 
*SOURCE FILE: 19Y08M08
001420  19Y08M08                         A8    C        14:07:57:05 14:08:02:06 01:05:01:20 01:05:06:21 
*FROM CLIP NAME:  5-6BK9/04 
*SOURCE FILE: 19Y08M08
001421  19Y08M08                         A9    C        14:07:57:05 14:08:02:06 01:05:01:20 01:05:06:21 
*FROM CLIP NAME:  5-6BK9/04 
*SOURCE FILE: 19Y08M08
001422  MSMMMOB.85                       V     C        14:07:57:18 14:08:02:07 01:05:02:07 01:05:06:21 
M2      MSMMMOB.85                                025.0 14:07:57:18 
*FROM CLIP NAME:  A053C003_190808_R32C 
*SOURCE FILE: MSMMMOB.85
001423  MSMMMOB.51                       V     C        11:50:53:01 11:50:53:24 01:05:06:21 01:05:07:19 
M2      MSMMMOB.51                                025.0 11:50:53:01 
*FROM CLIP NAME:  B005C002_190808_R16N 
*SOURCE FILE: MSMMMOB.51
001424  CAVENDISH_AB-C030704_LIFT_IT_UP. A13   C        01:00:33:09 01:00:53:02 01:05:06:21 01:05:26:14 
*FROM CLIP NAME:  CAVENDISH_AB-C030704_LIFT_IT_UP.MP3 
*A13 VOL = -11.0 DB  PAN R100 
*PATCH CAVENDISH_AB-C030704_LIFT_IT_UP.:  FROM SOURCE 1 TO RECORD 13 
*SOURCE FILE: CAVENDISH_AB-C030704_LIFT_IT_UP.MP3
001425  CAVENDISH_AB-C030704_LIFT_IT_UP. A14   C        01:00:33:09 01:00:53:02 01:05:06:21 01:05:26:14 
*FROM CLIP NAME:  CAVENDISH_AB-C030704_LIFT_IT_UP.MP3 
*A14 VOL = -11.0 DB  PAN L100 
*PATCH CAVENDISH_AB-C030704_LIFT_IT_UP.:  FROM SOURCE 2 TO RECORD 14 
*SOURCE FILE: CAVENDISH_AB-C030704_LIFT_IT_UP.MP3
001426  MSMMMOB.51                       V     C        11:50:56:03 11:50:56:13 01:05:07:19 01:05:08:04 
M2      MSMMMOB.51                                025.0 11:50:56:03 
*FROM CLIP NAME:  B005C002_190808_R16N 
*SOURCE FILE: MSMMMOB.51
001427  MSMMMOB.51                       V     C        11:51:00:19 11:51:01:04 01:05:08:04 01:05:08:14 
M2      MSMMMOB.51                                025.0 11:51:00:19 
*FROM CLIP NAME:  B005C002_190808_R16N 
*SOURCE FILE: MSMMMOB.51
001428  MSMMMOB.51                       V     C        11:51:06:20 11:51:07:05 01:05:08:14 01:05:08:24 
M2      MSMMMOB.51                                025.0 11:51:06:20 
*FROM CLIP NAME:  B005C002_190808_R16N 
*SOURCE FILE: MSMMMOB.51
001429  MSMMMOB.02                       V     C        12:28:30:04 12:28:31:02 01:05:08:24 01:05:09:22 
M2      MSMMMOB.02                                025.0 12:28:30:04 
*FROM CLIP NAME:  B006C001_190808_R16N 
*SOURCE FILE: MSMMMOB.02
001430  MSMMMOB.85                       V     C        14:08:21:07 14:08:22:00 01:05:09:22 01:05:10:15 
M2      MSMMMOB.85                                025.0 14:08:21:07 
*FROM CLIP NAME:  A053C003_190808_R32C 
*SOURCE FILE: MSMMMOB.85
001431  MSMMMOB.52                       V     C        14:08:17:12 14:08:18:04 01:05:10:15 01:05:11:07 
M2      MSMMMOB.52                                025.0 14:08:17:12 
*FROM CLIP NAME:  B007C009_190808_R16N 
*SOURCE FILE: MSMMMOB.52
001432  MSMMMOB.39                       V     C        13:41:43:13 13:41:44:06 01:05:11:07 01:05:12:00 
M2      MSMMMOB.39                                025.0 13:41:43:13 
*FROM CLIP NAME:  A052C006_190808_R32C 
*SOURCE FILE: MSMMMOB.39
001433  MSMMMOB.04                       V     C        13:41:50:15 13:41:51:17 01:05:12:00 01:05:13:02 
M2      MSMMMOB.04                                025.0 13:41:50:15 
*FROM CLIP NAME:  B007C006_190808_R16N 
*SOURCE FILE: MSMMMOB.04
001434  MSMMMOB.17                       V     C        13:56:20:04 13:56:23:04 01:05:13:02 01:05:16:02 
M2      MSMMMOB.17                                025.0 13:56:20:04 
*FROM CLIP NAME:  B007C007_190808_R16N 
*SOURCE FILE: MSMMMOB.17
001435  19Y08M08                         A     C        13:56:20:04 13:56:23:04 01:05:13:02 01:05:16:02 
*FROM CLIP NAME:  5-6BK9/03 
*SOURCE FILE: 19Y08M08
001436  19Y08M08                         A2    C        13:56:20:04 13:56:23:04 01:05:13:02 01:05:16:02 
*FROM CLIP NAME:  5-6BK9/03 
*SOURCE FILE: 19Y08M08
001437  19Y08M08                         A3    C        13:56:20:04 13:56:23:04 01:05:13:02 01:05:16:02 
*FROM CLIP NAME:  5-6BK9/03 
*SOURCE FILE: 19Y08M08
001438  19Y08M08                         A4    C        13:56:20:04 13:56:23:04 01:05:13:02 01:05:16:02 
*FROM CLIP NAME:  5-6BK9/03 
*SOURCE FILE: 19Y08M08
001439  19Y08M08                         A5    C        13:56:20:04 13:56:23:04 01:05:13:02 01:05:16:02 
*FROM CLIP NAME:  5-6BK9/03 
*SOURCE FILE: 19Y08M08
001440  19Y08M08                         A6    C        13:56:20:04 13:56:23:04 01:05:13:02 01:05:16:02 
*FROM CLIP NAME:  5-6BK9/03 
*SOURCE FILE: 19Y08M08
001441  19Y08M08                         A7    C        13:56:20:04 13:56:23:04 01:05:13:02 01:05:16:02 
*FROM CLIP NAME:  5-6BK9/03 
*SOURCE FILE: 19Y08M08
001442  19Y08M08                         A8    C        13:56:20:04 13:56:23:04 01:05:13:02 01:05:16:02 
*FROM CLIP NAME:  5-6BK9/03 
*SOURCE FILE: 19Y08M08
001443  19Y08M08                         A9    C        13:56:20:04 13:56:23:04 01:05:13:02 01:05:16:02 
*FROM CLIP NAME:  5-6BK9/03 
*SOURCE FILE: 19Y08M08
001444  MSMMMOB.39                       V     C        13:41:58:18 13:41:59:12 01:05:16:02 01:05:16:21 
M2      MSMMMOB.39                                025.0 13:41:58:18 
*FROM CLIP NAME:  A052C006_190808_R32C 
*SOURCE FILE: MSMMMOB.39
001445  19Y08M08                         A     C        13:41:58:18 13:42:00:20 01:05:16:02 01:05:18:04 
*FROM CLIP NAME:  5-6BK9/02.SYNC.01 
*SOURCE FILE: 19Y08M08
001446  19Y08M08                         A2    C        13:41:58:18 13:42:00:20 01:05:16:02 01:05:18:04 
*FROM CLIP NAME:  5-6BK9/02.SYNC.01 
*SOURCE FILE: 19Y08M08
001447  19Y08M08                         A3    C        13:41:58:18 13:42:00:20 01:05:16:02 01:05:18:04 
*FROM CLIP NAME:  5-6BK9/02.SYNC.01 
*SOURCE FILE: 19Y08M08
001448  19Y08M08                         A4    C        13:41:58:18 13:42:00:20 01:05:16:02 01:05:18:04 
*FROM CLIP NAME:  5-6BK9/02.SYNC.01 
*SOURCE FILE: 19Y08M08
001449  19Y08M08                         A5    C        13:41:58:18 13:42:00:20 01:05:16:02 01:05:18:04 
*FROM CLIP NAME:  5-6BK9/02.SYNC.01 
*SOURCE FILE: 19Y08M08
001450  19Y08M08                         A6    C        13:41:58:18 13:42:00:20 01:05:16:02 01:05:18:04 
*FROM CLIP NAME:  5-6BK9/02.SYNC.01 
*SOURCE FILE: 19Y08M08
001451  19Y08M08                         A7    C        13:41:58:18 13:42:00:20 01:05:16:02 01:05:18:04 
*FROM CLIP NAME:  5-6BK9/02.SYNC.01 
*SOURCE FILE: 19Y08M08
001452  19Y08M08                         A8    C        13:41:58:18 13:42:00:20 01:05:16:02 01:05:18:04 
*FROM CLIP NAME:  5-6BK9/02.SYNC.01 
*SOURCE FILE: 19Y08M08
001453  19Y08M08                         A9    C        13:41:58:18 13:42:00:20 01:05:16:02 01:05:18:04 
*FROM CLIP NAME:  5-6BK9/02.SYNC.01 
*SOURCE FILE: 19Y08M08
001454  19Y08M08                         A10   C        13:41:58:18 13:42:00:20 01:05:16:02 01:05:18:04 
*FROM CLIP NAME:  5-6BK9/02.SYNC.01 
*PATCH 19Y08M08:  FROM SOURCE 1 TO RECORD 10 
*SOURCE FILE: 19Y08M08
001455  MSMMMOB.38                       V     C        12:44:02:08 12:44:03:12 01:05:16:21 01:05:18:00 
M2      MSMMMOB.38                                025.0 12:44:02:08 
*FROM CLIP NAME:  A051C005_190808_R32C 
*SOURCE FILE: MSMMMOB.38
001456  19Y08M08                         A15   C        12:44:02:08 12:44:03:16 01:05:16:21 01:05:18:04 
*FROM CLIP NAME:  5-6BK6/02.SYNC.01 
*A15 VOL =  +7.0 DB  PAN R100 
*PATCH 19Y08M08:  FROM SOURCE 5 TO RECORD 15 
*SOURCE FILE: 19Y08M08
001457  MSMMMOB.39                       V     C        13:42:07:21 13:42:09:04 01:05:18:00 01:05:19:08 
M2      MSMMMOB.39                                025.0 13:42:07:21 
*FROM CLIP NAME:  A052C006_190808_R32C 
*SOURCE FILE: MSMMMOB.39
001458  19Y08M08                         A     C        13:42:00:20 13:42:00:20 01:05:18:04 01:05:18:04 
001458  19Y08M08                         A     D    002 13:42:08:00 13:42:08:02 01:05:18:04 01:05:18:06 
*FROM CLIP NAME:  5-6BK9/02.SYNC.01 
*TO CLIP NAME:  5-6BK9/02.SYNC.01 
*SOURCE FILE: 19Y08M08
001459  19Y08M08                         A2    C        13:42:00:20 13:42:00:20 01:05:18:04 01:05:18:04 
001459  BL                               A2    D    002 00:00:00:00 00:00:00:02 01:05:18:04 01:05:18:06 
*FROM CLIP NAME:  5-6BK9/02.SYNC.01 
*SOURCE FILE: 19Y08M08
001460  19Y08M08                         A3    C        13:42:00:20 13:42:00:20 01:05:18:04 01:05:18:04 
001460  19Y08M08                         A3    D    002 13:42:08:00 13:42:08:02 01:05:18:04 01:05:18:06 
*FROM CLIP NAME:  5-6BK9/02.SYNC.01 
*TO CLIP NAME:  5-6BK9/02.SYNC.01 
*SOURCE FILE: 19Y08M08
001461  19Y08M08                         A4    C        13:42:00:20 13:42:00:20 01:05:18:04 01:05:18:04 
001461  19Y08M08                         A4    D    002 13:42:08:00 13:42:08:02 01:05:18:04 01:05:18:06 
*FROM CLIP NAME:  5-6BK9/02.SYNC.01 
*TO CLIP NAME:  5-6BK9/02.SYNC.01 
*SOURCE FILE: 19Y08M08
001462  19Y08M08                         A5    C        13:42:00:20 13:42:00:20 01:05:18:04 01:05:18:04 
001462  19Y08M08                         A5    D    002 13:42:08:00 13:42:08:02 01:05:18:04 01:05:18:06 
*FROM CLIP NAME:  5-6BK9/02.SYNC.01 
*TO CLIP NAME:  5-6BK9/02.SYNC.01 
*SOURCE FILE: 19Y08M08
001463  19Y08M08                         A6    C        13:42:00:20 13:42:00:20 01:05:18:04 01:05:18:04 
001463  19Y08M08                         A6    D    002 13:42:08:00 13:42:08:02 01:05:18:04 01:05:18:06 
*FROM CLIP NAME:  5-6BK9/02.SYNC.01 
*TO CLIP NAME:  5-6BK9/02.SYNC.01 
*SOURCE FILE: 19Y08M08
001464  19Y08M08                         A7    C        13:42:00:20 13:42:00:20 01:05:18:04 01:05:18:04 
001464  19Y08M08                         A7    D    002 13:42:08:00 13:42:08:02 01:05:18:04 01:05:18:06 
*FROM CLIP NAME:  5-6BK9/02.SYNC.01 
*TO CLIP NAME:  5-6BK9/02.SYNC.01 
*SOURCE FILE: 19Y08M08
001465  19Y08M08                         A8    C        13:42:00:20 13:42:00:20 01:05:18:04 01:05:18:04 
001465  19Y08M08                         A8    D    002 13:42:08:00 13:42:08:02 01:05:18:04 01:05:18:06 
*FROM CLIP NAME:  5-6BK9/02.SYNC.01 
*TO CLIP NAME:  5-6BK9/02.SYNC.01 
*SOURCE FILE: 19Y08M08
001466  19Y08M08                         A9    C        13:42:00:20 13:42:00:20 01:05:18:04 01:05:18:04 
001466  BL                               A9    D    002 00:00:00:00 00:00:00:02 01:05:18:04 01:05:18:06 
*FROM CLIP NAME:  5-6BK9/02.SYNC.01 
*SOURCE FILE: 19Y08M08
001467  19Y08M08                         A10   C        13:42:00:20 13:42:00:20 01:05:18:04 01:05:18:04 
001467  19Y08M08                         A10   D    002 13:42:08:00 13:42:08:02 01:05:18:04 01:05:18:06 
*FROM CLIP NAME:  5-6BK9/02.SYNC.01 
*TO CLIP NAME:  5-6BK9/02.SYNC.01 
*PATCH 19Y08M08:  FROM SOURCE 1 TO RECORD 10 
*PATCH 19Y08M08:  FROM SOURCE 1 TO RECORD 10 
*SOURCE FILE: 19Y08M08
001468  19Y08M08                         A     C        13:42:08:02 13:42:09:01 01:05:18:06 01:05:19:05 
*FROM CLIP NAME:  5-6BK9/02.SYNC.01 
*SOURCE FILE: 19Y08M08
001469  19Y08M08                         A3    C        13:42:08:02 13:42:09:01 01:05:18:06 01:05:19:05 
*FROM CLIP NAME:  5-6BK9/02.SYNC.01 
*SOURCE FILE: 19Y08M08
001470  19Y08M08                         A4    C        13:42:08:02 13:42:09:01 01:05:18:06 01:05:19:05 
*FROM CLIP NAME:  5-6BK9/02.SYNC.01 
*SOURCE FILE: 19Y08M08
001471  19Y08M08                         A5    C        13:42:08:02 13:42:09:01 01:05:18:06 01:05:19:05 
*FROM CLIP NAME:  5-6BK9/02.SYNC.01 
*SOURCE FILE: 19Y08M08
001472  19Y08M08                         A6    C        13:42:08:02 13:42:09:01 01:05:18:06 01:05:19:05 
*FROM CLIP NAME:  5-6BK9/02.SYNC.01 
*SOURCE FILE: 19Y08M08
001473  19Y08M08                         A7    C        13:42:08:02 13:42:09:01 01:05:18:06 01:05:19:05 
*FROM CLIP NAME:  5-6BK9/02.SYNC.01 
*SOURCE FILE: 19Y08M08
001474  19Y08M08                         A8    C        13:42:08:02 13:42:09:01 01:05:18:06 01:05:19:05 
*FROM CLIP NAME:  5-6BK9/02.SYNC.01 
*SOURCE FILE: 19Y08M08
001475  19Y08M08                         A10   C        13:42:08:02 13:42:09:01 01:05:18:06 01:05:19:05 
*FROM CLIP NAME:  5-6BK9/02.SYNC.01 
*PATCH 19Y08M08:  FROM SOURCE 1 TO RECORD 10 
*SOURCE FILE: 19Y08M08
001476  19Y08M08                         A     C        14:09:49:12 14:09:51:01 01:05:19:05 01:05:20:19 
*FROM CLIP NAME:  5-6BK9/04 
*SOURCE FILE: 19Y08M08
001477  19Y08M08                         A2    C        14:09:49:12 14:09:51:01 01:05:19:05 01:05:20:19 
*FROM CLIP NAME:  5-6BK9/04 
*SOURCE FILE: 19Y08M08
001478  19Y08M08                         A3    C        14:09:49:12 14:09:51:01 01:05:19:05 01:05:20:19 
*FROM CLIP NAME:  5-6BK9/04 
*SOURCE FILE: 19Y08M08
001479  19Y08M08                         A4    C        14:09:49:12 14:09:51:01 01:05:19:05 01:05:20:19 
*FROM CLIP NAME:  5-6BK9/04 
*SOURCE FILE: 19Y08M08
001480  19Y08M08                         A5    C        14:09:49:12 14:09:51:01 01:05:19:05 01:05:20:19 
*FROM CLIP NAME:  5-6BK9/04 
*SOURCE FILE: 19Y08M08
001481  19Y08M08                         A6    C        14:09:49:12 14:09:51:01 01:05:19:05 01:05:20:19 
*FROM CLIP NAME:  5-6BK9/04 
*SOURCE FILE: 19Y08M08
001482  19Y08M08                         A7    C        14:09:49:12 14:09:51:01 01:05:19:05 01:05:20:19 
*FROM CLIP NAME:  5-6BK9/04 
*SOURCE FILE: 19Y08M08
001483  19Y08M08                         A8    C        14:09:49:12 14:09:51:01 01:05:19:05 01:05:20:19 
*FROM CLIP NAME:  5-6BK9/04 
*SOURCE FILE: 19Y08M08
001484  19Y08M08                         A9    C        14:09:49:12 14:09:51:01 01:05:19:05 01:05:20:19 
*FROM CLIP NAME:  5-6BK9/04 
*SOURCE FILE: 19Y08M08
001485  MSMMMOB.85                       V     C        14:09:49:16 14:09:51:02 01:05:19:08 01:05:20:19 
M2      MSMMMOB.85                                025.0 14:09:49:16 
*FROM CLIP NAME:  A053C003_190808_R32C 
*SOURCE FILE: MSMMMOB.85
001486  19Y08M08                         A     C        12:54:02:11 12:54:03:12 01:05:20:19 01:05:21:20 
*FROM CLIP NAME:  5-6BK7/02.SYNC.01 
*SOURCE FILE: 19Y08M08
001487  19Y08M08                         A2    C        12:54:02:11 12:54:03:12 01:05:20:19 01:05:21:20 
*FROM CLIP NAME:  5-6BK7/02.SYNC.01 
*SOURCE FILE: 19Y08M08
001488  19Y08M08                         A3    C        12:54:02:11 12:54:03:12 01:05:20:19 01:05:21:20 
*FROM CLIP NAME:  5-6BK7/02.SYNC.01 
*SOURCE FILE: 19Y08M08
001489  19Y08M08                         A4    C        12:54:02:11 12:54:03:12 01:05:20:19 01:05:21:20 
*FROM CLIP NAME:  5-6BK7/02.SYNC.01 
*SOURCE FILE: 19Y08M08
001490  19Y08M08                         A5    C        12:54:02:11 12:54:03:12 01:05:20:19 01:05:21:20 
*FROM CLIP NAME:  5-6BK7/02.SYNC.01 
*SOURCE FILE: 19Y08M08
001491  19Y08M08                         A6    C        12:54:02:11 12:54:03:12 01:05:20:19 01:05:21:20 
*FROM CLIP NAME:  5-6BK7/02.SYNC.01 
*SOURCE FILE: 19Y08M08
001492  19Y08M08                         A7    C        12:54:02:11 12:54:03:12 01:05:20:19 01:05:21:20 
*FROM CLIP NAME:  5-6BK7/02.SYNC.01 
*SOURCE FILE: 19Y08M08
001493  19Y08M08                         A8    C        12:54:02:11 12:54:03:12 01:05:20:19 01:05:21:20 
*FROM CLIP NAME:  5-6BK7/02.SYNC.01 
*SOURCE FILE: 19Y08M08
001494  19Y08M08                         A9    C        12:54:02:11 12:54:03:12 01:05:20:19 01:05:21:20 
*FROM CLIP NAME:  5-6BK7/02.SYNC.01 
*SOURCE FILE: 19Y08M08
001495  19Y08M08                         A10   C        12:54:02:11 12:54:03:12 01:05:20:19 01:05:21:20 
*FROM CLIP NAME:  5-6BK7/02.SYNC.01 
*PATCH 19Y08M08:  FROM SOURCE 1 TO RECORD 10 
*SOURCE FILE: 19Y08M08
001496  MSMMMOB.74                       V     C        12:54:02:11 12:54:04:00 01:05:20:19 01:05:22:08 
M2      MSMMMOB.74                                025.0 12:54:02:11 
*FROM CLIP NAME:  B007C002_190808_R16N 
*SOURCE FILE: MSMMMOB.74
001497  19Y08M08                         A     C        13:42:23:21 13:42:26:15 01:05:21:20 01:05:24:14 
*FROM CLIP NAME:  5-6BK9/02.SYNC.01 
*SOURCE FILE: 19Y08M08
001498  19Y08M08                         A2    C        13:42:23:21 13:42:26:15 01:05:21:20 01:05:24:14 
*FROM CLIP NAME:  5-6BK9/02.SYNC.01 
*SOURCE FILE: 19Y08M08
001499  19Y08M08                         A3    C        13:42:23:21 13:42:26:15 01:05:21:20 01:05:24:14 
*FROM CLIP NAME:  5-6BK9/02.SYNC.01 
*SOURCE FILE: 19Y08M08
001500  19Y08M08                         A4    C        13:42:23:21 13:42:26:15 01:05:21:20 01:05:24:14 
*FROM CLIP NAME:  5-6BK9/02.SYNC.01 
*SOURCE FILE: 19Y08M08
001501  19Y08M08                         A5    C        13:42:23:21 13:42:26:15 01:05:21:20 01:05:24:14 
*FROM CLIP NAME:  5-6BK9/02.SYNC.01 
*SOURCE FILE: 19Y08M08
001502  19Y08M08                         A6    C        13:42:23:21 13:42:26:15 01:05:21:20 01:05:24:14 
*FROM CLIP NAME:  5-6BK9/02.SYNC.01 
*SOURCE FILE: 19Y08M08
001503  19Y08M08                         A7    C        13:42:23:21 13:42:26:15 01:05:21:20 01:05:24:14 
*FROM CLIP NAME:  5-6BK9/02.SYNC.01 
*SOURCE FILE: 19Y08M08
001504  19Y08M08                         A8    C        13:42:23:21 13:42:26:15 01:05:21:20 01:05:24:14 
*FROM CLIP NAME:  5-6BK9/02.SYNC.01 
*SOURCE FILE: 19Y08M08
001505  19Y08M08                         A9    C        13:42:23:21 13:42:26:15 01:05:21:20 01:05:24:14 
*FROM CLIP NAME:  5-6BK9/02.SYNC.01 
*SOURCE FILE: 19Y08M08
001506  19Y08M08                         A10   C        13:42:23:21 13:42:26:15 01:05:21:20 01:05:24:14 
*FROM CLIP NAME:  5-6BK9/02.SYNC.01 
*PATCH 19Y08M08:  FROM SOURCE 1 TO RECORD 10 
*SOURCE FILE: 19Y08M08
001507  MSMMMOB.39                       V     C        13:42:24:09 13:42:27:14 01:05:22:08 01:05:25:13 
M2      MSMMMOB.39                                025.0 13:42:24:09 
*FROM CLIP NAME:  A052C006_190808_R32C 
*SOURCE FILE: MSMMMOB.39
001508  19Y08M08                         A     C        13:42:58:18 13:42:59:17 01:05:24:14 01:05:25:13 
*FROM CLIP NAME:  5-6BK9/02.SYNC.01 
*SOURCE FILE: 19Y08M08
001509  19Y08M08                         A2    C        13:42:58:18 13:42:59:17 01:05:24:14 01:05:25:13 
*FROM CLIP NAME:  5-6BK9/02.SYNC.01 
*SOURCE FILE: 19Y08M08
001510  19Y08M08                         A3    C        13:42:58:18 13:42:59:17 01:05:24:14 01:05:25:13 
*FROM CLIP NAME:  5-6BK9/02.SYNC.01 
*SOURCE FILE: 19Y08M08
001511  19Y08M08                         A4    C        13:42:58:18 13:42:59:17 01:05:24:14 01:05:25:13 
*FROM CLIP NAME:  5-6BK9/02.SYNC.01 
*SOURCE FILE: 19Y08M08
001512  19Y08M08                         A5    C        13:42:58:18 13:42:59:17 01:05:24:14 01:05:25:13 
*FROM CLIP NAME:  5-6BK9/02.SYNC.01 
*SOURCE FILE: 19Y08M08
001513  19Y08M08                         A6    C        13:42:58:18 13:42:59:17 01:05:24:14 01:05:25:13 
*FROM CLIP NAME:  5-6BK9/02.SYNC.01 
*SOURCE FILE: 19Y08M08
001514  19Y08M08                         A7    C        13:42:58:18 13:42:59:17 01:05:24:14 01:05:25:13 
*FROM CLIP NAME:  5-6BK9/02.SYNC.01 
*SOURCE FILE: 19Y08M08
001515  19Y08M08                         A8    C        13:42:58:18 13:42:59:17 01:05:24:14 01:05:25:13 
*FROM CLIP NAME:  5-6BK9/02.SYNC.01 
*SOURCE FILE: 19Y08M08
001516  19Y08M08                         A9    C        13:42:58:18 13:42:59:17 01:05:24:14 01:05:25:13 
*FROM CLIP NAME:  5-6BK9/02.SYNC.01 
*SOURCE FILE: 19Y08M08
001517  19Y08M08                         A10   C        13:42:58:18 13:42:59:17 01:05:24:14 01:05:25:13 
*FROM CLIP NAME:  5-6BK9/02.SYNC.01 
*PATCH 19Y08M08:  FROM SOURCE 1 TO RECORD 10 
*SOURCE FILE: 19Y08M08
001518  MSMMMOB.17                       V     C        13:56:47:06 13:56:48:08 01:05:25:13 01:05:26:15 
M2      MSMMMOB.17                                025.0 13:56:47:06 
*FROM CLIP NAME:  B007C007_190808_R16N 
*SOURCE FILE: MSMMMOB.17
001519  19Y08M08                         A     C        13:56:47:06 13:56:48:08 01:05:25:13 01:05:26:15 
*FROM CLIP NAME:  5-6BK9/03 
*SOURCE FILE: 19Y08M08
001520  19Y08M08                         A2    C        13:56:47:06 13:56:48:08 01:05:25:13 01:05:26:15 
*FROM CLIP NAME:  5-6BK9/03 
*SOURCE FILE: 19Y08M08
001521  19Y08M08                         A3    C        13:56:47:06 13:56:48:08 01:05:25:13 01:05:26:15 
*FROM CLIP NAME:  5-6BK9/03 
*SOURCE FILE: 19Y08M08
001522  19Y08M08                         A4    C        13:56:47:06 13:56:48:08 01:05:25:13 01:05:26:15 
*FROM CLIP NAME:  5-6BK9/03 
*SOURCE FILE: 19Y08M08
001523  19Y08M08                         A5    C        13:56:47:06 13:56:48:08 01:05:25:13 01:05:26:15 
*FROM CLIP NAME:  5-6BK9/03 
*SOURCE FILE: 19Y08M08
001524  19Y08M08                         A6    C        13:56:47:06 13:56:48:08 01:05:25:13 01:05:26:15 
*FROM CLIP NAME:  5-6BK9/03 
*SOURCE FILE: 19Y08M08
001525  19Y08M08                         A7    C        13:56:47:06 13:56:48:08 01:05:25:13 01:05:26:15 
*FROM CLIP NAME:  5-6BK9/03 
*SOURCE FILE: 19Y08M08
001526  19Y08M08                         A8    C        13:56:47:06 13:56:48:08 01:05:25:13 01:05:26:15 
*FROM CLIP NAME:  5-6BK9/03 
*SOURCE FILE: 19Y08M08
001527  19Y08M08                         A9    C        13:56:47:06 13:56:48:08 01:05:25:13 01:05:26:15 
*FROM CLIP NAME:  5-6BK9/03 
*SOURCE FILE: 19Y08M08
001528  CAVENDISH_AB-C030704_LIFT_IT_UP. A13   C        01:00:53:02 01:00:53:02 01:05:26:14 01:05:26:14 
001528  BL                               A13   D    034 00:00:00:00 00:00:01:09 01:05:26:14 01:05:27:23 
*FROM CLIP NAME:  CAVENDISH_AB-C030704_LIFT_IT_UP.MP3 
*A13 VOL = -11.0 DB  PAN R100 
*PATCH CAVENDISH_AB-C030704_LIFT_IT_UP.:  FROM SOURCE 1 TO RECORD 13 
*SOURCE FILE: CAVENDISH_AB-C030704_LIFT_IT_UP.MP3
001529  CAVENDISH_AB-C030704_LIFT_IT_UP. A14   C        01:00:53:02 01:00:53:02 01:05:26:14 01:05:26:14 
001529  BL                               A14   D    034 00:00:00:00 00:00:01:09 01:05:26:14 01:05:27:23 
*FROM CLIP NAME:  CAVENDISH_AB-C030704_LIFT_IT_UP.MP3 
*A14 VOL = -11.0 DB  PAN L100 
*PATCH CAVENDISH_AB-C030704_LIFT_IT_UP.:  FROM SOURCE 2 TO RECORD 14 
*SOURCE FILE: CAVENDISH_AB-C030704_LIFT_IT_UP.MP3
001530  MSMMMOB.39                       V     C        13:42:28:08 13:42:31:06 01:05:26:15 01:05:29:13 
M2      MSMMMOB.39                                025.0 13:42:28:08 
*FROM CLIP NAME:  A052C006_190808_R32C 
*SOURCE FILE: MSMMMOB.39
001531  19Y08M08                         A     C        13:42:28:08 13:42:31:06 01:05:26:15 01:05:29:13 
*FROM CLIP NAME:  5-6BK9/02.SYNC.01 
*SOURCE FILE: 19Y08M08
001532  19Y08M08                         A2    C        13:42:28:08 13:42:31:06 01:05:26:15 01:05:29:13 
*FROM CLIP NAME:  5-6BK9/02.SYNC.01 
*SOURCE FILE: 19Y08M08
001533  19Y08M08                         A3    C        13:42:28:08 13:42:31:06 01:05:26:15 01:05:29:13 
*FROM CLIP NAME:  5-6BK9/02.SYNC.01 
*SOURCE FILE: 19Y08M08
001534  19Y08M08                         A4    C        13:42:28:08 13:42:31:06 01:05:26:15 01:05:29:13 
*FROM CLIP NAME:  5-6BK9/02.SYNC.01 
*SOURCE FILE: 19Y08M08
001535  19Y08M08                         A5    C        13:42:28:08 13:42:31:06 01:05:26:15 01:05:29:13 
*FROM CLIP NAME:  5-6BK9/02.SYNC.01 
*SOURCE FILE: 19Y08M08
001536  19Y08M08                         A6    C        13:42:28:08 13:42:31:06 01:05:26:15 01:05:29:13 
*FROM CLIP NAME:  5-6BK9/02.SYNC.01 
*SOURCE FILE: 19Y08M08
001537  19Y08M08                         A7    C        13:42:28:08 13:42:31:06 01:05:26:15 01:05:29:13 
*FROM CLIP NAME:  5-6BK9/02.SYNC.01 
*SOURCE FILE: 19Y08M08
001538  19Y08M08                         A8    C        13:42:28:08 13:42:31:06 01:05:26:15 01:05:29:13 
*FROM CLIP NAME:  5-6BK9/02.SYNC.01 
*SOURCE FILE: 19Y08M08
001539  19Y08M08                         A9    C        13:42:28:08 13:42:31:06 01:05:26:15 01:05:29:13 
*FROM CLIP NAME:  5-6BK9/02.SYNC.01 
*SOURCE FILE: 19Y08M08
001540  19Y08M08                         A10   C        13:42:28:08 13:42:31:06 01:05:26:15 01:05:29:13 
*FROM CLIP NAME:  5-6BK9/02.SYNC.01 
*PATCH 19Y08M08:  FROM SOURCE 1 TO RECORD 10 
*SOURCE FILE: 19Y08M08
001541  MSMMMOB.08                       V     C        13:20:28:08 13:20:30:11 01:05:29:13 01:05:31:16 
M2      MSMMMOB.08                                025.0 13:20:28:08 
*FROM CLIP NAME:  B007C004_190808_R16N 
*SOURCE FILE: MSMMMOB.08
001542  19Y08M08                         A     C        13:20:28:08 13:20:30:11 01:05:29:13 01:05:31:16 
*FROM CLIP NAME:  5-6BK8/02.SYNC.01 
*SOURCE FILE: 19Y08M08
001543  19Y08M08                         A2    C        13:20:28:08 13:20:30:11 01:05:29:13 01:05:31:16 
*FROM CLIP NAME:  5-6BK8/02.SYNC.01 
*SOURCE FILE: 19Y08M08
001544  19Y08M08                         A3    C        13:20:28:08 13:20:30:11 01:05:29:13 01:05:31:16 
*FROM CLIP NAME:  5-6BK8/02.SYNC.01 
*SOURCE FILE: 19Y08M08
001545  19Y08M08                         A4    C        13:20:28:08 13:20:30:11 01:05:29:13 01:05:31:16 
*FROM CLIP NAME:  5-6BK8/02.SYNC.01 
*SOURCE FILE: 19Y08M08
001546  19Y08M08                         A5    C        13:20:28:08 13:20:30:11 01:05:29:13 01:05:31:16 
*FROM CLIP NAME:  5-6BK8/02.SYNC.01 
*SOURCE FILE: 19Y08M08
001547  19Y08M08                         A6    C        13:20:28:08 13:20:30:11 01:05:29:13 01:05:31:16 
*FROM CLIP NAME:  5-6BK8/02.SYNC.01 
*SOURCE FILE: 19Y08M08
001548  19Y08M08                         A7    C        13:20:28:08 13:20:30:11 01:05:29:13 01:05:31:16 
*FROM CLIP NAME:  5-6BK8/02.SYNC.01 
*SOURCE FILE: 19Y08M08
001549  19Y08M08                         A8    C        13:20:28:08 13:20:30:11 01:05:29:13 01:05:31:16 
*FROM CLIP NAME:  5-6BK8/02.SYNC.01 
*SOURCE FILE: 19Y08M08
001550  19Y08M08                         A9    C        13:20:28:08 13:20:30:11 01:05:29:13 01:05:31:16 
*FROM CLIP NAME:  5-6BK8/02.SYNC.01 
*SOURCE FILE: 19Y08M08
001551  19Y08M08                         A10   C        13:20:28:08 13:20:30:11 01:05:29:13 01:05:31:16 
*FROM CLIP NAME:  5-6BK8/02.SYNC.01 
*PATCH 19Y08M08:  FROM SOURCE 1 TO RECORD 10 
*SOURCE FILE: 19Y08M08
001552  BL                               A15   C        00:00:00:00 00:00:00:00 01:05:29:13 01:05:29:13 
001552  CAVENDISH_AB-C030704_LIFT_IT_UP. A15   D    053 01:02:00:10 01:02:02:13 01:05:29:13 01:05:31:16 
*TO CLIP NAME:  CAVENDISH_AB-C030704_LIFT_IT_UP.MP3 
*A15 VOL = -14.0 DB  PAN R100 
*PATCH CAVENDISH_AB-C030704_LIFT_IT_UP.:  FROM SOURCE 1 TO RECORD 15 
*SOURCE FILE: (NULL)
001553  BL                               A16   C        00:00:00:00 00:00:00:00 01:05:29:13 01:05:29:13 
001553  CAVENDISH_AB-C030704_LIFT_IT_UP. A16   D    053 01:02:00:10 01:02:02:13 01:05:29:13 01:05:31:16 
*TO CLIP NAME:  CAVENDISH_AB-C030704_LIFT_IT_UP.MP3 
*A16 VOL = -14.0 DB  PAN L100 
*PATCH CAVENDISH_AB-C030704_LIFT_IT_UP.:  FROM SOURCE 2 TO RECORD 16 
*SOURCE FILE: (NULL)
001554  MSMMMOB.39                       V     C        13:42:54:03 13:42:56:02 01:05:31:16 01:05:33:15 
M2      MSMMMOB.39                                025.0 13:42:54:03 
*FROM CLIP NAME:  A052C006_190808_R32C 
*SOURCE FILE: MSMMMOB.39
001555  19Y08M08                         A     C        13:42:54:03 13:42:56:02 01:05:31:16 01:05:33:15 
*FROM CLIP NAME:  5-6BK9/02.SYNC.01 
*SOURCE FILE: 19Y08M08
001556  19Y08M08                         A2    C        13:42:54:03 13:42:56:02 01:05:31:16 01:05:33:15 
*FROM CLIP NAME:  5-6BK9/02.SYNC.01 
*SOURCE FILE: 19Y08M08
001557  19Y08M08                         A3    C        13:42:54:03 13:42:56:02 01:05:31:16 01:05:33:15 
*FROM CLIP NAME:  5-6BK9/02.SYNC.01 
*SOURCE FILE: 19Y08M08
001558  19Y08M08                         A4    C        13:42:54:03 13:42:56:02 01:05:31:16 01:05:33:15 
*FROM CLIP NAME:  5-6BK9/02.SYNC.01 
*SOURCE FILE: 19Y08M08
001559  19Y08M08                         A5    C        13:42:54:03 13:42:56:02 01:05:31:16 01:05:33:15 
*FROM CLIP NAME:  5-6BK9/02.SYNC.01 
*SOURCE FILE: 19Y08M08
001560  19Y08M08                         A6    C        13:42:54:03 13:42:56:02 01:05:31:16 01:05:33:15 
*FROM CLIP NAME:  5-6BK9/02.SYNC.01 
*SOURCE FILE: 19Y08M08
001561  19Y08M08                         A7    C        13:42:54:03 13:42:56:02 01:05:31:16 01:05:33:15 
*FROM CLIP NAME:  5-6BK9/02.SYNC.01 
*SOURCE FILE: 19Y08M08
001562  19Y08M08                         A8    C        13:42:54:03 13:42:56:02 01:05:31:16 01:05:33:15 
*FROM CLIP NAME:  5-6BK9/02.SYNC.01 
*SOURCE FILE: 19Y08M08
001563  19Y08M08                         A9    C        13:42:54:03 13:42:56:02 01:05:31:16 01:05:33:15 
*FROM CLIP NAME:  5-6BK9/02.SYNC.01 
*SOURCE FILE: 19Y08M08
001564  19Y08M08                         A10   C        13:42:54:03 13:42:56:02 01:05:31:16 01:05:33:15 
*FROM CLIP NAME:  5-6BK9/02.SYNC.01 
*PATCH 19Y08M08:  FROM SOURCE 1 TO RECORD 10 
*SOURCE FILE: 19Y08M08
001565  CAVENDISH_AB-C030704_LIFT_IT_UP. A15   C        01:02:02:13 01:02:33:00 01:05:31:16 01:06:02:03 
*FROM CLIP NAME:  CAVENDISH_AB-C030704_LIFT_IT_UP.MP3 
*A15 VOL = -14.0 DB  PAN R100 
*PATCH CAVENDISH_AB-C030704_LIFT_IT_UP.:  FROM SOURCE 1 TO RECORD 15 
*SOURCE FILE: CAVENDISH_AB-C030704_LIFT_IT_UP.MP3
001566  CAVENDISH_AB-C030704_LIFT_IT_UP. A16   C        01:02:02:13 01:02:33:00 01:05:31:16 01:06:02:03 
*FROM CLIP NAME:  CAVENDISH_AB-C030704_LIFT_IT_UP.MP3 
*A16 VOL = -14.0 DB  PAN L100 
*PATCH CAVENDISH_AB-C030704_LIFT_IT_UP.:  FROM SOURCE 2 TO RECORD 16 
*SOURCE FILE: CAVENDISH_AB-C030704_LIFT_IT_UP.MP3
001567  MSMMMOB.50                       V     C        13:58:29:01 13:58:30:14 01:05:33:15 01:05:35:03 
M2      MSMMMOB.50                                025.0 13:58:29:01 
*FROM CLIP NAME:  A053C001_190808_R32C 
*SOURCE FILE: MSMMMOB.50
001568  19Y08M08                         A     C        13:58:29:02 13:58:30:15 01:05:33:15 01:05:35:03 
*FROM CLIP NAME:  5-6BK9/03 
*SOURCE FILE: 19Y08M08
001569  19Y08M08                         A2    C        13:58:29:02 13:58:30:15 01:05:33:15 01:05:35:03 
*FROM CLIP NAME:  5-6BK9/03 
*SOURCE FILE: 19Y08M08
001570  19Y08M08                         A3    C        13:58:29:02 13:58:30:15 01:05:33:15 01:05:35:03 
*FROM CLIP NAME:  5-6BK9/03 
*SOURCE FILE: 19Y08M08
001571  19Y08M08                         A4    C        13:58:29:02 13:58:30:15 01:05:33:15 01:05:35:03 
*FROM CLIP NAME:  5-6BK9/03 
*SOURCE FILE: 19Y08M08
001572  19Y08M08                         A5    C        13:58:29:02 13:58:30:15 01:05:33:15 01:05:35:03 
*FROM CLIP NAME:  5-6BK9/03 
*SOURCE FILE: 19Y08M08
001573  19Y08M08                         A6    C        13:58:29:02 13:58:30:15 01:05:33:15 01:05:35:03 
*FROM CLIP NAME:  5-6BK9/03 
*SOURCE FILE: 19Y08M08
001574  19Y08M08                         A7    C        13:58:29:02 13:58:30:15 01:05:33:15 01:05:35:03 
*FROM CLIP NAME:  5-6BK9/03 
*SOURCE FILE: 19Y08M08
001575  19Y08M08                         A8    C        13:58:29:02 13:58:30:15 01:05:33:15 01:05:35:03 
*FROM CLIP NAME:  5-6BK9/03 
*SOURCE FILE: 19Y08M08
001576  19Y08M08                         A9    C        13:58:29:02 13:58:30:15 01:05:33:15 01:05:35:03 
*FROM CLIP NAME:  5-6BK9/03 
*SOURCE FILE: 19Y08M08
001577  MSMMMOB.46                       V     C        12:45:42:09 12:45:43:11 01:05:35:03 01:05:36:05 
M2      MSMMMOB.46                                025.0 12:45:42:09 
*FROM CLIP NAME:  B006C003_190808_R16N 
*SOURCE FILE: MSMMMOB.46
001578  19Y08M08                         A     C        12:45:42:09 12:45:43:11 01:05:35:03 01:05:36:05 
*FROM CLIP NAME:  5-6BK6/02.SYNC.01 
*SOURCE FILE: 19Y08M08
001579  19Y08M08                         A2    C        12:45:42:09 12:45:43:11 01:05:35:03 01:05:36:05 
*FROM CLIP NAME:  5-6BK6/02.SYNC.01 
*SOURCE FILE: 19Y08M08
001580  19Y08M08                         A3    C        12:45:42:09 12:45:43:11 01:05:35:03 01:05:36:05 
*FROM CLIP NAME:  5-6BK6/02.SYNC.01 
*SOURCE FILE: 19Y08M08
001581  19Y08M08                         A4    C        12:45:42:09 12:45:43:11 01:05:35:03 01:05:36:05 
*FROM CLIP NAME:  5-6BK6/02.SYNC.01 
*SOURCE FILE: 19Y08M08
001582  19Y08M08                         A5    C        12:45:42:09 12:45:43:11 01:05:35:03 01:05:36:05 
*FROM CLIP NAME:  5-6BK6/02.SYNC.01 
*SOURCE FILE: 19Y08M08
001583  19Y08M08                         A6    C        12:45:42:09 12:45:43:11 01:05:35:03 01:05:36:05 
*FROM CLIP NAME:  5-6BK6/02.SYNC.01 
*SOURCE FILE: 19Y08M08
001584  19Y08M08                         A7    C        12:45:42:09 12:45:43:11 01:05:35:03 01:05:36:05 
*FROM CLIP NAME:  5-6BK6/02.SYNC.01 
*SOURCE FILE: 19Y08M08
001585  19Y08M08                         A8    C        12:45:42:09 12:45:43:11 01:05:35:03 01:05:36:05 
*FROM CLIP NAME:  5-6BK6/02.SYNC.01 
*SOURCE FILE: 19Y08M08
001586  19Y08M08                         A9    C        12:45:42:09 12:45:43:11 01:05:35:03 01:05:36:05 
*FROM CLIP NAME:  5-6BK6/02.SYNC.01 
*SOURCE FILE: 19Y08M08
001587  19Y08M08                         A10   C        12:45:42:09 12:45:43:11 01:05:35:03 01:05:36:05 
*FROM CLIP NAME:  5-6BK6/02.SYNC.01 
*PATCH 19Y08M08:  FROM SOURCE 1 TO RECORD 10 
*SOURCE FILE: 19Y08M08
001588  MSMMMOB.04                       V     C        13:43:13:06 13:43:15:13 01:05:36:05 01:05:38:12 
M2      MSMMMOB.04                                025.0 13:43:13:06 
*FROM CLIP NAME:  B007C006_190808_R16N 
*SOURCE FILE: MSMMMOB.04
001589  19Y08M08                         A     C        13:43:13:06 13:43:15:13 01:05:36:05 01:05:38:12 
*FROM CLIP NAME:  5-6BK9/02.SYNC.01 
*SOURCE FILE: 19Y08M08
001590  19Y08M08                         A2    C        13:43:13:06 13:43:15:13 01:05:36:05 01:05:38:12 
*FROM CLIP NAME:  5-6BK9/02.SYNC.01 
*SOURCE FILE: 19Y08M08
001591  19Y08M08                         A3    C        13:43:13:06 13:43:15:13 01:05:36:05 01:05:38:12 
*FROM CLIP NAME:  5-6BK9/02.SYNC.01 
*SOURCE FILE: 19Y08M08
001592  19Y08M08                         A4    C        13:43:13:06 13:43:15:13 01:05:36:05 01:05:38:12 
*FROM CLIP NAME:  5-6BK9/02.SYNC.01 
*SOURCE FILE: 19Y08M08
001593  19Y08M08                         A5    C        13:43:13:06 13:43:15:13 01:05:36:05 01:05:38:12 
*FROM CLIP NAME:  5-6BK9/02.SYNC.01 
*SOURCE FILE: 19Y08M08
001594  19Y08M08                         A6    C        13:43:13:06 13:43:15:13 01:05:36:05 01:05:38:12 
*FROM CLIP NAME:  5-6BK9/02.SYNC.01 
*SOURCE FILE: 19Y08M08
001595  19Y08M08                         A7    C        13:43:13:06 13:43:15:13 01:05:36:05 01:05:38:12 
*FROM CLIP NAME:  5-6BK9/02.SYNC.01 
*SOURCE FILE: 19Y08M08
001596  19Y08M08                         A8    C        13:43:13:06 13:43:15:13 01:05:36:05 01:05:38:12 
*FROM CLIP NAME:  5-6BK9/02.SYNC.01 
*SOURCE FILE: 19Y08M08
001597  19Y08M08                         A9    C        13:43:13:06 13:43:15:13 01:05:36:05 01:05:38:12 
*FROM CLIP NAME:  5-6BK9/02.SYNC.01 
*SOURCE FILE: 19Y08M08
001598  19Y08M08                         A10   C        13:43:13:06 13:43:15:13 01:05:36:05 01:05:38:12 
*FROM CLIP NAME:  5-6BK9/02.SYNC.01 
*PATCH 19Y08M08:  FROM SOURCE 1 TO RECORD 10 
*SOURCE FILE: 19Y08M08
001599  MSMMMOB.52                       V     C        14:12:09:14 14:12:10:09 01:05:38:12 01:05:39:07 
M2      MSMMMOB.52                                025.0 14:12:09:14 
*FROM CLIP NAME:  B007C009_190808_R16N 
*SOURCE FILE: MSMMMOB.52
001600  19Y08M08                         A     C        14:12:09:13 14:12:10:08 01:05:38:12 01:05:39:07 
*FROM CLIP NAME:  5-6BK9/04 
*SOURCE FILE: 19Y08M08
001601  19Y08M08                         A2    C        14:12:09:13 14:12:10:08 01:05:38:12 01:05:39:07 
*FROM CLIP NAME:  5-6BK9/04 
*SOURCE FILE: 19Y08M08
001602  19Y08M08                         A3    C        14:12:09:13 14:12:10:08 01:05:38:12 01:05:39:07 
*FROM CLIP NAME:  5-6BK9/04 
*SOURCE FILE: 19Y08M08
001603  19Y08M08                         A4    C        14:12:09:13 14:12:10:08 01:05:38:12 01:05:39:07 
*FROM CLIP NAME:  5-6BK9/04 
*SOURCE FILE: 19Y08M08
001604  19Y08M08                         A5    C        14:12:09:13 14:12:10:08 01:05:38:12 01:05:39:07 
*FROM CLIP NAME:  5-6BK9/04 
*SOURCE FILE: 19Y08M08
001605  19Y08M08                         A6    C        14:12:09:13 14:12:10:08 01:05:38:12 01:05:39:07 
*FROM CLIP NAME:  5-6BK9/04 
*SOURCE FILE: 19Y08M08
001606  19Y08M08                         A7    C        14:12:09:13 14:12:10:08 01:05:38:12 01:05:39:07 
*FROM CLIP NAME:  5-6BK9/04 
*SOURCE FILE: 19Y08M08
001607  19Y08M08                         A8    C        14:12:09:13 14:12:10:08 01:05:38:12 01:05:39:07 
*FROM CLIP NAME:  5-6BK9/04 
*SOURCE FILE: 19Y08M08
001608  19Y08M08                         A9    C        14:12:09:13 14:12:10:08 01:05:38:12 01:05:39:07 
*FROM CLIP NAME:  5-6BK9/04 
*SOURCE FILE: 19Y08M08
001609  19Y08M08                         A     C        13:43:14:04 13:43:14:22 01:05:39:07 01:05:40:00 
*FROM CLIP NAME:  5-6BK9/02.SYNC.01 
*SOURCE FILE: 19Y08M08
001610  19Y08M08                         A2    C        13:43:14:04 13:43:14:22 01:05:39:07 01:05:40:00 
*FROM CLIP NAME:  5-6BK9/02.SYNC.01 
*SOURCE FILE: 19Y08M08
001611  19Y08M08                         A3    C        13:43:14:04 13:43:14:22 01:05:39:07 01:05:40:00 
*FROM CLIP NAME:  5-6BK9/02.SYNC.01 
*SOURCE FILE: 19Y08M08
001612  19Y08M08                         A4    C        13:43:14:04 13:43:14:22 01:05:39:07 01:05:40:00 
*FROM CLIP NAME:  5-6BK9/02.SYNC.01 
*SOURCE FILE: 19Y08M08
001613  19Y08M08                         A5    C        13:43:14:04 13:43:14:22 01:05:39:07 01:05:40:00 
*FROM CLIP NAME:  5-6BK9/02.SYNC.01 
*SOURCE FILE: 19Y08M08
001614  19Y08M08                         A6    C        13:43:14:04 13:43:14:22 01:05:39:07 01:05:40:00 
*FROM CLIP NAME:  5-6BK9/02.SYNC.01 
*SOURCE FILE: 19Y08M08
001615  19Y08M08                         A7    C        13:43:14:04 13:43:14:22 01:05:39:07 01:05:40:00 
*FROM CLIP NAME:  5-6BK9/02.SYNC.01 
*SOURCE FILE: 19Y08M08
001616  19Y08M08                         A8    C        13:43:14:04 13:43:14:22 01:05:39:07 01:05:40:00 
*FROM CLIP NAME:  5-6BK9/02.SYNC.01 
*SOURCE FILE: 19Y08M08
001617  19Y08M08                         A9    C        13:43:14:04 13:43:14:22 01:05:39:07 01:05:40:00 
*FROM CLIP NAME:  5-6BK9/02.SYNC.01 
*SOURCE FILE: 19Y08M08
001618  19Y08M08                         A10   C        13:43:14:04 13:43:14:22 01:05:39:07 01:05:40:00 
*FROM CLIP NAME:  5-6BK9/02.SYNC.01 
*PATCH 19Y08M08:  FROM SOURCE 1 TO RECORD 10 
*SOURCE FILE: 19Y08M08
001619  MSMMMOB.04                       V     C        13:43:18:13 13:43:19:22 01:05:39:07 01:05:40:16 
M2      MSMMMOB.04                                025.0 13:43:18:13 
*FROM CLIP NAME:  B007C006_190808_R16N 
*SOURCE FILE: MSMMMOB.04
001620  19Y08M08                         A     C        12:54:57:06 12:54:59:00 01:05:40:00 01:05:41:19 
*FROM CLIP NAME:  5-6BK7/02.SYNC.01 
*SOURCE FILE: 19Y08M08
001621  19Y08M08                         A2    C        12:54:57:06 12:54:59:00 01:05:40:00 01:05:41:19 
*FROM CLIP NAME:  5-6BK7/02.SYNC.01 
*SOURCE FILE: 19Y08M08
001622  19Y08M08                         A3    C        12:54:57:06 12:54:59:00 01:05:40:00 01:05:41:19 
*FROM CLIP NAME:  5-6BK7/02.SYNC.01 
*SOURCE FILE: 19Y08M08
001623  19Y08M08                         A4    C        12:54:57:06 12:54:59:00 01:05:40:00 01:05:41:19 
*FROM CLIP NAME:  5-6BK7/02.SYNC.01 
*SOURCE FILE: 19Y08M08
001624  19Y08M08                         A5    C        12:54:57:06 12:54:59:00 01:05:40:00 01:05:41:19 
*FROM CLIP NAME:  5-6BK7/02.SYNC.01 
*SOURCE FILE: 19Y08M08
001625  19Y08M08                         A6    C        12:54:57:06 12:54:59:00 01:05:40:00 01:05:41:19 
*FROM CLIP NAME:  5-6BK7/02.SYNC.01 
*SOURCE FILE: 19Y08M08
001626  19Y08M08                         A7    C        12:54:57:06 12:54:59:00 01:05:40:00 01:05:41:19 
*FROM CLIP NAME:  5-6BK7/02.SYNC.01 
*SOURCE FILE: 19Y08M08
001627  19Y08M08                         A8    C        12:54:57:06 12:54:59:00 01:05:40:00 01:05:41:19 
*FROM CLIP NAME:  5-6BK7/02.SYNC.01 
*SOURCE FILE: 19Y08M08
001628  19Y08M08                         A10   C        12:54:57:06 12:54:59:00 01:05:40:00 01:05:41:19 
*FROM CLIP NAME:  5-6BK7/02.SYNC.01 
*PATCH 19Y08M08:  FROM SOURCE 1 TO RECORD 10 
*SOURCE FILE: 19Y08M08
001629  MSMMMOB.74                       V     C        12:54:57:22 12:54:59:00 01:05:40:16 01:05:41:19 
M2      MSMMMOB.74                                025.0 12:54:57:22 
*FROM CLIP NAME:  B007C002_190808_R16N 
*SOURCE FILE: MSMMMOB.74
001630  19Y08M08                         A9    C        11:16:21:05 11:16:22:00 01:05:41:19 01:05:42:14 
*FROM CLIP NAME:  5-6BK1/03.SYNC.01 
*SOURCE FILE: 19Y08M08
001631  19Y08M08                         A     C        11:16:21:05 11:16:22:01 01:05:41:19 01:05:42:15 
*FROM CLIP NAME:  5-6BK1/03.SYNC.01 
*SOURCE FILE: 19Y08M08
001632  19Y08M08                         A2    C        11:16:21:05 11:16:22:01 01:05:41:19 01:05:42:15 
*FROM CLIP NAME:  5-6BK1/03.SYNC.01 
*SOURCE FILE: 19Y08M08
001633  19Y08M08                         A3    C        11:16:21:05 11:16:22:01 01:05:41:19 01:05:42:15 
*FROM CLIP NAME:  5-6BK1/03.SYNC.01 
*SOURCE FILE: 19Y08M08
001634  19Y08M08                         A4    C        11:16:21:05 11:16:22:01 01:05:41:19 01:05:42:15 
*FROM CLIP NAME:  5-6BK1/03.SYNC.01 
*SOURCE FILE: 19Y08M08
001635  19Y08M08                         A5    C        11:16:21:05 11:16:22:01 01:05:41:19 01:05:42:15 
*FROM CLIP NAME:  5-6BK1/03.SYNC.01 
*SOURCE FILE: 19Y08M08
001636  19Y08M08                         A6    C        11:16:21:05 11:16:22:01 01:05:41:19 01:05:42:15 
*FROM CLIP NAME:  5-6BK1/03.SYNC.01 
*SOURCE FILE: 19Y08M08
001637  19Y08M08                         A7    C        11:16:21:05 11:16:22:01 01:05:41:19 01:05:42:15 
*FROM CLIP NAME:  5-6BK1/03.SYNC.01 
*SOURCE FILE: 19Y08M08
001638  19Y08M08                         A8    C        11:16:21:05 11:16:22:01 01:05:41:19 01:05:42:15 
*FROM CLIP NAME:  5-6BK1/03.SYNC.01 
*SOURCE FILE: 19Y08M08
001639  19Y08M08                         A10   C        11:16:21:05 11:16:22:01 01:05:41:19 01:05:42:15 
*FROM CLIP NAME:  5-6BK1/03.SYNC.01 
*PATCH 19Y08M08:  FROM SOURCE 1 TO RECORD 10 
*SOURCE FILE: 19Y08M08
001640  MSMMMOB.06                       V     C        11:16:21:05 11:16:22:11 01:05:41:19 01:05:43:00 
M2      MSMMMOB.06                                025.0 11:16:21:05 
*FROM CLIP NAME:  A050C003_190808_R32C 
*SOURCE FILE: MSMMMOB.06
001641  19Y08M08                         A     C        11:16:22:01 11:16:22:11 01:05:42:15 01:05:43:00 
*FROM CLIP NAME:  5-6BK1/03.SYNC.01 
*A1 VOL = -27.5 DB  PAN R100 
*SOURCE FILE: 19Y08M08
001642  19Y08M08                         A3    C        11:16:22:01 11:16:22:11 01:05:42:15 01:05:43:00 
*FROM CLIP NAME:  5-6BK1/03.SYNC.01 
*A3 VOL = -30.7 DB  PAN R100 
*SOURCE FILE: 19Y08M08
001643  19Y08M08                         A4    C        11:16:22:01 11:16:22:11 01:05:42:15 01:05:43:00 
*FROM CLIP NAME:  5-6BK1/03.SYNC.01 
*A4 VOL = -37.5 DB  PAN L100 
*SOURCE FILE: 19Y08M08
001644  19Y08M08                         A5    C        11:16:22:01 11:16:22:11 01:05:42:15 01:05:43:00 
*FROM CLIP NAME:  5-6BK1/03.SYNC.01 
*A5 VOL = -28.3 DB  PAN R100 
*SOURCE FILE: 19Y08M08
001645  19Y08M08                         A6    C        11:16:22:01 11:16:22:11 01:05:42:15 01:05:43:00 
*FROM CLIP NAME:  5-6BK1/03.SYNC.01 
*SOURCE FILE: 19Y08M08
001646  19Y08M08                         A7    C        11:16:22:01 11:16:22:11 01:05:42:15 01:05:43:00 
*FROM CLIP NAME:  5-6BK1/03.SYNC.01 
*SOURCE FILE: 19Y08M08
001647  19Y08M08                         A8    C        11:16:22:01 11:16:22:11 01:05:42:15 01:05:43:00 
*FROM CLIP NAME:  5-6BK1/03.SYNC.01 
*SOURCE FILE: 19Y08M08
001648  19Y08M08                         A10   C        11:16:22:01 11:16:22:11 01:05:42:15 01:05:43:00 
*FROM CLIP NAME:  5-6BK1/03.SYNC.01 
*PATCH 19Y08M08:  FROM SOURCE 1 TO RECORD 10 
*SOURCE FILE: 19Y08M08
001649  MSMMMOB.50                       V     C        13:58:40:17 13:58:41:15 01:05:43:00 01:05:43:23 
M2      MSMMMOB.50                                025.0 13:58:40:17 
*FROM CLIP NAME:  A053C001_190808_R32C 
*SOURCE FILE: MSMMMOB.50
001650  19Y08M08                         A     C        13:58:40:18 13:58:41:16 01:05:43:00 01:05:43:23 
*FROM CLIP NAME:  5-6BK9/03 
*SOURCE FILE: 19Y08M08
001651  19Y08M08                         A2    C        13:58:40:18 13:58:41:16 01:05:43:00 01:05:43:23 
*FROM CLIP NAME:  5-6BK9/03 
*SOURCE FILE: 19Y08M08
001652  19Y08M08                         A3    C        13:58:40:18 13:58:41:16 01:05:43:00 01:05:43:23 
*FROM CLIP NAME:  5-6BK9/03 
*SOURCE FILE: 19Y08M08
001653  19Y08M08                         A4    C        13:58:40:18 13:58:41:16 01:05:43:00 01:05:43:23 
*FROM CLIP NAME:  5-6BK9/03 
*SOURCE FILE: 19Y08M08
001654  19Y08M08                         A5    C        13:58:40:18 13:58:41:16 01:05:43:00 01:05:43:23 
*FROM CLIP NAME:  5-6BK9/03 
*SOURCE FILE: 19Y08M08
001655  19Y08M08                         A6    C        13:58:40:18 13:58:41:16 01:05:43:00 01:05:43:23 
*FROM CLIP NAME:  5-6BK9/03 
*SOURCE FILE: 19Y08M08
001656  19Y08M08                         A7    C        13:58:40:18 13:58:41:16 01:05:43:00 01:05:43:23 
*FROM CLIP NAME:  5-6BK9/03 
*SOURCE FILE: 19Y08M08
001657  19Y08M08                         A8    C        13:58:40:18 13:58:41:16 01:05:43:00 01:05:43:23 
*FROM CLIP NAME:  5-6BK9/03 
*SOURCE FILE: 19Y08M08
001658  19Y08M08                         A9    C        13:58:40:18 13:58:41:16 01:05:43:00 01:05:43:23 
*FROM CLIP NAME:  5-6BK9/03 
*SOURCE FILE: 19Y08M08
001659  MSMMMOB.39                       V     C        13:43:26:11 13:43:28:04 01:05:43:23 01:05:45:16 
M2      MSMMMOB.39                                025.0 13:43:26:11 
*FROM CLIP NAME:  A052C006_190808_R32C 
*SOURCE FILE: MSMMMOB.39
001660  19Y08M08                         A     C        13:43:26:11 13:43:28:04 01:05:43:23 01:05:45:16 
*FROM CLIP NAME:  5-6BK9/02.SYNC.01 
*SOURCE FILE: 19Y08M08
001661  19Y08M08                         A2    C        13:43:26:11 13:43:28:04 01:05:43:23 01:05:45:16 
*FROM CLIP NAME:  5-6BK9/02.SYNC.01 
*SOURCE FILE: 19Y08M08
001662  19Y08M08                         A3    C        13:43:26:11 13:43:28:04 01:05:43:23 01:05:45:16 
*FROM CLIP NAME:  5-6BK9/02.SYNC.01 
*SOURCE FILE: 19Y08M08
001663  19Y08M08                         A4    C        13:43:26:11 13:43:28:04 01:05:43:23 01:05:45:16 
*FROM CLIP NAME:  5-6BK9/02.SYNC.01 
*SOURCE FILE: 19Y08M08
001664  19Y08M08                         A5    C        13:43:26:11 13:43:28:04 01:05:43:23 01:05:45:16 
*FROM CLIP NAME:  5-6BK9/02.SYNC.01 
*SOURCE FILE: 19Y08M08
001665  19Y08M08                         A6    C        13:43:26:11 13:43:28:04 01:05:43:23 01:05:45:16 
*FROM CLIP NAME:  5-6BK9/02.SYNC.01 
*SOURCE FILE: 19Y08M08
001666  19Y08M08                         A7    C        13:43:26:11 13:43:28:04 01:05:43:23 01:05:45:16 
*FROM CLIP NAME:  5-6BK9/02.SYNC.01 
*SOURCE FILE: 19Y08M08
001667  19Y08M08                         A8    C        13:43:26:11 13:43:28:04 01:05:43:23 01:05:45:16 
*FROM CLIP NAME:  5-6BK9/02.SYNC.01 
*SOURCE FILE: 19Y08M08
001668  19Y08M08                         A9    C        13:43:26:11 13:43:28:04 01:05:43:23 01:05:45:16 
*FROM CLIP NAME:  5-6BK9/02.SYNC.01 
*SOURCE FILE: 19Y08M08
001669  19Y08M08                         A10   C        13:43:26:11 13:43:28:04 01:05:43:23 01:05:45:16 
*FROM CLIP NAME:  5-6BK9/02.SYNC.01 
*PATCH 19Y08M08:  FROM SOURCE 1 TO RECORD 10 
*SOURCE FILE: 19Y08M08
001670  MSMMMOB.22                       V     C        13:21:22:09 13:21:23:18 01:05:45:16 01:05:47:00 
M2      MSMMMOB.22                                025.0 13:21:22:09 
*FROM CLIP NAME:  A052C004_190808_R32C 
*SOURCE FILE: MSMMMOB.22
001671  19Y08M08                         A     C        13:21:22:09 13:21:23:18 01:05:45:16 01:05:47:00 
*FROM CLIP NAME:  5-6BK8/02.SYNC.01 
*SOURCE FILE: 19Y08M08
001672  19Y08M08                         A2    C        13:21:22:09 13:21:23:18 01:05:45:16 01:05:47:00 
*FROM CLIP NAME:  5-6BK8/02.SYNC.01 
*SOURCE FILE: 19Y08M08
001673  19Y08M08                         A3    C        13:21:22:09 13:21:23:18 01:05:45:16 01:05:47:00 
*FROM CLIP NAME:  5-6BK8/02.SYNC.01 
*SOURCE FILE: 19Y08M08
001674  19Y08M08                         A4    C        13:21:22:09 13:21:23:18 01:05:45:16 01:05:47:00 
*FROM CLIP NAME:  5-6BK8/02.SYNC.01 
*SOURCE FILE: 19Y08M08
001675  19Y08M08                         A5    C        13:21:22:09 13:21:23:18 01:05:45:16 01:05:47:00 
*FROM CLIP NAME:  5-6BK8/02.SYNC.01 
*SOURCE FILE: 19Y08M08
001676  19Y08M08                         A6    C        13:21:22:09 13:21:23:18 01:05:45:16 01:05:47:00 
*FROM CLIP NAME:  5-6BK8/02.SYNC.01 
*SOURCE FILE: 19Y08M08
001677  19Y08M08                         A7    C        13:21:22:09 13:21:23:18 01:05:45:16 01:05:47:00 
*FROM CLIP NAME:  5-6BK8/02.SYNC.01 
*SOURCE FILE: 19Y08M08
001678  19Y08M08                         A8    C        13:21:22:09 13:21:23:18 01:05:45:16 01:05:47:00 
*FROM CLIP NAME:  5-6BK8/02.SYNC.01 
*SOURCE FILE: 19Y08M08
001679  19Y08M08                         A9    C        13:21:22:09 13:21:23:18 01:05:45:16 01:05:47:00 
*FROM CLIP NAME:  5-6BK8/02.SYNC.01 
*SOURCE FILE: 19Y08M08
001680  19Y08M08                         A10   C        13:21:22:09 13:21:23:18 01:05:45:16 01:05:47:00 
*FROM CLIP NAME:  5-6BK8/02.SYNC.01 
*PATCH 19Y08M08:  FROM SOURCE 1 TO RECORD 10 
*SOURCE FILE: 19Y08M08
001681  19Y08M08                         A     C        13:43:35:23 13:43:36:15 01:05:47:00 01:05:47:17 
*FROM CLIP NAME:  5-6BK9/02.SYNC.01 
*SOURCE FILE: 19Y08M08
001682  19Y08M08                         A2    C        13:43:35:23 13:43:36:15 01:05:47:00 01:05:47:17 
*FROM CLIP NAME:  5-6BK9/02.SYNC.01 
*SOURCE FILE: 19Y08M08
001683  19Y08M08                         A3    C        13:43:35:23 13:43:36:15 01:05:47:00 01:05:47:17 
*FROM CLIP NAME:  5-6BK9/02.SYNC.01 
*SOURCE FILE: 19Y08M08
001684  19Y08M08                         A4    C        13:43:35:23 13:43:36:15 01:05:47:00 01:05:47:17 
*FROM CLIP NAME:  5-6BK9/02.SYNC.01 
*SOURCE FILE: 19Y08M08
001685  19Y08M08                         A5    C        13:43:35:23 13:43:36:15 01:05:47:00 01:05:47:17 
*FROM CLIP NAME:  5-6BK9/02.SYNC.01 
*SOURCE FILE: 19Y08M08
001686  19Y08M08                         A6    C        13:43:35:23 13:43:36:15 01:05:47:00 01:05:47:17 
*FROM CLIP NAME:  5-6BK9/02.SYNC.01 
*SOURCE FILE: 19Y08M08
001687  19Y08M08                         A7    C        13:43:35:23 13:43:36:15 01:05:47:00 01:05:47:17 
*FROM CLIP NAME:  5-6BK9/02.SYNC.01 
*SOURCE FILE: 19Y08M08
001688  19Y08M08                         A8    C        13:43:35:23 13:43:36:15 01:05:47:00 01:05:47:17 
*FROM CLIP NAME:  5-6BK9/02.SYNC.01 
*SOURCE FILE: 19Y08M08
001689  19Y08M08                         A9    C        13:43:35:23 13:43:36:15 01:05:47:00 01:05:47:17 
*FROM CLIP NAME:  5-6BK9/02.SYNC.01 
*SOURCE FILE: 19Y08M08
001690  19Y08M08                         A10   C        13:43:35:23 13:43:36:15 01:05:47:00 01:05:47:17 
*FROM CLIP NAME:  5-6BK9/02.SYNC.01 
*PATCH 19Y08M08:  FROM SOURCE 1 TO RECORD 10 
*SOURCE FILE: 19Y08M08
001691  MSMMMOB.39                       V     C        13:43:32:18 13:43:35:06 01:05:47:00 01:05:49:13 
M2      MSMMMOB.39                                025.0 13:43:32:18 
*FROM CLIP NAME:  A052C006_190808_R32C 
*SOURCE FILE: MSMMMOB.39
001692  19Y08M08                         A     C        13:43:32:15 13:43:33:05 01:05:47:17 01:05:48:07 
*FROM CLIP NAME:  5-6BK9/02.SYNC.01 
*SOURCE FILE: 19Y08M08
001693  19Y08M08                         A2    C        13:43:32:15 13:43:33:05 01:05:47:17 01:05:48:07 
*FROM CLIP NAME:  5-6BK9/02.SYNC.01 
*SOURCE FILE: 19Y08M08
001694  19Y08M08                         A3    C        13:43:32:15 13:43:33:05 01:05:47:17 01:05:48:07 
*FROM CLIP NAME:  5-6BK9/02.SYNC.01 
*SOURCE FILE: 19Y08M08
001695  19Y08M08                         A4    C        13:43:32:15 13:43:33:05 01:05:47:17 01:05:48:07 
*FROM CLIP NAME:  5-6BK9/02.SYNC.01 
*SOURCE FILE: 19Y08M08
001696  19Y08M08                         A5    C        13:43:32:15 13:43:33:05 01:05:47:17 01:05:48:07 
*FROM CLIP NAME:  5-6BK9/02.SYNC.01 
*SOURCE FILE: 19Y08M08
001697  19Y08M08                         A6    C        13:43:32:15 13:43:33:05 01:05:47:17 01:05:48:07 
*FROM CLIP NAME:  5-6BK9/02.SYNC.01 
*SOURCE FILE: 19Y08M08
001698  19Y08M08                         A7    C        13:43:32:15 13:43:33:05 01:05:47:17 01:05:48:07 
*FROM CLIP NAME:  5-6BK9/02.SYNC.01 
*SOURCE FILE: 19Y08M08
001699  19Y08M08                         A8    C        13:43:32:15 13:43:33:05 01:05:47:17 01:05:48:07 
*FROM CLIP NAME:  5-6BK9/02.SYNC.01 
*SOURCE FILE: 19Y08M08
001700  19Y08M08                         A9    C        13:43:32:15 13:43:33:05 01:05:47:17 01:05:48:07 
*FROM CLIP NAME:  5-6BK9/02.SYNC.01 
*SOURCE FILE: 19Y08M08
001701  19Y08M08                         A10   C        13:43:32:15 13:43:33:05 01:05:47:17 01:05:48:07 
*FROM CLIP NAME:  5-6BK9/02.SYNC.01 
*PATCH 19Y08M08:  FROM SOURCE 1 TO RECORD 10 
*SOURCE FILE: 19Y08M08
001702  19Y08M08                         A     C        13:43:34:00 13:43:35:06 01:05:48:07 01:05:49:13 
*FROM CLIP NAME:  5-6BK9/02.SYNC.01 
*SOURCE FILE: 19Y08M08
001703  19Y08M08                         A2    C        13:43:34:00 13:43:35:06 01:05:48:07 01:05:49:13 
*FROM CLIP NAME:  5-6BK9/02.SYNC.01 
*SOURCE FILE: 19Y08M08
001704  19Y08M08                         A3    C        13:43:34:00 13:43:35:06 01:05:48:07 01:05:49:13 
*FROM CLIP NAME:  5-6BK9/02.SYNC.01 
*SOURCE FILE: 19Y08M08
001705  19Y08M08                         A4    C        13:43:34:00 13:43:35:06 01:05:48:07 01:05:49:13 
*FROM CLIP NAME:  5-6BK9/02.SYNC.01 
*SOURCE FILE: 19Y08M08
001706  19Y08M08                         A5    C        13:43:34:00 13:43:35:06 01:05:48:07 01:05:49:13 
*FROM CLIP NAME:  5-6BK9/02.SYNC.01 
*SOURCE FILE: 19Y08M08
001707  19Y08M08                         A6    C        13:43:34:00 13:43:35:06 01:05:48:07 01:05:49:13 
*FROM CLIP NAME:  5-6BK9/02.SYNC.01 
*SOURCE FILE: 19Y08M08
001708  19Y08M08                         A7    C        13:43:34:00 13:43:35:06 01:05:48:07 01:05:49:13 
*FROM CLIP NAME:  5-6BK9/02.SYNC.01 
*SOURCE FILE: 19Y08M08
001709  19Y08M08                         A8    C        13:43:34:00 13:43:35:06 01:05:48:07 01:05:49:13 
*FROM CLIP NAME:  5-6BK9/02.SYNC.01 
*SOURCE FILE: 19Y08M08
001710  19Y08M08                         A9    C        13:43:34:00 13:43:35:06 01:05:48:07 01:05:49:13 
*FROM CLIP NAME:  5-6BK9/02.SYNC.01 
*SOURCE FILE: 19Y08M08
001711  19Y08M08                         A10   C        13:43:34:00 13:43:35:06 01:05:48:07 01:05:49:13 
*FROM CLIP NAME:  5-6BK9/02.SYNC.01 
*PATCH 19Y08M08:  FROM SOURCE 1 TO RECORD 10 
*SOURCE FILE: 19Y08M08
001712  MSMMMOB.85                       V     C        14:12:23:06 14:12:24:17 01:05:49:13 01:05:50:24 
M2      MSMMMOB.85                                025.0 14:12:23:06 
*FROM CLIP NAME:  A053C003_190808_R32C 
*SOURCE FILE: MSMMMOB.85
001713  19Y08M08                         A     C        14:12:23:05 14:12:24:16 01:05:49:13 01:05:50:24 
*FROM CLIP NAME:  5-6BK9/04 
*SOURCE FILE: 19Y08M08
001714  19Y08M08                         A2    C        14:12:23:05 14:12:24:16 01:05:49:13 01:05:50:24 
*FROM CLIP NAME:  5-6BK9/04 
*SOURCE FILE: 19Y08M08
001715  19Y08M08                         A3    C        14:12:23:05 14:12:24:16 01:05:49:13 01:05:50:24 
*FROM CLIP NAME:  5-6BK9/04 
*SOURCE FILE: 19Y08M08
001716  19Y08M08                         A4    C        14:12:23:05 14:12:24:16 01:05:49:13 01:05:50:24 
*FROM CLIP NAME:  5-6BK9/04 
*SOURCE FILE: 19Y08M08
001717  19Y08M08                         A5    C        14:12:23:05 14:12:24:16 01:05:49:13 01:05:50:24 
*FROM CLIP NAME:  5-6BK9/04 
*SOURCE FILE: 19Y08M08
001718  19Y08M08                         A6    C        14:12:23:05 14:12:24:16 01:05:49:13 01:05:50:24 
*FROM CLIP NAME:  5-6BK9/04 
*SOURCE FILE: 19Y08M08
001719  19Y08M08                         A7    C        14:12:23:05 14:12:24:16 01:05:49:13 01:05:50:24 
*FROM CLIP NAME:  5-6BK9/04 
*SOURCE FILE: 19Y08M08
001720  19Y08M08                         A8    C        14:12:23:05 14:12:24:16 01:05:49:13 01:05:50:24 
*FROM CLIP NAME:  5-6BK9/04 
*SOURCE FILE: 19Y08M08
001721  19Y08M08                         A9    C        14:12:23:05 14:12:24:16 01:05:49:13 01:05:50:24 
*FROM CLIP NAME:  5-6BK9/04 
*SOURCE FILE: 19Y08M08
001722  19Y08M08                         A     C        13:36:06:12 13:36:07:13 01:05:50:24 01:05:52:00 
*FROM CLIP NAME:  5-6BK9/01.SYNC.01 
*SOURCE FILE: 19Y08M08
001723  19Y08M08                         A2    C        13:36:06:12 13:36:07:13 01:05:50:24 01:05:52:00 
*FROM CLIP NAME:  5-6BK9/01.SYNC.01 
*SOURCE FILE: 19Y08M08
001724  19Y08M08                         A3    C        13:36:06:12 13:36:07:13 01:05:50:24 01:05:52:00 
*FROM CLIP NAME:  5-6BK9/01.SYNC.01 
*SOURCE FILE: 19Y08M08
001725  19Y08M08                         A4    C        13:36:06:12 13:36:07:13 01:05:50:24 01:05:52:00 
*FROM CLIP NAME:  5-6BK9/01.SYNC.01 
*SOURCE FILE: 19Y08M08
001726  19Y08M08                         A5    C        13:36:06:12 13:36:07:13 01:05:50:24 01:05:52:00 
*FROM CLIP NAME:  5-6BK9/01.SYNC.01 
*SOURCE FILE: 19Y08M08
001727  19Y08M08                         A6    C        13:36:06:12 13:36:07:13 01:05:50:24 01:05:52:00 
*FROM CLIP NAME:  5-6BK9/01.SYNC.01 
*SOURCE FILE: 19Y08M08
001728  19Y08M08                         A7    C        13:36:06:12 13:36:07:13 01:05:50:24 01:05:52:00 
*FROM CLIP NAME:  5-6BK9/01.SYNC.01 
*SOURCE FILE: 19Y08M08
001729  19Y08M08                         A8    C        13:36:06:12 13:36:07:13 01:05:50:24 01:05:52:00 
*FROM CLIP NAME:  5-6BK9/01.SYNC.01 
*SOURCE FILE: 19Y08M08
001730  19Y08M08                         A9    C        13:36:06:12 13:36:07:13 01:05:50:24 01:05:52:00 
*FROM CLIP NAME:  5-6BK9/01.SYNC.01 
*SOURCE FILE: 19Y08M08
001731  19Y08M08                         A10   C        13:36:06:12 13:36:07:13 01:05:50:24 01:05:52:00 
*FROM CLIP NAME:  5-6BK9/01.SYNC.01 
*PATCH 19Y08M08:  FROM SOURCE 1 TO RECORD 10 
*SOURCE FILE: 19Y08M08
001732  MSMMMOB.67                       V     C        13:36:06:12 13:36:08:07 01:05:50:24 01:05:52:19 
M2      MSMMMOB.67                                025.0 13:36:06:12 
*FROM CLIP NAME:  B007C005_190808_R16N 
*SOURCE FILE: MSMMMOB.67
001733  19Y08M08                         A     C        12:55:11:13 12:55:12:07 01:05:52:00 01:05:52:19 
*FROM CLIP NAME:  5-6BK7/02.SYNC.01 
*SOURCE FILE: 19Y08M08
001734  19Y08M08                         A2    C        12:55:11:13 12:55:12:07 01:05:52:00 01:05:52:19 
*FROM CLIP NAME:  5-6BK7/02.SYNC.01 
*SOURCE FILE: 19Y08M08
001735  19Y08M08                         A3    C        12:55:11:13 12:55:12:07 01:05:52:00 01:05:52:19 
*FROM CLIP NAME:  5-6BK7/02.SYNC.01 
*SOURCE FILE: 19Y08M08
001736  19Y08M08                         A4    C        12:55:11:13 12:55:12:07 01:05:52:00 01:05:52:19 
*FROM CLIP NAME:  5-6BK7/02.SYNC.01 
*SOURCE FILE: 19Y08M08
001737  19Y08M08                         A5    C        12:55:11:13 12:55:12:07 01:05:52:00 01:05:52:19 
*FROM CLIP NAME:  5-6BK7/02.SYNC.01 
*SOURCE FILE: 19Y08M08
001738  19Y08M08                         A6    C        12:55:11:13 12:55:12:07 01:05:52:00 01:05:52:19 
*FROM CLIP NAME:  5-6BK7/02.SYNC.01 
*SOURCE FILE: 19Y08M08
001739  19Y08M08                         A7    C        12:55:11:13 12:55:12:07 01:05:52:00 01:05:52:19 
*FROM CLIP NAME:  5-6BK7/02.SYNC.01 
*SOURCE FILE: 19Y08M08
001740  19Y08M08                         A8    C        12:55:11:13 12:55:12:07 01:05:52:00 01:05:52:19 
*FROM CLIP NAME:  5-6BK7/02.SYNC.01 
*SOURCE FILE: 19Y08M08
001741  19Y08M08                         A9    C        12:55:11:13 12:55:12:07 01:05:52:00 01:05:52:19 
*FROM CLIP NAME:  5-6BK7/02.SYNC.01 
*SOURCE FILE: 19Y08M08
001742  19Y08M08                         A10   C        12:55:11:13 12:55:12:07 01:05:52:00 01:05:52:19 
*FROM CLIP NAME:  5-6BK7/02.SYNC.01 
*PATCH 19Y08M08:  FROM SOURCE 1 TO RECORD 10 
*SOURCE FILE: 19Y08M08
001743  MSMMMOB.47                       V     C        12:55:12:21 12:55:13:16 01:05:52:19 01:05:53:14 
M2      MSMMMOB.47                                025.0 12:55:12:21 
*FROM CLIP NAME:  A052C002_190808_R32C 
*SOURCE FILE: MSMMMOB.47
001744  19Y08M08                         A     C        13:21:32:16 13:21:33:11 01:05:52:19 01:05:53:14 
*FROM CLIP NAME:  5-6BK8/02.SYNC.01 
*SOURCE FILE: 19Y08M08
001745  19Y08M08                         A2    C        13:21:32:16 13:21:33:11 01:05:52:19 01:05:53:14 
*FROM CLIP NAME:  5-6BK8/02.SYNC.01 
*SOURCE FILE: 19Y08M08
001746  19Y08M08                         A3    C        13:21:32:16 13:21:33:11 01:05:52:19 01:05:53:14 
*FROM CLIP NAME:  5-6BK8/02.SYNC.01 
*SOURCE FILE: 19Y08M08
001747  19Y08M08                         A4    C        13:21:32:16 13:21:33:11 01:05:52:19 01:05:53:14 
*FROM CLIP NAME:  5-6BK8/02.SYNC.01 
*SOURCE FILE: 19Y08M08
001748  19Y08M08                         A5    C        13:21:32:16 13:21:33:11 01:05:52:19 01:05:53:14 
*FROM CLIP NAME:  5-6BK8/02.SYNC.01 
*SOURCE FILE: 19Y08M08
001749  19Y08M08                         A6    C        13:21:32:16 13:21:33:11 01:05:52:19 01:05:53:14 
*FROM CLIP NAME:  5-6BK8/02.SYNC.01 
*SOURCE FILE: 19Y08M08
001750  19Y08M08                         A7    C        13:21:32:16 13:21:33:11 01:05:52:19 01:05:53:14 
*FROM CLIP NAME:  5-6BK8/02.SYNC.01 
*SOURCE FILE: 19Y08M08
001751  19Y08M08                         A8    C        13:21:32:16 13:21:33:11 01:05:52:19 01:05:53:14 
*FROM CLIP NAME:  5-6BK8/02.SYNC.01 
*SOURCE FILE: 19Y08M08
001752  19Y08M08                         A9    C        13:21:32:16 13:21:33:11 01:05:52:19 01:05:53:14 
*FROM CLIP NAME:  5-6BK8/02.SYNC.01 
*SOURCE FILE: 19Y08M08
001753  19Y08M08                         A10   C        13:21:32:16 13:21:33:11 01:05:52:19 01:05:53:14 
*FROM CLIP NAME:  5-6BK8/02.SYNC.01 
*PATCH 19Y08M08:  FROM SOURCE 1 TO RECORD 10 
*SOURCE FILE: 19Y08M08
001754  MSMMMOB.22                       V     C        13:21:33:11 13:21:39:12 01:05:53:14 01:05:59:15 
M2      MSMMMOB.22                                025.0 13:21:33:11 
*FROM CLIP NAME:  A052C004_190808_R32C 
*SOURCE FILE: MSMMMOB.22
001755  19Y08M08                         A     C        13:21:33:11 13:21:39:12 01:05:53:14 01:05:59:15 
*FROM CLIP NAME:  5-6BK8/02.SYNC.01 
*SOURCE FILE: 19Y08M08
001756  19Y08M08                         A2    C        13:21:33:11 13:21:39:12 01:05:53:14 01:05:59:15 
*FROM CLIP NAME:  5-6BK8/02.SYNC.01 
*SOURCE FILE: 19Y08M08
001757  19Y08M08                         A3    C        13:21:33:11 13:21:39:12 01:05:53:14 01:05:59:15 
*FROM CLIP NAME:  5-6BK8/02.SYNC.01 
*SOURCE FILE: 19Y08M08
001758  19Y08M08                         A4    C        13:21:33:11 13:21:39:12 01:05:53:14 01:05:59:15 
*FROM CLIP NAME:  5-6BK8/02.SYNC.01 
*SOURCE FILE: 19Y08M08
001759  19Y08M08                         A5    C        13:21:33:11 13:21:39:12 01:05:53:14 01:05:59:15 
*FROM CLIP NAME:  5-6BK8/02.SYNC.01 
*SOURCE FILE: 19Y08M08
001760  19Y08M08                         A6    C        13:21:33:11 13:21:39:12 01:05:53:14 01:05:59:15 
*FROM CLIP NAME:  5-6BK8/02.SYNC.01 
*SOURCE FILE: 19Y08M08
001761  19Y08M08                         A7    C        13:21:33:11 13:21:39:12 01:05:53:14 01:05:59:15 
*FROM CLIP NAME:  5-6BK8/02.SYNC.01 
*SOURCE FILE: 19Y08M08
001762  19Y08M08                         A8    C        13:21:33:11 13:21:39:12 01:05:53:14 01:05:59:15 
*FROM CLIP NAME:  5-6BK8/02.SYNC.01 
*SOURCE FILE: 19Y08M08
001763  19Y08M08                         A9    C        13:21:33:11 13:21:39:12 01:05:53:14 01:05:59:15 
*FROM CLIP NAME:  5-6BK8/02.SYNC.01 
*SOURCE FILE: 19Y08M08
001764  19Y08M08                         A10   C        13:21:33:11 13:21:39:12 01:05:53:14 01:05:59:15 
*FROM CLIP NAME:  5-6BK8/02.SYNC.01 
*PATCH 19Y08M08:  FROM SOURCE 1 TO RECORD 10 
*SOURCE FILE: 19Y08M08
001765  MSMMMOB.39                       V     C        13:43:48:07 13:43:49:15 01:05:59:15 01:06:00:23 
M2      MSMMMOB.39                                025.0 13:43:48:07 
*FROM CLIP NAME:  A052C006_190808_R32C 
*SOURCE FILE: MSMMMOB.39
001766  19Y08M08                         A     C        13:43:48:07 13:43:50:16 01:05:59:15 01:06:01:24 
*FROM CLIP NAME:  5-6BK9/02.SYNC.01 
*SOURCE FILE: 19Y08M08
001767  19Y08M08                         A2    C        13:43:48:07 13:43:50:16 01:05:59:15 01:06:01:24 
*FROM CLIP NAME:  5-6BK9/02.SYNC.01 
*SOURCE FILE: 19Y08M08
001768  19Y08M08                         A3    C        13:43:48:07 13:43:50:16 01:05:59:15 01:06:01:24 
*FROM CLIP NAME:  5-6BK9/02.SYNC.01 
*SOURCE FILE: 19Y08M08
001769  19Y08M08                         A4    C        13:43:48:07 13:43:50:16 01:05:59:15 01:06:01:24 
*FROM CLIP NAME:  5-6BK9/02.SYNC.01 
*SOURCE FILE: 19Y08M08
001770  19Y08M08                         A5    C        13:43:48:07 13:43:50:16 01:05:59:15 01:06:01:24 
*FROM CLIP NAME:  5-6BK9/02.SYNC.01 
*SOURCE FILE: 19Y08M08
001771  19Y08M08                         A6    C        13:43:48:07 13:43:50:16 01:05:59:15 01:06:01:24 
*FROM CLIP NAME:  5-6BK9/02.SYNC.01 
*SOURCE FILE: 19Y08M08
001772  19Y08M08                         A7    C        13:43:48:07 13:43:50:16 01:05:59:15 01:06:01:24 
*FROM CLIP NAME:  5-6BK9/02.SYNC.01 
*SOURCE FILE: 19Y08M08
001773  19Y08M08                         A8    C        13:43:48:07 13:43:50:16 01:05:59:15 01:06:01:24 
*FROM CLIP NAME:  5-6BK9/02.SYNC.01 
*SOURCE FILE: 19Y08M08
001774  19Y08M08                         A9    C        13:43:48:07 13:43:50:16 01:05:59:15 01:06:01:24 
*FROM CLIP NAME:  5-6BK9/02.SYNC.01 
*SOURCE FILE: 19Y08M08
001775  19Y08M08                         A10   C        13:43:48:07 13:43:50:16 01:05:59:15 01:06:01:24 
*FROM CLIP NAME:  5-6BK9/02.SYNC.01 
*PATCH 19Y08M08:  FROM SOURCE 1 TO RECORD 10 
*SOURCE FILE: 19Y08M08
001776  MSMMMOB.22                       V     C        13:21:41:10 13:21:44:07 01:06:00:23 01:06:03:20 
M2      MSMMMOB.22                                025.0 13:21:41:10 
*FROM CLIP NAME:  A052C004_190808_R32C 
*SOURCE FILE: MSMMMOB.22
001777  19Y08M08                         A     C        13:43:50:16 13:43:50:16 01:06:01:24 01:06:01:24 
001777  19Y08M08                         A     D    002 13:21:42:11 13:21:42:13 01:06:01:24 01:06:02:01 
*FROM CLIP NAME:  5-6BK9/02.SYNC.01 
*TO CLIP NAME:  5-6BK8/02.SYNC.01 
*SOURCE FILE: 19Y08M08
001778  19Y08M08                         A2    C        13:43:50:16 13:43:50:16 01:06:01:24 01:06:01:24 
001778  19Y08M08                         A2    D    002 13:21:42:11 13:21:42:13 01:06:01:24 01:06:02:01 
*FROM CLIP NAME:  5-6BK9/02.SYNC.01 
*TO CLIP NAME:  5-6BK8/02.SYNC.01 
*SOURCE FILE: 19Y08M08
001779  19Y08M08                         A3    C        13:43:50:16 13:43:50:16 01:06:01:24 01:06:01:24 
001779  19Y08M08                         A3    D    002 13:21:42:11 13:21:42:13 01:06:01:24 01:06:02:01 
*FROM CLIP NAME:  5-6BK9/02.SYNC.01 
*TO CLIP NAME:  5-6BK8/02.SYNC.01 
*SOURCE FILE: 19Y08M08
001780  19Y08M08                         A4    C        13:43:50:16 13:43:50:16 01:06:01:24 01:06:01:24 
001780  19Y08M08                         A4    D    002 13:21:42:11 13:21:42:13 01:06:01:24 01:06:02:01 
*FROM CLIP NAME:  5-6BK9/02.SYNC.01 
*TO CLIP NAME:  5-6BK8/02.SYNC.01 
*SOURCE FILE: 19Y08M08
001781  19Y08M08                         A5    C        13:43:50:16 13:43:50:16 01:06:01:24 01:06:01:24 
001781  19Y08M08                         A5    D    002 13:21:42:11 13:21:42:13 01:06:01:24 01:06:02:01 
*FROM CLIP NAME:  5-6BK9/02.SYNC.01 
*TO CLIP NAME:  5-6BK8/02.SYNC.01 
*SOURCE FILE: 19Y08M08
001782  19Y08M08                         A6    C        13:43:50:16 13:43:50:16 01:06:01:24 01:06:01:24 
001782  19Y08M08                         A6    D    002 13:21:42:11 13:21:42:13 01:06:01:24 01:06:02:01 
*FROM CLIP NAME:  5-6BK9/02.SYNC.01 
*TO CLIP NAME:  5-6BK8/02.SYNC.01 
*SOURCE FILE: 19Y08M08
001783  19Y08M08                         A7    C        13:43:50:16 13:43:50:16 01:06:01:24 01:06:01:24 
001783  19Y08M08                         A7    D    002 13:21:42:11 13:21:42:13 01:06:01:24 01:06:02:01 
*FROM CLIP NAME:  5-6BK9/02.SYNC.01 
*TO CLIP NAME:  5-6BK8/02.SYNC.01 
*SOURCE FILE: 19Y08M08
001784  19Y08M08                         A8    C        13:43:50:16 13:43:50:16 01:06:01:24 01:06:01:24 
001784  19Y08M08                         A8    D    002 13:21:42:11 13:21:42:13 01:06:01:24 01:06:02:01 
*FROM CLIP NAME:  5-6BK9/02.SYNC.01 
*TO CLIP NAME:  5-6BK8/02.SYNC.01 
*SOURCE FILE: 19Y08M08
001785  19Y08M08                         A9    C        13:43:50:16 13:43:50:16 01:06:01:24 01:06:01:24 
001785  19Y08M08                         A9    D    002 13:21:42:11 13:21:42:13 01:06:01:24 01:06:02:01 
*FROM CLIP NAME:  5-6BK9/02.SYNC.01 
*TO CLIP NAME:  5-6BK8/02.SYNC.01 
*SOURCE FILE: 19Y08M08
001786  19Y08M08                         A10   C        13:43:50:16 13:43:50:16 01:06:01:24 01:06:01:24 
001786  19Y08M08                         A10   D    002 13:21:42:11 13:21:42:13 01:06:01:24 01:06:02:01 
*FROM CLIP NAME:  5-6BK9/02.SYNC.01 
*TO CLIP NAME:  5-6BK8/02.SYNC.01 
*PATCH 19Y08M08:  FROM SOURCE 1 TO RECORD 10 
*PATCH 19Y08M08:  FROM SOURCE 1 TO RECORD 10 
*SOURCE FILE: 19Y08M08
001787  19Y08M08                         A     C        13:21:42:13 13:21:44:06 01:06:02:01 01:06:03:19 
*FROM CLIP NAME:  5-6BK8/02.SYNC.01 
*SOURCE FILE: 19Y08M08
001788  19Y08M08                         A2    C        13:21:42:13 13:21:44:06 01:06:02:01 01:06:03:19 
*FROM CLIP NAME:  5-6BK8/02.SYNC.01 
*SOURCE FILE: 19Y08M08
001789  19Y08M08                         A3    C        13:21:42:13 13:21:44:06 01:06:02:01 01:06:03:19 
*FROM CLIP NAME:  5-6BK8/02.SYNC.01 
*SOURCE FILE: 19Y08M08
001790  19Y08M08                         A4    C        13:21:42:13 13:21:44:06 01:06:02:01 01:06:03:19 
*FROM CLIP NAME:  5-6BK8/02.SYNC.01 
*SOURCE FILE: 19Y08M08
001791  19Y08M08                         A5    C        13:21:42:13 13:21:44:06 01:06:02:01 01:06:03:19 
*FROM CLIP NAME:  5-6BK8/02.SYNC.01 
*SOURCE FILE: 19Y08M08
001792  19Y08M08                         A6    C        13:21:42:13 13:21:44:06 01:06:02:01 01:06:03:19 
*FROM CLIP NAME:  5-6BK8/02.SYNC.01 
*SOURCE FILE: 19Y08M08
001793  19Y08M08                         A7    C        13:21:42:13 13:21:44:06 01:06:02:01 01:06:03:19 
*FROM CLIP NAME:  5-6BK8/02.SYNC.01 
*SOURCE FILE: 19Y08M08
001794  19Y08M08                         A8    C        13:21:42:13 13:21:44:06 01:06:02:01 01:06:03:19 
*FROM CLIP NAME:  5-6BK8/02.SYNC.01 
*SOURCE FILE: 19Y08M08
001795  19Y08M08                         A9    C        13:21:42:13 13:21:44:06 01:06:02:01 01:06:03:19 
*FROM CLIP NAME:  5-6BK8/02.SYNC.01 
*SOURCE FILE: 19Y08M08
001796  19Y08M08                         A10   C        13:21:42:13 13:21:44:06 01:06:02:01 01:06:03:19 
*FROM CLIP NAME:  5-6BK8/02.SYNC.01 
*PATCH 19Y08M08:  FROM SOURCE 1 TO RECORD 10 
*SOURCE FILE: 19Y08M08
001797  19Y08M08                         A     C        13:21:44:06 13:21:44:06 01:06:03:19 01:06:03:19 
001797  19Y08M08                         A     D    002 13:22:10:02 13:22:10:04 01:06:03:19 01:06:03:21 
*FROM CLIP NAME:  5-6BK8/02.SYNC.01 
*TO CLIP NAME:  5-6BK8/02.SYNC.01 
*SOURCE FILE: 19Y08M08
001798  19Y08M08                         A2    C        13:21:44:06 13:21:44:06 01:06:03:19 01:06:03:19 
001798  19Y08M08                         A2    D    002 13:22:10:02 13:22:10:04 01:06:03:19 01:06:03:21 
*FROM CLIP NAME:  5-6BK8/02.SYNC.01 
*TO CLIP NAME:  5-6BK8/02.SYNC.01 
*SOURCE FILE: 19Y08M08
001799  19Y08M08                         A3    C        13:21:44:06 13:21:44:06 01:06:03:19 01:06:03:19 
001799  19Y08M08                         A3    D    002 13:22:10:02 13:22:10:04 01:06:03:19 01:06:03:21 
*FROM CLIP NAME:  5-6BK8/02.SYNC.01 
*TO CLIP NAME:  5-6BK8/02.SYNC.01 
*SOURCE FILE: 19Y08M08
001800  19Y08M08                         A4    C        13:21:44:06 13:21:44:06 01:06:03:19 01:06:03:19 
001800  19Y08M08                         A4    D    002 13:22:10:02 13:22:10:04 01:06:03:19 01:06:03:21 
*FROM CLIP NAME:  5-6BK8/02.SYNC.01 
*TO CLIP NAME:  5-6BK8/02.SYNC.01 
*SOURCE FILE: 19Y08M08
001801  19Y08M08                         A5    C        13:21:44:06 13:21:44:06 01:06:03:19 01:06:03:19 
001801  19Y08M08                         A5    D    002 13:22:10:02 13:22:10:04 01:06:03:19 01:06:03:21 
*FROM CLIP NAME:  5-6BK8/02.SYNC.01 
*TO CLIP NAME:  5-6BK8/02.SYNC.01 
*SOURCE FILE: 19Y08M08
001802  19Y08M08                         A6    C        13:21:44:06 13:21:44:06 01:06:03:19 01:06:03:19 
001802  19Y08M08                         A6    D    002 13:22:10:02 13:22:10:04 01:06:03:19 01:06:03:21 
*FROM CLIP NAME:  5-6BK8/02.SYNC.01 
*TO CLIP NAME:  5-6BK8/02.SYNC.01 
*SOURCE FILE: 19Y08M08
001803  19Y08M08                         A7    C        13:21:44:06 13:21:44:06 01:06:03:19 01:06:03:19 
001803  19Y08M08                         A7    D    002 13:22:10:02 13:22:10:04 01:06:03:19 01:06:03:21 
*FROM CLIP NAME:  5-6BK8/02.SYNC.01 
*TO CLIP NAME:  5-6BK8/02.SYNC.01 
*SOURCE FILE: 19Y08M08
001804  19Y08M08                         A8    C        13:21:44:06 13:21:44:06 01:06:03:19 01:06:03:19 
001804  19Y08M08                         A8    D    002 13:22:10:02 13:22:10:04 01:06:03:19 01:06:03:21 
*FROM CLIP NAME:  5-6BK8/02.SYNC.01 
*TO CLIP NAME:  5-6BK8/02.SYNC.01 
*SOURCE FILE: 19Y08M08
001805  19Y08M08                         A9    C        13:21:44:06 13:21:44:06 01:06:03:19 01:06:03:19 
001805  19Y08M08                         A9    D    002 13:22:10:02 13:22:10:04 01:06:03:19 01:06:03:21 
*FROM CLIP NAME:  5-6BK8/02.SYNC.01 
*TO CLIP NAME:  5-6BK8/02.SYNC.01 
*SOURCE FILE: 19Y08M08
001806  19Y08M08                         A10   C        13:21:44:06 13:21:44:06 01:06:03:19 01:06:03:19 
001806  19Y08M08                         A10   D    002 13:22:10:02 13:22:10:04 01:06:03:19 01:06:03:21 
*FROM CLIP NAME:  5-6BK8/02.SYNC.01 
*TO CLIP NAME:  5-6BK8/02.SYNC.01 
*PATCH 19Y08M08:  FROM SOURCE 1 TO RECORD 10 
*PATCH 19Y08M08:  FROM SOURCE 1 TO RECORD 10 
*SOURCE FILE: 19Y08M08
001807  MSMMMOB.67                       V     C        13:36:21:16 13:36:24:00 01:06:03:20 01:06:06:04 
M2      MSMMMOB.67                                025.0 13:36:21:16 
*FROM CLIP NAME:  B007C005_190808_R16N 
*SOURCE FILE: MSMMMOB.67
001808  19Y08M08                         A     C        13:22:10:04 13:22:10:19 01:06:03:21 01:06:04:11 
*FROM CLIP NAME:  5-6BK8/02.SYNC.01 
*SOURCE FILE: 19Y08M08
001809  19Y08M08                         A2    C        13:22:10:04 13:22:10:19 01:06:03:21 01:06:04:11 
*FROM CLIP NAME:  5-6BK8/02.SYNC.01 
*SOURCE FILE: 19Y08M08
001810  19Y08M08                         A3    C        13:22:10:04 13:22:10:19 01:06:03:21 01:06:04:11 
*FROM CLIP NAME:  5-6BK8/02.SYNC.01 
*SOURCE FILE: 19Y08M08
001811  19Y08M08                         A4    C        13:22:10:04 13:22:10:19 01:06:03:21 01:06:04:11 
*FROM CLIP NAME:  5-6BK8/02.SYNC.01 
*SOURCE FILE: 19Y08M08
001812  19Y08M08                         A5    C        13:22:10:04 13:22:10:19 01:06:03:21 01:06:04:11 
*FROM CLIP NAME:  5-6BK8/02.SYNC.01 
*SOURCE FILE: 19Y08M08
001813  19Y08M08                         A6    C        13:22:10:04 13:22:10:19 01:06:03:21 01:06:04:11 
*FROM CLIP NAME:  5-6BK8/02.SYNC.01 
*SOURCE FILE: 19Y08M08
001814  19Y08M08                         A7    C        13:22:10:04 13:22:10:19 01:06:03:21 01:06:04:11 
*FROM CLIP NAME:  5-6BK8/02.SYNC.01 
*SOURCE FILE: 19Y08M08
001815  19Y08M08                         A8    C        13:22:10:04 13:22:10:19 01:06:03:21 01:06:04:11 
*FROM CLIP NAME:  5-6BK8/02.SYNC.01 
*SOURCE FILE: 19Y08M08
001816  19Y08M08                         A9    C        13:22:10:04 13:22:10:19 01:06:03:21 01:06:04:11 
*FROM CLIP NAME:  5-6BK8/02.SYNC.01 
*SOURCE FILE: 19Y08M08
001817  19Y08M08                         A10   C        13:22:10:04 13:22:10:19 01:06:03:21 01:06:04:11 
*FROM CLIP NAME:  5-6BK8/02.SYNC.01 
*PATCH 19Y08M08:  FROM SOURCE 1 TO RECORD 10 
*SOURCE FILE: 19Y08M08
001818  19Y08M08                         A     C        13:22:10:19 13:22:10:19 01:06:04:11 01:06:04:11 
001818  19Y08M08                         A     D    002 13:36:22:07 13:36:22:09 01:06:04:11 01:06:04:13 
*FROM CLIP NAME:  5-6BK8/02.SYNC.01 
*TO CLIP NAME:  5-6BK9/01.SYNC.01 
*SOURCE FILE: 19Y08M08
001819  19Y08M08                         A2    C        13:22:10:19 13:22:10:19 01:06:04:11 01:06:04:11 
001819  19Y08M08                         A2    D    002 13:36:22:07 13:36:22:09 01:06:04:11 01:06:04:13 
*FROM CLIP NAME:  5-6BK8/02.SYNC.01 
*TO CLIP NAME:  5-6BK9/01.SYNC.01 
*SOURCE FILE: 19Y08M08
001820  19Y08M08                         A3    C        13:22:10:19 13:22:10:19 01:06:04:11 01:06:04:11 
001820  19Y08M08                         A3    D    002 13:36:22:07 13:36:22:09 01:06:04:11 01:06:04:13 
*FROM CLIP NAME:  5-6BK8/02.SYNC.01 
*TO CLIP NAME:  5-6BK9/01.SYNC.01 
*SOURCE FILE: 19Y08M08
001821  19Y08M08                         A4    C        13:22:10:19 13:22:10:19 01:06:04:11 01:06:04:11 
001821  19Y08M08                         A4    D    002 13:36:22:07 13:36:22:09 01:06:04:11 01:06:04:13 
*FROM CLIP NAME:  5-6BK8/02.SYNC.01 
*TO CLIP NAME:  5-6BK9/01.SYNC.01 
*SOURCE FILE: 19Y08M08
001822  19Y08M08                         A5    C        13:22:10:19 13:22:10:19 01:06:04:11 01:06:04:11 
001822  19Y08M08                         A5    D    002 13:36:22:07 13:36:22:09 01:06:04:11 01:06:04:13 
*FROM CLIP NAME:  5-6BK8/02.SYNC.01 
*TO CLIP NAME:  5-6BK9/01.SYNC.01 
*SOURCE FILE: 19Y08M08
001823  19Y08M08                         A6    C        13:22:10:19 13:22:10:19 01:06:04:11 01:06:04:11 
001823  19Y08M08                         A6    D    002 13:36:22:07 13:36:22:09 01:06:04:11 01:06:04:13 
*FROM CLIP NAME:  5-6BK8/02.SYNC.01 
*TO CLIP NAME:  5-6BK9/01.SYNC.01 
*SOURCE FILE: 19Y08M08
001824  19Y08M08                         A7    C        13:22:10:19 13:22:10:19 01:06:04:11 01:06:04:11 
001824  19Y08M08                         A7    D    002 13:36:22:07 13:36:22:09 01:06:04:11 01:06:04:13 
*FROM CLIP NAME:  5-6BK8/02.SYNC.01 
*TO CLIP NAME:  5-6BK9/01.SYNC.01 
*SOURCE FILE: 19Y08M08
001825  19Y08M08                         A8    C        13:22:10:19 13:22:10:19 01:06:04:11 01:06:04:11 
001825  19Y08M08                         A8    D    002 13:36:22:07 13:36:22:09 01:06:04:11 01:06:04:13 
*FROM CLIP NAME:  5-6BK8/02.SYNC.01 
*TO CLIP NAME:  5-6BK9/01.SYNC.01 
*SOURCE FILE: 19Y08M08
001826  19Y08M08                         A9    C        13:22:10:19 13:22:10:19 01:06:04:11 01:06:04:11 
001826  19Y08M08                         A9    D    002 13:36:22:07 13:36:22:09 01:06:04:11 01:06:04:13 
*FROM CLIP NAME:  5-6BK8/02.SYNC.01 
*TO CLIP NAME:  5-6BK9/01.SYNC.01 
*SOURCE FILE: 19Y08M08
001827  19Y08M08                         A10   C        13:22:10:19 13:22:10:19 01:06:04:11 01:06:04:11 
001827  19Y08M08                         A10   D    002 13:36:22:07 13:36:22:09 01:06:04:11 01:06:04:13 
*FROM CLIP NAME:  5-6BK8/02.SYNC.01 
*TO CLIP NAME:  5-6BK9/01.SYNC.01 
*PATCH 19Y08M08:  FROM SOURCE 1 TO RECORD 10 
*PATCH 19Y08M08:  FROM SOURCE 1 TO RECORD 10 
*SOURCE FILE: 19Y08M08
001828  19Y08M08                         A     C        13:36:22:09 13:36:23:05 01:06:04:13 01:06:05:09 
*FROM CLIP NAME:  5-6BK9/01.SYNC.01 
*SOURCE FILE: 19Y08M08
001829  19Y08M08                         A2    C        13:36:22:09 13:36:23:05 01:06:04:13 01:06:05:09 
*FROM CLIP NAME:  5-6BK9/01.SYNC.01 
*SOURCE FILE: 19Y08M08
001830  19Y08M08                         A3    C        13:36:22:09 13:36:23:05 01:06:04:13 01:06:05:09 
*FROM CLIP NAME:  5-6BK9/01.SYNC.01 
*SOURCE FILE: 19Y08M08
001831  19Y08M08                         A4    C        13:36:22:09 13:36:23:05 01:06:04:13 01:06:05:09 
*FROM CLIP NAME:  5-6BK9/01.SYNC.01 
*SOURCE FILE: 19Y08M08
001832  19Y08M08                         A5    C        13:36:22:09 13:36:23:05 01:06:04:13 01:06:05:09 
*FROM CLIP NAME:  5-6BK9/01.SYNC.01 
*SOURCE FILE: 19Y08M08
001833  19Y08M08                         A6    C        13:36:22:09 13:36:23:05 01:06:04:13 01:06:05:09 
*FROM CLIP NAME:  5-6BK9/01.SYNC.01 
*SOURCE FILE: 19Y08M08
001834  19Y08M08                         A7    C        13:36:22:09 13:36:23:05 01:06:04:13 01:06:05:09 
*FROM CLIP NAME:  5-6BK9/01.SYNC.01 
*SOURCE FILE: 19Y08M08
001835  19Y08M08                         A8    C        13:36:22:09 13:36:23:05 01:06:04:13 01:06:05:09 
*FROM CLIP NAME:  5-6BK9/01.SYNC.01 
*SOURCE FILE: 19Y08M08
001836  19Y08M08                         A9    C        13:36:22:09 13:36:23:05 01:06:04:13 01:06:05:09 
*FROM CLIP NAME:  5-6BK9/01.SYNC.01 
*SOURCE FILE: 19Y08M08
001837  19Y08M08                         A10   C        13:36:22:09 13:36:23:05 01:06:04:13 01:06:05:09 
*FROM CLIP NAME:  5-6BK9/01.SYNC.01 
*PATCH 19Y08M08:  FROM SOURCE 1 TO RECORD 10 
*SOURCE FILE: 19Y08M08
001838  19Y08M08                         A     C        13:36:23:05 13:36:23:05 01:06:05:09 01:06:05:09 
001838  19Y08M08                         A     D    002 13:22:10:02 13:22:10:04 01:06:05:09 01:06:05:11 
*FROM CLIP NAME:  5-6BK9/01.SYNC.01 
*TO CLIP NAME:  5-6BK8/02.SYNC.01 
*SOURCE FILE: 19Y08M08
001839  19Y08M08                         A2    C        13:36:23:05 13:36:23:05 01:06:05:09 01:06:05:09 
001839  19Y08M08                         A2    D    002 13:22:10:02 13:22:10:04 01:06:05:09 01:06:05:11 
*FROM CLIP NAME:  5-6BK9/01.SYNC.01 
*TO CLIP NAME:  5-6BK8/02.SYNC.01 
*SOURCE FILE: 19Y08M08
001840  19Y08M08                         A3    C        13:36:23:05 13:36:23:05 01:06:05:09 01:06:05:09 
001840  19Y08M08                         A3    D    002 13:22:10:02 13:22:10:04 01:06:05:09 01:06:05:11 
*FROM CLIP NAME:  5-6BK9/01.SYNC.01 
*TO CLIP NAME:  5-6BK8/02.SYNC.01 
*SOURCE FILE: 19Y08M08
001841  19Y08M08                         A4    C        13:36:23:05 13:36:23:05 01:06:05:09 01:06:05:09 
001841  19Y08M08                         A4    D    002 13:22:10:02 13:22:10:04 01:06:05:09 01:06:05:11 
*FROM CLIP NAME:  5-6BK9/01.SYNC.01 
*TO CLIP NAME:  5-6BK8/02.SYNC.01 
*SOURCE FILE: 19Y08M08
001842  19Y08M08                         A5    C        13:36:23:05 13:36:23:05 01:06:05:09 01:06:05:09 
001842  19Y08M08                         A5    D    002 13:22:10:02 13:22:10:04 01:06:05:09 01:06:05:11 
*FROM CLIP NAME:  5-6BK9/01.SYNC.01 
*TO CLIP NAME:  5-6BK8/02.SYNC.01 
*SOURCE FILE: 19Y08M08
001843  19Y08M08                         A6    C        13:36:23:05 13:36:23:05 01:06:05:09 01:06:05:09 
001843  19Y08M08                         A6    D    002 13:22:10:02 13:22:10:04 01:06:05:09 01:06:05:11 
*FROM CLIP NAME:  5-6BK9/01.SYNC.01 
*TO CLIP NAME:  5-6BK8/02.SYNC.01 
*SOURCE FILE: 19Y08M08
001844  19Y08M08                         A7    C        13:36:23:05 13:36:23:05 01:06:05:09 01:06:05:09 
001844  19Y08M08                         A7    D    002 13:22:10:02 13:22:10:04 01:06:05:09 01:06:05:11 
*FROM CLIP NAME:  5-6BK9/01.SYNC.01 
*TO CLIP NAME:  5-6BK8/02.SYNC.01 
*SOURCE FILE: 19Y08M08
001845  19Y08M08                         A8    C        13:36:23:05 13:36:23:05 01:06:05:09 01:06:05:09 
001845  19Y08M08                         A8    D    002 13:22:10:02 13:22:10:04 01:06:05:09 01:06:05:11 
*FROM CLIP NAME:  5-6BK9/01.SYNC.01 
*TO CLIP NAME:  5-6BK8/02.SYNC.01 
*SOURCE FILE: 19Y08M08
001846  19Y08M08                         A9    C        13:36:23:05 13:36:23:05 01:06:05:09 01:06:05:09 
001846  19Y08M08                         A9    D    002 13:22:10:02 13:22:10:04 01:06:05:09 01:06:05:11 
*FROM CLIP NAME:  5-6BK9/01.SYNC.01 
*TO CLIP NAME:  5-6BK8/02.SYNC.01 
*SOURCE FILE: 19Y08M08
001847  19Y08M08                         A10   C        13:36:23:05 13:36:23:05 01:06:05:09 01:06:05:09 
001847  19Y08M08                         A10   D    002 13:22:10:02 13:22:10:04 01:06:05:09 01:06:05:11 
*FROM CLIP NAME:  5-6BK9/01.SYNC.01 
*TO CLIP NAME:  5-6BK8/02.SYNC.01 
*PATCH 19Y08M08:  FROM SOURCE 1 TO RECORD 10 
*PATCH 19Y08M08:  FROM SOURCE 1 TO RECORD 10 
*SOURCE FILE: 19Y08M08
001848  19Y08M08                         A     C        13:22:10:04 13:22:10:21 01:06:05:11 01:06:06:03 
*FROM CLIP NAME:  5-6BK8/02.SYNC.01 
*SOURCE FILE: 19Y08M08
001849  19Y08M08                         A2    C        13:22:10:04 13:22:10:21 01:06:05:11 01:06:06:03 
*FROM CLIP NAME:  5-6BK8/02.SYNC.01 
*SOURCE FILE: 19Y08M08
001850  19Y08M08                         A3    C        13:22:10:04 13:22:10:21 01:06:05:11 01:06:06:03 
*FROM CLIP NAME:  5-6BK8/02.SYNC.01 
*SOURCE FILE: 19Y08M08
001851  19Y08M08                         A4    C        13:22:10:04 13:22:10:21 01:06:05:11 01:06:06:03 
*FROM CLIP NAME:  5-6BK8/02.SYNC.01 
*SOURCE FILE: 19Y08M08
001852  19Y08M08                         A5    C        13:22:10:04 13:22:10:21 01:06:05:11 01:06:06:03 
*FROM CLIP NAME:  5-6BK8/02.SYNC.01 
*SOURCE FILE: 19Y08M08
001853  19Y08M08                         A6    C        13:22:10:04 13:22:10:21 01:06:05:11 01:06:06:03 
*FROM CLIP NAME:  5-6BK8/02.SYNC.01 
*SOURCE FILE: 19Y08M08
001854  19Y08M08                         A7    C        13:22:10:04 13:22:10:21 01:06:05:11 01:06:06:03 
*FROM CLIP NAME:  5-6BK8/02.SYNC.01 
*SOURCE FILE: 19Y08M08
001855  19Y08M08                         A8    C        13:22:10:04 13:22:10:21 01:06:05:11 01:06:06:03 
*FROM CLIP NAME:  5-6BK8/02.SYNC.01 
*SOURCE FILE: 19Y08M08
001856  19Y08M08                         A9    C        13:22:10:04 13:22:10:21 01:06:05:11 01:06:06:03 
*FROM CLIP NAME:  5-6BK8/02.SYNC.01 
*SOURCE FILE: 19Y08M08
001857  19Y08M08                         A10   C        13:22:10:04 13:22:10:21 01:06:05:11 01:06:06:03 
*FROM CLIP NAME:  5-6BK8/02.SYNC.01 
*PATCH 19Y08M08:  FROM SOURCE 1 TO RECORD 10 
*SOURCE FILE: 19Y08M08
001858  19Y08M08                         A     C        13:22:10:21 13:22:10:21 01:06:06:03 01:06:06:03 
001858  19Y08M08                         A     D    002 13:21:44:20 13:21:44:22 01:06:06:03 01:06:06:05 
*FROM CLIP NAME:  5-6BK8/02.SYNC.01 
*TO CLIP NAME:  5-6BK8/02.SYNC.01 
*SOURCE FILE: 19Y08M08
001859  19Y08M08                         A2    C        13:22:10:21 13:22:10:21 01:06:06:03 01:06:06:03 
001859  19Y08M08                         A2    D    002 13:21:44:20 13:21:44:22 01:06:06:03 01:06:06:05 
*FROM CLIP NAME:  5-6BK8/02.SYNC.01 
*TO CLIP NAME:  5-6BK8/02.SYNC.01 
*SOURCE FILE: 19Y08M08
001860  19Y08M08                         A3    C        13:22:10:21 13:22:10:21 01:06:06:03 01:06:06:03 
001860  19Y08M08                         A3    D    002 13:21:44:20 13:21:44:22 01:06:06:03 01:06:06:05 
*FROM CLIP NAME:  5-6BK8/02.SYNC.01 
*TO CLIP NAME:  5-6BK8/02.SYNC.01 
*SOURCE FILE: 19Y08M08
001861  19Y08M08                         A4    C        13:22:10:21 13:22:10:21 01:06:06:03 01:06:06:03 
001861  19Y08M08                         A4    D    002 13:21:44:20 13:21:44:22 01:06:06:03 01:06:06:05 
*FROM CLIP NAME:  5-6BK8/02.SYNC.01 
*TO CLIP NAME:  5-6BK8/02.SYNC.01 
*SOURCE FILE: 19Y08M08
001862  19Y08M08                         A5    C        13:22:10:21 13:22:10:21 01:06:06:03 01:06:06:03 
001862  19Y08M08                         A5    D    002 13:21:44:20 13:21:44:22 01:06:06:03 01:06:06:05 
*FROM CLIP NAME:  5-6BK8/02.SYNC.01 
*TO CLIP NAME:  5-6BK8/02.SYNC.01 
*SOURCE FILE: 19Y08M08
001863  19Y08M08                         A6    C        13:22:10:21 13:22:10:21 01:06:06:03 01:06:06:03 
001863  19Y08M08                         A6    D    002 13:21:44:20 13:21:44:22 01:06:06:03 01:06:06:05 
*FROM CLIP NAME:  5-6BK8/02.SYNC.01 
*TO CLIP NAME:  5-6BK8/02.SYNC.01 
*SOURCE FILE: 19Y08M08
001864  19Y08M08                         A7    C        13:22:10:21 13:22:10:21 01:06:06:03 01:06:06:03 
001864  19Y08M08                         A7    D    002 13:21:44:20 13:21:44:22 01:06:06:03 01:06:06:05 
*FROM CLIP NAME:  5-6BK8/02.SYNC.01 
*TO CLIP NAME:  5-6BK8/02.SYNC.01 
*SOURCE FILE: 19Y08M08
001865  19Y08M08                         A8    C        13:22:10:21 13:22:10:21 01:06:06:03 01:06:06:03 
001865  19Y08M08                         A8    D    002 13:21:44:20 13:21:44:22 01:06:06:03 01:06:06:05 
*FROM CLIP NAME:  5-6BK8/02.SYNC.01 
*TO CLIP NAME:  5-6BK8/02.SYNC.01 
*SOURCE FILE: 19Y08M08
001866  19Y08M08                         A9    C        13:22:10:21 13:22:10:21 01:06:06:03 01:06:06:03 
001866  19Y08M08                         A9    D    002 13:21:44:20 13:21:44:22 01:06:06:03 01:06:06:05 
*FROM CLIP NAME:  5-6BK8/02.SYNC.01 
*TO CLIP NAME:  5-6BK8/02.SYNC.01 
*SOURCE FILE: 19Y08M08
001867  19Y08M08                         A10   C        13:22:10:21 13:22:10:21 01:06:06:03 01:06:06:03 
001867  19Y08M08                         A10   D    002 13:21:44:20 13:21:44:22 01:06:06:03 01:06:06:05 
*FROM CLIP NAME:  5-6BK8/02.SYNC.01 
*TO CLIP NAME:  5-6BK8/02.SYNC.01 
*PATCH 19Y08M08:  FROM SOURCE 1 TO RECORD 10 
*PATCH 19Y08M08:  FROM SOURCE 1 TO RECORD 10 
*SOURCE FILE: 19Y08M08
001868  MSMMMOB.22                       V     C        13:21:44:21 13:21:47:05 01:06:06:04 01:06:08:13 
M2      MSMMMOB.22                                025.0 13:21:44:21 
*FROM CLIP NAME:  A052C004_190808_R32C 
*SOURCE FILE: MSMMMOB.22
001869  19Y08M08                         A     C        13:21:44:22 13:21:47:05 01:06:06:05 01:06:08:13 
*FROM CLIP NAME:  5-6BK8/02.SYNC.01 
*SOURCE FILE: 19Y08M08
001870  19Y08M08                         A2    C        13:21:44:22 13:21:47:05 01:06:06:05 01:06:08:13 
*FROM CLIP NAME:  5-6BK8/02.SYNC.01 
*SOURCE FILE: 19Y08M08
001871  19Y08M08                         A3    C        13:21:44:22 13:21:47:05 01:06:06:05 01:06:08:13 
*FROM CLIP NAME:  5-6BK8/02.SYNC.01 
*SOURCE FILE: 19Y08M08
001872  19Y08M08                         A4    C        13:21:44:22 13:21:47:05 01:06:06:05 01:06:08:13 
*FROM CLIP NAME:  5-6BK8/02.SYNC.01 
*SOURCE FILE: 19Y08M08
001873  19Y08M08                         A5    C        13:21:44:22 13:21:47:05 01:06:06:05 01:06:08:13 
*FROM CLIP NAME:  5-6BK8/02.SYNC.01 
*SOURCE FILE: 19Y08M08
001874  19Y08M08                         A6    C        13:21:44:22 13:21:47:05 01:06:06:05 01:06:08:13 
*FROM CLIP NAME:  5-6BK8/02.SYNC.01 
*SOURCE FILE: 19Y08M08
001875  19Y08M08                         A7    C        13:21:44:22 13:21:47:05 01:06:06:05 01:06:08:13 
*FROM CLIP NAME:  5-6BK8/02.SYNC.01 
*SOURCE FILE: 19Y08M08
001876  19Y08M08                         A8    C        13:21:44:22 13:21:47:05 01:06:06:05 01:06:08:13 
*FROM CLIP NAME:  5-6BK8/02.SYNC.01 
*SOURCE FILE: 19Y08M08
001877  19Y08M08                         A9    C        13:21:44:22 13:21:47:05 01:06:06:05 01:06:08:13 
*FROM CLIP NAME:  5-6BK8/02.SYNC.01 
*SOURCE FILE: 19Y08M08
001878  19Y08M08                         A10   C        13:21:44:22 13:21:47:05 01:06:06:05 01:06:08:13 
*FROM CLIP NAME:  5-6BK8/02.SYNC.01 
*PATCH 19Y08M08:  FROM SOURCE 1 TO RECORD 10 
*SOURCE FILE: 19Y08M08
001879  19Y08M08                         A     C        13:22:09:24 13:22:11:02 01:06:08:13 01:06:09:16 
*FROM CLIP NAME:  5-6BK8/02.SYNC.01 
*SOURCE FILE: 19Y08M08
001880  19Y08M08                         A2    C        13:22:09:24 13:22:11:02 01:06:08:13 01:06:09:16 
*FROM CLIP NAME:  5-6BK8/02.SYNC.01 
*SOURCE FILE: 19Y08M08
001881  19Y08M08                         A3    C        13:22:09:24 13:22:11:02 01:06:08:13 01:06:09:16 
*FROM CLIP NAME:  5-6BK8/02.SYNC.01 
*SOURCE FILE: 19Y08M08
001882  19Y08M08                         A4    C        13:22:09:24 13:22:11:02 01:06:08:13 01:06:09:16 
*FROM CLIP NAME:  5-6BK8/02.SYNC.01 
*SOURCE FILE: 19Y08M08
001883  19Y08M08                         A5    C        13:22:09:24 13:22:11:02 01:06:08:13 01:06:09:16 
*FROM CLIP NAME:  5-6BK8/02.SYNC.01 
*SOURCE FILE: 19Y08M08
001884  19Y08M08                         A6    C        13:22:09:24 13:22:11:02 01:06:08:13 01:06:09:16 
*FROM CLIP NAME:  5-6BK8/02.SYNC.01 
*SOURCE FILE: 19Y08M08
001885  19Y08M08                         A7    C        13:22:09:24 13:22:11:02 01:06:08:13 01:06:09:16 
*FROM CLIP NAME:  5-6BK8/02.SYNC.01 
*SOURCE FILE: 19Y08M08
001886  19Y08M08                         A8    C        13:22:09:24 13:22:11:02 01:06:08:13 01:06:09:16 
*FROM CLIP NAME:  5-6BK8/02.SYNC.01 
*SOURCE FILE: 19Y08M08
001887  19Y08M08                         A9    C        13:22:09:24 13:22:11:02 01:06:08:13 01:06:09:16 
*FROM CLIP NAME:  5-6BK8/02.SYNC.01 
*SOURCE FILE: 19Y08M08
001888  19Y08M08                         A10   C        13:22:09:24 13:22:11:02 01:06:08:13 01:06:09:16 
*FROM CLIP NAME:  5-6BK8/02.SYNC.01 
*PATCH 19Y08M08:  FROM SOURCE 1 TO RECORD 10 
*SOURCE FILE: 19Y08M08
001889  MSMMMOB.74                       V     C        12:55:27:08 12:55:29:04 01:06:08:13 01:06:10:09 
M2      MSMMMOB.74                                025.0 12:55:27:08 
*FROM CLIP NAME:  B007C002_190808_R16N 
*SOURCE FILE: MSMMMOB.74
001890  19Y08M08                         A     C        12:12:48:23 12:12:54:19 01:06:09:16 01:06:15:12 
*FROM CLIP NAME:  5-6BK4/01.SYNC.01 
*SOURCE FILE: 19Y08M08
001891  19Y08M08                         A2    C        12:12:48:23 12:12:54:19 01:06:09:16 01:06:15:12 
*FROM CLIP NAME:  5-6BK4/01.SYNC.01 
*SOURCE FILE: 19Y08M08
001892  19Y08M08                         A3    C        12:12:48:23 12:12:54:19 01:06:09:16 01:06:15:12 
*FROM CLIP NAME:  5-6BK4/01.SYNC.01 
*SOURCE FILE: 19Y08M08
001893  19Y08M08                         A4    C        12:12:48:23 12:12:54:19 01:06:09:16 01:06:15:12 
*FROM CLIP NAME:  5-6BK4/01.SYNC.01 
*SOURCE FILE: 19Y08M08
001894  19Y08M08                         A5    C        12:12:48:23 12:12:54:19 01:06:09:16 01:06:15:12 
*FROM CLIP NAME:  5-6BK4/01.SYNC.01 
*SOURCE FILE: 19Y08M08
001895  19Y08M08                         A6    C        12:12:48:23 12:12:54:19 01:06:09:16 01:06:15:12 
*FROM CLIP NAME:  5-6BK4/01.SYNC.01 
*SOURCE FILE: 19Y08M08
001896  19Y08M08                         A7    C        12:12:48:23 12:12:54:19 01:06:09:16 01:06:15:12 
*FROM CLIP NAME:  5-6BK4/01.SYNC.01 
*SOURCE FILE: 19Y08M08
001897  19Y08M08                         A8    C        12:12:48:23 12:12:54:19 01:06:09:16 01:06:15:12 
*FROM CLIP NAME:  5-6BK4/01.SYNC.01 
*SOURCE FILE: 19Y08M08
001898  19Y08M08                         A9    C        12:12:48:23 12:12:54:19 01:06:09:16 01:06:15:12 
*FROM CLIP NAME:  5-6BK4/01.SYNC.01 
*SOURCE FILE: 19Y08M08
001899  19Y08M08                         A10   C        12:12:48:23 12:12:54:19 01:06:09:16 01:06:15:12 
*FROM CLIP NAME:  5-6BK4/01.SYNC.01 
*PATCH 19Y08M08:  FROM SOURCE 1 TO RECORD 10 
*SOURCE FILE: 19Y08M08
001900  MSMMMOB.39                       V     C        13:43:58:16 13:44:00:03 01:06:10:09 01:06:11:21 
M2      MSMMMOB.39                                025.0 13:43:58:16 
*FROM CLIP NAME:  A052C006_190808_R32C 
*SOURCE FILE: MSMMMOB.39
001901  MSMMMOB.22                       V     C        13:21:49:00 13:21:50:14 01:06:11:21 01:06:13:10 
M2      MSMMMOB.22                                025.0 13:21:49:00 
*FROM CLIP NAME:  A052C004_190808_R32C 
*SOURCE FILE: MSMMMOB.22
001902  MSMMMOB.04                       V     C        13:44:02:02 13:44:04:04 01:06:13:10 01:06:15:12 
M2      MSMMMOB.04                                025.0 13:44:02:02 
*FROM CLIP NAME:  B007C006_190808_R16N 
*SOURCE FILE: MSMMMOB.04
001903  MSMMMOB.10                       V     C        12:12:54:19 12:12:57:09 01:06:15:12 01:06:18:02 
M2      MSMMMOB.10                                025.0 12:12:54:19 
*FROM CLIP NAME:  B005C004_190808_R16N 
*SOURCE FILE: MSMMMOB.10
001904  19Y08M08                         A2    C        12:12:54:19 12:12:57:12 01:06:15:12 01:06:18:05 
*FROM CLIP NAME:  5-6BK4/01.SYNC.01 
*SOURCE FILE: 19Y08M08
001905  19Y08M08                         A7    C        12:12:54:19 12:12:57:14 01:06:15:12 01:06:18:07 
*FROM CLIP NAME:  5-6BK4/01.SYNC.01 
*SOURCE FILE: 19Y08M08
001906  19Y08M08                         A     C        12:12:54:19 12:13:01:06 01:06:15:12 01:06:21:24 
*FROM CLIP NAME:  5-6BK4/01.SYNC.01 
*SOURCE FILE: 19Y08M08
001907  19Y08M08                         A3    C        12:12:54:19 12:13:01:06 01:06:15:12 01:06:21:24 
*FROM CLIP NAME:  5-6BK4/01.SYNC.01 
*SOURCE FILE: 19Y08M08
001908  19Y08M08                         A4    C        12:12:54:19 12:13:01:06 01:06:15:12 01:06:21:24 
*FROM CLIP NAME:  5-6BK4/01.SYNC.01 
*SOURCE FILE: 19Y08M08
001909  19Y08M08                         A5    C        12:12:54:19 12:13:01:06 01:06:15:12 01:06:21:24 
*FROM CLIP NAME:  5-6BK4/01.SYNC.01 
*SOURCE FILE: 19Y08M08
001910  19Y08M08                         A6    C        12:12:54:19 12:13:01:06 01:06:15:12 01:06:21:24 
*FROM CLIP NAME:  5-6BK4/01.SYNC.01 
*SOURCE FILE: 19Y08M08
001911  19Y08M08                         A8    C        12:12:54:19 12:13:01:06 01:06:15:12 01:06:21:24 
*FROM CLIP NAME:  5-6BK4/01.SYNC.01 
*SOURCE FILE: 19Y08M08
001912  19Y08M08                         A9    C        12:12:54:19 12:13:01:06 01:06:15:12 01:06:21:24 
*FROM CLIP NAME:  5-6BK4/01.SYNC.01 
*SOURCE FILE: 19Y08M08
001913  19Y08M08                         A10   C        12:12:54:19 12:13:01:06 01:06:15:12 01:06:21:24 
*FROM CLIP NAME:  5-6BK4/01.SYNC.01 
*PATCH 19Y08M08:  FROM SOURCE 1 TO RECORD 10 
*SOURCE FILE: 19Y08M08
001914  MSMMMOB.51                       V     C        11:53:38:14 11:53:42:11 01:06:18:02 01:06:21:24 
M2      MSMMMOB.51                                025.0 11:53:38:14 
*FROM CLIP NAME:  B005C002_190808_R16N 
*SOURCE FILE: MSMMMOB.51
001915  19Y08M08                         A7    C        12:46:33:21 12:46:34:20 01:06:18:07 01:06:19:06 
*FROM CLIP NAME:  5-6BK6/02.SYNC.01 
*SOURCE FILE: 19Y08M08
001916  19Y08M08                         A2    C        12:12:58:12 12:13:01:06 01:06:19:05 01:06:21:24 
*FROM CLIP NAME:  5-6BK4/01.SYNC.01 
*SOURCE FILE: 19Y08M08
001917  19Y08M08                         A7    C        12:12:58:13 12:13:01:06 01:06:19:06 01:06:21:24 
*FROM CLIP NAME:  5-6BK4/01.SYNC.01 
*SOURCE FILE: 19Y08M08
001918  19Y08M08                         A     C        13:22:04:00 13:22:10:20 01:06:21:24 01:06:28:19 
*FROM CLIP NAME:  5-6BK8/02.SYNC.01 
*SOURCE FILE: 19Y08M08
001919  19Y08M08                         A2    C        13:22:04:00 13:22:10:20 01:06:21:24 01:06:28:19 
*FROM CLIP NAME:  5-6BK8/02.SYNC.01 
*SOURCE FILE: 19Y08M08
001920  19Y08M08                         A3    C        13:22:04:00 13:22:10:20 01:06:21:24 01:06:28:19 
*FROM CLIP NAME:  5-6BK8/02.SYNC.01 
*SOURCE FILE: 19Y08M08
001921  19Y08M08                         A4    C        13:22:04:00 13:22:10:20 01:06:21:24 01:06:28:19 
*FROM CLIP NAME:  5-6BK8/02.SYNC.01 
*SOURCE FILE: 19Y08M08
001922  19Y08M08                         A5    C        13:22:04:00 13:22:10:20 01:06:21:24 01:06:28:19 
*FROM CLIP NAME:  5-6BK8/02.SYNC.01 
*SOURCE FILE: 19Y08M08
001923  19Y08M08                         A6    C        13:22:04:00 13:22:10:20 01:06:21:24 01:06:28:19 
*FROM CLIP NAME:  5-6BK8/02.SYNC.01 
*SOURCE FILE: 19Y08M08
001924  19Y08M08                         A7    C        13:22:04:00 13:22:10:20 01:06:21:24 01:06:28:19 
*FROM CLIP NAME:  5-6BK8/02.SYNC.01 
*SOURCE FILE: 19Y08M08
001925  19Y08M08                         A8    C        13:22:04:00 13:22:10:20 01:06:21:24 01:06:28:19 
*FROM CLIP NAME:  5-6BK8/02.SYNC.01 
*A8 VOL = -37.5 DB  PAN L100 
*SOURCE FILE: 19Y08M08
001926  19Y08M08                         A9    C        13:22:04:00 13:22:10:20 01:06:21:24 01:06:28:19 
*FROM CLIP NAME:  5-6BK8/02.SYNC.01 
*SOURCE FILE: 19Y08M08
001927  19Y08M08                         A10   C        13:22:04:00 13:22:10:20 01:06:21:24 01:06:28:19 
*FROM CLIP NAME:  5-6BK8/02.SYNC.01 
*PATCH 19Y08M08:  FROM SOURCE 1 TO RECORD 10 
*SOURCE FILE: 19Y08M08
001928  MSMMMOB.22                       V     C        13:22:04:00 13:22:13:18 01:06:21:24 01:06:31:17 
M2      MSMMMOB.22                                025.0 13:22:04:00 
*FROM CLIP NAME:  A052C004_190808_R32C 
*SOURCE FILE: MSMMMOB.22
001929  19Y08M08                         A     C        12:13:06:03 12:13:07:12 01:06:28:19 01:06:30:03 
*FROM CLIP NAME:  5-6BK4/01.SYNC.01 
*SOURCE FILE: 19Y08M08
001930  19Y08M08                         A2    C        12:13:06:03 12:13:07:12 01:06:28:19 01:06:30:03 
*FROM CLIP NAME:  5-6BK4/01.SYNC.01 
*SOURCE FILE: 19Y08M08
001931  19Y08M08                         A3    C        12:13:06:03 12:13:07:12 01:06:28:19 01:06:30:03 
*FROM CLIP NAME:  5-6BK4/01.SYNC.01 
*SOURCE FILE: 19Y08M08
001932  19Y08M08                         A4    C        12:13:06:03 12:13:07:12 01:06:28:19 01:06:30:03 
*FROM CLIP NAME:  5-6BK4/01.SYNC.01 
*SOURCE FILE: 19Y08M08
001933  19Y08M08                         A5    C        12:13:06:03 12:13:07:12 01:06:28:19 01:06:30:03 
*FROM CLIP NAME:  5-6BK4/01.SYNC.01 
*SOURCE FILE: 19Y08M08
001934  19Y08M08                         A6    C        12:13:06:03 12:13:07:12 01:06:28:19 01:06:30:03 
*FROM CLIP NAME:  5-6BK4/01.SYNC.01 
*SOURCE FILE: 19Y08M08
001935  19Y08M08                         A7    C        12:13:06:03 12:13:07:12 01:06:28:19 01:06:30:03 
*FROM CLIP NAME:  5-6BK4/01.SYNC.01 
*SOURCE FILE: 19Y08M08
001936  19Y08M08                         A8    C        12:13:06:03 12:13:07:12 01:06:28:19 01:06:30:03 
*FROM CLIP NAME:  5-6BK4/01.SYNC.01 
*SOURCE FILE: 19Y08M08
001937  19Y08M08                         A9    C        12:13:06:03 12:13:07:12 01:06:28:19 01:06:30:03 
*FROM CLIP NAME:  5-6BK4/01.SYNC.01 
*SOURCE FILE: 19Y08M08
001938  19Y08M08                         A10   C        12:13:06:03 12:13:07:12 01:06:28:19 01:06:30:03 
*FROM CLIP NAME:  5-6BK4/01.SYNC.01 
*PATCH 19Y08M08:  FROM SOURCE 1 TO RECORD 10 
*SOURCE FILE: 19Y08M08
001939  19Y08M08                         A     C        12:13:06:18 12:13:09:02 01:06:30:03 01:06:32:12 
*FROM CLIP NAME:  5-6BK4/01.SYNC.01 
*SOURCE FILE: 19Y08M08
001940  19Y08M08                         A2    C        12:13:06:18 12:13:09:02 01:06:30:03 01:06:32:12 
*FROM CLIP NAME:  5-6BK4/01.SYNC.01 
*SOURCE FILE: 19Y08M08
001941  19Y08M08                         A3    C        12:13:06:18 12:13:09:02 01:06:30:03 01:06:32:12 
*FROM CLIP NAME:  5-6BK4/01.SYNC.01 
*SOURCE FILE: 19Y08M08
001942  19Y08M08                         A4    C        12:13:06:18 12:13:09:02 01:06:30:03 01:06:32:12 
*FROM CLIP NAME:  5-6BK4/01.SYNC.01 
*SOURCE FILE: 19Y08M08
001943  19Y08M08                         A5    C        12:13:06:18 12:13:09:02 01:06:30:03 01:06:32:12 
*FROM CLIP NAME:  5-6BK4/01.SYNC.01 
*SOURCE FILE: 19Y08M08
001944  19Y08M08                         A6    C        12:13:06:18 12:13:09:02 01:06:30:03 01:06:32:12 
*FROM CLIP NAME:  5-6BK4/01.SYNC.01 
*SOURCE FILE: 19Y08M08
001945  19Y08M08                         A7    C        12:13:06:18 12:13:09:02 01:06:30:03 01:06:32:12 
*FROM CLIP NAME:  5-6BK4/01.SYNC.01 
*SOURCE FILE: 19Y08M08
001946  19Y08M08                         A8    C        12:13:06:18 12:13:09:02 01:06:30:03 01:06:32:12 
*FROM CLIP NAME:  5-6BK4/01.SYNC.01 
*SOURCE FILE: 19Y08M08
001947  19Y08M08                         A9    C        12:13:06:18 12:13:09:02 01:06:30:03 01:06:32:12 
*FROM CLIP NAME:  5-6BK4/01.SYNC.01 
*SOURCE FILE: 19Y08M08
001948  19Y08M08                         A10   C        12:13:06:18 12:13:09:02 01:06:30:03 01:06:32:12 
*FROM CLIP NAME:  5-6BK4/01.SYNC.01 
*PATCH 19Y08M08:  FROM SOURCE 1 TO RECORD 10 
*SOURCE FILE: 19Y08M08
001949  MSMMMOB.51                       V     C        11:53:49:04 11:53:51:08 01:06:31:17 01:06:33:21 
M2      MSMMMOB.51                                025.0 11:53:49:04 
*FROM CLIP NAME:  B005C002_190808_R16N 
*SOURCE FILE: MSMMMOB.51
001950  19Y08M08                         A     C        12:13:09:21 12:13:11:05 01:06:32:12 01:06:33:21 
*FROM CLIP NAME:  5-6BK4/01.SYNC.01 
*SOURCE FILE: 19Y08M08
001951  19Y08M08                         A2    C        12:13:09:21 12:13:11:05 01:06:32:12 01:06:33:21 
*FROM CLIP NAME:  5-6BK4/01.SYNC.01 
*SOURCE FILE: 19Y08M08
001952  19Y08M08                         A3    C        12:13:09:21 12:13:11:05 01:06:32:12 01:06:33:21 
*FROM CLIP NAME:  5-6BK4/01.SYNC.01 
*SOURCE FILE: 19Y08M08
001953  19Y08M08                         A4    C        12:13:09:21 12:13:11:05 01:06:32:12 01:06:33:21 
*FROM CLIP NAME:  5-6BK4/01.SYNC.01 
*SOURCE FILE: 19Y08M08
001954  19Y08M08                         A5    C        12:13:09:21 12:13:11:05 01:06:32:12 01:06:33:21 
*FROM CLIP NAME:  5-6BK4/01.SYNC.01 
*SOURCE FILE: 19Y08M08
001955  19Y08M08                         A6    C        12:13:09:21 12:13:11:05 01:06:32:12 01:06:33:21 
*FROM CLIP NAME:  5-6BK4/01.SYNC.01 
*SOURCE FILE: 19Y08M08
001956  19Y08M08                         A9    C        12:13:09:21 12:13:11:05 01:06:32:12 01:06:33:21 
*FROM CLIP NAME:  5-6BK4/01.SYNC.01 
*SOURCE FILE: 19Y08M08
001957  MSMMMOB.44                       A7    C        12:27:19:04 12:27:19:22 01:06:33:21 01:06:34:14 
*FROM CLIP NAME:  A058C007_190809_R32C 
*PATCH MSMMMOB.44:  FROM SOURCE 2 TO RECORD 7 
*SOURCE FILE: MSMMMOB.44
001958  19Y08M09                         A8    C        12:27:19:04 12:27:19:22 01:06:33:21 01:06:34:14 
*FROM CLIP NAME:  7K3/05.SYNC.01 
*PATCH 19Y08M09:  FROM SOURCE 4 TO RECORD 8 
*SOURCE FILE: 19Y08M09
001959  19Y08M09                         A9    C        12:27:19:04 12:27:19:22 01:06:33:21 01:06:34:14 
*FROM CLIP NAME:  7K3/05.SYNC.01 
*PATCH 19Y08M09:  FROM SOURCE 1 TO RECORD 9 
*SOURCE FILE: 19Y08M09
001960  19Y08M09                         A10   C        12:27:19:04 12:27:19:22 01:06:33:21 01:06:34:14 
*FROM CLIP NAME:  7K3/05.SYNC.01 
*PATCH 19Y08M09:  FROM SOURCE 6 TO RECORD 10 
*SOURCE FILE: 19Y08M09
001961  19Y08M09                         A11   C        12:27:19:04 12:27:19:22 01:06:33:21 01:06:34:14 
*FROM CLIP NAME:  7K3/05.SYNC.01 
*PATCH 19Y08M09:  FROM SOURCE 3 TO RECORD 11 
*SOURCE FILE: 19Y08M09
001962  19Y08M09                         A12   C        12:27:19:04 12:27:19:22 01:06:33:21 01:06:34:14 
*FROM CLIP NAME:  7K3/05.SYNC.01 
*PATCH 19Y08M09:  FROM SOURCE 5 TO RECORD 12 
*SOURCE FILE: 19Y08M09
001963  19Y08M09                         A     C        11:23:40:15 11:23:43:04 01:06:33:21 01:06:36:10 
*FROM CLIP NAME:  7K1/07.SYNC.01 
*SOURCE FILE: 19Y08M09
001964  MSMMMOB.18                       A2    C        11:23:40:15 11:23:43:04 01:06:33:21 01:06:36:10 
*FROM CLIP NAME:  A057C007_190809_R32C 
*SOURCE FILE: MSMMMOB.18
001965  19Y08M09                         A3    C        11:23:40:15 11:23:43:04 01:06:33:21 01:06:36:10 
*FROM CLIP NAME:  7K1/07.SYNC.01 
*SOURCE FILE: 19Y08M09
001966  19Y08M09                         A4    C        11:23:40:15 11:23:43:04 01:06:33:21 01:06:36:10 
*FROM CLIP NAME:  7K1/07.SYNC.01 
*SOURCE FILE: 19Y08M09
001967  19Y08M09                         A5    C        11:23:40:15 11:23:43:04 01:06:33:21 01:06:36:10 
*FROM CLIP NAME:  7K1/07.SYNC.01 
*SOURCE FILE: 19Y08M09
001968  19Y08M09                         A6    C        11:23:40:15 11:23:43:04 01:06:33:21 01:06:36:10 
*FROM CLIP NAME:  7K1/07.SYNC.01 
*SOURCE FILE: 19Y08M09
001969  MSMMMOB.18                       V     C        11:23:40:15 11:23:43:12 01:06:33:21 01:06:36:18 
M2      MSMMMOB.18                                025.0 11:23:40:15 
*FROM CLIP NAME:  A057C007_190809_R32C 
*SOURCE FILE: MSMMMOB.18
001970  19Y08M09                         A     C        11:23:43:04 11:23:43:04 01:06:36:10 01:06:36:10 
001970  19Y08M09                         A     D    002 12:27:19:11 12:27:19:13 01:06:36:10 01:06:36:12 
*FROM CLIP NAME:  7K1/07.SYNC.01 
*TO CLIP NAME:  7K3/05.SYNC.01 
*SOURCE FILE: 19Y08M09
001971  MSMMMOB.18                       A2    C        11:23:43:04 11:23:43:04 01:06:36:10 01:06:36:10 
001971  MSMMMOB.44                       A2    D    002 12:27:19:11 12:27:19:13 01:06:36:10 01:06:36:12 
*FROM CLIP NAME:  A057C007_190809_R32C 
*TO CLIP NAME:  A058C007_190809_R32C 
*SOURCE FILE: MSMMMOB.18
001972  19Y08M09                         A3    C        11:23:43:04 11:23:43:04 01:06:36:10 01:06:36:10 
001972  19Y08M09                         A3    D    002 12:27:19:11 12:27:19:13 01:06:36:10 01:06:36:12 
*FROM CLIP NAME:  7K1/07.SYNC.01 
*TO CLIP NAME:  7K3/05.SYNC.01 
*SOURCE FILE: 19Y08M09
001973  19Y08M09                         A4    C        11:23:43:04 11:23:43:04 01:06:36:10 01:06:36:10 
001973  19Y08M09                         A4    D    002 12:27:19:11 12:27:19:13 01:06:36:10 01:06:36:12 
*FROM CLIP NAME:  7K1/07.SYNC.01 
*TO CLIP NAME:  7K3/05.SYNC.01 
*SOURCE FILE: 19Y08M09
001974  19Y08M09                         A5    C        11:23:43:04 11:23:43:04 01:06:36:10 01:06:36:10 
001974  19Y08M09                         A5    D    002 12:27:19:11 12:27:19:13 01:06:36:10 01:06:36:12 
*FROM CLIP NAME:  7K1/07.SYNC.01 
*TO CLIP NAME:  7K3/05.SYNC.01 
*SOURCE FILE: 19Y08M09
001975  19Y08M09                         A6    C        11:23:43:04 11:23:43:04 01:06:36:10 01:06:36:10 
001975  19Y08M09                         A6    D    002 12:27:19:11 12:27:19:13 01:06:36:10 01:06:36:12 
*FROM CLIP NAME:  7K1/07.SYNC.01 
*TO CLIP NAME:  7K3/05.SYNC.01 
*SOURCE FILE: 19Y08M09
001976  19Y08M09                         A     C        12:27:19:13 12:27:19:19 01:06:36:12 01:06:36:18 
*FROM CLIP NAME:  7K3/05.SYNC.01 
*SOURCE FILE: 19Y08M09
001977  MSMMMOB.44                       A2    C        12:27:19:13 12:27:19:19 01:06:36:12 01:06:36:18 
*FROM CLIP NAME:  A058C007_190809_R32C 
*SOURCE FILE: MSMMMOB.44
001978  19Y08M09                         A3    C        12:27:19:13 12:27:19:19 01:06:36:12 01:06:36:18 
*FROM CLIP NAME:  7K3/05.SYNC.01 
*SOURCE FILE: 19Y08M09
001979  19Y08M09                         A4    C        12:27:19:13 12:27:19:19 01:06:36:12 01:06:36:18 
*FROM CLIP NAME:  7K3/05.SYNC.01 
*SOURCE FILE: 19Y08M09
001980  19Y08M09                         A5    C        12:27:19:13 12:27:19:19 01:06:36:12 01:06:36:18 
*FROM CLIP NAME:  7K3/05.SYNC.01 
*SOURCE FILE: 19Y08M09
001981  19Y08M09                         A6    C        12:27:19:13 12:27:19:19 01:06:36:12 01:06:36:18 
*FROM CLIP NAME:  7K3/05.SYNC.01 
*SOURCE FILE: 19Y08M09
001982  MSMMMOB.44                       V     C        12:27:21:22 12:27:24:16 01:06:36:18 01:06:39:12 
M2      MSMMMOB.44                                025.0 12:27:21:22 
*FROM CLIP NAME:  A058C007_190809_R32C 
*SOURCE FILE: MSMMMOB.44
001983  19Y08M09                         A     C        12:27:21:22 12:27:24:16 01:06:36:18 01:06:39:12 
*FROM CLIP NAME:  7K3/05.SYNC.01 
*SOURCE FILE: 19Y08M09
001984  MSMMMOB.44                       A2    C        12:27:21:22 12:27:24:16 01:06:36:18 01:06:39:12 
*FROM CLIP NAME:  A058C007_190809_R32C 
*SOURCE FILE: MSMMMOB.44
001985  19Y08M09                         A3    C        12:27:21:22 12:27:24:16 01:06:36:18 01:06:39:12 
*FROM CLIP NAME:  7K3/05.SYNC.01 
*SOURCE FILE: 19Y08M09
001986  19Y08M09                         A4    C        12:27:21:22 12:27:24:16 01:06:36:18 01:06:39:12 
*FROM CLIP NAME:  7K3/05.SYNC.01 
*SOURCE FILE: 19Y08M09
001987  19Y08M09                         A5    C        12:27:21:22 12:27:24:16 01:06:36:18 01:06:39:12 
*FROM CLIP NAME:  7K3/05.SYNC.01 
*SOURCE FILE: 19Y08M09
001988  19Y08M09                         A6    C        12:27:21:22 12:27:24:16 01:06:36:18 01:06:39:12 
*FROM CLIP NAME:  7K3/05.SYNC.01 
*SOURCE FILE: 19Y08M09
001989  MSMMMOB.01                       V     C        11:57:13:04 11:57:19:02 01:06:39:12 01:06:45:10 
M2      MSMMMOB.01                                025.0 11:57:13:04 
*FROM CLIP NAME:  A058C002_190809_R32C 
*SOURCE FILE: MSMMMOB.01
001990  19Y08M09                         A     C        11:57:13:04 11:57:19:02 01:06:39:12 01:06:45:10 
*FROM CLIP NAME:  7K2/05.SYNC.01 
*SOURCE FILE: 19Y08M09
001991  MSMMMOB.01                       A2    C        11:57:13:04 11:57:19:02 01:06:39:12 01:06:45:10 
*FROM CLIP NAME:  A058C002_190809_R32C 
*SOURCE FILE: MSMMMOB.01
001992  19Y08M09                         A3    C        11:57:13:04 11:57:19:02 01:06:39:12 01:06:45:10 
*FROM CLIP NAME:  7K2/05.SYNC.01 
*SOURCE FILE: 19Y08M09
001993  19Y08M09                         A4    C        11:57:13:04 11:57:19:02 01:06:39:12 01:06:45:10 
*FROM CLIP NAME:  7K2/05.SYNC.01 
*SOURCE FILE: 19Y08M09
001994  19Y08M09                         A5    C        11:57:13:04 11:57:19:02 01:06:39:12 01:06:45:10 
*FROM CLIP NAME:  7K2/05.SYNC.01 
*SOURCE FILE: 19Y08M09
001995  19Y08M09                         A6    C        11:57:13:04 11:57:19:02 01:06:39:12 01:06:45:10 
*FROM CLIP NAME:  7K2/05.SYNC.01 
*SOURCE FILE: 19Y08M09
001996  19Y08M09                         A     C        12:30:53:02 12:30:54:20 01:06:45:10 01:06:47:03 
*FROM CLIP NAME:  7K3/06.SYNC.01 
*SOURCE FILE: 19Y08M09
001997  MSMMMOB.38                       A2    C        12:30:53:02 12:30:54:20 01:06:45:10 01:06:47:03 
*FROM CLIP NAME:  A058C008_190809_R32C 
*SOURCE FILE: MSMMMOB.38
001998  19Y08M09                         A3    C        12:30:53:02 12:30:54:20 01:06:45:10 01:06:47:03 
*FROM CLIP NAME:  7K3/06.SYNC.01 
*SOURCE FILE: 19Y08M09
001999  19Y08M09                         A4    C        12:30:53:02 12:30:54:20 01:06:45:10 01:06:47:03 
*FROM CLIP NAME:  7K3/06.SYNC.01 
*SOURCE FILE: 19Y08M09
002000  19Y08M09                         A5    C        12:30:53:02 12:30:54:20 01:06:45:10 01:06:47:03 
*FROM CLIP NAME:  7K3/06.SYNC.01 
*SOURCE FILE: 19Y08M09
002001  19Y08M09                         A6    C        12:30:53:02 12:30:54:20 01:06:45:10 01:06:47:03 
*FROM CLIP NAME:  7K3/06.SYNC.01 
*SOURCE FILE: 19Y08M09
002002  MSMMMOB.38                       V     C        12:30:53:02 12:30:55:22 01:06:45:10 01:06:48:05 
M2      MSMMMOB.38                                025.0 12:30:53:02 
*FROM CLIP NAME:  A058C008_190809_R32C 
*SOURCE FILE: MSMMMOB.38
002003  19Y08M09                         A     C        12:20:34:20 12:20:35:23 01:06:47:03 01:06:48:06 
*FROM CLIP NAME:  7K3/04.SYNC.01 
*SOURCE FILE: 19Y08M09
002004  MSMMMOB.49                       A2    C        12:20:34:20 12:20:35:23 01:06:47:03 01:06:48:06 
*FROM CLIP NAME:  A058C006_190809_R32C 
*SOURCE FILE: MSMMMOB.49
002005  19Y08M09                         A3    C        12:20:34:20 12:20:35:23 01:06:47:03 01:06:48:06 
*FROM CLIP NAME:  7K3/04.SYNC.01 
*SOURCE FILE: 19Y08M09
002006  19Y08M09                         A4    C        12:20:34:20 12:20:35:23 01:06:47:03 01:06:48:06 
*FROM CLIP NAME:  7K3/04.SYNC.01 
*SOURCE FILE: 19Y08M09
002007  19Y08M09                         A5    C        12:20:34:20 12:20:35:23 01:06:47:03 01:06:48:06 
*FROM CLIP NAME:  7K3/04.SYNC.01 
*SOURCE FILE: 19Y08M09
002008  19Y08M09                         A6    C        12:20:34:20 12:20:35:23 01:06:47:03 01:06:48:06 
*FROM CLIP NAME:  7K3/04.SYNC.01 
*SOURCE FILE: 19Y08M09
002009  MSMMMOB.26                       V     C        11:52:58:04 11:52:59:21 01:06:48:05 01:06:49:22 
M2      MSMMMOB.26                                025.0 11:52:58:04 
*FROM CLIP NAME:  A058C001_190809_R32C 
*SOURCE FILE: MSMMMOB.26
002010  19Y08M09                         A     C        12:20:35:23 12:20:35:23 01:06:48:06 01:06:48:06 
002010  19Y08M09                         A     D    002 11:52:58:05 11:52:58:07 01:06:48:06 01:06:48:08 
*FROM CLIP NAME:  7K3/04.SYNC.01 
*TO CLIP NAME:  7K2/04.SYNC.01 
*SOURCE FILE: 19Y08M09
002011  MSMMMOB.49                       A2    C        12:20:35:23 12:20:35:23 01:06:48:06 01:06:48:06 
002011  MSMMMOB.26                       A2    D    002 11:52:58:05 11:52:58:07 01:06:48:06 01:06:48:08 
*FROM CLIP NAME:  A058C006_190809_R32C 
*TO CLIP NAME:  A058C001_190809_R32C 
*SOURCE FILE: MSMMMOB.49
002012  19Y08M09                         A3    C        12:20:35:23 12:20:35:23 01:06:48:06 01:06:48:06 
002012  19Y08M09                         A3    D    002 11:52:58:05 11:52:58:07 01:06:48:06 01:06:48:08 
*FROM CLIP NAME:  7K3/04.SYNC.01 
*TO CLIP NAME:  7K2/04.SYNC.01 
*SOURCE FILE: 19Y08M09
002013  19Y08M09                         A4    C        12:20:35:23 12:20:35:23 01:06:48:06 01:06:48:06 
002013  19Y08M09                         A4    D    002 11:52:58:05 11:52:58:07 01:06:48:06 01:06:48:08 
*FROM CLIP NAME:  7K3/04.SYNC.01 
*TO CLIP NAME:  7K2/04.SYNC.01 
*SOURCE FILE: 19Y08M09
002014  19Y08M09                         A5    C        12:20:35:23 12:20:35:23 01:06:48:06 01:06:48:06 
002014  19Y08M09                         A5    D    002 11:52:58:05 11:52:58:07 01:06:48:06 01:06:48:08 
*FROM CLIP NAME:  7K3/04.SYNC.01 
*TO CLIP NAME:  7K2/04.SYNC.01 
*SOURCE FILE: 19Y08M09
002015  19Y08M09                         A6    C        12:20:35:23 12:20:35:23 01:06:48:06 01:06:48:06 
002015  19Y08M09                         A6    D    002 11:52:58:05 11:52:58:07 01:06:48:06 01:06:48:08 
*FROM CLIP NAME:  7K3/04.SYNC.01 
*TO CLIP NAME:  7K2/04.SYNC.01 
*SOURCE FILE: 19Y08M09
002016  19Y08M09                         A     C        11:52:58:07 11:53:00:00 01:06:48:08 01:06:50:01 
*FROM CLIP NAME:  7K2/04.SYNC.01 
*SOURCE FILE: 19Y08M09
002017  MSMMMOB.26                       A2    C        11:52:58:07 11:53:00:00 01:06:48:08 01:06:50:01 
*FROM CLIP NAME:  A058C001_190809_R32C 
*SOURCE FILE: MSMMMOB.26
002018  19Y08M09                         A3    C        11:52:58:07 11:53:00:00 01:06:48:08 01:06:50:01 
*FROM CLIP NAME:  7K2/04.SYNC.01 
*SOURCE FILE: 19Y08M09
002019  19Y08M09                         A4    C        11:52:58:07 11:53:00:00 01:06:48:08 01:06:50:01 
*FROM CLIP NAME:  7K2/04.SYNC.01 
*SOURCE FILE: 19Y08M09
002020  19Y08M09                         A5    C        11:52:58:07 11:53:00:00 01:06:48:08 01:06:50:01 
*FROM CLIP NAME:  7K2/04.SYNC.01 
*SOURCE FILE: 19Y08M09
002021  19Y08M09                         A6    C        11:52:58:07 11:53:00:00 01:06:48:08 01:06:50:01 
*FROM CLIP NAME:  7K2/04.SYNC.01 
*SOURCE FILE: 19Y08M09
002022  MSMMMOB.44                       V     C        12:27:36:03 12:27:39:02 01:06:49:22 01:06:52:21 
M2      MSMMMOB.44                                025.0 12:27:36:03 
*FROM CLIP NAME:  A058C007_190809_R32C 
*SOURCE FILE: MSMMMOB.44
002023  19Y08M09                         A     C        12:27:36:07 12:27:38:17 01:06:50:01 01:06:52:11 
*FROM CLIP NAME:  7K3/05.SYNC.01 
*SOURCE FILE: 19Y08M09
002024  MSMMMOB.44                       A2    C        12:27:36:07 12:27:38:17 01:06:50:01 01:06:52:11 
*FROM CLIP NAME:  A058C007_190809_R32C 
*SOURCE FILE: MSMMMOB.44
002025  19Y08M09                         A3    C        12:27:36:07 12:27:38:17 01:06:50:01 01:06:52:11 
*FROM CLIP NAME:  7K3/05.SYNC.01 
*SOURCE FILE: 19Y08M09
002026  19Y08M09                         A4    C        12:27:36:07 12:27:38:17 01:06:50:01 01:06:52:11 
*FROM CLIP NAME:  7K3/05.SYNC.01 
*SOURCE FILE: 19Y08M09
002027  19Y08M09                         A5    C        12:27:36:07 12:27:38:17 01:06:50:01 01:06:52:11 
*FROM CLIP NAME:  7K3/05.SYNC.01 
*SOURCE FILE: 19Y08M09
002028  19Y08M09                         A6    C        12:27:36:07 12:27:38:17 01:06:50:01 01:06:52:11 
*FROM CLIP NAME:  7K3/05.SYNC.01 
*SOURCE FILE: 19Y08M09
002029  19Y08M09                         A     C        12:27:38:17 12:27:38:17 01:06:52:11 01:06:52:11 
002029  19Y08M09                         A     D    002 11:24:00:12 11:24:00:14 01:06:52:11 01:06:52:13 
*FROM CLIP NAME:  7K3/05.SYNC.01 
*TO CLIP NAME:  7K1/07.SYNC.01 
*SOURCE FILE: 19Y08M09
002030  MSMMMOB.44                       A2    C        12:27:38:17 12:27:38:17 01:06:52:11 01:06:52:11 
002030  MSMMMOB.18                       A2    D    002 11:24:00:12 11:24:00:14 01:06:52:11 01:06:52:13 
*FROM CLIP NAME:  A058C007_190809_R32C 
*TO CLIP NAME:  A057C007_190809_R32C 
*SOURCE FILE: MSMMMOB.44
002031  19Y08M09                         A3    C        12:27:38:17 12:27:38:17 01:06:52:11 01:06:52:11 
002031  19Y08M09                         A3    D    002 11:24:00:12 11:24:00:14 01:06:52:11 01:06:52:13 
*FROM CLIP NAME:  7K3/05.SYNC.01 
*TO CLIP NAME:  7K1/07.SYNC.01 
*SOURCE FILE: 19Y08M09
002032  19Y08M09                         A4    C        12:27:38:17 12:27:38:17 01:06:52:11 01:06:52:11 
002032  19Y08M09                         A4    D    002 11:24:00:12 11:24:00:14 01:06:52:11 01:06:52:13 
*FROM CLIP NAME:  7K3/05.SYNC.01 
*TO CLIP NAME:  7K1/07.SYNC.01 
*SOURCE FILE: 19Y08M09
002033  19Y08M09                         A5    C        12:27:38:17 12:27:38:17 01:06:52:11 01:06:52:11 
002033  19Y08M09                         A5    D    002 11:24:00:12 11:24:00:14 01:06:52:11 01:06:52:13 
*FROM CLIP NAME:  7K3/05.SYNC.01 
*TO CLIP NAME:  7K1/07.SYNC.01 
*SOURCE FILE: 19Y08M09
002034  19Y08M09                         A6    C        12:27:38:17 12:27:38:17 01:06:52:11 01:06:52:11 
002034  19Y08M09                         A6    D    002 11:24:00:12 11:24:00:14 01:06:52:11 01:06:52:13 
*FROM CLIP NAME:  7K3/05.SYNC.01 
*TO CLIP NAME:  7K1/07.SYNC.01 
*SOURCE FILE: 19Y08M09
002035  19Y08M09                         A     C        11:24:00:14 11:24:07:23 01:06:52:13 01:06:59:22 
*FROM CLIP NAME:  7K1/07.SYNC.01 
*SOURCE FILE: 19Y08M09
002036  MSMMMOB.18                       A2    C        11:24:00:14 11:24:07:23 01:06:52:13 01:06:59:22 
*FROM CLIP NAME:  A057C007_190809_R32C 
*SOURCE FILE: MSMMMOB.18
002037  19Y08M09                         A3    C        11:24:00:14 11:24:07:23 01:06:52:13 01:06:59:22 
*FROM CLIP NAME:  7K1/07.SYNC.01 
*SOURCE FILE: 19Y08M09
002038  19Y08M09                         A4    C        11:24:00:14 11:24:07:23 01:06:52:13 01:06:59:22 
*FROM CLIP NAME:  7K1/07.SYNC.01 
*SOURCE FILE: 19Y08M09
002039  19Y08M09                         A5    C        11:24:00:14 11:24:07:23 01:06:52:13 01:06:59:22 
*FROM CLIP NAME:  7K1/07.SYNC.01 
*SOURCE FILE: 19Y08M09
002040  19Y08M09                         A6    C        11:24:00:14 11:24:07:23 01:06:52:13 01:06:59:22 
*FROM CLIP NAME:  7K1/07.SYNC.01 
*SOURCE FILE: 19Y08M09
002041  MSMMMOB.18                       V     C        11:24:00:22 11:24:07:23 01:06:52:21 01:06:59:22 
M2      MSMMMOB.18                                025.0 11:24:00:22 
*FROM CLIP NAME:  A057C007_190809_R32C 
*SOURCE FILE: MSMMMOB.18
002043  BL                               V     C        00:00:00:00 00:00:01:19 01:06:59:22 01:07:01:16 
*SOURCE FILE: (NULL)
002042  MSMMMOB.06                       V     C        12:53:19:13 12:53:21:07 01:06:59:22 01:07:01:16 
M2      MSMMMOB.06                                025.0 12:53:19:13 
*FROM CLIP NAME:  A059C003_190809_R32C 
*SOURCE FILE: MSMMMOB.06
002044  19Y08M09                         A     C        11:57:34:08 11:57:38:21 01:06:59:22 01:07:04:10 
*FROM CLIP NAME:  7K2/05.SYNC.01 
*SOURCE FILE: 19Y08M09
002045  MSMMMOB.01                       A2    C        11:57:34:08 11:57:38:21 01:06:59:22 01:07:04:10 
*FROM CLIP NAME:  A058C002_190809_R32C 
*SOURCE FILE: MSMMMOB.01
002046  19Y08M09                         A3    C        11:57:34:08 11:57:38:21 01:06:59:22 01:07:04:10 
*FROM CLIP NAME:  7K2/05.SYNC.01 
*SOURCE FILE: 19Y08M09
002047  19Y08M09                         A4    C        11:57:34:08 11:57:38:21 01:06:59:22 01:07:04:10 
*FROM CLIP NAME:  7K2/05.SYNC.01 
*SOURCE FILE: 19Y08M09
002048  19Y08M09                         A5    C        11:57:34:08 11:57:38:21 01:06:59:22 01:07:04:10 
*FROM CLIP NAME:  7K2/05.SYNC.01 
*SOURCE FILE: 19Y08M09
002049  19Y08M09                         A6    C        11:57:34:08 11:57:38:21 01:06:59:22 01:07:04:10 
*FROM CLIP NAME:  7K2/05.SYNC.01 
*SOURCE FILE: 19Y08M09
002050  MSMMMOB.01                       V     C        11:57:36:02 11:57:38:21 01:07:01:16 01:07:04:10 
M2      MSMMMOB.01                                025.0 11:57:36:02 
*FROM CLIP NAME:  A058C002_190809_R32C 
*SOURCE FILE: MSMMMOB.01
002051  BL                               V     C        00:00:00:00 00:00:02:19 01:07:01:16 01:07:04:10 
*SOURCE FILE: (NULL)
002052  19Y08M09                         A     C        11:57:40:08 11:57:40:11 01:07:04:10 01:07:04:13 
*FROM CLIP NAME:  7K2/05.SYNC.01 
*SOURCE FILE: 19Y08M09
002053  MSMMMOB.01                       A2    C        11:57:40:08 11:57:40:11 01:07:04:10 01:07:04:13 
*FROM CLIP NAME:  A058C002_190809_R32C 
*SOURCE FILE: MSMMMOB.01
002054  19Y08M09                         A3    C        11:57:40:08 11:57:40:11 01:07:04:10 01:07:04:13 
*FROM CLIP NAME:  7K2/05.SYNC.01 
*SOURCE FILE: 19Y08M09
002055  19Y08M09                         A4    C        11:57:40:08 11:57:40:11 01:07:04:10 01:07:04:13 
*FROM CLIP NAME:  7K2/05.SYNC.01 
*SOURCE FILE: 19Y08M09
002056  19Y08M09                         A5    C        11:57:40:08 11:57:40:11 01:07:04:10 01:07:04:13 
*FROM CLIP NAME:  7K2/05.SYNC.01 
*SOURCE FILE: 19Y08M09
002057  19Y08M09                         A6    C        11:57:40:08 11:57:40:11 01:07:04:10 01:07:04:13 
*FROM CLIP NAME:  7K2/05.SYNC.01 
*SOURCE FILE: 19Y08M09
002058  BL                               V     C        00:00:00:00 00:00:02:16 01:07:04:10 01:07:07:01 
*SOURCE FILE: (NULL)
002059  MSMMMOB.06                       V     C        12:53:26:15 12:53:29:06 01:07:04:10 01:07:07:01 
M2      MSMMMOB.06                                025.0 12:53:26:15 
*FROM CLIP NAME:  A059C003_190809_R32C 
*SOURCE FILE: MSMMMOB.06
002060  19Y08M09                         A     C        12:53:26:18 12:53:27:20 01:07:04:13 01:07:05:15 
*FROM CLIP NAME:  7K5/03.SYNC.01 
*SOURCE FILE: 19Y08M09
002061  MSMMMOB.06                       A2    C        12:53:26:18 12:53:27:20 01:07:04:13 01:07:05:15 
*FROM CLIP NAME:  A059C003_190809_R32C 
*SOURCE FILE: MSMMMOB.06
002062  19Y08M09                         A3    C        12:53:26:18 12:53:27:20 01:07:04:13 01:07:05:15 
*FROM CLIP NAME:  7K5/03.SYNC.01 
*SOURCE FILE: 19Y08M09
002063  MSMMMOB.06                       A4    C        12:53:26:18 12:53:27:20 01:07:04:13 01:07:05:15 
*FROM CLIP NAME:  A059C003_190809_R32C 
*SOURCE FILE: MSMMMOB.06
002064  MSMMMOB.06                       A5    C        12:53:26:18 12:53:27:20 01:07:04:13 01:07:05:15 
*FROM CLIP NAME:  A059C003_190809_R32C 
*SOURCE FILE: MSMMMOB.06
002065  TINDER_NOTIFICACION_SOUND_EFFECT A7    C        01:00:00:12 01:00:01:07 01:07:05:03 01:07:05:23 
*FROM CLIP NAME:  TINDER NOTIFICACION SOUND EFFECT.MP4 
*PATCH TINDER_NOTIFICACION_SOUND_EFFECT:  FROM SOURCE 1 TO RECORD 7 
*SOURCE FILE: TINDER NOTIFICACION SOUND EFFECT.MP4
002066  TINDER_NOTIFICACION_SOUND_EFFECT A8    C        01:00:00:12 01:00:01:07 01:07:05:03 01:07:05:23 
*FROM CLIP NAME:  TINDER NOTIFICACION SOUND EFFECT.MP4 
*PATCH TINDER_NOTIFICACION_SOUND_EFFECT:  FROM SOURCE 2 TO RECORD 8 
*SOURCE FILE: TINDER NOTIFICACION SOUND EFFECT.MP4
002067  19Y08M09                         A     C        12:53:28:23 12:53:29:06 01:07:05:15 01:07:05:23 
*FROM CLIP NAME:  7K5/03.SYNC.01 
*SOURCE FILE: 19Y08M09
002068  MSMMMOB.06                       A2    C        12:53:28:23 12:53:29:06 01:07:05:15 01:07:05:23 
*FROM CLIP NAME:  A059C003_190809_R32C 
*SOURCE FILE: MSMMMOB.06
002069  19Y08M09                         A3    C        12:53:28:23 12:53:29:06 01:07:05:15 01:07:05:23 
*FROM CLIP NAME:  7K5/03.SYNC.01 
*SOURCE FILE: 19Y08M09
002070  MSMMMOB.06                       A4    C        12:53:28:23 12:53:29:06 01:07:05:15 01:07:05:23 
*FROM CLIP NAME:  A059C003_190809_R32C 
*SOURCE FILE: MSMMMOB.06
002071  MSMMMOB.06                       A5    C        12:53:28:23 12:53:29:06 01:07:05:15 01:07:05:23 
*FROM CLIP NAME:  A059C003_190809_R32C 
*SOURCE FILE: MSMMMOB.06
002072  19Y08M09                         A     C        11:47:38:23 11:47:43:05 01:07:05:23 01:07:10:05 
*FROM CLIP NAME:  7K2/03.SYNC.01 
*SOURCE FILE: 19Y08M09
002073  MSMMMOB.31                       A2    C        11:47:38:23 11:47:43:05 01:07:05:23 01:07:10:05 
*FROM CLIP NAME:  A057C010_190809_R32C 
*SOURCE FILE: MSMMMOB.31
002074  19Y08M09                         A3    C        11:47:38:23 11:47:43:05 01:07:05:23 01:07:10:05 
*FROM CLIP NAME:  7K2/03.SYNC.01 
*SOURCE FILE: 19Y08M09
002075  19Y08M09                         A4    C        11:47:38:23 11:47:43:05 01:07:05:23 01:07:10:05 
*FROM CLIP NAME:  7K2/03.SYNC.01 
*SOURCE FILE: 19Y08M09
002076  19Y08M09                         A5    C        11:47:38:23 11:47:43:05 01:07:05:23 01:07:10:05 
*FROM CLIP NAME:  7K2/03.SYNC.01 
*SOURCE FILE: 19Y08M09
002077  19Y08M09                         A6    C        11:47:38:23 11:47:43:05 01:07:05:23 01:07:10:05 
*FROM CLIP NAME:  7K2/03.SYNC.01 
*SOURCE FILE: 19Y08M09
002078  MSMMMOB.31                       V     C        11:47:40:01 11:47:43:05 01:07:07:01 01:07:10:05 
M2      MSMMMOB.31                                025.0 11:47:40:01 
*FROM CLIP NAME:  A057C010_190809_R32C 
*SOURCE FILE: MSMMMOB.31
002079  BL                               V     C        00:00:00:00 00:00:10:01 01:07:07:01 01:07:17:02 
*SOURCE FILE: (NULL)
002080  MSMMMOB.18                       V     C        11:24:18:14 11:24:25:11 01:07:10:05 01:07:17:02 
M2      MSMMMOB.18                                025.0 11:24:18:14 
*FROM CLIP NAME:  A057C007_190809_R32C 
*SOURCE FILE: MSMMMOB.18
002081  19Y08M09                         A     C        11:24:18:14 11:24:25:11 01:07:10:05 01:07:17:02 
*FROM CLIP NAME:  7K1/07.SYNC.01 
*SOURCE FILE: 19Y08M09
002082  MSMMMOB.18                       A2    C        11:24:18:14 11:24:25:11 01:07:10:05 01:07:17:02 
*FROM CLIP NAME:  A057C007_190809_R32C 
*SOURCE FILE: MSMMMOB.18
002083  19Y08M09                         A3    C        11:24:18:14 11:24:25:11 01:07:10:05 01:07:17:02 
*FROM CLIP NAME:  7K1/07.SYNC.01 
*SOURCE FILE: 19Y08M09
002084  19Y08M09                         A4    C        11:24:18:14 11:24:25:11 01:07:10:05 01:07:17:02 
*FROM CLIP NAME:  7K1/07.SYNC.01 
*SOURCE FILE: 19Y08M09
002085  19Y08M09                         A5    C        11:24:18:14 11:24:25:11 01:07:10:05 01:07:17:02 
*FROM CLIP NAME:  7K1/07.SYNC.01 
*SOURCE FILE: 19Y08M09
002086  19Y08M09                         A6    C        11:24:18:14 11:24:25:11 01:07:10:05 01:07:17:02 
*FROM CLIP NAME:  7K1/07.SYNC.01 
*SOURCE FILE: 19Y08M09
002087  TINDER_NOTIFICACION_SOUND_EFFECT A7    C        01:00:00:12 01:00:01:07 01:07:15:09 01:07:16:04 
*FROM CLIP NAME:  TINDER NOTIFICACION SOUND EFFECT.MP4 
*PATCH TINDER_NOTIFICACION_SOUND_EFFECT:  FROM SOURCE 1 TO RECORD 7 
*SOURCE FILE: TINDER NOTIFICACION SOUND EFFECT.MP4
002088  TINDER_NOTIFICACION_SOUND_EFFECT A8    C        01:00:00:12 01:00:01:07 01:07:15:09 01:07:16:04 
*FROM CLIP NAME:  TINDER NOTIFICACION SOUND EFFECT.MP4 
*PATCH TINDER_NOTIFICACION_SOUND_EFFECT:  FROM SOURCE 2 TO RECORD 8 
*SOURCE FILE: TINDER NOTIFICACION SOUND EFFECT.MP4
002090  MSMMMOB.06                       V     C        12:54:05:23 12:54:07:24 01:07:17:02 01:07:19:03 
M2      MSMMMOB.06                                025.0 12:54:05:23 
*FROM CLIP NAME:  A059C003_190809_R32C 
*SOURCE FILE: MSMMMOB.06
002089  BL                               V     C        00:00:00:00 00:00:02:01 01:07:17:02 01:07:19:03 
*SOURCE FILE: (NULL)
002091  19Y08M09                         A     C        12:54:06:04 12:54:08:05 01:07:17:02 01:07:19:03 
*FROM CLIP NAME:  7K5/03.SYNC.01 
*SOURCE FILE: 19Y08M09
002092  MSMMMOB.06                       A2    C        12:54:06:04 12:54:08:05 01:07:17:02 01:07:19:03 
*FROM CLIP NAME:  A059C003_190809_R32C 
*SOURCE FILE: MSMMMOB.06
002093  19Y08M09                         A3    C        12:54:06:04 12:54:08:05 01:07:17:02 01:07:19:03 
*FROM CLIP NAME:  7K5/03.SYNC.01 
*SOURCE FILE: 19Y08M09
002094  MSMMMOB.06                       A4    C        12:54:06:04 12:54:08:05 01:07:17:02 01:07:19:03 
*FROM CLIP NAME:  A059C003_190809_R32C 
*SOURCE FILE: MSMMMOB.06
002095  MSMMMOB.06                       A5    C        12:54:06:04 12:54:08:05 01:07:17:02 01:07:19:03 
*FROM CLIP NAME:  A059C003_190809_R32C 
*SOURCE FILE: MSMMMOB.06
002096  19Y08M09                         A     C        11:43:29:10 11:43:34:03 01:07:19:03 01:07:23:21 
*FROM CLIP NAME:  7K2/02.SYNC.01 
*SOURCE FILE: 19Y08M09
002097  MSMMMOB.23                       A2    C        11:43:29:10 11:43:34:03 01:07:19:03 01:07:23:21 
*FROM CLIP NAME:  A057C009_190809_R32C 
*SOURCE FILE: MSMMMOB.23
002098  19Y08M09                         A3    C        11:43:29:10 11:43:34:03 01:07:19:03 01:07:23:21 
*FROM CLIP NAME:  7K2/02.SYNC.01 
*SOURCE FILE: 19Y08M09
002099  19Y08M09                         A4    C        11:43:29:10 11:43:34:03 01:07:19:03 01:07:23:21 
*FROM CLIP NAME:  7K2/02.SYNC.01 
*SOURCE FILE: 19Y08M09
002100  19Y08M09                         A5    C        11:43:29:10 11:43:34:03 01:07:19:03 01:07:23:21 
*FROM CLIP NAME:  7K2/02.SYNC.01 
*SOURCE FILE: 19Y08M09
002101  19Y08M09                         A6    C        11:43:29:10 11:43:34:03 01:07:19:03 01:07:23:21 
*FROM CLIP NAME:  7K2/02.SYNC.01 
*SOURCE FILE: 19Y08M09
002102  MSMMMOB.23                       V     C        11:43:29:10 11:43:34:14 01:07:19:03 01:07:24:07 
M2      MSMMMOB.23                                025.0 11:43:29:10 
*FROM CLIP NAME:  A057C009_190809_R32C 
*SOURCE FILE: MSMMMOB.23
002103  BL                               V     C        00:00:00:00 00:00:51:00 01:07:19:03 01:08:10:03 
*SOURCE FILE: (NULL)
002104  19Y08M09                         A     C        11:24:36:09 11:24:43:02 01:07:23:21 01:07:30:14 
*FROM CLIP NAME:  7K1/07.SYNC.01 
*SOURCE FILE: 19Y08M09
002105  MSMMMOB.18                       A2    C        11:24:36:09 11:24:43:02 01:07:23:21 01:07:30:14 
*FROM CLIP NAME:  A057C007_190809_R32C 
*SOURCE FILE: MSMMMOB.18
002106  19Y08M09                         A3    C        11:24:36:09 11:24:43:02 01:07:23:21 01:07:30:14 
*FROM CLIP NAME:  7K1/07.SYNC.01 
*SOURCE FILE: 19Y08M09
002107  19Y08M09                         A4    C        11:24:36:09 11:24:43:02 01:07:23:21 01:07:30:14 
*FROM CLIP NAME:  7K1/07.SYNC.01 
*SOURCE FILE: 19Y08M09
002108  19Y08M09                         A5    C        11:24:36:09 11:24:43:02 01:07:23:21 01:07:30:14 
*FROM CLIP NAME:  7K1/07.SYNC.01 
*SOURCE FILE: 19Y08M09
002109  19Y08M09                         A6    C        11:24:36:09 11:24:43:02 01:07:23:21 01:07:30:14 
*FROM CLIP NAME:  7K1/07.SYNC.01 
*SOURCE FILE: 19Y08M09
002110  MSMMMOB.18                       V     C        11:24:36:20 11:24:41:23 01:07:24:07 01:07:29:10 
M2      MSMMMOB.18                                025.0 11:24:36:20 
*FROM CLIP NAME:  A057C007_190809_R32C 
*SOURCE FILE: MSMMMOB.18
002111  MSMMMOB.44                       V     C        12:28:24:18 12:28:27:00 01:07:29:10 01:07:31:17 
M2      MSMMMOB.44                                025.0 12:28:24:18 
*FROM CLIP NAME:  A058C007_190809_R32C 
*SOURCE FILE: MSMMMOB.44
002112  19Y08M09                         A     C        11:58:18:01 11:58:19:01 01:07:30:14 01:07:31:14 
*FROM CLIP NAME:  7K2/05.SYNC.01 
*SOURCE FILE: 19Y08M09
002113  MSMMMOB.01                       A2    C        11:58:18:01 11:58:19:01 01:07:30:14 01:07:31:14 
*FROM CLIP NAME:  A058C002_190809_R32C 
*SOURCE FILE: MSMMMOB.01
002114  19Y08M09                         A3    C        11:58:18:01 11:58:19:01 01:07:30:14 01:07:31:14 
*FROM CLIP NAME:  7K2/05.SYNC.01 
*SOURCE FILE: 19Y08M09
002115  19Y08M09                         A4    C        11:58:18:01 11:58:19:01 01:07:30:14 01:07:31:14 
*FROM CLIP NAME:  7K2/05.SYNC.01 
*SOURCE FILE: 19Y08M09
002116  19Y08M09                         A5    C        11:58:18:01 11:58:19:01 01:07:30:14 01:07:31:14 
*FROM CLIP NAME:  7K2/05.SYNC.01 
*SOURCE FILE: 19Y08M09
002117  19Y08M09                         A6    C        11:58:18:01 11:58:19:01 01:07:30:14 01:07:31:14 
*FROM CLIP NAME:  7K2/05.SYNC.01 
*SOURCE FILE: 19Y08M09
002118  19Y08M09                         A     C        11:58:19:01 11:58:19:01 01:07:31:14 01:07:31:14 
002118  19Y08M09                         A     D    002 11:53:50:11 11:53:50:13 01:07:31:14 01:07:31:16 
*FROM CLIP NAME:  7K2/05.SYNC.01 
*TO CLIP NAME:  7K2/04.SYNC.01 
*SOURCE FILE: 19Y08M09
002119  MSMMMOB.01                       A2    C        11:58:19:01 11:58:19:01 01:07:31:14 01:07:31:14 
002119  MSMMMOB.26                       A2    D    002 11:53:50:11 11:53:50:13 01:07:31:14 01:07:31:16 
*FROM CLIP NAME:  A058C002_190809_R32C 
*TO CLIP NAME:  A058C001_190809_R32C 
*SOURCE FILE: MSMMMOB.01
002120  19Y08M09                         A3    C        11:58:19:01 11:58:19:01 01:07:31:14 01:07:31:14 
002120  19Y08M09                         A3    D    002 11:53:50:11 11:53:50:13 01:07:31:14 01:07:31:16 
*FROM CLIP NAME:  7K2/05.SYNC.01 
*TO CLIP NAME:  7K2/04.SYNC.01 
*SOURCE FILE: 19Y08M09
002121  19Y08M09                         A4    C        11:58:19:01 11:58:19:01 01:07:31:14 01:07:31:14 
002121  19Y08M09                         A4    D    002 11:53:50:11 11:53:50:13 01:07:31:14 01:07:31:16 
*FROM CLIP NAME:  7K2/05.SYNC.01 
*TO CLIP NAME:  7K2/04.SYNC.01 
*SOURCE FILE: 19Y08M09
002122  19Y08M09                         A5    C        11:58:19:01 11:58:19:01 01:07:31:14 01:07:31:14 
002122  19Y08M09                         A5    D    002 11:53:50:11 11:53:50:13 01:07:31:14 01:07:31:16 
*FROM CLIP NAME:  7K2/05.SYNC.01 
*TO CLIP NAME:  7K2/04.SYNC.01 
*SOURCE FILE: 19Y08M09
002123  19Y08M09                         A6    C        11:58:19:01 11:58:19:01 01:07:31:14 01:07:31:14 
002123  19Y08M09                         A6    D    002 11:53:50:11 11:53:50:13 01:07:31:14 01:07:31:16 
*FROM CLIP NAME:  7K2/05.SYNC.01 
*TO CLIP NAME:  7K2/04.SYNC.01 
*SOURCE FILE: 19Y08M09
002124  19Y08M09                         A6    C        11:53:50:13 11:53:56:05 01:07:31:16 01:07:37:08 
*FROM CLIP NAME:  7K2/04.SYNC.01 
*SOURCE FILE: 19Y08M09
002125  19Y08M09                         A     C        11:53:50:13 11:53:56:15 01:07:31:16 01:07:37:18 
*FROM CLIP NAME:  7K2/04.SYNC.01 
*SOURCE FILE: 19Y08M09
002126  MSMMMOB.26                       A2    C        11:53:50:13 11:53:56:19 01:07:31:16 01:07:37:22 
*FROM CLIP NAME:  A058C001_190809_R32C 
*SOURCE FILE: MSMMMOB.26
002127  19Y08M09                         A3    C        11:53:50:13 11:53:56:19 01:07:31:16 01:07:37:22 
*FROM CLIP NAME:  7K2/04.SYNC.01 
*SOURCE FILE: 19Y08M09
002128  19Y08M09                         A4    C        11:53:50:13 11:53:56:19 01:07:31:16 01:07:37:22 
*FROM CLIP NAME:  7K2/04.SYNC.01 
*SOURCE FILE: 19Y08M09
002129  19Y08M09                         A5    C        11:53:50:13 11:53:56:19 01:07:31:16 01:07:37:22 
*FROM CLIP NAME:  7K2/04.SYNC.01 
*SOURCE FILE: 19Y08M09
002130  MSMMMOB.26                       V     C        11:53:50:14 11:53:55:22 01:07:31:17 01:07:37:00 
M2      MSMMMOB.26                                025.0 11:53:50:14 
*FROM CLIP NAME:  A058C001_190809_R32C 
*SOURCE FILE: MSMMMOB.26
002131  MSMMMOB.38                       V     C        12:32:07:07 12:32:09:10 01:07:37:00 01:07:39:03 
M2      MSMMMOB.38                                025.0 12:32:07:07 
*FROM CLIP NAME:  A058C008_190809_R32C 
*SOURCE FILE: MSMMMOB.38
002132  19Y08M09                         A     C        11:54:01:22 11:54:02:23 01:07:37:22 01:07:38:23 
*FROM CLIP NAME:  7K2/04.SYNC.01 
*SOURCE FILE: 19Y08M09
002133  MSMMMOB.26                       A2    C        11:54:01:22 11:54:02:23 01:07:37:22 01:07:38:23 
*FROM CLIP NAME:  A058C001_190809_R32C 
*SOURCE FILE: MSMMMOB.26
002134  19Y08M09                         A3    C        11:54:01:22 11:54:02:23 01:07:37:22 01:07:38:23 
*FROM CLIP NAME:  7K2/04.SYNC.01 
*SOURCE FILE: 19Y08M09
002135  19Y08M09                         A4    C        11:54:01:22 11:54:02:23 01:07:37:22 01:07:38:23 
*FROM CLIP NAME:  7K2/04.SYNC.01 
*SOURCE FILE: 19Y08M09
002136  19Y08M09                         A5    C        11:54:01:22 11:54:02:23 01:07:37:22 01:07:38:23 
*FROM CLIP NAME:  7K2/04.SYNC.01 
*SOURCE FILE: 19Y08M09
002137  19Y08M09                         A6    C        11:54:01:22 11:54:02:23 01:07:37:22 01:07:38:23 
*FROM CLIP NAME:  7K2/04.SYNC.01 
*SOURCE FILE: 19Y08M09
002138  19Y08M09                         A     C        11:58:32:04 11:58:43:23 01:07:38:23 01:07:50:17 
*FROM CLIP NAME:  7K2/05.SYNC.01 
*SOURCE FILE: 19Y08M09
002139  MSMMMOB.01                       A2    C        11:58:32:04 11:58:43:23 01:07:38:23 01:07:50:17 
*FROM CLIP NAME:  A058C002_190809_R32C 
*SOURCE FILE: MSMMMOB.01
002140  19Y08M09                         A3    C        11:58:32:04 11:58:43:23 01:07:38:23 01:07:50:17 
*FROM CLIP NAME:  7K2/05.SYNC.01 
*SOURCE FILE: 19Y08M09
002141  19Y08M09                         A4    C        11:58:32:04 11:58:43:23 01:07:38:23 01:07:50:17 
*FROM CLIP NAME:  7K2/05.SYNC.01 
*SOURCE FILE: 19Y08M09
002142  19Y08M09                         A5    C        11:58:32:04 11:58:43:23 01:07:38:23 01:07:50:17 
*FROM CLIP NAME:  7K2/05.SYNC.01 
*SOURCE FILE: 19Y08M09
002143  19Y08M09                         A6    C        11:58:32:04 11:58:43:23 01:07:38:23 01:07:50:17 
*FROM CLIP NAME:  7K2/05.SYNC.01 
*SOURCE FILE: 19Y08M09
002144  MSMMMOB.01                       V     C        11:58:32:09 11:58:38:16 01:07:39:03 01:07:45:10 
M2      MSMMMOB.01                                025.0 11:58:32:09 
*FROM CLIP NAME:  A058C002_190809_R32C 
*SOURCE FILE: MSMMMOB.01
002145  MSMMMOB.54                       V     C        12:43:03:11 12:43:05:21 01:07:45:10 01:07:47:20 
M2      MSMMMOB.54                                025.0 12:43:03:11 
*FROM CLIP NAME:  A059C001_190809_R32C 
*SOURCE FILE: MSMMMOB.54
002146  MSMMMOB.01                       V     C        11:58:41:01 11:58:44:20 01:07:47:20 01:07:51:14 
M2      MSMMMOB.01                                025.0 11:58:41:01 
*FROM CLIP NAME:  A058C002_190809_R32C 
*SOURCE FILE: MSMMMOB.01
002147  19Y08M09                         A     C        11:58:44:04 11:58:45:17 01:07:50:17 01:07:52:05 
*FROM CLIP NAME:  7K2/05.SYNC.01 
*SOURCE FILE: 19Y08M09
002148  MSMMMOB.01                       A2    C        11:58:44:04 11:58:45:17 01:07:50:17 01:07:52:05 
*FROM CLIP NAME:  A058C002_190809_R32C 
*SOURCE FILE: MSMMMOB.01
002149  19Y08M09                         A3    C        11:58:44:04 11:58:45:17 01:07:50:17 01:07:52:05 
*FROM CLIP NAME:  7K2/05.SYNC.01 
*SOURCE FILE: 19Y08M09
002150  19Y08M09                         A4    C        11:58:44:04 11:58:45:17 01:07:50:17 01:07:52:05 
*FROM CLIP NAME:  7K2/05.SYNC.01 
*SOURCE FILE: 19Y08M09
002151  19Y08M09                         A5    C        11:58:44:04 11:58:45:17 01:07:50:17 01:07:52:05 
*FROM CLIP NAME:  7K2/05.SYNC.01 
*SOURCE FILE: 19Y08M09
002152  19Y08M09                         A6    C        11:58:44:04 11:58:45:17 01:07:50:17 01:07:52:05 
*FROM CLIP NAME:  7K2/05.SYNC.01 
*SOURCE FILE: 19Y08M09
002153  MSMMMOB.54                       V     C        12:43:08:24 12:43:09:16 01:07:51:14 01:07:52:06 
M2      MSMMMOB.54                                025.0 12:43:08:24 
*FROM CLIP NAME:  A059C001_190809_R32C 
*SOURCE FILE: MSMMMOB.54
002154  19Y08M09                         A     C        11:58:45:17 11:58:45:17 01:07:52:05 01:07:52:05 
002154  19Y08M09                         A     D    002 11:58:47:24 11:58:48:01 01:07:52:05 01:07:52:07 
*FROM CLIP NAME:  7K2/05.SYNC.01 
*TO CLIP NAME:  7K2/05.SYNC.01 
*SOURCE FILE: 19Y08M09
002155  MSMMMOB.01                       A2    C        11:58:45:17 11:58:45:17 01:07:52:05 01:07:52:05 
002155  MSMMMOB.01                       A2    D    002 11:58:47:24 11:58:48:01 01:07:52:05 01:07:52:07 
*FROM CLIP NAME:  A058C002_190809_R32C 
*TO CLIP NAME:  A058C002_190809_R32C 
*SOURCE FILE: MSMMMOB.01
002156  19Y08M09                         A3    C        11:58:45:17 11:58:45:17 01:07:52:05 01:07:52:05 
002156  19Y08M09                         A3    D    002 11:58:47:24 11:58:48:01 01:07:52:05 01:07:52:07 
*FROM CLIP NAME:  7K2/05.SYNC.01 
*TO CLIP NAME:  7K2/05.SYNC.01 
*SOURCE FILE: 19Y08M09
002157  19Y08M09                         A4    C        11:58:45:17 11:58:45:17 01:07:52:05 01:07:52:05 
002157  19Y08M09                         A4    D    002 11:58:47:24 11:58:48:01 01:07:52:05 01:07:52:07 
*FROM CLIP NAME:  7K2/05.SYNC.01 
*TO CLIP NAME:  7K2/05.SYNC.01 
*SOURCE FILE: 19Y08M09
002158  19Y08M09                         A5    C        11:58:45:17 11:58:45:17 01:07:52:05 01:07:52:05 
002158  19Y08M09                         A5    D    002 11:58:47:24 11:58:48:01 01:07:52:05 01:07:52:07 
*FROM CLIP NAME:  7K2/05.SYNC.01 
*TO CLIP NAME:  7K2/05.SYNC.01 
*SOURCE FILE: 19Y08M09
002159  19Y08M09                         A6    C        11:58:45:17 11:58:45:17 01:07:52:05 01:07:52:05 
002159  19Y08M09                         A6    D    002 11:58:47:24 11:58:48:01 01:07:52:05 01:07:52:07 
*FROM CLIP NAME:  7K2/05.SYNC.01 
*TO CLIP NAME:  7K2/05.SYNC.01 
*SOURCE FILE: 19Y08M09
002160  MSMMMOB.01                       V     C        11:58:45:12 11:58:46:13 01:07:52:06 01:07:53:07 
M2      MSMMMOB.01                                025.0 11:58:45:12 
*FROM CLIP NAME:  A058C002_190809_R32C 
*SOURCE FILE: MSMMMOB.01
002161  19Y08M09                         A     C        11:58:48:01 11:58:48:12 01:07:52:07 01:07:52:18 
*FROM CLIP NAME:  7K2/05.SYNC.01 
*SOURCE FILE: 19Y08M09
002162  MSMMMOB.01                       A2    C        11:58:48:01 11:58:48:12 01:07:52:07 01:07:52:18 
*FROM CLIP NAME:  A058C002_190809_R32C 
*SOURCE FILE: MSMMMOB.01
002163  19Y08M09                         A3    C        11:58:48:01 11:58:48:12 01:07:52:07 01:07:52:18 
*FROM CLIP NAME:  7K2/05.SYNC.01 
*SOURCE FILE: 19Y08M09
002164  19Y08M09                         A4    C        11:58:48:01 11:58:48:12 01:07:52:07 01:07:52:18 
*FROM CLIP NAME:  7K2/05.SYNC.01 
*SOURCE FILE: 19Y08M09
002165  19Y08M09                         A5    C        11:58:48:01 11:58:48:12 01:07:52:07 01:07:52:18 
*FROM CLIP NAME:  7K2/05.SYNC.01 
*SOURCE FILE: 19Y08M09
002166  19Y08M09                         A6    C        11:58:48:01 11:58:48:12 01:07:52:07 01:07:52:18 
*FROM CLIP NAME:  7K2/05.SYNC.01 
*SOURCE FILE: 19Y08M09
002167  19Y08M09                         A     C        11:58:45:24 11:58:46:13 01:07:52:18 01:07:53:07 
*FROM CLIP NAME:  7K2/05.SYNC.01 
*SOURCE FILE: 19Y08M09
002168  MSMMMOB.01                       A2    C        11:58:45:24 11:58:46:13 01:07:52:18 01:07:53:07 
*FROM CLIP NAME:  A058C002_190809_R32C 
*SOURCE FILE: MSMMMOB.01
002169  19Y08M09                         A3    C        11:58:45:24 11:58:46:13 01:07:52:18 01:07:53:07 
*FROM CLIP NAME:  7K2/05.SYNC.01 
*SOURCE FILE: 19Y08M09
002170  19Y08M09                         A4    C        11:58:45:24 11:58:46:13 01:07:52:18 01:07:53:07 
*FROM CLIP NAME:  7K2/05.SYNC.01 
*SOURCE FILE: 19Y08M09
002171  19Y08M09                         A5    C        11:58:45:24 11:58:46:13 01:07:52:18 01:07:53:07 
*FROM CLIP NAME:  7K2/05.SYNC.01 
*SOURCE FILE: 19Y08M09
002172  19Y08M09                         A6    C        11:58:45:24 11:58:46:13 01:07:52:18 01:07:53:07 
*FROM CLIP NAME:  7K2/05.SYNC.01 
*SOURCE FILE: 19Y08M09
002173  19Y08M09                         A     C        12:32:37:07 12:32:39:03 01:07:53:07 01:07:55:03 
*FROM CLIP NAME:  7K3/06.SYNC.01 
*SOURCE FILE: 19Y08M09
002174  MSMMMOB.38                       A2    C        12:32:37:07 12:32:39:03 01:07:53:07 01:07:55:03 
*FROM CLIP NAME:  A058C008_190809_R32C 
*SOURCE FILE: MSMMMOB.38
002175  19Y08M09                         A3    C        12:32:37:07 12:32:39:03 01:07:53:07 01:07:55:03 
*FROM CLIP NAME:  7K3/06.SYNC.01 
*SOURCE FILE: 19Y08M09
002176  19Y08M09                         A4    C        12:32:37:07 12:32:39:03 01:07:53:07 01:07:55:03 
*FROM CLIP NAME:  7K3/06.SYNC.01 
*SOURCE FILE: 19Y08M09
002177  19Y08M09                         A5    C        12:32:37:07 12:32:39:03 01:07:53:07 01:07:55:03 
*FROM CLIP NAME:  7K3/06.SYNC.01 
*SOURCE FILE: 19Y08M09
002178  19Y08M09                         A6    C        12:32:37:07 12:32:39:03 01:07:53:07 01:07:55:03 
*FROM CLIP NAME:  7K3/06.SYNC.01 
*SOURCE FILE: 19Y08M09
002179  MSMMMOB.38                       V     C        12:32:37:07 12:32:39:16 01:07:53:07 01:07:55:16 
M2      MSMMMOB.38                                025.0 12:32:37:07 
*FROM CLIP NAME:  A058C008_190809_R32C 
*SOURCE FILE: MSMMMOB.38
002180  19Y08M09                         A     C        11:58:49:10 11:58:49:23 01:07:55:03 01:07:55:16 
*FROM CLIP NAME:  7K2/05.SYNC.01 
*SOURCE FILE: 19Y08M09
002181  MSMMMOB.01                       A2    C        11:58:49:10 11:58:49:23 01:07:55:03 01:07:55:16 
*FROM CLIP NAME:  A058C002_190809_R32C 
*SOURCE FILE: MSMMMOB.01
002182  19Y08M09                         A3    C        11:58:49:10 11:58:49:23 01:07:55:03 01:07:55:16 
*FROM CLIP NAME:  7K2/05.SYNC.01 
*SOURCE FILE: 19Y08M09
002183  19Y08M09                         A4    C        11:58:49:10 11:58:49:23 01:07:55:03 01:07:55:16 
*FROM CLIP NAME:  7K2/05.SYNC.01 
*SOURCE FILE: 19Y08M09
002184  19Y08M09                         A5    C        11:58:49:10 11:58:49:23 01:07:55:03 01:07:55:16 
*FROM CLIP NAME:  7K2/05.SYNC.01 
*SOURCE FILE: 19Y08M09
002185  19Y08M09                         A6    C        11:58:49:10 11:58:49:23 01:07:55:03 01:07:55:16 
*FROM CLIP NAME:  7K2/05.SYNC.01 
*SOURCE FILE: 19Y08M09
002186  19Y08M09                         A     C        11:58:58:04 11:58:58:15 01:07:55:16 01:07:56:02 
*FROM CLIP NAME:  7K2/05.SYNC.01 
*SOURCE FILE: 19Y08M09
002187  MSMMMOB.01                       A2    C        11:58:58:04 11:58:58:15 01:07:55:16 01:07:56:02 
*FROM CLIP NAME:  A058C002_190809_R32C 
*SOURCE FILE: MSMMMOB.01
002188  19Y08M09                         A3    C        11:58:58:04 11:58:58:15 01:07:55:16 01:07:56:02 
*FROM CLIP NAME:  7K2/05.SYNC.01 
*SOURCE FILE: 19Y08M09
002189  19Y08M09                         A4    C        11:58:58:04 11:58:58:15 01:07:55:16 01:07:56:02 
*FROM CLIP NAME:  7K2/05.SYNC.01 
*SOURCE FILE: 19Y08M09
002190  19Y08M09                         A5    C        11:58:58:04 11:58:58:15 01:07:55:16 01:07:56:02 
*FROM CLIP NAME:  7K2/05.SYNC.01 
*SOURCE FILE: 19Y08M09
002191  19Y08M09                         A6    C        11:58:58:04 11:58:58:15 01:07:55:16 01:07:56:02 
*FROM CLIP NAME:  7K2/05.SYNC.01 
*SOURCE FILE: 19Y08M09
002192  MSMMMOB.01                       V     C        11:58:50:23 11:58:54:13 01:07:55:16 01:07:59:06 
M2      MSMMMOB.01                                025.0 11:58:50:23 
*FROM CLIP NAME:  A058C002_190809_R32C 
*SOURCE FILE: MSMMMOB.01
002193  19Y08M09                         A     C        11:58:51:09 11:58:54:13 01:07:56:02 01:07:59:06 
*FROM CLIP NAME:  7K2/05.SYNC.01 
*SOURCE FILE: 19Y08M09
002194  MSMMMOB.01                       A2    C        11:58:51:09 11:58:54:13 01:07:56:02 01:07:59:06 
*FROM CLIP NAME:  A058C002_190809_R32C 
*SOURCE FILE: MSMMMOB.01
002195  19Y08M09                         A3    C        11:58:51:09 11:58:54:13 01:07:56:02 01:07:59:06 
*FROM CLIP NAME:  7K2/05.SYNC.01 
*SOURCE FILE: 19Y08M09
002196  19Y08M09                         A4    C        11:58:51:09 11:58:54:13 01:07:56:02 01:07:59:06 
*FROM CLIP NAME:  7K2/05.SYNC.01 
*SOURCE FILE: 19Y08M09
002197  19Y08M09                         A5    C        11:58:51:09 11:58:54:13 01:07:56:02 01:07:59:06 
*FROM CLIP NAME:  7K2/05.SYNC.01 
*SOURCE FILE: 19Y08M09
002198  19Y08M09                         A6    C        11:58:51:09 11:58:54:13 01:07:56:02 01:07:59:06 
*FROM CLIP NAME:  7K2/05.SYNC.01 
*SOURCE FILE: 19Y08M09
002199  CINEMASCOPE_2-35-1_CROPLINES.PNG V     C        01:00:00:00 01:03:05:01 01:07:59:05 01:11:04:06 
*FROM CLIP NAME:  CINEMASCOPE 2-35-1 CROPLINES.PNG 
*SOURCE FILE: CINEMASCOPE 2-35-1 CROPLINES.PNG
002200  MSMMMOB.38                       V     C        12:32:41:24 12:32:43:09 01:07:59:06 01:08:00:16 
M2      MSMMMOB.38                                025.0 12:32:41:24 
*FROM CLIP NAME:  A058C008_190809_R32C 
*SOURCE FILE: MSMMMOB.38
002201  19Y08M09                         A     C        12:32:44:09 12:32:45:23 01:07:59:06 01:08:00:20 
*FROM CLIP NAME:  7K3/06.SYNC.01 
*SOURCE FILE: 19Y08M09
002202  MSMMMOB.38                       A2    C        12:32:44:09 12:32:45:23 01:07:59:06 01:08:00:20 
*FROM CLIP NAME:  A058C008_190809_R32C 
*SOURCE FILE: MSMMMOB.38
002203  19Y08M09                         A3    C        12:32:44:09 12:32:45:23 01:07:59:06 01:08:00:20 
*FROM CLIP NAME:  7K3/06.SYNC.01 
*SOURCE FILE: 19Y08M09
002204  19Y08M09                         A4    C        12:32:44:09 12:32:45:23 01:07:59:06 01:08:00:20 
*FROM CLIP NAME:  7K3/06.SYNC.01 
*SOURCE FILE: 19Y08M09
002205  19Y08M09                         A5    C        12:32:44:09 12:32:45:23 01:07:59:06 01:08:00:20 
*FROM CLIP NAME:  7K3/06.SYNC.01 
*SOURCE FILE: 19Y08M09
002206  19Y08M09                         A6    C        12:32:44:09 12:32:45:23 01:07:59:06 01:08:00:20 
*FROM CLIP NAME:  7K3/06.SYNC.01 
*SOURCE FILE: 19Y08M09
002207  MSMMMOB.01                       V     C        11:58:54:13 11:58:58:15 01:08:00:16 01:08:04:18 
M2      MSMMMOB.01                                025.0 11:58:54:13 
*FROM CLIP NAME:  A058C002_190809_R32C 
*SOURCE FILE: MSMMMOB.01
002208  19Y08M09                         A     C        12:32:45:23 12:32:45:23 01:08:00:20 01:08:00:20 
002208  19Y08M09                         A     D    002 11:58:54:17 11:58:54:19 01:08:00:20 01:08:00:22 
*FROM CLIP NAME:  7K3/06.SYNC.01 
*TO CLIP NAME:  7K2/05.SYNC.01 
*SOURCE FILE: 19Y08M09
002209  MSMMMOB.38                       A2    C        12:32:45:23 12:32:45:23 01:08:00:20 01:08:00:20 
002209  MSMMMOB.01                       A2    D    002 11:58:54:17 11:58:54:19 01:08:00:20 01:08:00:22 
*FROM CLIP NAME:  A058C008_190809_R32C 
*TO CLIP NAME:  A058C002_190809_R32C 
*SOURCE FILE: MSMMMOB.38
002210  19Y08M09                         A3    C        12:32:45:23 12:32:45:23 01:08:00:20 01:08:00:20 
002210  19Y08M09                         A3    D    002 11:58:54:17 11:58:54:19 01:08:00:20 01:08:00:22 
*FROM CLIP NAME:  7K3/06.SYNC.01 
*TO CLIP NAME:  7K2/05.SYNC.01 
*SOURCE FILE: 19Y08M09
002211  19Y08M09                         A4    C        12:32:45:23 12:32:45:23 01:08:00:20 01:08:00:20 
002211  19Y08M09                         A4    D    002 11:58:54:17 11:58:54:19 01:08:00:20 01:08:00:22 
*FROM CLIP NAME:  7K3/06.SYNC.01 
*TO CLIP NAME:  7K2/05.SYNC.01 
*SOURCE FILE: 19Y08M09
002212  19Y08M09                         A5    C        12:32:45:23 12:32:45:23 01:08:00:20 01:08:00:20 
002212  19Y08M09                         A5    D    002 11:58:54:17 11:58:54:19 01:08:00:20 01:08:00:22 
*FROM CLIP NAME:  7K3/06.SYNC.01 
*TO CLIP NAME:  7K2/05.SYNC.01 
*SOURCE FILE: 19Y08M09
002213  19Y08M09                         A6    C        12:32:45:23 12:32:45:23 01:08:00:20 01:08:00:20 
002213  19Y08M09                         A6    D    002 11:58:54:17 11:58:54:19 01:08:00:20 01:08:00:22 
*FROM CLIP NAME:  7K3/06.SYNC.01 
*TO CLIP NAME:  7K2/05.SYNC.01 
*SOURCE FILE: 19Y08M09
002214  19Y08M09                         A     C        11:58:54:19 11:58:58:15 01:08:00:22 01:08:04:18 
*FROM CLIP NAME:  7K2/05.SYNC.01 
*SOURCE FILE: 19Y08M09
002215  MSMMMOB.01                       A2    C        11:58:54:19 11:58:58:15 01:08:00:22 01:08:04:18 
*FROM CLIP NAME:  A058C002_190809_R32C 
*SOURCE FILE: MSMMMOB.01
002216  19Y08M09                         A3    C        11:58:54:19 11:58:58:15 01:08:00:22 01:08:04:18 
*FROM CLIP NAME:  7K2/05.SYNC.01 
*SOURCE FILE: 19Y08M09
002217  19Y08M09                         A4    C        11:58:54:19 11:58:58:15 01:08:00:22 01:08:04:18 
*FROM CLIP NAME:  7K2/05.SYNC.01 
*SOURCE FILE: 19Y08M09
002218  19Y08M09                         A5    C        11:58:54:19 11:58:58:15 01:08:00:22 01:08:04:18 
*FROM CLIP NAME:  7K2/05.SYNC.01 
*SOURCE FILE: 19Y08M09
002219  19Y08M09                         A6    C        11:58:54:19 11:58:58:15 01:08:00:22 01:08:04:18 
*FROM CLIP NAME:  7K2/05.SYNC.01 
*SOURCE FILE: 19Y08M09
002220  MSMMMOB.44                       V     C        12:29:06:11 12:29:09:23 01:08:04:18 01:08:08:05 
M2      MSMMMOB.44                                025.0 12:29:06:11 
*FROM CLIP NAME:  A058C007_190809_R32C 
*SOURCE FILE: MSMMMOB.44
002221  19Y08M09                         A     C        12:29:06:11 12:29:09:23 01:08:04:18 01:08:08:05 
*FROM CLIP NAME:  7K3/05.SYNC.01 
*SOURCE FILE: 19Y08M09
002222  MSMMMOB.44                       A2    C        12:29:06:11 12:29:09:23 01:08:04:18 01:08:08:05 
*FROM CLIP NAME:  A058C007_190809_R32C 
*SOURCE FILE: MSMMMOB.44
002223  19Y08M09                         A3    C        12:29:06:11 12:29:09:23 01:08:04:18 01:08:08:05 
*FROM CLIP NAME:  7K3/05.SYNC.01 
*SOURCE FILE: 19Y08M09
002224  19Y08M09                         A4    C        12:29:06:11 12:29:09:23 01:08:04:18 01:08:08:05 
*FROM CLIP NAME:  7K3/05.SYNC.01 
*SOURCE FILE: 19Y08M09
002225  19Y08M09                         A5    C        12:29:06:11 12:29:09:23 01:08:04:18 01:08:08:05 
*FROM CLIP NAME:  7K3/05.SYNC.01 
*SOURCE FILE: 19Y08M09
002226  19Y08M09                         A6    C        12:29:06:11 12:29:09:23 01:08:04:18 01:08:08:05 
*FROM CLIP NAME:  7K3/05.SYNC.01 
*SOURCE FILE: 19Y08M09
002227  19Y08M09                         A     C        12:43:24:06 12:43:24:18 01:08:08:05 01:08:08:17 
*FROM CLIP NAME:  7K4/01.SYNC.01 
*SOURCE FILE: 19Y08M09
002228  MSMMMOB.54                       A2    C        12:43:24:06 12:43:24:18 01:08:08:05 01:08:08:17 
*FROM CLIP NAME:  A059C001_190809_R32C 
*SOURCE FILE: MSMMMOB.54
002229  19Y08M09                         A3    C        12:43:24:06 12:43:24:18 01:08:08:05 01:08:08:17 
*FROM CLIP NAME:  7K4/01.SYNC.01 
*SOURCE FILE: 19Y08M09
002230  19Y08M09                         A4    C        12:43:24:06 12:43:24:18 01:08:08:05 01:08:08:17 
*FROM CLIP NAME:  7K4/01.SYNC.01 
*SOURCE FILE: 19Y08M09
002231  19Y08M09                         A5    C        12:43:24:06 12:43:24:18 01:08:08:05 01:08:08:17 
*FROM CLIP NAME:  7K4/01.SYNC.01 
*SOURCE FILE: 19Y08M09
002232  19Y08M09                         A6    C        12:43:24:06 12:43:24:18 01:08:08:05 01:08:08:17 
*FROM CLIP NAME:  7K4/01.SYNC.01 
*SOURCE FILE: 19Y08M09
002233  MSMMMOB.01                       V     C        11:59:00:12 11:59:02:10 01:08:08:05 01:08:10:03 
M2      MSMMMOB.01                                025.0 11:59:00:12 
*FROM CLIP NAME:  A058C002_190809_R32C 
*SOURCE FILE: MSMMMOB.01
002234  19Y08M09                         A     C        11:59:00:24 11:59:02:10 01:08:08:17 01:08:10:03 
*FROM CLIP NAME:  7K2/05.SYNC.01 
*SOURCE FILE: 19Y08M09
002235  MSMMMOB.01                       A2    C        11:59:00:24 11:59:02:10 01:08:08:17 01:08:10:03 
*FROM CLIP NAME:  A058C002_190809_R32C 
*SOURCE FILE: MSMMMOB.01
002236  19Y08M09                         A3    C        11:59:00:24 11:59:02:10 01:08:08:17 01:08:10:03 
*FROM CLIP NAME:  7K2/05.SYNC.01 
*SOURCE FILE: 19Y08M09
002237  19Y08M09                         A4    C        11:59:00:24 11:59:02:10 01:08:08:17 01:08:10:03 
*FROM CLIP NAME:  7K2/05.SYNC.01 
*SOURCE FILE: 19Y08M09
002238  19Y08M09                         A5    C        11:59:00:24 11:59:02:10 01:08:08:17 01:08:10:03 
*FROM CLIP NAME:  7K2/05.SYNC.01 
*SOURCE FILE: 19Y08M09
002239  MORTAL-KOMBAT-X-YOU-WIN.MP3      A13   C        01:00:00:00 01:00:02:13 01:08:10:03 01:08:12:16 
*FROM CLIP NAME:  MORTAL-KOMBAT-X-YOU-WIN.MP3 
*A13 VOL = -21.1 DB  PAN R100 
*PATCH MORTAL-KOMBAT-X-YOU-WIN.MP3:  FROM SOURCE 1 TO RECORD 13 
*SOURCE FILE: MORTAL-KOMBAT-X-YOU-WIN.MP3
002240  MORTAL-KOMBAT-X-YOU-WIN.MP3      A14   C        01:00:00:00 01:00:02:13 01:08:10:03 01:08:12:16 
*FROM CLIP NAME:  MORTAL-KOMBAT-X-YOU-WIN.MP3 
*A14 VOL = -21.1 DB  PAN L100 
*PATCH MORTAL-KOMBAT-X-YOU-WIN.MP3:  FROM SOURCE 2 TO RECORD 14 
*SOURCE FILE: MORTAL-KOMBAT-X-YOU-WIN.MP3
002241  TITLE.01                         V     C        01:00:17:23 01:00:20:21 01:08:10:03 01:08:13:01 
*FROM CLIP NAME:  TITLE.01 
*SOURCE FILE: TITLE.01
002242  MSMMMOB.55                       V     C        20:59:42:22 20:59:45:20 01:08:10:03 01:08:13:01 
M2      MSMMMOB.55                                025.0 20:59:42:22 
*FROM CLIP NAME:  A075C006_190813_R32C 
*SOURCE FILE: MSMMMOB.55
002243  19Y08M13                         A     C        20:47:12:11 20:47:26:13 01:08:10:03 01:08:24:05 
*FROM CLIP NAME:  8K1/04.SYNC.01 
*SOURCE FILE: 19Y08M13
002244  19Y08M13                         A2    C        20:47:12:11 20:47:26:13 01:08:10:03 01:08:24:05 
*FROM CLIP NAME:  8K1/04.SYNC.01 
*SOURCE FILE: 19Y08M13
002245  19Y08M13                         A3    C        20:47:12:11 20:47:26:13 01:08:10:03 01:08:24:05 
*FROM CLIP NAME:  8K1/04.SYNC.01 
*SOURCE FILE: 19Y08M13
002246  19Y08M13                         A4    C        20:47:12:11 20:47:26:13 01:08:10:03 01:08:24:05 
*FROM CLIP NAME:  8K1/04.SYNC.01 
*SOURCE FILE: 19Y08M13
002247  19Y08M13                         A5    C        20:47:12:11 20:47:26:13 01:08:10:03 01:08:24:05 
*FROM CLIP NAME:  8K1/04.SYNC.01 
*PATCH 19Y08M13:  FROM SOURCE 6 TO RECORD 5 
*SOURCE FILE: 19Y08M13
002248  19Y08M13                         A6    C        20:47:12:11 20:47:26:13 01:08:10:03 01:08:24:05 
*FROM CLIP NAME:  8K1/04.SYNC.01 
*PATCH 19Y08M13:  FROM SOURCE 7 TO RECORD 6 
*SOURCE FILE: 19Y08M13
002249  19Y08M13                         A7    C        20:47:12:11 20:47:26:13 01:08:10:03 01:08:24:05 
*FROM CLIP NAME:  8K1/04.SYNC.01 
*PATCH 19Y08M13:  FROM SOURCE 8 TO RECORD 7 
*SOURCE FILE: 19Y08M13
002250  DCD002_01_VICTORY_QUEST.MP3      A15   C        01:00:00:00 01:00:55:07 01:08:10:03 01:09:05:10 
*FROM CLIP NAME:  DCD002_01 VICTORY QUEST.MP3 
*A15 VOL = -36.0 DB  PAN L100 
*EQ BAND 1 (LO SHELF) FREQ:210.0 HZ  GAIN: -18.0 DB  Q: 2000 
*EQ BAND 2 (PRESENCE) FREQ:  1.3  KHZ  GAIN: +10.5 DB  Q: 2000 
*EQ BAND 3 (HI SHELF) FREQ:  6.4  KHZ  GAIN: -16.9 DB  Q: 2000 
*PATCH DCD002_01_VICTORY_QUEST.MP3:  FROM SOURCE 1 TO RECORD 15 
*SOURCE FILE: DCD002_01 VICTORY QUEST.MP3
002251  DCD002_01_VICTORY_QUEST.MP3      A16   C        01:00:00:00 01:00:55:07 01:08:10:03 01:09:05:10 
*FROM CLIP NAME:  DCD002_01 VICTORY QUEST.MP3 
*A16 VOL = -36.0 DB  PAN R100 
*EQ BAND 1 (LO SHELF) FREQ:210.0 HZ  GAIN: -18.0 DB  Q: 2000 
*EQ BAND 2 (PRESENCE) FREQ:  1.3  KHZ  GAIN: +10.5 DB  Q: 2000 
*EQ BAND 3 (HI SHELF) FREQ:  6.4  KHZ  GAIN: -16.9 DB  Q: 2000 
*PATCH DCD002_01_VICTORY_QUEST.MP3:  FROM SOURCE 2 TO RECORD 16 
*SOURCE FILE: DCD002_01 VICTORY QUEST.MP3
002252  MORTAL-KOMBAT-X-YOU-WIN.MP3      A13   C        01:00:02:13 01:00:02:13 01:08:12:16 01:08:12:16 
002252  MORTAL-KOMBAT-X-YOU-WIN.MP3      A13   D    020 01:00:02:13 01:00:03:08 01:08:12:16 01:08:13:11 
*FROM CLIP NAME:  MORTAL-KOMBAT-X-YOU-WIN.MP3 
*TO CLIP NAME:  MORTAL-KOMBAT-X-YOU-WIN.MP3 
*A13 VOL = -21.1 DB  PAN R100 
*A13 VOL = -27.0 DB  PAN R100 
*PATCH MORTAL-KOMBAT-X-YOU-WIN.MP3:  FROM SOURCE 1 TO RECORD 13 
*PATCH MORTAL-KOMBAT-X-YOU-WIN.MP3:  FROM SOURCE 1 TO RECORD 13 
*SOURCE FILE: MORTAL-KOMBAT-X-YOU-WIN.MP3
002253  MORTAL-KOMBAT-X-YOU-WIN.MP3      A14   C        01:00:02:13 01:00:02:13 01:08:12:16 01:08:12:16 
002253  MORTAL-KOMBAT-X-YOU-WIN.MP3      A14   D    020 01:00:02:13 01:00:03:08 01:08:12:16 01:08:13:11 
*FROM CLIP NAME:  MORTAL-KOMBAT-X-YOU-WIN.MP3 
*TO CLIP NAME:  MORTAL-KOMBAT-X-YOU-WIN.MP3 
*A14 VOL = -21.1 DB  PAN L100 
*A14 VOL = -27.0 DB  PAN L100 
*PATCH MORTAL-KOMBAT-X-YOU-WIN.MP3:  FROM SOURCE 2 TO RECORD 14 
*PATCH MORTAL-KOMBAT-X-YOU-WIN.MP3:  FROM SOURCE 2 TO RECORD 14 
*SOURCE FILE: MORTAL-KOMBAT-X-YOU-WIN.MP3
002254  MSMMMOB.46                       V     C        20:47:15:10 20:47:18:24 01:08:13:01 01:08:16:15 
M2      MSMMMOB.46                                025.0 20:47:15:10 
*FROM CLIP NAME:  A075C004_190813_R32C 
*SOURCE FILE: MSMMMOB.46
002255  BL                               V     C        00:00:00:00 00:00:16:17 01:08:13:01 01:08:29:18 
*SOURCE FILE: (NULL)
002256  MORTAL-KOMBAT-X-YOU-WIN.MP3      A13   C        01:00:03:08 01:00:14:02 01:08:13:11 01:08:24:05 
*FROM CLIP NAME:  MORTAL-KOMBAT-X-YOU-WIN.MP3 
*A13 VOL = -27.0 DB  PAN R100 
*PATCH MORTAL-KOMBAT-X-YOU-WIN.MP3:  FROM SOURCE 1 TO RECORD 13 
*SOURCE FILE: MORTAL-KOMBAT-X-YOU-WIN.MP3
002257  MORTAL-KOMBAT-X-YOU-WIN.MP3      A14   C        01:00:03:08 01:00:14:02 01:08:13:11 01:08:24:05 
*FROM CLIP NAME:  MORTAL-KOMBAT-X-YOU-WIN.MP3 
*A14 VOL = -27.0 DB  PAN L100 
*PATCH MORTAL-KOMBAT-X-YOU-WIN.MP3:  FROM SOURCE 2 TO RECORD 14 
*SOURCE FILE: MORTAL-KOMBAT-X-YOU-WIN.MP3
002258  MSMMMOB.17                       V     C        20:47:18:24 20:47:26:13 01:08:16:15 01:08:24:04 
M2      MSMMMOB.17                                025.0 20:47:18:24 
*FROM CLIP NAME:  B022C004_190813_R481 
*SOURCE FILE: MSMMMOB.17
002259  MSMMMOB.08                       V     C        20:54:18:00 20:54:21:01 01:08:24:04 01:08:27:05 
M2      MSMMMOB.08                                025.0 20:54:18:00 
*FROM CLIP NAME:  B022C005_190813_R481 
*SOURCE FILE: MSMMMOB.08
002260  MORTAL-KOMBAT-X-YOU-WIN.MP3      A13   C        01:00:14:10 01:00:16:24 01:08:24:05 01:08:26:19 
*FROM CLIP NAME:  MORTAL-KOMBAT-X-YOU-WIN.MP3 
*A13 VOL = -27.0 DB  PAN R100 
*PATCH MORTAL-KOMBAT-X-YOU-WIN.MP3:  FROM SOURCE 1 TO RECORD 13 
*SOURCE FILE: MORTAL-KOMBAT-X-YOU-WIN.MP3
002261  MORTAL-KOMBAT-X-YOU-WIN.MP3      A14   C        01:00:14:10 01:00:16:24 01:08:24:05 01:08:26:19 
*FROM CLIP NAME:  MORTAL-KOMBAT-X-YOU-WIN.MP3 
*A14 VOL = -27.0 DB  PAN L100 
*PATCH MORTAL-KOMBAT-X-YOU-WIN.MP3:  FROM SOURCE 2 TO RECORD 14 
*SOURCE FILE: MORTAL-KOMBAT-X-YOU-WIN.MP3
002262  19Y08M13                         A     C        20:54:18:00 20:54:25:13 01:08:24:05 01:08:31:18 
*FROM CLIP NAME:  8K2/01.SYNC.01 
*SOURCE FILE: 19Y08M13
002263  19Y08M13                         A2    C        20:54:18:00 20:54:25:13 01:08:24:05 01:08:31:18 
*FROM CLIP NAME:  8K2/01.SYNC.01 
*SOURCE FILE: 19Y08M13
002264  19Y08M13                         A3    C        20:54:18:00 20:54:25:13 01:08:24:05 01:08:31:18 
*FROM CLIP NAME:  8K2/01.SYNC.01 
*SOURCE FILE: 19Y08M13
002265  19Y08M13                         A4    C        20:54:18:00 20:54:25:13 01:08:24:05 01:08:31:18 
*FROM CLIP NAME:  8K2/01.SYNC.01 
*SOURCE FILE: 19Y08M13
002266  19Y08M13                         A5    C        20:54:18:00 20:54:25:13 01:08:24:05 01:08:31:18 
*FROM CLIP NAME:  8K2/01.SYNC.01 
*PATCH 19Y08M13:  FROM SOURCE 8 TO RECORD 5 
*SOURCE FILE: 19Y08M13
002267  19Y08M13                         A6    C        20:54:18:00 20:54:25:13 01:08:24:05 01:08:31:18 
*FROM CLIP NAME:  8K2/01.SYNC.01 
*SOURCE FILE: 19Y08M13
002268  19Y08M13                         A7    C        20:54:18:00 20:54:25:13 01:08:24:05 01:08:31:18 
*FROM CLIP NAME:  8K2/01.SYNC.01 
*SOURCE FILE: 19Y08M13
002269  MORTAL-KOMBAT-X-YOU-WIN.MP3      A13   C        01:00:00:00 01:00:15:15 01:08:26:19 01:08:42:09 
*FROM CLIP NAME:  MORTAL-KOMBAT-X-YOU-WIN.MP3 
*A13 VOL = -27.0 DB  PAN R100 
*PATCH MORTAL-KOMBAT-X-YOU-WIN.MP3:  FROM SOURCE 1 TO RECORD 13 
*SOURCE FILE: MORTAL-KOMBAT-X-YOU-WIN.MP3
002270  MORTAL-KOMBAT-X-YOU-WIN.MP3      A14   C        01:00:00:00 01:00:15:15 01:08:26:19 01:08:42:09 
*FROM CLIP NAME:  MORTAL-KOMBAT-X-YOU-WIN.MP3 
*A14 VOL = -27.0 DB  PAN L100 
*PATCH MORTAL-KOMBAT-X-YOU-WIN.MP3:  FROM SOURCE 2 TO RECORD 14 
*SOURCE FILE: MORTAL-KOMBAT-X-YOU-WIN.MP3
002271  MSMMMOB.21                       V     C        20:54:21:01 20:54:23:14 01:08:27:05 01:08:29:18 
M2      MSMMMOB.21                                025.0 20:54:21:01 
*FROM CLIP NAME:  A075C005_190813_R32C 
*SOURCE FILE: MSMMMOB.21
002272  TITLE.01                         V     C        01:00:42:10 01:00:44:17 01:08:29:18 01:08:32:00 
*FROM CLIP NAME:  TITLE.01 
*SOURCE FILE: TITLE.01
002273  MSMMMOB.55                       V     C        20:59:45:00 20:59:47:07 01:08:29:18 01:08:32:00 
M2      MSMMMOB.55                                025.0 20:59:45:00 
*FROM CLIP NAME:  A075C006_190813_R32C 
*SOURCE FILE: MSMMMOB.55
002274  19Y08M13                         A     C        20:54:14:13 20:54:15:05 01:08:31:18 01:08:32:10 
*FROM CLIP NAME:  8K2/01.SYNC.01 
*SOURCE FILE: 19Y08M13
002275  19Y08M13                         A2    C        20:54:14:13 20:54:15:05 01:08:31:18 01:08:32:10 
*FROM CLIP NAME:  8K2/01.SYNC.01 
*SOURCE FILE: 19Y08M13
002276  19Y08M13                         A3    C        20:54:14:13 20:54:15:05 01:08:31:18 01:08:32:10 
*FROM CLIP NAME:  8K2/01.SYNC.01 
*SOURCE FILE: 19Y08M13
002277  19Y08M13                         A4    C        20:54:14:13 20:54:15:05 01:08:31:18 01:08:32:10 
*FROM CLIP NAME:  8K2/01.SYNC.01 
*SOURCE FILE: 19Y08M13
002278  19Y08M13                         A5    C        20:54:14:13 20:54:15:05 01:08:31:18 01:08:32:10 
*FROM CLIP NAME:  8K2/01.SYNC.01 
*PATCH 19Y08M13:  FROM SOURCE 7 TO RECORD 5 
*SOURCE FILE: 19Y08M13
002279  19Y08M13                         A6    C        20:54:14:13 20:54:15:05 01:08:31:18 01:08:32:10 
*FROM CLIP NAME:  8K2/01.SYNC.01 
*SOURCE FILE: 19Y08M13
002280  19Y08M13                         A7    C        20:54:14:13 20:54:15:05 01:08:31:18 01:08:32:10 
*FROM CLIP NAME:  8K2/01.SYNC.01 
*PATCH 19Y08M13:  FROM SOURCE 8 TO RECORD 7 
*SOURCE FILE: 19Y08M13
002281  MSMMMOB.08                       V     C        20:54:25:04 20:54:26:07 01:08:32:00 01:08:33:03 
M2      MSMMMOB.08                                025.0 20:54:25:04 
*FROM CLIP NAME:  B022C005_190813_R481 
*SOURCE FILE: MSMMMOB.08
002282  BL                               V     C        00:00:00:00 00:05:04:19 01:08:32:00 01:13:36:19 
*SOURCE FILE: (NULL)
002283  19Y08M13                         A     C        20:54:25:13 20:54:26:06 01:08:32:10 01:08:33:03 
*FROM CLIP NAME:  8K2/01.SYNC.01 
*SOURCE FILE: 19Y08M13
002284  19Y08M13                         A2    C        20:54:25:13 20:54:26:06 01:08:32:10 01:08:33:03 
*FROM CLIP NAME:  8K2/01.SYNC.01 
*SOURCE FILE: 19Y08M13
002285  19Y08M13                         A3    C        20:54:25:13 20:54:26:06 01:08:32:10 01:08:33:03 
*FROM CLIP NAME:  8K2/01.SYNC.01 
*SOURCE FILE: 19Y08M13
002286  19Y08M13                         A4    C        20:54:25:13 20:54:26:06 01:08:32:10 01:08:33:03 
*FROM CLIP NAME:  8K2/01.SYNC.01 
*SOURCE FILE: 19Y08M13
002287  19Y08M13                         A5    C        20:54:25:13 20:54:26:06 01:08:32:10 01:08:33:03 
*FROM CLIP NAME:  8K2/01.SYNC.01 
*PATCH 19Y08M13:  FROM SOURCE 8 TO RECORD 5 
*SOURCE FILE: 19Y08M13
002288  19Y08M13                         A6    C        20:54:25:13 20:54:26:06 01:08:32:10 01:08:33:03 
*FROM CLIP NAME:  8K2/01.SYNC.01 
*SOURCE FILE: 19Y08M13
002289  19Y08M13                         A7    C        20:54:25:13 20:54:26:06 01:08:32:10 01:08:33:03 
*FROM CLIP NAME:  8K2/01.SYNC.01 
*SOURCE FILE: 19Y08M13
002290  MSMMMOB.46                       V     C        20:47:33:00 20:47:35:17 01:08:33:03 01:08:35:20 
M2      MSMMMOB.46                                025.0 20:47:33:00 
*FROM CLIP NAME:  A075C004_190813_R32C 
*SOURCE FILE: MSMMMOB.46
002291  19Y08M13                         A     C        20:47:32:24 20:47:35:16 01:08:33:03 01:08:35:20 
*FROM CLIP NAME:  8K1/04.SYNC.01 
*SOURCE FILE: 19Y08M13
002292  19Y08M13                         A2    C        20:47:32:24 20:47:35:16 01:08:33:03 01:08:35:20 
*FROM CLIP NAME:  8K1/04.SYNC.01 
*SOURCE FILE: 19Y08M13
002293  19Y08M13                         A3    C        20:47:32:24 20:47:35:16 01:08:33:03 01:08:35:20 
*FROM CLIP NAME:  8K1/04.SYNC.01 
*SOURCE FILE: 19Y08M13
002294  19Y08M13                         A4    C        20:47:32:24 20:47:35:16 01:08:33:03 01:08:35:20 
*FROM CLIP NAME:  8K1/04.SYNC.01 
*SOURCE FILE: 19Y08M13
002295  19Y08M13                         A5    C        20:47:32:24 20:47:35:16 01:08:33:03 01:08:35:20 
*FROM CLIP NAME:  8K1/04.SYNC.01 
*PATCH 19Y08M13:  FROM SOURCE 7 TO RECORD 5 
*SOURCE FILE: 19Y08M13
002296  19Y08M13                         A6    C        20:47:32:24 20:47:35:16 01:08:33:03 01:08:35:20 
*FROM CLIP NAME:  8K1/04.SYNC.01 
*SOURCE FILE: 19Y08M13
002297  19Y08M13                         A7    C        20:47:32:24 20:47:35:16 01:08:33:03 01:08:35:20 
*FROM CLIP NAME:  8K1/04.SYNC.01 
*PATCH 19Y08M13:  FROM SOURCE 8 TO RECORD 7 
*SOURCE FILE: 19Y08M13
002298  MSMMMOB.21                       V     C        20:54:30:04 20:54:32:24 01:08:35:20 01:08:38:15 
M2      MSMMMOB.21                                025.0 20:54:30:04 
*FROM CLIP NAME:  A075C005_190813_R32C 
*SOURCE FILE: MSMMMOB.21
002299  19Y08M13                         A     C        20:54:30:03 20:54:36:13 01:08:35:20 01:08:42:05 
*FROM CLIP NAME:  8K2/01.SYNC.01 
*SOURCE FILE: 19Y08M13
002300  19Y08M13                         A2    C        20:54:30:03 20:54:36:13 01:08:35:20 01:08:42:05 
*FROM CLIP NAME:  8K2/01.SYNC.01 
*SOURCE FILE: 19Y08M13
002301  19Y08M13                         A3    C        20:54:30:03 20:54:36:13 01:08:35:20 01:08:42:05 
*FROM CLIP NAME:  8K2/01.SYNC.01 
*SOURCE FILE: 19Y08M13
002302  19Y08M13                         A4    C        20:54:30:03 20:54:36:13 01:08:35:20 01:08:42:05 
*FROM CLIP NAME:  8K2/01.SYNC.01 
*SOURCE FILE: 19Y08M13
002303  19Y08M13                         A5    C        20:54:30:03 20:54:36:13 01:08:35:20 01:08:42:05 
*FROM CLIP NAME:  8K2/01.SYNC.01 
*PATCH 19Y08M13:  FROM SOURCE 8 TO RECORD 5 
*SOURCE FILE: 19Y08M13
002304  19Y08M13                         A6    C        20:54:30:03 20:54:36:13 01:08:35:20 01:08:42:05 
*FROM CLIP NAME:  8K2/01.SYNC.01 
*SOURCE FILE: 19Y08M13
002305  19Y08M13                         A7    C        20:54:30:03 20:54:36:13 01:08:35:20 01:08:42:05 
*FROM CLIP NAME:  8K2/01.SYNC.01 
*SOURCE FILE: 19Y08M13
002306  MSMMMOB.08                       V     C        20:54:32:24 20:54:35:17 01:08:38:15 01:08:41:08 
M2      MSMMMOB.08                                025.0 20:54:32:24 
*FROM CLIP NAME:  B022C005_190813_R481 
*SOURCE FILE: MSMMMOB.08
002307  MSMMMOB.17                       V     C        20:47:41:01 20:47:42:02 01:08:41:08 01:08:42:09 
M2      MSMMMOB.17                                025.0 20:47:41:01 
*FROM CLIP NAME:  B022C004_190813_R481 
*SOURCE FILE: MSMMMOB.17
002308  19Y08M13                         A     C        20:47:41:13 20:47:41:17 01:08:42:05 01:08:42:09 
*FROM CLIP NAME:  8K1/04.SYNC.01 
*SOURCE FILE: 19Y08M13
002309  19Y08M13                         A2    C        20:47:41:13 20:47:41:17 01:08:42:05 01:08:42:09 
*FROM CLIP NAME:  8K1/04.SYNC.01 
*SOURCE FILE: 19Y08M13
002310  19Y08M13                         A3    C        20:47:41:13 20:47:41:17 01:08:42:05 01:08:42:09 
*FROM CLIP NAME:  8K1/04.SYNC.01 
*SOURCE FILE: 19Y08M13
002311  19Y08M13                         A4    C        20:47:41:13 20:47:41:17 01:08:42:05 01:08:42:09 
*FROM CLIP NAME:  8K1/04.SYNC.01 
*SOURCE FILE: 19Y08M13
002312  19Y08M13                         A5    C        20:47:41:13 20:47:41:17 01:08:42:05 01:08:42:09 
*FROM CLIP NAME:  8K1/04.SYNC.01 
*PATCH 19Y08M13:  FROM SOURCE 7 TO RECORD 5 
*SOURCE FILE: 19Y08M13
002313  19Y08M13                         A6    C        20:47:41:13 20:47:41:17 01:08:42:05 01:08:42:09 
*FROM CLIP NAME:  8K1/04.SYNC.01 
*SOURCE FILE: 19Y08M13
002314  19Y08M13                         A7    C        20:47:41:13 20:47:41:17 01:08:42:05 01:08:42:09 
*FROM CLIP NAME:  8K1/04.SYNC.01 
*PATCH 19Y08M13:  FROM SOURCE 8 TO RECORD 7 
*SOURCE FILE: 19Y08M13
002315  MORTAL-KOMBAT-X-YOU-WIN.MP3      A13   C        01:00:15:24 01:00:16:24 01:08:42:09 01:08:43:09 
*FROM CLIP NAME:  MORTAL-KOMBAT-X-YOU-WIN.MP3 
*A13 VOL = -27.0 DB  PAN R100 
*PATCH MORTAL-KOMBAT-X-YOU-WIN.MP3:  FROM SOURCE 1 TO RECORD 13 
*SOURCE FILE: MORTAL-KOMBAT-X-YOU-WIN.MP3
002316  MORTAL-KOMBAT-X-YOU-WIN.MP3      A14   C        01:00:15:24 01:00:16:24 01:08:42:09 01:08:43:09 
*FROM CLIP NAME:  MORTAL-KOMBAT-X-YOU-WIN.MP3 
*A14 VOL = -27.0 DB  PAN L100 
*PATCH MORTAL-KOMBAT-X-YOU-WIN.MP3:  FROM SOURCE 2 TO RECORD 14 
*SOURCE FILE: MORTAL-KOMBAT-X-YOU-WIN.MP3
002317  MSMMMOB.46                       V     C        20:47:42:02 20:47:44:19 01:08:42:09 01:08:45:01 
M2      MSMMMOB.46                                025.0 20:47:42:02 
*FROM CLIP NAME:  A075C004_190813_R32C 
*SOURCE FILE: MSMMMOB.46
002318  19Y08M13                         A     C        20:47:42:01 20:47:46:12 01:08:42:09 01:08:46:20 
*FROM CLIP NAME:  8K1/04.SYNC.01 
*SOURCE FILE: 19Y08M13
002319  19Y08M13                         A2    C        20:47:42:01 20:47:46:12 01:08:42:09 01:08:46:20 
*FROM CLIP NAME:  8K1/04.SYNC.01 
*SOURCE FILE: 19Y08M13
002320  19Y08M13                         A3    C        20:47:42:01 20:47:46:12 01:08:42:09 01:08:46:20 
*FROM CLIP NAME:  8K1/04.SYNC.01 
*SOURCE FILE: 19Y08M13
002321  19Y08M13                         A4    C        20:47:42:01 20:47:46:12 01:08:42:09 01:08:46:20 
*FROM CLIP NAME:  8K1/04.SYNC.01 
*SOURCE FILE: 19Y08M13
002322  19Y08M13                         A5    C        20:47:42:01 20:47:46:12 01:08:42:09 01:08:46:20 
*FROM CLIP NAME:  8K1/04.SYNC.01 
*PATCH 19Y08M13:  FROM SOURCE 7 TO RECORD 5 
*SOURCE FILE: 19Y08M13
002323  19Y08M13                         A6    C        20:47:42:01 20:47:46:12 01:08:42:09 01:08:46:20 
*FROM CLIP NAME:  8K1/04.SYNC.01 
*SOURCE FILE: 19Y08M13
002324  19Y08M13                         A7    C        20:47:42:01 20:47:46:12 01:08:42:09 01:08:46:20 
*FROM CLIP NAME:  8K1/04.SYNC.01 
*PATCH 19Y08M13:  FROM SOURCE 8 TO RECORD 7 
*SOURCE FILE: 19Y08M13
002325  MORTAL-KOMBAT-X-YOU-WIN.MP3      A13   C        01:00:00:00 01:00:03:11 01:08:43:09 01:08:46:20 
*FROM CLIP NAME:  MORTAL-KOMBAT-X-YOU-WIN.MP3 
*A13 VOL = -27.0 DB  PAN R100 
*PATCH MORTAL-KOMBAT-X-YOU-WIN.MP3:  FROM SOURCE 1 TO RECORD 13 
*SOURCE FILE: MORTAL-KOMBAT-X-YOU-WIN.MP3
002326  MORTAL-KOMBAT-X-YOU-WIN.MP3      A14   C        01:00:00:00 01:00:03:11 01:08:43:09 01:08:46:20 
*FROM CLIP NAME:  MORTAL-KOMBAT-X-YOU-WIN.MP3 
*A14 VOL = -27.0 DB  PAN L100 
*PATCH MORTAL-KOMBAT-X-YOU-WIN.MP3:  FROM SOURCE 2 TO RECORD 14 
*SOURCE FILE: MORTAL-KOMBAT-X-YOU-WIN.MP3
002327  MSMMMOB.17                       V     C        20:47:44:19 20:47:46:24 01:08:45:01 01:08:47:06 
M2      MSMMMOB.17                                025.0 20:47:44:19 
*FROM CLIP NAME:  B022C004_190813_R481 
*SOURCE FILE: MSMMMOB.17
002328  19Y08M13                         A     C        20:54:41:09 20:54:48:24 01:08:46:20 01:08:54:10 
*FROM CLIP NAME:  8K2/01.SYNC.01 
*SOURCE FILE: 19Y08M13
002329  19Y08M13                         A2    C        20:54:41:09 20:54:48:24 01:08:46:20 01:08:54:10 
*FROM CLIP NAME:  8K2/01.SYNC.01 
*SOURCE FILE: 19Y08M13
002330  19Y08M13                         A3    C        20:54:41:09 20:54:48:24 01:08:46:20 01:08:54:10 
*FROM CLIP NAME:  8K2/01.SYNC.01 
*SOURCE FILE: 19Y08M13
002331  19Y08M13                         A4    C        20:54:41:09 20:54:48:24 01:08:46:20 01:08:54:10 
*FROM CLIP NAME:  8K2/01.SYNC.01 
*SOURCE FILE: 19Y08M13
002332  19Y08M13                         A5    C        20:54:41:09 20:54:48:24 01:08:46:20 01:08:54:10 
*FROM CLIP NAME:  8K2/01.SYNC.01 
*PATCH 19Y08M13:  FROM SOURCE 8 TO RECORD 5 
*SOURCE FILE: 19Y08M13
002333  19Y08M13                         A6    C        20:54:41:09 20:54:48:24 01:08:46:20 01:08:54:10 
*FROM CLIP NAME:  8K2/01.SYNC.01 
*SOURCE FILE: 19Y08M13
002334  19Y08M13                         A7    C        20:54:41:09 20:54:48:24 01:08:46:20 01:08:54:10 
*FROM CLIP NAME:  8K2/01.SYNC.01 
*SOURCE FILE: 19Y08M13
002335  MORTAL-KOMBAT-X-YOU-WIN.MP3      A13   C        01:00:03:13 01:00:16:24 01:08:46:20 01:09:00:06 
*FROM CLIP NAME:  MORTAL-KOMBAT-X-YOU-WIN.MP3 
*A13 VOL = -27.0 DB  PAN R100 
*PATCH MORTAL-KOMBAT-X-YOU-WIN.MP3:  FROM SOURCE 1 TO RECORD 13 
*SOURCE FILE: MORTAL-KOMBAT-X-YOU-WIN.MP3
002336  MORTAL-KOMBAT-X-YOU-WIN.MP3      A14   C        01:00:03:13 01:00:16:24 01:08:46:20 01:09:00:06 
*FROM CLIP NAME:  MORTAL-KOMBAT-X-YOU-WIN.MP3 
*A14 VOL = -27.0 DB  PAN L100 
*PATCH MORTAL-KOMBAT-X-YOU-WIN.MP3:  FROM SOURCE 2 TO RECORD 14 
*SOURCE FILE: MORTAL-KOMBAT-X-YOU-WIN.MP3
002337  MSMMMOB.21                       V     C        20:54:41:21 20:54:49:00 01:08:47:06 01:08:54:10 
M2      MSMMMOB.21                                025.0 20:54:41:21 
*FROM CLIP NAME:  A075C005_190813_R32C 
*SOURCE FILE: MSMMMOB.21
002338  MSMMMOB.89                       V     C        20:45:51:15 20:45:53:09 01:08:54:10 01:08:56:04 
M2      MSMMMOB.89                                025.0 20:45:51:15 
*FROM CLIP NAME:  B022C003_190813_R481 
*SOURCE FILE: MSMMMOB.89
002339  19Y08M13                         A     C        20:45:51:14 20:45:53:08 01:08:54:10 01:08:56:04 
*FROM CLIP NAME:  8K1/03.SYNC.01 
*SOURCE FILE: 19Y08M13
002340  19Y08M13                         A2    C        20:45:51:14 20:45:53:08 01:08:54:10 01:08:56:04 
*FROM CLIP NAME:  8K1/03.SYNC.01 
*SOURCE FILE: 19Y08M13
002341  19Y08M13                         A3    C        20:45:51:14 20:45:53:08 01:08:54:10 01:08:56:04 
*FROM CLIP NAME:  8K1/03.SYNC.01 
*SOURCE FILE: 19Y08M13
002342  19Y08M13                         A4    C        20:45:51:14 20:45:53:08 01:08:54:10 01:08:56:04 
*FROM CLIP NAME:  8K1/03.SYNC.01 
*SOURCE FILE: 19Y08M13
002343  19Y08M13                         A5    C        20:45:51:14 20:45:53:08 01:08:54:10 01:08:56:04 
*FROM CLIP NAME:  8K1/03.SYNC.01 
*PATCH 19Y08M13:  FROM SOURCE 7 TO RECORD 5 
*SOURCE FILE: 19Y08M13
002344  19Y08M13                         A6    C        20:45:51:14 20:45:53:08 01:08:54:10 01:08:56:04 
*FROM CLIP NAME:  8K1/03.SYNC.01 
*SOURCE FILE: 19Y08M13
002345  19Y08M13                         A7    C        20:45:51:14 20:45:53:08 01:08:54:10 01:08:56:04 
*FROM CLIP NAME:  8K1/03.SYNC.01 
*PATCH 19Y08M13:  FROM SOURCE 8 TO RECORD 7 
*SOURCE FILE: 19Y08M13
002346  MSMMMOB.21                       V     C        20:54:51:19 20:54:54:19 01:08:56:04 01:08:59:04 
M2      MSMMMOB.21                                025.0 20:54:51:19 
*FROM CLIP NAME:  A075C005_190813_R32C 
*SOURCE FILE: MSMMMOB.21
002347  19Y08M13                         A     C        20:54:51:18 20:54:58:06 01:08:56:04 01:09:02:17 
*FROM CLIP NAME:  8K2/01.SYNC.01 
*SOURCE FILE: 19Y08M13
002348  19Y08M13                         A2    C        20:54:51:18 20:54:58:06 01:08:56:04 01:09:02:17 
*FROM CLIP NAME:  8K2/01.SYNC.01 
*SOURCE FILE: 19Y08M13
002349  19Y08M13                         A3    C        20:54:51:18 20:54:58:06 01:08:56:04 01:09:02:17 
*FROM CLIP NAME:  8K2/01.SYNC.01 
*SOURCE FILE: 19Y08M13
002350  19Y08M13                         A4    C        20:54:51:18 20:54:58:06 01:08:56:04 01:09:02:17 
*FROM CLIP NAME:  8K2/01.SYNC.01 
*SOURCE FILE: 19Y08M13
002351  19Y08M13                         A5    C        20:54:51:18 20:54:58:06 01:08:56:04 01:09:02:17 
*FROM CLIP NAME:  8K2/01.SYNC.01 
*PATCH 19Y08M13:  FROM SOURCE 8 TO RECORD 5 
*SOURCE FILE: 19Y08M13
002352  19Y08M13                         A6    C        20:54:51:18 20:54:58:06 01:08:56:04 01:09:02:17 
*FROM CLIP NAME:  8K2/01.SYNC.01 
*SOURCE FILE: 19Y08M13
002353  19Y08M13                         A7    C        20:54:51:18 20:54:58:06 01:08:56:04 01:09:02:17 
*FROM CLIP NAME:  8K2/01.SYNC.01 
*SOURCE FILE: 19Y08M13
002354  MSMMMOB.08                       V     C        20:54:53:24 20:54:55:24 01:08:59:04 01:09:01:04 
M2      MSMMMOB.08                                025.0 20:54:53:24 
*FROM CLIP NAME:  B022C005_190813_R481 
*SOURCE FILE: MSMMMOB.08
002355  MORTAL-KOMBAT-X-YOU-WIN.MP3      A13   C        01:00:00:00 01:00:09:19 01:09:00:06 01:09:10:00 
*FROM CLIP NAME:  MORTAL-KOMBAT-X-YOU-WIN.MP3 
*A13 VOL = -27.0 DB  PAN R100 
*PATCH MORTAL-KOMBAT-X-YOU-WIN.MP3:  FROM SOURCE 1 TO RECORD 13 
*SOURCE FILE: MORTAL-KOMBAT-X-YOU-WIN.MP3
002356  MORTAL-KOMBAT-X-YOU-WIN.MP3      A14   C        01:00:00:00 01:00:09:19 01:09:00:06 01:09:10:00 
*FROM CLIP NAME:  MORTAL-KOMBAT-X-YOU-WIN.MP3 
*A14 VOL = -27.0 DB  PAN L100 
*PATCH MORTAL-KOMBAT-X-YOU-WIN.MP3:  FROM SOURCE 2 TO RECORD 14 
*SOURCE FILE: MORTAL-KOMBAT-X-YOU-WIN.MP3
002357  MSMMMOB.21                       V     C        20:54:56:19 20:54:58:11 01:09:01:04 01:09:02:21 
M2      MSMMMOB.21                                025.0 20:54:56:19 
*FROM CLIP NAME:  A075C005_190813_R32C 
*SOURCE FILE: MSMMMOB.21
002358  19Y08M13                         A     C        20:48:03:20 20:48:11:03 01:09:02:17 01:09:10:00 
*FROM CLIP NAME:  8K1/04.SYNC.01 
*SOURCE FILE: 19Y08M13
002359  19Y08M13                         A2    C        20:48:03:20 20:48:11:03 01:09:02:17 01:09:10:00 
*FROM CLIP NAME:  8K1/04.SYNC.01 
*SOURCE FILE: 19Y08M13
002360  19Y08M13                         A3    C        20:48:03:20 20:48:11:03 01:09:02:17 01:09:10:00 
*FROM CLIP NAME:  8K1/04.SYNC.01 
*SOURCE FILE: 19Y08M13
002361  19Y08M13                         A4    C        20:48:03:20 20:48:11:03 01:09:02:17 01:09:10:00 
*FROM CLIP NAME:  8K1/04.SYNC.01 
*SOURCE FILE: 19Y08M13
002362  19Y08M13                         A5    C        20:48:03:20 20:48:11:03 01:09:02:17 01:09:10:00 
*FROM CLIP NAME:  8K1/04.SYNC.01 
*PATCH 19Y08M13:  FROM SOURCE 6 TO RECORD 5 
*SOURCE FILE: 19Y08M13
002363  19Y08M13                         A6    C        20:48:03:20 20:48:11:03 01:09:02:17 01:09:10:00 
*FROM CLIP NAME:  8K1/04.SYNC.01 
*PATCH 19Y08M13:  FROM SOURCE 7 TO RECORD 6 
*SOURCE FILE: 19Y08M13
002364  19Y08M13                         A7    C        20:48:03:20 20:48:11:03 01:09:02:17 01:09:10:00 
*FROM CLIP NAME:  8K1/04.SYNC.01 
*PATCH 19Y08M13:  FROM SOURCE 8 TO RECORD 7 
*SOURCE FILE: 19Y08M13
002365  MSMMMOB.46                       V     C        20:48:04:00 20:48:11:04 01:09:02:21 01:09:10:00 
M2      MSMMMOB.46                                025.0 20:48:04:00 
*FROM CLIP NAME:  A075C004_190813_R32C 
*SOURCE FILE: MSMMMOB.46
002366  DCD002_01_VICTORY_QUEST.MP3      A17   C        01:01:15:11 01:01:19:21 01:09:04:14 01:09:08:24 
*FROM CLIP NAME:  DCD002_01 VICTORY QUEST.MP3 
*A17 VOL = -36.0 DB  PAN L100 
*EQ BAND 1 (LO SHELF) FREQ:210.0 HZ  GAIN: -18.0 DB  Q: 2000 
*EQ BAND 2 (PRESENCE) FREQ:  1.3  KHZ  GAIN: +10.5 DB  Q: 2000 
*EQ BAND 3 (HI SHELF) FREQ:  6.4  KHZ  GAIN: -16.9 DB  Q: 2000 
*PATCH DCD002_01_VICTORY_QUEST.MP3:  FROM SOURCE 1 TO RECORD 17 
*SOURCE FILE: DCD002_01 VICTORY QUEST.MP3
002367  DCD002_01_VICTORY_QUEST.MP3      A18   C        01:01:15:11 01:01:19:21 01:09:04:14 01:09:08:24 
*FROM CLIP NAME:  DCD002_01 VICTORY QUEST.MP3 
*A18 VOL = -36.0 DB  PAN R100 
*EQ BAND 1 (LO SHELF) FREQ:210.0 HZ  GAIN: -18.0 DB  Q: 2000 
*EQ BAND 2 (PRESENCE) FREQ:  1.3  KHZ  GAIN: +10.5 DB  Q: 2000 
*EQ BAND 3 (HI SHELF) FREQ:  6.4  KHZ  GAIN: -16.9 DB  Q: 2000 
*PATCH DCD002_01_VICTORY_QUEST.MP3:  FROM SOURCE 2 TO RECORD 18 
*SOURCE FILE: DCD002_01 VICTORY QUEST.MP3
002368  19Y08M09                         A     C        13:29:03:02 13:29:07:06 01:09:10:00 01:09:14:04 
*FROM CLIP NAME:  9K1/03.SYNC.01 
*A1 VOL =  +6.0 DB  PAN R100 
*SOURCE FILE: 19Y08M09
002369  MSMMMOB.47                       A2    C        13:29:03:02 13:29:07:06 01:09:10:00 01:09:14:04 
*FROM CLIP NAME:  A059C006_190809_R32C 
*A2 VOL =  +6.0 DB  PAN L100 
*SOURCE FILE: MSMMMOB.47
002370  19Y08M09                         A3    C        13:29:03:02 13:29:07:06 01:09:10:00 01:09:14:04 
*FROM CLIP NAME:  9K1/03.SYNC.01 
*A3 VOL =  +6.0 DB  PAN R100 
*SOURCE FILE: 19Y08M09
002371  19Y08M09                         A4    C        13:29:03:02 13:29:07:06 01:09:10:00 01:09:14:04 
*FROM CLIP NAME:  9K1/03.SYNC.01 
*A4 VOL =  +6.0 DB  PAN L100 
*SOURCE FILE: 19Y08M09
002372  19Y08M09                         A5    C        13:29:03:02 13:29:07:06 01:09:10:00 01:09:14:04 
*FROM CLIP NAME:  9K1/03.SYNC.01 
*A5 VOL =  +6.0 DB  PAN R100 
*SOURCE FILE: 19Y08M09
002373  19Y08M09                         A6    C        13:29:03:02 13:29:07:06 01:09:10:00 01:09:14:04 
*FROM CLIP NAME:  9K1/03.SYNC.01 
*A6 VOL =  +6.0 DB  PAN L100 
*SOURCE FILE: 19Y08M09
002374  MSMMMOB.47                       V     C        13:29:03:02 13:29:07:07 01:09:10:00 01:09:14:05 
M2      MSMMMOB.47                                025.0 13:29:03:02 
*FROM CLIP NAME:  A059C006_190809_R32C 
*SOURCE FILE: MSMMMOB.47
002375  19Y08M13                         A10   C        20:16:21:08 20:16:57:17 01:09:10:00 01:09:46:09 
*FROM CLIP NAME:  9AK1/02.SYNC.01 
*A10 VOL = -33.0 DB  PAN L100 
*EQ BAND 1 (LO SHELF) FREQ: 50.0 HZ  GAIN:  +0.0 DB  Q: 1410 
*EQ BAND 2 (PRESENCE) FREQ:500.0 HZ  GAIN: -11.9 DB  Q:  670 
*EQ BAND 3 (HI SHELF) FREQ: 15.0  KHZ  GAIN: -19.0 DB  Q: 1410 
*PATCH 19Y08M13:  FROM SOURCE 2 TO RECORD 10 
*SOURCE FILE: 19Y08M13
002376  19Y08M13                         A11   C        20:16:21:08 20:16:57:17 01:09:10:00 01:09:46:09 
*FROM CLIP NAME:  9AK1/02.SYNC.01 
*A11 VOL = -33.0 DB  PAN R100 
*EQ BAND 1 (LO SHELF) FREQ: 50.0 HZ  GAIN:  +0.0 DB  Q: 1410 
*EQ BAND 2 (PRESENCE) FREQ:345.0 HZ  GAIN:  -9.8 DB  Q:  670 
*EQ BAND 3 (HI SHELF) FREQ: 15.0  KHZ  GAIN: -19.5 DB  Q: 1410 
*PATCH 19Y08M13:  FROM SOURCE 1 TO RECORD 11 
*SOURCE FILE: 19Y08M13
002377  19Y08M09                         A     C        13:29:07:06 13:29:07:06 01:09:14:04 01:09:14:04 
002377  19Y08M09                         A     D    002 13:40:09:02 13:40:09:04 01:09:14:04 01:09:14:06 
*FROM CLIP NAME:  9K1/03.SYNC.01 
*TO CLIP NAME:  9K2/02.SYNC.01 
*A1 VOL =  +6.0 DB  PAN R100 
*A1 VOL =  +7.0 DB  PAN R100 
*SOURCE FILE: 19Y08M09
002378  MSMMMOB.47                       A2    C        13:29:07:06 13:29:07:06 01:09:14:04 01:09:14:04 
002378  MSMMMOB.20                       A2    D    002 13:40:09:02 13:40:09:04 01:09:14:04 01:09:14:06 
*FROM CLIP NAME:  A059C006_190809_R32C 
*TO CLIP NAME:  A059C009_190809_R32C 
*A2 VOL =  +6.0 DB  PAN L100 
*A2 VOL =  +7.0 DB  PAN L100 
*SOURCE FILE: MSMMMOB.47
002379  19Y08M09                         A3    C        13:29:07:06 13:29:07:06 01:09:14:04 01:09:14:04 
002379  19Y08M09                         A3    D    002 13:40:09:02 13:40:09:04 01:09:14:04 01:09:14:06 
*FROM CLIP NAME:  9K1/03.SYNC.01 
*TO CLIP NAME:  9K2/02.SYNC.01 
*A3 VOL =  +6.0 DB  PAN R100 
*A3 VOL =  +7.0 DB  PAN R100 
*SOURCE FILE: 19Y08M09
002380  19Y08M09                         A4    C        13:29:07:06 13:29:07:06 01:09:14:04 01:09:14:04 
002380  19Y08M09                         A4    D    002 13:40:09:02 13:40:09:04 01:09:14:04 01:09:14:06 
*FROM CLIP NAME:  9K1/03.SYNC.01 
*TO CLIP NAME:  9K2/02.SYNC.01 
*A4 VOL =  +6.0 DB  PAN L100 
*A4 VOL =  +7.0 DB  PAN L100 
*SOURCE FILE: 19Y08M09
002381  19Y08M09                         A5    C        13:29:07:06 13:29:07:06 01:09:14:04 01:09:14:04 
002381  19Y08M09                         A5    D    002 13:40:09:02 13:40:09:04 01:09:14:04 01:09:14:06 
*FROM CLIP NAME:  9K1/03.SYNC.01 
*TO CLIP NAME:  9K2/02.SYNC.01 
*A5 VOL =  +6.0 DB  PAN R100 
*A5 VOL =  +7.0 DB  PAN R100 
*SOURCE FILE: 19Y08M09
002382  19Y08M09                         A6    C        13:29:07:06 13:29:07:06 01:09:14:04 01:09:14:04 
002382  19Y08M09                         A6    D    002 13:40:09:02 13:40:09:04 01:09:14:04 01:09:14:06 
*FROM CLIP NAME:  9K1/03.SYNC.01 
*TO CLIP NAME:  9K2/02.SYNC.01 
*A6 VOL =  +6.0 DB  PAN L100 
*A6 VOL =  +7.0 DB  PAN L100 
*SOURCE FILE: 19Y08M09
002383  MSMMMOB.20                       V     C        13:40:09:03 13:40:13:00 01:09:14:05 01:09:18:02 
M2      MSMMMOB.20                                025.0 13:40:09:03 
*FROM CLIP NAME:  A059C009_190809_R32C 
*SOURCE FILE: MSMMMOB.20
002384  19Y08M09                         A     C        13:40:09:04 13:40:12:17 01:09:14:06 01:09:17:19 
*FROM CLIP NAME:  9K2/02.SYNC.01 
*A1 VOL =  +7.0 DB  PAN R100 
*SOURCE FILE: 19Y08M09
002385  MSMMMOB.20                       A2    C        13:40:09:04 13:40:12:17 01:09:14:06 01:09:17:19 
*FROM CLIP NAME:  A059C009_190809_R32C 
*A2 VOL =  +7.0 DB  PAN L100 
*SOURCE FILE: MSMMMOB.20
002386  19Y08M09                         A3    C        13:40:09:04 13:40:12:17 01:09:14:06 01:09:17:19 
*FROM CLIP NAME:  9K2/02.SYNC.01 
*A3 VOL =  +7.0 DB  PAN R100 
*SOURCE FILE: 19Y08M09
002387  19Y08M09                         A4    C        13:40:09:04 13:40:12:17 01:09:14:06 01:09:17:19 
*FROM CLIP NAME:  9K2/02.SYNC.01 
*A4 VOL =  +7.0 DB  PAN L100 
*SOURCE FILE: 19Y08M09
002388  19Y08M09                         A5    C        13:40:09:04 13:40:12:17 01:09:14:06 01:09:17:19 
*FROM CLIP NAME:  9K2/02.SYNC.01 
*A5 VOL =  +7.0 DB  PAN R100 
*SOURCE FILE: 19Y08M09
002389  19Y08M09                         A6    C        13:40:09:04 13:40:12:17 01:09:14:06 01:09:17:19 
*FROM CLIP NAME:  9K2/02.SYNC.01 
*A6 VOL =  +7.0 DB  PAN L100 
*SOURCE FILE: 19Y08M09
002390  19Y08M09                         A     C        13:40:12:17 13:40:12:17 01:09:17:19 01:09:17:19 
002390  19Y08M09                         A     D    002 14:00:34:05 14:00:34:07 01:09:17:19 01:09:17:21 
*FROM CLIP NAME:  9K2/02.SYNC.01 
*TO CLIP NAME:  9K5/01.SYNC.01 
*A1 VOL =  +7.0 DB  PAN R100 
*A1 VOL =  +4.8 DB  PAN R100 
*SOURCE FILE: 19Y08M09
002391  MSMMMOB.20                       A2    C        13:40:12:17 13:40:12:17 01:09:17:19 01:09:17:19 
002391  MSMMMOB.48                       A2    D    002 14:00:34:05 14:00:34:07 01:09:17:19 01:09:17:21 
*FROM CLIP NAME:  A059C009_190809_R32C 
*TO CLIP NAME:  A060C005_190809_R32C 
*A2 VOL =  +7.0 DB  PAN L100 
*A2 VOL =  +4.8 DB  PAN L100 
*SOURCE FILE: MSMMMOB.20
002392  19Y08M09                         A3    C        13:40:12:17 13:40:12:17 01:09:17:19 01:09:17:19 
002392  19Y08M09                         A3    D    002 14:00:34:05 14:00:34:07 01:09:17:19 01:09:17:21 
*FROM CLIP NAME:  9K2/02.SYNC.01 
*TO CLIP NAME:  9K5/01.SYNC.01 
*A3 VOL =  +7.0 DB  PAN R100 
*A3 VOL =  +4.8 DB  PAN R100 
*SOURCE FILE: 19Y08M09
002393  19Y08M09                         A4    C        13:40:12:17 13:40:12:17 01:09:17:19 01:09:17:19 
002393  19Y08M09                         A4    D    002 14:00:34:05 14:00:34:07 01:09:17:19 01:09:17:21 
*FROM CLIP NAME:  9K2/02.SYNC.01 
*TO CLIP NAME:  9K5/01.SYNC.01 
*A4 VOL =  +7.0 DB  PAN L100 
*A4 VOL =  +4.8 DB  PAN L100 
*SOURCE FILE: 19Y08M09
002394  19Y08M09                         A5    C        13:40:12:17 13:40:12:17 01:09:17:19 01:09:17:19 
002394  19Y08M09                         A5    D    002 14:00:34:05 14:00:34:07 01:09:17:19 01:09:17:21 
*FROM CLIP NAME:  9K2/02.SYNC.01 
*TO CLIP NAME:  9K5/01.SYNC.01 
*A5 VOL =  +7.0 DB  PAN R100 
*A5 VOL =  +4.8 DB  PAN R100 
*SOURCE FILE: 19Y08M09
002395  19Y08M09                         A6    C        13:40:12:17 13:40:12:17 01:09:17:19 01:09:17:19 
002395  19Y08M09                         A6    D    002 14:00:34:05 14:00:34:07 01:09:17:19 01:09:17:21 
*FROM CLIP NAME:  9K2/02.SYNC.01 
*TO CLIP NAME:  9K5/01.SYNC.01 
*A6 VOL =  +7.0 DB  PAN L100 
*A6 VOL =  +4.8 DB  PAN L100 
*SOURCE FILE: 19Y08M09
002396  19Y08M09                         A     C        14:00:34:07 14:00:36:04 01:09:17:21 01:09:19:18 
*FROM CLIP NAME:  9K5/01.SYNC.01 
*A1 VOL =  +4.8 DB  PAN R100 
*SOURCE FILE: 19Y08M09
002397  MSMMMOB.48                       A2    C        14:00:34:07 14:00:36:04 01:09:17:21 01:09:19:18 
*FROM CLIP NAME:  A060C005_190809_R32C 
*A2 VOL =  +4.8 DB  PAN L100 
*SOURCE FILE: MSMMMOB.48
002398  19Y08M09                         A3    C        14:00:34:07 14:00:36:04 01:09:17:21 01:09:19:18 
*FROM CLIP NAME:  9K5/01.SYNC.01 
*A3 VOL =  +4.8 DB  PAN R100 
*SOURCE FILE: 19Y08M09
002399  19Y08M09                         A4    C        14:00:34:07 14:00:36:04 01:09:17:21 01:09:19:18 
*FROM CLIP NAME:  9K5/01.SYNC.01 
*A4 VOL =  +4.8 DB  PAN L100 
*SOURCE FILE: 19Y08M09
002400  19Y08M09                         A5    C        14:00:34:07 14:00:36:04 01:09:17:21 01:09:19:18 
*FROM CLIP NAME:  9K5/01.SYNC.01 
*A5 VOL =  +4.8 DB  PAN R100 
*SOURCE FILE: 19Y08M09
002401  19Y08M09                         A6    C        14:00:34:07 14:00:36:04 01:09:17:21 01:09:19:18 
*FROM CLIP NAME:  9K5/01.SYNC.01 
*A6 VOL =  +4.8 DB  PAN L100 
*SOURCE FILE: 19Y08M09
002402  MSMMMOB.48                       V     C        14:00:34:13 14:00:36:04 01:09:18:02 01:09:19:18 
M2      MSMMMOB.48                                025.0 14:00:34:13 
*FROM CLIP NAME:  A060C005_190809_R32C 
*SOURCE FILE: MSMMMOB.48
002403  MSMMMOB.19                       V     C        13:46:08:13 13:46:09:08 01:09:19:18 01:09:20:13 
M2      MSMMMOB.19                                025.0 13:46:08:13 
*FROM CLIP NAME:  A060C001_190809_R32C 
*SOURCE FILE: MSMMMOB.19
002404  19Y08M09                         A     C        13:46:08:13 13:46:09:13 01:09:19:18 01:09:20:18 
*FROM CLIP NAME:  9K3/01.SYNC.01 
*SOURCE FILE: 19Y08M09
002405  MSMMMOB.19                       A2    C        13:46:08:13 13:46:09:13 01:09:19:18 01:09:20:18 
*FROM CLIP NAME:  A060C001_190809_R32C 
*SOURCE FILE: MSMMMOB.19
002406  19Y08M09                         A3    C        13:46:08:13 13:46:09:13 01:09:19:18 01:09:20:18 
*FROM CLIP NAME:  9K3/01.SYNC.01 
*SOURCE FILE: 19Y08M09
002407  19Y08M09                         A4    C        13:46:08:13 13:46:09:13 01:09:19:18 01:09:20:18 
*FROM CLIP NAME:  9K3/01.SYNC.01 
*SOURCE FILE: 19Y08M09
002408  19Y08M09                         A5    C        13:46:08:13 13:46:09:13 01:09:19:18 01:09:20:18 
*FROM CLIP NAME:  9K3/01.SYNC.01 
*SOURCE FILE: 19Y08M09
002409  19Y08M09                         A6    C        13:46:08:13 13:46:09:13 01:09:19:18 01:09:20:18 
*FROM CLIP NAME:  9K3/01.SYNC.01 
*SOURCE FILE: 19Y08M09
002410  MSMMMOB.48                       V     C        14:00:36:22 14:00:38:05 01:09:20:13 01:09:21:21 
M2      MSMMMOB.48                                025.0 14:00:36:22 
*FROM CLIP NAME:  A060C005_190809_R32C 
*SOURCE FILE: MSMMMOB.48
002411  19Y08M09                         A     C        14:00:37:02 14:00:38:05 01:09:20:18 01:09:21:21 
*FROM CLIP NAME:  9K5/01.SYNC.01 
*SOURCE FILE: 19Y08M09
002412  MSMMMOB.48                       A2    C        14:00:37:02 14:00:38:05 01:09:20:18 01:09:21:21 
*FROM CLIP NAME:  A060C005_190809_R32C 
*SOURCE FILE: MSMMMOB.48
002413  19Y08M09                         A3    C        14:00:37:02 14:00:38:05 01:09:20:18 01:09:21:21 
*FROM CLIP NAME:  9K5/01.SYNC.01 
*SOURCE FILE: 19Y08M09
002414  19Y08M09                         A4    C        14:00:37:02 14:00:38:05 01:09:20:18 01:09:21:21 
*FROM CLIP NAME:  9K5/01.SYNC.01 
*SOURCE FILE: 19Y08M09
002415  19Y08M09                         A5    C        14:00:37:02 14:00:38:05 01:09:20:18 01:09:21:21 
*FROM CLIP NAME:  9K5/01.SYNC.01 
*SOURCE FILE: 19Y08M09
002416  19Y08M09                         A6    C        14:00:37:02 14:00:38:05 01:09:20:18 01:09:21:21 
*FROM CLIP NAME:  9K5/01.SYNC.01 
*SOURCE FILE: 19Y08M09
002417  19Y08M09                         A     C        13:46:09:06 13:46:10:21 01:09:21:21 01:09:23:11 
*FROM CLIP NAME:  9K3/01.SYNC.01 
*A1 VOL =  +4.0 DB  PAN R100 
*SOURCE FILE: 19Y08M09
002418  MSMMMOB.19                       A2    C        13:46:09:06 13:46:10:21 01:09:21:21 01:09:23:11 
*FROM CLIP NAME:  A060C001_190809_R32C 
*A2 VOL =  +4.0 DB  PAN L100 
*SOURCE FILE: MSMMMOB.19
002419  19Y08M09                         A3    C        13:46:09:06 13:46:10:21 01:09:21:21 01:09:23:11 
*FROM CLIP NAME:  9K3/01.SYNC.01 
*A3 VOL =  +4.0 DB  PAN R100 
*SOURCE FILE: 19Y08M09
002420  19Y08M09                         A4    C        13:46:09:06 13:46:10:21 01:09:21:21 01:09:23:11 
*FROM CLIP NAME:  9K3/01.SYNC.01 
*A4 VOL =  +4.0 DB  PAN L100 
*SOURCE FILE: 19Y08M09
002421  19Y08M09                         A5    C        13:46:09:06 13:46:10:21 01:09:21:21 01:09:23:11 
*FROM CLIP NAME:  9K3/01.SYNC.01 
*A5 VOL =  +4.0 DB  PAN R100 
*SOURCE FILE: 19Y08M09
002422  19Y08M09                         A6    C        13:46:09:06 13:46:10:21 01:09:21:21 01:09:23:11 
*FROM CLIP NAME:  9K3/01.SYNC.01 
*A6 VOL =  +4.0 DB  PAN L100 
*SOURCE FILE: 19Y08M09
002423  MSMMMOB.19                       V     C        13:46:09:06 13:46:11:04 01:09:21:21 01:09:23:19 
M2      MSMMMOB.19                                025.0 13:46:09:06 
*FROM CLIP NAME:  A060C001_190809_R32C 
*SOURCE FILE: MSMMMOB.19
002424  19Y08M09                         A     C        14:00:38:23 14:00:41:07 01:09:23:11 01:09:25:20 
*FROM CLIP NAME:  9K5/01.SYNC.01 
*A1 VOL =  +6.7 DB  PAN R100 
*SOURCE FILE: 19Y08M09
002425  MSMMMOB.48                       A2    C        14:00:38:23 14:00:41:07 01:09:23:11 01:09:25:20 
*FROM CLIP NAME:  A060C005_190809_R32C 
*A2 VOL =  +6.7 DB  PAN L100 
*SOURCE FILE: MSMMMOB.48
002426  19Y08M09                         A3    C        14:00:38:23 14:00:41:07 01:09:23:11 01:09:25:20 
*FROM CLIP NAME:  9K5/01.SYNC.01 
*A3 VOL =  +6.7 DB  PAN R100 
*SOURCE FILE: 19Y08M09
002427  19Y08M09                         A4    C        14:00:38:23 14:00:41:07 01:09:23:11 01:09:25:20 
*FROM CLIP NAME:  9K5/01.SYNC.01 
*A4 VOL =  +6.7 DB  PAN L100 
*SOURCE FILE: 19Y08M09
002428  19Y08M09                         A5    C        14:00:38:23 14:00:41:07 01:09:23:11 01:09:25:20 
*FROM CLIP NAME:  9K5/01.SYNC.01 
*A5 VOL =  +6.7 DB  PAN R100 
*SOURCE FILE: 19Y08M09
002429  19Y08M09                         A6    C        14:00:38:23 14:00:41:07 01:09:23:11 01:09:25:20 
*FROM CLIP NAME:  9K5/01.SYNC.01 
*A6 VOL =  +6.7 DB  PAN L100 
*SOURCE FILE: 19Y08M09
002430  MSMMMOB.48                       V     C        14:00:39:06 14:00:41:07 01:09:23:19 01:09:25:20 
M2      MSMMMOB.48                                025.0 14:00:39:06 
*FROM CLIP NAME:  A060C005_190809_R32C 
*SOURCE FILE: MSMMMOB.48
002431  19Y08M09                         A     C        13:29:17:03 13:29:17:03 01:09:25:20 01:09:25:20 
002431  19Y08M09                         A     D    002 13:46:13:10 13:46:13:12 01:09:25:20 01:09:25:22 
*FROM CLIP NAME:  9K1/03.SYNC.01 
*TO CLIP NAME:  9K3/01.SYNC.01 
*A1 VOL =  +4.0 DB  PAN R100 
*SOURCE FILE: 19Y08M09
002432  MSMMMOB.47                       A2    C        13:29:17:03 13:29:17:03 01:09:25:20 01:09:25:20 
002432  MSMMMOB.19                       A2    D    002 13:46:13:10 13:46:13:12 01:09:25:20 01:09:25:22 
*FROM CLIP NAME:  A059C006_190809_R32C 
*TO CLIP NAME:  A060C001_190809_R32C 
*A2 VOL =  +4.0 DB  PAN L100 
*SOURCE FILE: MSMMMOB.47
002433  19Y08M09                         A3    C        13:29:17:03 13:29:17:03 01:09:25:20 01:09:25:20 
002433  19Y08M09                         A3    D    002 13:46:13:10 13:46:13:12 01:09:25:20 01:09:25:22 
*FROM CLIP NAME:  9K1/03.SYNC.01 
*TO CLIP NAME:  9K3/01.SYNC.01 
*A3 VOL =  +4.0 DB  PAN R100 
*SOURCE FILE: 19Y08M09
002434  19Y08M09                         A4    C        13:29:17:03 13:29:17:03 01:09:25:20 01:09:25:20 
002434  19Y08M09                         A4    D    002 13:46:13:10 13:46:13:12 01:09:25:20 01:09:25:22 
*FROM CLIP NAME:  9K1/03.SYNC.01 
*TO CLIP NAME:  9K3/01.SYNC.01 
*A4 VOL =  +4.0 DB  PAN L100 
*SOURCE FILE: 19Y08M09
002435  19Y08M09                         A5    C        13:29:17:03 13:29:17:03 01:09:25:20 01:09:25:20 
002435  19Y08M09                         A5    D    002 13:46:13:10 13:46:13:12 01:09:25:20 01:09:25:22 
*FROM CLIP NAME:  9K1/03.SYNC.01 
*TO CLIP NAME:  9K3/01.SYNC.01 
*A5 VOL =  +4.0 DB  PAN R100 
*SOURCE FILE: 19Y08M09
002436  19Y08M09                         A6    C        13:29:17:03 13:29:17:03 01:09:25:20 01:09:25:20 
002436  19Y08M09                         A6    D    002 13:46:13:10 13:46:13:12 01:09:25:20 01:09:25:22 
*FROM CLIP NAME:  9K1/03.SYNC.01 
*TO CLIP NAME:  9K3/01.SYNC.01 
*A6 VOL =  +4.0 DB  PAN L100 
*SOURCE FILE: 19Y08M09
002437  MSMMMOB.19                       V     C        13:46:13:10 13:46:15:00 01:09:25:20 01:09:27:10 
M2      MSMMMOB.19                                025.0 13:46:13:10 
*FROM CLIP NAME:  A060C001_190809_R32C 
*SOURCE FILE: MSMMMOB.19
002438  19Y08M09                         A     C        13:46:13:12 13:46:15:03 01:09:25:22 01:09:27:13 
*FROM CLIP NAME:  9K3/01.SYNC.01 
*A1 VOL =  +4.0 DB  PAN R100 
*SOURCE FILE: 19Y08M09
002439  MSMMMOB.19                       A2    C        13:46:13:12 13:46:15:03 01:09:25:22 01:09:27:13 
*FROM CLIP NAME:  A060C001_190809_R32C 
*A2 VOL =  +4.0 DB  PAN L100 
*SOURCE FILE: MSMMMOB.19
002440  19Y08M09                         A3    C        13:46:13:12 13:46:15:03 01:09:25:22 01:09:27:13 
*FROM CLIP NAME:  9K3/01.SYNC.01 
*A3 VOL =  +4.0 DB  PAN R100 
*SOURCE FILE: 19Y08M09
002441  19Y08M09                         A4    C        13:46:13:12 13:46:15:03 01:09:25:22 01:09:27:13 
*FROM CLIP NAME:  9K3/01.SYNC.01 
*A4 VOL =  +4.0 DB  PAN L100 
*SOURCE FILE: 19Y08M09
002442  19Y08M09                         A5    C        13:46:13:12 13:46:15:03 01:09:25:22 01:09:27:13 
*FROM CLIP NAME:  9K3/01.SYNC.01 
*A5 VOL =  +4.0 DB  PAN R100 
*SOURCE FILE: 19Y08M09
002443  19Y08M09                         A6    C        13:46:13:12 13:46:15:03 01:09:25:22 01:09:27:13 
*FROM CLIP NAME:  9K3/01.SYNC.01 
*A6 VOL =  +4.0 DB  PAN L100 
*SOURCE FILE: 19Y08M09
002444  MSMMMOB.34                       V     C        13:58:50:04 13:58:51:22 01:09:27:10 01:09:29:03 
M2      MSMMMOB.34                                025.0 13:58:50:04 
*FROM CLIP NAME:  A060C004_190809_R32C 
*SOURCE FILE: MSMMMOB.34
002445  19Y08M09                         A     C        14:00:42:19 14:00:44:01 01:09:27:13 01:09:28:20 
*FROM CLIP NAME:  9K5/01.SYNC.01 
*A1 VOL =  +4.8 DB  PAN R100 
*SOURCE FILE: 19Y08M09
002446  MSMMMOB.48                       A2    C        14:00:42:19 14:00:44:01 01:09:27:13 01:09:28:20 
*FROM CLIP NAME:  A060C005_190809_R32C 
*A2 VOL =  +4.8 DB  PAN L100 
*SOURCE FILE: MSMMMOB.48
002447  19Y08M09                         A3    C        14:00:42:19 14:00:44:01 01:09:27:13 01:09:28:20 
*FROM CLIP NAME:  9K5/01.SYNC.01 
*A3 VOL =  +4.8 DB  PAN R100 
*SOURCE FILE: 19Y08M09
002448  19Y08M09                         A4    C        14:00:42:19 14:00:44:01 01:09:27:13 01:09:28:20 
*FROM CLIP NAME:  9K5/01.SYNC.01 
*A4 VOL =  +4.8 DB  PAN L100 
*SOURCE FILE: 19Y08M09
002449  19Y08M09                         A5    C        14:00:42:19 14:00:44:01 01:09:27:13 01:09:28:20 
*FROM CLIP NAME:  9K5/01.SYNC.01 
*A5 VOL =  +4.8 DB  PAN R100 
*SOURCE FILE: 19Y08M09
002450  19Y08M09                         A6    C        14:00:42:19 14:00:44:01 01:09:27:13 01:09:28:20 
*FROM CLIP NAME:  9K5/01.SYNC.01 
*A6 VOL =  +4.8 DB  PAN L100 
*SOURCE FILE: 19Y08M09
002451  19Y08M09                         A     C        13:40:21:17 13:40:23:07 01:09:28:20 01:09:30:10 
*FROM CLIP NAME:  9K2/02.SYNC.01 
*A1 VOL =  +4.0 DB  PAN R100 
*SOURCE FILE: 19Y08M09
002452  MSMMMOB.20                       A2    C        13:40:21:17 13:40:23:07 01:09:28:20 01:09:30:10 
*FROM CLIP NAME:  A059C009_190809_R32C 
*A2 VOL =  +4.0 DB  PAN L100 
*SOURCE FILE: MSMMMOB.20
002453  19Y08M09                         A3    C        13:40:21:17 13:40:23:07 01:09:28:20 01:09:30:10 
*FROM CLIP NAME:  9K2/02.SYNC.01 
*A3 VOL =  +4.0 DB  PAN R100 
*SOURCE FILE: 19Y08M09
002454  19Y08M09                         A4    C        13:40:21:17 13:40:23:07 01:09:28:20 01:09:30:10 
*FROM CLIP NAME:  9K2/02.SYNC.01 
*A4 VOL =  +4.0 DB  PAN L100 
*SOURCE FILE: 19Y08M09
002455  19Y08M09                         A5    C        13:40:21:17 13:40:23:07 01:09:28:20 01:09:30:10 
*FROM CLIP NAME:  9K2/02.SYNC.01 
*A5 VOL =  +4.0 DB  PAN R100 
*SOURCE FILE: 19Y08M09
002456  19Y08M09                         A6    C        13:40:21:17 13:40:23:07 01:09:28:20 01:09:30:10 
*FROM CLIP NAME:  9K2/02.SYNC.01 
*A6 VOL =  +4.0 DB  PAN L100 
*SOURCE FILE: 19Y08M09
002457  MSMMMOB.20                       V     C        13:40:22:00 13:40:23:07 01:09:29:03 01:09:30:10 
M2      MSMMMOB.20                                025.0 13:40:22:00 
*FROM CLIP NAME:  A059C009_190809_R32C 
*SOURCE FILE: MSMMMOB.20
002458  19Y08M09                         A     C        14:07:06:04 14:07:07:16 01:09:30:10 01:09:31:22 
*FROM CLIP NAME:  9K6/02.SYNC.01 
*A1 VOL =  +2.6 DB  PAN R100 
*SOURCE FILE: 19Y08M09
002459  MSMMMOB.27                       A2    C        14:07:06:04 14:07:07:16 01:09:30:10 01:09:31:22 
*FROM CLIP NAME:  A060C007_190809_R32C 
*A2 VOL =  +2.6 DB  PAN L100 
*SOURCE FILE: MSMMMOB.27
002460  19Y08M09                         A3    C        14:07:06:04 14:07:07:16 01:09:30:10 01:09:31:22 
*FROM CLIP NAME:  9K6/02.SYNC.01 
*A3 VOL =  +2.6 DB  PAN R100 
*SOURCE FILE: 19Y08M09
002461  19Y08M09                         A4    C        14:07:06:04 14:07:07:16 01:09:30:10 01:09:31:22 
*FROM CLIP NAME:  9K6/02.SYNC.01 
*A4 VOL =  +2.6 DB  PAN L100 
*SOURCE FILE: 19Y08M09
002462  19Y08M09                         A5    C        14:07:06:04 14:07:07:16 01:09:30:10 01:09:31:22 
*FROM CLIP NAME:  9K6/02.SYNC.01 
*A5 VOL =  +2.6 DB  PAN R100 
*SOURCE FILE: 19Y08M09
002463  19Y08M09                         A6    C        14:07:06:04 14:07:07:16 01:09:30:10 01:09:31:22 
*FROM CLIP NAME:  9K6/02.SYNC.01 
*A6 VOL =  +2.6 DB  PAN L100 
*SOURCE FILE: 19Y08M09
002464  MSMMMOB.27                       V     C        14:07:06:04 14:07:07:17 01:09:30:10 01:09:31:23 
M2      MSMMMOB.27                                025.0 14:07:06:04 
*FROM CLIP NAME:  A060C007_190809_R32C 
*SOURCE FILE: MSMMMOB.27
002465  19Y08M09                         A     C        14:07:07:16 14:07:07:16 01:09:31:22 01:09:31:22 
002465  19Y08M09                         A     D    002 13:38:06:12 13:38:06:14 01:09:31:22 01:09:31:24 
*FROM CLIP NAME:  9K6/02.SYNC.01 
*TO CLIP NAME:  9K2/01.SYNC.01 
*A1 VOL =  +2.6 DB  PAN R100 
*A1 VOL =  +4.0 DB  PAN R100 
*SOURCE FILE: 19Y08M09
002466  MSMMMOB.27                       A2    C        14:07:07:16 14:07:07:16 01:09:31:22 01:09:31:22 
002466  MSMMMOB.52                       A2    D    002 13:38:06:12 13:38:06:14 01:09:31:22 01:09:31:24 
*FROM CLIP NAME:  A060C007_190809_R32C 
*TO CLIP NAME:  A059C008_190809_R32C 
*A2 VOL =  +2.6 DB  PAN L100 
*A2 VOL =  +4.0 DB  PAN L100 
*SOURCE FILE: MSMMMOB.27
002467  19Y08M09                         A3    C        14:07:07:16 14:07:07:16 01:09:31:22 01:09:31:22 
002467  19Y08M09                         A3    D    002 13:38:06:12 13:38:06:14 01:09:31:22 01:09:31:24 
*FROM CLIP NAME:  9K6/02.SYNC.01 
*TO CLIP NAME:  9K2/01.SYNC.01 
*A3 VOL =  +2.6 DB  PAN R100 
*A3 VOL =  +4.0 DB  PAN R100 
*SOURCE FILE: 19Y08M09
002468  19Y08M09                         A4    C        14:07:07:16 14:07:07:16 01:09:31:22 01:09:31:22 
002468  19Y08M09                         A4    D    002 13:38:06:12 13:38:06:14 01:09:31:22 01:09:31:24 
*FROM CLIP NAME:  9K6/02.SYNC.01 
*TO CLIP NAME:  9K2/01.SYNC.01 
*A4 VOL =  +2.6 DB  PAN L100 
*A4 VOL =  +4.0 DB  PAN L100 
*SOURCE FILE: 19Y08M09
002469  19Y08M09                         A5    C        14:07:07:16 14:07:07:16 01:09:31:22 01:09:31:22 
002469  19Y08M09                         A5    D    002 13:38:06:12 13:38:06:14 01:09:31:22 01:09:31:24 
*FROM CLIP NAME:  9K6/02.SYNC.01 
*TO CLIP NAME:  9K2/01.SYNC.01 
*A5 VOL =  +2.6 DB  PAN R100 
*A5 VOL =  +4.0 DB  PAN R100 
*SOURCE FILE: 19Y08M09
002470  19Y08M09                         A6    C        14:07:07:16 14:07:07:16 01:09:31:22 01:09:31:22 
002470  19Y08M09                         A6    D    002 13:38:06:12 13:38:06:14 01:09:31:22 01:09:31:24 
*FROM CLIP NAME:  9K6/02.SYNC.01 
*TO CLIP NAME:  9K2/01.SYNC.01 
*A6 VOL =  +2.6 DB  PAN L100 
*A6 VOL =  +4.0 DB  PAN L100 
*SOURCE FILE: 19Y08M09
002471  MSMMMOB.52                       V     C        13:38:06:13 13:38:08:17 01:09:31:23 01:09:34:02 
M2      MSMMMOB.52                                025.0 13:38:06:13 
*FROM CLIP NAME:  A059C008_190809_R32C 
*SOURCE FILE: MSMMMOB.52
002472  19Y08M09                         A     C        13:38:06:14 13:38:08:17 01:09:31:24 01:09:34:02 
*FROM CLIP NAME:  9K2/01.SYNC.01 
*A1 VOL =  +4.0 DB  PAN R100 
*SOURCE FILE: 19Y08M09
002473  MSMMMOB.52                       A2    C        13:38:06:14 13:38:08:17 01:09:31:24 01:09:34:02 
*FROM CLIP NAME:  A059C008_190809_R32C 
*A2 VOL =  +4.0 DB  PAN L100 
*SOURCE FILE: MSMMMOB.52
002474  19Y08M09                         A3    C        13:38:06:14 13:38:08:17 01:09:31:24 01:09:34:02 
*FROM CLIP NAME:  9K2/01.SYNC.01 
*A3 VOL =  +4.0 DB  PAN R100 
*SOURCE FILE: 19Y08M09
002475  19Y08M09                         A4    C        13:38:06:14 13:38:08:17 01:09:31:24 01:09:34:02 
*FROM CLIP NAME:  9K2/01.SYNC.01 
*A4 VOL =  +4.0 DB  PAN L100 
*SOURCE FILE: 19Y08M09
002476  19Y08M09                         A5    C        13:38:06:14 13:38:08:17 01:09:31:24 01:09:34:02 
*FROM CLIP NAME:  9K2/01.SYNC.01 
*A5 VOL =  +4.0 DB  PAN R100 
*SOURCE FILE: 19Y08M09
002477  19Y08M09                         A6    C        13:38:06:14 13:38:08:17 01:09:31:24 01:09:34:02 
*FROM CLIP NAME:  9K2/01.SYNC.01 
*A6 VOL =  +4.0 DB  PAN L100 
*SOURCE FILE: 19Y08M09
002478  19Y08M09                         A     C        13:29:27:06 13:29:30:21 01:09:34:02 01:09:37:17 
*FROM CLIP NAME:  9K1/03.SYNC.01 
*A1 VOL =  +3.0 DB  PAN R100 
*SOURCE FILE: 19Y08M09
002479  MSMMMOB.47                       A2    C        13:29:27:06 13:29:30:21 01:09:34:02 01:09:37:17 
*FROM CLIP NAME:  A059C006_190809_R32C 
*A2 VOL =  +3.0 DB  PAN L100 
*SOURCE FILE: MSMMMOB.47
002480  19Y08M09                         A3    C        13:29:27:06 13:29:30:21 01:09:34:02 01:09:37:17 
*FROM CLIP NAME:  9K1/03.SYNC.01 
*A3 VOL =  +3.0 DB  PAN R100 
*SOURCE FILE: 19Y08M09
002481  19Y08M09                         A4    C        13:29:27:06 13:29:30:21 01:09:34:02 01:09:37:17 
*FROM CLIP NAME:  9K1/03.SYNC.01 
*A4 VOL =  +3.0 DB  PAN L100 
*SOURCE FILE: 19Y08M09
002482  19Y08M09                         A5    C        13:29:27:06 13:29:30:21 01:09:34:02 01:09:37:17 
*FROM CLIP NAME:  9K1/03.SYNC.01 
*A5 VOL =  +3.0 DB  PAN R100 
*SOURCE FILE: 19Y08M09
002483  19Y08M09                         A6    C        13:29:27:06 13:29:30:21 01:09:34:02 01:09:37:17 
*FROM CLIP NAME:  9K1/03.SYNC.01 
*A6 VOL =  +3.0 DB  PAN L100 
*SOURCE FILE: 19Y08M09
002484  MSMMMOB.47                       V     C        13:29:27:06 13:29:32:08 01:09:34:02 01:09:39:04 
M2      MSMMMOB.47                                025.0 13:29:27:06 
*FROM CLIP NAME:  A059C006_190809_R32C 
*SOURCE FILE: MSMMMOB.47
002485  19Y08M09                         A     C        13:29:30:21 13:29:32:12 01:09:37:17 01:09:39:08 
*FROM CLIP NAME:  9K1/03.SYNC.01 
*A1 VOL =  +3.0 DB  PAN R100 
*SOURCE FILE: 19Y08M09
002486  MSMMMOB.47                       A2    C        13:29:30:21 13:29:32:12 01:09:37:17 01:09:39:08 
*FROM CLIP NAME:  A059C006_190809_R32C 
*A2 VOL =  +3.0 DB  PAN L100 
*SOURCE FILE: MSMMMOB.47
002487  19Y08M09                         A3    C        13:29:30:21 13:29:32:12 01:09:37:17 01:09:39:08 
*FROM CLIP NAME:  9K1/03.SYNC.01 
*A3 VOL =  +3.0 DB  PAN R100 
*SOURCE FILE: 19Y08M09
002488  19Y08M09                         A4    C        13:29:30:21 13:29:32:12 01:09:37:17 01:09:39:08 
*FROM CLIP NAME:  9K1/03.SYNC.01 
*A4 VOL =  +3.0 DB  PAN L100 
*SOURCE FILE: 19Y08M09
002489  19Y08M09                         A5    C        13:29:30:21 13:29:32:12 01:09:37:17 01:09:39:08 
*FROM CLIP NAME:  9K1/03.SYNC.01 
*A5 VOL =  +3.0 DB  PAN R100 
*SOURCE FILE: 19Y08M09
002490  19Y08M09                         A6    C        13:29:30:21 13:29:32:12 01:09:37:17 01:09:39:08 
*FROM CLIP NAME:  9K1/03.SYNC.01 
*A6 VOL =  +3.0 DB  PAN L100 
*SOURCE FILE: 19Y08M09
002491  MSMMMOB.27                       V     C        14:07:09:07 14:07:11:21 01:09:39:04 01:09:41:18 
M2      MSMMMOB.27                                025.0 14:07:09:07 
*FROM CLIP NAME:  A060C007_190809_R32C 
*SOURCE FILE: MSMMMOB.27
002492  19Y08M09                         A     C        13:40:33:00 13:40:34:18 01:09:39:08 01:09:41:01 
*FROM CLIP NAME:  9K2/02.SYNC.01 
*A1 VOL =  +4.0 DB  PAN R100 
*SOURCE FILE: 19Y08M09
002493  MSMMMOB.20                       A2    C        13:40:33:00 13:40:34:18 01:09:39:08 01:09:41:01 
*FROM CLIP NAME:  A059C009_190809_R32C 
*A2 VOL =  +4.0 DB  PAN L100 
*SOURCE FILE: MSMMMOB.20
002494  19Y08M09                         A3    C        13:40:33:00 13:40:34:18 01:09:39:08 01:09:41:01 
*FROM CLIP NAME:  9K2/02.SYNC.01 
*A3 VOL =  +4.0 DB  PAN R100 
*SOURCE FILE: 19Y08M09
002495  19Y08M09                         A4    C        13:40:33:00 13:40:34:18 01:09:39:08 01:09:41:01 
*FROM CLIP NAME:  9K2/02.SYNC.01 
*A4 VOL =  +4.0 DB  PAN L100 
*SOURCE FILE: 19Y08M09
002496  19Y08M09                         A5    C        13:40:33:00 13:40:34:18 01:09:39:08 01:09:41:01 
*FROM CLIP NAME:  9K2/02.SYNC.01 
*A5 VOL =  +4.0 DB  PAN R100 
*SOURCE FILE: 19Y08M09
002497  19Y08M09                         A6    C        13:40:33:00 13:40:34:18 01:09:39:08 01:09:41:01 
*FROM CLIP NAME:  9K2/02.SYNC.01 
*A6 VOL =  +4.0 DB  PAN L100 
*SOURCE FILE: 19Y08M09
002498  19Y08M09                         A     C        13:38:15:13 13:38:18:03 01:09:41:01 01:09:43:16 
*FROM CLIP NAME:  9K2/01.SYNC.01 
*A1 VOL =  +4.0 DB  PAN R100 
*SOURCE FILE: 19Y08M09
002499  MSMMMOB.52                       A2    C        13:38:15:13 13:38:18:03 01:09:41:01 01:09:43:16 
*FROM CLIP NAME:  A059C008_190809_R32C 
*A2 VOL =  +4.0 DB  PAN L100 
*SOURCE FILE: MSMMMOB.52
002500  19Y08M09                         A3    C        13:38:15:13 13:38:18:03 01:09:41:01 01:09:43:16 
*FROM CLIP NAME:  9K2/01.SYNC.01 
*A3 VOL =  +4.0 DB  PAN R100 
*SOURCE FILE: 19Y08M09
002501  19Y08M09                         A4    C        13:38:15:13 13:38:18:03 01:09:41:01 01:09:43:16 
*FROM CLIP NAME:  9K2/01.SYNC.01 
*A4 VOL =  +4.0 DB  PAN L100 
*SOURCE FILE: 19Y08M09
002502  19Y08M09                         A5    C        13:38:15:13 13:38:18:03 01:09:41:01 01:09:43:16 
*FROM CLIP NAME:  9K2/01.SYNC.01 
*A5 VOL =  +4.0 DB  PAN R100 
*SOURCE FILE: 19Y08M09
002503  19Y08M09                         A6    C        13:38:15:13 13:38:18:03 01:09:41:01 01:09:43:16 
*FROM CLIP NAME:  9K2/01.SYNC.01 
*A6 VOL =  +4.0 DB  PAN L100 
*SOURCE FILE: 19Y08M09
002504  MSMMMOB.52                       V     C        13:38:16:05 13:38:20:12 01:09:41:18 01:09:46:00 
M2      MSMMMOB.52                                025.0 13:38:16:05 
*FROM CLIP NAME:  A059C008_190809_R32C 
*SOURCE FILE: MSMMMOB.52
002505  19Y08M09                         A     C        13:38:18:03 13:38:20:23 01:09:43:16 01:09:46:11 
*FROM CLIP NAME:  9K2/01.SYNC.01 
*SOURCE FILE: 19Y08M09
002506  MSMMMOB.52                       A2    C        13:38:18:03 13:38:20:23 01:09:43:16 01:09:46:11 
*FROM CLIP NAME:  A059C008_190809_R32C 
*SOURCE FILE: MSMMMOB.52
002507  19Y08M09                         A3    C        13:38:18:03 13:38:20:23 01:09:43:16 01:09:46:11 
*FROM CLIP NAME:  9K2/01.SYNC.01 
*SOURCE FILE: 19Y08M09
002508  19Y08M09                         A4    C        13:38:18:03 13:38:20:23 01:09:43:16 01:09:46:11 
*FROM CLIP NAME:  9K2/01.SYNC.01 
*SOURCE FILE: 19Y08M09
002509  19Y08M09                         A5    C        13:38:18:03 13:38:20:23 01:09:43:16 01:09:46:11 
*FROM CLIP NAME:  9K2/01.SYNC.01 
*SOURCE FILE: 19Y08M09
002510  19Y08M09                         A6    C        13:38:18:03 13:38:20:23 01:09:43:16 01:09:46:11 
*FROM CLIP NAME:  9K2/01.SYNC.01 
*SOURCE FILE: 19Y08M09
002511  MSMMMOB.48                       V     C        14:00:58:11 14:01:01:01 01:09:46:00 01:09:48:15 
M2      MSMMMOB.48                                025.0 14:00:58:11 
*FROM CLIP NAME:  A060C005_190809_R32C 
*SOURCE FILE: MSMMMOB.48
002512  19Y08M13                         A10   C        20:16:56:22 20:16:59:03 01:09:46:09 01:09:48:15 
*FROM CLIP NAME:  9AK1/02.SYNC.01 
*A10 VOL = -33.0 DB  PAN L100 
*EQ BAND 1 (LO SHELF) FREQ: 50.0 HZ  GAIN:  +0.0 DB  Q: 1410 
*EQ BAND 2 (PRESENCE) FREQ:500.0 HZ  GAIN: -11.9 DB  Q:  670 
*EQ BAND 3 (HI SHELF) FREQ: 15.0  KHZ  GAIN: -19.0 DB  Q: 1410 
*PATCH 19Y08M13:  FROM SOURCE 2 TO RECORD 10 
*SOURCE FILE: 19Y08M13
002513  19Y08M13                         A11   C        20:16:56:22 20:16:59:03 01:09:46:09 01:09:48:15 
*FROM CLIP NAME:  9AK1/02.SYNC.01 
*A11 VOL = -33.0 DB  PAN R100 
*EQ BAND 1 (LO SHELF) FREQ: 50.0 HZ  GAIN:  +0.0 DB  Q: 1410 
*EQ BAND 2 (PRESENCE) FREQ:345.0 HZ  GAIN:  -9.8 DB  Q:  670 
*EQ BAND 3 (HI SHELF) FREQ: 15.0  KHZ  GAIN: -19.5 DB  Q: 1410 
*PATCH 19Y08M13:  FROM SOURCE 1 TO RECORD 11 
*SOURCE FILE: 19Y08M13
002514  19Y08M09                         A     C        13:38:17:23 13:38:18:07 01:09:46:11 01:09:46:20 
*FROM CLIP NAME:  9K2/01.SYNC.01 
*PATCH 19Y08M09:  FROM SOURCE 3 TO RECORD 1 
*SOURCE FILE: 19Y08M09
002515  MSMMMOB.52                       A2    C        13:38:17:23 13:38:18:07 01:09:46:11 01:09:46:20 
*FROM CLIP NAME:  A059C008_190809_R32C 
*SOURCE FILE: MSMMMOB.52
002516  19Y08M09                         A3    C        13:38:17:23 13:38:18:07 01:09:46:11 01:09:46:20 
*FROM CLIP NAME:  9K2/01.SYNC.01 
*PATCH 19Y08M09:  FROM SOURCE 1 TO RECORD 3 
*SOURCE FILE: 19Y08M09
002517  19Y08M09                         A4    C        13:38:17:23 13:38:18:07 01:09:46:11 01:09:46:20 
*FROM CLIP NAME:  9K2/01.SYNC.01 
*SOURCE FILE: 19Y08M09
002518  19Y08M09                         A5    C        13:38:17:23 13:38:18:07 01:09:46:11 01:09:46:20 
*FROM CLIP NAME:  9K2/01.SYNC.01 
*SOURCE FILE: 19Y08M09
002519  19Y08M09                         A6    C        13:38:17:23 13:38:18:07 01:09:46:11 01:09:46:20 
*FROM CLIP NAME:  9K2/01.SYNC.01 
*SOURCE FILE: 19Y08M09
002520  19Y08M09                         A     C        14:00:59:06 14:01:00:23 01:09:46:20 01:09:48:12 
*FROM CLIP NAME:  9K5/01.SYNC.01 
*A1 VOL =  +5.0 DB  PAN R100 
*SOURCE FILE: 19Y08M09
002521  MSMMMOB.48                       A2    C        14:00:59:06 14:01:00:23 01:09:46:20 01:09:48:12 
*FROM CLIP NAME:  A060C005_190809_R32C 
*A2 VOL =  +5.0 DB  PAN L100 
*SOURCE FILE: MSMMMOB.48
002522  19Y08M09                         A3    C        14:00:59:06 14:01:00:23 01:09:46:20 01:09:48:12 
*FROM CLIP NAME:  9K5/01.SYNC.01 
*A3 VOL =  +5.0 DB  PAN R100 
*SOURCE FILE: 19Y08M09
002523  19Y08M09                         A4    C        14:00:59:06 14:01:00:23 01:09:46:20 01:09:48:12 
*FROM CLIP NAME:  9K5/01.SYNC.01 
*A4 VOL =  +5.0 DB  PAN L100 
*SOURCE FILE: 19Y08M09
002524  19Y08M09                         A5    C        14:00:59:06 14:01:00:23 01:09:46:20 01:09:48:12 
*FROM CLIP NAME:  9K5/01.SYNC.01 
*A5 VOL =  +5.0 DB  PAN R100 
*SOURCE FILE: 19Y08M09
002525  19Y08M09                         A6    C        14:00:59:06 14:01:00:23 01:09:46:20 01:09:48:12 
*FROM CLIP NAME:  9K5/01.SYNC.01 
*A6 VOL =  +5.0 DB  PAN L100 
*SOURCE FILE: 19Y08M09
002526  19Y08M09                         A     C        14:01:00:23 14:01:00:23 01:09:48:12 01:09:48:12 
002526  19Y08M09                         A     D    002 14:07:22:09 14:07:22:11 01:09:48:12 01:09:48:14 
*FROM CLIP NAME:  9K5/01.SYNC.01 
*TO CLIP NAME:  9K6/02.SYNC.01 
*A1 VOL =  +5.0 DB  PAN R100 
*A1 VOL =  +4.0 DB  PAN R100 
*SOURCE FILE: 19Y08M09
002527  MSMMMOB.48                       A2    C        14:01:00:23 14:01:00:23 01:09:48:12 01:09:48:12 
002527  MSMMMOB.27                       A2    D    002 14:07:22:09 14:07:22:11 01:09:48:12 01:09:48:14 
*FROM CLIP NAME:  A060C005_190809_R32C 
*TO CLIP NAME:  A060C007_190809_R32C 
*A2 VOL =  +5.0 DB  PAN L100 
*A2 VOL =  +4.0 DB  PAN L100 
*SOURCE FILE: MSMMMOB.48
002528  19Y08M09                         A3    C        14:01:00:23 14:01:00:23 01:09:48:12 01:09:48:12 
002528  19Y08M09                         A3    D    002 14:07:22:09 14:07:22:11 01:09:48:12 01:09:48:14 
*FROM CLIP NAME:  9K5/01.SYNC.01 
*TO CLIP NAME:  9K6/02.SYNC.01 
*A3 VOL =  +5.0 DB  PAN R100 
*A3 VOL =  +4.0 DB  PAN R100 
*SOURCE FILE: 19Y08M09
002529  19Y08M09                         A4    C        14:01:00:23 14:01:00:23 01:09:48:12 01:09:48:12 
002529  19Y08M09                         A4    D    002 14:07:22:09 14:07:22:11 01:09:48:12 01:09:48:14 
*FROM CLIP NAME:  9K5/01.SYNC.01 
*TO CLIP NAME:  9K6/02.SYNC.01 
*A4 VOL =  +5.0 DB  PAN L100 
*A4 VOL =  +4.0 DB  PAN L100 
*SOURCE FILE: 19Y08M09
002530  19Y08M09                         A5    C        14:01:00:23 14:01:00:23 01:09:48:12 01:09:48:12 
002530  19Y08M09                         A5    D    002 14:07:22:09 14:07:22:11 01:09:48:12 01:09:48:14 
*FROM CLIP NAME:  9K5/01.SYNC.01 
*TO CLIP NAME:  9K6/02.SYNC.01 
*A5 VOL =  +5.0 DB  PAN R100 
*A5 VOL =  +4.0 DB  PAN R100 
*SOURCE FILE: 19Y08M09
002531  19Y08M09                         A6    C        14:01:00:23 14:01:00:23 01:09:48:12 01:09:48:12 
002531  19Y08M09                         A6    D    002 14:07:22:09 14:07:22:11 01:09:48:12 01:09:48:14 
*FROM CLIP NAME:  9K5/01.SYNC.01 
*TO CLIP NAME:  9K6/02.SYNC.01 
*A6 VOL =  +5.0 DB  PAN L100 
*A6 VOL =  +4.0 DB  PAN L100 
*SOURCE FILE: 19Y08M09
002532  19Y08M09                         A     C        14:07:22:11 14:07:24:24 01:09:48:14 01:09:51:02 
*FROM CLIP NAME:  9K6/02.SYNC.01 
*A1 VOL =  +4.0 DB  PAN R100 
*SOURCE FILE: 19Y08M09
002533  MSMMMOB.27                       A2    C        14:07:22:11 14:07:24:24 01:09:48:14 01:09:51:02 
*FROM CLIP NAME:  A060C007_190809_R32C 
*A2 VOL =  +4.0 DB  PAN L100 
*SOURCE FILE: MSMMMOB.27
002534  19Y08M09                         A3    C        14:07:22:11 14:07:24:24 01:09:48:14 01:09:51:02 
*FROM CLIP NAME:  9K6/02.SYNC.01 
*A3 VOL =  +4.0 DB  PAN R100 
*SOURCE FILE: 19Y08M09
002535  19Y08M09                         A4    C        14:07:22:11 14:07:24:24 01:09:48:14 01:09:51:02 
*FROM CLIP NAME:  9K6/02.SYNC.01 
*A4 VOL =  +4.0 DB  PAN L100 
*SOURCE FILE: 19Y08M09
002536  19Y08M09                         A5    C        14:07:22:11 14:07:24:24 01:09:48:14 01:09:51:02 
*FROM CLIP NAME:  9K6/02.SYNC.01 
*A5 VOL =  +4.0 DB  PAN R100 
*SOURCE FILE: 19Y08M09
002537  19Y08M09                         A6    C        14:07:22:11 14:07:24:24 01:09:48:14 01:09:51:02 
*FROM CLIP NAME:  9K6/02.SYNC.01 
*A6 VOL =  +4.0 DB  PAN L100 
*SOURCE FILE: 19Y08M09
002538  MSMMMOB.20                       V     C        13:40:42:00 13:40:43:03 01:09:48:15 01:09:49:18 
M2      MSMMMOB.20                                025.0 13:40:42:00 
*FROM CLIP NAME:  A059C009_190809_R32C 
*SOURCE FILE: MSMMMOB.20
002539  19Y08M13                         A10   C        20:16:58:22 20:17:24:02 01:09:48:15 01:10:13:20 
*FROM CLIP NAME:  9AK1/02.SYNC.01 
*A10 VOL = -33.0 DB  PAN L100 
*EQ BAND 1 (LO SHELF) FREQ: 50.0 HZ  GAIN:  +0.0 DB  Q: 1410 
*EQ BAND 2 (PRESENCE) FREQ:500.0 HZ  GAIN: -11.9 DB  Q:  670 
*EQ BAND 3 (HI SHELF) FREQ: 15.0  KHZ  GAIN: -19.0 DB  Q: 1410 
*PATCH 19Y08M13:  FROM SOURCE 2 TO RECORD 10 
*SOURCE FILE: 19Y08M13
002540  19Y08M13                         A11   C        20:16:58:22 20:17:24:02 01:09:48:15 01:10:13:20 
*FROM CLIP NAME:  9AK1/02.SYNC.01 
*A11 VOL = -33.0 DB  PAN R100 
*EQ BAND 1 (LO SHELF) FREQ: 50.0 HZ  GAIN:  +0.0 DB  Q: 1410 
*EQ BAND 2 (PRESENCE) FREQ:345.0 HZ  GAIN:  -9.8 DB  Q:  670 
*EQ BAND 3 (HI SHELF) FREQ: 15.0  KHZ  GAIN: -19.5 DB  Q: 1410 
*PATCH 19Y08M13:  FROM SOURCE 1 TO RECORD 11 
*SOURCE FILE: 19Y08M13
002541  MSMMMOB.27                       V     C        14:07:23:15 14:07:24:20 01:09:49:18 01:09:50:23 
M2      MSMMMOB.27                                025.0 14:07:23:15 
*FROM CLIP NAME:  A060C007_190809_R32C 
*SOURCE FILE: MSMMMOB.27
002542  MSMMMOB.20                       V     C        13:40:45:18 13:40:49:09 01:09:50:23 01:09:54:14 
M2      MSMMMOB.20                                025.0 13:40:45:18 
*FROM CLIP NAME:  A059C009_190809_R32C 
*SOURCE FILE: MSMMMOB.20
002543  19Y08M09                         A     C        13:40:45:22 13:40:49:09 01:09:51:02 01:09:54:14 
*FROM CLIP NAME:  9K2/02.SYNC.01 
*A1 VOL =  +5.0 DB  PAN R100 
*SOURCE FILE: 19Y08M09
002544  MSMMMOB.20                       A2    C        13:40:45:22 13:40:49:09 01:09:51:02 01:09:54:14 
*FROM CLIP NAME:  A059C009_190809_R32C 
*A2 VOL =  +5.0 DB  PAN L100 
*SOURCE FILE: MSMMMOB.20
002545  19Y08M09                         A3    C        13:40:45:22 13:40:49:09 01:09:51:02 01:09:54:14 
*FROM CLIP NAME:  9K2/02.SYNC.01 
*A3 VOL =  +5.0 DB  PAN R100 
*SOURCE FILE: 19Y08M09
002546  19Y08M09                         A4    C        13:40:45:22 13:40:49:09 01:09:51:02 01:09:54:14 
*FROM CLIP NAME:  9K2/02.SYNC.01 
*A4 VOL =  +5.0 DB  PAN L100 
*SOURCE FILE: 19Y08M09
002547  19Y08M09                         A5    C        13:40:45:22 13:40:49:09 01:09:51:02 01:09:54:14 
*FROM CLIP NAME:  9K2/02.SYNC.01 
*A5 VOL =  +5.0 DB  PAN R100 
*SOURCE FILE: 19Y08M09
002548  19Y08M09                         A6    C        13:40:45:22 13:40:49:09 01:09:51:02 01:09:54:14 
*FROM CLIP NAME:  9K2/02.SYNC.01 
*A6 VOL =  +5.0 DB  PAN L100 
*SOURCE FILE: 19Y08M09
002549  19Y08M09                         A     C        13:40:49:07 13:40:50:11 01:09:54:14 01:09:55:18 
*FROM CLIP NAME:  9K2/02.SYNC.01 
*SOURCE FILE: 19Y08M09
002550  MSMMMOB.20                       A2    C        13:40:49:07 13:40:50:11 01:09:54:14 01:09:55:18 
*FROM CLIP NAME:  A059C009_190809_R32C 
*SOURCE FILE: MSMMMOB.20
002551  19Y08M09                         A3    C        13:40:49:07 13:40:50:11 01:09:54:14 01:09:55:18 
*FROM CLIP NAME:  9K2/02.SYNC.01 
*SOURCE FILE: 19Y08M09
002552  19Y08M09                         A4    C        13:40:49:07 13:40:50:11 01:09:54:14 01:09:55:18 
*FROM CLIP NAME:  9K2/02.SYNC.01 
*SOURCE FILE: 19Y08M09
002553  19Y08M09                         A5    C        13:40:49:07 13:40:50:11 01:09:54:14 01:09:55:18 
*FROM CLIP NAME:  9K2/02.SYNC.01 
*SOURCE FILE: 19Y08M09
002554  19Y08M09                         A6    C        13:40:49:07 13:40:50:11 01:09:54:14 01:09:55:18 
*FROM CLIP NAME:  9K2/02.SYNC.01 
*SOURCE FILE: 19Y08M09
002555  MSMMMOB.48                       V     C        14:01:05:13 14:01:07:08 01:09:54:14 01:09:56:09 
M2      MSMMMOB.48                                025.0 14:01:05:13 
*FROM CLIP NAME:  A060C005_190809_R32C 
*SOURCE FILE: MSMMMOB.48
002556  19Y08M09                         A     C        13:40:51:02 13:40:54:14 01:09:55:18 01:09:59:05 
*FROM CLIP NAME:  9K2/02.SYNC.01 
*A1 VOL =  +4.0 DB  PAN R100 
*SOURCE FILE: 19Y08M09
002557  MSMMMOB.20                       A2    C        13:40:51:02 13:40:54:14 01:09:55:18 01:09:59:05 
*FROM CLIP NAME:  A059C009_190809_R32C 
*A2 VOL =  +4.0 DB  PAN L100 
*SOURCE FILE: MSMMMOB.20
002558  19Y08M09                         A3    C        13:40:51:02 13:40:54:14 01:09:55:18 01:09:59:05 
*FROM CLIP NAME:  9K2/02.SYNC.01 
*A3 VOL =  +4.0 DB  PAN R100 
*SOURCE FILE: 19Y08M09
002559  19Y08M09                         A4    C        13:40:51:02 13:40:54:14 01:09:55:18 01:09:59:05 
*FROM CLIP NAME:  9K2/02.SYNC.01 
*A4 VOL =  +4.0 DB  PAN L100 
*SOURCE FILE: 19Y08M09
002560  19Y08M09                         A5    C        13:40:51:02 13:40:54:14 01:09:55:18 01:09:59:05 
*FROM CLIP NAME:  9K2/02.SYNC.01 
*A5 VOL =  +4.0 DB  PAN R100 
*SOURCE FILE: 19Y08M09
002561  19Y08M09                         A6    C        13:40:51:02 13:40:54:14 01:09:55:18 01:09:59:05 
*FROM CLIP NAME:  9K2/02.SYNC.01 
*A6 VOL =  +4.0 DB  PAN L100 
*SOURCE FILE: 19Y08M09
002562  MSMMMOB.20                       V     C        13:40:51:18 13:40:54:14 01:09:56:09 01:09:59:05 
M2      MSMMMOB.20                                025.0 13:40:51:18 
*FROM CLIP NAME:  A059C009_190809_R32C 
*SOURCE FILE: MSMMMOB.20
002563  MSMMMOB.48                       V     C        14:01:09:09 14:01:12:22 01:09:59:05 01:10:02:18 
M2      MSMMMOB.48                                025.0 14:01:09:09 
*FROM CLIP NAME:  A060C005_190809_R32C 
*SOURCE FILE: MSMMMOB.48
002564  19Y08M09                         A     C        14:01:09:09 14:01:12:22 01:09:59:05 01:10:02:18 
*FROM CLIP NAME:  9K5/01.SYNC.01 
*SOURCE FILE: 19Y08M09
002565  MSMMMOB.48                       A2    C        14:01:09:09 14:01:12:22 01:09:59:05 01:10:02:18 
*FROM CLIP NAME:  A060C005_190809_R32C 
*SOURCE FILE: MSMMMOB.48
002566  19Y08M09                         A3    C        14:01:09:09 14:01:12:22 01:09:59:05 01:10:02:18 
*FROM CLIP NAME:  9K5/01.SYNC.01 
*SOURCE FILE: 19Y08M09
002567  19Y08M09                         A4    C        14:01:09:09 14:01:12:22 01:09:59:05 01:10:02:18 
*FROM CLIP NAME:  9K5/01.SYNC.01 
*SOURCE FILE: 19Y08M09
002568  19Y08M09                         A5    C        14:01:09:09 14:01:12:22 01:09:59:05 01:10:02:18 
*FROM CLIP NAME:  9K5/01.SYNC.01 
*SOURCE FILE: 19Y08M09
002569  19Y08M09                         A6    C        14:01:09:09 14:01:12:22 01:09:59:05 01:10:02:18 
*FROM CLIP NAME:  9K5/01.SYNC.01 
*SOURCE FILE: 19Y08M09
002570  MSMMMOB.20                       V     C        13:41:02:23 13:41:05:03 01:10:02:18 01:10:04:23 
M2      MSMMMOB.20                                025.0 13:41:02:23 
*FROM CLIP NAME:  A059C009_190809_R32C 
*SOURCE FILE: MSMMMOB.20
002571  19Y08M09                         A     C        13:41:02:23 13:41:05:03 01:10:02:18 01:10:04:23 
*FROM CLIP NAME:  9K2/02.SYNC.01 
*SOURCE FILE: 19Y08M09
002572  MSMMMOB.20                       A2    C        13:41:02:23 13:41:05:03 01:10:02:18 01:10:04:23 
*FROM CLIP NAME:  A059C009_190809_R32C 
*SOURCE FILE: MSMMMOB.20
002573  19Y08M09                         A3    C        13:41:02:23 13:41:05:03 01:10:02:18 01:10:04:23 
*FROM CLIP NAME:  9K2/02.SYNC.01 
*SOURCE FILE: 19Y08M09
002574  19Y08M09                         A4    C        13:41:02:23 13:41:05:03 01:10:02:18 01:10:04:23 
*FROM CLIP NAME:  9K2/02.SYNC.01 
*SOURCE FILE: 19Y08M09
002575  19Y08M09                         A5    C        13:41:02:23 13:41:05:03 01:10:02:18 01:10:04:23 
*FROM CLIP NAME:  9K2/02.SYNC.01 
*SOURCE FILE: 19Y08M09
002576  19Y08M09                         A6    C        13:41:02:23 13:41:05:03 01:10:02:18 01:10:04:23 
*FROM CLIP NAME:  9K2/02.SYNC.01 
*SOURCE FILE: 19Y08M09
002577  19Y08M09                         A     C        13:29:56:04 13:29:56:14 01:10:04:23 01:10:05:08 
*FROM CLIP NAME:  9K1/03.SYNC.01 
*SOURCE FILE: 19Y08M09
002578  MSMMMOB.47                       A2    C        13:29:56:04 13:29:56:14 01:10:04:23 01:10:05:08 
*FROM CLIP NAME:  A059C006_190809_R32C 
*SOURCE FILE: MSMMMOB.47
002579  19Y08M09                         A3    C        13:29:56:04 13:29:56:14 01:10:04:23 01:10:05:08 
*FROM CLIP NAME:  9K1/03.SYNC.01 
*SOURCE FILE: 19Y08M09
002580  19Y08M09                         A4    C        13:29:56:04 13:29:56:14 01:10:04:23 01:10:05:08 
*FROM CLIP NAME:  9K1/03.SYNC.01 
*SOURCE FILE: 19Y08M09
002581  19Y08M09                         A5    C        13:29:56:04 13:29:56:14 01:10:04:23 01:10:05:08 
*FROM CLIP NAME:  9K1/03.SYNC.01 
*SOURCE FILE: 19Y08M09
002582  19Y08M09                         A6    C        13:29:56:04 13:29:56:14 01:10:04:23 01:10:05:08 
*FROM CLIP NAME:  9K1/03.SYNC.01 
*SOURCE FILE: 19Y08M09
002583  MSMMMOB.27                       V     C        14:07:36:10 14:07:38:14 01:10:04:23 01:10:07:02 
M2      MSMMMOB.27                                025.0 14:07:36:10 
*FROM CLIP NAME:  A060C007_190809_R32C 
*SOURCE FILE: MSMMMOB.27
002584  19Y08M09                         A     C        14:07:36:20 14:07:38:14 01:10:05:08 01:10:07:02 
*FROM CLIP NAME:  9K6/02.SYNC.01 
*SOURCE FILE: 19Y08M09
002585  MSMMMOB.27                       A2    C        14:07:36:20 14:07:38:14 01:10:05:08 01:10:07:02 
*FROM CLIP NAME:  A060C007_190809_R32C 
*SOURCE FILE: MSMMMOB.27
002586  19Y08M09                         A3    C        14:07:36:20 14:07:38:14 01:10:05:08 01:10:07:02 
*FROM CLIP NAME:  9K6/02.SYNC.01 
*SOURCE FILE: 19Y08M09
002587  19Y08M09                         A4    C        14:07:36:20 14:07:38:14 01:10:05:08 01:10:07:02 
*FROM CLIP NAME:  9K6/02.SYNC.01 
*SOURCE FILE: 19Y08M09
002588  19Y08M09                         A5    C        14:07:36:20 14:07:38:14 01:10:05:08 01:10:07:02 
*FROM CLIP NAME:  9K6/02.SYNC.01 
*SOURCE FILE: 19Y08M09
002589  19Y08M09                         A6    C        14:07:36:20 14:07:38:14 01:10:05:08 01:10:07:02 
*FROM CLIP NAME:  9K6/02.SYNC.01 
*SOURCE FILE: 19Y08M09
002590  MSMMMOB.34                       V     C        13:59:23:12 13:59:24:17 01:10:07:02 01:10:08:07 
M2      MSMMMOB.34                                025.0 13:59:23:12 
*FROM CLIP NAME:  A060C004_190809_R32C 
*SOURCE FILE: MSMMMOB.34
002591  19Y08M09                         A     C        13:59:23:12 13:59:24:19 01:10:07:02 01:10:08:09 
*FROM CLIP NAME:  9K4/03.SYNC.01 
*SOURCE FILE: 19Y08M09
002592  MSMMMOB.34                       A2    C        13:59:23:12 13:59:24:19 01:10:07:02 01:10:08:09 
*FROM CLIP NAME:  A060C004_190809_R32C 
*SOURCE FILE: MSMMMOB.34
002593  19Y08M09                         A3    C        13:59:23:12 13:59:24:19 01:10:07:02 01:10:08:09 
*FROM CLIP NAME:  9K4/03.SYNC.01 
*SOURCE FILE: 19Y08M09
002594  19Y08M09                         A4    C        13:59:23:12 13:59:24:19 01:10:07:02 01:10:08:09 
*FROM CLIP NAME:  9K4/03.SYNC.01 
*SOURCE FILE: 19Y08M09
002595  19Y08M09                         A5    C        13:59:23:12 13:59:24:19 01:10:07:02 01:10:08:09 
*FROM CLIP NAME:  9K4/03.SYNC.01 
*SOURCE FILE: 19Y08M09
002596  19Y08M09                         A6    C        13:59:23:12 13:59:24:19 01:10:07:02 01:10:08:09 
*FROM CLIP NAME:  9K4/03.SYNC.01 
*SOURCE FILE: 19Y08M09
002597  MSMMMOB.20                       V     C        13:41:07:18 13:41:10:18 01:10:08:07 01:10:11:07 
M2      MSMMMOB.20                                025.0 13:41:07:18 
*FROM CLIP NAME:  A059C009_190809_R32C 
*SOURCE FILE: MSMMMOB.20
002598  19Y08M09                         A     C        13:41:07:20 13:41:11:18 01:10:08:09 01:10:12:07 
*FROM CLIP NAME:  9K2/02.SYNC.01 
*SOURCE FILE: 19Y08M09
002599  MSMMMOB.20                       A2    C        13:41:07:20 13:41:11:18 01:10:08:09 01:10:12:07 
*FROM CLIP NAME:  A059C009_190809_R32C 
*SOURCE FILE: MSMMMOB.20
002600  19Y08M09                         A3    C        13:41:07:20 13:41:11:18 01:10:08:09 01:10:12:07 
*FROM CLIP NAME:  9K2/02.SYNC.01 
*SOURCE FILE: 19Y08M09
002601  19Y08M09                         A4    C        13:41:07:20 13:41:11:18 01:10:08:09 01:10:12:07 
*FROM CLIP NAME:  9K2/02.SYNC.01 
*SOURCE FILE: 19Y08M09
002602  19Y08M09                         A5    C        13:41:07:20 13:41:11:18 01:10:08:09 01:10:12:07 
*FROM CLIP NAME:  9K2/02.SYNC.01 
*SOURCE FILE: 19Y08M09
002603  19Y08M09                         A6    C        13:41:07:20 13:41:11:18 01:10:08:09 01:10:12:07 
*FROM CLIP NAME:  9K2/02.SYNC.01 
*SOURCE FILE: 19Y08M09
002604  MSMMMOB.48                       V     C        14:00:18:21 14:00:21:09 01:10:11:07 01:10:13:20 
M2      MSMMMOB.48                                025.0 14:00:18:21 
*FROM CLIP NAME:  A060C005_190809_R32C 
*SOURCE FILE: MSMMMOB.48
002605  19Y08M09                         A     C        13:41:17:05 13:41:18:11 01:10:12:07 01:10:13:13 
*FROM CLIP NAME:  9K2/02.SYNC.01 
*SOURCE FILE: 19Y08M09
002606  MSMMMOB.20                       A2    C        13:41:17:05 13:41:18:11 01:10:12:07 01:10:13:13 
*FROM CLIP NAME:  A059C009_190809_R32C 
*SOURCE FILE: MSMMMOB.20
002607  19Y08M09                         A3    C        13:41:17:05 13:41:18:11 01:10:12:07 01:10:13:13 
*FROM CLIP NAME:  9K2/02.SYNC.01 
*SOURCE FILE: 19Y08M09
002608  19Y08M09                         A4    C        13:41:17:05 13:41:18:11 01:10:12:07 01:10:13:13 
*FROM CLIP NAME:  9K2/02.SYNC.01 
*SOURCE FILE: 19Y08M09
002609  19Y08M09                         A5    C        13:41:17:05 13:41:18:11 01:10:12:07 01:10:13:13 
*FROM CLIP NAME:  9K2/02.SYNC.01 
*SOURCE FILE: 19Y08M09
002610  19Y08M09                         A6    C        13:41:17:05 13:41:18:11 01:10:12:07 01:10:13:13 
*FROM CLIP NAME:  9K2/02.SYNC.01 
*SOURCE FILE: 19Y08M09
002611  19Y08M09                         A     C        13:41:17:05 13:41:17:12 01:10:13:13 01:10:13:20 
*FROM CLIP NAME:  9K2/02.SYNC.01 
*SOURCE FILE: 19Y08M09
002612  MSMMMOB.20                       A2    C        13:41:17:05 13:41:17:12 01:10:13:13 01:10:13:20 
*FROM CLIP NAME:  A059C009_190809_R32C 
*SOURCE FILE: MSMMMOB.20
002613  19Y08M09                         A3    C        13:41:17:05 13:41:17:12 01:10:13:13 01:10:13:20 
*FROM CLIP NAME:  9K2/02.SYNC.01 
*SOURCE FILE: 19Y08M09
002614  19Y08M09                         A4    C        13:41:17:05 13:41:17:12 01:10:13:13 01:10:13:20 
*FROM CLIP NAME:  9K2/02.SYNC.01 
*SOURCE FILE: 19Y08M09
002615  19Y08M09                         A5    C        13:41:17:05 13:41:17:12 01:10:13:13 01:10:13:20 
*FROM CLIP NAME:  9K2/02.SYNC.01 
*SOURCE FILE: 19Y08M09
002616  19Y08M09                         A6    C        13:41:17:05 13:41:17:12 01:10:13:13 01:10:13:20 
*FROM CLIP NAME:  9K2/02.SYNC.01 
*SOURCE FILE: 19Y08M09
002617  19Y08M09                         A     C        16:19:10:12 16:19:11:16 01:10:13:20 01:10:14:24 
*FROM CLIP NAME:  10K4/01.SYNC.01 
*PATCH 19Y08M09:  FROM SOURCE 3 TO RECORD 1 
*SOURCE FILE: 19Y08M09
002618  19Y08M09                         A2    C        16:19:10:12 16:19:11:16 01:10:13:20 01:10:14:24 
*FROM CLIP NAME:  10K4/01.SYNC.01 
*PATCH 19Y08M09:  FROM SOURCE 4 TO RECORD 2 
*SOURCE FILE: 19Y08M09
002619  19Y08M09                         A3    C        16:19:10:12 16:19:11:16 01:10:13:20 01:10:14:24 
*FROM CLIP NAME:  10K4/01.SYNC.01 
*PATCH 19Y08M09:  FROM SOURCE 5 TO RECORD 3 
*SOURCE FILE: 19Y08M09
002620  19Y08M09                         A4    C        16:19:10:12 16:19:11:16 01:10:13:20 01:10:14:24 
*FROM CLIP NAME:  10K4/01.SYNC.01 
*PATCH 19Y08M09:  FROM SOURCE 6 TO RECORD 4 
*SOURCE FILE: 19Y08M09
002621  MSMMMOB.33                       V     C        16:19:10:12 16:19:12:02 01:10:13:20 01:10:15:10 
M2      MSMMMOB.33                                025.0 16:19:10:12 
*FROM CLIP NAME:  A061C006_190809_R32C 
*SOURCE FILE: MSMMMOB.33
002622  19Y08M09                         A     C        16:19:11:16 16:19:11:16 01:10:14:24 01:10:14:24 
002622  19Y08M09                         A     D    002 16:13:03:03 16:13:03:05 01:10:14:24 01:10:15:01 
*FROM CLIP NAME:  10K4/01.SYNC.01 
*TO CLIP NAME:  10K3/03.SYNC.01 
*PATCH 19Y08M09:  FROM SOURCE 3 TO RECORD 1 
*SOURCE FILE: 19Y08M09
002623  19Y08M09                         A2    C        16:19:11:16 16:19:11:16 01:10:14:24 01:10:14:24 
002623  MSMMMOB.05                       A2    D    002 16:13:03:03 16:13:03:05 01:10:14:24 01:10:15:01 
*FROM CLIP NAME:  10K4/01.SYNC.01 
*TO CLIP NAME:  A061C005_190809_R32C 
*PATCH 19Y08M09:  FROM SOURCE 4 TO RECORD 2 
*SOURCE FILE: 19Y08M09
002624  19Y08M09                         A3    C        16:19:11:16 16:19:11:16 01:10:14:24 01:10:14:24 
002624  19Y08M09                         A3    D    002 16:13:03:03 16:13:03:05 01:10:14:24 01:10:15:01 
*FROM CLIP NAME:  10K4/01.SYNC.01 
*TO CLIP NAME:  10K3/03.SYNC.01 
*PATCH 19Y08M09:  FROM SOURCE 5 TO RECORD 3 
*SOURCE FILE: 19Y08M09
002625  19Y08M09                         A4    C        16:19:11:16 16:19:11:16 01:10:14:24 01:10:14:24 
002625  19Y08M09                         A4    D    002 16:13:03:03 16:13:03:05 01:10:14:24 01:10:15:01 
*FROM CLIP NAME:  10K4/01.SYNC.01 
*TO CLIP NAME:  10K3/03.SYNC.01 
*PATCH 19Y08M09:  FROM SOURCE 6 TO RECORD 4 
*SOURCE FILE: 19Y08M09
002626  BL                               A5    C        00:00:00:00 00:00:00:00 01:10:14:24 01:10:14:24 
002626  19Y08M09                         A5    D    002 16:13:03:03 16:13:03:05 01:10:14:24 01:10:15:01 
*TO CLIP NAME:  10K3/03.SYNC.01 
*SOURCE FILE: (NULL)
002627  BL                               A6    C        00:00:00:00 00:00:00:00 01:10:14:24 01:10:14:24 
002627  19Y08M09                         A6    D    002 16:13:03:03 16:13:03:05 01:10:14:24 01:10:15:01 
*TO CLIP NAME:  10K3/03.SYNC.01 
*SOURCE FILE: (NULL)
002628  19Y08M09                         A     C        16:13:03:05 16:13:06:09 01:10:15:01 01:10:18:05 
*FROM CLIP NAME:  10K3/03.SYNC.01 
*SOURCE FILE: 19Y08M09
002629  MSMMMOB.05                       A2    C        16:13:03:05 16:13:06:09 01:10:15:01 01:10:18:05 
*FROM CLIP NAME:  A061C005_190809_R32C 
*SOURCE FILE: MSMMMOB.05
002630  19Y08M09                         A3    C        16:13:03:05 16:13:06:09 01:10:15:01 01:10:18:05 
*FROM CLIP NAME:  10K3/03.SYNC.01 
*SOURCE FILE: 19Y08M09
002631  19Y08M09                         A4    C        16:13:03:05 16:13:06:09 01:10:15:01 01:10:18:05 
*FROM CLIP NAME:  10K3/03.SYNC.01 
*SOURCE FILE: 19Y08M09
002632  19Y08M09                         A5    C        16:13:03:05 16:13:06:09 01:10:15:01 01:10:18:05 
*FROM CLIP NAME:  10K3/03.SYNC.01 
*SOURCE FILE: 19Y08M09
002633  19Y08M09                         A6    C        16:13:03:05 16:13:06:09 01:10:15:01 01:10:18:05 
*FROM CLIP NAME:  10K3/03.SYNC.01 
*SOURCE FILE: 19Y08M09
002634  MSMMMOB.05                       V     C        16:13:03:14 16:13:06:19 01:10:15:10 01:10:18:15 
M2      MSMMMOB.05                                025.0 16:13:03:14 
*FROM CLIP NAME:  A061C005_190809_R32C 
*SOURCE FILE: MSMMMOB.05
002635  19Y08M09                         A     C        16:13:06:09 16:13:06:09 01:10:18:05 01:10:18:05 
002635  19Y08M09                         A     D    002 15:58:27:10 15:58:27:12 01:10:18:05 01:10:18:07 
*FROM CLIP NAME:  10K3/03.SYNC.01 
*TO CLIP NAME:  10K2/02.SYNC.01 
*SOURCE FILE: 19Y08M09
002636  MSMMMOB.05                       A2    C        16:13:06:09 16:13:06:09 01:10:18:05 01:10:18:05 
002636  MSMMMOB.13                       A2    D    002 15:58:27:10 15:58:27:12 01:10:18:05 01:10:18:07 
*FROM CLIP NAME:  A061C005_190809_R32C 
*TO CLIP NAME:  A061C002_190809_R32C 
*SOURCE FILE: MSMMMOB.05
002637  19Y08M09                         A3    C        16:13:06:09 16:13:06:09 01:10:18:05 01:10:18:05 
002637  19Y08M09                         A3    D    002 15:58:27:10 15:58:27:12 01:10:18:05 01:10:18:07 
*FROM CLIP NAME:  10K3/03.SYNC.01 
*TO CLIP NAME:  10K2/02.SYNC.01 
*SOURCE FILE: 19Y08M09
002638  19Y08M09                         A4    C        16:13:06:09 16:13:06:09 01:10:18:05 01:10:18:05 
002638  19Y08M09                         A4    D    002 15:58:27:10 15:58:27:12 01:10:18:05 01:10:18:07 
*FROM CLIP NAME:  10K3/03.SYNC.01 
*TO CLIP NAME:  10K2/02.SYNC.01 
*SOURCE FILE: 19Y08M09
002639  19Y08M09                         A5    C        16:13:06:09 16:13:06:09 01:10:18:05 01:10:18:05 
002639  19Y08M09                         A5    D    002 15:58:27:10 15:58:27:12 01:10:18:05 01:10:18:07 
*FROM CLIP NAME:  10K3/03.SYNC.01 
*TO CLIP NAME:  10K2/02.SYNC.01 
*SOURCE FILE: 19Y08M09
002640  19Y08M09                         A6    C        16:13:06:09 16:13:06:09 01:10:18:05 01:10:18:05 
002640  19Y08M09                         A6    D    002 15:58:27:10 15:58:27:12 01:10:18:05 01:10:18:07 
*FROM CLIP NAME:  10K3/03.SYNC.01 
*TO CLIP NAME:  10K2/02.SYNC.01 
*SOURCE FILE: 19Y08M09
002641  19Y08M09                         A     C        15:58:27:12 15:58:31:05 01:10:18:07 01:10:22:00 
*FROM CLIP NAME:  10K2/02.SYNC.01 
*SOURCE FILE: 19Y08M09
002642  MSMMMOB.13                       A2    C        15:58:27:12 15:58:31:05 01:10:18:07 01:10:22:00 
*FROM CLIP NAME:  A061C002_190809_R32C 
*SOURCE FILE: MSMMMOB.13
002643  19Y08M09                         A3    C        15:58:27:12 15:58:31:05 01:10:18:07 01:10:22:00 
*FROM CLIP NAME:  10K2/02.SYNC.01 
*SOURCE FILE: 19Y08M09
002644  19Y08M09                         A4    C        15:58:27:12 15:58:31:05 01:10:18:07 01:10:22:00 
*FROM CLIP NAME:  10K2/02.SYNC.01 
*SOURCE FILE: 19Y08M09
002645  19Y08M09                         A5    C        15:58:27:12 15:58:31:05 01:10:18:07 01:10:22:00 
*FROM CLIP NAME:  10K2/02.SYNC.01 
*SOURCE FILE: 19Y08M09
002646  19Y08M09                         A6    C        15:58:27:12 15:58:31:05 01:10:18:07 01:10:22:00 
*FROM CLIP NAME:  10K2/02.SYNC.01 
*SOURCE FILE: 19Y08M09
002647  MSMMMOB.13                       V     C        15:58:27:20 15:58:31:06 01:10:18:15 01:10:22:01 
M2      MSMMMOB.13                                025.0 15:58:27:20 
*FROM CLIP NAME:  A061C002_190809_R32C 
*SOURCE FILE: MSMMMOB.13
002648  19Y08M09                         A     C        15:58:31:05 15:58:31:05 01:10:22:00 01:10:22:00 
002648  19Y08M09                         A     D    002 16:13:10:24 16:13:11:01 01:10:22:00 01:10:22:02 
*FROM CLIP NAME:  10K2/02.SYNC.01 
*TO CLIP NAME:  10K3/03.SYNC.01 
*SOURCE FILE: 19Y08M09
002649  MSMMMOB.13                       A2    C        15:58:31:05 15:58:31:05 01:10:22:00 01:10:22:00 
002649  MSMMMOB.05                       A2    D    002 16:13:10:24 16:13:11:01 01:10:22:00 01:10:22:02 
*FROM CLIP NAME:  A061C002_190809_R32C 
*TO CLIP NAME:  A061C005_190809_R32C 
*SOURCE FILE: MSMMMOB.13
002650  19Y08M09                         A3    C        15:58:31:05 15:58:31:05 01:10:22:00 01:10:22:00 
002650  19Y08M09                         A3    D    002 16:13:10:24 16:13:11:01 01:10:22:00 01:10:22:02 
*FROM CLIP NAME:  10K2/02.SYNC.01 
*TO CLIP NAME:  10K3/03.SYNC.01 
*SOURCE FILE: 19Y08M09
002651  19Y08M09                         A4    C        15:58:31:05 15:58:31:05 01:10:22:00 01:10:22:00 
002651  19Y08M09                         A4    D    002 16:13:10:24 16:13:11:01 01:10:22:00 01:10:22:02 
*FROM CLIP NAME:  10K2/02.SYNC.01 
*TO CLIP NAME:  10K3/03.SYNC.01 
*SOURCE FILE: 19Y08M09
002652  19Y08M09                         A5    C        15:58:31:05 15:58:31:05 01:10:22:00 01:10:22:00 
002652  19Y08M09                         A5    D    002 16:13:10:24 16:13:11:01 01:10:22:00 01:10:22:02 
*FROM CLIP NAME:  10K2/02.SYNC.01 
*TO CLIP NAME:  10K3/03.SYNC.01 
*SOURCE FILE: 19Y08M09
002653  19Y08M09                         A6    C        15:58:31:05 15:58:31:05 01:10:22:00 01:10:22:00 
002653  19Y08M09                         A6    D    002 16:13:10:24 16:13:11:01 01:10:22:00 01:10:22:02 
*FROM CLIP NAME:  10K2/02.SYNC.01 
*TO CLIP NAME:  10K3/03.SYNC.01 
*SOURCE FILE: 19Y08M09
002654  MSMMMOB.05                       V     C        16:13:11:00 16:13:14:02 01:10:22:01 01:10:25:03 
M2      MSMMMOB.05                                025.0 16:13:11:00 
*FROM CLIP NAME:  A061C005_190809_R32C 
*SOURCE FILE: MSMMMOB.05
002655  19Y08M09                         A     C        16:13:11:01 16:13:14:20 01:10:22:02 01:10:25:21 
*FROM CLIP NAME:  10K3/03.SYNC.01 
*SOURCE FILE: 19Y08M09
002656  MSMMMOB.05                       A2    C        16:13:11:01 16:13:14:20 01:10:22:02 01:10:25:21 
*FROM CLIP NAME:  A061C005_190809_R32C 
*SOURCE FILE: MSMMMOB.05
002657  19Y08M09                         A3    C        16:13:11:01 16:13:14:20 01:10:22:02 01:10:25:21 
*FROM CLIP NAME:  10K3/03.SYNC.01 
*SOURCE FILE: 19Y08M09
002658  19Y08M09                         A4    C        16:13:11:01 16:13:14:20 01:10:22:02 01:10:25:21 
*FROM CLIP NAME:  10K3/03.SYNC.01 
*SOURCE FILE: 19Y08M09
002659  19Y08M09                         A5    C        16:13:11:01 16:13:14:20 01:10:22:02 01:10:25:21 
*FROM CLIP NAME:  10K3/03.SYNC.01 
*SOURCE FILE: 19Y08M09
002660  19Y08M09                         A6    C        16:13:11:01 16:13:14:20 01:10:22:02 01:10:25:21 
*FROM CLIP NAME:  10K3/03.SYNC.01 
*SOURCE FILE: 19Y08M09
002661  MSMMMOB.33                       V     C        16:19:32:05 16:19:33:04 01:10:25:03 01:10:26:02 
M2      MSMMMOB.33                                025.0 16:19:32:05 
*FROM CLIP NAME:  A061C006_190809_R32C 
*SOURCE FILE: MSMMMOB.33
002662  19Y08M09                         A     C        16:13:14:20 16:13:14:20 01:10:25:21 01:10:25:21 
002662  19Y08M09                         A     D    002 16:08:21:13 16:08:21:15 01:10:25:21 01:10:25:23 
*FROM CLIP NAME:  10K3/03.SYNC.01 
*TO CLIP NAME:  10K3/01.SYNC.01 
*SOURCE FILE: 19Y08M09
002663  MSMMMOB.05                       A2    C        16:13:14:20 16:13:14:20 01:10:25:21 01:10:25:21 
002663  MSMMMOB.22                       A2    D    002 16:08:21:13 16:08:21:15 01:10:25:21 01:10:25:23 
*FROM CLIP NAME:  A061C005_190809_R32C 
*TO CLIP NAME:  A061C003_190809_R32C 
*SOURCE FILE: MSMMMOB.05
002664  19Y08M09                         A3    C        16:13:14:20 16:13:14:20 01:10:25:21 01:10:25:21 
002664  19Y08M09                         A3    D    002 16:08:21:13 16:08:21:15 01:10:25:21 01:10:25:23 
*FROM CLIP NAME:  10K3/03.SYNC.01 
*TO CLIP NAME:  10K3/01.SYNC.01 
*SOURCE FILE: 19Y08M09
002665  19Y08M09                         A4    C        16:13:14:20 16:13:14:20 01:10:25:21 01:10:25:21 
002665  19Y08M09                         A4    D    002 16:08:21:13 16:08:21:15 01:10:25:21 01:10:25:23 
*FROM CLIP NAME:  10K3/03.SYNC.01 
*TO CLIP NAME:  10K3/01.SYNC.01 
*SOURCE FILE: 19Y08M09
002666  19Y08M09                         A5    C        16:13:14:20 16:13:14:20 01:10:25:21 01:10:25:21 
002666  19Y08M09                         A5    D    002 16:08:21:13 16:08:21:15 01:10:25:21 01:10:25:23 
*FROM CLIP NAME:  10K3/03.SYNC.01 
*TO CLIP NAME:  10K3/01.SYNC.01 
*SOURCE FILE: 19Y08M09
002667  19Y08M09                         A6    C        16:13:14:20 16:13:14:20 01:10:25:21 01:10:25:21 
002667  19Y08M09                         A6    D    002 16:08:21:13 16:08:21:15 01:10:25:21 01:10:25:23 
*FROM CLIP NAME:  10K3/03.SYNC.01 
*TO CLIP NAME:  10K3/01.SYNC.01 
*SOURCE FILE: 19Y08M09
002668  19Y08M09                         A     C        16:08:21:15 16:08:22:16 01:10:25:23 01:10:26:24 
*FROM CLIP NAME:  10K3/01.SYNC.01 
*SOURCE FILE: 19Y08M09
002669  MSMMMOB.22                       A2    C        16:08:21:15 16:08:22:16 01:10:25:23 01:10:26:24 
*FROM CLIP NAME:  A061C003_190809_R32C 
*SOURCE FILE: MSMMMOB.22
002670  19Y08M09                         A3    C        16:08:21:15 16:08:22:16 01:10:25:23 01:10:26:24 
*FROM CLIP NAME:  10K3/01.SYNC.01 
*SOURCE FILE: 19Y08M09
002671  19Y08M09                         A4    C        16:08:21:15 16:08:22:16 01:10:25:23 01:10:26:24 
*FROM CLIP NAME:  10K3/01.SYNC.01 
*SOURCE FILE: 19Y08M09
002672  19Y08M09                         A5    C        16:08:21:15 16:08:22:16 01:10:25:23 01:10:26:24 
*FROM CLIP NAME:  10K3/01.SYNC.01 
*SOURCE FILE: 19Y08M09
002673  19Y08M09                         A6    C        16:08:21:15 16:08:22:16 01:10:25:23 01:10:26:24 
*FROM CLIP NAME:  10K3/01.SYNC.01 
*SOURCE FILE: 19Y08M09
002674  MSMMMOB.22                       V     C        16:08:21:19 16:08:23:05 01:10:26:02 01:10:27:13 
M2      MSMMMOB.22                                025.0 16:08:21:19 
*FROM CLIP NAME:  A061C003_190809_R32C 
*SOURCE FILE: MSMMMOB.22
002675  19Y08M09                         A     C        16:13:15:22 16:13:16:23 01:10:26:24 01:10:28:00 
*FROM CLIP NAME:  10K3/03.SYNC.01 
*SOURCE FILE: 19Y08M09
002676  MSMMMOB.05                       A2    C        16:13:15:22 16:13:16:23 01:10:26:24 01:10:28:00 
*FROM CLIP NAME:  A061C005_190809_R32C 
*SOURCE FILE: MSMMMOB.05
002677  19Y08M09                         A3    C        16:13:15:22 16:13:16:23 01:10:26:24 01:10:28:00 
*FROM CLIP NAME:  10K3/03.SYNC.01 
*SOURCE FILE: 19Y08M09
002678  19Y08M09                         A4    C        16:13:15:22 16:13:16:23 01:10:26:24 01:10:28:00 
*FROM CLIP NAME:  10K3/03.SYNC.01 
*SOURCE FILE: 19Y08M09
002679  19Y08M09                         A5    C        16:13:15:22 16:13:16:23 01:10:26:24 01:10:28:00 
*FROM CLIP NAME:  10K3/03.SYNC.01 
*SOURCE FILE: 19Y08M09
002680  19Y08M09                         A6    C        16:13:15:22 16:13:16:23 01:10:26:24 01:10:28:00 
*FROM CLIP NAME:  10K3/03.SYNC.01 
*SOURCE FILE: 19Y08M09
002681  MSMMMOB.02                       V     C        15:56:20:23 15:56:25:20 01:10:27:13 01:10:32:10 
M2      MSMMMOB.02                                025.0 15:56:20:23 
*FROM CLIP NAME:  A061C001_190809_R32C 
*SOURCE FILE: MSMMMOB.02
002682  19Y08M09                         A     C        16:13:16:23 16:13:16:23 01:10:28:00 01:10:28:00 
002682  19Y08M09                         A     D    002 15:56:21:10 15:56:21:12 01:10:28:00 01:10:28:02 
*FROM CLIP NAME:  10K3/03.SYNC.01 
*TO CLIP NAME:  10K2/01.SYNC.01 
*SOURCE FILE: 19Y08M09
002683  MSMMMOB.05                       A2    C        16:13:16:23 16:13:16:23 01:10:28:00 01:10:28:00 
002683  MSMMMOB.02                       A2    D    002 15:56:21:10 15:56:21:12 01:10:28:00 01:10:28:02 
*FROM CLIP NAME:  A061C005_190809_R32C 
*TO CLIP NAME:  A061C001_190809_R32C 
*SOURCE FILE: MSMMMOB.05
002684  19Y08M09                         A3    C        16:13:16:23 16:13:16:23 01:10:28:00 01:10:28:00 
002684  19Y08M09                         A3    D    002 15:56:21:10 15:56:21:12 01:10:28:00 01:10:28:02 
*FROM CLIP NAME:  10K3/03.SYNC.01 
*TO CLIP NAME:  10K2/01.SYNC.01 
*SOURCE FILE: 19Y08M09
002685  19Y08M09                         A4    C        16:13:16:23 16:13:16:23 01:10:28:00 01:10:28:00 
002685  19Y08M09                         A4    D    002 15:56:21:10 15:56:21:12 01:10:28:00 01:10:28:02 
*FROM CLIP NAME:  10K3/03.SYNC.01 
*TO CLIP NAME:  10K2/01.SYNC.01 
*SOURCE FILE: 19Y08M09
002686  19Y08M09                         A5    C        16:13:16:23 16:13:16:23 01:10:28:00 01:10:28:00 
002686  19Y08M09                         A5    D    002 15:56:21:10 15:56:21:12 01:10:28:00 01:10:28:02 
*FROM CLIP NAME:  10K3/03.SYNC.01 
*TO CLIP NAME:  10K2/01.SYNC.01 
*SOURCE FILE: 19Y08M09
002687  19Y08M09                         A6    C        16:13:16:23 16:13:16:23 01:10:28:00 01:10:28:00 
002687  19Y08M09                         A6    D    002 15:56:21:10 15:56:21:12 01:10:28:00 01:10:28:02 
*FROM CLIP NAME:  10K3/03.SYNC.01 
*TO CLIP NAME:  10K2/01.SYNC.01 
*SOURCE FILE: 19Y08M09
002688  19Y08M09                         A     C        15:56:21:12 15:56:24:18 01:10:28:02 01:10:31:08 
*FROM CLIP NAME:  10K2/01.SYNC.01 
*SOURCE FILE: 19Y08M09
002689  MSMMMOB.02                       A2    C        15:56:21:12 15:56:24:18 01:10:28:02 01:10:31:08 
*FROM CLIP NAME:  A061C001_190809_R32C 
*SOURCE FILE: MSMMMOB.02
002690  19Y08M09                         A3    C        15:56:21:12 15:56:24:18 01:10:28:02 01:10:31:08 
*FROM CLIP NAME:  10K2/01.SYNC.01 
*SOURCE FILE: 19Y08M09
002691  19Y08M09                         A4    C        15:56:21:12 15:56:24:18 01:10:28:02 01:10:31:08 
*FROM CLIP NAME:  10K2/01.SYNC.01 
*SOURCE FILE: 19Y08M09
002692  19Y08M09                         A5    C        15:56:21:12 15:56:24:18 01:10:28:02 01:10:31:08 
*FROM CLIP NAME:  10K2/01.SYNC.01 
*SOURCE FILE: 19Y08M09
002693  19Y08M09                         A6    C        15:56:21:12 15:56:24:18 01:10:28:02 01:10:31:08 
*FROM CLIP NAME:  10K2/01.SYNC.01 
*SOURCE FILE: 19Y08M09
002694  19Y08M09                         A     C        15:56:24:18 15:56:24:18 01:10:31:08 01:10:31:08 
002694  19Y08M09                         A     D    002 16:13:21:08 16:13:21:10 01:10:31:08 01:10:31:10 
*FROM CLIP NAME:  10K2/01.SYNC.01 
*TO CLIP NAME:  10K3/03.SYNC.01 
*SOURCE FILE: 19Y08M09
002695  MSMMMOB.02                       A2    C        15:56:24:18 15:56:24:18 01:10:31:08 01:10:31:08 
002695  MSMMMOB.05                       A2    D    002 16:13:21:08 16:13:21:10 01:10:31:08 01:10:31:10 
*FROM CLIP NAME:  A061C001_190809_R32C 
*TO CLIP NAME:  A061C005_190809_R32C 
*SOURCE FILE: MSMMMOB.02
002696  19Y08M09                         A3    C        15:56:24:18 15:56:24:18 01:10:31:08 01:10:31:08 
002696  19Y08M09                         A3    D    002 16:13:21:08 16:13:21:10 01:10:31:08 01:10:31:10 
*FROM CLIP NAME:  10K2/01.SYNC.01 
*TO CLIP NAME:  10K3/03.SYNC.01 
*SOURCE FILE: 19Y08M09
002697  19Y08M09                         A4    C        15:56:24:18 15:56:24:18 01:10:31:08 01:10:31:08 
002697  19Y08M09                         A4    D    002 16:13:21:08 16:13:21:10 01:10:31:08 01:10:31:10 
*FROM CLIP NAME:  10K2/01.SYNC.01 
*TO CLIP NAME:  10K3/03.SYNC.01 
*SOURCE FILE: 19Y08M09
002698  19Y08M09                         A5    C        15:56:24:18 15:56:24:18 01:10:31:08 01:10:31:08 
002698  19Y08M09                         A5    D    002 16:13:21:08 16:13:21:10 01:10:31:08 01:10:31:10 
*FROM CLIP NAME:  10K2/01.SYNC.01 
*TO CLIP NAME:  10K3/03.SYNC.01 
*SOURCE FILE: 19Y08M09
002699  19Y08M09                         A6    C        15:56:24:18 15:56:24:18 01:10:31:08 01:10:31:08 
002699  19Y08M09                         A6    D    002 16:13:21:08 16:13:21:10 01:10:31:08 01:10:31:10 
*FROM CLIP NAME:  10K2/01.SYNC.01 
*TO CLIP NAME:  10K3/03.SYNC.01 
*SOURCE FILE: 19Y08M09
002700  19Y08M09                         A     C        16:13:21:10 16:13:27:03 01:10:31:10 01:10:37:03 
*FROM CLIP NAME:  10K3/03.SYNC.01 
*SOURCE FILE: 19Y08M09
002701  MSMMMOB.05                       A2    C        16:13:21:10 16:13:27:03 01:10:31:10 01:10:37:03 
*FROM CLIP NAME:  A061C005_190809_R32C 
*SOURCE FILE: MSMMMOB.05
002702  19Y08M09                         A3    C        16:13:21:10 16:13:27:03 01:10:31:10 01:10:37:03 
*FROM CLIP NAME:  10K3/03.SYNC.01 
*SOURCE FILE: 19Y08M09
002703  19Y08M09                         A4    C        16:13:21:10 16:13:27:03 01:10:31:10 01:10:37:03 
*FROM CLIP NAME:  10K3/03.SYNC.01 
*SOURCE FILE: 19Y08M09
002704  19Y08M09                         A5    C        16:13:21:10 16:13:27:03 01:10:31:10 01:10:37:03 
*FROM CLIP NAME:  10K3/03.SYNC.01 
*SOURCE FILE: 19Y08M09
002705  19Y08M09                         A6    C        16:13:21:10 16:13:27:03 01:10:31:10 01:10:37:03 
*FROM CLIP NAME:  10K3/03.SYNC.01 
*SOURCE FILE: 19Y08M09
002706  MSMMMOB.05                       V     C        16:13:22:10 16:13:28:15 01:10:32:10 01:10:38:15 
M2      MSMMMOB.05                                025.0 16:13:22:10 
*FROM CLIP NAME:  A061C005_190809_R32C 
*SOURCE FILE: MSMMMOB.05
002707  19Y08M09                         A     C        16:13:27:03 16:13:27:03 01:10:37:03 01:10:37:03 
002707  19Y08M09                         A     D    002 15:58:47:17 15:58:47:19 01:10:37:03 01:10:37:05 
*FROM CLIP NAME:  10K3/03.SYNC.01 
*TO CLIP NAME:  10K2/02.SYNC.01 
*SOURCE FILE: 19Y08M09
002708  MSMMMOB.05                       A2    C        16:13:27:03 16:13:27:03 01:10:37:03 01:10:37:03 
002708  MSMMMOB.13                       A2    D    002 15:58:47:17 15:58:47:19 01:10:37:03 01:10:37:05 
*FROM CLIP NAME:  A061C005_190809_R32C 
*TO CLIP NAME:  A061C002_190809_R32C 
*SOURCE FILE: MSMMMOB.05
002709  19Y08M09                         A3    C        16:13:27:03 16:13:27:03 01:10:37:03 01:10:37:03 
002709  19Y08M09                         A3    D    002 15:58:47:17 15:58:47:19 01:10:37:03 01:10:37:05 
*FROM CLIP NAME:  10K3/03.SYNC.01 
*TO CLIP NAME:  10K2/02.SYNC.01 
*SOURCE FILE: 19Y08M09
002710  19Y08M09                         A4    C        16:13:27:03 16:13:27:03 01:10:37:03 01:10:37:03 
002710  19Y08M09                         A4    D    002 15:58:47:17 15:58:47:19 01:10:37:03 01:10:37:05 
*FROM CLIP NAME:  10K3/03.SYNC.01 
*TO CLIP NAME:  10K2/02.SYNC.01 
*SOURCE FILE: 19Y08M09
002711  19Y08M09                         A5    C        16:13:27:03 16:13:27:03 01:10:37:03 01:10:37:03 
002711  19Y08M09                         A5    D    002 15:58:47:17 15:58:47:19 01:10:37:03 01:10:37:05 
*FROM CLIP NAME:  10K3/03.SYNC.01 
*TO CLIP NAME:  10K2/02.SYNC.01 
*SOURCE FILE: 19Y08M09
002712  19Y08M09                         A6    C        16:13:27:03 16:13:27:03 01:10:37:03 01:10:37:03 
002712  19Y08M09                         A6    D    002 15:58:47:17 15:58:47:19 01:10:37:03 01:10:37:05 
*FROM CLIP NAME:  10K3/03.SYNC.01 
*TO CLIP NAME:  10K2/02.SYNC.01 
*SOURCE FILE: 19Y08M09
002713  19Y08M09                         A     C        15:58:47:19 15:58:48:22 01:10:37:05 01:10:38:08 
*FROM CLIP NAME:  10K2/02.SYNC.01 
*SOURCE FILE: 19Y08M09
002714  MSMMMOB.13                       A2    C        15:58:47:19 15:58:48:22 01:10:37:05 01:10:38:08 
*FROM CLIP NAME:  A061C002_190809_R32C 
*SOURCE FILE: MSMMMOB.13
002715  19Y08M09                         A3    C        15:58:47:19 15:58:48:22 01:10:37:05 01:10:38:08 
*FROM CLIP NAME:  10K2/02.SYNC.01 
*SOURCE FILE: 19Y08M09
002716  19Y08M09                         A4    C        15:58:47:19 15:58:48:22 01:10:37:05 01:10:38:08 
*FROM CLIP NAME:  10K2/02.SYNC.01 
*SOURCE FILE: 19Y08M09
002717  19Y08M09                         A5    C        15:58:47:19 15:58:48:22 01:10:37:05 01:10:38:08 
*FROM CLIP NAME:  10K2/02.SYNC.01 
*SOURCE FILE: 19Y08M09
002718  19Y08M09                         A6    C        15:58:47:19 15:58:48:22 01:10:37:05 01:10:38:08 
*FROM CLIP NAME:  10K2/02.SYNC.01 
*SOURCE FILE: 19Y08M09
002719  19Y08M09                         A     C        15:56:31:01 15:56:38:18 01:10:38:08 01:10:46:00 
*FROM CLIP NAME:  10K2/01.SYNC.01 
*SOURCE FILE: 19Y08M09
002720  MSMMMOB.02                       A2    C        15:56:31:01 15:56:38:18 01:10:38:08 01:10:46:00 
*FROM CLIP NAME:  A061C001_190809_R32C 
*SOURCE FILE: MSMMMOB.02
002721  19Y08M09                         A3    C        15:56:31:01 15:56:38:18 01:10:38:08 01:10:46:00 
*FROM CLIP NAME:  10K2/01.SYNC.01 
*SOURCE FILE: 19Y08M09
002722  19Y08M09                         A4    C        15:56:31:01 15:56:38:18 01:10:38:08 01:10:46:00 
*FROM CLIP NAME:  10K2/01.SYNC.01 
*SOURCE FILE: 19Y08M09
002723  19Y08M09                         A5    C        15:56:31:01 15:56:38:18 01:10:38:08 01:10:46:00 
*FROM CLIP NAME:  10K2/01.SYNC.01 
*SOURCE FILE: 19Y08M09
002724  19Y08M09                         A6    C        15:56:31:01 15:56:38:18 01:10:38:08 01:10:46:00 
*FROM CLIP NAME:  10K2/01.SYNC.01 
*SOURCE FILE: 19Y08M09
002725  MSMMMOB.02                       V     C        15:56:31:08 15:56:38:23 01:10:38:15 01:10:46:05 
M2      MSMMMOB.02                                025.0 15:56:31:08 
*FROM CLIP NAME:  A061C001_190809_R32C 
*SOURCE FILE: MSMMMOB.02
002726  19Y08M09                         A     C        15:56:38:18 15:56:38:18 01:10:46:00 01:10:46:00 
002726  19Y08M09                         A     D    002 15:46:18:00 15:46:18:02 01:10:46:00 01:10:46:02 
*FROM CLIP NAME:  10K2/01.SYNC.01 
*TO CLIP NAME:  10K1/01.SYNC.01 
*SOURCE FILE: 19Y08M09
002727  MSMMMOB.02                       A2    C        15:56:38:18 15:56:38:18 01:10:46:00 01:10:46:00 
002727  MSMMMOB.15                       A2    D    002 15:46:18:00 15:46:18:02 01:10:46:00 01:10:46:02 
*FROM CLIP NAME:  A061C001_190809_R32C 
*TO CLIP NAME:  A060C009_190809_R32C 
*SOURCE FILE: MSMMMOB.02
002728  19Y08M09                         A3    C        15:56:38:18 15:56:38:18 01:10:46:00 01:10:46:00 
002728  19Y08M09                         A3    D    002 15:46:18:00 15:46:18:02 01:10:46:00 01:10:46:02 
*FROM CLIP NAME:  10K2/01.SYNC.01 
*TO CLIP NAME:  10K1/01.SYNC.01 
*SOURCE FILE: 19Y08M09
002729  19Y08M09                         A4    C        15:56:38:18 15:56:38:18 01:10:46:00 01:10:46:00 
002729  19Y08M09                         A4    D    002 15:46:18:00 15:46:18:02 01:10:46:00 01:10:46:02 
*FROM CLIP NAME:  10K2/01.SYNC.01 
*TO CLIP NAME:  10K1/01.SYNC.01 
*SOURCE FILE: 19Y08M09
002730  19Y08M09                         A5    C        15:56:38:18 15:56:38:18 01:10:46:00 01:10:46:00 
002730  19Y08M09                         A5    D    002 15:46:18:00 15:46:18:02 01:10:46:00 01:10:46:02 
*FROM CLIP NAME:  10K2/01.SYNC.01 
*TO CLIP NAME:  10K1/01.SYNC.01 
*SOURCE FILE: 19Y08M09
002731  19Y08M09                         A6    C        15:56:38:18 15:56:38:18 01:10:46:00 01:10:46:00 
002731  19Y08M09                         A6    D    002 15:46:18:00 15:46:18:02 01:10:46:00 01:10:46:02 
*FROM CLIP NAME:  10K2/01.SYNC.01 
*TO CLIP NAME:  10K1/01.SYNC.01 
*SOURCE FILE: 19Y08M09
002732  19Y08M09                         A     C        15:46:18:02 15:46:20:05 01:10:46:02 01:10:48:05 
*FROM CLIP NAME:  10K1/01.SYNC.01 
*SOURCE FILE: 19Y08M09
002733  MSMMMOB.15                       A2    C        15:46:18:02 15:46:20:05 01:10:46:02 01:10:48:05 
*FROM CLIP NAME:  A060C009_190809_R32C 
*SOURCE FILE: MSMMMOB.15
002734  19Y08M09                         A3    C        15:46:18:02 15:46:20:05 01:10:46:02 01:10:48:05 
*FROM CLIP NAME:  10K1/01.SYNC.01 
*SOURCE FILE: 19Y08M09
002735  19Y08M09                         A4    C        15:46:18:02 15:46:20:05 01:10:46:02 01:10:48:05 
*FROM CLIP NAME:  10K1/01.SYNC.01 
*SOURCE FILE: 19Y08M09
002736  19Y08M09                         A5    C        15:46:18:02 15:46:20:05 01:10:46:02 01:10:48:05 
*FROM CLIP NAME:  10K1/01.SYNC.01 
*SOURCE FILE: 19Y08M09
002737  19Y08M09                         A6    C        15:46:18:02 15:46:20:05 01:10:46:02 01:10:48:05 
*FROM CLIP NAME:  10K1/01.SYNC.01 
*SOURCE FILE: 19Y08M09
002738  MSMMMOB.15                       V     C        15:46:18:05 15:46:20:05 01:10:46:05 01:10:48:05 
M2      MSMMMOB.15                                025.0 15:46:18:05 
*FROM CLIP NAME:  A060C009_190809_R32C 
*SOURCE FILE: MSMMMOB.15
002739  19Y08M09                         A     C        15:46:20:10 15:46:22:11 01:10:48:05 01:10:50:06 
*FROM CLIP NAME:  10K1/01.SYNC.01 
*SOURCE FILE: 19Y08M09
002740  MSMMMOB.15                       A2    C        15:46:20:10 15:46:22:11 01:10:48:05 01:10:50:06 
*FROM CLIP NAME:  A060C009_190809_R32C 
*SOURCE FILE: MSMMMOB.15
002741  19Y08M09                         A3    C        15:46:20:10 15:46:22:11 01:10:48:05 01:10:50:06 
*FROM CLIP NAME:  10K1/01.SYNC.01 
*SOURCE FILE: 19Y08M09
002742  19Y08M09                         A4    C        15:46:20:10 15:46:22:11 01:10:48:05 01:10:50:06 
*FROM CLIP NAME:  10K1/01.SYNC.01 
*SOURCE FILE: 19Y08M09
002743  19Y08M09                         A5    C        15:46:20:10 15:46:22:11 01:10:48:05 01:10:50:06 
*FROM CLIP NAME:  10K1/01.SYNC.01 
*SOURCE FILE: 19Y08M09
002744  19Y08M09                         A6    C        15:46:20:10 15:46:22:11 01:10:48:05 01:10:50:06 
*FROM CLIP NAME:  10K1/01.SYNC.01 
*SOURCE FILE: 19Y08M09
002745  MSMMMOB.02                       V     C        15:56:40:08 15:56:43:20 01:10:48:05 01:10:51:17 
M2      MSMMMOB.02                                025.0 15:56:40:08 
*FROM CLIP NAME:  A061C001_190809_R32C 
*SOURCE FILE: MSMMMOB.02
002746  19Y08M09                         A     C        15:56:42:09 15:56:43:20 01:10:50:06 01:10:51:17 
*FROM CLIP NAME:  10K2/01.SYNC.01 
*SOURCE FILE: 19Y08M09
002747  MSMMMOB.02                       A2    C        15:56:42:09 15:56:43:20 01:10:50:06 01:10:51:17 
*FROM CLIP NAME:  A061C001_190809_R32C 
*SOURCE FILE: MSMMMOB.02
002748  19Y08M09                         A3    C        15:56:42:09 15:56:43:20 01:10:50:06 01:10:51:17 
*FROM CLIP NAME:  10K2/01.SYNC.01 
*SOURCE FILE: 19Y08M09
002749  19Y08M09                         A4    C        15:56:42:09 15:56:43:20 01:10:50:06 01:10:51:17 
*FROM CLIP NAME:  10K2/01.SYNC.01 
*SOURCE FILE: 19Y08M09
002750  19Y08M09                         A5    C        15:56:42:09 15:56:43:20 01:10:50:06 01:10:51:17 
*FROM CLIP NAME:  10K2/01.SYNC.01 
*SOURCE FILE: 19Y08M09
002751  19Y08M09                         A6    C        15:56:42:09 15:56:43:20 01:10:50:06 01:10:51:17 
*FROM CLIP NAME:  10K2/01.SYNC.01 
*SOURCE FILE: 19Y08M09
002752  MSMMMOB.22                       V     C        16:08:47:02 16:08:51:13 01:10:51:17 01:10:56:03 
M2      MSMMMOB.22                                025.0 16:08:47:02 
*FROM CLIP NAME:  A061C003_190809_R32C 
*SOURCE FILE: MSMMMOB.22
002753  19Y08M09                         A     C        16:08:47:02 16:08:51:13 01:10:51:17 01:10:56:03 
*FROM CLIP NAME:  10K3/01.SYNC.01 
*SOURCE FILE: 19Y08M09
002754  MSMMMOB.22                       A2    C        16:08:47:02 16:08:51:13 01:10:51:17 01:10:56:03 
*FROM CLIP NAME:  A061C003_190809_R32C 
*SOURCE FILE: MSMMMOB.22
002755  19Y08M09                         A3    C        16:08:47:02 16:08:51:13 01:10:51:17 01:10:56:03 
*FROM CLIP NAME:  10K3/01.SYNC.01 
*SOURCE FILE: 19Y08M09
002756  19Y08M09                         A4    C        16:08:47:02 16:08:51:13 01:10:51:17 01:10:56:03 
*FROM CLIP NAME:  10K3/01.SYNC.01 
*SOURCE FILE: 19Y08M09
002757  19Y08M09                         A5    C        16:08:47:02 16:08:51:13 01:10:51:17 01:10:56:03 
*FROM CLIP NAME:  10K3/01.SYNC.01 
*SOURCE FILE: 19Y08M09
002758  19Y08M09                         A6    C        16:08:47:02 16:08:51:13 01:10:51:17 01:10:56:03 
*FROM CLIP NAME:  10K3/01.SYNC.01 
*SOURCE FILE: 19Y08M09
002759  19Y08M09                         A     C        16:00:14:13 16:00:18:22 01:10:56:03 01:11:00:12 
*FROM CLIP NAME:  10K2/02.SYNC.01 
*SOURCE FILE: 19Y08M09
002760  MSMMMOB.13                       A2    C        16:00:14:13 16:00:18:22 01:10:56:03 01:11:00:12 
*FROM CLIP NAME:  A061C002_190809_R32C 
*SOURCE FILE: MSMMMOB.13
002761  19Y08M09                         A3    C        16:00:14:13 16:00:18:22 01:10:56:03 01:11:00:12 
*FROM CLIP NAME:  10K2/02.SYNC.01 
*SOURCE FILE: 19Y08M09
002762  19Y08M09                         A4    C        16:00:14:13 16:00:18:22 01:10:56:03 01:11:00:12 
*FROM CLIP NAME:  10K2/02.SYNC.01 
*SOURCE FILE: 19Y08M09
002763  19Y08M09                         A5    C        16:00:14:13 16:00:18:22 01:10:56:03 01:11:00:12 
*FROM CLIP NAME:  10K2/02.SYNC.01 
*SOURCE FILE: 19Y08M09
002764  19Y08M09                         A6    C        16:00:14:13 16:00:18:22 01:10:56:03 01:11:00:12 
*FROM CLIP NAME:  10K2/02.SYNC.01 
*SOURCE FILE: 19Y08M09
002765  MSMMMOB.13                       V     C        16:00:14:13 16:00:19:05 01:10:56:03 01:11:00:20 
M2      MSMMMOB.13                                025.0 16:00:14:13 
*FROM CLIP NAME:  A061C002_190809_R32C 
*SOURCE FILE: MSMMMOB.13
002766  19Y08M09                         A     C        16:00:18:22 16:00:18:22 01:11:00:12 01:11:00:12 
002766  19Y08M09                         A     D    002 16:08:55:15 16:08:55:17 01:11:00:12 01:11:00:14 
*FROM CLIP NAME:  10K2/02.SYNC.01 
*TO CLIP NAME:  10K3/01.SYNC.01 
*SOURCE FILE: 19Y08M09
002767  MSMMMOB.13                       A2    C        16:00:18:22 16:00:18:22 01:11:00:12 01:11:00:12 
002767  MSMMMOB.22                       A2    D    002 16:08:55:15 16:08:55:17 01:11:00:12 01:11:00:14 
*FROM CLIP NAME:  A061C002_190809_R32C 
*TO CLIP NAME:  A061C003_190809_R32C 
*SOURCE FILE: MSMMMOB.13
002768  19Y08M09                         A3    C        16:00:18:22 16:00:18:22 01:11:00:12 01:11:00:12 
002768  19Y08M09                         A3    D    002 16:08:55:15 16:08:55:17 01:11:00:12 01:11:00:14 
*FROM CLIP NAME:  10K2/02.SYNC.01 
*TO CLIP NAME:  10K3/01.SYNC.01 
*SOURCE FILE: 19Y08M09
002769  19Y08M09                         A4    C        16:00:18:22 16:00:18:22 01:11:00:12 01:11:00:12 
002769  19Y08M09                         A4    D    002 16:08:55:15 16:08:55:17 01:11:00:12 01:11:00:14 
*FROM CLIP NAME:  10K2/02.SYNC.01 
*TO CLIP NAME:  10K3/01.SYNC.01 
*SOURCE FILE: 19Y08M09
002770  19Y08M09                         A5    C        16:00:18:22 16:00:18:22 01:11:00:12 01:11:00:12 
002770  19Y08M09                         A5    D    002 16:08:55:15 16:08:55:17 01:11:00:12 01:11:00:14 
*FROM CLIP NAME:  10K2/02.SYNC.01 
*TO CLIP NAME:  10K3/01.SYNC.01 
*SOURCE FILE: 19Y08M09
002771  19Y08M09                         A6    C        16:00:18:22 16:00:18:22 01:11:00:12 01:11:00:12 
002771  19Y08M09                         A6    D    002 16:08:55:15 16:08:55:17 01:11:00:12 01:11:00:14 
*FROM CLIP NAME:  10K2/02.SYNC.01 
*TO CLIP NAME:  10K3/01.SYNC.01 
*SOURCE FILE: 19Y08M09
002772  19Y08M09                         A     C        16:08:55:17 16:09:00:01 01:11:00:14 01:11:04:23 
*FROM CLIP NAME:  10K3/01.SYNC.01 
*SOURCE FILE: 19Y08M09
002773  MSMMMOB.22                       A2    C        16:08:55:17 16:09:00:01 01:11:00:14 01:11:04:23 
*FROM CLIP NAME:  A061C003_190809_R32C 
*SOURCE FILE: MSMMMOB.22
002774  19Y08M09                         A3    C        16:08:55:17 16:09:00:01 01:11:00:14 01:11:04:23 
*FROM CLIP NAME:  10K3/01.SYNC.01 
*SOURCE FILE: 19Y08M09
002775  19Y08M09                         A4    C        16:08:55:17 16:09:00:01 01:11:00:14 01:11:04:23 
*FROM CLIP NAME:  10K3/01.SYNC.01 
*SOURCE FILE: 19Y08M09
002776  19Y08M09                         A5    C        16:08:55:17 16:09:00:01 01:11:00:14 01:11:04:23 
*FROM CLIP NAME:  10K3/01.SYNC.01 
*SOURCE FILE: 19Y08M09
002777  19Y08M09                         A6    C        16:08:55:17 16:09:00:01 01:11:00:14 01:11:04:23 
*FROM CLIP NAME:  10K3/01.SYNC.01 
*SOURCE FILE: 19Y08M09
002778  MSMMMOB.22                       V     C        16:08:55:23 16:09:00:02 01:11:00:20 01:11:04:24 
M2      MSMMMOB.22                                025.0 16:08:55:23 
*FROM CLIP NAME:  A061C003_190809_R32C 
*SOURCE FILE: MSMMMOB.22
002779  CINEMASCOPE_2-35-1_CROPLINES.PNG V     C        01:00:12:08 01:01:48:01 01:11:04:06 01:12:39:24 
*FROM CLIP NAME:  CINEMASCOPE 2-35-1 CROPLINES.PNG 
*SOURCE FILE: CINEMASCOPE 2-35-1 CROPLINES.PNG
002780  19Y08M09                         A     C        16:09:00:01 16:09:00:01 01:11:04:23 01:11:04:23 
002780  19Y08M09                         A     D    002 15:49:28:08 15:49:28:10 01:11:04:23 01:11:05:00 
*FROM CLIP NAME:  10K3/01.SYNC.01 
*TO CLIP NAME:  10K1/02.SYNC.01 
*SOURCE FILE: 19Y08M09
002781  MSMMMOB.22                       A2    C        16:09:00:01 16:09:00:01 01:11:04:23 01:11:04:23 
002781  MSMMMOB.43                       A2    D    002 15:49:28:08 15:49:28:10 01:11:04:23 01:11:05:00 
*FROM CLIP NAME:  A061C003_190809_R32C 
*TO CLIP NAME:  A060C010_190809_R32C 
*SOURCE FILE: MSMMMOB.22
002782  19Y08M09                         A3    C        16:09:00:01 16:09:00:01 01:11:04:23 01:11:04:23 
002782  19Y08M09                         A3    D    002 15:49:28:08 15:49:28:10 01:11:04:23 01:11:05:00 
*FROM CLIP NAME:  10K3/01.SYNC.01 
*TO CLIP NAME:  10K1/02.SYNC.01 
*SOURCE FILE: 19Y08M09
002783  19Y08M09                         A4    C        16:09:00:01 16:09:00:01 01:11:04:23 01:11:04:23 
002783  19Y08M09                         A4    D    002 15:49:28:08 15:49:28:10 01:11:04:23 01:11:05:00 
*FROM CLIP NAME:  10K3/01.SYNC.01 
*TO CLIP NAME:  10K1/02.SYNC.01 
*SOURCE FILE: 19Y08M09
002784  19Y08M09                         A5    C        16:09:00:01 16:09:00:01 01:11:04:23 01:11:04:23 
002784  19Y08M09                         A5    D    002 15:49:28:08 15:49:28:10 01:11:04:23 01:11:05:00 
*FROM CLIP NAME:  10K3/01.SYNC.01 
*TO CLIP NAME:  10K1/02.SYNC.01 
*SOURCE FILE: 19Y08M09
002785  19Y08M09                         A6    C        16:09:00:01 16:09:00:01 01:11:04:23 01:11:04:23 
002785  19Y08M09                         A6    D    002 15:49:28:08 15:49:28:10 01:11:04:23 01:11:05:00 
*FROM CLIP NAME:  10K3/01.SYNC.01 
*TO CLIP NAME:  10K1/02.SYNC.01 
*SOURCE FILE: 19Y08M09
002786  MSMMMOB.43                       V     C        15:49:28:09 15:49:31:09 01:11:04:24 01:11:07:24 
M2      MSMMMOB.43                                025.0 15:49:28:09 
*FROM CLIP NAME:  A060C010_190809_R32C 
*SOURCE FILE: MSMMMOB.43
002787  19Y08M09                         A     C        15:49:28:10 15:49:29:09 01:11:05:00 01:11:05:24 
*FROM CLIP NAME:  10K1/02.SYNC.01 
*SOURCE FILE: 19Y08M09
002788  MSMMMOB.43                       A2    C        15:49:28:10 15:49:29:09 01:11:05:00 01:11:05:24 
*FROM CLIP NAME:  A060C010_190809_R32C 
*SOURCE FILE: MSMMMOB.43
002789  19Y08M09                         A3    C        15:49:28:10 15:49:29:09 01:11:05:00 01:11:05:24 
*FROM CLIP NAME:  10K1/02.SYNC.01 
*SOURCE FILE: 19Y08M09
002790  19Y08M09                         A4    C        15:49:28:10 15:49:29:09 01:11:05:00 01:11:05:24 
*FROM CLIP NAME:  10K1/02.SYNC.01 
*SOURCE FILE: 19Y08M09
002791  19Y08M09                         A5    C        15:49:28:10 15:49:29:09 01:11:05:00 01:11:05:24 
*FROM CLIP NAME:  10K1/02.SYNC.01 
*SOURCE FILE: 19Y08M09
002792  19Y08M09                         A6    C        15:49:28:10 15:49:29:09 01:11:05:00 01:11:05:24 
*FROM CLIP NAME:  10K1/02.SYNC.01 
*SOURCE FILE: 19Y08M09
002793  19Y08M09                         A     C        15:56:57:08 15:56:58:17 01:11:05:24 01:11:07:08 
*FROM CLIP NAME:  10K2/01.SYNC.01 
*SOURCE FILE: 19Y08M09
002794  MSMMMOB.02                       A2    C        15:56:57:08 15:56:58:17 01:11:05:24 01:11:07:08 
*FROM CLIP NAME:  A061C001_190809_R32C 
*SOURCE FILE: MSMMMOB.02
002795  19Y08M09                         A3    C        15:56:57:08 15:56:58:17 01:11:05:24 01:11:07:08 
*FROM CLIP NAME:  10K2/01.SYNC.01 
*SOURCE FILE: 19Y08M09
002796  19Y08M09                         A4    C        15:56:57:08 15:56:58:17 01:11:05:24 01:11:07:08 
*FROM CLIP NAME:  10K2/01.SYNC.01 
*SOURCE FILE: 19Y08M09
002797  19Y08M09                         A5    C        15:56:57:08 15:56:58:17 01:11:05:24 01:11:07:08 
*FROM CLIP NAME:  10K2/01.SYNC.01 
*SOURCE FILE: 19Y08M09
002798  19Y08M09                         A6    C        15:56:57:08 15:56:58:17 01:11:05:24 01:11:07:08 
*FROM CLIP NAME:  10K2/01.SYNC.01 
*SOURCE FILE: 19Y08M09
002799  19Y08M09                         A     C        16:08:58:08 16:08:58:20 01:11:07:08 01:11:07:20 
*FROM CLIP NAME:  10K3/01.SYNC.01 
*SOURCE FILE: 19Y08M09
002800  MSMMMOB.22                       A2    C        16:08:58:08 16:08:58:20 01:11:07:08 01:11:07:20 
*FROM CLIP NAME:  A061C003_190809_R32C 
*SOURCE FILE: MSMMMOB.22
002801  19Y08M09                         A3    C        16:08:58:08 16:08:58:20 01:11:07:08 01:11:07:20 
*FROM CLIP NAME:  10K3/01.SYNC.01 
*SOURCE FILE: 19Y08M09
002802  19Y08M09                         A4    C        16:08:58:08 16:08:58:20 01:11:07:08 01:11:07:20 
*FROM CLIP NAME:  10K3/01.SYNC.01 
*SOURCE FILE: 19Y08M09
002803  19Y08M09                         A5    C        16:08:58:08 16:08:58:20 01:11:07:08 01:11:07:20 
*FROM CLIP NAME:  10K3/01.SYNC.01 
*SOURCE FILE: 19Y08M09
002804  19Y08M09                         A6    C        16:08:58:08 16:08:58:20 01:11:07:08 01:11:07:20 
*FROM CLIP NAME:  10K3/01.SYNC.01 
*SOURCE FILE: 19Y08M09
002805  19Y08M09                         A     C        16:08:58:02 16:08:58:06 01:11:07:20 01:11:07:24 
*FROM CLIP NAME:  10K3/01.SYNC.01 
*SOURCE FILE: 19Y08M09
002806  MSMMMOB.22                       A2    C        16:08:58:02 16:08:58:06 01:11:07:20 01:11:07:24 
*FROM CLIP NAME:  A061C003_190809_R32C 
*SOURCE FILE: MSMMMOB.22
002807  19Y08M09                         A3    C        16:08:58:02 16:08:58:06 01:11:07:20 01:11:07:24 
*FROM CLIP NAME:  10K3/01.SYNC.01 
*SOURCE FILE: 19Y08M09
002808  19Y08M09                         A4    C        16:08:58:02 16:08:58:06 01:11:07:20 01:11:07:24 
*FROM CLIP NAME:  10K3/01.SYNC.01 
*SOURCE FILE: 19Y08M09
002809  19Y08M09                         A5    C        16:08:58:02 16:08:58:06 01:11:07:20 01:11:07:24 
*FROM CLIP NAME:  10K3/01.SYNC.01 
*SOURCE FILE: 19Y08M09
002810  19Y08M09                         A6    C        16:08:58:02 16:08:58:06 01:11:07:20 01:11:07:24 
*FROM CLIP NAME:  10K3/01.SYNC.01 
*SOURCE FILE: 19Y08M09
002811  MSMMMOB.92                       V     C        12:25:49:24 12:25:52:10 01:11:07:24 01:11:10:10 
M2      MSMMMOB.92                                025.0 12:25:49:24 
*FROM CLIP NAME:  B018C009_190813_R481 
*SOURCE FILE: MSMMMOB.92
002812  19Y08M13                         A     C        12:25:49:23 12:25:52:09 01:11:07:24 01:11:10:10 
*FROM CLIP NAME:  11K3/01.SYNC.01 
*SOURCE FILE: 19Y08M13
002813  19Y08M13                         A2    C        12:25:49:23 12:25:52:09 01:11:07:24 01:11:10:10 
*FROM CLIP NAME:  11K3/01.SYNC.01 
*SOURCE FILE: 19Y08M13
002814  19Y08M13                         A3    C        12:25:49:23 12:25:52:09 01:11:07:24 01:11:10:10 
*FROM CLIP NAME:  11K3/01.SYNC.01 
*SOURCE FILE: 19Y08M13
002815  19Y08M13                         A4    C        12:25:49:23 12:25:52:09 01:11:07:24 01:11:10:10 
*FROM CLIP NAME:  11K3/01.SYNC.01 
*SOURCE FILE: 19Y08M13
002816  19Y08M13                         A5    C        12:25:49:23 12:25:52:09 01:11:07:24 01:11:10:10 
*FROM CLIP NAME:  11K3/01.SYNC.01 
*SOURCE FILE: 19Y08M13
002817  19Y08M13                         A6    C        12:25:49:23 12:25:52:09 01:11:07:24 01:11:10:10 
*FROM CLIP NAME:  11K3/01.SYNC.01 
*SOURCE FILE: 19Y08M13
002818  19Y08M13                         A7    C        12:25:49:23 12:25:52:09 01:11:07:24 01:11:10:10 
*FROM CLIP NAME:  11K3/01.SYNC.01 
*SOURCE FILE: 19Y08M13
002819  19Y08M13                         A8    C        12:25:49:23 12:25:52:09 01:11:07:24 01:11:10:10 
*FROM CLIP NAME:  11K3/01.SYNC.01 
*SOURCE FILE: 19Y08M13
002820  MSMMMOB.58                       V     C        12:49:21:03 12:49:22:14 01:11:10:10 01:11:11:21 
M2      MSMMMOB.58                                025.0 12:49:21:03 
*FROM CLIP NAME:  B018C013_190813_R481 
*SOURCE FILE: MSMMMOB.58
002821  19Y08M13                         A     C        12:25:53:00 12:25:55:20 01:11:10:10 01:11:13:05 
*FROM CLIP NAME:  11K3/01.SYNC.01 
*SOURCE FILE: 19Y08M13
002822  19Y08M13                         A2    C        12:25:53:00 12:25:55:20 01:11:10:10 01:11:13:05 
*FROM CLIP NAME:  11K3/01.SYNC.01 
*SOURCE FILE: 19Y08M13
002823  19Y08M13                         A3    C        12:25:53:00 12:25:55:20 01:11:10:10 01:11:13:05 
*FROM CLIP NAME:  11K3/01.SYNC.01 
*SOURCE FILE: 19Y08M13
002824  19Y08M13                         A4    C        12:25:53:00 12:25:55:20 01:11:10:10 01:11:13:05 
*FROM CLIP NAME:  11K3/01.SYNC.01 
*SOURCE FILE: 19Y08M13
002825  19Y08M13                         A5    C        12:25:53:00 12:25:55:20 01:11:10:10 01:11:13:05 
*FROM CLIP NAME:  11K3/01.SYNC.01 
*SOURCE FILE: 19Y08M13
002826  19Y08M13                         A6    C        12:25:53:00 12:25:55:20 01:11:10:10 01:11:13:05 
*FROM CLIP NAME:  11K3/01.SYNC.01 
*SOURCE FILE: 19Y08M13
002827  19Y08M13                         A7    C        12:25:53:00 12:25:55:20 01:11:10:10 01:11:13:05 
*FROM CLIP NAME:  11K3/01.SYNC.01 
*SOURCE FILE: 19Y08M13
002828  19Y08M13                         A8    C        12:25:53:00 12:25:55:20 01:11:10:10 01:11:13:05 
*FROM CLIP NAME:  11K3/01.SYNC.01 
*SOURCE FILE: 19Y08M13
002829  MSMMMOB.01                       V     C        12:25:54:12 12:25:55:21 01:11:11:21 01:11:13:05 
M2      MSMMMOB.01                                025.0 12:25:54:12 
*FROM CLIP NAME:  A071C008_190813_R32C 
*SOURCE FILE: MSMMMOB.01
002830  MSMMMOB.74                       V     C        12:46:56:16 12:46:58:06 01:11:13:05 01:11:14:20 
M2      MSMMMOB.74                                025.0 12:46:56:16 
*FROM CLIP NAME:  B018C012_190813_R481 
*SOURCE FILE: MSMMMOB.74
002831  19Y08M13                         A     C        12:46:56:15 12:46:58:17 01:11:13:05 01:11:15:07 
*FROM CLIP NAME:  11K5/01.SYNC.01 
*SOURCE FILE: 19Y08M13
002832  19Y08M13                         A2    C        12:46:56:15 12:46:58:17 01:11:13:05 01:11:15:07 
*FROM CLIP NAME:  11K5/01.SYNC.01 
*SOURCE FILE: 19Y08M13
002833  19Y08M13                         A3    C        12:46:56:15 12:46:58:17 01:11:13:05 01:11:15:07 
*FROM CLIP NAME:  11K5/01.SYNC.01 
*SOURCE FILE: 19Y08M13
002834  19Y08M13                         A4    C        12:46:56:15 12:46:58:17 01:11:13:05 01:11:15:07 
*FROM CLIP NAME:  11K5/01.SYNC.01 
*SOURCE FILE: 19Y08M13
002835  19Y08M13                         A5    C        12:46:56:15 12:46:58:17 01:11:13:05 01:11:15:07 
*FROM CLIP NAME:  11K5/01.SYNC.01 
*SOURCE FILE: 19Y08M13
002836  19Y08M13                         A6    C        12:46:56:15 12:46:58:17 01:11:13:05 01:11:15:07 
*FROM CLIP NAME:  11K5/01.SYNC.01 
*SOURCE FILE: 19Y08M13
002837  19Y08M13                         A7    C        12:46:56:15 12:46:58:17 01:11:13:05 01:11:15:07 
*FROM CLIP NAME:  11K5/01.SYNC.01 
*SOURCE FILE: 19Y08M13
002838  19Y08M13                         A8    C        12:46:56:15 12:46:58:17 01:11:13:05 01:11:15:07 
*FROM CLIP NAME:  11K5/01.SYNC.01 
*SOURCE FILE: 19Y08M13
002839  MSMMMOB.02                       V     C        12:40:24:18 12:40:27:17 01:11:14:20 01:11:17:19 
M2      MSMMMOB.02                                025.0 12:40:24:18 
*FROM CLIP NAME:  A071C010_190813_R32C 
*SOURCE FILE: MSMMMOB.02
002840  19Y08M13                         A     C        12:46:59:12 12:47:00:19 01:11:15:07 01:11:16:14 
*FROM CLIP NAME:  11K5/01.SYNC.01 
*SOURCE FILE: 19Y08M13
002841  19Y08M13                         A2    C        12:46:59:12 12:47:00:19 01:11:15:07 01:11:16:14 
*FROM CLIP NAME:  11K5/01.SYNC.01 
*SOURCE FILE: 19Y08M13
002842  19Y08M13                         A3    C        12:46:59:12 12:47:00:19 01:11:15:07 01:11:16:14 
*FROM CLIP NAME:  11K5/01.SYNC.01 
*SOURCE FILE: 19Y08M13
002843  19Y08M13                         A4    C        12:46:59:12 12:47:00:19 01:11:15:07 01:11:16:14 
*FROM CLIP NAME:  11K5/01.SYNC.01 
*SOURCE FILE: 19Y08M13
002844  19Y08M13                         A5    C        12:46:59:12 12:47:00:19 01:11:15:07 01:11:16:14 
*FROM CLIP NAME:  11K5/01.SYNC.01 
*SOURCE FILE: 19Y08M13
002845  19Y08M13                         A6    C        12:46:59:12 12:47:00:19 01:11:15:07 01:11:16:14 
*FROM CLIP NAME:  11K5/01.SYNC.01 
*SOURCE FILE: 19Y08M13
002846  19Y08M13                         A7    C        12:46:59:12 12:47:00:19 01:11:15:07 01:11:16:14 
*FROM CLIP NAME:  11K5/01.SYNC.01 
*SOURCE FILE: 19Y08M13
002847  19Y08M13                         A8    C        12:46:59:12 12:47:00:19 01:11:15:07 01:11:16:14 
*FROM CLIP NAME:  11K5/01.SYNC.01 
*SOURCE FILE: 19Y08M13
002848  19Y08M13                         A     C        12:47:00:19 12:47:00:19 01:11:16:14 01:11:16:14 
002848  MSMMMOB.90                       A     D    002 12:20:37:02 12:20:37:04 01:11:16:14 01:11:16:16 
*FROM CLIP NAME:  11K5/01.SYNC.01 
*TO CLIP NAME:  B018C008_190813_R481 
*SOURCE FILE: 19Y08M13
002849  19Y08M13                         A2    C        12:47:00:19 12:47:00:19 01:11:16:14 01:11:16:14 
002849  MSMMMOB.90                       A2    D    002 12:20:37:02 12:20:37:04 01:11:16:14 01:11:16:16 
*FROM CLIP NAME:  11K5/01.SYNC.01 
*TO CLIP NAME:  B018C008_190813_R481 
*SOURCE FILE: 19Y08M13
002850  19Y08M13                         A3    C        12:47:00:19 12:47:00:19 01:11:16:14 01:11:16:14 
002850  19Y08M13                         A3    D    002 12:20:37:01 12:20:37:03 01:11:16:14 01:11:16:16 
*FROM CLIP NAME:  11K5/01.SYNC.01 
*TO CLIP NAME:  11K2/02.SYNC.01 
*SOURCE FILE: 19Y08M13
002851  19Y08M13                         A4    C        12:47:00:19 12:47:00:19 01:11:16:14 01:11:16:14 
002851  19Y08M13                         A4    D    002 12:20:37:01 12:20:37:03 01:11:16:14 01:11:16:16 
*FROM CLIP NAME:  11K5/01.SYNC.01 
*TO CLIP NAME:  11K2/02.SYNC.01 
*SOURCE FILE: 19Y08M13
002852  19Y08M13                         A5    C        12:47:00:19 12:47:00:19 01:11:16:14 01:11:16:14 
002852  19Y08M13                         A5    D    002 12:20:37:01 12:20:37:03 01:11:16:14 01:11:16:16 
*FROM CLIP NAME:  11K5/01.SYNC.01 
*TO CLIP NAME:  11K2/02.SYNC.01 
*SOURCE FILE: 19Y08M13
002853  19Y08M13                         A6    C        12:47:00:19 12:47:00:19 01:11:16:14 01:11:16:14 
002853  19Y08M13                         A6    D    002 12:20:37:01 12:20:37:03 01:11:16:14 01:11:16:16 
*FROM CLIP NAME:  11K5/01.SYNC.01 
*TO CLIP NAME:  11K2/02.SYNC.01 
*SOURCE FILE: 19Y08M13
002854  19Y08M13                         A7    C        12:47:00:19 12:47:00:19 01:11:16:14 01:11:16:14 
002854  19Y08M13                         A7    D    002 12:20:37:01 12:20:37:03 01:11:16:14 01:11:16:16 
*FROM CLIP NAME:  11K5/01.SYNC.01 
*TO CLIP NAME:  11K2/02.SYNC.01 
*SOURCE FILE: 19Y08M13
002855  19Y08M13                         A8    C        12:47:00:19 12:47:00:19 01:11:16:14 01:11:16:14 
002855  19Y08M13                         A8    D    002 12:20:37:01 12:20:37:03 01:11:16:14 01:11:16:16 
*FROM CLIP NAME:  11K5/01.SYNC.01 
*TO CLIP NAME:  11K2/02.SYNC.01 
*SOURCE FILE: 19Y08M13
002856  MSMMMOB.90                       A     C        12:20:37:04 12:20:37:15 01:11:16:16 01:11:17:02 
*FROM CLIP NAME:  B018C008_190813_R481 
*SOURCE FILE: MSMMMOB.90
002857  MSMMMOB.90                       A2    C        12:20:37:04 12:20:37:15 01:11:16:16 01:11:17:02 
*FROM CLIP NAME:  B018C008_190813_R481 
*SOURCE FILE: MSMMMOB.90
002858  19Y08M13                         A3    C        12:20:37:03 12:20:37:14 01:11:16:16 01:11:17:02 
*FROM CLIP NAME:  11K2/02.SYNC.01 
*SOURCE FILE: 19Y08M13
002859  19Y08M13                         A4    C        12:20:37:03 12:20:37:14 01:11:16:16 01:11:17:02 
*FROM CLIP NAME:  11K2/02.SYNC.01 
*SOURCE FILE: 19Y08M13
002860  19Y08M13                         A5    C        12:20:37:03 12:20:37:14 01:11:16:16 01:11:17:02 
*FROM CLIP NAME:  11K2/02.SYNC.01 
*SOURCE FILE: 19Y08M13
002861  19Y08M13                         A6    C        12:20:37:03 12:20:37:14 01:11:16:16 01:11:17:02 
*FROM CLIP NAME:  11K2/02.SYNC.01 
*SOURCE FILE: 19Y08M13
002862  19Y08M13                         A7    C        12:20:37:03 12:20:37:14 01:11:16:16 01:11:17:02 
*FROM CLIP NAME:  11K2/02.SYNC.01 
*SOURCE FILE: 19Y08M13
002863  19Y08M13                         A8    C        12:20:37:03 12:20:37:14 01:11:16:16 01:11:17:02 
*FROM CLIP NAME:  11K2/02.SYNC.01 
*SOURCE FILE: 19Y08M13
002864  19Y08M13                         A     C        12:40:29:23 12:40:33:03 01:11:17:02 01:11:20:07 
*FROM CLIP NAME:  11K4/02.SYNC.01 
*SOURCE FILE: 19Y08M13
002865  19Y08M13                         A2    C        12:40:29:23 12:40:33:03 01:11:17:02 01:11:20:07 
*FROM CLIP NAME:  11K4/02.SYNC.01 
*SOURCE FILE: 19Y08M13
002866  19Y08M13                         A3    C        12:40:29:23 12:40:33:03 01:11:17:02 01:11:20:07 
*FROM CLIP NAME:  11K4/02.SYNC.01 
*SOURCE FILE: 19Y08M13
002867  19Y08M13                         A4    C        12:40:29:23 12:40:33:03 01:11:17:02 01:11:20:07 
*FROM CLIP NAME:  11K4/02.SYNC.01 
*SOURCE FILE: 19Y08M13
002868  19Y08M13                         A5    C        12:40:29:23 12:40:33:03 01:11:17:02 01:11:20:07 
*FROM CLIP NAME:  11K4/02.SYNC.01 
*SOURCE FILE: 19Y08M13
002869  19Y08M13                         A6    C        12:40:29:23 12:40:33:03 01:11:17:02 01:11:20:07 
*FROM CLIP NAME:  11K4/02.SYNC.01 
*SOURCE FILE: 19Y08M13
002870  19Y08M13                         A7    C        12:40:29:23 12:40:33:03 01:11:17:02 01:11:20:07 
*FROM CLIP NAME:  11K4/02.SYNC.01 
*SOURCE FILE: 19Y08M13
002871  19Y08M13                         A8    C        12:40:29:23 12:40:33:03 01:11:17:02 01:11:20:07 
*FROM CLIP NAME:  11K4/02.SYNC.01 
*SOURCE FILE: 19Y08M13
002872  MSMMMOB.15                       V     C        12:20:38:07 12:20:41:07 01:11:17:19 01:11:20:19 
M2      MSMMMOB.15                                025.0 12:20:38:07 
*FROM CLIP NAME:  A071C007_190813_R32C 
*SOURCE FILE: MSMMMOB.15
002873  19Y08M13                         A     C        12:40:33:03 12:40:37:09 01:11:20:07 01:11:24:13 
*FROM CLIP NAME:  11K4/02.SYNC.01 
*SOURCE FILE: 19Y08M13
002874  19Y08M13                         A2    C        12:40:33:03 12:40:37:09 01:11:20:07 01:11:24:13 
*FROM CLIP NAME:  11K4/02.SYNC.01 
*SOURCE FILE: 19Y08M13
002875  19Y08M13                         A3    C        12:40:33:03 12:40:37:09 01:11:20:07 01:11:24:13 
*FROM CLIP NAME:  11K4/02.SYNC.01 
*SOURCE FILE: 19Y08M13
002876  19Y08M13                         A4    C        12:40:33:03 12:40:37:09 01:11:20:07 01:11:24:13 
*FROM CLIP NAME:  11K4/02.SYNC.01 
*SOURCE FILE: 19Y08M13
002877  19Y08M13                         A5    C        12:40:33:03 12:40:37:09 01:11:20:07 01:11:24:13 
*FROM CLIP NAME:  11K4/02.SYNC.01 
*SOURCE FILE: 19Y08M13
002878  19Y08M13                         A6    C        12:40:33:03 12:40:37:09 01:11:20:07 01:11:24:13 
*FROM CLIP NAME:  11K4/02.SYNC.01 
*SOURCE FILE: 19Y08M13
002879  19Y08M13                         A7    C        12:40:33:03 12:40:37:09 01:11:20:07 01:11:24:13 
*FROM CLIP NAME:  11K4/02.SYNC.01 
*SOURCE FILE: 19Y08M13
002880  19Y08M13                         A8    C        12:40:33:03 12:40:37:09 01:11:20:07 01:11:24:13 
*FROM CLIP NAME:  11K4/02.SYNC.01 
*SOURCE FILE: 19Y08M13
002881  MSMMMOB.02                       V     C        12:40:33:16 12:40:36:22 01:11:20:19 01:11:24:00 
M2      MSMMMOB.02                                025.0 12:40:33:16 
*FROM CLIP NAME:  A071C010_190813_R32C 
*SOURCE FILE: MSMMMOB.02
002882  MSMMMOB.15                       V     C        12:20:44:14 12:20:46:09 01:11:24:00 01:11:25:20 
M2      MSMMMOB.15                                025.0 12:20:44:14 
*FROM CLIP NAME:  A071C007_190813_R32C 
*SOURCE FILE: MSMMMOB.15
002883  19Y08M13                         A     C        12:40:37:09 12:40:37:09 01:11:24:13 01:11:24:13 
002883  MSMMMOB.90                       A     D    002 12:20:45:02 12:20:45:04 01:11:24:13 01:11:24:15 
*FROM CLIP NAME:  11K4/02.SYNC.01 
*TO CLIP NAME:  B018C008_190813_R481 
*SOURCE FILE: 19Y08M13
002884  19Y08M13                         A2    C        12:40:37:09 12:40:37:09 01:11:24:13 01:11:24:13 
002884  MSMMMOB.90                       A2    D    002 12:20:45:02 12:20:45:04 01:11:24:13 01:11:24:15 
*FROM CLIP NAME:  11K4/02.SYNC.01 
*TO CLIP NAME:  B018C008_190813_R481 
*SOURCE FILE: 19Y08M13
002885  19Y08M13                         A3    C        12:40:37:09 12:40:37:09 01:11:24:13 01:11:24:13 
002885  19Y08M13                         A3    D    002 12:20:45:01 12:20:45:03 01:11:24:13 01:11:24:15 
*FROM CLIP NAME:  11K4/02.SYNC.01 
*TO CLIP NAME:  11K2/02.SYNC.01 
*SOURCE FILE: 19Y08M13
002886  19Y08M13                         A4    C        12:40:37:09 12:40:37:09 01:11:24:13 01:11:24:13 
002886  19Y08M13                         A4    D    002 12:20:45:01 12:20:45:03 01:11:24:13 01:11:24:15 
*FROM CLIP NAME:  11K4/02.SYNC.01 
*TO CLIP NAME:  11K2/02.SYNC.01 
*SOURCE FILE: 19Y08M13
002887  19Y08M13                         A5    C        12:40:37:09 12:40:37:09 01:11:24:13 01:11:24:13 
002887  19Y08M13                         A5    D    002 12:20:45:01 12:20:45:03 01:11:24:13 01:11:24:15 
*FROM CLIP NAME:  11K4/02.SYNC.01 
*TO CLIP NAME:  11K2/02.SYNC.01 
*SOURCE FILE: 19Y08M13
002888  19Y08M13                         A6    C        12:40:37:09 12:40:37:09 01:11:24:13 01:11:24:13 
002888  19Y08M13                         A6    D    002 12:20:45:01 12:20:45:03 01:11:24:13 01:11:24:15 
*FROM CLIP NAME:  11K4/02.SYNC.01 
*TO CLIP NAME:  11K2/02.SYNC.01 
*SOURCE FILE: 19Y08M13
002889  19Y08M13                         A7    C        12:40:37:09 12:40:37:09 01:11:24:13 01:11:24:13 
002889  19Y08M13                         A7    D    002 12:20:45:01 12:20:45:03 01:11:24:13 01:11:24:15 
*FROM CLIP NAME:  11K4/02.SYNC.01 
*TO CLIP NAME:  11K2/02.SYNC.01 
*SOURCE FILE: 19Y08M13
002890  19Y08M13                         A8    C        12:40:37:09 12:40:37:09 01:11:24:13 01:11:24:13 
002890  19Y08M13                         A8    D    002 12:20:45:01 12:20:45:03 01:11:24:13 01:11:24:15 
*FROM CLIP NAME:  11K4/02.SYNC.01 
*TO CLIP NAME:  11K2/02.SYNC.01 
*SOURCE FILE: 19Y08M13
002891  MSMMMOB.90                       A     C        12:20:45:04 12:20:46:15 01:11:24:15 01:11:26:01 
*FROM CLIP NAME:  B018C008_190813_R481 
*SOURCE FILE: MSMMMOB.90
002892  MSMMMOB.90                       A2    C        12:20:45:04 12:20:46:15 01:11:24:15 01:11:26:01 
*FROM CLIP NAME:  B018C008_190813_R481 
*SOURCE FILE: MSMMMOB.90
002893  19Y08M13                         A3    C        12:20:45:03 12:20:46:14 01:11:24:15 01:11:26:01 
*FROM CLIP NAME:  11K2/02.SYNC.01 
*SOURCE FILE: 19Y08M13
002894  19Y08M13                         A4    C        12:20:45:03 12:20:46:14 01:11:24:15 01:11:26:01 
*FROM CLIP NAME:  11K2/02.SYNC.01 
*SOURCE FILE: 19Y08M13
002895  19Y08M13                         A5    C        12:20:45:03 12:20:46:14 01:11:24:15 01:11:26:01 
*FROM CLIP NAME:  11K2/02.SYNC.01 
*SOURCE FILE: 19Y08M13
002896  19Y08M13                         A6    C        12:20:45:03 12:20:46:14 01:11:24:15 01:11:26:01 
*FROM CLIP NAME:  11K2/02.SYNC.01 
*SOURCE FILE: 19Y08M13
002897  19Y08M13                         A7    C        12:20:45:03 12:20:46:14 01:11:24:15 01:11:26:01 
*FROM CLIP NAME:  11K2/02.SYNC.01 
*SOURCE FILE: 19Y08M13
002898  19Y08M13                         A8    C        12:20:45:03 12:20:46:14 01:11:24:15 01:11:26:01 
*FROM CLIP NAME:  11K2/02.SYNC.01 
*SOURCE FILE: 19Y08M13
002899  MSMMMOB.02                       V     C        12:40:37:22 12:40:40:14 01:11:25:20 01:11:28:12 
M2      MSMMMOB.02                                025.0 12:40:37:22 
*FROM CLIP NAME:  A071C010_190813_R32C 
*SOURCE FILE: MSMMMOB.02
002900  MSMMMOB.90                       A     C        12:20:46:15 12:20:46:15 01:11:26:01 01:11:26:01 
002900  19Y08M13                         A     D    002 12:40:38:02 12:40:38:04 01:11:26:01 01:11:26:03 
*FROM CLIP NAME:  B018C008_190813_R481 
*TO CLIP NAME:  11K4/02.SYNC.01 
*SOURCE FILE: MSMMMOB.90
002901  MSMMMOB.90                       A2    C        12:20:46:15 12:20:46:15 01:11:26:01 01:11:26:01 
002901  19Y08M13                         A2    D    002 12:40:38:02 12:40:38:04 01:11:26:01 01:11:26:03 
*FROM CLIP NAME:  B018C008_190813_R481 
*TO CLIP NAME:  11K4/02.SYNC.01 
*SOURCE FILE: MSMMMOB.90
002902  19Y08M13                         A3    C        12:20:46:14 12:20:46:14 01:11:26:01 01:11:26:01 
002902  19Y08M13                         A3    D    002 12:40:38:02 12:40:38:04 01:11:26:01 01:11:26:03 
*FROM CLIP NAME:  11K2/02.SYNC.01 
*TO CLIP NAME:  11K4/02.SYNC.01 
*SOURCE FILE: 19Y08M13
002903  19Y08M13                         A4    C        12:20:46:14 12:20:46:14 01:11:26:01 01:11:26:01 
002903  19Y08M13                         A4    D    002 12:40:38:02 12:40:38:04 01:11:26:01 01:11:26:03 
*FROM CLIP NAME:  11K2/02.SYNC.01 
*TO CLIP NAME:  11K4/02.SYNC.01 
*SOURCE FILE: 19Y08M13
002904  19Y08M13                         A5    C        12:20:46:14 12:20:46:14 01:11:26:01 01:11:26:01 
002904  19Y08M13                         A5    D    002 12:40:38:02 12:40:38:04 01:11:26:01 01:11:26:03 
*FROM CLIP NAME:  11K2/02.SYNC.01 
*TO CLIP NAME:  11K4/02.SYNC.01 
*SOURCE FILE: 19Y08M13
002905  19Y08M13                         A6    C        12:20:46:14 12:20:46:14 01:11:26:01 01:11:26:01 
002905  19Y08M13                         A6    D    002 12:40:38:02 12:40:38:04 01:11:26:01 01:11:26:03 
*FROM CLIP NAME:  11K2/02.SYNC.01 
*TO CLIP NAME:  11K4/02.SYNC.01 
*SOURCE FILE: 19Y08M13
002906  19Y08M13                         A7    C        12:20:46:14 12:20:46:14 01:11:26:01 01:11:26:01 
002906  19Y08M13                         A7    D    002 12:40:38:02 12:40:38:04 01:11:26:01 01:11:26:03 
*FROM CLIP NAME:  11K2/02.SYNC.01 
*TO CLIP NAME:  11K4/02.SYNC.01 
*SOURCE FILE: 19Y08M13
002907  19Y08M13                         A8    C        12:20:46:14 12:20:46:14 01:11:26:01 01:11:26:01 
002907  19Y08M13                         A8    D    002 12:40:38:02 12:40:38:04 01:11:26:01 01:11:26:03 
*FROM CLIP NAME:  11K2/02.SYNC.01 
*TO CLIP NAME:  11K4/02.SYNC.01 
*SOURCE FILE: 19Y08M13
002908  19Y08M13                         A     C        12:40:38:04 12:40:40:14 01:11:26:03 01:11:28:13 
*FROM CLIP NAME:  11K4/02.SYNC.01 
*SOURCE FILE: 19Y08M13
002909  19Y08M13                         A2    C        12:40:38:04 12:40:40:14 01:11:26:03 01:11:28:13 
*FROM CLIP NAME:  11K4/02.SYNC.01 
*SOURCE FILE: 19Y08M13
002910  19Y08M13                         A3    C        12:40:38:04 12:40:40:14 01:11:26:03 01:11:28:13 
*FROM CLIP NAME:  11K4/02.SYNC.01 
*SOURCE FILE: 19Y08M13
002911  19Y08M13                         A4    C        12:40:38:04 12:40:40:14 01:11:26:03 01:11:28:13 
*FROM CLIP NAME:  11K4/02.SYNC.01 
*SOURCE FILE: 19Y08M13
002912  19Y08M13                         A5    C        12:40:38:04 12:40:40:14 01:11:26:03 01:11:28:13 
*FROM CLIP NAME:  11K4/02.SYNC.01 
*SOURCE FILE: 19Y08M13
002913  19Y08M13                         A6    C        12:40:38:04 12:40:40:14 01:11:26:03 01:11:28:13 
*FROM CLIP NAME:  11K4/02.SYNC.01 
*SOURCE FILE: 19Y08M13
002914  19Y08M13                         A7    C        12:40:38:04 12:40:40:14 01:11:26:03 01:11:28:13 
*FROM CLIP NAME:  11K4/02.SYNC.01 
*SOURCE FILE: 19Y08M13
002915  19Y08M13                         A8    C        12:40:38:04 12:40:40:14 01:11:26:03 01:11:28:13 
*FROM CLIP NAME:  11K4/02.SYNC.01 
*SOURCE FILE: 19Y08M13
002916  00331.MP3                        A13   C        01:00:10:18 01:00:18:00 01:11:27:19 01:11:35:01 
*FROM CLIP NAME:  00331.MP3 
*A13 VOL = -30.7 DB  PAN R100 
*PATCH 00331.MP3:  FROM SOURCE 1 TO RECORD 13 
*SOURCE FILE: 00331.MP3
002917  00331.MP3                        A14   C        01:00:10:18 01:00:18:00 01:11:27:19 01:11:35:01 
*FROM CLIP NAME:  00331.MP3 
*A14 VOL = -30.7 DB  PAN L100 
*PATCH 00331.MP3:  FROM SOURCE 2 TO RECORD 14 
*SOURCE FILE: 00331.MP3
002918  MSMMMOB.15                       V     C        12:20:48:11 12:20:50:24 01:11:28:12 01:11:31:00 
M2      MSMMMOB.15                                025.0 12:20:48:11 
*FROM CLIP NAME:  A071C007_190813_R32C 
*SOURCE FILE: MSMMMOB.15
002919  19Y08M13                         A     C        12:40:40:14 12:40:40:14 01:11:28:13 01:11:28:13 
002919  MSMMMOB.90                       A     D    002 12:20:48:12 12:20:48:14 01:11:28:13 01:11:28:15 
*FROM CLIP NAME:  11K4/02.SYNC.01 
*TO CLIP NAME:  B018C008_190813_R481 
*SOURCE FILE: 19Y08M13
002920  19Y08M13                         A2    C        12:40:40:14 12:40:40:14 01:11:28:13 01:11:28:13 
002920  MSMMMOB.90                       A2    D    002 12:20:48:12 12:20:48:14 01:11:28:13 01:11:28:15 
*FROM CLIP NAME:  11K4/02.SYNC.01 
*TO CLIP NAME:  B018C008_190813_R481 
*SOURCE FILE: 19Y08M13
002921  19Y08M13                         A3    C        12:40:40:14 12:40:40:14 01:11:28:13 01:11:28:13 
002921  19Y08M13                         A3    D    002 12:20:48:11 12:20:48:13 01:11:28:13 01:11:28:15 
*FROM CLIP NAME:  11K4/02.SYNC.01 
*TO CLIP NAME:  11K2/02.SYNC.01 
*SOURCE FILE: 19Y08M13
002922  19Y08M13                         A4    C        12:40:40:14 12:40:40:14 01:11:28:13 01:11:28:13 
002922  19Y08M13                         A4    D    002 12:20:48:11 12:20:48:13 01:11:28:13 01:11:28:15 
*FROM CLIP NAME:  11K4/02.SYNC.01 
*TO CLIP NAME:  11K2/02.SYNC.01 
*SOURCE FILE: 19Y08M13
002923  19Y08M13                         A5    C        12:40:40:14 12:40:40:14 01:11:28:13 01:11:28:13 
002923  19Y08M13                         A5    D    002 12:20:48:11 12:20:48:13 01:11:28:13 01:11:28:15 
*FROM CLIP NAME:  11K4/02.SYNC.01 
*TO CLIP NAME:  11K2/02.SYNC.01 
*SOURCE FILE: 19Y08M13
002924  19Y08M13                         A6    C        12:40:40:14 12:40:40:14 01:11:28:13 01:11:28:13 
002924  19Y08M13                         A6    D    002 12:20:48:11 12:20:48:13 01:11:28:13 01:11:28:15 
*FROM CLIP NAME:  11K4/02.SYNC.01 
*TO CLIP NAME:  11K2/02.SYNC.01 
*SOURCE FILE: 19Y08M13
002925  19Y08M13                         A7    C        12:40:40:14 12:40:40:14 01:11:28:13 01:11:28:13 
002925  19Y08M13                         A7    D    002 12:20:48:11 12:20:48:13 01:11:28:13 01:11:28:15 
*FROM CLIP NAME:  11K4/02.SYNC.01 
*TO CLIP NAME:  11K2/02.SYNC.01 
*SOURCE FILE: 19Y08M13
002926  19Y08M13                         A8    C        12:40:40:14 12:40:40:14 01:11:28:13 01:11:28:13 
002926  19Y08M13                         A8    D    002 12:20:48:11 12:20:48:13 01:11:28:13 01:11:28:15 
*FROM CLIP NAME:  11K4/02.SYNC.01 
*TO CLIP NAME:  11K2/02.SYNC.01 
*SOURCE FILE: 19Y08M13
002927  MSMMMOB.90                       A     C        12:20:48:14 12:20:50:23 01:11:28:15 01:11:30:24 
*FROM CLIP NAME:  B018C008_190813_R481 
*SOURCE FILE: MSMMMOB.90
002928  MSMMMOB.90                       A2    C        12:20:48:14 12:20:50:23 01:11:28:15 01:11:30:24 
*FROM CLIP NAME:  B018C008_190813_R481 
*SOURCE FILE: MSMMMOB.90
002929  19Y08M13                         A3    C        12:20:48:13 12:20:50:22 01:11:28:15 01:11:30:24 
*FROM CLIP NAME:  11K2/02.SYNC.01 
*SOURCE FILE: 19Y08M13
002930  19Y08M13                         A4    C        12:20:48:13 12:20:50:22 01:11:28:15 01:11:30:24 
*FROM CLIP NAME:  11K2/02.SYNC.01 
*SOURCE FILE: 19Y08M13
002931  19Y08M13                         A5    C        12:20:48:13 12:20:50:22 01:11:28:15 01:11:30:24 
*FROM CLIP NAME:  11K2/02.SYNC.01 
*SOURCE FILE: 19Y08M13
002932  19Y08M13                         A6    C        12:20:48:13 12:20:50:22 01:11:28:15 01:11:30:24 
*FROM CLIP NAME:  11K2/02.SYNC.01 
*SOURCE FILE: 19Y08M13
002933  19Y08M13                         A7    C        12:20:48:13 12:20:50:22 01:11:28:15 01:11:30:24 
*FROM CLIP NAME:  11K2/02.SYNC.01 
*SOURCE FILE: 19Y08M13
002934  19Y08M13                         A8    C        12:20:48:13 12:20:50:22 01:11:28:15 01:11:30:24 
*FROM CLIP NAME:  11K2/02.SYNC.01 
*SOURCE FILE: 19Y08M13
002935  MSMMMOB.90                       A     C        12:20:50:23 12:20:50:23 01:11:30:24 01:11:30:24 
002935  19Y08M13                         A     D    002 12:40:43:15 12:40:43:17 01:11:30:24 01:11:31:01 
*FROM CLIP NAME:  B018C008_190813_R481 
*TO CLIP NAME:  11K4/02.SYNC.01 
*SOURCE FILE: MSMMMOB.90
002936  MSMMMOB.90                       A2    C        12:20:50:23 12:20:50:23 01:11:30:24 01:11:30:24 
002936  19Y08M13                         A2    D    002 12:40:43:15 12:40:43:17 01:11:30:24 01:11:31:01 
*FROM CLIP NAME:  B018C008_190813_R481 
*TO CLIP NAME:  11K4/02.SYNC.01 
*SOURCE FILE: MSMMMOB.90
002937  19Y08M13                         A3    C        12:20:50:22 12:20:50:22 01:11:30:24 01:11:30:24 
002937  19Y08M13                         A3    D    002 12:40:43:15 12:40:43:17 01:11:30:24 01:11:31:01 
*FROM CLIP NAME:  11K2/02.SYNC.01 
*TO CLIP NAME:  11K4/02.SYNC.01 
*SOURCE FILE: 19Y08M13
002938  19Y08M13                         A4    C        12:20:50:22 12:20:50:22 01:11:30:24 01:11:30:24 
002938  19Y08M13                         A4    D    002 12:40:43:15 12:40:43:17 01:11:30:24 01:11:31:01 
*FROM CLIP NAME:  11K2/02.SYNC.01 
*TO CLIP NAME:  11K4/02.SYNC.01 
*SOURCE FILE: 19Y08M13
002939  19Y08M13                         A5    C        12:20:50:22 12:20:50:22 01:11:30:24 01:11:30:24 
002939  19Y08M13                         A5    D    002 12:40:43:15 12:40:43:17 01:11:30:24 01:11:31:01 
*FROM CLIP NAME:  11K2/02.SYNC.01 
*TO CLIP NAME:  11K4/02.SYNC.01 
*SOURCE FILE: 19Y08M13
002940  19Y08M13                         A6    C        12:20:50:22 12:20:50:22 01:11:30:24 01:11:30:24 
002940  19Y08M13                         A6    D    002 12:40:43:15 12:40:43:17 01:11:30:24 01:11:31:01 
*FROM CLIP NAME:  11K2/02.SYNC.01 
*TO CLIP NAME:  11K4/02.SYNC.01 
*SOURCE FILE: 19Y08M13
002941  19Y08M13                         A7    C        12:20:50:22 12:20:50:22 01:11:30:24 01:11:30:24 
002941  19Y08M13                         A7    D    002 12:40:43:15 12:40:43:17 01:11:30:24 01:11:31:01 
*FROM CLIP NAME:  11K2/02.SYNC.01 
*TO CLIP NAME:  11K4/02.SYNC.01 
*SOURCE FILE: 19Y08M13
002942  19Y08M13                         A8    C        12:20:50:22 12:20:50:22 01:11:30:24 01:11:30:24 
002942  19Y08M13                         A8    D    002 12:40:43:15 12:40:43:17 01:11:30:24 01:11:31:01 
*FROM CLIP NAME:  11K2/02.SYNC.01 
*TO CLIP NAME:  11K4/02.SYNC.01 
*SOURCE FILE: 19Y08M13
002943  MSMMMOB.02                       V     C        12:40:43:17 12:40:46:10 01:11:31:00 01:11:33:18 
M2      MSMMMOB.02                                025.0 12:40:43:17 
*FROM CLIP NAME:  A071C010_190813_R32C 
*SOURCE FILE: MSMMMOB.02
002944  19Y08M13                         A     C        12:40:43:17 12:40:45:14 01:11:31:01 01:11:32:23 
*FROM CLIP NAME:  11K4/02.SYNC.01 
*SOURCE FILE: 19Y08M13
002945  19Y08M13                         A2    C        12:40:43:17 12:40:45:14 01:11:31:01 01:11:32:23 
*FROM CLIP NAME:  11K4/02.SYNC.01 
*SOURCE FILE: 19Y08M13
002946  19Y08M13                         A3    C        12:40:43:17 12:40:45:14 01:11:31:01 01:11:32:23 
*FROM CLIP NAME:  11K4/02.SYNC.01 
*SOURCE FILE: 19Y08M13
002947  19Y08M13                         A4    C        12:40:43:17 12:40:45:14 01:11:31:01 01:11:32:23 
*FROM CLIP NAME:  11K4/02.SYNC.01 
*SOURCE FILE: 19Y08M13
002948  19Y08M13                         A5    C        12:40:43:17 12:40:45:14 01:11:31:01 01:11:32:23 
*FROM CLIP NAME:  11K4/02.SYNC.01 
*SOURCE FILE: 19Y08M13
002949  19Y08M13                         A6    C        12:40:43:17 12:40:45:14 01:11:31:01 01:11:32:23 
*FROM CLIP NAME:  11K4/02.SYNC.01 
*SOURCE FILE: 19Y08M13
002950  19Y08M13                         A7    C        12:40:43:17 12:40:45:14 01:11:31:01 01:11:32:23 
*FROM CLIP NAME:  11K4/02.SYNC.01 
*SOURCE FILE: 19Y08M13
002951  19Y08M13                         A8    C        12:40:43:17 12:40:45:14 01:11:31:01 01:11:32:23 
*FROM CLIP NAME:  11K4/02.SYNC.01 
*SOURCE FILE: 19Y08M13
002952  BL                               A15   C        00:00:00:00 00:00:00:00 01:11:31:04 01:11:31:04 
002952  08_AUTUMN_ONE.MP3                A15   D    063 01:00:00:00 01:00:02:13 01:11:31:04 01:11:33:17 
*TO CLIP NAME:  08 AUTUMN ONE.MP3 
*A15 VOL = -14.0 DB  PAN L100 
*EQ BAND 1 (LO SHELF) FREQ:240.0 HZ  GAIN: +15.0 DB  Q: 1410 
*EQ BAND 2 (PRESENCE) FREQ:  2.5  KHZ  GAIN:  -9.3 DB  Q:  670 
*EQ BAND 3 (HI SHELF) FREQ: 15.0  KHZ  GAIN: -20.0 DB  Q: 1410 
*PATCH 08_AUTUMN_ONE.MP3:  FROM SOURCE 1 TO RECORD 15 
*SOURCE FILE: (NULL)
002953  BL                               A16   C        00:00:00:00 00:00:00:00 01:11:31:04 01:11:31:04 
002953  08_AUTUMN_ONE.MP3                A16   D    063 01:00:00:00 01:00:02:13 01:11:31:04 01:11:33:17 
*TO CLIP NAME:  08 AUTUMN ONE.MP3 
*A16 VOL = -14.0 DB  PAN R100 
*EQ BAND 1 (LO SHELF) FREQ:240.0 HZ  GAIN: +15.0 DB  Q: 1410 
*EQ BAND 2 (PRESENCE) FREQ:  2.5  KHZ  GAIN:  -9.3 DB  Q:  670 
*EQ BAND 3 (HI SHELF) FREQ: 15.0  KHZ  GAIN: -20.0 DB  Q: 1410 
*PATCH 08_AUTUMN_ONE.MP3:  FROM SOURCE 2 TO RECORD 16 
*SOURCE FILE: (NULL)
002954  08551.MP3                        A9    C        01:00:00:00 01:00:02:05 01:11:32:07 01:11:34:12 
*FROM CLIP NAME:  08551.MP3 
*A9 VOL = -14.3 DB  PAN L100 
*PATCH 08551.MP3:  FROM SOURCE 1 TO RECORD 9 
*SOURCE FILE: 08551.MP3
002955  08551.MP3                        A10   C        01:00:00:00 01:00:02:05 01:11:32:07 01:11:34:12 
*FROM CLIP NAME:  08551.MP3 
*A10 VOL = -14.3 DB  PAN R100 
*PATCH 08551.MP3:  FROM SOURCE 2 TO RECORD 10 
*SOURCE FILE: 08551.MP3
002956  19Y08M13                         A     C        12:40:45:14 12:40:45:14 01:11:32:23 01:11:32:23 
002956  MSMMMOB.90                       A     D    002 12:20:51:01 12:20:51:03 01:11:32:23 01:11:33:00 
*FROM CLIP NAME:  11K4/02.SYNC.01 
*TO CLIP NAME:  B018C008_190813_R481 
*SOURCE FILE: 19Y08M13
002957  19Y08M13                         A2    C        12:40:45:14 12:40:45:14 01:11:32:23 01:11:32:23 
002957  MSMMMOB.90                       A2    D    002 12:20:51:01 12:20:51:03 01:11:32:23 01:11:33:00 
*FROM CLIP NAME:  11K4/02.SYNC.01 
*TO CLIP NAME:  B018C008_190813_R481 
*SOURCE FILE: 19Y08M13
002958  19Y08M13                         A3    C        12:40:45:14 12:40:45:14 01:11:32:23 01:11:32:23 
002958  19Y08M13                         A3    D    002 12:20:51:00 12:20:51:02 01:11:32:23 01:11:33:00 
*FROM CLIP NAME:  11K4/02.SYNC.01 
*TO CLIP NAME:  11K2/02.SYNC.01 
*SOURCE FILE: 19Y08M13
002959  19Y08M13                         A4    C        12:40:45:14 12:40:45:14 01:11:32:23 01:11:32:23 
002959  19Y08M13                         A4    D    002 12:20:51:00 12:20:51:02 01:11:32:23 01:11:33:00 
*FROM CLIP NAME:  11K4/02.SYNC.01 
*TO CLIP NAME:  11K2/02.SYNC.01 
*SOURCE FILE: 19Y08M13
002960  19Y08M13                         A5    C        12:40:45:14 12:40:45:14 01:11:32:23 01:11:32:23 
002960  19Y08M13                         A5    D    002 12:20:51:00 12:20:51:02 01:11:32:23 01:11:33:00 
*FROM CLIP NAME:  11K4/02.SYNC.01 
*TO CLIP NAME:  11K2/02.SYNC.01 
*SOURCE FILE: 19Y08M13
002961  19Y08M13                         A6    C        12:40:45:14 12:40:45:14 01:11:32:23 01:11:32:23 
002961  BL                               A6    D    002 00:00:00:00 00:00:00:02 01:11:32:23 01:11:33:00 
*FROM CLIP NAME:  11K4/02.SYNC.01 
*SOURCE FILE: 19Y08M13
002962  19Y08M13                         A7    C        12:40:45:14 12:40:45:14 01:11:32:23 01:11:32:23 
002962  19Y08M13                         A7    D    002 12:20:51:00 12:20:51:02 01:11:32:23 01:11:33:00 
*FROM CLIP NAME:  11K4/02.SYNC.01 
*TO CLIP NAME:  11K2/02.SYNC.01 
*SOURCE FILE: 19Y08M13
002963  19Y08M13                         A8    C        12:40:45:14 12:40:45:14 01:11:32:23 01:11:32:23 
002963  19Y08M13                         A8    D    002 12:20:51:00 12:20:51:02 01:11:32:23 01:11:33:00 
*FROM CLIP NAME:  11K4/02.SYNC.01 
*TO CLIP NAME:  11K2/02.SYNC.01 
*SOURCE FILE: 19Y08M13
002964  MSMMMOB.90                       A     C        12:20:51:03 12:20:51:12 01:11:33:00 01:11:33:09 
*FROM CLIP NAME:  B018C008_190813_R481 
*SOURCE FILE: MSMMMOB.90
002965  MSMMMOB.90                       A2    C        12:20:51:03 12:20:51:12 01:11:33:00 01:11:33:09 
*FROM CLIP NAME:  B018C008_190813_R481 
*SOURCE FILE: MSMMMOB.90
002966  19Y08M13                         A3    C        12:20:51:02 12:20:51:11 01:11:33:00 01:11:33:09 
*FROM CLIP NAME:  11K2/02.SYNC.01 
*SOURCE FILE: 19Y08M13
002967  19Y08M13                         A4    C        12:20:51:02 12:20:51:11 01:11:33:00 01:11:33:09 
*FROM CLIP NAME:  11K2/02.SYNC.01 
*SOURCE FILE: 19Y08M13
002968  19Y08M13                         A5    C        12:20:51:02 12:20:51:11 01:11:33:00 01:11:33:09 
*FROM CLIP NAME:  11K2/02.SYNC.01 
*SOURCE FILE: 19Y08M13
002969  19Y08M13                         A7    C        12:20:51:02 12:20:51:11 01:11:33:00 01:11:33:09 
*FROM CLIP NAME:  11K2/02.SYNC.01 
*SOURCE FILE: 19Y08M13
002970  19Y08M13                         A8    C        12:20:51:02 12:20:51:11 01:11:33:00 01:11:33:09 
*FROM CLIP NAME:  11K2/02.SYNC.01 
*SOURCE FILE: 19Y08M13
002971  MSMMMOB.90                       A     C        12:20:52:08 12:20:52:21 01:11:33:09 01:11:33:22 
*FROM CLIP NAME:  B018C008_190813_R481 
*SOURCE FILE: MSMMMOB.90
002972  MSMMMOB.90                       A2    C        12:20:52:08 12:20:52:21 01:11:33:09 01:11:33:22 
*FROM CLIP NAME:  B018C008_190813_R481 
*SOURCE FILE: MSMMMOB.90
002973  19Y08M13                         A3    C        12:20:52:07 12:20:53:23 01:11:33:09 01:11:35:00 
*FROM CLIP NAME:  11K2/02.SYNC.01 
*SOURCE FILE: 19Y08M13
002974  19Y08M13                         A4    C        12:20:52:07 12:20:53:23 01:11:33:09 01:11:35:00 
*FROM CLIP NAME:  11K2/02.SYNC.01 
*SOURCE FILE: 19Y08M13
002975  19Y08M13                         A5    C        12:20:52:07 12:20:53:23 01:11:33:09 01:11:35:00 
*FROM CLIP NAME:  11K2/02.SYNC.01 
*SOURCE FILE: 19Y08M13
002976  19Y08M13                         A7    C        12:20:52:07 12:20:53:23 01:11:33:09 01:11:35:00 
*FROM CLIP NAME:  11K2/02.SYNC.01 
*SOURCE FILE: 19Y08M13
002977  19Y08M13                         A8    C        12:20:52:07 12:20:53:23 01:11:33:09 01:11:35:00 
*FROM CLIP NAME:  11K2/02.SYNC.01 
*SOURCE FILE: 19Y08M13
002978  08_AUTUMN_ONE.MP3                A15   C        01:00:02:13 01:00:06:22 01:11:33:17 01:11:38:01 
*FROM CLIP NAME:  08 AUTUMN ONE.MP3 
*A15 VOL = -14.0 DB  PAN L100 
*EQ BAND 1 (LO SHELF) FREQ:240.0 HZ  GAIN: +15.0 DB  Q: 1410 
*EQ BAND 2 (PRESENCE) FREQ:  2.5  KHZ  GAIN:  -9.3 DB  Q:  670 
*EQ BAND 3 (HI SHELF) FREQ: 15.0  KHZ  GAIN: -20.0 DB  Q: 1410 
*PATCH 08_AUTUMN_ONE.MP3:  FROM SOURCE 1 TO RECORD 15 
*SOURCE FILE: 08 AUTUMN ONE.MP3
002979  08_AUTUMN_ONE.MP3                A16   C        01:00:02:13 01:00:06:22 01:11:33:17 01:11:38:01 
*FROM CLIP NAME:  08 AUTUMN ONE.MP3 
*A16 VOL = -14.0 DB  PAN R100 
*EQ BAND 1 (LO SHELF) FREQ:240.0 HZ  GAIN: +15.0 DB  Q: 1410 
*EQ BAND 2 (PRESENCE) FREQ:  2.5  KHZ  GAIN:  -9.3 DB  Q:  670 
*EQ BAND 3 (HI SHELF) FREQ: 15.0  KHZ  GAIN: -20.0 DB  Q: 1410 
*PATCH 08_AUTUMN_ONE.MP3:  FROM SOURCE 2 TO RECORD 16 
*SOURCE FILE: 08 AUTUMN ONE.MP3
002980  MSMMMOB.90                       V     C        12:20:52:17 12:20:54:00 01:11:33:18 01:11:35:01 
M2      MSMMMOB.90                                025.0 12:20:52:17 
*FROM CLIP NAME:  B018C008_190813_R481 
*SOURCE FILE: MSMMMOB.90
002981  MSMMMOB.90                       A     C        12:20:52:21 12:20:53:24 01:11:33:22 01:11:35:00 
*FROM CLIP NAME:  B018C008_190813_R481 
*SOURCE FILE: MSMMMOB.90
002982  MSMMMOB.90                       A2    C        12:20:52:21 12:20:53:24 01:11:33:22 01:11:35:00 
*FROM CLIP NAME:  B018C008_190813_R481 
*SOURCE FILE: MSMMMOB.90
002983  MSMMMOB.90                       A     C        12:20:53:24 12:20:53:24 01:11:35:00 01:11:35:00 
002983  19Y08M13                         A     D    002 11:58:23:20 11:58:23:22 01:11:35:00 01:11:35:02 
*FROM CLIP NAME:  B018C008_190813_R481 
*TO CLIP NAME:  11K1/04.SYNC.01 
*SOURCE FILE: MSMMMOB.90
002984  MSMMMOB.90                       A2    C        12:20:53:24 12:20:53:24 01:11:35:00 01:11:35:00 
002984  19Y08M13                         A2    D    002 11:58:23:20 11:58:23:22 01:11:35:00 01:11:35:02 
*FROM CLIP NAME:  B018C008_190813_R481 
*TO CLIP NAME:  11K1/04.SYNC.01 
*SOURCE FILE: MSMMMOB.90
002985  19Y08M13                         A3    C        12:20:53:23 12:20:53:23 01:11:35:00 01:11:35:00 
002985  19Y08M13                         A3    D    002 11:58:23:20 11:58:23:22 01:11:35:00 01:11:35:02 
*FROM CLIP NAME:  11K2/02.SYNC.01 
*TO CLIP NAME:  11K1/04.SYNC.01 
*SOURCE FILE: 19Y08M13
002986  19Y08M13                         A4    C        12:20:53:23 12:20:53:23 01:11:35:00 01:11:35:00 
002986  19Y08M13                         A4    D    002 11:58:23:20 11:58:23:22 01:11:35:00 01:11:35:02 
*FROM CLIP NAME:  11K2/02.SYNC.01 
*TO CLIP NAME:  11K1/04.SYNC.01 
*SOURCE FILE: 19Y08M13
002987  19Y08M13                         A5    C        12:20:53:23 12:20:53:23 01:11:35:00 01:11:35:00 
002987  19Y08M13                         A5    D    002 11:58:23:20 11:58:23:22 01:11:35:00 01:11:35:02 
*FROM CLIP NAME:  11K2/02.SYNC.01 
*TO CLIP NAME:  11K1/04.SYNC.01 
*SOURCE FILE: 19Y08M13
002988  19Y08M13                         A7    C        12:20:53:23 12:20:53:23 01:11:35:00 01:11:35:00 
002988  19Y08M13                         A7    D    002 11:58:23:20 11:58:23:22 01:11:35:00 01:11:35:02 
*FROM CLIP NAME:  11K2/02.SYNC.01 
*TO CLIP NAME:  11K1/04.SYNC.01 
*SOURCE FILE: 19Y08M13
002989  19Y08M13                         A8    C        12:20:53:23 12:20:53:23 01:11:35:00 01:11:35:00 
002989  19Y08M13                         A8    D    002 11:58:23:20 11:58:23:22 01:11:35:00 01:11:35:02 
*FROM CLIP NAME:  11K2/02.SYNC.01 
*TO CLIP NAME:  11K1/04.SYNC.01 
*SOURCE FILE: 19Y08M13
002990  00331.MP3                        A13   C        01:00:20:05 01:00:23:03 01:11:35:01 01:11:37:24 
*FROM CLIP NAME:  00331.MP3 
*A13 VOL = -30.7 DB  PAN R100 
*PATCH 00331.MP3:  FROM SOURCE 1 TO RECORD 13 
*SOURCE FILE: 00331.MP3
002991  00331.MP3                        A14   C        01:00:20:05 01:00:23:03 01:11:35:01 01:11:37:24 
*FROM CLIP NAME:  00331.MP3 
*A14 VOL = -30.7 DB  PAN L100 
*PATCH 00331.MP3:  FROM SOURCE 2 TO RECORD 14 
*SOURCE FILE: 00331.MP3
002992  MSMMMOB.77                       V     C        17:14:01:08 17:14:04:08 01:11:35:01 01:11:38:01 
M2      MSMMMOB.77                                025.0 17:14:01:08 
*FROM CLIP NAME:  11-14-5 
*SOURCE FILE: MSMMMOB.77
002993  19Y08M13                         A     C        11:58:23:22 11:58:24:08 01:11:35:02 01:11:35:13 
*FROM CLIP NAME:  11K1/04.SYNC.01 
*SOURCE FILE: 19Y08M13
002994  19Y08M13                         A2    C        11:58:23:22 11:58:24:08 01:11:35:02 01:11:35:13 
*FROM CLIP NAME:  11K1/04.SYNC.01 
*SOURCE FILE: 19Y08M13
002995  19Y08M13                         A3    C        11:58:23:22 11:58:24:08 01:11:35:02 01:11:35:13 
*FROM CLIP NAME:  11K1/04.SYNC.01 
*SOURCE FILE: 19Y08M13
002996  19Y08M13                         A4    C        11:58:23:22 11:58:24:08 01:11:35:02 01:11:35:13 
*FROM CLIP NAME:  11K1/04.SYNC.01 
*SOURCE FILE: 19Y08M13
002997  19Y08M13                         A5    C        11:58:23:22 11:58:24:08 01:11:35:02 01:11:35:13 
*FROM CLIP NAME:  11K1/04.SYNC.01 
*SOURCE FILE: 19Y08M13
002998  19Y08M13                         A7    C        11:58:23:22 11:58:24:08 01:11:35:02 01:11:35:13 
*FROM CLIP NAME:  11K1/04.SYNC.01 
*SOURCE FILE: 19Y08M13
002999  19Y08M13                         A8    C        11:58:23:22 11:58:24:08 01:11:35:02 01:11:35:13 
*FROM CLIP NAME:  11K1/04.SYNC.01 
*SOURCE FILE: 19Y08M13
003000  19Y08M13                         A     C        11:58:24:08 11:58:24:08 01:11:35:13 01:11:35:13 
003000  19Y08M13                         A     D    005 11:54:27:05 11:54:27:10 01:11:35:13 01:11:35:18 
*FROM CLIP NAME:  11K1/04.SYNC.01 
*TO CLIP NAME:  11K1/03.SYNC.01 
*SOURCE FILE: 19Y08M13
003001  19Y08M13                         A2    C        11:58:24:08 11:58:24:08 01:11:35:13 01:11:35:13 
003001  19Y08M13                         A2    D    005 11:54:27:05 11:54:27:10 01:11:35:13 01:11:35:18 
*FROM CLIP NAME:  11K1/04.SYNC.01 
*TO CLIP NAME:  11K1/03.SYNC.01 
*SOURCE FILE: 19Y08M13
003002  19Y08M13                         A3    C        11:58:24:08 11:58:24:08 01:11:35:13 01:11:35:13 
003002  19Y08M13                         A3    D    005 11:54:27:05 11:54:27:10 01:11:35:13 01:11:35:18 
*FROM CLIP NAME:  11K1/04.SYNC.01 
*TO CLIP NAME:  11K1/03.SYNC.01 
*SOURCE FILE: 19Y08M13
003003  19Y08M13                         A4    C        11:58:24:08 11:58:24:08 01:11:35:13 01:11:35:13 
003003  19Y08M13                         A4    D    005 11:54:27:05 11:54:27:10 01:11:35:13 01:11:35:18 
*FROM CLIP NAME:  11K1/04.SYNC.01 
*TO CLIP NAME:  11K1/03.SYNC.01 
*SOURCE FILE: 19Y08M13
003004  19Y08M13                         A5    C        11:58:24:08 11:58:24:08 01:11:35:13 01:11:35:13 
003004  19Y08M13                         A5    D    005 11:54:27:05 11:54:27:10 01:11:35:13 01:11:35:18 
*FROM CLIP NAME:  11K1/04.SYNC.01 
*TO CLIP NAME:  11K1/03.SYNC.01 
*SOURCE FILE: 19Y08M13
003005  BL                               A6    C        00:00:00:00 00:00:00:00 01:11:35:13 01:11:35:13 
003005  19Y08M13                         A6    D    005 11:54:27:05 11:54:27:10 01:11:35:13 01:11:35:18 
*TO CLIP NAME:  11K1/03.SYNC.01 
*SOURCE FILE: (NULL)
003006  19Y08M13                         A7    C        11:58:24:08 11:58:24:08 01:11:35:13 01:11:35:13 
003006  19Y08M13                         A7    D    005 11:54:27:05 11:54:27:10 01:11:35:13 01:11:35:18 
*FROM CLIP NAME:  11K1/04.SYNC.01 
*TO CLIP NAME:  11K1/03.SYNC.01 
*SOURCE FILE: 19Y08M13
003007  19Y08M13                         A8    C        11:58:24:08 11:58:24:08 01:11:35:13 01:11:35:13 
003007  19Y08M13                         A8    D    005 11:54:27:05 11:54:27:10 01:11:35:13 01:11:35:18 
*FROM CLIP NAME:  11K1/04.SYNC.01 
*TO CLIP NAME:  11K1/03.SYNC.01 
*SOURCE FILE: 19Y08M13
003008  19Y08M13                         A     C        11:54:27:10 11:54:29:06 01:11:35:18 01:11:37:14 
*FROM CLIP NAME:  11K1/03.SYNC.01 
*SOURCE FILE: 19Y08M13
003009  19Y08M13                         A2    C        11:54:27:10 11:54:29:06 01:11:35:18 01:11:37:14 
*FROM CLIP NAME:  11K1/03.SYNC.01 
*SOURCE FILE: 19Y08M13
003010  19Y08M13                         A3    C        11:54:27:10 11:54:29:06 01:11:35:18 01:11:37:14 
*FROM CLIP NAME:  11K1/03.SYNC.01 
*SOURCE FILE: 19Y08M13
003011  19Y08M13                         A4    C        11:54:27:10 11:54:29:06 01:11:35:18 01:11:37:14 
*FROM CLIP NAME:  11K1/03.SYNC.01 
*SOURCE FILE: 19Y08M13
003012  19Y08M13                         A5    C        11:54:27:10 11:54:29:06 01:11:35:18 01:11:37:14 
*FROM CLIP NAME:  11K1/03.SYNC.01 
*SOURCE FILE: 19Y08M13
003013  19Y08M13                         A6    C        11:54:27:10 11:54:29:06 01:11:35:18 01:11:37:14 
*FROM CLIP NAME:  11K1/03.SYNC.01 
*SOURCE FILE: 19Y08M13
003014  19Y08M13                         A7    C        11:54:27:10 11:54:29:06 01:11:35:18 01:11:37:14 
*FROM CLIP NAME:  11K1/03.SYNC.01 
*SOURCE FILE: 19Y08M13
003015  19Y08M13                         A8    C        11:54:27:10 11:54:29:06 01:11:35:18 01:11:37:14 
*FROM CLIP NAME:  11K1/03.SYNC.01 
*SOURCE FILE: 19Y08M13
003016  19Y08M13                         A     C        11:54:29:06 11:54:29:06 01:11:37:14 01:11:37:14 
003016  19Y08M13                         A     D    005 12:40:46:09 12:40:46:14 01:11:37:14 01:11:37:19 
*FROM CLIP NAME:  11K1/03.SYNC.01 
*TO CLIP NAME:  11K4/02.SYNC.01 
*SOURCE FILE: 19Y08M13
003017  19Y08M13                         A2    C        11:54:29:06 11:54:29:06 01:11:37:14 01:11:37:14 
003017  19Y08M13                         A2    D    005 12:40:46:09 12:40:46:14 01:11:37:14 01:11:37:19 
*FROM CLIP NAME:  11K1/03.SYNC.01 
*TO CLIP NAME:  11K4/02.SYNC.01 
*SOURCE FILE: 19Y08M13
003018  19Y08M13                         A3    C        11:54:29:06 11:54:29:06 01:11:37:14 01:11:37:14 
003018  19Y08M13                         A3    D    005 12:40:46:09 12:40:46:14 01:11:37:14 01:11:37:19 
*FROM CLIP NAME:  11K1/03.SYNC.01 
*TO CLIP NAME:  11K4/02.SYNC.01 
*SOURCE FILE: 19Y08M13
003019  19Y08M13                         A4    C        11:54:29:06 11:54:29:06 01:11:37:14 01:11:37:14 
003019  19Y08M13                         A4    D    005 12:40:46:09 12:40:46:14 01:11:37:14 01:11:37:19 
*FROM CLIP NAME:  11K1/03.SYNC.01 
*TO CLIP NAME:  11K4/02.SYNC.01 
*SOURCE FILE: 19Y08M13
003020  19Y08M13                         A5    C        11:54:29:06 11:54:29:06 01:11:37:14 01:11:37:14 
003020  19Y08M13                         A5    D    005 12:40:46:09 12:40:46:14 01:11:37:14 01:11:37:19 
*FROM CLIP NAME:  11K1/03.SYNC.01 
*TO CLIP NAME:  11K4/02.SYNC.01 
*SOURCE FILE: 19Y08M13
003021  19Y08M13                         A6    C        11:54:29:06 11:54:29:06 01:11:37:14 01:11:37:14 
003021  19Y08M13                         A6    D    005 12:40:46:09 12:40:46:14 01:11:37:14 01:11:37:19 
*FROM CLIP NAME:  11K1/03.SYNC.01 
*TO CLIP NAME:  11K4/02.SYNC.01 
*SOURCE FILE: 19Y08M13
003022  19Y08M13                         A7    C        11:54:29:06 11:54:29:06 01:11:37:14 01:11:37:14 
003022  19Y08M13                         A7    D    005 12:40:46:09 12:40:46:14 01:11:37:14 01:11:37:19 
*FROM CLIP NAME:  11K1/03.SYNC.01 
*TO CLIP NAME:  11K4/02.SYNC.01 
*SOURCE FILE: 19Y08M13
003023  19Y08M13                         A8    C        11:54:29:06 11:54:29:06 01:11:37:14 01:11:37:14 
003023  19Y08M13                         A8    D    005 12:40:46:09 12:40:46:14 01:11:37:14 01:11:37:19 
*FROM CLIP NAME:  11K1/03.SYNC.01 
*TO CLIP NAME:  11K4/02.SYNC.01 
*SOURCE FILE: 19Y08M13
003024  19Y08M13                         A     C        12:40:46:14 12:40:51:22 01:11:37:19 01:11:43:02 
*FROM CLIP NAME:  11K4/02.SYNC.01 
*SOURCE FILE: 19Y08M13
003025  19Y08M13                         A2    C        12:40:46:14 12:40:51:22 01:11:37:19 01:11:43:02 
*FROM CLIP NAME:  11K4/02.SYNC.01 
*SOURCE FILE: 19Y08M13
003026  19Y08M13                         A3    C        12:40:46:14 12:40:51:22 01:11:37:19 01:11:43:02 
*FROM CLIP NAME:  11K4/02.SYNC.01 
*SOURCE FILE: 19Y08M13
003027  19Y08M13                         A4    C        12:40:46:14 12:40:51:22 01:11:37:19 01:11:43:02 
*FROM CLIP NAME:  11K4/02.SYNC.01 
*SOURCE FILE: 19Y08M13
003028  19Y08M13                         A5    C        12:40:46:14 12:40:51:22 01:11:37:19 01:11:43:02 
*FROM CLIP NAME:  11K4/02.SYNC.01 
*SOURCE FILE: 19Y08M13
003029  19Y08M13                         A6    C        12:40:46:14 12:40:51:22 01:11:37:19 01:11:43:02 
*FROM CLIP NAME:  11K4/02.SYNC.01 
*SOURCE FILE: 19Y08M13
003030  19Y08M13                         A7    C        12:40:46:14 12:40:51:22 01:11:37:19 01:11:43:02 
*FROM CLIP NAME:  11K4/02.SYNC.01 
*SOURCE FILE: 19Y08M13
003031  19Y08M13                         A8    C        12:40:46:14 12:40:51:22 01:11:37:19 01:11:43:02 
*FROM CLIP NAME:  11K4/02.SYNC.01 
*SOURCE FILE: 19Y08M13
003032  00331.MP3                        A13   C        01:00:42:09 01:00:44:09 01:11:37:24 01:11:39:24 
*FROM CLIP NAME:  00331.MP3 
*A13 VOL = -30.7 DB  PAN R100 
*PATCH 00331.MP3:  FROM SOURCE 1 TO RECORD 13 
*SOURCE FILE: 00331.MP3
003033  00331.MP3                        A14   C        01:00:42:09 01:00:44:09 01:11:37:24 01:11:39:24 
*FROM CLIP NAME:  00331.MP3 
*A14 VOL = -30.7 DB  PAN L100 
*PATCH 00331.MP3:  FROM SOURCE 2 TO RECORD 14 
*SOURCE FILE: 00331.MP3
003034  MSMMMOB.78                       V     C        12:40:46:22 12:40:51:23 01:11:38:01 01:11:43:02 
M2      MSMMMOB.78                                025.0 12:40:46:22 
*FROM CLIP NAME:  B018C011_190813_R481 
*SOURCE FILE: MSMMMOB.78
003035  08_AUTUMN_ONE.MP3                A15   C        01:00:06:22 01:00:11:23 01:11:38:01 01:11:43:02 
*FROM CLIP NAME:  08 AUTUMN ONE.MP3 
*A15 VOL = -20.0 DB  PAN L100 
*EQ BAND 1 (LO SHELF) FREQ:240.0 HZ  GAIN: +15.0 DB  Q: 1410 
*EQ BAND 2 (PRESENCE) FREQ:  2.5  KHZ  GAIN:  -9.3 DB  Q:  670 
*EQ BAND 3 (HI SHELF) FREQ: 15.0  KHZ  GAIN: -20.0 DB  Q: 1410 
*PATCH 08_AUTUMN_ONE.MP3:  FROM SOURCE 1 TO RECORD 15 
*SOURCE FILE: 08 AUTUMN ONE.MP3
003036  08_AUTUMN_ONE.MP3                A16   C        01:00:06:22 01:00:11:23 01:11:38:01 01:11:43:02 
*FROM CLIP NAME:  08 AUTUMN ONE.MP3 
*A16 VOL = -20.0 DB  PAN R100 
*EQ BAND 1 (LO SHELF) FREQ:240.0 HZ  GAIN: +15.0 DB  Q: 1410 
*EQ BAND 2 (PRESENCE) FREQ:  2.5  KHZ  GAIN:  -9.3 DB  Q:  670 
*EQ BAND 3 (HI SHELF) FREQ: 15.0  KHZ  GAIN: -20.0 DB  Q: 1410 
*PATCH 08_AUTUMN_ONE.MP3:  FROM SOURCE 2 TO RECORD 16 
*SOURCE FILE: 08 AUTUMN ONE.MP3
003037  08_AUTUMN_ONE.MP3                A15   C        01:00:11:23 01:00:15:15 01:11:43:02 01:11:46:19 
*FROM CLIP NAME:  08 AUTUMN ONE.MP3 
*A15 VOL = -14.0 DB  PAN L100 
*EQ BAND 1 (LO SHELF) FREQ: 50.0 HZ  GAIN: -10.9 DB  Q: 1410 
*EQ BAND 2 (PRESENCE) FREQ:  1.1  KHZ  GAIN:  +5.4 DB  Q:  670 
*EQ BAND 3 (HI SHELF) FREQ: 15.0  KHZ  GAIN:  +1.3 DB  Q: 1410 
*PATCH 08_AUTUMN_ONE.MP3:  FROM SOURCE 1 TO RECORD 15 
*SOURCE FILE: 08 AUTUMN ONE.MP3
003038  08_AUTUMN_ONE.MP3                A16   C        01:00:11:23 01:00:15:15 01:11:43:02 01:11:46:19 
*FROM CLIP NAME:  08 AUTUMN ONE.MP3 
*A16 VOL = -14.0 DB  PAN R100 
*EQ BAND 1 (LO SHELF) FREQ: 50.0 HZ  GAIN: -10.9 DB  Q: 1410 
*EQ BAND 2 (PRESENCE) FREQ:  1.1  KHZ  GAIN:  +5.4 DB  Q:  670 
*EQ BAND 3 (HI SHELF) FREQ: 15.0  KHZ  GAIN:  +1.3 DB  Q: 1410 
*PATCH 08_AUTUMN_ONE.MP3:  FROM SOURCE 2 TO RECORD 16 
*SOURCE FILE: 08 AUTUMN ONE.MP3
003039  MSMMMOB.35                       V     C        16:12:29:19 16:12:34:12 01:11:43:02 01:11:47:20 
M2      MSMMMOB.35                                025.0 16:12:29:19 
*FROM CLIP NAME:  A072C007_190813_R32C 
*SOURCE FILE: MSMMMOB.35
003040  19Y08M13                         A     C        16:12:29:19 16:12:34:12 01:11:43:02 01:11:47:20 
*FROM CLIP NAME:  11K10/02.SYNC.01 
*SOURCE FILE: 19Y08M13
003041  19Y08M13                         A2    C        16:12:29:19 16:12:34:12 01:11:43:02 01:11:47:20 
*FROM CLIP NAME:  11K10/02.SYNC.01 
*SOURCE FILE: 19Y08M13
003042  19Y08M13                         A3    C        16:12:29:19 16:12:34:12 01:11:43:02 01:11:47:20 
*FROM CLIP NAME:  11K10/02.SYNC.01 
*SOURCE FILE: 19Y08M13
003043  19Y08M13                         A4    C        16:12:29:19 16:12:34:12 01:11:43:02 01:11:47:20 
*FROM CLIP NAME:  11K10/02.SYNC.01 
*SOURCE FILE: 19Y08M13
003044  19Y08M13                         A5    C        16:12:29:19 16:12:34:12 01:11:43:02 01:11:47:20 
*FROM CLIP NAME:  11K10/02.SYNC.01 
*SOURCE FILE: 19Y08M13
003045  19Y08M13                         A6    C        16:12:29:19 16:12:34:12 01:11:43:02 01:11:47:20 
*FROM CLIP NAME:  11K10/02.SYNC.01 
*SOURCE FILE: 19Y08M13
003046  19Y08M13                         A7    C        16:12:29:19 16:12:34:12 01:11:43:02 01:11:47:20 
*FROM CLIP NAME:  11K10/02.SYNC.01 
*SOURCE FILE: 19Y08M13
003047  19Y08M13                         A8    C        16:12:29:19 16:12:34:12 01:11:43:02 01:11:47:20 
*FROM CLIP NAME:  11K10/02.SYNC.01 
*SOURCE FILE: 19Y08M13
003048  08_AUTUMN_ONE.MP3                A15   C        01:00:15:15 01:00:24:20 01:11:46:19 01:11:55:24 
*FROM CLIP NAME:  08 AUTUMN ONE.MP3 
*A15 VOL = -33.0 DB  PAN L100 
*EQ BAND 1 (LO SHELF) FREQ: 50.0 HZ  GAIN: -10.9 DB  Q: 1410 
*EQ BAND 2 (PRESENCE) FREQ:  1.1  KHZ  GAIN:  +5.4 DB  Q:  670 
*EQ BAND 3 (HI SHELF) FREQ: 15.0  KHZ  GAIN:  +1.3 DB  Q: 1410 
*PATCH 08_AUTUMN_ONE.MP3:  FROM SOURCE 1 TO RECORD 15 
*SOURCE FILE: 08 AUTUMN ONE.MP3
003049  08_AUTUMN_ONE.MP3                A16   C        01:00:15:15 01:00:24:20 01:11:46:19 01:11:55:24 
*FROM CLIP NAME:  08 AUTUMN ONE.MP3 
*A16 VOL = -33.0 DB  PAN R100 
*EQ BAND 1 (LO SHELF) FREQ: 50.0 HZ  GAIN: -10.9 DB  Q: 1410 
*EQ BAND 2 (PRESENCE) FREQ:  1.1  KHZ  GAIN:  +5.4 DB  Q:  670 
*EQ BAND 3 (HI SHELF) FREQ: 15.0  KHZ  GAIN:  +1.3 DB  Q: 1410 
*PATCH 08_AUTUMN_ONE.MP3:  FROM SOURCE 2 TO RECORD 16 
*SOURCE FILE: 08 AUTUMN ONE.MP3
003050  MSMMMOB.22                       V     C        14:00:27:14 14:00:30:09 01:11:47:20 01:11:50:15 
M2      MSMMMOB.22                                025.0 14:00:27:14 
*FROM CLIP NAME:  A072C001_190813_R32C 
*SOURCE FILE: MSMMMOB.22
003051  19Y08M13                         A     C        14:00:27:13 14:00:30:08 01:11:47:20 01:11:50:15 
*FROM CLIP NAME:  11K8/01.SYNC.01 
*SOURCE FILE: 19Y08M13
003052  19Y08M13                         A2    C        14:00:27:13 14:00:30:08 01:11:47:20 01:11:50:15 
*FROM CLIP NAME:  11K8/01.SYNC.01 
*SOURCE FILE: 19Y08M13
003053  19Y08M13                         A3    C        14:00:27:13 14:00:30:08 01:11:47:20 01:11:50:15 
*FROM CLIP NAME:  11K8/01.SYNC.01 
*SOURCE FILE: 19Y08M13
003054  19Y08M13                         A4    C        14:00:27:13 14:00:30:08 01:11:47:20 01:11:50:15 
*FROM CLIP NAME:  11K8/01.SYNC.01 
*SOURCE FILE: 19Y08M13
003055  19Y08M13                         A5    C        14:00:27:13 14:00:30:08 01:11:47:20 01:11:50:15 
*FROM CLIP NAME:  11K8/01.SYNC.01 
*SOURCE FILE: 19Y08M13
003056  19Y08M13                         A6    C        14:00:27:13 14:00:30:08 01:11:47:20 01:11:50:15 
*FROM CLIP NAME:  11K8/01.SYNC.01 
*SOURCE FILE: 19Y08M13
003057  19Y08M13                         A7    C        14:00:27:13 14:00:30:08 01:11:47:20 01:11:50:15 
*FROM CLIP NAME:  11K8/01.SYNC.01 
*SOURCE FILE: 19Y08M13
003058  19Y08M13                         A8    C        14:00:27:13 14:00:30:08 01:11:47:20 01:11:50:15 
*FROM CLIP NAME:  11K8/01.SYNC.01 
*SOURCE FILE: 19Y08M13
003059  19Y08M13                         A     C        16:25:29:04 16:25:29:13 01:11:50:15 01:11:50:24 
*FROM CLIP NAME:  11K11/01.SYNC.01 
*SOURCE FILE: 19Y08M13
003060  19Y08M13                         A2    C        16:25:29:04 16:25:29:13 01:11:50:15 01:11:50:24 
*FROM CLIP NAME:  11K11/01.SYNC.01 
*SOURCE FILE: 19Y08M13
003061  19Y08M13                         A3    C        16:25:29:04 16:25:29:13 01:11:50:15 01:11:50:24 
*FROM CLIP NAME:  11K11/01.SYNC.01 
*SOURCE FILE: 19Y08M13
003062  19Y08M13                         A4    C        16:25:29:04 16:25:29:13 01:11:50:15 01:11:50:24 
*FROM CLIP NAME:  11K11/01.SYNC.01 
*SOURCE FILE: 19Y08M13
003063  19Y08M13                         A5    C        16:25:29:04 16:25:29:13 01:11:50:15 01:11:50:24 
*FROM CLIP NAME:  11K11/01.SYNC.01 
*SOURCE FILE: 19Y08M13
003064  19Y08M13                         A6    C        16:25:29:04 16:25:29:13 01:11:50:15 01:11:50:24 
*FROM CLIP NAME:  11K11/01.SYNC.01 
*SOURCE FILE: 19Y08M13
003065  19Y08M13                         A7    C        16:25:29:04 16:25:29:13 01:11:50:15 01:11:50:24 
*FROM CLIP NAME:  11K11/01.SYNC.01 
*SOURCE FILE: 19Y08M13
003066  19Y08M13                         A8    C        16:25:29:04 16:25:29:13 01:11:50:15 01:11:50:24 
*FROM CLIP NAME:  11K11/01.SYNC.01 
*SOURCE FILE: 19Y08M13
003067  MSMMMOB.84                       V     C        16:25:29:04 16:25:32:07 01:11:50:15 01:11:53:18 
M2      MSMMMOB.84                                025.0 16:25:29:04 
*FROM CLIP NAME:  B019C009_190813_R481 
*SOURCE FILE: MSMMMOB.84
003068  19Y08M13                         A     C        16:29:22:00 16:29:24:19 01:11:50:24 01:11:53:18 
*FROM CLIP NAME:  11K11/02.SYNC.01 
*SOURCE FILE: 19Y08M13
003069  19Y08M13                         A2    C        16:29:22:00 16:29:24:19 01:11:50:24 01:11:53:18 
*FROM CLIP NAME:  11K11/02.SYNC.01 
*SOURCE FILE: 19Y08M13
003070  19Y08M13                         A3    C        16:29:22:00 16:29:24:19 01:11:50:24 01:11:53:18 
*FROM CLIP NAME:  11K11/02.SYNC.01 
*SOURCE FILE: 19Y08M13
003071  19Y08M13                         A4    C        16:29:22:00 16:29:24:19 01:11:50:24 01:11:53:18 
*FROM CLIP NAME:  11K11/02.SYNC.01 
*SOURCE FILE: 19Y08M13
003072  19Y08M13                         A5    C        16:29:22:00 16:29:24:19 01:11:50:24 01:11:53:18 
*FROM CLIP NAME:  11K11/02.SYNC.01 
*SOURCE FILE: 19Y08M13
003073  19Y08M13                         A6    C        16:29:22:00 16:29:24:19 01:11:50:24 01:11:53:18 
*FROM CLIP NAME:  11K11/02.SYNC.01 
*SOURCE FILE: 19Y08M13
003074  19Y08M13                         A7    C        16:29:22:00 16:29:24:19 01:11:50:24 01:11:53:18 
*FROM CLIP NAME:  11K11/02.SYNC.01 
*SOURCE FILE: 19Y08M13
003075  19Y08M13                         A8    C        16:29:22:00 16:29:24:19 01:11:50:24 01:11:53:18 
*FROM CLIP NAME:  11K11/02.SYNC.01 
*SOURCE FILE: 19Y08M13
003076  MSMMMOB.40                       V     C        14:24:52:22 14:24:57:14 01:11:53:18 01:11:58:10 
M2      MSMMMOB.40                                025.0 14:24:52:22 
*FROM CLIP NAME:  A072C005_190813_R32C 
*SOURCE FILE: MSMMMOB.40
003077  19Y08M13                         A     C        14:24:52:21 14:24:58:19 01:11:53:18 01:11:59:16 
*FROM CLIP NAME:  11K9/04.SYNC.01 
*SOURCE FILE: 19Y08M13
003078  19Y08M13                         A2    C        14:24:52:21 14:24:58:19 01:11:53:18 01:11:59:16 
*FROM CLIP NAME:  11K9/04.SYNC.01 
*SOURCE FILE: 19Y08M13
003079  19Y08M13                         A3    C        14:24:52:21 14:24:58:19 01:11:53:18 01:11:59:16 
*FROM CLIP NAME:  11K9/04.SYNC.01 
*SOURCE FILE: 19Y08M13
003080  19Y08M13                         A4    C        14:24:52:21 14:24:58:19 01:11:53:18 01:11:59:16 
*FROM CLIP NAME:  11K9/04.SYNC.01 
*SOURCE FILE: 19Y08M13
003081  19Y08M13                         A5    C        14:24:52:21 14:24:58:19 01:11:53:18 01:11:59:16 
*FROM CLIP NAME:  11K9/04.SYNC.01 
*SOURCE FILE: 19Y08M13
003082  19Y08M13                         A6    C        14:24:52:21 14:24:58:19 01:11:53:18 01:11:59:16 
*FROM CLIP NAME:  11K9/04.SYNC.01 
*SOURCE FILE: 19Y08M13
003083  19Y08M13                         A7    C        14:24:52:21 14:24:58:19 01:11:53:18 01:11:59:16 
*FROM CLIP NAME:  11K9/04.SYNC.01 
*SOURCE FILE: 19Y08M13
003084  19Y08M13                         A8    C        14:24:52:21 14:24:58:19 01:11:53:18 01:11:59:16 
*FROM CLIP NAME:  11K9/04.SYNC.01 
*SOURCE FILE: 19Y08M13
003085  08_AUTUMN_ONE.MP3                A15   C        01:00:24:20 01:00:27:19 01:11:55:24 01:11:58:23 
*FROM CLIP NAME:  08 AUTUMN ONE.MP3 
*A15 VOL = -20.0 DB  PAN L100 
*EQ BAND 1 (LO SHELF) FREQ: 50.0 HZ  GAIN: -10.9 DB  Q: 1410 
*EQ BAND 2 (PRESENCE) FREQ:  1.1  KHZ  GAIN:  +5.4 DB  Q:  670 
*EQ BAND 3 (HI SHELF) FREQ: 15.0  KHZ  GAIN:  +1.3 DB  Q: 1410 
*PATCH 08_AUTUMN_ONE.MP3:  FROM SOURCE 1 TO RECORD 15 
*SOURCE FILE: 08 AUTUMN ONE.MP3
003086  08_AUTUMN_ONE.MP3                A16   C        01:00:24:20 01:00:27:19 01:11:55:24 01:11:58:23 
*FROM CLIP NAME:  08 AUTUMN ONE.MP3 
*A16 VOL = -20.0 DB  PAN R100 
*EQ BAND 1 (LO SHELF) FREQ: 50.0 HZ  GAIN: -10.9 DB  Q: 1410 
*EQ BAND 2 (PRESENCE) FREQ:  1.1  KHZ  GAIN:  +5.4 DB  Q:  670 
*EQ BAND 3 (HI SHELF) FREQ: 15.0  KHZ  GAIN:  +1.3 DB  Q: 1410 
*PATCH 08_AUTUMN_ONE.MP3:  FROM SOURCE 2 TO RECORD 16 
*SOURCE FILE: 08 AUTUMN ONE.MP3
003087  MSMMMOB.26                       V     C        16:25:34:17 16:25:35:23 01:11:58:10 01:11:59:16 
M2      MSMMMOB.26                                025.0 16:25:34:17 
*FROM CLIP NAME:  A072C008_190813_R32C 
*SOURCE FILE: MSMMMOB.26
003088  08_AUTUMN_ONE.MP3                A15   C        01:00:27:19 01:00:37:17 01:11:58:23 01:12:08:21 
*FROM CLIP NAME:  08 AUTUMN ONE.MP3 
*A15 VOL = -35.0 DB  PAN L100 
*EQ BAND 1 (LO SHELF) FREQ: 50.0 HZ  GAIN: -10.9 DB  Q: 1410 
*EQ BAND 2 (PRESENCE) FREQ:  1.1  KHZ  GAIN:  +5.4 DB  Q:  670 
*EQ BAND 3 (HI SHELF) FREQ: 15.0  KHZ  GAIN:  +1.3 DB  Q: 1410 
*PATCH 08_AUTUMN_ONE.MP3:  FROM SOURCE 1 TO RECORD 15 
*SOURCE FILE: 08 AUTUMN ONE.MP3
003089  08_AUTUMN_ONE.MP3                A16   C        01:00:27:19 01:00:37:17 01:11:58:23 01:12:08:21 
*FROM CLIP NAME:  08 AUTUMN ONE.MP3 
*A16 VOL = -35.0 DB  PAN R100 
*EQ BAND 1 (LO SHELF) FREQ: 50.0 HZ  GAIN: -10.9 DB  Q: 1410 
*EQ BAND 2 (PRESENCE) FREQ:  1.1  KHZ  GAIN:  +5.4 DB  Q:  670 
*EQ BAND 3 (HI SHELF) FREQ: 15.0  KHZ  GAIN:  +1.3 DB  Q: 1410 
*PATCH 08_AUTUMN_ONE.MP3:  FROM SOURCE 2 TO RECORD 16 
*SOURCE FILE: 08 AUTUMN ONE.MP3
003090  MSMMMOB.05                       V     C        14:20:27:16 14:20:34:05 01:11:59:16 01:12:06:05 
M2      MSMMMOB.05                                025.0 14:20:27:16 
*FROM CLIP NAME:  A072C004_190813_R32C 
*SOURCE FILE: MSMMMOB.05
003091  19Y08M13                         A     C        14:20:27:15 14:20:34:04 01:11:59:16 01:12:06:05 
*FROM CLIP NAME:  11K9/03.SYNC.01 
*SOURCE FILE: 19Y08M13
003092  19Y08M13                         A2    C        14:20:27:15 14:20:34:04 01:11:59:16 01:12:06:05 
*FROM CLIP NAME:  11K9/03.SYNC.01 
*SOURCE FILE: 19Y08M13
003093  19Y08M13                         A3    C        14:20:27:15 14:20:34:04 01:11:59:16 01:12:06:05 
*FROM CLIP NAME:  11K9/03.SYNC.01 
*SOURCE FILE: 19Y08M13
003094  19Y08M13                         A4    C        14:20:27:15 14:20:34:04 01:11:59:16 01:12:06:05 
*FROM CLIP NAME:  11K9/03.SYNC.01 
*SOURCE FILE: 19Y08M13
003095  19Y08M13                         A5    C        14:20:27:15 14:20:34:04 01:11:59:16 01:12:06:05 
*FROM CLIP NAME:  11K9/03.SYNC.01 
*SOURCE FILE: 19Y08M13
003096  19Y08M13                         A6    C        14:20:27:15 14:20:34:04 01:11:59:16 01:12:06:05 
*FROM CLIP NAME:  11K9/03.SYNC.01 
*SOURCE FILE: 19Y08M13
003097  19Y08M13                         A7    C        14:20:27:15 14:20:34:04 01:11:59:16 01:12:06:05 
*FROM CLIP NAME:  11K9/03.SYNC.01 
*SOURCE FILE: 19Y08M13
003098  19Y08M13                         A8    C        14:20:27:15 14:20:34:04 01:11:59:16 01:12:06:05 
*FROM CLIP NAME:  11K9/03.SYNC.01 
*SOURCE FILE: 19Y08M13
003099  MSMMMOB.26                       V     C        16:25:40:13 16:25:43:00 01:12:06:05 01:12:08:17 
M2      MSMMMOB.26                                025.0 16:25:40:13 
*FROM CLIP NAME:  A072C008_190813_R32C 
*SOURCE FILE: MSMMMOB.26
003100  19Y08M13                         A     C        16:25:40:13 16:25:43:00 01:12:06:05 01:12:08:17 
*FROM CLIP NAME:  11K11/01.SYNC.01 
*SOURCE FILE: 19Y08M13
003101  19Y08M13                         A2    C        16:25:40:13 16:25:43:00 01:12:06:05 01:12:08:17 
*FROM CLIP NAME:  11K11/01.SYNC.01 
*SOURCE FILE: 19Y08M13
003102  19Y08M13                         A3    C        16:25:40:13 16:25:43:00 01:12:06:05 01:12:08:17 
*FROM CLIP NAME:  11K11/01.SYNC.01 
*SOURCE FILE: 19Y08M13
003103  19Y08M13                         A4    C        16:25:40:13 16:25:43:00 01:12:06:05 01:12:08:17 
*FROM CLIP NAME:  11K11/01.SYNC.01 
*SOURCE FILE: 19Y08M13
003104  19Y08M13                         A5    C        16:25:40:13 16:25:43:00 01:12:06:05 01:12:08:17 
*FROM CLIP NAME:  11K11/01.SYNC.01 
*SOURCE FILE: 19Y08M13
003105  19Y08M13                         A6    C        16:25:40:13 16:25:43:00 01:12:06:05 01:12:08:17 
*FROM CLIP NAME:  11K11/01.SYNC.01 
*SOURCE FILE: 19Y08M13
003106  19Y08M13                         A7    C        16:25:40:13 16:25:43:00 01:12:06:05 01:12:08:17 
*FROM CLIP NAME:  11K11/01.SYNC.01 
*SOURCE FILE: 19Y08M13
003107  19Y08M13                         A8    C        16:25:40:13 16:25:43:00 01:12:06:05 01:12:08:17 
*FROM CLIP NAME:  11K11/01.SYNC.01 
*SOURCE FILE: 19Y08M13
003108  MSMMMOB.72                       V     C        14:25:06:16 14:25:08:09 01:12:08:17 01:12:10:10 
M2      MSMMMOB.72                                025.0 14:25:06:16 
*FROM CLIP NAME:  B019C008_190813_R481 
*SOURCE FILE: MSMMMOB.72
003109  19Y08M13                         A     C        14:25:06:15 14:25:08:11 01:12:08:17 01:12:10:13 
*FROM CLIP NAME:  11K9/04.SYNC.01 
*SOURCE FILE: 19Y08M13
003110  19Y08M13                         A2    C        14:25:06:15 14:25:08:11 01:12:08:17 01:12:10:13 
*FROM CLIP NAME:  11K9/04.SYNC.01 
*SOURCE FILE: 19Y08M13
003111  19Y08M13                         A3    C        14:25:06:15 14:25:08:11 01:12:08:17 01:12:10:13 
*FROM CLIP NAME:  11K9/04.SYNC.01 
*SOURCE FILE: 19Y08M13
003112  19Y08M13                         A4    C        14:25:06:15 14:25:08:11 01:12:08:17 01:12:10:13 
*FROM CLIP NAME:  11K9/04.SYNC.01 
*SOURCE FILE: 19Y08M13
003113  19Y08M13                         A5    C        14:25:06:15 14:25:08:11 01:12:08:17 01:12:10:13 
*FROM CLIP NAME:  11K9/04.SYNC.01 
*SOURCE FILE: 19Y08M13
003114  19Y08M13                         A6    C        14:25:06:15 14:25:08:11 01:12:08:17 01:12:10:13 
*FROM CLIP NAME:  11K9/04.SYNC.01 
*SOURCE FILE: 19Y08M13
003115  19Y08M13                         A7    C        14:25:06:15 14:25:08:11 01:12:08:17 01:12:10:13 
*FROM CLIP NAME:  11K9/04.SYNC.01 
*SOURCE FILE: 19Y08M13
003116  19Y08M13                         A8    C        14:25:06:15 14:25:08:11 01:12:08:17 01:12:10:13 
*FROM CLIP NAME:  11K9/04.SYNC.01 
*SOURCE FILE: 19Y08M13
003117  08_AUTUMN_ONE.MP3                A15   C        01:00:37:17 01:00:37:17 01:12:08:21 01:12:08:21 
003117  BL                               A15   D    160 00:00:00:00 00:00:06:10 01:12:08:21 01:12:15:06 
*FROM CLIP NAME:  08 AUTUMN ONE.MP3 
*A15 VOL = -35.0 DB  PAN L100 
*EQ BAND 1 (LO SHELF) FREQ: 50.0 HZ  GAIN: -10.9 DB  Q: 1410 
*EQ BAND 2 (PRESENCE) FREQ:  1.1  KHZ  GAIN:  +5.4 DB  Q:  670 
*EQ BAND 3 (HI SHELF) FREQ: 15.0  KHZ  GAIN:  +1.3 DB  Q: 1410 
*PATCH 08_AUTUMN_ONE.MP3:  FROM SOURCE 1 TO RECORD 15 
*SOURCE FILE: 08 AUTUMN ONE.MP3
003118  08_AUTUMN_ONE.MP3                A16   C        01:00:37:17 01:00:37:17 01:12:08:21 01:12:08:21 
003118  BL                               A16   D    160 00:00:00:00 00:00:06:10 01:12:08:21 01:12:15:06 
*FROM CLIP NAME:  08 AUTUMN ONE.MP3 
*A16 VOL = -35.0 DB  PAN R100 
*EQ BAND 1 (LO SHELF) FREQ: 50.0 HZ  GAIN: -10.9 DB  Q: 1410 
*EQ BAND 2 (PRESENCE) FREQ:  1.1  KHZ  GAIN:  +5.4 DB  Q:  670 
*EQ BAND 3 (HI SHELF) FREQ: 15.0  KHZ  GAIN:  +1.3 DB  Q: 1410 
*PATCH 08_AUTUMN_ONE.MP3:  FROM SOURCE 2 TO RECORD 16 
*SOURCE FILE: 08 AUTUMN ONE.MP3
003119  MSMMMOB.26                       V     C        16:25:44:16 16:25:46:15 01:12:10:10 01:12:12:09 
M2      MSMMMOB.26                                025.0 16:25:44:16 
*FROM CLIP NAME:  A072C008_190813_R32C 
*SOURCE FILE: MSMMMOB.26
003120  19Y08M13                         A     C        16:25:44:19 16:25:46:15 01:12:10:13 01:12:12:09 
*FROM CLIP NAME:  11K11/01.SYNC.01 
*SOURCE FILE: 19Y08M13
003121  19Y08M13                         A2    C        16:25:44:19 16:25:46:15 01:12:10:13 01:12:12:09 
*FROM CLIP NAME:  11K11/01.SYNC.01 
*SOURCE FILE: 19Y08M13
003122  19Y08M13                         A3    C        16:25:44:19 16:25:46:15 01:12:10:13 01:12:12:09 
*FROM CLIP NAME:  11K11/01.SYNC.01 
*SOURCE FILE: 19Y08M13
003123  19Y08M13                         A4    C        16:25:44:19 16:25:46:15 01:12:10:13 01:12:12:09 
*FROM CLIP NAME:  11K11/01.SYNC.01 
*SOURCE FILE: 19Y08M13
003124  19Y08M13                         A5    C        16:25:44:19 16:25:46:15 01:12:10:13 01:12:12:09 
*FROM CLIP NAME:  11K11/01.SYNC.01 
*SOURCE FILE: 19Y08M13
003125  19Y08M13                         A6    C        16:25:44:19 16:25:46:15 01:12:10:13 01:12:12:09 
*FROM CLIP NAME:  11K11/01.SYNC.01 
*SOURCE FILE: 19Y08M13
003126  19Y08M13                         A7    C        16:25:44:19 16:25:46:15 01:12:10:13 01:12:12:09 
*FROM CLIP NAME:  11K11/01.SYNC.01 
*SOURCE FILE: 19Y08M13
003127  19Y08M13                         A8    C        16:25:44:19 16:25:46:15 01:12:10:13 01:12:12:09 
*FROM CLIP NAME:  11K11/01.SYNC.01 
*SOURCE FILE: 19Y08M13
003128  19Y08M13                         A     C        16:29:45:03 16:29:45:05 01:12:12:09 01:12:12:11 
*FROM CLIP NAME:  11K11/02.SYNC.01 
*SOURCE FILE: 19Y08M13
003129  19Y08M13                         A2    C        16:29:45:03 16:29:45:05 01:12:12:09 01:12:12:11 
*FROM CLIP NAME:  11K11/02.SYNC.01 
*SOURCE FILE: 19Y08M13
003130  19Y08M13                         A3    C        16:29:45:03 16:29:45:05 01:12:12:09 01:12:12:11 
*FROM CLIP NAME:  11K11/02.SYNC.01 
*SOURCE FILE: 19Y08M13
003131  19Y08M13                         A4    C        16:29:45:03 16:29:45:05 01:12:12:09 01:12:12:11 
*FROM CLIP NAME:  11K11/02.SYNC.01 
*SOURCE FILE: 19Y08M13
003132  19Y08M13                         A5    C        16:29:45:03 16:29:45:05 01:12:12:09 01:12:12:11 
*FROM CLIP NAME:  11K11/02.SYNC.01 
*SOURCE FILE: 19Y08M13
003133  19Y08M13                         A6    C        16:29:45:03 16:29:45:05 01:12:12:09 01:12:12:11 
*FROM CLIP NAME:  11K11/02.SYNC.01 
*SOURCE FILE: 19Y08M13
003134  19Y08M13                         A7    C        16:29:45:03 16:29:45:05 01:12:12:09 01:12:12:11 
*FROM CLIP NAME:  11K11/02.SYNC.01 
*SOURCE FILE: 19Y08M13
003135  19Y08M13                         A8    C        16:29:45:03 16:29:45:05 01:12:12:09 01:12:12:11 
*FROM CLIP NAME:  11K11/02.SYNC.01 
*SOURCE FILE: 19Y08M13
003136  MSMMMOB.72                       V     C        14:25:10:04 14:25:11:09 01:12:12:09 01:12:13:14 
M2      MSMMMOB.72                                025.0 14:25:10:04 
*FROM CLIP NAME:  B019C008_190813_R481 
*SOURCE FILE: MSMMMOB.72
003137  19Y08M13                         A     C        14:25:10:05 14:25:11:08 01:12:12:11 01:12:13:14 
*FROM CLIP NAME:  11K9/04.SYNC.01 
*SOURCE FILE: 19Y08M13
003138  19Y08M13                         A2    C        14:25:10:05 14:25:11:08 01:12:12:11 01:12:13:14 
*FROM CLIP NAME:  11K9/04.SYNC.01 
*SOURCE FILE: 19Y08M13
003139  19Y08M13                         A3    C        14:25:10:05 14:25:11:08 01:12:12:11 01:12:13:14 
*FROM CLIP NAME:  11K9/04.SYNC.01 
*SOURCE FILE: 19Y08M13
003140  19Y08M13                         A4    C        14:25:10:05 14:25:11:08 01:12:12:11 01:12:13:14 
*FROM CLIP NAME:  11K9/04.SYNC.01 
*SOURCE FILE: 19Y08M13
003141  19Y08M13                         A5    C        14:25:10:05 14:25:11:08 01:12:12:11 01:12:13:14 
*FROM CLIP NAME:  11K9/04.SYNC.01 
*SOURCE FILE: 19Y08M13
003142  19Y08M13                         A6    C        14:25:10:05 14:25:11:08 01:12:12:11 01:12:13:14 
*FROM CLIP NAME:  11K9/04.SYNC.01 
*SOURCE FILE: 19Y08M13
003143  19Y08M13                         A7    C        14:25:10:05 14:25:11:08 01:12:12:11 01:12:13:14 
*FROM CLIP NAME:  11K9/04.SYNC.01 
*SOURCE FILE: 19Y08M13
003144  19Y08M13                         A8    C        14:25:10:05 14:25:11:08 01:12:12:11 01:12:13:14 
*FROM CLIP NAME:  11K9/04.SYNC.01 
*SOURCE FILE: 19Y08M13
003145  MSMMMOB.51                       V     C        16:29:46:03 16:29:48:04 01:12:13:14 01:12:15:15 
M2      MSMMMOB.51                                025.0 16:29:46:03 
*FROM CLIP NAME:  B019C010_190813_R481 
*SOURCE FILE: MSMMMOB.51
003146  19Y08M13                         A     C        16:29:46:03 16:29:48:21 01:12:13:14 01:12:16:07 
*FROM CLIP NAME:  11K11/02.SYNC.01 
*SOURCE FILE: 19Y08M13
003147  19Y08M13                         A2    C        16:29:46:03 16:29:48:21 01:12:13:14 01:12:16:07 
*FROM CLIP NAME:  11K11/02.SYNC.01 
*SOURCE FILE: 19Y08M13
003148  19Y08M13                         A3    C        16:29:46:03 16:29:48:21 01:12:13:14 01:12:16:07 
*FROM CLIP NAME:  11K11/02.SYNC.01 
*SOURCE FILE: 19Y08M13
003149  19Y08M13                         A4    C        16:29:46:03 16:29:48:21 01:12:13:14 01:12:16:07 
*FROM CLIP NAME:  11K11/02.SYNC.01 
*SOURCE FILE: 19Y08M13
003150  19Y08M13                         A5    C        16:29:46:03 16:29:48:21 01:12:13:14 01:12:16:07 
*FROM CLIP NAME:  11K11/02.SYNC.01 
*SOURCE FILE: 19Y08M13
003151  19Y08M13                         A6    C        16:29:46:03 16:29:48:21 01:12:13:14 01:12:16:07 
*FROM CLIP NAME:  11K11/02.SYNC.01 
*SOURCE FILE: 19Y08M13
003152  19Y08M13                         A7    C        16:29:46:03 16:29:48:21 01:12:13:14 01:12:16:07 
*FROM CLIP NAME:  11K11/02.SYNC.01 
*SOURCE FILE: 19Y08M13
003153  19Y08M13                         A8    C        16:29:46:03 16:29:48:21 01:12:13:14 01:12:16:07 
*FROM CLIP NAME:  11K11/02.SYNC.01 
*SOURCE FILE: 19Y08M13
003154  MSMMMOB.72                       V     C        14:25:12:17 14:25:13:16 01:12:15:15 01:12:16:14 
M2      MSMMMOB.72                                025.0 14:25:12:17 
*FROM CLIP NAME:  B019C008_190813_R481 
*SOURCE FILE: MSMMMOB.72
003155  19Y08M13                         A     C        16:12:50:10 16:12:51:02 01:12:16:07 01:12:16:24 
*FROM CLIP NAME:  11K10/02.SYNC.01 
*SOURCE FILE: 19Y08M13
003156  19Y08M13                         A2    C        16:12:50:10 16:12:51:02 01:12:16:07 01:12:16:24 
*FROM CLIP NAME:  11K10/02.SYNC.01 
*SOURCE FILE: 19Y08M13
003157  19Y08M13                         A3    C        16:12:50:10 16:12:51:02 01:12:16:07 01:12:16:24 
*FROM CLIP NAME:  11K10/02.SYNC.01 
*SOURCE FILE: 19Y08M13
003158  19Y08M13                         A4    C        16:12:50:10 16:12:51:02 01:12:16:07 01:12:16:24 
*FROM CLIP NAME:  11K10/02.SYNC.01 
*SOURCE FILE: 19Y08M13
003159  19Y08M13                         A5    C        16:12:50:10 16:12:51:02 01:12:16:07 01:12:16:24 
*FROM CLIP NAME:  11K10/02.SYNC.01 
*SOURCE FILE: 19Y08M13
003160  19Y08M13                         A6    C        16:12:50:10 16:12:51:02 01:12:16:07 01:12:16:24 
*FROM CLIP NAME:  11K10/02.SYNC.01 
*SOURCE FILE: 19Y08M13
003161  19Y08M13                         A7    C        16:12:50:10 16:12:51:02 01:12:16:07 01:12:16:24 
*FROM CLIP NAME:  11K10/02.SYNC.01 
*SOURCE FILE: 19Y08M13
003162  19Y08M13                         A8    C        16:12:50:10 16:12:51:02 01:12:16:07 01:12:16:24 
*FROM CLIP NAME:  11K10/02.SYNC.01 
*SOURCE FILE: 19Y08M13
003163  MSMMMOB.51                       V     C        16:29:48:08 16:29:51:14 01:12:16:14 01:12:19:20 
M2      MSMMMOB.51                                025.0 16:29:48:08 
*FROM CLIP NAME:  B019C010_190813_R481 
*SOURCE FILE: MSMMMOB.51
003164  19Y08M13                         A     C        16:29:48:18 16:29:51:17 01:12:16:24 01:12:19:23 
*FROM CLIP NAME:  11K11/02.SYNC.01 
*SOURCE FILE: 19Y08M13
003165  19Y08M13                         A2    C        16:29:48:18 16:29:51:17 01:12:16:24 01:12:19:23 
*FROM CLIP NAME:  11K11/02.SYNC.01 
*SOURCE FILE: 19Y08M13
003166  19Y08M13                         A3    C        16:29:48:18 16:29:51:17 01:12:16:24 01:12:19:23 
*FROM CLIP NAME:  11K11/02.SYNC.01 
*SOURCE FILE: 19Y08M13
003167  19Y08M13                         A4    C        16:29:48:18 16:29:51:17 01:12:16:24 01:12:19:23 
*FROM CLIP NAME:  11K11/02.SYNC.01 
*SOURCE FILE: 19Y08M13
003168  19Y08M13                         A5    C        16:29:48:18 16:29:51:17 01:12:16:24 01:12:19:23 
*FROM CLIP NAME:  11K11/02.SYNC.01 
*SOURCE FILE: 19Y08M13
003169  19Y08M13                         A6    C        16:29:48:18 16:29:51:17 01:12:16:24 01:12:19:23 
*FROM CLIP NAME:  11K11/02.SYNC.01 
*SOURCE FILE: 19Y08M13
003170  19Y08M13                         A7    C        16:29:48:18 16:29:51:17 01:12:16:24 01:12:19:23 
*FROM CLIP NAME:  11K11/02.SYNC.01 
*SOURCE FILE: 19Y08M13
003171  19Y08M13                         A8    C        16:29:48:18 16:29:51:17 01:12:16:24 01:12:19:23 
*FROM CLIP NAME:  11K11/02.SYNC.01 
*SOURCE FILE: 19Y08M13
003172  MSMMMOB.65                       V     C        14:13:57:03 14:13:59:04 01:12:19:20 01:12:21:21 
M2      MSMMMOB.65                                025.0 14:13:57:03 
*FROM CLIP NAME:  B019C005_190813_R481 
*SOURCE FILE: MSMMMOB.65
003173  19Y08M13                         A     C        13:46:40:15 13:46:42:13 01:12:19:23 01:12:21:21 
*FROM CLIP NAME:  11K7/01.SYNC.01 
*SOURCE FILE: 19Y08M13
003174  19Y08M13                         A2    C        13:46:40:15 13:46:42:13 01:12:19:23 01:12:21:21 
*FROM CLIP NAME:  11K7/01.SYNC.01 
*SOURCE FILE: 19Y08M13
003175  19Y08M13                         A3    C        13:46:40:15 13:46:42:13 01:12:19:23 01:12:21:21 
*FROM CLIP NAME:  11K7/01.SYNC.01 
*SOURCE FILE: 19Y08M13
003176  19Y08M13                         A4    C        13:46:40:15 13:46:42:13 01:12:19:23 01:12:21:21 
*FROM CLIP NAME:  11K7/01.SYNC.01 
*SOURCE FILE: 19Y08M13
003177  19Y08M13                         A5    C        13:46:40:15 13:46:42:13 01:12:19:23 01:12:21:21 
*FROM CLIP NAME:  11K7/01.SYNC.01 
*SOURCE FILE: 19Y08M13
003178  19Y08M13                         A6    C        13:46:40:15 13:46:42:13 01:12:19:23 01:12:21:21 
*FROM CLIP NAME:  11K7/01.SYNC.01 
*SOURCE FILE: 19Y08M13
003179  19Y08M13                         A7    C        13:46:40:15 13:46:42:13 01:12:19:23 01:12:21:21 
*FROM CLIP NAME:  11K7/01.SYNC.01 
*SOURCE FILE: 19Y08M13
003180  19Y08M13                         A8    C        13:46:40:15 13:46:42:13 01:12:19:23 01:12:21:21 
*FROM CLIP NAME:  11K7/01.SYNC.01 
*SOURCE FILE: 19Y08M13
003181  19Y08M13                         A     C        13:46:43:09 13:46:43:14 01:12:21:21 01:12:22:01 
*FROM CLIP NAME:  11K7/01.SYNC.01 
*SOURCE FILE: 19Y08M13
003182  19Y08M13                         A2    C        13:46:43:09 13:46:43:14 01:12:21:21 01:12:22:01 
*FROM CLIP NAME:  11K7/01.SYNC.01 
*SOURCE FILE: 19Y08M13
003183  19Y08M13                         A3    C        13:46:43:09 13:46:43:14 01:12:21:21 01:12:22:01 
*FROM CLIP NAME:  11K7/01.SYNC.01 
*SOURCE FILE: 19Y08M13
003184  19Y08M13                         A4    C        13:46:43:09 13:46:43:14 01:12:21:21 01:12:22:01 
*FROM CLIP NAME:  11K7/01.SYNC.01 
*SOURCE FILE: 19Y08M13
003185  19Y08M13                         A5    C        13:46:43:09 13:46:43:14 01:12:21:21 01:12:22:01 
*FROM CLIP NAME:  11K7/01.SYNC.01 
*SOURCE FILE: 19Y08M13
003186  19Y08M13                         A6    C        13:46:43:09 13:46:43:14 01:12:21:21 01:12:22:01 
*FROM CLIP NAME:  11K7/01.SYNC.01 
*SOURCE FILE: 19Y08M13
003187  19Y08M13                         A7    C        13:46:43:09 13:46:43:14 01:12:21:21 01:12:22:01 
*FROM CLIP NAME:  11K7/01.SYNC.01 
*SOURCE FILE: 19Y08M13
003188  19Y08M13                         A8    C        13:46:43:09 13:46:43:14 01:12:21:21 01:12:22:01 
*FROM CLIP NAME:  11K7/01.SYNC.01 
*SOURCE FILE: 19Y08M13
003189  MSMMMOB.51                       V     C        16:29:53:18 16:29:57:14 01:12:21:21 01:12:25:17 
M2      MSMMMOB.51                                025.0 16:29:53:18 
*FROM CLIP NAME:  B019C010_190813_R481 
*SOURCE FILE: MSMMMOB.51
003190  19Y08M13                         A     C        16:29:53:23 16:29:57:14 01:12:22:01 01:12:25:17 
*FROM CLIP NAME:  11K11/02.SYNC.01 
*SOURCE FILE: 19Y08M13
003191  19Y08M13                         A2    C        16:29:53:23 16:29:57:14 01:12:22:01 01:12:25:17 
*FROM CLIP NAME:  11K11/02.SYNC.01 
*SOURCE FILE: 19Y08M13
003192  19Y08M13                         A3    C        16:29:53:23 16:29:57:14 01:12:22:01 01:12:25:17 
*FROM CLIP NAME:  11K11/02.SYNC.01 
*SOURCE FILE: 19Y08M13
003193  19Y08M13                         A4    C        16:29:53:23 16:29:57:14 01:12:22:01 01:12:25:17 
*FROM CLIP NAME:  11K11/02.SYNC.01 
*SOURCE FILE: 19Y08M13
003194  19Y08M13                         A5    C        16:29:53:23 16:29:57:14 01:12:22:01 01:12:25:17 
*FROM CLIP NAME:  11K11/02.SYNC.01 
*SOURCE FILE: 19Y08M13
003195  19Y08M13                         A6    C        16:29:53:23 16:29:57:14 01:12:22:01 01:12:25:17 
*FROM CLIP NAME:  11K11/02.SYNC.01 
*SOURCE FILE: 19Y08M13
003196  19Y08M13                         A7    C        16:29:53:23 16:29:57:14 01:12:22:01 01:12:25:17 
*FROM CLIP NAME:  11K11/02.SYNC.01 
*SOURCE FILE: 19Y08M13
003197  19Y08M13                         A8    C        16:29:53:23 16:29:57:14 01:12:22:01 01:12:25:17 
*FROM CLIP NAME:  11K11/02.SYNC.01 
*SOURCE FILE: 19Y08M13
003198  MSMMMOB.72                       V     C        14:25:23:03 14:25:24:08 01:12:25:17 01:12:26:22 
M2      MSMMMOB.72                                025.0 14:25:23:03 
*FROM CLIP NAME:  B019C008_190813_R481 
*SOURCE FILE: MSMMMOB.72
003199  19Y08M13                         A     C        14:25:23:02 14:25:24:07 01:12:25:17 01:12:26:22 
*FROM CLIP NAME:  11K9/04.SYNC.01 
*SOURCE FILE: 19Y08M13
003200  19Y08M13                         A2    C        14:25:23:02 14:25:24:07 01:12:25:17 01:12:26:22 
*FROM CLIP NAME:  11K9/04.SYNC.01 
*SOURCE FILE: 19Y08M13
003201  19Y08M13                         A4    C        14:25:23:02 14:25:24:07 01:12:25:17 01:12:26:22 
*FROM CLIP NAME:  11K9/04.SYNC.01 
*SOURCE FILE: 19Y08M13
003202  19Y08M13                         A5    C        14:25:23:02 14:25:24:07 01:12:25:17 01:12:26:22 
*FROM CLIP NAME:  11K9/04.SYNC.01 
*SOURCE FILE: 19Y08M13
003203  19Y08M13                         A6    C        14:25:23:02 14:25:24:07 01:12:25:17 01:12:26:22 
*FROM CLIP NAME:  11K9/04.SYNC.01 
*SOURCE FILE: 19Y08M13
003204  19Y08M13                         A7    C        14:25:23:02 14:25:24:07 01:12:25:17 01:12:26:22 
*FROM CLIP NAME:  11K9/04.SYNC.01 
*SOURCE FILE: 19Y08M13
003205  19Y08M13                         A8    C        14:25:23:02 14:25:24:07 01:12:25:17 01:12:26:22 
*FROM CLIP NAME:  11K9/04.SYNC.01 
*SOURCE FILE: 19Y08M13
003206  MSMMMOB.37                       V     C        16:29:58:21 16:30:04:05 01:12:26:22 01:12:32:06 
M2      MSMMMOB.37                                025.0 16:29:58:21 
*FROM CLIP NAME:  A072C009_190813_R32C 
*SOURCE FILE: MSMMMOB.37
003207  19Y08M13                         A     C        16:29:58:21 16:30:04:05 01:12:26:22 01:12:32:06 
*FROM CLIP NAME:  11K11/02.SYNC.01 
*SOURCE FILE: 19Y08M13
003208  19Y08M13                         A2    C        16:29:58:21 16:30:04:05 01:12:26:22 01:12:32:06 
*FROM CLIP NAME:  11K11/02.SYNC.01 
*SOURCE FILE: 19Y08M13
003209  19Y08M13                         A4    C        16:29:58:21 16:30:04:05 01:12:26:22 01:12:32:06 
*FROM CLIP NAME:  11K11/02.SYNC.01 
*SOURCE FILE: 19Y08M13
003210  19Y08M13                         A6    C        16:29:58:21 16:30:04:05 01:12:26:22 01:12:32:06 
*FROM CLIP NAME:  11K11/02.SYNC.01 
*SOURCE FILE: 19Y08M13
003211  19Y08M13                         A7    C        16:29:58:21 16:30:04:05 01:12:26:22 01:12:32:06 
*FROM CLIP NAME:  11K11/02.SYNC.01 
*SOURCE FILE: 19Y08M13
003212  19Y08M13                         A8    C        16:29:58:21 16:30:04:05 01:12:26:22 01:12:32:06 
*FROM CLIP NAME:  11K11/02.SYNC.01 
*SOURCE FILE: 19Y08M13
003213  19Y08M13                         A3    C        16:26:10:02 16:26:10:18 01:12:32:06 01:12:32:22 
*FROM CLIP NAME:  11K11/01.SYNC.01 
*SOURCE FILE: 19Y08M13
003214  19Y08M13                         A4    C        16:26:10:02 16:26:10:18 01:12:32:06 01:12:32:22 
*FROM CLIP NAME:  11K11/01.SYNC.01 
*SOURCE FILE: 19Y08M13
003215  19Y08M13                         A5    C        16:26:10:02 16:26:10:18 01:12:32:06 01:12:32:22 
*FROM CLIP NAME:  11K11/01.SYNC.01 
*SOURCE FILE: 19Y08M13
003216  19Y08M13                         A8    C        16:26:10:02 16:26:10:18 01:12:32:06 01:12:32:22 
*FROM CLIP NAME:  11K11/01.SYNC.01 
*SOURCE FILE: 19Y08M13
003217  MSMMMOB.72                       V     C        14:25:29:09 14:25:31:07 01:12:32:06 01:12:34:04 
M2      MSMMMOB.72                                025.0 14:25:29:09 
*FROM CLIP NAME:  B019C008_190813_R481 
*SOURCE FILE: MSMMMOB.72
003218  19Y08M13                         A     C        14:25:29:08 14:25:31:06 01:12:32:06 01:12:34:04 
*FROM CLIP NAME:  11K9/04.SYNC.01 
*SOURCE FILE: 19Y08M13
003219  19Y08M13                         A2    C        14:25:29:08 14:25:31:06 01:12:32:06 01:12:34:04 
*FROM CLIP NAME:  11K9/04.SYNC.01 
*SOURCE FILE: 19Y08M13
003220  19Y08M13                         A6    C        14:25:29:08 14:25:31:06 01:12:32:06 01:12:34:04 
*FROM CLIP NAME:  11K9/04.SYNC.01 
*SOURCE FILE: 19Y08M13
003221  19Y08M13                         A7    C        14:25:29:08 14:25:31:06 01:12:32:06 01:12:34:04 
*FROM CLIP NAME:  11K9/04.SYNC.01 
*SOURCE FILE: 19Y08M13
003222  19Y08M13                         A3    C        14:25:29:24 14:25:31:06 01:12:32:22 01:12:34:04 
*FROM CLIP NAME:  11K9/04.SYNC.01 
*SOURCE FILE: 19Y08M13
003223  19Y08M13                         A4    C        14:25:29:24 14:25:31:06 01:12:32:22 01:12:34:04 
*FROM CLIP NAME:  11K9/04.SYNC.01 
*SOURCE FILE: 19Y08M13
003224  19Y08M13                         A5    C        14:25:29:24 14:25:31:06 01:12:32:22 01:12:34:04 
*FROM CLIP NAME:  11K9/04.SYNC.01 
*SOURCE FILE: 19Y08M13
003225  19Y08M13                         A8    C        14:25:29:24 14:25:31:06 01:12:32:22 01:12:34:04 
*FROM CLIP NAME:  11K9/04.SYNC.01 
*SOURCE FILE: 19Y08M13
003226  19Y08M13                         A     C        16:30:05:18 16:30:07:02 01:12:34:04 01:12:35:13 
*FROM CLIP NAME:  11K11/02.SYNC.01 
*SOURCE FILE: 19Y08M13
003227  19Y08M13                         A2    C        16:30:05:18 16:30:07:02 01:12:34:04 01:12:35:13 
*FROM CLIP NAME:  11K11/02.SYNC.01 
*SOURCE FILE: 19Y08M13
003228  19Y08M13                         A3    C        16:30:05:18 16:30:07:02 01:12:34:04 01:12:35:13 
*FROM CLIP NAME:  11K11/02.SYNC.01 
*SOURCE FILE: 19Y08M13
003229  19Y08M13                         A4    C        16:30:05:18 16:30:07:02 01:12:34:04 01:12:35:13 
*FROM CLIP NAME:  11K11/02.SYNC.01 
*SOURCE FILE: 19Y08M13
003230  19Y08M13                         A5    C        16:30:05:18 16:30:07:02 01:12:34:04 01:12:35:13 
*FROM CLIP NAME:  11K11/02.SYNC.01 
*SOURCE FILE: 19Y08M13
003231  19Y08M13                         A6    C        16:30:05:18 16:30:07:02 01:12:34:04 01:12:35:13 
*FROM CLIP NAME:  11K11/02.SYNC.01 
*SOURCE FILE: 19Y08M13
003232  19Y08M13                         A7    C        16:30:05:18 16:30:07:02 01:12:34:04 01:12:35:13 
*FROM CLIP NAME:  11K11/02.SYNC.01 
*SOURCE FILE: 19Y08M13
003233  19Y08M13                         A8    C        16:30:05:18 16:30:07:02 01:12:34:04 01:12:35:13 
*FROM CLIP NAME:  11K11/02.SYNC.01 
*SOURCE FILE: 19Y08M13
003234  MSMMMOB.37                       V     C        16:30:05:18 16:30:09:06 01:12:34:04 01:12:37:17 
M2      MSMMMOB.37                                025.0 16:30:05:18 
*FROM CLIP NAME:  A072C009_190813_R32C 
*SOURCE FILE: MSMMMOB.37
003235  19Y08M13                         A     C        14:25:32:04 14:25:36:15 01:12:35:13 01:12:39:24 
*FROM CLIP NAME:  11K9/04.SYNC.01 
*SOURCE FILE: 19Y08M13
003236  19Y08M13                         A2    C        14:25:32:04 14:25:36:15 01:12:35:13 01:12:39:24 
*FROM CLIP NAME:  11K9/04.SYNC.01 
*SOURCE FILE: 19Y08M13
003237  19Y08M13                         A3    C        14:25:32:04 14:25:36:15 01:12:35:13 01:12:39:24 
*FROM CLIP NAME:  11K9/04.SYNC.01 
*SOURCE FILE: 19Y08M13
003238  19Y08M13                         A4    C        14:25:32:04 14:25:36:15 01:12:35:13 01:12:39:24 
*FROM CLIP NAME:  11K9/04.SYNC.01 
*SOURCE FILE: 19Y08M13
003239  19Y08M13                         A5    C        14:25:32:04 14:25:36:15 01:12:35:13 01:12:39:24 
*FROM CLIP NAME:  11K9/04.SYNC.01 
*SOURCE FILE: 19Y08M13
003240  19Y08M13                         A6    C        14:25:32:04 14:25:36:15 01:12:35:13 01:12:39:24 
*FROM CLIP NAME:  11K9/04.SYNC.01 
*SOURCE FILE: 19Y08M13
003241  19Y08M13                         A7    C        14:25:32:04 14:25:36:15 01:12:35:13 01:12:39:24 
*FROM CLIP NAME:  11K9/04.SYNC.01 
*SOURCE FILE: 19Y08M13
003242  19Y08M13                         A8    C        14:25:32:04 14:25:36:15 01:12:35:13 01:12:39:24 
*FROM CLIP NAME:  11K9/04.SYNC.01 
*SOURCE FILE: 19Y08M13
003243  MSMMMOB.72                       V     C        14:25:34:09 14:25:36:16 01:12:37:17 01:12:39:24 
M2      MSMMMOB.72                                025.0 14:25:34:09 
*FROM CLIP NAME:  B019C008_190813_R481 
*SOURCE FILE: MSMMMOB.72
003244  MSMMMOB.84                       V     C        16:26:18:04 16:26:22:03 01:12:39:24 01:12:43:23 
M2      MSMMMOB.84                                025.0 16:26:18:04 
*FROM CLIP NAME:  B019C009_190813_R481 
*SOURCE FILE: MSMMMOB.84
003245  19Y08M13                         A     C        16:26:18:04 16:26:24:11 01:12:39:24 01:12:46:06 
*FROM CLIP NAME:  11K11/01.SYNC.01 
*SOURCE FILE: 19Y08M13
003246  19Y08M13                         A2    C        16:26:18:04 16:26:24:11 01:12:39:24 01:12:46:06 
*FROM CLIP NAME:  11K11/01.SYNC.01 
*SOURCE FILE: 19Y08M13
003247  19Y08M13                         A3    C        16:26:18:04 16:26:24:11 01:12:39:24 01:12:46:06 
*FROM CLIP NAME:  11K11/01.SYNC.01 
*SOURCE FILE: 19Y08M13
003248  19Y08M13                         A4    C        16:26:18:04 16:26:24:11 01:12:39:24 01:12:46:06 
*FROM CLIP NAME:  11K11/01.SYNC.01 
*SOURCE FILE: 19Y08M13
003249  19Y08M13                         A5    C        16:26:18:04 16:26:24:11 01:12:39:24 01:12:46:06 
*FROM CLIP NAME:  11K11/01.SYNC.01 
*SOURCE FILE: 19Y08M13
003250  19Y08M13                         A6    C        16:26:18:04 16:26:24:11 01:12:39:24 01:12:46:06 
*FROM CLIP NAME:  11K11/01.SYNC.01 
*SOURCE FILE: 19Y08M13
003251  19Y08M13                         A7    C        16:26:18:04 16:26:24:11 01:12:39:24 01:12:46:06 
*FROM CLIP NAME:  11K11/01.SYNC.01 
*SOURCE FILE: 19Y08M13
003252  19Y08M13                         A8    C        16:26:18:04 16:26:24:11 01:12:39:24 01:12:46:06 
*FROM CLIP NAME:  11K11/01.SYNC.01 
*SOURCE FILE: 19Y08M13
003253  BL                               V     C        00:00:00:00 00:00:48:20 01:12:39:24 01:13:28:19 
*SOURCE FILE: (NULL)
003254  CINEMASCOPE_2-35-1_CROPLINES.PNG V     C        01:01:56:09 01:03:17:08 01:12:39:24 01:14:00:23 
*FROM CLIP NAME:  CINEMASCOPE 2-35-1 CROPLINES.PNG 
*SOURCE FILE: CINEMASCOPE 2-35-1 CROPLINES.PNG
003255  MSMMMOB.26                       V     C        16:26:22:03 16:26:24:12 01:12:43:23 01:12:46:07 
M2      MSMMMOB.26                                025.0 16:26:22:03 
*FROM CLIP NAME:  A072C008_190813_R32C 
*SOURCE FILE: MSMMMOB.26
003256  19Y08M13                         A     C        16:26:24:11 16:26:24:11 01:12:46:06 01:12:46:06 
003256  19Y08M13                         A     D    002 14:25:42:12 14:25:42:14 01:12:46:06 01:12:46:08 
*FROM CLIP NAME:  11K11/01.SYNC.01 
*TO CLIP NAME:  11K9/04.SYNC.01 
*SOURCE FILE: 19Y08M13
003257  19Y08M13                         A2    C        16:26:24:11 16:26:24:11 01:12:46:06 01:12:46:06 
003257  19Y08M13                         A2    D    002 14:25:42:12 14:25:42:14 01:12:46:06 01:12:46:08 
*FROM CLIP NAME:  11K11/01.SYNC.01 
*TO CLIP NAME:  11K9/04.SYNC.01 
*SOURCE FILE: 19Y08M13
003258  19Y08M13                         A3    C        16:26:24:11 16:26:24:11 01:12:46:06 01:12:46:06 
003258  19Y08M13                         A3    D    002 14:25:42:12 14:25:42:14 01:12:46:06 01:12:46:08 
*FROM CLIP NAME:  11K11/01.SYNC.01 
*TO CLIP NAME:  11K9/04.SYNC.01 
*SOURCE FILE: 19Y08M13
003259  19Y08M13                         A4    C        16:26:24:11 16:26:24:11 01:12:46:06 01:12:46:06 
003259  19Y08M13                         A4    D    002 14:25:42:12 14:25:42:14 01:12:46:06 01:12:46:08 
*FROM CLIP NAME:  11K11/01.SYNC.01 
*TO CLIP NAME:  11K9/04.SYNC.01 
*SOURCE FILE: 19Y08M13
003260  19Y08M13                         A5    C        16:26:24:11 16:26:24:11 01:12:46:06 01:12:46:06 
003260  19Y08M13                         A5    D    002 14:25:42:12 14:25:42:14 01:12:46:06 01:12:46:08 
*FROM CLIP NAME:  11K11/01.SYNC.01 
*TO CLIP NAME:  11K9/04.SYNC.01 
*SOURCE FILE: 19Y08M13
003261  19Y08M13                         A6    C        16:26:24:11 16:26:24:11 01:12:46:06 01:12:46:06 
003261  19Y08M13                         A6    D    002 14:25:42:12 14:25:42:14 01:12:46:06 01:12:46:08 
*FROM CLIP NAME:  11K11/01.SYNC.01 
*TO CLIP NAME:  11K9/04.SYNC.01 
*SOURCE FILE: 19Y08M13
003262  19Y08M13                         A7    C        16:26:24:11 16:26:24:11 01:12:46:06 01:12:46:06 
003262  19Y08M13                         A7    D    002 14:25:42:12 14:25:42:14 01:12:46:06 01:12:46:08 
*FROM CLIP NAME:  11K11/01.SYNC.01 
*TO CLIP NAME:  11K9/04.SYNC.01 
*SOURCE FILE: 19Y08M13
003263  19Y08M13                         A8    C        16:26:24:11 16:26:24:11 01:12:46:06 01:12:46:06 
003263  19Y08M13                         A8    D    002 14:25:42:12 14:25:42:14 01:12:46:06 01:12:46:08 
*FROM CLIP NAME:  11K11/01.SYNC.01 
*TO CLIP NAME:  11K9/04.SYNC.01 
*SOURCE FILE: 19Y08M13
003264  MSMMMOB.72                       V     C        14:25:42:14 14:25:43:22 01:12:46:07 01:12:47:15 
M2      MSMMMOB.72                                025.0 14:25:42:14 
*FROM CLIP NAME:  B019C008_190813_R481 
*SOURCE FILE: MSMMMOB.72
003265  19Y08M13                         A     C        14:25:42:14 14:25:43:21 01:12:46:08 01:12:47:15 
*FROM CLIP NAME:  11K9/04.SYNC.01 
*SOURCE FILE: 19Y08M13
003266  19Y08M13                         A2    C        14:25:42:14 14:25:43:21 01:12:46:08 01:12:47:15 
*FROM CLIP NAME:  11K9/04.SYNC.01 
*SOURCE FILE: 19Y08M13
003267  19Y08M13                         A3    C        14:25:42:14 14:25:43:21 01:12:46:08 01:12:47:15 
*FROM CLIP NAME:  11K9/04.SYNC.01 
*SOURCE FILE: 19Y08M13
003268  19Y08M13                         A4    C        14:25:42:14 14:25:43:21 01:12:46:08 01:12:47:15 
*FROM CLIP NAME:  11K9/04.SYNC.01 
*SOURCE FILE: 19Y08M13
003269  19Y08M13                         A5    C        14:25:42:14 14:25:43:21 01:12:46:08 01:12:47:15 
*FROM CLIP NAME:  11K9/04.SYNC.01 
*SOURCE FILE: 19Y08M13
003270  19Y08M13                         A6    C        14:25:42:14 14:25:43:21 01:12:46:08 01:12:47:15 
*FROM CLIP NAME:  11K9/04.SYNC.01 
*SOURCE FILE: 19Y08M13
003271  19Y08M13                         A7    C        14:25:42:14 14:25:43:21 01:12:46:08 01:12:47:15 
*FROM CLIP NAME:  11K9/04.SYNC.01 
*SOURCE FILE: 19Y08M13
003272  19Y08M13                         A8    C        14:25:42:14 14:25:43:21 01:12:46:08 01:12:47:15 
*FROM CLIP NAME:  11K9/04.SYNC.01 
*SOURCE FILE: 19Y08M13
003273  19Y08M13                         A     C        16:30:20:11 16:30:21:00 01:12:47:15 01:12:48:04 
*FROM CLIP NAME:  11K11/02.SYNC.01 
*SOURCE FILE: 19Y08M13
003274  19Y08M13                         A2    C        16:30:20:11 16:30:21:00 01:12:47:15 01:12:48:04 
*FROM CLIP NAME:  11K11/02.SYNC.01 
*SOURCE FILE: 19Y08M13
003275  19Y08M13                         A3    C        16:30:20:11 16:30:21:00 01:12:47:15 01:12:48:04 
*FROM CLIP NAME:  11K11/02.SYNC.01 
*SOURCE FILE: 19Y08M13
003276  19Y08M13                         A4    C        16:30:20:11 16:30:21:00 01:12:47:15 01:12:48:04 
*FROM CLIP NAME:  11K11/02.SYNC.01 
*SOURCE FILE: 19Y08M13
003277  19Y08M13                         A5    C        16:30:20:11 16:30:21:00 01:12:47:15 01:12:48:04 
*FROM CLIP NAME:  11K11/02.SYNC.01 
*SOURCE FILE: 19Y08M13
003278  19Y08M13                         A6    C        16:30:20:11 16:30:21:00 01:12:47:15 01:12:48:04 
*FROM CLIP NAME:  11K11/02.SYNC.01 
*SOURCE FILE: 19Y08M13
003279  19Y08M13                         A7    C        16:30:20:11 16:30:21:00 01:12:47:15 01:12:48:04 
*FROM CLIP NAME:  11K11/02.SYNC.01 
*SOURCE FILE: 19Y08M13
003280  19Y08M13                         A8    C        16:30:20:11 16:30:21:00 01:12:47:15 01:12:48:04 
*FROM CLIP NAME:  11K11/02.SYNC.01 
*SOURCE FILE: 19Y08M13
003281  MSMMMOB.51                       V     C        16:30:20:11 16:30:22:02 01:12:47:15 01:12:49:06 
M2      MSMMMOB.51                                025.0 16:30:20:11 
*FROM CLIP NAME:  B019C010_190813_R481 
*SOURCE FILE: MSMMMOB.51
003282  19Y08M13                         A     C        14:25:44:24 14:25:47:14 01:12:48:04 01:12:50:19 
*FROM CLIP NAME:  11K9/04.SYNC.01 
*SOURCE FILE: 19Y08M13
003283  19Y08M13                         A2    C        14:25:44:24 14:25:47:14 01:12:48:04 01:12:50:19 
*FROM CLIP NAME:  11K9/04.SYNC.01 
*SOURCE FILE: 19Y08M13
003284  19Y08M13                         A3    C        14:25:44:24 14:25:47:14 01:12:48:04 01:12:50:19 
*FROM CLIP NAME:  11K9/04.SYNC.01 
*SOURCE FILE: 19Y08M13
003285  19Y08M13                         A4    C        14:25:44:24 14:25:47:14 01:12:48:04 01:12:50:19 
*FROM CLIP NAME:  11K9/04.SYNC.01 
*SOURCE FILE: 19Y08M13
003286  19Y08M13                         A5    C        14:25:44:24 14:25:47:14 01:12:48:04 01:12:50:19 
*FROM CLIP NAME:  11K9/04.SYNC.01 
*SOURCE FILE: 19Y08M13
003287  19Y08M13                         A6    C        14:25:44:24 14:25:47:14 01:12:48:04 01:12:50:19 
*FROM CLIP NAME:  11K9/04.SYNC.01 
*SOURCE FILE: 19Y08M13
003288  19Y08M13                         A7    C        14:25:44:24 14:25:47:14 01:12:48:04 01:12:50:19 
*FROM CLIP NAME:  11K9/04.SYNC.01 
*SOURCE FILE: 19Y08M13
003289  19Y08M13                         A8    C        14:25:44:24 14:25:47:14 01:12:48:04 01:12:50:19 
*FROM CLIP NAME:  11K9/04.SYNC.01 
*SOURCE FILE: 19Y08M13
003290  MSMMMOB.40                       V     C        14:25:46:02 14:25:48:00 01:12:49:06 01:12:51:04 
M2      MSMMMOB.40                                025.0 14:25:46:02 
*FROM CLIP NAME:  A072C005_190813_R32C 
*SOURCE FILE: MSMMMOB.40
003291  19Y08M13                         A     C        14:25:47:14 14:25:47:14 01:12:50:19 01:12:50:19 
003291  19Y08M13                         A     D    002 16:26:28:12 16:26:28:14 01:12:50:19 01:12:50:21 
*FROM CLIP NAME:  11K9/04.SYNC.01 
*TO CLIP NAME:  11K11/01.SYNC.01 
*SOURCE FILE: 19Y08M13
003292  19Y08M13                         A2    C        14:25:47:14 14:25:47:14 01:12:50:19 01:12:50:19 
003292  19Y08M13                         A2    D    002 16:26:28:12 16:26:28:14 01:12:50:19 01:12:50:21 
*FROM CLIP NAME:  11K9/04.SYNC.01 
*TO CLIP NAME:  11K11/01.SYNC.01 
*SOURCE FILE: 19Y08M13
003293  19Y08M13                         A3    C        14:25:47:14 14:25:47:14 01:12:50:19 01:12:50:19 
003293  19Y08M13                         A3    D    002 16:26:28:12 16:26:28:14 01:12:50:19 01:12:50:21 
*FROM CLIP NAME:  11K9/04.SYNC.01 
*TO CLIP NAME:  11K11/01.SYNC.01 
*SOURCE FILE: 19Y08M13
003294  19Y08M13                         A4    C        14:25:47:14 14:25:47:14 01:12:50:19 01:12:50:19 
003294  19Y08M13                         A4    D    002 16:26:28:12 16:26:28:14 01:12:50:19 01:12:50:21 
*FROM CLIP NAME:  11K9/04.SYNC.01 
*TO CLIP NAME:  11K11/01.SYNC.01 
*SOURCE FILE: 19Y08M13
003295  19Y08M13                         A5    C        14:25:47:14 14:25:47:14 01:12:50:19 01:12:50:19 
003295  19Y08M13                         A5    D    002 16:26:28:12 16:26:28:14 01:12:50:19 01:12:50:21 
*FROM CLIP NAME:  11K9/04.SYNC.01 
*TO CLIP NAME:  11K11/01.SYNC.01 
*SOURCE FILE: 19Y08M13
003296  19Y08M13                         A6    C        14:25:47:14 14:25:47:14 01:12:50:19 01:12:50:19 
003296  19Y08M13                         A6    D    002 16:26:28:12 16:26:28:14 01:12:50:19 01:12:50:21 
*FROM CLIP NAME:  11K9/04.SYNC.01 
*TO CLIP NAME:  11K11/01.SYNC.01 
*SOURCE FILE: 19Y08M13
003297  19Y08M13                         A7    C        14:25:47:14 14:25:47:14 01:12:50:19 01:12:50:19 
003297  19Y08M13                         A7    D    002 16:26:28:12 16:26:28:14 01:12:50:19 01:12:50:21 
*FROM CLIP NAME:  11K9/04.SYNC.01 
*TO CLIP NAME:  11K11/01.SYNC.01 
*SOURCE FILE: 19Y08M13
003298  19Y08M13                         A8    C        14:25:47:14 14:25:47:14 01:12:50:19 01:12:50:19 
003298  19Y08M13                         A8    D    002 16:26:28:12 16:26:28:14 01:12:50:19 01:12:50:21 
*FROM CLIP NAME:  11K9/04.SYNC.01 
*TO CLIP NAME:  11K11/01.SYNC.01 
*SOURCE FILE: 19Y08M13
003299  19Y08M13                         A     C        16:26:28:14 16:26:29:21 01:12:50:21 01:12:52:03 
*FROM CLIP NAME:  11K11/01.SYNC.01 
*SOURCE FILE: 19Y08M13
003300  19Y08M13                         A2    C        16:26:28:14 16:26:29:21 01:12:50:21 01:12:52:03 
*FROM CLIP NAME:  11K11/01.SYNC.01 
*SOURCE FILE: 19Y08M13
003301  19Y08M13                         A3    C        16:26:28:14 16:26:29:21 01:12:50:21 01:12:52:03 
*FROM CLIP NAME:  11K11/01.SYNC.01 
*SOURCE FILE: 19Y08M13
003302  19Y08M13                         A4    C        16:26:28:14 16:26:29:21 01:12:50:21 01:12:52:03 
*FROM CLIP NAME:  11K11/01.SYNC.01 
*SOURCE FILE: 19Y08M13
003303  19Y08M13                         A5    C        16:26:28:14 16:26:29:21 01:12:50:21 01:12:52:03 
*FROM CLIP NAME:  11K11/01.SYNC.01 
*SOURCE FILE: 19Y08M13
003304  19Y08M13                         A6    C        16:26:28:14 16:26:29:21 01:12:50:21 01:12:52:03 
*FROM CLIP NAME:  11K11/01.SYNC.01 
*SOURCE FILE: 19Y08M13
003305  19Y08M13                         A7    C        16:26:28:14 16:26:29:21 01:12:50:21 01:12:52:03 
*FROM CLIP NAME:  11K11/01.SYNC.01 
*SOURCE FILE: 19Y08M13
003306  19Y08M13                         A8    C        16:26:28:14 16:26:29:21 01:12:50:21 01:12:52:03 
*FROM CLIP NAME:  11K11/01.SYNC.01 
*SOURCE FILE: 19Y08M13
003307  MSMMMOB.26                       V     C        16:26:28:22 16:26:30:24 01:12:51:04 01:12:53:06 
M2      MSMMMOB.26                                025.0 16:26:28:22 
*FROM CLIP NAME:  A072C008_190813_R32C 
*SOURCE FILE: MSMMMOB.26
003308  19Y08M13                         A     C        13:53:15:10 13:53:15:24 01:12:52:03 01:12:52:17 
*FROM CLIP NAME:  11K7/02.SYNC.01 
*SOURCE FILE: 19Y08M13
003309  19Y08M13                         A2    C        13:53:15:10 13:53:15:24 01:12:52:03 01:12:52:17 
*FROM CLIP NAME:  11K7/02.SYNC.01 
*SOURCE FILE: 19Y08M13
003310  19Y08M13                         A3    C        13:53:15:10 13:53:15:24 01:12:52:03 01:12:52:17 
*FROM CLIP NAME:  11K7/02.SYNC.01 
*SOURCE FILE: 19Y08M13
003311  19Y08M13                         A4    C        13:53:15:10 13:53:15:24 01:12:52:03 01:12:52:17 
*FROM CLIP NAME:  11K7/02.SYNC.01 
*SOURCE FILE: 19Y08M13
003312  19Y08M13                         A5    C        13:53:15:10 13:53:15:24 01:12:52:03 01:12:52:17 
*FROM CLIP NAME:  11K7/02.SYNC.01 
*SOURCE FILE: 19Y08M13
003313  19Y08M13                         A6    C        13:53:15:10 13:53:15:24 01:12:52:03 01:12:52:17 
*FROM CLIP NAME:  11K7/02.SYNC.01 
*SOURCE FILE: 19Y08M13
003314  19Y08M13                         A7    C        13:53:15:10 13:53:15:24 01:12:52:03 01:12:52:17 
*FROM CLIP NAME:  11K7/02.SYNC.01 
*SOURCE FILE: 19Y08M13
003315  19Y08M13                         A8    C        13:53:15:10 13:53:15:24 01:12:52:03 01:12:52:17 
*FROM CLIP NAME:  11K7/02.SYNC.01 
*SOURCE FILE: 19Y08M13
003316  19Y08M13                         A     C        16:30:24:10 16:30:26:04 01:12:52:17 01:12:54:11 
*FROM CLIP NAME:  11K11/02.SYNC.01 
*SOURCE FILE: 19Y08M13
003317  19Y08M13                         A2    C        16:30:24:10 16:30:26:04 01:12:52:17 01:12:54:11 
*FROM CLIP NAME:  11K11/02.SYNC.01 
*SOURCE FILE: 19Y08M13
003318  19Y08M13                         A3    C        16:30:24:10 16:30:26:04 01:12:52:17 01:12:54:11 
*FROM CLIP NAME:  11K11/02.SYNC.01 
*SOURCE FILE: 19Y08M13
003319  19Y08M13                         A4    C        16:30:24:10 16:30:26:04 01:12:52:17 01:12:54:11 
*FROM CLIP NAME:  11K11/02.SYNC.01 
*SOURCE FILE: 19Y08M13
003320  19Y08M13                         A5    C        16:30:24:10 16:30:26:04 01:12:52:17 01:12:54:11 
*FROM CLIP NAME:  11K11/02.SYNC.01 
*SOURCE FILE: 19Y08M13
003321  19Y08M13                         A6    C        16:30:24:10 16:30:26:04 01:12:52:17 01:12:54:11 
*FROM CLIP NAME:  11K11/02.SYNC.01 
*SOURCE FILE: 19Y08M13
003322  19Y08M13                         A7    C        16:30:24:10 16:30:26:04 01:12:52:17 01:12:54:11 
*FROM CLIP NAME:  11K11/02.SYNC.01 
*SOURCE FILE: 19Y08M13
003323  19Y08M13                         A8    C        16:30:24:10 16:30:26:04 01:12:52:17 01:12:54:11 
*FROM CLIP NAME:  11K11/02.SYNC.01 
*SOURCE FILE: 19Y08M13
003324  MSMMMOB.91                       V     C        16:33:40:20 16:33:42:11 01:12:53:06 01:12:54:22 
M2      MSMMMOB.91                                025.0 16:33:40:20 
*FROM CLIP NAME:  A073C001_190813_R32C 
*SOURCE FILE: MSMMMOB.91
003325  BL                               A15   C        00:00:00:00 00:00:00:00 01:12:53:16 01:12:53:16 
003325  KVNDVENT[LOVE].MP3               A15   D    083 01:00:00:00 01:00:03:08 01:12:53:16 01:12:56:24 
*TO CLIP NAME:  KVNDVENT[LOVE].MP3 
*A15 VOL = -15.5 DB  PAN R100 
*PATCH KVNDVENT[LOVE].MP3:  FROM SOURCE 1 TO RECORD 15 
*SOURCE FILE: (NULL)
003326  BL                               A16   C        00:00:00:00 00:00:00:00 01:12:53:16 01:12:53:16 
003326  KVNDVENT[LOVE].MP3               A16   D    083 01:00:00:00 01:00:03:08 01:12:53:16 01:12:56:24 
*TO CLIP NAME:  KVNDVENT[LOVE].MP3 
*A16 VOL = -15.0 DB  PAN L100 
*PATCH KVNDVENT[LOVE].MP3:  FROM SOURCE 2 TO RECORD 16 
*SOURCE FILE: (NULL)
003327  19Y08M13                         A     C        16:33:42:00 16:33:42:11 01:12:54:11 01:12:54:22 
*FROM CLIP NAME:  11K12/01.SYNC.01 
*SOURCE FILE: 19Y08M13
003328  19Y08M13                         A2    C        16:33:42:00 16:33:42:11 01:12:54:11 01:12:54:22 
*FROM CLIP NAME:  11K12/01.SYNC.01 
*SOURCE FILE: 19Y08M13
003329  19Y08M13                         A3    C        16:33:42:00 16:33:42:11 01:12:54:11 01:12:54:22 
*FROM CLIP NAME:  11K12/01.SYNC.01 
*SOURCE FILE: 19Y08M13
003330  19Y08M13                         A4    C        16:33:42:00 16:33:42:11 01:12:54:11 01:12:54:22 
*FROM CLIP NAME:  11K12/01.SYNC.01 
*SOURCE FILE: 19Y08M13
003331  19Y08M13                         A5    C        16:33:42:00 16:33:42:11 01:12:54:11 01:12:54:22 
*FROM CLIP NAME:  11K12/01.SYNC.01 
*SOURCE FILE: 19Y08M13
003332  19Y08M13                         A6    C        16:33:42:00 16:33:42:11 01:12:54:11 01:12:54:22 
*FROM CLIP NAME:  11K12/01.SYNC.01 
*SOURCE FILE: 19Y08M13
003333  19Y08M13                         A7    C        16:33:42:00 16:33:42:11 01:12:54:11 01:12:54:22 
*FROM CLIP NAME:  11K12/01.SYNC.01 
*SOURCE FILE: 19Y08M13
003334  19Y08M13                         A8    C        16:33:42:00 16:33:42:11 01:12:54:11 01:12:54:22 
*FROM CLIP NAME:  11K12/01.SYNC.01 
*SOURCE FILE: 19Y08M13
003335  19Y08M13                         A     C        16:29:20:22 16:29:21:02 01:12:54:22 01:12:55:02 
*FROM CLIP NAME:  11K11/02.SYNC.01 
*SOURCE FILE: 19Y08M13
003336  19Y08M13                         A2    C        16:29:20:22 16:29:21:02 01:12:54:22 01:12:55:02 
*FROM CLIP NAME:  11K11/02.SYNC.01 
*SOURCE FILE: 19Y08M13
003337  19Y08M13                         A3    C        16:29:20:22 16:29:21:02 01:12:54:22 01:12:55:02 
*FROM CLIP NAME:  11K11/02.SYNC.01 
*SOURCE FILE: 19Y08M13
003338  19Y08M13                         A4    C        16:29:20:22 16:29:21:02 01:12:54:22 01:12:55:02 
*FROM CLIP NAME:  11K11/02.SYNC.01 
*SOURCE FILE: 19Y08M13
003339  19Y08M13                         A5    C        16:29:20:22 16:29:21:02 01:12:54:22 01:12:55:02 
*FROM CLIP NAME:  11K11/02.SYNC.01 
*SOURCE FILE: 19Y08M13
003340  19Y08M13                         A6    C        16:29:20:22 16:29:21:02 01:12:54:22 01:12:55:02 
*FROM CLIP NAME:  11K11/02.SYNC.01 
*SOURCE FILE: 19Y08M13
003341  19Y08M13                         A7    C        16:29:20:22 16:29:21:02 01:12:54:22 01:12:55:02 
*FROM CLIP NAME:  11K11/02.SYNC.01 
*SOURCE FILE: 19Y08M13
003342  19Y08M13                         A8    C        16:29:20:22 16:29:21:02 01:12:54:22 01:12:55:02 
*FROM CLIP NAME:  11K11/02.SYNC.01 
*SOURCE FILE: 19Y08M13
003343  MSMMMOB.40                       V     C        14:25:50:21 14:25:52:24 01:12:54:22 01:12:57:00 
M2      MSMMMOB.40                                025.0 14:25:50:21 
*FROM CLIP NAME:  A072C005_190813_R32C 
*SOURCE FILE: MSMMMOB.40
003344  19Y08M13                         A     C        14:25:51:00 14:25:53:02 01:12:55:02 01:12:57:04 
*FROM CLIP NAME:  11K9/04.SYNC.01 
*SOURCE FILE: 19Y08M13
003345  19Y08M13                         A2    C        14:25:51:00 14:25:53:02 01:12:55:02 01:12:57:04 
*FROM CLIP NAME:  11K9/04.SYNC.01 
*SOURCE FILE: 19Y08M13
003346  19Y08M13                         A3    C        14:25:51:00 14:25:53:02 01:12:55:02 01:12:57:04 
*FROM CLIP NAME:  11K9/04.SYNC.01 
*SOURCE FILE: 19Y08M13
003347  19Y08M13                         A4    C        14:25:51:00 14:25:53:02 01:12:55:02 01:12:57:04 
*FROM CLIP NAME:  11K9/04.SYNC.01 
*SOURCE FILE: 19Y08M13
003348  19Y08M13                         A5    C        14:25:51:00 14:25:53:02 01:12:55:02 01:12:57:04 
*FROM CLIP NAME:  11K9/04.SYNC.01 
*SOURCE FILE: 19Y08M13
003349  19Y08M13                         A6    C        14:25:51:00 14:25:53:02 01:12:55:02 01:12:57:04 
*FROM CLIP NAME:  11K9/04.SYNC.01 
*SOURCE FILE: 19Y08M13
003350  19Y08M13                         A7    C        14:25:51:00 14:25:53:02 01:12:55:02 01:12:57:04 
*FROM CLIP NAME:  11K9/04.SYNC.01 
*SOURCE FILE: 19Y08M13
003351  19Y08M13                         A8    C        14:25:51:00 14:25:53:02 01:12:55:02 01:12:57:04 
*FROM CLIP NAME:  11K9/04.SYNC.01 
*SOURCE FILE: 19Y08M13
003352  KVNDVENT[LOVE].MP3               A15   C        01:00:03:08 01:00:11:00 01:12:56:24 01:13:04:16 
*FROM CLIP NAME:  KVNDVENT[LOVE].MP3 
*A15 VOL = -15.5 DB  PAN R100 
*PATCH KVNDVENT[LOVE].MP3:  FROM SOURCE 1 TO RECORD 15 
*SOURCE FILE: KVNDVENT[LOVE].MP3
003353  KVNDVENT[LOVE].MP3               A16   C        01:00:03:08 01:00:11:00 01:12:56:24 01:13:04:16 
*FROM CLIP NAME:  KVNDVENT[LOVE].MP3 
*A16 VOL = -15.0 DB  PAN L100 
*PATCH KVNDVENT[LOVE].MP3:  FROM SOURCE 2 TO RECORD 16 
*SOURCE FILE: KVNDVENT[LOVE].MP3
003354  MSMMMOB.37                       V     C        16:30:29:16 16:30:31:13 01:12:57:00 01:12:58:22 
M2      MSMMMOB.37                                025.0 16:30:29:16 
*FROM CLIP NAME:  A072C009_190813_R32C 
*SOURCE FILE: MSMMMOB.37
003355  19Y08M13                         A     C        14:01:26:09 14:01:26:16 01:12:57:04 01:12:57:11 
*FROM CLIP NAME:  11K8/01.SYNC.01 
*SOURCE FILE: 19Y08M13
003356  19Y08M13                         A2    C        14:01:26:09 14:01:26:16 01:12:57:04 01:12:57:11 
*FROM CLIP NAME:  11K8/01.SYNC.01 
*SOURCE FILE: 19Y08M13
003357  19Y08M13                         A3    C        14:01:26:09 14:01:26:16 01:12:57:04 01:12:57:11 
*FROM CLIP NAME:  11K8/01.SYNC.01 
*SOURCE FILE: 19Y08M13
003358  19Y08M13                         A4    C        14:01:26:09 14:01:26:16 01:12:57:04 01:12:57:11 
*FROM CLIP NAME:  11K8/01.SYNC.01 
*SOURCE FILE: 19Y08M13
003359  19Y08M13                         A5    C        14:01:26:09 14:01:26:16 01:12:57:04 01:12:57:11 
*FROM CLIP NAME:  11K8/01.SYNC.01 
*SOURCE FILE: 19Y08M13
003360  19Y08M13                         A6    C        14:01:26:09 14:01:26:16 01:12:57:04 01:12:57:11 
*FROM CLIP NAME:  11K8/01.SYNC.01 
*SOURCE FILE: 19Y08M13
003361  19Y08M13                         A7    C        14:01:26:09 14:01:26:16 01:12:57:04 01:12:57:11 
*FROM CLIP NAME:  11K8/01.SYNC.01 
*SOURCE FILE: 19Y08M13
003362  19Y08M13                         A8    C        14:01:26:09 14:01:26:16 01:12:57:04 01:12:57:11 
*FROM CLIP NAME:  11K8/01.SYNC.01 
*SOURCE FILE: 19Y08M13
003363  19Y08M13                         A     C        14:25:55:02 14:25:55:24 01:12:57:11 01:12:58:08 
*FROM CLIP NAME:  11K9/04.SYNC.01 
*SOURCE FILE: 19Y08M13
003364  19Y08M13                         A2    C        14:25:55:02 14:25:55:24 01:12:57:11 01:12:58:08 
*FROM CLIP NAME:  11K9/04.SYNC.01 
*SOURCE FILE: 19Y08M13
003365  19Y08M13                         A3    C        14:25:55:02 14:25:55:24 01:12:57:11 01:12:58:08 
*FROM CLIP NAME:  11K9/04.SYNC.01 
*SOURCE FILE: 19Y08M13
003366  19Y08M13                         A4    C        14:25:55:02 14:25:55:24 01:12:57:11 01:12:58:08 
*FROM CLIP NAME:  11K9/04.SYNC.01 
*SOURCE FILE: 19Y08M13
003367  19Y08M13                         A5    C        14:25:55:02 14:25:55:24 01:12:57:11 01:12:58:08 
*FROM CLIP NAME:  11K9/04.SYNC.01 
*SOURCE FILE: 19Y08M13
003368  19Y08M13                         A6    C        14:25:55:02 14:25:55:24 01:12:57:11 01:12:58:08 
*FROM CLIP NAME:  11K9/04.SYNC.01 
*SOURCE FILE: 19Y08M13
003369  19Y08M13                         A7    C        14:25:55:02 14:25:55:24 01:12:57:11 01:12:58:08 
*FROM CLIP NAME:  11K9/04.SYNC.01 
*SOURCE FILE: 19Y08M13
003370  19Y08M13                         A8    C        14:25:55:02 14:25:55:24 01:12:57:11 01:12:58:08 
*FROM CLIP NAME:  11K9/04.SYNC.01 
*SOURCE FILE: 19Y08M13
003371  19Y08M13                         A8    C        14:25:56:22 14:25:58:11 01:12:58:08 01:12:59:22 
*FROM CLIP NAME:  11K9/04.SYNC.01 
*SOURCE FILE: 19Y08M13
003372  19Y08M13                         A7    C        14:01:27:13 14:01:29:24 01:12:58:08 01:13:00:19 
*FROM CLIP NAME:  11K8/01.SYNC.01 
*SOURCE FILE: 19Y08M13
003373  19Y08M13                         A     C        14:01:27:13 14:01:31:20 01:12:58:08 01:13:02:15 
*FROM CLIP NAME:  11K8/01.SYNC.01 
*SOURCE FILE: 19Y08M13
003374  19Y08M13                         A2    C        14:01:27:13 14:01:31:20 01:12:58:08 01:13:02:15 
*FROM CLIP NAME:  11K8/01.SYNC.01 
*SOURCE FILE: 19Y08M13
003375  19Y08M13                         A4    C        14:01:27:13 14:01:31:20 01:12:58:08 01:13:02:15 
*FROM CLIP NAME:  11K8/01.SYNC.01 
*SOURCE FILE: 19Y08M13
003376  19Y08M13                         A3    C        14:01:27:13 14:01:33:20 01:12:58:08 01:13:04:15 
*FROM CLIP NAME:  11K8/01.SYNC.01 
*SOURCE FILE: 19Y08M13
003377  19Y08M13                         A5    C        14:01:27:13 14:01:33:20 01:12:58:08 01:13:04:15 
*FROM CLIP NAME:  11K8/01.SYNC.01 
*SOURCE FILE: 19Y08M13
003378  19Y08M13                         A6    C        14:01:27:13 14:01:33:20 01:12:58:08 01:13:04:15 
*FROM CLIP NAME:  11K8/01.SYNC.01 
*SOURCE FILE: 19Y08M13
003379  MSMMMOB.31                       V     C        14:01:28:03 14:01:33:21 01:12:58:22 01:13:04:15 
M2      MSMMMOB.31                                025.0 14:01:28:03 
*FROM CLIP NAME:  B019C003_190813_R481 
*SOURCE FILE: MSMMMOB.31
003380  19Y08M13                         A8    C        14:01:29:02 14:01:29:24 01:12:59:22 01:13:00:19 
*FROM CLIP NAME:  11K8/01.SYNC.01 
*SOURCE FILE: 19Y08M13
003381  MSMMMOB.73                       V     C        17:01:28:07 17:01:30:08 01:13:04:15 01:13:06:16 
M2      MSMMMOB.73                                025.0 17:01:28:07 
*FROM CLIP NAME:  A073C004_190813_R32C 
*SOURCE FILE: MSMMMOB.73
003382  19Y08M13                         A     C        17:01:28:07 17:01:34:16 01:13:04:15 01:13:10:24 
*FROM CLIP NAME:  11K13/03.SYNC.01 
*SOURCE FILE: 19Y08M13
003383  19Y08M13                         A2    C        17:01:28:07 17:01:34:16 01:13:04:15 01:13:10:24 
*FROM CLIP NAME:  11K13/03.SYNC.01 
*SOURCE FILE: 19Y08M13
003384  19Y08M13                         A3    C        17:01:28:07 17:01:34:16 01:13:04:15 01:13:10:24 
*FROM CLIP NAME:  11K13/03.SYNC.01 
*PATCH 19Y08M13:  FROM SOURCE 7 TO RECORD 3 
*SOURCE FILE: 19Y08M13
003385  19Y08M13                         A4    C        17:01:28:07 17:01:34:16 01:13:04:15 01:13:10:24 
*FROM CLIP NAME:  11K13/03.SYNC.01 
*PATCH 19Y08M13:  FROM SOURCE 8 TO RECORD 4 
*SOURCE FILE: 19Y08M13
003386  KVNDVENT[LOVE].MP3               A13   C        01:01:40:13 01:01:57:16 01:13:04:16 01:13:21:19 
*FROM CLIP NAME:  KVNDVENT[LOVE].MP3 
*A13 VOL = -23.6 DB  PAN R100 
*PATCH KVNDVENT[LOVE].MP3:  FROM SOURCE 1 TO RECORD 13 
*SOURCE FILE: KVNDVENT[LOVE].MP3
003387  KVNDVENT[LOVE].MP3               A14   C        01:01:40:13 01:01:57:16 01:13:04:16 01:13:21:19 
*FROM CLIP NAME:  KVNDVENT[LOVE].MP3 
*A14 VOL = -23.6 DB  PAN L100 
*PATCH KVNDVENT[LOVE].MP3:  FROM SOURCE 2 TO RECORD 14 
*SOURCE FILE: KVNDVENT[LOVE].MP3
003388  MSMMMOB.87                       V     C        17:01:30:08 17:01:34:16 01:13:06:16 01:13:10:24 
M2      MSMMMOB.87                                025.0 17:01:30:08 
*FROM CLIP NAME:  B020C003_190813_R481 
*SOURCE FILE: MSMMMOB.87
003389  MSMMMOB.73                       V     C        17:01:35:10 17:01:39:08 01:13:10:24 01:13:14:22 
M2      MSMMMOB.73                                025.0 17:01:35:10 
*FROM CLIP NAME:  A073C004_190813_R32C 
*SOURCE FILE: MSMMMOB.73
003390  19Y08M13                         A     C        17:01:35:10 17:01:39:08 01:13:10:24 01:13:14:22 
*FROM CLIP NAME:  11K13/03.SYNC.01 
*SOURCE FILE: 19Y08M13
003391  19Y08M13                         A2    C        17:01:35:10 17:01:39:08 01:13:10:24 01:13:14:22 
*FROM CLIP NAME:  11K13/03.SYNC.01 
*SOURCE FILE: 19Y08M13
003392  19Y08M13                         A3    C        17:01:35:10 17:01:39:08 01:13:10:24 01:13:14:22 
*FROM CLIP NAME:  11K13/03.SYNC.01 
*PATCH 19Y08M13:  FROM SOURCE 7 TO RECORD 3 
*SOURCE FILE: 19Y08M13
003393  19Y08M13                         A4    C        17:01:35:10 17:01:39:08 01:13:10:24 01:13:14:22 
*FROM CLIP NAME:  11K13/03.SYNC.01 
*PATCH 19Y08M13:  FROM SOURCE 8 TO RECORD 4 
*SOURCE FILE: 19Y08M13
003394  19Y08M13                         A     C        17:01:39:13 17:01:43:18 01:13:14:22 01:13:19:02 
*FROM CLIP NAME:  11K13/03.SYNC.01 
*SOURCE FILE: 19Y08M13
003395  19Y08M13                         A2    C        17:01:39:13 17:01:43:18 01:13:14:22 01:13:19:02 
*FROM CLIP NAME:  11K13/03.SYNC.01 
*SOURCE FILE: 19Y08M13
003396  19Y08M13                         A3    C        17:01:39:13 17:01:43:18 01:13:14:22 01:13:19:02 
*FROM CLIP NAME:  11K13/03.SYNC.01 
*PATCH 19Y08M13:  FROM SOURCE 7 TO RECORD 3 
*SOURCE FILE: 19Y08M13
003397  19Y08M13                         A4    C        17:01:39:13 17:01:43:18 01:13:14:22 01:13:19:02 
*FROM CLIP NAME:  11K13/03.SYNC.01 
*PATCH 19Y08M13:  FROM SOURCE 8 TO RECORD 4 
*SOURCE FILE: 19Y08M13
003398  MSMMMOB.87                       V     C        17:01:39:13 17:01:45:21 01:13:14:22 01:13:21:05 
M2      MSMMMOB.87                                025.0 17:01:39:13 
*FROM CLIP NAME:  B020C003_190813_R481 
*SOURCE FILE: MSMMMOB.87
003399  00306.MP3                        A11   C        01:00:00:00 01:00:09:10 01:13:18:16 01:13:28:01 
*FROM CLIP NAME:  00306.MP3 
*PATCH 00306.MP3:  FROM SOURCE 1 TO RECORD 11 
*SOURCE FILE: 00306.MP3
003400  00306.MP3                        A12   C        01:00:00:00 01:00:09:10 01:13:18:16 01:13:28:01 
*FROM CLIP NAME:  00306.MP3 
*PATCH 00306.MP3:  FROM SOURCE 2 TO RECORD 12 
*SOURCE FILE: 00306.MP3
003401  19Y08M13                         A     C        14:01:31:22 14:01:34:00 01:13:19:02 01:13:21:05 
*FROM CLIP NAME:  11K8/01.SYNC.01 
*PATCH 19Y08M13:  FROM SOURCE 5 TO RECORD 1 
*SOURCE FILE: 19Y08M13
003402  19Y08M13                         A2    C        17:01:43:12 17:01:45:15 01:13:19:02 01:13:21:05 
*FROM CLIP NAME:  11K13/03.SYNC.01 
*SOURCE FILE: 19Y08M13
003403  19Y08M13                         A3    C        17:01:43:12 17:01:45:15 01:13:19:02 01:13:21:05 
*FROM CLIP NAME:  11K13/03.SYNC.01 
*PATCH 19Y08M13:  FROM SOURCE 7 TO RECORD 3 
*SOURCE FILE: 19Y08M13
003404  19Y08M13                         A4    C        17:01:43:12 17:01:45:15 01:13:19:02 01:13:21:05 
*FROM CLIP NAME:  11K13/03.SYNC.01 
*PATCH 19Y08M13:  FROM SOURCE 8 TO RECORD 4 
*SOURCE FILE: 19Y08M13
003405  19Y08M13                         A5    C        17:01:43:12 17:01:45:15 01:13:19:02 01:13:21:05 
*FROM CLIP NAME:  11K13/03.SYNC.01 
*PATCH 19Y08M13:  FROM SOURCE 1 TO RECORD 5 
*SOURCE FILE: 19Y08M13
003406  19Y08M13                         A5    C        14:01:39:01 14:01:39:14 01:13:21:05 01:13:21:18 
*FROM CLIP NAME:  11K8/01.SYNC.01 
*SOURCE FILE: 19Y08M13
003407  19Y08M13                         A6    C        14:01:39:01 14:01:39:14 01:13:21:05 01:13:21:18 
*FROM CLIP NAME:  11K8/01.SYNC.01 
*SOURCE FILE: 19Y08M13
003408  19Y08M13                         A7    C        14:01:39:01 14:01:39:14 01:13:21:05 01:13:21:18 
*FROM CLIP NAME:  11K8/01.SYNC.01 
*SOURCE FILE: 19Y08M13
003409  19Y08M13                         A8    C        14:01:39:01 14:01:39:14 01:13:21:05 01:13:21:18 
*FROM CLIP NAME:  11K8/01.SYNC.01 
*SOURCE FILE: 19Y08M13
003410  MSMMMOB.31                       V     C        14:01:40:08 14:01:43:10 01:13:21:05 01:13:24:07 
M2      MSMMMOB.31                                025.0 14:01:40:08 
*FROM CLIP NAME:  B019C003_190813_R481 
*SOURCE FILE: MSMMMOB.31
003411  19Y08M13                         A     C        14:01:40:07 14:01:43:09 01:13:21:05 01:13:24:07 
*FROM CLIP NAME:  11K8/01.SYNC.01 
*SOURCE FILE: 19Y08M13
003412  19Y08M13                         A2    C        14:01:40:07 14:01:43:09 01:13:21:05 01:13:24:07 
*FROM CLIP NAME:  11K8/01.SYNC.01 
*SOURCE FILE: 19Y08M13
003413  19Y08M13                         A3    C        14:01:40:07 14:01:43:09 01:13:21:05 01:13:24:07 
*FROM CLIP NAME:  11K8/01.SYNC.01 
*PATCH 19Y08M13:  FROM SOURCE 4 TO RECORD 3 
*SOURCE FILE: 19Y08M13
003414  19Y08M13                         A4    C        14:01:40:07 14:01:43:09 01:13:21:05 01:13:24:07 
*FROM CLIP NAME:  11K8/01.SYNC.01 
*PATCH 19Y08M13:  FROM SOURCE 6 TO RECORD 4 
*SOURCE FILE: 19Y08M13
003415  KVNDVENT[LOVE].MP3               A15   C        01:00:22:07 01:00:34:12 01:13:21:10 01:13:33:15 
*FROM CLIP NAME:  KVNDVENT[LOVE].MP3 
*A15 VOL = -16.2 DB  PAN L100 
*PATCH KVNDVENT[LOVE].MP3:  FROM SOURCE 1 TO RECORD 15 
*SOURCE FILE: KVNDVENT[LOVE].MP3
003416  KVNDVENT[LOVE].MP3               A16   C        01:00:22:07 01:00:34:12 01:13:21:10 01:13:33:15 
*FROM CLIP NAME:  KVNDVENT[LOVE].MP3 
*A16 VOL = -16.2 DB  PAN R100 
*PATCH KVNDVENT[LOVE].MP3:  FROM SOURCE 2 TO RECORD 16 
*SOURCE FILE: KVNDVENT[LOVE].MP3
003417  19Y08M13                         A5    C        16:30:42:15 16:30:43:05 01:13:21:18 01:13:22:08 
*FROM CLIP NAME:  11K11/02.SYNC.01 
*SOURCE FILE: 19Y08M13
003418  19Y08M13                         A6    C        16:30:42:15 16:30:43:05 01:13:21:18 01:13:22:08 
*FROM CLIP NAME:  11K11/02.SYNC.01 
*SOURCE FILE: 19Y08M13
003419  19Y08M13                         A7    C        16:30:42:15 16:30:43:05 01:13:21:18 01:13:22:08 
*FROM CLIP NAME:  11K11/02.SYNC.01 
*PATCH 19Y08M13:  FROM SOURCE 3 TO RECORD 7 
*SOURCE FILE: 19Y08M13
003420  19Y08M13                         A8    C        16:30:42:15 16:30:43:05 01:13:21:18 01:13:22:08 
*FROM CLIP NAME:  11K11/02.SYNC.01 
*PATCH 19Y08M13:  FROM SOURCE 4 TO RECORD 8 
*SOURCE FILE: 19Y08M13
003421  KVNDVENT[LOVE].MP3               A13   C        01:01:57:16 01:01:57:16 01:13:21:19 01:13:21:19 
003421  BL                               A13   D    030 00:00:00:00 00:00:01:05 01:13:21:19 01:13:22:24 
*FROM CLIP NAME:  KVNDVENT[LOVE].MP3 
*A13 VOL = -23.6 DB  PAN R100 
*PATCH KVNDVENT[LOVE].MP3:  FROM SOURCE 1 TO RECORD 13 
*SOURCE FILE: KVNDVENT[LOVE].MP3
003422  KVNDVENT[LOVE].MP3               A14   C        01:01:57:16 01:01:57:16 01:13:21:19 01:13:21:19 
003422  BL                               A14   D    030 00:00:00:00 00:00:01:05 01:13:21:19 01:13:22:24 
*FROM CLIP NAME:  KVNDVENT[LOVE].MP3 
*A14 VOL = -23.6 DB  PAN L100 
*PATCH KVNDVENT[LOVE].MP3:  FROM SOURCE 2 TO RECORD 14 
*SOURCE FILE: KVNDVENT[LOVE].MP3
003423  MSMMMOB.31                       V     C        14:01:44:17 14:01:47:09 01:13:24:07 01:13:26:24 
M2      MSMMMOB.31                                025.0 14:01:44:17 
*FROM CLIP NAME:  B019C003_190813_R481 
*SOURCE FILE: MSMMMOB.31
003424  19Y08M13                         A     C        14:01:44:16 14:01:47:08 01:13:24:07 01:13:26:24 
*FROM CLIP NAME:  11K8/01.SYNC.01 
*SOURCE FILE: 19Y08M13
003425  19Y08M13                         A2    C        14:01:44:16 14:01:47:08 01:13:24:07 01:13:26:24 
*FROM CLIP NAME:  11K8/01.SYNC.01 
*SOURCE FILE: 19Y08M13
003426  19Y08M13                         A3    C        14:01:44:16 14:01:47:08 01:13:24:07 01:13:26:24 
*FROM CLIP NAME:  11K8/01.SYNC.01 
*PATCH 19Y08M13:  FROM SOURCE 4 TO RECORD 3 
*SOURCE FILE: 19Y08M13
003427  19Y08M13                         A4    C        14:01:44:16 14:01:47:08 01:13:24:07 01:13:26:24 
*FROM CLIP NAME:  11K8/01.SYNC.01 
*PATCH 19Y08M13:  FROM SOURCE 6 TO RECORD 4 
*SOURCE FILE: 19Y08M13
003428  MSMMMOB.37                       V     C        16:30:39:23 16:30:41:23 01:13:26:24 01:13:28:24 
M2      MSMMMOB.37                                025.0 16:30:39:23 
*FROM CLIP NAME:  A072C009_190813_R32C 
*SOURCE FILE: MSMMMOB.37
003429  19Y08M13                         A     C        16:30:39:23 16:30:41:23 01:13:26:24 01:13:28:24 
*FROM CLIP NAME:  11K11/02.SYNC.01 
*SOURCE FILE: 19Y08M13
003430  19Y08M13                         A2    C        16:30:39:23 16:30:41:23 01:13:26:24 01:13:28:24 
*FROM CLIP NAME:  11K11/02.SYNC.01 
*SOURCE FILE: 19Y08M13
003431  19Y08M13                         A3    C        16:30:39:23 16:30:41:23 01:13:26:24 01:13:28:24 
*FROM CLIP NAME:  11K11/02.SYNC.01 
*SOURCE FILE: 19Y08M13
003432  19Y08M13                         A4    C        16:30:39:23 16:30:41:23 01:13:26:24 01:13:28:24 
*FROM CLIP NAME:  11K11/02.SYNC.01 
*SOURCE FILE: 19Y08M13
003433  19Y08M13                         A5    C        16:30:39:23 16:30:41:23 01:13:26:24 01:13:28:24 
*FROM CLIP NAME:  11K11/02.SYNC.01 
*SOURCE FILE: 19Y08M13
003434  19Y08M13                         A6    C        16:30:39:23 16:30:41:23 01:13:26:24 01:13:28:24 
*FROM CLIP NAME:  11K11/02.SYNC.01 
*PATCH 19Y08M13:  FROM SOURCE 7 TO RECORD 6 
*SOURCE FILE: 19Y08M13
003435  19Y08M13                         A7    C        16:30:39:23 16:30:41:23 01:13:26:24 01:13:28:24 
*FROM CLIP NAME:  11K11/02.SYNC.01 
*PATCH 19Y08M13:  FROM SOURCE 8 TO RECORD 7 
*SOURCE FILE: 19Y08M13
003436  19Y07M26                         A8    C        23:12:20:19 23:12:22:19 01:13:26:24 01:13:28:24 
*FROM CLIP NAME:  62K2/01 
*PATCH 19Y07M26:  FROM SOURCE 2 TO RECORD 8 
*SOURCE FILE: 19Y07M26
003437  19Y07M26                         A9    C        23:12:20:19 23:12:22:19 01:13:26:24 01:13:28:24 
*FROM CLIP NAME:  62K2/01 
*PATCH 19Y07M26:  FROM SOURCE 1 TO RECORD 9 
*SOURCE FILE: 19Y07M26
003438  19Y07M26                         A10   C        23:12:20:19 23:12:22:19 01:13:26:24 01:13:28:24 
*FROM CLIP NAME:  62K2/01 
*PATCH 19Y07M26:  FROM SOURCE 4 TO RECORD 10 
*SOURCE FILE: 19Y07M26
003439  00306.MP3                        A11   C        01:00:09:10 01:00:09:10 01:13:28:01 01:13:28:01 
003439  BL                               A11   D    093 00:00:00:00 00:00:03:18 01:13:28:01 01:13:31:19 
*FROM CLIP NAME:  00306.MP3 
*PATCH 00306.MP3:  FROM SOURCE 1 TO RECORD 11 
*SOURCE FILE: 00306.MP3
003440  00306.MP3                        A12   C        01:00:09:10 01:00:09:10 01:13:28:01 01:13:28:01 
003440  BL                               A12   D    093 00:00:00:00 00:00:03:18 01:13:28:01 01:13:31:19 
*FROM CLIP NAME:  00306.MP3 
*PATCH 00306.MP3:  FROM SOURCE 2 TO RECORD 12 
*SOURCE FILE: 00306.MP3
003441  BL                               V     C        00:00:00:00 00:00:03:23 01:13:28:19 01:13:32:17 
*SOURCE FILE: (NULL)
003442  TITLE.01                         V     C        01:00:17:23 01:00:21:21 01:13:28:19 01:13:32:17 
*FROM CLIP NAME:  TITLE.01 
*SOURCE FILE: TITLE.01
003443  MSMMMOB.37                       V     C        16:30:49:01 16:30:51:14 01:13:28:24 01:13:31:12 
M2      MSMMMOB.37                                025.0 16:30:49:01 
*FROM CLIP NAME:  A072C009_190813_R32C 
*SOURCE FILE: MSMMMOB.37
003444  19Y08M13                         A     C        16:30:49:01 16:30:51:14 01:13:28:24 01:13:31:12 
*FROM CLIP NAME:  11K11/02.SYNC.01 
*SOURCE FILE: 19Y08M13
003445  19Y08M13                         A2    C        16:30:49:01 16:30:51:14 01:13:28:24 01:13:31:12 
*FROM CLIP NAME:  11K11/02.SYNC.01 
*SOURCE FILE: 19Y08M13
003446  19Y08M13                         A3    C        16:30:49:01 16:30:51:14 01:13:28:24 01:13:31:12 
*FROM CLIP NAME:  11K11/02.SYNC.01 
*SOURCE FILE: 19Y08M13
003447  19Y08M13                         A4    C        16:30:49:01 16:30:51:14 01:13:28:24 01:13:31:12 
*FROM CLIP NAME:  11K11/02.SYNC.01 
*SOURCE FILE: 19Y08M13
003448  19Y08M13                         A5    C        16:30:49:01 16:30:51:14 01:13:28:24 01:13:31:12 
*FROM CLIP NAME:  11K11/02.SYNC.01 
*SOURCE FILE: 19Y08M13
003449  19Y08M13                         A6    C        16:30:49:01 16:30:51:14 01:13:28:24 01:13:31:12 
*FROM CLIP NAME:  11K11/02.SYNC.01 
*PATCH 19Y08M13:  FROM SOURCE 7 TO RECORD 6 
*SOURCE FILE: 19Y08M13
003450  19Y08M13                         A7    C        16:30:49:01 16:30:51:14 01:13:28:24 01:13:31:12 
*FROM CLIP NAME:  11K11/02.SYNC.01 
*PATCH 19Y08M13:  FROM SOURCE 8 TO RECORD 7 
*SOURCE FILE: 19Y08M13
003451  19Y07M26                         A8    C        23:27:35:07 23:27:37:20 01:13:28:24 01:13:31:12 
*FROM CLIP NAME:  62K3/01 
*PATCH 19Y07M26:  FROM SOURCE 2 TO RECORD 8 
*SOURCE FILE: 19Y07M26
003452  19Y07M26                         A9    C        23:27:35:07 23:27:37:20 01:13:28:24 01:13:31:12 
*FROM CLIP NAME:  62K3/01 
*PATCH 19Y07M26:  FROM SOURCE 1 TO RECORD 9 
*SOURCE FILE: 19Y07M26
003453  19Y07M26                         A10   C        23:27:35:07 23:27:37:20 01:13:28:24 01:13:31:12 
*FROM CLIP NAME:  62K3/01 
*PATCH 19Y07M26:  FROM SOURCE 4 TO RECORD 10 
*SOURCE FILE: 19Y07M26
003454  MSMMMOB.51                       V     C        16:30:54:23 16:30:56:03 01:13:31:12 01:13:32:17 
M2      MSMMMOB.51                                025.0 16:30:54:23 
*FROM CLIP NAME:  B019C010_190813_R481 
*SOURCE FILE: MSMMMOB.51
003455  19Y08M13                         A     C        16:30:54:23 16:30:56:03 01:13:31:12 01:13:32:17 
*FROM CLIP NAME:  11K11/02.SYNC.01 
*SOURCE FILE: 19Y08M13
003456  19Y08M13                         A2    C        16:30:54:23 16:30:56:03 01:13:31:12 01:13:32:17 
*FROM CLIP NAME:  11K11/02.SYNC.01 
*SOURCE FILE: 19Y08M13
003457  19Y08M13                         A3    C        16:30:54:23 16:30:56:03 01:13:31:12 01:13:32:17 
*FROM CLIP NAME:  11K11/02.SYNC.01 
*SOURCE FILE: 19Y08M13
003458  19Y08M13                         A4    C        16:30:54:23 16:30:56:03 01:13:31:12 01:13:32:17 
*FROM CLIP NAME:  11K11/02.SYNC.01 
*SOURCE FILE: 19Y08M13
003459  19Y08M13                         A5    C        16:30:54:23 16:30:56:03 01:13:31:12 01:13:32:17 
*FROM CLIP NAME:  11K11/02.SYNC.01 
*SOURCE FILE: 19Y08M13
003460  19Y08M13                         A6    C        16:30:54:23 16:30:56:03 01:13:31:12 01:13:32:17 
*FROM CLIP NAME:  11K11/02.SYNC.01 
*PATCH 19Y08M13:  FROM SOURCE 7 TO RECORD 6 
*SOURCE FILE: 19Y08M13
003461  19Y08M13                         A7    C        16:30:54:23 16:30:56:03 01:13:31:12 01:13:32:17 
*FROM CLIP NAME:  11K11/02.SYNC.01 
*PATCH 19Y08M13:  FROM SOURCE 8 TO RECORD 7 
*SOURCE FILE: 19Y08M13
003462  19Y07M26                         A8    C        23:27:41:04 23:27:42:09 01:13:31:12 01:13:32:17 
*FROM CLIP NAME:  62K3/01 
*PATCH 19Y07M26:  FROM SOURCE 2 TO RECORD 8 
*SOURCE FILE: 19Y07M26
003463  19Y07M26                         A9    C        23:27:41:04 23:27:42:09 01:13:31:12 01:13:32:17 
*FROM CLIP NAME:  62K3/01 
*PATCH 19Y07M26:  FROM SOURCE 1 TO RECORD 9 
*SOURCE FILE: 19Y07M26
003464  19Y07M26                         A10   C        23:27:41:04 23:27:42:09 01:13:31:12 01:13:32:17 
*FROM CLIP NAME:  62K3/01 
*PATCH 19Y07M26:  FROM SOURCE 4 TO RECORD 10 
*SOURCE FILE: 19Y07M26
003465  MSMMMOB.01                       V     C        00:00:09:08 00:00:10:21 01:13:32:17 01:13:34:05 
M2      MSMMMOB.01                                025.0 00:00:09:08 
*FROM CLIP NAME:  11242019_184133 
*SOURCE FILE: MSMMMOB.01
003466  BL                               V     C        00:00:00:00 00:00:05:15 01:13:32:17 01:13:38:07 
*SOURCE FILE: (NULL)
003467  BL                               V     C        00:00:00:00 00:00:10:01 01:13:32:17 01:13:42:18 
*SOURCE FILE: (NULL)
003468  BL                               V     C        00:00:00:00 00:00:22:06 01:13:32:17 01:13:54:23 
*SOURCE FILE: (NULL)
003469  BL                               A17   C        00:00:00:00 00:00:00:00 01:13:33:05 01:13:33:05 
003469  KVNDVENT[LOVE].MP3               A17   D    009 01:01:18:18 01:01:19:02 01:13:33:05 01:13:33:14 
*TO CLIP NAME:  KVNDVENT[LOVE].MP3 
*A17 VOL = -16.0 DB  PAN L100 
*PATCH KVNDVENT[LOVE].MP3:  FROM SOURCE 1 TO RECORD 17 
*SOURCE FILE: (NULL)
003470  BL                               A18   C        00:00:00:00 00:00:00:00 01:13:33:05 01:13:33:05 
003470  KVNDVENT[LOVE].MP3               A18   D    009 01:01:18:18 01:01:19:02 01:13:33:05 01:13:33:14 
*TO CLIP NAME:  KVNDVENT[LOVE].MP3 
*A18 VOL = -16.0 DB  PAN R100 
*PATCH KVNDVENT[LOVE].MP3:  FROM SOURCE 2 TO RECORD 18 
*SOURCE FILE: (NULL)
003471  KVNDVENT[LOVE].MP3               A17   C        01:01:19:02 01:01:40:05 01:13:33:14 01:13:54:17 
*FROM CLIP NAME:  KVNDVENT[LOVE].MP3 
*A17 VOL = -16.0 DB  PAN L100 
*PATCH KVNDVENT[LOVE].MP3:  FROM SOURCE 1 TO RECORD 17 
*SOURCE FILE: KVNDVENT[LOVE].MP3
003472  KVNDVENT[LOVE].MP3               A18   C        01:01:19:02 01:01:40:05 01:13:33:14 01:13:54:17 
*FROM CLIP NAME:  KVNDVENT[LOVE].MP3 
*A18 VOL = -16.0 DB  PAN R100 
*PATCH KVNDVENT[LOVE].MP3:  FROM SOURCE 2 TO RECORD 18 
*SOURCE FILE: KVNDVENT[LOVE].MP3
003473  MSMMMOB.16                       V     C        00:00:17:17 00:00:19:01 01:13:34:05 01:13:35:14 
M2      MSMMMOB.16                                025.0 00:00:17:17 
*FROM CLIP NAME:  11242019_184315 
*SOURCE FILE: MSMMMOB.16
003474  MSMMMOB.16                       V     C        00:00:19:20 00:00:21:00 01:13:35:14 01:13:36:19 
M2      MSMMMOB.16                                025.0 00:00:19:20 
*FROM CLIP NAME:  11242019_184315 
*SOURCE FILE: MSMMMOB.16
003475  MSMMMOB.16                       V     C        00:00:29:02 00:00:30:15 01:13:36:19 01:13:38:07 
M2      MSMMMOB.16                                025.0 00:00:29:02 
*FROM CLIP NAME:  11242019_184315 
*SOURCE FILE: MSMMMOB.16
003476  MSMMMOB.16                       V     C        00:00:37:14 00:00:39:02 01:13:36:19 01:13:38:07 
M2      MSMMMOB.16                                025.0 00:00:37:14 
*FROM CLIP NAME:  11242019_184315 
*SOURCE FILE: MSMMMOB.16
003477  MSMMMOB.26                       V     C        00:00:03:16 00:00:04:13 01:13:38:07 01:13:39:04 
*FROM CLIP NAME:  11272019_114041 
*SOURCE FILE: MSMMMOB.26
003478  BL                               V     C        00:00:00:00 00:00:01:13 01:13:38:07 01:13:39:20 
*SOURCE FILE: (NULL)
003479  BL                               V     C        00:00:00:00 00:00:05:15 01:13:38:07 01:13:43:22 
*SOURCE FILE: (NULL)
003480  MSMMMOB.26                       V     C        00:00:07:05 00:00:07:21 01:13:39:04 01:13:39:20 
*FROM CLIP NAME:  11272019_114041 
*SOURCE FILE: MSMMMOB.26
003481  MSMMMOB.26                       V     C        00:00:14:07 00:00:15:16 01:13:39:20 01:13:41:04 
*FROM CLIP NAME:  11272019_114041 
*SOURCE FILE: MSMMMOB.26
003482  BL                               V     C        00:00:00:00 00:00:52:17 01:13:39:20 01:14:32:12 
*SOURCE FILE: (NULL)
003483  MSMMMOB.26                       V     C        00:00:18:06 00:00:19:20 01:13:41:04 01:13:42:18 
*FROM CLIP NAME:  11272019_114041 
*SOURCE FILE: MSMMMOB.26
003484  MSMMMOB.14                       V     C        00:00:05:04 00:00:06:08 01:13:42:18 01:13:43:22 
*FROM CLIP NAME:  11272019_133206 
*SOURCE FILE: MSMMMOB.14
003485  BL                               V     C        00:00:00:00 00:01:09:19 01:13:42:18 01:14:52:12 
*SOURCE FILE: (NULL)
003486  MSMMMOB.27                       V     C        00:00:03:04 00:00:03:21 01:13:43:22 01:13:44:14 
*FROM CLIP NAME:  11272019_194537 
*SOURCE FILE: MSMMMOB.27
003487  BL                               V     C        00:00:00:00 00:00:05:12 01:13:43:22 01:13:49:09 
*SOURCE FILE: (NULL)
003488  MSMMMOB.27                       V     C        00:00:06:22 00:00:07:17 01:13:44:14 01:13:45:09 
*FROM CLIP NAME:  11272019_194537 
*SOURCE FILE: MSMMMOB.27
003489  MSMMMOB.27                       V     C        00:00:14:24 00:00:15:22 01:13:45:09 01:13:46:07 
*FROM CLIP NAME:  11272019_194537 
*SOURCE FILE: MSMMMOB.27
003490  MSMMMOB.27                       V     C        00:00:16:14 00:00:18:04 01:13:46:07 01:13:47:22 
*FROM CLIP NAME:  11272019_194537 
*SOURCE FILE: MSMMMOB.27
003491  MSMMMOB.27                       V     C        00:00:21:00 00:00:22:12 01:13:47:22 01:13:49:09 
*FROM CLIP NAME:  11272019_194537 
*SOURCE FILE: MSMMMOB.27
003493  MSMMMOB.20                       V     C        00:00:00:08 00:00:03:23 01:13:49:09 01:13:52:24 
*FROM CLIP NAME:  11272019_195929 
*SOURCE FILE: MSMMMOB.20
003492  BL                               V     C        00:00:00:00 00:00:03:15 01:13:49:09 01:13:52:24 
*SOURCE FILE: (NULL)
003494  BL                               V     C        00:00:00:00 00:00:01:24 01:13:52:24 01:13:54:23 
*SOURCE FILE: (NULL)
003495  BL                               V     C        00:00:00:00 00:00:39:13 01:13:52:24 01:14:32:12 
*SOURCE FILE: (NULL)
003496  BL                               A15   C        00:00:00:00 00:00:00:00 01:13:54:12 01:13:54:12 
003496  KVNDVENT[LOVE].MP3               A15   D    006 01:01:17:16 01:01:17:22 01:13:54:12 01:13:54:18 
*TO CLIP NAME:  KVNDVENT[LOVE].MP3 
*A15 VOL = -16.2 DB  PAN L100 
*PATCH KVNDVENT[LOVE].MP3:  FROM SOURCE 1 TO RECORD 15 
*SOURCE FILE: (NULL)
003497  BL                               A16   C        00:00:00:00 00:00:00:00 01:13:54:12 01:13:54:12 
003497  KVNDVENT[LOVE].MP3               A16   D    006 01:01:17:16 01:01:17:22 01:13:54:12 01:13:54:18 
*TO CLIP NAME:  KVNDVENT[LOVE].MP3 
*A16 VOL = -16.2 DB  PAN R100 
*PATCH KVNDVENT[LOVE].MP3:  FROM SOURCE 2 TO RECORD 16 
*SOURCE FILE: (NULL)
003498  KVNDVENT[LOVE].MP3               A17   C        01:01:40:05 01:01:40:05 01:13:54:17 01:13:54:17 
003498  BL                               A17   D    005 00:00:00:00 00:00:00:05 01:13:54:17 01:13:54:22 
*FROM CLIP NAME:  KVNDVENT[LOVE].MP3 
*A17 VOL = -16.0 DB  PAN L100 
*PATCH KVNDVENT[LOVE].MP3:  FROM SOURCE 1 TO RECORD 17 
*SOURCE FILE: KVNDVENT[LOVE].MP3
003499  KVNDVENT[LOVE].MP3               A18   C        01:01:40:05 01:01:40:05 01:13:54:17 01:13:54:17 
003499  BL                               A18   D    005 00:00:00:00 00:00:00:05 01:13:54:17 01:13:54:22 
*FROM CLIP NAME:  KVNDVENT[LOVE].MP3 
*A18 VOL = -16.0 DB  PAN R100 
*PATCH KVNDVENT[LOVE].MP3:  FROM SOURCE 2 TO RECORD 18 
*SOURCE FILE: KVNDVENT[LOVE].MP3
003500  KVNDVENT[LOVE].MP3               A15   C        01:01:17:22 01:01:20:06 01:13:54:18 01:13:57:02 
*FROM CLIP NAME:  KVNDVENT[LOVE].MP3 
*A15 VOL = -16.2 DB  PAN L100 
*PATCH KVNDVENT[LOVE].MP3:  FROM SOURCE 1 TO RECORD 15 
*SOURCE FILE: KVNDVENT[LOVE].MP3
003501  KVNDVENT[LOVE].MP3               A16   C        01:01:17:22 01:01:20:06 01:13:54:18 01:13:57:02 
*FROM CLIP NAME:  KVNDVENT[LOVE].MP3 
*A16 VOL = -16.2 DB  PAN R100 
*PATCH KVNDVENT[LOVE].MP3:  FROM SOURCE 2 TO RECORD 16 
*SOURCE FILE: KVNDVENT[LOVE].MP3
003502  19Y07M31                         A     C        13:35:21:17 13:35:22:07 01:13:54:23 01:13:55:13 
*FROM CLIP NAME:  16K1/02 
*SOURCE FILE: 19Y07M31
003503  19Y07M31                         A2    C        13:35:21:17 13:35:22:07 01:13:54:23 01:13:55:13 
*FROM CLIP NAME:  16K1/02 
*SOURCE FILE: 19Y07M31
003504  19Y07M31                         A3    C        13:35:21:17 13:35:22:07 01:13:54:23 01:13:55:13 
*FROM CLIP NAME:  16K1/02 
*SOURCE FILE: 19Y07M31
003505  19Y07M31                         A4    C        13:35:21:17 13:35:22:07 01:13:54:23 01:13:55:13 
*FROM CLIP NAME:  16K1/02 
*SOURCE FILE: 19Y07M31
003506  19Y07M31                         A5    C        13:35:21:17 13:35:22:07 01:13:54:23 01:13:55:13 
*FROM CLIP NAME:  16K1/02 
*SOURCE FILE: 19Y07M31
003507  19Y07M31                         A6    C        13:35:21:17 13:35:22:07 01:13:54:23 01:13:55:13 
*FROM CLIP NAME:  16K1/02 
*SOURCE FILE: 19Y07M31
003508  19Y07M31                         A7    C        13:35:21:17 13:35:22:07 01:13:54:23 01:13:55:13 
*FROM CLIP NAME:  16K1/02 
*SOURCE FILE: 19Y07M31
003509  19Y07M31                         A8    C        13:35:21:17 13:35:22:07 01:13:54:23 01:13:55:13 
*FROM CLIP NAME:  16K1/02 
*SOURCE FILE: 19Y07M31
003510                                   V     C        13:35:23:16 13:35:25:16 01:13:54:23 01:13:56:23 
M2                                                025.0 13:35:23:16 
*FROM CLIP NAME:  A021C005_190731_R32C 
*SOURCE FILE:
003511  BL                               V     C        00:00:00:00 00:04:20:00 01:13:54:23 01:18:14:23 
*SOURCE FILE: (NULL)
003512  19Y07M31                         A     C        13:35:22:07 13:35:22:07 01:13:55:13 01:13:55:13 
003512  19Y07M31                         A     D    020 11:22:16:12 11:22:17:07 01:13:55:13 01:13:56:08 
*FROM CLIP NAME:  16K1/02 
*TO CLIP NAME:  13AK2/02 
*SOURCE FILE: 19Y07M31
003513  19Y07M31                         A2    C        13:35:22:07 13:35:22:07 01:13:55:13 01:13:55:13 
003513  19Y07M31                         A2    D    020 11:22:16:12 11:22:17:07 01:13:55:13 01:13:56:08 
*FROM CLIP NAME:  16K1/02 
*TO CLIP NAME:  13AK2/02 
*SOURCE FILE: 19Y07M31
003514  19Y07M31                         A3    C        13:35:22:07 13:35:22:07 01:13:55:13 01:13:55:13 
003514  19Y07M31                         A3    D    020 11:22:16:12 11:22:17:07 01:13:55:13 01:13:56:08 
*FROM CLIP NAME:  16K1/02 
*TO CLIP NAME:  13AK2/02 
*A3 VOL =  -0.1 DB  PAN R100 
*SOURCE FILE: 19Y07M31
003515  19Y07M31                         A4    C        13:35:22:07 13:35:22:07 01:13:55:13 01:13:55:13 
003515  19Y07M31                         A4    D    020 11:22:16:12 11:22:17:07 01:13:55:13 01:13:56:08 
*FROM CLIP NAME:  16K1/02 
*TO CLIP NAME:  13AK2/02 
*SOURCE FILE: 19Y07M31
003516  19Y07M31                         A5    C        13:35:22:07 13:35:22:07 01:13:55:13 01:13:55:13 
003516  19Y07M31                         A5    D    020 11:22:16:12 11:22:17:07 01:13:55:13 01:13:56:08 
*FROM CLIP NAME:  16K1/02 
*TO CLIP NAME:  13AK2/02 
*PATCH 19Y07M31:  FROM SOURCE 8 TO RECORD 5 
*SOURCE FILE: 19Y07M31
003517  19Y07M31                         A6    C        13:35:22:07 13:35:22:07 01:13:55:13 01:13:55:13 
003517  19Y07M31                         A6    D    020 11:22:16:12 11:22:17:07 01:13:55:13 01:13:56:08 
*FROM CLIP NAME:  16K1/02 
*TO CLIP NAME:  13AK2/02 
*SOURCE FILE: 19Y07M31
003518  19Y07M31                         A7    C        13:35:22:07 13:35:22:07 01:13:55:13 01:13:55:13 
003518  BL                               A7    D    020 00:00:00:00 00:00:00:20 01:13:55:13 01:13:56:08 
*FROM CLIP NAME:  16K1/02 
*SOURCE FILE: 19Y07M31
003519  19Y07M31                         A8    C        13:35:22:07 13:35:22:07 01:13:55:13 01:13:55:13 
003519  BL                               A8    D    020 00:00:00:00 00:00:00:20 01:13:55:13 01:13:56:08 
*FROM CLIP NAME:  16K1/02 
*SOURCE FILE: 19Y07M31
003520  19Y07M31                         A     C        11:22:17:07 11:22:17:22 01:13:56:08 01:13:56:23 
*FROM CLIP NAME:  13AK2/02 
*SOURCE FILE: 19Y07M31
003521  19Y07M31                         A2    C        11:22:17:07 11:22:17:22 01:13:56:08 01:13:56:23 
*FROM CLIP NAME:  13AK2/02 
*SOURCE FILE: 19Y07M31
003522  19Y07M31                         A3    C        11:22:17:07 11:22:17:22 01:13:56:08 01:13:56:23 
*FROM CLIP NAME:  13AK2/02 
*A3 VOL =  -0.1 DB  PAN R100 
*SOURCE FILE: 19Y07M31
003523  19Y07M31                         A4    C        11:22:17:07 11:22:17:22 01:13:56:08 01:13:56:23 
*FROM CLIP NAME:  13AK2/02 
*SOURCE FILE: 19Y07M31
003524  19Y07M31                         A5    C        11:22:17:07 11:22:17:22 01:13:56:08 01:13:56:23 
*FROM CLIP NAME:  13AK2/02 
*PATCH 19Y07M31:  FROM SOURCE 8 TO RECORD 5 
*SOURCE FILE: 19Y07M31
003525  19Y07M31                         A6    C        11:22:17:07 11:22:17:22 01:13:56:08 01:13:56:23 
*FROM CLIP NAME:  13AK2/02 
*SOURCE FILE: 19Y07M31
003526                                   V     C        10:54:50:24 10:54:54:24 01:13:56:23 01:14:00:23 
M2                                                025.0 10:54:50:24 
*FROM CLIP NAME:  A020C005_190731_R32C 
*SOURCE FILE:
003527  19Y07M31                         A     C        11:22:18:23 11:22:22:23 01:13:56:23 01:14:00:23 
*FROM CLIP NAME:  13AK2/02 
*SOURCE FILE: 19Y07M31
003528  19Y07M31                         A2    C        11:22:18:23 11:22:22:23 01:13:56:23 01:14:00:23 
*FROM CLIP NAME:  13AK2/02 
*SOURCE FILE: 19Y07M31
003529  19Y07M31                         A3    C        11:22:18:23 11:22:22:23 01:13:56:23 01:14:00:23 
*FROM CLIP NAME:  13AK2/02 
*SOURCE FILE: 19Y07M31
003530  19Y07M31                         A4    C        11:22:18:23 11:22:22:23 01:13:56:23 01:14:00:23 
*FROM CLIP NAME:  13AK2/02 
*SOURCE FILE: 19Y07M31
003531  19Y07M31                         A5    C        11:22:18:23 11:22:22:23 01:13:56:23 01:14:00:23 
*FROM CLIP NAME:  13AK2/02 
*PATCH 19Y07M31:  FROM SOURCE 8 TO RECORD 5 
*SOURCE FILE: 19Y07M31
003532  19Y07M31                         A6    C        11:22:18:23 11:22:22:23 01:13:56:23 01:14:00:23 
*FROM CLIP NAME:  13AK2/02 
*SOURCE FILE: 19Y07M31
003533  KVNDVENT[LOVE].MP3               A15   C        01:01:20:06 01:01:55:09 01:13:57:02 01:14:32:05 
*FROM CLIP NAME:  KVNDVENT[LOVE].MP3 
*A15 VOL = -36.0 DB  PAN L100 
*EQ BAND 1 (LO SHELF) FREQ:210.0 HZ  GAIN: -18.0 DB  Q: 2000 
*EQ BAND 2 (PRESENCE) FREQ:  1.3  KHZ  GAIN: +10.5 DB  Q: 2000 
*EQ BAND 3 (HI SHELF) FREQ:  6.4  KHZ  GAIN: -16.9 DB  Q: 2000 
*PATCH KVNDVENT[LOVE].MP3:  FROM SOURCE 1 TO RECORD 15 
*SOURCE FILE: KVNDVENT[LOVE].MP3
003534  KVNDVENT[LOVE].MP3               A16   C        01:01:20:06 01:01:55:09 01:13:57:02 01:14:32:05 
*FROM CLIP NAME:  KVNDVENT[LOVE].MP3 
*A16 VOL = -36.0 DB  PAN R100 
*EQ BAND 1 (LO SHELF) FREQ:210.0 HZ  GAIN: -18.0 DB  Q: 2000 
*EQ BAND 2 (PRESENCE) FREQ:  1.3  KHZ  GAIN: +10.5 DB  Q: 2000 
*EQ BAND 3 (HI SHELF) FREQ:  6.4  KHZ  GAIN: -16.9 DB  Q: 2000 
*PATCH KVNDVENT[LOVE].MP3:  FROM SOURCE 2 TO RECORD 16 
*SOURCE FILE: KVNDVENT[LOVE].MP3
003535                                   V     C        11:22:23:16 11:22:28:11 01:14:00:23 01:14:05:18 
M2                                                025.0 11:22:23:16 
*FROM CLIP NAME:  A020C007_190731_R32C 
*SOURCE FILE:
003536  19Y07M31                         A     C        11:22:23:16 11:22:28:11 01:14:00:23 01:14:05:18 
*FROM CLIP NAME:  13AK2/02 
*SOURCE FILE: 19Y07M31
003537  19Y07M31                         A2    C        11:22:23:16 11:22:28:11 01:14:00:23 01:14:05:18 
*FROM CLIP NAME:  13AK2/02 
*SOURCE FILE: 19Y07M31
003538  19Y07M31                         A3    C        11:22:23:16 11:22:28:11 01:14:00:23 01:14:05:18 
*FROM CLIP NAME:  13AK2/02 
*SOURCE FILE: 19Y07M31
003539  19Y07M31                         A4    C        11:22:23:16 11:22:28:11 01:14:00:23 01:14:05:18 
*FROM CLIP NAME:  13AK2/02 
*SOURCE FILE: 19Y07M31
003540  19Y07M31                         A5    C        11:22:23:16 11:22:28:11 01:14:00:23 01:14:05:18 
*FROM CLIP NAME:  13AK2/02 
*PATCH 19Y07M31:  FROM SOURCE 8 TO RECORD 5 
*SOURCE FILE: 19Y07M31
003541  19Y07M31                         A6    C        11:22:23:16 11:22:28:11 01:14:00:23 01:14:05:18 
*FROM CLIP NAME:  13AK2/02 
*SOURCE FILE: 19Y07M31
003542  CINEMASCOPE_2-35-1_CROPLINES.PNG V     C        01:03:20:18 01:03:58:15 01:14:00:23 01:14:38:20 
*FROM CLIP NAME:  CINEMASCOPE 2-35-1 CROPLINES.PNG 
*SOURCE FILE: CINEMASCOPE 2-35-1 CROPLINES.PNG
003543  19Y07M31                         A     C        10:55:00:23 10:55:08:14 01:14:05:18 01:14:13:09 
*FROM CLIP NAME:  13A/05 
*SOURCE FILE: 19Y07M31
003544  19Y07M31                         A2    C        10:55:00:23 10:55:08:14 01:14:05:18 01:14:13:09 
*FROM CLIP NAME:  13A/05 
*SOURCE FILE: 19Y07M31
003545  19Y07M31                         A3    C        10:55:00:23 10:55:08:14 01:14:05:18 01:14:13:09 
*FROM CLIP NAME:  13A/05 
*SOURCE FILE: 19Y07M31
003546  19Y07M31                         A4    C        10:55:00:23 10:55:08:14 01:14:05:18 01:14:13:09 
*FROM CLIP NAME:  13A/05 
*SOURCE FILE: 19Y07M31
003547  19Y07M31                         A5    C        10:55:00:23 10:55:08:14 01:14:05:18 01:14:13:09 
*FROM CLIP NAME:  13A/05 
*PATCH 19Y07M31:  FROM SOURCE 6 TO RECORD 5 
*SOURCE FILE: 19Y07M31
003548  19Y07M31                         A6    C        10:55:00:23 10:55:08:14 01:14:05:18 01:14:13:09 
*FROM CLIP NAME:  13A/05 
*PATCH 19Y07M31:  FROM SOURCE 8 TO RECORD 6 
*SOURCE FILE: 19Y07M31
003549                                   V     C        10:55:00:23 10:55:13:23 01:14:05:18 01:14:18:18 
M2                                                025.0 10:55:00:23 
*FROM CLIP NAME:  A020C005_190731_R32C 
*SOURCE FILE:
003550  19Y07M31                         A     C        10:55:08:14 10:55:14:18 01:14:13:09 01:14:19:13 
*FROM CLIP NAME:  13A/05 
*SOURCE FILE: 19Y07M31
003551  19Y07M31                         A2    C        10:55:08:14 10:55:14:18 01:14:13:09 01:14:19:13 
*FROM CLIP NAME:  13A/05 
*SOURCE FILE: 19Y07M31
003552  19Y07M31                         A3    C        10:55:08:14 10:55:14:18 01:14:13:09 01:14:19:13 
*FROM CLIP NAME:  13A/05 
*SOURCE FILE: 19Y07M31
003553  19Y07M31                         A4    C        10:55:08:14 10:55:14:18 01:14:13:09 01:14:19:13 
*FROM CLIP NAME:  13A/05 
*SOURCE FILE: 19Y07M31
003554  19Y07M31                         A5    C        10:55:08:14 10:55:14:18 01:14:13:09 01:14:19:13 
*FROM CLIP NAME:  13A/05 
*PATCH 19Y07M31:  FROM SOURCE 6 TO RECORD 5 
*SOURCE FILE: 19Y07M31
003555  19Y07M31                         A6    C        10:55:08:14 10:55:14:18 01:14:13:09 01:14:19:13 
*FROM CLIP NAME:  13A/05 
*PATCH 19Y07M31:  FROM SOURCE 8 TO RECORD 6 
*SOURCE FILE: 19Y07M31
003556  DIN-IPHONE.MP3                   A8    C        01:00:00:00 01:00:02:22 01:14:14:11 01:14:17:08 
*FROM CLIP NAME:  DIN-IPHONE.MP3 
*PATCH DIN-IPHONE.MP3:  FROM SOURCE 2 TO RECORD 8 
*SOURCE FILE: DIN-IPHONE.MP3
003557  DIN-IPHONE.MP3                   A9    C        01:00:00:00 01:00:02:22 01:14:14:11 01:14:17:08 
*FROM CLIP NAME:  DIN-IPHONE.MP3 
*PATCH DIN-IPHONE.MP3:  FROM SOURCE 1 TO RECORD 9 
*SOURCE FILE: DIN-IPHONE.MP3
003558  BL                               V     C        00:00:00:00 00:00:01:17 01:14:18:18 01:14:20:10 
*SOURCE FILE: (NULL)
003559                                   V     C        12:01:00:04 12:01:01:21 01:14:18:18 01:14:20:10 
M2                                                025.0 12:01:00:04 
*FROM CLIP NAME:  A020C011_190731_R32C 
*SOURCE FILE:
003560  19Y07M31                         A     C        12:01:00:24 12:01:01:21 01:14:19:13 01:14:20:10 
*FROM CLIP NAME:  13AK4/01 
*SOURCE FILE: 19Y07M31
003561  19Y07M31                         A2    C        12:01:00:24 12:01:01:21 01:14:19:13 01:14:20:10 
*FROM CLIP NAME:  13AK4/01 
*SOURCE FILE: 19Y07M31
003562  19Y07M31                         A3    C        12:01:00:24 12:01:01:21 01:14:19:13 01:14:20:10 
*FROM CLIP NAME:  13AK4/01 
*SOURCE FILE: 19Y07M31
003563  19Y07M31                         A4    C        12:01:00:24 12:01:01:21 01:14:19:13 01:14:20:10 
*FROM CLIP NAME:  13AK4/01 
*SOURCE FILE: 19Y07M31
003564  19Y07M31                         A5    C        12:01:00:24 12:01:01:21 01:14:19:13 01:14:20:10 
*FROM CLIP NAME:  13AK4/01 
*PATCH 19Y07M31:  FROM SOURCE 6 TO RECORD 5 
*SOURCE FILE: 19Y07M31
003565  19Y07M31                         A     C        12:01:03:00 12:01:03:20 01:14:20:10 01:14:21:05 
*FROM CLIP NAME:  13AK4/01 
*SOURCE FILE: 19Y07M31
003566  19Y07M31                         A2    C        12:01:03:00 12:01:03:20 01:14:20:10 01:14:21:05 
*FROM CLIP NAME:  13AK4/01 
*SOURCE FILE: 19Y07M31
003567  19Y07M31                         A3    C        12:01:03:00 12:01:03:20 01:14:20:10 01:14:21:05 
*FROM CLIP NAME:  13AK4/01 
*SOURCE FILE: 19Y07M31
003568  19Y07M31                         A4    C        12:01:03:00 12:01:03:20 01:14:20:10 01:14:21:05 
*FROM CLIP NAME:  13AK4/01 
*SOURCE FILE: 19Y07M31
003569  19Y07M31                         A5    C        12:01:03:00 12:01:03:20 01:14:20:10 01:14:21:05 
*FROM CLIP NAME:  13AK4/01 
*PATCH 19Y07M31:  FROM SOURCE 6 TO RECORD 5 
*SOURCE FILE: 19Y07M31
003570                                   V     C        11:50:56:06 11:51:05:07 01:14:20:10 01:14:29:11 
M2                                                025.0 11:50:56:06 
*FROM CLIP NAME:  A020C010_190731_R32C 
*SOURCE FILE:
003571  BL                               V     C        00:00:00:00 00:14:30:18 01:14:20:10 01:28:51:03 
*SOURCE FILE: (NULL)
003572  19Y07M31                         A     C        11:50:57:01 11:51:04:24 01:14:21:05 01:14:29:03 
*FROM CLIP NAME:  13AK3/03 
*SOURCE FILE: 19Y07M31
003573  19Y07M31                         A2    C        11:50:57:01 11:51:04:24 01:14:21:05 01:14:29:03 
*FROM CLIP NAME:  13AK3/03 
*SOURCE FILE: 19Y07M31
003574  19Y07M31                         A3    C        11:50:57:01 11:51:04:24 01:14:21:05 01:14:29:03 
*FROM CLIP NAME:  13AK3/03 
*SOURCE FILE: 19Y07M31
003575  19Y07M31                         A4    C        11:50:57:01 11:51:04:24 01:14:21:05 01:14:29:03 
*FROM CLIP NAME:  13AK3/03 
*SOURCE FILE: 19Y07M31
003576  19Y07M31                         A5    C        11:50:57:01 11:51:04:24 01:14:21:05 01:14:29:03 
*FROM CLIP NAME:  13AK3/03 
*SOURCE FILE: 19Y07M31
003577  19Y07M31                         A6    C        11:50:57:01 11:51:04:24 01:14:21:05 01:14:29:03 
*FROM CLIP NAME:  13AK3/03 
*SOURCE FILE: 19Y07M31
003578  19Y07M31                         A7    C        11:50:57:01 11:51:04:24 01:14:21:05 01:14:29:03 
*FROM CLIP NAME:  13AK3/03 
*PATCH 19Y07M31:  FROM SOURCE 8 TO RECORD 7 
*SOURCE FILE: 19Y07M31
003579  19Y07M31                         A     C        11:51:04:24 11:51:04:24 01:14:29:03 01:14:29:03 
003579  19Y07M31                         A     D    002 11:22:44:10 11:22:44:12 01:14:29:03 01:14:29:05 
*FROM CLIP NAME:  13AK3/03 
*TO CLIP NAME:  13AK2/02 
*SOURCE FILE: 19Y07M31
003580  19Y07M31                         A2    C        11:51:04:24 11:51:04:24 01:14:29:03 01:14:29:03 
003580  19Y07M31                         A2    D    002 11:22:44:10 11:22:44:12 01:14:29:03 01:14:29:05 
*FROM CLIP NAME:  13AK3/03 
*TO CLIP NAME:  13AK2/02 
*SOURCE FILE: 19Y07M31
003581  19Y07M31                         A3    C        11:51:04:24 11:51:04:24 01:14:29:03 01:14:29:03 
003581  19Y07M31                         A3    D    002 11:22:44:10 11:22:44:12 01:14:29:03 01:14:29:05 
*FROM CLIP NAME:  13AK3/03 
*TO CLIP NAME:  13AK2/02 
*SOURCE FILE: 19Y07M31
003582  19Y07M31                         A4    C        11:51:04:24 11:51:04:24 01:14:29:03 01:14:29:03 
003582  19Y07M31                         A4    D    002 11:22:44:10 11:22:44:12 01:14:29:03 01:14:29:05 
*FROM CLIP NAME:  13AK3/03 
*TO CLIP NAME:  13AK2/02 
*PATCH 19Y07M31:  FROM SOURCE 6 TO RECORD 4 
*SOURCE FILE: 19Y07M31
003583  19Y07M31                         A5    C        11:51:04:24 11:51:04:24 01:14:29:03 01:14:29:03 
003583  19Y07M31                         A5    D    002 11:22:44:10 11:22:44:12 01:14:29:03 01:14:29:05 
*FROM CLIP NAME:  13AK3/03 
*TO CLIP NAME:  13AK2/02 
*PATCH 19Y07M31:  FROM SOURCE 4 TO RECORD 5 
*SOURCE FILE: 19Y07M31
003584  19Y07M31                         A6    C        11:51:04:24 11:51:04:24 01:14:29:03 01:14:29:03 
003584  19Y07M31                         A6    D    002 11:22:44:10 11:22:44:12 01:14:29:03 01:14:29:05 
*FROM CLIP NAME:  13AK3/03 
*TO CLIP NAME:  13AK2/02 
*PATCH 19Y07M31:  FROM SOURCE 8 TO RECORD 6 
*SOURCE FILE: 19Y07M31
003585  19Y07M31                         A7    C        11:51:04:24 11:51:04:24 01:14:29:03 01:14:29:03 
003585  BL                               A7    D    002 00:00:00:00 00:00:00:02 01:14:29:03 01:14:29:05 
*FROM CLIP NAME:  13AK3/03 
*PATCH 19Y07M31:  FROM SOURCE 8 TO RECORD 7 
*SOURCE FILE: 19Y07M31
003586  19Y07M31                         A     C        11:22:44:12 11:22:44:14 01:14:29:05 01:14:29:07 
*FROM CLIP NAME:  13AK2/02 
*SOURCE FILE: 19Y07M31
003587  19Y07M31                         A2    C        11:22:44:12 11:22:44:14 01:14:29:05 01:14:29:07 
*FROM CLIP NAME:  13AK2/02 
*SOURCE FILE: 19Y07M31
003588  19Y07M31                         A3    C        11:22:44:12 11:22:44:14 01:14:29:05 01:14:29:07 
*FROM CLIP NAME:  13AK2/02 
*SOURCE FILE: 19Y07M31
003589  19Y07M31                         A4    C        11:22:44:12 11:22:44:14 01:14:29:05 01:14:29:07 
*FROM CLIP NAME:  13AK2/02 
*PATCH 19Y07M31:  FROM SOURCE 6 TO RECORD 4 
*SOURCE FILE: 19Y07M31
003590  19Y07M31                         A5    C        11:22:44:12 11:22:44:14 01:14:29:05 01:14:29:07 
*FROM CLIP NAME:  13AK2/02 
*PATCH 19Y07M31:  FROM SOURCE 4 TO RECORD 5 
*SOURCE FILE: 19Y07M31
003591  19Y07M31                         A6    C        11:22:44:12 11:22:44:14 01:14:29:05 01:14:29:07 
*FROM CLIP NAME:  13AK2/02 
*PATCH 19Y07M31:  FROM SOURCE 8 TO RECORD 6 
*SOURCE FILE: 19Y07M31
003592  19Y07M31                         A     C        11:22:45:14 11:22:45:18 01:14:29:07 01:14:29:11 
*FROM CLIP NAME:  13AK2/02 
*SOURCE FILE: 19Y07M31
003593  19Y07M31                         A2    C        11:22:45:14 11:22:45:18 01:14:29:07 01:14:29:11 
*FROM CLIP NAME:  13AK2/02 
*SOURCE FILE: 19Y07M31
003594  19Y07M31                         A3    C        11:22:45:14 11:22:45:18 01:14:29:07 01:14:29:11 
*FROM CLIP NAME:  13AK2/02 
*SOURCE FILE: 19Y07M31
003595  19Y07M31                         A4    C        11:22:45:14 11:22:45:18 01:14:29:07 01:14:29:11 
*FROM CLIP NAME:  13AK2/02 
*PATCH 19Y07M31:  FROM SOURCE 6 TO RECORD 4 
*SOURCE FILE: 19Y07M31
003596  19Y07M31                         A5    C        11:22:45:14 11:22:45:18 01:14:29:07 01:14:29:11 
*FROM CLIP NAME:  13AK2/02 
*PATCH 19Y07M31:  FROM SOURCE 4 TO RECORD 5 
*SOURCE FILE: 19Y07M31
003597  19Y07M31                         A6    C        11:22:45:14 11:22:45:18 01:14:29:07 01:14:29:11 
*FROM CLIP NAME:  13AK2/02 
*PATCH 19Y07M31:  FROM SOURCE 8 TO RECORD 6 
*SOURCE FILE: 19Y07M31
003598  19Y07M31                         A     C        11:22:46:10 11:22:47:09 01:14:29:11 01:14:30:10 
*FROM CLIP NAME:  13AK2/02 
*SOURCE FILE: 19Y07M31
003599  19Y07M31                         A2    C        11:22:46:10 11:22:47:09 01:14:29:11 01:14:30:10 
*FROM CLIP NAME:  13AK2/02 
*SOURCE FILE: 19Y07M31
003600  19Y07M31                         A3    C        11:22:46:10 11:22:47:09 01:14:29:11 01:14:30:10 
*FROM CLIP NAME:  13AK2/02 
*SOURCE FILE: 19Y07M31
003601  19Y07M31                         A4    C        11:22:46:10 11:22:47:09 01:14:29:11 01:14:30:10 
*FROM CLIP NAME:  13AK2/02 
*PATCH 19Y07M31:  FROM SOURCE 6 TO RECORD 4 
*SOURCE FILE: 19Y07M31
003602  19Y07M31                         A5    C        11:22:46:10 11:22:47:09 01:14:29:11 01:14:30:10 
*FROM CLIP NAME:  13AK2/02 
*PATCH 19Y07M31:  FROM SOURCE 4 TO RECORD 5 
*SOURCE FILE: 19Y07M31
003603  19Y07M31                         A6    C        11:22:46:10 11:22:47:09 01:14:29:11 01:14:30:10 
*FROM CLIP NAME:  13AK2/02 
*PATCH 19Y07M31:  FROM SOURCE 8 TO RECORD 6 
*SOURCE FILE: 19Y07M31
003604                                   V     C        11:22:46:10 11:22:47:12 01:14:29:11 01:14:30:13 
M2                                                025.0 11:22:46:10 
*FROM CLIP NAME:  A020C007_190731_R32C 
*SOURCE FILE:
003605  19Y07M31                         A     C        11:22:47:09 11:22:47:09 01:14:30:10 01:14:30:10 
003605  19Y07M31                         A     D    002 12:56:16:21 12:56:16:23 01:14:30:10 01:14:30:12 
*FROM CLIP NAME:  13AK2/02 
*TO CLIP NAME:  14K1/04 
*SOURCE FILE: 19Y07M31
003606  19Y07M31                         A2    C        11:22:47:09 11:22:47:09 01:14:30:10 01:14:30:10 
003606  19Y07M31                         A2    D    002 12:56:16:21 12:56:16:23 01:14:30:10 01:14:30:12 
*FROM CLIP NAME:  13AK2/02 
*TO CLIP NAME:  14K1/04 
*SOURCE FILE: 19Y07M31
003607  19Y07M31                         A3    C        11:22:47:09 11:22:47:09 01:14:30:10 01:14:30:10 
003607  19Y07M31                         A3    D    002 12:56:16:21 12:56:16:23 01:14:30:10 01:14:30:12 
*FROM CLIP NAME:  13AK2/02 
*TO CLIP NAME:  14K1/04 
*SOURCE FILE: 19Y07M31
003608  19Y07M31                         A4    C        11:22:47:09 11:22:47:09 01:14:30:10 01:14:30:10 
003608  19Y07M31                         A4    D    002 12:56:16:21 12:56:16:23 01:14:30:10 01:14:30:12 
*FROM CLIP NAME:  13AK2/02 
*TO CLIP NAME:  14K1/04 
*PATCH 19Y07M31:  FROM SOURCE 6 TO RECORD 4 
*SOURCE FILE: 19Y07M31
003609  19Y07M31                         A5    C        11:22:47:09 11:22:47:09 01:14:30:10 01:14:30:10 
003609  19Y07M31                         A5    D    002 12:56:16:21 12:56:16:23 01:14:30:10 01:14:30:12 
*FROM CLIP NAME:  13AK2/02 
*TO CLIP NAME:  14K1/04 
*PATCH 19Y07M31:  FROM SOURCE 4 TO RECORD 5 
*SOURCE FILE: 19Y07M31
003610  19Y07M31                         A6    C        11:22:47:09 11:22:47:09 01:14:30:10 01:14:30:10 
003610  19Y07M31                         A6    D    002 12:56:16:21 12:56:16:23 01:14:30:10 01:14:30:12 
*FROM CLIP NAME:  13AK2/02 
*TO CLIP NAME:  14K1/04 
*PATCH 19Y07M31:  FROM SOURCE 8 TO RECORD 6 
*SOURCE FILE: 19Y07M31
003611  19Y07M31                         A     C        12:56:16:23 12:56:16:24 01:14:30:12 01:14:30:13 
*FROM CLIP NAME:  14K1/04 
*SOURCE FILE: 19Y07M31
003612  19Y07M31                         A2    C        12:56:16:23 12:56:16:24 01:14:30:12 01:14:30:13 
*FROM CLIP NAME:  14K1/04 
*SOURCE FILE: 19Y07M31
003613  19Y07M31                         A3    C        12:56:16:23 12:56:16:24 01:14:30:12 01:14:30:13 
*FROM CLIP NAME:  14K1/04 
*SOURCE FILE: 19Y07M31
003614  19Y07M31                         A4    C        12:56:16:23 12:56:16:24 01:14:30:12 01:14:30:13 
*FROM CLIP NAME:  14K1/04 
*SOURCE FILE: 19Y07M31
003615  19Y07M31                         A5    C        12:56:16:23 12:56:16:24 01:14:30:12 01:14:30:13 
*FROM CLIP NAME:  14K1/04 
*SOURCE FILE: 19Y07M31
003616  19Y07M31                         A6    C        12:56:16:23 12:56:16:24 01:14:30:12 01:14:30:13 
*FROM CLIP NAME:  14K1/04 
*SOURCE FILE: 19Y07M31
003617  MSMMMOB.22                       V     C        12:56:18:03 12:56:26:10 01:14:30:13 01:14:38:20 
M2      MSMMMOB.22                                025.0 12:56:18:03 
*FROM CLIP NAME:  A020C015_190731_R32C 
*SOURCE FILE: MSMMMOB.22
003618  19Y07M31                         A     C        12:56:18:03 12:56:26:10 01:14:30:13 01:14:38:20 
*FROM CLIP NAME:  14K1/04 
*SOURCE FILE: 19Y07M31
003619  19Y07M31                         A2    C        12:56:18:03 12:56:26:10 01:14:30:13 01:14:38:20 
*FROM CLIP NAME:  14K1/04 
*SOURCE FILE: 19Y07M31
003620  19Y07M31                         A3    C        12:56:18:03 12:56:26:10 01:14:30:13 01:14:38:20 
*FROM CLIP NAME:  14K1/04 
*SOURCE FILE: 19Y07M31
003621  19Y07M31                         A4    C        12:56:18:03 12:56:26:10 01:14:30:13 01:14:38:20 
*FROM CLIP NAME:  14K1/04 
*SOURCE FILE: 19Y07M31
003622  19Y07M31                         A5    C        12:56:18:03 12:56:26:10 01:14:30:13 01:14:38:20 
*FROM CLIP NAME:  14K1/04 
*SOURCE FILE: 19Y07M31
003623  19Y07M31                         A6    C        12:56:18:03 12:56:26:10 01:14:30:13 01:14:38:20 
*FROM CLIP NAME:  14K1/04 
*SOURCE FILE: 19Y07M31
003624  TITLE.01                         V     C        01:00:43:06 01:00:49:14 01:14:32:12 01:14:38:20 
*FROM CLIP NAME:  TITLE.01 
*SOURCE FILE: TITLE.01
003625  BL                               V     C        00:00:00:00 00:00:06:08 01:14:32:12 01:14:38:20 
*SOURCE FILE: (NULL)
003626  19Y08M09                         A     C        18:31:42:12 18:31:44:22 01:14:38:20 01:14:41:05 
*FROM CLIP NAME:  15K1/03.SYNC.01 
*SOURCE FILE: 19Y08M09
003627  MSMMMOB.04                       A2    C        18:31:42:12 18:31:44:22 01:14:38:20 01:14:41:05 
*FROM CLIP NAME:  A062C006_190809_R32C 
*SOURCE FILE: MSMMMOB.04
003628  19Y08M09                         A3    C        18:31:42:12 18:31:44:22 01:14:38:20 01:14:41:05 
*FROM CLIP NAME:  15K1/03.SYNC.01 
*SOURCE FILE: 19Y08M09
003629  MSMMMOB.04                       V     C        18:31:42:12 18:31:47:24 01:14:38:20 01:14:44:07 
M2      MSMMMOB.04                                025.0 18:31:42:12 
*FROM CLIP NAME:  A062C006_190809_R32C 
*SOURCE FILE: MSMMMOB.04
003630  MSMMMOB.04                       A5    C        18:31:42:12 18:31:47:24 01:14:38:20 01:14:44:07 
*FROM CLIP NAME:  A062C006_190809_R32C 
*SOURCE FILE: MSMMMOB.04
003631  CINEMASCOPE_2-35-1_CROPLINES.PNG V     C        01:00:00:00 01:04:06:02 01:14:38:20 01:18:44:22 
*FROM CLIP NAME:  CINEMASCOPE 2-35-1 CROPLINES.PNG 
*SOURCE FILE: CINEMASCOPE 2-35-1 CROPLINES.PNG
003632  BL                               V     C        00:00:00:00 00:04:24:00 01:14:38:20 01:19:02:20 
*SOURCE FILE: (NULL)
003633  BL                               V     C        00:00:00:00 00:13:47:05 01:14:38:20 01:28:26:00 
*SOURCE FILE: (NULL)
003634  19Y08M09                         A     C        18:32:24:11 18:32:25:24 01:14:41:05 01:14:42:18 
*FROM CLIP NAME:  15K1/03.SYNC.01 
*SOURCE FILE: 19Y08M09
003635  MSMMMOB.04                       A2    C        18:32:24:11 18:32:25:24 01:14:41:05 01:14:42:18 
*FROM CLIP NAME:  A062C006_190809_R32C 
*SOURCE FILE: MSMMMOB.04
003636  19Y08M09                         A3    C        18:32:24:11 18:32:25:24 01:14:41:05 01:14:42:18 
*FROM CLIP NAME:  15K1/03.SYNC.01 
*SOURCE FILE: 19Y08M09
003637  SOUND_06031.MP3                  A12   C        01:00:00:00 01:00:03:01 01:14:41:17 01:14:44:18 
*FROM CLIP NAME:  SOUND_06031.MP3 
*A12 VOL = -23.0 DB  PAN L100 
*PATCH SOUND_06031.MP3:  FROM SOURCE 2 TO RECORD 12 
*SOURCE FILE: SOUND_06031.MP3
003638  SOUND_06031.MP3                  A13   C        01:00:00:00 01:00:03:01 01:14:41:17 01:14:44:18 
*FROM CLIP NAME:  SOUND_06031.MP3 
*A13 VOL = -23.0 DB  PAN R100 
*PATCH SOUND_06031.MP3:  FROM SOURCE 1 TO RECORD 13 
*SOURCE FILE: SOUND_06031.MP3
003639  RINGTON_-_STANDARTNYJJ_ZVONOK_NA A14   C        01:00:00:00 01:00:01:24 01:14:42:00 01:14:43:24 
*FROM CLIP NAME:  RINGTON_-_STANDARTNYJJ_ZVONOK_NA_IPHONE_7_RINGTON(UZIMUSIC.RU).MP3 
*A14 VOL = -20.2 DB  PAN L100 
*PATCH RINGTON_-_STANDARTNYJJ_ZVONOK_NA:  FROM SOURCE 2 TO RECORD 14 
*SOURCE FILE: RINGTON_-_STANDARTNYJJ_ZVONOK_NA_IPHONE_7_RINGTON(UZIMUSIC.RU).MP3
003640  RINGTON_-_STANDARTNYJJ_ZVONOK_NA A15   C        01:00:00:00 01:00:01:24 01:14:42:00 01:14:43:24 
*FROM CLIP NAME:  RINGTON_-_STANDARTNYJJ_ZVONOK_NA_IPHONE_7_RINGTON(UZIMUSIC.RU).MP3 
*A15 VOL = -20.2 DB  PAN R100 
*PATCH RINGTON_-_STANDARTNYJJ_ZVONOK_NA:  FROM SOURCE 1 TO RECORD 15 
*SOURCE FILE: RINGTON_-_STANDARTNYJJ_ZVONOK_NA_IPHONE_7_RINGTON(UZIMUSIC.RU).MP3
003641  19Y08M09                         A     C        18:31:46:10 18:31:47:24 01:14:42:18 01:14:44:07 
*FROM CLIP NAME:  15K1/03.SYNC.01 
*SOURCE FILE: 19Y08M09
003642  MSMMMOB.04                       A2    C        18:31:46:10 18:31:47:24 01:14:42:18 01:14:44:07 
*FROM CLIP NAME:  A062C006_190809_R32C 
*SOURCE FILE: MSMMMOB.04
003643  19Y08M09                         A3    C        18:31:46:10 18:31:47:24 01:14:42:18 01:14:44:07 
*FROM CLIP NAME:  15K1/03.SYNC.01 
*SOURCE FILE: 19Y08M09
003644  MSMMMOB.22                       V     C        12:56:27:11 12:56:35:16 01:14:44:07 01:14:52:12 
M2      MSMMMOB.22                                025.0 12:56:27:11 
*FROM CLIP NAME:  A020C015_190731_R32C 
*SOURCE FILE: MSMMMOB.22
003645  19Y07M31                         A     C        12:56:27:11 12:56:38:03 01:14:44:07 01:14:54:24 
*FROM CLIP NAME:  14K1/04 
*SOURCE FILE: 19Y07M31
003646  19Y07M31                         A2    C        12:56:27:11 12:56:38:03 01:14:44:07 01:14:54:24 
*FROM CLIP NAME:  14K1/04 
*SOURCE FILE: 19Y07M31
003647  19Y07M31                         A3    C        12:56:27:11 12:56:38:03 01:14:44:07 01:14:54:24 
*FROM CLIP NAME:  14K1/04 
*SOURCE FILE: 19Y07M31
003648  19Y07M31                         A4    C        12:56:27:11 12:56:38:03 01:14:44:07 01:14:54:24 
*FROM CLIP NAME:  14K1/04 
*SOURCE FILE: 19Y07M31
003649  19Y07M31                         A5    C        12:56:27:11 12:56:38:03 01:14:44:07 01:14:54:24 
*FROM CLIP NAME:  14K1/04 
*SOURCE FILE: 19Y07M31
003650  19Y07M31                         A6    C        12:56:27:11 12:56:38:03 01:14:44:07 01:14:54:24 
*FROM CLIP NAME:  14K1/04 
*SOURCE FILE: 19Y07M31
003651  19Y08M09                         A7    C        18:31:49:06 18:31:49:12 01:14:44:11 01:14:44:17 
*FROM CLIP NAME:  15K1/03.SYNC.01 
*PATCH 19Y08M09:  FROM SOURCE 1 TO RECORD 7 
*SOURCE FILE: 19Y08M09
003652  19Y08M09                         A8    C        18:31:49:06 18:31:49:12 01:14:44:11 01:14:44:17 
*FROM CLIP NAME:  15K1/03.SYNC.01 
*PATCH 19Y08M09:  FROM SOURCE 4 TO RECORD 8 
*SOURCE FILE: 19Y08M09
003653  19Y08M09                         A9    C        18:31:49:06 18:31:49:12 01:14:44:11 01:14:44:17 
*FROM CLIP NAME:  15K1/03.SYNC.01 
*PATCH 19Y08M09:  FROM SOURCE 3 TO RECORD 9 
*SOURCE FILE: 19Y08M09
003654  MSMMMOB.04                       A10   C        18:31:49:06 18:31:49:12 01:14:44:11 01:14:44:17 
*FROM CLIP NAME:  A062C006_190809_R32C 
*PATCH MSMMMOB.04:  FROM SOURCE 2 TO RECORD 10 
*SOURCE FILE: MSMMMOB.04
003655  MSMMMOB.04                       A11   C        18:31:49:06 18:31:49:12 01:14:44:11 01:14:44:17 
*FROM CLIP NAME:  A062C006_190809_R32C 
*PATCH MSMMMOB.04:  FROM SOURCE 5 TO RECORD 11 
*SOURCE FILE: MSMMMOB.04
003656  19Y08M09                         A7    C        18:31:49:12 18:31:49:12 01:14:44:17 01:14:44:17 
003656  BL                               A7    D    004 00:00:00:00 00:00:00:04 01:14:44:17 01:14:44:21 
*FROM CLIP NAME:  15K1/03.SYNC.01 
*PATCH 19Y08M09:  FROM SOURCE 1 TO RECORD 7 
*SOURCE FILE: 19Y08M09
003657  19Y08M09                         A8    C        18:31:49:12 18:31:49:12 01:14:44:17 01:14:44:17 
003657  BL                               A8    D    004 00:00:00:00 00:00:00:04 01:14:44:17 01:14:44:21 
*FROM CLIP NAME:  15K1/03.SYNC.01 
*PATCH 19Y08M09:  FROM SOURCE 4 TO RECORD 8 
*SOURCE FILE: 19Y08M09
003658  19Y08M09                         A9    C        18:31:49:12 18:31:49:12 01:14:44:17 01:14:44:17 
003658  BL                               A9    D    004 00:00:00:00 00:00:00:04 01:14:44:17 01:14:44:21 
*FROM CLIP NAME:  15K1/03.SYNC.01 
*PATCH 19Y08M09:  FROM SOURCE 3 TO RECORD 9 
*SOURCE FILE: 19Y08M09
003659  MSMMMOB.04                       A10   C        18:31:49:12 18:31:49:12 01:14:44:17 01:14:44:17 
003659  BL                               A10   D    004 00:00:00:00 00:00:00:04 01:14:44:17 01:14:44:21 
*FROM CLIP NAME:  A062C006_190809_R32C 
*PATCH MSMMMOB.04:  FROM SOURCE 2 TO RECORD 10 
*SOURCE FILE: MSMMMOB.04
003660  MSMMMOB.04                       A11   C        18:31:49:12 18:31:49:12 01:14:44:17 01:14:44:17 
003660  BL                               A11   D    004 00:00:00:00 00:00:00:04 01:14:44:17 01:14:44:21 
*FROM CLIP NAME:  A062C006_190809_R32C 
*PATCH MSMMMOB.04:  FROM SOURCE 5 TO RECORD 11 
*SOURCE FILE: MSMMMOB.04
003661  MSMMMOB.04                       A7    C        18:31:52:15 18:31:54:02 01:14:50:07 01:14:51:19 
*FROM CLIP NAME:  A062C006_190809_R32C 
*PATCH MSMMMOB.04:  FROM SOURCE 2 TO RECORD 7 
*SOURCE FILE: MSMMMOB.04
003662  19Y08M09                         A8    C        18:31:52:15 18:31:54:02 01:14:50:07 01:14:51:19 
*FROM CLIP NAME:  15K1/03.SYNC.01 
*PATCH 19Y08M09:  FROM SOURCE 3 TO RECORD 8 
*SOURCE FILE: 19Y08M09
003663  19Y08M09                         A9    C        18:31:52:15 18:31:54:02 01:14:50:07 01:14:51:19 
*FROM CLIP NAME:  15K1/03.SYNC.01 
*PATCH 19Y08M09:  FROM SOURCE 4 TO RECORD 9 
*SOURCE FILE: 19Y08M09
003664  19Y08M09                         A10   C        18:31:52:15 18:31:54:02 01:14:50:07 01:14:51:19 
*FROM CLIP NAME:  15K1/03.SYNC.01 
*PATCH 19Y08M09:  FROM SOURCE 1 TO RECORD 10 
*SOURCE FILE: 19Y08M09
003665  BL                               V     C        00:00:00:00 00:00:02:14 01:14:52:12 01:14:55:01 
*SOURCE FILE: (NULL)
003666  MSMMMOB.04                       V     C        18:31:53:14 18:32:00:18 01:14:52:12 01:14:59:16 
M2      MSMMMOB.04                                025.0 18:31:53:14 
*FROM CLIP NAME:  A062C006_190809_R32C 
*SOURCE FILE: MSMMMOB.04
003667  19Y08M09                         A     C        18:31:56:01 18:31:59:12 01:14:54:24 01:14:58:10 
*FROM CLIP NAME:  15K1/03.SYNC.01 
*SOURCE FILE: 19Y08M09
003668  MSMMMOB.04                       A2    C        18:31:56:01 18:31:59:12 01:14:54:24 01:14:58:10 
*FROM CLIP NAME:  A062C006_190809_R32C 
*SOURCE FILE: MSMMMOB.04
003669  19Y08M09                         A3    C        18:31:56:01 18:31:59:12 01:14:54:24 01:14:58:10 
*FROM CLIP NAME:  15K1/03.SYNC.01 
*SOURCE FILE: 19Y08M09
003670  19Y08M09                         A4    C        18:31:56:01 18:31:59:12 01:14:54:24 01:14:58:10 
*FROM CLIP NAME:  15K1/03.SYNC.01 
*SOURCE FILE: 19Y08M09
003671  MSMMMOB.04                       A5    C        18:31:56:01 18:31:59:12 01:14:54:24 01:14:58:10 
*FROM CLIP NAME:  A062C006_190809_R32C 
*SOURCE FILE: MSMMMOB.04
003672  BL                               V     C        00:00:00:00 00:00:02:12 01:14:55:01 01:14:57:13 
*SOURCE FILE: (NULL)
003673  BL                               V     C        00:00:00:00 00:00:02:03 01:14:57:13 01:14:59:16 
*SOURCE FILE: (NULL)
003674  19Y07M31                         A     C        12:56:38:09 12:56:39:15 01:14:58:10 01:14:59:16 
*FROM CLIP NAME:  14K1/04 
*SOURCE FILE: 19Y07M31
003675  19Y07M31                         A2    C        12:56:38:09 12:56:39:15 01:14:58:10 01:14:59:16 
*FROM CLIP NAME:  14K1/04 
*SOURCE FILE: 19Y07M31
003676  19Y07M31                         A3    C        12:56:38:09 12:56:39:15 01:14:58:10 01:14:59:16 
*FROM CLIP NAME:  14K1/04 
*SOURCE FILE: 19Y07M31
003677  19Y07M31                         A4    C        12:56:38:09 12:56:39:15 01:14:58:10 01:14:59:16 
*FROM CLIP NAME:  14K1/04 
*SOURCE FILE: 19Y07M31
003678  19Y07M31                         A5    C        12:56:38:09 12:56:39:15 01:14:58:10 01:14:59:16 
*FROM CLIP NAME:  14K1/04 
*SOURCE FILE: 19Y07M31
003679  19Y07M31                         A6    C        12:56:38:09 12:56:39:15 01:14:58:10 01:14:59:16 
*FROM CLIP NAME:  14K1/04 
*SOURCE FILE: 19Y07M31
003680  19Y07M31                         A7    C        12:56:38:09 12:56:39:15 01:14:58:10 01:14:59:16 
*FROM CLIP NAME:  14K1/04 
*SOURCE FILE: 19Y07M31
003681  19Y07M31                         A8    C        12:56:38:09 12:56:39:15 01:14:58:10 01:14:59:16 
*FROM CLIP NAME:  14K1/04 
*SOURCE FILE: 19Y07M31
003682  MSMMMOB.22                       V     C        12:56:39:22 12:56:45:07 01:14:59:16 01:15:05:01 
M2      MSMMMOB.22                                025.0 12:56:39:22 
*FROM CLIP NAME:  A020C015_190731_R32C 
*SOURCE FILE: MSMMMOB.22
003683  19Y07M31                         A     C        12:56:39:22 12:56:45:07 01:14:59:16 01:15:05:01 
*FROM CLIP NAME:  14K1/04 
*SOURCE FILE: 19Y07M31
003684  19Y07M31                         A2    C        12:56:39:22 12:56:45:07 01:14:59:16 01:15:05:01 
*FROM CLIP NAME:  14K1/04 
*SOURCE FILE: 19Y07M31
003685  19Y07M31                         A3    C        12:56:39:22 12:56:45:07 01:14:59:16 01:15:05:01 
*FROM CLIP NAME:  14K1/04 
*SOURCE FILE: 19Y07M31
003686  19Y07M31                         A4    C        12:56:39:22 12:56:45:07 01:14:59:16 01:15:05:01 
*FROM CLIP NAME:  14K1/04 
*SOURCE FILE: 19Y07M31
003687  19Y07M31                         A5    C        12:56:39:22 12:56:45:07 01:14:59:16 01:15:05:01 
*FROM CLIP NAME:  14K1/04 
*SOURCE FILE: 19Y07M31
003688  19Y07M31                         A6    C        12:56:39:22 12:56:45:07 01:14:59:16 01:15:05:01 
*FROM CLIP NAME:  14K1/04 
*SOURCE FILE: 19Y07M31
003689  19Y07M31                         A7    C        12:56:39:22 12:56:45:07 01:14:59:16 01:15:05:01 
*FROM CLIP NAME:  14K1/04 
*SOURCE FILE: 19Y07M31
003690  19Y07M31                         A8    C        12:56:39:22 12:56:45:07 01:14:59:16 01:15:05:01 
*FROM CLIP NAME:  14K1/04 
*SOURCE FILE: 19Y07M31
003691  BL                               V     C        00:00:00:00 00:03:15:07 01:14:59:16 01:18:14:23 
*SOURCE FILE: (NULL)
003692  MSMMMOB.04                       V     C        18:32:04:24 18:32:10:18 01:15:05:01 01:15:10:20 
M2      MSMMMOB.04                                025.0 18:32:04:24 
*FROM CLIP NAME:  A062C006_190809_R32C 
*SOURCE FILE: MSMMMOB.04
003693  19Y08M09                         A     C        18:32:04:24 18:32:10:18 01:15:05:01 01:15:10:20 
*FROM CLIP NAME:  15K1/03.SYNC.01 
*SOURCE FILE: 19Y08M09
003694  MSMMMOB.04                       A2    C        18:32:04:24 18:32:10:18 01:15:05:01 01:15:10:20 
*FROM CLIP NAME:  A062C006_190809_R32C 
*SOURCE FILE: MSMMMOB.04
003695  19Y08M09                         A3    C        18:32:04:24 18:32:10:18 01:15:05:01 01:15:10:20 
*FROM CLIP NAME:  15K1/03.SYNC.01 
*SOURCE FILE: 19Y08M09
003696  19Y08M09                         A4    C        18:32:04:24 18:32:10:18 01:15:05:01 01:15:10:20 
*FROM CLIP NAME:  15K1/03.SYNC.01 
*SOURCE FILE: 19Y08M09
003697  MSMMMOB.04                       A5    C        18:32:04:24 18:32:10:18 01:15:05:01 01:15:10:20 
*FROM CLIP NAME:  A062C006_190809_R32C 
*SOURCE FILE: MSMMMOB.04
003698  MSMMMOB.22                       V     C        12:56:48:07 12:56:54:03 01:15:10:20 01:15:16:16 
M2      MSMMMOB.22                                025.0 12:56:48:07 
*FROM CLIP NAME:  A020C015_190731_R32C 
*SOURCE FILE: MSMMMOB.22
003699  19Y07M31                         A     C        12:56:48:07 12:56:54:03 01:15:10:20 01:15:16:16 
*FROM CLIP NAME:  14K1/04 
*SOURCE FILE: 19Y07M31
003700  19Y07M31                         A2    C        12:56:48:07 12:56:54:03 01:15:10:20 01:15:16:16 
*FROM CLIP NAME:  14K1/04 
*SOURCE FILE: 19Y07M31
003701  19Y07M31                         A3    C        12:56:48:07 12:56:54:03 01:15:10:20 01:15:16:16 
*FROM CLIP NAME:  14K1/04 
*SOURCE FILE: 19Y07M31
003702  19Y07M31                         A4    C        12:56:48:07 12:56:54:03 01:15:10:20 01:15:16:16 
*FROM CLIP NAME:  14K1/04 
*SOURCE FILE: 19Y07M31
003703  19Y07M31                         A5    C        12:56:48:07 12:56:54:03 01:15:10:20 01:15:16:16 
*FROM CLIP NAME:  14K1/04 
*SOURCE FILE: 19Y07M31
003704  19Y07M31                         A6    C        12:56:48:07 12:56:54:03 01:15:10:20 01:15:16:16 
*FROM CLIP NAME:  14K1/04 
*SOURCE FILE: 19Y07M31
003705  19Y07M31                         A7    C        12:56:48:07 12:56:54:03 01:15:10:20 01:15:16:16 
*FROM CLIP NAME:  14K1/04 
*SOURCE FILE: 19Y07M31
003706  19Y07M31                         A8    C        12:56:48:07 12:56:54:03 01:15:10:20 01:15:16:16 
*FROM CLIP NAME:  14K1/04 
*SOURCE FILE: 19Y07M31
003707  MSMMMOB.04                       V     C        18:32:15:01 18:32:16:23 01:15:16:16 01:15:18:13 
M2      MSMMMOB.04                                025.0 18:32:15:01 
*FROM CLIP NAME:  A062C006_190809_R32C 
*SOURCE FILE: MSMMMOB.04
003708  19Y08M09                         A     C        18:32:15:01 18:32:16:23 01:15:16:16 01:15:18:13 
*FROM CLIP NAME:  15K1/03.SYNC.01 
*SOURCE FILE: 19Y08M09
003709  MSMMMOB.04                       A2    C        18:32:15:01 18:32:16:23 01:15:16:16 01:15:18:13 
*FROM CLIP NAME:  A062C006_190809_R32C 
*SOURCE FILE: MSMMMOB.04
003710  19Y08M09                         A3    C        18:32:15:01 18:32:16:23 01:15:16:16 01:15:18:13 
*FROM CLIP NAME:  15K1/03.SYNC.01 
*SOURCE FILE: 19Y08M09
003711  19Y08M09                         A4    C        18:32:15:01 18:32:16:23 01:15:16:16 01:15:18:13 
*FROM CLIP NAME:  15K1/03.SYNC.01 
*SOURCE FILE: 19Y08M09
003712  MSMMMOB.04                       A5    C        18:32:15:01 18:32:16:23 01:15:16:16 01:15:18:13 
*FROM CLIP NAME:  A062C006_190809_R32C 
*SOURCE FILE: MSMMMOB.04
003713  19Y08M09                         A9    C        18:32:16:24 18:32:17:21 01:15:18:13 01:15:19:10 
*FROM CLIP NAME:  15K1/03.SYNC.01 
*PATCH 19Y08M09:  FROM SOURCE 1 TO RECORD 9 
*SOURCE FILE: 19Y08M09
003714  MSMMMOB.04                       A10   C        18:32:16:24 18:32:17:21 01:15:18:13 01:15:19:10 
*FROM CLIP NAME:  A062C006_190809_R32C 
*PATCH MSMMMOB.04:  FROM SOURCE 2 TO RECORD 10 
*SOURCE FILE: MSMMMOB.04
003715  19Y08M09                         A11   C        18:32:16:24 18:32:17:21 01:15:18:13 01:15:19:10 
*FROM CLIP NAME:  15K1/03.SYNC.01 
*PATCH 19Y08M09:  FROM SOURCE 3 TO RECORD 11 
*SOURCE FILE: 19Y08M09
003716  19Y08M09                         A12   C        18:32:16:24 18:32:17:21 01:15:18:13 01:15:19:10 
*FROM CLIP NAME:  15K1/03.SYNC.01 
*PATCH 19Y08M09:  FROM SOURCE 4 TO RECORD 12 
*SOURCE FILE: 19Y08M09
003717  MSMMMOB.04                       A13   C        18:32:16:24 18:32:17:21 01:15:18:13 01:15:19:10 
*FROM CLIP NAME:  A062C006_190809_R32C 
*PATCH MSMMMOB.04:  FROM SOURCE 5 TO RECORD 13 
*SOURCE FILE: MSMMMOB.04
003718  19Y07M31                         A     C        12:56:56:07 12:56:57:12 01:15:18:13 01:15:19:18 
*FROM CLIP NAME:  14K1/04 
*SOURCE FILE: 19Y07M31
003719  19Y07M31                         A2    C        12:56:56:07 12:56:57:12 01:15:18:13 01:15:19:18 
*FROM CLIP NAME:  14K1/04 
*SOURCE FILE: 19Y07M31
003720  19Y07M31                         A3    C        12:56:56:07 12:56:57:12 01:15:18:13 01:15:19:18 
*FROM CLIP NAME:  14K1/04 
*SOURCE FILE: 19Y07M31
003721  19Y07M31                         A4    C        12:56:56:07 12:56:57:12 01:15:18:13 01:15:19:18 
*FROM CLIP NAME:  14K1/04 
*SOURCE FILE: 19Y07M31
003722  19Y07M31                         A5    C        12:56:56:07 12:56:57:12 01:15:18:13 01:15:19:18 
*FROM CLIP NAME:  14K1/04 
*SOURCE FILE: 19Y07M31
003723  19Y07M31                         A6    C        12:56:56:07 12:56:57:12 01:15:18:13 01:15:19:18 
*FROM CLIP NAME:  14K1/04 
*SOURCE FILE: 19Y07M31
003724  19Y07M31                         A7    C        12:56:56:07 12:56:57:12 01:15:18:13 01:15:19:18 
*FROM CLIP NAME:  14K1/04 
*SOURCE FILE: 19Y07M31
003725  19Y07M31                         A8    C        12:56:56:07 12:56:57:12 01:15:18:13 01:15:19:18 
*FROM CLIP NAME:  14K1/04 
*SOURCE FILE: 19Y07M31
003726  MSMMMOB.22                       V     C        12:56:56:07 12:56:58:01 01:15:18:13 01:15:20:07 
M2      MSMMMOB.22                                025.0 12:56:56:07 
*FROM CLIP NAME:  A020C015_190731_R32C 
*SOURCE FILE: MSMMMOB.22
003727  19Y07M31                         A6    C        12:56:57:14 12:56:57:15 01:15:19:18 01:15:19:19 
*FROM CLIP NAME:  14K1/04 
*SOURCE FILE: 19Y07M31
003728  19Y07M31                         A7    C        12:56:57:14 12:56:57:15 01:15:19:18 01:15:19:19 
*FROM CLIP NAME:  14K1/04 
*SOURCE FILE: 19Y07M31
003729  19Y07M31                         A8    C        12:56:57:14 12:56:57:15 01:15:19:18 01:15:19:19 
*FROM CLIP NAME:  14K1/04 
*SOURCE FILE: 19Y07M31
003730  19Y07M31                         A9    C        12:56:57:14 12:56:57:15 01:15:19:18 01:15:19:19 
*FROM CLIP NAME:  14K1/04 
*PATCH 19Y07M31:  FROM SOURCE 1 TO RECORD 9 
*SOURCE FILE: 19Y07M31
003731  19Y07M31                         A10   C        12:56:57:14 12:56:57:15 01:15:19:18 01:15:19:19 
*FROM CLIP NAME:  14K1/04 
*PATCH 19Y07M31:  FROM SOURCE 2 TO RECORD 10 
*SOURCE FILE: 19Y07M31
003732  19Y07M31                         A11   C        12:56:57:14 12:56:57:15 01:15:19:18 01:15:19:19 
*FROM CLIP NAME:  14K1/04 
*PATCH 19Y07M31:  FROM SOURCE 3 TO RECORD 11 
*SOURCE FILE: 19Y07M31
003733  19Y07M31                         A12   C        12:56:57:14 12:56:57:15 01:15:19:18 01:15:19:19 
*FROM CLIP NAME:  14K1/04 
*PATCH 19Y07M31:  FROM SOURCE 4 TO RECORD 12 
*SOURCE FILE: 19Y07M31
003734  19Y07M31                         A13   C        12:56:57:14 12:56:57:15 01:15:19:18 01:15:19:19 
*FROM CLIP NAME:  14K1/04 
*PATCH 19Y07M31:  FROM SOURCE 5 TO RECORD 13 
*SOURCE FILE: 19Y07M31
003735  19Y08M09                         A     C        18:32:18:09 18:32:24:07 01:15:19:18 01:15:25:16 
*FROM CLIP NAME:  15K1/03.SYNC.01 
*SOURCE FILE: 19Y08M09
003736  MSMMMOB.04                       A2    C        18:32:18:09 18:32:24:07 01:15:19:18 01:15:25:16 
*FROM CLIP NAME:  A062C006_190809_R32C 
*SOURCE FILE: MSMMMOB.04
003737  19Y08M09                         A3    C        18:32:18:09 18:32:24:07 01:15:19:18 01:15:25:16 
*FROM CLIP NAME:  15K1/03.SYNC.01 
*SOURCE FILE: 19Y08M09
003738  19Y08M09                         A4    C        18:32:18:09 18:32:24:07 01:15:19:18 01:15:25:16 
*FROM CLIP NAME:  15K1/03.SYNC.01 
*SOURCE FILE: 19Y08M09
003739  MSMMMOB.04                       A5    C        18:32:18:09 18:32:24:07 01:15:19:18 01:15:25:16 
*FROM CLIP NAME:  A062C006_190809_R32C 
*SOURCE FILE: MSMMMOB.04
003740  MSMMMOB.04                       V     C        18:32:18:23 18:32:24:07 01:15:20:07 01:15:25:16 
M2      MSMMMOB.04                                025.0 18:32:18:23 
*FROM CLIP NAME:  A062C006_190809_R32C 
*SOURCE FILE: MSMMMOB.04
003741  MSMMMOB.22                       V     C        12:56:58:04 12:57:04:20 01:15:25:16 01:15:32:07 
M2      MSMMMOB.22                                025.0 12:56:58:04 
*FROM CLIP NAME:  A020C015_190731_R32C 
*SOURCE FILE: MSMMMOB.22
003742  19Y07M31                         A     C        12:56:58:04 12:57:06:08 01:15:25:16 01:15:33:20 
*FROM CLIP NAME:  14K1/04 
*SOURCE FILE: 19Y07M31
003743  19Y07M31                         A2    C        12:56:58:04 12:57:06:08 01:15:25:16 01:15:33:20 
*FROM CLIP NAME:  14K1/04 
*SOURCE FILE: 19Y07M31
003744  19Y07M31                         A3    C        12:56:58:04 12:57:06:08 01:15:25:16 01:15:33:20 
*FROM CLIP NAME:  14K1/04 
*SOURCE FILE: 19Y07M31
003745  19Y07M31                         A4    C        12:56:58:04 12:57:06:08 01:15:25:16 01:15:33:20 
*FROM CLIP NAME:  14K1/04 
*SOURCE FILE: 19Y07M31
003746  19Y07M31                         A5    C        12:56:58:04 12:57:06:08 01:15:25:16 01:15:33:20 
*FROM CLIP NAME:  14K1/04 
*SOURCE FILE: 19Y07M31
003747  19Y07M31                         A6    C        12:56:58:04 12:57:06:08 01:15:25:16 01:15:33:20 
*FROM CLIP NAME:  14K1/04 
*SOURCE FILE: 19Y07M31
003748  19Y07M31                         A7    C        12:56:58:04 12:57:06:08 01:15:25:16 01:15:33:20 
*FROM CLIP NAME:  14K1/04 
*SOURCE FILE: 19Y07M31
003749  19Y07M31                         A8    C        12:56:58:04 12:57:06:08 01:15:25:16 01:15:33:20 
*FROM CLIP NAME:  14K1/04 
*SOURCE FILE: 19Y07M31
003750  MSMMMOB.51                       V     C        14:38:31:12 14:38:37:19 01:15:32:07 01:15:38:14 
M2      MSMMMOB.51                                025.0 14:38:31:12 
*FROM CLIP NAME:  A021C007_190731_R32C 
*SOURCE FILE: MSMMMOB.51
003751  19Y07M31                         A     C        14:38:33:00 14:38:37:18 01:15:33:20 01:15:38:13 
*FROM CLIP NAME:  16K2/02.SYNC.01 
*SOURCE FILE: 19Y07M31
003752  19Y07M31                         A2    C        14:38:33:00 14:38:37:18 01:15:33:20 01:15:38:13 
*FROM CLIP NAME:  16K2/02.SYNC.01 
*SOURCE FILE: 19Y07M31
003753  19Y07M31                         A3    C        14:38:33:00 14:38:37:18 01:15:33:20 01:15:38:13 
*FROM CLIP NAME:  16K2/02.SYNC.01 
*SOURCE FILE: 19Y07M31
003754  19Y07M31                         A4    C        14:38:33:00 14:38:37:18 01:15:33:20 01:15:38:13 
*FROM CLIP NAME:  16K2/02.SYNC.01 
*SOURCE FILE: 19Y07M31
003755  19Y07M31                         A5    C        14:38:33:00 14:38:37:18 01:15:33:20 01:15:38:13 
*FROM CLIP NAME:  16K2/02.SYNC.01 
*SOURCE FILE: 19Y07M31
003756  19Y07M31                         A6    C        14:38:33:00 14:38:37:18 01:15:33:20 01:15:38:13 
*FROM CLIP NAME:  16K2/02.SYNC.01 
*SOURCE FILE: 19Y07M31
003757  19Y07M31                         A7    C        14:38:33:00 14:38:37:18 01:15:33:20 01:15:38:13 
*FROM CLIP NAME:  16K2/02.SYNC.01 
*SOURCE FILE: 19Y07M31
003758  19Y07M31                         A8    C        14:38:33:00 14:38:37:18 01:15:33:20 01:15:38:13 
*FROM CLIP NAME:  16K2/02.SYNC.01 
*SOURCE FILE: 19Y07M31
003759  19Y07M31                         A9    C        14:38:33:00 14:38:37:18 01:15:33:20 01:15:38:13 
*FROM CLIP NAME:  16K2/02.SYNC.01 
*PATCH 19Y07M31:  FROM SOURCE 1 TO RECORD 9 
*SOURCE FILE: 19Y07M31
003760  19Y07M31                         A     C        14:38:38:03 14:38:39:10 01:15:38:13 01:15:39:20 
*FROM CLIP NAME:  16K2/02.SYNC.01 
*SOURCE FILE: 19Y07M31
003761  19Y07M31                         A2    C        14:38:38:03 14:38:39:10 01:15:38:13 01:15:39:20 
*FROM CLIP NAME:  16K2/02.SYNC.01 
*SOURCE FILE: 19Y07M31
003762  19Y07M31                         A3    C        14:38:38:03 14:38:39:10 01:15:38:13 01:15:39:20 
*FROM CLIP NAME:  16K2/02.SYNC.01 
*SOURCE FILE: 19Y07M31
003763  19Y07M31                         A4    C        14:38:38:03 14:38:39:10 01:15:38:13 01:15:39:20 
*FROM CLIP NAME:  16K2/02.SYNC.01 
*SOURCE FILE: 19Y07M31
003764  19Y07M31                         A5    C        14:38:38:03 14:38:39:10 01:15:38:13 01:15:39:20 
*FROM CLIP NAME:  16K2/02.SYNC.01 
*SOURCE FILE: 19Y07M31
003765  19Y07M31                         A6    C        14:38:38:03 14:38:39:10 01:15:38:13 01:15:39:20 
*FROM CLIP NAME:  16K2/02.SYNC.01 
*SOURCE FILE: 19Y07M31
003766  19Y07M31                         A7    C        14:38:38:03 14:38:39:10 01:15:38:13 01:15:39:20 
*FROM CLIP NAME:  16K2/02.SYNC.01 
*SOURCE FILE: 19Y07M31
003767  19Y07M31                         A8    C        14:38:38:03 14:38:39:10 01:15:38:13 01:15:39:20 
*FROM CLIP NAME:  16K2/02.SYNC.01 
*SOURCE FILE: 19Y07M31
003768  19Y07M31                         A9    C        14:38:38:03 14:38:39:10 01:15:38:13 01:15:39:20 
*FROM CLIP NAME:  16K2/02.SYNC.01 
*PATCH 19Y07M31:  FROM SOURCE 1 TO RECORD 9 
*SOURCE FILE: 19Y07M31
003769  MSMMMOB.57                       V     C        18:21:49:21 18:21:52:10 01:15:38:14 01:15:41:03 
M2      MSMMMOB.57                                025.0 18:21:49:21 
*FROM CLIP NAME:  A022C011_190731_R32C 
*SOURCE FILE: MSMMMOB.57
003770  19Y07M31                         A     C        18:21:51:02 18:21:52:10 01:15:39:20 01:15:41:03 
*FROM CLIP NAME:  16K11/02.SYNC.01 
*SOURCE FILE: 19Y07M31
003771  19Y07M31                         A2    C        18:21:51:02 18:21:52:10 01:15:39:20 01:15:41:03 
*FROM CLIP NAME:  16K11/02.SYNC.01 
*SOURCE FILE: 19Y07M31
003772  19Y07M31                         A3    C        18:21:51:02 18:21:52:10 01:15:39:20 01:15:41:03 
*FROM CLIP NAME:  16K11/02.SYNC.01 
*SOURCE FILE: 19Y07M31
003773  19Y07M31                         A4    C        18:21:51:02 18:21:52:10 01:15:39:20 01:15:41:03 
*FROM CLIP NAME:  16K11/02.SYNC.01 
*SOURCE FILE: 19Y07M31
003774  19Y07M31                         A5    C        18:21:51:02 18:21:52:10 01:15:39:20 01:15:41:03 
*FROM CLIP NAME:  16K11/02.SYNC.01 
*SOURCE FILE: 19Y07M31
003775  19Y07M31                         A6    C        18:21:51:02 18:21:52:10 01:15:39:20 01:15:41:03 
*FROM CLIP NAME:  16K11/02.SYNC.01 
*SOURCE FILE: 19Y07M31
003776  19Y07M31                         A7    C        18:21:51:02 18:21:52:10 01:15:39:20 01:15:41:03 
*FROM CLIP NAME:  16K11/02.SYNC.01 
*SOURCE FILE: 19Y07M31
003777  19Y07M31                         A8    C        18:21:51:02 18:21:52:10 01:15:39:20 01:15:41:03 
*FROM CLIP NAME:  16K11/02.SYNC.01 
*SOURCE FILE: 19Y07M31
003778  19Y07M31                         A9    C        18:21:51:02 18:21:52:10 01:15:39:20 01:15:41:03 
*FROM CLIP NAME:  16K11/02.SYNC.01 
*SOURCE FILE: 19Y07M31
003779  19Y07M31                         A10   C        18:21:51:02 18:21:52:10 01:15:39:20 01:15:41:03 
*FROM CLIP NAME:  16K11/02.SYNC.01 
*PATCH 19Y07M31:  FROM SOURCE 1 TO RECORD 10 
*SOURCE FILE: 19Y07M31
003780  MSMMMOB.21                       V     C        17:23:24:00 17:23:26:15 01:15:41:03 01:15:43:18 
M2      MSMMMOB.21                                025.0 17:23:24:00 
*FROM CLIP NAME:  A022C002_190731_R32C 
*SOURCE FILE: MSMMMOB.21
003781  19Y07M31                         A     C        17:57:58:15 17:58:01:05 01:15:41:03 01:15:43:18 
*FROM CLIP NAME:  16K10/02.SYNC.01 
*SOURCE FILE: 19Y07M31
003782  19Y07M31                         A2    C        17:57:58:15 17:58:01:05 01:15:41:03 01:15:43:18 
*FROM CLIP NAME:  16K10/02.SYNC.01 
*SOURCE FILE: 19Y07M31
003783  19Y07M31                         A3    C        17:57:58:15 17:58:01:05 01:15:41:03 01:15:43:18 
*FROM CLIP NAME:  16K10/02.SYNC.01 
*SOURCE FILE: 19Y07M31
003784  19Y07M31                         A4    C        17:57:58:15 17:58:01:05 01:15:41:03 01:15:43:18 
*FROM CLIP NAME:  16K10/02.SYNC.01 
*SOURCE FILE: 19Y07M31
003785  19Y07M31                         A5    C        17:57:58:15 17:58:01:05 01:15:41:03 01:15:43:18 
*FROM CLIP NAME:  16K10/02.SYNC.01 
*SOURCE FILE: 19Y07M31
003786  19Y07M31                         A6    C        17:57:58:15 17:58:01:05 01:15:41:03 01:15:43:18 
*FROM CLIP NAME:  16K10/02.SYNC.01 
*SOURCE FILE: 19Y07M31
003787  19Y07M31                         A7    C        17:57:58:15 17:58:01:05 01:15:41:03 01:15:43:18 
*FROM CLIP NAME:  16K10/02.SYNC.01 
*SOURCE FILE: 19Y07M31
003788  19Y07M31                         A8    C        17:57:58:15 17:58:01:05 01:15:41:03 01:15:43:18 
*FROM CLIP NAME:  16K10/02.SYNC.01 
*SOURCE FILE: 19Y07M31
003789  19Y07M31                         A9    C        17:57:58:15 17:58:01:05 01:15:41:03 01:15:43:18 
*FROM CLIP NAME:  16K10/02.SYNC.01 
*SOURCE FILE: 19Y07M31
003790  19Y07M31                         A10   C        17:57:58:15 17:58:01:05 01:15:41:03 01:15:43:18 
*FROM CLIP NAME:  16K10/02.SYNC.01 
*PATCH 19Y07M31:  FROM SOURCE 1 TO RECORD 10 
*SOURCE FILE: 19Y07M31
003791  MSMMMOB.43                       V     C        17:58:03:07 17:58:05:23 01:15:43:18 01:15:46:09 
M2      MSMMMOB.43                                025.0 17:58:03:07 
*FROM CLIP NAME:  A022C009_190731_R32C 
*SOURCE FILE: MSMMMOB.43
003792  19Y07M31                         A     C        17:58:03:07 17:58:05:23 01:15:43:18 01:15:46:09 
*FROM CLIP NAME:  16K10/02.SYNC.01 
*SOURCE FILE: 19Y07M31
003793  19Y07M31                         A2    C        17:58:03:07 17:58:05:23 01:15:43:18 01:15:46:09 
*FROM CLIP NAME:  16K10/02.SYNC.01 
*SOURCE FILE: 19Y07M31
003794  19Y07M31                         A3    C        17:58:03:07 17:58:05:23 01:15:43:18 01:15:46:09 
*FROM CLIP NAME:  16K10/02.SYNC.01 
*SOURCE FILE: 19Y07M31
003795  19Y07M31                         A4    C        17:58:03:07 17:58:05:23 01:15:43:18 01:15:46:09 
*FROM CLIP NAME:  16K10/02.SYNC.01 
*SOURCE FILE: 19Y07M31
003796  19Y07M31                         A5    C        17:58:03:07 17:58:05:23 01:15:43:18 01:15:46:09 
*FROM CLIP NAME:  16K10/02.SYNC.01 
*SOURCE FILE: 19Y07M31
003797  19Y07M31                         A6    C        17:58:03:07 17:58:05:23 01:15:43:18 01:15:46:09 
*FROM CLIP NAME:  16K10/02.SYNC.01 
*SOURCE FILE: 19Y07M31
003798  19Y07M31                         A7    C        17:58:03:07 17:58:05:23 01:15:43:18 01:15:46:09 
*FROM CLIP NAME:  16K10/02.SYNC.01 
*SOURCE FILE: 19Y07M31
003799  19Y07M31                         A8    C        17:58:03:07 17:58:05:23 01:15:43:18 01:15:46:09 
*FROM CLIP NAME:  16K10/02.SYNC.01 
*SOURCE FILE: 19Y07M31
003800  19Y07M31                         A9    C        17:58:03:07 17:58:05:23 01:15:43:18 01:15:46:09 
*FROM CLIP NAME:  16K10/02.SYNC.01 
*SOURCE FILE: 19Y07M31
003801  19Y07M31                         A10   C        17:58:03:07 17:58:05:23 01:15:43:18 01:15:46:09 
*FROM CLIP NAME:  16K10/02.SYNC.01 
*PATCH 19Y07M31:  FROM SOURCE 1 TO RECORD 10 
*SOURCE FILE: 19Y07M31
003802  MSMMMOB.57                       V     C        18:21:54:18 18:21:57:11 01:15:46:09 01:15:49:02 
M2      MSMMMOB.57                                025.0 18:21:54:18 
*FROM CLIP NAME:  A022C011_190731_R32C 
*SOURCE FILE: MSMMMOB.57
003803  19Y07M31                         A     C        18:21:54:18 18:21:57:11 01:15:46:09 01:15:49:02 
*FROM CLIP NAME:  16K11/02.SYNC.01 
*SOURCE FILE: 19Y07M31
003804  19Y07M31                         A2    C        18:21:54:18 18:21:57:11 01:15:46:09 01:15:49:02 
*FROM CLIP NAME:  16K11/02.SYNC.01 
*SOURCE FILE: 19Y07M31
003805  19Y07M31                         A3    C        18:21:54:18 18:21:57:11 01:15:46:09 01:15:49:02 
*FROM CLIP NAME:  16K11/02.SYNC.01 
*SOURCE FILE: 19Y07M31
003806  19Y07M31                         A4    C        18:21:54:18 18:21:57:11 01:15:46:09 01:15:49:02 
*FROM CLIP NAME:  16K11/02.SYNC.01 
*SOURCE FILE: 19Y07M31
003807  19Y07M31                         A5    C        18:21:54:18 18:21:57:11 01:15:46:09 01:15:49:02 
*FROM CLIP NAME:  16K11/02.SYNC.01 
*SOURCE FILE: 19Y07M31
003808  19Y07M31                         A6    C        18:21:54:18 18:21:57:11 01:15:46:09 01:15:49:02 
*FROM CLIP NAME:  16K11/02.SYNC.01 
*SOURCE FILE: 19Y07M31
003809  19Y07M31                         A7    C        18:21:54:18 18:21:57:11 01:15:46:09 01:15:49:02 
*FROM CLIP NAME:  16K11/02.SYNC.01 
*SOURCE FILE: 19Y07M31
003810  19Y07M31                         A8    C        18:21:54:18 18:21:57:11 01:15:46:09 01:15:49:02 
*FROM CLIP NAME:  16K11/02.SYNC.01 
*SOURCE FILE: 19Y07M31
003811  19Y07M31                         A9    C        18:21:54:18 18:21:57:11 01:15:46:09 01:15:49:02 
*FROM CLIP NAME:  16K11/02.SYNC.01 
*SOURCE FILE: 19Y07M31
003812  19Y07M31                         A10   C        18:21:54:18 18:21:57:11 01:15:46:09 01:15:49:02 
*FROM CLIP NAME:  16K11/02.SYNC.01 
*PATCH 19Y07M31:  FROM SOURCE 1 TO RECORD 10 
*SOURCE FILE: 19Y07M31
003813  MSMMMOB.26                       V     C        17:31:10:15 17:31:18:12 01:15:49:02 01:15:56:24 
M2      MSMMMOB.26                                025.0 17:31:10:15 
*FROM CLIP NAME:  A022C003_190731_R32C 
*SOURCE FILE: MSMMMOB.26
003814  19Y07M31                         A     C        17:31:10:15 17:31:18:12 01:15:49:02 01:15:56:24 
*FROM CLIP NAME:  16K8/01.SYNC.01 
*SOURCE FILE: 19Y07M31
003815  19Y07M31                         A2    C        17:31:10:15 17:31:18:12 01:15:49:02 01:15:56:24 
*FROM CLIP NAME:  16K8/01.SYNC.01 
*SOURCE FILE: 19Y07M31
003816  19Y07M31                         A3    C        17:31:10:15 17:31:18:12 01:15:49:02 01:15:56:24 
*FROM CLIP NAME:  16K8/01.SYNC.01 
*SOURCE FILE: 19Y07M31
003817  19Y07M31                         A4    C        17:31:10:15 17:31:18:12 01:15:49:02 01:15:56:24 
*FROM CLIP NAME:  16K8/01.SYNC.01 
*SOURCE FILE: 19Y07M31
003818  19Y07M31                         A5    C        17:31:10:15 17:31:18:12 01:15:49:02 01:15:56:24 
*FROM CLIP NAME:  16K8/01.SYNC.01 
*SOURCE FILE: 19Y07M31
003819  19Y07M31                         A6    C        17:31:10:15 17:31:18:12 01:15:49:02 01:15:56:24 
*FROM CLIP NAME:  16K8/01.SYNC.01 
*SOURCE FILE: 19Y07M31
003820  19Y07M31                         A7    C        17:31:10:15 17:31:18:12 01:15:49:02 01:15:56:24 
*FROM CLIP NAME:  16K8/01.SYNC.01 
*SOURCE FILE: 19Y07M31
003821  19Y07M31                         A8    C        17:31:10:15 17:31:18:12 01:15:49:02 01:15:56:24 
*FROM CLIP NAME:  16K8/01.SYNC.01 
*SOURCE FILE: 19Y07M31
003822  19Y07M31                         A9    C        17:31:10:15 17:31:18:12 01:15:49:02 01:15:56:24 
*FROM CLIP NAME:  16K8/01.SYNC.01 
*PATCH 19Y07M31:  FROM SOURCE 1 TO RECORD 9 
*SOURCE FILE: 19Y07M31
003823  MSMMMOB.21                       V     C        17:23:38:00 17:23:39:14 01:15:56:24 01:15:58:13 
M2      MSMMMOB.21                                025.0 17:23:38:00 
*FROM CLIP NAME:  A022C002_190731_R32C 
*SOURCE FILE: MSMMMOB.21
003824  19Y07M31                         A10   C        17:23:38:00 17:23:39:14 01:15:56:24 01:15:58:13 
*FROM CLIP NAME:  16K7/02.SYNC.01 
*PATCH 19Y07M31:  FROM SOURCE 1 TO RECORD 10 
*SOURCE FILE: 19Y07M31
003825  19Y07M31                         A     C        17:23:38:00 17:23:40:00 01:15:56:24 01:15:58:24 
*FROM CLIP NAME:  16K7/02.SYNC.01 
*SOURCE FILE: 19Y07M31
003826  19Y07M31                         A2    C        17:23:38:00 17:23:40:00 01:15:56:24 01:15:58:24 
*FROM CLIP NAME:  16K7/02.SYNC.01 
*SOURCE FILE: 19Y07M31
003827  19Y07M31                         A3    C        17:23:38:00 17:23:40:00 01:15:56:24 01:15:58:24 
*FROM CLIP NAME:  16K7/02.SYNC.01 
*SOURCE FILE: 19Y07M31
003828  19Y07M31                         A4    C        17:23:38:00 17:23:40:00 01:15:56:24 01:15:58:24 
*FROM CLIP NAME:  16K7/02.SYNC.01 
*SOURCE FILE: 19Y07M31
003829  19Y07M31                         A5    C        17:23:38:00 17:23:40:00 01:15:56:24 01:15:58:24 
*FROM CLIP NAME:  16K7/02.SYNC.01 
*SOURCE FILE: 19Y07M31
003830  19Y07M31                         A6    C        17:23:38:00 17:23:40:00 01:15:56:24 01:15:58:24 
*FROM CLIP NAME:  16K7/02.SYNC.01 
*SOURCE FILE: 19Y07M31
003831  19Y07M31                         A7    C        17:23:38:00 17:23:40:00 01:15:56:24 01:15:58:24 
*FROM CLIP NAME:  16K7/02.SYNC.01 
*SOURCE FILE: 19Y07M31
003832  19Y07M31                         A8    C        17:23:38:00 17:23:40:00 01:15:56:24 01:15:58:24 
*FROM CLIP NAME:  16K7/02.SYNC.01 
*SOURCE FILE: 19Y07M31
003833  19Y07M31                         A9    C        17:23:38:00 17:23:40:00 01:15:56:24 01:15:58:24 
*FROM CLIP NAME:  16K7/02.SYNC.01 
*SOURCE FILE: 19Y07M31
003834  MSMMMOB.27                       V     C        17:33:26:17 17:33:28:12 01:15:58:13 01:16:00:08 
M2      MSMMMOB.27                                025.0 17:33:26:17 
*FROM CLIP NAME:  A022C004_190731_R32C 
*SOURCE FILE: MSMMMOB.27
003835  19Y07M31                         A     C        14:38:53:18 14:38:54:14 01:15:58:24 01:15:59:20 
*FROM CLIP NAME:  16K2/02.SYNC.01 
*SOURCE FILE: 19Y07M31
003836  19Y07M31                         A2    C        14:38:53:18 14:38:54:14 01:15:58:24 01:15:59:20 
*FROM CLIP NAME:  16K2/02.SYNC.01 
*SOURCE FILE: 19Y07M31
003837  19Y07M31                         A3    C        14:38:53:18 14:38:54:14 01:15:58:24 01:15:59:20 
*FROM CLIP NAME:  16K2/02.SYNC.01 
*SOURCE FILE: 19Y07M31
003838  19Y07M31                         A4    C        14:38:53:18 14:38:54:14 01:15:58:24 01:15:59:20 
*FROM CLIP NAME:  16K2/02.SYNC.01 
*SOURCE FILE: 19Y07M31
003839  19Y07M31                         A5    C        14:38:53:18 14:38:54:14 01:15:58:24 01:15:59:20 
*FROM CLIP NAME:  16K2/02.SYNC.01 
*SOURCE FILE: 19Y07M31
003840  19Y07M31                         A6    C        14:38:53:18 14:38:54:14 01:15:58:24 01:15:59:20 
*FROM CLIP NAME:  16K2/02.SYNC.01 
*SOURCE FILE: 19Y07M31
003841  19Y07M31                         A7    C        14:38:53:18 14:38:54:14 01:15:58:24 01:15:59:20 
*FROM CLIP NAME:  16K2/02.SYNC.01 
*SOURCE FILE: 19Y07M31
003842  19Y07M31                         A8    C        14:38:53:18 14:38:54:14 01:15:58:24 01:15:59:20 
*FROM CLIP NAME:  16K2/02.SYNC.01 
*SOURCE FILE: 19Y07M31
003843  19Y07M31                         A9    C        14:38:53:18 14:38:54:14 01:15:58:24 01:15:59:20 
*FROM CLIP NAME:  16K2/02.SYNC.01 
*PATCH 19Y07M31:  FROM SOURCE 1 TO RECORD 9 
*SOURCE FILE: 19Y07M31
003844  19Y07M31                         A     C        14:38:53:21 14:38:54:09 01:15:59:20 01:16:00:08 
*FROM CLIP NAME:  16K2/02.SYNC.01 
*SOURCE FILE: 19Y07M31
003845  19Y07M31                         A2    C        14:38:53:21 14:38:54:09 01:15:59:20 01:16:00:08 
*FROM CLIP NAME:  16K2/02.SYNC.01 
*SOURCE FILE: 19Y07M31
003846  19Y07M31                         A3    C        14:38:53:21 14:38:54:09 01:15:59:20 01:16:00:08 
*FROM CLIP NAME:  16K2/02.SYNC.01 
*SOURCE FILE: 19Y07M31
003847  19Y07M31                         A4    C        14:38:53:21 14:38:54:09 01:15:59:20 01:16:00:08 
*FROM CLIP NAME:  16K2/02.SYNC.01 
*SOURCE FILE: 19Y07M31
003848  19Y07M31                         A5    C        14:38:53:21 14:38:54:09 01:15:59:20 01:16:00:08 
*FROM CLIP NAME:  16K2/02.SYNC.01 
*SOURCE FILE: 19Y07M31
003849  19Y07M31                         A6    C        14:38:53:21 14:38:54:09 01:15:59:20 01:16:00:08 
*FROM CLIP NAME:  16K2/02.SYNC.01 
*SOURCE FILE: 19Y07M31
003850  19Y07M31                         A7    C        14:38:53:21 14:38:54:09 01:15:59:20 01:16:00:08 
*FROM CLIP NAME:  16K2/02.SYNC.01 
*SOURCE FILE: 19Y07M31
003851  19Y07M31                         A8    C        14:38:53:21 14:38:54:09 01:15:59:20 01:16:00:08 
*FROM CLIP NAME:  16K2/02.SYNC.01 
*SOURCE FILE: 19Y07M31
003852  19Y07M31                         A9    C        14:38:53:21 14:38:54:09 01:15:59:20 01:16:00:08 
*FROM CLIP NAME:  16K2/02.SYNC.01 
*PATCH 19Y07M31:  FROM SOURCE 1 TO RECORD 9 
*SOURCE FILE: 19Y07M31
003853  19Y07M31                         A     C        14:38:54:17 14:38:55:03 01:16:00:08 01:16:00:19 
*FROM CLIP NAME:  16K2/02.SYNC.01 
*SOURCE FILE: 19Y07M31
003854  19Y07M31                         A2    C        14:38:54:17 14:38:55:03 01:16:00:08 01:16:00:19 
*FROM CLIP NAME:  16K2/02.SYNC.01 
*SOURCE FILE: 19Y07M31
003855  19Y07M31                         A3    C        14:38:54:17 14:38:55:03 01:16:00:08 01:16:00:19 
*FROM CLIP NAME:  16K2/02.SYNC.01 
*SOURCE FILE: 19Y07M31
003856  19Y07M31                         A4    C        14:38:54:17 14:38:55:03 01:16:00:08 01:16:00:19 
*FROM CLIP NAME:  16K2/02.SYNC.01 
*SOURCE FILE: 19Y07M31
003857  19Y07M31                         A5    C        14:38:54:17 14:38:55:03 01:16:00:08 01:16:00:19 
*FROM CLIP NAME:  16K2/02.SYNC.01 
*SOURCE FILE: 19Y07M31
003858  19Y07M31                         A6    C        14:38:54:17 14:38:55:03 01:16:00:08 01:16:00:19 
*FROM CLIP NAME:  16K2/02.SYNC.01 
*SOURCE FILE: 19Y07M31
003859  19Y07M31                         A7    C        14:38:54:17 14:38:55:03 01:16:00:08 01:16:00:19 
*FROM CLIP NAME:  16K2/02.SYNC.01 
*SOURCE FILE: 19Y07M31
003860  19Y07M31                         A8    C        14:38:54:17 14:38:55:03 01:16:00:08 01:16:00:19 
*FROM CLIP NAME:  16K2/02.SYNC.01 
*SOURCE FILE: 19Y07M31
003861  19Y07M31                         A9    C        14:38:54:17 14:38:55:03 01:16:00:08 01:16:00:19 
*FROM CLIP NAME:  16K2/02.SYNC.01 
*PATCH 19Y07M31:  FROM SOURCE 1 TO RECORD 9 
*SOURCE FILE: 19Y07M31
003862  MSMMMOB.51                       V     C        14:38:54:17 14:38:56:13 01:16:00:08 01:16:02:04 
M2      MSMMMOB.51                                025.0 14:38:54:17 
*FROM CLIP NAME:  A021C007_190731_R32C 
*SOURCE FILE: MSMMMOB.51
003863  19Y07M31                         A     C        17:33:29:13 17:33:30:19 01:16:00:19 01:16:02:00 
*FROM CLIP NAME:  16K8/02.SYNC.01 
*SOURCE FILE: 19Y07M31
003864  19Y07M31                         A2    C        17:33:29:13 17:33:30:19 01:16:00:19 01:16:02:00 
*FROM CLIP NAME:  16K8/02.SYNC.01 
*SOURCE FILE: 19Y07M31
003865  19Y07M31                         A3    C        17:33:29:13 17:33:30:19 01:16:00:19 01:16:02:00 
*FROM CLIP NAME:  16K8/02.SYNC.01 
*SOURCE FILE: 19Y07M31
003866  19Y07M31                         A4    C        17:33:29:13 17:33:30:19 01:16:00:19 01:16:02:00 
*FROM CLIP NAME:  16K8/02.SYNC.01 
*SOURCE FILE: 19Y07M31
003867  19Y07M31                         A5    C        17:33:29:13 17:33:30:19 01:16:00:19 01:16:02:00 
*FROM CLIP NAME:  16K8/02.SYNC.01 
*SOURCE FILE: 19Y07M31
003868  19Y07M31                         A6    C        17:33:29:13 17:33:30:19 01:16:00:19 01:16:02:00 
*FROM CLIP NAME:  16K8/02.SYNC.01 
*SOURCE FILE: 19Y07M31
003869  19Y07M31                         A7    C        17:33:29:13 17:33:30:19 01:16:00:19 01:16:02:00 
*FROM CLIP NAME:  16K8/02.SYNC.01 
*SOURCE FILE: 19Y07M31
003870  19Y07M31                         A8    C        17:33:29:13 17:33:30:19 01:16:00:19 01:16:02:00 
*FROM CLIP NAME:  16K8/02.SYNC.01 
*SOURCE FILE: 19Y07M31
003871  19Y07M31                         A9    C        17:33:29:13 17:33:30:19 01:16:00:19 01:16:02:00 
*FROM CLIP NAME:  16K8/02.SYNC.01 
*PATCH 19Y07M31:  FROM SOURCE 1 TO RECORD 9 
*SOURCE FILE: 19Y07M31
003872  19Y07M31                         A     C        14:38:56:09 14:38:56:13 01:16:02:00 01:16:02:04 
*FROM CLIP NAME:  16K2/02.SYNC.01 
*SOURCE FILE: 19Y07M31
003873  19Y07M31                         A2    C        14:38:56:09 14:38:56:13 01:16:02:00 01:16:02:04 
*FROM CLIP NAME:  16K2/02.SYNC.01 
*SOURCE FILE: 19Y07M31
003874  19Y07M31                         A3    C        14:38:56:09 14:38:56:13 01:16:02:00 01:16:02:04 
*FROM CLIP NAME:  16K2/02.SYNC.01 
*SOURCE FILE: 19Y07M31
003875  19Y07M31                         A4    C        14:38:56:09 14:38:56:13 01:16:02:00 01:16:02:04 
*FROM CLIP NAME:  16K2/02.SYNC.01 
*SOURCE FILE: 19Y07M31
003876  19Y07M31                         A5    C        14:38:56:09 14:38:56:13 01:16:02:00 01:16:02:04 
*FROM CLIP NAME:  16K2/02.SYNC.01 
*SOURCE FILE: 19Y07M31
003877  19Y07M31                         A6    C        14:38:56:09 14:38:56:13 01:16:02:00 01:16:02:04 
*FROM CLIP NAME:  16K2/02.SYNC.01 
*SOURCE FILE: 19Y07M31
003878  19Y07M31                         A7    C        14:38:56:09 14:38:56:13 01:16:02:00 01:16:02:04 
*FROM CLIP NAME:  16K2/02.SYNC.01 
*SOURCE FILE: 19Y07M31
003879  19Y07M31                         A8    C        14:38:56:09 14:38:56:13 01:16:02:00 01:16:02:04 
*FROM CLIP NAME:  16K2/02.SYNC.01 
*SOURCE FILE: 19Y07M31
003880  19Y07M31                         A9    C        14:38:56:09 14:38:56:13 01:16:02:00 01:16:02:04 
*FROM CLIP NAME:  16K2/02.SYNC.01 
*PATCH 19Y07M31:  FROM SOURCE 1 TO RECORD 9 
*SOURCE FILE: 19Y07M31
003881  MSMMMOB.37                       V     C        17:45:27:14 17:45:36:09 01:16:02:04 01:16:10:24 
M2      MSMMMOB.37                                025.0 17:45:27:14 
*FROM CLIP NAME:  A022C006_190731_R32C 
*SOURCE FILE: MSMMMOB.37
003882  19Y07M31                         A     C        17:45:27:14 17:45:37:09 01:16:02:04 01:16:11:24 
*FROM CLIP NAME:  16K9/02.SYNC.01 
*SOURCE FILE: 19Y07M31
003883  19Y07M31                         A2    C        17:45:27:14 17:45:37:09 01:16:02:04 01:16:11:24 
*FROM CLIP NAME:  16K9/02.SYNC.01 
*SOURCE FILE: 19Y07M31
003884  19Y07M31                         A3    C        17:45:27:14 17:45:37:09 01:16:02:04 01:16:11:24 
*FROM CLIP NAME:  16K9/02.SYNC.01 
*SOURCE FILE: 19Y07M31
003885  19Y07M31                         A4    C        17:45:27:14 17:45:37:09 01:16:02:04 01:16:11:24 
*FROM CLIP NAME:  16K9/02.SYNC.01 
*PATCH 19Y07M31:  FROM SOURCE 1 TO RECORD 4 
*SOURCE FILE: 19Y07M31
003886  19Y07M31                         A5    C        17:45:27:14 17:45:37:09 01:16:02:04 01:16:11:24 
*FROM CLIP NAME:  16K9/02.SYNC.01 
*PATCH 19Y07M31:  FROM SOURCE 6 TO RECORD 5 
*SOURCE FILE: 19Y07M31
003887  MSMMMOB.27                       V     C        17:33:34:20 17:33:35:20 01:16:10:24 01:16:11:24 
M2      MSMMMOB.27                                025.0 17:33:34:20 
*FROM CLIP NAME:  A022C004_190731_R32C 
*SOURCE FILE: MSMMMOB.27
003888  19Y07M31                         A     C        18:16:47:11 18:16:48:04 01:16:11:24 01:16:12:17 
*FROM CLIP NAME:  16K11/01.SYNC.01 
*SOURCE FILE: 19Y07M31
003889  19Y07M31                         A2    C        18:16:47:11 18:16:48:04 01:16:11:24 01:16:12:17 
*FROM CLIP NAME:  16K11/01.SYNC.01 
*SOURCE FILE: 19Y07M31
003890  19Y07M31                         A3    C        18:16:47:11 18:16:48:04 01:16:11:24 01:16:12:17 
*FROM CLIP NAME:  16K11/01.SYNC.01 
*SOURCE FILE: 19Y07M31
003891  19Y07M31                         A4    C        18:16:47:11 18:16:48:04 01:16:11:24 01:16:12:17 
*FROM CLIP NAME:  16K11/01.SYNC.01 
*SOURCE FILE: 19Y07M31
003892  19Y07M31                         A5    C        18:16:47:11 18:16:48:04 01:16:11:24 01:16:12:17 
*FROM CLIP NAME:  16K11/01.SYNC.01 
*SOURCE FILE: 19Y07M31
003893  19Y07M31                         A6    C        18:16:47:11 18:16:48:04 01:16:11:24 01:16:12:17 
*FROM CLIP NAME:  16K11/01.SYNC.01 
*SOURCE FILE: 19Y07M31
003894  19Y07M31                         A7    C        18:16:47:11 18:16:48:04 01:16:11:24 01:16:12:17 
*FROM CLIP NAME:  16K11/01.SYNC.01 
*SOURCE FILE: 19Y07M31
003895  19Y07M31                         A8    C        18:16:47:11 18:16:48:04 01:16:11:24 01:16:12:17 
*FROM CLIP NAME:  16K11/01.SYNC.01 
*SOURCE FILE: 19Y07M31
003896  19Y07M31                         A9    C        18:16:47:11 18:16:48:04 01:16:11:24 01:16:12:17 
*FROM CLIP NAME:  16K11/01.SYNC.01 
*SOURCE FILE: 19Y07M31
003897  19Y07M31                         A10   C        18:16:47:11 18:16:48:04 01:16:11:24 01:16:12:17 
*FROM CLIP NAME:  16K11/01.SYNC.01 
*PATCH 19Y07M31:  FROM SOURCE 1 TO RECORD 10 
*SOURCE FILE: 19Y07M31
003898  MSMMMOB.49                       V     C        18:16:46:08 18:16:47:19 01:16:11:24 01:16:13:10 
M2      MSMMMOB.49                                025.0 18:16:46:08 
*FROM CLIP NAME:  A022C010_190731_R32C 
*SOURCE FILE: MSMMMOB.49
003899  19Y07M31                         A     C        14:39:05:24 14:39:08:10 01:16:12:17 01:16:15:03 
*FROM CLIP NAME:  16K2/02.SYNC.01 
*SOURCE FILE: 19Y07M31
003900  19Y07M31                         A2    C        14:39:05:24 14:39:08:10 01:16:12:17 01:16:15:03 
*FROM CLIP NAME:  16K2/02.SYNC.01 
*SOURCE FILE: 19Y07M31
003901  19Y07M31                         A3    C        14:39:05:24 14:39:08:10 01:16:12:17 01:16:15:03 
*FROM CLIP NAME:  16K2/02.SYNC.01 
*SOURCE FILE: 19Y07M31
003902  19Y07M31                         A4    C        14:39:05:24 14:39:08:10 01:16:12:17 01:16:15:03 
*FROM CLIP NAME:  16K2/02.SYNC.01 
*SOURCE FILE: 19Y07M31
003903  19Y07M31                         A5    C        14:39:05:24 14:39:08:10 01:16:12:17 01:16:15:03 
*FROM CLIP NAME:  16K2/02.SYNC.01 
*SOURCE FILE: 19Y07M31
003904  19Y07M31                         A6    C        14:39:05:24 14:39:08:10 01:16:12:17 01:16:15:03 
*FROM CLIP NAME:  16K2/02.SYNC.01 
*SOURCE FILE: 19Y07M31
003905  19Y07M31                         A7    C        14:39:05:24 14:39:08:10 01:16:12:17 01:16:15:03 
*FROM CLIP NAME:  16K2/02.SYNC.01 
*SOURCE FILE: 19Y07M31
003906  19Y07M31                         A8    C        14:39:05:24 14:39:08:10 01:16:12:17 01:16:15:03 
*FROM CLIP NAME:  16K2/02.SYNC.01 
*SOURCE FILE: 19Y07M31
003907  19Y07M31                         A9    C        14:39:05:24 14:39:08:10 01:16:12:17 01:16:15:03 
*FROM CLIP NAME:  16K2/02.SYNC.01 
*PATCH 19Y07M31:  FROM SOURCE 1 TO RECORD 9 
*SOURCE FILE: 19Y07M31
003908  MSMMMOB.51                       V     C        14:39:06:17 14:39:08:10 01:16:13:10 01:16:15:03 
M2      MSMMMOB.51                                025.0 14:39:06:17 
*FROM CLIP NAME:  A021C007_190731_R32C 
*SOURCE FILE: MSMMMOB.51
003909  MSMMMOB.17                       V     C        17:20:38:01 17:20:40:02 01:16:15:03 01:16:17:04 
M2      MSMMMOB.17                                025.0 17:20:38:01 
*FROM CLIP NAME:  A022C001_190731_R32C 
*SOURCE FILE: MSMMMOB.17
003910  19Y07M31                         A     C        17:20:38:01 17:20:40:02 01:16:15:03 01:16:17:04 
*FROM CLIP NAME:  16K7/01.SYNC.01 
*SOURCE FILE: 19Y07M31
003911  19Y07M31                         A2    C        17:20:38:01 17:20:40:02 01:16:15:03 01:16:17:04 
*FROM CLIP NAME:  16K7/01.SYNC.01 
*SOURCE FILE: 19Y07M31
003912  19Y07M31                         A3    C        17:20:38:01 17:20:40:02 01:16:15:03 01:16:17:04 
*FROM CLIP NAME:  16K7/01.SYNC.01 
*SOURCE FILE: 19Y07M31
003913  19Y07M31                         A4    C        17:20:38:01 17:20:40:02 01:16:15:03 01:16:17:04 
*FROM CLIP NAME:  16K7/01.SYNC.01 
*SOURCE FILE: 19Y07M31
003914  19Y07M31                         A5    C        17:20:38:01 17:20:40:02 01:16:15:03 01:16:17:04 
*FROM CLIP NAME:  16K7/01.SYNC.01 
*SOURCE FILE: 19Y07M31
003915  19Y07M31                         A6    C        17:20:38:01 17:20:40:02 01:16:15:03 01:16:17:04 
*FROM CLIP NAME:  16K7/01.SYNC.01 
*SOURCE FILE: 19Y07M31
003916  19Y07M31                         A7    C        17:20:38:01 17:20:40:02 01:16:15:03 01:16:17:04 
*FROM CLIP NAME:  16K7/01.SYNC.01 
*SOURCE FILE: 19Y07M31
003917  19Y07M31                         A8    C        17:20:38:01 17:20:40:02 01:16:15:03 01:16:17:04 
*FROM CLIP NAME:  16K7/01.SYNC.01 
*SOURCE FILE: 19Y07M31
003918  19Y07M31                         A9    C        17:20:38:01 17:20:40:02 01:16:15:03 01:16:17:04 
*FROM CLIP NAME:  16K7/01.SYNC.01 
*SOURCE FILE: 19Y07M31
003919  19Y07M31                         A10   C        17:20:38:01 17:20:40:02 01:16:15:03 01:16:17:04 
*FROM CLIP NAME:  16K7/01.SYNC.01 
*PATCH 19Y07M31:  FROM SOURCE 1 TO RECORD 10 
*SOURCE FILE: 19Y07M31
003920  19Y07M31                         A9    C        14:39:12:16 14:39:15:23 01:16:17:04 01:16:20:11 
*FROM CLIP NAME:  16K2/02.SYNC.01 
*A9 VOL = +10.0 DB  PAN R100 
*PATCH 19Y07M31:  FROM SOURCE 5 TO RECORD 9 
*SOURCE FILE: 19Y07M31
003921  MSMMMOB.51                       V     C        14:39:10:01 14:39:13:15 01:16:17:04 01:16:20:18 
M2      MSMMMOB.51                                025.0 14:39:10:01 
*FROM CLIP NAME:  A021C007_190731_R32C 
*SOURCE FILE: MSMMMOB.51
003922  19Y07M31                         A     C        14:39:10:01 14:39:13:15 01:16:17:04 01:16:20:18 
*FROM CLIP NAME:  16K2/02.SYNC.01 
*SOURCE FILE: 19Y07M31
003923  19Y07M31                         A2    C        14:39:10:01 14:39:13:15 01:16:17:04 01:16:20:18 
*FROM CLIP NAME:  16K2/02.SYNC.01 
*SOURCE FILE: 19Y07M31
003924  19Y07M31                         A3    C        14:39:10:01 14:39:13:15 01:16:17:04 01:16:20:18 
*FROM CLIP NAME:  16K2/02.SYNC.01 
*SOURCE FILE: 19Y07M31
003925  19Y07M31                         A4    C        14:39:10:01 14:39:13:15 01:16:17:04 01:16:20:18 
*FROM CLIP NAME:  16K2/02.SYNC.01 
*SOURCE FILE: 19Y07M31
003926  19Y07M31                         A5    C        14:39:10:01 14:39:13:15 01:16:17:04 01:16:20:18 
*FROM CLIP NAME:  16K2/02.SYNC.01 
*PATCH 19Y07M31:  FROM SOURCE 6 TO RECORD 5 
*SOURCE FILE: 19Y07M31
003927  19Y07M31                         A6    C        14:39:10:01 14:39:13:15 01:16:17:04 01:16:20:18 
*FROM CLIP NAME:  16K2/02.SYNC.01 
*PATCH 19Y07M31:  FROM SOURCE 7 TO RECORD 6 
*SOURCE FILE: 19Y07M31
003928  19Y07M31                         A7    C        14:39:10:01 14:39:13:15 01:16:17:04 01:16:20:18 
*FROM CLIP NAME:  16K2/02.SYNC.01 
*PATCH 19Y07M31:  FROM SOURCE 8 TO RECORD 7 
*SOURCE FILE: 19Y07M31
003929  19Y07M31                         A8    C        14:39:10:01 14:39:13:15 01:16:17:04 01:16:20:18 
*FROM CLIP NAME:  16K2/02.SYNC.01 
*PATCH 19Y07M31:  FROM SOURCE 1 TO RECORD 8 
*SOURCE FILE: 19Y07M31
003930  MSMMMOB.08                       V     C        18:37:07:16 18:37:21:04 01:16:20:18 01:16:34:06 
M2      MSMMMOB.08                                025.0 18:37:07:16 
*FROM CLIP NAME:  A023C001_190731_R32C 
*SOURCE FILE: MSMMMOB.08
003931  19Y07M31                         A     C        18:37:07:16 18:37:21:04 01:16:20:18 01:16:34:06 
*FROM CLIP NAME:  16K11/04.SYNC.01 
*A1 VOL = -17.1 DB  PAN R100 
*SOURCE FILE: 19Y07M31
003932  19Y07M31                         A2    C        18:37:07:16 18:37:21:04 01:16:20:18 01:16:34:06 
*FROM CLIP NAME:  16K11/04.SYNC.01 
*A2 VOL = -15.0 DB  PAN L100 
*SOURCE FILE: 19Y07M31
003933  19Y07M31                         A3    C        18:37:07:16 18:37:21:04 01:16:20:18 01:16:34:06 
*FROM CLIP NAME:  16K11/04.SYNC.01 
*A3 VOL = -20.2 DB  PAN R100 
*SOURCE FILE: 19Y07M31
003934  19Y07M31                         A4    C        18:37:07:16 18:37:21:04 01:16:20:18 01:16:34:06 
*FROM CLIP NAME:  16K11/04.SYNC.01 
*SOURCE FILE: 19Y07M31
003935  19Y07M31                         A5    C        18:37:07:16 18:37:21:04 01:16:20:18 01:16:34:06 
*FROM CLIP NAME:  16K11/04.SYNC.01 
*SOURCE FILE: 19Y07M31
003936  19Y07M31                         A6    C        18:37:07:16 18:37:21:04 01:16:20:18 01:16:34:06 
*FROM CLIP NAME:  16K11/04.SYNC.01 
*SOURCE FILE: 19Y07M31
003937  19Y07M31                         A7    C        18:37:07:16 18:37:21:04 01:16:20:18 01:16:34:06 
*FROM CLIP NAME:  16K11/04.SYNC.01 
*A7 VOL = -17.1 DB  PAN R100 
*SOURCE FILE: 19Y07M31
003938  19Y07M31                         A8    C        18:37:07:16 18:37:21:04 01:16:20:18 01:16:34:06 
*FROM CLIP NAME:  16K11/04.SYNC.01 
*SOURCE FILE: 19Y07M31
003939  19Y07M31                         A9    C        18:37:07:16 18:37:21:04 01:16:20:18 01:16:34:06 
*FROM CLIP NAME:  16K11/04.SYNC.01 
*SOURCE FILE: 19Y07M31
003940  19Y07M31                         A10   C        18:37:07:16 18:37:21:04 01:16:20:18 01:16:34:06 
*FROM CLIP NAME:  16K11/04.SYNC.01 
*PATCH 19Y07M31:  FROM SOURCE 1 TO RECORD 10 
*SOURCE FILE: 19Y07M31
003941  BL                               A12   C        00:00:00:00 00:00:00:00 01:16:33:07 01:16:33:07 
003941  XCD094_11_HANDS_UP.MP3           A12   D    124 01:02:50:12 01:02:55:11 01:16:33:07 01:16:38:06 
*TO CLIP NAME:  XCD094_11 HANDS UP.MP3 
*A12 VOL = -12.1 DB  PAN L100 
*EQ BAND 1 (LO SHELF) FREQ:210.0 HZ  GAIN: -18.0 DB  Q: 2000 
*EQ BAND 2 (PRESENCE) FREQ:  1.3  KHZ  GAIN: +10.5 DB  Q: 2000 
*EQ BAND 3 (HI SHELF) FREQ:  6.4  KHZ  GAIN: -16.9 DB  Q: 2000 
*PATCH XCD094_11_HANDS_UP.MP3:  FROM SOURCE 2 TO RECORD 12 
*SOURCE FILE: (NULL)
003942  BL                               A13   C        00:00:00:00 00:00:00:00 01:16:33:07 01:16:33:07 
003942  XCD094_11_HANDS_UP.MP3           A13   D    124 01:02:50:12 01:02:55:11 01:16:33:07 01:16:38:06 
*TO CLIP NAME:  XCD094_11 HANDS UP.MP3 
*A13 VOL = -12.1 DB  PAN R100 
*EQ BAND 1 (LO SHELF) FREQ:210.0 HZ  GAIN: -18.0 DB  Q: 2000 
*EQ BAND 2 (PRESENCE) FREQ:  1.3  KHZ  GAIN: +10.5 DB  Q: 2000 
*EQ BAND 3 (HI SHELF) FREQ:  6.4  KHZ  GAIN: -16.9 DB  Q: 2000 
*PATCH XCD094_11_HANDS_UP.MP3:  FROM SOURCE 1 TO RECORD 13 
*SOURCE FILE: (NULL)
003943  MSMMMOB.10                       V     C        19:46:14:16 19:46:18:19 01:16:34:06 01:16:38:09 
M2      MSMMMOB.10                                025.0 19:46:14:16 
*FROM CLIP NAME:  A024C003_190731_R32C 
*SOURCE FILE: MSMMMOB.10
003944  19Y07M31                         A     C        19:46:14:16 19:46:18:19 01:16:34:06 01:16:38:09 
*FROM CLIP NAME:  16K19/01.SYNC.01 
*SOURCE FILE: 19Y07M31
003945  19Y07M31                         A2    C        19:46:14:16 19:46:18:19 01:16:34:06 01:16:38:09 
*FROM CLIP NAME:  16K19/01.SYNC.01 
*SOURCE FILE: 19Y07M31
003946  19Y07M31                         A3    C        19:46:14:16 19:46:18:19 01:16:34:06 01:16:38:09 
*FROM CLIP NAME:  16K19/01.SYNC.01 
*SOURCE FILE: 19Y07M31
003947  19Y07M31                         A4    C        19:46:14:16 19:46:18:19 01:16:34:06 01:16:38:09 
*FROM CLIP NAME:  16K19/01.SYNC.01 
*SOURCE FILE: 19Y07M31
003948  19Y07M31                         A5    C        19:46:14:16 19:46:18:19 01:16:34:06 01:16:38:09 
*FROM CLIP NAME:  16K19/01.SYNC.01 
*SOURCE FILE: 19Y07M31
003949  19Y07M31                         A6    C        19:46:14:16 19:46:18:19 01:16:34:06 01:16:38:09 
*FROM CLIP NAME:  16K19/01.SYNC.01 
*SOURCE FILE: 19Y07M31
003950  19Y07M31                         A7    C        19:46:14:16 19:46:18:19 01:16:34:06 01:16:38:09 
*FROM CLIP NAME:  16K19/01.SYNC.01 
*SOURCE FILE: 19Y07M31
003951  19Y07M31                         A8    C        19:46:14:16 19:46:18:19 01:16:34:06 01:16:38:09 
*FROM CLIP NAME:  16K19/01.SYNC.01 
*SOURCE FILE: 19Y07M31
003952  19Y07M31                         A9    C        19:46:14:16 19:46:18:19 01:16:34:06 01:16:38:09 
*FROM CLIP NAME:  16K19/01.SYNC.01 
*PATCH 19Y07M31:  FROM SOURCE 1 TO RECORD 9 
*SOURCE FILE: 19Y07M31
003953  XCD094_11_HANDS_UP.MP3           A12   C        01:02:55:11 01:03:00:20 01:16:38:06 01:16:43:15 
*FROM CLIP NAME:  XCD094_11 HANDS UP.MP3 
*A12 VOL = -12.1 DB  PAN L100 
*EQ BAND 1 (LO SHELF) FREQ:210.0 HZ  GAIN: -18.0 DB  Q: 2000 
*EQ BAND 2 (PRESENCE) FREQ:  1.3  KHZ  GAIN: +10.5 DB  Q: 2000 
*EQ BAND 3 (HI SHELF) FREQ:  6.4  KHZ  GAIN: -16.9 DB  Q: 2000 
*PATCH XCD094_11_HANDS_UP.MP3:  FROM SOURCE 2 TO RECORD 12 
*SOURCE FILE: XCD094_11 HANDS UP.MP3
003954  XCD094_11_HANDS_UP.MP3           A13   C        01:02:55:11 01:03:00:20 01:16:38:06 01:16:43:15 
*FROM CLIP NAME:  XCD094_11 HANDS UP.MP3 
*A13 VOL = -12.1 DB  PAN R100 
*EQ BAND 1 (LO SHELF) FREQ:210.0 HZ  GAIN: -18.0 DB  Q: 2000 
*EQ BAND 2 (PRESENCE) FREQ:  1.3  KHZ  GAIN: +10.5 DB  Q: 2000 
*EQ BAND 3 (HI SHELF) FREQ:  6.4  KHZ  GAIN: -16.9 DB  Q: 2000 
*PATCH XCD094_11_HANDS_UP.MP3:  FROM SOURCE 1 TO RECORD 13 
*SOURCE FILE: XCD094_11 HANDS UP.MP3
003955  MSMMMOB.51                       V     C        14:39:32:21 14:39:35:09 01:16:38:09 01:16:40:22 
M2      MSMMMOB.51                                025.0 14:39:32:21 
*FROM CLIP NAME:  A021C007_190731_R32C 
*SOURCE FILE: MSMMMOB.51
003956  19Y07M31                         A     C        14:39:30:22 14:39:33:10 01:16:38:09 01:16:40:22 
*FROM CLIP NAME:  16K2/02.SYNC.01 
*SOURCE FILE: 19Y07M31
003957  19Y07M31                         A2    C        14:39:30:22 14:39:33:10 01:16:38:09 01:16:40:22 
*FROM CLIP NAME:  16K2/02.SYNC.01 
*SOURCE FILE: 19Y07M31
003958  19Y07M31                         A3    C        14:39:30:22 14:39:33:10 01:16:38:09 01:16:40:22 
*FROM CLIP NAME:  16K2/02.SYNC.01 
*SOURCE FILE: 19Y07M31
003959  19Y07M31                         A4    C        14:39:30:22 14:39:33:10 01:16:38:09 01:16:40:22 
*FROM CLIP NAME:  16K2/02.SYNC.01 
*SOURCE FILE: 19Y07M31
003960  19Y07M31                         A5    C        14:39:30:22 14:39:33:10 01:16:38:09 01:16:40:22 
*FROM CLIP NAME:  16K2/02.SYNC.01 
*SOURCE FILE: 19Y07M31
003961  19Y07M31                         A6    C        14:39:30:22 14:39:33:10 01:16:38:09 01:16:40:22 
*FROM CLIP NAME:  16K2/02.SYNC.01 
*SOURCE FILE: 19Y07M31
003962  19Y07M31                         A7    C        14:39:30:22 14:39:33:10 01:16:38:09 01:16:40:22 
*FROM CLIP NAME:  16K2/02.SYNC.01 
*SOURCE FILE: 19Y07M31
003963  19Y07M31                         A8    C        14:39:30:22 14:39:33:10 01:16:38:09 01:16:40:22 
*FROM CLIP NAME:  16K2/02.SYNC.01 
*SOURCE FILE: 19Y07M31
003964  19Y07M31                         A9    C        14:39:30:22 14:39:33:10 01:16:38:09 01:16:40:22 
*FROM CLIP NAME:  16K2/02.SYNC.01 
*PATCH 19Y07M31:  FROM SOURCE 1 TO RECORD 9 
*SOURCE FILE: 19Y07M31
003965  MSMMMOB.49                       V     C        18:17:08:07 18:17:09:22 01:16:40:22 01:16:42:12 
M2      MSMMMOB.49                                025.0 18:17:08:07 
*FROM CLIP NAME:  A022C010_190731_R32C 
*SOURCE FILE: MSMMMOB.49
003966  19Y07M31                         A     C        18:17:08:07 18:17:09:22 01:16:40:22 01:16:42:12 
*FROM CLIP NAME:  16K11/01.SYNC.01 
*A1 VOL = -11.0 DB  PAN R100 
*SOURCE FILE: 19Y07M31
003967  19Y07M31                         A2    C        18:17:08:07 18:17:09:22 01:16:40:22 01:16:42:12 
*FROM CLIP NAME:  16K11/01.SYNC.01 
*A2 VOL = -11.0 DB  PAN L100 
*PATCH 19Y07M31:  FROM SOURCE 3 TO RECORD 2 
*SOURCE FILE: 19Y07M31
003968  19Y07M31                         A3    C        18:17:08:07 18:17:09:22 01:16:40:22 01:16:42:12 
*FROM CLIP NAME:  16K11/01.SYNC.01 
*A3 VOL = -11.0 DB  PAN R100 
*PATCH 19Y07M31:  FROM SOURCE 4 TO RECORD 3 
*SOURCE FILE: 19Y07M31
003969  19Y07M31                         A4    C        18:17:08:07 18:17:09:22 01:16:40:22 01:16:42:12 
*FROM CLIP NAME:  16K11/01.SYNC.01 
*A4 VOL = -11.0 DB  PAN L100 
*PATCH 19Y07M31:  FROM SOURCE 5 TO RECORD 4 
*SOURCE FILE: 19Y07M31
003970  19Y07M31                         A5    C        18:17:08:07 18:17:09:22 01:16:40:22 01:16:42:12 
*FROM CLIP NAME:  16K11/01.SYNC.01 
*A5 VOL = -11.0 DB  PAN R100 
*PATCH 19Y07M31:  FROM SOURCE 6 TO RECORD 5 
*SOURCE FILE: 19Y07M31
003971  19Y07M31                         A6    C        18:17:08:07 18:17:09:22 01:16:40:22 01:16:42:12 
*FROM CLIP NAME:  16K11/01.SYNC.01 
*A6 VOL = -11.0 DB  PAN L100 
*PATCH 19Y07M31:  FROM SOURCE 7 TO RECORD 6 
*SOURCE FILE: 19Y07M31
003972  19Y07M31                         A7    C        18:17:08:07 18:17:09:22 01:16:40:22 01:16:42:12 
*FROM CLIP NAME:  16K11/01.SYNC.01 
*A7 VOL = -11.0 DB  PAN R100 
*PATCH 19Y07M31:  FROM SOURCE 8 TO RECORD 7 
*SOURCE FILE: 19Y07M31
003973  19Y07M31                         A8    C        18:17:08:07 18:17:09:22 01:16:40:22 01:16:42:12 
*FROM CLIP NAME:  16K11/01.SYNC.01 
*A8 VOL = -11.0 DB  PAN L100 
*PATCH 19Y07M31:  FROM SOURCE 1 TO RECORD 8 
*SOURCE FILE: 19Y07M31
003974  MSMMMOB.61                       V     C        19:22:01:15 19:22:02:12 01:16:42:12 01:16:43:09 
M2      MSMMMOB.61                                025.0 19:22:01:15 
*FROM CLIP NAME:  A023C012_190731_R32C 
*SOURCE FILE: MSMMMOB.61
003975  19Y07M31                         A     C        19:22:01:14 19:22:02:11 01:16:42:12 01:16:43:09 
*FROM CLIP NAME:  16K17/03 
*SOURCE FILE: 19Y07M31
003976  MSMMMOB.61                       A2    C        19:22:01:15 19:22:02:12 01:16:42:12 01:16:43:09 
*FROM CLIP NAME:  A023C012_190731_R32C 
*SOURCE FILE: MSMMMOB.61
003977  19Y07M31                         A3    C        19:22:01:14 19:22:02:11 01:16:42:12 01:16:43:09 
*FROM CLIP NAME:  16K17/03 
*SOURCE FILE: 19Y07M31
003978  19Y07M31                         A4    C        19:22:01:14 19:22:02:11 01:16:42:12 01:16:43:09 
*FROM CLIP NAME:  16K17/03 
*SOURCE FILE: 19Y07M31
003979  19Y07M31                         A5    C        14:39:36:14 14:39:37:11 01:16:42:12 01:16:43:09 
*FROM CLIP NAME:  16K2/02 
*PATCH 19Y07M31:  FROM SOURCE 1 TO RECORD 5 
*SOURCE FILE: 19Y07M31
003980  MSMMMOB.51                       A6    C        14:39:36:15 14:39:37:12 01:16:42:12 01:16:43:09 
*FROM CLIP NAME:  A021C007_190731_R32C 
*PATCH MSMMMOB.51:  FROM SOURCE 2 TO RECORD 6 
*SOURCE FILE: MSMMMOB.51
003981  MSMMMOB.55                       V     C        16:22:03:09 16:22:05:10 01:16:43:09 01:16:45:10 
M2      MSMMMOB.55                                025.0 16:22:03:09 
*FROM CLIP NAME:  A021C008_190731_R32C 
*SOURCE FILE: MSMMMOB.55
003982  19Y07M31                         A     C        19:22:04:03 19:22:06:04 01:16:43:09 01:16:45:10 
*FROM CLIP NAME:  16K17/03 
*SOURCE FILE: 19Y07M31
003983  MSMMMOB.61                       A2    C        19:22:04:04 19:22:06:05 01:16:43:09 01:16:45:10 
*FROM CLIP NAME:  A023C012_190731_R32C 
*SOURCE FILE: MSMMMOB.61
003984  19Y07M31                         A3    C        19:22:04:03 19:22:06:04 01:16:43:09 01:16:45:10 
*FROM CLIP NAME:  16K17/03 
*SOURCE FILE: 19Y07M31
003985  19Y07M31                         A4    C        19:22:04:03 19:22:06:04 01:16:43:09 01:16:45:10 
*FROM CLIP NAME:  16K17/03 
*SOURCE FILE: 19Y07M31
003986  MSMMMOB.20                       V     C        18:52:49:16 18:52:54:08 01:16:45:10 01:16:50:02 
M2      MSMMMOB.20                                025.0 18:52:49:16 
*FROM CLIP NAME:  A023C003_190731_R32C 
*SOURCE FILE: MSMMMOB.20
003987  19Y07M31                         A     C        18:52:49:16 18:53:14:21 01:16:45:10 01:17:10:15 
*FROM CLIP NAME:  16K12/02.SYNC.01 
*A1 VOL = -19.4 DB  PAN R100 
*SOURCE FILE: 19Y07M31
003988  19Y07M31                         A2    C        18:52:49:16 18:53:14:21 01:16:45:10 01:17:10:15 
*FROM CLIP NAME:  16K12/02.SYNC.01 
*A2 VOL = -21.1 DB  PAN L100 
*SOURCE FILE: 19Y07M31
003989  19Y07M31                         A3    C        18:52:49:16 18:53:14:21 01:16:45:10 01:17:10:15 
*FROM CLIP NAME:  16K12/02.SYNC.01 
*A3 VOL = -21.1 DB  PAN R100 
*SOURCE FILE: 19Y07M31
003990  19Y07M31                         A4    C        18:52:49:16 18:53:14:21 01:16:45:10 01:17:10:15 
*FROM CLIP NAME:  16K12/02.SYNC.01 
*SOURCE FILE: 19Y07M31
003991  19Y07M31                         A5    C        18:52:49:16 18:53:14:21 01:16:45:10 01:17:10:15 
*FROM CLIP NAME:  16K12/02.SYNC.01 
*SOURCE FILE: 19Y07M31
003992  19Y07M31                         A6    C        18:52:49:16 18:53:14:21 01:16:45:10 01:17:10:15 
*FROM CLIP NAME:  16K12/02.SYNC.01 
*SOURCE FILE: 19Y07M31
003993  19Y07M31                         A7    C        18:52:49:16 18:53:14:21 01:16:45:10 01:17:10:15 
*FROM CLIP NAME:  16K12/02.SYNC.01 
*A7 VOL =  +7.7 DB  PAN R100 
*SOURCE FILE: 19Y07M31
003994  19Y07M31                         A8    C        18:52:49:16 18:53:14:21 01:16:45:10 01:17:10:15 
*FROM CLIP NAME:  16K12/02.SYNC.01 
*SOURCE FILE: 19Y07M31
003995  19Y07M31                         A9    C        18:52:49:16 18:53:14:21 01:16:45:10 01:17:10:15 
*FROM CLIP NAME:  16K12/02.SYNC.01 
*A9 VOL =  +9.1 DB  PAN R100 
*SOURCE FILE: 19Y07M31
003996  19Y07M31                         A10   C        18:52:49:16 18:53:14:21 01:16:45:10 01:17:10:15 
*FROM CLIP NAME:  16K12/02.SYNC.01 
*PATCH 19Y07M31:  FROM SOURCE 1 TO RECORD 10 
*SOURCE FILE: 19Y07M31
003997  MSMMMOB.08                       V     C        18:38:04:00 18:38:07:02 01:16:50:02 01:16:53:04 
M2      MSMMMOB.08                                025.0 18:38:04:00 
*FROM CLIP NAME:  A023C001_190731_R32C 
*SOURCE FILE: MSMMMOB.08
003998  MSMMMOB.20                       V     C        18:52:57:10 18:53:00:09 01:16:53:04 01:16:56:03 
M2      MSMMMOB.20                                025.0 18:52:57:10 
*FROM CLIP NAME:  A023C003_190731_R32C 
*SOURCE FILE: MSMMMOB.20
003999  MSMMMOB.08                       V     C        18:38:08:17 18:38:10:22 01:16:56:03 01:16:58:08 
M2      MSMMMOB.08                                025.0 18:38:08:17 
*FROM CLIP NAME:  A023C001_190731_R32C 
*SOURCE FILE: MSMMMOB.08
004000  MSMMMOB.20                       V     C        18:53:02:14 18:53:07:14 01:16:58:08 01:17:03:08 
M2      MSMMMOB.20                                025.0 18:53:02:14 
*FROM CLIP NAME:  A023C003_190731_R32C 
*SOURCE FILE: MSMMMOB.20
004001  MSMMMOB.08                       V     C        18:38:15:10 18:38:18:04 01:17:03:08 01:17:06:02 
M2      MSMMMOB.08                                025.0 18:38:15:10 
*FROM CLIP NAME:  A023C001_190731_R32C 
*SOURCE FILE: MSMMMOB.08
004002  MSMMMOB.20                       V     C        18:53:10:08 18:53:13:24 01:17:06:02 01:17:09:18 
M2      MSMMMOB.20                                025.0 18:53:10:08 
*FROM CLIP NAME:  A023C003_190731_R32C 
*SOURCE FILE: MSMMMOB.20
004003  MSMMMOB.08                       V     C        18:38:21:03 18:38:25:20 01:17:09:18 01:17:14:10 
M2      MSMMMOB.08                                025.0 18:38:21:03 
*FROM CLIP NAME:  A023C001_190731_R32C 
*SOURCE FILE: MSMMMOB.08
004004  19Y07M31                         A     C        18:38:22:00 18:38:27:08 01:17:10:15 01:17:15:23 
*FROM CLIP NAME:  16K11/04.SYNC.01 
*A1 VOL = -34.7 DB  PAN R100 
*SOURCE FILE: 19Y07M31
004005  19Y07M31                         A2    C        18:38:22:00 18:38:27:08 01:17:10:15 01:17:15:23 
*FROM CLIP NAME:  16K11/04.SYNC.01 
*A2 VOL = -29.1 DB  PAN L100 
*SOURCE FILE: 19Y07M31
004006  19Y07M31                         A3    C        18:38:22:00 18:38:27:08 01:17:10:15 01:17:15:23 
*FROM CLIP NAME:  16K11/04.SYNC.01 
*SOURCE FILE: 19Y07M31
004007  19Y07M31                         A4    C        18:38:22:00 18:38:27:08 01:17:10:15 01:17:15:23 
*FROM CLIP NAME:  16K11/04.SYNC.01 
*SOURCE FILE: 19Y07M31
004008  19Y07M31                         A5    C        18:38:22:00 18:38:27:08 01:17:10:15 01:17:15:23 
*FROM CLIP NAME:  16K11/04.SYNC.01 
*SOURCE FILE: 19Y07M31
004009  19Y07M31                         A6    C        18:38:22:00 18:38:27:08 01:17:10:15 01:17:15:23 
*FROM CLIP NAME:  16K11/04.SYNC.01 
*SOURCE FILE: 19Y07M31
004010  19Y07M31                         A7    C        18:38:22:00 18:38:27:08 01:17:10:15 01:17:15:23 
*FROM CLIP NAME:  16K11/04.SYNC.01 
*SOURCE FILE: 19Y07M31
004011  19Y07M31                         A8    C        18:38:22:00 18:38:27:08 01:17:10:15 01:17:15:23 
*FROM CLIP NAME:  16K11/04.SYNC.01 
*SOURCE FILE: 19Y07M31
004012  19Y07M31                         A9    C        18:38:22:00 18:38:27:08 01:17:10:15 01:17:15:23 
*FROM CLIP NAME:  16K11/04.SYNC.01 
*SOURCE FILE: 19Y07M31
004013  19Y07M31                         A10   C        18:38:22:00 18:38:27:08 01:17:10:15 01:17:15:23 
*FROM CLIP NAME:  16K11/04.SYNC.01 
*PATCH 19Y07M31:  FROM SOURCE 1 TO RECORD 10 
*SOURCE FILE: 19Y07M31
004014  MSMMMOB.20                       V     C        18:53:14:19 18:53:16:07 01:17:14:10 01:17:15:23 
M2      MSMMMOB.20                                025.0 18:53:14:19 
*FROM CLIP NAME:  A023C003_190731_R32C 
*SOURCE FILE: MSMMMOB.20
004015  MSMMMOB.08                       V     C        18:38:29:16 18:38:31:03 01:17:15:23 01:17:17:10 
M2      MSMMMOB.08                                025.0 18:38:29:16 
*FROM CLIP NAME:  A023C001_190731_R32C 
*SOURCE FILE: MSMMMOB.08
004016  19Y07M31                         A     C        18:38:29:16 18:38:31:03 01:17:15:23 01:17:17:10 
*FROM CLIP NAME:  16K11/04.SYNC.01 
*SOURCE FILE: 19Y07M31
004017  19Y07M31                         A2    C        18:38:29:16 18:38:31:03 01:17:15:23 01:17:17:10 
*FROM CLIP NAME:  16K11/04.SYNC.01 
*SOURCE FILE: 19Y07M31
004018  19Y07M31                         A3    C        18:38:29:16 18:38:31:03 01:17:15:23 01:17:17:10 
*FROM CLIP NAME:  16K11/04.SYNC.01 
*SOURCE FILE: 19Y07M31
004019  19Y07M31                         A4    C        18:38:29:16 18:38:31:03 01:17:15:23 01:17:17:10 
*FROM CLIP NAME:  16K11/04.SYNC.01 
*SOURCE FILE: 19Y07M31
004020  19Y07M31                         A5    C        18:38:29:16 18:38:31:03 01:17:15:23 01:17:17:10 
*FROM CLIP NAME:  16K11/04.SYNC.01 
*SOURCE FILE: 19Y07M31
004021  19Y07M31                         A6    C        18:38:29:16 18:38:31:03 01:17:15:23 01:17:17:10 
*FROM CLIP NAME:  16K11/04.SYNC.01 
*SOURCE FILE: 19Y07M31
004022  19Y07M31                         A7    C        18:38:29:16 18:38:31:03 01:17:15:23 01:17:17:10 
*FROM CLIP NAME:  16K11/04.SYNC.01 
*SOURCE FILE: 19Y07M31
004023  19Y07M31                         A8    C        18:38:29:16 18:38:31:03 01:17:15:23 01:17:17:10 
*FROM CLIP NAME:  16K11/04.SYNC.01 
*SOURCE FILE: 19Y07M31
004024  19Y07M31                         A9    C        18:38:29:16 18:38:31:03 01:17:15:23 01:17:17:10 
*FROM CLIP NAME:  16K11/04.SYNC.01 
*SOURCE FILE: 19Y07M31
004025  19Y07M31                         A10   C        18:38:29:16 18:38:31:03 01:17:15:23 01:17:17:10 
*FROM CLIP NAME:  16K11/04.SYNC.01 
*PATCH 19Y07M31:  FROM SOURCE 1 TO RECORD 10 
*SOURCE FILE: 19Y07M31
004026  19Y07M31                         A     C        18:53:17:12 18:53:26:10 01:17:17:10 01:17:26:08 
*FROM CLIP NAME:  16K12/02.SYNC.01 
*A1 VOL = -30.7 DB  PAN R100 
*SOURCE FILE: 19Y07M31
004027  19Y07M31                         A2    C        18:53:17:12 18:53:26:10 01:17:17:10 01:17:26:08 
*FROM CLIP NAME:  16K12/02.SYNC.01 
*A2 VOL = -30.7 DB  PAN L100 
*SOURCE FILE: 19Y07M31
004028  19Y07M31                         A3    C        18:53:17:12 18:53:26:10 01:17:17:10 01:17:26:08 
*FROM CLIP NAME:  16K12/02.SYNC.01 
*SOURCE FILE: 19Y07M31
004029  19Y07M31                         A4    C        18:53:17:12 18:53:26:10 01:17:17:10 01:17:26:08 
*FROM CLIP NAME:  16K12/02.SYNC.01 
*SOURCE FILE: 19Y07M31
004030  19Y07M31                         A5    C        18:53:17:12 18:53:26:10 01:17:17:10 01:17:26:08 
*FROM CLIP NAME:  16K12/02.SYNC.01 
*A5 VOL =  +7.0 DB  PAN R100 
*SOURCE FILE: 19Y07M31
004031  19Y07M31                         A6    C        18:53:17:12 18:53:26:10 01:17:17:10 01:17:26:08 
*FROM CLIP NAME:  16K12/02.SYNC.01 
*SOURCE FILE: 19Y07M31
004032  19Y07M31                         A7    C        18:53:17:12 18:53:26:10 01:17:17:10 01:17:26:08 
*FROM CLIP NAME:  16K12/02.SYNC.01 
*SOURCE FILE: 19Y07M31
004033  19Y07M31                         A8    C        18:53:17:12 18:53:26:10 01:17:17:10 01:17:26:08 
*FROM CLIP NAME:  16K12/02.SYNC.01 
*SOURCE FILE: 19Y07M31
004034  19Y07M31                         A9    C        18:53:17:12 18:53:26:10 01:17:17:10 01:17:26:08 
*FROM CLIP NAME:  16K12/02.SYNC.01 
*SOURCE FILE: 19Y07M31
004035  19Y07M31                         A10   C        18:53:17:12 18:53:26:10 01:17:17:10 01:17:26:08 
*FROM CLIP NAME:  16K12/02.SYNC.01 
*PATCH 19Y07M31:  FROM SOURCE 1 TO RECORD 10 
*SOURCE FILE: 19Y07M31
004036  MSMMMOB.20                       V     C        18:53:17:12 18:53:27:12 01:17:17:10 01:17:27:10 
M2      MSMMMOB.20                                025.0 18:53:17:12 
*FROM CLIP NAME:  A023C003_190731_R32C 
*SOURCE FILE: MSMMMOB.20
004037  19Y07M31                         A     C        18:53:26:24 18:53:27:06 01:17:26:08 01:17:26:15 
*FROM CLIP NAME:  16K12/02.SYNC.01 
*SOURCE FILE: 19Y07M31
004038  19Y07M31                         A2    C        18:53:26:24 18:53:27:06 01:17:26:08 01:17:26:15 
*FROM CLIP NAME:  16K12/02.SYNC.01 
*SOURCE FILE: 19Y07M31
004039  19Y07M31                         A3    C        18:53:26:24 18:53:27:06 01:17:26:08 01:17:26:15 
*FROM CLIP NAME:  16K12/02.SYNC.01 
*SOURCE FILE: 19Y07M31
004040  19Y07M31                         A4    C        18:53:26:24 18:53:27:06 01:17:26:08 01:17:26:15 
*FROM CLIP NAME:  16K12/02.SYNC.01 
*SOURCE FILE: 19Y07M31
004041  19Y07M31                         A5    C        18:53:26:24 18:53:27:06 01:17:26:08 01:17:26:15 
*FROM CLIP NAME:  16K12/02.SYNC.01 
*SOURCE FILE: 19Y07M31
004042  19Y07M31                         A6    C        18:53:26:24 18:53:27:06 01:17:26:08 01:17:26:15 
*FROM CLIP NAME:  16K12/02.SYNC.01 
*SOURCE FILE: 19Y07M31
004043  19Y07M31                         A7    C        18:53:26:24 18:53:27:06 01:17:26:08 01:17:26:15 
*FROM CLIP NAME:  16K12/02.SYNC.01 
*SOURCE FILE: 19Y07M31
004044  19Y07M31                         A8    C        18:53:26:24 18:53:27:06 01:17:26:08 01:17:26:15 
*FROM CLIP NAME:  16K12/02.SYNC.01 
*SOURCE FILE: 19Y07M31
004045  19Y07M31                         A9    C        18:53:26:24 18:53:27:06 01:17:26:08 01:17:26:15 
*FROM CLIP NAME:  16K12/02.SYNC.01 
*SOURCE FILE: 19Y07M31
004046  19Y07M31                         A10   C        18:53:26:24 18:53:27:06 01:17:26:08 01:17:26:15 
*FROM CLIP NAME:  16K12/02.SYNC.01 
*PATCH 19Y07M31:  FROM SOURCE 1 TO RECORD 10 
*SOURCE FILE: 19Y07M31
004047  19Y07M31                         A     C        18:38:37:18 18:38:41:03 01:17:26:15 01:17:30:00 
*FROM CLIP NAME:  16K11/04.SYNC.01 
*SOURCE FILE: 19Y07M31
004048  19Y07M31                         A2    C        18:38:37:18 18:38:41:03 01:17:26:15 01:17:30:00 
*FROM CLIP NAME:  16K11/04.SYNC.01 
*SOURCE FILE: 19Y07M31
004049  19Y07M31                         A3    C        18:38:37:18 18:38:41:03 01:17:26:15 01:17:30:00 
*FROM CLIP NAME:  16K11/04.SYNC.01 
*SOURCE FILE: 19Y07M31
004050  19Y07M31                         A4    C        18:38:37:18 18:38:41:03 01:17:26:15 01:17:30:00 
*FROM CLIP NAME:  16K11/04.SYNC.01 
*SOURCE FILE: 19Y07M31
004051  19Y07M31                         A5    C        18:38:37:18 18:38:41:03 01:17:26:15 01:17:30:00 
*FROM CLIP NAME:  16K11/04.SYNC.01 
*SOURCE FILE: 19Y07M31
004052  19Y07M31                         A6    C        18:38:37:18 18:38:41:03 01:17:26:15 01:17:30:00 
*FROM CLIP NAME:  16K11/04.SYNC.01 
*SOURCE FILE: 19Y07M31
004053  19Y07M31                         A7    C        18:38:37:18 18:38:41:03 01:17:26:15 01:17:30:00 
*FROM CLIP NAME:  16K11/04.SYNC.01 
*SOURCE FILE: 19Y07M31
004054  19Y07M31                         A8    C        18:38:37:18 18:38:41:03 01:17:26:15 01:17:30:00 
*FROM CLIP NAME:  16K11/04.SYNC.01 
*SOURCE FILE: 19Y07M31
004055  19Y07M31                         A9    C        18:38:37:18 18:38:41:03 01:17:26:15 01:17:30:00 
*FROM CLIP NAME:  16K11/04.SYNC.01 
*SOURCE FILE: 19Y07M31
004056  19Y07M31                         A10   C        18:38:37:18 18:38:41:03 01:17:26:15 01:17:30:00 
*FROM CLIP NAME:  16K11/04.SYNC.01 
*A10 VOL =  -0.1 DB  PAN L100 
*PATCH 19Y07M31:  FROM SOURCE 1 TO RECORD 10 
*SOURCE FILE: 19Y07M31
004057  MSMMMOB.08                       V     C        18:38:38:13 18:38:41:03 01:17:27:10 01:17:30:00 
M2      MSMMMOB.08                                025.0 18:38:38:13 
*FROM CLIP NAME:  A023C001_190731_R32C 
*SOURCE FILE: MSMMMOB.08
004058  BL                               A11   C        00:00:00:00 00:00:00:00 01:17:28:10 01:17:28:10 
004058  XCD094_11_1_HANDS_UP_30_SECONDS. A11   D    040 01:00:00:00 01:00:01:15 01:17:28:10 01:17:30:00 
*TO CLIP NAME:  XCD094_11_1 HANDS UP_30 SECONDS.WAV 
*A11 VOL =  -9.0 DB  PAN L100 
*PATCH XCD094_11_1_HANDS_UP_30_SECONDS.:  FROM SOURCE 2 TO RECORD 11 
*SOURCE FILE: (NULL)
004059  BL                               A12   C        00:00:00:00 00:00:00:00 01:17:28:10 01:17:28:10 
004059  XCD094_11_1_HANDS_UP_30_SECONDS. A12   D    040 01:00:00:00 01:00:01:15 01:17:28:10 01:17:30:00 
*TO CLIP NAME:  XCD094_11_1 HANDS UP_30 SECONDS.WAV 
*A12 VOL =  -9.0 DB  PAN R100 
*PATCH XCD094_11_1_HANDS_UP_30_SECONDS.:  FROM SOURCE 1 TO RECORD 12 
*SOURCE FILE: (NULL)
004060  MSMMMOB.29                       V     C        19:00:46:03 19:00:48:11 01:17:30:00 01:17:32:08 
M2      MSMMMOB.29                                025.0 19:00:46:03 
*FROM CLIP NAME:  A023C005_190731_R32C 
*SOURCE FILE: MSMMMOB.29
004061  19Y07M31                         A     C        19:00:46:03 19:00:48:11 01:17:30:00 01:17:32:08 
*FROM CLIP NAME:  16K13/02.SYNC.01 
*SOURCE FILE: 19Y07M31
004062  19Y07M31                         A2    C        19:00:46:03 19:00:48:11 01:17:30:00 01:17:32:08 
*FROM CLIP NAME:  16K13/02.SYNC.01 
*SOURCE FILE: 19Y07M31
004063  19Y07M31                         A3    C        19:00:46:03 19:00:48:11 01:17:30:00 01:17:32:08 
*FROM CLIP NAME:  16K13/02.SYNC.01 
*SOURCE FILE: 19Y07M31
004064  19Y07M31                         A4    C        19:00:46:03 19:00:48:11 01:17:30:00 01:17:32:08 
*FROM CLIP NAME:  16K13/02.SYNC.01 
*SOURCE FILE: 19Y07M31
004065  19Y07M31                         A5    C        19:00:46:03 19:00:48:11 01:17:30:00 01:17:32:08 
*FROM CLIP NAME:  16K13/02.SYNC.01 
*SOURCE FILE: 19Y07M31
004066  19Y07M31                         A6    C        19:00:46:03 19:00:48:11 01:17:30:00 01:17:32:08 
*FROM CLIP NAME:  16K13/02.SYNC.01 
*SOURCE FILE: 19Y07M31
004067  19Y07M31                         A7    C        19:00:46:03 19:00:48:11 01:17:30:00 01:17:32:08 
*FROM CLIP NAME:  16K13/02.SYNC.01 
*SOURCE FILE: 19Y07M31
004068  19Y07M31                         A8    C        19:00:46:03 19:00:48:11 01:17:30:00 01:17:32:08 
*FROM CLIP NAME:  16K13/02.SYNC.01 
*SOURCE FILE: 19Y07M31
004069  19Y07M31                         A9    C        19:00:46:03 19:00:48:11 01:17:30:00 01:17:32:08 
*FROM CLIP NAME:  16K13/02.SYNC.01 
*SOURCE FILE: 19Y07M31
004070  19Y07M31                         A10   C        19:00:46:03 19:00:48:11 01:17:30:00 01:17:32:08 
*FROM CLIP NAME:  16K13/02.SYNC.01 
*PATCH 19Y07M31:  FROM SOURCE 1 TO RECORD 10 
*SOURCE FILE: 19Y07M31
004071  XCD094_11_1_HANDS_UP_30_SECONDS. A11   C        01:00:01:15 01:00:07:05 01:17:30:00 01:17:35:15 
*FROM CLIP NAME:  XCD094_11_1 HANDS UP_30 SECONDS.WAV 
*A11 VOL =  -9.0 DB  PAN L100 
*PATCH XCD094_11_1_HANDS_UP_30_SECONDS.:  FROM SOURCE 2 TO RECORD 11 
*SOURCE FILE: XCD094_11_1 HANDS UP_30 SECONDS.WAV
004072  XCD094_11_1_HANDS_UP_30_SECONDS. A12   C        01:00:01:15 01:00:07:05 01:17:30:00 01:17:35:15 
*FROM CLIP NAME:  XCD094_11_1 HANDS UP_30 SECONDS.WAV 
*A12 VOL =  -9.0 DB  PAN R100 
*PATCH XCD094_11_1_HANDS_UP_30_SECONDS.:  FROM SOURCE 1 TO RECORD 12 
*SOURCE FILE: XCD094_11_1 HANDS UP_30 SECONDS.WAV
004073  MSMMMOB.12                       V     C        17:02:56:24 17:02:59:09 01:17:32:08 01:17:34:18 
M2      MSMMMOB.12                                025.0 17:02:56:24 
*FROM CLIP NAME:  A021C013_190731_R32C 
*SOURCE FILE: MSMMMOB.12
004074  19Y07M31                         A     C        17:02:56:24 17:02:59:09 01:17:32:08 01:17:34:18 
*FROM CLIP NAME:  16K6/01.SYNC.01 
*SOURCE FILE: 19Y07M31
004075  19Y07M31                         A2    C        17:02:56:24 17:02:59:09 01:17:32:08 01:17:34:18 
*FROM CLIP NAME:  16K6/01.SYNC.01 
*SOURCE FILE: 19Y07M31
004076  19Y07M31                         A3    C        17:02:56:24 17:02:59:09 01:17:32:08 01:17:34:18 
*FROM CLIP NAME:  16K6/01.SYNC.01 
*SOURCE FILE: 19Y07M31
004077  19Y07M31                         A4    C        17:02:56:24 17:02:59:09 01:17:32:08 01:17:34:18 
*FROM CLIP NAME:  16K6/01.SYNC.01 
*SOURCE FILE: 19Y07M31
004078  19Y07M31                         A5    C        17:02:56:24 17:02:59:09 01:17:32:08 01:17:34:18 
*FROM CLIP NAME:  16K6/01.SYNC.01 
*SOURCE FILE: 19Y07M31
004079  19Y07M31                         A6    C        17:02:56:24 17:02:59:09 01:17:32:08 01:17:34:18 
*FROM CLIP NAME:  16K6/01.SYNC.01 
*SOURCE FILE: 19Y07M31
004080  19Y07M31                         A7    C        17:02:56:24 17:02:59:09 01:17:32:08 01:17:34:18 
*FROM CLIP NAME:  16K6/01.SYNC.01 
*SOURCE FILE: 19Y07M31
004081  19Y07M31                         A8    C        17:02:56:24 17:02:59:09 01:17:32:08 01:17:34:18 
*FROM CLIP NAME:  16K6/01.SYNC.01 
*SOURCE FILE: 19Y07M31
004082  19Y07M31                         A9    C        17:02:56:24 17:02:59:09 01:17:32:08 01:17:34:18 
*FROM CLIP NAME:  16K6/01.SYNC.01 
*SOURCE FILE: 19Y07M31
004083  19Y07M31                         A10   C        17:02:56:24 17:02:59:09 01:17:32:08 01:17:34:18 
*FROM CLIP NAME:  16K6/01.SYNC.01 
*PATCH 19Y07M31:  FROM SOURCE 1 TO RECORD 10 
*SOURCE FILE: 19Y07M31
004084  MSMMMOB.05                       V     C        19:35:15:02 19:35:16:06 01:17:34:18 01:17:35:22 
M2      MSMMMOB.05                                025.0 19:35:15:02 
*FROM CLIP NAME:  A024C002_190731_R32C 
*SOURCE FILE: MSMMMOB.05
004085  19Y07M31                         A     C        19:35:15:02 19:35:16:06 01:17:34:18 01:17:35:22 
*FROM CLIP NAME:  16K18/04.SYNC.01 
*SOURCE FILE: 19Y07M31
004086  19Y07M31                         A2    C        19:35:15:02 19:35:16:06 01:17:34:18 01:17:35:22 
*FROM CLIP NAME:  16K18/04.SYNC.01 
*SOURCE FILE: 19Y07M31
004087  19Y07M31                         A3    C        19:35:15:02 19:35:16:06 01:17:34:18 01:17:35:22 
*FROM CLIP NAME:  16K18/04.SYNC.01 
*SOURCE FILE: 19Y07M31
004088  19Y07M31                         A4    C        19:35:15:02 19:35:16:06 01:17:34:18 01:17:35:22 
*FROM CLIP NAME:  16K18/04.SYNC.01 
*SOURCE FILE: 19Y07M31
004089  19Y07M31                         A5    C        19:35:15:02 19:35:16:06 01:17:34:18 01:17:35:22 
*FROM CLIP NAME:  16K18/04.SYNC.01 
*SOURCE FILE: 19Y07M31
004090  19Y07M31                         A6    C        19:35:15:02 19:35:16:06 01:17:34:18 01:17:35:22 
*FROM CLIP NAME:  16K18/04.SYNC.01 
*SOURCE FILE: 19Y07M31
004091  19Y07M31                         A7    C        19:35:15:02 19:35:16:06 01:17:34:18 01:17:35:22 
*FROM CLIP NAME:  16K18/04.SYNC.01 
*SOURCE FILE: 19Y07M31
004092  19Y07M31                         A8    C        19:35:15:02 19:35:16:06 01:17:34:18 01:17:35:22 
*FROM CLIP NAME:  16K18/04.SYNC.01 
*SOURCE FILE: 19Y07M31
004093  19Y07M31                         A9    C        19:35:15:02 19:35:16:06 01:17:34:18 01:17:35:22 
*FROM CLIP NAME:  16K18/04.SYNC.01 
*SOURCE FILE: 19Y07M31
004094  19Y07M31                         A10   C        19:35:15:02 19:35:16:06 01:17:34:18 01:17:35:22 
*FROM CLIP NAME:  16K18/04.SYNC.01 
*PATCH 19Y07M31:  FROM SOURCE 1 TO RECORD 10 
*SOURCE FILE: 19Y07M31
004095  XCD094_11_1_HANDS_UP_30_SECONDS. A13   C        01:00:16:18 01:00:20:19 01:17:35:14 01:17:39:15 
*FROM CLIP NAME:  XCD094_11_1 HANDS UP_30 SECONDS.WAV 
*A13 VOL =  -9.0 DB  PAN L100 
*PATCH XCD094_11_1_HANDS_UP_30_SECONDS.:  FROM SOURCE 2 TO RECORD 13 
*SOURCE FILE: XCD094_11_1 HANDS UP_30 SECONDS.WAV
004096  XCD094_11_1_HANDS_UP_30_SECONDS. A14   C        01:00:16:18 01:00:20:19 01:17:35:14 01:17:39:15 
*FROM CLIP NAME:  XCD094_11_1 HANDS UP_30 SECONDS.WAV 
*A14 VOL =  -9.0 DB  PAN R100 
*PATCH XCD094_11_1_HANDS_UP_30_SECONDS.:  FROM SOURCE 1 TO RECORD 14 
*SOURCE FILE: XCD094_11_1 HANDS UP_30 SECONDS.WAV
004097  MSMMMOB.12                       V     C        17:03:06:02 17:03:07:12 01:17:35:22 01:17:37:07 
M2      MSMMMOB.12                                025.0 17:03:06:02 
*FROM CLIP NAME:  A021C013_190731_R32C 
*SOURCE FILE: MSMMMOB.12
004098  19Y07M31                         A     C        17:03:06:02 17:03:07:12 01:17:35:22 01:17:37:07 
*FROM CLIP NAME:  16K6/01.SYNC.01 
*SOURCE FILE: 19Y07M31
004099  19Y07M31                         A2    C        17:03:06:02 17:03:07:12 01:17:35:22 01:17:37:07 
*FROM CLIP NAME:  16K6/01.SYNC.01 
*SOURCE FILE: 19Y07M31
004100  19Y07M31                         A3    C        17:03:06:02 17:03:07:12 01:17:35:22 01:17:37:07 
*FROM CLIP NAME:  16K6/01.SYNC.01 
*SOURCE FILE: 19Y07M31
004101  19Y07M31                         A4    C        17:03:06:02 17:03:07:12 01:17:35:22 01:17:37:07 
*FROM CLIP NAME:  16K6/01.SYNC.01 
*SOURCE FILE: 19Y07M31
004102  19Y07M31                         A5    C        17:03:06:02 17:03:07:12 01:17:35:22 01:17:37:07 
*FROM CLIP NAME:  16K6/01.SYNC.01 
*SOURCE FILE: 19Y07M31
004103  19Y07M31                         A6    C        17:03:06:02 17:03:07:12 01:17:35:22 01:17:37:07 
*FROM CLIP NAME:  16K6/01.SYNC.01 
*SOURCE FILE: 19Y07M31
004104  19Y07M31                         A7    C        17:03:06:02 17:03:07:12 01:17:35:22 01:17:37:07 
*FROM CLIP NAME:  16K6/01.SYNC.01 
*SOURCE FILE: 19Y07M31
004105  19Y07M31                         A8    C        17:03:06:02 17:03:07:12 01:17:35:22 01:17:37:07 
*FROM CLIP NAME:  16K6/01.SYNC.01 
*SOURCE FILE: 19Y07M31
004106  19Y07M31                         A9    C        17:03:06:02 17:03:07:12 01:17:35:22 01:17:37:07 
*FROM CLIP NAME:  16K6/01.SYNC.01 
*SOURCE FILE: 19Y07M31
004107  19Y07M31                         A10   C        17:03:06:02 17:03:07:12 01:17:35:22 01:17:37:07 
*FROM CLIP NAME:  16K6/01.SYNC.01 
*PATCH 19Y07M31:  FROM SOURCE 1 TO RECORD 10 
*SOURCE FILE: 19Y07M31
004108  MSMMMOB.01                       V     C        19:32:14:18 19:32:15:15 01:17:37:07 01:17:38:04 
M2      MSMMMOB.01                                025.0 19:32:14:18 
*FROM CLIP NAME:  A024C001_190731_R32C 
*SOURCE FILE: MSMMMOB.01
004109  19Y07M31                         A     C        19:32:14:18 19:32:15:15 01:17:37:07 01:17:38:04 
*FROM CLIP NAME:  16K18/03.SYNC.01 
*SOURCE FILE: 19Y07M31
004110  19Y07M31                         A2    C        19:32:14:18 19:32:15:15 01:17:37:07 01:17:38:04 
*FROM CLIP NAME:  16K18/03.SYNC.01 
*SOURCE FILE: 19Y07M31
004111  19Y07M31                         A3    C        19:32:14:18 19:32:15:15 01:17:37:07 01:17:38:04 
*FROM CLIP NAME:  16K18/03.SYNC.01 
*SOURCE FILE: 19Y07M31
004112  19Y07M31                         A4    C        19:32:14:18 19:32:15:15 01:17:37:07 01:17:38:04 
*FROM CLIP NAME:  16K18/03.SYNC.01 
*SOURCE FILE: 19Y07M31
004113  19Y07M31                         A5    C        19:32:14:18 19:32:15:15 01:17:37:07 01:17:38:04 
*FROM CLIP NAME:  16K18/03.SYNC.01 
*SOURCE FILE: 19Y07M31
004114  19Y07M31                         A6    C        19:32:14:18 19:32:15:15 01:17:37:07 01:17:38:04 
*FROM CLIP NAME:  16K18/03.SYNC.01 
*SOURCE FILE: 19Y07M31
004115  19Y07M31                         A7    C        19:32:14:18 19:32:15:15 01:17:37:07 01:17:38:04 
*FROM CLIP NAME:  16K18/03.SYNC.01 
*SOURCE FILE: 19Y07M31
004116  19Y07M31                         A8    C        19:32:14:18 19:32:15:15 01:17:37:07 01:17:38:04 
*FROM CLIP NAME:  16K18/03.SYNC.01 
*SOURCE FILE: 19Y07M31
004117  19Y07M31                         A9    C        19:32:14:18 19:32:15:22 01:17:37:07 01:17:38:11 
*FROM CLIP NAME:  16K18/03.SYNC.01 
*SOURCE FILE: 19Y07M31
004118  19Y07M31                         A10   C        19:32:14:18 19:32:15:22 01:17:37:07 01:17:38:11 
*FROM CLIP NAME:  16K18/03.SYNC.01 
*PATCH 19Y07M31:  FROM SOURCE 1 TO RECORD 10 
*SOURCE FILE: 19Y07M31
004119  MSMMMOB.01                       V     C        19:32:20:13 19:32:21:22 01:17:38:04 01:17:39:13 
M2      MSMMMOB.01                                025.0 19:32:20:13 
*FROM CLIP NAME:  A024C001_190731_R32C 
*SOURCE FILE: MSMMMOB.01
004120  19Y07M31                         A     C        19:32:20:13 19:32:21:22 01:17:38:04 01:17:39:13 
*FROM CLIP NAME:  16K18/03.SYNC.01 
*SOURCE FILE: 19Y07M31
004121  19Y07M31                         A2    C        19:32:20:13 19:32:21:22 01:17:38:04 01:17:39:13 
*FROM CLIP NAME:  16K18/03.SYNC.01 
*PATCH 19Y07M31:  FROM SOURCE 3 TO RECORD 2 
*SOURCE FILE: 19Y07M31
004122  19Y07M31                         A3    C        19:32:20:13 19:32:21:22 01:17:38:04 01:17:39:13 
*FROM CLIP NAME:  16K18/03.SYNC.01 
*PATCH 19Y07M31:  FROM SOURCE 4 TO RECORD 3 
*SOURCE FILE: 19Y07M31
004123  19Y07M31                         A4    C        19:32:20:13 19:32:21:22 01:17:38:04 01:17:39:13 
*FROM CLIP NAME:  16K18/03.SYNC.01 
*PATCH 19Y07M31:  FROM SOURCE 5 TO RECORD 4 
*SOURCE FILE: 19Y07M31
004124  19Y07M31                         A5    C        19:32:20:13 19:32:21:22 01:17:38:04 01:17:39:13 
*FROM CLIP NAME:  16K18/03.SYNC.01 
*PATCH 19Y07M31:  FROM SOURCE 6 TO RECORD 5 
*SOURCE FILE: 19Y07M31
004125  19Y07M31                         A6    C        19:32:20:13 19:32:21:22 01:17:38:04 01:17:39:13 
*FROM CLIP NAME:  16K18/03.SYNC.01 
*PATCH 19Y07M31:  FROM SOURCE 8 TO RECORD 6 
*SOURCE FILE: 19Y07M31
004126  19Y07M31                         A7    C        19:32:20:13 19:32:21:22 01:17:38:04 01:17:39:13 
*FROM CLIP NAME:  16K18/03.SYNC.01 
*PATCH 19Y07M31:  FROM SOURCE 9 TO RECORD 7 
*SOURCE FILE: 19Y07M31
004127  19Y07M31                         A8    C        19:32:20:13 19:32:21:22 01:17:38:04 01:17:39:13 
*FROM CLIP NAME:  16K18/03.SYNC.01 
*PATCH 19Y07M31:  FROM SOURCE 1 TO RECORD 8 
*SOURCE FILE: 19Y07M31
004128  XCD094_11_1_HANDS_UP_30_SECONDS. A11   C        01:00:30:05 01:00:31:00 01:17:39:12 01:17:40:07 
*FROM CLIP NAME:  XCD094_11_1 HANDS UP_30 SECONDS.WAV 
*A11 VOL =  -9.0 DB  PAN L100 
*PATCH XCD094_11_1_HANDS_UP_30_SECONDS.:  FROM SOURCE 2 TO RECORD 11 
*SOURCE FILE: XCD094_11_1 HANDS UP_30 SECONDS.WAV
004129  XCD094_11_1_HANDS_UP_30_SECONDS. A12   C        01:00:30:05 01:00:31:00 01:17:39:12 01:17:40:07 
*FROM CLIP NAME:  XCD094_11_1 HANDS UP_30 SECONDS.WAV 
*A12 VOL =  -9.0 DB  PAN R100 
*PATCH XCD094_11_1_HANDS_UP_30_SECONDS.:  FROM SOURCE 1 TO RECORD 12 
*SOURCE FILE: XCD094_11_1 HANDS UP_30 SECONDS.WAV
004130                                   V     C        20:09:48:09 20:09:53:21 01:17:39:13 01:17:45:00 
M2                                                025.0 20:09:48:09 
*FROM CLIP NAME:  A024C006_190731_R32C 
*SOURCE FILE:
004131  19Y07M31                         A     C        20:09:48:09 20:10:00:11 01:17:39:13 01:17:51:15 
*FROM CLIP NAME:  18K1/03 
*A1 VOL = -11.0 DB  PAN R100 
*SOURCE FILE: 19Y07M31
004132  19Y07M31                         A2    C        20:09:48:09 20:10:00:11 01:17:39:13 01:17:51:15 
*FROM CLIP NAME:  18K1/03 
*A2 VOL = -14.0 DB  PAN L100 
*SOURCE FILE: 19Y07M31
004133  19Y07M31                         A3    C        20:09:48:09 20:10:00:11 01:17:39:13 01:17:51:15 
*FROM CLIP NAME:  18K1/03 
*A3 VOL = -11.0 DB  PAN R100 
*SOURCE FILE: 19Y07M31
004134  19Y07M31                         A4    C        20:09:48:09 20:10:00:11 01:17:39:13 01:17:51:15 
*FROM CLIP NAME:  18K1/03 
*A4 VOL = -11.0 DB  PAN L100 
*SOURCE FILE: 19Y07M31
004135  19Y07M31                         A5    C        20:09:48:09 20:10:00:11 01:17:39:13 01:17:51:15 
*FROM CLIP NAME:  18K1/03 
*A5 VOL =  +8.0 DB  PAN R100 
*PATCH 19Y07M31:  FROM SOURCE 7 TO RECORD 5 
*SOURCE FILE: 19Y07M31
004136  19Y07M31                         A6    C        20:09:48:09 20:10:00:11 01:17:39:13 01:17:51:15 
*FROM CLIP NAME:  18K1/03 
*A6 VOL =  +7.3 DB  PAN L100 
*PATCH 19Y07M31:  FROM SOURCE 9 TO RECORD 6 
*SOURCE FILE: 19Y07M31
004137                                   V     C        20:17:04:09 20:17:07:20 01:17:45:00 01:17:48:11 
M2                                                025.0 20:17:04:09 
*FROM CLIP NAME:  A024C008_190731_R32C 
*SOURCE FILE:
004138                                   V     C        20:09:57:07 20:10:00:10 01:17:48:11 01:17:51:14 
M2                                                025.0 20:09:57:07 
*FROM CLIP NAME:  A024C006_190731_R32C 
*SOURCE FILE:
004139                                   V     C        20:18:09:11 20:18:11:14 01:17:51:14 01:17:53:17 
M2                                                025.0 20:18:09:11 
*FROM CLIP NAME:  A024C008_190731_R32C 
*SOURCE FILE:
004140  19Y07M31                         A     C        20:10:00:11 20:10:00:11 01:17:51:15 01:17:51:15 
004140  19Y07M31                         A     D    002 20:18:09:12 20:18:09:14 01:17:51:15 01:17:51:17 
*FROM CLIP NAME:  18K1/03 
*TO CLIP NAME:  18K2/02 
*A1 VOL = -11.0 DB  PAN R100 
*SOURCE FILE: 19Y07M31
004141  19Y07M31                         A2    C        20:10:00:11 20:10:00:11 01:17:51:15 01:17:51:15 
004141  19Y07M31                         A2    D    002 20:18:09:12 20:18:09:14 01:17:51:15 01:17:51:17 
*FROM CLIP NAME:  18K1/03 
*TO CLIP NAME:  18K2/02 
*A2 VOL = -14.0 DB  PAN L100 
*SOURCE FILE: 19Y07M31
004142  19Y07M31                         A3    C        20:10:00:11 20:10:00:11 01:17:51:15 01:17:51:15 
004142  19Y07M31                         A3    D    002 20:18:09:12 20:18:09:14 01:17:51:15 01:17:51:17 
*FROM CLIP NAME:  18K1/03 
*TO CLIP NAME:  18K2/02 
*A3 VOL = -11.0 DB  PAN R100 
*SOURCE FILE: 19Y07M31
004143  19Y07M31                         A4    C        20:10:00:11 20:10:00:11 01:17:51:15 01:17:51:15 
004143  19Y07M31                         A4    D    002 20:18:09:12 20:18:09:14 01:17:51:15 01:17:51:17 
*FROM CLIP NAME:  18K1/03 
*TO CLIP NAME:  18K2/02 
*A4 VOL = -11.0 DB  PAN L100 
*SOURCE FILE: 19Y07M31
004144  19Y07M31                         A5    C        20:10:00:11 20:10:00:11 01:17:51:15 01:17:51:15 
004144  19Y07M31                         A5    D    002 20:18:09:12 20:18:09:14 01:17:51:15 01:17:51:17 
*FROM CLIP NAME:  18K1/03 
*TO CLIP NAME:  18K2/02 
*A5 VOL =  +8.0 DB  PAN R100 
*A5 VOL = -35.5 DB  PAN R100 
*PATCH 19Y07M31:  FROM SOURCE 7 TO RECORD 5 
*PATCH 19Y07M31:  FROM SOURCE 7 TO RECORD 5 
*SOURCE FILE: 19Y07M31
004145  19Y07M31                         A6    C        20:10:00:11 20:10:00:11 01:17:51:15 01:17:51:15 
004145  19Y07M31                         A6    D    002 20:18:09:12 20:18:09:14 01:17:51:15 01:17:51:17 
*FROM CLIP NAME:  18K1/03 
*TO CLIP NAME:  18K2/02 
*A6 VOL =  +7.3 DB  PAN L100 
*PATCH 19Y07M31:  FROM SOURCE 9 TO RECORD 6 
*PATCH 19Y07M31:  FROM SOURCE 9 TO RECORD 6 
*SOURCE FILE: 19Y07M31
004146  19Y07M31                         A     C        20:18:09:14 20:18:11:19 01:17:51:17 01:17:53:22 
*FROM CLIP NAME:  18K2/02 
*SOURCE FILE: 19Y07M31
004147  19Y07M31                         A2    C        20:18:09:14 20:18:11:19 01:17:51:17 01:17:53:22 
*FROM CLIP NAME:  18K2/02 
*SOURCE FILE: 19Y07M31
004148  19Y07M31                         A3    C        20:18:09:14 20:18:11:19 01:17:51:17 01:17:53:22 
*FROM CLIP NAME:  18K2/02 
*SOURCE FILE: 19Y07M31
004149  19Y07M31                         A4    C        20:18:09:14 20:18:11:19 01:17:51:17 01:17:53:22 
*FROM CLIP NAME:  18K2/02 
*SOURCE FILE: 19Y07M31
004150  19Y07M31                         A5    C        20:18:09:14 20:18:11:19 01:17:51:17 01:17:53:22 
*FROM CLIP NAME:  18K2/02 
*A5 VOL = -35.5 DB  PAN R100 
*PATCH 19Y07M31:  FROM SOURCE 7 TO RECORD 5 
*SOURCE FILE: 19Y07M31
004151  19Y07M31                         A6    C        20:18:09:14 20:18:11:19 01:17:51:17 01:17:53:22 
*FROM CLIP NAME:  18K2/02 
*PATCH 19Y07M31:  FROM SOURCE 9 TO RECORD 6 
*SOURCE FILE: 19Y07M31
004152                                   V     C        20:10:03:14 20:10:06:05 01:17:53:17 01:17:56:08 
M2                                                025.0 20:10:03:14 
*FROM CLIP NAME:  A024C006_190731_R32C 
*SOURCE FILE:
004153  19Y07M31                         A     C        20:18:11:19 20:18:11:19 01:17:53:22 01:17:53:22 
004153  19Y07M31                         A     D    002 20:10:03:19 20:10:03:21 01:17:53:22 01:17:53:24 
*FROM CLIP NAME:  18K2/02 
*TO CLIP NAME:  18K1/03 
*A1 VOL = -18.6 DB  PAN R100 
*SOURCE FILE: 19Y07M31
004154  19Y07M31                         A2    C        20:18:11:19 20:18:11:19 01:17:53:22 01:17:53:22 
004154  19Y07M31                         A2    D    002 20:10:03:19 20:10:03:21 01:17:53:22 01:17:53:24 
*FROM CLIP NAME:  18K2/02 
*TO CLIP NAME:  18K1/03 
*A2 VOL = -14.0 DB  PAN L100 
*SOURCE FILE: 19Y07M31
004155  19Y07M31                         A3    C        20:18:11:19 20:18:11:19 01:17:53:22 01:17:53:22 
004155  19Y07M31                         A3    D    002 20:10:03:19 20:10:03:21 01:17:53:22 01:17:53:24 
*FROM CLIP NAME:  18K2/02 
*TO CLIP NAME:  18K1/03 
*SOURCE FILE: 19Y07M31
004156  19Y07M31                         A4    C        20:18:11:19 20:18:11:19 01:17:53:22 01:17:53:22 
004156  19Y07M31                         A4    D    002 20:10:03:19 20:10:03:21 01:17:53:22 01:17:53:24 
*FROM CLIP NAME:  18K2/02 
*TO CLIP NAME:  18K1/03 
*SOURCE FILE: 19Y07M31
004157  19Y07M31                         A5    C        20:18:11:19 20:18:11:19 01:17:53:22 01:17:53:22 
004157  19Y07M31                         A5    D    002 20:10:03:19 20:10:03:21 01:17:53:22 01:17:53:24 
*FROM CLIP NAME:  18K2/02 
*TO CLIP NAME:  18K1/03 
*A5 VOL = -35.5 DB  PAN R100 
*A5 VOL =  +8.0 DB  PAN R100 
*PATCH 19Y07M31:  FROM SOURCE 7 TO RECORD 5 
*PATCH 19Y07M31:  FROM SOURCE 7 TO RECORD 5 
*SOURCE FILE: 19Y07M31
004158  19Y07M31                         A6    C        20:18:11:19 20:18:11:19 01:17:53:22 01:17:53:22 
004158  19Y07M31                         A6    D    002 20:10:03:19 20:10:03:21 01:17:53:22 01:17:53:24 
*FROM CLIP NAME:  18K2/02 
*TO CLIP NAME:  18K1/03 
*PATCH 19Y07M31:  FROM SOURCE 9 TO RECORD 6 
*PATCH 19Y07M31:  FROM SOURCE 9 TO RECORD 6 
*SOURCE FILE: 19Y07M31
004159  19Y07M31                         A     C        20:10:03:21 20:10:06:07 01:17:53:24 01:17:56:10 
*FROM CLIP NAME:  18K1/03 
*A1 VOL = -18.6 DB  PAN R100 
*SOURCE FILE: 19Y07M31
004160  19Y07M31                         A2    C        20:10:03:21 20:10:06:07 01:17:53:24 01:17:56:10 
*FROM CLIP NAME:  18K1/03 
*A2 VOL = -14.0 DB  PAN L100 
*SOURCE FILE: 19Y07M31
004161  19Y07M31                         A3    C        20:10:03:21 20:10:06:07 01:17:53:24 01:17:56:10 
*FROM CLIP NAME:  18K1/03 
*SOURCE FILE: 19Y07M31
004162  19Y07M31                         A4    C        20:10:03:21 20:10:06:07 01:17:53:24 01:17:56:10 
*FROM CLIP NAME:  18K1/03 
*SOURCE FILE: 19Y07M31
004163  19Y07M31                         A5    C        20:10:03:21 20:10:06:07 01:17:53:24 01:17:56:10 
*FROM CLIP NAME:  18K1/03 
*A5 VOL =  +8.0 DB  PAN R100 
*PATCH 19Y07M31:  FROM SOURCE 7 TO RECORD 5 
*SOURCE FILE: 19Y07M31
004164  19Y07M31                         A6    C        20:10:03:21 20:10:06:07 01:17:53:24 01:17:56:10 
*FROM CLIP NAME:  18K1/03 
*PATCH 19Y07M31:  FROM SOURCE 9 TO RECORD 6 
*SOURCE FILE: 19Y07M31
004165                                   V     C        20:18:14:20 20:18:18:05 01:17:56:08 01:17:59:18 
M2                                                025.0 20:18:14:20 
*FROM CLIP NAME:  A024C008_190731_R32C 
*SOURCE FILE:
004166  19Y07M31                         A     C        20:10:06:07 20:10:06:07 01:17:56:10 01:17:56:10 
004166  19Y07M31                         A     D    002 20:18:14:22 20:18:14:24 01:17:56:10 01:17:56:12 
*FROM CLIP NAME:  18K1/03 
*TO CLIP NAME:  18K2/02 
*A1 VOL = -18.6 DB  PAN R100 
*A1 VOL = -25.2 DB  PAN R100 
*SOURCE FILE: 19Y07M31
004167  19Y07M31                         A2    C        20:10:06:07 20:10:06:07 01:17:56:10 01:17:56:10 
004167  19Y07M31                         A2    D    002 20:18:14:22 20:18:14:24 01:17:56:10 01:17:56:12 
*FROM CLIP NAME:  18K1/03 
*TO CLIP NAME:  18K2/02 
*A2 VOL = -14.0 DB  PAN L100 
*A2 VOL = -27.5 DB  PAN L100 
*SOURCE FILE: 19Y07M31
004168  19Y07M31                         A3    C        20:10:06:07 20:10:06:07 01:17:56:10 01:17:56:10 
004168  19Y07M31                         A3    D    002 20:18:14:22 20:18:14:24 01:17:56:10 01:17:56:12 
*FROM CLIP NAME:  18K1/03 
*TO CLIP NAME:  18K2/02 
*SOURCE FILE: 19Y07M31
004169  19Y07M31                         A4    C        20:10:06:07 20:10:06:07 01:17:56:10 01:17:56:10 
004169  19Y07M31                         A4    D    002 20:18:14:22 20:18:14:24 01:17:56:10 01:17:56:12 
*FROM CLIP NAME:  18K1/03 
*TO CLIP NAME:  18K2/02 
*SOURCE FILE: 19Y07M31
004170  19Y07M31                         A5    C        20:10:06:07 20:10:06:07 01:17:56:10 01:17:56:10 
004170  19Y07M31                         A5    D    002 20:18:14:22 20:18:14:24 01:17:56:10 01:17:56:12 
*FROM CLIP NAME:  18K1/03 
*TO CLIP NAME:  18K2/02 
*A5 VOL =  +8.0 DB  PAN R100 
*PATCH 19Y07M31:  FROM SOURCE 7 TO RECORD 5 
*PATCH 19Y07M31:  FROM SOURCE 7 TO RECORD 5 
*SOURCE FILE: 19Y07M31
004171  19Y07M31                         A6    C        20:10:06:07 20:10:06:07 01:17:56:10 01:17:56:10 
004171  19Y07M31                         A6    D    002 20:18:14:22 20:18:14:24 01:17:56:10 01:17:56:12 
*FROM CLIP NAME:  18K1/03 
*TO CLIP NAME:  18K2/02 
*PATCH 19Y07M31:  FROM SOURCE 9 TO RECORD 6 
*PATCH 19Y07M31:  FROM SOURCE 9 TO RECORD 6 
*SOURCE FILE: 19Y07M31
004172  19Y07M31                         A     C        20:18:14:24 20:18:18:06 01:17:56:12 01:17:59:19 
*FROM CLIP NAME:  18K2/02 
*A1 VOL = -25.2 DB  PAN R100 
*SOURCE FILE: 19Y07M31
004173  19Y07M31                         A2    C        20:18:14:24 20:18:18:06 01:17:56:12 01:17:59:19 
*FROM CLIP NAME:  18K2/02 
*A2 VOL = -27.5 DB  PAN L100 
*SOURCE FILE: 19Y07M31
004174  19Y07M31                         A3    C        20:18:14:24 20:18:18:06 01:17:56:12 01:17:59:19 
*FROM CLIP NAME:  18K2/02 
*SOURCE FILE: 19Y07M31
004175  19Y07M31                         A4    C        20:18:14:24 20:18:18:06 01:17:56:12 01:17:59:19 
*FROM CLIP NAME:  18K2/02 
*SOURCE FILE: 19Y07M31
004176  19Y07M31                         A5    C        20:18:14:24 20:18:18:06 01:17:56:12 01:17:59:19 
*FROM CLIP NAME:  18K2/02 
*PATCH 19Y07M31:  FROM SOURCE 7 TO RECORD 5 
*SOURCE FILE: 19Y07M31
004177  19Y07M31                         A6    C        20:18:14:24 20:18:18:06 01:17:56:12 01:17:59:19 
*FROM CLIP NAME:  18K2/02 
*PATCH 19Y07M31:  FROM SOURCE 9 TO RECORD 6 
*SOURCE FILE: 19Y07M31
004178                                   V     C        20:10:09:11 20:10:14:13 01:17:59:18 01:18:04:20 
M2                                                025.0 20:10:09:11 
*FROM CLIP NAME:  A024C006_190731_R32C 
*SOURCE FILE:
004179  19Y07M31                         A     C        20:18:18:06 20:18:18:06 01:17:59:19 01:17:59:19 
004179  19Y07M31                         A     D    002 20:10:09:12 20:10:09:14 01:17:59:19 01:17:59:21 
*FROM CLIP NAME:  18K2/02 
*TO CLIP NAME:  18K1/03 
*A1 VOL = -25.2 DB  PAN R100 
*A1 VOL = -24.4 DB  PAN R100 
*SOURCE FILE: 19Y07M31
004180  19Y07M31                         A2    C        20:18:18:06 20:18:18:06 01:17:59:19 01:17:59:19 
004180  19Y07M31                         A2    D    002 20:10:09:12 20:10:09:14 01:17:59:19 01:17:59:21 
*FROM CLIP NAME:  18K2/02 
*TO CLIP NAME:  18K1/03 
*A2 VOL = -27.5 DB  PAN L100 
*A2 VOL = -22.1 DB  PAN L100 
*SOURCE FILE: 19Y07M31
004181  19Y07M31                         A3    C        20:18:18:06 20:18:18:06 01:17:59:19 01:17:59:19 
004181  19Y07M31                         A3    D    002 20:10:09:12 20:10:09:14 01:17:59:19 01:17:59:21 
*FROM CLIP NAME:  18K2/02 
*TO CLIP NAME:  18K1/03 
*SOURCE FILE: 19Y07M31
004182  19Y07M31                         A4    C        20:18:18:06 20:18:18:06 01:17:59:19 01:17:59:19 
004182  19Y07M31                         A4    D    002 20:10:09:12 20:10:09:14 01:17:59:19 01:17:59:21 
*FROM CLIP NAME:  18K2/02 
*TO CLIP NAME:  18K1/03 
*SOURCE FILE: 19Y07M31
004183  19Y07M31                         A5    C        20:18:18:06 20:18:18:06 01:17:59:19 01:17:59:19 
004183  19Y07M31                         A5    D    002 20:10:09:12 20:10:09:14 01:17:59:19 01:17:59:21 
*FROM CLIP NAME:  18K2/02 
*TO CLIP NAME:  18K1/03 
*A5 VOL =  +8.0 DB  PAN R100 
*PATCH 19Y07M31:  FROM SOURCE 7 TO RECORD 5 
*PATCH 19Y07M31:  FROM SOURCE 7 TO RECORD 5 
*SOURCE FILE: 19Y07M31
004184  19Y07M31                         A6    C        20:18:18:06 20:18:18:06 01:17:59:19 01:17:59:19 
004184  19Y07M31                         A6    D    002 20:10:09:12 20:10:09:14 01:17:59:19 01:17:59:21 
*FROM CLIP NAME:  18K2/02 
*TO CLIP NAME:  18K1/03 
*A6 VOL =  +8.0 DB  PAN L100 
*PATCH 19Y07M31:  FROM SOURCE 9 TO RECORD 6 
*PATCH 19Y07M31:  FROM SOURCE 9 TO RECORD 6 
*SOURCE FILE: 19Y07M31
004185  19Y07M31                         A     C        20:10:09:14 20:10:14:12 01:17:59:21 01:18:04:19 
*FROM CLIP NAME:  18K1/03 
*A1 VOL = -24.4 DB  PAN R100 
*SOURCE FILE: 19Y07M31
004186  19Y07M31                         A2    C        20:10:09:14 20:10:14:12 01:17:59:21 01:18:04:19 
*FROM CLIP NAME:  18K1/03 
*A2 VOL = -22.1 DB  PAN L100 
*SOURCE FILE: 19Y07M31
004187  19Y07M31                         A3    C        20:10:09:14 20:10:14:12 01:17:59:21 01:18:04:19 
*FROM CLIP NAME:  18K1/03 
*SOURCE FILE: 19Y07M31
004188  19Y07M31                         A4    C        20:10:09:14 20:10:14:12 01:17:59:21 01:18:04:19 
*FROM CLIP NAME:  18K1/03 
*SOURCE FILE: 19Y07M31
004189  19Y07M31                         A5    C        20:10:09:14 20:10:14:12 01:17:59:21 01:18:04:19 
*FROM CLIP NAME:  18K1/03 
*A5 VOL =  +8.0 DB  PAN R100 
*PATCH 19Y07M31:  FROM SOURCE 7 TO RECORD 5 
*SOURCE FILE: 19Y07M31
004190  19Y07M31                         A6    C        20:10:09:14 20:10:14:12 01:17:59:21 01:18:04:19 
*FROM CLIP NAME:  18K1/03 
*A6 VOL =  +8.0 DB  PAN L100 
*PATCH 19Y07M31:  FROM SOURCE 9 TO RECORD 6 
*SOURCE FILE: 19Y07M31
004191  19Y07M31                         A     C        20:10:14:12 20:10:14:12 01:18:04:19 01:18:04:19 
004191  19Y07M31                         A     D    002 20:16:15:02 20:16:15:04 01:18:04:19 01:18:04:21 
*FROM CLIP NAME:  18K1/03 
*TO CLIP NAME:  18K2/01 
*A1 VOL = -24.4 DB  PAN R100 
*A1 VOL = -14.0 DB  PAN R100 
*SOURCE FILE: 19Y07M31
004192  19Y07M31                         A2    C        20:10:14:12 20:10:14:12 01:18:04:19 01:18:04:19 
004192  19Y07M31                         A2    D    002 20:16:15:02 20:16:15:04 01:18:04:19 01:18:04:21 
*FROM CLIP NAME:  18K1/03 
*TO CLIP NAME:  18K2/01 
*A2 VOL = -22.1 DB  PAN L100 
*A2 VOL = -17.8 DB  PAN L100 
*SOURCE FILE: 19Y07M31
004193  19Y07M31                         A3    C        20:10:14:12 20:10:14:12 01:18:04:19 01:18:04:19 
004193  19Y07M31                         A3    D    002 20:16:15:02 20:16:15:04 01:18:04:19 01:18:04:21 
*FROM CLIP NAME:  18K1/03 
*TO CLIP NAME:  18K2/01 
*SOURCE FILE: 19Y07M31
004194  19Y07M31                         A4    C        20:10:14:12 20:10:14:12 01:18:04:19 01:18:04:19 
004194  19Y07M31                         A4    D    002 20:16:15:02 20:16:15:04 01:18:04:19 01:18:04:21 
*FROM CLIP NAME:  18K1/03 
*TO CLIP NAME:  18K2/01 
*SOURCE FILE: 19Y07M31
004195  19Y07M31                         A5    C        20:10:14:12 20:10:14:12 01:18:04:19 01:18:04:19 
004195  19Y07M31                         A5    D    002 20:16:15:02 20:16:15:04 01:18:04:19 01:18:04:21 
*FROM CLIP NAME:  18K1/03 
*TO CLIP NAME:  18K2/01 
*A5 VOL =  +8.0 DB  PAN R100 
*PATCH 19Y07M31:  FROM SOURCE 7 TO RECORD 5 
*PATCH 19Y07M31:  FROM SOURCE 7 TO RECORD 5 
*SOURCE FILE: 19Y07M31
004196  19Y07M31                         A6    C        20:10:14:12 20:10:14:12 01:18:04:19 01:18:04:19 
004196  19Y07M31                         A6    D    002 20:16:15:02 20:16:15:04 01:18:04:19 01:18:04:21 
*FROM CLIP NAME:  18K1/03 
*TO CLIP NAME:  18K2/01 
*A6 VOL =  +8.0 DB  PAN L100 
*A6 VOL =  +7.7 DB  PAN L100 
*PATCH 19Y07M31:  FROM SOURCE 9 TO RECORD 6 
*PATCH 19Y07M31:  FROM SOURCE 9 TO RECORD 6 
*SOURCE FILE: 19Y07M31
004197                                   V     C        20:16:15:03 20:16:18:06 01:18:04:20 01:18:07:23 
M2                                                025.0 20:16:15:03 
*FROM CLIP NAME:  A024C007_190731_R32C 
*SOURCE FILE:
004198  19Y07M31                         A     C        20:16:15:04 20:16:18:08 01:18:04:21 01:18:08:00 
*FROM CLIP NAME:  18K2/01 
*A1 VOL = -14.0 DB  PAN R100 
*SOURCE FILE: 19Y07M31
004199  19Y07M31                         A2    C        20:16:15:04 20:16:18:08 01:18:04:21 01:18:08:00 
*FROM CLIP NAME:  18K2/01 
*A2 VOL = -17.8 DB  PAN L100 
*SOURCE FILE: 19Y07M31
004200  19Y07M31                         A3    C        20:16:15:04 20:16:18:08 01:18:04:21 01:18:08:00 
*FROM CLIP NAME:  18K2/01 
*SOURCE FILE: 19Y07M31
004201  19Y07M31                         A4    C        20:16:15:04 20:16:18:08 01:18:04:21 01:18:08:00 
*FROM CLIP NAME:  18K2/01 
*SOURCE FILE: 19Y07M31
004202  19Y07M31                         A5    C        20:16:15:04 20:16:18:08 01:18:04:21 01:18:08:00 
*FROM CLIP NAME:  18K2/01 
*PATCH 19Y07M31:  FROM SOURCE 7 TO RECORD 5 
*SOURCE FILE: 19Y07M31
004203  19Y07M31                         A6    C        20:16:15:04 20:16:18:08 01:18:04:21 01:18:08:00 
*FROM CLIP NAME:  18K2/01 
*A6 VOL =  +7.7 DB  PAN L100 
*PATCH 19Y07M31:  FROM SOURCE 9 TO RECORD 6 
*SOURCE FILE: 19Y07M31
004204                                   V     C        20:10:17:02 20:10:18:16 01:18:07:23 01:18:09:12 
M2                                                025.0 20:10:17:02 
*FROM CLIP NAME:  A024C006_190731_R32C 
*SOURCE FILE:
004205  19Y07M31                         A     C        20:16:18:08 20:16:18:08 01:18:08:00 01:18:08:00 
004205  19Y07M31                         A     D    002 20:18:27:24 20:18:28:01 01:18:08:00 01:18:08:02 
*FROM CLIP NAME:  18K2/01 
*TO CLIP NAME:  18K2/02 
*A1 VOL = -14.0 DB  PAN R100 
*SOURCE FILE: 19Y07M31
004206  19Y07M31                         A2    C        20:16:18:08 20:16:18:08 01:18:08:00 01:18:08:00 
004206  19Y07M31                         A2    D    002 20:18:27:24 20:18:28:01 01:18:08:00 01:18:08:02 
*FROM CLIP NAME:  18K2/01 
*TO CLIP NAME:  18K2/02 
*A2 VOL = -17.8 DB  PAN L100 
*SOURCE FILE: 19Y07M31
004207  19Y07M31                         A3    C        20:16:18:08 20:16:18:08 01:18:08:00 01:18:08:00 
004207  19Y07M31                         A3    D    002 20:18:27:24 20:18:28:01 01:18:08:00 01:18:08:02 
*FROM CLIP NAME:  18K2/01 
*TO CLIP NAME:  18K2/02 
*SOURCE FILE: 19Y07M31
004208  19Y07M31                         A4    C        20:16:18:08 20:16:18:08 01:18:08:00 01:18:08:00 
004208  19Y07M31                         A4    D    002 20:18:27:24 20:18:28:01 01:18:08:00 01:18:08:02 
*FROM CLIP NAME:  18K2/01 
*TO CLIP NAME:  18K2/02 
*SOURCE FILE: 19Y07M31
004209  19Y07M31                         A5    C        20:16:18:08 20:16:18:08 01:18:08:00 01:18:08:00 
004209  19Y07M31                         A5    D    002 20:18:27:24 20:18:28:01 01:18:08:00 01:18:08:02 
*FROM CLIP NAME:  18K2/01 
*TO CLIP NAME:  18K2/02 
*PATCH 19Y07M31:  FROM SOURCE 7 TO RECORD 5 
*PATCH 19Y07M31:  FROM SOURCE 7 TO RECORD 5 
*SOURCE FILE: 19Y07M31
004210  19Y07M31                         A6    C        20:16:18:08 20:16:18:08 01:18:08:00 01:18:08:00 
004210  19Y07M31                         A6    D    002 20:18:27:24 20:18:28:01 01:18:08:00 01:18:08:02 
*FROM CLIP NAME:  18K2/01 
*TO CLIP NAME:  18K2/02 
*A6 VOL =  +7.7 DB  PAN L100 
*PATCH 19Y07M31:  FROM SOURCE 9 TO RECORD 6 
*PATCH 19Y07M31:  FROM SOURCE 9 TO RECORD 6 
*SOURCE FILE: 19Y07M31
004211  19Y07M31                         A     C        20:18:28:01 20:18:28:09 01:18:08:02 01:18:08:10 
*FROM CLIP NAME:  18K2/02 
*SOURCE FILE: 19Y07M31
004212  19Y07M31                         A2    C        20:18:28:01 20:18:28:09 01:18:08:02 01:18:08:10 
*FROM CLIP NAME:  18K2/02 
*SOURCE FILE: 19Y07M31
004213  19Y07M31                         A3    C        20:18:28:01 20:18:28:09 01:18:08:02 01:18:08:10 
*FROM CLIP NAME:  18K2/02 
*SOURCE FILE: 19Y07M31
004214  19Y07M31                         A4    C        20:18:28:01 20:18:28:09 01:18:08:02 01:18:08:10 
*FROM CLIP NAME:  18K2/02 
*SOURCE FILE: 19Y07M31
004215  19Y07M31                         A5    C        20:18:28:01 20:18:28:09 01:18:08:02 01:18:08:10 
*FROM CLIP NAME:  18K2/02 
*PATCH 19Y07M31:  FROM SOURCE 7 TO RECORD 5 
*SOURCE FILE: 19Y07M31
004216  19Y07M31                         A6    C        20:18:28:01 20:18:28:09 01:18:08:02 01:18:08:10 
*FROM CLIP NAME:  18K2/02 
*PATCH 19Y07M31:  FROM SOURCE 9 TO RECORD 6 
*SOURCE FILE: 19Y07M31
004217  19Y07M31                         A     C        20:18:28:09 20:18:28:09 01:18:08:10 01:18:08:10 
004217  19Y07M31                         A     D    002 20:10:17:14 20:10:17:16 01:18:08:10 01:18:08:12 
*FROM CLIP NAME:  18K2/02 
*TO CLIP NAME:  18K1/03 
*SOURCE FILE: 19Y07M31
004218  19Y07M31                         A2    C        20:18:28:09 20:18:28:09 01:18:08:10 01:18:08:10 
004218  19Y07M31                         A2    D    002 20:10:17:14 20:10:17:16 01:18:08:10 01:18:08:12 
*FROM CLIP NAME:  18K2/02 
*TO CLIP NAME:  18K1/03 
*SOURCE FILE: 19Y07M31
004219  19Y07M31                         A3    C        20:18:28:09 20:18:28:09 01:18:08:10 01:18:08:10 
004219  19Y07M31                         A3    D    002 20:10:17:14 20:10:17:16 01:18:08:10 01:18:08:12 
*FROM CLIP NAME:  18K2/02 
*TO CLIP NAME:  18K1/03 
*SOURCE FILE: 19Y07M31
004220  19Y07M31                         A4    C        20:18:28:09 20:18:28:09 01:18:08:10 01:18:08:10 
004220  19Y07M31                         A4    D    002 20:10:17:14 20:10:17:16 01:18:08:10 01:18:08:12 
*FROM CLIP NAME:  18K2/02 
*TO CLIP NAME:  18K1/03 
*SOURCE FILE: 19Y07M31
004221  19Y07M31                         A5    C        20:18:28:09 20:18:28:09 01:18:08:10 01:18:08:10 
004221  19Y07M31                         A5    D    002 20:10:17:14 20:10:17:16 01:18:08:10 01:18:08:12 
*FROM CLIP NAME:  18K2/02 
*TO CLIP NAME:  18K1/03 
*PATCH 19Y07M31:  FROM SOURCE 7 TO RECORD 5 
*PATCH 19Y07M31:  FROM SOURCE 7 TO RECORD 5 
*SOURCE FILE: 19Y07M31
004222  19Y07M31                         A6    C        20:18:28:09 20:18:28:09 01:18:08:10 01:18:08:10 
004222  19Y07M31                         A6    D    002 20:10:17:14 20:10:17:16 01:18:08:10 01:18:08:12 
*FROM CLIP NAME:  18K2/02 
*TO CLIP NAME:  18K1/03 
*PATCH 19Y07M31:  FROM SOURCE 9 TO RECORD 6 
*PATCH 19Y07M31:  FROM SOURCE 9 TO RECORD 6 
*SOURCE FILE: 19Y07M31
004223  19Y07M31                         A     C        20:10:17:16 20:10:18:15 01:18:08:12 01:18:09:11 
*FROM CLIP NAME:  18K1/03 
*SOURCE FILE: 19Y07M31
004224  19Y07M31                         A2    C        20:10:17:16 20:10:18:15 01:18:08:12 01:18:09:11 
*FROM CLIP NAME:  18K1/03 
*SOURCE FILE: 19Y07M31
004225  19Y07M31                         A3    C        20:10:17:16 20:10:18:15 01:18:08:12 01:18:09:11 
*FROM CLIP NAME:  18K1/03 
*SOURCE FILE: 19Y07M31
004226  19Y07M31                         A4    C        20:10:17:16 20:10:18:15 01:18:08:12 01:18:09:11 
*FROM CLIP NAME:  18K1/03 
*SOURCE FILE: 19Y07M31
004227  19Y07M31                         A5    C        20:10:17:16 20:10:18:15 01:18:08:12 01:18:09:11 
*FROM CLIP NAME:  18K1/03 
*PATCH 19Y07M31:  FROM SOURCE 7 TO RECORD 5 
*SOURCE FILE: 19Y07M31
004228  19Y07M31                         A6    C        20:10:17:16 20:10:18:15 01:18:08:12 01:18:09:11 
*FROM CLIP NAME:  18K1/03 
*PATCH 19Y07M31:  FROM SOURCE 9 TO RECORD 6 
*SOURCE FILE: 19Y07M31
004229  19Y07M31                         A     C        20:10:18:15 20:10:18:15 01:18:09:11 01:18:09:11 
004229  19Y07M31                         A     D    002 20:18:29:12 20:18:29:14 01:18:09:11 01:18:09:13 
*FROM CLIP NAME:  18K1/03 
*TO CLIP NAME:  18K2/02 
*SOURCE FILE: 19Y07M31
004230  19Y07M31                         A2    C        20:10:18:15 20:10:18:15 01:18:09:11 01:18:09:11 
004230  19Y07M31                         A2    D    002 20:18:29:12 20:18:29:14 01:18:09:11 01:18:09:13 
*FROM CLIP NAME:  18K1/03 
*TO CLIP NAME:  18K2/02 
*SOURCE FILE: 19Y07M31
004231  19Y07M31                         A3    C        20:10:18:15 20:10:18:15 01:18:09:11 01:18:09:11 
004231  19Y07M31                         A3    D    002 20:18:29:12 20:18:29:14 01:18:09:11 01:18:09:13 
*FROM CLIP NAME:  18K1/03 
*TO CLIP NAME:  18K2/02 
*SOURCE FILE: 19Y07M31
004232  19Y07M31                         A4    C        20:10:18:15 20:10:18:15 01:18:09:11 01:18:09:11 
004232  19Y07M31                         A4    D    002 20:18:29:12 20:18:29:14 01:18:09:11 01:18:09:13 
*FROM CLIP NAME:  18K1/03 
*TO CLIP NAME:  18K2/02 
*SOURCE FILE: 19Y07M31
004233  19Y07M31                         A5    C        20:10:18:15 20:10:18:15 01:18:09:11 01:18:09:11 
004233  19Y07M31                         A5    D    002 20:18:29:12 20:18:29:14 01:18:09:11 01:18:09:13 
*FROM CLIP NAME:  18K1/03 
*TO CLIP NAME:  18K2/02 
*PATCH 19Y07M31:  FROM SOURCE 7 TO RECORD 5 
*PATCH 19Y07M31:  FROM SOURCE 7 TO RECORD 5 
*SOURCE FILE: 19Y07M31
004234  19Y07M31                         A6    C        20:10:18:15 20:10:18:15 01:18:09:11 01:18:09:11 
004234  19Y07M31                         A6    D    002 20:18:29:12 20:18:29:14 01:18:09:11 01:18:09:13 
*FROM CLIP NAME:  18K1/03 
*TO CLIP NAME:  18K2/02 
*PATCH 19Y07M31:  FROM SOURCE 9 TO RECORD 6 
*PATCH 19Y07M31:  FROM SOURCE 9 TO RECORD 6 
*SOURCE FILE: 19Y07M31
004235                                   V     C        20:18:29:13 20:18:33:01 01:18:09:12 01:18:13:00 
M2                                                025.0 20:18:29:13 
*FROM CLIP NAME:  A024C008_190731_R32C 
*SOURCE FILE:
004236  19Y07M31                         A     C        20:18:29:14 20:18:33:10 01:18:09:13 01:18:13:09 
*FROM CLIP NAME:  18K2/02 
*SOURCE FILE: 19Y07M31
004237  19Y07M31                         A2    C        20:18:29:14 20:18:33:10 01:18:09:13 01:18:13:09 
*FROM CLIP NAME:  18K2/02 
*SOURCE FILE: 19Y07M31
004238  19Y07M31                         A3    C        20:18:29:14 20:18:33:10 01:18:09:13 01:18:13:09 
*FROM CLIP NAME:  18K2/02 
*SOURCE FILE: 19Y07M31
004239  19Y07M31                         A4    C        20:18:29:14 20:18:33:10 01:18:09:13 01:18:13:09 
*FROM CLIP NAME:  18K2/02 
*SOURCE FILE: 19Y07M31
004240  19Y07M31                         A5    C        20:18:29:14 20:18:33:10 01:18:09:13 01:18:13:09 
*FROM CLIP NAME:  18K2/02 
*PATCH 19Y07M31:  FROM SOURCE 7 TO RECORD 5 
*SOURCE FILE: 19Y07M31
004241  19Y07M31                         A6    C        20:18:29:14 20:18:33:10 01:18:09:13 01:18:13:09 
*FROM CLIP NAME:  18K2/02 
*PATCH 19Y07M31:  FROM SOURCE 9 TO RECORD 6 
*SOURCE FILE: 19Y07M31
004242                                   V     C        20:07:11:06 20:07:20:13 01:18:13:00 01:18:22:07 
M2                                                025.0 20:07:11:06 
*FROM CLIP NAME:  A024C005_190731_R32C 
*SOURCE FILE:
004243  BONEY_M_-_SUNNY.MP3              A15   C        01:00:00:00 01:00:25:06 01:18:13:00 01:18:38:06 
*FROM CLIP NAME:  BONEY M - SUNNY.MP3 
*A15 VOL =  -7.0 DB  PAN L100 
*PATCH BONEY_M_-_SUNNY.MP3:  FROM SOURCE 1 TO RECORD 15 
*SOURCE FILE: BONEY M - SUNNY.MP3
004244  BONEY_M_-_SUNNY.MP3              A16   C        01:00:00:00 01:00:25:06 01:18:13:00 01:18:38:06 
*FROM CLIP NAME:  BONEY M - SUNNY.MP3 
*A16 VOL =  -7.0 DB  PAN R100 
*PATCH BONEY_M_-_SUNNY.MP3:  FROM SOURCE 2 TO RECORD 16 
*SOURCE FILE: BONEY M - SUNNY.MP3
004245  DIN-IPHONE.MP3                   A7    C        01:00:00:00 01:00:05:00 01:18:13:07 01:18:18:07 
*FROM CLIP NAME:  DIN-IPHONE.MP3 
*PATCH DIN-IPHONE.MP3:  FROM SOURCE 2 TO RECORD 7 
*SOURCE FILE: DIN-IPHONE.MP3
004246  DIN-IPHONE.MP3                   A8    C        01:00:00:00 01:00:05:00 01:18:13:07 01:18:18:07 
*FROM CLIP NAME:  DIN-IPHONE.MP3 
*PATCH DIN-IPHONE.MP3:  FROM SOURCE 1 TO RECORD 8 
*SOURCE FILE: DIN-IPHONE.MP3
004247  19Y07M31                         A     C        20:18:33:10 20:18:33:10 01:18:13:09 01:18:13:09 
004247  19Y07M31                         A     D    002 20:07:11:15 20:07:11:17 01:18:13:09 01:18:13:11 
*FROM CLIP NAME:  18K2/02 
*TO CLIP NAME:  18K1/02 
*SOURCE FILE: 19Y07M31
004248  19Y07M31                         A2    C        20:18:33:10 20:18:33:10 01:18:13:09 01:18:13:09 
004248  19Y07M31                         A2    D    002 20:07:11:15 20:07:11:17 01:18:13:09 01:18:13:11 
*FROM CLIP NAME:  18K2/02 
*TO CLIP NAME:  18K1/02 
*SOURCE FILE: 19Y07M31
004249  19Y07M31                         A3    C        20:18:33:10 20:18:33:10 01:18:13:09 01:18:13:09 
004249  19Y07M31                         A3    D    002 20:07:11:15 20:07:11:17 01:18:13:09 01:18:13:11 
*FROM CLIP NAME:  18K2/02 
*TO CLIP NAME:  18K1/02 
*SOURCE FILE: 19Y07M31
004250  19Y07M31                         A4    C        20:18:33:10 20:18:33:10 01:18:13:09 01:18:13:09 
004250  19Y07M31                         A4    D    002 20:07:11:15 20:07:11:17 01:18:13:09 01:18:13:11 
*FROM CLIP NAME:  18K2/02 
*TO CLIP NAME:  18K1/02 
*SOURCE FILE: 19Y07M31
004251  19Y07M31                         A5    C        20:18:33:10 20:18:33:10 01:18:13:09 01:18:13:09 
004251  19Y07M31                         A5    D    002 20:07:11:15 20:07:11:17 01:18:13:09 01:18:13:11 
*FROM CLIP NAME:  18K2/02 
*TO CLIP NAME:  18K1/02 
*PATCH 19Y07M31:  FROM SOURCE 7 TO RECORD 5 
*PATCH 19Y07M31:  FROM SOURCE 7 TO RECORD 5 
*SOURCE FILE: 19Y07M31
004252  19Y07M31                         A6    C        20:18:33:10 20:18:33:10 01:18:13:09 01:18:13:09 
004252  19Y07M31                         A6    D    002 20:07:11:15 20:07:11:17 01:18:13:09 01:18:13:11 
*FROM CLIP NAME:  18K2/02 
*TO CLIP NAME:  18K1/02 
*PATCH 19Y07M31:  FROM SOURCE 9 TO RECORD 6 
*PATCH 19Y07M31:  FROM SOURCE 9 TO RECORD 6 
*SOURCE FILE: 19Y07M31
004253  19Y07M31                         A     C        20:07:11:17 20:07:20:13 01:18:13:11 01:18:22:07 
*FROM CLIP NAME:  18K1/02 
*SOURCE FILE: 19Y07M31
004254  19Y07M31                         A2    C        20:07:11:17 20:07:20:13 01:18:13:11 01:18:22:07 
*FROM CLIP NAME:  18K1/02 
*SOURCE FILE: 19Y07M31
004255  19Y07M31                         A3    C        20:07:11:17 20:07:20:13 01:18:13:11 01:18:22:07 
*FROM CLIP NAME:  18K1/02 
*SOURCE FILE: 19Y07M31
004256  19Y07M31                         A4    C        20:07:11:17 20:07:20:13 01:18:13:11 01:18:22:07 
*FROM CLIP NAME:  18K1/02 
*SOURCE FILE: 19Y07M31
004257  19Y07M31                         A5    C        20:07:11:17 20:07:20:13 01:18:13:11 01:18:22:07 
*FROM CLIP NAME:  18K1/02 
*PATCH 19Y07M31:  FROM SOURCE 7 TO RECORD 5 
*SOURCE FILE: 19Y07M31
004258  19Y07M31                         A6    C        20:07:11:17 20:07:20:13 01:18:13:11 01:18:22:07 
*FROM CLIP NAME:  18K1/02 
*PATCH 19Y07M31:  FROM SOURCE 9 TO RECORD 6 
*SOURCE FILE: 19Y07M31
004259  BL                               V     C        00:00:00:00 00:00:03:24 01:18:14:23 01:18:18:22 
*SOURCE FILE: (NULL)
004260  TITLE.01                         V     C        01:00:44:11 01:00:54:24 01:18:14:23 01:18:25:11 
*FROM CLIP NAME:  TITLE.01 
*SOURCE FILE: TITLE.01
004261  BL                               V     C        00:00:00:00 00:00:06:24 01:18:18:22 01:18:25:21 
*SOURCE FILE: (NULL)
004262  ALL-EVERY-IPHONE-SYSTEM-AND-UI-S A7    C        01:00:00:08 01:00:00:22 01:18:21:11 01:18:22:00 
*FROM CLIP NAME:  ALL-EVERY-IPHONE-SYSTEM-AND-UI-SOUND-EFFEC3T.MP3 
*PATCH ALL-EVERY-IPHONE-SYSTEM-AND-UI-S:  FROM SOURCE 1 TO RECORD 7 
*SOURCE FILE: ALL-EVERY-IPHONE-SYSTEM-AND-UI-SOUND-EFFEC3T.MP3
004263  ALL-EVERY-IPHONE-SYSTEM-AND-UI-S A8    C        01:00:00:08 01:00:00:22 01:18:21:11 01:18:22:00 
*FROM CLIP NAME:  ALL-EVERY-IPHONE-SYSTEM-AND-UI-SOUND-EFFEC3T.MP3 
*PATCH ALL-EVERY-IPHONE-SYSTEM-AND-UI-S:  FROM SOURCE 2 TO RECORD 8 
*SOURCE FILE: ALL-EVERY-IPHONE-SYSTEM-AND-UI-SOUND-EFFEC3T.MP3
004264                                   V     C        20:07:21:12 20:07:24:16 01:18:22:07 01:18:25:11 
M2                                                025.0 20:07:21:12 
*FROM CLIP NAME:  A024C005_190731_R32C 
*SOURCE FILE:
004265  19Y07M31                         A     C        20:07:21:12 20:07:24:16 01:18:22:07 01:18:25:11 
*FROM CLIP NAME:  18K1/02 
*SOURCE FILE: 19Y07M31
004266  19Y07M31                         A2    C        20:07:21:12 20:07:24:16 01:18:22:07 01:18:25:11 
*FROM CLIP NAME:  18K1/02 
*SOURCE FILE: 19Y07M31
004267  19Y07M31                         A3    C        20:07:21:12 20:07:24:16 01:18:22:07 01:18:25:11 
*FROM CLIP NAME:  18K1/02 
*SOURCE FILE: 19Y07M31
004268  19Y07M31                         A4    C        20:07:21:12 20:07:24:16 01:18:22:07 01:18:25:11 
*FROM CLIP NAME:  18K1/02 
*SOURCE FILE: 19Y07M31
004269  19Y07M31                         A5    C        20:07:21:12 20:07:24:16 01:18:22:07 01:18:25:11 
*FROM CLIP NAME:  18K1/02 
*PATCH 19Y07M31:  FROM SOURCE 7 TO RECORD 5 
*SOURCE FILE: 19Y07M31
004270  19Y07M31                         A6    C        20:07:21:12 20:07:24:16 01:18:22:07 01:18:25:11 
*FROM CLIP NAME:  18K1/02 
*PATCH 19Y07M31:  FROM SOURCE 9 TO RECORD 6 
*SOURCE FILE: 19Y07M31
004271  ALL-EVERY-IPHONE-SYSTEM-AND-UI-S A7    C        01:00:00:08 01:00:00:22 01:18:24:11 01:18:25:00 
*FROM CLIP NAME:  ALL-EVERY-IPHONE-SYSTEM-AND-UI-SOUND-EFFEC3T.MP3 
*PATCH ALL-EVERY-IPHONE-SYSTEM-AND-UI-S:  FROM SOURCE 1 TO RECORD 7 
*SOURCE FILE: ALL-EVERY-IPHONE-SYSTEM-AND-UI-SOUND-EFFEC3T.MP3
004272  ALL-EVERY-IPHONE-SYSTEM-AND-UI-S A8    C        01:00:00:08 01:00:00:22 01:18:24:11 01:18:25:00 
*FROM CLIP NAME:  ALL-EVERY-IPHONE-SYSTEM-AND-UI-SOUND-EFFEC3T.MP3 
*PATCH ALL-EVERY-IPHONE-SYSTEM-AND-UI-S:  FROM SOURCE 2 TO RECORD 8 
*SOURCE FILE: ALL-EVERY-IPHONE-SYSTEM-AND-UI-SOUND-EFFEC3T.MP3
004274  TITLE.01                         V     C        01:00:54:24 01:01:00:20 01:18:25:11 01:18:31:07 
*FROM CLIP NAME:  TITLE.01 
*SOURCE FILE: TITLE.01
004273  MSMMMOB.41                       V     C        12:27:33:05 12:27:39:01 01:18:25:11 01:18:31:07 
M2      MSMMMOB.41                                025.0 12:27:33:05 
*FROM CLIP NAME:  A081C001_190815_R32C 
*SOURCE FILE: MSMMMOB.41
004275  19Y08M15                         A     C        12:27:33:05 12:27:39:01 01:18:25:11 01:18:31:07 
*FROM CLIP NAME:  17K3/01.SYNC.01 
*SOURCE FILE: 19Y08M15
004276  MSMMMOB.41                       A2    C        12:27:33:05 12:27:39:01 01:18:25:11 01:18:31:07 
*FROM CLIP NAME:  A081C001_190815_R32C 
*SOURCE FILE: MSMMMOB.41
004277  19Y08M15                         A3    C        12:27:33:05 12:27:39:01 01:18:25:11 01:18:31:07 
*FROM CLIP NAME:  17K3/01.SYNC.01 
*PATCH 19Y08M15:  FROM SOURCE 8 TO RECORD 3 
*SOURCE FILE: 19Y08M15
004278  SMS_UVEDOMLENIE_NA_IPHONE.MP3    A7    C        01:00:00:00 01:00:00:20 01:18:25:21 01:18:26:16 
*FROM CLIP NAME:  SMS_UVEDOMLENIE_NA_IPHONE.MP3 
*A7 VOL =  -9.9 DB  PAN L100 
*PATCH SMS_UVEDOMLENIE_NA_IPHONE.MP3:  FROM SOURCE 1 TO RECORD 7 
*SOURCE FILE: SMS_UVEDOMLENIE_NA_IPHONE.MP3
004279  SMS_UVEDOMLENIE_NA_IPHONE.MP3    A8    C        01:00:00:00 01:00:00:20 01:18:25:21 01:18:26:16 
*FROM CLIP NAME:  SMS_UVEDOMLENIE_NA_IPHONE.MP3 
*A8 VOL =  -9.9 DB  PAN R100 
*PATCH SMS_UVEDOMLENIE_NA_IPHONE.MP3:  FROM SOURCE 2 TO RECORD 8 
*SOURCE FILE: SMS_UVEDOMLENIE_NA_IPHONE.MP3
004280  BL                               V     C        00:00:00:00 00:00:05:11 01:18:25:21 01:18:31:07 
*SOURCE FILE: (NULL)
004281                                   V     C        20:07:26:08 20:07:29:02 01:18:31:07 01:18:34:01 
M2                                                025.0 20:07:26:08 
*FROM CLIP NAME:  A024C005_190731_R32C 
*SOURCE FILE:
004282  19Y07M31                         A     C        20:07:26:08 20:07:29:02 01:18:31:07 01:18:34:01 
*FROM CLIP NAME:  18K1/02 
*SOURCE FILE: 19Y07M31
004283  19Y07M31                         A2    C        20:07:26:08 20:07:29:02 01:18:31:07 01:18:34:01 
*FROM CLIP NAME:  18K1/02 
*SOURCE FILE: 19Y07M31
004284  19Y07M31                         A3    C        20:07:26:08 20:07:29:02 01:18:31:07 01:18:34:01 
*FROM CLIP NAME:  18K1/02 
*SOURCE FILE: 19Y07M31
004285  19Y07M31                         A4    C        20:07:26:08 20:07:29:02 01:18:31:07 01:18:34:01 
*FROM CLIP NAME:  18K1/02 
*SOURCE FILE: 19Y07M31
004286  19Y07M31                         A5    C        20:07:26:08 20:07:29:02 01:18:31:07 01:18:34:01 
*FROM CLIP NAME:  18K1/02 
*PATCH 19Y07M31:  FROM SOURCE 7 TO RECORD 5 
*SOURCE FILE: 19Y07M31
004287  19Y07M31                         A6    C        20:07:26:08 20:07:29:02 01:18:31:07 01:18:34:01 
*FROM CLIP NAME:  18K1/02 
*PATCH 19Y07M31:  FROM SOURCE 9 TO RECORD 6 
*SOURCE FILE: 19Y07M31
004288  BL                               V     C        00:00:00:00 00:00:13:15 01:18:31:07 01:18:44:22 
*SOURCE FILE: (NULL)
004289  BL                               V     C        00:00:00:00 00:01:28:17 01:18:31:07 01:19:59:24 
*SOURCE FILE: (NULL)
004290                                   V     C        20:07:33:18 20:07:35:21 01:18:34:01 01:18:36:04 
M2                                                025.0 20:07:33:18 
*FROM CLIP NAME:  A024C005_190731_R32C 
*SOURCE FILE:
004291  19Y07M31                         A     C        20:07:33:18 20:07:35:21 01:18:34:01 01:18:36:04 
*FROM CLIP NAME:  18K1/02 
*SOURCE FILE: 19Y07M31
004292  19Y07M31                         A2    C        20:07:33:18 20:07:35:21 01:18:34:01 01:18:36:04 
*FROM CLIP NAME:  18K1/02 
*SOURCE FILE: 19Y07M31
004293  19Y07M31                         A3    C        20:07:33:18 20:07:35:21 01:18:34:01 01:18:36:04 
*FROM CLIP NAME:  18K1/02 
*SOURCE FILE: 19Y07M31
004294  19Y07M31                         A4    C        20:07:33:18 20:07:35:21 01:18:34:01 01:18:36:04 
*FROM CLIP NAME:  18K1/02 
*SOURCE FILE: 19Y07M31
004295  19Y07M31                         A5    C        20:07:33:18 20:07:35:21 01:18:34:01 01:18:36:04 
*FROM CLIP NAME:  18K1/02 
*PATCH 19Y07M31:  FROM SOURCE 7 TO RECORD 5 
*SOURCE FILE: 19Y07M31
004296  19Y07M31                         A6    C        20:07:33:18 20:07:35:21 01:18:34:01 01:18:36:04 
*FROM CLIP NAME:  18K1/02 
*PATCH 19Y07M31:  FROM SOURCE 9 TO RECORD 6 
*SOURCE FILE: 19Y07M31
004297                                   V     C        20:07:37:00 20:07:39:02 01:18:36:04 01:18:38:06 
M2                                                025.0 20:07:37:00 
*FROM CLIP NAME:  A024C005_190731_R32C 
*SOURCE FILE:
004298  19Y07M31                         A     C        20:07:37:00 20:07:39:02 01:18:36:04 01:18:38:06 
*FROM CLIP NAME:  18K1/02 
*SOURCE FILE: 19Y07M31
004299  19Y07M31                         A2    C        20:07:37:00 20:07:39:02 01:18:36:04 01:18:38:06 
*FROM CLIP NAME:  18K1/02 
*SOURCE FILE: 19Y07M31
004300  19Y07M31                         A3    C        20:07:37:00 20:07:39:02 01:18:36:04 01:18:38:06 
*FROM CLIP NAME:  18K1/02 
*SOURCE FILE: 19Y07M31
004301  19Y07M31                         A4    C        20:07:37:00 20:07:39:02 01:18:36:04 01:18:38:06 
*FROM CLIP NAME:  18K1/02 
*SOURCE FILE: 19Y07M31
004302  19Y07M31                         A5    C        20:07:37:00 20:07:39:02 01:18:36:04 01:18:38:06 
*FROM CLIP NAME:  18K1/02 
*PATCH 19Y07M31:  FROM SOURCE 7 TO RECORD 5 
*SOURCE FILE: 19Y07M31
004303  19Y07M31                         A6    C        20:07:37:00 20:07:39:02 01:18:36:04 01:18:38:06 
*FROM CLIP NAME:  18K1/02 
*PATCH 19Y07M31:  FROM SOURCE 9 TO RECORD 6 
*SOURCE FILE: 19Y07M31
004304  19Y07M31                         A     C        20:36:35:05 20:36:37:22 01:18:38:06 01:18:40:23 
*FROM CLIP NAME:  18K3/04 
*SOURCE FILE: 19Y07M31
004305                                   A2    C        20:36:35:05 20:36:37:22 01:18:38:06 01:18:40:23 
*FROM CLIP NAME:  A024C012_190731_R32C 
*SOURCE FILE:
004306  19Y07M31                         A3    C        20:36:35:05 20:36:37:22 01:18:38:06 01:18:40:23 
*FROM CLIP NAME:  18K3/04 
*SOURCE FILE: 19Y07M31
004307  19Y07M31                         A4    C        20:36:35:05 20:36:37:22 01:18:38:06 01:18:40:23 
*FROM CLIP NAME:  18K3/04 
*SOURCE FILE: 19Y07M31
004308                                   V     C        20:36:35:05 20:36:38:00 01:18:38:06 01:18:41:01 
M2                                                025.0 20:36:35:05 
*FROM CLIP NAME:  A024C012_190731_R32C 
*SOURCE FILE:
004309  BONEY_M_-_SUNNY.MP3              A15   C        01:00:25:06 01:00:31:22 01:18:38:06 01:18:44:22 
*FROM CLIP NAME:  BONEY M - SUNNY.MP3 
*A15 VOL =  -7.0 DB  PAN L100 
*PATCH BONEY_M_-_SUNNY.MP3:  FROM SOURCE 1 TO RECORD 15 
*SOURCE FILE: BONEY M - SUNNY.MP3
004310  BONEY_M_-_SUNNY.MP3              A16   C        01:00:25:06 01:00:31:22 01:18:38:06 01:18:44:22 
*FROM CLIP NAME:  BONEY M - SUNNY.MP3 
*A16 VOL =  -7.0 DB  PAN R100 
*PATCH BONEY_M_-_SUNNY.MP3:  FROM SOURCE 2 TO RECORD 16 
*SOURCE FILE: BONEY M - SUNNY.MP3
004311  19Y07M31                         A     C        20:36:37:22 20:36:39:08 01:18:40:23 01:18:42:09 
*FROM CLIP NAME:  18K3/04 
*SOURCE FILE: 19Y07M31
004312                                   A2    C        20:36:37:22 20:36:39:08 01:18:40:23 01:18:42:09 
*FROM CLIP NAME:  A024C012_190731_R32C 
*SOURCE FILE:
004313  19Y07M31                         A3    C        20:36:37:22 20:36:39:08 01:18:40:23 01:18:42:09 
*FROM CLIP NAME:  18K3/04 
*SOURCE FILE: 19Y07M31
004314  19Y07M31                         A4    C        20:36:37:22 20:36:39:08 01:18:40:23 01:18:42:09 
*FROM CLIP NAME:  18K3/04 
*SOURCE FILE: 19Y07M31
004315                                   V     C        20:36:39:19 20:36:41:16 01:18:41:01 01:18:42:23 
M2                                                025.0 20:36:39:19 
*FROM CLIP NAME:  A024C012_190731_R32C 
*SOURCE FILE:
004316  19Y07M31                         A     C        20:36:44:12 20:36:47:00 01:18:42:09 01:18:44:22 
*FROM CLIP NAME:  18K3/04 
*SOURCE FILE: 19Y07M31
004317                                   A2    C        20:36:44:12 20:36:47:00 01:18:42:09 01:18:44:22 
*FROM CLIP NAME:  A024C012_190731_R32C 
*SOURCE FILE:
004318  19Y07M31                         A3    C        20:36:44:12 20:36:47:00 01:18:42:09 01:18:44:22 
*FROM CLIP NAME:  18K3/04 
*SOURCE FILE: 19Y07M31
004319  19Y07M31                         A4    C        20:36:44:12 20:36:47:00 01:18:42:09 01:18:44:22 
*FROM CLIP NAME:  18K3/04 
*SOURCE FILE: 19Y07M31
004320                                   V     C        20:36:45:01 20:36:47:00 01:18:42:23 01:18:44:22 
M2                                                025.0 20:36:45:01 
*FROM CLIP NAME:  A024C012_190731_R32C 
*SOURCE FILE:
004321  BL                               V     C        00:00:00:00 00:00:02:00 01:18:44:22 01:18:46:22 
*SOURCE FILE: (NULL)
004322  MSMMMOB.07                       V     C        12:50:48:18 12:50:53:16 01:18:44:22 01:18:46:22 
M2      MSMMMOB.07                                062.5 12:50:48:18 
*FROM CLIP NAME:  S003_C004_20190819_R 
*SOURCE FILE: MSMMMOB.07
004323  BONEY_M_-_SUNNY.MP3              A15   C        01:00:31:22 01:01:34:22 01:18:44:22 01:19:47:22 
*FROM CLIP NAME:  BONEY M - SUNNY.MP3 
*A15 VOL =  +0.0 DB  PAN L100 
*PATCH BONEY_M_-_SUNNY.MP3:  FROM SOURCE 1 TO RECORD 15 
*SOURCE FILE: BONEY M - SUNNY.MP3
004324  BONEY_M_-_SUNNY.MP3              A16   C        01:00:31:22 01:01:34:22 01:18:44:22 01:19:47:22 
*FROM CLIP NAME:  BONEY M - SUNNY.MP3 
*A16 VOL =  +0.0 DB  PAN R100 
*PATCH BONEY_M_-_SUNNY.MP3:  FROM SOURCE 2 TO RECORD 16 
*SOURCE FILE: BONEY M - SUNNY.MP3
004325  CINEMASCOPE_2-35-1_CROPLINES.PNG V     C        01:00:00:00 01:01:15:02 01:18:44:22 01:19:59:24 
*FROM CLIP NAME:  CINEMASCOPE 2-35-1 CROPLINES.PNG 
*SOURCE FILE: CINEMASCOPE 2-35-1 CROPLINES.PNG
004326  MSMMMOB.2115                     V     C        12:48:40:22 12:48:42:15 01:18:46:22 01:18:48:15 
*FROM CLIP NAME:  S003_C004_20190819_R 
*SOURCE FILE: MSMMMOB.2115
004327  BL                               V     C        00:00:00:00 00:00:13:16 01:18:46:22 01:19:00:13 
*SOURCE FILE: (NULL)
004328  A013C003_190728_R32C             V     C        13:34:50:09 13:34:52:14 01:18:48:15 01:18:50:20 
*FROM CLIP NAME:  A013C003_190728_R32C.NEW.01 
*SOURCE FILE: A013C003_190728_R32C
004329  MSMMMOB.40                       V     C        17:46:09:24 17:46:11:24 01:18:50:20 01:18:52:20 
M2      MSMMMOB.40                                025.0 17:46:09:24 
*FROM CLIP NAME:  B032C009_190828_A1Y8 
*SOURCE FILE: MSMMMOB.40
004330  MSMMMOB.39                       V     C        13:20:59:12 13:21:00:22 01:18:52:20 01:18:54:05 
M2      MSMMMOB.39                                025.0 13:20:59:12 
*FROM CLIP NAME:  A082C005_190815_R32C 
*SOURCE FILE: MSMMMOB.39
004331  19Y08M15                         A     C        13:20:59:11 13:21:00:21 01:18:52:20 01:18:54:05 
*FROM CLIP NAME:  24K1/05 
*SOURCE FILE: 19Y08M15
004332  MSMMMOB.39                       A2    C        13:20:59:12 13:21:00:22 01:18:52:20 01:18:54:05 
*FROM CLIP NAME:  A082C005_190815_R32C 
*SOURCE FILE: MSMMMOB.39
004333  MSMMMOB.39                       V     C        13:21:01:23 13:21:03:13 01:18:54:05 01:18:55:20 
M2      MSMMMOB.39                                025.0 13:21:01:23 
*FROM CLIP NAME:  A082C005_190815_R32C 
*SOURCE FILE: MSMMMOB.39
004334  19Y08M15                         A     C        13:21:01:22 13:21:03:12 01:18:54:05 01:18:55:20 
*FROM CLIP NAME:  24K1/05 
*SOURCE FILE: 19Y08M15
004335  MSMMMOB.39                       A2    C        13:21:01:23 13:21:03:13 01:18:54:05 01:18:55:20 
*FROM CLIP NAME:  A082C005_190815_R32C 
*SOURCE FILE: MSMMMOB.39
004336  MSMMMOB.39                       V     C        13:21:06:00 13:21:07:08 01:18:55:20 01:18:57:03 
M2      MSMMMOB.39                                025.0 13:21:06:00 
*FROM CLIP NAME:  A082C005_190815_R32C 
*SOURCE FILE: MSMMMOB.39
004337  19Y08M15                         A     C        13:21:05:24 13:21:07:07 01:18:55:20 01:18:57:03 
*FROM CLIP NAME:  24K1/05 
*SOURCE FILE: 19Y08M15
004338  MSMMMOB.39                       A2    C        13:21:06:00 13:21:07:08 01:18:55:20 01:18:57:03 
*FROM CLIP NAME:  A082C005_190815_R32C 
*SOURCE FILE: MSMMMOB.39
004339  MSMMMOB.39                       V     C        13:21:10:11 13:21:11:07 01:18:57:03 01:18:57:24 
M2      MSMMMOB.39                                025.0 13:21:10:11 
*FROM CLIP NAME:  A082C005_190815_R32C 
*SOURCE FILE: MSMMMOB.39
004340  19Y08M15                         A     C        13:21:10:05 13:21:11:06 01:18:57:03 01:18:58:04 
*FROM CLIP NAME:  24K1/05 
*SOURCE FILE: 19Y08M15
004341  MSMMMOB.39                       A2    C        13:21:10:06 13:21:11:07 01:18:57:03 01:18:58:04 
*FROM CLIP NAME:  A082C005_190815_R32C 
*SOURCE FILE: MSMMMOB.39
004342  MSMMMOB.28                       V     C        13:47:13:01 13:47:14:01 01:18:57:24 01:18:58:24 
*FROM CLIP NAME:  24-2-3 
*SOURCE FILE: MSMMMOB.28
004343  19Y08M15                         A     C        13:26:07:05 13:26:08:22 01:18:58:04 01:18:59:21 
*FROM CLIP NAME:  24K1/06 
*SOURCE FILE: 19Y08M15
004344  MSMMMOB.18                       A2    C        13:26:07:06 13:26:08:23 01:18:58:04 01:18:59:21 
*FROM CLIP NAME:  A082C006_190815_R32C 
*SOURCE FILE: MSMMMOB.18
004345  MSMMMOB.39                       V     C        13:21:12:02 13:21:13:16 01:18:58:24 01:19:00:13 
M2      MSMMMOB.39                                025.0 13:21:12:02 
*FROM CLIP NAME:  A082C005_190815_R32C 
*SOURCE FILE: MSMMMOB.39
004346  19Y08M15                         A     C        13:21:12:01 13:21:12:18 01:18:59:21 01:19:00:13 
*FROM CLIP NAME:  24K1/05 
*SOURCE FILE: 19Y08M15
004347  MSMMMOB.39                       A2    C        13:21:12:02 13:21:12:19 01:18:59:21 01:19:00:13 
*FROM CLIP NAME:  A082C005_190815_R32C 
*SOURCE FILE: MSMMMOB.39
004348  M108_C024_20190729_R             A     C        16:08:28:11 16:08:30:14 01:19:00:13 01:19:02:16 
*FROM CLIP NAME:  M108_C024_20190729_R.NEW.01 
*SOURCE FILE: M108_C024_20190729_R
004349  M108_C024_20190729_R             A2    C        16:08:28:11 16:08:30:14 01:19:00:13 01:19:02:16 
*FROM CLIP NAME:  M108_C024_20190729_R.NEW.01 
*SOURCE FILE: M108_C024_20190729_R
004350  M108_C025_20190729_R             V     C        16:10:53:09 16:10:55:16 01:19:00:13 01:19:02:20 
*FROM CLIP NAME:  M108_C025_20190729_R.NEW.01 
*SOURCE FILE: M108_C025_20190729_R
004351  BL                               V     C        00:00:00:00 00:00:02:07 01:19:00:13 01:19:02:20 
*SOURCE FILE: (NULL)
004354  M108_C029_20190729_R             V     C        16:57:30:05 16:57:32:22 01:19:02:20 01:19:04:16 
M2      M108_C029_20190729_R                      036.2 16:57:30:05 
*FROM CLIP NAME:  M108_C029_20190729_R.NEW.01 
*SOURCE FILE: M108_C029_20190729_R 
*REPAIR: FROM SOURCE TRUE SPEED IS 36.250000 FPS
004352  BL                               V     C        00:00:00:00 00:00:01:21 01:19:02:20 01:19:04:16 
*SOURCE FILE: (NULL)
004353  BL                               V     C        00:00:00:00 00:00:01:21 01:19:02:20 01:19:04:16 
*SOURCE FILE: (NULL)
004355  M108_C029_20190729_R             A     C        16:57:31:03 16:57:32:13 01:19:03:08 01:19:04:18 
*FROM CLIP NAME:  M108_C029_20190729_R.NEW.01 
*SOURCE FILE: M108_C029_20190729_R
004356  M108_C029_20190729_R             A2    C        16:57:31:03 16:57:32:13 01:19:03:08 01:19:04:18 
*FROM CLIP NAME:  M108_C029_20190729_R.NEW.01 
*SOURCE FILE: M108_C029_20190729_R
004357  M108_C009_20190729_R             V     C        12:38:39:00 12:38:43:17 01:19:04:16 01:19:08:13 
M2      M108_C009_20190729_R                      030.0 12:38:39:00 
*FROM CLIP NAME:  M108_C009_20190729_R.NEW.01 
*SOURCE FILE: M108_C009_20190729_R
004358  BL                               V     C        00:00:00:00 00:00:03:22 01:19:04:16 01:19:08:13 
*SOURCE FILE: (NULL)
004359  BL                               V     C        00:00:00:00 00:10:14:20 01:19:04:16 01:29:19:11 
*SOURCE FILE: (NULL)
004360  MSMMMOB.61                       V     C        10:31:04:15 10:31:06:06 01:19:08:13 01:19:10:04 
M2      MSMMMOB.61                                025.0 10:31:04:15 
*FROM CLIP NAME:  A080C002_190815_R32C 
*SOURCE FILE: MSMMMOB.61
004361  19Y08M15                         A     C        10:31:06:22 10:31:08:13 01:19:08:13 01:19:10:04 
*FROM CLIP NAME:  22K1/02.SYNC.01 
*SOURCE FILE: 19Y08M15
004362  19Y08M15                         A2    C        10:31:06:22 10:31:08:13 01:19:08:13 01:19:10:04 
*FROM CLIP NAME:  22K1/02.SYNC.01 
*SOURCE FILE: 19Y08M15
004363  BL                               V     C        00:00:00:00 00:11:14:00 01:19:08:13 01:30:22:13 
*SOURCE FILE: (NULL)
004364  MSMMMOB.17                       V     C        10:46:29:23 10:46:31:02 01:19:10:04 01:19:11:08 
M2      MSMMMOB.17                                025.0 10:46:29:23 
*FROM CLIP NAME:  A080C005_190815_R32C 
*SOURCE FILE: MSMMMOB.17
004365  19Y08M15                         A     C        10:52:16:15 10:52:17:19 01:19:10:04 01:19:11:08 
*FROM CLIP NAME:  22K4/01.SYNC.01 
*SOURCE FILE: 19Y08M15
004366  19Y08M15                         A2    C        10:52:16:15 10:52:17:19 01:19:10:04 01:19:11:08 
*FROM CLIP NAME:  22K4/01.SYNC.01 
*SOURCE FILE: 19Y08M15
004367  19Y08M15                         A3    C        11:15:31:20 11:15:32:24 01:19:10:04 01:19:11:08 
*FROM CLIP NAME:  22KZ/01.SYNC.01.SUB.01 
*PATCH 19Y08M15:  FROM SOURCE 1 TO RECORD 3 
*SOURCE FILE: 19Y08M15
004368  19Y08M15                         A4    C        11:15:31:20 11:15:32:24 01:19:10:04 01:19:11:08 
*FROM CLIP NAME:  22KZ/01.SYNC.01.SUB.01 
*PATCH 19Y08M15:  FROM SOURCE 2 TO RECORD 4 
*SOURCE FILE: 19Y08M15
004369  19Y08M15                         A     C        10:52:19:20 10:52:20:20 01:19:11:08 01:19:12:08 
*FROM CLIP NAME:  22K4/01.SYNC.01 
*SOURCE FILE: 19Y08M15
004370  19Y08M15                         A2    C        10:52:19:20 10:52:20:20 01:19:11:08 01:19:12:08 
*FROM CLIP NAME:  22K4/01.SYNC.01 
*SOURCE FILE: 19Y08M15
004371  MSMMMOB.87                       V     C        11:08:19:19 11:08:21:12 01:19:11:08 01:19:13:01 
M2      MSMMMOB.87                                025.0 11:08:19:19 
*FROM CLIP NAME:  A080C009_190815_R32C 
*SOURCE FILE: MSMMMOB.87
004372  19Y08M15                         A     C        10:52:14:02 10:52:14:20 01:19:12:08 01:19:13:01 
*FROM CLIP NAME:  22K4/01.SYNC.01 
*SOURCE FILE: 19Y08M15
004373  19Y08M15                         A2    C        10:52:14:02 10:52:14:20 01:19:12:08 01:19:13:01 
*FROM CLIP NAME:  22K4/01.SYNC.01 
*SOURCE FILE: 19Y08M15
004374  MSMMMOB.17                       V     C        10:46:34:11 10:46:36:12 01:19:13:01 01:19:15:02 
M2      MSMMMOB.17                                025.0 10:46:34:11 
*FROM CLIP NAME:  A080C005_190815_R32C 
*SOURCE FILE: MSMMMOB.17
004375  19Y08M15                         A     C        10:52:18:04 10:52:20:05 01:19:13:01 01:19:15:02 
*FROM CLIP NAME:  22K4/01.SYNC.01 
*SOURCE FILE: 19Y08M15
004376  19Y08M15                         A2    C        10:52:18:04 10:52:20:05 01:19:13:01 01:19:15:02 
*FROM CLIP NAME:  22K4/01.SYNC.01 
*SOURCE FILE: 19Y08M15
004377  BL                               A3    C        00:00:00:00 00:00:00:00 01:19:14:21 01:19:14:21 
004377  04387.MP3                        A3    D    017 01:00:00:13 01:00:01:05 01:19:14:21 01:19:15:13 
*TO CLIP NAME:  04387.MP3 
*PATCH 04387.MP3:  FROM SOURCE 1 TO RECORD 3 
*SOURCE FILE: (NULL)
004378  BL                               A4    C        00:00:00:00 00:00:00:00 01:19:14:21 01:19:14:21 
004378  04387.MP3                        A4    D    017 01:00:00:13 01:00:01:05 01:19:14:21 01:19:15:13 
*TO CLIP NAME:  04387.MP3 
*PATCH 04387.MP3:  FROM SOURCE 2 TO RECORD 4 
*SOURCE FILE: (NULL)
004379  MSMMMOB.61                       V     C        10:31:13:20 10:31:15:06 01:19:15:02 01:19:16:13 
M2      MSMMMOB.61                                025.0 10:31:13:20 
*FROM CLIP NAME:  A080C002_190815_R32C 
*SOURCE FILE: MSMMMOB.61
004380  19Y08M15                         A     C        10:52:22:21 10:52:24:09 01:19:15:02 01:19:16:15 
*FROM CLIP NAME:  22K4/01.SYNC.01 
*SOURCE FILE: 19Y08M15
004381  19Y08M15                         A2    C        10:52:22:21 10:52:24:09 01:19:15:02 01:19:16:15 
*FROM CLIP NAME:  22K4/01.SYNC.01 
*SOURCE FILE: 19Y08M15
004382  04387.MP3                        A3    C        01:00:01:05 01:00:02:07 01:19:15:13 01:19:16:15 
*FROM CLIP NAME:  04387.MP3 
*PATCH 04387.MP3:  FROM SOURCE 1 TO RECORD 3 
*SOURCE FILE: 04387.MP3
004383  04387.MP3                        A4    C        01:00:01:05 01:00:02:07 01:19:15:13 01:19:16:15 
*FROM CLIP NAME:  04387.MP3 
*PATCH 04387.MP3:  FROM SOURCE 2 TO RECORD 4 
*SOURCE FILE: 04387.MP3
004384  M108_C033_20190729_R             V     C        17:23:58:04 17:24:00:02 01:19:16:13 01:19:18:11 
*FROM CLIP NAME:  M108_C033_20190729_R.NEW.01 
*SOURCE FILE: M108_C033_20190729_R
004385  MSMMMOB.16                       V     C        12:09:24:02 12:09:25:14 01:19:18:11 01:19:19:23 
M2      MSMMMOB.16                                025.0 12:09:24:02 
*FROM CLIP NAME:  A080C011_190815_R32C 
*SOURCE FILE: MSMMMOB.16
004386  SENTMESSAGE.MP3                  A     C        01:00:00:00 01:00:00:11 01:19:19:12 01:19:19:23 
*FROM CLIP NAME:  SENTMESSAGE.MP3 
*A1 VOL =  +8.0 DB  PAN R100 
*SOURCE FILE: SENTMESSAGE.MP3
004387  M108_C032_20190729_R             V     C        17:03:53:23 17:04:02:20 01:19:19:23 01:19:28:20 
*FROM CLIP NAME:  M108_C032_20190729_R.NEW.01 
*SOURCE FILE: M108_C032_20190729_R
004388  MSMMMOB.01                       A3    C        00:00:07:07 00:00:08:04 01:19:21:06 01:19:22:03 
M2      MSMMMOB.01                                025.0 00:00:07:07 
*FROM CLIP NAME:  IMG_0023 
*PATCH MSMMMOB.01:  FROM SOURCE 1 TO RECORD 3 
*SOURCE FILE: MSMMMOB.01
004389  MSMMMOB.01                       A4    C        00:00:07:07 00:00:08:04 01:19:21:06 01:19:22:03 
M2      MSMMMOB.01                                025.0 00:00:07:07 
*FROM CLIP NAME:  IMG_0023 
*PATCH MSMMMOB.01:  FROM SOURCE 2 TO RECORD 4 
*SOURCE FILE: MSMMMOB.01
004390  MSMMMOB.04                       A3    C        00:00:11:17 00:00:12:09 01:19:22:03 01:19:22:20 
M2      MSMMMOB.04                                025.0 00:00:11:17 
*FROM CLIP NAME:  IMG_0025 
*PATCH MSMMMOB.04:  FROM SOURCE 1 TO RECORD 3 
*SOURCE FILE: MSMMMOB.04
004391  MSMMMOB.04                       A4    C        00:00:11:17 00:00:12:09 01:19:22:03 01:19:22:20 
M2      MSMMMOB.04                                025.0 00:00:11:17 
*FROM CLIP NAME:  IMG_0025 
*PATCH MSMMMOB.04:  FROM SOURCE 2 TO RECORD 4 
*SOURCE FILE: MSMMMOB.04
004392  MSMMMOB.05                       A     C        00:00:07:23 00:00:08:13 01:19:22:20 01:19:23:10 
M2      MSMMMOB.05                                025.0 00:00:07:23 
*FROM CLIP NAME:  IMG_0024 
*SOURCE FILE: MSMMMOB.05
004393  MSMMMOB.05                       A2    C        00:00:07:23 00:00:08:13 01:19:22:20 01:19:23:10 
M2      MSMMMOB.05                                025.0 00:00:07:23 
*FROM CLIP NAME:  IMG_0024 
*SOURCE FILE: MSMMMOB.05
004394  SENTMESSAGE.MP3                  A4    C        01:00:00:00 01:00:00:11 01:19:23:19 01:19:24:05 
*FROM CLIP NAME:  SENTMESSAGE.MP3 
*A4 VOL =  +8.5 DB  PAN L100 
*PATCH SENTMESSAGE.MP3:  FROM SOURCE 1 TO RECORD 4 
*SOURCE FILE: SENTMESSAGE.MP3
004395  SENTMESSAGE.MP3                  A4    C        01:00:00:00 01:00:00:11 01:19:26:11 01:19:26:22 
*FROM CLIP NAME:  SENTMESSAGE.MP3 
*A4 VOL =  +9.0 DB  PAN L100 
*PATCH SENTMESSAGE.MP3:  FROM SOURCE 1 TO RECORD 4 
*SOURCE FILE: SENTMESSAGE.MP3
004396  19Y07M28                         A3    C        15:05:30:12 15:05:34:16 01:19:28:01 01:19:32:05 
*FROM CLIP NAME:  19B_33K4/01.SYNC.01 
*SOURCE FILE: 19Y07M28
004397  19Y07M28                         A4    C        15:05:30:12 15:05:34:16 01:19:28:01 01:19:32:05 
*FROM CLIP NAME:  19B_33K4/01.SYNC.01 
*SOURCE FILE: 19Y07M28
004398  19Y07M28                         A5    C        15:05:30:12 15:05:34:16 01:19:28:01 01:19:32:05 
*FROM CLIP NAME:  19B_33K4/01.SYNC.01 
*SOURCE FILE: 19Y07M28
004399  19Y07M28                         A6    C        15:05:30:12 15:05:34:16 01:19:28:01 01:19:32:05 
*FROM CLIP NAME:  19B_33K4/01.SYNC.01 
*PATCH 19Y07M28:  FROM SOURCE 1 TO RECORD 6 
*SOURCE FILE: 19Y07M28
004400  19Y07M28                         A7    C        15:05:30:12 15:05:34:16 01:19:28:01 01:19:32:05 
*FROM CLIP NAME:  19B_33K4/01.SYNC.01 
*SOURCE FILE: 19Y07M28
004401  19Y07M28                         A8    C        15:05:30:12 15:05:34:16 01:19:28:01 01:19:32:05 
*FROM CLIP NAME:  19B_33K4/01.SYNC.01 
*PATCH 19Y07M28:  FROM SOURCE 9 TO RECORD 8 
*SOURCE FILE: 19Y07M28
004402  A014C002_190728_R32C             V     C        15:06:31:23 15:06:33:00 01:19:28:20 01:19:29:22 
*FROM CLIP NAME:  A014C002_190728_R32C.NEW.01 
*SOURCE FILE: A014C002_190728_R32C
004403  19Y07M28                         A     C        15:05:31:06 15:05:34:16 01:19:28:20 01:19:32:05 
*FROM CLIP NAME:  19B_33K4/01.SYNC.01 
*SOURCE FILE: 19Y07M28
004404  19Y07M28                         A2    C        15:05:31:06 15:05:34:16 01:19:28:20 01:19:32:05 
*FROM CLIP NAME:  19B_33K4/01.SYNC.01 
*SOURCE FILE: 19Y07M28
004405  A013C004_190728_R32C             V     C        13:53:25:10 13:53:27:18 01:19:29:22 01:19:32:05 
*FROM CLIP NAME:  A013C004_190728_R32C.NEW.01 
*SOURCE FILE: A013C004_190728_R32C
004406  MSMMMOB.12                       V     C        16:01:44:07 16:01:44:08 01:19:32:05 01:19:34:06 
M2      MSMMMOB.12                               -025.0 16:01:44:07 
*FROM CLIP NAME:  S003_C018_20190819_R 
*SOURCE FILE: MSMMMOB.12
004407  MSMMMOB.12                       V     C        16:01:17:12 16:01:17:13 01:19:34:06 01:19:36:05 
M2      MSMMMOB.12                               -025.0 16:01:17:12 
*FROM CLIP NAME:  S003_C018_20190819_R 
*SOURCE FILE: MSMMMOB.12
004408  MSMMMOB.43                       A     C        15:54:37:24 15:54:44:10 01:19:34:08 01:19:40:19 
M2      MSMMMOB.43                                025.0 15:54:37:24 
*FROM CLIP NAME:  S003_C015_20190819_R 
*SOURCE FILE: MSMMMOB.43
004409  MSMMMOB.43                       A2    C        15:54:37:24 15:54:44:10 01:19:34:08 01:19:40:19 
M2      MSMMMOB.43                                025.0 15:54:37:24 
*FROM CLIP NAME:  S003_C015_20190819_R 
*SOURCE FILE: MSMMMOB.43
004410  MSMMMOB.43                       V     C        15:54:36:07 15:54:41:14 01:19:36:05 01:19:40:03 
M2      MSMMMOB.43                                033.8 15:54:36:07 
*FROM CLIP NAME:  S003_C015_20190819_R 
*SOURCE FILE: MSMMMOB.43 
*REPAIR: FROM SOURCE TRUE SPEED IS 33.750000 FPS
004411  SENTMESSAGE.MP3                  A4    C        01:00:00:00 01:00:00:11 01:19:40:03 01:19:40:14 
*FROM CLIP NAME:  SENTMESSAGE.MP3 
*A4 VOL =  +8.5 DB  PAN L100 
*PATCH SENTMESSAGE.MP3:  FROM SOURCE 1 TO RECORD 4 
*SOURCE FILE: SENTMESSAGE.MP3
004412  MSMMMOB.56                       V     C        15:58:26:07 15:58:33:13 01:19:40:03 01:19:47:09 
M2      MSMMMOB.56                                025.0 15:58:26:07 
*FROM CLIP NAME:  S003_C017_20190819_R 
*SOURCE FILE: MSMMMOB.56
004413  MSMMMOB.03                       A     C        14:25:41:24 14:25:48:23 01:19:40:19 01:19:47:18 
M2      MSMMMOB.03                                025.0 14:25:41:24 
*FROM CLIP NAME:  S003_C005_20190819_R 
*SOURCE FILE: MSMMMOB.03
004414  MSMMMOB.03                       A2    C        14:25:41:24 14:25:48:23 01:19:40:19 01:19:47:18 
M2      MSMMMOB.03                                025.0 14:25:41:24 
*FROM CLIP NAME:  S003_C005_20190819_R 
*SOURCE FILE: MSMMMOB.03
004415  SENTMESSAGE.MP3                  A4    C        01:00:00:00 01:00:00:11 01:19:42:11 01:19:42:22 
*FROM CLIP NAME:  SENTMESSAGE.MP3 
*A4 VOL =  +8.5 DB  PAN L100 
*PATCH SENTMESSAGE.MP3:  FROM SOURCE 1 TO RECORD 4 
*SOURCE FILE: SENTMESSAGE.MP3
004416  SENTMESSAGE.MP3                  A4    C        01:00:00:00 01:00:00:11 01:19:44:22 01:19:45:08 
*FROM CLIP NAME:  SENTMESSAGE.MP3 
*A4 VOL =  +8.5 DB  PAN L100 
*PATCH SENTMESSAGE.MP3:  FROM SOURCE 1 TO RECORD 4 
*SOURCE FILE: SENTMESSAGE.MP3
004417  SENTMESSAGE.MP3                  A4    C        01:00:00:00 01:00:00:11 01:19:45:15 01:19:46:01 
*FROM CLIP NAME:  SENTMESSAGE.MP3 
*A4 VOL =  +8.5 DB  PAN L100 
*PATCH SENTMESSAGE.MP3:  FROM SOURCE 1 TO RECORD 4 
*SOURCE FILE: SENTMESSAGE.MP3
004418  SENTMESSAGE.MP3                  A4    C        01:00:00:00 01:00:00:11 01:19:46:08 01:19:46:19 
*FROM CLIP NAME:  SENTMESSAGE.MP3 
*A4 VOL =  +8.5 DB  PAN L100 
*PATCH SENTMESSAGE.MP3:  FROM SOURCE 1 TO RECORD 4 
*SOURCE FILE: SENTMESSAGE.MP3
004419  A019C010_190729_R32C             V     C        06:06:53:08 06:06:53:23 01:19:47:09 01:19:47:24 
*FROM CLIP NAME:  A019C010_190729_R32C.NEW.01.SUB.01 
*SOURCE FILE: A019C010_190729_R32C
004420  BONEY_M_-_SUNNY.MP3              A15   C        01:01:42:19 01:02:33:03 01:19:47:22 01:20:38:06 
*FROM CLIP NAME:  BONEY M - SUNNY.MP3 
*A15 VOL =  +0.0 DB  PAN L100 
*PATCH BONEY_M_-_SUNNY.MP3:  FROM SOURCE 1 TO RECORD 15 
*SOURCE FILE: BONEY M - SUNNY.MP3
004421  BONEY_M_-_SUNNY.MP3              A16   C        01:01:42:19 01:02:33:03 01:19:47:22 01:20:38:06 
*FROM CLIP NAME:  BONEY M - SUNNY.MP3 
*A16 VOL =  +0.0 DB  PAN R100 
*PATCH BONEY_M_-_SUNNY.MP3:  FROM SOURCE 2 TO RECORD 16 
*SOURCE FILE: BONEY M - SUNNY.MP3
004422  MSMMMOB.04                       V     C        14:35:10:10 14:35:11:20 01:19:47:24 01:19:49:09 
*FROM CLIP NAME:  A085C021_190819_R32C 
*SOURCE FILE: MSMMMOB.04
004423  MSMMMOB.09                       V     C        14:19:47:11 14:19:48:23 01:19:49:09 01:19:50:21 
*FROM CLIP NAME:  A085C020_190819_R32C 
*SOURCE FILE: MSMMMOB.09
004424  B003C003_190726_R4CP             V     C        10:57:52:22 10:57:54:21 01:19:50:21 01:19:52:20 
*FROM CLIP NAME:  B003C003_190726_R4CP.NEW.01.SUB.01 
*SOURCE FILE: B003C003_190726_R4CP
004425  B003C003_190726_R4CP             A     C        10:57:52:22 10:57:54:15 01:19:51:02 01:19:52:20 
*FROM CLIP NAME:  B003C003_190726_R4CP.NEW.01.SUB.01 
*SOURCE FILE: B003C003_190726_R4CP
004426  B003C003_190726_R4CP             A2    C        10:57:52:22 10:57:54:15 01:19:51:02 01:19:52:20 
*FROM CLIP NAME:  B003C003_190726_R4CP.NEW.01.SUB.01 
*SOURCE FILE: B003C003_190726_R4CP
004427  MSMMMOB.42                       V     C        18:52:12:06 18:52:14:11 01:19:52:20 01:19:54:18 
M2      MSMMMOB.42                                028.8 18:52:12:06 
*FROM CLIP NAME:  S003_C019_20190819_R 
*SOURCE FILE: MSMMMOB.42 
*REPAIR: FROM SOURCE TRUE SPEED IS 28.750000 FPS
004428  MSMMMOB.42                       V     C        18:52:25:10 18:52:25:11 01:19:54:18 01:19:54:23 
M2      MSMMMOB.42                                000.0 18:52:25:10 
*FROM CLIP NAME:  S003_C019_20190819_R 
** FREEZE FRAME 
*SOURCE FILE: MSMMMOB.42
004429  MSMMMOB.42                       V     C        18:52:28:03 18:52:28:04 01:19:54:23 01:19:55:03 
M2      MSMMMOB.42                                000.0 18:52:28:03 
*FROM CLIP NAME:  S003_C019_20190819_R 
** FREEZE FRAME 
*SOURCE FILE: MSMMMOB.42
004430  MSMMMOB.60                       V     C        19:27:30:08 19:27:30:09 01:19:55:03 01:19:55:08 
M2      MSMMMOB.60                                000.0 19:27:30:08 
*FROM CLIP NAME:  S003_C027_20190819_R 
** FREEZE FRAME 
*SOURCE FILE: MSMMMOB.60
004431  MSMMMOB.47                       V     C        20:39:53:22 20:39:53:23 01:19:55:08 01:19:55:13 
M2      MSMMMOB.47                                000.0 20:39:53:22 
*FROM CLIP NAME:  S003_C034_20190819_R 
** FREEZE FRAME 
*SOURCE FILE: MSMMMOB.47
004432  MSMMMOB.05                       V     C        20:41:06:13 20:41:06:14 01:19:55:13 01:19:55:18 
M2      MSMMMOB.05                                000.0 20:41:06:13 
*FROM CLIP NAME:  S003_C035_20190819_R 
** FREEZE FRAME 
*SOURCE FILE: MSMMMOB.05
004433  MSMMMOB.05                       V     C        20:41:06:13 20:41:09:03 01:19:55:18 01:19:57:23 
M2      MSMMMOB.05                                030.0 20:41:06:13 
*FROM CLIP NAME:  S003_C035_20190819_R 
*SOURCE FILE: MSMMMOB.05
004434  MSMMMOB.49                       V     C        15:48:29:23 15:48:30:24 01:19:57:23 01:19:58:24 
*FROM CLIP NAME:  A085C027_190819_R32C 
*SOURCE FILE: MSMMMOB.49
004435  MSMMMOB.17                       V     C        15:46:52:05 15:46:53:05 01:19:58:24 01:19:59:24 
*FROM CLIP NAME:  A085C026_190819_R32C 
*SOURCE FILE: MSMMMOB.17
004436  SENTMESSAGE.MP3                  A4    C        01:00:00:00 01:00:00:11 01:19:59:24 01:20:00:10 
*FROM CLIP NAME:  SENTMESSAGE.MP3 
*A4 VOL =  +8.5 DB  PAN L100 
*PATCH SENTMESSAGE.MP3:  FROM SOURCE 1 TO RECORD 4 
*SOURCE FILE: SENTMESSAGE.MP3
004438  BL                               V     C        00:00:00:00 00:00:07:19 01:19:59:24 01:20:07:18 
*SOURCE FILE: (NULL)
004437  MSMMMOB.14                       V     C        20:37:54:23 20:38:02:17 01:19:59:24 01:20:07:18 
*FROM CLIP NAME:  S003_C033_20190819_R 
*SOURCE FILE: MSMMMOB.14
004439  CINEMASCOPE_2-35-1_CROPLINES.PNG V     C        01:00:00:00 01:06:00:00 01:19:59:24 01:25:59:24 
*FROM CLIP NAME:  CINEMASCOPE 2-35-1 CROPLINES.PNG 
*SOURCE FILE: CINEMASCOPE 2-35-1 CROPLINES.PNG
004440  SENTMESSAGE.MP3                  A4    C        01:00:00:00 01:00:00:11 01:20:00:23 01:20:01:09 
*FROM CLIP NAME:  SENTMESSAGE.MP3 
*A4 VOL =  +8.5 DB  PAN L100 
*PATCH SENTMESSAGE.MP3:  FROM SOURCE 1 TO RECORD 4 
*SOURCE FILE: SENTMESSAGE.MP3
004441  SENTMESSAGE.MP3                  A4    C        01:00:00:00 01:00:00:11 01:20:02:12 01:20:02:23 
*FROM CLIP NAME:  SENTMESSAGE.MP3 
*A4 VOL =  +8.5 DB  PAN L100 
*PATCH SENTMESSAGE.MP3:  FROM SOURCE 1 TO RECORD 4 
*SOURCE FILE: SENTMESSAGE.MP3
004442  SENTMESSAGE.MP3                  A4    C        01:00:00:00 01:00:00:11 01:20:03:22 01:20:04:08 
*FROM CLIP NAME:  SENTMESSAGE.MP3 
*A4 VOL =  +8.5 DB  PAN L100 
*PATCH SENTMESSAGE.MP3:  FROM SOURCE 1 TO RECORD 4 
*SOURCE FILE: SENTMESSAGE.MP3
004443  SENTMESSAGE.MP3                  A4    C        01:00:00:00 01:00:00:11 01:20:05:11 01:20:05:22 
*FROM CLIP NAME:  SENTMESSAGE.MP3 
*A4 VOL =  +8.5 DB  PAN L100 
*PATCH SENTMESSAGE.MP3:  FROM SOURCE 1 TO RECORD 4 
*SOURCE FILE: SENTMESSAGE.MP3
004444  C0074                            V     C        00:17:42:21 00:17:43:19 01:20:07:18 01:20:08:16 
*FROM CLIP NAME:  C0074.NEW.01 
*SOURCE FILE: C0074
004445  BL                               V     C        00:00:00:00 00:00:45:04 01:20:07:18 01:20:52:22 
*SOURCE FILE: (NULL)
004446  M108_C016_20190729_R             V     C        15:14:27:16 15:14:28:18 01:20:08:16 01:20:09:18 
*FROM CLIP NAME:  M108_C016_20190729_R.NEW.01 
*SOURCE FILE: M108_C016_20190729_R
004447  M108_C019_20190729_R             V     C        15:20:21:02 15:20:21:14 01:20:09:18 01:20:10:05 
*FROM CLIP NAME:  M108_C019_20190729_R.NEW.01 
*SOURCE FILE: M108_C019_20190729_R
004448  M108_C017_20190729_R             V     C        15:17:27:24 15:17:28:11 01:20:10:05 01:20:10:17 
*FROM CLIP NAME:  M108_C017_20190729_R.NEW.01 
*SOURCE FILE: M108_C017_20190729_R
004449  M108_C019_20190729_R             V     C        15:20:40:12 15:20:40:24 01:20:10:17 01:20:11:04 
*FROM CLIP NAME:  M108_C019_20190729_R.NEW.01 
*SOURCE FILE: M108_C019_20190729_R
004450  M108_C017_20190729_R             V     C        15:17:37:04 15:17:37:16 01:20:11:04 01:20:11:16 
*FROM CLIP NAME:  M108_C017_20190729_R.NEW.01 
*SOURCE FILE: M108_C017_20190729_R
004451  M108_C024_20190729_R             V     C        16:07:56:18 16:07:58:11 01:20:11:16 01:20:13:09 
*FROM CLIP NAME:  M108_C024_20190729_R.NEW.01 
*SOURCE FILE: M108_C024_20190729_R
004452  A014C001_190728_R32C             V     C        14:47:03:22 14:47:05:03 01:20:13:09 01:20:14:15 
*FROM CLIP NAME:  A014C001_190728_R32C.NEW.01 
*SOURCE FILE: A014C001_190728_R32C
004453  19Y07M28                         A     C        14:47:03:22 14:47:05:03 01:20:13:09 01:20:14:15 
*FROM CLIP NAME:  19B_33K3/01.SYNC.01 
*SOURCE FILE: 19Y07M28
004454  19Y07M28                         A2    C        14:47:03:22 14:47:05:03 01:20:13:09 01:20:14:15 
*FROM CLIP NAME:  19B_33K3/01.SYNC.01 
*SOURCE FILE: 19Y07M28
004455  19Y07M28                         A3    C        14:47:03:22 14:47:05:03 01:20:13:09 01:20:14:15 
*FROM CLIP NAME:  19B_33K3/01.SYNC.01 
*SOURCE FILE: 19Y07M28
004456  19Y07M28                         A4    C        14:47:03:22 14:47:05:03 01:20:13:09 01:20:14:15 
*FROM CLIP NAME:  19B_33K3/01.SYNC.01 
*SOURCE FILE: 19Y07M28
004457  19Y07M28                         A5    C        14:47:03:22 14:47:05:03 01:20:13:09 01:20:14:15 
*FROM CLIP NAME:  19B_33K3/01.SYNC.01 
*SOURCE FILE: 19Y07M28
004458  19Y07M28                         A6    C        14:47:03:22 14:47:05:03 01:20:13:09 01:20:14:15 
*FROM CLIP NAME:  19B_33K3/01.SYNC.01 
*PATCH 19Y07M28:  FROM SOURCE 1 TO RECORD 6 
*SOURCE FILE: 19Y07M28
004459  19Y07M28                         A7    C        14:47:03:22 14:47:05:03 01:20:13:09 01:20:14:15 
*FROM CLIP NAME:  19B_33K3/01.SYNC.01 
*SOURCE FILE: 19Y07M28
004460  19Y07M28                         A8    C        14:47:03:22 14:47:05:03 01:20:13:09 01:20:14:15 
*FROM CLIP NAME:  19B_33K3/01.SYNC.01 
*PATCH 19Y07M28:  FROM SOURCE 9 TO RECORD 8 
*SOURCE FILE: 19Y07M28
004461  A014C001_190728_R32C             V     C        14:47:07:16 14:47:09:11 01:20:14:15 01:20:16:10 
*FROM CLIP NAME:  A014C001_190728_R32C.NEW.01 
*SOURCE FILE: A014C001_190728_R32C
004462  19Y07M28                         A     C        14:47:07:16 14:47:09:11 01:20:14:15 01:20:16:10 
*FROM CLIP NAME:  19B_33K3/01.SYNC.01 
*SOURCE FILE: 19Y07M28
004463  19Y07M28                         A2    C        14:47:07:16 14:47:09:11 01:20:14:15 01:20:16:10 
*FROM CLIP NAME:  19B_33K3/01.SYNC.01 
*SOURCE FILE: 19Y07M28
004464  19Y07M28                         A3    C        14:47:07:16 14:47:09:11 01:20:14:15 01:20:16:10 
*FROM CLIP NAME:  19B_33K3/01.SYNC.01 
*SOURCE FILE: 19Y07M28
004465  19Y07M28                         A4    C        14:47:07:16 14:47:09:11 01:20:14:15 01:20:16:10 
*FROM CLIP NAME:  19B_33K3/01.SYNC.01 
*SOURCE FILE: 19Y07M28
004466  19Y07M28                         A5    C        14:47:07:16 14:47:09:11 01:20:14:15 01:20:16:10 
*FROM CLIP NAME:  19B_33K3/01.SYNC.01 
*SOURCE FILE: 19Y07M28
004467  19Y07M28                         A6    C        14:47:07:16 14:47:09:11 01:20:14:15 01:20:16:10 
*FROM CLIP NAME:  19B_33K3/01.SYNC.01 
*PATCH 19Y07M28:  FROM SOURCE 1 TO RECORD 6 
*SOURCE FILE: 19Y07M28
004468  19Y07M28                         A7    C        14:47:07:16 14:47:09:11 01:20:14:15 01:20:16:10 
*FROM CLIP NAME:  19B_33K3/01.SYNC.01 
*SOURCE FILE: 19Y07M28
004469  19Y07M28                         A8    C        14:47:07:16 14:47:09:11 01:20:14:15 01:20:16:10 
*FROM CLIP NAME:  19B_33K3/01.SYNC.01 
*PATCH 19Y07M28:  FROM SOURCE 9 TO RECORD 8 
*SOURCE FILE: 19Y07M28
004470  CAM3_S001_S001_T003              V     C        00:00:55:08 00:00:56:11 01:20:16:10 01:20:17:13 
*FROM CLIP NAME:  CAM3_S001_S001_T003.NEW.01 
*SOURCE FILE: CAM3_S001_S001_T003
004471  19Y07M28                         A     C        14:44:23:14 14:44:24:17 01:20:16:10 01:20:17:13 
*FROM CLIP NAME:  19B_33K3/01.SYNC.01 
*SOURCE FILE: 19Y07M28
004472  19Y07M28                         A2    C        14:44:23:14 14:44:24:17 01:20:16:10 01:20:17:13 
*FROM CLIP NAME:  19B_33K3/01.SYNC.01 
*SOURCE FILE: 19Y07M28
004473  19Y07M28                         A3    C        14:44:23:14 14:44:24:17 01:20:16:10 01:20:17:13 
*FROM CLIP NAME:  19B_33K3/01.SYNC.01 
*SOURCE FILE: 19Y07M28
004474  19Y07M28                         A4    C        14:44:23:14 14:44:24:17 01:20:16:10 01:20:17:13 
*FROM CLIP NAME:  19B_33K3/01.SYNC.01 
*SOURCE FILE: 19Y07M28
004475  19Y07M28                         A5    C        14:44:23:14 14:44:24:17 01:20:16:10 01:20:17:13 
*FROM CLIP NAME:  19B_33K3/01.SYNC.01 
*SOURCE FILE: 19Y07M28
004476  19Y07M28                         A6    C        14:44:23:14 14:44:24:17 01:20:16:10 01:20:17:13 
*FROM CLIP NAME:  19B_33K3/01.SYNC.01 
*PATCH 19Y07M28:  FROM SOURCE 1 TO RECORD 6 
*SOURCE FILE: 19Y07M28
004477  19Y07M28                         A7    C        14:44:23:14 14:44:24:17 01:20:16:10 01:20:17:13 
*FROM CLIP NAME:  19B_33K3/01.SYNC.01 
*SOURCE FILE: 19Y07M28
004478  19Y07M28                         A8    C        14:44:23:14 14:44:24:17 01:20:16:10 01:20:17:13 
*FROM CLIP NAME:  19B_33K3/01.SYNC.01 
*PATCH 19Y07M28:  FROM SOURCE 9 TO RECORD 8 
*SOURCE FILE: 19Y07M28
004479  A013C004_190728_R32C             V     C        13:50:35:15 13:50:37:02 01:20:17:13 01:20:19:00 
*FROM CLIP NAME:  A013C004_190728_R32C.NEW.01 
*SOURCE FILE: A013C004_190728_R32C
004480  19Y07M28                         A     C        13:50:35:15 13:50:37:02 01:20:17:13 01:20:19:00 
*FROM CLIP NAME:  19B_33K2/01.SYNC.01 
*SOURCE FILE: 19Y07M28
004481  19Y07M28                         A2    C        13:50:35:15 13:50:37:02 01:20:17:13 01:20:19:00 
*FROM CLIP NAME:  19B_33K2/01.SYNC.01 
*SOURCE FILE: 19Y07M28
004482  19Y07M28                         A3    C        13:50:35:15 13:50:37:02 01:20:17:13 01:20:19:00 
*FROM CLIP NAME:  19B_33K2/01.SYNC.01 
*SOURCE FILE: 19Y07M28
004483  19Y07M28                         A4    C        13:50:35:15 13:50:37:02 01:20:17:13 01:20:19:00 
*FROM CLIP NAME:  19B_33K2/01.SYNC.01 
*SOURCE FILE: 19Y07M28
004484  19Y07M28                         A5    C        13:50:35:15 13:50:37:02 01:20:17:13 01:20:19:00 
*FROM CLIP NAME:  19B_33K2/01.SYNC.01 
*SOURCE FILE: 19Y07M28
004485  19Y07M28                         A6    C        13:50:35:15 13:50:37:02 01:20:17:13 01:20:19:00 
*FROM CLIP NAME:  19B_33K2/01.SYNC.01 
*PATCH 19Y07M28:  FROM SOURCE 1 TO RECORD 6 
*SOURCE FILE: 19Y07M28
004486  19Y07M28                         A7    C        13:50:35:15 13:50:37:02 01:20:17:13 01:20:19:00 
*FROM CLIP NAME:  19B_33K2/01.SYNC.01 
*PATCH 19Y07M28:  FROM SOURCE 9 TO RECORD 7 
*SOURCE FILE: 19Y07M28
004487  A013C003_190728_R32C             V     C        13:37:30:03 13:37:32:18 01:20:19:00 01:20:21:15 
*FROM CLIP NAME:  A013C003_190728_R32C.NEW.01 
*SOURCE FILE: A013C003_190728_R32C
004488  19Y07M28                         A     C        13:37:30:03 13:37:32:18 01:20:19:00 01:20:21:15 
*FROM CLIP NAME:  19B_33K1/01.SYNC.01 
*SOURCE FILE: 19Y07M28
004489  19Y07M28                         A2    C        13:37:30:03 13:37:32:18 01:20:19:00 01:20:21:15 
*FROM CLIP NAME:  19B_33K1/01.SYNC.01 
*SOURCE FILE: 19Y07M28
004490  19Y07M28                         A3    C        13:37:30:03 13:37:32:18 01:20:19:00 01:20:21:15 
*FROM CLIP NAME:  19B_33K1/01.SYNC.01 
*SOURCE FILE: 19Y07M28
004491  19Y07M28                         A4    C        13:37:30:03 13:37:32:18 01:20:19:00 01:20:21:15 
*FROM CLIP NAME:  19B_33K1/01.SYNC.01 
*SOURCE FILE: 19Y07M28
004492  19Y07M28                         A5    C        13:37:30:03 13:37:32:18 01:20:19:00 01:20:21:15 
*FROM CLIP NAME:  19B_33K1/01.SYNC.01 
*SOURCE FILE: 19Y07M28
004493  19Y07M28                         A6    C        13:37:30:03 13:37:32:18 01:20:19:00 01:20:21:15 
*FROM CLIP NAME:  19B_33K1/01.SYNC.01 
*PATCH 19Y07M28:  FROM SOURCE 1 TO RECORD 6 
*SOURCE FILE: 19Y07M28
004494  19Y07M28                         A7    C        13:37:30:03 13:37:32:18 01:20:19:00 01:20:21:15 
*FROM CLIP NAME:  19B_33K1/01.SYNC.01 
*PATCH 19Y07M28:  FROM SOURCE 9 TO RECORD 7 
*SOURCE FILE: 19Y07M28
004495  A013C003_190728_R32C             V     C        13:37:34:13 13:37:35:16 01:20:21:15 01:20:22:18 
*FROM CLIP NAME:  A013C003_190728_R32C.NEW.01 
*SOURCE FILE: A013C003_190728_R32C
004496  19Y07M28                         A     C        13:37:33:20 13:37:34:23 01:20:21:15 01:20:22:18 
*FROM CLIP NAME:  19B_33K1/01.SYNC.01 
*SOURCE FILE: 19Y07M28
004497  19Y07M28                         A2    C        13:37:33:20 13:37:34:23 01:20:21:15 01:20:22:18 
*FROM CLIP NAME:  19B_33K1/01.SYNC.01 
*SOURCE FILE: 19Y07M28
004498  19Y07M28                         A3    C        13:37:33:20 13:37:34:23 01:20:21:15 01:20:22:18 
*FROM CLIP NAME:  19B_33K1/01.SYNC.01 
*SOURCE FILE: 19Y07M28
004499  19Y07M28                         A4    C        13:37:33:20 13:37:34:23 01:20:21:15 01:20:22:18 
*FROM CLIP NAME:  19B_33K1/01.SYNC.01 
*SOURCE FILE: 19Y07M28
004500  19Y07M28                         A5    C        13:37:33:20 13:37:34:23 01:20:21:15 01:20:22:18 
*FROM CLIP NAME:  19B_33K1/01.SYNC.01 
*SOURCE FILE: 19Y07M28
004501  19Y07M28                         A6    C        13:37:33:20 13:37:34:23 01:20:21:15 01:20:22:18 
*FROM CLIP NAME:  19B_33K1/01.SYNC.01 
*PATCH 19Y07M28:  FROM SOURCE 1 TO RECORD 6 
*SOURCE FILE: 19Y07M28
004502  19Y07M28                         A7    C        13:37:33:20 13:37:34:23 01:20:21:15 01:20:22:18 
*FROM CLIP NAME:  19B_33K1/01.SYNC.01 
*PATCH 19Y07M28:  FROM SOURCE 9 TO RECORD 7 
*SOURCE FILE: 19Y07M28
004503  19Y07M28                         A     C        13:37:37:12 13:37:39:04 01:20:22:18 01:20:24:10 
*FROM CLIP NAME:  19B_33K1/01.SYNC.01 
*SOURCE FILE: 19Y07M28
004504  A013C003_190728_R32C             V     C        13:37:37:12 13:37:39:05 01:20:22:18 01:20:24:11 
*FROM CLIP NAME:  A013C003_190728_R32C.NEW.01 
*SOURCE FILE: A013C003_190728_R32C
004505  19Y07M28                         A2    C        13:37:37:12 13:37:39:05 01:20:22:18 01:20:24:11 
*FROM CLIP NAME:  19B_33K1/01.SYNC.01 
*SOURCE FILE: 19Y07M28
004506  19Y07M28                         A3    C        13:37:37:12 13:37:39:05 01:20:22:18 01:20:24:11 
*FROM CLIP NAME:  19B_33K1/01.SYNC.01 
*SOURCE FILE: 19Y07M28
004507  19Y07M28                         A4    C        13:37:37:12 13:37:39:05 01:20:22:18 01:20:24:11 
*FROM CLIP NAME:  19B_33K1/01.SYNC.01 
*SOURCE FILE: 19Y07M28
004508  19Y07M28                         A5    C        13:37:37:12 13:37:39:05 01:20:22:18 01:20:24:11 
*FROM CLIP NAME:  19B_33K1/01.SYNC.01 
*SOURCE FILE: 19Y07M28
004509  19Y07M28                         A6    C        13:37:37:12 13:37:39:05 01:20:22:18 01:20:24:11 
*FROM CLIP NAME:  19B_33K1/01.SYNC.01 
*PATCH 19Y07M28:  FROM SOURCE 1 TO RECORD 6 
*SOURCE FILE: 19Y07M28
004510  19Y07M28                         A7    C        13:37:37:12 13:37:39:05 01:20:22:18 01:20:24:11 
*FROM CLIP NAME:  19B_33K1/01.SYNC.01 
*PATCH 19Y07M28:  FROM SOURCE 9 TO RECORD 7 
*SOURCE FILE: 19Y07M28
004511  A019C013_190729_R32C             V     C        08:07:06:20 08:07:07:04 01:20:24:11 01:20:24:20 
*FROM CLIP NAME:  A019C013_190729_R32C.NEW.01.SUB.01 
*SOURCE FILE: A019C013_190729_R32C
004512  A019C013_190729_R32C             V     C        08:07:19:20 08:07:20:09 01:20:24:20 01:20:25:09 
*FROM CLIP NAME:  A019C013_190729_R32C.NEW.01.SUB.01 
*SOURCE FILE: A019C013_190729_R32C
004513  A019C013_190729_R32C             V     C        08:06:43:21 08:06:44:11 01:20:25:09 01:20:25:24 
*FROM CLIP NAME:  A019C013_190729_R32C.NEW.01.SUB.01 
*SOURCE FILE: A019C013_190729_R32C
004514  A010C012_190727_R32C             V     C        01:31:15:00 01:31:16:14 01:20:25:24 01:20:27:13 
*FROM CLIP NAME:  A010C012_190727_R32C.NEW.01.SUB.01 
*SOURCE FILE: A010C012_190727_R32C
004515  A010C023_190727_R32C             V     C        03:49:59:05 03:50:00:02 01:20:27:13 01:20:28:10 
*FROM CLIP NAME:  A010C023_190727_R32C.NEW.01.SUB.01 
*SOURCE FILE: A010C023_190727_R32C
004516  MSMMMOB.40                       V     C        17:47:14:18 17:47:16:04 01:20:28:10 01:20:29:21 
M2      MSMMMOB.40                                025.0 17:47:14:18 
*FROM CLIP NAME:  B032C009_190828_A1Y8 
*SOURCE FILE: MSMMMOB.40
004517  A010C017_190727_R32C             V     C        03:10:36:23 03:10:37:13 01:20:29:21 01:20:30:11 
*FROM CLIP NAME:  A010C017_190727_R32C.NEW.01.SUB.01 
*SOURCE FILE: A010C017_190727_R32C
004518  A010C017_190727_R32C             V     C        03:10:38:23 03:10:39:09 01:20:30:11 01:20:30:22 
*FROM CLIP NAME:  A010C017_190727_R32C.NEW.01.SUB.01 
*SOURCE FILE: A010C017_190727_R32C
004519  A010C017_190727_R32C             V     C        03:10:40:11 03:10:40:22 01:20:30:22 01:20:31:08 
*FROM CLIP NAME:  A010C017_190727_R32C.NEW.01.SUB.01 
*SOURCE FILE: A010C017_190727_R32C
004520  C0038                            V     C        00:10:10:24 00:10:12:14 01:20:31:08 01:20:32:23 
*FROM CLIP NAME:  C0038.NEW.01 
*SOURCE FILE: C0038
004521  A011C006_190727_R32C             V     C        04:07:55:06 04:07:57:18 01:20:32:23 01:20:35:10 
*FROM CLIP NAME:  A011C006_190727_R32C.NEW.01.SUB.01 
*SOURCE FILE: A011C006_190727_R32C
004522  C0075                            V     C        00:18:13:11 00:18:15:08 01:20:35:10 01:20:37:07 
*FROM CLIP NAME:  C0075.NEW.01 
*SOURCE FILE: C0075
004523  MSMMMOB.40                       V     C        17:47:29:22 17:47:31:22 01:20:37:07 01:20:39:07 
M2      MSMMMOB.40                                025.0 17:47:29:22 
*FROM CLIP NAME:  B032C009_190828_A1Y8 
*SOURCE FILE: MSMMMOB.40
004524  BL                               A17   C        00:00:00:00 00:00:00:00 01:20:38:06 01:20:38:06 
004524  BONEY_M_-_SUNNY.MP3              A17   D    010 01:03:36:04 01:03:36:14 01:20:38:06 01:20:38:16 
*TO CLIP NAME:  BONEY M - SUNNY.MP3 
*A17 VOL =  +0.0 DB  PAN L100 
*PATCH BONEY_M_-_SUNNY.MP3:  FROM SOURCE 1 TO RECORD 17 
*SOURCE FILE: (NULL)
004525  BL                               A18   C        00:00:00:00 00:00:00:00 01:20:38:06 01:20:38:06 
004525  BONEY_M_-_SUNNY.MP3              A18   D    010 01:03:36:04 01:03:36:14 01:20:38:06 01:20:38:16 
*TO CLIP NAME:  BONEY M - SUNNY.MP3 
*A18 VOL =  +0.0 DB  PAN R100 
*PATCH BONEY_M_-_SUNNY.MP3:  FROM SOURCE 2 TO RECORD 18 
*SOURCE FILE: (NULL)
004526  BONEY_M_-_SUNNY.MP3              A15   C        01:02:33:03 01:02:33:03 01:20:38:06 01:20:38:06 
004526  BL                               A15   D    014 00:00:00:00 00:00:00:14 01:20:38:06 01:20:38:20 
*FROM CLIP NAME:  BONEY M - SUNNY.MP3 
*A15 VOL =  +0.0 DB  PAN L100 
*PATCH BONEY_M_-_SUNNY.MP3:  FROM SOURCE 1 TO RECORD 15 
*SOURCE FILE: BONEY M - SUNNY.MP3
004527  BONEY_M_-_SUNNY.MP3              A16   C        01:02:33:03 01:02:33:03 01:20:38:06 01:20:38:06 
004527  BL                               A16   D    014 00:00:00:00 00:00:00:14 01:20:38:06 01:20:38:20 
*FROM CLIP NAME:  BONEY M - SUNNY.MP3 
*A16 VOL =  +0.0 DB  PAN R100 
*PATCH BONEY_M_-_SUNNY.MP3:  FROM SOURCE 2 TO RECORD 16 
*SOURCE FILE: BONEY M - SUNNY.MP3
004528  BONEY_M_-_SUNNY.MP3              A17   C        01:03:36:14 01:03:40:14 01:20:38:16 01:20:42:16 
*, PITCH II 
*FROM CLIP NAME:  BONEY M - SUNNY.MP3 
*A17 VOL =  +0.0 DB  PAN L100 
*PATCH BONEY_M_-_SUNNY.MP3:  FROM SOURCE 1 TO RECORD 17 
*SOURCE FILE: BONEY M - SUNNY.MP3
004529  BONEY_M_-_SUNNY.MP3              A18   C        01:03:36:14 01:03:40:14 01:20:38:16 01:20:42:16 
*, PITCH II 
*FROM CLIP NAME:  BONEY M - SUNNY.MP3 
*A18 VOL =  +0.0 DB  PAN R100 
*PATCH BONEY_M_-_SUNNY.MP3:  FROM SOURCE 2 TO RECORD 18 
*SOURCE FILE: BONEY M - SUNNY.MP3
004530  M108_C039_20190729_R             A     C        20:00:07:00 20:00:14:18 01:20:38:24 01:20:46:17 
*FROM CLIP NAME:  M108_C039_20190729_R.NEW.01 
*SOURCE FILE: M108_C039_20190729_R
004531  M108_C039_20190729_R             A2    C        20:00:07:00 20:00:14:18 01:20:38:24 01:20:46:17 
*FROM CLIP NAME:  M108_C039_20190729_R.NEW.01 
*SOURCE FILE: M108_C039_20190729_R
004532  M108_C039_20190729_R             V     C        20:00:08:18 20:00:19:20 01:20:39:07 01:20:46:17 
M2      M108_C039_20190729_R                      037.5 20:00:08:18 
*FROM CLIP NAME:  M108_C039_20190729_R.NEW.01 
*SOURCE FILE: M108_C039_20190729_R
004533  BONEY_M_-_SUNNY.MP3              A17   C        01:03:40:14 01:03:40:14 01:20:42:16 01:20:42:16 
004533  BL                               A17   D    437 00:00:00:00 00:00:17:12 01:20:42:16 01:21:00:03 
*, PITCH II 
*FROM CLIP NAME:  BONEY M - SUNNY.MP3 
*A17 VOL =  +0.0 DB  PAN L100 
*PATCH BONEY_M_-_SUNNY.MP3:  FROM SOURCE 1 TO RECORD 17 
*SOURCE FILE: BONEY M - SUNNY.MP3 
*REPAIR:  TRANSITION DURATION TRIMMED FROM 437 FRAMES DUE TO FORMAT LIMITS
004534  BONEY_M_-_SUNNY.MP3              A18   C        01:03:40:14 01:03:40:14 01:20:42:16 01:20:42:16 
004534  BL                               A18   D    437 00:00:00:00 00:00:17:12 01:20:42:16 01:21:00:03 
*, PITCH II 
*FROM CLIP NAME:  BONEY M - SUNNY.MP3 
*A18 VOL =  +0.0 DB  PAN R100 
*PATCH BONEY_M_-_SUNNY.MP3:  FROM SOURCE 2 TO RECORD 18 
*SOURCE FILE: BONEY M - SUNNY.MP3 
*REPAIR:  TRANSITION DURATION TRIMMED FROM 437 FRAMES DUE TO FORMAT LIMITS
004535  A005C003_190726_R32C             V     C        10:04:42:21 10:04:46:23 01:20:46:17 01:20:50:19 
*FROM CLIP NAME:  A005C003_190726_R32C.NEW.01 
*SOURCE FILE: A005C003_190726_R32C
004536  19Y07M26                         A     C        10:04:42:21 10:04:49:01 01:20:46:17 01:20:52:22 
*FROM CLIP NAME:  26K1/01.SYNC.01 
*SOURCE FILE: 19Y07M26
004537  19Y07M26                         A2    C        10:04:42:21 10:04:49:01 01:20:46:17 01:20:52:22 
*FROM CLIP NAME:  26K1/01.SYNC.01 
*SOURCE FILE: 19Y07M26
004538  19Y07M26                         A3    C        10:04:42:21 10:04:49:01 01:20:46:17 01:20:52:22 
*FROM CLIP NAME:  26K1/01.SYNC.01 
*SOURCE FILE: 19Y07M26
004539  19Y07M26                         A4    C        10:04:42:21 10:04:49:01 01:20:46:17 01:20:52:22 
*FROM CLIP NAME:  26K1/01.SYNC.01 
*SOURCE FILE: 19Y07M26
004540  19Y07M26                         A5    C        10:04:42:21 10:04:49:01 01:20:46:17 01:20:52:22 
*FROM CLIP NAME:  26K1/01.SYNC.01 
*SOURCE FILE: 19Y07M26
004541  19Y07M26                         A6    C        10:04:42:21 10:04:49:01 01:20:46:17 01:20:52:22 
*FROM CLIP NAME:  26K1/01.SYNC.01 
*SOURCE FILE: 19Y07M26
004542  19Y07M26                         A7    C        10:04:42:21 10:04:49:01 01:20:46:17 01:20:52:22 
*FROM CLIP NAME:  26K1/01.SYNC.01 
*SOURCE FILE: 19Y07M26
004543  19Y07M26                         A8    C        10:04:42:21 10:04:49:01 01:20:46:17 01:20:52:22 
*FROM CLIP NAME:  26K1/01.SYNC.01 
*PATCH 19Y07M26:  FROM SOURCE 1 TO RECORD 8 
*SOURCE FILE: 19Y07M26
004544  19Y07M26                         A9    C        10:04:42:21 10:04:49:01 01:20:46:17 01:20:52:22 
*FROM CLIP NAME:  26K1/01.SYNC.01 
*SOURCE FILE: 19Y07M26
004545  19Y07M26                         A10   C        10:04:42:21 10:04:49:01 01:20:46:17 01:20:52:22 
*FROM CLIP NAME:  26K1/01.SYNC.01 
*PATCH 19Y07M26:  FROM SOURCE 1 TO RECORD 10 
*SOURCE FILE: 19Y07M26
004546  19Y07M26                         A11   C        10:04:42:21 10:04:49:01 01:20:46:17 01:20:52:22 
*FROM CLIP NAME:  26K1/01.SYNC.01 
*PATCH 19Y07M26:  FROM SOURCE 1 TO RECORD 11 
*SOURCE FILE: 19Y07M26
004547  A005C006_190726_R32C             V     C        10:17:51:14 10:17:53:17 01:20:50:19 01:20:52:22 
*FROM CLIP NAME:  A005C006_190726_R32C.NEW.01 
*SOURCE FILE: A005C006_190726_R32C
004548  19Y07M26                         A12   C        11:50:35:11 11:50:45:14 01:20:50:20 01:21:00:23 
*FROM CLIP NAME:  26FON/03.SYNC.01 
*PATCH 19Y07M26:  FROM SOURCE 1 TO RECORD 12 
*SOURCE FILE: 19Y07M26
004549  19Y07M26                         A13   C        11:50:35:11 11:50:45:14 01:20:50:20 01:21:00:23 
*FROM CLIP NAME:  26FON/03.SYNC.01 
*PATCH 19Y07M26:  FROM SOURCE 1 TO RECORD 13 
*SOURCE FILE: 19Y07M26
004550  A006C008_190726_R32C             V     C        11:39:14:02 11:39:22:03 01:20:52:22 01:21:00:23 
*FROM CLIP NAME:  26-10-1 
*SOURCE FILE: A006C008_190726_R32C
004551  BL                               V     C        00:00:00:00 00:00:08:01 01:20:52:22 01:21:00:23 
*SOURCE FILE: (NULL)
004552  19Y07M26                         A     C        10:12:55:06 10:12:57:05 01:21:00:23 01:21:02:22 
*FROM CLIP NAME:  26K2/02.SYNC.01 
*SOURCE FILE: 19Y07M26
004553  19Y07M26                         A2    C        10:12:55:06 10:12:57:05 01:21:00:23 01:21:02:22 
*FROM CLIP NAME:  26K2/02.SYNC.01 
*SOURCE FILE: 19Y07M26
004554  19Y07M26                         A3    C        10:12:55:06 10:12:57:05 01:21:00:23 01:21:02:22 
*FROM CLIP NAME:  26K2/02.SYNC.01 
*SOURCE FILE: 19Y07M26
004555  19Y07M26                         A4    C        10:12:55:06 10:12:57:05 01:21:00:23 01:21:02:22 
*FROM CLIP NAME:  26K2/02.SYNC.01 
*SOURCE FILE: 19Y07M26
004556  19Y07M26                         A5    C        10:12:55:06 10:12:57:05 01:21:00:23 01:21:02:22 
*FROM CLIP NAME:  26K2/02.SYNC.01 
*SOURCE FILE: 19Y07M26
004557  19Y07M26                         A6    C        10:12:55:06 10:12:57:05 01:21:00:23 01:21:02:22 
*FROM CLIP NAME:  26K2/02.SYNC.01 
*SOURCE FILE: 19Y07M26
004558  19Y07M26                         A7    C        10:12:55:06 10:12:57:05 01:21:00:23 01:21:02:22 
*FROM CLIP NAME:  26K2/02.SYNC.01 
*SOURCE FILE: 19Y07M26
004559  19Y07M26                         A8    C        10:12:55:06 10:12:57:05 01:21:00:23 01:21:02:22 
*FROM CLIP NAME:  26K2/02.SYNC.01 
*PATCH 19Y07M26:  FROM SOURCE 1 TO RECORD 8 
*SOURCE FILE: 19Y07M26
004560  19Y07M26                         A9    C        10:12:55:06 10:12:57:05 01:21:00:23 01:21:02:22 
*FROM CLIP NAME:  26K2/02.SYNC.01 
*SOURCE FILE: 19Y07M26
004561  19Y07M26                         A10   C        10:12:55:06 10:12:57:05 01:21:00:23 01:21:02:22 
*FROM CLIP NAME:  26K2/02.SYNC.01 
*PATCH 19Y07M26:  FROM SOURCE 1 TO RECORD 10 
*SOURCE FILE: 19Y07M26
004562  19Y07M26                         A11   C        10:12:55:06 10:12:57:05 01:21:00:23 01:21:02:22 
*FROM CLIP NAME:  26K2/02.SYNC.01 
*PATCH 19Y07M26:  FROM SOURCE 1 TO RECORD 11 
*SOURCE FILE: 19Y07M26
004563  A005C005_190726_R32C             V     C        10:12:55:06 10:12:59:23 01:21:00:23 01:21:05:15 
*FROM CLIP NAME:  A005C005_190726_R32C.NEW.01 
*SOURCE FILE: A005C005_190726_R32C
004564  19Y07M26                         A12   C        11:50:45:14 11:50:50:06 01:21:00:23 01:21:05:15 
*FROM CLIP NAME:  26FON/03.SYNC.01 
*PATCH 19Y07M26:  FROM SOURCE 1 TO RECORD 12 
*SOURCE FILE: 19Y07M26
004565  19Y07M26                         A13   C        11:50:45:14 11:50:50:06 01:21:00:23 01:21:05:15 
*FROM CLIP NAME:  26FON/03.SYNC.01 
*PATCH 19Y07M26:  FROM SOURCE 1 TO RECORD 13 
*SOURCE FILE: 19Y07M26
004566  BL                               V     C        00:00:00:00 00:02:00:06 01:21:00:23 01:23:01:04 
*SOURCE FILE: (NULL)
004567  19Y07M26                         A     C        10:12:57:05 10:12:59:23 01:21:02:22 01:21:05:15 
*FROM CLIP NAME:  26K2/02.SYNC.01 
*SOURCE FILE: 19Y07M26
004568  19Y07M26                         A2    C        10:12:57:05 10:12:59:23 01:21:02:22 01:21:05:15 
*FROM CLIP NAME:  26K2/02.SYNC.01 
*SOURCE FILE: 19Y07M26
004569  19Y07M26                         A3    C        10:12:57:05 10:12:59:23 01:21:02:22 01:21:05:15 
*FROM CLIP NAME:  26K2/02.SYNC.01 
*SOURCE FILE: 19Y07M26
004570  19Y07M26                         A4    C        10:12:57:05 10:12:59:23 01:21:02:22 01:21:05:15 
*FROM CLIP NAME:  26K2/02.SYNC.01 
*SOURCE FILE: 19Y07M26
004571  19Y07M26                         A5    C        10:12:57:05 10:12:59:23 01:21:02:22 01:21:05:15 
*FROM CLIP NAME:  26K2/02.SYNC.01 
*SOURCE FILE: 19Y07M26
004572  19Y07M26                         A6    C        10:12:57:05 10:12:59:23 01:21:02:22 01:21:05:15 
*FROM CLIP NAME:  26K2/02.SYNC.01 
*SOURCE FILE: 19Y07M26
004573  19Y07M26                         A7    C        10:12:57:05 10:12:59:23 01:21:02:22 01:21:05:15 
*FROM CLIP NAME:  26K2/02.SYNC.01 
*SOURCE FILE: 19Y07M26
004574  19Y07M26                         A8    C        10:12:57:05 10:12:59:23 01:21:02:22 01:21:05:15 
*FROM CLIP NAME:  26K2/02.SYNC.01 
*PATCH 19Y07M26:  FROM SOURCE 1 TO RECORD 8 
*SOURCE FILE: 19Y07M26
004575  19Y07M26                         A9    C        10:12:57:05 10:12:59:23 01:21:02:22 01:21:05:15 
*FROM CLIP NAME:  26K2/02.SYNC.01 
*SOURCE FILE: 19Y07M26
004576  19Y07M26                         A10   C        10:12:57:05 10:12:59:23 01:21:02:22 01:21:05:15 
*FROM CLIP NAME:  26K2/02.SYNC.01 
*PATCH 19Y07M26:  FROM SOURCE 1 TO RECORD 10 
*SOURCE FILE: 19Y07M26
004577  19Y07M26                         A11   C        10:12:57:05 10:12:59:23 01:21:02:22 01:21:05:15 
*FROM CLIP NAME:  26K2/02.SYNC.01 
*PATCH 19Y07M26:  FROM SOURCE 1 TO RECORD 11 
*SOURCE FILE: 19Y07M26
004578  A005C007_190726_R32C             V     C        10:31:02:17 10:31:06:02 01:21:05:15 01:21:09:00 
*FROM CLIP NAME:  A005C007_190726_R32C.NEW.01 
*SOURCE FILE: A005C007_190726_R32C
004579  19Y07M26                         A     C        10:31:02:17 10:31:06:09 01:21:05:15 01:21:09:07 
*FROM CLIP NAME:  26K4/01.SYNC.01 
*SOURCE FILE: 19Y07M26
004580  19Y07M26                         A2    C        10:31:02:17 10:31:06:09 01:21:05:15 01:21:09:07 
*FROM CLIP NAME:  26K4/01.SYNC.01 
*A2 VOL = +10.0 DB  PAN L100 
*SOURCE FILE: 19Y07M26
004581  19Y07M26                         A3    C        10:31:02:17 10:31:06:09 01:21:05:15 01:21:09:07 
*FROM CLIP NAME:  26K4/01.SYNC.01 
*SOURCE FILE: 19Y07M26
004582  19Y07M26                         A4    C        10:31:02:17 10:31:06:09 01:21:05:15 01:21:09:07 
*FROM CLIP NAME:  26K4/01.SYNC.01 
*A4 VOL =  +8.0 DB  PAN L100 
*SOURCE FILE: 19Y07M26
004583  19Y07M26                         A5    C        10:31:02:17 10:31:06:09 01:21:05:15 01:21:09:07 
*FROM CLIP NAME:  26K4/01.SYNC.01 
*SOURCE FILE: 19Y07M26
004584  19Y07M26                         A6    C        10:31:02:17 10:31:06:09 01:21:05:15 01:21:09:07 
*FROM CLIP NAME:  26K4/01.SYNC.01 
*PATCH 19Y07M26:  FROM SOURCE 1 TO RECORD 6 
*SOURCE FILE: 19Y07M26
004585  19Y07M26                         A7    C        10:31:02:17 10:31:06:09 01:21:05:15 01:21:09:07 
*FROM CLIP NAME:  26K4/01.SYNC.01 
*SOURCE FILE: 19Y07M26
004586  19Y07M26                         A8    C        10:31:02:17 10:31:06:09 01:21:05:15 01:21:09:07 
*FROM CLIP NAME:  26K4/01.SYNC.01 
*PATCH 19Y07M26:  FROM SOURCE 1 TO RECORD 8 
*SOURCE FILE: 19Y07M26
004587  19Y07M26                         A9    C        10:31:02:17 10:31:06:09 01:21:05:15 01:21:09:07 
*FROM CLIP NAME:  26K4/01.SYNC.01 
*SOURCE FILE: 19Y07M26
004588  19Y07M26                         A12   C        11:50:50:06 11:51:19:07 01:21:05:15 01:21:34:16 
*FROM CLIP NAME:  26FON/03.SYNC.01 
*PATCH 19Y07M26:  FROM SOURCE 1 TO RECORD 12 
*SOURCE FILE: 19Y07M26
004589  19Y07M26                         A13   C        11:50:50:06 11:51:19:07 01:21:05:15 01:21:34:16 
*FROM CLIP NAME:  26FON/03.SYNC.01 
*PATCH 19Y07M26:  FROM SOURCE 1 TO RECORD 13 
*SOURCE FILE: 19Y07M26
004590  A005C005_190726_R32C             V     C        10:13:01:20 10:13:03:01 01:21:09:00 01:21:10:06 
*FROM CLIP NAME:  A005C005_190726_R32C.NEW.01 
*SOURCE FILE: A005C005_190726_R32C
004591  19Y07M26                         A     C        10:13:02:02 10:13:03:01 01:21:09:07 01:21:10:06 
*FROM CLIP NAME:  26K2/02.SYNC.01 
*SOURCE FILE: 19Y07M26
004592  19Y07M26                         A2    C        10:13:02:02 10:13:03:01 01:21:09:07 01:21:10:06 
*FROM CLIP NAME:  26K2/02.SYNC.01 
*SOURCE FILE: 19Y07M26
004593  19Y07M26                         A3    C        10:13:02:02 10:13:03:01 01:21:09:07 01:21:10:06 
*FROM CLIP NAME:  26K2/02.SYNC.01 
*SOURCE FILE: 19Y07M26
004594  19Y07M26                         A4    C        10:13:02:02 10:13:03:01 01:21:09:07 01:21:10:06 
*FROM CLIP NAME:  26K2/02.SYNC.01 
*SOURCE FILE: 19Y07M26
004595  19Y07M26                         A5    C        10:13:02:02 10:13:03:01 01:21:09:07 01:21:10:06 
*FROM CLIP NAME:  26K2/02.SYNC.01 
*SOURCE FILE: 19Y07M26
004596  19Y07M26                         A6    C        10:13:02:02 10:13:03:01 01:21:09:07 01:21:10:06 
*FROM CLIP NAME:  26K2/02.SYNC.01 
*SOURCE FILE: 19Y07M26
004597  19Y07M26                         A7    C        10:13:02:02 10:13:03:01 01:21:09:07 01:21:10:06 
*FROM CLIP NAME:  26K2/02.SYNC.01 
*SOURCE FILE: 19Y07M26
004598  19Y07M26                         A8    C        10:13:02:02 10:13:03:01 01:21:09:07 01:21:10:06 
*FROM CLIP NAME:  26K2/02.SYNC.01 
*PATCH 19Y07M26:  FROM SOURCE 1 TO RECORD 8 
*SOURCE FILE: 19Y07M26
004599  19Y07M26                         A9    C        10:13:02:02 10:13:03:01 01:21:09:07 01:21:10:06 
*FROM CLIP NAME:  26K2/02.SYNC.01 
*SOURCE FILE: 19Y07M26
004600  19Y07M26                         A10   C        10:13:02:02 10:13:03:01 01:21:09:07 01:21:10:06 
*FROM CLIP NAME:  26K2/02.SYNC.01 
*PATCH 19Y07M26:  FROM SOURCE 1 TO RECORD 10 
*SOURCE FILE: 19Y07M26
004601  19Y07M26                         A11   C        10:13:02:02 10:13:03:01 01:21:09:07 01:21:10:06 
*FROM CLIP NAME:  26K2/02.SYNC.01 
*PATCH 19Y07M26:  FROM SOURCE 1 TO RECORD 11 
*SOURCE FILE: 19Y07M26
004602  A005C016_190726_R32C             A     C        11:07:02:10 11:07:03:16 01:21:10:06 01:21:11:12 
*FROM CLIP NAME:  A005C016_190726_R32C.NEW.01 
*SOURCE FILE: A005C016_190726_R32C
004603  A005C016_190726_R32C             A2    C        11:07:02:10 11:07:03:16 01:21:10:06 01:21:11:12 
*FROM CLIP NAME:  A005C016_190726_R32C.NEW.01 
*SOURCE FILE: A005C016_190726_R32C
004604  19Y07M26                         A3    C        11:07:02:09 11:07:03:15 01:21:10:06 01:21:11:12 
*FROM CLIP NAME:  26K7/02.SYNC.01 
*SOURCE FILE: 19Y07M26
004605  19Y07M26                         A4    C        11:07:02:09 11:07:03:15 01:21:10:06 01:21:11:12 
*FROM CLIP NAME:  26K7/02.SYNC.01 
*SOURCE FILE: 19Y07M26
004606  19Y07M26                         A5    C        11:07:02:09 11:07:03:15 01:21:10:06 01:21:11:12 
*FROM CLIP NAME:  26K7/02.SYNC.01 
*SOURCE FILE: 19Y07M26
004607  19Y07M26                         A6    C        11:07:02:09 11:07:03:15 01:21:10:06 01:21:11:12 
*FROM CLIP NAME:  26K7/02.SYNC.01 
*PATCH 19Y07M26:  FROM SOURCE 1 TO RECORD 6 
*SOURCE FILE: 19Y07M26
004608  19Y07M26                         A7    C        11:07:02:09 11:07:03:15 01:21:10:06 01:21:11:12 
*FROM CLIP NAME:  26K7/02.SYNC.01 
*SOURCE FILE: 19Y07M26
004609  19Y07M26                         A8    C        11:07:02:09 11:07:03:15 01:21:10:06 01:21:11:12 
*FROM CLIP NAME:  26K7/02.SYNC.01 
*PATCH 19Y07M26:  FROM SOURCE 9 TO RECORD 8 
*SOURCE FILE: 19Y07M26
004610  A006C007_190726_R32C             V     C        11:34:13:13 11:34:15:07 01:21:10:06 01:21:12:00 
*FROM CLIP NAME:  A006C007_190726_R32C.NEW.01 
*SOURCE FILE: A006C007_190726_R32C
004611  19Y07M26                         A     C        10:04:50:08 10:04:50:21 01:21:11:12 01:21:12:00 
*FROM CLIP NAME:  26K1/01.SYNC.01 
*SOURCE FILE: 19Y07M26
004612  19Y07M26                         A2    C        10:04:50:08 10:04:50:21 01:21:11:12 01:21:12:00 
*FROM CLIP NAME:  26K1/01.SYNC.01 
*SOURCE FILE: 19Y07M26
004613  19Y07M26                         A3    C        10:04:50:08 10:04:50:21 01:21:11:12 01:21:12:00 
*FROM CLIP NAME:  26K1/01.SYNC.01 
*SOURCE FILE: 19Y07M26
004614  19Y07M26                         A4    C        10:04:50:08 10:04:50:21 01:21:11:12 01:21:12:00 
*FROM CLIP NAME:  26K1/01.SYNC.01 
*SOURCE FILE: 19Y07M26
004615  19Y07M26                         A5    C        10:04:50:08 10:04:50:21 01:21:11:12 01:21:12:00 
*FROM CLIP NAME:  26K1/01.SYNC.01 
*SOURCE FILE: 19Y07M26
004616  19Y07M26                         A6    C        10:04:50:08 10:04:50:21 01:21:11:12 01:21:12:00 
*FROM CLIP NAME:  26K1/01.SYNC.01 
*SOURCE FILE: 19Y07M26
004617  19Y07M26                         A7    C        10:04:50:08 10:04:50:21 01:21:11:12 01:21:12:00 
*FROM CLIP NAME:  26K1/01.SYNC.01 
*SOURCE FILE: 19Y07M26
004618  19Y07M26                         A8    C        10:04:50:08 10:04:50:21 01:21:11:12 01:21:12:00 
*FROM CLIP NAME:  26K1/01.SYNC.01 
*PATCH 19Y07M26:  FROM SOURCE 1 TO RECORD 8 
*SOURCE FILE: 19Y07M26
004619  19Y07M26                         A9    C        10:04:50:08 10:04:50:21 01:21:11:12 01:21:12:00 
*FROM CLIP NAME:  26K1/01.SYNC.01 
*SOURCE FILE: 19Y07M26
004620  19Y07M26                         A10   C        10:04:50:08 10:04:50:21 01:21:11:12 01:21:12:00 
*FROM CLIP NAME:  26K1/01.SYNC.01 
*PATCH 19Y07M26:  FROM SOURCE 1 TO RECORD 10 
*SOURCE FILE: 19Y07M26
004621  19Y07M26                         A11   C        10:04:50:08 10:04:50:21 01:21:11:12 01:21:12:00 
*FROM CLIP NAME:  26K1/01.SYNC.01 
*PATCH 19Y07M26:  FROM SOURCE 1 TO RECORD 11 
*SOURCE FILE: 19Y07M26
004622  A005C016_190726_R32C             V     C        11:07:03:04 11:07:05:16 01:21:12:00 01:21:14:12 
*FROM CLIP NAME:  A005C016_190726_R32C.NEW.01 
*SOURCE FILE: A005C016_190726_R32C
004623  A005C016_190726_R32C             A     C        11:07:03:04 11:07:05:16 01:21:12:00 01:21:14:12 
*FROM CLIP NAME:  A005C016_190726_R32C.NEW.01 
*SOURCE FILE: A005C016_190726_R32C
004624  A005C016_190726_R32C             A2    C        11:07:03:04 11:07:05:16 01:21:12:00 01:21:14:12 
*FROM CLIP NAME:  A005C016_190726_R32C.NEW.01 
*SOURCE FILE: A005C016_190726_R32C
004625  19Y07M26                         A3    C        11:07:03:03 11:07:05:15 01:21:12:00 01:21:14:12 
*FROM CLIP NAME:  26K7/02.SYNC.01 
*SOURCE FILE: 19Y07M26
004626  19Y07M26                         A4    C        11:07:03:03 11:07:05:15 01:21:12:00 01:21:14:12 
*FROM CLIP NAME:  26K7/02.SYNC.01 
*SOURCE FILE: 19Y07M26
004627  19Y07M26                         A5    C        11:07:03:03 11:07:05:15 01:21:12:00 01:21:14:12 
*FROM CLIP NAME:  26K7/02.SYNC.01 
*SOURCE FILE: 19Y07M26
004628  19Y07M26                         A6    C        11:07:03:03 11:07:05:15 01:21:12:00 01:21:14:12 
*FROM CLIP NAME:  26K7/02.SYNC.01 
*PATCH 19Y07M26:  FROM SOURCE 1 TO RECORD 6 
*SOURCE FILE: 19Y07M26
004629  19Y07M26                         A7    C        11:07:03:03 11:07:05:15 01:21:12:00 01:21:14:12 
*FROM CLIP NAME:  26K7/02.SYNC.01 
*SOURCE FILE: 19Y07M26
004630  19Y07M26                         A8    C        11:07:03:03 11:07:05:15 01:21:12:00 01:21:14:12 
*FROM CLIP NAME:  26K7/02.SYNC.01 
*PATCH 19Y07M26:  FROM SOURCE 9 TO RECORD 8 
*SOURCE FILE: 19Y07M26
004631  19Y07M26                         A     C        11:34:16:10 11:34:17:07 01:21:14:12 01:21:15:09 
*FROM CLIP NAME:  26K9/01.SYNC.01 
*SOURCE FILE: 19Y07M26
004632  19Y07M26                         A2    C        11:34:16:10 11:34:17:07 01:21:14:12 01:21:15:09 
*FROM CLIP NAME:  26K9/01.SYNC.01 
*SOURCE FILE: 19Y07M26
004633  19Y07M26                         A3    C        11:34:16:10 11:34:17:07 01:21:14:12 01:21:15:09 
*FROM CLIP NAME:  26K9/01.SYNC.01 
*SOURCE FILE: 19Y07M26
004634  19Y07M26                         A4    C        11:34:16:10 11:34:17:07 01:21:14:12 01:21:15:09 
*FROM CLIP NAME:  26K9/01.SYNC.01 
*SOURCE FILE: 19Y07M26
004635  19Y07M26                         A5    C        11:34:16:10 11:34:17:07 01:21:14:12 01:21:15:09 
*FROM CLIP NAME:  26K9/01.SYNC.01 
*SOURCE FILE: 19Y07M26
004636  19Y07M26                         A6    C        11:34:16:10 11:34:17:07 01:21:14:12 01:21:15:09 
*FROM CLIP NAME:  26K9/01.SYNC.01 
*PATCH 19Y07M26:  FROM SOURCE 1 TO RECORD 6 
*SOURCE FILE: 19Y07M26
004637  19Y07M26                         A7    C        11:34:16:10 11:34:17:07 01:21:14:12 01:21:15:09 
*FROM CLIP NAME:  26K9/01.SYNC.01 
*SOURCE FILE: 19Y07M26
004638  19Y07M26                         A8    C        11:34:16:10 11:34:17:07 01:21:14:12 01:21:15:09 
*FROM CLIP NAME:  26K9/01.SYNC.01 
*PATCH 19Y07M26:  FROM SOURCE 1 TO RECORD 8 
*SOURCE FILE: 19Y07M26
004639  19Y07M26                         A9    C        11:34:16:10 11:34:17:07 01:21:14:12 01:21:15:09 
*FROM CLIP NAME:  26K9/01.SYNC.01 
*SOURCE FILE: 19Y07M26
004640  A006C007_190726_R32C             V     C        11:34:16:11 11:34:17:23 01:21:14:12 01:21:15:24 
*FROM CLIP NAME:  A006C007_190726_R32C.NEW.01 
*SOURCE FILE: A006C007_190726_R32C
004641  19Y07M26                         A     C        10:13:03:14 10:13:05:18 01:21:15:09 01:21:17:13 
*FROM CLIP NAME:  26K2/02.SYNC.01 
*SOURCE FILE: 19Y07M26
004642  19Y07M26                         A2    C        10:13:03:14 10:13:05:18 01:21:15:09 01:21:17:13 
*FROM CLIP NAME:  26K2/02.SYNC.01 
*SOURCE FILE: 19Y07M26
004643  19Y07M26                         A3    C        10:13:03:14 10:13:05:18 01:21:15:09 01:21:17:13 
*FROM CLIP NAME:  26K2/02.SYNC.01 
*SOURCE FILE: 19Y07M26
004644  19Y07M26                         A4    C        10:13:03:14 10:13:05:18 01:21:15:09 01:21:17:13 
*FROM CLIP NAME:  26K2/02.SYNC.01 
*SOURCE FILE: 19Y07M26
004645  19Y07M26                         A5    C        10:13:03:14 10:13:05:18 01:21:15:09 01:21:17:13 
*FROM CLIP NAME:  26K2/02.SYNC.01 
*SOURCE FILE: 19Y07M26
004646  19Y07M26                         A6    C        10:13:03:14 10:13:05:18 01:21:15:09 01:21:17:13 
*FROM CLIP NAME:  26K2/02.SYNC.01 
*SOURCE FILE: 19Y07M26
004647  19Y07M26                         A7    C        10:13:03:14 10:13:05:18 01:21:15:09 01:21:17:13 
*FROM CLIP NAME:  26K2/02.SYNC.01 
*SOURCE FILE: 19Y07M26
004648  19Y07M26                         A8    C        10:13:03:14 10:13:05:18 01:21:15:09 01:21:17:13 
*FROM CLIP NAME:  26K2/02.SYNC.01 
*PATCH 19Y07M26:  FROM SOURCE 1 TO RECORD 8 
*SOURCE FILE: 19Y07M26
004649  19Y07M26                         A9    C        10:13:03:14 10:13:05:18 01:21:15:09 01:21:17:13 
*FROM CLIP NAME:  26K2/02.SYNC.01 
*SOURCE FILE: 19Y07M26
004650  19Y07M26                         A10   C        10:13:03:14 10:13:05:18 01:21:15:09 01:21:17:13 
*FROM CLIP NAME:  26K2/02.SYNC.01 
*PATCH 19Y07M26:  FROM SOURCE 1 TO RECORD 10 
*SOURCE FILE: 19Y07M26
004651  19Y07M26                         A11   C        10:13:03:14 10:13:05:18 01:21:15:09 01:21:17:13 
*FROM CLIP NAME:  26K2/02.SYNC.01 
*PATCH 19Y07M26:  FROM SOURCE 1 TO RECORD 11 
*SOURCE FILE: 19Y07M26
004652  A005C005_190726_R32C             V     C        10:13:04:04 10:13:08:05 01:21:15:24 01:21:20:00 
*FROM CLIP NAME:  A005C005_190726_R32C.NEW.01 
*SOURCE FILE: A005C005_190726_R32C
004653  19Y07M26                         A     C        10:13:05:18 10:13:10:03 01:21:17:13 01:21:21:23 
*FROM CLIP NAME:  26K2/02.SYNC.01 
*SOURCE FILE: 19Y07M26
004654  19Y07M26                         A2    C        10:13:05:18 10:13:10:03 01:21:17:13 01:21:21:23 
*FROM CLIP NAME:  26K2/02.SYNC.01 
*SOURCE FILE: 19Y07M26
004655  19Y07M26                         A3    C        10:13:05:18 10:13:10:03 01:21:17:13 01:21:21:23 
*FROM CLIP NAME:  26K2/02.SYNC.01 
*SOURCE FILE: 19Y07M26
004656  19Y07M26                         A4    C        10:13:05:18 10:13:10:03 01:21:17:13 01:21:21:23 
*FROM CLIP NAME:  26K2/02.SYNC.01 
*SOURCE FILE: 19Y07M26
004657  19Y07M26                         A5    C        10:13:05:18 10:13:10:03 01:21:17:13 01:21:21:23 
*FROM CLIP NAME:  26K2/02.SYNC.01 
*SOURCE FILE: 19Y07M26
004658  19Y07M26                         A6    C        10:13:05:18 10:13:10:03 01:21:17:13 01:21:21:23 
*FROM CLIP NAME:  26K2/02.SYNC.01 
*SOURCE FILE: 19Y07M26
004659  19Y07M26                         A7    C        10:13:05:18 10:13:10:03 01:21:17:13 01:21:21:23 
*FROM CLIP NAME:  26K2/02.SYNC.01 
*SOURCE FILE: 19Y07M26
004660  19Y07M26                         A8    C        10:13:05:18 10:13:10:03 01:21:17:13 01:21:21:23 
*FROM CLIP NAME:  26K2/02.SYNC.01 
*PATCH 19Y07M26:  FROM SOURCE 1 TO RECORD 8 
*SOURCE FILE: 19Y07M26
004661  19Y07M26                         A9    C        10:13:05:18 10:13:10:03 01:21:17:13 01:21:21:23 
*FROM CLIP NAME:  26K2/02.SYNC.01 
*SOURCE FILE: 19Y07M26
004662  19Y07M26                         A10   C        10:13:05:18 10:13:10:03 01:21:17:13 01:21:21:23 
*FROM CLIP NAME:  26K2/02.SYNC.01 
*PATCH 19Y07M26:  FROM SOURCE 1 TO RECORD 10 
*SOURCE FILE: 19Y07M26
004663  19Y07M26                         A11   C        10:13:05:18 10:13:10:03 01:21:17:13 01:21:21:23 
*FROM CLIP NAME:  26K2/02.SYNC.01 
*PATCH 19Y07M26:  FROM SOURCE 1 TO RECORD 11 
*SOURCE FILE: 19Y07M26
004664  A005C002_190726_R32C             V     C        09:55:36:17 09:55:38:15 01:21:20:00 01:21:21:23 
*FROM CLIP NAME:  A005C002_190726_R32C.NEW.01 
*SOURCE FILE: A005C002_190726_R32C
004665  A005C012_190726_R32C             V     C        10:57:00:05 10:57:03:00 01:21:21:23 01:21:24:18 
*FROM CLIP NAME:  A005C012_190726_R32C.NEW.01 
*SOURCE FILE: A005C012_190726_R32C
004666  19Y07M26                         A     C        10:57:00:04 10:57:03:00 01:21:21:23 01:21:24:19 
*FROM CLIP NAME:  26K6/03.SYNC.01 
*SOURCE FILE: 19Y07M26
004667  19Y07M26                         A2    C        10:57:00:04 10:57:03:00 01:21:21:23 01:21:24:19 
*FROM CLIP NAME:  26K6/03.SYNC.01 
*SOURCE FILE: 19Y07M26
004668  19Y07M26                         A3    C        10:57:00:04 10:57:03:00 01:21:21:23 01:21:24:19 
*FROM CLIP NAME:  26K6/03.SYNC.01 
*SOURCE FILE: 19Y07M26
004669  19Y07M26                         A4    C        10:57:00:04 10:57:03:00 01:21:21:23 01:21:24:19 
*FROM CLIP NAME:  26K6/03.SYNC.01 
*SOURCE FILE: 19Y07M26
004670  19Y07M26                         A5    C        10:57:00:04 10:57:03:00 01:21:21:23 01:21:24:19 
*FROM CLIP NAME:  26K6/03.SYNC.01 
*SOURCE FILE: 19Y07M26
004671  19Y07M26                         A6    C        10:57:00:04 10:57:03:00 01:21:21:23 01:21:24:19 
*FROM CLIP NAME:  26K6/03.SYNC.01 
*PATCH 19Y07M26:  FROM SOURCE 1 TO RECORD 6 
*SOURCE FILE: 19Y07M26
004672  19Y07M26                         A7    C        10:57:00:04 10:57:03:00 01:21:21:23 01:21:24:19 
*FROM CLIP NAME:  26K6/03.SYNC.01 
*SOURCE FILE: 19Y07M26
004673  19Y07M26                         A8    C        10:57:00:04 10:57:03:00 01:21:21:23 01:21:24:19 
*FROM CLIP NAME:  26K6/03.SYNC.01 
*PATCH 19Y07M26:  FROM SOURCE 1 TO RECORD 8 
*SOURCE FILE: 19Y07M26
004674  19Y07M26                         A9    C        10:57:00:04 10:57:03:00 01:21:21:23 01:21:24:19 
*FROM CLIP NAME:  26K6/03.SYNC.01 
*SOURCE FILE: 19Y07M26
004675  A006C006_190726_R32C             V     C        11:30:10:13 11:30:13:04 01:21:24:18 01:21:27:09 
*FROM CLIP NAME:  A006C006_190726_R32C.NEW.01 
*SOURCE FILE: A006C006_190726_R32C
004676  19Y07M26                         A     C        10:57:15:05 10:57:15:12 01:21:24:19 01:21:25:01 
*FROM CLIP NAME:  26K6/03.SYNC.01 
*SOURCE FILE: 19Y07M26
004677  19Y07M26                         A2    C        10:57:15:05 10:57:15:12 01:21:24:19 01:21:25:01 
*FROM CLIP NAME:  26K6/03.SYNC.01 
*SOURCE FILE: 19Y07M26
004678  19Y07M26                         A3    C        10:57:15:05 10:57:15:12 01:21:24:19 01:21:25:01 
*FROM CLIP NAME:  26K6/03.SYNC.01 
*SOURCE FILE: 19Y07M26
004679  19Y07M26                         A4    C        10:57:15:05 10:57:15:12 01:21:24:19 01:21:25:01 
*FROM CLIP NAME:  26K6/03.SYNC.01 
*SOURCE FILE: 19Y07M26
004680  19Y07M26                         A5    C        10:57:15:05 10:57:15:12 01:21:24:19 01:21:25:01 
*FROM CLIP NAME:  26K6/03.SYNC.01 
*SOURCE FILE: 19Y07M26
004681  19Y07M26                         A6    C        10:57:15:05 10:57:15:12 01:21:24:19 01:21:25:01 
*FROM CLIP NAME:  26K6/03.SYNC.01 
*PATCH 19Y07M26:  FROM SOURCE 1 TO RECORD 6 
*SOURCE FILE: 19Y07M26
004682  19Y07M26                         A7    C        10:57:15:05 10:57:15:12 01:21:24:19 01:21:25:01 
*FROM CLIP NAME:  26K6/03.SYNC.01 
*SOURCE FILE: 19Y07M26
004683  19Y07M26                         A8    C        10:57:15:05 10:57:15:12 01:21:24:19 01:21:25:01 
*FROM CLIP NAME:  26K6/03.SYNC.01 
*PATCH 19Y07M26:  FROM SOURCE 1 TO RECORD 8 
*SOURCE FILE: 19Y07M26
004684  19Y07M26                         A9    C        10:57:15:05 10:57:15:12 01:21:24:19 01:21:25:01 
*FROM CLIP NAME:  26K6/03.SYNC.01 
*SOURCE FILE: 19Y07M26
004685  19Y07M26                         A     C        11:30:10:20 11:30:13:03 01:21:25:01 01:21:27:09 
*FROM CLIP NAME:  26K8/06.SYNC.01 
*SOURCE FILE: 19Y07M26
004686  19Y07M26                         A2    C        11:30:10:20 11:30:13:03 01:21:25:01 01:21:27:09 
*FROM CLIP NAME:  26K8/06.SYNC.01 
*SOURCE FILE: 19Y07M26
004687  19Y07M26                         A3    C        11:30:10:20 11:30:13:03 01:21:25:01 01:21:27:09 
*FROM CLIP NAME:  26K8/06.SYNC.01 
*SOURCE FILE: 19Y07M26
004688  19Y07M26                         A4    C        11:30:10:20 11:30:13:03 01:21:25:01 01:21:27:09 
*FROM CLIP NAME:  26K8/06.SYNC.01 
*SOURCE FILE: 19Y07M26
004689  19Y07M26                         A5    C        11:30:10:20 11:30:13:03 01:21:25:01 01:21:27:09 
*FROM CLIP NAME:  26K8/06.SYNC.01 
*SOURCE FILE: 19Y07M26
004690  19Y07M26                         A6    C        11:30:10:20 11:30:13:03 01:21:25:01 01:21:27:09 
*FROM CLIP NAME:  26K8/06.SYNC.01 
*PATCH 19Y07M26:  FROM SOURCE 1 TO RECORD 6 
*SOURCE FILE: 19Y07M26
004691  19Y07M26                         A7    C        11:30:10:20 11:30:13:03 01:21:25:01 01:21:27:09 
*FROM CLIP NAME:  26K8/06.SYNC.01 
*SOURCE FILE: 19Y07M26
004692  19Y07M26                         A8    C        11:30:10:20 11:30:13:03 01:21:25:01 01:21:27:09 
*FROM CLIP NAME:  26K8/06.SYNC.01 
*PATCH 19Y07M26:  FROM SOURCE 1 TO RECORD 8 
*SOURCE FILE: 19Y07M26
004693  19Y07M26                         A9    C        11:30:10:20 11:30:13:03 01:21:25:01 01:21:27:09 
*FROM CLIP NAME:  26K8/06.SYNC.01 
*SOURCE FILE: 19Y07M26
004694  19Y07M26                         A     C        10:57:04:24 10:57:06:21 01:21:27:09 01:21:29:06 
*FROM CLIP NAME:  26K6/03.SYNC.01 
*SOURCE FILE: 19Y07M26
004695  19Y07M26                         A2    C        10:57:04:24 10:57:06:21 01:21:27:09 01:21:29:06 
*FROM CLIP NAME:  26K6/03.SYNC.01 
*SOURCE FILE: 19Y07M26
004696  19Y07M26                         A3    C        10:57:04:24 10:57:06:21 01:21:27:09 01:21:29:06 
*FROM CLIP NAME:  26K6/03.SYNC.01 
*SOURCE FILE: 19Y07M26
004697  19Y07M26                         A4    C        10:57:04:24 10:57:06:21 01:21:27:09 01:21:29:06 
*FROM CLIP NAME:  26K6/03.SYNC.01 
*SOURCE FILE: 19Y07M26
004698  19Y07M26                         A5    C        10:57:04:24 10:57:06:21 01:21:27:09 01:21:29:06 
*FROM CLIP NAME:  26K6/03.SYNC.01 
*SOURCE FILE: 19Y07M26
004699  19Y07M26                         A6    C        10:57:04:24 10:57:06:21 01:21:27:09 01:21:29:06 
*FROM CLIP NAME:  26K6/03.SYNC.01 
*PATCH 19Y07M26:  FROM SOURCE 1 TO RECORD 6 
*SOURCE FILE: 19Y07M26
004700  19Y07M26                         A7    C        10:57:04:24 10:57:06:21 01:21:27:09 01:21:29:06 
*FROM CLIP NAME:  26K6/03.SYNC.01 
*SOURCE FILE: 19Y07M26
004701  19Y07M26                         A8    C        10:57:04:24 10:57:06:21 01:21:27:09 01:21:29:06 
*FROM CLIP NAME:  26K6/03.SYNC.01 
*PATCH 19Y07M26:  FROM SOURCE 1 TO RECORD 8 
*SOURCE FILE: 19Y07M26
004702  19Y07M26                         A9    C        10:57:04:24 10:57:06:21 01:21:27:09 01:21:29:06 
*FROM CLIP NAME:  26K6/03.SYNC.01 
*SOURCE FILE: 19Y07M26
004703  A005C012_190726_R32C             V     C        10:57:05:00 10:57:07:04 01:21:27:09 01:21:29:13 
*FROM CLIP NAME:  A005C012_190726_R32C.NEW.01 
*SOURCE FILE: A005C012_190726_R32C
004704  19Y07M26                         A     C        10:57:15:04 10:57:16:05 01:21:29:06 01:21:30:07 
*FROM CLIP NAME:  26K6/03.SYNC.01 
*SOURCE FILE: 19Y07M26
004705  19Y07M26                         A2    C        10:57:15:04 10:57:16:05 01:21:29:06 01:21:30:07 
*FROM CLIP NAME:  26K6/03.SYNC.01 
*SOURCE FILE: 19Y07M26
004706  19Y07M26                         A3    C        10:57:15:04 10:57:16:05 01:21:29:06 01:21:30:07 
*FROM CLIP NAME:  26K6/03.SYNC.01 
*SOURCE FILE: 19Y07M26
004707  19Y07M26                         A4    C        10:57:15:04 10:57:16:05 01:21:29:06 01:21:30:07 
*FROM CLIP NAME:  26K6/03.SYNC.01 
*SOURCE FILE: 19Y07M26
004708  19Y07M26                         A5    C        10:57:15:04 10:57:16:05 01:21:29:06 01:21:30:07 
*FROM CLIP NAME:  26K6/03.SYNC.01 
*SOURCE FILE: 19Y07M26
004709  19Y07M26                         A6    C        10:57:15:04 10:57:16:05 01:21:29:06 01:21:30:07 
*FROM CLIP NAME:  26K6/03.SYNC.01 
*PATCH 19Y07M26:  FROM SOURCE 1 TO RECORD 6 
*SOURCE FILE: 19Y07M26
004710  19Y07M26                         A7    C        10:57:15:04 10:57:16:05 01:21:29:06 01:21:30:07 
*FROM CLIP NAME:  26K6/03.SYNC.01 
*SOURCE FILE: 19Y07M26
004711  19Y07M26                         A8    C        10:57:15:04 10:57:16:05 01:21:29:06 01:21:30:07 
*FROM CLIP NAME:  26K6/03.SYNC.01 
*PATCH 19Y07M26:  FROM SOURCE 1 TO RECORD 8 
*SOURCE FILE: 19Y07M26
004712  19Y07M26                         A9    C        10:57:15:04 10:57:16:05 01:21:29:06 01:21:30:07 
*FROM CLIP NAME:  26K6/03.SYNC.01 
*SOURCE FILE: 19Y07M26
004713  A006C006_190726_R32C             V     C        11:30:13:20 11:30:16:13 01:21:29:13 01:21:32:06 
*FROM CLIP NAME:  A006C006_190726_R32C.NEW.01 
*SOURCE FILE: A006C006_190726_R32C
004714  19Y07M26                         A     C        11:30:14:13 11:30:16:08 01:21:30:07 01:21:32:02 
*FROM CLIP NAME:  26K8/06.SYNC.01 
*SOURCE FILE: 19Y07M26
004715  19Y07M26                         A2    C        11:30:14:13 11:30:16:08 01:21:30:07 01:21:32:02 
*FROM CLIP NAME:  26K8/06.SYNC.01 
*SOURCE FILE: 19Y07M26
004716  19Y07M26                         A3    C        11:30:14:13 11:30:16:08 01:21:30:07 01:21:32:02 
*FROM CLIP NAME:  26K8/06.SYNC.01 
*SOURCE FILE: 19Y07M26
004717  19Y07M26                         A4    C        11:30:14:13 11:30:16:08 01:21:30:07 01:21:32:02 
*FROM CLIP NAME:  26K8/06.SYNC.01 
*SOURCE FILE: 19Y07M26
004718  19Y07M26                         A5    C        11:30:14:13 11:30:16:08 01:21:30:07 01:21:32:02 
*FROM CLIP NAME:  26K8/06.SYNC.01 
*SOURCE FILE: 19Y07M26
004719  19Y07M26                         A6    C        11:30:14:13 11:30:16:08 01:21:30:07 01:21:32:02 
*FROM CLIP NAME:  26K8/06.SYNC.01 
*PATCH 19Y07M26:  FROM SOURCE 1 TO RECORD 6 
*SOURCE FILE: 19Y07M26
004720  19Y07M26                         A7    C        11:30:14:13 11:30:16:08 01:21:30:07 01:21:32:02 
*FROM CLIP NAME:  26K8/06.SYNC.01 
*SOURCE FILE: 19Y07M26
004721  19Y07M26                         A8    C        11:30:14:13 11:30:16:08 01:21:30:07 01:21:32:02 
*FROM CLIP NAME:  26K8/06.SYNC.01 
*PATCH 19Y07M26:  FROM SOURCE 1 TO RECORD 8 
*SOURCE FILE: 19Y07M26
004722  19Y07M26                         A9    C        11:30:14:13 11:30:16:08 01:21:30:07 01:21:32:02 
*FROM CLIP NAME:  26K8/06.SYNC.01 
*SOURCE FILE: 19Y07M26
004723  19Y07M26                         A     C        09:52:19:00 09:52:19:24 01:21:32:02 01:21:33:01 
*FROM CLIP NAME:  25E6K1/01.SYNC.01 
*SOURCE FILE: 19Y07M26
004724  19Y07M26                         A2    C        09:52:19:00 09:52:19:24 01:21:32:02 01:21:33:01 
*FROM CLIP NAME:  25E6K1/01.SYNC.01 
*SOURCE FILE: 19Y07M26
004725  19Y07M26                         A3    C        09:52:19:00 09:52:19:24 01:21:32:02 01:21:33:01 
*FROM CLIP NAME:  25E6K1/01.SYNC.01 
*SOURCE FILE: 19Y07M26
004726  19Y07M26                         A4    C        09:52:19:00 09:52:19:24 01:21:32:02 01:21:33:01 
*FROM CLIP NAME:  25E6K1/01.SYNC.01 
*SOURCE FILE: 19Y07M26
004727  19Y07M26                         A5    C        09:52:19:00 09:52:19:24 01:21:32:02 01:21:33:01 
*FROM CLIP NAME:  25E6K1/01.SYNC.01 
*SOURCE FILE: 19Y07M26
004728  19Y07M26                         A6    C        09:52:19:00 09:52:19:24 01:21:32:02 01:21:33:01 
*FROM CLIP NAME:  25E6K1/01.SYNC.01 
*SOURCE FILE: 19Y07M26
004729  19Y07M26                         A7    C        09:52:19:00 09:52:19:24 01:21:32:02 01:21:33:01 
*FROM CLIP NAME:  25E6K1/01.SYNC.01 
*SOURCE FILE: 19Y07M26
004730  19Y07M26                         A8    C        09:52:19:00 09:52:19:24 01:21:32:02 01:21:33:01 
*FROM CLIP NAME:  25E6K1/01.SYNC.01 
*PATCH 19Y07M26:  FROM SOURCE 1 TO RECORD 8 
*SOURCE FILE: 19Y07M26
004731  19Y07M26                         A9    C        09:52:19:00 09:52:19:24 01:21:32:02 01:21:33:01 
*FROM CLIP NAME:  25E6K1/01.SYNC.01 
*SOURCE FILE: 19Y07M26
004732  B002C001_190726_R4CP             V     C        09:52:19:03 09:52:22:06 01:21:32:06 01:21:35:09 
*FROM CLIP NAME:  B002C001_190726_R4CP.NEW.01 
*SOURCE FILE: B002C001_190726_R4CP
004733  19Y07M26                         A     C        10:48:02:17 10:48:04:07 01:21:33:01 01:21:34:16 
*FROM CLIP NAME:  26K6/02.SYNC.01 
*SOURCE FILE: 19Y07M26
004734  19Y07M26                         A2    C        10:48:02:17 10:48:04:07 01:21:33:01 01:21:34:16 
*FROM CLIP NAME:  26K6/02.SYNC.01 
*SOURCE FILE: 19Y07M26
004735  19Y07M26                         A3    C        10:48:02:17 10:48:04:07 01:21:33:01 01:21:34:16 
*FROM CLIP NAME:  26K6/02.SYNC.01 
*SOURCE FILE: 19Y07M26
004736  19Y07M26                         A4    C        10:48:02:17 10:48:04:07 01:21:33:01 01:21:34:16 
*FROM CLIP NAME:  26K6/02.SYNC.01 
*SOURCE FILE: 19Y07M26
004737  19Y07M26                         A5    C        10:48:02:17 10:48:04:07 01:21:33:01 01:21:34:16 
*FROM CLIP NAME:  26K6/02.SYNC.01 
*SOURCE FILE: 19Y07M26
004738  19Y07M26                         A6    C        10:48:02:17 10:48:04:07 01:21:33:01 01:21:34:16 
*FROM CLIP NAME:  26K6/02.SYNC.01 
*PATCH 19Y07M26:  FROM SOURCE 1 TO RECORD 6 
*SOURCE FILE: 19Y07M26
004739  19Y07M26                         A7    C        10:48:02:17 10:48:04:07 01:21:33:01 01:21:34:16 
*FROM CLIP NAME:  26K6/02.SYNC.01 
*SOURCE FILE: 19Y07M26
004740  19Y07M26                         A8    C        10:48:02:17 10:48:04:07 01:21:33:01 01:21:34:16 
*FROM CLIP NAME:  26K6/02.SYNC.01 
*PATCH 19Y07M26:  FROM SOURCE 1 TO RECORD 8 
*SOURCE FILE: 19Y07M26
004741  19Y07M26                         A9    C        10:48:02:17 10:48:04:07 01:21:33:01 01:21:34:16 
*FROM CLIP NAME:  26K6/02.SYNC.01 
*SOURCE FILE: 19Y07M26
004742  19Y07M26                         A     C        10:46:23:20 10:46:24:24 01:21:34:16 01:21:35:20 
*FROM CLIP NAME:  26K6/01.SYNC.01 
*SOURCE FILE: 19Y07M26
004743  19Y07M26                         A2    C        10:46:23:20 10:46:24:24 01:21:34:16 01:21:35:20 
*FROM CLIP NAME:  26K6/01.SYNC.01 
*SOURCE FILE: 19Y07M26
004744  19Y07M26                         A3    C        10:46:23:20 10:46:24:24 01:21:34:16 01:21:35:20 
*FROM CLIP NAME:  26K6/01.SYNC.01 
*SOURCE FILE: 19Y07M26
004745  19Y07M26                         A4    C        10:46:23:20 10:46:24:24 01:21:34:16 01:21:35:20 
*FROM CLIP NAME:  26K6/01.SYNC.01 
*SOURCE FILE: 19Y07M26
004746  19Y07M26                         A5    C        10:46:23:20 10:46:24:24 01:21:34:16 01:21:35:20 
*FROM CLIP NAME:  26K6/01.SYNC.01 
*SOURCE FILE: 19Y07M26
004747  19Y07M26                         A6    C        10:46:23:20 10:46:24:24 01:21:34:16 01:21:35:20 
*FROM CLIP NAME:  26K6/01.SYNC.01 
*PATCH 19Y07M26:  FROM SOURCE 1 TO RECORD 6 
*SOURCE FILE: 19Y07M26
004748  19Y07M26                         A7    C        10:46:23:20 10:46:24:24 01:21:34:16 01:21:35:20 
*FROM CLIP NAME:  26K6/01.SYNC.01 
*SOURCE FILE: 19Y07M26
004749  19Y07M26                         A8    C        10:46:23:20 10:46:24:24 01:21:34:16 01:21:35:20 
*FROM CLIP NAME:  26K6/01.SYNC.01 
*PATCH 19Y07M26:  FROM SOURCE 1 TO RECORD 8 
*SOURCE FILE: 19Y07M26
004750  19Y07M26                         A9    C        10:46:23:20 10:46:24:24 01:21:34:16 01:21:35:20 
*FROM CLIP NAME:  26K6/01.SYNC.01 
*SOURCE FILE: 19Y07M26
004751  19Y07M26                         A12   C        11:51:19:02 11:51:30:18 01:21:34:16 01:21:46:07 
*FROM CLIP NAME:  26FON/03.SYNC.01 
*PATCH 19Y07M26:  FROM SOURCE 1 TO RECORD 12 
*SOURCE FILE: 19Y07M26
004752  19Y07M26                         A13   C        11:51:19:02 11:51:30:18 01:21:34:16 01:21:46:07 
*FROM CLIP NAME:  26FON/03.SYNC.01 
*PATCH 19Y07M26:  FROM SOURCE 1 TO RECORD 13 
*SOURCE FILE: 19Y07M26
004753  A005C008_190726_R32C             V     C        10:36:11:24 10:36:18:19 01:21:35:09 01:21:42:04 
*FROM CLIP NAME:  A005C008_190726_R32C.NEW.01 
*SOURCE FILE: A005C008_190726_R32C
004754  19Y07M26                         A     C        10:36:12:10 10:36:12:19 01:21:35:20 01:21:36:04 
*FROM CLIP NAME:  26K5/01.SYNC.01 
*SOURCE FILE: 19Y07M26
004755  19Y07M26                         A2    C        10:36:12:10 10:36:12:19 01:21:35:20 01:21:36:04 
*FROM CLIP NAME:  26K5/01.SYNC.01 
*SOURCE FILE: 19Y07M26
004756  19Y07M26                         A3    C        10:36:12:10 10:36:12:19 01:21:35:20 01:21:36:04 
*FROM CLIP NAME:  26K5/01.SYNC.01 
*SOURCE FILE: 19Y07M26
004757  19Y07M26                         A4    C        10:36:12:10 10:36:12:19 01:21:35:20 01:21:36:04 
*FROM CLIP NAME:  26K5/01.SYNC.01 
*SOURCE FILE: 19Y07M26
004758  19Y07M26                         A5    C        10:36:12:10 10:36:12:19 01:21:35:20 01:21:36:04 
*FROM CLIP NAME:  26K5/01.SYNC.01 
*SOURCE FILE: 19Y07M26
004759  19Y07M26                         A6    C        10:36:12:10 10:36:12:19 01:21:35:20 01:21:36:04 
*FROM CLIP NAME:  26K5/01.SYNC.01 
*PATCH 19Y07M26:  FROM SOURCE 1 TO RECORD 6 
*SOURCE FILE: 19Y07M26
004760  19Y07M26                         A7    C        10:36:12:10 10:36:12:19 01:21:35:20 01:21:36:04 
*FROM CLIP NAME:  26K5/01.SYNC.01 
*SOURCE FILE: 19Y07M26
004761  19Y07M26                         A8    C        10:36:12:10 10:36:12:19 01:21:35:20 01:21:36:04 
*FROM CLIP NAME:  26K5/01.SYNC.01 
*PATCH 19Y07M26:  FROM SOURCE 1 TO RECORD 8 
*SOURCE FILE: 19Y07M26
004762  19Y07M26                         A9    C        10:36:12:10 10:36:12:19 01:21:35:20 01:21:36:04 
*FROM CLIP NAME:  26K5/01.SYNC.01 
*SOURCE FILE: 19Y07M26
004763  19Y07M26                         A     C        11:18:31:23 11:18:32:08 01:21:36:04 01:21:36:14 
*FROM CLIP NAME:  26K8/01.SYNC.01 
*SOURCE FILE: 19Y07M26
004764  19Y07M26                         A2    C        11:18:31:23 11:18:32:08 01:21:36:04 01:21:36:14 
*FROM CLIP NAME:  26K8/01.SYNC.01 
*SOURCE FILE: 19Y07M26
004765  19Y07M26                         A3    C        11:18:31:23 11:18:32:08 01:21:36:04 01:21:36:14 
*FROM CLIP NAME:  26K8/01.SYNC.01 
*SOURCE FILE: 19Y07M26
004766  19Y07M26                         A4    C        11:18:31:23 11:18:32:08 01:21:36:04 01:21:36:14 
*FROM CLIP NAME:  26K8/01.SYNC.01 
*SOURCE FILE: 19Y07M26
004767  19Y07M26                         A5    C        11:18:31:23 11:18:32:08 01:21:36:04 01:21:36:14 
*FROM CLIP NAME:  26K8/01.SYNC.01 
*SOURCE FILE: 19Y07M26
004768  19Y07M26                         A6    C        11:18:31:23 11:18:32:08 01:21:36:04 01:21:36:14 
*FROM CLIP NAME:  26K8/01.SYNC.01 
*PATCH 19Y07M26:  FROM SOURCE 1 TO RECORD 6 
*SOURCE FILE: 19Y07M26
004769  19Y07M26                         A7    C        11:18:31:23 11:18:32:08 01:21:36:04 01:21:36:14 
*FROM CLIP NAME:  26K8/01.SYNC.01 
*SOURCE FILE: 19Y07M26
004770  19Y07M26                         A8    C        11:18:31:23 11:18:32:08 01:21:36:04 01:21:36:14 
*FROM CLIP NAME:  26K8/01.SYNC.01 
*PATCH 19Y07M26:  FROM SOURCE 1 TO RECORD 8 
*SOURCE FILE: 19Y07M26
004771  19Y07M26                         A9    C        11:18:31:23 11:18:32:08 01:21:36:04 01:21:36:14 
*FROM CLIP NAME:  26K8/01.SYNC.01 
*SOURCE FILE: 19Y07M26
004772  19Y07M26                         A     C        10:36:13:04 10:36:22:02 01:21:36:14 01:21:45:12 
*FROM CLIP NAME:  26K5/01.SYNC.01 
*SOURCE FILE: 19Y07M26
004773  19Y07M26                         A2    C        10:36:13:04 10:36:22:02 01:21:36:14 01:21:45:12 
*FROM CLIP NAME:  26K5/01.SYNC.01 
*SOURCE FILE: 19Y07M26
004774  19Y07M26                         A3    C        10:36:13:04 10:36:22:02 01:21:36:14 01:21:45:12 
*FROM CLIP NAME:  26K5/01.SYNC.01 
*SOURCE FILE: 19Y07M26
004775  19Y07M26                         A4    C        10:36:13:04 10:36:22:02 01:21:36:14 01:21:45:12 
*FROM CLIP NAME:  26K5/01.SYNC.01 
*SOURCE FILE: 19Y07M26
004776  19Y07M26                         A5    C        10:36:13:04 10:36:22:02 01:21:36:14 01:21:45:12 
*FROM CLIP NAME:  26K5/01.SYNC.01 
*SOURCE FILE: 19Y07M26
004777  19Y07M26                         A6    C        10:36:13:04 10:36:22:02 01:21:36:14 01:21:45:12 
*FROM CLIP NAME:  26K5/01.SYNC.01 
*PATCH 19Y07M26:  FROM SOURCE 1 TO RECORD 6 
*SOURCE FILE: 19Y07M26
004778  19Y07M26                         A7    C        10:36:13:04 10:36:22:02 01:21:36:14 01:21:45:12 
*FROM CLIP NAME:  26K5/01.SYNC.01 
*SOURCE FILE: 19Y07M26
004779  19Y07M26                         A8    C        10:36:13:04 10:36:22:02 01:21:36:14 01:21:45:12 
*FROM CLIP NAME:  26K5/01.SYNC.01 
*PATCH 19Y07M26:  FROM SOURCE 1 TO RECORD 8 
*SOURCE FILE: 19Y07M26
004780  19Y07M26                         A9    C        10:36:13:04 10:36:22:02 01:21:36:14 01:21:45:12 
*FROM CLIP NAME:  26K5/01.SYNC.01 
*SOURCE FILE: 19Y07M26
004781  XCD064_07_1_MUSIC_PLEASE.WAV     A22   C        01:00:07:17 01:00:11:12 01:21:38:14 01:21:42:09 
*FROM CLIP NAME:  XCD064_07_1 MUSIC PLEASE.WAV 
*A22 VOL = -18.0 DB  PAN L100 
*PATCH XCD064_07_1_MUSIC_PLEASE.WAV:  FROM SOURCE 1 TO RECORD 22 
*SOURCE FILE: XCD064_07_1 MUSIC PLEASE.WAV
004782  XCD064_07_1_MUSIC_PLEASE.WAV     A23   C        01:00:07:17 01:00:11:12 01:21:38:14 01:21:42:09 
*FROM CLIP NAME:  XCD064_07_1 MUSIC PLEASE.WAV 
*A23 VOL = -18.0 DB  PAN R100 
*PATCH XCD064_07_1_MUSIC_PLEASE.WAV:  FROM SOURCE 2 TO RECORD 23 
*SOURCE FILE: XCD064_07_1 MUSIC PLEASE.WAV
004783  A005C003_190726_R32C             V     C        10:05:25:04 10:05:27:09 01:21:42:04 01:21:44:09 
*FROM CLIP NAME:  A005C003_190726_R32C.NEW.01 
*SOURCE FILE: A005C003_190726_R32C
004784  XCD064_07_1_MUSIC_PLEASE.WAV     A22   C        01:00:07:16 01:00:08:19 01:21:42:09 01:21:43:12 
*FROM CLIP NAME:  XCD064_07_1 MUSIC PLEASE.WAV 
*A22 VOL = -18.0 DB  PAN L100 
*PATCH XCD064_07_1_MUSIC_PLEASE.WAV:  FROM SOURCE 1 TO RECORD 22 
*SOURCE FILE: XCD064_07_1 MUSIC PLEASE.WAV
004785  XCD064_07_1_MUSIC_PLEASE.WAV     A23   C        01:00:07:16 01:00:08:19 01:21:42:09 01:21:43:12 
*FROM CLIP NAME:  XCD064_07_1 MUSIC PLEASE.WAV 
*A23 VOL = -18.0 DB  PAN R100 
*PATCH XCD064_07_1_MUSIC_PLEASE.WAV:  FROM SOURCE 2 TO RECORD 23 
*SOURCE FILE: XCD064_07_1 MUSIC PLEASE.WAV
004786  XCD064_07_1_MUSIC_PLEASE.WAV     A22   C        01:00:08:19 01:00:11:14 01:21:43:12 01:21:46:07 
*FROM CLIP NAME:  XCD064_07_1 MUSIC PLEASE.WAV 
*A22 VOL = -18.0 DB  PAN L100 
*PATCH XCD064_07_1_MUSIC_PLEASE.WAV:  FROM SOURCE 1 TO RECORD 22 
*SOURCE FILE: XCD064_07_1 MUSIC PLEASE.WAV
004787  XCD064_07_1_MUSIC_PLEASE.WAV     A23   C        01:00:08:19 01:00:11:14 01:21:43:12 01:21:46:07 
*FROM CLIP NAME:  XCD064_07_1 MUSIC PLEASE.WAV 
*A23 VOL = -18.0 DB  PAN R100 
*PATCH XCD064_07_1_MUSIC_PLEASE.WAV:  FROM SOURCE 2 TO RECORD 23 
*SOURCE FILE: XCD064_07_1 MUSIC PLEASE.WAV
004788  A005C003_190726_R32C             V     C        10:05:37:02 10:05:39:00 01:21:44:09 01:21:46:07 
*FROM CLIP NAME:  A005C003_190726_R32C.NEW.01 
*SOURCE FILE: A005C003_190726_R32C
004789  19Y07M26                         A     C        10:36:17:11 10:36:18:06 01:21:45:12 01:21:46:07 
*FROM CLIP NAME:  26K5/01.SYNC.01 
*SOURCE FILE: 19Y07M26
004790  19Y07M26                         A2    C        10:36:17:11 10:36:18:06 01:21:45:12 01:21:46:07 
*FROM CLIP NAME:  26K5/01.SYNC.01 
*SOURCE FILE: 19Y07M26
004791  19Y07M26                         A3    C        10:36:17:11 10:36:18:06 01:21:45:12 01:21:46:07 
*FROM CLIP NAME:  26K5/01.SYNC.01 
*SOURCE FILE: 19Y07M26
004792  19Y07M26                         A4    C        10:36:17:11 10:36:18:06 01:21:45:12 01:21:46:07 
*FROM CLIP NAME:  26K5/01.SYNC.01 
*SOURCE FILE: 19Y07M26
004793  19Y07M26                         A5    C        10:36:17:11 10:36:18:06 01:21:45:12 01:21:46:07 
*FROM CLIP NAME:  26K5/01.SYNC.01 
*SOURCE FILE: 19Y07M26
004794  19Y07M26                         A6    C        10:36:17:11 10:36:18:06 01:21:45:12 01:21:46:07 
*FROM CLIP NAME:  26K5/01.SYNC.01 
*PATCH 19Y07M26:  FROM SOURCE 1 TO RECORD 6 
*SOURCE FILE: 19Y07M26
004795  19Y07M26                         A7    C        10:36:17:11 10:36:18:06 01:21:45:12 01:21:46:07 
*FROM CLIP NAME:  26K5/01.SYNC.01 
*SOURCE FILE: 19Y07M26
004796  19Y07M26                         A8    C        10:36:17:11 10:36:18:06 01:21:45:12 01:21:46:07 
*FROM CLIP NAME:  26K5/01.SYNC.01 
*PATCH 19Y07M26:  FROM SOURCE 1 TO RECORD 8 
*SOURCE FILE: 19Y07M26
004797  19Y07M26                         A9    C        10:36:17:11 10:36:18:06 01:21:45:12 01:21:46:07 
*FROM CLIP NAME:  26K5/01.SYNC.01 
*SOURCE FILE: 19Y07M26
004798  FOTOAPPARAT_-_ZVUK_FOTOAPPARATA_ A14   C        01:00:00:00 01:00:00:22 01:21:45:21 01:21:46:18 
*FROM CLIP NAME:  FOTOAPPARAT_-_ZVUK_FOTOAPPARATA_11.MP3 
*PATCH FOTOAPPARAT_-_ZVUK_FOTOAPPARATA_:  FROM SOURCE 2 TO RECORD 14 
*SOURCE FILE: FOTOAPPARAT_-_ZVUK_FOTOAPPARATA_11.MP3
004799  FOTOAPPARAT_-_ZVUK_FOTOAPPARATA_ A15   C        01:00:00:00 01:00:00:22 01:21:45:21 01:21:46:18 
*FROM CLIP NAME:  FOTOAPPARAT_-_ZVUK_FOTOAPPARATA_11.MP3 
*PATCH FOTOAPPARAT_-_ZVUK_FOTOAPPARATA_:  FROM SOURCE 1 TO RECORD 15 
*SOURCE FILE: FOTOAPPARAT_-_ZVUK_FOTOAPPARATA_11.MP3
004800  XCD064_07_1_MUSIC_PLEASE.WAV     A20   C        01:00:19:08 01:00:20:02 01:21:46:07 01:21:47:01 
*FROM CLIP NAME:  XCD064_07_1 MUSIC PLEASE.WAV 
*A20 VOL = -11.0 DB  PAN L100 
*PATCH XCD064_07_1_MUSIC_PLEASE.WAV:  FROM SOURCE 1 TO RECORD 20 
*SOURCE FILE: XCD064_07_1 MUSIC PLEASE.WAV
004801  XCD064_07_1_MUSIC_PLEASE.WAV     A21   C        01:00:19:08 01:00:20:02 01:21:46:07 01:21:47:01 
*FROM CLIP NAME:  XCD064_07_1 MUSIC PLEASE.WAV 
*A21 VOL = -11.0 DB  PAN R100 
*PATCH XCD064_07_1_MUSIC_PLEASE.WAV:  FROM SOURCE 2 TO RECORD 21 
*SOURCE FILE: XCD064_07_1 MUSIC PLEASE.WAV
004802  IMG_0082.JPG                     V     C        01:00:00:00 01:00:01:01 01:21:46:07 01:21:47:08 
*FROM CLIP NAME:  IMG_0082.JPG 
*SOURCE FILE: IMG_0082.JPG
004803  19Y07M26                         A     C        19:37:05:12 19:37:06:16 01:21:46:07 01:21:47:11 
*FROM CLIP NAME:  28K1/05.SYNC.01 
*SOURCE FILE: 19Y07M26
004804  19Y07M26                         A2    C        19:37:05:12 19:37:06:16 01:21:46:07 01:21:47:11 
*FROM CLIP NAME:  28K1/05.SYNC.01 
*SOURCE FILE: 19Y07M26
004805  19Y07M26                         A3    C        19:37:05:12 19:37:06:16 01:21:46:07 01:21:47:11 
*FROM CLIP NAME:  28K1/05.SYNC.01 
*SOURCE FILE: 19Y07M26
004806  19Y07M26                         A4    C        19:37:05:12 19:37:06:16 01:21:46:07 01:21:47:11 
*FROM CLIP NAME:  28K1/05.SYNC.01 
*SOURCE FILE: 19Y07M26
004807  19Y07M26                         A6    C        19:37:05:12 19:37:06:16 01:21:46:07 01:21:47:11 
*FROM CLIP NAME:  28K1/05.SYNC.01 
*PATCH 19Y07M26:  FROM SOURCE 1 TO RECORD 6 
*SOURCE FILE: 19Y07M26
004808  19Y07M26                         A7    C        19:37:05:12 19:37:06:16 01:21:46:07 01:21:47:11 
*FROM CLIP NAME:  28K1/05.SYNC.01 
*PATCH 19Y07M26:  FROM SOURCE 1 TO RECORD 7 
*SOURCE FILE: 19Y07M26
004809  19Y07M26                         A5    C        19:36:50:11 19:37:05:24 01:21:46:07 01:22:01:20 
*FROM CLIP NAME:  28K1/05.SYNC.01 
*SOURCE FILE: 19Y07M26
004810  XCD064_07_1_MUSIC_PLEASE.WAV     A20   C        01:00:20:02 01:00:20:02 01:21:47:01 01:21:47:01 
004810  XCD064_07_1_MUSIC_PLEASE.WAV     A20   D    045 01:00:20:02 01:00:21:22 01:21:47:01 01:21:48:21 
*FROM CLIP NAME:  XCD064_07_1 MUSIC PLEASE.WAV 
*TO CLIP NAME:  XCD064_07_1 MUSIC PLEASE.WAV 
*A20 VOL = -11.0 DB  PAN L100 
*A20 VOL = -22.1 DB  PAN L100 
*PATCH XCD064_07_1_MUSIC_PLEASE.WAV:  FROM SOURCE 1 TO RECORD 20 
*PATCH XCD064_07_1_MUSIC_PLEASE.WAV:  FROM SOURCE 1 TO RECORD 20 
*SOURCE FILE: XCD064_07_1 MUSIC PLEASE.WAV
004811  XCD064_07_1_MUSIC_PLEASE.WAV     A21   C        01:00:20:02 01:00:20:02 01:21:47:01 01:21:47:01 
004811  XCD064_07_1_MUSIC_PLEASE.WAV     A21   D    045 01:00:20:02 01:00:21:22 01:21:47:01 01:21:48:21 
*FROM CLIP NAME:  XCD064_07_1 MUSIC PLEASE.WAV 
*TO CLIP NAME:  XCD064_07_1 MUSIC PLEASE.WAV 
*A21 VOL = -11.0 DB  PAN R100 
*A21 VOL = -22.1 DB  PAN R100 
*PATCH XCD064_07_1_MUSIC_PLEASE.WAV:  FROM SOURCE 2 TO RECORD 21 
*PATCH XCD064_07_1_MUSIC_PLEASE.WAV:  FROM SOURCE 2 TO RECORD 21 
*SOURCE FILE: XCD064_07_1 MUSIC PLEASE.WAV
004812  A007C015_190726_R32C             V     C        19:36:51:11 19:37:05:23 01:21:47:08 01:22:01:20 
*FROM CLIP NAME:  A007C015_190726_R32C.NEW.01 
*SOURCE FILE: A007C015_190726_R32C
004813  19Y07M26                         A     C        19:36:51:15 19:36:54:06 01:21:47:11 01:21:50:02 
*FROM CLIP NAME:  28K1/05.SYNC.01 
*SOURCE FILE: 19Y07M26
004814  19Y07M26                         A2    C        19:36:51:15 19:36:54:06 01:21:47:11 01:21:50:02 
*FROM CLIP NAME:  28K1/05.SYNC.01 
*SOURCE FILE: 19Y07M26
004815  19Y07M26                         A3    C        19:36:51:15 19:36:54:06 01:21:47:11 01:21:50:02 
*FROM CLIP NAME:  28K1/05.SYNC.01 
*SOURCE FILE: 19Y07M26
004816  19Y07M26                         A4    C        19:36:51:15 19:36:54:06 01:21:47:11 01:21:50:02 
*FROM CLIP NAME:  28K1/05.SYNC.01 
*SOURCE FILE: 19Y07M26
004817  19Y07M26                         A6    C        19:36:51:15 19:36:54:06 01:21:47:11 01:21:50:02 
*FROM CLIP NAME:  28K1/05.SYNC.01 
*PATCH 19Y07M26:  FROM SOURCE 1 TO RECORD 6 
*SOURCE FILE: 19Y07M26
004818  19Y07M26                         A7    C        19:36:51:15 19:36:54:06 01:21:47:11 01:21:50:02 
*FROM CLIP NAME:  28K1/05.SYNC.01 
*PATCH 19Y07M26:  FROM SOURCE 1 TO RECORD 7 
*SOURCE FILE: 19Y07M26
004819  XCD064_07_1_MUSIC_PLEASE.WAV     A20   C        01:00:21:22 01:00:27:01 01:21:48:21 01:21:54:00 
*FROM CLIP NAME:  XCD064_07_1 MUSIC PLEASE.WAV 
*A20 VOL = -22.1 DB  PAN L100 
*PATCH XCD064_07_1_MUSIC_PLEASE.WAV:  FROM SOURCE 1 TO RECORD 20 
*SOURCE FILE: XCD064_07_1 MUSIC PLEASE.WAV
004820  XCD064_07_1_MUSIC_PLEASE.WAV     A21   C        01:00:21:22 01:00:27:01 01:21:48:21 01:21:54:00 
*FROM CLIP NAME:  XCD064_07_1 MUSIC PLEASE.WAV 
*A21 VOL = -22.1 DB  PAN R100 
*PATCH XCD064_07_1_MUSIC_PLEASE.WAV:  FROM SOURCE 2 TO RECORD 21 
*SOURCE FILE: XCD064_07_1 MUSIC PLEASE.WAV
004821  19Y07M26                         A     C        19:37:04:24 19:37:05:19 01:21:50:02 01:21:50:22 
*FROM CLIP NAME:  28K1/05.SYNC.01 
*SOURCE FILE: 19Y07M26
004822  19Y07M26                         A2    C        19:37:04:24 19:37:05:19 01:21:50:02 01:21:50:22 
*FROM CLIP NAME:  28K1/05.SYNC.01 
*SOURCE FILE: 19Y07M26
004823  19Y07M26                         A3    C        19:37:04:24 19:37:05:19 01:21:50:02 01:21:50:22 
*FROM CLIP NAME:  28K1/05.SYNC.01 
*SOURCE FILE: 19Y07M26
004824  19Y07M26                         A4    C        19:37:04:24 19:37:05:19 01:21:50:02 01:21:50:22 
*FROM CLIP NAME:  28K1/05.SYNC.01 
*SOURCE FILE: 19Y07M26
004825  19Y07M26                         A6    C        19:37:04:24 19:37:05:19 01:21:50:02 01:21:50:22 
*FROM CLIP NAME:  28K1/05.SYNC.01 
*PATCH 19Y07M26:  FROM SOURCE 1 TO RECORD 6 
*SOURCE FILE: 19Y07M26
004826  19Y07M26                         A7    C        19:37:04:24 19:37:05:19 01:21:50:02 01:21:50:22 
*FROM CLIP NAME:  28K1/05.SYNC.01 
*PATCH 19Y07M26:  FROM SOURCE 1 TO RECORD 7 
*SOURCE FILE: 19Y07M26
004827  19Y07M26                         A     C        19:36:55:01 19:37:05:24 01:21:50:22 01:22:01:20 
*FROM CLIP NAME:  28K1/05.SYNC.01 
*SOURCE FILE: 19Y07M26
004828  19Y07M26                         A2    C        19:36:55:01 19:37:05:24 01:21:50:22 01:22:01:20 
*FROM CLIP NAME:  28K1/05.SYNC.01 
*SOURCE FILE: 19Y07M26
004829  19Y07M26                         A3    C        19:36:55:01 19:37:05:24 01:21:50:22 01:22:01:20 
*FROM CLIP NAME:  28K1/05.SYNC.01 
*SOURCE FILE: 19Y07M26
004830  19Y07M26                         A4    C        19:36:55:01 19:37:05:24 01:21:50:22 01:22:01:20 
*FROM CLIP NAME:  28K1/05.SYNC.01 
*SOURCE FILE: 19Y07M26
004831  19Y07M26                         A6    C        19:36:55:01 19:37:05:24 01:21:50:22 01:22:01:20 
*FROM CLIP NAME:  28K1/05.SYNC.01 
*PATCH 19Y07M26:  FROM SOURCE 1 TO RECORD 6 
*SOURCE FILE: 19Y07M26
004832  19Y07M26                         A7    C        19:36:55:01 19:37:05:24 01:21:50:22 01:22:01:20 
*FROM CLIP NAME:  28K1/05.SYNC.01 
*PATCH 19Y07M26:  FROM SOURCE 1 TO RECORD 7 
*SOURCE FILE: 19Y07M26
004833  XCD064_07_1_MUSIC_PLEASE.WAV     A18   C        01:00:19:08 01:00:23:24 01:21:54:00 01:21:58:16 
*FROM CLIP NAME:  XCD064_07_1 MUSIC PLEASE.WAV 
*A18 VOL = -21.0 DB  PAN L100 
*PATCH XCD064_07_1_MUSIC_PLEASE.WAV:  FROM SOURCE 2 TO RECORD 18 
*SOURCE FILE: XCD064_07_1 MUSIC PLEASE.WAV
004834  XCD064_07_1_MUSIC_PLEASE.WAV     A19   C        01:00:19:08 01:00:23:24 01:21:54:00 01:21:58:16 
*FROM CLIP NAME:  XCD064_07_1 MUSIC PLEASE.WAV 
*A19 VOL = -21.0 DB  PAN R100 
*PATCH XCD064_07_1_MUSIC_PLEASE.WAV:  FROM SOURCE 1 TO RECORD 19 
*SOURCE FILE: XCD064_07_1 MUSIC PLEASE.WAV
004835  XCD064_07_1_MUSIC_PLEASE.WAV     A20   C        01:00:31:17 01:00:34:21 01:21:58:16 01:22:01:20 
*FROM CLIP NAME:  XCD064_07_1 MUSIC PLEASE.WAV 
*A20 VOL = -22.1 DB  PAN L100 
*PATCH XCD064_07_1_MUSIC_PLEASE.WAV:  FROM SOURCE 1 TO RECORD 20 
*SOURCE FILE: XCD064_07_1 MUSIC PLEASE.WAV
004836  XCD064_07_1_MUSIC_PLEASE.WAV     A21   C        01:00:31:17 01:00:34:21 01:21:58:16 01:22:01:20 
*FROM CLIP NAME:  XCD064_07_1 MUSIC PLEASE.WAV 
*A21 VOL = -22.1 DB  PAN R100 
*PATCH XCD064_07_1_MUSIC_PLEASE.WAV:  FROM SOURCE 2 TO RECORD 21 
*SOURCE FILE: XCD064_07_1 MUSIC PLEASE.WAV
004837  XCD064_07_1_MUSIC_PLEASE.WAV     A18   C        01:01:47:04 01:01:48:22 01:22:00:15 01:22:02:08 
*FROM CLIP NAME:  XCD064_07_1 MUSIC PLEASE.WAV 
*A18 VOL = -29.0 DB  PAN L100 
*PATCH XCD064_07_1_MUSIC_PLEASE.WAV:  FROM SOURCE 2 TO RECORD 18 
*SOURCE FILE: XCD064_07_1 MUSIC PLEASE.WAV
004838  XCD064_07_1_MUSIC_PLEASE.WAV     A19   C        01:01:47:04 01:01:48:22 01:22:00:15 01:22:02:08 
*FROM CLIP NAME:  XCD064_07_1 MUSIC PLEASE.WAV 
*A19 VOL = -29.0 DB  PAN R100 
*PATCH XCD064_07_1_MUSIC_PLEASE.WAV:  FROM SOURCE 1 TO RECORD 19 
*SOURCE FILE: XCD064_07_1 MUSIC PLEASE.WAV
004839  A007C010_190726_R32C             V     C        18:57:08:02 18:57:12:14 01:22:01:20 01:22:06:07 
*FROM CLIP NAME:  A007C010_190726_R32C.NEW.01 
*SOURCE FILE: A007C010_190726_R32C
004840  19Y07M26                         A     C        18:57:08:03 18:57:12:20 01:22:01:20 01:22:06:12 
*FROM CLIP NAME:  29K1/03.SYNC.01 
*SOURCE FILE: 19Y07M26
004841  19Y07M26                         A2    C        18:57:08:03 18:57:12:20 01:22:01:20 01:22:06:12 
*FROM CLIP NAME:  29K1/03.SYNC.01 
*SOURCE FILE: 19Y07M26
004842  19Y07M26                         A3    C        18:57:08:03 18:57:12:20 01:22:01:20 01:22:06:12 
*FROM CLIP NAME:  29K1/03.SYNC.01 
*SOURCE FILE: 19Y07M26
004843  19Y07M26                         A4    C        18:57:08:03 18:57:12:20 01:22:01:20 01:22:06:12 
*FROM CLIP NAME:  29K1/03.SYNC.01 
*SOURCE FILE: 19Y07M26
004844  19Y07M26                         A5    C        18:57:08:03 18:57:12:20 01:22:01:20 01:22:06:12 
*FROM CLIP NAME:  29K1/03.SYNC.01 
*PATCH 19Y07M26:  FROM SOURCE 1 TO RECORD 5 
*SOURCE FILE: 19Y07M26
004845  19Y07M26                         A6    C        18:57:08:03 18:57:12:20 01:22:01:20 01:22:06:12 
*FROM CLIP NAME:  29K1/03.SYNC.01 
*PATCH 19Y07M26:  FROM SOURCE 1 TO RECORD 6 
*SOURCE FILE: 19Y07M26
004846  19Y07M26                         A7    C        18:57:08:03 18:57:12:20 01:22:01:20 01:22:06:12 
*FROM CLIP NAME:  29K1/03.SYNC.01 
*PATCH 19Y07M26:  FROM SOURCE 1 TO RECORD 7 
*SOURCE FILE: 19Y07M26
004847  XCD064_07_1_MUSIC_PLEASE.WAV     A18   C        01:01:48:22 01:01:48:22 01:22:02:08 01:22:02:08 
004847  BL                               A18   D    104 00:00:00:00 00:00:04:04 01:22:02:08 01:22:06:12 
*FROM CLIP NAME:  XCD064_07_1 MUSIC PLEASE.WAV 
*A18 VOL = -29.0 DB  PAN L100 
*PATCH XCD064_07_1_MUSIC_PLEASE.WAV:  FROM SOURCE 2 TO RECORD 18 
*SOURCE FILE: XCD064_07_1 MUSIC PLEASE.WAV
004848  XCD064_07_1_MUSIC_PLEASE.WAV     A19   C        01:01:48:22 01:01:48:22 01:22:02:08 01:22:02:08 
004848  BL                               A19   D    104 00:00:00:00 00:00:04:04 01:22:02:08 01:22:06:12 
*FROM CLIP NAME:  XCD064_07_1 MUSIC PLEASE.WAV 
*A19 VOL = -29.0 DB  PAN R100 
*PATCH XCD064_07_1_MUSIC_PLEASE.WAV:  FROM SOURCE 1 TO RECORD 19 
*SOURCE FILE: XCD064_07_1 MUSIC PLEASE.WAV
004849  B005C009_190726_R4CP             V     C        19:01:36:07 19:01:38:17 01:22:06:07 01:22:08:17 
*FROM CLIP NAME:  B005C009_190726_R4CP.NEW.01 
*SOURCE FILE: B005C009_190726_R4CP
004850  19Y07M26                         A     C        19:01:36:13 19:01:38:18 01:22:06:12 01:22:08:17 
*FROM CLIP NAME:  29K2/01.SYNC.01 
*SOURCE FILE: 19Y07M26
004851  19Y07M26                         A2    C        19:01:36:13 19:01:38:18 01:22:06:12 01:22:08:17 
*FROM CLIP NAME:  29K2/01.SYNC.01 
*SOURCE FILE: 19Y07M26
004852  19Y07M26                         A3    C        19:01:36:13 19:01:38:18 01:22:06:12 01:22:08:17 
*FROM CLIP NAME:  29K2/01.SYNC.01 
*SOURCE FILE: 19Y07M26
004853  19Y07M26                         A4    C        19:01:36:13 19:01:38:18 01:22:06:12 01:22:08:17 
*FROM CLIP NAME:  29K2/01.SYNC.01 
*SOURCE FILE: 19Y07M26
004854  19Y07M26                         A5    C        19:01:36:13 19:01:38:18 01:22:06:12 01:22:08:17 
*FROM CLIP NAME:  29K2/01.SYNC.01 
*SOURCE FILE: 19Y07M26
004855  19Y07M26                         A6    C        19:01:36:13 19:01:38:18 01:22:06:12 01:22:08:17 
*FROM CLIP NAME:  29K2/01.SYNC.01 
*PATCH 19Y07M26:  FROM SOURCE 1 TO RECORD 6 
*SOURCE FILE: 19Y07M26
004856  19Y07M26                         A7    C        19:01:36:13 19:01:38:18 01:22:06:12 01:22:08:17 
*FROM CLIP NAME:  29K2/01.SYNC.01 
*PATCH 19Y07M26:  FROM SOURCE 1 TO RECORD 7 
*SOURCE FILE: 19Y07M26
004857  19Y07M26                         A8    C        19:01:36:13 19:01:38:18 01:22:06:12 01:22:08:17 
*FROM CLIP NAME:  29K2/01.SYNC.01 
*PATCH 19Y07M26:  FROM SOURCE 1 TO RECORD 8 
*SOURCE FILE: 19Y07M26
004858  B005C012_190726_R4CP             V     C        19:08:19:17 19:08:22:06 01:22:08:17 01:22:11:06 
*FROM CLIP NAME:  B005C012_190726_R4CP.NEW.01 
*SOURCE FILE: B005C012_190726_R4CP
004859  19Y07M26                         A     C        19:08:19:18 19:08:23:02 01:22:08:17 01:22:12:01 
*FROM CLIP NAME:  29K3/02.SYNC.01 
*SOURCE FILE: 19Y07M26
004860  19Y07M26                         A2    C        19:08:19:18 19:08:23:02 01:22:08:17 01:22:12:01 
*FROM CLIP NAME:  29K3/02.SYNC.01 
*SOURCE FILE: 19Y07M26
004861  19Y07M26                         A3    C        19:08:19:18 19:08:23:02 01:22:08:17 01:22:12:01 
*FROM CLIP NAME:  29K3/02.SYNC.01 
*SOURCE FILE: 19Y07M26
004862  19Y07M26                         A4    C        19:08:19:18 19:08:23:02 01:22:08:17 01:22:12:01 
*FROM CLIP NAME:  29K3/02.SYNC.01 
*SOURCE FILE: 19Y07M26
004863  19Y07M26                         A5    C        19:08:19:18 19:08:23:02 01:22:08:17 01:22:12:01 
*FROM CLIP NAME:  29K3/02.SYNC.01 
*SOURCE FILE: 19Y07M26
004864  19Y07M26                         A6    C        19:08:19:18 19:08:23:02 01:22:08:17 01:22:12:01 
*FROM CLIP NAME:  29K3/02.SYNC.01 
*PATCH 19Y07M26:  FROM SOURCE 1 TO RECORD 6 
*SOURCE FILE: 19Y07M26
004865  19Y07M26                         A7    C        19:08:19:18 19:08:23:02 01:22:08:17 01:22:12:01 
*FROM CLIP NAME:  29K3/02.SYNC.01 
*PATCH 19Y07M26:  FROM SOURCE 1 TO RECORD 7 
*SOURCE FILE: 19Y07M26
004866  BL                               A17   C        00:00:00:00 00:00:00:00 01:22:09:15 01:22:09:15 
004866  RUSSKIE_NARODNYE_INSTRUMENTY_-_N A17   D    044 01:00:01:02 01:00:02:21 01:22:09:15 01:22:11:09 
*TO CLIP NAME:  RUSSKIE_NARODNYE_INSTRUMENTY_-_NA_GORE-TO_KALINA_GUSLI_(MP3.MN).MP3 
*A17 VOL = -26.7 DB  PAN R100 
*EQ BAND 1 (LO SHELF) FREQ:210.0 HZ  GAIN: -18.0 DB  Q: 2000 
*EQ BAND 2 (PRESENCE) FREQ:  1.3  KHZ  GAIN: +10.5 DB  Q: 2000 
*EQ BAND 3 (HI SHELF) FREQ:  6.4  KHZ  GAIN: -16.9 DB  Q: 2000 
*PATCH RUSSKIE_NARODNYE_INSTRUMENTY_-_N:  FROM SOURCE 1 TO RECORD 17 
*SOURCE FILE: (NULL)
004867  03237_(1).MP3                    A9    C        01:00:00:00 01:00:03:03 01:22:09:16 01:22:12:19 
*FROM CLIP NAME:  03237 (1).MP3 
*A9 VOL =  -4.8 DB  PAN L100 
*PATCH 03237_(1).MP3:  FROM SOURCE 1 TO RECORD 9 
*SOURCE FILE: 03237 (1).MP3
004868  03237_(1).MP3                    A10   C        01:00:00:00 01:00:03:03 01:22:09:16 01:22:12:19 
*FROM CLIP NAME:  03237 (1).MP3 
*A10 VOL =  -4.8 DB  PAN R100 
*PATCH 03237_(1).MP3:  FROM SOURCE 2 TO RECORD 10 
*SOURCE FILE: 03237 (1).MP3
004869  A007C010_190726_R32C             V     C        18:57:24:07 18:57:25:21 01:22:11:06 01:22:12:20 
*FROM CLIP NAME:  A007C010_190726_R32C.NEW.01 
*SOURCE FILE: A007C010_190726_R32C
004870  RUSSKIE_NARODNYE_INSTRUMENTY_-_N A17   C        01:00:02:21 01:00:04:20 01:22:11:09 01:22:13:08 
*FROM CLIP NAME:  RUSSKIE_NARODNYE_INSTRUMENTY_-_NA_GORE-TO_KALINA_GUSLI_(MP3.MN).MP3 
*A17 VOL = -26.7 DB  PAN R100 
*EQ BAND 1 (LO SHELF) FREQ:210.0 HZ  GAIN: -18.0 DB  Q: 2000 
*EQ BAND 2 (PRESENCE) FREQ:  1.3  KHZ  GAIN: +10.5 DB  Q: 2000 
*EQ BAND 3 (HI SHELF) FREQ:  6.4  KHZ  GAIN: -16.9 DB  Q: 2000 
*PATCH RUSSKIE_NARODNYE_INSTRUMENTY_-_N:  FROM SOURCE 1 TO RECORD 17 
*SOURCE FILE: RUSSKIE_NARODNYE_INSTRUMENTY_-_NA_GORE-TO_KALINA_GUSLI_(MP3.MN).MP3
004871  19Y07M26                         A     C        18:55:42:17 18:55:43:14 01:22:12:01 01:22:12:23 
*FROM CLIP NAME:  29K1/02.SYNC.01 
*SOURCE FILE: 19Y07M26
004872  19Y07M26                         A2    C        18:55:42:17 18:55:43:14 01:22:12:01 01:22:12:23 
*FROM CLIP NAME:  29K1/02.SYNC.01 
*SOURCE FILE: 19Y07M26
004873  19Y07M26                         A3    C        18:55:42:17 18:55:43:14 01:22:12:01 01:22:12:23 
*FROM CLIP NAME:  29K1/02.SYNC.01 
*SOURCE FILE: 19Y07M26
004874  19Y07M26                         A4    C        18:55:42:17 18:55:43:14 01:22:12:01 01:22:12:23 
*FROM CLIP NAME:  29K1/02.SYNC.01 
*SOURCE FILE: 19Y07M26
004875  19Y07M26                         A5    C        18:55:42:17 18:55:43:14 01:22:12:01 01:22:12:23 
*FROM CLIP NAME:  29K1/02.SYNC.01 
*PATCH 19Y07M26:  FROM SOURCE 1 TO RECORD 5 
*SOURCE FILE: 19Y07M26
004876  19Y07M26                         A6    C        18:55:42:17 18:55:43:14 01:22:12:01 01:22:12:23 
*FROM CLIP NAME:  29K1/02.SYNC.01 
*PATCH 19Y07M26:  FROM SOURCE 1 TO RECORD 6 
*SOURCE FILE: 19Y07M26
004877  19Y07M26                         A7    C        18:55:42:17 18:55:43:14 01:22:12:01 01:22:12:23 
*FROM CLIP NAME:  29K1/02.SYNC.01 
*PATCH 19Y07M26:  FROM SOURCE 1 TO RECORD 7 
*SOURCE FILE: 19Y07M26
004878  B005C012_190726_R4CP             V     C        19:08:29:02 19:08:32:12 01:22:12:20 01:22:16:05 
*FROM CLIP NAME:  B005C012_190726_R4CP.NEW.01 
*SOURCE FILE: B005C012_190726_R4CP
004879  19Y07M26                         A     C        18:57:26:00 18:57:29:07 01:22:12:23 01:22:16:05 
*FROM CLIP NAME:  29K1/03.SYNC.01 
*SOURCE FILE: 19Y07M26
004880  19Y07M26                         A2    C        18:57:26:00 18:57:29:07 01:22:12:23 01:22:16:05 
*FROM CLIP NAME:  29K1/03.SYNC.01 
*A2 VOL = +10.5 DB  PAN L100 
*SOURCE FILE: 19Y07M26
004881  19Y07M26                         A3    C        18:57:26:00 18:57:29:07 01:22:12:23 01:22:16:05 
*FROM CLIP NAME:  29K1/03.SYNC.01 
*SOURCE FILE: 19Y07M26
004882  19Y07M26                         A4    C        18:57:26:00 18:57:29:07 01:22:12:23 01:22:16:05 
*FROM CLIP NAME:  29K1/03.SYNC.01 
*SOURCE FILE: 19Y07M26
004883  19Y07M26                         A5    C        18:57:26:00 18:57:29:07 01:22:12:23 01:22:16:05 
*FROM CLIP NAME:  29K1/03.SYNC.01 
*PATCH 19Y07M26:  FROM SOURCE 1 TO RECORD 5 
*SOURCE FILE: 19Y07M26
004884  19Y07M26                         A6    C        18:57:26:00 18:57:29:07 01:22:12:23 01:22:16:05 
*FROM CLIP NAME:  29K1/03.SYNC.01 
*PATCH 19Y07M26:  FROM SOURCE 1 TO RECORD 6 
*SOURCE FILE: 19Y07M26
004885  19Y07M26                         A7    C        18:57:26:00 18:57:29:07 01:22:12:23 01:22:16:05 
*FROM CLIP NAME:  29K1/03.SYNC.01 
*PATCH 19Y07M26:  FROM SOURCE 1 TO RECORD 7 
*SOURCE FILE: 19Y07M26
004886  RUSSKIE_NARODNYE_INSTRUMENTY_-_N A17   C        01:00:04:20 01:00:04:20 01:22:13:08 01:22:13:08 
004886  RUSSKIE_NARODNYE_INSTRUMENTY_-_N A17   D    050 01:00:04:20 01:00:06:20 01:22:13:08 01:22:15:08 
*FROM CLIP NAME:  RUSSKIE_NARODNYE_INSTRUMENTY_-_NA_GORE-TO_KALINA_GUSLI_(MP3.MN).MP3 
*TO CLIP NAME:  RUSSKIE_NARODNYE_INSTRUMENTY_-_NA_GORE-TO_KALINA_GUSLI_(MP3.MN).MP3 
*A17 VOL = -26.7 DB  PAN R100 
*A17 VOL = -39.6 DB  PAN R100 
*EQ BAND 1 (LO SHELF) FREQ:210.0 HZ  GAIN: -18.0 DB  Q: 2000 
*EQ BAND 2 (PRESENCE) FREQ:  1.3  KHZ  GAIN: +10.5 DB  Q: 2000 
*EQ BAND 3 (HI SHELF) FREQ:  6.4  KHZ  GAIN: -16.9 DB  Q: 2000 
*EQ BAND 1 (LO SHELF) FREQ:210.0 HZ  GAIN: -18.0 DB  Q: 2000 
*EQ BAND 2 (PRESENCE) FREQ:  1.3  KHZ  GAIN: +10.5 DB  Q: 2000 
*EQ BAND 3 (HI SHELF) FREQ:  6.4  KHZ  GAIN: -16.9 DB  Q: 2000 
*PATCH RUSSKIE_NARODNYE_INSTRUMENTY_-_N:  FROM SOURCE 1 TO RECORD 17 
*PATCH RUSSKIE_NARODNYE_INSTRUMENTY_-_N:  FROM SOURCE 1 TO RECORD 17 
*SOURCE FILE: RUSSKIE_NARODNYE_INSTRUMENTY_-_NA_GORE-TO_KALINA_GUSLI_(MP3.MN).MP3
004887  RUSSKIE_NARODNYE_INSTRUMENTY_-_N A17   C        01:00:06:20 01:00:07:17 01:22:15:08 01:22:16:05 
*FROM CLIP NAME:  RUSSKIE_NARODNYE_INSTRUMENTY_-_NA_GORE-TO_KALINA_GUSLI_(MP3.MN).MP3 
*A17 VOL = -39.6 DB  PAN R100 
*EQ BAND 1 (LO SHELF) FREQ:210.0 HZ  GAIN: -18.0 DB  Q: 2000 
*EQ BAND 2 (PRESENCE) FREQ:  1.3  KHZ  GAIN: +10.5 DB  Q: 2000 
*EQ BAND 3 (HI SHELF) FREQ:  6.4  KHZ  GAIN: -16.9 DB  Q: 2000 
*PATCH RUSSKIE_NARODNYE_INSTRUMENTY_-_N:  FROM SOURCE 1 TO RECORD 17 
*SOURCE FILE: RUSSKIE_NARODNYE_INSTRUMENTY_-_NA_GORE-TO_KALINA_GUSLI_(MP3.MN).MP3
004888  A007C018_190726_R32C             V     C        20:34:45:00 20:34:52:16 01:22:16:05 01:22:23:21 
*FROM CLIP NAME:  A007C018_190726_R32C.NEW.01 
*SOURCE FILE: A007C018_190726_R32C
004889  19Y07M26                         A     C        20:34:45:00 20:34:52:16 01:22:16:05 01:22:23:21 
*FROM CLIP NAME:  30K1/03.SYNC.01 
*A1 VOL =  +6.0 DB  PAN R100 
*SOURCE FILE: 19Y07M26
004890  19Y07M26                         A2    C        20:34:45:00 20:34:52:16 01:22:16:05 01:22:23:21 
*FROM CLIP NAME:  30K1/03.SYNC.01 
*A2 VOL =  +6.0 DB  PAN L100 
*SOURCE FILE: 19Y07M26
004891  19Y07M26                         A3    C        20:34:45:00 20:34:52:16 01:22:16:05 01:22:23:21 
*FROM CLIP NAME:  30K1/03.SYNC.01 
*A3 VOL =  +6.0 DB  PAN R100 
*SOURCE FILE: 19Y07M26
004892  19Y07M26                         A4    C        20:34:45:00 20:34:52:16 01:22:16:05 01:22:23:21 
*FROM CLIP NAME:  30K1/03.SYNC.01 
*A4 VOL =  +6.0 DB  PAN L100 
*SOURCE FILE: 19Y07M26
004893  19Y07M26                         A5    C        20:34:45:00 20:34:52:16 01:22:16:05 01:22:23:21 
*FROM CLIP NAME:  30K1/03.SYNC.01 
*A5 VOL =  +6.0 DB  PAN R100 
*SOURCE FILE: 19Y07M26
004894  19Y07M26                         A6    C        20:34:45:00 20:34:52:16 01:22:16:05 01:22:23:21 
*FROM CLIP NAME:  30K1/03.SYNC.01 
*A6 VOL =  +6.0 DB  PAN L100 
*PATCH 19Y07M26:  FROM SOURCE 1 TO RECORD 6 
*SOURCE FILE: 19Y07M26
004895  19Y07M26                         A7    C        20:34:45:00 20:34:52:16 01:22:16:05 01:22:23:21 
*FROM CLIP NAME:  30K1/03.SYNC.01 
*A7 VOL =  +6.0 DB  PAN R100 
*SOURCE FILE: 19Y07M26
004896  19Y07M26                         A8    C        20:34:45:00 20:34:52:16 01:22:16:05 01:22:23:21 
*FROM CLIP NAME:  30K1/03.SYNC.01 
*A8 VOL =  +6.0 DB  PAN L100 
*PATCH 19Y07M26:  FROM SOURCE 1 TO RECORD 8 
*SOURCE FILE: 19Y07M26
004897  19Y07M26                         A9    C        20:34:45:00 20:34:52:16 01:22:16:05 01:22:23:21 
*FROM CLIP NAME:  30K1/03.SYNC.01 
*A9 VOL =  +6.0 DB  PAN R100 
*SOURCE FILE: 19Y07M26
004898  19Y07M26                         A10   C        20:34:45:00 20:34:52:16 01:22:16:05 01:22:23:21 
*FROM CLIP NAME:  30K1/03.SYNC.01 
*A10 VOL =  +6.0 DB  PAN L100 
*PATCH 19Y07M26:  FROM SOURCE 1 TO RECORD 10 
*SOURCE FILE: 19Y07M26
004899  19Y07M26                         A11   C        20:34:45:00 20:34:52:16 01:22:16:05 01:22:23:21 
*FROM CLIP NAME:  30K1/03.SYNC.01 
*A11 VOL =  +6.0 DB  PAN R100 
*PATCH 19Y07M26:  FROM SOURCE 1 TO RECORD 11 
*SOURCE FILE: 19Y07M26
004900  RUSSKIE_NARODNYE_INSTRUMENTY_-_N A17   C        01:00:06:24 01:01:20:09 01:22:16:05 01:23:29:15 
*FROM CLIP NAME:  RUSSKIE_NARODNYE_INSTRUMENTY_-_NA_GORE-TO_KALINA_GUSLI_(MP3.MN).MP3 
*A17 VOL = -27.0 DB  PAN R100 
*EQ BAND 1 (LO SHELF) FREQ:210.0 HZ  GAIN: -18.0 DB  Q: 2000 
*EQ BAND 2 (PRESENCE) FREQ:  1.3  KHZ  GAIN: +10.5 DB  Q: 2000 
*EQ BAND 3 (HI SHELF) FREQ:  6.4  KHZ  GAIN: -16.9 DB  Q: 2000 
*PATCH RUSSKIE_NARODNYE_INSTRUMENTY_-_N:  FROM SOURCE 1 TO RECORD 17 
*SOURCE FILE: RUSSKIE_NARODNYE_INSTRUMENTY_-_NA_GORE-TO_KALINA_GUSLI_(MP3.MN).MP3
004901  A009C004_190726_R32C             V     C        21:29:04:00 21:29:06:02 01:22:23:21 01:22:25:23 
*FROM CLIP NAME:  A009C004_190726_R32C.NEW.01 
*SOURCE FILE: A009C004_190726_R32C
004902  19Y07M26                         A     C        21:29:04:00 21:29:06:02 01:22:23:21 01:22:25:23 
*FROM CLIP NAME:  30K5/02 
*A1 VOL =  +6.0 DB  PAN R100 
*SOURCE FILE: 19Y07M26
004903  19Y07M26                         A2    C        21:29:04:00 21:29:06:02 01:22:23:21 01:22:25:23 
*FROM CLIP NAME:  30K5/02 
*A2 VOL =  +6.0 DB  PAN L100 
*SOURCE FILE: 19Y07M26
004904  19Y07M26                         A3    C        21:29:04:00 21:29:06:02 01:22:23:21 01:22:25:23 
*FROM CLIP NAME:  30K5/02 
*A3 VOL =  +6.0 DB  PAN R100 
*SOURCE FILE: 19Y07M26
004905  19Y07M26                         A4    C        21:29:04:00 21:29:06:02 01:22:23:21 01:22:25:23 
*FROM CLIP NAME:  30K5/02 
*A4 VOL =  +6.0 DB  PAN L100 
*SOURCE FILE: 19Y07M26
004906  19Y07M26                         A5    C        21:29:04:00 21:29:06:02 01:22:23:21 01:22:25:23 
*FROM CLIP NAME:  30K5/02 
*A5 VOL =  +6.0 DB  PAN R100 
*SOURCE FILE: 19Y07M26
004907  19Y07M26                         A6    C        21:29:04:00 21:29:06:02 01:22:23:21 01:22:25:23 
*FROM CLIP NAME:  30K5/02 
*A6 VOL =  +6.0 DB  PAN L100 
*PATCH 19Y07M26:  FROM SOURCE 9 TO RECORD 6 
*SOURCE FILE: 19Y07M26
004908  B007C004_190726_R4CP             V     C        21:29:06:11 21:29:08:16 01:22:25:23 01:22:28:03 
*FROM CLIP NAME:  B007C004_190726_R4CP.NEW.01 
*SOURCE FILE: B007C004_190726_R4CP
004909  19Y07M26                         A     C        21:29:06:11 21:29:08:16 01:22:25:23 01:22:28:03 
*FROM CLIP NAME:  30K5/02 
*A1 VOL =  +6.0 DB  PAN R100 
*SOURCE FILE: 19Y07M26
004910  19Y07M26                         A2    C        21:29:06:11 21:29:08:16 01:22:25:23 01:22:28:03 
*FROM CLIP NAME:  30K5/02 
*A2 VOL =  +6.0 DB  PAN L100 
*SOURCE FILE: 19Y07M26
004911  19Y07M26                         A3    C        21:29:06:11 21:29:08:16 01:22:25:23 01:22:28:03 
*FROM CLIP NAME:  30K5/02 
*A3 VOL =  +6.0 DB  PAN R100 
*SOURCE FILE: 19Y07M26
004912  19Y07M26                         A4    C        21:29:06:11 21:29:08:16 01:22:25:23 01:22:28:03 
*FROM CLIP NAME:  30K5/02 
*A4 VOL =  +6.0 DB  PAN L100 
*SOURCE FILE: 19Y07M26
004913  19Y07M26                         A5    C        21:29:06:11 21:29:08:16 01:22:25:23 01:22:28:03 
*FROM CLIP NAME:  30K5/02 
*A5 VOL =  +6.0 DB  PAN R100 
*SOURCE FILE: 19Y07M26
004914  19Y07M26                         A6    C        21:29:06:11 21:29:08:16 01:22:25:23 01:22:28:03 
*FROM CLIP NAME:  30K5/02 
*A6 VOL =  +6.0 DB  PAN L100 
*PATCH 19Y07M26:  FROM SOURCE 9 TO RECORD 6 
*SOURCE FILE: 19Y07M26
004915  19Y07M26                         A     C        20:44:31:02 20:44:32:05 01:22:28:03 01:22:29:06 
*FROM CLIP NAME:  30K2/01.SYNC.01 
*A1 VOL =  +6.0 DB  PAN R100 
*SOURCE FILE: 19Y07M26
004916  19Y07M26                         A2    C        20:44:31:02 20:44:32:05 01:22:28:03 01:22:29:06 
*FROM CLIP NAME:  30K2/01.SYNC.01 
*A2 VOL =  +6.0 DB  PAN L100 
*SOURCE FILE: 19Y07M26
004917  19Y07M26                         A3    C        20:44:31:02 20:44:32:05 01:22:28:03 01:22:29:06 
*FROM CLIP NAME:  30K2/01.SYNC.01 
*A3 VOL =  +6.0 DB  PAN R100 
*SOURCE FILE: 19Y07M26
004918  19Y07M26                         A4    C        20:44:31:02 20:44:32:05 01:22:28:03 01:22:29:06 
*FROM CLIP NAME:  30K2/01.SYNC.01 
*A4 VOL =  +6.0 DB  PAN L100 
*SOURCE FILE: 19Y07M26
004919  19Y07M26                         A5    C        20:44:31:02 20:44:32:05 01:22:28:03 01:22:29:06 
*FROM CLIP NAME:  30K2/01.SYNC.01 
*A5 VOL =  +6.0 DB  PAN R100 
*SOURCE FILE: 19Y07M26
004920  19Y07M26                         A6    C        20:44:31:02 20:44:32:05 01:22:28:03 01:22:29:06 
*FROM CLIP NAME:  30K2/01.SYNC.01 
*A6 VOL =  +6.0 DB  PAN L100 
*PATCH 19Y07M26:  FROM SOURCE 1 TO RECORD 6 
*SOURCE FILE: 19Y07M26
004921  19Y07M26                         A7    C        20:44:31:02 20:44:32:05 01:22:28:03 01:22:29:06 
*FROM CLIP NAME:  30K2/01.SYNC.01 
*A7 VOL =  +6.0 DB  PAN R100 
*SOURCE FILE: 19Y07M26
004922  19Y07M26                         A8    C        20:44:31:02 20:44:32:05 01:22:28:03 01:22:29:06 
*FROM CLIP NAME:  30K2/01.SYNC.01 
*A8 VOL =  +6.0 DB  PAN L100 
*PATCH 19Y07M26:  FROM SOURCE 1 TO RECORD 8 
*SOURCE FILE: 19Y07M26
004923  19Y07M26                         A9    C        20:44:31:02 20:44:32:05 01:22:28:03 01:22:29:06 
*FROM CLIP NAME:  30K2/01.SYNC.01 
*A9 VOL =  +6.0 DB  PAN R100 
*SOURCE FILE: 19Y07M26
004924  19Y07M26                         A10   C        20:44:31:02 20:44:32:05 01:22:28:03 01:22:29:06 
*FROM CLIP NAME:  30K2/01.SYNC.01 
*A10 VOL =  +6.0 DB  PAN L100 
*PATCH 19Y07M26:  FROM SOURCE 1 TO RECORD 10 
*SOURCE FILE: 19Y07M26
004925  19Y07M26                         A11   C        20:44:31:02 20:44:32:05 01:22:28:03 01:22:29:06 
*FROM CLIP NAME:  30K2/01.SYNC.01 
*A11 VOL =  +6.0 DB  PAN R100 
*PATCH 19Y07M26:  FROM SOURCE 1 TO RECORD 11 
*SOURCE FILE: 19Y07M26
004926  A008C001_190726_R32C             V     C        20:44:31:02 20:44:33:02 01:22:28:03 01:22:30:03 
*FROM CLIP NAME:  A008C001_190726_R32C.NEW.01 
*SOURCE FILE: A008C001_190726_R32C
004927  19Y07M26                         A     C        20:49:42:24 20:49:43:21 01:22:29:06 01:22:30:03 
*FROM CLIP NAME:  30K2/03.SYNC.01 
*SOURCE FILE: 19Y07M26
004928  19Y07M26                         A2    C        20:49:42:24 20:49:43:21 01:22:29:06 01:22:30:03 
*FROM CLIP NAME:  30K2/03.SYNC.01 
*SOURCE FILE: 19Y07M26
004929  19Y07M26                         A3    C        20:49:42:24 20:49:43:21 01:22:29:06 01:22:30:03 
*FROM CLIP NAME:  30K2/03.SYNC.01 
*SOURCE FILE: 19Y07M26
004930  19Y07M26                         A4    C        20:49:42:24 20:49:43:21 01:22:29:06 01:22:30:03 
*FROM CLIP NAME:  30K2/03.SYNC.01 
*SOURCE FILE: 19Y07M26
004931  19Y07M26                         A5    C        20:49:42:24 20:49:43:21 01:22:29:06 01:22:30:03 
*FROM CLIP NAME:  30K2/03.SYNC.01 
*SOURCE FILE: 19Y07M26
004932  19Y07M26                         A6    C        20:49:42:24 20:49:43:21 01:22:29:06 01:22:30:03 
*FROM CLIP NAME:  30K2/03.SYNC.01 
*PATCH 19Y07M26:  FROM SOURCE 1 TO RECORD 6 
*SOURCE FILE: 19Y07M26
004933  19Y07M26                         A7    C        20:49:42:24 20:49:43:21 01:22:29:06 01:22:30:03 
*FROM CLIP NAME:  30K2/03.SYNC.01 
*SOURCE FILE: 19Y07M26
004934  19Y07M26                         A8    C        20:49:42:24 20:49:43:21 01:22:29:06 01:22:30:03 
*FROM CLIP NAME:  30K2/03.SYNC.01 
*PATCH 19Y07M26:  FROM SOURCE 1 TO RECORD 8 
*SOURCE FILE: 19Y07M26
004935  19Y07M26                         A9    C        20:49:42:24 20:49:43:21 01:22:29:06 01:22:30:03 
*FROM CLIP NAME:  30K2/03.SYNC.01 
*SOURCE FILE: 19Y07M26
004936  19Y07M26                         A10   C        20:49:42:24 20:49:43:21 01:22:29:06 01:22:30:03 
*FROM CLIP NAME:  30K2/03.SYNC.01 
*PATCH 19Y07M26:  FROM SOURCE 1 TO RECORD 10 
*SOURCE FILE: 19Y07M26
004937  19Y07M26                         A11   C        20:49:42:24 20:49:43:21 01:22:29:06 01:22:30:03 
*FROM CLIP NAME:  30K2/03.SYNC.01 
*PATCH 19Y07M26:  FROM SOURCE 1 TO RECORD 11 
*SOURCE FILE: 19Y07M26
004938  A009C002_190726_R32C             V     C        21:17:00:18 21:17:03:16 01:22:30:03 01:22:33:01 
*FROM CLIP NAME:  A009C002_190726_R32C.NEW.01 
*SOURCE FILE: A009C002_190726_R32C
004939  19Y07M26                         A     C        21:17:00:18 21:17:08:17 01:22:30:03 01:22:38:02 
*FROM CLIP NAME:  30K4/02.SYNC.01 
*A1 VOL =  +7.0 DB  PAN R100 
*SOURCE FILE: 19Y07M26
004940  19Y07M26                         A2    C        21:17:00:18 21:17:08:17 01:22:30:03 01:22:38:02 
*FROM CLIP NAME:  30K4/02.SYNC.01 
*A2 VOL =  +7.0 DB  PAN L100 
*SOURCE FILE: 19Y07M26
004941  19Y07M26                         A3    C        21:17:00:18 21:17:08:17 01:22:30:03 01:22:38:02 
*FROM CLIP NAME:  30K4/02.SYNC.01 
*A3 VOL =  +7.0 DB  PAN R100 
*SOURCE FILE: 19Y07M26
004942  19Y07M26                         A4    C        21:17:00:18 21:17:08:17 01:22:30:03 01:22:38:02 
*FROM CLIP NAME:  30K4/02.SYNC.01 
*A4 VOL =  +7.0 DB  PAN L100 
*SOURCE FILE: 19Y07M26
004943  19Y07M26                         A5    C        21:17:00:18 21:17:08:17 01:22:30:03 01:22:38:02 
*FROM CLIP NAME:  30K4/02.SYNC.01 
*A5 VOL =  +7.0 DB  PAN R100 
*SOURCE FILE: 19Y07M26
004944  19Y07M26                         A6    C        21:17:00:18 21:17:08:17 01:22:30:03 01:22:38:02 
*FROM CLIP NAME:  30K4/02.SYNC.01 
*A6 VOL =  +7.0 DB  PAN L100 
*PATCH 19Y07M26:  FROM SOURCE 1 TO RECORD 6 
*SOURCE FILE: 19Y07M26
004945  19Y07M26                         A7    C        21:17:00:18 21:17:08:17 01:22:30:03 01:22:38:02 
*FROM CLIP NAME:  30K4/02.SYNC.01 
*A7 VOL =  +7.0 DB  PAN R100 
*SOURCE FILE: 19Y07M26
004946  19Y07M26                         A8    C        21:17:00:18 21:17:08:17 01:22:30:03 01:22:38:02 
*FROM CLIP NAME:  30K4/02.SYNC.01 
*A8 VOL =  +7.0 DB  PAN L100 
*PATCH 19Y07M26:  FROM SOURCE 1 TO RECORD 8 
*SOURCE FILE: 19Y07M26
004947  19Y07M26                         A9    C        21:17:00:18 21:17:08:17 01:22:30:03 01:22:38:02 
*FROM CLIP NAME:  30K4/02.SYNC.01 
*A9 VOL =  +7.0 DB  PAN R100 
*SOURCE FILE: 19Y07M26
004948  19Y07M26                         A10   C        21:17:00:18 21:17:08:17 01:22:30:03 01:22:38:02 
*FROM CLIP NAME:  30K4/02.SYNC.01 
*A10 VOL =  +7.0 DB  PAN L100 
*PATCH 19Y07M26:  FROM SOURCE 1 TO RECORD 10 
*SOURCE FILE: 19Y07M26
004949  19Y07M26                         A11   C        21:17:00:18 21:17:08:17 01:22:30:03 01:22:38:02 
*FROM CLIP NAME:  30K4/02.SYNC.01 
*A11 VOL =  +7.0 DB  PAN R100 
*PATCH 19Y07M26:  FROM SOURCE 1 TO RECORD 11 
*SOURCE FILE: 19Y07M26
004950  B006C001_190726_R4CP             V     C        20:44:34:12 20:44:41:00 01:22:33:01 01:22:39:14 
*FROM CLIP NAME:  B006C001_190726_R4CP.NEW.01 
*SOURCE FILE: B006C001_190726_R4CP
004951  19Y07M26                         A     C        21:17:08:17 21:17:08:17 01:22:38:02 01:22:38:02 
004951  19Y07M26                         A     D    002 21:17:18:16 21:17:18:18 01:22:38:02 01:22:38:04 
*FROM CLIP NAME:  30K4/02.SYNC.01 
*TO CLIP NAME:  30K4/02.SYNC.01 
*A1 VOL =  +7.0 DB  PAN R100 
*A1 VOL =  +5.4 DB  PAN R100 
*SOURCE FILE: 19Y07M26
004952  19Y07M26                         A2    C        21:17:08:17 21:17:08:17 01:22:38:02 01:22:38:02 
004952  19Y07M26                         A2    D    002 21:17:18:16 21:17:18:18 01:22:38:02 01:22:38:04 
*FROM CLIP NAME:  30K4/02.SYNC.01 
*TO CLIP NAME:  30K4/02.SYNC.01 
*A2 VOL =  +7.0 DB  PAN L100 
*A2 VOL =  +5.4 DB  PAN L100 
*SOURCE FILE: 19Y07M26
004953  19Y07M26                         A3    C        21:17:08:17 21:17:08:17 01:22:38:02 01:22:38:02 
004953  19Y07M26                         A3    D    002 21:17:18:16 21:17:18:18 01:22:38:02 01:22:38:04 
*FROM CLIP NAME:  30K4/02.SYNC.01 
*TO CLIP NAME:  30K4/02.SYNC.01 
*A3 VOL =  +7.0 DB  PAN R100 
*A3 VOL =  +5.4 DB  PAN R100 
*SOURCE FILE: 19Y07M26
004954  19Y07M26                         A4    C        21:17:08:17 21:17:08:17 01:22:38:02 01:22:38:02 
004954  19Y07M26                         A4    D    002 21:17:18:16 21:17:18:18 01:22:38:02 01:22:38:04 
*FROM CLIP NAME:  30K4/02.SYNC.01 
*TO CLIP NAME:  30K4/02.SYNC.01 
*A4 VOL =  +7.0 DB  PAN L100 
*A4 VOL =  +5.4 DB  PAN L100 
*SOURCE FILE: 19Y07M26
004955  19Y07M26                         A5    C        21:17:08:17 21:17:08:17 01:22:38:02 01:22:38:02 
004955  19Y07M26                         A5    D    002 21:17:18:16 21:17:18:18 01:22:38:02 01:22:38:04 
*FROM CLIP NAME:  30K4/02.SYNC.01 
*TO CLIP NAME:  30K4/02.SYNC.01 
*A5 VOL =  +7.0 DB  PAN R100 
*A5 VOL =  +5.4 DB  PAN R100 
*SOURCE FILE: 19Y07M26
004956  19Y07M26                         A6    C        21:17:08:17 21:17:08:17 01:22:38:02 01:22:38:02 
004956  19Y07M26                         A6    D    002 21:17:18:16 21:17:18:18 01:22:38:02 01:22:38:04 
*FROM CLIP NAME:  30K4/02.SYNC.01 
*TO CLIP NAME:  30K4/02.SYNC.01 
*A6 VOL =  +7.0 DB  PAN L100 
*A6 VOL =  +5.4 DB  PAN L100 
*PATCH 19Y07M26:  FROM SOURCE 1 TO RECORD 6 
*PATCH 19Y07M26:  FROM SOURCE 1 TO RECORD 6 
*SOURCE FILE: 19Y07M26
004957  19Y07M26                         A7    C        21:17:08:17 21:17:08:17 01:22:38:02 01:22:38:02 
004957  19Y07M26                         A7    D    002 21:17:18:16 21:17:18:18 01:22:38:02 01:22:38:04 
*FROM CLIP NAME:  30K4/02.SYNC.01 
*TO CLIP NAME:  30K4/02.SYNC.01 
*A7 VOL =  +7.0 DB  PAN R100 
*A7 VOL =  +5.4 DB  PAN R100 
*SOURCE FILE: 19Y07M26
004958  19Y07M26                         A8    C        21:17:08:17 21:17:08:17 01:22:38:02 01:22:38:02 
004958  19Y07M26                         A8    D    002 21:17:18:16 21:17:18:18 01:22:38:02 01:22:38:04 
*FROM CLIP NAME:  30K4/02.SYNC.01 
*TO CLIP NAME:  30K4/02.SYNC.01 
*A8 VOL =  +7.0 DB  PAN L100 
*A8 VOL =  +5.4 DB  PAN L100 
*PATCH 19Y07M26:  FROM SOURCE 1 TO RECORD 8 
*PATCH 19Y07M26:  FROM SOURCE 1 TO RECORD 8 
*SOURCE FILE: 19Y07M26
004959  19Y07M26                         A9    C        21:17:08:17 21:17:08:17 01:22:38:02 01:22:38:02 
004959  19Y07M26                         A9    D    002 21:17:18:16 21:17:18:18 01:22:38:02 01:22:38:04 
*FROM CLIP NAME:  30K4/02.SYNC.01 
*TO CLIP NAME:  30K4/02.SYNC.01 
*A9 VOL =  +7.0 DB  PAN R100 
*A9 VOL =  +5.4 DB  PAN R100 
*SOURCE FILE: 19Y07M26
004960  19Y07M26                         A10   C        21:17:08:17 21:17:08:17 01:22:38:02 01:22:38:02 
004960  19Y07M26                         A10   D    002 21:17:18:16 21:17:18:18 01:22:38:02 01:22:38:04 
*FROM CLIP NAME:  30K4/02.SYNC.01 
*TO CLIP NAME:  30K4/02.SYNC.01 
*A10 VOL =  +7.0 DB  PAN L100 
*A10 VOL =  +5.4 DB  PAN L100 
*PATCH 19Y07M26:  FROM SOURCE 1 TO RECORD 10 
*PATCH 19Y07M26:  FROM SOURCE 1 TO RECORD 10 
*SOURCE FILE: 19Y07M26
004961  19Y07M26                         A11   C        21:17:08:17 21:17:08:17 01:22:38:02 01:22:38:02 
004961  19Y07M26                         A11   D    002 21:17:18:16 21:17:18:18 01:22:38:02 01:22:38:04 
*FROM CLIP NAME:  30K4/02.SYNC.01 
*TO CLIP NAME:  30K4/02.SYNC.01 
*A11 VOL =  +7.0 DB  PAN R100 
*A11 VOL =  +5.4 DB  PAN R100 
*PATCH 19Y07M26:  FROM SOURCE 1 TO RECORD 11 
*PATCH 19Y07M26:  FROM SOURCE 1 TO RECORD 11 
*SOURCE FILE: 19Y07M26
004962  19Y07M26                         A     C        21:17:18:18 21:17:19:19 01:22:38:04 01:22:39:05 
*FROM CLIP NAME:  30K4/02.SYNC.01 
*A1 VOL =  +5.4 DB  PAN R100 
*SOURCE FILE: 19Y07M26
004963  19Y07M26                         A2    C        21:17:18:18 21:17:19:19 01:22:38:04 01:22:39:05 
*FROM CLIP NAME:  30K4/02.SYNC.01 
*A2 VOL =  +5.4 DB  PAN L100 
*SOURCE FILE: 19Y07M26
004964  19Y07M26                         A3    C        21:17:18:18 21:17:19:19 01:22:38:04 01:22:39:05 
*FROM CLIP NAME:  30K4/02.SYNC.01 
*A3 VOL =  +5.4 DB  PAN R100 
*SOURCE FILE: 19Y07M26
004965  19Y07M26                         A4    C        21:17:18:18 21:17:19:19 01:22:38:04 01:22:39:05 
*FROM CLIP NAME:  30K4/02.SYNC.01 
*A4 VOL =  +5.4 DB  PAN L100 
*SOURCE FILE: 19Y07M26
004966  19Y07M26                         A5    C        21:17:18:18 21:17:19:19 01:22:38:04 01:22:39:05 
*FROM CLIP NAME:  30K4/02.SYNC.01 
*A5 VOL =  +5.4 DB  PAN R100 
*SOURCE FILE: 19Y07M26
004967  19Y07M26                         A6    C        21:17:18:18 21:17:19:19 01:22:38:04 01:22:39:05 
*FROM CLIP NAME:  30K4/02.SYNC.01 
*A6 VOL =  +5.4 DB  PAN L100 
*PATCH 19Y07M26:  FROM SOURCE 1 TO RECORD 6 
*SOURCE FILE: 19Y07M26
004968  19Y07M26                         A7    C        21:17:18:18 21:17:19:19 01:22:38:04 01:22:39:05 
*FROM CLIP NAME:  30K4/02.SYNC.01 
*A7 VOL =  +5.4 DB  PAN R100 
*SOURCE FILE: 19Y07M26
004969  19Y07M26                         A8    C        21:17:18:18 21:17:19:19 01:22:38:04 01:22:39:05 
*FROM CLIP NAME:  30K4/02.SYNC.01 
*A8 VOL =  +5.4 DB  PAN L100 
*PATCH 19Y07M26:  FROM SOURCE 1 TO RECORD 8 
*SOURCE FILE: 19Y07M26
004970  19Y07M26                         A9    C        21:17:18:18 21:17:19:19 01:22:38:04 01:22:39:05 
*FROM CLIP NAME:  30K4/02.SYNC.01 
*A9 VOL =  +5.4 DB  PAN R100 
*SOURCE FILE: 19Y07M26
004971  19Y07M26                         A10   C        21:17:18:18 21:17:19:19 01:22:38:04 01:22:39:05 
*FROM CLIP NAME:  30K4/02.SYNC.01 
*A10 VOL =  +5.4 DB  PAN L100 
*PATCH 19Y07M26:  FROM SOURCE 1 TO RECORD 10 
*SOURCE FILE: 19Y07M26
004972  19Y07M26                         A11   C        21:17:18:18 21:17:19:19 01:22:38:04 01:22:39:05 
*FROM CLIP NAME:  30K4/02.SYNC.01 
*A11 VOL =  +5.4 DB  PAN R100 
*PATCH 19Y07M26:  FROM SOURCE 1 TO RECORD 11 
*SOURCE FILE: 19Y07M26
004973  19Y07M26                         A     C        21:17:19:19 21:17:19:19 01:22:39:05 01:22:39:05 
004973  19Y07M26                         A     D    002 20:44:40:16 20:44:40:18 01:22:39:05 01:22:39:07 
*FROM CLIP NAME:  30K4/02.SYNC.01 
*TO CLIP NAME:  30K2/01.SYNC.01 
*A1 VOL =  +5.4 DB  PAN R100 
*A1 VOL =  +6.0 DB  PAN R100 
*SOURCE FILE: 19Y07M26
004974  19Y07M26                         A2    C        21:17:19:19 21:17:19:19 01:22:39:05 01:22:39:05 
004974  19Y07M26                         A2    D    002 20:44:40:16 20:44:40:18 01:22:39:05 01:22:39:07 
*FROM CLIP NAME:  30K4/02.SYNC.01 
*TO CLIP NAME:  30K2/01.SYNC.01 
*A2 VOL =  +5.4 DB  PAN L100 
*A2 VOL =  +6.0 DB  PAN L100 
*SOURCE FILE: 19Y07M26
004975  19Y07M26                         A3    C        21:17:19:19 21:17:19:19 01:22:39:05 01:22:39:05 
004975  19Y07M26                         A3    D    002 20:44:40:16 20:44:40:18 01:22:39:05 01:22:39:07 
*FROM CLIP NAME:  30K4/02.SYNC.01 
*TO CLIP NAME:  30K2/01.SYNC.01 
*A3 VOL =  +5.4 DB  PAN R100 
*A3 VOL =  +6.0 DB  PAN R100 
*SOURCE FILE: 19Y07M26
004976  19Y07M26                         A4    C        21:17:19:19 21:17:19:19 01:22:39:05 01:22:39:05 
004976  19Y07M26                         A4    D    002 20:44:40:16 20:44:40:18 01:22:39:05 01:22:39:07 
*FROM CLIP NAME:  30K4/02.SYNC.01 
*TO CLIP NAME:  30K2/01.SYNC.01 
*A4 VOL =  +5.4 DB  PAN L100 
*A4 VOL =  +6.0 DB  PAN L100 
*SOURCE FILE: 19Y07M26
004977  19Y07M26                         A5    C        21:17:19:19 21:17:19:19 01:22:39:05 01:22:39:05 
004977  19Y07M26                         A5    D    002 20:44:40:16 20:44:40:18 01:22:39:05 01:22:39:07 
*FROM CLIP NAME:  30K4/02.SYNC.01 
*TO CLIP NAME:  30K2/01.SYNC.01 
*A5 VOL =  +5.4 DB  PAN R100 
*A5 VOL =  +9.0 DB  PAN R100 
*SOURCE FILE: 19Y07M26
004978  19Y07M26                         A6    C        21:17:19:19 21:17:19:19 01:22:39:05 01:22:39:05 
004978  19Y07M26                         A6    D    002 20:44:40:16 20:44:40:18 01:22:39:05 01:22:39:07 
*FROM CLIP NAME:  30K4/02.SYNC.01 
*TO CLIP NAME:  30K2/01.SYNC.01 
*A6 VOL =  +5.4 DB  PAN L100 
*A6 VOL =  +6.0 DB  PAN L100 
*PATCH 19Y07M26:  FROM SOURCE 1 TO RECORD 6 
*PATCH 19Y07M26:  FROM SOURCE 1 TO RECORD 6 
*SOURCE FILE: 19Y07M26
004979  19Y07M26                         A7    C        21:17:19:19 21:17:19:19 01:22:39:05 01:22:39:05 
004979  19Y07M26                         A7    D    002 20:44:40:16 20:44:40:18 01:22:39:05 01:22:39:07 
*FROM CLIP NAME:  30K4/02.SYNC.01 
*TO CLIP NAME:  30K2/01.SYNC.01 
*A7 VOL =  +5.4 DB  PAN R100 
*A7 VOL =  +6.0 DB  PAN R100 
*SOURCE FILE: 19Y07M26
004980  19Y07M26                         A8    C        21:17:19:19 21:17:19:19 01:22:39:05 01:22:39:05 
004980  19Y07M26                         A8    D    002 20:44:40:16 20:44:40:18 01:22:39:05 01:22:39:07 
*FROM CLIP NAME:  30K4/02.SYNC.01 
*TO CLIP NAME:  30K2/01.SYNC.01 
*A8 VOL =  +5.4 DB  PAN L100 
*A8 VOL =  +6.0 DB  PAN L100 
*PATCH 19Y07M26:  FROM SOURCE 1 TO RECORD 8 
*PATCH 19Y07M26:  FROM SOURCE 1 TO RECORD 8 
*SOURCE FILE: 19Y07M26
004981  19Y07M26                         A9    C        21:17:19:19 21:17:19:19 01:22:39:05 01:22:39:05 
004981  19Y07M26                         A9    D    002 20:44:40:16 20:44:40:18 01:22:39:05 01:22:39:07 
*FROM CLIP NAME:  30K4/02.SYNC.01 
*TO CLIP NAME:  30K2/01.SYNC.01 
*A9 VOL =  +5.4 DB  PAN R100 
*A9 VOL =  +6.0 DB  PAN R100 
*SOURCE FILE: 19Y07M26
004982  19Y07M26                         A10   C        21:17:19:19 21:17:19:19 01:22:39:05 01:22:39:05 
004982  19Y07M26                         A10   D    002 20:44:40:16 20:44:40:18 01:22:39:05 01:22:39:07 
*FROM CLIP NAME:  30K4/02.SYNC.01 
*TO CLIP NAME:  30K2/01.SYNC.01 
*A10 VOL =  +5.4 DB  PAN L100 
*A10 VOL =  +6.0 DB  PAN L100 
*PATCH 19Y07M26:  FROM SOURCE 1 TO RECORD 10 
*PATCH 19Y07M26:  FROM SOURCE 1 TO RECORD 10 
*SOURCE FILE: 19Y07M26
004983  19Y07M26                         A11   C        21:17:19:19 21:17:19:19 01:22:39:05 01:22:39:05 
004983  19Y07M26                         A11   D    002 20:44:40:16 20:44:40:18 01:22:39:05 01:22:39:07 
*FROM CLIP NAME:  30K4/02.SYNC.01 
*TO CLIP NAME:  30K2/01.SYNC.01 
*A11 VOL =  +5.4 DB  PAN R100 
*A11 VOL =  +6.0 DB  PAN R100 
*PATCH 19Y07M26:  FROM SOURCE 1 TO RECORD 11 
*PATCH 19Y07M26:  FROM SOURCE 1 TO RECORD 11 
*SOURCE FILE: 19Y07M26
004984  19Y07M26                         A     C        20:44:40:18 20:44:43:04 01:22:39:07 01:22:41:18 
*FROM CLIP NAME:  30K2/01.SYNC.01 
*A1 VOL =  +6.0 DB  PAN R100 
*SOURCE FILE: 19Y07M26
004985  19Y07M26                         A2    C        20:44:40:18 20:44:43:04 01:22:39:07 01:22:41:18 
*FROM CLIP NAME:  30K2/01.SYNC.01 
*A2 VOL =  +6.0 DB  PAN L100 
*SOURCE FILE: 19Y07M26
004986  19Y07M26                         A3    C        20:44:40:18 20:44:43:04 01:22:39:07 01:22:41:18 
*FROM CLIP NAME:  30K2/01.SYNC.01 
*A3 VOL =  +6.0 DB  PAN R100 
*SOURCE FILE: 19Y07M26
004987  19Y07M26                         A4    C        20:44:40:18 20:44:43:04 01:22:39:07 01:22:41:18 
*FROM CLIP NAME:  30K2/01.SYNC.01 
*A4 VOL =  +6.0 DB  PAN L100 
*SOURCE FILE: 19Y07M26
004988  19Y07M26                         A5    C        20:44:40:18 20:44:43:04 01:22:39:07 01:22:41:18 
*FROM CLIP NAME:  30K2/01.SYNC.01 
*A5 VOL =  +9.0 DB  PAN R100 
*SOURCE FILE: 19Y07M26
004989  19Y07M26                         A6    C        20:44:40:18 20:44:43:04 01:22:39:07 01:22:41:18 
*FROM CLIP NAME:  30K2/01.SYNC.01 
*A6 VOL =  +6.0 DB  PAN L100 
*PATCH 19Y07M26:  FROM SOURCE 1 TO RECORD 6 
*SOURCE FILE: 19Y07M26
004990  19Y07M26                         A7    C        20:44:40:18 20:44:43:04 01:22:39:07 01:22:41:18 
*FROM CLIP NAME:  30K2/01.SYNC.01 
*A7 VOL =  +6.0 DB  PAN R100 
*SOURCE FILE: 19Y07M26
004991  19Y07M26                         A8    C        20:44:40:18 20:44:43:04 01:22:39:07 01:22:41:18 
*FROM CLIP NAME:  30K2/01.SYNC.01 
*A8 VOL =  +6.0 DB  PAN L100 
*PATCH 19Y07M26:  FROM SOURCE 1 TO RECORD 8 
*SOURCE FILE: 19Y07M26
004992  19Y07M26                         A9    C        20:44:40:18 20:44:43:04 01:22:39:07 01:22:41:18 
*FROM CLIP NAME:  30K2/01.SYNC.01 
*A9 VOL =  +6.0 DB  PAN R100 
*SOURCE FILE: 19Y07M26
004993  19Y07M26                         A10   C        20:44:40:18 20:44:43:04 01:22:39:07 01:22:41:18 
*FROM CLIP NAME:  30K2/01.SYNC.01 
*A10 VOL =  +6.0 DB  PAN L100 
*PATCH 19Y07M26:  FROM SOURCE 1 TO RECORD 10 
*SOURCE FILE: 19Y07M26
004994  19Y07M26                         A11   C        20:44:40:18 20:44:43:04 01:22:39:07 01:22:41:18 
*FROM CLIP NAME:  30K2/01.SYNC.01 
*A11 VOL =  +6.0 DB  PAN R100 
*PATCH 19Y07M26:  FROM SOURCE 1 TO RECORD 11 
*SOURCE FILE: 19Y07M26
004995  A008C001_190726_R32C             V     C        20:44:41:00 20:44:44:02 01:22:39:14 01:22:42:16 
*FROM CLIP NAME:  A008C001_190726_R32C.NEW.01 
*SOURCE FILE: A008C001_190726_R32C
004996  19Y07M26                         A     C        20:44:43:04 20:44:43:04 01:22:41:18 01:22:41:18 
004996  19Y07M26                         A     D    002 21:17:10:23 21:17:11:00 01:22:41:18 01:22:41:20 
*FROM CLIP NAME:  30K2/01.SYNC.01 
*TO CLIP NAME:  30K4/02.SYNC.01 
*A1 VOL =  +6.0 DB  PAN R100 
*A1 VOL =  +6.3 DB  PAN R100 
*SOURCE FILE: 19Y07M26
004997  19Y07M26                         A2    C        20:44:43:04 20:44:43:04 01:22:41:18 01:22:41:18 
004997  19Y07M26                         A2    D    002 21:17:10:23 21:17:11:00 01:22:41:18 01:22:41:20 
*FROM CLIP NAME:  30K2/01.SYNC.01 
*TO CLIP NAME:  30K4/02.SYNC.01 
*A2 VOL =  +6.0 DB  PAN L100 
*A2 VOL =  +6.3 DB  PAN L100 
*SOURCE FILE: 19Y07M26
004998  19Y07M26                         A3    C        20:44:43:04 20:44:43:04 01:22:41:18 01:22:41:18 
004998  19Y07M26                         A3    D    002 21:17:10:23 21:17:11:00 01:22:41:18 01:22:41:20 
*FROM CLIP NAME:  30K2/01.SYNC.01 
*TO CLIP NAME:  30K4/02.SYNC.01 
*A3 VOL =  +6.0 DB  PAN R100 
*A3 VOL =  +6.3 DB  PAN R100 
*SOURCE FILE: 19Y07M26
004999  19Y07M26                         A4    C        20:44:43:04 20:44:43:04 01:22:41:18 01:22:41:18 
004999  19Y07M26                         A4    D    002 21:17:10:23 21:17:11:00 01:22:41:18 01:22:41:20 
*FROM CLIP NAME:  30K2/01.SYNC.01 
*TO CLIP NAME:  30K4/02.SYNC.01 
*A4 VOL =  +6.0 DB  PAN L100 
*A4 VOL =  +6.3 DB  PAN L100 
*SOURCE FILE: 19Y07M26
005000  19Y07M26                         A5    C        20:44:43:04 20:44:43:04 01:22:41:18 01:22:41:18 
005000  19Y07M26                         A5    D    002 21:17:10:23 21:17:11:00 01:22:41:18 01:22:41:20 
*FROM CLIP NAME:  30K2/01.SYNC.01 
*TO CLIP NAME:  30K4/02.SYNC.01 
*A5 VOL =  +9.0 DB  PAN R100 
*A5 VOL =  +6.3 DB  PAN R100 
*SOURCE FILE: 19Y07M26
005001  19Y07M26                         A6    C        20:44:43:04 20:44:43:04 01:22:41:18 01:22:41:18 
005001  19Y07M26                         A6    D    002 21:17:10:23 21:17:11:00 01:22:41:18 01:22:41:20 
*FROM CLIP NAME:  30K2/01.SYNC.01 
*TO CLIP NAME:  30K4/02.SYNC.01 
*A6 VOL =  +6.0 DB  PAN L100 
*A6 VOL =  +6.3 DB  PAN L100 
*PATCH 19Y07M26:  FROM SOURCE 1 TO RECORD 6 
*PATCH 19Y07M26:  FROM SOURCE 1 TO RECORD 6 
*SOURCE FILE: 19Y07M26
005002  19Y07M26                         A7    C        20:44:43:04 20:44:43:04 01:22:41:18 01:22:41:18 
005002  19Y07M26                         A7    D    002 21:17:10:23 21:17:11:00 01:22:41:18 01:22:41:20 
*FROM CLIP NAME:  30K2/01.SYNC.01 
*TO CLIP NAME:  30K4/02.SYNC.01 
*A7 VOL =  +6.0 DB  PAN R100 
*A7 VOL =  +6.3 DB  PAN R100 
*SOURCE FILE: 19Y07M26
005003  19Y07M26                         A8    C        20:44:43:04 20:44:43:04 01:22:41:18 01:22:41:18 
005003  19Y07M26                         A8    D    002 21:17:10:23 21:17:11:00 01:22:41:18 01:22:41:20 
*FROM CLIP NAME:  30K2/01.SYNC.01 
*TO CLIP NAME:  30K4/02.SYNC.01 
*A8 VOL =  +6.0 DB  PAN L100 
*A8 VOL =  +6.3 DB  PAN L100 
*PATCH 19Y07M26:  FROM SOURCE 1 TO RECORD 8 
*PATCH 19Y07M26:  FROM SOURCE 1 TO RECORD 8 
*SOURCE FILE: 19Y07M26
005004  19Y07M26                         A9    C        20:44:43:04 20:44:43:04 01:22:41:18 01:22:41:18 
005004  19Y07M26                         A9    D    002 21:17:10:23 21:17:11:00 01:22:41:18 01:22:41:20 
*FROM CLIP NAME:  30K2/01.SYNC.01 
*TO CLIP NAME:  30K4/02.SYNC.01 
*A9 VOL =  +6.0 DB  PAN R100 
*A9 VOL =  +6.3 DB  PAN R100 
*SOURCE FILE: 19Y07M26
005005  19Y07M26                         A10   C        20:44:43:04 20:44:43:04 01:22:41:18 01:22:41:18 
005005  19Y07M26                         A10   D    002 21:17:10:23 21:17:11:00 01:22:41:18 01:22:41:20 
*FROM CLIP NAME:  30K2/01.SYNC.01 
*TO CLIP NAME:  30K4/02.SYNC.01 
*A10 VOL =  +6.0 DB  PAN L100 
*A10 VOL =  +6.3 DB  PAN L100 
*PATCH 19Y07M26:  FROM SOURCE 1 TO RECORD 10 
*PATCH 19Y07M26:  FROM SOURCE 1 TO RECORD 10 
*SOURCE FILE: 19Y07M26
005006  19Y07M26                         A11   C        20:44:43:04 20:44:43:04 01:22:41:18 01:22:41:18 
005006  19Y07M26                         A11   D    002 21:17:10:23 21:17:11:00 01:22:41:18 01:22:41:20 
*FROM CLIP NAME:  30K2/01.SYNC.01 
*TO CLIP NAME:  30K4/02.SYNC.01 
*A11 VOL =  +6.0 DB  PAN R100 
*A11 VOL =  +6.3 DB  PAN R100 
*PATCH 19Y07M26:  FROM SOURCE 1 TO RECORD 11 
*PATCH 19Y07M26:  FROM SOURCE 1 TO RECORD 11 
*SOURCE FILE: 19Y07M26
005007  19Y07M26                         A     C        21:17:11:00 21:17:14:21 01:22:41:20 01:22:45:16 
*FROM CLIP NAME:  30K4/02.SYNC.01 
*A1 VOL =  +6.3 DB  PAN R100 
*SOURCE FILE: 19Y07M26
005008  19Y07M26                         A2    C        21:17:11:00 21:17:14:21 01:22:41:20 01:22:45:16 
*FROM CLIP NAME:  30K4/02.SYNC.01 
*A2 VOL =  +6.3 DB  PAN L100 
*SOURCE FILE: 19Y07M26
005009  19Y07M26                         A3    C        21:17:11:00 21:17:14:21 01:22:41:20 01:22:45:16 
*FROM CLIP NAME:  30K4/02.SYNC.01 
*A3 VOL =  +6.3 DB  PAN R100 
*SOURCE FILE: 19Y07M26
005010  19Y07M26                         A4    C        21:17:11:00 21:17:14:21 01:22:41:20 01:22:45:16 
*FROM CLIP NAME:  30K4/02.SYNC.01 
*A4 VOL =  +6.3 DB  PAN L100 
*SOURCE FILE: 19Y07M26
005011  19Y07M26                         A5    C        21:17:11:00 21:17:14:21 01:22:41:20 01:22:45:16 
*FROM CLIP NAME:  30K4/02.SYNC.01 
*A5 VOL =  +6.3 DB  PAN R100 
*SOURCE FILE: 19Y07M26
005012  19Y07M26                         A6    C        21:17:11:00 21:17:14:21 01:22:41:20 01:22:45:16 
*FROM CLIP NAME:  30K4/02.SYNC.01 
*A6 VOL =  +6.3 DB  PAN L100 
*PATCH 19Y07M26:  FROM SOURCE 1 TO RECORD 6 
*SOURCE FILE: 19Y07M26
005013  19Y07M26                         A7    C        21:17:11:00 21:17:14:21 01:22:41:20 01:22:45:16 
*FROM CLIP NAME:  30K4/02.SYNC.01 
*A7 VOL =  +6.3 DB  PAN R100 
*SOURCE FILE: 19Y07M26
005014  19Y07M26                         A8    C        21:17:11:00 21:17:14:21 01:22:41:20 01:22:45:16 
*FROM CLIP NAME:  30K4/02.SYNC.01 
*A8 VOL =  +6.3 DB  PAN L100 
*PATCH 19Y07M26:  FROM SOURCE 1 TO RECORD 8 
*SOURCE FILE: 19Y07M26
005015  19Y07M26                         A9    C        21:17:11:00 21:17:14:21 01:22:41:20 01:22:45:16 
*FROM CLIP NAME:  30K4/02.SYNC.01 
*A9 VOL =  +6.3 DB  PAN R100 
*SOURCE FILE: 19Y07M26
005016  19Y07M26                         A10   C        21:17:11:00 21:17:14:21 01:22:41:20 01:22:45:16 
*FROM CLIP NAME:  30K4/02.SYNC.01 
*A10 VOL =  +6.3 DB  PAN L100 
*PATCH 19Y07M26:  FROM SOURCE 1 TO RECORD 10 
*SOURCE FILE: 19Y07M26
005017  19Y07M26                         A11   C        21:17:11:00 21:17:14:21 01:22:41:20 01:22:45:16 
*FROM CLIP NAME:  30K4/02.SYNC.01 
*A11 VOL =  +6.3 DB  PAN R100 
*PATCH 19Y07M26:  FROM SOURCE 1 TO RECORD 11 
*SOURCE FILE: 19Y07M26
005018  A009C002_190726_R32C             V     C        21:17:11:21 21:17:15:05 01:22:42:16 01:22:46:00 
*FROM CLIP NAME:  A009C002_190726_R32C.NEW.01 
*SOURCE FILE: A009C002_190726_R32C
005019  19Y07M26                         A12   C        21:32:10:07 21:32:15:09 01:22:44:23 01:22:50:00 
*FROM CLIP NAME:  30ZK1/01.SUB.01 
*A12 VOL = -17.1 DB  PAN L100 
*PATCH 19Y07M26:  FROM SOURCE 9 TO RECORD 12 
*SOURCE FILE: 19Y07M26
005020  19Y07M26                         A13   C        21:32:10:07 21:32:15:09 01:22:44:23 01:22:50:00 
*FROM CLIP NAME:  30ZK1/01.SUB.01 
*A13 VOL = -17.1 DB  PAN R100 
*PATCH 19Y07M26:  FROM SOURCE 3 TO RECORD 13 
*SOURCE FILE: 19Y07M26
005021  19Y07M26                         A14   C        21:32:10:07 21:32:15:09 01:22:44:23 01:22:50:00 
*FROM CLIP NAME:  30ZK1/01.SUB.01 
*A14 VOL = -17.1 DB  PAN L100 
*PATCH 19Y07M26:  FROM SOURCE 4 TO RECORD 14 
*SOURCE FILE: 19Y07M26
005022  19Y07M26                         A15   C        21:32:10:07 21:32:15:09 01:22:44:23 01:22:50:00 
*FROM CLIP NAME:  30ZK1/01.SUB.01 
*A15 VOL = -17.1 DB  PAN R100 
*PATCH 19Y07M26:  FROM SOURCE 1 TO RECORD 15 
*SOURCE FILE: 19Y07M26
005023  19Y07M26                         A16   C        21:32:10:07 21:32:15:09 01:22:44:23 01:22:50:00 
*FROM CLIP NAME:  30ZK1/01.SUB.01 
*A16 VOL = -17.1 DB  PAN L100 
*PATCH 19Y07M26:  FROM SOURCE 2 TO RECORD 16 
*SOURCE FILE: 19Y07M26
005024  19Y07M26                         A     C        21:17:14:21 21:17:14:21 01:22:45:16 01:22:45:16 
005024  19Y07M26                         A     D    002 20:49:57:19 20:49:57:21 01:22:45:16 01:22:45:18 
*FROM CLIP NAME:  30K4/02.SYNC.01 
*TO CLIP NAME:  30K2/03.SYNC.01 
*A1 VOL =  +6.3 DB  PAN R100 
*A1 VOL =  +6.7 DB  PAN R100 
*SOURCE FILE: 19Y07M26
005025  19Y07M26                         A2    C        21:17:14:21 21:17:14:21 01:22:45:16 01:22:45:16 
005025  19Y07M26                         A2    D    002 20:49:57:19 20:49:57:21 01:22:45:16 01:22:45:18 
*FROM CLIP NAME:  30K4/02.SYNC.01 
*TO CLIP NAME:  30K2/03.SYNC.01 
*A2 VOL =  +6.3 DB  PAN L100 
*A2 VOL =  +6.7 DB  PAN L100 
*SOURCE FILE: 19Y07M26
005026  19Y07M26                         A3    C        21:17:14:21 21:17:14:21 01:22:45:16 01:22:45:16 
005026  19Y07M26                         A3    D    002 20:49:57:19 20:49:57:21 01:22:45:16 01:22:45:18 
*FROM CLIP NAME:  30K4/02.SYNC.01 
*TO CLIP NAME:  30K2/03.SYNC.01 
*A3 VOL =  +6.3 DB  PAN R100 
*A3 VOL =  +6.7 DB  PAN R100 
*SOURCE FILE: 19Y07M26
005027  19Y07M26                         A4    C        21:17:14:21 21:17:14:21 01:22:45:16 01:22:45:16 
005027  19Y07M26                         A4    D    002 20:49:57:19 20:49:57:21 01:22:45:16 01:22:45:18 
*FROM CLIP NAME:  30K4/02.SYNC.01 
*TO CLIP NAME:  30K2/03.SYNC.01 
*A4 VOL =  +6.3 DB  PAN L100 
*A4 VOL =  +6.7 DB  PAN L100 
*SOURCE FILE: 19Y07M26
005028  19Y07M26                         A5    C        21:17:14:21 21:17:14:21 01:22:45:16 01:22:45:16 
005028  19Y07M26                         A5    D    002 20:49:57:19 20:49:57:21 01:22:45:16 01:22:45:18 
*FROM CLIP NAME:  30K4/02.SYNC.01 
*TO CLIP NAME:  30K2/03.SYNC.01 
*A5 VOL =  +6.3 DB  PAN R100 
*A5 VOL =  +9.5 DB  PAN R100 
*SOURCE FILE: 19Y07M26
005029  19Y07M26                         A6    C        21:17:14:21 21:17:14:21 01:22:45:16 01:22:45:16 
005029  19Y07M26                         A6    D    002 20:49:57:19 20:49:57:21 01:22:45:16 01:22:45:18 
*FROM CLIP NAME:  30K4/02.SYNC.01 
*TO CLIP NAME:  30K2/03.SYNC.01 
*A6 VOL =  +6.3 DB  PAN L100 
*A6 VOL =  +6.7 DB  PAN L100 
*PATCH 19Y07M26:  FROM SOURCE 1 TO RECORD 6 
*PATCH 19Y07M26:  FROM SOURCE 1 TO RECORD 6 
*SOURCE FILE: 19Y07M26
005030  19Y07M26                         A7    C        21:17:14:21 21:17:14:21 01:22:45:16 01:22:45:16 
005030  19Y07M26                         A7    D    002 20:49:57:19 20:49:57:21 01:22:45:16 01:22:45:18 
*FROM CLIP NAME:  30K4/02.SYNC.01 
*TO CLIP NAME:  30K2/03.SYNC.01 
*A7 VOL =  +6.3 DB  PAN R100 
*A7 VOL =  +6.7 DB  PAN R100 
*SOURCE FILE: 19Y07M26
005031  19Y07M26                         A8    C        21:17:14:21 21:17:14:21 01:22:45:16 01:22:45:16 
005031  19Y07M26                         A8    D    002 20:49:57:19 20:49:57:21 01:22:45:16 01:22:45:18 
*FROM CLIP NAME:  30K4/02.SYNC.01 
*TO CLIP NAME:  30K2/03.SYNC.01 
*A8 VOL =  +6.3 DB  PAN L100 
*A8 VOL =  +6.7 DB  PAN L100 
*PATCH 19Y07M26:  FROM SOURCE 1 TO RECORD 8 
*PATCH 19Y07M26:  FROM SOURCE 1 TO RECORD 8 
*SOURCE FILE: 19Y07M26
005032  19Y07M26                         A9    C        21:17:14:21 21:17:14:21 01:22:45:16 01:22:45:16 
005032  19Y07M26                         A9    D    002 20:49:57:19 20:49:57:21 01:22:45:16 01:22:45:18 
*FROM CLIP NAME:  30K4/02.SYNC.01 
*TO CLIP NAME:  30K2/03.SYNC.01 
*A9 VOL =  +6.3 DB  PAN R100 
*A9 VOL =  +6.7 DB  PAN R100 
*SOURCE FILE: 19Y07M26
005033  19Y07M26                         A10   C        21:17:14:21 21:17:14:21 01:22:45:16 01:22:45:16 
005033  19Y07M26                         A10   D    002 20:49:57:19 20:49:57:21 01:22:45:16 01:22:45:18 
*FROM CLIP NAME:  30K4/02.SYNC.01 
*TO CLIP NAME:  30K2/03.SYNC.01 
*A10 VOL =  +6.3 DB  PAN L100 
*A10 VOL =  +6.7 DB  PAN L100 
*PATCH 19Y07M26:  FROM SOURCE 1 TO RECORD 10 
*PATCH 19Y07M26:  FROM SOURCE 1 TO RECORD 10 
*SOURCE FILE: 19Y07M26
005034  19Y07M26                         A11   C        21:17:14:21 21:17:14:21 01:22:45:16 01:22:45:16 
005034  19Y07M26                         A11   D    002 20:49:57:19 20:49:57:21 01:22:45:16 01:22:45:18 
*FROM CLIP NAME:  30K4/02.SYNC.01 
*TO CLIP NAME:  30K2/03.SYNC.01 
*A11 VOL =  +6.3 DB  PAN R100 
*A11 VOL =  +6.7 DB  PAN R100 
*PATCH 19Y07M26:  FROM SOURCE 1 TO RECORD 11 
*PATCH 19Y07M26:  FROM SOURCE 1 TO RECORD 11 
*SOURCE FILE: 19Y07M26
005035  19Y07M26                         A     C        20:49:57:21 20:50:01:12 01:22:45:18 01:22:49:09 
*FROM CLIP NAME:  30K2/03.SYNC.01 
*A1 VOL =  +6.7 DB  PAN R100 
*SOURCE FILE: 19Y07M26
005036  19Y07M26                         A2    C        20:49:57:21 20:50:01:12 01:22:45:18 01:22:49:09 
*FROM CLIP NAME:  30K2/03.SYNC.01 
*A2 VOL =  +6.7 DB  PAN L100 
*SOURCE FILE: 19Y07M26
005037  19Y07M26                         A3    C        20:49:57:21 20:50:01:12 01:22:45:18 01:22:49:09 
*FROM CLIP NAME:  30K2/03.SYNC.01 
*A3 VOL =  +6.7 DB  PAN R100 
*SOURCE FILE: 19Y07M26
005038  19Y07M26                         A4    C        20:49:57:21 20:50:01:12 01:22:45:18 01:22:49:09 
*FROM CLIP NAME:  30K2/03.SYNC.01 
*A4 VOL =  +6.7 DB  PAN L100 
*SOURCE FILE: 19Y07M26
005039  19Y07M26                         A5    C        20:49:57:21 20:50:01:12 01:22:45:18 01:22:49:09 
*FROM CLIP NAME:  30K2/03.SYNC.01 
*A5 VOL =  +9.5 DB  PAN R100 
*SOURCE FILE: 19Y07M26
005040  19Y07M26                         A6    C        20:49:57:21 20:50:01:12 01:22:45:18 01:22:49:09 
*FROM CLIP NAME:  30K2/03.SYNC.01 
*A6 VOL =  +6.7 DB  PAN L100 
*PATCH 19Y07M26:  FROM SOURCE 1 TO RECORD 6 
*SOURCE FILE: 19Y07M26
005041  19Y07M26                         A7    C        20:49:57:21 20:50:01:12 01:22:45:18 01:22:49:09 
*FROM CLIP NAME:  30K2/03.SYNC.01 
*A7 VOL =  +6.7 DB  PAN R100 
*SOURCE FILE: 19Y07M26
005042  19Y07M26                         A8    C        20:49:57:21 20:50:01:12 01:22:45:18 01:22:49:09 
*FROM CLIP NAME:  30K2/03.SYNC.01 
*A8 VOL =  +6.7 DB  PAN L100 
*PATCH 19Y07M26:  FROM SOURCE 1 TO RECORD 8 
*SOURCE FILE: 19Y07M26
005043  19Y07M26                         A9    C        20:49:57:21 20:50:01:12 01:22:45:18 01:22:49:09 
*FROM CLIP NAME:  30K2/03.SYNC.01 
*A9 VOL =  +6.7 DB  PAN R100 
*SOURCE FILE: 19Y07M26
005044  19Y07M26                         A10   C        20:49:57:21 20:50:01:12 01:22:45:18 01:22:49:09 
*FROM CLIP NAME:  30K2/03.SYNC.01 
*A10 VOL =  +6.7 DB  PAN L100 
*PATCH 19Y07M26:  FROM SOURCE 1 TO RECORD 10 
*SOURCE FILE: 19Y07M26
005045  19Y07M26                         A11   C        20:49:57:21 20:50:01:12 01:22:45:18 01:22:49:09 
*FROM CLIP NAME:  30K2/03.SYNC.01 
*A11 VOL =  +6.7 DB  PAN R100 
*PATCH 19Y07M26:  FROM SOURCE 1 TO RECORD 11 
*SOURCE FILE: 19Y07M26
005046  B006C002_190726_R4CP             V     C        20:49:58:03 20:50:01:13 01:22:46:00 01:22:49:10 
*FROM CLIP NAME:  B006C002_190726_R4CP.NEW.01 
*SOURCE FILE: B006C002_190726_R4CP
005047  19Y07M26                         A     C        20:50:01:12 20:50:01:12 01:22:49:09 01:22:49:09 
005047  19Y07M26                         A     D    002 21:17:17:04 21:17:17:06 01:22:49:09 01:22:49:11 
*FROM CLIP NAME:  30K2/03.SYNC.01 
*TO CLIP NAME:  30K4/02.SYNC.01 
*A1 VOL =  +6.7 DB  PAN R100 
*A1 VOL =  +7.0 DB  PAN R100 
*SOURCE FILE: 19Y07M26
005048  19Y07M26                         A2    C        20:50:01:12 20:50:01:12 01:22:49:09 01:22:49:09 
005048  19Y07M26                         A2    D    002 21:17:17:04 21:17:17:06 01:22:49:09 01:22:49:11 
*FROM CLIP NAME:  30K2/03.SYNC.01 
*TO CLIP NAME:  30K4/02.SYNC.01 
*A2 VOL =  +6.7 DB  PAN L100 
*A2 VOL =  +7.0 DB  PAN L100 
*SOURCE FILE: 19Y07M26
005049  19Y07M26                         A3    C        20:50:01:12 20:50:01:12 01:22:49:09 01:22:49:09 
005049  19Y07M26                         A3    D    002 21:17:17:04 21:17:17:06 01:22:49:09 01:22:49:11 
*FROM CLIP NAME:  30K2/03.SYNC.01 
*TO CLIP NAME:  30K4/02.SYNC.01 
*A3 VOL =  +6.7 DB  PAN R100 
*A3 VOL =  +7.0 DB  PAN R100 
*SOURCE FILE: 19Y07M26
005050  19Y07M26                         A4    C        20:50:01:12 20:50:01:12 01:22:49:09 01:22:49:09 
005050  19Y07M26                         A4    D    002 21:17:17:04 21:17:17:06 01:22:49:09 01:22:49:11 
*FROM CLIP NAME:  30K2/03.SYNC.01 
*TO CLIP NAME:  30K4/02.SYNC.01 
*A4 VOL =  +6.7 DB  PAN L100 
*A4 VOL =  +7.0 DB  PAN L100 
*SOURCE FILE: 19Y07M26
005051  19Y07M26                         A5    C        20:50:01:12 20:50:01:12 01:22:49:09 01:22:49:09 
005051  19Y07M26                         A5    D    002 21:17:17:04 21:17:17:06 01:22:49:09 01:22:49:11 
*FROM CLIP NAME:  30K2/03.SYNC.01 
*TO CLIP NAME:  30K4/02.SYNC.01 
*A5 VOL =  +9.5 DB  PAN R100 
*A5 VOL =  +7.0 DB  PAN R100 
*SOURCE FILE: 19Y07M26
005052  19Y07M26                         A6    C        20:50:01:12 20:50:01:12 01:22:49:09 01:22:49:09 
005052  19Y07M26                         A6    D    002 21:17:17:04 21:17:17:06 01:22:49:09 01:22:49:11 
*FROM CLIP NAME:  30K2/03.SYNC.01 
*TO CLIP NAME:  30K4/02.SYNC.01 
*A6 VOL =  +6.7 DB  PAN L100 
*A6 VOL =  +7.0 DB  PAN L100 
*PATCH 19Y07M26:  FROM SOURCE 1 TO RECORD 6 
*PATCH 19Y07M26:  FROM SOURCE 1 TO RECORD 6 
*SOURCE FILE: 19Y07M26
005053  19Y07M26                         A7    C        20:50:01:12 20:50:01:12 01:22:49:09 01:22:49:09 
005053  19Y07M26                         A7    D    002 21:17:17:04 21:17:17:06 01:22:49:09 01:22:49:11 
*FROM CLIP NAME:  30K2/03.SYNC.01 
*TO CLIP NAME:  30K4/02.SYNC.01 
*A7 VOL =  +6.7 DB  PAN R100 
*A7 VOL =  +7.0 DB  PAN R100 
*SOURCE FILE: 19Y07M26
005054  19Y07M26                         A8    C        20:50:01:12 20:50:01:12 01:22:49:09 01:22:49:09 
005054  19Y07M26                         A8    D    002 21:17:17:04 21:17:17:06 01:22:49:09 01:22:49:11 
*FROM CLIP NAME:  30K2/03.SYNC.01 
*TO CLIP NAME:  30K4/02.SYNC.01 
*A8 VOL =  +6.7 DB  PAN L100 
*A8 VOL =  +7.0 DB  PAN L100 
*PATCH 19Y07M26:  FROM SOURCE 1 TO RECORD 8 
*PATCH 19Y07M26:  FROM SOURCE 1 TO RECORD 8 
*SOURCE FILE: 19Y07M26
005055  19Y07M26                         A9    C        20:50:01:12 20:50:01:12 01:22:49:09 01:22:49:09 
005055  19Y07M26                         A9    D    002 21:17:17:04 21:17:17:06 01:22:49:09 01:22:49:11 
*FROM CLIP NAME:  30K2/03.SYNC.01 
*TO CLIP NAME:  30K4/02.SYNC.01 
*A9 VOL =  +6.7 DB  PAN R100 
*A9 VOL =  +7.0 DB  PAN R100 
*SOURCE FILE: 19Y07M26
005056  19Y07M26                         A10   C        20:50:01:12 20:50:01:12 01:22:49:09 01:22:49:09 
005056  19Y07M26                         A10   D    002 21:17:17:04 21:17:17:06 01:22:49:09 01:22:49:11 
*FROM CLIP NAME:  30K2/03.SYNC.01 
*TO CLIP NAME:  30K4/02.SYNC.01 
*A10 VOL =  +6.7 DB  PAN L100 
*A10 VOL =  +7.0 DB  PAN L100 
*PATCH 19Y07M26:  FROM SOURCE 1 TO RECORD 10 
*PATCH 19Y07M26:  FROM SOURCE 1 TO RECORD 10 
*SOURCE FILE: 19Y07M26
005057  19Y07M26                         A11   C        20:50:01:12 20:50:01:12 01:22:49:09 01:22:49:09 
005057  19Y07M26                         A11   D    002 21:17:17:04 21:17:17:06 01:22:49:09 01:22:49:11 
*FROM CLIP NAME:  30K2/03.SYNC.01 
*TO CLIP NAME:  30K4/02.SYNC.01 
*A11 VOL =  +6.7 DB  PAN R100 
*A11 VOL =  +7.0 DB  PAN R100 
*PATCH 19Y07M26:  FROM SOURCE 1 TO RECORD 11 
*PATCH 19Y07M26:  FROM SOURCE 1 TO RECORD 11 
*SOURCE FILE: 19Y07M26
005058  A009C002_190726_R32C             V     C        21:17:17:05 21:17:21:22 01:22:49:10 01:22:54:02 
*FROM CLIP NAME:  A009C002_190726_R32C.NEW.01 
*SOURCE FILE: A009C002_190726_R32C
005059  19Y07M26                         A     C        21:17:17:06 21:17:21:22 01:22:49:11 01:22:54:02 
*FROM CLIP NAME:  30K4/02.SYNC.01 
*A1 VOL =  +7.0 DB  PAN R100 
*SOURCE FILE: 19Y07M26
005060  19Y07M26                         A2    C        21:17:17:06 21:17:21:22 01:22:49:11 01:22:54:02 
*FROM CLIP NAME:  30K4/02.SYNC.01 
*A2 VOL =  +7.0 DB  PAN L100 
*SOURCE FILE: 19Y07M26
005061  19Y07M26                         A3    C        21:17:17:06 21:17:21:22 01:22:49:11 01:22:54:02 
*FROM CLIP NAME:  30K4/02.SYNC.01 
*A3 VOL =  +7.0 DB  PAN R100 
*SOURCE FILE: 19Y07M26
005062  19Y07M26                         A4    C        21:17:17:06 21:17:21:22 01:22:49:11 01:22:54:02 
*FROM CLIP NAME:  30K4/02.SYNC.01 
*A4 VOL =  +7.0 DB  PAN L100 
*SOURCE FILE: 19Y07M26
005063  19Y07M26                         A5    C        21:17:17:06 21:17:21:22 01:22:49:11 01:22:54:02 
*FROM CLIP NAME:  30K4/02.SYNC.01 
*A5 VOL =  +7.0 DB  PAN R100 
*SOURCE FILE: 19Y07M26
005064  19Y07M26                         A6    C        21:17:17:06 21:17:21:22 01:22:49:11 01:22:54:02 
*FROM CLIP NAME:  30K4/02.SYNC.01 
*A6 VOL =  +7.0 DB  PAN L100 
*PATCH 19Y07M26:  FROM SOURCE 1 TO RECORD 6 
*SOURCE FILE: 19Y07M26
005065  19Y07M26                         A7    C        21:17:17:06 21:17:21:22 01:22:49:11 01:22:54:02 
*FROM CLIP NAME:  30K4/02.SYNC.01 
*A7 VOL =  +7.0 DB  PAN R100 
*SOURCE FILE: 19Y07M26
005066  19Y07M26                         A8    C        21:17:17:06 21:17:21:22 01:22:49:11 01:22:54:02 
*FROM CLIP NAME:  30K4/02.SYNC.01 
*A8 VOL =  +7.0 DB  PAN L100 
*PATCH 19Y07M26:  FROM SOURCE 1 TO RECORD 8 
*SOURCE FILE: 19Y07M26
005067  19Y07M26                         A9    C        21:17:17:06 21:17:21:22 01:22:49:11 01:22:54:02 
*FROM CLIP NAME:  30K4/02.SYNC.01 
*A9 VOL =  +7.0 DB  PAN R100 
*SOURCE FILE: 19Y07M26
005068  19Y07M26                         A10   C        21:17:17:06 21:17:21:22 01:22:49:11 01:22:54:02 
*FROM CLIP NAME:  30K4/02.SYNC.01 
*A10 VOL =  +7.0 DB  PAN L100 
*PATCH 19Y07M26:  FROM SOURCE 1 TO RECORD 10 
*SOURCE FILE: 19Y07M26
005069  19Y07M26                         A11   C        21:17:17:06 21:17:21:22 01:22:49:11 01:22:54:02 
*FROM CLIP NAME:  30K4/02.SYNC.01 
*A11 VOL =  +7.0 DB  PAN R100 
*PATCH 19Y07M26:  FROM SOURCE 1 TO RECORD 11 
*SOURCE FILE: 19Y07M26
005070  B007C003_190726_R4CP             V     C        21:26:47:17 21:26:49:21 01:22:54:02 01:22:56:06 
*FROM CLIP NAME:  B007C003_190726_R4CP.NEW.01 
*SOURCE FILE: B007C003_190726_R4CP
005071  19Y07M26                         A     C        21:26:47:17 21:26:49:21 01:22:54:02 01:22:56:06 
*FROM CLIP NAME:  30K5/01 
*SOURCE FILE: 19Y07M26
005072  19Y07M26                         A2    C        21:26:47:17 21:26:49:21 01:22:54:02 01:22:56:06 
*FROM CLIP NAME:  30K5/01 
*SOURCE FILE: 19Y07M26
005073  19Y07M26                         A14   C        21:26:47:17 21:26:49:21 01:22:54:02 01:22:56:06 
*FROM CLIP NAME:  30K5/01 
*PATCH 19Y07M26:  FROM SOURCE 4 TO RECORD 14 
*SOURCE FILE: 19Y07M26
005074  19Y07M26                         A15   C        21:26:47:17 21:26:49:21 01:22:54:02 01:22:56:06 
*FROM CLIP NAME:  30K5/01 
*PATCH 19Y07M26:  FROM SOURCE 3 TO RECORD 15 
*SOURCE FILE: 19Y07M26
005075  19Y07M26                         A16   C        21:26:47:17 21:26:49:21 01:22:54:02 01:22:56:06 
*FROM CLIP NAME:  30K5/01 
*PATCH 19Y07M26:  FROM SOURCE 9 TO RECORD 16 
*SOURCE FILE: 19Y07M26
005076  B007C002_190726_R4CP             V     C        21:17:21:13 21:17:23:09 01:22:56:06 01:22:58:02 
*FROM CLIP NAME:  B007C002_190726_R4CP.NEW.01 
*SOURCE FILE: B007C002_190726_R4CP
005077  19Y07M26                         A     C        21:17:21:13 21:17:23:09 01:22:56:06 01:22:58:02 
*FROM CLIP NAME:  30K4/02.SYNC.01 
*SOURCE FILE: 19Y07M26
005078  19Y07M26                         A2    C        21:17:21:13 21:17:23:09 01:22:56:06 01:22:58:02 
*FROM CLIP NAME:  30K4/02.SYNC.01 
*SOURCE FILE: 19Y07M26
005079  19Y07M26                         A3    C        21:17:21:13 21:17:23:09 01:22:56:06 01:22:58:02 
*FROM CLIP NAME:  30K4/02.SYNC.01 
*SOURCE FILE: 19Y07M26
005080  19Y07M26                         A4    C        21:17:21:13 21:17:23:09 01:22:56:06 01:22:58:02 
*FROM CLIP NAME:  30K4/02.SYNC.01 
*SOURCE FILE: 19Y07M26
005081  19Y07M26                         A5    C        21:17:21:13 21:17:23:09 01:22:56:06 01:22:58:02 
*FROM CLIP NAME:  30K4/02.SYNC.01 
*SOURCE FILE: 19Y07M26
005082  19Y07M26                         A6    C        21:17:21:13 21:17:23:09 01:22:56:06 01:22:58:02 
*FROM CLIP NAME:  30K4/02.SYNC.01 
*PATCH 19Y07M26:  FROM SOURCE 1 TO RECORD 6 
*SOURCE FILE: 19Y07M26
005083  19Y07M26                         A7    C        21:17:21:13 21:17:23:09 01:22:56:06 01:22:58:02 
*FROM CLIP NAME:  30K4/02.SYNC.01 
*SOURCE FILE: 19Y07M26
005084  19Y07M26                         A8    C        21:17:21:13 21:17:23:09 01:22:56:06 01:22:58:02 
*FROM CLIP NAME:  30K4/02.SYNC.01 
*PATCH 19Y07M26:  FROM SOURCE 1 TO RECORD 8 
*SOURCE FILE: 19Y07M26
005085  19Y07M26                         A9    C        21:17:21:13 21:17:23:09 01:22:56:06 01:22:58:02 
*FROM CLIP NAME:  30K4/02.SYNC.01 
*SOURCE FILE: 19Y07M26
005086  19Y07M26                         A10   C        21:17:21:13 21:17:23:09 01:22:56:06 01:22:58:02 
*FROM CLIP NAME:  30K4/02.SYNC.01 
*PATCH 19Y07M26:  FROM SOURCE 1 TO RECORD 10 
*SOURCE FILE: 19Y07M26
005087  19Y07M26                         A11   C        21:17:21:13 21:17:23:09 01:22:56:06 01:22:58:02 
*FROM CLIP NAME:  30K4/02.SYNC.01 
*PATCH 19Y07M26:  FROM SOURCE 1 TO RECORD 11 
*SOURCE FILE: 19Y07M26
005088  A008C003_190726_R32C             V     C        20:50:07:11 20:50:13:17 01:22:58:02 01:23:04:08 
*FROM CLIP NAME:  A008C003_190726_R32C.NEW.01 
*SOURCE FILE: A008C003_190726_R32C
005089  19Y07M26                         A     C        20:50:07:11 20:50:14:02 01:22:58:02 01:23:04:18 
*FROM CLIP NAME:  30K2/03.SYNC.01 
*A1 VOL =  +7.0 DB  PAN R100 
*SOURCE FILE: 19Y07M26
005090  19Y07M26                         A2    C        20:50:07:11 20:50:14:02 01:22:58:02 01:23:04:18 
*FROM CLIP NAME:  30K2/03.SYNC.01 
*A2 VOL =  +7.0 DB  PAN L100 
*SOURCE FILE: 19Y07M26
005091  19Y07M26                         A3    C        20:50:07:11 20:50:14:02 01:22:58:02 01:23:04:18 
*FROM CLIP NAME:  30K2/03.SYNC.01 
*A3 VOL =  +7.0 DB  PAN R100 
*SOURCE FILE: 19Y07M26
005092  19Y07M26                         A4    C        20:50:07:11 20:50:14:02 01:22:58:02 01:23:04:18 
*FROM CLIP NAME:  30K2/03.SYNC.01 
*A4 VOL =  +7.0 DB  PAN L100 
*SOURCE FILE: 19Y07M26
005093  19Y07M26                         A5    C        20:50:07:11 20:50:14:02 01:22:58:02 01:23:04:18 
*FROM CLIP NAME:  30K2/03.SYNC.01 
*A5 VOL =  +9.9 DB  PAN R100 
*SOURCE FILE: 19Y07M26
005094  19Y07M26                         A6    C        20:50:07:11 20:50:14:02 01:22:58:02 01:23:04:18 
*FROM CLIP NAME:  30K2/03.SYNC.01 
*A6 VOL =  +7.0 DB  PAN L100 
*PATCH 19Y07M26:  FROM SOURCE 1 TO RECORD 6 
*SOURCE FILE: 19Y07M26
005095  19Y07M26                         A7    C        20:50:07:11 20:50:14:02 01:22:58:02 01:23:04:18 
*FROM CLIP NAME:  30K2/03.SYNC.01 
*A7 VOL =  +7.0 DB  PAN R100 
*SOURCE FILE: 19Y07M26
005096  19Y07M26                         A8    C        20:50:07:11 20:50:14:02 01:22:58:02 01:23:04:18 
*FROM CLIP NAME:  30K2/03.SYNC.01 
*A8 VOL =  +7.0 DB  PAN L100 
*PATCH 19Y07M26:  FROM SOURCE 1 TO RECORD 8 
*SOURCE FILE: 19Y07M26
005097  19Y07M26                         A9    C        20:50:07:11 20:50:14:02 01:22:58:02 01:23:04:18 
*FROM CLIP NAME:  30K2/03.SYNC.01 
*A9 VOL =  +7.0 DB  PAN R100 
*SOURCE FILE: 19Y07M26
005098  19Y07M26                         A10   C        20:50:07:11 20:50:14:02 01:22:58:02 01:23:04:18 
*FROM CLIP NAME:  30K2/03.SYNC.01 
*A10 VOL =  +7.0 DB  PAN L100 
*PATCH 19Y07M26:  FROM SOURCE 1 TO RECORD 10 
*SOURCE FILE: 19Y07M26
005099  19Y07M26                         A11   C        20:50:07:11 20:50:14:02 01:22:58:02 01:23:04:18 
*FROM CLIP NAME:  30K2/03.SYNC.01 
*A11 VOL =  +7.0 DB  PAN R100 
*PATCH 19Y07M26:  FROM SOURCE 1 TO RECORD 11 
*SOURCE FILE: 19Y07M26
005100  19Y07M26                         A12   C        21:32:18:09 21:32:25:00 01:22:58:02 01:23:04:18 
*FROM CLIP NAME:  30ZK1/01.SUB.01 
*A12 VOL = -17.1 DB  PAN L100 
*PATCH 19Y07M26:  FROM SOURCE 9 TO RECORD 12 
*SOURCE FILE: 19Y07M26
005101  19Y07M26                         A13   C        21:32:18:09 21:32:25:00 01:22:58:02 01:23:04:18 
*FROM CLIP NAME:  30ZK1/01.SUB.01 
*A13 VOL = -17.1 DB  PAN R100 
*PATCH 19Y07M26:  FROM SOURCE 3 TO RECORD 13 
*SOURCE FILE: 19Y07M26
005102  19Y07M26                         A14   C        21:32:18:09 21:32:25:00 01:22:58:02 01:23:04:18 
*FROM CLIP NAME:  30ZK1/01.SUB.01 
*A14 VOL = -17.1 DB  PAN L100 
*PATCH 19Y07M26:  FROM SOURCE 4 TO RECORD 14 
*SOURCE FILE: 19Y07M26
005103  19Y07M26                         A15   C        21:32:18:09 21:32:25:00 01:22:58:02 01:23:04:18 
*FROM CLIP NAME:  30ZK1/01.SUB.01 
*A15 VOL = -17.1 DB  PAN R100 
*PATCH 19Y07M26:  FROM SOURCE 1 TO RECORD 15 
*SOURCE FILE: 19Y07M26
005104  19Y07M26                         A16   C        21:32:18:09 21:32:25:00 01:22:58:02 01:23:04:18 
*FROM CLIP NAME:  30ZK1/01.SUB.01 
*A16 VOL = -17.1 DB  PAN L100 
*PATCH 19Y07M26:  FROM SOURCE 2 TO RECORD 16 
*SOURCE FILE: 19Y07M26
005105  BL                               V     C        00:00:00:00 00:00:03:04 01:23:01:04 01:23:04:08 
*SOURCE FILE: (NULL)
005106  A008C007_190726_R32C             V     C        21:10:53:01 21:11:01:13 01:23:04:08 01:23:12:20 
*FROM CLIP NAME:  A008C007_190726_R32C.NEW.01 
*SOURCE FILE: A008C007_190726_R32C
005107  BL                               V     C        00:00:00:00 00:00:35:06 01:23:04:08 01:23:39:14 
*SOURCE FILE: (NULL)
005108  19Y07M26                         A     C        20:50:14:02 20:50:14:02 01:23:04:18 01:23:04:18 
005108  19Y07M26                         A     D    002 21:10:53:11 21:10:53:13 01:23:04:18 01:23:04:20 
*FROM CLIP NAME:  30K2/03.SYNC.01 
*TO CLIP NAME:  30K3/04.SYNC.01 
*A1 VOL =  +7.0 DB  PAN R100 
*A1 VOL =  +7.3 DB  PAN R100 
*SOURCE FILE: 19Y07M26
005109  19Y07M26                         A2    C        20:50:14:02 20:50:14:02 01:23:04:18 01:23:04:18 
005109  19Y07M26                         A2    D    002 21:10:53:11 21:10:53:13 01:23:04:18 01:23:04:20 
*FROM CLIP NAME:  30K2/03.SYNC.01 
*TO CLIP NAME:  30K3/04.SYNC.01 
*A2 VOL =  +7.0 DB  PAN L100 
*A2 VOL =  +7.3 DB  PAN L100 
*SOURCE FILE: 19Y07M26
005110  19Y07M26                         A3    C        20:50:14:02 20:50:14:02 01:23:04:18 01:23:04:18 
005110  19Y07M26                         A3    D    002 21:10:53:11 21:10:53:13 01:23:04:18 01:23:04:20 
*FROM CLIP NAME:  30K2/03.SYNC.01 
*TO CLIP NAME:  30K3/04.SYNC.01 
*A3 VOL =  +7.0 DB  PAN R100 
*A3 VOL =  +7.3 DB  PAN R100 
*SOURCE FILE: 19Y07M26
005111  19Y07M26                         A4    C        20:50:14:02 20:50:14:02 01:23:04:18 01:23:04:18 
005111  19Y07M26                         A4    D    002 21:10:53:11 21:10:53:13 01:23:04:18 01:23:04:20 
*FROM CLIP NAME:  30K2/03.SYNC.01 
*TO CLIP NAME:  30K3/04.SYNC.01 
*A4 VOL =  +7.0 DB  PAN L100 
*A4 VOL =  +7.3 DB  PAN L100 
*SOURCE FILE: 19Y07M26
005112  19Y07M26                         A5    C        20:50:14:02 20:50:14:02 01:23:04:18 01:23:04:18 
005112  19Y07M26                         A5    D    002 21:10:53:11 21:10:53:13 01:23:04:18 01:23:04:20 
*FROM CLIP NAME:  30K2/03.SYNC.01 
*TO CLIP NAME:  30K3/04.SYNC.01 
*A5 VOL =  +9.9 DB  PAN R100 
*A5 VOL =  +7.4 DB  PAN R100 
*SOURCE FILE: 19Y07M26
005113  19Y07M26                         A6    C        20:50:14:02 20:50:14:02 01:23:04:18 01:23:04:18 
005113  19Y07M26                         A6    D    002 21:10:53:11 21:10:53:13 01:23:04:18 01:23:04:20 
*FROM CLIP NAME:  30K2/03.SYNC.01 
*TO CLIP NAME:  30K3/04.SYNC.01 
*A6 VOL =  +7.0 DB  PAN L100 
*A6 VOL =  +7.3 DB  PAN L100 
*PATCH 19Y07M26:  FROM SOURCE 1 TO RECORD 6 
*PATCH 19Y07M26:  FROM SOURCE 1 TO RECORD 6 
*SOURCE FILE: 19Y07M26
005114  19Y07M26                         A7    C        20:50:14:02 20:50:14:02 01:23:04:18 01:23:04:18 
005114  19Y07M26                         A7    D    002 21:10:53:11 21:10:53:13 01:23:04:18 01:23:04:20 
*FROM CLIP NAME:  30K2/03.SYNC.01 
*TO CLIP NAME:  30K3/04.SYNC.01 
*A7 VOL =  +7.0 DB  PAN R100 
*A7 VOL =  +7.3 DB  PAN R100 
*SOURCE FILE: 19Y07M26
005115  19Y07M26                         A8    C        20:50:14:02 20:50:14:02 01:23:04:18 01:23:04:18 
005115  19Y07M26                         A8    D    002 21:10:53:11 21:10:53:13 01:23:04:18 01:23:04:20 
*FROM CLIP NAME:  30K2/03.SYNC.01 
*TO CLIP NAME:  30K3/04.SYNC.01 
*A8 VOL =  +7.0 DB  PAN L100 
*A8 VOL =  +7.3 DB  PAN L100 
*PATCH 19Y07M26:  FROM SOURCE 1 TO RECORD 8 
*PATCH 19Y07M26:  FROM SOURCE 1 TO RECORD 8 
*SOURCE FILE: 19Y07M26
005116  19Y07M26                         A9    C        20:50:14:02 20:50:14:02 01:23:04:18 01:23:04:18 
005116  19Y07M26                         A9    D    002 21:10:53:11 21:10:53:13 01:23:04:18 01:23:04:20 
*FROM CLIP NAME:  30K2/03.SYNC.01 
*TO CLIP NAME:  30K3/04.SYNC.01 
*A9 VOL =  +7.0 DB  PAN R100 
*A9 VOL =  +7.3 DB  PAN R100 
*SOURCE FILE: 19Y07M26
005117  19Y07M26                         A10   C        20:50:14:02 20:50:14:02 01:23:04:18 01:23:04:18 
005117  19Y07M26                         A10   D    002 21:10:53:11 21:10:53:13 01:23:04:18 01:23:04:20 
*FROM CLIP NAME:  30K2/03.SYNC.01 
*TO CLIP NAME:  30K3/04.SYNC.01 
*A10 VOL =  +7.0 DB  PAN L100 
*A10 VOL =  +7.3 DB  PAN L100 
*PATCH 19Y07M26:  FROM SOURCE 1 TO RECORD 10 
*PATCH 19Y07M26:  FROM SOURCE 1 TO RECORD 10 
*SOURCE FILE: 19Y07M26
005118  19Y07M26                         A11   C        20:50:14:02 20:50:14:02 01:23:04:18 01:23:04:18 
005118  19Y07M26                         A11   D    002 21:10:53:11 21:10:53:13 01:23:04:18 01:23:04:20 
*FROM CLIP NAME:  30K2/03.SYNC.01 
*TO CLIP NAME:  30K3/04.SYNC.01 
*A11 VOL =  +7.0 DB  PAN R100 
*A11 VOL =  +7.3 DB  PAN R100 
*PATCH 19Y07M26:  FROM SOURCE 1 TO RECORD 11 
*PATCH 19Y07M26:  FROM SOURCE 1 TO RECORD 11 
*SOURCE FILE: 19Y07M26
005119  19Y07M26                         A12   C        21:32:25:23 21:32:56:02 01:23:04:18 01:23:34:22 
*FROM CLIP NAME:  30ZK1/01.SUB.01 
*A12 VOL = -17.1 DB  PAN L100 
*PATCH 19Y07M26:  FROM SOURCE 9 TO RECORD 12 
*SOURCE FILE: 19Y07M26
005120  19Y07M26                         A13   C        21:32:25:23 21:32:56:02 01:23:04:18 01:23:34:22 
*FROM CLIP NAME:  30ZK1/01.SUB.01 
*A13 VOL = -17.1 DB  PAN R100 
*PATCH 19Y07M26:  FROM SOURCE 3 TO RECORD 13 
*SOURCE FILE: 19Y07M26
005121  19Y07M26                         A14   C        21:32:25:23 21:32:56:02 01:23:04:18 01:23:34:22 
*FROM CLIP NAME:  30ZK1/01.SUB.01 
*A14 VOL = -17.1 DB  PAN L100 
*PATCH 19Y07M26:  FROM SOURCE 4 TO RECORD 14 
*SOURCE FILE: 19Y07M26
005122  19Y07M26                         A15   C        21:32:25:23 21:32:56:02 01:23:04:18 01:23:34:22 
*FROM CLIP NAME:  30ZK1/01.SUB.01 
*A15 VOL = -17.1 DB  PAN R100 
*PATCH 19Y07M26:  FROM SOURCE 1 TO RECORD 15 
*SOURCE FILE: 19Y07M26
005123  19Y07M26                         A16   C        21:32:25:23 21:32:56:02 01:23:04:18 01:23:34:22 
*FROM CLIP NAME:  30ZK1/01.SUB.01 
*A16 VOL = -17.1 DB  PAN L100 
*PATCH 19Y07M26:  FROM SOURCE 2 TO RECORD 16 
*SOURCE FILE: 19Y07M26
005124  19Y07M26                         A     C        21:10:53:13 21:11:01:16 01:23:04:20 01:23:12:23 
*FROM CLIP NAME:  30K3/04.SYNC.01 
*A1 VOL =  +7.3 DB  PAN R100 
*SOURCE FILE: 19Y07M26
005125  19Y07M26                         A2    C        21:10:53:13 21:11:01:16 01:23:04:20 01:23:12:23 
*FROM CLIP NAME:  30K3/04.SYNC.01 
*A2 VOL =  +7.3 DB  PAN L100 
*SOURCE FILE: 19Y07M26
005126  19Y07M26                         A3    C        21:10:53:13 21:11:01:16 01:23:04:20 01:23:12:23 
*FROM CLIP NAME:  30K3/04.SYNC.01 
*A3 VOL =  +7.3 DB  PAN R100 
*SOURCE FILE: 19Y07M26
005127  19Y07M26                         A4    C        21:10:53:13 21:11:01:16 01:23:04:20 01:23:12:23 
*FROM CLIP NAME:  30K3/04.SYNC.01 
*A4 VOL =  +7.3 DB  PAN L100 
*SOURCE FILE: 19Y07M26
005128  19Y07M26                         A5    C        21:10:53:13 21:11:01:16 01:23:04:20 01:23:12:23 
*FROM CLIP NAME:  30K3/04.SYNC.01 
*A5 VOL =  +7.4 DB  PAN R100 
*SOURCE FILE: 19Y07M26
005129  19Y07M26                         A6    C        21:10:53:13 21:11:01:16 01:23:04:20 01:23:12:23 
*FROM CLIP NAME:  30K3/04.SYNC.01 
*A6 VOL =  +7.3 DB  PAN L100 
*PATCH 19Y07M26:  FROM SOURCE 1 TO RECORD 6 
*SOURCE FILE: 19Y07M26
005130  19Y07M26                         A7    C        21:10:53:13 21:11:01:16 01:23:04:20 01:23:12:23 
*FROM CLIP NAME:  30K3/04.SYNC.01 
*A7 VOL =  +7.3 DB  PAN R100 
*SOURCE FILE: 19Y07M26
005131  19Y07M26                         A8    C        21:10:53:13 21:11:01:16 01:23:04:20 01:23:12:23 
*FROM CLIP NAME:  30K3/04.SYNC.01 
*A8 VOL =  +7.3 DB  PAN L100 
*PATCH 19Y07M26:  FROM SOURCE 1 TO RECORD 8 
*SOURCE FILE: 19Y07M26
005132  19Y07M26                         A9    C        21:10:53:13 21:11:01:16 01:23:04:20 01:23:12:23 
*FROM CLIP NAME:  30K3/04.SYNC.01 
*A9 VOL =  +7.3 DB  PAN R100 
*SOURCE FILE: 19Y07M26
005133  19Y07M26                         A10   C        21:10:53:13 21:11:01:16 01:23:04:20 01:23:12:23 
*FROM CLIP NAME:  30K3/04.SYNC.01 
*A10 VOL =  +7.3 DB  PAN L100 
*PATCH 19Y07M26:  FROM SOURCE 1 TO RECORD 10 
*SOURCE FILE: 19Y07M26
005134  19Y07M26                         A11   C        21:10:53:13 21:11:01:16 01:23:04:20 01:23:12:23 
*FROM CLIP NAME:  30K3/04.SYNC.01 
*A11 VOL =  +7.3 DB  PAN R100 
*PATCH 19Y07M26:  FROM SOURCE 1 TO RECORD 11 
*SOURCE FILE: 19Y07M26
005135  A008C003_190726_R32C             V     C        20:50:23:18 20:50:28:22 01:23:12:20 01:23:17:24 
*FROM CLIP NAME:  A008C003_190726_R32C.NEW.01 
*SOURCE FILE: A008C003_190726_R32C
005136  19Y07M26                         A     C        21:11:01:16 21:11:01:16 01:23:12:23 01:23:12:23 
005136  19Y07M26                         A     D    002 20:50:23:21 20:50:23:23 01:23:12:23 01:23:13:00 
*FROM CLIP NAME:  30K3/04.SYNC.01 
*TO CLIP NAME:  30K2/03.SYNC.01 
*A1 VOL =  +7.3 DB  PAN R100 
*A1 VOL =  +7.0 DB  PAN R100 
*SOURCE FILE: 19Y07M26
005137  19Y07M26                         A2    C        21:11:01:16 21:11:01:16 01:23:12:23 01:23:12:23 
005137  19Y07M26                         A2    D    002 20:50:23:21 20:50:23:23 01:23:12:23 01:23:13:00 
*FROM CLIP NAME:  30K3/04.SYNC.01 
*TO CLIP NAME:  30K2/03.SYNC.01 
*A2 VOL =  +7.3 DB  PAN L100 
*A2 VOL =  +7.0 DB  PAN L100 
*SOURCE FILE: 19Y07M26
005138  19Y07M26                         A3    C        21:11:01:16 21:11:01:16 01:23:12:23 01:23:12:23 
005138  19Y07M26                         A3    D    002 20:50:23:21 20:50:23:23 01:23:12:23 01:23:13:00 
*FROM CLIP NAME:  30K3/04.SYNC.01 
*TO CLIP NAME:  30K2/03.SYNC.01 
*A3 VOL =  +7.3 DB  PAN R100 
*A3 VOL =  +7.0 DB  PAN R100 
*SOURCE FILE: 19Y07M26
005139  19Y07M26                         A4    C        21:11:01:16 21:11:01:16 01:23:12:23 01:23:12:23 
005139  19Y07M26                         A4    D    002 20:50:23:21 20:50:23:23 01:23:12:23 01:23:13:00 
*FROM CLIP NAME:  30K3/04.SYNC.01 
*TO CLIP NAME:  30K2/03.SYNC.01 
*A4 VOL =  +7.3 DB  PAN L100 
*A4 VOL =  +7.0 DB  PAN L100 
*SOURCE FILE: 19Y07M26
005140  19Y07M26                         A5    C        21:11:01:16 21:11:01:16 01:23:12:23 01:23:12:23 
005140  19Y07M26                         A5    D    002 20:50:23:21 20:50:23:23 01:23:12:23 01:23:13:00 
*FROM CLIP NAME:  30K3/04.SYNC.01 
*TO CLIP NAME:  30K2/03.SYNC.01 
*A5 VOL =  +7.4 DB  PAN R100 
*A5 VOL =  +7.0 DB  PAN R100 
*SOURCE FILE: 19Y07M26
005141  19Y07M26                         A6    C        21:11:01:16 21:11:01:16 01:23:12:23 01:23:12:23 
005141  19Y07M26                         A6    D    002 20:50:23:21 20:50:23:23 01:23:12:23 01:23:13:00 
*FROM CLIP NAME:  30K3/04.SYNC.01 
*TO CLIP NAME:  30K2/03.SYNC.01 
*A6 VOL =  +7.3 DB  PAN L100 
*A6 VOL =  +7.0 DB  PAN L100 
*PATCH 19Y07M26:  FROM SOURCE 1 TO RECORD 6 
*PATCH 19Y07M26:  FROM SOURCE 1 TO RECORD 6 
*SOURCE FILE: 19Y07M26
005142  19Y07M26                         A7    C        21:11:01:16 21:11:01:16 01:23:12:23 01:23:12:23 
005142  19Y07M26                         A7    D    002 20:50:23:21 20:50:23:23 01:23:12:23 01:23:13:00 
*FROM CLIP NAME:  30K3/04.SYNC.01 
*TO CLIP NAME:  30K2/03.SYNC.01 
*A7 VOL =  +7.3 DB  PAN R100 
*A7 VOL =  +7.0 DB  PAN R100 
*SOURCE FILE: 19Y07M26
005143  19Y07M26                         A8    C        21:11:01:16 21:11:01:16 01:23:12:23 01:23:12:23 
005143  19Y07M26                         A8    D    002 20:50:23:21 20:50:23:23 01:23:12:23 01:23:13:00 
*FROM CLIP NAME:  30K3/04.SYNC.01 
*TO CLIP NAME:  30K2/03.SYNC.01 
*A8 VOL =  +7.3 DB  PAN L100 
*A8 VOL =  +7.0 DB  PAN L100 
*PATCH 19Y07M26:  FROM SOURCE 1 TO RECORD 8 
*PATCH 19Y07M26:  FROM SOURCE 1 TO RECORD 8 
*SOURCE FILE: 19Y07M26
005144  19Y07M26                         A9    C        21:11:01:16 21:11:01:16 01:23:12:23 01:23:12:23 
005144  19Y07M26                         A9    D    002 20:50:23:21 20:50:23:23 01:23:12:23 01:23:13:00 
*FROM CLIP NAME:  30K3/04.SYNC.01 
*TO CLIP NAME:  30K2/03.SYNC.01 
*A9 VOL =  +7.3 DB  PAN R100 
*A9 VOL =  +7.0 DB  PAN R100 
*SOURCE FILE: 19Y07M26
005145  19Y07M26                         A10   C        21:11:01:16 21:11:01:16 01:23:12:23 01:23:12:23 
005145  19Y07M26                         A10   D    002 20:50:23:21 20:50:23:23 01:23:12:23 01:23:13:00 
*FROM CLIP NAME:  30K3/04.SYNC.01 
*TO CLIP NAME:  30K2/03.SYNC.01 
*A10 VOL =  +7.3 DB  PAN L100 
*A10 VOL =  +7.0 DB  PAN L100 
*PATCH 19Y07M26:  FROM SOURCE 1 TO RECORD 10 
*PATCH 19Y07M26:  FROM SOURCE 1 TO RECORD 10 
*SOURCE FILE: 19Y07M26
005146  19Y07M26                         A11   C        21:11:01:16 21:11:01:16 01:23:12:23 01:23:12:23 
005146  19Y07M26                         A11   D    002 20:50:23:21 20:50:23:23 01:23:12:23 01:23:13:00 
*FROM CLIP NAME:  30K3/04.SYNC.01 
*TO CLIP NAME:  30K2/03.SYNC.01 
*A11 VOL =  +7.3 DB  PAN R100 
*A11 VOL =  +7.0 DB  PAN R100 
*PATCH 19Y07M26:  FROM SOURCE 1 TO RECORD 11 
*PATCH 19Y07M26:  FROM SOURCE 1 TO RECORD 11 
*SOURCE FILE: 19Y07M26
005147  19Y07M26                         A     C        20:50:23:23 20:50:28:21 01:23:13:00 01:23:17:23 
*FROM CLIP NAME:  30K2/03.SYNC.01 
*A1 VOL =  +7.0 DB  PAN R100 
*SOURCE FILE: 19Y07M26
005148  19Y07M26                         A2    C        20:50:23:23 20:50:28:21 01:23:13:00 01:23:17:23 
*FROM CLIP NAME:  30K2/03.SYNC.01 
*A2 VOL =  +7.0 DB  PAN L100 
*SOURCE FILE: 19Y07M26
005149  19Y07M26                         A3    C        20:50:23:23 20:50:28:21 01:23:13:00 01:23:17:23 
*FROM CLIP NAME:  30K2/03.SYNC.01 
*A3 VOL =  +7.0 DB  PAN R100 
*SOURCE FILE: 19Y07M26
005150  19Y07M26                         A4    C        20:50:23:23 20:50:28:21 01:23:13:00 01:23:17:23 
*FROM CLIP NAME:  30K2/03.SYNC.01 
*A4 VOL =  +7.0 DB  PAN L100 
*SOURCE FILE: 19Y07M26
005151  19Y07M26                         A5    C        20:50:23:23 20:50:28:21 01:23:13:00 01:23:17:23 
*FROM CLIP NAME:  30K2/03.SYNC.01 
*A5 VOL =  +7.0 DB  PAN R100 
*SOURCE FILE: 19Y07M26
005152  19Y07M26                         A6    C        20:50:23:23 20:50:28:21 01:23:13:00 01:23:17:23 
*FROM CLIP NAME:  30K2/03.SYNC.01 
*A6 VOL =  +7.0 DB  PAN L100 
*PATCH 19Y07M26:  FROM SOURCE 1 TO RECORD 6 
*SOURCE FILE: 19Y07M26
005153  19Y07M26                         A7    C        20:50:23:23 20:50:28:21 01:23:13:00 01:23:17:23 
*FROM CLIP NAME:  30K2/03.SYNC.01 
*A7 VOL =  +7.0 DB  PAN R100 
*SOURCE FILE: 19Y07M26
005154  19Y07M26                         A8    C        20:50:23:23 20:50:28:21 01:23:13:00 01:23:17:23 
*FROM CLIP NAME:  30K2/03.SYNC.01 
*A8 VOL =  +7.0 DB  PAN L100 
*PATCH 19Y07M26:  FROM SOURCE 1 TO RECORD 8 
*SOURCE FILE: 19Y07M26
005155  19Y07M26                         A9    C        20:50:23:23 20:50:28:21 01:23:13:00 01:23:17:23 
*FROM CLIP NAME:  30K2/03.SYNC.01 
*A9 VOL =  +7.0 DB  PAN R100 
*SOURCE FILE: 19Y07M26
005156  19Y07M26                         A10   C        20:50:23:23 20:50:28:21 01:23:13:00 01:23:17:23 
*FROM CLIP NAME:  30K2/03.SYNC.01 
*A10 VOL =  +7.0 DB  PAN L100 
*PATCH 19Y07M26:  FROM SOURCE 1 TO RECORD 10 
*SOURCE FILE: 19Y07M26
005157  19Y07M26                         A11   C        20:50:23:23 20:50:28:21 01:23:13:00 01:23:17:23 
*FROM CLIP NAME:  30K2/03.SYNC.01 
*A11 VOL =  +7.0 DB  PAN R100 
*PATCH 19Y07M26:  FROM SOURCE 1 TO RECORD 11 
*SOURCE FILE: 19Y07M26
005158  19Y07M26                         A     C        20:50:28:21 20:50:28:21 01:23:17:23 01:23:17:23 
005158  19Y07M26                         A     D    002 21:11:05:24 21:11:06:01 01:23:17:23 01:23:18:00 
*FROM CLIP NAME:  30K2/03.SYNC.01 
*TO CLIP NAME:  30K3/04.SYNC.01 
*A1 VOL =  +7.0 DB  PAN R100 
*A1 VOL =  +7.0 DB  PAN R100 
*SOURCE FILE: 19Y07M26
005159  19Y07M26                         A2    C        20:50:28:21 20:50:28:21 01:23:17:23 01:23:17:23 
005159  19Y07M26                         A2    D    002 21:11:05:24 21:11:06:01 01:23:17:23 01:23:18:00 
*FROM CLIP NAME:  30K2/03.SYNC.01 
*TO CLIP NAME:  30K3/04.SYNC.01 
*A2 VOL =  +7.0 DB  PAN L100 
*A2 VOL = +10.0 DB  PAN L100 
*SOURCE FILE: 19Y07M26
005160  19Y07M26                         A3    C        20:50:28:21 20:50:28:21 01:23:17:23 01:23:17:23 
005160  19Y07M26                         A3    D    002 21:11:05:24 21:11:06:01 01:23:17:23 01:23:18:00 
*FROM CLIP NAME:  30K2/03.SYNC.01 
*TO CLIP NAME:  30K3/04.SYNC.01 
*A3 VOL =  +7.0 DB  PAN R100 
*A3 VOL =  +7.0 DB  PAN R100 
*SOURCE FILE: 19Y07M26
005161  19Y07M26                         A4    C        20:50:28:21 20:50:28:21 01:23:17:23 01:23:17:23 
005161  19Y07M26                         A4    D    002 21:11:05:24 21:11:06:01 01:23:17:23 01:23:18:00 
*FROM CLIP NAME:  30K2/03.SYNC.01 
*TO CLIP NAME:  30K3/04.SYNC.01 
*A4 VOL =  +7.0 DB  PAN L100 
*A4 VOL =  +7.0 DB  PAN L100 
*SOURCE FILE: 19Y07M26
005162  19Y07M26                         A5    C        20:50:28:21 20:50:28:21 01:23:17:23 01:23:17:23 
005162  19Y07M26                         A5    D    002 21:11:05:24 21:11:06:01 01:23:17:23 01:23:18:00 
*FROM CLIP NAME:  30K2/03.SYNC.01 
*TO CLIP NAME:  30K3/04.SYNC.01 
*A5 VOL =  +7.0 DB  PAN R100 
*A5 VOL =  +7.0 DB  PAN R100 
*SOURCE FILE: 19Y07M26
005163  19Y07M26                         A6    C        20:50:28:21 20:50:28:21 01:23:17:23 01:23:17:23 
005163  19Y07M26                         A6    D    002 21:11:05:24 21:11:06:01 01:23:17:23 01:23:18:00 
*FROM CLIP NAME:  30K2/03.SYNC.01 
*TO CLIP NAME:  30K3/04.SYNC.01 
*A6 VOL =  +7.0 DB  PAN L100 
*A6 VOL =  +7.0 DB  PAN L100 
*PATCH 19Y07M26:  FROM SOURCE 1 TO RECORD 6 
*PATCH 19Y07M26:  FROM SOURCE 1 TO RECORD 6 
*SOURCE FILE: 19Y07M26
005164  19Y07M26                         A7    C        20:50:28:21 20:50:28:21 01:23:17:23 01:23:17:23 
005164  19Y07M26                         A7    D    002 21:11:05:24 21:11:06:01 01:23:17:23 01:23:18:00 
*FROM CLIP NAME:  30K2/03.SYNC.01 
*TO CLIP NAME:  30K3/04.SYNC.01 
*A7 VOL =  +7.0 DB  PAN R100 
*A7 VOL =  +7.0 DB  PAN R100 
*SOURCE FILE: 19Y07M26
005165  19Y07M26                         A8    C        20:50:28:21 20:50:28:21 01:23:17:23 01:23:17:23 
005165  19Y07M26                         A8    D    002 21:11:05:24 21:11:06:01 01:23:17:23 01:23:18:00 
*FROM CLIP NAME:  30K2/03.SYNC.01 
*TO CLIP NAME:  30K3/04.SYNC.01 
*A8 VOL =  +7.0 DB  PAN L100 
*A8 VOL =  +7.0 DB  PAN L100 
*PATCH 19Y07M26:  FROM SOURCE 1 TO RECORD 8 
*PATCH 19Y07M26:  FROM SOURCE 1 TO RECORD 8 
*SOURCE FILE: 19Y07M26
005166  19Y07M26                         A9    C        20:50:28:21 20:50:28:21 01:23:17:23 01:23:17:23 
005166  19Y07M26                         A9    D    002 21:11:05:24 21:11:06:01 01:23:17:23 01:23:18:00 
*FROM CLIP NAME:  30K2/03.SYNC.01 
*TO CLIP NAME:  30K3/04.SYNC.01 
*A9 VOL =  +7.0 DB  PAN R100 
*A9 VOL =  +7.0 DB  PAN R100 
*SOURCE FILE: 19Y07M26
005167  19Y07M26                         A10   C        20:50:28:21 20:50:28:21 01:23:17:23 01:23:17:23 
005167  19Y07M26                         A10   D    002 21:11:05:24 21:11:06:01 01:23:17:23 01:23:18:00 
*FROM CLIP NAME:  30K2/03.SYNC.01 
*TO CLIP NAME:  30K3/04.SYNC.01 
*A10 VOL =  +7.0 DB  PAN L100 
*A10 VOL =  +7.0 DB  PAN L100 
*PATCH 19Y07M26:  FROM SOURCE 1 TO RECORD 10 
*PATCH 19Y07M26:  FROM SOURCE 1 TO RECORD 10 
*SOURCE FILE: 19Y07M26
005168  19Y07M26                         A11   C        20:50:28:21 20:50:28:21 01:23:17:23 01:23:17:23 
005168  19Y07M26                         A11   D    002 21:11:05:24 21:11:06:01 01:23:17:23 01:23:18:00 
*FROM CLIP NAME:  30K2/03.SYNC.01 
*TO CLIP NAME:  30K3/04.SYNC.01 
*A11 VOL =  +7.0 DB  PAN R100 
*A11 VOL =  +7.0 DB  PAN R100 
*PATCH 19Y07M26:  FROM SOURCE 1 TO RECORD 11 
*PATCH 19Y07M26:  FROM SOURCE 1 TO RECORD 11 
*SOURCE FILE: 19Y07M26
005169  A008C007_190726_R32C             V     C        21:11:06:00 21:11:08:09 01:23:17:24 01:23:20:08 
*FROM CLIP NAME:  A008C007_190726_R32C.NEW.01 
*SOURCE FILE: A008C007_190726_R32C
005170  19Y07M26                         A     C        21:11:06:01 21:11:08:08 01:23:18:00 01:23:20:07 
*FROM CLIP NAME:  30K3/04.SYNC.01 
*A1 VOL =  +7.0 DB  PAN R100 
*SOURCE FILE: 19Y07M26
005171  19Y07M26                         A2    C        21:11:06:01 21:11:08:08 01:23:18:00 01:23:20:07 
*FROM CLIP NAME:  30K3/04.SYNC.01 
*A2 VOL = +10.0 DB  PAN L100 
*SOURCE FILE: 19Y07M26
005172  19Y07M26                         A3    C        21:11:06:01 21:11:08:08 01:23:18:00 01:23:20:07 
*FROM CLIP NAME:  30K3/04.SYNC.01 
*A3 VOL =  +7.0 DB  PAN R100 
*SOURCE FILE: 19Y07M26
005173  19Y07M26                         A4    C        21:11:06:01 21:11:08:08 01:23:18:00 01:23:20:07 
*FROM CLIP NAME:  30K3/04.SYNC.01 
*A4 VOL =  +7.0 DB  PAN L100 
*SOURCE FILE: 19Y07M26
005174  19Y07M26                         A5    C        21:11:06:01 21:11:08:08 01:23:18:00 01:23:20:07 
*FROM CLIP NAME:  30K3/04.SYNC.01 
*A5 VOL =  +7.0 DB  PAN R100 
*SOURCE FILE: 19Y07M26
005175  19Y07M26                         A6    C        21:11:06:01 21:11:08:08 01:23:18:00 01:23:20:07 
*FROM CLIP NAME:  30K3/04.SYNC.01 
*A6 VOL =  +7.0 DB  PAN L100 
*PATCH 19Y07M26:  FROM SOURCE 1 TO RECORD 6 
*SOURCE FILE: 19Y07M26
005176  19Y07M26                         A7    C        21:11:06:01 21:11:08:08 01:23:18:00 01:23:20:07 
*FROM CLIP NAME:  30K3/04.SYNC.01 
*A7 VOL =  +7.0 DB  PAN R100 
*SOURCE FILE: 19Y07M26
005177  19Y07M26                         A8    C        21:11:06:01 21:11:08:08 01:23:18:00 01:23:20:07 
*FROM CLIP NAME:  30K3/04.SYNC.01 
*A8 VOL =  +7.0 DB  PAN L100 
*PATCH 19Y07M26:  FROM SOURCE 1 TO RECORD 8 
*SOURCE FILE: 19Y07M26
005178  19Y07M26                         A9    C        21:11:06:01 21:11:08:08 01:23:18:00 01:23:20:07 
*FROM CLIP NAME:  30K3/04.SYNC.01 
*A9 VOL =  +7.0 DB  PAN R100 
*SOURCE FILE: 19Y07M26
005179  19Y07M26                         A10   C        21:11:06:01 21:11:08:08 01:23:18:00 01:23:20:07 
*FROM CLIP NAME:  30K3/04.SYNC.01 
*A10 VOL =  +7.0 DB  PAN L100 
*PATCH 19Y07M26:  FROM SOURCE 1 TO RECORD 10 
*SOURCE FILE: 19Y07M26
005180  19Y07M26                         A11   C        21:11:06:01 21:11:08:08 01:23:18:00 01:23:20:07 
*FROM CLIP NAME:  30K3/04.SYNC.01 
*A11 VOL =  +7.0 DB  PAN R100 
*PATCH 19Y07M26:  FROM SOURCE 1 TO RECORD 11 
*SOURCE FILE: 19Y07M26
005181  19Y07M26                         A     C        21:11:08:08 21:11:08:08 01:23:20:07 01:23:20:07 
005181  19Y07M26                         A     D    002 20:50:31:14 20:50:31:16 01:23:20:07 01:23:20:09 
*FROM CLIP NAME:  30K3/04.SYNC.01 
*TO CLIP NAME:  30K2/03.SYNC.01 
*A1 VOL =  +7.0 DB  PAN R100 
*A1 VOL =  +6.7 DB  PAN R100 
*SOURCE FILE: 19Y07M26
005182  19Y07M26                         A2    C        21:11:08:08 21:11:08:08 01:23:20:07 01:23:20:07 
005182  19Y07M26                         A2    D    002 20:50:31:14 20:50:31:16 01:23:20:07 01:23:20:09 
*FROM CLIP NAME:  30K3/04.SYNC.01 
*TO CLIP NAME:  30K2/03.SYNC.01 
*A2 VOL = +10.0 DB  PAN L100 
*A2 VOL =  +6.7 DB  PAN L100 
*SOURCE FILE: 19Y07M26
005183  19Y07M26                         A3    C        21:11:08:08 21:11:08:08 01:23:20:07 01:23:20:07 
005183  19Y07M26                         A3    D    002 20:50:31:14 20:50:31:16 01:23:20:07 01:23:20:09 
*FROM CLIP NAME:  30K3/04.SYNC.01 
*TO CLIP NAME:  30K2/03.SYNC.01 
*A3 VOL =  +7.0 DB  PAN R100 
*A3 VOL =  +6.7 DB  PAN R100 
*SOURCE FILE: 19Y07M26
005184  19Y07M26                         A4    C        21:11:08:08 21:11:08:08 01:23:20:07 01:23:20:07 
005184  19Y07M26                         A4    D    002 20:50:31:14 20:50:31:16 01:23:20:07 01:23:20:09 
*FROM CLIP NAME:  30K3/04.SYNC.01 
*TO CLIP NAME:  30K2/03.SYNC.01 
*A4 VOL =  +7.0 DB  PAN L100 
*A4 VOL =  +6.7 DB  PAN L100 
*SOURCE FILE: 19Y07M26
005185  19Y07M26                         A5    C        21:11:08:08 21:11:08:08 01:23:20:07 01:23:20:07 
005185  19Y07M26                         A5    D    002 20:50:31:14 20:50:31:16 01:23:20:07 01:23:20:09 
*FROM CLIP NAME:  30K3/04.SYNC.01 
*TO CLIP NAME:  30K2/03.SYNC.01 
*A5 VOL =  +7.0 DB  PAN R100 
*A5 VOL =  +9.5 DB  PAN R100 
*SOURCE FILE: 19Y07M26
005186  19Y07M26                         A6    C        21:11:08:08 21:11:08:08 01:23:20:07 01:23:20:07 
005186  19Y07M26                         A6    D    002 20:50:31:14 20:50:31:16 01:23:20:07 01:23:20:09 
*FROM CLIP NAME:  30K3/04.SYNC.01 
*TO CLIP NAME:  30K2/03.SYNC.01 
*A6 VOL =  +7.0 DB  PAN L100 
*A6 VOL =  +6.7 DB  PAN L100 
*PATCH 19Y07M26:  FROM SOURCE 1 TO RECORD 6 
*PATCH 19Y07M26:  FROM SOURCE 1 TO RECORD 6 
*SOURCE FILE: 19Y07M26
005187  19Y07M26                         A7    C        21:11:08:08 21:11:08:08 01:23:20:07 01:23:20:07 
005187  19Y07M26                         A7    D    002 20:50:31:14 20:50:31:16 01:23:20:07 01:23:20:09 
*FROM CLIP NAME:  30K3/04.SYNC.01 
*TO CLIP NAME:  30K2/03.SYNC.01 
*A7 VOL =  +7.0 DB  PAN R100 
*A7 VOL =  +6.7 DB  PAN R100 
*SOURCE FILE: 19Y07M26
005188  19Y07M26                         A8    C        21:11:08:08 21:11:08:08 01:23:20:07 01:23:20:07 
005188  19Y07M26                         A8    D    002 20:50:31:14 20:50:31:16 01:23:20:07 01:23:20:09 
*FROM CLIP NAME:  30K3/04.SYNC.01 
*TO CLIP NAME:  30K2/03.SYNC.01 
*A8 VOL =  +7.0 DB  PAN L100 
*A8 VOL =  +6.7 DB  PAN L100 
*PATCH 19Y07M26:  FROM SOURCE 1 TO RECORD 8 
*PATCH 19Y07M26:  FROM SOURCE 1 TO RECORD 8 
*SOURCE FILE: 19Y07M26
005189  19Y07M26                         A9    C        21:11:08:08 21:11:08:08 01:23:20:07 01:23:20:07 
005189  19Y07M26                         A9    D    002 20:50:31:14 20:50:31:16 01:23:20:07 01:23:20:09 
*FROM CLIP NAME:  30K3/04.SYNC.01 
*TO CLIP NAME:  30K2/03.SYNC.01 
*A9 VOL =  +7.0 DB  PAN R100 
*A9 VOL =  +6.7 DB  PAN R100 
*SOURCE FILE: 19Y07M26
005190  19Y07M26                         A10   C        21:11:08:08 21:11:08:08 01:23:20:07 01:23:20:07 
005190  19Y07M26                         A10   D    002 20:50:31:14 20:50:31:16 01:23:20:07 01:23:20:09 
*FROM CLIP NAME:  30K3/04.SYNC.01 
*TO CLIP NAME:  30K2/03.SYNC.01 
*A10 VOL =  +7.0 DB  PAN L100 
*A10 VOL =  +6.7 DB  PAN L100 
*PATCH 19Y07M26:  FROM SOURCE 1 TO RECORD 10 
*PATCH 19Y07M26:  FROM SOURCE 1 TO RECORD 10 
*SOURCE FILE: 19Y07M26
005191  19Y07M26                         A11   C        21:11:08:08 21:11:08:08 01:23:20:07 01:23:20:07 
005191  19Y07M26                         A11   D    002 20:50:31:14 20:50:31:16 01:23:20:07 01:23:20:09 
*FROM CLIP NAME:  30K3/04.SYNC.01 
*TO CLIP NAME:  30K2/03.SYNC.01 
*A11 VOL =  +7.0 DB  PAN R100 
*A11 VOL =  +6.7 DB  PAN R100 
*PATCH 19Y07M26:  FROM SOURCE 1 TO RECORD 11 
*PATCH 19Y07M26:  FROM SOURCE 1 TO RECORD 11 
*SOURCE FILE: 19Y07M26
005192  A008C003_190726_R32C             V     C        20:50:31:15 20:50:35:24 01:23:20:08 01:23:24:17 
*FROM CLIP NAME:  A008C003_190726_R32C.NEW.01 
*SOURCE FILE: A008C003_190726_R32C
005193  19Y07M26                         A     C        20:50:31:16 20:50:35:24 01:23:20:09 01:23:24:17 
*FROM CLIP NAME:  30K2/03.SYNC.01 
*A1 VOL =  +6.7 DB  PAN R100 
*SOURCE FILE: 19Y07M26
005194  19Y07M26                         A2    C        20:50:31:16 20:50:35:24 01:23:20:09 01:23:24:17 
*FROM CLIP NAME:  30K2/03.SYNC.01 
*A2 VOL =  +6.7 DB  PAN L100 
*SOURCE FILE: 19Y07M26
005195  19Y07M26                         A3    C        20:50:31:16 20:50:35:24 01:23:20:09 01:23:24:17 
*FROM CLIP NAME:  30K2/03.SYNC.01 
*A3 VOL =  +6.7 DB  PAN R100 
*SOURCE FILE: 19Y07M26
005196  19Y07M26                         A4    C        20:50:31:16 20:50:35:24 01:23:20:09 01:23:24:17 
*FROM CLIP NAME:  30K2/03.SYNC.01 
*A4 VOL =  +6.7 DB  PAN L100 
*SOURCE FILE: 19Y07M26
005197  19Y07M26                         A5    C        20:50:31:16 20:50:35:24 01:23:20:09 01:23:24:17 
*FROM CLIP NAME:  30K2/03.SYNC.01 
*A5 VOL =  +9.5 DB  PAN R100 
*SOURCE FILE: 19Y07M26
005198  19Y07M26                         A6    C        20:50:31:16 20:50:35:24 01:23:20:09 01:23:24:17 
*FROM CLIP NAME:  30K2/03.SYNC.01 
*A6 VOL =  +6.7 DB  PAN L100 
*PATCH 19Y07M26:  FROM SOURCE 1 TO RECORD 6 
*SOURCE FILE: 19Y07M26
005199  19Y07M26                         A7    C        20:50:31:16 20:50:35:24 01:23:20:09 01:23:24:17 
*FROM CLIP NAME:  30K2/03.SYNC.01 
*A7 VOL =  +6.7 DB  PAN R100 
*SOURCE FILE: 19Y07M26
005200  19Y07M26                         A8    C        20:50:31:16 20:50:35:24 01:23:20:09 01:23:24:17 
*FROM CLIP NAME:  30K2/03.SYNC.01 
*A8 VOL =  +6.7 DB  PAN L100 
*PATCH 19Y07M26:  FROM SOURCE 1 TO RECORD 8 
*SOURCE FILE: 19Y07M26
005201  19Y07M26                         A9    C        20:50:31:16 20:50:35:24 01:23:20:09 01:23:24:17 
*FROM CLIP NAME:  30K2/03.SYNC.01 
*A9 VOL =  +6.7 DB  PAN R100 
*SOURCE FILE: 19Y07M26
005202  19Y07M26                         A10   C        20:50:31:16 20:50:35:24 01:23:20:09 01:23:24:17 
*FROM CLIP NAME:  30K2/03.SYNC.01 
*A10 VOL =  +6.7 DB  PAN L100 
*PATCH 19Y07M26:  FROM SOURCE 1 TO RECORD 10 
*SOURCE FILE: 19Y07M26
005203  19Y07M26                         A11   C        20:50:31:16 20:50:35:24 01:23:20:09 01:23:24:17 
*FROM CLIP NAME:  30K2/03.SYNC.01 
*A11 VOL =  +6.7 DB  PAN R100 
*PATCH 19Y07M26:  FROM SOURCE 1 TO RECORD 11 
*SOURCE FILE: 19Y07M26
005204  19Y07M26                         A     C        20:50:35:24 20:50:35:24 01:23:24:17 01:23:24:17 
005204  19Y07M26                         A     D    002 21:11:13:20 21:11:13:22 01:23:24:17 01:23:24:19 
*FROM CLIP NAME:  30K2/03.SYNC.01 
*TO CLIP NAME:  30K3/04.SYNC.01 
*A1 VOL =  +6.7 DB  PAN R100 
*A1 VOL =  +7.0 DB  PAN R100 
*SOURCE FILE: 19Y07M26
005205  19Y07M26                         A2    C        20:50:35:24 20:50:35:24 01:23:24:17 01:23:24:17 
005205  19Y07M26                         A2    D    002 21:11:13:20 21:11:13:22 01:23:24:17 01:23:24:19 
*FROM CLIP NAME:  30K2/03.SYNC.01 
*TO CLIP NAME:  30K3/04.SYNC.01 
*A2 VOL =  +6.7 DB  PAN L100 
*A2 VOL =  +9.1 DB  PAN L100 
*SOURCE FILE: 19Y07M26
005206  19Y07M26                         A3    C        20:50:35:24 20:50:35:24 01:23:24:17 01:23:24:17 
005206  19Y07M26                         A3    D    002 21:11:13:20 21:11:13:22 01:23:24:17 01:23:24:19 
*FROM CLIP NAME:  30K2/03.SYNC.01 
*TO CLIP NAME:  30K3/04.SYNC.01 
*A3 VOL =  +6.7 DB  PAN R100 
*A3 VOL =  +7.0 DB  PAN R100 
*SOURCE FILE: 19Y07M26
005207  19Y07M26                         A4    C        20:50:35:24 20:50:35:24 01:23:24:17 01:23:24:17 
005207  19Y07M26                         A4    D    002 21:11:13:20 21:11:13:22 01:23:24:17 01:23:24:19 
*FROM CLIP NAME:  30K2/03.SYNC.01 
*TO CLIP NAME:  30K3/04.SYNC.01 
*A4 VOL =  +6.7 DB  PAN L100 
*A4 VOL =  +7.0 DB  PAN L100 
*SOURCE FILE: 19Y07M26
005208  19Y07M26                         A5    C        20:50:35:24 20:50:35:24 01:23:24:17 01:23:24:17 
005208  19Y07M26                         A5    D    002 21:11:13:20 21:11:13:22 01:23:24:17 01:23:24:19 
*FROM CLIP NAME:  30K2/03.SYNC.01 
*TO CLIP NAME:  30K3/04.SYNC.01 
*A5 VOL =  +9.5 DB  PAN R100 
*A5 VOL =  +7.0 DB  PAN R100 
*SOURCE FILE: 19Y07M26
005209  19Y07M26                         A6    C        20:50:35:24 20:50:35:24 01:23:24:17 01:23:24:17 
005209  19Y07M26                         A6    D    002 21:11:13:20 21:11:13:22 01:23:24:17 01:23:24:19 
*FROM CLIP NAME:  30K2/03.SYNC.01 
*TO CLIP NAME:  30K3/04.SYNC.01 
*A6 VOL =  +6.7 DB  PAN L100 
*A6 VOL =  +7.0 DB  PAN L100 
*PATCH 19Y07M26:  FROM SOURCE 1 TO RECORD 6 
*PATCH 19Y07M26:  FROM SOURCE 1 TO RECORD 6 
*SOURCE FILE: 19Y07M26
005210  19Y07M26                         A7    C        20:50:35:24 20:50:35:24 01:23:24:17 01:23:24:17 
005210  19Y07M26                         A7    D    002 21:11:13:20 21:11:13:22 01:23:24:17 01:23:24:19 
*FROM CLIP NAME:  30K2/03.SYNC.01 
*TO CLIP NAME:  30K3/04.SYNC.01 
*A7 VOL =  +6.7 DB  PAN R100 
*A7 VOL =  +7.0 DB  PAN R100 
*SOURCE FILE: 19Y07M26
005211  19Y07M26                         A8    C        20:50:35:24 20:50:35:24 01:23:24:17 01:23:24:17 
005211  19Y07M26                         A8    D    002 21:11:13:20 21:11:13:22 01:23:24:17 01:23:24:19 
*FROM CLIP NAME:  30K2/03.SYNC.01 
*TO CLIP NAME:  30K3/04.SYNC.01 
*A8 VOL =  +6.7 DB  PAN L100 
*A8 VOL =  +7.0 DB  PAN L100 
*PATCH 19Y07M26:  FROM SOURCE 1 TO RECORD 8 
*PATCH 19Y07M26:  FROM SOURCE 1 TO RECORD 8 
*SOURCE FILE: 19Y07M26
005212  19Y07M26                         A9    C        20:50:35:24 20:50:35:24 01:23:24:17 01:23:24:17 
005212  19Y07M26                         A9    D    002 21:11:13:20 21:11:13:22 01:23:24:17 01:23:24:19 
*FROM CLIP NAME:  30K2/03.SYNC.01 
*TO CLIP NAME:  30K3/04.SYNC.01 
*A9 VOL =  +6.7 DB  PAN R100 
*A9 VOL =  +7.0 DB  PAN R100 
*SOURCE FILE: 19Y07M26
005213  19Y07M26                         A10   C        20:50:35:24 20:50:35:24 01:23:24:17 01:23:24:17 
005213  19Y07M26                         A10   D    002 21:11:13:20 21:11:13:22 01:23:24:17 01:23:24:19 
*FROM CLIP NAME:  30K2/03.SYNC.01 
*TO CLIP NAME:  30K3/04.SYNC.01 
*A10 VOL =  +6.7 DB  PAN L100 
*A10 VOL =  +7.0 DB  PAN L100 
*PATCH 19Y07M26:  FROM SOURCE 1 TO RECORD 10 
*PATCH 19Y07M26:  FROM SOURCE 1 TO RECORD 10 
*SOURCE FILE: 19Y07M26
005214  19Y07M26                         A11   C        20:50:35:24 20:50:35:24 01:23:24:17 01:23:24:17 
005214  19Y07M26                         A11   D    002 21:11:13:20 21:11:13:22 01:23:24:17 01:23:24:19 
*FROM CLIP NAME:  30K2/03.SYNC.01 
*TO CLIP NAME:  30K3/04.SYNC.01 
*A11 VOL =  +6.7 DB  PAN R100 
*A11 VOL =  +7.0 DB  PAN R100 
*PATCH 19Y07M26:  FROM SOURCE 1 TO RECORD 11 
*PATCH 19Y07M26:  FROM SOURCE 1 TO RECORD 11 
*SOURCE FILE: 19Y07M26
005215  A008C007_190726_R32C             V     C        21:11:13:20 21:11:19:01 01:23:24:17 01:23:29:23 
*FROM CLIP NAME:  A008C007_190726_R32C.NEW.01 
*SOURCE FILE: A008C007_190726_R32C
005216  19Y07M26                         A     C        21:11:13:22 21:11:18:06 01:23:24:19 01:23:29:03 
*FROM CLIP NAME:  30K3/04.SYNC.01 
*A1 VOL =  +7.0 DB  PAN R100 
*SOURCE FILE: 19Y07M26
005217  19Y07M26                         A2    C        21:11:13:22 21:11:18:06 01:23:24:19 01:23:29:03 
*FROM CLIP NAME:  30K3/04.SYNC.01 
*A2 VOL =  +9.1 DB  PAN L100 
*SOURCE FILE: 19Y07M26
005218  19Y07M26                         A3    C        21:11:13:22 21:11:18:06 01:23:24:19 01:23:29:03 
*FROM CLIP NAME:  30K3/04.SYNC.01 
*A3 VOL =  +7.0 DB  PAN R100 
*SOURCE FILE: 19Y07M26
005219  19Y07M26                         A4    C        21:11:13:22 21:11:18:06 01:23:24:19 01:23:29:03 
*FROM CLIP NAME:  30K3/04.SYNC.01 
*A4 VOL =  +7.0 DB  PAN L100 
*SOURCE FILE: 19Y07M26
005220  19Y07M26                         A5    C        21:11:13:22 21:11:18:06 01:23:24:19 01:23:29:03 
*FROM CLIP NAME:  30K3/04.SYNC.01 
*A5 VOL =  +7.0 DB  PAN R100 
*SOURCE FILE: 19Y07M26
005221  19Y07M26                         A6    C        21:11:13:22 21:11:18:06 01:23:24:19 01:23:29:03 
*FROM CLIP NAME:  30K3/04.SYNC.01 
*A6 VOL =  +7.0 DB  PAN L100 
*PATCH 19Y07M26:  FROM SOURCE 1 TO RECORD 6 
*SOURCE FILE: 19Y07M26
005222  19Y07M26                         A7    C        21:11:13:22 21:11:18:06 01:23:24:19 01:23:29:03 
*FROM CLIP NAME:  30K3/04.SYNC.01 
*A7 VOL =  +7.0 DB  PAN R100 
*SOURCE FILE: 19Y07M26
005223  19Y07M26                         A8    C        21:11:13:22 21:11:18:06 01:23:24:19 01:23:29:03 
*FROM CLIP NAME:  30K3/04.SYNC.01 
*A8 VOL =  +7.0 DB  PAN L100 
*PATCH 19Y07M26:  FROM SOURCE 1 TO RECORD 8 
*SOURCE FILE: 19Y07M26
005224  19Y07M26                         A9    C        21:11:13:22 21:11:18:06 01:23:24:19 01:23:29:03 
*FROM CLIP NAME:  30K3/04.SYNC.01 
*A9 VOL =  +7.0 DB  PAN R100 
*SOURCE FILE: 19Y07M26
005225  19Y07M26                         A10   C        21:11:13:22 21:11:18:06 01:23:24:19 01:23:29:03 
*FROM CLIP NAME:  30K3/04.SYNC.01 
*A10 VOL =  +7.0 DB  PAN L100 
*PATCH 19Y07M26:  FROM SOURCE 1 TO RECORD 10 
*SOURCE FILE: 19Y07M26
005226  19Y07M26                         A11   C        21:11:13:22 21:11:18:06 01:23:24:19 01:23:29:03 
*FROM CLIP NAME:  30K3/04.SYNC.01 
*A11 VOL =  +7.0 DB  PAN R100 
*PATCH 19Y07M26:  FROM SOURCE 1 TO RECORD 11 
*SOURCE FILE: 19Y07M26
005227  19Y07M26                         A     C        21:11:18:06 21:11:18:06 01:23:29:03 01:23:29:03 
005227  19Y07M26                         A     D    002 20:50:41:02 20:50:41:04 01:23:29:03 01:23:29:05 
*FROM CLIP NAME:  30K3/04.SYNC.01 
*TO CLIP NAME:  30K2/03.SYNC.01 
*A1 VOL =  +7.0 DB  PAN R100 
*A1 VOL =  +6.0 DB  PAN R100 
*SOURCE FILE: 19Y07M26
005228  19Y07M26                         A2    C        21:11:18:06 21:11:18:06 01:23:29:03 01:23:29:03 
005228  19Y07M26                         A2    D    002 20:50:41:02 20:50:41:04 01:23:29:03 01:23:29:05 
*FROM CLIP NAME:  30K3/04.SYNC.01 
*TO CLIP NAME:  30K2/03.SYNC.01 
*A2 VOL =  +9.1 DB  PAN L100 
*A2 VOL =  +6.0 DB  PAN L100 
*SOURCE FILE: 19Y07M26
005229  19Y07M26                         A3    C        21:11:18:06 21:11:18:06 01:23:29:03 01:23:29:03 
005229  19Y07M26                         A3    D    002 20:50:41:02 20:50:41:04 01:23:29:03 01:23:29:05 
*FROM CLIP NAME:  30K3/04.SYNC.01 
*TO CLIP NAME:  30K2/03.SYNC.01 
*A3 VOL =  +7.0 DB  PAN R100 
*A3 VOL =  +6.0 DB  PAN R100 
*SOURCE FILE: 19Y07M26
005230  19Y07M26                         A4    C        21:11:18:06 21:11:18:06 01:23:29:03 01:23:29:03 
005230  19Y07M26                         A4    D    002 20:50:41:02 20:50:41:04 01:23:29:03 01:23:29:05 
*FROM CLIP NAME:  30K3/04.SYNC.01 
*TO CLIP NAME:  30K2/03.SYNC.01 
*A4 VOL =  +7.0 DB  PAN L100 
*A4 VOL =  +6.0 DB  PAN L100 
*SOURCE FILE: 19Y07M26
005231  19Y07M26                         A5    C        21:11:18:06 21:11:18:06 01:23:29:03 01:23:29:03 
005231  19Y07M26                         A5    D    002 20:50:41:02 20:50:41:04 01:23:29:03 01:23:29:05 
*FROM CLIP NAME:  30K3/04.SYNC.01 
*TO CLIP NAME:  30K2/03.SYNC.01 
*A5 VOL =  +7.0 DB  PAN R100 
*A5 VOL =  +6.0 DB  PAN R100 
*SOURCE FILE: 19Y07M26
005232  19Y07M26                         A6    C        21:11:18:06 21:11:18:06 01:23:29:03 01:23:29:03 
005232  19Y07M26                         A6    D    002 20:50:41:02 20:50:41:04 01:23:29:03 01:23:29:05 
*FROM CLIP NAME:  30K3/04.SYNC.01 
*TO CLIP NAME:  30K2/03.SYNC.01 
*A6 VOL =  +7.0 DB  PAN L100 
*A6 VOL =  +6.0 DB  PAN L100 
*PATCH 19Y07M26:  FROM SOURCE 1 TO RECORD 6 
*PATCH 19Y07M26:  FROM SOURCE 1 TO RECORD 6 
*SOURCE FILE: 19Y07M26
005233  19Y07M26                         A7    C        21:11:18:06 21:11:18:06 01:23:29:03 01:23:29:03 
005233  19Y07M26                         A7    D    002 20:50:41:02 20:50:41:04 01:23:29:03 01:23:29:05 
*FROM CLIP NAME:  30K3/04.SYNC.01 
*TO CLIP NAME:  30K2/03.SYNC.01 
*A7 VOL =  +7.0 DB  PAN R100 
*A7 VOL =  +6.0 DB  PAN R100 
*SOURCE FILE: 19Y07M26
005234  19Y07M26                         A8    C        21:11:18:06 21:11:18:06 01:23:29:03 01:23:29:03 
005234  19Y07M26                         A8    D    002 20:50:41:02 20:50:41:04 01:23:29:03 01:23:29:05 
*FROM CLIP NAME:  30K3/04.SYNC.01 
*TO CLIP NAME:  30K2/03.SYNC.01 
*A8 VOL =  +7.0 DB  PAN L100 
*A8 VOL =  +6.0 DB  PAN L100 
*PATCH 19Y07M26:  FROM SOURCE 1 TO RECORD 8 
*PATCH 19Y07M26:  FROM SOURCE 1 TO RECORD 8 
*SOURCE FILE: 19Y07M26
005235  19Y07M26                         A9    C        21:11:18:06 21:11:18:06 01:23:29:03 01:23:29:03 
005235  19Y07M26                         A9    D    002 20:50:41:02 20:50:41:04 01:23:29:03 01:23:29:05 
*FROM CLIP NAME:  30K3/04.SYNC.01 
*TO CLIP NAME:  30K2/03.SYNC.01 
*A9 VOL =  +7.0 DB  PAN R100 
*A9 VOL =  +6.0 DB  PAN R100 
*SOURCE FILE: 19Y07M26
005236  19Y07M26                         A10   C        21:11:18:06 21:11:18:06 01:23:29:03 01:23:29:03 
005236  19Y07M26                         A10   D    002 20:50:41:02 20:50:41:04 01:23:29:03 01:23:29:05 
*FROM CLIP NAME:  30K3/04.SYNC.01 
*TO CLIP NAME:  30K2/03.SYNC.01 
*A10 VOL =  +7.0 DB  PAN L100 
*A10 VOL =  +6.0 DB  PAN L100 
*PATCH 19Y07M26:  FROM SOURCE 1 TO RECORD 10 
*PATCH 19Y07M26:  FROM SOURCE 1 TO RECORD 10 
*SOURCE FILE: 19Y07M26
005237  19Y07M26                         A11   C        21:11:18:06 21:11:18:06 01:23:29:03 01:23:29:03 
005237  19Y07M26                         A11   D    002 20:50:41:02 20:50:41:04 01:23:29:03 01:23:29:05 
*FROM CLIP NAME:  30K3/04.SYNC.01 
*TO CLIP NAME:  30K2/03.SYNC.01 
*A11 VOL =  +7.0 DB  PAN R100 
*A11 VOL =  +6.0 DB  PAN R100 
*PATCH 19Y07M26:  FROM SOURCE 1 TO RECORD 11 
*PATCH 19Y07M26:  FROM SOURCE 1 TO RECORD 11 
*SOURCE FILE: 19Y07M26
005238  19Y07M26                         A     C        20:50:41:04 20:50:41:21 01:23:29:05 01:23:29:22 
*FROM CLIP NAME:  30K2/03.SYNC.01 
*A1 VOL =  +6.0 DB  PAN R100 
*SOURCE FILE: 19Y07M26
005239  19Y07M26                         A2    C        20:50:41:04 20:50:41:21 01:23:29:05 01:23:29:22 
*FROM CLIP NAME:  30K2/03.SYNC.01 
*A2 VOL =  +6.0 DB  PAN L100 
*SOURCE FILE: 19Y07M26
005240  19Y07M26                         A3    C        20:50:41:04 20:50:41:21 01:23:29:05 01:23:29:22 
*FROM CLIP NAME:  30K2/03.SYNC.01 
*A3 VOL =  +6.0 DB  PAN R100 
*SOURCE FILE: 19Y07M26
005241  19Y07M26                         A4    C        20:50:41:04 20:50:41:21 01:23:29:05 01:23:29:22 
*FROM CLIP NAME:  30K2/03.SYNC.01 
*A4 VOL =  +6.0 DB  PAN L100 
*SOURCE FILE: 19Y07M26
005242  19Y07M26                         A5    C        20:50:41:04 20:50:41:21 01:23:29:05 01:23:29:22 
*FROM CLIP NAME:  30K2/03.SYNC.01 
*A5 VOL =  +6.0 DB  PAN R100 
*SOURCE FILE: 19Y07M26
005243  19Y07M26                         A6    C        20:50:41:04 20:50:41:21 01:23:29:05 01:23:29:22 
*FROM CLIP NAME:  30K2/03.SYNC.01 
*A6 VOL =  +6.0 DB  PAN L100 
*PATCH 19Y07M26:  FROM SOURCE 1 TO RECORD 6 
*SOURCE FILE: 19Y07M26
005244  19Y07M26                         A7    C        20:50:41:04 20:50:41:21 01:23:29:05 01:23:29:22 
*FROM CLIP NAME:  30K2/03.SYNC.01 
*A7 VOL =  +6.0 DB  PAN R100 
*SOURCE FILE: 19Y07M26
005245  19Y07M26                         A8    C        20:50:41:04 20:50:41:21 01:23:29:05 01:23:29:22 
*FROM CLIP NAME:  30K2/03.SYNC.01 
*A8 VOL =  +6.0 DB  PAN L100 
*PATCH 19Y07M26:  FROM SOURCE 1 TO RECORD 8 
*SOURCE FILE: 19Y07M26
005246  19Y07M26                         A9    C        20:50:41:04 20:50:41:21 01:23:29:05 01:23:29:22 
*FROM CLIP NAME:  30K2/03.SYNC.01 
*A9 VOL =  +6.0 DB  PAN R100 
*SOURCE FILE: 19Y07M26
005247  19Y07M26                         A10   C        20:50:41:04 20:50:41:21 01:23:29:05 01:23:29:22 
*FROM CLIP NAME:  30K2/03.SYNC.01 
*A10 VOL =  +6.0 DB  PAN L100 
*PATCH 19Y07M26:  FROM SOURCE 1 TO RECORD 10 
*SOURCE FILE: 19Y07M26
005248  19Y07M26                         A11   C        20:50:41:04 20:50:41:21 01:23:29:05 01:23:29:22 
*FROM CLIP NAME:  30K2/03.SYNC.01 
*A11 VOL =  +6.0 DB  PAN R100 
*PATCH 19Y07M26:  FROM SOURCE 1 TO RECORD 11 
*SOURCE FILE: 19Y07M26
005249  19Y07M26                         A     C        20:50:41:21 20:50:41:21 01:23:29:22 01:23:29:22 
005249  19Y07M26                         A     D    002 20:50:42:02 20:50:42:04 01:23:29:22 01:23:29:24 
*FROM CLIP NAME:  30K2/03.SYNC.01 
*TO CLIP NAME:  30K2/03.SYNC.01 
*A1 VOL =  +6.0 DB  PAN R100 
*A1 VOL =  +7.0 DB  PAN R100 
*SOURCE FILE: 19Y07M26
005250  19Y07M26                         A2    C        20:50:41:21 20:50:41:21 01:23:29:22 01:23:29:22 
005250  19Y07M26                         A2    D    002 20:50:42:02 20:50:42:04 01:23:29:22 01:23:29:24 
*FROM CLIP NAME:  30K2/03.SYNC.01 
*TO CLIP NAME:  30K2/03.SYNC.01 
*A2 VOL =  +6.0 DB  PAN L100 
*A2 VOL =  +7.0 DB  PAN L100 
*SOURCE FILE: 19Y07M26
005251  19Y07M26                         A3    C        20:50:41:21 20:50:41:21 01:23:29:22 01:23:29:22 
005251  19Y07M26                         A3    D    002 20:50:42:02 20:50:42:04 01:23:29:22 01:23:29:24 
*FROM CLIP NAME:  30K2/03.SYNC.01 
*TO CLIP NAME:  30K2/03.SYNC.01 
*A3 VOL =  +6.0 DB  PAN R100 
*A3 VOL =  +7.0 DB  PAN R100 
*SOURCE FILE: 19Y07M26
005252  19Y07M26                         A4    C        20:50:41:21 20:50:41:21 01:23:29:22 01:23:29:22 
005252  19Y07M26                         A4    D    002 20:50:42:02 20:50:42:04 01:23:29:22 01:23:29:24 
*FROM CLIP NAME:  30K2/03.SYNC.01 
*TO CLIP NAME:  30K2/03.SYNC.01 
*A4 VOL =  +6.0 DB  PAN L100 
*A4 VOL =  +7.0 DB  PAN L100 
*SOURCE FILE: 19Y07M26
005253  19Y07M26                         A5    C        20:50:41:21 20:50:41:21 01:23:29:22 01:23:29:22 
005253  19Y07M26                         A5    D    002 20:50:42:02 20:50:42:04 01:23:29:22 01:23:29:24 
*FROM CLIP NAME:  30K2/03.SYNC.01 
*TO CLIP NAME:  30K2/03.SYNC.01 
*A5 VOL =  +6.0 DB  PAN R100 
*A5 VOL =  +7.0 DB  PAN R100 
*SOURCE FILE: 19Y07M26
005254  19Y07M26                         A6    C        20:50:41:21 20:50:41:21 01:23:29:22 01:23:29:22 
005254  19Y07M26                         A6    D    002 20:50:42:02 20:50:42:04 01:23:29:22 01:23:29:24 
*FROM CLIP NAME:  30K2/03.SYNC.01 
*TO CLIP NAME:  30K2/03.SYNC.01 
*A6 VOL =  +6.0 DB  PAN L100 
*A6 VOL =  +7.0 DB  PAN L100 
*PATCH 19Y07M26:  FROM SOURCE 1 TO RECORD 6 
*PATCH 19Y07M26:  FROM SOURCE 1 TO RECORD 6 
*SOURCE FILE: 19Y07M26
005255  19Y07M26                         A7    C        20:50:41:21 20:50:41:21 01:23:29:22 01:23:29:22 
005255  19Y07M26                         A7    D    002 20:50:42:02 20:50:42:04 01:23:29:22 01:23:29:24 
*FROM CLIP NAME:  30K2/03.SYNC.01 
*TO CLIP NAME:  30K2/03.SYNC.01 
*A7 VOL =  +6.0 DB  PAN R100 
*A7 VOL =  +7.0 DB  PAN R100 
*SOURCE FILE: 19Y07M26
005256  19Y07M26                         A8    C        20:50:41:21 20:50:41:21 01:23:29:22 01:23:29:22 
005256  19Y07M26                         A8    D    002 20:50:42:02 20:50:42:04 01:23:29:22 01:23:29:24 
*FROM CLIP NAME:  30K2/03.SYNC.01 
*TO CLIP NAME:  30K2/03.SYNC.01 
*A8 VOL =  +6.0 DB  PAN L100 
*A8 VOL =  +7.0 DB  PAN L100 
*PATCH 19Y07M26:  FROM SOURCE 1 TO RECORD 8 
*PATCH 19Y07M26:  FROM SOURCE 1 TO RECORD 8 
*SOURCE FILE: 19Y07M26
005257  19Y07M26                         A9    C        20:50:41:21 20:50:41:21 01:23:29:22 01:23:29:22 
005257  19Y07M26                         A9    D    002 20:50:42:02 20:50:42:04 01:23:29:22 01:23:29:24 
*FROM CLIP NAME:  30K2/03.SYNC.01 
*TO CLIP NAME:  30K2/03.SYNC.01 
*A9 VOL =  +6.0 DB  PAN R100 
*A9 VOL =  +7.0 DB  PAN R100 
*SOURCE FILE: 19Y07M26
005258  19Y07M26                         A10   C        20:50:41:21 20:50:41:21 01:23:29:22 01:23:29:22 
005258  19Y07M26                         A10   D    002 20:50:42:02 20:50:42:04 01:23:29:22 01:23:29:24 
*FROM CLIP NAME:  30K2/03.SYNC.01 
*TO CLIP NAME:  30K2/03.SYNC.01 
*A10 VOL =  +6.0 DB  PAN L100 
*A10 VOL =  +7.0 DB  PAN L100 
*PATCH 19Y07M26:  FROM SOURCE 1 TO RECORD 10 
*PATCH 19Y07M26:  FROM SOURCE 1 TO RECORD 10 
*SOURCE FILE: 19Y07M26
005259  19Y07M26                         A11   C        20:50:41:21 20:50:41:21 01:23:29:22 01:23:29:22 
005259  19Y07M26                         A11   D    002 20:50:42:02 20:50:42:04 01:23:29:22 01:23:29:24 
*FROM CLIP NAME:  30K2/03.SYNC.01 
*TO CLIP NAME:  30K2/03.SYNC.01 
*A11 VOL =  +6.0 DB  PAN R100 
*A11 VOL =  +7.0 DB  PAN R100 
*PATCH 19Y07M26:  FROM SOURCE 1 TO RECORD 11 
*PATCH 19Y07M26:  FROM SOURCE 1 TO RECORD 11 
*SOURCE FILE: 19Y07M26
005260  B006C002_190726_R4CP             V     C        20:50:42:03 20:50:50:05 01:23:29:23 01:23:38:00 
*FROM CLIP NAME:  B006C002_190726_R4CP.NEW.01 
*SOURCE FILE: B006C002_190726_R4CP
005261  19Y07M26                         A     C        20:50:42:04 20:50:50:05 01:23:29:24 01:23:38:00 
*FROM CLIP NAME:  30K2/03.SYNC.01 
*A1 VOL =  +7.0 DB  PAN R100 
*SOURCE FILE: 19Y07M26
005262  19Y07M26                         A2    C        20:50:42:04 20:50:50:05 01:23:29:24 01:23:38:00 
*FROM CLIP NAME:  30K2/03.SYNC.01 
*A2 VOL =  +7.0 DB  PAN L100 
*SOURCE FILE: 19Y07M26
005263  19Y07M26                         A3    C        20:50:42:04 20:50:50:05 01:23:29:24 01:23:38:00 
*FROM CLIP NAME:  30K2/03.SYNC.01 
*A3 VOL =  +7.0 DB  PAN R100 
*SOURCE FILE: 19Y07M26
005264  19Y07M26                         A4    C        20:50:42:04 20:50:50:05 01:23:29:24 01:23:38:00 
*FROM CLIP NAME:  30K2/03.SYNC.01 
*A4 VOL =  +7.0 DB  PAN L100 
*SOURCE FILE: 19Y07M26
005265  19Y07M26                         A5    C        20:50:42:04 20:50:50:05 01:23:29:24 01:23:38:00 
*FROM CLIP NAME:  30K2/03.SYNC.01 
*A5 VOL =  +7.0 DB  PAN R100 
*SOURCE FILE: 19Y07M26
005266  19Y07M26                         A6    C        20:50:42:04 20:50:50:05 01:23:29:24 01:23:38:00 
*FROM CLIP NAME:  30K2/03.SYNC.01 
*A6 VOL =  +7.0 DB  PAN L100 
*PATCH 19Y07M26:  FROM SOURCE 1 TO RECORD 6 
*SOURCE FILE: 19Y07M26
005267  19Y07M26                         A7    C        20:50:42:04 20:50:50:05 01:23:29:24 01:23:38:00 
*FROM CLIP NAME:  30K2/03.SYNC.01 
*A7 VOL =  +7.0 DB  PAN R100 
*SOURCE FILE: 19Y07M26
005268  19Y07M26                         A8    C        20:50:42:04 20:50:50:05 01:23:29:24 01:23:38:00 
*FROM CLIP NAME:  30K2/03.SYNC.01 
*A8 VOL =  +7.0 DB  PAN L100 
*PATCH 19Y07M26:  FROM SOURCE 1 TO RECORD 8 
*SOURCE FILE: 19Y07M26
005269  19Y07M26                         A9    C        20:50:42:04 20:50:50:05 01:23:29:24 01:23:38:00 
*FROM CLIP NAME:  30K2/03.SYNC.01 
*A9 VOL =  +7.0 DB  PAN R100 
*SOURCE FILE: 19Y07M26
005270  19Y07M26                         A10   C        20:50:42:04 20:50:50:05 01:23:29:24 01:23:38:00 
*FROM CLIP NAME:  30K2/03.SYNC.01 
*A10 VOL =  +7.0 DB  PAN L100 
*PATCH 19Y07M26:  FROM SOURCE 1 TO RECORD 10 
*SOURCE FILE: 19Y07M26
005271  19Y07M26                         A11   C        20:50:42:04 20:50:50:05 01:23:29:24 01:23:38:00 
*FROM CLIP NAME:  30K2/03.SYNC.01 
*A11 VOL =  +7.0 DB  PAN R100 
*PATCH 19Y07M26:  FROM SOURCE 1 TO RECORD 11 
*SOURCE FILE: 19Y07M26
005272  RUSSKIE_NARODNYE_INSTRUMENTY_-_N A17   C        01:01:20:09 01:01:44:07 01:23:33:07 01:23:57:05 
*FROM CLIP NAME:  RUSSKIE_NARODNYE_INSTRUMENTY_-_NA_GORE-TO_KALINA_GUSLI_(MP3.MN).MP3 
*A17 VOL = -27.0 DB  PAN R100 
*EQ BAND 1 (LO SHELF) FREQ:210.0 HZ  GAIN: -18.0 DB  Q: 2000 
*EQ BAND 2 (PRESENCE) FREQ:  1.3  KHZ  GAIN: +10.5 DB  Q: 2000 
*EQ BAND 3 (HI SHELF) FREQ:  6.4  KHZ  GAIN: -16.9 DB  Q: 2000 
*PATCH RUSSKIE_NARODNYE_INSTRUMENTY_-_N:  FROM SOURCE 1 TO RECORD 17 
*SOURCE FILE: RUSSKIE_NARODNYE_INSTRUMENTY_-_NA_GORE-TO_KALINA_GUSLI_(MP3.MN).MP3
005273  19Y07M26                         A12   C        21:32:56:01 21:32:58:19 01:23:34:22 01:23:37:15 
*FROM CLIP NAME:  30ZK1/01.SUB.01 
*A12 VOL = -17.1 DB  PAN L100 
*PATCH 19Y07M26:  FROM SOURCE 9 TO RECORD 12 
*SOURCE FILE: 19Y07M26
005274  19Y07M26                         A13   C        21:32:56:01 21:32:58:19 01:23:34:22 01:23:37:15 
*FROM CLIP NAME:  30ZK1/01.SUB.01 
*A13 VOL = -17.1 DB  PAN R100 
*PATCH 19Y07M26:  FROM SOURCE 3 TO RECORD 13 
*SOURCE FILE: 19Y07M26
005275  19Y07M26                         A14   C        21:32:56:01 21:32:58:19 01:23:34:22 01:23:37:15 
*FROM CLIP NAME:  30ZK1/01.SUB.01 
*A14 VOL = -17.1 DB  PAN L100 
*PATCH 19Y07M26:  FROM SOURCE 4 TO RECORD 14 
*SOURCE FILE: 19Y07M26
005276  19Y07M26                         A15   C        21:32:56:01 21:32:58:19 01:23:34:22 01:23:37:15 
*FROM CLIP NAME:  30ZK1/01.SUB.01 
*A15 VOL = -17.1 DB  PAN R100 
*PATCH 19Y07M26:  FROM SOURCE 1 TO RECORD 15 
*SOURCE FILE: 19Y07M26
005277  19Y07M26                         A16   C        21:32:56:01 21:32:58:19 01:23:34:22 01:23:37:15 
*FROM CLIP NAME:  30ZK1/01.SUB.01 
*A16 VOL = -17.1 DB  PAN L100 
*PATCH 19Y07M26:  FROM SOURCE 2 TO RECORD 16 
*SOURCE FILE: 19Y07M26
005278  19Y07M26                         A     C        21:26:21:02 21:26:21:22 01:23:38:00 01:23:38:20 
*FROM CLIP NAME:  30K5/01 
*SOURCE FILE: 19Y07M26
005279  19Y07M26                         A2    C        21:26:21:02 21:26:21:22 01:23:38:00 01:23:38:20 
*FROM CLIP NAME:  30K5/01 
*SOURCE FILE: 19Y07M26
005280  19Y07M26                         A3    C        21:26:21:02 21:26:21:22 01:23:38:00 01:23:38:20 
*FROM CLIP NAME:  30K5/01 
*SOURCE FILE: 19Y07M26
005281  19Y07M26                         A4    C        21:26:21:02 21:26:21:22 01:23:38:00 01:23:38:20 
*FROM CLIP NAME:  30K5/01 
*SOURCE FILE: 19Y07M26
005282  19Y07M26                         A5    C        21:26:21:02 21:26:21:22 01:23:38:00 01:23:38:20 
*FROM CLIP NAME:  30K5/01 
*PATCH 19Y07M26:  FROM SOURCE 9 TO RECORD 5 
*SOURCE FILE: 19Y07M26
005283  A009C003_190726_R32C             V     C        21:26:21:02 21:26:22:16 01:23:38:00 01:23:39:14 
*FROM CLIP NAME:  A009C003_190726_R32C.NEW.01 
*SOURCE FILE: A009C003_190726_R32C
005284  19Y07M26                         A     C        20:50:50:10 20:50:54:19 01:23:38:20 01:23:43:04 
*FROM CLIP NAME:  30K2/03.SYNC.01 
*A1 VOL =  +7.0 DB  PAN R100 
*SOURCE FILE: 19Y07M26
005285  19Y07M26                         A2    C        20:50:50:10 20:50:54:19 01:23:38:20 01:23:43:04 
*FROM CLIP NAME:  30K2/03.SYNC.01 
*A2 VOL =  +7.0 DB  PAN L100 
*SOURCE FILE: 19Y07M26
005286  19Y07M26                         A3    C        20:50:50:10 20:50:54:19 01:23:38:20 01:23:43:04 
*FROM CLIP NAME:  30K2/03.SYNC.01 
*A3 VOL =  +7.0 DB  PAN R100 
*SOURCE FILE: 19Y07M26
005287  19Y07M26                         A4    C        20:50:50:10 20:50:54:19 01:23:38:20 01:23:43:04 
*FROM CLIP NAME:  30K2/03.SYNC.01 
*A4 VOL =  +7.0 DB  PAN L100 
*SOURCE FILE: 19Y07M26
005288  19Y07M26                         A5    C        20:50:50:10 20:50:54:19 01:23:38:20 01:23:43:04 
*FROM CLIP NAME:  30K2/03.SYNC.01 
*A5 VOL =  +7.0 DB  PAN R100 
*SOURCE FILE: 19Y07M26
005289  19Y07M26                         A6    C        20:50:50:10 20:50:54:19 01:23:38:20 01:23:43:04 
*FROM CLIP NAME:  30K2/03.SYNC.01 
*A6 VOL =  +7.0 DB  PAN L100 
*PATCH 19Y07M26:  FROM SOURCE 1 TO RECORD 6 
*SOURCE FILE: 19Y07M26
005290  19Y07M26                         A7    C        20:50:50:10 20:50:54:19 01:23:38:20 01:23:43:04 
*FROM CLIP NAME:  30K2/03.SYNC.01 
*A7 VOL =  +7.0 DB  PAN R100 
*SOURCE FILE: 19Y07M26
005291  19Y07M26                         A8    C        20:50:50:10 20:50:54:19 01:23:38:20 01:23:43:04 
*FROM CLIP NAME:  30K2/03.SYNC.01 
*A8 VOL =  +7.0 DB  PAN L100 
*PATCH 19Y07M26:  FROM SOURCE 1 TO RECORD 8 
*SOURCE FILE: 19Y07M26
005292  19Y07M26                         A9    C        20:50:50:10 20:50:54:19 01:23:38:20 01:23:43:04 
*FROM CLIP NAME:  30K2/03.SYNC.01 
*A9 VOL =  +7.0 DB  PAN R100 
*SOURCE FILE: 19Y07M26
005293  19Y07M26                         A10   C        20:50:50:10 20:50:54:19 01:23:38:20 01:23:43:04 
*FROM CLIP NAME:  30K2/03.SYNC.01 
*A10 VOL =  +7.0 DB  PAN L100 
*PATCH 19Y07M26:  FROM SOURCE 1 TO RECORD 10 
*SOURCE FILE: 19Y07M26
005294  19Y07M26                         A11   C        20:50:50:10 20:50:54:19 01:23:38:20 01:23:43:04 
*FROM CLIP NAME:  30K2/03.SYNC.01 
*A11 VOL =  +7.0 DB  PAN R100 
*PATCH 19Y07M26:  FROM SOURCE 1 TO RECORD 11 
*SOURCE FILE: 19Y07M26
005295  B007C003_190726_R4CP             V     C        21:26:23:01 21:26:24:20 01:23:39:14 01:23:41:08 
*FROM CLIP NAME:  B007C003_190726_R4CP.NEW.01 
*SOURCE FILE: B007C003_190726_R4CP
005296  BL                               V     C        00:00:00:00 00:00:03:04 01:23:39:14 01:23:42:18 
*SOURCE FILE: (NULL)
005297  19Y07M26                         A12   C        21:33:01:07 21:33:10:03 01:23:40:18 01:23:49:14 
*FROM CLIP NAME:  30ZK1/01.SUB.01 
*A12 VOL = -17.1 DB  PAN L100 
*PATCH 19Y07M26:  FROM SOURCE 9 TO RECORD 12 
*SOURCE FILE: 19Y07M26
005298  19Y07M26                         A13   C        21:33:01:07 21:33:10:03 01:23:40:18 01:23:49:14 
*FROM CLIP NAME:  30ZK1/01.SUB.01 
*A13 VOL = -17.1 DB  PAN R100 
*PATCH 19Y07M26:  FROM SOURCE 3 TO RECORD 13 
*SOURCE FILE: 19Y07M26
005299  19Y07M26                         A14   C        21:33:01:07 21:33:10:03 01:23:40:18 01:23:49:14 
*FROM CLIP NAME:  30ZK1/01.SUB.01 
*A14 VOL = -17.1 DB  PAN L100 
*PATCH 19Y07M26:  FROM SOURCE 4 TO RECORD 14 
*SOURCE FILE: 19Y07M26
005300  19Y07M26                         A15   C        21:33:01:07 21:33:10:03 01:23:40:18 01:23:49:14 
*FROM CLIP NAME:  30ZK1/01.SUB.01 
*A15 VOL = -17.1 DB  PAN R100 
*PATCH 19Y07M26:  FROM SOURCE 1 TO RECORD 15 
*SOURCE FILE: 19Y07M26
005301  19Y07M26                         A16   C        21:33:01:07 21:33:10:03 01:23:40:18 01:23:49:14 
*FROM CLIP NAME:  30ZK1/01.SUB.01 
*A16 VOL = -17.1 DB  PAN L100 
*PATCH 19Y07M26:  FROM SOURCE 2 TO RECORD 16 
*SOURCE FILE: 19Y07M26
005302  B006C002_190726_R4CP             V     C        20:50:52:23 20:50:55:01 01:23:41:08 01:23:43:11 
*FROM CLIP NAME:  B006C002_190726_R4CP.NEW.01 
*SOURCE FILE: B006C002_190726_R4CP
005303  BL                               V     C        00:00:00:00 00:03:44:19 01:23:42:18 01:27:27:12 
*SOURCE FILE: (NULL)
005304  19Y07M26                         A     C        20:50:54:19 20:50:54:19 01:23:43:04 01:23:43:04 
005304  19Y07M26                         A     D    002 21:02:17:20 21:02:17:22 01:23:43:04 01:23:43:06 
*FROM CLIP NAME:  30K2/03.SYNC.01 
*TO CLIP NAME:  30K3/01.SYNC.01 
*A1 VOL =  +7.0 DB  PAN R100 
*SOURCE FILE: 19Y07M26
005305  19Y07M26                         A2    C        20:50:54:19 20:50:54:19 01:23:43:04 01:23:43:04 
005305  19Y07M26                         A2    D    002 21:02:17:20 21:02:17:22 01:23:43:04 01:23:43:06 
*FROM CLIP NAME:  30K2/03.SYNC.01 
*TO CLIP NAME:  30K3/01.SYNC.01 
*A2 VOL =  +7.0 DB  PAN L100 
*SOURCE FILE: 19Y07M26
005306  19Y07M26                         A3    C        20:50:54:19 20:50:54:19 01:23:43:04 01:23:43:04 
005306  19Y07M26                         A3    D    002 21:02:17:20 21:02:17:22 01:23:43:04 01:23:43:06 
*FROM CLIP NAME:  30K2/03.SYNC.01 
*TO CLIP NAME:  30K3/01.SYNC.01 
*A3 VOL =  +7.0 DB  PAN R100 
*SOURCE FILE: 19Y07M26
005307  19Y07M26                         A4    C        20:50:54:19 20:50:54:19 01:23:43:04 01:23:43:04 
005307  19Y07M26                         A4    D    002 21:02:17:20 21:02:17:22 01:23:43:04 01:23:43:06 
*FROM CLIP NAME:  30K2/03.SYNC.01 
*TO CLIP NAME:  30K3/01.SYNC.01 
*A4 VOL =  +7.0 DB  PAN L100 
*SOURCE FILE: 19Y07M26
005308  19Y07M26                         A5    C        20:50:54:19 20:50:54:19 01:23:43:04 01:23:43:04 
005308  19Y07M26                         A5    D    002 21:02:17:20 21:02:17:22 01:23:43:04 01:23:43:06 
*FROM CLIP NAME:  30K2/03.SYNC.01 
*TO CLIP NAME:  30K3/01.SYNC.01 
*A5 VOL =  +7.0 DB  PAN R100 
*SOURCE FILE: 19Y07M26
005309  19Y07M26                         A6    C        20:50:54:19 20:50:54:19 01:23:43:04 01:23:43:04 
005309  19Y07M26                         A6    D    002 21:02:17:20 21:02:17:22 01:23:43:04 01:23:43:06 
*FROM CLIP NAME:  30K2/03.SYNC.01 
*TO CLIP NAME:  30K3/01.SYNC.01 
*A6 VOL =  +7.0 DB  PAN L100 
*PATCH 19Y07M26:  FROM SOURCE 1 TO RECORD 6 
*PATCH 19Y07M26:  FROM SOURCE 1 TO RECORD 6 
*SOURCE FILE: 19Y07M26
005310  19Y07M26                         A7    C        20:50:54:19 20:50:54:19 01:23:43:04 01:23:43:04 
005310  19Y07M26                         A7    D    002 21:02:17:20 21:02:17:22 01:23:43:04 01:23:43:06 
*FROM CLIP NAME:  30K2/03.SYNC.01 
*TO CLIP NAME:  30K3/01.SYNC.01 
*A7 VOL =  +7.0 DB  PAN R100 
*SOURCE FILE: 19Y07M26
005311  19Y07M26                         A8    C        20:50:54:19 20:50:54:19 01:23:43:04 01:23:43:04 
005311  19Y07M26                         A8    D    002 21:02:17:20 21:02:17:22 01:23:43:04 01:23:43:06 
*FROM CLIP NAME:  30K2/03.SYNC.01 
*TO CLIP NAME:  30K3/01.SYNC.01 
*A8 VOL =  +7.0 DB  PAN L100 
*PATCH 19Y07M26:  FROM SOURCE 1 TO RECORD 8 
*PATCH 19Y07M26:  FROM SOURCE 1 TO RECORD 8 
*SOURCE FILE: 19Y07M26
005312  19Y07M26                         A9    C        20:50:54:19 20:50:54:19 01:23:43:04 01:23:43:04 
005312  19Y07M26                         A9    D    002 21:02:17:20 21:02:17:22 01:23:43:04 01:23:43:06 
*FROM CLIP NAME:  30K2/03.SYNC.01 
*TO CLIP NAME:  30K3/01.SYNC.01 
*A9 VOL =  +7.0 DB  PAN R100 
*SOURCE FILE: 19Y07M26
005313  19Y07M26                         A10   C        20:50:54:19 20:50:54:19 01:23:43:04 01:23:43:04 
005313  19Y07M26                         A10   D    002 21:02:17:20 21:02:17:22 01:23:43:04 01:23:43:06 
*FROM CLIP NAME:  30K2/03.SYNC.01 
*TO CLIP NAME:  30K3/01.SYNC.01 
*A10 VOL =  +7.0 DB  PAN L100 
*PATCH 19Y07M26:  FROM SOURCE 1 TO RECORD 10 
*PATCH 19Y07M26:  FROM SOURCE 1 TO RECORD 10 
*SOURCE FILE: 19Y07M26
005314  19Y07M26                         A11   C        20:50:54:19 20:50:54:19 01:23:43:04 01:23:43:04 
005314  19Y07M26                         A11   D    002 21:02:17:20 21:02:17:22 01:23:43:04 01:23:43:06 
*FROM CLIP NAME:  30K2/03.SYNC.01 
*TO CLIP NAME:  30K3/01.SYNC.01 
*A11 VOL =  +7.0 DB  PAN R100 
*PATCH 19Y07M26:  FROM SOURCE 1 TO RECORD 11 
*PATCH 19Y07M26:  FROM SOURCE 1 TO RECORD 11 
*SOURCE FILE: 19Y07M26
005315  19Y07M26                         A     C        21:02:17:22 21:02:18:02 01:23:43:06 01:23:43:11 
*FROM CLIP NAME:  30K3/01.SYNC.01 
*SOURCE FILE: 19Y07M26
005316  19Y07M26                         A2    C        21:02:17:22 21:02:18:02 01:23:43:06 01:23:43:11 
*FROM CLIP NAME:  30K3/01.SYNC.01 
*SOURCE FILE: 19Y07M26
005317  19Y07M26                         A3    C        21:02:17:22 21:02:18:02 01:23:43:06 01:23:43:11 
*FROM CLIP NAME:  30K3/01.SYNC.01 
*SOURCE FILE: 19Y07M26
005318  19Y07M26                         A4    C        21:02:17:22 21:02:18:02 01:23:43:06 01:23:43:11 
*FROM CLIP NAME:  30K3/01.SYNC.01 
*SOURCE FILE: 19Y07M26
005319  19Y07M26                         A5    C        21:02:17:22 21:02:18:02 01:23:43:06 01:23:43:11 
*FROM CLIP NAME:  30K3/01.SYNC.01 
*SOURCE FILE: 19Y07M26
005320  19Y07M26                         A6    C        21:02:17:22 21:02:18:02 01:23:43:06 01:23:43:11 
*FROM CLIP NAME:  30K3/01.SYNC.01 
*PATCH 19Y07M26:  FROM SOURCE 1 TO RECORD 6 
*SOURCE FILE: 19Y07M26
005321  19Y07M26                         A7    C        21:02:17:22 21:02:18:02 01:23:43:06 01:23:43:11 
*FROM CLIP NAME:  30K3/01.SYNC.01 
*SOURCE FILE: 19Y07M26
005322  19Y07M26                         A8    C        21:02:17:22 21:02:18:02 01:23:43:06 01:23:43:11 
*FROM CLIP NAME:  30K3/01.SYNC.01 
*PATCH 19Y07M26:  FROM SOURCE 1 TO RECORD 8 
*SOURCE FILE: 19Y07M26
005323  19Y07M26                         A9    C        21:02:17:22 21:02:18:02 01:23:43:06 01:23:43:11 
*FROM CLIP NAME:  30K3/01.SYNC.01 
*SOURCE FILE: 19Y07M26
005324  19Y07M26                         A10   C        21:02:17:22 21:02:18:02 01:23:43:06 01:23:43:11 
*FROM CLIP NAME:  30K3/01.SYNC.01 
*PATCH 19Y07M26:  FROM SOURCE 1 TO RECORD 10 
*SOURCE FILE: 19Y07M26
005325  19Y07M26                         A11   C        21:02:17:22 21:02:18:02 01:23:43:06 01:23:43:11 
*FROM CLIP NAME:  30K3/01.SYNC.01 
*PATCH 19Y07M26:  FROM SOURCE 1 TO RECORD 11 
*SOURCE FILE: 19Y07M26
005326  19Y07M26                         A     C        21:02:18:02 21:02:18:02 01:23:43:11 01:23:43:11 
005326  19Y07M26                         A     D    002 21:02:18:06 21:02:18:08 01:23:43:11 01:23:43:13 
*FROM CLIP NAME:  30K3/01.SYNC.01 
*TO CLIP NAME:  30K3/01.SYNC.01 
*A1 VOL =  +7.0 DB  PAN R100 
*SOURCE FILE: 19Y07M26
005327  19Y07M26                         A2    C        21:02:18:02 21:02:18:02 01:23:43:11 01:23:43:11 
005327  19Y07M26                         A2    D    002 21:02:18:06 21:02:18:08 01:23:43:11 01:23:43:13 
*FROM CLIP NAME:  30K3/01.SYNC.01 
*TO CLIP NAME:  30K3/01.SYNC.01 
*A2 VOL =  +7.0 DB  PAN L100 
*SOURCE FILE: 19Y07M26
005328  19Y07M26                         A3    C        21:02:18:02 21:02:18:02 01:23:43:11 01:23:43:11 
005328  19Y07M26                         A3    D    002 21:02:18:06 21:02:18:08 01:23:43:11 01:23:43:13 
*FROM CLIP NAME:  30K3/01.SYNC.01 
*TO CLIP NAME:  30K3/01.SYNC.01 
*A3 VOL =  +7.0 DB  PAN R100 
*SOURCE FILE: 19Y07M26
005329  19Y07M26                         A4    C        21:02:18:02 21:02:18:02 01:23:43:11 01:23:43:11 
005329  19Y07M26                         A4    D    002 21:02:18:06 21:02:18:08 01:23:43:11 01:23:43:13 
*FROM CLIP NAME:  30K3/01.SYNC.01 
*TO CLIP NAME:  30K3/01.SYNC.01 
*A4 VOL =  +7.0 DB  PAN L100 
*SOURCE FILE: 19Y07M26
005330  19Y07M26                         A5    C        21:02:18:02 21:02:18:02 01:23:43:11 01:23:43:11 
005330  19Y07M26                         A5    D    002 21:02:18:06 21:02:18:08 01:23:43:11 01:23:43:13 
*FROM CLIP NAME:  30K3/01.SYNC.01 
*TO CLIP NAME:  30K3/01.SYNC.01 
*A5 VOL =  +7.0 DB  PAN R100 
*SOURCE FILE: 19Y07M26
005331  19Y07M26                         A6    C        21:02:18:02 21:02:18:02 01:23:43:11 01:23:43:11 
005331  19Y07M26                         A6    D    002 21:02:18:06 21:02:18:08 01:23:43:11 01:23:43:13 
*FROM CLIP NAME:  30K3/01.SYNC.01 
*TO CLIP NAME:  30K3/01.SYNC.01 
*A6 VOL =  +7.0 DB  PAN L100 
*PATCH 19Y07M26:  FROM SOURCE 1 TO RECORD 6 
*PATCH 19Y07M26:  FROM SOURCE 1 TO RECORD 6 
*SOURCE FILE: 19Y07M26
005332  19Y07M26                         A7    C        21:02:18:02 21:02:18:02 01:23:43:11 01:23:43:11 
005332  19Y07M26                         A7    D    002 21:02:18:06 21:02:18:08 01:23:43:11 01:23:43:13 
*FROM CLIP NAME:  30K3/01.SYNC.01 
*TO CLIP NAME:  30K3/01.SYNC.01 
*A7 VOL =  +7.0 DB  PAN R100 
*SOURCE FILE: 19Y07M26
005333  19Y07M26                         A8    C        21:02:18:02 21:02:18:02 01:23:43:11 01:23:43:11 
005333  19Y07M26                         A8    D    002 21:02:18:06 21:02:18:08 01:23:43:11 01:23:43:13 
*FROM CLIP NAME:  30K3/01.SYNC.01 
*TO CLIP NAME:  30K3/01.SYNC.01 
*A8 VOL =  +7.0 DB  PAN L100 
*PATCH 19Y07M26:  FROM SOURCE 1 TO RECORD 8 
*PATCH 19Y07M26:  FROM SOURCE 1 TO RECORD 8 
*SOURCE FILE: 19Y07M26
005334  19Y07M26                         A9    C        21:02:18:02 21:02:18:02 01:23:43:11 01:23:43:11 
005334  19Y07M26                         A9    D    002 21:02:18:06 21:02:18:08 01:23:43:11 01:23:43:13 
*FROM CLIP NAME:  30K3/01.SYNC.01 
*TO CLIP NAME:  30K3/01.SYNC.01 
*A9 VOL =  +7.0 DB  PAN R100 
*SOURCE FILE: 19Y07M26
005335  19Y07M26                         A10   C        21:02:18:02 21:02:18:02 01:23:43:11 01:23:43:11 
005335  19Y07M26                         A10   D    002 21:02:18:06 21:02:18:08 01:23:43:11 01:23:43:13 
*FROM CLIP NAME:  30K3/01.SYNC.01 
*TO CLIP NAME:  30K3/01.SYNC.01 
*A10 VOL =  +7.0 DB  PAN L100 
*PATCH 19Y07M26:  FROM SOURCE 1 TO RECORD 10 
*PATCH 19Y07M26:  FROM SOURCE 1 TO RECORD 10 
*SOURCE FILE: 19Y07M26
005336  19Y07M26                         A11   C        21:02:18:02 21:02:18:02 01:23:43:11 01:23:43:11 
005336  19Y07M26                         A11   D    002 21:02:18:06 21:02:18:08 01:23:43:11 01:23:43:13 
*FROM CLIP NAME:  30K3/01.SYNC.01 
*TO CLIP NAME:  30K3/01.SYNC.01 
*A11 VOL =  +7.0 DB  PAN R100 
*PATCH 19Y07M26:  FROM SOURCE 1 TO RECORD 11 
*PATCH 19Y07M26:  FROM SOURCE 1 TO RECORD 11 
*SOURCE FILE: 19Y07M26
005337  B006C003_190726_R4CP             V     C        21:02:18:06 21:02:23:10 01:23:43:11 01:23:48:15 
*FROM CLIP NAME:  B006C003_190726_R4CP.NEW.01 
*SOURCE FILE: B006C003_190726_R4CP
005338  19Y07M26                         A2    C        21:02:18:08 21:02:22:24 01:23:43:13 01:23:48:04 
*FROM CLIP NAME:  30K3/01.SYNC.01 
*A2 VOL =  +7.0 DB  PAN L100 
*SOURCE FILE: 19Y07M26
005339  19Y07M26                         A5    C        21:02:18:08 21:02:22:24 01:23:43:13 01:23:48:04 
*FROM CLIP NAME:  30K3/01.SYNC.01 
*A5 VOL =  +7.0 DB  PAN R100 
*SOURCE FILE: 19Y07M26
005340  19Y07M26                         A     C        21:02:18:08 21:02:23:10 01:23:43:13 01:23:48:15 
*FROM CLIP NAME:  30K3/01.SYNC.01 
*A1 VOL =  +7.0 DB  PAN R100 
*SOURCE FILE: 19Y07M26
005341  19Y07M26                         A3    C        21:02:18:08 21:02:23:10 01:23:43:13 01:23:48:15 
*FROM CLIP NAME:  30K3/01.SYNC.01 
*A3 VOL =  +7.0 DB  PAN R100 
*SOURCE FILE: 19Y07M26
005342  19Y07M26                         A4    C        21:02:18:08 21:02:23:10 01:23:43:13 01:23:48:15 
*FROM CLIP NAME:  30K3/01.SYNC.01 
*A4 VOL =  +7.0 DB  PAN L100 
*SOURCE FILE: 19Y07M26
005343  19Y07M26                         A6    C        21:02:18:08 21:02:23:10 01:23:43:13 01:23:48:15 
*FROM CLIP NAME:  30K3/01.SYNC.01 
*A6 VOL =  +7.0 DB  PAN L100 
*PATCH 19Y07M26:  FROM SOURCE 1 TO RECORD 6 
*SOURCE FILE: 19Y07M26
005344  19Y07M26                         A7    C        21:02:18:08 21:02:23:10 01:23:43:13 01:23:48:15 
*FROM CLIP NAME:  30K3/01.SYNC.01 
*A7 VOL =  +7.0 DB  PAN R100 
*SOURCE FILE: 19Y07M26
005345  19Y07M26                         A8    C        21:02:18:08 21:02:23:10 01:23:43:13 01:23:48:15 
*FROM CLIP NAME:  30K3/01.SYNC.01 
*A8 VOL =  +7.0 DB  PAN L100 
*PATCH 19Y07M26:  FROM SOURCE 1 TO RECORD 8 
*SOURCE FILE: 19Y07M26
005346  19Y07M26                         A9    C        21:02:18:08 21:02:23:10 01:23:43:13 01:23:48:15 
*FROM CLIP NAME:  30K3/01.SYNC.01 
*A9 VOL =  +7.0 DB  PAN R100 
*SOURCE FILE: 19Y07M26
005347  19Y07M26                         A10   C        21:02:18:08 21:02:23:10 01:23:43:13 01:23:48:15 
*FROM CLIP NAME:  30K3/01.SYNC.01 
*A10 VOL =  +7.0 DB  PAN L100 
*PATCH 19Y07M26:  FROM SOURCE 1 TO RECORD 10 
*SOURCE FILE: 19Y07M26
005348  19Y07M26                         A11   C        21:02:18:08 21:02:23:10 01:23:43:13 01:23:48:15 
*FROM CLIP NAME:  30K3/01.SYNC.01 
*A11 VOL =  +7.0 DB  PAN R100 
*PATCH 19Y07M26:  FROM SOURCE 1 TO RECORD 11 
*SOURCE FILE: 19Y07M26
005349  19Y07M26                         A2    C        21:02:22:24 21:02:23:10 01:23:48:04 01:23:48:15 
*FROM CLIP NAME:  30K3/01.SYNC.01 
*SOURCE FILE: 19Y07M26
005350  19Y07M26                         A5    C        21:02:22:24 21:02:23:10 01:23:48:04 01:23:48:15 
*FROM CLIP NAME:  30K3/01.SYNC.01 
*SOURCE FILE: 19Y07M26
005351  19Y07M26                         A     C        21:02:23:14 21:02:24:05 01:23:48:15 01:23:49:06 
*FROM CLIP NAME:  30K3/01.SYNC.01 
*SOURCE FILE: 19Y07M26
005352  19Y07M26                         A2    C        21:02:23:14 21:02:24:05 01:23:48:15 01:23:49:06 
*FROM CLIP NAME:  30K3/01.SYNC.01 
*SOURCE FILE: 19Y07M26
005353  19Y07M26                         A3    C        21:02:23:14 21:02:24:05 01:23:48:15 01:23:49:06 
*FROM CLIP NAME:  30K3/01.SYNC.01 
*SOURCE FILE: 19Y07M26
005354  19Y07M26                         A4    C        21:02:23:14 21:02:24:05 01:23:48:15 01:23:49:06 
*FROM CLIP NAME:  30K3/01.SYNC.01 
*SOURCE FILE: 19Y07M26
005355  19Y07M26                         A5    C        21:02:23:14 21:02:24:05 01:23:48:15 01:23:49:06 
*FROM CLIP NAME:  30K3/01.SYNC.01 
*SOURCE FILE: 19Y07M26
005356  19Y07M26                         A6    C        21:02:23:14 21:02:24:05 01:23:48:15 01:23:49:06 
*FROM CLIP NAME:  30K3/01.SYNC.01 
*PATCH 19Y07M26:  FROM SOURCE 1 TO RECORD 6 
*SOURCE FILE: 19Y07M26
005357  19Y07M26                         A7    C        21:02:23:14 21:02:24:05 01:23:48:15 01:23:49:06 
*FROM CLIP NAME:  30K3/01.SYNC.01 
*SOURCE FILE: 19Y07M26
005358  19Y07M26                         A8    C        21:02:23:14 21:02:24:05 01:23:48:15 01:23:49:06 
*FROM CLIP NAME:  30K3/01.SYNC.01 
*PATCH 19Y07M26:  FROM SOURCE 1 TO RECORD 8 
*SOURCE FILE: 19Y07M26
005359  19Y07M26                         A9    C        21:02:23:14 21:02:24:05 01:23:48:15 01:23:49:06 
*FROM CLIP NAME:  30K3/01.SYNC.01 
*SOURCE FILE: 19Y07M26
005360  19Y07M26                         A10   C        21:02:23:14 21:02:24:05 01:23:48:15 01:23:49:06 
*FROM CLIP NAME:  30K3/01.SYNC.01 
*PATCH 19Y07M26:  FROM SOURCE 1 TO RECORD 10 
*SOURCE FILE: 19Y07M26
005361  19Y07M26                         A11   C        21:02:23:14 21:02:24:05 01:23:48:15 01:23:49:06 
*FROM CLIP NAME:  30K3/01.SYNC.01 
*PATCH 19Y07M26:  FROM SOURCE 1 TO RECORD 11 
*SOURCE FILE: 19Y07M26
005362  A008C003_190726_R32C             V     C        20:51:01:23 20:51:05:05 01:23:48:15 01:23:51:22 
*FROM CLIP NAME:  A008C003_190726_R32C.NEW.01 
*SOURCE FILE: A008C003_190726_R32C
005363  19Y07M26                         A     C        21:02:24:05 21:02:24:05 01:23:49:06 01:23:49:06 
005363  19Y07M26                         A     D    002 20:51:02:14 20:51:02:16 01:23:49:06 01:23:49:08 
*FROM CLIP NAME:  30K3/01.SYNC.01 
*TO CLIP NAME:  30K2/03.SYNC.01 
*SOURCE FILE: 19Y07M26
005364  19Y07M26                         A2    C        21:02:24:05 21:02:24:05 01:23:49:06 01:23:49:06 
005364  19Y07M26                         A2    D    002 20:51:02:14 20:51:02:16 01:23:49:06 01:23:49:08 
*FROM CLIP NAME:  30K3/01.SYNC.01 
*TO CLIP NAME:  30K2/03.SYNC.01 
*SOURCE FILE: 19Y07M26
005365  19Y07M26                         A3    C        21:02:24:05 21:02:24:05 01:23:49:06 01:23:49:06 
005365  19Y07M26                         A3    D    002 20:51:02:14 20:51:02:16 01:23:49:06 01:23:49:08 
*FROM CLIP NAME:  30K3/01.SYNC.01 
*TO CLIP NAME:  30K2/03.SYNC.01 
*SOURCE FILE: 19Y07M26
005366  19Y07M26                         A4    C        21:02:24:05 21:02:24:05 01:23:49:06 01:23:49:06 
005366  19Y07M26                         A4    D    002 20:51:02:14 20:51:02:16 01:23:49:06 01:23:49:08 
*FROM CLIP NAME:  30K3/01.SYNC.01 
*TO CLIP NAME:  30K2/03.SYNC.01 
*SOURCE FILE: 19Y07M26
005367  19Y07M26                         A5    C        21:02:24:05 21:02:24:05 01:23:49:06 01:23:49:06 
005367  19Y07M26                         A5    D    002 20:51:02:14 20:51:02:16 01:23:49:06 01:23:49:08 
*FROM CLIP NAME:  30K3/01.SYNC.01 
*TO CLIP NAME:  30K2/03.SYNC.01 
*SOURCE FILE: 19Y07M26
005368  19Y07M26                         A6    C        21:02:24:05 21:02:24:05 01:23:49:06 01:23:49:06 
005368  19Y07M26                         A6    D    002 20:51:02:14 20:51:02:16 01:23:49:06 01:23:49:08 
*FROM CLIP NAME:  30K3/01.SYNC.01 
*TO CLIP NAME:  30K2/03.SYNC.01 
*PATCH 19Y07M26:  FROM SOURCE 1 TO RECORD 6 
*PATCH 19Y07M26:  FROM SOURCE 1 TO RECORD 6 
*SOURCE FILE: 19Y07M26
005369  19Y07M26                         A7    C        21:02:24:05 21:02:24:05 01:23:49:06 01:23:49:06 
005369  19Y07M26                         A7    D    002 20:51:02:14 20:51:02:16 01:23:49:06 01:23:49:08 
*FROM CLIP NAME:  30K3/01.SYNC.01 
*TO CLIP NAME:  30K2/03.SYNC.01 
*SOURCE FILE: 19Y07M26
005370  19Y07M26                         A8    C        21:02:24:05 21:02:24:05 01:23:49:06 01:23:49:06 
005370  19Y07M26                         A8    D    002 20:51:02:14 20:51:02:16 01:23:49:06 01:23:49:08 
*FROM CLIP NAME:  30K3/01.SYNC.01 
*TO CLIP NAME:  30K2/03.SYNC.01 
*PATCH 19Y07M26:  FROM SOURCE 1 TO RECORD 8 
*PATCH 19Y07M26:  FROM SOURCE 1 TO RECORD 8 
*SOURCE FILE: 19Y07M26
005371  19Y07M26                         A9    C        21:02:24:05 21:02:24:05 01:23:49:06 01:23:49:06 
005371  19Y07M26                         A9    D    002 20:51:02:14 20:51:02:16 01:23:49:06 01:23:49:08 
*FROM CLIP NAME:  30K3/01.SYNC.01 
*TO CLIP NAME:  30K2/03.SYNC.01 
*SOURCE FILE: 19Y07M26
005372  19Y07M26                         A10   C        21:02:24:05 21:02:24:05 01:23:49:06 01:23:49:06 
005372  19Y07M26                         A10   D    002 20:51:02:14 20:51:02:16 01:23:49:06 01:23:49:08 
*FROM CLIP NAME:  30K3/01.SYNC.01 
*TO CLIP NAME:  30K2/03.SYNC.01 
*PATCH 19Y07M26:  FROM SOURCE 1 TO RECORD 10 
*PATCH 19Y07M26:  FROM SOURCE 1 TO RECORD 10 
*SOURCE FILE: 19Y07M26
005373  19Y07M26                         A11   C        21:02:24:05 21:02:24:05 01:23:49:06 01:23:49:06 
005373  19Y07M26                         A11   D    002 20:51:02:14 20:51:02:16 01:23:49:06 01:23:49:08 
*FROM CLIP NAME:  30K3/01.SYNC.01 
*TO CLIP NAME:  30K2/03.SYNC.01 
*PATCH 19Y07M26:  FROM SOURCE 1 TO RECORD 11 
*PATCH 19Y07M26:  FROM SOURCE 1 TO RECORD 11 
*SOURCE FILE: 19Y07M26
005374  19Y07M26                         A     C        20:51:02:16 20:51:03:22 01:23:49:08 01:23:50:14 
*FROM CLIP NAME:  30K2/03.SYNC.01 
*SOURCE FILE: 19Y07M26
005375  19Y07M26                         A2    C        20:51:02:16 20:51:03:22 01:23:49:08 01:23:50:14 
*FROM CLIP NAME:  30K2/03.SYNC.01 
*SOURCE FILE: 19Y07M26
005376  19Y07M26                         A3    C        20:51:02:16 20:51:03:22 01:23:49:08 01:23:50:14 
*FROM CLIP NAME:  30K2/03.SYNC.01 
*SOURCE FILE: 19Y07M26
005377  19Y07M26                         A4    C        20:51:02:16 20:51:03:22 01:23:49:08 01:23:50:14 
*FROM CLIP NAME:  30K2/03.SYNC.01 
*SOURCE FILE: 19Y07M26
005378  19Y07M26                         A5    C        20:51:02:16 20:51:03:22 01:23:49:08 01:23:50:14 
*FROM CLIP NAME:  30K2/03.SYNC.01 
*SOURCE FILE: 19Y07M26
005379  19Y07M26                         A6    C        20:51:02:16 20:51:03:22 01:23:49:08 01:23:50:14 
*FROM CLIP NAME:  30K2/03.SYNC.01 
*PATCH 19Y07M26:  FROM SOURCE 1 TO RECORD 6 
*SOURCE FILE: 19Y07M26
005380  19Y07M26                         A7    C        20:51:02:16 20:51:03:22 01:23:49:08 01:23:50:14 
*FROM CLIP NAME:  30K2/03.SYNC.01 
*SOURCE FILE: 19Y07M26
005381  19Y07M26                         A8    C        20:51:02:16 20:51:03:22 01:23:49:08 01:23:50:14 
*FROM CLIP NAME:  30K2/03.SYNC.01 
*PATCH 19Y07M26:  FROM SOURCE 1 TO RECORD 8 
*SOURCE FILE: 19Y07M26
005382  19Y07M26                         A9    C        20:51:02:16 20:51:03:22 01:23:49:08 01:23:50:14 
*FROM CLIP NAME:  30K2/03.SYNC.01 
*SOURCE FILE: 19Y07M26
005383  19Y07M26                         A10   C        20:51:02:16 20:51:03:22 01:23:49:08 01:23:50:14 
*FROM CLIP NAME:  30K2/03.SYNC.01 
*PATCH 19Y07M26:  FROM SOURCE 1 TO RECORD 10 
*SOURCE FILE: 19Y07M26
005384  19Y07M26                         A11   C        20:51:02:16 20:51:03:22 01:23:49:08 01:23:50:14 
*FROM CLIP NAME:  30K2/03.SYNC.01 
*PATCH 19Y07M26:  FROM SOURCE 1 TO RECORD 11 
*SOURCE FILE: 19Y07M26
005385  19Y07M26                         A12   C        21:36:18:02 21:36:20:07 01:23:49:14 01:23:51:19 
*FROM CLIP NAME:  30ZK1/02.SUB.01 
*A12 VOL = -15.0 DB  PAN L100 
*PATCH 19Y07M26:  FROM SOURCE 2 TO RECORD 12 
*SOURCE FILE: 19Y07M26
005386  19Y07M26                         A13   C        21:36:18:02 21:36:20:07 01:23:49:14 01:23:51:19 
*FROM CLIP NAME:  30ZK1/02.SUB.01 
*A13 VOL = -15.0 DB  PAN R100 
*PATCH 19Y07M26:  FROM SOURCE 1 TO RECORD 13 
*SOURCE FILE: 19Y07M26
005387  19Y07M26                         A14   C        21:36:18:02 21:36:20:07 01:23:49:14 01:23:51:19 
*FROM CLIP NAME:  30ZK1/02.SUB.01 
*A14 VOL = -15.0 DB  PAN L100 
*PATCH 19Y07M26:  FROM SOURCE 4 TO RECORD 14 
*SOURCE FILE: 19Y07M26
005388  19Y07M26                         A15   C        21:36:18:02 21:36:20:07 01:23:49:14 01:23:51:19 
*FROM CLIP NAME:  30ZK1/02.SUB.01 
*A15 VOL = -15.0 DB  PAN R100 
*PATCH 19Y07M26:  FROM SOURCE 3 TO RECORD 15 
*SOURCE FILE: 19Y07M26
005389  19Y07M26                         A16   C        21:36:18:02 21:36:20:07 01:23:49:14 01:23:51:19 
*FROM CLIP NAME:  30ZK1/02.SUB.01 
*A16 VOL = -15.0 DB  PAN L100 
*PATCH 19Y07M26:  FROM SOURCE 9 TO RECORD 16 
*SOURCE FILE: 19Y07M26
005390  19Y07M26                         A     C        21:02:25:24 21:02:27:00 01:23:50:14 01:23:51:15 
*FROM CLIP NAME:  30K3/01.SYNC.01 
*A1 VOL =  +6.0 DB  PAN R100 
*SOURCE FILE: 19Y07M26
005391  19Y07M26                         A2    C        21:02:25:24 21:02:27:00 01:23:50:14 01:23:51:15 
*FROM CLIP NAME:  30K3/01.SYNC.01 
*A2 VOL =  +6.0 DB  PAN L100 
*SOURCE FILE: 19Y07M26
005392  19Y07M26                         A3    C        21:02:25:24 21:02:27:00 01:23:50:14 01:23:51:15 
*FROM CLIP NAME:  30K3/01.SYNC.01 
*A3 VOL =  +6.0 DB  PAN R100 
*SOURCE FILE: 19Y07M26
005393  19Y07M26                         A4    C        21:02:25:24 21:02:27:00 01:23:50:14 01:23:51:15 
*FROM CLIP NAME:  30K3/01.SYNC.01 
*A4 VOL =  +6.0 DB  PAN L100 
*SOURCE FILE: 19Y07M26
005394  19Y07M26                         A5    C        21:02:25:24 21:02:27:00 01:23:50:14 01:23:51:15 
*FROM CLIP NAME:  30K3/01.SYNC.01 
*A5 VOL =  +6.0 DB  PAN R100 
*SOURCE FILE: 19Y07M26
005395  19Y07M26                         A6    C        21:02:25:24 21:02:27:00 01:23:50:14 01:23:51:15 
*FROM CLIP NAME:  30K3/01.SYNC.01 
*A6 VOL =  +6.0 DB  PAN L100 
*PATCH 19Y07M26:  FROM SOURCE 1 TO RECORD 6 
*SOURCE FILE: 19Y07M26
005396  19Y07M26                         A7    C        21:02:25:24 21:02:27:00 01:23:50:14 01:23:51:15 
*FROM CLIP NAME:  30K3/01.SYNC.01 
*A7 VOL =  +6.0 DB  PAN R100 
*SOURCE FILE: 19Y07M26
005397  19Y07M26                         A8    C        21:02:25:24 21:02:27:00 01:23:50:14 01:23:51:15 
*FROM CLIP NAME:  30K3/01.SYNC.01 
*A8 VOL =  +6.0 DB  PAN L100 
*PATCH 19Y07M26:  FROM SOURCE 1 TO RECORD 8 
*SOURCE FILE: 19Y07M26
005398  19Y07M26                         A9    C        21:02:25:24 21:02:27:00 01:23:50:14 01:23:51:15 
*FROM CLIP NAME:  30K3/01.SYNC.01 
*A9 VOL =  +6.0 DB  PAN R100 
*SOURCE FILE: 19Y07M26
005399  19Y07M26                         A10   C        21:02:25:24 21:02:27:00 01:23:50:14 01:23:51:15 
*FROM CLIP NAME:  30K3/01.SYNC.01 
*A10 VOL =  +6.0 DB  PAN L100 
*PATCH 19Y07M26:  FROM SOURCE 1 TO RECORD 10 
*SOURCE FILE: 19Y07M26
005400  19Y07M26                         A11   C        21:02:25:24 21:02:27:00 01:23:50:14 01:23:51:15 
*FROM CLIP NAME:  30K3/01.SYNC.01 
*A11 VOL =  +6.0 DB  PAN R100 
*PATCH 19Y07M26:  FROM SOURCE 1 TO RECORD 11 
*SOURCE FILE: 19Y07M26
005401  19Y07M26                         A     C        21:02:27:00 21:02:27:00 01:23:51:15 01:23:51:15 
005401  19Y07M26                         A     D    002 21:06:32:15 21:06:32:17 01:23:51:15 01:23:51:17 
*FROM CLIP NAME:  30K3/01.SYNC.01 
*TO CLIP NAME:  30K3/02.SYNC.01 
*A1 VOL =  +6.0 DB  PAN R100 
*A1 VOL =  +6.7 DB  PAN R100 
*SOURCE FILE: 19Y07M26
005402  19Y07M26                         A2    C        21:02:27:00 21:02:27:00 01:23:51:15 01:23:51:15 
005402  19Y07M26                         A2    D    002 21:06:32:15 21:06:32:17 01:23:51:15 01:23:51:17 
*FROM CLIP NAME:  30K3/01.SYNC.01 
*TO CLIP NAME:  30K3/02.SYNC.01 
*A2 VOL =  +6.0 DB  PAN L100 
*A2 VOL =  +6.7 DB  PAN L100 
*SOURCE FILE: 19Y07M26
005403  19Y07M26                         A3    C        21:02:27:00 21:02:27:00 01:23:51:15 01:23:51:15 
005403  19Y07M26                         A3    D    002 21:06:32:15 21:06:32:17 01:23:51:15 01:23:51:17 
*FROM CLIP NAME:  30K3/01.SYNC.01 
*TO CLIP NAME:  30K3/02.SYNC.01 
*A3 VOL =  +6.0 DB  PAN R100 
*A3 VOL =  +6.7 DB  PAN R100 
*SOURCE FILE: 19Y07M26
005404  19Y07M26                         A4    C        21:02:27:00 21:02:27:00 01:23:51:15 01:23:51:15 
005404  19Y07M26                         A4    D    002 21:06:32:15 21:06:32:17 01:23:51:15 01:23:51:17 
*FROM CLIP NAME:  30K3/01.SYNC.01 
*TO CLIP NAME:  30K3/02.SYNC.01 
*A4 VOL =  +6.0 DB  PAN L100 
*A4 VOL =  +6.7 DB  PAN L100 
*SOURCE FILE: 19Y07M26
005405  19Y07M26                         A5    C        21:02:27:00 21:02:27:00 01:23:51:15 01:23:51:15 
005405  19Y07M26                         A5    D    002 21:06:32:15 21:06:32:17 01:23:51:15 01:23:51:17 
*FROM CLIP NAME:  30K3/01.SYNC.01 
*TO CLIP NAME:  30K3/02.SYNC.01 
*A5 VOL =  +6.0 DB  PAN R100 
*A5 VOL =  +6.7 DB  PAN R100 
*SOURCE FILE: 19Y07M26
005406  19Y07M26                         A6    C        21:02:27:00 21:02:27:00 01:23:51:15 01:23:51:15 
005406  19Y07M26                         A6    D    002 21:06:32:15 21:06:32:17 01:23:51:15 01:23:51:17 
*FROM CLIP NAME:  30K3/01.SYNC.01 
*TO CLIP NAME:  30K3/02.SYNC.01 
*A6 VOL =  +6.0 DB  PAN L100 
*A6 VOL =  +6.7 DB  PAN L100 
*PATCH 19Y07M26:  FROM SOURCE 1 TO RECORD 6 
*PATCH 19Y07M26:  FROM SOURCE 1 TO RECORD 6 
*SOURCE FILE: 19Y07M26
005407  19Y07M26                         A7    C        21:02:27:00 21:02:27:00 01:23:51:15 01:23:51:15 
005407  19Y07M26                         A7    D    002 21:06:32:15 21:06:32:17 01:23:51:15 01:23:51:17 
*FROM CLIP NAME:  30K3/01.SYNC.01 
*TO CLIP NAME:  30K3/02.SYNC.01 
*A7 VOL =  +6.0 DB  PAN R100 
*A7 VOL =  +6.7 DB  PAN R100 
*SOURCE FILE: 19Y07M26
005408  19Y07M26                         A8    C        21:02:27:00 21:02:27:00 01:23:51:15 01:23:51:15 
005408  19Y07M26                         A8    D    002 21:06:32:15 21:06:32:17 01:23:51:15 01:23:51:17 
*FROM CLIP NAME:  30K3/01.SYNC.01 
*TO CLIP NAME:  30K3/02.SYNC.01 
*A8 VOL =  +6.0 DB  PAN L100 
*A8 VOL =  +6.7 DB  PAN L100 
*PATCH 19Y07M26:  FROM SOURCE 1 TO RECORD 8 
*PATCH 19Y07M26:  FROM SOURCE 1 TO RECORD 8 
*SOURCE FILE: 19Y07M26
005409  19Y07M26                         A9    C        21:02:27:00 21:02:27:00 01:23:51:15 01:23:51:15 
005409  19Y07M26                         A9    D    002 21:06:32:15 21:06:32:17 01:23:51:15 01:23:51:17 
*FROM CLIP NAME:  30K3/01.SYNC.01 
*TO CLIP NAME:  30K3/02.SYNC.01 
*A9 VOL =  +6.0 DB  PAN R100 
*A9 VOL =  +6.7 DB  PAN R100 
*SOURCE FILE: 19Y07M26
005410  19Y07M26                         A10   C        21:02:27:00 21:02:27:00 01:23:51:15 01:23:51:15 
005410  19Y07M26                         A10   D    002 21:06:32:15 21:06:32:17 01:23:51:15 01:23:51:17 
*FROM CLIP NAME:  30K3/01.SYNC.01 
*TO CLIP NAME:  30K3/02.SYNC.01 
*A10 VOL =  +6.0 DB  PAN L100 
*A10 VOL =  +6.7 DB  PAN L100 
*PATCH 19Y07M26:  FROM SOURCE 1 TO RECORD 10 
*PATCH 19Y07M26:  FROM SOURCE 1 TO RECORD 10 
*SOURCE FILE: 19Y07M26
005411  19Y07M26                         A11   C        21:02:27:00 21:02:27:00 01:23:51:15 01:23:51:15 
005411  19Y07M26                         A11   D    002 21:06:32:15 21:06:32:17 01:23:51:15 01:23:51:17 
*FROM CLIP NAME:  30K3/01.SYNC.01 
*TO CLIP NAME:  30K3/02.SYNC.01 
*A11 VOL =  +6.0 DB  PAN R100 
*A11 VOL =  +6.7 DB  PAN R100 
*PATCH 19Y07M26:  FROM SOURCE 1 TO RECORD 11 
*PATCH 19Y07M26:  FROM SOURCE 1 TO RECORD 11 
*SOURCE FILE: 19Y07M26
005412  19Y07M26                         A     C        21:06:32:17 21:06:35:11 01:23:51:17 01:23:54:11 
*FROM CLIP NAME:  30K3/02.SYNC.01 
*A1 VOL =  +6.7 DB  PAN R100 
*SOURCE FILE: 19Y07M26
005413  19Y07M26                         A2    C        21:06:32:17 21:06:35:11 01:23:51:17 01:23:54:11 
*FROM CLIP NAME:  30K3/02.SYNC.01 
*A2 VOL =  +6.7 DB  PAN L100 
*SOURCE FILE: 19Y07M26
005414  19Y07M26                         A3    C        21:06:32:17 21:06:35:11 01:23:51:17 01:23:54:11 
*FROM CLIP NAME:  30K3/02.SYNC.01 
*A3 VOL =  +6.7 DB  PAN R100 
*SOURCE FILE: 19Y07M26
005415  19Y07M26                         A4    C        21:06:32:17 21:06:35:11 01:23:51:17 01:23:54:11 
*FROM CLIP NAME:  30K3/02.SYNC.01 
*A4 VOL =  +6.7 DB  PAN L100 
*SOURCE FILE: 19Y07M26
005416  19Y07M26                         A5    C        21:06:32:17 21:06:35:11 01:23:51:17 01:23:54:11 
*FROM CLIP NAME:  30K3/02.SYNC.01 
*A5 VOL =  +6.7 DB  PAN R100 
*SOURCE FILE: 19Y07M26
005417  19Y07M26                         A6    C        21:06:32:17 21:06:35:11 01:23:51:17 01:23:54:11 
*FROM CLIP NAME:  30K3/02.SYNC.01 
*A6 VOL =  +6.7 DB  PAN L100 
*PATCH 19Y07M26:  FROM SOURCE 1 TO RECORD 6 
*SOURCE FILE: 19Y07M26
005418  19Y07M26                         A7    C        21:06:32:17 21:06:35:11 01:23:51:17 01:23:54:11 
*FROM CLIP NAME:  30K3/02.SYNC.01 
*A7 VOL =  +6.7 DB  PAN R100 
*SOURCE FILE: 19Y07M26
005419  19Y07M26                         A8    C        21:06:32:17 21:06:35:11 01:23:51:17 01:23:54:11 
*FROM CLIP NAME:  30K3/02.SYNC.01 
*A8 VOL =  +6.7 DB  PAN L100 
*PATCH 19Y07M26:  FROM SOURCE 1 TO RECORD 8 
*SOURCE FILE: 19Y07M26
005420  19Y07M26                         A9    C        21:06:32:17 21:06:35:11 01:23:51:17 01:23:54:11 
*FROM CLIP NAME:  30K3/02.SYNC.01 
*A9 VOL =  +6.7 DB  PAN R100 
*SOURCE FILE: 19Y07M26
005421  19Y07M26                         A10   C        21:06:32:17 21:06:35:11 01:23:51:17 01:23:54:11 
*FROM CLIP NAME:  30K3/02.SYNC.01 
*A10 VOL =  +6.7 DB  PAN L100 
*PATCH 19Y07M26:  FROM SOURCE 1 TO RECORD 10 
*SOURCE FILE: 19Y07M26
005422  19Y07M26                         A11   C        21:06:32:17 21:06:35:11 01:23:51:17 01:23:54:11 
*FROM CLIP NAME:  30K3/02.SYNC.01 
*A11 VOL =  +6.7 DB  PAN R100 
*PATCH 19Y07M26:  FROM SOURCE 1 TO RECORD 11 
*SOURCE FILE: 19Y07M26
005423  19Y07M26                         A12   C        21:36:20:14 21:36:26:00 01:23:51:19 01:23:57:05 
*FROM CLIP NAME:  30ZK1/02.SUB.01 
*A12 VOL = -15.0 DB  PAN L100 
*PATCH 19Y07M26:  FROM SOURCE 2 TO RECORD 12 
*SOURCE FILE: 19Y07M26
005424  19Y07M26                         A13   C        21:36:20:14 21:36:26:00 01:23:51:19 01:23:57:05 
*FROM CLIP NAME:  30ZK1/02.SUB.01 
*A13 VOL = -15.0 DB  PAN R100 
*PATCH 19Y07M26:  FROM SOURCE 1 TO RECORD 13 
*SOURCE FILE: 19Y07M26
005425  19Y07M26                         A14   C        21:36:20:14 21:36:26:00 01:23:51:19 01:23:57:05 
*FROM CLIP NAME:  30ZK1/02.SUB.01 
*A14 VOL = -15.0 DB  PAN L100 
*PATCH 19Y07M26:  FROM SOURCE 4 TO RECORD 14 
*SOURCE FILE: 19Y07M26
005426  19Y07M26                         A15   C        21:36:20:14 21:36:26:00 01:23:51:19 01:23:57:05 
*FROM CLIP NAME:  30ZK1/02.SUB.01 
*A15 VOL = -15.0 DB  PAN R100 
*PATCH 19Y07M26:  FROM SOURCE 3 TO RECORD 15 
*SOURCE FILE: 19Y07M26
005427  19Y07M26                         A16   C        21:36:20:14 21:36:26:00 01:23:51:19 01:23:57:05 
*FROM CLIP NAME:  30ZK1/02.SUB.01 
*A16 VOL = -15.0 DB  PAN L100 
*PATCH 19Y07M26:  FROM SOURCE 9 TO RECORD 16 
*SOURCE FILE: 19Y07M26
005428  A008C005_190726_R32C             V     C        21:06:32:22 21:06:35:12 01:23:51:22 01:23:54:12 
*FROM CLIP NAME:  A008C005_190726_R32C.NEW.01 
*SOURCE FILE: A008C005_190726_R32C
005429  19Y07M26                         A     C        21:06:35:11 21:06:35:11 01:23:54:11 01:23:54:11 
005429  19Y07M26                         A     D    002 20:46:05:08 20:46:05:10 01:23:54:11 01:23:54:13 
*FROM CLIP NAME:  30K3/02.SYNC.01 
*TO CLIP NAME:  30K2/01.SYNC.01 
*A1 VOL =  +6.7 DB  PAN R100 
*SOURCE FILE: 19Y07M26
005430  19Y07M26                         A2    C        21:06:35:11 21:06:35:11 01:23:54:11 01:23:54:11 
005430  19Y07M26                         A2    D    002 20:46:05:08 20:46:05:10 01:23:54:11 01:23:54:13 
*FROM CLIP NAME:  30K3/02.SYNC.01 
*TO CLIP NAME:  30K2/01.SYNC.01 
*A2 VOL =  +6.7 DB  PAN L100 
*SOURCE FILE: 19Y07M26
005431  19Y07M26                         A3    C        21:06:35:11 21:06:35:11 01:23:54:11 01:23:54:11 
005431  19Y07M26                         A3    D    002 20:46:05:08 20:46:05:10 01:23:54:11 01:23:54:13 
*FROM CLIP NAME:  30K3/02.SYNC.01 
*TO CLIP NAME:  30K2/01.SYNC.01 
*A3 VOL =  +6.7 DB  PAN R100 
*SOURCE FILE: 19Y07M26
005432  19Y07M26                         A4    C        21:06:35:11 21:06:35:11 01:23:54:11 01:23:54:11 
005432  19Y07M26                         A4    D    002 20:46:05:08 20:46:05:10 01:23:54:11 01:23:54:13 
*FROM CLIP NAME:  30K3/02.SYNC.01 
*TO CLIP NAME:  30K2/01.SYNC.01 
*A4 VOL =  +6.7 DB  PAN L100 
*SOURCE FILE: 19Y07M26
005433  19Y07M26                         A5    C        21:06:35:11 21:06:35:11 01:23:54:11 01:23:54:11 
005433  19Y07M26                         A5    D    002 20:46:05:08 20:46:05:10 01:23:54:11 01:23:54:13 
*FROM CLIP NAME:  30K3/02.SYNC.01 
*TO CLIP NAME:  30K2/01.SYNC.01 
*A5 VOL =  +6.7 DB  PAN R100 
*SOURCE FILE: 19Y07M26
005434  19Y07M26                         A6    C        21:06:35:11 21:06:35:11 01:23:54:11 01:23:54:11 
005434  19Y07M26                         A6    D    002 20:46:05:08 20:46:05:10 01:23:54:11 01:23:54:13 
*FROM CLIP NAME:  30K3/02.SYNC.01 
*TO CLIP NAME:  30K2/01.SYNC.01 
*A6 VOL =  +6.7 DB  PAN L100 
*PATCH 19Y07M26:  FROM SOURCE 1 TO RECORD 6 
*PATCH 19Y07M26:  FROM SOURCE 1 TO RECORD 6 
*SOURCE FILE: 19Y07M26
005435  19Y07M26                         A7    C        21:06:35:11 21:06:35:11 01:23:54:11 01:23:54:11 
005435  19Y07M26                         A7    D    002 20:46:05:08 20:46:05:10 01:23:54:11 01:23:54:13 
*FROM CLIP NAME:  30K3/02.SYNC.01 
*TO CLIP NAME:  30K2/01.SYNC.01 
*A7 VOL =  +6.7 DB  PAN R100 
*SOURCE FILE: 19Y07M26
005436  19Y07M26                         A8    C        21:06:35:11 21:06:35:11 01:23:54:11 01:23:54:11 
005436  19Y07M26                         A8    D    002 20:46:05:08 20:46:05:10 01:23:54:11 01:23:54:13 
*FROM CLIP NAME:  30K3/02.SYNC.01 
*TO CLIP NAME:  30K2/01.SYNC.01 
*A8 VOL =  +6.7 DB  PAN L100 
*PATCH 19Y07M26:  FROM SOURCE 1 TO RECORD 8 
*PATCH 19Y07M26:  FROM SOURCE 1 TO RECORD 8 
*SOURCE FILE: 19Y07M26
005437  19Y07M26                         A9    C        21:06:35:11 21:06:35:11 01:23:54:11 01:23:54:11 
005437  19Y07M26                         A9    D    002 20:46:05:08 20:46:05:10 01:23:54:11 01:23:54:13 
*FROM CLIP NAME:  30K3/02.SYNC.01 
*TO CLIP NAME:  30K2/01.SYNC.01 
*A9 VOL =  +6.7 DB  PAN R100 
*SOURCE FILE: 19Y07M26
005438  19Y07M26                         A10   C        21:06:35:11 21:06:35:11 01:23:54:11 01:23:54:11 
005438  19Y07M26                         A10   D    002 20:46:05:08 20:46:05:10 01:23:54:11 01:23:54:13 
*FROM CLIP NAME:  30K3/02.SYNC.01 
*TO CLIP NAME:  30K2/01.SYNC.01 
*A10 VOL =  +6.7 DB  PAN L100 
*PATCH 19Y07M26:  FROM SOURCE 1 TO RECORD 10 
*PATCH 19Y07M26:  FROM SOURCE 1 TO RECORD 10 
*SOURCE FILE: 19Y07M26
005439  19Y07M26                         A11   C        21:06:35:11 21:06:35:11 01:23:54:11 01:23:54:11 
005439  19Y07M26                         A11   D    002 20:46:05:08 20:46:05:10 01:23:54:11 01:23:54:13 
*FROM CLIP NAME:  30K3/02.SYNC.01 
*TO CLIP NAME:  30K2/01.SYNC.01 
*A11 VOL =  +6.7 DB  PAN R100 
*PATCH 19Y07M26:  FROM SOURCE 1 TO RECORD 11 
*PATCH 19Y07M26:  FROM SOURCE 1 TO RECORD 11 
*SOURCE FILE: 19Y07M26
005440  B006C001_190726_R4CP             V     C        20:46:05:09 20:46:08:02 01:23:54:12 01:23:57:05 
*FROM CLIP NAME:  B006C001_190726_R4CP.NEW.01 
*SOURCE FILE: B006C001_190726_R4CP
005441  19Y07M26                         A     C        20:46:05:10 20:46:06:24 01:23:54:13 01:23:56:02 
*FROM CLIP NAME:  30K2/01.SYNC.01 
*SOURCE FILE: 19Y07M26
005442  19Y07M26                         A2    C        20:46:05:10 20:46:06:24 01:23:54:13 01:23:56:02 
*FROM CLIP NAME:  30K2/01.SYNC.01 
*SOURCE FILE: 19Y07M26
005443  19Y07M26                         A3    C        20:46:05:10 20:46:06:24 01:23:54:13 01:23:56:02 
*FROM CLIP NAME:  30K2/01.SYNC.01 
*SOURCE FILE: 19Y07M26
005444  19Y07M26                         A4    C        20:46:05:10 20:46:06:24 01:23:54:13 01:23:56:02 
*FROM CLIP NAME:  30K2/01.SYNC.01 
*SOURCE FILE: 19Y07M26
005445  19Y07M26                         A5    C        20:46:05:10 20:46:06:24 01:23:54:13 01:23:56:02 
*FROM CLIP NAME:  30K2/01.SYNC.01 
*SOURCE FILE: 19Y07M26
005446  19Y07M26                         A6    C        20:46:05:10 20:46:06:24 01:23:54:13 01:23:56:02 
*FROM CLIP NAME:  30K2/01.SYNC.01 
*PATCH 19Y07M26:  FROM SOURCE 1 TO RECORD 6 
*SOURCE FILE: 19Y07M26
005447  19Y07M26                         A7    C        20:46:05:10 20:46:06:24 01:23:54:13 01:23:56:02 
*FROM CLIP NAME:  30K2/01.SYNC.01 
*SOURCE FILE: 19Y07M26
005448  19Y07M26                         A8    C        20:46:05:10 20:46:06:24 01:23:54:13 01:23:56:02 
*FROM CLIP NAME:  30K2/01.SYNC.01 
*PATCH 19Y07M26:  FROM SOURCE 1 TO RECORD 8 
*SOURCE FILE: 19Y07M26
005449  19Y07M26                         A9    C        20:46:05:10 20:46:06:24 01:23:54:13 01:23:56:02 
*FROM CLIP NAME:  30K2/01.SYNC.01 
*SOURCE FILE: 19Y07M26
005450  19Y07M26                         A10   C        20:46:05:10 20:46:06:24 01:23:54:13 01:23:56:02 
*FROM CLIP NAME:  30K2/01.SYNC.01 
*PATCH 19Y07M26:  FROM SOURCE 1 TO RECORD 10 
*SOURCE FILE: 19Y07M26
005451  19Y07M26                         A11   C        20:46:05:10 20:46:06:24 01:23:54:13 01:23:56:02 
*FROM CLIP NAME:  30K2/01.SYNC.01 
*PATCH 19Y07M26:  FROM SOURCE 1 TO RECORD 11 
*SOURCE FILE: 19Y07M26
005452  BL                               A7    C        00:00:00:00 00:00:00:00 01:23:57:05 01:23:57:05 
005452  19Y08M05                         A7    D    012 17:35:46:13 17:35:47:00 01:23:57:05 01:23:57:17 
*TO CLIP NAME:  27K2/01.SYNC.01 
*A7 VOL = -33.9 DB  PAN R100 
*PATCH 19Y08M05:  FROM SOURCE 1 TO RECORD 7 
*SOURCE FILE: (NULL)
005453  BL                               A8    C        00:00:00:00 00:00:00:00 01:23:57:05 01:23:57:05 
005453  19Y08M05                         A8    D    012 17:35:46:13 17:35:47:00 01:23:57:05 01:23:57:17 
*TO CLIP NAME:  27K2/01.SYNC.01 
*SOURCE FILE: (NULL)
005454  BL                               A9    C        00:00:00:00 00:00:00:00 01:23:57:05 01:23:57:05 
005454  19Y08M05                         A9    D    012 17:35:46:13 17:35:47:00 01:23:57:05 01:23:57:17 
*TO CLIP NAME:  27K2/01.SYNC.01 
*A9 VOL = -12.5 DB  PAN R100 
*PATCH 19Y08M05:  FROM SOURCE 3 TO RECORD 9 
*SOURCE FILE: (NULL)
005455  BL                               A10   C        00:00:00:00 00:00:00:00 01:23:57:05 01:23:57:05 
005455  19Y08M05                         A10   D    012 17:35:46:13 17:35:47:00 01:23:57:05 01:23:57:17 
*TO CLIP NAME:  27K2/01.SYNC.01 
*PATCH 19Y08M05:  FROM SOURCE 2 TO RECORD 10 
*SOURCE FILE: (NULL)
005456  BL                               A11   C        00:00:00:00 00:00:00:00 01:23:57:05 01:23:57:05 
005456  19Y08M05                         A11   D    012 17:35:46:13 17:35:47:00 01:23:57:05 01:23:57:17 
*TO CLIP NAME:  27K2/01.SYNC.01 
*PATCH 19Y08M05:  FROM SOURCE 4 TO RECORD 11 
*SOURCE FILE: (NULL)
005457  MSMMMOB.35                       V     C        17:36:49:15 17:36:53:05 01:23:57:05 01:24:00:20 
M2      MSMMMOB.35                                025.0 17:36:49:15 
*FROM CLIP NAME:  A045C002_190805_R32C 
*SOURCE FILE: MSMMMOB.35
005458  19Y08M05                         A     C        17:36:49:14 17:36:53:13 01:23:57:05 01:24:01:04 
*FROM CLIP NAME:  27K2/02.SYNC.01 
*SOURCE FILE: 19Y08M05
005459  19Y08M05                         A2    C        17:36:49:14 17:36:53:13 01:23:57:05 01:24:01:04 
*FROM CLIP NAME:  27K2/02.SYNC.01 
*SOURCE FILE: 19Y08M05
005460  19Y08M05                         A3    C        17:36:49:14 17:36:53:13 01:23:57:05 01:24:01:04 
*FROM CLIP NAME:  27K2/02.SYNC.01 
*SOURCE FILE: 19Y08M05
005461  19Y08M05                         A4    C        17:36:49:14 17:36:53:13 01:23:57:05 01:24:01:04 
*FROM CLIP NAME:  27K2/02.SYNC.01 
*SOURCE FILE: 19Y08M05
005462  19Y08M05                         A5    C        17:36:49:14 17:36:53:13 01:23:57:05 01:24:01:04 
*FROM CLIP NAME:  27K2/02.SYNC.01 
*PATCH 19Y08M05:  FROM SOURCE 6 TO RECORD 5 
*SOURCE FILE: 19Y08M05
005463  19Y08M05                         A6    C        17:36:49:14 17:36:53:13 01:23:57:05 01:24:01:04 
*FROM CLIP NAME:  27K2/02.SYNC.01 
*PATCH 19Y08M05:  FROM SOURCE 8 TO RECORD 6 
*SOURCE FILE: 19Y08M05
005464  19Y08M05                         A7    C        17:35:47:00 17:35:48:00 01:23:57:17 01:23:58:17 
*FROM CLIP NAME:  27K2/01.SYNC.01 
*A7 VOL = -33.9 DB  PAN R100 
*PATCH 19Y08M05:  FROM SOURCE 1 TO RECORD 7 
*SOURCE FILE: 19Y08M05
005465  19Y08M05                         A8    C        17:35:47:00 17:35:48:00 01:23:57:17 01:23:58:17 
*FROM CLIP NAME:  27K2/01.SYNC.01 
*SOURCE FILE: 19Y08M05
005466  19Y08M05                         A9    C        17:35:47:00 17:35:48:00 01:23:57:17 01:23:58:17 
*FROM CLIP NAME:  27K2/01.SYNC.01 
*A9 VOL = -12.5 DB  PAN R100 
*PATCH 19Y08M05:  FROM SOURCE 3 TO RECORD 9 
*SOURCE FILE: 19Y08M05
005467  19Y08M05                         A10   C        17:35:47:00 17:35:48:00 01:23:57:17 01:23:58:17 
*FROM CLIP NAME:  27K2/01.SYNC.01 
*PATCH 19Y08M05:  FROM SOURCE 2 TO RECORD 10 
*SOURCE FILE: 19Y08M05
005468  19Y08M05                         A11   C        17:35:47:00 17:35:48:00 01:23:57:17 01:23:58:17 
*FROM CLIP NAME:  27K2/01.SYNC.01 
*PATCH 19Y08M05:  FROM SOURCE 4 TO RECORD 11 
*SOURCE FILE: 19Y08M05
005469  19Y08M05                         A7    C        17:35:48:00 17:35:48:00 01:23:58:17 01:23:58:17 
005469  BL                               A7    D    023 00:00:00:00 00:00:00:23 01:23:58:17 01:23:59:15 
*FROM CLIP NAME:  27K2/01.SYNC.01 
*A7 VOL = -33.9 DB  PAN R100 
*PATCH 19Y08M05:  FROM SOURCE 1 TO RECORD 7 
*SOURCE FILE: 19Y08M05
005470  19Y08M05                         A8    C        17:35:48:00 17:35:48:00 01:23:58:17 01:23:58:17 
005470  BL                               A8    D    023 00:00:00:00 00:00:00:23 01:23:58:17 01:23:59:15 
*FROM CLIP NAME:  27K2/01.SYNC.01 
*SOURCE FILE: 19Y08M05
005471  19Y08M05                         A9    C        17:35:48:00 17:35:48:00 01:23:58:17 01:23:58:17 
005471  BL                               A9    D    023 00:00:00:00 00:00:00:23 01:23:58:17 01:23:59:15 
*FROM CLIP NAME:  27K2/01.SYNC.01 
*A9 VOL = -12.5 DB  PAN R100 
*PATCH 19Y08M05:  FROM SOURCE 3 TO RECORD 9 
*SOURCE FILE: 19Y08M05
005472  19Y08M05                         A10   C        17:35:48:00 17:35:48:00 01:23:58:17 01:23:58:17 
005472  BL                               A10   D    023 00:00:00:00 00:00:00:23 01:23:58:17 01:23:59:15 
*FROM CLIP NAME:  27K2/01.SYNC.01 
*PATCH 19Y08M05:  FROM SOURCE 2 TO RECORD 10 
*SOURCE FILE: 19Y08M05
005473  19Y08M05                         A11   C        17:35:48:00 17:35:48:00 01:23:58:17 01:23:58:17 
005473  BL                               A11   D    023 00:00:00:00 00:00:00:23 01:23:58:17 01:23:59:15 
*FROM CLIP NAME:  27K2/01.SYNC.01 
*PATCH 19Y08M05:  FROM SOURCE 4 TO RECORD 11 
*SOURCE FILE: 19Y08M05
005474  MSMMMOB.44                       V     C        17:50:38:05 17:50:41:08 01:24:00:20 01:24:03:23 
M2      MSMMMOB.44                                025.0 17:50:38:05 
*FROM CLIP NAME:  A045C004_190805_R32C 
*SOURCE FILE: MSMMMOB.44
005475  19Y08M05                         A     C        17:36:53:13 17:36:53:13 01:24:01:04 01:24:01:04 
005475  19Y08M05                         A     D    002 17:50:38:13 17:50:38:15 01:24:01:04 01:24:01:06 
*FROM CLIP NAME:  27K2/02.SYNC.01 
*TO CLIP NAME:  27K3/01.SYNC.01 
*SOURCE FILE: 19Y08M05
005476  19Y08M05                         A2    C        17:36:53:13 17:36:53:13 01:24:01:04 01:24:01:04 
005476  19Y08M05                         A2    D    002 17:50:38:13 17:50:38:15 01:24:01:04 01:24:01:06 
*FROM CLIP NAME:  27K2/02.SYNC.01 
*TO CLIP NAME:  27K3/01.SYNC.01 
*SOURCE FILE: 19Y08M05
005477  19Y08M05                         A3    C        17:36:53:13 17:36:53:13 01:24:01:04 01:24:01:04 
005477  19Y08M05                         A3    D    002 17:50:38:13 17:50:38:15 01:24:01:04 01:24:01:06 
*FROM CLIP NAME:  27K2/02.SYNC.01 
*TO CLIP NAME:  27K3/01.SYNC.01 
*SOURCE FILE: 19Y08M05
005478  19Y08M05                         A4    C        17:36:53:13 17:36:53:13 01:24:01:04 01:24:01:04 
005478  19Y08M05                         A4    D    002 17:50:38:13 17:50:38:15 01:24:01:04 01:24:01:06 
*FROM CLIP NAME:  27K2/02.SYNC.01 
*TO CLIP NAME:  27K3/01.SYNC.01 
*SOURCE FILE: 19Y08M05
005479  19Y08M05                         A5    C        17:36:53:13 17:36:53:13 01:24:01:04 01:24:01:04 
005479  19Y08M05                         A5    D    002 17:50:38:13 17:50:38:15 01:24:01:04 01:24:01:06 
*FROM CLIP NAME:  27K2/02.SYNC.01 
*TO CLIP NAME:  27K3/01.SYNC.01 
*PATCH 19Y08M05:  FROM SOURCE 6 TO RECORD 5 
*PATCH 19Y08M05:  FROM SOURCE 6 TO RECORD 5 
*SOURCE FILE: 19Y08M05
005480  19Y08M05                         A6    C        17:36:53:13 17:36:53:13 01:24:01:04 01:24:01:04 
005480  19Y08M05                         A6    D    002 17:50:38:13 17:50:38:15 01:24:01:04 01:24:01:06 
*FROM CLIP NAME:  27K2/02.SYNC.01 
*TO CLIP NAME:  27K3/01.SYNC.01 
*PATCH 19Y08M05:  FROM SOURCE 8 TO RECORD 6 
*PATCH 19Y08M05:  FROM SOURCE 8 TO RECORD 6 
*SOURCE FILE: 19Y08M05
005481  19Y08M05                         A     C        17:50:38:15 17:50:41:06 01:24:01:06 01:24:03:22 
*FROM CLIP NAME:  27K3/01.SYNC.01 
*SOURCE FILE: 19Y08M05
005482  19Y08M05                         A2    C        17:50:38:15 17:50:41:06 01:24:01:06 01:24:03:22 
*FROM CLIP NAME:  27K3/01.SYNC.01 
*SOURCE FILE: 19Y08M05
005483  19Y08M05                         A3    C        17:50:38:15 17:50:41:06 01:24:01:06 01:24:03:22 
*FROM CLIP NAME:  27K3/01.SYNC.01 
*SOURCE FILE: 19Y08M05
005484  19Y08M05                         A4    C        17:50:38:15 17:50:41:06 01:24:01:06 01:24:03:22 
*FROM CLIP NAME:  27K3/01.SYNC.01 
*SOURCE FILE: 19Y08M05
005485  19Y08M05                         A5    C        17:50:38:15 17:50:41:06 01:24:01:06 01:24:03:22 
*FROM CLIP NAME:  27K3/01.SYNC.01 
*PATCH 19Y08M05:  FROM SOURCE 6 TO RECORD 5 
*SOURCE FILE: 19Y08M05
005486  19Y08M05                         A6    C        17:50:38:15 17:50:41:06 01:24:01:06 01:24:03:22 
*FROM CLIP NAME:  27K3/01.SYNC.01 
*PATCH 19Y08M05:  FROM SOURCE 8 TO RECORD 6 
*SOURCE FILE: 19Y08M05
005487  19Y08M05                         A     C        17:50:41:06 17:50:41:06 01:24:03:22 01:24:03:22 
005487  19Y08M05                         A     D    002 18:13:31:13 18:13:31:15 01:24:03:22 01:24:03:24 
*FROM CLIP NAME:  27K3/01.SYNC.01 
*TO CLIP NAME:  27K4/01.SYNC.01 
*SOURCE FILE: 19Y08M05
005488  19Y08M05                         A2    C        17:50:41:06 17:50:41:06 01:24:03:22 01:24:03:22 
005488  19Y08M05                         A2    D    002 18:13:31:13 18:13:31:15 01:24:03:22 01:24:03:24 
*FROM CLIP NAME:  27K3/01.SYNC.01 
*TO CLIP NAME:  27K4/01.SYNC.01 
*SOURCE FILE: 19Y08M05
005489  19Y08M05                         A3    C        17:50:41:06 17:50:41:06 01:24:03:22 01:24:03:22 
005489  19Y08M05                         A3    D    002 18:13:31:13 18:13:31:15 01:24:03:22 01:24:03:24 
*FROM CLIP NAME:  27K3/01.SYNC.01 
*TO CLIP NAME:  27K4/01.SYNC.01 
*SOURCE FILE: 19Y08M05
005490  19Y08M05                         A4    C        17:50:41:06 17:50:41:06 01:24:03:22 01:24:03:22 
005490  19Y08M05                         A4    D    002 18:13:31:13 18:13:31:15 01:24:03:22 01:24:03:24 
*FROM CLIP NAME:  27K3/01.SYNC.01 
*TO CLIP NAME:  27K4/01.SYNC.01 
*SOURCE FILE: 19Y08M05
005491  19Y08M05                         A5    C        17:50:41:06 17:50:41:06 01:24:03:22 01:24:03:22 
005491  19Y08M05                         A5    D    002 18:13:31:13 18:13:31:15 01:24:03:22 01:24:03:24 
*FROM CLIP NAME:  27K3/01.SYNC.01 
*TO CLIP NAME:  27K4/01.SYNC.01 
*PATCH 19Y08M05:  FROM SOURCE 6 TO RECORD 5 
*PATCH 19Y08M05:  FROM SOURCE 6 TO RECORD 5 
*SOURCE FILE: 19Y08M05
005492  19Y08M05                         A6    C        17:50:41:06 17:50:41:06 01:24:03:22 01:24:03:22 
005492  19Y08M05                         A6    D    002 18:13:31:13 18:13:31:15 01:24:03:22 01:24:03:24 
*FROM CLIP NAME:  27K3/01.SYNC.01 
*TO CLIP NAME:  27K4/01.SYNC.01 
*PATCH 19Y08M05:  FROM SOURCE 8 TO RECORD 6 
*PATCH 19Y08M05:  FROM SOURCE 8 TO RECORD 6 
*SOURCE FILE: 19Y08M05
005493  MSMMMOB.03                       V     C        18:13:31:15 18:13:36:10 01:24:03:23 01:24:08:18 
M2      MSMMMOB.03                                025.0 18:13:31:15 
*FROM CLIP NAME:  A045C005_190805_R32C 
*SOURCE FILE: MSMMMOB.03
005494  19Y08M05                         A     C        18:13:31:15 18:13:33:20 01:24:03:24 01:24:06:04 
*FROM CLIP NAME:  27K4/01.SYNC.01 
*SOURCE FILE: 19Y08M05
005495  19Y08M05                         A2    C        18:13:31:15 18:13:33:20 01:24:03:24 01:24:06:04 
*FROM CLIP NAME:  27K4/01.SYNC.01 
*SOURCE FILE: 19Y08M05
005496  19Y08M05                         A3    C        18:13:31:15 18:13:33:20 01:24:03:24 01:24:06:04 
*FROM CLIP NAME:  27K4/01.SYNC.01 
*SOURCE FILE: 19Y08M05
005497  19Y08M05                         A4    C        18:13:31:15 18:13:33:20 01:24:03:24 01:24:06:04 
*FROM CLIP NAME:  27K4/01.SYNC.01 
*SOURCE FILE: 19Y08M05
005498  19Y08M05                         A5    C        18:13:31:15 18:13:33:20 01:24:03:24 01:24:06:04 
*FROM CLIP NAME:  27K4/01.SYNC.01 
*PATCH 19Y08M05:  FROM SOURCE 6 TO RECORD 5 
*SOURCE FILE: 19Y08M05
005499  19Y08M05                         A6    C        18:13:31:15 18:13:33:20 01:24:03:24 01:24:06:04 
*FROM CLIP NAME:  27K4/01.SYNC.01 
*PATCH 19Y08M05:  FROM SOURCE 8 TO RECORD 6 
*SOURCE FILE: 19Y08M05
005500  19Y08M05                         A     C        17:50:42:24 17:50:45:12 01:24:06:04 01:24:08:17 
*FROM CLIP NAME:  27K3/01.SYNC.01 
*SOURCE FILE: 19Y08M05
005501  19Y08M05                         A2    C        17:50:42:24 17:50:45:12 01:24:06:04 01:24:08:17 
*FROM CLIP NAME:  27K3/01.SYNC.01 
*SOURCE FILE: 19Y08M05
005502  19Y08M05                         A3    C        17:50:42:24 17:50:45:12 01:24:06:04 01:24:08:17 
*FROM CLIP NAME:  27K3/01.SYNC.01 
*SOURCE FILE: 19Y08M05
005503  19Y08M05                         A4    C        17:50:42:24 17:50:45:12 01:24:06:04 01:24:08:17 
*FROM CLIP NAME:  27K3/01.SYNC.01 
*SOURCE FILE: 19Y08M05
005504  19Y08M05                         A5    C        17:50:42:24 17:50:45:12 01:24:06:04 01:24:08:17 
*FROM CLIP NAME:  27K3/01.SYNC.01 
*PATCH 19Y08M05:  FROM SOURCE 6 TO RECORD 5 
*SOURCE FILE: 19Y08M05
005505  19Y08M05                         A6    C        17:50:42:24 17:50:45:12 01:24:06:04 01:24:08:17 
*FROM CLIP NAME:  27K3/01.SYNC.01 
*PATCH 19Y08M05:  FROM SOURCE 8 TO RECORD 6 
*SOURCE FILE: 19Y08M05
005506  19Y08M05                         A     C        17:50:45:12 17:50:45:12 01:24:08:17 01:24:08:17 
005506  19Y08M05                         A     D    002 17:50:45:03 17:50:45:05 01:24:08:17 01:24:08:19 
*FROM CLIP NAME:  27K3/01.SYNC.01 
*TO CLIP NAME:  27K3/01.SYNC.01 
*SOURCE FILE: 19Y08M05
005507  19Y08M05                         A2    C        17:50:45:12 17:50:45:12 01:24:08:17 01:24:08:17 
005507  19Y08M05                         A2    D    002 17:50:45:03 17:50:45:05 01:24:08:17 01:24:08:19 
*FROM CLIP NAME:  27K3/01.SYNC.01 
*TO CLIP NAME:  27K3/01.SYNC.01 
*SOURCE FILE: 19Y08M05
005508  19Y08M05                         A3    C        17:50:45:12 17:50:45:12 01:24:08:17 01:24:08:17 
005508  19Y08M05                         A3    D    002 17:50:45:03 17:50:45:05 01:24:08:17 01:24:08:19 
*FROM CLIP NAME:  27K3/01.SYNC.01 
*TO CLIP NAME:  27K3/01.SYNC.01 
*SOURCE FILE: 19Y08M05
005509  19Y08M05                         A4    C        17:50:45:12 17:50:45:12 01:24:08:17 01:24:08:17 
005509  19Y08M05                         A4    D    002 17:50:45:03 17:50:45:05 01:24:08:17 01:24:08:19 
*FROM CLIP NAME:  27K3/01.SYNC.01 
*TO CLIP NAME:  27K3/01.SYNC.01 
*SOURCE FILE: 19Y08M05
005510  19Y08M05                         A5    C        17:50:45:12 17:50:45:12 01:24:08:17 01:24:08:17 
005510  19Y08M05                         A5    D    002 17:50:45:03 17:50:45:05 01:24:08:17 01:24:08:19 
*FROM CLIP NAME:  27K3/01.SYNC.01 
*TO CLIP NAME:  27K3/01.SYNC.01 
*PATCH 19Y08M05:  FROM SOURCE 6 TO RECORD 5 
*PATCH 19Y08M05:  FROM SOURCE 6 TO RECORD 5 
*SOURCE FILE: 19Y08M05
005511  19Y08M05                         A6    C        17:50:45:12 17:50:45:12 01:24:08:17 01:24:08:17 
005511  19Y08M05                         A6    D    002 17:50:45:03 17:50:45:05 01:24:08:17 01:24:08:19 
*FROM CLIP NAME:  27K3/01.SYNC.01 
*TO CLIP NAME:  27K3/01.SYNC.01 
*PATCH 19Y08M05:  FROM SOURCE 8 TO RECORD 6 
*PATCH 19Y08M05:  FROM SOURCE 8 TO RECORD 6 
*SOURCE FILE: 19Y08M05
005512  MSMMMOB.44                       V     C        17:50:45:05 17:50:47:14 01:24:08:18 01:24:11:02 
M2      MSMMMOB.44                                025.0 17:50:45:05 
*FROM CLIP NAME:  A045C004_190805_R32C 
*SOURCE FILE: MSMMMOB.44
005513  19Y08M05                         A     C        17:50:45:05 17:50:47:12 01:24:08:19 01:24:11:01 
*FROM CLIP NAME:  27K3/01.SYNC.01 
*SOURCE FILE: 19Y08M05
005514  19Y08M05                         A2    C        17:50:45:05 17:50:47:12 01:24:08:19 01:24:11:01 
*FROM CLIP NAME:  27K3/01.SYNC.01 
*SOURCE FILE: 19Y08M05
005515  19Y08M05                         A3    C        17:50:45:05 17:50:47:12 01:24:08:19 01:24:11:01 
*FROM CLIP NAME:  27K3/01.SYNC.01 
*SOURCE FILE: 19Y08M05
005516  19Y08M05                         A4    C        17:50:45:05 17:50:47:12 01:24:08:19 01:24:11:01 
*FROM CLIP NAME:  27K3/01.SYNC.01 
*SOURCE FILE: 19Y08M05
005517  19Y08M05                         A5    C        17:50:45:05 17:50:47:12 01:24:08:19 01:24:11:01 
*FROM CLIP NAME:  27K3/01.SYNC.01 
*PATCH 19Y08M05:  FROM SOURCE 6 TO RECORD 5 
*SOURCE FILE: 19Y08M05
005518  19Y08M05                         A6    C        17:50:45:05 17:50:47:12 01:24:08:19 01:24:11:01 
*FROM CLIP NAME:  27K3/01.SYNC.01 
*PATCH 19Y08M05:  FROM SOURCE 8 TO RECORD 6 
*SOURCE FILE: 19Y08M05
005519  19Y08M05                         A     C        17:50:47:12 17:50:47:12 01:24:11:01 01:24:11:01 
005519  19Y08M05                         A     D    002 18:13:37:22 18:13:37:24 01:24:11:01 01:24:11:03 
*FROM CLIP NAME:  27K3/01.SYNC.01 
*TO CLIP NAME:  27K4/01.SYNC.01 
*SOURCE FILE: 19Y08M05
005520  19Y08M05                         A2    C        17:50:47:12 17:50:47:12 01:24:11:01 01:24:11:01 
005520  19Y08M05                         A2    D    002 18:13:37:22 18:13:37:24 01:24:11:01 01:24:11:03 
*FROM CLIP NAME:  27K3/01.SYNC.01 
*TO CLIP NAME:  27K4/01.SYNC.01 
*SOURCE FILE: 19Y08M05
005521  19Y08M05                         A3    C        17:50:47:12 17:50:47:12 01:24:11:01 01:24:11:01 
005521  19Y08M05                         A3    D    002 18:13:37:22 18:13:37:24 01:24:11:01 01:24:11:03 
*FROM CLIP NAME:  27K3/01.SYNC.01 
*TO CLIP NAME:  27K4/01.SYNC.01 
*SOURCE FILE: 19Y08M05
005522  19Y08M05                         A4    C        17:50:47:12 17:50:47:12 01:24:11:01 01:24:11:01 
005522  19Y08M05                         A4    D    002 18:13:37:22 18:13:37:24 01:24:11:01 01:24:11:03 
*FROM CLIP NAME:  27K3/01.SYNC.01 
*TO CLIP NAME:  27K4/01.SYNC.01 
*SOURCE FILE: 19Y08M05
005523  19Y08M05                         A5    C        17:50:47:12 17:50:47:12 01:24:11:01 01:24:11:01 
005523  19Y08M05                         A5    D    002 18:13:37:22 18:13:37:24 01:24:11:01 01:24:11:03 
*FROM CLIP NAME:  27K3/01.SYNC.01 
*TO CLIP NAME:  27K4/01.SYNC.01 
*PATCH 19Y08M05:  FROM SOURCE 6 TO RECORD 5 
*PATCH 19Y08M05:  FROM SOURCE 6 TO RECORD 5 
*SOURCE FILE: 19Y08M05
005524  19Y08M05                         A6    C        17:50:47:12 17:50:47:12 01:24:11:01 01:24:11:01 
005524  19Y08M05                         A6    D    002 18:13:37:22 18:13:37:24 01:24:11:01 01:24:11:03 
*FROM CLIP NAME:  27K3/01.SYNC.01 
*TO CLIP NAME:  27K4/01.SYNC.01 
*PATCH 19Y08M05:  FROM SOURCE 8 TO RECORD 6 
*PATCH 19Y08M05:  FROM SOURCE 8 TO RECORD 6 
*SOURCE FILE: 19Y08M05
005525  MSMMMOB.03                       V     C        18:13:37:24 18:13:39:24 01:24:11:02 01:24:13:02 
M2      MSMMMOB.03                                025.0 18:13:37:24 
*FROM CLIP NAME:  A045C005_190805_R32C 
*SOURCE FILE: MSMMMOB.03
005526  19Y08M05                         A     C        18:13:37:24 18:13:39:22 01:24:11:03 01:24:13:01 
*FROM CLIP NAME:  27K4/01.SYNC.01 
*SOURCE FILE: 19Y08M05
005527  19Y08M05                         A2    C        18:13:37:24 18:13:39:22 01:24:11:03 01:24:13:01 
*FROM CLIP NAME:  27K4/01.SYNC.01 
*SOURCE FILE: 19Y08M05
005528  19Y08M05                         A3    C        18:13:37:24 18:13:39:22 01:24:11:03 01:24:13:01 
*FROM CLIP NAME:  27K4/01.SYNC.01 
*SOURCE FILE: 19Y08M05
005529  19Y08M05                         A4    C        18:13:37:24 18:13:39:22 01:24:11:03 01:24:13:01 
*FROM CLIP NAME:  27K4/01.SYNC.01 
*SOURCE FILE: 19Y08M05
005530  19Y08M05                         A5    C        18:13:37:24 18:13:39:22 01:24:11:03 01:24:13:01 
*FROM CLIP NAME:  27K4/01.SYNC.01 
*PATCH 19Y08M05:  FROM SOURCE 6 TO RECORD 5 
*SOURCE FILE: 19Y08M05
005531  19Y08M05                         A6    C        18:13:37:24 18:13:39:22 01:24:11:03 01:24:13:01 
*FROM CLIP NAME:  27K4/01.SYNC.01 
*PATCH 19Y08M05:  FROM SOURCE 8 TO RECORD 6 
*SOURCE FILE: 19Y08M05
005532  19Y08M05                         A     C        18:13:39:22 18:13:39:22 01:24:13:01 01:24:13:01 
005532  19Y08M05                         A     D    002 17:50:48:19 17:50:48:21 01:24:13:01 01:24:13:03 
*FROM CLIP NAME:  27K4/01.SYNC.01 
*TO CLIP NAME:  27K3/01.SYNC.01 
*SOURCE FILE: 19Y08M05
005533  19Y08M05                         A2    C        18:13:39:22 18:13:39:22 01:24:13:01 01:24:13:01 
005533  19Y08M05                         A2    D    002 17:50:48:19 17:50:48:21 01:24:13:01 01:24:13:03 
*FROM CLIP NAME:  27K4/01.SYNC.01 
*TO CLIP NAME:  27K3/01.SYNC.01 
*SOURCE FILE: 19Y08M05
005534  19Y08M05                         A3    C        18:13:39:22 18:13:39:22 01:24:13:01 01:24:13:01 
005534  19Y08M05                         A3    D    002 17:50:48:19 17:50:48:21 01:24:13:01 01:24:13:03 
*FROM CLIP NAME:  27K4/01.SYNC.01 
*TO CLIP NAME:  27K3/01.SYNC.01 
*SOURCE FILE: 19Y08M05
005535  19Y08M05                         A4    C        18:13:39:22 18:13:39:22 01:24:13:01 01:24:13:01 
005535  19Y08M05                         A4    D    002 17:50:48:19 17:50:48:21 01:24:13:01 01:24:13:03 
*FROM CLIP NAME:  27K4/01.SYNC.01 
*TO CLIP NAME:  27K3/01.SYNC.01 
*SOURCE FILE: 19Y08M05
005536  19Y08M05                         A5    C        18:13:39:22 18:13:39:22 01:24:13:01 01:24:13:01 
005536  19Y08M05                         A5    D    002 17:50:48:19 17:50:48:21 01:24:13:01 01:24:13:03 
*FROM CLIP NAME:  27K4/01.SYNC.01 
*TO CLIP NAME:  27K3/01.SYNC.01 
*PATCH 19Y08M05:  FROM SOURCE 6 TO RECORD 5 
*PATCH 19Y08M05:  FROM SOURCE 6 TO RECORD 5 
*SOURCE FILE: 19Y08M05
005537  19Y08M05                         A6    C        18:13:39:22 18:13:39:22 01:24:13:01 01:24:13:01 
005537  19Y08M05                         A6    D    002 17:50:48:19 17:50:48:21 01:24:13:01 01:24:13:03 
*FROM CLIP NAME:  27K4/01.SYNC.01 
*TO CLIP NAME:  27K3/01.SYNC.01 
*PATCH 19Y08M05:  FROM SOURCE 8 TO RECORD 6 
*PATCH 19Y08M05:  FROM SOURCE 8 TO RECORD 6 
*SOURCE FILE: 19Y08M05
005538  MSMMMOB.44                       V     C        17:50:48:21 17:50:53:04 01:24:13:02 01:24:17:10 
M2      MSMMMOB.44                                025.0 17:50:48:21 
*FROM CLIP NAME:  A045C004_190805_R32C 
*SOURCE FILE: MSMMMOB.44
005539  19Y08M05                         A     C        17:50:48:21 17:50:53:02 01:24:13:03 01:24:17:09 
*FROM CLIP NAME:  27K3/01.SYNC.01 
*SOURCE FILE: 19Y08M05
005540  19Y08M05                         A2    C        17:50:48:21 17:50:53:02 01:24:13:03 01:24:17:09 
*FROM CLIP NAME:  27K3/01.SYNC.01 
*SOURCE FILE: 19Y08M05
005541  19Y08M05                         A3    C        17:50:48:21 17:50:53:02 01:24:13:03 01:24:17:09 
*FROM CLIP NAME:  27K3/01.SYNC.01 
*SOURCE FILE: 19Y08M05
005542  19Y08M05                         A4    C        17:50:48:21 17:50:53:02 01:24:13:03 01:24:17:09 
*FROM CLIP NAME:  27K3/01.SYNC.01 
*SOURCE FILE: 19Y08M05
005543  19Y08M05                         A5    C        17:50:48:21 17:50:53:02 01:24:13:03 01:24:17:09 
*FROM CLIP NAME:  27K3/01.SYNC.01 
*PATCH 19Y08M05:  FROM SOURCE 6 TO RECORD 5 
*SOURCE FILE: 19Y08M05
005544  19Y08M05                         A6    C        17:50:48:21 17:50:53:02 01:24:13:03 01:24:17:09 
*FROM CLIP NAME:  27K3/01.SYNC.01 
*PATCH 19Y08M05:  FROM SOURCE 8 TO RECORD 6 
*SOURCE FILE: 19Y08M05
005545  19Y08M05                         A     C        17:50:53:02 17:50:53:02 01:24:17:09 01:24:17:09 
005545  19Y08M05                         A     D    002 18:13:44:17 18:13:44:19 01:24:17:09 01:24:17:11 
*FROM CLIP NAME:  27K3/01.SYNC.01 
*TO CLIP NAME:  27K4/01.SYNC.01 
*SOURCE FILE: 19Y08M05
005546  19Y08M05                         A2    C        17:50:53:02 17:50:53:02 01:24:17:09 01:24:17:09 
005546  19Y08M05                         A2    D    002 18:13:44:17 18:13:44:19 01:24:17:09 01:24:17:11 
*FROM CLIP NAME:  27K3/01.SYNC.01 
*TO CLIP NAME:  27K4/01.SYNC.01 
*SOURCE FILE: 19Y08M05
005547  19Y08M05                         A3    C        17:50:53:02 17:50:53:02 01:24:17:09 01:24:17:09 
005547  19Y08M05                         A3    D    002 18:13:44:17 18:13:44:19 01:24:17:09 01:24:17:11 
*FROM CLIP NAME:  27K3/01.SYNC.01 
*TO CLIP NAME:  27K4/01.SYNC.01 
*SOURCE FILE: 19Y08M05
005548  19Y08M05                         A4    C        17:50:53:02 17:50:53:02 01:24:17:09 01:24:17:09 
005548  19Y08M05                         A4    D    002 18:13:44:17 18:13:44:19 01:24:17:09 01:24:17:11 
*FROM CLIP NAME:  27K3/01.SYNC.01 
*TO CLIP NAME:  27K4/01.SYNC.01 
*SOURCE FILE: 19Y08M05
005549  19Y08M05                         A5    C        17:50:53:02 17:50:53:02 01:24:17:09 01:24:17:09 
005549  19Y08M05                         A5    D    002 18:13:44:17 18:13:44:19 01:24:17:09 01:24:17:11 
*FROM CLIP NAME:  27K3/01.SYNC.01 
*TO CLIP NAME:  27K4/01.SYNC.01 
*PATCH 19Y08M05:  FROM SOURCE 6 TO RECORD 5 
*PATCH 19Y08M05:  FROM SOURCE 6 TO RECORD 5 
*SOURCE FILE: 19Y08M05
005550  19Y08M05                         A6    C        17:50:53:02 17:50:53:02 01:24:17:09 01:24:17:09 
005550  19Y08M05                         A6    D    002 18:13:44:17 18:13:44:19 01:24:17:09 01:24:17:11 
*FROM CLIP NAME:  27K3/01.SYNC.01 
*TO CLIP NAME:  27K4/01.SYNC.01 
*PATCH 19Y08M05:  FROM SOURCE 8 TO RECORD 6 
*PATCH 19Y08M05:  FROM SOURCE 8 TO RECORD 6 
*SOURCE FILE: 19Y08M05
005551  MSMMMOB.03                       V     C        18:13:44:19 18:13:49:04 01:24:17:10 01:24:21:20 
M2      MSMMMOB.03                                025.0 18:13:44:19 
*FROM CLIP NAME:  A045C005_190805_R32C 
*SOURCE FILE: MSMMMOB.03
005552  19Y08M05                         A     C        18:13:44:19 18:13:49:03 01:24:17:11 01:24:21:20 
*FROM CLIP NAME:  27K4/01.SYNC.01 
*SOURCE FILE: 19Y08M05
005553  19Y08M05                         A2    C        18:13:44:19 18:13:49:03 01:24:17:11 01:24:21:20 
*FROM CLIP NAME:  27K4/01.SYNC.01 
*SOURCE FILE: 19Y08M05
005554  19Y08M05                         A3    C        18:13:44:19 18:13:49:03 01:24:17:11 01:24:21:20 
*FROM CLIP NAME:  27K4/01.SYNC.01 
*SOURCE FILE: 19Y08M05
005555  19Y08M05                         A4    C        18:13:44:19 18:13:49:03 01:24:17:11 01:24:21:20 
*FROM CLIP NAME:  27K4/01.SYNC.01 
*SOURCE FILE: 19Y08M05
005556  19Y08M05                         A5    C        18:13:44:19 18:13:49:03 01:24:17:11 01:24:21:20 
*FROM CLIP NAME:  27K4/01.SYNC.01 
*PATCH 19Y08M05:  FROM SOURCE 6 TO RECORD 5 
*SOURCE FILE: 19Y08M05
005557  19Y08M05                         A6    C        18:13:44:19 18:13:49:03 01:24:17:11 01:24:21:20 
*FROM CLIP NAME:  27K4/01.SYNC.01 
*PATCH 19Y08M05:  FROM SOURCE 8 TO RECORD 6 
*SOURCE FILE: 19Y08M05
005558  19Y08M05                         A7    C        17:35:02:10 17:35:03:20 01:24:20:10 01:24:21:20 
*FROM CLIP NAME:  27K2/01.SYNC.01 
*PATCH 19Y08M05:  FROM SOURCE 1 TO RECORD 7 
*SOURCE FILE: 19Y08M05
005559  19Y08M05                         A8    C        17:35:02:10 17:35:03:20 01:24:20:10 01:24:21:20 
*FROM CLIP NAME:  27K2/01.SYNC.01 
*SOURCE FILE: 19Y08M05
005560  19Y08M05                         A9    C        17:35:02:10 17:35:03:20 01:24:20:10 01:24:21:20 
*FROM CLIP NAME:  27K2/01.SYNC.01 
*PATCH 19Y08M05:  FROM SOURCE 3 TO RECORD 9 
*SOURCE FILE: 19Y08M05
005561  19Y08M05                         A10   C        17:35:02:10 17:35:03:20 01:24:20:10 01:24:21:20 
*FROM CLIP NAME:  27K2/01.SYNC.01 
*PATCH 19Y08M05:  FROM SOURCE 2 TO RECORD 10 
*SOURCE FILE: 19Y08M05
005562  19Y08M05                         A11   C        17:35:02:10 17:35:03:20 01:24:20:10 01:24:21:20 
*FROM CLIP NAME:  27K2/01.SYNC.01 
*PATCH 19Y08M05:  FROM SOURCE 4 TO RECORD 11 
*SOURCE FILE: 19Y08M05
005563  19Y08M05                         A12   C        17:35:02:10 17:35:03:20 01:24:20:10 01:24:21:20 
*FROM CLIP NAME:  27K2/01.SYNC.01 
*PATCH 19Y08M05:  FROM SOURCE 6 TO RECORD 12 
*SOURCE FILE: 19Y08M05
005564  19Y08M05                         A     C        17:35:03:20 17:35:05:14 01:24:21:20 01:24:23:14 
*FROM CLIP NAME:  27K2/01.SYNC.01 
*SOURCE FILE: 19Y08M05
005565  19Y08M05                         A2    C        17:35:03:20 17:35:05:14 01:24:21:20 01:24:23:14 
*FROM CLIP NAME:  27K2/01.SYNC.01 
*SOURCE FILE: 19Y08M05
005566  19Y08M05                         A3    C        17:35:03:20 17:35:05:14 01:24:21:20 01:24:23:14 
*FROM CLIP NAME:  27K2/01.SYNC.01 
*SOURCE FILE: 19Y08M05
005567  19Y08M05                         A4    C        17:35:03:20 17:35:05:14 01:24:21:20 01:24:23:14 
*FROM CLIP NAME:  27K2/01.SYNC.01 
*SOURCE FILE: 19Y08M05
005568  19Y08M05                         A5    C        17:35:03:20 17:35:05:14 01:24:21:20 01:24:23:14 
*FROM CLIP NAME:  27K2/01.SYNC.01 
*PATCH 19Y08M05:  FROM SOURCE 6 TO RECORD 5 
*SOURCE FILE: 19Y08M05
005569  19Y08M05                         A6    C        17:35:03:20 17:35:05:14 01:24:21:20 01:24:23:14 
*FROM CLIP NAME:  27K2/01.SYNC.01 
*PATCH 19Y08M05:  FROM SOURCE 8 TO RECORD 6 
*SOURCE FILE: 19Y08M05
005570  MSMMMOB.02                       V     C        17:35:03:21 17:35:06:14 01:24:21:20 01:24:24:13 
M2      MSMMMOB.02                                025.0 17:35:03:21 
*FROM CLIP NAME:  A045C001_190805_R32C 
*SOURCE FILE: MSMMMOB.02
005571  19Y08M05                         A     C        17:35:05:14 17:35:05:14 01:24:23:14 01:24:23:14 
005571  19Y08M05                         A     D    002 18:24:34:11 18:24:34:13 01:24:23:14 01:24:23:16 
*FROM CLIP NAME:  27K2/01.SYNC.01 
*TO CLIP NAME:  27K5/01.SYNC.01 
*SOURCE FILE: 19Y08M05
005572  19Y08M05                         A2    C        17:35:05:14 17:35:05:14 01:24:23:14 01:24:23:14 
005572  19Y08M05                         A2    D    002 18:24:34:11 18:24:34:13 01:24:23:14 01:24:23:16 
*FROM CLIP NAME:  27K2/01.SYNC.01 
*TO CLIP NAME:  27K5/01.SYNC.01 
*SOURCE FILE: 19Y08M05
005573  19Y08M05                         A3    C        17:35:05:14 17:35:05:14 01:24:23:14 01:24:23:14 
005573  19Y08M05                         A3    D    002 18:24:34:11 18:24:34:13 01:24:23:14 01:24:23:16 
*FROM CLIP NAME:  27K2/01.SYNC.01 
*TO CLIP NAME:  27K5/01.SYNC.01 
*SOURCE FILE: 19Y08M05
005574  19Y08M05                         A4    C        17:35:05:14 17:35:05:14 01:24:23:14 01:24:23:14 
005574  19Y08M05                         A4    D    002 18:24:34:11 18:24:34:13 01:24:23:14 01:24:23:16 
*FROM CLIP NAME:  27K2/01.SYNC.01 
*TO CLIP NAME:  27K5/01.SYNC.01 
*SOURCE FILE: 19Y08M05
005575  19Y08M05                         A5    C        17:35:05:14 17:35:05:14 01:24:23:14 01:24:23:14 
005575  19Y08M05                         A5    D    002 18:24:34:11 18:24:34:13 01:24:23:14 01:24:23:16 
*FROM CLIP NAME:  27K2/01.SYNC.01 
*TO CLIP NAME:  27K5/01.SYNC.01 
*PATCH 19Y08M05:  FROM SOURCE 6 TO RECORD 5 
*PATCH 19Y08M05:  FROM SOURCE 6 TO RECORD 5 
*SOURCE FILE: 19Y08M05
005576  19Y08M05                         A6    C        17:35:05:14 17:35:05:14 01:24:23:14 01:24:23:14 
005576  19Y08M05                         A6    D    002 18:24:34:11 18:24:34:13 01:24:23:14 01:24:23:16 
*FROM CLIP NAME:  27K2/01.SYNC.01 
*TO CLIP NAME:  27K5/01.SYNC.01 
*PATCH 19Y08M05:  FROM SOURCE 8 TO RECORD 6 
*PATCH 19Y08M05:  FROM SOURCE 8 TO RECORD 6 
*SOURCE FILE: 19Y08M05
005577  19Y08M05                         A     C        18:24:34:13 18:24:34:17 01:24:23:16 01:24:23:20 
*FROM CLIP NAME:  27K5/01.SYNC.01 
*SOURCE FILE: 19Y08M05
005578  19Y08M05                         A2    C        18:24:34:13 18:24:34:17 01:24:23:16 01:24:23:20 
*FROM CLIP NAME:  27K5/01.SYNC.01 
*SOURCE FILE: 19Y08M05
005579  19Y08M05                         A3    C        18:24:34:13 18:24:34:17 01:24:23:16 01:24:23:20 
*FROM CLIP NAME:  27K5/01.SYNC.01 
*SOURCE FILE: 19Y08M05
005580  19Y08M05                         A4    C        18:24:34:13 18:24:34:17 01:24:23:16 01:24:23:20 
*FROM CLIP NAME:  27K5/01.SYNC.01 
*SOURCE FILE: 19Y08M05
005581  19Y08M05                         A5    C        18:24:34:13 18:24:34:17 01:24:23:16 01:24:23:20 
*FROM CLIP NAME:  27K5/01.SYNC.01 
*PATCH 19Y08M05:  FROM SOURCE 6 TO RECORD 5 
*SOURCE FILE: 19Y08M05
005582  19Y08M05                         A6    C        18:24:34:13 18:24:34:17 01:24:23:16 01:24:23:20 
*FROM CLIP NAME:  27K5/01.SYNC.01 
*PATCH 19Y08M05:  FROM SOURCE 8 TO RECORD 6 
*SOURCE FILE: 19Y08M05
005583  19Y08M05                         A     C        18:24:32:07 18:24:33:00 01:24:23:20 01:24:24:13 
*FROM CLIP NAME:  27K5/01.SYNC.01 
*SOURCE FILE: 19Y08M05
005584  19Y08M05                         A2    C        18:24:32:07 18:24:33:00 01:24:23:20 01:24:24:13 
*FROM CLIP NAME:  27K5/01.SYNC.01 
*SOURCE FILE: 19Y08M05
005585  19Y08M05                         A3    C        18:24:32:07 18:24:33:00 01:24:23:20 01:24:24:13 
*FROM CLIP NAME:  27K5/01.SYNC.01 
*SOURCE FILE: 19Y08M05
005586  19Y08M05                         A4    C        18:24:32:07 18:24:33:00 01:24:23:20 01:24:24:13 
*FROM CLIP NAME:  27K5/01.SYNC.01 
*SOURCE FILE: 19Y08M05
005587  19Y08M05                         A5    C        18:24:32:07 18:24:33:00 01:24:23:20 01:24:24:13 
*FROM CLIP NAME:  27K5/01.SYNC.01 
*PATCH 19Y08M05:  FROM SOURCE 6 TO RECORD 5 
*SOURCE FILE: 19Y08M05
005588  19Y08M05                         A6    C        18:24:32:07 18:24:33:00 01:24:23:20 01:24:24:13 
*FROM CLIP NAME:  27K5/01.SYNC.01 
*PATCH 19Y08M05:  FROM SOURCE 8 TO RECORD 6 
*SOURCE FILE: 19Y08M05
005589  19Y08M05                         A     C        18:24:33:02 18:24:33:08 01:24:24:13 01:24:24:19 
*FROM CLIP NAME:  27K5/01.SYNC.01 
*SOURCE FILE: 19Y08M05
005590  19Y08M05                         A2    C        18:24:33:02 18:24:33:08 01:24:24:13 01:24:24:19 
*FROM CLIP NAME:  27K5/01.SYNC.01 
*SOURCE FILE: 19Y08M05
005591  19Y08M05                         A3    C        18:24:33:02 18:24:33:08 01:24:24:13 01:24:24:19 
*FROM CLIP NAME:  27K5/01.SYNC.01 
*SOURCE FILE: 19Y08M05
005592  19Y08M05                         A4    C        18:24:33:02 18:24:33:08 01:24:24:13 01:24:24:19 
*FROM CLIP NAME:  27K5/01.SYNC.01 
*SOURCE FILE: 19Y08M05
005593  19Y08M05                         A5    C        18:24:33:02 18:24:33:08 01:24:24:13 01:24:24:19 
*FROM CLIP NAME:  27K5/01.SYNC.01 
*PATCH 19Y08M05:  FROM SOURCE 6 TO RECORD 5 
*SOURCE FILE: 19Y08M05
005594  19Y08M05                         A6    C        18:24:33:02 18:24:33:08 01:24:24:13 01:24:24:19 
*FROM CLIP NAME:  27K5/01.SYNC.01 
*PATCH 19Y08M05:  FROM SOURCE 8 TO RECORD 6 
*SOURCE FILE: 19Y08M05
005595  MSMMMOB.03                       V     C        18:14:23:06 18:14:25:23 01:24:24:13 01:24:27:05 
M2      MSMMMOB.03                                025.0 18:14:23:06 
*FROM CLIP NAME:  A045C005_190805_R32C 
*SOURCE FILE: MSMMMOB.03
005596  19Y08M05                         A     C        18:36:10:20 18:36:11:09 01:24:24:19 01:24:25:08 
*FROM CLIP NAME:  27K6/01.SYNC.01 
*SOURCE FILE: 19Y08M05
005597  19Y08M05                         A2    C        18:36:10:20 18:36:11:09 01:24:24:19 01:24:25:08 
*FROM CLIP NAME:  27K6/01.SYNC.01 
*SOURCE FILE: 19Y08M05
005598  19Y08M05                         A3    C        18:36:10:20 18:36:11:09 01:24:24:19 01:24:25:08 
*FROM CLIP NAME:  27K6/01.SYNC.01 
*SOURCE FILE: 19Y08M05
005599  19Y08M05                         A4    C        18:36:10:20 18:36:11:09 01:24:24:19 01:24:25:08 
*FROM CLIP NAME:  27K6/01.SYNC.01 
*SOURCE FILE: 19Y08M05
005600  19Y08M05                         A5    C        18:36:10:20 18:36:11:09 01:24:24:19 01:24:25:08 
*FROM CLIP NAME:  27K6/01.SYNC.01 
*PATCH 19Y08M05:  FROM SOURCE 6 TO RECORD 5 
*SOURCE FILE: 19Y08M05
005601  19Y08M05                         A6    C        18:36:10:20 18:36:11:09 01:24:24:19 01:24:25:08 
*FROM CLIP NAME:  27K6/01.SYNC.01 
*PATCH 19Y08M05:  FROM SOURCE 8 TO RECORD 6 
*SOURCE FILE: 19Y08M05
005602  19Y08M05                         A     C        18:14:24:00 18:14:26:03 01:24:25:08 01:24:27:11 
*FROM CLIP NAME:  27K4/01.SYNC.01 
*SOURCE FILE: 19Y08M05
005603  19Y08M05                         A2    C        18:14:24:00 18:14:26:03 01:24:25:08 01:24:27:11 
*FROM CLIP NAME:  27K4/01.SYNC.01 
*SOURCE FILE: 19Y08M05
005604  19Y08M05                         A3    C        18:14:24:00 18:14:26:03 01:24:25:08 01:24:27:11 
*FROM CLIP NAME:  27K4/01.SYNC.01 
*SOURCE FILE: 19Y08M05
005605  19Y08M05                         A4    C        18:14:24:00 18:14:26:03 01:24:25:08 01:24:27:11 
*FROM CLIP NAME:  27K4/01.SYNC.01 
*SOURCE FILE: 19Y08M05
005606  19Y08M05                         A5    C        18:14:24:00 18:14:26:03 01:24:25:08 01:24:27:11 
*FROM CLIP NAME:  27K4/01.SYNC.01 
*PATCH 19Y08M05:  FROM SOURCE 6 TO RECORD 5 
*SOURCE FILE: 19Y08M05
005607  19Y08M05                         A6    C        18:14:24:00 18:14:26:03 01:24:25:08 01:24:27:11 
*FROM CLIP NAME:  27K4/01.SYNC.01 
*PATCH 19Y08M05:  FROM SOURCE 8 TO RECORD 6 
*SOURCE FILE: 19Y08M05
005608  MSMMMOB.44                       V     C        17:51:30:24 17:51:34:16 01:24:27:05 01:24:30:22 
M2      MSMMMOB.44                                025.0 17:51:30:24 
*FROM CLIP NAME:  A045C004_190805_R32C 
*SOURCE FILE: MSMMMOB.44
005609  19Y08M05                         A     C        17:51:31:04 17:51:34:02 01:24:27:11 01:24:30:09 
*FROM CLIP NAME:  27K3/01.SYNC.01 
*SOURCE FILE: 19Y08M05
005610  19Y08M05                         A2    C        17:51:31:04 17:51:34:02 01:24:27:11 01:24:30:09 
*FROM CLIP NAME:  27K3/01.SYNC.01 
*PATCH 19Y08M05:  FROM SOURCE 8 TO RECORD 2 
*SOURCE FILE: 19Y08M05
005611  19Y08M05                         A3    C        17:51:31:04 17:51:34:02 01:24:27:11 01:24:30:09 
*FROM CLIP NAME:  27K3/01.SYNC.01 
*SOURCE FILE: 19Y08M05
005612  19Y08M05                         A4    C        17:51:31:04 17:51:34:02 01:24:27:11 01:24:30:09 
*FROM CLIP NAME:  27K3/01.SYNC.01 
*PATCH 19Y08M05:  FROM SOURCE 2 TO RECORD 4 
*SOURCE FILE: 19Y08M05
005613  19Y08M05                         A5    C        17:51:31:04 17:51:34:02 01:24:27:11 01:24:30:09 
*FROM CLIP NAME:  27K3/01.SYNC.01 
*PATCH 19Y08M05:  FROM SOURCE 4 TO RECORD 5 
*SOURCE FILE: 19Y08M05
005614  19Y08M05                         A6    C        17:51:31:04 17:51:34:02 01:24:27:11 01:24:30:09 
*FROM CLIP NAME:  27K3/01.SYNC.01 
*SOURCE FILE: 19Y08M05
005615  19Y08M05                         A7    C        18:27:20:04 18:27:22:06 01:24:27:24 01:24:30:01 
*FROM CLIP NAME:  27K5/02.SYNC.01 
*PATCH 19Y08M05:  FROM SOURCE 1 TO RECORD 7 
*SOURCE FILE: 19Y08M05
005616  19Y08M05                         A8    C        18:27:20:04 18:27:22:06 01:24:27:24 01:24:30:01 
*FROM CLIP NAME:  27K5/02.SYNC.01 
*SOURCE FILE: 19Y08M05
005617  19Y08M05                         A9    C        18:27:20:04 18:27:22:06 01:24:27:24 01:24:30:01 
*FROM CLIP NAME:  27K5/02.SYNC.01 
*PATCH 19Y08M05:  FROM SOURCE 3 TO RECORD 9 
*SOURCE FILE: 19Y08M05
005618  19Y08M05                         A10   C        18:27:20:04 18:27:22:06 01:24:27:24 01:24:30:01 
*FROM CLIP NAME:  27K5/02.SYNC.01 
*PATCH 19Y08M05:  FROM SOURCE 2 TO RECORD 10 
*SOURCE FILE: 19Y08M05
005619  19Y08M05                         A11   C        18:27:20:04 18:27:22:06 01:24:27:24 01:24:30:01 
*FROM CLIP NAME:  27K5/02.SYNC.01 
*PATCH 19Y08M05:  FROM SOURCE 4 TO RECORD 11 
*SOURCE FILE: 19Y08M05
005620  19Y08M05                         A12   C        18:27:20:04 18:27:22:06 01:24:27:24 01:24:30:01 
*FROM CLIP NAME:  27K5/02.SYNC.01 
*PATCH 19Y08M05:  FROM SOURCE 6 TO RECORD 12 
*SOURCE FILE: 19Y08M05
005621  19Y08M05                         A     C        18:13:49:12 18:13:56:19 01:24:30:09 01:24:37:16 
*FROM CLIP NAME:  27K4/01.SYNC.01 
*SOURCE FILE: 19Y08M05
005622  19Y08M05                         A2    C        18:13:49:12 18:13:56:19 01:24:30:09 01:24:37:16 
*FROM CLIP NAME:  27K4/01.SYNC.01 
*SOURCE FILE: 19Y08M05
005623  19Y08M05                         A3    C        18:13:49:12 18:13:56:19 01:24:30:09 01:24:37:16 
*FROM CLIP NAME:  27K4/01.SYNC.01 
*SOURCE FILE: 19Y08M05
005624  19Y08M05                         A4    C        18:13:49:12 18:13:56:19 01:24:30:09 01:24:37:16 
*FROM CLIP NAME:  27K4/01.SYNC.01 
*SOURCE FILE: 19Y08M05
005625  19Y08M05                         A5    C        18:13:49:12 18:13:56:19 01:24:30:09 01:24:37:16 
*FROM CLIP NAME:  27K4/01.SYNC.01 
*PATCH 19Y08M05:  FROM SOURCE 6 TO RECORD 5 
*SOURCE FILE: 19Y08M05
005626  19Y08M05                         A6    C        18:13:49:12 18:13:56:19 01:24:30:09 01:24:37:16 
*FROM CLIP NAME:  27K4/01.SYNC.01 
*PATCH 19Y08M05:  FROM SOURCE 8 TO RECORD 6 
*SOURCE FILE: 19Y08M05
005627  MSMMMOB.03                       V     C        18:13:50:01 18:13:56:20 01:24:30:22 01:24:37:16 
M2      MSMMMOB.03                                025.0 18:13:50:01 
*FROM CLIP NAME:  A045C005_190805_R32C 
*SOURCE FILE: MSMMMOB.03
005628  19Y08M05                         A     C        18:13:56:19 18:13:56:19 01:24:37:16 01:24:37:16 
005628  19Y08M05                         A     D    002 17:51:02:11 17:51:02:13 01:24:37:16 01:24:37:18 
*FROM CLIP NAME:  27K4/01.SYNC.01 
*TO CLIP NAME:  27K3/01.SYNC.01 
*SOURCE FILE: 19Y08M05
005629  19Y08M05                         A2    C        18:13:56:19 18:13:56:19 01:24:37:16 01:24:37:16 
005629  19Y08M05                         A2    D    002 17:51:02:11 17:51:02:13 01:24:37:16 01:24:37:18 
*FROM CLIP NAME:  27K4/01.SYNC.01 
*TO CLIP NAME:  27K3/01.SYNC.01 
*SOURCE FILE: 19Y08M05
005630  19Y08M05                         A3    C        18:13:56:19 18:13:56:19 01:24:37:16 01:24:37:16 
005630  19Y08M05                         A3    D    002 17:51:02:11 17:51:02:13 01:24:37:16 01:24:37:18 
*FROM CLIP NAME:  27K4/01.SYNC.01 
*TO CLIP NAME:  27K3/01.SYNC.01 
*SOURCE FILE: 19Y08M05
005631  19Y08M05                         A4    C        18:13:56:19 18:13:56:19 01:24:37:16 01:24:37:16 
005631  19Y08M05                         A4    D    002 17:51:02:11 17:51:02:13 01:24:37:16 01:24:37:18 
*FROM CLIP NAME:  27K4/01.SYNC.01 
*TO CLIP NAME:  27K3/01.SYNC.01 
*SOURCE FILE: 19Y08M05
005632  19Y08M05                         A5    C        18:13:56:19 18:13:56:19 01:24:37:16 01:24:37:16 
005632  19Y08M05                         A5    D    002 17:51:02:11 17:51:02:13 01:24:37:16 01:24:37:18 
*FROM CLIP NAME:  27K4/01.SYNC.01 
*TO CLIP NAME:  27K3/01.SYNC.01 
*PATCH 19Y08M05:  FROM SOURCE 6 TO RECORD 5 
*PATCH 19Y08M05:  FROM SOURCE 6 TO RECORD 5 
*SOURCE FILE: 19Y08M05
005633  19Y08M05                         A6    C        18:13:56:19 18:13:56:19 01:24:37:16 01:24:37:16 
005633  19Y08M05                         A6    D    002 17:51:02:11 17:51:02:13 01:24:37:16 01:24:37:18 
*FROM CLIP NAME:  27K4/01.SYNC.01 
*TO CLIP NAME:  27K3/01.SYNC.01 
*PATCH 19Y08M05:  FROM SOURCE 8 TO RECORD 6 
*PATCH 19Y08M05:  FROM SOURCE 8 TO RECORD 6 
*SOURCE FILE: 19Y08M05
005634  MSMMMOB.44                       V     C        17:51:02:12 17:51:04:10 01:24:37:16 01:24:39:14 
M2      MSMMMOB.44                                025.0 17:51:02:12 
*FROM CLIP NAME:  A045C004_190805_R32C 
*SOURCE FILE: MSMMMOB.44
005635  19Y08M05                         A     C        17:51:02:13 17:51:04:15 01:24:37:18 01:24:39:20 
*FROM CLIP NAME:  27K3/01.SYNC.01 
*SOURCE FILE: 19Y08M05
005636  19Y08M05                         A2    C        17:51:02:13 17:51:04:15 01:24:37:18 01:24:39:20 
*FROM CLIP NAME:  27K3/01.SYNC.01 
*SOURCE FILE: 19Y08M05
005637  19Y08M05                         A3    C        17:51:02:13 17:51:04:15 01:24:37:18 01:24:39:20 
*FROM CLIP NAME:  27K3/01.SYNC.01 
*SOURCE FILE: 19Y08M05
005638  19Y08M05                         A4    C        17:51:02:13 17:51:04:15 01:24:37:18 01:24:39:20 
*FROM CLIP NAME:  27K3/01.SYNC.01 
*SOURCE FILE: 19Y08M05
005639  19Y08M05                         A5    C        17:51:02:13 17:51:04:15 01:24:37:18 01:24:39:20 
*FROM CLIP NAME:  27K3/01.SYNC.01 
*PATCH 19Y08M05:  FROM SOURCE 6 TO RECORD 5 
*SOURCE FILE: 19Y08M05
005640  19Y08M05                         A6    C        17:51:02:13 17:51:04:15 01:24:37:18 01:24:39:20 
*FROM CLIP NAME:  27K3/01.SYNC.01 
*PATCH 19Y08M05:  FROM SOURCE 8 TO RECORD 6 
*SOURCE FILE: 19Y08M05
005641  MSMMMOB.03                       V     C        18:13:58:09 18:14:00:16 01:24:39:14 01:24:41:21 
M2      MSMMMOB.03                                025.0 18:13:58:09 
*FROM CLIP NAME:  A045C005_190805_R32C 
*SOURCE FILE: MSMMMOB.03
005642  19Y08M05                         A     C        18:13:58:14 18:14:00:15 01:24:39:20 01:24:41:21 
*FROM CLIP NAME:  27K4/01.SYNC.01 
*SOURCE FILE: 19Y08M05
005643  19Y08M05                         A2    C        18:13:58:14 18:14:00:15 01:24:39:20 01:24:41:21 
*FROM CLIP NAME:  27K4/01.SYNC.01 
*SOURCE FILE: 19Y08M05
005644  19Y08M05                         A3    C        18:13:58:14 18:14:00:15 01:24:39:20 01:24:41:21 
*FROM CLIP NAME:  27K4/01.SYNC.01 
*SOURCE FILE: 19Y08M05
005645  19Y08M05                         A4    C        18:13:58:14 18:14:00:15 01:24:39:20 01:24:41:21 
*FROM CLIP NAME:  27K4/01.SYNC.01 
*SOURCE FILE: 19Y08M05
005646  19Y08M05                         A5    C        18:13:58:14 18:14:00:15 01:24:39:20 01:24:41:21 
*FROM CLIP NAME:  27K4/01.SYNC.01 
*PATCH 19Y08M05:  FROM SOURCE 6 TO RECORD 5 
*SOURCE FILE: 19Y08M05
005647  19Y08M05                         A6    C        18:13:58:14 18:14:00:15 01:24:39:20 01:24:41:21 
*FROM CLIP NAME:  27K4/01.SYNC.01 
*PATCH 19Y08M05:  FROM SOURCE 8 TO RECORD 6 
*SOURCE FILE: 19Y08M05
005648  19Y08M05                         A     C        17:51:06:11 17:51:07:07 01:24:41:21 01:24:42:17 
*FROM CLIP NAME:  27K3/01.SYNC.01 
*SOURCE FILE: 19Y08M05
005649  19Y08M05                         A2    C        17:51:06:11 17:51:07:07 01:24:41:21 01:24:42:17 
*FROM CLIP NAME:  27K3/01.SYNC.01 
*SOURCE FILE: 19Y08M05
005650  19Y08M05                         A3    C        17:51:06:11 17:51:07:07 01:24:41:21 01:24:42:17 
*FROM CLIP NAME:  27K3/01.SYNC.01 
*SOURCE FILE: 19Y08M05
005651  19Y08M05                         A4    C        17:51:06:11 17:51:07:07 01:24:41:21 01:24:42:17 
*FROM CLIP NAME:  27K3/01.SYNC.01 
*SOURCE FILE: 19Y08M05
005652  19Y08M05                         A5    C        17:51:06:11 17:51:07:07 01:24:41:21 01:24:42:17 
*FROM CLIP NAME:  27K3/01.SYNC.01 
*PATCH 19Y08M05:  FROM SOURCE 6 TO RECORD 5 
*SOURCE FILE: 19Y08M05
005653  19Y08M05                         A6    C        17:51:06:11 17:51:07:07 01:24:41:21 01:24:42:17 
*FROM CLIP NAME:  27K3/01.SYNC.01 
*PATCH 19Y08M05:  FROM SOURCE 8 TO RECORD 6 
*SOURCE FILE: 19Y08M05
005654  MSMMMOB.44                       V     C        17:51:06:12 17:51:07:15 01:24:41:21 01:24:42:24 
M2      MSMMMOB.44                                025.0 17:51:06:12 
*FROM CLIP NAME:  A045C004_190805_R32C 
*SOURCE FILE: MSMMMOB.44
005655  19Y08M05                         A     C        17:37:25:20 17:37:28:14 01:24:42:17 01:24:45:11 
*FROM CLIP NAME:  27K2/02.SYNC.01 
*SOURCE FILE: 19Y08M05
005656  19Y08M05                         A2    C        17:37:25:20 17:37:28:14 01:24:42:17 01:24:45:11 
*FROM CLIP NAME:  27K2/02.SYNC.01 
*SOURCE FILE: 19Y08M05
005657  19Y08M05                         A3    C        17:37:25:20 17:37:28:14 01:24:42:17 01:24:45:11 
*FROM CLIP NAME:  27K2/02.SYNC.01 
*SOURCE FILE: 19Y08M05
005658  19Y08M05                         A4    C        17:37:25:20 17:37:28:14 01:24:42:17 01:24:45:11 
*FROM CLIP NAME:  27K2/02.SYNC.01 
*SOURCE FILE: 19Y08M05
005659  19Y08M05                         A5    C        17:37:25:20 17:37:28:14 01:24:42:17 01:24:45:11 
*FROM CLIP NAME:  27K2/02.SYNC.01 
*PATCH 19Y08M05:  FROM SOURCE 6 TO RECORD 5 
*SOURCE FILE: 19Y08M05
005660  19Y08M05                         A6    C        17:37:25:20 17:37:28:14 01:24:42:17 01:24:45:11 
*FROM CLIP NAME:  27K2/02.SYNC.01 
*PATCH 19Y08M05:  FROM SOURCE 8 TO RECORD 6 
*SOURCE FILE: 19Y08M05
005661  MSMMMOB.35                       V     C        17:37:26:03 17:37:29:08 01:24:42:24 01:24:46:04 
M2      MSMMMOB.35                                025.0 17:37:26:03 
*FROM CLIP NAME:  A045C002_190805_R32C 
*SOURCE FILE: MSMMMOB.35
005662  19Y08M05                         A     C        17:37:28:14 17:37:29:21 01:24:45:11 01:24:46:18 
*FROM CLIP NAME:  27K2/02.SYNC.01 
*SOURCE FILE: 19Y08M05
005663  19Y08M05                         A2    C        17:37:28:14 17:37:29:21 01:24:45:11 01:24:46:18 
*FROM CLIP NAME:  27K2/02.SYNC.01 
*SOURCE FILE: 19Y08M05
005664  19Y08M05                         A3    C        17:37:28:14 17:37:29:21 01:24:45:11 01:24:46:18 
*FROM CLIP NAME:  27K2/02.SYNC.01 
*SOURCE FILE: 19Y08M05
005665  19Y08M05                         A4    C        17:37:28:14 17:37:29:21 01:24:45:11 01:24:46:18 
*FROM CLIP NAME:  27K2/02.SYNC.01 
*SOURCE FILE: 19Y08M05
005666  19Y08M05                         A5    C        17:37:28:14 17:37:29:21 01:24:45:11 01:24:46:18 
*FROM CLIP NAME:  27K2/02.SYNC.01 
*PATCH 19Y08M05:  FROM SOURCE 6 TO RECORD 5 
*SOURCE FILE: 19Y08M05
005667  19Y08M05                         A6    C        17:37:28:14 17:37:29:21 01:24:45:11 01:24:46:18 
*FROM CLIP NAME:  27K2/02.SYNC.01 
*PATCH 19Y08M05:  FROM SOURCE 8 TO RECORD 6 
*SOURCE FILE: 19Y08M05
005668  MSMMMOB.03                       V     C        18:14:05:09 18:14:07:13 01:24:46:04 01:24:48:08 
M2      MSMMMOB.03                                025.0 18:14:05:09 
*FROM CLIP NAME:  A045C005_190805_R32C 
*SOURCE FILE: MSMMMOB.03
005669  19Y08M05                         A     C        18:14:05:22 18:14:07:15 01:24:46:18 01:24:48:11 
*FROM CLIP NAME:  27K4/01.SYNC.01 
*SOURCE FILE: 19Y08M05
005670  19Y08M05                         A2    C        18:14:05:22 18:14:07:15 01:24:46:18 01:24:48:11 
*FROM CLIP NAME:  27K4/01.SYNC.01 
*SOURCE FILE: 19Y08M05
005671  19Y08M05                         A3    C        18:14:05:22 18:14:07:15 01:24:46:18 01:24:48:11 
*FROM CLIP NAME:  27K4/01.SYNC.01 
*SOURCE FILE: 19Y08M05
005672  19Y08M05                         A4    C        18:14:05:22 18:14:07:15 01:24:46:18 01:24:48:11 
*FROM CLIP NAME:  27K4/01.SYNC.01 
*SOURCE FILE: 19Y08M05
005673  19Y08M05                         A5    C        18:14:05:22 18:14:07:15 01:24:46:18 01:24:48:11 
*FROM CLIP NAME:  27K4/01.SYNC.01 
*PATCH 19Y08M05:  FROM SOURCE 6 TO RECORD 5 
*SOURCE FILE: 19Y08M05
005674  19Y08M05                         A6    C        18:14:05:22 18:14:07:15 01:24:46:18 01:24:48:11 
*FROM CLIP NAME:  27K4/01.SYNC.01 
*PATCH 19Y08M05:  FROM SOURCE 8 TO RECORD 6 
*SOURCE FILE: 19Y08M05
005675  MSMMMOB.35                       V     C        17:37:31:19 17:37:35:24 01:24:48:08 01:24:52:13 
M2      MSMMMOB.35                                025.0 17:37:31:19 
*FROM CLIP NAME:  A045C002_190805_R32C 
*SOURCE FILE: MSMMMOB.35
005676  19Y08M05                         A     C        17:37:31:21 17:37:36:01 01:24:48:11 01:24:52:16 
*FROM CLIP NAME:  27K2/02.SYNC.01 
*SOURCE FILE: 19Y08M05
005677  19Y08M05                         A2    C        17:37:31:21 17:37:36:01 01:24:48:11 01:24:52:16 
*FROM CLIP NAME:  27K2/02.SYNC.01 
*SOURCE FILE: 19Y08M05
005678  19Y08M05                         A3    C        17:37:31:21 17:37:36:01 01:24:48:11 01:24:52:16 
*FROM CLIP NAME:  27K2/02.SYNC.01 
*SOURCE FILE: 19Y08M05
005679  19Y08M05                         A4    C        17:37:31:21 17:37:36:01 01:24:48:11 01:24:52:16 
*FROM CLIP NAME:  27K2/02.SYNC.01 
*SOURCE FILE: 19Y08M05
005680  19Y08M05                         A5    C        17:37:31:21 17:37:36:01 01:24:48:11 01:24:52:16 
*FROM CLIP NAME:  27K2/02.SYNC.01 
*PATCH 19Y08M05:  FROM SOURCE 6 TO RECORD 5 
*SOURCE FILE: 19Y08M05
005681  19Y08M05                         A6    C        17:37:31:21 17:37:36:01 01:24:48:11 01:24:52:16 
*FROM CLIP NAME:  27K2/02.SYNC.01 
*PATCH 19Y08M05:  FROM SOURCE 8 TO RECORD 6 
*SOURCE FILE: 19Y08M05
005682  MSMMMOB.03                       V     C        18:14:10:10 18:14:13:02 01:24:52:13 01:24:55:05 
M2      MSMMMOB.03                                025.0 18:14:10:10 
*FROM CLIP NAME:  A045C005_190805_R32C 
*SOURCE FILE: MSMMMOB.03
005683  19Y08M05                         A     C        17:37:36:14 17:37:37:02 01:24:52:16 01:24:53:04 
*FROM CLIP NAME:  27K2/02.SYNC.01 
*SOURCE FILE: 19Y08M05
005684  19Y08M05                         A2    C        17:37:36:14 17:37:37:02 01:24:52:16 01:24:53:04 
*FROM CLIP NAME:  27K2/02.SYNC.01 
*SOURCE FILE: 19Y08M05
005685  19Y08M05                         A3    C        17:37:36:14 17:37:37:02 01:24:52:16 01:24:53:04 
*FROM CLIP NAME:  27K2/02.SYNC.01 
*SOURCE FILE: 19Y08M05
005686  19Y08M05                         A4    C        17:37:36:14 17:37:37:02 01:24:52:16 01:24:53:04 
*FROM CLIP NAME:  27K2/02.SYNC.01 
*SOURCE FILE: 19Y08M05
005687  19Y08M05                         A5    C        17:37:36:14 17:37:37:02 01:24:52:16 01:24:53:04 
*FROM CLIP NAME:  27K2/02.SYNC.01 
*PATCH 19Y08M05:  FROM SOURCE 6 TO RECORD 5 
*SOURCE FILE: 19Y08M05
005688  19Y08M05                         A6    C        17:37:36:14 17:37:37:02 01:24:52:16 01:24:53:04 
*FROM CLIP NAME:  27K2/02.SYNC.01 
*PATCH 19Y08M05:  FROM SOURCE 8 TO RECORD 6 
*SOURCE FILE: 19Y08M05
005689  19Y08M05                         A     C        18:14:11:00 18:14:13:01 01:24:53:04 01:24:55:05 
*FROM CLIP NAME:  27K4/01.SYNC.01 
*SOURCE FILE: 19Y08M05
005690  19Y08M05                         A2    C        18:14:11:00 18:14:13:01 01:24:53:04 01:24:55:05 
*FROM CLIP NAME:  27K4/01.SYNC.01 
*SOURCE FILE: 19Y08M05
005691  19Y08M05                         A3    C        18:14:11:00 18:14:13:01 01:24:53:04 01:24:55:05 
*FROM CLIP NAME:  27K4/01.SYNC.01 
*SOURCE FILE: 19Y08M05
005692  19Y08M05                         A4    C        18:14:11:00 18:14:13:01 01:24:53:04 01:24:55:05 
*FROM CLIP NAME:  27K4/01.SYNC.01 
*SOURCE FILE: 19Y08M05
005693  19Y08M05                         A5    C        18:14:11:00 18:14:13:01 01:24:53:04 01:24:55:05 
*FROM CLIP NAME:  27K4/01.SYNC.01 
*PATCH 19Y08M05:  FROM SOURCE 6 TO RECORD 5 
*SOURCE FILE: 19Y08M05
005694  19Y08M05                         A6    C        18:14:11:00 18:14:13:01 01:24:53:04 01:24:55:05 
*FROM CLIP NAME:  27K4/01.SYNC.01 
*PATCH 19Y08M05:  FROM SOURCE 8 TO RECORD 6 
*SOURCE FILE: 19Y08M05
005695  MSMMMOB.44                       V     C        17:51:17:08 17:51:19:15 01:24:55:05 01:24:57:12 
M2      MSMMMOB.44                                025.0 17:51:17:08 
*FROM CLIP NAME:  A045C004_190805_R32C 
*SOURCE FILE: MSMMMOB.44
005696  19Y08M05                         A     C        17:51:17:07 17:51:19:14 01:24:55:05 01:24:57:12 
*FROM CLIP NAME:  27K3/01.SYNC.01 
*SOURCE FILE: 19Y08M05
005697  19Y08M05                         A2    C        17:51:17:07 17:51:19:14 01:24:55:05 01:24:57:12 
*FROM CLIP NAME:  27K3/01.SYNC.01 
*SOURCE FILE: 19Y08M05
005698  19Y08M05                         A3    C        17:51:17:07 17:51:19:14 01:24:55:05 01:24:57:12 
*FROM CLIP NAME:  27K3/01.SYNC.01 
*SOURCE FILE: 19Y08M05
005699  19Y08M05                         A4    C        17:51:17:07 17:51:19:14 01:24:55:05 01:24:57:12 
*FROM CLIP NAME:  27K3/01.SYNC.01 
*SOURCE FILE: 19Y08M05
005700  19Y08M05                         A5    C        17:51:17:07 17:51:19:14 01:24:55:05 01:24:57:12 
*FROM CLIP NAME:  27K3/01.SYNC.01 
*PATCH 19Y08M05:  FROM SOURCE 6 TO RECORD 5 
*SOURCE FILE: 19Y08M05
005701  19Y08M05                         A6    C        17:51:17:07 17:51:19:14 01:24:55:05 01:24:57:12 
*FROM CLIP NAME:  27K3/01.SYNC.01 
*PATCH 19Y08M05:  FROM SOURCE 8 TO RECORD 6 
*SOURCE FILE: 19Y08M05
005702  19Y08M05                         A     C        17:51:21:00 17:51:21:17 01:24:57:12 01:24:58:04 
*FROM CLIP NAME:  27K3/01.SYNC.01 
*SOURCE FILE: 19Y08M05
005703  19Y08M05                         A2    C        17:51:21:00 17:51:21:17 01:24:57:12 01:24:58:04 
*FROM CLIP NAME:  27K3/01.SYNC.01 
*SOURCE FILE: 19Y08M05
005704  19Y08M05                         A3    C        17:51:21:00 17:51:21:17 01:24:57:12 01:24:58:04 
*FROM CLIP NAME:  27K3/01.SYNC.01 
*SOURCE FILE: 19Y08M05
005705  19Y08M05                         A4    C        17:51:21:00 17:51:21:17 01:24:57:12 01:24:58:04 
*FROM CLIP NAME:  27K3/01.SYNC.01 
*SOURCE FILE: 19Y08M05
005706  19Y08M05                         A5    C        17:51:21:00 17:51:21:17 01:24:57:12 01:24:58:04 
*FROM CLIP NAME:  27K3/01.SYNC.01 
*PATCH 19Y08M05:  FROM SOURCE 6 TO RECORD 5 
*SOURCE FILE: 19Y08M05
005707  19Y08M05                         A6    C        17:51:21:00 17:51:21:17 01:24:57:12 01:24:58:04 
*FROM CLIP NAME:  27K3/01.SYNC.01 
*PATCH 19Y08M05:  FROM SOURCE 8 TO RECORD 6 
*SOURCE FILE: 19Y08M05
005708  MSMMMOB.03                       V     C        18:14:14:13 18:14:18:07 01:24:57:12 01:25:01:06 
M2      MSMMMOB.03                                025.0 18:14:14:13 
*FROM CLIP NAME:  A045C005_190805_R32C 
*SOURCE FILE: MSMMMOB.03
005709  19Y08M05                         A2    C        18:14:15:04 18:14:17:03 01:24:58:04 01:25:00:03 
*FROM CLIP NAME:  27K4/01.SYNC.01 
*SOURCE FILE: 19Y08M05
005710  19Y08M05                         A5    C        18:14:15:04 18:14:17:03 01:24:58:04 01:25:00:03 
*FROM CLIP NAME:  27K4/01.SYNC.01 
*PATCH 19Y08M05:  FROM SOURCE 6 TO RECORD 5 
*SOURCE FILE: 19Y08M05
005711  19Y08M05                         A6    C        18:14:15:04 18:14:17:03 01:24:58:04 01:25:00:03 
*FROM CLIP NAME:  27K4/01.SYNC.01 
*PATCH 19Y08M05:  FROM SOURCE 8 TO RECORD 6 
*SOURCE FILE: 19Y08M05
005712  19Y08M05                         A     C        18:14:15:04 18:14:18:20 01:24:58:04 01:25:01:20 
*FROM CLIP NAME:  27K4/01.SYNC.01 
*SOURCE FILE: 19Y08M05
005713  19Y08M05                         A3    C        18:14:15:04 18:14:18:20 01:24:58:04 01:25:01:20 
*FROM CLIP NAME:  27K4/01.SYNC.01 
*SOURCE FILE: 19Y08M05
005714  19Y08M05                         A4    C        18:14:15:04 18:14:18:20 01:24:58:04 01:25:01:20 
*FROM CLIP NAME:  27K4/01.SYNC.01 
*SOURCE FILE: 19Y08M05
005715  19Y08M05                         A2    C        18:14:18:02 18:14:18:20 01:25:01:02 01:25:01:20 
*FROM CLIP NAME:  27K4/01.SYNC.01 
*SOURCE FILE: 19Y08M05
005716  19Y08M05                         A5    C        18:14:18:02 18:14:18:20 01:25:01:02 01:25:01:20 
*FROM CLIP NAME:  27K4/01.SYNC.01 
*PATCH 19Y08M05:  FROM SOURCE 6 TO RECORD 5 
*SOURCE FILE: 19Y08M05
005717  19Y08M05                         A6    C        18:14:18:02 18:14:18:20 01:25:01:02 01:25:01:20 
*FROM CLIP NAME:  27K4/01.SYNC.01 
*PATCH 19Y08M05:  FROM SOURCE 8 TO RECORD 6 
*SOURCE FILE: 19Y08M05
005718  MSMMMOB.44                       V     C        17:51:26:11 17:51:27:17 01:25:01:06 01:25:02:12 
M2      MSMMMOB.44                                025.0 17:51:26:11 
*FROM CLIP NAME:  A045C004_190805_R32C 
*SOURCE FILE: MSMMMOB.44
005719  19Y08M05                         A     C        17:51:26:24 17:51:27:09 01:25:01:20 01:25:02:05 
*FROM CLIP NAME:  27K3/01.SYNC.01 
*SOURCE FILE: 19Y08M05
005720  19Y08M05                         A2    C        17:51:26:24 17:51:27:09 01:25:01:20 01:25:02:05 
*FROM CLIP NAME:  27K3/01.SYNC.01 
*SOURCE FILE: 19Y08M05
005721  19Y08M05                         A3    C        17:51:26:24 17:51:27:09 01:25:01:20 01:25:02:05 
*FROM CLIP NAME:  27K3/01.SYNC.01 
*SOURCE FILE: 19Y08M05
005722  19Y08M05                         A4    C        17:51:26:24 17:51:27:09 01:25:01:20 01:25:02:05 
*FROM CLIP NAME:  27K3/01.SYNC.01 
*SOURCE FILE: 19Y08M05
005723  19Y08M05                         A5    C        17:51:26:24 17:51:27:09 01:25:01:20 01:25:02:05 
*FROM CLIP NAME:  27K3/01.SYNC.01 
*PATCH 19Y08M05:  FROM SOURCE 6 TO RECORD 5 
*SOURCE FILE: 19Y08M05
005724  19Y08M05                         A6    C        17:51:26:24 17:51:27:09 01:25:01:20 01:25:02:05 
*FROM CLIP NAME:  27K3/01.SYNC.01 
*PATCH 19Y08M05:  FROM SOURCE 8 TO RECORD 6 
*SOURCE FILE: 19Y08M05
005725  19Y08M05                         A     C        18:14:27:24 18:14:28:06 01:25:02:05 01:25:02:12 
*FROM CLIP NAME:  27K4/01.SYNC.01 
*SOURCE FILE: 19Y08M05
005726  19Y08M05                         A2    C        18:14:27:24 18:14:28:06 01:25:02:05 01:25:02:12 
*FROM CLIP NAME:  27K4/01.SYNC.01 
*SOURCE FILE: 19Y08M05
005727  19Y08M05                         A3    C        18:14:27:24 18:14:28:06 01:25:02:05 01:25:02:12 
*FROM CLIP NAME:  27K4/01.SYNC.01 
*SOURCE FILE: 19Y08M05
005728  19Y08M05                         A4    C        18:14:27:24 18:14:28:06 01:25:02:05 01:25:02:12 
*FROM CLIP NAME:  27K4/01.SYNC.01 
*SOURCE FILE: 19Y08M05
005729  19Y08M05                         A5    C        18:14:27:24 18:14:28:06 01:25:02:05 01:25:02:12 
*FROM CLIP NAME:  27K4/01.SYNC.01 
*PATCH 19Y08M05:  FROM SOURCE 6 TO RECORD 5 
*SOURCE FILE: 19Y08M05
005730  19Y08M05                         A6    C        18:14:27:24 18:14:28:06 01:25:02:05 01:25:02:12 
*FROM CLIP NAME:  27K4/01.SYNC.01 
*PATCH 19Y08M05:  FROM SOURCE 8 TO RECORD 6 
*SOURCE FILE: 19Y08M05
005731  19Y08M05                         A     C        18:14:27:22 18:14:31:03 01:25:02:12 01:25:05:18 
*FROM CLIP NAME:  27K4/01.SYNC.01 
*SOURCE FILE: 19Y08M05
005732  19Y08M05                         A2    C        18:14:27:22 18:14:31:03 01:25:02:12 01:25:05:18 
*FROM CLIP NAME:  27K4/01.SYNC.01 
*SOURCE FILE: 19Y08M05
005733  19Y08M05                         A3    C        18:14:27:22 18:14:31:03 01:25:02:12 01:25:05:18 
*FROM CLIP NAME:  27K4/01.SYNC.01 
*SOURCE FILE: 19Y08M05
005734  19Y08M05                         A4    C        18:14:27:22 18:14:31:03 01:25:02:12 01:25:05:18 
*FROM CLIP NAME:  27K4/01.SYNC.01 
*SOURCE FILE: 19Y08M05
005735  19Y08M05                         A5    C        18:14:27:22 18:14:31:03 01:25:02:12 01:25:05:18 
*FROM CLIP NAME:  27K4/01.SYNC.01 
*PATCH 19Y08M05:  FROM SOURCE 6 TO RECORD 5 
*SOURCE FILE: 19Y08M05
005736  19Y08M05                         A6    C        18:14:27:22 18:14:31:03 01:25:02:12 01:25:05:18 
*FROM CLIP NAME:  27K4/01.SYNC.01 
*PATCH 19Y08M05:  FROM SOURCE 8 TO RECORD 6 
*SOURCE FILE: 19Y08M05
005737  MSMMMOB.03                       V     C        18:14:27:23 18:14:31:12 01:25:02:12 01:25:06:01 
M2      MSMMMOB.03                                025.0 18:14:27:23 
*FROM CLIP NAME:  A045C005_190805_R32C 
*SOURCE FILE: MSMMMOB.03
005738  19Y08M05                         A     C        18:14:31:03 18:14:31:03 01:25:05:18 01:25:05:18 
005738  19Y08M05                         A     D    002 18:25:12:24 18:25:13:01 01:25:05:18 01:25:05:20 
*FROM CLIP NAME:  27K4/01.SYNC.01 
*TO CLIP NAME:  27K5/01.SYNC.01 
*SOURCE FILE: 19Y08M05
005739  19Y08M05                         A2    C        18:14:31:03 18:14:31:03 01:25:05:18 01:25:05:18 
005739  19Y08M05                         A2    D    002 18:25:12:24 18:25:13:01 01:25:05:18 01:25:05:20 
*FROM CLIP NAME:  27K4/01.SYNC.01 
*TO CLIP NAME:  27K5/01.SYNC.01 
*SOURCE FILE: 19Y08M05
005740  19Y08M05                         A3    C        18:14:31:03 18:14:31:03 01:25:05:18 01:25:05:18 
005740  19Y08M05                         A3    D    002 18:25:12:24 18:25:13:01 01:25:05:18 01:25:05:20 
*FROM CLIP NAME:  27K4/01.SYNC.01 
*TO CLIP NAME:  27K5/01.SYNC.01 
*SOURCE FILE: 19Y08M05
005741  19Y08M05                         A4    C        18:14:31:03 18:14:31:03 01:25:05:18 01:25:05:18 
005741  19Y08M05                         A4    D    002 18:25:12:24 18:25:13:01 01:25:05:18 01:25:05:20 
*FROM CLIP NAME:  27K4/01.SYNC.01 
*TO CLIP NAME:  27K5/01.SYNC.01 
*SOURCE FILE: 19Y08M05
005742  19Y08M05                         A5    C        18:14:31:03 18:14:31:03 01:25:05:18 01:25:05:18 
005742  19Y08M05                         A5    D    002 18:25:12:24 18:25:13:01 01:25:05:18 01:25:05:20 
*FROM CLIP NAME:  27K4/01.SYNC.01 
*TO CLIP NAME:  27K5/01.SYNC.01 
*PATCH 19Y08M05:  FROM SOURCE 6 TO RECORD 5 
*PATCH 19Y08M05:  FROM SOURCE 6 TO RECORD 5 
*SOURCE FILE: 19Y08M05
005743  19Y08M05                         A6    C        18:14:31:03 18:14:31:03 01:25:05:18 01:25:05:18 
005743  19Y08M05                         A6    D    002 18:25:12:24 18:25:13:01 01:25:05:18 01:25:05:20 
*FROM CLIP NAME:  27K4/01.SYNC.01 
*TO CLIP NAME:  27K5/01.SYNC.01 
*PATCH 19Y08M05:  FROM SOURCE 8 TO RECORD 6 
*PATCH 19Y08M05:  FROM SOURCE 8 TO RECORD 6 
*SOURCE FILE: 19Y08M05
005744  19Y08M05                         A     C        18:25:13:01 18:25:21:19 01:25:05:20 01:25:14:13 
*FROM CLIP NAME:  27K5/01.SYNC.01 
*SOURCE FILE: 19Y08M05
005745  19Y08M05                         A2    C        18:25:13:01 18:25:21:19 01:25:05:20 01:25:14:13 
*FROM CLIP NAME:  27K5/01.SYNC.01 
*SOURCE FILE: 19Y08M05
005746  19Y08M05                         A3    C        18:25:13:01 18:25:21:19 01:25:05:20 01:25:14:13 
*FROM CLIP NAME:  27K5/01.SYNC.01 
*SOURCE FILE: 19Y08M05
005747  19Y08M05                         A4    C        18:25:13:01 18:25:21:19 01:25:05:20 01:25:14:13 
*FROM CLIP NAME:  27K5/01.SYNC.01 
*SOURCE FILE: 19Y08M05
005748  19Y08M05                         A5    C        18:25:13:01 18:25:21:19 01:25:05:20 01:25:14:13 
*FROM CLIP NAME:  27K5/01.SYNC.01 
*PATCH 19Y08M05:  FROM SOURCE 6 TO RECORD 5 
*SOURCE FILE: 19Y08M05
005749  19Y08M05                         A6    C        18:25:13:01 18:25:21:19 01:25:05:20 01:25:14:13 
*FROM CLIP NAME:  27K5/01.SYNC.01 
*PATCH 19Y08M05:  FROM SOURCE 8 TO RECORD 6 
*SOURCE FILE: 19Y08M05
005750  MSMMMOB.44                       V     C        17:51:27:22 17:51:29:07 01:25:06:01 01:25:07:11 
M2      MSMMMOB.44                                025.0 17:51:27:22 
*FROM CLIP NAME:  A045C004_190805_R32C 
*SOURCE FILE: MSMMMOB.44
005751  MSMMMOB.10                       V     C        18:25:14:18 18:25:21:20 01:25:07:11 01:25:14:13 
M2      MSMMMOB.10                                025.0 18:25:14:18 
*FROM CLIP NAME:  A045C006_190805_R32C 
*SOURCE FILE: MSMMMOB.10
005752  19Y08M05                         A     C        18:38:27:04 18:38:27:24 01:25:14:13 01:25:15:08 
*FROM CLIP NAME:  27K6/03.SYNC.01 
*SOURCE FILE: 19Y08M05
005753  19Y08M05                         A2    C        18:38:27:04 18:38:27:24 01:25:14:13 01:25:15:08 
*FROM CLIP NAME:  27K6/03.SYNC.01 
*SOURCE FILE: 19Y08M05
005754  19Y08M05                         A3    C        18:38:27:04 18:38:27:24 01:25:14:13 01:25:15:08 
*FROM CLIP NAME:  27K6/03.SYNC.01 
*SOURCE FILE: 19Y08M05
005755  19Y08M05                         A4    C        18:38:27:04 18:38:27:24 01:25:14:13 01:25:15:08 
*FROM CLIP NAME:  27K6/03.SYNC.01 
*SOURCE FILE: 19Y08M05
005756  19Y08M05                         A5    C        18:38:27:04 18:38:27:24 01:25:14:13 01:25:15:08 
*FROM CLIP NAME:  27K6/03.SYNC.01 
*PATCH 19Y08M05:  FROM SOURCE 6 TO RECORD 5 
*SOURCE FILE: 19Y08M05
005757  19Y08M05                         A6    C        18:38:27:04 18:38:27:24 01:25:14:13 01:25:15:08 
*FROM CLIP NAME:  27K6/03.SYNC.01 
*PATCH 19Y08M05:  FROM SOURCE 8 TO RECORD 6 
*SOURCE FILE: 19Y08M05
005758  MSMMMOB.35                       V     C        17:38:25:00 17:38:35:22 01:25:14:13 01:25:25:10 
M2      MSMMMOB.35                                025.0 17:38:25:00 
*FROM CLIP NAME:  A045C002_190805_R32C 
*SOURCE FILE: MSMMMOB.35
005759  19Y08M05                         A     C        17:38:25:19 17:38:34:20 01:25:15:08 01:25:24:09 
*FROM CLIP NAME:  27K2/02.SYNC.01 
*SOURCE FILE: 19Y08M05
005760  19Y08M05                         A2    C        17:38:25:19 17:38:34:20 01:25:15:08 01:25:24:09 
*FROM CLIP NAME:  27K2/02.SYNC.01 
*SOURCE FILE: 19Y08M05
005761  19Y08M05                         A3    C        17:38:25:19 17:38:34:20 01:25:15:08 01:25:24:09 
*FROM CLIP NAME:  27K2/02.SYNC.01 
*SOURCE FILE: 19Y08M05
005762  19Y08M05                         A4    C        17:38:25:19 17:38:34:20 01:25:15:08 01:25:24:09 
*FROM CLIP NAME:  27K2/02.SYNC.01 
*SOURCE FILE: 19Y08M05
005763  19Y08M05                         A5    C        17:38:25:19 17:38:34:20 01:25:15:08 01:25:24:09 
*FROM CLIP NAME:  27K2/02.SYNC.01 
*PATCH 19Y08M05:  FROM SOURCE 6 TO RECORD 5 
*SOURCE FILE: 19Y08M05
005764  19Y08M05                         A6    C        17:38:25:19 17:38:34:20 01:25:15:08 01:25:24:09 
*FROM CLIP NAME:  27K2/02.SYNC.01 
*PATCH 19Y08M05:  FROM SOURCE 8 TO RECORD 6 
*SOURCE FILE: 19Y08M05
005765  19Y08M05                         A     C        17:52:12:22 17:52:13:23 01:25:24:09 01:25:25:10 
*FROM CLIP NAME:  27K3/01.SYNC.01 
*SOURCE FILE: 19Y08M05
005766  19Y08M05                         A2    C        17:52:12:22 17:52:13:23 01:25:24:09 01:25:25:10 
*FROM CLIP NAME:  27K3/01.SYNC.01 
*SOURCE FILE: 19Y08M05
005767  19Y08M05                         A3    C        17:52:12:22 17:52:13:23 01:25:24:09 01:25:25:10 
*FROM CLIP NAME:  27K3/01.SYNC.01 
*SOURCE FILE: 19Y08M05
005768  19Y08M05                         A4    C        17:52:12:22 17:52:13:23 01:25:24:09 01:25:25:10 
*FROM CLIP NAME:  27K3/01.SYNC.01 
*SOURCE FILE: 19Y08M05
005769  19Y08M05                         A5    C        17:52:12:22 17:52:13:23 01:25:24:09 01:25:25:10 
*FROM CLIP NAME:  27K3/01.SYNC.01 
*PATCH 19Y08M05:  FROM SOURCE 6 TO RECORD 5 
*SOURCE FILE: 19Y08M05
005770  19Y08M05                         A6    C        17:52:12:22 17:52:13:23 01:25:24:09 01:25:25:10 
*FROM CLIP NAME:  27K3/01.SYNC.01 
*PATCH 19Y08M05:  FROM SOURCE 8 TO RECORD 6 
*SOURCE FILE: 19Y08M05
005771  A003C008_190725_R32C             V     C        17:38:15:16 17:38:17:22 01:25:25:10 01:25:27:16 
*FROM CLIP NAME:  A003C008_190725_R32C.NEW.01 
*SOURCE FILE: A003C008_190725_R32C
005772  19Y07M25                         A     C        17:38:15:16 17:38:17:22 01:25:25:10 01:25:27:16 
*FROM CLIP NAME:  31K8/03 
*PATCH 19Y07M25:  FROM SOURCE 2 TO RECORD 1 
*SOURCE FILE: 19Y07M25
005773  19Y07M25                         A2    C        17:38:15:16 17:38:17:22 01:25:25:10 01:25:27:16 
*FROM CLIP NAME:  31K8/03 
*PATCH 19Y07M25:  FROM SOURCE 5 TO RECORD 2 
*SOURCE FILE: 19Y07M25
005774  19Y07M25                         A3    C        17:38:15:16 17:38:17:22 01:25:25:10 01:25:27:16 
*FROM CLIP NAME:  31K8/03 
*PATCH 19Y07M25:  FROM SOURCE 7 TO RECORD 3 
*SOURCE FILE: 19Y07M25
005775  19Y07M25                         A     C        17:38:18:12 17:38:19:24 01:25:27:16 01:25:29:03 
*FROM CLIP NAME:  31K8/03 
*PATCH 19Y07M25:  FROM SOURCE 2 TO RECORD 1 
*SOURCE FILE: 19Y07M25
005776  19Y07M25                         A2    C        17:38:18:12 17:38:19:24 01:25:27:16 01:25:29:03 
*FROM CLIP NAME:  31K8/03 
*PATCH 19Y07M25:  FROM SOURCE 5 TO RECORD 2 
*SOURCE FILE: 19Y07M25
005777  19Y07M25                         A3    C        17:38:18:12 17:38:19:24 01:25:27:16 01:25:29:03 
*FROM CLIP NAME:  31K8/03 
*PATCH 19Y07M25:  FROM SOURCE 7 TO RECORD 3 
*SOURCE FILE: 19Y07M25
005778  A003C003_190725_R32C             V     C        17:07:06:23 17:07:11:09 01:25:27:16 01:25:32:02 
*FROM CLIP NAME:  A003C003_190725_R32C.NEW.01 
*SOURCE FILE: A003C003_190725_R32C
005779  19Y07M25                         A5    C        17:38:16:00 17:38:19:16 01:25:28:17 01:25:32:08 
*FROM CLIP NAME:  31K8/03 
*SOURCE FILE: 19Y07M25
005780  19Y07M25                         A6    C        17:38:16:00 17:38:19:16 01:25:28:17 01:25:32:08 
*FROM CLIP NAME:  31K8/03 
*PATCH 19Y07M25:  FROM SOURCE 2 TO RECORD 6 
*SOURCE FILE: 19Y07M25
005781  19Y07M25                         A7    C        17:38:16:00 17:38:19:16 01:25:28:17 01:25:32:08 
*FROM CLIP NAME:  31K8/03 
*SOURCE FILE: 19Y07M25
005782  19Y07M25                         A     C        16:42:02:15 16:42:02:24 01:25:29:03 01:25:29:12 
*FROM CLIP NAME:  31K6/02 
*SOURCE FILE: 19Y07M25
005783  19Y07M25                         A2    C        16:42:02:15 16:42:02:24 01:25:29:03 01:25:29:12 
*FROM CLIP NAME:  31K6/02 
*SOURCE FILE: 19Y07M25
005784  19Y07M25                         A3    C        16:42:02:15 16:42:02:24 01:25:29:03 01:25:29:12 
*FROM CLIP NAME:  31K6/02 
*SOURCE FILE: 19Y07M25
005785  19Y07M25                         A4    C        16:42:02:15 16:42:02:24 01:25:29:03 01:25:29:12 
*FROM CLIP NAME:  31K6/02 
*PATCH 19Y07M25:  FROM SOURCE 5 TO RECORD 4 
*SOURCE FILE: 19Y07M25
005786  19Y07M25                         A     C        17:07:08:19 17:07:09:08 01:25:29:12 01:25:30:01 
*FROM CLIP NAME:  31K7/01 
*SOURCE FILE: 19Y07M25
005787  19Y07M25                         A2    C        17:07:08:19 17:07:09:08 01:25:29:12 01:25:30:01 
*FROM CLIP NAME:  31K7/01 
*SOURCE FILE: 19Y07M25
005788  19Y07M25                         A3    C        17:07:08:19 17:07:09:08 01:25:29:12 01:25:30:01 
*FROM CLIP NAME:  31K7/01 
*PATCH 19Y07M25:  FROM SOURCE 4 TO RECORD 3 
*SOURCE FILE: 19Y07M25
005789  19Y07M25                         A4    C        17:07:08:19 17:07:09:14 01:25:29:12 01:25:30:07 
*FROM CLIP NAME:  31K7/01 
*PATCH 19Y07M25:  FROM SOURCE 5 TO RECORD 4 
*SOURCE FILE: 19Y07M25
005790  19Y07M25                         A     C        17:07:02:10 17:07:04:11 01:25:30:01 01:25:32:02 
*FROM CLIP NAME:  31K7/01 
*SOURCE FILE: 19Y07M25
005791  19Y07M25                         A2    C        17:07:02:10 17:07:04:11 01:25:30:01 01:25:32:02 
*FROM CLIP NAME:  31K7/01 
*A2 VOL = -11.7 DB  PAN L100 
*SOURCE FILE: 19Y07M25
005792  19Y07M25                         A3    C        17:07:02:10 17:07:04:11 01:25:30:01 01:25:32:02 
*FROM CLIP NAME:  31K7/01 
*A3 VOL = -11.7 DB  PAN R100 
*PATCH 19Y07M25:  FROM SOURCE 5 TO RECORD 3 
*SOURCE FILE: 19Y07M25
005793  19Y07M25                         A4    C        17:07:02:16 17:07:04:11 01:25:30:07 01:25:32:02 
*FROM CLIP NAME:  31K7/01 
*SOURCE FILE: 19Y07M25
005794  A001C003_190725_R32C             V     C        12:16:35:10 12:16:38:20 01:25:32:02 01:25:35:12 
*FROM CLIP NAME:  A001C003_190725_R32C.NEW.01 
*SOURCE FILE: A001C003_190725_R32C
005795  19Y07M25                         A     C        17:38:14:06 17:38:17:16 01:25:32:02 01:25:35:12 
*FROM CLIP NAME:  31K8/03 
*PATCH 19Y07M25:  FROM SOURCE 2 TO RECORD 1 
*SOURCE FILE: 19Y07M25
005796  19Y07M25                         A2    C        17:38:14:06 17:38:17:16 01:25:32:02 01:25:35:12 
*FROM CLIP NAME:  31K8/03 
*PATCH 19Y07M25:  FROM SOURCE 5 TO RECORD 2 
*SOURCE FILE: 19Y07M25
005797  19Y07M25                         A3    C        17:38:14:06 17:38:17:16 01:25:32:02 01:25:35:12 
*FROM CLIP NAME:  31K8/03 
*PATCH 19Y07M25:  FROM SOURCE 7 TO RECORD 3 
*SOURCE FILE: 19Y07M25
005798  A002C005_190725_R32C             V     C        00:34:03:22 00:34:07:17 01:25:35:12 01:25:39:07 
*FROM CLIP NAME:  A002C005_190725_R32C.NEW.01 
*SOURCE FILE: A002C005_190725_R32C
005799  19Y07M25                         A     C        16:05:35:06 16:05:39:01 01:25:35:12 01:25:39:07 
*FROM CLIP NAME:  31K5/02 
*SOURCE FILE: 19Y07M25
005800  19Y07M25                         A2    C        16:05:35:06 16:05:39:01 01:25:35:12 01:25:39:07 
*FROM CLIP NAME:  31K5/02 
*SOURCE FILE: 19Y07M25
005801  19Y07M25                         A3    C        16:05:35:06 16:05:39:01 01:25:35:12 01:25:39:07 
*FROM CLIP NAME:  31K5/02 
*PATCH 19Y07M25:  FROM SOURCE 5 TO RECORD 3 
*SOURCE FILE: 19Y07M25
005802  19Y07M25                         A4    C        16:05:35:06 16:05:39:01 01:25:35:12 01:25:39:07 
*FROM CLIP NAME:  31K5/02 
*PATCH 19Y07M25:  FROM SOURCE 3 TO RECORD 4 
*SOURCE FILE: 19Y07M25
005803  19Y07M25                         A5    C        16:05:35:06 16:05:39:01 01:25:35:12 01:25:39:07 
*FROM CLIP NAME:  31K5/02 
*PATCH 19Y07M25:  FROM SOURCE 7 TO RECORD 5 
*SOURCE FILE: 19Y07M25
005804  19Y07M25                         A     C        17:07:08:22 17:07:09:17 01:25:39:07 01:25:40:02 
*FROM CLIP NAME:  31K7/01 
*SOURCE FILE: 19Y07M25
005805  19Y07M25                         A2    C        17:07:08:22 17:07:09:17 01:25:39:07 01:25:40:02 
*FROM CLIP NAME:  31K7/01 
*SOURCE FILE: 19Y07M25
005806  19Y07M25                         A3    C        17:07:08:22 17:07:09:17 01:25:39:07 01:25:40:02 
*FROM CLIP NAME:  31K7/01 
*PATCH 19Y07M25:  FROM SOURCE 5 TO RECORD 3 
*SOURCE FILE: 19Y07M25
005807  19Y07M25                         A4    C        17:07:08:22 17:07:09:17 01:25:39:07 01:25:40:02 
*FROM CLIP NAME:  31K7/01 
*SOURCE FILE: 19Y07M25
005808  19Y07M25                         A5    C        17:07:08:22 17:07:09:17 01:25:39:07 01:25:40:02 
*FROM CLIP NAME:  31K7/01 
*PATCH 19Y07M25:  FROM SOURCE 7 TO RECORD 5 
*SOURCE FILE: 19Y07M25
005809  A001C003_190725_R32C             V     C        12:16:39:17 12:16:44:07 01:25:39:07 01:25:43:22 
*FROM CLIP NAME:  A001C003_190725_R32C.NEW.01 
*SOURCE FILE: A001C003_190725_R32C
005810  19Y07M25                         A     C        16:05:40:21 16:05:49:11 01:25:40:02 01:25:48:17 
*FROM CLIP NAME:  31K5/02 
*SOURCE FILE: 19Y07M25
005811  19Y07M25                         A2    C        16:05:40:21 16:05:49:11 01:25:40:02 01:25:48:17 
*FROM CLIP NAME:  31K5/02 
*SOURCE FILE: 19Y07M25
005812  19Y07M25                         A3    C        16:05:40:21 16:05:49:11 01:25:40:02 01:25:48:17 
*FROM CLIP NAME:  31K5/02 
*PATCH 19Y07M25:  FROM SOURCE 5 TO RECORD 3 
*SOURCE FILE: 19Y07M25
005813  19Y07M25                         A4    C        16:05:40:21 16:05:49:11 01:25:40:02 01:25:48:17 
*FROM CLIP NAME:  31K5/02 
*PATCH 19Y07M25:  FROM SOURCE 3 TO RECORD 4 
*SOURCE FILE: 19Y07M25
005814  19Y07M25                         A5    C        16:05:40:21 16:05:49:11 01:25:40:02 01:25:48:17 
*FROM CLIP NAME:  31K5/02 
*PATCH 19Y07M25:  FROM SOURCE 7 TO RECORD 5 
*SOURCE FILE: 19Y07M25
005815  A002C005_190725_R32C             V     C        00:34:13:07 00:34:18:02 01:25:43:22 01:25:48:17 
*FROM CLIP NAME:  A002C005_190725_R32C.NEW.01 
*SOURCE FILE: A002C005_190725_R32C
005816  19Y07M25                         A     C        12:16:43:13 12:16:44:14 01:25:48:17 01:25:49:18 
*FROM CLIP NAME:  31K1/03 
*SOURCE FILE: 19Y07M25
005817  19Y07M25                         A2    C        12:16:43:13 12:16:44:14 01:25:48:17 01:25:49:18 
*FROM CLIP NAME:  31K1/03 
*SOURCE FILE: 19Y07M25
005818  19Y07M25                         A3    C        12:16:43:13 12:16:44:14 01:25:48:17 01:25:49:18 
*FROM CLIP NAME:  31K1/03 
*SOURCE FILE: 19Y07M25
005819  19Y07M25                         A4    C        12:16:43:13 12:16:44:14 01:25:48:17 01:25:49:18 
*FROM CLIP NAME:  31K1/03 
*PATCH 19Y07M25:  FROM SOURCE 5 TO RECORD 4 
*SOURCE FILE: 19Y07M25
005820  19Y07M25                         A5    C        12:16:43:13 12:16:44:14 01:25:48:17 01:25:49:18 
*FROM CLIP NAME:  31K1/03 
*PATCH 19Y07M25:  FROM SOURCE 7 TO RECORD 5 
*SOURCE FILE: 19Y07M25
005821  A001C003_190725_R32C             V     C        12:16:43:13 12:16:46:17 01:25:48:17 01:25:51:21 
*FROM CLIP NAME:  A001C003_190725_R32C.NEW.01 
*SOURCE FILE: A001C003_190725_R32C
005822  19Y07M25                         A     C        17:38:16:00 17:38:18:03 01:25:49:18 01:25:51:21 
*FROM CLIP NAME:  31K8/03 
*PATCH 19Y07M25:  FROM SOURCE 2 TO RECORD 1 
*SOURCE FILE: 19Y07M25
005823  19Y07M25                         A2    C        17:38:16:00 17:38:18:03 01:25:49:18 01:25:51:21 
*FROM CLIP NAME:  31K8/03 
*PATCH 19Y07M25:  FROM SOURCE 7 TO RECORD 2 
*SOURCE FILE: 19Y07M25
005824  19Y07M25                         A3    C        17:38:16:00 17:38:18:03 01:25:49:18 01:25:51:21 
*FROM CLIP NAME:  31K8/03 
*PATCH 19Y07M25:  FROM SOURCE 5 TO RECORD 3 
*SOURCE FILE: 19Y07M25
005825  A002C005_190725_R32C             V     C        00:34:17:08 00:34:21:23 01:25:51:21 01:25:56:11 
*FROM CLIP NAME:  A002C005_190725_R32C.NEW.01 
*SOURCE FILE: A002C005_190725_R32C
005826  19Y07M25                         A     C        16:05:48:17 16:05:53:07 01:25:51:21 01:25:56:11 
*FROM CLIP NAME:  31K5/02 
*SOURCE FILE: 19Y07M25
005827  19Y07M25                         A2    C        16:05:48:17 16:05:53:07 01:25:51:21 01:25:56:11 
*FROM CLIP NAME:  31K5/02 
*SOURCE FILE: 19Y07M25
005828  19Y07M25                         A3    C        16:05:48:17 16:05:53:07 01:25:51:21 01:25:56:11 
*FROM CLIP NAME:  31K5/02 
*PATCH 19Y07M25:  FROM SOURCE 5 TO RECORD 3 
*SOURCE FILE: 19Y07M25
005829  19Y07M25                         A4    C        16:05:48:17 16:05:53:07 01:25:51:21 01:25:56:11 
*FROM CLIP NAME:  31K5/02 
*PATCH 19Y07M25:  FROM SOURCE 3 TO RECORD 4 
*SOURCE FILE: 19Y07M25
005830  19Y07M25                         A5    C        16:05:48:17 16:05:53:07 01:25:51:21 01:25:56:11 
*FROM CLIP NAME:  31K5/02 
*PATCH 19Y07M25:  FROM SOURCE 7 TO RECORD 5 
*SOURCE FILE: 19Y07M25
005831  A001C002_190725_R32C             V     C        12:08:18:05 12:08:24:22 01:25:56:11 01:26:03:03 
*FROM CLIP NAME:  A001C002_190725_R32C.NEW.01 
*SOURCE FILE: A001C002_190725_R32C
005832  19Y07M25                         A     C        12:08:18:05 12:08:24:22 01:25:56:11 01:26:03:03 
*FROM CLIP NAME:  31K1/02 
*SOURCE FILE: 19Y07M25
005833  19Y07M25                         A2    C        12:08:18:05 12:08:24:22 01:25:56:11 01:26:03:03 
*FROM CLIP NAME:  31K1/02 
*SOURCE FILE: 19Y07M25
005834  19Y07M25                         A3    C        12:08:18:05 12:08:24:22 01:25:56:11 01:26:03:03 
*FROM CLIP NAME:  31K1/02 
*SOURCE FILE: 19Y07M25
005835  19Y07M25                         A4    C        12:08:18:05 12:08:24:22 01:25:56:11 01:26:03:03 
*FROM CLIP NAME:  31K1/02 
*PATCH 19Y07M25:  FROM SOURCE 5 TO RECORD 4 
*SOURCE FILE: 19Y07M25
005836  19Y07M25                         A5    C        12:08:18:05 12:08:24:22 01:25:56:11 01:26:03:03 
*FROM CLIP NAME:  31K1/02 
*PATCH 19Y07M25:  FROM SOURCE 7 TO RECORD 5 
*SOURCE FILE: 19Y07M25
005837  CINEMASCOPE_2-35-1_CROPLINES.PNG V     C        01:00:00:00 01:02:51:04 01:25:59:24 01:28:51:03 
*FROM CLIP NAME:  CINEMASCOPE 2-35-1 CROPLINES.PNG 
*SOURCE FILE: CINEMASCOPE 2-35-1 CROPLINES.PNG
005838  A002C004_190725_R32C             V     C        00:28:11:05 00:28:14:20 01:26:03:03 01:26:06:18 
*FROM CLIP NAME:  A002C004_190725_R32C.NEW.01 
*SOURCE FILE: A002C004_190725_R32C
005839  19Y07M25                         A     C        15:59:42:14 15:59:46:04 01:26:03:03 01:26:06:18 
*FROM CLIP NAME:  31K5/01 
*SOURCE FILE: 19Y07M25
005840  19Y07M25                         A2    C        15:59:42:14 15:59:46:04 01:26:03:03 01:26:06:18 
*FROM CLIP NAME:  31K5/01 
*SOURCE FILE: 19Y07M25
005841  19Y07M25                         A3    C        15:59:42:14 15:59:46:04 01:26:03:03 01:26:06:18 
*FROM CLIP NAME:  31K5/01 
*SOURCE FILE: 19Y07M25
005842  19Y07M25                         A4    C        15:59:42:14 15:59:46:04 01:26:03:03 01:26:06:18 
*FROM CLIP NAME:  31K5/01 
*PATCH 19Y07M25:  FROM SOURCE 5 TO RECORD 4 
*SOURCE FILE: 19Y07M25
005843  19Y07M25                         A5    C        15:59:42:14 15:59:46:04 01:26:03:03 01:26:06:18 
*FROM CLIP NAME:  31K5/01 
*PATCH 19Y07M25:  FROM SOURCE 7 TO RECORD 5 
*SOURCE FILE: 19Y07M25
005844  A001C002_190725_R32C             V     C        12:08:28:14 12:08:34:10 01:26:06:18 01:26:12:14 
*FROM CLIP NAME:  A001C002_190725_R32C.NEW.01 
*SOURCE FILE: A001C002_190725_R32C
005845  19Y07M25                         A     C        12:08:28:14 12:08:34:10 01:26:06:18 01:26:12:14 
*FROM CLIP NAME:  31K1/02 
*SOURCE FILE: 19Y07M25
005846  19Y07M25                         A2    C        12:08:28:14 12:08:34:10 01:26:06:18 01:26:12:14 
*FROM CLIP NAME:  31K1/02 
*SOURCE FILE: 19Y07M25
005847  19Y07M25                         A3    C        12:08:28:14 12:08:34:10 01:26:06:18 01:26:12:14 
*FROM CLIP NAME:  31K1/02 
*SOURCE FILE: 19Y07M25
005848  19Y07M25                         A4    C        12:08:28:14 12:08:34:10 01:26:06:18 01:26:12:14 
*FROM CLIP NAME:  31K1/02 
*PATCH 19Y07M25:  FROM SOURCE 5 TO RECORD 4 
*SOURCE FILE: 19Y07M25
005849  19Y07M25                         A5    C        12:08:28:14 12:08:34:10 01:26:06:18 01:26:12:14 
*FROM CLIP NAME:  31K1/02 
*PATCH 19Y07M25:  FROM SOURCE 7 TO RECORD 5 
*SOURCE FILE: 19Y07M25
005850  A002C005_190725_R32C             V     C        00:34:38:21 00:34:42:12 01:26:12:14 01:26:16:05 
*FROM CLIP NAME:  A002C005_190725_R32C.NEW.01 
*SOURCE FILE: A002C005_190725_R32C
005851  19Y07M25                         A     C        16:06:10:05 16:06:13:22 01:26:12:14 01:26:16:06 
*FROM CLIP NAME:  31K5/02 
*SOURCE FILE: 19Y07M25
005852  19Y07M25                         A2    C        16:06:10:05 16:06:13:22 01:26:12:14 01:26:16:06 
*FROM CLIP NAME:  31K5/02 
*SOURCE FILE: 19Y07M25
005853  19Y07M25                         A3    C        16:06:10:05 16:06:13:22 01:26:12:14 01:26:16:06 
*FROM CLIP NAME:  31K5/02 
*SOURCE FILE: 19Y07M25
005854  19Y07M25                         A4    C        16:06:10:05 16:06:13:23 01:26:12:14 01:26:16:07 
*FROM CLIP NAME:  31K5/02 
*PATCH 19Y07M25:  FROM SOURCE 5 TO RECORD 4 
*SOURCE FILE: 19Y07M25
005855  19Y07M25                         A5    C        16:06:10:05 16:06:13:23 01:26:12:14 01:26:16:07 
*FROM CLIP NAME:  31K5/02 
*PATCH 19Y07M25:  FROM SOURCE 7 TO RECORD 5 
*SOURCE FILE: 19Y07M25
005856  A003C004_190725_R32C             V     C        17:12:33:01 17:12:35:04 01:26:16:05 01:26:18:08 
*FROM CLIP NAME:  A003C004_190725_R32C.NEW.01 
*SOURCE FILE: A003C004_190725_R32C
005857  19Y07M25                         A     C        17:38:16:00 17:38:17:18 01:26:16:06 01:26:17:24 
*FROM CLIP NAME:  31K8/03 
*PATCH 19Y07M25:  FROM SOURCE 2 TO RECORD 1 
*SOURCE FILE: 19Y07M25
005858  19Y07M25                         A2    C        17:38:16:00 17:38:17:18 01:26:16:06 01:26:17:24 
*FROM CLIP NAME:  31K8/03 
*PATCH 19Y07M25:  FROM SOURCE 5 TO RECORD 2 
*SOURCE FILE: 19Y07M25
005859  19Y07M25                         A3    C        17:38:16:00 17:38:17:18 01:26:16:06 01:26:17:24 
*FROM CLIP NAME:  31K8/03 
*PATCH 19Y07M25:  FROM SOURCE 7 TO RECORD 3 
*SOURCE FILE: 19Y07M25
005860  19Y07M25                         A     C        16:46:24:21 16:46:25:05 01:26:17:24 01:26:18:08 
*FROM CLIP NAME:  31K6/03 
*SOURCE FILE: 19Y07M25
005861  19Y07M25                         A2    C        16:46:24:21 16:46:25:05 01:26:17:24 01:26:18:08 
*FROM CLIP NAME:  31K6/03 
*SOURCE FILE: 19Y07M25
005862  19Y07M25                         A3    C        16:46:24:21 16:46:25:05 01:26:17:24 01:26:18:08 
*FROM CLIP NAME:  31K6/03 
*SOURCE FILE: 19Y07M25
005863  19Y07M25                         A4    C        16:46:24:21 16:46:25:05 01:26:17:24 01:26:18:08 
*FROM CLIP NAME:  31K6/03 
*PATCH 19Y07M25:  FROM SOURCE 5 TO RECORD 4 
*SOURCE FILE: 19Y07M25
005864  19Y07M25                         A5    C        16:46:24:21 16:46:25:05 01:26:17:24 01:26:18:08 
*FROM CLIP NAME:  31K6/03 
*PATCH 19Y07M25:  FROM SOURCE 7 TO RECORD 5 
*SOURCE FILE: 19Y07M25
005865  19Y07M25                         A     C        17:38:16:01 17:38:17:18 01:26:18:08 01:26:20:00 
*FROM CLIP NAME:  31K8/03 
*PATCH 19Y07M25:  FROM SOURCE 2 TO RECORD 1 
*SOURCE FILE: 19Y07M25
005866  19Y07M25                         A2    C        17:38:16:01 17:38:17:18 01:26:18:08 01:26:20:00 
*FROM CLIP NAME:  31K8/03 
*PATCH 19Y07M25:  FROM SOURCE 5 TO RECORD 2 
*SOURCE FILE: 19Y07M25
005867  19Y07M25                         A3    C        17:38:16:01 17:38:17:18 01:26:18:08 01:26:20:00 
*FROM CLIP NAME:  31K8/03 
*PATCH 19Y07M25:  FROM SOURCE 7 TO RECORD 3 
*SOURCE FILE: 19Y07M25
005868  A002C005_190725_R32C             V     C        00:34:50:07 00:34:55:06 01:26:18:08 01:26:23:07 
*FROM CLIP NAME:  A002C005_190725_R32C.NEW.01 
*SOURCE FILE: A002C005_190725_R32C
005869  19Y07M25                         A     C        16:06:23:08 16:06:26:15 01:26:20:00 01:26:23:07 
*FROM CLIP NAME:  31K5/02 
*SOURCE FILE: 19Y07M25
005870  19Y07M25                         A2    C        16:06:23:08 16:06:26:15 01:26:20:00 01:26:23:07 
*FROM CLIP NAME:  31K5/02 
*SOURCE FILE: 19Y07M25
005871  19Y07M25                         A3    C        16:06:23:08 16:06:26:15 01:26:20:00 01:26:23:07 
*FROM CLIP NAME:  31K5/02 
*SOURCE FILE: 19Y07M25
005872  19Y07M25                         A4    C        16:06:23:08 16:06:26:15 01:26:20:00 01:26:23:07 
*FROM CLIP NAME:  31K5/02 
*PATCH 19Y07M25:  FROM SOURCE 5 TO RECORD 4 
*SOURCE FILE: 19Y07M25
005873  19Y07M25                         A5    C        16:06:23:08 16:06:26:15 01:26:20:00 01:26:23:07 
*FROM CLIP NAME:  31K5/02 
*PATCH 19Y07M25:  FROM SOURCE 7 TO RECORD 5 
*SOURCE FILE: 19Y07M25
005874  19Y07M25                         A     C        12:08:50:10 12:08:51:02 01:26:23:07 01:26:23:24 
*FROM CLIP NAME:  31K1/02 
*SOURCE FILE: 19Y07M25
005875  19Y07M25                         A2    C        12:08:50:10 12:08:51:02 01:26:23:07 01:26:23:24 
*FROM CLIP NAME:  31K1/02 
*SOURCE FILE: 19Y07M25
005876  19Y07M25                         A3    C        12:08:50:10 12:08:51:02 01:26:23:07 01:26:23:24 
*FROM CLIP NAME:  31K1/02 
*SOURCE FILE: 19Y07M25
005877  19Y07M25                         A4    C        12:08:50:10 12:08:51:02 01:26:23:07 01:26:23:24 
*FROM CLIP NAME:  31K1/02 
*PATCH 19Y07M25:  FROM SOURCE 7 TO RECORD 4 
*SOURCE FILE: 19Y07M25
005878  19Y07M25                         A5    C        12:08:50:10 12:08:51:02 01:26:23:07 01:26:23:24 
*FROM CLIP NAME:  31K1/02 
*SOURCE FILE: 19Y07M25
005879  A001C002_190725_R32C             V     C        12:08:50:10 12:08:52:14 01:26:23:07 01:26:25:11 
*FROM CLIP NAME:  A001C002_190725_R32C.NEW.01 
*SOURCE FILE: A001C002_190725_R32C
005880  19Y07M25                         A     C        12:08:36:04 12:08:37:23 01:26:23:24 01:26:25:18 
*FROM CLIP NAME:  31K1/02 
*SOURCE FILE: 19Y07M25
005881  19Y07M25                         A2    C        12:08:36:04 12:08:37:23 01:26:23:24 01:26:25:18 
*FROM CLIP NAME:  31K1/02 
*SOURCE FILE: 19Y07M25
005882  19Y07M25                         A3    C        12:08:36:04 12:08:37:23 01:26:23:24 01:26:25:18 
*FROM CLIP NAME:  31K1/02 
*SOURCE FILE: 19Y07M25
005883  19Y07M25                         A4    C        12:08:36:04 12:08:37:23 01:26:23:24 01:26:25:18 
*FROM CLIP NAME:  31K1/02 
*PATCH 19Y07M25:  FROM SOURCE 7 TO RECORD 4 
*SOURCE FILE: 19Y07M25
005884  19Y07M25                         A5    C        12:08:36:04 12:08:37:23 01:26:23:24 01:26:25:18 
*FROM CLIP NAME:  31K1/02 
*SOURCE FILE: 19Y07M25
005885  A002C005_190725_R32C             V     C        00:34:56:04 00:34:58:19 01:26:25:11 01:26:28:01 
*FROM CLIP NAME:  A002C005_190725_R32C.NEW.01 
*SOURCE FILE: A002C005_190725_R32C
005886  19Y07M25                         A     C        16:06:27:20 16:06:30:03 01:26:25:18 01:26:28:01 
*FROM CLIP NAME:  31K5/02 
*SOURCE FILE: 19Y07M25
005887  19Y07M25                         A2    C        16:06:27:20 16:06:30:03 01:26:25:18 01:26:28:01 
*FROM CLIP NAME:  31K5/02 
*SOURCE FILE: 19Y07M25
005888  19Y07M25                         A3    C        16:06:27:20 16:06:30:03 01:26:25:18 01:26:28:01 
*FROM CLIP NAME:  31K5/02 
*SOURCE FILE: 19Y07M25
005889  19Y07M25                         A4    C        16:06:27:20 16:06:30:03 01:26:25:18 01:26:28:01 
*FROM CLIP NAME:  31K5/02 
*PATCH 19Y07M25:  FROM SOURCE 5 TO RECORD 4 
*SOURCE FILE: 19Y07M25
005890  19Y07M25                         A5    C        16:06:27:20 16:06:30:03 01:26:25:18 01:26:28:01 
*FROM CLIP NAME:  31K5/02 
*PATCH 19Y07M25:  FROM SOURCE 7 TO RECORD 5 
*SOURCE FILE: 19Y07M25
005891  A001C003_190725_R32C             V     C        12:17:27:00 12:17:30:08 01:26:28:01 01:26:31:09 
*FROM CLIP NAME:  A001C003_190725_R32C.NEW.01 
*SOURCE FILE: A001C003_190725_R32C
005892  19Y07M25                         A     C        12:17:27:00 12:17:30:08 01:26:28:01 01:26:31:09 
*FROM CLIP NAME:  31K1/03 
*SOURCE FILE: 19Y07M25
005893  19Y07M25                         A2    C        12:17:27:00 12:17:30:08 01:26:28:01 01:26:31:09 
*FROM CLIP NAME:  31K1/03 
*SOURCE FILE: 19Y07M25
005894  19Y07M25                         A3    C        12:17:27:00 12:17:30:08 01:26:28:01 01:26:31:09 
*FROM CLIP NAME:  31K1/03 
*SOURCE FILE: 19Y07M25
005895  19Y07M25                         A4    C        12:17:27:00 12:17:30:08 01:26:28:01 01:26:31:09 
*FROM CLIP NAME:  31K1/03 
*PATCH 19Y07M25:  FROM SOURCE 5 TO RECORD 4 
*SOURCE FILE: 19Y07M25
005896  19Y07M25                         A5    C        12:17:27:00 12:17:30:08 01:26:28:01 01:26:31:09 
*FROM CLIP NAME:  31K1/03 
*PATCH 19Y07M25:  FROM SOURCE 7 TO RECORD 5 
*SOURCE FILE: 19Y07M25
005897  A002C005_190725_R32C             V     C        00:35:04:02 00:35:05:15 01:26:31:09 01:26:32:22 
*FROM CLIP NAME:  A002C005_190725_R32C.NEW.01 
*SOURCE FILE: A002C005_190725_R32C
005898  19Y07M25                         A     C        16:06:35:11 16:06:36:24 01:26:31:09 01:26:32:22 
*FROM CLIP NAME:  31K5/02 
*SOURCE FILE: 19Y07M25
005899  19Y07M25                         A2    C        16:06:35:11 16:06:36:24 01:26:31:09 01:26:32:22 
*FROM CLIP NAME:  31K5/02 
*SOURCE FILE: 19Y07M25
005900  19Y07M25                         A3    C        16:06:35:11 16:06:36:24 01:26:31:09 01:26:32:22 
*FROM CLIP NAME:  31K5/02 
*SOURCE FILE: 19Y07M25
005901  19Y07M25                         A4    C        16:06:35:11 16:06:36:24 01:26:31:09 01:26:32:22 
*FROM CLIP NAME:  31K5/02 
*PATCH 19Y07M25:  FROM SOURCE 5 TO RECORD 4 
*SOURCE FILE: 19Y07M25
005902  19Y07M25                         A5    C        16:06:35:11 16:06:36:24 01:26:31:09 01:26:32:22 
*FROM CLIP NAME:  31K5/02 
*PATCH 19Y07M25:  FROM SOURCE 7 TO RECORD 5 
*SOURCE FILE: 19Y07M25
005903  A001C003_190725_R32C             V     C        12:17:34:12 12:17:37:12 01:26:32:22 01:26:35:22 
*FROM CLIP NAME:  A001C003_190725_R32C.NEW.01 
*SOURCE FILE: A001C003_190725_R32C
005904  19Y07M25                         A     C        12:17:34:12 12:17:37:12 01:26:32:22 01:26:35:22 
*FROM CLIP NAME:  31K1/03 
*SOURCE FILE: 19Y07M25
005905  19Y07M25                         A2    C        12:17:34:12 12:17:37:12 01:26:32:22 01:26:35:22 
*FROM CLIP NAME:  31K1/03 
*SOURCE FILE: 19Y07M25
005906  19Y07M25                         A3    C        12:17:34:12 12:17:37:12 01:26:32:22 01:26:35:22 
*FROM CLIP NAME:  31K1/03 
*SOURCE FILE: 19Y07M25
005907  19Y07M25                         A4    C        12:17:34:12 12:17:37:12 01:26:32:22 01:26:35:22 
*FROM CLIP NAME:  31K1/03 
*PATCH 19Y07M25:  FROM SOURCE 5 TO RECORD 4 
*SOURCE FILE: 19Y07M25
005908  19Y07M25                         A5    C        12:17:34:12 12:17:37:12 01:26:32:22 01:26:35:22 
*FROM CLIP NAME:  31K1/03 
*PATCH 19Y07M25:  FROM SOURCE 7 TO RECORD 5 
*SOURCE FILE: 19Y07M25
005909  19Y07M25                         A     C        12:17:38:01 12:17:38:05 01:26:35:22 01:26:36:01 
*FROM CLIP NAME:  31K1/03 
*SOURCE FILE: 19Y07M25
005910  19Y07M25                         A2    C        12:17:38:01 12:17:38:05 01:26:35:22 01:26:36:01 
*FROM CLIP NAME:  31K1/03 
*SOURCE FILE: 19Y07M25
005911  19Y07M25                         A3    C        12:17:38:01 12:17:38:05 01:26:35:22 01:26:36:01 
*FROM CLIP NAME:  31K1/03 
*SOURCE FILE: 19Y07M25
005912  19Y07M25                         A4    C        12:17:38:01 12:17:38:05 01:26:35:22 01:26:36:01 
*FROM CLIP NAME:  31K1/03 
*PATCH 19Y07M25:  FROM SOURCE 5 TO RECORD 4 
*SOURCE FILE: 19Y07M25
005913  19Y07M25                         A5    C        12:17:38:01 12:17:38:05 01:26:35:22 01:26:36:01 
*FROM CLIP NAME:  31K1/03 
*PATCH 19Y07M25:  FROM SOURCE 7 TO RECORD 5 
*SOURCE FILE: 19Y07M25
005914  A002C004_190725_R32C             V     C        00:28:53:02 00:28:56:19 01:26:35:22 01:26:39:14 
*FROM CLIP NAME:  A002C004_190725_R32C.NEW.01 
*SOURCE FILE: A002C004_190725_R32C
005915  19Y07M25                         A     C        16:00:24:15 16:00:28:03 01:26:36:01 01:26:39:14 
*FROM CLIP NAME:  31K5/01 
*SOURCE FILE: 19Y07M25
005916  19Y07M25                         A2    C        16:00:24:15 16:00:28:03 01:26:36:01 01:26:39:14 
*FROM CLIP NAME:  31K5/01 
*SOURCE FILE: 19Y07M25
005917  19Y07M25                         A3    C        16:00:24:15 16:00:28:03 01:26:36:01 01:26:39:14 
*FROM CLIP NAME:  31K5/01 
*SOURCE FILE: 19Y07M25
005918  19Y07M25                         A4    C        16:00:24:15 16:00:28:03 01:26:36:01 01:26:39:14 
*FROM CLIP NAME:  31K5/01 
*PATCH 19Y07M25:  FROM SOURCE 5 TO RECORD 4 
*SOURCE FILE: 19Y07M25
005919  19Y07M25                         A5    C        16:00:24:15 16:00:28:03 01:26:36:01 01:26:39:14 
*FROM CLIP NAME:  31K5/01 
*PATCH 19Y07M25:  FROM SOURCE 7 TO RECORD 5 
*SOURCE FILE: 19Y07M25
005920  A001C003_190725_R32C             V     C        12:17:43:15 12:17:50:02 01:26:39:14 01:26:46:01 
*FROM CLIP NAME:  A001C003_190725_R32C.NEW.01 
*SOURCE FILE: A001C003_190725_R32C
005921  19Y07M25                         A     C        12:17:43:15 12:17:50:02 01:26:39:14 01:26:46:01 
*FROM CLIP NAME:  31K1/03 
*SOURCE FILE: 19Y07M25
005922  19Y07M25                         A2    C        12:17:43:15 12:17:50:02 01:26:39:14 01:26:46:01 
*FROM CLIP NAME:  31K1/03 
*SOURCE FILE: 19Y07M25
005923  19Y07M25                         A3    C        12:17:43:15 12:17:50:02 01:26:39:14 01:26:46:01 
*FROM CLIP NAME:  31K1/03 
*SOURCE FILE: 19Y07M25
005924  19Y07M25                         A4    C        12:17:43:15 12:17:50:02 01:26:39:14 01:26:46:01 
*FROM CLIP NAME:  31K1/03 
*PATCH 19Y07M25:  FROM SOURCE 5 TO RECORD 4 
*SOURCE FILE: 19Y07M25
005925  19Y07M25                         A5    C        12:17:43:15 12:17:50:02 01:26:39:14 01:26:46:01 
*FROM CLIP NAME:  31K1/03 
*PATCH 19Y07M25:  FROM SOURCE 7 TO RECORD 5 
*SOURCE FILE: 19Y07M25
005926  A002C004_190725_R32C             V     C        00:29:06:08 00:29:08:09 01:26:46:01 01:26:48:02 
*FROM CLIP NAME:  A002C004_190725_R32C.NEW.01 
*SOURCE FILE: A002C004_190725_R32C
005927  19Y07M25                         A     C        16:00:37:17 16:00:48:20 01:26:46:01 01:26:57:04 
*FROM CLIP NAME:  31K5/01 
*SOURCE FILE: 19Y07M25
005928  19Y07M25                         A2    C        16:00:37:17 16:00:48:20 01:26:46:01 01:26:57:04 
*FROM CLIP NAME:  31K5/01 
*SOURCE FILE: 19Y07M25
005929  19Y07M25                         A3    C        16:00:37:17 16:00:48:20 01:26:46:01 01:26:57:04 
*FROM CLIP NAME:  31K5/01 
*SOURCE FILE: 19Y07M25
005930  19Y07M25                         A4    C        16:00:37:17 16:00:48:20 01:26:46:01 01:26:57:04 
*FROM CLIP NAME:  31K5/01 
*PATCH 19Y07M25:  FROM SOURCE 5 TO RECORD 4 
*SOURCE FILE: 19Y07M25
005931  19Y07M25                         A5    C        16:00:37:17 16:00:48:20 01:26:46:01 01:26:57:04 
*FROM CLIP NAME:  31K5/01 
*PATCH 19Y07M25:  FROM SOURCE 7 TO RECORD 5 
*SOURCE FILE: 19Y07M25
005932  A001C003_190725_R32C             V     C        12:17:52:08 12:17:54:09 01:26:48:02 01:26:50:03 
*FROM CLIP NAME:  A001C003_190725_R32C.NEW.01 
*SOURCE FILE: A001C003_190725_R32C
005933  A002C004_190725_R32C             V     C        00:29:10:10 00:29:11:19 01:26:50:03 01:26:51:12 
*FROM CLIP NAME:  A002C004_190725_R32C.NEW.01 
*SOURCE FILE: A002C004_190725_R32C
005934  A001C003_190725_R32C             V     C        12:18:00:15 12:18:02:00 01:26:51:12 01:26:52:22 
*FROM CLIP NAME:  A001C003_190725_R32C.NEW.01 
*SOURCE FILE: A001C003_190725_R32C
005935  A002C004_190725_R32C             V     C        00:29:13:04 00:29:17:11 01:26:52:22 01:26:57:04 
*FROM CLIP NAME:  A002C004_190725_R32C.NEW.01 
*SOURCE FILE: A002C004_190725_R32C
005936  A001C003_190725_R32C             V     C        12:18:02:10 12:18:08:20 01:26:57:04 01:27:03:14 
*FROM CLIP NAME:  A001C003_190725_R32C.NEW.01 
*SOURCE FILE: A001C003_190725_R32C
005937  19Y07M25                         A     C        12:18:02:10 12:18:13:24 01:26:57:04 01:27:08:18 
*FROM CLIP NAME:  31K1/03 
*SOURCE FILE: 19Y07M25
005938  19Y07M25                         A2    C        12:18:02:10 12:18:13:24 01:26:57:04 01:27:08:18 
*FROM CLIP NAME:  31K1/03 
*SOURCE FILE: 19Y07M25
005939  19Y07M25                         A3    C        12:18:02:10 12:18:13:24 01:26:57:04 01:27:08:18 
*FROM CLIP NAME:  31K1/03 
*SOURCE FILE: 19Y07M25
005940  19Y07M25                         A4    C        12:18:02:10 12:18:13:24 01:26:57:04 01:27:08:18 
*FROM CLIP NAME:  31K1/03 
*PATCH 19Y07M25:  FROM SOURCE 5 TO RECORD 4 
*SOURCE FILE: 19Y07M25
005941  19Y07M25                         A5    C        12:18:02:10 12:18:13:24 01:26:57:04 01:27:08:18 
*FROM CLIP NAME:  31K1/03 
*PATCH 19Y07M25:  FROM SOURCE 7 TO RECORD 5 
*SOURCE FILE: 19Y07M25
005942  A002C004_190725_R32C             V     C        00:29:21:09 00:29:22:22 01:27:03:14 01:27:05:02 
*FROM CLIP NAME:  A002C004_190725_R32C.NEW.01 
*SOURCE FILE: A002C004_190725_R32C
005943  A001C003_190725_R32C             V     C        12:18:10:08 12:18:13:15 01:27:05:02 01:27:08:09 
*FROM CLIP NAME:  A001C003_190725_R32C.NEW.01 
*SOURCE FILE: A001C003_190725_R32C
005944  A002C004_190725_R32C             V     C        00:29:28:18 00:29:33:10 01:27:08:09 01:27:13:01 
*FROM CLIP NAME:  A002C004_190725_R32C.NEW.01 
*SOURCE FILE: A002C004_190725_R32C
005945  19Y07M25                         A     C        16:01:00:11 16:01:05:03 01:27:08:18 01:27:13:10 
*FROM CLIP NAME:  31K5/01 
*SOURCE FILE: 19Y07M25
005946  19Y07M25                         A2    C        16:01:00:11 16:01:05:03 01:27:08:18 01:27:13:10 
*FROM CLIP NAME:  31K5/01 
*SOURCE FILE: 19Y07M25
005947  19Y07M25                         A3    C        16:01:00:11 16:01:05:03 01:27:08:18 01:27:13:10 
*FROM CLIP NAME:  31K5/01 
*SOURCE FILE: 19Y07M25
005948  19Y07M25                         A4    C        16:01:00:11 16:01:05:03 01:27:08:18 01:27:13:10 
*FROM CLIP NAME:  31K5/01 
*PATCH 19Y07M25:  FROM SOURCE 5 TO RECORD 4 
*SOURCE FILE: 19Y07M25
005949  19Y07M25                         A5    C        16:01:00:11 16:01:05:03 01:27:08:18 01:27:13:10 
*FROM CLIP NAME:  31K5/01 
*PATCH 19Y07M25:  FROM SOURCE 7 TO RECORD 5 
*SOURCE FILE: 19Y07M25
005950  A001C003_190725_R32C             V     C        12:18:18:01 12:18:21:09 01:27:13:01 01:27:16:09 
*FROM CLIP NAME:  A001C003_190725_R32C.NEW.01 
*SOURCE FILE: A001C003_190725_R32C
005951  19Y07M25                         A     C        12:18:18:10 12:18:21:18 01:27:13:10 01:27:16:18 
*FROM CLIP NAME:  31K1/03 
*SOURCE FILE: 19Y07M25
005952  19Y07M25                         A2    C        12:18:18:10 12:18:21:18 01:27:13:10 01:27:16:18 
*FROM CLIP NAME:  31K1/03 
*SOURCE FILE: 19Y07M25
005953  19Y07M25                         A3    C        12:18:18:10 12:18:21:18 01:27:13:10 01:27:16:18 
*FROM CLIP NAME:  31K1/03 
*SOURCE FILE: 19Y07M25
005954  19Y07M25                         A4    C        12:18:18:10 12:18:21:18 01:27:13:10 01:27:16:18 
*FROM CLIP NAME:  31K1/03 
*PATCH 19Y07M25:  FROM SOURCE 5 TO RECORD 4 
*SOURCE FILE: 19Y07M25
005955  19Y07M25                         A5    C        12:18:18:10 12:18:21:18 01:27:13:10 01:27:16:18 
*FROM CLIP NAME:  31K1/03 
*PATCH 19Y07M25:  FROM SOURCE 7 TO RECORD 5 
*SOURCE FILE: 19Y07M25
005956  A002C005_190725_R32C             V     C        00:39:10:13 00:39:17:20 01:27:16:09 01:27:23:16 
*FROM CLIP NAME:  A002C005_190725_R32C.NEW.01 
*SOURCE FILE: A002C005_190725_R32C
005957  19Y07M25                         A     C        12:18:18:11 12:18:18:19 01:27:16:18 01:27:17:01 
*FROM CLIP NAME:  31K1/03 
*PATCH 19Y07M25:  FROM SOURCE 7 TO RECORD 1 
*SOURCE FILE: 19Y07M25
005958  19Y07M25                         A2    C        12:18:18:11 12:18:18:19 01:27:16:18 01:27:17:01 
*FROM CLIP NAME:  31K1/03 
*SOURCE FILE: 19Y07M25
005959  19Y07M25                         A3    C        12:18:18:11 12:18:18:19 01:27:16:18 01:27:17:01 
*FROM CLIP NAME:  31K1/03 
*SOURCE FILE: 19Y07M25
005960  19Y07M25                         A4    C        12:18:18:11 12:18:18:19 01:27:16:18 01:27:17:01 
*FROM CLIP NAME:  31K1/03 
*PATCH 19Y07M25:  FROM SOURCE 1 TO RECORD 4 
*SOURCE FILE: 19Y07M25
005961  19Y07M25                         A5    C        12:18:18:11 12:18:18:19 01:27:16:18 01:27:17:01 
*FROM CLIP NAME:  31K1/03 
*SOURCE FILE: 19Y07M25
005962  19Y07M25                         A     C        16:10:42:14 16:10:49:04 01:27:17:01 01:27:23:16 
*FROM CLIP NAME:  31K5/02 
*SOURCE FILE: 19Y07M25
005963  19Y07M25                         A2    C        16:10:42:14 16:10:49:04 01:27:17:01 01:27:23:16 
*FROM CLIP NAME:  31K5/02 
*SOURCE FILE: 19Y07M25
005964  19Y07M25                         A3    C        16:10:42:14 16:10:49:04 01:27:17:01 01:27:23:16 
*FROM CLIP NAME:  31K5/02 
*SOURCE FILE: 19Y07M25
005965  19Y07M25                         A4    C        16:10:42:14 16:10:49:04 01:27:17:01 01:27:23:16 
*FROM CLIP NAME:  31K5/02 
*PATCH 19Y07M25:  FROM SOURCE 5 TO RECORD 4 
*SOURCE FILE: 19Y07M25
005966  19Y07M25                         A5    C        16:10:42:14 16:10:49:04 01:27:17:01 01:27:23:16 
*FROM CLIP NAME:  31K5/02 
*PATCH 19Y07M25:  FROM SOURCE 7 TO RECORD 5 
*SOURCE FILE: 19Y07M25
005967  A001C001_190725_R32C             V     C        12:01:37:17 12:01:39:13 01:27:23:16 01:27:25:12 
*FROM CLIP NAME:  A001C001_190725_R32C.NEW.01 
*SOURCE FILE: A001C001_190725_R32C
005968  19Y07M25                         A     C        16:09:57:14 16:10:00:08 01:27:23:16 01:27:26:10 
*FROM CLIP NAME:  31K5/02 
*SOURCE FILE: 19Y07M25
005969  19Y07M25                         A2    C        16:09:57:14 16:10:00:08 01:27:23:16 01:27:26:10 
*FROM CLIP NAME:  31K5/02 
*SOURCE FILE: 19Y07M25
005970  19Y07M25                         A3    C        16:09:57:14 16:10:00:08 01:27:23:16 01:27:26:10 
*FROM CLIP NAME:  31K5/02 
*SOURCE FILE: 19Y07M25
005971  19Y07M25                         A4    C        16:09:57:14 16:10:00:08 01:27:23:16 01:27:26:10 
*FROM CLIP NAME:  31K5/02 
*PATCH 19Y07M25:  FROM SOURCE 5 TO RECORD 4 
*SOURCE FILE: 19Y07M25
005972  19Y07M25                         A5    C        16:09:57:14 16:10:00:08 01:27:23:16 01:27:26:10 
*FROM CLIP NAME:  31K5/02 
*PATCH 19Y07M25:  FROM SOURCE 7 TO RECORD 5 
*SOURCE FILE: 19Y07M25
005973  A003C010_190725_R32C             V     C        18:18:55:03 18:18:58:09 01:27:25:12 01:27:28:18 
*FROM CLIP NAME:  A003C010_190725_R32C.NEW.01 
*SOURCE FILE: A003C010_190725_R32C
005974  19Y07M25                         A6    C        12:48:48:04 12:48:49:22 01:27:25:22 01:27:27:15 
*FROM CLIP NAME:  31K2/01 
*A6 VOL = -30.0 DB  PAN L100 
*PATCH 19Y07M25:  FROM SOURCE 2 TO RECORD 6 
*SOURCE FILE: 19Y07M25
005975  19Y07M25                         A7    C        12:48:48:04 12:48:49:22 01:27:25:22 01:27:27:15 
*FROM CLIP NAME:  31K2/01 
*A7 VOL = -28.3 DB  PAN R100 
*PATCH 19Y07M25:  FROM SOURCE 1 TO RECORD 7 
*SOURCE FILE: 19Y07M25
005976  19Y07M25                         A8    C        12:48:48:04 12:48:49:22 01:27:25:22 01:27:27:15 
*FROM CLIP NAME:  31K2/01 
*A8 VOL =  -6.0 DB  PAN L100 
*PATCH 19Y07M25:  FROM SOURCE 7 TO RECORD 8 
*SOURCE FILE: 19Y07M25
005977  19Y07M25                         A9    C        12:48:48:04 12:48:49:22 01:27:25:22 01:27:27:15 
*FROM CLIP NAME:  31K2/01 
*A9 VOL =  -4.0 DB  PAN R100 
*PATCH 19Y07M25:  FROM SOURCE 3 TO RECORD 9 
*SOURCE FILE: 19Y07M25
005978  19Y07M25                         A10   C        12:48:48:04 12:48:49:22 01:27:25:22 01:27:27:15 
*FROM CLIP NAME:  31K2/01 
*PATCH 19Y07M25:  FROM SOURCE 5 TO RECORD 10 
*SOURCE FILE: 19Y07M25
005979  C0162                            A     C        01:44:05:19 01:44:06:21 01:27:26:10 01:27:27:12 
*FROM CLIP NAME:  C0162.NEW.01 
*A1 VOL = -17.1 DB  PAN R100 
*SOURCE FILE: C0162
005980  C0162                            A2    C        01:44:05:19 01:44:06:21 01:27:26:10 01:27:27:12 
*FROM CLIP NAME:  C0162.NEW.01 
*A2 VOL = -17.1 DB  PAN L100 
*SOURCE FILE: C0162
005981  19Y07M25                         A3    C        18:18:56:10 18:18:57:12 01:27:26:10 01:27:27:12 
*FROM CLIP NAME:  31K9/01 
*A3 VOL = -17.1 DB  PAN R100 
*SOURCE FILE: 19Y07M25
005982  19Y07M25                         A4    C        18:18:56:10 18:18:57:12 01:27:26:10 01:27:27:12 
*FROM CLIP NAME:  31K9/01 
*A4 VOL = -17.1 DB  PAN L100 
*SOURCE FILE: 19Y07M25
005983  19Y07M25                         A11   C        16:10:55:02 16:10:56:11 01:27:27:09 01:27:28:18 
*FROM CLIP NAME:  31K5/02 
*A11 VOL = -15.0 DB  PAN R100 
*PATCH 19Y07M25:  FROM SOURCE 1 TO RECORD 11 
*SOURCE FILE: 19Y07M25
005984  19Y07M25                         A12   C        16:10:55:02 16:10:56:11 01:27:27:09 01:27:28:18 
*FROM CLIP NAME:  31K5/02 
*A12 VOL = -15.0 DB  PAN L100 
*PATCH 19Y07M25:  FROM SOURCE 2 TO RECORD 12 
*SOURCE FILE: 19Y07M25
005985  19Y07M25                         A13   C        16:10:55:02 16:10:56:11 01:27:27:09 01:27:28:18 
*FROM CLIP NAME:  31K5/02 
*A13 VOL = -15.0 DB  PAN R100 
*PATCH 19Y07M25:  FROM SOURCE 3 TO RECORD 13 
*SOURCE FILE: 19Y07M25
005986  19Y07M25                         A14   C        16:10:55:02 16:10:56:11 01:27:27:09 01:27:28:18 
*FROM CLIP NAME:  31K5/02 
*A14 VOL = -15.0 DB  PAN L100 
*PATCH 19Y07M25:  FROM SOURCE 5 TO RECORD 14 
*SOURCE FILE: 19Y07M25
005987  19Y07M25                         A15   C        16:10:55:02 16:10:56:11 01:27:27:09 01:27:28:18 
*FROM CLIP NAME:  31K5/02 
*A15 VOL = -15.0 DB  PAN R100 
*PATCH 19Y07M25:  FROM SOURCE 7 TO RECORD 15 
*SOURCE FILE: 19Y07M25
005988  BL                               V     C        00:00:00:00 00:00:00:19 01:27:27:12 01:27:28:06 
*SOURCE FILE: (NULL)
005989  BL                               V     C        00:00:00:00 00:00:00:08 01:27:28:06 01:27:28:14 
*SOURCE FILE: (NULL)
005990  BL                               V     C        00:00:00:00 00:00:03:16 01:27:28:14 01:27:32:05 
*SOURCE FILE: (NULL)
005991  19Y07M25                         A     C        19:00:22:19 19:00:23:10 01:27:28:18 01:27:29:09 
*FROM CLIP NAME:  31K12/02 
*SOURCE FILE: 19Y07M25
005992  19Y07M25                         A2    C        19:00:22:19 19:00:23:10 01:27:28:18 01:27:29:09 
*FROM CLIP NAME:  31K12/02 
*SOURCE FILE: 19Y07M25
005993  19Y07M25                         A3    C        19:00:22:19 19:00:23:10 01:27:28:18 01:27:29:09 
*FROM CLIP NAME:  31K12/02 
*SOURCE FILE: 19Y07M25
005994  19Y07M25                         A4    C        19:00:22:19 19:00:23:10 01:27:28:18 01:27:29:09 
*FROM CLIP NAME:  31K12/02 
*PATCH 19Y07M25:  FROM SOURCE 7 TO RECORD 4 
*SOURCE FILE: 19Y07M25
005995  19Y07M25                         A5    C        19:00:22:19 19:00:23:10 01:27:28:18 01:27:29:09 
*FROM CLIP NAME:  31K12/02 
*PATCH 19Y07M25:  FROM SOURCE 4 TO RECORD 5 
*SOURCE FILE: 19Y07M25
005996  19Y07M25                         A11   C        16:10:56:11 16:10:57:06 01:27:28:18 01:27:29:13 
*FROM CLIP NAME:  31K5/02 
*A11 VOL = -15.0 DB  PAN R100 
*PATCH 19Y07M25:  FROM SOURCE 1 TO RECORD 11 
*SOURCE FILE: 19Y07M25
005997  19Y07M25                         A12   C        16:10:56:11 16:10:57:06 01:27:28:18 01:27:29:13 
*FROM CLIP NAME:  31K5/02 
*A12 VOL = -15.0 DB  PAN L100 
*PATCH 19Y07M25:  FROM SOURCE 2 TO RECORD 12 
*SOURCE FILE: 19Y07M25
005998  19Y07M25                         A13   C        16:10:56:11 16:10:57:06 01:27:28:18 01:27:29:13 
*FROM CLIP NAME:  31K5/02 
*A13 VOL = -15.0 DB  PAN R100 
*PATCH 19Y07M25:  FROM SOURCE 3 TO RECORD 13 
*SOURCE FILE: 19Y07M25
005999  19Y07M25                         A14   C        16:10:56:11 16:10:57:06 01:27:28:18 01:27:29:13 
*FROM CLIP NAME:  31K5/02 
*A14 VOL = -15.0 DB  PAN L100 
*PATCH 19Y07M25:  FROM SOURCE 5 TO RECORD 14 
*SOURCE FILE: 19Y07M25
006000  19Y07M25                         A15   C        16:10:56:11 16:10:57:06 01:27:28:18 01:27:29:13 
*FROM CLIP NAME:  31K5/02 
*A15 VOL = -15.0 DB  PAN R100 
*PATCH 19Y07M25:  FROM SOURCE 7 TO RECORD 15 
*SOURCE FILE: 19Y07M25
006001  B001C016_190725_R4CP             V     C        19:00:22:21 19:00:24:00 01:27:28:18 01:27:29:22 
*FROM CLIP NAME:  B001C016_190725_R4CP.NEW.01 
*SOURCE FILE: B001C016_190725_R4CP
006002  19Y07M25                         A12   C        18:18:59:18 18:19:01:10 01:27:29:15 01:27:31:07 
*FROM CLIP NAME:  31K9/01 
*PATCH 19Y07M25:  FROM SOURCE 4 TO RECORD 12 
*SOURCE FILE: 19Y07M25
006003  19Y07M25                         A13   C        18:18:59:18 18:19:01:10 01:27:29:15 01:27:31:07 
*FROM CLIP NAME:  31K9/01 
*PATCH 19Y07M25:  FROM SOURCE 3 TO RECORD 13 
*SOURCE FILE: 19Y07M25
006004  C0162                            A14   C        01:44:09:02 01:44:10:19 01:27:29:15 01:27:31:07 
*FROM CLIP NAME:  C0162.NEW.01 
*PATCH C0162:  FROM SOURCE 2 TO RECORD 14 
*SOURCE FILE: C0162
006005  C0162                            A15   C        01:44:09:02 01:44:10:19 01:27:29:15 01:27:31:07 
*FROM CLIP NAME:  C0162.NEW.01 
*PATCH C0162:  FROM SOURCE 1 TO RECORD 15 
*SOURCE FILE: C0162
006006  19Y07M25                         A     C        19:00:23:19 19:00:23:23 01:27:29:18 01:27:29:22 
*FROM CLIP NAME:  31K12/02 
*SOURCE FILE: 19Y07M25
006007  19Y07M25                         A2    C        19:00:23:19 19:00:23:23 01:27:29:18 01:27:29:22 
*FROM CLIP NAME:  31K12/02 
*SOURCE FILE: 19Y07M25
006008  19Y07M25                         A3    C        19:00:23:19 19:00:23:23 01:27:29:18 01:27:29:22 
*FROM CLIP NAME:  31K12/02 
*SOURCE FILE: 19Y07M25
006009  19Y07M25                         A4    C        19:00:23:19 19:00:23:23 01:27:29:18 01:27:29:22 
*FROM CLIP NAME:  31K12/02 
*PATCH 19Y07M25:  FROM SOURCE 7 TO RECORD 4 
*SOURCE FILE: 19Y07M25
006010  19Y07M25                         A5    C        19:00:23:19 19:00:23:23 01:27:29:18 01:27:29:22 
*FROM CLIP NAME:  31K12/02 
*PATCH 19Y07M25:  FROM SOURCE 4 TO RECORD 5 
*SOURCE FILE: 19Y07M25
006011  B001C012_190725_R4CP             V     C        18:18:57:20 18:18:59:05 01:27:29:22 01:27:31:07 
*FROM CLIP NAME:  B001C012_190725_R4CP.NEW.01 
*SOURCE FILE: B001C012_190725_R4CP
006012  C0162                            A     C        01:44:09:19 01:44:11:04 01:27:29:22 01:27:31:07 
*FROM CLIP NAME:  C0162.NEW.01 
*SOURCE FILE: C0162
006013  C0162                            A2    C        01:44:06:19 01:44:08:04 01:27:29:22 01:27:31:07 
*FROM CLIP NAME:  C0162.NEW.01 
*SOURCE FILE: C0162
006014  19Y07M25                         A3    C        18:18:57:10 18:18:58:20 01:27:29:22 01:27:31:07 
*FROM CLIP NAME:  31K9/01 
*SOURCE FILE: 19Y07M25
006015  19Y07M25                         A5    C        18:18:57:10 18:18:58:20 01:27:29:22 01:27:31:07 
*FROM CLIP NAME:  31K9/01 
*PATCH 19Y07M25:  FROM SOURCE 4 TO RECORD 5 
*SOURCE FILE: 19Y07M25
006016  19Y07M25                         A6    C        19:05:41:17 19:05:42:20 01:27:30:03 01:27:31:06 
*FROM CLIP NAME:  31K12/03 
*PATCH 19Y07M25:  FROM SOURCE 2 TO RECORD 6 
*SOURCE FILE: 19Y07M25
006017  19Y07M25                         A7    C        19:05:41:17 19:05:42:20 01:27:30:03 01:27:31:06 
*FROM CLIP NAME:  31K12/03 
*SOURCE FILE: 19Y07M25
006018  19Y07M25                         A8    C        19:05:41:17 19:05:42:20 01:27:30:03 01:27:31:06 
*FROM CLIP NAME:  31K12/03 
*PATCH 19Y07M25:  FROM SOURCE 4 TO RECORD 8 
*SOURCE FILE: 19Y07M25
006019  19Y07M25                         A9    C        19:05:41:17 19:05:42:20 01:27:30:03 01:27:31:06 
*FROM CLIP NAME:  31K12/03 
*PATCH 19Y07M25:  FROM SOURCE 3 TO RECORD 9 
*SOURCE FILE: 19Y07M25
006020  19Y07M25                         A10   C        19:05:41:17 19:05:42:20 01:27:30:03 01:27:31:06 
*FROM CLIP NAME:  31K12/03 
*PATCH 19Y07M25:  FROM SOURCE 1 TO RECORD 10 
*SOURCE FILE: 19Y07M25
006021  19Y07M25                         A11   C        19:00:27:05 19:00:27:14 01:27:30:10 01:27:30:19 
*FROM CLIP NAME:  31K12/02 
*PATCH 19Y07M25:  FROM SOURCE 7 TO RECORD 11 
*SOURCE FILE: 19Y07M25
006022  19Y07M25                         A11   C        19:00:27:16 19:00:27:21 01:27:30:19 01:27:30:24 
*FROM CLIP NAME:  31K12/02 
*PATCH 19Y07M25:  FROM SOURCE 7 TO RECORD 11 
*SOURCE FILE: 19Y07M25
006023  B001C017_190725_R4CP             V     C        19:05:45:08 19:05:46:15 01:27:31:07 01:27:32:14 
*FROM CLIP NAME:  B001C017_190725_R4CP.NEW.01 
*SOURCE FILE: B001C017_190725_R4CP
006024  19Y07M25                         A     C        19:05:45:06 19:05:46:23 01:27:31:07 01:27:32:24 
*FROM CLIP NAME:  31K12/03 
*SOURCE FILE: 19Y07M25
006025  19Y07M25                         A2    C        19:05:45:06 19:05:46:23 01:27:31:07 01:27:32:24 
*FROM CLIP NAME:  31K12/03 
*SOURCE FILE: 19Y07M25
006026  19Y07M25                         A3    C        19:05:45:06 19:05:46:23 01:27:31:07 01:27:32:24 
*FROM CLIP NAME:  31K12/03 
*SOURCE FILE: 19Y07M25
006027  19Y07M25                         A4    C        19:05:45:06 19:05:46:23 01:27:31:07 01:27:32:24 
*FROM CLIP NAME:  31K12/03 
*SOURCE FILE: 19Y07M25
006028  19Y07M25                         A5    C        19:05:45:06 19:05:46:23 01:27:31:07 01:27:32:24 
*FROM CLIP NAME:  31K12/03 
*PATCH 19Y07M25:  FROM SOURCE 7 TO RECORD 5 
*SOURCE FILE: 19Y07M25
006029  BL                               V     C        00:00:00:00 00:01:47:13 01:27:32:05 01:29:19:18 
*SOURCE FILE: (NULL)
006030  A003C010_190725_R32C             V     C        18:19:02:01 18:19:02:24 01:27:32:14 01:27:33:12 
*FROM CLIP NAME:  A003C010_190725_R32C.NEW.01 
*SOURCE FILE: A003C010_190725_R32C
006031  19Y07M25                         A     C        19:05:46:19 19:05:46:20 01:27:32:24 01:27:33:00 
*FROM CLIP NAME:  31K12/03 
*SOURCE FILE: 19Y07M25
006032  19Y07M25                         A2    C        19:05:46:19 19:05:46:20 01:27:32:24 01:27:33:00 
*FROM CLIP NAME:  31K12/03 
*SOURCE FILE: 19Y07M25
006033  19Y07M25                         A3    C        19:05:46:19 19:05:46:20 01:27:32:24 01:27:33:00 
*FROM CLIP NAME:  31K12/03 
*SOURCE FILE: 19Y07M25
006034  19Y07M25                         A4    C        19:05:46:19 19:05:46:20 01:27:32:24 01:27:33:00 
*FROM CLIP NAME:  31K12/03 
*SOURCE FILE: 19Y07M25
006035  19Y07M25                         A5    C        19:05:46:19 19:05:46:20 01:27:32:24 01:27:33:00 
*FROM CLIP NAME:  31K12/03 
*PATCH 19Y07M25:  FROM SOURCE 7 TO RECORD 5 
*SOURCE FILE: 19Y07M25
006036  19Y07M25                         A     C        19:05:47:16 19:05:50:10 01:27:33:00 01:27:35:19 
*FROM CLIP NAME:  31K12/03 
*SOURCE FILE: 19Y07M25
006037  19Y07M25                         A2    C        19:05:47:16 19:05:50:10 01:27:33:00 01:27:35:19 
*FROM CLIP NAME:  31K12/03 
*SOURCE FILE: 19Y07M25
006038  19Y07M25                         A3    C        19:05:47:16 19:05:50:10 01:27:33:00 01:27:35:19 
*FROM CLIP NAME:  31K12/03 
*SOURCE FILE: 19Y07M25
006039  19Y07M25                         A4    C        19:05:47:16 19:05:50:10 01:27:33:00 01:27:35:19 
*FROM CLIP NAME:  31K12/03 
*SOURCE FILE: 19Y07M25
006040  19Y07M25                         A5    C        19:05:47:16 19:05:50:10 01:27:33:00 01:27:35:19 
*FROM CLIP NAME:  31K12/03 
*PATCH 19Y07M25:  FROM SOURCE 7 TO RECORD 5 
*SOURCE FILE: 19Y07M25
006041  A003C012_190725_R32C             V     C        18:36:40:14 18:36:42:11 01:27:33:12 01:27:35:09 
*FROM CLIP NAME:  A003C012_190725_R32C.NEW.01 
*SOURCE FILE: A003C012_190725_R32C
006042  B001C014_190725_R4CP             V     C        18:52:18:08 18:52:25:11 01:27:35:09 01:27:42:12 
*FROM CLIP NAME:  B001C014_190725_R4CP.NEW.01 
*SOURCE FILE: B001C014_190725_R4CP
006043  19Y07M25                         A     C        18:52:18:16 18:52:25:09 01:27:35:19 01:27:42:12 
*FROM CLIP NAME:  31K11/02 
*SOURCE FILE: 19Y07M25
006044  19Y07M25                         A2    C        18:52:18:16 18:52:25:09 01:27:35:19 01:27:42:12 
*FROM CLIP NAME:  31K11/02 
*SOURCE FILE: 19Y07M25
006045  19Y07M25                         A3    C        18:52:18:16 18:52:25:09 01:27:35:19 01:27:42:12 
*FROM CLIP NAME:  31K11/02 
*SOURCE FILE: 19Y07M25
006046  19Y07M25                         A4    C        18:52:18:16 18:52:25:09 01:27:35:19 01:27:42:12 
*FROM CLIP NAME:  31K11/02 
*SOURCE FILE: 19Y07M25
006047  19Y07M25                         A5    C        18:52:18:16 18:52:25:09 01:27:35:19 01:27:42:12 
*FROM CLIP NAME:  31K11/02 
*PATCH 19Y07M25:  FROM SOURCE 7 TO RECORD 5 
*SOURCE FILE: 19Y07M25
006048  A003C012_190725_R32C             V     C        18:36:52:03 18:36:55:23 01:27:42:12 01:27:46:07 
*FROM CLIP NAME:  A003C012_190725_R32C.NEW.01 
*SOURCE FILE: A003C012_190725_R32C
006049  19Y07M25                         A     C        18:36:52:03 18:36:56:04 01:27:42:12 01:27:46:13 
*FROM CLIP NAME:  31K10/02 
*SOURCE FILE: 19Y07M25
006050  C0167                            A2    C        01:47:06:15 01:47:10:16 01:27:42:12 01:27:46:13 
*FROM CLIP NAME:  C0167.NEW.01 
*SOURCE FILE: C0167
006051  19Y07M25                         A3    C        18:36:52:03 18:36:56:04 01:27:42:12 01:27:46:13 
*FROM CLIP NAME:  31K10/02 
*SOURCE FILE: 19Y07M25
006052  19Y07M25                         A4    C        18:36:52:03 18:36:56:04 01:27:42:12 01:27:46:13 
*FROM CLIP NAME:  31K10/02 
*SOURCE FILE: 19Y07M25
006053  B001C014_190725_R4CP             V     C        18:52:32:17 18:52:35:04 01:27:46:07 01:27:48:19 
*FROM CLIP NAME:  B001C014_190725_R4CP.NEW.01 
*SOURCE FILE: B001C014_190725_R4CP
006054  19Y07M25                         A     C        18:52:32:21 18:52:35:02 01:27:46:13 01:27:48:19 
*FROM CLIP NAME:  31K11/02 
*SOURCE FILE: 19Y07M25
006055  19Y07M25                         A2    C        18:52:32:21 18:52:35:02 01:27:46:13 01:27:48:19 
*FROM CLIP NAME:  31K11/02 
*SOURCE FILE: 19Y07M25
006056  19Y07M25                         A3    C        18:52:32:21 18:52:35:02 01:27:46:13 01:27:48:19 
*FROM CLIP NAME:  31K11/02 
*SOURCE FILE: 19Y07M25
006057  19Y07M25                         A4    C        18:52:32:21 18:52:35:02 01:27:46:13 01:27:48:19 
*FROM CLIP NAME:  31K11/02 
*SOURCE FILE: 19Y07M25
006058  19Y07M25                         A5    C        18:52:32:21 18:52:35:02 01:27:46:13 01:27:48:19 
*FROM CLIP NAME:  31K11/02 
*PATCH 19Y07M25:  FROM SOURCE 7 TO RECORD 5 
*SOURCE FILE: 19Y07M25
006059  C0167                            V     C        01:47:19:08 01:47:21:08 01:27:48:19 01:27:50:19 
*FROM CLIP NAME:  C0167.NEW.01 
*SOURCE FILE: C0167
006060  19Y07M25                         A     C        18:37:04:21 18:37:07:13 01:27:48:19 01:27:51:11 
*FROM CLIP NAME:  31K10/02 
*SOURCE FILE: 19Y07M25
006061  C0167                            A2    C        01:47:19:08 01:47:22:00 01:27:48:19 01:27:51:11 
*FROM CLIP NAME:  C0167.NEW.01 
*SOURCE FILE: C0167
006062  19Y07M25                         A3    C        18:37:04:21 18:37:07:13 01:27:48:19 01:27:51:11 
*FROM CLIP NAME:  31K10/02 
*SOURCE FILE: 19Y07M25
006063  19Y07M25                         A4    C        18:37:04:21 18:37:07:13 01:27:48:19 01:27:51:11 
*FROM CLIP NAME:  31K10/02 
*SOURCE FILE: 19Y07M25
006064  B001C013_190725_R4CP             V     C        18:50:23:10 18:50:27:02 01:27:50:19 01:27:54:11 
*FROM CLIP NAME:  B001C013_190725_R4CP.NEW.01 
*SOURCE FILE: B001C013_190725_R4CP
006065  19Y07M25                         A     C        18:50:24:00 18:50:27:00 01:27:51:11 01:27:54:11 
*FROM CLIP NAME:  31K11/01 
*SOURCE FILE: 19Y07M25
006066  19Y07M25                         A2    C        18:50:24:00 18:50:27:00 01:27:51:11 01:27:54:11 
*FROM CLIP NAME:  31K11/01 
*SOURCE FILE: 19Y07M25
006067  19Y07M25                         A3    C        18:50:24:00 18:50:27:00 01:27:51:11 01:27:54:11 
*FROM CLIP NAME:  31K11/01 
*SOURCE FILE: 19Y07M25
006068  19Y07M25                         A4    C        18:50:24:00 18:50:27:00 01:27:51:11 01:27:54:11 
*FROM CLIP NAME:  31K11/01 
*SOURCE FILE: 19Y07M25
006069  19Y07M25                         A5    C        18:50:24:00 18:50:27:00 01:27:51:11 01:27:54:11 
*FROM CLIP NAME:  31K11/01 
*PATCH 19Y07M25:  FROM SOURCE 7 TO RECORD 5 
*SOURCE FILE: 19Y07M25
006070  A003C011_190725_R32C             V     C        18:34:34:05 18:34:35:11 01:27:54:11 01:27:55:17 
*FROM CLIP NAME:  A003C011_190725_R32C.NEW.01 
*SOURCE FILE: A003C011_190725_R32C
006071  19Y07M25                         A     C        18:34:34:05 18:34:35:11 01:27:54:11 01:27:55:17 
*FROM CLIP NAME:  31K10/01 
*SOURCE FILE: 19Y07M25
006072  A003C011_190725_R32C             A2    C        18:34:34:05 18:34:35:11 01:27:54:11 01:27:55:17 
*FROM CLIP NAME:  A003C011_190725_R32C.NEW.01 
*SOURCE FILE: A003C011_190725_R32C
006073  19Y07M25                         A3    C        18:34:34:05 18:34:35:11 01:27:54:11 01:27:55:17 
*FROM CLIP NAME:  31K10/01 
*SOURCE FILE: 19Y07M25
006074  19Y07M25                         A4    C        18:34:34:05 18:34:35:11 01:27:54:11 01:27:55:17 
*FROM CLIP NAME:  31K10/01 
*SOURCE FILE: 19Y07M25
006075  19Y07M25                         A6    C        18:58:10:07 18:58:10:16 01:27:54:23 01:27:55:07 
*FROM CLIP NAME:  31K12/01 
*A6 VOL =  +6.3 DB  PAN L100 
*PATCH 19Y07M25:  FROM SOURCE 2 TO RECORD 6 
*SOURCE FILE: 19Y07M25
006076  19Y07M25                         A7    C        18:58:10:07 18:58:10:16 01:27:54:23 01:27:55:07 
*FROM CLIP NAME:  31K12/01 
*A7 VOL =  +6.0 DB  PAN R100 
*SOURCE FILE: 19Y07M25
006077  19Y07M25                         A8    C        18:58:10:07 18:58:10:16 01:27:54:23 01:27:55:07 
*FROM CLIP NAME:  31K12/01 
*PATCH 19Y07M25:  FROM SOURCE 4 TO RECORD 8 
*SOURCE FILE: 19Y07M25
006078  19Y07M25                         A9    C        18:58:10:07 18:58:10:16 01:27:54:23 01:27:55:07 
*FROM CLIP NAME:  31K12/01 
*PATCH 19Y07M25:  FROM SOURCE 1 TO RECORD 9 
*SOURCE FILE: 19Y07M25
006079  19Y07M25                         A10   C        18:58:10:07 18:58:10:16 01:27:54:23 01:27:55:07 
*FROM CLIP NAME:  31K12/01 
*PATCH 19Y07M25:  FROM SOURCE 3 TO RECORD 10 
*SOURCE FILE: 19Y07M25
006080  19Y07M25                         A6    C        18:58:14:04 18:58:14:17 01:27:55:07 01:27:55:20 
*FROM CLIP NAME:  31K12/01 
*PATCH 19Y07M25:  FROM SOURCE 2 TO RECORD 6 
*SOURCE FILE: 19Y07M25
006081  19Y07M25                         A7    C        18:58:14:04 18:58:14:17 01:27:55:07 01:27:55:20 
*FROM CLIP NAME:  31K12/01 
*SOURCE FILE: 19Y07M25
006082  19Y07M25                         A8    C        18:58:14:04 18:58:14:17 01:27:55:07 01:27:55:20 
*FROM CLIP NAME:  31K12/01 
*PATCH 19Y07M25:  FROM SOURCE 4 TO RECORD 8 
*SOURCE FILE: 19Y07M25
006083  19Y07M25                         A9    C        18:58:14:04 18:58:14:17 01:27:55:07 01:27:55:20 
*FROM CLIP NAME:  31K12/01 
*PATCH 19Y07M25:  FROM SOURCE 1 TO RECORD 9 
*SOURCE FILE: 19Y07M25
006084  19Y07M25                         A10   C        18:58:14:04 18:58:14:17 01:27:55:07 01:27:55:20 
*FROM CLIP NAME:  31K12/01 
*PATCH 19Y07M25:  FROM SOURCE 3 TO RECORD 10 
*SOURCE FILE: 19Y07M25
006085  B001C017_190725_R4CP             V     C        19:06:06:24 19:06:07:12 01:27:55:17 01:27:56:05 
*FROM CLIP NAME:  B001C017_190725_R4CP.NEW.01 
*SOURCE FILE: B001C017_190725_R4CP
006086  19Y07M25                         A     C        19:06:06:22 19:06:07:18 01:27:55:17 01:27:56:13 
*FROM CLIP NAME:  31K12/03 
*A1 VOL = -13.3 DB  PAN R100 
*SOURCE FILE: 19Y07M25
006087  19Y07M25                         A2    C        19:06:06:22 19:06:07:18 01:27:55:17 01:27:56:13 
*FROM CLIP NAME:  31K12/03 
*SOURCE FILE: 19Y07M25
006088  19Y07M25                         A3    C        19:06:06:22 19:06:07:18 01:27:55:17 01:27:56:13 
*FROM CLIP NAME:  31K12/03 
*A3 VOL = -15.0 DB  PAN R100 
*SOURCE FILE: 19Y07M25
006089  19Y07M25                         A4    C        19:06:06:22 19:06:07:18 01:27:55:17 01:27:56:13 
*FROM CLIP NAME:  31K12/03 
*A4 VOL = -14.3 DB  PAN L100 
*SOURCE FILE: 19Y07M25
006090  19Y07M25                         A5    C        19:06:06:22 19:06:07:18 01:27:55:17 01:27:56:13 
*FROM CLIP NAME:  31K12/03 
*A5 VOL = -10.3 DB  PAN R100 
*PATCH 19Y07M25:  FROM SOURCE 7 TO RECORD 5 
*SOURCE FILE: 19Y07M25
006091  A003C010_190725_R32C             V     C        18:19:22:09 18:19:29:06 01:27:56:05 01:28:03:02 
*FROM CLIP NAME:  A003C010_190725_R32C.NEW.01 
*SOURCE FILE: A003C010_190725_R32C
006092  19Y07M25                         A     C        19:06:07:18 19:06:07:18 01:27:56:13 01:27:56:13 
006092  C0162                            A     D    005 01:44:32:00 01:44:32:05 01:27:56:13 01:27:56:18 
*FROM CLIP NAME:  31K12/03 
*TO CLIP NAME:  C0162.NEW.01 
*A1 VOL = -13.3 DB  PAN R100 
*SOURCE FILE: 19Y07M25
006093  19Y07M25                         A2    C        19:06:07:18 19:06:07:18 01:27:56:13 01:27:56:13 
006093  C0162                            A2    D    005 01:44:32:00 01:44:32:05 01:27:56:13 01:27:56:18 
*FROM CLIP NAME:  31K12/03 
*TO CLIP NAME:  C0162.NEW.01 
*SOURCE FILE: 19Y07M25
006094  19Y07M25                         A3    C        19:06:07:18 19:06:07:18 01:27:56:13 01:27:56:13 
006094  19Y07M25                         A3    D    005 18:19:22:16 18:19:22:21 01:27:56:13 01:27:56:18 
*FROM CLIP NAME:  31K12/03 
*TO CLIP NAME:  31K9/01 
*A3 VOL = -15.0 DB  PAN R100 
*SOURCE FILE: 19Y07M25
006095  19Y07M25                         A4    C        19:06:07:18 19:06:07:18 01:27:56:13 01:27:56:13 
006095  19Y07M25                         A4    D    005 18:19:22:16 18:19:22:21 01:27:56:13 01:27:56:18 
*FROM CLIP NAME:  31K12/03 
*TO CLIP NAME:  31K9/01 
*A4 VOL = -14.3 DB  PAN L100 
*SOURCE FILE: 19Y07M25
006096  19Y07M25                         A5    C        19:06:07:18 19:06:07:18 01:27:56:13 01:27:56:13 
006096  BL                               A5    D    005 00:00:00:00 00:00:00:05 01:27:56:13 01:27:56:18 
*FROM CLIP NAME:  31K12/03 
*A5 VOL = -10.3 DB  PAN R100 
*PATCH 19Y07M25:  FROM SOURCE 7 TO RECORD 5 
*SOURCE FILE: 19Y07M25
006097  C0162                            A     C        01:44:32:05 01:44:38:14 01:27:56:18 01:28:03:02 
*FROM CLIP NAME:  C0162.NEW.01 
*SOURCE FILE: C0162
006098  C0162                            A2    C        01:44:32:05 01:44:38:14 01:27:56:18 01:28:03:02 
*FROM CLIP NAME:  C0162.NEW.01 
*SOURCE FILE: C0162
006099  19Y07M25                         A3    C        18:19:22:21 18:19:29:05 01:27:56:18 01:28:03:02 
*FROM CLIP NAME:  31K9/01 
*SOURCE FILE: 19Y07M25
006100  19Y07M25                         A4    C        18:19:22:21 18:19:29:05 01:27:56:18 01:28:03:02 
*FROM CLIP NAME:  31K9/01 
*SOURCE FILE: 19Y07M25
006101  19Y07M25                         A     C        20:00:08:09 20:00:28:06 01:28:03:02 01:28:22:24 
*FROM CLIP NAME:  32K1/02 
*SOURCE FILE: 19Y07M25
006102  19Y07M25                         A2    C        20:00:08:09 20:00:28:06 01:28:03:02 01:28:22:24 
*FROM CLIP NAME:  32K1/02 
*SOURCE FILE: 19Y07M25
006103  19Y07M25                         A3    C        20:00:08:09 20:00:28:06 01:28:03:02 01:28:22:24 
*FROM CLIP NAME:  32K1/02 
*SOURCE FILE: 19Y07M25
006104  19Y07M25                         A4    C        20:00:08:09 20:00:28:06 01:28:03:02 01:28:22:24 
*FROM CLIP NAME:  32K1/02 
*SOURCE FILE: 19Y07M25
006105  19Y07M25                         A5    C        20:00:08:09 20:00:28:06 01:28:03:02 01:28:22:24 
*FROM CLIP NAME:  32K1/02 
*SOURCE FILE: 19Y07M25
006106  19Y07M25                         A6    C        20:00:08:09 20:00:28:06 01:28:03:02 01:28:22:24 
*FROM CLIP NAME:  32K1/02 
*PATCH 19Y07M25:  FROM SOURCE 7 TO RECORD 6 
*SOURCE FILE: 19Y07M25
006107  A004C004_190725_R32C             V     C        20:00:08:09 20:00:29:10 01:28:03:02 01:28:24:03 
*FROM CLIP NAME:  A004C004_190725_R32C.NEW.01 
*SOURCE FILE: A004C004_190725_R32C
006108  02789.MP3                        A9    C        01:00:00:00 01:00:32:06 01:28:03:02 01:28:35:08 
*, TIME SHIFT 
*FROM CLIP NAME:  02789.MP3 
*A9 VOL =  -9.0 DB  PAN L100 
*PATCH 02789.MP3:  FROM SOURCE 1 TO RECORD 9 
*SOURCE FILE: 02789.MP3
006109  02789.MP3                        A10   C        01:00:00:00 01:00:32:06 01:28:03:02 01:28:35:08 
*, TIME SHIFT 
*FROM CLIP NAME:  02789.MP3 
*A10 VOL =  -9.0 DB  PAN R100 
*PATCH 02789.MP3:  FROM SOURCE 2 TO RECORD 10 
*SOURCE FILE: 02789.MP3
006110  BL                               A15   C        00:00:00:00 00:00:00:00 01:28:03:11 01:28:03:11 
006110  BONEY_M_-_SUNNY.MP3              A15   D    530 01:00:00:00 01:00:21:05 01:28:03:11 01:28:24:16 
*TO CLIP NAME:  BONEY M - SUNNY.MP3 
*A15 VOL =  -9.5 DB  PAN R100 
*PATCH BONEY_M_-_SUNNY.MP3:  FROM SOURCE 1 TO RECORD 15 
*SOURCE FILE: (NULL) 
*REPAIR:  TRANSITION DURATION TRIMMED FROM 530 FRAMES DUE TO FORMAT LIMITS
006111  BL                               A16   C        00:00:00:00 00:00:00:00 01:28:03:11 01:28:03:11 
006111  BONEY_M_-_SUNNY.MP3              A16   D    530 01:00:00:00 01:00:21:05 01:28:03:11 01:28:24:16 
*TO CLIP NAME:  BONEY M - SUNNY.MP3 
*A16 VOL =  -9.5 DB  PAN L100 
*PATCH BONEY_M_-_SUNNY.MP3:  FROM SOURCE 2 TO RECORD 16 
*SOURCE FILE: (NULL) 
*REPAIR:  TRANSITION DURATION TRIMMED FROM 530 FRAMES DUE TO FORMAT LIMITS
006112  19Y07M25                         A     C        20:00:28:06 20:00:28:06 01:28:22:24 01:28:22:24 
006112  19Y07M25                         A     D    020 20:09:04:06 20:09:05:01 01:28:22:24 01:28:23:19 
*FROM CLIP NAME:  32K1/02 
*TO CLIP NAME:  32K2/02 
*SOURCE FILE: 19Y07M25
006113  19Y07M25                         A2    C        20:00:28:06 20:00:28:06 01:28:22:24 01:28:22:24 
006113  19Y07M25                         A2    D    020 20:09:04:06 20:09:05:01 01:28:22:24 01:28:23:19 
*FROM CLIP NAME:  32K1/02 
*TO CLIP NAME:  32K2/02 
*SOURCE FILE: 19Y07M25
006114  19Y07M25                         A3    C        20:00:28:06 20:00:28:06 01:28:22:24 01:28:22:24 
006114  19Y07M25                         A3    D    020 20:09:04:06 20:09:05:01 01:28:22:24 01:28:23:19 
*FROM CLIP NAME:  32K1/02 
*TO CLIP NAME:  32K2/02 
*SOURCE FILE: 19Y07M25
006115  19Y07M25                         A4    C        20:00:28:06 20:00:28:06 01:28:22:24 01:28:22:24 
006115  19Y07M25                         A4    D    020 20:09:04:06 20:09:05:01 01:28:22:24 01:28:23:19 
*FROM CLIP NAME:  32K1/02 
*TO CLIP NAME:  32K2/02 
*SOURCE FILE: 19Y07M25
006116  19Y07M25                         A5    C        20:00:28:06 20:00:28:06 01:28:22:24 01:28:22:24 
006116  19Y07M25                         A5    D    020 20:09:04:06 20:09:05:01 01:28:22:24 01:28:23:19 
*FROM CLIP NAME:  32K1/02 
*TO CLIP NAME:  32K2/02 
*SOURCE FILE: 19Y07M25
006117  19Y07M25                         A6    C        20:00:28:06 20:00:28:06 01:28:22:24 01:28:22:24 
006117  19Y07M25                         A6    D    020 20:09:04:06 20:09:05:01 01:28:22:24 01:28:23:19 
*FROM CLIP NAME:  32K1/02 
*TO CLIP NAME:  32K2/02 
*PATCH 19Y07M25:  FROM SOURCE 7 TO RECORD 6 
*PATCH 19Y07M25:  FROM SOURCE 7 TO RECORD 6 
*SOURCE FILE: 19Y07M25
006118  DIN-IPHONE.MP3                   A7    C        01:00:00:00 01:00:05:00 01:28:23:11 01:28:28:11 
*FROM CLIP NAME:  DIN-IPHONE.MP3 
*PATCH DIN-IPHONE.MP3:  FROM SOURCE 1 TO RECORD 7 
*SOURCE FILE: DIN-IPHONE.MP3
006119  DIN-IPHONE.MP3                   A8    C        01:00:00:00 01:00:05:00 01:28:23:11 01:28:28:11 
*FROM CLIP NAME:  DIN-IPHONE.MP3 
*PATCH DIN-IPHONE.MP3:  FROM SOURCE 2 TO RECORD 8 
*SOURCE FILE: DIN-IPHONE.MP3
006120  19Y07M25                         A     C        20:09:05:01 20:09:14:07 01:28:23:19 01:28:33:00 
*FROM CLIP NAME:  32K2/02 
*SOURCE FILE: 19Y07M25
006121  19Y07M25                         A2    C        20:09:05:01 20:09:14:07 01:28:23:19 01:28:33:00 
*FROM CLIP NAME:  32K2/02 
*SOURCE FILE: 19Y07M25
006122  19Y07M25                         A3    C        20:09:05:01 20:09:14:07 01:28:23:19 01:28:33:00 
*FROM CLIP NAME:  32K2/02 
*SOURCE FILE: 19Y07M25
006123  19Y07M25                         A4    C        20:09:05:01 20:09:14:07 01:28:23:19 01:28:33:00 
*FROM CLIP NAME:  32K2/02 
*SOURCE FILE: 19Y07M25
006124  19Y07M25                         A5    C        20:09:05:01 20:09:14:07 01:28:23:19 01:28:33:00 
*FROM CLIP NAME:  32K2/02 
*SOURCE FILE: 19Y07M25
006125  19Y07M25                         A6    C        20:09:05:01 20:09:14:07 01:28:23:19 01:28:33:00 
*FROM CLIP NAME:  32K2/02 
*PATCH 19Y07M25:  FROM SOURCE 7 TO RECORD 6 
*SOURCE FILE: 19Y07M25
006126  A004C006_190725_R32C             V     C        20:09:05:10 20:09:16:15 01:28:24:03 01:28:35:08 
*FROM CLIP NAME:  A004C006_190725_R32C.NEW.01 
*SOURCE FILE: A004C006_190725_R32C
006127  BONEY_M_-_SUNNY.MP3              A15   C        01:00:21:05 01:00:31:22 01:28:24:16 01:28:35:08 
*FROM CLIP NAME:  BONEY M - SUNNY.MP3 
*A15 VOL =  -9.5 DB  PAN R100 
*PATCH BONEY_M_-_SUNNY.MP3:  FROM SOURCE 1 TO RECORD 15 
*SOURCE FILE: BONEY M - SUNNY.MP3
006128  BONEY_M_-_SUNNY.MP3              A16   C        01:00:21:05 01:00:31:22 01:28:24:16 01:28:35:08 
*FROM CLIP NAME:  BONEY M - SUNNY.MP3 
*A16 VOL =  -9.5 DB  PAN L100 
*PATCH BONEY_M_-_SUNNY.MP3:  FROM SOURCE 2 TO RECORD 16 
*SOURCE FILE: BONEY M - SUNNY.MP3
006129  BL                               V     C        00:00:00:00 00:00:00:00 01:28:26:00 01:28:26:00 
006129  TITLE.01                         V     D    024 01:00:43:06 01:00:44:05 01:28:26:00 01:28:26:24 
*BLEND, DISSOLVE 
*TO CLIP NAME:  TITLE.01 
*SOURCE FILE: (NULL)
006130  BL                               V     C        00:00:00:00 00:00:03:24 01:28:26:00 01:28:29:24 
*SOURCE FILE: (NULL)
006131  TITLE.01                         V     C        01:00:44:05 01:00:47:09 01:28:26:24 01:28:30:03 
*FROM CLIP NAME:  TITLE.01 
*SOURCE FILE: TITLE.01
006132  BL                               V     C        00:00:00:00 00:00:21:04 01:28:29:24 01:28:51:03 
*SOURCE FILE: (NULL)
006133  BL                               V     C        00:00:00:00 00:00:22:08 01:28:30:03 01:28:52:11 
*SOURCE FILE: (NULL)
006134  19Y07M25                         A     C        20:09:14:07 20:09:14:07 01:28:33:00 01:28:33:00 
006134  19Y07M25                         A     D    015 20:09:15:19 20:09:16:09 01:28:33:00 01:28:33:15 
*FROM CLIP NAME:  32K2/02 
*TO CLIP NAME:  32K2/02 
*SOURCE FILE: 19Y07M25
006135  19Y07M25                         A2    C        20:09:14:07 20:09:14:07 01:28:33:00 01:28:33:00 
006135  19Y07M25                         A2    D    015 20:09:15:19 20:09:16:09 01:28:33:00 01:28:33:15 
*FROM CLIP NAME:  32K2/02 
*TO CLIP NAME:  32K2/02 
*SOURCE FILE: 19Y07M25
006136  19Y07M25                         A3    C        20:09:14:07 20:09:14:07 01:28:33:00 01:28:33:00 
006136  19Y07M25                         A3    D    015 20:09:15:19 20:09:16:09 01:28:33:00 01:28:33:15 
*FROM CLIP NAME:  32K2/02 
*TO CLIP NAME:  32K2/02 
*SOURCE FILE: 19Y07M25
006137  19Y07M25                         A4    C        20:09:14:07 20:09:14:07 01:28:33:00 01:28:33:00 
006137  19Y07M25                         A4    D    015 20:09:15:19 20:09:16:09 01:28:33:00 01:28:33:15 
*FROM CLIP NAME:  32K2/02 
*TO CLIP NAME:  32K2/02 
*SOURCE FILE: 19Y07M25
006138  19Y07M25                         A5    C        20:09:14:07 20:09:14:07 01:28:33:00 01:28:33:00 
006138  19Y07M25                         A5    D    015 20:09:15:19 20:09:16:09 01:28:33:00 01:28:33:15 
*FROM CLIP NAME:  32K2/02 
*TO CLIP NAME:  32K2/02 
*SOURCE FILE: 19Y07M25
006139  19Y07M25                         A6    C        20:09:14:07 20:09:14:07 01:28:33:00 01:28:33:00 
006139  19Y07M25                         A6    D    015 20:09:15:19 20:09:16:09 01:28:33:00 01:28:33:15 
*FROM CLIP NAME:  32K2/02 
*TO CLIP NAME:  32K2/02 
*PATCH 19Y07M25:  FROM SOURCE 7 TO RECORD 6 
*PATCH 19Y07M25:  FROM SOURCE 7 TO RECORD 6 
*SOURCE FILE: 19Y07M25
006140  19Y07M25                         A     C        20:09:16:09 20:09:18:02 01:28:33:15 01:28:35:08 
*FROM CLIP NAME:  32K2/02 
*SOURCE FILE: 19Y07M25
006141  19Y07M25                         A2    C        20:09:16:09 20:09:18:02 01:28:33:15 01:28:35:08 
*FROM CLIP NAME:  32K2/02 
*SOURCE FILE: 19Y07M25
006142  19Y07M25                         A3    C        20:09:16:09 20:09:18:02 01:28:33:15 01:28:35:08 
*FROM CLIP NAME:  32K2/02 
*SOURCE FILE: 19Y07M25
006143  19Y07M25                         A4    C        20:09:16:09 20:09:18:02 01:28:33:15 01:28:35:08 
*FROM CLIP NAME:  32K2/02 
*SOURCE FILE: 19Y07M25
006144  19Y07M25                         A5    C        20:09:16:09 20:09:18:02 01:28:33:15 01:28:35:08 
*FROM CLIP NAME:  32K2/02 
*SOURCE FILE: 19Y07M25
006145  19Y07M25                         A6    C        20:09:16:09 20:09:18:02 01:28:33:15 01:28:35:08 
*FROM CLIP NAME:  32K2/02 
*PATCH 19Y07M25:  FROM SOURCE 7 TO RECORD 6 
*SOURCE FILE: 19Y07M25
006146  C0073                            V     C        00:17:12:10 00:17:13:24 01:28:35:08 01:28:36:22 
*FROM CLIP NAME:  C0073.NEW.01 
*SOURCE FILE: C0073
006147  BONEY_M_-_SUNNY.MP3              A15   C        01:00:31:22 01:01:07:13 01:28:35:08 01:29:10:24 
*FROM CLIP NAME:  BONEY M - SUNNY.MP3 
*A15 VOL =  -3.0 DB  PAN L100 
*PATCH BONEY_M_-_SUNNY.MP3:  FROM SOURCE 1 TO RECORD 15 
*SOURCE FILE: BONEY M - SUNNY.MP3
006148  BONEY_M_-_SUNNY.MP3              A16   C        01:00:31:22 01:01:07:13 01:28:35:08 01:29:10:24 
*FROM CLIP NAME:  BONEY M - SUNNY.MP3 
*A16 VOL =  -3.0 DB  PAN R100 
*PATCH BONEY_M_-_SUNNY.MP3:  FROM SOURCE 2 TO RECORD 16 
*SOURCE FILE: BONEY M - SUNNY.MP3
006149  A010C021_190727_R32C             V     C        03:43:13:05 03:43:14:06 01:28:36:22 01:28:37:23 
*FROM CLIP NAME:  A010C021_190727_R32C.NEW.01.SUB.01 
*SOURCE FILE: A010C021_190727_R32C
006150  A010C023_190727_R32C             V     C        03:49:28:04 03:49:29:04 01:28:37:23 01:28:38:23 
*FROM CLIP NAME:  A010C023_190727_R32C.NEW.01.SUB.01 
*SOURCE FILE: A010C023_190727_R32C
006151  B003C003_190726_R4CP             V     C        10:54:27:01 10:54:28:12 01:28:38:23 01:28:40:09 
*FROM CLIP NAME:  B003C003_190726_R4CP.NEW.01.SUB.01 
*SOURCE FILE: B003C003_190726_R4CP
006152  B003C003_190726_R4CP             A     C        10:54:27:01 10:54:28:12 01:28:38:23 01:28:40:09 
*FROM CLIP NAME:  B003C003_190726_R4CP.NEW.01.SUB.01 
*SOURCE FILE: B003C003_190726_R4CP
006153  B003C003_190726_R4CP             A2    C        10:54:27:01 10:54:28:12 01:28:38:23 01:28:40:09 
*FROM CLIP NAME:  B003C003_190726_R4CP.NEW.01.SUB.01 
*SOURCE FILE: B003C003_190726_R4CP
006154  B003C001_190726_R4CP             V     C        10:50:18:24 10:50:20:05 01:28:40:09 01:28:41:15 
*FROM CLIP NAME:  B003C001_190726_R4CP.NEW.01.SUB.01 
*SOURCE FILE: B003C001_190726_R4CP
006155  B003C001_190726_R4CP             A     C        10:50:18:24 10:50:20:05 01:28:40:09 01:28:41:15 
*FROM CLIP NAME:  B003C001_190726_R4CP.NEW.01.SUB.01 
*SOURCE FILE: B003C001_190726_R4CP
006156  B003C001_190726_R4CP             A2    C        10:50:18:24 10:50:20:05 01:28:40:09 01:28:41:15 
*FROM CLIP NAME:  B003C001_190726_R4CP.NEW.01.SUB.01 
*SOURCE FILE: B003C001_190726_R4CP
006157  MSMMMOB.90                       V     C        16:49:22:01 16:49:23:18 01:28:41:15 01:28:43:07 
M2      MSMMMOB.90                                025.0 16:49:22:01 
*FROM CLIP NAME:  A083C006_190815_R32C 
*SOURCE FILE: MSMMMOB.90
006158  A010C018_190727_R32C             V     C        03:21:08:09 03:21:09:10 01:28:43:07 01:28:44:08 
*FROM CLIP NAME:  A010C018_190727_R32C.NEW.01.SUB.01 
*SOURCE FILE: A010C018_190727_R32C
006159  A010C018_190727_R32C             V     C        03:21:11:21 03:21:13:18 01:28:44:08 01:28:46:05 
*FROM CLIP NAME:  A010C018_190727_R32C.NEW.01.SUB.01 
*SOURCE FILE: A010C018_190727_R32C
006160  A014C001_190728_R32C             V     C        14:50:51:02 14:50:53:13 01:28:46:05 01:28:48:16 
*FROM CLIP NAME:  A014C001_190728_R32C.NEW.01 
*SOURCE FILE: A014C001_190728_R32C
006161  A010C023_190727_R32C             V     C        03:49:40:19 03:49:41:19 01:28:48:16 01:28:49:16 
*FROM CLIP NAME:  A010C023_190727_R32C.NEW.01.SUB.01 
*SOURCE FILE: A010C023_190727_R32C
006162  B003C003_190726_R4CP             A     C        10:58:05:08 10:58:06:08 01:28:48:16 01:28:49:16 
*FROM CLIP NAME:  B003C003_190726_R4CP.NEW.01.SUB.01 
*A1 VOL =  +8.0 DB  PAN R100 
*SOURCE FILE: B003C003_190726_R4CP
006163  C0061                            V     C        00:14:00:08 00:14:01:20 01:28:49:16 01:28:51:03 
*FROM CLIP NAME:  C0061.NEW.01 
*SOURCE FILE: C0061
006164  C0061                            A     C        00:14:00:08 00:14:01:20 01:28:49:16 01:28:51:03 
*FROM CLIP NAME:  C0061.NEW.01 
*A1 VOL = -12.1 DB  PAN R100 
*SOURCE FILE: C0061
006165  C0061                            A2    C        00:14:00:08 00:14:01:20 01:28:49:16 01:28:51:03 
*FROM CLIP NAME:  C0061.NEW.01 
*A2 VOL = -12.1 DB  PAN L100 
*SOURCE FILE: C0061
006168  M108_C030_20190729_R             V     C        17:00:19:13 17:00:25:09 01:28:51:03 01:28:56:24 
*FROM CLIP NAME:  M108_C030_20190729_R.NEW.01 
*SOURCE FILE: M108_C030_20190729_R
006167  CINEMASCOPE_2-35-1_CROPLINES.PNG V     C        01:00:17:22 01:00:23:18 01:28:51:03 01:28:56:24 
*FROM CLIP NAME:  CINEMASCOPE 2-35-1 CROPLINES.PNG 
*SOURCE FILE: CINEMASCOPE 2-35-1 CROPLINES.PNG
006166  CLIP2_SC1.MOV                    V     C        00:00:00:00 00:00:05:21 01:28:51:03 01:28:56:24 
*FROM CLIP NAME:  CLIP2_SC1.MOV 
*SOURCE FILE: CLIP2_SC1.MOV
006169  19Y08M22                         A     C        11:05:15:01 11:05:20:22 01:28:51:03 01:28:56:24 
*FROM CLIP NAME:  34BK1/02 
*SOURCE FILE: 19Y08M22
006170  19Y08M22                         A2    C        11:05:15:01 11:05:20:22 01:28:51:03 01:28:56:24 
*FROM CLIP NAME:  34BK1/02 
*SOURCE FILE: 19Y08M22
006171  CINEMASCOPE_2-35-1_CROPLINES.PNG V     C        01:00:00:00 01:01:31:10 01:28:51:03 01:30:22:13 
*FROM CLIP NAME:  CINEMASCOPE 2-35-1 CROPLINES.PNG 
*SOURCE FILE: CINEMASCOPE 2-35-1 CROPLINES.PNG
006172  SENTMESSAGE.MP3                  A4    C        01:00:00:00 01:00:00:11 01:28:51:18 01:28:52:04 
*FROM CLIP NAME:  SENTMESSAGE.MP3 
*A4 VOL =  +8.5 DB  PAN L100 
*PATCH SENTMESSAGE.MP3:  FROM SOURCE 1 TO RECORD 4 
*SOURCE FILE: SENTMESSAGE.MP3
006173  BL                               V     C        00:00:00:00 00:00:03:07 01:28:52:11 01:28:55:18 
*SOURCE FILE: (NULL)
006174  BL                               V     C        00:00:00:00 00:00:01:06 01:28:55:18 01:28:56:24 
*SOURCE FILE: (NULL)
006175  MSMMMOB.85                       V     C        11:07:47:07 11:07:49:06 01:28:56:24 01:28:58:23 
M2      MSMMMOB.85                                025.0 11:07:47:07 
*FROM CLIP NAME:  A097C001_190822_R32C 
*SOURCE FILE: MSMMMOB.85
006176  19Y08M22                         A     C        11:07:45:23 11:07:47:22 01:28:56:24 01:28:58:23 
*FROM CLIP NAME:  35K1/01 
*SOURCE FILE: 19Y08M22
006177  19Y08M22                         A2    C        11:07:45:23 11:07:47:22 01:28:56:24 01:28:58:23 
*FROM CLIP NAME:  35K1/01 
*SOURCE FILE: 19Y08M22
006178  MSMMMOB.85                       A3    C        11:07:45:24 11:07:47:23 01:28:56:24 01:28:58:23 
*FROM CLIP NAME:  A097C001_190822_R32C 
*SOURCE FILE: MSMMMOB.85
006179  MSMMMOB.85                       A4    C        11:07:45:24 11:07:47:23 01:28:56:24 01:28:58:23 
*FROM CLIP NAME:  A097C001_190822_R32C 
*SOURCE FILE: MSMMMOB.85
006180  MSMMMOB.85                       A5    C        11:07:45:24 11:07:47:23 01:28:56:24 01:28:58:23 
*FROM CLIP NAME:  A097C001_190822_R32C 
*SOURCE FILE: MSMMMOB.85
006181  BL                               V     C        00:00:00:00 00:00:23:07 01:28:56:24 01:29:20:06 
*SOURCE FILE: (NULL)
006182  BL                               V     C        00:00:00:00 00:00:23:19 01:28:56:24 01:29:20:18 
*SOURCE FILE: (NULL)
006183  BL                               V     C        00:00:00:00 00:00:24:07 01:28:56:24 01:29:21:06 
*SOURCE FILE: (NULL)
006184  MSMMMOB.31                       V     C        11:38:39:12 11:38:41:13 01:28:58:23 01:29:00:24 
M2      MSMMMOB.31                                025.0 11:38:39:12 
*FROM CLIP NAME:  A097C004_190822_R32C 
*SOURCE FILE: MSMMMOB.31
006185  19Y08M22                         A     C        11:38:39:11 11:38:41:12 01:28:58:23 01:29:00:24 
*FROM CLIP NAME:  35K4/01 
*SOURCE FILE: 19Y08M22
006186  19Y08M22                         A2    C        11:38:39:11 11:38:41:12 01:28:58:23 01:29:00:24 
*FROM CLIP NAME:  35K4/01 
*SOURCE FILE: 19Y08M22
006187  MSMMMOB.31                       A3    C        11:38:39:12 11:38:41:13 01:28:58:23 01:29:00:24 
*FROM CLIP NAME:  A097C004_190822_R32C 
*SOURCE FILE: MSMMMOB.31
006188  MSMMMOB.31                       A4    C        11:38:39:12 11:38:41:13 01:28:58:23 01:29:00:24 
*FROM CLIP NAME:  A097C004_190822_R32C 
*SOURCE FILE: MSMMMOB.31
006189  MSMMMOB.31                       A5    C        11:38:39:12 11:38:41:13 01:28:58:23 01:29:00:24 
*FROM CLIP NAME:  A097C004_190822_R32C 
*SOURCE FILE: MSMMMOB.31
006190  19Y08M22                         A6    C        11:38:39:11 11:38:41:12 01:28:58:23 01:29:00:24 
*FROM CLIP NAME:  35K4/01 
*PATCH 19Y08M22:  FROM SOURCE 7 TO RECORD 6 
*SOURCE FILE: 19Y08M22
006191  MSMMMOB.31                       V     C        11:38:49:18 11:38:51:03 01:29:00:24 01:29:02:09 
M2      MSMMMOB.31                                025.0 11:38:49:18 
*FROM CLIP NAME:  A097C004_190822_R32C 
*SOURCE FILE: MSMMMOB.31
006192  19Y08M22                         A     C        11:38:49:17 11:38:51:02 01:29:00:24 01:29:02:09 
*FROM CLIP NAME:  35K4/01 
*SOURCE FILE: 19Y08M22
006193  19Y08M22                         A2    C        11:38:49:17 11:38:51:02 01:29:00:24 01:29:02:09 
*FROM CLIP NAME:  35K4/01 
*SOURCE FILE: 19Y08M22
006194  MSMMMOB.31                       A3    C        11:38:49:18 11:38:51:03 01:29:00:24 01:29:02:09 
*FROM CLIP NAME:  A097C004_190822_R32C 
*SOURCE FILE: MSMMMOB.31
006195  MSMMMOB.31                       A4    C        11:38:49:18 11:38:51:03 01:29:00:24 01:29:02:09 
*FROM CLIP NAME:  A097C004_190822_R32C 
*SOURCE FILE: MSMMMOB.31
006196  MSMMMOB.31                       A5    C        11:38:49:18 11:38:51:03 01:29:00:24 01:29:02:09 
*FROM CLIP NAME:  A097C004_190822_R32C 
*SOURCE FILE: MSMMMOB.31
006197  19Y08M22                         A6    C        11:38:49:17 11:38:51:02 01:29:00:24 01:29:02:09 
*FROM CLIP NAME:  35K4/01 
*PATCH 19Y08M22:  FROM SOURCE 7 TO RECORD 6 
*SOURCE FILE: 19Y08M22
006198  MSMMMOB.91                       V     C        11:43:51:19 11:43:52:08 01:29:02:09 01:29:02:23 
M2      MSMMMOB.91                                025.0 11:43:51:19 
*FROM CLIP NAME:  A097C005_190822_R32C 
*SOURCE FILE: MSMMMOB.91
006199  19Y08M22                         A     C        11:43:51:18 11:43:52:09 01:29:02:09 01:29:03:00 
*FROM CLIP NAME:  35K5/01 
*SOURCE FILE: 19Y08M22
006200  19Y08M22                         A2    C        11:43:51:18 11:43:52:09 01:29:02:09 01:29:03:00 
*FROM CLIP NAME:  35K5/01 
*SOURCE FILE: 19Y08M22
006201  MSMMMOB.91                       A3    C        11:43:51:19 11:43:52:10 01:29:02:09 01:29:03:00 
*FROM CLIP NAME:  A097C005_190822_R32C 
*SOURCE FILE: MSMMMOB.91
006202  MSMMMOB.91                       A4    C        11:43:51:19 11:43:52:10 01:29:02:09 01:29:03:00 
*FROM CLIP NAME:  A097C005_190822_R32C 
*SOURCE FILE: MSMMMOB.91
006203  MSMMMOB.91                       A5    C        11:43:51:19 11:43:52:10 01:29:02:09 01:29:03:00 
*FROM CLIP NAME:  A097C005_190822_R32C 
*SOURCE FILE: MSMMMOB.91
006204  19Y08M22                         A6    C        11:43:51:18 11:43:52:09 01:29:02:09 01:29:03:00 
*FROM CLIP NAME:  35K5/01 
*PATCH 19Y08M22:  FROM SOURCE 7 TO RECORD 6 
*SOURCE FILE: 19Y08M22
006205  MSMMMOB.31                       V     C        11:38:51:22 11:38:53:05 01:29:02:23 01:29:04:06 
M2      MSMMMOB.31                                025.0 11:38:51:22 
*FROM CLIP NAME:  A097C004_190822_R32C 
*SOURCE FILE: MSMMMOB.31
006206  19Y08M22                         A     C        11:38:51:23 11:38:53:04 01:29:03:00 01:29:04:06 
*FROM CLIP NAME:  35K4/01 
*SOURCE FILE: 19Y08M22
006207  19Y08M22                         A2    C        11:38:51:23 11:38:53:04 01:29:03:00 01:29:04:06 
*FROM CLIP NAME:  35K4/01 
*SOURCE FILE: 19Y08M22
006208  MSMMMOB.31                       A3    C        11:38:51:24 11:38:53:05 01:29:03:00 01:29:04:06 
*FROM CLIP NAME:  A097C004_190822_R32C 
*SOURCE FILE: MSMMMOB.31
006209  MSMMMOB.31                       A4    C        11:38:51:24 11:38:53:05 01:29:03:00 01:29:04:06 
*FROM CLIP NAME:  A097C004_190822_R32C 
*SOURCE FILE: MSMMMOB.31
006210  MSMMMOB.31                       A5    C        11:38:51:24 11:38:53:05 01:29:03:00 01:29:04:06 
*FROM CLIP NAME:  A097C004_190822_R32C 
*SOURCE FILE: MSMMMOB.31
006211  19Y08M22                         A6    C        11:38:51:23 11:38:53:04 01:29:03:00 01:29:04:06 
*FROM CLIP NAME:  35K4/01 
*PATCH 19Y08M22:  FROM SOURCE 7 TO RECORD 6 
*SOURCE FILE: 19Y08M22
006212  MSMMMOB.91                       V     C        11:43:54:04 11:43:54:23 01:29:04:06 01:29:05:00 
M2      MSMMMOB.91                                025.0 11:43:54:04 
*FROM CLIP NAME:  A097C005_190822_R32C 
*SOURCE FILE: MSMMMOB.91
006213  19Y08M22                         A     C        11:43:54:03 11:43:54:22 01:29:04:06 01:29:05:00 
*FROM CLIP NAME:  35K5/01 
*SOURCE FILE: 19Y08M22
006214  19Y08M22                         A2    C        11:43:54:03 11:43:54:22 01:29:04:06 01:29:05:00 
*FROM CLIP NAME:  35K5/01 
*SOURCE FILE: 19Y08M22
006215  MSMMMOB.91                       A3    C        11:43:54:04 11:43:54:23 01:29:04:06 01:29:05:00 
*FROM CLIP NAME:  A097C005_190822_R32C 
*SOURCE FILE: MSMMMOB.91
006216  MSMMMOB.91                       A4    C        11:43:54:04 11:43:54:23 01:29:04:06 01:29:05:00 
*FROM CLIP NAME:  A097C005_190822_R32C 
*SOURCE FILE: MSMMMOB.91
006217  MSMMMOB.91                       A5    C        11:43:54:04 11:43:54:23 01:29:04:06 01:29:05:00 
*FROM CLIP NAME:  A097C005_190822_R32C 
*SOURCE FILE: MSMMMOB.91
006218  19Y08M22                         A6    C        11:43:54:03 11:43:54:22 01:29:04:06 01:29:05:00 
*FROM CLIP NAME:  35K5/01 
*PATCH 19Y08M22:  FROM SOURCE 7 TO RECORD 6 
*SOURCE FILE: 19Y08M22
006219  MSMMMOB.31                       V     C        11:38:55:11 11:38:57:07 01:29:05:00 01:29:06:21 
M2      MSMMMOB.31                                025.0 11:38:55:11 
*FROM CLIP NAME:  A097C004_190822_R32C 
*SOURCE FILE: MSMMMOB.31
006220  19Y08M22                         A     C        11:38:55:10 11:38:57:06 01:29:05:00 01:29:06:21 
*FROM CLIP NAME:  35K4/01 
*SOURCE FILE: 19Y08M22
006221  19Y08M22                         A2    C        11:38:55:10 11:38:57:06 01:29:05:00 01:29:06:21 
*FROM CLIP NAME:  35K4/01 
*SOURCE FILE: 19Y08M22
006222  MSMMMOB.31                       A3    C        11:38:55:11 11:38:57:07 01:29:05:00 01:29:06:21 
*FROM CLIP NAME:  A097C004_190822_R32C 
*SOURCE FILE: MSMMMOB.31
006223  MSMMMOB.31                       A4    C        11:38:55:11 11:38:57:07 01:29:05:00 01:29:06:21 
*FROM CLIP NAME:  A097C004_190822_R32C 
*SOURCE FILE: MSMMMOB.31
006224  MSMMMOB.31                       A5    C        11:38:55:11 11:38:57:07 01:29:05:00 01:29:06:21 
*FROM CLIP NAME:  A097C004_190822_R32C 
*SOURCE FILE: MSMMMOB.31
006225  19Y08M22                         A6    C        11:38:55:10 11:38:57:06 01:29:05:00 01:29:06:21 
*FROM CLIP NAME:  35K4/01 
*PATCH 19Y08M22:  FROM SOURCE 7 TO RECORD 6 
*SOURCE FILE: 19Y08M22
006226  MSMMMOB.46                       V     C        15:11:41:10 15:11:42:18 01:29:06:21 01:29:08:04 
*FROM CLIP NAME:  S003_C013_20190819_R 
*SOURCE FILE: MSMMMOB.46
006227  MSMMMOB.19                       V     C        14:58:39:22 14:58:40:18 01:29:08:04 01:29:09:00 
*FROM CLIP NAME:  S003_C010_20190819_R 
*SOURCE FILE: MSMMMOB.19
006228  MSMMMOB.62                       V     C        10:19:37:24 10:19:39:05 01:29:09:00 01:29:09:24 
M2      MSMMMOB.62                                032.5 10:19:37:24 
*FROM CLIP NAME:  A085C009_190819_R32C 
*SOURCE FILE: MSMMMOB.62
006229  MSMMMOB.90                       V     C        16:50:04:22 16:50:06:16 01:29:09:24 01:29:11:18 
M2      MSMMMOB.90                                025.0 16:50:04:22 
*FROM CLIP NAME:  A083C006_190815_R32C 
*SOURCE FILE: MSMMMOB.90
006230  19Y08M15                         A     C        16:50:04:21 16:50:06:15 01:29:09:24 01:29:11:18 
*FROM CLIP NAME:  59K2/03.SYNC.01 
*A1 VOL = +12.0 DB  PAN R100 
*SOURCE FILE: 19Y08M15
006231  19Y08M15                         A2    C        16:50:04:21 16:50:06:15 01:29:09:24 01:29:11:18 
*FROM CLIP NAME:  59K2/03.SYNC.01 
*A2 VOL = +12.0 DB  PAN L100 
*SOURCE FILE: 19Y08M15
006232  19Y08M15                         A3    C        16:50:04:21 16:50:06:15 01:29:09:24 01:29:11:18 
*FROM CLIP NAME:  59K2/03.SYNC.01 
*A3 VOL = +12.0 DB  PAN R100 
*PATCH 19Y08M15:  FROM SOURCE 1 TO RECORD 3 
*SOURCE FILE: 19Y08M15
006233  19Y08M15                         A4    C        16:50:04:21 16:50:06:15 01:29:09:24 01:29:11:18 
*FROM CLIP NAME:  59K2/03.SYNC.01 
*A4 VOL = +12.0 DB  PAN L100 
*SOURCE FILE: 19Y08M15
006234  BONEY_M_-_SUNNY.MP3              A15   C        01:01:07:13 01:01:07:13 01:29:10:24 01:29:10:24 
006234  BONEY_M_-_SUNNY.MP3              A15   D    025 01:01:07:13 01:01:08:13 01:29:10:24 01:29:11:24 
*FROM CLIP NAME:  BONEY M - SUNNY.MP3 
*TO CLIP NAME:  BONEY M - SUNNY.MP3 
*A15 VOL =  -3.0 DB  PAN L100 
*A15 VOL = -14.0 DB  PAN L100 
*PATCH BONEY_M_-_SUNNY.MP3:  FROM SOURCE 1 TO RECORD 15 
*PATCH BONEY_M_-_SUNNY.MP3:  FROM SOURCE 1 TO RECORD 15 
*SOURCE FILE: BONEY M - SUNNY.MP3
006235  BONEY_M_-_SUNNY.MP3              A16   C        01:01:07:13 01:01:07:13 01:29:10:24 01:29:10:24 
006235  BONEY_M_-_SUNNY.MP3              A16   D    025 01:01:07:13 01:01:08:13 01:29:10:24 01:29:11:24 
*FROM CLIP NAME:  BONEY M - SUNNY.MP3 
*TO CLIP NAME:  BONEY M - SUNNY.MP3 
*A16 VOL =  -3.0 DB  PAN R100 
*A16 VOL = -14.0 DB  PAN R100 
*PATCH BONEY_M_-_SUNNY.MP3:  FROM SOURCE 2 TO RECORD 16 
*PATCH BONEY_M_-_SUNNY.MP3:  FROM SOURCE 2 TO RECORD 16 
*SOURCE FILE: BONEY M - SUNNY.MP3
006236  MSMMMOB.90                       V     C        16:50:08:14 16:50:11:06 01:29:11:18 01:29:14:10 
M2      MSMMMOB.90                                025.0 16:50:08:14 
*FROM CLIP NAME:  A083C006_190815_R32C 
*SOURCE FILE: MSMMMOB.90
006237  19Y08M15                         A     C        16:50:08:13 16:50:11:05 01:29:11:18 01:29:14:10 
*FROM CLIP NAME:  59K2/03.SYNC.01 
*A1 VOL = +12.0 DB  PAN R100 
*PATCH 19Y08M15:  FROM SOURCE 4 TO RECORD 1 
*SOURCE FILE: 19Y08M15
006238  19Y08M15                         A2    C        16:50:08:13 16:50:11:05 01:29:11:18 01:29:14:10 
*FROM CLIP NAME:  59K2/03.SYNC.01 
*A2 VOL = +10.8 DB  PAN L100 
*PATCH 19Y08M15:  FROM SOURCE 8 TO RECORD 2 
*SOURCE FILE: 19Y08M15
006239  19Y08M15                         A3    C        16:50:08:13 16:50:11:05 01:29:11:18 01:29:14:10 
*FROM CLIP NAME:  59K2/03.SYNC.01 
*PATCH 19Y08M15:  FROM SOURCE 1 TO RECORD 3 
*SOURCE FILE: 19Y08M15
006240  19Y08M15                         A4    C        16:50:08:13 16:50:11:05 01:29:11:18 01:29:14:10 
*FROM CLIP NAME:  59K2/03.SYNC.01 
*SOURCE FILE: 19Y08M15
006241  19Y08M15                         A5    C        16:50:08:13 16:50:11:05 01:29:11:18 01:29:14:10 
*FROM CLIP NAME:  59K2/03.SYNC.01 
*PATCH 19Y08M15:  FROM SOURCE 2 TO RECORD 5 
*SOURCE FILE: 19Y08M15
006242  19Y08M15                         A6    C        16:50:08:13 16:50:11:05 01:29:11:18 01:29:14:10 
*FROM CLIP NAME:  59K2/03.SYNC.01 
*PATCH 19Y08M15:  FROM SOURCE 8 TO RECORD 6 
*SOURCE FILE: 19Y08M15
006243  BONEY_M_-_SUNNY.MP3              A15   C        01:01:08:13 01:01:14:12 01:29:11:24 01:29:17:23 
*FROM CLIP NAME:  BONEY M - SUNNY.MP3 
*A15 VOL = -14.0 DB  PAN L100 
*PATCH BONEY_M_-_SUNNY.MP3:  FROM SOURCE 1 TO RECORD 15 
*SOURCE FILE: BONEY M - SUNNY.MP3
006244  BONEY_M_-_SUNNY.MP3              A16   C        01:01:08:13 01:01:14:12 01:29:11:24 01:29:17:23 
*FROM CLIP NAME:  BONEY M - SUNNY.MP3 
*A16 VOL = -14.0 DB  PAN R100 
*PATCH BONEY_M_-_SUNNY.MP3:  FROM SOURCE 2 TO RECORD 16 
*SOURCE FILE: BONEY M - SUNNY.MP3
006245  MSMMMOB.90                       V     C        16:50:20:22 16:50:24:12 01:29:14:10 01:29:18:00 
M2      MSMMMOB.90                                025.0 16:50:20:22 
*FROM CLIP NAME:  A083C006_190815_R32C 
*SOURCE FILE: MSMMMOB.90
006246  19Y08M15                         A     C        16:50:20:21 16:50:24:11 01:29:14:10 01:29:18:00 
*FROM CLIP NAME:  59K2/03.SYNC.01 
*A1 VOL = +12.0 DB  PAN R100 
*PATCH 19Y08M15:  FROM SOURCE 4 TO RECORD 1 
*SOURCE FILE: 19Y08M15
006247  19Y08M15                         A2    C        16:50:20:21 16:50:24:11 01:29:14:10 01:29:18:00 
*FROM CLIP NAME:  59K2/03.SYNC.01 
*A2 VOL = +12.0 DB  PAN L100 
*PATCH 19Y08M15:  FROM SOURCE 8 TO RECORD 2 
*SOURCE FILE: 19Y08M15
006248  19Y08M15                         A3    C        16:50:20:21 16:50:24:11 01:29:14:10 01:29:18:00 
*FROM CLIP NAME:  59K2/03.SYNC.01 
*PATCH 19Y08M15:  FROM SOURCE 1 TO RECORD 3 
*SOURCE FILE: 19Y08M15
006249  19Y08M15                         A4    C        16:50:20:21 16:50:24:11 01:29:14:10 01:29:18:00 
*FROM CLIP NAME:  59K2/03.SYNC.01 
*SOURCE FILE: 19Y08M15
006250  19Y08M15                         A5    C        16:50:20:21 16:50:24:11 01:29:14:10 01:29:18:00 
*FROM CLIP NAME:  59K2/03.SYNC.01 
*PATCH 19Y08M15:  FROM SOURCE 2 TO RECORD 5 
*SOURCE FILE: 19Y08M15
006251  19Y08M15                         A6    C        16:50:20:21 16:50:24:11 01:29:14:10 01:29:18:00 
*FROM CLIP NAME:  59K2/03.SYNC.01 
*PATCH 19Y08M15:  FROM SOURCE 8 TO RECORD 6 
*SOURCE FILE: 19Y08M15
006252  BONEY_M_-_SUNNY.MP3              A15   C        01:01:14:12 01:01:14:12 01:29:17:23 01:29:17:23 
006252  BONEY_M_-_SUNNY.MP3              A15   D    010 01:01:14:12 01:01:14:22 01:29:17:23 01:29:18:08 
*FROM CLIP NAME:  BONEY M - SUNNY.MP3 
*TO CLIP NAME:  BONEY M - SUNNY.MP3 
*A15 VOL = -14.0 DB  PAN L100 
*A15 VOL =  -6.0 DB  PAN L100 
*PATCH BONEY_M_-_SUNNY.MP3:  FROM SOURCE 1 TO RECORD 15 
*PATCH BONEY_M_-_SUNNY.MP3:  FROM SOURCE 1 TO RECORD 15 
*SOURCE FILE: BONEY M - SUNNY.MP3
006253  BONEY_M_-_SUNNY.MP3              A16   C        01:01:14:12 01:01:14:12 01:29:17:23 01:29:17:23 
006253  BONEY_M_-_SUNNY.MP3              A16   D    010 01:01:14:12 01:01:14:22 01:29:17:23 01:29:18:08 
*FROM CLIP NAME:  BONEY M - SUNNY.MP3 
*TO CLIP NAME:  BONEY M - SUNNY.MP3 
*A16 VOL = -14.0 DB  PAN R100 
*A16 VOL =  -6.0 DB  PAN R100 
*PATCH BONEY_M_-_SUNNY.MP3:  FROM SOURCE 2 TO RECORD 16 
*PATCH BONEY_M_-_SUNNY.MP3:  FROM SOURCE 2 TO RECORD 16 
*SOURCE FILE: BONEY M - SUNNY.MP3
006254  B003C001_190726_R4CP             V     C        10:50:52:03 10:50:53:14 01:29:18:00 01:29:19:11 
*FROM CLIP NAME:  B003C001_190726_R4CP.NEW.01.SUB.01 
*SOURCE FILE: B003C001_190726_R4CP
006255  BONEY_M_-_SUNNY.MP3              A15   C        01:01:14:22 01:01:34:22 01:29:18:08 01:29:38:08 
*FROM CLIP NAME:  BONEY M - SUNNY.MP3 
*A15 VOL =  -6.0 DB  PAN L100 
*PATCH BONEY_M_-_SUNNY.MP3:  FROM SOURCE 1 TO RECORD 15 
*SOURCE FILE: BONEY M - SUNNY.MP3
006256  BONEY_M_-_SUNNY.MP3              A16   C        01:01:14:22 01:01:34:22 01:29:18:08 01:29:38:08 
*FROM CLIP NAME:  BONEY M - SUNNY.MP3 
*A16 VOL =  -6.0 DB  PAN R100 
*PATCH BONEY_M_-_SUNNY.MP3:  FROM SOURCE 2 TO RECORD 16 
*SOURCE FILE: BONEY M - SUNNY.MP3
006257  19Y07M26                         A7    C        17:56:13:20 17:56:16:23 01:29:18:16 01:29:21:19 
*FROM CLIP NAME:  36AK1/04.SYNC.01 
*PATCH 19Y07M26:  FROM SOURCE 1 TO RECORD 7 
*SOURCE FILE: 19Y07M26
006258  19Y07M26                         A8    C        17:56:13:20 17:56:16:23 01:29:18:16 01:29:21:19 
*FROM CLIP NAME:  36AK1/04.SYNC.01 
*PATCH 19Y07M26:  FROM SOURCE 2 TO RECORD 8 
*SOURCE FILE: 19Y07M26
006259  19Y07M26                         A9    C        17:56:13:20 17:56:16:23 01:29:18:16 01:29:21:19 
*FROM CLIP NAME:  36AK1/04.SYNC.01 
*PATCH 19Y07M26:  FROM SOURCE 3 TO RECORD 9 
*SOURCE FILE: 19Y07M26
006261  M108_C034_20190729_R             V     C        17:26:49:03 17:26:51:11 01:29:19:11 01:29:21:19 
*FROM CLIP NAME:  M108_C034_20190729_R.NEW.01 
*SOURCE FILE: M108_C034_20190729_R
006260  BL                               V     C        00:00:00:00 00:00:02:08 01:29:19:11 01:29:21:19 
*SOURCE FILE: (NULL)
006262  SENTMESSAGE.MP3                  A4    C        01:00:00:00 01:00:00:11 01:29:19:16 01:29:20:02 
*FROM CLIP NAME:  SENTMESSAGE.MP3 
*A4 VOL =  -1.0 DB  PAN L100 
*PATCH SENTMESSAGE.MP3:  FROM SOURCE 1 TO RECORD 4 
*SOURCE FILE: SENTMESSAGE.MP3
006263  IMG_0066.JPG                     V     C        01:00:00:14 01:00:02:15 01:29:19:18 01:29:21:19 
*FROM CLIP NAME:  IMG_0066.JPG 
*SOURCE FILE: IMG_0066.JPG
006264  SENTMESSAGE.MP3                  A4    C        01:00:00:00 01:00:00:11 01:29:20:04 01:29:20:15 
*FROM CLIP NAME:  SENTMESSAGE.MP3 
*A4 VOL =  -1.1 DB  PAN L100 
*PATCH SENTMESSAGE.MP3:  FROM SOURCE 1 TO RECORD 4 
*SOURCE FILE: SENTMESSAGE.MP3
006265  IMG_0071.JPG                     V     C        01:00:01:02 01:00:02:15 01:29:20:06 01:29:21:19 
*FROM CLIP NAME:  IMG_0071.JPG 
*SOURCE FILE: IMG_0071.JPG
006266  SENTMESSAGE.MP3                  A4    C        01:00:00:00 01:00:00:11 01:29:20:18 01:29:21:04 
*FROM CLIP NAME:  SENTMESSAGE.MP3 
*A4 VOL =  -1.1 DB  PAN L100 
*PATCH SENTMESSAGE.MP3:  FROM SOURCE 1 TO RECORD 4 
*SOURCE FILE: SENTMESSAGE.MP3
006267  IMG_0070.JPG                     V     C        01:00:01:14 01:00:02:15 01:29:20:18 01:29:21:19 
*FROM CLIP NAME:  IMG_0070.JPG 
*SOURCE FILE: IMG_0070.JPG
006268  SENTMESSAGE.MP3                  A4    C        01:00:00:00 01:00:00:11 01:29:21:06 01:29:21:17 
*FROM CLIP NAME:  SENTMESSAGE.MP3 
*A4 VOL =  -4.0 DB  PAN L100 
*PATCH SENTMESSAGE.MP3:  FROM SOURCE 1 TO RECORD 4 
*SOURCE FILE: SENTMESSAGE.MP3
006269  IMG_0063.JPG                     V     C        01:00:00:03 01:00:00:16 01:29:21:06 01:29:21:19 
*FROM CLIP NAME:  IMG_0063.JPG 
*SOURCE FILE: IMG_0063.JPG
006270  B005C002_190726_R4CP             V     C        17:50:47:07 17:50:48:02 01:29:21:19 01:29:22:14 
*FROM CLIP NAME:  B005C002_190726_R4CP.NEW.01 
*SOURCE FILE: B005C002_190726_R4CP
006271  19Y07M26                         A     C        17:50:47:07 17:50:48:02 01:29:21:19 01:29:22:14 
*FROM CLIP NAME:  36AK1/02.SYNC.01 
*SOURCE FILE: 19Y07M26
006272  19Y07M26                         A2    C        17:50:47:07 17:50:48:02 01:29:21:19 01:29:22:14 
*FROM CLIP NAME:  36AK1/02.SYNC.01 
*SOURCE FILE: 19Y07M26
006273  19Y07M26                         A3    C        17:50:47:07 17:50:48:02 01:29:21:19 01:29:22:14 
*FROM CLIP NAME:  36AK1/02.SYNC.01 
*SOURCE FILE: 19Y07M26
006274  19Y07M26                         A4    C        17:50:47:07 17:50:48:02 01:29:21:19 01:29:22:14 
*FROM CLIP NAME:  36AK1/02.SYNC.01 
*PATCH 19Y07M26:  FROM SOURCE 1 TO RECORD 4 
*SOURCE FILE: 19Y07M26
006275  19Y07M26                         A5    C        17:50:47:07 17:50:48:02 01:29:21:19 01:29:22:14 
*FROM CLIP NAME:  36AK1/02.SYNC.01 
*PATCH 19Y07M26:  FROM SOURCE 1 TO RECORD 5 
*SOURCE FILE: 19Y07M26
006276  BL                               V     C        00:00:00:00 00:00:04:06 01:29:21:19 01:29:26:00 
*SOURCE FILE: (NULL)
006277  BL                               V     C        00:00:00:00 00:00:16:05 01:29:21:19 01:29:37:24 
*SOURCE FILE: (NULL)
006278  BL                               V     C        00:00:00:00 00:00:25:00 01:29:21:19 01:29:46:19 
*SOURCE FILE: (NULL)
006279  BL                               V     C        00:00:00:00 00:27:13:18 01:29:21:19 01:56:35:12 
*SOURCE FILE: (NULL)
006280  BL                               V     C        00:00:00:00 00:27:38:06 01:29:21:19 01:57:00:00 
*SOURCE FILE: (NULL)
006281  B005C001_190726_R4CP             V     C        17:49:12:12 17:49:13:12 01:29:22:14 01:29:23:14 
*FROM CLIP NAME:  B005C001_190726_R4CP.NEW.01 
*SOURCE FILE: B005C001_190726_R4CP
006282  19Y07M26                         A     C        17:49:12:12 17:49:13:12 01:29:22:14 01:29:23:14 
*FROM CLIP NAME:  36AK1/01.SYNC.01 
*SOURCE FILE: 19Y07M26
006283  19Y07M26                         A2    C        17:49:12:12 17:49:13:12 01:29:22:14 01:29:23:14 
*FROM CLIP NAME:  36AK1/01.SYNC.01 
*SOURCE FILE: 19Y07M26
006284  19Y07M26                         A3    C        17:49:12:12 17:49:13:12 01:29:22:14 01:29:23:14 
*FROM CLIP NAME:  36AK1/01.SYNC.01 
*SOURCE FILE: 19Y07M26
006285  19Y07M26                         A4    C        17:49:12:12 17:49:13:12 01:29:22:14 01:29:23:14 
*FROM CLIP NAME:  36AK1/01.SYNC.01 
*PATCH 19Y07M26:  FROM SOURCE 1 TO RECORD 4 
*SOURCE FILE: 19Y07M26
006286  19Y07M26                         A5    C        17:49:12:12 17:49:13:12 01:29:22:14 01:29:23:14 
*FROM CLIP NAME:  36AK1/01.SYNC.01 
*PATCH 19Y07M26:  FROM SOURCE 1 TO RECORD 5 
*SOURCE FILE: 19Y07M26
006287  B005C001_190726_R4CP             V     C        17:49:26:21 17:49:28:00 01:29:23:14 01:29:24:18 
*FROM CLIP NAME:  B005C001_190726_R4CP.NEW.01 
*SOURCE FILE: B005C001_190726_R4CP
006288  19Y07M26                         A     C        17:49:26:21 17:49:28:00 01:29:23:14 01:29:24:18 
*FROM CLIP NAME:  36AK1/01.SYNC.01 
*SOURCE FILE: 19Y07M26
006289  19Y07M26                         A2    C        17:49:26:21 17:49:28:00 01:29:23:14 01:29:24:18 
*FROM CLIP NAME:  36AK1/01.SYNC.01 
*SOURCE FILE: 19Y07M26
006290  19Y07M26                         A3    C        17:49:26:21 17:49:28:00 01:29:23:14 01:29:24:18 
*FROM CLIP NAME:  36AK1/01.SYNC.01 
*SOURCE FILE: 19Y07M26
006291  19Y07M26                         A4    C        17:49:26:21 17:49:28:00 01:29:23:14 01:29:24:18 
*FROM CLIP NAME:  36AK1/01.SYNC.01 
*PATCH 19Y07M26:  FROM SOURCE 1 TO RECORD 4 
*SOURCE FILE: 19Y07M26
006292  19Y07M26                         A5    C        17:49:26:21 17:49:28:00 01:29:23:14 01:29:24:18 
*FROM CLIP NAME:  36AK1/01.SYNC.01 
*PATCH 19Y07M26:  FROM SOURCE 1 TO RECORD 5 
*SOURCE FILE: 19Y07M26
006293  B005C008_190726_R4CP             V     C        18:21:40:04 18:21:41:05 01:29:24:18 01:29:25:19 
*FROM CLIP NAME:  B005C008_190726_R4CP.NEW.01 
*SOURCE FILE: B005C008_190726_R4CP
006294  19Y07M26                         A     C        18:21:31:05 18:21:32:21 01:29:25:03 01:29:26:19 
*FROM CLIP NAME:  37K2/03.SYNC.01 
*SOURCE FILE: 19Y07M26
006295  19Y07M26                         A2    C        18:21:31:05 18:21:32:21 01:29:25:03 01:29:26:19 
*FROM CLIP NAME:  37K2/03.SYNC.01 
*SOURCE FILE: 19Y07M26
006296  19Y07M26                         A3    C        18:21:31:05 18:21:32:21 01:29:25:03 01:29:26:19 
*FROM CLIP NAME:  37K2/03.SYNC.01 
*SOURCE FILE: 19Y07M26
006297  19Y07M26                         A4    C        18:21:31:05 18:21:32:21 01:29:25:03 01:29:26:19 
*FROM CLIP NAME:  37K2/03.SYNC.01 
*SOURCE FILE: 19Y07M26
006298  19Y07M26                         A5    C        18:21:31:05 18:21:32:21 01:29:25:03 01:29:26:19 
*FROM CLIP NAME:  37K2/03.SYNC.01 
*PATCH 19Y07M26:  FROM SOURCE 1 TO RECORD 5 
*SOURCE FILE: 19Y07M26
006299  19Y07M26                         A6    C        18:21:31:05 18:21:32:21 01:29:25:03 01:29:26:19 
*FROM CLIP NAME:  37K2/03.SYNC.01 
*PATCH 19Y07M26:  FROM SOURCE 1 TO RECORD 6 
*SOURCE FILE: 19Y07M26
006300  B005C008_190726_R4CP             V     C        18:21:42:24 18:21:46:22 01:29:25:19 01:29:29:17 
*FROM CLIP NAME:  B005C008_190726_R4CP.NEW.01 
*SOURCE FILE: B005C008_190726_R4CP
006301  CLIP3_SC3.MOV                    V     C        00:00:01:03 00:00:06:13 01:29:26:00 01:29:31:10 
*FROM CLIP NAME:  CLIP3_SC3.MOV 
*SOURCE FILE: CLIP3_SC3.MOV
006302  19Y07M26                         A     C        18:21:34:08 18:21:35:09 01:29:27:24 01:29:29:00 
*FROM CLIP NAME:  37K2/03.SYNC.01 
*SOURCE FILE: 19Y07M26
006303  19Y07M26                         A2    C        18:21:34:08 18:21:35:09 01:29:27:24 01:29:29:00 
*FROM CLIP NAME:  37K2/03.SYNC.01 
*SOURCE FILE: 19Y07M26
006304  19Y07M26                         A3    C        18:21:34:08 18:21:35:09 01:29:27:24 01:29:29:00 
*FROM CLIP NAME:  37K2/03.SYNC.01 
*SOURCE FILE: 19Y07M26
006305  19Y07M26                         A4    C        18:21:34:08 18:21:35:09 01:29:27:24 01:29:29:00 
*FROM CLIP NAME:  37K2/03.SYNC.01 
*SOURCE FILE: 19Y07M26
006306  19Y07M26                         A5    C        18:21:34:08 18:21:35:09 01:29:27:24 01:29:29:00 
*FROM CLIP NAME:  37K2/03.SYNC.01 
*PATCH 19Y07M26:  FROM SOURCE 1 TO RECORD 5 
*SOURCE FILE: 19Y07M26
006307  19Y07M26                         A6    C        18:21:34:08 18:21:35:09 01:29:27:24 01:29:29:00 
*FROM CLIP NAME:  37K2/03.SYNC.01 
*PATCH 19Y07M26:  FROM SOURCE 1 TO RECORD 6 
*SOURCE FILE: 19Y07M26
006308  19Y07M26                         A     C        17:53:09:15 17:53:13:14 01:29:29:11 01:29:33:10 
*FROM CLIP NAME:  36AK1/03.SYNC.01 
*SOURCE FILE: 19Y07M26
006309  19Y07M26                         A2    C        17:53:09:15 17:53:13:14 01:29:29:11 01:29:33:10 
*FROM CLIP NAME:  36AK1/03.SYNC.01 
*SOURCE FILE: 19Y07M26
006310  19Y07M26                         A3    C        17:53:09:15 17:53:13:14 01:29:29:11 01:29:33:10 
*FROM CLIP NAME:  36AK1/03.SYNC.01 
*SOURCE FILE: 19Y07M26
006311  19Y07M26                         A4    C        17:53:09:15 17:53:13:14 01:29:29:11 01:29:33:10 
*FROM CLIP NAME:  36AK1/03.SYNC.01 
*PATCH 19Y07M26:  FROM SOURCE 1 TO RECORD 4 
*SOURCE FILE: 19Y07M26
006312  19Y07M26                         A5    C        17:53:09:15 17:53:13:14 01:29:29:11 01:29:33:10 
*FROM CLIP NAME:  36AK1/03.SYNC.01 
*PATCH 19Y07M26:  FROM SOURCE 1 TO RECORD 5 
*SOURCE FILE: 19Y07M26
006313  B005C008_190726_R4CP             V     C        18:21:51:01 18:21:52:19 01:29:29:17 01:29:31:10 
*FROM CLIP NAME:  B005C008_190726_R4CP.NEW.01 
*SOURCE FILE: B005C008_190726_R4CP
006314  B005C003_190726_R4CP             V     C        17:53:11:20 17:53:13:14 01:29:31:10 01:29:33:04 
*FROM CLIP NAME:  B005C003_190726_R4CP.NEW.01 
*SOURCE FILE: B005C003_190726_R4CP
006315  BL                               V     C        00:00:00:00 00:27:14:04 01:29:31:10 01:56:45:14 
*SOURCE FILE: (NULL)
006316  B005C008_190726_R4CP             V     C        18:21:52:21 18:21:54:05 01:29:33:04 01:29:34:13 
*FROM CLIP NAME:  B005C008_190726_R4CP.NEW.01 
*SOURCE FILE: B005C008_190726_R4CP
006317  19Y07M26                         A     C        18:21:40:04 18:21:44:18 01:29:33:10 01:29:37:24 
*FROM CLIP NAME:  37K2/03.SYNC.01 
*SOURCE FILE: 19Y07M26
006318  19Y07M26                         A2    C        18:21:40:04 18:21:44:18 01:29:33:10 01:29:37:24 
*FROM CLIP NAME:  37K2/03.SYNC.01 
*SOURCE FILE: 19Y07M26
006319  19Y07M26                         A3    C        18:21:40:04 18:21:45:01 01:29:33:10 01:29:38:07 
*FROM CLIP NAME:  37K2/03.SYNC.01 
*SOURCE FILE: 19Y07M26
006320  19Y07M26                         A4    C        18:21:40:04 18:21:45:01 01:29:33:10 01:29:38:07 
*FROM CLIP NAME:  37K2/03.SYNC.01 
*SOURCE FILE: 19Y07M26
006321  19Y07M26                         A5    C        18:21:40:04 18:21:45:01 01:29:33:10 01:29:38:07 
*FROM CLIP NAME:  37K2/03.SYNC.01 
*PATCH 19Y07M26:  FROM SOURCE 1 TO RECORD 5 
*SOURCE FILE: 19Y07M26
006322  19Y07M26                         A6    C        18:21:40:04 18:21:45:02 01:29:33:10 01:29:38:08 
*FROM CLIP NAME:  37K2/03.SYNC.01 
*PATCH 19Y07M26:  FROM SOURCE 1 TO RECORD 6 
*SOURCE FILE: 19Y07M26
006323  B005C008_190726_R4CP             V     C        18:22:00:05 18:22:01:05 01:29:34:13 01:29:35:13 
*FROM CLIP NAME:  B005C008_190726_R4CP.NEW.01 
*SOURCE FILE: B005C008_190726_R4CP
006324  B005C008_190726_R4CP             V     C        18:22:02:08 18:22:03:07 01:29:35:13 01:29:36:12 
*FROM CLIP NAME:  B005C008_190726_R4CP.NEW.01 
*SOURCE FILE: B005C008_190726_R4CP
006325  B005C008_190726_R4CP             V     C        18:22:05:08 18:22:06:20 01:29:36:12 01:29:37:24 
*FROM CLIP NAME:  B005C008_190726_R4CP.NEW.01 
*SOURCE FILE: B005C008_190726_R4CP
006326  B001C011_190725_R4CP             V     C        10:23:53:08 10:23:56:08 01:29:37:24 01:29:40:24 
*FROM CLIP NAME:  B001C011_190725_R4CP.NEW.01 
*SOURCE FILE: B001C011_190725_R4CP
006327  M108_C012_20190729_R             A     C        14:34:40:24 14:34:43:24 01:29:37:24 01:29:40:24 
*FROM CLIP NAME:  M108_C012_20190729_R.NEW.01 
*SOURCE FILE: M108_C012_20190729_R
006328  M108_C012_20190729_R             A2    C        14:34:40:24 14:34:43:24 01:29:37:24 01:29:40:24 
*FROM CLIP NAME:  M108_C012_20190729_R.NEW.01 
*SOURCE FILE: M108_C012_20190729_R
006329  CLIP4_SC4.MOV                    V     C        00:00:00:00 00:00:07:03 01:29:37:24 01:29:45:02 
*FROM CLIP NAME:  CLIP4_SC4.MOV 
*SOURCE FILE: CLIP4_SC4.MOV
006330  SENTMESSAGE.MP3                  A9    C        01:00:00:00 01:00:00:11 01:29:38:06 01:29:38:17 
*FROM CLIP NAME:  SENTMESSAGE.MP3 
*A9 VOL =  +8.5 DB  PAN R100 
*PATCH SENTMESSAGE.MP3:  FROM SOURCE 1 TO RECORD 9 
*SOURCE FILE: SENTMESSAGE.MP3
006331  BONEY_M_-_SUNNY.MP3              A15   C        01:01:34:22 01:02:33:03 01:29:38:08 01:30:36:14 
*FROM CLIP NAME:  BONEY M - SUNNY.MP3 
*A15 VOL =  -6.0 DB  PAN L100 
*PATCH BONEY_M_-_SUNNY.MP3:  FROM SOURCE 1 TO RECORD 15 
*SOURCE FILE: BONEY M - SUNNY.MP3
006332  BONEY_M_-_SUNNY.MP3              A16   C        01:01:34:22 01:02:33:03 01:29:38:08 01:30:36:14 
*FROM CLIP NAME:  BONEY M - SUNNY.MP3 
*A16 VOL =  -6.0 DB  PAN R100 
*PATCH BONEY_M_-_SUNNY.MP3:  FROM SOURCE 2 TO RECORD 16 
*SOURCE FILE: BONEY M - SUNNY.MP3
006333  SENTMESSAGE.MP3                  A9    C        01:00:00:00 01:00:00:11 01:29:39:09 01:29:39:20 
*FROM CLIP NAME:  SENTMESSAGE.MP3 
*A9 VOL =  +8.5 DB  PAN R100 
*PATCH SENTMESSAGE.MP3:  FROM SOURCE 1 TO RECORD 9 
*SOURCE FILE: SENTMESSAGE.MP3
006334  MSMMMOB.29                       V     C        17:09:36:07 17:09:40:10 01:29:40:24 01:29:45:02 
M2      MSMMMOB.29                                025.0 17:09:36:07 
*FROM CLIP NAME:  A061C008_190809_R32C 
*SOURCE FILE: MSMMMOB.29
006335  MSMMMOB.29                       A     C        17:09:36:07 17:09:40:10 01:29:40:24 01:29:45:02 
*FROM CLIP NAME:  A061C008_190809_R32C 
*SOURCE FILE: MSMMMOB.29
006336  MSMMMOB.29                       A2    C        17:09:36:07 17:09:40:10 01:29:40:24 01:29:45:02 
*FROM CLIP NAME:  A061C008_190809_R32C 
*SOURCE FILE: MSMMMOB.29
006337  19Y08M09                         A3    C        17:09:36:07 17:09:40:10 01:29:40:24 01:29:45:02 
*FROM CLIP NAME:  38BK1/02 
*SOURCE FILE: 19Y08M09
006338  MSMMMOB.29                       A4    C        17:09:36:07 17:09:40:10 01:29:40:24 01:29:45:02 
*FROM CLIP NAME:  A061C008_190809_R32C 
*SOURCE FILE: MSMMMOB.29
006339  MSMMMOB.29                       A5    C        17:09:36:07 17:09:40:10 01:29:40:24 01:29:45:02 
*FROM CLIP NAME:  A061C008_190809_R32C 
*SOURCE FILE: MSMMMOB.29
006340  SENTMESSAGE.MP3                  A9    C        01:00:00:00 01:00:00:11 01:29:42:23 01:29:43:09 
*FROM CLIP NAME:  SENTMESSAGE.MP3 
*A9 VOL =  +8.5 DB  PAN R100 
*PATCH SENTMESSAGE.MP3:  FROM SOURCE 1 TO RECORD 9 
*SOURCE FILE: SENTMESSAGE.MP3
006341  MSMMMOB.55                       V     C        18:12:14:16 18:12:16:08 01:29:45:02 01:29:46:19 
M2      MSMMMOB.55                                025.0 18:12:14:16 
*FROM CLIP NAME:  A061C011_190809_R32C 
*SOURCE FILE: MSMMMOB.55
006342  MSMMMOB.55                       A     C        18:12:13:15 18:12:15:24 01:29:45:02 01:29:47:11 
*FROM CLIP NAME:  A061C011_190809_R32C 
*SOURCE FILE: MSMMMOB.55
006343  MSMMMOB.55                       A2    C        18:12:13:15 18:12:15:24 01:29:45:02 01:29:47:11 
*FROM CLIP NAME:  A061C011_190809_R32C 
*SOURCE FILE: MSMMMOB.55
006344  19Y08M09                         A3    C        17:32:05:15 17:32:07:24 01:29:45:02 01:29:47:11 
*FROM CLIP NAME:  39K1/03 
*SOURCE FILE: 19Y08M09
006345  MSMMMOB.55                       A4    C        18:12:13:15 18:12:15:24 01:29:45:02 01:29:47:11 
*FROM CLIP NAME:  A061C011_190809_R32C 
*SOURCE FILE: MSMMMOB.55
006346  MSMMMOB.55                       A5    C        18:12:13:15 18:12:15:24 01:29:45:02 01:29:47:11 
*FROM CLIP NAME:  A061C011_190809_R32C 
*SOURCE FILE: MSMMMOB.55
006347  BL                               V     C        00:00:00:00 00:00:25:04 01:29:45:02 01:30:10:06 
*SOURCE FILE: (NULL)
006348  FOTOAPPARAT_-_ZVUK_FOTOAPPARATA_ A6    C        01:00:00:00 01:00:00:22 01:29:45:22 01:29:46:19 
*FROM CLIP NAME:  FOTOAPPARAT_-_ZVUK_FOTOAPPARATA_11.MP3 
*PATCH FOTOAPPARAT_-_ZVUK_FOTOAPPARATA_:  FROM SOURCE 2 TO RECORD 6 
*SOURCE FILE: FOTOAPPARAT_-_ZVUK_FOTOAPPARATA_11.MP3
006349  FOTOAPPARAT_-_ZVUK_FOTOAPPARATA_ A7    C        01:00:00:00 01:00:00:22 01:29:45:22 01:29:46:19 
*FROM CLIP NAME:  FOTOAPPARAT_-_ZVUK_FOTOAPPARATA_11.MP3 
*PATCH FOTOAPPARAT_-_ZVUK_FOTOAPPARATA_:  FROM SOURCE 1 TO RECORD 7 
*SOURCE FILE: FOTOAPPARAT_-_ZVUK_FOTOAPPARATA_11.MP3
006350  MSMMMOB.55                       V     C        18:12:38:21 18:12:42:09 01:29:46:19 01:29:50:07 
M2      MSMMMOB.55                                025.0 18:12:38:21 
*FROM CLIP NAME:  A061C011_190809_R32C 
*SOURCE FILE: MSMMMOB.55
006351  CLIP5_SC5.MOV                    V     C        00:00:00:00 00:00:03:13 01:29:46:19 01:29:50:07 
*FROM CLIP NAME:  CLIP5_SC5.MOV 
*SOURCE FILE: CLIP5_SC5.MOV
006352  MSMMMOB.55                       A     C        18:12:36:11 18:12:39:12 01:29:47:11 01:29:50:12 
*FROM CLIP NAME:  A061C011_190809_R32C 
*SOURCE FILE: MSMMMOB.55
006353  MSMMMOB.55                       A2    C        18:12:36:11 18:12:39:12 01:29:47:11 01:29:50:12 
*FROM CLIP NAME:  A061C011_190809_R32C 
*SOURCE FILE: MSMMMOB.55
006354  19Y08M09                         A3    C        17:32:28:11 17:32:31:12 01:29:47:11 01:29:50:12 
*FROM CLIP NAME:  39K1/03 
*SOURCE FILE: 19Y08M09
006355  MSMMMOB.55                       A4    C        18:12:36:11 18:12:39:12 01:29:47:11 01:29:50:12 
*FROM CLIP NAME:  A061C011_190809_R32C 
*SOURCE FILE: MSMMMOB.55
006356  MSMMMOB.55                       A5    C        18:12:36:11 18:12:39:12 01:29:47:11 01:29:50:12 
*FROM CLIP NAME:  A061C011_190809_R32C 
*SOURCE FILE: MSMMMOB.55
006357  SENTMESSAGE.MP3                  A9    C        01:00:00:00 01:00:00:11 01:29:50:07 01:29:50:18 
*FROM CLIP NAME:  SENTMESSAGE.MP3 
*A9 VOL =  +8.5 DB  PAN R100 
*PATCH SENTMESSAGE.MP3:  FROM SOURCE 1 TO RECORD 9 
*SOURCE FILE: SENTMESSAGE.MP3
006359  CLIP5_SC5.MOV                    V     C        00:00:04:03 00:00:06:16 01:29:50:07 01:29:52:20 
*FROM CLIP NAME:  CLIP5_SC5.MOV 
*SOURCE FILE: CLIP5_SC5.MOV
006358  MSMMMOB.55                       V     C        18:13:00:08 18:13:02:21 01:29:50:07 01:29:52:20 
M2      MSMMMOB.55                                025.0 18:13:00:08 
*FROM CLIP NAME:  A061C011_190809_R32C 
*SOURCE FILE: MSMMMOB.55
006360  MSMMMOB.55                       A     C        18:13:00:08 18:13:01:21 01:29:50:12 01:29:52:00 
*FROM CLIP NAME:  A061C011_190809_R32C 
*SOURCE FILE: MSMMMOB.55
006361  MSMMMOB.55                       A2    C        18:13:00:08 18:13:01:21 01:29:50:12 01:29:52:00 
*FROM CLIP NAME:  A061C011_190809_R32C 
*SOURCE FILE: MSMMMOB.55
006362  19Y08M09                         A3    C        17:32:52:08 17:32:53:21 01:29:50:12 01:29:52:00 
*FROM CLIP NAME:  39K1/03 
*SOURCE FILE: 19Y08M09
006363  MSMMMOB.55                       A4    C        18:13:00:08 18:13:01:21 01:29:50:12 01:29:52:00 
*FROM CLIP NAME:  A061C011_190809_R32C 
*SOURCE FILE: MSMMMOB.55
006364  MSMMMOB.55                       A5    C        18:13:00:08 18:13:01:21 01:29:50:12 01:29:52:00 
*FROM CLIP NAME:  A061C011_190809_R32C 
*SOURCE FILE: MSMMMOB.55
006365  MSMMMOB.18                       A6    C        00:00:53:22 00:00:56:05 01:29:50:12 01:29:52:20 
M2      MSMMMOB.18                                025.0 00:00:53:22 
*FROM CLIP NAME:  39A_40-0-0 
*PATCH MSMMMOB.18:  FROM SOURCE 1 TO RECORD 6 
*SOURCE FILE: MSMMMOB.18
006366  MSMMMOB.18                       A7    C        00:00:53:22 00:00:56:05 01:29:50:12 01:29:52:20 
M2      MSMMMOB.18                                025.0 00:00:53:22 
*FROM CLIP NAME:  39A_40-0-0 
*PATCH MSMMMOB.18:  FROM SOURCE 2 TO RECORD 7 
*SOURCE FILE: MSMMMOB.18
006367  MSMMMOB.35                       V     C        19:26:45:05 19:26:46:14 01:29:52:20 01:29:54:04 
M2      MSMMMOB.35                                025.0 19:26:45:05 
*FROM CLIP NAME:  A101C004_190822_R32C 
*SOURCE FILE: MSMMMOB.35
006368  19Y08M22                         A     C        19:26:45:03 19:26:46:12 01:29:52:20 01:29:54:04 
*FROM CLIP NAME:  40K2/03 
*SOURCE FILE: 19Y08M22
006369  19Y08M22                         A2    C        19:26:45:03 19:26:46:12 01:29:52:20 01:29:54:04 
*FROM CLIP NAME:  40K2/03 
*SOURCE FILE: 19Y08M22
006370  MSMMMOB.35                       A3    C        19:26:45:05 19:26:46:14 01:29:52:20 01:29:54:04 
*FROM CLIP NAME:  A101C004_190822_R32C 
*SOURCE FILE: MSMMMOB.35
006371  MSMMMOB.35                       A4    C        19:26:45:05 19:26:46:14 01:29:52:20 01:29:54:04 
*FROM CLIP NAME:  A101C004_190822_R32C 
*SOURCE FILE: MSMMMOB.35
006372  MSMMMOB.35                       A5    C        19:26:45:05 19:26:46:14 01:29:52:20 01:29:54:04 
*FROM CLIP NAME:  A101C004_190822_R32C 
*SOURCE FILE: MSMMMOB.35
006373  BL                               V     C        00:00:00:00 00:00:09:11 01:29:52:20 01:30:02:06 
*SOURCE FILE: (NULL)
006374  MSMMMOB.35                       V     C        19:26:48:17 19:26:50:06 01:29:54:04 01:29:55:18 
M2      MSMMMOB.35                                025.0 19:26:48:17 
*FROM CLIP NAME:  A101C004_190822_R32C 
*SOURCE FILE: MSMMMOB.35
006375  19Y08M22                         A     C        19:26:48:15 19:26:50:04 01:29:54:04 01:29:55:18 
*FROM CLIP NAME:  40K2/03 
*SOURCE FILE: 19Y08M22
006376  19Y08M22                         A2    C        19:26:48:15 19:26:50:04 01:29:54:04 01:29:55:18 
*FROM CLIP NAME:  40K2/03 
*SOURCE FILE: 19Y08M22
006377  MSMMMOB.35                       A3    C        19:26:48:17 19:26:50:06 01:29:54:04 01:29:55:18 
*FROM CLIP NAME:  A101C004_190822_R32C 
*SOURCE FILE: MSMMMOB.35
006378  MSMMMOB.35                       A4    C        19:26:48:17 19:26:50:06 01:29:54:04 01:29:55:18 
*FROM CLIP NAME:  A101C004_190822_R32C 
*SOURCE FILE: MSMMMOB.35
006379  MSMMMOB.35                       A5    C        19:26:48:17 19:26:50:06 01:29:54:04 01:29:55:18 
*FROM CLIP NAME:  A101C004_190822_R32C 
*SOURCE FILE: MSMMMOB.35
006380  MSMMMOB.35                       V     C        19:26:54:19 19:26:56:10 01:29:55:18 01:29:57:09 
M2      MSMMMOB.35                                025.0 19:26:54:19 
*FROM CLIP NAME:  A101C004_190822_R32C 
*SOURCE FILE: MSMMMOB.35
006381  19Y08M22                         A     C        19:26:54:17 19:26:56:08 01:29:55:18 01:29:57:09 
*FROM CLIP NAME:  40K2/03 
*SOURCE FILE: 19Y08M22
006382  19Y08M22                         A2    C        19:26:54:17 19:26:56:08 01:29:55:18 01:29:57:09 
*FROM CLIP NAME:  40K2/03 
*SOURCE FILE: 19Y08M22
006383  MSMMMOB.35                       A3    C        19:26:54:19 19:26:56:10 01:29:55:18 01:29:57:09 
*FROM CLIP NAME:  A101C004_190822_R32C 
*SOURCE FILE: MSMMMOB.35
006384  MSMMMOB.35                       A4    C        19:26:54:19 19:26:56:10 01:29:55:18 01:29:57:09 
*FROM CLIP NAME:  A101C004_190822_R32C 
*SOURCE FILE: MSMMMOB.35
006385  MSMMMOB.35                       A5    C        19:26:54:19 19:26:56:10 01:29:55:18 01:29:57:09 
*FROM CLIP NAME:  A101C004_190822_R32C 
*SOURCE FILE: MSMMMOB.35
006386  MSMMMOB.35                       V     C        19:26:57:15 19:26:59:24 01:29:57:09 01:29:59:18 
M2      MSMMMOB.35                                025.0 19:26:57:15 
*FROM CLIP NAME:  A101C004_190822_R32C 
*SOURCE FILE: MSMMMOB.35
006387  19Y08M22                         A     C        19:26:57:13 19:26:59:22 01:29:57:09 01:29:59:18 
*FROM CLIP NAME:  40K2/03 
*SOURCE FILE: 19Y08M22
006388  19Y08M22                         A2    C        19:26:57:13 19:26:59:22 01:29:57:09 01:29:59:18 
*FROM CLIP NAME:  40K2/03 
*SOURCE FILE: 19Y08M22
006389  MSMMMOB.35                       A3    C        19:26:57:15 19:26:59:24 01:29:57:09 01:29:59:18 
*FROM CLIP NAME:  A101C004_190822_R32C 
*SOURCE FILE: MSMMMOB.35
006390  MSMMMOB.35                       A4    C        19:26:57:15 19:26:59:24 01:29:57:09 01:29:59:18 
*FROM CLIP NAME:  A101C004_190822_R32C 
*SOURCE FILE: MSMMMOB.35
006391  MSMMMOB.35                       A5    C        19:26:57:15 19:26:59:24 01:29:57:09 01:29:59:18 
*FROM CLIP NAME:  A101C004_190822_R32C 
*SOURCE FILE: MSMMMOB.35
006392  19Y08M22                         A     C        19:28:08:00 19:28:09:03 01:29:59:18 01:30:00:21 
*FROM CLIP NAME:  40K2/04 
*SOURCE FILE: 19Y08M22
006393  19Y08M22                         A2    C        19:28:08:00 19:28:09:03 01:29:59:18 01:30:00:21 
*FROM CLIP NAME:  40K2/04 
*SOURCE FILE: 19Y08M22
006394  MSMMMOB.89                       A3    C        19:28:18:13 19:28:20:12 01:29:59:18 01:30:01:17 
*FROM CLIP NAME:  A101C006_190822_R32C 
*SOURCE FILE: MSMMMOB.89
006395  MSMMMOB.89                       A4    C        19:28:18:13 19:28:20:12 01:29:59:18 01:30:01:17 
*FROM CLIP NAME:  A101C006_190822_R32C 
*SOURCE FILE: MSMMMOB.89
006396  MSMMMOB.89                       A5    C        19:28:18:13 19:28:20:12 01:29:59:18 01:30:01:17 
*FROM CLIP NAME:  A101C006_190822_R32C 
*SOURCE FILE: MSMMMOB.89
006397  MSMMMOB.89                       V     C        19:28:18:13 19:28:21:01 01:29:59:18 01:30:02:06 
M2      MSMMMOB.89                                025.0 19:28:18:13 
*FROM CLIP NAME:  A101C006_190822_R32C 
*SOURCE FILE: MSMMMOB.89
006398  01854.MP3                        A6    C        01:00:03:10 01:00:06:04 01:30:00:20 01:30:03:14 
*FROM CLIP NAME:  01854.MP3 
*A6 VOL =  +4.4 DB  PAN L100 
*PATCH 01854.MP3:  FROM SOURCE 2 TO RECORD 6 
*SOURCE FILE: 01854.MP3
006399  01854.MP3                        A7    C        01:00:03:10 01:00:06:04 01:30:00:20 01:30:03:14 
*FROM CLIP NAME:  01854.MP3 
*A7 VOL =  +4.4 DB  PAN R100 
*PATCH 01854.MP3:  FROM SOURCE 1 TO RECORD 7 
*SOURCE FILE: 01854.MP3
006400  19Y08M22                         A     C        19:28:20:05 19:28:21:15 01:30:00:21 01:30:02:06 
*FROM CLIP NAME:  40K2/04 
*SOURCE FILE: 19Y08M22
006401  19Y08M22                         A2    C        19:28:20:05 19:28:21:15 01:30:00:21 01:30:02:06 
*FROM CLIP NAME:  40K2/04 
*SOURCE FILE: 19Y08M22
006403  BL                               V     C        00:00:00:00 00:00:03:21 01:30:02:06 01:30:06:02 
*SOURCE FILE: (NULL)
006402  M108_C024_20190729_R             V     C        16:08:12:20 16:08:16:16 01:30:02:06 01:30:06:02 
*FROM CLIP NAME:  M108_C024_20190729_R.NEW.01 
*SOURCE FILE: M108_C024_20190729_R
006404  01854.MP3                        A6    C        01:00:00:00 01:00:13:11 01:30:03:14 01:30:17:00 
*FROM CLIP NAME:  01854.MP3 
*A6 VOL =  +0.0 DB  PAN L100 
*PATCH 01854.MP3:  FROM SOURCE 2 TO RECORD 6 
*SOURCE FILE: 01854.MP3
006405  01854.MP3                        A7    C        01:00:00:00 01:00:13:11 01:30:03:14 01:30:17:00 
*FROM CLIP NAME:  01854.MP3 
*A7 VOL =  +0.0 DB  PAN R100 
*PATCH 01854.MP3:  FROM SOURCE 1 TO RECORD 7 
*SOURCE FILE: 01854.MP3
006406  C0008                            V     C        00:01:44:14 00:01:45:16 01:30:06:02 01:30:07:04 
*FROM CLIP NAME:  C0008.NEW.01 
*SOURCE FILE: C0008
006407  C0008                            A     C        00:01:30:18 00:01:33:22 01:30:06:02 01:30:09:06 
*FROM CLIP NAME:  C0008.NEW.01 
*A1 VOL =  -9.0 DB  PAN R100 
*SOURCE FILE: C0008
006408  C0008                            A2    C        00:01:30:18 00:01:33:22 01:30:06:02 01:30:09:06 
*FROM CLIP NAME:  C0008.NEW.01 
*A2 VOL =  -9.0 DB  PAN L100 
*SOURCE FILE: C0008
006409  01890.MP3                        A8    C        01:00:07:06 01:00:11:00 01:30:06:02 01:30:09:21 
*FROM CLIP NAME:  01890.MP3 
*A8 VOL =  +0.0 DB  PAN L100 
*PATCH 01890.MP3:  FROM SOURCE 2 TO RECORD 8 
*SOURCE FILE: 01890.MP3
006410  01890.MP3                        A9    C        01:00:07:06 01:00:11:00 01:30:06:02 01:30:09:21 
*FROM CLIP NAME:  01890.MP3 
*A9 VOL =  +0.0 DB  PAN R100 
*PATCH 01890.MP3:  FROM SOURCE 1 TO RECORD 9 
*SOURCE FILE: 01890.MP3
006411  BL                               V     C        00:00:00:00 00:00:35:02 01:30:06:02 01:30:41:04 
*SOURCE FILE: (NULL)
006412  C0011                            V     C        00:02:53:07 00:02:54:13 01:30:07:04 01:30:08:10 
*FROM CLIP NAME:  C0011.NEW.01 
*SOURCE FILE: C0011
006413  C0013                            V     C        00:03:59:22 00:04:01:08 01:30:08:10 01:30:09:21 
*FROM CLIP NAME:  C0013.NEW.01 
*SOURCE FILE: C0013
006414  C0008                            A     C        00:01:30:18 00:01:31:08 01:30:09:06 01:30:09:21 
*FROM CLIP NAME:  C0008.NEW.01 
*A1 VOL =  -5.6 DB  PAN R100 
*SOURCE FILE: C0008
006415  C0008                            A2    C        00:01:30:18 00:01:31:08 01:30:09:06 01:30:09:21 
*FROM CLIP NAME:  C0008.NEW.01 
*A2 VOL =  -5.6 DB  PAN L100 
*SOURCE FILE: C0008
006416  B001C009_190725_R4CP             V     C        09:54:06:07 09:54:08:05 01:30:09:21 01:30:11:19 
*FROM CLIP NAME:  B001C009_190725_R4CP.NEW.01 
*SOURCE FILE: B001C009_190725_R4CP
006417  CLIP6_SC6.MOV                    V     C        00:00:00:00 00:00:04:04 01:30:10:06 01:30:14:10 
*FROM CLIP NAME:  CLIP6_SC6.MOV 
*SOURCE FILE: CLIP6_SC6.MOV
006418  SENTMESSAGE.MP3                  A9    C        01:00:00:00 01:00:00:11 01:30:10:24 01:30:11:10 
*FROM CLIP NAME:  SENTMESSAGE.MP3 
*A9 VOL =  -1.5 DB  PAN R100 
*PATCH SENTMESSAGE.MP3:  FROM SOURCE 1 TO RECORD 9 
*SOURCE FILE: SENTMESSAGE.MP3
006419  B001C009_190725_R4CP             V     C        09:54:14:04 09:54:16:20 01:30:11:19 01:30:14:10 
*FROM CLIP NAME:  B001C009_190725_R4CP.NEW.01 
*SOURCE FILE: B001C009_190725_R4CP
006420  SENTMESSAGE.MP3                  A9    C        01:00:00:00 01:00:00:11 01:30:13:04 01:30:13:15 
*FROM CLIP NAME:  SENTMESSAGE.MP3 
*A9 VOL =  -1.0 DB  PAN R100 
*PATCH SENTMESSAGE.MP3:  FROM SOURCE 1 TO RECORD 9 
*SOURCE FILE: SENTMESSAGE.MP3
006421  CLIP6_SC6.MOV                    V     C        00:00:05:13 00:00:08:10 01:30:14:10 01:30:17:07 
*FROM CLIP NAME:  CLIP6_SC6.MOV 
*SOURCE FILE: CLIP6_SC6.MOV
006422  B001C009_190725_R4CP             V     C        09:54:24:15 09:54:27:22 01:30:14:10 01:30:17:17 
*FROM CLIP NAME:  B001C009_190725_R4CP.NEW.01 
*SOURCE FILE: B001C009_190725_R4CP
006423  SENTMESSAGE.MP3                  A9    C        01:00:00:00 01:00:00:11 01:30:14:14 01:30:15:00 
*FROM CLIP NAME:  SENTMESSAGE.MP3 
*A9 VOL =  -1.1 DB  PAN R100 
*PATCH SENTMESSAGE.MP3:  FROM SOURCE 1 TO RECORD 9 
*SOURCE FILE: SENTMESSAGE.MP3
006424  CLIP6_SC6.MOV                    V     C        00:00:07:15 00:00:10:22 01:30:17:07 01:30:20:14 
*FROM CLIP NAME:  CLIP6_SC6.MOV 
*SOURCE FILE: CLIP6_SC6.MOV
006425  B001C009_190725_R4CP             V     C        09:54:32:07 09:54:35:20 01:30:17:17 01:30:21:05 
*FROM CLIP NAME:  B001C009_190725_R4CP.NEW.01 
*SOURCE FILE: B001C009_190725_R4CP
006426  SENTMESSAGE.MP3                  A9    C        01:00:00:00 01:00:00:11 01:30:18:02 01:30:18:13 
*FROM CLIP NAME:  SENTMESSAGE.MP3 
*A9 VOL =  -2.1 DB  PAN R100 
*PATCH SENTMESSAGE.MP3:  FROM SOURCE 1 TO RECORD 9 
*SOURCE FILE: SENTMESSAGE.MP3
006427  CLIP6_SC6.MOV                    V     C        00:00:10:22 00:00:10:22 01:30:20:14 01:30:20:14 
006427  BL                               V     D    011 00:00:00:00 00:00:00:11 01:30:20:14 01:30:21:00 
*BLEND, DISSOLVE 
*FROM CLIP NAME:  CLIP6_SC6.MOV 
*SOURCE FILE: CLIP6_SC6.MOV
006428  BL                               V     C        00:00:00:00 00:02:48:09 01:30:21:00 01:33:09:09 
*SOURCE FILE: (NULL)
006429  C0077                            V     C        00:19:19:02 00:19:20:10 01:30:21:05 01:30:22:13 
*FROM CLIP NAME:  C0077.NEW.01 
*SOURCE FILE: C0077
006430  MSMMMOB.39                       V     C        20:08:59:05 20:09:00:20 01:30:22:13 01:30:24:03 
M2      MSMMMOB.39                                025.0 20:08:59:05 
*FROM CLIP NAME:  S003_C031_20190819_R 
*SOURCE FILE: MSMMMOB.39
006431  MSMMMOB.39                       A     C        20:08:59:05 20:09:00:20 01:30:22:13 01:30:24:03 
M2      MSMMMOB.39                                025.0 20:08:59:05 
*FROM CLIP NAME:  S003_C031_20190819_R 
*SOURCE FILE: MSMMMOB.39
006432  MSMMMOB.39                       A2    C        20:08:59:05 20:09:00:20 01:30:22:13 01:30:24:03 
M2      MSMMMOB.39                                025.0 20:08:59:05 
*FROM CLIP NAME:  S003_C031_20190819_R 
*SOURCE FILE: MSMMMOB.39
006433  BL                               V     C        00:00:00:00 00:00:02:10 01:30:22:13 01:30:24:23 
*SOURCE FILE: (NULL)
006434  CINEMASCOPE_2-35-1_CROPLINES.PNG V     C        01:00:00:00 01:02:46:21 01:30:22:13 01:33:09:09 
*FROM CLIP NAME:  CINEMASCOPE 2-35-1 CROPLINES.PNG 
*SOURCE FILE: CINEMASCOPE 2-35-1 CROPLINES.PNG
006435  A018C003_190728_R32C             V     C        22:13:08:24 22:13:10:17 01:30:24:03 01:30:25:21 
*FROM CLIP NAME:  A018C003_190728_R32C.NEW.01 
*SOURCE FILE: A018C003_190728_R32C
006436  19Y07M28                         A     C        22:11:46:18 22:11:48:18 01:30:24:03 01:30:26:03 
*FROM CLIP NAME:  44K1/03 
*SOURCE FILE: 19Y07M28
006437  19Y07M28                         A2    C        22:11:46:18 22:11:48:18 01:30:24:03 01:30:26:03 
*FROM CLIP NAME:  44K1/03 
*SOURCE FILE: 19Y07M28
006438  19Y07M28                         A3    C        22:11:46:18 22:11:48:18 01:30:24:03 01:30:26:03 
*FROM CLIP NAME:  44K1/03 
*SOURCE FILE: 19Y07M28
006439  19Y07M28                         A4    C        22:11:46:18 22:11:48:18 01:30:24:03 01:30:26:03 
*FROM CLIP NAME:  44K1/03 
*SOURCE FILE: 19Y07M28
006440  19Y07M28                         A5    C        22:11:46:18 22:11:48:18 01:30:24:03 01:30:26:03 
*FROM CLIP NAME:  44K1/03 
*SOURCE FILE: 19Y07M28
006441  19Y07M28                         A6    C        22:11:46:18 22:11:48:18 01:30:24:03 01:30:26:03 
*FROM CLIP NAME:  44K1/03 
*PATCH 19Y07M28:  FROM SOURCE 7 TO RECORD 6 
*SOURCE FILE: 19Y07M28
006442  CLIP7_SC7.MOV                    V     C        00:00:01:00 00:00:01:17 01:30:24:23 01:30:25:15 
*FROM CLIP NAME:  CLIP7_SC7.MOV 
*SOURCE FILE: CLIP7_SC7.MOV
006443  CLIP7_SC7.MOV                    V     C        00:00:01:13 00:00:01:17 01:30:25:15 01:30:25:19 
*FROM CLIP NAME:  CLIP7_SC7.MOV 
*SOURCE FILE: CLIP7_SC7.MOV
006444  CLIP7_SC7.MOV                    V     C        00:00:01:13 00:00:01:15 01:30:25:19 01:30:25:21 
*FROM CLIP NAME:  CLIP7_SC7.MOV 
*SOURCE FILE: CLIP7_SC7.MOV
006445  A018C003_190728_R32C             V     C        22:12:15:07 22:12:17:11 01:30:25:21 01:30:28:00 
*FROM CLIP NAME:  A018C003_190728_R32C.NEW.01 
*SOURCE FILE: A018C003_190728_R32C
006446  CLIP7_SC7.MOV                    V     C        00:00:01:18 00:00:05:08 01:30:25:21 01:30:29:11 
*FROM CLIP NAME:  CLIP7_SC7.MOV 
*SOURCE FILE: CLIP7_SC7.MOV
006447  19Y07M28                         A     C        22:12:00:15 22:12:02:11 01:30:26:03 01:30:27:24 
*FROM CLIP NAME:  44K1/03 
*SOURCE FILE: 19Y07M28
006448  19Y07M28                         A2    C        22:12:00:15 22:12:02:11 01:30:26:03 01:30:27:24 
*FROM CLIP NAME:  44K1/03 
*SOURCE FILE: 19Y07M28
006449  19Y07M28                         A3    C        22:12:00:15 22:12:02:11 01:30:26:03 01:30:27:24 
*FROM CLIP NAME:  44K1/03 
*SOURCE FILE: 19Y07M28
006450  19Y07M28                         A4    C        22:12:00:15 22:12:02:11 01:30:26:03 01:30:27:24 
*FROM CLIP NAME:  44K1/03 
*SOURCE FILE: 19Y07M28
006451  19Y07M28                         A5    C        22:12:00:15 22:12:02:11 01:30:26:03 01:30:27:24 
*FROM CLIP NAME:  44K1/03 
*SOURCE FILE: 19Y07M28
006452  19Y07M28                         A6    C        22:12:00:15 22:12:02:11 01:30:26:03 01:30:27:24 
*FROM CLIP NAME:  44K1/03 
*PATCH 19Y07M28:  FROM SOURCE 7 TO RECORD 6 
*SOURCE FILE: 19Y07M28
006453  19Y07M28                         A     C        22:12:46:07 22:12:47:10 01:30:27:24 01:30:29:02 
*FROM CLIP NAME:  44K1/03 
*SOURCE FILE: 19Y07M28
006454  19Y07M28                         A2    C        22:12:46:07 22:12:47:10 01:30:27:24 01:30:29:02 
*FROM CLIP NAME:  44K1/03 
*SOURCE FILE: 19Y07M28
006455  19Y07M28                         A3    C        22:12:46:07 22:12:47:10 01:30:27:24 01:30:29:02 
*FROM CLIP NAME:  44K1/03 
*SOURCE FILE: 19Y07M28
006456  19Y07M28                         A4    C        22:12:46:07 22:12:47:10 01:30:27:24 01:30:29:02 
*FROM CLIP NAME:  44K1/03 
*SOURCE FILE: 19Y07M28
006457  19Y07M28                         A5    C        22:12:46:07 22:12:47:10 01:30:27:24 01:30:29:02 
*FROM CLIP NAME:  44K1/03 
*SOURCE FILE: 19Y07M28
006458  19Y07M28                         A6    C        22:12:46:07 22:12:47:10 01:30:27:24 01:30:29:02 
*FROM CLIP NAME:  44K1/03 
*PATCH 19Y07M28:  FROM SOURCE 7 TO RECORD 6 
*SOURCE FILE: 19Y07M28
006459  A018C003_190728_R32C             V     C        22:11:34:22 22:11:36:08 01:30:28:00 01:30:29:11 
*FROM CLIP NAME:  A018C003_190728_R32C.NEW.01 
*SOURCE FILE: A018C003_190728_R32C
006460  19Y07M28                         A     C        22:12:48:14 22:12:49:18 01:30:29:02 01:30:30:06 
*FROM CLIP NAME:  44K1/03 
*SOURCE FILE: 19Y07M28
006461  19Y07M28                         A2    C        22:12:48:14 22:12:49:18 01:30:29:02 01:30:30:06 
*FROM CLIP NAME:  44K1/03 
*SOURCE FILE: 19Y07M28
006462  19Y07M28                         A3    C        22:12:48:14 22:12:49:18 01:30:29:02 01:30:30:06 
*FROM CLIP NAME:  44K1/03 
*SOURCE FILE: 19Y07M28
006463  19Y07M28                         A4    C        22:12:48:14 22:12:49:18 01:30:29:02 01:30:30:06 
*FROM CLIP NAME:  44K1/03 
*SOURCE FILE: 19Y07M28
006464  19Y07M28                         A5    C        22:12:48:14 22:12:49:18 01:30:29:02 01:30:30:06 
*FROM CLIP NAME:  44K1/03 
*SOURCE FILE: 19Y07M28
006465  19Y07M28                         A6    C        22:12:48:14 22:12:49:18 01:30:29:02 01:30:30:06 
*FROM CLIP NAME:  44K1/03 
*PATCH 19Y07M28:  FROM SOURCE 7 TO RECORD 6 
*SOURCE FILE: 19Y07M28
006467  A018C003_190728_R32C             V     C        22:11:46:05 22:11:48:17 01:30:29:11 01:30:31:23 
*FROM CLIP NAME:  A018C003_190728_R32C.NEW.01 
*SOURCE FILE: A018C003_190728_R32C
006466  CLIP7_SC7.MOV                    V     C        00:00:05:18 00:00:08:05 01:30:29:11 01:30:31:23 
*FROM CLIP NAME:  CLIP7_SC7.MOV 
*SOURCE FILE: CLIP7_SC7.MOV
006468  19Y07M28                         A     C        22:13:24:09 22:13:25:22 01:30:30:06 01:30:31:19 
*FROM CLIP NAME:  44K1/03 
*SOURCE FILE: 19Y07M28
006469  19Y07M28                         A2    C        22:13:24:09 22:13:25:23 01:30:30:06 01:30:31:20 
*FROM CLIP NAME:  44K1/03 
*SOURCE FILE: 19Y07M28
006470  19Y07M28                         A3    C        22:13:24:09 22:13:25:23 01:30:30:06 01:30:31:20 
*FROM CLIP NAME:  44K1/03 
*SOURCE FILE: 19Y07M28
006471  19Y07M28                         A4    C        22:13:24:09 22:13:25:23 01:30:30:06 01:30:31:20 
*FROM CLIP NAME:  44K1/03 
*SOURCE FILE: 19Y07M28
006472  19Y07M28                         A5    C        22:13:24:09 22:13:25:23 01:30:30:06 01:30:31:20 
*FROM CLIP NAME:  44K1/03 
*SOURCE FILE: 19Y07M28
006473  19Y07M28                         A6    C        22:13:24:09 22:13:25:23 01:30:30:06 01:30:31:20 
*FROM CLIP NAME:  44K1/03 
*PATCH 19Y07M28:  FROM SOURCE 7 TO RECORD 6 
*SOURCE FILE: 19Y07M28
006474  CLIP7_SC7.MOV                    V     C        00:00:09:07 00:00:10:12 01:30:31:23 01:30:33:03 
*FROM CLIP NAME:  CLIP7_SC7.MOV 
*SOURCE FILE: CLIP7_SC7.MOV
006475  A018C003_190728_R32C             V     C        22:11:59:07 22:12:02:06 01:30:31:23 01:30:34:22 
*FROM CLIP NAME:  A018C003_190728_R32C.NEW.01 
*SOURCE FILE: A018C003_190728_R32C
006476  CLIP7_SC7.MOV                    V     C        00:00:10:22 00:00:12:16 01:30:33:03 01:30:34:22 
*FROM CLIP NAME:  CLIP7_SC7.MOV 
*SOURCE FILE: CLIP7_SC7.MOV
006478  CLIP7_SC7.MOV                    V     C        00:00:13:03 00:00:13:23 01:30:34:22 01:30:35:17 
*FROM CLIP NAME:  CLIP7_SC7.MOV 
*SOURCE FILE: CLIP7_SC7.MOV
006477  A018C003_190728_R32C             V     C        22:13:21:08 22:13:22:03 01:30:34:22 01:30:35:17 
*FROM CLIP NAME:  A018C003_190728_R32C.NEW.01 
*SOURCE FILE: A018C003_190728_R32C
006480  A018C003_190728_R32C             V     C        22:12:37:11 22:12:38:10 01:30:35:17 01:30:36:16 
*FROM CLIP NAME:  A018C003_190728_R32C.NEW.01 
*SOURCE FILE: A018C003_190728_R32C
006479  CLIP7_SC7.MOV                    V     C        00:00:13:03 00:00:14:02 01:30:35:17 01:30:36:16 
*FROM CLIP NAME:  CLIP7_SC7.MOV 
*SOURCE FILE: CLIP7_SC7.MOV
006481  BL                               A17   C        00:00:00:00 00:00:00:00 01:30:36:14 01:30:36:14 
006481  BONEY_M_-_SUNNY.MP3              A17   D    010 01:03:36:04 01:03:36:14 01:30:36:14 01:30:36:24 
*TO CLIP NAME:  BONEY M - SUNNY.MP3 
*A17 VOL =  -9.0 DB  PAN L100 
*PATCH BONEY_M_-_SUNNY.MP3:  FROM SOURCE 1 TO RECORD 17 
*SOURCE FILE: (NULL)
006482  BL                               A18   C        00:00:00:00 00:00:00:00 01:30:36:14 01:30:36:14 
006482  BONEY_M_-_SUNNY.MP3              A18   D    010 01:03:36:04 01:03:36:14 01:30:36:14 01:30:36:24 
*TO CLIP NAME:  BONEY M - SUNNY.MP3 
*A18 VOL =  -9.0 DB  PAN R100 
*PATCH BONEY_M_-_SUNNY.MP3:  FROM SOURCE 2 TO RECORD 18 
*SOURCE FILE: (NULL)
006483  BONEY_M_-_SUNNY.MP3              A15   C        01:02:33:03 01:02:33:03 01:30:36:14 01:30:36:14 
006483  BL                               A15   D    014 00:00:00:00 00:00:00:14 01:30:36:14 01:30:37:03 
*FROM CLIP NAME:  BONEY M - SUNNY.MP3 
*A15 VOL =  -6.0 DB  PAN L100 
*PATCH BONEY_M_-_SUNNY.MP3:  FROM SOURCE 1 TO RECORD 15 
*SOURCE FILE: BONEY M - SUNNY.MP3
006484  BONEY_M_-_SUNNY.MP3              A16   C        01:02:33:03 01:02:33:03 01:30:36:14 01:30:36:14 
006484  BL                               A16   D    014 00:00:00:00 00:00:00:14 01:30:36:14 01:30:37:03 
*FROM CLIP NAME:  BONEY M - SUNNY.MP3 
*A16 VOL =  -6.0 DB  PAN R100 
*PATCH BONEY_M_-_SUNNY.MP3:  FROM SOURCE 2 TO RECORD 16 
*SOURCE FILE: BONEY M - SUNNY.MP3
006486  A018C003_190728_R32C             V     C        22:13:29:00 22:13:30:01 01:30:36:16 01:30:37:17 
*FROM CLIP NAME:  A018C003_190728_R32C.NEW.01 
*SOURCE FILE: A018C003_190728_R32C
006485  CLIP7_SC7.MOV                    V     C        00:00:13:03 00:00:14:04 01:30:36:16 01:30:37:17 
*FROM CLIP NAME:  CLIP7_SC7.MOV 
*SOURCE FILE: CLIP7_SC7.MOV
006487  BONEY_M_-_SUNNY.MP3              A17   C        01:03:36:14 01:03:53:05 01:30:36:24 01:30:53:15 
*, PITCH II 
*FROM CLIP NAME:  BONEY M - SUNNY.MP3 
*A17 VOL =  -9.0 DB  PAN L100 
*PATCH BONEY_M_-_SUNNY.MP3:  FROM SOURCE 1 TO RECORD 17 
*SOURCE FILE: BONEY M - SUNNY.MP3
006488  BONEY_M_-_SUNNY.MP3              A18   C        01:03:36:14 01:03:53:05 01:30:36:24 01:30:53:15 
*, PITCH II 
*FROM CLIP NAME:  BONEY M - SUNNY.MP3 
*A18 VOL =  -9.0 DB  PAN R100 
*PATCH BONEY_M_-_SUNNY.MP3:  FROM SOURCE 2 TO RECORD 18 
*SOURCE FILE: BONEY M - SUNNY.MP3
006489  MSMMMOB.59                       V     C        20:05:35:14 20:05:36:15 01:30:37:17 01:30:38:18 
*FROM CLIP NAME:  S003_C030_20190819_R 
*SOURCE FILE: MSMMMOB.59
006490  BL                               V     C        00:00:00:00 00:06:59:00 01:30:37:17 01:37:36:17 
*SOURCE FILE: (NULL)
006491  C0077                            V     C        00:20:15:06 00:20:16:04 01:30:38:18 01:30:39:16 
*FROM CLIP NAME:  C0077.NEW.01 
*SOURCE FILE: C0077
006492  A019C019_190729_R32C             V     C        10:08:01:20 10:08:02:07 01:30:39:16 01:30:40:03 
*FROM CLIP NAME:  A019C019_190729_R32C.NEW.01.SUB.01 
*SOURCE FILE: A019C019_190729_R32C
006493  A019C019_190729_R32C             V     C        10:08:04:21 10:08:05:08 01:30:40:03 01:30:40:15 
*FROM CLIP NAME:  A019C019_190729_R32C.NEW.01.SUB.01 
*SOURCE FILE: A019C019_190729_R32C
006494  A019C019_190729_R32C             V     C        10:08:06:11 10:08:07:00 01:30:40:15 01:30:41:04 
*FROM CLIP NAME:  A019C019_190729_R32C.NEW.01.SUB.01 
*SOURCE FILE: A019C019_190729_R32C
006496  BL                               V     C        00:00:00:00 00:00:01:23 01:30:41:04 01:30:43:02 
*SOURCE FILE: (NULL)
006495  A019C016_190729_R32C             V     C        09:58:34:04 09:58:36:02 01:30:41:04 01:30:43:02 
*FROM CLIP NAME:  A019C016_190729_R32C.NEW.01.SUB.01 
*SOURCE FILE: A019C016_190729_R32C
006497  MSMMMOB.31                       V     C        00:00:14:12 00:00:15:17 01:30:43:02 01:30:44:07 
M2      MSMMMOB.31                                025.0 00:00:14:12 
*FROM CLIP NAME:  08222019_183617 
*SOURCE FILE: MSMMMOB.31
006498  MSMMMOB.31                       A     C        00:00:14:12 00:00:15:17 01:30:43:02 01:30:44:07 
*FROM CLIP NAME:  08222019_183617 
*SOURCE FILE: MSMMMOB.31
006499  19Y08M22                         A2    C        18:40:06:14 18:40:07:19 01:30:43:02 01:30:44:07 
*FROM CLIP NAME:  45BK1/02 
*SOURCE FILE: 19Y08M22
006500  BL                               V     C        00:00:00:00 00:08:14:14 01:30:43:02 01:38:57:16 
*SOURCE FILE: (NULL)
006501  MSMMMOB.31                       V     C        00:00:20:00 00:00:22:01 01:30:44:07 01:30:46:08 
M2      MSMMMOB.31                                025.0 00:00:20:00 
*FROM CLIP NAME:  08222019_183617 
*SOURCE FILE: MSMMMOB.31
006502  MSMMMOB.31                       A     C        00:00:20:00 00:00:22:01 01:30:44:07 01:30:46:08 
*FROM CLIP NAME:  08222019_183617 
*SOURCE FILE: MSMMMOB.31
006503  19Y08M22                         A2    C        18:40:12:02 18:40:14:03 01:30:44:07 01:30:46:08 
*FROM CLIP NAME:  45BK1/02 
*SOURCE FILE: 19Y08M22
006504  MSMMMOB.31                       V     C        00:00:24:21 00:00:26:09 01:30:46:08 01:30:47:21 
M2      MSMMMOB.31                                025.0 00:00:24:21 
*FROM CLIP NAME:  08222019_183617 
*SOURCE FILE: MSMMMOB.31
006505  MSMMMOB.31                       A     C        00:00:24:21 00:00:26:09 01:30:46:08 01:30:47:21 
*FROM CLIP NAME:  08222019_183617 
*SOURCE FILE: MSMMMOB.31
006506  19Y08M22                         A2    C        18:40:16:23 18:40:18:11 01:30:46:08 01:30:47:21 
*FROM CLIP NAME:  45BK1/02 
*SOURCE FILE: 19Y08M22
006507  MSMMMOB.67                       V     C        14:29:47:01 14:29:49:21 01:30:47:21 01:30:50:16 
M2      MSMMMOB.67                                025.0 14:29:47:01 
*FROM CLIP NAME:  A098C007_190822_R32C 
*SOURCE FILE: MSMMMOB.67
006508  19Y08M22                         A     C        14:29:47:00 14:29:49:20 01:30:47:21 01:30:50:16 
*FROM CLIP NAME:  48K5/02 
*SOURCE FILE: 19Y08M22
006509  19Y08M22                         A2    C        14:29:47:00 14:29:49:20 01:30:47:21 01:30:50:16 
*FROM CLIP NAME:  48K5/02 
*SOURCE FILE: 19Y08M22
006510  MSMMMOB.67                       A3    C        14:29:47:01 14:29:49:21 01:30:47:21 01:30:50:16 
*FROM CLIP NAME:  A098C007_190822_R32C 
*SOURCE FILE: MSMMMOB.67
006511  19Y08M22                         A4    C        14:29:47:00 14:29:49:20 01:30:47:21 01:30:50:16 
*FROM CLIP NAME:  48K5/02 
*SOURCE FILE: 19Y08M22
006512  19Y08M22                         A5    C        14:29:47:00 14:29:49:20 01:30:47:21 01:30:50:16 
*FROM CLIP NAME:  48K5/02 
*SOURCE FILE: 19Y08M22
006513  19Y08M22                         A6    C        14:29:47:00 14:29:49:20 01:30:47:21 01:30:50:16 
*FROM CLIP NAME:  48K5/02 
*PATCH 19Y08M22:  FROM SOURCE 7 TO RECORD 6 
*SOURCE FILE: 19Y08M22
006514  MSMMMOB.34                       V     C        00:00:15:18 00:00:18:17 01:30:50:16 01:30:53:15 
M2      MSMMMOB.34                                025.0 00:00:15:18 
*FROM CLIP NAME:  08222019_123333 
*SOURCE FILE: MSMMMOB.34
006515  MSMMMOB.20                       V     C        18:14:36:13 18:14:39:21 01:30:53:15 01:30:56:23 
*FROM CLIP NAME:  46-5-1 
*SOURCE FILE: MSMMMOB.20
006516  BONEY_M_-_SUNNY.MP3              A17   C        01:03:53:05 01:04:01:08 01:30:53:15 01:31:01:18 
*, PITCH II 
*FROM CLIP NAME:  BONEY M - SUNNY.MP3 
*A17 VOL =  -9.0 DB  PAN L100 
*PATCH BONEY_M_-_SUNNY.MP3:  FROM SOURCE 1 TO RECORD 17 
*SOURCE FILE: BONEY M - SUNNY.MP3
006517  BONEY_M_-_SUNNY.MP3              A18   C        01:03:53:05 01:04:01:08 01:30:53:15 01:31:01:18 
*, PITCH II 
*FROM CLIP NAME:  BONEY M - SUNNY.MP3 
*A18 VOL =  -9.0 DB  PAN R100 
*PATCH BONEY_M_-_SUNNY.MP3:  FROM SOURCE 2 TO RECORD 18 
*SOURCE FILE: BONEY M - SUNNY.MP3
006518  19Y08M22                         A     C        17:03:01:22 17:03:26:20 01:30:53:15 01:31:18:13 
*FROM CLIP NAME:  46K2/03 
*SOURCE FILE: 19Y08M22
006519  19Y08M22                         A2    C        17:03:01:22 17:03:26:20 01:30:53:15 01:31:18:13 
*FROM CLIP NAME:  46K2/03 
*SOURCE FILE: 19Y08M22
006520  MSMMMOB.62                       A3    C        17:03:01:23 17:03:26:21 01:30:53:15 01:31:18:13 
*FROM CLIP NAME:  A099C004_190822_R32C 
*SOURCE FILE: MSMMMOB.62
006521  19Y08M22                         A4    C        17:03:01:22 17:03:26:20 01:30:53:15 01:31:18:13 
*FROM CLIP NAME:  46K2/03 
*SOURCE FILE: 19Y08M22
006522  MSMMMOB.62                       A5    C        17:03:01:23 17:03:26:21 01:30:53:15 01:31:18:13 
*FROM CLIP NAME:  A099C004_190822_R32C 
*SOURCE FILE: MSMMMOB.62
006523  19Y08M22                         A6    C        17:03:01:22 17:03:26:20 01:30:53:15 01:31:18:13 
*FROM CLIP NAME:  46K2/03 
*PATCH 19Y08M22:  FROM SOURCE 7 TO RECORD 6 
*SOURCE FILE: 19Y08M22
006524  19Y08M22                         A7    C        17:03:01:22 17:03:26:20 01:30:53:15 01:31:18:13 
*FROM CLIP NAME:  46K2/03 
*PATCH 19Y08M22:  FROM SOURCE 8 TO RECORD 7 
*SOURCE FILE: 19Y08M22
006525  02611.MP3                        A8    C        01:00:12:00 01:00:43:18 01:30:53:15 01:31:25:08 
*FROM CLIP NAME:  02611.MP3 
*A8 VOL = -20.0 DB  PAN L100 
*PATCH 02611.MP3:  FROM SOURCE 2 TO RECORD 8 
*SOURCE FILE: 02611.MP3
006526  02611.MP3                        A9    C        01:00:12:00 01:00:43:18 01:30:53:15 01:31:25:08 
*FROM CLIP NAME:  02611.MP3 
*A9 VOL = -20.0 DB  PAN R100 
*PATCH 02611.MP3:  FROM SOURCE 1 TO RECORD 9 
*SOURCE FILE: 02611.MP3
006527  MSMMMOB.62                       V     C        17:03:05:06 17:03:26:21 01:30:56:23 01:31:18:13 
M2      MSMMMOB.62                                025.0 17:03:05:06 
*FROM CLIP NAME:  A099C004_190822_R32C 
*SOURCE FILE: MSMMMOB.62
006528  MSMMMOB.48                       V     C        17:29:41:02 17:29:45:07 01:31:18:13 01:31:22:18 
M2      MSMMMOB.48                                025.0 17:29:41:02 
*FROM CLIP NAME:  A099C007_190822_R32C 
*SOURCE FILE: MSMMMOB.48
006529  19Y08M22                         A     C        17:29:41:00 17:29:45:05 01:31:18:13 01:31:22:18 
*FROM CLIP NAME:  46K3/03 
*SOURCE FILE: 19Y08M22
006530  19Y08M22                         A2    C        17:29:41:00 17:29:45:05 01:31:18:13 01:31:22:18 
*FROM CLIP NAME:  46K3/03 
*SOURCE FILE: 19Y08M22
006531  MSMMMOB.48                       A3    C        17:29:41:02 17:29:45:07 01:31:18:13 01:31:22:18 
*FROM CLIP NAME:  A099C007_190822_R32C 
*SOURCE FILE: MSMMMOB.48
006532  19Y08M22                         A4    C        17:29:41:00 17:29:45:05 01:31:18:13 01:31:22:18 
*FROM CLIP NAME:  46K3/03 
*SOURCE FILE: 19Y08M22
006533  MSMMMOB.48                       A5    C        17:29:41:02 17:29:45:07 01:31:18:13 01:31:22:18 
*FROM CLIP NAME:  A099C007_190822_R32C 
*SOURCE FILE: MSMMMOB.48
006534  19Y08M22                         A6    C        17:29:41:00 17:29:45:05 01:31:18:13 01:31:22:18 
*FROM CLIP NAME:  46K3/03 
*PATCH 19Y08M22:  FROM SOURCE 7 TO RECORD 6 
*SOURCE FILE: 19Y08M22
006535  19Y08M22                         A7    C        17:29:41:00 17:29:45:05 01:31:18:13 01:31:22:18 
*FROM CLIP NAME:  46K3/03 
*PATCH 19Y08M22:  FROM SOURCE 8 TO RECORD 7 
*SOURCE FILE: 19Y08M22
006536  MSMMMOB.77                       V     C        18:05:27:13 18:05:30:03 01:31:22:18 01:31:25:08 
M2      MSMMMOB.77                                025.0 18:05:27:13 
*FROM CLIP NAME:  A100C004_190822_R32C 
*SOURCE FILE: MSMMMOB.77
006537  19Y08M22                         A     C        18:05:27:11 18:05:30:01 01:31:22:18 01:31:25:08 
*FROM CLIP NAME:  46K4/04 
*SOURCE FILE: 19Y08M22
006538  19Y08M22                         A2    C        18:05:27:11 18:05:30:01 01:31:22:18 01:31:25:08 
*FROM CLIP NAME:  46K4/04 
*SOURCE FILE: 19Y08M22
006539  MSMMMOB.77                       A3    C        18:05:27:13 18:05:30:03 01:31:22:18 01:31:25:08 
*FROM CLIP NAME:  A100C004_190822_R32C 
*SOURCE FILE: MSMMMOB.77
006540  19Y08M22                         A4    C        18:05:27:11 18:05:30:01 01:31:22:18 01:31:25:08 
*FROM CLIP NAME:  46K4/04 
*SOURCE FILE: 19Y08M22
006541  MSMMMOB.77                       A5    C        18:05:27:13 18:05:30:03 01:31:22:18 01:31:25:08 
*FROM CLIP NAME:  A100C004_190822_R32C 
*SOURCE FILE: MSMMMOB.77
006542  19Y08M22                         A6    C        18:05:27:11 18:05:30:01 01:31:22:18 01:31:25:08 
*FROM CLIP NAME:  46K4/04 
*PATCH 19Y08M22:  FROM SOURCE 7 TO RECORD 6 
*SOURCE FILE: 19Y08M22
006543  19Y08M22                         A7    C        18:05:27:11 18:05:30:01 01:31:22:18 01:31:25:08 
*FROM CLIP NAME:  46K4/04 
*PATCH 19Y08M22:  FROM SOURCE 8 TO RECORD 7 
*SOURCE FILE: 19Y08M22
006544  MSMMMOB.62                       V     C        17:03:26:14 17:03:30:05 01:31:25:08 01:31:28:24 
M2      MSMMMOB.62                                025.0 17:03:26:14 
*FROM CLIP NAME:  A099C004_190822_R32C 
*SOURCE FILE: MSMMMOB.62
006545  19Y08M22                         A     C        17:03:26:13 17:03:30:04 01:31:25:08 01:31:28:24 
*FROM CLIP NAME:  46K2/03 
*SOURCE FILE: 19Y08M22
006546  19Y08M22                         A2    C        17:03:26:13 17:03:30:04 01:31:25:08 01:31:28:24 
*FROM CLIP NAME:  46K2/03 
*SOURCE FILE: 19Y08M22
006547  MSMMMOB.62                       A3    C        17:03:26:14 17:03:30:05 01:31:25:08 01:31:28:24 
*FROM CLIP NAME:  A099C004_190822_R32C 
*SOURCE FILE: MSMMMOB.62
006548  19Y08M22                         A4    C        17:03:26:13 17:03:30:04 01:31:25:08 01:31:28:24 
*FROM CLIP NAME:  46K2/03 
*SOURCE FILE: 19Y08M22
006549  MSMMMOB.62                       A5    C        17:03:26:14 17:03:30:05 01:31:25:08 01:31:28:24 
*FROM CLIP NAME:  A099C004_190822_R32C 
*SOURCE FILE: MSMMMOB.62
006550  19Y08M22                         A6    C        17:03:26:13 17:03:30:04 01:31:25:08 01:31:28:24 
*FROM CLIP NAME:  46K2/03 
*PATCH 19Y08M22:  FROM SOURCE 7 TO RECORD 6 
*SOURCE FILE: 19Y08M22
006551  19Y08M22                         A7    C        17:03:26:13 17:03:30:04 01:31:25:08 01:31:28:24 
*FROM CLIP NAME:  46K2/03 
*PATCH 19Y08M22:  FROM SOURCE 8 TO RECORD 7 
*SOURCE FILE: 19Y08M22
006552  02611.MP3                        A8    C        01:00:44:01 01:00:57:16 01:31:25:08 01:31:38:23 
*FROM CLIP NAME:  02611.MP3 
*A8 VOL = -20.0 DB  PAN L100 
*PATCH 02611.MP3:  FROM SOURCE 2 TO RECORD 8 
*SOURCE FILE: 02611.MP3
006553  02611.MP3                        A9    C        01:00:44:01 01:00:57:16 01:31:25:08 01:31:38:23 
*FROM CLIP NAME:  02611.MP3 
*A9 VOL = -20.0 DB  PAN R100 
*PATCH 02611.MP3:  FROM SOURCE 1 TO RECORD 9 
*SOURCE FILE: 02611.MP3
006554  MSMMMOB.77                       V     C        18:06:09:19 18:06:11:08 01:31:28:24 01:31:30:13 
M2      MSMMMOB.77                                025.0 18:06:09:19 
*FROM CLIP NAME:  A100C004_190822_R32C 
*SOURCE FILE: MSMMMOB.77
006555  19Y08M22                         A     C        18:06:09:17 18:06:11:08 01:31:28:24 01:31:30:15 
*FROM CLIP NAME:  46K4/04 
*SOURCE FILE: 19Y08M22
006556  19Y08M22                         A2    C        18:06:09:17 18:06:11:08 01:31:28:24 01:31:30:15 
*FROM CLIP NAME:  46K4/04 
*SOURCE FILE: 19Y08M22
006557  MSMMMOB.77                       A3    C        18:06:09:19 18:06:11:10 01:31:28:24 01:31:30:15 
*FROM CLIP NAME:  A100C004_190822_R32C 
*SOURCE FILE: MSMMMOB.77
006558  19Y08M22                         A4    C        18:06:09:17 18:06:11:08 01:31:28:24 01:31:30:15 
*FROM CLIP NAME:  46K4/04 
*SOURCE FILE: 19Y08M22
006559  MSMMMOB.77                       A5    C        18:06:09:19 18:06:11:10 01:31:28:24 01:31:30:15 
*FROM CLIP NAME:  A100C004_190822_R32C 
*SOURCE FILE: MSMMMOB.77
006560  19Y08M22                         A6    C        18:06:09:17 18:06:11:08 01:31:28:24 01:31:30:15 
*FROM CLIP NAME:  46K4/04 
*PATCH 19Y08M22:  FROM SOURCE 7 TO RECORD 6 
*SOURCE FILE: 19Y08M22
006561  19Y08M22                         A7    C        18:06:09:17 18:06:11:08 01:31:28:24 01:31:30:15 
*FROM CLIP NAME:  46K4/04 
*PATCH 19Y08M22:  FROM SOURCE 8 TO RECORD 7 
*SOURCE FILE: 19Y08M22
006562  MSMMMOB.48                       V     C        17:29:51:23 17:29:52:24 01:31:30:13 01:31:31:14 
M2      MSMMMOB.48                                025.0 17:29:51:23 
*FROM CLIP NAME:  A099C007_190822_R32C 
*SOURCE FILE: MSMMMOB.48
006563  19Y08M22                         A     C        17:29:51:23 17:29:52:22 01:31:30:15 01:31:31:14 
*FROM CLIP NAME:  46K3/03 
*SOURCE FILE: 19Y08M22
006564  19Y08M22                         A2    C        17:29:51:23 17:29:52:22 01:31:30:15 01:31:31:14 
*FROM CLIP NAME:  46K3/03 
*SOURCE FILE: 19Y08M22
006565  MSMMMOB.48                       A3    C        17:29:52:00 17:29:52:24 01:31:30:15 01:31:31:14 
*FROM CLIP NAME:  A099C007_190822_R32C 
*SOURCE FILE: MSMMMOB.48
006566  19Y08M22                         A4    C        17:29:51:23 17:29:52:22 01:31:30:15 01:31:31:14 
*FROM CLIP NAME:  46K3/03 
*SOURCE FILE: 19Y08M22
006567  MSMMMOB.48                       A5    C        17:29:52:00 17:29:52:24 01:31:30:15 01:31:31:14 
*FROM CLIP NAME:  A099C007_190822_R32C 
*SOURCE FILE: MSMMMOB.48
006568  19Y08M22                         A6    C        17:29:51:23 17:29:52:22 01:31:30:15 01:31:31:14 
*FROM CLIP NAME:  46K3/03 
*PATCH 19Y08M22:  FROM SOURCE 7 TO RECORD 6 
*SOURCE FILE: 19Y08M22
006569  19Y08M22                         A7    C        17:29:51:23 17:29:52:22 01:31:30:15 01:31:31:14 
*FROM CLIP NAME:  46K3/03 
*PATCH 19Y08M22:  FROM SOURCE 8 TO RECORD 7 
*SOURCE FILE: 19Y08M22
006570  MSMMMOB.77                       V     C        18:06:13:00 18:06:14:04 01:31:31:14 01:31:32:18 
M2      MSMMMOB.77                                025.0 18:06:13:00 
*FROM CLIP NAME:  A100C004_190822_R32C 
*SOURCE FILE: MSMMMOB.77
006571  19Y08M22                         A     C        18:06:12:23 18:06:14:02 01:31:31:14 01:31:32:18 
*FROM CLIP NAME:  46K4/04 
*SOURCE FILE: 19Y08M22
006572  19Y08M22                         A2    C        18:06:12:23 18:06:14:02 01:31:31:14 01:31:32:18 
*FROM CLIP NAME:  46K4/04 
*SOURCE FILE: 19Y08M22
006573  MSMMMOB.77                       A3    C        18:06:13:00 18:06:14:04 01:31:31:14 01:31:32:18 
*FROM CLIP NAME:  A100C004_190822_R32C 
*SOURCE FILE: MSMMMOB.77
006574  19Y08M22                         A4    C        18:06:12:23 18:06:14:02 01:31:31:14 01:31:32:18 
*FROM CLIP NAME:  46K4/04 
*SOURCE FILE: 19Y08M22
006575  MSMMMOB.77                       A5    C        18:06:13:00 18:06:14:04 01:31:31:14 01:31:32:18 
*FROM CLIP NAME:  A100C004_190822_R32C 
*SOURCE FILE: MSMMMOB.77
006576  19Y08M22                         A6    C        18:06:12:23 18:06:14:02 01:31:31:14 01:31:32:18 
*FROM CLIP NAME:  46K4/04 
*PATCH 19Y08M22:  FROM SOURCE 7 TO RECORD 6 
*SOURCE FILE: 19Y08M22
006577  19Y08M22                         A7    C        18:06:12:23 18:06:14:02 01:31:31:14 01:31:32:18 
*FROM CLIP NAME:  46K4/04 
*PATCH 19Y08M22:  FROM SOURCE 8 TO RECORD 7 
*SOURCE FILE: 19Y08M22
006578  MSMMMOB.48                       V     C        17:29:53:20 17:29:56:16 01:31:32:18 01:31:35:14 
M2      MSMMMOB.48                                025.0 17:29:53:20 
*FROM CLIP NAME:  A099C007_190822_R32C 
*SOURCE FILE: MSMMMOB.48
006579  19Y08M22                         A     C        17:29:53:18 17:29:56:24 01:31:32:18 01:31:35:24 
*FROM CLIP NAME:  46K3/03 
*SOURCE FILE: 19Y08M22
006580  19Y08M22                         A2    C        17:29:53:18 17:29:56:24 01:31:32:18 01:31:35:24 
*FROM CLIP NAME:  46K3/03 
*SOURCE FILE: 19Y08M22
006581  MSMMMOB.48                       A3    C        17:29:53:20 17:29:57:01 01:31:32:18 01:31:35:24 
*FROM CLIP NAME:  A099C007_190822_R32C 
*SOURCE FILE: MSMMMOB.48
006582  19Y08M22                         A4    C        17:29:53:18 17:29:56:24 01:31:32:18 01:31:35:24 
*FROM CLIP NAME:  46K3/03 
*SOURCE FILE: 19Y08M22
006583  MSMMMOB.48                       A5    C        17:29:53:20 17:29:57:01 01:31:32:18 01:31:35:24 
*FROM CLIP NAME:  A099C007_190822_R32C 
*SOURCE FILE: MSMMMOB.48
006584  19Y08M22                         A6    C        17:29:53:18 17:29:56:24 01:31:32:18 01:31:35:24 
*FROM CLIP NAME:  46K3/03 
*PATCH 19Y08M22:  FROM SOURCE 7 TO RECORD 6 
*SOURCE FILE: 19Y08M22
006585  19Y08M22                         A7    C        17:29:53:18 17:29:56:24 01:31:32:18 01:31:35:24 
*FROM CLIP NAME:  46K3/03 
*PATCH 19Y08M22:  FROM SOURCE 8 TO RECORD 7 
*SOURCE FILE: 19Y08M22
006586  MSMMMOB.62                       V     C        17:03:36:10 17:03:46:08 01:31:35:14 01:31:45:12 
M2      MSMMMOB.62                                025.0 17:03:36:10 
*FROM CLIP NAME:  A099C004_190822_R32C 
*SOURCE FILE: MSMMMOB.62
006587  19Y08M22                         A     C        17:03:36:19 17:03:47:12 01:31:35:24 01:31:46:17 
*FROM CLIP NAME:  46K2/03 
*SOURCE FILE: 19Y08M22
006588  19Y08M22                         A2    C        17:03:36:19 17:03:47:12 01:31:35:24 01:31:46:17 
*FROM CLIP NAME:  46K2/03 
*SOURCE FILE: 19Y08M22
006589  MSMMMOB.62                       A3    C        17:03:36:20 17:03:47:13 01:31:35:24 01:31:46:17 
*FROM CLIP NAME:  A099C004_190822_R32C 
*SOURCE FILE: MSMMMOB.62
006590  19Y08M22                         A4    C        17:03:36:19 17:03:47:12 01:31:35:24 01:31:46:17 
*FROM CLIP NAME:  46K2/03 
*SOURCE FILE: 19Y08M22
006591  MSMMMOB.62                       A5    C        17:03:36:20 17:03:47:13 01:31:35:24 01:31:46:17 
*FROM CLIP NAME:  A099C004_190822_R32C 
*SOURCE FILE: MSMMMOB.62
006592  19Y08M22                         A6    C        17:03:36:19 17:03:47:12 01:31:35:24 01:31:46:17 
*FROM CLIP NAME:  46K2/03 
*PATCH 19Y08M22:  FROM SOURCE 7 TO RECORD 6 
*SOURCE FILE: 19Y08M22
006593  19Y08M22                         A7    C        17:03:36:19 17:03:47:12 01:31:35:24 01:31:46:17 
*FROM CLIP NAME:  46K2/03 
*PATCH 19Y08M22:  FROM SOURCE 8 TO RECORD 7 
*SOURCE FILE: 19Y08M22
006594  02611.MP3                        A8    C        01:00:52:15 01:00:59:03 01:31:38:23 01:31:45:11 
*FROM CLIP NAME:  02611.MP3 
*A8 VOL = -20.0 DB  PAN L100 
*PATCH 02611.MP3:  FROM SOURCE 2 TO RECORD 8 
*SOURCE FILE: 02611.MP3
006595  02611.MP3                        A9    C        01:00:52:15 01:00:59:03 01:31:38:23 01:31:45:11 
*FROM CLIP NAME:  02611.MP3 
*A9 VOL = -20.0 DB  PAN R100 
*PATCH 02611.MP3:  FROM SOURCE 1 TO RECORD 9 
*SOURCE FILE: 02611.MP3
006596  02611.MP3                        A8    C        01:00:00:03 01:00:05:20 01:31:45:11 01:31:51:03 
*FROM CLIP NAME:  02611.MP3 
*A8 VOL = -20.0 DB  PAN L100 
*PATCH 02611.MP3:  FROM SOURCE 2 TO RECORD 8 
*SOURCE FILE: 02611.MP3
006597  02611.MP3                        A9    C        01:00:00:03 01:00:05:20 01:31:45:11 01:31:51:03 
*FROM CLIP NAME:  02611.MP3 
*A9 VOL = -20.0 DB  PAN R100 
*PATCH 02611.MP3:  FROM SOURCE 1 TO RECORD 9 
*SOURCE FILE: 02611.MP3
006598  MSMMMOB.43                       V     C        17:22:03:07 17:22:08:23 01:31:45:12 01:31:51:03 
M2      MSMMMOB.43                                025.0 17:22:03:07 
*FROM CLIP NAME:  A099C005_190822_R32C 
*SOURCE FILE: MSMMMOB.43
006599  19Y08M22                         A     C        17:03:47:12 17:03:47:12 01:31:46:17 01:31:46:17 
006599  19Y08M22                         A     D    002 17:22:04:10 17:22:04:12 01:31:46:17 01:31:46:19 
*FROM CLIP NAME:  46K2/03 
*TO CLIP NAME:  46K3/01 
*SOURCE FILE: 19Y08M22
006600  19Y08M22                         A2    C        17:03:47:12 17:03:47:12 01:31:46:17 01:31:46:17 
006600  19Y08M22                         A2    D    002 17:22:04:10 17:22:04:12 01:31:46:17 01:31:46:19 
*FROM CLIP NAME:  46K2/03 
*TO CLIP NAME:  46K3/01 
*SOURCE FILE: 19Y08M22
006601  MSMMMOB.62                       A3    C        17:03:47:13 17:03:47:13 01:31:46:17 01:31:46:17 
006601  MSMMMOB.43                       A3    D    002 17:22:04:12 17:22:04:14 01:31:46:17 01:31:46:19 
*FROM CLIP NAME:  A099C004_190822_R32C 
*TO CLIP NAME:  A099C005_190822_R32C 
*SOURCE FILE: MSMMMOB.62
006602  19Y08M22                         A4    C        17:03:47:12 17:03:47:12 01:31:46:17 01:31:46:17 
006602  19Y08M22                         A4    D    002 17:22:04:10 17:22:04:12 01:31:46:17 01:31:46:19 
*FROM CLIP NAME:  46K2/03 
*TO CLIP NAME:  46K3/01 
*SOURCE FILE: 19Y08M22
006603  MSMMMOB.62                       A5    C        17:03:47:13 17:03:47:13 01:31:46:17 01:31:46:17 
006603  MSMMMOB.43                       A5    D    002 17:22:04:12 17:22:04:14 01:31:46:17 01:31:46:19 
*FROM CLIP NAME:  A099C004_190822_R32C 
*TO CLIP NAME:  A099C005_190822_R32C 
*SOURCE FILE: MSMMMOB.62
006604  19Y08M22                         A6    C        17:03:47:12 17:03:47:12 01:31:46:17 01:31:46:17 
006604  19Y08M22                         A6    D    002 17:22:04:10 17:22:04:12 01:31:46:17 01:31:46:19 
*FROM CLIP NAME:  46K2/03 
*TO CLIP NAME:  46K3/01 
*PATCH 19Y08M22:  FROM SOURCE 7 TO RECORD 6 
*PATCH 19Y08M22:  FROM SOURCE 7 TO RECORD 6 
*SOURCE FILE: 19Y08M22
006605  19Y08M22                         A7    C        17:03:47:12 17:03:47:12 01:31:46:17 01:31:46:17 
006605  19Y08M22                         A7    D    002 17:22:04:10 17:22:04:12 01:31:46:17 01:31:46:19 
*FROM CLIP NAME:  46K2/03 
*TO CLIP NAME:  46K3/01 
*PATCH 19Y08M22:  FROM SOURCE 8 TO RECORD 7 
*PATCH 19Y08M22:  FROM SOURCE 8 TO RECORD 7 
*SOURCE FILE: 19Y08M22
006606  19Y08M22                         A     C        17:22:04:12 17:22:09:22 01:31:46:19 01:31:52:04 
*FROM CLIP NAME:  46K3/01 
*SOURCE FILE: 19Y08M22
006607  19Y08M22                         A2    C        17:22:04:12 17:22:09:22 01:31:46:19 01:31:52:04 
*FROM CLIP NAME:  46K3/01 
*SOURCE FILE: 19Y08M22
006608  MSMMMOB.43                       A3    C        17:22:04:14 17:22:09:24 01:31:46:19 01:31:52:04 
*FROM CLIP NAME:  A099C005_190822_R32C 
*SOURCE FILE: MSMMMOB.43
006609  19Y08M22                         A4    C        17:22:04:12 17:22:09:22 01:31:46:19 01:31:52:04 
*FROM CLIP NAME:  46K3/01 
*SOURCE FILE: 19Y08M22
006610  MSMMMOB.43                       A5    C        17:22:04:14 17:22:09:24 01:31:46:19 01:31:52:04 
*FROM CLIP NAME:  A099C005_190822_R32C 
*SOURCE FILE: MSMMMOB.43
006611  19Y08M22                         A6    C        17:22:04:12 17:22:09:22 01:31:46:19 01:31:52:04 
*FROM CLIP NAME:  46K3/01 
*PATCH 19Y08M22:  FROM SOURCE 7 TO RECORD 6 
*SOURCE FILE: 19Y08M22
006612  19Y08M22                         A7    C        17:22:04:12 17:22:09:22 01:31:46:19 01:31:52:04 
*FROM CLIP NAME:  46K3/01 
*PATCH 19Y08M22:  FROM SOURCE 8 TO RECORD 7 
*SOURCE FILE: 19Y08M22
006613  MSMMMOB.77                       V     C        18:06:24:09 18:06:28:07 01:31:51:03 01:31:55:01 
M2      MSMMMOB.77                                025.0 18:06:24:09 
*FROM CLIP NAME:  A100C004_190822_R32C 
*SOURCE FILE: MSMMMOB.77
006614  19Y08M22                         A     C        18:06:25:08 18:06:28:05 01:31:52:04 01:31:55:01 
*FROM CLIP NAME:  46K4/04 
*SOURCE FILE: 19Y08M22
006615  19Y08M22                         A2    C        18:06:25:08 18:06:28:05 01:31:52:04 01:31:55:01 
*FROM CLIP NAME:  46K4/04 
*SOURCE FILE: 19Y08M22
006616  MSMMMOB.77                       A3    C        18:06:25:10 18:06:28:07 01:31:52:04 01:31:55:01 
*FROM CLIP NAME:  A100C004_190822_R32C 
*SOURCE FILE: MSMMMOB.77
006617  19Y08M22                         A4    C        18:06:25:08 18:06:28:05 01:31:52:04 01:31:55:01 
*FROM CLIP NAME:  46K4/04 
*SOURCE FILE: 19Y08M22
006618  MSMMMOB.77                       A5    C        18:06:25:10 18:06:28:07 01:31:52:04 01:31:55:01 
*FROM CLIP NAME:  A100C004_190822_R32C 
*SOURCE FILE: MSMMMOB.77
006619  19Y08M22                         A6    C        18:06:25:08 18:06:28:05 01:31:52:04 01:31:55:01 
*FROM CLIP NAME:  46K4/04 
*PATCH 19Y08M22:  FROM SOURCE 8 TO RECORD 6 
*SOURCE FILE: 19Y08M22
006620  19Y08M22                         A7    C        18:06:25:08 18:06:28:05 01:31:52:04 01:31:55:01 
*FROM CLIP NAME:  46K4/04 
*SOURCE FILE: 19Y08M22
006621  19Y08M22                         A     C        17:58:38:16 17:58:39:08 01:31:55:01 01:31:55:18 
*FROM CLIP NAME:  46K4/02 
*SOURCE FILE: 19Y08M22
006622  19Y08M22                         A2    C        17:58:38:16 17:58:39:08 01:31:55:01 01:31:55:18 
*FROM CLIP NAME:  46K4/02 
*SOURCE FILE: 19Y08M22
006623  MSMMMOB.15                       A3    C        17:58:38:18 17:58:39:10 01:31:55:01 01:31:55:18 
*FROM CLIP NAME:  A100C002_190822_R32C 
*SOURCE FILE: MSMMMOB.15
006624  19Y08M22                         A4    C        17:58:38:16 17:58:39:08 01:31:55:01 01:31:55:18 
*FROM CLIP NAME:  46K4/02 
*SOURCE FILE: 19Y08M22
006625  MSMMMOB.15                       A5    C        17:58:38:18 17:58:39:10 01:31:55:01 01:31:55:18 
*FROM CLIP NAME:  A100C002_190822_R32C 
*SOURCE FILE: MSMMMOB.15
006626  19Y08M22                         A6    C        17:58:38:16 17:58:39:08 01:31:55:01 01:31:55:18 
*FROM CLIP NAME:  46K4/02 
*PATCH 19Y08M22:  FROM SOURCE 8 TO RECORD 6 
*SOURCE FILE: 19Y08M22
006627  19Y08M22                         A7    C        17:58:38:16 17:58:39:08 01:31:55:01 01:31:55:18 
*FROM CLIP NAME:  46K4/02 
*SOURCE FILE: 19Y08M22
006628  MSMMMOB.48                       V     C        17:30:12:16 17:30:17:11 01:31:55:01 01:31:59:21 
M2      MSMMMOB.48                                025.0 17:30:12:16 
*FROM CLIP NAME:  A099C007_190822_R32C 
*SOURCE FILE: MSMMMOB.48
006629  02611.MP3                        A8    C        01:00:11:11 01:00:17:12 01:31:55:01 01:32:01:02 
*FROM CLIP NAME:  02611.MP3 
*A8 VOL = -20.0 DB  PAN L100 
*PATCH 02611.MP3:  FROM SOURCE 2 TO RECORD 8 
*SOURCE FILE: 02611.MP3
006630  02611.MP3                        A9    C        01:00:11:11 01:00:17:12 01:31:55:01 01:32:01:02 
*FROM CLIP NAME:  02611.MP3 
*A9 VOL = -20.0 DB  PAN R100 
*PATCH 02611.MP3:  FROM SOURCE 1 TO RECORD 9 
*SOURCE FILE: 02611.MP3
006631  19Y08M22                         A     C        17:30:13:06 17:30:17:09 01:31:55:18 01:31:59:21 
*FROM CLIP NAME:  46K3/03 
*SOURCE FILE: 19Y08M22
006632  19Y08M22                         A2    C        17:30:13:06 17:30:17:09 01:31:55:18 01:31:59:21 
*FROM CLIP NAME:  46K3/03 
*SOURCE FILE: 19Y08M22
006633  MSMMMOB.48                       A3    C        17:30:13:08 17:30:17:11 01:31:55:18 01:31:59:21 
*FROM CLIP NAME:  A099C007_190822_R32C 
*SOURCE FILE: MSMMMOB.48
006634  19Y08M22                         A4    C        17:30:13:06 17:30:17:09 01:31:55:18 01:31:59:21 
*FROM CLIP NAME:  46K3/03 
*SOURCE FILE: 19Y08M22
006635  MSMMMOB.48                       A5    C        17:30:13:08 17:30:17:11 01:31:55:18 01:31:59:21 
*FROM CLIP NAME:  A099C007_190822_R32C 
*SOURCE FILE: MSMMMOB.48
006636  19Y08M22                         A6    C        17:30:13:06 17:30:17:09 01:31:55:18 01:31:59:21 
*FROM CLIP NAME:  46K3/03 
*PATCH 19Y08M22:  FROM SOURCE 7 TO RECORD 6 
*SOURCE FILE: 19Y08M22
006637  19Y08M22                         A7    C        17:30:13:06 17:30:17:09 01:31:55:18 01:31:59:21 
*FROM CLIP NAME:  46K3/03 
*PATCH 19Y08M22:  FROM SOURCE 8 TO RECORD 7 
*SOURCE FILE: 19Y08M22
006638  MSMMMOB.77                       V     C        18:06:35:11 18:06:36:17 01:31:59:21 01:32:01:02 
M2      MSMMMOB.77                                025.0 18:06:35:11 
*FROM CLIP NAME:  A100C004_190822_R32C 
*SOURCE FILE: MSMMMOB.77
006639  19Y08M22                         A     C        18:06:35:09 18:06:36:15 01:31:59:21 01:32:01:02 
*FROM CLIP NAME:  46K4/04 
*SOURCE FILE: 19Y08M22
006640  19Y08M22                         A2    C        18:06:35:09 18:06:36:15 01:31:59:21 01:32:01:02 
*FROM CLIP NAME:  46K4/04 
*SOURCE FILE: 19Y08M22
006641  MSMMMOB.77                       A3    C        18:06:35:11 18:06:36:17 01:31:59:21 01:32:01:02 
*FROM CLIP NAME:  A100C004_190822_R32C 
*SOURCE FILE: MSMMMOB.77
006642  19Y08M22                         A4    C        18:06:35:09 18:06:36:15 01:31:59:21 01:32:01:02 
*FROM CLIP NAME:  46K4/04 
*SOURCE FILE: 19Y08M22
006643  MSMMMOB.77                       A5    C        18:06:35:11 18:06:36:17 01:31:59:21 01:32:01:02 
*FROM CLIP NAME:  A100C004_190822_R32C 
*SOURCE FILE: MSMMMOB.77
006644  19Y08M22                         A6    C        18:06:35:09 18:06:36:15 01:31:59:21 01:32:01:02 
*FROM CLIP NAME:  46K4/04 
*PATCH 19Y08M22:  FROM SOURCE 7 TO RECORD 6 
*SOURCE FILE: 19Y08M22
006645  19Y08M22                         A7    C        18:06:35:09 18:06:36:15 01:31:59:21 01:32:01:02 
*FROM CLIP NAME:  46K4/04 
*PATCH 19Y08M22:  FROM SOURCE 8 TO RECORD 7 
*SOURCE FILE: 19Y08M22
006646  19Y08M22                         A     C        18:06:36:23 18:06:37:07 01:32:01:02 01:32:01:11 
*FROM CLIP NAME:  46K4/04 
*SOURCE FILE: 19Y08M22
006647  19Y08M22                         A2    C        18:06:36:23 18:06:37:07 01:32:01:02 01:32:01:11 
*FROM CLIP NAME:  46K4/04 
*SOURCE FILE: 19Y08M22
006648  MSMMMOB.77                       A3    C        18:06:37:00 18:06:37:09 01:32:01:02 01:32:01:11 
*FROM CLIP NAME:  A100C004_190822_R32C 
*SOURCE FILE: MSMMMOB.77
006649  19Y08M22                         A4    C        18:06:36:23 18:06:37:07 01:32:01:02 01:32:01:11 
*FROM CLIP NAME:  46K4/04 
*SOURCE FILE: 19Y08M22
006650  MSMMMOB.77                       A5    C        18:06:37:00 18:06:37:09 01:32:01:02 01:32:01:11 
*FROM CLIP NAME:  A100C004_190822_R32C 
*SOURCE FILE: MSMMMOB.77
006651  19Y08M22                         A6    C        18:06:36:23 18:06:37:07 01:32:01:02 01:32:01:11 
*FROM CLIP NAME:  46K4/04 
*PATCH 19Y08M22:  FROM SOURCE 7 TO RECORD 6 
*SOURCE FILE: 19Y08M22
006652  19Y08M22                         A7    C        18:06:36:23 18:06:37:07 01:32:01:02 01:32:01:11 
*FROM CLIP NAME:  46K4/04 
*PATCH 19Y08M22:  FROM SOURCE 8 TO RECORD 7 
*SOURCE FILE: 19Y08M22
006653  MSMMMOB.43                       V     C        17:22:23:05 17:22:25:05 01:32:01:02 01:32:03:02 
M2      MSMMMOB.43                                025.0 17:22:23:05 
*FROM CLIP NAME:  A099C005_190822_R32C 
*SOURCE FILE: MSMMMOB.43
006654  19Y08M22                         A     C        18:06:37:07 18:06:37:07 01:32:01:11 01:32:01:11 
006654  19Y08M22                         A     D    002 17:22:23:12 17:22:23:14 01:32:01:11 01:32:01:13 
*FROM CLIP NAME:  46K4/04 
*TO CLIP NAME:  46K3/01 
*SOURCE FILE: 19Y08M22
006655  19Y08M22                         A2    C        18:06:37:07 18:06:37:07 01:32:01:11 01:32:01:11 
006655  19Y08M22                         A2    D    002 17:22:23:12 17:22:23:14 01:32:01:11 01:32:01:13 
*FROM CLIP NAME:  46K4/04 
*TO CLIP NAME:  46K3/01 
*SOURCE FILE: 19Y08M22
006656  MSMMMOB.77                       A3    C        18:06:37:09 18:06:37:09 01:32:01:11 01:32:01:11 
006656  MSMMMOB.43                       A3    D    002 17:22:23:14 17:22:23:16 01:32:01:11 01:32:01:13 
*FROM CLIP NAME:  A100C004_190822_R32C 
*TO CLIP NAME:  A099C005_190822_R32C 
*SOURCE FILE: MSMMMOB.77
006657  19Y08M22                         A4    C        18:06:37:07 18:06:37:07 01:32:01:11 01:32:01:11 
006657  19Y08M22                         A4    D    002 17:22:23:12 17:22:23:14 01:32:01:11 01:32:01:13 
*FROM CLIP NAME:  46K4/04 
*TO CLIP NAME:  46K3/01 
*SOURCE FILE: 19Y08M22
006658  MSMMMOB.77                       A5    C        18:06:37:09 18:06:37:09 01:32:01:11 01:32:01:11 
006658  MSMMMOB.43                       A5    D    002 17:22:23:14 17:22:23:16 01:32:01:11 01:32:01:13 
*FROM CLIP NAME:  A100C004_190822_R32C 
*TO CLIP NAME:  A099C005_190822_R32C 
*SOURCE FILE: MSMMMOB.77
006659  19Y08M22                         A6    C        18:06:37:07 18:06:37:07 01:32:01:11 01:32:01:11 
006659  19Y08M22                         A6    D    002 17:22:23:12 17:22:23:14 01:32:01:11 01:32:01:13 
*FROM CLIP NAME:  46K4/04 
*TO CLIP NAME:  46K3/01 
*PATCH 19Y08M22:  FROM SOURCE 7 TO RECORD 6 
*PATCH 19Y08M22:  FROM SOURCE 8 TO RECORD 6 
*SOURCE FILE: 19Y08M22
006660  19Y08M22                         A7    C        18:06:37:07 18:06:37:07 01:32:01:11 01:32:01:11 
006660  19Y08M22                         A7    D    002 17:22:23:12 17:22:23:14 01:32:01:11 01:32:01:13 
*FROM CLIP NAME:  46K4/04 
*TO CLIP NAME:  46K3/01 
*PATCH 19Y08M22:  FROM SOURCE 8 TO RECORD 7 
*SOURCE FILE: 19Y08M22
006661  19Y08M22                         A     C        17:22:23:14 17:22:24:13 01:32:01:13 01:32:02:12 
*FROM CLIP NAME:  46K3/01 
*SOURCE FILE: 19Y08M22
006662  19Y08M22                         A2    C        17:22:23:14 17:22:24:13 01:32:01:13 01:32:02:12 
*FROM CLIP NAME:  46K3/01 
*SOURCE FILE: 19Y08M22
006663  MSMMMOB.43                       A3    C        17:22:23:16 17:22:24:15 01:32:01:13 01:32:02:12 
*FROM CLIP NAME:  A099C005_190822_R32C 
*SOURCE FILE: MSMMMOB.43
006664  19Y08M22                         A4    C        17:22:23:14 17:22:24:13 01:32:01:13 01:32:02:12 
*FROM CLIP NAME:  46K3/01 
*SOURCE FILE: 19Y08M22
006665  MSMMMOB.43                       A5    C        17:22:23:16 17:22:24:15 01:32:01:13 01:32:02:12 
*FROM CLIP NAME:  A099C005_190822_R32C 
*SOURCE FILE: MSMMMOB.43
006666  19Y08M22                         A6    C        17:22:23:14 17:22:24:13 01:32:01:13 01:32:02:12 
*FROM CLIP NAME:  46K3/01 
*PATCH 19Y08M22:  FROM SOURCE 8 TO RECORD 6 
*SOURCE FILE: 19Y08M22
006667  19Y08M22                         A7    C        17:22:23:14 17:22:24:13 01:32:01:13 01:32:02:12 
*FROM CLIP NAME:  46K3/01 
*SOURCE FILE: 19Y08M22
006668  19Y08M22                         A     C        18:06:42:04 18:06:48:13 01:32:02:12 01:32:08:21 
*FROM CLIP NAME:  46K4/04 
*SOURCE FILE: 19Y08M22
006669  19Y08M22                         A2    C        18:06:42:04 18:06:48:13 01:32:02:12 01:32:08:21 
*FROM CLIP NAME:  46K4/04 
*SOURCE FILE: 19Y08M22
006670  MSMMMOB.77                       A3    C        18:06:42:06 18:06:48:15 01:32:02:12 01:32:08:21 
*FROM CLIP NAME:  A100C004_190822_R32C 
*SOURCE FILE: MSMMMOB.77
006671  19Y08M22                         A4    C        18:06:42:04 18:06:48:13 01:32:02:12 01:32:08:21 
*FROM CLIP NAME:  46K4/04 
*SOURCE FILE: 19Y08M22
006672  MSMMMOB.77                       A5    C        18:06:42:06 18:06:48:15 01:32:02:12 01:32:08:21 
*FROM CLIP NAME:  A100C004_190822_R32C 
*SOURCE FILE: MSMMMOB.77
006673  19Y08M22                         A6    C        18:06:42:04 18:06:48:13 01:32:02:12 01:32:08:21 
*FROM CLIP NAME:  46K4/04 
*PATCH 19Y08M22:  FROM SOURCE 7 TO RECORD 6 
*SOURCE FILE: 19Y08M22
006674  19Y08M22                         A7    C        18:06:42:04 18:06:48:13 01:32:02:12 01:32:08:21 
*FROM CLIP NAME:  46K4/04 
*PATCH 19Y08M22:  FROM SOURCE 8 TO RECORD 7 
*SOURCE FILE: 19Y08M22
006675  02611.MP3                        A8    C        01:00:23:00 01:00:29:09 01:32:02:12 01:32:08:21 
*FROM CLIP NAME:  02611.MP3 
*A8 VOL = -20.0 DB  PAN L100 
*PATCH 02611.MP3:  FROM SOURCE 2 TO RECORD 8 
*SOURCE FILE: 02611.MP3
006676  02611.MP3                        A9    C        01:00:23:00 01:00:29:09 01:32:02:12 01:32:08:21 
*FROM CLIP NAME:  02611.MP3 
*A9 VOL = -20.0 DB  PAN R100 
*PATCH 02611.MP3:  FROM SOURCE 1 TO RECORD 9 
*SOURCE FILE: 02611.MP3
006677  MSMMMOB.77                       V     C        18:06:42:21 18:06:48:15 01:32:03:02 01:32:08:21 
M2      MSMMMOB.77                                025.0 18:06:42:21 
*FROM CLIP NAME:  A100C004_190822_R32C 
*SOURCE FILE: MSMMMOB.77
006678  MSMMMOB.48                       V     C        17:30:30:04 17:30:35:20 01:32:08:21 01:32:14:12 
M2      MSMMMOB.48                                025.0 17:30:30:04 
*FROM CLIP NAME:  A099C007_190822_R32C 
*SOURCE FILE: MSMMMOB.48
006679  19Y08M22                         A     C        17:30:30:02 17:30:35:18 01:32:08:21 01:32:14:12 
*FROM CLIP NAME:  46K3/03 
*SOURCE FILE: 19Y08M22
006680  19Y08M22                         A2    C        17:30:30:02 17:30:35:18 01:32:08:21 01:32:14:12 
*FROM CLIP NAME:  46K3/03 
*SOURCE FILE: 19Y08M22
006681  MSMMMOB.48                       A3    C        17:30:30:04 17:30:35:20 01:32:08:21 01:32:14:12 
*FROM CLIP NAME:  A099C007_190822_R32C 
*SOURCE FILE: MSMMMOB.48
006682  19Y08M22                         A4    C        17:30:30:02 17:30:35:18 01:32:08:21 01:32:14:12 
*FROM CLIP NAME:  46K3/03 
*SOURCE FILE: 19Y08M22
006683  MSMMMOB.48                       A5    C        17:30:30:04 17:30:35:20 01:32:08:21 01:32:14:12 
*FROM CLIP NAME:  A099C007_190822_R32C 
*SOURCE FILE: MSMMMOB.48
006684  19Y08M22                         A6    C        17:30:30:02 17:30:35:18 01:32:08:21 01:32:14:12 
*FROM CLIP NAME:  46K3/03 
*PATCH 19Y08M22:  FROM SOURCE 7 TO RECORD 6 
*SOURCE FILE: 19Y08M22
006685  19Y08M22                         A7    C        17:30:30:02 17:30:35:18 01:32:08:21 01:32:14:12 
*FROM CLIP NAME:  46K3/03 
*PATCH 19Y08M22:  FROM SOURCE 8 TO RECORD 7 
*SOURCE FILE: 19Y08M22
006686  02611.MP3                        A8    C        01:00:30:07 01:00:35:23 01:32:08:21 01:32:14:12 
*FROM CLIP NAME:  02611.MP3 
*A8 VOL = -20.0 DB  PAN L100 
*PATCH 02611.MP3:  FROM SOURCE 2 TO RECORD 8 
*SOURCE FILE: 02611.MP3
006687  02611.MP3                        A9    C        01:00:30:07 01:00:35:23 01:32:08:21 01:32:14:12 
*FROM CLIP NAME:  02611.MP3 
*A9 VOL = -20.0 DB  PAN R100 
*PATCH 02611.MP3:  FROM SOURCE 1 TO RECORD 9 
*SOURCE FILE: 02611.MP3
006688  19Y08M22                         A     C        17:30:36:02 17:30:36:11 01:32:14:12 01:32:14:21 
*FROM CLIP NAME:  46K3/03 
*SOURCE FILE: 19Y08M22
006689  19Y08M22                         A2    C        17:30:36:02 17:30:36:11 01:32:14:12 01:32:14:21 
*FROM CLIP NAME:  46K3/03 
*SOURCE FILE: 19Y08M22
006690  MSMMMOB.48                       A3    C        17:30:36:04 17:30:36:13 01:32:14:12 01:32:14:21 
*FROM CLIP NAME:  A099C007_190822_R32C 
*SOURCE FILE: MSMMMOB.48
006691  19Y08M22                         A4    C        17:30:36:02 17:30:36:11 01:32:14:12 01:32:14:21 
*FROM CLIP NAME:  46K3/03 
*SOURCE FILE: 19Y08M22
006692  MSMMMOB.48                       A5    C        17:30:36:04 17:30:36:13 01:32:14:12 01:32:14:21 
*FROM CLIP NAME:  A099C007_190822_R32C 
*SOURCE FILE: MSMMMOB.48
006693  19Y08M22                         A6    C        17:30:36:02 17:30:36:11 01:32:14:12 01:32:14:21 
*FROM CLIP NAME:  46K3/03 
*PATCH 19Y08M22:  FROM SOURCE 7 TO RECORD 6 
*SOURCE FILE: 19Y08M22
006694  19Y08M22                         A7    C        17:30:36:02 17:30:36:11 01:32:14:12 01:32:14:21 
*FROM CLIP NAME:  46K3/03 
*PATCH 19Y08M22:  FROM SOURCE 8 TO RECORD 7 
*SOURCE FILE: 19Y08M22
006695  02611.MP3                        A8    C        01:00:35:23 01:00:37:20 01:32:14:12 01:32:16:09 
*FROM CLIP NAME:  02611.MP3 
*A8 VOL = -20.0 DB  PAN L100 
*PATCH 02611.MP3:  FROM SOURCE 2 TO RECORD 8 
*SOURCE FILE: 02611.MP3
006696  02611.MP3                        A9    C        01:00:35:23 01:00:37:20 01:32:14:12 01:32:16:09 
*FROM CLIP NAME:  02611.MP3 
*A9 VOL = -20.0 DB  PAN R100 
*PATCH 02611.MP3:  FROM SOURCE 1 TO RECORD 9 
*SOURCE FILE: 02611.MP3
006697  MSMMMOB.77                       V     C        18:06:54:15 18:06:56:22 01:32:14:12 01:32:16:19 
M2      MSMMMOB.77                                025.0 18:06:54:15 
*FROM CLIP NAME:  A100C004_190822_R32C 
*SOURCE FILE: MSMMMOB.77
006698  19Y08M22                         A     C        18:06:54:22 18:06:56:10 01:32:14:21 01:32:16:09 
*FROM CLIP NAME:  46K4/04 
*SOURCE FILE: 19Y08M22
006699  19Y08M22                         A2    C        18:06:54:22 18:06:56:10 01:32:14:21 01:32:16:09 
*FROM CLIP NAME:  46K4/04 
*SOURCE FILE: 19Y08M22
006700  MSMMMOB.77                       A3    C        18:06:54:24 18:06:56:12 01:32:14:21 01:32:16:09 
*FROM CLIP NAME:  A100C004_190822_R32C 
*SOURCE FILE: MSMMMOB.77
006701  19Y08M22                         A4    C        18:06:54:22 18:06:56:10 01:32:14:21 01:32:16:09 
*FROM CLIP NAME:  46K4/04 
*SOURCE FILE: 19Y08M22
006702  MSMMMOB.77                       A5    C        18:06:54:24 18:06:56:12 01:32:14:21 01:32:16:09 
*FROM CLIP NAME:  A100C004_190822_R32C 
*SOURCE FILE: MSMMMOB.77
006703  19Y08M22                         A6    C        18:06:54:22 18:06:56:10 01:32:14:21 01:32:16:09 
*FROM CLIP NAME:  46K4/04 
*PATCH 19Y08M22:  FROM SOURCE 7 TO RECORD 6 
*SOURCE FILE: 19Y08M22
006704  19Y08M22                         A7    C        18:06:54:22 18:06:56:10 01:32:14:21 01:32:16:09 
*FROM CLIP NAME:  46K4/04 
*PATCH 19Y08M22:  FROM SOURCE 8 TO RECORD 7 
*SOURCE FILE: 19Y08M22
006705  19Y08M22                         A     C        17:27:18:10 17:27:21:05 01:32:16:09 01:32:19:04 
*FROM CLIP NAME:  46K3/02 
*SOURCE FILE: 19Y08M22
006706  19Y08M22                         A2    C        17:27:18:10 17:27:21:05 01:32:16:09 01:32:19:04 
*FROM CLIP NAME:  46K3/02 
*SOURCE FILE: 19Y08M22
006707  MSMMMOB.49                       A3    C        17:27:18:12 17:27:21:07 01:32:16:09 01:32:19:04 
*FROM CLIP NAME:  A099C006_190822_R32C 
*SOURCE FILE: MSMMMOB.49
006708  19Y08M22                         A4    C        17:27:18:10 17:27:21:05 01:32:16:09 01:32:19:04 
*FROM CLIP NAME:  46K3/02 
*SOURCE FILE: 19Y08M22
006709  MSMMMOB.49                       A5    C        17:27:18:12 17:27:21:07 01:32:16:09 01:32:19:04 
*FROM CLIP NAME:  A099C006_190822_R32C 
*SOURCE FILE: MSMMMOB.49
006710  19Y08M22                         A6    C        17:27:18:10 17:27:21:05 01:32:16:09 01:32:19:04 
*FROM CLIP NAME:  46K3/02 
*PATCH 19Y08M22:  FROM SOURCE 8 TO RECORD 6 
*SOURCE FILE: 19Y08M22
006711  19Y08M22                         A7    C        17:27:18:10 17:27:21:05 01:32:16:09 01:32:19:04 
*FROM CLIP NAME:  46K3/02 
*SOURCE FILE: 19Y08M22
006712  MSMMMOB.49                       V     C        17:27:18:22 17:27:20:21 01:32:16:19 01:32:18:18 
M2      MSMMMOB.49                                025.0 17:27:18:22 
*FROM CLIP NAME:  A099C006_190822_R32C 
*SOURCE FILE: MSMMMOB.49
006713  MSMMMOB.02                       V     C        18:02:56:09 18:02:58:14 01:32:18:18 01:32:20:23 
M2      MSMMMOB.02                                025.0 18:02:56:09 
*FROM CLIP NAME:  A100C003_190822_R32C 
*SOURCE FILE: MSMMMOB.02
006714  19Y08M22                         A     C        18:02:55:11 18:02:57:05 01:32:19:04 01:32:20:23 
*FROM CLIP NAME:  46K4/03 
*SOURCE FILE: 19Y08M22
006715  19Y08M22                         A2    C        18:02:55:11 18:02:57:05 01:32:19:04 01:32:20:23 
*FROM CLIP NAME:  46K4/03 
*SOURCE FILE: 19Y08M22
006716  MSMMMOB.02                       A3    C        18:02:55:13 18:02:57:07 01:32:19:04 01:32:20:23 
*FROM CLIP NAME:  A100C003_190822_R32C 
*SOURCE FILE: MSMMMOB.02
006717  19Y08M22                         A4    C        18:02:55:11 18:02:57:05 01:32:19:04 01:32:20:23 
*FROM CLIP NAME:  46K4/03 
*SOURCE FILE: 19Y08M22
006718  MSMMMOB.02                       A5    C        18:02:55:13 18:02:57:07 01:32:19:04 01:32:20:23 
*FROM CLIP NAME:  A100C003_190822_R32C 
*SOURCE FILE: MSMMMOB.02
006719  19Y08M22                         A6    C        18:02:55:11 18:02:57:05 01:32:19:04 01:32:20:23 
*FROM CLIP NAME:  46K4/03 
*PATCH 19Y08M22:  FROM SOURCE 7 TO RECORD 6 
*SOURCE FILE: 19Y08M22
006720  19Y08M22                         A7    C        18:02:55:11 18:02:57:05 01:32:19:04 01:32:20:23 
*FROM CLIP NAME:  46K4/03 
*PATCH 19Y08M22:  FROM SOURCE 8 TO RECORD 7 
*SOURCE FILE: 19Y08M22
006721  02611.MP3                        A8    C        01:00:45:14 01:00:59:02 01:32:19:04 01:32:32:17 
*FROM CLIP NAME:  02611.MP3 
*A8 VOL = -20.0 DB  PAN L100 
*PATCH 02611.MP3:  FROM SOURCE 2 TO RECORD 8 
*SOURCE FILE: 02611.MP3
006722  02611.MP3                        A9    C        01:00:45:14 01:00:59:02 01:32:19:04 01:32:32:17 
*FROM CLIP NAME:  02611.MP3 
*A9 VOL = -20.0 DB  PAN R100 
*PATCH 02611.MP3:  FROM SOURCE 1 TO RECORD 9 
*SOURCE FILE: 02611.MP3
006723  MSMMMOB.43                       V     C        17:22:46:23 17:22:49:01 01:32:20:23 01:32:23:01 
M2      MSMMMOB.43                                025.0 17:22:46:23 
*FROM CLIP NAME:  A099C005_190822_R32C 
*SOURCE FILE: MSMMMOB.43
006724  19Y08M22                         A     C        17:22:46:21 17:22:48:24 01:32:20:23 01:32:23:01 
*FROM CLIP NAME:  46K3/01 
*SOURCE FILE: 19Y08M22
006725  19Y08M22                         A2    C        17:22:46:21 17:22:48:24 01:32:20:23 01:32:23:01 
*FROM CLIP NAME:  46K3/01 
*SOURCE FILE: 19Y08M22
006726  MSMMMOB.43                       A3    C        17:22:46:23 17:22:49:01 01:32:20:23 01:32:23:01 
*FROM CLIP NAME:  A099C005_190822_R32C 
*SOURCE FILE: MSMMMOB.43
006727  19Y08M22                         A4    C        17:22:46:21 17:22:48:24 01:32:20:23 01:32:23:01 
*FROM CLIP NAME:  46K3/01 
*SOURCE FILE: 19Y08M22
006728  MSMMMOB.43                       A5    C        17:22:46:23 17:22:49:01 01:32:20:23 01:32:23:01 
*FROM CLIP NAME:  A099C005_190822_R32C 
*SOURCE FILE: MSMMMOB.43
006729  19Y08M22                         A6    C        17:22:46:21 17:22:48:24 01:32:20:23 01:32:23:01 
*FROM CLIP NAME:  46K3/01 
*PATCH 19Y08M22:  FROM SOURCE 7 TO RECORD 6 
*SOURCE FILE: 19Y08M22
006730  19Y08M22                         A7    C        17:22:46:21 17:22:48:24 01:32:20:23 01:32:23:01 
*FROM CLIP NAME:  46K3/01 
*PATCH 19Y08M22:  FROM SOURCE 8 TO RECORD 7 
*SOURCE FILE: 19Y08M22
006731  MSMMMOB.02                       V     C        18:02:59:01 18:03:02:02 01:32:23:01 01:32:26:02 
M2      MSMMMOB.02                                025.0 18:02:59:01 
*FROM CLIP NAME:  A100C003_190822_R32C 
*SOURCE FILE: MSMMMOB.02
006732  19Y08M22                         A     C        18:02:58:24 18:03:02:08 01:32:23:01 01:32:26:10 
*FROM CLIP NAME:  46K4/03 
*SOURCE FILE: 19Y08M22
006733  19Y08M22                         A2    C        18:02:58:24 18:03:02:08 01:32:23:01 01:32:26:10 
*FROM CLIP NAME:  46K4/03 
*SOURCE FILE: 19Y08M22
006734  MSMMMOB.02                       A3    C        18:02:59:01 18:03:02:10 01:32:23:01 01:32:26:10 
*FROM CLIP NAME:  A100C003_190822_R32C 
*SOURCE FILE: MSMMMOB.02
006735  19Y08M22                         A4    C        18:02:58:24 18:03:02:08 01:32:23:01 01:32:26:10 
*FROM CLIP NAME:  46K4/03 
*SOURCE FILE: 19Y08M22
006736  MSMMMOB.02                       A5    C        18:02:59:01 18:03:02:10 01:32:23:01 01:32:26:10 
*FROM CLIP NAME:  A100C003_190822_R32C 
*SOURCE FILE: MSMMMOB.02
006737  19Y08M22                         A6    C        18:02:58:24 18:03:02:08 01:32:23:01 01:32:26:10 
*FROM CLIP NAME:  46K4/03 
*PATCH 19Y08M22:  FROM SOURCE 7 TO RECORD 6 
*SOURCE FILE: 19Y08M22
006738  19Y08M22                         A7    C        18:02:58:24 18:03:02:08 01:32:23:01 01:32:26:10 
*FROM CLIP NAME:  46K4/03 
*PATCH 19Y08M22:  FROM SOURCE 8 TO RECORD 7 
*SOURCE FILE: 19Y08M22
006739  MSMMMOB.48                       V     C        17:30:51:01 17:30:52:24 01:32:26:02 01:32:28:00 
M2      MSMMMOB.48                                025.0 17:30:51:01 
*FROM CLIP NAME:  A099C007_190822_R32C 
*SOURCE FILE: MSMMMOB.48
006740  19Y08M22                         A     C        17:30:51:07 17:30:58:17 01:32:26:10 01:32:33:20 
*FROM CLIP NAME:  46K3/03 
*SOURCE FILE: 19Y08M22
006741  19Y08M22                         A2    C        17:30:51:07 17:30:58:17 01:32:26:10 01:32:33:20 
*FROM CLIP NAME:  46K3/03 
*SOURCE FILE: 19Y08M22
006742  MSMMMOB.48                       A3    C        17:30:51:09 17:30:58:19 01:32:26:10 01:32:33:20 
*FROM CLIP NAME:  A099C007_190822_R32C 
*SOURCE FILE: MSMMMOB.48
006743  19Y08M22                         A4    C        17:30:51:07 17:30:58:17 01:32:26:10 01:32:33:20 
*FROM CLIP NAME:  46K3/03 
*SOURCE FILE: 19Y08M22
006744  MSMMMOB.48                       A5    C        17:30:51:09 17:30:58:19 01:32:26:10 01:32:33:20 
*FROM CLIP NAME:  A099C007_190822_R32C 
*SOURCE FILE: MSMMMOB.48
006745  19Y08M22                         A6    C        17:30:51:07 17:30:58:17 01:32:26:10 01:32:33:20 
*FROM CLIP NAME:  46K3/03 
*PATCH 19Y08M22:  FROM SOURCE 7 TO RECORD 6 
*SOURCE FILE: 19Y08M22
006746  19Y08M22                         A7    C        17:30:51:07 17:30:58:17 01:32:26:10 01:32:33:20 
*FROM CLIP NAME:  46K3/03 
*PATCH 19Y08M22:  FROM SOURCE 8 TO RECORD 7 
*SOURCE FILE: 19Y08M22
006747  MSMMMOB.77                       V     C        18:07:14:01 18:07:15:19 01:32:28:00 01:32:29:18 
M2      MSMMMOB.77                                025.0 18:07:14:01 
*FROM CLIP NAME:  A100C004_190822_R32C 
*SOURCE FILE: MSMMMOB.77
006748  MSMMMOB.48                       V     C        17:30:54:17 17:30:58:10 01:32:29:18 01:32:33:11 
M2      MSMMMOB.48                                025.0 17:30:54:17 
*FROM CLIP NAME:  A099C007_190822_R32C 
*SOURCE FILE: MSMMMOB.48
006749  02611.MP3                        A8    C        01:00:00:03 01:00:36:20 01:32:32:17 01:33:09:09 
*FROM CLIP NAME:  02611.MP3 
*A8 VOL = -20.0 DB  PAN L100 
*PATCH 02611.MP3:  FROM SOURCE 2 TO RECORD 8 
*SOURCE FILE: 02611.MP3
006750  02611.MP3                        A9    C        01:00:00:03 01:00:36:20 01:32:32:17 01:33:09:09 
*FROM CLIP NAME:  02611.MP3 
*A9 VOL = -20.0 DB  PAN R100 
*PATCH 02611.MP3:  FROM SOURCE 1 TO RECORD 9 
*SOURCE FILE: 02611.MP3
006751  MSMMMOB.77                       V     C        18:07:19:17 18:07:24:21 01:32:33:11 01:32:38:15 
M2      MSMMMOB.77                                025.0 18:07:19:17 
*FROM CLIP NAME:  A100C004_190822_R32C 
*SOURCE FILE: MSMMMOB.77
006752  19Y08M22                         A     C        17:30:58:17 17:30:58:17 01:32:33:20 01:32:33:20 
006752  19Y08M22                         A     D    002 18:07:19:24 18:07:20:01 01:32:33:20 01:32:33:22 
*FROM CLIP NAME:  46K3/03 
*TO CLIP NAME:  46K4/04 
*SOURCE FILE: 19Y08M22
006753  19Y08M22                         A2    C        17:30:58:17 17:30:58:17 01:32:33:20 01:32:33:20 
006753  19Y08M22                         A2    D    002 18:07:19:24 18:07:20:01 01:32:33:20 01:32:33:22 
*FROM CLIP NAME:  46K3/03 
*TO CLIP NAME:  46K4/04 
*SOURCE FILE: 19Y08M22
006754  MSMMMOB.48                       A3    C        17:30:58:19 17:30:58:19 01:32:33:20 01:32:33:20 
006754  MSMMMOB.77                       A3    D    002 18:07:20:01 18:07:20:03 01:32:33:20 01:32:33:22 
*FROM CLIP NAME:  A099C007_190822_R32C 
*TO CLIP NAME:  A100C004_190822_R32C 
*SOURCE FILE: MSMMMOB.48
006755  19Y08M22                         A4    C        17:30:58:17 17:30:58:17 01:32:33:20 01:32:33:20 
006755  19Y08M22                         A4    D    002 18:07:19:24 18:07:20:01 01:32:33:20 01:32:33:22 
*FROM CLIP NAME:  46K3/03 
*TO CLIP NAME:  46K4/04 
*SOURCE FILE: 19Y08M22
006756  MSMMMOB.48                       A5    C        17:30:58:19 17:30:58:19 01:32:33:20 01:32:33:20 
006756  MSMMMOB.77                       A5    D    002 18:07:20:01 18:07:20:03 01:32:33:20 01:32:33:22 
*FROM CLIP NAME:  A099C007_190822_R32C 
*TO CLIP NAME:  A100C004_190822_R32C 
*SOURCE FILE: MSMMMOB.48
006757  19Y08M22                         A6    C        17:30:58:17 17:30:58:17 01:32:33:20 01:32:33:20 
006757  19Y08M22                         A6    D    002 18:07:19:24 18:07:20:01 01:32:33:20 01:32:33:22 
*FROM CLIP NAME:  46K3/03 
*TO CLIP NAME:  46K4/04 
*PATCH 19Y08M22:  FROM SOURCE 7 TO RECORD 6 
*PATCH 19Y08M22:  FROM SOURCE 7 TO RECORD 6 
*SOURCE FILE: 19Y08M22
006758  19Y08M22                         A7    C        17:30:58:17 17:30:58:17 01:32:33:20 01:32:33:20 
006758  19Y08M22                         A7    D    002 18:07:19:24 18:07:20:01 01:32:33:20 01:32:33:22 
*FROM CLIP NAME:  46K3/03 
*TO CLIP NAME:  46K4/04 
*PATCH 19Y08M22:  FROM SOURCE 8 TO RECORD 7 
*PATCH 19Y08M22:  FROM SOURCE 8 TO RECORD 7 
*SOURCE FILE: 19Y08M22
006759  19Y08M22                         A     C        18:07:20:01 18:07:24:19 01:32:33:22 01:32:38:15 
*FROM CLIP NAME:  46K4/04 
*SOURCE FILE: 19Y08M22
006760  19Y08M22                         A2    C        18:07:20:01 18:07:24:19 01:32:33:22 01:32:38:15 
*FROM CLIP NAME:  46K4/04 
*SOURCE FILE: 19Y08M22
006761  MSMMMOB.77                       A3    C        18:07:20:03 18:07:24:21 01:32:33:22 01:32:38:15 
*FROM CLIP NAME:  A100C004_190822_R32C 
*SOURCE FILE: MSMMMOB.77
006762  19Y08M22                         A4    C        18:07:20:01 18:07:24:19 01:32:33:22 01:32:38:15 
*FROM CLIP NAME:  46K4/04 
*SOURCE FILE: 19Y08M22
006763  MSMMMOB.77                       A5    C        18:07:20:03 18:07:24:21 01:32:33:22 01:32:38:15 
*FROM CLIP NAME:  A100C004_190822_R32C 
*SOURCE FILE: MSMMMOB.77
006764  19Y08M22                         A6    C        18:07:20:01 18:07:24:19 01:32:33:22 01:32:38:15 
*FROM CLIP NAME:  46K4/04 
*PATCH 19Y08M22:  FROM SOURCE 7 TO RECORD 6 
*SOURCE FILE: 19Y08M22
006765  19Y08M22                         A7    C        18:07:20:01 18:07:24:19 01:32:33:22 01:32:38:15 
*FROM CLIP NAME:  46K4/04 
*PATCH 19Y08M22:  FROM SOURCE 8 TO RECORD 7 
*SOURCE FILE: 19Y08M22
006766  MSMMMOB.48                       V     C        17:31:02:20 17:31:08:09 01:32:38:15 01:32:44:04 
M2      MSMMMOB.48                                025.0 17:31:02:20 
*FROM CLIP NAME:  A099C007_190822_R32C 
*SOURCE FILE: MSMMMOB.48
006767  19Y08M22                         A     C        17:31:02:18 17:31:08:07 01:32:38:15 01:32:44:04 
*FROM CLIP NAME:  46K3/03 
*SOURCE FILE: 19Y08M22
006768  19Y08M22                         A2    C        17:31:02:18 17:31:08:07 01:32:38:15 01:32:44:04 
*FROM CLIP NAME:  46K3/03 
*SOURCE FILE: 19Y08M22
006769  MSMMMOB.48                       A3    C        17:31:02:20 17:31:08:09 01:32:38:15 01:32:44:04 
*FROM CLIP NAME:  A099C007_190822_R32C 
*SOURCE FILE: MSMMMOB.48
006770  19Y08M22                         A4    C        17:31:02:18 17:31:08:07 01:32:38:15 01:32:44:04 
*FROM CLIP NAME:  46K3/03 
*SOURCE FILE: 19Y08M22
006771  MSMMMOB.48                       A5    C        17:31:02:20 17:31:08:09 01:32:38:15 01:32:44:04 
*FROM CLIP NAME:  A099C007_190822_R32C 
*SOURCE FILE: MSMMMOB.48
006772  19Y08M22                         A6    C        17:31:02:18 17:31:08:07 01:32:38:15 01:32:44:04 
*FROM CLIP NAME:  46K3/03 
*PATCH 19Y08M22:  FROM SOURCE 7 TO RECORD 6 
*SOURCE FILE: 19Y08M22
006773  19Y08M22                         A7    C        17:31:02:18 17:31:08:07 01:32:38:15 01:32:44:04 
*FROM CLIP NAME:  46K3/03 
*PATCH 19Y08M22:  FROM SOURCE 8 TO RECORD 7 
*SOURCE FILE: 19Y08M22
006774  19Y08M22                         A     C        18:07:20:16 18:07:22:11 01:32:44:04 01:32:45:24 
*FROM CLIP NAME:  46K4/04 
*SOURCE FILE: 19Y08M22
006775  19Y08M22                         A2    C        18:07:20:16 18:07:22:11 01:32:44:04 01:32:45:24 
*FROM CLIP NAME:  46K4/04 
*SOURCE FILE: 19Y08M22
006776  MSMMMOB.77                       A3    C        18:07:20:18 18:07:22:13 01:32:44:04 01:32:45:24 
*FROM CLIP NAME:  A100C004_190822_R32C 
*SOURCE FILE: MSMMMOB.77
006777  19Y08M22                         A4    C        18:07:20:16 18:07:22:11 01:32:44:04 01:32:45:24 
*FROM CLIP NAME:  46K4/04 
*SOURCE FILE: 19Y08M22
006778  MSMMMOB.77                       A5    C        18:07:20:18 18:07:22:13 01:32:44:04 01:32:45:24 
*FROM CLIP NAME:  A100C004_190822_R32C 
*SOURCE FILE: MSMMMOB.77
006779  19Y08M22                         A6    C        18:07:20:16 18:07:22:11 01:32:44:04 01:32:45:24 
*FROM CLIP NAME:  46K4/04 
*PATCH 19Y08M22:  FROM SOURCE 8 TO RECORD 6 
*SOURCE FILE: 19Y08M22
006780  19Y08M22                         A7    C        18:07:20:16 18:07:22:11 01:32:44:04 01:32:45:24 
*FROM CLIP NAME:  46K4/04 
*SOURCE FILE: 19Y08M22
006781  MSMMMOB.77                       V     C        18:07:28:14 18:07:32:24 01:32:44:04 01:32:48:14 
M2      MSMMMOB.77                                025.0 18:07:28:14 
*FROM CLIP NAME:  A100C004_190822_R32C 
*SOURCE FILE: MSMMMOB.77
006782  19Y08M22                         A     C        16:50:10:00 16:50:11:13 01:32:45:24 01:32:47:12 
*FROM CLIP NAME:  46K1/04 
*SOURCE FILE: 19Y08M22
006783  19Y08M22                         A2    C        16:50:10:00 16:50:11:13 01:32:45:24 01:32:47:12 
*FROM CLIP NAME:  46K1/04 
*SOURCE FILE: 19Y08M22
006784  MSMMMOB.57                       A3    C        16:50:10:02 16:50:11:15 01:32:45:24 01:32:47:12 
*FROM CLIP NAME:  A099C001_190822_R32C 
*SOURCE FILE: MSMMMOB.57
006785  19Y08M22                         A4    C        16:50:10:00 16:50:11:13 01:32:45:24 01:32:47:12 
*FROM CLIP NAME:  46K1/04 
*SOURCE FILE: 19Y08M22
006786  MSMMMOB.57                       A5    C        16:50:10:02 16:50:11:15 01:32:45:24 01:32:47:12 
*FROM CLIP NAME:  A099C001_190822_R32C 
*SOURCE FILE: MSMMMOB.57
006787  19Y08M22                         A6    C        16:50:10:00 16:50:11:13 01:32:45:24 01:32:47:12 
*FROM CLIP NAME:  46K1/04 
*PATCH 19Y08M22:  FROM SOURCE 7 TO RECORD 6 
*SOURCE FILE: 19Y08M22
006788  19Y08M22                         A7    C        16:50:10:00 16:50:11:13 01:32:45:24 01:32:47:12 
*FROM CLIP NAME:  46K1/04 
*PATCH 19Y08M22:  FROM SOURCE 8 TO RECORD 7 
*SOURCE FILE: 19Y08M22
006789  19Y08M22                         A     C        16:45:40:01 16:45:43:01 01:32:47:12 01:32:50:12 
*FROM CLIP NAME:  46K1/03 
*SOURCE FILE: 19Y08M22
006790  19Y08M22                         A2    C        16:45:40:01 16:45:43:01 01:32:47:12 01:32:50:12 
*FROM CLIP NAME:  46K1/03 
*SOURCE FILE: 19Y08M22
006791  MSMMMOB.19                       A3    C        16:45:40:03 16:45:43:03 01:32:47:12 01:32:50:12 
*FROM CLIP NAME:  A098C013_190822_R32C 
*SOURCE FILE: MSMMMOB.19
006792  19Y08M22                         A4    C        16:45:40:01 16:45:43:01 01:32:47:12 01:32:50:12 
*FROM CLIP NAME:  46K1/03 
*SOURCE FILE: 19Y08M22
006793  MSMMMOB.19                       A5    C        16:45:40:03 16:45:43:03 01:32:47:12 01:32:50:12 
*FROM CLIP NAME:  A098C013_190822_R32C 
*SOURCE FILE: MSMMMOB.19
006794  19Y08M22                         A6    C        16:45:40:01 16:45:43:01 01:32:47:12 01:32:50:12 
*FROM CLIP NAME:  46K1/03 
*PATCH 19Y08M22:  FROM SOURCE 7 TO RECORD 6 
*SOURCE FILE: 19Y08M22
006795  19Y08M22                         A7    C        16:45:40:01 16:45:43:01 01:32:47:12 01:32:50:12 
*FROM CLIP NAME:  46K1/03 
*PATCH 19Y08M22:  FROM SOURCE 8 TO RECORD 7 
*SOURCE FILE: 19Y08M22
006796  MSMMMOB.19                       V     C        16:45:41:05 16:45:43:03 01:32:48:14 01:32:50:12 
M2      MSMMMOB.19                                025.0 16:45:41:05 
*FROM CLIP NAME:  A098C013_190822_R32C 
*SOURCE FILE: MSMMMOB.19
006797  MSMMMOB.02                       V     C        18:03:23:01 18:03:24:23 01:32:50:12 01:32:52:09 
M2      MSMMMOB.02                                025.0 18:03:23:01 
*FROM CLIP NAME:  A100C003_190822_R32C 
*SOURCE FILE: MSMMMOB.02
006798  19Y08M22                         A     C        17:56:08:17 17:56:10:14 01:32:50:12 01:32:52:09 
*FROM CLIP NAME:  46K4/01 
*SOURCE FILE: 19Y08M22
006799  19Y08M22                         A2    C        17:56:08:17 17:56:10:14 01:32:50:12 01:32:52:09 
*FROM CLIP NAME:  46K4/01 
*SOURCE FILE: 19Y08M22
006800  MSMMMOB.18                       A3    C        17:56:08:19 17:56:10:16 01:32:50:12 01:32:52:09 
*FROM CLIP NAME:  A100C001_190822_R32C 
*SOURCE FILE: MSMMMOB.18
006801  19Y08M22                         A4    C        17:56:08:17 17:56:10:14 01:32:50:12 01:32:52:09 
*FROM CLIP NAME:  46K4/01 
*SOURCE FILE: 19Y08M22
006802  MSMMMOB.18                       A5    C        17:56:08:19 17:56:10:16 01:32:50:12 01:32:52:09 
*FROM CLIP NAME:  A100C001_190822_R32C 
*SOURCE FILE: MSMMMOB.18
006803  19Y08M22                         A6    C        17:56:08:17 17:56:10:14 01:32:50:12 01:32:52:09 
*FROM CLIP NAME:  46K4/01 
*PATCH 19Y08M22:  FROM SOURCE 8 TO RECORD 6 
*SOURCE FILE: 19Y08M22
006804  19Y08M22                         A7    C        17:56:08:17 17:56:10:14 01:32:50:12 01:32:52:09 
*FROM CLIP NAME:  46K4/01 
*SOURCE FILE: 19Y08M22
006805  MSMMMOB.43                       V     C        17:23:11:19 17:23:16:18 01:32:52:09 01:32:57:08 
M2      MSMMMOB.43                                025.0 17:23:11:19 
*FROM CLIP NAME:  A099C005_190822_R32C 
*SOURCE FILE: MSMMMOB.43
006806  19Y08M22                         A     C        17:23:11:17 17:23:16:16 01:32:52:09 01:32:57:08 
*FROM CLIP NAME:  46K3/01 
*SOURCE FILE: 19Y08M22
006807  19Y08M22                         A2    C        17:23:11:17 17:23:16:16 01:32:52:09 01:32:57:08 
*FROM CLIP NAME:  46K3/01 
*SOURCE FILE: 19Y08M22
006808  MSMMMOB.43                       A3    C        17:23:11:19 17:23:16:18 01:32:52:09 01:32:57:08 
*FROM CLIP NAME:  A099C005_190822_R32C 
*SOURCE FILE: MSMMMOB.43
006809  19Y08M22                         A4    C        17:23:11:17 17:23:16:16 01:32:52:09 01:32:57:08 
*FROM CLIP NAME:  46K3/01 
*SOURCE FILE: 19Y08M22
006810  MSMMMOB.43                       A5    C        17:23:11:19 17:23:16:18 01:32:52:09 01:32:57:08 
*FROM CLIP NAME:  A099C005_190822_R32C 
*SOURCE FILE: MSMMMOB.43
006811  19Y08M22                         A6    C        17:23:11:17 17:23:16:16 01:32:52:09 01:32:57:08 
*FROM CLIP NAME:  46K3/01 
*PATCH 19Y08M22:  FROM SOURCE 7 TO RECORD 6 
*SOURCE FILE: 19Y08M22
006812  19Y08M22                         A7    C        17:23:11:17 17:23:16:16 01:32:52:09 01:32:57:08 
*FROM CLIP NAME:  46K3/01 
*PATCH 19Y08M22:  FROM SOURCE 8 TO RECORD 7 
*SOURCE FILE: 19Y08M22
006813  MSMMMOB.77                       V     C        18:07:37:22 18:07:42:15 01:32:57:08 01:33:02:01 
M2      MSMMMOB.77                                025.0 18:07:37:22 
*FROM CLIP NAME:  A100C004_190822_R32C 
*SOURCE FILE: MSMMMOB.77
006814  19Y08M22                         A     C        18:07:37:20 18:07:42:15 01:32:57:08 01:33:02:03 
*FROM CLIP NAME:  46K4/04 
*SOURCE FILE: 19Y08M22
006815  19Y08M22                         A2    C        18:07:37:20 18:07:42:15 01:32:57:08 01:33:02:03 
*FROM CLIP NAME:  46K4/04 
*SOURCE FILE: 19Y08M22
006816  MSMMMOB.77                       A3    C        18:07:37:22 18:07:42:17 01:32:57:08 01:33:02:03 
*FROM CLIP NAME:  A100C004_190822_R32C 
*SOURCE FILE: MSMMMOB.77
006817  19Y08M22                         A4    C        18:07:37:20 18:07:42:15 01:32:57:08 01:33:02:03 
*FROM CLIP NAME:  46K4/04 
*SOURCE FILE: 19Y08M22
006818  MSMMMOB.77                       A5    C        18:07:37:22 18:07:42:17 01:32:57:08 01:33:02:03 
*FROM CLIP NAME:  A100C004_190822_R32C 
*SOURCE FILE: MSMMMOB.77
006819  19Y08M22                         A6    C        18:07:37:20 18:07:42:15 01:32:57:08 01:33:02:03 
*FROM CLIP NAME:  46K4/04 
*PATCH 19Y08M22:  FROM SOURCE 7 TO RECORD 6 
*SOURCE FILE: 19Y08M22
006820  19Y08M22                         A7    C        18:07:37:20 18:07:42:15 01:32:57:08 01:33:02:03 
*FROM CLIP NAME:  46K4/04 
*PATCH 19Y08M22:  FROM SOURCE 8 TO RECORD 7 
*SOURCE FILE: 19Y08M22
006821  MSMMMOB.57                       V     C        16:50:22:18 16:50:24:03 01:33:02:01 01:33:03:11 
M2      MSMMMOB.57                                025.0 16:50:22:18 
*FROM CLIP NAME:  A099C001_190822_R32C 
*SOURCE FILE: MSMMMOB.57
006822  19Y08M22                         A     C        18:07:42:15 18:07:42:15 01:33:02:03 01:33:02:03 
006822  19Y08M22                         A     D    002 16:50:22:18 16:50:22:20 01:33:02:03 01:33:02:05 
*FROM CLIP NAME:  46K4/04 
*TO CLIP NAME:  46K1/04 
*SOURCE FILE: 19Y08M22
006823  19Y08M22                         A2    C        18:07:42:15 18:07:42:15 01:33:02:03 01:33:02:03 
006823  19Y08M22                         A2    D    002 16:50:22:18 16:50:22:20 01:33:02:03 01:33:02:05 
*FROM CLIP NAME:  46K4/04 
*TO CLIP NAME:  46K1/04 
*SOURCE FILE: 19Y08M22
006824  MSMMMOB.77                       A3    C        18:07:42:17 18:07:42:17 01:33:02:03 01:33:02:03 
006824  MSMMMOB.57                       A3    D    002 16:50:22:20 16:50:22:22 01:33:02:03 01:33:02:05 
*FROM CLIP NAME:  A100C004_190822_R32C 
*TO CLIP NAME:  A099C001_190822_R32C 
*SOURCE FILE: MSMMMOB.77
006825  19Y08M22                         A4    C        18:07:42:15 18:07:42:15 01:33:02:03 01:33:02:03 
006825  19Y08M22                         A4    D    002 16:50:22:18 16:50:22:20 01:33:02:03 01:33:02:05 
*FROM CLIP NAME:  46K4/04 
*TO CLIP NAME:  46K1/04 
*SOURCE FILE: 19Y08M22
006826  MSMMMOB.77                       A5    C        18:07:42:17 18:07:42:17 01:33:02:03 01:33:02:03 
006826  MSMMMOB.57                       A5    D    002 16:50:22:20 16:50:22:22 01:33:02:03 01:33:02:05 
*FROM CLIP NAME:  A100C004_190822_R32C 
*TO CLIP NAME:  A099C001_190822_R32C 
*SOURCE FILE: MSMMMOB.77
006827  19Y08M22                         A6    C        18:07:42:15 18:07:42:15 01:33:02:03 01:33:02:03 
006827  19Y08M22                         A6    D    002 16:50:22:18 16:50:22:20 01:33:02:03 01:33:02:05 
*FROM CLIP NAME:  46K4/04 
*TO CLIP NAME:  46K1/04 
*PATCH 19Y08M22:  FROM SOURCE 7 TO RECORD 6 
*PATCH 19Y08M22:  FROM SOURCE 7 TO RECORD 6 
*SOURCE FILE: 19Y08M22
006828  19Y08M22                         A7    C        18:07:42:15 18:07:42:15 01:33:02:03 01:33:02:03 
006828  19Y08M22                         A7    D    002 16:50:22:18 16:50:22:20 01:33:02:03 01:33:02:05 
*FROM CLIP NAME:  46K4/04 
*TO CLIP NAME:  46K1/04 
*PATCH 19Y08M22:  FROM SOURCE 8 TO RECORD 7 
*PATCH 19Y08M22:  FROM SOURCE 8 TO RECORD 7 
*SOURCE FILE: 19Y08M22
006829  19Y08M22                         A     C        16:50:22:20 16:50:24:01 01:33:02:05 01:33:03:11 
*FROM CLIP NAME:  46K1/04 
*SOURCE FILE: 19Y08M22
006830  19Y08M22                         A2    C        16:50:22:20 16:50:24:01 01:33:02:05 01:33:03:11 
*FROM CLIP NAME:  46K1/04 
*SOURCE FILE: 19Y08M22
006831  MSMMMOB.57                       A3    C        16:50:22:22 16:50:24:03 01:33:02:05 01:33:03:11 
*FROM CLIP NAME:  A099C001_190822_R32C 
*SOURCE FILE: MSMMMOB.57
006832  19Y08M22                         A4    C        16:50:22:20 16:50:24:01 01:33:02:05 01:33:03:11 
*FROM CLIP NAME:  46K1/04 
*SOURCE FILE: 19Y08M22
006833  MSMMMOB.57                       A5    C        16:50:22:22 16:50:24:03 01:33:02:05 01:33:03:11 
*FROM CLIP NAME:  A099C001_190822_R32C 
*SOURCE FILE: MSMMMOB.57
006834  19Y08M22                         A6    C        16:50:22:20 16:50:24:01 01:33:02:05 01:33:03:11 
*FROM CLIP NAME:  46K1/04 
*PATCH 19Y08M22:  FROM SOURCE 7 TO RECORD 6 
*SOURCE FILE: 19Y08M22
006835  19Y08M22                         A7    C        16:50:22:20 16:50:24:01 01:33:02:05 01:33:03:11 
*FROM CLIP NAME:  46K1/04 
*PATCH 19Y08M22:  FROM SOURCE 8 TO RECORD 7 
*SOURCE FILE: 19Y08M22
006836  MSMMMOB.48                       V     C        17:31:28:17 17:31:34:15 01:33:03:11 01:33:09:09 
M2      MSMMMOB.48                                025.0 17:31:28:17 
*FROM CLIP NAME:  A099C007_190822_R32C 
*SOURCE FILE: MSMMMOB.48
006837  19Y08M22                         A     C        17:31:28:15 17:31:34:13 01:33:03:11 01:33:09:09 
*FROM CLIP NAME:  46K3/03 
*SOURCE FILE: 19Y08M22
006838  19Y08M22                         A2    C        17:31:28:15 17:31:34:13 01:33:03:11 01:33:09:09 
*FROM CLIP NAME:  46K3/03 
*SOURCE FILE: 19Y08M22
006839  MSMMMOB.48                       A3    C        17:31:28:17 17:31:34:15 01:33:03:11 01:33:09:09 
*FROM CLIP NAME:  A099C007_190822_R32C 
*SOURCE FILE: MSMMMOB.48
006840  19Y08M22                         A4    C        17:31:28:15 17:31:34:13 01:33:03:11 01:33:09:09 
*FROM CLIP NAME:  46K3/03 
*SOURCE FILE: 19Y08M22
006841  MSMMMOB.48                       A5    C        17:31:28:17 17:31:34:15 01:33:03:11 01:33:09:09 
*FROM CLIP NAME:  A099C007_190822_R32C 
*SOURCE FILE: MSMMMOB.48
006842  19Y08M22                         A6    C        17:31:28:15 17:31:34:13 01:33:03:11 01:33:09:09 
*FROM CLIP NAME:  46K3/03 
*PATCH 19Y08M22:  FROM SOURCE 7 TO RECORD 6 
*SOURCE FILE: 19Y08M22
006843  19Y08M22                         A7    C        17:31:28:15 17:31:34:13 01:33:03:11 01:33:09:09 
*FROM CLIP NAME:  46K3/03 
*PATCH 19Y08M22:  FROM SOURCE 8 TO RECORD 7 
*SOURCE FILE: 19Y08M22
006844  19Y08M22                         A     C        13:37:59:07 13:38:03:07 01:33:09:09 01:33:13:09 
*FROM CLIP NAME:  48K2/03 
*SOURCE FILE: 19Y08M22
006845  19Y08M22                         A2    C        13:37:59:07 13:38:03:07 01:33:09:09 01:33:13:09 
*FROM CLIP NAME:  48K2/03 
*SOURCE FILE: 19Y08M22
006846  MSMMMOB.33                       A3    C        13:37:59:08 13:38:03:08 01:33:09:09 01:33:13:09 
*FROM CLIP NAME:  A097C011_190822_R32C 
*SOURCE FILE: MSMMMOB.33
006847  19Y08M22                         A4    C        13:37:59:07 13:38:03:07 01:33:09:09 01:33:13:09 
*FROM CLIP NAME:  48K2/03 
*SOURCE FILE: 19Y08M22
006848  MSMMMOB.33                       A5    C        13:37:59:08 13:38:03:08 01:33:09:09 01:33:13:09 
*FROM CLIP NAME:  A097C011_190822_R32C 
*SOURCE FILE: MSMMMOB.33
006849  19Y08M22                         A6    C        13:37:59:07 13:38:03:07 01:33:09:09 01:33:13:09 
*FROM CLIP NAME:  48K2/03 
*PATCH 19Y08M22:  FROM SOURCE 7 TO RECORD 6 
*SOURCE FILE: 19Y08M22
006850  MSMMMOB.33                       V     C        13:37:59:08 13:38:03:09 01:33:09:09 01:33:13:10 
M2      MSMMMOB.33                                025.0 13:37:59:08 
*FROM CLIP NAME:  A097C011_190822_R32C 
*SOURCE FILE: MSMMMOB.33
006851  CINEMASCOPE_2-35-1_CROPLINES.PNG V     C        01:00:00:00 01:01:27:12 01:33:09:09 01:34:36:21 
*FROM CLIP NAME:  CINEMASCOPE 2-35-1 CROPLINES.PNG 
*SOURCE FILE: CINEMASCOPE 2-35-1 CROPLINES.PNG
006852  BL                               V     C        00:00:00:00 00:04:27:08 01:33:09:09 01:37:36:17 
*SOURCE FILE: (NULL)
006853  19Y08M22                         A     C        13:38:03:07 13:38:03:07 01:33:13:09 01:33:13:09 
006853  19Y08M22                         A     D    002 14:03:18:02 14:03:18:04 01:33:13:09 01:33:13:11 
*FROM CLIP NAME:  48K2/03 
*TO CLIP NAME:  48K3/04 
*SOURCE FILE: 19Y08M22
006854  19Y08M22                         A2    C        13:38:03:07 13:38:03:07 01:33:13:09 01:33:13:09 
006854  19Y08M22                         A2    D    002 14:03:18:02 14:03:18:04 01:33:13:09 01:33:13:11 
*FROM CLIP NAME:  48K2/03 
*TO CLIP NAME:  48K3/04 
*SOURCE FILE: 19Y08M22
006855  MSMMMOB.33                       A3    C        13:38:03:08 13:38:03:08 01:33:13:09 01:33:13:09 
006855  MSMMMOB.24                       A3    D    002 14:03:18:03 14:03:18:05 01:33:13:09 01:33:13:11 
*FROM CLIP NAME:  A097C011_190822_R32C 
*TO CLIP NAME:  A098C004_190822_R32C 
*SOURCE FILE: MSMMMOB.33
006856  19Y08M22                         A4    C        13:38:03:07 13:38:03:07 01:33:13:09 01:33:13:09 
006856  19Y08M22                         A4    D    002 14:03:18:02 14:03:18:04 01:33:13:09 01:33:13:11 
*FROM CLIP NAME:  48K2/03 
*TO CLIP NAME:  48K3/04 
*SOURCE FILE: 19Y08M22
006857  MSMMMOB.33                       A5    C        13:38:03:08 13:38:03:08 01:33:13:09 01:33:13:09 
006857  MSMMMOB.24                       A5    D    002 14:03:18:03 14:03:18:05 01:33:13:09 01:33:13:11 
*FROM CLIP NAME:  A097C011_190822_R32C 
*TO CLIP NAME:  A098C004_190822_R32C 
*SOURCE FILE: MSMMMOB.33
006858  19Y08M22                         A6    C        13:38:03:07 13:38:03:07 01:33:13:09 01:33:13:09 
006858  19Y08M22                         A6    D    002 14:03:18:02 14:03:18:04 01:33:13:09 01:33:13:11 
*FROM CLIP NAME:  48K2/03 
*TO CLIP NAME:  48K3/04 
*PATCH 19Y08M22:  FROM SOURCE 7 TO RECORD 6 
*PATCH 19Y08M22:  FROM SOURCE 7 TO RECORD 6 
*SOURCE FILE: 19Y08M22
006859  MSMMMOB.24                       V     C        14:03:18:04 14:03:21:00 01:33:13:10 01:33:16:06 
M2      MSMMMOB.24                                025.0 14:03:18:04 
*FROM CLIP NAME:  A098C004_190822_R32C 
*SOURCE FILE: MSMMMOB.24
006860  19Y08M22                         A     C        14:03:18:04 14:03:21:00 01:33:13:11 01:33:16:07 
*FROM CLIP NAME:  48K3/04 
*SOURCE FILE: 19Y08M22
006861  19Y08M22                         A2    C        14:03:18:04 14:03:21:00 01:33:13:11 01:33:16:07 
*FROM CLIP NAME:  48K3/04 
*SOURCE FILE: 19Y08M22
006862  MSMMMOB.24                       A3    C        14:03:18:05 14:03:21:01 01:33:13:11 01:33:16:07 
*FROM CLIP NAME:  A098C004_190822_R32C 
*SOURCE FILE: MSMMMOB.24
006863  19Y08M22                         A4    C        14:03:18:04 14:03:21:00 01:33:13:11 01:33:16:07 
*FROM CLIP NAME:  48K3/04 
*SOURCE FILE: 19Y08M22
006864  MSMMMOB.24                       A5    C        14:03:18:05 14:03:21:01 01:33:13:11 01:33:16:07 
*FROM CLIP NAME:  A098C004_190822_R32C 
*SOURCE FILE: MSMMMOB.24
006865  19Y08M22                         A6    C        14:03:18:04 14:03:21:00 01:33:13:11 01:33:16:07 
*FROM CLIP NAME:  48K3/04 
*PATCH 19Y08M22:  FROM SOURCE 7 TO RECORD 6 
*SOURCE FILE: 19Y08M22
006866  MSMMMOB.33                       V     C        13:38:08:18 13:38:12:04 01:33:16:06 01:33:19:17 
M2      MSMMMOB.33                                025.0 13:38:08:18 
*FROM CLIP NAME:  A097C011_190822_R32C 
*SOURCE FILE: MSMMMOB.33
006867  19Y08M22                         A     C        14:03:21:00 14:03:21:00 01:33:16:07 01:33:16:07 
006867  19Y08M22                         A     D    002 13:38:08:18 13:38:08:20 01:33:16:07 01:33:16:09 
*FROM CLIP NAME:  48K3/04 
*TO CLIP NAME:  48K2/03 
*SOURCE FILE: 19Y08M22
006868  19Y08M22                         A2    C        14:03:21:00 14:03:21:00 01:33:16:07 01:33:16:07 
006868  19Y08M22                         A2    D    002 13:38:08:18 13:38:08:20 01:33:16:07 01:33:16:09 
*FROM CLIP NAME:  48K3/04 
*TO CLIP NAME:  48K2/03 
*SOURCE FILE: 19Y08M22
006869  MSMMMOB.24                       A3    C        14:03:21:01 14:03:21:01 01:33:16:07 01:33:16:07 
006869  MSMMMOB.33                       A3    D    002 13:38:08:19 13:38:08:21 01:33:16:07 01:33:16:09 
*FROM CLIP NAME:  A098C004_190822_R32C 
*TO CLIP NAME:  A097C011_190822_R32C 
*SOURCE FILE: MSMMMOB.24
006870  19Y08M22                         A4    C        14:03:21:00 14:03:21:00 01:33:16:07 01:33:16:07 
006870  19Y08M22                         A4    D    002 13:38:08:18 13:38:08:20 01:33:16:07 01:33:16:09 
*FROM CLIP NAME:  48K3/04 
*TO CLIP NAME:  48K2/03 
*SOURCE FILE: 19Y08M22
006871  MSMMMOB.24                       A5    C        14:03:21:01 14:03:21:01 01:33:16:07 01:33:16:07 
006871  MSMMMOB.33                       A5    D    002 13:38:08:19 13:38:08:21 01:33:16:07 01:33:16:09 
*FROM CLIP NAME:  A098C004_190822_R32C 
*TO CLIP NAME:  A097C011_190822_R32C 
*SOURCE FILE: MSMMMOB.24
006872  19Y08M22                         A6    C        14:03:21:00 14:03:21:00 01:33:16:07 01:33:16:07 
006872  19Y08M22                         A6    D    002 13:38:08:18 13:38:08:20 01:33:16:07 01:33:16:09 
*FROM CLIP NAME:  48K3/04 
*TO CLIP NAME:  48K2/03 
*PATCH 19Y08M22:  FROM SOURCE 7 TO RECORD 6 
*PATCH 19Y08M22:  FROM SOURCE 7 TO RECORD 6 
*SOURCE FILE: 19Y08M22
006873  19Y08M22                         A     C        13:38:08:20 13:38:12:02 01:33:16:09 01:33:19:16 
*FROM CLIP NAME:  48K2/03 
*SOURCE FILE: 19Y08M22
006874  19Y08M22                         A2    C        13:38:08:20 13:38:12:02 01:33:16:09 01:33:19:16 
*FROM CLIP NAME:  48K2/03 
*SOURCE FILE: 19Y08M22
006875  MSMMMOB.33                       A3    C        13:38:08:21 13:38:12:03 01:33:16:09 01:33:19:16 
*FROM CLIP NAME:  A097C011_190822_R32C 
*SOURCE FILE: MSMMMOB.33
006876  19Y08M22                         A4    C        13:38:08:20 13:38:12:02 01:33:16:09 01:33:19:16 
*FROM CLIP NAME:  48K2/03 
*SOURCE FILE: 19Y08M22
006877  MSMMMOB.33                       A5    C        13:38:08:21 13:38:12:03 01:33:16:09 01:33:19:16 
*FROM CLIP NAME:  A097C011_190822_R32C 
*SOURCE FILE: MSMMMOB.33
006878  19Y08M22                         A6    C        13:38:08:20 13:38:12:02 01:33:16:09 01:33:19:16 
*FROM CLIP NAME:  48K2/03 
*PATCH 19Y08M22:  FROM SOURCE 7 TO RECORD 6 
*SOURCE FILE: 19Y08M22
006879  19Y08M22                         A     C        13:38:12:02 13:38:12:02 01:33:19:16 01:33:19:16 
006879  19Y08M22                         A     D    002 14:09:20:04 14:09:20:06 01:33:19:16 01:33:19:18 
*FROM CLIP NAME:  48K2/03 
*TO CLIP NAME:  48K4/01 
*SOURCE FILE: 19Y08M22
006880  19Y08M22                         A2    C        13:38:12:02 13:38:12:02 01:33:19:16 01:33:19:16 
006880  19Y08M22                         A2    D    002 14:09:20:04 14:09:20:06 01:33:19:16 01:33:19:18 
*FROM CLIP NAME:  48K2/03 
*TO CLIP NAME:  48K4/01 
*SOURCE FILE: 19Y08M22
006881  MSMMMOB.33                       A3    C        13:38:12:03 13:38:12:03 01:33:19:16 01:33:19:16 
006881  MSMMMOB.23                       A3    D    002 14:09:20:05 14:09:20:07 01:33:19:16 01:33:19:18 
*FROM CLIP NAME:  A097C011_190822_R32C 
*TO CLIP NAME:  A098C005_190822_R32C 
*SOURCE FILE: MSMMMOB.33
006882  19Y08M22                         A4    C        13:38:12:02 13:38:12:02 01:33:19:16 01:33:19:16 
006882  19Y08M22                         A4    D    002 14:09:20:04 14:09:20:06 01:33:19:16 01:33:19:18 
*FROM CLIP NAME:  48K2/03 
*TO CLIP NAME:  48K4/01 
*SOURCE FILE: 19Y08M22
006883  MSMMMOB.33                       A5    C        13:38:12:03 13:38:12:03 01:33:19:16 01:33:19:16 
006883  MSMMMOB.23                       A5    D    002 14:09:20:05 14:09:20:07 01:33:19:16 01:33:19:18 
*FROM CLIP NAME:  A097C011_190822_R32C 
*TO CLIP NAME:  A098C005_190822_R32C 
*SOURCE FILE: MSMMMOB.33
006884  19Y08M22                         A6    C        13:38:12:02 13:38:12:02 01:33:19:16 01:33:19:16 
006884  19Y08M22                         A6    D    002 14:09:20:04 14:09:20:06 01:33:19:16 01:33:19:18 
*FROM CLIP NAME:  48K2/03 
*TO CLIP NAME:  48K4/01 
*PATCH 19Y08M22:  FROM SOURCE 7 TO RECORD 6 
*PATCH 19Y08M22:  FROM SOURCE 7 TO RECORD 6 
*SOURCE FILE: 19Y08M22
006885  MSMMMOB.23                       V     C        14:09:20:06 14:09:22:08 01:33:19:17 01:33:21:19 
M2      MSMMMOB.23                                025.0 14:09:20:06 
*FROM CLIP NAME:  A098C005_190822_R32C 
*SOURCE FILE: MSMMMOB.23
006886  19Y08M22                         A     C        14:09:20:06 14:09:21:16 01:33:19:18 01:33:21:03 
*FROM CLIP NAME:  48K4/01 
*SOURCE FILE: 19Y08M22
006887  19Y08M22                         A2    C        14:09:20:06 14:09:21:16 01:33:19:18 01:33:21:03 
*FROM CLIP NAME:  48K4/01 
*SOURCE FILE: 19Y08M22
006888  MSMMMOB.23                       A3    C        14:09:20:07 14:09:21:17 01:33:19:18 01:33:21:03 
*FROM CLIP NAME:  A098C005_190822_R32C 
*SOURCE FILE: MSMMMOB.23
006889  19Y08M22                         A4    C        14:09:20:06 14:09:21:16 01:33:19:18 01:33:21:03 
*FROM CLIP NAME:  48K4/01 
*SOURCE FILE: 19Y08M22
006890  MSMMMOB.23                       A5    C        14:09:20:07 14:09:21:17 01:33:19:18 01:33:21:03 
*FROM CLIP NAME:  A098C005_190822_R32C 
*SOURCE FILE: MSMMMOB.23
006891  19Y08M22                         A6    C        14:09:20:06 14:09:21:16 01:33:19:18 01:33:21:03 
*FROM CLIP NAME:  48K4/01 
*PATCH 19Y08M22:  FROM SOURCE 7 TO RECORD 6 
*SOURCE FILE: 19Y08M22
006892  19Y08M22                         A     C        14:09:21:16 14:09:21:16 01:33:21:03 01:33:21:03 
006892  19Y08M22                         A     D    002 14:03:23:19 14:03:23:21 01:33:21:03 01:33:21:05 
*FROM CLIP NAME:  48K4/01 
*TO CLIP NAME:  48K3/04 
*SOURCE FILE: 19Y08M22
006893  19Y08M22                         A2    C        14:09:21:16 14:09:21:16 01:33:21:03 01:33:21:03 
006893  19Y08M22                         A2    D    002 14:03:23:19 14:03:23:21 01:33:21:03 01:33:21:05 
*FROM CLIP NAME:  48K4/01 
*TO CLIP NAME:  48K3/04 
*SOURCE FILE: 19Y08M22
006894  MSMMMOB.23                       A3    C        14:09:21:17 14:09:21:17 01:33:21:03 01:33:21:03 
006894  MSMMMOB.24                       A3    D    002 14:03:23:20 14:03:23:22 01:33:21:03 01:33:21:05 
*FROM CLIP NAME:  A098C005_190822_R32C 
*TO CLIP NAME:  A098C004_190822_R32C 
*SOURCE FILE: MSMMMOB.23
006895  19Y08M22                         A4    C        14:09:21:16 14:09:21:16 01:33:21:03 01:33:21:03 
006895  19Y08M22                         A4    D    002 14:03:23:19 14:03:23:21 01:33:21:03 01:33:21:05 
*FROM CLIP NAME:  48K4/01 
*TO CLIP NAME:  48K3/04 
*SOURCE FILE: 19Y08M22
006896  MSMMMOB.23                       A5    C        14:09:21:17 14:09:21:17 01:33:21:03 01:33:21:03 
006896  MSMMMOB.24                       A5    D    002 14:03:23:20 14:03:23:22 01:33:21:03 01:33:21:05 
*FROM CLIP NAME:  A098C005_190822_R32C 
*TO CLIP NAME:  A098C004_190822_R32C 
*SOURCE FILE: MSMMMOB.23
006897  19Y08M22                         A6    C        14:09:21:16 14:09:21:16 01:33:21:03 01:33:21:03 
006897  19Y08M22                         A6    D    002 14:03:23:19 14:03:23:21 01:33:21:03 01:33:21:05 
*FROM CLIP NAME:  48K4/01 
*TO CLIP NAME:  48K3/04 
*PATCH 19Y08M22:  FROM SOURCE 7 TO RECORD 6 
*PATCH 19Y08M22:  FROM SOURCE 7 TO RECORD 6 
*SOURCE FILE: 19Y08M22
006898  19Y08M22                         A     C        14:03:23:21 14:03:25:15 01:33:21:05 01:33:22:24 
*FROM CLIP NAME:  48K3/04 
*SOURCE FILE: 19Y08M22
006899  19Y08M22                         A2    C        14:03:23:21 14:03:25:15 01:33:21:05 01:33:22:24 
*FROM CLIP NAME:  48K3/04 
*SOURCE FILE: 19Y08M22
006900  MSMMMOB.24                       A3    C        14:03:23:22 14:03:25:16 01:33:21:05 01:33:22:24 
*FROM CLIP NAME:  A098C004_190822_R32C 
*SOURCE FILE: MSMMMOB.24
006901  19Y08M22                         A4    C        14:03:23:21 14:03:25:15 01:33:21:05 01:33:22:24 
*FROM CLIP NAME:  48K3/04 
*SOURCE FILE: 19Y08M22
006902  MSMMMOB.24                       A5    C        14:03:23:22 14:03:25:16 01:33:21:05 01:33:22:24 
*FROM CLIP NAME:  A098C004_190822_R32C 
*SOURCE FILE: MSMMMOB.24
006903  19Y08M22                         A6    C        14:03:23:21 14:03:25:15 01:33:21:05 01:33:22:24 
*FROM CLIP NAME:  48K3/04 
*PATCH 19Y08M22:  FROM SOURCE 7 TO RECORD 6 
*SOURCE FILE: 19Y08M22
006904  MSMMMOB.24                       V     C        14:03:24:11 14:03:26:02 01:33:21:19 01:33:23:10 
M2      MSMMMOB.24                                025.0 14:03:24:11 
*FROM CLIP NAME:  A098C004_190822_R32C 
*SOURCE FILE: MSMMMOB.24
006905  19Y08M22                         A     C        14:03:25:15 14:03:25:15 01:33:22:24 01:33:22:24 
006905  19Y08M22                         A     D    002 13:38:12:13 13:38:12:15 01:33:22:24 01:33:23:01 
*FROM CLIP NAME:  48K3/04 
*TO CLIP NAME:  48K2/03 
*SOURCE FILE: 19Y08M22
006906  19Y08M22                         A2    C        14:03:25:15 14:03:25:15 01:33:22:24 01:33:22:24 
006906  19Y08M22                         A2    D    002 13:38:12:13 13:38:12:15 01:33:22:24 01:33:23:01 
*FROM CLIP NAME:  48K3/04 
*TO CLIP NAME:  48K2/03 
*SOURCE FILE: 19Y08M22
006907  MSMMMOB.24                       A3    C        14:03:25:16 14:03:25:16 01:33:22:24 01:33:22:24 
006907  MSMMMOB.33                       A3    D    002 13:38:12:14 13:38:12:16 01:33:22:24 01:33:23:01 
*FROM CLIP NAME:  A098C004_190822_R32C 
*TO CLIP NAME:  A097C011_190822_R32C 
*SOURCE FILE: MSMMMOB.24
006908  19Y08M22                         A4    C        14:03:25:15 14:03:25:15 01:33:22:24 01:33:22:24 
006908  19Y08M22                         A4    D    002 13:38:12:13 13:38:12:15 01:33:22:24 01:33:23:01 
*FROM CLIP NAME:  48K3/04 
*TO CLIP NAME:  48K2/03 
*SOURCE FILE: 19Y08M22
006909  MSMMMOB.24                       A5    C        14:03:25:16 14:03:25:16 01:33:22:24 01:33:22:24 
006909  MSMMMOB.33                       A5    D    002 13:38:12:14 13:38:12:16 01:33:22:24 01:33:23:01 
*FROM CLIP NAME:  A098C004_190822_R32C 
*TO CLIP NAME:  A097C011_190822_R32C 
*SOURCE FILE: MSMMMOB.24
006910  19Y08M22                         A6    C        14:03:25:15 14:03:25:15 01:33:22:24 01:33:22:24 
006910  19Y08M22                         A6    D    002 13:38:12:13 13:38:12:15 01:33:22:24 01:33:23:01 
*FROM CLIP NAME:  48K3/04 
*TO CLIP NAME:  48K2/03 
*PATCH 19Y08M22:  FROM SOURCE 7 TO RECORD 6 
*PATCH 19Y08M22:  FROM SOURCE 7 TO RECORD 6 
*SOURCE FILE: 19Y08M22
006911  19Y08M22                         A     C        13:38:12:15 13:38:23:12 01:33:23:01 01:33:33:23 
*FROM CLIP NAME:  48K2/03 
*SOURCE FILE: 19Y08M22
006912  19Y08M22                         A2    C        13:38:12:15 13:38:23:12 01:33:23:01 01:33:33:23 
*FROM CLIP NAME:  48K2/03 
*SOURCE FILE: 19Y08M22
006913  MSMMMOB.33                       A3    C        13:38:12:16 13:38:23:13 01:33:23:01 01:33:33:23 
*FROM CLIP NAME:  A097C011_190822_R32C 
*SOURCE FILE: MSMMMOB.33
006914  19Y08M22                         A4    C        13:38:12:15 13:38:23:12 01:33:23:01 01:33:33:23 
*FROM CLIP NAME:  48K2/03 
*SOURCE FILE: 19Y08M22
006915  MSMMMOB.33                       A5    C        13:38:12:16 13:38:23:13 01:33:23:01 01:33:33:23 
*FROM CLIP NAME:  A097C011_190822_R32C 
*SOURCE FILE: MSMMMOB.33
006916  19Y08M22                         A6    C        13:38:12:15 13:38:23:12 01:33:23:01 01:33:33:23 
*FROM CLIP NAME:  48K2/03 
*PATCH 19Y08M22:  FROM SOURCE 7 TO RECORD 6 
*SOURCE FILE: 19Y08M22
006917  MSMMMOB.33                       V     C        13:38:13:00 13:38:23:04 01:33:23:10 01:33:33:14 
M2      MSMMMOB.33                                025.0 13:38:13:00 
*FROM CLIP NAME:  A097C011_190822_R32C 
*SOURCE FILE: MSMMMOB.33
006918  MSMMMOB.24                       V     C        14:03:38:05 14:03:46:01 01:33:33:14 01:33:41:10 
M2      MSMMMOB.24                                025.0 14:03:38:05 
*FROM CLIP NAME:  A098C004_190822_R32C 
*SOURCE FILE: MSMMMOB.24
006919  19Y08M22                         A     C        13:38:23:12 13:38:23:12 01:33:33:23 01:33:33:23 
006919  19Y08M22                         A     D    002 14:03:38:13 14:03:38:15 01:33:33:23 01:33:34:00 
*FROM CLIP NAME:  48K2/03 
*TO CLIP NAME:  48K3/04 
*SOURCE FILE: 19Y08M22
006920  19Y08M22                         A2    C        13:38:23:12 13:38:23:12 01:33:33:23 01:33:33:23 
006920  19Y08M22                         A2    D    002 14:03:38:13 14:03:38:15 01:33:33:23 01:33:34:00 
*FROM CLIP NAME:  48K2/03 
*TO CLIP NAME:  48K3/04 
*SOURCE FILE: 19Y08M22
006921  MSMMMOB.33                       A3    C        13:38:23:13 13:38:23:13 01:33:33:23 01:33:33:23 
006921  MSMMMOB.24                       A3    D    002 14:03:38:14 14:03:38:16 01:33:33:23 01:33:34:00 
*FROM CLIP NAME:  A097C011_190822_R32C 
*TO CLIP NAME:  A098C004_190822_R32C 
*SOURCE FILE: MSMMMOB.33
006922  19Y08M22                         A4    C        13:38:23:12 13:38:23:12 01:33:33:23 01:33:33:23 
006922  19Y08M22                         A4    D    002 14:03:38:13 14:03:38:15 01:33:33:23 01:33:34:00 
*FROM CLIP NAME:  48K2/03 
*TO CLIP NAME:  48K3/04 
*SOURCE FILE: 19Y08M22
006923  MSMMMOB.33                       A5    C        13:38:23:13 13:38:23:13 01:33:33:23 01:33:33:23 
006923  MSMMMOB.24                       A5    D    002 14:03:38:14 14:03:38:16 01:33:33:23 01:33:34:00 
*FROM CLIP NAME:  A097C011_190822_R32C 
*TO CLIP NAME:  A098C004_190822_R32C 
*SOURCE FILE: MSMMMOB.33
006924  19Y08M22                         A6    C        13:38:23:12 13:38:23:12 01:33:33:23 01:33:33:23 
006924  19Y08M22                         A6    D    002 14:03:38:13 14:03:38:15 01:33:33:23 01:33:34:00 
*FROM CLIP NAME:  48K2/03 
*TO CLIP NAME:  48K3/04 
*PATCH 19Y08M22:  FROM SOURCE 7 TO RECORD 6 
*PATCH 19Y08M22:  FROM SOURCE 7 TO RECORD 6 
*SOURCE FILE: 19Y08M22
006925  19Y08M22                         A     C        14:03:38:15 14:03:45:24 01:33:34:00 01:33:41:09 
*FROM CLIP NAME:  48K3/04 
*SOURCE FILE: 19Y08M22
006926  19Y08M22                         A2    C        14:03:38:15 14:03:45:24 01:33:34:00 01:33:41:09 
*FROM CLIP NAME:  48K3/04 
*SOURCE FILE: 19Y08M22
006927  MSMMMOB.24                       A3    C        14:03:38:16 14:03:46:00 01:33:34:00 01:33:41:09 
*FROM CLIP NAME:  A098C004_190822_R32C 
*SOURCE FILE: MSMMMOB.24
006928  19Y08M22                         A4    C        14:03:38:15 14:03:45:24 01:33:34:00 01:33:41:09 
*FROM CLIP NAME:  48K3/04 
*SOURCE FILE: 19Y08M22
006929  MSMMMOB.24                       A5    C        14:03:38:16 14:03:46:00 01:33:34:00 01:33:41:09 
*FROM CLIP NAME:  A098C004_190822_R32C 
*SOURCE FILE: MSMMMOB.24
006930  19Y08M22                         A6    C        14:03:38:15 14:03:45:24 01:33:34:00 01:33:41:09 
*FROM CLIP NAME:  48K3/04 
*PATCH 19Y08M22:  FROM SOURCE 7 TO RECORD 6 
*SOURCE FILE: 19Y08M22
006931  19Y08M22                         A     C        14:03:45:24 14:03:45:24 01:33:41:09 01:33:41:09 
006931  19Y08M22                         A     D    002 13:38:29:10 13:38:29:12 01:33:41:09 01:33:41:11 
*FROM CLIP NAME:  48K3/04 
*TO CLIP NAME:  48K2/03 
*SOURCE FILE: 19Y08M22
006932  19Y08M22                         A2    C        14:03:45:24 14:03:45:24 01:33:41:09 01:33:41:09 
006932  19Y08M22                         A2    D    002 13:38:29:10 13:38:29:12 01:33:41:09 01:33:41:11 
*FROM CLIP NAME:  48K3/04 
*TO CLIP NAME:  48K2/03 
*SOURCE FILE: 19Y08M22
006933  MSMMMOB.24                       A3    C        14:03:46:00 14:03:46:00 01:33:41:09 01:33:41:09 
006933  MSMMMOB.33                       A3    D    002 13:38:29:11 13:38:29:13 01:33:41:09 01:33:41:11 
*FROM CLIP NAME:  A098C004_190822_R32C 
*TO CLIP NAME:  A097C011_190822_R32C 
*SOURCE FILE: MSMMMOB.24
006934  19Y08M22                         A4    C        14:03:45:24 14:03:45:24 01:33:41:09 01:33:41:09 
006934  19Y08M22                         A4    D    002 13:38:29:10 13:38:29:12 01:33:41:09 01:33:41:11 
*FROM CLIP NAME:  48K3/04 
*TO CLIP NAME:  48K2/03 
*SOURCE FILE: 19Y08M22
006935  MSMMMOB.24                       A5    C        14:03:46:00 14:03:46:00 01:33:41:09 01:33:41:09 
006935  MSMMMOB.33                       A5    D    002 13:38:29:11 13:38:29:13 01:33:41:09 01:33:41:11 
*FROM CLIP NAME:  A098C004_190822_R32C 
*TO CLIP NAME:  A097C011_190822_R32C 
*SOURCE FILE: MSMMMOB.24
006936  19Y08M22                         A6    C        14:03:45:24 14:03:45:24 01:33:41:09 01:33:41:09 
006936  19Y08M22                         A6    D    002 13:38:29:10 13:38:29:12 01:33:41:09 01:33:41:11 
*FROM CLIP NAME:  48K3/04 
*TO CLIP NAME:  48K2/03 
*PATCH 19Y08M22:  FROM SOURCE 7 TO RECORD 6 
*PATCH 19Y08M22:  FROM SOURCE 7 TO RECORD 6 
*SOURCE FILE: 19Y08M22
006937  MSMMMOB.33                       V     C        13:38:29:12 13:38:32:13 01:33:41:10 01:33:44:11 
M2      MSMMMOB.33                                025.0 13:38:29:12 
*FROM CLIP NAME:  A097C011_190822_R32C 
*SOURCE FILE: MSMMMOB.33
006938  19Y08M22                         A     C        13:38:29:12 13:38:32:14 01:33:41:11 01:33:44:13 
*FROM CLIP NAME:  48K2/03 
*SOURCE FILE: 19Y08M22
006939  19Y08M22                         A2    C        13:38:29:12 13:38:32:14 01:33:41:11 01:33:44:13 
*FROM CLIP NAME:  48K2/03 
*SOURCE FILE: 19Y08M22
006940  MSMMMOB.33                       A3    C        13:38:29:13 13:38:32:15 01:33:41:11 01:33:44:13 
*FROM CLIP NAME:  A097C011_190822_R32C 
*SOURCE FILE: MSMMMOB.33
006941  19Y08M22                         A4    C        13:38:29:12 13:38:32:14 01:33:41:11 01:33:44:13 
*FROM CLIP NAME:  48K2/03 
*SOURCE FILE: 19Y08M22
006942  MSMMMOB.33                       A5    C        13:38:29:13 13:38:32:15 01:33:41:11 01:33:44:13 
*FROM CLIP NAME:  A097C011_190822_R32C 
*SOURCE FILE: MSMMMOB.33
006943  19Y08M22                         A6    C        13:38:29:12 13:38:32:14 01:33:41:11 01:33:44:13 
*FROM CLIP NAME:  48K2/03 
*PATCH 19Y08M22:  FROM SOURCE 7 TO RECORD 6 
*SOURCE FILE: 19Y08M22
006944  MSMMMOB.24                       V     C        14:03:45:23 14:03:49:20 01:33:44:11 01:33:48:08 
M2      MSMMMOB.24                                025.0 14:03:45:23 
*FROM CLIP NAME:  A098C004_190822_R32C 
*SOURCE FILE: MSMMMOB.24
006945  19Y08M22                         A     C        13:38:32:14 13:38:32:14 01:33:44:13 01:33:44:13 
006945  19Y08M22                         A     D    002 14:03:45:24 14:03:46:01 01:33:44:13 01:33:44:15 
*FROM CLIP NAME:  48K2/03 
*TO CLIP NAME:  48K3/04 
*SOURCE FILE: 19Y08M22
006946  19Y08M22                         A2    C        13:38:32:14 13:38:32:14 01:33:44:13 01:33:44:13 
006946  19Y08M22                         A2    D    002 14:03:45:24 14:03:46:01 01:33:44:13 01:33:44:15 
*FROM CLIP NAME:  48K2/03 
*TO CLIP NAME:  48K3/04 
*SOURCE FILE: 19Y08M22
006947  MSMMMOB.33                       A3    C        13:38:32:15 13:38:32:15 01:33:44:13 01:33:44:13 
006947  MSMMMOB.24                       A3    D    002 14:03:46:00 14:03:46:02 01:33:44:13 01:33:44:15 
*FROM CLIP NAME:  A097C011_190822_R32C 
*TO CLIP NAME:  A098C004_190822_R32C 
*SOURCE FILE: MSMMMOB.33
006948  19Y08M22                         A4    C        13:38:32:14 13:38:32:14 01:33:44:13 01:33:44:13 
006948  19Y08M22                         A4    D    002 14:03:45:24 14:03:46:01 01:33:44:13 01:33:44:15 
*FROM CLIP NAME:  48K2/03 
*TO CLIP NAME:  48K3/04 
*SOURCE FILE: 19Y08M22
006949  MSMMMOB.33                       A5    C        13:38:32:15 13:38:32:15 01:33:44:13 01:33:44:13 
006949  MSMMMOB.24                       A5    D    002 14:03:46:00 14:03:46:02 01:33:44:13 01:33:44:15 
*FROM CLIP NAME:  A097C011_190822_R32C 
*TO CLIP NAME:  A098C004_190822_R32C 
*SOURCE FILE: MSMMMOB.33
006950  19Y08M22                         A6    C        13:38:32:14 13:38:32:14 01:33:44:13 01:33:44:13 
006950  19Y08M22                         A6    D    002 14:03:45:24 14:03:46:01 01:33:44:13 01:33:44:15 
*FROM CLIP NAME:  48K2/03 
*TO CLIP NAME:  48K3/04 
*PATCH 19Y08M22:  FROM SOURCE 7 TO RECORD 6 
*PATCH 19Y08M22:  FROM SOURCE 7 TO RECORD 6 
*SOURCE FILE: 19Y08M22
006951  19Y08M22                         A     C        14:03:46:01 14:03:46:22 01:33:44:15 01:33:45:11 
*FROM CLIP NAME:  48K3/04 
*SOURCE FILE: 19Y08M22
006952  19Y08M22                         A2    C        14:03:46:01 14:03:46:22 01:33:44:15 01:33:45:11 
*FROM CLIP NAME:  48K3/04 
*SOURCE FILE: 19Y08M22
006953  MSMMMOB.24                       A3    C        14:03:46:02 14:03:46:23 01:33:44:15 01:33:45:11 
*FROM CLIP NAME:  A098C004_190822_R32C 
*SOURCE FILE: MSMMMOB.24
006954  19Y08M22                         A4    C        14:03:46:01 14:03:46:22 01:33:44:15 01:33:45:11 
*FROM CLIP NAME:  48K3/04 
*SOURCE FILE: 19Y08M22
006955  MSMMMOB.24                       A5    C        14:03:46:02 14:03:46:23 01:33:44:15 01:33:45:11 
*FROM CLIP NAME:  A098C004_190822_R32C 
*SOURCE FILE: MSMMMOB.24
006956  19Y08M22                         A6    C        14:03:46:01 14:03:46:22 01:33:44:15 01:33:45:11 
*FROM CLIP NAME:  48K3/04 
*PATCH 19Y08M22:  FROM SOURCE 7 TO RECORD 6 
*SOURCE FILE: 19Y08M22
006957  19Y08M22                         A     C        14:03:46:22 14:03:46:22 01:33:45:11 01:33:45:11 
006957  19Y08M22                         A     D    002 14:03:56:04 14:03:56:06 01:33:45:11 01:33:45:13 
*FROM CLIP NAME:  48K3/04 
*TO CLIP NAME:  48K3/04 
*SOURCE FILE: 19Y08M22
006958  19Y08M22                         A2    C        14:03:46:22 14:03:46:22 01:33:45:11 01:33:45:11 
006958  19Y08M22                         A2    D    002 14:03:56:04 14:03:56:06 01:33:45:11 01:33:45:13 
*FROM CLIP NAME:  48K3/04 
*TO CLIP NAME:  48K3/04 
*SOURCE FILE: 19Y08M22
006959  MSMMMOB.24                       A3    C        14:03:46:23 14:03:46:23 01:33:45:11 01:33:45:11 
006959  MSMMMOB.24                       A3    D    002 14:03:56:05 14:03:56:07 01:33:45:11 01:33:45:13 
*FROM CLIP NAME:  A098C004_190822_R32C 
*TO CLIP NAME:  A098C004_190822_R32C 
*SOURCE FILE: MSMMMOB.24
006960  19Y08M22                         A4    C        14:03:46:22 14:03:46:22 01:33:45:11 01:33:45:11 
006960  19Y08M22                         A4    D    002 14:03:56:04 14:03:56:06 01:33:45:11 01:33:45:13 
*FROM CLIP NAME:  48K3/04 
*TO CLIP NAME:  48K3/04 
*SOURCE FILE: 19Y08M22
006961  MSMMMOB.24                       A5    C        14:03:46:23 14:03:46:23 01:33:45:11 01:33:45:11 
006961  MSMMMOB.24                       A5    D    002 14:03:56:05 14:03:56:07 01:33:45:11 01:33:45:13 
*FROM CLIP NAME:  A098C004_190822_R32C 
*TO CLIP NAME:  A098C004_190822_R32C 
*SOURCE FILE: MSMMMOB.24
006962  19Y08M22                         A6    C        14:03:46:22 14:03:46:22 01:33:45:11 01:33:45:11 
006962  19Y08M22                         A6    D    002 14:03:56:04 14:03:56:06 01:33:45:11 01:33:45:13 
*FROM CLIP NAME:  48K3/04 
*TO CLIP NAME:  48K3/04 
*PATCH 19Y08M22:  FROM SOURCE 7 TO RECORD 6 
*PATCH 19Y08M22:  FROM SOURCE 7 TO RECORD 6 
*SOURCE FILE: 19Y08M22
006963  19Y08M22                         A     C        14:03:56:06 14:03:56:16 01:33:45:13 01:33:45:23 
*FROM CLIP NAME:  48K3/04 
*SOURCE FILE: 19Y08M22
006964  19Y08M22                         A2    C        14:03:56:06 14:03:56:16 01:33:45:13 01:33:45:23 
*FROM CLIP NAME:  48K3/04 
*SOURCE FILE: 19Y08M22
006965  MSMMMOB.24                       A3    C        14:03:56:07 14:03:56:17 01:33:45:13 01:33:45:23 
*FROM CLIP NAME:  A098C004_190822_R32C 
*SOURCE FILE: MSMMMOB.24
006966  19Y08M22                         A4    C        14:03:56:06 14:03:56:16 01:33:45:13 01:33:45:23 
*FROM CLIP NAME:  48K3/04 
*SOURCE FILE: 19Y08M22
006967  MSMMMOB.24                       A5    C        14:03:56:07 14:03:56:17 01:33:45:13 01:33:45:23 
*FROM CLIP NAME:  A098C004_190822_R32C 
*SOURCE FILE: MSMMMOB.24
006968  19Y08M22                         A6    C        14:03:56:06 14:03:56:16 01:33:45:13 01:33:45:23 
*FROM CLIP NAME:  48K3/04 
*PATCH 19Y08M22:  FROM SOURCE 7 TO RECORD 6 
*SOURCE FILE: 19Y08M22
006969  19Y08M22                         A     C        14:03:56:16 14:03:56:16 01:33:45:23 01:33:45:23 
006969  19Y08M22                         A     D    002 14:03:47:09 14:03:47:11 01:33:45:23 01:33:46:00 
*FROM CLIP NAME:  48K3/04 
*TO CLIP NAME:  48K3/04 
*SOURCE FILE: 19Y08M22
006970  19Y08M22                         A2    C        14:03:56:16 14:03:56:16 01:33:45:23 01:33:45:23 
006970  19Y08M22                         A2    D    002 14:03:47:09 14:03:47:11 01:33:45:23 01:33:46:00 
*FROM CLIP NAME:  48K3/04 
*TO CLIP NAME:  48K3/04 
*SOURCE FILE: 19Y08M22
006971  MSMMMOB.24                       A3    C        14:03:56:17 14:03:56:17 01:33:45:23 01:33:45:23 
006971  MSMMMOB.24                       A3    D    002 14:03:47:10 14:03:47:12 01:33:45:23 01:33:46:00 
*FROM CLIP NAME:  A098C004_190822_R32C 
*TO CLIP NAME:  A098C004_190822_R32C 
*SOURCE FILE: MSMMMOB.24
006972  19Y08M22                         A4    C        14:03:56:16 14:03:56:16 01:33:45:23 01:33:45:23 
006972  19Y08M22                         A4    D    002 14:03:47:09 14:03:47:11 01:33:45:23 01:33:46:00 
*FROM CLIP NAME:  48K3/04 
*TO CLIP NAME:  48K3/04 
*SOURCE FILE: 19Y08M22
006973  MSMMMOB.24                       A5    C        14:03:56:17 14:03:56:17 01:33:45:23 01:33:45:23 
006973  MSMMMOB.24                       A5    D    002 14:03:47:10 14:03:47:12 01:33:45:23 01:33:46:00 
*FROM CLIP NAME:  A098C004_190822_R32C 
*TO CLIP NAME:  A098C004_190822_R32C 
*SOURCE FILE: MSMMMOB.24
006974  19Y08M22                         A6    C        14:03:56:16 14:03:56:16 01:33:45:23 01:33:45:23 
006974  19Y08M22                         A6    D    002 14:03:47:09 14:03:47:11 01:33:45:23 01:33:46:00 
*FROM CLIP NAME:  48K3/04 
*TO CLIP NAME:  48K3/04 
*PATCH 19Y08M22:  FROM SOURCE 7 TO RECORD 6 
*PATCH 19Y08M22:  FROM SOURCE 7 TO RECORD 6 
*SOURCE FILE: 19Y08M22
006975  19Y08M22                         A     C        14:03:47:11 14:03:48:18 01:33:46:00 01:33:47:07 
*FROM CLIP NAME:  48K3/04 
*SOURCE FILE: 19Y08M22
006976  19Y08M22                         A2    C        14:03:47:11 14:03:48:18 01:33:46:00 01:33:47:07 
*FROM CLIP NAME:  48K3/04 
*SOURCE FILE: 19Y08M22
006977  MSMMMOB.24                       A3    C        14:03:47:12 14:03:48:19 01:33:46:00 01:33:47:07 
*FROM CLIP NAME:  A098C004_190822_R32C 
*SOURCE FILE: MSMMMOB.24
006978  19Y08M22                         A4    C        14:03:47:11 14:03:48:18 01:33:46:00 01:33:47:07 
*FROM CLIP NAME:  48K3/04 
*SOURCE FILE: 19Y08M22
006979  MSMMMOB.24                       A5    C        14:03:47:12 14:03:48:19 01:33:46:00 01:33:47:07 
*FROM CLIP NAME:  A098C004_190822_R32C 
*SOURCE FILE: MSMMMOB.24
006980  19Y08M22                         A6    C        14:03:47:11 14:03:48:18 01:33:46:00 01:33:47:07 
*FROM CLIP NAME:  48K3/04 
*PATCH 19Y08M22:  FROM SOURCE 7 TO RECORD 6 
*SOURCE FILE: 19Y08M22
006981  19Y08M22                         A     C        14:03:48:18 14:03:48:18 01:33:47:07 01:33:47:07 
006981  19Y08M22                         A     D    002 14:03:48:18 14:03:48:20 01:33:47:07 01:33:47:09 
*FROM CLIP NAME:  48K3/04 
*TO CLIP NAME:  48K3/04 
*SOURCE FILE: 19Y08M22
006982  19Y08M22                         A2    C        14:03:48:18 14:03:48:18 01:33:47:07 01:33:47:07 
006982  19Y08M22                         A2    D    002 14:03:48:18 14:03:48:20 01:33:47:07 01:33:47:09 
*FROM CLIP NAME:  48K3/04 
*TO CLIP NAME:  48K3/04 
*SOURCE FILE: 19Y08M22
006983  MSMMMOB.24                       A3    C        14:03:48:19 14:03:48:19 01:33:47:07 01:33:47:07 
006983  MSMMMOB.24                       A3    D    002 14:03:48:19 14:03:48:21 01:33:47:07 01:33:47:09 
*FROM CLIP NAME:  A098C004_190822_R32C 
*TO CLIP NAME:  A098C004_190822_R32C 
*SOURCE FILE: MSMMMOB.24
006984  19Y08M22                         A4    C        14:03:48:18 14:03:48:18 01:33:47:07 01:33:47:07 
006984  19Y08M22                         A4    D    002 14:03:48:18 14:03:48:20 01:33:47:07 01:33:47:09 
*FROM CLIP NAME:  48K3/04 
*TO CLIP NAME:  48K3/04 
*SOURCE FILE: 19Y08M22
006985  MSMMMOB.24                       A5    C        14:03:48:19 14:03:48:19 01:33:47:07 01:33:47:07 
006985  MSMMMOB.24                       A5    D    002 14:03:48:19 14:03:48:21 01:33:47:07 01:33:47:09 
*FROM CLIP NAME:  A098C004_190822_R32C 
*TO CLIP NAME:  A098C004_190822_R32C 
*SOURCE FILE: MSMMMOB.24
006986  19Y08M22                         A6    C        14:03:48:18 14:03:48:18 01:33:47:07 01:33:47:07 
006986  19Y08M22                         A6    D    002 14:03:48:18 14:03:48:20 01:33:47:07 01:33:47:09 
*FROM CLIP NAME:  48K3/04 
*TO CLIP NAME:  48K3/04 
*PATCH 19Y08M22:  FROM SOURCE 7 TO RECORD 6 
*PATCH 19Y08M22:  FROM SOURCE 7 TO RECORD 6 
*SOURCE FILE: 19Y08M22
006987  19Y08M22                         A     C        14:03:48:20 14:03:50:03 01:33:47:09 01:33:48:17 
*FROM CLIP NAME:  48K3/04 
*SOURCE FILE: 19Y08M22
006988  19Y08M22                         A2    C        14:03:48:20 14:03:50:03 01:33:47:09 01:33:48:17 
*FROM CLIP NAME:  48K3/04 
*SOURCE FILE: 19Y08M22
006989  MSMMMOB.24                       A3    C        14:03:48:21 14:03:50:04 01:33:47:09 01:33:48:17 
*FROM CLIP NAME:  A098C004_190822_R32C 
*SOURCE FILE: MSMMMOB.24
006990  19Y08M22                         A4    C        14:03:48:20 14:03:50:03 01:33:47:09 01:33:48:17 
*FROM CLIP NAME:  48K3/04 
*SOURCE FILE: 19Y08M22
006991  MSMMMOB.24                       A5    C        14:03:48:21 14:03:50:04 01:33:47:09 01:33:48:17 
*FROM CLIP NAME:  A098C004_190822_R32C 
*SOURCE FILE: MSMMMOB.24
006992  19Y08M22                         A6    C        14:03:48:20 14:03:50:03 01:33:47:09 01:33:48:17 
*FROM CLIP NAME:  48K3/04 
*PATCH 19Y08M22:  FROM SOURCE 7 TO RECORD 6 
*SOURCE FILE: 19Y08M22
006993  MSMMMOB.33                       V     C        13:38:34:14 13:38:41:15 01:33:48:08 01:33:55:09 
M2      MSMMMOB.33                                025.0 13:38:34:14 
*FROM CLIP NAME:  A097C011_190822_R32C 
*SOURCE FILE: MSMMMOB.33
006994  19Y08M22                         A     C        14:03:50:03 14:03:50:03 01:33:48:17 01:33:48:17 
006994  19Y08M22                         A     D    002 13:38:34:22 13:38:34:24 01:33:48:17 01:33:48:19 
*FROM CLIP NAME:  48K3/04 
*TO CLIP NAME:  48K2/03 
*SOURCE FILE: 19Y08M22
006995  19Y08M22                         A2    C        14:03:50:03 14:03:50:03 01:33:48:17 01:33:48:17 
006995  19Y08M22                         A2    D    002 13:38:34:22 13:38:34:24 01:33:48:17 01:33:48:19 
*FROM CLIP NAME:  48K3/04 
*TO CLIP NAME:  48K2/03 
*SOURCE FILE: 19Y08M22
006996  MSMMMOB.24                       A3    C        14:03:50:04 14:03:50:04 01:33:48:17 01:33:48:17 
006996  MSMMMOB.33                       A3    D    002 13:38:34:23 13:38:35:00 01:33:48:17 01:33:48:19 
*FROM CLIP NAME:  A098C004_190822_R32C 
*TO CLIP NAME:  A097C011_190822_R32C 
*SOURCE FILE: MSMMMOB.24
006997  19Y08M22                         A4    C        14:03:50:03 14:03:50:03 01:33:48:17 01:33:48:17 
006997  19Y08M22                         A4    D    002 13:38:34:22 13:38:34:24 01:33:48:17 01:33:48:19 
*FROM CLIP NAME:  48K3/04 
*TO CLIP NAME:  48K2/03 
*SOURCE FILE: 19Y08M22
006998  MSMMMOB.24                       A5    C        14:03:50:04 14:03:50:04 01:33:48:17 01:33:48:17 
006998  MSMMMOB.33                       A5    D    002 13:38:34:23 13:38:35:00 01:33:48:17 01:33:48:19 
*FROM CLIP NAME:  A098C004_190822_R32C 
*TO CLIP NAME:  A097C011_190822_R32C 
*SOURCE FILE: MSMMMOB.24
006999  19Y08M22                         A6    C        14:03:50:03 14:03:50:03 01:33:48:17 01:33:48:17 
006999  19Y08M22                         A6    D    002 13:38:34:22 13:38:34:24 01:33:48:17 01:33:48:19 
*FROM CLIP NAME:  48K3/04 
*TO CLIP NAME:  48K2/03 
*PATCH 19Y08M22:  FROM SOURCE 7 TO RECORD 6 
*PATCH 19Y08M22:  FROM SOURCE 7 TO RECORD 6 
*SOURCE FILE: 19Y08M22
007000  19Y08M22                         A     C        13:38:34:24 13:38:41:15 01:33:48:19 01:33:55:10 
*FROM CLIP NAME:  48K2/03 
*SOURCE FILE: 19Y08M22
007001  19Y08M22                         A2    C        13:38:34:24 13:38:41:15 01:33:48:19 01:33:55:10 
*FROM CLIP NAME:  48K2/03 
*SOURCE FILE: 19Y08M22
007002  MSMMMOB.33                       A3    C        13:38:35:00 13:38:41:16 01:33:48:19 01:33:55:10 
*FROM CLIP NAME:  A097C011_190822_R32C 
*SOURCE FILE: MSMMMOB.33
007003  19Y08M22                         A4    C        13:38:34:24 13:38:41:15 01:33:48:19 01:33:55:10 
*FROM CLIP NAME:  48K2/03 
*SOURCE FILE: 19Y08M22
007004  MSMMMOB.33                       A5    C        13:38:35:00 13:38:41:16 01:33:48:19 01:33:55:10 
*FROM CLIP NAME:  A097C011_190822_R32C 
*SOURCE FILE: MSMMMOB.33
007005  19Y08M22                         A6    C        13:38:34:24 13:38:41:15 01:33:48:19 01:33:55:10 
*FROM CLIP NAME:  48K2/03 
*PATCH 19Y08M22:  FROM SOURCE 7 TO RECORD 6 
*SOURCE FILE: 19Y08M22
007006  MSMMMOB.24                       V     C        14:03:57:06 14:03:58:22 01:33:55:09 01:33:57:00 
M2      MSMMMOB.24                                025.0 14:03:57:06 
*FROM CLIP NAME:  A098C004_190822_R32C 
*SOURCE FILE: MSMMMOB.24
007007  19Y08M22                         A     C        13:38:41:15 13:38:41:15 01:33:55:10 01:33:55:10 
007007  19Y08M22                         A     D    002 14:03:57:06 14:03:57:08 01:33:55:10 01:33:55:12 
*FROM CLIP NAME:  48K2/03 
*TO CLIP NAME:  48K3/04 
*SOURCE FILE: 19Y08M22
007008  19Y08M22                         A2    C        13:38:41:15 13:38:41:15 01:33:55:10 01:33:55:10 
007008  19Y08M22                         A2    D    002 14:03:57:06 14:03:57:08 01:33:55:10 01:33:55:12 
*FROM CLIP NAME:  48K2/03 
*TO CLIP NAME:  48K3/04 
*SOURCE FILE: 19Y08M22
007009  MSMMMOB.33                       A3    C        13:38:41:16 13:38:41:16 01:33:55:10 01:33:55:10 
007009  MSMMMOB.24                       A3    D    002 14:03:57:07 14:03:57:09 01:33:55:10 01:33:55:12 
*FROM CLIP NAME:  A097C011_190822_R32C 
*TO CLIP NAME:  A098C004_190822_R32C 
*SOURCE FILE: MSMMMOB.33
007010  19Y08M22                         A4    C        13:38:41:15 13:38:41:15 01:33:55:10 01:33:55:10 
007010  19Y08M22                         A4    D    002 14:03:57:06 14:03:57:08 01:33:55:10 01:33:55:12 
*FROM CLIP NAME:  48K2/03 
*TO CLIP NAME:  48K3/04 
*SOURCE FILE: 19Y08M22
007011  MSMMMOB.33                       A5    C        13:38:41:16 13:38:41:16 01:33:55:10 01:33:55:10 
007011  MSMMMOB.24                       A5    D    002 14:03:57:07 14:03:57:09 01:33:55:10 01:33:55:12 
*FROM CLIP NAME:  A097C011_190822_R32C 
*TO CLIP NAME:  A098C004_190822_R32C 
*SOURCE FILE: MSMMMOB.33
007012  19Y08M22                         A6    C        13:38:41:15 13:38:41:15 01:33:55:10 01:33:55:10 
007012  19Y08M22                         A6    D    002 14:03:57:06 14:03:57:08 01:33:55:10 01:33:55:12 
*FROM CLIP NAME:  48K2/03 
*TO CLIP NAME:  48K3/04 
*PATCH 19Y08M22:  FROM SOURCE 7 TO RECORD 6 
*PATCH 19Y08M22:  FROM SOURCE 7 TO RECORD 6 
*SOURCE FILE: 19Y08M22
007013  19Y08M22                         A     C        14:03:57:08 14:03:58:22 01:33:55:12 01:33:57:01 
*FROM CLIP NAME:  48K3/04 
*SOURCE FILE: 19Y08M22
007014  19Y08M22                         A2    C        14:03:57:08 14:03:58:22 01:33:55:12 01:33:57:01 
*FROM CLIP NAME:  48K3/04 
*SOURCE FILE: 19Y08M22
007015  MSMMMOB.24                       A3    C        14:03:57:09 14:03:58:23 01:33:55:12 01:33:57:01 
*FROM CLIP NAME:  A098C004_190822_R32C 
*SOURCE FILE: MSMMMOB.24
007016  19Y08M22                         A4    C        14:03:57:08 14:03:58:22 01:33:55:12 01:33:57:01 
*FROM CLIP NAME:  48K3/04 
*SOURCE FILE: 19Y08M22
007017  MSMMMOB.24                       A5    C        14:03:57:09 14:03:58:23 01:33:55:12 01:33:57:01 
*FROM CLIP NAME:  A098C004_190822_R32C 
*SOURCE FILE: MSMMMOB.24
007018  19Y08M22                         A6    C        14:03:57:08 14:03:58:22 01:33:55:12 01:33:57:01 
*FROM CLIP NAME:  48K3/04 
*PATCH 19Y08M22:  FROM SOURCE 7 TO RECORD 6 
*SOURCE FILE: 19Y08M22
007019  MSMMMOB.33                       V     C        13:38:46:17 13:38:50:07 01:33:57:00 01:34:00:15 
M2      MSMMMOB.33                                025.0 13:38:46:17 
*FROM CLIP NAME:  A097C011_190822_R32C 
*SOURCE FILE: MSMMMOB.33
007020  19Y08M22                         A     C        14:03:58:22 14:03:58:22 01:33:57:01 01:33:57:01 
007020  19Y08M22                         A     D    002 13:38:46:17 13:38:46:19 01:33:57:01 01:33:57:03 
*FROM CLIP NAME:  48K3/04 
*TO CLIP NAME:  48K2/03 
*SOURCE FILE: 19Y08M22
007021  19Y08M22                         A2    C        14:03:58:22 14:03:58:22 01:33:57:01 01:33:57:01 
007021  19Y08M22                         A2    D    002 13:38:46:17 13:38:46:19 01:33:57:01 01:33:57:03 
*FROM CLIP NAME:  48K3/04 
*TO CLIP NAME:  48K2/03 
*SOURCE FILE: 19Y08M22
007022  MSMMMOB.24                       A3    C        14:03:58:23 14:03:58:23 01:33:57:01 01:33:57:01 
007022  MSMMMOB.33                       A3    D    002 13:38:46:18 13:38:46:20 01:33:57:01 01:33:57:03 
*FROM CLIP NAME:  A098C004_190822_R32C 
*TO CLIP NAME:  A097C011_190822_R32C 
*SOURCE FILE: MSMMMOB.24
007023  19Y08M22                         A4    C        14:03:58:22 14:03:58:22 01:33:57:01 01:33:57:01 
007023  19Y08M22                         A4    D    002 13:38:46:17 13:38:46:19 01:33:57:01 01:33:57:03 
*FROM CLIP NAME:  48K3/04 
*TO CLIP NAME:  48K2/03 
*SOURCE FILE: 19Y08M22
007024  MSMMMOB.24                       A5    C        14:03:58:23 14:03:58:23 01:33:57:01 01:33:57:01 
007024  MSMMMOB.33                       A5    D    002 13:38:46:18 13:38:46:20 01:33:57:01 01:33:57:03 
*FROM CLIP NAME:  A098C004_190822_R32C 
*TO CLIP NAME:  A097C011_190822_R32C 
*SOURCE FILE: MSMMMOB.24
007025  19Y08M22                         A6    C        14:03:58:22 14:03:58:22 01:33:57:01 01:33:57:01 
007025  19Y08M22                         A6    D    002 13:38:46:17 13:38:46:19 01:33:57:01 01:33:57:03 
*FROM CLIP NAME:  48K3/04 
*TO CLIP NAME:  48K2/03 
*PATCH 19Y08M22:  FROM SOURCE 7 TO RECORD 6 
*PATCH 19Y08M22:  FROM SOURCE 7 TO RECORD 6 
*SOURCE FILE: 19Y08M22
007026  19Y08M22                         A     C        13:38:46:19 13:38:50:05 01:33:57:03 01:34:00:14 
*FROM CLIP NAME:  48K2/03 
*SOURCE FILE: 19Y08M22
007027  19Y08M22                         A2    C        13:38:46:19 13:38:50:05 01:33:57:03 01:34:00:14 
*FROM CLIP NAME:  48K2/03 
*SOURCE FILE: 19Y08M22
007028  MSMMMOB.33                       A3    C        13:38:46:20 13:38:50:06 01:33:57:03 01:34:00:14 
*FROM CLIP NAME:  A097C011_190822_R32C 
*SOURCE FILE: MSMMMOB.33
007029  19Y08M22                         A4    C        13:38:46:19 13:38:50:05 01:33:57:03 01:34:00:14 
*FROM CLIP NAME:  48K2/03 
*SOURCE FILE: 19Y08M22
007030  MSMMMOB.33                       A5    C        13:38:46:20 13:38:50:06 01:33:57:03 01:34:00:14 
*FROM CLIP NAME:  A097C011_190822_R32C 
*SOURCE FILE: MSMMMOB.33
007031  19Y08M22                         A6    C        13:38:46:19 13:38:50:05 01:33:57:03 01:34:00:14 
*FROM CLIP NAME:  48K2/03 
*PATCH 19Y08M22:  FROM SOURCE 7 TO RECORD 6 
*SOURCE FILE: 19Y08M22
007032  19Y08M22                         A     C        13:38:50:05 13:38:50:05 01:34:00:14 01:34:00:14 
007032  19Y08M22                         A     D    002 14:04:00:14 14:04:00:16 01:34:00:14 01:34:00:16 
*FROM CLIP NAME:  48K2/03 
*TO CLIP NAME:  48K3/04 
*SOURCE FILE: 19Y08M22
007033  19Y08M22                         A2    C        13:38:50:05 13:38:50:05 01:34:00:14 01:34:00:14 
007033  19Y08M22                         A2    D    002 14:04:00:14 14:04:00:16 01:34:00:14 01:34:00:16 
*FROM CLIP NAME:  48K2/03 
*TO CLIP NAME:  48K3/04 
*SOURCE FILE: 19Y08M22
007034  MSMMMOB.33                       A3    C        13:38:50:06 13:38:50:06 01:34:00:14 01:34:00:14 
007034  MSMMMOB.24                       A3    D    002 14:04:00:15 14:04:00:17 01:34:00:14 01:34:00:16 
*FROM CLIP NAME:  A097C011_190822_R32C 
*TO CLIP NAME:  A098C004_190822_R32C 
*SOURCE FILE: MSMMMOB.33
007035  19Y08M22                         A4    C        13:38:50:05 13:38:50:05 01:34:00:14 01:34:00:14 
007035  19Y08M22                         A4    D    002 14:04:00:14 14:04:00:16 01:34:00:14 01:34:00:16 
*FROM CLIP NAME:  48K2/03 
*TO CLIP NAME:  48K3/04 
*SOURCE FILE: 19Y08M22
007036  MSMMMOB.33                       A5    C        13:38:50:06 13:38:50:06 01:34:00:14 01:34:00:14 
007036  MSMMMOB.24                       A5    D    002 14:04:00:15 14:04:00:17 01:34:00:14 01:34:00:16 
*FROM CLIP NAME:  A097C011_190822_R32C 
*TO CLIP NAME:  A098C004_190822_R32C 
*SOURCE FILE: MSMMMOB.33
007037  19Y08M22                         A6    C        13:38:50:05 13:38:50:05 01:34:00:14 01:34:00:14 
007037  19Y08M22                         A6    D    002 14:04:00:14 14:04:00:16 01:34:00:14 01:34:00:16 
*FROM CLIP NAME:  48K2/03 
*TO CLIP NAME:  48K3/04 
*PATCH 19Y08M22:  FROM SOURCE 7 TO RECORD 6 
*PATCH 19Y08M22:  FROM SOURCE 7 TO RECORD 6 
*SOURCE FILE: 19Y08M22
007038  MSMMMOB.24                       V     C        14:04:00:16 14:04:04:03 01:34:00:15 01:34:04:02 
M2      MSMMMOB.24                                025.0 14:04:00:16 
*FROM CLIP NAME:  A098C004_190822_R32C 
*SOURCE FILE: MSMMMOB.24
007039  19Y08M22                         A     C        14:04:00:16 14:04:04:01 01:34:00:16 01:34:04:01 
*FROM CLIP NAME:  48K3/04 
*SOURCE FILE: 19Y08M22
007040  19Y08M22                         A2    C        14:04:00:16 14:04:04:01 01:34:00:16 01:34:04:01 
*FROM CLIP NAME:  48K3/04 
*SOURCE FILE: 19Y08M22
007041  MSMMMOB.24                       A3    C        14:04:00:17 14:04:04:02 01:34:00:16 01:34:04:01 
*FROM CLIP NAME:  A098C004_190822_R32C 
*SOURCE FILE: MSMMMOB.24
007042  19Y08M22                         A4    C        14:04:00:16 14:04:04:01 01:34:00:16 01:34:04:01 
*FROM CLIP NAME:  48K3/04 
*SOURCE FILE: 19Y08M22
007043  MSMMMOB.24                       A5    C        14:04:00:17 14:04:04:02 01:34:00:16 01:34:04:01 
*FROM CLIP NAME:  A098C004_190822_R32C 
*SOURCE FILE: MSMMMOB.24
007044  19Y08M22                         A6    C        14:04:00:16 14:04:04:01 01:34:00:16 01:34:04:01 
*FROM CLIP NAME:  48K3/04 
*PATCH 19Y08M22:  FROM SOURCE 7 TO RECORD 6 
*SOURCE FILE: 19Y08M22
007045  19Y08M22                         A     C        14:04:04:01 14:04:04:01 01:34:04:01 01:34:04:01 
007045  19Y08M22                         A     D    002 13:38:50:08 13:38:50:10 01:34:04:01 01:34:04:03 
*FROM CLIP NAME:  48K3/04 
*TO CLIP NAME:  48K2/03 
*SOURCE FILE: 19Y08M22
007046  19Y08M22                         A2    C        14:04:04:01 14:04:04:01 01:34:04:01 01:34:04:01 
007046  19Y08M22                         A2    D    002 13:38:50:08 13:38:50:10 01:34:04:01 01:34:04:03 
*FROM CLIP NAME:  48K3/04 
*TO CLIP NAME:  48K2/03 
*SOURCE FILE: 19Y08M22
007047  MSMMMOB.24                       A3    C        14:04:04:02 14:04:04:02 01:34:04:01 01:34:04:01 
007047  MSMMMOB.33                       A3    D    002 13:38:50:09 13:38:50:11 01:34:04:01 01:34:04:03 
*FROM CLIP NAME:  A098C004_190822_R32C 
*TO CLIP NAME:  A097C011_190822_R32C 
*SOURCE FILE: MSMMMOB.24
007048  19Y08M22                         A4    C        14:04:04:01 14:04:04:01 01:34:04:01 01:34:04:01 
007048  19Y08M22                         A4    D    002 13:38:50:08 13:38:50:10 01:34:04:01 01:34:04:03 
*FROM CLIP NAME:  48K3/04 
*TO CLIP NAME:  48K2/03 
*SOURCE FILE: 19Y08M22
007049  MSMMMOB.24                       A5    C        14:04:04:02 14:04:04:02 01:34:04:01 01:34:04:01 
007049  MSMMMOB.33                       A5    D    002 13:38:50:09 13:38:50:11 01:34:04:01 01:34:04:03 
*FROM CLIP NAME:  A098C004_190822_R32C 
*TO CLIP NAME:  A097C011_190822_R32C 
*SOURCE FILE: MSMMMOB.24
007050  19Y08M22                         A6    C        14:04:04:01 14:04:04:01 01:34:04:01 01:34:04:01 
007050  19Y08M22                         A6    D    002 13:38:50:08 13:38:50:10 01:34:04:01 01:34:04:03 
*FROM CLIP NAME:  48K3/04 
*TO CLIP NAME:  48K2/03 
*PATCH 19Y08M22:  FROM SOURCE 7 TO RECORD 6 
*PATCH 19Y08M22:  FROM SOURCE 7 TO RECORD 6 
*SOURCE FILE: 19Y08M22
007051  MSMMMOB.33                       V     C        13:38:50:10 13:38:52:05 01:34:04:02 01:34:05:22 
M2      MSMMMOB.33                                025.0 13:38:50:10 
*FROM CLIP NAME:  A097C011_190822_R32C 
*SOURCE FILE: MSMMMOB.33
007052  19Y08M22                         A     C        13:38:50:10 13:38:52:08 01:34:04:03 01:34:06:01 
*FROM CLIP NAME:  48K2/03 
*SOURCE FILE: 19Y08M22
007053  19Y08M22                         A2    C        13:38:50:10 13:38:52:08 01:34:04:03 01:34:06:01 
*FROM CLIP NAME:  48K2/03 
*SOURCE FILE: 19Y08M22
007054  MSMMMOB.33                       A3    C        13:38:50:11 13:38:52:09 01:34:04:03 01:34:06:01 
*FROM CLIP NAME:  A097C011_190822_R32C 
*SOURCE FILE: MSMMMOB.33
007055  19Y08M22                         A4    C        13:38:50:10 13:38:52:08 01:34:04:03 01:34:06:01 
*FROM CLIP NAME:  48K2/03 
*SOURCE FILE: 19Y08M22
007056  MSMMMOB.33                       A5    C        13:38:50:11 13:38:52:09 01:34:04:03 01:34:06:01 
*FROM CLIP NAME:  A097C011_190822_R32C 
*SOURCE FILE: MSMMMOB.33
007057  19Y08M22                         A6    C        13:38:50:10 13:38:52:08 01:34:04:03 01:34:06:01 
*FROM CLIP NAME:  48K2/03 
*PATCH 19Y08M22:  FROM SOURCE 7 TO RECORD 6 
*SOURCE FILE: 19Y08M22
007058  MSMMMOB.87                       V     C        13:22:17:14 13:22:26:01 01:34:05:22 01:34:14:09 
M2      MSMMMOB.87                                025.0 13:22:17:14 
*FROM CLIP NAME:  A097C008_190822_R32C 
*SOURCE FILE: MSMMMOB.87
007059  19Y08M22                         A     C        13:38:52:08 13:38:52:08 01:34:06:01 01:34:06:01 
007059  19Y08M22                         A     D    002 13:22:17:17 13:22:17:19 01:34:06:01 01:34:06:03 
*FROM CLIP NAME:  48K2/03 
*TO CLIP NAME:  48K1/03 
*SOURCE FILE: 19Y08M22
007060  19Y08M22                         A2    C        13:38:52:08 13:38:52:08 01:34:06:01 01:34:06:01 
007060  19Y08M22                         A2    D    002 13:22:17:17 13:22:17:19 01:34:06:01 01:34:06:03 
*FROM CLIP NAME:  48K2/03 
*TO CLIP NAME:  48K1/03 
*SOURCE FILE: 19Y08M22
007061  MSMMMOB.33                       A3    C        13:38:52:09 13:38:52:09 01:34:06:01 01:34:06:01 
007061  MSMMMOB.87                       A3    D    002 13:22:17:18 13:22:17:20 01:34:06:01 01:34:06:03 
*FROM CLIP NAME:  A097C011_190822_R32C 
*TO CLIP NAME:  A097C008_190822_R32C 
*SOURCE FILE: MSMMMOB.33
007062  19Y08M22                         A4    C        13:38:52:08 13:38:52:08 01:34:06:01 01:34:06:01 
007062  19Y08M22                         A4    D    002 13:22:17:17 13:22:17:19 01:34:06:01 01:34:06:03 
*FROM CLIP NAME:  48K2/03 
*TO CLIP NAME:  48K1/03 
*SOURCE FILE: 19Y08M22
007063  MSMMMOB.33                       A5    C        13:38:52:09 13:38:52:09 01:34:06:01 01:34:06:01 
007063  MSMMMOB.87                       A5    D    002 13:22:17:18 13:22:17:20 01:34:06:01 01:34:06:03 
*FROM CLIP NAME:  A097C011_190822_R32C 
*TO CLIP NAME:  A097C008_190822_R32C 
*SOURCE FILE: MSMMMOB.33
007064  19Y08M22                         A6    C        13:38:52:08 13:38:52:08 01:34:06:01 01:34:06:01 
007064  19Y08M22                         A6    D    002 13:22:17:17 13:22:17:19 01:34:06:01 01:34:06:03 
*FROM CLIP NAME:  48K2/03 
*TO CLIP NAME:  48K1/03 
*PATCH 19Y08M22:  FROM SOURCE 7 TO RECORD 6 
*PATCH 19Y08M22:  FROM SOURCE 7 TO RECORD 6 
*SOURCE FILE: 19Y08M22
007065  19Y08M22                         A     C        13:22:17:19 13:22:18:20 01:34:06:03 01:34:07:04 
*FROM CLIP NAME:  48K1/03 
*SOURCE FILE: 19Y08M22
007066  19Y08M22                         A2    C        13:22:17:19 13:22:18:20 01:34:06:03 01:34:07:04 
*FROM CLIP NAME:  48K1/03 
*SOURCE FILE: 19Y08M22
007067  MSMMMOB.87                       A3    C        13:22:17:20 13:22:18:21 01:34:06:03 01:34:07:04 
*FROM CLIP NAME:  A097C008_190822_R32C 
*SOURCE FILE: MSMMMOB.87
007068  19Y08M22                         A4    C        13:22:17:19 13:22:18:20 01:34:06:03 01:34:07:04 
*FROM CLIP NAME:  48K1/03 
*SOURCE FILE: 19Y08M22
007069  MSMMMOB.87                       A5    C        13:22:17:20 13:22:18:21 01:34:06:03 01:34:07:04 
*FROM CLIP NAME:  A097C008_190822_R32C 
*SOURCE FILE: MSMMMOB.87
007070  19Y08M22                         A6    C        13:22:17:19 13:22:18:20 01:34:06:03 01:34:07:04 
*FROM CLIP NAME:  48K1/03 
*PATCH 19Y08M22:  FROM SOURCE 7 TO RECORD 6 
*SOURCE FILE: 19Y08M22
007071  19Y08M22                         A     C        13:22:18:20 13:22:18:20 01:34:07:04 01:34:07:04 
007071  19Y08M22                         A     D    002 13:22:18:20 13:22:18:22 01:34:07:04 01:34:07:06 
*FROM CLIP NAME:  48K1/03 
*TO CLIP NAME:  48K1/03 
*SOURCE FILE: 19Y08M22
007072  19Y08M22                         A2    C        13:22:18:20 13:22:18:20 01:34:07:04 01:34:07:04 
007072  19Y08M22                         A2    D    002 13:22:18:20 13:22:18:22 01:34:07:04 01:34:07:06 
*FROM CLIP NAME:  48K1/03 
*TO CLIP NAME:  48K1/03 
*SOURCE FILE: 19Y08M22
007073  MSMMMOB.87                       A3    C        13:22:18:21 13:22:18:21 01:34:07:04 01:34:07:04 
007073  MSMMMOB.87                       A3    D    002 13:22:18:21 13:22:18:23 01:34:07:04 01:34:07:06 
*FROM CLIP NAME:  A097C008_190822_R32C 
*TO CLIP NAME:  A097C008_190822_R32C 
*SOURCE FILE: MSMMMOB.87
007074  19Y08M22                         A4    C        13:22:18:20 13:22:18:20 01:34:07:04 01:34:07:04 
007074  19Y08M22                         A4    D    002 13:22:18:20 13:22:18:22 01:34:07:04 01:34:07:06 
*FROM CLIP NAME:  48K1/03 
*TO CLIP NAME:  48K1/03 
*SOURCE FILE: 19Y08M22
007075  MSMMMOB.87                       A5    C        13:22:18:21 13:22:18:21 01:34:07:04 01:34:07:04 
007075  MSMMMOB.87                       A5    D    002 13:22:18:21 13:22:18:23 01:34:07:04 01:34:07:06 
*FROM CLIP NAME:  A097C008_190822_R32C 
*TO CLIP NAME:  A097C008_190822_R32C 
*SOURCE FILE: MSMMMOB.87
007076  19Y08M22                         A6    C        13:22:18:20 13:22:18:20 01:34:07:04 01:34:07:04 
007076  19Y08M22                         A6    D    002 13:22:18:20 13:22:18:22 01:34:07:04 01:34:07:06 
*FROM CLIP NAME:  48K1/03 
*TO CLIP NAME:  48K1/03 
*PATCH 19Y08M22:  FROM SOURCE 7 TO RECORD 6 
*PATCH 19Y08M22:  FROM SOURCE 7 TO RECORD 6 
*SOURCE FILE: 19Y08M22
007077  19Y08M22                         A     C        13:22:18:22 13:22:25:14 01:34:07:06 01:34:13:23 
*FROM CLIP NAME:  48K1/03 
*SOURCE FILE: 19Y08M22
007078  19Y08M22                         A2    C        13:22:18:22 13:22:25:14 01:34:07:06 01:34:13:23 
*FROM CLIP NAME:  48K1/03 
*SOURCE FILE: 19Y08M22
007079  MSMMMOB.87                       A3    C        13:22:18:23 13:22:25:15 01:34:07:06 01:34:13:23 
*FROM CLIP NAME:  A097C008_190822_R32C 
*SOURCE FILE: MSMMMOB.87
007080  19Y08M22                         A4    C        13:22:18:22 13:22:25:14 01:34:07:06 01:34:13:23 
*FROM CLIP NAME:  48K1/03 
*SOURCE FILE: 19Y08M22
007081  MSMMMOB.87                       A5    C        13:22:18:23 13:22:25:15 01:34:07:06 01:34:13:23 
*FROM CLIP NAME:  A097C008_190822_R32C 
*SOURCE FILE: MSMMMOB.87
007082  19Y08M22                         A6    C        13:22:18:22 13:22:25:14 01:34:07:06 01:34:13:23 
*FROM CLIP NAME:  48K1/03 
*PATCH 19Y08M22:  FROM SOURCE 7 TO RECORD 6 
*SOURCE FILE: 19Y08M22
007083  19Y08M22                         A     C        13:22:25:14 13:22:25:14 01:34:13:23 01:34:13:23 
007083  19Y08M22                         A     D    002 13:38:59:10 13:38:59:12 01:34:13:23 01:34:14:00 
*FROM CLIP NAME:  48K1/03 
*TO CLIP NAME:  48K2/03 
*SOURCE FILE: 19Y08M22
007084  19Y08M22                         A2    C        13:22:25:14 13:22:25:14 01:34:13:23 01:34:13:23 
007084  19Y08M22                         A2    D    002 13:38:59:10 13:38:59:12 01:34:13:23 01:34:14:00 
*FROM CLIP NAME:  48K1/03 
*TO CLIP NAME:  48K2/03 
*SOURCE FILE: 19Y08M22
007085  MSMMMOB.87                       A3    C        13:22:25:15 13:22:25:15 01:34:13:23 01:34:13:23 
007085  MSMMMOB.33                       A3    D    002 13:38:59:11 13:38:59:13 01:34:13:23 01:34:14:00 
*FROM CLIP NAME:  A097C008_190822_R32C 
*TO CLIP NAME:  A097C011_190822_R32C 
*SOURCE FILE: MSMMMOB.87
007086  19Y08M22                         A4    C        13:22:25:14 13:22:25:14 01:34:13:23 01:34:13:23 
007086  19Y08M22                         A4    D    002 13:38:59:10 13:38:59:12 01:34:13:23 01:34:14:00 
*FROM CLIP NAME:  48K1/03 
*TO CLIP NAME:  48K2/03 
*SOURCE FILE: 19Y08M22
007087  MSMMMOB.87                       A5    C        13:22:25:15 13:22:25:15 01:34:13:23 01:34:13:23 
007087  MSMMMOB.33                       A5    D    002 13:38:59:11 13:38:59:13 01:34:13:23 01:34:14:00 
*FROM CLIP NAME:  A097C008_190822_R32C 
*TO CLIP NAME:  A097C011_190822_R32C 
*SOURCE FILE: MSMMMOB.87
007088  19Y08M22                         A6    C        13:22:25:14 13:22:25:14 01:34:13:23 01:34:13:23 
007088  19Y08M22                         A6    D    002 13:38:59:10 13:38:59:12 01:34:13:23 01:34:14:00 
*FROM CLIP NAME:  48K1/03 
*TO CLIP NAME:  48K2/03 
*PATCH 19Y08M22:  FROM SOURCE 7 TO RECORD 6 
*PATCH 19Y08M22:  FROM SOURCE 7 TO RECORD 6 
*SOURCE FILE: 19Y08M22
007089  19Y08M22                         A     C        13:38:59:12 13:39:00:17 01:34:14:00 01:34:15:05 
*FROM CLIP NAME:  48K2/03 
*SOURCE FILE: 19Y08M22
007090  19Y08M22                         A2    C        13:38:59:12 13:39:00:17 01:34:14:00 01:34:15:05 
*FROM CLIP NAME:  48K2/03 
*SOURCE FILE: 19Y08M22
007091  MSMMMOB.33                       A3    C        13:38:59:13 13:39:00:18 01:34:14:00 01:34:15:05 
*FROM CLIP NAME:  A097C011_190822_R32C 
*SOURCE FILE: MSMMMOB.33
007092  19Y08M22                         A4    C        13:38:59:12 13:39:00:17 01:34:14:00 01:34:15:05 
*FROM CLIP NAME:  48K2/03 
*SOURCE FILE: 19Y08M22
007093  MSMMMOB.33                       A5    C        13:38:59:13 13:39:00:18 01:34:14:00 01:34:15:05 
*FROM CLIP NAME:  A097C011_190822_R32C 
*SOURCE FILE: MSMMMOB.33
007094  19Y08M22                         A6    C        13:38:59:12 13:39:00:17 01:34:14:00 01:34:15:05 
*FROM CLIP NAME:  48K2/03 
*PATCH 19Y08M22:  FROM SOURCE 7 TO RECORD 6 
*SOURCE FILE: 19Y08M22
007095  MSMMMOB.33                       V     C        13:38:59:22 13:39:01:20 01:34:14:09 01:34:16:07 
M2      MSMMMOB.33                                025.0 13:38:59:22 
*FROM CLIP NAME:  A097C011_190822_R32C 
*SOURCE FILE: MSMMMOB.33
007096  19Y08M22                         A     C        13:39:00:17 13:39:00:17 01:34:15:05 01:34:15:05 
007096  19Y08M22                         A     D    002 14:04:16:10 14:04:16:12 01:34:15:05 01:34:15:07 
*FROM CLIP NAME:  48K2/03 
*TO CLIP NAME:  48K3/04 
*SOURCE FILE: 19Y08M22
007097  19Y08M22                         A2    C        13:39:00:17 13:39:00:17 01:34:15:05 01:34:15:05 
007097  19Y08M22                         A2    D    002 14:04:16:10 14:04:16:12 01:34:15:05 01:34:15:07 
*FROM CLIP NAME:  48K2/03 
*TO CLIP NAME:  48K3/04 
*SOURCE FILE: 19Y08M22
007098  MSMMMOB.33                       A3    C        13:39:00:18 13:39:00:18 01:34:15:05 01:34:15:05 
007098  MSMMMOB.24                       A3    D    002 14:04:16:11 14:04:16:13 01:34:15:05 01:34:15:07 
*FROM CLIP NAME:  A097C011_190822_R32C 
*TO CLIP NAME:  A098C004_190822_R32C 
*SOURCE FILE: MSMMMOB.33
007099  19Y08M22                         A4    C        13:39:00:17 13:39:00:17 01:34:15:05 01:34:15:05 
007099  19Y08M22                         A4    D    002 14:04:16:10 14:04:16:12 01:34:15:05 01:34:15:07 
*FROM CLIP NAME:  48K2/03 
*TO CLIP NAME:  48K3/04 
*SOURCE FILE: 19Y08M22
007100  MSMMMOB.33                       A5    C        13:39:00:18 13:39:00:18 01:34:15:05 01:34:15:05 
007100  MSMMMOB.24                       A5    D    002 14:04:16:11 14:04:16:13 01:34:15:05 01:34:15:07 
*FROM CLIP NAME:  A097C011_190822_R32C 
*TO CLIP NAME:  A098C004_190822_R32C 
*SOURCE FILE: MSMMMOB.33
007101  19Y08M22                         A6    C        13:39:00:17 13:39:00:17 01:34:15:05 01:34:15:05 
007101  19Y08M22                         A6    D    002 14:04:16:10 14:04:16:12 01:34:15:05 01:34:15:07 
*FROM CLIP NAME:  48K2/03 
*TO CLIP NAME:  48K3/04 
*PATCH 19Y08M22:  FROM SOURCE 7 TO RECORD 6 
*PATCH 19Y08M22:  FROM SOURCE 7 TO RECORD 6 
*SOURCE FILE: 19Y08M22
007102  19Y08M22                         A     C        14:04:16:12 14:04:17:11 01:34:15:07 01:34:16:06 
*FROM CLIP NAME:  48K3/04 
*SOURCE FILE: 19Y08M22
007103  19Y08M22                         A2    C        14:04:16:12 14:04:17:11 01:34:15:07 01:34:16:06 
*FROM CLIP NAME:  48K3/04 
*SOURCE FILE: 19Y08M22
007104  MSMMMOB.24                       A3    C        14:04:16:13 14:04:17:12 01:34:15:07 01:34:16:06 
*FROM CLIP NAME:  A098C004_190822_R32C 
*SOURCE FILE: MSMMMOB.24
007105  19Y08M22                         A4    C        14:04:16:12 14:04:17:11 01:34:15:07 01:34:16:06 
*FROM CLIP NAME:  48K3/04 
*SOURCE FILE: 19Y08M22
007106  MSMMMOB.24                       A5    C        14:04:16:13 14:04:17:12 01:34:15:07 01:34:16:06 
*FROM CLIP NAME:  A098C004_190822_R32C 
*SOURCE FILE: MSMMMOB.24
007107  19Y08M22                         A6    C        14:04:16:12 14:04:17:11 01:34:15:07 01:34:16:06 
*FROM CLIP NAME:  48K3/04 
*PATCH 19Y08M22:  FROM SOURCE 7 TO RECORD 6 
*SOURCE FILE: 19Y08M22
007108  19Y08M22                         A     C        14:04:17:11 14:04:17:11 01:34:16:06 01:34:16:06 
007108  19Y08M22                         A     D    002 13:59:21:02 13:59:21:04 01:34:16:06 01:34:16:08 
*FROM CLIP NAME:  48K3/04 
*TO CLIP NAME:  48K3/03 
*SOURCE FILE: 19Y08M22
007109  19Y08M22                         A2    C        14:04:17:11 14:04:17:11 01:34:16:06 01:34:16:06 
007109  19Y08M22                         A2    D    002 13:59:21:02 13:59:21:04 01:34:16:06 01:34:16:08 
*FROM CLIP NAME:  48K3/04 
*TO CLIP NAME:  48K3/03 
*SOURCE FILE: 19Y08M22
007110  MSMMMOB.24                       A3    C        14:04:17:12 14:04:17:12 01:34:16:06 01:34:16:06 
007110  MSMMMOB.11                       A3    D    002 13:59:21:03 13:59:21:05 01:34:16:06 01:34:16:08 
*FROM CLIP NAME:  A098C004_190822_R32C 
*TO CLIP NAME:  A098C003_190822_R32C 
*SOURCE FILE: MSMMMOB.24
007111  19Y08M22                         A4    C        14:04:17:11 14:04:17:11 01:34:16:06 01:34:16:06 
007111  19Y08M22                         A4    D    002 13:59:21:02 13:59:21:04 01:34:16:06 01:34:16:08 
*FROM CLIP NAME:  48K3/04 
*TO CLIP NAME:  48K3/03 
*SOURCE FILE: 19Y08M22
007112  MSMMMOB.24                       A5    C        14:04:17:12 14:04:17:12 01:34:16:06 01:34:16:06 
007112  MSMMMOB.11                       A5    D    002 13:59:21:03 13:59:21:05 01:34:16:06 01:34:16:08 
*FROM CLIP NAME:  A098C004_190822_R32C 
*TO CLIP NAME:  A098C003_190822_R32C 
*SOURCE FILE: MSMMMOB.24
007113  19Y08M22                         A6    C        14:04:17:11 14:04:17:11 01:34:16:06 01:34:16:06 
007113  19Y08M22                         A6    D    002 13:59:21:02 13:59:21:04 01:34:16:06 01:34:16:08 
*FROM CLIP NAME:  48K3/04 
*TO CLIP NAME:  48K3/03 
*PATCH 19Y08M22:  FROM SOURCE 7 TO RECORD 6 
*PATCH 19Y08M22:  FROM SOURCE 7 TO RECORD 6 
*SOURCE FILE: 19Y08M22
007114  MSMMMOB.11                       V     C        13:59:21:04 13:59:26:14 01:34:16:07 01:34:21:17 
M2      MSMMMOB.11                                025.0 13:59:21:04 
*FROM CLIP NAME:  A098C003_190822_R32C 
*SOURCE FILE: MSMMMOB.11
007115  19Y08M22                         A     C        13:59:21:04 13:59:26:15 01:34:16:08 01:34:21:19 
*FROM CLIP NAME:  48K3/03 
*SOURCE FILE: 19Y08M22
007116  19Y08M22                         A2    C        13:59:21:04 13:59:26:15 01:34:16:08 01:34:21:19 
*FROM CLIP NAME:  48K3/03 
*SOURCE FILE: 19Y08M22
007117  MSMMMOB.11                       A3    C        13:59:21:05 13:59:26:16 01:34:16:08 01:34:21:19 
*FROM CLIP NAME:  A098C003_190822_R32C 
*SOURCE FILE: MSMMMOB.11
007118  19Y08M22                         A4    C        13:59:21:04 13:59:26:15 01:34:16:08 01:34:21:19 
*FROM CLIP NAME:  48K3/03 
*SOURCE FILE: 19Y08M22
007119  MSMMMOB.11                       A5    C        13:59:21:05 13:59:26:16 01:34:16:08 01:34:21:19 
*FROM CLIP NAME:  A098C003_190822_R32C 
*SOURCE FILE: MSMMMOB.11
007120  19Y08M22                         A6    C        13:59:21:04 13:59:26:15 01:34:16:08 01:34:21:19 
*FROM CLIP NAME:  48K3/03 
*PATCH 19Y08M22:  FROM SOURCE 7 TO RECORD 6 
*SOURCE FILE: 19Y08M22
007121  MSMMMOB.33                       V     C        13:39:06:18 13:39:10:03 01:34:21:17 01:34:25:02 
M2      MSMMMOB.33                                025.0 13:39:06:18 
*FROM CLIP NAME:  A097C011_190822_R32C 
*SOURCE FILE: MSMMMOB.33
007122  19Y08M22                         A     C        13:59:26:15 13:59:26:15 01:34:21:19 01:34:21:19 
007122  19Y08M22                         A     D    002 13:39:06:19 13:39:06:21 01:34:21:19 01:34:21:21 
*FROM CLIP NAME:  48K3/03 
*TO CLIP NAME:  48K2/03 
*SOURCE FILE: 19Y08M22
007123  19Y08M22                         A2    C        13:59:26:15 13:59:26:15 01:34:21:19 01:34:21:19 
007123  19Y08M22                         A2    D    002 13:39:06:19 13:39:06:21 01:34:21:19 01:34:21:21 
*FROM CLIP NAME:  48K3/03 
*TO CLIP NAME:  48K2/03 
*SOURCE FILE: 19Y08M22
007124  MSMMMOB.11                       A3    C        13:59:26:16 13:59:26:16 01:34:21:19 01:34:21:19 
007124  MSMMMOB.33                       A3    D    002 13:39:06:20 13:39:06:22 01:34:21:19 01:34:21:21 
*FROM CLIP NAME:  A098C003_190822_R32C 
*TO CLIP NAME:  A097C011_190822_R32C 
*SOURCE FILE: MSMMMOB.11
007125  19Y08M22                         A4    C        13:59:26:15 13:59:26:15 01:34:21:19 01:34:21:19 
007125  19Y08M22                         A4    D    002 13:39:06:19 13:39:06:21 01:34:21:19 01:34:21:21 
*FROM CLIP NAME:  48K3/03 
*TO CLIP NAME:  48K2/03 
*SOURCE FILE: 19Y08M22
007126  MSMMMOB.11                       A5    C        13:59:26:16 13:59:26:16 01:34:21:19 01:34:21:19 
007126  MSMMMOB.33                       A5    D    002 13:39:06:20 13:39:06:22 01:34:21:19 01:34:21:21 
*FROM CLIP NAME:  A098C003_190822_R32C 
*TO CLIP NAME:  A097C011_190822_R32C 
*SOURCE FILE: MSMMMOB.11
007127  19Y08M22                         A6    C        13:59:26:15 13:59:26:15 01:34:21:19 01:34:21:19 
007127  19Y08M22                         A6    D    002 13:39:06:19 13:39:06:21 01:34:21:19 01:34:21:21 
*FROM CLIP NAME:  48K3/03 
*TO CLIP NAME:  48K2/03 
*PATCH 19Y08M22:  FROM SOURCE 7 TO RECORD 6 
*PATCH 19Y08M22:  FROM SOURCE 7 TO RECORD 6 
*SOURCE FILE: 19Y08M22
007128  19Y08M22                         A     C        13:39:06:21 13:39:10:11 01:34:21:21 01:34:25:11 
*FROM CLIP NAME:  48K2/03 
*SOURCE FILE: 19Y08M22
007129  19Y08M22                         A2    C        13:39:06:21 13:39:10:11 01:34:21:21 01:34:25:11 
*FROM CLIP NAME:  48K2/03 
*SOURCE FILE: 19Y08M22
007130  MSMMMOB.33                       A3    C        13:39:06:22 13:39:10:12 01:34:21:21 01:34:25:11 
*FROM CLIP NAME:  A097C011_190822_R32C 
*SOURCE FILE: MSMMMOB.33
007131  19Y08M22                         A4    C        13:39:06:21 13:39:10:11 01:34:21:21 01:34:25:11 
*FROM CLIP NAME:  48K2/03 
*SOURCE FILE: 19Y08M22
007132  MSMMMOB.33                       A5    C        13:39:06:22 13:39:10:12 01:34:21:21 01:34:25:11 
*FROM CLIP NAME:  A097C011_190822_R32C 
*SOURCE FILE: MSMMMOB.33
007133  19Y08M22                         A6    C        13:39:06:21 13:39:10:11 01:34:21:21 01:34:25:11 
*FROM CLIP NAME:  48K2/03 
*PATCH 19Y08M22:  FROM SOURCE 7 TO RECORD 6 
*SOURCE FILE: 19Y08M22
007134  MSMMMOB.24                       V     C        14:04:39:10 14:04:47:17 01:34:25:02 01:34:33:09 
M2      MSMMMOB.24                                025.0 14:04:39:10 
*FROM CLIP NAME:  A098C004_190822_R32C 
*SOURCE FILE: MSMMMOB.24
007135  19Y08M22                         A     C        13:39:10:11 13:39:10:11 01:34:25:11 01:34:25:11 
007135  19Y08M22                         A     D    002 14:04:39:18 14:04:39:20 01:34:25:11 01:34:25:13 
*FROM CLIP NAME:  48K2/03 
*TO CLIP NAME:  48K3/04 
*SOURCE FILE: 19Y08M22
007136  19Y08M22                         A2    C        13:39:10:11 13:39:10:11 01:34:25:11 01:34:25:11 
007136  19Y08M22                         A2    D    002 14:04:39:18 14:04:39:20 01:34:25:11 01:34:25:13 
*FROM CLIP NAME:  48K2/03 
*TO CLIP NAME:  48K3/04 
*SOURCE FILE: 19Y08M22
007137  MSMMMOB.33                       A3    C        13:39:10:12 13:39:10:12 01:34:25:11 01:34:25:11 
007137  MSMMMOB.24                       A3    D    002 14:04:39:19 14:04:39:21 01:34:25:11 01:34:25:13 
*FROM CLIP NAME:  A097C011_190822_R32C 
*TO CLIP NAME:  A098C004_190822_R32C 
*SOURCE FILE: MSMMMOB.33
007138  19Y08M22                         A4    C        13:39:10:11 13:39:10:11 01:34:25:11 01:34:25:11 
007138  19Y08M22                         A4    D    002 14:04:39:18 14:04:39:20 01:34:25:11 01:34:25:13 
*FROM CLIP NAME:  48K2/03 
*TO CLIP NAME:  48K3/04 
*SOURCE FILE: 19Y08M22
007139  MSMMMOB.33                       A5    C        13:39:10:12 13:39:10:12 01:34:25:11 01:34:25:11 
007139  MSMMMOB.24                       A5    D    002 14:04:39:19 14:04:39:21 01:34:25:11 01:34:25:13 
*FROM CLIP NAME:  A097C011_190822_R32C 
*TO CLIP NAME:  A098C004_190822_R32C 
*SOURCE FILE: MSMMMOB.33
007140  19Y08M22                         A6    C        13:39:10:11 13:39:10:11 01:34:25:11 01:34:25:11 
007140  19Y08M22                         A6    D    002 14:04:39:18 14:04:39:20 01:34:25:11 01:34:25:13 
*FROM CLIP NAME:  48K2/03 
*TO CLIP NAME:  48K3/04 
*PATCH 19Y08M22:  FROM SOURCE 7 TO RECORD 6 
*PATCH 19Y08M22:  FROM SOURCE 7 TO RECORD 6 
*SOURCE FILE: 19Y08M22
007141  19Y08M22                         A     C        14:04:39:20 14:04:47:16 01:34:25:13 01:34:33:09 
*FROM CLIP NAME:  48K3/04 
*SOURCE FILE: 19Y08M22
007142  19Y08M22                         A2    C        14:04:39:20 14:04:47:16 01:34:25:13 01:34:33:09 
*FROM CLIP NAME:  48K3/04 
*SOURCE FILE: 19Y08M22
007143  MSMMMOB.24                       A3    C        14:04:39:21 14:04:47:17 01:34:25:13 01:34:33:09 
*FROM CLIP NAME:  A098C004_190822_R32C 
*SOURCE FILE: MSMMMOB.24
007144  19Y08M22                         A4    C        14:04:39:20 14:04:47:16 01:34:25:13 01:34:33:09 
*FROM CLIP NAME:  48K3/04 
*SOURCE FILE: 19Y08M22
007145  MSMMMOB.24                       A5    C        14:04:39:21 14:04:47:17 01:34:25:13 01:34:33:09 
*FROM CLIP NAME:  A098C004_190822_R32C 
*SOURCE FILE: MSMMMOB.24
007146  19Y08M22                         A6    C        14:04:39:20 14:04:47:16 01:34:25:13 01:34:33:09 
*FROM CLIP NAME:  48K3/04 
*PATCH 19Y08M22:  FROM SOURCE 7 TO RECORD 6 
*SOURCE FILE: 19Y08M22
007147  19Y08M22                         A     C        14:04:48:10 14:04:49:11 01:34:33:09 01:34:34:10 
*FROM CLIP NAME:  48K3/04 
*SOURCE FILE: 19Y08M22
007148  19Y08M22                         A2    C        14:04:48:10 14:04:49:11 01:34:33:09 01:34:34:10 
*FROM CLIP NAME:  48K3/04 
*SOURCE FILE: 19Y08M22
007149  MSMMMOB.24                       A3    C        14:04:48:11 14:04:49:12 01:34:33:09 01:34:34:10 
*FROM CLIP NAME:  A098C004_190822_R32C 
*SOURCE FILE: MSMMMOB.24
007150  19Y08M22                         A4    C        14:04:48:10 14:04:49:11 01:34:33:09 01:34:34:10 
*FROM CLIP NAME:  48K3/04 
*SOURCE FILE: 19Y08M22
007151  MSMMMOB.24                       A5    C        14:04:48:11 14:04:49:12 01:34:33:09 01:34:34:10 
*FROM CLIP NAME:  A098C004_190822_R32C 
*SOURCE FILE: MSMMMOB.24
007152  19Y08M22                         A6    C        14:04:48:10 14:04:49:11 01:34:33:09 01:34:34:10 
*FROM CLIP NAME:  48K3/04 
*PATCH 19Y08M22:  FROM SOURCE 7 TO RECORD 6 
*SOURCE FILE: 19Y08M22
007153  MSMMMOB.33                       V     C        13:39:15:19 13:39:19:06 01:34:33:09 01:34:36:21 
M2      MSMMMOB.33                                025.0 13:39:15:19 
*FROM CLIP NAME:  A097C011_190822_R32C 
*SOURCE FILE: MSMMMOB.33
007154  19Y08M22                         A     C        14:04:49:11 14:04:49:11 01:34:34:10 01:34:34:10 
007154  19Y08M22                         A     D    025 13:39:19:02 13:39:20:02 01:34:34:10 01:34:35:10 
*FROM CLIP NAME:  48K3/04 
*TO CLIP NAME:  48K2/03 
*SOURCE FILE: 19Y08M22
007155  19Y08M22                         A2    C        14:04:49:11 14:04:49:11 01:34:34:10 01:34:34:10 
007155  19Y08M22                         A2    D    025 13:39:19:02 13:39:20:02 01:34:34:10 01:34:35:10 
*FROM CLIP NAME:  48K3/04 
*TO CLIP NAME:  48K2/03 
*SOURCE FILE: 19Y08M22
007156  MSMMMOB.24                       A3    C        14:04:49:12 14:04:49:12 01:34:34:10 01:34:34:10 
007156  MSMMMOB.33                       A3    D    025 13:39:19:03 13:39:20:03 01:34:34:10 01:34:35:10 
*FROM CLIP NAME:  A098C004_190822_R32C 
*TO CLIP NAME:  A097C011_190822_R32C 
*SOURCE FILE: MSMMMOB.24
007157  19Y08M22                         A4    C        14:04:49:11 14:04:49:11 01:34:34:10 01:34:34:10 
007157  19Y08M22                         A4    D    025 13:39:19:02 13:39:20:02 01:34:34:10 01:34:35:10 
*FROM CLIP NAME:  48K3/04 
*TO CLIP NAME:  48K2/03 
*SOURCE FILE: 19Y08M22
007158  MSMMMOB.24                       A5    C        14:04:49:12 14:04:49:12 01:34:34:10 01:34:34:10 
007158  MSMMMOB.33                       A5    D    025 13:39:19:03 13:39:20:03 01:34:34:10 01:34:35:10 
*FROM CLIP NAME:  A098C004_190822_R32C 
*TO CLIP NAME:  A097C011_190822_R32C 
*SOURCE FILE: MSMMMOB.24
007159  19Y08M22                         A6    C        14:04:49:11 14:04:49:11 01:34:34:10 01:34:34:10 
007159  19Y08M22                         A6    D    025 13:39:19:02 13:39:20:02 01:34:34:10 01:34:35:10 
*FROM CLIP NAME:  48K3/04 
*TO CLIP NAME:  48K2/03 
*PATCH 19Y08M22:  FROM SOURCE 7 TO RECORD 6 
*PATCH 19Y08M22:  FROM SOURCE 7 TO RECORD 6 
*SOURCE FILE: 19Y08M22
007160  19Y08M22                         A     C        13:39:20:02 13:39:21:12 01:34:35:10 01:34:36:20 
*FROM CLIP NAME:  48K2/03 
*SOURCE FILE: 19Y08M22
007161  19Y08M22                         A2    C        13:39:20:02 13:39:21:12 01:34:35:10 01:34:36:20 
*FROM CLIP NAME:  48K2/03 
*SOURCE FILE: 19Y08M22
007162  MSMMMOB.33                       A3    C        13:39:20:03 13:39:21:13 01:34:35:10 01:34:36:20 
*FROM CLIP NAME:  A097C011_190822_R32C 
*SOURCE FILE: MSMMMOB.33
007163  19Y08M22                         A4    C        13:39:20:02 13:39:21:12 01:34:35:10 01:34:36:20 
*FROM CLIP NAME:  48K2/03 
*SOURCE FILE: 19Y08M22
007164  MSMMMOB.33                       A5    C        13:39:20:03 13:39:21:13 01:34:35:10 01:34:36:20 
*FROM CLIP NAME:  A097C011_190822_R32C 
*SOURCE FILE: MSMMMOB.33
007165  19Y08M22                         A6    C        13:39:20:02 13:39:21:12 01:34:35:10 01:34:36:20 
*FROM CLIP NAME:  48K2/03 
*PATCH 19Y08M22:  FROM SOURCE 7 TO RECORD 6 
*SOURCE FILE: 19Y08M22
007166  ITD_LENINGRAD.MP3                A12   C        01:00:00:00 01:00:25:22 01:34:36:11 01:35:02:08 
*FROM CLIP NAME:  ITD_LENINGRAD.MP3 
*A12 VOL =  -9.0 DB  PAN L100 
*PATCH ITD_LENINGRAD.MP3:  FROM SOURCE 2 TO RECORD 12 
*SOURCE FILE: ITD_LENINGRAD.MP3
007167  ITD_LENINGRAD.MP3                A13   C        01:00:00:00 01:00:25:22 01:34:36:11 01:35:02:08 
*FROM CLIP NAME:  ITD_LENINGRAD.MP3 
*A13 VOL =  -9.0 DB  PAN R100 
*PATCH ITD_LENINGRAD.MP3:  FROM SOURCE 1 TO RECORD 13 
*SOURCE FILE: ITD_LENINGRAD.MP3
007168  19Y08M22                         A     C        13:39:21:12 13:39:21:12 01:34:36:20 01:34:36:20 
007168  19Y11M24                         A     D    001 14:21:44:15 14:21:44:16 01:34:36:20 01:34:36:21 
*FROM CLIP NAME:  48K2/03 
*TO CLIP NAME:  01-02-3/02 
*SOURCE FILE: 19Y08M22
007169  19Y08M22                         A2    C        13:39:21:12 13:39:21:12 01:34:36:20 01:34:36:20 
007169  19Y11M24                         A2    D    001 14:21:44:15 14:21:44:16 01:34:36:20 01:34:36:21 
*FROM CLIP NAME:  48K2/03 
*TO CLIP NAME:  01-02-3/02 
*SOURCE FILE: 19Y08M22
007170  MSMMMOB.33                       A3    C        13:39:21:13 13:39:21:13 01:34:36:20 01:34:36:20 
007170  19Y11M24                         A3    D    001 14:21:44:15 14:21:44:16 01:34:36:20 01:34:36:21 
*FROM CLIP NAME:  A097C011_190822_R32C 
*TO CLIP NAME:  01-02-3/02 
*SOURCE FILE: MSMMMOB.33
007171  19Y08M22                         A4    C        13:39:21:12 13:39:21:12 01:34:36:20 01:34:36:20 
007171  BL                               A4    D    001 00:00:00:00 00:00:00:01 01:34:36:20 01:34:36:21 
*FROM CLIP NAME:  48K2/03 
*SOURCE FILE: 19Y08M22
007172  MSMMMOB.33                       A5    C        13:39:21:13 13:39:21:13 01:34:36:20 01:34:36:20 
007172  BL                               A5    D    001 00:00:00:00 00:00:00:01 01:34:36:20 01:34:36:21 
*FROM CLIP NAME:  A097C011_190822_R32C 
*SOURCE FILE: MSMMMOB.33
007173  19Y08M22                         A6    C        13:39:21:12 13:39:21:12 01:34:36:20 01:34:36:20 
007173  BL                               A6    D    001 00:00:00:00 00:00:00:01 01:34:36:20 01:34:36:21 
*FROM CLIP NAME:  48K2/03 
*PATCH 19Y08M22:  FROM SOURCE 7 TO RECORD 6 
*SOURCE FILE: 19Y08M22
007174  MSMMMOB.21                       V     C        14:21:44:16 14:21:45:19 01:34:36:21 01:34:37:24 
M2      MSMMMOB.21                                025.0 14:21:44:16 
*FROM CLIP NAME:  A001C016_191124_R481 
*SOURCE FILE: MSMMMOB.21
007175  19Y11M24                         A     C        14:21:44:16 14:21:45:19 01:34:36:21 01:34:37:24 
*FROM CLIP NAME:  01-02-3/02 
*SOURCE FILE: 19Y11M24
007176  19Y11M24                         A2    C        14:21:44:16 14:21:45:19 01:34:36:21 01:34:37:24 
*FROM CLIP NAME:  01-02-3/02 
*SOURCE FILE: 19Y11M24
007177  19Y11M24                         A3    C        14:21:44:16 14:21:45:19 01:34:36:21 01:34:37:24 
*FROM CLIP NAME:  01-02-3/02 
*SOURCE FILE: 19Y11M24
007178  CINEMASCOPE_2-35-1_CROPLINES.PNG V     C        01:01:26:02 01:01:50:11 01:34:36:21 01:35:01:05 
*FROM CLIP NAME:  CINEMASCOPE 2-35-1 CROPLINES.PNG 
*SOURCE FILE: CINEMASCOPE 2-35-1 CROPLINES.PNG
007179  19Y11M24                         A4    C        14:08:01:08 14:08:03:01 01:34:37:21 01:34:39:14 
*FROM CLIP NAME:  01-02-1/01 
*PATCH 19Y11M24:  FROM SOURCE 2 TO RECORD 4 
*SOURCE FILE: 19Y11M24
007180  19Y11M24                         A5    C        14:08:01:08 14:08:03:01 01:34:37:21 01:34:39:14 
*FROM CLIP NAME:  01-02-1/01 
*PATCH 19Y11M24:  FROM SOURCE 1 TO RECORD 5 
*SOURCE FILE: 19Y11M24
007181  19Y11M24                         A6    C        14:08:01:08 14:08:03:01 01:34:37:21 01:34:39:14 
*FROM CLIP NAME:  01-02-1/01 
*PATCH 19Y11M24:  FROM SOURCE 3 TO RECORD 6 
*SOURCE FILE: 19Y11M24
007182  MSMMMOB.21                       V     C        14:21:47:15 14:21:48:10 01:34:37:24 01:34:38:19 
M2      MSMMMOB.21                                025.0 14:21:47:15 
*FROM CLIP NAME:  A001C016_191124_R481 
*SOURCE FILE: MSMMMOB.21
007183  19Y11M24                         A     C        14:21:47:15 14:21:48:10 01:34:37:24 01:34:38:19 
*FROM CLIP NAME:  01-02-3/02 
*SOURCE FILE: 19Y11M24
007184  19Y11M24                         A2    C        14:21:47:15 14:21:48:10 01:34:37:24 01:34:38:19 
*FROM CLIP NAME:  01-02-3/02 
*SOURCE FILE: 19Y11M24
007185  19Y11M24                         A3    C        14:21:47:15 14:21:48:10 01:34:37:24 01:34:38:19 
*FROM CLIP NAME:  01-02-3/02 
*SOURCE FILE: 19Y11M24
007186  MSMMMOB.21                       V     C        14:21:48:22 14:21:51:24 01:34:38:19 01:34:41:21 
M2      MSMMMOB.21                                025.0 14:21:48:22 
*FROM CLIP NAME:  A001C016_191124_R481 
*SOURCE FILE: MSMMMOB.21
007187  19Y11M24                         A     C        14:21:48:22 14:21:51:24 01:34:38:19 01:34:41:21 
*FROM CLIP NAME:  01-02-3/02 
*SOURCE FILE: 19Y11M24
007188  19Y11M24                         A2    C        14:21:48:22 14:21:51:24 01:34:38:19 01:34:41:21 
*FROM CLIP NAME:  01-02-3/02 
*SOURCE FILE: 19Y11M24
007189  19Y11M24                         A3    C        14:21:48:22 14:21:51:24 01:34:38:19 01:34:41:21 
*FROM CLIP NAME:  01-02-3/02 
*SOURCE FILE: 19Y11M24
007190  MSMMMOB.04                       V     C        14:11:57:17 14:11:58:20 01:34:41:21 01:34:42:24 
M2      MSMMMOB.04                                025.0 14:11:57:17 
*FROM CLIP NAME:  A001C012_191124_R481 
*SOURCE FILE: MSMMMOB.04
007191  19Y11M24                         A     C        14:11:57:17 14:11:58:20 01:34:41:21 01:34:42:24 
*FROM CLIP NAME:  01-02-1/04 
*SOURCE FILE: 19Y11M24
007192  19Y11M24                         A2    C        14:11:57:17 14:11:58:20 01:34:41:21 01:34:42:24 
*FROM CLIP NAME:  01-02-1/04 
*SOURCE FILE: 19Y11M24
007193  19Y11M24                         A3    C        14:11:57:17 14:11:58:20 01:34:41:21 01:34:42:24 
*FROM CLIP NAME:  01-02-1/04 
*SOURCE FILE: 19Y11M24
007194  MSMMMOB.57                       V     C        14:16:35:15 14:16:36:11 01:34:42:24 01:34:43:20 
M2      MSMMMOB.57                                025.0 14:16:35:15 
*FROM CLIP NAME:  A001C014_191124_R481 
*SOURCE FILE: MSMMMOB.57
007195  19Y11M24                         A     C        14:16:35:15 14:16:36:11 01:34:42:24 01:34:43:20 
*FROM CLIP NAME:  01-02-2/02 
*SOURCE FILE: 19Y11M24
007196  19Y11M24                         A2    C        14:16:35:15 14:16:36:11 01:34:42:24 01:34:43:20 
*FROM CLIP NAME:  01-02-2/02 
*SOURCE FILE: 19Y11M24
007197  19Y11M24                         A3    C        14:16:35:15 14:16:36:11 01:34:42:24 01:34:43:20 
*FROM CLIP NAME:  01-02-2/02 
*SOURCE FILE: 19Y11M24
007198  MSMMMOB.04                       V     C        14:11:59:08 14:12:01:01 01:34:43:20 01:34:45:13 
M2      MSMMMOB.04                                025.0 14:11:59:08 
*FROM CLIP NAME:  A001C012_191124_R481 
*SOURCE FILE: MSMMMOB.04
007199  19Y11M24                         A     C        14:11:59:08 14:12:01:01 01:34:43:20 01:34:45:13 
*FROM CLIP NAME:  01-02-1/04 
*SOURCE FILE: 19Y11M24
007200  19Y11M24                         A2    C        14:11:59:08 14:12:01:01 01:34:43:20 01:34:45:13 
*FROM CLIP NAME:  01-02-1/04 
*SOURCE FILE: 19Y11M24
007201  19Y11M24                         A3    C        14:11:59:08 14:12:01:01 01:34:43:20 01:34:45:13 
*FROM CLIP NAME:  01-02-1/04 
*SOURCE FILE: 19Y11M24
007202  MSMMMOB.21                       V     C        14:21:59:04 14:22:00:09 01:34:45:13 01:34:46:18 
M2      MSMMMOB.21                                025.0 14:21:59:04 
*FROM CLIP NAME:  A001C016_191124_R481 
*SOURCE FILE: MSMMMOB.21
007203  19Y11M24                         A     C        14:21:59:04 14:22:00:09 01:34:45:13 01:34:46:18 
*FROM CLIP NAME:  01-02-3/02 
*SOURCE FILE: 19Y11M24
007204  19Y11M24                         A2    C        14:21:59:04 14:22:00:09 01:34:45:13 01:34:46:18 
*FROM CLIP NAME:  01-02-3/02 
*SOURCE FILE: 19Y11M24
007205  19Y11M24                         A3    C        14:21:59:04 14:22:00:09 01:34:45:13 01:34:46:18 
*FROM CLIP NAME:  01-02-3/02 
*SOURCE FILE: 19Y11M24
007206  MSMMMOB.02                       V     C        14:46:53:22 14:46:54:17 01:34:46:18 01:34:47:13 
M2      MSMMMOB.02                                025.0 14:46:53:22 
*FROM CLIP NAME:  A002C008_191124_R481 
*SOURCE FILE: MSMMMOB.02
007207  19Y11M24                         A     C        14:46:53:22 14:46:54:17 01:34:46:18 01:34:47:13 
*FROM CLIP NAME:  01-02-6/01 
*SOURCE FILE: 19Y11M24
007208  19Y11M24                         A2    C        14:46:53:22 14:46:54:17 01:34:46:18 01:34:47:13 
*FROM CLIP NAME:  01-02-6/01 
*SOURCE FILE: 19Y11M24
007209  19Y11M24                         A3    C        14:46:53:22 14:46:54:17 01:34:46:18 01:34:47:13 
*FROM CLIP NAME:  01-02-6/01 
*SOURCE FILE: 19Y11M24
007210  MSMMMOB.60                       V     C        14:48:54:05 14:48:55:01 01:34:47:13 01:34:48:09 
M2      MSMMMOB.60                                025.0 14:48:54:05 
*FROM CLIP NAME:  A002C010_191124_R481 
*SOURCE FILE: MSMMMOB.60
007211  19Y11M24                         A     C        14:48:54:05 14:48:55:01 01:34:47:13 01:34:48:09 
*FROM CLIP NAME:  01-02-6/03 
*SOURCE FILE: 19Y11M24
007212  19Y11M24                         A2    C        14:48:54:05 14:48:55:01 01:34:47:13 01:34:48:09 
*FROM CLIP NAME:  01-02-6/03 
*SOURCE FILE: 19Y11M24
007213  19Y11M24                         A3    C        14:48:54:05 14:48:55:01 01:34:47:13 01:34:48:09 
*FROM CLIP NAME:  01-02-6/03 
*SOURCE FILE: 19Y11M24
007214  MSMMMOB.18                       V     C        14:43:18:20 14:43:21:13 01:34:48:09 01:34:51:02 
M2      MSMMMOB.18                                025.0 14:43:18:20 
*FROM CLIP NAME:  A002C007_191124_R481 
*SOURCE FILE: MSMMMOB.18
007215  19Y11M24                         A     C        14:43:18:20 14:43:21:13 01:34:48:09 01:34:51:02 
*FROM CLIP NAME:  01-02-5/03 
*SOURCE FILE: 19Y11M24
007216  19Y11M24                         A2    C        14:43:18:20 14:43:21:13 01:34:48:09 01:34:51:02 
*FROM CLIP NAME:  01-02-5/03 
*SOURCE FILE: 19Y11M24
007217  19Y11M24                         A3    C        14:43:18:20 14:43:21:13 01:34:48:09 01:34:51:02 
*FROM CLIP NAME:  01-02-5/03 
*SOURCE FILE: 19Y11M24
007218  MSMMMOB.60                       V     C        14:48:55:21 14:48:57:04 01:34:51:02 01:34:52:10 
M2      MSMMMOB.60                                025.0 14:48:55:21 
*FROM CLIP NAME:  A002C010_191124_R481 
*SOURCE FILE: MSMMMOB.60
007219  19Y11M24                         A     C        14:48:55:21 14:48:57:04 01:34:51:02 01:34:52:10 
*FROM CLIP NAME:  01-02-6/03 
*SOURCE FILE: 19Y11M24
007220  19Y11M24                         A2    C        14:48:55:21 14:48:57:04 01:34:51:02 01:34:52:10 
*FROM CLIP NAME:  01-02-6/03 
*SOURCE FILE: 19Y11M24
007221  19Y11M24                         A3    C        14:48:55:21 14:48:57:04 01:34:51:02 01:34:52:10 
*FROM CLIP NAME:  01-02-6/03 
*SOURCE FILE: 19Y11M24
007222  MSMMMOB.32                       V     C        14:30:46:21 14:30:50:15 01:34:52:10 01:34:56:04 
M2      MSMMMOB.32                                025.0 14:30:46:21 
*FROM CLIP NAME:  A002C001_191124_R481 
*SOURCE FILE: MSMMMOB.32
007223  19Y11M24                         A     C        14:30:46:21 14:30:50:20 01:34:52:10 01:34:56:09 
*FROM CLIP NAME:  01-02-4/01 
*SOURCE FILE: 19Y11M24
007224  19Y11M24                         A2    C        14:30:46:21 14:30:50:20 01:34:52:10 01:34:56:09 
*FROM CLIP NAME:  01-02-4/01 
*SOURCE FILE: 19Y11M24
007225  19Y11M24                         A3    C        14:30:46:21 14:30:50:20 01:34:52:10 01:34:56:09 
*FROM CLIP NAME:  01-02-4/01 
*SOURCE FILE: 19Y11M24
007226  MSMMMOB.04                       V     C        14:12:06:05 14:12:08:04 01:34:56:04 01:34:58:03 
M2      MSMMMOB.04                                025.0 14:12:06:05 
*FROM CLIP NAME:  A001C012_191124_R481 
*SOURCE FILE: MSMMMOB.04
007227  19Y11M24                         A     C        14:12:06:10 14:12:08:04 01:34:56:09 01:34:58:03 
*FROM CLIP NAME:  01-02-1/04 
*SOURCE FILE: 19Y11M24
007228  19Y11M24                         A2    C        14:12:06:10 14:12:08:04 01:34:56:09 01:34:58:03 
*FROM CLIP NAME:  01-02-1/04 
*SOURCE FILE: 19Y11M24
007229  19Y11M24                         A3    C        14:12:06:10 14:12:08:04 01:34:56:09 01:34:58:03 
*FROM CLIP NAME:  01-02-1/04 
*SOURCE FILE: 19Y11M24
007230  MSMMMOB.28                       V     C        14:32:46:08 14:32:47:20 01:34:58:03 01:34:59:15 
M2      MSMMMOB.28                                025.0 14:32:46:08 
*FROM CLIP NAME:  A002C003_191124_R481 
*SOURCE FILE: MSMMMOB.28
007231  19Y11M24                         A     C        14:32:46:08 14:32:47:20 01:34:58:03 01:34:59:15 
*FROM CLIP NAME:  01-02-4/03 
*SOURCE FILE: 19Y11M24
007232  19Y11M24                         A2    C        14:32:46:08 14:32:47:20 01:34:58:03 01:34:59:15 
*FROM CLIP NAME:  01-02-4/03 
*SOURCE FILE: 19Y11M24
007233  19Y11M24                         A3    C        14:32:46:08 14:32:47:20 01:34:58:03 01:34:59:15 
*FROM CLIP NAME:  01-02-4/03 
*SOURCE FILE: 19Y11M24
007234  MSMMMOB.28                       V     C        14:32:49:18 14:32:51:08 01:34:59:15 01:35:01:05 
M2      MSMMMOB.28                                025.0 14:32:49:18 
*FROM CLIP NAME:  A002C003_191124_R481 
*SOURCE FILE: MSMMMOB.28
007235  19Y11M24                         A     C        14:32:49:18 14:32:51:08 01:34:59:15 01:35:01:05 
*FROM CLIP NAME:  01-02-4/03 
*SOURCE FILE: 19Y11M24
007236  19Y11M24                         A2    C        14:32:49:18 14:32:51:08 01:34:59:15 01:35:01:05 
*FROM CLIP NAME:  01-02-4/03 
*SOURCE FILE: 19Y11M24
007237  19Y11M24                         A3    C        14:32:49:18 14:32:51:08 01:34:59:15 01:35:01:05 
*FROM CLIP NAME:  01-02-4/03 
*SOURCE FILE: 19Y11M24
007238  19Y08M02                         A     C        14:15:41:11 14:15:42:11 01:35:01:05 01:35:02:05 
*FROM CLIP NAME:  49K7/01.SYNC.01 
*SOURCE FILE: 19Y08M02
007239  19Y08M02                         A2    C        14:15:41:11 14:15:42:11 01:35:01:05 01:35:02:05 
*FROM CLIP NAME:  49K7/01.SYNC.01 
*SOURCE FILE: 19Y08M02
007240  19Y08M02                         A3    C        14:15:41:11 14:15:42:11 01:35:01:05 01:35:02:05 
*FROM CLIP NAME:  49K7/01.SYNC.01 
*SOURCE FILE: 19Y08M02
007241  19Y08M02                         A4    C        14:15:41:11 14:15:42:11 01:35:01:05 01:35:02:05 
*FROM CLIP NAME:  49K7/01.SYNC.01 
*SOURCE FILE: 19Y08M02
007242  19Y08M02                         A5    C        14:15:41:11 14:15:42:11 01:35:01:05 01:35:02:05 
*FROM CLIP NAME:  49K7/01.SYNC.01 
*PATCH 19Y08M02:  FROM SOURCE 1 TO RECORD 5 
*SOURCE FILE: 19Y08M02
007243  19Y08M02                         A6    C        14:15:41:11 14:15:42:11 01:35:01:05 01:35:02:05 
*FROM CLIP NAME:  49K7/01.SYNC.01 
*SOURCE FILE: 19Y08M02
007244  19Y08M02                         A7    C        14:15:41:11 14:15:42:11 01:35:01:05 01:35:02:05 
*FROM CLIP NAME:  49K7/01.SYNC.01 
*SOURCE FILE: 19Y08M02
007245  19Y08M02                         A8    C        14:15:41:11 14:15:42:11 01:35:01:05 01:35:02:05 
*FROM CLIP NAME:  49K7/01.SYNC.01 
*SOURCE FILE: 19Y08M02
007246  MSMMMOB.39                       V     C        13:41:57:01 13:42:01:16 01:35:01:05 01:35:05:20 
M2      MSMMMOB.39                                025.0 13:41:57:01 
*FROM CLIP NAME:  A030C002_190802_R32C 
*SOURCE FILE: MSMMMOB.39
007247  CINEMASCOPE_2-35-1_CROPLINES.PNG V     C        01:01:47:05 01:01:56:21 01:35:01:05 01:35:10:21 
*FROM CLIP NAME:  CINEMASCOPE 2-35-1 CROPLINES.PNG 
*SOURCE FILE: CINEMASCOPE 2-35-1 CROPLINES.PNG
007248  19Y08M02                         A     C        14:17:01:24 14:17:02:14 01:35:02:05 01:35:02:20 
*FROM CLIP NAME:  49K7/02.SYNC.01 
*SOURCE FILE: 19Y08M02
007249  19Y08M02                         A2    C        14:17:01:24 14:17:02:14 01:35:02:05 01:35:02:20 
*FROM CLIP NAME:  49K7/02.SYNC.01 
*SOURCE FILE: 19Y08M02
007250  19Y08M02                         A3    C        14:17:01:24 14:17:02:14 01:35:02:05 01:35:02:20 
*FROM CLIP NAME:  49K7/02.SYNC.01 
*SOURCE FILE: 19Y08M02
007251  19Y08M02                         A4    C        14:17:01:24 14:17:02:14 01:35:02:05 01:35:02:20 
*FROM CLIP NAME:  49K7/02.SYNC.01 
*SOURCE FILE: 19Y08M02
007252  19Y08M02                         A5    C        14:17:01:24 14:17:02:14 01:35:02:05 01:35:02:20 
*FROM CLIP NAME:  49K7/02.SYNC.01 
*PATCH 19Y08M02:  FROM SOURCE 1 TO RECORD 5 
*SOURCE FILE: 19Y08M02
007253  19Y08M02                         A6    C        14:17:01:24 14:17:02:14 01:35:02:05 01:35:02:20 
*FROM CLIP NAME:  49K7/02.SYNC.01 
*SOURCE FILE: 19Y08M02
007254  19Y08M02                         A7    C        14:17:01:24 14:17:02:14 01:35:02:05 01:35:02:20 
*FROM CLIP NAME:  49K7/02.SYNC.01 
*SOURCE FILE: 19Y08M02
007255  19Y08M02                         A8    C        14:17:01:24 14:17:02:14 01:35:02:05 01:35:02:20 
*FROM CLIP NAME:  49K7/02.SYNC.01 
*SOURCE FILE: 19Y08M02
007256  ITD_LENINGRAD.MP3                A12   C        01:00:25:22 01:00:25:22 01:35:02:08 01:35:02:08 
007256  ITD_LENINGRAD.MP3                A12   D    025 01:00:25:22 01:00:26:22 01:35:02:08 01:35:03:08 
*FROM CLIP NAME:  ITD_LENINGRAD.MP3 
*TO CLIP NAME:  ITD_LENINGRAD.MP3 
*A12 VOL =  -9.0 DB  PAN L100 
*A12 VOL = -12.5 DB  PAN L100 
*PATCH ITD_LENINGRAD.MP3:  FROM SOURCE 2 TO RECORD 12 
*PATCH ITD_LENINGRAD.MP3:  FROM SOURCE 2 TO RECORD 12 
*SOURCE FILE: ITD_LENINGRAD.MP3
007257  ITD_LENINGRAD.MP3                A13   C        01:00:25:22 01:00:25:22 01:35:02:08 01:35:02:08 
007257  ITD_LENINGRAD.MP3                A13   D    025 01:00:25:22 01:00:26:22 01:35:02:08 01:35:03:08 
*FROM CLIP NAME:  ITD_LENINGRAD.MP3 
*TO CLIP NAME:  ITD_LENINGRAD.MP3 
*A13 VOL =  -9.0 DB  PAN R100 
*A13 VOL = -12.5 DB  PAN R100 
*PATCH ITD_LENINGRAD.MP3:  FROM SOURCE 1 TO RECORD 13 
*PATCH ITD_LENINGRAD.MP3:  FROM SOURCE 1 TO RECORD 13 
*SOURCE FILE: ITD_LENINGRAD.MP3
007258  19Y08M02                         A     C        14:17:00:02 14:17:01:07 01:35:02:20 01:35:04:00 
*FROM CLIP NAME:  49K7/02.SYNC.01 
*SOURCE FILE: 19Y08M02
007259  19Y08M02                         A2    C        14:17:00:02 14:17:01:07 01:35:02:20 01:35:04:00 
*FROM CLIP NAME:  49K7/02.SYNC.01 
*SOURCE FILE: 19Y08M02
007260  19Y08M02                         A3    C        14:17:00:02 14:17:01:07 01:35:02:20 01:35:04:00 
*FROM CLIP NAME:  49K7/02.SYNC.01 
*SOURCE FILE: 19Y08M02
007261  19Y08M02                         A4    C        14:17:00:02 14:17:01:07 01:35:02:20 01:35:04:00 
*FROM CLIP NAME:  49K7/02.SYNC.01 
*SOURCE FILE: 19Y08M02
007262  19Y08M02                         A5    C        14:17:00:02 14:17:01:07 01:35:02:20 01:35:04:00 
*FROM CLIP NAME:  49K7/02.SYNC.01 
*PATCH 19Y08M02:  FROM SOURCE 1 TO RECORD 5 
*SOURCE FILE: 19Y08M02
007263  19Y08M02                         A6    C        14:17:00:02 14:17:01:07 01:35:02:20 01:35:04:00 
*FROM CLIP NAME:  49K7/02.SYNC.01 
*SOURCE FILE: 19Y08M02
007264  19Y08M02                         A7    C        14:17:00:02 14:17:01:07 01:35:02:20 01:35:04:00 
*FROM CLIP NAME:  49K7/02.SYNC.01 
*SOURCE FILE: 19Y08M02
007265  19Y08M02                         A8    C        14:17:00:02 14:17:01:07 01:35:02:20 01:35:04:00 
*FROM CLIP NAME:  49K7/02.SYNC.01 
*SOURCE FILE: 19Y08M02
007266  ITD_LENINGRAD.MP3                A12   C        01:00:26:22 01:00:54:15 01:35:03:08 01:35:31:01 
*, D-VERB 
*FROM CLIP NAME:  ITD_LENINGRAD.MP3 
*A12 VOL = -12.5 DB  PAN L100 
*PATCH ITD_LENINGRAD.MP3:  FROM SOURCE 2 TO RECORD 12 
*SOURCE FILE: ITD_LENINGRAD.MP3
007267  ITD_LENINGRAD.MP3                A13   C        01:00:26:22 01:00:54:15 01:35:03:08 01:35:31:01 
*, D-VERB 
*FROM CLIP NAME:  ITD_LENINGRAD.MP3 
*A13 VOL = -12.5 DB  PAN R100 
*PATCH ITD_LENINGRAD.MP3:  FROM SOURCE 1 TO RECORD 13 
*SOURCE FILE: ITD_LENINGRAD.MP3
007268  19Y08M02                         A     C        12:48:57:24 12:48:58:08 01:35:04:00 01:35:04:09 
*FROM CLIP NAME:  49K1/03.SYNC.01 
*SOURCE FILE: 19Y08M02
007269  19Y08M02                         A2    C        12:48:57:24 12:48:58:08 01:35:04:00 01:35:04:09 
*FROM CLIP NAME:  49K1/03.SYNC.01 
*SOURCE FILE: 19Y08M02
007270  19Y08M02                         A3    C        12:48:57:24 12:48:58:08 01:35:04:00 01:35:04:09 
*FROM CLIP NAME:  49K1/03.SYNC.01 
*SOURCE FILE: 19Y08M02
007271  19Y08M02                         A4    C        12:48:57:24 12:48:58:08 01:35:04:00 01:35:04:09 
*FROM CLIP NAME:  49K1/03.SYNC.01 
*SOURCE FILE: 19Y08M02
007272  19Y08M02                         A5    C        12:48:57:24 12:48:58:08 01:35:04:00 01:35:04:09 
*FROM CLIP NAME:  49K1/03.SYNC.01 
*PATCH 19Y08M02:  FROM SOURCE 1 TO RECORD 5 
*SOURCE FILE: 19Y08M02
007273  19Y08M02                         A6    C        12:48:57:24 12:48:58:08 01:35:04:00 01:35:04:09 
*FROM CLIP NAME:  49K1/03.SYNC.01 
*SOURCE FILE: 19Y08M02
007274  19Y08M02                         A7    C        12:48:57:24 12:48:58:08 01:35:04:00 01:35:04:09 
*FROM CLIP NAME:  49K1/03.SYNC.01 
*SOURCE FILE: 19Y08M02
007275  19Y08M02                         A8    C        12:48:57:24 12:48:58:08 01:35:04:00 01:35:04:09 
*FROM CLIP NAME:  49K1/03.SYNC.01 
*SOURCE FILE: 19Y08M02
007276  19Y08M02                         A     C        13:58:57:15 13:59:00:16 01:35:04:09 01:35:07:10 
*FROM CLIP NAME:  49K5/02.SYNC.01 
*SOURCE FILE: 19Y08M02
007277  19Y08M02                         A2    C        13:58:57:15 13:59:00:16 01:35:04:09 01:35:07:10 
*FROM CLIP NAME:  49K5/02.SYNC.01 
*SOURCE FILE: 19Y08M02
007278  19Y08M02                         A3    C        13:58:57:15 13:59:00:16 01:35:04:09 01:35:07:10 
*FROM CLIP NAME:  49K5/02.SYNC.01 
*A3 VOL =  +8.0 DB  PAN R100 
*SOURCE FILE: 19Y08M02
007279  19Y08M02                         A4    C        13:58:57:15 13:59:00:16 01:35:04:09 01:35:07:10 
*FROM CLIP NAME:  49K5/02.SYNC.01 
*SOURCE FILE: 19Y08M02
007280  19Y08M02                         A5    C        13:58:57:15 13:59:00:16 01:35:04:09 01:35:07:10 
*FROM CLIP NAME:  49K5/02.SYNC.01 
*PATCH 19Y08M02:  FROM SOURCE 1 TO RECORD 5 
*SOURCE FILE: 19Y08M02
007281  19Y08M02                         A6    C        13:58:57:15 13:59:00:16 01:35:04:09 01:35:07:10 
*FROM CLIP NAME:  49K5/02.SYNC.01 
*SOURCE FILE: 19Y08M02
007282  19Y08M02                         A7    C        13:58:57:15 13:59:00:16 01:35:04:09 01:35:07:10 
*FROM CLIP NAME:  49K5/02.SYNC.01 
*SOURCE FILE: 19Y08M02
007283  19Y08M02                         A8    C        13:58:57:15 13:59:00:16 01:35:04:09 01:35:07:10 
*FROM CLIP NAME:  49K5/02.SYNC.01 
*SOURCE FILE: 19Y08M02
007284  MSMMMOB.45                       V     C        13:58:58:11 13:59:01:06 01:35:05:20 01:35:08:15 
M2      MSMMMOB.45                                025.0 13:58:58:11 
*FROM CLIP NAME:  A030C004_190802_R32C 
*SOURCE FILE: MSMMMOB.45
007285  19Y08M02                         A     C        13:14:59:05 13:15:02:06 01:35:07:10 01:35:10:11 
*FROM CLIP NAME:  49K3/01.SYNC.01 
*SOURCE FILE: 19Y08M02
007286  19Y08M02                         A2    C        13:14:59:05 13:15:02:06 01:35:07:10 01:35:10:11 
*FROM CLIP NAME:  49K3/01.SYNC.01 
*SOURCE FILE: 19Y08M02
007287  19Y08M02                         A3    C        13:14:59:05 13:15:02:06 01:35:07:10 01:35:10:11 
*FROM CLIP NAME:  49K3/01.SYNC.01 
*SOURCE FILE: 19Y08M02
007288  19Y08M02                         A4    C        13:14:59:05 13:15:02:06 01:35:07:10 01:35:10:11 
*FROM CLIP NAME:  49K3/01.SYNC.01 
*SOURCE FILE: 19Y08M02
007289  19Y08M02                         A5    C        13:14:59:05 13:15:02:06 01:35:07:10 01:35:10:11 
*FROM CLIP NAME:  49K3/01.SYNC.01 
*PATCH 19Y08M02:  FROM SOURCE 1 TO RECORD 5 
*SOURCE FILE: 19Y08M02
007290  19Y08M02                         A6    C        13:14:59:05 13:15:02:06 01:35:07:10 01:35:10:11 
*FROM CLIP NAME:  49K3/01.SYNC.01 
*SOURCE FILE: 19Y08M02
007291  19Y08M02                         A7    C        13:14:59:05 13:15:02:06 01:35:07:10 01:35:10:11 
*FROM CLIP NAME:  49K3/01.SYNC.01 
*SOURCE FILE: 19Y08M02
007292  19Y08M02                         A8    C        13:14:59:05 13:15:02:06 01:35:07:10 01:35:10:11 
*FROM CLIP NAME:  49K3/01.SYNC.01 
*SOURCE FILE: 19Y08M02
007293  MSMMMOB.47                       V     C        12:44:06:21 12:44:09:02 01:35:08:15 01:35:10:21 
M2      MSMMMOB.47                                025.0 12:44:06:21 
*FROM CLIP NAME:  A029C002_190802_R32C 
*SOURCE FILE: MSMMMOB.47
007294  19Y08M02                         A     C        13:42:03:04 13:42:05:08 01:35:10:11 01:35:12:15 
*FROM CLIP NAME:  49K4/02.SYNC.01 
*SOURCE FILE: 19Y08M02
007295  19Y08M02                         A2    C        13:42:03:04 13:42:05:08 01:35:10:11 01:35:12:15 
*FROM CLIP NAME:  49K4/02.SYNC.01 
*SOURCE FILE: 19Y08M02
007296  19Y08M02                         A3    C        13:42:03:04 13:42:05:08 01:35:10:11 01:35:12:15 
*FROM CLIP NAME:  49K4/02.SYNC.01 
*SOURCE FILE: 19Y08M02
007297  19Y08M02                         A4    C        13:42:03:04 13:42:05:08 01:35:10:11 01:35:12:15 
*FROM CLIP NAME:  49K4/02.SYNC.01 
*SOURCE FILE: 19Y08M02
007298  19Y08M02                         A5    C        13:42:03:04 13:42:05:08 01:35:10:11 01:35:12:15 
*FROM CLIP NAME:  49K4/02.SYNC.01 
*PATCH 19Y08M02:  FROM SOURCE 1 TO RECORD 5 
*SOURCE FILE: 19Y08M02
007299  19Y08M02                         A6    C        13:42:03:04 13:42:05:08 01:35:10:11 01:35:12:15 
*FROM CLIP NAME:  49K4/02.SYNC.01 
*SOURCE FILE: 19Y08M02
007300  19Y08M02                         A7    C        13:42:03:04 13:42:05:08 01:35:10:11 01:35:12:15 
*FROM CLIP NAME:  49K4/02.SYNC.01 
*SOURCE FILE: 19Y08M02
007301  19Y08M02                         A8    C        13:42:03:04 13:42:05:08 01:35:10:11 01:35:12:15 
*FROM CLIP NAME:  49K4/02.SYNC.01 
*SOURCE FILE: 19Y08M02
007302  MSMMMOB.39                       V     C        13:42:03:14 13:42:05:08 01:35:10:21 01:35:12:15 
M2      MSMMMOB.39                                025.0 13:42:03:14 
*FROM CLIP NAME:  A030C002_190802_R32C 
*SOURCE FILE: MSMMMOB.39
007303  CINEMASCOPE_2-35-1_CROPLINES.PNG V     C        01:02:19:16 01:03:37:12 01:35:10:21 01:36:28:17 
*FROM CLIP NAME:  CINEMASCOPE 2-35-1 CROPLINES.PNG 
*SOURCE FILE: CINEMASCOPE 2-35-1 CROPLINES.PNG
007304  MSMMMOB.62                       V     C        12:49:18:12 12:49:21:07 01:35:12:15 01:35:15:10 
M2      MSMMMOB.62                                025.0 12:49:18:12 
*FROM CLIP NAME:  A029C003_190802_R32C 
*SOURCE FILE: MSMMMOB.62
007305  19Y08M02                         A     C        12:49:18:12 12:49:22:15 01:35:12:15 01:35:16:18 
*FROM CLIP NAME:  49K1/03.SYNC.01 
*SOURCE FILE: 19Y08M02
007306  19Y08M02                         A2    C        12:49:18:12 12:49:22:15 01:35:12:15 01:35:16:18 
*FROM CLIP NAME:  49K1/03.SYNC.01 
*SOURCE FILE: 19Y08M02
007307  19Y08M02                         A3    C        12:49:18:12 12:49:22:15 01:35:12:15 01:35:16:18 
*FROM CLIP NAME:  49K1/03.SYNC.01 
*SOURCE FILE: 19Y08M02
007308  19Y08M02                         A4    C        12:49:18:12 12:49:22:15 01:35:12:15 01:35:16:18 
*FROM CLIP NAME:  49K1/03.SYNC.01 
*SOURCE FILE: 19Y08M02
007309  19Y08M02                         A5    C        12:49:18:12 12:49:22:15 01:35:12:15 01:35:16:18 
*FROM CLIP NAME:  49K1/03.SYNC.01 
*PATCH 19Y08M02:  FROM SOURCE 1 TO RECORD 5 
*SOURCE FILE: 19Y08M02
007310  19Y08M02                         A6    C        12:49:18:12 12:49:22:15 01:35:12:15 01:35:16:18 
*FROM CLIP NAME:  49K1/03.SYNC.01 
*A6 VOL =  +9.1 DB  PAN L100 
*SOURCE FILE: 19Y08M02
007311  19Y08M02                         A7    C        12:49:18:12 12:49:22:15 01:35:12:15 01:35:16:18 
*FROM CLIP NAME:  49K1/03.SYNC.01 
*SOURCE FILE: 19Y08M02
007312  19Y08M02                         A8    C        12:49:18:12 12:49:22:15 01:35:12:15 01:35:16:18 
*FROM CLIP NAME:  49K1/03.SYNC.01 
*SOURCE FILE: 19Y08M02
007313  MSMMMOB.39                       V     C        13:42:06:16 13:42:07:17 01:35:15:10 01:35:16:11 
M2      MSMMMOB.39                                025.0 13:42:06:16 
*FROM CLIP NAME:  A030C002_190802_R32C 
*SOURCE FILE: MSMMMOB.39
007314  MSMMMOB.02                       V     C        13:19:23:12 13:19:24:09 01:35:16:11 01:35:17:08 
M2      MSMMMOB.02                                025.0 13:19:23:12 
*FROM CLIP NAME:  A029C007_190802_R32C 
*SOURCE FILE: MSMMMOB.02
007315  19Y08M02                         A     C        13:19:23:19 13:19:24:15 01:35:16:18 01:35:17:14 
*FROM CLIP NAME:  49K3/02.SYNC.01 
*SOURCE FILE: 19Y08M02
007316  19Y08M02                         A2    C        13:19:23:19 13:19:24:15 01:35:16:18 01:35:17:14 
*FROM CLIP NAME:  49K3/02.SYNC.01 
*SOURCE FILE: 19Y08M02
007317  19Y08M02                         A3    C        13:19:23:19 13:19:24:15 01:35:16:18 01:35:17:14 
*FROM CLIP NAME:  49K3/02.SYNC.01 
*SOURCE FILE: 19Y08M02
007318  19Y08M02                         A4    C        13:19:23:19 13:19:24:15 01:35:16:18 01:35:17:14 
*FROM CLIP NAME:  49K3/02.SYNC.01 
*SOURCE FILE: 19Y08M02
007319  19Y08M02                         A5    C        13:19:23:19 13:19:24:15 01:35:16:18 01:35:17:14 
*FROM CLIP NAME:  49K3/02.SYNC.01 
*PATCH 19Y08M02:  FROM SOURCE 1 TO RECORD 5 
*SOURCE FILE: 19Y08M02
007320  19Y08M02                         A6    C        13:19:23:19 13:19:24:15 01:35:16:18 01:35:17:14 
*FROM CLIP NAME:  49K3/02.SYNC.01 
*A6 VOL =  +8.0 DB  PAN L100 
*SOURCE FILE: 19Y08M02
007321  19Y08M02                         A7    C        13:19:23:19 13:19:24:15 01:35:16:18 01:35:17:14 
*FROM CLIP NAME:  49K3/02.SYNC.01 
*SOURCE FILE: 19Y08M02
007322  19Y08M02                         A8    C        13:19:23:19 13:19:24:15 01:35:16:18 01:35:17:14 
*FROM CLIP NAME:  49K3/02.SYNC.01 
*SOURCE FILE: 19Y08M02
007323  MSMMMOB.59                       V     C        14:08:30:22 14:08:31:17 01:35:17:08 01:35:18:03 
M2      MSMMMOB.59                                025.0 14:08:30:22 
*FROM CLIP NAME:  A030C006_190802_R32C 
*SOURCE FILE: MSMMMOB.59
007324  19Y08M02                         A     C        13:59:15:09 13:59:15:23 01:35:17:14 01:35:18:03 
*FROM CLIP NAME:  49K5/02.SYNC.01 
*SOURCE FILE: 19Y08M02
007325  19Y08M02                         A2    C        13:59:15:09 13:59:15:23 01:35:17:14 01:35:18:03 
*FROM CLIP NAME:  49K5/02.SYNC.01 
*SOURCE FILE: 19Y08M02
007326  19Y08M02                         A3    C        13:59:15:09 13:59:15:23 01:35:17:14 01:35:18:03 
*FROM CLIP NAME:  49K5/02.SYNC.01 
*SOURCE FILE: 19Y08M02
007327  19Y08M02                         A4    C        13:59:15:09 13:59:15:23 01:35:17:14 01:35:18:03 
*FROM CLIP NAME:  49K5/02.SYNC.01 
*SOURCE FILE: 19Y08M02
007328  19Y08M02                         A5    C        13:59:15:09 13:59:15:23 01:35:17:14 01:35:18:03 
*FROM CLIP NAME:  49K5/02.SYNC.01 
*PATCH 19Y08M02:  FROM SOURCE 1 TO RECORD 5 
*SOURCE FILE: 19Y08M02
007329  19Y08M02                         A6    C        13:59:15:09 13:59:15:23 01:35:17:14 01:35:18:03 
*FROM CLIP NAME:  49K5/02.SYNC.01 
*SOURCE FILE: 19Y08M02
007330  19Y08M02                         A7    C        13:59:15:09 13:59:15:23 01:35:17:14 01:35:18:03 
*FROM CLIP NAME:  49K5/02.SYNC.01 
*SOURCE FILE: 19Y08M02
007331  19Y08M02                         A8    C        13:59:15:09 13:59:15:23 01:35:17:14 01:35:18:03 
*FROM CLIP NAME:  49K5/02.SYNC.01 
*SOURCE FILE: 19Y08M02
007332  MSMMMOB.11                       V     C        13:02:10:00 13:02:10:21 01:35:18:03 01:35:18:24 
M2      MSMMMOB.11                                025.0 13:02:10:00 
*FROM CLIP NAME:  A029C004_190802_R32C 
*SOURCE FILE: MSMMMOB.11
007333  19Y08M02                         A     C        13:02:10:00 13:02:10:21 01:35:18:03 01:35:18:24 
*FROM CLIP NAME:  49K2/01.SYNC.01 
*SOURCE FILE: 19Y08M02
007334  19Y08M02                         A2    C        13:02:10:00 13:02:10:21 01:35:18:03 01:35:18:24 
*FROM CLIP NAME:  49K2/01.SYNC.01 
*SOURCE FILE: 19Y08M02
007335  19Y08M02                         A3    C        13:02:10:00 13:02:10:21 01:35:18:03 01:35:18:24 
*FROM CLIP NAME:  49K2/01.SYNC.01 
*SOURCE FILE: 19Y08M02
007336  19Y08M02                         A4    C        13:02:10:00 13:02:10:21 01:35:18:03 01:35:18:24 
*FROM CLIP NAME:  49K2/01.SYNC.01 
*SOURCE FILE: 19Y08M02
007337  19Y08M02                         A5    C        13:02:10:00 13:02:10:21 01:35:18:03 01:35:18:24 
*FROM CLIP NAME:  49K2/01.SYNC.01 
*PATCH 19Y08M02:  FROM SOURCE 1 TO RECORD 5 
*SOURCE FILE: 19Y08M02
007338  19Y08M02                         A6    C        13:02:10:00 13:02:10:21 01:35:18:03 01:35:18:24 
*FROM CLIP NAME:  49K2/01.SYNC.01 
*A6 VOL =  +8.5 DB  PAN L100 
*SOURCE FILE: 19Y08M02
007339  19Y08M02                         A7    C        13:02:10:00 13:02:10:21 01:35:18:03 01:35:18:24 
*FROM CLIP NAME:  49K2/01.SYNC.01 
*SOURCE FILE: 19Y08M02
007340  19Y08M02                         A8    C        13:02:10:00 13:02:10:21 01:35:18:03 01:35:18:24 
*FROM CLIP NAME:  49K2/01.SYNC.01 
*SOURCE FILE: 19Y08M02
007341  MSMMMOB.39                       V     C        13:42:11:03 13:42:15:02 01:35:18:24 01:35:22:23 
M2      MSMMMOB.39                                025.0 13:42:11:03 
*FROM CLIP NAME:  A030C002_190802_R32C 
*SOURCE FILE: MSMMMOB.39
007342  19Y08M02                         A     C        12:49:25:11 12:49:31:24 01:35:18:24 01:35:25:12 
*FROM CLIP NAME:  49K1/03.SYNC.01 
*SOURCE FILE: 19Y08M02
007343  19Y08M02                         A2    C        12:49:25:11 12:49:31:24 01:35:18:24 01:35:25:12 
*FROM CLIP NAME:  49K1/03.SYNC.01 
*SOURCE FILE: 19Y08M02
007344  19Y08M02                         A3    C        12:49:25:11 12:49:31:24 01:35:18:24 01:35:25:12 
*FROM CLIP NAME:  49K1/03.SYNC.01 
*SOURCE FILE: 19Y08M02
007345  19Y08M02                         A4    C        12:49:25:11 12:49:31:24 01:35:18:24 01:35:25:12 
*FROM CLIP NAME:  49K1/03.SYNC.01 
*SOURCE FILE: 19Y08M02
007346  19Y08M02                         A5    C        12:49:25:11 12:49:31:24 01:35:18:24 01:35:25:12 
*FROM CLIP NAME:  49K1/03.SYNC.01 
*PATCH 19Y08M02:  FROM SOURCE 1 TO RECORD 5 
*SOURCE FILE: 19Y08M02
007347  19Y08M02                         A6    C        12:49:25:11 12:49:31:24 01:35:18:24 01:35:25:12 
*FROM CLIP NAME:  49K1/03.SYNC.01 
*A6 VOL =  +9.1 DB  PAN L100 
*SOURCE FILE: 19Y08M02
007348  19Y08M02                         A7    C        12:49:25:11 12:49:31:24 01:35:18:24 01:35:25:12 
*FROM CLIP NAME:  49K1/03.SYNC.01 
*SOURCE FILE: 19Y08M02
007349  19Y08M02                         A8    C        12:49:25:11 12:49:31:24 01:35:18:24 01:35:25:12 
*FROM CLIP NAME:  49K1/03.SYNC.01 
*SOURCE FILE: 19Y08M02
007350  MSMMMOB.62                       V     C        12:49:29:10 12:49:31:24 01:35:22:23 01:35:25:12 
M2      MSMMMOB.62                                025.0 12:49:29:10 
*FROM CLIP NAME:  A029C003_190802_R32C 
*SOURCE FILE: MSMMMOB.62
007351  19Y08M02                         A     C        13:07:43:06 13:07:43:08 01:35:25:12 01:35:25:14 
*FROM CLIP NAME:  49K2/02.SYNC.01 
*SOURCE FILE: 19Y08M02
007352  19Y08M02                         A2    C        13:07:43:06 13:07:43:08 01:35:25:12 01:35:25:14 
*FROM CLIP NAME:  49K2/02.SYNC.01 
*SOURCE FILE: 19Y08M02
007353  19Y08M02                         A3    C        13:07:43:06 13:07:43:08 01:35:25:12 01:35:25:14 
*FROM CLIP NAME:  49K2/02.SYNC.01 
*SOURCE FILE: 19Y08M02
007354  19Y08M02                         A4    C        13:07:43:06 13:07:43:08 01:35:25:12 01:35:25:14 
*FROM CLIP NAME:  49K2/02.SYNC.01 
*SOURCE FILE: 19Y08M02
007355  19Y08M02                         A5    C        13:07:43:06 13:07:43:08 01:35:25:12 01:35:25:14 
*FROM CLIP NAME:  49K2/02.SYNC.01 
*PATCH 19Y08M02:  FROM SOURCE 1 TO RECORD 5 
*SOURCE FILE: 19Y08M02
007356  19Y08M02                         A6    C        13:07:43:06 13:07:43:08 01:35:25:12 01:35:25:14 
*FROM CLIP NAME:  49K2/02.SYNC.01 
*SOURCE FILE: 19Y08M02
007357  19Y08M02                         A7    C        13:07:43:06 13:07:43:08 01:35:25:12 01:35:25:14 
*FROM CLIP NAME:  49K2/02.SYNC.01 
*SOURCE FILE: 19Y08M02
007358  19Y08M02                         A8    C        13:07:43:06 13:07:43:08 01:35:25:12 01:35:25:14 
*FROM CLIP NAME:  49K2/02.SYNC.01 
*SOURCE FILE: 19Y08M02
007359  MSMMMOB.39                       V     C        13:42:18:21 13:42:20:03 01:35:25:12 01:35:26:19 
M2      MSMMMOB.39                                025.0 13:42:18:21 
*FROM CLIP NAME:  A030C002_190802_R32C 
*SOURCE FILE: MSMMMOB.39
007360  19Y08M02                         A     C        13:19:32:14 13:19:33:07 01:35:25:14 01:35:26:07 
*FROM CLIP NAME:  49K3/02.SYNC.01 
*SOURCE FILE: 19Y08M02
007361  19Y08M02                         A2    C        13:19:32:14 13:19:33:07 01:35:25:14 01:35:26:07 
*FROM CLIP NAME:  49K3/02.SYNC.01 
*SOURCE FILE: 19Y08M02
007362  19Y08M02                         A3    C        13:19:32:14 13:19:33:07 01:35:25:14 01:35:26:07 
*FROM CLIP NAME:  49K3/02.SYNC.01 
*SOURCE FILE: 19Y08M02
007363  19Y08M02                         A4    C        13:19:32:14 13:19:33:07 01:35:25:14 01:35:26:07 
*FROM CLIP NAME:  49K3/02.SYNC.01 
*SOURCE FILE: 19Y08M02
007364  19Y08M02                         A5    C        13:19:32:14 13:19:33:07 01:35:25:14 01:35:26:07 
*FROM CLIP NAME:  49K3/02.SYNC.01 
*PATCH 19Y08M02:  FROM SOURCE 1 TO RECORD 5 
*SOURCE FILE: 19Y08M02
007365  19Y08M02                         A6    C        13:19:32:14 13:19:33:07 01:35:25:14 01:35:26:07 
*FROM CLIP NAME:  49K3/02.SYNC.01 
*SOURCE FILE: 19Y08M02
007366  19Y08M02                         A7    C        13:19:32:14 13:19:33:07 01:35:25:14 01:35:26:07 
*FROM CLIP NAME:  49K3/02.SYNC.01 
*SOURCE FILE: 19Y08M02
007367  19Y08M02                         A8    C        13:19:32:14 13:19:33:07 01:35:25:14 01:35:26:07 
*FROM CLIP NAME:  49K3/02.SYNC.01 
*SOURCE FILE: 19Y08M02
007368  19Y08M02                         A     C        13:19:34:04 13:19:36:22 01:35:26:07 01:35:29:00 
*FROM CLIP NAME:  49K3/02.SYNC.01 
*SOURCE FILE: 19Y08M02
007369  19Y08M02                         A2    C        13:19:34:04 13:19:36:22 01:35:26:07 01:35:29:00 
*FROM CLIP NAME:  49K3/02.SYNC.01 
*SOURCE FILE: 19Y08M02
007370  19Y08M02                         A3    C        13:19:34:04 13:19:36:22 01:35:26:07 01:35:29:00 
*FROM CLIP NAME:  49K3/02.SYNC.01 
*SOURCE FILE: 19Y08M02
007371  19Y08M02                         A4    C        13:19:34:04 13:19:36:22 01:35:26:07 01:35:29:00 
*FROM CLIP NAME:  49K3/02.SYNC.01 
*SOURCE FILE: 19Y08M02
007372  19Y08M02                         A5    C        13:19:34:04 13:19:36:22 01:35:26:07 01:35:29:00 
*FROM CLIP NAME:  49K3/02.SYNC.01 
*PATCH 19Y08M02:  FROM SOURCE 1 TO RECORD 5 
*SOURCE FILE: 19Y08M02
007373  19Y08M02                         A6    C        13:19:34:04 13:19:36:22 01:35:26:07 01:35:29:00 
*FROM CLIP NAME:  49K3/02.SYNC.01 
*A6 VOL =  +8.5 DB  PAN L100 
*SOURCE FILE: 19Y08M02
007374  19Y08M02                         A7    C        13:19:34:04 13:19:36:22 01:35:26:07 01:35:29:00 
*FROM CLIP NAME:  49K3/02.SYNC.01 
*SOURCE FILE: 19Y08M02
007375  19Y08M02                         A8    C        13:19:34:04 13:19:36:22 01:35:26:07 01:35:29:00 
*FROM CLIP NAME:  49K3/02.SYNC.01 
*SOURCE FILE: 19Y08M02
007376  MSMMMOB.02                       V     C        13:19:34:16 13:19:36:01 01:35:26:19 01:35:28:04 
M2      MSMMMOB.02                                025.0 13:19:34:16 
*FROM CLIP NAME:  A029C007_190802_R32C 
*SOURCE FILE: MSMMMOB.02
007377  MSMMMOB.59                       V     C        14:08:42:00 14:08:43:05 01:35:28:04 01:35:29:09 
M2      MSMMMOB.59                                025.0 14:08:42:00 
*FROM CLIP NAME:  A030C006_190802_R32C 
*SOURCE FILE: MSMMMOB.59
007378  19Y08M02                         A     C        13:42:23:06 13:42:28:12 01:35:29:00 01:35:34:06 
*FROM CLIP NAME:  49K4/02.SYNC.01 
*SOURCE FILE: 19Y08M02
007379  19Y08M02                         A2    C        13:42:23:06 13:42:28:12 01:35:29:00 01:35:34:06 
*FROM CLIP NAME:  49K4/02.SYNC.01 
*SOURCE FILE: 19Y08M02
007380  19Y08M02                         A3    C        13:42:23:06 13:42:28:12 01:35:29:00 01:35:34:06 
*FROM CLIP NAME:  49K4/02.SYNC.01 
*SOURCE FILE: 19Y08M02
007381  19Y08M02                         A4    C        13:42:23:06 13:42:28:12 01:35:29:00 01:35:34:06 
*FROM CLIP NAME:  49K4/02.SYNC.01 
*SOURCE FILE: 19Y08M02
007382  19Y08M02                         A5    C        13:42:23:06 13:42:28:12 01:35:29:00 01:35:34:06 
*FROM CLIP NAME:  49K4/02.SYNC.01 
*PATCH 19Y08M02:  FROM SOURCE 1 TO RECORD 5 
*SOURCE FILE: 19Y08M02
007383  19Y08M02                         A6    C        13:42:23:06 13:42:28:12 01:35:29:00 01:35:34:06 
*FROM CLIP NAME:  49K4/02.SYNC.01 
*SOURCE FILE: 19Y08M02
007384  19Y08M02                         A7    C        13:42:23:06 13:42:28:12 01:35:29:00 01:35:34:06 
*FROM CLIP NAME:  49K4/02.SYNC.01 
*SOURCE FILE: 19Y08M02
007385  19Y08M02                         A8    C        13:42:23:06 13:42:28:12 01:35:29:00 01:35:34:06 
*FROM CLIP NAME:  49K4/02.SYNC.01 
*SOURCE FILE: 19Y08M02
007386  MSMMMOB.02                       V     C        13:19:36:09 13:19:37:16 01:35:29:09 01:35:30:16 
M2      MSMMMOB.02                                025.0 13:19:36:09 
*FROM CLIP NAME:  A029C007_190802_R32C 
*SOURCE FILE: MSMMMOB.02
007387  MSMMMOB.39                       V     C        13:42:24:22 13:42:28:12 01:35:30:16 01:35:34:06 
M2      MSMMMOB.39                                025.0 13:42:24:22 
*FROM CLIP NAME:  A030C002_190802_R32C 
*SOURCE FILE: MSMMMOB.39
007388  ITD_LENINGRAD.MP3                A12   C        01:00:54:15 01:00:54:15 01:35:31:01 01:35:31:01 
007388  ITD_LENINGRAD.MP3                A12   D    025 01:00:54:15 01:00:55:15 01:35:31:01 01:35:32:01 
*, D-VERB 
*FROM CLIP NAME:  ITD_LENINGRAD.MP3 
*TO CLIP NAME:  ITD_LENINGRAD.MP3 
*A12 VOL = -12.5 DB  PAN L100 
*A12 VOL = -18.0 DB  PAN L100 
*PATCH ITD_LENINGRAD.MP3:  FROM SOURCE 2 TO RECORD 12 
*PATCH ITD_LENINGRAD.MP3:  FROM SOURCE 2 TO RECORD 12 
*SOURCE FILE: ITD_LENINGRAD.MP3
007389  ITD_LENINGRAD.MP3                A13   C        01:00:54:15 01:00:54:15 01:35:31:01 01:35:31:01 
007389  ITD_LENINGRAD.MP3                A13   D    025 01:00:54:15 01:00:55:15 01:35:31:01 01:35:32:01 
*, D-VERB 
*FROM CLIP NAME:  ITD_LENINGRAD.MP3 
*TO CLIP NAME:  ITD_LENINGRAD.MP3 
*A13 VOL = -12.5 DB  PAN R100 
*A13 VOL = -18.0 DB  PAN R100 
*PATCH ITD_LENINGRAD.MP3:  FROM SOURCE 1 TO RECORD 13 
*PATCH ITD_LENINGRAD.MP3:  FROM SOURCE 1 TO RECORD 13 
*SOURCE FILE: ITD_LENINGRAD.MP3
007390  ITD_LENINGRAD.MP3                A12   C        01:00:55:15 01:01:51:19 01:35:32:01 01:36:28:05 
*, D-VERB 
*FROM CLIP NAME:  ITD_LENINGRAD.MP3 
*A12 VOL = -18.0 DB  PAN L100 
*PATCH ITD_LENINGRAD.MP3:  FROM SOURCE 2 TO RECORD 12 
*SOURCE FILE: ITD_LENINGRAD.MP3
007391  ITD_LENINGRAD.MP3                A13   C        01:00:55:15 01:01:51:19 01:35:32:01 01:36:28:05 
*, D-VERB 
*FROM CLIP NAME:  ITD_LENINGRAD.MP3 
*A13 VOL = -18.0 DB  PAN R100 
*PATCH ITD_LENINGRAD.MP3:  FROM SOURCE 1 TO RECORD 13 
*SOURCE FILE: ITD_LENINGRAD.MP3
007392  MSMMMOB.45                       V     C        13:59:30:24 13:59:33:05 01:35:34:06 01:35:36:12 
M2      MSMMMOB.45                                025.0 13:59:30:24 
*FROM CLIP NAME:  A030C004_190802_R32C 
*SOURCE FILE: MSMMMOB.45
007393  19Y08M02                         A     C        12:49:38:22 12:49:41:03 01:35:34:06 01:35:36:12 
*FROM CLIP NAME:  49K1/03.SYNC.01 
*SOURCE FILE: 19Y08M02
007394  19Y08M02                         A2    C        12:49:38:22 12:49:41:03 01:35:34:06 01:35:36:12 
*FROM CLIP NAME:  49K1/03.SYNC.01 
*SOURCE FILE: 19Y08M02
007395  19Y08M02                         A3    C        12:49:38:22 12:49:41:03 01:35:34:06 01:35:36:12 
*FROM CLIP NAME:  49K1/03.SYNC.01 
*SOURCE FILE: 19Y08M02
007396  19Y08M02                         A4    C        12:49:38:22 12:49:41:03 01:35:34:06 01:35:36:12 
*FROM CLIP NAME:  49K1/03.SYNC.01 
*SOURCE FILE: 19Y08M02
007397  19Y08M02                         A5    C        12:49:38:22 12:49:41:03 01:35:34:06 01:35:36:12 
*FROM CLIP NAME:  49K1/03.SYNC.01 
*PATCH 19Y08M02:  FROM SOURCE 1 TO RECORD 5 
*SOURCE FILE: 19Y08M02
007398  19Y08M02                         A6    C        12:49:38:22 12:49:41:03 01:35:34:06 01:35:36:12 
*FROM CLIP NAME:  49K1/03.SYNC.01 
*A6 VOL =  +9.5 DB  PAN L100 
*SOURCE FILE: 19Y08M02
007399  19Y08M02                         A7    C        12:49:38:22 12:49:41:03 01:35:34:06 01:35:36:12 
*FROM CLIP NAME:  49K1/03.SYNC.01 
*SOURCE FILE: 19Y08M02
007400  19Y08M02                         A8    C        12:49:38:22 12:49:41:03 01:35:34:06 01:35:36:12 
*FROM CLIP NAME:  49K1/03.SYNC.01 
*SOURCE FILE: 19Y08M02
007401  MSMMMOB.02                       V     C        13:19:45:12 13:19:46:07 01:35:36:12 01:35:37:07 
M2      MSMMMOB.02                                025.0 13:19:45:12 
*FROM CLIP NAME:  A029C007_190802_R32C 
*SOURCE FILE: MSMMMOB.02
007402  19Y08M02                         A     C        13:19:45:12 13:19:58:06 01:35:36:12 01:35:49:06 
*FROM CLIP NAME:  49K3/02.SYNC.01 
*SOURCE FILE: 19Y08M02
007403  19Y08M02                         A2    C        13:19:45:12 13:19:58:06 01:35:36:12 01:35:49:06 
*FROM CLIP NAME:  49K3/02.SYNC.01 
*SOURCE FILE: 19Y08M02
007404  19Y08M02                         A3    C        13:19:45:12 13:19:58:06 01:35:36:12 01:35:49:06 
*FROM CLIP NAME:  49K3/02.SYNC.01 
*SOURCE FILE: 19Y08M02
007405  19Y08M02                         A4    C        13:19:45:12 13:19:58:06 01:35:36:12 01:35:49:06 
*FROM CLIP NAME:  49K3/02.SYNC.01 
*SOURCE FILE: 19Y08M02
007406  19Y08M02                         A5    C        13:19:45:12 13:19:58:06 01:35:36:12 01:35:49:06 
*FROM CLIP NAME:  49K3/02.SYNC.01 
*PATCH 19Y08M02:  FROM SOURCE 1 TO RECORD 5 
*SOURCE FILE: 19Y08M02
007407  19Y08M02                         A6    C        13:19:45:12 13:19:58:06 01:35:36:12 01:35:49:06 
*FROM CLIP NAME:  49K3/02.SYNC.01 
*A6 VOL =  +9.1 DB  PAN L100 
*SOURCE FILE: 19Y08M02
007408  19Y08M02                         A7    C        13:19:45:12 13:19:58:06 01:35:36:12 01:35:49:06 
*FROM CLIP NAME:  49K3/02.SYNC.01 
*SOURCE FILE: 19Y08M02
007409  19Y08M02                         A8    C        13:19:45:12 13:19:58:06 01:35:36:12 01:35:49:06 
*FROM CLIP NAME:  49K3/02.SYNC.01 
*SOURCE FILE: 19Y08M02
007410  MSMMMOB.59                       V     C        14:08:51:07 14:08:52:20 01:35:37:07 01:35:38:20 
M2      MSMMMOB.59                                025.0 14:08:51:07 
*FROM CLIP NAME:  A030C006_190802_R32C 
*SOURCE FILE: MSMMMOB.59
007411  MSMMMOB.02                       V     C        13:19:47:20 13:19:57:09 01:35:38:20 01:35:48:09 
M2      MSMMMOB.02                                025.0 13:19:47:20 
*FROM CLIP NAME:  A029C007_190802_R32C 
*SOURCE FILE: MSMMMOB.02
007412  MSMMMOB.38                       V     C        14:07:14:03 14:07:15:08 01:35:48:09 01:35:49:14 
M2      MSMMMOB.38                                025.0 14:07:14:03 
*FROM CLIP NAME:  A030C005_190802_R32C 
*SOURCE FILE: MSMMMOB.38
007413  19Y08M02                         A     C        14:08:59:14 14:08:59:22 01:35:49:06 01:35:49:14 
*FROM CLIP NAME:  49K6/02.SYNC.01 
*SOURCE FILE: 19Y08M02
007414  19Y08M02                         A2    C        14:08:59:14 14:08:59:22 01:35:49:06 01:35:49:14 
*FROM CLIP NAME:  49K6/02.SYNC.01 
*SOURCE FILE: 19Y08M02
007415  19Y08M02                         A3    C        14:08:59:14 14:08:59:22 01:35:49:06 01:35:49:14 
*FROM CLIP NAME:  49K6/02.SYNC.01 
*SOURCE FILE: 19Y08M02
007416  19Y08M02                         A4    C        14:08:59:14 14:08:59:22 01:35:49:06 01:35:49:14 
*FROM CLIP NAME:  49K6/02.SYNC.01 
*SOURCE FILE: 19Y08M02
007417  19Y08M02                         A5    C        14:08:59:14 14:08:59:22 01:35:49:06 01:35:49:14 
*FROM CLIP NAME:  49K6/02.SYNC.01 
*PATCH 19Y08M02:  FROM SOURCE 1 TO RECORD 5 
*SOURCE FILE: 19Y08M02
007418  19Y08M02                         A6    C        14:08:59:14 14:08:59:22 01:35:49:06 01:35:49:14 
*FROM CLIP NAME:  49K6/02.SYNC.01 
*SOURCE FILE: 19Y08M02
007419  19Y08M02                         A7    C        14:08:59:14 14:08:59:22 01:35:49:06 01:35:49:14 
*FROM CLIP NAME:  49K6/02.SYNC.01 
*SOURCE FILE: 19Y08M02
007420  19Y08M02                         A8    C        14:08:59:14 14:08:59:22 01:35:49:06 01:35:49:14 
*FROM CLIP NAME:  49K6/02.SYNC.01 
*SOURCE FILE: 19Y08M02
007421  MSMMMOB.54                       V     C        13:15:46:09 13:15:48:17 01:35:49:14 01:35:51:22 
M2      MSMMMOB.54                                025.0 13:15:46:09 
*FROM CLIP NAME:  A029C006_190802_R32C 
*SOURCE FILE: MSMMMOB.54
007422  19Y08M02                         A     C        13:15:46:09 13:15:48:17 01:35:49:14 01:35:51:22 
*FROM CLIP NAME:  49K3/01.SYNC.01 
*A1 VOL =  +7.0 DB  PAN R100 
*SOURCE FILE: 19Y08M02
007423  19Y08M02                         A2    C        13:15:46:09 13:15:48:17 01:35:49:14 01:35:51:22 
*FROM CLIP NAME:  49K3/01.SYNC.01 
*A2 VOL =  +8.0 DB  PAN L100 
*SOURCE FILE: 19Y08M02
007424  19Y08M02                         A3    C        13:15:46:09 13:15:48:17 01:35:49:14 01:35:51:22 
*FROM CLIP NAME:  49K3/01.SYNC.01 
*SOURCE FILE: 19Y08M02
007425  19Y08M02                         A4    C        13:15:46:09 13:15:48:17 01:35:49:14 01:35:51:22 
*FROM CLIP NAME:  49K3/01.SYNC.01 
*SOURCE FILE: 19Y08M02
007426  19Y08M02                         A5    C        13:15:46:09 13:15:48:17 01:35:49:14 01:35:51:22 
*FROM CLIP NAME:  49K3/01.SYNC.01 
*PATCH 19Y08M02:  FROM SOURCE 1 TO RECORD 5 
*SOURCE FILE: 19Y08M02
007427  19Y08M02                         A6    C        13:15:46:09 13:15:48:17 01:35:49:14 01:35:51:22 
*FROM CLIP NAME:  49K3/01.SYNC.01 
*A6 VOL = +10.0 DB  PAN L100 
*SOURCE FILE: 19Y08M02
007428  19Y08M02                         A7    C        13:15:46:09 13:15:48:17 01:35:49:14 01:35:51:22 
*FROM CLIP NAME:  49K3/01.SYNC.01 
*SOURCE FILE: 19Y08M02
007429  19Y08M02                         A8    C        13:15:46:09 13:15:48:17 01:35:49:14 01:35:51:22 
*FROM CLIP NAME:  49K3/01.SYNC.01 
*SOURCE FILE: 19Y08M02
007430  19Y08M02                         A     C        14:08:59:20 14:09:00:11 01:35:51:22 01:35:52:13 
*FROM CLIP NAME:  49K6/02.SYNC.01 
*SOURCE FILE: 19Y08M02
007431  19Y08M02                         A2    C        14:08:59:20 14:09:00:11 01:35:51:22 01:35:52:13 
*FROM CLIP NAME:  49K6/02.SYNC.01 
*SOURCE FILE: 19Y08M02
007432  19Y08M02                         A3    C        14:08:59:20 14:09:00:11 01:35:51:22 01:35:52:13 
*FROM CLIP NAME:  49K6/02.SYNC.01 
*SOURCE FILE: 19Y08M02
007433  19Y08M02                         A4    C        14:08:59:20 14:09:00:11 01:35:51:22 01:35:52:13 
*FROM CLIP NAME:  49K6/02.SYNC.01 
*SOURCE FILE: 19Y08M02
007434  19Y08M02                         A5    C        14:08:59:20 14:09:00:11 01:35:51:22 01:35:52:13 
*FROM CLIP NAME:  49K6/02.SYNC.01 
*PATCH 19Y08M02:  FROM SOURCE 1 TO RECORD 5 
*SOURCE FILE: 19Y08M02
007435  19Y08M02                         A6    C        14:08:59:20 14:09:00:11 01:35:51:22 01:35:52:13 
*FROM CLIP NAME:  49K6/02.SYNC.01 
*SOURCE FILE: 19Y08M02
007436  19Y08M02                         A7    C        14:08:59:20 14:09:00:11 01:35:51:22 01:35:52:13 
*FROM CLIP NAME:  49K6/02.SYNC.01 
*SOURCE FILE: 19Y08M02
007437  19Y08M02                         A8    C        14:08:59:20 14:09:00:11 01:35:51:22 01:35:52:13 
*FROM CLIP NAME:  49K6/02.SYNC.01 
*SOURCE FILE: 19Y08M02
007438  MSMMMOB.59                       V     C        14:08:59:20 14:09:01:21 01:35:51:22 01:35:53:23 
M2      MSMMMOB.59                                025.0 14:08:59:20 
*FROM CLIP NAME:  A030C006_190802_R32C 
*SOURCE FILE: MSMMMOB.59
007439  19Y08M02                         A     C        13:07:13:12 13:07:14:06 01:35:52:13 01:35:53:07 
*FROM CLIP NAME:  49K2/02.SYNC.01 
*SOURCE FILE: 19Y08M02
007440  19Y08M02                         A2    C        13:07:13:12 13:07:14:06 01:35:52:13 01:35:53:07 
*FROM CLIP NAME:  49K2/02.SYNC.01 
*SOURCE FILE: 19Y08M02
007441  19Y08M02                         A3    C        13:07:13:12 13:07:14:06 01:35:52:13 01:35:53:07 
*FROM CLIP NAME:  49K2/02.SYNC.01 
*SOURCE FILE: 19Y08M02
007442  19Y08M02                         A4    C        13:07:13:12 13:07:14:06 01:35:52:13 01:35:53:07 
*FROM CLIP NAME:  49K2/02.SYNC.01 
*SOURCE FILE: 19Y08M02
007443  19Y08M02                         A5    C        13:07:13:12 13:07:14:06 01:35:52:13 01:35:53:07 
*FROM CLIP NAME:  49K2/02.SYNC.01 
*PATCH 19Y08M02:  FROM SOURCE 1 TO RECORD 5 
*SOURCE FILE: 19Y08M02
007444  19Y08M02                         A6    C        13:07:13:12 13:07:14:06 01:35:52:13 01:35:53:07 
*FROM CLIP NAME:  49K2/02.SYNC.01 
*SOURCE FILE: 19Y08M02
007445  19Y08M02                         A7    C        13:07:13:12 13:07:14:06 01:35:52:13 01:35:53:07 
*FROM CLIP NAME:  49K2/02.SYNC.01 
*SOURCE FILE: 19Y08M02
007446  19Y08M02                         A8    C        13:07:13:12 13:07:14:06 01:35:52:13 01:35:53:07 
*FROM CLIP NAME:  49K2/02.SYNC.01 
*SOURCE FILE: 19Y08M02
007447  19Y08M02                         A     C        14:09:01:05 14:09:01:21 01:35:53:07 01:35:53:23 
*FROM CLIP NAME:  49K6/02.SYNC.01 
*SOURCE FILE: 19Y08M02
007448  19Y08M02                         A2    C        14:09:01:05 14:09:01:21 01:35:53:07 01:35:53:23 
*FROM CLIP NAME:  49K6/02.SYNC.01 
*SOURCE FILE: 19Y08M02
007449  19Y08M02                         A3    C        14:09:01:05 14:09:01:21 01:35:53:07 01:35:53:23 
*FROM CLIP NAME:  49K6/02.SYNC.01 
*SOURCE FILE: 19Y08M02
007450  19Y08M02                         A4    C        14:09:01:05 14:09:01:21 01:35:53:07 01:35:53:23 
*FROM CLIP NAME:  49K6/02.SYNC.01 
*SOURCE FILE: 19Y08M02
007451  19Y08M02                         A5    C        14:09:01:05 14:09:01:21 01:35:53:07 01:35:53:23 
*FROM CLIP NAME:  49K6/02.SYNC.01 
*PATCH 19Y08M02:  FROM SOURCE 1 TO RECORD 5 
*SOURCE FILE: 19Y08M02
007452  19Y08M02                         A6    C        14:09:01:05 14:09:01:21 01:35:53:07 01:35:53:23 
*FROM CLIP NAME:  49K6/02.SYNC.01 
*SOURCE FILE: 19Y08M02
007453  19Y08M02                         A7    C        14:09:01:05 14:09:01:21 01:35:53:07 01:35:53:23 
*FROM CLIP NAME:  49K6/02.SYNC.01 
*SOURCE FILE: 19Y08M02
007454  19Y08M02                         A8    C        14:09:01:05 14:09:01:21 01:35:53:07 01:35:53:23 
*FROM CLIP NAME:  49K6/02.SYNC.01 
*SOURCE FILE: 19Y08M02
007455  MSMMMOB.54                       V     C        13:15:48:17 13:15:51:11 01:35:53:23 01:35:56:17 
M2      MSMMMOB.54                                025.0 13:15:48:17 
*FROM CLIP NAME:  A029C006_190802_R32C 
*SOURCE FILE: MSMMMOB.54
007456  19Y08M02                         A     C        13:15:48:17 13:15:51:11 01:35:53:23 01:35:56:17 
*FROM CLIP NAME:  49K3/01.SYNC.01 
*A1 VOL =  +9.0 DB  PAN R100 
*SOURCE FILE: 19Y08M02
007457  19Y08M02                         A2    C        13:15:48:17 13:15:51:11 01:35:53:23 01:35:56:17 
*FROM CLIP NAME:  49K3/01.SYNC.01 
*A2 VOL =  +9.9 DB  PAN L100 
*SOURCE FILE: 19Y08M02
007458  19Y08M02                         A3    C        13:15:48:17 13:15:51:11 01:35:53:23 01:35:56:17 
*FROM CLIP NAME:  49K3/01.SYNC.01 
*SOURCE FILE: 19Y08M02
007459  19Y08M02                         A4    C        13:15:48:17 13:15:51:11 01:35:53:23 01:35:56:17 
*FROM CLIP NAME:  49K3/01.SYNC.01 
*SOURCE FILE: 19Y08M02
007460  19Y08M02                         A5    C        13:15:48:17 13:15:51:11 01:35:53:23 01:35:56:17 
*FROM CLIP NAME:  49K3/01.SYNC.01 
*PATCH 19Y08M02:  FROM SOURCE 1 TO RECORD 5 
*SOURCE FILE: 19Y08M02
007461  19Y08M02                         A6    C        13:15:48:17 13:15:51:11 01:35:53:23 01:35:56:17 
*FROM CLIP NAME:  49K3/01.SYNC.01 
*A6 VOL =  +9.5 DB  PAN L100 
*SOURCE FILE: 19Y08M02
007462  19Y08M02                         A7    C        13:15:48:17 13:15:51:11 01:35:53:23 01:35:56:17 
*FROM CLIP NAME:  49K3/01.SYNC.01 
*SOURCE FILE: 19Y08M02
007463  19Y08M02                         A8    C        13:15:48:17 13:15:51:11 01:35:53:23 01:35:56:17 
*FROM CLIP NAME:  49K3/01.SYNC.01 
*SOURCE FILE: 19Y08M02
007464  19Y08M02                         A     C        13:08:12:09 13:08:13:05 01:35:56:17 01:35:57:13 
*FROM CLIP NAME:  49K2/02.SYNC.01 
*SOURCE FILE: 19Y08M02
007465  19Y08M02                         A2    C        13:08:12:09 13:08:13:05 01:35:56:17 01:35:57:13 
*FROM CLIP NAME:  49K2/02.SYNC.01 
*SOURCE FILE: 19Y08M02
007466  19Y08M02                         A3    C        13:08:12:09 13:08:13:05 01:35:56:17 01:35:57:13 
*FROM CLIP NAME:  49K2/02.SYNC.01 
*SOURCE FILE: 19Y08M02
007467  19Y08M02                         A4    C        13:08:12:09 13:08:13:05 01:35:56:17 01:35:57:13 
*FROM CLIP NAME:  49K2/02.SYNC.01 
*SOURCE FILE: 19Y08M02
007468  19Y08M02                         A5    C        13:08:12:09 13:08:13:05 01:35:56:17 01:35:57:13 
*FROM CLIP NAME:  49K2/02.SYNC.01 
*PATCH 19Y08M02:  FROM SOURCE 1 TO RECORD 5 
*SOURCE FILE: 19Y08M02
007469  19Y08M02                         A6    C        13:08:12:09 13:08:13:05 01:35:56:17 01:35:57:13 
*FROM CLIP NAME:  49K2/02.SYNC.01 
*SOURCE FILE: 19Y08M02
007470  19Y08M02                         A7    C        13:08:12:09 13:08:13:05 01:35:56:17 01:35:57:13 
*FROM CLIP NAME:  49K2/02.SYNC.01 
*SOURCE FILE: 19Y08M02
007471  19Y08M02                         A8    C        13:08:12:09 13:08:13:05 01:35:56:17 01:35:57:13 
*FROM CLIP NAME:  49K2/02.SYNC.01 
*SOURCE FILE: 19Y08M02
007472  MSMMMOB.39                       V     C        13:42:41:04 13:42:42:20 01:35:56:17 01:35:58:08 
M2      MSMMMOB.39                                025.0 13:42:41:04 
*FROM CLIP NAME:  A030C002_190802_R32C 
*SOURCE FILE: MSMMMOB.39
007473  19Y08M02                         A     C        13:08:13:05 13:08:13:05 01:35:57:13 01:35:57:13 
007473  19Y08M02                         A     D    002 13:42:52:04 13:42:52:06 01:35:57:13 01:35:57:15 
*FROM CLIP NAME:  49K2/02.SYNC.01 
*TO CLIP NAME:  49K4/02.SYNC.01 
*SOURCE FILE: 19Y08M02
007474  19Y08M02                         A2    C        13:08:13:05 13:08:13:05 01:35:57:13 01:35:57:13 
007474  19Y08M02                         A2    D    002 13:42:52:04 13:42:52:06 01:35:57:13 01:35:57:15 
*FROM CLIP NAME:  49K2/02.SYNC.01 
*TO CLIP NAME:  49K4/02.SYNC.01 
*SOURCE FILE: 19Y08M02
007475  19Y08M02                         A3    C        13:08:13:05 13:08:13:05 01:35:57:13 01:35:57:13 
007475  19Y08M02                         A3    D    002 13:42:52:04 13:42:52:06 01:35:57:13 01:35:57:15 
*FROM CLIP NAME:  49K2/02.SYNC.01 
*TO CLIP NAME:  49K4/02.SYNC.01 
*SOURCE FILE: 19Y08M02
007476  19Y08M02                         A4    C        13:08:13:05 13:08:13:05 01:35:57:13 01:35:57:13 
007476  19Y08M02                         A4    D    002 13:42:52:04 13:42:52:06 01:35:57:13 01:35:57:15 
*FROM CLIP NAME:  49K2/02.SYNC.01 
*TO CLIP NAME:  49K4/02.SYNC.01 
*SOURCE FILE: 19Y08M02
007477  19Y08M02                         A5    C        13:08:13:05 13:08:13:05 01:35:57:13 01:35:57:13 
007477  19Y08M02                         A5    D    002 13:42:52:04 13:42:52:06 01:35:57:13 01:35:57:15 
*FROM CLIP NAME:  49K2/02.SYNC.01 
*TO CLIP NAME:  49K4/02.SYNC.01 
*PATCH 19Y08M02:  FROM SOURCE 1 TO RECORD 5 
*PATCH 19Y08M02:  FROM SOURCE 1 TO RECORD 5 
*SOURCE FILE: 19Y08M02
007478  19Y08M02                         A6    C        13:08:13:05 13:08:13:05 01:35:57:13 01:35:57:13 
007478  19Y08M02                         A6    D    002 13:42:52:04 13:42:52:06 01:35:57:13 01:35:57:15 
*FROM CLIP NAME:  49K2/02.SYNC.01 
*TO CLIP NAME:  49K4/02.SYNC.01 
*SOURCE FILE: 19Y08M02
007479  19Y08M02                         A7    C        13:08:13:05 13:08:13:05 01:35:57:13 01:35:57:13 
007479  19Y08M02                         A7    D    002 13:42:52:04 13:42:52:06 01:35:57:13 01:35:57:15 
*FROM CLIP NAME:  49K2/02.SYNC.01 
*TO CLIP NAME:  49K4/02.SYNC.01 
*SOURCE FILE: 19Y08M02
007480  19Y08M02                         A8    C        13:08:13:05 13:08:13:05 01:35:57:13 01:35:57:13 
007480  19Y08M02                         A8    D    002 13:42:52:04 13:42:52:06 01:35:57:13 01:35:57:15 
*FROM CLIP NAME:  49K2/02.SYNC.01 
*TO CLIP NAME:  49K4/02.SYNC.01 
*SOURCE FILE: 19Y08M02
007481  19Y08M02                         A     C        13:42:52:06 13:42:52:24 01:35:57:15 01:35:58:08 
*FROM CLIP NAME:  49K4/02.SYNC.01 
*SOURCE FILE: 19Y08M02
007482  19Y08M02                         A2    C        13:42:52:06 13:42:52:24 01:35:57:15 01:35:58:08 
*FROM CLIP NAME:  49K4/02.SYNC.01 
*SOURCE FILE: 19Y08M02
007483  19Y08M02                         A3    C        13:42:52:06 13:42:52:24 01:35:57:15 01:35:58:08 
*FROM CLIP NAME:  49K4/02.SYNC.01 
*SOURCE FILE: 19Y08M02
007484  19Y08M02                         A4    C        13:42:52:06 13:42:52:24 01:35:57:15 01:35:58:08 
*FROM CLIP NAME:  49K4/02.SYNC.01 
*SOURCE FILE: 19Y08M02
007485  19Y08M02                         A5    C        13:42:52:06 13:42:52:24 01:35:57:15 01:35:58:08 
*FROM CLIP NAME:  49K4/02.SYNC.01 
*PATCH 19Y08M02:  FROM SOURCE 1 TO RECORD 5 
*SOURCE FILE: 19Y08M02
007486  19Y08M02                         A6    C        13:42:52:06 13:42:52:24 01:35:57:15 01:35:58:08 
*FROM CLIP NAME:  49K4/02.SYNC.01 
*SOURCE FILE: 19Y08M02
007487  19Y08M02                         A7    C        13:42:52:06 13:42:52:24 01:35:57:15 01:35:58:08 
*FROM CLIP NAME:  49K4/02.SYNC.01 
*SOURCE FILE: 19Y08M02
007488  19Y08M02                         A8    C        13:42:52:06 13:42:52:24 01:35:57:15 01:35:58:08 
*FROM CLIP NAME:  49K4/02.SYNC.01 
*SOURCE FILE: 19Y08M02
007489  MSMMMOB.45                       V     C        13:59:48:04 13:59:49:09 01:35:58:08 01:35:59:13 
M2      MSMMMOB.45                                025.0 13:59:48:04 
*FROM CLIP NAME:  A030C004_190802_R32C 
*SOURCE FILE: MSMMMOB.45
007490  19Y08M02                         A     C        13:59:48:04 13:59:49:09 01:35:58:08 01:35:59:13 
*FROM CLIP NAME:  49K5/02.SYNC.01 
*SOURCE FILE: 19Y08M02
007491  19Y08M02                         A2    C        13:59:48:04 13:59:49:09 01:35:58:08 01:35:59:13 
*FROM CLIP NAME:  49K5/02.SYNC.01 
*SOURCE FILE: 19Y08M02
007492  19Y08M02                         A3    C        13:59:48:04 13:59:49:09 01:35:58:08 01:35:59:13 
*FROM CLIP NAME:  49K5/02.SYNC.01 
*SOURCE FILE: 19Y08M02
007493  19Y08M02                         A4    C        13:59:48:04 13:59:49:09 01:35:58:08 01:35:59:13 
*FROM CLIP NAME:  49K5/02.SYNC.01 
*SOURCE FILE: 19Y08M02
007494  19Y08M02                         A5    C        13:59:48:04 13:59:49:09 01:35:58:08 01:35:59:13 
*FROM CLIP NAME:  49K5/02.SYNC.01 
*PATCH 19Y08M02:  FROM SOURCE 1 TO RECORD 5 
*SOURCE FILE: 19Y08M02
007495  19Y08M02                         A6    C        13:59:48:04 13:59:49:09 01:35:58:08 01:35:59:13 
*FROM CLIP NAME:  49K5/02.SYNC.01 
*SOURCE FILE: 19Y08M02
007496  19Y08M02                         A7    C        13:59:48:04 13:59:49:09 01:35:58:08 01:35:59:13 
*FROM CLIP NAME:  49K5/02.SYNC.01 
*SOURCE FILE: 19Y08M02
007497  19Y08M02                         A8    C        13:59:48:04 13:59:49:09 01:35:58:08 01:35:59:13 
*FROM CLIP NAME:  49K5/02.SYNC.01 
*SOURCE FILE: 19Y08M02
007498  MSMMMOB.39                       V     C        13:42:44:11 13:42:47:11 01:35:59:13 01:36:02:13 
M2      MSMMMOB.39                                025.0 13:42:44:11 
*FROM CLIP NAME:  A030C002_190802_R32C 
*SOURCE FILE: MSMMMOB.39
007499  19Y08M02                         A     C        13:42:44:11 13:42:47:16 01:35:59:13 01:36:02:18 
*FROM CLIP NAME:  49K4/02.SYNC.01 
*SOURCE FILE: 19Y08M02
007500  19Y08M02                         A2    C        13:42:44:11 13:42:47:16 01:35:59:13 01:36:02:18 
*FROM CLIP NAME:  49K4/02.SYNC.01 
*SOURCE FILE: 19Y08M02
007501  19Y08M02                         A3    C        13:42:44:11 13:42:47:16 01:35:59:13 01:36:02:18 
*FROM CLIP NAME:  49K4/02.SYNC.01 
*SOURCE FILE: 19Y08M02
007502  19Y08M02                         A4    C        13:42:44:11 13:42:47:16 01:35:59:13 01:36:02:18 
*FROM CLIP NAME:  49K4/02.SYNC.01 
*SOURCE FILE: 19Y08M02
007503  19Y08M02                         A5    C        13:42:44:11 13:42:47:16 01:35:59:13 01:36:02:18 
*FROM CLIP NAME:  49K4/02.SYNC.01 
*PATCH 19Y08M02:  FROM SOURCE 1 TO RECORD 5 
*SOURCE FILE: 19Y08M02
007504  19Y08M02                         A6    C        13:42:44:11 13:42:47:16 01:35:59:13 01:36:02:18 
*FROM CLIP NAME:  49K4/02.SYNC.01 
*SOURCE FILE: 19Y08M02
007505  19Y08M02                         A7    C        13:42:44:11 13:42:47:16 01:35:59:13 01:36:02:18 
*FROM CLIP NAME:  49K4/02.SYNC.01 
*SOURCE FILE: 19Y08M02
007506  19Y08M02                         A8    C        13:42:44:11 13:42:47:16 01:35:59:13 01:36:02:18 
*FROM CLIP NAME:  49K4/02.SYNC.01 
*SOURCE FILE: 19Y08M02
007507  MSMMMOB.02                       V     C        13:20:03:14 13:20:04:10 01:36:02:13 01:36:03:09 
M2      MSMMMOB.02                                025.0 13:20:03:14 
*FROM CLIP NAME:  A029C007_190802_R32C 
*SOURCE FILE: MSMMMOB.02
007508  19Y08M02                         A     C        13:20:03:19 13:20:04:14 01:36:02:18 01:36:03:13 
*FROM CLIP NAME:  49K3/02.SYNC.01 
*SOURCE FILE: 19Y08M02
007509  19Y08M02                         A2    C        13:20:03:19 13:20:04:14 01:36:02:18 01:36:03:13 
*FROM CLIP NAME:  49K3/02.SYNC.01 
*SOURCE FILE: 19Y08M02
007510  19Y08M02                         A3    C        13:20:03:19 13:20:04:14 01:36:02:18 01:36:03:13 
*FROM CLIP NAME:  49K3/02.SYNC.01 
*SOURCE FILE: 19Y08M02
007511  19Y08M02                         A4    C        13:20:03:19 13:20:04:14 01:36:02:18 01:36:03:13 
*FROM CLIP NAME:  49K3/02.SYNC.01 
*SOURCE FILE: 19Y08M02
007512  19Y08M02                         A5    C        13:20:03:19 13:20:04:14 01:36:02:18 01:36:03:13 
*FROM CLIP NAME:  49K3/02.SYNC.01 
*PATCH 19Y08M02:  FROM SOURCE 1 TO RECORD 5 
*SOURCE FILE: 19Y08M02
007513  19Y08M02                         A6    C        13:20:03:19 13:20:04:14 01:36:02:18 01:36:03:13 
*FROM CLIP NAME:  49K3/02.SYNC.01 
*SOURCE FILE: 19Y08M02
007514  19Y08M02                         A7    C        13:20:03:19 13:20:04:14 01:36:02:18 01:36:03:13 
*FROM CLIP NAME:  49K3/02.SYNC.01 
*SOURCE FILE: 19Y08M02
007515  19Y08M02                         A8    C        13:20:03:19 13:20:04:14 01:36:02:18 01:36:03:13 
*FROM CLIP NAME:  49K3/02.SYNC.01 
*SOURCE FILE: 19Y08M02
007516  MSMMMOB.15                       V     C        13:55:24:10 13:55:25:06 01:36:03:09 01:36:04:05 
M2      MSMMMOB.15                                025.0 13:55:24:10 
*FROM CLIP NAME:  A030C003_190802_R32C 
*SOURCE FILE: MSMMMOB.15
007517  19Y08M02                         A     C        13:59:52:01 13:59:52:18 01:36:03:13 01:36:04:05 
*FROM CLIP NAME:  49K5/02.SYNC.01 
*SOURCE FILE: 19Y08M02
007518  19Y08M02                         A2    C        13:59:52:01 13:59:52:18 01:36:03:13 01:36:04:05 
*FROM CLIP NAME:  49K5/02.SYNC.01 
*SOURCE FILE: 19Y08M02
007519  19Y08M02                         A3    C        13:59:52:01 13:59:52:18 01:36:03:13 01:36:04:05 
*FROM CLIP NAME:  49K5/02.SYNC.01 
*SOURCE FILE: 19Y08M02
007520  19Y08M02                         A4    C        13:59:52:01 13:59:52:18 01:36:03:13 01:36:04:05 
*FROM CLIP NAME:  49K5/02.SYNC.01 
*SOURCE FILE: 19Y08M02
007521  19Y08M02                         A5    C        13:59:52:01 13:59:52:18 01:36:03:13 01:36:04:05 
*FROM CLIP NAME:  49K5/02.SYNC.01 
*PATCH 19Y08M02:  FROM SOURCE 1 TO RECORD 5 
*SOURCE FILE: 19Y08M02
007522  19Y08M02                         A6    C        13:59:52:01 13:59:52:18 01:36:03:13 01:36:04:05 
*FROM CLIP NAME:  49K5/02.SYNC.01 
*SOURCE FILE: 19Y08M02
007523  19Y08M02                         A7    C        13:59:52:01 13:59:52:18 01:36:03:13 01:36:04:05 
*FROM CLIP NAME:  49K5/02.SYNC.01 
*SOURCE FILE: 19Y08M02
007524  19Y08M02                         A8    C        13:59:52:01 13:59:52:18 01:36:03:13 01:36:04:05 
*FROM CLIP NAME:  49K5/02.SYNC.01 
*SOURCE FILE: 19Y08M02
007525  MSMMMOB.39                       V     C        13:42:49:12 13:42:51:16 01:36:04:05 01:36:06:09 
M2      MSMMMOB.39                                025.0 13:42:49:12 
*FROM CLIP NAME:  A030C002_190802_R32C 
*SOURCE FILE: MSMMMOB.39
007526  19Y08M02                         A     C        13:42:49:12 13:42:51:22 01:36:04:05 01:36:06:15 
*FROM CLIP NAME:  49K4/02.SYNC.01 
*SOURCE FILE: 19Y08M02
007527  19Y08M02                         A2    C        13:42:49:12 13:42:51:22 01:36:04:05 01:36:06:15 
*FROM CLIP NAME:  49K4/02.SYNC.01 
*SOURCE FILE: 19Y08M02
007528  19Y08M02                         A3    C        13:42:49:12 13:42:51:22 01:36:04:05 01:36:06:15 
*FROM CLIP NAME:  49K4/02.SYNC.01 
*SOURCE FILE: 19Y08M02
007529  19Y08M02                         A4    C        13:42:49:12 13:42:51:22 01:36:04:05 01:36:06:15 
*FROM CLIP NAME:  49K4/02.SYNC.01 
*SOURCE FILE: 19Y08M02
007530  19Y08M02                         A5    C        13:42:49:12 13:42:51:22 01:36:04:05 01:36:06:15 
*FROM CLIP NAME:  49K4/02.SYNC.01 
*PATCH 19Y08M02:  FROM SOURCE 1 TO RECORD 5 
*SOURCE FILE: 19Y08M02
007531  19Y08M02                         A6    C        13:42:49:12 13:42:51:22 01:36:04:05 01:36:06:15 
*FROM CLIP NAME:  49K4/02.SYNC.01 
*SOURCE FILE: 19Y08M02
007532  19Y08M02                         A7    C        13:42:49:12 13:42:51:22 01:36:04:05 01:36:06:15 
*FROM CLIP NAME:  49K4/02.SYNC.01 
*SOURCE FILE: 19Y08M02
007533  19Y08M02                         A8    C        13:42:49:12 13:42:51:22 01:36:04:05 01:36:06:15 
*FROM CLIP NAME:  49K4/02.SYNC.01 
*SOURCE FILE: 19Y08M02
007534  MSMMMOB.15                       V     C        13:55:26:07 13:55:27:06 01:36:06:09 01:36:07:08 
M2      MSMMMOB.15                                025.0 13:55:26:07 
*FROM CLIP NAME:  A030C003_190802_R32C 
*SOURCE FILE: MSMMMOB.15
007535  19Y08M02                         A     C        13:55:26:13 13:55:27:06 01:36:06:15 01:36:07:08 
*FROM CLIP NAME:  49K5/01.SYNC.01 
*SOURCE FILE: 19Y08M02
007536  19Y08M02                         A2    C        13:55:26:13 13:55:27:06 01:36:06:15 01:36:07:08 
*FROM CLIP NAME:  49K5/01.SYNC.01 
*SOURCE FILE: 19Y08M02
007537  19Y08M02                         A3    C        13:55:26:13 13:55:27:06 01:36:06:15 01:36:07:08 
*FROM CLIP NAME:  49K5/01.SYNC.01 
*SOURCE FILE: 19Y08M02
007538  19Y08M02                         A4    C        13:55:26:13 13:55:27:06 01:36:06:15 01:36:07:08 
*FROM CLIP NAME:  49K5/01.SYNC.01 
*SOURCE FILE: 19Y08M02
007539  19Y08M02                         A5    C        13:55:26:13 13:55:27:06 01:36:06:15 01:36:07:08 
*FROM CLIP NAME:  49K5/01.SYNC.01 
*PATCH 19Y08M02:  FROM SOURCE 1 TO RECORD 5 
*SOURCE FILE: 19Y08M02
007540  19Y08M02                         A6    C        13:55:26:13 13:55:27:06 01:36:06:15 01:36:07:08 
*FROM CLIP NAME:  49K5/01.SYNC.01 
*SOURCE FILE: 19Y08M02
007541  19Y08M02                         A7    C        13:55:26:13 13:55:27:06 01:36:06:15 01:36:07:08 
*FROM CLIP NAME:  49K5/01.SYNC.01 
*SOURCE FILE: 19Y08M02
007542  19Y08M02                         A8    C        13:55:26:13 13:55:27:06 01:36:06:15 01:36:07:08 
*FROM CLIP NAME:  49K5/01.SYNC.01 
*SOURCE FILE: 19Y08M02
007543  19Y08M02                         A     C        13:42:53:07 13:42:55:11 01:36:07:08 01:36:09:12 
*FROM CLIP NAME:  49K4/02.SYNC.01 
*SOURCE FILE: 19Y08M02
007544  19Y08M02                         A2    C        13:42:53:07 13:42:55:11 01:36:07:08 01:36:09:12 
*FROM CLIP NAME:  49K4/02.SYNC.01 
*SOURCE FILE: 19Y08M02
007545  19Y08M02                         A3    C        13:42:53:07 13:42:55:11 01:36:07:08 01:36:09:12 
*FROM CLIP NAME:  49K4/02.SYNC.01 
*SOURCE FILE: 19Y08M02
007546  19Y08M02                         A4    C        13:42:53:07 13:42:55:11 01:36:07:08 01:36:09:12 
*FROM CLIP NAME:  49K4/02.SYNC.01 
*SOURCE FILE: 19Y08M02
007547  19Y08M02                         A5    C        13:42:53:07 13:42:55:11 01:36:07:08 01:36:09:12 
*FROM CLIP NAME:  49K4/02.SYNC.01 
*PATCH 19Y08M02:  FROM SOURCE 1 TO RECORD 5 
*SOURCE FILE: 19Y08M02
007548  19Y08M02                         A6    C        13:42:53:07 13:42:55:11 01:36:07:08 01:36:09:12 
*FROM CLIP NAME:  49K4/02.SYNC.01 
*SOURCE FILE: 19Y08M02
007549  19Y08M02                         A7    C        13:42:53:07 13:42:55:11 01:36:07:08 01:36:09:12 
*FROM CLIP NAME:  49K4/02.SYNC.01 
*SOURCE FILE: 19Y08M02
007550  19Y08M02                         A8    C        13:42:53:07 13:42:55:11 01:36:07:08 01:36:09:12 
*FROM CLIP NAME:  49K4/02.SYNC.01 
*SOURCE FILE: 19Y08M02
007551  MSMMMOB.39                       V     C        13:42:53:07 13:42:55:23 01:36:07:08 01:36:09:24 
M2      MSMMMOB.39                                025.0 13:42:53:07 
*FROM CLIP NAME:  A030C002_190802_R32C 
*SOURCE FILE: MSMMMOB.39
007552  19Y08M02                         A     C        13:20:14:00 13:20:14:12 01:36:09:12 01:36:09:24 
*FROM CLIP NAME:  49K3/02.SYNC.01 
*SOURCE FILE: 19Y08M02
007553  19Y08M02                         A2    C        13:20:14:00 13:20:14:12 01:36:09:12 01:36:09:24 
*FROM CLIP NAME:  49K3/02.SYNC.01 
*SOURCE FILE: 19Y08M02
007554  19Y08M02                         A3    C        13:20:14:00 13:20:14:12 01:36:09:12 01:36:09:24 
*FROM CLIP NAME:  49K3/02.SYNC.01 
*SOURCE FILE: 19Y08M02
007555  19Y08M02                         A4    C        13:20:14:00 13:20:14:12 01:36:09:12 01:36:09:24 
*FROM CLIP NAME:  49K3/02.SYNC.01 
*SOURCE FILE: 19Y08M02
007556  19Y08M02                         A5    C        13:20:14:00 13:20:14:12 01:36:09:12 01:36:09:24 
*FROM CLIP NAME:  49K3/02.SYNC.01 
*PATCH 19Y08M02:  FROM SOURCE 1 TO RECORD 5 
*SOURCE FILE: 19Y08M02
007557  19Y08M02                         A6    C        13:20:14:00 13:20:14:12 01:36:09:12 01:36:09:24 
*FROM CLIP NAME:  49K3/02.SYNC.01 
*SOURCE FILE: 19Y08M02
007558  19Y08M02                         A7    C        13:20:14:00 13:20:14:12 01:36:09:12 01:36:09:24 
*FROM CLIP NAME:  49K3/02.SYNC.01 
*SOURCE FILE: 19Y08M02
007559  19Y08M02                         A8    C        13:20:14:00 13:20:14:12 01:36:09:12 01:36:09:24 
*FROM CLIP NAME:  49K3/02.SYNC.01 
*SOURCE FILE: 19Y08M02
007560  MSMMMOB.45                       V     C        13:59:58:18 13:59:59:17 01:36:09:24 01:36:10:23 
M2      MSMMMOB.45                                025.0 13:59:58:18 
*FROM CLIP NAME:  A030C004_190802_R32C 
*SOURCE FILE: MSMMMOB.45
007561  19Y08M02                         A     C        13:59:58:18 13:59:59:17 01:36:09:24 01:36:10:23 
*FROM CLIP NAME:  49K5/02.SYNC.01 
*SOURCE FILE: 19Y08M02
007562  19Y08M02                         A2    C        13:59:58:18 13:59:59:17 01:36:09:24 01:36:10:23 
*FROM CLIP NAME:  49K5/02.SYNC.01 
*SOURCE FILE: 19Y08M02
007563  19Y08M02                         A3    C        13:59:58:18 13:59:59:17 01:36:09:24 01:36:10:23 
*FROM CLIP NAME:  49K5/02.SYNC.01 
*SOURCE FILE: 19Y08M02
007564  19Y08M02                         A4    C        13:59:58:18 13:59:59:17 01:36:09:24 01:36:10:23 
*FROM CLIP NAME:  49K5/02.SYNC.01 
*SOURCE FILE: 19Y08M02
007565  19Y08M02                         A5    C        13:59:58:18 13:59:59:17 01:36:09:24 01:36:10:23 
*FROM CLIP NAME:  49K5/02.SYNC.01 
*PATCH 19Y08M02:  FROM SOURCE 1 TO RECORD 5 
*SOURCE FILE: 19Y08M02
007566  19Y08M02                         A6    C        13:59:58:18 13:59:59:17 01:36:09:24 01:36:10:23 
*FROM CLIP NAME:  49K5/02.SYNC.01 
*SOURCE FILE: 19Y08M02
007567  19Y08M02                         A7    C        13:59:58:18 13:59:59:17 01:36:09:24 01:36:10:23 
*FROM CLIP NAME:  49K5/02.SYNC.01 
*SOURCE FILE: 19Y08M02
007568  19Y08M02                         A8    C        13:59:58:18 13:59:59:17 01:36:09:24 01:36:10:23 
*FROM CLIP NAME:  49K5/02.SYNC.01 
*SOURCE FILE: 19Y08M02
007569  MSMMMOB.32                       V     C        13:08:25:02 13:08:26:18 01:36:10:23 01:36:12:14 
M2      MSMMMOB.32                                025.0 13:08:25:02 
*FROM CLIP NAME:  A029C005_190802_R32C 
*SOURCE FILE: MSMMMOB.32
007570  19Y08M02                         A     C        13:08:25:02 13:08:26:18 01:36:10:23 01:36:12:14 
*FROM CLIP NAME:  49K2/02.SYNC.01 
*SOURCE FILE: 19Y08M02
007571  19Y08M02                         A2    C        13:08:25:02 13:08:26:18 01:36:10:23 01:36:12:14 
*FROM CLIP NAME:  49K2/02.SYNC.01 
*SOURCE FILE: 19Y08M02
007572  19Y08M02                         A3    C        13:08:25:02 13:08:26:18 01:36:10:23 01:36:12:14 
*FROM CLIP NAME:  49K2/02.SYNC.01 
*SOURCE FILE: 19Y08M02
007573  19Y08M02                         A4    C        13:08:25:02 13:08:26:18 01:36:10:23 01:36:12:14 
*FROM CLIP NAME:  49K2/02.SYNC.01 
*SOURCE FILE: 19Y08M02
007574  19Y08M02                         A5    C        13:08:25:02 13:08:26:18 01:36:10:23 01:36:12:14 
*FROM CLIP NAME:  49K2/02.SYNC.01 
*PATCH 19Y08M02:  FROM SOURCE 1 TO RECORD 5 
*SOURCE FILE: 19Y08M02
007575  19Y08M02                         A6    C        13:08:25:02 13:08:26:18 01:36:10:23 01:36:12:14 
*FROM CLIP NAME:  49K2/02.SYNC.01 
*SOURCE FILE: 19Y08M02
007576  19Y08M02                         A7    C        13:08:25:02 13:08:26:18 01:36:10:23 01:36:12:14 
*FROM CLIP NAME:  49K2/02.SYNC.01 
*SOURCE FILE: 19Y08M02
007577  19Y08M02                         A8    C        13:08:25:02 13:08:26:18 01:36:10:23 01:36:12:14 
*FROM CLIP NAME:  49K2/02.SYNC.01 
*SOURCE FILE: 19Y08M02
007578  19Y08M02                         A     C        13:08:12:03 13:08:12:13 01:36:12:14 01:36:12:24 
*FROM CLIP NAME:  49K2/02.SYNC.01 
*SOURCE FILE: 19Y08M02
007579  19Y08M02                         A2    C        13:08:12:03 13:08:12:13 01:36:12:14 01:36:12:24 
*FROM CLIP NAME:  49K2/02.SYNC.01 
*SOURCE FILE: 19Y08M02
007580  19Y08M02                         A3    C        13:08:12:03 13:08:12:13 01:36:12:14 01:36:12:24 
*FROM CLIP NAME:  49K2/02.SYNC.01 
*SOURCE FILE: 19Y08M02
007581  19Y08M02                         A4    C        13:08:12:03 13:08:12:13 01:36:12:14 01:36:12:24 
*FROM CLIP NAME:  49K2/02.SYNC.01 
*SOURCE FILE: 19Y08M02
007582  19Y08M02                         A5    C        13:08:12:03 13:08:12:13 01:36:12:14 01:36:12:24 
*FROM CLIP NAME:  49K2/02.SYNC.01 
*PATCH 19Y08M02:  FROM SOURCE 1 TO RECORD 5 
*SOURCE FILE: 19Y08M02
007583  19Y08M02                         A6    C        13:08:12:03 13:08:12:13 01:36:12:14 01:36:12:24 
*FROM CLIP NAME:  49K2/02.SYNC.01 
*SOURCE FILE: 19Y08M02
007584  19Y08M02                         A7    C        13:08:12:03 13:08:12:13 01:36:12:14 01:36:12:24 
*FROM CLIP NAME:  49K2/02.SYNC.01 
*SOURCE FILE: 19Y08M02
007585  19Y08M02                         A8    C        13:08:12:03 13:08:12:13 01:36:12:14 01:36:12:24 
*FROM CLIP NAME:  49K2/02.SYNC.01 
*SOURCE FILE: 19Y08M02
007586  MSMMMOB.39                       V     C        13:42:57:00 13:42:59:03 01:36:12:14 01:36:14:17 
M2      MSMMMOB.39                                025.0 13:42:57:00 
*FROM CLIP NAME:  A030C002_190802_R32C 
*SOURCE FILE: MSMMMOB.39
007587  19Y08M02                         A     C        13:42:57:10 13:42:59:03 01:36:12:24 01:36:14:17 
*FROM CLIP NAME:  49K4/02.SYNC.01 
*SOURCE FILE: 19Y08M02
007588  19Y08M02                         A2    C        13:42:57:10 13:42:59:03 01:36:12:24 01:36:14:17 
*FROM CLIP NAME:  49K4/02.SYNC.01 
*SOURCE FILE: 19Y08M02
007589  19Y08M02                         A3    C        13:42:57:10 13:42:59:03 01:36:12:24 01:36:14:17 
*FROM CLIP NAME:  49K4/02.SYNC.01 
*SOURCE FILE: 19Y08M02
007590  19Y08M02                         A4    C        13:42:57:10 13:42:59:03 01:36:12:24 01:36:14:17 
*FROM CLIP NAME:  49K4/02.SYNC.01 
*SOURCE FILE: 19Y08M02
007591  19Y08M02                         A5    C        13:42:57:10 13:42:59:03 01:36:12:24 01:36:14:17 
*FROM CLIP NAME:  49K4/02.SYNC.01 
*PATCH 19Y08M02:  FROM SOURCE 1 TO RECORD 5 
*SOURCE FILE: 19Y08M02
007592  19Y08M02                         A6    C        13:42:57:10 13:42:59:03 01:36:12:24 01:36:14:17 
*FROM CLIP NAME:  49K4/02.SYNC.01 
*SOURCE FILE: 19Y08M02
007593  19Y08M02                         A7    C        13:42:57:10 13:42:59:03 01:36:12:24 01:36:14:17 
*FROM CLIP NAME:  49K4/02.SYNC.01 
*SOURCE FILE: 19Y08M02
007594  19Y08M02                         A8    C        13:42:57:10 13:42:59:03 01:36:12:24 01:36:14:17 
*FROM CLIP NAME:  49K4/02.SYNC.01 
*SOURCE FILE: 19Y08M02
007595  MSMMMOB.32                       V     C        13:08:27:24 13:08:29:17 01:36:14:17 01:36:16:10 
M2      MSMMMOB.32                                025.0 13:08:27:24 
*FROM CLIP NAME:  A029C005_190802_R32C 
*SOURCE FILE: MSMMMOB.32
007596  19Y08M02                         A     C        13:08:27:24 13:08:29:17 01:36:14:17 01:36:16:10 
*FROM CLIP NAME:  49K2/02.SYNC.01 
*SOURCE FILE: 19Y08M02
007597  19Y08M02                         A2    C        13:08:27:24 13:08:29:17 01:36:14:17 01:36:16:10 
*FROM CLIP NAME:  49K2/02.SYNC.01 
*SOURCE FILE: 19Y08M02
007598  19Y08M02                         A3    C        13:08:27:24 13:08:29:17 01:36:14:17 01:36:16:10 
*FROM CLIP NAME:  49K2/02.SYNC.01 
*SOURCE FILE: 19Y08M02
007599  19Y08M02                         A4    C        13:08:27:24 13:08:29:17 01:36:14:17 01:36:16:10 
*FROM CLIP NAME:  49K2/02.SYNC.01 
*SOURCE FILE: 19Y08M02
007600  19Y08M02                         A5    C        13:08:27:24 13:08:29:17 01:36:14:17 01:36:16:10 
*FROM CLIP NAME:  49K2/02.SYNC.01 
*PATCH 19Y08M02:  FROM SOURCE 1 TO RECORD 5 
*SOURCE FILE: 19Y08M02
007601  19Y08M02                         A6    C        13:08:27:24 13:08:29:17 01:36:14:17 01:36:16:10 
*FROM CLIP NAME:  49K2/02.SYNC.01 
*SOURCE FILE: 19Y08M02
007602  19Y08M02                         A7    C        13:08:27:24 13:08:29:17 01:36:14:17 01:36:16:10 
*FROM CLIP NAME:  49K2/02.SYNC.01 
*SOURCE FILE: 19Y08M02
007603  19Y08M02                         A8    C        13:08:27:24 13:08:29:17 01:36:14:17 01:36:16:10 
*FROM CLIP NAME:  49K2/02.SYNC.01 
*SOURCE FILE: 19Y08M02
007604  MSMMMOB.62                       V     C        12:50:18:17 12:50:25:04 01:36:16:10 01:36:22:22 
M2      MSMMMOB.62                                025.0 12:50:18:17 
*FROM CLIP NAME:  A029C003_190802_R32C 
*SOURCE FILE: MSMMMOB.62
007605  19Y08M02                         A     C        12:50:18:17 12:50:25:14 01:36:16:10 01:36:23:07 
*FROM CLIP NAME:  49K1/03.SYNC.01 
*SOURCE FILE: 19Y08M02
007606  19Y08M02                         A2    C        12:50:18:17 12:50:25:14 01:36:16:10 01:36:23:07 
*FROM CLIP NAME:  49K1/03.SYNC.01 
*SOURCE FILE: 19Y08M02
007607  19Y08M02                         A3    C        12:50:18:17 12:50:25:14 01:36:16:10 01:36:23:07 
*FROM CLIP NAME:  49K1/03.SYNC.01 
*SOURCE FILE: 19Y08M02
007608  19Y08M02                         A4    C        12:50:18:17 12:50:25:14 01:36:16:10 01:36:23:07 
*FROM CLIP NAME:  49K1/03.SYNC.01 
*SOURCE FILE: 19Y08M02
007609  19Y08M02                         A5    C        12:50:18:17 12:50:25:14 01:36:16:10 01:36:23:07 
*FROM CLIP NAME:  49K1/03.SYNC.01 
*PATCH 19Y08M02:  FROM SOURCE 1 TO RECORD 5 
*SOURCE FILE: 19Y08M02
007610  19Y08M02                         A6    C        12:50:18:17 12:50:25:14 01:36:16:10 01:36:23:07 
*FROM CLIP NAME:  49K1/03.SYNC.01 
*SOURCE FILE: 19Y08M02
007611  19Y08M02                         A7    C        12:50:18:17 12:50:25:14 01:36:16:10 01:36:23:07 
*FROM CLIP NAME:  49K1/03.SYNC.01 
*SOURCE FILE: 19Y08M02
007612  19Y08M02                         A8    C        12:50:18:17 12:50:25:14 01:36:16:10 01:36:23:07 
*FROM CLIP NAME:  49K1/03.SYNC.01 
*SOURCE FILE: 19Y08M02
007613  MSMMMOB.32                       V     C        13:08:37:02 13:08:42:22 01:36:22:22 01:36:28:17 
M2      MSMMMOB.32                                025.0 13:08:37:02 
*FROM CLIP NAME:  A029C005_190802_R32C 
*SOURCE FILE: MSMMMOB.32
007614  19Y08M02                         A     C        13:08:37:12 13:08:42:22 01:36:23:07 01:36:28:17 
*FROM CLIP NAME:  49K2/02.SYNC.01 
*SOURCE FILE: 19Y08M02
007615  19Y08M02                         A2    C        13:08:37:12 13:08:42:22 01:36:23:07 01:36:28:17 
*FROM CLIP NAME:  49K2/02.SYNC.01 
*SOURCE FILE: 19Y08M02
007616  19Y08M02                         A3    C        13:08:37:12 13:08:42:22 01:36:23:07 01:36:28:17 
*FROM CLIP NAME:  49K2/02.SYNC.01 
*SOURCE FILE: 19Y08M02
007617  19Y08M02                         A4    C        13:08:37:12 13:08:42:22 01:36:23:07 01:36:28:17 
*FROM CLIP NAME:  49K2/02.SYNC.01 
*SOURCE FILE: 19Y08M02
007618  19Y08M02                         A5    C        13:08:37:12 13:08:42:22 01:36:23:07 01:36:28:17 
*FROM CLIP NAME:  49K2/02.SYNC.01 
*PATCH 19Y08M02:  FROM SOURCE 1 TO RECORD 5 
*SOURCE FILE: 19Y08M02
007619  19Y08M02                         A6    C        13:08:37:12 13:08:42:22 01:36:23:07 01:36:28:17 
*FROM CLIP NAME:  49K2/02.SYNC.01 
*SOURCE FILE: 19Y08M02
007620  19Y08M02                         A7    C        13:08:37:12 13:08:42:22 01:36:23:07 01:36:28:17 
*FROM CLIP NAME:  49K2/02.SYNC.01 
*SOURCE FILE: 19Y08M02
007621  19Y08M02                         A8    C        13:08:37:12 13:08:42:22 01:36:23:07 01:36:28:17 
*FROM CLIP NAME:  49K2/02.SYNC.01 
*SOURCE FILE: 19Y08M02
007622  ITD_LENINGRAD.MP3                A12   C        01:01:51:19 01:01:51:19 01:36:28:05 01:36:28:05 
007622  BL                               A12   D    012 00:00:00:00 00:00:00:12 01:36:28:05 01:36:28:17 
*, D-VERB 
*FROM CLIP NAME:  ITD_LENINGRAD.MP3 
*A12 VOL = -18.0 DB  PAN L100 
*PATCH ITD_LENINGRAD.MP3:  FROM SOURCE 2 TO RECORD 12 
*SOURCE FILE: ITD_LENINGRAD.MP3
007623  ITD_LENINGRAD.MP3                A13   C        01:01:51:19 01:01:51:19 01:36:28:05 01:36:28:05 
007623  BL                               A13   D    012 00:00:00:00 00:00:00:12 01:36:28:05 01:36:28:17 
*, D-VERB 
*FROM CLIP NAME:  ITD_LENINGRAD.MP3 
*A13 VOL = -18.0 DB  PAN R100 
*PATCH ITD_LENINGRAD.MP3:  FROM SOURCE 1 TO RECORD 13 
*SOURCE FILE: ITD_LENINGRAD.MP3
007624  19Y11M24                         A     C        21:09:35:18 21:09:43:13 01:36:28:17 01:36:36:12 
*FROM CLIP NAME:  01-01-1/04 
*SOURCE FILE: 19Y11M24
007625  19Y11M24                         A2    C        21:09:35:18 21:09:43:13 01:36:28:17 01:36:36:12 
*FROM CLIP NAME:  01-01-1/04 
*SOURCE FILE: 19Y11M24
007626  19Y11M24                         A3    C        21:09:35:18 21:09:43:13 01:36:28:17 01:36:36:12 
*FROM CLIP NAME:  01-01-1/04 
*SOURCE FILE: 19Y11M24
007627  CINEMASCOPE_2-35-1_CROPLINES.PNG V     C        01:00:25:20 01:00:41:24 01:36:28:17 01:36:44:21 
*FROM CLIP NAME:  CINEMASCOPE 2-35-1 CROPLINES.PNG 
*SOURCE FILE: CINEMASCOPE 2-35-1 CROPLINES.PNG
007628  MSMMMOB.31                       V     C        21:09:35:18 21:09:51:22 01:36:28:17 01:36:44:21 
M2      MSMMMOB.31                                025.0 21:09:35:18 
*FROM CLIP NAME:  A004C001_191124_R481 
*SOURCE FILE: MSMMMOB.31
007629  19Y11M24                         A     C        21:09:43:13 21:09:43:13 01:36:36:12 01:36:36:12 
007629  19Y11M24                         A     D    002 21:08:53:15 21:08:53:17 01:36:36:12 01:36:36:14 
*FROM CLIP NAME:  01-01-1/04 
*TO CLIP NAME:  01-01-1/04 
*SOURCE FILE: 19Y11M24
007630  19Y11M24                         A2    C        21:09:43:13 21:09:43:13 01:36:36:12 01:36:36:12 
007630  19Y11M24                         A2    D    002 21:08:53:15 21:08:53:17 01:36:36:12 01:36:36:14 
*FROM CLIP NAME:  01-01-1/04 
*TO CLIP NAME:  01-01-1/04 
*SOURCE FILE: 19Y11M24
007631  19Y11M24                         A3    C        21:09:43:13 21:09:43:13 01:36:36:12 01:36:36:12 
007631  19Y11M24                         A3    D    002 21:08:53:15 21:08:53:17 01:36:36:12 01:36:36:14 
*FROM CLIP NAME:  01-01-1/04 
*TO CLIP NAME:  01-01-1/04 
*SOURCE FILE: 19Y11M24
007632  19Y11M24                         A     C        21:08:53:17 21:08:55:08 01:36:36:14 01:36:38:05 
*FROM CLIP NAME:  01-01-1/04 
*SOURCE FILE: 19Y11M24
007633  19Y11M24                         A2    C        21:08:53:17 21:08:55:08 01:36:36:14 01:36:38:05 
*FROM CLIP NAME:  01-01-1/04 
*SOURCE FILE: 19Y11M24
007634  19Y11M24                         A3    C        21:08:53:17 21:08:55:08 01:36:36:14 01:36:38:05 
*FROM CLIP NAME:  01-01-1/04 
*SOURCE FILE: 19Y11M24
007635  19Y11M24                         A4    C        20:46:21:10 20:46:21:17 01:36:38:05 01:36:38:12 
*FROM CLIP NAME:  01-01-1/01 
*PATCH 19Y11M24:  FROM SOURCE 2 TO RECORD 4 
*SOURCE FILE: 19Y11M24
007636  19Y11M24                         A5    C        20:46:21:10 20:46:21:17 01:36:38:05 01:36:38:12 
*FROM CLIP NAME:  01-01-1/01 
*PATCH 19Y11M24:  FROM SOURCE 1 TO RECORD 5 
*SOURCE FILE: 19Y11M24
007637  19Y11M24                         A6    C        20:46:21:10 20:46:21:17 01:36:38:05 01:36:38:12 
*FROM CLIP NAME:  01-01-1/01 
*PATCH 19Y11M24:  FROM SOURCE 3 TO RECORD 6 
*SOURCE FILE: 19Y11M24
007638  19Y11M24                         A     C        21:09:34:05 21:09:34:22 01:36:38:05 01:36:38:22 
*FROM CLIP NAME:  01-01-1/04 
*SOURCE FILE: 19Y11M24
007639  19Y11M24                         A2    C        21:09:34:05 21:09:34:22 01:36:38:05 01:36:38:22 
*FROM CLIP NAME:  01-01-1/04 
*SOURCE FILE: 19Y11M24
007640  19Y11M24                         A3    C        21:09:34:05 21:09:34:22 01:36:38:05 01:36:38:22 
*FROM CLIP NAME:  01-01-1/04 
*SOURCE FILE: 19Y11M24
007641  19Y11M24                         A4    C        20:46:22:07 20:46:22:24 01:36:38:12 01:36:39:04 
*FROM CLIP NAME:  01-01-1/01 
*PATCH 19Y11M24:  FROM SOURCE 2 TO RECORD 4 
*SOURCE FILE: 19Y11M24
007642  19Y11M24                         A5    C        20:46:22:07 20:46:22:24 01:36:38:12 01:36:39:04 
*FROM CLIP NAME:  01-01-1/01 
*PATCH 19Y11M24:  FROM SOURCE 1 TO RECORD 5 
*SOURCE FILE: 19Y11M24
007643  19Y11M24                         A6    C        20:46:22:07 20:46:22:24 01:36:38:12 01:36:39:04 
*FROM CLIP NAME:  01-01-1/01 
*PATCH 19Y11M24:  FROM SOURCE 3 TO RECORD 6 
*SOURCE FILE: 19Y11M24
007644  19Y11M24                         A     C        21:09:45:23 21:09:46:05 01:36:38:22 01:36:39:04 
*FROM CLIP NAME:  01-01-1/04 
*SOURCE FILE: 19Y11M24
007645  19Y11M24                         A2    C        21:09:45:23 21:09:46:05 01:36:38:22 01:36:39:04 
*FROM CLIP NAME:  01-01-1/04 
*SOURCE FILE: 19Y11M24
007646  19Y11M24                         A3    C        21:09:45:23 21:09:46:05 01:36:38:22 01:36:39:04 
*FROM CLIP NAME:  01-01-1/04 
*SOURCE FILE: 19Y11M24
007647  19Y11M24                         A4    C        20:46:32:08 20:46:34:20 01:36:39:04 01:36:41:16 
*FROM CLIP NAME:  01-01-1/01 
*PATCH 19Y11M24:  FROM SOURCE 3 TO RECORD 4 
*SOURCE FILE: 19Y11M24
007648  19Y11M24                         A5    C        20:46:32:08 20:46:34:20 01:36:39:04 01:36:41:16 
*FROM CLIP NAME:  01-01-1/01 
*PATCH 19Y11M24:  FROM SOURCE 1 TO RECORD 5 
*SOURCE FILE: 19Y11M24
007649  19Y11M24                         A6    C        20:46:32:08 20:46:34:20 01:36:39:04 01:36:41:16 
*FROM CLIP NAME:  01-01-1/01 
*PATCH 19Y11M24:  FROM SOURCE 2 TO RECORD 6 
*SOURCE FILE: 19Y11M24
007650  19Y11M24                         A     C        21:09:48:17 21:09:49:07 01:36:41:16 01:36:42:06 
*FROM CLIP NAME:  01-01-1/04 
*SOURCE FILE: 19Y11M24
007651  19Y11M24                         A2    C        21:09:48:17 21:09:49:07 01:36:41:16 01:36:42:06 
*FROM CLIP NAME:  01-01-1/04 
*SOURCE FILE: 19Y11M24
007652  19Y11M24                         A3    C        21:09:48:17 21:09:49:07 01:36:41:16 01:36:42:06 
*FROM CLIP NAME:  01-01-1/04 
*SOURCE FILE: 19Y11M24
007653  19Y11M24                         A     C        20:46:35:06 20:46:35:15 01:36:42:06 01:36:42:15 
*FROM CLIP NAME:  01-01-1/01 
*SOURCE FILE: 19Y11M24
007654  19Y11M24                         A2    C        20:46:35:06 20:46:35:15 01:36:42:06 01:36:42:15 
*FROM CLIP NAME:  01-01-1/01 
*SOURCE FILE: 19Y11M24
007655  19Y11M24                         A3    C        20:46:35:06 20:46:35:15 01:36:42:06 01:36:42:15 
*FROM CLIP NAME:  01-01-1/01 
*SOURCE FILE: 19Y11M24
007656  19Y11M24                         A     C        21:01:32:17 21:01:34:20 01:36:42:15 01:36:44:18 
*FROM CLIP NAME:  01-01-1/02 
*SOURCE FILE: 19Y11M24
007657  19Y11M24                         A2    C        21:01:32:17 21:01:34:20 01:36:42:15 01:36:44:18 
*FROM CLIP NAME:  01-01-1/02 
*SOURCE FILE: 19Y11M24
007658  19Y11M24                         A3    C        21:01:32:17 21:01:34:20 01:36:42:15 01:36:44:18 
*FROM CLIP NAME:  01-01-1/02 
*SOURCE FILE: 19Y11M24
007659  19Y11M24                         A4    C        21:04:57:00 21:04:57:07 01:36:44:15 01:36:44:22 
*FROM CLIP NAME:  01-01-1/03 
*PATCH 19Y11M24:  FROM SOURCE 2 TO RECORD 4 
*SOURCE FILE: 19Y11M24
007660  19Y11M24                         A5    C        21:04:57:00 21:04:57:07 01:36:44:15 01:36:44:22 
*FROM CLIP NAME:  01-01-1/03 
*PATCH 19Y11M24:  FROM SOURCE 1 TO RECORD 5 
*SOURCE FILE: 19Y11M24
007661  19Y11M24                         A6    C        21:04:57:00 21:04:57:07 01:36:44:15 01:36:44:22 
*FROM CLIP NAME:  01-01-1/03 
*PATCH 19Y11M24:  FROM SOURCE 3 TO RECORD 6 
*SOURCE FILE: 19Y11M24
007662  19Y11M24                         A     C        21:09:51:19 21:09:52:00 01:36:44:18 01:36:44:24 
*FROM CLIP NAME:  01-01-1/04 
*SOURCE FILE: 19Y11M24
007663  19Y11M24                         A2    C        21:09:51:19 21:09:52:00 01:36:44:18 01:36:44:24 
*FROM CLIP NAME:  01-01-1/04 
*SOURCE FILE: 19Y11M24
007664  19Y11M24                         A3    C        21:09:51:19 21:09:52:00 01:36:44:18 01:36:44:24 
*FROM CLIP NAME:  01-01-1/04 
*SOURCE FILE: 19Y11M24
007666  MSMMMOB.26                       V     C        21:51:38:16 21:51:40:16 01:36:44:21 01:36:46:21 
M2      MSMMMOB.26                                025.0 21:51:38:16 
*FROM CLIP NAME:  A005C001_191124_R481 
*SOURCE FILE: MSMMMOB.26
007665  CINEMASCOPE_2-35-1_CROPLINES.PNG V     C        01:00:42:08 01:00:44:08 01:36:44:21 01:36:46:21 
*FROM CLIP NAME:  CINEMASCOPE 2-35-1 CROPLINES.PNG 
*SOURCE FILE: CINEMASCOPE 2-35-1 CROPLINES.PNG
007667  19Y11M24                         A     C        21:09:52:08 21:09:52:18 01:36:44:24 01:36:45:09 
*FROM CLIP NAME:  01-01-1/04 
*SOURCE FILE: 19Y11M24
007668  19Y11M24                         A2    C        21:09:52:08 21:09:52:18 01:36:44:24 01:36:45:09 
*FROM CLIP NAME:  01-01-1/04 
*SOURCE FILE: 19Y11M24
007669  19Y11M24                         A3    C        21:09:52:08 21:09:52:18 01:36:44:24 01:36:45:09 
*FROM CLIP NAME:  01-01-1/04 
*SOURCE FILE: 19Y11M24
007670  19Y11M24                         A     C        21:53:42:11 21:53:43:05 01:36:45:09 01:36:46:03 
*FROM CLIP NAME:  01-01-4/02 
*SOURCE FILE: 19Y11M24
007671  19Y11M24                         A2    C        21:53:42:11 21:53:43:05 01:36:45:09 01:36:46:03 
*FROM CLIP NAME:  01-01-4/02 
*SOURCE FILE: 19Y11M24
007672  19Y11M24                         A3    C        21:53:42:11 21:53:43:05 01:36:45:09 01:36:46:03 
*FROM CLIP NAME:  01-01-4/02 
*SOURCE FILE: 19Y11M24
007673  19Y11M24                         A     C        21:53:43:17 21:53:43:19 01:36:46:03 01:36:46:05 
*FROM CLIP NAME:  01-01-4/02 
*SOURCE FILE: 19Y11M24
007674  19Y11M24                         A2    C        21:53:43:17 21:53:43:19 01:36:46:03 01:36:46:05 
*FROM CLIP NAME:  01-01-4/02 
*SOURCE FILE: 19Y11M24
007675  19Y11M24                         A3    C        21:53:43:17 21:53:43:19 01:36:46:03 01:36:46:05 
*FROM CLIP NAME:  01-01-4/02 
*SOURCE FILE: 19Y11M24
007676  19Y11M24                         A     C        21:51:40:00 21:51:40:16 01:36:46:05 01:36:46:21 
*FROM CLIP NAME:  01-01-4/01 
*SOURCE FILE: 19Y11M24
007677  19Y11M24                         A2    C        21:51:40:00 21:51:40:16 01:36:46:05 01:36:46:21 
*FROM CLIP NAME:  01-01-4/01 
*SOURCE FILE: 19Y11M24
007678  19Y11M24                         A3    C        21:51:40:00 21:51:40:16 01:36:46:05 01:36:46:21 
*FROM CLIP NAME:  01-01-4/01 
*SOURCE FILE: 19Y11M24
007679  19Y11M24                         A     C        21:51:40:22 21:51:41:17 01:36:46:21 01:36:47:16 
*FROM CLIP NAME:  01-01-4/01 
*SOURCE FILE: 19Y11M24
007680  19Y11M24                         A2    C        21:51:40:22 21:51:41:17 01:36:46:21 01:36:47:16 
*FROM CLIP NAME:  01-01-4/01 
*SOURCE FILE: 19Y11M24
007681  19Y11M24                         A3    C        21:51:40:22 21:51:41:17 01:36:46:21 01:36:47:16 
*FROM CLIP NAME:  01-01-4/01 
*SOURCE FILE: 19Y11M24
007682  MSMMMOB.27                       V     C        21:05:01:01 21:05:04:17 01:36:46:21 01:36:50:12 
M2      MSMMMOB.27                                025.0 21:05:01:01 
*FROM CLIP NAME:  A003C009_191124_R481 
*SOURCE FILE: MSMMMOB.27
007683  CINEMASCOPE_2-35-1_CROPLINES.PNG V     C        01:00:43:16 01:00:47:07 01:36:46:21 01:36:50:12 
*FROM CLIP NAME:  CINEMASCOPE 2-35-1 CROPLINES.PNG 
*SOURCE FILE: CINEMASCOPE 2-35-1 CROPLINES.PNG
007684  19Y11M24                         A     C        21:05:01:21 21:05:04:17 01:36:47:16 01:36:50:12 
*FROM CLIP NAME:  01-01-1/03 
*SOURCE FILE: 19Y11M24
007685  19Y11M24                         A2    C        21:05:01:21 21:05:04:17 01:36:47:16 01:36:50:12 
*FROM CLIP NAME:  01-01-1/03 
*SOURCE FILE: 19Y11M24
007686  19Y11M24                         A3    C        21:05:01:21 21:05:04:17 01:36:47:16 01:36:50:12 
*FROM CLIP NAME:  01-01-1/03 
*SOURCE FILE: 19Y11M24
007687  MSMMMOB.26                       V     C        21:51:43:01 21:51:45:16 01:36:50:12 01:36:53:02 
M2      MSMMMOB.26                                025.0 21:51:43:01 
*FROM CLIP NAME:  A005C001_191124_R481 
*SOURCE FILE: MSMMMOB.26
007688  19Y11M24                         A     C        21:51:43:01 21:51:45:21 01:36:50:12 01:36:53:07 
*FROM CLIP NAME:  01-01-4/01 
*SOURCE FILE: 19Y11M24
007689  19Y11M24                         A2    C        21:51:43:01 21:51:45:21 01:36:50:12 01:36:53:07 
*FROM CLIP NAME:  01-01-4/01 
*SOURCE FILE: 19Y11M24
007690  19Y11M24                         A3    C        21:51:43:01 21:51:45:21 01:36:50:12 01:36:53:07 
*FROM CLIP NAME:  01-01-4/01 
*SOURCE FILE: 19Y11M24
007691  CINEMASCOPE_2-35-1_CROPLINES.PNG V     C        01:00:47:06 01:00:53:06 01:36:50:12 01:36:56:12 
*FROM CLIP NAME:  CINEMASCOPE 2-35-1 CROPLINES.PNG 
*SOURCE FILE: CINEMASCOPE 2-35-1 CROPLINES.PNG
007692  MSMMMOB.27                       V     C        21:05:07:21 21:05:11:06 01:36:53:02 01:36:56:12 
M2      MSMMMOB.27                                025.0 21:05:07:21 
*FROM CLIP NAME:  A003C009_191124_R481 
*SOURCE FILE: MSMMMOB.27
007693  19Y11M24                         A     C        21:05:08:01 21:05:11:02 01:36:53:07 01:36:56:08 
*FROM CLIP NAME:  01-01-1/03 
*SOURCE FILE: 19Y11M24
007694  19Y11M24                         A2    C        21:05:08:01 21:05:11:02 01:36:53:07 01:36:56:08 
*FROM CLIP NAME:  01-01-1/03 
*SOURCE FILE: 19Y11M24
007695  19Y11M24                         A3    C        21:05:08:01 21:05:11:02 01:36:53:07 01:36:56:08 
*FROM CLIP NAME:  01-01-1/03 
*SOURCE FILE: 19Y11M24
007696  19Y11M24                         A     C        21:53:54:00 21:53:54:04 01:36:56:08 01:36:56:12 
*FROM CLIP NAME:  01-01-4/02 
*SOURCE FILE: 19Y11M24
007697  19Y11M24                         A2    C        21:53:54:00 21:53:54:04 01:36:56:08 01:36:56:12 
*FROM CLIP NAME:  01-01-4/02 
*SOURCE FILE: 19Y11M24
007698  19Y11M24                         A3    C        21:53:54:00 21:53:54:04 01:36:56:08 01:36:56:12 
*FROM CLIP NAME:  01-01-4/02 
*SOURCE FILE: 19Y11M24
007699  MSMMMOB.24                       V     C        21:56:29:20 21:56:32:01 01:36:56:12 01:36:58:18 
M2      MSMMMOB.24                                025.0 21:56:29:20 
*FROM CLIP NAME:  A005C003_191124_R481 
*SOURCE FILE: MSMMMOB.24
007700  CINEMASCOPE_2-35-1_CROPLINES.PNG V     C        01:00:56:09 01:00:58:15 01:36:56:12 01:36:58:18 
*FROM CLIP NAME:  CINEMASCOPE 2-35-1 CROPLINES.PNG 
*SOURCE FILE: CINEMASCOPE 2-35-1 CROPLINES.PNG
007701  19Y11M24                         A     C        21:56:29:20 21:56:32:01 01:36:56:12 01:36:58:18 
*FROM CLIP NAME:  01-01-4/03 
*SOURCE FILE: 19Y11M24
007702  19Y11M24                         A2    C        21:56:29:20 21:56:32:01 01:36:56:12 01:36:58:18 
*FROM CLIP NAME:  01-01-4/03 
*SOURCE FILE: 19Y11M24
007703  19Y11M24                         A3    C        21:56:29:20 21:56:32:01 01:36:56:12 01:36:58:18 
*FROM CLIP NAME:  01-01-4/03 
*SOURCE FILE: 19Y11M24
007704  19Y11M24                         A     C        21:56:32:04 21:56:32:16 01:36:58:18 01:36:59:05 
*FROM CLIP NAME:  01-01-4/03 
*SOURCE FILE: 19Y11M24
007705  19Y11M24                         A2    C        21:56:32:04 21:56:32:16 01:36:58:18 01:36:59:05 
*FROM CLIP NAME:  01-01-4/03 
*SOURCE FILE: 19Y11M24
007706  19Y11M24                         A3    C        21:56:32:04 21:56:32:16 01:36:58:18 01:36:59:05 
*FROM CLIP NAME:  01-01-4/03 
*SOURCE FILE: 19Y11M24
007707  MSMMMOB.63                       V     C        21:01:52:02 21:02:02:16 01:36:58:18 01:37:09:07 
M2      MSMMMOB.63                                025.0 21:01:52:02 
*FROM CLIP NAME:  A003C008_191124_R481 
*SOURCE FILE: MSMMMOB.63
007708  CINEMASCOPE_2-35-1_CROPLINES.PNG V     C        01:00:57:12 01:01:09:19 01:36:58:18 01:37:11:00 
*FROM CLIP NAME:  CINEMASCOPE 2-35-1 CROPLINES.PNG 
*SOURCE FILE: CINEMASCOPE 2-35-1 CROPLINES.PNG
007709  19Y11M24                         A     C        21:01:52:14 21:02:01:02 01:36:59:05 01:37:07:18 
*FROM CLIP NAME:  01-01-1/02 
*SOURCE FILE: 19Y11M24
007710  19Y11M24                         A2    C        21:01:52:14 21:02:01:02 01:36:59:05 01:37:07:18 
*FROM CLIP NAME:  01-01-1/02 
*SOURCE FILE: 19Y11M24
007711  19Y11M24                         A3    C        21:01:52:14 21:02:01:02 01:36:59:05 01:37:07:18 
*FROM CLIP NAME:  01-01-1/02 
*SOURCE FILE: 19Y11M24
007712  19Y11M24                         A4    C        21:10:16:24 21:10:18:13 01:37:07:18 01:37:09:07 
*FROM CLIP NAME:  01-01-1/04 
*PATCH 19Y11M24:  FROM SOURCE 2 TO RECORD 4 
*SOURCE FILE: 19Y11M24
007713  19Y11M24                         A5    C        21:10:16:24 21:10:18:13 01:37:07:18 01:37:09:07 
*FROM CLIP NAME:  01-01-1/04 
*PATCH 19Y11M24:  FROM SOURCE 1 TO RECORD 5 
*SOURCE FILE: 19Y11M24
007714  19Y11M24                         A6    C        21:10:16:24 21:10:18:13 01:37:07:18 01:37:09:07 
*FROM CLIP NAME:  01-01-1/04 
*PATCH 19Y11M24:  FROM SOURCE 3 TO RECORD 6 
*SOURCE FILE: 19Y11M24
007715  19Y11M24                         A4    C        21:10:18:13 21:10:19:17 01:37:09:07 01:37:10:11 
*FROM CLIP NAME:  01-01-1/04 
*PATCH 19Y11M24:  FROM SOURCE 2 TO RECORD 4 
*SOURCE FILE: 19Y11M24
007716  19Y11M24                         A5    C        21:10:18:13 21:10:19:17 01:37:09:07 01:37:10:11 
*FROM CLIP NAME:  01-01-1/04 
*PATCH 19Y11M24:  FROM SOURCE 1 TO RECORD 5 
*SOURCE FILE: 19Y11M24
007717  19Y11M24                         A6    C        21:10:18:13 21:10:19:17 01:37:09:07 01:37:10:11 
*FROM CLIP NAME:  01-01-1/04 
*PATCH 19Y11M24:  FROM SOURCE 3 TO RECORD 6 
*SOURCE FILE: 19Y11M24
007718  MSMMMOB.11                       V     C        21:25:18:21 21:25:20:14 01:37:09:07 01:37:11:00 
M2      MSMMMOB.11                                025.0 21:25:18:21 
*FROM CLIP NAME:  A004C003_191124_R481 
*SOURCE FILE: MSMMMOB.11
007719  19Y11M24                         A     C        21:25:19:22 21:25:20:23 01:37:10:08 01:37:11:09 
*FROM CLIP NAME:  01-01-2/02 
*SOURCE FILE: 19Y11M24
007720  19Y11M24                         A2    C        21:25:19:22 21:25:20:23 01:37:10:08 01:37:11:09 
*FROM CLIP NAME:  01-01-2/02 
*SOURCE FILE: 19Y11M24
007721  19Y11M24                         A3    C        21:25:19:22 21:25:20:23 01:37:10:08 01:37:11:09 
*FROM CLIP NAME:  01-01-2/02 
*SOURCE FILE: 19Y11M24
007722  MSMMMOB.54                       V     C        21:40:00:14 21:40:04:10 01:37:11:00 01:37:14:21 
M2      MSMMMOB.54                                025.0 21:40:00:14 
*FROM CLIP NAME:  A004C005_191124_R481 
*SOURCE FILE: MSMMMOB.54
007723  CINEMASCOPE_2-35-1_CROPLINES.PNG V     C        01:01:07:19 01:01:20:09 01:37:11:00 01:37:23:15 
*FROM CLIP NAME:  CINEMASCOPE 2-35-1 CROPLINES.PNG 
*SOURCE FILE: CINEMASCOPE 2-35-1 CROPLINES.PNG
007724  19Y11M24                         A     C        21:25:21:02 21:25:21:18 01:37:11:09 01:37:12:00 
*FROM CLIP NAME:  01-01-2/02 
*SOURCE FILE: 19Y11M24
007725  19Y11M24                         A2    C        21:25:21:02 21:25:21:18 01:37:11:09 01:37:12:00 
*FROM CLIP NAME:  01-01-2/02 
*SOURCE FILE: 19Y11M24
007726  19Y11M24                         A3    C        21:25:21:02 21:25:21:18 01:37:11:09 01:37:12:00 
*FROM CLIP NAME:  01-01-2/02 
*SOURCE FILE: 19Y11M24
007727  19Y11M24                         A     C        21:40:01:14 21:40:04:10 01:37:12:00 01:37:14:21 
*FROM CLIP NAME:  01-01-3/02 
*SOURCE FILE: 19Y11M24
007728  19Y11M24                         A2    C        21:40:01:14 21:40:04:10 01:37:12:00 01:37:14:21 
*FROM CLIP NAME:  01-01-3/02 
*SOURCE FILE: 19Y11M24
007729  19Y11M24                         A3    C        21:40:01:14 21:40:04:10 01:37:12:00 01:37:14:21 
*FROM CLIP NAME:  01-01-3/02 
*SOURCE FILE: 19Y11M24
007730  MSMMMOB.11                       V     C        21:25:22:23 21:25:25:09 01:37:14:21 01:37:17:07 
M2      MSMMMOB.11                                025.0 21:25:22:23 
*FROM CLIP NAME:  A004C003_191124_R481 
*SOURCE FILE: MSMMMOB.11
007731  19Y11M24                         A     C        21:25:22:23 21:25:25:09 01:37:14:21 01:37:17:07 
*FROM CLIP NAME:  01-01-2/02 
*SOURCE FILE: 19Y11M24
007732  19Y11M24                         A2    C        21:25:22:23 21:25:25:09 01:37:14:21 01:37:17:07 
*FROM CLIP NAME:  01-01-2/02 
*SOURCE FILE: 19Y11M24
007733  19Y11M24                         A3    C        21:25:22:23 21:25:25:09 01:37:14:21 01:37:17:07 
*FROM CLIP NAME:  01-01-2/02 
*SOURCE FILE: 19Y11M24
007734  MSMMMOB.54                       V     C        21:40:06:10 21:40:07:23 01:37:17:07 01:37:18:20 
M2      MSMMMOB.54                                025.0 21:40:06:10 
*FROM CLIP NAME:  A004C005_191124_R481 
*SOURCE FILE: MSMMMOB.54
007735  19Y11M24                         A     C        21:40:06:10 21:40:07:24 01:37:17:07 01:37:18:21 
*FROM CLIP NAME:  01-01-3/02 
*SOURCE FILE: 19Y11M24
007736  19Y11M24                         A2    C        21:40:06:10 21:40:07:24 01:37:17:07 01:37:18:21 
*FROM CLIP NAME:  01-01-3/02 
*SOURCE FILE: 19Y11M24
007737  19Y11M24                         A3    C        21:40:06:10 21:40:07:24 01:37:17:07 01:37:18:21 
*FROM CLIP NAME:  01-01-3/02 
*SOURCE FILE: 19Y11M24
007738  MSMMMOB.31                       V     C        21:10:28:03 21:10:32:23 01:37:18:20 01:37:23:15 
M2      MSMMMOB.31                                025.0 21:10:28:03 
*FROM CLIP NAME:  A004C001_191124_R481 
*SOURCE FILE: MSMMMOB.31
007739  19Y11M24                         A     C        21:10:28:04 21:10:32:17 01:37:18:21 01:37:23:09 
*FROM CLIP NAME:  01-01-1/04 
*SOURCE FILE: 19Y11M24
007740  19Y11M24                         A2    C        21:10:28:04 21:10:32:17 01:37:18:21 01:37:23:09 
*FROM CLIP NAME:  01-01-1/04 
*SOURCE FILE: 19Y11M24
007741  19Y11M24                         A3    C        21:10:28:04 21:10:32:17 01:37:18:21 01:37:23:09 
*FROM CLIP NAME:  01-01-1/04 
*SOURCE FILE: 19Y11M24
007742  19Y11M24                         A     C        21:10:22:02 21:10:22:19 01:37:23:09 01:37:24:01 
*FROM CLIP NAME:  01-01-1/04 
*SOURCE FILE: 19Y11M24
007743  19Y11M24                         A2    C        21:10:22:02 21:10:22:19 01:37:23:09 01:37:24:01 
*FROM CLIP NAME:  01-01-1/04 
*SOURCE FILE: 19Y11M24
007744  19Y11M24                         A3    C        21:10:22:02 21:10:22:19 01:37:23:09 01:37:24:01 
*FROM CLIP NAME:  01-01-1/04 
*SOURCE FILE: 19Y11M24
007746  MSMMMOB.11                       V     C        21:25:32:05 21:25:36:19 01:37:23:15 01:37:28:04 
M2      MSMMMOB.11                                025.0 21:25:32:05 
*FROM CLIP NAME:  A004C003_191124_R481 
*SOURCE FILE: MSMMMOB.11
007745  CINEMASCOPE_2-35-1_CROPLINES.PNG V     C        01:01:19:15 01:01:24:04 01:37:23:15 01:37:28:04 
*FROM CLIP NAME:  CINEMASCOPE 2-35-1 CROPLINES.PNG 
*SOURCE FILE: CINEMASCOPE 2-35-1 CROPLINES.PNG
007747  19Y11M24                         A     C        21:25:32:16 21:25:36:12 01:37:24:01 01:37:27:22 
*FROM CLIP NAME:  01-01-2/02 
*SOURCE FILE: 19Y11M24
007748  19Y11M24                         A2    C        21:25:32:16 21:25:36:12 01:37:24:01 01:37:27:22 
*FROM CLIP NAME:  01-01-2/02 
*SOURCE FILE: 19Y11M24
007749  19Y11M24                         A3    C        21:25:32:16 21:25:36:12 01:37:24:01 01:37:27:22 
*FROM CLIP NAME:  01-01-2/02 
*SOURCE FILE: 19Y11M24
007750  19Y11M24                         A     C        21:52:21:17 21:52:22:10 01:37:27:22 01:37:28:15 
*FROM CLIP NAME:  01-01-4/01 
*SOURCE FILE: 19Y11M24
007751  19Y11M24                         A2    C        21:52:21:17 21:52:22:10 01:37:27:22 01:37:28:15 
*FROM CLIP NAME:  01-01-4/01 
*SOURCE FILE: 19Y11M24
007752  19Y11M24                         A3    C        21:52:21:17 21:52:22:10 01:37:27:22 01:37:28:15 
*FROM CLIP NAME:  01-01-4/01 
*SOURCE FILE: 19Y11M24
007753  MSMMMOB.26                       V     C        21:52:21:24 21:52:23:13 01:37:28:04 01:37:29:18 
M2      MSMMMOB.26                                025.0 21:52:21:24 
*FROM CLIP NAME:  A005C001_191124_R481 
*SOURCE FILE: MSMMMOB.26
007754  CINEMASCOPE_2-35-1_CROPLINES.PNG V     C        01:01:23:20 01:01:32:08 01:37:28:04 01:37:36:17 
*FROM CLIP NAME:  CINEMASCOPE 2-35-1 CROPLINES.PNG 
*SOURCE FILE: CINEMASCOPE 2-35-1 CROPLINES.PNG
007755  19Y11M24                         A     C        21:25:37:24 21:25:38:13 01:37:28:15 01:37:29:04 
*FROM CLIP NAME:  01-01-2/02 
*SOURCE FILE: 19Y11M24
007756  19Y11M24                         A2    C        21:25:37:24 21:25:38:13 01:37:28:15 01:37:29:04 
*FROM CLIP NAME:  01-01-2/02 
*SOURCE FILE: 19Y11M24
007757  19Y11M24                         A3    C        21:25:37:24 21:25:38:13 01:37:28:15 01:37:29:04 
*FROM CLIP NAME:  01-01-2/02 
*SOURCE FILE: 19Y11M24
007758  19Y11M24                         A4    C        21:22:43:16 21:22:45:20 01:37:29:04 01:37:31:08 
*FROM CLIP NAME:  01-01-2/01 
*PATCH 19Y11M24:  FROM SOURCE 1 TO RECORD 4 
*SOURCE FILE: 19Y11M24
007759  19Y11M24                         A5    C        21:22:43:16 21:22:45:20 01:37:29:04 01:37:31:08 
*FROM CLIP NAME:  01-01-2/01 
*PATCH 19Y11M24:  FROM SOURCE 2 TO RECORD 5 
*SOURCE FILE: 19Y11M24
007760  19Y11M24                         A6    C        21:22:43:16 21:22:45:20 01:37:29:04 01:37:31:08 
*FROM CLIP NAME:  01-01-2/01 
*PATCH 19Y11M24:  FROM SOURCE 3 TO RECORD 6 
*SOURCE FILE: 19Y11M24
007761  MSMMMOB.11                       V     C        21:25:39:11 21:25:40:23 01:37:29:18 01:37:31:05 
M2      MSMMMOB.11                                025.0 21:25:39:11 
*FROM CLIP NAME:  A004C003_191124_R481 
*SOURCE FILE: MSMMMOB.11
007762  MSMMMOB.09                       V     C        21:36:56:04 21:37:01:16 01:37:31:05 01:37:36:17 
M2      MSMMMOB.09                                025.0 21:36:56:04 
*FROM CLIP NAME:  A004C004_191124_R481 
*SOURCE FILE: MSMMMOB.09
007763  BL                               A     C        00:00:00:00 00:00:00:00 01:37:31:08 01:37:31:08 
007763  19Y11M24                         A     D    002 21:36:56:07 21:36:56:09 01:37:31:08 01:37:31:10 
*TO CLIP NAME:  01-01-3/01 
*SOURCE FILE: (NULL)
007764  BL                               A2    C        00:00:00:00 00:00:00:00 01:37:31:08 01:37:31:08 
007764  19Y11M24                         A2    D    002 21:36:56:07 21:36:56:09 01:37:31:08 01:37:31:10 
*TO CLIP NAME:  01-01-3/01 
*SOURCE FILE: (NULL)
007765  BL                               A3    C        00:00:00:00 00:00:00:00 01:37:31:08 01:37:31:08 
007765  19Y11M24                         A3    D    002 21:36:56:07 21:36:56:09 01:37:31:08 01:37:31:10 
*TO CLIP NAME:  01-01-3/01 
*SOURCE FILE: (NULL)
007766  19Y11M24                         A4    C        21:22:45:20 21:22:45:20 01:37:31:08 01:37:31:08 
007766  BL                               A4    D    002 00:00:00:00 00:00:00:02 01:37:31:08 01:37:31:10 
*FROM CLIP NAME:  01-01-2/01 
*PATCH 19Y11M24:  FROM SOURCE 1 TO RECORD 4 
*SOURCE FILE: 19Y11M24
007767  19Y11M24                         A5    C        21:22:45:20 21:22:45:20 01:37:31:08 01:37:31:08 
007767  BL                               A5    D    002 00:00:00:00 00:00:00:02 01:37:31:08 01:37:31:10 
*FROM CLIP NAME:  01-01-2/01 
*PATCH 19Y11M24:  FROM SOURCE 2 TO RECORD 5 
*SOURCE FILE: 19Y11M24
007768  19Y11M24                         A6    C        21:22:45:20 21:22:45:20 01:37:31:08 01:37:31:08 
007768  BL                               A6    D    002 00:00:00:00 00:00:00:02 01:37:31:08 01:37:31:10 
*FROM CLIP NAME:  01-01-2/01 
*PATCH 19Y11M24:  FROM SOURCE 3 TO RECORD 6 
*SOURCE FILE: 19Y11M24
007769  19Y11M24                         A     C        21:36:56:09 21:37:01:09 01:37:31:10 01:37:36:10 
*FROM CLIP NAME:  01-01-3/01 
*SOURCE FILE: 19Y11M24
007770  19Y11M24                         A2    C        21:36:56:09 21:37:01:09 01:37:31:10 01:37:36:10 
*FROM CLIP NAME:  01-01-3/01 
*SOURCE FILE: 19Y11M24
007771  19Y11M24                         A3    C        21:36:56:09 21:37:01:09 01:37:31:10 01:37:36:10 
*FROM CLIP NAME:  01-01-3/01 
*SOURCE FILE: 19Y11M24
007772  19Y11M24                         A     C        21:37:01:09 21:37:01:09 01:37:36:10 01:37:36:10 
007772  19Y11M24                         A     D    002 21:25:23:11 21:25:23:13 01:37:36:10 01:37:36:12 
*FROM CLIP NAME:  01-01-3/01 
*TO CLIP NAME:  01-01-2/02 
*SOURCE FILE: 19Y11M24
007773  19Y11M24                         A2    C        21:37:01:09 21:37:01:09 01:37:36:10 01:37:36:10 
007773  19Y11M24                         A2    D    002 21:25:23:11 21:25:23:13 01:37:36:10 01:37:36:12 
*FROM CLIP NAME:  01-01-3/01 
*TO CLIP NAME:  01-01-2/02 
*SOURCE FILE: 19Y11M24
007774  19Y11M24                         A3    C        21:37:01:09 21:37:01:09 01:37:36:10 01:37:36:10 
007774  19Y11M24                         A3    D    002 21:25:23:11 21:25:23:13 01:37:36:10 01:37:36:12 
*FROM CLIP NAME:  01-01-3/01 
*TO CLIP NAME:  01-01-2/02 
*SOURCE FILE: 19Y11M24
007775  19Y11M24                         A     C        21:25:23:13 21:25:24:07 01:37:36:12 01:37:37:06 
*FROM CLIP NAME:  01-01-2/02 
*SOURCE FILE: 19Y11M24
007776  19Y11M24                         A2    C        21:25:23:13 21:25:24:07 01:37:36:12 01:37:37:06 
*FROM CLIP NAME:  01-01-2/02 
*SOURCE FILE: 19Y11M24
007777  19Y11M24                         A3    C        21:25:23:13 21:25:24:07 01:37:36:12 01:37:37:06 
*FROM CLIP NAME:  01-01-2/02 
*SOURCE FILE: 19Y11M24
007779  BL                               V     C        00:00:00:00 00:00:01:16 01:37:36:17 01:37:38:08 
*SOURCE FILE: (NULL)
007781  MSMMMOB.11                       V     C        21:25:44:03 21:25:45:19 01:37:36:17 01:37:38:08 
M2      MSMMMOB.11                                025.0 21:25:44:03 
*FROM CLIP NAME:  A004C003_191124_R481 
*SOURCE FILE: MSMMMOB.11
007780  CINEMASCOPE_2-35-1_CROPLINES.PNG V     C        01:01:32:02 01:01:33:18 01:37:36:17 01:37:38:08 
*FROM CLIP NAME:  CINEMASCOPE 2-35-1 CROPLINES.PNG 
*SOURCE FILE: CINEMASCOPE 2-35-1 CROPLINES.PNG
007778  MSMMMOB.11                       V     C        21:25:45:19 21:25:45:20 01:37:36:17 01:37:38:08 
M2      MSMMMOB.11                                000.0 21:25:45:19 
*FROM CLIP NAME:  A004C003_191124_R481 
** FREEZE FRAME 
*SOURCE FILE: MSMMMOB.11
007782  19Y11M24                         A     C        21:25:24:07 21:25:24:07 01:37:37:06 01:37:37:06 
007782  19Y11M24                         A     D    002 21:25:44:17 21:25:44:19 01:37:37:06 01:37:37:08 
*FROM CLIP NAME:  01-01-2/02 
*TO CLIP NAME:  01-01-2/02 
*SOURCE FILE: 19Y11M24
007783  19Y11M24                         A2    C        21:25:24:07 21:25:24:07 01:37:37:06 01:37:37:06 
007783  19Y11M24                         A2    D    002 21:25:44:17 21:25:44:19 01:37:37:06 01:37:37:08 
*FROM CLIP NAME:  01-01-2/02 
*TO CLIP NAME:  01-01-2/02 
*SOURCE FILE: 19Y11M24
007784  19Y11M24                         A3    C        21:25:24:07 21:25:24:07 01:37:37:06 01:37:37:06 
007784  19Y11M24                         A3    D    002 21:25:44:17 21:25:44:19 01:37:37:06 01:37:37:08 
*FROM CLIP NAME:  01-01-2/02 
*TO CLIP NAME:  01-01-2/02 
*SOURCE FILE: 19Y11M24
007785  19Y11M24                         A     C        21:25:44:19 21:25:45:19 01:37:37:08 01:37:38:08 
*FROM CLIP NAME:  01-01-2/02 
*SOURCE FILE: 19Y11M24
007786  19Y11M24                         A2    C        21:25:44:19 21:25:45:19 01:37:37:08 01:37:38:08 
*FROM CLIP NAME:  01-01-2/02 
*SOURCE FILE: 19Y11M24
007787  19Y11M24                         A3    C        21:25:44:19 21:25:45:19 01:37:37:08 01:37:38:08 
*FROM CLIP NAME:  01-01-2/02 
*SOURCE FILE: 19Y11M24
007788  19Y11M24                         A     C        21:10:47:05 21:10:49:08 01:37:38:08 01:37:40:11 
*FROM CLIP NAME:  01-01-1/04 
*SOURCE FILE: 19Y11M24
007789  19Y11M24                         A2    C        21:10:47:05 21:10:49:08 01:37:38:08 01:37:40:11 
*FROM CLIP NAME:  01-01-1/04 
*SOURCE FILE: 19Y11M24
007790  19Y11M24                         A3    C        21:10:47:05 21:10:49:08 01:37:38:08 01:37:40:11 
*FROM CLIP NAME:  01-01-1/04 
*SOURCE FILE: 19Y11M24
007792  MSMMMOB.31                       V     C        21:10:47:05 21:10:49:20 01:37:38:08 01:37:40:23 
M2      MSMMMOB.31                                025.0 21:10:47:05 
*FROM CLIP NAME:  A004C001_191124_R481 
*SOURCE FILE: MSMMMOB.31
007791  CINEMASCOPE_2-35-1_CROPLINES.PNG V     C        01:01:35:09 01:01:37:24 01:37:38:08 01:37:40:23 
*FROM CLIP NAME:  CINEMASCOPE 2-35-1 CROPLINES.PNG 
*SOURCE FILE: CINEMASCOPE 2-35-1 CROPLINES.PNG
007793  BL                               V     C        00:00:00:00 00:00:33:23 01:37:38:08 01:38:12:06 
*SOURCE FILE: (NULL)
007794  BL                               V     C        00:00:00:00 00:04:05:08 01:37:38:08 01:41:43:16 
*SOURCE FILE: (NULL)
007795  19Y11M24                         A     C        21:57:10:03 21:57:13:04 01:37:40:11 01:37:43:12 
*FROM CLIP NAME:  01-01-4/03 
*SOURCE FILE: 19Y11M24
007796  19Y11M24                         A2    C        21:57:10:03 21:57:13:04 01:37:40:11 01:37:43:12 
*FROM CLIP NAME:  01-01-4/03 
*SOURCE FILE: 19Y11M24
007797  19Y11M24                         A3    C        21:57:10:03 21:57:13:04 01:37:40:11 01:37:43:12 
*FROM CLIP NAME:  01-01-4/03 
*SOURCE FILE: 19Y11M24
007798  MSMMMOB.24                       V     C        21:57:10:15 21:57:13:04 01:37:40:23 01:37:43:12 
M2      MSMMMOB.24                                025.0 21:57:10:15 
*FROM CLIP NAME:  A005C003_191124_R481 
*SOURCE FILE: MSMMMOB.24
007799  CINEMASCOPE_2-35-1_CROPLINES.PNG V     C        01:01:38:19 01:01:46:07 01:37:40:23 01:37:48:11 
*FROM CLIP NAME:  CINEMASCOPE 2-35-1 CROPLINES.PNG 
*SOURCE FILE: CINEMASCOPE 2-35-1 CROPLINES.PNG
007800  MSMMMOB.54                       V     C        21:40:34:18 21:40:39:17 01:37:43:12 01:37:48:11 
M2      MSMMMOB.54                                025.0 21:40:34:18 
*FROM CLIP NAME:  A004C005_191124_R481 
*SOURCE FILE: MSMMMOB.54
007801  19Y11M24                         A     C        21:40:34:18 21:40:39:17 01:37:43:12 01:37:48:11 
*FROM CLIP NAME:  01-01-3/02 
*SOURCE FILE: 19Y11M24
007802  19Y11M24                         A2    C        21:40:34:18 21:40:39:17 01:37:43:12 01:37:48:11 
*FROM CLIP NAME:  01-01-3/02 
*SOURCE FILE: 19Y11M24
007803  19Y11M24                         A3    C        21:40:34:18 21:40:39:17 01:37:43:12 01:37:48:11 
*FROM CLIP NAME:  01-01-3/02 
*SOURCE FILE: 19Y11M24
007804  MSMMMOB.26                       V     C        21:52:40:14 21:52:42:13 01:37:48:11 01:37:50:10 
M2      MSMMMOB.26                                025.0 21:52:40:14 
*FROM CLIP NAME:  A005C001_191124_R481 
*SOURCE FILE: MSMMMOB.26
007805  19Y11M24                         A     C        21:52:40:14 21:52:42:17 01:37:48:11 01:37:50:14 
*FROM CLIP NAME:  01-01-4/01 
*SOURCE FILE: 19Y11M24
007806  19Y11M24                         A2    C        21:52:40:14 21:52:42:17 01:37:48:11 01:37:50:14 
*FROM CLIP NAME:  01-01-4/01 
*SOURCE FILE: 19Y11M24
007807  19Y11M24                         A3    C        21:52:40:14 21:52:42:17 01:37:48:11 01:37:50:14 
*FROM CLIP NAME:  01-01-4/01 
*SOURCE FILE: 19Y11M24
007808  CINEMASCOPE_2-35-1_CROPLINES.PNG V     C        01:01:47:21 01:01:52:11 01:37:48:11 01:37:53:01 
*FROM CLIP NAME:  CINEMASCOPE 2-35-1 CROPLINES.PNG 
*SOURCE FILE: CINEMASCOPE 2-35-1 CROPLINES.PNG
007809  MSMMMOB.54                       V     C        21:40:44:07 21:40:46:23 01:37:50:10 01:37:53:01 
M2      MSMMMOB.54                                025.0 21:40:44:07 
*FROM CLIP NAME:  A004C005_191124_R481 
*SOURCE FILE: MSMMMOB.54
007810  19Y11M24                         A     C        21:40:44:11 21:40:46:23 01:37:50:14 01:37:53:01 
*FROM CLIP NAME:  01-01-3/02 
*PATCH 19Y11M24:  FROM SOURCE 3 TO RECORD 1 
*SOURCE FILE: 19Y11M24
007811  19Y11M24                         A2    C        21:40:44:11 21:40:46:23 01:37:50:14 01:37:53:01 
*FROM CLIP NAME:  01-01-3/02 
*SOURCE FILE: 19Y11M24
007812  19Y11M24                         A3    C        21:40:44:11 21:40:46:23 01:37:50:14 01:37:53:01 
*FROM CLIP NAME:  01-01-3/02 
*PATCH 19Y11M24:  FROM SOURCE 1 TO RECORD 3 
*SOURCE FILE: 19Y11M24
007813  MSMMMOB.24                       V     C        21:57:33:08 21:57:38:13 01:37:53:01 01:37:58:06 
M2      MSMMMOB.24                                025.0 21:57:33:08 
*FROM CLIP NAME:  A005C003_191124_R481 
*SOURCE FILE: MSMMMOB.24
007814  19Y11M24                         A     C        21:57:33:08 21:57:38:23 01:37:53:01 01:37:58:16 
*FROM CLIP NAME:  01-01-4/03 
*SOURCE FILE: 19Y11M24
007815  19Y11M24                         A2    C        21:57:33:08 21:57:38:23 01:37:53:01 01:37:58:16 
*FROM CLIP NAME:  01-01-4/03 
*SOURCE FILE: 19Y11M24
007816  19Y11M24                         A3    C        21:57:33:08 21:57:38:23 01:37:53:01 01:37:58:16 
*FROM CLIP NAME:  01-01-4/03 
*SOURCE FILE: 19Y11M24
007817  CINEMASCOPE_2-35-1_CROPLINES.PNG V     C        01:01:56:20 01:02:14:10 01:37:53:01 01:38:10:16 
*FROM CLIP NAME:  CINEMASCOPE 2-35-1 CROPLINES.PNG 
*SOURCE FILE: CINEMASCOPE 2-35-1 CROPLINES.PNG
007818  MSMMMOB.31                       V     C        21:11:10:12 21:11:14:17 01:37:58:06 01:38:02:11 
M2      MSMMMOB.31                                025.0 21:11:10:12 
*FROM CLIP NAME:  A004C001_191124_R481 
*SOURCE FILE: MSMMMOB.31
007819  19Y11M24                         A     C        21:11:10:22 21:11:14:22 01:37:58:16 01:38:02:16 
*FROM CLIP NAME:  01-01-1/04 
*SOURCE FILE: 19Y11M24
007820  19Y11M24                         A2    C        21:11:10:22 21:11:14:22 01:37:58:16 01:38:02:16 
*FROM CLIP NAME:  01-01-1/04 
*SOURCE FILE: 19Y11M24
007821  19Y11M24                         A3    C        21:11:10:22 21:11:14:22 01:37:58:16 01:38:02:16 
*FROM CLIP NAME:  01-01-1/04 
*SOURCE FILE: 19Y11M24
007822  MSMMMOB.11                       V     C        21:26:22:23 21:26:28:01 01:38:02:11 01:38:07:14 
M2      MSMMMOB.11                                025.0 21:26:22:23 
*FROM CLIP NAME:  A004C003_191124_R481 
*SOURCE FILE: MSMMMOB.11
007823  19Y11M24                         A     C        21:26:23:03 21:26:27:19 01:38:02:16 01:38:07:07 
*FROM CLIP NAME:  01-01-2/02 
*SOURCE FILE: 19Y11M24
007824  19Y11M24                         A2    C        21:26:23:03 21:26:27:19 01:38:02:16 01:38:07:07 
*FROM CLIP NAME:  01-01-2/02 
*SOURCE FILE: 19Y11M24
007825  19Y11M24                         A3    C        21:26:23:03 21:26:27:19 01:38:02:16 01:38:07:07 
*FROM CLIP NAME:  01-01-2/02 
*SOURCE FILE: 19Y11M24
007826  19Y11M24                         A     C        21:41:04:03 21:41:05:09 01:38:07:07 01:38:08:13 
*FROM CLIP NAME:  01-01-3/02 
*SOURCE FILE: 19Y11M24
007827  19Y11M24                         A2    C        21:41:04:03 21:41:05:09 01:38:07:07 01:38:08:13 
*FROM CLIP NAME:  01-01-3/02 
*SOURCE FILE: 19Y11M24
007828  19Y11M24                         A3    C        21:41:04:03 21:41:05:09 01:38:07:07 01:38:08:13 
*FROM CLIP NAME:  01-01-3/02 
*SOURCE FILE: 19Y11M24
007829  MSMMMOB.54                       V     C        21:41:04:10 21:41:07:12 01:38:07:14 01:38:10:16 
M2      MSMMMOB.54                                025.0 21:41:04:10 
*FROM CLIP NAME:  A004C005_191124_R481 
*SOURCE FILE: MSMMMOB.54
007830  19Y11M24                         A4    C        21:43:01:04 21:43:01:18 01:38:08:12 01:38:09:01 
*FROM CLIP NAME:  01-01-3/03 
*PATCH 19Y11M24:  FROM SOURCE 1 TO RECORD 4 
*SOURCE FILE: 19Y11M24
007831  19Y11M24                         A5    C        21:43:01:04 21:43:01:18 01:38:08:12 01:38:09:01 
*FROM CLIP NAME:  01-01-3/03 
*PATCH 19Y11M24:  FROM SOURCE 2 TO RECORD 5 
*SOURCE FILE: 19Y11M24
007832  19Y11M24                         A6    C        21:43:01:04 21:43:01:18 01:38:08:12 01:38:09:01 
*FROM CLIP NAME:  01-01-3/03 
*PATCH 19Y11M24:  FROM SOURCE 3 TO RECORD 6 
*SOURCE FILE: 19Y11M24
007833  19Y11M24                         A     C        21:41:05:22 21:41:07:12 01:38:09:01 01:38:10:16 
*FROM CLIP NAME:  01-01-3/02 
*SOURCE FILE: 19Y11M24
007834  19Y11M24                         A2    C        21:41:05:22 21:41:07:12 01:38:09:01 01:38:10:16 
*FROM CLIP NAME:  01-01-3/02 
*SOURCE FILE: 19Y11M24
007835  19Y11M24                         A3    C        21:41:05:22 21:41:07:12 01:38:09:01 01:38:10:16 
*FROM CLIP NAME:  01-01-3/02 
*SOURCE FILE: 19Y11M24
007836  19Y11M24                         A     C        21:43:03:08 21:43:04:03 01:38:10:16 01:38:11:11 
*FROM CLIP NAME:  01-01-3/03 
*SOURCE FILE: 19Y11M24
007837  19Y11M24                         A2    C        21:43:03:08 21:43:04:03 01:38:10:16 01:38:11:11 
*FROM CLIP NAME:  01-01-3/03 
*SOURCE FILE: 19Y11M24
007838  19Y11M24                         A3    C        21:43:03:08 21:43:04:03 01:38:10:16 01:38:11:11 
*FROM CLIP NAME:  01-01-3/03 
*SOURCE FILE: 19Y11M24
007839  CINEMASCOPE_2-35-1_CROPLINES.PNG V     C        01:02:14:00 01:02:15:15 01:38:10:16 01:38:12:06 
*FROM CLIP NAME:  CINEMASCOPE 2-35-1 CROPLINES.PNG 
*SOURCE FILE: CINEMASCOPE 2-35-1 CROPLINES.PNG
007840  MSMMMOB.11                       V     C        21:26:28:12 21:26:30:02 01:38:10:16 01:38:12:06 
M2      MSMMMOB.11                                025.0 21:26:28:12 
*FROM CLIP NAME:  A004C003_191124_R481 
*SOURCE FILE: MSMMMOB.11
007841  19Y11M24                         A     C        21:26:29:07 21:26:30:02 01:38:11:11 01:38:12:06 
*FROM CLIP NAME:  01-01-2/02 
*SOURCE FILE: 19Y11M24
007842  19Y11M24                         A2    C        21:26:29:07 21:26:30:02 01:38:11:11 01:38:12:06 
*FROM CLIP NAME:  01-01-2/02 
*SOURCE FILE: 19Y11M24
007843  19Y11M24                         A3    C        21:26:29:07 21:26:30:02 01:38:11:11 01:38:12:06 
*FROM CLIP NAME:  01-01-2/02 
*SOURCE FILE: 19Y11M24
007844  MSMMMOB.13                       V     C        15:14:34:22 15:14:40:08 01:38:12:06 01:38:17:17 
M2      MSMMMOB.13                                025.0 15:14:34:22 
*FROM CLIP NAME:  A031C003_190802_R32C 
*SOURCE FILE: MSMMMOB.13
007845  19Y08M02                         A     C        15:14:34:22 15:14:40:08 01:38:12:06 01:38:17:17 
*FROM CLIP NAME:  50K1/03.SYNC.01 
*SOURCE FILE: 19Y08M02
007846  19Y08M02                         A2    C        15:14:34:22 15:14:40:08 01:38:12:06 01:38:17:17 
*FROM CLIP NAME:  50K1/03.SYNC.01 
*SOURCE FILE: 19Y08M02
007847  19Y08M02                         A3    C        15:14:34:22 15:14:40:08 01:38:12:06 01:38:17:17 
*FROM CLIP NAME:  50K1/03.SYNC.01 
*SOURCE FILE: 19Y08M02
007848  19Y08M02                         A4    C        15:14:34:22 15:14:40:08 01:38:12:06 01:38:17:17 
*FROM CLIP NAME:  50K1/03.SYNC.01 
*SOURCE FILE: 19Y08M02
007849  19Y08M02                         A5    C        15:14:34:22 15:14:40:08 01:38:12:06 01:38:17:17 
*FROM CLIP NAME:  50K1/03.SYNC.01 
*SOURCE FILE: 19Y08M02
007850  19Y08M02                         A6    C        15:14:34:22 15:14:40:08 01:38:12:06 01:38:17:17 
*FROM CLIP NAME:  50K1/03.SYNC.01 
*PATCH 19Y08M02:  FROM SOURCE 1 TO RECORD 6 
*SOURCE FILE: 19Y08M02
007851  19Y08M02                         A7    C        15:14:34:22 15:14:40:08 01:38:12:06 01:38:17:17 
*FROM CLIP NAME:  50K1/03.SYNC.01 
*SOURCE FILE: 19Y08M02
007852  19Y08M02                         A8    C        15:14:34:22 15:14:40:08 01:38:12:06 01:38:17:17 
*FROM CLIP NAME:  50K1/03.SYNC.01 
*SOURCE FILE: 19Y08M02
007853  CINEMASCOPE_2-35-1_CROPLINES.PNG V     C        01:00:00:00 01:04:48:16 01:38:12:06 01:43:00:22 
*FROM CLIP NAME:  CINEMASCOPE 2-35-1 CROPLINES.PNG 
*SOURCE FILE: CINEMASCOPE 2-35-1 CROPLINES.PNG
007854  BL                               V     C        00:00:00:00 00:04:48:16 01:38:12:06 01:43:00:22 
*SOURCE FILE: (NULL)
007855  MSMMMOB.50                       V     C        15:52:51:05 15:52:53:10 01:38:17:17 01:38:19:22 
M2      MSMMMOB.50                                025.0 15:52:51:05 
*FROM CLIP NAME:  A031C011_190802_R32C 
*SOURCE FILE: MSMMMOB.50
007856  19Y08M02                         A     C        15:52:51:05 15:52:53:10 01:38:17:17 01:38:19:22 
*FROM CLIP NAME:  50K5/03.SYNC.01 
*SOURCE FILE: 19Y08M02
007857  19Y08M02                         A2    C        15:52:51:05 15:52:53:10 01:38:17:17 01:38:19:22 
*FROM CLIP NAME:  50K5/03.SYNC.01 
*SOURCE FILE: 19Y08M02
007858  19Y08M02                         A3    C        15:52:51:05 15:52:53:10 01:38:17:17 01:38:19:22 
*FROM CLIP NAME:  50K5/03.SYNC.01 
*SOURCE FILE: 19Y08M02
007859  19Y08M02                         A4    C        15:52:51:05 15:52:53:10 01:38:17:17 01:38:19:22 
*FROM CLIP NAME:  50K5/03.SYNC.01 
*SOURCE FILE: 19Y08M02
007860  19Y08M02                         A5    C        15:52:51:05 15:52:53:10 01:38:17:17 01:38:19:22 
*FROM CLIP NAME:  50K5/03.SYNC.01 
*SOURCE FILE: 19Y08M02
007861  19Y08M02                         A6    C        15:52:51:05 15:52:53:10 01:38:17:17 01:38:19:22 
*FROM CLIP NAME:  50K5/03.SYNC.01 
*PATCH 19Y08M02:  FROM SOURCE 1 TO RECORD 6 
*SOURCE FILE: 19Y08M02
007862  19Y08M02                         A7    C        15:52:51:05 15:52:53:10 01:38:17:17 01:38:19:22 
*FROM CLIP NAME:  50K5/03.SYNC.01 
*SOURCE FILE: 19Y08M02
007863  19Y08M02                         A8    C        15:52:51:05 15:52:53:10 01:38:17:17 01:38:19:22 
*FROM CLIP NAME:  50K5/03.SYNC.01 
*SOURCE FILE: 19Y08M02
007864  MSMMMOB.42                       V     C        15:24:00:12 15:24:01:01 01:38:19:22 01:38:20:11 
M2      MSMMMOB.42                                025.0 15:24:00:12 
*FROM CLIP NAME:  A031C005_190802_R32C 
*SOURCE FILE: MSMMMOB.42
007865  19Y08M02                         A     C        15:24:00:12 15:24:03:01 01:38:19:22 01:38:22:11 
*FROM CLIP NAME:  50K2/02.SYNC.01 
*SOURCE FILE: 19Y08M02
007866  19Y08M02                         A2    C        15:24:00:12 15:24:03:01 01:38:19:22 01:38:22:11 
*FROM CLIP NAME:  50K2/02.SYNC.01 
*SOURCE FILE: 19Y08M02
007867  19Y08M02                         A3    C        15:24:00:12 15:24:03:01 01:38:19:22 01:38:22:11 
*FROM CLIP NAME:  50K2/02.SYNC.01 
*SOURCE FILE: 19Y08M02
007868  19Y08M02                         A4    C        15:24:00:12 15:24:03:01 01:38:19:22 01:38:22:11 
*FROM CLIP NAME:  50K2/02.SYNC.01 
*SOURCE FILE: 19Y08M02
007869  19Y08M02                         A5    C        15:24:00:12 15:24:03:01 01:38:19:22 01:38:22:11 
*FROM CLIP NAME:  50K2/02.SYNC.01 
*SOURCE FILE: 19Y08M02
007870  19Y08M02                         A6    C        15:24:00:12 15:24:03:01 01:38:19:22 01:38:22:11 
*FROM CLIP NAME:  50K2/02.SYNC.01 
*PATCH 19Y08M02:  FROM SOURCE 1 TO RECORD 6 
*SOURCE FILE: 19Y08M02
007871  19Y08M02                         A7    C        15:24:00:12 15:24:03:01 01:38:19:22 01:38:22:11 
*FROM CLIP NAME:  50K2/02.SYNC.01 
*SOURCE FILE: 19Y08M02
007872  19Y08M02                         A8    C        15:24:00:12 15:24:03:01 01:38:19:22 01:38:22:11 
*FROM CLIP NAME:  50K2/02.SYNC.01 
*SOURCE FILE: 19Y08M02
007873  MSMMMOB.23                       V     C        15:47:57:09 15:47:58:08 01:38:20:11 01:38:21:10 
M2      MSMMMOB.23                                025.0 15:47:57:09 
*FROM CLIP NAME:  A031C009_190802_R32C 
*SOURCE FILE: MSMMMOB.23
007874  MSMMMOB.42                       V     C        15:24:02:00 15:24:03:16 01:38:21:10 01:38:23:01 
M2      MSMMMOB.42                                025.0 15:24:02:00 
*FROM CLIP NAME:  A031C005_190802_R32C 
*SOURCE FILE: MSMMMOB.42
007875  19Y08M02                         A     C        15:50:42:12 15:50:45:24 01:38:22:11 01:38:25:23 
*FROM CLIP NAME:  50K5/02.SYNC.01 
*SOURCE FILE: 19Y08M02
007876  19Y08M02                         A2    C        15:50:42:12 15:50:45:24 01:38:22:11 01:38:25:23 
*FROM CLIP NAME:  50K5/02.SYNC.01 
*SOURCE FILE: 19Y08M02
007877  19Y08M02                         A3    C        15:50:42:12 15:50:45:24 01:38:22:11 01:38:25:23 
*FROM CLIP NAME:  50K5/02.SYNC.01 
*SOURCE FILE: 19Y08M02
007878  19Y08M02                         A4    C        15:50:42:12 15:50:45:24 01:38:22:11 01:38:25:23 
*FROM CLIP NAME:  50K5/02.SYNC.01 
*SOURCE FILE: 19Y08M02
007879  19Y08M02                         A5    C        15:50:42:12 15:50:45:24 01:38:22:11 01:38:25:23 
*FROM CLIP NAME:  50K5/02.SYNC.01 
*SOURCE FILE: 19Y08M02
007880  19Y08M02                         A6    C        15:50:42:12 15:50:45:24 01:38:22:11 01:38:25:23 
*FROM CLIP NAME:  50K5/02.SYNC.01 
*PATCH 19Y08M02:  FROM SOURCE 1 TO RECORD 6 
*SOURCE FILE: 19Y08M02
007881  19Y08M02                         A7    C        15:50:42:12 15:50:45:24 01:38:22:11 01:38:25:23 
*FROM CLIP NAME:  50K5/02.SYNC.01 
*SOURCE FILE: 19Y08M02
007882  19Y08M02                         A8    C        15:50:42:12 15:50:45:24 01:38:22:11 01:38:25:23 
*FROM CLIP NAME:  50K5/02.SYNC.01 
*SOURCE FILE: 19Y08M02
007883  MSMMMOB.36                       V     C        15:50:43:02 15:50:45:24 01:38:23:01 01:38:25:23 
M2      MSMMMOB.36                                025.0 15:50:43:02 
*FROM CLIP NAME:  A031C010_190802_R32C 
*SOURCE FILE: MSMMMOB.36
007884  19Y08M02                         A     C        15:52:59:21 15:53:00:13 01:38:25:23 01:38:26:15 
*FROM CLIP NAME:  50K5/03.SYNC.01 
*SOURCE FILE: 19Y08M02
007885  19Y08M02                         A2    C        15:52:59:21 15:53:00:13 01:38:25:23 01:38:26:15 
*FROM CLIP NAME:  50K5/03.SYNC.01 
*SOURCE FILE: 19Y08M02
007886  19Y08M02                         A3    C        15:52:59:21 15:53:00:13 01:38:25:23 01:38:26:15 
*FROM CLIP NAME:  50K5/03.SYNC.01 
*SOURCE FILE: 19Y08M02
007887  19Y08M02                         A4    C        15:52:59:21 15:53:00:13 01:38:25:23 01:38:26:15 
*FROM CLIP NAME:  50K5/03.SYNC.01 
*SOURCE FILE: 19Y08M02
007888  19Y08M02                         A5    C        15:52:59:21 15:53:00:13 01:38:25:23 01:38:26:15 
*FROM CLIP NAME:  50K5/03.SYNC.01 
*SOURCE FILE: 19Y08M02
007889  19Y08M02                         A6    C        15:52:59:21 15:53:00:13 01:38:25:23 01:38:26:15 
*FROM CLIP NAME:  50K5/03.SYNC.01 
*PATCH 19Y08M02:  FROM SOURCE 1 TO RECORD 6 
*SOURCE FILE: 19Y08M02
007890  19Y08M02                         A7    C        15:52:59:21 15:53:00:13 01:38:25:23 01:38:26:15 
*FROM CLIP NAME:  50K5/03.SYNC.01 
*SOURCE FILE: 19Y08M02
007891  19Y08M02                         A8    C        15:52:59:21 15:53:00:13 01:38:25:23 01:38:26:15 
*FROM CLIP NAME:  50K5/03.SYNC.01 
*SOURCE FILE: 19Y08M02
007892  MSMMMOB.42                       V     C        15:24:07:13 15:24:10:13 01:38:25:23 01:38:28:23 
M2      MSMMMOB.42                                025.0 15:24:07:13 
*FROM CLIP NAME:  A031C005_190802_R32C 
*SOURCE FILE: MSMMMOB.42
007893  19Y08M02                         A     C        15:24:08:05 15:24:09:01 01:38:26:15 01:38:27:11 
*FROM CLIP NAME:  50K2/02.SYNC.01 
*SOURCE FILE: 19Y08M02
007894  19Y08M02                         A2    C        15:24:08:05 15:24:09:01 01:38:26:15 01:38:27:11 
*FROM CLIP NAME:  50K2/02.SYNC.01 
*SOURCE FILE: 19Y08M02
007895  19Y08M02                         A3    C        15:24:08:05 15:24:09:01 01:38:26:15 01:38:27:11 
*FROM CLIP NAME:  50K2/02.SYNC.01 
*SOURCE FILE: 19Y08M02
007896  19Y08M02                         A4    C        15:24:08:05 15:24:09:01 01:38:26:15 01:38:27:11 
*FROM CLIP NAME:  50K2/02.SYNC.01 
*SOURCE FILE: 19Y08M02
007897  19Y08M02                         A5    C        15:24:08:05 15:24:09:01 01:38:26:15 01:38:27:11 
*FROM CLIP NAME:  50K2/02.SYNC.01 
*SOURCE FILE: 19Y08M02
007898  19Y08M02                         A6    C        15:24:08:05 15:24:09:01 01:38:26:15 01:38:27:11 
*FROM CLIP NAME:  50K2/02.SYNC.01 
*PATCH 19Y08M02:  FROM SOURCE 1 TO RECORD 6 
*SOURCE FILE: 19Y08M02
007899  19Y08M02                         A7    C        15:24:08:05 15:24:09:01 01:38:26:15 01:38:27:11 
*FROM CLIP NAME:  50K2/02.SYNC.01 
*SOURCE FILE: 19Y08M02
007900  19Y08M02                         A8    C        15:24:08:05 15:24:09:01 01:38:26:15 01:38:27:11 
*FROM CLIP NAME:  50K2/02.SYNC.01 
*SOURCE FILE: 19Y08M02
007901  19Y08M02                         A     C        15:50:46:13 15:50:50:21 01:38:27:11 01:38:31:19 
*FROM CLIP NAME:  50K5/02.SYNC.01 
*SOURCE FILE: 19Y08M02
007902  19Y08M02                         A2    C        15:50:46:13 15:50:50:21 01:38:27:11 01:38:31:19 
*FROM CLIP NAME:  50K5/02.SYNC.01 
*SOURCE FILE: 19Y08M02
007903  19Y08M02                         A3    C        15:50:46:13 15:50:50:21 01:38:27:11 01:38:31:19 
*FROM CLIP NAME:  50K5/02.SYNC.01 
*SOURCE FILE: 19Y08M02
007904  19Y08M02                         A4    C        15:50:46:13 15:50:50:21 01:38:27:11 01:38:31:19 
*FROM CLIP NAME:  50K5/02.SYNC.01 
*SOURCE FILE: 19Y08M02
007905  19Y08M02                         A5    C        15:50:46:13 15:50:50:21 01:38:27:11 01:38:31:19 
*FROM CLIP NAME:  50K5/02.SYNC.01 
*SOURCE FILE: 19Y08M02
007906  19Y08M02                         A6    C        15:50:46:13 15:50:50:21 01:38:27:11 01:38:31:19 
*FROM CLIP NAME:  50K5/02.SYNC.01 
*PATCH 19Y08M02:  FROM SOURCE 1 TO RECORD 6 
*SOURCE FILE: 19Y08M02
007907  19Y08M02                         A7    C        15:50:46:13 15:50:50:21 01:38:27:11 01:38:31:19 
*FROM CLIP NAME:  50K5/02.SYNC.01 
*SOURCE FILE: 19Y08M02
007908  19Y08M02                         A8    C        15:50:46:13 15:50:50:21 01:38:27:11 01:38:31:19 
*FROM CLIP NAME:  50K5/02.SYNC.01 
*SOURCE FILE: 19Y08M02
007909  MSMMMOB.36                       V     C        15:50:48:00 15:50:50:21 01:38:28:23 01:38:31:19 
M2      MSMMMOB.36                                025.0 15:50:48:00 
*FROM CLIP NAME:  A031C010_190802_R32C 
*SOURCE FILE: MSMMMOB.36
007910  MSMMMOB.42                       V     C        15:24:13:12 15:24:17:01 01:38:31:19 01:38:35:08 
M2      MSMMMOB.42                                025.0 15:24:13:12 
*FROM CLIP NAME:  A031C005_190802_R32C 
*SOURCE FILE: MSMMMOB.42
007911  19Y08M02                         A2    C        15:24:13:12 15:24:20:06 01:38:31:19 01:38:38:13 
*FROM CLIP NAME:  50K2/02.SYNC.01 
*A2 VOL = -35.5 DB  PAN L100 
*SOURCE FILE: 19Y08M02
007912  19Y08M02                         A6    C        15:24:13:12 15:24:20:07 01:38:31:19 01:38:38:14 
*FROM CLIP NAME:  50K2/02.SYNC.01 
*A6 VOL = -30.7 DB  PAN L100 
*PATCH 19Y08M02:  FROM SOURCE 1 TO RECORD 6 
*SOURCE FILE: 19Y08M02
007913  19Y08M02                         A     C        15:24:13:12 15:24:24:18 01:38:31:19 01:38:43:00 
*FROM CLIP NAME:  50K2/02.SYNC.01 
*SOURCE FILE: 19Y08M02
007914  19Y08M02                         A3    C        15:24:13:12 15:24:24:18 01:38:31:19 01:38:43:00 
*FROM CLIP NAME:  50K2/02.SYNC.01 
*SOURCE FILE: 19Y08M02
007915  19Y08M02                         A4    C        15:24:13:12 15:24:24:18 01:38:31:19 01:38:43:00 
*FROM CLIP NAME:  50K2/02.SYNC.01 
*SOURCE FILE: 19Y08M02
007916  19Y08M02                         A5    C        15:24:13:12 15:24:24:18 01:38:31:19 01:38:43:00 
*FROM CLIP NAME:  50K2/02.SYNC.01 
*SOURCE FILE: 19Y08M02
007917  19Y08M02                         A7    C        15:24:13:12 15:24:24:18 01:38:31:19 01:38:43:00 
*FROM CLIP NAME:  50K2/02.SYNC.01 
*SOURCE FILE: 19Y08M02
007918  19Y08M02                         A8    C        15:24:13:12 15:24:24:18 01:38:31:19 01:38:43:00 
*FROM CLIP NAME:  50K2/02.SYNC.01 
*SOURCE FILE: 19Y08M02
007919  MSMMMOB.50                       V     C        15:53:07:03 15:53:09:05 01:38:35:08 01:38:37:10 
M2      MSMMMOB.50                                025.0 15:53:07:03 
*FROM CLIP NAME:  A031C011_190802_R32C 
*SOURCE FILE: MSMMMOB.50
007920  MSMMMOB.42                       V     C        15:24:19:03 15:24:24:17 01:38:37:10 01:38:42:24 
M2      MSMMMOB.42                                025.0 15:24:19:03 
*FROM CLIP NAME:  A031C005_190802_R32C 
*SOURCE FILE: MSMMMOB.42
007921  19Y08M02                         A2    C        15:24:20:06 15:24:24:18 01:38:38:13 01:38:43:00 
*FROM CLIP NAME:  50K2/02.SYNC.01 
*SOURCE FILE: 19Y08M02
007922  19Y08M02                         A6    C        15:24:20:07 15:24:24:18 01:38:38:14 01:38:43:00 
*FROM CLIP NAME:  50K2/02.SYNC.01 
*PATCH 19Y08M02:  FROM SOURCE 1 TO RECORD 6 
*SOURCE FILE: 19Y08M02
007923  MSMMMOB.50                       V     C        15:53:13:19 15:53:16:03 01:38:42:24 01:38:45:08 
M2      MSMMMOB.50                                025.0 15:53:13:19 
*FROM CLIP NAME:  A031C011_190802_R32C 
*SOURCE FILE: MSMMMOB.50
007924  19Y08M02                         A     C        15:24:24:18 15:24:24:18 01:38:43:00 01:38:43:00 
007924  19Y08M02                         A     D    002 15:53:13:20 15:53:13:22 01:38:43:00 01:38:43:02 
*FROM CLIP NAME:  50K2/02.SYNC.01 
*TO CLIP NAME:  50K5/03.SYNC.01 
*SOURCE FILE: 19Y08M02
007925  19Y08M02                         A2    C        15:24:24:18 15:24:24:18 01:38:43:00 01:38:43:00 
007925  19Y08M02                         A2    D    002 15:53:13:20 15:53:13:22 01:38:43:00 01:38:43:02 
*FROM CLIP NAME:  50K2/02.SYNC.01 
*TO CLIP NAME:  50K5/03.SYNC.01 
*SOURCE FILE: 19Y08M02
007926  19Y08M02                         A3    C        15:24:24:18 15:24:24:18 01:38:43:00 01:38:43:00 
007926  19Y08M02                         A3    D    002 15:53:13:20 15:53:13:22 01:38:43:00 01:38:43:02 
*FROM CLIP NAME:  50K2/02.SYNC.01 
*TO CLIP NAME:  50K5/03.SYNC.01 
*SOURCE FILE: 19Y08M02
007927  19Y08M02                         A4    C        15:24:24:18 15:24:24:18 01:38:43:00 01:38:43:00 
007927  19Y08M02                         A4    D    002 15:53:13:20 15:53:13:22 01:38:43:00 01:38:43:02 
*FROM CLIP NAME:  50K2/02.SYNC.01 
*TO CLIP NAME:  50K5/03.SYNC.01 
*SOURCE FILE: 19Y08M02
007928  19Y08M02                         A5    C        15:24:24:18 15:24:24:18 01:38:43:00 01:38:43:00 
007928  19Y08M02                         A5    D    002 15:53:13:20 15:53:13:22 01:38:43:00 01:38:43:02 
*FROM CLIP NAME:  50K2/02.SYNC.01 
*TO CLIP NAME:  50K5/03.SYNC.01 
*SOURCE FILE: 19Y08M02
007929  19Y08M02                         A6    C        15:24:24:18 15:24:24:18 01:38:43:00 01:38:43:00 
007929  19Y08M02                         A6    D    002 15:53:13:20 15:53:13:22 01:38:43:00 01:38:43:02 
*FROM CLIP NAME:  50K2/02.SYNC.01 
*TO CLIP NAME:  50K5/03.SYNC.01 
*PATCH 19Y08M02:  FROM SOURCE 1 TO RECORD 6 
*PATCH 19Y08M02:  FROM SOURCE 1 TO RECORD 6 
*SOURCE FILE: 19Y08M02
007930  19Y08M02                         A7    C        15:24:24:18 15:24:24:18 01:38:43:00 01:38:43:00 
007930  19Y08M02                         A7    D    002 15:53:13:20 15:53:13:22 01:38:43:00 01:38:43:02 
*FROM CLIP NAME:  50K2/02.SYNC.01 
*TO CLIP NAME:  50K5/03.SYNC.01 
*SOURCE FILE: 19Y08M02
007931  19Y08M02                         A8    C        15:24:24:18 15:24:24:18 01:38:43:00 01:38:43:00 
007931  19Y08M02                         A8    D    002 15:53:13:20 15:53:13:22 01:38:43:00 01:38:43:02 
*FROM CLIP NAME:  50K2/02.SYNC.01 
*TO CLIP NAME:  50K5/03.SYNC.01 
*SOURCE FILE: 19Y08M02
007932  19Y08M02                         A     C        15:53:13:22 15:53:16:15 01:38:43:02 01:38:45:20 
*FROM CLIP NAME:  50K5/03.SYNC.01 
*SOURCE FILE: 19Y08M02
007933  19Y08M02                         A2    C        15:53:13:22 15:53:16:15 01:38:43:02 01:38:45:20 
*FROM CLIP NAME:  50K5/03.SYNC.01 
*SOURCE FILE: 19Y08M02
007934  19Y08M02                         A3    C        15:53:13:22 15:53:16:15 01:38:43:02 01:38:45:20 
*FROM CLIP NAME:  50K5/03.SYNC.01 
*SOURCE FILE: 19Y08M02
007935  19Y08M02                         A4    C        15:53:13:22 15:53:16:15 01:38:43:02 01:38:45:20 
*FROM CLIP NAME:  50K5/03.SYNC.01 
*SOURCE FILE: 19Y08M02
007936  19Y08M02                         A5    C        15:53:13:22 15:53:16:15 01:38:43:02 01:38:45:20 
*FROM CLIP NAME:  50K5/03.SYNC.01 
*SOURCE FILE: 19Y08M02
007937  19Y08M02                         A6    C        15:53:13:22 15:53:16:15 01:38:43:02 01:38:45:20 
*FROM CLIP NAME:  50K5/03.SYNC.01 
*PATCH 19Y08M02:  FROM SOURCE 1 TO RECORD 6 
*SOURCE FILE: 19Y08M02
007938  19Y08M02                         A7    C        15:53:13:22 15:53:16:15 01:38:43:02 01:38:45:20 
*FROM CLIP NAME:  50K5/03.SYNC.01 
*SOURCE FILE: 19Y08M02
007939  19Y08M02                         A8    C        15:53:13:22 15:53:16:15 01:38:43:02 01:38:45:20 
*FROM CLIP NAME:  50K5/03.SYNC.01 
*SOURCE FILE: 19Y08M02
007940  MSMMMOB.49                       V     C        15:38:08:24 15:38:10:23 01:38:45:08 01:38:47:07 
M2      MSMMMOB.49                                025.0 15:38:08:24 
*FROM CLIP NAME:  A031C008_190802_R32C 
*SOURCE FILE: MSMMMOB.49
007941  19Y08M02                         A     C        15:38:09:11 15:38:10:23 01:38:45:20 01:38:47:07 
*FROM CLIP NAME:  50K4/01.SYNC.01 
*SOURCE FILE: 19Y08M02
007942  19Y08M02                         A2    C        15:38:09:11 15:38:10:23 01:38:45:20 01:38:47:07 
*FROM CLIP NAME:  50K4/01.SYNC.01 
*SOURCE FILE: 19Y08M02
007943  19Y08M02                         A3    C        15:38:09:11 15:38:10:23 01:38:45:20 01:38:47:07 
*FROM CLIP NAME:  50K4/01.SYNC.01 
*SOURCE FILE: 19Y08M02
007944  19Y08M02                         A4    C        15:38:09:11 15:38:10:23 01:38:45:20 01:38:47:07 
*FROM CLIP NAME:  50K4/01.SYNC.01 
*SOURCE FILE: 19Y08M02
007945  19Y08M02                         A5    C        15:38:09:11 15:38:10:23 01:38:45:20 01:38:47:07 
*FROM CLIP NAME:  50K4/01.SYNC.01 
*SOURCE FILE: 19Y08M02
007946  19Y08M02                         A6    C        15:38:09:11 15:38:10:23 01:38:45:20 01:38:47:07 
*FROM CLIP NAME:  50K4/01.SYNC.01 
*PATCH 19Y08M02:  FROM SOURCE 1 TO RECORD 6 
*SOURCE FILE: 19Y08M02
007947  19Y08M02                         A7    C        15:38:09:11 15:38:10:23 01:38:45:20 01:38:47:07 
*FROM CLIP NAME:  50K4/01.SYNC.01 
*SOURCE FILE: 19Y08M02
007948  19Y08M02                         A8    C        15:38:09:11 15:38:10:23 01:38:45:20 01:38:47:07 
*FROM CLIP NAME:  50K4/01.SYNC.01 
*SOURCE FILE: 19Y08M02
007949  MSMMMOB.17                       V     C        17:31:39:01 17:31:42:21 01:38:47:07 01:38:51:02 
M2      MSMMMOB.17                                025.0 17:31:39:01 
*FROM CLIP NAME:  A031C013_190802_R32C 
*SOURCE FILE: MSMMMOB.17
007950  19Y08M02                         A     C        17:31:39:01 17:31:42:21 01:38:47:07 01:38:51:02 
*FROM CLIP NAME:  50K7/01 
*SOURCE FILE: 19Y08M02
007951  19Y08M02                         A2    C        17:31:39:01 17:31:42:21 01:38:47:07 01:38:51:02 
*FROM CLIP NAME:  50K7/01 
*SOURCE FILE: 19Y08M02
007952  MSMMMOB.17                       A3    C        17:31:39:01 17:31:42:21 01:38:47:07 01:38:51:02 
*FROM CLIP NAME:  A031C013_190802_R32C 
*SOURCE FILE: MSMMMOB.17
007953  19Y08M02                         A4    C        17:31:39:01 17:31:42:21 01:38:47:07 01:38:51:02 
*FROM CLIP NAME:  50K7/01 
*SOURCE FILE: 19Y08M02
007954  MSMMMOB.17                       A5    C        17:31:39:01 17:31:42:21 01:38:47:07 01:38:51:02 
*FROM CLIP NAME:  A031C013_190802_R32C 
*SOURCE FILE: MSMMMOB.17
007955  19Y08M02                         A6    C        17:31:39:01 17:31:42:21 01:38:47:07 01:38:51:02 
*FROM CLIP NAME:  50K7/01 
*SOURCE FILE: 19Y08M02
007956  MSMMMOB.13                       V     C        15:15:15:09 15:15:19:08 01:38:51:02 01:38:55:01 
M2      MSMMMOB.13                                025.0 15:15:15:09 
*FROM CLIP NAME:  A031C003_190802_R32C 
*SOURCE FILE: MSMMMOB.13
007957  19Y08M02                         A     C        15:15:15:09 15:15:20:01 01:38:51:02 01:38:55:19 
*FROM CLIP NAME:  50K1/03.SYNC.01 
*SOURCE FILE: 19Y08M02
007958  19Y08M02                         A2    C        15:15:15:09 15:15:20:01 01:38:51:02 01:38:55:19 
*FROM CLIP NAME:  50K1/03.SYNC.01 
*SOURCE FILE: 19Y08M02
007959  19Y08M02                         A3    C        15:15:15:09 15:15:20:01 01:38:51:02 01:38:55:19 
*FROM CLIP NAME:  50K1/03.SYNC.01 
*SOURCE FILE: 19Y08M02
007960  19Y08M02                         A4    C        15:15:15:09 15:15:20:01 01:38:51:02 01:38:55:19 
*FROM CLIP NAME:  50K1/03.SYNC.01 
*SOURCE FILE: 19Y08M02
007961  19Y08M02                         A5    C        15:15:15:09 15:15:20:01 01:38:51:02 01:38:55:19 
*FROM CLIP NAME:  50K1/03.SYNC.01 
*SOURCE FILE: 19Y08M02
007962  19Y08M02                         A6    C        15:15:15:09 15:15:20:01 01:38:51:02 01:38:55:19 
*FROM CLIP NAME:  50K1/03.SYNC.01 
*PATCH 19Y08M02:  FROM SOURCE 1 TO RECORD 6 
*SOURCE FILE: 19Y08M02
007963  19Y08M02                         A7    C        15:15:15:09 15:15:20:01 01:38:51:02 01:38:55:19 
*FROM CLIP NAME:  50K1/03.SYNC.01 
*SOURCE FILE: 19Y08M02
007964  19Y08M02                         A8    C        15:15:15:09 15:15:20:01 01:38:51:02 01:38:55:19 
*FROM CLIP NAME:  50K1/03.SYNC.01 
*SOURCE FILE: 19Y08M02
007965  MSMMMOB.14                       V     C        15:34:27:09 15:34:29:24 01:38:55:01 01:38:57:16 
M2      MSMMMOB.14                                025.0 15:34:27:09 
*FROM CLIP NAME:  A031C007_190802_R32C 
*SOURCE FILE: MSMMMOB.14
007966  19Y08M02                         A     C        15:15:22:08 15:15:24:05 01:38:55:19 01:38:57:16 
*FROM CLIP NAME:  50K1/03.SYNC.01 
*SOURCE FILE: 19Y08M02
007967  19Y08M02                         A2    C        15:15:22:08 15:15:24:05 01:38:55:19 01:38:57:16 
*FROM CLIP NAME:  50K1/03.SYNC.01 
*SOURCE FILE: 19Y08M02
007968  19Y08M02                         A3    C        15:15:22:08 15:15:24:05 01:38:55:19 01:38:57:16 
*FROM CLIP NAME:  50K1/03.SYNC.01 
*SOURCE FILE: 19Y08M02
007969  19Y08M02                         A4    C        15:15:22:08 15:15:24:05 01:38:55:19 01:38:57:16 
*FROM CLIP NAME:  50K1/03.SYNC.01 
*SOURCE FILE: 19Y08M02
007970  19Y08M02                         A5    C        15:15:22:08 15:15:24:05 01:38:55:19 01:38:57:16 
*FROM CLIP NAME:  50K1/03.SYNC.01 
*SOURCE FILE: 19Y08M02
007971  19Y08M02                         A6    C        15:15:22:08 15:15:24:05 01:38:55:19 01:38:57:16 
*FROM CLIP NAME:  50K1/03.SYNC.01 
*PATCH 19Y08M02:  FROM SOURCE 1 TO RECORD 6 
*SOURCE FILE: 19Y08M02
007972  19Y08M02                         A7    C        15:15:22:08 15:15:24:05 01:38:55:19 01:38:57:16 
*FROM CLIP NAME:  50K1/03.SYNC.01 
*SOURCE FILE: 19Y08M02
007973  19Y08M02                         A8    C        15:15:22:08 15:15:24:05 01:38:55:19 01:38:57:16 
*FROM CLIP NAME:  50K1/03.SYNC.01 
*SOURCE FILE: 19Y08M02
007974  MSMMMOB.04                       V     C        17:36:44:17 17:36:46:09 01:38:57:16 01:38:59:08 
M2      MSMMMOB.04                                025.0 17:36:44:17 
*FROM CLIP NAME:  A031C014_190802_R32C 
*SOURCE FILE: MSMMMOB.04
007975  BL                               V     C        00:00:00:00 00:00:01:17 01:38:57:16 01:38:59:08 
*SOURCE FILE: (NULL)
007976  19Y08M02                         A     C        17:36:44:17 17:36:46:09 01:38:57:16 01:38:59:08 
*FROM CLIP NAME:  50K8/01 
*SOURCE FILE: 19Y08M02
007977  19Y08M02                         A2    C        17:36:44:17 17:36:46:09 01:38:57:16 01:38:59:08 
*FROM CLIP NAME:  50K8/01 
*SOURCE FILE: 19Y08M02
007978  19Y08M02                         A3    C        17:36:44:17 17:36:46:09 01:38:57:16 01:38:59:08 
*FROM CLIP NAME:  50K8/01 
*SOURCE FILE: 19Y08M02
007979  19Y08M02                         A4    C        17:36:44:17 17:36:46:09 01:38:57:16 01:38:59:08 
*FROM CLIP NAME:  50K8/01 
*SOURCE FILE: 19Y08M02
007980  19Y08M02                         A5    C        17:36:44:17 17:36:46:09 01:38:57:16 01:38:59:08 
*FROM CLIP NAME:  50K8/01 
*SOURCE FILE: 19Y08M02
007981  19Y08M02                         A6    C        17:36:44:17 17:36:46:09 01:38:57:16 01:38:59:08 
*FROM CLIP NAME:  50K8/01 
*SOURCE FILE: 19Y08M02
007982  19Y08M02                         A     C        17:38:42:04 17:38:42:08 01:38:59:08 01:38:59:12 
*FROM CLIP NAME:  50K8/03 
*SOURCE FILE: 19Y08M02
007983  19Y08M02                         A2    C        17:38:42:04 17:38:42:08 01:38:59:08 01:38:59:12 
*FROM CLIP NAME:  50K8/03 
*SOURCE FILE: 19Y08M02
007984  19Y08M02                         A3    C        17:38:42:04 17:38:42:08 01:38:59:08 01:38:59:12 
*FROM CLIP NAME:  50K8/03 
*SOURCE FILE: 19Y08M02
007985  19Y08M02                         A4    C        17:38:42:04 17:38:42:08 01:38:59:08 01:38:59:12 
*FROM CLIP NAME:  50K8/03 
*SOURCE FILE: 19Y08M02
007986  19Y08M02                         A5    C        17:38:42:04 17:38:42:08 01:38:59:08 01:38:59:12 
*FROM CLIP NAME:  50K8/03 
*SOURCE FILE: 19Y08M02
007987  19Y08M02                         A6    C        17:38:42:04 17:38:42:08 01:38:59:08 01:38:59:12 
*FROM CLIP NAME:  50K8/03 
*SOURCE FILE: 19Y08M02
007988  MSMMMOB.14                       V     C        15:34:31:09 15:34:33:21 01:38:59:08 01:39:01:20 
M2      MSMMMOB.14                                025.0 15:34:31:09 
*FROM CLIP NAME:  A031C007_190802_R32C 
*SOURCE FILE: MSMMMOB.14
007989  BL                               V     C        00:00:00:00 00:00:05:13 01:38:59:08 01:39:04:21 
*SOURCE FILE: (NULL)
007990  19Y08M02                         A     C        17:38:36:23 17:38:38:04 01:38:59:12 01:39:00:18 
*FROM CLIP NAME:  50K8/03 
*SOURCE FILE: 19Y08M02
007991  19Y08M02                         A2    C        17:38:36:23 17:38:38:04 01:38:59:12 01:39:00:18 
*FROM CLIP NAME:  50K8/03 
*SOURCE FILE: 19Y08M02
007992  19Y08M02                         A3    C        17:38:36:23 17:38:38:04 01:38:59:12 01:39:00:18 
*FROM CLIP NAME:  50K8/03 
*SOURCE FILE: 19Y08M02
007993  19Y08M02                         A4    C        17:38:36:23 17:38:38:04 01:38:59:12 01:39:00:18 
*FROM CLIP NAME:  50K8/03 
*SOURCE FILE: 19Y08M02
007994  19Y08M02                         A5    C        17:38:36:23 17:38:38:04 01:38:59:12 01:39:00:18 
*FROM CLIP NAME:  50K8/03 
*SOURCE FILE: 19Y08M02
007995  19Y08M02                         A6    C        17:38:36:23 17:38:38:04 01:38:59:12 01:39:00:18 
*FROM CLIP NAME:  50K8/03 
*SOURCE FILE: 19Y08M02
007996  19Y08M02                         A     C        17:38:44:07 17:38:44:14 01:39:00:18 01:39:01:00 
*FROM CLIP NAME:  50K8/03 
*SOURCE FILE: 19Y08M02
007997  19Y08M02                         A2    C        17:38:44:07 17:38:44:14 01:39:00:18 01:39:01:00 
*FROM CLIP NAME:  50K8/03 
*SOURCE FILE: 19Y08M02
007998  19Y08M02                         A3    C        17:38:44:07 17:38:44:14 01:39:00:18 01:39:01:00 
*FROM CLIP NAME:  50K8/03 
*SOURCE FILE: 19Y08M02
007999  19Y08M02                         A4    C        17:38:44:07 17:38:44:14 01:39:00:18 01:39:01:00 
*FROM CLIP NAME:  50K8/03 
*SOURCE FILE: 19Y08M02
008000  19Y08M02                         A5    C        17:38:44:07 17:38:44:14 01:39:00:18 01:39:01:00 
*FROM CLIP NAME:  50K8/03 
*SOURCE FILE: 19Y08M02
008001  19Y08M02                         A6    C        17:38:44:07 17:38:44:14 01:39:00:18 01:39:01:00 
*FROM CLIP NAME:  50K8/03 
*SOURCE FILE: 19Y08M02
008002  19Y08M02                         A     C        17:38:42:02 17:38:44:04 01:39:01:00 01:39:03:02 
*FROM CLIP NAME:  50K8/03 
*SOURCE FILE: 19Y08M02
008003  19Y08M02                         A2    C        17:38:42:02 17:38:44:04 01:39:01:00 01:39:03:02 
*FROM CLIP NAME:  50K8/03 
*SOURCE FILE: 19Y08M02
008004  19Y08M02                         A3    C        17:38:42:02 17:38:44:04 01:39:01:00 01:39:03:02 
*FROM CLIP NAME:  50K8/03 
*SOURCE FILE: 19Y08M02
008005  19Y08M02                         A4    C        17:38:42:02 17:38:44:04 01:39:01:00 01:39:03:02 
*FROM CLIP NAME:  50K8/03 
*SOURCE FILE: 19Y08M02
008006  19Y08M02                         A5    C        17:38:42:02 17:38:44:04 01:39:01:00 01:39:03:02 
*FROM CLIP NAME:  50K8/03 
*SOURCE FILE: 19Y08M02
008007  19Y08M02                         A6    C        17:38:42:02 17:38:44:04 01:39:01:00 01:39:03:02 
*FROM CLIP NAME:  50K8/03 
*SOURCE FILE: 19Y08M02
008008  MSMMMOB.08                       V     C        17:38:44:20 17:38:47:21 01:39:01:20 01:39:04:21 
M2      MSMMMOB.08                                025.0 17:38:44:20 
*FROM CLIP NAME:  A031C016_190802_R32C 
*SOURCE FILE: MSMMMOB.08
008009  19Y08M02                         A     C        17:36:51:14 17:36:53:08 01:39:03:02 01:39:04:21 
*FROM CLIP NAME:  50K8/01 
*SOURCE FILE: 19Y08M02
008010  19Y08M02                         A2    C        17:36:51:14 17:36:53:08 01:39:03:02 01:39:04:21 
*FROM CLIP NAME:  50K8/01 
*SOURCE FILE: 19Y08M02
008011  19Y08M02                         A3    C        17:36:51:14 17:36:53:08 01:39:03:02 01:39:04:21 
*FROM CLIP NAME:  50K8/01 
*SOURCE FILE: 19Y08M02
008012  19Y08M02                         A4    C        17:36:51:14 17:36:53:08 01:39:03:02 01:39:04:21 
*FROM CLIP NAME:  50K8/01 
*SOURCE FILE: 19Y08M02
008013  19Y08M02                         A5    C        17:36:51:14 17:36:53:08 01:39:03:02 01:39:04:21 
*FROM CLIP NAME:  50K8/01 
*SOURCE FILE: 19Y08M02
008014  19Y08M02                         A6    C        17:36:51:14 17:36:53:08 01:39:03:02 01:39:04:21 
*FROM CLIP NAME:  50K8/01 
*SOURCE FILE: 19Y08M02
008015  BL                               V     C        00:00:00:00 00:00:01:24 01:39:04:21 01:39:06:20 
*SOURCE FILE: (NULL)
008016  19Y08M02                         A     C        18:48:04:18 18:48:07:13 01:39:04:21 01:39:07:16 
*FROM CLIP NAME:  51K1/04.SYNC.01 
*SOURCE FILE: 19Y08M02
008017  19Y08M02                         A2    C        18:48:04:18 18:48:07:13 01:39:04:21 01:39:07:16 
*FROM CLIP NAME:  51K1/04.SYNC.01 
*SOURCE FILE: 19Y08M02
008018  19Y08M02                         A3    C        18:48:04:18 18:48:07:13 01:39:04:21 01:39:07:16 
*FROM CLIP NAME:  51K1/04.SYNC.01 
*SOURCE FILE: 19Y08M02
008019  19Y08M02                         A4    C        18:48:04:18 18:48:07:13 01:39:04:21 01:39:07:16 
*FROM CLIP NAME:  51K1/04.SYNC.01 
*SOURCE FILE: 19Y08M02
008020  19Y08M02                         A5    C        18:48:04:18 18:48:07:13 01:39:04:21 01:39:07:16 
*FROM CLIP NAME:  51K1/04.SYNC.01 
*SOURCE FILE: 19Y08M02
008021  19Y08M02                         A6    C        18:48:04:18 18:48:07:15 01:39:04:21 01:39:07:18 
*FROM CLIP NAME:  51K1/04.SYNC.01 
*SOURCE FILE: 19Y08M02
008022  19Y08M02                         A7    C        18:48:04:18 18:48:07:15 01:39:04:21 01:39:07:18 
*FROM CLIP NAME:  51K1/04.SYNC.01 
*SOURCE FILE: 19Y08M02
008023  19Y08M02                         A8    C        18:48:04:18 18:48:07:15 01:39:04:21 01:39:07:18 
*FROM CLIP NAME:  51K1/04.SYNC.01 
*SOURCE FILE: 19Y08M02
008024  19Y08M02                         A9    C        18:48:04:18 18:48:07:15 01:39:04:21 01:39:07:18 
*FROM CLIP NAME:  51K1/04.SYNC.01 
*SOURCE FILE: 19Y08M02
008025  19Y08M02                         A10   C        18:48:04:18 18:48:07:15 01:39:04:21 01:39:07:18 
*FROM CLIP NAME:  51K1/04.SYNC.01 
*PATCH 19Y08M02:  FROM SOURCE 1 TO RECORD 10 
*SOURCE FILE: 19Y08M02
008026  MSMMMOB.51                       V     C        21:58:38:09 21:58:42:17 01:39:04:21 01:39:09:04 
M2      MSMMMOB.51                                025.0 21:58:38:09 
*FROM CLIP NAME:  A036C005_190802_R32C 
*SOURCE FILE: MSMMMOB.51
008027  BL                               V     C        00:00:00:00 00:00:00:12 01:39:06:20 01:39:07:07 
*SOURCE FILE: (NULL)
008028  BL                               V     C        00:00:00:00 00:00:01:22 01:39:07:07 01:39:09:04 
*SOURCE FILE: (NULL)
008029  19Y08M02                         A     C        18:48:07:13 18:48:07:13 01:39:07:16 01:39:07:16 
008029  MSMMMOB.66                       A     D    005 18:40:59:09 18:40:59:14 01:39:07:16 01:39:07:21 
M2      MSMMMOB.66                                025.0 18:40:59:09 
*FROM CLIP NAME:  51K1/04.SYNC.01 
*TO CLIP NAME:  A032C001_190802_R32C 
*SOURCE FILE: 19Y08M02
008030  19Y08M02                         A2    C        18:48:07:13 18:48:07:13 01:39:07:16 01:39:07:16 
008030  MSMMMOB.66                       A2    D    005 18:40:59:09 18:40:59:14 01:39:07:16 01:39:07:21 
M2      MSMMMOB.66                                025.0 18:40:59:09 
*FROM CLIP NAME:  51K1/04.SYNC.01 
*TO CLIP NAME:  A032C001_190802_R32C 
*SOURCE FILE: 19Y08M02
008031  19Y08M02                         A3    C        18:48:07:13 18:48:07:13 01:39:07:16 01:39:07:16 
008031  MSMMMOB.66                       A3    D    005 18:40:59:09 18:40:59:14 01:39:07:16 01:39:07:21 
M2      MSMMMOB.66                                025.0 18:40:59:09 
*FROM CLIP NAME:  51K1/04.SYNC.01 
*TO CLIP NAME:  A032C001_190802_R32C 
*SOURCE FILE: 19Y08M02
008032  19Y08M02                         A4    C        18:48:07:13 18:48:07:13 01:39:07:16 01:39:07:16 
008032  MSMMMOB.66                       A4    D    005 18:40:59:09 18:40:59:14 01:39:07:16 01:39:07:21 
M2      MSMMMOB.66                                025.0 18:40:59:09 
*FROM CLIP NAME:  51K1/04.SYNC.01 
*TO CLIP NAME:  A032C001_190802_R32C 
*SOURCE FILE: 19Y08M02
008033  19Y08M02                         A5    C        18:48:07:13 18:48:07:13 01:39:07:16 01:39:07:16 
008033  MSMMMOB.66                       A5    D    005 18:40:59:09 18:40:59:14 01:39:07:16 01:39:07:21 
M2      MSMMMOB.66                                025.0 18:40:59:09 
*FROM CLIP NAME:  51K1/04.SYNC.01 
*TO CLIP NAME:  A032C001_190802_R32C 
*SOURCE FILE: 19Y08M02
008034  MSMMMOB.66                       A     C        18:40:59:14 18:41:00:01 01:39:07:21 01:39:08:08 
M2      MSMMMOB.66                                025.0 18:40:59:14 
*FROM CLIP NAME:  A032C001_190802_R32C 
*SOURCE FILE: MSMMMOB.66
008035  MSMMMOB.66                       A2    C        18:40:59:14 18:41:00:01 01:39:07:21 01:39:08:08 
M2      MSMMMOB.66                                025.0 18:40:59:14 
*FROM CLIP NAME:  A032C001_190802_R32C 
*SOURCE FILE: MSMMMOB.66
008036  MSMMMOB.66                       A3    C        18:40:59:14 18:41:00:01 01:39:07:21 01:39:08:08 
M2      MSMMMOB.66                                025.0 18:40:59:14 
*FROM CLIP NAME:  A032C001_190802_R32C 
*SOURCE FILE: MSMMMOB.66
008037  MSMMMOB.66                       A4    C        18:40:59:14 18:41:00:01 01:39:07:21 01:39:08:08 
M2      MSMMMOB.66                                025.0 18:40:59:14 
*FROM CLIP NAME:  A032C001_190802_R32C 
*SOURCE FILE: MSMMMOB.66
008038  MSMMMOB.66                       A5    C        18:40:59:14 18:41:00:01 01:39:07:21 01:39:08:08 
M2      MSMMMOB.66                                025.0 18:40:59:14 
*FROM CLIP NAME:  A032C001_190802_R32C 
*SOURCE FILE: MSMMMOB.66
008039  MSMMMOB.66                       A     C        18:41:00:01 18:41:00:01 01:39:08:08 01:39:08:08 
008039  MSMMMOB.66                       A     D    005 18:40:59:09 18:40:59:14 01:39:08:08 01:39:08:13 
M2      MSMMMOB.66                                025.0 18:41:00:01 
M2      MSMMMOB.66                                025.0 18:40:59:09 
*FROM CLIP NAME:  A032C001_190802_R32C 
*TO CLIP NAME:  A032C001_190802_R32C 
*SOURCE FILE: MSMMMOB.66
008040  MSMMMOB.66                       A2    C        18:41:00:01 18:41:00:01 01:39:08:08 01:39:08:08 
008040  MSMMMOB.66                       A2    D    005 18:40:59:09 18:40:59:14 01:39:08:08 01:39:08:13 
M2      MSMMMOB.66                                025.0 18:41:00:01 
M2      MSMMMOB.66                                025.0 18:40:59:09 
*FROM CLIP NAME:  A032C001_190802_R32C 
*TO CLIP NAME:  A032C001_190802_R32C 
*SOURCE FILE: MSMMMOB.66
008041  MSMMMOB.66                       A3    C        18:41:00:01 18:41:00:01 01:39:08:08 01:39:08:08 
008041  MSMMMOB.66                       A3    D    005 18:40:59:09 18:40:59:14 01:39:08:08 01:39:08:13 
M2      MSMMMOB.66                                025.0 18:41:00:01 
M2      MSMMMOB.66                                025.0 18:40:59:09 
*FROM CLIP NAME:  A032C001_190802_R32C 
*TO CLIP NAME:  A032C001_190802_R32C 
*SOURCE FILE: MSMMMOB.66
008042  MSMMMOB.66                       A4    C        18:41:00:01 18:41:00:01 01:39:08:08 01:39:08:08 
008042  MSMMMOB.66                       A4    D    005 18:40:59:09 18:40:59:14 01:39:08:08 01:39:08:13 
M2      MSMMMOB.66                                025.0 18:41:00:01 
M2      MSMMMOB.66                                025.0 18:40:59:09 
*FROM CLIP NAME:  A032C001_190802_R32C 
*TO CLIP NAME:  A032C001_190802_R32C 
*SOURCE FILE: MSMMMOB.66
008043  MSMMMOB.66                       A5    C        18:41:00:01 18:41:00:01 01:39:08:08 01:39:08:08 
008043  MSMMMOB.66                       A5    D    005 18:40:59:09 18:40:59:14 01:39:08:08 01:39:08:13 
M2      MSMMMOB.66                                025.0 18:41:00:01 
M2      MSMMMOB.66                                025.0 18:40:59:09 
*FROM CLIP NAME:  A032C001_190802_R32C 
*TO CLIP NAME:  A032C001_190802_R32C 
*SOURCE FILE: MSMMMOB.66
008044  MSMMMOB.66                       A     C        18:40:59:14 18:41:00:05 01:39:08:13 01:39:09:04 
M2      MSMMMOB.66                                025.0 18:40:59:14 
*FROM CLIP NAME:  A032C001_190802_R32C 
*SOURCE FILE: MSMMMOB.66
008045  MSMMMOB.66                       A2    C        18:40:59:14 18:41:00:05 01:39:08:13 01:39:09:04 
M2      MSMMMOB.66                                025.0 18:40:59:14 
*FROM CLIP NAME:  A032C001_190802_R32C 
*SOURCE FILE: MSMMMOB.66
008046  MSMMMOB.66                       A3    C        18:40:59:14 18:41:00:05 01:39:08:13 01:39:09:04 
M2      MSMMMOB.66                                025.0 18:40:59:14 
*FROM CLIP NAME:  A032C001_190802_R32C 
*SOURCE FILE: MSMMMOB.66
008047  MSMMMOB.66                       A4    C        18:40:59:14 18:41:00:05 01:39:08:13 01:39:09:04 
M2      MSMMMOB.66                                025.0 18:40:59:14 
*FROM CLIP NAME:  A032C001_190802_R32C 
*SOURCE FILE: MSMMMOB.66
008048  MSMMMOB.66                       A5    C        18:40:59:14 18:41:00:05 01:39:08:13 01:39:09:04 
M2      MSMMMOB.66                                025.0 18:40:59:14 
*FROM CLIP NAME:  A032C001_190802_R32C 
*SOURCE FILE: MSMMMOB.66
008049  19Y08M02                         A6    C        18:48:08:21 18:48:09:01 01:39:08:24 01:39:09:04 
*FROM CLIP NAME:  51K1/04.SYNC.01 
*SOURCE FILE: 19Y08M02
008050  19Y08M02                         A7    C        18:48:08:21 18:48:09:01 01:39:08:24 01:39:09:04 
*FROM CLIP NAME:  51K1/04.SYNC.01 
*SOURCE FILE: 19Y08M02
008051  19Y08M02                         A8    C        18:48:08:21 18:48:09:01 01:39:08:24 01:39:09:04 
*FROM CLIP NAME:  51K1/04.SYNC.01 
*SOURCE FILE: 19Y08M02
008052  19Y08M02                         A9    C        18:48:08:21 18:48:09:01 01:39:08:24 01:39:09:04 
*FROM CLIP NAME:  51K1/04.SYNC.01 
*SOURCE FILE: 19Y08M02
008053  19Y08M02                         A10   C        18:48:08:21 18:48:09:01 01:39:08:24 01:39:09:04 
*FROM CLIP NAME:  51K1/04.SYNC.01 
*PATCH 19Y08M02:  FROM SOURCE 1 TO RECORD 10 
*SOURCE FILE: 19Y08M02
008054  19Y08M02                         A     C        18:48:09:01 18:48:12:23 01:39:09:04 01:39:13:01 
*FROM CLIP NAME:  51K1/04.SYNC.01 
*SOURCE FILE: 19Y08M02
008055  19Y08M02                         A2    C        18:48:09:01 18:48:12:23 01:39:09:04 01:39:13:01 
*FROM CLIP NAME:  51K1/04.SYNC.01 
*SOURCE FILE: 19Y08M02
008056  19Y08M02                         A3    C        18:48:09:01 18:48:12:23 01:39:09:04 01:39:13:01 
*FROM CLIP NAME:  51K1/04.SYNC.01 
*SOURCE FILE: 19Y08M02
008057  19Y08M02                         A4    C        18:48:09:01 18:48:12:23 01:39:09:04 01:39:13:01 
*FROM CLIP NAME:  51K1/04.SYNC.01 
*SOURCE FILE: 19Y08M02
008058  19Y08M02                         A5    C        18:48:09:01 18:48:12:23 01:39:09:04 01:39:13:01 
*FROM CLIP NAME:  51K1/04.SYNC.01 
*SOURCE FILE: 19Y08M02
008059  19Y08M02                         A6    C        18:48:09:01 18:48:12:23 01:39:09:04 01:39:13:01 
*FROM CLIP NAME:  51K1/04.SYNC.01 
*SOURCE FILE: 19Y08M02
008060  19Y08M02                         A7    C        18:48:09:01 18:48:12:23 01:39:09:04 01:39:13:01 
*FROM CLIP NAME:  51K1/04.SYNC.01 
*SOURCE FILE: 19Y08M02
008061  19Y08M02                         A8    C        18:48:09:01 18:48:12:23 01:39:09:04 01:39:13:01 
*FROM CLIP NAME:  51K1/04.SYNC.01 
*SOURCE FILE: 19Y08M02
008062  19Y08M02                         A9    C        18:48:09:01 18:48:12:23 01:39:09:04 01:39:13:01 
*FROM CLIP NAME:  51K1/04.SYNC.01 
*SOURCE FILE: 19Y08M02
008063  19Y08M02                         A10   C        18:48:09:01 18:48:12:23 01:39:09:04 01:39:13:01 
*FROM CLIP NAME:  51K1/04.SYNC.01 
*PATCH 19Y08M02:  FROM SOURCE 1 TO RECORD 10 
*SOURCE FILE: 19Y08M02
008064  BL                               V     C        00:00:00:00 00:00:03:23 01:39:09:04 01:39:13:02 
*SOURCE FILE: (NULL)
008065  MSMMMOB.63                       V     C        18:48:09:01 18:48:12:24 01:39:09:04 01:39:13:02 
M2      MSMMMOB.63                                025.0 18:48:09:01 
*FROM CLIP NAME:  A032C004_190802_R32C 
*SOURCE FILE: MSMMMOB.63
008066  19Y08M02                         A     C        18:48:12:23 18:48:12:23 01:39:13:01 01:39:13:01 
008066  MSMMMOB.66                       A     D    002 18:40:59:07 18:40:59:09 01:39:13:01 01:39:13:03 
M2      MSMMMOB.66                                025.0 18:40:59:07 
*FROM CLIP NAME:  51K1/04.SYNC.01 
*TO CLIP NAME:  A032C001_190802_R32C 
*SOURCE FILE: 19Y08M02
008067  19Y08M02                         A2    C        18:48:12:23 18:48:12:23 01:39:13:01 01:39:13:01 
008067  MSMMMOB.66                       A2    D    002 18:40:59:07 18:40:59:09 01:39:13:01 01:39:13:03 
M2      MSMMMOB.66                                025.0 18:40:59:07 
*FROM CLIP NAME:  51K1/04.SYNC.01 
*TO CLIP NAME:  A032C001_190802_R32C 
*SOURCE FILE: 19Y08M02
008068  19Y08M02                         A3    C        18:48:12:23 18:48:12:23 01:39:13:01 01:39:13:01 
008068  MSMMMOB.66                       A3    D    002 18:40:59:07 18:40:59:09 01:39:13:01 01:39:13:03 
M2      MSMMMOB.66                                025.0 18:40:59:07 
*FROM CLIP NAME:  51K1/04.SYNC.01 
*TO CLIP NAME:  A032C001_190802_R32C 
*SOURCE FILE: 19Y08M02
008069  19Y08M02                         A4    C        18:48:12:23 18:48:12:23 01:39:13:01 01:39:13:01 
008069  MSMMMOB.66                       A4    D    002 18:40:59:07 18:40:59:09 01:39:13:01 01:39:13:03 
M2      MSMMMOB.66                                025.0 18:40:59:07 
*FROM CLIP NAME:  51K1/04.SYNC.01 
*TO CLIP NAME:  A032C001_190802_R32C 
*SOURCE FILE: 19Y08M02
008070  19Y08M02                         A5    C        18:48:12:23 18:48:12:23 01:39:13:01 01:39:13:01 
008070  MSMMMOB.66                       A5    D    002 18:40:59:07 18:40:59:09 01:39:13:01 01:39:13:03 
M2      MSMMMOB.66                                025.0 18:40:59:07 
*FROM CLIP NAME:  51K1/04.SYNC.01 
*TO CLIP NAME:  A032C001_190802_R32C 
*SOURCE FILE: 19Y08M02
008071  19Y08M02                         A6    C        18:48:12:23 18:48:12:23 01:39:13:01 01:39:13:01 
008071  BL                               A6    D    002 00:00:00:00 00:00:00:02 01:39:13:01 01:39:13:03 
*FROM CLIP NAME:  51K1/04.SYNC.01 
*SOURCE FILE: 19Y08M02
008072  19Y08M02                         A7    C        18:48:12:23 18:48:12:23 01:39:13:01 01:39:13:01 
008072  BL                               A7    D    002 00:00:00:00 00:00:00:02 01:39:13:01 01:39:13:03 
*FROM CLIP NAME:  51K1/04.SYNC.01 
*SOURCE FILE: 19Y08M02
008073  19Y08M02                         A8    C        18:48:12:23 18:48:12:23 01:39:13:01 01:39:13:01 
008073  BL                               A8    D    002 00:00:00:00 00:00:00:02 01:39:13:01 01:39:13:03 
*FROM CLIP NAME:  51K1/04.SYNC.01 
*SOURCE FILE: 19Y08M02
008074  19Y08M02                         A9    C        18:48:12:23 18:48:12:23 01:39:13:01 01:39:13:01 
008074  BL                               A9    D    002 00:00:00:00 00:00:00:02 01:39:13:01 01:39:13:03 
*FROM CLIP NAME:  51K1/04.SYNC.01 
*SOURCE FILE: 19Y08M02
008075  19Y08M02                         A10   C        18:48:12:23 18:48:12:23 01:39:13:01 01:39:13:01 
008075  BL                               A10   D    002 00:00:00:00 00:00:00:02 01:39:13:01 01:39:13:03 
*FROM CLIP NAME:  51K1/04.SYNC.01 
*PATCH 19Y08M02:  FROM SOURCE 1 TO RECORD 10 
*SOURCE FILE: 19Y08M02
008076  BL                               V     C        00:00:00:00 00:00:01:14 01:39:13:02 01:39:14:16 
*SOURCE FILE: (NULL)
008077  MSMMMOB.51                       V     C        21:58:43:19 21:58:45:20 01:39:13:02 01:39:15:03 
M2      MSMMMOB.51                                025.0 21:58:43:19 
*FROM CLIP NAME:  A036C005_190802_R32C 
*SOURCE FILE: MSMMMOB.51
008078  MSMMMOB.66                       A     C        18:40:59:09 18:41:01:02 01:39:13:03 01:39:14:21 
M2      MSMMMOB.66                                025.0 18:40:59:09 
*FROM CLIP NAME:  A032C001_190802_R32C 
*SOURCE FILE: MSMMMOB.66
008079  MSMMMOB.66                       A2    C        18:40:59:09 18:41:01:02 01:39:13:03 01:39:14:21 
M2      MSMMMOB.66                                025.0 18:40:59:09 
*FROM CLIP NAME:  A032C001_190802_R32C 
*SOURCE FILE: MSMMMOB.66
008080  MSMMMOB.66                       A3    C        18:40:59:09 18:41:01:02 01:39:13:03 01:39:14:21 
M2      MSMMMOB.66                                025.0 18:40:59:09 
*FROM CLIP NAME:  A032C001_190802_R32C 
*SOURCE FILE: MSMMMOB.66
008081  MSMMMOB.66                       A4    C        18:40:59:09 18:41:01:02 01:39:13:03 01:39:14:21 
M2      MSMMMOB.66                                025.0 18:40:59:09 
*FROM CLIP NAME:  A032C001_190802_R32C 
*SOURCE FILE: MSMMMOB.66
008082  MSMMMOB.66                       A5    C        18:40:59:09 18:41:01:02 01:39:13:03 01:39:14:21 
M2      MSMMMOB.66                                025.0 18:40:59:09 
*FROM CLIP NAME:  A032C001_190802_R32C 
*SOURCE FILE: MSMMMOB.66
008083  BL                               V     C        00:00:00:00 00:00:40:14 01:39:14:16 01:39:55:05 
*SOURCE FILE: (NULL)
008084  MSMMMOB.66                       A     C        18:41:01:02 18:41:01:02 01:39:14:21 01:39:14:21 
008084  19Y08M02                         A     D    010 18:43:18:22 18:43:19:07 01:39:14:21 01:39:15:06 
M2      MSMMMOB.66                                025.0 18:41:01:02 
*FROM CLIP NAME:  A032C001_190802_R32C 
*TO CLIP NAME:  51K1/02.SYNC.01 
*SOURCE FILE: MSMMMOB.66
008085  MSMMMOB.66                       A2    C        18:41:01:02 18:41:01:02 01:39:14:21 01:39:14:21 
008085  19Y08M02                         A2    D    010 18:43:18:22 18:43:19:07 01:39:14:21 01:39:15:06 
M2      MSMMMOB.66                                025.0 18:41:01:02 
*FROM CLIP NAME:  A032C001_190802_R32C 
*TO CLIP NAME:  51K1/02.SYNC.01 
*A2 VOL = -15.0 DB  PAN L100 
*SOURCE FILE: MSMMMOB.66
008086  MSMMMOB.66                       A3    C        18:41:01:02 18:41:01:02 01:39:14:21 01:39:14:21 
008086  19Y08M02                         A3    D    010 18:43:18:22 18:43:19:07 01:39:14:21 01:39:15:06 
M2      MSMMMOB.66                                025.0 18:41:01:02 
*FROM CLIP NAME:  A032C001_190802_R32C 
*TO CLIP NAME:  51K1/02.SYNC.01 
*SOURCE FILE: MSMMMOB.66
008087  MSMMMOB.66                       A4    C        18:41:01:02 18:41:01:02 01:39:14:21 01:39:14:21 
008087  19Y08M02                         A4    D    010 18:43:18:22 18:43:19:07 01:39:14:21 01:39:15:06 
M2      MSMMMOB.66                                025.0 18:41:01:02 
*FROM CLIP NAME:  A032C001_190802_R32C 
*TO CLIP NAME:  51K1/02.SYNC.01 
*SOURCE FILE: MSMMMOB.66
008088  MSMMMOB.66                       A5    C        18:41:01:02 18:41:01:02 01:39:14:21 01:39:14:21 
008088  BL                               A5    D    010 00:00:00:00 00:00:00:10 01:39:14:21 01:39:15:06 
M2      MSMMMOB.66                                025.0 18:41:01:02 
*FROM CLIP NAME:  A032C001_190802_R32C 
*SOURCE FILE: MSMMMOB.66
008089  19Y08M02                         A6    C        18:43:19:04 18:43:20:18 01:39:15:03 01:39:16:17 
*FROM CLIP NAME:  51K1/02.SYNC.01 
*SOURCE FILE: 19Y08M02
008090  19Y08M02                         A7    C        18:43:19:04 18:43:20:18 01:39:15:03 01:39:16:17 
*FROM CLIP NAME:  51K1/02.SYNC.01 
*SOURCE FILE: 19Y08M02
008091  19Y08M02                         A8    C        18:43:19:04 18:43:20:18 01:39:15:03 01:39:16:17 
*FROM CLIP NAME:  51K1/02.SYNC.01 
*SOURCE FILE: 19Y08M02
008092  19Y08M02                         A9    C        18:43:19:04 18:43:20:18 01:39:15:03 01:39:16:17 
*FROM CLIP NAME:  51K1/02.SYNC.01 
*SOURCE FILE: 19Y08M02
008093  19Y08M02                         A10   C        18:43:19:04 18:43:20:18 01:39:15:03 01:39:16:17 
*FROM CLIP NAME:  51K1/02.SYNC.01 
*PATCH 19Y08M02:  FROM SOURCE 1 TO RECORD 10 
*SOURCE FILE: 19Y08M02
008094  MSMMMOB.63                       V     C        18:48:12:24 18:48:24:08 01:39:15:03 01:39:26:12 
M2      MSMMMOB.63                                025.0 18:48:12:24 
*FROM CLIP NAME:  A032C004_190802_R32C 
*SOURCE FILE: MSMMMOB.63
008095  19Y08M02                         A     C        18:43:19:07 18:43:20:18 01:39:15:06 01:39:16:17 
*FROM CLIP NAME:  51K1/02.SYNC.01 
*SOURCE FILE: 19Y08M02
008096  19Y08M02                         A2    C        18:43:19:07 18:43:20:18 01:39:15:06 01:39:16:17 
*FROM CLIP NAME:  51K1/02.SYNC.01 
*A2 VOL = -15.0 DB  PAN L100 
*SOURCE FILE: 19Y08M02
008097  19Y08M02                         A3    C        18:43:19:07 18:43:20:18 01:39:15:06 01:39:16:17 
*FROM CLIP NAME:  51K1/02.SYNC.01 
*SOURCE FILE: 19Y08M02
008098  19Y08M02                         A4    C        18:43:19:07 18:43:20:18 01:39:15:06 01:39:16:17 
*FROM CLIP NAME:  51K1/02.SYNC.01 
*SOURCE FILE: 19Y08M02
008099  19Y08M02                         A     C        18:43:20:18 18:43:20:18 01:39:16:17 01:39:16:17 
008099  19Y08M02                         A     D    002 18:48:14:13 18:48:14:15 01:39:16:17 01:39:16:19 
*FROM CLIP NAME:  51K1/02.SYNC.01 
*TO CLIP NAME:  51K1/04.SYNC.01 
*SOURCE FILE: 19Y08M02
008100  19Y08M02                         A2    C        18:43:20:18 18:43:20:18 01:39:16:17 01:39:16:17 
008100  19Y08M02                         A2    D    002 18:48:14:13 18:48:14:15 01:39:16:17 01:39:16:19 
*FROM CLIP NAME:  51K1/02.SYNC.01 
*TO CLIP NAME:  51K1/04.SYNC.01 
*A2 VOL = -15.0 DB  PAN L100 
*SOURCE FILE: 19Y08M02
008101  19Y08M02                         A3    C        18:43:20:18 18:43:20:18 01:39:16:17 01:39:16:17 
008101  19Y08M02                         A3    D    002 18:48:14:13 18:48:14:15 01:39:16:17 01:39:16:19 
*FROM CLIP NAME:  51K1/02.SYNC.01 
*TO CLIP NAME:  51K1/04.SYNC.01 
*SOURCE FILE: 19Y08M02
008102  19Y08M02                         A4    C        18:43:20:18 18:43:20:18 01:39:16:17 01:39:16:17 
008102  19Y08M02                         A4    D    002 18:48:14:13 18:48:14:15 01:39:16:17 01:39:16:19 
*FROM CLIP NAME:  51K1/02.SYNC.01 
*TO CLIP NAME:  51K1/04.SYNC.01 
*SOURCE FILE: 19Y08M02
008103  BL                               A5    C        00:00:00:00 00:00:00:00 01:39:16:17 01:39:16:17 
008103  19Y08M02                         A5    D    002 18:48:14:13 18:48:14:15 01:39:16:17 01:39:16:19 
*TO CLIP NAME:  51K1/04.SYNC.01 
*SOURCE FILE: (NULL)
008104  19Y08M02                         A6    C        18:43:20:18 18:43:20:18 01:39:16:17 01:39:16:17 
008104  19Y08M02                         A6    D    002 18:48:14:13 18:48:14:15 01:39:16:17 01:39:16:19 
*FROM CLIP NAME:  51K1/02.SYNC.01 
*TO CLIP NAME:  51K1/04.SYNC.01 
*SOURCE FILE: 19Y08M02
008105  19Y08M02                         A7    C        18:43:20:18 18:43:20:18 01:39:16:17 01:39:16:17 
008105  19Y08M02                         A7    D    002 18:48:14:13 18:48:14:15 01:39:16:17 01:39:16:19 
*FROM CLIP NAME:  51K1/02.SYNC.01 
*TO CLIP NAME:  51K1/04.SYNC.01 
*SOURCE FILE: 19Y08M02
008106  19Y08M02                         A8    C        18:43:20:18 18:43:20:18 01:39:16:17 01:39:16:17 
008106  19Y08M02                         A8    D    002 18:48:14:13 18:48:14:15 01:39:16:17 01:39:16:19 
*FROM CLIP NAME:  51K1/02.SYNC.01 
*TO CLIP NAME:  51K1/04.SYNC.01 
*SOURCE FILE: 19Y08M02
008107  19Y08M02                         A9    C        18:43:20:18 18:43:20:18 01:39:16:17 01:39:16:17 
008107  19Y08M02                         A9    D    002 18:48:14:13 18:48:14:15 01:39:16:17 01:39:16:19 
*FROM CLIP NAME:  51K1/02.SYNC.01 
*TO CLIP NAME:  51K1/04.SYNC.01 
*SOURCE FILE: 19Y08M02
008108  19Y08M02                         A10   C        18:43:20:18 18:43:20:18 01:39:16:17 01:39:16:17 
008108  19Y08M02                         A10   D    002 18:48:14:13 18:48:14:15 01:39:16:17 01:39:16:19 
*FROM CLIP NAME:  51K1/02.SYNC.01 
*TO CLIP NAME:  51K1/04.SYNC.01 
*PATCH 19Y08M02:  FROM SOURCE 1 TO RECORD 10 
*PATCH 19Y08M02:  FROM SOURCE 1 TO RECORD 10 
*SOURCE FILE: 19Y08M02
008109  19Y08M02                         A     C        18:48:14:15 18:48:20:13 01:39:16:19 01:39:22:17 
*FROM CLIP NAME:  51K1/04.SYNC.01 
*SOURCE FILE: 19Y08M02
008110  19Y08M02                         A2    C        18:48:14:15 18:48:20:13 01:39:16:19 01:39:22:17 
*FROM CLIP NAME:  51K1/04.SYNC.01 
*SOURCE FILE: 19Y08M02
008111  19Y08M02                         A3    C        18:48:14:15 18:48:20:13 01:39:16:19 01:39:22:17 
*FROM CLIP NAME:  51K1/04.SYNC.01 
*SOURCE FILE: 19Y08M02
008112  19Y08M02                         A4    C        18:48:14:15 18:48:20:13 01:39:16:19 01:39:22:17 
*FROM CLIP NAME:  51K1/04.SYNC.01 
*SOURCE FILE: 19Y08M02
008113  19Y08M02                         A5    C        18:48:14:15 18:48:20:13 01:39:16:19 01:39:22:17 
*FROM CLIP NAME:  51K1/04.SYNC.01 
*SOURCE FILE: 19Y08M02
008114  19Y08M02                         A6    C        18:48:14:15 18:48:20:13 01:39:16:19 01:39:22:17 
*FROM CLIP NAME:  51K1/04.SYNC.01 
*SOURCE FILE: 19Y08M02
008115  19Y08M02                         A7    C        18:48:14:15 18:48:20:13 01:39:16:19 01:39:22:17 
*FROM CLIP NAME:  51K1/04.SYNC.01 
*SOURCE FILE: 19Y08M02
008116  19Y08M02                         A8    C        18:48:14:15 18:48:20:13 01:39:16:19 01:39:22:17 
*FROM CLIP NAME:  51K1/04.SYNC.01 
*SOURCE FILE: 19Y08M02
008117  19Y08M02                         A9    C        18:48:14:15 18:48:20:13 01:39:16:19 01:39:22:17 
*FROM CLIP NAME:  51K1/04.SYNC.01 
*SOURCE FILE: 19Y08M02
008118  19Y08M02                         A10   C        18:48:14:15 18:48:20:13 01:39:16:19 01:39:22:17 
*FROM CLIP NAME:  51K1/04.SYNC.01 
*PATCH 19Y08M02:  FROM SOURCE 1 TO RECORD 10 
*SOURCE FILE: 19Y08M02
008119  19Y08M02                         A     C        18:48:20:13 18:48:20:13 01:39:22:17 01:39:22:17 
008119  19Y08M02                         A     D    002 18:45:26:19 18:45:26:21 01:39:22:17 01:39:22:19 
*FROM CLIP NAME:  51K1/04.SYNC.01 
*TO CLIP NAME:  51K1/03.SYNC.01 
*SOURCE FILE: 19Y08M02
008120  19Y08M02                         A2    C        18:48:20:13 18:48:20:13 01:39:22:17 01:39:22:17 
008120  19Y08M02                         A2    D    002 18:45:26:19 18:45:26:21 01:39:22:17 01:39:22:19 
*FROM CLIP NAME:  51K1/04.SYNC.01 
*TO CLIP NAME:  51K1/03.SYNC.01 
*SOURCE FILE: 19Y08M02
008121  19Y08M02                         A3    C        18:48:20:13 18:48:20:13 01:39:22:17 01:39:22:17 
008121  19Y08M02                         A3    D    002 18:45:26:19 18:45:26:21 01:39:22:17 01:39:22:19 
*FROM CLIP NAME:  51K1/04.SYNC.01 
*TO CLIP NAME:  51K1/03.SYNC.01 
*SOURCE FILE: 19Y08M02
008122  19Y08M02                         A4    C        18:48:20:13 18:48:20:13 01:39:22:17 01:39:22:17 
008122  19Y08M02                         A4    D    002 18:45:26:19 18:45:26:21 01:39:22:17 01:39:22:19 
*FROM CLIP NAME:  51K1/04.SYNC.01 
*TO CLIP NAME:  51K1/03.SYNC.01 
*SOURCE FILE: 19Y08M02
008123  19Y08M02                         A5    C        18:48:20:13 18:48:20:13 01:39:22:17 01:39:22:17 
008123  19Y08M02                         A5    D    002 18:45:26:19 18:45:26:21 01:39:22:17 01:39:22:19 
*FROM CLIP NAME:  51K1/04.SYNC.01 
*TO CLIP NAME:  51K1/03.SYNC.01 
*SOURCE FILE: 19Y08M02
008124  19Y08M02                         A6    C        18:48:20:13 18:48:20:13 01:39:22:17 01:39:22:17 
008124  19Y08M02                         A6    D    002 18:45:26:19 18:45:26:21 01:39:22:17 01:39:22:19 
*FROM CLIP NAME:  51K1/04.SYNC.01 
*TO CLIP NAME:  51K1/03.SYNC.01 
*SOURCE FILE: 19Y08M02
008125  19Y08M02                         A7    C        18:48:20:13 18:48:20:13 01:39:22:17 01:39:22:17 
008125  19Y08M02                         A7    D    002 18:45:26:19 18:45:26:21 01:39:22:17 01:39:22:19 
*FROM CLIP NAME:  51K1/04.SYNC.01 
*TO CLIP NAME:  51K1/03.SYNC.01 
*SOURCE FILE: 19Y08M02
008126  19Y08M02                         A8    C        18:48:20:13 18:48:20:13 01:39:22:17 01:39:22:17 
008126  19Y08M02                         A8    D    002 18:45:26:19 18:45:26:21 01:39:22:17 01:39:22:19 
*FROM CLIP NAME:  51K1/04.SYNC.01 
*TO CLIP NAME:  51K1/03.SYNC.01 
*SOURCE FILE: 19Y08M02
008127  19Y08M02                         A9    C        18:48:20:13 18:48:20:13 01:39:22:17 01:39:22:17 
008127  19Y08M02                         A9    D    002 18:45:26:19 18:45:26:21 01:39:22:17 01:39:22:19 
*FROM CLIP NAME:  51K1/04.SYNC.01 
*TO CLIP NAME:  51K1/03.SYNC.01 
*SOURCE FILE: 19Y08M02
008128  19Y08M02                         A10   C        18:48:20:13 18:48:20:13 01:39:22:17 01:39:22:17 
008128  19Y08M02                         A10   D    002 18:45:26:19 18:45:26:21 01:39:22:17 01:39:22:19 
*FROM CLIP NAME:  51K1/04.SYNC.01 
*TO CLIP NAME:  51K1/03.SYNC.01 
*PATCH 19Y08M02:  FROM SOURCE 1 TO RECORD 10 
*PATCH 19Y08M02:  FROM SOURCE 1 TO RECORD 10 
*SOURCE FILE: 19Y08M02
008129  19Y08M02                         A     C        18:45:26:21 18:45:28:08 01:39:22:19 01:39:24:06 
*FROM CLIP NAME:  51K1/03.SYNC.01 
*SOURCE FILE: 19Y08M02
008130  19Y08M02                         A2    C        18:45:26:21 18:45:28:08 01:39:22:19 01:39:24:06 
*FROM CLIP NAME:  51K1/03.SYNC.01 
*SOURCE FILE: 19Y08M02
008131  19Y08M02                         A3    C        18:45:26:21 18:45:28:08 01:39:22:19 01:39:24:06 
*FROM CLIP NAME:  51K1/03.SYNC.01 
*SOURCE FILE: 19Y08M02
008132  19Y08M02                         A4    C        18:45:26:21 18:45:28:08 01:39:22:19 01:39:24:06 
*FROM CLIP NAME:  51K1/03.SYNC.01 
*SOURCE FILE: 19Y08M02
008133  19Y08M02                         A5    C        18:45:26:21 18:45:28:08 01:39:22:19 01:39:24:06 
*FROM CLIP NAME:  51K1/03.SYNC.01 
*SOURCE FILE: 19Y08M02
008134  19Y08M02                         A6    C        18:45:26:21 18:45:28:08 01:39:22:19 01:39:24:06 
*FROM CLIP NAME:  51K1/03.SYNC.01 
*SOURCE FILE: 19Y08M02
008135  19Y08M02                         A7    C        18:45:26:21 18:45:28:08 01:39:22:19 01:39:24:06 
*FROM CLIP NAME:  51K1/03.SYNC.01 
*SOURCE FILE: 19Y08M02
008136  19Y08M02                         A8    C        18:45:26:21 18:45:28:08 01:39:22:19 01:39:24:06 
*FROM CLIP NAME:  51K1/03.SYNC.01 
*SOURCE FILE: 19Y08M02
008137  19Y08M02                         A9    C        18:45:26:21 18:45:28:08 01:39:22:19 01:39:24:06 
*FROM CLIP NAME:  51K1/03.SYNC.01 
*SOURCE FILE: 19Y08M02
008138  19Y08M02                         A10   C        18:45:26:21 18:45:28:08 01:39:22:19 01:39:24:06 
*FROM CLIP NAME:  51K1/03.SYNC.01 
*PATCH 19Y08M02:  FROM SOURCE 1 TO RECORD 10 
*SOURCE FILE: 19Y08M02
008139  19Y08M02                         A     C        18:45:28:08 18:45:28:08 01:39:24:06 01:39:24:06 
008139  19Y08M02                         A     D    002 18:48:22:02 18:48:22:04 01:39:24:06 01:39:24:08 
*FROM CLIP NAME:  51K1/03.SYNC.01 
*TO CLIP NAME:  51K1/04.SYNC.01 
*SOURCE FILE: 19Y08M02
008140  19Y08M02                         A2    C        18:45:28:08 18:45:28:08 01:39:24:06 01:39:24:06 
008140  19Y08M02                         A2    D    002 18:48:22:02 18:48:22:04 01:39:24:06 01:39:24:08 
*FROM CLIP NAME:  51K1/03.SYNC.01 
*TO CLIP NAME:  51K1/04.SYNC.01 
*SOURCE FILE: 19Y08M02
008141  19Y08M02                         A3    C        18:45:28:08 18:45:28:08 01:39:24:06 01:39:24:06 
008141  19Y08M02                         A3    D    002 18:48:22:02 18:48:22:04 01:39:24:06 01:39:24:08 
*FROM CLIP NAME:  51K1/03.SYNC.01 
*TO CLIP NAME:  51K1/04.SYNC.01 
*SOURCE FILE: 19Y08M02
008142  19Y08M02                         A4    C        18:45:28:08 18:45:28:08 01:39:24:06 01:39:24:06 
008142  19Y08M02                         A4    D    002 18:48:22:02 18:48:22:04 01:39:24:06 01:39:24:08 
*FROM CLIP NAME:  51K1/03.SYNC.01 
*TO CLIP NAME:  51K1/04.SYNC.01 
*SOURCE FILE: 19Y08M02
008143  19Y08M02                         A5    C        18:45:28:08 18:45:28:08 01:39:24:06 01:39:24:06 
008143  19Y08M02                         A5    D    002 18:48:22:02 18:48:22:04 01:39:24:06 01:39:24:08 
*FROM CLIP NAME:  51K1/03.SYNC.01 
*TO CLIP NAME:  51K1/04.SYNC.01 
*SOURCE FILE: 19Y08M02
008144  19Y08M02                         A6    C        18:45:28:08 18:45:28:08 01:39:24:06 01:39:24:06 
008144  19Y08M02                         A6    D    002 18:48:22:02 18:48:22:04 01:39:24:06 01:39:24:08 
*FROM CLIP NAME:  51K1/03.SYNC.01 
*TO CLIP NAME:  51K1/04.SYNC.01 
*SOURCE FILE: 19Y08M02
008145  19Y08M02                         A7    C        18:45:28:08 18:45:28:08 01:39:24:06 01:39:24:06 
008145  19Y08M02                         A7    D    002 18:48:22:02 18:48:22:04 01:39:24:06 01:39:24:08 
*FROM CLIP NAME:  51K1/03.SYNC.01 
*TO CLIP NAME:  51K1/04.SYNC.01 
*SOURCE FILE: 19Y08M02
008146  19Y08M02                         A8    C        18:45:28:08 18:45:28:08 01:39:24:06 01:39:24:06 
008146  19Y08M02                         A8    D    002 18:48:22:02 18:48:22:04 01:39:24:06 01:39:24:08 
*FROM CLIP NAME:  51K1/03.SYNC.01 
*TO CLIP NAME:  51K1/04.SYNC.01 
*SOURCE FILE: 19Y08M02
008147  19Y08M02                         A9    C        18:45:28:08 18:45:28:08 01:39:24:06 01:39:24:06 
008147  19Y08M02                         A9    D    002 18:48:22:02 18:48:22:04 01:39:24:06 01:39:24:08 
*FROM CLIP NAME:  51K1/03.SYNC.01 
*TO CLIP NAME:  51K1/04.SYNC.01 
*SOURCE FILE: 19Y08M02
008148  19Y08M02                         A10   C        18:45:28:08 18:45:28:08 01:39:24:06 01:39:24:06 
008148  19Y08M02                         A10   D    002 18:48:22:02 18:48:22:04 01:39:24:06 01:39:24:08 
*FROM CLIP NAME:  51K1/03.SYNC.01 
*TO CLIP NAME:  51K1/04.SYNC.01 
*PATCH 19Y08M02:  FROM SOURCE 1 TO RECORD 10 
*PATCH 19Y08M02:  FROM SOURCE 1 TO RECORD 10 
*SOURCE FILE: 19Y08M02
008149  19Y08M02                         A     C        18:48:22:04 18:48:22:10 01:39:24:08 01:39:24:14 
*FROM CLIP NAME:  51K1/04.SYNC.01 
*SOURCE FILE: 19Y08M02
008150  19Y08M02                         A2    C        18:48:22:04 18:48:22:10 01:39:24:08 01:39:24:14 
*FROM CLIP NAME:  51K1/04.SYNC.01 
*SOURCE FILE: 19Y08M02
008151  19Y08M02                         A3    C        18:48:22:04 18:48:22:10 01:39:24:08 01:39:24:14 
*FROM CLIP NAME:  51K1/04.SYNC.01 
*SOURCE FILE: 19Y08M02
008152  19Y08M02                         A4    C        18:48:22:04 18:48:22:10 01:39:24:08 01:39:24:14 
*FROM CLIP NAME:  51K1/04.SYNC.01 
*SOURCE FILE: 19Y08M02
008153  19Y08M02                         A5    C        18:48:22:04 18:48:22:10 01:39:24:08 01:39:24:14 
*FROM CLIP NAME:  51K1/04.SYNC.01 
*SOURCE FILE: 19Y08M02
008154  19Y08M02                         A6    C        18:48:22:04 18:48:22:10 01:39:24:08 01:39:24:14 
*FROM CLIP NAME:  51K1/04.SYNC.01 
*SOURCE FILE: 19Y08M02
008155  19Y08M02                         A7    C        18:48:22:04 18:48:22:10 01:39:24:08 01:39:24:14 
*FROM CLIP NAME:  51K1/04.SYNC.01 
*SOURCE FILE: 19Y08M02
008156  19Y08M02                         A8    C        18:48:22:04 18:48:22:10 01:39:24:08 01:39:24:14 
*FROM CLIP NAME:  51K1/04.SYNC.01 
*SOURCE FILE: 19Y08M02
008157  19Y08M02                         A9    C        18:48:22:04 18:48:22:10 01:39:24:08 01:39:24:14 
*FROM CLIP NAME:  51K1/04.SYNC.01 
*SOURCE FILE: 19Y08M02
008158  19Y08M02                         A10   C        18:48:22:04 18:48:22:10 01:39:24:08 01:39:24:14 
*FROM CLIP NAME:  51K1/04.SYNC.01 
*PATCH 19Y08M02:  FROM SOURCE 1 TO RECORD 10 
*SOURCE FILE: 19Y08M02
008159  19Y08M02                         A     C        18:41:27:12 18:41:29:05 01:39:24:14 01:39:26:07 
*FROM CLIP NAME:  51K1/01.SYNC.01 
*SOURCE FILE: 19Y08M02
008160  19Y08M02                         A2    C        18:41:27:12 18:41:29:05 01:39:24:14 01:39:26:07 
*FROM CLIP NAME:  51K1/01.SYNC.01 
*SOURCE FILE: 19Y08M02
008161  19Y08M02                         A3    C        18:41:27:12 18:41:29:05 01:39:24:14 01:39:26:07 
*FROM CLIP NAME:  51K1/01.SYNC.01 
*SOURCE FILE: 19Y08M02
008162  19Y08M02                         A4    C        18:41:27:12 18:41:29:05 01:39:24:14 01:39:26:07 
*FROM CLIP NAME:  51K1/01.SYNC.01 
*SOURCE FILE: 19Y08M02
008163  19Y08M02                         A5    C        18:41:27:12 18:41:29:05 01:39:24:14 01:39:26:07 
*FROM CLIP NAME:  51K1/01.SYNC.01 
*SOURCE FILE: 19Y08M02
008164  19Y08M02                         A6    C        18:41:27:12 18:41:29:05 01:39:24:14 01:39:26:07 
*FROM CLIP NAME:  51K1/01.SYNC.01 
*SOURCE FILE: 19Y08M02
008165  19Y08M02                         A7    C        18:41:27:12 18:41:29:05 01:39:24:14 01:39:26:07 
*FROM CLIP NAME:  51K1/01.SYNC.01 
*SOURCE FILE: 19Y08M02
008166  19Y08M02                         A8    C        18:41:27:12 18:41:29:05 01:39:24:14 01:39:26:07 
*FROM CLIP NAME:  51K1/01.SYNC.01 
*SOURCE FILE: 19Y08M02
008167  19Y08M02                         A9    C        18:41:27:12 18:41:29:05 01:39:24:14 01:39:26:07 
*FROM CLIP NAME:  51K1/01.SYNC.01 
*SOURCE FILE: 19Y08M02
008168  19Y08M02                         A10   C        18:41:27:12 18:41:29:05 01:39:24:14 01:39:26:07 
*FROM CLIP NAME:  51K1/01.SYNC.01 
*PATCH 19Y08M02:  FROM SOURCE 1 TO RECORD 10 
*SOURCE FILE: 19Y08M02
008169  19Y08M02                         A     C        18:48:24:03 18:48:24:08 01:39:26:07 01:39:26:12 
*FROM CLIP NAME:  51K1/04.SYNC.01 
*SOURCE FILE: 19Y08M02
008170  19Y08M02                         A2    C        18:48:24:03 18:48:24:08 01:39:26:07 01:39:26:12 
*FROM CLIP NAME:  51K1/04.SYNC.01 
*SOURCE FILE: 19Y08M02
008171  19Y08M02                         A3    C        18:48:24:03 18:48:24:08 01:39:26:07 01:39:26:12 
*FROM CLIP NAME:  51K1/04.SYNC.01 
*SOURCE FILE: 19Y08M02
008172  19Y08M02                         A4    C        18:48:24:03 18:48:24:08 01:39:26:07 01:39:26:12 
*FROM CLIP NAME:  51K1/04.SYNC.01 
*SOURCE FILE: 19Y08M02
008173  19Y08M02                         A5    C        18:48:24:03 18:48:24:08 01:39:26:07 01:39:26:12 
*FROM CLIP NAME:  51K1/04.SYNC.01 
*SOURCE FILE: 19Y08M02
008174  19Y08M02                         A6    C        18:48:24:03 18:48:24:08 01:39:26:07 01:39:26:12 
*FROM CLIP NAME:  51K1/04.SYNC.01 
*SOURCE FILE: 19Y08M02
008175  19Y08M02                         A7    C        18:48:24:03 18:48:24:08 01:39:26:07 01:39:26:12 
*FROM CLIP NAME:  51K1/04.SYNC.01 
*SOURCE FILE: 19Y08M02
008176  19Y08M02                         A8    C        18:48:24:03 18:48:24:08 01:39:26:07 01:39:26:12 
*FROM CLIP NAME:  51K1/04.SYNC.01 
*SOURCE FILE: 19Y08M02
008177  19Y08M02                         A9    C        18:48:24:03 18:48:24:08 01:39:26:07 01:39:26:12 
*FROM CLIP NAME:  51K1/04.SYNC.01 
*SOURCE FILE: 19Y08M02
008178  19Y08M02                         A10   C        18:48:24:03 18:48:24:08 01:39:26:07 01:39:26:12 
*FROM CLIP NAME:  51K1/04.SYNC.01 
*PATCH 19Y08M02:  FROM SOURCE 1 TO RECORD 10 
*SOURCE FILE: 19Y08M02
008179  MSMMMOB.26                       V     C        21:06:40:17 21:06:42:00 01:39:26:12 01:39:27:20 
M2      MSMMMOB.26                                025.0 21:06:40:17 
*FROM CLIP NAME:  A034C007_190802_R32C 
*SOURCE FILE: MSMMMOB.26
008180  19Y08M02                         A     C        21:06:40:17 21:06:42:00 01:39:26:12 01:39:27:20 
*FROM CLIP NAME:  51K10/02.SYNC.01 
*SOURCE FILE: 19Y08M02
008181  19Y08M02                         A2    C        21:06:40:17 21:06:42:00 01:39:26:12 01:39:27:20 
*FROM CLIP NAME:  51K10/02.SYNC.01 
*SOURCE FILE: 19Y08M02
008182  19Y08M02                         A3    C        21:06:40:17 21:06:42:00 01:39:26:12 01:39:27:20 
*FROM CLIP NAME:  51K10/02.SYNC.01 
*SOURCE FILE: 19Y08M02
008183  19Y08M02                         A4    C        21:06:40:17 21:06:42:00 01:39:26:12 01:39:27:20 
*FROM CLIP NAME:  51K10/02.SYNC.01 
*SOURCE FILE: 19Y08M02
008184  19Y08M02                         A5    C        21:06:40:17 21:06:42:00 01:39:26:12 01:39:27:20 
*FROM CLIP NAME:  51K10/02.SYNC.01 
*SOURCE FILE: 19Y08M02
008185  19Y08M02                         A6    C        21:06:40:17 21:06:42:00 01:39:26:12 01:39:27:20 
*FROM CLIP NAME:  51K10/02.SYNC.01 
*SOURCE FILE: 19Y08M02
008186  19Y08M02                         A7    C        21:06:40:17 21:06:42:00 01:39:26:12 01:39:27:20 
*FROM CLIP NAME:  51K10/02.SYNC.01 
*SOURCE FILE: 19Y08M02
008187  19Y08M02                         A8    C        21:06:40:17 21:06:42:00 01:39:26:12 01:39:27:20 
*FROM CLIP NAME:  51K10/02.SYNC.01 
*SOURCE FILE: 19Y08M02
008188  19Y08M02                         A9    C        21:06:40:17 21:06:42:00 01:39:26:12 01:39:27:20 
*FROM CLIP NAME:  51K10/02.SYNC.01 
*SOURCE FILE: 19Y08M02
008189  19Y08M02                         A10   C        21:06:40:17 21:06:42:00 01:39:26:12 01:39:27:20 
*FROM CLIP NAME:  51K10/02.SYNC.01 
*PATCH 19Y08M02:  FROM SOURCE 1 TO RECORD 10 
*SOURCE FILE: 19Y08M02
008190  MSMMMOB.27                       V     C        19:38:53:19 19:38:54:19 01:39:27:20 01:39:28:20 
M2      MSMMMOB.27                                025.0 19:38:53:19 
*FROM CLIP NAME:  A032C012_190802_R32C 
*SOURCE FILE: MSMMMOB.27
008191  19Y08M02                         A     C        21:06:42:07 21:06:43:07 01:39:27:20 01:39:28:20 
*FROM CLIP NAME:  51K10/02.SYNC.01 
*SOURCE FILE: 19Y08M02
008192  19Y08M02                         A2    C        21:06:42:07 21:06:43:07 01:39:27:20 01:39:28:20 
*FROM CLIP NAME:  51K10/02.SYNC.01 
*SOURCE FILE: 19Y08M02
008193  19Y08M02                         A3    C        21:06:42:07 21:06:43:07 01:39:27:20 01:39:28:20 
*FROM CLIP NAME:  51K10/02.SYNC.01 
*SOURCE FILE: 19Y08M02
008194  19Y08M02                         A4    C        21:06:42:07 21:06:43:07 01:39:27:20 01:39:28:20 
*FROM CLIP NAME:  51K10/02.SYNC.01 
*SOURCE FILE: 19Y08M02
008195  19Y08M02                         A5    C        21:06:42:07 21:06:43:07 01:39:27:20 01:39:28:20 
*FROM CLIP NAME:  51K10/02.SYNC.01 
*SOURCE FILE: 19Y08M02
008196  19Y08M02                         A6    C        21:06:42:07 21:06:43:07 01:39:27:20 01:39:28:20 
*FROM CLIP NAME:  51K10/02.SYNC.01 
*SOURCE FILE: 19Y08M02
008197  19Y08M02                         A7    C        21:06:42:07 21:06:43:07 01:39:27:20 01:39:28:20 
*FROM CLIP NAME:  51K10/02.SYNC.01 
*SOURCE FILE: 19Y08M02
008198  19Y08M02                         A8    C        21:06:42:07 21:06:43:07 01:39:27:20 01:39:28:20 
*FROM CLIP NAME:  51K10/02.SYNC.01 
*SOURCE FILE: 19Y08M02
008199  19Y08M02                         A9    C        21:06:42:07 21:06:43:07 01:39:27:20 01:39:28:20 
*FROM CLIP NAME:  51K10/02.SYNC.01 
*SOURCE FILE: 19Y08M02
008200  19Y08M02                         A10   C        21:06:42:07 21:06:43:07 01:39:27:20 01:39:28:20 
*FROM CLIP NAME:  51K10/02.SYNC.01 
*PATCH 19Y08M02:  FROM SOURCE 1 TO RECORD 10 
*SOURCE FILE: 19Y08M02
008201  19Y08M02                         A     C        21:06:42:18 21:06:42:21 01:39:28:20 01:39:28:23 
*FROM CLIP NAME:  51K10/02.SYNC.01 
*SOURCE FILE: 19Y08M02
008202  19Y08M02                         A2    C        21:06:42:18 21:06:42:21 01:39:28:20 01:39:28:23 
*FROM CLIP NAME:  51K10/02.SYNC.01 
*SOURCE FILE: 19Y08M02
008203  19Y08M02                         A3    C        21:06:42:18 21:06:42:21 01:39:28:20 01:39:28:23 
*FROM CLIP NAME:  51K10/02.SYNC.01 
*SOURCE FILE: 19Y08M02
008204  19Y08M02                         A4    C        21:06:42:18 21:06:42:21 01:39:28:20 01:39:28:23 
*FROM CLIP NAME:  51K10/02.SYNC.01 
*SOURCE FILE: 19Y08M02
008205  19Y08M02                         A5    C        21:06:42:18 21:06:42:21 01:39:28:20 01:39:28:23 
*FROM CLIP NAME:  51K10/02.SYNC.01 
*SOURCE FILE: 19Y08M02
008206  19Y08M02                         A6    C        21:06:42:18 21:06:42:21 01:39:28:20 01:39:28:23 
*FROM CLIP NAME:  51K10/02.SYNC.01 
*SOURCE FILE: 19Y08M02
008207  19Y08M02                         A7    C        21:06:42:18 21:06:42:21 01:39:28:20 01:39:28:23 
*FROM CLIP NAME:  51K10/02.SYNC.01 
*SOURCE FILE: 19Y08M02
008208  19Y08M02                         A8    C        21:06:42:18 21:06:42:21 01:39:28:20 01:39:28:23 
*FROM CLIP NAME:  51K10/02.SYNC.01 
*SOURCE FILE: 19Y08M02
008209  19Y08M02                         A9    C        21:06:42:18 21:06:42:21 01:39:28:20 01:39:28:23 
*FROM CLIP NAME:  51K10/02.SYNC.01 
*SOURCE FILE: 19Y08M02
008210  19Y08M02                         A10   C        21:06:42:18 21:06:42:21 01:39:28:20 01:39:28:23 
*FROM CLIP NAME:  51K10/02.SYNC.01 
*PATCH 19Y08M02:  FROM SOURCE 1 TO RECORD 10 
*SOURCE FILE: 19Y08M02
008211  MSMMMOB.26                       V     C        21:06:42:00 21:06:44:19 01:39:28:20 01:39:31:14 
M2      MSMMMOB.26                                025.0 21:06:42:00 
*FROM CLIP NAME:  A034C007_190802_R32C 
*SOURCE FILE: MSMMMOB.26
008212  19Y08M02                         A     C        21:06:42:03 21:06:44:19 01:39:28:23 01:39:31:14 
*FROM CLIP NAME:  51K10/02.SYNC.01 
*SOURCE FILE: 19Y08M02
008213  19Y08M02                         A2    C        21:06:42:03 21:06:44:19 01:39:28:23 01:39:31:14 
*FROM CLIP NAME:  51K10/02.SYNC.01 
*SOURCE FILE: 19Y08M02
008214  19Y08M02                         A3    C        21:06:42:03 21:06:44:19 01:39:28:23 01:39:31:14 
*FROM CLIP NAME:  51K10/02.SYNC.01 
*SOURCE FILE: 19Y08M02
008215  19Y08M02                         A4    C        21:06:42:03 21:06:44:19 01:39:28:23 01:39:31:14 
*FROM CLIP NAME:  51K10/02.SYNC.01 
*SOURCE FILE: 19Y08M02
008216  19Y08M02                         A5    C        21:06:42:03 21:06:44:19 01:39:28:23 01:39:31:14 
*FROM CLIP NAME:  51K10/02.SYNC.01 
*SOURCE FILE: 19Y08M02
008217  19Y08M02                         A6    C        21:06:42:03 21:06:44:19 01:39:28:23 01:39:31:14 
*FROM CLIP NAME:  51K10/02.SYNC.01 
*SOURCE FILE: 19Y08M02
008218  19Y08M02                         A7    C        21:06:42:03 21:06:44:19 01:39:28:23 01:39:31:14 
*FROM CLIP NAME:  51K10/02.SYNC.01 
*SOURCE FILE: 19Y08M02
008219  19Y08M02                         A8    C        21:06:42:03 21:06:44:19 01:39:28:23 01:39:31:14 
*FROM CLIP NAME:  51K10/02.SYNC.01 
*SOURCE FILE: 19Y08M02
008220  19Y08M02                         A9    C        21:06:42:03 21:06:44:19 01:39:28:23 01:39:31:14 
*FROM CLIP NAME:  51K10/02.SYNC.01 
*SOURCE FILE: 19Y08M02
008221  19Y08M02                         A10   C        21:06:42:03 21:06:44:19 01:39:28:23 01:39:31:14 
*FROM CLIP NAME:  51K10/02.SYNC.01 
*PATCH 19Y08M02:  FROM SOURCE 1 TO RECORD 10 
*SOURCE FILE: 19Y08M02
008222  MSMMMOB.03                       V     C        20:51:34:12 20:51:37:05 01:39:31:14 01:39:34:07 
M2      MSMMMOB.03                                025.0 20:51:34:12 
*FROM CLIP NAME:  A034C005_190802_R32C 
*SOURCE FILE: MSMMMOB.03
008223  19Y08M02                         A     C        20:51:34:12 20:51:37:05 01:39:31:14 01:39:34:07 
*FROM CLIP NAME:  51K9/04.SYNC.01 
*SOURCE FILE: 19Y08M02
008224  19Y08M02                         A2    C        20:51:34:12 20:51:37:05 01:39:31:14 01:39:34:07 
*FROM CLIP NAME:  51K9/04.SYNC.01 
*SOURCE FILE: 19Y08M02
008225  19Y08M02                         A3    C        20:51:34:12 20:51:37:05 01:39:31:14 01:39:34:07 
*FROM CLIP NAME:  51K9/04.SYNC.01 
*SOURCE FILE: 19Y08M02
008226  19Y08M02                         A4    C        20:51:34:12 20:51:37:05 01:39:31:14 01:39:34:07 
*FROM CLIP NAME:  51K9/04.SYNC.01 
*SOURCE FILE: 19Y08M02
008227  19Y08M02                         A5    C        20:51:34:12 20:51:37:05 01:39:31:14 01:39:34:07 
*FROM CLIP NAME:  51K9/04.SYNC.01 
*SOURCE FILE: 19Y08M02
008228  19Y08M02                         A6    C        20:51:34:12 20:51:37:05 01:39:31:14 01:39:34:07 
*FROM CLIP NAME:  51K9/04.SYNC.01 
*SOURCE FILE: 19Y08M02
008229  19Y08M02                         A7    C        20:51:34:12 20:51:37:05 01:39:31:14 01:39:34:07 
*FROM CLIP NAME:  51K9/04.SYNC.01 
*SOURCE FILE: 19Y08M02
008230  19Y08M02                         A8    C        20:51:34:12 20:51:37:05 01:39:31:14 01:39:34:07 
*FROM CLIP NAME:  51K9/04.SYNC.01 
*SOURCE FILE: 19Y08M02
008231  19Y08M02                         A9    C        20:51:34:12 20:51:37:05 01:39:31:14 01:39:34:07 
*FROM CLIP NAME:  51K9/04.SYNC.01 
*SOURCE FILE: 19Y08M02
008232  19Y08M02                         A10   C        20:51:34:12 20:51:37:05 01:39:31:14 01:39:34:07 
*FROM CLIP NAME:  51K9/04.SYNC.01 
*PATCH 19Y08M02:  FROM SOURCE 1 TO RECORD 10 
*SOURCE FILE: 19Y08M02
008233  MSMMMOB.33                       V     C        21:17:10:09 21:17:11:15 01:39:34:07 01:39:35:13 
M2      MSMMMOB.33                                025.0 21:17:10:09 
*FROM CLIP NAME:  A035C001_190802_R32C 
*SOURCE FILE: MSMMMOB.33
008234  19Y08M02                         A     C        20:51:43:11 20:51:45:12 01:39:34:07 01:39:36:08 
*FROM CLIP NAME:  51K9/04.SYNC.01 
*SOURCE FILE: 19Y08M02
008235  19Y08M02                         A2    C        20:51:43:11 20:51:45:12 01:39:34:07 01:39:36:08 
*FROM CLIP NAME:  51K9/04.SYNC.01 
*SOURCE FILE: 19Y08M02
008236  19Y08M02                         A3    C        20:51:43:11 20:51:45:12 01:39:34:07 01:39:36:08 
*FROM CLIP NAME:  51K9/04.SYNC.01 
*SOURCE FILE: 19Y08M02
008237  19Y08M02                         A4    C        20:51:43:11 20:51:45:12 01:39:34:07 01:39:36:08 
*FROM CLIP NAME:  51K9/04.SYNC.01 
*SOURCE FILE: 19Y08M02
008238  19Y08M02                         A5    C        20:51:43:11 20:51:45:12 01:39:34:07 01:39:36:08 
*FROM CLIP NAME:  51K9/04.SYNC.01 
*SOURCE FILE: 19Y08M02
008239  19Y08M02                         A6    C        20:51:43:11 20:51:45:12 01:39:34:07 01:39:36:08 
*FROM CLIP NAME:  51K9/04.SYNC.01 
*SOURCE FILE: 19Y08M02
008240  19Y08M02                         A7    C        20:51:43:11 20:51:45:12 01:39:34:07 01:39:36:08 
*FROM CLIP NAME:  51K9/04.SYNC.01 
*SOURCE FILE: 19Y08M02
008241  19Y08M02                         A8    C        20:51:43:11 20:51:45:12 01:39:34:07 01:39:36:08 
*FROM CLIP NAME:  51K9/04.SYNC.01 
*SOURCE FILE: 19Y08M02
008242  19Y08M02                         A9    C        20:51:43:11 20:51:45:12 01:39:34:07 01:39:36:08 
*FROM CLIP NAME:  51K9/04.SYNC.01 
*SOURCE FILE: 19Y08M02
008243  19Y08M02                         A10   C        20:51:43:11 20:51:45:12 01:39:34:07 01:39:36:08 
*FROM CLIP NAME:  51K9/04.SYNC.01 
*PATCH 19Y08M02:  FROM SOURCE 1 TO RECORD 10 
*SOURCE FILE: 19Y08M02
008244  MSMMMOB.27                       V     C        19:39:00:21 19:39:02:22 01:39:35:13 01:39:37:14 
M2      MSMMMOB.27                                025.0 19:39:00:21 
*FROM CLIP NAME:  A032C012_190802_R32C 
*SOURCE FILE: MSMMMOB.27
008245  19Y08M02                         A     C        20:51:46:11 20:51:51:18 01:39:36:08 01:39:41:15 
*FROM CLIP NAME:  51K9/04.SYNC.01 
*SOURCE FILE: 19Y08M02
008246  19Y08M02                         A2    C        20:51:46:11 20:51:51:18 01:39:36:08 01:39:41:15 
*FROM CLIP NAME:  51K9/04.SYNC.01 
*SOURCE FILE: 19Y08M02
008247  19Y08M02                         A3    C        20:51:46:11 20:51:51:18 01:39:36:08 01:39:41:15 
*FROM CLIP NAME:  51K9/04.SYNC.01 
*SOURCE FILE: 19Y08M02
008248  19Y08M02                         A4    C        20:51:46:11 20:51:51:18 01:39:36:08 01:39:41:15 
*FROM CLIP NAME:  51K9/04.SYNC.01 
*SOURCE FILE: 19Y08M02
008249  19Y08M02                         A5    C        20:51:46:11 20:51:51:18 01:39:36:08 01:39:41:15 
*FROM CLIP NAME:  51K9/04.SYNC.01 
*SOURCE FILE: 19Y08M02
008250  19Y08M02                         A6    C        20:51:46:11 20:51:51:18 01:39:36:08 01:39:41:15 
*FROM CLIP NAME:  51K9/04.SYNC.01 
*SOURCE FILE: 19Y08M02
008251  19Y08M02                         A7    C        20:51:46:11 20:51:51:18 01:39:36:08 01:39:41:15 
*FROM CLIP NAME:  51K9/04.SYNC.01 
*SOURCE FILE: 19Y08M02
008252  19Y08M02                         A8    C        20:51:46:11 20:51:51:18 01:39:36:08 01:39:41:15 
*FROM CLIP NAME:  51K9/04.SYNC.01 
*SOURCE FILE: 19Y08M02
008253  19Y08M02                         A9    C        20:51:46:11 20:51:51:18 01:39:36:08 01:39:41:15 
*FROM CLIP NAME:  51K9/04.SYNC.01 
*SOURCE FILE: 19Y08M02
008254  19Y08M02                         A10   C        20:51:46:11 20:51:51:18 01:39:36:08 01:39:41:15 
*FROM CLIP NAME:  51K9/04.SYNC.01 
*PATCH 19Y08M02:  FROM SOURCE 1 TO RECORD 10 
*SOURCE FILE: 19Y08M02
008255  MSMMMOB.03                       V     C        20:51:47:17 20:51:48:15 01:39:37:14 01:39:38:12 
M2      MSMMMOB.03                                025.0 20:51:47:17 
*FROM CLIP NAME:  A034C005_190802_R32C 
*SOURCE FILE: MSMMMOB.03
008256  MSMMMOB.57                       V     C        21:04:11:16 21:04:12:16 01:39:38:12 01:39:39:12 
M2      MSMMMOB.57                                025.0 21:04:11:16 
*FROM CLIP NAME:  A034C006_190802_R32C 
*SOURCE FILE: MSMMMOB.57
008257  MSMMMOB.03                       V     C        20:51:49:15 20:51:51:10 01:39:39:12 01:39:41:07 
M2      MSMMMOB.03                                025.0 20:51:49:15 
*FROM CLIP NAME:  A034C005_190802_R32C 
*SOURCE FILE: MSMMMOB.03
008258  MSMMMOB.12                       V     C        21:24:36:13 21:24:38:05 01:39:41:07 01:39:42:24 
M2      MSMMMOB.12                                025.0 21:24:36:13 
*FROM CLIP NAME:  A035C003_190802_R32C 
*SOURCE FILE: MSMMMOB.12
008259  19Y08M02                         A     C        19:57:14:02 19:57:18:22 01:39:41:15 01:39:46:10 
*FROM CLIP NAME:  51K5/01.SYNC.01 
*SOURCE FILE: 19Y08M02
008260  19Y08M02                         A2    C        19:57:14:02 19:57:18:22 01:39:41:15 01:39:46:10 
*FROM CLIP NAME:  51K5/01.SYNC.01 
*SOURCE FILE: 19Y08M02
008261  19Y08M02                         A3    C        19:57:14:02 19:57:18:22 01:39:41:15 01:39:46:10 
*FROM CLIP NAME:  51K5/01.SYNC.01 
*SOURCE FILE: 19Y08M02
008262  19Y08M02                         A4    C        19:57:14:02 19:57:18:22 01:39:41:15 01:39:46:10 
*FROM CLIP NAME:  51K5/01.SYNC.01 
*SOURCE FILE: 19Y08M02
008263  19Y08M02                         A5    C        19:57:14:02 19:57:18:22 01:39:41:15 01:39:46:10 
*FROM CLIP NAME:  51K5/01.SYNC.01 
*SOURCE FILE: 19Y08M02
008264  19Y08M02                         A6    C        19:57:14:02 19:57:18:22 01:39:41:15 01:39:46:10 
*FROM CLIP NAME:  51K5/01.SYNC.01 
*SOURCE FILE: 19Y08M02
008265  19Y08M02                         A7    C        19:57:14:02 19:57:18:22 01:39:41:15 01:39:46:10 
*FROM CLIP NAME:  51K5/01.SYNC.01 
*SOURCE FILE: 19Y08M02
008266  19Y08M02                         A8    C        19:57:14:02 19:57:18:22 01:39:41:15 01:39:46:10 
*FROM CLIP NAME:  51K5/01.SYNC.01 
*SOURCE FILE: 19Y08M02
008267  19Y08M02                         A9    C        19:57:14:02 19:57:18:22 01:39:41:15 01:39:46:10 
*FROM CLIP NAME:  51K5/01.SYNC.01 
*SOURCE FILE: 19Y08M02
008268  19Y08M02                         A10   C        19:57:14:02 19:57:18:22 01:39:41:15 01:39:46:10 
*FROM CLIP NAME:  51K5/01.SYNC.01 
*PATCH 19Y08M02:  FROM SOURCE 1 TO RECORD 10 
*SOURCE FILE: 19Y08M02
008269  MSMMMOB.16                       V     C        19:57:15:11 19:57:17:15 01:39:42:24 01:39:45:03 
M2      MSMMMOB.16                                025.0 19:57:15:11 
*FROM CLIP NAME:  A033C002_190802_R32C 
*SOURCE FILE: MSMMMOB.16
008270  MSMMMOB.27                       V     C        19:39:16:06 19:39:18:14 01:39:45:03 01:39:47:11 
M2      MSMMMOB.27                                025.0 19:39:16:06 
*FROM CLIP NAME:  A032C012_190802_R32C 
*SOURCE FILE: MSMMMOB.27
008271  19Y08M02                         A     C        19:39:17:13 19:39:19:09 01:39:46:10 01:39:48:06 
*FROM CLIP NAME:  51K3/03.SYNC.01 
*SOURCE FILE: 19Y08M02
008272  19Y08M02                         A2    C        19:39:17:13 19:39:19:09 01:39:46:10 01:39:48:06 
*FROM CLIP NAME:  51K3/03.SYNC.01 
*SOURCE FILE: 19Y08M02
008273  19Y08M02                         A3    C        19:39:17:13 19:39:19:09 01:39:46:10 01:39:48:06 
*FROM CLIP NAME:  51K3/03.SYNC.01 
*SOURCE FILE: 19Y08M02
008274  19Y08M02                         A4    C        19:39:17:13 19:39:19:09 01:39:46:10 01:39:48:06 
*FROM CLIP NAME:  51K3/03.SYNC.01 
*SOURCE FILE: 19Y08M02
008275  19Y08M02                         A5    C        19:39:17:13 19:39:19:09 01:39:46:10 01:39:48:06 
*FROM CLIP NAME:  51K3/03.SYNC.01 
*SOURCE FILE: 19Y08M02
008276  19Y08M02                         A6    C        19:39:17:13 19:39:19:09 01:39:46:10 01:39:48:06 
*FROM CLIP NAME:  51K3/03.SYNC.01 
*SOURCE FILE: 19Y08M02
008277  19Y08M02                         A7    C        19:39:17:13 19:39:19:09 01:39:46:10 01:39:48:06 
*FROM CLIP NAME:  51K3/03.SYNC.01 
*SOURCE FILE: 19Y08M02
008278  19Y08M02                         A8    C        19:39:17:13 19:39:19:09 01:39:46:10 01:39:48:06 
*FROM CLIP NAME:  51K3/03.SYNC.01 
*SOURCE FILE: 19Y08M02
008279  19Y08M02                         A9    C        19:39:17:13 19:39:19:09 01:39:46:10 01:39:48:06 
*FROM CLIP NAME:  51K3/03.SYNC.01 
*SOURCE FILE: 19Y08M02
008280  19Y08M02                         A10   C        19:39:17:13 19:39:19:09 01:39:46:10 01:39:48:06 
*FROM CLIP NAME:  51K3/03.SYNC.01 
*PATCH 19Y08M02:  FROM SOURCE 1 TO RECORD 10 
*SOURCE FILE: 19Y08M02
008281  MSMMMOB.12                       V     C        21:24:39:04 21:24:43:01 01:39:47:11 01:39:51:08 
M2      MSMMMOB.12                                025.0 21:24:39:04 
*FROM CLIP NAME:  A035C003_190802_R32C 
*SOURCE FILE: MSMMMOB.12
008282  19Y08M02                         A     C        21:24:39:24 21:24:43:01 01:39:48:06 01:39:51:08 
*FROM CLIP NAME:  51K11/03.SYNC.01 
*SOURCE FILE: 19Y08M02
008283  19Y08M02                         A2    C        21:24:39:24 21:24:43:01 01:39:48:06 01:39:51:08 
*FROM CLIP NAME:  51K11/03.SYNC.01 
*SOURCE FILE: 19Y08M02
008284  19Y08M02                         A3    C        21:24:39:24 21:24:43:01 01:39:48:06 01:39:51:08 
*FROM CLIP NAME:  51K11/03.SYNC.01 
*SOURCE FILE: 19Y08M02
008285  19Y08M02                         A4    C        21:24:39:24 21:24:43:01 01:39:48:06 01:39:51:08 
*FROM CLIP NAME:  51K11/03.SYNC.01 
*SOURCE FILE: 19Y08M02
008286  19Y08M02                         A5    C        21:24:39:24 21:24:43:01 01:39:48:06 01:39:51:08 
*FROM CLIP NAME:  51K11/03.SYNC.01 
*SOURCE FILE: 19Y08M02
008287  19Y08M02                         A6    C        21:24:39:24 21:24:43:01 01:39:48:06 01:39:51:08 
*FROM CLIP NAME:  51K11/03.SYNC.01 
*SOURCE FILE: 19Y08M02
008288  19Y08M02                         A7    C        21:24:39:24 21:24:43:01 01:39:48:06 01:39:51:08 
*FROM CLIP NAME:  51K11/03.SYNC.01 
*SOURCE FILE: 19Y08M02
008289  19Y08M02                         A8    C        21:24:39:24 21:24:43:01 01:39:48:06 01:39:51:08 
*FROM CLIP NAME:  51K11/03.SYNC.01 
*SOURCE FILE: 19Y08M02
008290  19Y08M02                         A9    C        21:24:39:24 21:24:43:01 01:39:48:06 01:39:51:08 
*FROM CLIP NAME:  51K11/03.SYNC.01 
*SOURCE FILE: 19Y08M02
008291  19Y08M02                         A10   C        21:24:39:24 21:24:43:01 01:39:48:06 01:39:51:08 
*FROM CLIP NAME:  51K11/03.SYNC.01 
*PATCH 19Y08M02:  FROM SOURCE 1 TO RECORD 10 
*SOURCE FILE: 19Y08M02
008292  MSMMMOB.43                       V     C        19:47:27:18 19:47:29:00 01:39:51:08 01:39:52:15 
M2      MSMMMOB.43                                025.0 19:47:27:18 
*FROM CLIP NAME:  A032C013_190802_R32C 
*SOURCE FILE: MSMMMOB.43
008293  19Y08M02                         A     C        21:24:43:11 21:24:44:18 01:39:51:08 01:39:52:15 
*FROM CLIP NAME:  51K11/03.SYNC.01 
*SOURCE FILE: 19Y08M02
008294  19Y08M02                         A2    C        21:24:43:11 21:24:44:18 01:39:51:08 01:39:52:15 
*FROM CLIP NAME:  51K11/03.SYNC.01 
*SOURCE FILE: 19Y08M02
008295  19Y08M02                         A3    C        21:24:43:11 21:24:44:18 01:39:51:08 01:39:52:15 
*FROM CLIP NAME:  51K11/03.SYNC.01 
*SOURCE FILE: 19Y08M02
008296  19Y08M02                         A4    C        21:24:43:11 21:24:44:18 01:39:51:08 01:39:52:15 
*FROM CLIP NAME:  51K11/03.SYNC.01 
*SOURCE FILE: 19Y08M02
008297  19Y08M02                         A5    C        21:24:43:11 21:24:44:18 01:39:51:08 01:39:52:15 
*FROM CLIP NAME:  51K11/03.SYNC.01 
*SOURCE FILE: 19Y08M02
008298  19Y08M02                         A6    C        21:24:43:11 21:24:44:18 01:39:51:08 01:39:52:15 
*FROM CLIP NAME:  51K11/03.SYNC.01 
*SOURCE FILE: 19Y08M02
008299  19Y08M02                         A7    C        21:24:43:11 21:24:44:18 01:39:51:08 01:39:52:15 
*FROM CLIP NAME:  51K11/03.SYNC.01 
*SOURCE FILE: 19Y08M02
008300  19Y08M02                         A8    C        21:24:43:11 21:24:44:18 01:39:51:08 01:39:52:15 
*FROM CLIP NAME:  51K11/03.SYNC.01 
*SOURCE FILE: 19Y08M02
008301  19Y08M02                         A9    C        21:24:43:11 21:24:44:18 01:39:51:08 01:39:52:15 
*FROM CLIP NAME:  51K11/03.SYNC.01 
*SOURCE FILE: 19Y08M02
008302  19Y08M02                         A10   C        21:24:43:11 21:24:44:18 01:39:51:08 01:39:52:15 
*FROM CLIP NAME:  51K11/03.SYNC.01 
*PATCH 19Y08M02:  FROM SOURCE 1 TO RECORD 10 
*SOURCE FILE: 19Y08M02
008303  MSMMMOB.12                       V     C        21:24:42:24 21:24:45:14 01:39:52:15 01:39:55:05 
M2      MSMMMOB.12                                025.0 21:24:42:24 
*FROM CLIP NAME:  A035C003_190802_R32C 
*SOURCE FILE: MSMMMOB.12
008304  19Y08M02                         A     C        21:24:42:24 21:24:45:14 01:39:52:15 01:39:55:05 
*FROM CLIP NAME:  51K11/03.SYNC.01 
*SOURCE FILE: 19Y08M02
008305  19Y08M02                         A2    C        21:24:42:24 21:24:45:14 01:39:52:15 01:39:55:05 
*FROM CLIP NAME:  51K11/03.SYNC.01 
*SOURCE FILE: 19Y08M02
008306  19Y08M02                         A3    C        21:24:42:24 21:24:45:14 01:39:52:15 01:39:55:05 
*FROM CLIP NAME:  51K11/03.SYNC.01 
*SOURCE FILE: 19Y08M02
008307  19Y08M02                         A4    C        21:24:42:24 21:24:45:14 01:39:52:15 01:39:55:05 
*FROM CLIP NAME:  51K11/03.SYNC.01 
*SOURCE FILE: 19Y08M02
008308  19Y08M02                         A5    C        21:24:42:24 21:24:45:14 01:39:52:15 01:39:55:05 
*FROM CLIP NAME:  51K11/03.SYNC.01 
*SOURCE FILE: 19Y08M02
008309  19Y08M02                         A6    C        21:24:42:24 21:24:45:14 01:39:52:15 01:39:55:05 
*FROM CLIP NAME:  51K11/03.SYNC.01 
*SOURCE FILE: 19Y08M02
008310  19Y08M02                         A7    C        21:24:42:24 21:24:45:14 01:39:52:15 01:39:55:05 
*FROM CLIP NAME:  51K11/03.SYNC.01 
*SOURCE FILE: 19Y08M02
008311  19Y08M02                         A8    C        21:24:42:24 21:24:45:14 01:39:52:15 01:39:55:05 
*FROM CLIP NAME:  51K11/03.SYNC.01 
*SOURCE FILE: 19Y08M02
008312  19Y08M02                         A9    C        21:24:42:24 21:24:45:14 01:39:52:15 01:39:55:05 
*FROM CLIP NAME:  51K11/03.SYNC.01 
*SOURCE FILE: 19Y08M02
008313  19Y08M02                         A10   C        21:24:42:24 21:24:45:14 01:39:52:15 01:39:55:05 
*FROM CLIP NAME:  51K11/03.SYNC.01 
*PATCH 19Y08M02:  FROM SOURCE 1 TO RECORD 10 
*SOURCE FILE: 19Y08M02
008315  BL                               V     C        00:00:00:00 00:00:01:19 01:39:55:05 01:39:56:24 
*SOURCE FILE: (NULL)
008314  MSMMMOB.27                       V     C        19:39:21:14 19:39:23:08 01:39:55:05 01:39:56:24 
M2      MSMMMOB.27                                025.0 19:39:21:14 
*FROM CLIP NAME:  A032C012_190802_R32C 
*SOURCE FILE: MSMMMOB.27
008316  19Y08M02                         A     C        19:39:21:14 19:39:23:08 01:39:55:05 01:39:56:24 
*FROM CLIP NAME:  51K3/03.SYNC.01 
*SOURCE FILE: 19Y08M02
008317  19Y08M02                         A2    C        19:39:21:14 19:39:23:08 01:39:55:05 01:39:56:24 
*FROM CLIP NAME:  51K3/03.SYNC.01 
*SOURCE FILE: 19Y08M02
008318  19Y08M02                         A3    C        19:39:21:14 19:39:23:08 01:39:55:05 01:39:56:24 
*FROM CLIP NAME:  51K3/03.SYNC.01 
*SOURCE FILE: 19Y08M02
008319  19Y08M02                         A4    C        19:39:21:14 19:39:23:08 01:39:55:05 01:39:56:24 
*FROM CLIP NAME:  51K3/03.SYNC.01 
*SOURCE FILE: 19Y08M02
008320  19Y08M02                         A5    C        19:39:21:14 19:39:23:08 01:39:55:05 01:39:56:24 
*FROM CLIP NAME:  51K3/03.SYNC.01 
*SOURCE FILE: 19Y08M02
008321  19Y08M02                         A6    C        19:39:21:14 19:39:23:08 01:39:55:05 01:39:56:24 
*FROM CLIP NAME:  51K3/03.SYNC.01 
*SOURCE FILE: 19Y08M02
008322  19Y08M02                         A7    C        19:39:21:14 19:39:23:08 01:39:55:05 01:39:56:24 
*FROM CLIP NAME:  51K3/03.SYNC.01 
*SOURCE FILE: 19Y08M02
008323  19Y08M02                         A8    C        19:39:21:14 19:39:23:08 01:39:55:05 01:39:56:24 
*FROM CLIP NAME:  51K3/03.SYNC.01 
*SOURCE FILE: 19Y08M02
008324  19Y08M02                         A9    C        19:39:21:14 19:39:23:08 01:39:55:05 01:39:56:24 
*FROM CLIP NAME:  51K3/03.SYNC.01 
*SOURCE FILE: 19Y08M02
008325  19Y08M02                         A10   C        19:39:21:14 19:39:23:08 01:39:55:05 01:39:56:24 
*FROM CLIP NAME:  51K3/03.SYNC.01 
*PATCH 19Y08M02:  FROM SOURCE 1 TO RECORD 10 
*SOURCE FILE: 19Y08M02
008326  MSMMMOB.12                       V     C        21:24:47:17 21:24:51:18 01:39:56:24 01:40:01:00 
M2      MSMMMOB.12                                025.0 21:24:47:17 
*FROM CLIP NAME:  A035C003_190802_R32C 
*SOURCE FILE: MSMMMOB.12
008327  19Y08M02                         A     C        21:24:47:17 21:24:51:18 01:39:56:24 01:40:01:00 
*FROM CLIP NAME:  51K11/03.SYNC.01 
*SOURCE FILE: 19Y08M02
008328  19Y08M02                         A2    C        21:24:47:17 21:24:51:18 01:39:56:24 01:40:01:00 
*FROM CLIP NAME:  51K11/03.SYNC.01 
*SOURCE FILE: 19Y08M02
008329  19Y08M02                         A3    C        21:24:47:17 21:24:51:18 01:39:56:24 01:40:01:00 
*FROM CLIP NAME:  51K11/03.SYNC.01 
*SOURCE FILE: 19Y08M02
008330  19Y08M02                         A4    C        21:24:47:17 21:24:51:18 01:39:56:24 01:40:01:00 
*FROM CLIP NAME:  51K11/03.SYNC.01 
*SOURCE FILE: 19Y08M02
008331  19Y08M02                         A5    C        21:24:47:17 21:24:51:18 01:39:56:24 01:40:01:00 
*FROM CLIP NAME:  51K11/03.SYNC.01 
*SOURCE FILE: 19Y08M02
008332  19Y08M02                         A6    C        21:24:47:17 21:24:51:18 01:39:56:24 01:40:01:00 
*FROM CLIP NAME:  51K11/03.SYNC.01 
*SOURCE FILE: 19Y08M02
008333  19Y08M02                         A7    C        21:24:47:17 21:24:51:18 01:39:56:24 01:40:01:00 
*FROM CLIP NAME:  51K11/03.SYNC.01 
*SOURCE FILE: 19Y08M02
008334  19Y08M02                         A8    C        21:24:47:17 21:24:51:18 01:39:56:24 01:40:01:00 
*FROM CLIP NAME:  51K11/03.SYNC.01 
*SOURCE FILE: 19Y08M02
008335  19Y08M02                         A9    C        21:24:47:17 21:24:51:18 01:39:56:24 01:40:01:00 
*FROM CLIP NAME:  51K11/03.SYNC.01 
*SOURCE FILE: 19Y08M02
008336  19Y08M02                         A10   C        21:24:47:17 21:24:51:18 01:39:56:24 01:40:01:00 
*FROM CLIP NAME:  51K11/03.SYNC.01 
*PATCH 19Y08M02:  FROM SOURCE 1 TO RECORD 10 
*SOURCE FILE: 19Y08M02
008337  BL                               V     C        00:00:00:00 00:00:55:15 01:39:56:24 01:40:52:14 
*SOURCE FILE: (NULL)
008338  19Y08M02                         A     C        19:47:33:04 19:47:35:02 01:40:01:00 01:40:02:23 
*FROM CLIP NAME:  51K4/01.SYNC.01 
*SOURCE FILE: 19Y08M02
008339  19Y08M02                         A2    C        19:47:33:04 19:47:35:02 01:40:01:00 01:40:02:23 
*FROM CLIP NAME:  51K4/01.SYNC.01 
*SOURCE FILE: 19Y08M02
008340  19Y08M02                         A3    C        19:47:33:04 19:47:35:02 01:40:01:00 01:40:02:23 
*FROM CLIP NAME:  51K4/01.SYNC.01 
*SOURCE FILE: 19Y08M02
008341  19Y08M02                         A4    C        19:47:33:04 19:47:35:02 01:40:01:00 01:40:02:23 
*FROM CLIP NAME:  51K4/01.SYNC.01 
*SOURCE FILE: 19Y08M02
008342  19Y08M02                         A5    C        19:47:33:04 19:47:35:02 01:40:01:00 01:40:02:23 
*FROM CLIP NAME:  51K4/01.SYNC.01 
*SOURCE FILE: 19Y08M02
008343  19Y08M02                         A6    C        19:47:33:04 19:47:35:02 01:40:01:00 01:40:02:23 
*FROM CLIP NAME:  51K4/01.SYNC.01 
*SOURCE FILE: 19Y08M02
008344  19Y08M02                         A7    C        19:47:33:04 19:47:35:02 01:40:01:00 01:40:02:23 
*FROM CLIP NAME:  51K4/01.SYNC.01 
*SOURCE FILE: 19Y08M02
008345  19Y08M02                         A8    C        19:47:33:04 19:47:35:02 01:40:01:00 01:40:02:23 
*FROM CLIP NAME:  51K4/01.SYNC.01 
*SOURCE FILE: 19Y08M02
008346  19Y08M02                         A9    C        19:47:33:04 19:47:35:02 01:40:01:00 01:40:02:23 
*FROM CLIP NAME:  51K4/01.SYNC.01 
*SOURCE FILE: 19Y08M02
008347  19Y08M02                         A10   C        19:47:33:04 19:47:35:02 01:40:01:00 01:40:02:23 
*FROM CLIP NAME:  51K4/01.SYNC.01 
*PATCH 19Y08M02:  FROM SOURCE 1 TO RECORD 10 
*SOURCE FILE: 19Y08M02
008348  MSMMMOB.43                       V     C        19:47:33:04 19:47:35:17 01:40:01:00 01:40:03:13 
M2      MSMMMOB.43                                025.0 19:47:33:04 
*FROM CLIP NAME:  A032C013_190802_R32C 
*SOURCE FILE: MSMMMOB.43
008349  19Y08M02                         A     C        21:24:53:00 21:24:55:22 01:40:02:23 01:40:05:20 
*FROM CLIP NAME:  51K11/03.SYNC.01 
*SOURCE FILE: 19Y08M02
008350  19Y08M02                         A2    C        21:24:53:00 21:24:55:22 01:40:02:23 01:40:05:20 
*FROM CLIP NAME:  51K11/03.SYNC.01 
*SOURCE FILE: 19Y08M02
008351  19Y08M02                         A3    C        21:24:53:00 21:24:55:22 01:40:02:23 01:40:05:20 
*FROM CLIP NAME:  51K11/03.SYNC.01 
*SOURCE FILE: 19Y08M02
008352  19Y08M02                         A4    C        21:24:53:00 21:24:55:22 01:40:02:23 01:40:05:20 
*FROM CLIP NAME:  51K11/03.SYNC.01 
*SOURCE FILE: 19Y08M02
008353  19Y08M02                         A5    C        21:24:53:00 21:24:55:22 01:40:02:23 01:40:05:20 
*FROM CLIP NAME:  51K11/03.SYNC.01 
*SOURCE FILE: 19Y08M02
008354  19Y08M02                         A6    C        21:24:53:00 21:24:55:22 01:40:02:23 01:40:05:20 
*FROM CLIP NAME:  51K11/03.SYNC.01 
*SOURCE FILE: 19Y08M02
008355  19Y08M02                         A7    C        21:24:53:00 21:24:55:22 01:40:02:23 01:40:05:20 
*FROM CLIP NAME:  51K11/03.SYNC.01 
*SOURCE FILE: 19Y08M02
008356  19Y08M02                         A8    C        21:24:53:00 21:24:55:22 01:40:02:23 01:40:05:20 
*FROM CLIP NAME:  51K11/03.SYNC.01 
*SOURCE FILE: 19Y08M02
008357  19Y08M02                         A9    C        21:24:53:00 21:24:55:22 01:40:02:23 01:40:05:20 
*FROM CLIP NAME:  51K11/03.SYNC.01 
*SOURCE FILE: 19Y08M02
008358  19Y08M02                         A10   C        21:24:53:00 21:24:55:22 01:40:02:23 01:40:05:20 
*FROM CLIP NAME:  51K11/03.SYNC.01 
*PATCH 19Y08M02:  FROM SOURCE 1 TO RECORD 10 
*SOURCE FILE: 19Y08M02
008359  MSMMMOB.12                       V     C        21:24:53:15 21:24:55:22 01:40:03:13 01:40:05:20 
M2      MSMMMOB.12                                025.0 21:24:53:15 
*FROM CLIP NAME:  A035C003_190802_R32C 
*SOURCE FILE: MSMMMOB.12
008360  MSMMMOB.43                       V     C        19:47:42:24 19:47:44:08 01:40:05:20 01:40:07:04 
M2      MSMMMOB.43                                025.0 19:47:42:24 
*FROM CLIP NAME:  A032C013_190802_R32C 
*SOURCE FILE: MSMMMOB.43
008361  19Y08M02                         A     C        19:47:42:24 19:47:44:10 01:40:05:20 01:40:07:06 
*FROM CLIP NAME:  51K4/01.SYNC.01 
*SOURCE FILE: 19Y08M02
008362  19Y08M02                         A2    C        19:47:42:24 19:47:44:10 01:40:05:20 01:40:07:06 
*FROM CLIP NAME:  51K4/01.SYNC.01 
*SOURCE FILE: 19Y08M02
008363  19Y08M02                         A3    C        19:47:42:24 19:47:44:10 01:40:05:20 01:40:07:06 
*FROM CLIP NAME:  51K4/01.SYNC.01 
*SOURCE FILE: 19Y08M02
008364  19Y08M02                         A4    C        19:47:42:24 19:47:44:10 01:40:05:20 01:40:07:06 
*FROM CLIP NAME:  51K4/01.SYNC.01 
*SOURCE FILE: 19Y08M02
008365  19Y08M02                         A5    C        19:47:42:24 19:47:44:10 01:40:05:20 01:40:07:06 
*FROM CLIP NAME:  51K4/01.SYNC.01 
*SOURCE FILE: 19Y08M02
008366  19Y08M02                         A6    C        19:47:42:24 19:47:44:10 01:40:05:20 01:40:07:06 
*FROM CLIP NAME:  51K4/01.SYNC.01 
*SOURCE FILE: 19Y08M02
008367  19Y08M02                         A7    C        19:47:42:24 19:47:44:10 01:40:05:20 01:40:07:06 
*FROM CLIP NAME:  51K4/01.SYNC.01 
*SOURCE FILE: 19Y08M02
008368  19Y08M02                         A8    C        19:47:42:24 19:47:44:10 01:40:05:20 01:40:07:06 
*FROM CLIP NAME:  51K4/01.SYNC.01 
*SOURCE FILE: 19Y08M02
008369  19Y08M02                         A9    C        19:47:42:24 19:47:44:10 01:40:05:20 01:40:07:06 
*FROM CLIP NAME:  51K4/01.SYNC.01 
*SOURCE FILE: 19Y08M02
008370  19Y08M02                         A10   C        19:47:42:24 19:47:44:10 01:40:05:20 01:40:07:06 
*FROM CLIP NAME:  51K4/01.SYNC.01 
*PATCH 19Y08M02:  FROM SOURCE 1 TO RECORD 10 
*SOURCE FILE: 19Y08M02
008371  MSMMMOB.12                       V     C        21:24:56:10 21:24:58:17 01:40:07:04 01:40:09:11 
M2      MSMMMOB.12                                025.0 21:24:56:10 
*FROM CLIP NAME:  A035C003_190802_R32C 
*SOURCE FILE: MSMMMOB.12
008372  19Y08M02                         A     C        19:25:07:10 19:25:12:03 01:40:07:06 01:40:11:24 
*FROM CLIP NAME:  51K2/05.SYNC.01 
*SOURCE FILE: 19Y08M02
008373  19Y08M02                         A2    C        19:25:07:10 19:25:12:03 01:40:07:06 01:40:11:24 
*FROM CLIP NAME:  51K2/05.SYNC.01 
*SOURCE FILE: 19Y08M02
008374  19Y08M02                         A3    C        19:25:07:10 19:25:12:03 01:40:07:06 01:40:11:24 
*FROM CLIP NAME:  51K2/05.SYNC.01 
*SOURCE FILE: 19Y08M02
008375  19Y08M02                         A4    C        19:25:07:10 19:25:12:03 01:40:07:06 01:40:11:24 
*FROM CLIP NAME:  51K2/05.SYNC.01 
*SOURCE FILE: 19Y08M02
008376  19Y08M02                         A5    C        19:25:07:10 19:25:12:03 01:40:07:06 01:40:11:24 
*FROM CLIP NAME:  51K2/05.SYNC.01 
*SOURCE FILE: 19Y08M02
008377  19Y08M02                         A6    C        19:25:07:10 19:25:12:03 01:40:07:06 01:40:11:24 
*FROM CLIP NAME:  51K2/05.SYNC.01 
*SOURCE FILE: 19Y08M02
008378  19Y08M02                         A7    C        19:25:07:10 19:25:12:03 01:40:07:06 01:40:11:24 
*FROM CLIP NAME:  51K2/05.SYNC.01 
*SOURCE FILE: 19Y08M02
008379  19Y08M02                         A8    C        19:25:07:10 19:25:12:03 01:40:07:06 01:40:11:24 
*FROM CLIP NAME:  51K2/05.SYNC.01 
*SOURCE FILE: 19Y08M02
008380  19Y08M02                         A9    C        19:25:07:10 19:25:12:03 01:40:07:06 01:40:11:24 
*FROM CLIP NAME:  51K2/05.SYNC.01 
*SOURCE FILE: 19Y08M02
008381  19Y08M02                         A10   C        19:25:07:10 19:25:12:03 01:40:07:06 01:40:11:24 
*FROM CLIP NAME:  51K2/05.SYNC.01 
*PATCH 19Y08M02:  FROM SOURCE 1 TO RECORD 10 
*SOURCE FILE: 19Y08M02
008382  MSMMMOB.40                       V     C        19:25:09:15 19:25:11:06 01:40:09:11 01:40:11:02 
M2      MSMMMOB.40                                025.0 19:25:09:15 
*FROM CLIP NAME:  A032C009_190802_R32C 
*SOURCE FILE: MSMMMOB.40
008383  MSMMMOB.52                       V     C        21:39:35:23 21:39:38:03 01:40:11:02 01:40:13:07 
M2      MSMMMOB.52                                025.0 21:39:35:23 
*FROM CLIP NAME:  A035C005_190802_R32C 
*SOURCE FILE: MSMMMOB.52
008384  19Y08M02                         A11   C        19:25:12:03 19:25:12:16 01:40:11:24 01:40:12:12 
*FROM CLIP NAME:  51K2/05.SYNC.01 
*PATCH 19Y08M02:  FROM SOURCE 2 TO RECORD 11 
*SOURCE FILE: 19Y08M02
008385  19Y08M02                         A12   C        19:25:12:03 19:25:12:16 01:40:11:24 01:40:12:12 
*FROM CLIP NAME:  51K2/05.SYNC.01 
*PATCH 19Y08M02:  FROM SOURCE 8 TO RECORD 12 
*SOURCE FILE: 19Y08M02
008386  19Y08M02                         A     C        21:39:36:20 21:39:38:03 01:40:11:24 01:40:13:07 
*FROM CLIP NAME:  51K13/01.SYNC.01 
*SOURCE FILE: 19Y08M02
008387  19Y08M02                         A2    C        21:39:36:20 21:39:38:03 01:40:11:24 01:40:13:07 
*FROM CLIP NAME:  51K13/01.SYNC.01 
*SOURCE FILE: 19Y08M02
008388  19Y08M02                         A3    C        21:39:36:20 21:39:38:03 01:40:11:24 01:40:13:07 
*FROM CLIP NAME:  51K13/01.SYNC.01 
*SOURCE FILE: 19Y08M02
008389  19Y08M02                         A4    C        21:39:36:20 21:39:38:03 01:40:11:24 01:40:13:07 
*FROM CLIP NAME:  51K13/01.SYNC.01 
*SOURCE FILE: 19Y08M02
008390  19Y08M02                         A5    C        21:39:36:20 21:39:38:03 01:40:11:24 01:40:13:07 
*FROM CLIP NAME:  51K13/01.SYNC.01 
*SOURCE FILE: 19Y08M02
008391  19Y08M02                         A6    C        21:39:36:20 21:39:38:03 01:40:11:24 01:40:13:07 
*FROM CLIP NAME:  51K13/01.SYNC.01 
*SOURCE FILE: 19Y08M02
008392  19Y08M02                         A7    C        21:39:36:20 21:39:38:03 01:40:11:24 01:40:13:07 
*FROM CLIP NAME:  51K13/01.SYNC.01 
*SOURCE FILE: 19Y08M02
008393  19Y08M02                         A8    C        21:39:36:20 21:39:38:03 01:40:11:24 01:40:13:07 
*FROM CLIP NAME:  51K13/01.SYNC.01 
*SOURCE FILE: 19Y08M02
008394  19Y08M02                         A9    C        21:39:36:20 21:39:38:03 01:40:11:24 01:40:13:07 
*FROM CLIP NAME:  51K13/01.SYNC.01 
*SOURCE FILE: 19Y08M02
008395  19Y08M02                         A10   C        21:39:36:20 21:39:38:03 01:40:11:24 01:40:13:07 
*FROM CLIP NAME:  51K13/01.SYNC.01 
*PATCH 19Y08M02:  FROM SOURCE 1 TO RECORD 10 
*SOURCE FILE: 19Y08M02
008396  19Y08M02                         A     C        21:39:38:06 21:39:38:23 01:40:13:07 01:40:13:24 
*FROM CLIP NAME:  51K13/01.SYNC.01 
*SOURCE FILE: 19Y08M02
008397  19Y08M02                         A2    C        21:39:38:06 21:39:38:23 01:40:13:07 01:40:13:24 
*FROM CLIP NAME:  51K13/01.SYNC.01 
*SOURCE FILE: 19Y08M02
008398  19Y08M02                         A3    C        21:39:38:06 21:39:38:23 01:40:13:07 01:40:13:24 
*FROM CLIP NAME:  51K13/01.SYNC.01 
*SOURCE FILE: 19Y08M02
008399  19Y08M02                         A4    C        21:39:38:06 21:39:38:23 01:40:13:07 01:40:13:24 
*FROM CLIP NAME:  51K13/01.SYNC.01 
*SOURCE FILE: 19Y08M02
008400  19Y08M02                         A5    C        21:39:38:06 21:39:38:23 01:40:13:07 01:40:13:24 
*FROM CLIP NAME:  51K13/01.SYNC.01 
*SOURCE FILE: 19Y08M02
008401  19Y08M02                         A6    C        21:39:38:06 21:39:38:23 01:40:13:07 01:40:13:24 
*FROM CLIP NAME:  51K13/01.SYNC.01 
*SOURCE FILE: 19Y08M02
008402  19Y08M02                         A7    C        21:39:38:06 21:39:38:23 01:40:13:07 01:40:13:24 
*FROM CLIP NAME:  51K13/01.SYNC.01 
*SOURCE FILE: 19Y08M02
008403  19Y08M02                         A8    C        21:39:38:06 21:39:38:23 01:40:13:07 01:40:13:24 
*FROM CLIP NAME:  51K13/01.SYNC.01 
*SOURCE FILE: 19Y08M02
008404  19Y08M02                         A9    C        21:39:38:06 21:39:38:23 01:40:13:07 01:40:13:24 
*FROM CLIP NAME:  51K13/01.SYNC.01 
*SOURCE FILE: 19Y08M02
008405  19Y08M02                         A10   C        21:39:38:06 21:39:38:23 01:40:13:07 01:40:13:24 
*FROM CLIP NAME:  51K13/01.SYNC.01 
*PATCH 19Y08M02:  FROM SOURCE 1 TO RECORD 10 
*SOURCE FILE: 19Y08M02
008406  MSMMMOB.03                       V     C        20:52:17:17 20:52:21:06 01:40:13:07 01:40:16:21 
M2      MSMMMOB.03                                025.0 20:52:17:17 
*FROM CLIP NAME:  A034C005_190802_R32C 
*SOURCE FILE: MSMMMOB.03
008407  19Y08M02                         A     C        20:52:18:09 20:52:21:06 01:40:13:24 01:40:16:21 
*FROM CLIP NAME:  51K9/04.SYNC.01 
*SOURCE FILE: 19Y08M02
008408  19Y08M02                         A2    C        20:52:18:09 20:52:21:06 01:40:13:24 01:40:16:21 
*FROM CLIP NAME:  51K9/04.SYNC.01 
*SOURCE FILE: 19Y08M02
008409  19Y08M02                         A3    C        20:52:18:09 20:52:21:06 01:40:13:24 01:40:16:21 
*FROM CLIP NAME:  51K9/04.SYNC.01 
*SOURCE FILE: 19Y08M02
008410  19Y08M02                         A4    C        20:52:18:09 20:52:21:06 01:40:13:24 01:40:16:21 
*FROM CLIP NAME:  51K9/04.SYNC.01 
*SOURCE FILE: 19Y08M02
008411  19Y08M02                         A5    C        20:52:18:09 20:52:21:06 01:40:13:24 01:40:16:21 
*FROM CLIP NAME:  51K9/04.SYNC.01 
*SOURCE FILE: 19Y08M02
008412  19Y08M02                         A6    C        20:52:18:09 20:52:21:06 01:40:13:24 01:40:16:21 
*FROM CLIP NAME:  51K9/04.SYNC.01 
*SOURCE FILE: 19Y08M02
008413  19Y08M02                         A7    C        20:52:18:09 20:52:21:06 01:40:13:24 01:40:16:21 
*FROM CLIP NAME:  51K9/04.SYNC.01 
*SOURCE FILE: 19Y08M02
008414  19Y08M02                         A8    C        20:52:18:09 20:52:21:06 01:40:13:24 01:40:16:21 
*FROM CLIP NAME:  51K9/04.SYNC.01 
*SOURCE FILE: 19Y08M02
008415  19Y08M02                         A9    C        20:52:18:09 20:52:21:06 01:40:13:24 01:40:16:21 
*FROM CLIP NAME:  51K9/04.SYNC.01 
*SOURCE FILE: 19Y08M02
008416  19Y08M02                         A10   C        20:52:18:09 20:52:21:06 01:40:13:24 01:40:16:21 
*FROM CLIP NAME:  51K9/04.SYNC.01 
*PATCH 19Y08M02:  FROM SOURCE 1 TO RECORD 10 
*SOURCE FILE: 19Y08M02
008417  MSMMMOB.26                       V     C        21:07:32:13 21:07:34:08 01:40:16:21 01:40:18:16 
M2      MSMMMOB.26                                025.0 21:07:32:13 
*FROM CLIP NAME:  A034C007_190802_R32C 
*SOURCE FILE: MSMMMOB.26
008418  19Y08M02                         A     C        21:07:32:13 21:07:34:08 01:40:16:21 01:40:18:16 
*FROM CLIP NAME:  51K10/02.SYNC.01 
*SOURCE FILE: 19Y08M02
008419  19Y08M02                         A2    C        21:07:32:13 21:07:34:08 01:40:16:21 01:40:18:16 
*FROM CLIP NAME:  51K10/02.SYNC.01 
*SOURCE FILE: 19Y08M02
008420  19Y08M02                         A3    C        21:07:32:13 21:07:34:08 01:40:16:21 01:40:18:16 
*FROM CLIP NAME:  51K10/02.SYNC.01 
*SOURCE FILE: 19Y08M02
008421  19Y08M02                         A4    C        21:07:32:13 21:07:34:08 01:40:16:21 01:40:18:16 
*FROM CLIP NAME:  51K10/02.SYNC.01 
*SOURCE FILE: 19Y08M02
008422  19Y08M02                         A5    C        21:07:32:13 21:07:34:08 01:40:16:21 01:40:18:16 
*FROM CLIP NAME:  51K10/02.SYNC.01 
*SOURCE FILE: 19Y08M02
008423  19Y08M02                         A6    C        21:07:32:13 21:07:34:08 01:40:16:21 01:40:18:16 
*FROM CLIP NAME:  51K10/02.SYNC.01 
*SOURCE FILE: 19Y08M02
008424  19Y08M02                         A7    C        21:07:32:13 21:07:34:08 01:40:16:21 01:40:18:16 
*FROM CLIP NAME:  51K10/02.SYNC.01 
*SOURCE FILE: 19Y08M02
008425  19Y08M02                         A8    C        21:07:32:13 21:07:34:08 01:40:16:21 01:40:18:16 
*FROM CLIP NAME:  51K10/02.SYNC.01 
*SOURCE FILE: 19Y08M02
008426  19Y08M02                         A9    C        21:07:32:13 21:07:34:08 01:40:16:21 01:40:18:16 
*FROM CLIP NAME:  51K10/02.SYNC.01 
*SOURCE FILE: 19Y08M02
008427  19Y08M02                         A10   C        21:07:32:13 21:07:34:08 01:40:16:21 01:40:18:16 
*FROM CLIP NAME:  51K10/02.SYNC.01 
*PATCH 19Y08M02:  FROM SOURCE 1 TO RECORD 10 
*SOURCE FILE: 19Y08M02
008428  19Y08M02                         A     C        21:39:41:01 21:39:41:18 01:40:18:16 01:40:19:08 
*FROM CLIP NAME:  51K13/01.SYNC.01 
*SOURCE FILE: 19Y08M02
008429  19Y08M02                         A2    C        21:39:41:01 21:39:41:18 01:40:18:16 01:40:19:08 
*FROM CLIP NAME:  51K13/01.SYNC.01 
*SOURCE FILE: 19Y08M02
008430  19Y08M02                         A3    C        21:39:41:01 21:39:41:18 01:40:18:16 01:40:19:08 
*FROM CLIP NAME:  51K13/01.SYNC.01 
*SOURCE FILE: 19Y08M02
008431  19Y08M02                         A4    C        21:39:41:01 21:39:41:18 01:40:18:16 01:40:19:08 
*FROM CLIP NAME:  51K13/01.SYNC.01 
*SOURCE FILE: 19Y08M02
008432  19Y08M02                         A5    C        21:39:41:01 21:39:41:18 01:40:18:16 01:40:19:08 
*FROM CLIP NAME:  51K13/01.SYNC.01 
*SOURCE FILE: 19Y08M02
008433  19Y08M02                         A6    C        21:39:41:01 21:39:41:18 01:40:18:16 01:40:19:08 
*FROM CLIP NAME:  51K13/01.SYNC.01 
*SOURCE FILE: 19Y08M02
008434  19Y08M02                         A7    C        21:39:41:01 21:39:41:18 01:40:18:16 01:40:19:08 
*FROM CLIP NAME:  51K13/01.SYNC.01 
*SOURCE FILE: 19Y08M02
008435  19Y08M02                         A8    C        21:39:41:01 21:39:41:18 01:40:18:16 01:40:19:08 
*FROM CLIP NAME:  51K13/01.SYNC.01 
*SOURCE FILE: 19Y08M02
008436  19Y08M02                         A9    C        21:39:41:01 21:39:41:18 01:40:18:16 01:40:19:08 
*FROM CLIP NAME:  51K13/01.SYNC.01 
*SOURCE FILE: 19Y08M02
008437  19Y08M02                         A10   C        21:39:41:01 21:39:41:18 01:40:18:16 01:40:19:08 
*FROM CLIP NAME:  51K13/01.SYNC.01 
*PATCH 19Y08M02:  FROM SOURCE 1 TO RECORD 10 
*SOURCE FILE: 19Y08M02
008438  MSMMMOB.43                       V     C        19:47:52:20 19:47:53:22 01:40:18:16 01:40:19:18 
M2      MSMMMOB.43                                025.0 19:47:52:20 
*FROM CLIP NAME:  A032C013_190802_R32C 
*SOURCE FILE: MSMMMOB.43
008439  19Y08M02                         A     C        19:47:56:03 19:47:56:13 01:40:19:08 01:40:19:18 
*FROM CLIP NAME:  51K4/01.SYNC.01 
*SOURCE FILE: 19Y08M02
008440  19Y08M02                         A2    C        19:47:56:03 19:47:56:13 01:40:19:08 01:40:19:18 
*FROM CLIP NAME:  51K4/01.SYNC.01 
*SOURCE FILE: 19Y08M02
008441  19Y08M02                         A3    C        19:47:56:03 19:47:56:13 01:40:19:08 01:40:19:18 
*FROM CLIP NAME:  51K4/01.SYNC.01 
*SOURCE FILE: 19Y08M02
008442  19Y08M02                         A4    C        19:47:56:03 19:47:56:13 01:40:19:08 01:40:19:18 
*FROM CLIP NAME:  51K4/01.SYNC.01 
*SOURCE FILE: 19Y08M02
008443  19Y08M02                         A5    C        19:47:56:03 19:47:56:13 01:40:19:08 01:40:19:18 
*FROM CLIP NAME:  51K4/01.SYNC.01 
*SOURCE FILE: 19Y08M02
008444  19Y08M02                         A6    C        19:47:56:03 19:47:56:13 01:40:19:08 01:40:19:18 
*FROM CLIP NAME:  51K4/01.SYNC.01 
*SOURCE FILE: 19Y08M02
008445  19Y08M02                         A7    C        19:47:56:03 19:47:56:13 01:40:19:08 01:40:19:18 
*FROM CLIP NAME:  51K4/01.SYNC.01 
*SOURCE FILE: 19Y08M02
008446  19Y08M02                         A8    C        19:47:56:03 19:47:56:13 01:40:19:08 01:40:19:18 
*FROM CLIP NAME:  51K4/01.SYNC.01 
*SOURCE FILE: 19Y08M02
008447  19Y08M02                         A9    C        19:47:56:03 19:47:56:13 01:40:19:08 01:40:19:18 
*FROM CLIP NAME:  51K4/01.SYNC.01 
*SOURCE FILE: 19Y08M02
008448  19Y08M02                         A10   C        19:47:56:03 19:47:56:13 01:40:19:08 01:40:19:18 
*FROM CLIP NAME:  51K4/01.SYNC.01 
*PATCH 19Y08M02:  FROM SOURCE 1 TO RECORD 10 
*SOURCE FILE: 19Y08M02
008449  MSMMMOB.56                       V     C        21:51:17:21 21:51:19:09 01:40:19:18 01:40:21:06 
M2      MSMMMOB.56                                025.0 21:51:17:21 
*FROM CLIP NAME:  A036C003_190802_R32C 
*SOURCE FILE: MSMMMOB.56
008450  19Y08M02                         A     C        21:51:17:21 21:51:19:09 01:40:19:18 01:40:21:06 
*FROM CLIP NAME:  51K14/03 
*SOURCE FILE: 19Y08M02
008451  19Y08M02                         A2    C        21:51:17:21 21:51:19:09 01:40:19:18 01:40:21:06 
*FROM CLIP NAME:  51K14/03 
*SOURCE FILE: 19Y08M02
008452  19Y08M02                         A3    C        21:51:17:21 21:51:19:09 01:40:19:18 01:40:21:06 
*FROM CLIP NAME:  51K14/03 
*SOURCE FILE: 19Y08M02
008453  MSMMMOB.56                       A4    C        21:51:17:21 21:51:19:09 01:40:19:18 01:40:21:06 
*FROM CLIP NAME:  A036C003_190802_R32C 
*SOURCE FILE: MSMMMOB.56
008454  19Y08M02                         A5    C        21:51:17:21 21:51:19:09 01:40:19:18 01:40:21:06 
*FROM CLIP NAME:  51K14/03 
*SOURCE FILE: 19Y08M02
008455  19Y08M02                         A6    C        21:51:17:21 21:51:19:09 01:40:19:18 01:40:21:06 
*FROM CLIP NAME:  51K14/03 
*PATCH 19Y08M02:  FROM SOURCE 7 TO RECORD 6 
*SOURCE FILE: 19Y08M02
008456  19Y08M02                         A7    C        21:51:17:21 21:51:19:09 01:40:19:18 01:40:21:06 
*FROM CLIP NAME:  51K14/03 
*PATCH 19Y08M02:  FROM SOURCE 9 TO RECORD 7 
*SOURCE FILE: 19Y08M02
008457  19Y08M02                         A     C        21:51:20:09 21:51:21:06 01:40:21:06 01:40:22:03 
*FROM CLIP NAME:  51K14/03 
*SOURCE FILE: 19Y08M02
008458  19Y08M02                         A2    C        21:51:20:09 21:51:21:06 01:40:21:06 01:40:22:03 
*FROM CLIP NAME:  51K14/03 
*SOURCE FILE: 19Y08M02
008459  19Y08M02                         A3    C        21:51:20:09 21:51:21:06 01:40:21:06 01:40:22:03 
*FROM CLIP NAME:  51K14/03 
*SOURCE FILE: 19Y08M02
008460  MSMMMOB.56                       A4    C        21:51:20:09 21:51:21:06 01:40:21:06 01:40:22:03 
*FROM CLIP NAME:  A036C003_190802_R32C 
*SOURCE FILE: MSMMMOB.56
008461  19Y08M02                         A5    C        21:51:20:09 21:51:21:06 01:40:21:06 01:40:22:03 
*FROM CLIP NAME:  51K14/03 
*SOURCE FILE: 19Y08M02
008462  19Y08M02                         A6    C        21:51:20:09 21:51:21:06 01:40:21:06 01:40:22:03 
*FROM CLIP NAME:  51K14/03 
*PATCH 19Y08M02:  FROM SOURCE 7 TO RECORD 6 
*SOURCE FILE: 19Y08M02
008463  19Y08M02                         A7    C        21:51:20:09 21:51:21:06 01:40:21:06 01:40:22:03 
*FROM CLIP NAME:  51K14/03 
*PATCH 19Y08M02:  FROM SOURCE 9 TO RECORD 7 
*SOURCE FILE: 19Y08M02
008464  MSMMMOB.37                       V     C        20:30:03:03 20:30:07:18 01:40:21:06 01:40:25:21 
M2      MSMMMOB.37                                025.0 20:30:03:03 
*FROM CLIP NAME:  A034C001_190802_R32C 
*SOURCE FILE: MSMMMOB.37
008465  19Y08M02                         A     C        20:30:04:00 20:30:07:18 01:40:22:03 01:40:25:21 
*FROM CLIP NAME:  51K8/01.SYNC.01 
*SOURCE FILE: 19Y08M02
008466  19Y08M02                         A2    C        20:30:04:00 20:30:07:18 01:40:22:03 01:40:25:21 
*FROM CLIP NAME:  51K8/01.SYNC.01 
*SOURCE FILE: 19Y08M02
008467  19Y08M02                         A3    C        20:30:04:00 20:30:07:18 01:40:22:03 01:40:25:21 
*FROM CLIP NAME:  51K8/01.SYNC.01 
*SOURCE FILE: 19Y08M02
008468  19Y08M02                         A4    C        20:30:04:00 20:30:07:18 01:40:22:03 01:40:25:21 
*FROM CLIP NAME:  51K8/01.SYNC.01 
*SOURCE FILE: 19Y08M02
008469  19Y08M02                         A5    C        20:30:04:00 20:30:07:18 01:40:22:03 01:40:25:21 
*FROM CLIP NAME:  51K8/01.SYNC.01 
*SOURCE FILE: 19Y08M02
008470  19Y08M02                         A6    C        20:30:04:00 20:30:07:18 01:40:22:03 01:40:25:21 
*FROM CLIP NAME:  51K8/01.SYNC.01 
*SOURCE FILE: 19Y08M02
008471  19Y08M02                         A7    C        20:30:04:00 20:30:07:18 01:40:22:03 01:40:25:21 
*FROM CLIP NAME:  51K8/01.SYNC.01 
*SOURCE FILE: 19Y08M02
008472  19Y08M02                         A8    C        20:30:04:00 20:30:07:18 01:40:22:03 01:40:25:21 
*FROM CLIP NAME:  51K8/01.SYNC.01 
*SOURCE FILE: 19Y08M02
008473  19Y08M02                         A9    C        20:30:04:00 20:30:07:18 01:40:22:03 01:40:25:21 
*FROM CLIP NAME:  51K8/01.SYNC.01 
*SOURCE FILE: 19Y08M02
008474  19Y08M02                         A10   C        20:30:04:00 20:30:07:18 01:40:22:03 01:40:25:21 
*FROM CLIP NAME:  51K8/01.SYNC.01 
*PATCH 19Y08M02:  FROM SOURCE 1 TO RECORD 10 
*SOURCE FILE: 19Y08M02
008475  MSMMMOB.53                       V     C        21:32:40:00 21:32:41:07 01:40:25:21 01:40:27:03 
M2      MSMMMOB.53                                025.0 21:32:40:00 
*FROM CLIP NAME:  A035C004_190802_R32C 
*SOURCE FILE: MSMMMOB.53
008476  19Y08M02                         A     C        21:32:40:00 21:32:41:07 01:40:25:21 01:40:27:03 
*FROM CLIP NAME:  51K12/01.SYNC.01 
*SOURCE FILE: 19Y08M02
008477  19Y08M02                         A2    C        21:32:40:00 21:32:41:07 01:40:25:21 01:40:27:03 
*FROM CLIP NAME:  51K12/01.SYNC.01 
*SOURCE FILE: 19Y08M02
008478  19Y08M02                         A3    C        21:32:40:00 21:32:41:07 01:40:25:21 01:40:27:03 
*FROM CLIP NAME:  51K12/01.SYNC.01 
*SOURCE FILE: 19Y08M02
008479  19Y08M02                         A4    C        21:32:40:00 21:32:41:07 01:40:25:21 01:40:27:03 
*FROM CLIP NAME:  51K12/01.SYNC.01 
*SOURCE FILE: 19Y08M02
008480  19Y08M02                         A5    C        21:32:40:00 21:32:41:07 01:40:25:21 01:40:27:03 
*FROM CLIP NAME:  51K12/01.SYNC.01 
*SOURCE FILE: 19Y08M02
008481  19Y08M02                         A6    C        21:32:40:00 21:32:41:07 01:40:25:21 01:40:27:03 
*FROM CLIP NAME:  51K12/01.SYNC.01 
*SOURCE FILE: 19Y08M02
008482  19Y08M02                         A7    C        21:32:40:00 21:32:41:07 01:40:25:21 01:40:27:03 
*FROM CLIP NAME:  51K12/01.SYNC.01 
*SOURCE FILE: 19Y08M02
008483  19Y08M02                         A8    C        21:32:40:00 21:32:41:07 01:40:25:21 01:40:27:03 
*FROM CLIP NAME:  51K12/01.SYNC.01 
*SOURCE FILE: 19Y08M02
008484  19Y08M02                         A9    C        21:32:40:00 21:32:41:07 01:40:25:21 01:40:27:03 
*FROM CLIP NAME:  51K12/01.SYNC.01 
*SOURCE FILE: 19Y08M02
008485  19Y08M02                         A10   C        21:32:40:00 21:32:41:07 01:40:25:21 01:40:27:03 
*FROM CLIP NAME:  51K12/01.SYNC.01 
*PATCH 19Y08M02:  FROM SOURCE 1 TO RECORD 10 
*SOURCE FILE: 19Y08M02
008486  MSMMMOB.28                       V     C        19:51:12:08 19:51:13:19 01:40:27:03 01:40:28:14 
M2      MSMMMOB.28                                025.0 19:51:12:08 
*FROM CLIP NAME:  A033C001_190802_R32C 
*SOURCE FILE: MSMMMOB.28
008487  19Y08M02                         A     C        21:32:41:16 21:32:43:02 01:40:27:03 01:40:28:14 
*FROM CLIP NAME:  51K12/01.SYNC.01 
*SOURCE FILE: 19Y08M02
008488  19Y08M02                         A2    C        21:32:41:16 21:32:43:02 01:40:27:03 01:40:28:14 
*FROM CLIP NAME:  51K12/01.SYNC.01 
*SOURCE FILE: 19Y08M02
008489  19Y08M02                         A3    C        21:32:41:16 21:32:43:02 01:40:27:03 01:40:28:14 
*FROM CLIP NAME:  51K12/01.SYNC.01 
*SOURCE FILE: 19Y08M02
008490  19Y08M02                         A4    C        21:32:41:16 21:32:43:02 01:40:27:03 01:40:28:14 
*FROM CLIP NAME:  51K12/01.SYNC.01 
*SOURCE FILE: 19Y08M02
008491  19Y08M02                         A5    C        21:32:41:16 21:32:43:02 01:40:27:03 01:40:28:14 
*FROM CLIP NAME:  51K12/01.SYNC.01 
*SOURCE FILE: 19Y08M02
008492  19Y08M02                         A6    C        21:32:41:16 21:32:43:02 01:40:27:03 01:40:28:14 
*FROM CLIP NAME:  51K12/01.SYNC.01 
*SOURCE FILE: 19Y08M02
008493  19Y08M02                         A7    C        21:32:41:16 21:32:43:02 01:40:27:03 01:40:28:14 
*FROM CLIP NAME:  51K12/01.SYNC.01 
*SOURCE FILE: 19Y08M02
008494  19Y08M02                         A8    C        21:32:41:16 21:32:43:02 01:40:27:03 01:40:28:14 
*FROM CLIP NAME:  51K12/01.SYNC.01 
*SOURCE FILE: 19Y08M02
008495  19Y08M02                         A9    C        21:32:41:16 21:32:43:02 01:40:27:03 01:40:28:14 
*FROM CLIP NAME:  51K12/01.SYNC.01 
*SOURCE FILE: 19Y08M02
008496  19Y08M02                         A10   C        21:32:41:16 21:32:43:02 01:40:27:03 01:40:28:14 
*FROM CLIP NAME:  51K12/01.SYNC.01 
*PATCH 19Y08M02:  FROM SOURCE 1 TO RECORD 10 
*SOURCE FILE: 19Y08M02
008497  MSMMMOB.53                       V     C        21:32:41:19 21:32:46:03 01:40:28:14 01:40:32:23 
M2      MSMMMOB.53                                025.0 21:32:41:19 
*FROM CLIP NAME:  A035C004_190802_R32C 
*SOURCE FILE: MSMMMOB.53
008498  19Y08M02                         A     C        21:32:41:19 21:32:46:03 01:40:28:14 01:40:32:23 
*FROM CLIP NAME:  51K12/01.SYNC.01 
*SOURCE FILE: 19Y08M02
008499  19Y08M02                         A2    C        21:32:41:19 21:32:46:03 01:40:28:14 01:40:32:23 
*FROM CLIP NAME:  51K12/01.SYNC.01 
*SOURCE FILE: 19Y08M02
008500  19Y08M02                         A3    C        21:32:41:19 21:32:46:03 01:40:28:14 01:40:32:23 
*FROM CLIP NAME:  51K12/01.SYNC.01 
*SOURCE FILE: 19Y08M02
008501  19Y08M02                         A4    C        21:32:41:19 21:32:46:03 01:40:28:14 01:40:32:23 
*FROM CLIP NAME:  51K12/01.SYNC.01 
*SOURCE FILE: 19Y08M02
008502  19Y08M02                         A5    C        21:32:41:19 21:32:46:03 01:40:28:14 01:40:32:23 
*FROM CLIP NAME:  51K12/01.SYNC.01 
*SOURCE FILE: 19Y08M02
008503  19Y08M02                         A6    C        21:32:41:19 21:32:46:03 01:40:28:14 01:40:32:23 
*FROM CLIP NAME:  51K12/01.SYNC.01 
*SOURCE FILE: 19Y08M02
008504  19Y08M02                         A7    C        21:32:41:19 21:32:46:03 01:40:28:14 01:40:32:23 
*FROM CLIP NAME:  51K12/01.SYNC.01 
*SOURCE FILE: 19Y08M02
008505  19Y08M02                         A8    C        21:32:41:19 21:32:46:03 01:40:28:14 01:40:32:23 
*FROM CLIP NAME:  51K12/01.SYNC.01 
*SOURCE FILE: 19Y08M02
008506  19Y08M02                         A9    C        21:32:41:19 21:32:46:03 01:40:28:14 01:40:32:23 
*FROM CLIP NAME:  51K12/01.SYNC.01 
*SOURCE FILE: 19Y08M02
008507  19Y08M02                         A10   C        21:32:41:19 21:32:46:03 01:40:28:14 01:40:32:23 
*FROM CLIP NAME:  51K12/01.SYNC.01 
*PATCH 19Y08M02:  FROM SOURCE 1 TO RECORD 10 
*SOURCE FILE: 19Y08M02
008508  MSMMMOB.28                       V     C        19:51:16:02 19:51:17:21 01:40:32:23 01:40:34:17 
M2      MSMMMOB.28                                025.0 19:51:16:02 
*FROM CLIP NAME:  A033C001_190802_R32C 
*SOURCE FILE: MSMMMOB.28
008509  19Y08M02                         A     C        19:51:16:02 19:51:17:21 01:40:32:23 01:40:34:17 
*FROM CLIP NAME:  51K4/02.SYNC.01 
*SOURCE FILE: 19Y08M02
008510  19Y08M02                         A2    C        19:51:16:02 19:51:17:21 01:40:32:23 01:40:34:17 
*FROM CLIP NAME:  51K4/02.SYNC.01 
*SOURCE FILE: 19Y08M02
008511  19Y08M02                         A3    C        19:51:16:02 19:51:17:21 01:40:32:23 01:40:34:17 
*FROM CLIP NAME:  51K4/02.SYNC.01 
*SOURCE FILE: 19Y08M02
008512  19Y08M02                         A4    C        19:51:16:02 19:51:17:21 01:40:32:23 01:40:34:17 
*FROM CLIP NAME:  51K4/02.SYNC.01 
*SOURCE FILE: 19Y08M02
008513  19Y08M02                         A5    C        19:51:16:02 19:51:17:21 01:40:32:23 01:40:34:17 
*FROM CLIP NAME:  51K4/02.SYNC.01 
*SOURCE FILE: 19Y08M02
008514  19Y08M02                         A6    C        19:51:16:02 19:51:17:21 01:40:32:23 01:40:34:17 
*FROM CLIP NAME:  51K4/02.SYNC.01 
*SOURCE FILE: 19Y08M02
008515  19Y08M02                         A7    C        19:51:16:02 19:51:17:21 01:40:32:23 01:40:34:17 
*FROM CLIP NAME:  51K4/02.SYNC.01 
*SOURCE FILE: 19Y08M02
008516  19Y08M02                         A8    C        19:51:16:02 19:51:17:21 01:40:32:23 01:40:34:17 
*FROM CLIP NAME:  51K4/02.SYNC.01 
*SOURCE FILE: 19Y08M02
008517  19Y08M02                         A9    C        19:51:16:02 19:51:17:21 01:40:32:23 01:40:34:17 
*FROM CLIP NAME:  51K4/02.SYNC.01 
*SOURCE FILE: 19Y08M02
008518  19Y08M02                         A10   C        19:51:16:02 19:51:17:21 01:40:32:23 01:40:34:17 
*FROM CLIP NAME:  51K4/02.SYNC.01 
*PATCH 19Y08M02:  FROM SOURCE 1 TO RECORD 10 
*SOURCE FILE: 19Y08M02
008519  MSMMMOB.53                       V     C        21:32:48:02 21:32:51:17 01:40:34:17 01:40:38:07 
M2      MSMMMOB.53                                025.0 21:32:48:02 
*FROM CLIP NAME:  A035C004_190802_R32C 
*SOURCE FILE: MSMMMOB.53
008520  19Y08M02                         A     C        21:32:48:02 21:32:51:17 01:40:34:17 01:40:38:07 
*FROM CLIP NAME:  51K12/01.SYNC.01 
*SOURCE FILE: 19Y08M02
008521  19Y08M02                         A2    C        21:32:48:02 21:32:51:17 01:40:34:17 01:40:38:07 
*FROM CLIP NAME:  51K12/01.SYNC.01 
*SOURCE FILE: 19Y08M02
008522  19Y08M02                         A3    C        21:32:48:02 21:32:51:17 01:40:34:17 01:40:38:07 
*FROM CLIP NAME:  51K12/01.SYNC.01 
*SOURCE FILE: 19Y08M02
008523  19Y08M02                         A4    C        21:32:48:02 21:32:51:17 01:40:34:17 01:40:38:07 
*FROM CLIP NAME:  51K12/01.SYNC.01 
*SOURCE FILE: 19Y08M02
008524  19Y08M02                         A5    C        21:32:48:02 21:32:51:17 01:40:34:17 01:40:38:07 
*FROM CLIP NAME:  51K12/01.SYNC.01 
*SOURCE FILE: 19Y08M02
008525  19Y08M02                         A6    C        21:32:48:02 21:32:51:17 01:40:34:17 01:40:38:07 
*FROM CLIP NAME:  51K12/01.SYNC.01 
*SOURCE FILE: 19Y08M02
008526  19Y08M02                         A7    C        21:32:48:02 21:32:51:17 01:40:34:17 01:40:38:07 
*FROM CLIP NAME:  51K12/01.SYNC.01 
*SOURCE FILE: 19Y08M02
008527  19Y08M02                         A8    C        21:32:48:02 21:32:51:17 01:40:34:17 01:40:38:07 
*FROM CLIP NAME:  51K12/01.SYNC.01 
*SOURCE FILE: 19Y08M02
008528  19Y08M02                         A9    C        21:32:48:02 21:32:51:17 01:40:34:17 01:40:38:07 
*FROM CLIP NAME:  51K12/01.SYNC.01 
*SOURCE FILE: 19Y08M02
008529  19Y08M02                         A10   C        21:32:48:02 21:32:51:17 01:40:34:17 01:40:38:07 
*FROM CLIP NAME:  51K12/01.SYNC.01 
*PATCH 19Y08M02:  FROM SOURCE 1 TO RECORD 10 
*SOURCE FILE: 19Y08M02
008530  MSMMMOB.28                       V     C        19:51:22:14 19:51:24:02 01:40:38:07 01:40:39:20 
M2      MSMMMOB.28                                025.0 19:51:22:14 
*FROM CLIP NAME:  A033C001_190802_R32C 
*SOURCE FILE: MSMMMOB.28
008531  19Y08M02                         A     C        21:32:41:16 21:32:43:04 01:40:38:07 01:40:39:20 
*FROM CLIP NAME:  51K12/01.SYNC.01 
*SOURCE FILE: 19Y08M02
008532  19Y08M02                         A2    C        21:32:41:16 21:32:43:04 01:40:38:07 01:40:39:20 
*FROM CLIP NAME:  51K12/01.SYNC.01 
*SOURCE FILE: 19Y08M02
008533  19Y08M02                         A3    C        21:32:41:16 21:32:43:04 01:40:38:07 01:40:39:20 
*FROM CLIP NAME:  51K12/01.SYNC.01 
*SOURCE FILE: 19Y08M02
008534  19Y08M02                         A4    C        21:32:41:16 21:32:43:04 01:40:38:07 01:40:39:20 
*FROM CLIP NAME:  51K12/01.SYNC.01 
*SOURCE FILE: 19Y08M02
008535  19Y08M02                         A5    C        21:32:41:16 21:32:43:04 01:40:38:07 01:40:39:20 
*FROM CLIP NAME:  51K12/01.SYNC.01 
*SOURCE FILE: 19Y08M02
008536  19Y08M02                         A6    C        21:32:41:16 21:32:43:04 01:40:38:07 01:40:39:20 
*FROM CLIP NAME:  51K12/01.SYNC.01 
*SOURCE FILE: 19Y08M02
008537  19Y08M02                         A7    C        21:32:41:16 21:32:43:04 01:40:38:07 01:40:39:20 
*FROM CLIP NAME:  51K12/01.SYNC.01 
*SOURCE FILE: 19Y08M02
008538  19Y08M02                         A8    C        21:32:41:16 21:32:43:04 01:40:38:07 01:40:39:20 
*FROM CLIP NAME:  51K12/01.SYNC.01 
*SOURCE FILE: 19Y08M02
008539  19Y08M02                         A9    C        21:32:41:16 21:32:43:04 01:40:38:07 01:40:39:20 
*FROM CLIP NAME:  51K12/01.SYNC.01 
*SOURCE FILE: 19Y08M02
008540  19Y08M02                         A10   C        21:32:41:16 21:32:43:04 01:40:38:07 01:40:39:20 
*FROM CLIP NAME:  51K12/01.SYNC.01 
*PATCH 19Y08M02:  FROM SOURCE 1 TO RECORD 10 
*SOURCE FILE: 19Y08M02
008541  MSMMMOB.53                       V     C        21:32:51:17 21:32:55:01 01:40:39:20 01:40:43:04 
M2      MSMMMOB.53                                025.0 21:32:51:17 
*FROM CLIP NAME:  A035C004_190802_R32C 
*SOURCE FILE: MSMMMOB.53
008542  19Y08M02                         A     C        21:32:51:17 21:32:55:01 01:40:39:20 01:40:43:04 
*FROM CLIP NAME:  51K12/01.SYNC.01 
*SOURCE FILE: 19Y08M02
008543  19Y08M02                         A2    C        21:32:51:17 21:32:55:01 01:40:39:20 01:40:43:04 
*FROM CLIP NAME:  51K12/01.SYNC.01 
*SOURCE FILE: 19Y08M02
008544  19Y08M02                         A3    C        21:32:51:17 21:32:55:01 01:40:39:20 01:40:43:04 
*FROM CLIP NAME:  51K12/01.SYNC.01 
*SOURCE FILE: 19Y08M02
008545  19Y08M02                         A4    C        21:32:51:17 21:32:55:01 01:40:39:20 01:40:43:04 
*FROM CLIP NAME:  51K12/01.SYNC.01 
*SOURCE FILE: 19Y08M02
008546  19Y08M02                         A5    C        21:32:51:17 21:32:55:01 01:40:39:20 01:40:43:04 
*FROM CLIP NAME:  51K12/01.SYNC.01 
*SOURCE FILE: 19Y08M02
008547  19Y08M02                         A6    C        21:32:51:17 21:32:55:01 01:40:39:20 01:40:43:04 
*FROM CLIP NAME:  51K12/01.SYNC.01 
*SOURCE FILE: 19Y08M02
008548  19Y08M02                         A7    C        21:32:51:17 21:32:55:01 01:40:39:20 01:40:43:04 
*FROM CLIP NAME:  51K12/01.SYNC.01 
*SOURCE FILE: 19Y08M02
008549  19Y08M02                         A8    C        21:32:51:17 21:32:55:01 01:40:39:20 01:40:43:04 
*FROM CLIP NAME:  51K12/01.SYNC.01 
*SOURCE FILE: 19Y08M02
008550  19Y08M02                         A9    C        21:32:51:17 21:32:55:01 01:40:39:20 01:40:43:04 
*FROM CLIP NAME:  51K12/01.SYNC.01 
*SOURCE FILE: 19Y08M02
008551  19Y08M02                         A10   C        21:32:51:17 21:32:55:01 01:40:39:20 01:40:43:04 
*FROM CLIP NAME:  51K12/01.SYNC.01 
*PATCH 19Y08M02:  FROM SOURCE 1 TO RECORD 10 
*SOURCE FILE: 19Y08M02
008552  MSMMMOB.28                       V     C        19:51:25:18 19:51:27:09 01:40:43:04 01:40:44:20 
M2      MSMMMOB.28                                025.0 19:51:25:18 
*FROM CLIP NAME:  A033C001_190802_R32C 
*SOURCE FILE: MSMMMOB.28
008553  19Y08M02                         A     C        19:51:25:18 19:51:27:09 01:40:43:04 01:40:44:20 
*FROM CLIP NAME:  51K4/02.SYNC.01 
*SOURCE FILE: 19Y08M02
008554  19Y08M02                         A2    C        19:51:25:18 19:51:27:09 01:40:43:04 01:40:44:20 
*FROM CLIP NAME:  51K4/02.SYNC.01 
*SOURCE FILE: 19Y08M02
008555  19Y08M02                         A3    C        19:51:25:18 19:51:27:09 01:40:43:04 01:40:44:20 
*FROM CLIP NAME:  51K4/02.SYNC.01 
*SOURCE FILE: 19Y08M02
008556  19Y08M02                         A4    C        19:51:25:18 19:51:27:09 01:40:43:04 01:40:44:20 
*FROM CLIP NAME:  51K4/02.SYNC.01 
*SOURCE FILE: 19Y08M02
008557  19Y08M02                         A5    C        19:51:25:18 19:51:27:09 01:40:43:04 01:40:44:20 
*FROM CLIP NAME:  51K4/02.SYNC.01 
*SOURCE FILE: 19Y08M02
008558  19Y08M02                         A6    C        19:51:25:18 19:51:27:09 01:40:43:04 01:40:44:20 
*FROM CLIP NAME:  51K4/02.SYNC.01 
*SOURCE FILE: 19Y08M02
008559  19Y08M02                         A7    C        19:51:25:18 19:51:27:09 01:40:43:04 01:40:44:20 
*FROM CLIP NAME:  51K4/02.SYNC.01 
*SOURCE FILE: 19Y08M02
008560  19Y08M02                         A8    C        19:51:25:18 19:51:27:09 01:40:43:04 01:40:44:20 
*FROM CLIP NAME:  51K4/02.SYNC.01 
*SOURCE FILE: 19Y08M02
008561  19Y08M02                         A9    C        19:51:25:18 19:51:27:09 01:40:43:04 01:40:44:20 
*FROM CLIP NAME:  51K4/02.SYNC.01 
*SOURCE FILE: 19Y08M02
008562  19Y08M02                         A10   C        19:51:25:18 19:51:27:09 01:40:43:04 01:40:44:20 
*FROM CLIP NAME:  51K4/02.SYNC.01 
*PATCH 19Y08M02:  FROM SOURCE 1 TO RECORD 10 
*SOURCE FILE: 19Y08M02
008563  19Y08M02                         A     C        21:32:55:12 21:32:58:07 01:40:44:20 01:40:47:15 
*FROM CLIP NAME:  51K12/01.SYNC.01 
*SOURCE FILE: 19Y08M02
008564  19Y08M02                         A2    C        21:32:55:12 21:32:58:07 01:40:44:20 01:40:47:15 
*FROM CLIP NAME:  51K12/01.SYNC.01 
*SOURCE FILE: 19Y08M02
008565  19Y08M02                         A3    C        21:32:55:12 21:32:58:07 01:40:44:20 01:40:47:15 
*FROM CLIP NAME:  51K12/01.SYNC.01 
*SOURCE FILE: 19Y08M02
008566  19Y08M02                         A4    C        21:32:55:12 21:32:58:07 01:40:44:20 01:40:47:15 
*FROM CLIP NAME:  51K12/01.SYNC.01 
*SOURCE FILE: 19Y08M02
008567  19Y08M02                         A5    C        21:32:55:12 21:32:58:07 01:40:44:20 01:40:47:15 
*FROM CLIP NAME:  51K12/01.SYNC.01 
*SOURCE FILE: 19Y08M02
008568  19Y08M02                         A6    C        21:32:55:12 21:32:58:07 01:40:44:20 01:40:47:15 
*FROM CLIP NAME:  51K12/01.SYNC.01 
*SOURCE FILE: 19Y08M02
008569  19Y08M02                         A7    C        21:32:55:12 21:32:58:07 01:40:44:20 01:40:47:15 
*FROM CLIP NAME:  51K12/01.SYNC.01 
*SOURCE FILE: 19Y08M02
008570  19Y08M02                         A8    C        21:32:55:12 21:32:58:07 01:40:44:20 01:40:47:15 
*FROM CLIP NAME:  51K12/01.SYNC.01 
*SOURCE FILE: 19Y08M02
008571  19Y08M02                         A9    C        21:32:55:12 21:32:58:07 01:40:44:20 01:40:47:15 
*FROM CLIP NAME:  51K12/01.SYNC.01 
*SOURCE FILE: 19Y08M02
008572  19Y08M02                         A10   C        21:32:55:12 21:32:58:07 01:40:44:20 01:40:47:15 
*FROM CLIP NAME:  51K12/01.SYNC.01 
*PATCH 19Y08M02:  FROM SOURCE 1 TO RECORD 10 
*SOURCE FILE: 19Y08M02
008573  MSMMMOB.53                       V     C        21:32:55:12 21:32:58:24 01:40:44:20 01:40:48:07 
M2      MSMMMOB.53                                025.0 21:32:55:12 
*FROM CLIP NAME:  A035C004_190802_R32C 
*SOURCE FILE: MSMMMOB.53
008574  19Y08M02                         A     C        19:40:16:21 19:40:19:18 01:40:47:15 01:40:50:12 
*FROM CLIP NAME:  51K3/03.SYNC.01 
*SOURCE FILE: 19Y08M02
008575  19Y08M02                         A2    C        19:40:16:21 19:40:19:18 01:40:47:15 01:40:50:12 
*FROM CLIP NAME:  51K3/03.SYNC.01 
*SOURCE FILE: 19Y08M02
008576  19Y08M02                         A3    C        19:40:16:21 19:40:19:18 01:40:47:15 01:40:50:12 
*FROM CLIP NAME:  51K3/03.SYNC.01 
*SOURCE FILE: 19Y08M02
008577  19Y08M02                         A4    C        19:40:16:21 19:40:19:18 01:40:47:15 01:40:50:12 
*FROM CLIP NAME:  51K3/03.SYNC.01 
*SOURCE FILE: 19Y08M02
008578  19Y08M02                         A5    C        19:40:16:21 19:40:19:18 01:40:47:15 01:40:50:12 
*FROM CLIP NAME:  51K3/03.SYNC.01 
*SOURCE FILE: 19Y08M02
008579  19Y08M02                         A6    C        19:40:16:21 19:40:19:18 01:40:47:15 01:40:50:12 
*FROM CLIP NAME:  51K3/03.SYNC.01 
*SOURCE FILE: 19Y08M02
008580  19Y08M02                         A7    C        19:40:16:21 19:40:19:18 01:40:47:15 01:40:50:12 
*FROM CLIP NAME:  51K3/03.SYNC.01 
*SOURCE FILE: 19Y08M02
008581  19Y08M02                         A8    C        19:40:16:21 19:40:19:18 01:40:47:15 01:40:50:12 
*FROM CLIP NAME:  51K3/03.SYNC.01 
*SOURCE FILE: 19Y08M02
008582  19Y08M02                         A9    C        19:40:16:21 19:40:19:18 01:40:47:15 01:40:50:12 
*FROM CLIP NAME:  51K3/03.SYNC.01 
*SOURCE FILE: 19Y08M02
008583  19Y08M02                         A10   C        19:40:16:21 19:40:19:18 01:40:47:15 01:40:50:12 
*FROM CLIP NAME:  51K3/03.SYNC.01 
*PATCH 19Y08M02:  FROM SOURCE 1 TO RECORD 10 
*SOURCE FILE: 19Y08M02
008584  MSMMMOB.27                       V     C        19:40:17:13 19:40:19:00 01:40:48:07 01:40:49:19 
M2      MSMMMOB.27                                025.0 19:40:17:13 
*FROM CLIP NAME:  A032C012_190802_R32C 
*SOURCE FILE: MSMMMOB.27
008585  MSMMMOB.58                       V     C        21:22:25:01 21:22:26:11 01:40:49:19 01:40:51:04 
M2      MSMMMOB.58                                025.0 21:22:25:01 
*FROM CLIP NAME:  A035C002_190802_R32C 
*SOURCE FILE: MSMMMOB.58
008586  19Y08M02                         A     C        21:32:41:16 21:32:42:08 01:40:50:12 01:40:51:04 
*FROM CLIP NAME:  51K12/01.SYNC.01 
*SOURCE FILE: 19Y08M02
008587  19Y08M02                         A2    C        21:32:41:16 21:32:42:08 01:40:50:12 01:40:51:04 
*FROM CLIP NAME:  51K12/01.SYNC.01 
*SOURCE FILE: 19Y08M02
008588  19Y08M02                         A3    C        21:32:41:16 21:32:42:08 01:40:50:12 01:40:51:04 
*FROM CLIP NAME:  51K12/01.SYNC.01 
*SOURCE FILE: 19Y08M02
008589  19Y08M02                         A4    C        21:32:41:16 21:32:42:08 01:40:50:12 01:40:51:04 
*FROM CLIP NAME:  51K12/01.SYNC.01 
*SOURCE FILE: 19Y08M02
008590  19Y08M02                         A5    C        21:32:41:16 21:32:42:08 01:40:50:12 01:40:51:04 
*FROM CLIP NAME:  51K12/01.SYNC.01 
*SOURCE FILE: 19Y08M02
008591  19Y08M02                         A6    C        21:32:41:16 21:32:42:08 01:40:50:12 01:40:51:04 
*FROM CLIP NAME:  51K12/01.SYNC.01 
*SOURCE FILE: 19Y08M02
008592  19Y08M02                         A7    C        21:32:41:16 21:32:42:08 01:40:50:12 01:40:51:04 
*FROM CLIP NAME:  51K12/01.SYNC.01 
*SOURCE FILE: 19Y08M02
008593  19Y08M02                         A8    C        21:32:41:16 21:32:42:08 01:40:50:12 01:40:51:04 
*FROM CLIP NAME:  51K12/01.SYNC.01 
*SOURCE FILE: 19Y08M02
008594  19Y08M02                         A9    C        21:32:41:16 21:32:42:08 01:40:50:12 01:40:51:04 
*FROM CLIP NAME:  51K12/01.SYNC.01 
*SOURCE FILE: 19Y08M02
008595  19Y08M02                         A10   C        21:32:41:16 21:32:42:08 01:40:50:12 01:40:51:04 
*FROM CLIP NAME:  51K12/01.SYNC.01 
*PATCH 19Y08M02:  FROM SOURCE 1 TO RECORD 10 
*SOURCE FILE: 19Y08M02
008596  MSMMMOB.27                       V     C        19:40:20:07 19:40:21:17 01:40:51:04 01:40:52:14 
M2      MSMMMOB.27                                025.0 19:40:20:07 
*FROM CLIP NAME:  A032C012_190802_R32C 
*SOURCE FILE: MSMMMOB.27
008597  19Y08M02                         A     C        19:40:20:07 19:40:22:02 01:40:51:04 01:40:52:24 
*FROM CLIP NAME:  51K3/03.SYNC.01 
*SOURCE FILE: 19Y08M02
008598  19Y08M02                         A2    C        19:40:20:07 19:40:22:02 01:40:51:04 01:40:52:24 
*FROM CLIP NAME:  51K3/03.SYNC.01 
*SOURCE FILE: 19Y08M02
008599  19Y08M02                         A3    C        19:40:20:07 19:40:22:02 01:40:51:04 01:40:52:24 
*FROM CLIP NAME:  51K3/03.SYNC.01 
*SOURCE FILE: 19Y08M02
008600  19Y08M02                         A4    C        19:40:20:07 19:40:22:02 01:40:51:04 01:40:52:24 
*FROM CLIP NAME:  51K3/03.SYNC.01 
*SOURCE FILE: 19Y08M02
008601  19Y08M02                         A5    C        19:40:20:07 19:40:22:02 01:40:51:04 01:40:52:24 
*FROM CLIP NAME:  51K3/03.SYNC.01 
*SOURCE FILE: 19Y08M02
008602  19Y08M02                         A6    C        19:40:20:07 19:40:22:02 01:40:51:04 01:40:52:24 
*FROM CLIP NAME:  51K3/03.SYNC.01 
*SOURCE FILE: 19Y08M02
008603  19Y08M02                         A7    C        19:40:20:07 19:40:22:02 01:40:51:04 01:40:52:24 
*FROM CLIP NAME:  51K3/03.SYNC.01 
*SOURCE FILE: 19Y08M02
008604  19Y08M02                         A8    C        19:40:20:07 19:40:22:02 01:40:51:04 01:40:52:24 
*FROM CLIP NAME:  51K3/03.SYNC.01 
*SOURCE FILE: 19Y08M02
008605  19Y08M02                         A9    C        19:40:20:07 19:40:22:02 01:40:51:04 01:40:52:24 
*FROM CLIP NAME:  51K3/03.SYNC.01 
*SOURCE FILE: 19Y08M02
008606  19Y08M02                         A10   C        19:40:20:07 19:40:22:02 01:40:51:04 01:40:52:24 
*FROM CLIP NAME:  51K3/03.SYNC.01 
*PATCH 19Y08M02:  FROM SOURCE 1 TO RECORD 10 
*SOURCE FILE: 19Y08M02
008607  MSMMMOB.58                       V     C        21:22:28:14 21:22:30:24 01:40:52:14 01:40:54:24 
M2      MSMMMOB.58                                025.0 21:22:28:14 
*FROM CLIP NAME:  A035C002_190802_R32C 
*SOURCE FILE: MSMMMOB.58
008608  BL                               V     C        00:00:00:00 00:00:02:10 01:40:52:14 01:40:54:24 
*SOURCE FILE: (NULL)
008609  19Y08M02                         A     C        21:22:28:24 21:22:30:24 01:40:52:24 01:40:54:24 
*FROM CLIP NAME:  51K11/02.SYNC.01 
*SOURCE FILE: 19Y08M02
008610  19Y08M02                         A2    C        21:22:28:24 21:22:30:24 01:40:52:24 01:40:54:24 
*FROM CLIP NAME:  51K11/02.SYNC.01 
*SOURCE FILE: 19Y08M02
008611  19Y08M02                         A3    C        21:22:28:24 21:22:30:24 01:40:52:24 01:40:54:24 
*FROM CLIP NAME:  51K11/02.SYNC.01 
*SOURCE FILE: 19Y08M02
008612  19Y08M02                         A4    C        21:22:28:24 21:22:30:24 01:40:52:24 01:40:54:24 
*FROM CLIP NAME:  51K11/02.SYNC.01 
*SOURCE FILE: 19Y08M02
008613  19Y08M02                         A5    C        21:22:28:24 21:22:30:24 01:40:52:24 01:40:54:24 
*FROM CLIP NAME:  51K11/02.SYNC.01 
*SOURCE FILE: 19Y08M02
008614  19Y08M02                         A6    C        21:22:28:24 21:22:30:24 01:40:52:24 01:40:54:24 
*FROM CLIP NAME:  51K11/02.SYNC.01 
*SOURCE FILE: 19Y08M02
008615  19Y08M02                         A7    C        21:22:28:24 21:22:30:24 01:40:52:24 01:40:54:24 
*FROM CLIP NAME:  51K11/02.SYNC.01 
*SOURCE FILE: 19Y08M02
008616  19Y08M02                         A8    C        21:22:28:24 21:22:30:24 01:40:52:24 01:40:54:24 
*FROM CLIP NAME:  51K11/02.SYNC.01 
*SOURCE FILE: 19Y08M02
008617  19Y08M02                         A9    C        21:22:28:24 21:22:30:24 01:40:52:24 01:40:54:24 
*FROM CLIP NAME:  51K11/02.SYNC.01 
*SOURCE FILE: 19Y08M02
008618  19Y08M02                         A10   C        21:22:28:24 21:22:30:24 01:40:52:24 01:40:54:24 
*FROM CLIP NAME:  51K11/02.SYNC.01 
*PATCH 19Y08M02:  FROM SOURCE 1 TO RECORD 10 
*SOURCE FILE: 19Y08M02
008619  MSMMMOB.16                       V     C        19:58:46:20 19:58:49:05 01:40:54:24 01:40:57:09 
M2      MSMMMOB.16                                025.0 19:58:46:20 
*FROM CLIP NAME:  A033C002_190802_R32C 
*SOURCE FILE: MSMMMOB.16
008620  19Y08M02                         A     C        21:22:33:09 21:22:35:19 01:40:54:24 01:40:57:09 
*FROM CLIP NAME:  51K11/02.SYNC.01 
*SOURCE FILE: 19Y08M02
008621  19Y08M02                         A2    C        21:22:33:09 21:22:35:19 01:40:54:24 01:40:57:09 
*FROM CLIP NAME:  51K11/02.SYNC.01 
*SOURCE FILE: 19Y08M02
008622  19Y08M02                         A3    C        21:22:33:09 21:22:35:19 01:40:54:24 01:40:57:09 
*FROM CLIP NAME:  51K11/02.SYNC.01 
*SOURCE FILE: 19Y08M02
008623  19Y08M02                         A4    C        21:22:33:09 21:22:35:19 01:40:54:24 01:40:57:09 
*FROM CLIP NAME:  51K11/02.SYNC.01 
*SOURCE FILE: 19Y08M02
008624  19Y08M02                         A5    C        21:22:33:09 21:22:35:19 01:40:54:24 01:40:57:09 
*FROM CLIP NAME:  51K11/02.SYNC.01 
*SOURCE FILE: 19Y08M02
008625  19Y08M02                         A6    C        21:22:33:09 21:22:35:19 01:40:54:24 01:40:57:09 
*FROM CLIP NAME:  51K11/02.SYNC.01 
*SOURCE FILE: 19Y08M02
008626  19Y08M02                         A7    C        21:22:33:09 21:22:35:19 01:40:54:24 01:40:57:09 
*FROM CLIP NAME:  51K11/02.SYNC.01 
*SOURCE FILE: 19Y08M02
008627  19Y08M02                         A8    C        21:22:33:09 21:22:35:19 01:40:54:24 01:40:57:09 
*FROM CLIP NAME:  51K11/02.SYNC.01 
*SOURCE FILE: 19Y08M02
008628  19Y08M02                         A9    C        21:22:33:09 21:22:35:19 01:40:54:24 01:40:57:09 
*FROM CLIP NAME:  51K11/02.SYNC.01 
*SOURCE FILE: 19Y08M02
008629  19Y08M02                         A10   C        21:22:33:09 21:22:35:19 01:40:54:24 01:40:57:09 
*FROM CLIP NAME:  51K11/02.SYNC.01 
*PATCH 19Y08M02:  FROM SOURCE 1 TO RECORD 10 
*SOURCE FILE: 19Y08M02
008630  BL                               V     C        00:00:00:00 00:00:14:01 01:40:54:24 01:41:09:00 
*SOURCE FILE: (NULL)
008631  19Y08M02                         A     C        21:22:30:23 21:22:32:23 01:40:57:09 01:40:59:09 
*FROM CLIP NAME:  51K11/02.SYNC.01 
*SOURCE FILE: 19Y08M02
008632  19Y08M02                         A2    C        21:22:30:23 21:22:32:23 01:40:57:09 01:40:59:09 
*FROM CLIP NAME:  51K11/02.SYNC.01 
*SOURCE FILE: 19Y08M02
008633  19Y08M02                         A3    C        21:22:30:23 21:22:32:23 01:40:57:09 01:40:59:09 
*FROM CLIP NAME:  51K11/02.SYNC.01 
*SOURCE FILE: 19Y08M02
008634  19Y08M02                         A4    C        21:22:30:23 21:22:32:23 01:40:57:09 01:40:59:09 
*FROM CLIP NAME:  51K11/02.SYNC.01 
*SOURCE FILE: 19Y08M02
008635  19Y08M02                         A5    C        21:22:30:23 21:22:32:23 01:40:57:09 01:40:59:09 
*FROM CLIP NAME:  51K11/02.SYNC.01 
*SOURCE FILE: 19Y08M02
008636  19Y08M02                         A6    C        21:22:30:23 21:22:32:23 01:40:57:09 01:40:59:09 
*FROM CLIP NAME:  51K11/02.SYNC.01 
*SOURCE FILE: 19Y08M02
008637  19Y08M02                         A7    C        21:22:30:23 21:22:32:23 01:40:57:09 01:40:59:09 
*FROM CLIP NAME:  51K11/02.SYNC.01 
*SOURCE FILE: 19Y08M02
008638  19Y08M02                         A8    C        21:22:30:23 21:22:32:23 01:40:57:09 01:40:59:09 
*FROM CLIP NAME:  51K11/02.SYNC.01 
*SOURCE FILE: 19Y08M02
008639  19Y08M02                         A9    C        21:22:30:23 21:22:32:23 01:40:57:09 01:40:59:09 
*FROM CLIP NAME:  51K11/02.SYNC.01 
*SOURCE FILE: 19Y08M02
008640  19Y08M02                         A10   C        21:22:30:23 21:22:32:23 01:40:57:09 01:40:59:09 
*FROM CLIP NAME:  51K11/02.SYNC.01 
*PATCH 19Y08M02:  FROM SOURCE 1 TO RECORD 10 
*SOURCE FILE: 19Y08M02
008641  MSMMMOB.58                       V     C        21:22:30:23 21:22:33:02 01:40:57:09 01:40:59:13 
M2      MSMMMOB.58                                025.0 21:22:30:23 
*FROM CLIP NAME:  A035C002_190802_R32C 
*SOURCE FILE: MSMMMOB.58
008642  19Y08M02                         A     C        19:40:24:24 19:40:27:06 01:40:59:09 01:41:01:16 
*FROM CLIP NAME:  51K3/03.SYNC.01 
*SOURCE FILE: 19Y08M02
008643  19Y08M02                         A2    C        19:40:24:24 19:40:27:06 01:40:59:09 01:41:01:16 
*FROM CLIP NAME:  51K3/03.SYNC.01 
*SOURCE FILE: 19Y08M02
008644  19Y08M02                         A3    C        19:40:24:24 19:40:27:06 01:40:59:09 01:41:01:16 
*FROM CLIP NAME:  51K3/03.SYNC.01 
*SOURCE FILE: 19Y08M02
008645  19Y08M02                         A4    C        19:40:24:24 19:40:27:06 01:40:59:09 01:41:01:16 
*FROM CLIP NAME:  51K3/03.SYNC.01 
*SOURCE FILE: 19Y08M02
008646  19Y08M02                         A5    C        19:40:24:24 19:40:27:06 01:40:59:09 01:41:01:16 
*FROM CLIP NAME:  51K3/03.SYNC.01 
*SOURCE FILE: 19Y08M02
008647  19Y08M02                         A6    C        19:40:24:24 19:40:27:06 01:40:59:09 01:41:01:16 
*FROM CLIP NAME:  51K3/03.SYNC.01 
*SOURCE FILE: 19Y08M02
008648  19Y08M02                         A7    C        19:40:24:24 19:40:27:06 01:40:59:09 01:41:01:16 
*FROM CLIP NAME:  51K3/03.SYNC.01 
*SOURCE FILE: 19Y08M02
008649  19Y08M02                         A8    C        19:40:24:24 19:40:27:06 01:40:59:09 01:41:01:16 
*FROM CLIP NAME:  51K3/03.SYNC.01 
*SOURCE FILE: 19Y08M02
008650  19Y08M02                         A9    C        19:40:24:24 19:40:27:06 01:40:59:09 01:41:01:16 
*FROM CLIP NAME:  51K3/03.SYNC.01 
*SOURCE FILE: 19Y08M02
008651  19Y08M02                         A10   C        19:40:24:24 19:40:27:06 01:40:59:09 01:41:01:16 
*FROM CLIP NAME:  51K3/03.SYNC.01 
*PATCH 19Y08M02:  FROM SOURCE 1 TO RECORD 10 
*SOURCE FILE: 19Y08M02
008652  MSMMMOB.27                       V     C        19:40:25:03 19:40:27:06 01:40:59:13 01:41:01:16 
M2      MSMMMOB.27                                025.0 19:40:25:03 
*FROM CLIP NAME:  A032C012_190802_R32C 
*SOURCE FILE: MSMMMOB.27
008653  MSMMMOB.58                       V     C        21:22:34:07 21:22:36:12 01:41:01:16 01:41:03:21 
M2      MSMMMOB.58                                025.0 21:22:34:07 
*FROM CLIP NAME:  A035C002_190802_R32C 
*SOURCE FILE: MSMMMOB.58
008654  19Y08M02                         A     C        21:22:34:07 21:22:36:12 01:41:01:16 01:41:03:21 
*FROM CLIP NAME:  51K11/02.SYNC.01 
*SOURCE FILE: 19Y08M02
008655  19Y08M02                         A2    C        21:22:34:07 21:22:36:12 01:41:01:16 01:41:03:21 
*FROM CLIP NAME:  51K11/02.SYNC.01 
*SOURCE FILE: 19Y08M02
008656  19Y08M02                         A3    C        21:22:34:07 21:22:36:12 01:41:01:16 01:41:03:21 
*FROM CLIP NAME:  51K11/02.SYNC.01 
*SOURCE FILE: 19Y08M02
008657  19Y08M02                         A4    C        21:22:34:07 21:22:36:12 01:41:01:16 01:41:03:21 
*FROM CLIP NAME:  51K11/02.SYNC.01 
*SOURCE FILE: 19Y08M02
008658  19Y08M02                         A5    C        21:22:34:07 21:22:36:12 01:41:01:16 01:41:03:21 
*FROM CLIP NAME:  51K11/02.SYNC.01 
*SOURCE FILE: 19Y08M02
008659  19Y08M02                         A6    C        21:22:34:07 21:22:36:12 01:41:01:16 01:41:03:21 
*FROM CLIP NAME:  51K11/02.SYNC.01 
*SOURCE FILE: 19Y08M02
008660  19Y08M02                         A7    C        21:22:34:07 21:22:36:12 01:41:01:16 01:41:03:21 
*FROM CLIP NAME:  51K11/02.SYNC.01 
*SOURCE FILE: 19Y08M02
008661  19Y08M02                         A8    C        21:22:34:07 21:22:36:12 01:41:01:16 01:41:03:21 
*FROM CLIP NAME:  51K11/02.SYNC.01 
*SOURCE FILE: 19Y08M02
008662  19Y08M02                         A9    C        21:22:34:07 21:22:36:12 01:41:01:16 01:41:03:21 
*FROM CLIP NAME:  51K11/02.SYNC.01 
*SOURCE FILE: 19Y08M02
008663  19Y08M02                         A10   C        21:22:34:07 21:22:36:12 01:41:01:16 01:41:03:21 
*FROM CLIP NAME:  51K11/02.SYNC.01 
*PATCH 19Y08M02:  FROM SOURCE 1 TO RECORD 10 
*SOURCE FILE: 19Y08M02
008664  19Y08M02                         A     C        19:26:00:03 19:26:00:13 01:41:03:21 01:41:04:06 
*FROM CLIP NAME:  51K2/05.SYNC.01 
*SOURCE FILE: 19Y08M02
008665  19Y08M02                         A2    C        19:26:00:03 19:26:00:13 01:41:03:21 01:41:04:06 
*FROM CLIP NAME:  51K2/05.SYNC.01 
*SOURCE FILE: 19Y08M02
008666  19Y08M02                         A3    C        19:26:00:03 19:26:00:13 01:41:03:21 01:41:04:06 
*FROM CLIP NAME:  51K2/05.SYNC.01 
*SOURCE FILE: 19Y08M02
008667  19Y08M02                         A4    C        19:26:00:03 19:26:00:13 01:41:03:21 01:41:04:06 
*FROM CLIP NAME:  51K2/05.SYNC.01 
*SOURCE FILE: 19Y08M02
008668  19Y08M02                         A5    C        19:26:00:03 19:26:00:13 01:41:03:21 01:41:04:06 
*FROM CLIP NAME:  51K2/05.SYNC.01 
*SOURCE FILE: 19Y08M02
008669  19Y08M02                         A6    C        19:26:00:03 19:26:00:13 01:41:03:21 01:41:04:06 
*FROM CLIP NAME:  51K2/05.SYNC.01 
*SOURCE FILE: 19Y08M02
008670  19Y08M02                         A7    C        19:26:00:03 19:26:00:13 01:41:03:21 01:41:04:06 
*FROM CLIP NAME:  51K2/05.SYNC.01 
*SOURCE FILE: 19Y08M02
008671  19Y08M02                         A8    C        19:26:00:03 19:26:00:13 01:41:03:21 01:41:04:06 
*FROM CLIP NAME:  51K2/05.SYNC.01 
*SOURCE FILE: 19Y08M02
008672  19Y08M02                         A9    C        19:26:00:03 19:26:00:13 01:41:03:21 01:41:04:06 
*FROM CLIP NAME:  51K2/05.SYNC.01 
*SOURCE FILE: 19Y08M02
008673  19Y08M02                         A10   C        19:26:00:03 19:26:00:13 01:41:03:21 01:41:04:06 
*FROM CLIP NAME:  51K2/05.SYNC.01 
*PATCH 19Y08M02:  FROM SOURCE 1 TO RECORD 10 
*SOURCE FILE: 19Y08M02
008674  MSMMMOB.40                       V     C        19:26:00:03 19:26:01:14 01:41:03:21 01:41:05:07 
M2      MSMMMOB.40                                025.0 19:26:00:03 
*FROM CLIP NAME:  A032C009_190802_R32C 
*SOURCE FILE: MSMMMOB.40
008675  19Y08M02                         A     C        21:22:37:10 21:22:38:00 01:41:04:06 01:41:04:21 
*FROM CLIP NAME:  51K11/02.SYNC.01 
*SOURCE FILE: 19Y08M02
008676  19Y08M02                         A2    C        21:22:37:10 21:22:38:00 01:41:04:06 01:41:04:21 
*FROM CLIP NAME:  51K11/02.SYNC.01 
*SOURCE FILE: 19Y08M02
008677  19Y08M02                         A3    C        21:22:37:10 21:22:38:00 01:41:04:06 01:41:04:21 
*FROM CLIP NAME:  51K11/02.SYNC.01 
*SOURCE FILE: 19Y08M02
008678  19Y08M02                         A4    C        21:22:37:10 21:22:38:00 01:41:04:06 01:41:04:21 
*FROM CLIP NAME:  51K11/02.SYNC.01 
*SOURCE FILE: 19Y08M02
008679  19Y08M02                         A5    C        21:22:37:10 21:22:38:00 01:41:04:06 01:41:04:21 
*FROM CLIP NAME:  51K11/02.SYNC.01 
*SOURCE FILE: 19Y08M02
008680  19Y08M02                         A6    C        21:22:37:10 21:22:38:00 01:41:04:06 01:41:04:21 
*FROM CLIP NAME:  51K11/02.SYNC.01 
*SOURCE FILE: 19Y08M02
008681  19Y08M02                         A7    C        21:22:37:10 21:22:38:00 01:41:04:06 01:41:04:21 
*FROM CLIP NAME:  51K11/02.SYNC.01 
*SOURCE FILE: 19Y08M02
008682  19Y08M02                         A8    C        21:22:37:10 21:22:38:00 01:41:04:06 01:41:04:21 
*FROM CLIP NAME:  51K11/02.SYNC.01 
*SOURCE FILE: 19Y08M02
008683  19Y08M02                         A9    C        21:22:37:10 21:22:38:00 01:41:04:06 01:41:04:21 
*FROM CLIP NAME:  51K11/02.SYNC.01 
*SOURCE FILE: 19Y08M02
008684  19Y08M02                         A10   C        21:22:37:10 21:22:38:00 01:41:04:06 01:41:04:21 
*FROM CLIP NAME:  51K11/02.SYNC.01 
*PATCH 19Y08M02:  FROM SOURCE 1 TO RECORD 10 
*SOURCE FILE: 19Y08M02
008685  19Y08M02                         A     C        19:26:01:03 19:26:01:14 01:41:04:21 01:41:05:07 
*FROM CLIP NAME:  51K2/05.SYNC.01 
*SOURCE FILE: 19Y08M02
008686  19Y08M02                         A2    C        19:26:01:03 19:26:01:14 01:41:04:21 01:41:05:07 
*FROM CLIP NAME:  51K2/05.SYNC.01 
*SOURCE FILE: 19Y08M02
008687  19Y08M02                         A3    C        19:26:01:03 19:26:01:14 01:41:04:21 01:41:05:07 
*FROM CLIP NAME:  51K2/05.SYNC.01 
*SOURCE FILE: 19Y08M02
008688  19Y08M02                         A4    C        19:26:01:03 19:26:01:14 01:41:04:21 01:41:05:07 
*FROM CLIP NAME:  51K2/05.SYNC.01 
*SOURCE FILE: 19Y08M02
008689  19Y08M02                         A5    C        19:26:01:03 19:26:01:14 01:41:04:21 01:41:05:07 
*FROM CLIP NAME:  51K2/05.SYNC.01 
*SOURCE FILE: 19Y08M02
008690  19Y08M02                         A6    C        19:26:01:03 19:26:01:14 01:41:04:21 01:41:05:07 
*FROM CLIP NAME:  51K2/05.SYNC.01 
*SOURCE FILE: 19Y08M02
008691  19Y08M02                         A7    C        19:26:01:03 19:26:01:14 01:41:04:21 01:41:05:07 
*FROM CLIP NAME:  51K2/05.SYNC.01 
*SOURCE FILE: 19Y08M02
008692  19Y08M02                         A8    C        19:26:01:03 19:26:01:14 01:41:04:21 01:41:05:07 
*FROM CLIP NAME:  51K2/05.SYNC.01 
*SOURCE FILE: 19Y08M02
008693  19Y08M02                         A9    C        19:26:01:03 19:26:01:14 01:41:04:21 01:41:05:07 
*FROM CLIP NAME:  51K2/05.SYNC.01 
*SOURCE FILE: 19Y08M02
008694  19Y08M02                         A10   C        19:26:01:03 19:26:01:14 01:41:04:21 01:41:05:07 
*FROM CLIP NAME:  51K2/05.SYNC.01 
*PATCH 19Y08M02:  FROM SOURCE 1 TO RECORD 10 
*SOURCE FILE: 19Y08M02
008695  MSMMMOB.28                       V     C        19:51:43:20 19:51:45:07 01:41:05:07 01:41:06:19 
M2      MSMMMOB.28                                025.0 19:51:43:20 
*FROM CLIP NAME:  A033C001_190802_R32C 
*SOURCE FILE: MSMMMOB.28
008696  19Y08M02                         A     C        19:51:43:20 19:51:45:07 01:41:05:07 01:41:06:19 
*FROM CLIP NAME:  51K4/02.SYNC.01 
*SOURCE FILE: 19Y08M02
008697  19Y08M02                         A2    C        19:51:43:20 19:51:45:07 01:41:05:07 01:41:06:19 
*FROM CLIP NAME:  51K4/02.SYNC.01 
*SOURCE FILE: 19Y08M02
008698  19Y08M02                         A3    C        19:51:43:20 19:51:45:07 01:41:05:07 01:41:06:19 
*FROM CLIP NAME:  51K4/02.SYNC.01 
*SOURCE FILE: 19Y08M02
008699  19Y08M02                         A4    C        19:51:43:20 19:51:45:07 01:41:05:07 01:41:06:19 
*FROM CLIP NAME:  51K4/02.SYNC.01 
*SOURCE FILE: 19Y08M02
008700  19Y08M02                         A5    C        19:51:43:20 19:51:45:07 01:41:05:07 01:41:06:19 
*FROM CLIP NAME:  51K4/02.SYNC.01 
*SOURCE FILE: 19Y08M02
008701  19Y08M02                         A6    C        19:51:43:20 19:51:45:07 01:41:05:07 01:41:06:19 
*FROM CLIP NAME:  51K4/02.SYNC.01 
*SOURCE FILE: 19Y08M02
008702  19Y08M02                         A7    C        19:51:43:20 19:51:45:07 01:41:05:07 01:41:06:19 
*FROM CLIP NAME:  51K4/02.SYNC.01 
*SOURCE FILE: 19Y08M02
008703  19Y08M02                         A8    C        19:51:43:20 19:51:45:07 01:41:05:07 01:41:06:19 
*FROM CLIP NAME:  51K4/02.SYNC.01 
*SOURCE FILE: 19Y08M02
008704  19Y08M02                         A9    C        19:51:43:20 19:51:45:07 01:41:05:07 01:41:06:19 
*FROM CLIP NAME:  51K4/02.SYNC.01 
*SOURCE FILE: 19Y08M02
008705  19Y08M02                         A10   C        19:51:43:20 19:51:45:07 01:41:05:07 01:41:06:19 
*FROM CLIP NAME:  51K4/02.SYNC.01 
*PATCH 19Y08M02:  FROM SOURCE 1 TO RECORD 10 
*SOURCE FILE: 19Y08M02
008706  MSMMMOB.12                       V     C        21:25:50:13 21:25:52:19 01:41:06:19 01:41:09:00 
M2      MSMMMOB.12                                025.0 21:25:50:13 
*FROM CLIP NAME:  A035C003_190802_R32C 
*SOURCE FILE: MSMMMOB.12
008707  19Y08M02                         A     C        21:25:50:13 21:25:56:22 01:41:06:19 01:41:13:03 
*FROM CLIP NAME:  51K11/03.SYNC.01 
*SOURCE FILE: 19Y08M02
008708  19Y08M02                         A2    C        21:25:50:13 21:25:56:22 01:41:06:19 01:41:13:03 
*FROM CLIP NAME:  51K11/03.SYNC.01 
*SOURCE FILE: 19Y08M02
008709  19Y08M02                         A3    C        21:25:50:13 21:25:56:22 01:41:06:19 01:41:13:03 
*FROM CLIP NAME:  51K11/03.SYNC.01 
*SOURCE FILE: 19Y08M02
008710  19Y08M02                         A4    C        21:25:50:13 21:25:56:22 01:41:06:19 01:41:13:03 
*FROM CLIP NAME:  51K11/03.SYNC.01 
*SOURCE FILE: 19Y08M02
008711  19Y08M02                         A5    C        21:25:50:13 21:25:56:22 01:41:06:19 01:41:13:03 
*FROM CLIP NAME:  51K11/03.SYNC.01 
*SOURCE FILE: 19Y08M02
008712  19Y08M02                         A6    C        21:25:50:13 21:25:56:22 01:41:06:19 01:41:13:03 
*FROM CLIP NAME:  51K11/03.SYNC.01 
*SOURCE FILE: 19Y08M02
008713  19Y08M02                         A7    C        21:25:50:13 21:25:56:22 01:41:06:19 01:41:13:03 
*FROM CLIP NAME:  51K11/03.SYNC.01 
*SOURCE FILE: 19Y08M02
008714  19Y08M02                         A8    C        21:25:50:13 21:25:56:22 01:41:06:19 01:41:13:03 
*FROM CLIP NAME:  51K11/03.SYNC.01 
*SOURCE FILE: 19Y08M02
008715  19Y08M02                         A9    C        21:25:50:13 21:25:56:22 01:41:06:19 01:41:13:03 
*FROM CLIP NAME:  51K11/03.SYNC.01 
*SOURCE FILE: 19Y08M02
008716  19Y08M02                         A10   C        21:25:50:13 21:25:56:22 01:41:06:19 01:41:13:03 
*FROM CLIP NAME:  51K11/03.SYNC.01 
*PATCH 19Y08M02:  FROM SOURCE 1 TO RECORD 10 
*SOURCE FILE: 19Y08M02
008717  BL                               V     C        00:00:00:00 00:00:02:05 01:41:09:00 01:41:11:05 
*SOURCE FILE: (NULL)
008718  MSMMMOB.27                       V     C        19:40:33:07 19:40:35:19 01:41:09:00 01:41:11:12 
M2      MSMMMOB.27                                025.0 19:40:33:07 
*FROM CLIP NAME:  A032C012_190802_R32C 
*SOURCE FILE: MSMMMOB.27
008719  BL                               V     C        00:00:00:00 00:00:32:11 01:41:11:05 01:41:43:16 
*SOURCE FILE: (NULL)
008720  MSMMMOB.12                       V     C        21:25:55:06 21:25:56:22 01:41:11:12 01:41:13:03 
M2      MSMMMOB.12                                025.0 21:25:55:06 
*FROM CLIP NAME:  A035C003_190802_R32C 
*SOURCE FILE: MSMMMOB.12
008721  MSMMMOB.27                       V     C        19:40:38:18 19:40:40:01 01:41:13:03 01:41:14:11 
M2      MSMMMOB.27                                025.0 19:40:38:18 
*FROM CLIP NAME:  A032C012_190802_R32C 
*SOURCE FILE: MSMMMOB.27
008722  19Y08M02                         A     C        19:40:38:18 19:40:40:01 01:41:13:03 01:41:14:11 
*FROM CLIP NAME:  51K3/03.SYNC.01 
*SOURCE FILE: 19Y08M02
008723  19Y08M02                         A2    C        19:40:38:18 19:40:40:01 01:41:13:03 01:41:14:11 
*FROM CLIP NAME:  51K3/03.SYNC.01 
*SOURCE FILE: 19Y08M02
008724  19Y08M02                         A3    C        19:40:38:18 19:40:40:01 01:41:13:03 01:41:14:11 
*FROM CLIP NAME:  51K3/03.SYNC.01 
*SOURCE FILE: 19Y08M02
008725  19Y08M02                         A4    C        19:40:38:18 19:40:40:01 01:41:13:03 01:41:14:11 
*FROM CLIP NAME:  51K3/03.SYNC.01 
*SOURCE FILE: 19Y08M02
008726  19Y08M02                         A5    C        19:40:38:18 19:40:40:01 01:41:13:03 01:41:14:11 
*FROM CLIP NAME:  51K3/03.SYNC.01 
*SOURCE FILE: 19Y08M02
008727  19Y08M02                         A6    C        19:40:38:18 19:40:40:01 01:41:13:03 01:41:14:11 
*FROM CLIP NAME:  51K3/03.SYNC.01 
*SOURCE FILE: 19Y08M02
008728  19Y08M02                         A7    C        19:40:38:18 19:40:40:01 01:41:13:03 01:41:14:11 
*FROM CLIP NAME:  51K3/03.SYNC.01 
*SOURCE FILE: 19Y08M02
008729  19Y08M02                         A8    C        19:40:38:18 19:40:40:01 01:41:13:03 01:41:14:11 
*FROM CLIP NAME:  51K3/03.SYNC.01 
*SOURCE FILE: 19Y08M02
008730  19Y08M02                         A9    C        19:40:38:18 19:40:40:01 01:41:13:03 01:41:14:11 
*FROM CLIP NAME:  51K3/03.SYNC.01 
*SOURCE FILE: 19Y08M02
008731  19Y08M02                         A10   C        19:40:38:18 19:40:40:01 01:41:13:03 01:41:14:11 
*FROM CLIP NAME:  51K3/03.SYNC.01 
*PATCH 19Y08M02:  FROM SOURCE 1 TO RECORD 10 
*SOURCE FILE: 19Y08M02
008732  MSMMMOB.12                       V     C        21:25:59:14 21:26:03:07 01:41:14:11 01:41:18:04 
M2      MSMMMOB.12                                025.0 21:25:59:14 
*FROM CLIP NAME:  A035C003_190802_R32C 
*SOURCE FILE: MSMMMOB.12
008733  19Y08M02                         A     C        21:25:59:14 21:26:04:12 01:41:14:11 01:41:19:09 
*FROM CLIP NAME:  51K11/03.SYNC.01 
*SOURCE FILE: 19Y08M02
008734  19Y08M02                         A2    C        21:25:59:14 21:26:04:12 01:41:14:11 01:41:19:09 
*FROM CLIP NAME:  51K11/03.SYNC.01 
*SOURCE FILE: 19Y08M02
008735  19Y08M02                         A3    C        21:25:59:14 21:26:04:12 01:41:14:11 01:41:19:09 
*FROM CLIP NAME:  51K11/03.SYNC.01 
*SOURCE FILE: 19Y08M02
008736  19Y08M02                         A4    C        21:25:59:14 21:26:04:12 01:41:14:11 01:41:19:09 
*FROM CLIP NAME:  51K11/03.SYNC.01 
*SOURCE FILE: 19Y08M02
008737  19Y08M02                         A5    C        21:25:59:14 21:26:04:12 01:41:14:11 01:41:19:09 
*FROM CLIP NAME:  51K11/03.SYNC.01 
*SOURCE FILE: 19Y08M02
008738  19Y08M02                         A6    C        21:25:59:14 21:26:04:12 01:41:14:11 01:41:19:09 
*FROM CLIP NAME:  51K11/03.SYNC.01 
*SOURCE FILE: 19Y08M02
008739  19Y08M02                         A7    C        21:25:59:14 21:26:04:12 01:41:14:11 01:41:19:09 
*FROM CLIP NAME:  51K11/03.SYNC.01 
*SOURCE FILE: 19Y08M02
008740  19Y08M02                         A8    C        21:25:59:14 21:26:04:12 01:41:14:11 01:41:19:09 
*FROM CLIP NAME:  51K11/03.SYNC.01 
*SOURCE FILE: 19Y08M02
008741  19Y08M02                         A9    C        21:25:59:14 21:26:04:12 01:41:14:11 01:41:19:09 
*FROM CLIP NAME:  51K11/03.SYNC.01 
*SOURCE FILE: 19Y08M02
008742  19Y08M02                         A10   C        21:25:59:14 21:26:04:12 01:41:14:11 01:41:19:09 
*FROM CLIP NAME:  51K11/03.SYNC.01 
*PATCH 19Y08M02:  FROM SOURCE 1 TO RECORD 10 
*SOURCE FILE: 19Y08M02
008743  MSMMMOB.27                       V     C        19:40:44:03 19:40:51:02 01:41:18:04 01:41:25:03 
M2      MSMMMOB.27                                025.0 19:40:44:03 
*FROM CLIP NAME:  A032C012_190802_R32C 
*SOURCE FILE: MSMMMOB.27
008744  19Y08M02                         A     C        19:40:45:08 19:40:49:24 01:41:19:09 01:41:24:00 
*FROM CLIP NAME:  51K3/03.SYNC.01 
*SOURCE FILE: 19Y08M02
008745  19Y08M02                         A2    C        19:40:45:08 19:40:49:24 01:41:19:09 01:41:24:00 
*FROM CLIP NAME:  51K3/03.SYNC.01 
*SOURCE FILE: 19Y08M02
008746  19Y08M02                         A3    C        19:40:45:08 19:40:49:24 01:41:19:09 01:41:24:00 
*FROM CLIP NAME:  51K3/03.SYNC.01 
*SOURCE FILE: 19Y08M02
008747  19Y08M02                         A4    C        19:40:45:08 19:40:49:24 01:41:19:09 01:41:24:00 
*FROM CLIP NAME:  51K3/03.SYNC.01 
*SOURCE FILE: 19Y08M02
008748  19Y08M02                         A5    C        19:40:45:08 19:40:49:24 01:41:19:09 01:41:24:00 
*FROM CLIP NAME:  51K3/03.SYNC.01 
*SOURCE FILE: 19Y08M02
008749  19Y08M02                         A6    C        19:40:45:08 19:40:49:24 01:41:19:09 01:41:24:00 
*FROM CLIP NAME:  51K3/03.SYNC.01 
*SOURCE FILE: 19Y08M02
008750  19Y08M02                         A7    C        19:40:45:08 19:40:49:24 01:41:19:09 01:41:24:00 
*FROM CLIP NAME:  51K3/03.SYNC.01 
*SOURCE FILE: 19Y08M02
008751  19Y08M02                         A8    C        19:40:45:08 19:40:49:24 01:41:19:09 01:41:24:00 
*FROM CLIP NAME:  51K3/03.SYNC.01 
*SOURCE FILE: 19Y08M02
008752  19Y08M02                         A9    C        19:40:45:08 19:40:49:24 01:41:19:09 01:41:24:00 
*FROM CLIP NAME:  51K3/03.SYNC.01 
*SOURCE FILE: 19Y08M02
008753  19Y08M02                         A10   C        19:40:45:08 19:40:49:24 01:41:19:09 01:41:24:00 
*FROM CLIP NAME:  51K3/03.SYNC.01 
*PATCH 19Y08M02:  FROM SOURCE 1 TO RECORD 10 
*SOURCE FILE: 19Y08M02
008754  19Y08M02                         A     C        20:22:36:20 20:22:39:17 01:41:24:00 01:41:26:22 
*FROM CLIP NAME:  51K7/02.SYNC.01 
*SOURCE FILE: 19Y08M02
008755  19Y08M02                         A2    C        20:22:36:20 20:22:39:17 01:41:24:00 01:41:26:22 
*FROM CLIP NAME:  51K7/02.SYNC.01 
*SOURCE FILE: 19Y08M02
008756  19Y08M02                         A3    C        20:22:36:20 20:22:39:17 01:41:24:00 01:41:26:22 
*FROM CLIP NAME:  51K7/02.SYNC.01 
*SOURCE FILE: 19Y08M02
008757  19Y08M02                         A4    C        20:22:36:20 20:22:39:17 01:41:24:00 01:41:26:22 
*FROM CLIP NAME:  51K7/02.SYNC.01 
*SOURCE FILE: 19Y08M02
008758  19Y08M02                         A5    C        20:22:36:20 20:22:39:17 01:41:24:00 01:41:26:22 
*FROM CLIP NAME:  51K7/02.SYNC.01 
*SOURCE FILE: 19Y08M02
008759  19Y08M02                         A6    C        20:22:36:20 20:22:39:17 01:41:24:00 01:41:26:22 
*FROM CLIP NAME:  51K7/02.SYNC.01 
*SOURCE FILE: 19Y08M02
008760  19Y08M02                         A7    C        20:22:36:20 20:22:39:17 01:41:24:00 01:41:26:22 
*FROM CLIP NAME:  51K7/02.SYNC.01 
*SOURCE FILE: 19Y08M02
008761  19Y08M02                         A8    C        20:22:36:20 20:22:39:17 01:41:24:00 01:41:26:22 
*FROM CLIP NAME:  51K7/02.SYNC.01 
*SOURCE FILE: 19Y08M02
008762  19Y08M02                         A9    C        20:22:36:20 20:22:39:17 01:41:24:00 01:41:26:22 
*FROM CLIP NAME:  51K7/02.SYNC.01 
*SOURCE FILE: 19Y08M02
008763  19Y08M02                         A10   C        20:22:36:20 20:22:39:17 01:41:24:00 01:41:26:22 
*FROM CLIP NAME:  51K7/02.SYNC.01 
*PATCH 19Y08M02:  FROM SOURCE 1 TO RECORD 10 
*SOURCE FILE: 19Y08M02
008764  MSMMMOB.44                       V     C        20:22:37:23 20:22:39:17 01:41:25:03 01:41:26:22 
M2      MSMMMOB.44                                025.0 20:22:37:23 
*FROM CLIP NAME:  A033C007_190802_R32C 
*SOURCE FILE: MSMMMOB.44
008765  MSMMMOB.34                       V     C        20:04:08:15 20:04:10:16 01:41:26:22 01:41:28:23 
M2      MSMMMOB.34                                025.0 20:04:08:15 
*FROM CLIP NAME:  A033C004_190802_R32C 
*SOURCE FILE: MSMMMOB.34
008766  19Y08M02                         A     C        20:04:08:15 20:04:11:08 01:41:26:22 01:41:29:15 
*FROM CLIP NAME:  51K5/03.SYNC.01 
*SOURCE FILE: 19Y08M02
008767  19Y08M02                         A2    C        20:04:08:15 20:04:11:08 01:41:26:22 01:41:29:15 
*FROM CLIP NAME:  51K5/03.SYNC.01 
*SOURCE FILE: 19Y08M02
008768  19Y08M02                         A3    C        20:04:08:15 20:04:11:08 01:41:26:22 01:41:29:15 
*FROM CLIP NAME:  51K5/03.SYNC.01 
*SOURCE FILE: 19Y08M02
008769  19Y08M02                         A4    C        20:04:08:15 20:04:11:08 01:41:26:22 01:41:29:15 
*FROM CLIP NAME:  51K5/03.SYNC.01 
*SOURCE FILE: 19Y08M02
008770  19Y08M02                         A5    C        20:04:08:15 20:04:11:08 01:41:26:22 01:41:29:15 
*FROM CLIP NAME:  51K5/03.SYNC.01 
*SOURCE FILE: 19Y08M02
008771  19Y08M02                         A6    C        20:04:08:15 20:04:11:08 01:41:26:22 01:41:29:15 
*FROM CLIP NAME:  51K5/03.SYNC.01 
*SOURCE FILE: 19Y08M02
008772  19Y08M02                         A7    C        20:04:08:15 20:04:11:08 01:41:26:22 01:41:29:15 
*FROM CLIP NAME:  51K5/03.SYNC.01 
*SOURCE FILE: 19Y08M02
008773  19Y08M02                         A8    C        20:04:08:15 20:04:11:08 01:41:26:22 01:41:29:15 
*FROM CLIP NAME:  51K5/03.SYNC.01 
*SOURCE FILE: 19Y08M02
008774  19Y08M02                         A9    C        20:04:08:15 20:04:11:08 01:41:26:22 01:41:29:15 
*FROM CLIP NAME:  51K5/03.SYNC.01 
*SOURCE FILE: 19Y08M02
008775  19Y08M02                         A10   C        20:04:08:15 20:04:11:08 01:41:26:22 01:41:29:15 
*FROM CLIP NAME:  51K5/03.SYNC.01 
*PATCH 19Y08M02:  FROM SOURCE 1 TO RECORD 10 
*SOURCE FILE: 19Y08M02
008776  MSMMMOB.44                       V     C        20:22:42:12 20:22:47:15 01:41:28:23 01:41:34:01 
M2      MSMMMOB.44                                025.0 20:22:42:12 
*FROM CLIP NAME:  A033C007_190802_R32C 
*SOURCE FILE: MSMMMOB.44
008777  19Y08M02                         A     C        20:22:43:04 20:22:47:15 01:41:29:15 01:41:34:01 
*FROM CLIP NAME:  51K7/02.SYNC.01 
*SOURCE FILE: 19Y08M02
008778  19Y08M02                         A2    C        20:22:43:04 20:22:47:15 01:41:29:15 01:41:34:01 
*FROM CLIP NAME:  51K7/02.SYNC.01 
*SOURCE FILE: 19Y08M02
008779  19Y08M02                         A3    C        20:22:43:04 20:22:47:15 01:41:29:15 01:41:34:01 
*FROM CLIP NAME:  51K7/02.SYNC.01 
*SOURCE FILE: 19Y08M02
008780  19Y08M02                         A4    C        20:22:43:04 20:22:47:15 01:41:29:15 01:41:34:01 
*FROM CLIP NAME:  51K7/02.SYNC.01 
*SOURCE FILE: 19Y08M02
008781  19Y08M02                         A5    C        20:22:43:04 20:22:47:15 01:41:29:15 01:41:34:01 
*FROM CLIP NAME:  51K7/02.SYNC.01 
*SOURCE FILE: 19Y08M02
008782  19Y08M02                         A6    C        20:22:43:04 20:22:47:15 01:41:29:15 01:41:34:01 
*FROM CLIP NAME:  51K7/02.SYNC.01 
*SOURCE FILE: 19Y08M02
008783  19Y08M02                         A7    C        20:22:43:04 20:22:47:15 01:41:29:15 01:41:34:01 
*FROM CLIP NAME:  51K7/02.SYNC.01 
*SOURCE FILE: 19Y08M02
008784  19Y08M02                         A8    C        20:22:43:04 20:22:47:15 01:41:29:15 01:41:34:01 
*FROM CLIP NAME:  51K7/02.SYNC.01 
*SOURCE FILE: 19Y08M02
008785  19Y08M02                         A9    C        20:22:43:04 20:22:47:15 01:41:29:15 01:41:34:01 
*FROM CLIP NAME:  51K7/02.SYNC.01 
*SOURCE FILE: 19Y08M02
008786  19Y08M02                         A10   C        20:22:43:04 20:22:47:15 01:41:29:15 01:41:34:01 
*FROM CLIP NAME:  51K7/02.SYNC.01 
*PATCH 19Y08M02:  FROM SOURCE 1 TO RECORD 10 
*SOURCE FILE: 19Y08M02
008787  ?????_??????_-_??_????????.MP3   A17   C        01:00:00:00 01:00:03:09 01:41:30:05 01:41:33:14 
*FROM CLIP NAME:  YRGANT.MP3 
*A17 VOL = -16.0 DB  PAN L100 
*PATCH ?????_??????_-_??_????????.MP3:  FROM SOURCE 1 TO RECORD 17 
*SOURCE FILE: ????? ?????? - ?? ????????.MP3
008788  ?????_??????_-_??_????????.MP3   A18   C        01:00:00:00 01:00:03:09 01:41:30:05 01:41:33:14 
*FROM CLIP NAME:  YRGANT.MP3 
*A18 VOL = -16.0 DB  PAN R100 
*PATCH ?????_??????_-_??_????????.MP3:  FROM SOURCE 2 TO RECORD 18 
*SOURCE FILE: ????? ?????? - ?? ????????.MP3
008789  ?????_??????_-_??_????????.MP3   A17   C        01:00:03:09 01:00:03:09 01:41:33:14 01:41:33:14 
008789  ?????_??????_-_??_????????.MP3   A17   D    025 01:00:03:09 01:00:04:09 01:41:33:14 01:41:34:14 
*FROM CLIP NAME:  YRGANT.MP3 
*TO CLIP NAME:  YRGANT.MP3 
*A17 VOL = -16.0 DB  PAN L100 
*A17 VOL =  -9.0 DB  PAN L100 
*PATCH ?????_??????_-_??_????????.MP3:  FROM SOURCE 1 TO RECORD 17 
*PATCH ?????_??????_-_??_????????.MP3:  FROM SOURCE 1 TO RECORD 17 
*SOURCE FILE: ????? ?????? - ?? ????????.MP3
008790  ?????_??????_-_??_????????.MP3   A18   C        01:00:03:09 01:00:03:09 01:41:33:14 01:41:33:14 
008790  ?????_??????_-_??_????????.MP3   A18   D    025 01:00:03:09 01:00:04:09 01:41:33:14 01:41:34:14 
*FROM CLIP NAME:  YRGANT.MP3 
*TO CLIP NAME:  YRGANT.MP3 
*A18 VOL = -16.0 DB  PAN R100 
*A18 VOL =  -9.0 DB  PAN R100 
*PATCH ?????_??????_-_??_????????.MP3:  FROM SOURCE 2 TO RECORD 18 
*PATCH ?????_??????_-_??_????????.MP3:  FROM SOURCE 2 TO RECORD 18 
*SOURCE FILE: ????? ?????? - ?? ????????.MP3
008791  MSMMMOB.61                       V     C        14:05:31:05 14:05:40:20 01:41:34:01 01:41:43:16 
M2      MSMMMOB.61                                025.0 14:05:31:05 
*FROM CLIP NAME:  A026C009_190801_R32C 
*SOURCE FILE: MSMMMOB.61
008792  19Y08M01                         A     C        14:05:31:05 14:05:40:20 01:41:34:01 01:41:43:16 
*FROM CLIP NAME:  52K1/04 
*SOURCE FILE: 19Y08M01
008793  19Y08M01                         A2    C        14:05:31:05 14:05:40:20 01:41:34:01 01:41:43:16 
*FROM CLIP NAME:  52K1/04 
*SOURCE FILE: 19Y08M01
008794  19Y08M01                         A3    C        14:05:31:05 14:05:40:20 01:41:34:01 01:41:43:16 
*FROM CLIP NAME:  52K1/04 
*SOURCE FILE: 19Y08M01
008795  19Y08M01                         A4    C        14:05:31:05 14:05:40:20 01:41:34:01 01:41:43:16 
*FROM CLIP NAME:  52K1/04 
*SOURCE FILE: 19Y08M01
008796  MSMMMOB.61                       A5    C        14:05:31:05 14:05:40:20 01:41:34:01 01:41:43:16 
*FROM CLIP NAME:  A026C009_190801_R32C 
*SOURCE FILE: MSMMMOB.61
008797  19Y08M01                         A6    C        14:05:31:05 14:05:40:20 01:41:34:01 01:41:43:16 
*FROM CLIP NAME:  52K1/04 
*PATCH 19Y08M01:  FROM SOURCE 8 TO RECORD 6 
*SOURCE FILE: 19Y08M01
008798  ?????_??????_-_??_????????.MP3   A17   C        01:00:04:09 01:01:10:07 01:41:34:14 01:42:40:12 
*FROM CLIP NAME:  YRGANT.MP3 
*A17 VOL =  -9.0 DB  PAN L100 
*PATCH ?????_??????_-_??_????????.MP3:  FROM SOURCE 1 TO RECORD 17 
*SOURCE FILE: ????? ?????? - ?? ????????.MP3
008799  ?????_??????_-_??_????????.MP3   A18   C        01:00:04:09 01:01:10:07 01:41:34:14 01:42:40:12 
*FROM CLIP NAME:  YRGANT.MP3 
*A18 VOL =  -9.0 DB  PAN R100 
*PATCH ?????_??????_-_??_????????.MP3:  FROM SOURCE 2 TO RECORD 18 
*SOURCE FILE: ????? ?????? - ?? ????????.MP3
008800  BL                               V     C        00:00:00:00 00:00:08:11 01:41:43:16 01:41:52:02 
*SOURCE FILE: (NULL)
008802  MSMMMOB.51                       V     C        11:48:51:05 11:49:01:00 01:41:43:16 01:41:53:11 
M2      MSMMMOB.51                                025.0 11:48:51:05 
*FROM CLIP NAME:  B011C013_190811_R481 
*SOURCE FILE: MSMMMOB.51
008801  TITLE.01                         V     C        01:00:23:22 01:00:33:17 01:41:43:16 01:41:53:11 
*FROM CLIP NAME:  TITLE.01 
*SOURCE FILE: TITLE.01
008803  19Y08M11                         A     C        11:48:50:03 11:48:59:23 01:41:43:16 01:41:53:11 
*FROM CLIP NAME:  53K1/03 
*SOURCE FILE: 19Y08M11
008804  MSMMMOB.51                       A2    C        11:48:51:05 11:49:01:00 01:41:43:16 01:41:53:11 
*FROM CLIP NAME:  B011C013_190811_R481 
*SOURCE FILE: MSMMMOB.51
008805  BL                               V     C        00:00:00:00 00:00:14:23 01:41:52:02 01:42:07:00 
*SOURCE FILE: (NULL)
008806  B007C006_190726_R4CP             V     C        23:03:43:11 23:03:45:20 01:41:53:11 01:41:55:20 
*FROM CLIP NAME:  B007C006_190726_R4CP.NEW.01 
*SOURCE FILE: B007C006_190726_R4CP
008807  19Y07M26                         A     C        23:03:43:11 23:03:45:20 01:41:53:11 01:41:55:20 
*FROM CLIP NAME:  62K1/02 
*SOURCE FILE: 19Y07M26
008808  19Y07M26                         A2    C        23:03:43:11 23:03:45:20 01:41:53:11 01:41:55:20 
*FROM CLIP NAME:  62K1/02 
*SOURCE FILE: 19Y07M26
008809  19Y07M26                         A3    C        23:03:43:11 23:03:45:20 01:41:53:11 01:41:55:20 
*FROM CLIP NAME:  62K1/02 
*SOURCE FILE: 19Y07M26
008810  19Y07M26                         A4    C        23:03:43:11 23:03:45:20 01:41:53:11 01:41:55:20 
*FROM CLIP NAME:  62K1/02 
*SOURCE FILE: 19Y07M26
008811  19Y07M26                         A5    C        23:03:43:11 23:03:45:20 01:41:53:11 01:41:55:20 
*FROM CLIP NAME:  62K1/02 
*SOURCE FILE: 19Y07M26
008812  BL                               V     C        00:00:00:00 00:00:19:13 01:41:53:11 01:42:12:24 
*SOURCE FILE: (NULL)
008813  B007C007_190726_R4CP             V     C        23:11:29:17 23:11:30:09 01:41:55:20 01:41:56:12 
*FROM CLIP NAME:  B007C007_190726_R4CP.NEW.01 
*SOURCE FILE: B007C007_190726_R4CP
008814  19Y07M26                         A     C        23:11:29:17 23:11:30:09 01:41:55:20 01:41:56:12 
*FROM CLIP NAME:  62K2/01 
*SOURCE FILE: 19Y07M26
008815  19Y07M26                         A2    C        23:11:29:17 23:11:30:09 01:41:55:20 01:41:56:12 
*FROM CLIP NAME:  62K2/01 
*SOURCE FILE: 19Y07M26
008816  19Y07M26                         A3    C        23:11:29:17 23:11:30:09 01:41:55:20 01:41:56:12 
*FROM CLIP NAME:  62K2/01 
*SOURCE FILE: 19Y07M26
008817  19Y07M26                         A4    C        23:11:29:17 23:11:30:09 01:41:55:20 01:41:56:12 
*FROM CLIP NAME:  62K2/01 
*SOURCE FILE: 19Y07M26
008818  19Y07M26                         A5    C        23:11:29:17 23:11:30:09 01:41:55:20 01:41:56:12 
*FROM CLIP NAME:  62K2/01 
*SOURCE FILE: 19Y07M26
008819  B007C007_190726_R4CP             V     C        23:11:34:08 23:11:35:10 01:41:56:12 01:41:57:14 
*FROM CLIP NAME:  B007C007_190726_R4CP.NEW.01 
*SOURCE FILE: B007C007_190726_R4CP
008820  19Y07M26                         A     C        23:11:34:08 23:11:35:10 01:41:56:12 01:41:57:14 
*FROM CLIP NAME:  62K2/01 
*SOURCE FILE: 19Y07M26
008821  19Y07M26                         A2    C        23:11:34:08 23:11:35:10 01:41:56:12 01:41:57:14 
*FROM CLIP NAME:  62K2/01 
*SOURCE FILE: 19Y07M26
008822  19Y07M26                         A3    C        23:11:34:08 23:11:35:10 01:41:56:12 01:41:57:14 
*FROM CLIP NAME:  62K2/01 
*SOURCE FILE: 19Y07M26
008823  19Y07M26                         A4    C        23:11:34:08 23:11:35:10 01:41:56:12 01:41:57:14 
*FROM CLIP NAME:  62K2/01 
*SOURCE FILE: 19Y07M26
008824  19Y07M26                         A5    C        23:11:34:08 23:11:35:10 01:41:56:12 01:41:57:14 
*FROM CLIP NAME:  62K2/01 
*SOURCE FILE: 19Y07M26
008825  B007C007_190726_R4CP             V     C        23:11:40:19 23:11:42:05 01:41:57:14 01:41:59:00 
*FROM CLIP NAME:  B007C007_190726_R4CP.NEW.01 
*SOURCE FILE: B007C007_190726_R4CP
008826  19Y07M26                         A     C        23:11:40:19 23:11:42:05 01:41:57:14 01:41:59:00 
*FROM CLIP NAME:  62K2/01 
*SOURCE FILE: 19Y07M26
008827  19Y07M26                         A2    C        23:11:40:19 23:11:42:05 01:41:57:14 01:41:59:00 
*FROM CLIP NAME:  62K2/01 
*SOURCE FILE: 19Y07M26
008828  19Y07M26                         A3    C        23:11:40:19 23:11:42:05 01:41:57:14 01:41:59:00 
*FROM CLIP NAME:  62K2/01 
*SOURCE FILE: 19Y07M26
008829  19Y07M26                         A4    C        23:11:40:19 23:11:42:05 01:41:57:14 01:41:59:00 
*FROM CLIP NAME:  62K2/01 
*SOURCE FILE: 19Y07M26
008830  19Y07M26                         A5    C        23:11:40:19 23:11:42:05 01:41:57:14 01:41:59:00 
*FROM CLIP NAME:  62K2/01 
*SOURCE FILE: 19Y07M26
008831  19Y07M26                         A     C        23:04:08:07 23:04:09:13 01:41:59:00 01:42:00:06 
*FROM CLIP NAME:  62K1/02 
*SOURCE FILE: 19Y07M26
008832  19Y07M26                         A2    C        23:04:08:07 23:04:09:13 01:41:59:00 01:42:00:06 
*FROM CLIP NAME:  62K1/02 
*SOURCE FILE: 19Y07M26
008833  19Y07M26                         A3    C        23:04:08:07 23:04:09:13 01:41:59:00 01:42:00:06 
*FROM CLIP NAME:  62K1/02 
*SOURCE FILE: 19Y07M26
008834  19Y07M26                         A4    C        23:04:08:07 23:04:09:13 01:41:59:00 01:42:00:06 
*FROM CLIP NAME:  62K1/02 
*SOURCE FILE: 19Y07M26
008835  19Y07M26                         A5    C        23:04:08:07 23:04:09:13 01:41:59:00 01:42:00:06 
*FROM CLIP NAME:  62K1/02 
*SOURCE FILE: 19Y07M26
008836  B007C006_190726_R4CP             V     C        23:04:08:07 23:04:09:19 01:41:59:00 01:42:00:12 
*FROM CLIP NAME:  B007C006_190726_R4CP.NEW.01 
*SOURCE FILE: B007C006_190726_R4CP
008837  19Y07M26                         A     C        23:38:01:24 23:38:03:05 01:42:00:06 01:42:01:12 
*FROM CLIP NAME:  62K4/01 
*SOURCE FILE: 19Y07M26
008838  19Y07M26                         A2    C        23:38:01:24 23:38:03:05 01:42:00:06 01:42:01:12 
*FROM CLIP NAME:  62K4/01 
*SOURCE FILE: 19Y07M26
008839  19Y07M26                         A3    C        23:38:01:24 23:38:03:05 01:42:00:06 01:42:01:12 
*FROM CLIP NAME:  62K4/01 
*SOURCE FILE: 19Y07M26
008840  19Y07M26                         A4    C        23:38:01:24 23:38:03:05 01:42:00:06 01:42:01:12 
*FROM CLIP NAME:  62K4/01 
*SOURCE FILE: 19Y07M26
008841  B007C010_190726_R4CP             V     C        23:38:02:05 23:38:03:05 01:42:00:12 01:42:01:12 
*FROM CLIP NAME:  B007C010_190726_R4CP.NEW.01 
*SOURCE FILE: B007C010_190726_R4CP
008842  B007C007_190726_R4CP             V     C        23:11:53:10 23:11:55:02 01:42:01:12 01:42:03:04 
*FROM CLIP NAME:  B007C007_190726_R4CP.NEW.01 
*SOURCE FILE: B007C007_190726_R4CP
008843  19Y07M26                         A     C        23:11:53:10 23:11:55:02 01:42:01:12 01:42:03:04 
*FROM CLIP NAME:  62K2/01 
*SOURCE FILE: 19Y07M26
008844  19Y07M26                         A2    C        23:11:53:10 23:11:55:02 01:42:01:12 01:42:03:04 
*FROM CLIP NAME:  62K2/01 
*SOURCE FILE: 19Y07M26
008845  19Y07M26                         A3    C        23:11:53:10 23:11:55:02 01:42:01:12 01:42:03:04 
*FROM CLIP NAME:  62K2/01 
*SOURCE FILE: 19Y07M26
008846  19Y07M26                         A4    C        23:11:53:10 23:11:55:02 01:42:01:12 01:42:03:04 
*FROM CLIP NAME:  62K2/01 
*SOURCE FILE: 19Y07M26
008847  19Y07M26                         A5    C        23:11:53:10 23:11:55:02 01:42:01:12 01:42:03:04 
*FROM CLIP NAME:  62K2/01 
*SOURCE FILE: 19Y07M26
008848  19Y07M26                         A     C        23:04:24:03 23:04:24:05 01:42:03:04 01:42:03:06 
*FROM CLIP NAME:  62K1/02 
*SOURCE FILE: 19Y07M26
008849  19Y07M26                         A2    C        23:04:24:03 23:04:24:05 01:42:03:04 01:42:03:06 
*FROM CLIP NAME:  62K1/02 
*SOURCE FILE: 19Y07M26
008850  19Y07M26                         A3    C        23:04:24:03 23:04:24:05 01:42:03:04 01:42:03:06 
*FROM CLIP NAME:  62K1/02 
*SOURCE FILE: 19Y07M26
008851  19Y07M26                         A4    C        23:04:24:03 23:04:24:05 01:42:03:04 01:42:03:06 
*FROM CLIP NAME:  62K1/02 
*SOURCE FILE: 19Y07M26
008852  19Y07M26                         A5    C        23:04:24:03 23:04:24:05 01:42:03:04 01:42:03:06 
*FROM CLIP NAME:  62K1/02 
*SOURCE FILE: 19Y07M26
008853  B007C011_190726_R4CP             V     C        23:39:11:05 23:39:12:02 01:42:03:04 01:42:04:01 
*FROM CLIP NAME:  B007C011_190726_R4CP.NEW.01 
*SOURCE FILE: B007C011_190726_R4CP
008854  19Y07M26                         A     C        23:39:11:07 23:39:12:02 01:42:03:06 01:42:04:01 
*FROM CLIP NAME:  62K5/01 
*SOURCE FILE: 19Y07M26
008855  19Y07M26                         A2    C        23:39:11:07 23:39:12:02 01:42:03:06 01:42:04:01 
*FROM CLIP NAME:  62K5/01 
*SOURCE FILE: 19Y07M26
008856  19Y07M26                         A3    C        23:39:11:07 23:39:12:02 01:42:03:06 01:42:04:01 
*FROM CLIP NAME:  62K5/01 
*SOURCE FILE: 19Y07M26
008857  19Y07M26                         A4    C        23:39:11:07 23:39:12:02 01:42:03:06 01:42:04:01 
*FROM CLIP NAME:  62K5/01 
*SOURCE FILE: 19Y07M26
008858  B007C006_190726_R4CP             V     C        23:04:37:14 23:04:39:04 01:42:04:01 01:42:05:16 
*FROM CLIP NAME:  B007C006_190726_R4CP.NEW.01 
*SOURCE FILE: B007C006_190726_R4CP
008859  19Y07M26                         A     C        23:12:20:02 23:12:21:17 01:42:04:01 01:42:05:16 
*FROM CLIP NAME:  62K2/01 
*PATCH 19Y07M26:  FROM SOURCE 4 TO RECORD 1 
*SOURCE FILE: 19Y07M26
008860  19Y07M26                         A2    C        23:12:20:02 23:12:21:17 01:42:04:01 01:42:05:16 
*FROM CLIP NAME:  62K2/01 
*PATCH 19Y07M26:  FROM SOURCE 1 TO RECORD 2 
*SOURCE FILE: 19Y07M26
008861  19Y07M26                         A3    C        23:12:20:02 23:12:21:17 01:42:04:01 01:42:05:16 
*FROM CLIP NAME:  62K2/01 
*PATCH 19Y07M26:  FROM SOURCE 2 TO RECORD 3 
*SOURCE FILE: 19Y07M26
008862  19Y07M26                         A4    C        23:12:20:02 23:12:21:17 01:42:04:01 01:42:05:16 
*FROM CLIP NAME:  62K2/01 
*PATCH 19Y07M26:  FROM SOURCE 5 TO RECORD 4 
*SOURCE FILE: 19Y07M26
008863  19Y07M26                         A5    C        23:12:20:02 23:12:21:17 01:42:04:01 01:42:05:16 
*FROM CLIP NAME:  62K2/01 
*PATCH 19Y07M26:  FROM SOURCE 3 TO RECORD 5 
*SOURCE FILE: 19Y07M26
008864  19Y07M26                         A     C        23:12:25:07 23:12:25:21 01:42:05:16 01:42:06:05 
*FROM CLIP NAME:  62K2/01 
*PATCH 19Y07M26:  FROM SOURCE 4 TO RECORD 1 
*SOURCE FILE: 19Y07M26
008865  19Y07M26                         A2    C        23:12:25:07 23:12:25:21 01:42:05:16 01:42:06:05 
*FROM CLIP NAME:  62K2/01 
*PATCH 19Y07M26:  FROM SOURCE 1 TO RECORD 2 
*SOURCE FILE: 19Y07M26
008866  19Y07M26                         A3    C        23:12:25:07 23:12:25:21 01:42:05:16 01:42:06:05 
*FROM CLIP NAME:  62K2/01 
*PATCH 19Y07M26:  FROM SOURCE 2 TO RECORD 3 
*SOURCE FILE: 19Y07M26
008867  19Y07M26                         A4    C        23:12:25:07 23:12:25:21 01:42:05:16 01:42:06:05 
*FROM CLIP NAME:  62K2/01 
*PATCH 19Y07M26:  FROM SOURCE 5 TO RECORD 4 
*SOURCE FILE: 19Y07M26
008868  19Y07M26                         A5    C        23:12:25:07 23:12:25:21 01:42:05:16 01:42:06:05 
*FROM CLIP NAME:  62K2/01 
*PATCH 19Y07M26:  FROM SOURCE 3 TO RECORD 5 
*SOURCE FILE: 19Y07M26
008869  B007C007_190726_R4CP             V     C        23:12:25:07 23:12:26:16 01:42:05:16 01:42:07:00 
*FROM CLIP NAME:  B007C007_190726_R4CP.NEW.01 
*SOURCE FILE: B007C007_190726_R4CP
008870  19Y07M26                         A     C        23:40:00:11 23:40:03:06 01:42:06:05 01:42:09:00 
*FROM CLIP NAME:  62K6/01 
*SOURCE FILE: 19Y07M26
008871  19Y07M26                         A2    C        23:40:00:11 23:40:03:06 01:42:06:05 01:42:09:00 
*FROM CLIP NAME:  62K6/01 
*SOURCE FILE: 19Y07M26
008872  19Y07M26                         A3    C        23:40:00:11 23:40:03:06 01:42:06:05 01:42:09:00 
*FROM CLIP NAME:  62K6/01 
*SOURCE FILE: 19Y07M26
008873  19Y07M26                         A4    C        23:40:00:11 23:40:03:06 01:42:06:05 01:42:09:00 
*FROM CLIP NAME:  62K6/01 
*SOURCE FILE: 19Y07M26
008874  BL                               V     C        00:00:00:00 00:00:02:00 01:42:07:00 01:42:09:00 
*SOURCE FILE: (NULL)
008875  B007C012_190726_R4CP             V     C        23:40:01:06 23:40:03:06 01:42:07:00 01:42:09:00 
*FROM CLIP NAME:  B007C012_190726_R4CP.NEW.01 
*SOURCE FILE: B007C012_190726_R4CP
008876  B007C009_190726_R4CP             V     C        23:30:32:12 23:30:34:02 01:42:09:00 01:42:10:15 
*FROM CLIP NAME:  B007C009_190726_R4CP.NEW.01 
*SOURCE FILE: B007C009_190726_R4CP
008877  19Y07M26                         A     C        23:30:32:12 23:30:34:02 01:42:09:00 01:42:10:15 
*FROM CLIP NAME:  62K3/02 
*SOURCE FILE: 19Y07M26
008878  19Y07M26                         A2    C        23:30:32:12 23:30:34:02 01:42:09:00 01:42:10:15 
*FROM CLIP NAME:  62K3/02 
*SOURCE FILE: 19Y07M26
008879  19Y07M26                         A3    C        23:30:32:12 23:30:34:02 01:42:09:00 01:42:10:15 
*FROM CLIP NAME:  62K3/02 
*SOURCE FILE: 19Y07M26
008880  19Y07M26                         A4    C        23:30:32:12 23:30:34:02 01:42:09:00 01:42:10:15 
*FROM CLIP NAME:  62K3/02 
*SOURCE FILE: 19Y07M26
008881  BL                               V     C        00:00:00:00 00:00:06:09 01:42:09:00 01:42:15:09 
*SOURCE FILE: (NULL)
008882  B007C013_190726_R4CP             V     C        23:50:00:22 23:50:03:06 01:42:10:15 01:42:12:24 
*FROM CLIP NAME:  B007C013_190726_R4CP.NEW.01 
*SOURCE FILE: B007C013_190726_R4CP
008883  19Y07M26                         A     C        23:50:00:22 23:50:03:06 01:42:10:15 01:42:12:24 
*FROM CLIP NAME:  62K7/01 
*SOURCE FILE: 19Y07M26
008884  19Y07M26                         A2    C        23:50:00:22 23:50:03:06 01:42:10:15 01:42:12:24 
*FROM CLIP NAME:  62K7/01 
*SOURCE FILE: 19Y07M26
008885  19Y07M26                         A3    C        23:50:00:22 23:50:03:06 01:42:10:15 01:42:12:24 
*FROM CLIP NAME:  62K7/01 
*SOURCE FILE: 19Y07M26
008886  19Y07M26                         A4    C        23:50:00:22 23:50:03:06 01:42:10:15 01:42:12:24 
*FROM CLIP NAME:  62K7/01 
*SOURCE FILE: 19Y07M26
008888  TITLE.01                         V     C        01:00:37:08 01:00:40:24 01:42:12:24 01:42:16:15 
*FROM CLIP NAME:  TITLE.01 
*SOURCE FILE: TITLE.01
008887  MSMMMOB.51                       V     C        11:49:04:16 11:49:08:07 01:42:12:24 01:42:16:15 
M2      MSMMMOB.51                                025.0 11:49:04:16 
*FROM CLIP NAME:  B011C013_190811_R481 
*SOURCE FILE: MSMMMOB.51
008889  19Y08M11                         A     C        11:49:03:14 11:49:07:05 01:42:12:24 01:42:16:15 
*FROM CLIP NAME:  53K1/03 
*SOURCE FILE: 19Y08M11
008890  MSMMMOB.51                       A2    C        11:49:04:16 11:49:08:07 01:42:12:24 01:42:16:15 
*FROM CLIP NAME:  B011C013_190811_R481 
*SOURCE FILE: MSMMMOB.51
008891  BL                               V     C        00:00:00:00 00:00:01:06 01:42:15:09 01:42:16:15 
*SOURCE FILE: (NULL)
008892  BL                               V     C        00:00:00:00 00:00:00:17 01:42:16:15 01:42:17:07 
*SOURCE FILE: (NULL)
008893  TITLE.01                         V     C        01:00:47:19 01:00:48:11 01:42:16:15 01:42:17:07 
*FROM CLIP NAME:  TITLE.01 
*SOURCE FILE: TITLE.01
008894  MSMMMOB.51                       V     C        11:49:15:02 11:49:17:13 01:42:16:15 01:42:19:01 
M2      MSMMMOB.51                                025.0 11:49:15:02 
*FROM CLIP NAME:  B011C013_190811_R481 
*SOURCE FILE: MSMMMOB.51
008895  19Y08M11                         A     C        11:49:14:00 11:49:16:11 01:42:16:15 01:42:19:01 
*FROM CLIP NAME:  53K1/03 
*SOURCE FILE: 19Y08M11
008896  MSMMMOB.51                       A2    C        11:49:15:02 11:49:17:13 01:42:16:15 01:42:19:01 
*FROM CLIP NAME:  B011C013_190811_R481 
*SOURCE FILE: MSMMMOB.51
008897  BL                               V     C        00:00:00:00 00:01:33:24 01:42:17:07 01:43:51:06 
*SOURCE FILE: (NULL)
008898  BL                               V     C        00:00:00:00 00:05:11:16 01:42:17:07 01:47:28:23 
*SOURCE FILE: (NULL)
008899  MSMMMOB.51                       V     C        11:49:20:12 11:49:24:01 01:42:19:01 01:42:22:15 
M2      MSMMMOB.51                                025.0 11:49:20:12 
*FROM CLIP NAME:  B011C013_190811_R481 
*SOURCE FILE: MSMMMOB.51
008900  19Y08M11                         A     C        11:49:19:10 11:49:22:24 01:42:19:01 01:42:22:15 
*FROM CLIP NAME:  53K1/03 
*SOURCE FILE: 19Y08M11
008901  MSMMMOB.51                       A2    C        11:49:20:12 11:49:24:01 01:42:19:01 01:42:22:15 
*FROM CLIP NAME:  B011C013_190811_R481 
*SOURCE FILE: MSMMMOB.51
008902  19Y08M11                         A     C        12:48:35:03 12:48:38:14 01:42:22:15 01:42:26:01 
*FROM CLIP NAME:  53BK1/06 
*SOURCE FILE: 19Y08M11
008903  MSMMMOB.27                       A2    C        12:48:35:04 12:48:38:15 01:42:22:15 01:42:26:01 
*FROM CLIP NAME:  A063C006_190811_R32C 
*SOURCE FILE: MSMMMOB.27
008904  MSMMMOB.27                       V     C        12:48:35:04 12:48:43:23 01:42:22:15 01:42:31:09 
M2      MSMMMOB.27                                025.0 12:48:35:04 
*FROM CLIP NAME:  A063C006_190811_R32C 
*SOURCE FILE: MSMMMOB.27
008905  19Y08M11                         A     C        12:47:30:04 12:47:31:05 01:42:26:01 01:42:27:02 
*FROM CLIP NAME:  53BK1/05 
*SOURCE FILE: 19Y08M11
008906  MSMMMOB.04                       A2    C        12:47:30:05 12:47:31:06 01:42:26:01 01:42:27:02 
*FROM CLIP NAME:  A063C005_190811_R32C 
*SOURCE FILE: MSMMMOB.04
008907  19Y08M11                         A     C        12:48:39:15 12:48:43:22 01:42:27:02 01:42:31:09 
*FROM CLIP NAME:  53BK1/06 
*SOURCE FILE: 19Y08M11
008908  MSMMMOB.27                       A2    C        12:48:39:16 12:48:43:23 01:42:27:02 01:42:31:09 
*FROM CLIP NAME:  A063C006_190811_R32C 
*SOURCE FILE: MSMMMOB.27
008909  MSMMMOB.27                       V     C        12:48:48:09 12:48:53:07 01:42:31:09 01:42:36:07 
M2      MSMMMOB.27                                025.0 12:48:48:09 
*FROM CLIP NAME:  A063C006_190811_R32C 
*SOURCE FILE: MSMMMOB.27
008910  19Y08M11                         A     C        12:48:48:08 12:48:53:06 01:42:31:09 01:42:36:07 
*FROM CLIP NAME:  53BK1/06 
*SOURCE FILE: 19Y08M11
008911  MSMMMOB.27                       A2    C        12:48:48:09 12:48:53:07 01:42:31:09 01:42:36:07 
*FROM CLIP NAME:  A063C006_190811_R32C 
*SOURCE FILE: MSMMMOB.27
008912  19Y08M01                         A     C        15:04:40:14 15:04:43:15 01:42:36:07 01:42:39:08 
*FROM CLIP NAME:  54K1/06 
*SOURCE FILE: 19Y08M01
008913  MSMMMOB.38                       A2    C        15:04:40:14 15:04:43:15 01:42:36:07 01:42:39:08 
*FROM CLIP NAME:  A026C015_190801_R32C 
*SOURCE FILE: MSMMMOB.38
008914  MSMMMOB.38                       A3    C        15:04:40:14 15:04:43:15 01:42:36:07 01:42:39:08 
*FROM CLIP NAME:  A026C015_190801_R32C 
*SOURCE FILE: MSMMMOB.38
008915  19Y08M01                         A4    C        15:04:40:14 15:04:43:15 01:42:36:07 01:42:39:08 
*FROM CLIP NAME:  54K1/06 
*SOURCE FILE: 19Y08M01
008916  MSMMMOB.38                       A5    C        15:04:40:14 15:04:43:15 01:42:36:07 01:42:39:08 
*FROM CLIP NAME:  A026C015_190801_R32C 
*SOURCE FILE: MSMMMOB.38
008917  MSMMMOB.38                       V     C        15:04:40:14 15:04:59:15 01:42:36:07 01:42:55:08 
M2      MSMMMOB.38                                025.0 15:04:40:14 
*FROM CLIP NAME:  A026C015_190801_R32C 
*SOURCE FILE: MSMMMOB.38
008918  19Y08M01                         A     C        15:04:21:23 15:04:24:24 01:42:39:08 01:42:42:09 
*FROM CLIP NAME:  54K1/06 
*SOURCE FILE: 19Y08M01
008919  MSMMMOB.38                       A2    C        15:04:21:23 15:04:24:24 01:42:39:08 01:42:42:09 
*FROM CLIP NAME:  A026C015_190801_R32C 
*SOURCE FILE: MSMMMOB.38
008920  MSMMMOB.38                       A3    C        15:04:21:23 15:04:24:24 01:42:39:08 01:42:42:09 
*FROM CLIP NAME:  A026C015_190801_R32C 
*SOURCE FILE: MSMMMOB.38
008921  19Y08M01                         A4    C        15:04:21:23 15:04:24:24 01:42:39:08 01:42:42:09 
*FROM CLIP NAME:  54K1/06 
*SOURCE FILE: 19Y08M01
008922  MSMMMOB.38                       A5    C        15:04:21:23 15:04:24:24 01:42:39:08 01:42:42:09 
*FROM CLIP NAME:  A026C015_190801_R32C 
*SOURCE FILE: MSMMMOB.38
008923  ?????_??????_-_??_????????.MP3   A19   C        01:03:33:22 01:03:50:05 01:42:40:03 01:42:56:11 
*FROM CLIP NAME:  YRGANT.MP3 
*A19 VOL =  -9.0 DB  PAN R100 
*PATCH ?????_??????_-_??_????????.MP3:  FROM SOURCE 1 TO RECORD 19 
*SOURCE FILE: ????? ?????? - ?? ????????.MP3
008924  ?????_??????_-_??_????????.MP3   A20   C        01:03:33:22 01:03:50:05 01:42:40:03 01:42:56:11 
*FROM CLIP NAME:  YRGANT.MP3 
*A20 VOL =  -9.0 DB  PAN L100 
*PATCH ?????_??????_-_??_????????.MP3:  FROM SOURCE 2 TO RECORD 20 
*SOURCE FILE: ????? ?????? - ?? ????????.MP3
008925  19Y08M01                         A     C        15:04:46:16 15:04:51:22 01:42:42:09 01:42:47:15 
*FROM CLIP NAME:  54K1/06 
*SOURCE FILE: 19Y08M01
008926  MSMMMOB.38                       A2    C        15:04:46:16 15:04:51:22 01:42:42:09 01:42:47:15 
*FROM CLIP NAME:  A026C015_190801_R32C 
*SOURCE FILE: MSMMMOB.38
008927  MSMMMOB.38                       A3    C        15:04:46:16 15:04:51:22 01:42:42:09 01:42:47:15 
*FROM CLIP NAME:  A026C015_190801_R32C 
*SOURCE FILE: MSMMMOB.38
008928  19Y08M01                         A4    C        15:04:46:16 15:04:51:22 01:42:42:09 01:42:47:15 
*FROM CLIP NAME:  54K1/06 
*SOURCE FILE: 19Y08M01
008929  MSMMMOB.38                       A5    C        15:04:46:16 15:04:51:22 01:42:42:09 01:42:47:15 
*FROM CLIP NAME:  A026C015_190801_R32C 
*SOURCE FILE: MSMMMOB.38
008930  19Y08M01                         A     C        15:04:21:23 15:04:27:20 01:42:47:15 01:42:53:12 
*FROM CLIP NAME:  54K1/06 
*SOURCE FILE: 19Y08M01
008931  MSMMMOB.38                       A2    C        15:04:21:23 15:04:27:20 01:42:47:15 01:42:53:12 
*FROM CLIP NAME:  A026C015_190801_R32C 
*SOURCE FILE: MSMMMOB.38
008932  MSMMMOB.38                       A3    C        15:04:21:23 15:04:27:20 01:42:47:15 01:42:53:12 
*FROM CLIP NAME:  A026C015_190801_R32C 
*SOURCE FILE: MSMMMOB.38
008933  19Y08M01                         A4    C        15:04:21:23 15:04:27:20 01:42:47:15 01:42:53:12 
*FROM CLIP NAME:  54K1/06 
*SOURCE FILE: 19Y08M01
008934  MSMMMOB.38                       A5    C        15:04:21:23 15:04:27:20 01:42:47:15 01:42:53:12 
*FROM CLIP NAME:  A026C015_190801_R32C 
*SOURCE FILE: MSMMMOB.38
008935  19Y08M01                         A     C        15:04:57:19 15:04:59:15 01:42:53:12 01:42:55:08 
*FROM CLIP NAME:  54K1/06 
*SOURCE FILE: 19Y08M01
008936  MSMMMOB.38                       A2    C        15:04:57:19 15:04:59:15 01:42:53:12 01:42:55:08 
*FROM CLIP NAME:  A026C015_190801_R32C 
*SOURCE FILE: MSMMMOB.38
008937  MSMMMOB.38                       A3    C        15:04:57:19 15:04:59:15 01:42:53:12 01:42:55:08 
*FROM CLIP NAME:  A026C015_190801_R32C 
*SOURCE FILE: MSMMMOB.38
008938  19Y08M01                         A4    C        15:04:57:19 15:04:59:15 01:42:53:12 01:42:55:08 
*FROM CLIP NAME:  54K1/06 
*SOURCE FILE: 19Y08M01
008939  MSMMMOB.38                       A5    C        15:04:57:19 15:04:59:15 01:42:53:12 01:42:55:08 
*FROM CLIP NAME:  A026C015_190801_R32C 
*SOURCE FILE: MSMMMOB.38
008940  MSMMMOB.32                       V     C        00:00:39:19 00:00:45:08 01:42:55:08 01:43:00:22 
M2      MSMMMOB.32                                025.0 00:00:39:19 
*FROM CLIP NAME:  DJI_0034 
*SOURCE FILE: MSMMMOB.32
008941  MSMMMOB.32                       A     C        00:00:39:19 00:00:45:08 01:42:55:08 01:43:00:22 
M2      MSMMMOB.32                                025.0 00:00:39:19 
*FROM CLIP NAME:  DJI_0034 
*SOURCE FILE: MSMMMOB.32
008942  MSMMMOB.32                       A2    C        00:00:39:19 00:00:45:08 01:42:55:08 01:43:00:22 
M2      MSMMMOB.32                                025.0 00:00:39:19 
*FROM CLIP NAME:  DJI_0034 
*SOURCE FILE: MSMMMOB.32
008943  00827.MP3                        A15   C        01:00:00:07 01:00:05:21 01:42:55:08 01:43:00:22 
*FROM CLIP NAME:  00827.MP3 
*A15 VOL = -30.7 DB  PAN L100 
*PATCH 00827.MP3:  FROM SOURCE 2 TO RECORD 15 
*SOURCE FILE: 00827.MP3
008944  00827.MP3                        A16   C        01:00:00:07 01:00:05:21 01:42:55:08 01:43:00:22 
*FROM CLIP NAME:  00827.MP3 
*A16 VOL = -30.7 DB  PAN R100 
*PATCH 00827.MP3:  FROM SOURCE 1 TO RECORD 16 
*SOURCE FILE: 00827.MP3
008945  B004C010_190726_R4CP             V     C        17:11:34:14 17:11:39:06 01:43:00:22 01:43:05:14 
*FROM CLIP NAME:  57-8-1 
*SOURCE FILE: B004C010_190726_R4CP
008946  SHAR                             V     C        00:00:56:11 00:01:01:03 01:43:00:22 01:43:05:14 
*FROM CLIP NAME:  SHAR.NEW.01 
*SOURCE FILE: SHAR
008947  SHAR                             A10   C        00:00:56:11 00:01:08:00 01:43:00:22 01:43:12:11 
*FROM CLIP NAME:  SHAR.NEW.01 
*A10 VOL = -31.5 DB  PAN L100 
*PATCH SHAR:  FROM SOURCE 2 TO RECORD 10 
*SOURCE FILE: SHAR
008948  SHAR                             A11   C        00:00:56:11 00:01:08:00 01:43:00:22 01:43:12:11 
*FROM CLIP NAME:  SHAR.NEW.01 
*A11 VOL = -31.5 DB  PAN R100 
*PATCH SHAR:  FROM SOURCE 1 TO RECORD 11 
*SOURCE FILE: SHAR
008949  00827.MP3                        A12   C        01:00:05:21 01:00:48:18 01:43:00:22 01:43:43:19 
*FROM CLIP NAME:  00827.MP3 
*A12 VOL = -40.0 DB  PAN L100 
*PATCH 00827.MP3:  FROM SOURCE 2 TO RECORD 12 
*SOURCE FILE: 00827.MP3
008950  00827.MP3                        A13   C        01:00:05:21 01:00:48:18 01:43:00:22 01:43:43:19 
*FROM CLIP NAME:  00827.MP3 
*A13 VOL = -40.0 DB  PAN R100 
*PATCH 00827.MP3:  FROM SOURCE 1 TO RECORD 13 
*SOURCE FILE: 00827.MP3
008951  CINEMASCOPE_2-35-1_CROPLINES.PNG V     C        01:00:00:00 01:04:28:01 01:43:00:22 01:47:28:23 
*FROM CLIP NAME:  CINEMASCOPE 2-35-1 CROPLINES.PNG 
*SOURCE FILE: CINEMASCOPE 2-35-1 CROPLINES.PNG
008952  19Y07M26                         A     C        16:49:13:03 16:49:14:17 01:43:01:23 01:43:03:12 
*FROM CLIP NAME:  57K5/02.SYNC.01 
*SOURCE FILE: 19Y07M26
008953  19Y07M26                         A2    C        16:49:13:03 16:49:14:17 01:43:01:23 01:43:03:12 
*FROM CLIP NAME:  57K5/02.SYNC.01 
*SOURCE FILE: 19Y07M26
008954  19Y07M26                         A3    C        16:49:13:03 16:49:14:17 01:43:01:23 01:43:03:12 
*FROM CLIP NAME:  57K5/02.SYNC.01 
*SOURCE FILE: 19Y07M26
008955  19Y07M26                         A4    C        16:49:13:03 16:49:14:17 01:43:01:23 01:43:03:12 
*FROM CLIP NAME:  57K5/02.SYNC.01 
*SOURCE FILE: 19Y07M26
008956  19Y07M26                         A5    C        16:49:13:03 16:49:14:17 01:43:01:23 01:43:03:12 
*FROM CLIP NAME:  57K5/02.SYNC.01 
*SOURCE FILE: 19Y07M26
008957  19Y07M26                         A6    C        16:49:13:03 16:49:14:17 01:43:01:23 01:43:03:12 
*FROM CLIP NAME:  57K5/02.SYNC.01 
*SOURCE FILE: 19Y07M26
008958  19Y07M26                         A7    C        16:49:13:03 16:49:14:17 01:43:01:23 01:43:03:12 
*FROM CLIP NAME:  57K5/02.SYNC.01 
*PATCH 19Y07M26:  FROM SOURCE 1 TO RECORD 7 
*SOURCE FILE: 19Y07M26
008959  19Y07M26                         A8    C        16:49:13:03 16:49:14:17 01:43:01:23 01:43:03:12 
*FROM CLIP NAME:  57K5/02.SYNC.01 
*PATCH 19Y07M26:  FROM SOURCE 1 TO RECORD 8 
*SOURCE FILE: 19Y07M26
008960  19Y07M26                         A9    C        16:49:13:03 16:49:14:17 01:43:01:23 01:43:03:12 
*FROM CLIP NAME:  57K5/02.SYNC.01 
*SOURCE FILE: 19Y07M26
008961  19Y07M26                         A     C        16:49:13:03 16:49:14:14 01:43:03:12 01:43:04:23 
*FROM CLIP NAME:  57K5/02.SYNC.01 
*SOURCE FILE: 19Y07M26
008962  19Y07M26                         A2    C        16:49:13:03 16:49:14:14 01:43:03:12 01:43:04:23 
*FROM CLIP NAME:  57K5/02.SYNC.01 
*SOURCE FILE: 19Y07M26
008963  19Y07M26                         A3    C        16:49:13:03 16:49:14:14 01:43:03:12 01:43:04:23 
*FROM CLIP NAME:  57K5/02.SYNC.01 
*SOURCE FILE: 19Y07M26
008964  19Y07M26                         A4    C        16:49:13:03 16:49:14:14 01:43:03:12 01:43:04:23 
*FROM CLIP NAME:  57K5/02.SYNC.01 
*SOURCE FILE: 19Y07M26
008965  19Y07M26                         A5    C        16:49:13:03 16:49:14:14 01:43:03:12 01:43:04:23 
*FROM CLIP NAME:  57K5/02.SYNC.01 
*SOURCE FILE: 19Y07M26
008966  19Y07M26                         A6    C        16:49:13:03 16:49:14:14 01:43:03:12 01:43:04:23 
*FROM CLIP NAME:  57K5/02.SYNC.01 
*SOURCE FILE: 19Y07M26
008967  19Y07M26                         A7    C        16:49:13:03 16:49:14:14 01:43:03:12 01:43:04:23 
*FROM CLIP NAME:  57K5/02.SYNC.01 
*PATCH 19Y07M26:  FROM SOURCE 1 TO RECORD 7 
*SOURCE FILE: 19Y07M26
008968  19Y07M26                         A8    C        16:49:13:03 16:49:14:14 01:43:03:12 01:43:04:23 
*FROM CLIP NAME:  57K5/02.SYNC.01 
*PATCH 19Y07M26:  FROM SOURCE 1 TO RECORD 8 
*SOURCE FILE: 19Y07M26
008969  19Y07M26                         A9    C        16:49:13:03 16:49:14:14 01:43:03:12 01:43:04:23 
*FROM CLIP NAME:  57K5/02.SYNC.01 
*SOURCE FILE: 19Y07M26
008970  19Y07M26                         A     C        16:49:13:03 16:49:13:23 01:43:04:23 01:43:05:18 
*FROM CLIP NAME:  57K5/02.SYNC.01 
*SOURCE FILE: 19Y07M26
008971  19Y07M26                         A2    C        16:49:13:03 16:49:13:23 01:43:04:23 01:43:05:18 
*FROM CLIP NAME:  57K5/02.SYNC.01 
*SOURCE FILE: 19Y07M26
008972  19Y07M26                         A3    C        16:49:13:03 16:49:13:23 01:43:04:23 01:43:05:18 
*FROM CLIP NAME:  57K5/02.SYNC.01 
*SOURCE FILE: 19Y07M26
008973  19Y07M26                         A4    C        16:49:13:03 16:49:13:23 01:43:04:23 01:43:05:18 
*FROM CLIP NAME:  57K5/02.SYNC.01 
*SOURCE FILE: 19Y07M26
008974  19Y07M26                         A5    C        16:49:13:03 16:49:13:23 01:43:04:23 01:43:05:18 
*FROM CLIP NAME:  57K5/02.SYNC.01 
*SOURCE FILE: 19Y07M26
008975  19Y07M26                         A6    C        16:49:13:03 16:49:13:23 01:43:04:23 01:43:05:18 
*FROM CLIP NAME:  57K5/02.SYNC.01 
*SOURCE FILE: 19Y07M26
008976  19Y07M26                         A7    C        16:49:13:03 16:49:13:23 01:43:04:23 01:43:05:18 
*FROM CLIP NAME:  57K5/02.SYNC.01 
*PATCH 19Y07M26:  FROM SOURCE 1 TO RECORD 7 
*SOURCE FILE: 19Y07M26
008977  19Y07M26                         A8    C        16:49:13:03 16:49:13:23 01:43:04:23 01:43:05:18 
*FROM CLIP NAME:  57K5/02.SYNC.01 
*PATCH 19Y07M26:  FROM SOURCE 1 TO RECORD 8 
*SOURCE FILE: 19Y07M26
008978  19Y07M26                         A9    C        16:49:13:03 16:49:13:23 01:43:04:23 01:43:05:18 
*FROM CLIP NAME:  57K5/02.SYNC.01 
*SOURCE FILE: 19Y07M26
008979  B004C007_190726_R4CP             V     C        16:48:40:23 16:48:42:15 01:43:05:14 01:43:07:06 
*FROM CLIP NAME:  B004C007_190726_R4CP.NEW.01 
*SOURCE FILE: B004C007_190726_R4CP
008980  BL                               V     C        00:00:00:00 00:04:23:09 01:43:05:14 01:47:28:23 
*SOURCE FILE: (NULL)
008981  19Y07M26                         A5    C        16:48:41:02 16:48:41:11 01:43:05:18 01:43:06:02 
*FROM CLIP NAME:  57K5/02.SYNC.01 
*SOURCE FILE: 19Y07M26
008982  19Y07M26                         A6    C        16:48:41:02 16:48:41:11 01:43:05:18 01:43:06:02 
*FROM CLIP NAME:  57K5/02.SYNC.01 
*SOURCE FILE: 19Y07M26
008983  19Y07M26                         A7    C        16:48:41:02 16:48:41:11 01:43:05:18 01:43:06:02 
*FROM CLIP NAME:  57K5/02.SYNC.01 
*PATCH 19Y07M26:  FROM SOURCE 1 TO RECORD 7 
*SOURCE FILE: 19Y07M26
008984  19Y07M26                         A     C        16:48:41:02 16:48:42:15 01:43:05:18 01:43:07:06 
*FROM CLIP NAME:  57K5/02.SYNC.01 
*SOURCE FILE: 19Y07M26
008985  19Y07M26                         A2    C        16:48:41:02 16:48:42:15 01:43:05:18 01:43:07:06 
*FROM CLIP NAME:  57K5/02.SYNC.01 
*SOURCE FILE: 19Y07M26
008986  19Y07M26                         A3    C        16:48:41:02 16:48:42:15 01:43:05:18 01:43:07:06 
*FROM CLIP NAME:  57K5/02.SYNC.01 
*SOURCE FILE: 19Y07M26
008987  19Y07M26                         A4    C        16:48:41:02 16:48:42:15 01:43:05:18 01:43:07:06 
*FROM CLIP NAME:  57K5/02.SYNC.01 
*SOURCE FILE: 19Y07M26
008988  19Y07M26                         A8    C        16:48:41:02 16:48:42:15 01:43:05:18 01:43:07:06 
*FROM CLIP NAME:  57K5/02.SYNC.01 
*PATCH 19Y07M26:  FROM SOURCE 1 TO RECORD 8 
*SOURCE FILE: 19Y07M26
008989  19Y07M26                         A9    C        16:48:41:02 16:48:42:15 01:43:05:18 01:43:07:06 
*FROM CLIP NAME:  57K5/02.SYNC.01 
*SOURCE FILE: 19Y07M26
008990  19Y07M26                         A5    C        16:48:50:13 16:48:51:17 01:43:06:02 01:43:07:06 
*FROM CLIP NAME:  57K5/02.SYNC.01 
*PATCH 19Y07M26:  FROM SOURCE 2 TO RECORD 5 
*SOURCE FILE: 19Y07M26
008991  19Y07M26                         A6    C        16:48:50:13 16:48:51:17 01:43:06:02 01:43:07:06 
*FROM CLIP NAME:  57K5/02.SYNC.01 
*SOURCE FILE: 19Y07M26
008992  19Y07M26                         A7    C        16:48:50:13 16:48:51:17 01:43:06:02 01:43:07:06 
*FROM CLIP NAME:  57K5/02.SYNC.01 
*PATCH 19Y07M26:  FROM SOURCE 1 TO RECORD 7 
*SOURCE FILE: 19Y07M26
008993  A007C002_190726_R32C             V     C        16:45:51:15 16:45:55:21 01:43:07:06 01:43:11:12 
*FROM CLIP NAME:  A007C002_190726_R32C.NEW.01 
*SOURCE FILE: A007C002_190726_R32C
008994  19Y07M26                         A     C        16:45:51:15 16:45:55:21 01:43:07:06 01:43:11:12 
*FROM CLIP NAME:  57K5/01.SYNC.01 
*SOURCE FILE: 19Y07M26
008995  19Y07M26                         A2    C        16:45:51:15 16:45:55:21 01:43:07:06 01:43:11:12 
*FROM CLIP NAME:  57K5/01.SYNC.01 
*A2 VOL =  +8.0 DB  PAN L100 
*SOURCE FILE: 19Y07M26
008996  19Y07M26                         A3    C        16:45:51:15 16:45:55:21 01:43:07:06 01:43:11:12 
*FROM CLIP NAME:  57K5/01.SYNC.01 
*SOURCE FILE: 19Y07M26
008997  19Y07M26                         A4    C        16:45:51:15 16:45:55:21 01:43:07:06 01:43:11:12 
*FROM CLIP NAME:  57K5/01.SYNC.01 
*SOURCE FILE: 19Y07M26
008998  19Y07M26                         A5    C        16:45:51:15 16:45:55:21 01:43:07:06 01:43:11:12 
*FROM CLIP NAME:  57K5/01.SYNC.01 
*A5 VOL = +10.0 DB  PAN R100 
*SOURCE FILE: 19Y07M26
008999  19Y07M26                         A6    C        16:45:51:15 16:45:55:21 01:43:07:06 01:43:11:12 
*FROM CLIP NAME:  57K5/01.SYNC.01 
*SOURCE FILE: 19Y07M26
009000  19Y07M26                         A7    C        16:45:51:15 16:45:55:21 01:43:07:06 01:43:11:12 
*FROM CLIP NAME:  57K5/01.SYNC.01 
*PATCH 19Y07M26:  FROM SOURCE 1 TO RECORD 7 
*SOURCE FILE: 19Y07M26
009001  19Y07M26                         A8    C        16:45:51:15 16:45:55:21 01:43:07:06 01:43:11:12 
*FROM CLIP NAME:  57K5/01.SYNC.01 
*PATCH 19Y07M26:  FROM SOURCE 1 TO RECORD 8 
*SOURCE FILE: 19Y07M26
009002  19Y07M26                         A9    C        16:45:51:15 16:45:55:21 01:43:07:06 01:43:11:12 
*FROM CLIP NAME:  57K5/01.SYNC.01 
*SOURCE FILE: 19Y07M26
009003  A006C016_190726_R32C             V     C        16:23:10:07 16:23:12:09 01:43:11:12 01:43:13:14 
*FROM CLIP NAME:  A006C016_190726_R32C.NEW.01 
*SOURCE FILE: A006C016_190726_R32C
009004  19Y07M26                         A     C        16:23:10:07 16:23:12:10 01:43:11:12 01:43:13:15 
*FROM CLIP NAME:  57K3/03.SYNC.01 
*SOURCE FILE: 19Y07M26
009005  19Y07M26                         A2    C        16:23:10:07 16:23:12:10 01:43:11:12 01:43:13:15 
*FROM CLIP NAME:  57K3/03.SYNC.01 
*A2 VOL =  +8.1 DB  PAN L100 
*SOURCE FILE: 19Y07M26
009006  19Y07M26                         A3    C        16:23:10:07 16:23:12:10 01:43:11:12 01:43:13:15 
*FROM CLIP NAME:  57K3/03.SYNC.01 
*SOURCE FILE: 19Y07M26
009007  19Y07M26                         A4    C        16:23:10:07 16:23:12:10 01:43:11:12 01:43:13:15 
*FROM CLIP NAME:  57K3/03.SYNC.01 
*SOURCE FILE: 19Y07M26
009008  19Y07M26                         A5    C        16:23:10:07 16:23:12:10 01:43:11:12 01:43:13:15 
*FROM CLIP NAME:  57K3/03.SYNC.01 
*SOURCE FILE: 19Y07M26
009009  19Y07M26                         A6    C        16:23:10:07 16:23:12:10 01:43:11:12 01:43:13:15 
*FROM CLIP NAME:  57K3/03.SYNC.01 
*SOURCE FILE: 19Y07M26
009010  19Y07M26                         A7    C        16:23:10:07 16:23:12:10 01:43:11:12 01:43:13:15 
*FROM CLIP NAME:  57K3/03.SYNC.01 
*PATCH 19Y07M26:  FROM SOURCE 1 TO RECORD 7 
*SOURCE FILE: 19Y07M26
009011  19Y07M26                         A8    C        16:23:10:07 16:23:12:10 01:43:11:12 01:43:13:15 
*FROM CLIP NAME:  57K3/03.SYNC.01 
*PATCH 19Y07M26:  FROM SOURCE 1 TO RECORD 8 
*SOURCE FILE: 19Y07M26
009012  19Y07M26                         A9    C        16:23:10:07 16:23:12:10 01:43:11:12 01:43:13:15 
*FROM CLIP NAME:  57K3/03.SYNC.01 
*SOURCE FILE: 19Y07M26
009013  SHAR                             A10   C        00:01:08:00 00:01:08:00 01:43:12:11 01:43:12:11 
009013  BL                               A10   D    078 00:00:00:00 00:00:03:03 01:43:12:11 01:43:15:14 
*FROM CLIP NAME:  SHAR.NEW.01 
*A10 VOL = -31.5 DB  PAN L100 
*PATCH SHAR:  FROM SOURCE 2 TO RECORD 10 
*SOURCE FILE: SHAR
009014  SHAR                             A11   C        00:01:08:00 00:01:08:00 01:43:12:11 01:43:12:11 
009014  BL                               A11   D    078 00:00:00:00 00:00:03:03 01:43:12:11 01:43:15:14 
*FROM CLIP NAME:  SHAR.NEW.01 
*A11 VOL = -31.5 DB  PAN R100 
*PATCH SHAR:  FROM SOURCE 1 TO RECORD 11 
*SOURCE FILE: SHAR
009015  B004C007_190726_R4CP             V     C        16:48:48:08 16:48:50:21 01:43:13:14 01:43:16:02 
*FROM CLIP NAME:  B004C007_190726_R4CP.NEW.01 
*SOURCE FILE: B004C007_190726_R4CP
009016  19Y07M26                         A     C        16:48:48:09 16:48:49:23 01:43:13:15 01:43:15:04 
*FROM CLIP NAME:  57K5/02.SYNC.01 
*SOURCE FILE: 19Y07M26
009017  19Y07M26                         A2    C        16:48:48:09 16:48:49:23 01:43:13:15 01:43:15:04 
*FROM CLIP NAME:  57K5/02.SYNC.01 
*SOURCE FILE: 19Y07M26
009018  19Y07M26                         A3    C        16:48:48:09 16:48:49:23 01:43:13:15 01:43:15:04 
*FROM CLIP NAME:  57K5/02.SYNC.01 
*SOURCE FILE: 19Y07M26
009019  19Y07M26                         A4    C        16:48:48:09 16:48:49:23 01:43:13:15 01:43:15:04 
*FROM CLIP NAME:  57K5/02.SYNC.01 
*SOURCE FILE: 19Y07M26
009020  19Y07M26                         A5    C        16:48:48:09 16:48:49:23 01:43:13:15 01:43:15:04 
*FROM CLIP NAME:  57K5/02.SYNC.01 
*SOURCE FILE: 19Y07M26
009021  19Y07M26                         A6    C        16:48:48:09 16:48:49:23 01:43:13:15 01:43:15:04 
*FROM CLIP NAME:  57K5/02.SYNC.01 
*SOURCE FILE: 19Y07M26
009022  19Y07M26                         A7    C        16:48:48:09 16:48:49:23 01:43:13:15 01:43:15:04 
*FROM CLIP NAME:  57K5/02.SYNC.01 
*PATCH 19Y07M26:  FROM SOURCE 1 TO RECORD 7 
*SOURCE FILE: 19Y07M26
009023  19Y07M26                         A8    C        16:48:48:09 16:48:49:23 01:43:13:15 01:43:15:04 
*FROM CLIP NAME:  57K5/02.SYNC.01 
*PATCH 19Y07M26:  FROM SOURCE 1 TO RECORD 8 
*SOURCE FILE: 19Y07M26
009024  19Y07M26                         A9    C        16:48:48:09 16:48:49:23 01:43:13:15 01:43:15:04 
*FROM CLIP NAME:  57K5/02.SYNC.01 
*SOURCE FILE: 19Y07M26
009025  19Y07M26                         A     C        15:54:25:09 15:54:25:22 01:43:15:04 01:43:15:17 
*FROM CLIP NAME:  57K1/03.SYNC.01 
*SOURCE FILE: 19Y07M26
009026  19Y07M26                         A2    C        15:54:25:09 15:54:25:22 01:43:15:04 01:43:15:17 
*FROM CLIP NAME:  57K1/03.SYNC.01 
*SOURCE FILE: 19Y07M26
009027  19Y07M26                         A3    C        15:54:25:09 15:54:25:22 01:43:15:04 01:43:15:17 
*FROM CLIP NAME:  57K1/03.SYNC.01 
*SOURCE FILE: 19Y07M26
009028  19Y07M26                         A4    C        15:54:25:09 15:54:25:22 01:43:15:04 01:43:15:17 
*FROM CLIP NAME:  57K1/03.SYNC.01 
*SOURCE FILE: 19Y07M26
009029  19Y07M26                         A5    C        15:54:25:09 15:54:25:22 01:43:15:04 01:43:15:17 
*FROM CLIP NAME:  57K1/03.SYNC.01 
*SOURCE FILE: 19Y07M26
009030  19Y07M26                         A6    C        15:54:25:09 15:54:25:22 01:43:15:04 01:43:15:17 
*FROM CLIP NAME:  57K1/03.SYNC.01 
*SOURCE FILE: 19Y07M26
009031  19Y07M26                         A7    C        15:54:25:09 15:54:25:22 01:43:15:04 01:43:15:17 
*FROM CLIP NAME:  57K1/03.SYNC.01 
*PATCH 19Y07M26:  FROM SOURCE 1 TO RECORD 7 
*SOURCE FILE: 19Y07M26
009032  19Y07M26                         A8    C        15:54:25:09 15:54:25:22 01:43:15:04 01:43:15:17 
*FROM CLIP NAME:  57K1/03.SYNC.01 
*PATCH 19Y07M26:  FROM SOURCE 1 TO RECORD 8 
*SOURCE FILE: 19Y07M26
009033  19Y07M26                         A9    C        15:54:25:09 15:54:25:22 01:43:15:04 01:43:15:17 
*FROM CLIP NAME:  57K1/03.SYNC.01 
*SOURCE FILE: 19Y07M26
009034  19Y07M26                         A     C        15:50:25:12 15:50:25:22 01:43:15:17 01:43:16:02 
*FROM CLIP NAME:  57K1/02.SYNC.01 
*SOURCE FILE: 19Y07M26
009035  19Y07M26                         A2    C        15:50:25:12 15:50:25:22 01:43:15:17 01:43:16:02 
*FROM CLIP NAME:  57K1/02.SYNC.01 
*SOURCE FILE: 19Y07M26
009036  19Y07M26                         A3    C        15:50:25:12 15:50:25:22 01:43:15:17 01:43:16:02 
*FROM CLIP NAME:  57K1/02.SYNC.01 
*SOURCE FILE: 19Y07M26
009037  19Y07M26                         A4    C        15:50:25:12 15:50:25:22 01:43:15:17 01:43:16:02 
*FROM CLIP NAME:  57K1/02.SYNC.01 
*SOURCE FILE: 19Y07M26
009038  19Y07M26                         A5    C        15:50:25:12 15:50:25:22 01:43:15:17 01:43:16:02 
*FROM CLIP NAME:  57K1/02.SYNC.01 
*SOURCE FILE: 19Y07M26
009039  19Y07M26                         A6    C        15:50:25:12 15:50:25:22 01:43:15:17 01:43:16:02 
*FROM CLIP NAME:  57K1/02.SYNC.01 
*SOURCE FILE: 19Y07M26
009040  19Y07M26                         A7    C        15:50:25:12 15:50:25:22 01:43:15:17 01:43:16:02 
*FROM CLIP NAME:  57K1/02.SYNC.01 
*PATCH 19Y07M26:  FROM SOURCE 1 TO RECORD 7 
*SOURCE FILE: 19Y07M26
009041  19Y07M26                         A8    C        15:50:25:12 15:50:25:22 01:43:15:17 01:43:16:02 
*FROM CLIP NAME:  57K1/02.SYNC.01 
*PATCH 19Y07M26:  FROM SOURCE 1 TO RECORD 8 
*SOURCE FILE: 19Y07M26
009042  19Y07M26                         A9    C        15:50:25:12 15:50:25:22 01:43:15:17 01:43:16:02 
*FROM CLIP NAME:  57K1/02.SYNC.01 
*SOURCE FILE: 19Y07M26
009043  A006C011_190726_R32C             V     C        15:50:26:12 15:50:30:01 01:43:16:02 01:43:19:16 
*FROM CLIP NAME:  A006C011_190726_R32C.NEW.01 
*SOURCE FILE: A006C011_190726_R32C
009044  19Y07M26                         A     C        15:50:26:12 15:50:30:11 01:43:16:02 01:43:20:01 
*FROM CLIP NAME:  57K1/02.SYNC.01 
*SOURCE FILE: 19Y07M26
009045  19Y07M26                         A2    C        15:50:26:12 15:50:30:11 01:43:16:02 01:43:20:01 
*FROM CLIP NAME:  57K1/02.SYNC.01 
*SOURCE FILE: 19Y07M26
009046  19Y07M26                         A3    C        15:50:26:12 15:50:30:11 01:43:16:02 01:43:20:01 
*FROM CLIP NAME:  57K1/02.SYNC.01 
*SOURCE FILE: 19Y07M26
009047  19Y07M26                         A4    C        15:50:26:12 15:50:30:11 01:43:16:02 01:43:20:01 
*FROM CLIP NAME:  57K1/02.SYNC.01 
*SOURCE FILE: 19Y07M26
009048  19Y07M26                         A5    C        15:50:26:12 15:50:30:11 01:43:16:02 01:43:20:01 
*FROM CLIP NAME:  57K1/02.SYNC.01 
*SOURCE FILE: 19Y07M26
009049  19Y07M26                         A6    C        15:50:26:12 15:50:30:11 01:43:16:02 01:43:20:01 
*FROM CLIP NAME:  57K1/02.SYNC.01 
*SOURCE FILE: 19Y07M26
009050  19Y07M26                         A7    C        15:50:26:12 15:50:30:11 01:43:16:02 01:43:20:01 
*FROM CLIP NAME:  57K1/02.SYNC.01 
*PATCH 19Y07M26:  FROM SOURCE 1 TO RECORD 7 
*SOURCE FILE: 19Y07M26
009051  19Y07M26                         A8    C        15:50:26:12 15:50:30:11 01:43:16:02 01:43:20:01 
*FROM CLIP NAME:  57K1/02.SYNC.01 
*PATCH 19Y07M26:  FROM SOURCE 1 TO RECORD 8 
*SOURCE FILE: 19Y07M26
009052  19Y07M26                         A9    C        15:50:26:12 15:50:30:11 01:43:16:02 01:43:20:01 
*FROM CLIP NAME:  57K1/02.SYNC.01 
*A9 VOL =  +9.0 DB  PAN R100 
*SOURCE FILE: 19Y07M26
009053  B004C009_190726_R4CP             V     C        17:04:55:05 17:04:59:13 01:43:19:16 01:43:23:24 
*FROM CLIP NAME:  B004C009_190726_R4CP.NEW.01 
*SOURCE FILE: B004C009_190726_R4CP
009054  19Y07M26                         A     C        16:23:18:09 16:23:19:05 01:43:20:01 01:43:20:22 
*FROM CLIP NAME:  57K3/03.SYNC.01 
*SOURCE FILE: 19Y07M26
009055  19Y07M26                         A2    C        16:23:18:09 16:23:19:05 01:43:20:01 01:43:20:22 
*FROM CLIP NAME:  57K3/03.SYNC.01 
*SOURCE FILE: 19Y07M26
009056  19Y07M26                         A3    C        16:23:18:09 16:23:19:05 01:43:20:01 01:43:20:22 
*FROM CLIP NAME:  57K3/03.SYNC.01 
*SOURCE FILE: 19Y07M26
009057  19Y07M26                         A4    C        16:23:18:09 16:23:19:05 01:43:20:01 01:43:20:22 
*FROM CLIP NAME:  57K3/03.SYNC.01 
*SOURCE FILE: 19Y07M26
009058  19Y07M26                         A5    C        16:23:18:09 16:23:19:05 01:43:20:01 01:43:20:22 
*FROM CLIP NAME:  57K3/03.SYNC.01 
*SOURCE FILE: 19Y07M26
009059  19Y07M26                         A6    C        16:23:18:09 16:23:19:05 01:43:20:01 01:43:20:22 
*FROM CLIP NAME:  57K3/03.SYNC.01 
*SOURCE FILE: 19Y07M26
009060  19Y07M26                         A7    C        16:23:18:09 16:23:19:05 01:43:20:01 01:43:20:22 
*FROM CLIP NAME:  57K3/03.SYNC.01 
*PATCH 19Y07M26:  FROM SOURCE 1 TO RECORD 7 
*SOURCE FILE: 19Y07M26
009061  19Y07M26                         A8    C        16:23:18:09 16:23:19:05 01:43:20:01 01:43:20:22 
*FROM CLIP NAME:  57K3/03.SYNC.01 
*PATCH 19Y07M26:  FROM SOURCE 1 TO RECORD 8 
*SOURCE FILE: 19Y07M26
009062  19Y07M26                         A9    C        16:23:18:09 16:23:19:05 01:43:20:01 01:43:20:22 
*FROM CLIP NAME:  57K3/03.SYNC.01 
*SOURCE FILE: 19Y07M26
009063  19Y07M26                         A     C        17:04:56:11 17:04:57:12 01:43:20:22 01:43:21:23 
*FROM CLIP NAME:  57K7/02.SYNC.01 
*SOURCE FILE: 19Y07M26
009064  19Y07M26                         A2    C        17:04:56:11 17:04:57:12 01:43:20:22 01:43:21:23 
*FROM CLIP NAME:  57K7/02.SYNC.01 
*SOURCE FILE: 19Y07M26
009065  19Y07M26                         A3    C        17:04:56:11 17:04:57:12 01:43:20:22 01:43:21:23 
*FROM CLIP NAME:  57K7/02.SYNC.01 
*SOURCE FILE: 19Y07M26
009066  19Y07M26                         A4    C        17:04:56:11 17:04:57:12 01:43:20:22 01:43:21:23 
*FROM CLIP NAME:  57K7/02.SYNC.01 
*SOURCE FILE: 19Y07M26
009067  19Y07M26                         A5    C        17:04:56:11 17:04:57:12 01:43:20:22 01:43:21:23 
*FROM CLIP NAME:  57K7/02.SYNC.01 
*SOURCE FILE: 19Y07M26
009068  19Y07M26                         A6    C        17:04:56:11 17:04:57:12 01:43:20:22 01:43:21:23 
*FROM CLIP NAME:  57K7/02.SYNC.01 
*SOURCE FILE: 19Y07M26
009069  19Y07M26                         A7    C        17:04:56:11 17:04:57:12 01:43:20:22 01:43:21:23 
*FROM CLIP NAME:  57K7/02.SYNC.01 
*PATCH 19Y07M26:  FROM SOURCE 1 TO RECORD 7 
*SOURCE FILE: 19Y07M26
009070  19Y07M26                         A8    C        17:04:56:11 17:04:57:12 01:43:20:22 01:43:21:23 
*FROM CLIP NAME:  57K7/02.SYNC.01 
*PATCH 19Y07M26:  FROM SOURCE 1 TO RECORD 8 
*SOURCE FILE: 19Y07M26
009071  19Y07M26                         A     C        16:48:54:14 16:48:56:15 01:43:21:23 01:43:23:24 
*FROM CLIP NAME:  57K5/02.SYNC.01 
*SOURCE FILE: 19Y07M26
009072  19Y07M26                         A2    C        16:48:54:14 16:48:56:15 01:43:21:23 01:43:23:24 
*FROM CLIP NAME:  57K5/02.SYNC.01 
*SOURCE FILE: 19Y07M26
009073  19Y07M26                         A3    C        16:48:54:14 16:48:56:15 01:43:21:23 01:43:23:24 
*FROM CLIP NAME:  57K5/02.SYNC.01 
*SOURCE FILE: 19Y07M26
009074  19Y07M26                         A4    C        16:48:54:14 16:48:56:15 01:43:21:23 01:43:23:24 
*FROM CLIP NAME:  57K5/02.SYNC.01 
*SOURCE FILE: 19Y07M26
009075  19Y07M26                         A5    C        16:48:54:14 16:48:56:15 01:43:21:23 01:43:23:24 
*FROM CLIP NAME:  57K5/02.SYNC.01 
*SOURCE FILE: 19Y07M26
009076  19Y07M26                         A6    C        16:48:54:14 16:48:56:15 01:43:21:23 01:43:23:24 
*FROM CLIP NAME:  57K5/02.SYNC.01 
*SOURCE FILE: 19Y07M26
009077  19Y07M26                         A7    C        16:48:54:14 16:48:56:15 01:43:21:23 01:43:23:24 
*FROM CLIP NAME:  57K5/02.SYNC.01 
*PATCH 19Y07M26:  FROM SOURCE 1 TO RECORD 7 
*SOURCE FILE: 19Y07M26
009078  19Y07M26                         A8    C        16:48:54:14 16:48:56:15 01:43:21:23 01:43:23:24 
*FROM CLIP NAME:  57K5/02.SYNC.01 
*PATCH 19Y07M26:  FROM SOURCE 1 TO RECORD 8 
*SOURCE FILE: 19Y07M26
009079  19Y07M26                         A9    C        16:48:54:14 16:48:56:15 01:43:21:23 01:43:23:24 
*FROM CLIP NAME:  57K5/02.SYNC.01 
*SOURCE FILE: 19Y07M26
009080  A007C003_190726_R32C             V     C        16:48:57:11 16:49:08:23 01:43:23:24 01:43:35:11 
*FROM CLIP NAME:  A007C003_190726_R32C.NEW.01 
*SOURCE FILE: A007C003_190726_R32C
009081  19Y07M26                         A     C        16:48:57:11 16:49:09:08 01:43:23:24 01:43:35:21 
*FROM CLIP NAME:  57K5/02.SYNC.01 
*SOURCE FILE: 19Y07M26
009082  19Y07M26                         A2    C        16:48:57:11 16:49:09:08 01:43:23:24 01:43:35:21 
*FROM CLIP NAME:  57K5/02.SYNC.01 
*SOURCE FILE: 19Y07M26
009083  19Y07M26                         A3    C        16:48:57:11 16:49:09:08 01:43:23:24 01:43:35:21 
*FROM CLIP NAME:  57K5/02.SYNC.01 
*SOURCE FILE: 19Y07M26
009084  19Y07M26                         A4    C        16:48:57:11 16:49:09:08 01:43:23:24 01:43:35:21 
*FROM CLIP NAME:  57K5/02.SYNC.01 
*SOURCE FILE: 19Y07M26
009085  19Y07M26                         A5    C        16:48:57:11 16:49:09:08 01:43:23:24 01:43:35:21 
*FROM CLIP NAME:  57K5/02.SYNC.01 
*A5 VOL =  +7.0 DB  PAN R100 
*SOURCE FILE: 19Y07M26
009086  19Y07M26                         A6    C        16:48:57:11 16:49:09:08 01:43:23:24 01:43:35:21 
*FROM CLIP NAME:  57K5/02.SYNC.01 
*A6 VOL =  +8.1 DB  PAN L100 
*SOURCE FILE: 19Y07M26
009087  19Y07M26                         A7    C        16:48:57:11 16:49:09:08 01:43:23:24 01:43:35:21 
*FROM CLIP NAME:  57K5/02.SYNC.01 
*PATCH 19Y07M26:  FROM SOURCE 1 TO RECORD 7 
*SOURCE FILE: 19Y07M26
009088  19Y07M26                         A8    C        16:48:57:11 16:49:09:08 01:43:23:24 01:43:35:21 
*FROM CLIP NAME:  57K5/02.SYNC.01 
*PATCH 19Y07M26:  FROM SOURCE 1 TO RECORD 8 
*SOURCE FILE: 19Y07M26
009089  19Y07M26                         A9    C        16:48:57:11 16:49:09:08 01:43:23:24 01:43:35:21 
*FROM CLIP NAME:  57K5/02.SYNC.01 
*SOURCE FILE: 19Y07M26
009090  B004C009_190726_R4CP             V     C        17:05:08:20 17:05:12:02 01:43:35:11 01:43:38:18 
*FROM CLIP NAME:  B004C009_190726_R4CP.NEW.01 
*SOURCE FILE: B004C009_190726_R4CP
009091  19Y07M26                         A     C        17:05:09:05 17:05:12:08 01:43:35:21 01:43:38:24 
*FROM CLIP NAME:  57K7/02.SYNC.01 
*SOURCE FILE: 19Y07M26
009092  19Y07M26                         A2    C        17:05:09:05 17:05:12:08 01:43:35:21 01:43:38:24 
*FROM CLIP NAME:  57K7/02.SYNC.01 
*SOURCE FILE: 19Y07M26
009093  19Y07M26                         A3    C        17:05:09:05 17:05:12:08 01:43:35:21 01:43:38:24 
*FROM CLIP NAME:  57K7/02.SYNC.01 
*SOURCE FILE: 19Y07M26
009094  19Y07M26                         A4    C        17:05:09:05 17:05:12:08 01:43:35:21 01:43:38:24 
*FROM CLIP NAME:  57K7/02.SYNC.01 
*SOURCE FILE: 19Y07M26
009095  19Y07M26                         A5    C        17:05:09:05 17:05:12:08 01:43:35:21 01:43:38:24 
*FROM CLIP NAME:  57K7/02.SYNC.01 
*SOURCE FILE: 19Y07M26
009096  19Y07M26                         A6    C        17:05:09:05 17:05:12:08 01:43:35:21 01:43:38:24 
*FROM CLIP NAME:  57K7/02.SYNC.01 
*SOURCE FILE: 19Y07M26
009097  19Y07M26                         A7    C        17:05:09:05 17:05:12:08 01:43:35:21 01:43:38:24 
*FROM CLIP NAME:  57K7/02.SYNC.01 
*PATCH 19Y07M26:  FROM SOURCE 1 TO RECORD 7 
*SOURCE FILE: 19Y07M26
009098  19Y07M26                         A8    C        17:05:09:05 17:05:12:08 01:43:35:21 01:43:38:24 
*FROM CLIP NAME:  57K7/02.SYNC.01 
*PATCH 19Y07M26:  FROM SOURCE 1 TO RECORD 8 
*SOURCE FILE: 19Y07M26
009099  B004C002_190726_R4CP             V     C        16:20:27:00 16:20:32:01 01:43:38:18 01:43:43:19 
*FROM CLIP NAME:  B004C002_190726_R4CP.NEW.01 
*SOURCE FILE: B004C002_190726_R4CP
009100  19Y07M26                         A     C        17:05:14:02 17:05:14:14 01:43:38:24 01:43:39:11 
*FROM CLIP NAME:  57K7/02.SYNC.01 
*SOURCE FILE: 19Y07M26
009101  19Y07M26                         A2    C        17:05:14:02 17:05:14:14 01:43:38:24 01:43:39:11 
*FROM CLIP NAME:  57K7/02.SYNC.01 
*SOURCE FILE: 19Y07M26
009102  19Y07M26                         A3    C        17:05:14:02 17:05:14:14 01:43:38:24 01:43:39:11 
*FROM CLIP NAME:  57K7/02.SYNC.01 
*SOURCE FILE: 19Y07M26
009103  19Y07M26                         A4    C        17:05:14:02 17:05:14:14 01:43:38:24 01:43:39:11 
*FROM CLIP NAME:  57K7/02.SYNC.01 
*SOURCE FILE: 19Y07M26
009104  19Y07M26                         A5    C        17:05:14:02 17:05:14:14 01:43:38:24 01:43:39:11 
*FROM CLIP NAME:  57K7/02.SYNC.01 
*SOURCE FILE: 19Y07M26
009105  19Y07M26                         A6    C        17:05:14:02 17:05:14:14 01:43:38:24 01:43:39:11 
*FROM CLIP NAME:  57K7/02.SYNC.01 
*SOURCE FILE: 19Y07M26
009106  19Y07M26                         A7    C        17:05:14:02 17:05:14:14 01:43:38:24 01:43:39:11 
*FROM CLIP NAME:  57K7/02.SYNC.01 
*PATCH 19Y07M26:  FROM SOURCE 1 TO RECORD 7 
*SOURCE FILE: 19Y07M26
009107  19Y07M26                         A8    C        17:05:14:02 17:05:14:14 01:43:38:24 01:43:39:11 
*FROM CLIP NAME:  57K7/02.SYNC.01 
*PATCH 19Y07M26:  FROM SOURCE 1 TO RECORD 8 
*SOURCE FILE: 19Y07M26
009108  19Y07M26                         A     C        16:20:27:18 16:20:32:01 01:43:39:11 01:43:43:19 
*FROM CLIP NAME:  57K3/02.SYNC.01 
*SOURCE FILE: 19Y07M26
009109  19Y07M26                         A2    C        16:20:27:18 16:20:32:01 01:43:39:11 01:43:43:19 
*FROM CLIP NAME:  57K3/02.SYNC.01 
*A2 VOL =  +9.5 DB  PAN L100 
*SOURCE FILE: 19Y07M26
009110  19Y07M26                         A3    C        16:20:27:18 16:20:32:01 01:43:39:11 01:43:43:19 
*FROM CLIP NAME:  57K3/02.SYNC.01 
*SOURCE FILE: 19Y07M26
009111  19Y07M26                         A4    C        16:20:27:18 16:20:32:01 01:43:39:11 01:43:43:19 
*FROM CLIP NAME:  57K3/02.SYNC.01 
*SOURCE FILE: 19Y07M26
009112  19Y07M26                         A5    C        16:20:27:18 16:20:32:01 01:43:39:11 01:43:43:19 
*FROM CLIP NAME:  57K3/02.SYNC.01 
*SOURCE FILE: 19Y07M26
009113  19Y07M26                         A6    C        16:20:27:18 16:20:32:01 01:43:39:11 01:43:43:19 
*FROM CLIP NAME:  57K3/02.SYNC.01 
*SOURCE FILE: 19Y07M26
009114  19Y07M26                         A7    C        16:20:27:18 16:20:32:01 01:43:39:11 01:43:43:19 
*FROM CLIP NAME:  57K3/02.SYNC.01 
*A7 VOL =  +9.5 DB  PAN R100 
*PATCH 19Y07M26:  FROM SOURCE 1 TO RECORD 7 
*SOURCE FILE: 19Y07M26
009115  19Y07M26                         A8    C        16:20:27:18 16:20:32:01 01:43:39:11 01:43:43:19 
*FROM CLIP NAME:  57K3/02.SYNC.01 
*PATCH 19Y07M26:  FROM SOURCE 1 TO RECORD 8 
*SOURCE FILE: 19Y07M26
009116  19Y07M26                         A9    C        16:20:27:18 16:20:32:01 01:43:39:11 01:43:43:19 
*FROM CLIP NAME:  57K3/02.SYNC.01 
*SOURCE FILE: 19Y07M26
009117  19Y07M26                         A     C        16:20:32:01 16:20:32:04 01:43:43:19 01:43:43:22 
*FROM CLIP NAME:  57K3/02.SYNC.01 
*SOURCE FILE: 19Y07M26
009118  19Y07M26                         A2    C        16:20:32:01 16:20:32:04 01:43:43:19 01:43:43:22 
*FROM CLIP NAME:  57K3/02.SYNC.01 
*SOURCE FILE: 19Y07M26
009119  19Y07M26                         A3    C        16:20:32:01 16:20:32:04 01:43:43:19 01:43:43:22 
*FROM CLIP NAME:  57K3/02.SYNC.01 
*SOURCE FILE: 19Y07M26
009120  19Y07M26                         A4    C        16:20:32:01 16:20:32:04 01:43:43:19 01:43:43:22 
*FROM CLIP NAME:  57K3/02.SYNC.01 
*SOURCE FILE: 19Y07M26
009121  19Y07M26                         A5    C        16:20:32:01 16:20:32:04 01:43:43:19 01:43:43:22 
*FROM CLIP NAME:  57K3/02.SYNC.01 
*SOURCE FILE: 19Y07M26
009122  19Y07M26                         A6    C        16:20:32:01 16:20:32:04 01:43:43:19 01:43:43:22 
*FROM CLIP NAME:  57K3/02.SYNC.01 
*SOURCE FILE: 19Y07M26
009123  19Y07M26                         A7    C        16:20:32:01 16:20:32:04 01:43:43:19 01:43:43:22 
*FROM CLIP NAME:  57K3/02.SYNC.01 
*PATCH 19Y07M26:  FROM SOURCE 1 TO RECORD 7 
*SOURCE FILE: 19Y07M26
009124  19Y07M26                         A8    C        16:20:32:01 16:20:32:04 01:43:43:19 01:43:43:22 
*FROM CLIP NAME:  57K3/02.SYNC.01 
*PATCH 19Y07M26:  FROM SOURCE 1 TO RECORD 8 
*SOURCE FILE: 19Y07M26
009125  19Y07M26                         A9    C        16:20:32:01 16:20:32:04 01:43:43:19 01:43:43:22 
*FROM CLIP NAME:  57K3/02.SYNC.01 
*SOURCE FILE: 19Y07M26
009126  A007C007_190726_R32C             V     C        17:05:16:04 17:05:19:20 01:43:43:19 01:43:47:10 
*FROM CLIP NAME:  A007C007_190726_R32C.NEW.01 
*SOURCE FILE: A007C007_190726_R32C
009127  00827.MP3                        A10   C        01:00:48:18 01:01:20:12 01:43:43:19 01:44:15:13 
*FROM CLIP NAME:  00827.MP3 
*A10 VOL = -40.0 DB  PAN L100 
*PATCH 00827.MP3:  FROM SOURCE 2 TO RECORD 10 
*SOURCE FILE: 00827.MP3
009128  00827.MP3                        A11   C        01:00:48:18 01:01:20:12 01:43:43:19 01:44:15:13 
*FROM CLIP NAME:  00827.MP3 
*A11 VOL = -40.0 DB  PAN R100 
*PATCH 00827.MP3:  FROM SOURCE 1 TO RECORD 11 
*SOURCE FILE: 00827.MP3
009129  19Y07M26                         A     C        17:05:16:07 17:05:19:16 01:43:43:22 01:43:47:06 
*FROM CLIP NAME:  57K7/02.SYNC.01 
*SOURCE FILE: 19Y07M26
009130  19Y07M26                         A2    C        17:05:16:07 17:05:19:16 01:43:43:22 01:43:47:06 
*FROM CLIP NAME:  57K7/02.SYNC.01 
*SOURCE FILE: 19Y07M26
009131  19Y07M26                         A3    C        17:05:16:07 17:05:19:16 01:43:43:22 01:43:47:06 
*FROM CLIP NAME:  57K7/02.SYNC.01 
*SOURCE FILE: 19Y07M26
009132  19Y07M26                         A4    C        17:05:16:07 17:05:19:16 01:43:43:22 01:43:47:06 
*FROM CLIP NAME:  57K7/02.SYNC.01 
*SOURCE FILE: 19Y07M26
009133  19Y07M26                         A5    C        17:05:16:07 17:05:19:16 01:43:43:22 01:43:47:06 
*FROM CLIP NAME:  57K7/02.SYNC.01 
*SOURCE FILE: 19Y07M26
009134  19Y07M26                         A6    C        17:05:16:07 17:05:19:16 01:43:43:22 01:43:47:06 
*FROM CLIP NAME:  57K7/02.SYNC.01 
*SOURCE FILE: 19Y07M26
009135  19Y07M26                         A7    C        17:05:16:07 17:05:19:16 01:43:43:22 01:43:47:06 
*FROM CLIP NAME:  57K7/02.SYNC.01 
*PATCH 19Y07M26:  FROM SOURCE 1 TO RECORD 7 
*SOURCE FILE: 19Y07M26
009136  19Y07M26                         A8    C        17:05:16:07 17:05:19:16 01:43:43:22 01:43:47:06 
*FROM CLIP NAME:  57K7/02.SYNC.01 
*PATCH 19Y07M26:  FROM SOURCE 1 TO RECORD 8 
*SOURCE FILE: 19Y07M26
009137  19Y07M26                         A     C        16:23:40:22 16:23:44:22 01:43:47:06 01:43:51:06 
*FROM CLIP NAME:  57K3/03.SYNC.01 
*SOURCE FILE: 19Y07M26
009138  19Y07M26                         A2    C        16:23:40:22 16:23:44:22 01:43:47:06 01:43:51:06 
*FROM CLIP NAME:  57K3/03.SYNC.01 
*SOURCE FILE: 19Y07M26
009139  19Y07M26                         A3    C        16:23:40:22 16:23:44:22 01:43:47:06 01:43:51:06 
*FROM CLIP NAME:  57K3/03.SYNC.01 
*SOURCE FILE: 19Y07M26
009140  19Y07M26                         A4    C        16:23:40:22 16:23:44:22 01:43:47:06 01:43:51:06 
*FROM CLIP NAME:  57K3/03.SYNC.01 
*SOURCE FILE: 19Y07M26
009141  19Y07M26                         A5    C        16:23:40:22 16:23:44:22 01:43:47:06 01:43:51:06 
*FROM CLIP NAME:  57K3/03.SYNC.01 
*SOURCE FILE: 19Y07M26
009142  19Y07M26                         A6    C        16:23:40:22 16:23:44:22 01:43:47:06 01:43:51:06 
*FROM CLIP NAME:  57K3/03.SYNC.01 
*SOURCE FILE: 19Y07M26
009143  19Y07M26                         A7    C        16:23:40:22 16:23:44:22 01:43:47:06 01:43:51:06 
*FROM CLIP NAME:  57K3/03.SYNC.01 
*PATCH 19Y07M26:  FROM SOURCE 1 TO RECORD 7 
*SOURCE FILE: 19Y07M26
009144  19Y07M26                         A8    C        16:23:40:22 16:23:44:22 01:43:47:06 01:43:51:06 
*FROM CLIP NAME:  57K3/03.SYNC.01 
*PATCH 19Y07M26:  FROM SOURCE 1 TO RECORD 8 
*SOURCE FILE: 19Y07M26
009145  19Y07M26                         A9    C        16:23:40:22 16:23:44:22 01:43:47:06 01:43:51:06 
*FROM CLIP NAME:  57K3/03.SYNC.01 
*A9 VOL =  +9.9 DB  PAN R100 
*SOURCE FILE: 19Y07M26
009146  A006C016_190726_R32C             V     C        16:23:41:01 16:23:44:19 01:43:47:10 01:43:51:03 
*FROM CLIP NAME:  A006C016_190726_R32C.NEW.01 
*SOURCE FILE: A006C016_190726_R32C
009147  A006C013_190726_R32C             V     C        15:59:53:20 16:00:02:05 01:43:51:03 01:43:59:13 
*FROM CLIP NAME:  A006C013_190726_R32C.NEW.01 
*SOURCE FILE: A006C013_190726_R32C
009148  BL                               V     C        00:00:00:00 00:00:02:14 01:43:51:06 01:43:53:20 
*SOURCE FILE: (NULL)
009149  19Y07M26                         A     C        15:59:53:23 16:00:03:00 01:43:51:06 01:44:00:08 
*FROM CLIP NAME:  57K2/01.SYNC.01 
*SOURCE FILE: 19Y07M26
009150  19Y07M26                         A2    C        15:59:53:23 16:00:03:00 01:43:51:06 01:44:00:08 
*FROM CLIP NAME:  57K2/01.SYNC.01 
*SOURCE FILE: 19Y07M26
009151  19Y07M26                         A3    C        15:59:53:23 16:00:03:00 01:43:51:06 01:44:00:08 
*FROM CLIP NAME:  57K2/01.SYNC.01 
*SOURCE FILE: 19Y07M26
009152  19Y07M26                         A4    C        15:59:53:23 16:00:03:00 01:43:51:06 01:44:00:08 
*FROM CLIP NAME:  57K2/01.SYNC.01 
*SOURCE FILE: 19Y07M26
009153  19Y07M26                         A5    C        15:59:53:23 16:00:03:00 01:43:51:06 01:44:00:08 
*FROM CLIP NAME:  57K2/01.SYNC.01 
*SOURCE FILE: 19Y07M26
009154  19Y07M26                         A6    C        15:59:53:23 16:00:03:00 01:43:51:06 01:44:00:08 
*FROM CLIP NAME:  57K2/01.SYNC.01 
*SOURCE FILE: 19Y07M26
009155  19Y07M26                         A7    C        15:59:53:23 16:00:03:00 01:43:51:06 01:44:00:08 
*FROM CLIP NAME:  57K2/01.SYNC.01 
*PATCH 19Y07M26:  FROM SOURCE 1 TO RECORD 7 
*SOURCE FILE: 19Y07M26
009156  19Y07M26                         A8    C        15:59:53:23 16:00:03:00 01:43:51:06 01:44:00:08 
*FROM CLIP NAME:  57K2/01.SYNC.01 
*PATCH 19Y07M26:  FROM SOURCE 1 TO RECORD 8 
*SOURCE FILE: 19Y07M26
009157  19Y07M26                         A9    C        15:59:53:23 16:00:03:00 01:43:51:06 01:44:00:08 
*FROM CLIP NAME:  57K2/01.SYNC.01 
*SOURCE FILE: 19Y07M26
009158  BL                               V     C        00:00:00:00 00:00:02:00 01:43:53:20 01:43:55:20 
*SOURCE FILE: (NULL)
009159  BL                               V     C        00:00:00:00 00:00:04:07 01:43:55:20 01:44:00:02 
*SOURCE FILE: (NULL)
009160  B004C003_190726_R4CP             V     C        16:24:24:00 16:24:31:23 01:43:59:13 01:44:07:11 
*FROM CLIP NAME:  B004C003_190726_R4CP.NEW.01 
*SOURCE FILE: B004C003_190726_R4CP
009161  BL                               V     C        00:00:00:00 00:00:04:17 01:44:00:02 01:44:04:19 
*SOURCE FILE: (NULL)
009162  19Y07M26                         A     C        16:24:24:20 16:24:31:07 01:44:00:08 01:44:06:20 
*FROM CLIP NAME:  57K3/03.SYNC.01 
*SOURCE FILE: 19Y07M26
009163  19Y07M26                         A2    C        16:24:24:20 16:24:31:07 01:44:00:08 01:44:06:20 
*FROM CLIP NAME:  57K3/03.SYNC.01 
*A2 VOL =  +8.0 DB  PAN L100 
*SOURCE FILE: 19Y07M26
009164  19Y07M26                         A3    C        16:24:24:20 16:24:31:07 01:44:00:08 01:44:06:20 
*FROM CLIP NAME:  57K3/03.SYNC.01 
*SOURCE FILE: 19Y07M26
009165  19Y07M26                         A4    C        16:24:24:20 16:24:31:07 01:44:00:08 01:44:06:20 
*FROM CLIP NAME:  57K3/03.SYNC.01 
*SOURCE FILE: 19Y07M26
009166  19Y07M26                         A5    C        16:24:24:20 16:24:31:07 01:44:00:08 01:44:06:20 
*FROM CLIP NAME:  57K3/03.SYNC.01 
*SOURCE FILE: 19Y07M26
009167  19Y07M26                         A6    C        16:24:24:20 16:24:31:07 01:44:00:08 01:44:06:20 
*FROM CLIP NAME:  57K3/03.SYNC.01 
*SOURCE FILE: 19Y07M26
009168  19Y07M26                         A7    C        16:24:24:20 16:24:31:07 01:44:00:08 01:44:06:20 
*FROM CLIP NAME:  57K3/03.SYNC.01 
*PATCH 19Y07M26:  FROM SOURCE 1 TO RECORD 7 
*SOURCE FILE: 19Y07M26
009169  19Y07M26                         A8    C        16:24:24:20 16:24:31:07 01:44:00:08 01:44:06:20 
*FROM CLIP NAME:  57K3/03.SYNC.01 
*A8 VOL =  +8.9 DB  PAN L100 
*PATCH 19Y07M26:  FROM SOURCE 1 TO RECORD 8 
*SOURCE FILE: 19Y07M26
009170  19Y07M26                         A9    C        16:24:24:20 16:24:31:07 01:44:00:08 01:44:06:20 
*FROM CLIP NAME:  57K3/03.SYNC.01 
*SOURCE FILE: 19Y07M26
009171  BL                               V     C        00:00:00:00 00:00:02:17 01:44:04:19 01:44:07:11 
*SOURCE FILE: (NULL)
009172  SINGO_FT._MONIA_KRüCHTEN.MP4     A12   C        01:00:00:09 01:00:08:10 01:44:05:19 01:44:13:20 
*FROM CLIP NAME:  SINGO FT. MONIA KRüCHTEN.MP4 
*A12 VOL = -18.0 DB  PAN L100 
*PATCH SINGO_FT._MONIA_KRüCHTEN.MP4:  FROM SOURCE 2 TO RECORD 12 
*SOURCE FILE: SINGO FT. MONIA KRüCHTEN.MP4
009173  SINGO_FT._MONIA_KRüCHTEN.MP4     A13   C        01:00:00:09 01:00:08:10 01:44:05:19 01:44:13:20 
*FROM CLIP NAME:  SINGO FT. MONIA KRüCHTEN.MP4 
*A13 VOL = -18.0 DB  PAN R100 
*PATCH SINGO_FT._MONIA_KRüCHTEN.MP4:  FROM SOURCE 1 TO RECORD 13 
*SOURCE FILE: SINGO FT. MONIA KRüCHTEN.MP4
009174  19Y07M26                         A     C        16:00:09:23 16:00:13:22 01:44:06:20 01:44:10:19 
*FROM CLIP NAME:  57K2/01.SYNC.01 
*SOURCE FILE: 19Y07M26
009175  19Y07M26                         A2    C        16:00:09:23 16:00:13:22 01:44:06:20 01:44:10:19 
*FROM CLIP NAME:  57K2/01.SYNC.01 
*SOURCE FILE: 19Y07M26
009176  19Y07M26                         A3    C        16:00:09:23 16:00:13:22 01:44:06:20 01:44:10:19 
*FROM CLIP NAME:  57K2/01.SYNC.01 
*SOURCE FILE: 19Y07M26
009177  19Y07M26                         A4    C        16:00:09:23 16:00:13:22 01:44:06:20 01:44:10:19 
*FROM CLIP NAME:  57K2/01.SYNC.01 
*SOURCE FILE: 19Y07M26
009178  19Y07M26                         A5    C        16:00:09:23 16:00:13:22 01:44:06:20 01:44:10:19 
*FROM CLIP NAME:  57K2/01.SYNC.01 
*SOURCE FILE: 19Y07M26
009179  19Y07M26                         A6    C        16:00:09:23 16:00:13:22 01:44:06:20 01:44:10:19 
*FROM CLIP NAME:  57K2/01.SYNC.01 
*A6 VOL =  +8.0 DB  PAN L100 
*SOURCE FILE: 19Y07M26
009180  19Y07M26                         A7    C        16:00:09:23 16:00:13:22 01:44:06:20 01:44:10:19 
*FROM CLIP NAME:  57K2/01.SYNC.01 
*PATCH 19Y07M26:  FROM SOURCE 1 TO RECORD 7 
*SOURCE FILE: 19Y07M26
009181  19Y07M26                         A8    C        16:00:09:23 16:00:13:22 01:44:06:20 01:44:10:19 
*FROM CLIP NAME:  57K2/01.SYNC.01 
*PATCH 19Y07M26:  FROM SOURCE 1 TO RECORD 8 
*SOURCE FILE: 19Y07M26
009182  19Y07M26                         A9    C        16:00:09:23 16:00:13:22 01:44:06:20 01:44:10:19 
*FROM CLIP NAME:  57K2/01.SYNC.01 
*SOURCE FILE: 19Y07M26
009183  A006C013_190726_R32C             V     C        16:00:10:14 16:00:13:22 01:44:07:11 01:44:10:19 
*FROM CLIP NAME:  A006C013_190726_R32C.NEW.01 
*SOURCE FILE: A006C013_190726_R32C
009184  BL                               V     C        00:00:00:00 00:00:08:04 01:44:07:11 01:44:15:15 
*SOURCE FILE: (NULL)
009185  B004C004_190726_R4CP             V     C        16:33:27:23 16:33:32:19 01:44:10:19 01:44:15:15 
*FROM CLIP NAME:  B004C004_190726_R4CP.NEW.01 
*SOURCE FILE: B004C004_190726_R4CP
009186  19Y07M26                         A     C        16:33:27:23 16:33:32:19 01:44:10:19 01:44:15:15 
*FROM CLIP NAME:  57K4/01.SYNC.01 
*SOURCE FILE: 19Y07M26
009187  19Y07M26                         A2    C        16:33:27:23 16:33:32:19 01:44:10:19 01:44:15:15 
*FROM CLIP NAME:  57K4/01.SYNC.01 
*SOURCE FILE: 19Y07M26
009188  19Y07M26                         A3    C        16:33:27:23 16:33:32:19 01:44:10:19 01:44:15:15 
*FROM CLIP NAME:  57K4/01.SYNC.01 
*SOURCE FILE: 19Y07M26
009189  19Y07M26                         A4    C        16:33:27:23 16:33:32:19 01:44:10:19 01:44:15:15 
*FROM CLIP NAME:  57K4/01.SYNC.01 
*SOURCE FILE: 19Y07M26
009190  19Y07M26                         A5    C        16:33:27:23 16:33:32:19 01:44:10:19 01:44:15:15 
*FROM CLIP NAME:  57K4/01.SYNC.01 
*SOURCE FILE: 19Y07M26
009191  19Y07M26                         A6    C        16:33:27:23 16:33:32:19 01:44:10:19 01:44:15:15 
*FROM CLIP NAME:  57K4/01.SYNC.01 
*A6 VOL =  +7.0 DB  PAN L100 
*SOURCE FILE: 19Y07M26
009192  19Y07M26                         A7    C        16:33:27:23 16:33:32:19 01:44:10:19 01:44:15:15 
*FROM CLIP NAME:  57K4/01.SYNC.01 
*PATCH 19Y07M26:  FROM SOURCE 1 TO RECORD 7 
*SOURCE FILE: 19Y07M26
009193  19Y07M26                         A8    C        16:33:27:23 16:33:32:19 01:44:10:19 01:44:15:15 
*FROM CLIP NAME:  57K4/01.SYNC.01 
*PATCH 19Y07M26:  FROM SOURCE 1 TO RECORD 8 
*SOURCE FILE: 19Y07M26
009194  19Y07M26                         A9    C        16:33:27:23 16:33:32:19 01:44:10:19 01:44:15:15 
*FROM CLIP NAME:  57K4/01.SYNC.01 
*SOURCE FILE: 19Y07M26
009195  SINGO_FT._MONIA_KRüCHTEN.MP4     A14   C        01:00:16:01 01:00:30:12 01:44:13:13 01:44:27:24 
*FROM CLIP NAME:  SINGO FT. MONIA KRüCHTEN.MP4 
*A14 VOL =  -9.0 DB  PAN L100 
*PATCH SINGO_FT._MONIA_KRüCHTEN.MP4:  FROM SOURCE 2 TO RECORD 14 
*SOURCE FILE: SINGO FT. MONIA KRüCHTEN.MP4
009196  SINGO_FT._MONIA_KRüCHTEN.MP4     A15   C        01:00:16:01 01:00:30:12 01:44:13:13 01:44:27:24 
*FROM CLIP NAME:  SINGO FT. MONIA KRüCHTEN.MP4 
*A15 VOL =  -9.0 DB  PAN R100 
*PATCH SINGO_FT._MONIA_KRüCHTEN.MP4:  FROM SOURCE 1 TO RECORD 15 
*SOURCE FILE: SINGO FT. MONIA KRüCHTEN.MP4
009197  SINGO_FT._MONIA_KRüCHTEN.MP4     A12   C        01:00:08:10 01:00:08:10 01:44:13:20 01:44:13:20 
009197  BL                               A12   D    004 00:00:00:00 00:00:00:04 01:44:13:20 01:44:13:24 
*FROM CLIP NAME:  SINGO FT. MONIA KRüCHTEN.MP4 
*A12 VOL = -18.0 DB  PAN L100 
*PATCH SINGO_FT._MONIA_KRüCHTEN.MP4:  FROM SOURCE 2 TO RECORD 12 
*SOURCE FILE: SINGO FT. MONIA KRüCHTEN.MP4
009198  SINGO_FT._MONIA_KRüCHTEN.MP4     A13   C        01:00:08:10 01:00:08:10 01:44:13:20 01:44:13:20 
009198  BL                               A13   D    004 00:00:00:00 00:00:00:04 01:44:13:20 01:44:13:24 
*FROM CLIP NAME:  SINGO FT. MONIA KRüCHTEN.MP4 
*A13 VOL = -18.0 DB  PAN R100 
*PATCH SINGO_FT._MONIA_KRüCHTEN.MP4:  FROM SOURCE 1 TO RECORD 13 
*SOURCE FILE: SINGO FT. MONIA KRüCHTEN.MP4
009199  M108_C002_20190729_R             V     C        11:23:33:23 11:23:40:22 01:44:15:15 01:44:21:17 
M2      M108_C002_20190729_R                      028.8 11:23:33:23 
*FROM CLIP NAME:  M108_C002_20190729_R.NEW.01 
*SOURCE FILE: M108_C002_20190729_R 
*REPAIR: FROM SOURCE TRUE SPEED IS 28.750000 FPS
009200  BL                               V     C        00:00:00:00 00:01:19:06 01:44:15:15 01:45:34:21 
*SOURCE FILE: (NULL)
009201  A011C021_190727_R32C             V     C        06:08:56:01 06:08:59:18 01:44:21:17 01:44:25:09 
*FROM CLIP NAME:  A011C021_190727_R32C.NEW.01.SUB.01 
*SOURCE FILE: A011C021_190727_R32C
009202  A010C021_190727_R32C             V     C        03:44:18:10 03:44:21:15 01:44:25:09 01:44:28:14 
*FROM CLIP NAME:  A010C021_190727_R32C.NEW.01.SUB.01 
*SOURCE FILE: A010C021_190727_R32C
009203  B002C007_190726_R4CP             A     C        10:43:38:02 10:43:39:10 01:44:27:06 01:44:28:14 
*FROM CLIP NAME:  B002C007_190726_R4CP.NEW.01.SUB.01 
*A1 VOL =  +5.0 DB  PAN R100 
*SOURCE FILE: B002C007_190726_R4CP
009204  B002C007_190726_R4CP             A2    C        10:43:38:02 10:43:39:10 01:44:27:06 01:44:28:14 
*FROM CLIP NAME:  B002C007_190726_R4CP.NEW.01.SUB.01 
*A2 VOL =  +4.0 DB  PAN L100 
*SOURCE FILE: B002C007_190726_R4CP
009205  SINGO_FT._MONIA_KRüCHTEN.MP4     A14   C        01:00:30:12 01:00:30:12 01:44:27:24 01:44:27:24 
009205  SINGO_FT._MONIA_KRüCHTEN.MP4     A14   D    025 01:00:30:12 01:00:31:12 01:44:27:24 01:44:28:24 
*FROM CLIP NAME:  SINGO FT. MONIA KRüCHTEN.MP4 
*TO CLIP NAME:  SINGO FT. MONIA KRüCHTEN.MP4 
*A14 VOL =  -9.0 DB  PAN L100 
*A14 VOL = -21.0 DB  PAN L100 
*PATCH SINGO_FT._MONIA_KRüCHTEN.MP4:  FROM SOURCE 2 TO RECORD 14 
*PATCH SINGO_FT._MONIA_KRüCHTEN.MP4:  FROM SOURCE 2 TO RECORD 14 
*SOURCE FILE: SINGO FT. MONIA KRüCHTEN.MP4
009206  SINGO_FT._MONIA_KRüCHTEN.MP4     A15   C        01:00:30:12 01:00:30:12 01:44:27:24 01:44:27:24 
009206  SINGO_FT._MONIA_KRüCHTEN.MP4     A15   D    025 01:00:30:12 01:00:31:12 01:44:27:24 01:44:28:24 
*FROM CLIP NAME:  SINGO FT. MONIA KRüCHTEN.MP4 
*TO CLIP NAME:  SINGO FT. MONIA KRüCHTEN.MP4 
*A15 VOL =  -9.0 DB  PAN R100 
*A15 VOL = -21.0 DB  PAN R100 
*PATCH SINGO_FT._MONIA_KRüCHTEN.MP4:  FROM SOURCE 1 TO RECORD 15 
*PATCH SINGO_FT._MONIA_KRüCHTEN.MP4:  FROM SOURCE 1 TO RECORD 15 
*SOURCE FILE: SINGO FT. MONIA KRüCHTEN.MP4
009207  19Y08M15                         A5    C        16:45:30:09 16:45:32:12 01:44:28:14 01:44:30:17 
*FROM CLIP NAME:  59K2/02.SYNC.01 
*PATCH 19Y08M15:  FROM SOURCE 4 TO RECORD 5 
*SOURCE FILE: 19Y08M15
009208  19Y08M15                         A6    C        16:45:30:09 16:45:32:12 01:44:28:14 01:44:30:17 
*FROM CLIP NAME:  59K2/02.SYNC.01 
*PATCH 19Y08M15:  FROM SOURCE 2 TO RECORD 6 
*SOURCE FILE: 19Y08M15
009209  19Y08M15                         A7    C        16:45:30:09 16:45:32:12 01:44:28:14 01:44:30:17 
*FROM CLIP NAME:  59K2/02.SYNC.01 
*PATCH 19Y08M15:  FROM SOURCE 1 TO RECORD 7 
*SOURCE FILE: 19Y08M15
009210  19Y08M15                         A8    C        16:45:30:09 16:45:32:12 01:44:28:14 01:44:30:17 
*FROM CLIP NAME:  59K2/02.SYNC.01 
*SOURCE FILE: 19Y08M15
009211  B002C007_190726_R4CP             V     C        10:43:39:12 10:43:42:13 01:44:28:14 01:44:31:15 
*FROM CLIP NAME:  B002C007_190726_R4CP.NEW.01.SUB.01 
*SOURCE FILE: B002C007_190726_R4CP
009212  B002C007_190726_R4CP             A     C        10:43:39:12 10:43:42:13 01:44:28:14 01:44:31:15 
*FROM CLIP NAME:  B002C007_190726_R4CP.NEW.01.SUB.01 
*A1 VOL =  +5.8 DB  PAN R100 
*SOURCE FILE: B002C007_190726_R4CP
009213  B002C007_190726_R4CP             A2    C        10:43:39:12 10:43:42:13 01:44:28:14 01:44:31:15 
*FROM CLIP NAME:  B002C007_190726_R4CP.NEW.01.SUB.01 
*A2 VOL =  +6.0 DB  PAN L100 
*SOURCE FILE: B002C007_190726_R4CP
009214  SINGO_FT._MONIA_KRüCHTEN.MP4     A14   C        01:00:31:12 01:00:51:11 01:44:28:24 01:44:48:23 
*FROM CLIP NAME:  SINGO FT. MONIA KRüCHTEN.MP4 
*A14 VOL = -21.0 DB  PAN L100 
*PATCH SINGO_FT._MONIA_KRüCHTEN.MP4:  FROM SOURCE 2 TO RECORD 14 
*SOURCE FILE: SINGO FT. MONIA KRüCHTEN.MP4
009215  SINGO_FT._MONIA_KRüCHTEN.MP4     A15   C        01:00:31:12 01:00:51:11 01:44:28:24 01:44:48:23 
*FROM CLIP NAME:  SINGO FT. MONIA KRüCHTEN.MP4 
*A15 VOL = -21.0 DB  PAN R100 
*PATCH SINGO_FT._MONIA_KRüCHTEN.MP4:  FROM SOURCE 1 TO RECORD 15 
*SOURCE FILE: SINGO FT. MONIA KRüCHTEN.MP4
009216  19Y08M15                         A5    C        16:45:56:17 16:45:59:10 01:44:30:17 01:44:33:10 
*FROM CLIP NAME:  59K2/02.SYNC.01 
*PATCH 19Y08M15:  FROM SOURCE 4 TO RECORD 5 
*SOURCE FILE: 19Y08M15
009217  19Y08M15                         A6    C        16:45:56:17 16:45:59:10 01:44:30:17 01:44:33:10 
*FROM CLIP NAME:  59K2/02.SYNC.01 
*PATCH 19Y08M15:  FROM SOURCE 2 TO RECORD 6 
*SOURCE FILE: 19Y08M15
009218  19Y08M15                         A7    C        16:45:56:17 16:45:59:10 01:44:30:17 01:44:33:10 
*FROM CLIP NAME:  59K2/02.SYNC.01 
*PATCH 19Y08M15:  FROM SOURCE 1 TO RECORD 7 
*SOURCE FILE: 19Y08M15
009219  19Y08M15                         A8    C        16:45:56:17 16:45:59:10 01:44:30:17 01:44:33:10 
*FROM CLIP NAME:  59K2/02.SYNC.01 
*SOURCE FILE: 19Y08M15
009220  MSMMMOB.54                       V     C        16:45:38:04 16:45:41:17 01:44:31:15 01:44:35:03 
M2      MSMMMOB.54                                025.0 16:45:38:04 
*FROM CLIP NAME:  A083C005_190815_R32C 
*SOURCE FILE: MSMMMOB.54
009221  19Y08M15                         A     C        16:45:38:03 16:45:41:16 01:44:31:15 01:44:35:03 
*FROM CLIP NAME:  59K2/02.SYNC.01 
*SOURCE FILE: 19Y08M15
009222  19Y08M15                         A2    C        16:45:38:03 16:45:41:16 01:44:31:15 01:44:35:03 
*FROM CLIP NAME:  59K2/02.SYNC.01 
*SOURCE FILE: 19Y08M15
009223  19Y08M15                         A3    C        16:45:38:03 16:45:41:16 01:44:31:15 01:44:35:03 
*FROM CLIP NAME:  59K2/02.SYNC.01 
*PATCH 19Y08M15:  FROM SOURCE 8 TO RECORD 3 
*SOURCE FILE: 19Y08M15
009224  19Y08M15                         A4    C        16:45:38:03 16:45:41:16 01:44:31:15 01:44:35:03 
*FROM CLIP NAME:  59K2/02.SYNC.01 
*SOURCE FILE: 19Y08M15
009225  19Y08M15                         A5    C        16:45:56:17 16:45:59:20 01:44:34:19 01:44:37:22 
*FROM CLIP NAME:  59K2/02.SYNC.01 
*PATCH 19Y08M15:  FROM SOURCE 4 TO RECORD 5 
*SOURCE FILE: 19Y08M15
009226  19Y08M15                         A6    C        16:45:56:17 16:45:59:20 01:44:34:19 01:44:37:22 
*FROM CLIP NAME:  59K2/02.SYNC.01 
*PATCH 19Y08M15:  FROM SOURCE 2 TO RECORD 6 
*SOURCE FILE: 19Y08M15
009227  19Y08M15                         A7    C        16:45:56:17 16:45:59:20 01:44:34:19 01:44:37:22 
*FROM CLIP NAME:  59K2/02.SYNC.01 
*PATCH 19Y08M15:  FROM SOURCE 1 TO RECORD 7 
*SOURCE FILE: 19Y08M15
009228  19Y08M15                         A8    C        16:45:56:17 16:45:59:20 01:44:34:19 01:44:37:22 
*FROM CLIP NAME:  59K2/02.SYNC.01 
*SOURCE FILE: 19Y08M15
009229  B002C007_190726_R4CP             V     C        10:43:45:13 10:43:50:19 01:44:35:03 01:44:40:09 
*FROM CLIP NAME:  B002C007_190726_R4CP.NEW.01.SUB.01 
*SOURCE FILE: B002C007_190726_R4CP
009230  B002C007_190726_R4CP             A     C        10:43:45:13 10:43:50:19 01:44:35:03 01:44:40:09 
*FROM CLIP NAME:  B002C007_190726_R4CP.NEW.01.SUB.01 
*A1 VOL =  +4.0 DB  PAN R100 
*SOURCE FILE: B002C007_190726_R4CP
009231  B002C007_190726_R4CP             A2    C        10:43:45:13 10:43:50:19 01:44:35:03 01:44:40:09 
*FROM CLIP NAME:  B002C007_190726_R4CP.NEW.01.SUB.01 
*A2 VOL =  +4.0 DB  PAN L100 
*SOURCE FILE: B002C007_190726_R4CP
009232  19Y08M15                         A5    C        16:45:28:22 16:45:32:12 01:44:37:22 01:44:41:12 
*FROM CLIP NAME:  59K2/02.SYNC.01 
*PATCH 19Y08M15:  FROM SOURCE 4 TO RECORD 5 
*SOURCE FILE: 19Y08M15
009233  19Y08M15                         A6    C        16:45:28:22 16:45:32:12 01:44:37:22 01:44:41:12 
*FROM CLIP NAME:  59K2/02.SYNC.01 
*PATCH 19Y08M15:  FROM SOURCE 2 TO RECORD 6 
*SOURCE FILE: 19Y08M15
009234  19Y08M15                         A7    C        16:45:28:22 16:45:32:12 01:44:37:22 01:44:41:12 
*FROM CLIP NAME:  59K2/02.SYNC.01 
*PATCH 19Y08M15:  FROM SOURCE 1 TO RECORD 7 
*SOURCE FILE: 19Y08M15
009235  19Y08M15                         A8    C        16:45:28:22 16:45:32:12 01:44:37:22 01:44:41:12 
*FROM CLIP NAME:  59K2/02.SYNC.01 
*SOURCE FILE: 19Y08M15
009236  MSMMMOB.54                       V     C        16:45:45:19 16:45:47:23 01:44:40:09 01:44:42:13 
M2      MSMMMOB.54                                025.0 16:45:45:19 
*FROM CLIP NAME:  A083C005_190815_R32C 
*SOURCE FILE: MSMMMOB.54
009237  19Y08M15                         A     C        16:45:45:18 16:45:48:01 01:44:40:09 01:44:42:17 
*FROM CLIP NAME:  59K2/02.SYNC.01 
*SOURCE FILE: 19Y08M15
009238  19Y08M15                         A2    C        16:45:45:18 16:45:48:01 01:44:40:09 01:44:42:17 
*FROM CLIP NAME:  59K2/02.SYNC.01 
*SOURCE FILE: 19Y08M15
009239  19Y08M15                         A3    C        16:45:45:18 16:45:48:01 01:44:40:09 01:44:42:17 
*FROM CLIP NAME:  59K2/02.SYNC.01 
*PATCH 19Y08M15:  FROM SOURCE 8 TO RECORD 3 
*SOURCE FILE: 19Y08M15
009240  19Y08M15                         A4    C        16:45:45:18 16:45:48:01 01:44:40:09 01:44:42:17 
*FROM CLIP NAME:  59K2/02.SYNC.01 
*SOURCE FILE: 19Y08M15
009241  19Y08M15                         A5    C        16:45:25:19 16:45:31:02 01:44:42:08 01:44:47:16 
*FROM CLIP NAME:  59K2/02.SYNC.01 
*PATCH 19Y08M15:  FROM SOURCE 4 TO RECORD 5 
*SOURCE FILE: 19Y08M15
009242  19Y08M15                         A6    C        16:45:25:19 16:45:31:02 01:44:42:08 01:44:47:16 
*FROM CLIP NAME:  59K2/02.SYNC.01 
*PATCH 19Y08M15:  FROM SOURCE 2 TO RECORD 6 
*SOURCE FILE: 19Y08M15
009243  19Y08M15                         A7    C        16:45:25:19 16:45:31:02 01:44:42:08 01:44:47:16 
*FROM CLIP NAME:  59K2/02.SYNC.01 
*PATCH 19Y08M15:  FROM SOURCE 1 TO RECORD 7 
*SOURCE FILE: 19Y08M15
009244  19Y08M15                         A8    C        16:45:25:19 16:45:31:02 01:44:42:08 01:44:47:16 
*FROM CLIP NAME:  59K2/02.SYNC.01 
*SOURCE FILE: 19Y08M15
009245  B002C007_190726_R4CP             V     C        10:43:51:20 10:43:56:23 01:44:42:13 01:44:47:16 
*FROM CLIP NAME:  B002C007_190726_R4CP.NEW.01.SUB.01 
*SOURCE FILE: B002C007_190726_R4CP
009246  B002C007_190726_R4CP             A     C        10:43:51:24 10:43:56:23 01:44:42:17 01:44:47:16 
*FROM CLIP NAME:  B002C007_190726_R4CP.NEW.01.SUB.01 
*A1 VOL =  +5.4 DB  PAN R100 
*SOURCE FILE: B002C007_190726_R4CP
009247  B002C007_190726_R4CP             A2    C        10:43:51:24 10:43:56:23 01:44:42:17 01:44:47:16 
*FROM CLIP NAME:  B002C007_190726_R4CP.NEW.01.SUB.01 
*A2 VOL =  +4.0 DB  PAN L100 
*SOURCE FILE: B002C007_190726_R4CP
009248  MSMMMOB.54                       V     C        16:45:54:02 16:45:58:13 01:44:47:16 01:44:52:02 
M2      MSMMMOB.54                                025.0 16:45:54:02 
*FROM CLIP NAME:  A083C005_190815_R32C 
*SOURCE FILE: MSMMMOB.54
009249  19Y08M15                         A     C        16:45:54:01 16:45:58:21 01:44:47:16 01:44:52:11 
*FROM CLIP NAME:  59K2/02.SYNC.01 
*SOURCE FILE: 19Y08M15
009250  19Y08M15                         A2    C        16:45:54:01 16:45:58:21 01:44:47:16 01:44:52:11 
*FROM CLIP NAME:  59K2/02.SYNC.01 
*SOURCE FILE: 19Y08M15
009251  19Y08M15                         A3    C        16:45:54:01 16:45:58:21 01:44:47:16 01:44:52:11 
*FROM CLIP NAME:  59K2/02.SYNC.01 
*PATCH 19Y08M15:  FROM SOURCE 8 TO RECORD 3 
*SOURCE FILE: 19Y08M15
009252  19Y08M15                         A4    C        16:45:54:01 16:45:58:21 01:44:47:16 01:44:52:11 
*FROM CLIP NAME:  59K2/02.SYNC.01 
*SOURCE FILE: 19Y08M15
009253  SINGO_FT._MONIA_KRüCHTEN.MP4     A14   C        01:00:51:11 01:00:51:11 01:44:48:23 01:44:48:23 
009253  SINGO_FT._MONIA_KRüCHTEN.MP4     A14   D    025 01:00:51:11 01:00:52:11 01:44:48:23 01:44:49:23 
*FROM CLIP NAME:  SINGO FT. MONIA KRüCHTEN.MP4 
*TO CLIP NAME:  SINGO FT. MONIA KRüCHTEN.MP4 
*A14 VOL = -21.0 DB  PAN L100 
*A14 VOL =  -9.0 DB  PAN L100 
*PATCH SINGO_FT._MONIA_KRüCHTEN.MP4:  FROM SOURCE 2 TO RECORD 14 
*PATCH SINGO_FT._MONIA_KRüCHTEN.MP4:  FROM SOURCE 2 TO RECORD 14 
*SOURCE FILE: SINGO FT. MONIA KRüCHTEN.MP4
009254  SINGO_FT._MONIA_KRüCHTEN.MP4     A15   C        01:00:51:11 01:00:51:11 01:44:48:23 01:44:48:23 
009254  SINGO_FT._MONIA_KRüCHTEN.MP4     A15   D    025 01:00:51:11 01:00:52:11 01:44:48:23 01:44:49:23 
*FROM CLIP NAME:  SINGO FT. MONIA KRüCHTEN.MP4 
*TO CLIP NAME:  SINGO FT. MONIA KRüCHTEN.MP4 
*A15 VOL = -21.0 DB  PAN R100 
*A15 VOL =  -9.0 DB  PAN R100 
*PATCH SINGO_FT._MONIA_KRüCHTEN.MP4:  FROM SOURCE 1 TO RECORD 15 
*PATCH SINGO_FT._MONIA_KRüCHTEN.MP4:  FROM SOURCE 1 TO RECORD 15 
*SOURCE FILE: SINGO FT. MONIA KRüCHTEN.MP4
009255  SINGO_FT._MONIA_KRüCHTEN.MP4     A14   C        01:00:52:11 01:01:26:07 01:44:49:23 01:45:23:19 
*FROM CLIP NAME:  SINGO FT. MONIA KRüCHTEN.MP4 
*A14 VOL =  -9.0 DB  PAN L100 
*PATCH SINGO_FT._MONIA_KRüCHTEN.MP4:  FROM SOURCE 2 TO RECORD 14 
*SOURCE FILE: SINGO FT. MONIA KRüCHTEN.MP4
009256  SINGO_FT._MONIA_KRüCHTEN.MP4     A15   C        01:00:52:11 01:01:26:07 01:44:49:23 01:45:23:19 
*FROM CLIP NAME:  SINGO FT. MONIA KRüCHTEN.MP4 
*A15 VOL =  -9.0 DB  PAN R100 
*PATCH SINGO_FT._MONIA_KRüCHTEN.MP4:  FROM SOURCE 1 TO RECORD 15 
*SOURCE FILE: SINGO FT. MONIA KRüCHTEN.MP4
009257  MSMMMOB.34                       V     C        16:20:40:09 16:20:43:05 01:44:52:02 01:44:54:23 
M2      MSMMMOB.34                                025.0 16:20:40:09 
*FROM CLIP NAME:  A083C001_190815_R32C 
*SOURCE FILE: MSMMMOB.34
009258  19Y08M15                         A     C        16:45:58:21 16:45:58:21 01:44:52:11 01:44:52:11 
009258  19Y08M15                         A     D    002 16:20:40:17 16:20:40:19 01:44:52:11 01:44:52:13 
*FROM CLIP NAME:  59K2/02.SYNC.01 
*TO CLIP NAME:  59K1/01.SYNC.01 
*SOURCE FILE: 19Y08M15
009259  19Y08M15                         A2    C        16:45:58:21 16:45:58:21 01:44:52:11 01:44:52:11 
009259  19Y08M15                         A2    D    002 16:20:40:17 16:20:40:19 01:44:52:11 01:44:52:13 
*FROM CLIP NAME:  59K2/02.SYNC.01 
*TO CLIP NAME:  59K1/01.SYNC.01 
*SOURCE FILE: 19Y08M15
009260  19Y08M15                         A3    C        16:45:58:21 16:45:58:21 01:44:52:11 01:44:52:11 
009260  19Y08M15                         A3    D    002 16:20:40:17 16:20:40:19 01:44:52:11 01:44:52:13 
*FROM CLIP NAME:  59K2/02.SYNC.01 
*TO CLIP NAME:  59K1/01.SYNC.01 
*PATCH 19Y08M15:  FROM SOURCE 8 TO RECORD 3 
*PATCH 19Y08M15:  FROM SOURCE 7 TO RECORD 3 
*SOURCE FILE: 19Y08M15
009261  19Y08M15                         A4    C        16:45:58:21 16:45:58:21 01:44:52:11 01:44:52:11 
009261  19Y08M15                         A4    D    002 16:20:40:17 16:20:40:19 01:44:52:11 01:44:52:13 
*FROM CLIP NAME:  59K2/02.SYNC.01 
*TO CLIP NAME:  59K1/01.SYNC.01 
*SOURCE FILE: 19Y08M15
009262  19Y08M15                         A     C        16:20:40:19 16:20:43:04 01:44:52:13 01:44:54:23 
*FROM CLIP NAME:  59K1/01.SYNC.01 
*SOURCE FILE: 19Y08M15
009263  19Y08M15                         A2    C        16:20:40:19 16:20:43:04 01:44:52:13 01:44:54:23 
*FROM CLIP NAME:  59K1/01.SYNC.01 
*SOURCE FILE: 19Y08M15
009264  19Y08M15                         A3    C        16:20:40:19 16:20:43:04 01:44:52:13 01:44:54:23 
*FROM CLIP NAME:  59K1/01.SYNC.01 
*PATCH 19Y08M15:  FROM SOURCE 7 TO RECORD 3 
*SOURCE FILE: 19Y08M15
009265  19Y08M15                         A4    C        16:20:40:19 16:20:43:04 01:44:52:13 01:44:54:23 
*FROM CLIP NAME:  59K1/01.SYNC.01 
*SOURCE FILE: 19Y08M15
009266  A010C022_190727_R32C             V     C        03:46:09:06 03:46:10:17 01:44:54:23 01:44:56:09 
*FROM CLIP NAME:  A010C022_190727_R32C.NEW.01.SUB.01 
*SOURCE FILE: A010C022_190727_R32C
009267  A010C022_190727_R32C             A     C        03:46:09:06 03:46:12:21 01:44:54:23 01:44:58:13 
*FROM CLIP NAME:  A010C022_190727_R32C.NEW.01.SUB.01 
*SOURCE FILE: A010C022_190727_R32C
009268  A010C022_190727_R32C             A2    C        03:46:09:06 03:46:12:21 01:44:54:23 01:44:58:13 
*FROM CLIP NAME:  A010C022_190727_R32C.NEW.01.SUB.01 
*SOURCE FILE: A010C022_190727_R32C
009269  A015C003_190728_R32C             V     C        15:38:03:01 15:38:04:10 01:44:56:09 01:44:57:18 
*FROM CLIP NAME:  A015C003_190728_R32C.NEW.01 
*SOURCE FILE: A015C003_190728_R32C
009270  A015C003_190728_R32C             V     C        15:39:20:03 15:39:21:18 01:44:57:18 01:44:59:08 
*FROM CLIP NAME:  A015C003_190728_R32C.NEW.01 
*SOURCE FILE: A015C003_190728_R32C
009271  A013C004_190728_R32C             V     C        13:54:13:20 13:54:18:10 01:44:59:08 01:45:03:23 
*FROM CLIP NAME:  A013C004_190728_R32C.NEW.01 
*SOURCE FILE: A013C004_190728_R32C
009272  A019C009_190729_R32C             V     C        06:05:08:15 06:05:11:14 01:45:03:23 01:45:06:22 
*FROM CLIP NAME:  A019C009_190729_R32C.NEW.01.SUB.01 
*SOURCE FILE: A019C009_190729_R32C
009273  19Y08M20                         A     C        10:17:42:01 10:17:47:05 01:45:03:23 01:45:09:02 
*FROM CLIP NAME:  60K1/05 
*SOURCE FILE: 19Y08M20
009274  19Y08M20                         A2    C        10:17:42:01 10:17:47:05 01:45:03:23 01:45:09:02 
*FROM CLIP NAME:  60K1/05 
*SOURCE FILE: 19Y08M20
009275  A019C009_190729_R32C             V     C        06:05:15:09 06:05:17:14 01:45:06:22 01:45:09:02 
*FROM CLIP NAME:  A019C009_190729_R32C.NEW.01.SUB.01 
*SOURCE FILE: A019C009_190729_R32C
009276  M108_C032_20190729_R             V     C        17:04:20:02 17:04:24:04 01:45:09:02 01:45:13:04 
*FROM CLIP NAME:  M108_C032_20190729_R.NEW.01 
*SOURCE FILE: M108_C032_20190729_R
009277  19Y08M20                         A     C        10:17:47:05 10:18:00:14 01:45:09:02 01:45:22:11 
*FROM CLIP NAME:  60K1/05 
*SOURCE FILE: 19Y08M20
009278  19Y08M20                         A2    C        10:17:47:05 10:18:00:14 01:45:09:02 01:45:22:11 
*FROM CLIP NAME:  60K1/05 
*SOURCE FILE: 19Y08M20
009279  MSMMMOB.52                       V     C        10:17:51:22 10:18:03:00 01:45:13:04 01:45:22:11 
M2      MSMMMOB.52                                030.0 10:17:51:22 
*FROM CLIP NAME:  A086C005_190820_R32C 
*SOURCE FILE: MSMMMOB.52
009280  19Y08M20                         A7    C        10:52:05:00 10:52:05:21 01:45:21:14 01:45:22:10 
*FROM CLIP NAME:  61KZ/01.SUB.01 
*PATCH 19Y08M20:  FROM SOURCE 1 TO RECORD 7 
*SOURCE FILE: 19Y08M20
009281  19Y08M20                         A8    C        10:52:05:00 10:52:05:21 01:45:21:14 01:45:22:10 
*FROM CLIP NAME:  61KZ/01.SUB.01 
*PATCH 19Y08M20:  FROM SOURCE 2 TO RECORD 8 
*SOURCE FILE: 19Y08M20
009282  19Y08M20                         A5    C        13:16:10:09 13:16:14:12 01:45:22:11 01:45:26:14 
*FROM CLIP NAME:  61K13/01 
*PATCH 19Y08M20:  FROM SOURCE 1 TO RECORD 5 
*SOURCE FILE: 19Y08M20
009283  19Y08M20                         A6    C        13:16:10:09 13:16:14:12 01:45:22:11 01:45:26:14 
*FROM CLIP NAME:  61K13/01 
*PATCH 19Y08M20:  FROM SOURCE 2 TO RECORD 6 
*SOURCE FILE: 19Y08M20
009284  MSMMMOB.24                       V     C        11:50:31:04 11:50:38:13 01:45:22:11 01:45:29:20 
M2      MSMMMOB.24                                025.0 11:50:31:04 
*FROM CLIP NAME:  A087C001_190820_R32C 
*SOURCE FILE: MSMMMOB.24
009285  19Y08M20                         A     C        11:50:31:04 11:50:38:13 01:45:22:11 01:45:29:20 
*FROM CLIP NAME:  61K5/01 
*SOURCE FILE: 19Y08M20
009286  19Y08M20                         A2    C        11:50:31:04 11:50:38:13 01:45:22:11 01:45:29:20 
*FROM CLIP NAME:  61K5/01 
*SOURCE FILE: 19Y08M20
009287  SINGO_FT._MONIA_KRüCHTEN.MP4     A12   C        01:03:21:06 01:03:24:03 01:45:23:17 01:45:26:14 
*FROM CLIP NAME:  SINGO FT. MONIA KRüCHTEN.MP4 
*A12 VOL =  -9.0 DB  PAN L98 
*PATCH SINGO_FT._MONIA_KRüCHTEN.MP4:  FROM SOURCE 2 TO RECORD 12 
*SOURCE FILE: SINGO FT. MONIA KRüCHTEN.MP4
009288  SINGO_FT._MONIA_KRüCHTEN.MP4     A13   C        01:03:21:06 01:03:24:03 01:45:23:17 01:45:26:14 
*FROM CLIP NAME:  SINGO FT. MONIA KRüCHTEN.MP4 
*A13 VOL =  -9.0 DB  PAN R100 
*PATCH SINGO_FT._MONIA_KRüCHTEN.MP4:  FROM SOURCE 1 TO RECORD 13 
*SOURCE FILE: SINGO FT. MONIA KRüCHTEN.MP4
009289  19Y08M20                         A7    C        10:52:08:10 10:52:10:07 01:45:24:07 01:45:26:04 
*FROM CLIP NAME:  61KZ/01.SUB.01 
*PATCH 19Y08M20:  FROM SOURCE 1 TO RECORD 7 
*SOURCE FILE: 19Y08M20
009290  19Y08M20                         A8    C        10:52:08:10 10:52:10:07 01:45:24:07 01:45:26:04 
*FROM CLIP NAME:  61KZ/01.SUB.01 
*PATCH 19Y08M20:  FROM SOURCE 2 TO RECORD 8 
*SOURCE FILE: 19Y08M20
009291  19Y08M20                         A     C        11:51:22:09 11:51:24:16 01:45:29:20 01:45:32:02 
*FROM CLIP NAME:  61K5/01 
*SOURCE FILE: 19Y08M20
009292  19Y08M20                         A2    C        11:51:22:09 11:51:24:16 01:45:29:20 01:45:32:02 
*FROM CLIP NAME:  61K5/01 
*SOURCE FILE: 19Y08M20
009293  MSMMMOB.71                       V     C        11:56:04:19 11:56:07:11 01:45:29:20 01:45:32:12 
M2      MSMMMOB.71                                025.0 11:56:04:19 
*FROM CLIP NAME:  A087C003_190820_R32C 
*SOURCE FILE: MSMMMOB.71
009294  19Y08M20                         A7    C        10:52:08:10 10:52:09:14 01:45:31:08 01:45:32:12 
*FROM CLIP NAME:  61KZ/01.SUB.01 
*PATCH 19Y08M20:  FROM SOURCE 1 TO RECORD 7 
*SOURCE FILE: 19Y08M20
009295  19Y08M20                         A8    C        10:52:08:10 10:52:09:14 01:45:31:08 01:45:32:12 
*FROM CLIP NAME:  61KZ/01.SUB.01 
*PATCH 19Y08M20:  FROM SOURCE 2 TO RECORD 8 
*SOURCE FILE: 19Y08M20
009296  19Y08M20                         A     C        11:51:24:16 11:51:24:16 01:45:32:02 01:45:32:02 
009296  19Y08M20                         A     D    002 11:51:15:11 11:51:15:13 01:45:32:02 01:45:32:04 
*FROM CLIP NAME:  61K5/01 
*TO CLIP NAME:  61K5/01 
*SOURCE FILE: 19Y08M20
009297  19Y08M20                         A2    C        11:51:24:16 11:51:24:16 01:45:32:02 01:45:32:02 
009297  19Y08M20                         A2    D    002 11:51:15:11 11:51:15:13 01:45:32:02 01:45:32:04 
*FROM CLIP NAME:  61K5/01 
*TO CLIP NAME:  61K5/01 
*SOURCE FILE: 19Y08M20
009298  19Y08M20                         A     C        11:51:15:13 11:51:15:21 01:45:32:04 01:45:32:12 
*FROM CLIP NAME:  61K5/01 
*SOURCE FILE: 19Y08M20
009299  19Y08M20                         A2    C        11:51:15:13 11:51:15:21 01:45:32:04 01:45:32:12 
*FROM CLIP NAME:  61K5/01 
*SOURCE FILE: 19Y08M20
009300  MSMMMOB.24                       V     C        11:50:40:18 11:50:42:20 01:45:32:12 01:45:34:14 
M2      MSMMMOB.24                                025.0 11:50:40:18 
*FROM CLIP NAME:  A087C001_190820_R32C 
*SOURCE FILE: MSMMMOB.24
009301  19Y08M20                         A     C        11:50:40:18 11:50:42:20 01:45:32:12 01:45:34:14 
*FROM CLIP NAME:  61K5/01 
*SOURCE FILE: 19Y08M20
009302  19Y08M20                         A2    C        11:50:40:18 11:50:42:20 01:45:32:12 01:45:34:14 
*FROM CLIP NAME:  61K5/01 
*SOURCE FILE: 19Y08M20
009303  19Y08M20                         A7    C        10:52:08:10 10:52:09:05 01:45:34:04 01:45:34:24 
*FROM CLIP NAME:  61KZ/01.SUB.01 
*PATCH 19Y08M20:  FROM SOURCE 1 TO RECORD 7 
*SOURCE FILE: 19Y08M20
009304  19Y08M20                         A8    C        10:52:08:10 10:52:09:05 01:45:34:04 01:45:34:24 
*FROM CLIP NAME:  61KZ/01.SUB.01 
*PATCH 19Y08M20:  FROM SOURCE 2 TO RECORD 8 
*SOURCE FILE: 19Y08M20
009305  MSMMMOB.38                       V     C        11:28:16:02 11:28:17:20 01:45:34:14 01:45:36:07 
M2      MSMMMOB.38                                025.0 11:28:16:02 
*FROM CLIP NAME:  A086C008_190820_R32C 
*SOURCE FILE: MSMMMOB.38
009306  19Y08M20                         A     C        11:28:16:02 11:28:18:05 01:45:34:14 01:45:36:17 
*FROM CLIP NAME:  61K3/01 
*SOURCE FILE: 19Y08M20
009307  19Y08M20                         A2    C        11:28:16:02 11:28:18:05 01:45:34:14 01:45:36:17 
*FROM CLIP NAME:  61K3/01 
*SOURCE FILE: 19Y08M20
009308  19Y08M20                         A3    C        11:28:16:02 11:28:18:05 01:45:34:14 01:45:36:17 
*FROM CLIP NAME:  61K3/01 
*PATCH 19Y08M20:  FROM SOURCE 5 TO RECORD 3 
*SOURCE FILE: 19Y08M20
009309  19Y08M20                         A4    C        11:28:16:02 11:28:18:05 01:45:34:14 01:45:36:17 
*FROM CLIP NAME:  61K3/01 
*SOURCE FILE: 19Y08M20
009310  BL                               V     C        00:00:00:00 00:00:01:11 01:45:34:21 01:45:36:07 
*SOURCE FILE: (NULL)
009311  MSMMMOB.30                       V     C        12:08:35:18 12:08:37:13 01:45:36:07 01:45:38:02 
M2      MSMMMOB.30                                025.0 12:08:35:18 
*FROM CLIP NAME:  A087C005_190820_R32C 
*SOURCE FILE: MSMMMOB.30
009312  BL                               V     C        00:00:00:00 00:00:17:23 01:45:36:07 01:45:54:05 
*SOURCE FILE: (NULL)
009313  19Y08M20                         A     C        12:08:36:03 12:08:37:13 01:45:36:17 01:45:38:02 
*FROM CLIP NAME:  61K7/02 
*SOURCE FILE: 19Y08M20
009314  19Y08M20                         A2    C        12:08:36:03 12:08:37:13 01:45:36:17 01:45:38:02 
*FROM CLIP NAME:  61K7/02 
*SOURCE FILE: 19Y08M20
009315  19Y08M20                         A7    C        10:52:08:10 10:52:09:01 01:45:37:21 01:45:38:12 
*FROM CLIP NAME:  61KZ/01.SUB.01 
*PATCH 19Y08M20:  FROM SOURCE 1 TO RECORD 7 
*SOURCE FILE: 19Y08M20
009316  19Y08M20                         A8    C        10:52:08:10 10:52:09:01 01:45:37:21 01:45:38:12 
*FROM CLIP NAME:  61KZ/01.SUB.01 
*PATCH 19Y08M20:  FROM SOURCE 2 TO RECORD 8 
*SOURCE FILE: 19Y08M20
009317  MSMMMOB.12                       V     C        12:11:03:18 12:11:05:01 01:45:38:02 01:45:39:10 
M2      MSMMMOB.12                                025.0 12:11:03:18 
*FROM CLIP NAME:  A087C006_190820_R32C 
*SOURCE FILE: MSMMMOB.12
009318  19Y08M20                         A     C        12:11:03:18 12:11:05:01 01:45:38:02 01:45:39:10 
*FROM CLIP NAME:  61K8/01 
*SOURCE FILE: 19Y08M20
009319  19Y08M20                         A2    C        12:11:03:18 12:11:05:01 01:45:38:02 01:45:39:10 
*FROM CLIP NAME:  61K8/01 
*SOURCE FILE: 19Y08M20
009320  MSMMMOB.12                       V     C        12:11:06:07 12:11:08:10 01:45:39:10 01:45:41:13 
M2      MSMMMOB.12                                025.0 12:11:06:07 
*FROM CLIP NAME:  A087C006_190820_R32C 
*SOURCE FILE: MSMMMOB.12
009321  19Y08M20                         A     C        12:11:06:07 12:11:08:10 01:45:39:10 01:45:41:13 
*FROM CLIP NAME:  61K8/01 
*SOURCE FILE: 19Y08M20
009322  19Y08M20                         A2    C        12:11:06:07 12:11:08:10 01:45:39:10 01:45:41:13 
*FROM CLIP NAME:  61K8/01 
*SOURCE FILE: 19Y08M20
009323  19Y08M20                         A7    C        10:52:01:04 10:52:01:24 01:45:40:15 01:45:41:10 
*FROM CLIP NAME:  61KZ/01.SUB.01 
*PATCH 19Y08M20:  FROM SOURCE 1 TO RECORD 7 
*SOURCE FILE: 19Y08M20
009324  19Y08M20                         A8    C        10:52:01:04 10:52:01:24 01:45:40:15 01:45:41:10 
*FROM CLIP NAME:  61KZ/01.SUB.01 
*PATCH 19Y08M20:  FROM SOURCE 2 TO RECORD 8 
*SOURCE FILE: 19Y08M20
009325  MSMMMOB.12                       V     C        12:11:11:06 12:11:14:13 01:45:41:13 01:45:44:20 
M2      MSMMMOB.12                                025.0 12:11:11:06 
*FROM CLIP NAME:  A087C006_190820_R32C 
*SOURCE FILE: MSMMMOB.12
009326  19Y08M20                         A     C        12:11:11:06 12:11:14:13 01:45:41:13 01:45:44:20 
*FROM CLIP NAME:  61K8/01 
*SOURCE FILE: 19Y08M20
009327  19Y08M20                         A2    C        12:11:11:06 12:11:14:13 01:45:41:13 01:45:44:20 
*FROM CLIP NAME:  61K8/01 
*SOURCE FILE: 19Y08M20
009328  MSMMMOB.83                       V     C        12:21:56:19 12:21:58:02 01:45:44:20 01:45:46:03 
M2      MSMMMOB.83                                025.0 12:21:56:19 
*FROM CLIP NAME:  A087C008_190820_R32C 
*SOURCE FILE: MSMMMOB.83
009329  19Y08M20                         A     C        12:21:56:18 12:21:58:01 01:45:44:20 01:45:46:03 
*FROM CLIP NAME:  61K9/02 
*SOURCE FILE: 19Y08M20
009330  19Y08M20                         A2    C        12:21:56:18 12:21:58:01 01:45:44:20 01:45:46:03 
*FROM CLIP NAME:  61K9/02 
*SOURCE FILE: 19Y08M20
009331  19Y08M20                         A7    C        10:52:01:04 10:52:01:24 01:45:44:23 01:45:45:18 
*FROM CLIP NAME:  61KZ/01.SUB.01 
*PATCH 19Y08M20:  FROM SOURCE 1 TO RECORD 7 
*SOURCE FILE: 19Y08M20
009332  19Y08M20                         A8    C        10:52:01:04 10:52:01:24 01:45:44:23 01:45:45:18 
*FROM CLIP NAME:  61KZ/01.SUB.01 
*PATCH 19Y08M20:  FROM SOURCE 2 TO RECORD 8 
*SOURCE FILE: 19Y08M20
009333  19Y08M20                         A     C        12:21:59:19 12:22:01:03 01:45:46:03 01:45:47:12 
*FROM CLIP NAME:  61K9/02 
*SOURCE FILE: 19Y08M20
009334  19Y08M20                         A2    C        12:21:59:19 12:22:01:03 01:45:46:03 01:45:47:12 
*FROM CLIP NAME:  61K9/02 
*SOURCE FILE: 19Y08M20
009335  MSMMMOB.83                       V     C        12:21:59:20 12:22:01:19 01:45:46:03 01:45:48:02 
M2      MSMMMOB.83                                025.0 12:21:59:20 
*FROM CLIP NAME:  A087C008_190820_R32C 
*SOURCE FILE: MSMMMOB.83
009336  19Y08M20                         A     C        12:08:50:24 12:08:51:14 01:45:47:12 01:45:48:02 
*FROM CLIP NAME:  61K7/02 
*SOURCE FILE: 19Y08M20
009337  19Y08M20                         A2    C        12:08:50:24 12:08:51:14 01:45:47:12 01:45:48:02 
*FROM CLIP NAME:  61K7/02 
*SOURCE FILE: 19Y08M20
009338  19Y08M20                         A7    C        10:52:08:08 10:52:09:01 01:45:47:23 01:45:48:16 
*FROM CLIP NAME:  61KZ/01.SUB.01 
*PATCH 19Y08M20:  FROM SOURCE 1 TO RECORD 7 
*SOURCE FILE: 19Y08M20
009339  19Y08M20                         A8    C        10:52:08:08 10:52:09:01 01:45:47:23 01:45:48:16 
*FROM CLIP NAME:  61KZ/01.SUB.01 
*PATCH 19Y08M20:  FROM SOURCE 2 TO RECORD 8 
*SOURCE FILE: 19Y08M20
009340  MSMMMOB.30                       V     C        12:08:51:19 12:08:53:01 01:45:48:02 01:45:49:09 
M2      MSMMMOB.30                                025.0 12:08:51:19 
*FROM CLIP NAME:  A087C005_190820_R32C 
*SOURCE FILE: MSMMMOB.30
009341  19Y08M20                         A     C        12:08:51:19 12:08:53:01 01:45:48:02 01:45:49:09 
*FROM CLIP NAME:  61K7/02 
*SOURCE FILE: 19Y08M20
009342  19Y08M20                         A2    C        12:08:51:19 12:08:53:01 01:45:48:02 01:45:49:09 
*FROM CLIP NAME:  61K7/02 
*SOURCE FILE: 19Y08M20
009343  MSMMMOB.83                       V     C        12:22:10:09 12:22:12:11 01:45:49:09 01:45:51:11 
M2      MSMMMOB.83                                025.0 12:22:10:09 
*FROM CLIP NAME:  A087C008_190820_R32C 
*SOURCE FILE: MSMMMOB.83
009344  19Y08M20                         A     C        12:22:10:08 12:22:12:10 01:45:49:09 01:45:51:11 
*FROM CLIP NAME:  61K9/02 
*SOURCE FILE: 19Y08M20
009345  19Y08M20                         A2    C        12:22:10:08 12:22:12:10 01:45:49:09 01:45:51:11 
*FROM CLIP NAME:  61K9/02 
*SOURCE FILE: 19Y08M20
009346  19Y08M20                         A3    C        12:39:42:19 12:39:45:13 01:45:51:11 01:45:54:05 
*FROM CLIP NAME:  61K10/03 
*PATCH 19Y08M20:  FROM SOURCE 1 TO RECORD 3 
*SOURCE FILE: 19Y08M20
009347  19Y08M20                         A4    C        12:39:42:19 12:39:45:13 01:45:51:11 01:45:54:05 
*FROM CLIP NAME:  61K10/03 
*A4 VOL = -15.5 DB  PAN L100 
*SOURCE FILE: 19Y08M20
009348  19Y08M20                         A5    C        12:39:42:19 12:39:45:13 01:45:51:11 01:45:54:05 
*FROM CLIP NAME:  61K10/03 
*A5 VOL = -19.4 DB  PAN R100 
*SOURCE FILE: 19Y08M20
009349  19Y08M20                         A6    C        12:39:42:19 12:39:45:13 01:45:51:11 01:45:54:05 
*FROM CLIP NAME:  61K10/03 
*PATCH 19Y08M20:  FROM SOURCE 2 TO RECORD 6 
*SOURCE FILE: 19Y08M20
009350  MSMMMOB.30                       V     C        12:09:15:03 12:09:20:16 01:45:51:11 01:45:56:24 
M2      MSMMMOB.30                                025.0 12:09:15:03 
*FROM CLIP NAME:  A087C005_190820_R32C 
*SOURCE FILE: MSMMMOB.30
009351  19Y08M20                         A     C        12:09:15:03 12:09:21:01 01:45:51:11 01:45:57:09 
*FROM CLIP NAME:  61K7/02 
*SOURCE FILE: 19Y08M20
009352  19Y08M20                         A2    C        12:09:15:03 12:09:21:01 01:45:51:11 01:45:57:09 
*FROM CLIP NAME:  61K7/02 
*SOURCE FILE: 19Y08M20
009353  BL                               V     C        00:00:00:00 00:00:06:07 01:45:54:05 01:46:00:12 
*SOURCE FILE: (NULL)
009354  19Y08M20                         A7    C        10:52:08:22 10:52:10:08 01:45:55:19 01:45:57:05 
*FROM CLIP NAME:  61KZ/01.SUB.01 
*PATCH 19Y08M20:  FROM SOURCE 1 TO RECORD 7 
*SOURCE FILE: 19Y08M20
009355  19Y08M20                         A8    C        10:52:08:22 10:52:10:08 01:45:55:19 01:45:57:05 
*FROM CLIP NAME:  61KZ/01.SUB.01 
*PATCH 19Y08M20:  FROM SOURCE 2 TO RECORD 8 
*SOURCE FILE: 19Y08M20
009356  19Y08M20                         A3    C        11:39:18:18 11:39:20:23 01:45:56:24 01:45:59:04 
*FROM CLIP NAME:  61K3/03 
*PATCH 19Y08M20:  FROM SOURCE 5 TO RECORD 3 
*SOURCE FILE: 19Y08M20
009357  19Y08M20                         A4    C        11:39:18:18 11:39:20:23 01:45:56:24 01:45:59:04 
*FROM CLIP NAME:  61K3/03 
*SOURCE FILE: 19Y08M20
009358  MSMMMOB.42                       V     C        11:39:18:18 11:39:23:08 01:45:56:24 01:46:01:14 
M2      MSMMMOB.42                                025.0 11:39:18:18 
*FROM CLIP NAME:  A086C010_190820_R32C 
*SOURCE FILE: MSMMMOB.42
009359  19Y08M20                         A     C        11:39:19:03 11:39:20:23 01:45:57:09 01:45:59:04 
*FROM CLIP NAME:  61K3/03 
*SOURCE FILE: 19Y08M20
009360  19Y08M20                         A2    C        11:39:19:03 11:39:20:23 01:45:57:09 01:45:59:04 
*FROM CLIP NAME:  61K3/03 
*SOURCE FILE: 19Y08M20
009361  19Y08M20                         A     C        12:39:41:10 12:39:42:19 01:45:59:04 01:46:00:13 
*FROM CLIP NAME:  61K10/03 
*SOURCE FILE: 19Y08M20
009362  19Y08M20                         A2    C        12:39:41:10 12:39:42:19 01:45:59:04 01:46:00:13 
*FROM CLIP NAME:  61K10/03 
*SOURCE FILE: 19Y08M20
009363  19Y08M20                         A3    C        12:39:41:10 12:39:42:19 01:45:59:04 01:46:00:13 
*FROM CLIP NAME:  61K10/03 
*PATCH 19Y08M20:  FROM SOURCE 5 TO RECORD 3 
*SOURCE FILE: 19Y08M20
009364  19Y08M20                         A4    C        12:39:41:10 12:39:42:19 01:45:59:04 01:46:00:13 
*FROM CLIP NAME:  61K10/03 
*SOURCE FILE: 19Y08M20
009365  19Y08M20                         A7    C        10:52:08:08 10:52:09:01 01:45:59:05 01:45:59:23 
*FROM CLIP NAME:  61KZ/01.SUB.01 
*PATCH 19Y08M20:  FROM SOURCE 1 TO RECORD 7 
*SOURCE FILE: 19Y08M20
009366  19Y08M20                         A8    C        10:52:08:08 10:52:09:01 01:45:59:05 01:45:59:23 
*FROM CLIP NAME:  61KZ/01.SUB.01 
*PATCH 19Y08M20:  FROM SOURCE 2 TO RECORD 8 
*SOURCE FILE: 19Y08M20
009367  BL                               V     C        00:00:00:00 00:00:00:01 01:46:00:12 01:46:00:13 
*SOURCE FILE: (NULL)
009368  BL                               V     C        00:00:00:00 00:00:07:21 01:46:00:13 01:46:08:09 
*SOURCE FILE: (NULL)
009369  MSMMMOB.63                       V     C        12:39:43:20 12:39:45:16 01:46:01:14 01:46:03:10 
M2      MSMMMOB.63                                025.0 12:39:43:20 
*FROM CLIP NAME:  A087C011_190820_R32C 
*SOURCE FILE: MSMMMOB.63
009370  MSMMMOB.42                       V     C        11:39:24:05 11:39:29:06 01:46:03:10 01:46:08:11 
M2      MSMMMOB.42                                025.0 11:39:24:05 
*FROM CLIP NAME:  A086C010_190820_R32C 
*SOURCE FILE: MSMMMOB.42
009371  19Y08M20                         A7    C        10:52:08:10 10:52:09:20 01:46:06:11 01:46:07:21 
*FROM CLIP NAME:  61KZ/01.SUB.01 
*PATCH 19Y08M20:  FROM SOURCE 1 TO RECORD 7 
*SOURCE FILE: 19Y08M20
009372  19Y08M20                         A8    C        10:52:08:10 10:52:09:20 01:46:06:11 01:46:07:21 
*FROM CLIP NAME:  61KZ/01.SUB.01 
*PATCH 19Y08M20:  FROM SOURCE 2 TO RECORD 8 
*SOURCE FILE: 19Y08M20
009373  BL                               V     C        00:00:00:00 00:00:56:03 01:46:08:09 01:47:04:12 
*SOURCE FILE: (NULL)
009374  MSMMMOB.47                       V     C        13:30:09:07 13:30:14:22 01:46:08:11 01:46:14:01 
M2      MSMMMOB.47                                025.0 13:30:09:07 
*FROM CLIP NAME:  A088C009_190820_R32C 
*SOURCE FILE: MSMMMOB.47
009375  19Y08M20                         A     C        13:30:09:06 13:30:14:21 01:46:08:11 01:46:14:01 
*FROM CLIP NAME:  61K14/02 
*SOURCE FILE: 19Y08M20
009376  19Y08M20                         A2    C        13:30:09:06 13:30:14:21 01:46:08:11 01:46:14:01 
*FROM CLIP NAME:  61K14/02 
*PATCH 19Y08M20:  FROM SOURCE 4 TO RECORD 2 
*SOURCE FILE: 19Y08M20
009377  19Y08M20                         A3    C        13:30:09:06 13:30:14:21 01:46:08:11 01:46:14:01 
*FROM CLIP NAME:  61K14/02 
*PATCH 19Y08M20:  FROM SOURCE 5 TO RECORD 3 
*SOURCE FILE: 19Y08M20
009378  19Y08M20                         A4    C        13:30:09:06 13:30:14:21 01:46:08:11 01:46:14:01 
*FROM CLIP NAME:  61K14/02 
*PATCH 19Y08M20:  FROM SOURCE 2 TO RECORD 4 
*SOURCE FILE: 19Y08M20
009379  MSMMMOB.38                       V     C        11:28:56:05 11:28:58:20 01:46:14:01 01:46:16:16 
M2      MSMMMOB.38                                025.0 11:28:56:05 
*FROM CLIP NAME:  A086C008_190820_R32C 
*SOURCE FILE: MSMMMOB.38
009380  19Y08M20                         A     C        11:28:56:05 11:28:58:20 01:46:14:01 01:46:16:16 
*FROM CLIP NAME:  61K3/01 
*SOURCE FILE: 19Y08M20
009381  19Y08M20                         A2    C        11:28:56:05 11:28:58:20 01:46:14:01 01:46:16:16 
*FROM CLIP NAME:  61K3/01 
*SOURCE FILE: 19Y08M20
009382  19Y08M20                         A3    C        11:28:56:05 11:28:58:20 01:46:14:01 01:46:16:16 
*FROM CLIP NAME:  61K3/01 
*PATCH 19Y08M20:  FROM SOURCE 5 TO RECORD 3 
*SOURCE FILE: 19Y08M20
009383  19Y08M20                         A4    C        11:28:56:05 11:28:58:20 01:46:14:01 01:46:16:16 
*FROM CLIP NAME:  61K3/01 
*SOURCE FILE: 19Y08M20
009384  MSMMMOB.63                       V     C        12:39:59:17 12:40:06:03 01:46:16:16 01:46:23:02 
M2      MSMMMOB.63                                025.0 12:39:59:17 
*FROM CLIP NAME:  A087C011_190820_R32C 
*SOURCE FILE: MSMMMOB.63
009385  19Y08M20                         A     C        12:39:59:17 12:40:06:03 01:46:16:16 01:46:23:02 
*FROM CLIP NAME:  61K10/03 
*SOURCE FILE: 19Y08M20
009386  19Y08M20                         A2    C        12:39:59:17 12:40:06:03 01:46:16:16 01:46:23:02 
*FROM CLIP NAME:  61K10/03 
*SOURCE FILE: 19Y08M20
009387  19Y08M20                         A3    C        12:39:59:17 12:40:06:03 01:46:16:16 01:46:23:02 
*FROM CLIP NAME:  61K10/03 
*PATCH 19Y08M20:  FROM SOURCE 5 TO RECORD 3 
*SOURCE FILE: 19Y08M20
009388  19Y08M20                         A4    C        12:39:59:17 12:40:06:03 01:46:16:16 01:46:23:02 
*FROM CLIP NAME:  61K10/03 
*SOURCE FILE: 19Y08M20
009389  MSMMMOB.38                       V     C        11:28:58:20 11:29:03:19 01:46:23:02 01:46:28:01 
M2      MSMMMOB.38                                025.0 11:28:58:20 
*FROM CLIP NAME:  A086C008_190820_R32C 
*SOURCE FILE: MSMMMOB.38
009390  19Y08M20                         A     C        11:28:58:20 11:29:03:19 01:46:23:02 01:46:28:01 
*FROM CLIP NAME:  61K3/01 
*SOURCE FILE: 19Y08M20
009391  19Y08M20                         A2    C        11:28:58:20 11:29:03:19 01:46:23:02 01:46:28:01 
*FROM CLIP NAME:  61K3/01 
*SOURCE FILE: 19Y08M20
009392  19Y08M20                         A3    C        11:28:58:20 11:29:03:19 01:46:23:02 01:46:28:01 
*FROM CLIP NAME:  61K3/01 
*PATCH 19Y08M20:  FROM SOURCE 5 TO RECORD 3 
*SOURCE FILE: 19Y08M20
009393  19Y08M20                         A4    C        11:28:58:20 11:29:03:19 01:46:23:02 01:46:28:01 
*FROM CLIP NAME:  61K3/01 
*SOURCE FILE: 19Y08M20
009394  19Y08M20                         A7    C        10:52:08:08 10:52:09:01 01:46:23:03 01:46:23:21 
*FROM CLIP NAME:  61KZ/01.SUB.01 
*PATCH 19Y08M20:  FROM SOURCE 1 TO RECORD 7 
*SOURCE FILE: 19Y08M20
009395  19Y08M20                         A8    C        10:52:08:08 10:52:09:01 01:46:23:03 01:46:23:21 
*FROM CLIP NAME:  61KZ/01.SUB.01 
*PATCH 19Y08M20:  FROM SOURCE 2 TO RECORD 8 
*SOURCE FILE: 19Y08M20
009396  MSMMMOB.41                       V     C        12:56:50:01 12:56:54:04 01:46:28:01 01:46:32:04 
M2      MSMMMOB.41                                025.0 12:56:50:01 
*FROM CLIP NAME:  A088C005_190820_R32C 
*SOURCE FILE: MSMMMOB.41
009397  19Y08M20                         A     C        12:56:50:00 12:56:54:03 01:46:28:01 01:46:32:04 
*FROM CLIP NAME:  61K11/05 
*SOURCE FILE: 19Y08M20
009398  19Y08M20                         A2    C        12:56:50:00 12:56:54:03 01:46:28:01 01:46:32:04 
*FROM CLIP NAME:  61K11/05 
*SOURCE FILE: 19Y08M20
009399  19Y08M20                         A3    C        12:56:50:00 12:56:54:03 01:46:28:01 01:46:32:04 
*FROM CLIP NAME:  61K11/05 
*PATCH 19Y08M20:  FROM SOURCE 5 TO RECORD 3 
*SOURCE FILE: 19Y08M20
009400  19Y08M20                         A4    C        12:56:50:00 12:56:54:03 01:46:28:01 01:46:32:04 
*FROM CLIP NAME:  61K11/05 
*SOURCE FILE: 19Y08M20
009401  19Y08M20                         A5    C        13:15:59:10 13:16:03:13 01:46:28:01 01:46:32:04 
*FROM CLIP NAME:  61K13/01 
*PATCH 19Y08M20:  FROM SOURCE 1 TO RECORD 5 
*SOURCE FILE: 19Y08M20
009402  19Y08M20                         A6    C        13:15:59:10 13:16:03:13 01:46:28:01 01:46:32:04 
*FROM CLIP NAME:  61K13/01 
*PATCH 19Y08M20:  FROM SOURCE 2 TO RECORD 6 
*SOURCE FILE: 19Y08M20
009403  MSMMMOB.67                       V     C        13:05:02:02 13:05:05:19 01:46:32:04 01:46:35:21 
M2      MSMMMOB.67                                025.0 13:05:02:02 
*FROM CLIP NAME:  A088C006_190820_R32C 
*SOURCE FILE: MSMMMOB.67
009404  19Y08M20                         A     C        13:15:55:18 13:15:59:10 01:46:32:04 01:46:35:21 
*FROM CLIP NAME:  61K13/01 
*SOURCE FILE: 19Y08M20
009405  19Y08M20                         A2    C        13:15:55:18 13:15:59:10 01:46:32:04 01:46:35:21 
*FROM CLIP NAME:  61K13/01 
*SOURCE FILE: 19Y08M20
009406  19Y08M20                         A5    C        13:16:08:06 13:16:11:23 01:46:32:04 01:46:35:21 
*FROM CLIP NAME:  61K13/01 
*PATCH 19Y08M20:  FROM SOURCE 1 TO RECORD 5 
*SOURCE FILE: 19Y08M20
009407  19Y08M20                         A6    C        13:16:08:06 13:16:11:23 01:46:32:04 01:46:35:21 
*FROM CLIP NAME:  61K13/01 
*PATCH 19Y08M20:  FROM SOURCE 2 TO RECORD 6 
*SOURCE FILE: 19Y08M20
009408  19Y08M20                         A7    C        13:16:22:20 13:16:26:12 01:46:32:04 01:46:35:21 
*FROM CLIP NAME:  61K13/01 
*PATCH 19Y08M20:  FROM SOURCE 1 TO RECORD 7 
*SOURCE FILE: 19Y08M20
009409  19Y08M20                         A8    C        13:16:22:20 13:16:26:12 01:46:32:04 01:46:35:21 
*FROM CLIP NAME:  61K13/01 
*PATCH 19Y08M20:  FROM SOURCE 2 TO RECORD 8 
*SOURCE FILE: 19Y08M20
009410  19Y08M20                         A3    C        10:52:06:06 10:52:06:21 01:46:35:00 01:46:35:15 
*FROM CLIP NAME:  61KZ/01.SUB.01 
*PATCH 19Y08M20:  FROM SOURCE 1 TO RECORD 3 
*SOURCE FILE: 19Y08M20
009411  19Y08M20                         A4    C        10:52:06:06 10:52:06:21 01:46:35:00 01:46:35:15 
*FROM CLIP NAME:  61KZ/01.SUB.01 
*PATCH 19Y08M20:  FROM SOURCE 2 TO RECORD 4 
*SOURCE FILE: 19Y08M20
009412  MSMMMOB.77                       V     C        12:54:14:10 12:54:19:03 01:46:35:21 01:46:40:14 
M2      MSMMMOB.77                                025.0 12:54:14:10 
*FROM CLIP NAME:  A088C003_190820_R32C 
*SOURCE FILE: MSMMMOB.77
009413  19Y08M20                         A     C        12:54:14:09 12:54:19:02 01:46:35:21 01:46:40:14 
*FROM CLIP NAME:  61K11/03 
*SOURCE FILE: 19Y08M20
009414  19Y08M20                         A2    C        12:54:14:09 12:54:19:02 01:46:35:21 01:46:40:14 
*FROM CLIP NAME:  61K11/03 
*SOURCE FILE: 19Y08M20
009415  19Y08M20                         A3    C        12:54:14:09 12:54:19:02 01:46:35:21 01:46:40:14 
*FROM CLIP NAME:  61K11/03 
*PATCH 19Y08M20:  FROM SOURCE 4 TO RECORD 3 
*SOURCE FILE: 19Y08M20
009416  19Y08M20                         A4    C        12:54:14:09 12:54:19:02 01:46:35:21 01:46:40:14 
*FROM CLIP NAME:  61K11/03 
*PATCH 19Y08M20:  FROM SOURCE 5 TO RECORD 4 
*SOURCE FILE: 19Y08M20
009417  19Y08M20                         A5    C        13:16:14:19 13:16:19:12 01:46:35:21 01:46:40:14 
*FROM CLIP NAME:  61K13/01 
*PATCH 19Y08M20:  FROM SOURCE 1 TO RECORD 5 
*SOURCE FILE: 19Y08M20
009418  19Y08M20                         A6    C        13:16:14:19 13:16:19:12 01:46:35:21 01:46:40:14 
*FROM CLIP NAME:  61K13/01 
*PATCH 19Y08M20:  FROM SOURCE 2 TO RECORD 6 
*SOURCE FILE: 19Y08M20
009419  MSMMMOB.05                       V     C        13:16:20:04 13:16:22:23 01:46:40:14 01:46:43:08 
M2      MSMMMOB.05                                025.0 13:16:20:04 
*FROM CLIP NAME:  A088C007_190820_R32C 
*SOURCE FILE: MSMMMOB.05
009420  19Y08M20                         A5    C        13:16:20:03 13:16:22:22 01:46:40:14 01:46:43:08 
*FROM CLIP NAME:  61K13/01 
*PATCH 19Y08M20:  FROM SOURCE 1 TO RECORD 5 
*SOURCE FILE: 19Y08M20
009421  19Y08M20                         A6    C        13:16:20:03 13:16:22:22 01:46:40:14 01:46:43:08 
*FROM CLIP NAME:  61K13/01 
*PATCH 19Y08M20:  FROM SOURCE 2 TO RECORD 6 
*SOURCE FILE: 19Y08M20
009422  MSMMMOB.32                       V     C        15:06:46:15 15:06:50:00 01:46:43:08 01:46:46:18 
M2      MSMMMOB.32                                025.0 15:06:46:15 
*FROM CLIP NAME:  A089C005_190820_R32C 
*SOURCE FILE: MSMMMOB.32
009423  19Y08M20                         A     C        15:06:46:14 15:06:49:24 01:46:43:08 01:46:46:18 
*FROM CLIP NAME:  64K4/02 
*SOURCE FILE: 19Y08M20
009424  19Y08M20                         A2    C        15:06:46:14 15:06:49:24 01:46:43:08 01:46:46:18 
*FROM CLIP NAME:  64K4/02 
*SOURCE FILE: 19Y08M20
009425  19Y08M20                         A3    C        14:29:13:17 14:29:17:02 01:46:43:08 01:46:46:18 
*FROM CLIP NAME:  64K1/02 
*PATCH 19Y08M20:  FROM SOURCE 1 TO RECORD 3 
*SOURCE FILE: 19Y08M20
009426  19Y08M20                         A4    C        14:29:13:17 14:29:17:02 01:46:43:08 01:46:46:18 
*FROM CLIP NAME:  64K1/02 
*PATCH 19Y08M20:  FROM SOURCE 2 TO RECORD 4 
*SOURCE FILE: 19Y08M20
009427  19Y08M20                         A3    C        14:29:17:02 14:29:17:02 01:46:46:18 01:46:46:18 
009427  BL                               A3    D    025 00:00:00:00 00:00:01:00 01:46:46:18 01:46:47:18 
*FROM CLIP NAME:  64K1/02 
*PATCH 19Y08M20:  FROM SOURCE 1 TO RECORD 3 
*SOURCE FILE: 19Y08M20
009428  19Y08M20                         A4    C        14:29:17:02 14:29:17:02 01:46:46:18 01:46:46:18 
009428  BL                               A4    D    025 00:00:00:00 00:00:01:00 01:46:46:18 01:46:47:18 
*FROM CLIP NAME:  64K1/02 
*PATCH 19Y08M20:  FROM SOURCE 2 TO RECORD 4 
*SOURCE FILE: 19Y08M20
009429  19Y08M20                         A     C        14:54:09:14 14:54:11:23 01:46:46:18 01:46:49:02 
*FROM CLIP NAME:  64K3/03 
*SOURCE FILE: 19Y08M20
009430  19Y08M20                         A2    C        14:54:09:14 14:54:11:23 01:46:46:18 01:46:49:02 
*FROM CLIP NAME:  64K3/03 
*SOURCE FILE: 19Y08M20
009431  MSMMMOB.49                       V     C        14:54:09:15 14:54:17:19 01:46:46:18 01:46:54:22 
M2      MSMMMOB.49                                025.0 14:54:09:15 
*FROM CLIP NAME:  A089C003_190820_R32C 
*SOURCE FILE: MSMMMOB.49
009432  19Y08M20                         A     C        15:06:56:13 15:06:58:02 01:46:49:02 01:46:50:16 
*FROM CLIP NAME:  64K4/02 
*SOURCE FILE: 19Y08M20
009433  19Y08M20                         A2    C        15:06:56:13 15:06:58:02 01:46:49:02 01:46:50:16 
*FROM CLIP NAME:  64K4/02 
*SOURCE FILE: 19Y08M20
009434  19Y08M20                         A     C        15:06:50:06 15:06:51:20 01:46:50:16 01:46:52:05 
*FROM CLIP NAME:  64K4/02 
*SOURCE FILE: 19Y08M20
009435  19Y08M20                         A2    C        15:06:50:06 15:06:51:20 01:46:50:16 01:46:52:05 
*FROM CLIP NAME:  64K4/02 
*SOURCE FILE: 19Y08M20
009436  19Y08M20                         A3    C        15:03:47:16 15:03:50:09 01:46:51:01 01:46:53:19 
*FROM CLIP NAME:  64K4/01 
*PATCH 19Y08M20:  FROM SOURCE 1 TO RECORD 3 
*SOURCE FILE: 19Y08M20
009437  19Y08M20                         A4    C        15:03:47:16 15:03:50:09 01:46:51:01 01:46:53:19 
*FROM CLIP NAME:  64K4/01 
*PATCH 19Y08M20:  FROM SOURCE 2 TO RECORD 4 
*SOURCE FILE: 19Y08M20
009438  19Y08M20                         A     C        15:03:20:16 15:03:23:08 01:46:52:05 01:46:54:22 
*FROM CLIP NAME:  64K4/01 
*SOURCE FILE: 19Y08M20
009439  19Y08M20                         A2    C        15:03:20:16 15:03:23:08 01:46:52:05 01:46:54:22 
*FROM CLIP NAME:  64K4/01 
*SOURCE FILE: 19Y08M20
009440  MSMMMOB.50                       V     C        14:36:19:08 14:36:21:15 01:46:54:22 01:46:57:04 
M2      MSMMMOB.50                                025.0 14:36:19:08 
*FROM CLIP NAME:  A088C013_190820_R32C 
*SOURCE FILE: MSMMMOB.50
009441  19Y08M20                         A     C        14:36:19:07 14:36:21:14 01:46:54:22 01:46:57:04 
*FROM CLIP NAME:  64K2/01 
*SOURCE FILE: 19Y08M20
009442  19Y08M20                         A2    C        14:36:19:07 14:36:21:14 01:46:54:22 01:46:57:04 
*FROM CLIP NAME:  64K2/01 
*SOURCE FILE: 19Y08M20
009443  MSMMMOB.32                       V     C        15:07:15:22 15:07:19:01 01:46:57:04 01:47:00:08 
M2      MSMMMOB.32                                025.0 15:07:15:22 
*FROM CLIP NAME:  A089C005_190820_R32C 
*SOURCE FILE: MSMMMOB.32
009444  19Y08M20                         A     C        15:07:15:21 15:07:19:00 01:46:57:04 01:47:00:08 
*FROM CLIP NAME:  64K4/02 
*SOURCE FILE: 19Y08M20
009445  19Y08M20                         A2    C        15:07:15:21 15:07:19:00 01:46:57:04 01:47:00:08 
*FROM CLIP NAME:  64K4/02 
*SOURCE FILE: 19Y08M20
009446  MSMMMOB.32                       V     C        15:07:27:13 15:07:31:17 01:47:00:08 01:47:04:12 
M2      MSMMMOB.32                                025.0 15:07:27:13 
*FROM CLIP NAME:  A089C005_190820_R32C 
*SOURCE FILE: MSMMMOB.32
009447  19Y08M20                         A     C        15:07:27:12 15:07:31:16 01:47:00:08 01:47:04:12 
*FROM CLIP NAME:  64K4/02 
*SOURCE FILE: 19Y08M20
009448  19Y08M20                         A2    C        15:07:27:12 15:07:31:16 01:47:00:08 01:47:04:12 
*FROM CLIP NAME:  64K4/02 
*SOURCE FILE: 19Y08M20
009449  BONNIE-TYLER-HOLDING-OUT-FOR-A-H A17   C        01:00:00:00 01:00:32:14 01:47:02:00 01:47:34:14 
*FROM CLIP NAME:  BONNIE-TYLER-HOLDING-OUT-FOR-A-HERO.MP3 
*PATCH BONNIE-TYLER-HOLDING-OUT-FOR-A-H:  FROM SOURCE 1 TO RECORD 17 
*SOURCE FILE: BONNIE-TYLER-HOLDING-OUT-FOR-A-HERO.MP3
009450  BONNIE-TYLER-HOLDING-OUT-FOR-A-H A18   C        01:00:00:00 01:00:32:14 01:47:02:00 01:47:34:14 
*FROM CLIP NAME:  BONNIE-TYLER-HOLDING-OUT-FOR-A-HERO.MP3 
*PATCH BONNIE-TYLER-HOLDING-OUT-FOR-A-H:  FROM SOURCE 2 TO RECORD 18 
*SOURCE FILE: BONNIE-TYLER-HOLDING-OUT-FOR-A-HERO.MP3
009451  BL                               V     C        00:00:00:00 00:00:02:10 01:47:04:12 01:47:06:22 
*SOURCE FILE: (NULL)
009452  MSMMMOB.34                       V     C        15:18:55:20 15:18:58:05 01:47:04:12 01:47:06:22 
M2      MSMMMOB.34                                025.0 15:18:55:20 
*FROM CLIP NAME:  A089C010_190820_R32C 
*SOURCE FILE: MSMMMOB.34
009453  19Y08M20                         A     C        15:17:14:01 15:17:16:11 01:47:04:12 01:47:06:22 
*FROM CLIP NAME:  64K5/04 
*A1 VOL =  -8.5 DB  PAN R100 
*SOURCE FILE: 19Y08M20
009454  19Y08M20                         A2    C        15:17:14:01 15:17:16:11 01:47:04:12 01:47:06:22 
*FROM CLIP NAME:  64K5/04 
*A2 VOL =  -8.2 DB  PAN L100 
*SOURCE FILE: 19Y08M20
009455  MSMMMOB.04                       V     C        15:17:14:02 15:17:16:20 01:47:06:22 01:47:09:15 
M2      MSMMMOB.04                                025.0 15:17:14:02 
*FROM CLIP NAME:  A089C009_190820_R32C 
*SOURCE FILE: MSMMMOB.04
009456  19Y08M20                         A     C        15:17:16:21 15:17:19:14 01:47:06:22 01:47:09:15 
*FROM CLIP NAME:  64K5/04 
*A1 VOL =  -8.5 DB  PAN R100 
*SOURCE FILE: 19Y08M20
009457  19Y08M20                         A2    C        15:17:16:21 15:17:19:14 01:47:06:22 01:47:09:15 
*FROM CLIP NAME:  64K5/04 
*A2 VOL =  -8.2 DB  PAN L100 
*SOURCE FILE: 19Y08M20
009458  BL                               V     C        00:00:00:00 00:00:07:18 01:47:06:22 01:47:14:15 
*SOURCE FILE: (NULL)
009459  MSMMMOB.34                       V     C        15:19:14:07 15:19:15:24 01:47:09:15 01:47:11:07 
M2      MSMMMOB.34                                025.0 15:19:14:07 
*FROM CLIP NAME:  A089C010_190820_R32C 
*SOURCE FILE: MSMMMOB.34
009460  19Y08M20                         A     C        15:17:20:01 15:17:21:24 01:47:09:15 01:47:11:13 
*FROM CLIP NAME:  64K5/04 
*SOURCE FILE: 19Y08M20
009461  19Y08M20                         A2    C        15:17:20:01 15:17:21:24 01:47:09:15 01:47:11:13 
*FROM CLIP NAME:  64K5/04 
*SOURCE FILE: 19Y08M20
009462  MSMMMOB.34                       V     C        15:19:09:18 15:19:10:19 01:47:11:07 01:47:12:08 
M2      MSMMMOB.34                                025.0 15:19:09:18 
*FROM CLIP NAME:  A089C010_190820_R32C 
*SOURCE FILE: MSMMMOB.34
009463  MSMMMOB.82                       V     C        15:14:26:09 15:14:28:16 01:47:12:08 01:47:14:15 
M2      MSMMMOB.82                                025.0 15:14:26:09 
*FROM CLIP NAME:  A089C008_190820_R32C 
*SOURCE FILE: MSMMMOB.82
009464  19Y08M20                         A     C        15:14:26:08 15:14:28:15 01:47:12:08 01:47:14:15 
*FROM CLIP NAME:  64K5/03 
*SOURCE FILE: 19Y08M20
009465  19Y08M20                         A2    C        15:14:26:08 15:14:28:15 01:47:12:08 01:47:14:15 
*FROM CLIP NAME:  64K5/03 
*SOURCE FILE: 19Y08M20
009466  BL                               V     C        00:00:00:00 00:00:02:19 01:47:14:15 01:47:17:09 
*SOURCE FILE: (NULL)
009467  MSMMMOB.34                       V     C        15:18:52:07 15:18:55:01 01:47:14:15 01:47:17:09 
M2      MSMMMOB.34                                025.0 15:18:52:07 
*FROM CLIP NAME:  A089C010_190820_R32C 
*SOURCE FILE: MSMMMOB.34
009468  MSMMMOB.04                       V     C        15:17:20:09 15:17:22:10 01:47:17:09 01:47:19:10 
M2      MSMMMOB.04                                025.0 15:17:20:09 
*FROM CLIP NAME:  A089C009_190820_R32C 
*SOURCE FILE: MSMMMOB.04
009469  19Y08M20                         A     C        15:17:20:08 15:17:22:09 01:47:17:09 01:47:19:10 
*FROM CLIP NAME:  64K5/04 
*SOURCE FILE: 19Y08M20
009470  19Y08M20                         A2    C        15:17:20:08 15:17:22:09 01:47:17:09 01:47:19:10 
*FROM CLIP NAME:  64K5/04 
*SOURCE FILE: 19Y08M20
009471  BL                               V     C        00:00:00:00 00:00:11:14 01:47:17:09 01:47:28:23 
*SOURCE FILE: (NULL)
009472  MSMMMOB.26                       V     C        15:04:41:02 15:04:42:20 01:47:19:10 01:47:21:03 
M2      MSMMMOB.26                                025.0 15:04:41:02 
*FROM CLIP NAME:  A089C004_190820_R32C 
*SOURCE FILE: MSMMMOB.26
009473  19Y08M20                         A     C        15:04:41:01 15:04:42:22 01:47:19:10 01:47:21:06 
*FROM CLIP NAME:  64K4/01 
*SOURCE FILE: 19Y08M20
009474  19Y08M20                         A2    C        15:04:41:01 15:04:42:22 01:47:19:10 01:47:21:06 
*FROM CLIP NAME:  64K4/01 
*SOURCE FILE: 19Y08M20
009475  MSMMMOB.32                       V     C        15:07:56:05 15:08:04:00 01:47:21:03 01:47:28:23 
M2      MSMMMOB.32                                025.0 15:07:56:05 
*FROM CLIP NAME:  A089C005_190820_R32C 
*SOURCE FILE: MSMMMOB.32
009476  19Y08M20                         A     C        15:07:58:15 15:08:03:06 01:47:21:06 01:47:25:22 
*FROM CLIP NAME:  64K4/02 
*SOURCE FILE: 19Y08M20
009477  19Y08M20                         A2    C        15:07:58:15 15:08:03:06 01:47:21:06 01:47:25:22 
*FROM CLIP NAME:  64K4/02 
*SOURCE FILE: 19Y08M20
009478  BL                               V     C        00:00:00:00 00:00:01:23 01:47:28:23 01:47:30:21 
*SOURCE FILE: (NULL)
009481  BL                               V     C        00:00:00:00 00:00:05:17 01:47:28:23 01:47:34:15 
*SOURCE FILE: (NULL)
009480  BL                               V     C        00:00:00:00 00:00:05:17 01:47:28:23 01:47:34:15 
*SOURCE FILE: (NULL)
009479  M108_C008_20190729_R             V     C        11:55:23:02 11:55:28:19 01:47:28:23 01:47:34:15 
*FROM CLIP NAME:  M108_C008_20190729_R.NEW.01 
*SOURCE FILE: M108_C008_20190729_R
009482  CINEMASCOPE_2-35-1_CROPLINES.PNG V     C        01:00:00:00 01:05:59:24 01:47:28:23 01:53:28:22 
*FROM CLIP NAME:  CINEMASCOPE 2-35-1 CROPLINES.PNG 
*SOURCE FILE: CINEMASCOPE 2-35-1 CROPLINES.PNG
009483  BL                               V     C        00:00:00:00 00:00:00:00 01:47:30:21 01:47:30:21 
009483  BL                               V     D    018 00:00:00:00 00:00:00:18 01:47:30:21 01:47:31:14 
*BLEND, DISSOLVE 
*SOURCE FILE: (NULL)
009484  BL                               V     C        00:00:00:00 00:00:03:01 01:47:31:14 01:47:34:15 
*SOURCE FILE: (NULL)
009485  TINDER_NOTIFICACION_SOUND_EFFECT A8    C        01:00:00:00 01:00:01:16 01:47:34:02 01:47:35:18 
*FROM CLIP NAME:  TINDER NOTIFICACION SOUND EFFECT.MP4 
*PATCH TINDER_NOTIFICACION_SOUND_EFFECT:  FROM SOURCE 2 TO RECORD 8 
*SOURCE FILE: TINDER NOTIFICACION SOUND EFFECT.MP4
009486  TINDER_NOTIFICACION_SOUND_EFFECT A9    C        01:00:00:00 01:00:01:16 01:47:34:02 01:47:35:18 
*FROM CLIP NAME:  TINDER NOTIFICACION SOUND EFFECT.MP4 
*PATCH TINDER_NOTIFICACION_SOUND_EFFECT:  FROM SOURCE 1 TO RECORD 9 
*SOURCE FILE: TINDER NOTIFICACION SOUND EFFECT.MP4
009487  MSMMMOB.13                       V     C        10:13:18:02 10:13:20:13 01:47:34:15 01:47:37:01 
M2      MSMMMOB.13                                025.0 10:13:18:02 
*FROM CLIP NAME:  A037C004_190804_R32C 
*SOURCE FILE: MSMMMOB.13
009488  19Y08M04                         A     C        10:13:18:02 10:13:21:08 01:47:34:15 01:47:37:21 
*FROM CLIP NAME:  66K1/04 
*SOURCE FILE: 19Y08M04
009489  19Y08M04                         A2    C        10:13:18:02 10:13:21:08 01:47:34:15 01:47:37:21 
*FROM CLIP NAME:  66K1/04 
*SOURCE FILE: 19Y08M04
009490  19Y08M04                         A3    C        10:13:18:02 10:13:21:08 01:47:34:15 01:47:37:21 
*FROM CLIP NAME:  66K1/04 
*SOURCE FILE: 19Y08M04
009491  19Y08M04                         A4    C        10:13:18:02 10:13:21:08 01:47:34:15 01:47:37:21 
*FROM CLIP NAME:  66K1/04 
*SOURCE FILE: 19Y08M04
009492  MSMMMOB.13                       A5    C        10:13:18:02 10:13:21:08 01:47:34:15 01:47:37:21 
*FROM CLIP NAME:  A037C004_190804_R32C 
*SOURCE FILE: MSMMMOB.13
009493  19Y08M04                         A6    C        10:13:18:02 10:13:21:08 01:47:34:15 01:47:37:21 
*FROM CLIP NAME:  66K1/04 
*PATCH 19Y08M04:  FROM SOURCE 7 TO RECORD 6 
*SOURCE FILE: 19Y08M04
009494  19Y08M04                         A7    C        10:13:18:02 10:13:21:08 01:47:34:15 01:47:37:21 
*FROM CLIP NAME:  66K1/04 
*PATCH 19Y08M04:  FROM SOURCE 8 TO RECORD 7 
*SOURCE FILE: 19Y08M04
009495  BL                               V     C        00:00:00:00 00:00:11:23 01:47:34:15 01:47:46:13 
*SOURCE FILE: (NULL)
009496  BL                               V     C        00:00:00:00 00:00:11:23 01:47:34:15 01:47:46:13 
*SOURCE FILE: (NULL)
009497  BL                               V     C        00:00:00:00 00:14:32:23 01:47:34:15 02:02:07:13 
*SOURCE FILE: (NULL)
009498  MSMMMOB.65                       V     C        10:26:19:15 10:26:24:22 01:47:37:01 01:47:42:08 
M2      MSMMMOB.65                                025.0 10:26:19:15 
*FROM CLIP NAME:  A037C006_190804_R32C 
*SOURCE FILE: MSMMMOB.65
009499  19Y08M04                         A     C        10:26:20:10 10:26:25:14 01:47:37:21 01:47:43:00 
*FROM CLIP NAME:  66K2/02 
*SOURCE FILE: 19Y08M04
009500  19Y08M04                         A2    C        10:26:20:10 10:26:25:14 01:47:37:21 01:47:43:00 
*FROM CLIP NAME:  66K2/02 
*SOURCE FILE: 19Y08M04
009501  19Y08M04                         A3    C        10:26:20:10 10:26:25:14 01:47:37:21 01:47:43:00 
*FROM CLIP NAME:  66K2/02 
*SOURCE FILE: 19Y08M04
009502  19Y08M04                         A4    C        10:26:20:10 10:26:25:14 01:47:37:21 01:47:43:00 
*FROM CLIP NAME:  66K2/02 
*SOURCE FILE: 19Y08M04
009503  MSMMMOB.65                       A5    C        10:26:20:10 10:26:25:14 01:47:37:21 01:47:43:00 
*FROM CLIP NAME:  A037C006_190804_R32C 
*SOURCE FILE: MSMMMOB.65
009504  19Y08M04                         A7    C        10:26:20:10 10:26:25:14 01:47:37:21 01:47:43:00 
*FROM CLIP NAME:  66K2/02 
*SOURCE FILE: 19Y08M04
009505  19Y08M04                         A8    C        10:26:20:10 10:26:25:14 01:47:37:21 01:47:43:00 
*FROM CLIP NAME:  66K2/02 
*SOURCE FILE: 19Y08M04
009506  MSMMMOB.13                       V     C        10:13:26:13 10:13:28:06 01:47:42:08 01:47:44:01 
M2      MSMMMOB.13                                025.0 10:13:26:13 
*FROM CLIP NAME:  A037C004_190804_R32C 
*SOURCE FILE: MSMMMOB.13
009507  19Y08M04                         A     C        10:13:27:05 10:13:28:06 01:47:43:00 01:47:44:01 
*FROM CLIP NAME:  66K1/04 
*SOURCE FILE: 19Y08M04
009508  19Y08M04                         A2    C        10:13:27:05 10:13:28:06 01:47:43:00 01:47:44:01 
*FROM CLIP NAME:  66K1/04 
*SOURCE FILE: 19Y08M04
009509  19Y08M04                         A3    C        10:13:27:05 10:13:28:06 01:47:43:00 01:47:44:01 
*FROM CLIP NAME:  66K1/04 
*SOURCE FILE: 19Y08M04
009510  19Y08M04                         A4    C        10:13:27:05 10:13:28:06 01:47:43:00 01:47:44:01 
*FROM CLIP NAME:  66K1/04 
*SOURCE FILE: 19Y08M04
009511  MSMMMOB.13                       A5    C        10:13:27:05 10:13:28:06 01:47:43:00 01:47:44:01 
*FROM CLIP NAME:  A037C004_190804_R32C 
*SOURCE FILE: MSMMMOB.13
009512  19Y08M04                         A6    C        10:13:27:05 10:13:28:06 01:47:43:00 01:47:44:01 
*FROM CLIP NAME:  66K1/04 
*PATCH 19Y08M04:  FROM SOURCE 7 TO RECORD 6 
*SOURCE FILE: 19Y08M04
009513  19Y08M04                         A7    C        10:13:27:05 10:13:28:06 01:47:43:00 01:47:44:01 
*FROM CLIP NAME:  66K1/04 
*PATCH 19Y08M04:  FROM SOURCE 8 TO RECORD 7 
*SOURCE FILE: 19Y08M04
009514  MSMMMOB.39                       V     C        10:49:37:23 10:49:39:02 01:47:44:01 01:47:45:05 
M2      MSMMMOB.39                                025.0 10:49:37:23 
*FROM CLIP NAME:  A037C011_190804_R32C 
*SOURCE FILE: MSMMMOB.39
009515  19Y08M04                         A     C        10:49:37:23 10:49:39:02 01:47:44:01 01:47:45:05 
*FROM CLIP NAME:  66K4/01 
*SOURCE FILE: 19Y08M04
009516  19Y08M04                         A2    C        10:49:37:23 10:49:39:02 01:47:44:01 01:47:45:05 
*FROM CLIP NAME:  66K4/01 
*SOURCE FILE: 19Y08M04
009517  19Y08M04                         A3    C        10:49:37:23 10:49:39:02 01:47:44:01 01:47:45:05 
*FROM CLIP NAME:  66K4/01 
*SOURCE FILE: 19Y08M04
009518  19Y08M04                         A4    C        10:49:37:23 10:49:39:02 01:47:44:01 01:47:45:05 
*FROM CLIP NAME:  66K4/01 
*SOURCE FILE: 19Y08M04
009519  MSMMMOB.39                       A5    C        10:49:37:23 10:49:39:02 01:47:44:01 01:47:45:05 
*FROM CLIP NAME:  A037C011_190804_R32C 
*SOURCE FILE: MSMMMOB.39
009520  19Y08M04                         A6    C        10:49:37:23 10:49:39:02 01:47:44:01 01:47:45:05 
*FROM CLIP NAME:  66K4/01 
*PATCH 19Y08M04:  FROM SOURCE 7 TO RECORD 6 
*SOURCE FILE: 19Y08M04
009521  19Y08M04                         A7    C        10:13:28:06 10:13:29:23 01:47:45:05 01:47:46:22 
*FROM CLIP NAME:  66K1/04 
*PATCH 19Y08M04:  FROM SOURCE 8 TO RECORD 7 
*SOURCE FILE: 19Y08M04
009522  19Y08M04                         A2    C        10:13:28:06 10:13:30:00 01:47:45:05 01:47:46:24 
*FROM CLIP NAME:  66K1/04 
*SOURCE FILE: 19Y08M04
009523  MSMMMOB.13                       V     C        10:13:28:06 10:13:32:07 01:47:45:05 01:47:49:06 
M2      MSMMMOB.13                                025.0 10:13:28:06 
*FROM CLIP NAME:  A037C004_190804_R32C 
*SOURCE FILE: MSMMMOB.13
009524  19Y08M04                         A     C        10:13:28:06 10:13:33:00 01:47:45:05 01:47:49:24 
*FROM CLIP NAME:  66K1/04 
*SOURCE FILE: 19Y08M04
009525  19Y08M04                         A3    C        10:13:28:06 10:13:33:00 01:47:45:05 01:47:49:24 
*FROM CLIP NAME:  66K1/04 
*SOURCE FILE: 19Y08M04
009526  19Y08M04                         A4    C        10:13:28:06 10:13:33:00 01:47:45:05 01:47:49:24 
*FROM CLIP NAME:  66K1/04 
*SOURCE FILE: 19Y08M04
009527  MSMMMOB.13                       A5    C        10:13:28:06 10:13:33:00 01:47:45:05 01:47:49:24 
*FROM CLIP NAME:  A037C004_190804_R32C 
*SOURCE FILE: MSMMMOB.13
009528  19Y08M04                         A6    C        10:13:28:06 10:13:33:00 01:47:45:05 01:47:49:24 
*FROM CLIP NAME:  66K1/04 
*PATCH 19Y08M04:  FROM SOURCE 7 TO RECORD 6 
*SOURCE FILE: 19Y08M04
009529  BL                               V     C        00:00:00:00 00:00:03:08 01:47:46:13 01:47:49:21 
*SOURCE FILE: (NULL)
009530  TITLE.01                         V     C        01:00:38:02 01:00:49:13 01:47:46:13 01:47:57:24 
*FROM CLIP NAME:  TITLE.01 
*SOURCE FILE: TITLE.01
009531  19Y08M04                         A7    C        10:13:29:23 10:13:33:00 01:47:46:22 01:47:49:24 
*FROM CLIP NAME:  66K1/04 
*A7 VOL = -21.1 DB  PAN R100 
*PATCH 19Y08M04:  FROM SOURCE 8 TO RECORD 7 
*SOURCE FILE: 19Y08M04
009532  19Y08M04                         A2    C        10:13:30:00 10:13:33:00 01:47:46:24 01:47:49:24 
*FROM CLIP NAME:  66K1/04 
*A2 VOL = -18.6 DB  PAN L100 
*SOURCE FILE: 19Y08M04
009533  MSMMMOB.26                       V     C        10:39:39:16 10:39:52:07 01:47:49:06 01:48:01:22 
M2      MSMMMOB.26                                025.0 10:39:39:16 
*FROM CLIP NAME:  A037C010_190804_R32C 
*SOURCE FILE: MSMMMOB.26
009534  BL                               V     C        00:00:00:00 00:00:02:07 01:47:49:21 01:47:52:03 
*SOURCE FILE: (NULL)
009535  19Y08M04                         A     C        10:39:40:09 10:39:43:11 01:47:49:24 01:47:53:01 
*FROM CLIP NAME:  66K3/03 
*SOURCE FILE: 19Y08M04
009536  19Y08M04                         A2    C        10:39:40:09 10:39:43:11 01:47:49:24 01:47:53:01 
*FROM CLIP NAME:  66K3/03 
*SOURCE FILE: 19Y08M04
009537  19Y08M04                         A3    C        10:39:40:09 10:39:43:11 01:47:49:24 01:47:53:01 
*FROM CLIP NAME:  66K3/03 
*SOURCE FILE: 19Y08M04
009538  19Y08M04                         A4    C        10:39:40:09 10:39:43:11 01:47:49:24 01:47:53:01 
*FROM CLIP NAME:  66K3/03 
*SOURCE FILE: 19Y08M04
009539  MSMMMOB.26                       A5    C        10:39:40:09 10:39:43:11 01:47:49:24 01:47:53:01 
*FROM CLIP NAME:  A037C010_190804_R32C 
*SOURCE FILE: MSMMMOB.26
009540  19Y08M04                         A6    C        10:39:40:09 10:39:43:11 01:47:49:24 01:47:53:01 
*FROM CLIP NAME:  66K3/03 
*PATCH 19Y08M04:  FROM SOURCE 7 TO RECORD 6 
*SOURCE FILE: 19Y08M04
009541  BL                               V     C        00:00:00:00 00:00:05:21 01:47:52:03 01:47:57:24 
*SOURCE FILE: (NULL)
009542  UPM_MAT233_11_PHILLY_LURVE_MAIN_ A19   C        01:00:00:00 01:00:08:24 01:47:52:08 01:48:01:07 
*FROM CLIP NAME:  UPM_MAT233_11_PHILLY_LURVE_MAIN_TRACK_MARTIN_438794.MP3 
*A19 VOL = -15.5 DB  PAN R100 
*PATCH UPM_MAT233_11_PHILLY_LURVE_MAIN_:  FROM SOURCE 1 TO RECORD 19 
*SOURCE FILE: UPM_MAT233_11_PHILLY_LURVE_MAIN_TRACK_MARTIN_438794.MP3
009543  UPM_MAT233_11_PHILLY_LURVE_MAIN_ A20   C        01:00:00:00 01:00:08:24 01:47:52:08 01:48:01:07 
*FROM CLIP NAME:  UPM_MAT233_11_PHILLY_LURVE_MAIN_TRACK_MARTIN_438794.MP3 
*A20 VOL = -15.5 DB  PAN L100 
*PATCH UPM_MAT233_11_PHILLY_LURVE_MAIN_:  FROM SOURCE 2 TO RECORD 20 
*SOURCE FILE: UPM_MAT233_11_PHILLY_LURVE_MAIN_TRACK_MARTIN_438794.MP3
009544  19Y08M04                         A     C        10:39:40:15 10:39:41:16 01:47:53:01 01:47:54:02 
*FROM CLIP NAME:  66K3/03 
*SOURCE FILE: 19Y08M04
009545  19Y08M04                         A2    C        10:39:40:15 10:39:41:16 01:47:53:01 01:47:54:02 
*FROM CLIP NAME:  66K3/03 
*SOURCE FILE: 19Y08M04
009546  19Y08M04                         A3    C        10:39:40:15 10:39:41:16 01:47:53:01 01:47:54:02 
*FROM CLIP NAME:  66K3/03 
*SOURCE FILE: 19Y08M04
009547  19Y08M04                         A4    C        10:39:40:15 10:39:41:16 01:47:53:01 01:47:54:02 
*FROM CLIP NAME:  66K3/03 
*SOURCE FILE: 19Y08M04
009548  MSMMMOB.26                       A5    C        10:39:40:15 10:39:41:16 01:47:53:01 01:47:54:02 
*FROM CLIP NAME:  A037C010_190804_R32C 
*SOURCE FILE: MSMMMOB.26
009549  19Y08M04                         A6    C        10:39:40:15 10:39:41:16 01:47:53:01 01:47:54:02 
*FROM CLIP NAME:  66K3/03 
*PATCH 19Y08M04:  FROM SOURCE 7 TO RECORD 6 
*SOURCE FILE: 19Y08M04
009550  AUDIO-2019-10-01-19-31-02.M4A    A8    C        01:00:01:04 01:00:02:12 01:47:53:22 01:47:55:05 
*FROM CLIP NAME:  AUDIO-2019-10-01-19-31-02.M4A 
*PATCH AUDIO-2019-10-01-19-31-02.M4A:  FROM SOURCE 1 TO RECORD 8 
*SOURCE FILE: AUDIO-2019-10-01-19-31-02.M4A
009551  19Y08M04                         A     C        10:39:44:12 10:39:52:11 01:47:54:02 01:48:02:01 
*FROM CLIP NAME:  66K3/03 
*SOURCE FILE: 19Y08M04
009552  19Y08M04                         A2    C        10:39:44:12 10:39:52:11 01:47:54:02 01:48:02:01 
*FROM CLIP NAME:  66K3/03 
*SOURCE FILE: 19Y08M04
009553  19Y08M04                         A3    C        10:39:44:12 10:39:52:11 01:47:54:02 01:48:02:01 
*FROM CLIP NAME:  66K3/03 
*SOURCE FILE: 19Y08M04
009554  19Y08M04                         A4    C        10:39:44:12 10:39:52:11 01:47:54:02 01:48:02:01 
*FROM CLIP NAME:  66K3/03 
*SOURCE FILE: 19Y08M04
009555  MSMMMOB.26                       A5    C        10:39:44:12 10:39:52:11 01:47:54:02 01:48:02:01 
*FROM CLIP NAME:  A037C010_190804_R32C 
*SOURCE FILE: MSMMMOB.26
009556  19Y08M04                         A6    C        10:39:44:12 10:39:52:11 01:47:54:02 01:48:02:01 
*FROM CLIP NAME:  66K3/03 
*PATCH 19Y08M04:  FROM SOURCE 7 TO RECORD 6 
*SOURCE FILE: 19Y08M04
009557  BL                               V     C        00:00:00:00 00:00:18:07 01:47:57:24 01:48:16:06 
*SOURCE FILE: (NULL)
009558  BL                               V     C        00:00:00:00 00:00:18:07 01:47:57:24 01:48:16:06 
*SOURCE FILE: (NULL)
009559  MSMMMOB.13                       V     C        10:13:47:16 10:14:02:00 01:48:01:22 01:48:16:06 
M2      MSMMMOB.13                                025.0 10:13:47:16 
*FROM CLIP NAME:  A037C004_190804_R32C 
*SOURCE FILE: MSMMMOB.13
009560  19Y08M04                         A     C        10:13:47:20 10:13:48:18 01:48:02:01 01:48:02:24 
*FROM CLIP NAME:  66K1/04 
*SOURCE FILE: 19Y08M04
009561  19Y08M04                         A3    C        10:13:47:20 10:13:48:18 01:48:02:01 01:48:02:24 
*FROM CLIP NAME:  66K1/04 
*SOURCE FILE: 19Y08M04
009562  19Y08M04                         A2    C        10:13:47:20 10:13:58:16 01:48:02:01 01:48:12:22 
*FROM CLIP NAME:  66K1/04 
*SOURCE FILE: 19Y08M04
009563  19Y08M04                         A4    C        10:13:47:20 10:13:58:16 01:48:02:01 01:48:12:22 
*FROM CLIP NAME:  66K1/04 
*SOURCE FILE: 19Y08M04
009564  MSMMMOB.13                       A5    C        10:13:47:20 10:13:58:16 01:48:02:01 01:48:12:22 
*FROM CLIP NAME:  A037C004_190804_R32C 
*SOURCE FILE: MSMMMOB.13
009565  19Y08M04                         A6    C        10:13:47:20 10:13:58:16 01:48:02:01 01:48:12:22 
*FROM CLIP NAME:  66K1/04 
*PATCH 19Y08M04:  FROM SOURCE 7 TO RECORD 6 
*SOURCE FILE: 19Y08M04
009566  19Y08M04                         A7    C        10:13:47:20 10:13:58:16 01:48:02:01 01:48:12:22 
*FROM CLIP NAME:  66K1/04 
*PATCH 19Y08M04:  FROM SOURCE 8 TO RECORD 7 
*SOURCE FILE: 19Y08M04
009567  19Y08M04                         A     C        10:13:48:18 10:13:51:17 01:48:02:24 01:48:05:23 
*FROM CLIP NAME:  66K1/04 
*A1 VOL = -39.6 DB  PAN R100 
*SOURCE FILE: 19Y08M04
009568  19Y08M04                         A3    C        10:13:48:18 10:13:51:17 01:48:02:24 01:48:05:23 
*FROM CLIP NAME:  66K1/04 
*A3 VOL = -39.6 DB  PAN R100 
*SOURCE FILE: 19Y08M04
009569  19Y08M04                         A     C        10:13:51:17 10:13:58:16 01:48:05:23 01:48:12:22 
*FROM CLIP NAME:  66K1/04 
*SOURCE FILE: 19Y08M04
009570  19Y08M04                         A3    C        10:13:51:17 10:13:58:16 01:48:05:23 01:48:12:22 
*FROM CLIP NAME:  66K1/04 
*SOURCE FILE: 19Y08M04
009571  MSMMMOB.42                       A8    C        10:42:24:04 10:42:24:09 01:48:12:14 01:48:12:19 
*FROM CLIP NAME:  B011C007_190811_R481 
*PATCH MSMMMOB.42:  FROM SOURCE 2 TO RECORD 8 
*SOURCE FILE: MSMMMOB.42
009572  19Y08M11                         A9    C        10:42:23:03 10:42:23:08 01:48:12:14 01:48:12:19 
*FROM CLIP NAME:  66AK1/02 
*PATCH 19Y08M11:  FROM SOURCE 1 TO RECORD 9 
*SOURCE FILE: 19Y08M11
009573  MSMMMOB.42                       A8    C        10:42:13:09 10:42:14:04 01:48:12:19 01:48:13:14 
*FROM CLIP NAME:  B011C007_190811_R481 
*PATCH MSMMMOB.42:  FROM SOURCE 2 TO RECORD 8 
*SOURCE FILE: MSMMMOB.42
009574  19Y08M11                         A9    C        10:42:12:08 10:42:13:03 01:48:12:19 01:48:13:14 
*FROM CLIP NAME:  66AK1/02 
*PATCH 19Y08M11:  FROM SOURCE 1 TO RECORD 9 
*SOURCE FILE: 19Y08M11
009575  19Y08M04                         A     C        10:14:01:02 10:14:02:22 01:48:12:22 01:48:14:17 
*FROM CLIP NAME:  66K1/04 
*SOURCE FILE: 19Y08M04
009576  19Y08M04                         A2    C        10:14:01:02 10:14:02:22 01:48:12:22 01:48:14:17 
*FROM CLIP NAME:  66K1/04 
*SOURCE FILE: 19Y08M04
009577  19Y08M04                         A3    C        10:14:01:02 10:14:02:22 01:48:12:22 01:48:14:17 
*FROM CLIP NAME:  66K1/04 
*SOURCE FILE: 19Y08M04
009578  19Y08M04                         A4    C        10:14:01:02 10:14:02:22 01:48:12:22 01:48:14:17 
*FROM CLIP NAME:  66K1/04 
*SOURCE FILE: 19Y08M04
009579  MSMMMOB.13                       A5    C        10:14:01:02 10:14:02:22 01:48:12:22 01:48:14:17 
*FROM CLIP NAME:  A037C004_190804_R32C 
*SOURCE FILE: MSMMMOB.13
009580  19Y08M04                         A6    C        10:14:01:02 10:14:02:22 01:48:12:22 01:48:14:17 
*FROM CLIP NAME:  66K1/04 
*PATCH 19Y08M04:  FROM SOURCE 8 TO RECORD 6 
*SOURCE FILE: 19Y08M04
009581  19Y08M04                         A7    C        10:14:01:02 10:14:02:22 01:48:12:22 01:48:14:17 
*FROM CLIP NAME:  66K1/04 
*SOURCE FILE: 19Y08M04
009582  MSMMMOB.42                       A8    C        10:42:25:04 10:42:25:15 01:48:13:14 01:48:14:00 
*FROM CLIP NAME:  B011C007_190811_R481 
*PATCH MSMMMOB.42:  FROM SOURCE 2 TO RECORD 8 
*SOURCE FILE: MSMMMOB.42
009583  19Y08M11                         A9    C        10:42:24:03 10:42:24:14 01:48:13:14 01:48:14:00 
*FROM CLIP NAME:  66AK1/02 
*PATCH 19Y08M11:  FROM SOURCE 1 TO RECORD 9 
*SOURCE FILE: 19Y08M11
009584  19Y08M04                         A     C        10:14:00:11 10:14:02:00 01:48:14:17 01:48:16:06 
*FROM CLIP NAME:  66K1/04 
*SOURCE FILE: 19Y08M04
009585  19Y08M04                         A2    C        10:14:00:11 10:14:02:00 01:48:14:17 01:48:16:06 
*FROM CLIP NAME:  66K1/04 
*SOURCE FILE: 19Y08M04
009586  19Y08M04                         A3    C        10:14:00:11 10:14:02:00 01:48:14:17 01:48:16:06 
*FROM CLIP NAME:  66K1/04 
*SOURCE FILE: 19Y08M04
009587  19Y08M04                         A4    C        10:14:00:11 10:14:02:00 01:48:14:17 01:48:16:06 
*FROM CLIP NAME:  66K1/04 
*SOURCE FILE: 19Y08M04
009588  MSMMMOB.13                       A5    C        10:14:00:11 10:14:02:00 01:48:14:17 01:48:16:06 
*FROM CLIP NAME:  A037C004_190804_R32C 
*SOURCE FILE: MSMMMOB.13
009589  19Y08M04                         A6    C        10:14:00:11 10:14:02:00 01:48:14:17 01:48:16:06 
*FROM CLIP NAME:  66K1/04 
*PATCH 19Y08M04:  FROM SOURCE 7 TO RECORD 6 
*SOURCE FILE: 19Y08M04
009590  19Y08M04                         A7    C        10:14:00:11 10:14:02:00 01:48:14:17 01:48:16:06 
*FROM CLIP NAME:  66K1/04 
*PATCH 19Y08M04:  FROM SOURCE 8 TO RECORD 7 
*SOURCE FILE: 19Y08M04
009591  BL                               A19   C        00:00:00:00 00:00:00:00 01:48:15:08 01:48:15:08 
009591  UPM_MAT233_11_PHILLY_LURVE_MAIN_ A19   D    023 01:00:25:12 01:00:26:10 01:48:15:08 01:48:16:06 
*TO CLIP NAME:  UPM_MAT233_11_PHILLY_LURVE_MAIN_TRACK_MARTIN_438794.MP3 
*A19 VOL = -16.2 DB  PAN R100 
*PATCH UPM_MAT233_11_PHILLY_LURVE_MAIN_:  FROM SOURCE 1 TO RECORD 19 
*SOURCE FILE: (NULL)
009592  BL                               A20   C        00:00:00:00 00:00:00:00 01:48:15:08 01:48:15:08 
009592  UPM_MAT233_11_PHILLY_LURVE_MAIN_ A20   D    023 01:00:25:12 01:00:26:10 01:48:15:08 01:48:16:06 
*TO CLIP NAME:  UPM_MAT233_11_PHILLY_LURVE_MAIN_TRACK_MARTIN_438794.MP3 
*A20 VOL = -16.2 DB  PAN MID 
*PATCH UPM_MAT233_11_PHILLY_LURVE_MAIN_:  FROM SOURCE 2 TO RECORD 20 
*SOURCE FILE: (NULL)
009593  MSMMMOB.61                       V     C        19:12:27:11 19:12:30:03 01:48:16:06 01:48:18:23 
M2      MSMMMOB.61                                025.0 19:12:27:11 
*FROM CLIP NAME:  A040C010_190804_R32C 
*SOURCE FILE: MSMMMOB.61
009594  ??????.M4A                       A9    C        01:00:14:15 01:00:18:16 01:48:16:06 01:48:20:07 
*FROM CLIP NAME:  SOUND_KEY.M4A 
*PATCH ??????.M4A:  FROM SOURCE 1 TO RECORD 9 
*SOURCE FILE: ??????.M4A
009595  BL                               V     C        00:00:00:00 00:00:05:00 01:48:16:06 01:48:21:06 
*SOURCE FILE: (NULL)
009596  TITLE.01                         V     C        01:00:17:23 01:00:22:23 01:48:16:06 01:48:21:06 
*FROM CLIP NAME:  TITLE.01 
*SOURCE FILE: TITLE.01
009597  AUDIO-2019-10-01-17-40-48.M4A    A8    C        01:00:00:21 01:00:05:24 01:48:16:06 01:48:21:09 
*FROM CLIP NAME:  AUDIO-2019-10-01-17-40-48.M4A 
*PATCH AUDIO-2019-10-01-17-40-48.M4A:  FROM SOURCE 1 TO RECORD 8 
*SOURCE FILE: AUDIO-2019-10-01-17-40-48.M4A
009598  UPM_MAT233_11_PHILLY_LURVE_MAIN_ A19   C        01:00:26:10 01:00:39:19 01:48:16:06 01:48:29:15 
*FROM CLIP NAME:  UPM_MAT233_11_PHILLY_LURVE_MAIN_TRACK_MARTIN_438794.MP3 
*A19 VOL = -16.2 DB  PAN R100 
*PATCH UPM_MAT233_11_PHILLY_LURVE_MAIN_:  FROM SOURCE 1 TO RECORD 19 
*SOURCE FILE: UPM_MAT233_11_PHILLY_LURVE_MAIN_TRACK_MARTIN_438794.MP3
009599  UPM_MAT233_11_PHILLY_LURVE_MAIN_ A20   C        01:00:26:10 01:00:39:19 01:48:16:06 01:48:29:15 
*FROM CLIP NAME:  UPM_MAT233_11_PHILLY_LURVE_MAIN_TRACK_MARTIN_438794.MP3 
*A20 VOL = -16.2 DB  PAN MID 
*PATCH UPM_MAT233_11_PHILLY_LURVE_MAIN_:  FROM SOURCE 2 TO RECORD 20 
*SOURCE FILE: UPM_MAT233_11_PHILLY_LURVE_MAIN_TRACK_MARTIN_438794.MP3
009600  MSMMMOB.19                       V     C        18:46:43:12 18:46:55:08 01:48:18:23 01:48:30:19 
M2      MSMMMOB.19                                025.0 18:46:43:12 
*FROM CLIP NAME:  A040C003_190804_R32C 
*SOURCE FILE: MSMMMOB.19
009601  BL                               V     C        00:00:00:00 00:00:04:04 01:48:21:06 01:48:25:10 
*SOURCE FILE: (NULL)
009602  BL                               V     C        00:00:00:00 00:00:04:04 01:48:21:06 01:48:25:10 
*SOURCE FILE: (NULL)
009603  19Y08M04                         A     C        18:48:17:12 18:48:18:16 01:48:22:23 01:48:24:02 
*FROM CLIP NAME:  67-69AK2/04 
*SOURCE FILE: 19Y08M04
009604  19Y08M04                         A2    C        18:48:17:12 18:48:18:16 01:48:22:23 01:48:24:02 
*FROM CLIP NAME:  67-69AK2/04 
*SOURCE FILE: 19Y08M04
009605  19Y08M04                         A3    C        18:48:17:12 18:48:18:16 01:48:22:23 01:48:24:02 
*FROM CLIP NAME:  67-69AK2/04 
*SOURCE FILE: 19Y08M04
009606  19Y08M04                         A4    C        18:48:17:12 18:48:18:16 01:48:22:23 01:48:24:02 
*FROM CLIP NAME:  67-69AK2/04 
*SOURCE FILE: 19Y08M04
009607  MSMMMOB.41                       A5    C        18:48:17:12 18:48:18:16 01:48:22:23 01:48:24:02 
*FROM CLIP NAME:  A040C004_190804_R32C 
*SOURCE FILE: MSMMMOB.41
009608  19Y08M04                         A6    C        18:48:17:12 18:48:18:16 01:48:22:23 01:48:24:02 
*FROM CLIP NAME:  67-69AK2/04 
*PATCH 19Y08M04:  FROM SOURCE 7 TO RECORD 6 
*SOURCE FILE: 19Y08M04
009609  19Y08M04                         A     C        20:10:17:08 20:10:18:14 01:48:24:02 01:48:25:08 
*FROM CLIP NAME:  F_67-69A/01 
*SOURCE FILE: 19Y08M04
009610  19Y08M04                         A2    C        20:10:17:08 20:10:18:14 01:48:24:02 01:48:25:08 
*FROM CLIP NAME:  F_67-69A/01 
*PATCH 19Y08M04:  FROM SOURCE 4 TO RECORD 2 
*SOURCE FILE: 19Y08M04
009611  19Y08M04                         A3    C        20:10:17:08 20:10:18:14 01:48:24:02 01:48:25:08 
*FROM CLIP NAME:  F_67-69A/01 
*SOURCE FILE: 19Y08M04
009612  ZVUK-VIBRACII-TELEFONA.MP3       A13   C        01:00:00:04 01:00:00:09 01:48:24:08 01:48:24:13 
*FROM CLIP NAME:  ZVUK-VIBRACII-TELEFONA.MP3 
*PATCH ZVUK-VIBRACII-TELEFONA.MP3:  FROM SOURCE 1 TO RECORD 13 
*SOURCE FILE: ZVUK-VIBRACII-TELEFONA.MP3
009613  ZVUK-VIBRACII-TELEFONA.MP3       A14   C        01:00:00:04 01:00:00:09 01:48:24:08 01:48:24:13 
*FROM CLIP NAME:  ZVUK-VIBRACII-TELEFONA.MP3 
*PATCH ZVUK-VIBRACII-TELEFONA.MP3:  FROM SOURCE 2 TO RECORD 14 
*SOURCE FILE: ZVUK-VIBRACII-TELEFONA.MP3
009614  ZVUK-VIBRACII-TELEFONA.MP3       A13   C        01:00:00:09 01:00:00:09 01:48:24:13 01:48:24:13 
009614  ZVUK-VIBRACII-TELEFONA.MP3       A13   D    002 01:00:01:01 01:00:01:03 01:48:24:13 01:48:24:15 
*FROM CLIP NAME:  ZVUK-VIBRACII-TELEFONA.MP3 
*TO CLIP NAME:  ZVUK-VIBRACII-TELEFONA.MP3 
*PATCH ZVUK-VIBRACII-TELEFONA.MP3:  FROM SOURCE 1 TO RECORD 13 
*PATCH ZVUK-VIBRACII-TELEFONA.MP3:  FROM SOURCE 1 TO RECORD 13 
*SOURCE FILE: ZVUK-VIBRACII-TELEFONA.MP3
009615  ZVUK-VIBRACII-TELEFONA.MP3       A14   C        01:00:00:09 01:00:00:09 01:48:24:13 01:48:24:13 
009615  ZVUK-VIBRACII-TELEFONA.MP3       A14   D    002 01:00:01:01 01:00:01:03 01:48:24:13 01:48:24:15 
*FROM CLIP NAME:  ZVUK-VIBRACII-TELEFONA.MP3 
*TO CLIP NAME:  ZVUK-VIBRACII-TELEFONA.MP3 
*PATCH ZVUK-VIBRACII-TELEFONA.MP3:  FROM SOURCE 2 TO RECORD 14 
*PATCH ZVUK-VIBRACII-TELEFONA.MP3:  FROM SOURCE 2 TO RECORD 14 
*SOURCE FILE: ZVUK-VIBRACII-TELEFONA.MP3
009616  ZVUK-VIBRACII-TELEFONA.MP3       A13   C        01:00:01:03 01:00:01:11 01:48:24:15 01:48:24:23 
*FROM CLIP NAME:  ZVUK-VIBRACII-TELEFONA.MP3 
*PATCH ZVUK-VIBRACII-TELEFONA.MP3:  FROM SOURCE 1 TO RECORD 13 
*SOURCE FILE: ZVUK-VIBRACII-TELEFONA.MP3
009617  ZVUK-VIBRACII-TELEFONA.MP3       A14   C        01:00:01:03 01:00:01:11 01:48:24:15 01:48:24:23 
*FROM CLIP NAME:  ZVUK-VIBRACII-TELEFONA.MP3 
*PATCH ZVUK-VIBRACII-TELEFONA.MP3:  FROM SOURCE 2 TO RECORD 14 
*SOURCE FILE: ZVUK-VIBRACII-TELEFONA.MP3
009618  AUDIO-2019-10-01-18-04-30.M4A    A8    C        01:00:02:01 01:00:07:02 01:48:24:22 01:48:29:23 
*FROM CLIP NAME:  AUDIO-2019-10-01-18-04-30.M4A 
*PATCH AUDIO-2019-10-01-18-04-30.M4A:  FROM SOURCE 1 TO RECORD 8 
*SOURCE FILE: AUDIO-2019-10-01-18-04-30.M4A
009619  19Y08M04                         A     C        18:48:19:22 18:48:21:06 01:48:25:08 01:48:26:17 
*FROM CLIP NAME:  67-69AK2/04 
*SOURCE FILE: 19Y08M04
009620  19Y08M04                         A2    C        18:48:19:22 18:48:21:06 01:48:25:08 01:48:26:17 
*FROM CLIP NAME:  67-69AK2/04 
*SOURCE FILE: 19Y08M04
009621  19Y08M04                         A3    C        18:48:19:22 18:48:21:06 01:48:25:08 01:48:26:17 
*FROM CLIP NAME:  67-69AK2/04 
*SOURCE FILE: 19Y08M04
009622  19Y08M04                         A4    C        18:48:19:23 18:48:21:06 01:48:25:09 01:48:26:17 
*FROM CLIP NAME:  67-69AK2/04 
*SOURCE FILE: 19Y08M04
009623  MSMMMOB.41                       A5    C        18:48:19:23 18:48:21:06 01:48:25:09 01:48:26:17 
*FROM CLIP NAME:  A040C004_190804_R32C 
*SOURCE FILE: MSMMMOB.41
009624  19Y08M04                         A6    C        18:48:19:23 18:48:21:06 01:48:25:09 01:48:26:17 
*FROM CLIP NAME:  67-69AK2/04 
*PATCH 19Y08M04:  FROM SOURCE 7 TO RECORD 6 
*SOURCE FILE: 19Y08M04
009626  TITLE.01                         V     C        01:00:17:23 01:00:23:07 01:48:25:10 01:48:30:19 
*FROM CLIP NAME:  TITLE.01 
*SOURCE FILE: TITLE.01
009625  BL                               V     C        00:00:00:00 00:00:05:09 01:48:25:10 01:48:30:19 
*SOURCE FILE: (NULL)
009627  19Y08M04                         A     C        20:10:17:08 20:10:21:10 01:48:26:17 01:48:30:19 
*FROM CLIP NAME:  F_67-69A/01 
*SOURCE FILE: 19Y08M04
009628  19Y08M04                         A2    C        20:10:17:08 20:10:21:10 01:48:26:17 01:48:30:19 
*FROM CLIP NAME:  F_67-69A/01 
*PATCH 19Y08M04:  FROM SOURCE 4 TO RECORD 2 
*SOURCE FILE: 19Y08M04
009629  19Y08M04                         A3    C        20:10:17:08 20:10:21:10 01:48:26:17 01:48:30:19 
*FROM CLIP NAME:  F_67-69A/01 
*SOURCE FILE: 19Y08M04
009630  MSMMMOB.87                       V     C        10:29:09:04 10:29:13:19 01:48:30:19 01:48:35:09 
M2      MSMMMOB.87                                025.0 10:29:09:04 
*FROM CLIP NAME:  B011C002_190811_R481 
*SOURCE FILE: MSMMMOB.87
009631  MSMMMOB.87                       A     C        10:29:09:04 10:29:13:19 01:48:30:19 01:48:35:09 
*FROM CLIP NAME:  B011C002_190811_R481 
*SOURCE FILE: MSMMMOB.87
009632  19Y08M11                         A2    C        10:29:08:03 10:29:12:18 01:48:30:19 01:48:35:09 
*FROM CLIP NAME:  69K1/02 
*SOURCE FILE: 19Y08M11
009633  BL                               V     C        00:00:00:00 00:00:05:21 01:48:30:19 01:48:36:15 
*SOURCE FILE: (NULL)
009634  BL                               V     C        00:00:00:00 00:00:05:21 01:48:30:19 01:48:36:15 
*SOURCE FILE: (NULL)
009635  ZVUK-VIBRACII-TELEFONA.MP3       A13   C        01:00:00:04 01:00:00:09 01:48:34:11 01:48:34:16 
*FROM CLIP NAME:  ZVUK-VIBRACII-TELEFONA.MP3 
*PATCH ZVUK-VIBRACII-TELEFONA.MP3:  FROM SOURCE 1 TO RECORD 13 
*SOURCE FILE: ZVUK-VIBRACII-TELEFONA.MP3
009636  ZVUK-VIBRACII-TELEFONA.MP3       A14   C        01:00:00:04 01:00:00:09 01:48:34:11 01:48:34:16 
*FROM CLIP NAME:  ZVUK-VIBRACII-TELEFONA.MP3 
*PATCH ZVUK-VIBRACII-TELEFONA.MP3:  FROM SOURCE 2 TO RECORD 14 
*SOURCE FILE: ZVUK-VIBRACII-TELEFONA.MP3
009637  ZVUK-VIBRACII-TELEFONA.MP3       A13   C        01:00:00:09 01:00:00:09 01:48:34:16 01:48:34:16 
009637  ZVUK-VIBRACII-TELEFONA.MP3       A13   D    002 01:00:01:01 01:00:01:03 01:48:34:16 01:48:34:18 
*FROM CLIP NAME:  ZVUK-VIBRACII-TELEFONA.MP3 
*TO CLIP NAME:  ZVUK-VIBRACII-TELEFONA.MP3 
*PATCH ZVUK-VIBRACII-TELEFONA.MP3:  FROM SOURCE 1 TO RECORD 13 
*PATCH ZVUK-VIBRACII-TELEFONA.MP3:  FROM SOURCE 1 TO RECORD 13 
*SOURCE FILE: ZVUK-VIBRACII-TELEFONA.MP3
009638  ZVUK-VIBRACII-TELEFONA.MP3       A14   C        01:00:00:09 01:00:00:09 01:48:34:16 01:48:34:16 
009638  ZVUK-VIBRACII-TELEFONA.MP3       A14   D    002 01:00:01:01 01:00:01:03 01:48:34:16 01:48:34:18 
*FROM CLIP NAME:  ZVUK-VIBRACII-TELEFONA.MP3 
*TO CLIP NAME:  ZVUK-VIBRACII-TELEFONA.MP3 
*PATCH ZVUK-VIBRACII-TELEFONA.MP3:  FROM SOURCE 2 TO RECORD 14 
*PATCH ZVUK-VIBRACII-TELEFONA.MP3:  FROM SOURCE 2 TO RECORD 14 
*SOURCE FILE: ZVUK-VIBRACII-TELEFONA.MP3
009639  ZVUK-VIBRACII-TELEFONA.MP3       A13   C        01:00:01:03 01:00:01:11 01:48:34:18 01:48:35:01 
*FROM CLIP NAME:  ZVUK-VIBRACII-TELEFONA.MP3 
*PATCH ZVUK-VIBRACII-TELEFONA.MP3:  FROM SOURCE 1 TO RECORD 13 
*SOURCE FILE: ZVUK-VIBRACII-TELEFONA.MP3
009640  ZVUK-VIBRACII-TELEFONA.MP3       A14   C        01:00:01:03 01:00:01:11 01:48:34:18 01:48:35:01 
*FROM CLIP NAME:  ZVUK-VIBRACII-TELEFONA.MP3 
*PATCH ZVUK-VIBRACII-TELEFONA.MP3:  FROM SOURCE 2 TO RECORD 14 
*SOURCE FILE: ZVUK-VIBRACII-TELEFONA.MP3
009641  MSMMMOB.43                       V     C        11:06:28:03 11:06:34:09 01:48:35:09 01:48:41:15 
M2      MSMMMOB.43                                025.0 11:06:28:03 
*FROM CLIP NAME:  B011C010_190811_R481 
*SOURCE FILE: MSMMMOB.43
009642  UPM_MAT233_11_PHILLY_LURVE_MAIN_ A19   C        01:00:25:12 01:01:11:17 01:48:35:22 01:49:22:02 
*FROM CLIP NAME:  UPM_MAT233_11_PHILLY_LURVE_MAIN_TRACK_MARTIN_438794.MP3 
*A19 VOL = -15.0 DB  PAN R100 
*PATCH UPM_MAT233_11_PHILLY_LURVE_MAIN_:  FROM SOURCE 1 TO RECORD 19 
*SOURCE FILE: UPM_MAT233_11_PHILLY_LURVE_MAIN_TRACK_MARTIN_438794.MP3
009643  UPM_MAT233_11_PHILLY_LURVE_MAIN_ A20   C        01:00:25:12 01:01:11:17 01:48:35:22 01:49:22:02 
*FROM CLIP NAME:  UPM_MAT233_11_PHILLY_LURVE_MAIN_TRACK_MARTIN_438794.MP3 
*A20 VOL = -15.0 DB  PAN L100 
*PATCH UPM_MAT233_11_PHILLY_LURVE_MAIN_:  FROM SOURCE 2 TO RECORD 20 
*SOURCE FILE: UPM_MAT233_11_PHILLY_LURVE_MAIN_TRACK_MARTIN_438794.MP3
009644  AUDIO-2019-10-01-17-40-48.M4A    A8    C        01:00:07:02 01:00:11:05 01:48:36:10 01:48:40:13 
*FROM CLIP NAME:  AUDIO-2019-10-01-17-40-48.M4A 
*A8 VOL =  +8.0 DB  PAN L100 
*PATCH AUDIO-2019-10-01-17-40-48.M4A:  FROM SOURCE 1 TO RECORD 8 
*SOURCE FILE: AUDIO-2019-10-01-17-40-48.M4A
009645  BL                               V     C        00:00:00:00 00:00:03:23 01:48:36:15 01:48:40:13 
*SOURCE FILE: (NULL)
009646  TITLE.01                         V     C        01:00:23:05 01:00:28:05 01:48:36:15 01:48:41:15 
*FROM CLIP NAME:  TITLE.01 
*SOURCE FILE: TITLE.01
009647  ??????.M4A                       A9    C        01:00:18:01 01:00:19:04 01:48:40:12 01:48:41:15 
*FROM CLIP NAME:  SOUND_KEY.M4A 
*PATCH ??????.M4A:  FROM SOURCE 1 TO RECORD 9 
*SOURCE FILE: ??????.M4A
009648  BL                               V     C        00:00:00:00 00:00:01:14 01:48:40:13 01:48:42:02 
*SOURCE FILE: (NULL)
009649  ??????.M4A                       A9    C        01:00:19:18 01:00:19:19 01:48:41:15 01:48:41:16 
*FROM CLIP NAME:  SOUND_KEY.M4A 
*PATCH ??????.M4A:  FROM SOURCE 1 TO RECORD 9 
*SOURCE FILE: ??????.M4A
009650  ZVUK-VIBRACII-TELEFONA.MP3       A13   C        01:00:00:04 01:00:00:09 01:48:41:15 01:48:41:20 
*FROM CLIP NAME:  ZVUK-VIBRACII-TELEFONA.MP3 
*PATCH ZVUK-VIBRACII-TELEFONA.MP3:  FROM SOURCE 1 TO RECORD 13 
*SOURCE FILE: ZVUK-VIBRACII-TELEFONA.MP3
009651  ZVUK-VIBRACII-TELEFONA.MP3       A14   C        01:00:00:04 01:00:00:09 01:48:41:15 01:48:41:20 
*FROM CLIP NAME:  ZVUK-VIBRACII-TELEFONA.MP3 
*PATCH ZVUK-VIBRACII-TELEFONA.MP3:  FROM SOURCE 2 TO RECORD 14 
*SOURCE FILE: ZVUK-VIBRACII-TELEFONA.MP3
009652  TITLE.01                         V     C        01:00:17:10 01:00:21:05 01:48:41:15 01:48:45:10 
*FROM CLIP NAME:  TITLE.01 
*SOURCE FILE: TITLE.01
009653  MSMMMOB.41                       V     C        18:48:38:10 18:48:43:19 01:48:41:15 01:48:46:24 
M2      MSMMMOB.41                                025.0 18:48:38:10 
*FROM CLIP NAME:  A040C004_190804_R32C 
*SOURCE FILE: MSMMMOB.41
009654  ZVUK-VIBRACII-TELEFONA.MP3       A13   C        01:00:00:09 01:00:00:09 01:48:41:20 01:48:41:20 
009654  ZVUK-VIBRACII-TELEFONA.MP3       A13   D    002 01:00:01:01 01:00:01:03 01:48:41:20 01:48:41:22 
*FROM CLIP NAME:  ZVUK-VIBRACII-TELEFONA.MP3 
*TO CLIP NAME:  ZVUK-VIBRACII-TELEFONA.MP3 
*PATCH ZVUK-VIBRACII-TELEFONA.MP3:  FROM SOURCE 1 TO RECORD 13 
*PATCH ZVUK-VIBRACII-TELEFONA.MP3:  FROM SOURCE 1 TO RECORD 13 
*SOURCE FILE: ZVUK-VIBRACII-TELEFONA.MP3
009655  ZVUK-VIBRACII-TELEFONA.MP3       A14   C        01:00:00:09 01:00:00:09 01:48:41:20 01:48:41:20 
009655  ZVUK-VIBRACII-TELEFONA.MP3       A14   D    002 01:00:01:01 01:00:01:03 01:48:41:20 01:48:41:22 
*FROM CLIP NAME:  ZVUK-VIBRACII-TELEFONA.MP3 
*TO CLIP NAME:  ZVUK-VIBRACII-TELEFONA.MP3 
*PATCH ZVUK-VIBRACII-TELEFONA.MP3:  FROM SOURCE 2 TO RECORD 14 
*PATCH ZVUK-VIBRACII-TELEFONA.MP3:  FROM SOURCE 2 TO RECORD 14 
*SOURCE FILE: ZVUK-VIBRACII-TELEFONA.MP3
009656  ZVUK-VIBRACII-TELEFONA.MP3       A13   C        01:00:01:03 01:00:01:11 01:48:41:22 01:48:42:05 
*FROM CLIP NAME:  ZVUK-VIBRACII-TELEFONA.MP3 
*PATCH ZVUK-VIBRACII-TELEFONA.MP3:  FROM SOURCE 1 TO RECORD 13 
*SOURCE FILE: ZVUK-VIBRACII-TELEFONA.MP3
009657  ZVUK-VIBRACII-TELEFONA.MP3       A14   C        01:00:01:03 01:00:01:11 01:48:41:22 01:48:42:05 
*FROM CLIP NAME:  ZVUK-VIBRACII-TELEFONA.MP3 
*PATCH ZVUK-VIBRACII-TELEFONA.MP3:  FROM SOURCE 2 TO RECORD 14 
*SOURCE FILE: ZVUK-VIBRACII-TELEFONA.MP3
009658  AUDIO-2019-10-01-18-04-30.M4A    A8    C        01:00:08:14 01:00:11:23 01:48:42:01 01:48:45:10 
*FROM CLIP NAME:  AUDIO-2019-10-01-18-04-30.M4A 
*PATCH AUDIO-2019-10-01-18-04-30.M4A:  FROM SOURCE 1 TO RECORD 8 
*SOURCE FILE: AUDIO-2019-10-01-18-04-30.M4A
009659  BL                               V     C        00:00:00:00 00:00:03:08 01:48:42:02 01:48:45:10 
*SOURCE FILE: (NULL)
009660  19Y08M04                         A     C        18:48:41:05 18:48:43:06 01:48:44:10 01:48:46:11 
*FROM CLIP NAME:  67-69AK2/04 
*SOURCE FILE: 19Y08M04
009661  19Y08M04                         A2    C        18:48:41:05 18:48:43:06 01:48:44:10 01:48:46:11 
*FROM CLIP NAME:  67-69AK2/04 
*SOURCE FILE: 19Y08M04
009662  19Y08M04                         A3    C        18:48:41:05 18:48:43:06 01:48:44:10 01:48:46:11 
*FROM CLIP NAME:  67-69AK2/04 
*SOURCE FILE: 19Y08M04
009663  19Y08M04                         A4    C        18:48:41:05 18:48:43:06 01:48:44:10 01:48:46:11 
*FROM CLIP NAME:  67-69AK2/04 
*SOURCE FILE: 19Y08M04
009664  MSMMMOB.41                       A5    C        18:48:41:05 18:48:43:06 01:48:44:10 01:48:46:11 
*FROM CLIP NAME:  A040C004_190804_R32C 
*SOURCE FILE: MSMMMOB.41
009665  19Y08M04                         A6    C        18:48:41:05 18:48:43:06 01:48:44:10 01:48:46:11 
*FROM CLIP NAME:  67-69AK2/04 
*PATCH 19Y08M04:  FROM SOURCE 7 TO RECORD 6 
*SOURCE FILE: 19Y08M04
009666  BL                               V     C        00:00:00:00 00:00:01:14 01:48:45:10 01:48:46:24 
*SOURCE FILE: (NULL)
009667  BL                               V     C        00:00:00:00 00:00:01:14 01:48:45:10 01:48:46:24 
*SOURCE FILE: (NULL)
009668  ??????.M4A                       A9    C        01:00:18:01 01:00:19:09 01:48:45:16 01:48:46:24 
*FROM CLIP NAME:  SOUND_KEY.M4A 
*PATCH ??????.M4A:  FROM SOURCE 1 TO RECORD 9 
*SOURCE FILE: ??????.M4A
009670  TITLE.01                         V     C        01:00:22:19 01:00:29:21 01:48:46:24 01:48:54:01 
*FROM CLIP NAME:  TITLE.01 
*SOURCE FILE: TITLE.01
009669  BL                               V     C        00:00:00:00 00:00:07:02 01:48:46:24 01:48:54:01 
*SOURCE FILE: (NULL)
009671  AUDIO-2019-10-01-17-40-48.M4A    A8    C        01:00:12:14 01:00:19:18 01:48:46:24 01:48:54:03 
*FROM CLIP NAME:  AUDIO-2019-10-01-17-40-48.M4A 
*PATCH AUDIO-2019-10-01-17-40-48.M4A:  FROM SOURCE 1 TO RECORD 8 
*SOURCE FILE: AUDIO-2019-10-01-17-40-48.M4A
009672  MSMMMOB.43                       V     C        11:06:10:06 11:06:17:24 01:48:46:24 01:48:54:17 
M2      MSMMMOB.43                                025.0 11:06:10:06 
*FROM CLIP NAME:  B011C010_190811_R481 
*SOURCE FILE: MSMMMOB.43
009673  ??????.M4A                       A14   C        01:00:18:01 01:00:19:01 01:48:53:17 01:48:54:17 
*FROM CLIP NAME:  SOUND_KEY.M4A 
*PATCH ??????.M4A:  FROM SOURCE 1 TO RECORD 14 
*SOURCE FILE: ??????.M4A
009674  BL                               V     C        00:00:00:00 00:00:00:16 01:48:54:01 01:48:54:17 
*SOURCE FILE: (NULL)
009675  BL                               V     C        00:00:00:00 00:00:00:16 01:48:54:01 01:48:54:17 
*SOURCE FILE: (NULL)
009676  AUDIO-2019-10-01-18-04-30.M4A    A8    C        01:00:13:10 01:00:14:19 01:48:54:17 01:48:56:01 
*FROM CLIP NAME:  AUDIO-2019-10-01-18-04-30.M4A 
*PATCH AUDIO-2019-10-01-18-04-30.M4A:  FROM SOURCE 1 TO RECORD 8 
*SOURCE FILE: AUDIO-2019-10-01-18-04-30.M4A
009677  BL                               V     C        00:00:00:00 00:00:01:24 01:48:54:17 01:48:56:16 
*SOURCE FILE: (NULL)
009678  TITLE.01                         V     C        01:00:32:05 01:00:34:04 01:48:54:17 01:48:56:16 
*FROM CLIP NAME:  TITLE.01 
*SOURCE FILE: TITLE.01
009679  19Y08M04                         A     C        18:59:14:21 18:59:17:12 01:48:54:17 01:48:57:08 
*FROM CLIP NAME:  67-69AK3/01 
*SOURCE FILE: 19Y08M04
009680  19Y08M04                         A2    C        18:59:14:21 18:59:17:12 01:48:54:17 01:48:57:08 
*FROM CLIP NAME:  67-69AK3/01 
*SOURCE FILE: 19Y08M04
009681  19Y08M04                         A3    C        18:59:14:21 18:59:17:12 01:48:54:17 01:48:57:08 
*FROM CLIP NAME:  67-69AK3/01 
*SOURCE FILE: 19Y08M04
009682  19Y08M04                         A4    C        18:59:14:21 18:59:17:12 01:48:54:17 01:48:57:08 
*FROM CLIP NAME:  67-69AK3/01 
*SOURCE FILE: 19Y08M04
009683  MSMMMOB.05                       A5    C        18:59:14:21 18:59:17:12 01:48:54:17 01:48:57:08 
*FROM CLIP NAME:  A040C005_190804_R32C 
*SOURCE FILE: MSMMMOB.05
009684  19Y08M04                         A6    C        18:59:14:21 18:59:17:12 01:48:54:17 01:48:57:08 
*FROM CLIP NAME:  67-69AK3/01 
*PATCH 19Y08M04:  FROM SOURCE 7 TO RECORD 6 
*SOURCE FILE: 19Y08M04
009685  MSMMMOB.36                       V     C        19:02:21:02 19:02:29:07 01:48:54:17 01:49:02:22 
M2      MSMMMOB.36                                025.0 19:02:21:02 
*FROM CLIP NAME:  A040C006_190804_R32C 
*SOURCE FILE: MSMMMOB.36
009686  AUDIO-2019-10-01-18-04-30.M4A    A8    C        01:00:14:19 01:00:16:02 01:48:56:03 01:48:57:11 
*FROM CLIP NAME:  AUDIO-2019-10-01-18-04-30.M4A 
*PATCH AUDIO-2019-10-01-18-04-30.M4A:  FROM SOURCE 1 TO RECORD 8 
*SOURCE FILE: AUDIO-2019-10-01-18-04-30.M4A
009688  BL                               V     C        00:00:00:00 00:00:01:07 01:48:56:16 01:48:57:23 
*SOURCE FILE: (NULL)
009687  BL                               V     C        00:00:00:00 00:00:01:07 01:48:56:16 01:48:57:23 
*SOURCE FILE: (NULL)
009689  ZVUK-VIBRACII-TELEFONA.MP3       A12   C        01:00:00:04 01:00:00:09 01:48:57:08 01:48:57:13 
*FROM CLIP NAME:  ZVUK-VIBRACII-TELEFONA.MP3 
*PATCH ZVUK-VIBRACII-TELEFONA.MP3:  FROM SOURCE 1 TO RECORD 12 
*SOURCE FILE: ZVUK-VIBRACII-TELEFONA.MP3
009690  ZVUK-VIBRACII-TELEFONA.MP3       A13   C        01:00:00:04 01:00:00:09 01:48:57:08 01:48:57:13 
*FROM CLIP NAME:  ZVUK-VIBRACII-TELEFONA.MP3 
*PATCH ZVUK-VIBRACII-TELEFONA.MP3:  FROM SOURCE 2 TO RECORD 13 
*SOURCE FILE: ZVUK-VIBRACII-TELEFONA.MP3
009691  ZVUK-VIBRACII-TELEFONA.MP3       A12   C        01:00:00:09 01:00:00:09 01:48:57:13 01:48:57:13 
009691  ZVUK-VIBRACII-TELEFONA.MP3       A12   D    002 01:00:01:01 01:00:01:03 01:48:57:13 01:48:57:15 
*FROM CLIP NAME:  ZVUK-VIBRACII-TELEFONA.MP3 
*TO CLIP NAME:  ZVUK-VIBRACII-TELEFONA.MP3 
*PATCH ZVUK-VIBRACII-TELEFONA.MP3:  FROM SOURCE 1 TO RECORD 12 
*PATCH ZVUK-VIBRACII-TELEFONA.MP3:  FROM SOURCE 1 TO RECORD 12 
*SOURCE FILE: ZVUK-VIBRACII-TELEFONA.MP3
009692  ZVUK-VIBRACII-TELEFONA.MP3       A13   C        01:00:00:09 01:00:00:09 01:48:57:13 01:48:57:13 
009692  ZVUK-VIBRACII-TELEFONA.MP3       A13   D    002 01:00:01:01 01:00:01:03 01:48:57:13 01:48:57:15 
*FROM CLIP NAME:  ZVUK-VIBRACII-TELEFONA.MP3 
*TO CLIP NAME:  ZVUK-VIBRACII-TELEFONA.MP3 
*PATCH ZVUK-VIBRACII-TELEFONA.MP3:  FROM SOURCE 2 TO RECORD 13 
*PATCH ZVUK-VIBRACII-TELEFONA.MP3:  FROM SOURCE 2 TO RECORD 13 
*SOURCE FILE: ZVUK-VIBRACII-TELEFONA.MP3
009693  ZVUK-VIBRACII-TELEFONA.MP3       A12   C        01:00:01:03 01:00:01:11 01:48:57:15 01:48:57:23 
*FROM CLIP NAME:  ZVUK-VIBRACII-TELEFONA.MP3 
*PATCH ZVUK-VIBRACII-TELEFONA.MP3:  FROM SOURCE 1 TO RECORD 12 
*SOURCE FILE: ZVUK-VIBRACII-TELEFONA.MP3
009694  ZVUK-VIBRACII-TELEFONA.MP3       A13   C        01:00:01:03 01:00:01:11 01:48:57:15 01:48:57:23 
*FROM CLIP NAME:  ZVUK-VIBRACII-TELEFONA.MP3 
*PATCH ZVUK-VIBRACII-TELEFONA.MP3:  FROM SOURCE 2 TO RECORD 13 
*SOURCE FILE: ZVUK-VIBRACII-TELEFONA.MP3
009696  TITLE.01                         V     C        01:00:35:14 01:00:37:00 01:48:57:23 01:48:59:09 
*FROM CLIP NAME:  TITLE.01 
*SOURCE FILE: TITLE.01
009695  BL                               V     C        00:00:00:00 00:00:01:11 01:48:57:23 01:48:59:09 
*SOURCE FILE: (NULL)
009697  AUDIO-2019-10-01-18-04-30.M4A    A8    C        01:00:16:21 01:00:18:07 01:48:57:23 01:48:59:09 
*FROM CLIP NAME:  AUDIO-2019-10-01-18-04-30.M4A 
*PATCH AUDIO-2019-10-01-18-04-30.M4A:  FROM SOURCE 1 TO RECORD 8 
*SOURCE FILE: AUDIO-2019-10-01-18-04-30.M4A
009698  19Y08M04                         A     C        18:59:18:22 18:59:21:06 01:48:58:18 01:49:01:02 
*FROM CLIP NAME:  67-69AK3/01 
*SOURCE FILE: 19Y08M04
009699  19Y08M04                         A2    C        18:59:18:22 18:59:21:06 01:48:58:18 01:49:01:02 
*FROM CLIP NAME:  67-69AK3/01 
*SOURCE FILE: 19Y08M04
009700  19Y08M04                         A3    C        18:59:18:22 18:59:21:06 01:48:58:18 01:49:01:02 
*FROM CLIP NAME:  67-69AK3/01 
*SOURCE FILE: 19Y08M04
009701  19Y08M04                         A4    C        18:59:18:22 18:59:21:06 01:48:58:18 01:49:01:02 
*FROM CLIP NAME:  67-69AK3/01 
*SOURCE FILE: 19Y08M04
009702  MSMMMOB.05                       A5    C        18:59:18:22 18:59:21:06 01:48:58:18 01:49:01:02 
*FROM CLIP NAME:  A040C005_190804_R32C 
*SOURCE FILE: MSMMMOB.05
009703  19Y08M04                         A6    C        18:59:18:22 18:59:21:06 01:48:58:18 01:49:01:02 
*FROM CLIP NAME:  67-69AK3/01 
*PATCH 19Y08M04:  FROM SOURCE 7 TO RECORD 6 
*SOURCE FILE: 19Y08M04
009704  BL                               V     C        00:00:00:00 00:00:05:11 01:48:59:09 01:49:04:20 
*SOURCE FILE: (NULL)
009705  BL                               V     C        00:00:00:00 00:00:05:11 01:48:59:09 01:49:04:20 
*SOURCE FILE: (NULL)
009706  19Y08M04                         A     C        18:59:22:06 18:59:22:20 01:49:02:02 01:49:02:16 
*FROM CLIP NAME:  67-69AK3/01 
*SOURCE FILE: 19Y08M04
009707  19Y08M04                         A2    C        18:59:22:06 18:59:22:20 01:49:02:02 01:49:02:16 
*FROM CLIP NAME:  67-69AK3/01 
*SOURCE FILE: 19Y08M04
009708  19Y08M04                         A3    C        18:59:22:06 18:59:22:20 01:49:02:02 01:49:02:16 
*FROM CLIP NAME:  67-69AK3/01 
*SOURCE FILE: 19Y08M04
009709  19Y08M04                         A4    C        18:59:22:06 18:59:22:20 01:49:02:02 01:49:02:16 
*FROM CLIP NAME:  67-69AK3/01 
*SOURCE FILE: 19Y08M04
009710  MSMMMOB.05                       A5    C        18:59:22:06 18:59:22:20 01:49:02:02 01:49:02:16 
*FROM CLIP NAME:  A040C005_190804_R32C 
*SOURCE FILE: MSMMMOB.05
009711  19Y08M04                         A6    C        18:59:22:06 18:59:22:20 01:49:02:02 01:49:02:16 
*FROM CLIP NAME:  67-69AK3/01 
*PATCH 19Y08M04:  FROM SOURCE 7 TO RECORD 6 
*SOURCE FILE: 19Y08M04
009712  ??????.M4A                       A14   C        01:00:18:09 01:00:19:01 01:49:02:05 01:49:02:22 
*FROM CLIP NAME:  SOUND_KEY.M4A 
*PATCH ??????.M4A:  FROM SOURCE 1 TO RECORD 14 
*SOURCE FILE: ??????.M4A
009713  MSMMMOB.43                       V     C        11:06:41:14 11:06:48:21 01:49:02:22 01:49:10:04 
M2      MSMMMOB.43                                025.0 11:06:41:14 
*FROM CLIP NAME:  B011C010_190811_R481 
*SOURCE FILE: MSMMMOB.43
009714  ZVUK-VIBRACII-TELEFONA.MP3       A13   C        01:00:00:04 01:00:00:09 01:49:02:24 01:49:03:04 
*FROM CLIP NAME:  ZVUK-VIBRACII-TELEFONA.MP3 
*PATCH ZVUK-VIBRACII-TELEFONA.MP3:  FROM SOURCE 1 TO RECORD 13 
*SOURCE FILE: ZVUK-VIBRACII-TELEFONA.MP3
009715  ZVUK-VIBRACII-TELEFONA.MP3       A14   C        01:00:00:04 01:00:00:09 01:49:02:24 01:49:03:04 
*FROM CLIP NAME:  ZVUK-VIBRACII-TELEFONA.MP3 
*PATCH ZVUK-VIBRACII-TELEFONA.MP3:  FROM SOURCE 2 TO RECORD 14 
*SOURCE FILE: ZVUK-VIBRACII-TELEFONA.MP3
009716  ZVUK-VIBRACII-TELEFONA.MP3       A13   C        01:00:00:09 01:00:00:09 01:49:03:04 01:49:03:04 
009716  ZVUK-VIBRACII-TELEFONA.MP3       A13   D    002 01:00:01:01 01:00:01:03 01:49:03:04 01:49:03:06 
*FROM CLIP NAME:  ZVUK-VIBRACII-TELEFONA.MP3 
*TO CLIP NAME:  ZVUK-VIBRACII-TELEFONA.MP3 
*PATCH ZVUK-VIBRACII-TELEFONA.MP3:  FROM SOURCE 1 TO RECORD 13 
*PATCH ZVUK-VIBRACII-TELEFONA.MP3:  FROM SOURCE 1 TO RECORD 13 
*SOURCE FILE: ZVUK-VIBRACII-TELEFONA.MP3
009717  ZVUK-VIBRACII-TELEFONA.MP3       A14   C        01:00:00:09 01:00:00:09 01:49:03:04 01:49:03:04 
009717  ZVUK-VIBRACII-TELEFONA.MP3       A14   D    002 01:00:01:01 01:00:01:03 01:49:03:04 01:49:03:06 
*FROM CLIP NAME:  ZVUK-VIBRACII-TELEFONA.MP3 
*TO CLIP NAME:  ZVUK-VIBRACII-TELEFONA.MP3 
*PATCH ZVUK-VIBRACII-TELEFONA.MP3:  FROM SOURCE 2 TO RECORD 14 
*PATCH ZVUK-VIBRACII-TELEFONA.MP3:  FROM SOURCE 2 TO RECORD 14 
*SOURCE FILE: ZVUK-VIBRACII-TELEFONA.MP3
009718  ZVUK-VIBRACII-TELEFONA.MP3       A13   C        01:00:01:03 01:00:01:11 01:49:03:06 01:49:03:14 
*FROM CLIP NAME:  ZVUK-VIBRACII-TELEFONA.MP3 
*PATCH ZVUK-VIBRACII-TELEFONA.MP3:  FROM SOURCE 1 TO RECORD 13 
*SOURCE FILE: ZVUK-VIBRACII-TELEFONA.MP3
009719  ZVUK-VIBRACII-TELEFONA.MP3       A14   C        01:00:01:03 01:00:01:11 01:49:03:06 01:49:03:14 
*FROM CLIP NAME:  ZVUK-VIBRACII-TELEFONA.MP3 
*PATCH ZVUK-VIBRACII-TELEFONA.MP3:  FROM SOURCE 2 TO RECORD 14 
*SOURCE FILE: ZVUK-VIBRACII-TELEFONA.MP3
009720  TITLE.01                         V     C        01:00:42:08 01:00:46:11 01:49:04:20 01:49:08:23 
*FROM CLIP NAME:  TITLE.01 
*SOURCE FILE: TITLE.01
009721  BL                               V     C        00:00:00:00 00:00:04:03 01:49:04:20 01:49:08:23 
*SOURCE FILE: (NULL)
009722  AUDIO-2019-10-01-17-40-48.M4A    A8    C        01:00:21:20 01:00:25:23 01:49:04:20 01:49:08:23 
*FROM CLIP NAME:  AUDIO-2019-10-01-17-40-48.M4A 
*A8 VOL =  +6.0 DB  PAN L100 
*PATCH AUDIO-2019-10-01-17-40-48.M4A:  FROM SOURCE 1 TO RECORD 8 
*SOURCE FILE: AUDIO-2019-10-01-17-40-48.M4A
009723  BL                               V     C        00:00:00:00 00:00:01:06 01:49:08:23 01:49:10:04 
*SOURCE FILE: (NULL)
009724  BL                               V     C        00:00:00:00 00:00:02:07 01:49:08:23 01:49:11:05 
*SOURCE FILE: (NULL)
009725  ??????.M4A                       A14   C        01:00:18:01 01:00:19:01 01:49:09:04 01:49:10:04 
*FROM CLIP NAME:  SOUND_KEY.M4A 
*PATCH ??????.M4A:  FROM SOURCE 1 TO RECORD 14 
*SOURCE FILE: ??????.M4A
009726  19Y08M04                         A     C        20:10:18:10 20:10:24:11 01:49:10:04 01:49:16:05 
*FROM CLIP NAME:  F_67-69A/01 
*SOURCE FILE: 19Y08M04
009727  19Y08M04                         A2    C        20:10:18:10 20:10:24:11 01:49:10:04 01:49:16:05 
*FROM CLIP NAME:  F_67-69A/01 
*PATCH 19Y08M04:  FROM SOURCE 4 TO RECORD 2 
*SOURCE FILE: 19Y08M04
009728  19Y08M04                         A3    C        20:10:18:10 20:10:24:11 01:49:10:04 01:49:16:05 
*FROM CLIP NAME:  F_67-69A/01 
*SOURCE FILE: 19Y08M04
009729  TITLE.01                         V     C        01:00:17:15 01:00:32:18 01:49:10:04 01:49:25:07 
*FROM CLIP NAME:  TITLE.01 
*SOURCE FILE: TITLE.01
009730  MSMMMOB.56                       V     C        19:04:42:05 19:04:58:15 01:49:10:04 01:49:26:14 
M2      MSMMMOB.56                                025.0 19:04:42:05 
*FROM CLIP NAME:  A040C007_190804_R32C 
*SOURCE FILE: MSMMMOB.56
009731  19Y08M04                         A4    C        19:04:42:04 19:04:58:14 01:49:10:04 01:49:26:14 
*FROM CLIP NAME:  67-69AK3/03 
*SOURCE FILE: 19Y08M04
009732  MSMMMOB.56                       A5    C        19:04:42:05 19:04:58:15 01:49:10:04 01:49:26:14 
*FROM CLIP NAME:  A040C007_190804_R32C 
*SOURCE FILE: MSMMMOB.56
009733  19Y08M04                         A6    C        19:04:42:04 19:04:58:14 01:49:10:04 01:49:26:14 
*FROM CLIP NAME:  67-69AK3/03 
*PATCH 19Y08M04:  FROM SOURCE 7 TO RECORD 6 
*SOURCE FILE: 19Y08M04
009734  ZVUK-VIBRACII-TELEFONA.MP3       A11   C        01:00:00:04 01:00:00:09 01:49:10:06 01:49:10:11 
*FROM CLIP NAME:  ZVUK-VIBRACII-TELEFONA.MP3 
*PATCH ZVUK-VIBRACII-TELEFONA.MP3:  FROM SOURCE 1 TO RECORD 11 
*SOURCE FILE: ZVUK-VIBRACII-TELEFONA.MP3
009735  ZVUK-VIBRACII-TELEFONA.MP3       A12   C        01:00:00:04 01:00:00:09 01:49:10:06 01:49:10:11 
*FROM CLIP NAME:  ZVUK-VIBRACII-TELEFONA.MP3 
*PATCH ZVUK-VIBRACII-TELEFONA.MP3:  FROM SOURCE 2 TO RECORD 12 
*SOURCE FILE: ZVUK-VIBRACII-TELEFONA.MP3
009736  ZVUK-VIBRACII-TELEFONA.MP3       A11   C        01:00:00:09 01:00:00:09 01:49:10:11 01:49:10:11 
009736  ZVUK-VIBRACII-TELEFONA.MP3       A11   D    002 01:00:01:01 01:00:01:03 01:49:10:11 01:49:10:13 
*FROM CLIP NAME:  ZVUK-VIBRACII-TELEFONA.MP3 
*TO CLIP NAME:  ZVUK-VIBRACII-TELEFONA.MP3 
*PATCH ZVUK-VIBRACII-TELEFONA.MP3:  FROM SOURCE 1 TO RECORD 11 
*PATCH ZVUK-VIBRACII-TELEFONA.MP3:  FROM SOURCE 1 TO RECORD 11 
*SOURCE FILE: ZVUK-VIBRACII-TELEFONA.MP3
009737  ZVUK-VIBRACII-TELEFONA.MP3       A12   C        01:00:00:09 01:00:00:09 01:49:10:11 01:49:10:11 
009737  ZVUK-VIBRACII-TELEFONA.MP3       A12   D    002 01:00:01:01 01:00:01:03 01:49:10:11 01:49:10:13 
*FROM CLIP NAME:  ZVUK-VIBRACII-TELEFONA.MP3 
*TO CLIP NAME:  ZVUK-VIBRACII-TELEFONA.MP3 
*PATCH ZVUK-VIBRACII-TELEFONA.MP3:  FROM SOURCE 2 TO RECORD 12 
*PATCH ZVUK-VIBRACII-TELEFONA.MP3:  FROM SOURCE 2 TO RECORD 12 
*SOURCE FILE: ZVUK-VIBRACII-TELEFONA.MP3
009738  ZVUK-VIBRACII-TELEFONA.MP3       A11   C        01:00:01:03 01:00:01:11 01:49:10:13 01:49:10:21 
*FROM CLIP NAME:  ZVUK-VIBRACII-TELEFONA.MP3 
*PATCH ZVUK-VIBRACII-TELEFONA.MP3:  FROM SOURCE 1 TO RECORD 11 
*SOURCE FILE: ZVUK-VIBRACII-TELEFONA.MP3
009739  ZVUK-VIBRACII-TELEFONA.MP3       A12   C        01:00:01:03 01:00:01:11 01:49:10:13 01:49:10:21 
*FROM CLIP NAME:  ZVUK-VIBRACII-TELEFONA.MP3 
*PATCH ZVUK-VIBRACII-TELEFONA.MP3:  FROM SOURCE 2 TO RECORD 12 
*SOURCE FILE: ZVUK-VIBRACII-TELEFONA.MP3
009740  AUDIO-2019-10-01-18-04-30.M4A    A8    C        01:00:20:07 01:00:22:07 01:49:10:15 01:49:12:15 
*FROM CLIP NAME:  AUDIO-2019-10-01-18-04-30.M4A 
*PATCH AUDIO-2019-10-01-18-04-30.M4A:  FROM SOURCE 1 TO RECORD 8 
*SOURCE FILE: AUDIO-2019-10-01-18-04-30.M4A
009741  BL                               V     C        00:00:00:00 00:00:04:09 01:49:11:05 01:49:15:14 
*SOURCE FILE: (NULL)
009742  AUDIO-2019-10-01-18-04-30.M4A    A8    C        01:00:22:16 01:00:25:15 01:49:12:15 01:49:15:14 
*FROM CLIP NAME:  AUDIO-2019-10-01-18-04-30.M4A 
*PATCH AUDIO-2019-10-01-18-04-30.M4A:  FROM SOURCE 1 TO RECORD 8 
*SOURCE FILE: AUDIO-2019-10-01-18-04-30.M4A
009743  BL                               V     C        00:00:00:00 00:00:06:01 01:49:15:14 01:49:21:15 
*SOURCE FILE: (NULL)
009744  19Y08M04                         A     C        19:04:48:05 19:04:53:24 01:49:16:05 01:49:21:24 
*FROM CLIP NAME:  67-69AK3/03 
*SOURCE FILE: 19Y08M04
009745  19Y08M04                         A2    C        19:04:48:05 19:04:53:24 01:49:16:05 01:49:21:24 
*FROM CLIP NAME:  67-69AK3/03 
*SOURCE FILE: 19Y08M04
009746  19Y08M04                         A3    C        19:04:48:05 19:04:53:24 01:49:16:05 01:49:21:24 
*FROM CLIP NAME:  67-69AK3/03 
*SOURCE FILE: 19Y08M04
009747  ??????.M4A                       A14   C        01:00:18:01 01:00:20:20 01:49:21:08 01:49:24:02 
*FROM CLIP NAME:  SOUND_KEY.M4A 
*PATCH ??????.M4A:  FROM SOURCE 1 TO RECORD 14 
*SOURCE FILE: ??????.M4A
009748  BL                               V     C        00:00:00:00 00:00:02:12 01:49:21:15 01:49:24:02 
*SOURCE FILE: (NULL)
009749  19Y08M04                         A     C        20:10:17:08 20:10:20:01 01:49:21:24 01:49:24:17 
*FROM CLIP NAME:  F_67-69A/01 
*SOURCE FILE: 19Y08M04
009750  19Y08M04                         A2    C        20:10:17:08 20:10:20:01 01:49:21:24 01:49:24:17 
*FROM CLIP NAME:  F_67-69A/01 
*PATCH 19Y08M04:  FROM SOURCE 4 TO RECORD 2 
*SOURCE FILE: 19Y08M04
009751  19Y08M04                         A3    C        20:10:17:08 20:10:20:01 01:49:21:24 01:49:24:17 
*FROM CLIP NAME:  F_67-69A/01 
*SOURCE FILE: 19Y08M04
009752  AUDIO-2019-10-01-17-40-48.M4A    A8    C        01:00:27:19 01:00:30:08 01:49:22:00 01:49:24:14 
*FROM CLIP NAME:  AUDIO-2019-10-01-17-40-48.M4A 
*A8 VOL =  +8.1 DB  PAN L100 
*PATCH AUDIO-2019-10-01-17-40-48.M4A:  FROM SOURCE 1 TO RECORD 8 
*SOURCE FILE: AUDIO-2019-10-01-17-40-48.M4A
009753  BL                               V     C        00:00:00:00 00:01:15:12 01:49:24:02 01:50:39:14 
*SOURCE FILE: (NULL)
009754  19Y08M04                         A     C        19:04:56:17 19:04:58:14 01:49:24:17 01:49:26:14 
*FROM CLIP NAME:  67-69AK3/03 
*SOURCE FILE: 19Y08M04
009755  19Y08M04                         A2    C        19:04:56:17 19:04:58:14 01:49:24:17 01:49:26:14 
*FROM CLIP NAME:  67-69AK3/03 
*SOURCE FILE: 19Y08M04
009756  19Y08M04                         A3    C        19:04:56:17 19:04:58:14 01:49:24:17 01:49:26:14 
*FROM CLIP NAME:  67-69AK3/03 
*SOURCE FILE: 19Y08M04
009757  BL                               V     C        00:00:00:00 00:01:13:12 01:49:25:07 01:50:38:19 
*SOURCE FILE: (NULL)
009758  MSMMMOB.46                       V     C        19:17:27:15 19:17:31:03 01:49:26:14 01:49:30:02 
M2      MSMMMOB.46                                025.0 19:17:27:15 
*FROM CLIP NAME:  A040C012_190804_R32C 
*SOURCE FILE: MSMMMOB.46
009759  19Y08M04                         A     C        19:17:27:15 19:17:31:03 01:49:26:14 01:49:30:02 
*FROM CLIP NAME:  67-69AK5/02 
*SOURCE FILE: 19Y08M04
009760  19Y08M04                         A2    C        19:17:27:15 19:17:31:03 01:49:26:14 01:49:30:02 
*FROM CLIP NAME:  67-69AK5/02 
*SOURCE FILE: 19Y08M04
009761  19Y08M04                         A3    C        19:17:27:15 19:17:31:03 01:49:26:14 01:49:30:02 
*FROM CLIP NAME:  67-69AK5/02 
*SOURCE FILE: 19Y08M04
009762  19Y08M04                         A4    C        19:17:27:15 19:17:31:03 01:49:26:14 01:49:30:02 
*FROM CLIP NAME:  67-69AK5/02 
*SOURCE FILE: 19Y08M04
009763  MSMMMOB.46                       A5    C        19:17:27:15 19:17:31:03 01:49:26:14 01:49:30:02 
*FROM CLIP NAME:  A040C012_190804_R32C 
*SOURCE FILE: MSMMMOB.46
009764  19Y08M04                         A6    C        19:17:27:15 19:17:31:03 01:49:26:14 01:49:30:02 
*FROM CLIP NAME:  67-69AK5/02 
*PATCH 19Y08M04:  FROM SOURCE 7 TO RECORD 6 
*SOURCE FILE: 19Y08M04
009765  MSMMMOB.43                       V     C        11:07:17:14 11:07:21:11 01:49:30:02 01:49:33:24 
M2      MSMMMOB.43                                025.0 11:07:17:14 
*FROM CLIP NAME:  B011C010_190811_R481 
*SOURCE FILE: MSMMMOB.43
009766  19Y08M11                         A     C        11:07:26:07 11:07:30:04 01:49:30:02 01:49:33:24 
*FROM CLIP NAME:  69AK1/03.SYNC.01 
*SOURCE FILE: 19Y08M11
009767  MSMMMOB.43                       A2    C        11:07:27:08 11:07:31:05 01:49:30:02 01:49:33:24 
*FROM CLIP NAME:  B011C010_190811_R481 
*SOURCE FILE: MSMMMOB.43
009768  19Y08M11                         A3    C        11:07:26:07 11:07:30:04 01:49:30:02 01:49:33:24 
*FROM CLIP NAME:  69AK1/03.SYNC.01 
*SOURCE FILE: 19Y08M11
009769  ??????.M4A                       A11   C        01:00:18:01 01:00:21:23 01:49:30:02 01:49:33:24 
*FROM CLIP NAME:  SOUND_KEY.M4A 
*PATCH ??????.M4A:  FROM SOURCE 1 TO RECORD 11 
*SOURCE FILE: ??????.M4A
009770  MSMMMOB.60                       V     C        16:59:55:14 16:59:57:18 01:49:33:24 01:49:36:03 
M2      MSMMMOB.60                                025.0 16:59:55:14 
*FROM CLIP NAME:  A039C009_190804_R32C 
*SOURCE FILE: MSMMMOB.60
009771  19Y08M04                         A     C        16:59:55:14 16:59:57:18 01:49:33:24 01:49:36:03 
*FROM CLIP NAME:  70K2/02 
*SOURCE FILE: 19Y08M04
009772  19Y08M04                         A2    C        16:59:55:14 16:59:57:18 01:49:33:24 01:49:36:03 
*FROM CLIP NAME:  70K2/02 
*SOURCE FILE: 19Y08M04
009773  19Y08M04                         A3    C        16:59:55:14 16:59:57:18 01:49:33:24 01:49:36:03 
*FROM CLIP NAME:  70K2/02 
*SOURCE FILE: 19Y08M04
009774  19Y08M04                         A4    C        16:59:55:14 16:59:57:18 01:49:33:24 01:49:36:03 
*FROM CLIP NAME:  70K2/02 
*SOURCE FILE: 19Y08M04
009775  MSMMMOB.60                       A5    C        16:59:55:14 16:59:57:18 01:49:33:24 01:49:36:03 
*FROM CLIP NAME:  A039C009_190804_R32C 
*SOURCE FILE: MSMMMOB.60
009776  19Y08M04                         A6    C        16:59:55:14 16:59:57:18 01:49:33:24 01:49:36:03 
*FROM CLIP NAME:  70K2/02 
*PATCH 19Y08M04:  FROM SOURCE 7 TO RECORD 6 
*SOURCE FILE: 19Y08M04
009777  MSMMMOB.09                       V     C        16:42:00:21 16:42:03:05 01:49:36:03 01:49:38:12 
M2      MSMMMOB.09                                025.0 16:42:00:21 
*FROM CLIP NAME:  A039C007_190804_R32C 
*SOURCE FILE: MSMMMOB.09
009778  19Y08M04                         A     C        16:42:00:21 16:42:03:05 01:49:36:03 01:49:38:12 
*FROM CLIP NAME:  70K1/02 
*SOURCE FILE: 19Y08M04
009779  19Y08M04                         A2    C        16:42:00:21 16:42:03:05 01:49:36:03 01:49:38:12 
*FROM CLIP NAME:  70K1/02 
*SOURCE FILE: 19Y08M04
009780  19Y08M04                         A3    C        16:42:00:21 16:42:03:05 01:49:36:03 01:49:38:12 
*FROM CLIP NAME:  70K1/02 
*SOURCE FILE: 19Y08M04
009781  19Y08M04                         A4    C        16:42:00:21 16:42:03:05 01:49:36:03 01:49:38:12 
*FROM CLIP NAME:  70K1/02 
*SOURCE FILE: 19Y08M04
009782  MSMMMOB.09                       A5    C        16:42:00:21 16:42:03:05 01:49:36:03 01:49:38:12 
*FROM CLIP NAME:  A039C007_190804_R32C 
*SOURCE FILE: MSMMMOB.09
009783  19Y08M04                         A6    C        16:42:00:21 16:42:03:05 01:49:36:03 01:49:38:12 
*FROM CLIP NAME:  70K1/02 
*PATCH 19Y08M04:  FROM SOURCE 7 TO RECORD 6 
*SOURCE FILE: 19Y08M04
009784  MSMMMOB.29                       V     C        13:38:59:05 13:39:03:13 01:49:38:12 01:49:42:20 
M2      MSMMMOB.29                                025.0 13:38:59:05 
*FROM CLIP NAME:  A038C010_190804_R32C 
*SOURCE FILE: MSMMMOB.29
009785  19Y08M04                         A     C        13:38:59:05 13:39:04:24 01:49:38:12 01:49:44:06 
*FROM CLIP NAME:  71K1/02 
*SOURCE FILE: 19Y08M04
009786  19Y08M04                         A2    C        13:38:59:05 13:39:04:24 01:49:38:12 01:49:44:06 
*FROM CLIP NAME:  71K1/02 
*SOURCE FILE: 19Y08M04
009787  19Y08M04                         A3    C        13:38:59:05 13:39:04:24 01:49:38:12 01:49:44:06 
*FROM CLIP NAME:  71K1/02 
*SOURCE FILE: 19Y08M04
009788  19Y08M04                         A4    C        13:38:59:05 13:39:04:24 01:49:38:12 01:49:44:06 
*FROM CLIP NAME:  71K1/02 
*SOURCE FILE: 19Y08M04
009789  19Y08M04                         A5    C        13:38:59:05 13:39:04:24 01:49:38:12 01:49:44:06 
*FROM CLIP NAME:  71K1/02 
*SOURCE FILE: 19Y08M04
009790  19Y08M04                         A6    C        13:38:59:05 13:39:04:24 01:49:38:12 01:49:44:06 
*FROM CLIP NAME:  71K1/02 
*PATCH 19Y08M04:  FROM SOURCE 7 TO RECORD 6 
*SOURCE FILE: 19Y08M04
009791  19Y08M04                         A7    C        13:38:59:05 13:39:04:24 01:49:38:12 01:49:44:06 
*FROM CLIP NAME:  71K1/02 
*PATCH 19Y08M04:  FROM SOURCE 8 TO RECORD 7 
*SOURCE FILE: 19Y08M04
009792  19Y08M04                         A8    C        13:38:59:05 13:39:04:24 01:49:38:12 01:49:44:06 
*FROM CLIP NAME:  71K1/02 
*PATCH 19Y08M04:  FROM SOURCE 9 TO RECORD 8 
*SOURCE FILE: 19Y08M04
009793  MSMMMOB.43                       V     C        11:07:33:11 11:07:37:24 01:49:42:20 01:49:47:08 
M2      MSMMMOB.43                                025.0 11:07:33:11 
*FROM CLIP NAME:  B011C010_190811_R481 
*SOURCE FILE: MSMMMOB.43
009794  19Y08M11                         A     C        11:07:33:21 11:07:36:23 01:49:44:06 01:49:47:08 
*FROM CLIP NAME:  69AK1/03.SYNC.01 
*SOURCE FILE: 19Y08M11
009795  MSMMMOB.43                       A2    C        11:07:34:22 11:07:37:24 01:49:44:06 01:49:47:08 
*FROM CLIP NAME:  B011C010_190811_R481 
*SOURCE FILE: MSMMMOB.43
009796  19Y08M11                         A3    C        11:07:33:21 11:07:36:23 01:49:44:06 01:49:47:08 
*FROM CLIP NAME:  69AK1/03.SYNC.01 
*SOURCE FILE: 19Y08M11
009797  19Y08M11                         A11   C        11:07:36:22 11:07:37:14 01:49:47:08 01:49:48:00 
*FROM CLIP NAME:  69AK1/03.SYNC.01 
*PATCH 19Y08M11:  FROM SOURCE 1 TO RECORD 11 
*SOURCE FILE: 19Y08M11
009798  MSMMMOB.43                       A12   C        11:07:37:23 11:07:38:15 01:49:47:08 01:49:48:00 
*FROM CLIP NAME:  B011C010_190811_R481 
*PATCH MSMMMOB.43:  FROM SOURCE 2 TO RECORD 12 
*SOURCE FILE: MSMMMOB.43
009799  19Y08M11                         A13   C        11:07:36:22 11:07:37:14 01:49:47:08 01:49:48:00 
*FROM CLIP NAME:  69AK1/03.SYNC.01 
*PATCH 19Y08M11:  FROM SOURCE 3 TO RECORD 13 
*SOURCE FILE: 19Y08M11
009800  MSMMMOB.38                       V     C        14:06:23:16 14:06:37:11 01:49:47:08 01:50:01:03 
M2      MSMMMOB.38                                025.0 14:06:23:16 
*FROM CLIP NAME:  A038C013_190804_R32C 
*SOURCE FILE: MSMMMOB.38
009801  19Y08M04                         A     C        14:06:23:16 14:06:37:15 01:49:47:08 01:50:01:07 
*FROM CLIP NAME:  71K2/03 
*SOURCE FILE: 19Y08M04
009802  19Y08M04                         A2    C        14:06:23:16 14:06:37:15 01:49:47:08 01:50:01:07 
*FROM CLIP NAME:  71K2/03 
*SOURCE FILE: 19Y08M04
009803  19Y08M04                         A3    C        14:06:23:16 14:06:37:15 01:49:47:08 01:50:01:07 
*FROM CLIP NAME:  71K2/03 
*SOURCE FILE: 19Y08M04
009804  19Y08M04                         A4    C        14:06:23:16 14:06:37:15 01:49:47:08 01:50:01:07 
*FROM CLIP NAME:  71K2/03 
*SOURCE FILE: 19Y08M04
009805  19Y08M04                         A5    C        14:06:23:16 14:06:37:15 01:49:47:08 01:50:01:07 
*FROM CLIP NAME:  71K2/03 
*SOURCE FILE: 19Y08M04
009806  19Y08M04                         A6    C        14:06:23:16 14:06:37:15 01:49:47:08 01:50:01:07 
*FROM CLIP NAME:  71K2/03 
*PATCH 19Y08M04:  FROM SOURCE 9 TO RECORD 6 
*SOURCE FILE: 19Y08M04
009807  19Y08M04                         A7    C        14:06:23:16 14:06:37:15 01:49:47:08 01:50:01:07 
*FROM CLIP NAME:  71K2/03 
*SOURCE FILE: 19Y08M04
009808  19Y08M04                         A8    C        14:06:23:16 14:06:37:15 01:49:47:08 01:50:01:07 
*FROM CLIP NAME:  71K2/03 
*SOURCE FILE: 19Y08M04
009809  19Y08M11                         A11   C        11:07:37:14 11:07:37:14 01:49:48:00 01:49:48:00 
009809  BL                               A11   D    018 00:00:00:00 00:00:00:18 01:49:48:00 01:49:48:18 
*FROM CLIP NAME:  69AK1/03.SYNC.01 
*PATCH 19Y08M11:  FROM SOURCE 1 TO RECORD 11 
*SOURCE FILE: 19Y08M11
009810  MSMMMOB.43                       A12   C        11:07:38:15 11:07:38:15 01:49:48:00 01:49:48:00 
009810  BL                               A12   D    018 00:00:00:00 00:00:00:18 01:49:48:00 01:49:48:18 
*FROM CLIP NAME:  B011C010_190811_R481 
*PATCH MSMMMOB.43:  FROM SOURCE 2 TO RECORD 12 
*SOURCE FILE: MSMMMOB.43
009811  19Y08M11                         A13   C        11:07:37:14 11:07:37:14 01:49:48:00 01:49:48:00 
009811  BL                               A13   D    018 00:00:00:00 00:00:00:18 01:49:48:00 01:49:48:18 
*FROM CLIP NAME:  69AK1/03.SYNC.01 
*PATCH 19Y08M11:  FROM SOURCE 3 TO RECORD 13 
*SOURCE FILE: 19Y08M11
009812  MSMMMOB.21                       V     C        16:04:30:13 16:04:32:11 01:50:01:03 01:50:03:01 
M2      MSMMMOB.21                                025.0 16:04:30:13 
*FROM CLIP NAME:  A039C003_190804_R32C 
*SOURCE FILE: MSMMMOB.21
009813  19Y08M04                         A     C        16:13:00:17 16:13:06:21 01:50:01:07 01:50:07:11 
*FROM CLIP NAME:  71K5/02 
*SOURCE FILE: 19Y08M04
009814  19Y08M04                         A2    C        16:13:00:17 16:13:06:21 01:50:01:07 01:50:07:11 
*FROM CLIP NAME:  71K5/02 
*SOURCE FILE: 19Y08M04
009815  19Y08M04                         A3    C        16:13:00:17 16:13:06:21 01:50:01:07 01:50:07:11 
*FROM CLIP NAME:  71K5/02 
*SOURCE FILE: 19Y08M04
009816  19Y08M04                         A4    C        16:13:00:17 16:13:06:21 01:50:01:07 01:50:07:11 
*FROM CLIP NAME:  71K5/02 
*SOURCE FILE: 19Y08M04
009817  19Y08M04                         A5    C        16:13:00:17 16:13:06:21 01:50:01:07 01:50:07:11 
*FROM CLIP NAME:  71K5/02 
*SOURCE FILE: 19Y08M04
009818  19Y08M04                         A6    C        16:13:00:17 16:13:06:21 01:50:01:07 01:50:07:11 
*FROM CLIP NAME:  71K5/02 
*PATCH 19Y08M04:  FROM SOURCE 8 TO RECORD 6 
*SOURCE FILE: 19Y08M04
009819  19Y08M04                         A7    C        16:13:00:17 16:13:06:21 01:50:01:07 01:50:07:11 
*FROM CLIP NAME:  71K5/02 
*SOURCE FILE: 19Y08M04
009820  19Y08M04                         A8    C        16:13:00:17 16:13:06:21 01:50:01:07 01:50:07:11 
*FROM CLIP NAME:  71K5/02 
*PATCH 19Y08M04:  FROM SOURCE 9 TO RECORD 8 
*SOURCE FILE: 19Y08M04
009821  MSMMMOB.02                       V     C        16:13:02:11 16:13:06:21 01:50:03:01 01:50:07:11 
M2      MSMMMOB.02                                025.0 16:13:02:11 
*FROM CLIP NAME:  A039C005_190804_R32C 
*SOURCE FILE: MSMMMOB.02
009822  19Y08M04                         A     C        14:23:07:02 14:23:07:20 01:50:07:11 01:50:08:04 
*FROM CLIP NAME:  71K3/03 
*SOURCE FILE: 19Y08M04
009823  19Y08M04                         A2    C        14:23:07:02 14:23:07:20 01:50:07:11 01:50:08:04 
*FROM CLIP NAME:  71K3/03 
*SOURCE FILE: 19Y08M04
009824  19Y08M04                         A3    C        14:23:07:02 14:23:07:20 01:50:07:11 01:50:08:04 
*FROM CLIP NAME:  71K3/03 
*SOURCE FILE: 19Y08M04
009825  19Y08M04                         A4    C        14:23:07:02 14:23:07:20 01:50:07:11 01:50:08:04 
*FROM CLIP NAME:  71K3/03 
*SOURCE FILE: 19Y08M04
009826  19Y08M04                         A5    C        14:23:07:02 14:23:07:20 01:50:07:11 01:50:08:04 
*FROM CLIP NAME:  71K3/03 
*SOURCE FILE: 19Y08M04
009827  19Y08M04                         A7    C        14:23:07:02 14:23:07:20 01:50:07:11 01:50:08:04 
*FROM CLIP NAME:  71K3/03 
*SOURCE FILE: 19Y08M04
009828  19Y08M04                         A8    C        14:23:07:02 14:23:07:20 01:50:07:11 01:50:08:04 
*FROM CLIP NAME:  71K3/03 
*SOURCE FILE: 19Y08M04
009829  19Y08M04                         A9    C        14:23:07:02 14:23:07:20 01:50:07:11 01:50:08:04 
*FROM CLIP NAME:  71K3/03 
*SOURCE FILE: 19Y08M04
009830  MSMMMOB.20                       V     C        14:23:07:02 14:23:09:03 01:50:07:11 01:50:09:12 
M2      MSMMMOB.20                                025.0 14:23:07:02 
*FROM CLIP NAME:  A038C016_190804_R32C 
*SOURCE FILE: MSMMMOB.20
009831  19Y08M04                         A     C        13:39:27:00 13:39:30:20 01:50:08:04 01:50:11:24 
*FROM CLIP NAME:  71K1/02 
*SOURCE FILE: 19Y08M04
009832  19Y08M04                         A2    C        13:39:27:00 13:39:30:20 01:50:08:04 01:50:11:24 
*FROM CLIP NAME:  71K1/02 
*SOURCE FILE: 19Y08M04
009833  19Y08M04                         A3    C        13:39:27:00 13:39:30:20 01:50:08:04 01:50:11:24 
*FROM CLIP NAME:  71K1/02 
*SOURCE FILE: 19Y08M04
009834  19Y08M04                         A4    C        13:39:27:00 13:39:30:20 01:50:08:04 01:50:11:24 
*FROM CLIP NAME:  71K1/02 
*SOURCE FILE: 19Y08M04
009835  19Y08M04                         A5    C        13:39:27:00 13:39:30:20 01:50:08:04 01:50:11:24 
*FROM CLIP NAME:  71K1/02 
*SOURCE FILE: 19Y08M04
009836  19Y08M04                         A6    C        13:39:27:00 13:39:30:20 01:50:08:04 01:50:11:24 
*FROM CLIP NAME:  71K1/02 
*PATCH 19Y08M04:  FROM SOURCE 7 TO RECORD 6 
*SOURCE FILE: 19Y08M04
009837  19Y08M04                         A7    C        13:39:27:00 13:39:30:20 01:50:08:04 01:50:11:24 
*FROM CLIP NAME:  71K1/02 
*PATCH 19Y08M04:  FROM SOURCE 8 TO RECORD 7 
*SOURCE FILE: 19Y08M04
009838  19Y08M04                         A8    C        13:39:27:00 13:39:30:20 01:50:08:04 01:50:11:24 
*FROM CLIP NAME:  71K1/02 
*PATCH 19Y08M04:  FROM SOURCE 9 TO RECORD 8 
*SOURCE FILE: 19Y08M04
009839  MSMMMOB.29                       V     C        13:39:28:08 13:39:30:18 01:50:09:12 01:50:11:22 
M2      MSMMMOB.29                                025.0 13:39:28:08 
*FROM CLIP NAME:  A038C010_190804_R32C 
*SOURCE FILE: MSMMMOB.29
009840  MSMMMOB.20                       V     C        14:23:10:21 14:23:14:18 01:50:11:22 01:50:15:19 
M2      MSMMMOB.20                                025.0 14:23:10:21 
*FROM CLIP NAME:  A038C016_190804_R32C 
*SOURCE FILE: MSMMMOB.20
009841  19Y08M04                         A     C        14:23:10:23 14:23:14:18 01:50:11:24 01:50:15:19 
*FROM CLIP NAME:  71K3/03 
*SOURCE FILE: 19Y08M04
009842  19Y08M04                         A2    C        14:23:10:23 14:23:14:18 01:50:11:24 01:50:15:19 
*FROM CLIP NAME:  71K3/03 
*SOURCE FILE: 19Y08M04
009843  19Y08M04                         A3    C        14:23:10:23 14:23:14:18 01:50:11:24 01:50:15:19 
*FROM CLIP NAME:  71K3/03 
*SOURCE FILE: 19Y08M04
009844  19Y08M04                         A4    C        14:23:10:23 14:23:14:18 01:50:11:24 01:50:15:19 
*FROM CLIP NAME:  71K3/03 
*SOURCE FILE: 19Y08M04
009845  19Y08M04                         A5    C        14:23:10:23 14:23:14:18 01:50:11:24 01:50:15:19 
*FROM CLIP NAME:  71K3/03 
*SOURCE FILE: 19Y08M04
009846  19Y08M04                         A6    C        14:23:10:23 14:23:14:18 01:50:11:24 01:50:15:19 
*FROM CLIP NAME:  71K3/03 
*PATCH 19Y08M04:  FROM SOURCE 9 TO RECORD 6 
*SOURCE FILE: 19Y08M04
009847  19Y08M04                         A7    C        14:23:10:23 14:23:14:18 01:50:11:24 01:50:15:19 
*FROM CLIP NAME:  71K3/03 
*SOURCE FILE: 19Y08M04
009848  19Y08M04                         A8    C        14:23:10:23 14:23:14:18 01:50:11:24 01:50:15:19 
*FROM CLIP NAME:  71K3/03 
*SOURCE FILE: 19Y08M04
009849  MSMMMOB.21                       V     C        16:04:44:04 16:04:47:05 01:50:15:19 01:50:18:20 
M2      MSMMMOB.21                                025.0 16:04:44:04 
*FROM CLIP NAME:  A039C003_190804_R32C 
*SOURCE FILE: MSMMMOB.21
009850  19Y08M04                         A     C        16:04:44:04 16:04:47:09 01:50:15:19 01:50:18:24 
*FROM CLIP NAME:  71K4/03 
*SOURCE FILE: 19Y08M04
009851  19Y08M04                         A2    C        16:04:44:04 16:04:47:09 01:50:15:19 01:50:18:24 
*FROM CLIP NAME:  71K4/03 
*SOURCE FILE: 19Y08M04
009852  19Y08M04                         A3    C        16:04:44:04 16:04:47:09 01:50:15:19 01:50:18:24 
*FROM CLIP NAME:  71K4/03 
*SOURCE FILE: 19Y08M04
009853  19Y08M04                         A4    C        16:04:44:04 16:04:47:09 01:50:15:19 01:50:18:24 
*FROM CLIP NAME:  71K4/03 
*SOURCE FILE: 19Y08M04
009854  19Y08M04                         A5    C        16:04:44:04 16:04:47:09 01:50:15:19 01:50:18:24 
*FROM CLIP NAME:  71K4/03 
*SOURCE FILE: 19Y08M04
009855  19Y08M04                         A6    C        16:04:44:04 16:04:47:09 01:50:15:19 01:50:18:24 
*FROM CLIP NAME:  71K4/03 
*PATCH 19Y08M04:  FROM SOURCE 9 TO RECORD 6 
*SOURCE FILE: 19Y08M04
009856  19Y08M04                         A7    C        16:04:44:04 16:04:47:09 01:50:15:19 01:50:18:24 
*FROM CLIP NAME:  71K4/03 
*SOURCE FILE: 19Y08M04
009857  19Y08M04                         A8    C        16:04:44:04 16:04:47:09 01:50:15:19 01:50:18:24 
*FROM CLIP NAME:  71K4/03 
*SOURCE FILE: 19Y08M04
009858  MSMMMOB.20                       V     C        14:23:15:23 14:23:20:04 01:50:18:20 01:50:23:01 
M2      MSMMMOB.20                                025.0 14:23:15:23 
*FROM CLIP NAME:  A038C016_190804_R32C 
*SOURCE FILE: MSMMMOB.20
009859  19Y08M04                         A     C        14:23:16:02 14:23:19:23 01:50:18:24 01:50:22:20 
*FROM CLIP NAME:  71K3/03 
*SOURCE FILE: 19Y08M04
009860  19Y08M04                         A2    C        14:23:16:02 14:23:19:23 01:50:18:24 01:50:22:20 
*FROM CLIP NAME:  71K3/03 
*SOURCE FILE: 19Y08M04
009861  19Y08M04                         A3    C        14:23:16:02 14:23:19:23 01:50:18:24 01:50:22:20 
*FROM CLIP NAME:  71K3/03 
*SOURCE FILE: 19Y08M04
009862  19Y08M04                         A4    C        14:23:16:02 14:23:19:23 01:50:18:24 01:50:22:20 
*FROM CLIP NAME:  71K3/03 
*SOURCE FILE: 19Y08M04
009863  19Y08M04                         A5    C        14:23:16:02 14:23:19:23 01:50:18:24 01:50:22:20 
*FROM CLIP NAME:  71K3/03 
*SOURCE FILE: 19Y08M04
009864  19Y08M04                         A6    C        14:23:16:02 14:23:19:23 01:50:18:24 01:50:22:20 
*FROM CLIP NAME:  71K3/03 
*PATCH 19Y08M04:  FROM SOURCE 9 TO RECORD 6 
*SOURCE FILE: 19Y08M04
009865  19Y08M04                         A7    C        14:23:16:02 14:23:19:23 01:50:18:24 01:50:22:20 
*FROM CLIP NAME:  71K3/03 
*SOURCE FILE: 19Y08M04
009866  19Y08M04                         A8    C        14:23:16:02 14:23:19:23 01:50:18:24 01:50:22:20 
*FROM CLIP NAME:  71K3/03 
*SOURCE FILE: 19Y08M04
009867  19Y08M04                         A     C        14:23:19:23 14:23:19:23 01:50:22:20 01:50:22:20 
009867  19Y08M04                         A     D    002 16:04:51:02 16:04:51:04 01:50:22:20 01:50:22:22 
*FROM CLIP NAME:  71K3/03 
*TO CLIP NAME:  71K4/03 
*SOURCE FILE: 19Y08M04
009868  19Y08M04                         A2    C        14:23:19:23 14:23:19:23 01:50:22:20 01:50:22:20 
009868  19Y08M04                         A2    D    002 16:04:51:02 16:04:51:04 01:50:22:20 01:50:22:22 
*FROM CLIP NAME:  71K3/03 
*TO CLIP NAME:  71K4/03 
*SOURCE FILE: 19Y08M04
009869  19Y08M04                         A3    C        14:23:19:23 14:23:19:23 01:50:22:20 01:50:22:20 
009869  19Y08M04                         A3    D    002 16:04:51:02 16:04:51:04 01:50:22:20 01:50:22:22 
*FROM CLIP NAME:  71K3/03 
*TO CLIP NAME:  71K4/03 
*SOURCE FILE: 19Y08M04
009870  19Y08M04                         A4    C        14:23:19:23 14:23:19:23 01:50:22:20 01:50:22:20 
009870  19Y08M04                         A4    D    002 16:04:51:02 16:04:51:04 01:50:22:20 01:50:22:22 
*FROM CLIP NAME:  71K3/03 
*TO CLIP NAME:  71K4/03 
*SOURCE FILE: 19Y08M04
009871  19Y08M04                         A5    C        14:23:19:23 14:23:19:23 01:50:22:20 01:50:22:20 
009871  19Y08M04                         A5    D    002 16:04:51:02 16:04:51:04 01:50:22:20 01:50:22:22 
*FROM CLIP NAME:  71K3/03 
*TO CLIP NAME:  71K4/03 
*SOURCE FILE: 19Y08M04
009872  19Y08M04                         A6    C        14:23:19:23 14:23:19:23 01:50:22:20 01:50:22:20 
009872  19Y08M04                         A6    D    002 16:04:51:02 16:04:51:04 01:50:22:20 01:50:22:22 
*FROM CLIP NAME:  71K3/03 
*TO CLIP NAME:  71K4/03 
*PATCH 19Y08M04:  FROM SOURCE 9 TO RECORD 6 
*PATCH 19Y08M04:  FROM SOURCE 9 TO RECORD 6 
*SOURCE FILE: 19Y08M04
009873  19Y08M04                         A7    C        14:23:19:23 14:23:19:23 01:50:22:20 01:50:22:20 
009873  19Y08M04                         A7    D    002 16:04:51:02 16:04:51:04 01:50:22:20 01:50:22:22 
*FROM CLIP NAME:  71K3/03 
*TO CLIP NAME:  71K4/03 
*SOURCE FILE: 19Y08M04
009874  19Y08M04                         A8    C        14:23:19:23 14:23:19:23 01:50:22:20 01:50:22:20 
009874  19Y08M04                         A8    D    002 16:04:51:02 16:04:51:04 01:50:22:20 01:50:22:22 
*FROM CLIP NAME:  71K3/03 
*TO CLIP NAME:  71K4/03 
*SOURCE FILE: 19Y08M04
009875  19Y08M04                         A     C        16:04:51:04 16:04:54:01 01:50:22:22 01:50:25:19 
*FROM CLIP NAME:  71K4/03 
*SOURCE FILE: 19Y08M04
009876  19Y08M04                         A2    C        16:04:51:04 16:04:54:01 01:50:22:22 01:50:25:19 
*FROM CLIP NAME:  71K4/03 
*SOURCE FILE: 19Y08M04
009877  19Y08M04                         A3    C        16:04:51:04 16:04:54:01 01:50:22:22 01:50:25:19 
*FROM CLIP NAME:  71K4/03 
*SOURCE FILE: 19Y08M04
009878  19Y08M04                         A4    C        16:04:51:04 16:04:54:01 01:50:22:22 01:50:25:19 
*FROM CLIP NAME:  71K4/03 
*SOURCE FILE: 19Y08M04
009879  19Y08M04                         A5    C        16:04:51:04 16:04:54:01 01:50:22:22 01:50:25:19 
*FROM CLIP NAME:  71K4/03 
*SOURCE FILE: 19Y08M04
009880  19Y08M04                         A6    C        16:04:51:04 16:04:54:01 01:50:22:22 01:50:25:19 
*FROM CLIP NAME:  71K4/03 
*PATCH 19Y08M04:  FROM SOURCE 9 TO RECORD 6 
*SOURCE FILE: 19Y08M04
009881  19Y08M04                         A7    C        16:04:51:04 16:04:54:01 01:50:22:22 01:50:25:19 
*FROM CLIP NAME:  71K4/03 
*SOURCE FILE: 19Y08M04
009882  19Y08M04                         A8    C        16:04:51:04 16:04:54:01 01:50:22:22 01:50:25:19 
*FROM CLIP NAME:  71K4/03 
*SOURCE FILE: 19Y08M04
009883  MSMMMOB.21                       V     C        16:04:51:08 16:04:53:23 01:50:23:01 01:50:25:16 
M2      MSMMMOB.21                                025.0 16:04:51:08 
*FROM CLIP NAME:  A039C003_190804_R32C 
*SOURCE FILE: MSMMMOB.21
009884  MSMMMOB.38                       V     C        14:06:58:11 14:07:04:10 01:50:25:16 01:50:31:15 
M2      MSMMMOB.38                                025.0 14:06:58:11 
*FROM CLIP NAME:  A038C013_190804_R32C 
*SOURCE FILE: MSMMMOB.38
009885  19Y08M04                         A     C        14:06:58:14 14:07:08:15 01:50:25:19 01:50:35:20 
*FROM CLIP NAME:  71K2/03 
*SOURCE FILE: 19Y08M04
009886  19Y08M04                         A2    C        14:06:58:14 14:07:08:15 01:50:25:19 01:50:35:20 
*FROM CLIP NAME:  71K2/03 
*SOURCE FILE: 19Y08M04
009887  19Y08M04                         A3    C        14:06:58:14 14:07:08:15 01:50:25:19 01:50:35:20 
*FROM CLIP NAME:  71K2/03 
*SOURCE FILE: 19Y08M04
009888  19Y08M04                         A4    C        14:06:58:14 14:07:08:15 01:50:25:19 01:50:35:20 
*FROM CLIP NAME:  71K2/03 
*SOURCE FILE: 19Y08M04
009889  19Y08M04                         A5    C        14:06:58:14 14:07:08:15 01:50:25:19 01:50:35:20 
*FROM CLIP NAME:  71K2/03 
*SOURCE FILE: 19Y08M04
009890  19Y08M04                         A6    C        14:06:58:14 14:07:08:15 01:50:25:19 01:50:35:20 
*FROM CLIP NAME:  71K2/03 
*PATCH 19Y08M04:  FROM SOURCE 9 TO RECORD 6 
*SOURCE FILE: 19Y08M04
009891  19Y08M04                         A7    C        14:06:58:14 14:07:08:15 01:50:25:19 01:50:35:20 
*FROM CLIP NAME:  71K2/03 
*SOURCE FILE: 19Y08M04
009892  19Y08M04                         A8    C        14:06:58:14 14:07:08:15 01:50:25:19 01:50:35:20 
*FROM CLIP NAME:  71K2/03 
*SOURCE FILE: 19Y08M04
009893  MSMMMOB.21                       V     C        16:05:01:12 16:05:18:17 01:50:31:15 01:50:48:20 
M2      MSMMMOB.21                                025.0 16:05:01:12 
*FROM CLIP NAME:  A039C003_190804_R32C 
*SOURCE FILE: MSMMMOB.21
009894  ZVUK-VIBRACII-TELEFONA.MP3       A9    C        01:00:00:04 01:00:00:09 01:50:35:06 01:50:35:11 
*FROM CLIP NAME:  ZVUK-VIBRACII-TELEFONA.MP3 
*PATCH ZVUK-VIBRACII-TELEFONA.MP3:  FROM SOURCE 1 TO RECORD 9 
*SOURCE FILE: ZVUK-VIBRACII-TELEFONA.MP3
009895  ZVUK-VIBRACII-TELEFONA.MP3       A10   C        01:00:00:04 01:00:00:09 01:50:35:06 01:50:35:11 
*FROM CLIP NAME:  ZVUK-VIBRACII-TELEFONA.MP3 
*PATCH ZVUK-VIBRACII-TELEFONA.MP3:  FROM SOURCE 2 TO RECORD 10 
*SOURCE FILE: ZVUK-VIBRACII-TELEFONA.MP3
009896  ZVUK-VIBRACII-TELEFONA.MP3       A9    C        01:00:00:09 01:00:00:09 01:50:35:11 01:50:35:11 
009896  ZVUK-VIBRACII-TELEFONA.MP3       A9    D    002 01:00:01:01 01:00:01:03 01:50:35:11 01:50:35:13 
*FROM CLIP NAME:  ZVUK-VIBRACII-TELEFONA.MP3 
*TO CLIP NAME:  ZVUK-VIBRACII-TELEFONA.MP3 
*PATCH ZVUK-VIBRACII-TELEFONA.MP3:  FROM SOURCE 1 TO RECORD 9 
*PATCH ZVUK-VIBRACII-TELEFONA.MP3:  FROM SOURCE 1 TO RECORD 9 
*SOURCE FILE: ZVUK-VIBRACII-TELEFONA.MP3
009897  ZVUK-VIBRACII-TELEFONA.MP3       A10   C        01:00:00:09 01:00:00:09 01:50:35:11 01:50:35:11 
009897  ZVUK-VIBRACII-TELEFONA.MP3       A10   D    002 01:00:01:01 01:00:01:03 01:50:35:11 01:50:35:13 
*FROM CLIP NAME:  ZVUK-VIBRACII-TELEFONA.MP3 
*TO CLIP NAME:  ZVUK-VIBRACII-TELEFONA.MP3 
*PATCH ZVUK-VIBRACII-TELEFONA.MP3:  FROM SOURCE 2 TO RECORD 10 
*PATCH ZVUK-VIBRACII-TELEFONA.MP3:  FROM SOURCE 2 TO RECORD 10 
*SOURCE FILE: ZVUK-VIBRACII-TELEFONA.MP3
009898  ZVUK-VIBRACII-TELEFONA.MP3       A9    C        01:00:01:03 01:00:01:11 01:50:35:13 01:50:35:21 
*FROM CLIP NAME:  ZVUK-VIBRACII-TELEFONA.MP3 
*PATCH ZVUK-VIBRACII-TELEFONA.MP3:  FROM SOURCE 1 TO RECORD 9 
*SOURCE FILE: ZVUK-VIBRACII-TELEFONA.MP3
009899  ZVUK-VIBRACII-TELEFONA.MP3       A10   C        01:00:01:03 01:00:01:11 01:50:35:13 01:50:35:21 
*FROM CLIP NAME:  ZVUK-VIBRACII-TELEFONA.MP3 
*PATCH ZVUK-VIBRACII-TELEFONA.MP3:  FROM SOURCE 2 TO RECORD 10 
*SOURCE FILE: ZVUK-VIBRACII-TELEFONA.MP3
009900  19Y08M04                         A     C        16:05:05:17 16:05:14:21 01:50:35:20 01:50:44:24 
*FROM CLIP NAME:  71K4/03 
*SOURCE FILE: 19Y08M04
009901  19Y08M04                         A2    C        16:05:05:17 16:05:14:21 01:50:35:20 01:50:44:24 
*FROM CLIP NAME:  71K4/03 
*SOURCE FILE: 19Y08M04
009902  19Y08M04                         A3    C        16:05:05:17 16:05:14:21 01:50:35:20 01:50:44:24 
*FROM CLIP NAME:  71K4/03 
*SOURCE FILE: 19Y08M04
009903  19Y08M04                         A4    C        16:05:05:17 16:05:14:21 01:50:35:20 01:50:44:24 
*FROM CLIP NAME:  71K4/03 
*SOURCE FILE: 19Y08M04
009904  19Y08M04                         A5    C        16:05:05:17 16:05:14:21 01:50:35:20 01:50:44:24 
*FROM CLIP NAME:  71K4/03 
*SOURCE FILE: 19Y08M04
009905  19Y08M04                         A6    C        16:05:05:17 16:05:14:21 01:50:35:20 01:50:44:24 
*FROM CLIP NAME:  71K4/03 
*PATCH 19Y08M04:  FROM SOURCE 9 TO RECORD 6 
*SOURCE FILE: 19Y08M04
009906  19Y08M04                         A7    C        16:05:05:17 16:05:14:21 01:50:35:20 01:50:44:24 
*FROM CLIP NAME:  71K4/03 
*SOURCE FILE: 19Y08M04
009907  19Y08M04                         A8    C        16:05:05:17 16:05:14:21 01:50:35:20 01:50:44:24 
*FROM CLIP NAME:  71K4/03 
*SOURCE FILE: 19Y08M04
009908  TITLE.01                         V     C        01:00:43:06 01:00:49:08 01:50:38:19 01:50:44:21 
*FROM CLIP NAME:  TITLE.01 
*SOURCE FILE: TITLE.01
009909  AUDIO-2019-10-01-17-40-48.M4A    A9    C        01:00:35:05 01:00:39:17 01:50:39:12 01:50:43:24 
*FROM CLIP NAME:  AUDIO-2019-10-01-17-40-48.M4A 
*A9 VOL =  +9.0 DB  PAN R100 
*PATCH AUDIO-2019-10-01-17-40-48.M4A:  FROM SOURCE 1 TO RECORD 9 
*SOURCE FILE: AUDIO-2019-10-01-17-40-48.M4A
009910  BL                               V     C        00:00:00:00 00:00:04:10 01:50:39:14 01:50:43:24 
*SOURCE FILE: (NULL)
009911  UPM_MAT233_11_PHILLY_LURVE_MAIN_ A19   C        01:00:00:00 01:00:03:23 01:50:41:03 01:50:45:01 
*FROM CLIP NAME:  UPM_MAT233_11_PHILLY_LURVE_MAIN_TRACK_MARTIN_438794.MP3 
*A19 VOL = -11.0 DB  PAN R100 
*PATCH UPM_MAT233_11_PHILLY_LURVE_MAIN_:  FROM SOURCE 1 TO RECORD 19 
*SOURCE FILE: UPM_MAT233_11_PHILLY_LURVE_MAIN_TRACK_MARTIN_438794.MP3
009912  UPM_MAT233_11_PHILLY_LURVE_MAIN_ A20   C        01:00:00:00 01:00:03:23 01:50:41:03 01:50:45:01 
*FROM CLIP NAME:  UPM_MAT233_11_PHILLY_LURVE_MAIN_TRACK_MARTIN_438794.MP3 
*A20 VOL = -11.0 DB  PAN L100 
*PATCH UPM_MAT233_11_PHILLY_LURVE_MAIN_:  FROM SOURCE 2 TO RECORD 20 
*SOURCE FILE: UPM_MAT233_11_PHILLY_LURVE_MAIN_TRACK_MARTIN_438794.MP3
009913  BL                               V     C        00:00:00:00 00:00:49:10 01:50:43:24 01:51:33:09 
*SOURCE FILE: (NULL)
009914  TITLE.01                         V     C        01:00:49:08 01:00:49:08 01:50:44:21 01:50:44:21 
009914  BL                               V     D    021 00:00:00:00 00:00:00:21 01:50:44:21 01:50:45:17 
*BLEND, DISSOLVE 
*FROM CLIP NAME:  TITLE.01 
*SOURCE FILE: TITLE.01
009915  19Y08M04                         A     C        16:05:03:08 16:05:04:01 01:50:44:24 01:50:45:17 
*FROM CLIP NAME:  71K4/03 
*SOURCE FILE: 19Y08M04
009916  19Y08M04                         A2    C        16:05:03:08 16:05:04:01 01:50:44:24 01:50:45:17 
*FROM CLIP NAME:  71K4/03 
*SOURCE FILE: 19Y08M04
009917  19Y08M04                         A3    C        16:05:03:08 16:05:04:01 01:50:44:24 01:50:45:17 
*FROM CLIP NAME:  71K4/03 
*SOURCE FILE: 19Y08M04
009918  19Y08M04                         A4    C        16:05:03:08 16:05:04:01 01:50:44:24 01:50:45:17 
*FROM CLIP NAME:  71K4/03 
*SOURCE FILE: 19Y08M04
009919  19Y08M04                         A5    C        16:05:03:08 16:05:04:01 01:50:44:24 01:50:45:17 
*FROM CLIP NAME:  71K4/03 
*SOURCE FILE: 19Y08M04
009920  19Y08M04                         A6    C        16:05:03:08 16:05:04:01 01:50:44:24 01:50:45:17 
*FROM CLIP NAME:  71K4/03 
*PATCH 19Y08M04:  FROM SOURCE 8 TO RECORD 6 
*SOURCE FILE: 19Y08M04
009921  19Y08M04                         A7    C        16:05:03:08 16:05:04:01 01:50:44:24 01:50:45:17 
*FROM CLIP NAME:  71K4/03 
*SOURCE FILE: 19Y08M04
009922  19Y08M04                         A8    C        16:05:03:08 16:05:04:01 01:50:44:24 01:50:45:17 
*FROM CLIP NAME:  71K4/03 
*PATCH 19Y08M04:  FROM SOURCE 9 TO RECORD 8 
*SOURCE FILE: 19Y08M04
009923  UPM_MAT233_11_PHILLY_LURVE_MAIN_ A19   C        01:00:03:23 01:00:03:23 01:50:45:01 01:50:45:01 
009923  BL                               A19   D    093 00:00:00:00 00:00:03:18 01:50:45:01 01:50:48:19 
*FROM CLIP NAME:  UPM_MAT233_11_PHILLY_LURVE_MAIN_TRACK_MARTIN_438794.MP3 
*A19 VOL = -11.0 DB  PAN R100 
*PATCH UPM_MAT233_11_PHILLY_LURVE_MAIN_:  FROM SOURCE 1 TO RECORD 19 
*SOURCE FILE: UPM_MAT233_11_PHILLY_LURVE_MAIN_TRACK_MARTIN_438794.MP3
009924  UPM_MAT233_11_PHILLY_LURVE_MAIN_ A20   C        01:00:03:23 01:00:03:23 01:50:45:01 01:50:45:01 
009924  BL                               A20   D    093 00:00:00:00 00:00:03:18 01:50:45:01 01:50:48:19 
*FROM CLIP NAME:  UPM_MAT233_11_PHILLY_LURVE_MAIN_TRACK_MARTIN_438794.MP3 
*A20 VOL = -11.0 DB  PAN L100 
*PATCH UPM_MAT233_11_PHILLY_LURVE_MAIN_:  FROM SOURCE 2 TO RECORD 20 
*SOURCE FILE: UPM_MAT233_11_PHILLY_LURVE_MAIN_TRACK_MARTIN_438794.MP3
009925  19Y08M04                         A     C        16:05:15:14 16:05:18:17 01:50:45:17 01:50:48:20 
*FROM CLIP NAME:  71K4/03 
*SOURCE FILE: 19Y08M04
009926  19Y08M04                         A2    C        16:05:15:14 16:05:18:17 01:50:45:17 01:50:48:20 
*FROM CLIP NAME:  71K4/03 
*SOURCE FILE: 19Y08M04
009927  19Y08M04                         A3    C        16:05:15:14 16:05:18:17 01:50:45:17 01:50:48:20 
*FROM CLIP NAME:  71K4/03 
*SOURCE FILE: 19Y08M04
009928  19Y08M04                         A4    C        16:05:15:14 16:05:18:17 01:50:45:17 01:50:48:20 
*FROM CLIP NAME:  71K4/03 
*SOURCE FILE: 19Y08M04
009929  19Y08M04                         A5    C        16:05:15:14 16:05:18:17 01:50:45:17 01:50:48:20 
*FROM CLIP NAME:  71K4/03 
*SOURCE FILE: 19Y08M04
009930  19Y08M04                         A6    C        16:05:15:14 16:05:18:17 01:50:45:17 01:50:48:20 
*FROM CLIP NAME:  71K4/03 
*PATCH 19Y08M04:  FROM SOURCE 9 TO RECORD 6 
*SOURCE FILE: 19Y08M04
009931  19Y08M04                         A7    C        16:05:15:14 16:05:18:17 01:50:45:17 01:50:48:20 
*FROM CLIP NAME:  71K4/03 
*SOURCE FILE: 19Y08M04
009932  19Y08M04                         A8    C        16:05:15:14 16:05:18:17 01:50:45:17 01:50:48:20 
*FROM CLIP NAME:  71K4/03 
*SOURCE FILE: 19Y08M04
009933  BL                               V     C        00:00:00:00 00:01:41:14 01:50:45:17 01:52:27:06 
*SOURCE FILE: (NULL)
009934  MSMMMOB.80                       V     C        16:45:55:11 16:45:57:17 01:50:48:20 01:50:51:01 
M2      MSMMMOB.80                                025.0 16:45:55:11 
*FROM CLIP NAME:  A090C004_190820_R32C 
*SOURCE FILE: MSMMMOB.80
009935  19Y08M20                         A     C        16:45:55:11 16:45:57:17 01:50:48:20 01:50:51:01 
*FROM CLIP NAME:  72K1/04 
*SOURCE FILE: 19Y08M20
009936  19Y08M20                         A2    C        16:45:55:11 16:45:57:17 01:50:48:20 01:50:51:01 
*FROM CLIP NAME:  72K1/04 
*SOURCE FILE: 19Y08M20
009937  BONNIE-TYLER-HOLDING-OUT-FOR-A-H A13   C        01:00:32:14 01:00:39:19 01:50:48:20 01:50:56:00 
*FROM CLIP NAME:  BONNIE-TYLER-HOLDING-OUT-FOR-A-HERO.MP3 
*A13 VOL = -14.0 DB  PAN R100 
*PATCH BONNIE-TYLER-HOLDING-OUT-FOR-A-H:  FROM SOURCE 1 TO RECORD 13 
*SOURCE FILE: BONNIE-TYLER-HOLDING-OUT-FOR-A-HERO.MP3
009938  BONNIE-TYLER-HOLDING-OUT-FOR-A-H A14   C        01:00:32:14 01:00:39:19 01:50:48:20 01:50:56:00 
*FROM CLIP NAME:  BONNIE-TYLER-HOLDING-OUT-FOR-A-HERO.MP3 
*A14 VOL = -14.0 DB  PAN L100 
*PATCH BONNIE-TYLER-HOLDING-OUT-FOR-A-H:  FROM SOURCE 2 TO RECORD 14 
*SOURCE FILE: BONNIE-TYLER-HOLDING-OUT-FOR-A-HERO.MP3
009939  MSMMMOB.29                       V     C        16:42:56:05 16:42:58:13 01:50:51:01 01:50:53:09 
M2      MSMMMOB.29                                025.0 16:42:56:05 
*FROM CLIP NAME:  A090C002_190820_R32C 
*SOURCE FILE: MSMMMOB.29
009940  19Y08M20                         A     C        16:42:56:05 16:42:58:13 01:50:51:01 01:50:53:09 
*FROM CLIP NAME:  72K1/02 
*SOURCE FILE: 19Y08M20
009941  19Y08M20                         A2    C        16:42:56:05 16:42:58:13 01:50:51:01 01:50:53:09 
*FROM CLIP NAME:  72K1/02 
*SOURCE FILE: 19Y08M20
009942  19Y08M20                         A3    C        16:45:54:07 16:45:56:15 01:50:51:01 01:50:53:09 
*FROM CLIP NAME:  72K1/04 
*PATCH 19Y08M20:  FROM SOURCE 1 TO RECORD 3 
*SOURCE FILE: 19Y08M20
009943  19Y08M20                         A4    C        16:45:54:07 16:45:56:15 01:50:51:01 01:50:53:09 
*FROM CLIP NAME:  72K1/04 
*PATCH 19Y08M20:  FROM SOURCE 2 TO RECORD 4 
*SOURCE FILE: 19Y08M20
009944  MSMMMOB.86                       V     C        18:04:26:23 18:04:29:14 01:50:53:09 01:50:56:00 
M2      MSMMMOB.86                                025.0 18:04:26:23 
*FROM CLIP NAME:  A090C018_190820_R32C 
*SOURCE FILE: MSMMMOB.86
009945  19Y08M20                         A     C        18:04:26:22 18:04:29:13 01:50:53:09 01:50:56:00 
*FROM CLIP NAME:  72AK2/01 
*SOURCE FILE: 19Y08M20
009946  19Y08M20                         A2    C        18:04:26:22 18:04:29:13 01:50:53:09 01:50:56:00 
*FROM CLIP NAME:  72AK2/01 
*SOURCE FILE: 19Y08M20
009947  19Y08M20                         A3    C        16:45:57:10 16:46:03:07 01:50:53:09 01:50:59:06 
*FROM CLIP NAME:  72K1/04 
*PATCH 19Y08M20:  FROM SOURCE 1 TO RECORD 3 
*SOURCE FILE: 19Y08M20
009948  19Y08M20                         A4    C        16:45:57:10 16:46:03:07 01:50:53:09 01:50:59:06 
*FROM CLIP NAME:  72K1/04 
*PATCH 19Y08M20:  FROM SOURCE 2 TO RECORD 4 
*SOURCE FILE: 19Y08M20
009949  19Y08M20                         A     C        17:59:31:05 17:59:33:03 01:50:56:00 01:50:57:23 
*FROM CLIP NAME:  72AK1/01 
*SOURCE FILE: 19Y08M20
009950  19Y08M20                         A2    C        17:59:31:05 17:59:33:03 01:50:56:00 01:50:57:23 
*FROM CLIP NAME:  72AK1/01 
*SOURCE FILE: 19Y08M20
009951  MSMMMOB.54                       V     C        17:59:31:06 17:59:34:08 01:50:56:00 01:50:59:02 
M2      MSMMMOB.54                                025.0 17:59:31:06 
*FROM CLIP NAME:  A090C017_190820_R32C 
*SOURCE FILE: MSMMMOB.54
009952  19Y08M20                         A     C        17:59:29:12 17:59:30:16 01:50:57:23 01:50:59:02 
*FROM CLIP NAME:  72AK1/01 
*SOURCE FILE: 19Y08M20
009953  19Y08M20                         A2    C        17:59:29:12 17:59:30:16 01:50:57:23 01:50:59:02 
*FROM CLIP NAME:  72AK1/01 
*SOURCE FILE: 19Y08M20
009954  MSMMMOB.35                       V     C        18:10:07:01 18:10:09:02 01:50:59:02 01:51:01:03 
M2      MSMMMOB.35                                025.0 18:10:07:01 
*FROM CLIP NAME:  A091C001_190820_R32C 
*SOURCE FILE: MSMMMOB.35
009955  19Y08M20                         A     C        18:10:10:23 18:10:12:24 01:50:59:02 01:51:01:03 
*FROM CLIP NAME:  72AK3/01 
*SOURCE FILE: 19Y08M20
009956  19Y08M20                         A2    C        18:10:10:23 18:10:12:24 01:50:59:02 01:51:01:03 
*FROM CLIP NAME:  72AK3/01 
*SOURCE FILE: 19Y08M20
009957  19Y08M20                         A     C        18:04:35:01 18:04:36:12 01:51:01:03 01:51:02:14 
*FROM CLIP NAME:  72AK2/01 
*SOURCE FILE: 19Y08M20
009958  19Y08M20                         A2    C        18:04:35:01 18:04:36:12 01:51:01:03 01:51:02:14 
*FROM CLIP NAME:  72AK2/01 
*SOURCE FILE: 19Y08M20
009959  MSMMMOB.86                       V     C        18:04:35:02 18:04:36:23 01:51:01:03 01:51:02:24 
M2      MSMMMOB.86                                025.0 18:04:35:02 
*FROM CLIP NAME:  A090C018_190820_R32C 
*SOURCE FILE: MSMMMOB.86
009960  19Y08M20                         A     C        17:18:45:16 17:18:46:01 01:51:02:14 01:51:02:24 
*FROM CLIP NAME:  72BK1/04 
*SOURCE FILE: 19Y08M20
009961  19Y08M20                         A2    C        17:18:45:16 17:18:46:01 01:51:02:14 01:51:02:24 
*FROM CLIP NAME:  72BK1/04 
*SOURCE FILE: 19Y08M20
009962  19Y08M20                         A3    C        17:18:45:16 17:18:46:01 01:51:02:14 01:51:02:24 
*FROM CLIP NAME:  72BK1/04 
*PATCH 19Y08M20:  FROM SOURCE 8 TO RECORD 3 
*SOURCE FILE: 19Y08M20
009963  MSMMMOB.33                       V     C        17:29:39:24 17:29:43:01 01:51:02:24 01:51:06:01 
M2      MSMMMOB.33                                025.0 17:29:39:24 
*FROM CLIP NAME:  A090C010_190820_R32C 
*SOURCE FILE: MSMMMOB.33
009964  19Y08M20                         A     C        17:29:39:23 17:29:43:00 01:51:02:24 01:51:06:01 
*FROM CLIP NAME:  72VK1/01 
*A1 VOL =  +8.0 DB  PAN R100 
*SOURCE FILE: 19Y08M20
009965  19Y08M20                         A2    C        17:29:39:23 17:29:43:00 01:51:02:24 01:51:06:01 
*FROM CLIP NAME:  72VK1/01 
*A2 VOL =  +8.0 DB  PAN L100 
*SOURCE FILE: 19Y08M20
009966  04196.MP3                        A5    C        01:00:00:00 01:00:06:21 01:51:02:24 01:51:09:20 
*FROM CLIP NAME:  04196.MP3 
*A5 VOL = -10.3 DB  PAN R100 
*PATCH 04196.MP3:  FROM SOURCE 1 TO RECORD 5 
*SOURCE FILE: 04196.MP3
009967  04196.MP3                        A6    C        01:00:00:00 01:00:06:21 01:51:02:24 01:51:09:20 
*FROM CLIP NAME:  04196.MP3 
*A6 VOL = -10.3 DB  PAN L100 
*PATCH 04196.MP3:  FROM SOURCE 2 TO RECORD 6 
*SOURCE FILE: 04196.MP3
009968  MSMMMOB.27                       V     C        10:47:02:21 10:47:04:12 01:51:06:01 01:51:07:17 
M2      MSMMMOB.27                                025.0 10:47:02:21 
*FROM CLIP NAME:  B030C007_190828_A1Y8 
*SOURCE FILE: MSMMMOB.27
009969  MSMMMOB.27                       A     C        10:47:02:21 10:47:04:12 01:51:06:01 01:51:07:17 
*FROM CLIP NAME:  B030C007_190828_A1Y8 
*SOURCE FILE: MSMMMOB.27
009970  MSMMMOB.27                       A2    C        10:47:02:21 10:47:04:12 01:51:06:01 01:51:07:17 
*FROM CLIP NAME:  B030C007_190828_A1Y8 
*SOURCE FILE: MSMMMOB.27
009971  19Y08M28                         A3    C        10:47:02:21 10:47:04:12 01:51:06:01 01:51:07:17 
*FROM CLIP NAME:  72G-5/02 
*PATCH 19Y08M28:  FROM SOURCE 7 TO RECORD 3 
*SOURCE FILE: 19Y08M28
009972  19Y08M28                         A4    C        10:47:02:21 10:47:04:12 01:51:06:01 01:51:07:17 
*FROM CLIP NAME:  72G-5/02 
*SOURCE FILE: 19Y08M28
009973  BONNIE-TYLER-HOLDING-OUT-FOR-A-H A13   C        01:00:57:13 01:01:13:10 01:51:06:02 01:51:21:24 
*FROM CLIP NAME:  BONNIE-TYLER-HOLDING-OUT-FOR-A-HERO.MP3 
*A13 VOL =  -3.0 DB  PAN R100 
*PATCH BONNIE-TYLER-HOLDING-OUT-FOR-A-H:  FROM SOURCE 1 TO RECORD 13 
*SOURCE FILE: BONNIE-TYLER-HOLDING-OUT-FOR-A-HERO.MP3
009974  BONNIE-TYLER-HOLDING-OUT-FOR-A-H A14   C        01:00:57:13 01:01:13:10 01:51:06:02 01:51:21:24 
*FROM CLIP NAME:  BONNIE-TYLER-HOLDING-OUT-FOR-A-HERO.MP3 
*A14 VOL =  -3.0 DB  PAN L100 
*PATCH BONNIE-TYLER-HOLDING-OUT-FOR-A-H:  FROM SOURCE 2 TO RECORD 14 
*SOURCE FILE: BONNIE-TYLER-HOLDING-OUT-FOR-A-HERO.MP3
009975  MSMMMOB.27                       V     C        10:47:06:00 10:47:08:03 01:51:07:17 01:51:09:20 
M2      MSMMMOB.27                                025.0 10:47:06:00 
*FROM CLIP NAME:  B030C007_190828_A1Y8 
*SOURCE FILE: MSMMMOB.27
009976  MSMMMOB.27                       A     C        10:47:06:00 10:47:08:03 01:51:07:17 01:51:09:20 
*FROM CLIP NAME:  B030C007_190828_A1Y8 
*SOURCE FILE: MSMMMOB.27
009977  MSMMMOB.27                       A2    C        10:47:06:00 10:47:08:03 01:51:07:17 01:51:09:20 
*FROM CLIP NAME:  B030C007_190828_A1Y8 
*SOURCE FILE: MSMMMOB.27
009978  19Y08M28                         A3    C        10:47:06:00 10:47:08:03 01:51:07:17 01:51:09:20 
*FROM CLIP NAME:  72G-5/02 
*PATCH 19Y08M28:  FROM SOURCE 7 TO RECORD 3 
*SOURCE FILE: 19Y08M28
009979  19Y08M28                         A4    C        10:47:06:00 10:47:08:03 01:51:07:17 01:51:09:20 
*FROM CLIP NAME:  72G-5/02 
*SOURCE FILE: 19Y08M28
009980  MSMMMOB.85                       V     C        11:26:00:11 11:26:01:09 01:51:09:20 01:51:10:18 
M2      MSMMMOB.85                                025.0 11:26:00:11 
*FROM CLIP NAME:  B030C012_190828_A1Y8 
*SOURCE FILE: MSMMMOB.85
009981  19Y08M28                         A     C        11:26:00:11 11:26:01:09 01:51:09:20 01:51:10:18 
*FROM CLIP NAME:  72G-8/01 
*PATCH 19Y08M28:  FROM SOURCE 4 TO RECORD 1 
*SOURCE FILE: 19Y08M28
009982  19Y08M28                         A2    C        11:26:00:11 11:26:01:09 01:51:09:20 01:51:10:18 
*FROM CLIP NAME:  72G-8/01 
*PATCH 19Y08M28:  FROM SOURCE 7 TO RECORD 2 
*SOURCE FILE: 19Y08M28
009983  MSMMMOB.15                       V     C        14:03:32:11 14:03:33:22 01:51:10:18 01:51:12:04 
M2      MSMMMOB.15                                025.0 14:03:32:11 
*FROM CLIP NAME:  B032C002_190828_A1Y8 
*SOURCE FILE: MSMMMOB.15
009984  19Y08M28                         A     C        14:03:32:11 14:03:33:22 01:51:10:18 01:51:12:04 
*FROM CLIP NAME:  72G-9/02 
*PATCH 19Y08M28:  FROM SOURCE 4 TO RECORD 1 
*SOURCE FILE: 19Y08M28
009985  19Y08M28                         A2    C        14:03:32:11 14:03:33:22 01:51:10:18 01:51:12:04 
*FROM CLIP NAME:  72G-9/02 
*PATCH 19Y08M28:  FROM SOURCE 7 TO RECORD 2 
*SOURCE FILE: 19Y08M28
009986  MSMMMOB.85                       V     C        11:26:57:22 11:26:59:02 01:51:12:04 01:51:13:09 
M2      MSMMMOB.85                                025.0 11:26:57:22 
*FROM CLIP NAME:  B030C012_190828_A1Y8 
*SOURCE FILE: MSMMMOB.85
009987  19Y08M28                         A     C        11:26:57:22 11:26:59:02 01:51:12:04 01:51:13:09 
*FROM CLIP NAME:  72G-8/01 
*PATCH 19Y08M28:  FROM SOURCE 4 TO RECORD 1 
*SOURCE FILE: 19Y08M28
009988  19Y08M28                         A2    C        11:26:57:22 11:26:59:02 01:51:12:04 01:51:13:09 
*FROM CLIP NAME:  72G-8/01 
*PATCH 19Y08M28:  FROM SOURCE 7 TO RECORD 2 
*SOURCE FILE: 19Y08M28
009989  MSMMMOB.15                       V     C        14:03:38:03 14:03:40:00 01:51:13:09 01:51:15:06 
M2      MSMMMOB.15                                025.0 14:03:38:03 
*FROM CLIP NAME:  B032C002_190828_A1Y8 
*SOURCE FILE: MSMMMOB.15
009990  19Y08M28                         A     C        14:03:38:03 14:03:40:00 01:51:13:09 01:51:15:06 
*FROM CLIP NAME:  72G-9/02 
*PATCH 19Y08M28:  FROM SOURCE 4 TO RECORD 1 
*SOURCE FILE: 19Y08M28
009991  19Y08M28                         A2    C        14:03:38:03 14:03:40:00 01:51:13:09 01:51:15:06 
*FROM CLIP NAME:  72G-9/02 
*PATCH 19Y08M28:  FROM SOURCE 7 TO RECORD 2 
*SOURCE FILE: 19Y08M28
009992  MSMMMOB.15                       V     C        14:03:51:17 14:03:53:02 01:51:15:06 01:51:16:16 
M2      MSMMMOB.15                                025.0 14:03:51:17 
*FROM CLIP NAME:  B032C002_190828_A1Y8 
*SOURCE FILE: MSMMMOB.15
009993  19Y08M28                         A     C        14:03:51:17 14:03:53:02 01:51:15:06 01:51:16:16 
*FROM CLIP NAME:  72G-9/02 
*PATCH 19Y08M28:  FROM SOURCE 4 TO RECORD 1 
*SOURCE FILE: 19Y08M28
009994  19Y08M28                         A2    C        14:03:51:17 14:03:53:02 01:51:15:06 01:51:16:16 
*FROM CLIP NAME:  72G-9/02 
*PATCH 19Y08M28:  FROM SOURCE 7 TO RECORD 2 
*SOURCE FILE: 19Y08M28
009995  MSMMMOB.15                       V     C        14:03:55:07 14:03:56:18 01:51:16:16 01:51:18:02 
M2      MSMMMOB.15                                025.0 14:03:55:07 
*FROM CLIP NAME:  B032C002_190828_A1Y8 
*SOURCE FILE: MSMMMOB.15
009996  19Y08M28                         A     C        14:03:55:07 14:03:56:18 01:51:16:16 01:51:18:02 
*FROM CLIP NAME:  72G-9/02 
*PATCH 19Y08M28:  FROM SOURCE 4 TO RECORD 1 
*SOURCE FILE: 19Y08M28
009997  19Y08M28                         A2    C        14:03:55:07 14:03:56:18 01:51:16:16 01:51:18:02 
*FROM CLIP NAME:  72G-9/02 
*PATCH 19Y08M28:  FROM SOURCE 7 TO RECORD 2 
*SOURCE FILE: 19Y08M28
009998  MSMMMOB.74                       V     C        11:04:20:21 11:04:24:11 01:51:18:02 01:51:21:17 
M2      MSMMMOB.74                                025.0 11:04:20:21 
*FROM CLIP NAME:  B030C010_190828_A1Y8 
*SOURCE FILE: MSMMMOB.74
009999  19Y08M28                         A     C        11:04:20:21 11:04:24:11 01:51:18:02 01:51:21:17 
*FROM CLIP NAME:  72G-6/03 
*PATCH 19Y08M28:  FROM SOURCE 4 TO RECORD 1 
*SOURCE FILE: 19Y08M28
010000  19Y08M28                         A2    C        11:04:20:21 11:04:24:11 01:51:18:02 01:51:21:17 
*FROM CLIP NAME:  72G-6/03 
*PATCH 19Y08M28:  FROM SOURCE 7 TO RECORD 2 
*SOURCE FILE: 19Y08M28
010001  MSMMMOB.74                       V     C        11:04:28:15 11:04:30:12 01:51:21:17 01:51:23:14 
M2      MSMMMOB.74                                025.0 11:04:28:15 
*FROM CLIP NAME:  B030C010_190828_A1Y8 
*SOURCE FILE: MSMMMOB.74
010002  19Y08M28                         A     C        11:04:28:15 11:04:30:12 01:51:21:17 01:51:23:14 
*FROM CLIP NAME:  72G-6/03 
*PATCH 19Y08M28:  FROM SOURCE 4 TO RECORD 1 
*SOURCE FILE: 19Y08M28
010003  19Y08M28                         A2    C        11:04:28:15 11:04:30:12 01:51:21:17 01:51:23:14 
*FROM CLIP NAME:  72G-6/03 
*PATCH 19Y08M28:  FROM SOURCE 7 TO RECORD 2 
*SOURCE FILE: 19Y08M28
010004  MSMMMOB.81                       V     C        11:02:04:07 11:02:05:19 01:51:23:14 01:51:25:01 
M2      MSMMMOB.81                                025.0 11:02:04:07 
*FROM CLIP NAME:  B030C009_190828_A1Y8 
*SOURCE FILE: MSMMMOB.81
010005  MSMMMOB.81                       A     C        11:02:04:07 11:02:05:19 01:51:23:14 01:51:25:01 
*FROM CLIP NAME:  B030C009_190828_A1Y8 
*SOURCE FILE: MSMMMOB.81
010006  MSMMMOB.81                       A2    C        11:02:04:07 11:02:05:19 01:51:23:14 01:51:25:01 
*FROM CLIP NAME:  B030C009_190828_A1Y8 
*SOURCE FILE: MSMMMOB.81
010007  19Y08M28                         A3    C        11:02:04:07 11:02:05:19 01:51:23:14 01:51:25:01 
*FROM CLIP NAME:  72G-6/02 
*PATCH 19Y08M28:  FROM SOURCE 4 TO RECORD 3 
*SOURCE FILE: 19Y08M28
010008  19Y08M28                         A4    C        11:02:04:07 11:02:05:19 01:51:23:14 01:51:25:01 
*FROM CLIP NAME:  72G-6/02 
*PATCH 19Y08M28:  FROM SOURCE 7 TO RECORD 4 
*SOURCE FILE: 19Y08M28
010009  MSMMMOB.74                       V     C        11:04:33:16 11:04:35:20 01:51:25:01 01:51:27:05 
M2      MSMMMOB.74                                025.0 11:04:33:16 
*FROM CLIP NAME:  B030C010_190828_A1Y8 
*SOURCE FILE: MSMMMOB.74
010010  19Y08M28                         A     C        11:04:33:16 11:04:35:20 01:51:25:01 01:51:27:05 
*FROM CLIP NAME:  72G-6/03 
*PATCH 19Y08M28:  FROM SOURCE 4 TO RECORD 1 
*SOURCE FILE: 19Y08M28
010011  19Y08M28                         A2    C        11:04:33:16 11:04:35:20 01:51:25:01 01:51:27:05 
*FROM CLIP NAME:  72G-6/03 
*PATCH 19Y08M28:  FROM SOURCE 7 TO RECORD 2 
*SOURCE FILE: 19Y08M28
010012  MSMMMOB.27                       V     C        17:32:14:12 17:32:16:20 01:51:27:05 01:51:29:13 
M2      MSMMMOB.27                                025.0 17:32:14:12 
*FROM CLIP NAME:  A090C012_190820_R32C 
*SOURCE FILE: MSMMMOB.27
010013  19Y08M20                         A     C        17:32:14:11 17:32:16:19 01:51:27:05 01:51:29:13 
*FROM CLIP NAME:  72VK1/03 
*SOURCE FILE: 19Y08M20
010014  19Y08M20                         A2    C        17:32:14:11 17:32:16:19 01:51:27:05 01:51:29:13 
*FROM CLIP NAME:  72VK1/03 
*SOURCE FILE: 19Y08M20
010015  SOUND_01393.MP3                  A13   C        01:00:00:00 01:00:05:09 01:51:27:05 01:51:32:14 
*FROM CLIP NAME:  SOUND_01393.MP3 
*PATCH SOUND_01393.MP3:  FROM SOURCE 1 TO RECORD 13 
*SOURCE FILE: SOUND_01393.MP3
010016  SOUND_01393.MP3                  A14   C        01:00:00:00 01:00:05:09 01:51:27:05 01:51:32:14 
*FROM CLIP NAME:  SOUND_01393.MP3 
*PATCH SOUND_01393.MP3:  FROM SOURCE 2 TO RECORD 14 
*SOURCE FILE: SOUND_01393.MP3
010017  BONNIE-TYLER-HOLDING-OUT-FOR-A-H A17   C        01:00:57:16 01:01:14:24 01:51:27:05 01:51:44:13 
*FROM CLIP NAME:  BONNIE-TYLER-HOLDING-OUT-FOR-A-HERO.MP3 
*A17 VOL =  -8.2 DB  PAN R100 
*PATCH BONNIE-TYLER-HOLDING-OUT-FOR-A-H:  FROM SOURCE 1 TO RECORD 17 
*SOURCE FILE: BONNIE-TYLER-HOLDING-OUT-FOR-A-HERO.MP3
010018  BONNIE-TYLER-HOLDING-OUT-FOR-A-H A18   C        01:00:57:16 01:01:14:24 01:51:27:05 01:51:44:13 
*FROM CLIP NAME:  BONNIE-TYLER-HOLDING-OUT-FOR-A-HERO.MP3 
*A18 VOL =  -8.2 DB  PAN L100 
*PATCH BONNIE-TYLER-HOLDING-OUT-FOR-A-H:  FROM SOURCE 2 TO RECORD 18 
*SOURCE FILE: BONNIE-TYLER-HOLDING-OUT-FOR-A-HERO.MP3
010019  19Y08M20                         A     C        17:31:05:13 17:31:06:06 01:51:29:13 01:51:30:06 
*FROM CLIP NAME:  72VK1/02 
*SOURCE FILE: 19Y08M20
010020  19Y08M20                         A2    C        17:31:05:13 17:31:06:06 01:51:29:13 01:51:30:06 
*FROM CLIP NAME:  72VK1/02 
*SOURCE FILE: 19Y08M20
010021  MSMMMOB.17                       V     C        17:31:05:14 17:31:07:14 01:51:29:13 01:51:31:13 
M2      MSMMMOB.17                                025.0 17:31:05:14 
*FROM CLIP NAME:  A090C011_190820_R32C 
*SOURCE FILE: MSMMMOB.17
010022  19Y08M20                         A     C        17:44:47:06 17:44:48:13 01:51:30:06 01:51:31:13 
*FROM CLIP NAME:  72VK3/03 
*SOURCE FILE: 19Y08M20
010023  19Y08M20                         A2    C        17:44:47:06 17:44:48:13 01:51:30:06 01:51:31:13 
*FROM CLIP NAME:  72VK3/03 
*SOURCE FILE: 19Y08M20
010024  19Y08M20                         A3    C        17:44:47:06 17:44:48:13 01:51:30:06 01:51:31:13 
*FROM CLIP NAME:  72VK3/03 
*SOURCE FILE: 19Y08M20
010025  19Y08M20                         A4    C        17:44:47:06 17:44:48:13 01:51:30:06 01:51:31:13 
*FROM CLIP NAME:  72VK3/03 
*SOURCE FILE: 19Y08M20
010026  19Y08M20                         A5    C        17:44:47:06 17:44:48:13 01:51:30:06 01:51:31:13 
*FROM CLIP NAME:  72VK3/03 
*PATCH 19Y08M20:  FROM SOURCE 7 TO RECORD 5 
*SOURCE FILE: 19Y08M20
010027  MSMMMOB.14                       V     C        17:44:49:15 17:44:55:20 01:51:31:13 01:51:37:18 
M2      MSMMMOB.14                                025.0 17:44:49:15 
*FROM CLIP NAME:  A090C016_190820_R32C 
*SOURCE FILE: MSMMMOB.14
010028  19Y08M20                         A     C        17:44:49:14 17:44:55:19 01:51:31:13 01:51:37:18 
*FROM CLIP NAME:  72VK3/03 
*SOURCE FILE: 19Y08M20
010029  19Y08M20                         A2    C        17:44:49:14 17:44:55:19 01:51:31:13 01:51:37:18 
*FROM CLIP NAME:  72VK3/03 
*SOURCE FILE: 19Y08M20
010030  19Y08M20                         A3    C        17:44:49:14 17:44:55:19 01:51:31:13 01:51:37:18 
*FROM CLIP NAME:  72VK3/03 
*SOURCE FILE: 19Y08M20
010031  19Y08M20                         A4    C        17:44:49:14 17:44:55:19 01:51:31:13 01:51:37:18 
*FROM CLIP NAME:  72VK3/03 
*A4 VOL =  +6.3 DB  PAN L100 
*SOURCE FILE: 19Y08M20
010032  19Y08M20                         A5    C        17:44:49:14 17:44:55:19 01:51:31:13 01:51:37:18 
*FROM CLIP NAME:  72VK3/03 
*A5 VOL =  +7.0 DB  PAN R100 
*PATCH 19Y08M20:  FROM SOURCE 7 TO RECORD 5 
*SOURCE FILE: 19Y08M20
010033  BL                               V     C        00:00:00:00 00:00:04:09 01:51:33:09 01:51:37:18 
*SOURCE FILE: (NULL)
010034  19Y08M20                         A3    C        17:44:56:03 17:44:57:00 01:51:37:18 01:51:38:15 
*FROM CLIP NAME:  72VK3/03 
*SOURCE FILE: 19Y08M20
010035  19Y08M20                         A4    C        17:44:56:03 17:44:57:00 01:51:37:18 01:51:38:15 
*FROM CLIP NAME:  72VK3/03 
*SOURCE FILE: 19Y08M20
010036  19Y08M20                         A5    C        17:44:56:03 17:44:57:00 01:51:37:18 01:51:38:15 
*FROM CLIP NAME:  72VK3/03 
*PATCH 19Y08M20:  FROM SOURCE 2 TO RECORD 5 
*SOURCE FILE: 19Y08M20
010037  19Y08M20                         A6    C        17:44:56:03 17:44:57:00 01:51:37:18 01:51:38:15 
*FROM CLIP NAME:  72VK3/03 
*PATCH 19Y08M20:  FROM SOURCE 1 TO RECORD 6 
*SOURCE FILE: 19Y08M20
010038  19Y08M20                         A     C        17:32:22:16 17:32:25:07 01:51:37:18 01:51:40:09 
*FROM CLIP NAME:  72VK1/03 
*SOURCE FILE: 19Y08M20
010039  19Y08M20                         A2    C        17:32:22:16 17:32:25:07 01:51:37:18 01:51:40:09 
*FROM CLIP NAME:  72VK1/03 
*SOURCE FILE: 19Y08M20
010040  BL                               V     C        00:00:00:00 00:00:02:17 01:51:37:18 01:51:40:10 
*SOURCE FILE: (NULL)
010041  MSMMMOB.27                       V     C        17:32:22:17 17:32:26:01 01:51:37:18 01:51:41:02 
M2      MSMMMOB.27                                025.0 17:32:22:17 
*FROM CLIP NAME:  A090C012_190820_R32C 
*SOURCE FILE: MSMMMOB.27
010042  19Y08M20                         A3    C        17:44:57:00 17:44:57:00 01:51:38:15 01:51:38:15 
010042  BL                               A3    D    039 00:00:00:00 00:00:01:14 01:51:38:15 01:51:40:04 
*FROM CLIP NAME:  72VK3/03 
*SOURCE FILE: 19Y08M20
010043  19Y08M20                         A4    C        17:44:57:00 17:44:57:00 01:51:38:15 01:51:38:15 
010043  BL                               A4    D    039 00:00:00:00 00:00:01:14 01:51:38:15 01:51:40:04 
*FROM CLIP NAME:  72VK3/03 
*SOURCE FILE: 19Y08M20
010044  19Y08M20                         A5    C        17:44:57:00 17:44:57:00 01:51:38:15 01:51:38:15 
010044  BL                               A5    D    039 00:00:00:00 00:00:01:14 01:51:38:15 01:51:40:04 
*FROM CLIP NAME:  72VK3/03 
*PATCH 19Y08M20:  FROM SOURCE 2 TO RECORD 5 
*SOURCE FILE: 19Y08M20
010045  19Y08M20                         A6    C        17:44:57:00 17:44:57:00 01:51:38:15 01:51:38:15 
010045  BL                               A6    D    039 00:00:00:00 00:00:01:14 01:51:38:15 01:51:40:04 
*FROM CLIP NAME:  72VK3/03 
*PATCH 19Y08M20:  FROM SOURCE 1 TO RECORD 6 
*SOURCE FILE: 19Y08M20
010046  19Y08M20                         A     C        17:32:25:07 17:32:25:07 01:51:40:09 01:51:40:09 
010046  19Y08M20                         A     D    002 17:43:38:16 17:43:38:18 01:51:40:09 01:51:40:11 
*FROM CLIP NAME:  72VK1/03 
*TO CLIP NAME:  72VK3/02 
*SOURCE FILE: 19Y08M20
010047  19Y08M20                         A2    C        17:32:25:07 17:32:25:07 01:51:40:09 01:51:40:09 
010047  19Y08M20                         A2    D    002 17:43:38:16 17:43:38:18 01:51:40:09 01:51:40:11 
*FROM CLIP NAME:  72VK1/03 
*TO CLIP NAME:  72VK3/02 
*SOURCE FILE: 19Y08M20
010048  BL                               A3    C        00:00:00:00 00:00:00:00 01:51:40:09 01:51:40:09 
010048  19Y08M20                         A3    D    002 17:43:38:16 17:43:38:18 01:51:40:09 01:51:40:11 
*TO CLIP NAME:  72VK3/02 
*A3 VOL =  +5.8 DB  PAN R100 
*SOURCE FILE: (NULL)
010049  BL                               A4    C        00:00:00:00 00:00:00:00 01:51:40:09 01:51:40:09 
010049  19Y08M20                         A4    D    002 17:43:38:16 17:43:38:18 01:51:40:09 01:51:40:11 
*TO CLIP NAME:  72VK3/02 
*SOURCE FILE: (NULL)
010050  BL                               V     C        00:00:00:00 00:00:02:16 01:51:40:10 01:51:43:01 
*SOURCE FILE: (NULL)
010051  19Y08M20                         A     C        17:43:38:18 17:43:41:08 01:51:40:11 01:51:43:01 
*FROM CLIP NAME:  72VK3/02 
*SOURCE FILE: 19Y08M20
010052  19Y08M20                         A2    C        17:43:38:18 17:43:41:08 01:51:40:11 01:51:43:01 
*FROM CLIP NAME:  72VK3/02 
*SOURCE FILE: 19Y08M20
010053  19Y08M20                         A3    C        17:43:38:18 17:43:41:08 01:51:40:11 01:51:43:01 
*FROM CLIP NAME:  72VK3/02 
*A3 VOL =  +5.8 DB  PAN R100 
*SOURCE FILE: 19Y08M20
010054  19Y08M20                         A4    C        17:43:38:18 17:43:41:08 01:51:40:11 01:51:43:01 
*FROM CLIP NAME:  72VK3/02 
*SOURCE FILE: 19Y08M20
010055  MSMMMOB.65                       V     C        17:43:39:10 17:43:41:09 01:51:41:02 01:51:43:01 
M2      MSMMMOB.65                                025.0 17:43:39:10 
*FROM CLIP NAME:  A090C015_190820_R32C 
*SOURCE FILE: MSMMMOB.65
010056  19Y08M20                         A4    C        17:43:43:09 17:43:44:14 01:51:43:01 01:51:44:06 
*FROM CLIP NAME:  72VK3/02 
*SOURCE FILE: 19Y08M20
010057  19Y08M20                         A5    C        17:43:43:09 17:43:44:14 01:51:43:01 01:51:44:06 
*FROM CLIP NAME:  72VK3/02 
*PATCH 19Y08M20:  FROM SOURCE 3 TO RECORD 5 
*SOURCE FILE: 19Y08M20
010058  19Y08M20                         A6    C        17:43:43:09 17:43:44:14 01:51:43:01 01:51:44:06 
*FROM CLIP NAME:  72VK3/02 
*PATCH 19Y08M20:  FROM SOURCE 2 TO RECORD 6 
*SOURCE FILE: 19Y08M20
010059  19Y08M20                         A7    C        17:43:43:09 17:43:44:14 01:51:43:01 01:51:44:06 
*FROM CLIP NAME:  72VK3/02 
*PATCH 19Y08M20:  FROM SOURCE 1 TO RECORD 7 
*SOURCE FILE: 19Y08M20
010060  MSMMMOB.27                       V     C        17:32:32:22 17:32:34:09 01:51:43:01 01:51:44:13 
M2      MSMMMOB.27                                025.0 17:32:32:22 
*FROM CLIP NAME:  A090C012_190820_R32C 
*SOURCE FILE: MSMMMOB.27
010061  19Y08M20                         A     C        17:32:32:21 17:32:34:08 01:51:43:01 01:51:44:13 
*FROM CLIP NAME:  72VK1/03 
*SOURCE FILE: 19Y08M20
010062  19Y08M20                         A2    C        17:32:32:21 17:32:34:08 01:51:43:01 01:51:44:13 
*FROM CLIP NAME:  72VK1/03 
*SOURCE FILE: 19Y08M20
010063  BL                               V     C        00:00:00:00 00:00:12:09 01:51:43:01 01:51:55:10 
*SOURCE FILE: (NULL)
010064  19Y08M20                         A4    C        17:43:44:14 17:43:44:14 01:51:44:06 01:51:44:06 
010064  19Y08M20                         A4    D    007 17:38:05:17 17:38:05:24 01:51:44:06 01:51:44:13 
*FROM CLIP NAME:  72VK3/02 
*TO CLIP NAME:  72VK2/01 
*SOURCE FILE: 19Y08M20
010065  19Y08M20                         A5    C        17:43:44:14 17:43:44:14 01:51:44:06 01:51:44:06 
010065  19Y08M20                         A5    D    007 17:38:05:17 17:38:05:24 01:51:44:06 01:51:44:13 
*FROM CLIP NAME:  72VK3/02 
*TO CLIP NAME:  72VK2/01 
*PATCH 19Y08M20:  FROM SOURCE 3 TO RECORD 5 
*PATCH 19Y08M20:  FROM SOURCE 7 TO RECORD 5 
*SOURCE FILE: 19Y08M20
010066  19Y08M20                         A6    C        17:43:44:14 17:43:44:14 01:51:44:06 01:51:44:06 
010066  BL                               A6    D    007 00:00:00:00 00:00:00:07 01:51:44:06 01:51:44:13 
*FROM CLIP NAME:  72VK3/02 
*PATCH 19Y08M20:  FROM SOURCE 2 TO RECORD 6 
*SOURCE FILE: 19Y08M20
010067  19Y08M20                         A7    C        17:43:44:14 17:43:44:14 01:51:44:06 01:51:44:06 
010067  BL                               A7    D    007 00:00:00:00 00:00:00:07 01:51:44:06 01:51:44:13 
*FROM CLIP NAME:  72VK3/02 
*PATCH 19Y08M20:  FROM SOURCE 1 TO RECORD 7 
*SOURCE FILE: 19Y08M20
010068  19Y08M20                         A     C        17:44:47:06 17:44:48:05 01:51:44:13 01:51:45:12 
*FROM CLIP NAME:  72VK3/03 
*SOURCE FILE: 19Y08M20
010069  19Y08M20                         A2    C        17:44:47:06 17:44:48:05 01:51:44:13 01:51:45:12 
*FROM CLIP NAME:  72VK3/03 
*SOURCE FILE: 19Y08M20
010070  19Y08M20                         A3    C        17:44:47:06 17:44:48:05 01:51:44:13 01:51:45:12 
*FROM CLIP NAME:  72VK3/03 
*SOURCE FILE: 19Y08M20
010071  19Y08M20                         A4    C        17:44:47:06 17:44:48:05 01:51:44:13 01:51:45:12 
*FROM CLIP NAME:  72VK3/03 
*SOURCE FILE: 19Y08M20
010072  19Y08M20                         A5    C        17:44:47:06 17:44:48:05 01:51:44:13 01:51:45:12 
*FROM CLIP NAME:  72VK3/03 
*PATCH 19Y08M20:  FROM SOURCE 7 TO RECORD 5 
*SOURCE FILE: 19Y08M20
010073  MSMMMOB.75                       V     C        17:38:04:23 17:38:08:11 01:51:44:13 01:51:48:01 
M2      MSMMMOB.75                                025.0 17:38:04:23 
*FROM CLIP NAME:  A090C013_190820_R32C 
*SOURCE FILE: MSMMMOB.75
010074  01408.MP3                        A11   C        01:00:20:04 01:00:23:17 01:51:44:13 01:51:48:01 
*FROM CLIP NAME:  01408.MP3 
*A11 VOL =  -6.8 DB  PAN R100 
*PATCH 01408.MP3:  FROM SOURCE 1 TO RECORD 11 
*SOURCE FILE: 01408.MP3
010075  01408.MP3                        A12   C        01:00:20:04 01:00:23:17 01:51:44:13 01:51:48:01 
*FROM CLIP NAME:  01408.MP3 
*A12 VOL =  -6.8 DB  PAN L100 
*PATCH 01408.MP3:  FROM SOURCE 2 TO RECORD 12 
*SOURCE FILE: 01408.MP3
010076  19Y08M20                         A     C        17:38:05:21 17:38:07:00 01:51:45:12 01:51:46:16 
*FROM CLIP NAME:  72VK2/01 
*SOURCE FILE: 19Y08M20
010077  19Y08M20                         A2    C        17:38:05:21 17:38:07:00 01:51:45:12 01:51:46:16 
*FROM CLIP NAME:  72VK2/01 
*SOURCE FILE: 19Y08M20
010078  19Y08M20                         A3    C        17:38:05:21 17:38:07:00 01:51:45:12 01:51:46:16 
*FROM CLIP NAME:  72VK2/01 
*SOURCE FILE: 19Y08M20
010079  19Y08M20                         A4    C        17:38:05:21 17:38:07:00 01:51:45:12 01:51:46:16 
*FROM CLIP NAME:  72VK2/01 
*SOURCE FILE: 19Y08M20
010080  19Y08M20                         A5    C        17:38:05:21 17:38:07:00 01:51:45:12 01:51:46:16 
*FROM CLIP NAME:  72VK2/01 
*PATCH 19Y08M20:  FROM SOURCE 7 TO RECORD 5 
*SOURCE FILE: 19Y08M20
010081  19Y08M20                         A     C        17:32:33:22 17:32:35:07 01:51:46:16 01:51:48:01 
*FROM CLIP NAME:  72VK1/03 
*SOURCE FILE: 19Y08M20
010082  19Y08M20                         A2    C        17:32:33:22 17:32:35:07 01:51:46:16 01:51:48:01 
*FROM CLIP NAME:  72VK1/03 
*SOURCE FILE: 19Y08M20
010083  MSMMMOB.62                       V     C        18:45:09:00 18:45:11:10 01:51:48:01 01:51:50:11 
M2      MSMMMOB.62                                025.0 18:45:09:00 
*FROM CLIP NAME:  A091C004_190820_R32C 
*SOURCE FILE: MSMMMOB.62
010084  19Y08M20                         A     C        18:45:08:24 18:45:11:09 01:51:48:01 01:51:50:11 
*FROM CLIP NAME:  72DK1/03 
*SOURCE FILE: 19Y08M20
010085  19Y08M20                         A2    C        18:45:08:24 18:45:11:09 01:51:48:01 01:51:50:11 
*FROM CLIP NAME:  72DK1/03 
*SOURCE FILE: 19Y08M20
010086  19Y08M20                         A3    C        18:45:08:24 18:45:11:09 01:51:48:01 01:51:50:11 
*FROM CLIP NAME:  72DK1/03 
*PATCH 19Y08M20:  FROM SOURCE 7 TO RECORD 3 
*SOURCE FILE: 19Y08M20
010087  BONNIE-TYLER-HOLDING-OUT-FOR-A-H A17   C        01:01:23:04 01:01:35:22 01:51:48:01 01:52:00:19 
*FROM CLIP NAME:  BONNIE-TYLER-HOLDING-OUT-FOR-A-HERO.MP3 
*A17 VOL =  -9.5 DB  PAN R100 
*PATCH BONNIE-TYLER-HOLDING-OUT-FOR-A-H:  FROM SOURCE 1 TO RECORD 17 
*SOURCE FILE: BONNIE-TYLER-HOLDING-OUT-FOR-A-HERO.MP3
010088  BONNIE-TYLER-HOLDING-OUT-FOR-A-H A18   C        01:01:23:04 01:01:35:22 01:51:48:01 01:52:00:19 
*FROM CLIP NAME:  BONNIE-TYLER-HOLDING-OUT-FOR-A-HERO.MP3 
*A18 VOL =  -9.5 DB  PAN L100 
*PATCH BONNIE-TYLER-HOLDING-OUT-FOR-A-H:  FROM SOURCE 2 TO RECORD 18 
*SOURCE FILE: BONNIE-TYLER-HOLDING-OUT-FOR-A-HERO.MP3
010089  MSMMMOB.62                       V     C        18:45:15:06 18:45:18:18 01:51:50:11 01:51:53:23 
M2      MSMMMOB.62                                025.0 18:45:15:06 
*FROM CLIP NAME:  A091C004_190820_R32C 
*SOURCE FILE: MSMMMOB.62
010090  19Y08M20                         A     C        18:45:15:05 18:45:18:17 01:51:50:11 01:51:53:23 
*FROM CLIP NAME:  72DK1/03 
*SOURCE FILE: 19Y08M20
010091  19Y08M20                         A2    C        18:45:15:05 18:45:18:17 01:51:50:11 01:51:53:23 
*FROM CLIP NAME:  72DK1/03 
*SOURCE FILE: 19Y08M20
010092  19Y08M20                         A3    C        18:45:15:05 18:45:18:17 01:51:50:11 01:51:53:23 
*FROM CLIP NAME:  72DK1/03 
*PATCH 19Y08M20:  FROM SOURCE 7 TO RECORD 3 
*SOURCE FILE: 19Y08M20
010093  MSMMMOB.66                       V     C        19:02:13:08 19:02:18:03 01:51:53:23 01:51:58:18 
M2      MSMMMOB.66                                025.0 19:02:13:08 
*FROM CLIP NAME:  A091C013_190820_R32C 
*SOURCE FILE: MSMMMOB.66
010094  19Y08M20                         A     C        19:02:13:07 19:02:18:02 01:51:53:23 01:51:58:18 
*FROM CLIP NAME:  72DK4/04 
*SOURCE FILE: 19Y08M20
010095  19Y08M20                         A2    C        19:02:13:07 19:02:18:02 01:51:53:23 01:51:58:18 
*FROM CLIP NAME:  72DK4/04 
*SOURCE FILE: 19Y08M20
010096  19Y08M20                         A3    C        19:02:13:07 19:02:18:02 01:51:53:23 01:51:58:18 
*FROM CLIP NAME:  72DK4/04 
*PATCH 19Y08M20:  FROM SOURCE 7 TO RECORD 3 
*SOURCE FILE: 19Y08M20
010097  BL                               V     C        00:00:00:00 00:00:03:08 01:51:55:10 01:51:58:18 
*SOURCE FILE: (NULL)
010098  MSMMMOB.02                       V     C        18:52:24:21 18:52:26:19 01:51:58:18 01:52:00:16 
M2      MSMMMOB.02                                025.0 18:52:24:21 
*FROM CLIP NAME:  A091C008_190820_R32C 
*SOURCE FILE: MSMMMOB.02
010099  19Y08M20                         A     C        18:52:24:20 18:52:26:18 01:51:58:18 01:52:00:16 
*FROM CLIP NAME:  72DK2/04 
*SOURCE FILE: 19Y08M20
010100  19Y08M20                         A2    C        18:52:24:20 18:52:26:18 01:51:58:18 01:52:00:16 
*FROM CLIP NAME:  72DK2/04 
*SOURCE FILE: 19Y08M20
010101  19Y08M20                         A3    C        18:52:24:20 18:52:26:18 01:51:58:18 01:52:00:16 
*FROM CLIP NAME:  72DK2/04 
*PATCH 19Y08M20:  FROM SOURCE 7 TO RECORD 3 
*SOURCE FILE: 19Y08M20
010102  BL                               V     C        00:00:00:00 00:00:27:15 01:51:58:18 01:52:26:08 
*SOURCE FILE: (NULL)
010103  MSMMMOB.84                       V     C        19:49:38:18 19:49:43:04 01:52:00:16 01:52:05:02 
M2      MSMMMOB.84                                025.0 19:49:38:18 
*FROM CLIP NAME:  A091C020_190820_R32C 
*SOURCE FILE: MSMMMOB.84
010104  19Y08M20                         A     C        19:49:38:17 19:49:43:03 01:52:00:16 01:52:05:02 
*FROM CLIP NAME:  72EK3/01 
*SOURCE FILE: 19Y08M20
010105  19Y08M20                         A2    C        19:49:38:17 19:49:43:03 01:52:00:16 01:52:05:02 
*FROM CLIP NAME:  72EK3/01 
*SOURCE FILE: 19Y08M20
010106  19Y08M20                         A3    C        19:49:38:17 19:49:43:03 01:52:00:16 01:52:05:02 
*FROM CLIP NAME:  72EK3/01 
*PATCH 19Y08M20:  FROM SOURCE 7 TO RECORD 3 
*SOURCE FILE: 19Y08M20
010107  MSMMMOB.16                       V     C        19:32:37:18 19:32:39:14 01:52:05:02 01:52:06:23 
M2      MSMMMOB.16                                025.0 19:32:37:18 
*FROM CLIP NAME:  A091C016_190820_R32C 
*SOURCE FILE: MSMMMOB.16
010108  19Y08M20                         A     C        19:32:37:17 19:32:39:13 01:52:05:02 01:52:06:23 
*FROM CLIP NAME:  72EK1/02 
*SOURCE FILE: 19Y08M20
010109  19Y08M20                         A2    C        19:32:37:17 19:32:39:13 01:52:05:02 01:52:06:23 
*FROM CLIP NAME:  72EK1/02 
*SOURCE FILE: 19Y08M20
010110  19Y08M20                         A3    C        19:32:37:17 19:32:39:13 01:52:05:02 01:52:06:23 
*FROM CLIP NAME:  72EK1/02 
*PATCH 19Y08M20:  FROM SOURCE 7 TO RECORD 3 
*SOURCE FILE: 19Y08M20
010111  MSMMMOB.03                       V     C        19:40:52:08 19:40:54:12 01:52:06:23 01:52:09:02 
M2      MSMMMOB.03                                025.0 19:40:52:08 
*FROM CLIP NAME:  A091C017_190820_R32C 
*SOURCE FILE: MSMMMOB.03
010112  19Y08M20                         A     C        19:40:52:07 19:40:54:11 01:52:06:23 01:52:09:02 
*FROM CLIP NAME:  72EK2/01 
*SOURCE FILE: 19Y08M20
010113  19Y08M20                         A2    C        19:40:52:07 19:40:54:11 01:52:06:23 01:52:09:02 
*FROM CLIP NAME:  72EK2/01 
*SOURCE FILE: 19Y08M20
010114  19Y08M20                         A3    C        19:40:52:07 19:40:54:11 01:52:06:23 01:52:09:02 
*FROM CLIP NAME:  72EK2/01 
*PATCH 19Y08M20:  FROM SOURCE 7 TO RECORD 3 
*SOURCE FILE: 19Y08M20
010115  MSMMMOB.03                       V     C        19:40:56:16 19:40:59:17 01:52:09:02 01:52:12:03 
M2      MSMMMOB.03                                025.0 19:40:56:16 
*FROM CLIP NAME:  A091C017_190820_R32C 
*SOURCE FILE: MSMMMOB.03
010116  19Y08M20                         A     C        19:40:56:15 19:40:59:16 01:52:09:02 01:52:12:03 
*FROM CLIP NAME:  72EK2/01 
*SOURCE FILE: 19Y08M20
010117  19Y08M20                         A2    C        19:40:56:15 19:40:59:16 01:52:09:02 01:52:12:03 
*FROM CLIP NAME:  72EK2/01 
*SOURCE FILE: 19Y08M20
010118  19Y08M20                         A3    C        19:40:56:15 19:40:59:16 01:52:09:02 01:52:12:03 
*FROM CLIP NAME:  72EK2/01 
*PATCH 19Y08M20:  FROM SOURCE 7 TO RECORD 3 
*SOURCE FILE: 19Y08M20
010119  MSMMMOB.18                       V     C        19:46:44:09 19:46:46:00 01:52:12:03 01:52:13:19 
M2      MSMMMOB.18                                025.0 19:46:44:09 
*FROM CLIP NAME:  A091C019_190820_R32C 
*SOURCE FILE: MSMMMOB.18
010120  19Y08M20                         A     C        19:46:44:08 19:46:45:24 01:52:12:03 01:52:13:19 
*FROM CLIP NAME:  72EK2/03 
*SOURCE FILE: 19Y08M20
010121  19Y08M20                         A2    C        19:46:44:08 19:46:45:24 01:52:12:03 01:52:13:19 
*FROM CLIP NAME:  72EK2/03 
*SOURCE FILE: 19Y08M20
010122  19Y08M20                         A3    C        19:46:44:08 19:46:45:24 01:52:12:03 01:52:13:19 
*FROM CLIP NAME:  72EK2/03 
*PATCH 19Y08M20:  FROM SOURCE 7 TO RECORD 3 
*SOURCE FILE: 19Y08M20
010123  MSMMMOB.18                       V     C        19:46:47:09 19:46:50:09 01:52:13:19 01:52:16:19 
M2      MSMMMOB.18                                025.0 19:46:47:09 
*FROM CLIP NAME:  A091C019_190820_R32C 
*SOURCE FILE: MSMMMOB.18
010124  19Y08M20                         A     C        19:46:47:08 19:46:50:08 01:52:13:19 01:52:16:19 
*FROM CLIP NAME:  72EK2/03 
*SOURCE FILE: 19Y08M20
010125  19Y08M20                         A2    C        19:46:47:08 19:46:50:08 01:52:13:19 01:52:16:19 
*FROM CLIP NAME:  72EK2/03 
*SOURCE FILE: 19Y08M20
010126  19Y08M20                         A3    C        19:46:47:08 19:46:50:08 01:52:13:19 01:52:16:19 
*FROM CLIP NAME:  72EK2/03 
*PATCH 19Y08M20:  FROM SOURCE 7 TO RECORD 3 
*SOURCE FILE: 19Y08M20
010127  19Y08M20                         A     C        19:46:53:15 19:46:57:10 01:52:16:19 01:52:20:14 
*FROM CLIP NAME:  72EK2/03 
*SOURCE FILE: 19Y08M20
010128  19Y08M20                         A2    C        19:46:53:15 19:46:57:10 01:52:16:19 01:52:20:14 
*FROM CLIP NAME:  72EK2/03 
*SOURCE FILE: 19Y08M20
010129  19Y08M20                         A3    C        19:46:53:15 19:46:57:10 01:52:16:19 01:52:20:14 
*FROM CLIP NAME:  72EK2/03 
*PATCH 19Y08M20:  FROM SOURCE 7 TO RECORD 3 
*SOURCE FILE: 19Y08M20
010131  MSMMMOB.18                       V     C        19:46:53:16 19:46:57:22 01:52:16:19 01:52:21:00 
M2      MSMMMOB.18                                025.0 19:46:53:16 
*FROM CLIP NAME:  A091C019_190820_R32C 
*SOURCE FILE: MSMMMOB.18
010130  GLDR-APN-280_V01                 V     C        00:00:00:00 00:00:04:06 01:52:16:19 01:52:21:00 
*FROM CLIP NAME:  GLDR-APN-280_V01 
*SOURCE FILE: GLDR-APN-280_V01
010132  19Y08M20                         A     C        19:47:14:18 19:47:15:04 01:52:20:14 01:52:21:00 
*FROM CLIP NAME:  72EK2/03 
*A1 VOL =  -9.5 DB  PAN R100 
*SOURCE FILE: 19Y08M20
010133  19Y08M20                         A2    C        19:47:14:18 19:47:15:04 01:52:20:14 01:52:21:00 
*FROM CLIP NAME:  72EK2/03 
*A2 VOL = -10.7 DB  PAN L100 
*SOURCE FILE: 19Y08M20
010134  19Y08M20                         A3    C        19:47:14:18 19:47:15:04 01:52:20:14 01:52:21:00 
*FROM CLIP NAME:  72EK2/03 
*A3 VOL = -11.0 DB  PAN R100 
*PATCH 19Y08M20:  FROM SOURCE 7 TO RECORD 3 
*SOURCE FILE: 19Y08M20
010135  19Y08M12                         A     C        17:24:09:04 17:24:37:19 01:52:21:00 01:52:49:15 
*FROM CLIP NAME:  73K1/03.SYNC.01 
*SOURCE FILE: 19Y08M12
010136  19Y08M12                         A2    C        17:24:09:04 17:24:37:19 01:52:21:00 01:52:49:15 
*FROM CLIP NAME:  73K1/03.SYNC.01 
*SOURCE FILE: 19Y08M12
010137  19Y08M12                         A3    C        17:24:09:04 17:24:37:19 01:52:21:00 01:52:49:15 
*FROM CLIP NAME:  73K1/03.SYNC.01 
*SOURCE FILE: 19Y08M12
010138  19Y08M12                         A4    C        17:24:09:04 17:24:37:19 01:52:21:00 01:52:49:15 
*FROM CLIP NAME:  73K1/03.SYNC.01 
*PATCH 19Y08M12:  FROM SOURCE 7 TO RECORD 4 
*SOURCE FILE: 19Y08M12
010139  MSMMMOB.14                       V     C        17:24:09:05 17:24:37:21 01:52:21:00 01:52:49:16 
M2      MSMMMOB.14                                025.0 17:24:09:05 
*FROM CLIP NAME:  A067C001_190812_R32C 
*SOURCE FILE: MSMMMOB.14
010140  BL                               V     C        00:00:00:00 00:01:07:22 01:52:21:00 01:53:28:22 
*SOURCE FILE: (NULL)
010141  BL                               V     C        00:00:00:00 00:00:05:04 01:52:26:08 01:52:31:12 
*SOURCE FILE: (NULL)
010142  TITLE.01                         V     C        01:00:17:23 01:00:21:23 01:52:27:06 01:52:31:06 
*FROM CLIP NAME:  TITLE.01 
*SOURCE FILE: TITLE.01
010143  BL                               V     C        00:00:00:00 00:03:12:00 01:52:31:06 01:55:43:06 
*SOURCE FILE: (NULL)
010144  BL                               V     C        00:00:00:00 00:01:01:23 01:52:31:12 01:53:33:10 
*SOURCE FILE: (NULL)
010145  19Y08M12                         A     C        17:24:37:19 17:24:37:19 01:52:49:15 01:52:49:15 
010145  19Y08M12                         A     D    002 18:15:00:00 18:15:00:02 01:52:49:15 01:52:49:17 
*FROM CLIP NAME:  73K1/03.SYNC.01 
*TO CLIP NAME:  73K4/03.SYNC.01 
*SOURCE FILE: 19Y08M12
010146  19Y08M12                         A2    C        17:24:37:19 17:24:37:19 01:52:49:15 01:52:49:15 
010146  19Y08M12                         A2    D    002 18:15:00:00 18:15:00:02 01:52:49:15 01:52:49:17 
*FROM CLIP NAME:  73K1/03.SYNC.01 
*TO CLIP NAME:  73K4/03.SYNC.01 
*SOURCE FILE: 19Y08M12
010147  19Y08M12                         A3    C        17:24:37:19 17:24:37:19 01:52:49:15 01:52:49:15 
010147  19Y08M12                         A3    D    002 18:15:00:00 18:15:00:02 01:52:49:15 01:52:49:17 
*FROM CLIP NAME:  73K1/03.SYNC.01 
*TO CLIP NAME:  73K4/03.SYNC.01 
*PATCH 19Y08M12:  FROM SOURCE 7 TO RECORD 3 
*SOURCE FILE: 19Y08M12
010148  19Y08M12                         A4    C        17:24:37:19 17:24:37:19 01:52:49:15 01:52:49:15 
010148  19Y08M12                         A4    D    002 18:15:00:00 18:15:00:02 01:52:49:15 01:52:49:17 
*FROM CLIP NAME:  73K1/03.SYNC.01 
*TO CLIP NAME:  73K4/03.SYNC.01 
*PATCH 19Y08M12:  FROM SOURCE 7 TO RECORD 4 
*PATCH 19Y08M12:  FROM SOURCE 3 TO RECORD 4 
*SOURCE FILE: 19Y08M12
010149  MSMMMOB.21                       V     C        18:15:00:02 18:15:03:13 01:52:49:16 01:52:53:02 
M2      MSMMMOB.21                                025.0 18:15:00:02 
*FROM CLIP NAME:  A067C009_190812_R32C 
*SOURCE FILE: MSMMMOB.21
010150  19Y08M12                         A     C        18:15:00:02 18:15:00:15 01:52:49:17 01:52:50:05 
*FROM CLIP NAME:  73K4/03.SYNC.01 
*SOURCE FILE: 19Y08M12
010151  19Y08M12                         A2    C        18:15:00:02 18:15:00:15 01:52:49:17 01:52:50:05 
*FROM CLIP NAME:  73K4/03.SYNC.01 
*SOURCE FILE: 19Y08M12
010152  19Y08M12                         A3    C        18:15:00:02 18:15:00:15 01:52:49:17 01:52:50:05 
*FROM CLIP NAME:  73K4/03.SYNC.01 
*PATCH 19Y08M12:  FROM SOURCE 7 TO RECORD 3 
*SOURCE FILE: 19Y08M12
010153  19Y08M12                         A4    C        18:15:00:02 18:15:00:15 01:52:49:17 01:52:50:05 
*FROM CLIP NAME:  73K4/03.SYNC.01 
*PATCH 19Y08M12:  FROM SOURCE 3 TO RECORD 4 
*SOURCE FILE: 19Y08M12
010154  19Y08M12                         A     C        18:15:00:15 18:15:00:15 01:52:50:05 01:52:50:05 
010154  19Y08M12                         A     D    002 17:24:38:04 17:24:38:06 01:52:50:05 01:52:50:07 
*FROM CLIP NAME:  73K4/03.SYNC.01 
*TO CLIP NAME:  73K1/03.SYNC.01 
*SOURCE FILE: 19Y08M12
010155  19Y08M12                         A2    C        18:15:00:15 18:15:00:15 01:52:50:05 01:52:50:05 
010155  19Y08M12                         A2    D    002 17:24:38:04 17:24:38:06 01:52:50:05 01:52:50:07 
*FROM CLIP NAME:  73K4/03.SYNC.01 
*TO CLIP NAME:  73K1/03.SYNC.01 
*SOURCE FILE: 19Y08M12
010156  19Y08M12                         A3    C        18:15:00:15 18:15:00:15 01:52:50:05 01:52:50:05 
010156  19Y08M12                         A3    D    002 17:24:38:04 17:24:38:06 01:52:50:05 01:52:50:07 
*FROM CLIP NAME:  73K4/03.SYNC.01 
*TO CLIP NAME:  73K1/03.SYNC.01 
*PATCH 19Y08M12:  FROM SOURCE 7 TO RECORD 3 
*PATCH 19Y08M12:  FROM SOURCE 7 TO RECORD 3 
*SOURCE FILE: 19Y08M12
010157  19Y08M12                         A4    C        18:15:00:15 18:15:00:15 01:52:50:05 01:52:50:05 
010157  19Y08M12                         A4    D    002 17:24:38:04 17:24:38:06 01:52:50:05 01:52:50:07 
*FROM CLIP NAME:  73K4/03.SYNC.01 
*TO CLIP NAME:  73K1/03.SYNC.01 
*PATCH 19Y08M12:  FROM SOURCE 3 TO RECORD 4 
*PATCH 19Y08M12:  FROM SOURCE 3 TO RECORD 4 
*SOURCE FILE: 19Y08M12
010158  19Y08M12                         A     C        17:24:38:06 17:24:40:11 01:52:50:07 01:52:52:12 
*FROM CLIP NAME:  73K1/03.SYNC.01 
*SOURCE FILE: 19Y08M12
010159  19Y08M12                         A2    C        17:24:38:06 17:24:40:11 01:52:50:07 01:52:52:12 
*FROM CLIP NAME:  73K1/03.SYNC.01 
*SOURCE FILE: 19Y08M12
010160  19Y08M12                         A3    C        17:24:38:06 17:24:40:11 01:52:50:07 01:52:52:12 
*FROM CLIP NAME:  73K1/03.SYNC.01 
*PATCH 19Y08M12:  FROM SOURCE 7 TO RECORD 3 
*SOURCE FILE: 19Y08M12
010161  19Y08M12                         A4    C        17:24:38:06 17:24:40:11 01:52:50:07 01:52:52:12 
*FROM CLIP NAME:  73K1/03.SYNC.01 
*PATCH 19Y08M12:  FROM SOURCE 3 TO RECORD 4 
*SOURCE FILE: 19Y08M12
010162  19Y08M12                         A     C        17:24:40:11 17:24:40:11 01:52:52:12 01:52:52:12 
010162  19Y08M12                         A     D    002 17:24:41:01 17:24:41:03 01:52:52:12 01:52:52:14 
*FROM CLIP NAME:  73K1/03.SYNC.01 
*TO CLIP NAME:  73K1/03.SYNC.01 
*SOURCE FILE: 19Y08M12
010163  19Y08M12                         A2    C        17:24:40:11 17:24:40:11 01:52:52:12 01:52:52:12 
010163  19Y08M12                         A2    D    002 17:24:41:01 17:24:41:03 01:52:52:12 01:52:52:14 
*FROM CLIP NAME:  73K1/03.SYNC.01 
*TO CLIP NAME:  73K1/03.SYNC.01 
*SOURCE FILE: 19Y08M12
010164  19Y08M12                         A3    C        17:24:40:11 17:24:40:11 01:52:52:12 01:52:52:12 
010164  19Y08M12                         A3    D    002 17:24:41:01 17:24:41:03 01:52:52:12 01:52:52:14 
*FROM CLIP NAME:  73K1/03.SYNC.01 
*TO CLIP NAME:  73K1/03.SYNC.01 
*PATCH 19Y08M12:  FROM SOURCE 7 TO RECORD 3 
*SOURCE FILE: 19Y08M12
010165  19Y08M12                         A4    C        17:24:40:11 17:24:40:11 01:52:52:12 01:52:52:12 
010165  19Y08M12                         A4    D    002 17:24:41:01 17:24:41:03 01:52:52:12 01:52:52:14 
*FROM CLIP NAME:  73K1/03.SYNC.01 
*TO CLIP NAME:  73K1/03.SYNC.01 
*PATCH 19Y08M12:  FROM SOURCE 3 TO RECORD 4 
*PATCH 19Y08M12:  FROM SOURCE 7 TO RECORD 4 
*SOURCE FILE: 19Y08M12
010166  19Y08M12                         A     C        17:24:41:03 17:24:47:06 01:52:52:14 01:52:58:17 
*FROM CLIP NAME:  73K1/03.SYNC.01 
*SOURCE FILE: 19Y08M12
010167  19Y08M12                         A2    C        17:24:41:03 17:24:47:06 01:52:52:14 01:52:58:17 
*FROM CLIP NAME:  73K1/03.SYNC.01 
*SOURCE FILE: 19Y08M12
010168  19Y08M12                         A3    C        17:24:41:03 17:24:47:06 01:52:52:14 01:52:58:17 
*FROM CLIP NAME:  73K1/03.SYNC.01 
*SOURCE FILE: 19Y08M12
010169  19Y08M12                         A4    C        17:24:41:03 17:24:47:06 01:52:52:14 01:52:58:17 
*FROM CLIP NAME:  73K1/03.SYNC.01 
*PATCH 19Y08M12:  FROM SOURCE 7 TO RECORD 4 
*SOURCE FILE: 19Y08M12
010170  MSMMMOB.14                       V     C        17:24:41:17 17:24:47:07 01:52:53:02 01:52:58:17 
M2      MSMMMOB.14                                025.0 17:24:41:17 
*FROM CLIP NAME:  A067C001_190812_R32C 
*SOURCE FILE: MSMMMOB.14
010171  MSMMMOB.21                       V     C        18:15:08:16 18:15:10:15 01:52:58:17 01:53:00:16 
M2      MSMMMOB.21                                025.0 18:15:08:16 
*FROM CLIP NAME:  A067C009_190812_R32C 
*SOURCE FILE: MSMMMOB.21
010172  19Y08M12                         A     C        18:15:08:15 18:15:10:14 01:52:58:17 01:53:00:16 
*FROM CLIP NAME:  73K4/03.SYNC.01 
*SOURCE FILE: 19Y08M12
010173  19Y08M12                         A2    C        18:15:08:15 18:15:10:14 01:52:58:17 01:53:00:16 
*FROM CLIP NAME:  73K4/03.SYNC.01 
*SOURCE FILE: 19Y08M12
010174  19Y08M12                         A3    C        18:15:08:15 18:15:10:14 01:52:58:17 01:53:00:16 
*FROM CLIP NAME:  73K4/03.SYNC.01 
*SOURCE FILE: 19Y08M12
010175  19Y08M12                         A4    C        18:15:08:15 18:15:10:14 01:52:58:17 01:53:00:16 
*FROM CLIP NAME:  73K4/03.SYNC.01 
*PATCH 19Y08M12:  FROM SOURCE 7 TO RECORD 4 
*SOURCE FILE: 19Y08M12
010176  19Y08M12                         A     C        18:15:10:07 18:15:10:11 01:53:00:16 01:53:00:20 
*FROM CLIP NAME:  73K4/03.SYNC.01 
*SOURCE FILE: 19Y08M12
010177  19Y08M12                         A2    C        18:15:10:07 18:15:10:11 01:53:00:16 01:53:00:20 
*FROM CLIP NAME:  73K4/03.SYNC.01 
*SOURCE FILE: 19Y08M12
010178  19Y08M12                         A3    C        18:15:10:07 18:15:10:11 01:53:00:16 01:53:00:20 
*FROM CLIP NAME:  73K4/03.SYNC.01 
*SOURCE FILE: 19Y08M12
010179  19Y08M12                         A4    C        18:15:10:07 18:15:10:11 01:53:00:16 01:53:00:20 
*FROM CLIP NAME:  73K4/03.SYNC.01 
*PATCH 19Y08M12:  FROM SOURCE 7 TO RECORD 4 
*SOURCE FILE: 19Y08M12
010180  MSMMMOB.14                       V     C        17:24:49:02 17:24:51:17 01:53:00:16 01:53:03:06 
M2      MSMMMOB.14                                025.0 17:24:49:02 
*FROM CLIP NAME:  A067C001_190812_R32C 
*SOURCE FILE: MSMMMOB.14
010181  19Y08M12                         A     C        17:24:49:05 17:24:51:16 01:53:00:20 01:53:03:06 
*FROM CLIP NAME:  73K1/03.SYNC.01 
*SOURCE FILE: 19Y08M12
010182  19Y08M12                         A2    C        17:24:49:05 17:24:51:16 01:53:00:20 01:53:03:06 
*FROM CLIP NAME:  73K1/03.SYNC.01 
*SOURCE FILE: 19Y08M12
010183  19Y08M12                         A3    C        17:24:49:05 17:24:51:16 01:53:00:20 01:53:03:06 
*FROM CLIP NAME:  73K1/03.SYNC.01 
*SOURCE FILE: 19Y08M12
010184  19Y08M12                         A4    C        17:24:49:05 17:24:51:16 01:53:00:20 01:53:03:06 
*FROM CLIP NAME:  73K1/03.SYNC.01 
*PATCH 19Y08M12:  FROM SOURCE 7 TO RECORD 4 
*SOURCE FILE: 19Y08M12
010185  19Y08M12                         A     C        18:15:12:14 18:15:14:18 01:53:03:06 01:53:05:10 
*FROM CLIP NAME:  73K4/03.SYNC.01 
*SOURCE FILE: 19Y08M12
010186  19Y08M12                         A2    C        18:15:12:14 18:15:14:18 01:53:03:06 01:53:05:10 
*FROM CLIP NAME:  73K4/03.SYNC.01 
*SOURCE FILE: 19Y08M12
010187  19Y08M12                         A3    C        18:15:12:14 18:15:14:18 01:53:03:06 01:53:05:10 
*FROM CLIP NAME:  73K4/03.SYNC.01 
*SOURCE FILE: 19Y08M12
010188  19Y08M12                         A4    C        18:15:12:14 18:15:14:18 01:53:03:06 01:53:05:10 
*FROM CLIP NAME:  73K4/03.SYNC.01 
*PATCH 19Y08M12:  FROM SOURCE 7 TO RECORD 4 
*SOURCE FILE: 19Y08M12
010189  MSMMMOB.21                       V     C        18:15:12:15 18:15:19:07 01:53:03:06 01:53:09:23 
M2      MSMMMOB.21                                025.0 18:15:12:15 
*FROM CLIP NAME:  A067C009_190812_R32C 
*SOURCE FILE: MSMMMOB.21
010190  19Y08M12                         A     C        17:24:54:01 17:24:58:14 01:53:05:10 01:53:09:23 
*FROM CLIP NAME:  73K1/03.SYNC.01 
*SOURCE FILE: 19Y08M12
010191  19Y08M12                         A2    C        17:24:54:01 17:24:58:14 01:53:05:10 01:53:09:23 
*FROM CLIP NAME:  73K1/03.SYNC.01 
*SOURCE FILE: 19Y08M12
010192  19Y08M12                         A3    C        17:24:54:01 17:24:58:14 01:53:05:10 01:53:09:23 
*FROM CLIP NAME:  73K1/03.SYNC.01 
*SOURCE FILE: 19Y08M12
010193  19Y08M12                         A4    C        17:24:54:01 17:24:58:14 01:53:05:10 01:53:09:23 
*FROM CLIP NAME:  73K1/03.SYNC.01 
*PATCH 19Y08M12:  FROM SOURCE 7 TO RECORD 4 
*SOURCE FILE: 19Y08M12
010194  19Y08M12                         A     C        17:41:35:19 17:41:47:15 01:53:09:23 01:53:21:19 
*FROM CLIP NAME:  73K2/02.SYNC.01 
*SOURCE FILE: 19Y08M12
010195  19Y08M12                         A2    C        17:41:35:19 17:41:47:15 01:53:09:23 01:53:21:19 
*FROM CLIP NAME:  73K2/02.SYNC.01 
*SOURCE FILE: 19Y08M12
010196  19Y08M12                         A3    C        17:41:35:19 17:41:47:15 01:53:09:23 01:53:21:19 
*FROM CLIP NAME:  73K2/02.SYNC.01 
*PATCH 19Y08M12:  FROM SOURCE 7 TO RECORD 3 
*SOURCE FILE: 19Y08M12
010197  MSMMMOB.32                       V     C        17:41:35:20 17:41:47:21 01:53:09:23 01:53:21:24 
M2      MSMMMOB.32                                025.0 17:41:35:20 
*FROM CLIP NAME:  A067C003_190812_R32C 
*SOURCE FILE: MSMMMOB.32
010198  19Y08M12                         A     C        17:55:45:17 17:55:46:13 01:53:21:19 01:53:22:15 
*FROM CLIP NAME:  73K3/03.SYNC.01 
*PATCH 19Y08M12:  FROM SOURCE 2 TO RECORD 1 
*SOURCE FILE: 19Y08M12
010199  19Y08M12                         A2    C        17:55:45:17 17:55:46:13 01:53:21:19 01:53:22:15 
*FROM CLIP NAME:  73K3/03.SYNC.01 
*PATCH 19Y08M12:  FROM SOURCE 3 TO RECORD 2 
*SOURCE FILE: 19Y08M12
010200  19Y08M12                         A3    C        17:55:45:17 17:55:46:13 01:53:21:19 01:53:22:15 
*FROM CLIP NAME:  73K3/03.SYNC.01 
*PATCH 19Y08M12:  FROM SOURCE 7 TO RECORD 3 
*SOURCE FILE: 19Y08M12
010201  MSMMMOB.15                       V     C        17:55:50:01 17:55:53:18 01:53:21:24 01:53:25:16 
M2      MSMMMOB.15                                025.0 17:55:50:01 
*FROM CLIP NAME:  A067C006_190812_R32C 
*SOURCE FILE: MSMMMOB.15
010202  19Y08M12                         A     C        17:55:50:16 17:55:54:05 01:53:22:15 01:53:26:04 
*FROM CLIP NAME:  73K3/03.SYNC.01 
*PATCH 19Y08M12:  FROM SOURCE 2 TO RECORD 1 
*SOURCE FILE: 19Y08M12
010203  19Y08M12                         A2    C        17:55:50:16 17:55:54:05 01:53:22:15 01:53:26:04 
*FROM CLIP NAME:  73K3/03.SYNC.01 
*PATCH 19Y08M12:  FROM SOURCE 3 TO RECORD 2 
*SOURCE FILE: 19Y08M12
010204  19Y08M12                         A3    C        17:55:50:16 17:55:54:05 01:53:22:15 01:53:26:04 
*FROM CLIP NAME:  73K3/03.SYNC.01 
*PATCH 19Y08M12:  FROM SOURCE 7 TO RECORD 3 
*SOURCE FILE: 19Y08M12
010205  MSMMMOB.32                       V     C        17:41:50:06 17:41:53:12 01:53:25:16 01:53:28:22 
M2      MSMMMOB.32                                025.0 17:41:50:06 
*FROM CLIP NAME:  A067C003_190812_R32C 
*SOURCE FILE: MSMMMOB.32
010206  19Y08M12                         A     C        17:41:50:18 17:41:53:11 01:53:26:04 01:53:28:22 
*FROM CLIP NAME:  73K2/02.SYNC.01 
*SOURCE FILE: 19Y08M12
010207  19Y08M12                         A2    C        17:41:50:18 17:41:53:11 01:53:26:04 01:53:28:22 
*FROM CLIP NAME:  73K2/02.SYNC.01 
*SOURCE FILE: 19Y08M12
010208  19Y08M12                         A3    C        17:41:50:18 17:41:53:11 01:53:26:04 01:53:28:22 
*FROM CLIP NAME:  73K2/02.SYNC.01 
*PATCH 19Y08M12:  FROM SOURCE 7 TO RECORD 3 
*SOURCE FILE: 19Y08M12
010209  BL                               A17   C        00:00:00:00 00:00:00:00 01:53:26:14 01:53:26:14 
010209  BONNIE-TYLER-HOLDING-OUT-FOR-A-H A17   D    069 01:00:57:16 01:01:00:10 01:53:26:14 01:53:29:08 
*TO CLIP NAME:  BONNIE-TYLER-HOLDING-OUT-FOR-A-HERO.MP3 
*A17 VOL = -10.3 DB  PAN R100 
*PATCH BONNIE-TYLER-HOLDING-OUT-FOR-A-H:  FROM SOURCE 1 TO RECORD 17 
*SOURCE FILE: (NULL)
010210  BL                               A18   C        00:00:00:00 00:00:00:00 01:53:26:14 01:53:26:14 
010210  BONNIE-TYLER-HOLDING-OUT-FOR-A-H A18   D    069 01:00:57:16 01:01:00:10 01:53:26:14 01:53:29:08 
*TO CLIP NAME:  BONNIE-TYLER-HOLDING-OUT-FOR-A-HERO.MP3 
*A18 VOL = -10.3 DB  PAN L100 
*PATCH BONNIE-TYLER-HOLDING-OUT-FOR-A-H:  FROM SOURCE 2 TO RECORD 18 
*SOURCE FILE: (NULL)
010211  MSMMMOB.18                       V     C        19:47:16:01 19:47:18:14 01:53:28:22 01:53:31:10 
M2      MSMMMOB.18                                025.0 19:47:16:01 
*FROM CLIP NAME:  A091C019_190820_R32C 
*SOURCE FILE: MSMMMOB.18
010212  GLDR-APN-290_V01                 V     C        00:00:00:00 00:00:02:13 01:53:28:22 01:53:31:10 
*FROM CLIP NAME:  GLDR-APN-290_V01 
*SOURCE FILE: GLDR-APN-290_V01
010213  19Y08M20                         A     C        19:47:19:15 19:47:22:03 01:53:28:22 01:53:31:10 
*FROM CLIP NAME:  72EK2/03 
*SOURCE FILE: 19Y08M20
010214  19Y08M20                         A2    C        19:47:19:15 19:47:22:03 01:53:28:22 01:53:31:10 
*FROM CLIP NAME:  72EK2/03 
*SOURCE FILE: 19Y08M20
010215  19Y08M20                         A3    C        19:47:19:15 19:47:22:03 01:53:28:22 01:53:31:10 
*FROM CLIP NAME:  72EK2/03 
*PATCH 19Y08M20:  FROM SOURCE 7 TO RECORD 3 
*SOURCE FILE: 19Y08M20
010216  CINEMASCOPE_2-35-1_CROPLINES.PNG V     C        01:00:00:00 01:03:06:15 01:53:28:22 01:56:35:12 
*FROM CLIP NAME:  CINEMASCOPE 2-35-1 CROPLINES.PNG 
*SOURCE FILE: CINEMASCOPE 2-35-1 CROPLINES.PNG
010217  BONNIE-TYLER-HOLDING-OUT-FOR-A-H A17   C        01:01:00:10 01:01:09:17 01:53:29:08 01:53:38:15 
*FROM CLIP NAME:  BONNIE-TYLER-HOLDING-OUT-FOR-A-HERO.MP3 
*A17 VOL = -10.3 DB  PAN R100 
*PATCH BONNIE-TYLER-HOLDING-OUT-FOR-A-H:  FROM SOURCE 1 TO RECORD 17 
*SOURCE FILE: BONNIE-TYLER-HOLDING-OUT-FOR-A-HERO.MP3
010218  BONNIE-TYLER-HOLDING-OUT-FOR-A-H A18   C        01:01:00:10 01:01:09:17 01:53:29:08 01:53:38:15 
*FROM CLIP NAME:  BONNIE-TYLER-HOLDING-OUT-FOR-A-HERO.MP3 
*A18 VOL = -10.3 DB  PAN L100 
*PATCH BONNIE-TYLER-HOLDING-OUT-FOR-A-H:  FROM SOURCE 2 TO RECORD 18 
*SOURCE FILE: BONNIE-TYLER-HOLDING-OUT-FOR-A-HERO.MP3
010219  MSMMMOB.43                       V     C        19:55:01:22 19:55:03:22 01:53:31:10 01:53:33:10 
M2      MSMMMOB.43                                025.0 19:55:01:22 
*FROM CLIP NAME:  A092C001_190820_R32C 
*SOURCE FILE: MSMMMOB.43
010220  19Y08M20                         A     C        19:55:01:21 19:55:03:21 01:53:31:10 01:53:33:10 
*FROM CLIP NAME:  74K1/01 
*SOURCE FILE: 19Y08M20
010221  19Y08M20                         A2    C        19:55:01:21 19:55:03:21 01:53:31:10 01:53:33:10 
*FROM CLIP NAME:  74K1/01 
*SOURCE FILE: 19Y08M20
010222  19Y08M20                         A3    C        19:55:01:21 19:55:03:21 01:53:31:10 01:53:33:10 
*FROM CLIP NAME:  74K1/01 
*PATCH 19Y08M20:  FROM SOURCE 7 TO RECORD 3 
*SOURCE FILE: 19Y08M20
010223  BL                               V     C        00:00:00:00 00:05:56:16 01:53:31:10 01:59:28:01 
*SOURCE FILE: (NULL)
010224  BL                               V     C        00:00:00:00 00:00:02:03 01:53:33:10 01:53:35:13 
*SOURCE FILE: (NULL)
010225  DSC00131.JPG                     V     C        01:00:00:00 01:00:02:03 01:53:33:10 01:53:35:13 
*FROM CLIP NAME:  DSC00131.JPG 
*SOURCE FILE: DSC00131.JPG
010226  MSMMMOB.43                       V     C        19:55:04:10 19:55:07:12 01:53:35:13 01:53:38:15 
M2      MSMMMOB.43                                025.0 19:55:04:10 
*FROM CLIP NAME:  A092C001_190820_R32C 
*SOURCE FILE: MSMMMOB.43
010227  19Y08M20                         A     C        19:55:04:09 19:55:07:11 01:53:35:13 01:53:38:15 
*FROM CLIP NAME:  74K1/01 
*SOURCE FILE: 19Y08M20
010228  19Y08M20                         A2    C        19:55:04:09 19:55:07:11 01:53:35:13 01:53:38:15 
*FROM CLIP NAME:  74K1/01 
*SOURCE FILE: 19Y08M20
010229  19Y08M20                         A3    C        19:55:04:09 19:55:07:11 01:53:35:13 01:53:38:15 
*FROM CLIP NAME:  74K1/01 
*PATCH 19Y08M20:  FROM SOURCE 7 TO RECORD 3 
*SOURCE FILE: 19Y08M20
010230  BL                               V     C        00:00:00:00 00:02:07:18 01:53:35:13 01:55:43:06 
*SOURCE FILE: (NULL)
010231  BONNIE-TYLER-HOLDING-OUT-FOR-A-H A17   C        01:01:09:17 01:01:10:11 01:53:38:15 01:53:39:09 
*FROM CLIP NAME:  BONNIE-TYLER-HOLDING-OUT-FOR-A-HERO.MP3 
*A17 VOL = -14.0 DB  PAN R100 
*PATCH BONNIE-TYLER-HOLDING-OUT-FOR-A-H:  FROM SOURCE 1 TO RECORD 17 
*SOURCE FILE: BONNIE-TYLER-HOLDING-OUT-FOR-A-HERO.MP3
010232  BONNIE-TYLER-HOLDING-OUT-FOR-A-H A18   C        01:01:09:17 01:01:10:11 01:53:38:15 01:53:39:09 
*FROM CLIP NAME:  BONNIE-TYLER-HOLDING-OUT-FOR-A-HERO.MP3 
*A18 VOL = -14.0 DB  PAN L100 
*PATCH BONNIE-TYLER-HOLDING-OUT-FOR-A-H:  FROM SOURCE 2 TO RECORD 18 
*SOURCE FILE: BONNIE-TYLER-HOLDING-OUT-FOR-A-HERO.MP3
010233  A016C006_190728_R32C             V     C        19:10:31:04 19:10:34:11 01:53:38:15 01:53:41:22 
*FROM CLIP NAME:  A016C006_190728_R32C.NEW.01 
*SOURCE FILE: A016C006_190728_R32C
010234  351863__YLEARKISTO__NOKIKANA-COO A7    C        01:00:02:19 01:00:17:03 01:53:38:15 01:53:52:24 
*FROM CLIP NAME:  351863__YLEARKISTO__NOKIKANA-COOT-CALLING-IN-THE-WATER-SOME-DUCKS-WATER-SOUNDS-FULICA-ALTRA.WAV 
*A7 VOL = -27.0 DB  PAN L100 
*PATCH 351863__YLEARKISTO__NOKIKANA-COO:  FROM SOURCE 2 TO RECORD 7 
*SOURCE FILE: 351863__YLEARKISTO__NOKIKANA-COOT-CALLING-IN-THE-WATER-SOME-DUCKS-WATER-SOUNDS-FULICA-ALTRA.WAV
010235  351863__YLEARKISTO__NOKIKANA-COO A8    C        01:00:02:19 01:00:17:03 01:53:38:15 01:53:52:24 
*FROM CLIP NAME:  351863__YLEARKISTO__NOKIKANA-COOT-CALLING-IN-THE-WATER-SOME-DUCKS-WATER-SOUNDS-FULICA-ALTRA.WAV 
*A8 VOL = -27.0 DB  PAN R100 
*PATCH 351863__YLEARKISTO__NOKIKANA-COO:  FROM SOURCE 1 TO RECORD 8 
*SOURCE FILE: 351863__YLEARKISTO__NOKIKANA-COOT-CALLING-IN-THE-WATER-SOME-DUCKS-WATER-SOUNDS-FULICA-ALTRA.WAV
010236  00620.MP3                        A11   C        01:00:04:13 01:00:24:09 01:53:38:15 01:53:58:11 
*FROM CLIP NAME:  00620.MP3 
*A11 VOL = -21.1 DB  PAN L100 
*PATCH 00620.MP3:  FROM SOURCE 2 TO RECORD 11 
*SOURCE FILE: 00620.MP3
010237  00620.MP3                        A12   C        01:00:04:13 01:00:24:09 01:53:38:15 01:53:58:11 
*FROM CLIP NAME:  00620.MP3 
*A12 VOL = -21.1 DB  PAN R100 
*PATCH 00620.MP3:  FROM SOURCE 1 TO RECORD 12 
*SOURCE FILE: 00620.MP3
010238  LUBY_MENYA_LUBI.MP3              A13   C        01:02:17:12 01:04:03:05 01:53:38:15 01:55:24:08 
*, D-VERB 
*FROM CLIP NAME:  LUBY_MENYA_LUBI.MP3 
*A13 VOL = -20.2 DB  PAN L100 
*PATCH LUBY_MENYA_LUBI.MP3:  FROM SOURCE 1 TO RECORD 13 
*SOURCE FILE: LUBY_MENYA_LUBI.MP3
010239  LUBY_MENYA_LUBI.MP3              A14   C        01:02:17:12 01:04:03:05 01:53:38:15 01:55:24:08 
*, D-VERB 
*FROM CLIP NAME:  LUBY_MENYA_LUBI.MP3 
*A14 VOL = -20.2 DB  PAN R100 
*PATCH LUBY_MENYA_LUBI.MP3:  FROM SOURCE 2 TO RECORD 14 
*SOURCE FILE: LUBY_MENYA_LUBI.MP3
010240  19Y07M28                         A     C        18:51:45:15 18:51:51:15 01:53:41:22 01:53:47:22 
*FROM CLIP NAME:  76BK1/01 
*SOURCE FILE: 19Y07M28
010241  19Y07M28                         A2    C        18:51:45:15 18:51:51:15 01:53:41:22 01:53:47:22 
*FROM CLIP NAME:  76BK1/01 
*SOURCE FILE: 19Y07M28
010242  19Y07M28                         A3    C        18:51:45:15 18:51:51:15 01:53:41:22 01:53:47:22 
*FROM CLIP NAME:  76BK1/01 
*PATCH 19Y07M28:  FROM SOURCE 7 TO RECORD 3 
*SOURCE FILE: 19Y07M28
010243  19Y07M28                         A4    C        18:51:45:15 18:51:51:15 01:53:41:22 01:53:47:22 
*FROM CLIP NAME:  76BK1/01 
*SOURCE FILE: 19Y07M28
010244  19Y07M28                         A5    C        18:51:45:15 18:51:51:15 01:53:41:22 01:53:47:22 
*FROM CLIP NAME:  76BK1/01 
*SOURCE FILE: 19Y07M28
010245  19Y07M28                         A6    C        18:51:45:15 18:51:51:15 01:53:41:22 01:53:47:22 
*FROM CLIP NAME:  76BK1/01 
*PATCH 19Y07M28:  FROM SOURCE 3 TO RECORD 6 
*SOURCE FILE: 19Y07M28
010246  A016C003_190728_R32C             V     C        18:51:45:16 18:51:51:21 01:53:41:22 01:53:48:02 
*FROM CLIP NAME:  A016C003_190728_R32C.NEW.01 
*SOURCE FILE: A016C003_190728_R32C
010247  19Y07M28                         A     C        18:51:51:15 18:51:51:15 01:53:47:22 01:53:47:22 
010247  19Y07M28                         A     D    002 19:10:33:14 19:10:33:16 01:53:47:22 01:53:47:24 
*FROM CLIP NAME:  76BK1/01 
*TO CLIP NAME:  76BK3/02 
*SOURCE FILE: 19Y07M28
010248  19Y07M28                         A2    C        18:51:51:15 18:51:51:15 01:53:47:22 01:53:47:22 
010248  19Y07M28                         A2    D    002 19:10:33:14 19:10:33:16 01:53:47:22 01:53:47:24 
*FROM CLIP NAME:  76BK1/01 
*TO CLIP NAME:  76BK3/02 
*SOURCE FILE: 19Y07M28
010249  19Y07M28                         A3    C        18:51:51:15 18:51:51:15 01:53:47:22 01:53:47:22 
010249  19Y07M28                         A3    D    002 19:10:33:14 19:10:33:16 01:53:47:22 01:53:47:24 
*FROM CLIP NAME:  76BK1/01 
*TO CLIP NAME:  76BK3/02 
*PATCH 19Y07M28:  FROM SOURCE 7 TO RECORD 3 
*SOURCE FILE: 19Y07M28
010250  19Y07M28                         A4    C        18:51:51:15 18:51:51:15 01:53:47:22 01:53:47:22 
010250  19Y07M28                         A4    D    002 19:10:33:14 19:10:33:16 01:53:47:22 01:53:47:24 
*FROM CLIP NAME:  76BK1/01 
*TO CLIP NAME:  76BK3/02 
*SOURCE FILE: 19Y07M28
010251  19Y07M28                         A5    C        18:51:51:15 18:51:51:15 01:53:47:22 01:53:47:22 
010251  19Y07M28                         A5    D    002 19:10:33:14 19:10:33:16 01:53:47:22 01:53:47:24 
*FROM CLIP NAME:  76BK1/01 
*TO CLIP NAME:  76BK3/02 
*SOURCE FILE: 19Y07M28
010252  19Y07M28                         A6    C        18:51:51:15 18:51:51:15 01:53:47:22 01:53:47:22 
010252  19Y07M28                         A6    D    002 19:10:33:14 19:10:33:16 01:53:47:22 01:53:47:24 
*FROM CLIP NAME:  76BK1/01 
*TO CLIP NAME:  76BK3/02 
*PATCH 19Y07M28:  FROM SOURCE 3 TO RECORD 6 
*PATCH 19Y07M28:  FROM SOURCE 7 TO RECORD 6 
*SOURCE FILE: 19Y07M28
010253  19Y07M28                         A     C        19:10:33:16 19:10:36:12 01:53:47:24 01:53:50:20 
*FROM CLIP NAME:  76BK3/02 
*SOURCE FILE: 19Y07M28
010254  19Y07M28                         A2    C        19:10:33:16 19:10:36:12 01:53:47:24 01:53:50:20 
*FROM CLIP NAME:  76BK3/02 
*SOURCE FILE: 19Y07M28
010255  19Y07M28                         A3    C        19:10:33:16 19:10:36:12 01:53:47:24 01:53:50:20 
*FROM CLIP NAME:  76BK3/02 
*SOURCE FILE: 19Y07M28
010256  19Y07M28                         A4    C        19:10:33:16 19:10:36:12 01:53:47:24 01:53:50:20 
*FROM CLIP NAME:  76BK3/02 
*SOURCE FILE: 19Y07M28
010257  19Y07M28                         A5    C        19:10:33:16 19:10:36:12 01:53:47:24 01:53:50:20 
*FROM CLIP NAME:  76BK3/02 
*SOURCE FILE: 19Y07M28
010258  19Y07M28                         A6    C        19:10:33:16 19:10:36:12 01:53:47:24 01:53:50:20 
*FROM CLIP NAME:  76BK3/02 
*PATCH 19Y07M28:  FROM SOURCE 7 TO RECORD 6 
*SOURCE FILE: 19Y07M28
010259  A016C006_190728_R32C             V     C        19:10:33:20 19:10:38:17 01:53:48:02 01:53:52:24 
*FROM CLIP NAME:  A016C006_190728_R32C.NEW.01 
*SOURCE FILE: A016C006_190728_R32C
010260  19Y07M28                         A     C        19:10:36:12 19:10:36:12 01:53:50:20 01:53:50:20 
010260  19Y07M28                         A     D    002 19:10:37:01 19:10:37:03 01:53:50:20 01:53:50:22 
*FROM CLIP NAME:  76BK3/02 
*TO CLIP NAME:  76BK3/02 
*SOURCE FILE: 19Y07M28
010261  19Y07M28                         A2    C        19:10:36:12 19:10:36:12 01:53:50:20 01:53:50:20 
010261  19Y07M28                         A2    D    002 19:10:37:01 19:10:37:03 01:53:50:20 01:53:50:22 
*FROM CLIP NAME:  76BK3/02 
*TO CLIP NAME:  76BK3/02 
*SOURCE FILE: 19Y07M28
010262  19Y07M28                         A3    C        19:10:36:12 19:10:36:12 01:53:50:20 01:53:50:20 
010262  19Y07M28                         A3    D    002 19:10:37:01 19:10:37:03 01:53:50:20 01:53:50:22 
*FROM CLIP NAME:  76BK3/02 
*TO CLIP NAME:  76BK3/02 
*SOURCE FILE: 19Y07M28
010263  19Y07M28                         A4    C        19:10:36:12 19:10:36:12 01:53:50:20 01:53:50:20 
010263  19Y07M28                         A4    D    002 19:10:37:01 19:10:37:03 01:53:50:20 01:53:50:22 
*FROM CLIP NAME:  76BK3/02 
*TO CLIP NAME:  76BK3/02 
*SOURCE FILE: 19Y07M28
010264  19Y07M28                         A5    C        19:10:36:12 19:10:36:12 01:53:50:20 01:53:50:20 
010264  19Y07M28                         A5    D    002 19:10:37:01 19:10:37:03 01:53:50:20 01:53:50:22 
*FROM CLIP NAME:  76BK3/02 
*TO CLIP NAME:  76BK3/02 
*SOURCE FILE: 19Y07M28
010265  19Y07M28                         A6    C        19:10:36:12 19:10:36:12 01:53:50:20 01:53:50:20 
010265  19Y07M28                         A6    D    002 19:10:37:01 19:10:37:03 01:53:50:20 01:53:50:22 
*FROM CLIP NAME:  76BK3/02 
*TO CLIP NAME:  76BK3/02 
*PATCH 19Y07M28:  FROM SOURCE 7 TO RECORD 6 
*PATCH 19Y07M28:  FROM SOURCE 7 TO RECORD 6 
*SOURCE FILE: 19Y07M28
010266  19Y07M28                         A     C        19:10:37:03 19:10:38:13 01:53:50:22 01:53:52:07 
*FROM CLIP NAME:  76BK3/02 
*SOURCE FILE: 19Y07M28
010267  19Y07M28                         A2    C        19:10:37:03 19:10:38:13 01:53:50:22 01:53:52:07 
*FROM CLIP NAME:  76BK3/02 
*SOURCE FILE: 19Y07M28
010268  19Y07M28                         A3    C        19:10:37:03 19:10:38:13 01:53:50:22 01:53:52:07 
*FROM CLIP NAME:  76BK3/02 
*SOURCE FILE: 19Y07M28
010269  19Y07M28                         A4    C        19:10:37:03 19:10:38:13 01:53:50:22 01:53:52:07 
*FROM CLIP NAME:  76BK3/02 
*SOURCE FILE: 19Y07M28
010270  19Y07M28                         A5    C        19:10:37:03 19:10:38:13 01:53:50:22 01:53:52:07 
*FROM CLIP NAME:  76BK3/02 
*SOURCE FILE: 19Y07M28
010271  19Y07M28                         A6    C        19:10:37:03 19:10:38:13 01:53:50:22 01:53:52:07 
*FROM CLIP NAME:  76BK3/02 
*PATCH 19Y07M28:  FROM SOURCE 7 TO RECORD 6 
*SOURCE FILE: 19Y07M28
010272  19Y07M28                         A     C        19:10:38:13 19:10:38:13 01:53:52:07 01:53:52:07 
010272  19Y07M28                         A     D    002 19:10:30:20 19:10:30:22 01:53:52:07 01:53:52:09 
*FROM CLIP NAME:  76BK3/02 
*TO CLIP NAME:  76BK3/02 
*SOURCE FILE: 19Y07M28
010273  19Y07M28                         A2    C        19:10:38:13 19:10:38:13 01:53:52:07 01:53:52:07 
010273  19Y07M28                         A2    D    002 19:10:30:20 19:10:30:22 01:53:52:07 01:53:52:09 
*FROM CLIP NAME:  76BK3/02 
*TO CLIP NAME:  76BK3/02 
*SOURCE FILE: 19Y07M28
010274  19Y07M28                         A3    C        19:10:38:13 19:10:38:13 01:53:52:07 01:53:52:07 
010274  19Y07M28                         A3    D    002 19:10:30:20 19:10:30:22 01:53:52:07 01:53:52:09 
*FROM CLIP NAME:  76BK3/02 
*TO CLIP NAME:  76BK3/02 
*SOURCE FILE: 19Y07M28
010275  19Y07M28                         A4    C        19:10:38:13 19:10:38:13 01:53:52:07 01:53:52:07 
010275  19Y07M28                         A4    D    002 19:10:30:20 19:10:30:22 01:53:52:07 01:53:52:09 
*FROM CLIP NAME:  76BK3/02 
*TO CLIP NAME:  76BK3/02 
*SOURCE FILE: 19Y07M28
010276  19Y07M28                         A5    C        19:10:38:13 19:10:38:13 01:53:52:07 01:53:52:07 
010276  19Y07M28                         A5    D    002 19:10:30:20 19:10:30:22 01:53:52:07 01:53:52:09 
*FROM CLIP NAME:  76BK3/02 
*TO CLIP NAME:  76BK3/02 
*SOURCE FILE: 19Y07M28
010277  19Y07M28                         A6    C        19:10:38:13 19:10:38:13 01:53:52:07 01:53:52:07 
010277  19Y07M28                         A6    D    002 19:10:30:20 19:10:30:22 01:53:52:07 01:53:52:09 
*FROM CLIP NAME:  76BK3/02 
*TO CLIP NAME:  76BK3/02 
*PATCH 19Y07M28:  FROM SOURCE 7 TO RECORD 6 
*PATCH 19Y07M28:  FROM SOURCE 7 TO RECORD 6 
*SOURCE FILE: 19Y07M28
010278  19Y07M28                         A     C        19:10:30:22 19:10:31:12 01:53:52:09 01:53:52:24 
*FROM CLIP NAME:  76BK3/02 
*SOURCE FILE: 19Y07M28
010279  19Y07M28                         A2    C        19:10:30:22 19:10:31:12 01:53:52:09 01:53:52:24 
*FROM CLIP NAME:  76BK3/02 
*SOURCE FILE: 19Y07M28
010280  19Y07M28                         A3    C        19:10:30:22 19:10:31:12 01:53:52:09 01:53:52:24 
*FROM CLIP NAME:  76BK3/02 
*SOURCE FILE: 19Y07M28
010281  19Y07M28                         A4    C        19:10:30:22 19:10:31:12 01:53:52:09 01:53:52:24 
*FROM CLIP NAME:  76BK3/02 
*SOURCE FILE: 19Y07M28
010282  19Y07M28                         A5    C        19:10:30:22 19:10:31:12 01:53:52:09 01:53:52:24 
*FROM CLIP NAME:  76BK3/02 
*SOURCE FILE: 19Y07M28
010283  19Y07M28                         A6    C        19:10:30:22 19:10:31:12 01:53:52:09 01:53:52:24 
*FROM CLIP NAME:  76BK3/02 
*PATCH 19Y07M28:  FROM SOURCE 7 TO RECORD 6 
*SOURCE FILE: 19Y07M28
010284  A017C002_190728_R32C             V     C        20:02:08:06 20:02:09:13 01:53:52:24 01:53:54:06 
*FROM CLIP NAME:  A017C002_190728_R32C.NEW.01 
*SOURCE FILE: A017C002_190728_R32C
010285  19Y07M28                         A     C        19:10:31:21 19:10:33:06 01:53:52:24 01:53:54:09 
*FROM CLIP NAME:  76BK3/02 
*SOURCE FILE: 19Y07M28
010286  19Y07M28                         A2    C        19:10:31:21 19:10:33:06 01:53:52:24 01:53:54:09 
*FROM CLIP NAME:  76BK3/02 
*SOURCE FILE: 19Y07M28
010287  19Y07M28                         A3    C        19:10:31:21 19:10:33:06 01:53:52:24 01:53:54:09 
*FROM CLIP NAME:  76BK3/02 
*SOURCE FILE: 19Y07M28
010288  19Y07M28                         A4    C        19:10:31:21 19:10:33:06 01:53:52:24 01:53:54:09 
*FROM CLIP NAME:  76BK3/02 
*SOURCE FILE: 19Y07M28
010289  19Y07M28                         A5    C        19:10:31:21 19:10:33:06 01:53:52:24 01:53:54:09 
*FROM CLIP NAME:  76BK3/02 
*SOURCE FILE: 19Y07M28
010290  19Y07M28                         A6    C        19:10:31:21 19:10:33:06 01:53:52:24 01:53:54:09 
*FROM CLIP NAME:  76BK3/02 
*PATCH 19Y07M28:  FROM SOURCE 7 TO RECORD 6 
*SOURCE FILE: 19Y07M28
010291  351863__YLEARKISTO__NOKIKANA-COO A7    C        01:00:17:12 01:00:23:19 01:53:52:24 01:53:59:06 
*FROM CLIP NAME:  351863__YLEARKISTO__NOKIKANA-COOT-CALLING-IN-THE-WATER-SOME-DUCKS-WATER-SOUNDS-FULICA-ALTRA.WAV 
*A7 VOL = -27.0 DB  PAN L100 
*PATCH 351863__YLEARKISTO__NOKIKANA-COO:  FROM SOURCE 2 TO RECORD 7 
*SOURCE FILE: 351863__YLEARKISTO__NOKIKANA-COOT-CALLING-IN-THE-WATER-SOME-DUCKS-WATER-SOUNDS-FULICA-ALTRA.WAV
010292  351863__YLEARKISTO__NOKIKANA-COO A8    C        01:00:17:12 01:00:23:19 01:53:52:24 01:53:59:06 
*FROM CLIP NAME:  351863__YLEARKISTO__NOKIKANA-COOT-CALLING-IN-THE-WATER-SOME-DUCKS-WATER-SOUNDS-FULICA-ALTRA.WAV 
*A8 VOL = -27.0 DB  PAN R100 
*PATCH 351863__YLEARKISTO__NOKIKANA-COO:  FROM SOURCE 1 TO RECORD 8 
*SOURCE FILE: 351863__YLEARKISTO__NOKIKANA-COOT-CALLING-IN-THE-WATER-SOME-DUCKS-WATER-SOUNDS-FULICA-ALTRA.WAV
010293  A016C006_190728_R32C             V     C        19:10:39:12 19:10:41:01 01:53:54:06 01:53:55:20 
*FROM CLIP NAME:  A016C006_190728_R32C.NEW.01 
*SOURCE FILE: A016C006_190728_R32C
010294  19Y07M28                         A     C        19:10:33:06 19:10:33:06 01:53:54:09 01:53:54:09 
010294  19Y07M28                         A     D    002 19:10:39:14 19:10:39:16 01:53:54:09 01:53:54:11 
*FROM CLIP NAME:  76BK3/02 
*TO CLIP NAME:  76BK3/02 
*SOURCE FILE: 19Y07M28
010295  19Y07M28                         A2    C        19:10:33:06 19:10:33:06 01:53:54:09 01:53:54:09 
010295  19Y07M28                         A2    D    002 19:10:39:14 19:10:39:16 01:53:54:09 01:53:54:11 
*FROM CLIP NAME:  76BK3/02 
*TO CLIP NAME:  76BK3/02 
*SOURCE FILE: 19Y07M28
010296  19Y07M28                         A3    C        19:10:33:06 19:10:33:06 01:53:54:09 01:53:54:09 
010296  19Y07M28                         A3    D    002 19:10:39:14 19:10:39:16 01:53:54:09 01:53:54:11 
*FROM CLIP NAME:  76BK3/02 
*TO CLIP NAME:  76BK3/02 
*SOURCE FILE: 19Y07M28
010297  19Y07M28                         A4    C        19:10:33:06 19:10:33:06 01:53:54:09 01:53:54:09 
010297  19Y07M28                         A4    D    002 19:10:39:14 19:10:39:16 01:53:54:09 01:53:54:11 
*FROM CLIP NAME:  76BK3/02 
*TO CLIP NAME:  76BK3/02 
*SOURCE FILE: 19Y07M28
010298  19Y07M28                         A5    C        19:10:33:06 19:10:33:06 01:53:54:09 01:53:54:09 
010298  19Y07M28                         A5    D    002 19:10:39:14 19:10:39:16 01:53:54:09 01:53:54:11 
*FROM CLIP NAME:  76BK3/02 
*TO CLIP NAME:  76BK3/02 
*SOURCE FILE: 19Y07M28
010299  19Y07M28                         A6    C        19:10:33:06 19:10:33:06 01:53:54:09 01:53:54:09 
010299  19Y07M28                         A6    D    002 19:10:39:14 19:10:39:16 01:53:54:09 01:53:54:11 
*FROM CLIP NAME:  76BK3/02 
*TO CLIP NAME:  76BK3/02 
*PATCH 19Y07M28:  FROM SOURCE 7 TO RECORD 6 
*PATCH 19Y07M28:  FROM SOURCE 7 TO RECORD 6 
*SOURCE FILE: 19Y07M28
010300  19Y07M28                         A     C        19:10:39:16 19:10:41:00 01:53:54:11 01:53:55:20 
*FROM CLIP NAME:  76BK3/02 
*SOURCE FILE: 19Y07M28
010301  19Y07M28                         A2    C        19:10:39:16 19:10:41:00 01:53:54:11 01:53:55:20 
*FROM CLIP NAME:  76BK3/02 
*SOURCE FILE: 19Y07M28
010302  19Y07M28                         A3    C        19:10:39:16 19:10:41:00 01:53:54:11 01:53:55:20 
*FROM CLIP NAME:  76BK3/02 
*SOURCE FILE: 19Y07M28
010303  19Y07M28                         A4    C        19:10:39:16 19:10:41:00 01:53:54:11 01:53:55:20 
*FROM CLIP NAME:  76BK3/02 
*SOURCE FILE: 19Y07M28
010304  19Y07M28                         A5    C        19:10:39:16 19:10:41:00 01:53:54:11 01:53:55:20 
*FROM CLIP NAME:  76BK3/02 
*SOURCE FILE: 19Y07M28
010305  19Y07M28                         A6    C        19:10:39:16 19:10:41:00 01:53:54:11 01:53:55:20 
*FROM CLIP NAME:  76BK3/02 
*PATCH 19Y07M28:  FROM SOURCE 7 TO RECORD 6 
*SOURCE FILE: 19Y07M28
010306  19Y07M28                         A     C        19:10:41:08 19:10:41:12 01:53:55:20 01:53:55:24 
*FROM CLIP NAME:  76BK3/02 
*SOURCE FILE: 19Y07M28
010307  19Y07M28                         A2    C        19:10:41:08 19:10:41:12 01:53:55:20 01:53:55:24 
*FROM CLIP NAME:  76BK3/02 
*SOURCE FILE: 19Y07M28
010308  19Y07M28                         A3    C        19:10:41:08 19:10:41:12 01:53:55:20 01:53:55:24 
*FROM CLIP NAME:  76BK3/02 
*SOURCE FILE: 19Y07M28
010309  19Y07M28                         A4    C        19:10:41:08 19:10:41:12 01:53:55:20 01:53:55:24 
*FROM CLIP NAME:  76BK3/02 
*SOURCE FILE: 19Y07M28
010310  19Y07M28                         A5    C        19:10:41:08 19:10:41:12 01:53:55:20 01:53:55:24 
*FROM CLIP NAME:  76BK3/02 
*SOURCE FILE: 19Y07M28
010311  19Y07M28                         A6    C        19:10:41:08 19:10:41:12 01:53:55:20 01:53:55:24 
*FROM CLIP NAME:  76BK3/02 
*PATCH 19Y07M28:  FROM SOURCE 7 TO RECORD 6 
*SOURCE FILE: 19Y07M28
010312  A016C003_190728_R32C             V     C        18:52:10:05 18:52:12:02 01:53:55:20 01:53:57:17 
*FROM CLIP NAME:  A016C003_190728_R32C.NEW.01 
*SOURCE FILE: A016C003_190728_R32C
010313  19Y07M28                         A     C        19:10:41:12 19:10:41:12 01:53:55:24 01:53:55:24 
010313  19Y07M28                         A     D    002 19:21:29:23 19:21:30:00 01:53:55:24 01:53:56:01 
*FROM CLIP NAME:  76BK3/02 
*TO CLIP NAME:  76BK3/05 
*SOURCE FILE: 19Y07M28
010314  19Y07M28                         A2    C        19:10:41:12 19:10:41:12 01:53:55:24 01:53:55:24 
010314  19Y07M28                         A2    D    002 19:21:29:23 19:21:30:00 01:53:55:24 01:53:56:01 
*FROM CLIP NAME:  76BK3/02 
*TO CLIP NAME:  76BK3/05 
*SOURCE FILE: 19Y07M28
010315  19Y07M28                         A3    C        19:10:41:12 19:10:41:12 01:53:55:24 01:53:55:24 
010315  19Y07M28                         A3    D    002 19:21:29:23 19:21:30:00 01:53:55:24 01:53:56:01 
*FROM CLIP NAME:  76BK3/02 
*TO CLIP NAME:  76BK3/05 
*SOURCE FILE: 19Y07M28
010316  19Y07M28                         A4    C        19:10:41:12 19:10:41:12 01:53:55:24 01:53:55:24 
010316  19Y07M28                         A4    D    002 19:21:29:23 19:21:30:00 01:53:55:24 01:53:56:01 
*FROM CLIP NAME:  76BK3/02 
*TO CLIP NAME:  76BK3/05 
*SOURCE FILE: 19Y07M28
010317  19Y07M28                         A5    C        19:10:41:12 19:10:41:12 01:53:55:24 01:53:55:24 
010317  19Y07M28                         A5    D    002 19:21:29:23 19:21:30:00 01:53:55:24 01:53:56:01 
*FROM CLIP NAME:  76BK3/02 
*TO CLIP NAME:  76BK3/05 
*SOURCE FILE: 19Y07M28
010318  19Y07M28                         A6    C        19:10:41:12 19:10:41:12 01:53:55:24 01:53:55:24 
010318  19Y07M28                         A6    D    002 19:21:29:23 19:21:30:00 01:53:55:24 01:53:56:01 
*FROM CLIP NAME:  76BK3/02 
*TO CLIP NAME:  76BK3/05 
*PATCH 19Y07M28:  FROM SOURCE 7 TO RECORD 6 
*PATCH 19Y07M28:  FROM SOURCE 7 TO RECORD 6 
*SOURCE FILE: 19Y07M28
010319  19Y07M28                         A     C        19:21:30:00 19:21:31:05 01:53:56:01 01:53:57:06 
*FROM CLIP NAME:  76BK3/05 
*SOURCE FILE: 19Y07M28
010320  19Y07M28                         A2    C        19:21:30:00 19:21:31:05 01:53:56:01 01:53:57:06 
*FROM CLIP NAME:  76BK3/05 
*SOURCE FILE: 19Y07M28
010321  19Y07M28                         A3    C        19:21:30:00 19:21:31:05 01:53:56:01 01:53:57:06 
*FROM CLIP NAME:  76BK3/05 
*SOURCE FILE: 19Y07M28
010322  19Y07M28                         A4    C        19:21:30:00 19:21:31:05 01:53:56:01 01:53:57:06 
*FROM CLIP NAME:  76BK3/05 
*SOURCE FILE: 19Y07M28
010323  19Y07M28                         A5    C        19:21:30:00 19:21:31:05 01:53:56:01 01:53:57:06 
*FROM CLIP NAME:  76BK3/05 
*SOURCE FILE: 19Y07M28
010324  19Y07M28                         A6    C        19:21:30:00 19:21:31:05 01:53:56:01 01:53:57:06 
*FROM CLIP NAME:  76BK3/05 
*PATCH 19Y07M28:  FROM SOURCE 7 TO RECORD 6 
*SOURCE FILE: 19Y07M28
010325  19Y07M28                         A6    C        20:02:14:07 20:02:16:07 01:53:57:06 01:53:59:06 
*FROM CLIP NAME:  76BK5/02 
*PATCH 19Y07M28:  FROM SOURCE 7 TO RECORD 6 
*SOURCE FILE: 19Y07M28
010326  19Y07M28                         A     C        20:02:14:07 20:02:16:17 01:53:57:06 01:53:59:16 
*FROM CLIP NAME:  76BK5/02 
*SOURCE FILE: 19Y07M28
010327  19Y07M28                         A2    C        20:02:14:07 20:02:16:17 01:53:57:06 01:53:59:16 
*FROM CLIP NAME:  76BK5/02 
*SOURCE FILE: 19Y07M28
010328  19Y07M28                         A3    C        20:02:14:07 20:02:16:17 01:53:57:06 01:53:59:16 
*FROM CLIP NAME:  76BK5/02 
*SOURCE FILE: 19Y07M28
010329  19Y07M28                         A4    C        20:02:14:07 20:02:16:17 01:53:57:06 01:53:59:16 
*FROM CLIP NAME:  76BK5/02 
*SOURCE FILE: 19Y07M28
010330  19Y07M28                         A5    C        20:02:14:07 20:02:16:17 01:53:57:06 01:53:59:16 
*FROM CLIP NAME:  76BK5/02 
*SOURCE FILE: 19Y07M28
010331  A017C002_190728_R32C             V     C        20:02:14:19 20:02:17:01 01:53:57:17 01:53:59:24 
*FROM CLIP NAME:  A017C002_190728_R32C.NEW.01 
*SOURCE FILE: A017C002_190728_R32C
010332  19Y07M28                         A6    C        19:36:08:15 19:36:11:17 01:53:59:06 01:54:02:08 
*FROM CLIP NAME:  76BK4/02 
*PATCH 19Y07M28:  FROM SOURCE 1 TO RECORD 6 
*SOURCE FILE: 19Y07M28
010333  19Y07M28                         A7    C        19:36:08:15 19:36:11:17 01:53:59:06 01:54:02:08 
*FROM CLIP NAME:  76BK4/02 
*PATCH 19Y07M28:  FROM SOURCE 2 TO RECORD 7 
*SOURCE FILE: 19Y07M28
010334  19Y07M28                         A8    C        19:36:08:15 19:36:11:17 01:53:59:06 01:54:02:08 
*FROM CLIP NAME:  76BK4/02 
*PATCH 19Y07M28:  FROM SOURCE 3 TO RECORD 8 
*SOURCE FILE: 19Y07M28
010335  19Y07M28                         A9    C        19:36:08:15 19:36:11:17 01:53:59:06 01:54:02:08 
*FROM CLIP NAME:  76BK4/02 
*PATCH 19Y07M28:  FROM SOURCE 4 TO RECORD 9 
*SOURCE FILE: 19Y07M28
010336  19Y07M28                         A10   C        19:36:08:15 19:36:11:17 01:53:59:06 01:54:02:08 
*FROM CLIP NAME:  76BK4/02 
*PATCH 19Y07M28:  FROM SOURCE 5 TO RECORD 10 
*SOURCE FILE: 19Y07M28
010337  19Y07M28                         A11   C        19:36:08:15 19:36:11:17 01:53:59:06 01:54:02:08 
*FROM CLIP NAME:  76BK4/02 
*PATCH 19Y07M28:  FROM SOURCE 7 TO RECORD 11 
*SOURCE FILE: 19Y07M28
010338  A016C011_190728_R32C             V     C        19:36:09:09 19:36:11:18 01:53:59:24 01:54:02:08 
*FROM CLIP NAME:  A016C011_190728_R32C.NEW.01 
*SOURCE FILE: A016C011_190728_R32C
010339  A017C003_190728_R32C             V     C        20:06:42:20 20:06:46:04 01:54:02:08 01:54:05:17 
*FROM CLIP NAME:  A017C003_190728_R32C.NEW.01 
*SOURCE FILE: A017C003_190728_R32C
010340  19Y07M28                         A     C        20:06:42:19 20:06:46:16 01:54:02:08 01:54:06:05 
*FROM CLIP NAME:  76BK5/03 
*SOURCE FILE: 19Y07M28
010341  19Y07M28                         A2    C        20:06:42:19 20:06:46:16 01:54:02:08 01:54:06:05 
*FROM CLIP NAME:  76BK5/03 
*SOURCE FILE: 19Y07M28
010342  19Y07M28                         A3    C        20:06:42:19 20:06:46:16 01:54:02:08 01:54:06:05 
*FROM CLIP NAME:  76BK5/03 
*SOURCE FILE: 19Y07M28
010343  19Y07M28                         A4    C        20:06:42:19 20:06:46:16 01:54:02:08 01:54:06:05 
*FROM CLIP NAME:  76BK5/03 
*SOURCE FILE: 19Y07M28
010344  19Y07M28                         A5    C        20:06:42:19 20:06:46:16 01:54:02:08 01:54:06:05 
*FROM CLIP NAME:  76BK5/03 
*SOURCE FILE: 19Y07M28
010345  19Y07M28                         A6    C        20:06:42:19 20:06:46:16 01:54:02:08 01:54:06:05 
*FROM CLIP NAME:  76BK5/03 
*PATCH 19Y07M28:  FROM SOURCE 7 TO RECORD 6 
*SOURCE FILE: 19Y07M28
010346  351863__YLEARKISTO__NOKIKANA-COO A7    C        01:00:26:17 01:00:33:13 01:54:02:08 01:54:09:04 
*FROM CLIP NAME:  351863__YLEARKISTO__NOKIKANA-COOT-CALLING-IN-THE-WATER-SOME-DUCKS-WATER-SOUNDS-FULICA-ALTRA.WAV 
*A7 VOL = -27.0 DB  PAN L100 
*PATCH 351863__YLEARKISTO__NOKIKANA-COO:  FROM SOURCE 2 TO RECORD 7 
*SOURCE FILE: 351863__YLEARKISTO__NOKIKANA-COOT-CALLING-IN-THE-WATER-SOME-DUCKS-WATER-SOUNDS-FULICA-ALTRA.WAV
010347  351863__YLEARKISTO__NOKIKANA-COO A8    C        01:00:26:17 01:00:33:13 01:54:02:08 01:54:09:04 
*FROM CLIP NAME:  351863__YLEARKISTO__NOKIKANA-COOT-CALLING-IN-THE-WATER-SOME-DUCKS-WATER-SOUNDS-FULICA-ALTRA.WAV 
*A8 VOL = -27.0 DB  PAN R100 
*PATCH 351863__YLEARKISTO__NOKIKANA-COO:  FROM SOURCE 1 TO RECORD 8 
*SOURCE FILE: 351863__YLEARKISTO__NOKIKANA-COOT-CALLING-IN-THE-WATER-SOME-DUCKS-WATER-SOUNDS-FULICA-ALTRA.WAV
010348  00620.MP3                        A11   C        01:00:28:02 01:00:52:04 01:54:02:08 01:54:26:10 
*FROM CLIP NAME:  00620.MP3 
*A11 VOL = -21.1 DB  PAN L100 
*PATCH 00620.MP3:  FROM SOURCE 2 TO RECORD 11 
*SOURCE FILE: 00620.MP3
010349  00620.MP3                        A12   C        01:00:28:02 01:00:52:04 01:54:02:08 01:54:26:10 
*FROM CLIP NAME:  00620.MP3 
*A12 VOL = -21.1 DB  PAN R100 
*PATCH 00620.MP3:  FROM SOURCE 1 TO RECORD 12 
*SOURCE FILE: 00620.MP3
010350  A016C006_190728_R32C             V     C        19:11:00:02 19:11:01:18 01:54:05:17 01:54:07:08 
*FROM CLIP NAME:  A016C006_190728_R32C.NEW.01 
*SOURCE FILE: A016C006_190728_R32C
010351  19Y07M28                         A     C        20:06:47:23 20:06:50:22 01:54:06:05 01:54:09:04 
*FROM CLIP NAME:  76BK5/03 
*SOURCE FILE: 19Y07M28
010352  19Y07M28                         A2    C        20:06:47:23 20:06:50:22 01:54:06:05 01:54:09:04 
*FROM CLIP NAME:  76BK5/03 
*SOURCE FILE: 19Y07M28
010353  19Y07M28                         A3    C        20:06:47:23 20:06:50:22 01:54:06:05 01:54:09:04 
*FROM CLIP NAME:  76BK5/03 
*SOURCE FILE: 19Y07M28
010354  19Y07M28                         A4    C        20:06:47:23 20:06:50:22 01:54:06:05 01:54:09:04 
*FROM CLIP NAME:  76BK5/03 
*SOURCE FILE: 19Y07M28
010355  19Y07M28                         A5    C        20:06:47:23 20:06:50:22 01:54:06:05 01:54:09:04 
*FROM CLIP NAME:  76BK5/03 
*SOURCE FILE: 19Y07M28
010356  19Y07M28                         A6    C        20:06:47:23 20:06:50:22 01:54:06:05 01:54:09:04 
*FROM CLIP NAME:  76BK5/03 
*PATCH 19Y07M28:  FROM SOURCE 7 TO RECORD 6 
*SOURCE FILE: 19Y07M28
010357  A017C003_190728_R32C             V     C        20:06:49:02 20:06:50:19 01:54:07:08 01:54:09:00 
*FROM CLIP NAME:  A017C003_190728_R32C.NEW.01 
*SOURCE FILE: A017C003_190728_R32C
010358  19Y07M28                         A9    C        19:21:57:13 19:21:57:15 01:54:08:23 01:54:09:00 
*FROM CLIP NAME:  76BK3/05 
*PATCH 19Y07M28:  FROM SOURCE 1 TO RECORD 9 
*SOURCE FILE: 19Y07M28
010359  19Y07M28                         A10   C        19:21:57:13 19:21:57:15 01:54:08:23 01:54:09:00 
*FROM CLIP NAME:  76BK3/05 
*PATCH 19Y07M28:  FROM SOURCE 4 TO RECORD 10 
*SOURCE FILE: 19Y07M28
010360  A016C011_190728_R32C             V     C        19:36:17:16 19:36:21:09 01:54:09:00 01:54:12:18 
*FROM CLIP NAME:  A016C011_190728_R32C.NEW.01 
*SOURCE FILE: A016C011_190728_R32C
010361  19Y07M28                         A     C        19:36:17:19 19:36:21:05 01:54:09:04 01:54:12:15 
*FROM CLIP NAME:  76BK4/02 
*SOURCE FILE: 19Y07M28
010362  19Y07M28                         A2    C        19:36:17:19 19:36:21:05 01:54:09:04 01:54:12:15 
*FROM CLIP NAME:  76BK4/02 
*SOURCE FILE: 19Y07M28
010363  19Y07M28                         A3    C        19:36:17:19 19:36:21:05 01:54:09:04 01:54:12:15 
*FROM CLIP NAME:  76BK4/02 
*SOURCE FILE: 19Y07M28
010364  19Y07M28                         A4    C        19:36:17:19 19:36:21:05 01:54:09:04 01:54:12:15 
*FROM CLIP NAME:  76BK4/02 
*SOURCE FILE: 19Y07M28
010365  19Y07M28                         A5    C        19:36:17:19 19:36:21:05 01:54:09:04 01:54:12:15 
*FROM CLIP NAME:  76BK4/02 
*SOURCE FILE: 19Y07M28
010366  19Y07M28                         A6    C        19:36:17:19 19:36:21:05 01:54:09:04 01:54:12:15 
*FROM CLIP NAME:  76BK4/02 
*PATCH 19Y07M28:  FROM SOURCE 7 TO RECORD 6 
*SOURCE FILE: 19Y07M28
010367  19Y07M28                         A     C        20:02:38:05 20:02:38:12 01:54:12:15 01:54:12:22 
*FROM CLIP NAME:  76BK5/02 
*SOURCE FILE: 19Y07M28
010368  19Y07M28                         A2    C        20:02:38:05 20:02:38:12 01:54:12:15 01:54:12:22 
*FROM CLIP NAME:  76BK5/02 
*SOURCE FILE: 19Y07M28
010369  19Y07M28                         A3    C        20:02:38:05 20:02:38:12 01:54:12:15 01:54:12:22 
*FROM CLIP NAME:  76BK5/02 
*SOURCE FILE: 19Y07M28
010370  19Y07M28                         A4    C        20:02:38:05 20:02:38:12 01:54:12:15 01:54:12:22 
*FROM CLIP NAME:  76BK5/02 
*SOURCE FILE: 19Y07M28
010371  19Y07M28                         A5    C        20:02:38:05 20:02:38:12 01:54:12:15 01:54:12:22 
*FROM CLIP NAME:  76BK5/02 
*SOURCE FILE: 19Y07M28
010372  19Y07M28                         A6    C        20:02:38:05 20:02:38:12 01:54:12:15 01:54:12:22 
*FROM CLIP NAME:  76BK5/02 
*PATCH 19Y07M28:  FROM SOURCE 7 TO RECORD 6 
*SOURCE FILE: 19Y07M28
010373  A017C005_190728_R32C             V     C        20:35:32:11 20:35:34:10 01:54:12:18 01:54:14:17 
*FROM CLIP NAME:  A017C005_190728_R32C.NEW.01 
*SOURCE FILE: A017C005_190728_R32C
010374  19Y07M28                         A     C        20:42:26:23 20:42:28:18 01:54:12:22 01:54:14:17 
*FROM CLIP NAME:  76BK6/04 
*SOURCE FILE: 19Y07M28
010375  19Y07M28                         A2    C        20:42:26:23 20:42:28:18 01:54:12:22 01:54:14:17 
*FROM CLIP NAME:  76BK6/04 
*SOURCE FILE: 19Y07M28
010376  19Y07M28                         A3    C        20:42:26:23 20:42:28:18 01:54:12:22 01:54:14:17 
*FROM CLIP NAME:  76BK6/04 
*SOURCE FILE: 19Y07M28
010377  19Y07M28                         A4    C        20:42:26:23 20:42:28:18 01:54:12:22 01:54:14:17 
*FROM CLIP NAME:  76BK6/04 
*SOURCE FILE: 19Y07M28
010378  19Y07M28                         A5    C        20:42:26:23 20:42:28:18 01:54:12:22 01:54:14:17 
*FROM CLIP NAME:  76BK6/04 
*SOURCE FILE: 19Y07M28
010379  A016C006_190728_R32C             V     C        19:11:19:00 19:11:26:15 01:54:14:17 01:54:22:07 
*FROM CLIP NAME:  A016C006_190728_R32C.NEW.01 
*SOURCE FILE: A016C006_190728_R32C
010380  19Y07M28                         A     C        19:11:18:24 19:11:26:14 01:54:14:17 01:54:22:07 
*FROM CLIP NAME:  76BK3/02 
*SOURCE FILE: 19Y07M28
010381  19Y07M28                         A2    C        19:11:18:24 19:11:26:14 01:54:14:17 01:54:22:07 
*FROM CLIP NAME:  76BK3/02 
*SOURCE FILE: 19Y07M28
010382  19Y07M28                         A3    C        19:11:18:24 19:11:26:14 01:54:14:17 01:54:22:07 
*FROM CLIP NAME:  76BK3/02 
*SOURCE FILE: 19Y07M28
010383  19Y07M28                         A4    C        19:11:18:24 19:11:26:14 01:54:14:17 01:54:22:07 
*FROM CLIP NAME:  76BK3/02 
*SOURCE FILE: 19Y07M28
010384  19Y07M28                         A5    C        19:11:18:24 19:11:26:14 01:54:14:17 01:54:22:07 
*FROM CLIP NAME:  76BK3/02 
*SOURCE FILE: 19Y07M28
010385  19Y07M28                         A6    C        19:11:18:24 19:11:26:14 01:54:14:17 01:54:22:07 
*FROM CLIP NAME:  76BK3/02 
*PATCH 19Y07M28:  FROM SOURCE 7 TO RECORD 6 
*SOURCE FILE: 19Y07M28
010386  A017C007_190728_R32C             V     C        20:42:34:00 20:42:38:03 01:54:22:07 01:54:26:10 
*FROM CLIP NAME:  A017C007_190728_R32C.NEW.01 
*SOURCE FILE: A017C007_190728_R32C
010387  19Y07M28                         A     C        20:42:33:24 20:42:38:02 01:54:22:07 01:54:26:10 
*FROM CLIP NAME:  76BK6/04 
*SOURCE FILE: 19Y07M28
010388  19Y07M28                         A2    C        20:42:33:24 20:42:38:02 01:54:22:07 01:54:26:10 
*FROM CLIP NAME:  76BK6/04 
*SOURCE FILE: 19Y07M28
010389  19Y07M28                         A3    C        20:42:33:24 20:42:38:02 01:54:22:07 01:54:26:10 
*FROM CLIP NAME:  76BK6/04 
*SOURCE FILE: 19Y07M28
010390  19Y07M28                         A4    C        20:42:33:24 20:42:38:02 01:54:22:07 01:54:26:10 
*FROM CLIP NAME:  76BK6/04 
*SOURCE FILE: 19Y07M28
010391  19Y07M28                         A5    C        20:42:33:24 20:42:38:02 01:54:22:07 01:54:26:10 
*FROM CLIP NAME:  76BK6/04 
*SOURCE FILE: 19Y07M28
010392  19Y07M28                         A     C        20:42:38:02 20:42:38:07 01:54:26:10 01:54:26:15 
*FROM CLIP NAME:  76BK6/04 
*SOURCE FILE: 19Y07M28
010393  19Y07M28                         A2    C        20:42:38:02 20:42:38:07 01:54:26:10 01:54:26:15 
*FROM CLIP NAME:  76BK6/04 
*SOURCE FILE: 19Y07M28
010394  19Y07M28                         A3    C        20:42:38:02 20:42:38:07 01:54:26:10 01:54:26:15 
*FROM CLIP NAME:  76BK6/04 
*SOURCE FILE: 19Y07M28
010395  19Y07M28                         A4    C        20:42:38:02 20:42:38:07 01:54:26:10 01:54:26:15 
*FROM CLIP NAME:  76BK6/04 
*SOURCE FILE: 19Y07M28
010396  19Y07M28                         A5    C        20:42:38:02 20:42:38:07 01:54:26:10 01:54:26:15 
*FROM CLIP NAME:  76BK6/04 
*SOURCE FILE: 19Y07M28
010397  A016C006_190728_R32C             V     C        19:11:29:15 19:11:35:15 01:54:26:10 01:54:32:10 
*FROM CLIP NAME:  A016C006_190728_R32C.NEW.01 
*SOURCE FILE: A016C006_190728_R32C
010398  00620.MP3                        A11   C        01:00:45:22 01:00:56:02 01:54:26:10 01:54:36:15 
*FROM CLIP NAME:  00620.MP3 
*A11 VOL = -21.1 DB  PAN L100 
*PATCH 00620.MP3:  FROM SOURCE 2 TO RECORD 11 
*SOURCE FILE: 00620.MP3
010399  00620.MP3                        A12   C        01:00:45:22 01:00:56:02 01:54:26:10 01:54:36:15 
*FROM CLIP NAME:  00620.MP3 
*A12 VOL = -21.1 DB  PAN R100 
*PATCH 00620.MP3:  FROM SOURCE 1 TO RECORD 12 
*SOURCE FILE: 00620.MP3
010400  19Y07M28                         A     C        20:42:38:07 20:42:38:07 01:54:26:15 01:54:26:15 
010400  19Y07M28                         A     D    002 19:11:29:19 19:11:29:21 01:54:26:15 01:54:26:17 
*FROM CLIP NAME:  76BK6/04 
*TO CLIP NAME:  76BK3/02 
*SOURCE FILE: 19Y07M28
010401  19Y07M28                         A2    C        20:42:38:07 20:42:38:07 01:54:26:15 01:54:26:15 
010401  19Y07M28                         A2    D    002 19:11:29:19 19:11:29:21 01:54:26:15 01:54:26:17 
*FROM CLIP NAME:  76BK6/04 
*TO CLIP NAME:  76BK3/02 
*SOURCE FILE: 19Y07M28
010402  19Y07M28                         A3    C        20:42:38:07 20:42:38:07 01:54:26:15 01:54:26:15 
010402  19Y07M28                         A3    D    002 19:11:29:19 19:11:29:21 01:54:26:15 01:54:26:17 
*FROM CLIP NAME:  76BK6/04 
*TO CLIP NAME:  76BK3/02 
*SOURCE FILE: 19Y07M28
010403  19Y07M28                         A4    C        20:42:38:07 20:42:38:07 01:54:26:15 01:54:26:15 
010403  19Y07M28                         A4    D    002 19:11:29:19 19:11:29:21 01:54:26:15 01:54:26:17 
*FROM CLIP NAME:  76BK6/04 
*TO CLIP NAME:  76BK3/02 
*SOURCE FILE: 19Y07M28
010404  19Y07M28                         A5    C        20:42:38:07 20:42:38:07 01:54:26:15 01:54:26:15 
010404  19Y07M28                         A5    D    002 19:11:29:19 19:11:29:21 01:54:26:15 01:54:26:17 
*FROM CLIP NAME:  76BK6/04 
*TO CLIP NAME:  76BK3/02 
*SOURCE FILE: 19Y07M28
010405  BL                               A6    C        00:00:00:00 00:00:00:00 01:54:26:15 01:54:26:15 
010405  19Y07M28                         A6    D    002 19:11:29:19 19:11:29:21 01:54:26:15 01:54:26:17 
*TO CLIP NAME:  76BK3/02 
*PATCH 19Y07M28:  FROM SOURCE 7 TO RECORD 6 
*SOURCE FILE: (NULL)
010406  19Y07M28                         A     C        19:11:29:21 19:11:34:22 01:54:26:17 01:54:31:18 
*FROM CLIP NAME:  76BK3/02 
*SOURCE FILE: 19Y07M28
010407  19Y07M28                         A2    C        19:11:29:21 19:11:34:22 01:54:26:17 01:54:31:18 
*FROM CLIP NAME:  76BK3/02 
*SOURCE FILE: 19Y07M28
010408  19Y07M28                         A3    C        19:11:29:21 19:11:34:22 01:54:26:17 01:54:31:18 
*FROM CLIP NAME:  76BK3/02 
*SOURCE FILE: 19Y07M28
010409  19Y07M28                         A4    C        19:11:29:21 19:11:34:22 01:54:26:17 01:54:31:18 
*FROM CLIP NAME:  76BK3/02 
*SOURCE FILE: 19Y07M28
010410  19Y07M28                         A5    C        19:11:29:21 19:11:34:22 01:54:26:17 01:54:31:18 
*FROM CLIP NAME:  76BK3/02 
*SOURCE FILE: 19Y07M28
010411  19Y07M28                         A6    C        19:11:29:21 19:11:34:22 01:54:26:17 01:54:31:18 
*FROM CLIP NAME:  76BK3/02 
*PATCH 19Y07M28:  FROM SOURCE 7 TO RECORD 6 
*SOURCE FILE: 19Y07M28
010412  19Y07M28                         A     C        18:53:04:21 18:53:09:17 01:54:31:18 01:54:36:14 
*FROM CLIP NAME:  76BK1/01 
*SOURCE FILE: 19Y07M28
010413  19Y07M28                         A2    C        18:53:04:21 18:53:09:17 01:54:31:18 01:54:36:14 
*FROM CLIP NAME:  76BK1/01 
*SOURCE FILE: 19Y07M28
010414  19Y07M28                         A3    C        18:53:04:21 18:53:09:17 01:54:31:18 01:54:36:14 
*FROM CLIP NAME:  76BK1/01 
*SOURCE FILE: 19Y07M28
010415  19Y07M28                         A4    C        18:53:04:21 18:53:09:17 01:54:31:18 01:54:36:14 
*FROM CLIP NAME:  76BK1/01 
*SOURCE FILE: 19Y07M28
010416  19Y07M28                         A5    C        18:53:04:21 18:53:09:17 01:54:31:18 01:54:36:14 
*FROM CLIP NAME:  76BK1/01 
*SOURCE FILE: 19Y07M28
010417  19Y07M28                         A6    C        18:53:04:21 18:53:09:17 01:54:31:18 01:54:36:14 
*FROM CLIP NAME:  76BK1/01 
*PATCH 19Y07M28:  FROM SOURCE 7 TO RECORD 6 
*SOURCE FILE: 19Y07M28
010418  19Y07M28                         A7    C        18:33:59:22 18:34:04:19 01:54:31:18 01:54:36:15 
*FROM CLIP NAME:  76BKFON/01.SUB.01 
*PATCH 19Y07M28:  FROM SOURCE 1 TO RECORD 7 
*SOURCE FILE: 19Y07M28
010419  19Y07M28                         A8    C        18:33:59:22 18:34:04:19 01:54:31:18 01:54:36:15 
*FROM CLIP NAME:  76BKFON/01.SUB.01 
*PATCH 19Y07M28:  FROM SOURCE 4 TO RECORD 8 
*SOURCE FILE: 19Y07M28
010420  19Y07M28                         A9    C        18:33:59:22 18:34:04:19 01:54:31:18 01:54:36:15 
*FROM CLIP NAME:  76BKFON/01.SUB.01 
*PATCH 19Y07M28:  FROM SOURCE 3 TO RECORD 9 
*SOURCE FILE: 19Y07M28
010421  A016C003_190728_R32C             V     C        18:53:05:14 18:53:09:19 01:54:32:10 01:54:36:15 
*FROM CLIP NAME:  A016C003_190728_R32C.NEW.01 
*SOURCE FILE: A016C003_190728_R32C
010422  19Y07M28                         A     C        18:53:09:17 18:53:09:17 01:54:36:14 01:54:36:14 
010422  19Y07M28                         A     D    002 19:22:23:00 19:22:23:02 01:54:36:14 01:54:36:16 
*FROM CLIP NAME:  76BK1/01 
*TO CLIP NAME:  76BK3/05 
*SOURCE FILE: 19Y07M28
010423  19Y07M28                         A2    C        18:53:09:17 18:53:09:17 01:54:36:14 01:54:36:14 
010423  19Y07M28                         A2    D    002 19:22:23:00 19:22:23:02 01:54:36:14 01:54:36:16 
*FROM CLIP NAME:  76BK1/01 
*TO CLIP NAME:  76BK3/05 
*SOURCE FILE: 19Y07M28
010424  19Y07M28                         A3    C        18:53:09:17 18:53:09:17 01:54:36:14 01:54:36:14 
010424  19Y07M28                         A3    D    002 19:22:23:00 19:22:23:02 01:54:36:14 01:54:36:16 
*FROM CLIP NAME:  76BK1/01 
*TO CLIP NAME:  76BK3/05 
*SOURCE FILE: 19Y07M28
010425  19Y07M28                         A4    C        18:53:09:17 18:53:09:17 01:54:36:14 01:54:36:14 
010425  19Y07M28                         A4    D    002 19:22:23:00 19:22:23:02 01:54:36:14 01:54:36:16 
*FROM CLIP NAME:  76BK1/01 
*TO CLIP NAME:  76BK3/05 
*SOURCE FILE: 19Y07M28
010426  19Y07M28                         A5    C        18:53:09:17 18:53:09:17 01:54:36:14 01:54:36:14 
010426  19Y07M28                         A5    D    002 19:22:23:00 19:22:23:02 01:54:36:14 01:54:36:16 
*FROM CLIP NAME:  76BK1/01 
*TO CLIP NAME:  76BK3/05 
*SOURCE FILE: 19Y07M28
010427  19Y07M28                         A6    C        18:53:09:17 18:53:09:17 01:54:36:14 01:54:36:14 
010427  19Y07M28                         A6    D    002 19:22:23:00 19:22:23:02 01:54:36:14 01:54:36:16 
*FROM CLIP NAME:  76BK1/01 
*TO CLIP NAME:  76BK3/05 
*PATCH 19Y07M28:  FROM SOURCE 7 TO RECORD 6 
*PATCH 19Y07M28:  FROM SOURCE 7 TO RECORD 6 
*SOURCE FILE: 19Y07M28
010428  A016C009_190728_R32C             V     C        19:22:23:02 19:22:27:09 01:54:36:15 01:54:40:22 
*FROM CLIP NAME:  A016C009_190728_R32C.NEW.01 
*SOURCE FILE: A016C009_190728_R32C
010429  00620.MP3                        A11   C        01:00:56:02 01:01:13:15 01:54:36:15 01:54:54:03 
*FROM CLIP NAME:  00620.MP3 
*A11 VOL = -21.1 DB  PAN L100 
*PATCH 00620.MP3:  FROM SOURCE 2 TO RECORD 11 
*SOURCE FILE: 00620.MP3
010430  00620.MP3                        A12   C        01:00:56:02 01:01:13:15 01:54:36:15 01:54:54:03 
*FROM CLIP NAME:  00620.MP3 
*A12 VOL = -21.1 DB  PAN R100 
*PATCH 00620.MP3:  FROM SOURCE 1 TO RECORD 12 
*SOURCE FILE: 00620.MP3
010431  19Y07M28                         A     C        19:22:23:02 19:22:33:15 01:54:36:16 01:54:47:04 
*FROM CLIP NAME:  76BK3/05 
*SOURCE FILE: 19Y07M28
010432  19Y07M28                         A2    C        19:22:23:02 19:22:33:15 01:54:36:16 01:54:47:04 
*FROM CLIP NAME:  76BK3/05 
*SOURCE FILE: 19Y07M28
010433  19Y07M28                         A3    C        19:22:23:02 19:22:33:15 01:54:36:16 01:54:47:04 
*FROM CLIP NAME:  76BK3/05 
*SOURCE FILE: 19Y07M28
010434  19Y07M28                         A4    C        19:22:23:02 19:22:33:15 01:54:36:16 01:54:47:04 
*FROM CLIP NAME:  76BK3/05 
*SOURCE FILE: 19Y07M28
010435  19Y07M28                         A5    C        19:22:23:02 19:22:33:15 01:54:36:16 01:54:47:04 
*FROM CLIP NAME:  76BK3/05 
*SOURCE FILE: 19Y07M28
010436  19Y07M28                         A6    C        19:22:23:02 19:22:33:15 01:54:36:16 01:54:47:04 
*FROM CLIP NAME:  76BK3/05 
*PATCH 19Y07M28:  FROM SOURCE 7 TO RECORD 6 
*SOURCE FILE: 19Y07M28
010437  A017C007_190728_R32C             V     C        20:42:48:21 20:42:51:22 01:54:40:22 01:54:43:23 
*FROM CLIP NAME:  A017C007_190728_R32C.NEW.01 
*SOURCE FILE: A017C007_190728_R32C
010438  A016C009_190728_R32C             V     C        19:22:30:10 19:22:33:01 01:54:43:23 01:54:46:14 
*FROM CLIP NAME:  A016C009_190728_R32C.NEW.01 
*SOURCE FILE: A016C009_190728_R32C
010439  A017C007_190728_R32C             V     C        20:42:53:01 20:42:58:12 01:54:46:14 01:54:52:00 
*FROM CLIP NAME:  A017C007_190728_R32C.NEW.01 
*SOURCE FILE: A017C007_190728_R32C
010440  19Y07M28                         A     C        19:22:33:15 19:22:33:15 01:54:47:04 01:54:47:04 
010440  19Y07M28                         A     D    002 20:42:53:15 20:42:53:17 01:54:47:04 01:54:47:06 
*FROM CLIP NAME:  76BK3/05 
*TO CLIP NAME:  76BK6/04 
*SOURCE FILE: 19Y07M28
010441  19Y07M28                         A2    C        19:22:33:15 19:22:33:15 01:54:47:04 01:54:47:04 
010441  19Y07M28                         A2    D    002 20:42:53:15 20:42:53:17 01:54:47:04 01:54:47:06 
*FROM CLIP NAME:  76BK3/05 
*TO CLIP NAME:  76BK6/04 
*SOURCE FILE: 19Y07M28
010442  19Y07M28                         A3    C        19:22:33:15 19:22:33:15 01:54:47:04 01:54:47:04 
010442  19Y07M28                         A3    D    002 20:42:53:15 20:42:53:17 01:54:47:04 01:54:47:06 
*FROM CLIP NAME:  76BK3/05 
*TO CLIP NAME:  76BK6/04 
*SOURCE FILE: 19Y07M28
010443  19Y07M28                         A4    C        19:22:33:15 19:22:33:15 01:54:47:04 01:54:47:04 
010443  19Y07M28                         A4    D    002 20:42:53:15 20:42:53:17 01:54:47:04 01:54:47:06 
*FROM CLIP NAME:  76BK3/05 
*TO CLIP NAME:  76BK6/04 
*SOURCE FILE: 19Y07M28
010444  19Y07M28                         A5    C        19:22:33:15 19:22:33:15 01:54:47:04 01:54:47:04 
010444  19Y07M28                         A5    D    002 20:42:53:15 20:42:53:17 01:54:47:04 01:54:47:06 
*FROM CLIP NAME:  76BK3/05 
*TO CLIP NAME:  76BK6/04 
*SOURCE FILE: 19Y07M28
010445  19Y07M28                         A6    C        19:22:33:15 19:22:33:15 01:54:47:04 01:54:47:04 
010445  BL                               A6    D    002 00:00:00:00 00:00:00:02 01:54:47:04 01:54:47:06 
*FROM CLIP NAME:  76BK3/05 
*PATCH 19Y07M28:  FROM SOURCE 7 TO RECORD 6 
*SOURCE FILE: 19Y07M28
010446  19Y07M28                         A     C        20:42:53:17 20:42:58:02 01:54:47:06 01:54:51:16 
*FROM CLIP NAME:  76BK6/04 
*SOURCE FILE: 19Y07M28
010447  19Y07M28                         A2    C        20:42:53:17 20:42:58:02 01:54:47:06 01:54:51:16 
*FROM CLIP NAME:  76BK6/04 
*SOURCE FILE: 19Y07M28
010448  19Y07M28                         A3    C        20:42:53:17 20:42:58:02 01:54:47:06 01:54:51:16 
*FROM CLIP NAME:  76BK6/04 
*SOURCE FILE: 19Y07M28
010449  19Y07M28                         A4    C        20:42:53:17 20:42:58:02 01:54:47:06 01:54:51:16 
*FROM CLIP NAME:  76BK6/04 
*SOURCE FILE: 19Y07M28
010450  19Y07M28                         A5    C        20:42:53:17 20:42:58:02 01:54:47:06 01:54:51:16 
*FROM CLIP NAME:  76BK6/04 
*SOURCE FILE: 19Y07M28
010451  19Y07M28                         A     C        20:42:58:02 20:42:58:02 01:54:51:16 01:54:51:16 
010451  19Y07M28                         A     D    002 19:59:22:11 19:59:22:13 01:54:51:16 01:54:51:18 
*FROM CLIP NAME:  76BK6/04 
*TO CLIP NAME:  76BK5/01 
*A1 VOL =  -4.0 DB  PAN R100 
*SOURCE FILE: 19Y07M28
010452  19Y07M28                         A2    C        20:42:58:02 20:42:58:02 01:54:51:16 01:54:51:16 
010452  19Y07M28                         A2    D    002 19:59:22:11 19:59:22:13 01:54:51:16 01:54:51:18 
*FROM CLIP NAME:  76BK6/04 
*TO CLIP NAME:  76BK5/01 
*A2 VOL =  -4.0 DB  PAN L100 
*SOURCE FILE: 19Y07M28
010453  19Y07M28                         A3    C        20:42:58:02 20:42:58:02 01:54:51:16 01:54:51:16 
010453  19Y07M28                         A3    D    002 19:59:22:11 19:59:22:13 01:54:51:16 01:54:51:18 
*FROM CLIP NAME:  76BK6/04 
*TO CLIP NAME:  76BK5/01 
*A3 VOL =  -4.0 DB  PAN R100 
*SOURCE FILE: 19Y07M28
010454  19Y07M28                         A4    C        20:42:58:02 20:42:58:02 01:54:51:16 01:54:51:16 
010454  19Y07M28                         A4    D    002 19:59:22:11 19:59:22:13 01:54:51:16 01:54:51:18 
*FROM CLIP NAME:  76BK6/04 
*TO CLIP NAME:  76BK5/01 
*A4 VOL =  -4.0 DB  PAN L100 
*SOURCE FILE: 19Y07M28
010455  19Y07M28                         A5    C        20:42:58:02 20:42:58:02 01:54:51:16 01:54:51:16 
010455  19Y07M28                         A5    D    002 19:59:22:11 19:59:22:13 01:54:51:16 01:54:51:18 
*FROM CLIP NAME:  76BK6/04 
*TO CLIP NAME:  76BK5/01 
*A5 VOL =  -4.0 DB  PAN R100 
*SOURCE FILE: 19Y07M28
010456  BL                               A6    C        00:00:00:00 00:00:00:00 01:54:51:16 01:54:51:16 
010456  19Y07M28                         A6    D    002 19:59:22:11 19:59:22:13 01:54:51:16 01:54:51:18 
*TO CLIP NAME:  76BK5/01 
*A6 VOL =  -4.0 DB  PAN L100 
*PATCH 19Y07M28:  FROM SOURCE 7 TO RECORD 6 
*SOURCE FILE: (NULL)
010457  19Y07M28                         A     C        19:59:22:13 19:59:24:22 01:54:51:18 01:54:54:02 
*FROM CLIP NAME:  76BK5/01 
*A1 VOL =  -4.0 DB  PAN R100 
*SOURCE FILE: 19Y07M28
010458  19Y07M28                         A2    C        19:59:22:13 19:59:24:22 01:54:51:18 01:54:54:02 
*FROM CLIP NAME:  76BK5/01 
*A2 VOL =  -4.0 DB  PAN L100 
*SOURCE FILE: 19Y07M28
010459  19Y07M28                         A3    C        19:59:22:13 19:59:24:22 01:54:51:18 01:54:54:02 
*FROM CLIP NAME:  76BK5/01 
*A3 VOL =  -4.0 DB  PAN R100 
*SOURCE FILE: 19Y07M28
010460  19Y07M28                         A4    C        19:59:22:13 19:59:24:22 01:54:51:18 01:54:54:02 
*FROM CLIP NAME:  76BK5/01 
*A4 VOL =  -4.0 DB  PAN L100 
*SOURCE FILE: 19Y07M28
010461  19Y07M28                         A5    C        19:59:22:13 19:59:24:22 01:54:51:18 01:54:54:02 
*FROM CLIP NAME:  76BK5/01 
*A5 VOL =  -4.0 DB  PAN R100 
*SOURCE FILE: 19Y07M28
010462  19Y07M28                         A6    C        19:59:22:13 19:59:24:22 01:54:51:18 01:54:54:02 
*FROM CLIP NAME:  76BK5/01 
*A6 VOL =  -4.0 DB  PAN L100 
*PATCH 19Y07M28:  FROM SOURCE 7 TO RECORD 6 
*SOURCE FILE: 19Y07M28
010463  A016C009_190728_R32C             V     C        19:22:38:21 19:22:40:24 01:54:52:00 01:54:54:03 
*FROM CLIP NAME:  A016C009_190728_R32C.NEW.01 
*SOURCE FILE: A016C009_190728_R32C
010464  19Y07M28                         A     C        19:59:24:22 19:59:24:22 01:54:54:02 01:54:54:02 
010464  19Y07M28                         A     D    002 20:43:00:16 20:43:00:18 01:54:54:02 01:54:54:04 
*FROM CLIP NAME:  76BK5/01 
*TO CLIP NAME:  76BK6/04 
*A1 VOL =  -4.0 DB  PAN R100 
*SOURCE FILE: 19Y07M28
010465  19Y07M28                         A2    C        19:59:24:22 19:59:24:22 01:54:54:02 01:54:54:02 
010465  19Y07M28                         A2    D    002 20:43:00:16 20:43:00:18 01:54:54:02 01:54:54:04 
*FROM CLIP NAME:  76BK5/01 
*TO CLIP NAME:  76BK6/04 
*A2 VOL =  -4.0 DB  PAN L100 
*SOURCE FILE: 19Y07M28
010466  19Y07M28                         A3    C        19:59:24:22 19:59:24:22 01:54:54:02 01:54:54:02 
010466  19Y07M28                         A3    D    002 20:43:00:16 20:43:00:18 01:54:54:02 01:54:54:04 
*FROM CLIP NAME:  76BK5/01 
*TO CLIP NAME:  76BK6/04 
*A3 VOL =  -4.0 DB  PAN R100 
*SOURCE FILE: 19Y07M28
010467  19Y07M28                         A4    C        19:59:24:22 19:59:24:22 01:54:54:02 01:54:54:02 
010467  19Y07M28                         A4    D    002 20:43:00:16 20:43:00:18 01:54:54:02 01:54:54:04 
*FROM CLIP NAME:  76BK5/01 
*TO CLIP NAME:  76BK6/04 
*A4 VOL =  -4.0 DB  PAN L100 
*SOURCE FILE: 19Y07M28
010468  19Y07M28                         A5    C        19:59:24:22 19:59:24:22 01:54:54:02 01:54:54:02 
010468  19Y07M28                         A5    D    002 20:43:00:16 20:43:00:18 01:54:54:02 01:54:54:04 
*FROM CLIP NAME:  76BK5/01 
*TO CLIP NAME:  76BK6/04 
*A5 VOL =  -4.0 DB  PAN R100 
*SOURCE FILE: 19Y07M28
010469  19Y07M28                         A6    C        19:59:24:22 19:59:24:22 01:54:54:02 01:54:54:02 
010469  BL                               A6    D    002 00:00:00:00 00:00:00:02 01:54:54:02 01:54:54:04 
*FROM CLIP NAME:  76BK5/01 
*A6 VOL =  -4.0 DB  PAN L100 
*PATCH 19Y07M28:  FROM SOURCE 7 TO RECORD 6 
*SOURCE FILE: 19Y07M28
010470  A017C007_190728_R32C             V     C        20:43:00:18 20:43:03:19 01:54:54:03 01:54:57:04 
*FROM CLIP NAME:  A017C007_190728_R32C.NEW.01 
*SOURCE FILE: A017C007_190728_R32C
010471  00620.MP3                        A11   C        01:01:13:15 01:01:16:16 01:54:54:03 01:54:57:04 
*FROM CLIP NAME:  00620.MP3 
*A11 VOL = -21.1 DB  PAN L100 
*PATCH 00620.MP3:  FROM SOURCE 2 TO RECORD 11 
*SOURCE FILE: 00620.MP3
010472  00620.MP3                        A12   C        01:01:13:15 01:01:16:16 01:54:54:03 01:54:57:04 
*FROM CLIP NAME:  00620.MP3 
*A12 VOL = -21.1 DB  PAN R100 
*PATCH 00620.MP3:  FROM SOURCE 1 TO RECORD 12 
*SOURCE FILE: 00620.MP3
010473  19Y07M28                         A     C        20:43:00:18 20:43:03:17 01:54:54:04 01:54:57:03 
*FROM CLIP NAME:  76BK6/04 
*SOURCE FILE: 19Y07M28
010474  19Y07M28                         A2    C        20:43:00:18 20:43:03:17 01:54:54:04 01:54:57:03 
*FROM CLIP NAME:  76BK6/04 
*SOURCE FILE: 19Y07M28
010475  19Y07M28                         A3    C        20:43:00:18 20:43:03:17 01:54:54:04 01:54:57:03 
*FROM CLIP NAME:  76BK6/04 
*SOURCE FILE: 19Y07M28
010476  19Y07M28                         A4    C        20:43:00:18 20:43:03:17 01:54:54:04 01:54:57:03 
*FROM CLIP NAME:  76BK6/04 
*SOURCE FILE: 19Y07M28
010477  19Y07M28                         A5    C        20:43:00:18 20:43:03:17 01:54:54:04 01:54:57:03 
*FROM CLIP NAME:  76BK6/04 
*SOURCE FILE: 19Y07M28
010478  19Y07M28                         A     C        20:43:03:17 20:43:03:17 01:54:57:03 01:54:57:03 
010478  19Y07M28                         A     D    002 19:22:42:09 19:22:42:11 01:54:57:03 01:54:57:05 
*FROM CLIP NAME:  76BK6/04 
*TO CLIP NAME:  76BK3/05 
*SOURCE FILE: 19Y07M28
010479  19Y07M28                         A2    C        20:43:03:17 20:43:03:17 01:54:57:03 01:54:57:03 
010479  19Y07M28                         A2    D    002 19:22:42:09 19:22:42:11 01:54:57:03 01:54:57:05 
*FROM CLIP NAME:  76BK6/04 
*TO CLIP NAME:  76BK3/05 
*SOURCE FILE: 19Y07M28
010480  19Y07M28                         A3    C        20:43:03:17 20:43:03:17 01:54:57:03 01:54:57:03 
010480  19Y07M28                         A3    D    002 19:22:42:09 19:22:42:11 01:54:57:03 01:54:57:05 
*FROM CLIP NAME:  76BK6/04 
*TO CLIP NAME:  76BK3/05 
*SOURCE FILE: 19Y07M28
010481  19Y07M28                         A4    C        20:43:03:17 20:43:03:17 01:54:57:03 01:54:57:03 
010481  19Y07M28                         A4    D    002 19:22:42:09 19:22:42:11 01:54:57:03 01:54:57:05 
*FROM CLIP NAME:  76BK6/04 
*TO CLIP NAME:  76BK3/05 
*SOURCE FILE: 19Y07M28
010482  19Y07M28                         A5    C        20:43:03:17 20:43:03:17 01:54:57:03 01:54:57:03 
010482  19Y07M28                         A5    D    002 19:22:42:09 19:22:42:11 01:54:57:03 01:54:57:05 
*FROM CLIP NAME:  76BK6/04 
*TO CLIP NAME:  76BK3/05 
*SOURCE FILE: 19Y07M28
010483  BL                               A6    C        00:00:00:00 00:00:00:00 01:54:57:03 01:54:57:03 
010483  19Y07M28                         A6    D    002 19:22:42:09 19:22:42:11 01:54:57:03 01:54:57:05 
*TO CLIP NAME:  76BK3/05 
*PATCH 19Y07M28:  FROM SOURCE 7 TO RECORD 6 
*SOURCE FILE: (NULL)
010484  A016C009_190728_R32C             V     C        19:22:42:11 19:22:46:06 01:54:57:04 01:55:00:24 
*FROM CLIP NAME:  A016C009_190728_R32C.NEW.01 
*SOURCE FILE: A016C009_190728_R32C
010485  00620.MP3                        A11   C        01:01:16:16 01:01:31:23 01:54:57:04 01:55:12:11 
*FROM CLIP NAME:  00620.MP3 
*A11 VOL = -21.1 DB  PAN L100 
*PATCH 00620.MP3:  FROM SOURCE 2 TO RECORD 11 
*SOURCE FILE: 00620.MP3
010486  00620.MP3                        A12   C        01:01:16:16 01:01:31:23 01:54:57:04 01:55:12:11 
*FROM CLIP NAME:  00620.MP3 
*A12 VOL = -21.1 DB  PAN R100 
*PATCH 00620.MP3:  FROM SOURCE 1 TO RECORD 12 
*SOURCE FILE: 00620.MP3
010487  19Y07M28                         A     C        19:22:42:11 19:22:46:04 01:54:57:05 01:55:00:23 
*FROM CLIP NAME:  76BK3/05 
*SOURCE FILE: 19Y07M28
010488  19Y07M28                         A2    C        19:22:42:11 19:22:46:04 01:54:57:05 01:55:00:23 
*FROM CLIP NAME:  76BK3/05 
*SOURCE FILE: 19Y07M28
010489  19Y07M28                         A3    C        19:22:42:11 19:22:46:04 01:54:57:05 01:55:00:23 
*FROM CLIP NAME:  76BK3/05 
*SOURCE FILE: 19Y07M28
010490  19Y07M28                         A4    C        19:22:42:11 19:22:46:04 01:54:57:05 01:55:00:23 
*FROM CLIP NAME:  76BK3/05 
*SOURCE FILE: 19Y07M28
010491  19Y07M28                         A5    C        19:22:42:11 19:22:46:04 01:54:57:05 01:55:00:23 
*FROM CLIP NAME:  76BK3/05 
*SOURCE FILE: 19Y07M28
010492  19Y07M28                         A6    C        19:22:42:11 19:22:46:04 01:54:57:05 01:55:00:23 
*FROM CLIP NAME:  76BK3/05 
*PATCH 19Y07M28:  FROM SOURCE 7 TO RECORD 6 
*SOURCE FILE: 19Y07M28
010493  19Y07M28                         A     C        19:22:46:04 19:22:46:04 01:55:00:23 01:55:00:23 
010493  19Y07M28                         A     D    002 19:12:03:09 19:12:03:11 01:55:00:23 01:55:01:00 
*FROM CLIP NAME:  76BK3/05 
*TO CLIP NAME:  76BK3/02 
*SOURCE FILE: 19Y07M28
010494  19Y07M28                         A2    C        19:22:46:04 19:22:46:04 01:55:00:23 01:55:00:23 
010494  19Y07M28                         A2    D    002 19:12:03:09 19:12:03:11 01:55:00:23 01:55:01:00 
*FROM CLIP NAME:  76BK3/05 
*TO CLIP NAME:  76BK3/02 
*SOURCE FILE: 19Y07M28
010495  19Y07M28                         A3    C        19:22:46:04 19:22:46:04 01:55:00:23 01:55:00:23 
010495  19Y07M28                         A3    D    002 19:12:03:09 19:12:03:11 01:55:00:23 01:55:01:00 
*FROM CLIP NAME:  76BK3/05 
*TO CLIP NAME:  76BK3/02 
*SOURCE FILE: 19Y07M28
010496  19Y07M28                         A4    C        19:22:46:04 19:22:46:04 01:55:00:23 01:55:00:23 
010496  19Y07M28                         A4    D    002 19:12:03:09 19:12:03:11 01:55:00:23 01:55:01:00 
*FROM CLIP NAME:  76BK3/05 
*TO CLIP NAME:  76BK3/02 
*SOURCE FILE: 19Y07M28
010497  19Y07M28                         A5    C        19:22:46:04 19:22:46:04 01:55:00:23 01:55:00:23 
010497  19Y07M28                         A5    D    002 19:12:03:09 19:12:03:11 01:55:00:23 01:55:01:00 
*FROM CLIP NAME:  76BK3/05 
*TO CLIP NAME:  76BK3/02 
*SOURCE FILE: 19Y07M28
010498  19Y07M28                         A6    C        19:22:46:04 19:22:46:04 01:55:00:23 01:55:00:23 
010498  19Y07M28                         A6    D    002 19:12:03:09 19:12:03:11 01:55:00:23 01:55:01:00 
*FROM CLIP NAME:  76BK3/05 
*TO CLIP NAME:  76BK3/02 
*PATCH 19Y07M28:  FROM SOURCE 7 TO RECORD 6 
*PATCH 19Y07M28:  FROM SOURCE 7 TO RECORD 6 
*SOURCE FILE: 19Y07M28
010499  A016C003_190728_R32C             V     C        18:53:35:20 18:53:37:15 01:55:00:24 01:55:02:19 
*FROM CLIP NAME:  A016C003_190728_R32C.NEW.01 
*SOURCE FILE: A016C003_190728_R32C
010500  19Y07M28                         A     C        19:12:03:11 19:12:07:02 01:55:01:00 01:55:04:16 
*FROM CLIP NAME:  76BK3/02 
*SOURCE FILE: 19Y07M28
010501  19Y07M28                         A2    C        19:12:03:11 19:12:07:02 01:55:01:00 01:55:04:16 
*FROM CLIP NAME:  76BK3/02 
*SOURCE FILE: 19Y07M28
010502  19Y07M28                         A3    C        19:12:03:11 19:12:07:02 01:55:01:00 01:55:04:16 
*FROM CLIP NAME:  76BK3/02 
*SOURCE FILE: 19Y07M28
010503  19Y07M28                         A4    C        19:12:03:11 19:12:07:02 01:55:01:00 01:55:04:16 
*FROM CLIP NAME:  76BK3/02 
*SOURCE FILE: 19Y07M28
010504  19Y07M28                         A5    C        19:12:03:11 19:12:07:02 01:55:01:00 01:55:04:16 
*FROM CLIP NAME:  76BK3/02 
*SOURCE FILE: 19Y07M28
010505  19Y07M28                         A6    C        19:12:03:11 19:12:07:02 01:55:01:00 01:55:04:16 
*FROM CLIP NAME:  76BK3/02 
*PATCH 19Y07M28:  FROM SOURCE 7 TO RECORD 6 
*SOURCE FILE: 19Y07M28
010506  A016C006_190728_R32C             V     C        19:12:05:06 19:12:07:03 01:55:02:19 01:55:04:16 
*FROM CLIP NAME:  A016C006_190728_R32C.NEW.01 
*SOURCE FILE: A016C006_190728_R32C
010507  A017C007_190728_R32C             V     C        20:43:10:05 20:43:13:16 01:55:04:16 01:55:08:02 
*FROM CLIP NAME:  A017C007_190728_R32C.NEW.01 
*SOURCE FILE: A017C007_190728_R32C
010508  19Y07M28                         A     C        20:43:10:04 20:43:13:17 01:55:04:16 01:55:08:04 
*FROM CLIP NAME:  76BK6/04 
*SOURCE FILE: 19Y07M28
010509  19Y07M28                         A2    C        20:43:10:04 20:43:13:17 01:55:04:16 01:55:08:04 
*FROM CLIP NAME:  76BK6/04 
*SOURCE FILE: 19Y07M28
010510  19Y07M28                         A3    C        20:43:10:04 20:43:13:17 01:55:04:16 01:55:08:04 
*FROM CLIP NAME:  76BK6/04 
*SOURCE FILE: 19Y07M28
010511  19Y07M28                         A4    C        20:43:10:04 20:43:13:17 01:55:04:16 01:55:08:04 
*FROM CLIP NAME:  76BK6/04 
*SOURCE FILE: 19Y07M28
010512  19Y07M28                         A5    C        20:43:10:04 20:43:13:17 01:55:04:16 01:55:08:04 
*FROM CLIP NAME:  76BK6/04 
*SOURCE FILE: 19Y07M28
010513  A016C009_190728_R32C             V     C        19:22:54:13 19:23:01:16 01:55:08:02 01:55:15:05 
*FROM CLIP NAME:  A016C009_190728_R32C.NEW.01 
*SOURCE FILE: A016C009_190728_R32C
010514  19Y07M28                         A     C        20:43:13:17 20:43:13:17 01:55:08:04 01:55:08:04 
010514  19Y07M28                         A     D    002 19:22:54:14 19:22:54:16 01:55:08:04 01:55:08:06 
*FROM CLIP NAME:  76BK6/04 
*TO CLIP NAME:  76BK3/05 
*SOURCE FILE: 19Y07M28
010515  19Y07M28                         A2    C        20:43:13:17 20:43:13:17 01:55:08:04 01:55:08:04 
010515  19Y07M28                         A2    D    002 19:22:54:14 19:22:54:16 01:55:08:04 01:55:08:06 
*FROM CLIP NAME:  76BK6/04 
*TO CLIP NAME:  76BK3/05 
*SOURCE FILE: 19Y07M28
010516  19Y07M28                         A3    C        20:43:13:17 20:43:13:17 01:55:08:04 01:55:08:04 
010516  19Y07M28                         A3    D    002 19:22:54:14 19:22:54:16 01:55:08:04 01:55:08:06 
*FROM CLIP NAME:  76BK6/04 
*TO CLIP NAME:  76BK3/05 
*SOURCE FILE: 19Y07M28
010517  19Y07M28                         A4    C        20:43:13:17 20:43:13:17 01:55:08:04 01:55:08:04 
010517  19Y07M28                         A4    D    002 19:22:54:14 19:22:54:16 01:55:08:04 01:55:08:06 
*FROM CLIP NAME:  76BK6/04 
*TO CLIP NAME:  76BK3/05 
*SOURCE FILE: 19Y07M28
010518  19Y07M28                         A5    C        20:43:13:17 20:43:13:17 01:55:08:04 01:55:08:04 
010518  19Y07M28                         A5    D    002 19:22:54:14 19:22:54:16 01:55:08:04 01:55:08:06 
*FROM CLIP NAME:  76BK6/04 
*TO CLIP NAME:  76BK3/05 
*SOURCE FILE: 19Y07M28
010519  BL                               A6    C        00:00:00:00 00:00:00:00 01:55:08:04 01:55:08:04 
010519  19Y07M28                         A6    D    002 19:22:54:14 19:22:54:16 01:55:08:04 01:55:08:06 
*TO CLIP NAME:  76BK3/05 
*PATCH 19Y07M28:  FROM SOURCE 7 TO RECORD 6 
*SOURCE FILE: (NULL)
010520  19Y07M28                         A     C        19:22:54:16 19:23:06:15 01:55:08:06 01:55:20:05 
*FROM CLIP NAME:  76BK3/05 
*SOURCE FILE: 19Y07M28
010521  19Y07M28                         A2    C        19:22:54:16 19:23:06:15 01:55:08:06 01:55:20:05 
*FROM CLIP NAME:  76BK3/05 
*SOURCE FILE: 19Y07M28
010522  19Y07M28                         A3    C        19:22:54:16 19:23:06:15 01:55:08:06 01:55:20:05 
*FROM CLIP NAME:  76BK3/05 
*SOURCE FILE: 19Y07M28
010523  19Y07M28                         A4    C        19:22:54:16 19:23:06:15 01:55:08:06 01:55:20:05 
*FROM CLIP NAME:  76BK3/05 
*SOURCE FILE: 19Y07M28
010524  19Y07M28                         A5    C        19:22:54:16 19:23:06:15 01:55:08:06 01:55:20:05 
*FROM CLIP NAME:  76BK3/05 
*SOURCE FILE: 19Y07M28
010525  19Y07M28                         A6    C        19:22:54:16 19:23:06:15 01:55:08:06 01:55:20:05 
*FROM CLIP NAME:  76BK3/05 
*PATCH 19Y07M28:  FROM SOURCE 7 TO RECORD 6 
*SOURCE FILE: 19Y07M28
010526  00620.MP3                        A11   C        01:00:09:14 01:00:19:19 01:55:12:11 01:55:22:16 
*FROM CLIP NAME:  00620.MP3 
*A11 VOL = -21.0 DB  PAN L100 
*PATCH 00620.MP3:  FROM SOURCE 2 TO RECORD 11 
*SOURCE FILE: 00620.MP3
010527  00620.MP3                        A12   C        01:00:09:14 01:00:19:19 01:55:12:11 01:55:22:16 
*FROM CLIP NAME:  00620.MP3 
*A12 VOL = -21.0 DB  PAN R100 
*PATCH 00620.MP3:  FROM SOURCE 1 TO RECORD 12 
*SOURCE FILE: 00620.MP3
010528  A017C007_190728_R32C             V     C        20:43:19:01 20:43:21:05 01:55:15:05 01:55:17:09 
*FROM CLIP NAME:  A017C007_190728_R32C.NEW.01 
*SOURCE FILE: A017C007_190728_R32C
010529  160119__JORICKHOOFD__DROPPING-TI A7    C        01:00:00:00 01:00:01:05 01:55:16:05 01:55:17:10 
*FROM CLIP NAME:  160119__JORICKHOOFD__DROPPING-TINY-PEBBLE-IN-STILL-WATER-SURFACE.WAV 
*A7 VOL =  +9.9 DB  PAN R100 
*PATCH 160119__JORICKHOOFD__DROPPING-TI:  FROM SOURCE 1 TO RECORD 7 
*SOURCE FILE: 160119__JORICKHOOFD__DROPPING-TINY-PEBBLE-IN-STILL-WATER-SURFACE.WAV
010530  160119__JORICKHOOFD__DROPPING-TI A8    C        01:00:00:00 01:00:01:05 01:55:16:05 01:55:17:10 
*FROM CLIP NAME:  160119__JORICKHOOFD__DROPPING-TINY-PEBBLE-IN-STILL-WATER-SURFACE.WAV 
*A8 VOL =  +9.9 DB  PAN L100 
*PATCH 160119__JORICKHOOFD__DROPPING-TI:  FROM SOURCE 2 TO RECORD 8 
*SOURCE FILE: 160119__JORICKHOOFD__DROPPING-TINY-PEBBLE-IN-STILL-WATER-SURFACE.WAV
010531  A016C009_190728_R32C             V     C        19:23:03:20 19:23:06:17 01:55:17:09 01:55:20:06 
*FROM CLIP NAME:  A016C009_190728_R32C.NEW.01 
*SOURCE FILE: A016C009_190728_R32C
010532  19Y07M28                         A     C        19:23:06:15 19:23:06:15 01:55:20:05 01:55:20:05 
010532  19Y07M28                         A     D    002 18:53:54:21 18:53:54:23 01:55:20:05 01:55:20:07 
*FROM CLIP NAME:  76BK3/05 
*TO CLIP NAME:  76BK1/01 
*SOURCE FILE: 19Y07M28
010533  19Y07M28                         A2    C        19:23:06:15 19:23:06:15 01:55:20:05 01:55:20:05 
010533  19Y07M28                         A2    D    002 18:53:54:21 18:53:54:23 01:55:20:05 01:55:20:07 
*FROM CLIP NAME:  76BK3/05 
*TO CLIP NAME:  76BK1/01 
*SOURCE FILE: 19Y07M28
010534  19Y07M28                         A3    C        19:23:06:15 19:23:06:15 01:55:20:05 01:55:20:05 
010534  19Y07M28                         A3    D    002 18:53:54:21 18:53:54:23 01:55:20:05 01:55:20:07 
*FROM CLIP NAME:  76BK3/05 
*TO CLIP NAME:  76BK1/01 
*SOURCE FILE: 19Y07M28
010535  19Y07M28                         A4    C        19:23:06:15 19:23:06:15 01:55:20:05 01:55:20:05 
010535  19Y07M28                         A4    D    002 18:53:54:21 18:53:54:23 01:55:20:05 01:55:20:07 
*FROM CLIP NAME:  76BK3/05 
*TO CLIP NAME:  76BK1/01 
*SOURCE FILE: 19Y07M28
010536  19Y07M28                         A5    C        19:23:06:15 19:23:06:15 01:55:20:05 01:55:20:05 
010536  19Y07M28                         A5    D    002 18:53:54:21 18:53:54:23 01:55:20:05 01:55:20:07 
*FROM CLIP NAME:  76BK3/05 
*TO CLIP NAME:  76BK1/01 
*SOURCE FILE: 19Y07M28
010537  19Y07M28                         A6    C        19:23:06:15 19:23:06:15 01:55:20:05 01:55:20:05 
010537  19Y07M28                         A6    D    002 18:53:54:21 18:53:54:23 01:55:20:05 01:55:20:07 
*FROM CLIP NAME:  76BK3/05 
*TO CLIP NAME:  76BK1/01 
*PATCH 19Y07M28:  FROM SOURCE 7 TO RECORD 6 
*PATCH 19Y07M28:  FROM SOURCE 7 TO RECORD 6 
*SOURCE FILE: 19Y07M28
010538  A016C003_190728_R32C             V     C        18:53:54:23 18:53:57:08 01:55:20:06 01:55:22:16 
*FROM CLIP NAME:  A016C003_190728_R32C.NEW.01 
*SOURCE FILE: A016C003_190728_R32C
010539  19Y07M28                         A     C        18:53:54:23 18:53:59:18 01:55:20:07 01:55:25:02 
*FROM CLIP NAME:  76BK1/01 
*SOURCE FILE: 19Y07M28
010540  19Y07M28                         A2    C        18:53:54:23 18:53:59:18 01:55:20:07 01:55:25:02 
*FROM CLIP NAME:  76BK1/01 
*SOURCE FILE: 19Y07M28
010541  19Y07M28                         A3    C        18:53:54:23 18:53:59:18 01:55:20:07 01:55:25:02 
*FROM CLIP NAME:  76BK1/01 
*SOURCE FILE: 19Y07M28
010542  19Y07M28                         A4    C        18:53:54:23 18:53:59:18 01:55:20:07 01:55:25:02 
*FROM CLIP NAME:  76BK1/01 
*SOURCE FILE: 19Y07M28
010543  19Y07M28                         A5    C        18:53:54:23 18:53:59:18 01:55:20:07 01:55:25:02 
*FROM CLIP NAME:  76BK1/01 
*SOURCE FILE: 19Y07M28
010544  19Y07M28                         A6    C        18:53:54:23 18:53:59:18 01:55:20:07 01:55:25:02 
*FROM CLIP NAME:  76BK1/01 
*PATCH 19Y07M28:  FROM SOURCE 7 TO RECORD 6 
*SOURCE FILE: 19Y07M28
010545  A017C003_190728_R32C             V     C        20:08:14:01 20:08:16:12 01:55:22:16 01:55:25:02 
*FROM CLIP NAME:  A017C003_190728_R32C.NEW.01 
*SOURCE FILE: A017C003_190728_R32C
010546  00620.MP3                        A11   C        01:00:19:00 01:00:21:11 01:55:22:16 01:55:25:02 
*FROM CLIP NAME:  00620.MP3 
*A11 VOL = -21.0 DB  PAN L100 
*PATCH 00620.MP3:  FROM SOURCE 2 TO RECORD 11 
*SOURCE FILE: 00620.MP3
010547  00620.MP3                        A12   C        01:00:19:00 01:00:21:11 01:55:22:16 01:55:25:02 
*FROM CLIP NAME:  00620.MP3 
*A12 VOL = -21.0 DB  PAN R100 
*PATCH 00620.MP3:  FROM SOURCE 1 TO RECORD 12 
*SOURCE FILE: 00620.MP3
010548  02654.MP3                        A3    C        01:00:00:17 01:00:05:13 01:55:25:02 01:55:29:23 
*FROM CLIP NAME:  02654.MP3 
*A3 VOL = -11.3 DB  PAN R100 
*PATCH 02654.MP3:  FROM SOURCE 1 TO RECORD 3 
*SOURCE FILE: 02654.MP3
010549  02654.MP3                        A4    C        01:00:00:17 01:00:05:13 01:55:25:02 01:55:29:23 
*FROM CLIP NAME:  02654.MP3 
*A4 VOL = -11.3 DB  PAN L100 
*PATCH 02654.MP3:  FROM SOURCE 2 TO RECORD 4 
*SOURCE FILE: 02654.MP3
010550  19Y08M12                         A     C        19:02:22:03 19:02:31:08 01:55:25:02 01:55:34:07 
*FROM CLIP NAME:  76BK1/03.SYNC.01 
*SOURCE FILE: 19Y08M12
010551  19Y08M12                         A2    C        19:02:22:03 19:02:31:08 01:55:25:02 01:55:34:07 
*FROM CLIP NAME:  76BK1/03.SYNC.01 
*SOURCE FILE: 19Y08M12
010552  MSMMMOB.30                       V     C        19:02:22:05 19:02:31:11 01:55:25:02 01:55:34:08 
M2      MSMMMOB.30                                025.0 19:02:22:05 
*FROM CLIP NAME:  A067C012_190812_R32C 
*SOURCE FILE: MSMMMOB.30
010553  02654.MP3                        A3    C        01:00:06:11 01:00:10:22 01:55:32:08 01:55:36:19 
*FROM CLIP NAME:  02654.MP3 
*PATCH 02654.MP3:  FROM SOURCE 1 TO RECORD 3 
*SOURCE FILE: 02654.MP3
010554  02654.MP3                        A4    C        01:00:06:11 01:00:10:22 01:55:32:08 01:55:36:19 
*FROM CLIP NAME:  02654.MP3 
*PATCH 02654.MP3:  FROM SOURCE 2 TO RECORD 4 
*SOURCE FILE: 02654.MP3
010555  19Y08M12                         A     C        19:02:31:08 19:02:31:08 01:55:34:07 01:55:34:07 
010555  19Y08M12                         A     D    002 19:20:51:11 19:20:51:13 01:55:34:07 01:55:34:09 
*FROM CLIP NAME:  76BK1/03.SYNC.01 
*TO CLIP NAME:  76BK2/01.SYNC.01 
*SOURCE FILE: 19Y08M12
010556  19Y08M12                         A2    C        19:02:31:08 19:02:31:08 01:55:34:07 01:55:34:07 
010556  19Y08M12                         A2    D    002 19:20:51:11 19:20:51:13 01:55:34:07 01:55:34:09 
*FROM CLIP NAME:  76BK1/03.SYNC.01 
*TO CLIP NAME:  76BK2/01.SYNC.01 
*SOURCE FILE: 19Y08M12
010557  MSMMMOB.05                       V     C        19:20:51:14 19:20:57:15 01:55:34:08 01:55:40:09 
M2      MSMMMOB.05                                025.0 19:20:51:14 
*FROM CLIP NAME:  A068C001_190812_R32C 
*SOURCE FILE: MSMMMOB.05
010558  19Y08M12                         A     C        19:20:51:13 19:20:57:20 01:55:34:09 01:55:40:16 
*FROM CLIP NAME:  76BK2/01.SYNC.01 
*SOURCE FILE: 19Y08M12
010559  19Y08M12                         A2    C        19:20:51:13 19:20:57:20 01:55:34:09 01:55:40:16 
*FROM CLIP NAME:  76BK2/01.SYNC.01 
*SOURCE FILE: 19Y08M12
010560  02654.MP3                        A3    C        01:00:25:06 01:00:28:05 01:55:38:01 01:55:41:00 
*FROM CLIP NAME:  02654.MP3 
*A3 VOL = -12.0 DB  PAN R100 
*PATCH 02654.MP3:  FROM SOURCE 1 TO RECORD 3 
*SOURCE FILE: 02654.MP3
010561  02654.MP3                        A4    C        01:00:25:06 01:00:28:05 01:55:38:01 01:55:41:00 
*FROM CLIP NAME:  02654.MP3 
*A4 VOL = -12.0 DB  PAN L100 
*PATCH 02654.MP3:  FROM SOURCE 2 TO RECORD 4 
*SOURCE FILE: 02654.MP3
010562  ZVUK-VIBRACII-TELEFONA.MP3       A13   C        01:00:00:04 01:00:00:09 01:55:38:11 01:55:38:16 
*FROM CLIP NAME:  ZVUK-VIBRACII-TELEFONA.MP3 
*A13 VOL = -26.0 DB  PAN R100 
*PATCH ZVUK-VIBRACII-TELEFONA.MP3:  FROM SOURCE 1 TO RECORD 13 
*SOURCE FILE: ZVUK-VIBRACII-TELEFONA.MP3
010563  ZVUK-VIBRACII-TELEFONA.MP3       A14   C        01:00:00:04 01:00:00:09 01:55:38:11 01:55:38:16 
*FROM CLIP NAME:  ZVUK-VIBRACII-TELEFONA.MP3 
*A14 VOL = -26.0 DB  PAN L100 
*PATCH ZVUK-VIBRACII-TELEFONA.MP3:  FROM SOURCE 2 TO RECORD 14 
*SOURCE FILE: ZVUK-VIBRACII-TELEFONA.MP3
010564  ZVUK-VIBRACII-TELEFONA.MP3       A13   C        01:00:00:09 01:00:00:09 01:55:38:16 01:55:38:16 
010564  ZVUK-VIBRACII-TELEFONA.MP3       A13   D    002 01:00:01:01 01:00:01:03 01:55:38:16 01:55:38:18 
*FROM CLIP NAME:  ZVUK-VIBRACII-TELEFONA.MP3 
*TO CLIP NAME:  ZVUK-VIBRACII-TELEFONA.MP3 
*A13 VOL = -26.0 DB  PAN R100 
*A13 VOL = -26.0 DB  PAN R100 
*PATCH ZVUK-VIBRACII-TELEFONA.MP3:  FROM SOURCE 1 TO RECORD 13 
*PATCH ZVUK-VIBRACII-TELEFONA.MP3:  FROM SOURCE 1 TO RECORD 13 
*SOURCE FILE: ZVUK-VIBRACII-TELEFONA.MP3
010565  ZVUK-VIBRACII-TELEFONA.MP3       A14   C        01:00:00:09 01:00:00:09 01:55:38:16 01:55:38:16 
010565  ZVUK-VIBRACII-TELEFONA.MP3       A14   D    002 01:00:01:01 01:00:01:03 01:55:38:16 01:55:38:18 
*FROM CLIP NAME:  ZVUK-VIBRACII-TELEFONA.MP3 
*TO CLIP NAME:  ZVUK-VIBRACII-TELEFONA.MP3 
*A14 VOL = -26.0 DB  PAN L100 
*A14 VOL = -26.0 DB  PAN L100 
*PATCH ZVUK-VIBRACII-TELEFONA.MP3:  FROM SOURCE 2 TO RECORD 14 
*PATCH ZVUK-VIBRACII-TELEFONA.MP3:  FROM SOURCE 2 TO RECORD 14 
*SOURCE FILE: ZVUK-VIBRACII-TELEFONA.MP3
010566  ZVUK-VIBRACII-TELEFONA.MP3       A13   C        01:00:01:03 01:00:01:11 01:55:38:18 01:55:39:01 
*FROM CLIP NAME:  ZVUK-VIBRACII-TELEFONA.MP3 
*A13 VOL = -26.0 DB  PAN R100 
*PATCH ZVUK-VIBRACII-TELEFONA.MP3:  FROM SOURCE 1 TO RECORD 13 
*SOURCE FILE: ZVUK-VIBRACII-TELEFONA.MP3
010567  ZVUK-VIBRACII-TELEFONA.MP3       A14   C        01:00:01:03 01:00:01:11 01:55:38:18 01:55:39:01 
*FROM CLIP NAME:  ZVUK-VIBRACII-TELEFONA.MP3 
*A14 VOL = -26.0 DB  PAN L100 
*PATCH ZVUK-VIBRACII-TELEFONA.MP3:  FROM SOURCE 2 TO RECORD 14 
*SOURCE FILE: ZVUK-VIBRACII-TELEFONA.MP3
010568  MSMMMOB.30                       V     C        19:02:37:13 19:02:45:06 01:55:40:09 01:55:48:02 
M2      MSMMMOB.30                                025.0 19:02:37:13 
*FROM CLIP NAME:  A067C012_190812_R32C 
*SOURCE FILE: MSMMMOB.30
010569  19Y08M12                         A     C        19:20:57:20 19:20:57:20 01:55:40:16 01:55:40:16 
010569  19Y08M12                         A     D    002 19:02:37:18 19:02:37:20 01:55:40:16 01:55:40:18 
*FROM CLIP NAME:  76BK2/01.SYNC.01 
*TO CLIP NAME:  76BK1/03.SYNC.01 
*SOURCE FILE: 19Y08M12
010570  19Y08M12                         A2    C        19:20:57:20 19:20:57:20 01:55:40:16 01:55:40:16 
010570  19Y08M12                         A2    D    002 19:02:37:18 19:02:37:20 01:55:40:16 01:55:40:18 
*FROM CLIP NAME:  76BK2/01.SYNC.01 
*TO CLIP NAME:  76BK1/03.SYNC.01 
*SOURCE FILE: 19Y08M12
010571  19Y08M12                         A     C        19:02:37:20 19:02:42:17 01:55:40:18 01:55:45:15 
*FROM CLIP NAME:  76BK1/03.SYNC.01 
*SOURCE FILE: 19Y08M12
010572  19Y08M12                         A2    C        19:02:37:20 19:02:42:17 01:55:40:18 01:55:45:15 
*FROM CLIP NAME:  76BK1/03.SYNC.01 
*SOURCE FILE: 19Y08M12
010574  TITLE.01                         V     C        01:00:17:23 01:00:21:10 01:55:43:06 01:55:46:18 
*FROM CLIP NAME:  TITLE.01 
*SOURCE FILE: TITLE.01
010573  BL                               V     C        00:00:00:00 00:00:03:12 01:55:43:06 01:55:46:18 
*SOURCE FILE: (NULL)
010575  02654.MP3                        A3    C        01:00:06:11 01:00:10:17 01:55:43:15 01:55:47:21 
*FROM CLIP NAME:  02654.MP3 
*A3 VOL = -13.3 DB  PAN R100 
*PATCH 02654.MP3:  FROM SOURCE 1 TO RECORD 3 
*SOURCE FILE: 02654.MP3
010576  02654.MP3                        A4    C        01:00:06:11 01:00:10:17 01:55:43:15 01:55:47:21 
*FROM CLIP NAME:  02654.MP3 
*A4 VOL = -13.3 DB  PAN L100 
*PATCH 02654.MP3:  FROM SOURCE 2 TO RECORD 4 
*SOURCE FILE: 02654.MP3
010577  19Y08M12                         A     C        19:02:42:17 19:02:42:17 01:55:45:15 01:55:45:15 
010577  19Y08M12                         A     D    002 19:21:05:09 19:21:05:11 01:55:45:15 01:55:45:17 
*FROM CLIP NAME:  76BK1/03.SYNC.01 
*TO CLIP NAME:  76BK2/01.SYNC.01 
*SOURCE FILE: 19Y08M12
010578  19Y08M12                         A2    C        19:02:42:17 19:02:42:17 01:55:45:15 01:55:45:15 
010578  19Y08M12                         A2    D    002 19:21:05:09 19:21:05:11 01:55:45:15 01:55:45:17 
*FROM CLIP NAME:  76BK1/03.SYNC.01 
*TO CLIP NAME:  76BK2/01.SYNC.01 
*SOURCE FILE: 19Y08M12
010579  19Y08M12                         A     C        19:21:05:11 19:21:08:00 01:55:45:17 01:55:48:06 
*FROM CLIP NAME:  76BK2/01.SYNC.01 
*SOURCE FILE: 19Y08M12
010580  19Y08M12                         A2    C        19:21:05:11 19:21:08:00 01:55:45:17 01:55:48:06 
*FROM CLIP NAME:  76BK2/01.SYNC.01 
*SOURCE FILE: 19Y08M12
010581  BL                               V     C        00:00:00:00 00:00:46:09 01:55:46:18 01:56:33:02 
*SOURCE FILE: (NULL)
010582  BL                               V     C        00:00:00:00 00:07:11:03 01:55:46:18 02:02:57:21 
*SOURCE FILE: (NULL)
010583  MSMMMOB.05                       V     C        19:21:12:18 19:21:16:04 01:55:48:02 01:55:51:13 
M2      MSMMMOB.05                                025.0 19:21:12:18 
*FROM CLIP NAME:  A068C001_190812_R32C 
*SOURCE FILE: MSMMMOB.05
010584  19Y08M12                         A     C        19:21:08:00 19:21:08:00 01:55:48:06 01:55:48:06 
010584  19Y08M12                         A     D    002 19:21:12:20 19:21:12:22 01:55:48:06 01:55:48:08 
*FROM CLIP NAME:  76BK2/01.SYNC.01 
*TO CLIP NAME:  76BK2/01.SYNC.01 
*SOURCE FILE: 19Y08M12
010585  19Y08M12                         A2    C        19:21:08:00 19:21:08:00 01:55:48:06 01:55:48:06 
010585  19Y08M12                         A2    D    002 19:21:12:20 19:21:12:22 01:55:48:06 01:55:48:08 
*FROM CLIP NAME:  76BK2/01.SYNC.01 
*TO CLIP NAME:  76BK2/01.SYNC.01 
*SOURCE FILE: 19Y08M12
010586  19Y08M12                         A     C        19:21:12:22 19:21:16:07 01:55:48:08 01:55:51:18 
*FROM CLIP NAME:  76BK2/01.SYNC.01 
*SOURCE FILE: 19Y08M12
010587  19Y08M12                         A2    C        19:21:12:22 19:21:16:07 01:55:48:08 01:55:51:18 
*FROM CLIP NAME:  76BK2/01.SYNC.01 
*SOURCE FILE: 19Y08M12
010588  02654.MP3                        A3    C        01:00:25:05 01:00:28:01 01:55:49:05 01:55:52:01 
*FROM CLIP NAME:  02654.MP3 
*A3 VOL = -15.0 DB  PAN R100 
*PATCH 02654.MP3:  FROM SOURCE 1 TO RECORD 3 
*SOURCE FILE: 02654.MP3
010589  02654.MP3                        A4    C        01:00:25:05 01:00:28:01 01:55:49:05 01:55:52:01 
*FROM CLIP NAME:  02654.MP3 
*A4 VOL = -15.0 DB  PAN L100 
*PATCH 02654.MP3:  FROM SOURCE 2 TO RECORD 4 
*SOURCE FILE: 02654.MP3
010590  MSMMMOB.30                       V     C        19:02:53:03 19:02:57:05 01:55:51:13 01:55:55:15 
M2      MSMMMOB.30                                025.0 19:02:53:03 
*FROM CLIP NAME:  A067C012_190812_R32C 
*SOURCE FILE: MSMMMOB.30
010591  19Y08M12                         A     C        19:21:16:07 19:21:16:07 01:55:51:18 01:55:51:18 
010591  19Y08M12                         A     D    002 19:02:53:06 19:02:53:08 01:55:51:18 01:55:51:20 
*FROM CLIP NAME:  76BK2/01.SYNC.01 
*TO CLIP NAME:  76BK1/03.SYNC.01 
*SOURCE FILE: 19Y08M12
010592  19Y08M12                         A2    C        19:21:16:07 19:21:16:07 01:55:51:18 01:55:51:18 
010592  19Y08M12                         A2    D    002 19:02:53:06 19:02:53:08 01:55:51:18 01:55:51:20 
*FROM CLIP NAME:  76BK2/01.SYNC.01 
*TO CLIP NAME:  76BK1/03.SYNC.01 
*SOURCE FILE: 19Y08M12
010593  19Y08M12                         A     C        19:02:53:08 19:02:57:12 01:55:51:20 01:55:55:24 
*FROM CLIP NAME:  76BK1/03.SYNC.01 
*SOURCE FILE: 19Y08M12
010594  19Y08M12                         A2    C        19:02:53:08 19:02:57:12 01:55:51:20 01:55:55:24 
*FROM CLIP NAME:  76BK1/03.SYNC.01 
*SOURCE FILE: 19Y08M12
010595  02654.MP3                        A3    C        01:00:24:24 01:00:27:17 01:55:54:17 01:55:57:10 
*FROM CLIP NAME:  02654.MP3 
*A3 VOL = -12.0 DB  PAN R100 
*PATCH 02654.MP3:  FROM SOURCE 1 TO RECORD 3 
*SOURCE FILE: 02654.MP3
010596  02654.MP3                        A4    C        01:00:24:24 01:00:27:17 01:55:54:17 01:55:57:10 
*FROM CLIP NAME:  02654.MP3 
*A4 VOL = -12.0 DB  PAN L100 
*PATCH 02654.MP3:  FROM SOURCE 2 TO RECORD 4 
*SOURCE FILE: 02654.MP3
010597  MSMMMOB.05                       V     C        19:21:26:09 19:21:31:12 01:55:55:15 01:56:00:18 
M2      MSMMMOB.05                                025.0 19:21:26:09 
*FROM CLIP NAME:  A068C001_190812_R32C 
*SOURCE FILE: MSMMMOB.05
010598  19Y08M12                         A     C        19:02:57:12 19:02:57:12 01:55:55:24 01:55:55:24 
010598  19Y08M12                         A     D    002 19:21:26:16 19:21:26:18 01:55:55:24 01:55:56:01 
*FROM CLIP NAME:  76BK1/03.SYNC.01 
*TO CLIP NAME:  76BK2/01.SYNC.01 
*SOURCE FILE: 19Y08M12
010599  19Y08M12                         A2    C        19:02:57:12 19:02:57:12 01:55:55:24 01:55:55:24 
010599  19Y08M12                         A2    D    002 19:21:26:16 19:21:26:18 01:55:55:24 01:55:56:01 
*FROM CLIP NAME:  76BK1/03.SYNC.01 
*TO CLIP NAME:  76BK2/01.SYNC.01 
*SOURCE FILE: 19Y08M12
010600  19Y08M12                         A     C        19:21:26:18 19:21:31:10 01:55:56:01 01:56:00:18 
*FROM CLIP NAME:  76BK2/01.SYNC.01 
*SOURCE FILE: 19Y08M12
010601  19Y08M12                         A2    C        19:21:26:18 19:21:31:10 01:55:56:01 01:56:00:18 
*FROM CLIP NAME:  76BK2/01.SYNC.01 
*SOURCE FILE: 19Y08M12
010602  19Y08M12                         A     C        18:53:18:12 18:53:20:07 01:56:00:18 01:56:02:13 
*FROM CLIP NAME:  76BK1/01.SYNC.01 
*SOURCE FILE: 19Y08M12
010603  19Y08M12                         A2    C        18:53:18:12 18:53:20:07 01:56:00:18 01:56:02:13 
*FROM CLIP NAME:  76BK1/01.SYNC.01 
*SOURCE FILE: 19Y08M12
010604  MSMMMOB.01                       V     C        18:53:18:13 18:53:20:18 01:56:00:18 01:56:02:23 
M2      MSMMMOB.01                                025.0 18:53:18:13 
*FROM CLIP NAME:  A067C010_190812_R32C 
*SOURCE FILE: MSMMMOB.01
010605  19Y08M12                         A     C        19:27:50:08 19:27:57:01 01:56:02:13 01:56:09:06 
*FROM CLIP NAME:  76BK3/01.SYNC.01 
*SOURCE FILE: 19Y08M12
010606  19Y08M12                         A2    C        19:27:50:08 19:27:57:01 01:56:02:13 01:56:09:06 
*FROM CLIP NAME:  76BK3/01.SYNC.01 
*SOURCE FILE: 19Y08M12
010607  02654.MP3                        A3    C        01:00:06:11 01:00:10:22 01:56:02:21 01:56:07:07 
*FROM CLIP NAME:  02654.MP3 
*A3 VOL = -14.0 DB  PAN R100 
*PATCH 02654.MP3:  FROM SOURCE 1 TO RECORD 3 
*SOURCE FILE: 02654.MP3
010608  02654.MP3                        A4    C        01:00:06:11 01:00:10:22 01:56:02:21 01:56:07:07 
*FROM CLIP NAME:  02654.MP3 
*A4 VOL = -14.0 DB  PAN L100 
*PATCH 02654.MP3:  FROM SOURCE 2 TO RECORD 4 
*SOURCE FILE: 02654.MP3
010609  MSMMMOB.43                       V     C        19:27:50:19 19:27:57:02 01:56:02:23 01:56:09:06 
M2      MSMMMOB.43                                025.0 19:27:50:19 
*FROM CLIP NAME:  A068C002_190812_R32C 
*SOURCE FILE: MSMMMOB.43
010610  19Y08M01                         A12   C        21:46:46:21 21:46:49:11 01:56:09:06 01:56:11:21 
*FROM CLIP NAME:  GUR_76/01 
*A12 VOL = -14.3 DB  PAN L100 
*PATCH 19Y08M01:  FROM SOURCE 4 TO RECORD 12 
*SOURCE FILE: 19Y08M01
010611  19Y08M01                         A13   C        21:46:46:21 21:46:49:11 01:56:09:06 01:56:11:21 
*FROM CLIP NAME:  GUR_76/01 
*A13 VOL = -14.3 DB  PAN R100 
*PATCH 19Y08M01:  FROM SOURCE 1 TO RECORD 13 
*SOURCE FILE: 19Y08M01
010612  19Y08M01                         A14   C        21:46:46:21 21:46:49:11 01:56:09:06 01:56:11:21 
*FROM CLIP NAME:  GUR_76/01 
*A14 VOL = -12.5 DB  PAN L100 
*PATCH 19Y08M01:  FROM SOURCE 3 TO RECORD 14 
*SOURCE FILE: 19Y08M01
010613  MSMMMOB.08                       V     C        19:55:25:11 19:55:37:14 01:56:09:06 01:56:21:09 
M2      MSMMMOB.08                                025.0 19:55:25:11 
*FROM CLIP NAME:  A027C012_190801_R32C 
*SOURCE FILE: MSMMMOB.08
010614  19Y08M01                         A     C        19:55:25:11 19:55:37:18 01:56:09:06 01:56:21:13 
*FROM CLIP NAME:  76AK1/05 
*SOURCE FILE: 19Y08M01
010615  19Y08M01                         A2    C        19:55:25:11 19:55:37:18 01:56:09:06 01:56:21:13 
*FROM CLIP NAME:  76AK1/05 
*SOURCE FILE: 19Y08M01
010616  19Y08M01                         A3    C        19:55:25:11 19:55:37:18 01:56:09:06 01:56:21:13 
*FROM CLIP NAME:  76AK1/05 
*SOURCE FILE: 19Y08M01
010617  19Y08M01                         A4    C        19:55:25:11 19:55:37:18 01:56:09:06 01:56:21:13 
*FROM CLIP NAME:  76AK1/05 
*SOURCE FILE: 19Y08M01
010618  19Y08M01                         A5    C        19:55:25:11 19:55:37:18 01:56:09:06 01:56:21:13 
*FROM CLIP NAME:  76AK1/05 
*SOURCE FILE: 19Y08M01
010619  19Y08M01                         A6    C        19:55:25:11 19:55:37:18 01:56:09:06 01:56:21:13 
*FROM CLIP NAME:  76AK1/05 
*SOURCE FILE: 19Y08M01
010620  19Y08M01                         A7    C        19:55:25:11 19:55:37:18 01:56:09:06 01:56:21:13 
*FROM CLIP NAME:  76AK1/05 
*SOURCE FILE: 19Y08M01
010621  KARAYLOVA_?OVER.MP3              A20   C        01:00:55:14 01:01:21:20 01:56:09:06 01:56:35:12 
*, D-VERB 
*FROM CLIP NAME:  KARAYLOVA_?OVER.MP3 
*A20 VOL =  -3.0 DB  PAN L100 
*PATCH KARAYLOVA_?OVER.MP3:  FROM SOURCE 2 TO RECORD 20 
*SOURCE FILE: KARAYLOVA_?OVER.MP3
010622  KARAYLOVA_?OVER.MP3              A21   C        01:00:55:14 01:01:21:20 01:56:09:06 01:56:35:12 
*, D-VERB 
*FROM CLIP NAME:  KARAYLOVA_?OVER.MP3 
*A21 VOL =  -3.0 DB  PAN R100 
*PATCH KARAYLOVA_?OVER.MP3:  FROM SOURCE 1 TO RECORD 21 
*SOURCE FILE: KARAYLOVA_?OVER.MP3
010623  19Y08M01                         A11   C        21:46:10:05 21:46:19:22 01:56:11:21 01:56:21:13 
*FROM CLIP NAME:  GUR_76/01 
*A11 VOL = -10.7 DB  PAN R100 
*PATCH 19Y08M01:  FROM SOURCE 4 TO RECORD 11 
*SOURCE FILE: 19Y08M01
010624  19Y08M01                         A12   C        21:46:10:05 21:46:19:22 01:56:11:21 01:56:21:13 
*FROM CLIP NAME:  GUR_76/01 
*A12 VOL = -10.7 DB  PAN L100 
*PATCH 19Y08M01:  FROM SOURCE 1 TO RECORD 12 
*SOURCE FILE: 19Y08M01
010625  19Y08M01                         A13   C        21:46:10:05 21:46:19:22 01:56:11:21 01:56:21:13 
*FROM CLIP NAME:  GUR_76/01 
*A13 VOL = -10.7 DB  PAN R100 
*PATCH 19Y08M01:  FROM SOURCE 3 TO RECORD 13 
*SOURCE FILE: 19Y08M01
010626  19Y08M01                         A8    C        21:48:18:05 21:48:22:11 01:56:17:18 01:56:21:24 
*FROM CLIP NAME:  GUR_76/01 
*PATCH 19Y08M01:  FROM SOURCE 4 TO RECORD 8 
*SOURCE FILE: 19Y08M01
010627  19Y08M01                         A9    C        21:48:18:05 21:48:22:11 01:56:17:18 01:56:21:24 
*FROM CLIP NAME:  GUR_76/01 
*PATCH 19Y08M01:  FROM SOURCE 1 TO RECORD 9 
*SOURCE FILE: 19Y08M01
010628  19Y08M01                         A10   C        21:48:18:05 21:48:22:11 01:56:17:18 01:56:21:24 
*FROM CLIP NAME:  GUR_76/01 
*PATCH 19Y08M01:  FROM SOURCE 3 TO RECORD 10 
*SOURCE FILE: 19Y08M01
010629  MSMMMOB.69                       A14   C        20:20:26:12 20:20:28:02 01:56:20:18 01:56:22:08 
*FROM CLIP NAME:  A027C016_190801_R32C 
*PATCH MSMMMOB.69:  FROM SOURCE 2 TO RECORD 14 
*SOURCE FILE: MSMMMOB.69
010630  MSMMMOB.69                       A15   C        20:20:26:12 20:20:28:02 01:56:20:18 01:56:22:08 
*FROM CLIP NAME:  A027C016_190801_R32C 
*PATCH MSMMMOB.69:  FROM SOURCE 1 TO RECORD 15 
*SOURCE FILE: MSMMMOB.69
010631  MSMMMOB.15                       V     C        20:23:25:19 20:23:28:03 01:56:21:09 01:56:23:18 
M2      MSMMMOB.15                                025.0 20:23:25:19 
*FROM CLIP NAME:  A027C017_190801_R32C 
*SOURCE FILE: MSMMMOB.15
010632  19Y08M01                         A     C        20:23:25:23 20:23:27:09 01:56:21:13 01:56:22:24 
*FROM CLIP NAME:  76AK3/02 
*SOURCE FILE: 19Y08M01
010633  19Y08M01                         A2    C        20:23:25:23 20:23:27:09 01:56:21:13 01:56:22:24 
*FROM CLIP NAME:  76AK3/02 
*SOURCE FILE: 19Y08M01
010634  19Y08M01                         A3    C        20:23:25:23 20:23:27:09 01:56:21:13 01:56:22:24 
*FROM CLIP NAME:  76AK3/02 
*SOURCE FILE: 19Y08M01
010635  19Y08M01                         A4    C        20:23:25:23 20:23:27:09 01:56:21:13 01:56:22:24 
*FROM CLIP NAME:  76AK3/02 
*SOURCE FILE: 19Y08M01
010636  19Y08M01                         A5    C        20:23:25:23 20:23:27:09 01:56:21:13 01:56:22:24 
*FROM CLIP NAME:  76AK3/02 
*SOURCE FILE: 19Y08M01
010637  19Y08M01                         A6    C        20:23:25:23 20:23:27:09 01:56:21:13 01:56:22:24 
*FROM CLIP NAME:  76AK3/02 
*PATCH 19Y08M01:  FROM SOURCE 9 TO RECORD 6 
*SOURCE FILE: 19Y08M01
010638  19Y08M01                         A     C        19:55:37:19 19:55:40:21 01:56:22:24 01:56:26:01 
*FROM CLIP NAME:  76AK1/05 
*SOURCE FILE: 19Y08M01
010639  19Y08M01                         A2    C        19:55:37:19 19:55:40:21 01:56:22:24 01:56:26:01 
*FROM CLIP NAME:  76AK1/05 
*SOURCE FILE: 19Y08M01
010640  19Y08M01                         A3    C        19:55:37:19 19:55:40:21 01:56:22:24 01:56:26:01 
*FROM CLIP NAME:  76AK1/05 
*SOURCE FILE: 19Y08M01
010641  19Y08M01                         A4    C        19:55:37:19 19:55:40:21 01:56:22:24 01:56:26:01 
*FROM CLIP NAME:  76AK1/05 
*SOURCE FILE: 19Y08M01
010642  19Y08M01                         A5    C        19:55:37:19 19:55:40:21 01:56:22:24 01:56:26:01 
*FROM CLIP NAME:  76AK1/05 
*SOURCE FILE: 19Y08M01
010643  19Y08M01                         A6    C        19:55:37:19 19:55:40:21 01:56:22:24 01:56:26:01 
*FROM CLIP NAME:  76AK1/05 
*SOURCE FILE: 19Y08M01
010644  19Y08M01                         A7    C        19:55:37:19 19:55:40:21 01:56:22:24 01:56:26:01 
*FROM CLIP NAME:  76AK1/05 
*SOURCE FILE: 19Y08M01
010645  MSMMMOB.08                       V     C        19:55:38:13 19:55:40:21 01:56:23:18 01:56:26:01 
M2      MSMMMOB.08                                025.0 19:55:38:13 
*FROM CLIP NAME:  A027C012_190801_R32C 
*SOURCE FILE: MSMMMOB.08
010646  19Y08M01                         A     C        19:55:40:16 19:55:41:15 01:56:26:01 01:56:27:00 
*FROM CLIP NAME:  76AK1/05 
*SOURCE FILE: 19Y08M01
010647  19Y08M01                         A2    C        19:55:40:16 19:55:41:15 01:56:26:01 01:56:27:00 
*FROM CLIP NAME:  76AK1/05 
*SOURCE FILE: 19Y08M01
010648  19Y08M01                         A3    C        19:55:40:16 19:55:41:15 01:56:26:01 01:56:27:00 
*FROM CLIP NAME:  76AK1/05 
*SOURCE FILE: 19Y08M01
010649  19Y08M01                         A4    C        19:55:40:16 19:55:41:15 01:56:26:01 01:56:27:00 
*FROM CLIP NAME:  76AK1/05 
*SOURCE FILE: 19Y08M01
010650  19Y08M01                         A5    C        19:55:40:16 19:55:41:15 01:56:26:01 01:56:27:00 
*FROM CLIP NAME:  76AK1/05 
*SOURCE FILE: 19Y08M01
010651  19Y08M01                         A6    C        19:55:40:16 19:55:41:15 01:56:26:01 01:56:27:00 
*FROM CLIP NAME:  76AK1/05 
*SOURCE FILE: 19Y08M01
010652  19Y08M01                         A7    C        19:55:40:16 19:55:41:15 01:56:26:01 01:56:27:00 
*FROM CLIP NAME:  76AK1/05 
*SOURCE FILE: 19Y08M01
010653  MSMMMOB.15                       V     C        20:23:29:14 20:23:31:07 01:56:26:01 01:56:27:19 
M2      MSMMMOB.15                                025.0 20:23:29:14 
*FROM CLIP NAME:  A027C017_190801_R32C 
*SOURCE FILE: MSMMMOB.15
010654  19Y08M01                         A     C        19:55:40:16 19:55:41:10 01:56:27:00 01:56:27:19 
*FROM CLIP NAME:  76AK1/05 
*SOURCE FILE: 19Y08M01
010655  19Y08M01                         A2    C        19:55:40:16 19:55:41:10 01:56:27:00 01:56:27:19 
*FROM CLIP NAME:  76AK1/05 
*SOURCE FILE: 19Y08M01
010656  19Y08M01                         A3    C        19:55:40:16 19:55:41:10 01:56:27:00 01:56:27:19 
*FROM CLIP NAME:  76AK1/05 
*SOURCE FILE: 19Y08M01
010657  19Y08M01                         A4    C        19:55:40:16 19:55:41:10 01:56:27:00 01:56:27:19 
*FROM CLIP NAME:  76AK1/05 
*SOURCE FILE: 19Y08M01
010658  19Y08M01                         A5    C        19:55:40:16 19:55:41:10 01:56:27:00 01:56:27:19 
*FROM CLIP NAME:  76AK1/05 
*SOURCE FILE: 19Y08M01
010659  19Y08M01                         A6    C        19:55:40:16 19:55:41:10 01:56:27:00 01:56:27:19 
*FROM CLIP NAME:  76AK1/05 
*SOURCE FILE: 19Y08M01
010660  19Y08M01                         A7    C        19:55:40:16 19:55:41:10 01:56:27:00 01:56:27:19 
*FROM CLIP NAME:  76AK1/05 
*SOURCE FILE: 19Y08M01
010661  19Y08M01                         A     C        20:09:56:07 20:09:58:08 01:56:27:19 01:56:29:20 
*FROM CLIP NAME:  76AK2/03 
*SOURCE FILE: 19Y08M01
010662  19Y08M01                         A2    C        20:09:56:07 20:09:58:08 01:56:27:19 01:56:29:20 
*FROM CLIP NAME:  76AK2/03 
*SOURCE FILE: 19Y08M01
010663  19Y08M01                         A3    C        20:09:56:07 20:09:58:08 01:56:27:19 01:56:29:20 
*FROM CLIP NAME:  76AK2/03 
*SOURCE FILE: 19Y08M01
010664  19Y08M01                         A4    C        20:09:56:07 20:09:58:08 01:56:27:19 01:56:29:20 
*FROM CLIP NAME:  76AK2/03 
*SOURCE FILE: 19Y08M01
010665  19Y08M01                         A5    C        20:09:56:07 20:09:58:08 01:56:27:19 01:56:29:20 
*FROM CLIP NAME:  76AK2/03 
*SOURCE FILE: 19Y08M01
010666  19Y08M01                         A6    C        20:09:56:07 20:09:58:08 01:56:27:19 01:56:29:20 
*FROM CLIP NAME:  76AK2/03 
*SOURCE FILE: 19Y08M01
010667  19Y08M01                         A7    C        20:09:56:07 20:09:58:08 01:56:27:19 01:56:29:20 
*FROM CLIP NAME:  76AK2/03 
*SOURCE FILE: 19Y08M01
010668  MSMMMOB.44                       V     C        20:09:56:07 20:10:04:00 01:56:27:19 01:56:35:12 
M2      MSMMMOB.44                                025.0 20:09:56:07 
*FROM CLIP NAME:  A027C015_190801_R32C 
*SOURCE FILE: MSMMMOB.44
010669  MSMMMOB.69                       A8    C        20:20:26:12 20:20:28:02 01:56:28:21 01:56:30:11 
*FROM CLIP NAME:  A027C016_190801_R32C 
*A8 VOL =  -0.6 DB  PAN L100 
*PATCH MSMMMOB.69:  FROM SOURCE 2 TO RECORD 8 
*SOURCE FILE: MSMMMOB.69
010670  MSMMMOB.69                       A9    C        20:20:26:12 20:20:28:02 01:56:28:21 01:56:30:11 
*FROM CLIP NAME:  A027C016_190801_R32C 
*A9 VOL =  -0.6 DB  PAN R100 
*PATCH MSMMMOB.69:  FROM SOURCE 1 TO RECORD 9 
*SOURCE FILE: MSMMMOB.69
010671  19Y08M01                         A12   C        21:46:19:21 21:46:26:12 01:56:28:21 01:56:35:12 
*FROM CLIP NAME:  GUR_76/01 
*PATCH 19Y08M01:  FROM SOURCE 4 TO RECORD 12 
*SOURCE FILE: 19Y08M01
010672  19Y08M01                         A13   C        21:46:19:21 21:46:26:12 01:56:28:21 01:56:35:12 
*FROM CLIP NAME:  GUR_76/01 
*PATCH 19Y08M01:  FROM SOURCE 1 TO RECORD 13 
*SOURCE FILE: 19Y08M01
010673  19Y08M01                         A14   C        21:46:19:21 21:46:26:12 01:56:28:21 01:56:35:12 
*FROM CLIP NAME:  GUR_76/01 
*PATCH 19Y08M01:  FROM SOURCE 3 TO RECORD 14 
*SOURCE FILE: 19Y08M01
010674  19Y08M01                         A     C        19:55:44:08 19:55:45:17 01:56:29:20 01:56:31:04 
*FROM CLIP NAME:  76AK1/05 
*SOURCE FILE: 19Y08M01
010675  19Y08M01                         A2    C        19:55:44:08 19:55:45:17 01:56:29:20 01:56:31:04 
*FROM CLIP NAME:  76AK1/05 
*SOURCE FILE: 19Y08M01
010676  19Y08M01                         A3    C        19:55:44:08 19:55:45:17 01:56:29:20 01:56:31:04 
*FROM CLIP NAME:  76AK1/05 
*SOURCE FILE: 19Y08M01
010677  19Y08M01                         A4    C        19:55:44:08 19:55:45:17 01:56:29:20 01:56:31:04 
*FROM CLIP NAME:  76AK1/05 
*SOURCE FILE: 19Y08M01
010678  19Y08M01                         A5    C        19:55:44:08 19:55:45:17 01:56:29:20 01:56:31:04 
*FROM CLIP NAME:  76AK1/05 
*SOURCE FILE: 19Y08M01
010679  19Y08M01                         A6    C        19:55:44:08 19:55:45:17 01:56:29:20 01:56:31:04 
*FROM CLIP NAME:  76AK1/05 
*SOURCE FILE: 19Y08M01
010680  19Y08M01                         A7    C        19:55:44:08 19:55:45:17 01:56:29:20 01:56:31:04 
*FROM CLIP NAME:  76AK1/05 
*SOURCE FILE: 19Y08M01
010681  19Y08M01                         A     C        20:09:59:17 20:10:01:16 01:56:31:04 01:56:33:03 
*FROM CLIP NAME:  76AK2/03 
*SOURCE FILE: 19Y08M01
010682  19Y08M01                         A2    C        20:09:59:17 20:10:01:16 01:56:31:04 01:56:33:03 
*FROM CLIP NAME:  76AK2/03 
*SOURCE FILE: 19Y08M01
010683  19Y08M01                         A3    C        20:09:59:17 20:10:01:16 01:56:31:04 01:56:33:03 
*FROM CLIP NAME:  76AK2/03 
*SOURCE FILE: 19Y08M01
010684  19Y08M01                         A4    C        20:09:59:17 20:10:01:16 01:56:31:04 01:56:33:03 
*FROM CLIP NAME:  76AK2/03 
*SOURCE FILE: 19Y08M01
010685  19Y08M01                         A5    C        20:09:59:17 20:10:01:16 01:56:31:04 01:56:33:03 
*FROM CLIP NAME:  76AK2/03 
*SOURCE FILE: 19Y08M01
010686  19Y08M01                         A6    C        20:09:59:17 20:10:01:16 01:56:31:04 01:56:33:03 
*FROM CLIP NAME:  76AK2/03 
*SOURCE FILE: 19Y08M01
010687  19Y08M01                         A7    C        20:09:59:17 20:10:01:16 01:56:31:04 01:56:33:03 
*FROM CLIP NAME:  76AK2/03 
*SOURCE FILE: 19Y08M01
010688  BL                               V     C        00:00:00:00 00:00:01:01 01:56:33:02 01:56:34:03 
*SOURCE FILE: (NULL)
010689  19Y08M01                         A     C        20:10:02:16 20:10:04:00 01:56:34:03 01:56:35:12 
*FROM CLIP NAME:  76AK2/03 
*SOURCE FILE: 19Y08M01
010690  19Y08M01                         A2    C        20:10:02:16 20:10:04:00 01:56:34:03 01:56:35:12 
*FROM CLIP NAME:  76AK2/03 
*SOURCE FILE: 19Y08M01
010691  19Y08M01                         A3    C        20:10:02:16 20:10:04:00 01:56:34:03 01:56:35:12 
*FROM CLIP NAME:  76AK2/03 
*SOURCE FILE: 19Y08M01
010692  19Y08M01                         A4    C        20:10:02:16 20:10:04:00 01:56:34:03 01:56:35:12 
*FROM CLIP NAME:  76AK2/03 
*SOURCE FILE: 19Y08M01
010693  19Y08M01                         A5    C        20:10:02:16 20:10:04:00 01:56:34:03 01:56:35:12 
*FROM CLIP NAME:  76AK2/03 
*SOURCE FILE: 19Y08M01
010694  19Y08M01                         A6    C        20:10:02:16 20:10:04:00 01:56:34:03 01:56:35:12 
*FROM CLIP NAME:  76AK2/03 
*SOURCE FILE: 19Y08M01
010695  19Y08M01                         A7    C        20:10:02:16 20:10:04:00 01:56:34:03 01:56:35:12 
*FROM CLIP NAME:  76AK2/03 
*SOURCE FILE: 19Y08M01
010696  BL                               V     C        00:00:00:00 00:03:40:11 01:56:34:03 02:00:14:14 
*SOURCE FILE: (NULL)
010697  MSMMMOB.65                       V     C        21:30:18:08 21:30:49:22 01:56:35:12 01:57:07:01 
M2      MSMMMOB.65                                025.0 21:30:18:08 
*FROM CLIP NAME:  A028C006_190801_R32C 
*SOURCE FILE: MSMMMOB.65
010698  19Y08M01                         A     C        21:30:18:08 21:30:49:22 01:56:35:12 01:57:07:01 
*FROM CLIP NAME:  76DK5/03 
*SOURCE FILE: 19Y08M01
010699  19Y08M01                         A2    C        21:30:18:08 21:30:49:22 01:56:35:12 01:57:07:01 
*FROM CLIP NAME:  76DK5/03 
*SOURCE FILE: 19Y08M01
010700  19Y08M01                         A3    C        21:30:18:08 21:30:49:22 01:56:35:12 01:57:07:01 
*FROM CLIP NAME:  76DK5/03 
*SOURCE FILE: 19Y08M01
010701  19Y08M01                         A4    C        21:30:18:08 21:30:49:22 01:56:35:12 01:57:07:01 
*FROM CLIP NAME:  76DK5/03 
*SOURCE FILE: 19Y08M01
010702  MSMMMOB.65                       A5    C        21:30:18:08 21:30:49:22 01:56:35:12 01:57:07:01 
*FROM CLIP NAME:  A028C006_190801_R32C 
*SOURCE FILE: MSMMMOB.65
010703  19Y08M01                         A6    C        21:30:18:08 21:30:49:22 01:56:35:12 01:57:07:01 
*FROM CLIP NAME:  76DK5/03 
*SOURCE FILE: 19Y08M01
010704  19Y08M01                         A7    C        21:30:18:08 21:30:49:22 01:56:35:12 01:57:07:01 
*FROM CLIP NAME:  76DK5/03 
*SOURCE FILE: 19Y08M01
010705  KARAYLOVA_?OVER.MP3              A20   C        01:01:21:20 01:01:53:09 01:56:35:12 01:57:07:01 
*, D-VERB 
*FROM CLIP NAME:  KARAYLOVA_?OVER.MP3 
*A20 VOL =  +4.0 DB  PAN L100 
*PATCH KARAYLOVA_?OVER.MP3:  FROM SOURCE 2 TO RECORD 20 
*SOURCE FILE: KARAYLOVA_?OVER.MP3
010706  KARAYLOVA_?OVER.MP3              A21   C        01:01:21:20 01:01:53:09 01:56:35:12 01:57:07:01 
*, D-VERB 
*FROM CLIP NAME:  KARAYLOVA_?OVER.MP3 
*A21 VOL =  +4.0 DB  PAN R100 
*PATCH KARAYLOVA_?OVER.MP3:  FROM SOURCE 1 TO RECORD 21 
*SOURCE FILE: KARAYLOVA_?OVER.MP3
010707  CINEMASCOPE_2-35-1_CROPLINES.PNG V     C        01:00:00:00 01:00:40:04 01:56:35:12 01:57:15:16 
*FROM CLIP NAME:  CINEMASCOPE 2-35-1 CROPLINES.PNG 
*SOURCE FILE: CINEMASCOPE 2-35-1 CROPLINES.PNG
010708  BL                               V     C        00:00:00:00 00:03:09:22 01:56:35:12 01:59:45:09 
*SOURCE FILE: (NULL)
010709  RINGTON_-_STANDARTNYJJ_ZVONOK_NA A8    C        01:00:00:00 01:00:06:20 01:56:42:03 01:56:48:23 
*FROM CLIP NAME:  RINGTON_-_STANDARTNYJJ_ZVONOK_NA_IPHONE_7_RINGTON(UZIMUSIC.RU).MP3 
*A8 VOL = -18.0 DB  PAN L100 
*PATCH RINGTON_-_STANDARTNYJJ_ZVONOK_NA:  FROM SOURCE 1 TO RECORD 8 
*SOURCE FILE: RINGTON_-_STANDARTNYJJ_ZVONOK_NA_IPHONE_7_RINGTON(UZIMUSIC.RU).MP3
010710  RINGTON_-_STANDARTNYJJ_ZVONOK_NA A9    C        01:00:00:00 01:00:06:20 01:56:42:03 01:56:48:23 
*FROM CLIP NAME:  RINGTON_-_STANDARTNYJJ_ZVONOK_NA_IPHONE_7_RINGTON(UZIMUSIC.RU).MP3 
*A9 VOL = -18.0 DB  PAN R100 
*PATCH RINGTON_-_STANDARTNYJJ_ZVONOK_NA:  FROM SOURCE 2 TO RECORD 9 
*SOURCE FILE: RINGTON_-_STANDARTNYJJ_ZVONOK_NA_IPHONE_7_RINGTON(UZIMUSIC.RU).MP3
010711  BL                               V     C        00:00:00:00 00:00:03:20 01:56:45:14 01:56:49:09 
*SOURCE FILE: (NULL)
010712  BL                               V     C        00:00:00:00 00:00:10:16 01:56:49:09 01:57:00:00 
*SOURCE FILE: (NULL)
010713  DIN-IPHONE.MP3                   A8    C        01:00:00:00 01:00:04:12 01:56:56:10 01:57:00:22 
*FROM CLIP NAME:  DIN-IPHONE.MP3 
*PATCH DIN-IPHONE.MP3:  FROM SOURCE 2 TO RECORD 8 
*SOURCE FILE: DIN-IPHONE.MP3
010714  DIN-IPHONE.MP3                   A9    C        01:00:00:00 01:00:04:12 01:56:56:10 01:57:00:22 
*FROM CLIP NAME:  DIN-IPHONE.MP3 
*PATCH DIN-IPHONE.MP3:  FROM SOURCE 1 TO RECORD 9 
*SOURCE FILE: DIN-IPHONE.MP3
010715  TITLE.01                         V     C        01:00:43:06 01:00:45:05 01:57:00:00 01:57:01:24 
*FROM CLIP NAME:  TITLE.01 
*SOURCE FILE: TITLE.01
010716  BL                               V     C        00:00:00:00 00:00:03:20 01:57:00:00 01:57:03:20 
*SOURCE FILE: (NULL)
010717  BL                               V     C        00:00:00:00 00:00:16:12 01:57:01:24 01:57:18:11 
*SOURCE FILE: (NULL)
010718  BL                               V     C        00:00:00:00 00:30:10:06 01:57:03:20 02:27:14:01 
*SOURCE FILE: (NULL)
010719  19Y08M01                         A     C        22:13:49:09 22:13:54:14 01:57:07:01 01:57:12:06 
*FROM CLIP NAME:  77K1/03 
*SOURCE FILE: 19Y08M01
010720  19Y08M01                         A2    C        22:13:49:09 22:13:54:14 01:57:07:01 01:57:12:06 
*FROM CLIP NAME:  77K1/03 
*SOURCE FILE: 19Y08M01
010721  19Y08M01                         A3    C        22:13:49:09 22:13:54:14 01:57:07:01 01:57:12:06 
*FROM CLIP NAME:  77K1/03 
*SOURCE FILE: 19Y08M01
010722  19Y08M01                         A4    C        22:13:49:09 22:13:54:14 01:57:07:01 01:57:12:06 
*FROM CLIP NAME:  77K1/03 
*SOURCE FILE: 19Y08M01
010723  MSMMMOB.19                       A5    C        22:13:49:09 22:13:54:14 01:57:07:01 01:57:12:06 
*FROM CLIP NAME:  A028C010_190801_R32C 
*SOURCE FILE: MSMMMOB.19
010724  19Y08M01                         A6    C        22:13:49:09 22:13:54:14 01:57:07:01 01:57:12:06 
*FROM CLIP NAME:  77K1/03 
*SOURCE FILE: 19Y08M01
010725  MSMMMOB.19                       V     C        22:13:49:09 22:13:57:24 01:57:07:01 01:57:15:16 
M2      MSMMMOB.19                                025.0 22:13:49:09 
*FROM CLIP NAME:  A028C010_190801_R32C 
*SOURCE FILE: MSMMMOB.19
010726  KARAYLOVA_?OVER.MP3              A20   C        01:01:53:09 01:02:01:24 01:57:07:01 01:57:15:16 
*FROM CLIP NAME:  KARAYLOVA_?OVER.MP3 
*A20 VOL = -18.6 DB  PAN L100 
*EQ BAND 1 (LO SHELF) FREQ: 50.0 HZ  GAIN:  +5.9 DB  Q: 1410 
*EQ BAND 2 (PRESENCE) FREQ: 15.0  KHZ  GAIN: -18.5 DB  Q:  670 
*EQ BAND 3 (HI SHELF) FREQ: 15.0  KHZ  GAIN: -19.0 DB  Q: 1410 
*PATCH KARAYLOVA_?OVER.MP3:  FROM SOURCE 2 TO RECORD 20 
*SOURCE FILE: KARAYLOVA_?OVER.MP3
010727  KARAYLOVA_?OVER.MP3              A21   C        01:01:53:09 01:02:01:24 01:57:07:01 01:57:15:16 
*FROM CLIP NAME:  KARAYLOVA_?OVER.MP3 
*A21 VOL = -18.6 DB  PAN R100 
*EQ BAND 1 (LO SHELF) FREQ: 50.0 HZ  GAIN:  +5.9 DB  Q: 1410 
*EQ BAND 2 (PRESENCE) FREQ: 15.0  KHZ  GAIN: -18.5 DB  Q:  670 
*EQ BAND 3 (HI SHELF) FREQ: 15.0  KHZ  GAIN: -19.0 DB  Q: 1410 
*PATCH KARAYLOVA_?OVER.MP3:  FROM SOURCE 1 TO RECORD 21 
*SOURCE FILE: KARAYLOVA_?OVER.MP3
010728  19Y08M01                         A     C        22:13:55:05 22:13:58:15 01:57:12:06 01:57:15:16 
*FROM CLIP NAME:  77K1/03 
*SOURCE FILE: 19Y08M01
010729  19Y08M01                         A2    C        22:13:55:05 22:13:58:15 01:57:12:06 01:57:15:16 
*FROM CLIP NAME:  77K1/03 
*SOURCE FILE: 19Y08M01
010730  19Y08M01                         A3    C        22:13:55:05 22:13:58:15 01:57:12:06 01:57:15:16 
*FROM CLIP NAME:  77K1/03 
*SOURCE FILE: 19Y08M01
010731  19Y08M01                         A4    C        22:13:55:05 22:13:58:15 01:57:12:06 01:57:15:16 
*FROM CLIP NAME:  77K1/03 
*SOURCE FILE: 19Y08M01
010732  MSMMMOB.19                       A5    C        22:13:55:05 22:13:58:15 01:57:12:06 01:57:15:16 
*FROM CLIP NAME:  A028C010_190801_R32C 
*SOURCE FILE: MSMMMOB.19
010733  19Y08M01                         A6    C        22:13:55:05 22:13:58:15 01:57:12:06 01:57:15:16 
*FROM CLIP NAME:  77K1/03 
*SOURCE FILE: 19Y08M01
010734  MSMMMOB.51                       A8    C        19:08:10:12 19:08:11:11 01:57:12:21 01:57:13:20 
*FROM CLIP NAME:  A062C008_190809_R32C 
*PATCH MSMMMOB.51:  FROM SOURCE 2 TO RECORD 8 
*SOURCE FILE: MSMMMOB.51
010735  19Y08M09                         A9    C        19:08:10:12 19:08:11:11 01:57:12:21 01:57:13:20 
*FROM CLIP NAME:  77AK1/02.SYNC.01 
*PATCH 19Y08M09:  FROM SOURCE 1 TO RECORD 9 
*SOURCE FILE: 19Y08M09
010736  MSMMMOB.51                       A10   C        19:08:10:12 19:08:11:11 01:57:12:21 01:57:13:20 
*FROM CLIP NAME:  A062C008_190809_R32C 
*PATCH MSMMMOB.51:  FROM SOURCE 4 TO RECORD 10 
*SOURCE FILE: MSMMMOB.51
010737  19Y08M09                         A11   C        19:08:10:12 19:08:11:11 01:57:12:21 01:57:13:20 
*FROM CLIP NAME:  77AK1/02.SYNC.01 
*PATCH 19Y08M09:  FROM SOURCE 3 TO RECORD 11 
*SOURCE FILE: 19Y08M09
010738  MSMMMOB.51                       A12   C        19:08:10:12 19:08:11:11 01:57:12:21 01:57:13:20 
*FROM CLIP NAME:  A062C008_190809_R32C 
*PATCH MSMMMOB.51:  FROM SOURCE 5 TO RECORD 12 
*SOURCE FILE: MSMMMOB.51
010739  MSMMMOB.43                       V     C        15:20:48:14 15:20:53:19 01:57:15:16 01:57:20:21 
M2      MSMMMOB.43                                025.0 15:20:48:14 
*FROM CLIP NAME:  A002C015_191124_R481 
*SOURCE FILE: MSMMMOB.43
010740  19Y11M24                         A     C        15:20:48:14 15:20:53:19 01:57:15:16 01:57:20:21 
*FROM CLIP NAME:  01-03-1/05 
*A1 VOL = -11.0 DB  PAN R100 
*SOURCE FILE: 19Y11M24
010741  19Y11M24                         A2    C        15:20:48:14 15:20:53:19 01:57:15:16 01:57:20:21 
*FROM CLIP NAME:  01-03-1/05 
*A2 VOL = -11.0 DB  PAN L100 
*SOURCE FILE: 19Y11M24
010742  19Y11M24                         A3    C        15:20:48:14 15:20:53:19 01:57:15:16 01:57:20:21 
*FROM CLIP NAME:  01-03-1/05 
*A3 VOL = -11.0 DB  PAN R100 
*SOURCE FILE: 19Y11M24
010743  CINEMASCOPE_2-35-1_CROPLINES.PNG V     C        01:00:46:12 01:00:54:05 01:57:15:16 01:57:23:09 
*FROM CLIP NAME:  CINEMASCOPE 2-35-1 CROPLINES.PNG 
*SOURCE FILE: CINEMASCOPE 2-35-1 CROPLINES.PNG
010744  BL                               V     C        00:00:00:00 00:00:02:10 01:57:18:11 01:57:20:21 
*SOURCE FILE: (NULL)
010745  MSMMMOB.01                       V     C        22:30:12:19 22:30:15:07 01:57:20:21 01:57:23:09 
M2      MSMMMOB.01                                025.0 22:30:12:19 
*FROM CLIP NAME:  A028C013_190801_R32C 
*SOURCE FILE: MSMMMOB.01
010746  19Y08M01                         A     C        22:30:36:19 22:30:39:07 01:57:20:21 01:57:23:09 
*FROM CLIP NAME:  77K2/03 
*SOURCE FILE: 19Y08M01
010747  19Y08M01                         A2    C        22:30:36:19 22:30:39:07 01:57:20:21 01:57:23:09 
*FROM CLIP NAME:  77K2/03 
*SOURCE FILE: 19Y08M01
010748  19Y08M01                         A3    C        22:30:36:19 22:30:39:07 01:57:20:21 01:57:23:09 
*FROM CLIP NAME:  77K2/03 
*SOURCE FILE: 19Y08M01
010749  19Y08M01                         A4    C        22:30:36:19 22:30:39:07 01:57:20:21 01:57:23:09 
*FROM CLIP NAME:  77K2/03 
*SOURCE FILE: 19Y08M01
010750  MSMMMOB.01                       A5    C        22:30:36:19 22:30:39:07 01:57:20:21 01:57:23:09 
*FROM CLIP NAME:  A028C013_190801_R32C 
*SOURCE FILE: MSMMMOB.01
010751  19Y08M01                         A6    C        22:30:36:19 22:30:39:07 01:57:20:21 01:57:23:09 
*FROM CLIP NAME:  77K2/03 
*SOURCE FILE: 19Y08M01
010752  19Y11M24                         A7    C        15:20:55:21 15:20:58:09 01:57:20:21 01:57:23:09 
*FROM CLIP NAME:  01-03-1/05 
*A7 VOL = -17.1 DB  PAN R100 
*PATCH 19Y11M24:  FROM SOURCE 1 TO RECORD 7 
*SOURCE FILE: 19Y11M24
010753  19Y11M24                         A8    C        15:20:55:21 15:20:58:09 01:57:20:21 01:57:23:09 
*FROM CLIP NAME:  01-03-1/05 
*A8 VOL = -17.1 DB  PAN L100 
*PATCH 19Y11M24:  FROM SOURCE 2 TO RECORD 8 
*SOURCE FILE: 19Y11M24
010754  19Y11M24                         A9    C        15:20:55:21 15:20:58:09 01:57:20:21 01:57:23:09 
*FROM CLIP NAME:  01-03-1/05 
*A9 VOL = -17.1 DB  PAN R100 
*PATCH 19Y11M24:  FROM SOURCE 3 TO RECORD 9 
*SOURCE FILE: 19Y11M24
010755  KARAYLOVA_?OVER.MP3              A20   C        01:02:07:04 01:02:09:17 01:57:20:21 01:57:23:09 
*FROM CLIP NAME:  KARAYLOVA_?OVER.MP3 
*A20 VOL = -18.6 DB  PAN L100 
*EQ BAND 1 (LO SHELF) FREQ: 50.0 HZ  GAIN:  +5.9 DB  Q: 1410 
*EQ BAND 2 (PRESENCE) FREQ: 15.0  KHZ  GAIN: -18.5 DB  Q:  670 
*EQ BAND 3 (HI SHELF) FREQ: 15.0  KHZ  GAIN: -19.0 DB  Q: 1410 
*PATCH KARAYLOVA_?OVER.MP3:  FROM SOURCE 2 TO RECORD 20 
*SOURCE FILE: KARAYLOVA_?OVER.MP3
010756  KARAYLOVA_?OVER.MP3              A21   C        01:02:07:04 01:02:09:17 01:57:20:21 01:57:23:09 
*FROM CLIP NAME:  KARAYLOVA_?OVER.MP3 
*A21 VOL = -18.6 DB  PAN R100 
*EQ BAND 1 (LO SHELF) FREQ: 50.0 HZ  GAIN:  +5.9 DB  Q: 1410 
*EQ BAND 2 (PRESENCE) FREQ: 15.0  KHZ  GAIN: -18.5 DB  Q:  670 
*EQ BAND 3 (HI SHELF) FREQ: 15.0  KHZ  GAIN: -19.0 DB  Q: 1410 
*PATCH KARAYLOVA_?OVER.MP3:  FROM SOURCE 1 TO RECORD 21 
*SOURCE FILE: KARAYLOVA_?OVER.MP3
010757  BL                               V     C        00:00:00:00 00:00:11:07 01:57:20:21 01:57:32:03 
*SOURCE FILE: (NULL)
010758  MSMMMOB.43                       V     C        15:20:59:00 15:21:03:08 01:57:23:09 01:57:27:17 
M2      MSMMMOB.43                                025.0 15:20:59:00 
*FROM CLIP NAME:  A002C015_191124_R481 
*SOURCE FILE: MSMMMOB.43
010759  CINEMASCOPE_2-35-1_CROPLINES.PNG V     C        01:00:55:10 01:00:59:18 01:57:23:09 01:57:27:17 
*FROM CLIP NAME:  CINEMASCOPE 2-35-1 CROPLINES.PNG 
*SOURCE FILE: CINEMASCOPE 2-35-1 CROPLINES.PNG
010760  19Y11M24                         A     C        15:20:59:00 15:21:03:08 01:57:23:09 01:57:27:17 
*FROM CLIP NAME:  01-03-1/05 
*A1 VOL = -14.0 DB  PAN R100 
*SOURCE FILE: 19Y11M24
010761  19Y11M24                         A2    C        15:20:59:00 15:21:03:08 01:57:23:09 01:57:27:17 
*FROM CLIP NAME:  01-03-1/05 
*A2 VOL = -14.0 DB  PAN L100 
*SOURCE FILE: 19Y11M24
010762  19Y11M24                         A3    C        15:20:59:00 15:21:03:08 01:57:23:09 01:57:27:17 
*FROM CLIP NAME:  01-03-1/05 
*A3 VOL = -14.0 DB  PAN R100 
*SOURCE FILE: 19Y11M24
010763  19Y08M01                         A     C        22:30:16:11 22:30:16:15 01:57:27:17 01:57:27:21 
*FROM CLIP NAME:  77K2/03 
*SOURCE FILE: 19Y08M01
010764  19Y08M01                         A2    C        22:30:16:11 22:30:16:15 01:57:27:17 01:57:27:21 
*FROM CLIP NAME:  77K2/03 
*SOURCE FILE: 19Y08M01
010765  19Y08M01                         A3    C        22:30:16:11 22:30:16:15 01:57:27:17 01:57:27:21 
*FROM CLIP NAME:  77K2/03 
*SOURCE FILE: 19Y08M01
010766  19Y08M01                         A4    C        22:30:16:11 22:30:16:15 01:57:27:17 01:57:27:21 
*FROM CLIP NAME:  77K2/03 
*SOURCE FILE: 19Y08M01
010767  MSMMMOB.01                       A5    C        22:30:16:11 22:30:16:15 01:57:27:17 01:57:27:21 
*FROM CLIP NAME:  A028C013_190801_R32C 
*SOURCE FILE: MSMMMOB.01
010768  19Y08M01                         A6    C        22:30:16:11 22:30:16:15 01:57:27:17 01:57:27:21 
*FROM CLIP NAME:  77K2/03 
*SOURCE FILE: 19Y08M01
010769  MSMMMOB.01                       V     C        22:30:16:11 22:30:19:08 01:57:27:17 01:57:30:14 
M2      MSMMMOB.01                                025.0 22:30:16:11 
*FROM CLIP NAME:  A028C013_190801_R32C 
*SOURCE FILE: MSMMMOB.01
010770  KARAYLOVA_?OVER.MP3              A20   C        01:02:14:00 01:02:16:22 01:57:27:17 01:57:30:14 
*FROM CLIP NAME:  KARAYLOVA_?OVER.MP3 
*A20 VOL = -18.6 DB  PAN L100 
*EQ BAND 1 (LO SHELF) FREQ: 50.0 HZ  GAIN:  +5.9 DB  Q: 1410 
*EQ BAND 2 (PRESENCE) FREQ: 15.0  KHZ  GAIN: -18.5 DB  Q:  670 
*EQ BAND 3 (HI SHELF) FREQ: 15.0  KHZ  GAIN: -19.0 DB  Q: 1410 
*PATCH KARAYLOVA_?OVER.MP3:  FROM SOURCE 2 TO RECORD 20 
*SOURCE FILE: KARAYLOVA_?OVER.MP3
010771  KARAYLOVA_?OVER.MP3              A21   C        01:02:14:00 01:02:16:22 01:57:27:17 01:57:30:14 
*FROM CLIP NAME:  KARAYLOVA_?OVER.MP3 
*A21 VOL = -18.6 DB  PAN R100 
*EQ BAND 1 (LO SHELF) FREQ: 50.0 HZ  GAIN:  +5.9 DB  Q: 1410 
*EQ BAND 2 (PRESENCE) FREQ: 15.0  KHZ  GAIN: -18.5 DB  Q:  670 
*EQ BAND 3 (HI SHELF) FREQ: 15.0  KHZ  GAIN: -19.0 DB  Q: 1410 
*PATCH KARAYLOVA_?OVER.MP3:  FROM SOURCE 1 TO RECORD 21 
*SOURCE FILE: KARAYLOVA_?OVER.MP3
010772  CINEMASCOPE_2-35-1_CROPLINES.PNG V     C        01:01:00:08 01:01:06:06 01:57:27:17 01:57:33:15 
*FROM CLIP NAME:  CINEMASCOPE 2-35-1 CROPLINES.PNG 
*SOURCE FILE: CINEMASCOPE 2-35-1 CROPLINES.PNG
010773  19Y08M01                         A     C        22:25:25:03 22:25:27:21 01:57:27:21 01:57:30:14 
*FROM CLIP NAME:  77K2/01 
*SOURCE FILE: 19Y08M01
010774  19Y08M01                         A2    C        22:25:25:03 22:25:27:21 01:57:27:21 01:57:30:14 
*FROM CLIP NAME:  77K2/01 
*SOURCE FILE: 19Y08M01
010775  19Y08M01                         A3    C        22:25:25:03 22:25:27:21 01:57:27:21 01:57:30:14 
*FROM CLIP NAME:  77K2/01 
*SOURCE FILE: 19Y08M01
010776  19Y08M01                         A4    C        22:25:25:03 22:25:27:21 01:57:27:21 01:57:30:14 
*FROM CLIP NAME:  77K2/01 
*SOURCE FILE: 19Y08M01
010777  MSMMMOB.36                       A5    C        22:25:25:03 22:25:27:21 01:57:27:21 01:57:30:14 
*FROM CLIP NAME:  A028C011_190801_R32C 
*SOURCE FILE: MSMMMOB.36
010778  19Y08M01                         A6    C        22:25:25:03 22:25:27:21 01:57:27:21 01:57:30:14 
*FROM CLIP NAME:  77K2/01 
*SOURCE FILE: 19Y08M01
010779  19Y11M24                         A7    C        15:21:15:15 15:21:16:19 01:57:29:10 01:57:30:14 
*FROM CLIP NAME:  01-03-1/05 
*A7 VOL = -12.9 DB  PAN R100 
*PATCH 19Y11M24:  FROM SOURCE 1 TO RECORD 7 
*SOURCE FILE: 19Y11M24
010780  19Y11M24                         A8    C        15:21:15:15 15:21:16:19 01:57:29:10 01:57:30:14 
*FROM CLIP NAME:  01-03-1/05 
*A8 VOL = -12.9 DB  PAN L100 
*PATCH 19Y11M24:  FROM SOURCE 2 TO RECORD 8 
*SOURCE FILE: 19Y11M24
010781  19Y11M24                         A9    C        15:21:15:15 15:21:16:19 01:57:29:10 01:57:30:14 
*FROM CLIP NAME:  01-03-1/05 
*A9 VOL = -12.9 DB  PAN R100 
*PATCH 19Y11M24:  FROM SOURCE 3 TO RECORD 9 
*SOURCE FILE: 19Y11M24
010782  MSMMMOB.43                       V     C        15:21:16:19 15:21:19:20 01:57:30:14 01:57:33:15 
M2      MSMMMOB.43                                025.0 15:21:16:19 
*FROM CLIP NAME:  A002C015_191124_R481 
*SOURCE FILE: MSMMMOB.43
010783  19Y11M24                         A     C        15:21:16:19 15:21:19:20 01:57:30:14 01:57:33:15 
*FROM CLIP NAME:  01-03-1/05 
*A1 VOL = -11.0 DB  PAN R100 
*SOURCE FILE: 19Y11M24
010784  19Y11M24                         A2    C        15:21:16:19 15:21:19:20 01:57:30:14 01:57:33:15 
*FROM CLIP NAME:  01-03-1/05 
*A2 VOL = -11.0 DB  PAN L100 
*SOURCE FILE: 19Y11M24
010785  19Y11M24                         A3    C        15:21:16:19 15:21:19:20 01:57:30:14 01:57:33:15 
*FROM CLIP NAME:  01-03-1/05 
*A3 VOL = -11.0 DB  PAN R100 
*SOURCE FILE: 19Y11M24
010786  BL                               V     C        00:00:00:00 00:00:01:12 01:57:32:03 01:57:33:15 
*SOURCE FILE: (NULL)
010787  19Y08M01                         A     C        22:30:23:13 22:30:29:10 01:57:33:15 01:57:39:12 
*FROM CLIP NAME:  77K2/03 
*SOURCE FILE: 19Y08M01
010788  19Y08M01                         A2    C        22:30:23:13 22:30:29:10 01:57:33:15 01:57:39:12 
*FROM CLIP NAME:  77K2/03 
*SOURCE FILE: 19Y08M01
010789  19Y08M01                         A3    C        22:30:23:13 22:30:29:10 01:57:33:15 01:57:39:12 
*FROM CLIP NAME:  77K2/03 
*SOURCE FILE: 19Y08M01
010790  19Y08M01                         A4    C        22:30:23:13 22:30:29:10 01:57:33:15 01:57:39:12 
*FROM CLIP NAME:  77K2/03 
*SOURCE FILE: 19Y08M01
010791  MSMMMOB.01                       A5    C        22:30:23:13 22:30:29:10 01:57:33:15 01:57:39:12 
*FROM CLIP NAME:  A028C013_190801_R32C 
*SOURCE FILE: MSMMMOB.01
010792  19Y08M01                         A6    C        22:30:23:13 22:30:29:10 01:57:33:15 01:57:39:12 
*FROM CLIP NAME:  77K2/03 
*SOURCE FILE: 19Y08M01
010793  MSMMMOB.01                       V     C        22:30:23:13 22:30:32:20 01:57:33:15 01:57:42:22 
M2      MSMMMOB.01                                025.0 22:30:23:13 
*FROM CLIP NAME:  A028C013_190801_R32C 
*SOURCE FILE: MSMMMOB.01
010794  KARAYLOVA_?OVER.MP3              A20   C        01:02:19:23 01:02:29:05 01:57:33:15 01:57:42:22 
*FROM CLIP NAME:  KARAYLOVA_?OVER.MP3 
*A20 VOL = -18.6 DB  PAN L100 
*EQ BAND 1 (LO SHELF) FREQ: 50.0 HZ  GAIN:  +5.9 DB  Q: 1410 
*EQ BAND 2 (PRESENCE) FREQ: 15.0  KHZ  GAIN: -18.5 DB  Q:  670 
*EQ BAND 3 (HI SHELF) FREQ: 15.0  KHZ  GAIN: -19.0 DB  Q: 1410 
*PATCH KARAYLOVA_?OVER.MP3:  FROM SOURCE 2 TO RECORD 20 
*SOURCE FILE: KARAYLOVA_?OVER.MP3
010795  KARAYLOVA_?OVER.MP3              A21   C        01:02:19:23 01:02:29:05 01:57:33:15 01:57:42:22 
*FROM CLIP NAME:  KARAYLOVA_?OVER.MP3 
*A21 VOL = -18.6 DB  PAN R100 
*EQ BAND 1 (LO SHELF) FREQ: 50.0 HZ  GAIN:  +5.9 DB  Q: 1410 
*EQ BAND 2 (PRESENCE) FREQ: 15.0  KHZ  GAIN: -18.5 DB  Q:  670 
*EQ BAND 3 (HI SHELF) FREQ: 15.0  KHZ  GAIN: -19.0 DB  Q: 1410 
*PATCH KARAYLOVA_?OVER.MP3:  FROM SOURCE 1 TO RECORD 21 
*SOURCE FILE: KARAYLOVA_?OVER.MP3
010796  BL                               V     C        00:00:00:00 00:00:15:20 01:57:33:15 01:57:49:10 
*SOURCE FILE: (NULL)
010797  CINEMASCOPE_2-35-1_CROPLINES.PNG V     C        01:01:06:14 01:01:24:00 01:57:33:15 01:57:51:01 
*FROM CLIP NAME:  CINEMASCOPE 2-35-1 CROPLINES.PNG 
*SOURCE FILE: CINEMASCOPE 2-35-1 CROPLINES.PNG
010798  19Y11M24                         A7    C        15:21:24:16 15:21:37:17 01:57:39:09 01:57:52:10 
*FROM CLIP NAME:  01-03-1/05 
*A7 VOL = -11.7 DB  PAN R100 
*PATCH 19Y11M24:  FROM SOURCE 1 TO RECORD 7 
*SOURCE FILE: 19Y11M24
010799  19Y11M24                         A8    C        15:21:24:16 15:21:37:17 01:57:39:09 01:57:52:10 
*FROM CLIP NAME:  01-03-1/05 
*A8 VOL = -11.7 DB  PAN L100 
*PATCH 19Y11M24:  FROM SOURCE 2 TO RECORD 8 
*SOURCE FILE: 19Y11M24
010800  19Y11M24                         A9    C        15:21:24:16 15:21:37:17 01:57:39:09 01:57:52:10 
*FROM CLIP NAME:  01-03-1/05 
*A9 VOL = -11.7 DB  PAN R100 
*PATCH 19Y11M24:  FROM SOURCE 3 TO RECORD 9 
*SOURCE FILE: 19Y11M24
010801  19Y08M01                         A     C        22:30:42:09 22:30:45:19 01:57:39:12 01:57:42:22 
*FROM CLIP NAME:  77K2/03 
*SOURCE FILE: 19Y08M01
010802  19Y08M01                         A2    C        22:30:42:09 22:30:45:19 01:57:39:12 01:57:42:22 
*FROM CLIP NAME:  77K2/03 
*SOURCE FILE: 19Y08M01
010803  19Y08M01                         A3    C        22:30:42:09 22:30:45:19 01:57:39:12 01:57:42:22 
*FROM CLIP NAME:  77K2/03 
*SOURCE FILE: 19Y08M01
010804  19Y08M01                         A4    C        22:30:42:09 22:30:45:19 01:57:39:12 01:57:42:22 
*FROM CLIP NAME:  77K2/03 
*SOURCE FILE: 19Y08M01
010805  MSMMMOB.01                       A5    C        22:30:42:09 22:30:45:19 01:57:39:12 01:57:42:22 
*FROM CLIP NAME:  A028C013_190801_R32C 
*SOURCE FILE: MSMMMOB.01
010806  19Y08M01                         A6    C        22:30:42:09 22:30:45:19 01:57:39:12 01:57:42:22 
*FROM CLIP NAME:  77K2/03 
*SOURCE FILE: 19Y08M01
010807  MSMMMOB.43                       V     C        15:21:28:04 15:21:36:08 01:57:42:22 01:57:51:01 
M2      MSMMMOB.43                                025.0 15:21:28:04 
*FROM CLIP NAME:  A002C015_191124_R481 
*SOURCE FILE: MSMMMOB.43
010808  BL                               V     C        00:00:00:00 00:00:01:16 01:57:49:10 01:57:51:01 
*SOURCE FILE: (NULL)
010809  MSMMMOB.01                       V     C        22:30:34:18 22:30:50:21 01:57:51:01 01:58:07:04 
M2      MSMMMOB.01                                025.0 22:30:34:18 
*FROM CLIP NAME:  A028C013_190801_R32C 
*SOURCE FILE: MSMMMOB.01
010810  CINEMASCOPE_2-35-1_CROPLINES.PNG V     C        01:01:23:03 01:03:17:11 01:57:51:01 01:59:45:09 
*FROM CLIP NAME:  CINEMASCOPE 2-35-1 CROPLINES.PNG 
*SOURCE FILE: CINEMASCOPE 2-35-1 CROPLINES.PNG
010811  BL                               V     C        00:00:00:00 00:29:23:00 01:57:51:01 02:27:14:01 
*SOURCE FILE: (NULL)
010812  19Y11M24                         A7    C        15:21:37:19 15:21:40:02 01:57:52:10 01:57:54:18 
*FROM CLIP NAME:  01-03-1/05 
*A7 VOL = -11.7 DB  PAN R100 
*PATCH 19Y11M24:  FROM SOURCE 1 TO RECORD 7 
*SOURCE FILE: 19Y11M24
010813  19Y11M24                         A8    C        15:21:37:19 15:21:40:02 01:57:52:10 01:57:54:18 
*FROM CLIP NAME:  01-03-1/05 
*A8 VOL = -11.7 DB  PAN L100 
*PATCH 19Y11M24:  FROM SOURCE 2 TO RECORD 8 
*SOURCE FILE: 19Y11M24
010814  19Y11M24                         A9    C        15:21:37:19 15:21:40:02 01:57:52:10 01:57:54:18 
*FROM CLIP NAME:  01-03-1/05 
*A9 VOL = -11.7 DB  PAN R100 
*PATCH 19Y11M24:  FROM SOURCE 3 TO RECORD 9 
*SOURCE FILE: 19Y11M24
010815  19Y08M01                         A     C        22:30:36:02 22:30:50:05 01:57:52:10 01:58:06:13 
*FROM CLIP NAME:  77K2/03 
*SOURCE FILE: 19Y08M01
010816  19Y08M01                         A2    C        22:30:36:02 22:30:50:05 01:57:52:10 01:58:06:13 
*FROM CLIP NAME:  77K2/03 
*SOURCE FILE: 19Y08M01
010817  19Y08M01                         A3    C        22:30:36:02 22:30:50:05 01:57:52:10 01:58:06:13 
*FROM CLIP NAME:  77K2/03 
*SOURCE FILE: 19Y08M01
010818  19Y08M01                         A4    C        22:30:36:02 22:30:50:05 01:57:52:10 01:58:06:13 
*FROM CLIP NAME:  77K2/03 
*SOURCE FILE: 19Y08M01
010819  MSMMMOB.01                       A5    C        22:30:36:02 22:30:50:05 01:57:52:10 01:58:06:13 
*FROM CLIP NAME:  A028C013_190801_R32C 
*SOURCE FILE: MSMMMOB.01
010820  19Y08M01                         A6    C        22:30:36:02 22:30:50:05 01:57:52:10 01:58:06:13 
*FROM CLIP NAME:  77K2/03 
*SOURCE FILE: 19Y08M01
010821  _GARY_MOORE_STILL_GOT_THE_BLUES_ A16   C        01:00:18:21 01:00:21:20 01:58:04:05 01:58:07:04 
*FROM CLIP NAME:  _GARY MOORE STILL GOT THE BLUES KAVKAZ STYLE.WAV 
*A16 VOL = -15.0 DB  PAN L100 
*PATCH _GARY_MOORE_STILL_GOT_THE_BLUES_:  FROM SOURCE 2 TO RECORD 16 
*SOURCE FILE: _GARY MOORE STILL GOT THE BLUES KAVKAZ STYLE.WAV
010822  _GARY_MOORE_STILL_GOT_THE_BLUES_ A17   C        01:00:18:21 01:00:21:20 01:58:04:05 01:58:07:04 
*FROM CLIP NAME:  _GARY MOORE STILL GOT THE BLUES KAVKAZ STYLE.WAV 
*A17 VOL = -15.0 DB  PAN R100 
*PATCH _GARY_MOORE_STILL_GOT_THE_BLUES_:  FROM SOURCE 1 TO RECORD 17 
*SOURCE FILE: _GARY MOORE STILL GOT THE BLUES KAVKAZ STYLE.WAV
010823  19Y08M11                         A     C        16:42:11:21 16:42:17:14 01:58:06:13 01:58:12:06 
*FROM CLIP NAME:  79K4/04.SYNC.01 
*SOURCE FILE: 19Y08M11
010824  19Y08M11                         A2    C        16:42:11:21 16:42:17:14 01:58:06:13 01:58:12:06 
*FROM CLIP NAME:  79K4/04.SYNC.01 
*SOURCE FILE: 19Y08M11
010825  MSMMMOB.31                       V     C        16:42:12:13 16:42:18:00 01:58:07:04 01:58:12:16 
M2      MSMMMOB.31                                025.0 16:42:12:13 
*FROM CLIP NAME:  A064C006_190811_R32C 
*SOURCE FILE: MSMMMOB.31
010826  _GARY_MOORE_STILL_GOT_THE_BLUES_ A16   C        01:00:21:20 01:00:34:24 01:58:07:04 01:58:20:08 
*, D-VERB 
*FROM CLIP NAME:  _GARY MOORE STILL GOT THE BLUES KAVKAZ STYLE.WAV 
*A16 VOL =  -3.8 DB  PAN L100 
*PATCH _GARY_MOORE_STILL_GOT_THE_BLUES_:  FROM SOURCE 2 TO RECORD 16 
*SOURCE FILE: _GARY MOORE STILL GOT THE BLUES KAVKAZ STYLE.WAV
010827  _GARY_MOORE_STILL_GOT_THE_BLUES_ A17   C        01:00:21:20 01:00:34:24 01:58:07:04 01:58:20:08 
*, D-VERB 
*FROM CLIP NAME:  _GARY MOORE STILL GOT THE BLUES KAVKAZ STYLE.WAV 
*A17 VOL =  -3.8 DB  PAN R100 
*PATCH _GARY_MOORE_STILL_GOT_THE_BLUES_:  FROM SOURCE 1 TO RECORD 17 
*SOURCE FILE: _GARY MOORE STILL GOT THE BLUES KAVKAZ STYLE.WAV
010828  19Y08M11                         A     C        14:22:19:10 14:22:27:03 01:58:12:06 01:58:19:24 
*FROM CLIP NAME:  79K1/04.SYNC.01 
*SOURCE FILE: 19Y08M11
010829  19Y08M11                         A2    C        14:22:19:10 14:22:27:03 01:58:12:06 01:58:19:24 
*FROM CLIP NAME:  79K1/04.SYNC.01 
*SOURCE FILE: 19Y08M11
010830  19Y08M11                         A3    C        14:22:19:10 14:22:27:03 01:58:12:06 01:58:19:24 
*FROM CLIP NAME:  79K1/04.SYNC.01 
*SOURCE FILE: 19Y08M11
010831  19Y08M11                         A4    C        14:22:19:10 14:22:27:03 01:58:12:06 01:58:19:24 
*FROM CLIP NAME:  79K1/04.SYNC.01 
*SOURCE FILE: 19Y08M11
010832  19Y08M11                         A5    C        14:22:19:10 14:22:27:03 01:58:12:06 01:58:19:24 
*FROM CLIP NAME:  79K1/04.SYNC.01 
*PATCH 19Y08M11:  FROM SOURCE 6 TO RECORD 5 
*SOURCE FILE: 19Y08M11
010833  19Y08M11                         A6    C        14:22:19:10 14:22:27:03 01:58:12:06 01:58:19:24 
*FROM CLIP NAME:  79K1/04.SYNC.01 
*PATCH 19Y08M11:  FROM SOURCE 8 TO RECORD 6 
*SOURCE FILE: 19Y08M11
010834  19Y08M11                         A7    C        14:22:19:10 14:22:27:03 01:58:12:06 01:58:19:24 
*FROM CLIP NAME:  79K1/04.SYNC.01 
*SOURCE FILE: 19Y08M11
010835  MSMMMOB.34                       V     C        14:22:19:20 14:22:27:03 01:58:12:16 01:58:19:24 
M2      MSMMMOB.34                                025.0 14:22:19:20 
*FROM CLIP NAME:  B012C003_190811_R481 
*SOURCE FILE: MSMMMOB.34
010836  MSMMMOB.49                       V     C        15:18:07:16 15:18:10:24 01:58:19:24 01:58:23:07 
M2      MSMMMOB.49                                025.0 15:18:07:16 
*FROM CLIP NAME:  B013C002_190811_R481 
*SOURCE FILE: MSMMMOB.49
010837  19Y08M11                         A     C        15:18:07:16 15:18:10:24 01:58:19:24 01:58:23:07 
*FROM CLIP NAME:  79K3/02.SYNC.01 
*SOURCE FILE: 19Y08M11
010838  19Y08M11                         A2    C        15:18:07:16 15:18:10:24 01:58:19:24 01:58:23:07 
*FROM CLIP NAME:  79K3/02.SYNC.01 
*A2 VOL =  -0.1 DB  PAN L100 
*SOURCE FILE: 19Y08M11
010839  19Y08M11                         A3    C        15:18:07:16 15:18:10:24 01:58:19:24 01:58:23:07 
*FROM CLIP NAME:  79K3/02.SYNC.01 
*SOURCE FILE: 19Y08M11
010840  19Y08M11                         A4    C        15:18:07:16 15:18:10:24 01:58:19:24 01:58:23:07 
*FROM CLIP NAME:  79K3/02.SYNC.01 
*SOURCE FILE: 19Y08M11
010841  19Y08M11                         A5    C        15:18:07:16 15:18:10:24 01:58:19:24 01:58:23:07 
*FROM CLIP NAME:  79K3/02.SYNC.01 
*A5 VOL =  -0.1 DB  PAN R100 
*PATCH 19Y08M11:  FROM SOURCE 6 TO RECORD 5 
*SOURCE FILE: 19Y08M11
010842  19Y08M11                         A6    C        15:18:07:16 15:18:10:24 01:58:19:24 01:58:23:07 
*FROM CLIP NAME:  79K3/02.SYNC.01 
*PATCH 19Y08M11:  FROM SOURCE 8 TO RECORD 6 
*SOURCE FILE: 19Y08M11
010843  19Y08M11                         A7    C        15:18:07:16 15:18:10:24 01:58:19:24 01:58:23:07 
*FROM CLIP NAME:  79K3/02.SYNC.01 
*SOURCE FILE: 19Y08M11
010844  _GARY_MOORE_STILL_GOT_THE_BLUES_ A16   C        01:00:34:24 01:00:34:24 01:58:20:08 01:58:20:08 
010844  _GARY_MOORE_STILL_GOT_THE_BLUES_ A16   D    025 01:00:34:24 01:00:35:24 01:58:20:08 01:58:21:08 
*, D-VERB 
*FROM CLIP NAME:  _GARY MOORE STILL GOT THE BLUES KAVKAZ STYLE.WAV 
*TO CLIP NAME:  _GARY MOORE STILL GOT THE BLUES KAVKAZ STYLE.WAV 
*A16 VOL =  -3.8 DB  PAN L100 
*A16 VOL =  -9.1 DB  PAN L100 
*PATCH _GARY_MOORE_STILL_GOT_THE_BLUES_:  FROM SOURCE 2 TO RECORD 16 
*PATCH _GARY_MOORE_STILL_GOT_THE_BLUES_:  FROM SOURCE 2 TO RECORD 16 
*SOURCE FILE: _GARY MOORE STILL GOT THE BLUES KAVKAZ STYLE.WAV
010845  _GARY_MOORE_STILL_GOT_THE_BLUES_ A17   C        01:00:34:24 01:00:34:24 01:58:20:08 01:58:20:08 
010845  _GARY_MOORE_STILL_GOT_THE_BLUES_ A17   D    025 01:00:34:24 01:00:35:24 01:58:20:08 01:58:21:08 
*, D-VERB 
*FROM CLIP NAME:  _GARY MOORE STILL GOT THE BLUES KAVKAZ STYLE.WAV 
*TO CLIP NAME:  _GARY MOORE STILL GOT THE BLUES KAVKAZ STYLE.WAV 
*A17 VOL =  -3.8 DB  PAN R100 
*A17 VOL =  -9.1 DB  PAN R100 
*PATCH _GARY_MOORE_STILL_GOT_THE_BLUES_:  FROM SOURCE 1 TO RECORD 17 
*PATCH _GARY_MOORE_STILL_GOT_THE_BLUES_:  FROM SOURCE 1 TO RECORD 17 
*SOURCE FILE: _GARY MOORE STILL GOT THE BLUES KAVKAZ STYLE.WAV
010846  _GARY_MOORE_STILL_GOT_THE_BLUES_ A16   C        01:00:35:24 01:00:37:23 01:58:21:08 01:58:23:07 
*, D-VERB 
*FROM CLIP NAME:  _GARY MOORE STILL GOT THE BLUES KAVKAZ STYLE.WAV 
*A16 VOL =  -9.1 DB  PAN L100 
*PATCH _GARY_MOORE_STILL_GOT_THE_BLUES_:  FROM SOURCE 2 TO RECORD 16 
*SOURCE FILE: _GARY MOORE STILL GOT THE BLUES KAVKAZ STYLE.WAV
010847  _GARY_MOORE_STILL_GOT_THE_BLUES_ A17   C        01:00:35:24 01:00:37:23 01:58:21:08 01:58:23:07 
*, D-VERB 
*FROM CLIP NAME:  _GARY MOORE STILL GOT THE BLUES KAVKAZ STYLE.WAV 
*A17 VOL =  -9.1 DB  PAN R100 
*PATCH _GARY_MOORE_STILL_GOT_THE_BLUES_:  FROM SOURCE 1 TO RECORD 17 
*SOURCE FILE: _GARY MOORE STILL GOT THE BLUES KAVKAZ STYLE.WAV
010848  MSMMMOB.32                       V     C        14:47:35:08 14:47:43:05 01:58:23:07 01:58:31:04 
M2      MSMMMOB.32                                025.0 14:47:35:08 
*FROM CLIP NAME:  B012C005_190811_R481 
*SOURCE FILE: MSMMMOB.32
010849  19Y08M11                         A     C        14:47:35:07 14:47:43:11 01:58:23:07 01:58:31:11 
*FROM CLIP NAME:  79K2/02.SYNC.01 
*SOURCE FILE: 19Y08M11
010850  19Y08M11                         A2    C        14:47:35:07 14:47:43:11 01:58:23:07 01:58:31:11 
*FROM CLIP NAME:  79K2/02.SYNC.01 
*A2 VOL =  +7.3 DB  PAN L100 
*SOURCE FILE: 19Y08M11
010851  19Y08M11                         A3    C        14:47:35:07 14:47:43:11 01:58:23:07 01:58:31:11 
*FROM CLIP NAME:  79K2/02.SYNC.01 
*SOURCE FILE: 19Y08M11
010852  19Y08M11                         A4    C        14:47:35:07 14:47:43:11 01:58:23:07 01:58:31:11 
*FROM CLIP NAME:  79K2/02.SYNC.01 
*SOURCE FILE: 19Y08M11
010853  19Y08M11                         A5    C        14:47:35:07 14:47:43:11 01:58:23:07 01:58:31:11 
*FROM CLIP NAME:  79K2/02.SYNC.01 
*PATCH 19Y08M11:  FROM SOURCE 6 TO RECORD 5 
*SOURCE FILE: 19Y08M11
010854  19Y08M11                         A6    C        14:47:35:07 14:47:43:11 01:58:23:07 01:58:31:11 
*FROM CLIP NAME:  79K2/02.SYNC.01 
*PATCH 19Y08M11:  FROM SOURCE 8 TO RECORD 6 
*SOURCE FILE: 19Y08M11
010855  19Y08M11                         A7    C        14:47:35:07 14:47:43:11 01:58:23:07 01:58:31:11 
*FROM CLIP NAME:  79K2/02.SYNC.01 
*A7 VOL =  +7.0 DB  PAN R100 
*SOURCE FILE: 19Y08M11
010856  _GARY_MOORE_STILL_GOT_THE_BLUES_ A16   C        01:00:37:23 01:01:12:16 01:58:23:07 01:58:58:00 
*, D-VERB 
*FROM CLIP NAME:  _GARY MOORE STILL GOT THE BLUES KAVKAZ STYLE.WAV 
*A16 VOL =  -9.1 DB  PAN L100 
*PATCH _GARY_MOORE_STILL_GOT_THE_BLUES_:  FROM SOURCE 2 TO RECORD 16 
*SOURCE FILE: _GARY MOORE STILL GOT THE BLUES KAVKAZ STYLE.WAV
010857  _GARY_MOORE_STILL_GOT_THE_BLUES_ A17   C        01:00:37:23 01:01:12:16 01:58:23:07 01:58:58:00 
*, D-VERB 
*FROM CLIP NAME:  _GARY MOORE STILL GOT THE BLUES KAVKAZ STYLE.WAV 
*A17 VOL =  -9.1 DB  PAN R99 
*PATCH _GARY_MOORE_STILL_GOT_THE_BLUES_:  FROM SOURCE 1 TO RECORD 17 
*SOURCE FILE: _GARY MOORE STILL GOT THE BLUES KAVKAZ STYLE.WAV
010858  MSMMMOB.21                       V     C        15:18:18:23 15:18:22:17 01:58:31:04 01:58:34:23 
M2      MSMMMOB.21                                025.0 15:18:18:23 
*FROM CLIP NAME:  A064C002_190811_R32C 
*SOURCE FILE: MSMMMOB.21
010859  19Y08M11                         A     C        15:18:19:04 15:18:23:01 01:58:31:11 01:58:35:08 
*FROM CLIP NAME:  79K3/02.SYNC.01 
*SOURCE FILE: 19Y08M11
010860  19Y08M11                         A2    C        15:18:19:04 15:18:23:01 01:58:31:11 01:58:35:08 
*FROM CLIP NAME:  79K3/02.SYNC.01 
*SOURCE FILE: 19Y08M11
010861  19Y08M11                         A3    C        15:18:19:04 15:18:23:01 01:58:31:11 01:58:35:08 
*FROM CLIP NAME:  79K3/02.SYNC.01 
*SOURCE FILE: 19Y08M11
010862  19Y08M11                         A4    C        15:18:19:04 15:18:23:01 01:58:31:11 01:58:35:08 
*FROM CLIP NAME:  79K3/02.SYNC.01 
*A4 VOL =  +8.0 DB  PAN L100 
*SOURCE FILE: 19Y08M11
010863  19Y08M11                         A5    C        15:18:19:04 15:18:23:01 01:58:31:11 01:58:35:08 
*FROM CLIP NAME:  79K3/02.SYNC.01 
*PATCH 19Y08M11:  FROM SOURCE 6 TO RECORD 5 
*SOURCE FILE: 19Y08M11
010864  19Y08M11                         A6    C        15:18:19:04 15:18:23:01 01:58:31:11 01:58:35:08 
*FROM CLIP NAME:  79K3/02.SYNC.01 
*PATCH 19Y08M11:  FROM SOURCE 8 TO RECORD 6 
*SOURCE FILE: 19Y08M11
010865  19Y08M11                         A7    C        15:18:19:04 15:18:23:01 01:58:31:11 01:58:35:08 
*FROM CLIP NAME:  79K3/02.SYNC.01 
*SOURCE FILE: 19Y08M11
010866  MSMMMOB.67                       V     C        14:47:48:04 14:47:55:05 01:58:34:23 01:58:41:24 
M2      MSMMMOB.67                                025.0 14:47:48:04 
*FROM CLIP NAME:  A063C012_190811_R32C 
*SOURCE FILE: MSMMMOB.67
010867  19Y08M11                         A     C        14:47:48:13 14:48:00:00 01:58:35:08 01:58:46:20 
*FROM CLIP NAME:  79K2/02.SYNC.01 
*SOURCE FILE: 19Y08M11
010868  19Y08M11                         A2    C        14:47:48:13 14:48:00:00 01:58:35:08 01:58:46:20 
*FROM CLIP NAME:  79K2/02.SYNC.01 
*A2 VOL =  +7.0 DB  PAN L100 
*SOURCE FILE: 19Y08M11
010869  19Y08M11                         A3    C        14:47:48:13 14:48:00:00 01:58:35:08 01:58:46:20 
*FROM CLIP NAME:  79K2/02.SYNC.01 
*SOURCE FILE: 19Y08M11
010870  19Y08M11                         A4    C        14:47:48:13 14:48:00:00 01:58:35:08 01:58:46:20 
*FROM CLIP NAME:  79K2/02.SYNC.01 
*SOURCE FILE: 19Y08M11
010871  19Y08M11                         A5    C        14:47:48:13 14:48:00:00 01:58:35:08 01:58:46:20 
*FROM CLIP NAME:  79K2/02.SYNC.01 
*PATCH 19Y08M11:  FROM SOURCE 6 TO RECORD 5 
*SOURCE FILE: 19Y08M11
010872  19Y08M11                         A6    C        14:47:48:13 14:48:00:00 01:58:35:08 01:58:46:20 
*FROM CLIP NAME:  79K2/02.SYNC.01 
*PATCH 19Y08M11:  FROM SOURCE 8 TO RECORD 6 
*SOURCE FILE: 19Y08M11
010873  19Y08M11                         A7    C        14:47:48:13 14:48:00:00 01:58:35:08 01:58:46:20 
*FROM CLIP NAME:  79K2/02.SYNC.01 
*A7 VOL =  +7.7 DB  PAN R100 
*SOURCE FILE: 19Y08M11
010874  MSMMMOB.32                       V     C        14:47:55:05 14:48:00:01 01:58:41:24 01:58:46:20 
M2      MSMMMOB.32                                025.0 14:47:55:05 
*FROM CLIP NAME:  B012C005_190811_R481 
*SOURCE FILE: MSMMMOB.32
010875  MSMMMOB.49                       V     C        15:18:35:11 15:18:41:10 01:58:46:20 01:58:52:19 
M2      MSMMMOB.49                                025.0 15:18:35:11 
*FROM CLIP NAME:  B013C002_190811_R481 
*SOURCE FILE: MSMMMOB.49
010876  19Y08M11                         A     C        15:18:35:11 15:18:41:10 01:58:46:20 01:58:52:19 
*FROM CLIP NAME:  79K3/02.SYNC.01 
*SOURCE FILE: 19Y08M11
010877  19Y08M11                         A2    C        15:18:35:11 15:18:41:10 01:58:46:20 01:58:52:19 
*FROM CLIP NAME:  79K3/02.SYNC.01 
*SOURCE FILE: 19Y08M11
010878  19Y08M11                         A3    C        15:18:35:11 15:18:41:10 01:58:46:20 01:58:52:19 
*FROM CLIP NAME:  79K3/02.SYNC.01 
*SOURCE FILE: 19Y08M11
010879  19Y08M11                         A4    C        15:18:35:11 15:18:41:10 01:58:46:20 01:58:52:19 
*FROM CLIP NAME:  79K3/02.SYNC.01 
*A4 VOL =  +6.0 DB  PAN L100 
*SOURCE FILE: 19Y08M11
010880  19Y08M11                         A5    C        15:18:35:11 15:18:41:10 01:58:46:20 01:58:52:19 
*FROM CLIP NAME:  79K3/02.SYNC.01 
*PATCH 19Y08M11:  FROM SOURCE 6 TO RECORD 5 
*SOURCE FILE: 19Y08M11
010881  19Y08M11                         A6    C        15:18:35:11 15:18:41:10 01:58:46:20 01:58:52:19 
*FROM CLIP NAME:  79K3/02.SYNC.01 
*PATCH 19Y08M11:  FROM SOURCE 8 TO RECORD 6 
*SOURCE FILE: 19Y08M11
010882  19Y08M11                         A7    C        15:18:35:11 15:18:41:10 01:58:46:20 01:58:52:19 
*FROM CLIP NAME:  79K3/02.SYNC.01 
*SOURCE FILE: 19Y08M11
010883  MSMMMOB.80                       V     C        14:43:17:17 14:43:23:20 01:58:52:19 01:58:58:22 
M2      MSMMMOB.80                                025.0 14:43:17:17 
*FROM CLIP NAME:  B012C004_190811_R481 
*SOURCE FILE: MSMMMOB.80
010884  19Y08M11                         A     C        14:43:17:17 14:43:23:20 01:58:52:19 01:58:58:22 
*FROM CLIP NAME:  79K2/01.SYNC.01 
*SOURCE FILE: 19Y08M11
010885  19Y08M11                         A2    C        14:43:17:17 14:43:23:20 01:58:52:19 01:58:58:22 
*FROM CLIP NAME:  79K2/01.SYNC.01 
*A2 VOL =  +8.1 DB  PAN L100 
*SOURCE FILE: 19Y08M11
010886  19Y08M11                         A3    C        14:43:17:17 14:43:23:20 01:58:52:19 01:58:58:22 
*FROM CLIP NAME:  79K2/01.SYNC.01 
*SOURCE FILE: 19Y08M11
010887  19Y08M11                         A4    C        14:43:17:17 14:43:23:20 01:58:52:19 01:58:58:22 
*FROM CLIP NAME:  79K2/01.SYNC.01 
*SOURCE FILE: 19Y08M11
010888  19Y08M11                         A5    C        14:43:17:17 14:43:23:20 01:58:52:19 01:58:58:22 
*FROM CLIP NAME:  79K2/01.SYNC.01 
*A5 VOL =  +8.5 DB  PAN R100 
*PATCH 19Y08M11:  FROM SOURCE 7 TO RECORD 5 
*SOURCE FILE: 19Y08M11
010889  19Y08M11                         A6    C        14:43:17:17 14:43:23:20 01:58:52:19 01:58:58:22 
*FROM CLIP NAME:  79K2/01.SYNC.01 
*SOURCE FILE: 19Y08M11
010890  19Y08M11                         A7    C        14:43:17:17 14:43:23:20 01:58:52:19 01:58:58:22 
*FROM CLIP NAME:  79K2/01.SYNC.01 
*PATCH 19Y08M11:  FROM SOURCE 8 TO RECORD 7 
*SOURCE FILE: 19Y08M11
010891  _GARY_MOORE_STILL_GOT_THE_BLUES_ A16   C        01:01:12:16 01:01:48:13 01:58:58:00 01:59:33:22 
*, D-VERB 
*FROM CLIP NAME:  _GARY MOORE STILL GOT THE BLUES KAVKAZ STYLE.WAV 
*A16 VOL =  -8.5 DB  PAN L100 
*PATCH _GARY_MOORE_STILL_GOT_THE_BLUES_:  FROM SOURCE 2 TO RECORD 16 
*SOURCE FILE: _GARY MOORE STILL GOT THE BLUES KAVKAZ STYLE.WAV
010892  _GARY_MOORE_STILL_GOT_THE_BLUES_ A17   C        01:01:12:16 01:01:48:13 01:58:58:00 01:59:33:22 
*, D-VERB 
*FROM CLIP NAME:  _GARY MOORE STILL GOT THE BLUES KAVKAZ STYLE.WAV 
*A17 VOL =  -8.5 DB  PAN R100 
*PATCH _GARY_MOORE_STILL_GOT_THE_BLUES_:  FROM SOURCE 1 TO RECORD 17 
*SOURCE FILE: _GARY MOORE STILL GOT THE BLUES KAVKAZ STYLE.WAV
010893  19Y08M11                         A     C        17:17:51:16 17:17:52:17 01:58:58:22 01:58:59:23 
*FROM CLIP NAME:  79K5/02.SYNC.01 
*SOURCE FILE: 19Y08M11
010894  19Y08M11                         A2    C        17:17:51:16 17:17:52:17 01:58:58:22 01:58:59:23 
*FROM CLIP NAME:  79K5/02.SYNC.01 
*SOURCE FILE: 19Y08M11
010895  19Y08M11                         A3    C        17:17:51:16 17:17:52:17 01:58:58:22 01:58:59:23 
*FROM CLIP NAME:  79K5/02.SYNC.01 
*SOURCE FILE: 19Y08M11
010896  19Y08M11                         A4    C        17:17:51:16 17:17:52:17 01:58:58:22 01:58:59:23 
*FROM CLIP NAME:  79K5/02.SYNC.01 
*SOURCE FILE: 19Y08M11
010897  19Y08M11                         A5    C        17:17:51:16 17:17:52:17 01:58:58:22 01:58:59:23 
*FROM CLIP NAME:  79K5/02.SYNC.01 
*PATCH 19Y08M11:  FROM SOURCE 6 TO RECORD 5 
*SOURCE FILE: 19Y08M11
010898  19Y08M11                         A6    C        17:17:51:16 17:17:52:17 01:58:58:22 01:58:59:23 
*FROM CLIP NAME:  79K5/02.SYNC.01 
*PATCH 19Y08M11:  FROM SOURCE 8 TO RECORD 6 
*SOURCE FILE: 19Y08M11
010899  19Y08M11                         A7    C        17:17:51:16 17:17:52:17 01:58:58:22 01:58:59:23 
*FROM CLIP NAME:  79K5/02.SYNC.01 
*SOURCE FILE: 19Y08M11
010900  MSMMMOB.77                       V     C        17:17:51:17 17:17:57:02 01:58:58:22 01:59:04:07 
M2      MSMMMOB.77                                025.0 17:17:51:17 
*FROM CLIP NAME:  A064C008_190811_R32C 
*SOURCE FILE: MSMMMOB.77
010901  19Y08M11                         A     C        14:48:28:14 14:48:29:24 01:58:59:23 01:59:01:08 
*FROM CLIP NAME:  79K2/02.SYNC.01 
*SOURCE FILE: 19Y08M11
010902  19Y08M11                         A2    C        14:48:28:14 14:48:29:24 01:58:59:23 01:59:01:08 
*FROM CLIP NAME:  79K2/02.SYNC.01 
*SOURCE FILE: 19Y08M11
010903  19Y08M11                         A3    C        14:48:28:14 14:48:29:24 01:58:59:23 01:59:01:08 
*FROM CLIP NAME:  79K2/02.SYNC.01 
*SOURCE FILE: 19Y08M11
010904  19Y08M11                         A4    C        14:48:28:14 14:48:29:24 01:58:59:23 01:59:01:08 
*FROM CLIP NAME:  79K2/02.SYNC.01 
*SOURCE FILE: 19Y08M11
010905  19Y08M11                         A5    C        14:48:28:14 14:48:29:24 01:58:59:23 01:59:01:08 
*FROM CLIP NAME:  79K2/02.SYNC.01 
*PATCH 19Y08M11:  FROM SOURCE 6 TO RECORD 5 
*SOURCE FILE: 19Y08M11
010906  19Y08M11                         A6    C        14:48:28:14 14:48:29:24 01:58:59:23 01:59:01:08 
*FROM CLIP NAME:  79K2/02.SYNC.01 
*PATCH 19Y08M11:  FROM SOURCE 8 TO RECORD 6 
*SOURCE FILE: 19Y08M11
010907  19Y08M11                         A7    C        14:48:28:14 14:48:29:24 01:58:59:23 01:59:01:08 
*FROM CLIP NAME:  79K2/02.SYNC.01 
*SOURCE FILE: 19Y08M11
010908  19Y08M11                         A     C        17:17:54:02 17:17:59:08 01:59:01:08 01:59:06:14 
*FROM CLIP NAME:  79K5/02.SYNC.01 
*SOURCE FILE: 19Y08M11
010909  19Y08M11                         A2    C        17:17:54:02 17:17:59:08 01:59:01:08 01:59:06:14 
*FROM CLIP NAME:  79K5/02.SYNC.01 
*SOURCE FILE: 19Y08M11
010910  19Y08M11                         A3    C        17:17:54:02 17:17:59:08 01:59:01:08 01:59:06:14 
*FROM CLIP NAME:  79K5/02.SYNC.01 
*SOURCE FILE: 19Y08M11
010911  19Y08M11                         A4    C        17:17:54:02 17:17:59:08 01:59:01:08 01:59:06:14 
*FROM CLIP NAME:  79K5/02.SYNC.01 
*SOURCE FILE: 19Y08M11
010912  19Y08M11                         A5    C        17:17:54:02 17:17:59:08 01:59:01:08 01:59:06:14 
*FROM CLIP NAME:  79K5/02.SYNC.01 
*PATCH 19Y08M11:  FROM SOURCE 6 TO RECORD 5 
*SOURCE FILE: 19Y08M11
010913  19Y08M11                         A6    C        17:17:54:02 17:17:59:08 01:59:01:08 01:59:06:14 
*FROM CLIP NAME:  79K5/02.SYNC.01 
*PATCH 19Y08M11:  FROM SOURCE 8 TO RECORD 6 
*SOURCE FILE: 19Y08M11
010914  19Y08M11                         A7    C        17:17:54:02 17:17:59:08 01:59:01:08 01:59:06:14 
*FROM CLIP NAME:  79K5/02.SYNC.01 
*SOURCE FILE: 19Y08M11
010915  MSMMMOB.67                       V     C        14:48:33:24 14:48:36:06 01:59:04:07 01:59:06:14 
M2      MSMMMOB.67                                025.0 14:48:33:24 
*FROM CLIP NAME:  A063C012_190811_R32C 
*SOURCE FILE: MSMMMOB.67
010916  MSMMMOB.21                       V     C        15:19:07:16 15:19:10:07 01:59:06:14 01:59:09:05 
M2      MSMMMOB.21                                025.0 15:19:07:16 
*FROM CLIP NAME:  A064C002_190811_R32C 
*SOURCE FILE: MSMMMOB.21
010917  19Y08M11                         A     C        15:19:07:15 15:19:10:06 01:59:06:14 01:59:09:05 
*FROM CLIP NAME:  79K3/02.SYNC.01 
*SOURCE FILE: 19Y08M11
010918  19Y08M11                         A2    C        15:19:07:15 15:19:10:06 01:59:06:14 01:59:09:05 
*FROM CLIP NAME:  79K3/02.SYNC.01 
*SOURCE FILE: 19Y08M11
010919  19Y08M11                         A3    C        15:19:07:15 15:19:10:06 01:59:06:14 01:59:09:05 
*FROM CLIP NAME:  79K3/02.SYNC.01 
*SOURCE FILE: 19Y08M11
010920  19Y08M11                         A4    C        15:19:07:15 15:19:10:06 01:59:06:14 01:59:09:05 
*FROM CLIP NAME:  79K3/02.SYNC.01 
*SOURCE FILE: 19Y08M11
010921  19Y08M11                         A5    C        15:19:07:15 15:19:10:06 01:59:06:14 01:59:09:05 
*FROM CLIP NAME:  79K3/02.SYNC.01 
*PATCH 19Y08M11:  FROM SOURCE 7 TO RECORD 5 
*SOURCE FILE: 19Y08M11
010922  19Y08M11                         A6    C        15:19:07:15 15:19:10:06 01:59:06:14 01:59:09:05 
*FROM CLIP NAME:  79K3/02.SYNC.01 
*SOURCE FILE: 19Y08M11
010923  19Y08M11                         A7    C        15:19:07:15 15:19:10:06 01:59:06:14 01:59:09:05 
*FROM CLIP NAME:  79K3/02.SYNC.01 
*PATCH 19Y08M11:  FROM SOURCE 8 TO RECORD 7 
*SOURCE FILE: 19Y08M11
010924  19Y08M11                         A8    C        17:18:01:11 17:18:02:03 01:59:09:05 01:59:09:22 
*FROM CLIP NAME:  79K5/02.SYNC.01 
*SOURCE FILE: 19Y08M11
010925  19Y08M11                         A9    C        17:18:01:11 17:18:02:03 01:59:09:05 01:59:09:22 
*FROM CLIP NAME:  79K5/02.SYNC.01 
*PATCH 19Y08M11:  FROM SOURCE 1 TO RECORD 9 
*SOURCE FILE: 19Y08M11
010926  19Y08M11                         A10   C        17:18:01:11 17:18:02:03 01:59:09:05 01:59:09:22 
*FROM CLIP NAME:  79K5/02.SYNC.01 
*PATCH 19Y08M11:  FROM SOURCE 2 TO RECORD 10 
*SOURCE FILE: 19Y08M11
010927  19Y08M11                         A11   C        17:18:01:11 17:18:02:03 01:59:09:05 01:59:09:22 
*FROM CLIP NAME:  79K5/02.SYNC.01 
*PATCH 19Y08M11:  FROM SOURCE 3 TO RECORD 11 
*SOURCE FILE: 19Y08M11
010928  19Y08M11                         A12   C        17:18:01:11 17:18:02:03 01:59:09:05 01:59:09:22 
*FROM CLIP NAME:  79K5/02.SYNC.01 
*PATCH 19Y08M11:  FROM SOURCE 4 TO RECORD 12 
*SOURCE FILE: 19Y08M11
010929  19Y08M11                         A13   C        17:18:01:11 17:18:02:03 01:59:09:05 01:59:09:22 
*FROM CLIP NAME:  79K5/02.SYNC.01 
*PATCH 19Y08M11:  FROM SOURCE 7 TO RECORD 13 
*SOURCE FILE: 19Y08M11
010930  MSMMMOB.32                       V     C        14:48:38:22 14:48:39:21 01:59:09:05 01:59:10:04 
M2      MSMMMOB.32                                025.0 14:48:38:22 
*FROM CLIP NAME:  B012C005_190811_R481 
*SOURCE FILE: MSMMMOB.32
010931  19Y08M11                         A     C        14:48:38:21 14:48:39:20 01:59:09:05 01:59:10:04 
*FROM CLIP NAME:  79K2/02.SYNC.01 
*SOURCE FILE: 19Y08M11
010932  19Y08M11                         A2    C        14:48:38:21 14:48:39:20 01:59:09:05 01:59:10:04 
*FROM CLIP NAME:  79K2/02.SYNC.01 
*SOURCE FILE: 19Y08M11
010933  19Y08M11                         A3    C        14:48:38:21 14:48:39:20 01:59:09:05 01:59:10:04 
*FROM CLIP NAME:  79K2/02.SYNC.01 
*SOURCE FILE: 19Y08M11
010934  19Y08M11                         A4    C        14:48:38:21 14:48:39:20 01:59:09:05 01:59:10:04 
*FROM CLIP NAME:  79K2/02.SYNC.01 
*SOURCE FILE: 19Y08M11
010935  19Y08M11                         A5    C        14:48:38:21 14:48:39:20 01:59:09:05 01:59:10:04 
*FROM CLIP NAME:  79K2/02.SYNC.01 
*PATCH 19Y08M11:  FROM SOURCE 6 TO RECORD 5 
*SOURCE FILE: 19Y08M11
010936  19Y08M11                         A6    C        14:48:38:21 14:48:39:20 01:59:09:05 01:59:10:04 
*FROM CLIP NAME:  79K2/02.SYNC.01 
*PATCH 19Y08M11:  FROM SOURCE 8 TO RECORD 6 
*SOURCE FILE: 19Y08M11
010937  19Y08M11                         A7    C        14:48:38:21 14:48:39:20 01:59:09:05 01:59:10:04 
*FROM CLIP NAME:  79K2/02.SYNC.01 
*SOURCE FILE: 19Y08M11
010938  MSMMMOB.77                       V     C        17:18:02:18 17:18:04:15 01:59:10:04 01:59:12:01 
M2      MSMMMOB.77                                025.0 17:18:02:18 
*FROM CLIP NAME:  A064C008_190811_R32C 
*SOURCE FILE: MSMMMOB.77
010939  19Y08M11                         A     C        17:18:02:17 17:18:04:14 01:59:10:04 01:59:12:01 
*FROM CLIP NAME:  79K5/02.SYNC.01 
*SOURCE FILE: 19Y08M11
010940  19Y08M11                         A2    C        17:18:02:17 17:18:04:14 01:59:10:04 01:59:12:01 
*FROM CLIP NAME:  79K5/02.SYNC.01 
*SOURCE FILE: 19Y08M11
010941  19Y08M11                         A3    C        17:18:02:17 17:18:04:14 01:59:10:04 01:59:12:01 
*FROM CLIP NAME:  79K5/02.SYNC.01 
*SOURCE FILE: 19Y08M11
010942  19Y08M11                         A4    C        17:18:02:17 17:18:04:14 01:59:10:04 01:59:12:01 
*FROM CLIP NAME:  79K5/02.SYNC.01 
*SOURCE FILE: 19Y08M11
010943  19Y08M11                         A5    C        17:18:02:17 17:18:04:14 01:59:10:04 01:59:12:01 
*FROM CLIP NAME:  79K5/02.SYNC.01 
*PATCH 19Y08M11:  FROM SOURCE 6 TO RECORD 5 
*SOURCE FILE: 19Y08M11
010944  19Y08M11                         A6    C        17:18:02:17 17:18:04:14 01:59:10:04 01:59:12:01 
*FROM CLIP NAME:  79K5/02.SYNC.01 
*PATCH 19Y08M11:  FROM SOURCE 8 TO RECORD 6 
*SOURCE FILE: 19Y08M11
010945  19Y08M11                         A7    C        17:18:02:17 17:18:04:14 01:59:10:04 01:59:12:01 
*FROM CLIP NAME:  79K5/02.SYNC.01 
*SOURCE FILE: 19Y08M11
010946  19Y08M11                         A     C        14:48:42:07 14:48:43:11 01:59:12:01 01:59:13:05 
*FROM CLIP NAME:  79K2/02.SYNC.01 
*SOURCE FILE: 19Y08M11
010947  19Y08M11                         A2    C        14:48:42:07 14:48:43:11 01:59:12:01 01:59:13:05 
*FROM CLIP NAME:  79K2/02.SYNC.01 
*SOURCE FILE: 19Y08M11
010948  19Y08M11                         A3    C        14:48:42:07 14:48:43:11 01:59:12:01 01:59:13:05 
*FROM CLIP NAME:  79K2/02.SYNC.01 
*SOURCE FILE: 19Y08M11
010949  19Y08M11                         A4    C        14:48:42:07 14:48:43:11 01:59:12:01 01:59:13:05 
*FROM CLIP NAME:  79K2/02.SYNC.01 
*SOURCE FILE: 19Y08M11
010950  19Y08M11                         A5    C        14:48:42:07 14:48:43:11 01:59:12:01 01:59:13:05 
*FROM CLIP NAME:  79K2/02.SYNC.01 
*PATCH 19Y08M11:  FROM SOURCE 6 TO RECORD 5 
*SOURCE FILE: 19Y08M11
010951  19Y08M11                         A6    C        14:48:42:07 14:48:43:11 01:59:12:01 01:59:13:05 
*FROM CLIP NAME:  79K2/02.SYNC.01 
*PATCH 19Y08M11:  FROM SOURCE 8 TO RECORD 6 
*SOURCE FILE: 19Y08M11
010952  19Y08M11                         A7    C        14:48:42:07 14:48:43:11 01:59:12:01 01:59:13:05 
*FROM CLIP NAME:  79K2/02.SYNC.01 
*SOURCE FILE: 19Y08M11
010953  MSMMMOB.67                       V     C        14:48:42:08 14:48:45:23 01:59:12:01 01:59:15:16 
M2      MSMMMOB.67                                025.0 14:48:42:08 
*FROM CLIP NAME:  A063C012_190811_R32C 
*SOURCE FILE: MSMMMOB.67
010954  19Y08M11                         A     C        14:48:43:11 14:48:45:22 01:59:13:05 01:59:15:16 
*FROM CLIP NAME:  79K2/02.SYNC.01 
*SOURCE FILE: 19Y08M11
010955  19Y08M11                         A2    C        14:48:43:11 14:48:45:22 01:59:13:05 01:59:15:16 
*FROM CLIP NAME:  79K2/02.SYNC.01 
*SOURCE FILE: 19Y08M11
010956  19Y08M11                         A3    C        14:48:43:11 14:48:45:22 01:59:13:05 01:59:15:16 
*FROM CLIP NAME:  79K2/02.SYNC.01 
*SOURCE FILE: 19Y08M11
010957  19Y08M11                         A4    C        14:48:43:11 14:48:45:22 01:59:13:05 01:59:15:16 
*FROM CLIP NAME:  79K2/02.SYNC.01 
*SOURCE FILE: 19Y08M11
010958  19Y08M11                         A5    C        14:48:43:11 14:48:45:22 01:59:13:05 01:59:15:16 
*FROM CLIP NAME:  79K2/02.SYNC.01 
*PATCH 19Y08M11:  FROM SOURCE 6 TO RECORD 5 
*SOURCE FILE: 19Y08M11
010959  19Y08M11                         A6    C        14:48:43:11 14:48:45:22 01:59:13:05 01:59:15:16 
*FROM CLIP NAME:  79K2/02.SYNC.01 
*PATCH 19Y08M11:  FROM SOURCE 8 TO RECORD 6 
*SOURCE FILE: 19Y08M11
010960  19Y08M11                         A7    C        14:48:43:11 14:48:45:22 01:59:13:05 01:59:15:16 
*FROM CLIP NAME:  79K2/02.SYNC.01 
*SOURCE FILE: 19Y08M11
010961  MSMMMOB.35                       V     C        17:31:00:00 17:31:02:18 01:59:15:16 01:59:18:09 
M2      MSMMMOB.35                                025.0 17:31:00:00 
*FROM CLIP NAME:  B013C008_190811_R481 
*SOURCE FILE: MSMMMOB.35
010962  19Y08M11                         A     C        17:30:59:24 17:31:02:17 01:59:15:16 01:59:18:09 
*FROM CLIP NAME:  79K7/02.SYNC.01 
*SOURCE FILE: 19Y08M11
010963  19Y08M11                         A2    C        17:30:59:24 17:31:02:17 01:59:15:16 01:59:18:09 
*FROM CLIP NAME:  79K7/02.SYNC.01 
*SOURCE FILE: 19Y08M11
010964  19Y08M11                         A3    C        17:30:59:24 17:31:02:17 01:59:15:16 01:59:18:09 
*FROM CLIP NAME:  79K7/02.SYNC.01 
*A3 VOL =  +7.0 DB  PAN R100 
*SOURCE FILE: 19Y08M11
010965  19Y08M11                         A4    C        17:30:59:24 17:31:02:17 01:59:15:16 01:59:18:09 
*FROM CLIP NAME:  79K7/02.SYNC.01 
*SOURCE FILE: 19Y08M11
010966  19Y08M11                         A5    C        17:30:59:24 17:31:02:17 01:59:15:16 01:59:18:09 
*FROM CLIP NAME:  79K7/02.SYNC.01 
*PATCH 19Y08M11:  FROM SOURCE 6 TO RECORD 5 
*SOURCE FILE: 19Y08M11
010967  19Y08M11                         A6    C        17:30:59:24 17:31:02:17 01:59:15:16 01:59:18:09 
*FROM CLIP NAME:  79K7/02.SYNC.01 
*PATCH 19Y08M11:  FROM SOURCE 8 TO RECORD 6 
*SOURCE FILE: 19Y08M11
010968  19Y08M11                         A7    C        17:30:59:24 17:31:02:17 01:59:15:16 01:59:18:09 
*FROM CLIP NAME:  79K7/02.SYNC.01 
*SOURCE FILE: 19Y08M11
010969  19Y08M11                         A     C        14:48:49:10 14:48:51:09 01:59:18:09 01:59:20:08 
*FROM CLIP NAME:  79K2/02.SYNC.01 
*SOURCE FILE: 19Y08M11
010970  19Y08M11                         A2    C        14:48:49:10 14:48:51:09 01:59:18:09 01:59:20:08 
*FROM CLIP NAME:  79K2/02.SYNC.01 
*SOURCE FILE: 19Y08M11
010971  19Y08M11                         A3    C        14:48:49:10 14:48:51:09 01:59:18:09 01:59:20:08 
*FROM CLIP NAME:  79K2/02.SYNC.01 
*SOURCE FILE: 19Y08M11
010972  19Y08M11                         A4    C        14:48:49:10 14:48:51:09 01:59:18:09 01:59:20:08 
*FROM CLIP NAME:  79K2/02.SYNC.01 
*SOURCE FILE: 19Y08M11
010973  19Y08M11                         A5    C        14:48:49:10 14:48:51:09 01:59:18:09 01:59:20:08 
*FROM CLIP NAME:  79K2/02.SYNC.01 
*PATCH 19Y08M11:  FROM SOURCE 6 TO RECORD 5 
*SOURCE FILE: 19Y08M11
010974  19Y08M11                         A6    C        14:48:49:10 14:48:51:09 01:59:18:09 01:59:20:08 
*FROM CLIP NAME:  79K2/02.SYNC.01 
*PATCH 19Y08M11:  FROM SOURCE 8 TO RECORD 6 
*SOURCE FILE: 19Y08M11
010975  19Y08M11                         A7    C        14:48:49:10 14:48:51:09 01:59:18:09 01:59:20:08 
*FROM CLIP NAME:  79K2/02.SYNC.01 
*SOURCE FILE: 19Y08M11
010976  MSMMMOB.67                       V     C        14:48:49:11 14:48:52:14 01:59:18:09 01:59:21:12 
M2      MSMMMOB.67                                025.0 14:48:49:11 
*FROM CLIP NAME:  A063C012_190811_R32C 
*SOURCE FILE: MSMMMOB.67
010977  19Y08M11                         A     C        17:31:04:05 17:31:07:19 01:59:20:08 01:59:23:22 
*FROM CLIP NAME:  79K7/02.SYNC.01 
*SOURCE FILE: 19Y08M11
010978  19Y08M11                         A2    C        17:31:04:05 17:31:07:19 01:59:20:08 01:59:23:22 
*FROM CLIP NAME:  79K7/02.SYNC.01 
*SOURCE FILE: 19Y08M11
010979  19Y08M11                         A3    C        17:31:04:05 17:31:07:19 01:59:20:08 01:59:23:22 
*FROM CLIP NAME:  79K7/02.SYNC.01 
*A3 VOL =  +4.0 DB  PAN R100 
*SOURCE FILE: 19Y08M11
010980  19Y08M11                         A4    C        17:31:04:05 17:31:07:19 01:59:20:08 01:59:23:22 
*FROM CLIP NAME:  79K7/02.SYNC.01 
*SOURCE FILE: 19Y08M11
010981  19Y08M11                         A5    C        17:31:04:05 17:31:07:19 01:59:20:08 01:59:23:22 
*FROM CLIP NAME:  79K7/02.SYNC.01 
*PATCH 19Y08M11:  FROM SOURCE 6 TO RECORD 5 
*SOURCE FILE: 19Y08M11
010982  19Y08M11                         A6    C        17:31:04:05 17:31:07:19 01:59:20:08 01:59:23:22 
*FROM CLIP NAME:  79K7/02.SYNC.01 
*PATCH 19Y08M11:  FROM SOURCE 8 TO RECORD 6 
*SOURCE FILE: 19Y08M11
010983  19Y08M11                         A7    C        17:31:04:05 17:31:07:19 01:59:20:08 01:59:23:22 
*FROM CLIP NAME:  79K7/02.SYNC.01 
*SOURCE FILE: 19Y08M11
010984  MSMMMOB.35                       V     C        17:31:05:10 17:31:07:20 01:59:21:12 01:59:23:22 
M2      MSMMMOB.35                                025.0 17:31:05:10 
*FROM CLIP NAME:  B013C008_190811_R481 
*SOURCE FILE: MSMMMOB.35
010985  19Y08M11                         A8    C        17:27:18:04 17:27:18:20 01:59:22:21 01:59:23:12 
*FROM CLIP NAME:  79K6/02.SYNC.01 
*A8 VOL =  +8.0 DB  PAN L100 
*SOURCE FILE: 19Y08M11
010986  19Y08M11                         A9    C        17:27:18:04 17:27:18:20 01:59:22:21 01:59:23:12 
*FROM CLIP NAME:  79K6/02.SYNC.01 
*PATCH 19Y08M11:  FROM SOURCE 1 TO RECORD 9 
*SOURCE FILE: 19Y08M11
010987  19Y08M11                         A10   C        17:27:18:04 17:27:18:20 01:59:22:21 01:59:23:12 
*FROM CLIP NAME:  79K6/02.SYNC.01 
*PATCH 19Y08M11:  FROM SOURCE 2 TO RECORD 10 
*SOURCE FILE: 19Y08M11
010988  19Y08M11                         A11   C        17:27:18:04 17:27:18:20 01:59:22:21 01:59:23:12 
*FROM CLIP NAME:  79K6/02.SYNC.01 
*PATCH 19Y08M11:  FROM SOURCE 3 TO RECORD 11 
*SOURCE FILE: 19Y08M11
010989  19Y08M11                         A12   C        17:27:18:04 17:27:18:20 01:59:22:21 01:59:23:12 
*FROM CLIP NAME:  79K6/02.SYNC.01 
*PATCH 19Y08M11:  FROM SOURCE 4 TO RECORD 12 
*SOURCE FILE: 19Y08M11
010990  19Y08M11                         A13   C        17:27:18:04 17:27:18:20 01:59:22:21 01:59:23:12 
*FROM CLIP NAME:  79K6/02.SYNC.01 
*PATCH 19Y08M11:  FROM SOURCE 7 TO RECORD 13 
*SOURCE FILE: 19Y08M11
010991  MSMMMOB.67                       V     C        14:48:57:05 14:48:58:17 01:59:23:22 01:59:25:09 
M2      MSMMMOB.67                                025.0 14:48:57:05 
*FROM CLIP NAME:  A063C012_190811_R32C 
*SOURCE FILE: MSMMMOB.67
010992  19Y08M11                         A     C        17:27:19:06 17:27:25:20 01:59:23:22 01:59:30:11 
*FROM CLIP NAME:  79K6/02.SYNC.01 
*SOURCE FILE: 19Y08M11
010993  19Y08M11                         A2    C        17:27:19:06 17:27:25:20 01:59:23:22 01:59:30:11 
*FROM CLIP NAME:  79K6/02.SYNC.01 
*SOURCE FILE: 19Y08M11
010994  19Y08M11                         A3    C        17:27:19:06 17:27:25:20 01:59:23:22 01:59:30:11 
*FROM CLIP NAME:  79K6/02.SYNC.01 
*SOURCE FILE: 19Y08M11
010995  19Y08M11                         A4    C        17:27:19:06 17:27:25:20 01:59:23:22 01:59:30:11 
*FROM CLIP NAME:  79K6/02.SYNC.01 
*SOURCE FILE: 19Y08M11
010996  19Y08M11                         A5    C        17:27:19:06 17:27:25:20 01:59:23:22 01:59:30:11 
*FROM CLIP NAME:  79K6/02.SYNC.01 
*PATCH 19Y08M11:  FROM SOURCE 6 TO RECORD 5 
*SOURCE FILE: 19Y08M11
010997  19Y08M11                         A6    C        17:27:19:06 17:27:25:20 01:59:23:22 01:59:30:11 
*FROM CLIP NAME:  79K6/02.SYNC.01 
*A6 VOL =  +7.0 DB  PAN L100 
*PATCH 19Y08M11:  FROM SOURCE 8 TO RECORD 6 
*SOURCE FILE: 19Y08M11
010998  19Y08M11                         A7    C        17:27:19:06 17:27:25:20 01:59:23:22 01:59:30:11 
*FROM CLIP NAME:  79K6/02.SYNC.01 
*SOURCE FILE: 19Y08M11
010999  MSMMMOB.73                       V     C        17:27:20:19 17:27:23:11 01:59:25:09 01:59:28:01 
M2      MSMMMOB.73                                025.0 17:27:20:19 
*FROM CLIP NAME:  B013C006_190811_R481 
*SOURCE FILE: MSMMMOB.73
011000  GLDR-APN-390_COMP_V001           V     C        00:00:00:00 00:00:02:10 01:59:28:01 01:59:30:11 
*FROM CLIP NAME:  GLDR-APN-390_COMP_V001 
*SOURCE FILE: GLDR-APN-390_COMP_V001
011001  MSMMMOB.15                       V     C        17:27:23:11 17:27:25:21 01:59:28:01 01:59:30:11 
M2      MSMMMOB.15                                025.0 17:27:23:11 
*FROM CLIP NAME:  A064C010_190811_R32C 
*SOURCE FILE: MSMMMOB.15
011002  19Y08M11                         A     C        17:27:26:18 17:27:27:22 01:59:30:11 01:59:31:15 
*FROM CLIP NAME:  79K6/02.SYNC.01 
*SOURCE FILE: 19Y08M11
011003  19Y08M11                         A2    C        17:27:26:18 17:27:27:22 01:59:30:11 01:59:31:15 
*FROM CLIP NAME:  79K6/02.SYNC.01 
*SOURCE FILE: 19Y08M11
011004  19Y08M11                         A3    C        17:27:26:18 17:27:27:22 01:59:30:11 01:59:31:15 
*FROM CLIP NAME:  79K6/02.SYNC.01 
*SOURCE FILE: 19Y08M11
011005  19Y08M11                         A4    C        17:27:26:18 17:27:27:22 01:59:30:11 01:59:31:15 
*FROM CLIP NAME:  79K6/02.SYNC.01 
*SOURCE FILE: 19Y08M11
011006  19Y08M11                         A5    C        17:27:26:18 17:27:27:22 01:59:30:11 01:59:31:15 
*FROM CLIP NAME:  79K6/02.SYNC.01 
*PATCH 19Y08M11:  FROM SOURCE 6 TO RECORD 5 
*SOURCE FILE: 19Y08M11
011007  19Y08M11                         A6    C        17:27:26:18 17:27:27:22 01:59:30:11 01:59:31:15 
*FROM CLIP NAME:  79K6/02.SYNC.01 
*A6 VOL =  +8.0 DB  PAN L100 
*PATCH 19Y08M11:  FROM SOURCE 8 TO RECORD 6 
*SOURCE FILE: 19Y08M11
011008  19Y08M11                         A7    C        17:27:26:18 17:27:27:22 01:59:30:11 01:59:31:15 
*FROM CLIP NAME:  79K6/02.SYNC.01 
*SOURCE FILE: 19Y08M11
011009  BL                               V     C        00:00:00:00 00:00:02:24 01:59:30:11 01:59:33:10 
*SOURCE FILE: (NULL)
011010  MSMMMOB.67                       V     C        14:49:04:05 14:49:07:04 01:59:30:11 01:59:33:10 
M2      MSMMMOB.67                                025.0 14:49:04:05 
*FROM CLIP NAME:  A063C012_190811_R32C 
*SOURCE FILE: MSMMMOB.67
011011  19Y08M11                         A     C        14:49:05:08 14:49:08:06 01:59:31:15 01:59:34:13 
*FROM CLIP NAME:  79K2/02.SYNC.01 
*SOURCE FILE: 19Y08M11
011012  19Y08M11                         A2    C        14:49:05:08 14:49:08:06 01:59:31:15 01:59:34:13 
*FROM CLIP NAME:  79K2/02.SYNC.01 
*SOURCE FILE: 19Y08M11
011013  19Y08M11                         A3    C        14:49:05:08 14:49:08:06 01:59:31:15 01:59:34:13 
*FROM CLIP NAME:  79K2/02.SYNC.01 
*SOURCE FILE: 19Y08M11
011014  19Y08M11                         A4    C        14:49:05:08 14:49:08:06 01:59:31:15 01:59:34:13 
*FROM CLIP NAME:  79K2/02.SYNC.01 
*SOURCE FILE: 19Y08M11
011015  19Y08M11                         A5    C        14:49:05:08 14:49:08:06 01:59:31:15 01:59:34:13 
*FROM CLIP NAME:  79K2/02.SYNC.01 
*PATCH 19Y08M11:  FROM SOURCE 6 TO RECORD 5 
*SOURCE FILE: 19Y08M11
011016  19Y08M11                         A6    C        14:49:05:08 14:49:08:06 01:59:31:15 01:59:34:13 
*FROM CLIP NAME:  79K2/02.SYNC.01 
*PATCH 19Y08M11:  FROM SOURCE 8 TO RECORD 6 
*SOURCE FILE: 19Y08M11
011017  19Y08M11                         A7    C        14:49:05:08 14:49:08:06 01:59:31:15 01:59:34:13 
*FROM CLIP NAME:  79K2/02.SYNC.01 
*A7 VOL =  +7.0 DB  PAN R100 
*SOURCE FILE: 19Y08M11
011019  MSMMMOB.15                       V     C        17:27:30:02 17:27:31:05 01:59:33:10 01:59:34:13 
M2      MSMMMOB.15                                025.0 17:27:30:02 
*FROM CLIP NAME:  A064C010_190811_R32C 
*SOURCE FILE: MSMMMOB.15
011018  GLDR-APN-400_COMP_V001           V     C        00:00:00:00 00:00:01:03 01:59:33:10 01:59:34:13 
*FROM CLIP NAME:  GLDR-APN-400_COMP_V001 
*SOURCE FILE: GLDR-APN-400_COMP_V001
011020  _GARY_MOORE_STILL_GOT_THE_BLUES_ A16   C        01:01:48:13 01:01:48:13 01:59:33:22 01:59:33:22 
011020  BL                               A16   D    187 00:00:00:00 00:00:07:12 01:59:33:22 01:59:41:09 
*, D-VERB 
*FROM CLIP NAME:  _GARY MOORE STILL GOT THE BLUES KAVKAZ STYLE.WAV 
*A16 VOL =  -8.5 DB  PAN L100 
*PATCH _GARY_MOORE_STILL_GOT_THE_BLUES_:  FROM SOURCE 2 TO RECORD 16 
*SOURCE FILE: _GARY MOORE STILL GOT THE BLUES KAVKAZ STYLE.WAV
011021  _GARY_MOORE_STILL_GOT_THE_BLUES_ A17   C        01:01:48:13 01:01:48:13 01:59:33:22 01:59:33:22 
011021  BL                               A17   D    187 00:00:00:00 00:00:07:12 01:59:33:22 01:59:41:09 
*, D-VERB 
*FROM CLIP NAME:  _GARY MOORE STILL GOT THE BLUES KAVKAZ STYLE.WAV 
*A17 VOL =  -8.5 DB  PAN R100 
*PATCH _GARY_MOORE_STILL_GOT_THE_BLUES_:  FROM SOURCE 1 TO RECORD 17 
*SOURCE FILE: _GARY MOORE STILL GOT THE BLUES KAVKAZ STYLE.WAV
011022  MSMMMOB.67                       V     C        14:49:08:18 14:49:10:06 01:59:34:13 01:59:36:01 
M2      MSMMMOB.67                                025.0 14:49:08:18 
*FROM CLIP NAME:  A063C012_190811_R32C 
*SOURCE FILE: MSMMMOB.67
011023  19Y08M11                         A     C        14:49:08:17 14:49:10:05 01:59:34:13 01:59:36:01 
*FROM CLIP NAME:  79K2/02.SYNC.01 
*SOURCE FILE: 19Y08M11
011024  19Y08M11                         A2    C        14:49:08:17 14:49:10:05 01:59:34:13 01:59:36:01 
*FROM CLIP NAME:  79K2/02.SYNC.01 
*SOURCE FILE: 19Y08M11
011025  19Y08M11                         A3    C        14:49:08:17 14:49:10:05 01:59:34:13 01:59:36:01 
*FROM CLIP NAME:  79K2/02.SYNC.01 
*SOURCE FILE: 19Y08M11
011026  19Y08M11                         A4    C        14:49:08:17 14:49:10:05 01:59:34:13 01:59:36:01 
*FROM CLIP NAME:  79K2/02.SYNC.01 
*A4 VOL =  +7.3 DB  PAN L100 
*SOURCE FILE: 19Y08M11
011027  19Y08M11                         A5    C        14:49:08:17 14:49:10:05 01:59:34:13 01:59:36:01 
*FROM CLIP NAME:  79K2/02.SYNC.01 
*PATCH 19Y08M11:  FROM SOURCE 6 TO RECORD 5 
*SOURCE FILE: 19Y08M11
011028  19Y08M11                         A6    C        14:49:08:17 14:49:10:05 01:59:34:13 01:59:36:01 
*FROM CLIP NAME:  79K2/02.SYNC.01 
*PATCH 19Y08M11:  FROM SOURCE 8 TO RECORD 6 
*SOURCE FILE: 19Y08M11
011029  19Y08M11                         A7    C        14:49:08:17 14:49:10:05 01:59:34:13 01:59:36:01 
*FROM CLIP NAME:  79K2/02.SYNC.01 
*SOURCE FILE: 19Y08M11
011030  BL                               V     C        00:00:00:00 00:01:20:07 01:59:34:13 02:00:54:20 
*SOURCE FILE: (NULL)
011031  MSMMMOB.35                       V     C        17:31:22:13 17:31:24:09 01:59:36:01 01:59:37:22 
M2      MSMMMOB.35                                025.0 17:31:22:13 
*FROM CLIP NAME:  B013C008_190811_R481 
*SOURCE FILE: MSMMMOB.35
011032  19Y08M11                         A     C        17:31:22:12 17:31:24:08 01:59:36:01 01:59:37:22 
*FROM CLIP NAME:  79K7/02.SYNC.01 
*SOURCE FILE: 19Y08M11
011033  19Y08M11                         A2    C        17:31:22:12 17:31:24:08 01:59:36:01 01:59:37:22 
*FROM CLIP NAME:  79K7/02.SYNC.01 
*SOURCE FILE: 19Y08M11
011034  19Y08M11                         A3    C        17:31:22:12 17:31:24:08 01:59:36:01 01:59:37:22 
*FROM CLIP NAME:  79K7/02.SYNC.01 
*A3 VOL =  +5.8 DB  PAN R100 
*SOURCE FILE: 19Y08M11
011035  19Y08M11                         A4    C        17:31:22:12 17:31:24:08 01:59:36:01 01:59:37:22 
*FROM CLIP NAME:  79K7/02.SYNC.01 
*SOURCE FILE: 19Y08M11
011036  19Y08M11                         A5    C        17:31:22:12 17:31:24:08 01:59:36:01 01:59:37:22 
*FROM CLIP NAME:  79K7/02.SYNC.01 
*PATCH 19Y08M11:  FROM SOURCE 6 TO RECORD 5 
*SOURCE FILE: 19Y08M11
011037  19Y08M11                         A6    C        17:31:22:12 17:31:24:08 01:59:36:01 01:59:37:22 
*FROM CLIP NAME:  79K7/02.SYNC.01 
*PATCH 19Y08M11:  FROM SOURCE 8 TO RECORD 6 
*SOURCE FILE: 19Y08M11
011038  19Y08M11                         A7    C        17:31:22:12 17:31:24:08 01:59:36:01 01:59:37:22 
*FROM CLIP NAME:  79K7/02.SYNC.01 
*SOURCE FILE: 19Y08M11
011039  MSMMMOB.49                       V     C        15:19:41:19 15:19:43:24 01:59:37:22 01:59:40:02 
M2      MSMMMOB.49                                025.0 15:19:41:19 
*FROM CLIP NAME:  B013C002_190811_R481 
*SOURCE FILE: MSMMMOB.49
011040  19Y08M11                         A5    C        15:19:41:19 15:19:45:20 01:59:37:22 01:59:41:23 
*FROM CLIP NAME:  79K3/02.SYNC.01 
*A5 VOL =  -1.9 DB  PAN R100 
*PATCH 19Y08M11:  FROM SOURCE 6 TO RECORD 5 
*SOURCE FILE: 19Y08M11
011041  19Y08M11                         A     C        15:19:41:19 15:19:49:06 01:59:37:22 01:59:45:09 
*FROM CLIP NAME:  79K3/02.SYNC.01 
*SOURCE FILE: 19Y08M11
011042  19Y08M11                         A2    C        15:19:41:19 15:19:49:06 01:59:37:22 01:59:45:09 
*FROM CLIP NAME:  79K3/02.SYNC.01 
*SOURCE FILE: 19Y08M11
011043  19Y08M11                         A3    C        15:19:41:19 15:19:49:06 01:59:37:22 01:59:45:09 
*FROM CLIP NAME:  79K3/02.SYNC.01 
*SOURCE FILE: 19Y08M11
011044  19Y08M11                         A4    C        15:19:41:19 15:19:49:06 01:59:37:22 01:59:45:09 
*FROM CLIP NAME:  79K3/02.SYNC.01 
*A4 VOL =  +7.0 DB  PAN L100 
*SOURCE FILE: 19Y08M11
011045  19Y08M11                         A6    C        15:19:41:19 15:19:49:06 01:59:37:22 01:59:45:09 
*FROM CLIP NAME:  79K3/02.SYNC.01 
*PATCH 19Y08M11:  FROM SOURCE 8 TO RECORD 6 
*SOURCE FILE: 19Y08M11
011046  19Y08M11                         A7    C        15:19:41:19 15:19:49:06 01:59:37:22 01:59:45:09 
*FROM CLIP NAME:  79K3/02.SYNC.01 
*SOURCE FILE: 19Y08M11
011047  MSMMMOB.73                       V     C        17:27:37:06 17:27:39:10 01:59:40:02 01:59:42:06 
M2      MSMMMOB.73                                025.0 17:27:37:06 
*FROM CLIP NAME:  B013C006_190811_R481 
*SOURCE FILE: MSMMMOB.73
011048  19Y08M11                         A5    C        15:19:45:20 15:19:49:06 01:59:41:23 01:59:45:09 
*FROM CLIP NAME:  79K3/02.SYNC.01 
*A5 VOL =  +8.0 DB  PAN R100 
*PATCH 19Y08M11:  FROM SOURCE 6 TO RECORD 5 
*SOURCE FILE: 19Y08M11
011049  MSMMMOB.21                       V     C        15:19:46:04 15:19:49:07 01:59:42:06 01:59:45:09 
M2      MSMMMOB.21                                025.0 15:19:46:04 
*FROM CLIP NAME:  A064C002_190811_R32C 
*SOURCE FILE: MSMMMOB.21
011050  19Y08M11                         A7    C        14:49:23:24 14:49:25:11 01:59:45:09 01:59:46:21 
*FROM CLIP NAME:  79K2/02.SYNC.01 
*SOURCE FILE: 19Y08M11
011051  BL                               A8    C        00:00:00:00 00:00:00:00 01:59:45:09 01:59:45:09 
011051  19Y08M11                         A8    D    057 19:20:42:10 19:20:44:17 01:59:45:09 01:59:47:16 
*TO CLIP NAME:  80K6/01.SYNC.01 
*SOURCE FILE: (NULL)
011052  BL                               A9    C        00:00:00:00 00:00:00:00 01:59:45:09 01:59:45:09 
011052  19Y08M11                         A9    D    057 19:20:42:10 19:20:44:17 01:59:45:09 01:59:47:16 
*TO CLIP NAME:  80K6/01.SYNC.01 
*PATCH 19Y08M11:  FROM SOURCE 1 TO RECORD 9 
*SOURCE FILE: (NULL)
011053  BL                               A10   C        00:00:00:00 00:00:00:00 01:59:45:09 01:59:45:09 
011053  19Y08M11                         A10   D    057 19:20:42:10 19:20:44:17 01:59:45:09 01:59:47:16 
*TO CLIP NAME:  80K6/01.SYNC.01 
*PATCH 19Y08M11:  FROM SOURCE 2 TO RECORD 10 
*SOURCE FILE: (NULL)
011054  BL                               A11   C        00:00:00:00 00:00:00:00 01:59:45:09 01:59:45:09 
011054  19Y08M11                         A11   D    057 19:20:42:10 19:20:44:17 01:59:45:09 01:59:47:16 
*TO CLIP NAME:  80K6/01.SYNC.01 
*PATCH 19Y08M11:  FROM SOURCE 3 TO RECORD 11 
*SOURCE FILE: (NULL)
011055  BL                               A12   C        00:00:00:00 00:00:00:00 01:59:45:09 01:59:45:09 
011055  19Y08M11                         A12   D    057 19:20:42:10 19:20:44:17 01:59:45:09 01:59:47:16 
*TO CLIP NAME:  80K6/01.SYNC.01 
*PATCH 19Y08M11:  FROM SOURCE 4 TO RECORD 12 
*SOURCE FILE: (NULL)
011056  BL                               A13   C        00:00:00:00 00:00:00:00 01:59:45:09 01:59:45:09 
011056  19Y08M11                         A13   D    057 19:20:42:10 19:20:44:17 01:59:45:09 01:59:47:16 
*TO CLIP NAME:  80K6/01.SYNC.01 
*PATCH 19Y08M11:  FROM SOURCE 5 TO RECORD 13 
*SOURCE FILE: (NULL)
011057  MSMMMOB.32                       V     C        14:49:24:00 14:49:27:19 01:59:45:09 01:59:49:03 
M2      MSMMMOB.32                                025.0 14:49:24:00 
*FROM CLIP NAME:  B012C005_190811_R481 
*SOURCE FILE: MSMMMOB.32
011058  19Y08M11                         A     C        14:49:23:24 14:49:27:18 01:59:45:09 01:59:49:03 
*FROM CLIP NAME:  79K2/02.SYNC.01 
*SOURCE FILE: 19Y08M11
011059  19Y08M11                         A2    C        14:49:23:24 14:49:27:18 01:59:45:09 01:59:49:03 
*FROM CLIP NAME:  79K2/02.SYNC.01 
*SOURCE FILE: 19Y08M11
011060  19Y08M11                         A3    C        14:49:23:24 14:49:27:18 01:59:45:09 01:59:49:03 
*FROM CLIP NAME:  79K2/02.SYNC.01 
*SOURCE FILE: 19Y08M11
011061  19Y08M11                         A4    C        14:49:23:24 14:49:27:18 01:59:45:09 01:59:49:03 
*FROM CLIP NAME:  79K2/02.SYNC.01 
*SOURCE FILE: 19Y08M11
011062  19Y08M11                         A5    C        14:49:23:24 14:49:27:18 01:59:45:09 01:59:49:03 
*FROM CLIP NAME:  79K2/02.SYNC.01 
*PATCH 19Y08M11:  FROM SOURCE 6 TO RECORD 5 
*SOURCE FILE: 19Y08M11
011063  19Y08M11                         A6    C        14:49:23:24 14:49:27:18 01:59:45:09 01:59:49:03 
*FROM CLIP NAME:  79K2/02.SYNC.01 
*PATCH 19Y08M11:  FROM SOURCE 8 TO RECORD 6 
*SOURCE FILE: 19Y08M11
011064  CINEMASCOPE_2-35-1_CROPLINES.PNG V     C        01:00:00:00 01:02:22:04 01:59:45:09 02:02:07:13 
*FROM CLIP NAME:  CINEMASCOPE 2-35-1 CROPLINES.PNG 
*SOURCE FILE: CINEMASCOPE 2-35-1 CROPLINES.PNG
011065  BL                               V     C        00:00:00:00 00:27:28:17 01:59:45:09 02:27:14:01 
*SOURCE FILE: (NULL)
011066  19Y08M11                         A7    C        14:49:25:11 14:49:27:18 01:59:46:21 01:59:49:03 
*FROM CLIP NAME:  79K2/02.SYNC.01 
*A7 VOL =  +5.4 DB  PAN R100 
*SOURCE FILE: 19Y08M11
011067  19Y08M11                         A9    C        19:20:44:17 19:20:46:04 01:59:47:16 01:59:49:03 
*FROM CLIP NAME:  80K6/01.SYNC.01 
*PATCH 19Y08M11:  FROM SOURCE 1 TO RECORD 9 
*SOURCE FILE: 19Y08M11
011068  19Y08M11                         A10   C        19:20:44:17 19:20:46:04 01:59:47:16 01:59:49:03 
*FROM CLIP NAME:  80K6/01.SYNC.01 
*PATCH 19Y08M11:  FROM SOURCE 2 TO RECORD 10 
*SOURCE FILE: 19Y08M11
011069  19Y08M11                         A11   C        19:20:44:17 19:20:46:04 01:59:47:16 01:59:49:03 
*FROM CLIP NAME:  80K6/01.SYNC.01 
*PATCH 19Y08M11:  FROM SOURCE 3 TO RECORD 11 
*SOURCE FILE: 19Y08M11
011070  19Y08M11                         A12   C        19:20:44:17 19:20:46:04 01:59:47:16 01:59:49:03 
*FROM CLIP NAME:  80K6/01.SYNC.01 
*PATCH 19Y08M11:  FROM SOURCE 4 TO RECORD 12 
*SOURCE FILE: 19Y08M11
011071  19Y08M11                         A13   C        19:20:44:17 19:20:46:04 01:59:47:16 01:59:49:03 
*FROM CLIP NAME:  80K6/01.SYNC.01 
*PATCH 19Y08M11:  FROM SOURCE 5 TO RECORD 13 
*SOURCE FILE: 19Y08M11
011072  19Y08M11                         A8    C        19:20:44:17 19:20:59:15 01:59:47:16 02:00:02:14 
*FROM CLIP NAME:  80K6/01.SYNC.01 
*SOURCE FILE: 19Y08M11
011073  MSMMMOB.69                       V     C        18:35:21:20 18:35:23:22 01:59:49:03 01:59:51:05 
M2      MSMMMOB.69                                025.0 18:35:21:20 
*FROM CLIP NAME:  A065C003_190811_R32C 
*SOURCE FILE: MSMMMOB.69
011074  19Y08M11                         A     C        19:20:46:04 19:20:59:15 01:59:49:03 02:00:02:14 
*FROM CLIP NAME:  80K6/01.SYNC.01 
*SOURCE FILE: 19Y08M11
011075  19Y08M11                         A2    C        19:20:46:04 19:20:59:15 01:59:49:03 02:00:02:14 
*FROM CLIP NAME:  80K6/01.SYNC.01 
*SOURCE FILE: 19Y08M11
011076  19Y08M11                         A3    C        19:20:46:04 19:20:59:15 01:59:49:03 02:00:02:14 
*FROM CLIP NAME:  80K6/01.SYNC.01 
*SOURCE FILE: 19Y08M11
011077  19Y08M11                         A4    C        19:20:46:04 19:20:59:15 01:59:49:03 02:00:02:14 
*FROM CLIP NAME:  80K6/01.SYNC.01 
*SOURCE FILE: 19Y08M11
011078  19Y08M11                         A5    C        19:20:46:04 19:20:59:15 01:59:49:03 02:00:02:14 
*FROM CLIP NAME:  80K6/01.SYNC.01 
*SOURCE FILE: 19Y08M11
011079  19Y08M11                         A6    C        19:20:46:04 19:20:59:15 01:59:49:03 02:00:02:14 
*FROM CLIP NAME:  80K6/01.SYNC.01 
*SOURCE FILE: 19Y08M11
011080  19Y08M11                         A7    C        19:20:46:04 19:20:59:15 01:59:49:03 02:00:02:14 
*FROM CLIP NAME:  80K6/01.SYNC.01 
*SOURCE FILE: 19Y08M11
011081  MSMMMOB.77                       V     C        17:18:50:00 17:18:51:10 01:59:51:05 01:59:52:15 
M2      MSMMMOB.77                                025.0 17:18:50:00 
*FROM CLIP NAME:  A064C008_190811_R32C 
*SOURCE FILE: MSMMMOB.77
011082  MSMMMOB.44                       V     C        19:20:49:17 19:20:53:16 01:59:52:15 01:59:56:14 
M2      MSMMMOB.44                                025.0 19:20:49:17 
*FROM CLIP NAME:  A065C009_190811_R32C 
*SOURCE FILE: MSMMMOB.44
011083  MSMMMOB.57                       V     C        18:23:18:10 18:23:21:06 01:59:56:14 01:59:59:10 
M2      MSMMMOB.57                                025.0 18:23:18:10 
*FROM CLIP NAME:  B014C003_190811_R481 
*SOURCE FILE: MSMMMOB.57
011084  MSMMMOB.61                       V     C        18:50:06:03 18:50:07:24 01:59:59:10 02:00:01:06 
M2      MSMMMOB.61                                025.0 18:50:06:03 
*FROM CLIP NAME:  B014C008_190811_R481 
*SOURCE FILE: MSMMMOB.61
011085  MSMMMOB.07                       V     C        18:23:22:01 18:23:25:12 02:00:01:06 02:00:04:17 
M2      MSMMMOB.07                                025.0 18:23:22:01 
*FROM CLIP NAME:  A065C002_190811_R32C 
*SOURCE FILE: MSMMMOB.07
011086  19Y08M11                         A     C        18:50:09:02 18:50:55:18 02:00:02:14 02:00:49:05 
*FROM CLIP NAME:  80K4/04.SYNC.01 
*SOURCE FILE: 19Y08M11
011087  19Y08M11                         A2    C        18:50:09:02 18:50:55:18 02:00:02:14 02:00:49:05 
*FROM CLIP NAME:  80K4/04.SYNC.01 
*SOURCE FILE: 19Y08M11
011088  19Y08M11                         A3    C        18:50:09:02 18:50:55:18 02:00:02:14 02:00:49:05 
*FROM CLIP NAME:  80K4/04.SYNC.01 
*SOURCE FILE: 19Y08M11
011089  19Y08M11                         A4    C        18:50:09:02 18:50:55:18 02:00:02:14 02:00:49:05 
*FROM CLIP NAME:  80K4/04.SYNC.01 
*SOURCE FILE: 19Y08M11
011090  19Y08M11                         A5    C        18:50:09:02 18:50:55:18 02:00:02:14 02:00:49:05 
*FROM CLIP NAME:  80K4/04.SYNC.01 
*PATCH 19Y08M11:  FROM SOURCE 6 TO RECORD 5 
*SOURCE FILE: 19Y08M11
011091  MSMMMOB.61                       V     C        18:50:11:06 18:50:15:08 02:00:04:17 02:00:08:19 
M2      MSMMMOB.61                                025.0 18:50:11:06 
*FROM CLIP NAME:  B014C008_190811_R481 
*SOURCE FILE: MSMMMOB.61
011092  MSMMMOB.39                       V     C        18:06:36:05 18:06:38:21 02:00:08:19 02:00:11:10 
M2      MSMMMOB.39                                025.0 18:06:36:05 
*FROM CLIP NAME:  B014C001_190811_R481 
*SOURCE FILE: MSMMMOB.39
011093  MSMMMOB.41                       V     C        19:32:20:24 19:32:22:12 02:00:11:10 02:00:12:23 
M2      MSMMMOB.41                                025.0 19:32:20:24 
*FROM CLIP NAME:  B015C004_190811_R481 
*SOURCE FILE: MSMMMOB.41
011094  MSMMMOB.45                       V     C        19:23:55:12 19:23:57:09 02:00:12:23 02:00:14:20 
M2      MSMMMOB.45                                025.0 19:23:55:12 
*FROM CLIP NAME:  B015C003_190811_R481 
*SOURCE FILE: MSMMMOB.45
011095  19Y08M11                         A6    C        19:23:55:23 19:23:57:02 02:00:13:10 02:00:14:14 
*FROM CLIP NAME:  80K7/01.SYNC.01 
*SOURCE FILE: 19Y08M11
011096  19Y08M11                         A7    C        19:23:55:23 19:23:57:02 02:00:13:10 02:00:14:14 
*FROM CLIP NAME:  80K7/01.SYNC.01 
*SOURCE FILE: 19Y08M11
011097  19Y08M11                         A8    C        19:23:55:23 19:23:57:02 02:00:13:10 02:00:14:14 
*FROM CLIP NAME:  80K7/01.SYNC.01 
*SOURCE FILE: 19Y08M11
011098  19Y08M11                         A9    C        19:23:55:23 19:23:57:02 02:00:13:10 02:00:14:14 
*FROM CLIP NAME:  80K7/01.SYNC.01 
*PATCH 19Y08M11:  FROM SOURCE 1 TO RECORD 9 
*SOURCE FILE: 19Y08M11
011099  19Y08M11                         A10   C        19:23:55:23 19:23:57:02 02:00:13:10 02:00:14:14 
*FROM CLIP NAME:  80K7/01.SYNC.01 
*PATCH 19Y08M11:  FROM SOURCE 2 TO RECORD 10 
*SOURCE FILE: 19Y08M11
011100  19Y08M11                         A11   C        19:23:55:23 19:23:57:02 02:00:13:10 02:00:14:14 
*FROM CLIP NAME:  80K7/01.SYNC.01 
*PATCH 19Y08M11:  FROM SOURCE 3 TO RECORD 11 
*SOURCE FILE: 19Y08M11
011101  19Y08M11                         A12   C        19:23:55:23 19:23:57:02 02:00:13:10 02:00:14:14 
*FROM CLIP NAME:  80K7/01.SYNC.01 
*PATCH 19Y08M11:  FROM SOURCE 4 TO RECORD 12 
*SOURCE FILE: 19Y08M11
011102  19Y08M11                         A13   C        19:23:55:23 19:23:57:02 02:00:13:10 02:00:14:14 
*FROM CLIP NAME:  80K7/01.SYNC.01 
*PATCH 19Y08M11:  FROM SOURCE 5 TO RECORD 13 
*SOURCE FILE: 19Y08M11
011103  BL                               V     C        00:00:00:00 00:00:08:03 02:00:14:14 02:00:22:17 
*SOURCE FILE: (NULL)
011104  00399.MP3                        A14   C        01:00:13:14 01:00:14:02 02:00:14:18 02:00:15:06 
*FROM CLIP NAME:  00399.MP3 
*PATCH 00399.MP3:  FROM SOURCE 2 TO RECORD 14 
*SOURCE FILE: 00399.MP3
011105  00399.MP3                        A15   C        01:00:13:14 01:00:14:02 02:00:14:18 02:00:15:06 
*FROM CLIP NAME:  00399.MP3 
*PATCH 00399.MP3:  FROM SOURCE 1 TO RECORD 15 
*SOURCE FILE: 00399.MP3
011106  MSMMMOB.07                       V     C        18:23:41:03 18:23:42:16 02:00:14:20 02:00:16:08 
M2      MSMMMOB.07                                025.0 18:23:41:03 
*FROM CLIP NAME:  A065C002_190811_R32C 
*SOURCE FILE: MSMMMOB.07
011107  19Y08M11                         A6    C        19:31:41:18 19:31:45:05 02:00:15:16 02:00:19:03 
*FROM CLIP NAME:  80K8/01.SYNC.01 
*A6 VOL =  +7.0 DB  PAN L100 
*PATCH 19Y08M11:  FROM SOURCE 3 TO RECORD 6 
*SOURCE FILE: 19Y08M11
011108  00399.MP3                        A14   C        01:00:13:14 01:00:14:02 02:00:15:21 02:00:16:09 
*FROM CLIP NAME:  00399.MP3 
*PATCH 00399.MP3:  FROM SOURCE 2 TO RECORD 14 
*SOURCE FILE: 00399.MP3
011109  00399.MP3                        A15   C        01:00:13:14 01:00:14:02 02:00:15:21 02:00:16:09 
*FROM CLIP NAME:  00399.MP3 
*PATCH 00399.MP3:  FROM SOURCE 1 TO RECORD 15 
*SOURCE FILE: 00399.MP3
011110  MSMMMOB.61                       V     C        18:50:22:22 18:50:25:15 02:00:16:08 02:00:19:01 
M2      MSMMMOB.61                                025.0 18:50:22:22 
*FROM CLIP NAME:  B014C008_190811_R481 
*SOURCE FILE: MSMMMOB.61
011111  00399.MP3                        A14   C        01:00:13:14 01:00:14:02 02:00:16:24 02:00:17:12 
*FROM CLIP NAME:  00399.MP3 
*PATCH 00399.MP3:  FROM SOURCE 2 TO RECORD 14 
*SOURCE FILE: 00399.MP3
011112  00399.MP3                        A15   C        01:00:13:14 01:00:14:02 02:00:16:24 02:00:17:12 
*FROM CLIP NAME:  00399.MP3 
*PATCH 00399.MP3:  FROM SOURCE 1 TO RECORD 15 
*SOURCE FILE: 00399.MP3
011113  00399.MP3                        A14   C        01:00:13:14 01:00:14:02 02:00:18:02 02:00:18:15 
*FROM CLIP NAME:  00399.MP3 
*PATCH 00399.MP3:  FROM SOURCE 2 TO RECORD 14 
*SOURCE FILE: 00399.MP3
011114  00399.MP3                        A15   C        01:00:13:14 01:00:14:02 02:00:18:02 02:00:18:15 
*FROM CLIP NAME:  00399.MP3 
*PATCH 00399.MP3:  FROM SOURCE 1 TO RECORD 15 
*SOURCE FILE: 00399.MP3
011115  MSMMMOB.07                       V     C        18:23:48:04 18:23:51:20 02:00:19:01 02:00:22:17 
M2      MSMMMOB.07                                025.0 18:23:48:04 
*FROM CLIP NAME:  A065C002_190811_R32C 
*SOURCE FILE: MSMMMOB.07
011116  00399.MP3                        A14   C        01:00:13:14 01:00:14:02 02:00:19:05 02:00:19:18 
*FROM CLIP NAME:  00399.MP3 
*PATCH 00399.MP3:  FROM SOURCE 2 TO RECORD 14 
*SOURCE FILE: 00399.MP3
011117  00399.MP3                        A15   C        01:00:13:14 01:00:14:02 02:00:19:05 02:00:19:18 
*FROM CLIP NAME:  00399.MP3 
*PATCH 00399.MP3:  FROM SOURCE 1 TO RECORD 15 
*SOURCE FILE: 00399.MP3
011118  00399.MP3                        A14   C        01:00:13:14 01:00:14:02 02:00:20:08 02:00:20:21 
*FROM CLIP NAME:  00399.MP3 
*PATCH 00399.MP3:  FROM SOURCE 2 TO RECORD 14 
*SOURCE FILE: 00399.MP3
011119  00399.MP3                        A15   C        01:00:13:14 01:00:14:02 02:00:20:08 02:00:20:21 
*FROM CLIP NAME:  00399.MP3 
*PATCH 00399.MP3:  FROM SOURCE 1 TO RECORD 15 
*SOURCE FILE: 00399.MP3
011120  19Y08M11                         A6    C        19:31:46:07 19:31:54:04 02:00:20:15 02:00:28:12 
*FROM CLIP NAME:  80K8/01.SYNC.01 
*A6 VOL =  +7.3 DB  PAN L100 
*PATCH 19Y08M11:  FROM SOURCE 3 TO RECORD 6 
*SOURCE FILE: 19Y08M11
011121  00399.MP3                        A14   C        01:00:13:14 01:00:14:02 02:00:21:11 02:00:21:24 
*FROM CLIP NAME:  00399.MP3 
*PATCH 00399.MP3:  FROM SOURCE 2 TO RECORD 14 
*SOURCE FILE: 00399.MP3
011122  00399.MP3                        A15   C        01:00:13:14 01:00:14:02 02:00:21:11 02:00:21:24 
*FROM CLIP NAME:  00399.MP3 
*PATCH 00399.MP3:  FROM SOURCE 1 TO RECORD 15 
*SOURCE FILE: 00399.MP3
011123  00399.MP3                        A14   C        01:00:13:14 01:00:14:02 02:00:22:14 02:00:23:02 
*FROM CLIP NAME:  00399.MP3 
*PATCH 00399.MP3:  FROM SOURCE 2 TO RECORD 14 
*SOURCE FILE: 00399.MP3
011124  00399.MP3                        A15   C        01:00:13:14 01:00:14:02 02:00:22:14 02:00:23:02 
*FROM CLIP NAME:  00399.MP3 
*PATCH 00399.MP3:  FROM SOURCE 1 TO RECORD 15 
*SOURCE FILE: 00399.MP3
011125  MSMMMOB.46                       V     C        18:50:29:06 18:50:34:20 02:00:22:17 02:00:28:06 
M2      MSMMMOB.46                                025.0 18:50:29:06 
*FROM CLIP NAME:  A065C007_190811_R32C 
*SOURCE FILE: MSMMMOB.46
011126  BL                               V     C        00:00:00:00 00:00:23:17 02:00:22:17 02:00:46:09 
*SOURCE FILE: (NULL)
011127  00399.MP3                        A14   C        01:00:13:14 01:00:14:02 02:00:23:17 02:00:24:05 
*FROM CLIP NAME:  00399.MP3 
*PATCH 00399.MP3:  FROM SOURCE 2 TO RECORD 14 
*SOURCE FILE: 00399.MP3
011128  00399.MP3                        A15   C        01:00:13:14 01:00:14:02 02:00:23:17 02:00:24:05 
*FROM CLIP NAME:  00399.MP3 
*PATCH 00399.MP3:  FROM SOURCE 1 TO RECORD 15 
*SOURCE FILE: 00399.MP3
011129  00399.MP3                        A14   C        01:00:13:14 01:00:14:02 02:00:24:20 02:00:25:08 
*FROM CLIP NAME:  00399.MP3 
*PATCH 00399.MP3:  FROM SOURCE 2 TO RECORD 14 
*SOURCE FILE: 00399.MP3
011130  00399.MP3                        A15   C        01:00:13:14 01:00:14:02 02:00:24:20 02:00:25:08 
*FROM CLIP NAME:  00399.MP3 
*PATCH 00399.MP3:  FROM SOURCE 1 TO RECORD 15 
*SOURCE FILE: 00399.MP3
011131  00399.MP3                        A14   C        01:00:13:14 01:00:14:02 02:00:25:23 02:00:26:11 
*FROM CLIP NAME:  00399.MP3 
*PATCH 00399.MP3:  FROM SOURCE 2 TO RECORD 14 
*SOURCE FILE: 00399.MP3
011132  00399.MP3                        A15   C        01:00:13:14 01:00:14:02 02:00:25:23 02:00:26:11 
*FROM CLIP NAME:  00399.MP3 
*PATCH 00399.MP3:  FROM SOURCE 1 TO RECORD 15 
*SOURCE FILE: 00399.MP3
011133  00399.MP3                        A14   C        01:00:13:14 01:00:14:02 02:00:27:01 02:00:27:14 
*FROM CLIP NAME:  00399.MP3 
*PATCH 00399.MP3:  FROM SOURCE 2 TO RECORD 14 
*SOURCE FILE: 00399.MP3
011134  00399.MP3                        A15   C        01:00:13:14 01:00:14:02 02:00:27:01 02:00:27:14 
*FROM CLIP NAME:  00399.MP3 
*PATCH 00399.MP3:  FROM SOURCE 1 TO RECORD 15 
*SOURCE FILE: 00399.MP3
011135  00399.MP3                        A14   C        01:00:13:14 01:00:14:02 02:00:28:04 02:00:28:17 
*FROM CLIP NAME:  00399.MP3 
*PATCH 00399.MP3:  FROM SOURCE 2 TO RECORD 14 
*SOURCE FILE: 00399.MP3
011136  00399.MP3                        A15   C        01:00:13:14 01:00:14:02 02:00:28:04 02:00:28:17 
*FROM CLIP NAME:  00399.MP3 
*PATCH 00399.MP3:  FROM SOURCE 1 TO RECORD 15 
*SOURCE FILE: 00399.MP3
011137  MSMMMOB.61                       V     C        18:50:34:20 18:50:37:05 02:00:28:06 02:00:30:16 
M2      MSMMMOB.61                                025.0 18:50:34:20 
*FROM CLIP NAME:  B014C008_190811_R481 
*SOURCE FILE: MSMMMOB.61
011138  00399.MP3                        A14   C        01:00:13:14 01:00:14:02 02:00:29:07 02:00:29:20 
*FROM CLIP NAME:  00399.MP3 
*PATCH 00399.MP3:  FROM SOURCE 2 TO RECORD 14 
*SOURCE FILE: 00399.MP3
011139  00399.MP3                        A15   C        01:00:13:14 01:00:14:02 02:00:29:07 02:00:29:20 
*FROM CLIP NAME:  00399.MP3 
*PATCH 00399.MP3:  FROM SOURCE 1 TO RECORD 15 
*SOURCE FILE: 00399.MP3
011140  19Y08M11                         A6    C        19:32:49:05 19:32:52:21 02:00:29:16 02:00:33:07 
*FROM CLIP NAME:  80K8/01.SYNC.01 
*A6 VOL =  +6.0 DB  PAN L100 
*PATCH 19Y08M11:  FROM SOURCE 3 TO RECORD 6 
*SOURCE FILE: 19Y08M11
011141  00399.MP3                        A15   C        01:00:13:14 01:00:14:02 02:00:30:10 02:00:30:23 
*FROM CLIP NAME:  00399.MP3 
*PATCH 00399.MP3:  FROM SOURCE 1 TO RECORD 15 
*SOURCE FILE: 00399.MP3
011142  00399.MP3                        A16   C        01:00:13:14 01:00:14:02 02:00:30:10 02:00:30:23 
*FROM CLIP NAME:  00399.MP3 
*PATCH 00399.MP3:  FROM SOURCE 2 TO RECORD 16 
*SOURCE FILE: 00399.MP3
011143  MSMMMOB.07                       V     C        18:24:03:13 18:24:07:05 02:00:30:16 02:00:34:08 
M2      MSMMMOB.07                                025.0 18:24:03:13 
*FROM CLIP NAME:  A065C002_190811_R32C 
*SOURCE FILE: MSMMMOB.07
011144  00399.MP3                        A15   C        01:00:13:14 01:00:14:02 02:00:31:13 02:00:32:01 
*FROM CLIP NAME:  00399.MP3 
*PATCH 00399.MP3:  FROM SOURCE 1 TO RECORD 15 
*SOURCE FILE: 00399.MP3
011145  00399.MP3                        A16   C        01:00:13:14 01:00:14:02 02:00:31:13 02:00:32:01 
*FROM CLIP NAME:  00399.MP3 
*PATCH 00399.MP3:  FROM SOURCE 2 TO RECORD 16 
*SOURCE FILE: 00399.MP3
011146  00399.MP3                        A15   C        01:00:13:14 01:00:14:02 02:00:32:16 02:00:33:04 
*FROM CLIP NAME:  00399.MP3 
*PATCH 00399.MP3:  FROM SOURCE 1 TO RECORD 15 
*SOURCE FILE: 00399.MP3
011147  00399.MP3                        A16   C        01:00:13:14 01:00:14:02 02:00:32:16 02:00:33:04 
*FROM CLIP NAME:  00399.MP3 
*PATCH 00399.MP3:  FROM SOURCE 2 TO RECORD 16 
*SOURCE FILE: 00399.MP3
011148  19Y08M11                         A6    C        19:32:53:09 19:32:56:24 02:00:33:14 02:00:37:04 
*FROM CLIP NAME:  80K8/01.SYNC.01 
*A6 VOL =  +7.3 DB  PAN L100 
*PATCH 19Y08M11:  FROM SOURCE 3 TO RECORD 6 
*SOURCE FILE: 19Y08M11
011149  00399.MP3                        A15   C        01:00:13:14 01:00:14:02 02:00:33:19 02:00:34:07 
*FROM CLIP NAME:  00399.MP3 
*PATCH 00399.MP3:  FROM SOURCE 1 TO RECORD 15 
*SOURCE FILE: 00399.MP3
011150  00399.MP3                        A16   C        01:00:13:14 01:00:14:02 02:00:33:19 02:00:34:07 
*FROM CLIP NAME:  00399.MP3 
*PATCH 00399.MP3:  FROM SOURCE 2 TO RECORD 16 
*SOURCE FILE: 00399.MP3
011151  MSMMMOB.61                       V     C        18:50:40:22 18:50:43:22 02:00:34:08 02:00:37:08 
M2      MSMMMOB.61                                025.0 18:50:40:22 
*FROM CLIP NAME:  B014C008_190811_R481 
*SOURCE FILE: MSMMMOB.61
011152  00399.MP3                        A15   C        01:00:13:14 01:00:14:02 02:00:34:22 02:00:35:10 
*FROM CLIP NAME:  00399.MP3 
*PATCH 00399.MP3:  FROM SOURCE 1 TO RECORD 15 
*SOURCE FILE: 00399.MP3
011153  00399.MP3                        A16   C        01:00:13:14 01:00:14:02 02:00:34:22 02:00:35:10 
*FROM CLIP NAME:  00399.MP3 
*PATCH 00399.MP3:  FROM SOURCE 2 TO RECORD 16 
*SOURCE FILE: 00399.MP3
011154  00399.MP3                        A15   C        01:00:13:14 01:00:14:02 02:00:36:00 02:00:36:13 
*FROM CLIP NAME:  00399.MP3 
*PATCH 00399.MP3:  FROM SOURCE 1 TO RECORD 15 
*SOURCE FILE: 00399.MP3
011155  00399.MP3                        A16   C        01:00:13:14 01:00:14:02 02:00:36:00 02:00:36:13 
*FROM CLIP NAME:  00399.MP3 
*PATCH 00399.MP3:  FROM SOURCE 2 TO RECORD 16 
*SOURCE FILE: 00399.MP3
011156  00399.MP3                        A15   C        01:00:13:14 01:00:14:02 02:00:37:03 02:00:37:16 
*FROM CLIP NAME:  00399.MP3 
*PATCH 00399.MP3:  FROM SOURCE 1 TO RECORD 15 
*SOURCE FILE: 00399.MP3
011157  00399.MP3                        A16   C        01:00:13:14 01:00:14:02 02:00:37:03 02:00:37:16 
*FROM CLIP NAME:  00399.MP3 
*PATCH 00399.MP3:  FROM SOURCE 2 TO RECORD 16 
*SOURCE FILE: 00399.MP3
011158  MSMMMOB.54                       V     C        19:06:50:08 19:06:52:16 02:00:37:08 02:00:39:16 
M2      MSMMMOB.54                                025.0 19:06:50:08 
*FROM CLIP NAME:  A065C008_190811_R32C 
*SOURCE FILE: MSMMMOB.54
011159  00399.MP3                        A15   C        01:00:13:14 01:00:14:02 02:00:38:06 02:00:38:19 
*FROM CLIP NAME:  00399.MP3 
*PATCH 00399.MP3:  FROM SOURCE 1 TO RECORD 15 
*SOURCE FILE: 00399.MP3
011160  00399.MP3                        A16   C        01:00:13:14 01:00:14:02 02:00:38:06 02:00:38:19 
*FROM CLIP NAME:  00399.MP3 
*PATCH 00399.MP3:  FROM SOURCE 2 TO RECORD 16 
*SOURCE FILE: 00399.MP3
011161  00399.MP3                        A15   C        01:00:13:14 01:00:14:02 02:00:39:09 02:00:39:22 
*FROM CLIP NAME:  00399.MP3 
*PATCH 00399.MP3:  FROM SOURCE 1 TO RECORD 15 
*SOURCE FILE: 00399.MP3
011162  00399.MP3                        A16   C        01:00:13:14 01:00:14:02 02:00:39:09 02:00:39:22 
*FROM CLIP NAME:  00399.MP3 
*PATCH 00399.MP3:  FROM SOURCE 2 TO RECORD 16 
*SOURCE FILE: 00399.MP3
011163  MSMMMOB.46                       V     C        18:50:46:05 18:50:54:04 02:00:39:16 02:00:47:15 
M2      MSMMMOB.46                                025.0 18:50:46:05 
*FROM CLIP NAME:  A065C007_190811_R32C 
*SOURCE FILE: MSMMMOB.46
011164  00399.MP3                        A15   C        01:00:13:14 01:00:14:02 02:00:40:12 02:00:41:00 
*FROM CLIP NAME:  00399.MP3 
*PATCH 00399.MP3:  FROM SOURCE 1 TO RECORD 15 
*SOURCE FILE: 00399.MP3
011165  00399.MP3                        A16   C        01:00:13:14 01:00:14:02 02:00:40:12 02:00:41:00 
*FROM CLIP NAME:  00399.MP3 
*PATCH 00399.MP3:  FROM SOURCE 2 TO RECORD 16 
*SOURCE FILE: 00399.MP3
011166  00399.MP3                        A15   C        01:00:13:14 01:00:14:02 02:00:41:15 02:00:42:03 
*FROM CLIP NAME:  00399.MP3 
*PATCH 00399.MP3:  FROM SOURCE 1 TO RECORD 15 
*SOURCE FILE: 00399.MP3
011167  00399.MP3                        A16   C        01:00:13:14 01:00:14:02 02:00:41:15 02:00:42:03 
*FROM CLIP NAME:  00399.MP3 
*PATCH 00399.MP3:  FROM SOURCE 2 TO RECORD 16 
*SOURCE FILE: 00399.MP3
011168  00399.MP3                        A15   C        01:00:13:14 01:00:14:02 02:00:42:18 02:00:43:06 
*FROM CLIP NAME:  00399.MP3 
*PATCH 00399.MP3:  FROM SOURCE 1 TO RECORD 15 
*SOURCE FILE: 00399.MP3
011169  00399.MP3                        A16   C        01:00:13:14 01:00:14:02 02:00:42:18 02:00:43:06 
*FROM CLIP NAME:  00399.MP3 
*PATCH 00399.MP3:  FROM SOURCE 2 TO RECORD 16 
*SOURCE FILE: 00399.MP3
011170  00399.MP3                        A15   C        01:00:13:14 01:00:14:02 02:00:43:21 02:00:44:09 
*FROM CLIP NAME:  00399.MP3 
*PATCH 00399.MP3:  FROM SOURCE 1 TO RECORD 15 
*SOURCE FILE: 00399.MP3
011171  00399.MP3                        A16   C        01:00:13:14 01:00:14:02 02:00:43:21 02:00:44:09 
*FROM CLIP NAME:  00399.MP3 
*PATCH 00399.MP3:  FROM SOURCE 2 TO RECORD 16 
*SOURCE FILE: 00399.MP3
011172  411441__CREATIONSBYJACOBFILMS__M A7    C        01:00:00:00 01:00:02:17 02:00:44:20 02:00:47:12 
*FROM CLIP NAME:  411441__CREATIONSBYJACOBFILMS__MICROPHONE-FEEDBACK.WAV 
*A7 VOL = -19.4 DB  PAN R100 
*PATCH 411441__CREATIONSBYJACOBFILMS__M:  FROM SOURCE 1 TO RECORD 7 
*SOURCE FILE: 411441__CREATIONSBYJACOBFILMS__MICROPHONE-FEEDBACK.WAV
011173  411441__CREATIONSBYJACOBFILMS__M A8    C        01:00:00:00 01:00:02:17 02:00:44:20 02:00:47:12 
*FROM CLIP NAME:  411441__CREATIONSBYJACOBFILMS__MICROPHONE-FEEDBACK.WAV 
*A8 VOL = -19.4 DB  PAN L100 
*PATCH 411441__CREATIONSBYJACOBFILMS__M:  FROM SOURCE 2 TO RECORD 8 
*SOURCE FILE: 411441__CREATIONSBYJACOBFILMS__MICROPHONE-FEEDBACK.WAV
011174  00399.MP3                        A15   C        01:00:13:14 01:00:14:02 02:00:44:24 02:00:45:12 
*FROM CLIP NAME:  00399.MP3 
*PATCH 00399.MP3:  FROM SOURCE 1 TO RECORD 15 
*SOURCE FILE: 00399.MP3
011175  00399.MP3                        A16   C        01:00:13:14 01:00:14:02 02:00:44:24 02:00:45:12 
*FROM CLIP NAME:  00399.MP3 
*PATCH 00399.MP3:  FROM SOURCE 2 TO RECORD 16 
*SOURCE FILE: 00399.MP3
011176  00399.MP3                        A15   C        01:00:13:14 01:00:14:02 02:00:46:02 02:00:46:15 
*FROM CLIP NAME:  00399.MP3 
*PATCH 00399.MP3:  FROM SOURCE 1 TO RECORD 15 
*SOURCE FILE: 00399.MP3
011177  00399.MP3                        A16   C        01:00:13:14 01:00:14:02 02:00:46:02 02:00:46:15 
*FROM CLIP NAME:  00399.MP3 
*PATCH 00399.MP3:  FROM SOURCE 2 TO RECORD 16 
*SOURCE FILE: 00399.MP3
011178  BL                               V     C        00:00:00:00 00:00:53:00 02:00:46:09 02:01:39:09 
*SOURCE FILE: (NULL)
011179  00393.MP3                        A11   C        01:00:07:16 01:00:13:21 02:00:46:17 02:00:52:22 
*FROM CLIP NAME:  00393.MP3 
*A11 VOL = -15.0 DB  PAN L100 
*PATCH 00393.MP3:  FROM SOURCE 1 TO RECORD 11 
*SOURCE FILE: 00393.MP3
011180  00393.MP3                        A12   C        01:00:07:16 01:00:13:21 02:00:46:17 02:00:52:22 
*FROM CLIP NAME:  00393.MP3 
*A12 VOL = -15.0 DB  PAN R100 
*PATCH 00393.MP3:  FROM SOURCE 2 TO RECORD 12 
*SOURCE FILE: 00393.MP3
011181  BL                               A13   C        00:00:00:00 00:00:00:00 02:00:47:15 02:00:47:15 
011181  ?????_-_??????_??????.MP3        A13   D    051 01:00:13:22 01:00:15:23 02:00:47:15 02:00:49:16 
*TO CLIP NAME:  ????? - ?????? ??????.MP3 
*A13 VOL = -27.5 DB  PAN L100 
*PATCH ?????_-_??????_??????.MP3:  FROM SOURCE 1 TO RECORD 13 
*SOURCE FILE: (NULL)
011182  BL                               A14   C        00:00:00:00 00:00:00:00 02:00:47:15 02:00:47:15 
011182  ?????_-_??????_??????.MP3        A14   D    051 01:00:13:22 01:00:15:23 02:00:47:15 02:00:49:16 
*TO CLIP NAME:  ????? - ?????? ??????.MP3 
*A14 VOL = -27.5 DB  PAN R100 
*PATCH ?????_-_??????_??????.MP3:  FROM SOURCE 2 TO RECORD 14 
*SOURCE FILE: (NULL)
011183  MSMMMOB.57                       V     C        18:24:18:00 18:24:20:10 02:00:47:15 02:00:50:00 
M2      MSMMMOB.57                                025.0 18:24:18:00 
*FROM CLIP NAME:  B014C003_190811_R481 
*SOURCE FILE: MSMMMOB.57
011184  19Y08M11                         A     C        18:24:19:14 18:24:24:22 02:00:49:05 02:00:54:13 
*FROM CLIP NAME:  80K2/02.SYNC.01 
*SOURCE FILE: 19Y08M11
011185  19Y08M11                         A2    C        18:24:19:14 18:24:24:22 02:00:49:05 02:00:54:13 
*FROM CLIP NAME:  80K2/02.SYNC.01 
*SOURCE FILE: 19Y08M11
011186  19Y08M11                         A3    C        18:24:19:14 18:24:24:22 02:00:49:05 02:00:54:13 
*FROM CLIP NAME:  80K2/02.SYNC.01 
*SOURCE FILE: 19Y08M11
011187  19Y08M11                         A4    C        18:24:19:14 18:24:24:22 02:00:49:05 02:00:54:13 
*FROM CLIP NAME:  80K2/02.SYNC.01 
*SOURCE FILE: 19Y08M11
011188  19Y08M11                         A5    C        18:24:19:14 18:24:24:22 02:00:49:05 02:00:54:13 
*FROM CLIP NAME:  80K2/02.SYNC.01 
*SOURCE FILE: 19Y08M11
011189  19Y08M11                         A6    C        18:24:19:14 18:24:24:22 02:00:49:05 02:00:54:13 
*FROM CLIP NAME:  80K2/02.SYNC.01 
*SOURCE FILE: 19Y08M11
011190  ?????_-_??????_??????.MP3        A13   C        01:00:15:23 01:00:24:18 02:00:49:16 02:00:58:11 
*, D-VERB 
*FROM CLIP NAME:  ????? - ?????? ??????.MP3 
*A13 VOL = -27.5 DB  PAN L100 
*PATCH ?????_-_??????_??????.MP3:  FROM SOURCE 1 TO RECORD 13 
*SOURCE FILE: ????? - ?????? ??????.MP3
011191  ?????_-_??????_??????.MP3        A14   C        01:00:15:23 01:00:24:18 02:00:49:16 02:00:58:11 
*, D-VERB 
*FROM CLIP NAME:  ????? - ?????? ??????.MP3 
*A14 VOL = -27.5 DB  PAN R100 
*PATCH ?????_-_??????_??????.MP3:  FROM SOURCE 2 TO RECORD 14 
*SOURCE FILE: ????? - ?????? ??????.MP3
011192  MSMMMOB.07                       V     C        18:24:20:10 18:24:25:05 02:00:50:00 02:00:54:20 
M2      MSMMMOB.07                                025.0 18:24:20:10 
*FROM CLIP NAME:  A065C002_190811_R32C 
*SOURCE FILE: MSMMMOB.07
011193  00393.MP3                        A11   C        01:00:13:21 01:00:13:21 02:00:52:22 02:00:52:22 
011193  BL                               A11   D    048 00:00:00:00 00:00:01:23 02:00:52:22 02:00:54:20 
*FROM CLIP NAME:  00393.MP3 
*A11 VOL = -15.0 DB  PAN L100 
*PATCH 00393.MP3:  FROM SOURCE 1 TO RECORD 11 
*SOURCE FILE: 00393.MP3
011194  00393.MP3                        A12   C        01:00:13:21 01:00:13:21 02:00:52:22 02:00:52:22 
011194  BL                               A12   D    048 00:00:00:00 00:00:01:23 02:00:52:22 02:00:54:20 
*FROM CLIP NAME:  00393.MP3 
*A12 VOL = -15.0 DB  PAN R100 
*PATCH 00393.MP3:  FROM SOURCE 2 TO RECORD 12 
*SOURCE FILE: 00393.MP3
011195  19Y08M11                         A     C        19:59:36:01 19:59:36:08 02:00:54:13 02:00:54:20 
*FROM CLIP NAME:  81AK2/02.SYNC.01 
*SOURCE FILE: 19Y08M11
011196  19Y08M11                         A2    C        19:59:36:01 19:59:36:08 02:00:54:13 02:00:54:20 
*FROM CLIP NAME:  81AK2/02.SYNC.01 
*SOURCE FILE: 19Y08M11
011197  19Y08M11                         A3    C        19:59:36:01 19:59:36:08 02:00:54:13 02:00:54:20 
*FROM CLIP NAME:  81AK2/02.SYNC.01 
*PATCH 19Y08M11:  FROM SOURCE 7 TO RECORD 3 
*SOURCE FILE: 19Y08M11
011198  19Y08M11                         A4    C        19:59:36:01 19:59:36:08 02:00:54:13 02:00:54:20 
*FROM CLIP NAME:  81AK2/02.SYNC.01 
*SOURCE FILE: 19Y08M11
011199  19Y08M11                         A5    C        19:59:36:01 19:59:36:08 02:00:54:13 02:00:54:20 
*FROM CLIP NAME:  81AK2/02.SYNC.01 
*SOURCE FILE: 19Y08M11
011200  MSMMMOB.65                       V     C        19:59:36:20 19:59:40:11 02:00:54:20 02:00:58:11 
M2      MSMMMOB.65                                025.0 19:59:36:20 
*FROM CLIP NAME:  B015C007_190811_R481 
*SOURCE FILE: MSMMMOB.65
011201  GLDR-APN-430_COMP_V001           V     C        00:00:00:00 00:00:03:16 02:00:54:20 02:00:58:11 
*FROM CLIP NAME:  GLDR-APN-430_COMP_V001 
*SOURCE FILE: GLDR-APN-430_COMP_V001
011202  19Y08M11                         A     C        19:59:36:19 19:59:40:10 02:00:54:20 02:00:58:11 
*FROM CLIP NAME:  81AK2/02.SYNC.01 
*SOURCE FILE: 19Y08M11
011203  19Y08M11                         A2    C        19:59:36:19 19:59:40:10 02:00:54:20 02:00:58:11 
*FROM CLIP NAME:  81AK2/02.SYNC.01 
*SOURCE FILE: 19Y08M11
011204  19Y08M11                         A3    C        19:59:36:19 19:59:40:10 02:00:54:20 02:00:58:11 
*FROM CLIP NAME:  81AK2/02.SYNC.01 
*PATCH 19Y08M11:  FROM SOURCE 7 TO RECORD 3 
*SOURCE FILE: 19Y08M11
011205  19Y08M11                         A4    C        19:59:36:19 19:59:40:10 02:00:54:20 02:00:58:11 
*FROM CLIP NAME:  81AK2/02.SYNC.01 
*SOURCE FILE: 19Y08M11
011206  19Y08M11                         A5    C        19:59:36:19 19:59:40:10 02:00:54:20 02:00:58:11 
*FROM CLIP NAME:  81AK2/02.SYNC.01 
*SOURCE FILE: 19Y08M11
011207  19Y08M11                         A     C        22:14:35:13 22:14:39:24 02:00:58:11 02:01:02:22 
*FROM CLIP NAME:  81K3/03.SYNC.01 
*SOURCE FILE: 19Y08M11
011208  19Y08M11                         A2    C        22:14:35:13 22:14:39:24 02:00:58:11 02:01:02:22 
*FROM CLIP NAME:  81K3/03.SYNC.01 
*SOURCE FILE: 19Y08M11
011209  19Y08M11                         A3    C        22:14:35:13 22:14:39:24 02:00:58:11 02:01:02:22 
*FROM CLIP NAME:  81K3/03.SYNC.01 
*SOURCE FILE: 19Y08M11
011210  19Y08M11                         A4    C        22:14:35:13 22:14:39:24 02:00:58:11 02:01:02:22 
*FROM CLIP NAME:  81K3/03.SYNC.01 
*PATCH 19Y08M11:  FROM SOURCE 8 TO RECORD 4 
*SOURCE FILE: 19Y08M11
011211  19Y08M11                         A5    C        22:14:35:13 22:14:39:24 02:00:58:11 02:01:02:22 
*FROM CLIP NAME:  81K3/03.SYNC.01 
*SOURCE FILE: 19Y08M11
011212  19Y08M11                         A6    C        22:14:35:13 22:14:39:24 02:00:58:11 02:01:02:22 
*FROM CLIP NAME:  81K3/03.SYNC.01 
*PATCH 19Y08M11:  FROM SOURCE 7 TO RECORD 6 
*SOURCE FILE: 19Y08M11
011213  MSMMMOB.72                       V     C        22:14:35:15 22:14:40:07 02:00:58:11 02:01:03:03 
M2      MSMMMOB.72                                025.0 22:14:35:15 
*FROM CLIP NAME:  B017C008_190811_R481 
*SOURCE FILE: MSMMMOB.72
011214  BL                               V     C        00:00:00:00 00:00:19:10 02:00:58:11 02:01:17:21 
*SOURCE FILE: (NULL)
011215  ?????_-_??????_??????.MP3        A13   C        01:00:20:22 01:00:40:07 02:00:58:11 02:01:17:21 
*, D-VERB 
*FROM CLIP NAME:  ????? - ?????? ??????.MP3 
*A13 VOL = -30.0 DB  PAN L100 
*PATCH ?????_-_??????_??????.MP3:  FROM SOURCE 1 TO RECORD 13 
*SOURCE FILE: ????? - ?????? ??????.MP3
011216  ?????_-_??????_??????.MP3        A14   C        01:00:20:22 01:00:40:07 02:00:58:11 02:01:17:21 
*, D-VERB 
*FROM CLIP NAME:  ????? - ?????? ??????.MP3 
*A14 VOL = -30.0 DB  PAN R100 
*PATCH ?????_-_??????_??????.MP3:  FROM SOURCE 2 TO RECORD 14 
*SOURCE FILE: ????? - ?????? ??????.MP3
011217  19Y08M11                         A     C        22:05:57:17 22:06:02:04 02:01:02:22 02:01:07:09 
*FROM CLIP NAME:  81K2/03.SYNC.01 
*SOURCE FILE: 19Y08M11
011218  19Y08M11                         A2    C        22:05:57:17 22:06:02:04 02:01:02:22 02:01:07:09 
*FROM CLIP NAME:  81K2/03.SYNC.01 
*SOURCE FILE: 19Y08M11
011219  19Y08M11                         A3    C        22:05:57:17 22:06:02:04 02:01:02:22 02:01:07:09 
*FROM CLIP NAME:  81K2/03.SYNC.01 
*SOURCE FILE: 19Y08M11
011220  19Y08M11                         A4    C        22:05:57:17 22:06:02:04 02:01:02:22 02:01:07:09 
*FROM CLIP NAME:  81K2/03.SYNC.01 
*PATCH 19Y08M11:  FROM SOURCE 8 TO RECORD 4 
*SOURCE FILE: 19Y08M11
011221  19Y08M11                         A5    C        22:05:57:17 22:06:02:04 02:01:02:22 02:01:07:09 
*FROM CLIP NAME:  81K2/03.SYNC.01 
*SOURCE FILE: 19Y08M11
011222  19Y08M11                         A6    C        22:05:57:17 22:06:02:04 02:01:02:22 02:01:07:09 
*FROM CLIP NAME:  81K2/03.SYNC.01 
*PATCH 19Y08M11:  FROM SOURCE 7 TO RECORD 6 
*SOURCE FILE: 19Y08M11
011223  MSMMMOB.12                       V     C        22:05:58:00 22:06:00:23 02:01:03:03 02:01:06:01 
M2      MSMMMOB.12                                025.0 22:05:58:00 
*FROM CLIP NAME:  B017C005_190811_R481 
*SOURCE FILE: MSMMMOB.12
011224  MSMMMOB.72                       V     C        22:14:42:22 22:14:44:05 02:01:06:01 02:01:07:09 
M2      MSMMMOB.72                                025.0 22:14:42:22 
*FROM CLIP NAME:  B017C008_190811_R481 
*SOURCE FILE: MSMMMOB.72
011225  MSMMMOB.12                       V     C        22:06:02:24 22:06:06:06 02:01:07:09 02:01:10:16 
M2      MSMMMOB.12                                025.0 22:06:02:24 
*FROM CLIP NAME:  B017C005_190811_R481 
*SOURCE FILE: MSMMMOB.12
011226  19Y08M11                         A     C        22:06:02:22 22:06:06:04 02:01:07:09 02:01:10:16 
*FROM CLIP NAME:  81K2/03.SYNC.01 
*SOURCE FILE: 19Y08M11
011227  19Y08M11                         A2    C        22:06:02:22 22:06:06:04 02:01:07:09 02:01:10:16 
*FROM CLIP NAME:  81K2/03.SYNC.01 
*SOURCE FILE: 19Y08M11
011228  19Y08M11                         A3    C        22:06:02:22 22:06:06:04 02:01:07:09 02:01:10:16 
*FROM CLIP NAME:  81K2/03.SYNC.01 
*SOURCE FILE: 19Y08M11
011229  19Y08M11                         A4    C        22:06:02:22 22:06:06:04 02:01:07:09 02:01:10:16 
*FROM CLIP NAME:  81K2/03.SYNC.01 
*PATCH 19Y08M11:  FROM SOURCE 8 TO RECORD 4 
*SOURCE FILE: 19Y08M11
011230  19Y08M11                         A5    C        22:06:02:22 22:06:06:04 02:01:07:09 02:01:10:16 
*FROM CLIP NAME:  81K2/03.SYNC.01 
*SOURCE FILE: 19Y08M11
011231  19Y08M11                         A6    C        22:06:02:22 22:06:06:04 02:01:07:09 02:01:10:16 
*FROM CLIP NAME:  81K2/03.SYNC.01 
*PATCH 19Y08M11:  FROM SOURCE 7 TO RECORD 6 
*SOURCE FILE: 19Y08M11
011232  MSMMMOB.72                       V     C        22:14:46:04 22:14:48:06 02:01:10:16 02:01:12:18 
M2      MSMMMOB.72                                025.0 22:14:46:04 
*FROM CLIP NAME:  B017C008_190811_R481 
*SOURCE FILE: MSMMMOB.72
011233  19Y08M11                         A     C        22:14:46:02 22:14:48:04 02:01:10:16 02:01:12:18 
*FROM CLIP NAME:  81K3/03.SYNC.01 
*SOURCE FILE: 19Y08M11
011234  19Y08M11                         A2    C        22:14:46:02 22:14:48:04 02:01:10:16 02:01:12:18 
*FROM CLIP NAME:  81K3/03.SYNC.01 
*SOURCE FILE: 19Y08M11
011235  19Y08M11                         A3    C        22:14:46:02 22:14:48:04 02:01:10:16 02:01:12:18 
*FROM CLIP NAME:  81K3/03.SYNC.01 
*SOURCE FILE: 19Y08M11
011236  19Y08M11                         A4    C        22:14:46:02 22:14:48:04 02:01:10:16 02:01:12:18 
*FROM CLIP NAME:  81K3/03.SYNC.01 
*PATCH 19Y08M11:  FROM SOURCE 8 TO RECORD 4 
*SOURCE FILE: 19Y08M11
011237  19Y08M11                         A5    C        22:14:46:02 22:14:48:04 02:01:10:16 02:01:12:18 
*FROM CLIP NAME:  81K3/03.SYNC.01 
*SOURCE FILE: 19Y08M11
011238  19Y08M11                         A6    C        22:14:46:02 22:14:48:04 02:01:10:16 02:01:12:18 
*FROM CLIP NAME:  81K3/03.SYNC.01 
*PATCH 19Y08M11:  FROM SOURCE 7 TO RECORD 6 
*SOURCE FILE: 19Y08M11
011239  19Y08M11                         A8    C        20:01:17:20 20:01:20:24 02:01:12:16 02:01:15:20 
*FROM CLIP NAME:  81AK2/03.SYNC.01 
*PATCH 19Y08M11:  FROM SOURCE 2 TO RECORD 8 
*SOURCE FILE: 19Y08M11
011240  19Y08M11                         A9    C        20:01:17:20 20:01:20:24 02:01:12:16 02:01:15:20 
*FROM CLIP NAME:  81AK2/03.SYNC.01 
*PATCH 19Y08M11:  FROM SOURCE 1 TO RECORD 9 
*SOURCE FILE: 19Y08M11
011241  19Y08M11                         A10   C        20:01:17:20 20:01:20:24 02:01:12:16 02:01:15:20 
*FROM CLIP NAME:  81AK2/03.SYNC.01 
*PATCH 19Y08M11:  FROM SOURCE 4 TO RECORD 10 
*SOURCE FILE: 19Y08M11
011242  19Y08M11                         A11   C        20:01:17:20 20:01:20:24 02:01:12:16 02:01:15:20 
*FROM CLIP NAME:  81AK2/03.SYNC.01 
*PATCH 19Y08M11:  FROM SOURCE 5 TO RECORD 11 
*SOURCE FILE: 19Y08M11
011243  MSMMMOB.12                       V     C        22:06:08:04 22:06:09:08 02:01:12:18 02:01:13:22 
M2      MSMMMOB.12                                025.0 22:06:08:04 
*FROM CLIP NAME:  B017C005_190811_R481 
*SOURCE FILE: MSMMMOB.12
011244  19Y08M11                         A     C        22:06:08:02 22:06:09:06 02:01:12:18 02:01:13:22 
*FROM CLIP NAME:  81K2/03.SYNC.01 
*SOURCE FILE: 19Y08M11
011245  19Y08M11                         A2    C        22:06:08:02 22:06:09:06 02:01:12:18 02:01:13:22 
*FROM CLIP NAME:  81K2/03.SYNC.01 
*SOURCE FILE: 19Y08M11
011246  19Y08M11                         A3    C        22:06:08:02 22:06:09:06 02:01:12:18 02:01:13:22 
*FROM CLIP NAME:  81K2/03.SYNC.01 
*SOURCE FILE: 19Y08M11
011247  19Y08M11                         A4    C        22:06:08:02 22:06:09:06 02:01:12:18 02:01:13:22 
*FROM CLIP NAME:  81K2/03.SYNC.01 
*PATCH 19Y08M11:  FROM SOURCE 8 TO RECORD 4 
*SOURCE FILE: 19Y08M11
011248  19Y08M11                         A5    C        22:06:08:02 22:06:09:06 02:01:12:18 02:01:13:22 
*FROM CLIP NAME:  81K2/03.SYNC.01 
*SOURCE FILE: 19Y08M11
011249  19Y08M11                         A6    C        22:06:08:02 22:06:09:06 02:01:12:18 02:01:13:22 
*FROM CLIP NAME:  81K2/03.SYNC.01 
*PATCH 19Y08M11:  FROM SOURCE 7 TO RECORD 6 
*SOURCE FILE: 19Y08M11
011250  19Y08M11                         A     C        22:13:18:17 22:13:21:11 02:01:13:22 02:01:16:16 
*FROM CLIP NAME:  81K3/02.SYNC.01 
*SOURCE FILE: 19Y08M11
011251  19Y08M11                         A2    C        22:13:18:17 22:13:21:11 02:01:13:22 02:01:16:16 
*FROM CLIP NAME:  81K3/02.SYNC.01 
*SOURCE FILE: 19Y08M11
011252  19Y08M11                         A3    C        22:13:18:17 22:13:21:11 02:01:13:22 02:01:16:16 
*FROM CLIP NAME:  81K3/02.SYNC.01 
*SOURCE FILE: 19Y08M11
011253  19Y08M11                         A4    C        22:13:18:17 22:13:21:11 02:01:13:22 02:01:16:16 
*FROM CLIP NAME:  81K3/02.SYNC.01 
*PATCH 19Y08M11:  FROM SOURCE 8 TO RECORD 4 
*SOURCE FILE: 19Y08M11
011254  19Y08M11                         A5    C        22:13:18:17 22:13:21:11 02:01:13:22 02:01:16:16 
*FROM CLIP NAME:  81K3/02.SYNC.01 
*SOURCE FILE: 19Y08M11
011255  19Y08M11                         A6    C        22:13:18:17 22:13:21:11 02:01:13:22 02:01:16:16 
*FROM CLIP NAME:  81K3/02.SYNC.01 
*PATCH 19Y08M11:  FROM SOURCE 7 TO RECORD 6 
*SOURCE FILE: 19Y08M11
011256  MSMMMOB.02                       V     C        22:13:18:19 22:13:21:16 02:01:13:22 02:01:16:19 
M2      MSMMMOB.02                                025.0 22:13:18:19 
*FROM CLIP NAME:  B017C007_190811_R481 
*SOURCE FILE: MSMMMOB.02
011257  19Y08M11                         A     C        22:13:21:11 22:13:21:11 02:01:16:16 02:01:16:16 
011257  19Y08M11                         A     D    002 22:06:11:07 22:06:11:09 02:01:16:16 02:01:16:18 
*FROM CLIP NAME:  81K3/02.SYNC.01 
*TO CLIP NAME:  81K2/03.SYNC.01 
*SOURCE FILE: 19Y08M11
011258  19Y08M11                         A2    C        22:13:21:11 22:13:21:11 02:01:16:16 02:01:16:16 
011258  19Y08M11                         A2    D    002 22:06:11:07 22:06:11:09 02:01:16:16 02:01:16:18 
*FROM CLIP NAME:  81K3/02.SYNC.01 
*TO CLIP NAME:  81K2/03.SYNC.01 
*SOURCE FILE: 19Y08M11
011259  19Y08M11                         A3    C        22:13:21:11 22:13:21:11 02:01:16:16 02:01:16:16 
011259  19Y08M11                         A3    D    002 22:06:11:07 22:06:11:09 02:01:16:16 02:01:16:18 
*FROM CLIP NAME:  81K3/02.SYNC.01 
*TO CLIP NAME:  81K2/03.SYNC.01 
*SOURCE FILE: 19Y08M11
011260  19Y08M11                         A4    C        22:13:21:11 22:13:21:11 02:01:16:16 02:01:16:16 
011260  19Y08M11                         A4    D    002 22:06:11:07 22:06:11:09 02:01:16:16 02:01:16:18 
*FROM CLIP NAME:  81K3/02.SYNC.01 
*TO CLIP NAME:  81K2/03.SYNC.01 
*PATCH 19Y08M11:  FROM SOURCE 8 TO RECORD 4 
*PATCH 19Y08M11:  FROM SOURCE 8 TO RECORD 4 
*SOURCE FILE: 19Y08M11
011261  19Y08M11                         A5    C        22:13:21:11 22:13:21:11 02:01:16:16 02:01:16:16 
011261  19Y08M11                         A5    D    002 22:06:11:07 22:06:11:09 02:01:16:16 02:01:16:18 
*FROM CLIP NAME:  81K3/02.SYNC.01 
*TO CLIP NAME:  81K2/03.SYNC.01 
*SOURCE FILE: 19Y08M11
011262  19Y08M11                         A6    C        22:13:21:11 22:13:21:11 02:01:16:16 02:01:16:16 
011262  19Y08M11                         A6    D    002 22:06:11:07 22:06:11:09 02:01:16:16 02:01:16:18 
*FROM CLIP NAME:  81K3/02.SYNC.01 
*TO CLIP NAME:  81K2/03.SYNC.01 
*PATCH 19Y08M11:  FROM SOURCE 7 TO RECORD 6 
*PATCH 19Y08M11:  FROM SOURCE 7 TO RECORD 6 
*SOURCE FILE: 19Y08M11
011263  19Y08M11                         A     C        22:06:11:09 22:06:12:12 02:01:16:18 02:01:17:21 
*FROM CLIP NAME:  81K2/03.SYNC.01 
*SOURCE FILE: 19Y08M11
011264  19Y08M11                         A2    C        22:06:11:09 22:06:12:12 02:01:16:18 02:01:17:21 
*FROM CLIP NAME:  81K2/03.SYNC.01 
*SOURCE FILE: 19Y08M11
011265  19Y08M11                         A3    C        22:06:11:09 22:06:12:12 02:01:16:18 02:01:17:21 
*FROM CLIP NAME:  81K2/03.SYNC.01 
*SOURCE FILE: 19Y08M11
011266  19Y08M11                         A4    C        22:06:11:09 22:06:12:12 02:01:16:18 02:01:17:21 
*FROM CLIP NAME:  81K2/03.SYNC.01 
*PATCH 19Y08M11:  FROM SOURCE 8 TO RECORD 4 
*SOURCE FILE: 19Y08M11
011267  19Y08M11                         A5    C        22:06:11:09 22:06:12:12 02:01:16:18 02:01:17:21 
*FROM CLIP NAME:  81K2/03.SYNC.01 
*SOURCE FILE: 19Y08M11
011268  19Y08M11                         A6    C        22:06:11:09 22:06:12:12 02:01:16:18 02:01:17:21 
*FROM CLIP NAME:  81K2/03.SYNC.01 
*PATCH 19Y08M11:  FROM SOURCE 7 TO RECORD 6 
*SOURCE FILE: 19Y08M11
011269  MSMMMOB.12                       V     C        22:06:11:12 22:06:12:14 02:01:16:19 02:01:17:21 
M2      MSMMMOB.12                                025.0 22:06:11:12 
*FROM CLIP NAME:  B017C005_190811_R481 
*SOURCE FILE: MSMMMOB.12
011270  19Y08M11                         A     C        22:06:12:12 22:06:14:19 02:01:17:21 02:01:20:03 
*FROM CLIP NAME:  81K2/03.SYNC.01 
*A1 VOL =  +5.4 DB  PAN R100 
*EQ BAND 1 (LO SHELF) FREQ: 50.0 HZ  GAIN: -20.0 DB  Q: 1410 
*EQ BAND 2 (PRESENCE) FREQ: 50.0 HZ  GAIN:  -4.8 DB  Q:  670 
*EQ BAND 3 (HI SHELF) FREQ: 15.0  KHZ  GAIN: +15.0 DB  Q: 1410 
*SOURCE FILE: 19Y08M11
011271  19Y08M11                         A2    C        22:06:12:12 22:06:14:19 02:01:17:21 02:01:20:03 
*FROM CLIP NAME:  81K2/03.SYNC.01 
*A2 VOL =  +5.0 DB  PAN L100 
*EQ BAND 1 (LO SHELF) FREQ: 50.0 HZ  GAIN: -20.0 DB  Q: 1410 
*EQ BAND 2 (PRESENCE) FREQ: 50.0 HZ  GAIN:  -4.8 DB  Q:  670 
*EQ BAND 3 (HI SHELF) FREQ: 15.0  KHZ  GAIN: +15.0 DB  Q: 1410 
*SOURCE FILE: 19Y08M11
011272  19Y08M11                         A3    C        22:06:12:12 22:06:14:19 02:01:17:21 02:01:20:03 
*FROM CLIP NAME:  81K2/03.SYNC.01 
*SOURCE FILE: 19Y08M11
011273  19Y08M11                         A4    C        22:06:12:12 22:06:14:19 02:01:17:21 02:01:20:03 
*FROM CLIP NAME:  81K2/03.SYNC.01 
*PATCH 19Y08M11:  FROM SOURCE 8 TO RECORD 4 
*SOURCE FILE: 19Y08M11
011274  19Y08M11                         A5    C        22:06:12:12 22:06:14:19 02:01:17:21 02:01:20:03 
*FROM CLIP NAME:  81K2/03.SYNC.01 
*SOURCE FILE: 19Y08M11
011275  19Y08M11                         A6    C        22:06:12:12 22:06:14:19 02:01:17:21 02:01:20:03 
*FROM CLIP NAME:  81K2/03.SYNC.01 
*EQ BAND 1 (LO SHELF) FREQ: 50.0 HZ  GAIN: -20.0 DB  Q: 1410 
*EQ BAND 2 (PRESENCE) FREQ: 50.0 HZ  GAIN:  -4.8 DB  Q:  670 
*EQ BAND 3 (HI SHELF) FREQ: 15.0  KHZ  GAIN: +15.0 DB  Q: 1410 
*PATCH 19Y08M11:  FROM SOURCE 7 TO RECORD 6 
*SOURCE FILE: 19Y08M11
011276  MSMMMOB.65                       V     C        19:59:53:04 19:59:57:09 02:01:17:21 02:01:22:01 
M2      MSMMMOB.65                                025.0 19:59:53:04 
*FROM CLIP NAME:  B015C007_190811_R481 
*SOURCE FILE: MSMMMOB.65
011277  GLDR-APN-440_COMP_V001           V     C        00:00:00:00 00:00:04:05 02:01:17:21 02:01:22:01 
*FROM CLIP NAME:  GLDR-APN-440_COMP_V001 
*SOURCE FILE: GLDR-APN-440_COMP_V001
011278  19Y08M11                         A9    C        20:01:08:00 20:01:18:23 02:01:17:21 02:01:28:19 
*FROM CLIP NAME:  81AK2/03.SYNC.01 
*PATCH 19Y08M11:  FROM SOURCE 1 TO RECORD 9 
*SOURCE FILE: 19Y08M11
011279  19Y08M11                         A10   C        20:01:08:00 20:01:18:23 02:01:17:21 02:01:28:19 
*FROM CLIP NAME:  81AK2/03.SYNC.01 
*PATCH 19Y08M11:  FROM SOURCE 4 TO RECORD 10 
*SOURCE FILE: 19Y08M11
011280  19Y08M11                         A11   C        20:01:08:00 20:01:18:23 02:01:17:21 02:01:28:19 
*FROM CLIP NAME:  81AK2/03.SYNC.01 
*PATCH 19Y08M11:  FROM SOURCE 5 TO RECORD 11 
*SOURCE FILE: 19Y08M11
011281  19Y08M11                         A12   C        20:01:08:00 20:01:18:23 02:01:17:21 02:01:28:19 
*FROM CLIP NAME:  81AK2/03.SYNC.01 
*PATCH 19Y08M11:  FROM SOURCE 2 TO RECORD 12 
*SOURCE FILE: 19Y08M11
011282  ?????_-_??????_??????.MP3        A13   C        01:00:40:07 01:00:51:05 02:01:17:21 02:01:28:19 
*, D-VERB 
*FROM CLIP NAME:  ????? - ?????? ??????.MP3 
*A13 VOL = -19.4 DB  PAN L100 
*PATCH ?????_-_??????_??????.MP3:  FROM SOURCE 1 TO RECORD 13 
*SOURCE FILE: ????? - ?????? ??????.MP3
011283  ?????_-_??????_??????.MP3        A14   C        01:00:40:07 01:00:51:05 02:01:17:21 02:01:28:19 
*, D-VERB 
*FROM CLIP NAME:  ????? - ?????? ??????.MP3 
*A14 VOL = -19.4 DB  PAN R100 
*PATCH ?????_-_??????_??????.MP3:  FROM SOURCE 2 TO RECORD 14 
*SOURCE FILE: ????? - ?????? ??????.MP3
011284  411441__CREATIONSBYJACOBFILMS__M A7    C        01:00:00:00 01:00:02:17 02:01:19:16 02:01:22:08 
*FROM CLIP NAME:  411441__CREATIONSBYJACOBFILMS__MICROPHONE-FEEDBACK.WAV 
*A7 VOL = -33.9 DB  PAN R100 
*PATCH 411441__CREATIONSBYJACOBFILMS__M:  FROM SOURCE 1 TO RECORD 7 
*SOURCE FILE: 411441__CREATIONSBYJACOBFILMS__MICROPHONE-FEEDBACK.WAV
011285  411441__CREATIONSBYJACOBFILMS__M A8    C        01:00:00:00 01:00:02:17 02:01:19:16 02:01:22:08 
*FROM CLIP NAME:  411441__CREATIONSBYJACOBFILMS__MICROPHONE-FEEDBACK.WAV 
*A8 VOL = -33.9 DB  PAN L100 
*PATCH 411441__CREATIONSBYJACOBFILMS__M:  FROM SOURCE 2 TO RECORD 8 
*SOURCE FILE: 411441__CREATIONSBYJACOBFILMS__MICROPHONE-FEEDBACK.WAV
011286  19Y08M11                         A     C        22:06:14:19 22:06:15:13 02:01:20:24 02:01:21:18 
*FROM CLIP NAME:  81K2/03.SYNC.01 
*EQ BAND 1 (LO SHELF) FREQ: 50.0 HZ  GAIN: -20.0 DB  Q: 1410 
*EQ BAND 2 (PRESENCE) FREQ: 50.0 HZ  GAIN:  -4.8 DB  Q:  670 
*EQ BAND 3 (HI SHELF) FREQ: 15.0  KHZ  GAIN: +15.0 DB  Q: 1410 
*SOURCE FILE: 19Y08M11
011287  19Y08M11                         A2    C        22:06:14:19 22:06:15:13 02:01:20:24 02:01:21:18 
*FROM CLIP NAME:  81K2/03.SYNC.01 
*EQ BAND 1 (LO SHELF) FREQ: 50.0 HZ  GAIN: -20.0 DB  Q: 1410 
*EQ BAND 2 (PRESENCE) FREQ: 50.0 HZ  GAIN:  -4.8 DB  Q:  670 
*EQ BAND 3 (HI SHELF) FREQ: 15.0  KHZ  GAIN: +15.0 DB  Q: 1410 
*SOURCE FILE: 19Y08M11
011288  19Y08M11                         A3    C        22:06:14:19 22:06:15:13 02:01:20:24 02:01:21:18 
*FROM CLIP NAME:  81K2/03.SYNC.01 
*SOURCE FILE: 19Y08M11
011289  19Y08M11                         A4    C        22:06:14:19 22:06:15:13 02:01:20:24 02:01:21:18 
*FROM CLIP NAME:  81K2/03.SYNC.01 
*PATCH 19Y08M11:  FROM SOURCE 8 TO RECORD 4 
*SOURCE FILE: 19Y08M11
011290  19Y08M11                         A5    C        22:06:14:19 22:06:15:13 02:01:20:24 02:01:21:18 
*FROM CLIP NAME:  81K2/03.SYNC.01 
*SOURCE FILE: 19Y08M11
011291  19Y08M11                         A6    C        22:06:14:19 22:06:15:13 02:01:20:24 02:01:21:18 
*FROM CLIP NAME:  81K2/03.SYNC.01 
*EQ BAND 1 (LO SHELF) FREQ: 50.0 HZ  GAIN: -20.0 DB  Q: 1410 
*EQ BAND 2 (PRESENCE) FREQ: 50.0 HZ  GAIN:  -4.8 DB  Q:  670 
*EQ BAND 3 (HI SHELF) FREQ: 15.0  KHZ  GAIN: +15.0 DB  Q: 1410 
*PATCH 19Y08M11:  FROM SOURCE 7 TO RECORD 6 
*SOURCE FILE: 19Y08M11
011293  MSMMMOB.36                       V     C        19:40:57:12 19:41:01:08 02:01:22:01 02:01:25:22 
M2      MSMMMOB.36                                025.0 19:40:57:12 
*FROM CLIP NAME:  B015C005_190811_R481 
*SOURCE FILE: MSMMMOB.36
011292  BL                               V     C        00:00:00:00 00:00:03:21 02:01:22:01 02:01:25:22 
*SOURCE FILE: (NULL)
011294  19Y08M11                         A     C        22:06:15:13 22:06:18:19 02:01:22:03 02:01:25:09 
*FROM CLIP NAME:  81K2/03.SYNC.01 
*EQ BAND 1 (LO SHELF) FREQ: 50.0 HZ  GAIN: -20.0 DB  Q: 1410 
*EQ BAND 2 (PRESENCE) FREQ: 50.0 HZ  GAIN:  -4.8 DB  Q:  670 
*EQ BAND 3 (HI SHELF) FREQ: 15.0  KHZ  GAIN: +15.0 DB  Q: 1410 
*SOURCE FILE: 19Y08M11
011295  19Y08M11                         A2    C        22:06:15:13 22:06:18:19 02:01:22:03 02:01:25:09 
*FROM CLIP NAME:  81K2/03.SYNC.01 
*EQ BAND 1 (LO SHELF) FREQ: 50.0 HZ  GAIN: -20.0 DB  Q: 1410 
*EQ BAND 2 (PRESENCE) FREQ: 50.0 HZ  GAIN:  -4.8 DB  Q:  670 
*EQ BAND 3 (HI SHELF) FREQ: 15.0  KHZ  GAIN: +15.0 DB  Q: 1410 
*SOURCE FILE: 19Y08M11
011296  19Y08M11                         A3    C        22:06:15:13 22:06:18:19 02:01:22:03 02:01:25:09 
*FROM CLIP NAME:  81K2/03.SYNC.01 
*SOURCE FILE: 19Y08M11
011297  19Y08M11                         A4    C        22:06:15:13 22:06:18:19 02:01:22:03 02:01:25:09 
*FROM CLIP NAME:  81K2/03.SYNC.01 
*PATCH 19Y08M11:  FROM SOURCE 8 TO RECORD 4 
*SOURCE FILE: 19Y08M11
011298  19Y08M11                         A5    C        22:06:15:13 22:06:18:19 02:01:22:03 02:01:25:09 
*FROM CLIP NAME:  81K2/03.SYNC.01 
*SOURCE FILE: 19Y08M11
011299  19Y08M11                         A6    C        22:06:15:13 22:06:18:19 02:01:22:03 02:01:25:09 
*FROM CLIP NAME:  81K2/03.SYNC.01 
*EQ BAND 1 (LO SHELF) FREQ: 50.0 HZ  GAIN: -20.0 DB  Q: 1410 
*EQ BAND 2 (PRESENCE) FREQ: 50.0 HZ  GAIN:  -4.8 DB  Q:  670 
*EQ BAND 3 (HI SHELF) FREQ: 15.0  KHZ  GAIN: +15.0 DB  Q: 1410 
*PATCH 19Y08M11:  FROM SOURCE 7 TO RECORD 6 
*SOURCE FILE: 19Y08M11
011300  GLDR-APN-450_COMP_V001           V     C        00:00:00:00 00:00:02:22 02:01:25:22 02:01:28:19 
*FROM CLIP NAME:  GLDR-APN-450_COMP_V001 
*SOURCE FILE: GLDR-APN-450_COMP_V001
011301  MSMMMOB.65                       V     C        19:59:58:07 20:00:01:04 02:01:25:22 02:01:28:19 
M2      MSMMMOB.65                                025.0 19:59:58:07 
*FROM CLIP NAME:  B015C007_190811_R481 
*SOURCE FILE: MSMMMOB.65
011302  19Y08M11                         A     C        22:06:18:00 22:06:18:08 02:01:28:19 02:01:29:02 
*FROM CLIP NAME:  81K2/03.SYNC.01 
*SOURCE FILE: 19Y08M11
011303  19Y08M11                         A2    C        22:06:18:00 22:06:18:08 02:01:28:19 02:01:29:02 
*FROM CLIP NAME:  81K2/03.SYNC.01 
*SOURCE FILE: 19Y08M11
011304  19Y08M11                         A3    C        22:06:18:00 22:06:18:08 02:01:28:19 02:01:29:02 
*FROM CLIP NAME:  81K2/03.SYNC.01 
*SOURCE FILE: 19Y08M11
011305  19Y08M11                         A4    C        22:06:18:00 22:06:18:08 02:01:28:19 02:01:29:02 
*FROM CLIP NAME:  81K2/03.SYNC.01 
*PATCH 19Y08M11:  FROM SOURCE 8 TO RECORD 4 
*SOURCE FILE: 19Y08M11
011306  19Y08M11                         A5    C        22:06:18:00 22:06:18:08 02:01:28:19 02:01:29:02 
*FROM CLIP NAME:  81K2/03.SYNC.01 
*SOURCE FILE: 19Y08M11
011307  19Y08M11                         A6    C        22:06:18:00 22:06:18:08 02:01:28:19 02:01:29:02 
*FROM CLIP NAME:  81K2/03.SYNC.01 
*PATCH 19Y08M11:  FROM SOURCE 7 TO RECORD 6 
*SOURCE FILE: 19Y08M11
011308  19Y08M11                         A7    C        22:11:23:22 22:11:24:11 02:01:28:19 02:01:29:08 
*FROM CLIP NAME:  81K3/01.SYNC.01 
*A7 VOL =  +8.0 DB  PAN R100 
*PATCH 19Y08M11:  FROM SOURCE 5 TO RECORD 7 
*SOURCE FILE: 19Y08M11
011309  MSMMMOB.12                       V     C        22:06:18:02 22:06:18:19 02:01:28:19 02:01:29:11 
M2      MSMMMOB.12                                025.0 22:06:18:02 
*FROM CLIP NAME:  B017C005_190811_R481 
*SOURCE FILE: MSMMMOB.12
011310  BL                               V     C        00:00:00:00 00:00:07:22 02:01:28:19 02:01:36:16 
*SOURCE FILE: (NULL)
011311  ?????_-_??????_??????.MP3        A13   C        01:00:51:05 01:00:59:02 02:01:28:19 02:01:36:16 
*, D-VERB 
*FROM CLIP NAME:  ????? - ?????? ??????.MP3 
*A13 VOL = -30.0 DB  PAN L100 
*PATCH ?????_-_??????_??????.MP3:  FROM SOURCE 1 TO RECORD 13 
*SOURCE FILE: ????? - ?????? ??????.MP3
011312  ?????_-_??????_??????.MP3        A14   C        01:00:51:05 01:00:59:02 02:01:28:19 02:01:36:16 
*, D-VERB 
*FROM CLIP NAME:  ????? - ?????? ??????.MP3 
*A14 VOL = -30.0 DB  PAN R100 
*PATCH ?????_-_??????_??????.MP3:  FROM SOURCE 2 TO RECORD 14 
*SOURCE FILE: ????? - ?????? ??????.MP3
011313  19Y08M11                         A     C        22:06:18:21 22:06:19:00 02:01:29:02 02:01:29:06 
*FROM CLIP NAME:  81K2/03.SYNC.01 
*SOURCE FILE: 19Y08M11
011314  19Y08M11                         A2    C        22:06:18:21 22:06:19:00 02:01:29:02 02:01:29:06 
*FROM CLIP NAME:  81K2/03.SYNC.01 
*SOURCE FILE: 19Y08M11
011315  19Y08M11                         A3    C        22:06:18:21 22:06:19:00 02:01:29:02 02:01:29:06 
*FROM CLIP NAME:  81K2/03.SYNC.01 
*SOURCE FILE: 19Y08M11
011316  19Y08M11                         A4    C        22:06:18:21 22:06:19:00 02:01:29:02 02:01:29:06 
*FROM CLIP NAME:  81K2/03.SYNC.01 
*PATCH 19Y08M11:  FROM SOURCE 8 TO RECORD 4 
*SOURCE FILE: 19Y08M11
011317  19Y08M11                         A5    C        22:06:18:21 22:06:19:00 02:01:29:02 02:01:29:06 
*FROM CLIP NAME:  81K2/03.SYNC.01 
*SOURCE FILE: 19Y08M11
011318  19Y08M11                         A6    C        22:06:18:21 22:06:19:00 02:01:29:02 02:01:29:06 
*FROM CLIP NAME:  81K2/03.SYNC.01 
*PATCH 19Y08M11:  FROM SOURCE 7 TO RECORD 6 
*SOURCE FILE: 19Y08M11
011319  19Y08M11                         A     C        22:14:59:18 22:15:04:21 02:01:29:06 02:01:34:09 
*FROM CLIP NAME:  81K3/03.SYNC.01 
*SOURCE FILE: 19Y08M11
011320  19Y08M11                         A2    C        22:14:59:18 22:15:04:21 02:01:29:06 02:01:34:09 
*FROM CLIP NAME:  81K3/03.SYNC.01 
*SOURCE FILE: 19Y08M11
011321  19Y08M11                         A3    C        22:14:59:18 22:15:04:21 02:01:29:06 02:01:34:09 
*FROM CLIP NAME:  81K3/03.SYNC.01 
*SOURCE FILE: 19Y08M11
011322  19Y08M11                         A4    C        22:14:59:18 22:15:04:21 02:01:29:06 02:01:34:09 
*FROM CLIP NAME:  81K3/03.SYNC.01 
*PATCH 19Y08M11:  FROM SOURCE 8 TO RECORD 4 
*SOURCE FILE: 19Y08M11
011323  19Y08M11                         A5    C        22:14:59:18 22:15:04:21 02:01:29:06 02:01:34:09 
*FROM CLIP NAME:  81K3/03.SYNC.01 
*SOURCE FILE: 19Y08M11
011324  19Y08M11                         A6    C        22:14:59:18 22:15:04:21 02:01:29:06 02:01:34:09 
*FROM CLIP NAME:  81K3/03.SYNC.01 
*PATCH 19Y08M11:  FROM SOURCE 7 TO RECORD 6 
*SOURCE FILE: 19Y08M11
011325  MSMMMOB.72                       V     C        22:15:00:00 22:15:04:23 02:01:29:11 02:01:34:09 
M2      MSMMMOB.72                                025.0 22:15:00:00 
*FROM CLIP NAME:  B017C008_190811_R481 
*SOURCE FILE: MSMMMOB.72
011326  MSMMMOB.12                       V     C        22:06:26:24 22:06:29:06 02:01:34:09 02:01:36:16 
M2      MSMMMOB.12                                025.0 22:06:26:24 
*FROM CLIP NAME:  B017C005_190811_R481 
*SOURCE FILE: MSMMMOB.12
011327  19Y08M11                         A     C        22:06:26:22 22:06:29:04 02:01:34:09 02:01:36:16 
*FROM CLIP NAME:  81K2/03.SYNC.01 
*SOURCE FILE: 19Y08M11
011328  19Y08M11                         A2    C        22:06:26:22 22:06:29:04 02:01:34:09 02:01:36:16 
*FROM CLIP NAME:  81K2/03.SYNC.01 
*SOURCE FILE: 19Y08M11
011329  19Y08M11                         A3    C        22:06:26:22 22:06:29:04 02:01:34:09 02:01:36:16 
*FROM CLIP NAME:  81K2/03.SYNC.01 
*SOURCE FILE: 19Y08M11
011330  19Y08M11                         A4    C        22:06:26:22 22:06:29:04 02:01:34:09 02:01:36:16 
*FROM CLIP NAME:  81K2/03.SYNC.01 
*PATCH 19Y08M11:  FROM SOURCE 8 TO RECORD 4 
*SOURCE FILE: 19Y08M11
011331  19Y08M11                         A5    C        22:06:26:22 22:06:29:04 02:01:34:09 02:01:36:16 
*FROM CLIP NAME:  81K2/03.SYNC.01 
*SOURCE FILE: 19Y08M11
011332  19Y08M11                         A6    C        22:06:26:22 22:06:29:04 02:01:34:09 02:01:36:16 
*FROM CLIP NAME:  81K2/03.SYNC.01 
*PATCH 19Y08M11:  FROM SOURCE 7 TO RECORD 6 
*SOURCE FILE: 19Y08M11
011333  19Y08M01                         A8    C        21:48:37:05 21:48:38:01 02:01:36:16 02:01:37:12 
*FROM CLIP NAME:  GUR_76/01 
*A8 VOL = -12.5 DB  PAN L100 
*PATCH 19Y08M01:  FROM SOURCE 4 TO RECORD 8 
*SOURCE FILE: 19Y08M01
011334  19Y08M01                         A9    C        21:48:37:05 21:48:38:01 02:01:36:16 02:01:37:12 
*FROM CLIP NAME:  GUR_76/01 
*A9 VOL = -12.5 DB  PAN R100 
*PATCH 19Y08M01:  FROM SOURCE 1 TO RECORD 9 
*SOURCE FILE: 19Y08M01
011335  19Y08M01                         A10   C        21:48:37:05 21:48:38:01 02:01:36:16 02:01:37:12 
*FROM CLIP NAME:  GUR_76/01 
*A10 VOL = -12.5 DB  PAN L100 
*PATCH 19Y08M01:  FROM SOURCE 3 TO RECORD 10 
*SOURCE FILE: 19Y08M01
011336  GLDR-APN-460_COMP_V001           V     C        00:00:00:00 00:00:04:00 02:01:36:16 02:01:40:16 
*FROM CLIP NAME:  GLDR-APN-460_COMP_V001 
*SOURCE FILE: GLDR-APN-460_COMP_V001
011337  MSMMMOB.81                       V     C        20:01:20:18 20:01:24:18 02:01:36:16 02:01:40:16 
M2      MSMMMOB.81                                025.0 20:01:20:18 
*FROM CLIP NAME:  B015C008_190811_R481 
*SOURCE FILE: MSMMMOB.81
011338  19Y08M11                         A     C        20:01:20:24 20:01:26:05 02:01:36:16 02:01:41:22 
*FROM CLIP NAME:  81AK2/03.SYNC.01 
*SOURCE FILE: 19Y08M11
011339  19Y08M11                         A2    C        20:01:20:24 20:01:26:05 02:01:36:16 02:01:41:22 
*FROM CLIP NAME:  81AK2/03.SYNC.01 
*SOURCE FILE: 19Y08M11
011340  19Y08M11                         A3    C        20:01:20:24 20:01:26:05 02:01:36:16 02:01:41:22 
*FROM CLIP NAME:  81AK2/03.SYNC.01 
*PATCH 19Y08M11:  FROM SOURCE 5 TO RECORD 3 
*SOURCE FILE: 19Y08M11
011341  19Y08M11                         A4    C        20:01:20:24 20:01:26:05 02:01:36:16 02:01:41:22 
*FROM CLIP NAME:  81AK2/03.SYNC.01 
*SOURCE FILE: 19Y08M11
011342  ?????_-_??????_??????.MP3        A13   C        01:00:59:02 01:01:06:07 02:01:36:16 02:01:43:21 
*, D-VERB 
*FROM CLIP NAME:  ????? - ?????? ??????.MP3 
*A13 VOL = -20.0 DB  PAN L100 
*PATCH ?????_-_??????_??????.MP3:  FROM SOURCE 1 TO RECORD 13 
*SOURCE FILE: ????? - ?????? ??????.MP3
011343  ?????_-_??????_??????.MP3        A14   C        01:00:59:02 01:01:06:07 02:01:36:16 02:01:43:21 
*, D-VERB 
*FROM CLIP NAME:  ????? - ?????? ??????.MP3 
*A14 VOL = -20.0 DB  PAN R100 
*PATCH ?????_-_??????_??????.MP3:  FROM SOURCE 2 TO RECORD 14 
*SOURCE FILE: ????? - ?????? ??????.MP3
011344  19Y08M01                         A8    C        21:48:38:20 21:48:41:02 02:01:37:12 02:01:39:19 
*FROM CLIP NAME:  GUR_76/01 
*A8 VOL = -12.5 DB  PAN L100 
*PATCH 19Y08M01:  FROM SOURCE 4 TO RECORD 8 
*SOURCE FILE: 19Y08M01
011345  19Y08M01                         A9    C        21:48:38:20 21:48:41:02 02:01:37:12 02:01:39:19 
*FROM CLIP NAME:  GUR_76/01 
*A9 VOL = -12.5 DB  PAN R100 
*PATCH 19Y08M01:  FROM SOURCE 1 TO RECORD 9 
*SOURCE FILE: 19Y08M01
011346  19Y08M01                         A10   C        21:48:38:20 21:48:41:02 02:01:37:12 02:01:39:19 
*FROM CLIP NAME:  GUR_76/01 
*A10 VOL = -12.5 DB  PAN L100 
*PATCH 19Y08M01:  FROM SOURCE 3 TO RECORD 10 
*SOURCE FILE: 19Y08M01
011347  BL                               V     C        00:00:00:00 00:00:04:12 02:01:39:09 02:01:43:21 
*SOURCE FILE: (NULL)
011348  19Y08M01                         A8    C        21:48:41:02 21:48:41:02 02:01:39:19 02:01:39:19 
011348  19Y08M01                         A8    D    010 21:48:41:02 21:48:41:12 02:01:39:19 02:01:40:04 
*FROM CLIP NAME:  GUR_76/01 
*TO CLIP NAME:  GUR_76/01 
*A8 VOL = -12.5 DB  PAN L100 
*A8 VOL =  -5.6 DB  PAN L100 
*PATCH 19Y08M01:  FROM SOURCE 4 TO RECORD 8 
*PATCH 19Y08M01:  FROM SOURCE 4 TO RECORD 8 
*SOURCE FILE: 19Y08M01
011349  19Y08M01                         A9    C        21:48:41:02 21:48:41:02 02:01:39:19 02:01:39:19 
011349  19Y08M01                         A9    D    010 21:48:41:02 21:48:41:12 02:01:39:19 02:01:40:04 
*FROM CLIP NAME:  GUR_76/01 
*TO CLIP NAME:  GUR_76/01 
*A9 VOL = -12.5 DB  PAN R100 
*A9 VOL =  -5.6 DB  PAN R100 
*PATCH 19Y08M01:  FROM SOURCE 1 TO RECORD 9 
*PATCH 19Y08M01:  FROM SOURCE 1 TO RECORD 9 
*SOURCE FILE: 19Y08M01
011350  19Y08M01                         A10   C        21:48:41:02 21:48:41:02 02:01:39:19 02:01:39:19 
011350  19Y08M01                         A10   D    010 21:48:41:02 21:48:41:12 02:01:39:19 02:01:40:04 
*FROM CLIP NAME:  GUR_76/01 
*TO CLIP NAME:  GUR_76/01 
*A10 VOL = -12.5 DB  PAN L100 
*A10 VOL =  -5.6 DB  PAN L100 
*PATCH 19Y08M01:  FROM SOURCE 3 TO RECORD 10 
*PATCH 19Y08M01:  FROM SOURCE 3 TO RECORD 10 
*SOURCE FILE: 19Y08M01
011351  19Y08M01                         A8    C        21:48:41:12 21:48:45:04 02:01:40:04 02:01:43:21 
*FROM CLIP NAME:  GUR_76/01 
*A8 VOL =  -5.6 DB  PAN L100 
*PATCH 19Y08M01:  FROM SOURCE 4 TO RECORD 8 
*SOURCE FILE: 19Y08M01
011352  19Y08M01                         A9    C        21:48:41:12 21:48:45:04 02:01:40:04 02:01:43:21 
*FROM CLIP NAME:  GUR_76/01 
*A9 VOL =  -5.6 DB  PAN R100 
*PATCH 19Y08M01:  FROM SOURCE 1 TO RECORD 9 
*SOURCE FILE: 19Y08M01
011353  19Y08M01                         A10   C        21:48:41:12 21:48:45:04 02:01:40:04 02:01:43:21 
*FROM CLIP NAME:  GUR_76/01 
*A10 VOL =  -5.6 DB  PAN L100 
*PATCH 19Y08M01:  FROM SOURCE 3 TO RECORD 10 
*SOURCE FILE: 19Y08M01
011354  MSMMMOB.45                       V     C        19:24:18:08 19:24:19:14 02:01:40:16 02:01:41:22 
M2      MSMMMOB.45                                025.0 19:24:18:08 
*FROM CLIP NAME:  B015C003_190811_R481 
*SOURCE FILE: MSMMMOB.45
011355  BL                               V     C        00:00:00:00 00:10:39:07 02:01:40:16 02:12:19:23 
*SOURCE FILE: (NULL)
011356  MSMMMOB.29                       V     C        19:20:19:16 19:20:21:15 02:01:41:22 02:01:43:21 
M2      MSMMMOB.29                                025.0 19:20:19:16 
*FROM CLIP NAME:  B015C002_190811_R481 
*SOURCE FILE: MSMMMOB.29
011357  19Y08M11                         A     C        20:33:13:03 20:33:22:19 02:01:43:21 02:01:53:12 
*FROM CLIP NAME:  82K1/03.SYNC.01 
*SOURCE FILE: 19Y08M11
011358  19Y08M11                         A2    C        20:33:13:03 20:33:22:19 02:01:43:21 02:01:53:12 
*FROM CLIP NAME:  82K1/03.SYNC.01 
*SOURCE FILE: 19Y08M11
011359  19Y08M11                         A3    C        20:33:13:03 20:33:22:19 02:01:43:21 02:01:53:12 
*FROM CLIP NAME:  82K1/03.SYNC.01 
*PATCH 19Y08M11:  FROM SOURCE 4 TO RECORD 3 
*SOURCE FILE: 19Y08M11
011360  19Y08M11                         A4    C        20:33:13:03 20:33:22:19 02:01:43:21 02:01:53:12 
*FROM CLIP NAME:  82K1/03.SYNC.01 
*PATCH 19Y08M11:  FROM SOURCE 5 TO RECORD 4 
*SOURCE FILE: 19Y08M11
011361  19Y08M11                         A5    C        20:33:13:03 20:33:22:19 02:01:43:21 02:01:53:12 
*FROM CLIP NAME:  82K1/03.SYNC.01 
*PATCH 19Y08M11:  FROM SOURCE 6 TO RECORD 5 
*SOURCE FILE: 19Y08M11
011362  19Y08M11                         A6    C        20:33:13:03 20:33:22:19 02:01:43:21 02:01:53:12 
*FROM CLIP NAME:  82K1/03.SYNC.01 
*PATCH 19Y08M11:  FROM SOURCE 8 TO RECORD 6 
*SOURCE FILE: 19Y08M11
011363  19Y08M11                         A7    C        20:33:13:03 20:33:22:19 02:01:43:21 02:01:53:12 
*FROM CLIP NAME:  82K1/03.SYNC.01 
*A7 VOL =  +7.3 DB  PAN R100 
*SOURCE FILE: 19Y08M11
011364  MSMMMOB.63                       V     C        20:33:13:04 20:33:24:02 02:01:43:21 02:01:54:19 
M2      MSMMMOB.63                                025.0 20:33:13:04 
*FROM CLIP NAME:  B016C003_190811_R481 
*SOURCE FILE: MSMMMOB.63
011365  ?????_-_??????_??????.MP3        A13   C        01:01:08:19 01:01:32:11 02:01:43:21 02:02:07:13 
*, D-VERB 
*FROM CLIP NAME:  ????? - ?????? ??????.MP3 
*A13 VOL = -20.0 DB  PAN L100 
*PATCH ?????_-_??????_??????.MP3:  FROM SOURCE 1 TO RECORD 13 
*SOURCE FILE: ????? - ?????? ??????.MP3
011366  ?????_-_??????_??????.MP3        A14   C        01:01:08:19 01:01:32:11 02:01:43:21 02:02:07:13 
*, D-VERB 
*FROM CLIP NAME:  ????? - ?????? ??????.MP3 
*A14 VOL = -20.0 DB  PAN R100 
*PATCH ?????_-_??????_??????.MP3:  FROM SOURCE 2 TO RECORD 14 
*SOURCE FILE: ????? - ?????? ??????.MP3
011367  BL                               V     C        00:00:00:00 00:01:14:00 02:01:43:21 02:02:57:21 
*SOURCE FILE: (NULL)
011368  19Y08M11                         A     C        20:58:03:23 20:58:05:17 02:01:53:12 02:01:55:06 
*FROM CLIP NAME:  82K3/03.SYNC.01 
*SOURCE FILE: 19Y08M11
011369  19Y08M11                         A2    C        20:58:03:23 20:58:05:17 02:01:53:12 02:01:55:06 
*FROM CLIP NAME:  82K3/03.SYNC.01 
*SOURCE FILE: 19Y08M11
011370  19Y08M11                         A3    C        20:58:03:23 20:58:05:17 02:01:53:12 02:01:55:06 
*FROM CLIP NAME:  82K3/03.SYNC.01 
*PATCH 19Y08M11:  FROM SOURCE 5 TO RECORD 3 
*SOURCE FILE: 19Y08M11
011371  19Y08M11                         A4    C        20:58:03:23 20:58:05:17 02:01:53:12 02:01:55:06 
*FROM CLIP NAME:  82K3/03.SYNC.01 
*PATCH 19Y08M11:  FROM SOURCE 6 TO RECORD 4 
*SOURCE FILE: 19Y08M11
011372  19Y08M11                         A5    C        20:58:03:23 20:58:05:17 02:01:53:12 02:01:55:06 
*FROM CLIP NAME:  82K3/03.SYNC.01 
*A5 VOL =  +8.1 DB  PAN R100 
*PATCH 19Y08M11:  FROM SOURCE 7 TO RECORD 5 
*SOURCE FILE: 19Y08M11
011373  19Y08M11                         A6    C        20:58:03:23 20:58:05:17 02:01:53:12 02:01:55:06 
*FROM CLIP NAME:  82K3/03.SYNC.01 
*PATCH 19Y08M11:  FROM SOURCE 8 TO RECORD 6 
*SOURCE FILE: 19Y08M11
011374  MSMMMOB.40                       V     C        20:47:33:02 20:47:34:04 02:01:54:19 02:01:55:21 
M2      MSMMMOB.40                                025.0 20:47:33:02 
*FROM CLIP NAME:  B016C005_190811_R481 
*SOURCE FILE: MSMMMOB.40
011375  19Y08M11                         A     C        20:47:33:13 20:47:34:03 02:01:55:06 02:01:55:21 
*FROM CLIP NAME:  82K2/02.SYNC.01 
*SOURCE FILE: 19Y08M11
011376  19Y08M11                         A2    C        20:47:33:13 20:47:34:03 02:01:55:06 02:01:55:21 
*FROM CLIP NAME:  82K2/02.SYNC.01 
*SOURCE FILE: 19Y08M11
011377  19Y08M11                         A3    C        20:47:33:13 20:47:34:03 02:01:55:06 02:01:55:21 
*FROM CLIP NAME:  82K2/02.SYNC.01 
*PATCH 19Y08M11:  FROM SOURCE 5 TO RECORD 3 
*SOURCE FILE: 19Y08M11
011378  19Y08M11                         A4    C        20:47:33:13 20:47:34:03 02:01:55:06 02:01:55:21 
*FROM CLIP NAME:  82K2/02.SYNC.01 
*A4 VOL =  +8.0 DB  PAN L100 
*PATCH 19Y08M11:  FROM SOURCE 8 TO RECORD 4 
*SOURCE FILE: 19Y08M11
011379  19Y08M11                         A5    C        20:47:33:13 20:47:34:03 02:01:55:06 02:01:55:21 
*FROM CLIP NAME:  82K2/02.SYNC.01 
*PATCH 19Y08M11:  FROM SOURCE 7 TO RECORD 5 
*SOURCE FILE: 19Y08M11
011380  19Y08M11                         A6    C        20:47:33:13 20:47:34:03 02:01:55:06 02:01:55:21 
*FROM CLIP NAME:  82K2/02.SYNC.01 
*SOURCE FILE: 19Y08M11
011381  MSMMMOB.22                       V     C        20:58:06:13 20:58:08:00 02:01:55:21 02:01:57:08 
M2      MSMMMOB.22                                025.0 20:58:06:13 
*FROM CLIP NAME:  B016C008_190811_R481 
*SOURCE FILE: MSMMMOB.22
011382  19Y08M11                         A     C        20:58:06:12 20:58:07:24 02:01:55:21 02:01:57:08 
*FROM CLIP NAME:  82K3/03.SYNC.01 
*SOURCE FILE: 19Y08M11
011383  19Y08M11                         A2    C        20:58:06:12 20:58:07:24 02:01:55:21 02:01:57:08 
*FROM CLIP NAME:  82K3/03.SYNC.01 
*SOURCE FILE: 19Y08M11
011384  19Y08M11                         A3    C        20:58:06:12 20:58:07:24 02:01:55:21 02:01:57:08 
*FROM CLIP NAME:  82K3/03.SYNC.01 
*PATCH 19Y08M11:  FROM SOURCE 5 TO RECORD 3 
*SOURCE FILE: 19Y08M11
011385  19Y08M11                         A4    C        20:58:06:12 20:58:07:24 02:01:55:21 02:01:57:08 
*FROM CLIP NAME:  82K3/03.SYNC.01 
*PATCH 19Y08M11:  FROM SOURCE 8 TO RECORD 4 
*SOURCE FILE: 19Y08M11
011386  19Y08M11                         A5    C        20:58:06:12 20:58:07:24 02:01:55:21 02:01:57:08 
*FROM CLIP NAME:  82K3/03.SYNC.01 
*A5 VOL =  +8.0 DB  PAN R100 
*PATCH 19Y08M11:  FROM SOURCE 7 TO RECORD 5 
*SOURCE FILE: 19Y08M11
011387  19Y08M11                         A6    C        20:58:06:12 20:58:07:24 02:01:55:21 02:01:57:08 
*FROM CLIP NAME:  82K3/03.SYNC.01 
*SOURCE FILE: 19Y08M11
011388  MSMMMOB.40                       V     C        20:47:35:11 20:47:37:17 02:01:57:08 02:01:59:14 
M2      MSMMMOB.40                                025.0 20:47:35:11 
*FROM CLIP NAME:  B016C005_190811_R481 
*SOURCE FILE: MSMMMOB.40
011389  19Y08M11                         A     C        20:47:35:10 20:47:37:16 02:01:57:08 02:01:59:14 
*FROM CLIP NAME:  82K2/02.SYNC.01 
*SOURCE FILE: 19Y08M11
011390  19Y08M11                         A2    C        20:47:35:10 20:47:37:16 02:01:57:08 02:01:59:14 
*FROM CLIP NAME:  82K2/02.SYNC.01 
*SOURCE FILE: 19Y08M11
011391  19Y08M11                         A3    C        20:47:35:10 20:47:37:16 02:01:57:08 02:01:59:14 
*FROM CLIP NAME:  82K2/02.SYNC.01 
*PATCH 19Y08M11:  FROM SOURCE 8 TO RECORD 3 
*SOURCE FILE: 19Y08M11
011392  19Y08M11                         A4    C        20:47:35:10 20:47:37:16 02:01:57:08 02:01:59:14 
*FROM CLIP NAME:  82K2/02.SYNC.01 
*PATCH 19Y08M11:  FROM SOURCE 5 TO RECORD 4 
*SOURCE FILE: 19Y08M11
011393  19Y08M11                         A5    C        20:47:35:10 20:47:37:16 02:01:57:08 02:01:59:14 
*FROM CLIP NAME:  82K2/02.SYNC.01 
*PATCH 19Y08M11:  FROM SOURCE 6 TO RECORD 5 
*SOURCE FILE: 19Y08M11
011394  19Y08M11                         A6    C        20:47:35:10 20:47:37:16 02:01:57:08 02:01:59:14 
*FROM CLIP NAME:  82K2/02.SYNC.01 
*A6 VOL =  +8.0 DB  PAN L100 
*PATCH 19Y08M11:  FROM SOURCE 7 TO RECORD 6 
*SOURCE FILE: 19Y08M11
011395  19Y08M11                         A     C        20:58:10:04 20:58:16:02 02:01:59:14 02:02:05:12 
*FROM CLIP NAME:  82K3/03.SYNC.01 
*SOURCE FILE: 19Y08M11
011396  19Y08M11                         A2    C        20:58:10:04 20:58:16:02 02:01:59:14 02:02:05:12 
*FROM CLIP NAME:  82K3/03.SYNC.01 
*SOURCE FILE: 19Y08M11
011397  19Y08M11                         A3    C        20:58:10:04 20:58:16:02 02:01:59:14 02:02:05:12 
*FROM CLIP NAME:  82K3/03.SYNC.01 
*PATCH 19Y08M11:  FROM SOURCE 5 TO RECORD 3 
*SOURCE FILE: 19Y08M11
011398  19Y08M11                         A4    C        20:58:10:04 20:58:16:02 02:01:59:14 02:02:05:12 
*FROM CLIP NAME:  82K3/03.SYNC.01 
*PATCH 19Y08M11:  FROM SOURCE 8 TO RECORD 4 
*SOURCE FILE: 19Y08M11
011399  19Y08M11                         A5    C        20:58:10:04 20:58:16:02 02:01:59:14 02:02:05:12 
*FROM CLIP NAME:  82K3/03.SYNC.01 
*A5 VOL =  +6.0 DB  PAN R100 
*PATCH 19Y08M11:  FROM SOURCE 7 TO RECORD 5 
*SOURCE FILE: 19Y08M11
011400  19Y08M11                         A6    C        20:58:10:04 20:58:16:02 02:01:59:14 02:02:05:12 
*FROM CLIP NAME:  82K3/03.SYNC.01 
*SOURCE FILE: 19Y08M11
011401  MSMMMOB.22                       V     C        20:58:10:05 20:58:18:04 02:01:59:14 02:02:07:13 
M2      MSMMMOB.22                                025.0 20:58:10:05 
*FROM CLIP NAME:  B016C008_190811_R481 
*SOURCE FILE: MSMMMOB.22
011402  19Y08M11                         A     C        20:47:43:22 20:47:45:23 02:02:05:12 02:02:07:13 
*FROM CLIP NAME:  82K2/02.SYNC.01 
*SOURCE FILE: 19Y08M11
011403  19Y08M11                         A2    C        20:47:43:22 20:47:45:23 02:02:05:12 02:02:07:13 
*FROM CLIP NAME:  82K2/02.SYNC.01 
*SOURCE FILE: 19Y08M11
011404  19Y08M11                         A3    C        20:47:43:22 20:47:45:23 02:02:05:12 02:02:07:13 
*FROM CLIP NAME:  82K2/02.SYNC.01 
*A3 VOL =  +8.0 DB  PAN R100 
*PATCH 19Y08M11:  FROM SOURCE 5 TO RECORD 3 
*SOURCE FILE: 19Y08M11
011405  19Y08M11                         A4    C        20:47:43:22 20:47:45:23 02:02:05:12 02:02:07:13 
*FROM CLIP NAME:  82K2/02.SYNC.01 
*PATCH 19Y08M11:  FROM SOURCE 8 TO RECORD 4 
*SOURCE FILE: 19Y08M11
011406  19Y08M11                         A5    C        20:47:43:22 20:47:45:23 02:02:05:12 02:02:07:13 
*FROM CLIP NAME:  82K2/02.SYNC.01 
*PATCH 19Y08M11:  FROM SOURCE 7 TO RECORD 5 
*SOURCE FILE: 19Y08M11
011407  19Y08M11                         A6    C        20:47:43:22 20:47:45:23 02:02:05:12 02:02:07:13 
*FROM CLIP NAME:  82K2/02.SYNC.01 
*SOURCE FILE: 19Y08M11
011408  19Y08M11                         A     C        20:47:45:24 20:47:49:00 02:02:07:13 02:02:10:14 
*FROM CLIP NAME:  82K2/02.SYNC.01 
*SOURCE FILE: 19Y08M11
011409  19Y08M11                         A2    C        20:47:45:24 20:47:49:00 02:02:07:13 02:02:10:14 
*FROM CLIP NAME:  82K2/02.SYNC.01 
*SOURCE FILE: 19Y08M11
011410  19Y08M11                         A3    C        20:47:45:24 20:47:49:00 02:02:07:13 02:02:10:14 
*FROM CLIP NAME:  82K2/02.SYNC.01 
*PATCH 19Y08M11:  FROM SOURCE 8 TO RECORD 3 
*SOURCE FILE: 19Y08M11
011411  19Y08M11                         A4    C        20:47:45:24 20:47:49:00 02:02:07:13 02:02:10:14 
*FROM CLIP NAME:  82K2/02.SYNC.01 
*A4 VOL =  +8.1 DB  PAN L100 
*PATCH 19Y08M11:  FROM SOURCE 5 TO RECORD 4 
*SOURCE FILE: 19Y08M11
011412  19Y08M11                         A5    C        20:47:45:24 20:47:49:00 02:02:07:13 02:02:10:14 
*FROM CLIP NAME:  82K2/02.SYNC.01 
*PATCH 19Y08M11:  FROM SOURCE 6 TO RECORD 5 
*SOURCE FILE: 19Y08M11
011413  19Y08M11                         A6    C        20:47:45:24 20:47:49:00 02:02:07:13 02:02:10:14 
*FROM CLIP NAME:  82K2/02.SYNC.01 
*PATCH 19Y08M11:  FROM SOURCE 7 TO RECORD 6 
*SOURCE FILE: 19Y08M11
011414  MSMMMOB.40                       V     C        20:47:46:00 20:47:49:04 02:02:07:13 02:02:10:17 
M2      MSMMMOB.40                                025.0 20:47:46:00 
*FROM CLIP NAME:  B016C005_190811_R481 
*SOURCE FILE: MSMMMOB.40
011415  ?????_-_??????_??????.MP3        A13   C        01:01:32:11 01:01:39:05 02:02:07:13 02:02:14:07 
*, D-VERB 
*FROM CLIP NAME:  ????? - ?????? ??????.MP3 
*A13 VOL = -20.0 DB  PAN L100 
*PATCH ?????_-_??????_??????.MP3:  FROM SOURCE 1 TO RECORD 13 
*SOURCE FILE: ????? - ?????? ??????.MP3
011416  ?????_-_??????_??????.MP3        A14   C        01:01:32:11 01:01:39:05 02:02:07:13 02:02:14:07 
*, D-VERB 
*FROM CLIP NAME:  ????? - ?????? ??????.MP3 
*A14 VOL = -20.0 DB  PAN R100 
*PATCH ?????_-_??????_??????.MP3:  FROM SOURCE 2 TO RECORD 14 
*SOURCE FILE: ????? - ?????? ??????.MP3
011417  CINEMASCOPE_2-35-1_CROPLINES.PNG V     C        01:03:54:23 01:04:48:20 02:02:07:13 02:03:01:10 
*FROM CLIP NAME:  CINEMASCOPE 2-35-1 CROPLINES.PNG 
*SOURCE FILE: CINEMASCOPE 2-35-1 CROPLINES.PNG
011418  BL                               V     C        00:00:00:00 00:01:50:06 02:02:07:13 02:03:57:19 
*SOURCE FILE: (NULL)
011419  19Y08M11                         A     C        20:33:41:15 20:33:41:22 02:02:10:14 02:02:10:21 
*FROM CLIP NAME:  82K1/03.SYNC.01 
*SOURCE FILE: 19Y08M11
011420  19Y08M11                         A2    C        20:33:41:15 20:33:41:22 02:02:10:14 02:02:10:21 
*FROM CLIP NAME:  82K1/03.SYNC.01 
*SOURCE FILE: 19Y08M11
011421  19Y08M11                         A3    C        20:33:41:15 20:33:41:22 02:02:10:14 02:02:10:21 
*FROM CLIP NAME:  82K1/03.SYNC.01 
*PATCH 19Y08M11:  FROM SOURCE 4 TO RECORD 3 
*SOURCE FILE: 19Y08M11
011422  19Y08M11                         A4    C        20:33:41:15 20:33:41:22 02:02:10:14 02:02:10:21 
*FROM CLIP NAME:  82K1/03.SYNC.01 
*PATCH 19Y08M11:  FROM SOURCE 5 TO RECORD 4 
*SOURCE FILE: 19Y08M11
011423  19Y08M11                         A5    C        20:33:41:15 20:33:41:22 02:02:10:14 02:02:10:21 
*FROM CLIP NAME:  82K1/03.SYNC.01 
*PATCH 19Y08M11:  FROM SOURCE 6 TO RECORD 5 
*SOURCE FILE: 19Y08M11
011424  19Y08M11                         A6    C        20:33:41:15 20:33:41:22 02:02:10:14 02:02:10:21 
*FROM CLIP NAME:  82K1/03.SYNC.01 
*PATCH 19Y08M11:  FROM SOURCE 8 TO RECORD 6 
*SOURCE FILE: 19Y08M11
011425  19Y08M11                         A7    C        20:33:41:15 20:33:41:22 02:02:10:14 02:02:10:21 
*FROM CLIP NAME:  82K1/03.SYNC.01 
*SOURCE FILE: 19Y08M11
011426  MSMMMOB.63                       V     C        20:33:42:07 20:33:50:19 02:02:10:17 02:02:19:04 
M2      MSMMMOB.63                                025.0 20:33:42:07 
*FROM CLIP NAME:  B016C003_190811_R481 
*SOURCE FILE: MSMMMOB.63
011427  19Y08M11                         A5    C        20:33:42:10 20:33:45:17 02:02:10:21 02:02:14:03 
*FROM CLIP NAME:  82K1/03.SYNC.01 
*PATCH 19Y08M11:  FROM SOURCE 6 TO RECORD 5 
*SOURCE FILE: 19Y08M11
011428  19Y08M11                         A     C        20:33:42:10 20:33:50:18 02:02:10:21 02:02:19:04 
*FROM CLIP NAME:  82K1/03.SYNC.01 
*SOURCE FILE: 19Y08M11
011429  19Y08M11                         A2    C        20:33:42:10 20:33:50:18 02:02:10:21 02:02:19:04 
*FROM CLIP NAME:  82K1/03.SYNC.01 
*SOURCE FILE: 19Y08M11
011430  19Y08M11                         A3    C        20:33:42:10 20:33:50:18 02:02:10:21 02:02:19:04 
*FROM CLIP NAME:  82K1/03.SYNC.01 
*PATCH 19Y08M11:  FROM SOURCE 4 TO RECORD 3 
*SOURCE FILE: 19Y08M11
011431  19Y08M11                         A4    C        20:33:42:10 20:33:50:18 02:02:10:21 02:02:19:04 
*FROM CLIP NAME:  82K1/03.SYNC.01 
*PATCH 19Y08M11:  FROM SOURCE 5 TO RECORD 4 
*SOURCE FILE: 19Y08M11
011432  19Y08M11                         A6    C        20:33:42:10 20:33:50:18 02:02:10:21 02:02:19:04 
*FROM CLIP NAME:  82K1/03.SYNC.01 
*PATCH 19Y08M11:  FROM SOURCE 8 TO RECORD 6 
*SOURCE FILE: 19Y08M11
011433  19Y08M11                         A7    C        20:33:42:10 20:33:50:18 02:02:10:21 02:02:19:04 
*FROM CLIP NAME:  82K1/03.SYNC.01 
*SOURCE FILE: 19Y08M11
011434  19Y08M11                         A5    C        20:33:45:17 20:33:47:22 02:02:14:03 02:02:16:08 
*FROM CLIP NAME:  82K1/03.SYNC.01 
*A5 VOL =  +7.0 DB  PAN R100 
*PATCH 19Y08M11:  FROM SOURCE 6 TO RECORD 5 
*SOURCE FILE: 19Y08M11
011435  ?????_-_??????_??????.MP3        A13   C        01:01:39:05 01:01:39:05 02:02:14:07 02:02:14:07 
011435  BL                               A13   D    122 00:00:00:00 00:00:04:22 02:02:14:07 02:02:19:04 
*, D-VERB 
*FROM CLIP NAME:  ????? - ?????? ??????.MP3 
*A13 VOL = -20.0 DB  PAN L100 
*PATCH ?????_-_??????_??????.MP3:  FROM SOURCE 1 TO RECORD 13 
*SOURCE FILE: ????? - ?????? ??????.MP3
011436  ?????_-_??????_??????.MP3        A14   C        01:01:39:05 01:01:39:05 02:02:14:07 02:02:14:07 
011436  BL                               A14   D    122 00:00:00:00 00:00:04:22 02:02:14:07 02:02:19:04 
*, D-VERB 
*FROM CLIP NAME:  ????? - ?????? ??????.MP3 
*A14 VOL = -20.0 DB  PAN R100 
*PATCH ?????_-_??????_??????.MP3:  FROM SOURCE 2 TO RECORD 14 
*SOURCE FILE: ????? - ?????? ??????.MP3
011437  GARYKMOOR.MP4                    A17   C        01:01:13:02 01:02:40:03 02:02:15:20 02:03:42:21 
*FROM CLIP NAME:  GARYKMOOR.MP4 
*A17 VOL =  -3.0 DB  PAN L100 
*PATCH GARYKMOOR.MP4:  FROM SOURCE 1 TO RECORD 17 
*SOURCE FILE: GARYKMOOR.MP4
011438  GARYKMOOR.MP4                    A18   C        01:01:13:02 01:02:40:03 02:02:15:20 02:03:42:21 
*FROM CLIP NAME:  GARYKMOOR.MP4 
*A18 VOL =  -3.0 DB  PAN R100 
*PATCH GARYKMOOR.MP4:  FROM SOURCE 2 TO RECORD 18 
*SOURCE FILE: GARYKMOOR.MP4
011439  19Y08M11                         A5    C        20:33:47:22 20:33:50:18 02:02:16:08 02:02:19:04 
*FROM CLIP NAME:  82K1/03.SYNC.01 
*PATCH 19Y08M11:  FROM SOURCE 6 TO RECORD 5 
*SOURCE FILE: 19Y08M11
011440  MSMMMOB.17                       V     C        22:44:49:05 22:44:52:19 02:02:19:04 02:02:22:18 
M2      MSMMMOB.17                                025.0 22:44:49:05 
*FROM CLIP NAME:  A028C015_190801_R32C 
*SOURCE FILE: MSMMMOB.17
011441  19Y08M01                         A     C        22:44:49:05 22:44:52:19 02:02:19:04 02:02:22:18 
*FROM CLIP NAME:  82BK1/02 
*SOURCE FILE: 19Y08M01
011442  19Y08M01                         A2    C        22:44:49:05 22:44:52:19 02:02:19:04 02:02:22:18 
*FROM CLIP NAME:  82BK1/02 
*SOURCE FILE: 19Y08M01
011443  19Y08M01                         A3    C        22:44:49:05 22:44:52:19 02:02:19:04 02:02:22:18 
*FROM CLIP NAME:  82BK1/02 
*SOURCE FILE: 19Y08M01
011444  19Y08M01                         A4    C        22:44:49:05 22:44:52:19 02:02:19:04 02:02:22:18 
*FROM CLIP NAME:  82BK1/02 
*SOURCE FILE: 19Y08M01
011445  MSMMMOB.17                       A5    C        22:44:49:05 22:44:52:19 02:02:19:04 02:02:22:18 
*FROM CLIP NAME:  A028C015_190801_R32C 
*SOURCE FILE: MSMMMOB.17
011446  19Y08M01                         A6    C        22:44:49:05 22:44:52:19 02:02:19:04 02:02:22:18 
*FROM CLIP NAME:  82BK1/02 
*SOURCE FILE: 19Y08M01
011447  MSMMMOB.60                       V     C        22:51:31:02 22:51:35:23 02:02:22:18 02:02:27:14 
M2      MSMMMOB.60                                025.0 22:51:31:02 
*FROM CLIP NAME:  A028C016_190801_R32C 
*SOURCE FILE: MSMMMOB.60
011448  19Y08M01                         A     C        22:51:31:02 22:51:35:23 02:02:22:18 02:02:27:14 
*FROM CLIP NAME:  82BK2/01 
*SOURCE FILE: 19Y08M01
011449  19Y08M01                         A2    C        22:51:31:02 22:51:35:23 02:02:22:18 02:02:27:14 
*FROM CLIP NAME:  82BK2/01 
*SOURCE FILE: 19Y08M01
011450  19Y08M01                         A3    C        22:51:31:02 22:51:35:23 02:02:22:18 02:02:27:14 
*FROM CLIP NAME:  82BK2/01 
*SOURCE FILE: 19Y08M01
011451  19Y08M01                         A4    C        22:51:31:02 22:51:35:23 02:02:22:18 02:02:27:14 
*FROM CLIP NAME:  82BK2/01 
*SOURCE FILE: 19Y08M01
011452  MSMMMOB.60                       A5    C        22:51:31:02 22:51:35:23 02:02:22:18 02:02:27:14 
*FROM CLIP NAME:  A028C016_190801_R32C 
*SOURCE FILE: MSMMMOB.60
011453  19Y08M01                         A6    C        22:51:31:02 22:51:35:23 02:02:22:18 02:02:27:14 
*FROM CLIP NAME:  82BK2/01 
*SOURCE FILE: 19Y08M01
011454  MSMMMOB.60                       V     C        22:51:37:13 22:51:39:21 02:02:27:14 02:02:29:22 
M2      MSMMMOB.60                                025.0 22:51:37:13 
*FROM CLIP NAME:  A028C016_190801_R32C 
*SOURCE FILE: MSMMMOB.60
011455  19Y08M01                         A     C        22:51:37:13 22:51:39:21 02:02:27:14 02:02:29:22 
*FROM CLIP NAME:  82BK2/01 
*SOURCE FILE: 19Y08M01
011456  19Y08M01                         A2    C        22:51:37:13 22:51:39:21 02:02:27:14 02:02:29:22 
*FROM CLIP NAME:  82BK2/01 
*SOURCE FILE: 19Y08M01
011457  19Y08M01                         A3    C        22:51:37:13 22:51:39:21 02:02:27:14 02:02:29:22 
*FROM CLIP NAME:  82BK2/01 
*PATCH 19Y08M01:  FROM SOURCE 4 TO RECORD 3 
*SOURCE FILE: 19Y08M01
011458  MSMMMOB.60                       A4    C        22:51:37:13 22:51:39:21 02:02:27:14 02:02:29:22 
*FROM CLIP NAME:  A028C016_190801_R32C 
*PATCH MSMMMOB.60:  FROM SOURCE 5 TO RECORD 4 
*SOURCE FILE: MSMMMOB.60
011459  19Y08M01                         A5    C        22:51:37:13 22:51:39:21 02:02:27:14 02:02:29:22 
*FROM CLIP NAME:  82BK2/01 
*PATCH 19Y08M01:  FROM SOURCE 6 TO RECORD 5 
*SOURCE FILE: 19Y08M01
011460  19Y08M01                         A6    C        22:51:37:13 22:51:39:21 02:02:27:14 02:02:29:22 
*FROM CLIP NAME:  82BK2/01 
*PATCH 19Y08M01:  FROM SOURCE 3 TO RECORD 6 
*SOURCE FILE: 19Y08M01
011461  MSMMMOB.60                       V     C        22:51:42:11 22:51:46:06 02:02:29:22 02:02:33:17 
M2      MSMMMOB.60                                025.0 22:51:42:11 
*FROM CLIP NAME:  A028C016_190801_R32C 
*SOURCE FILE: MSMMMOB.60
011462  19Y08M01                         A     C        22:51:42:11 22:51:46:06 02:02:29:22 02:02:33:17 
*FROM CLIP NAME:  82BK2/01 
*SOURCE FILE: 19Y08M01
011463  19Y08M01                         A2    C        22:51:42:11 22:51:46:06 02:02:29:22 02:02:33:17 
*FROM CLIP NAME:  82BK2/01 
*SOURCE FILE: 19Y08M01
011464  19Y08M01                         A3    C        22:51:42:11 22:51:46:06 02:02:29:22 02:02:33:17 
*FROM CLIP NAME:  82BK2/01 
*SOURCE FILE: 19Y08M01
011465  19Y08M01                         A4    C        22:51:42:11 22:51:46:06 02:02:29:22 02:02:33:17 
*FROM CLIP NAME:  82BK2/01 
*SOURCE FILE: 19Y08M01
011466  MSMMMOB.60                       A5    C        22:51:42:11 22:51:46:06 02:02:29:22 02:02:33:17 
*FROM CLIP NAME:  A028C016_190801_R32C 
*SOURCE FILE: MSMMMOB.60
011467  19Y08M01                         A6    C        22:51:42:11 22:51:46:06 02:02:29:22 02:02:33:17 
*FROM CLIP NAME:  82BK2/01 
*SOURCE FILE: 19Y08M01
011468  19Y08M01                         A     C        22:51:46:13 22:51:46:16 02:02:33:17 02:02:33:20 
*FROM CLIP NAME:  82BK2/01 
*SOURCE FILE: 19Y08M01
011469  19Y08M01                         A2    C        22:51:46:13 22:51:46:16 02:02:33:17 02:02:33:20 
*FROM CLIP NAME:  82BK2/01 
*SOURCE FILE: 19Y08M01
011470  19Y08M01                         A3    C        22:51:46:13 22:51:46:16 02:02:33:17 02:02:33:20 
*FROM CLIP NAME:  82BK2/01 
*SOURCE FILE: 19Y08M01
011471  19Y08M01                         A4    C        22:51:46:13 22:51:46:16 02:02:33:17 02:02:33:20 
*FROM CLIP NAME:  82BK2/01 
*SOURCE FILE: 19Y08M01
011472  MSMMMOB.60                       A5    C        22:51:46:13 22:51:46:16 02:02:33:17 02:02:33:20 
*FROM CLIP NAME:  A028C016_190801_R32C 
*SOURCE FILE: MSMMMOB.60
011473  19Y08M01                         A6    C        22:51:46:13 22:51:46:16 02:02:33:17 02:02:33:20 
*FROM CLIP NAME:  82BK2/01 
*SOURCE FILE: 19Y08M01
011474  MSMMMOB.17                       V     C        22:45:15:17 22:45:18:04 02:02:33:17 02:02:36:04 
M2      MSMMMOB.17                                025.0 22:45:15:17 
*FROM CLIP NAME:  A028C015_190801_R32C 
*SOURCE FILE: MSMMMOB.17
011475  19Y08M01                         A     C        22:45:15:20 22:45:18:04 02:02:33:20 02:02:36:04 
*FROM CLIP NAME:  82BK1/02 
*SOURCE FILE: 19Y08M01
011476  19Y08M01                         A2    C        22:45:15:20 22:45:18:04 02:02:33:20 02:02:36:04 
*FROM CLIP NAME:  82BK1/02 
*SOURCE FILE: 19Y08M01
011477  19Y08M01                         A3    C        22:45:15:20 22:45:18:04 02:02:33:20 02:02:36:04 
*FROM CLIP NAME:  82BK1/02 
*SOURCE FILE: 19Y08M01
011478  19Y08M01                         A4    C        22:45:15:20 22:45:18:04 02:02:33:20 02:02:36:04 
*FROM CLIP NAME:  82BK1/02 
*SOURCE FILE: 19Y08M01
011479  MSMMMOB.17                       A5    C        22:45:15:20 22:45:18:04 02:02:33:20 02:02:36:04 
*FROM CLIP NAME:  A028C015_190801_R32C 
*SOURCE FILE: MSMMMOB.17
011480  19Y08M01                         A6    C        22:45:15:20 22:45:18:04 02:02:33:20 02:02:36:04 
*FROM CLIP NAME:  82BK1/02 
*SOURCE FILE: 19Y08M01
011481  19Y11M24                         A     C        20:04:22:17 20:04:25:02 02:02:36:04 02:02:38:14 
*FROM CLIP NAME:  01-08-1/04 
*SOURCE FILE: 19Y11M24
011482  19Y11M24                         A2    C        20:04:22:17 20:04:25:02 02:02:36:04 02:02:38:14 
*FROM CLIP NAME:  01-08-1/04 
*SOURCE FILE: 19Y11M24
011483  MSMMMOB.66                       V     C        20:04:22:17 20:04:30:07 02:02:36:04 02:02:43:19 
M2      MSMMMOB.66                                025.0 20:04:22:17 
*FROM CLIP NAME:  A003C005_191124_R481 
*SOURCE FILE: MSMMMOB.66
011484  SOUND_20129.MP3                  A7    C        01:00:00:16 01:00:06:06 02:02:36:18 02:02:42:08 
*FROM CLIP NAME:  SOUND_20129.MP3 
*PATCH SOUND_20129.MP3:  FROM SOURCE 1 TO RECORD 7 
*SOURCE FILE: SOUND_20129.MP3
011485  SOUND_20129.MP3                  A8    C        01:00:00:16 01:00:06:06 02:02:36:18 02:02:42:08 
*FROM CLIP NAME:  SOUND_20129.MP3 
*PATCH SOUND_20129.MP3:  FROM SOURCE 2 TO RECORD 8 
*SOURCE FILE: SOUND_20129.MP3
011486  19Y11M24                         A     C        20:04:21:21 20:04:24:16 02:02:38:14 02:02:41:09 
*FROM CLIP NAME:  01-08-1/04 
*SOURCE FILE: 19Y11M24
011487  19Y11M24                         A2    C        20:04:21:21 20:04:24:16 02:02:38:14 02:02:41:09 
*FROM CLIP NAME:  01-08-1/04 
*SOURCE FILE: 19Y11M24
011488  19Y11M24                         A     C        20:04:27:22 20:04:30:07 02:02:41:09 02:02:43:19 
*FROM CLIP NAME:  01-08-1/04 
*SOURCE FILE: 19Y11M24
011489  19Y11M24                         A2    C        20:04:27:22 20:04:30:07 02:02:41:09 02:02:43:19 
*FROM CLIP NAME:  01-08-1/04 
*SOURCE FILE: 19Y11M24
011490  MSMMMOB.66                       V     C        20:04:32:06 20:04:35:01 02:02:43:19 02:02:46:14 
M2      MSMMMOB.66                                025.0 20:04:32:06 
*FROM CLIP NAME:  A003C005_191124_R481 
*SOURCE FILE: MSMMMOB.66
011491  19Y11M24                         A     C        20:04:32:06 20:04:35:01 02:02:43:19 02:02:46:14 
*FROM CLIP NAME:  01-08-1/04 
*SOURCE FILE: 19Y11M24
011492  19Y11M24                         A2    C        20:04:32:06 20:04:35:01 02:02:43:19 02:02:46:14 
*FROM CLIP NAME:  01-08-1/04 
*SOURCE FILE: 19Y11M24
011493  MSMMMOB.66                       V     C        20:04:37:12 20:04:41:05 02:02:46:14 02:02:50:07 
M2      MSMMMOB.66                                025.0 20:04:37:12 
*FROM CLIP NAME:  A003C005_191124_R481 
*SOURCE FILE: MSMMMOB.66
011494  19Y11M24                         A     C        20:04:37:12 20:04:41:05 02:02:46:14 02:02:50:07 
*FROM CLIP NAME:  01-08-1/04 
*SOURCE FILE: 19Y11M24
011495  19Y11M24                         A2    C        20:04:37:12 20:04:41:05 02:02:46:14 02:02:50:07 
*FROM CLIP NAME:  01-08-1/04 
*SOURCE FILE: 19Y11M24
011496  MSMMMOB.66                       V     C        20:04:42:03 20:04:44:19 02:02:50:07 02:02:52:23 
M2      MSMMMOB.66                                025.0 20:04:42:03 
*FROM CLIP NAME:  A003C005_191124_R481 
*SOURCE FILE: MSMMMOB.66
011497  19Y11M24                         A     C        20:04:42:03 20:04:44:19 02:02:50:07 02:02:52:23 
*FROM CLIP NAME:  01-08-1/04 
*SOURCE FILE: 19Y11M24
011498  19Y11M24                         A2    C        20:04:42:03 20:04:44:19 02:02:50:07 02:02:52:23 
*FROM CLIP NAME:  01-08-1/04 
*SOURCE FILE: 19Y11M24
011499  MSMMMOB.36                       V     C        10:23:28:23 10:23:32:09 02:02:52:23 02:02:56:09 
M2      MSMMMOB.36                                025.0 10:23:28:23 
*FROM CLIP NAME:  A001C004_191124_R481 
*SOURCE FILE: MSMMMOB.36
011500  19Y11M24                         A     C        10:23:28:23 10:23:32:09 02:02:52:23 02:02:56:09 
*FROM CLIP NAME:  01-09-1/04 
*SOURCE FILE: 19Y11M24
011501  19Y11M24                         A2    C        10:23:28:23 10:23:32:09 02:02:52:23 02:02:56:09 
*FROM CLIP NAME:  01-09-1/04 
*SOURCE FILE: 19Y11M24
011502  SOUND_06031.MP3                  A3    C        01:00:00:06 01:00:02:18 02:02:55:05 02:02:57:17 
*FROM CLIP NAME:  SOUND_06031.MP3 
*A3 VOL =  -7.8 DB  PAN R100 
*PATCH SOUND_06031.MP3:  FROM SOURCE 1 TO RECORD 3 
*SOURCE FILE: SOUND_06031.MP3
011503  SOUND_06031.MP3                  A4    C        01:00:00:06 01:00:02:18 02:02:55:05 02:02:57:17 
*FROM CLIP NAME:  SOUND_06031.MP3 
*A4 VOL =  -7.8 DB  PAN L100 
*PATCH SOUND_06031.MP3:  FROM SOURCE 2 TO RECORD 4 
*SOURCE FILE: SOUND_06031.MP3
011504  MSMMMOB.36                       V     C        10:23:34:21 10:23:36:08 02:02:56:09 02:02:57:21 
M2      MSMMMOB.36                                025.0 10:23:34:21 
*FROM CLIP NAME:  A001C004_191124_R481 
*SOURCE FILE: MSMMMOB.36
011505  19Y11M24                         A     C        10:23:34:21 10:23:36:08 02:02:56:09 02:02:57:21 
*FROM CLIP NAME:  01-09-1/04 
*SOURCE FILE: 19Y11M24
011506  19Y11M24                         A2    C        10:23:34:21 10:23:36:08 02:02:56:09 02:02:57:21 
*FROM CLIP NAME:  01-09-1/04 
*SOURCE FILE: 19Y11M24
011508  TITLE.01                         V     C        01:00:13:08 01:00:16:22 02:02:57:21 02:03:01:10 
*FROM CLIP NAME:  TITLE.01 
*SOURCE FILE: TITLE.01
011507  BL                               V     C        00:00:00:00 00:00:03:14 02:02:57:21 02:03:01:10 
*SOURCE FILE: (NULL)
011509  MSMMMOB.36                       V     C        10:23:40:13 10:23:46:10 02:02:57:21 02:03:03:18 
M2      MSMMMOB.36                                025.0 10:23:40:13 
*FROM CLIP NAME:  A001C004_191124_R481 
*SOURCE FILE: MSMMMOB.36
011510  19Y11M24                         A     C        10:23:40:13 10:23:46:10 02:02:57:21 02:03:03:18 
*FROM CLIP NAME:  01-09-1/04 
*SOURCE FILE: 19Y11M24
011511  19Y11M24                         A2    C        10:23:40:13 10:23:46:10 02:02:57:21 02:03:03:18 
*FROM CLIP NAME:  01-09-1/04 
*SOURCE FILE: 19Y11M24
011512  BL                               V     C        00:00:00:00 00:00:09:02 02:03:01:10 02:03:10:12 
*SOURCE FILE: (NULL)
011513  BL                               V     C        00:00:00:00 00:00:09:02 02:03:01:10 02:03:10:12 
*SOURCE FILE: (NULL)
011514  CINEMASCOPE_2-35-1_CROPLINES.PNG V     C        01:04:50:03 01:05:21:05 02:03:01:10 02:03:32:12 
*FROM CLIP NAME:  CINEMASCOPE 2-35-1 CROPLINES.PNG 
*SOURCE FILE: CINEMASCOPE 2-35-1 CROPLINES.PNG
011515  MSMMMOB.36                       V     C        10:24:07:21 10:24:14:15 02:03:03:18 02:03:10:12 
M2      MSMMMOB.36                                025.0 10:24:07:21 
*FROM CLIP NAME:  A001C004_191124_R481 
*SOURCE FILE: MSMMMOB.36
011516  19Y11M24                         A     C        10:24:07:21 10:24:14:15 02:03:03:18 02:03:10:12 
*FROM CLIP NAME:  01-09-1/04 
*SOURCE FILE: 19Y11M24
011517  19Y11M24                         A2    C        10:24:07:21 10:24:14:15 02:03:03:18 02:03:10:12 
*FROM CLIP NAME:  01-09-1/04 
*SOURCE FILE: 19Y11M24
011518  MSMMMOB.03                       V     C        12:32:40:13 12:32:44:21 02:03:10:12 02:03:14:20 
M2      MSMMMOB.03                                025.0 12:32:40:13 
*FROM CLIP NAME:  A001C007_191124_R481 
*SOURCE FILE: MSMMMOB.03
011519  19Y11M24                         A     C        12:32:40:13 12:32:44:21 02:03:10:12 02:03:14:20 
*FROM CLIP NAME:  01-10-1/03 
*SOURCE FILE: 19Y11M24
011520  19Y11M24                         A2    C        12:32:40:13 12:32:44:21 02:03:10:12 02:03:14:20 
*FROM CLIP NAME:  01-10-1/03 
*SOURCE FILE: 19Y11M24
011522  TITLE.01                         V     C        01:00:09:03 01:00:17:23 02:03:10:12 02:03:19:07 
*FROM CLIP NAME:  TITLE.01 
*SOURCE FILE: TITLE.01
011521  BL                               V     C        00:00:00:00 00:00:08:20 02:03:10:12 02:03:19:07 
*SOURCE FILE: (NULL)
011523  MSMMMOB.03                       V     C        12:32:48:18 12:32:53:05 02:03:14:20 02:03:19:07 
M2      MSMMMOB.03                                025.0 12:32:48:18 
*FROM CLIP NAME:  A001C007_191124_R481 
*SOURCE FILE: MSMMMOB.03
011524  19Y11M24                         A     C        12:32:48:18 12:32:53:05 02:03:14:20 02:03:19:07 
*FROM CLIP NAME:  01-10-1/03 
*SOURCE FILE: 19Y11M24
011525  19Y11M24                         A2    C        12:32:48:18 12:32:53:05 02:03:14:20 02:03:19:07 
*FROM CLIP NAME:  01-10-1/03 
*SOURCE FILE: 19Y11M24
011526  19Y08M11                         A     C        21:04:41:02 21:04:42:11 02:03:19:07 02:03:20:16 
*FROM CLIP NAME:  82K4/01.SYNC.01 
*SOURCE FILE: 19Y08M11
011527  19Y08M11                         A2    C        21:04:41:02 21:04:42:11 02:03:19:07 02:03:20:16 
*FROM CLIP NAME:  82K4/01.SYNC.01 
*SOURCE FILE: 19Y08M11
011528  19Y08M11                         A3    C        21:04:41:02 21:04:42:11 02:03:19:07 02:03:20:16 
*FROM CLIP NAME:  82K4/01.SYNC.01 
*PATCH 19Y08M11:  FROM SOURCE 5 TO RECORD 3 
*SOURCE FILE: 19Y08M11
011529  19Y08M11                         A4    C        21:04:41:02 21:04:42:11 02:03:19:07 02:03:20:16 
*FROM CLIP NAME:  82K4/01.SYNC.01 
*PATCH 19Y08M11:  FROM SOURCE 6 TO RECORD 4 
*SOURCE FILE: 19Y08M11
011530  19Y08M11                         A5    C        21:04:41:02 21:04:42:11 02:03:19:07 02:03:20:16 
*FROM CLIP NAME:  82K4/01.SYNC.01 
*PATCH 19Y08M11:  FROM SOURCE 7 TO RECORD 5 
*SOURCE FILE: 19Y08M11
011531  19Y08M11                         A6    C        21:04:41:02 21:04:42:11 02:03:19:07 02:03:20:16 
*FROM CLIP NAME:  82K4/01.SYNC.01 
*PATCH 19Y08M11:  FROM SOURCE 8 TO RECORD 6 
*SOURCE FILE: 19Y08M11
011532  BL                               V     C        00:00:00:00 00:00:02:02 02:03:19:07 02:03:21:09 
*SOURCE FILE: (NULL)
011533  BL                               V     C        00:00:00:00 00:00:05:17 02:03:19:07 02:03:24:24 
*SOURCE FILE: (NULL)
011534  MSMMMOB.74                       V     C        21:04:41:04 21:04:54:09 02:03:19:07 02:03:32:12 
M2      MSMMMOB.74                                025.0 21:04:41:04 
*FROM CLIP NAME:  B016C009_190811_R481 
*SOURCE FILE: MSMMMOB.74
011535  19Y08M11                         A     C        21:04:47:20 21:04:49:01 02:03:20:16 02:03:21:22 
*FROM CLIP NAME:  82K4/01.SYNC.01 
*SOURCE FILE: 19Y08M11
011536  19Y08M11                         A2    C        21:04:47:20 21:04:49:01 02:03:20:16 02:03:21:22 
*FROM CLIP NAME:  82K4/01.SYNC.01 
*SOURCE FILE: 19Y08M11
011537  19Y08M11                         A3    C        21:04:47:20 21:04:49:01 02:03:20:16 02:03:21:22 
*FROM CLIP NAME:  82K4/01.SYNC.01 
*PATCH 19Y08M11:  FROM SOURCE 5 TO RECORD 3 
*SOURCE FILE: 19Y08M11
011538  19Y08M11                         A4    C        21:04:47:20 21:04:49:01 02:03:20:16 02:03:21:22 
*FROM CLIP NAME:  82K4/01.SYNC.01 
*PATCH 19Y08M11:  FROM SOURCE 6 TO RECORD 4 
*SOURCE FILE: 19Y08M11
011539  19Y08M11                         A5    C        21:04:47:20 21:04:49:01 02:03:20:16 02:03:21:22 
*FROM CLIP NAME:  82K4/01.SYNC.01 
*PATCH 19Y08M11:  FROM SOURCE 7 TO RECORD 5 
*SOURCE FILE: 19Y08M11
011540  19Y08M11                         A6    C        21:04:47:20 21:04:49:01 02:03:20:16 02:03:21:22 
*FROM CLIP NAME:  82K4/01.SYNC.01 
*PATCH 19Y08M11:  FROM SOURCE 8 TO RECORD 6 
*SOURCE FILE: 19Y08M11
011541  TITLE.01                         V     C        01:00:15:06 01:00:22:07 02:03:21:09 02:03:28:10 
*FROM CLIP NAME:  TITLE.01 
*SOURCE FILE: TITLE.01
011542  19Y08M11                         A     C        21:04:43:17 21:04:53:16 02:03:21:22 02:03:31:21 
*FROM CLIP NAME:  82K4/01.SYNC.01 
*SOURCE FILE: 19Y08M11
011543  19Y08M11                         A2    C        21:04:43:17 21:04:53:16 02:03:21:22 02:03:31:21 
*FROM CLIP NAME:  82K4/01.SYNC.01 
*SOURCE FILE: 19Y08M11
011544  19Y08M11                         A3    C        21:04:43:17 21:04:53:16 02:03:21:22 02:03:31:21 
*FROM CLIP NAME:  82K4/01.SYNC.01 
*PATCH 19Y08M11:  FROM SOURCE 5 TO RECORD 3 
*SOURCE FILE: 19Y08M11
011545  19Y08M11                         A4    C        21:04:43:17 21:04:53:16 02:03:21:22 02:03:31:21 
*FROM CLIP NAME:  82K4/01.SYNC.01 
*PATCH 19Y08M11:  FROM SOURCE 6 TO RECORD 4 
*SOURCE FILE: 19Y08M11
011546  19Y08M11                         A5    C        21:04:43:17 21:04:53:16 02:03:21:22 02:03:31:21 
*FROM CLIP NAME:  82K4/01.SYNC.01 
*PATCH 19Y08M11:  FROM SOURCE 7 TO RECORD 5 
*SOURCE FILE: 19Y08M11
011547  19Y08M11                         A6    C        21:04:43:17 21:04:53:16 02:03:21:22 02:03:31:21 
*FROM CLIP NAME:  82K4/01.SYNC.01 
*PATCH 19Y08M11:  FROM SOURCE 8 TO RECORD 6 
*SOURCE FILE: 19Y08M11
011548  BL                               V     C        00:00:00:00 00:00:03:11 02:03:24:24 02:03:28:10 
*SOURCE FILE: (NULL)
011549  BL                               V     C        00:00:00:00 00:01:47:13 02:03:28:10 02:05:15:23 
*SOURCE FILE: (NULL)
011550  BL                               V     C        00:00:00:00 00:09:10:03 02:03:28:10 02:12:38:13 
*SOURCE FILE: (NULL)
011551  19Y08M11                         A     C        21:04:47:20 21:04:48:11 02:03:31:21 02:03:32:12 
*FROM CLIP NAME:  82K4/01.SYNC.01 
*SOURCE FILE: 19Y08M11
011552  19Y08M11                         A2    C        21:04:47:20 21:04:48:11 02:03:31:21 02:03:32:12 
*FROM CLIP NAME:  82K4/01.SYNC.01 
*SOURCE FILE: 19Y08M11
011553  19Y08M11                         A3    C        21:04:47:20 21:04:48:11 02:03:31:21 02:03:32:12 
*FROM CLIP NAME:  82K4/01.SYNC.01 
*PATCH 19Y08M11:  FROM SOURCE 5 TO RECORD 3 
*SOURCE FILE: 19Y08M11
011554  19Y08M11                         A4    C        21:04:47:20 21:04:48:11 02:03:31:21 02:03:32:12 
*FROM CLIP NAME:  82K4/01.SYNC.01 
*PATCH 19Y08M11:  FROM SOURCE 6 TO RECORD 4 
*SOURCE FILE: 19Y08M11
011555  19Y08M11                         A5    C        21:04:47:20 21:04:48:11 02:03:31:21 02:03:32:12 
*FROM CLIP NAME:  82K4/01.SYNC.01 
*PATCH 19Y08M11:  FROM SOURCE 7 TO RECORD 5 
*SOURCE FILE: 19Y08M11
011556  19Y08M11                         A6    C        21:04:47:20 21:04:48:11 02:03:31:21 02:03:32:12 
*FROM CLIP NAME:  82K4/01.SYNC.01 
*PATCH 19Y08M11:  FROM SOURCE 8 TO RECORD 6 
*SOURCE FILE: 19Y08M11
011557  19Y08M11                         A     C        21:06:18:02 21:06:18:17 02:03:32:12 02:03:33:02 
*FROM CLIP NAME:  82K4/02.SYNC.01 
*SOURCE FILE: 19Y08M11
011558  19Y08M11                         A2    C        21:06:18:02 21:06:18:17 02:03:32:12 02:03:33:02 
*FROM CLIP NAME:  82K4/02.SYNC.01 
*SOURCE FILE: 19Y08M11
011559  19Y08M11                         A3    C        21:06:18:02 21:06:18:17 02:03:32:12 02:03:33:02 
*FROM CLIP NAME:  82K4/02.SYNC.01 
*PATCH 19Y08M11:  FROM SOURCE 5 TO RECORD 3 
*SOURCE FILE: 19Y08M11
011560  19Y08M11                         A4    C        21:06:18:02 21:06:18:17 02:03:32:12 02:03:33:02 
*FROM CLIP NAME:  82K4/02.SYNC.01 
*PATCH 19Y08M11:  FROM SOURCE 8 TO RECORD 4 
*SOURCE FILE: 19Y08M11
011561  19Y08M11                         A5    C        21:06:18:02 21:06:18:17 02:03:32:12 02:03:33:02 
*FROM CLIP NAME:  82K4/02.SYNC.01 
*PATCH 19Y08M11:  FROM SOURCE 7 TO RECORD 5 
*SOURCE FILE: 19Y08M11
011562  19Y08M11                         A6    C        21:06:18:02 21:06:18:17 02:03:32:12 02:03:33:02 
*FROM CLIP NAME:  82K4/02.SYNC.01 
*SOURCE FILE: 19Y08M11
011564  MSMMMOB.18                       V     C        20:33:02:16 20:33:05:03 02:03:32:12 02:03:34:24 
M2      MSMMMOB.18                                025.0 20:33:02:16 
*FROM CLIP NAME:  83-LUNA 
*SOURCE FILE: MSMMMOB.18
011563  CINEMASCOPE_2-35-1_CROPLINES.PNG V     C        01:05:18:14 01:05:21:01 02:03:32:12 02:03:34:24 
*FROM CLIP NAME:  CINEMASCOPE 2-35-1 CROPLINES.PNG 
*SOURCE FILE: CINEMASCOPE 2-35-1 CROPLINES.PNG
011565  MSMMMOB.35                       A     C        20:37:27:02 20:37:28:24 02:03:33:02 02:03:34:24 
*FROM CLIP NAME:  B027C009_190814_R481 
*SOURCE FILE: MSMMMOB.35
011566  19Y08M14                         A2    C        20:37:27:01 20:37:28:23 02:03:33:02 02:03:34:24 
*FROM CLIP NAME:  83K1/03.SYNC.01 
*SOURCE FILE: 19Y08M14
011567  19Y08M14                         A3    C        20:37:27:01 20:37:28:23 02:03:33:02 02:03:34:24 
*FROM CLIP NAME:  83K1/03.SYNC.01 
*SOURCE FILE: 19Y08M14
011568  05522.MP3                        A4    C        01:00:14:12 01:00:16:09 02:03:33:02 02:03:34:24 
*FROM CLIP NAME:  05522.MP3 
*A4 VOL = -24.4 DB  PAN L100 
*PATCH 05522.MP3:  FROM SOURCE 2 TO RECORD 4 
*SOURCE FILE: 05522.MP3
011569  05522.MP3                        A5    C        01:00:14:12 01:00:16:09 02:03:33:02 02:03:34:24 
*FROM CLIP NAME:  05522.MP3 
*A5 VOL = -24.4 DB  PAN R100 
*PATCH 05522.MP3:  FROM SOURCE 1 TO RECORD 5 
*SOURCE FILE: 05522.MP3
011570  MSMMMOB.35                       A     C        20:37:29:14 20:37:29:22 02:03:34:24 02:03:35:07 
*FROM CLIP NAME:  B027C009_190814_R481 
*SOURCE FILE: MSMMMOB.35
011571  19Y08M14                         A2    C        20:37:29:13 20:37:29:21 02:03:34:24 02:03:35:07 
*FROM CLIP NAME:  83K1/03.SYNC.01 
*SOURCE FILE: 19Y08M14
011572  19Y08M14                         A3    C        20:37:29:13 20:37:29:21 02:03:34:24 02:03:35:07 
*FROM CLIP NAME:  83K1/03.SYNC.01 
*SOURCE FILE: 19Y08M14
011573  05522.MP3                        A4    C        01:00:16:24 01:00:24:11 02:03:34:24 02:03:42:11 
*FROM CLIP NAME:  05522.MP3 
*A4 VOL = -24.4 DB  PAN L100 
*PATCH 05522.MP3:  FROM SOURCE 2 TO RECORD 4 
*SOURCE FILE: 05522.MP3
011574  05522.MP3                        A5    C        01:00:16:24 01:00:24:11 02:03:34:24 02:03:42:11 
*FROM CLIP NAME:  05522.MP3 
*A5 VOL = -24.4 DB  PAN R100 
*PATCH 05522.MP3:  FROM SOURCE 1 TO RECORD 5 
*SOURCE FILE: 05522.MP3
011575  MSMMMOB.35                       V     C        20:38:25:01 20:38:35:20 02:03:34:24 02:03:45:18 
M2      MSMMMOB.35                                025.0 20:38:25:01 
*FROM CLIP NAME:  B027C009_190814_R481 
*SOURCE FILE: MSMMMOB.35
011576  CINEMASCOPE_2-35-1_CROPLINES.PNG V     C        01:05:21:16 01:05:44:11 02:03:34:24 02:03:57:19 
*FROM CLIP NAME:  CINEMASCOPE 2-35-1 CROPLINES.PNG 
*SOURCE FILE: CINEMASCOPE 2-35-1 CROPLINES.PNG
011577  MSMMMOB.35                       A     C        20:38:22:12 20:38:22:19 02:03:35:07 02:03:35:14 
*FROM CLIP NAME:  B027C009_190814_R481 
*SOURCE FILE: MSMMMOB.35
011578  19Y08M14                         A2    C        20:38:22:11 20:38:22:18 02:03:35:07 02:03:35:14 
*FROM CLIP NAME:  83K1/03.SYNC.01 
*SOURCE FILE: 19Y08M14
011579  19Y08M14                         A3    C        20:38:22:11 20:38:22:18 02:03:35:07 02:03:35:14 
*FROM CLIP NAME:  83K1/03.SYNC.01 
*SOURCE FILE: 19Y08M14
011580  MSMMMOB.35                       A     C        20:38:24:16 20:38:30:01 02:03:35:14 02:03:40:24 
*FROM CLIP NAME:  B027C009_190814_R481 
*SOURCE FILE: MSMMMOB.35
011581  19Y08M14                         A2    C        20:38:24:15 20:38:30:00 02:03:35:14 02:03:40:24 
*FROM CLIP NAME:  83K1/03.SYNC.01 
*SOURCE FILE: 19Y08M14
011582  19Y08M14                         A3    C        20:38:24:15 20:38:30:00 02:03:35:14 02:03:40:24 
*FROM CLIP NAME:  83K1/03.SYNC.01 
*SOURCE FILE: 19Y08M14
011583  MSMMMOB.35                       A     C        20:37:27:02 20:37:28:03 02:03:40:24 02:03:42:00 
*FROM CLIP NAME:  B027C009_190814_R481 
*SOURCE FILE: MSMMMOB.35
011584  19Y08M14                         A2    C        20:37:27:01 20:37:28:02 02:03:40:24 02:03:42:00 
*FROM CLIP NAME:  83K1/03.SYNC.01 
*SOURCE FILE: 19Y08M14
011585  19Y08M14                         A3    C        20:37:27:01 20:37:28:02 02:03:40:24 02:03:42:00 
*FROM CLIP NAME:  83K1/03.SYNC.01 
*SOURCE FILE: 19Y08M14
011586  MSMMMOB.35                       A     C        20:38:31:02 20:38:33:08 02:03:42:00 02:03:44:06 
*FROM CLIP NAME:  B027C009_190814_R481 
*A1 VOL =  +6.0 DB  PAN R100 
*SOURCE FILE: MSMMMOB.35
011587  19Y08M14                         A2    C        20:38:31:01 20:38:33:07 02:03:42:00 02:03:44:06 
*FROM CLIP NAME:  83K1/03.SYNC.01 
*A2 VOL =  +7.3 DB  PAN L100 
*SOURCE FILE: 19Y08M14
011588  19Y08M14                         A3    C        20:38:31:01 20:38:33:07 02:03:42:00 02:03:44:06 
*FROM CLIP NAME:  83K1/03.SYNC.01 
*A3 VOL =  +7.3 DB  PAN R100 
*SOURCE FILE: 19Y08M14
011589  05522.MP3                        A4    C        01:00:24:11 01:00:24:11 02:03:42:11 02:03:42:11 
011589  05522.MP3                        A4    D    025 01:00:24:11 01:00:25:11 02:03:42:11 02:03:43:11 
*FROM CLIP NAME:  05522.MP3 
*TO CLIP NAME:  05522.MP3 
*A4 VOL = -24.4 DB  PAN L100 
*A4 VOL = -12.9 DB  PAN L100 
*PATCH 05522.MP3:  FROM SOURCE 2 TO RECORD 4 
*PATCH 05522.MP3:  FROM SOURCE 2 TO RECORD 4 
*SOURCE FILE: 05522.MP3
011590  05522.MP3                        A5    C        01:00:24:11 01:00:24:11 02:03:42:11 02:03:42:11 
011590  05522.MP3                        A5    D    025 01:00:24:11 01:00:25:11 02:03:42:11 02:03:43:11 
*FROM CLIP NAME:  05522.MP3 
*TO CLIP NAME:  05522.MP3 
*A5 VOL = -24.4 DB  PAN R100 
*A5 VOL = -12.9 DB  PAN R100 
*PATCH 05522.MP3:  FROM SOURCE 1 TO RECORD 5 
*PATCH 05522.MP3:  FROM SOURCE 1 TO RECORD 5 
*SOURCE FILE: 05522.MP3
011591  05522.MP3                        A4    C        01:00:25:11 01:00:28:17 02:03:43:11 02:03:46:17 
*FROM CLIP NAME:  05522.MP3 
*A4 VOL = -12.9 DB  PAN L100 
*PATCH 05522.MP3:  FROM SOURCE 2 TO RECORD 4 
*SOURCE FILE: 05522.MP3
011592  05522.MP3                        A5    C        01:00:25:11 01:00:28:17 02:03:43:11 02:03:46:17 
*FROM CLIP NAME:  05522.MP3 
*A5 VOL = -12.9 DB  PAN R100 
*PATCH 05522.MP3:  FROM SOURCE 1 TO RECORD 5 
*SOURCE FILE: 05522.MP3
011593  BL                               V     C        00:00:00:00 00:00:03:11 02:03:45:18 02:03:49:04 
*SOURCE FILE: (NULL)
011594  05522.MP3                        A4    C        01:00:28:17 01:00:28:17 02:03:46:17 02:03:46:17 
011594  BL                               A4    D    041 00:00:00:00 00:00:01:16 02:03:46:17 02:03:48:08 
*FROM CLIP NAME:  05522.MP3 
*A4 VOL = -12.9 DB  PAN L100 
*PATCH 05522.MP3:  FROM SOURCE 2 TO RECORD 4 
*SOURCE FILE: 05522.MP3
011595  05522.MP3                        A5    C        01:00:28:17 01:00:28:17 02:03:46:17 02:03:46:17 
011595  BL                               A5    D    041 00:00:00:00 00:00:01:16 02:03:46:17 02:03:48:08 
*FROM CLIP NAME:  05522.MP3 
*A5 VOL = -12.9 DB  PAN R100 
*PATCH 05522.MP3:  FROM SOURCE 1 TO RECORD 5 
*SOURCE FILE: 05522.MP3
011596  BL                               A10   C        00:00:00:00 00:00:00:00 02:03:49:04 02:03:49:04 
011596  03333.MP3                        A10   D    043 01:02:58:10 01:03:00:03 02:03:49:04 02:03:50:22 
*TO CLIP NAME:  03333.MP3 
*A10 VOL =  -7.4 DB  PAN L100 
*PATCH 03333.MP3:  FROM SOURCE 2 TO RECORD 10 
*SOURCE FILE: (NULL)
011597  BL                               A11   C        00:00:00:00 00:00:00:00 02:03:49:04 02:03:49:04 
011597  03333.MP3                        A11   D    043 01:02:58:10 01:03:00:03 02:03:49:04 02:03:50:22 
*TO CLIP NAME:  03333.MP3 
*A11 VOL =  -7.4 DB  PAN R100 
*PATCH 03333.MP3:  FROM SOURCE 1 TO RECORD 11 
*SOURCE FILE: (NULL)
011598  BL                               A8    C        00:00:00:00 00:00:00:00 02:03:49:04 02:03:49:04 
011598  00827.MP3                        A8    D    044 01:00:00:00 01:00:01:19 02:03:49:04 02:03:50:23 
*TO CLIP NAME:  00827.MP3 
*A8 VOL = -30.0 DB  PAN L100 
*PATCH 00827.MP3:  FROM SOURCE 2 TO RECORD 8 
*SOURCE FILE: (NULL)
011599  BL                               A9    C        00:00:00:00 00:00:00:00 02:03:49:04 02:03:49:04 
011599  00827.MP3                        A9    D    044 01:00:00:00 01:00:01:19 02:03:49:04 02:03:50:23 
*TO CLIP NAME:  00827.MP3 
*A9 VOL = -30.0 DB  PAN R100 
*PATCH 00827.MP3:  FROM SOURCE 1 TO RECORD 9 
*SOURCE FILE: (NULL)
011600  BL                               V     C        00:00:00:00 00:00:00:00 02:03:49:04 02:03:49:04 
011600  MSMMMOB.55                       V     D    061 21:11:20:11 21:11:22:22 02:03:49:04 02:03:51:15 
*FILM, FILM DISSOLVE 
*TO CLIP NAME:  M097_C051_20190720_R 
*SOURCE FILE: (NULL)
011601  03333.MP3                        A10   C        01:03:00:03 01:03:07:00 02:03:50:22 02:03:57:19 
*FROM CLIP NAME:  03333.MP3 
*A10 VOL =  -7.4 DB  PAN L100 
*PATCH 03333.MP3:  FROM SOURCE 2 TO RECORD 10 
*SOURCE FILE: 03333.MP3
011602  03333.MP3                        A11   C        01:03:00:03 01:03:07:00 02:03:50:22 02:03:57:19 
*FROM CLIP NAME:  03333.MP3 
*A11 VOL =  -7.4 DB  PAN R100 
*PATCH 03333.MP3:  FROM SOURCE 1 TO RECORD 11 
*SOURCE FILE: 03333.MP3
011603  00827.MP3                        A8    C        01:00:01:19 01:00:08:10 02:03:50:23 02:03:57:14 
*FROM CLIP NAME:  00827.MP3 
*A8 VOL = -30.0 DB  PAN L100 
*PATCH 00827.MP3:  FROM SOURCE 2 TO RECORD 8 
*SOURCE FILE: 00827.MP3
011604  00827.MP3                        A9    C        01:00:01:19 01:00:08:10 02:03:50:23 02:03:57:14 
*FROM CLIP NAME:  00827.MP3 
*A9 VOL = -30.0 DB  PAN R100 
*PATCH 00827.MP3:  FROM SOURCE 1 TO RECORD 9 
*SOURCE FILE: 00827.MP3
011605  MSMMMOB.55                       V     C        21:11:22:22 21:11:29:01 02:03:51:15 02:03:57:19 
*FROM CLIP NAME:  M097_C051_20190720_R 
*SOURCE FILE: MSMMMOB.55
011606  00827.MP3                        A8    C        01:00:08:10 01:00:08:10 02:03:57:14 02:03:57:14 
011606  00827.MP3                        A8    D    005 01:00:08:10 01:00:08:15 02:03:57:14 02:03:57:19 
*FROM CLIP NAME:  00827.MP3 
*TO CLIP NAME:  00827.MP3 
*A8 VOL = -30.0 DB  PAN L100 
*A8 VOL = -40.0 DB  PAN L100 
*PATCH 00827.MP3:  FROM SOURCE 2 TO RECORD 8 
*PATCH 00827.MP3:  FROM SOURCE 2 TO RECORD 8 
*SOURCE FILE: 00827.MP3
011607  00827.MP3                        A9    C        01:00:08:10 01:00:08:10 02:03:57:14 02:03:57:14 
011607  00827.MP3                        A9    D    005 01:00:08:10 01:00:08:15 02:03:57:14 02:03:57:19 
*FROM CLIP NAME:  00827.MP3 
*TO CLIP NAME:  00827.MP3 
*A9 VOL = -30.0 DB  PAN R100 
*A9 VOL = -40.0 DB  PAN R100 
*PATCH 00827.MP3:  FROM SOURCE 1 TO RECORD 9 
*PATCH 00827.MP3:  FROM SOURCE 1 TO RECORD 9 
*SOURCE FILE: 00827.MP3
011608  19Y08M05                         A     C        12:15:16:16 12:15:17:08 02:03:57:19 02:03:58:11 
*FROM CLIP NAME:  85K8/01.SYNC.01 
*SOURCE FILE: 19Y08M05
011609  19Y08M05                         A2    C        12:15:16:16 12:15:17:08 02:03:57:19 02:03:58:11 
*FROM CLIP NAME:  85K8/01.SYNC.01 
*SOURCE FILE: 19Y08M05
011610  19Y08M05                         A3    C        12:15:16:16 12:15:17:08 02:03:57:19 02:03:58:11 
*FROM CLIP NAME:  85K8/01.SYNC.01 
*SOURCE FILE: 19Y08M05
011611  19Y08M05                         A4    C        12:15:16:16 12:15:17:08 02:03:57:19 02:03:58:11 
*FROM CLIP NAME:  85K8/01.SYNC.01 
*SOURCE FILE: 19Y08M05
011612  19Y08M05                         A5    C        12:15:16:16 12:15:17:08 02:03:57:19 02:03:58:11 
*FROM CLIP NAME:  85K8/01.SYNC.01 
*SOURCE FILE: 19Y08M05
011613  19Y08M05                         A6    C        12:15:16:16 12:15:17:08 02:03:57:19 02:03:58:11 
*FROM CLIP NAME:  85K8/01.SYNC.01 
*SOURCE FILE: 19Y08M05
011614  MSMMMOB.25                       V     C        10:41:17:13 10:41:26:18 02:03:57:19 02:04:06:24 
M2      MSMMMOB.25                                025.0 10:41:17:13 
*FROM CLIP NAME:  A041C002_190805_R32C 
*SOURCE FILE: MSMMMOB.25
011615  00827.MP3                        A8    C        01:00:08:15 01:00:17:20 02:03:57:19 02:04:06:24 
*FROM CLIP NAME:  00827.MP3 
*A8 VOL = -40.0 DB  PAN L100 
*PATCH 00827.MP3:  FROM SOURCE 2 TO RECORD 8 
*SOURCE FILE: 00827.MP3
011616  00827.MP3                        A9    C        01:00:08:15 01:00:17:20 02:03:57:19 02:04:06:24 
*FROM CLIP NAME:  00827.MP3 
*A9 VOL = -40.0 DB  PAN R100 
*PATCH 00827.MP3:  FROM SOURCE 1 TO RECORD 9 
*SOURCE FILE: 00827.MP3
011617  03333.MP3                        A10   C        01:03:07:00 01:03:16:05 02:03:57:19 02:04:06:24 
*FROM CLIP NAME:  03333.MP3 
*A10 VOL = -24.4 DB  PAN L100 
*PATCH 03333.MP3:  FROM SOURCE 2 TO RECORD 10 
*SOURCE FILE: 03333.MP3
011618  03333.MP3                        A11   C        01:03:07:00 01:03:16:05 02:03:57:19 02:04:06:24 
*FROM CLIP NAME:  03333.MP3 
*A11 VOL = -24.4 DB  PAN R100 
*PATCH 03333.MP3:  FROM SOURCE 1 TO RECORD 11 
*SOURCE FILE: 03333.MP3
011619  CINEMASCOPE_2-35-1_CROPLINES.PNG V     C        01:00:00:00 01:06:00:00 02:03:57:19 02:09:57:19 
*FROM CLIP NAME:  CINEMASCOPE 2-35-1 CROPLINES.PNG 
*SOURCE FILE: CINEMASCOPE 2-35-1 CROPLINES.PNG
011620  BL                               V     C        00:00:00:00 00:12:58:16 02:03:57:19 02:16:56:10 
*SOURCE FILE: (NULL)
011621  19Y08M05                         A     C        10:41:18:04 10:41:26:14 02:03:58:11 02:04:06:21 
*FROM CLIP NAME:  85K1/02.SYNC.01 
*SOURCE FILE: 19Y08M05
011622  19Y08M05                         A2    C        10:41:18:04 10:41:26:14 02:03:58:11 02:04:06:21 
*FROM CLIP NAME:  85K1/02.SYNC.01 
*SOURCE FILE: 19Y08M05
011623  19Y08M05                         A3    C        10:41:18:04 10:41:26:14 02:03:58:11 02:04:06:21 
*FROM CLIP NAME:  85K1/02.SYNC.01 
*SOURCE FILE: 19Y08M05
011624  19Y08M05                         A4    C        10:41:18:04 10:41:26:14 02:03:58:11 02:04:06:21 
*FROM CLIP NAME:  85K1/02.SYNC.01 
*SOURCE FILE: 19Y08M05
011625  19Y08M05                         A5    C        10:41:18:04 10:41:26:14 02:03:58:11 02:04:06:21 
*FROM CLIP NAME:  85K1/02.SYNC.01 
*SOURCE FILE: 19Y08M05
011626  19Y08M05                         A6    C        10:41:18:04 10:41:26:14 02:03:58:11 02:04:06:21 
*FROM CLIP NAME:  85K1/02.SYNC.01 
*SOURCE FILE: 19Y08M05
011627  19Y08M05                         A     C        11:30:15:14 11:30:15:17 02:04:06:21 02:04:06:24 
*FROM CLIP NAME:  85K3/02.SYNC.01 
*SOURCE FILE: 19Y08M05
011628  19Y08M05                         A2    C        11:30:15:14 11:30:15:17 02:04:06:21 02:04:06:24 
*FROM CLIP NAME:  85K3/02.SYNC.01 
*SOURCE FILE: 19Y08M05
011629  19Y08M05                         A3    C        11:30:15:14 11:30:15:17 02:04:06:21 02:04:06:24 
*FROM CLIP NAME:  85K3/02.SYNC.01 
*SOURCE FILE: 19Y08M05
011630  19Y08M05                         A4    C        11:30:15:14 11:30:15:17 02:04:06:21 02:04:06:24 
*FROM CLIP NAME:  85K3/02.SYNC.01 
*SOURCE FILE: 19Y08M05
011631  19Y08M05                         A5    C        11:30:15:14 11:30:15:17 02:04:06:21 02:04:06:24 
*FROM CLIP NAME:  85K3/02.SYNC.01 
*SOURCE FILE: 19Y08M05
011632  19Y08M05                         A6    C        11:30:15:14 11:30:15:17 02:04:06:21 02:04:06:24 
*FROM CLIP NAME:  85K3/02.SYNC.01 
*SOURCE FILE: 19Y08M05
011633  19Y08M05                         A     C        11:30:16:06 11:30:17:15 02:04:06:24 02:04:08:08 
*FROM CLIP NAME:  85K3/02.SYNC.01 
*SOURCE FILE: 19Y08M05
011634  19Y08M05                         A2    C        11:30:16:06 11:30:17:15 02:04:06:24 02:04:08:08 
*FROM CLIP NAME:  85K3/02.SYNC.01 
*SOURCE FILE: 19Y08M05
011635  19Y08M05                         A3    C        11:30:16:06 11:30:17:15 02:04:06:24 02:04:08:08 
*FROM CLIP NAME:  85K3/02.SYNC.01 
*SOURCE FILE: 19Y08M05
011636  19Y08M05                         A4    C        11:30:16:06 11:30:17:15 02:04:06:24 02:04:08:08 
*FROM CLIP NAME:  85K3/02.SYNC.01 
*SOURCE FILE: 19Y08M05
011637  19Y08M05                         A5    C        11:30:16:06 11:30:17:15 02:04:06:24 02:04:08:08 
*FROM CLIP NAME:  85K3/02.SYNC.01 
*SOURCE FILE: 19Y08M05
011638  19Y08M05                         A6    C        11:30:16:06 11:30:17:15 02:04:06:24 02:04:08:08 
*FROM CLIP NAME:  85K3/02.SYNC.01 
*SOURCE FILE: 19Y08M05
011639  MSMMMOB.20                       V     C        11:30:16:07 11:30:17:24 02:04:06:24 02:04:08:16 
M2      MSMMMOB.20                                025.0 11:30:16:07 
*FROM CLIP NAME:  A041C008_190805_R32C 
*SOURCE FILE: MSMMMOB.20
011640  03333.MP3                        A10   C        01:03:16:19 01:03:22:01 02:04:06:24 02:04:12:06 
*FROM CLIP NAME:  03333.MP3 
*A10 VOL = -24.4 DB  PAN L100 
*PATCH 03333.MP3:  FROM SOURCE 2 TO RECORD 10 
*SOURCE FILE: 03333.MP3
011641  03333.MP3                        A11   C        01:03:16:19 01:03:22:01 02:04:06:24 02:04:12:06 
*FROM CLIP NAME:  03333.MP3 
*A11 VOL = -24.4 DB  PAN R100 
*PATCH 03333.MP3:  FROM SOURCE 1 TO RECORD 11 
*SOURCE FILE: 03333.MP3
011642  00827.MP3                        A8    C        01:00:18:09 01:00:40:12 02:04:06:24 02:04:29:02 
*FROM CLIP NAME:  00827.MP3 
*A8 VOL = -40.0 DB  PAN L100 
*PATCH 00827.MP3:  FROM SOURCE 2 TO RECORD 8 
*SOURCE FILE: 00827.MP3
011643  00827.MP3                        A9    C        01:00:18:09 01:00:40:12 02:04:06:24 02:04:29:02 
*FROM CLIP NAME:  00827.MP3 
*A9 VOL = -40.0 DB  PAN R100 
*PATCH 00827.MP3:  FROM SOURCE 1 TO RECORD 9 
*SOURCE FILE: 00827.MP3
011644  19Y08M05                         A     C        11:38:40:02 11:38:44:00 02:04:08:08 02:04:12:06 
*FROM CLIP NAME:  85K4/01.SYNC.01 
*SOURCE FILE: 19Y08M05
011645  19Y08M05                         A2    C        11:38:40:02 11:38:44:00 02:04:08:08 02:04:12:06 
*FROM CLIP NAME:  85K4/01.SYNC.01 
*SOURCE FILE: 19Y08M05
011646  19Y08M05                         A3    C        11:38:40:02 11:38:44:00 02:04:08:08 02:04:12:06 
*FROM CLIP NAME:  85K4/01.SYNC.01 
*SOURCE FILE: 19Y08M05
011647  19Y08M05                         A4    C        11:38:40:02 11:38:44:00 02:04:08:08 02:04:12:06 
*FROM CLIP NAME:  85K4/01.SYNC.01 
*SOURCE FILE: 19Y08M05
011648  19Y08M05                         A5    C        11:38:40:02 11:38:44:00 02:04:08:08 02:04:12:06 
*FROM CLIP NAME:  85K4/01.SYNC.01 
*SOURCE FILE: 19Y08M05
011649  19Y08M05                         A6    C        11:38:40:02 11:38:44:00 02:04:08:08 02:04:12:06 
*FROM CLIP NAME:  85K4/01.SYNC.01 
*SOURCE FILE: 19Y08M05
011650  MSMMMOB.27                       V     C        11:38:40:11 11:38:44:01 02:04:08:16 02:04:12:06 
M2      MSMMMOB.27                                025.0 11:38:40:11 
*FROM CLIP NAME:  A041C009_190805_R32C 
*SOURCE FILE: MSMMMOB.27
011651  19Y08M05                         A     C        11:30:22:17 11:30:31:10 02:04:12:06 02:04:20:24 
*FROM CLIP NAME:  85K3/02.SYNC.01 
*SOURCE FILE: 19Y08M05
011652  19Y08M05                         A2    C        11:30:22:17 11:30:31:10 02:04:12:06 02:04:20:24 
*FROM CLIP NAME:  85K3/02.SYNC.01 
*SOURCE FILE: 19Y08M05
011653  19Y08M05                         A3    C        11:30:22:17 11:30:31:10 02:04:12:06 02:04:20:24 
*FROM CLIP NAME:  85K3/02.SYNC.01 
*SOURCE FILE: 19Y08M05
011654  19Y08M05                         A4    C        11:30:22:17 11:30:31:10 02:04:12:06 02:04:20:24 
*FROM CLIP NAME:  85K3/02.SYNC.01 
*SOURCE FILE: 19Y08M05
011655  19Y08M05                         A5    C        11:30:22:17 11:30:31:10 02:04:12:06 02:04:20:24 
*FROM CLIP NAME:  85K3/02.SYNC.01 
*SOURCE FILE: 19Y08M05
011656  19Y08M05                         A6    C        11:30:22:17 11:30:31:10 02:04:12:06 02:04:20:24 
*FROM CLIP NAME:  85K3/02.SYNC.01 
*SOURCE FILE: 19Y08M05
011657  MSMMMOB.20                       V     C        11:30:22:18 11:30:32:06 02:04:12:06 02:04:21:19 
M2      MSMMMOB.20                                025.0 11:30:22:18 
*FROM CLIP NAME:  A041C008_190805_R32C 
*SOURCE FILE: MSMMMOB.20
011658  03333.MP3                        A10   C        01:03:22:01 01:03:38:22 02:04:12:06 02:04:29:02 
*FROM CLIP NAME:  03333.MP3 
*A10 VOL = -32.3 DB  PAN L100 
*PATCH 03333.MP3:  FROM SOURCE 2 TO RECORD 10 
*SOURCE FILE: 03333.MP3
011659  03333.MP3                        A11   C        01:03:22:01 01:03:38:22 02:04:12:06 02:04:29:02 
*FROM CLIP NAME:  03333.MP3 
*A11 VOL = -32.3 DB  PAN R100 
*PATCH 03333.MP3:  FROM SOURCE 1 TO RECORD 11 
*SOURCE FILE: 03333.MP3
011660  19Y08M05                         A     C        12:01:20:02 12:01:23:20 02:04:20:24 02:04:24:17 
*FROM CLIP NAME:  85K5/04.SYNC.01 
*SOURCE FILE: 19Y08M05
011661  19Y08M05                         A2    C        12:01:20:02 12:01:23:20 02:04:20:24 02:04:24:17 
*FROM CLIP NAME:  85K5/04.SYNC.01 
*SOURCE FILE: 19Y08M05
011662  19Y08M05                         A3    C        12:01:20:02 12:01:23:20 02:04:20:24 02:04:24:17 
*FROM CLIP NAME:  85K5/04.SYNC.01 
*SOURCE FILE: 19Y08M05
011663  19Y08M05                         A4    C        12:01:20:02 12:01:23:20 02:04:20:24 02:04:24:17 
*FROM CLIP NAME:  85K5/04.SYNC.01 
*SOURCE FILE: 19Y08M05
011664  19Y08M05                         A5    C        12:01:20:02 12:01:23:20 02:04:20:24 02:04:24:17 
*FROM CLIP NAME:  85K5/04.SYNC.01 
*SOURCE FILE: 19Y08M05
011665  19Y08M05                         A6    C        12:01:20:02 12:01:23:20 02:04:20:24 02:04:24:17 
*FROM CLIP NAME:  85K5/04.SYNC.01 
*SOURCE FILE: 19Y08M05
011666  MSMMMOB.07                       V     C        12:01:20:23 12:01:23:18 02:04:21:19 02:04:24:14 
M2      MSMMMOB.07                                025.0 12:01:20:23 
*FROM CLIP NAME:  A042C004_190805_R32C 
*SOURCE FILE: MSMMMOB.07
011667  MSMMMOB.20                       V     C        11:30:34:03 11:30:36:02 02:04:24:14 02:04:26:13 
M2      MSMMMOB.20                                025.0 11:30:34:03 
*FROM CLIP NAME:  A041C008_190805_R32C 
*SOURCE FILE: MSMMMOB.20
011668  19Y08M05                         A     C        11:30:34:05 11:30:36:01 02:04:24:17 02:04:26:13 
*FROM CLIP NAME:  85K3/02.SYNC.01 
*SOURCE FILE: 19Y08M05
011669  19Y08M05                         A2    C        11:30:34:05 11:30:36:01 02:04:24:17 02:04:26:13 
*FROM CLIP NAME:  85K3/02.SYNC.01 
*SOURCE FILE: 19Y08M05
011670  19Y08M05                         A3    C        11:30:34:05 11:30:36:01 02:04:24:17 02:04:26:13 
*FROM CLIP NAME:  85K3/02.SYNC.01 
*SOURCE FILE: 19Y08M05
011671  19Y08M05                         A4    C        11:30:34:05 11:30:36:01 02:04:24:17 02:04:26:13 
*FROM CLIP NAME:  85K3/02.SYNC.01 
*SOURCE FILE: 19Y08M05
011672  19Y08M05                         A5    C        11:30:34:05 11:30:36:01 02:04:24:17 02:04:26:13 
*FROM CLIP NAME:  85K3/02.SYNC.01 
*SOURCE FILE: 19Y08M05
011673  19Y08M05                         A6    C        11:30:34:05 11:30:36:01 02:04:24:17 02:04:26:13 
*FROM CLIP NAME:  85K3/02.SYNC.01 
*SOURCE FILE: 19Y08M05
011674  MSMMMOB.34                       V     C        11:58:20:22 11:58:23:11 02:04:26:13 02:04:29:02 
M2      MSMMMOB.34                                025.0 11:58:20:22 
*FROM CLIP NAME:  A042C003_190805_R32C 
*SOURCE FILE: MSMMMOB.34
011675  19Y08M05                         A     C        11:58:20:21 11:58:23:10 02:04:26:13 02:04:29:02 
*FROM CLIP NAME:  85K5/03.SYNC.01 
*SOURCE FILE: 19Y08M05
011676  19Y08M05                         A2    C        11:58:20:21 11:58:23:10 02:04:26:13 02:04:29:02 
*FROM CLIP NAME:  85K5/03.SYNC.01 
*SOURCE FILE: 19Y08M05
011677  19Y08M05                         A3    C        11:58:20:21 11:58:23:10 02:04:26:13 02:04:29:02 
*FROM CLIP NAME:  85K5/03.SYNC.01 
*SOURCE FILE: 19Y08M05
011678  19Y08M05                         A4    C        11:58:20:21 11:58:23:10 02:04:26:13 02:04:29:02 
*FROM CLIP NAME:  85K5/03.SYNC.01 
*SOURCE FILE: 19Y08M05
011679  19Y08M05                         A5    C        11:58:20:21 11:58:23:10 02:04:26:13 02:04:29:02 
*FROM CLIP NAME:  85K5/03.SYNC.01 
*SOURCE FILE: 19Y08M05
011680  19Y08M05                         A6    C        11:58:20:21 11:58:23:10 02:04:26:13 02:04:29:02 
*FROM CLIP NAME:  85K5/03.SYNC.01 
*SOURCE FILE: 19Y08M05
011681  19Y08M05                         A     C        12:01:30:17 12:01:31:10 02:04:29:02 02:04:29:20 
*FROM CLIP NAME:  85K5/04.SYNC.01 
*SOURCE FILE: 19Y08M05
011682  19Y08M05                         A2    C        12:01:30:17 12:01:31:10 02:04:29:02 02:04:29:20 
*FROM CLIP NAME:  85K5/04.SYNC.01 
*SOURCE FILE: 19Y08M05
011683  19Y08M05                         A3    C        12:01:30:17 12:01:31:10 02:04:29:02 02:04:29:20 
*FROM CLIP NAME:  85K5/04.SYNC.01 
*SOURCE FILE: 19Y08M05
011684  19Y08M05                         A4    C        12:01:30:17 12:01:31:10 02:04:29:02 02:04:29:20 
*FROM CLIP NAME:  85K5/04.SYNC.01 
*SOURCE FILE: 19Y08M05
011685  19Y08M05                         A5    C        12:01:30:17 12:01:31:10 02:04:29:02 02:04:29:20 
*FROM CLIP NAME:  85K5/04.SYNC.01 
*SOURCE FILE: 19Y08M05
011686  19Y08M05                         A6    C        12:01:30:17 12:01:31:10 02:04:29:02 02:04:29:20 
*FROM CLIP NAME:  85K5/04.SYNC.01 
*SOURCE FILE: 19Y08M05
011687  MSMMMOB.20                       V     C        11:30:40:04 11:30:44:13 02:04:29:02 02:04:33:11 
M2      MSMMMOB.20                                025.0 11:30:40:04 
*FROM CLIP NAME:  A041C008_190805_R32C 
*SOURCE FILE: MSMMMOB.20
011688  00827.MP3                        A8    C        01:00:42:03 01:00:49:22 02:04:29:02 02:04:36:21 
*FROM CLIP NAME:  00827.MP3 
*A8 VOL = -40.0 DB  PAN L100 
*PATCH 00827.MP3:  FROM SOURCE 2 TO RECORD 8 
*SOURCE FILE: 00827.MP3
011689  00827.MP3                        A9    C        01:00:42:03 01:00:49:22 02:04:29:02 02:04:36:21 
*FROM CLIP NAME:  00827.MP3 
*A9 VOL = -40.0 DB  PAN R100 
*PATCH 00827.MP3:  FROM SOURCE 1 TO RECORD 9 
*SOURCE FILE: 00827.MP3
011690  03333.MP3                        A10   C        01:03:40:13 01:03:48:07 02:04:29:02 02:04:36:21 
*FROM CLIP NAME:  03333.MP3 
*A10 VOL = -32.3 DB  PAN L100 
*PATCH 03333.MP3:  FROM SOURCE 2 TO RECORD 10 
*SOURCE FILE: 03333.MP3
011691  03333.MP3                        A11   C        01:03:40:13 01:03:48:07 02:04:29:02 02:04:36:21 
*FROM CLIP NAME:  03333.MP3 
*A11 VOL = -32.3 DB  PAN R100 
*PATCH 03333.MP3:  FROM SOURCE 1 TO RECORD 11 
*SOURCE FILE: 03333.MP3
011692  19Y08M05                         A     C        11:30:40:21 11:30:44:12 02:04:29:20 02:04:33:11 
*FROM CLIP NAME:  85K3/02.SYNC.01 
*SOURCE FILE: 19Y08M05
011693  19Y08M05                         A2    C        11:30:40:21 11:30:44:12 02:04:29:20 02:04:33:11 
*FROM CLIP NAME:  85K3/02.SYNC.01 
*SOURCE FILE: 19Y08M05
011694  19Y08M05                         A3    C        11:30:40:21 11:30:44:12 02:04:29:20 02:04:33:11 
*FROM CLIP NAME:  85K3/02.SYNC.01 
*SOURCE FILE: 19Y08M05
011695  19Y08M05                         A4    C        11:30:40:21 11:30:44:12 02:04:29:20 02:04:33:11 
*FROM CLIP NAME:  85K3/02.SYNC.01 
*SOURCE FILE: 19Y08M05
011696  19Y08M05                         A5    C        11:30:40:21 11:30:44:12 02:04:29:20 02:04:33:11 
*FROM CLIP NAME:  85K3/02.SYNC.01 
*SOURCE FILE: 19Y08M05
011697  19Y08M05                         A6    C        11:30:40:21 11:30:44:12 02:04:29:20 02:04:33:11 
*FROM CLIP NAME:  85K3/02.SYNC.01 
*SOURCE FILE: 19Y08M05
011698  MSMMMOB.34                       V     C        11:58:27:12 11:58:30:22 02:04:33:11 02:04:36:21 
M2      MSMMMOB.34                                025.0 11:58:27:12 
*FROM CLIP NAME:  A042C003_190805_R32C 
*SOURCE FILE: MSMMMOB.34
011699  19Y08M05                         A6    C        11:58:27:11 11:58:30:21 02:04:33:11 02:04:36:21 
*FROM CLIP NAME:  85K5/03.SYNC.01 
*SOURCE FILE: 19Y08M05
011700  19Y08M05                         A     C        11:58:27:11 11:58:30:22 02:04:33:11 02:04:36:22 
*FROM CLIP NAME:  85K5/03.SYNC.01 
*SOURCE FILE: 19Y08M05
011701  19Y08M05                         A2    C        11:58:27:11 11:58:30:22 02:04:33:11 02:04:36:22 
*FROM CLIP NAME:  85K5/03.SYNC.01 
*SOURCE FILE: 19Y08M05
011702  19Y08M05                         A3    C        11:58:27:11 11:58:30:22 02:04:33:11 02:04:36:22 
*FROM CLIP NAME:  85K5/03.SYNC.01 
*SOURCE FILE: 19Y08M05
011703  19Y08M05                         A4    C        11:58:27:11 11:58:30:22 02:04:33:11 02:04:36:22 
*FROM CLIP NAME:  85K5/03.SYNC.01 
*SOURCE FILE: 19Y08M05
011704  19Y08M05                         A5    C        11:58:27:11 11:58:30:22 02:04:33:11 02:04:36:22 
*FROM CLIP NAME:  85K5/03.SYNC.01 
*SOURCE FILE: 19Y08M05
011705  19Y08M05                         A6    C        12:01:38:15 12:01:38:21 02:04:36:21 02:04:37:02 
*FROM CLIP NAME:  85K5/04.SYNC.01 
*SOURCE FILE: 19Y08M05
011706  MSMMMOB.20                       V     C        11:30:50:08 11:30:52:08 02:04:36:21 02:04:38:21 
M2      MSMMMOB.20                                025.0 11:30:50:08 
*FROM CLIP NAME:  A041C008_190805_R32C 
*SOURCE FILE: MSMMMOB.20
011707  03333.MP3                        A10   C        01:03:48:10 01:03:50:17 02:04:36:21 02:04:39:03 
*FROM CLIP NAME:  03333.MP3 
*A10 VOL = -32.3 DB  PAN L100 
*PATCH 03333.MP3:  FROM SOURCE 2 TO RECORD 10 
*SOURCE FILE: 03333.MP3
011708  03333.MP3                        A11   C        01:03:48:10 01:03:50:17 02:04:36:21 02:04:39:03 
*FROM CLIP NAME:  03333.MP3 
*A11 VOL = -32.3 DB  PAN R100 
*PATCH 03333.MP3:  FROM SOURCE 1 TO RECORD 11 
*SOURCE FILE: 03333.MP3
011709  00827.MP3                        A8    C        01:00:50:00 01:00:58:16 02:04:36:21 02:04:45:12 
*FROM CLIP NAME:  00827.MP3 
*A8 VOL = -40.0 DB  PAN L100 
*PATCH 00827.MP3:  FROM SOURCE 2 TO RECORD 8 
*SOURCE FILE: 00827.MP3
011710  00827.MP3                        A9    C        01:00:50:00 01:00:58:16 02:04:36:21 02:04:45:12 
*FROM CLIP NAME:  00827.MP3 
*A9 VOL = -40.0 DB  PAN R100 
*PATCH 00827.MP3:  FROM SOURCE 1 TO RECORD 9 
*SOURCE FILE: 00827.MP3
011711  19Y08M05                         A     C        11:30:50:08 11:30:53:06 02:04:36:22 02:04:39:20 
*FROM CLIP NAME:  85K3/02.SYNC.01 
*SOURCE FILE: 19Y08M05
011712  19Y08M05                         A2    C        11:30:50:08 11:30:53:06 02:04:36:22 02:04:39:20 
*FROM CLIP NAME:  85K3/02.SYNC.01 
*SOURCE FILE: 19Y08M05
011713  19Y08M05                         A3    C        11:30:50:08 11:30:53:06 02:04:36:22 02:04:39:20 
*FROM CLIP NAME:  85K3/02.SYNC.01 
*SOURCE FILE: 19Y08M05
011714  19Y08M05                         A4    C        11:30:50:08 11:30:53:06 02:04:36:22 02:04:39:20 
*FROM CLIP NAME:  85K3/02.SYNC.01 
*SOURCE FILE: 19Y08M05
011715  19Y08M05                         A5    C        11:30:50:08 11:30:53:06 02:04:36:22 02:04:39:20 
*FROM CLIP NAME:  85K3/02.SYNC.01 
*SOURCE FILE: 19Y08M05
011716  19Y08M05                         A6    C        11:30:50:13 11:30:53:06 02:04:37:02 02:04:39:20 
*FROM CLIP NAME:  85K3/02.SYNC.01 
*SOURCE FILE: 19Y08M05
011717  MSMMMOB.18                       V     C        11:04:55:08 11:04:59:00 02:04:38:21 02:04:42:13 
M2      MSMMMOB.18                                025.0 11:04:55:08 
*FROM CLIP NAME:  A041C005_190805_R32C 
*SOURCE FILE: MSMMMOB.18
011718  19Y08M05                         A     C        11:04:56:06 11:04:59:09 02:04:39:20 02:04:42:23 
*FROM CLIP NAME:  85K2/03.SYNC.01 
*SOURCE FILE: 19Y08M05
011719  19Y08M05                         A2    C        11:04:56:06 11:04:59:09 02:04:39:20 02:04:42:23 
*FROM CLIP NAME:  85K2/03.SYNC.01 
*SOURCE FILE: 19Y08M05
011720  19Y08M05                         A3    C        11:04:56:06 11:04:59:09 02:04:39:20 02:04:42:23 
*FROM CLIP NAME:  85K2/03.SYNC.01 
*SOURCE FILE: 19Y08M05
011721  19Y08M05                         A4    C        11:04:56:06 11:04:59:09 02:04:39:20 02:04:42:23 
*FROM CLIP NAME:  85K2/03.SYNC.01 
*SOURCE FILE: 19Y08M05
011722  19Y08M05                         A5    C        11:04:56:06 11:04:59:09 02:04:39:20 02:04:42:23 
*FROM CLIP NAME:  85K2/03.SYNC.01 
*SOURCE FILE: 19Y08M05
011723  19Y08M05                         A6    C        11:04:56:06 11:04:59:09 02:04:39:20 02:04:42:23 
*FROM CLIP NAME:  85K2/03.SYNC.01 
*SOURCE FILE: 19Y08M05
011724  MSMMMOB.20                       V     C        11:30:55:23 11:30:58:22 02:04:42:13 02:04:45:12 
M2      MSMMMOB.20                                025.0 11:30:55:23 
*FROM CLIP NAME:  A041C008_190805_R32C 
*SOURCE FILE: MSMMMOB.20
011725  19Y08M05                         A     C        11:30:56:07 11:30:58:21 02:04:42:23 02:04:45:12 
*FROM CLIP NAME:  85K3/02.SYNC.01 
*SOURCE FILE: 19Y08M05
011726  19Y08M05                         A2    C        11:30:56:07 11:30:58:21 02:04:42:23 02:04:45:12 
*FROM CLIP NAME:  85K3/02.SYNC.01 
*SOURCE FILE: 19Y08M05
011727  19Y08M05                         A3    C        11:30:56:07 11:30:58:21 02:04:42:23 02:04:45:12 
*FROM CLIP NAME:  85K3/02.SYNC.01 
*SOURCE FILE: 19Y08M05
011728  19Y08M05                         A4    C        11:30:56:07 11:30:58:21 02:04:42:23 02:04:45:12 
*FROM CLIP NAME:  85K3/02.SYNC.01 
*SOURCE FILE: 19Y08M05
011729  19Y08M05                         A5    C        11:30:56:07 11:30:58:21 02:04:42:23 02:04:45:12 
*FROM CLIP NAME:  85K3/02.SYNC.01 
*SOURCE FILE: 19Y08M05
011730  19Y08M05                         A6    C        11:30:56:07 11:30:58:21 02:04:42:23 02:04:45:12 
*FROM CLIP NAME:  85K3/02.SYNC.01 
*SOURCE FILE: 19Y08M05
011731  MSMMMOB.07                       V     C        12:01:49:03 12:01:51:18 02:04:45:12 02:04:48:02 
M2      MSMMMOB.07                                025.0 12:01:49:03 
*FROM CLIP NAME:  A042C004_190805_R32C 
*SOURCE FILE: MSMMMOB.07
011732  19Y08M05                         A     C        12:01:49:02 12:01:51:17 02:04:45:12 02:04:48:02 
*FROM CLIP NAME:  85K5/04.SYNC.01 
*SOURCE FILE: 19Y08M05
011733  19Y08M05                         A2    C        12:01:49:02 12:01:51:17 02:04:45:12 02:04:48:02 
*FROM CLIP NAME:  85K5/04.SYNC.01 
*SOURCE FILE: 19Y08M05
011734  19Y08M05                         A3    C        12:01:49:02 12:01:51:17 02:04:45:12 02:04:48:02 
*FROM CLIP NAME:  85K5/04.SYNC.01 
*SOURCE FILE: 19Y08M05
011735  19Y08M05                         A4    C        12:01:49:02 12:01:51:17 02:04:45:12 02:04:48:02 
*FROM CLIP NAME:  85K5/04.SYNC.01 
*SOURCE FILE: 19Y08M05
011736  19Y08M05                         A5    C        12:01:49:02 12:01:51:17 02:04:45:12 02:04:48:02 
*FROM CLIP NAME:  85K5/04.SYNC.01 
*SOURCE FILE: 19Y08M05
011737  19Y08M05                         A6    C        12:01:49:02 12:01:51:17 02:04:45:12 02:04:48:02 
*FROM CLIP NAME:  85K5/04.SYNC.01 
*SOURCE FILE: 19Y08M05
011738  00827.MP3                        A8    C        01:00:59:08 01:01:10:16 02:04:45:12 02:04:56:20 
*FROM CLIP NAME:  00827.MP3 
*A8 VOL = -40.0 DB  PAN L100 
*PATCH 00827.MP3:  FROM SOURCE 2 TO RECORD 8 
*SOURCE FILE: 00827.MP3
011739  00827.MP3                        A9    C        01:00:59:08 01:01:10:16 02:04:45:12 02:04:56:20 
*FROM CLIP NAME:  00827.MP3 
*A9 VOL = -40.0 DB  PAN R100 
*PATCH 00827.MP3:  FROM SOURCE 1 TO RECORD 9 
*SOURCE FILE: 00827.MP3
011740  19Y08M05                         A6    C        12:01:31:13 12:01:32:17 02:04:48:02 02:04:49:06 
*FROM CLIP NAME:  85K5/04.SYNC.01 
*SOURCE FILE: 19Y08M05
011741  19Y08M05                         A     C        12:01:31:13 12:01:32:18 02:04:48:02 02:04:49:07 
*FROM CLIP NAME:  85K5/04.SYNC.01 
*SOURCE FILE: 19Y08M05
011742  19Y08M05                         A2    C        12:01:31:13 12:01:32:18 02:04:48:02 02:04:49:07 
*FROM CLIP NAME:  85K5/04.SYNC.01 
*SOURCE FILE: 19Y08M05
011743  19Y08M05                         A3    C        12:01:31:13 12:01:32:18 02:04:48:02 02:04:49:07 
*FROM CLIP NAME:  85K5/04.SYNC.01 
*SOURCE FILE: 19Y08M05
011744  19Y08M05                         A4    C        12:01:31:13 12:01:32:18 02:04:48:02 02:04:49:07 
*FROM CLIP NAME:  85K5/04.SYNC.01 
*SOURCE FILE: 19Y08M05
011745  19Y08M05                         A5    C        12:01:31:13 12:01:32:18 02:04:48:02 02:04:49:07 
*FROM CLIP NAME:  85K5/04.SYNC.01 
*SOURCE FILE: 19Y08M05
011746  MSMMMOB.20                       V     C        11:31:00:24 11:31:02:20 02:04:48:02 02:04:49:23 
M2      MSMMMOB.20                                025.0 11:31:00:24 
*FROM CLIP NAME:  A041C008_190805_R32C 
*SOURCE FILE: MSMMMOB.20
011747  19Y08M05                         A6    C        11:31:02:02 11:31:02:19 02:04:49:06 02:04:49:23 
*FROM CLIP NAME:  85K3/02.SYNC.01 
*SOURCE FILE: 19Y08M05
011748  19Y08M05                         A     C        11:31:02:03 11:31:02:19 02:04:49:07 02:04:49:23 
*FROM CLIP NAME:  85K3/02.SYNC.01 
*SOURCE FILE: 19Y08M05
011749  19Y08M05                         A2    C        11:31:02:03 11:31:02:19 02:04:49:07 02:04:49:23 
*FROM CLIP NAME:  85K3/02.SYNC.01 
*SOURCE FILE: 19Y08M05
011750  19Y08M05                         A3    C        11:31:02:03 11:31:02:19 02:04:49:07 02:04:49:23 
*FROM CLIP NAME:  85K3/02.SYNC.01 
*SOURCE FILE: 19Y08M05
011751  19Y08M05                         A4    C        11:31:02:03 11:31:02:19 02:04:49:07 02:04:49:23 
*FROM CLIP NAME:  85K3/02.SYNC.01 
*SOURCE FILE: 19Y08M05
011752  19Y08M05                         A5    C        11:31:02:03 11:31:02:19 02:04:49:07 02:04:49:23 
*FROM CLIP NAME:  85K3/02.SYNC.01 
*SOURCE FILE: 19Y08M05
011753  MSMMMOB.07                       V     C        12:01:52:15 12:01:55:03 02:04:49:23 02:04:52:11 
M2      MSMMMOB.07                                025.0 12:01:52:15 
*FROM CLIP NAME:  A042C004_190805_R32C 
*SOURCE FILE: MSMMMOB.07
011754  19Y08M05                         A     C        12:01:52:14 12:01:55:02 02:04:49:23 02:04:52:11 
*FROM CLIP NAME:  85K5/04.SYNC.01 
*SOURCE FILE: 19Y08M05
011755  19Y08M05                         A2    C        12:01:52:14 12:01:55:02 02:04:49:23 02:04:52:11 
*FROM CLIP NAME:  85K5/04.SYNC.01 
*SOURCE FILE: 19Y08M05
011756  19Y08M05                         A3    C        12:01:52:14 12:01:55:02 02:04:49:23 02:04:52:11 
*FROM CLIP NAME:  85K5/04.SYNC.01 
*SOURCE FILE: 19Y08M05
011757  19Y08M05                         A4    C        12:01:52:14 12:01:55:02 02:04:49:23 02:04:52:11 
*FROM CLIP NAME:  85K5/04.SYNC.01 
*SOURCE FILE: 19Y08M05
011758  19Y08M05                         A5    C        12:01:52:14 12:01:55:02 02:04:49:23 02:04:52:11 
*FROM CLIP NAME:  85K5/04.SYNC.01 
*SOURCE FILE: 19Y08M05
011759  19Y08M05                         A6    C        12:01:52:14 12:01:55:02 02:04:49:23 02:04:52:11 
*FROM CLIP NAME:  85K5/04.SYNC.01 
*SOURCE FILE: 19Y08M05
011760  MSMMMOB.20                       V     C        11:31:04:00 11:31:06:11 02:04:52:11 02:04:54:22 
M2      MSMMMOB.20                                025.0 11:31:04:00 
*FROM CLIP NAME:  A041C008_190805_R32C 
*SOURCE FILE: MSMMMOB.20
011761  19Y08M05                         A     C        11:31:03:24 11:31:06:12 02:04:52:11 02:04:54:24 
*FROM CLIP NAME:  85K3/02.SYNC.01 
*SOURCE FILE: 19Y08M05
011762  19Y08M05                         A2    C        11:31:03:24 11:31:06:12 02:04:52:11 02:04:54:24 
*FROM CLIP NAME:  85K3/02.SYNC.01 
*SOURCE FILE: 19Y08M05
011763  19Y08M05                         A3    C        11:31:03:24 11:31:06:12 02:04:52:11 02:04:54:24 
*FROM CLIP NAME:  85K3/02.SYNC.01 
*SOURCE FILE: 19Y08M05
011764  19Y08M05                         A4    C        11:31:03:24 11:31:06:12 02:04:52:11 02:04:54:24 
*FROM CLIP NAME:  85K3/02.SYNC.01 
*SOURCE FILE: 19Y08M05
011765  19Y08M05                         A5    C        11:31:03:24 11:31:06:12 02:04:52:11 02:04:54:24 
*FROM CLIP NAME:  85K3/02.SYNC.01 
*SOURCE FILE: 19Y08M05
011766  19Y08M05                         A6    C        11:31:03:24 11:31:06:12 02:04:52:11 02:04:54:24 
*FROM CLIP NAME:  85K3/02.SYNC.01 
*SOURCE FILE: 19Y08M05
011767  MSMMMOB.42                       V     C        12:07:17:01 12:07:18:24 02:04:54:22 02:04:56:20 
M2      MSMMMOB.42                                025.0 12:07:17:01 
*FROM CLIP NAME:  A042C006_190805_R32C 
*SOURCE FILE: MSMMMOB.42
011768  19Y08M05                         A     C        12:01:58:24 12:02:00:20 02:04:54:24 02:04:56:20 
*FROM CLIP NAME:  85K5/04.SYNC.01 
*SOURCE FILE: 19Y08M05
011769  19Y08M05                         A2    C        12:01:58:24 12:02:00:20 02:04:54:24 02:04:56:20 
*FROM CLIP NAME:  85K5/04.SYNC.01 
*SOURCE FILE: 19Y08M05
011770  19Y08M05                         A3    C        12:01:58:24 12:02:00:20 02:04:54:24 02:04:56:20 
*FROM CLIP NAME:  85K5/04.SYNC.01 
*SOURCE FILE: 19Y08M05
011771  19Y08M05                         A4    C        12:01:58:24 12:02:00:20 02:04:54:24 02:04:56:20 
*FROM CLIP NAME:  85K5/04.SYNC.01 
*SOURCE FILE: 19Y08M05
011772  19Y08M05                         A5    C        12:01:58:24 12:02:00:20 02:04:54:24 02:04:56:20 
*FROM CLIP NAME:  85K5/04.SYNC.01 
*SOURCE FILE: 19Y08M05
011773  19Y08M05                         A6    C        12:01:58:24 12:02:00:20 02:04:54:24 02:04:56:20 
*FROM CLIP NAME:  85K5/04.SYNC.01 
*SOURCE FILE: 19Y08M05
011774  MSMMMOB.20                       V     C        11:31:08:24 11:31:11:22 02:04:56:20 02:04:59:18 
M2      MSMMMOB.20                                025.0 11:31:08:24 
*FROM CLIP NAME:  A041C008_190805_R32C 
*SOURCE FILE: MSMMMOB.20
011775  19Y08M05                         A     C        11:31:08:23 11:31:12:00 02:04:56:20 02:04:59:22 
*FROM CLIP NAME:  85K3/02.SYNC.01 
*SOURCE FILE: 19Y08M05
011776  19Y08M05                         A2    C        11:31:08:23 11:31:12:00 02:04:56:20 02:04:59:22 
*FROM CLIP NAME:  85K3/02.SYNC.01 
*SOURCE FILE: 19Y08M05
011777  19Y08M05                         A3    C        11:31:08:23 11:31:12:00 02:04:56:20 02:04:59:22 
*FROM CLIP NAME:  85K3/02.SYNC.01 
*SOURCE FILE: 19Y08M05
011778  19Y08M05                         A4    C        11:31:08:23 11:31:12:00 02:04:56:20 02:04:59:22 
*FROM CLIP NAME:  85K3/02.SYNC.01 
*SOURCE FILE: 19Y08M05
011779  19Y08M05                         A5    C        11:31:08:23 11:31:12:00 02:04:56:20 02:04:59:22 
*FROM CLIP NAME:  85K3/02.SYNC.01 
*SOURCE FILE: 19Y08M05
011780  19Y08M05                         A6    C        11:31:08:23 11:31:12:00 02:04:56:20 02:04:59:22 
*FROM CLIP NAME:  85K3/02.SYNC.01 
*SOURCE FILE: 19Y08M05
011781  00827.MP3                        A8    C        01:01:10:23 01:01:26:20 02:04:56:20 02:05:12:17 
*FROM CLIP NAME:  00827.MP3 
*A8 VOL = -40.0 DB  PAN L100 
*PATCH 00827.MP3:  FROM SOURCE 2 TO RECORD 8 
*SOURCE FILE: 00827.MP3
011782  00827.MP3                        A9    C        01:01:10:23 01:01:26:20 02:04:56:20 02:05:12:17 
*FROM CLIP NAME:  00827.MP3 
*A9 VOL = -40.0 DB  PAN R100 
*PATCH 00827.MP3:  FROM SOURCE 1 TO RECORD 9 
*SOURCE FILE: 00827.MP3
011783  MSMMMOB.07                       V     C        12:02:02:21 12:02:04:20 02:04:59:18 02:05:01:17 
M2      MSMMMOB.07                                025.0 12:02:02:21 
*FROM CLIP NAME:  A042C004_190805_R32C 
*SOURCE FILE: MSMMMOB.07
011784  19Y08M05                         A     C        12:02:02:24 12:02:04:22 02:04:59:22 02:05:01:20 
*FROM CLIP NAME:  85K5/04.SYNC.01 
*SOURCE FILE: 19Y08M05
011785  19Y08M05                         A2    C        12:02:02:24 12:02:04:22 02:04:59:22 02:05:01:20 
*FROM CLIP NAME:  85K5/04.SYNC.01 
*SOURCE FILE: 19Y08M05
011786  19Y08M05                         A3    C        12:02:02:24 12:02:04:22 02:04:59:22 02:05:01:20 
*FROM CLIP NAME:  85K5/04.SYNC.01 
*SOURCE FILE: 19Y08M05
011787  19Y08M05                         A4    C        12:02:02:24 12:02:04:22 02:04:59:22 02:05:01:20 
*FROM CLIP NAME:  85K5/04.SYNC.01 
*SOURCE FILE: 19Y08M05
011788  19Y08M05                         A5    C        12:02:02:24 12:02:04:22 02:04:59:22 02:05:01:20 
*FROM CLIP NAME:  85K5/04.SYNC.01 
*SOURCE FILE: 19Y08M05
011789  19Y08M05                         A6    C        12:02:02:24 12:02:04:22 02:04:59:22 02:05:01:20 
*FROM CLIP NAME:  85K5/04.SYNC.01 
*SOURCE FILE: 19Y08M05
011790  MSMMMOB.20                       V     C        11:31:13:08 11:31:17:06 02:05:01:17 02:05:05:15 
M2      MSMMMOB.20                                025.0 11:31:13:08 
*FROM CLIP NAME:  A041C008_190805_R32C 
*SOURCE FILE: MSMMMOB.20
011791  19Y08M05                         A     C        11:31:13:10 11:31:16:20 02:05:01:20 02:05:05:05 
*FROM CLIP NAME:  85K3/02.SYNC.01 
*SOURCE FILE: 19Y08M05
011792  19Y08M05                         A2    C        11:31:13:10 11:31:16:20 02:05:01:20 02:05:05:05 
*FROM CLIP NAME:  85K3/02.SYNC.01 
*SOURCE FILE: 19Y08M05
011793  19Y08M05                         A3    C        11:31:13:10 11:31:16:20 02:05:01:20 02:05:05:05 
*FROM CLIP NAME:  85K3/02.SYNC.01 
*SOURCE FILE: 19Y08M05
011794  19Y08M05                         A4    C        11:31:13:10 11:31:16:20 02:05:01:20 02:05:05:05 
*FROM CLIP NAME:  85K3/02.SYNC.01 
*SOURCE FILE: 19Y08M05
011795  19Y08M05                         A5    C        11:31:13:10 11:31:16:20 02:05:01:20 02:05:05:05 
*FROM CLIP NAME:  85K3/02.SYNC.01 
*SOURCE FILE: 19Y08M05
011796  19Y08M05                         A6    C        11:31:13:10 11:31:16:20 02:05:01:20 02:05:05:05 
*FROM CLIP NAME:  85K3/02.SYNC.01 
*SOURCE FILE: 19Y08M05
011797  19Y08M05                         A     C        12:02:08:22 12:02:16:09 02:05:05:05 02:05:12:17 
*FROM CLIP NAME:  85K5/04.SYNC.01 
*SOURCE FILE: 19Y08M05
011798  19Y08M05                         A2    C        12:02:08:22 12:02:16:09 02:05:05:05 02:05:12:17 
*FROM CLIP NAME:  85K5/04.SYNC.01 
*SOURCE FILE: 19Y08M05
011799  19Y08M05                         A3    C        12:02:08:22 12:02:16:09 02:05:05:05 02:05:12:17 
*FROM CLIP NAME:  85K5/04.SYNC.01 
*SOURCE FILE: 19Y08M05
011800  19Y08M05                         A4    C        12:02:08:22 12:02:16:09 02:05:05:05 02:05:12:17 
*FROM CLIP NAME:  85K5/04.SYNC.01 
*SOURCE FILE: 19Y08M05
011801  19Y08M05                         A5    C        12:02:08:22 12:02:16:09 02:05:05:05 02:05:12:17 
*FROM CLIP NAME:  85K5/04.SYNC.01 
*SOURCE FILE: 19Y08M05
011802  19Y08M05                         A6    C        12:02:08:22 12:02:16:09 02:05:05:05 02:05:12:17 
*FROM CLIP NAME:  85K5/04.SYNC.01 
*SOURCE FILE: 19Y08M05
011803  MSMMMOB.07                       V     C        12:02:09:08 12:02:13:19 02:05:05:15 02:05:10:01 
M2      MSMMMOB.07                                025.0 12:02:09:08 
*FROM CLIP NAME:  A042C004_190805_R32C 
*SOURCE FILE: MSMMMOB.07
011804  MSMMMOB.20                       V     C        11:31:19:15 11:31:22:06 02:05:10:01 02:05:12:17 
M2      MSMMMOB.20                                025.0 11:31:19:15 
*FROM CLIP NAME:  A041C008_190805_R32C 
*SOURCE FILE: MSMMMOB.20
011805  MSMMMOB.07                       V     C        12:02:16:10 12:02:19:16 02:05:12:17 02:05:15:23 
M2      MSMMMOB.07                                025.0 12:02:16:10 
*FROM CLIP NAME:  A042C004_190805_R32C 
*SOURCE FILE: MSMMMOB.07
011806  19Y08M05                         A     C        12:02:16:09 12:02:20:01 02:05:12:17 02:05:16:09 
*FROM CLIP NAME:  85K5/04.SYNC.01 
*SOURCE FILE: 19Y08M05
011807  19Y08M05                         A2    C        12:02:16:09 12:02:20:01 02:05:12:17 02:05:16:09 
*FROM CLIP NAME:  85K5/04.SYNC.01 
*SOURCE FILE: 19Y08M05
011808  19Y08M05                         A3    C        12:02:16:09 12:02:20:01 02:05:12:17 02:05:16:09 
*FROM CLIP NAME:  85K5/04.SYNC.01 
*SOURCE FILE: 19Y08M05
011809  19Y08M05                         A4    C        12:02:16:09 12:02:20:01 02:05:12:17 02:05:16:09 
*FROM CLIP NAME:  85K5/04.SYNC.01 
*SOURCE FILE: 19Y08M05
011810  19Y08M05                         A5    C        12:02:16:09 12:02:20:01 02:05:12:17 02:05:16:09 
*FROM CLIP NAME:  85K5/04.SYNC.01 
*SOURCE FILE: 19Y08M05
011811  19Y08M05                         A6    C        12:02:16:09 12:02:20:01 02:05:12:17 02:05:16:09 
*FROM CLIP NAME:  85K5/04.SYNC.01 
*SOURCE FILE: 19Y08M05
011812  00827.MP3                        A8    C        01:01:26:20 01:01:31:08 02:05:12:17 02:05:17:05 
*FROM CLIP NAME:  00827.MP3 
*A8 VOL = -40.0 DB  PAN L100 
*PATCH 00827.MP3:  FROM SOURCE 2 TO RECORD 8 
*SOURCE FILE: 00827.MP3
011813  00827.MP3                        A9    C        01:01:26:20 01:01:31:08 02:05:12:17 02:05:17:05 
*FROM CLIP NAME:  00827.MP3 
*A9 VOL = -40.0 DB  PAN R100 
*PATCH 00827.MP3:  FROM SOURCE 1 TO RECORD 9 
*SOURCE FILE: 00827.MP3
011815  BL                               V     C        00:00:00:00 00:00:03:08 02:05:15:23 02:05:19:06 
*SOURCE FILE: (NULL)
011814  MSMMMOB.18                       V     C        11:05:27:10 11:05:30:18 02:05:15:23 02:05:19:06 
M2      MSMMMOB.18                                025.0 11:05:27:10 
*FROM CLIP NAME:  A041C005_190805_R32C 
*SOURCE FILE: MSMMMOB.18
011816  19Y08M05                         A     C        11:05:27:20 11:05:30:17 02:05:16:09 02:05:19:06 
*FROM CLIP NAME:  85K2/03.SYNC.01 
*SOURCE FILE: 19Y08M05
011817  19Y08M05                         A2    C        11:05:27:20 11:05:30:17 02:05:16:09 02:05:19:06 
*FROM CLIP NAME:  85K2/03.SYNC.01 
*SOURCE FILE: 19Y08M05
011818  19Y08M05                         A3    C        11:05:27:20 11:05:30:17 02:05:16:09 02:05:19:06 
*FROM CLIP NAME:  85K2/03.SYNC.01 
*SOURCE FILE: 19Y08M05
011819  19Y08M05                         A4    C        11:05:27:20 11:05:30:17 02:05:16:09 02:05:19:06 
*FROM CLIP NAME:  85K2/03.SYNC.01 
*SOURCE FILE: 19Y08M05
011820  19Y08M05                         A5    C        11:05:27:20 11:05:30:17 02:05:16:09 02:05:19:06 
*FROM CLIP NAME:  85K2/03.SYNC.01 
*SOURCE FILE: 19Y08M05
011821  19Y08M05                         A6    C        11:05:27:20 11:05:30:17 02:05:16:09 02:05:19:06 
*FROM CLIP NAME:  85K2/03.SYNC.01 
*SOURCE FILE: 19Y08M05
011822  00827.MP3                        A8    C        01:01:31:12 01:01:33:13 02:05:17:05 02:05:19:06 
*FROM CLIP NAME:  00827.MP3 
*A8 VOL = -40.0 DB  PAN L100 
*PATCH 00827.MP3:  FROM SOURCE 2 TO RECORD 8 
*SOURCE FILE: 00827.MP3
011823  00827.MP3                        A9    C        01:01:31:12 01:01:33:13 02:05:17:05 02:05:19:06 
*FROM CLIP NAME:  00827.MP3 
*A9 VOL = -40.0 DB  PAN R100 
*PATCH 00827.MP3:  FROM SOURCE 1 TO RECORD 9 
*SOURCE FILE: 00827.MP3
011824  MSMMMOB.20                       V     C        11:31:29:06 11:31:37:17 02:05:19:06 02:05:27:17 
M2      MSMMMOB.20                                025.0 11:31:29:06 
*FROM CLIP NAME:  A041C008_190805_R32C 
*SOURCE FILE: MSMMMOB.20
011825  19Y08M05                         A     C        11:31:29:05 11:31:37:16 02:05:19:06 02:05:27:17 
*FROM CLIP NAME:  85K3/02.SYNC.01 
*SOURCE FILE: 19Y08M05
011826  19Y08M05                         A2    C        11:31:29:05 11:31:37:16 02:05:19:06 02:05:27:17 
*FROM CLIP NAME:  85K3/02.SYNC.01 
*SOURCE FILE: 19Y08M05
011827  19Y08M05                         A3    C        11:31:29:05 11:31:37:16 02:05:19:06 02:05:27:17 
*FROM CLIP NAME:  85K3/02.SYNC.01 
*SOURCE FILE: 19Y08M05
011828  19Y08M05                         A4    C        11:31:29:05 11:31:37:16 02:05:19:06 02:05:27:17 
*FROM CLIP NAME:  85K3/02.SYNC.01 
*SOURCE FILE: 19Y08M05
011829  19Y08M05                         A5    C        11:31:29:05 11:31:37:16 02:05:19:06 02:05:27:17 
*FROM CLIP NAME:  85K3/02.SYNC.01 
*SOURCE FILE: 19Y08M05
011830  19Y08M05                         A6    C        11:31:29:05 11:31:37:16 02:05:19:06 02:05:27:17 
*FROM CLIP NAME:  85K3/02.SYNC.01 
*SOURCE FILE: 19Y08M05
011831  00827.MP3                        A8    C        01:01:35:02 01:01:46:01 02:05:19:06 02:05:30:05 
*FROM CLIP NAME:  00827.MP3 
*A8 VOL = -40.0 DB  PAN L100 
*PATCH 00827.MP3:  FROM SOURCE 2 TO RECORD 8 
*SOURCE FILE: 00827.MP3
011832  00827.MP3                        A9    C        01:01:35:02 01:01:46:01 02:05:19:06 02:05:30:05 
*FROM CLIP NAME:  00827.MP3 
*A9 VOL = -40.0 DB  PAN R100 
*PATCH 00827.MP3:  FROM SOURCE 1 TO RECORD 9 
*SOURCE FILE: 00827.MP3
011833  BL                               V     C        00:00:00:00 00:03:00:21 02:05:19:06 02:08:20:02 
*SOURCE FILE: (NULL)
011834  19Y08M05                         A     C        12:15:15:20 12:15:17:13 02:05:27:17 02:05:29:10 
*FROM CLIP NAME:  85K8/01.SYNC.01 
*SOURCE FILE: 19Y08M05
011835  19Y08M05                         A2    C        12:15:15:20 12:15:17:13 02:05:27:17 02:05:29:10 
*FROM CLIP NAME:  85K8/01.SYNC.01 
*SOURCE FILE: 19Y08M05
011836  19Y08M05                         A3    C        12:15:15:20 12:15:17:13 02:05:27:17 02:05:29:10 
*FROM CLIP NAME:  85K8/01.SYNC.01 
*SOURCE FILE: 19Y08M05
011837  19Y08M05                         A4    C        12:15:15:20 12:15:17:13 02:05:27:17 02:05:29:10 
*FROM CLIP NAME:  85K8/01.SYNC.01 
*SOURCE FILE: 19Y08M05
011838  19Y08M05                         A5    C        12:15:15:20 12:15:17:13 02:05:27:17 02:05:29:10 
*FROM CLIP NAME:  85K8/01.SYNC.01 
*SOURCE FILE: 19Y08M05
011839  19Y08M05                         A7    C        12:15:15:20 12:15:17:13 02:05:27:17 02:05:29:10 
*FROM CLIP NAME:  85K8/01.SYNC.01 
*PATCH 19Y08M05:  FROM SOURCE 6 TO RECORD 7 
*SOURCE FILE: 19Y08M05
011840  MSMMMOB.21                       V     C        12:15:39:24 12:15:42:12 02:05:27:17 02:05:30:05 
M2      MSMMMOB.21                                025.0 12:15:39:24 
*FROM CLIP NAME:  A042C007_190805_R32C 
*SOURCE FILE: MSMMMOB.21
011841  19Y08M05                         A     C        11:31:38:16 11:31:39:11 02:05:29:10 02:05:30:05 
*FROM CLIP NAME:  85K3/02.SYNC.01 
*SOURCE FILE: 19Y08M05
011842  19Y08M05                         A2    C        11:31:38:16 11:31:39:11 02:05:29:10 02:05:30:05 
*FROM CLIP NAME:  85K3/02.SYNC.01 
*SOURCE FILE: 19Y08M05
011843  19Y08M05                         A3    C        11:31:38:16 11:31:39:11 02:05:29:10 02:05:30:05 
*FROM CLIP NAME:  85K3/02.SYNC.01 
*SOURCE FILE: 19Y08M05
011844  19Y08M05                         A4    C        11:31:38:16 11:31:39:11 02:05:29:10 02:05:30:05 
*FROM CLIP NAME:  85K3/02.SYNC.01 
*SOURCE FILE: 19Y08M05
011845  19Y08M05                         A5    C        11:31:38:16 11:31:39:11 02:05:29:10 02:05:30:05 
*FROM CLIP NAME:  85K3/02.SYNC.01 
*SOURCE FILE: 19Y08M05
011846  19Y08M05                         A7    C        11:31:38:16 11:31:39:11 02:05:29:10 02:05:30:05 
*FROM CLIP NAME:  85K3/02.SYNC.01 
*PATCH 19Y08M05:  FROM SOURCE 6 TO RECORD 7 
*SOURCE FILE: 19Y08M05
011847  MSMMMOB.45                       V     C        20:35:49:00 20:35:52:00 02:05:30:05 02:05:33:05 
M2      MSMMMOB.45                                025.0 20:35:49:00 
*FROM CLIP NAME:  A068C004_190812_R32C 
*SOURCE FILE: MSMMMOB.45
011848  19Y08M12                         A     C        20:35:48:23 20:35:51:23 02:05:30:05 02:05:33:05 
*FROM CLIP NAME:  86BK1/02.SYNC.01 
*SOURCE FILE: 19Y08M12
011849  19Y08M12                         A2    C        20:35:48:23 20:35:51:23 02:05:30:05 02:05:33:05 
*FROM CLIP NAME:  86BK1/02.SYNC.01 
*SOURCE FILE: 19Y08M12
011850  19Y08M12                         A3    C        20:35:48:23 20:35:51:23 02:05:30:05 02:05:33:05 
*FROM CLIP NAME:  86BK1/02.SYNC.01 
*PATCH 19Y08M12:  FROM SOURCE 7 TO RECORD 3 
*SOURCE FILE: 19Y08M12
011851  19Y08M12                         A4    C        20:35:48:23 20:35:51:23 02:05:30:05 02:05:33:05 
*FROM CLIP NAME:  86BK1/02.SYNC.01 
*PATCH 19Y08M12:  FROM SOURCE 8 TO RECORD 4 
*SOURCE FILE: 19Y08M12
011852  19Y08M12                         A     C        21:10:16:16 21:10:22:12 02:05:33:05 02:05:39:01 
*FROM CLIP NAME:  86BK3/01.SYNC.01 
*SOURCE FILE: 19Y08M12
011853  19Y08M12                         A2    C        21:10:16:16 21:10:22:12 02:05:33:05 02:05:39:01 
*FROM CLIP NAME:  86BK3/01.SYNC.01 
*SOURCE FILE: 19Y08M12
011854  19Y08M12                         A3    C        21:10:16:16 21:10:22:12 02:05:33:05 02:05:39:01 
*FROM CLIP NAME:  86BK3/01.SYNC.01 
*PATCH 19Y08M12:  FROM SOURCE 7 TO RECORD 3 
*SOURCE FILE: 19Y08M12
011855  19Y08M12                         A4    C        21:10:16:16 21:10:22:12 02:05:33:05 02:05:39:01 
*FROM CLIP NAME:  86BK3/01.SYNC.01 
*PATCH 19Y08M12:  FROM SOURCE 8 TO RECORD 4 
*SOURCE FILE: 19Y08M12
011856  MSMMMOB.46                       V     C        21:10:16:18 21:10:22:16 02:05:33:05 02:05:39:03 
M2      MSMMMOB.46                                025.0 21:10:16:18 
*FROM CLIP NAME:  A069C001_190812_R32C 
*SOURCE FILE: MSMMMOB.46
011857  19Y08M12                         A     C        21:10:22:12 21:10:22:12 02:05:39:01 02:05:39:01 
011857  19Y08M12                         A     D    005 21:35:45:01 21:35:45:06 02:05:39:01 02:05:39:06 
*FROM CLIP NAME:  86BK3/01.SYNC.01 
*TO CLIP NAME:  86BK5/02.SYNC.01 
*SOURCE FILE: 19Y08M12
011858  19Y08M12                         A2    C        21:10:22:12 21:10:22:12 02:05:39:01 02:05:39:01 
011858  19Y08M12                         A2    D    005 21:35:45:01 21:35:45:06 02:05:39:01 02:05:39:06 
*FROM CLIP NAME:  86BK3/01.SYNC.01 
*TO CLIP NAME:  86BK5/02.SYNC.01 
*SOURCE FILE: 19Y08M12
011859  19Y08M12                         A3    C        21:10:22:12 21:10:22:12 02:05:39:01 02:05:39:01 
011859  19Y08M12                         A3    D    005 21:35:45:01 21:35:45:06 02:05:39:01 02:05:39:06 
*FROM CLIP NAME:  86BK3/01.SYNC.01 
*TO CLIP NAME:  86BK5/02.SYNC.01 
*PATCH 19Y08M12:  FROM SOURCE 7 TO RECORD 3 
*PATCH 19Y08M12:  FROM SOURCE 7 TO RECORD 3 
*SOURCE FILE: 19Y08M12
011860  19Y08M12                         A4    C        21:10:22:12 21:10:22:12 02:05:39:01 02:05:39:01 
011860  19Y08M12                         A4    D    005 21:35:45:01 21:35:45:06 02:05:39:01 02:05:39:06 
*FROM CLIP NAME:  86BK3/01.SYNC.01 
*TO CLIP NAME:  86BK5/02.SYNC.01 
*PATCH 19Y08M12:  FROM SOURCE 8 TO RECORD 4 
*PATCH 19Y08M12:  FROM SOURCE 8 TO RECORD 4 
*SOURCE FILE: 19Y08M12
011861  MSMMMOB.33                       V     C        21:35:45:05 21:35:47:00 02:05:39:03 02:05:40:23 
M2      MSMMMOB.33                                025.0 21:35:45:05 
*FROM CLIP NAME:  A070C001_190812_R32C 
*SOURCE FILE: MSMMMOB.33
011862  19Y08M12                         A     C        21:35:45:06 21:35:46:21 02:05:39:06 02:05:40:21 
*FROM CLIP NAME:  86BK5/02.SYNC.01 
*SOURCE FILE: 19Y08M12
011863  19Y08M12                         A2    C        21:35:45:06 21:35:46:21 02:05:39:06 02:05:40:21 
*FROM CLIP NAME:  86BK5/02.SYNC.01 
*SOURCE FILE: 19Y08M12
011864  19Y08M12                         A3    C        21:35:45:06 21:35:46:21 02:05:39:06 02:05:40:21 
*FROM CLIP NAME:  86BK5/02.SYNC.01 
*PATCH 19Y08M12:  FROM SOURCE 7 TO RECORD 3 
*SOURCE FILE: 19Y08M12
011865  19Y08M12                         A4    C        21:35:45:06 21:35:46:21 02:05:39:06 02:05:40:21 
*FROM CLIP NAME:  86BK5/02.SYNC.01 
*PATCH 19Y08M12:  FROM SOURCE 8 TO RECORD 4 
*SOURCE FILE: 19Y08M12
011866  19Y08M12                         A     C        21:35:46:21 21:35:46:21 02:05:40:21 02:05:40:21 
011866  19Y08M12                         A     D    005 21:10:23:22 21:10:24:02 02:05:40:21 02:05:41:01 
*FROM CLIP NAME:  86BK5/02.SYNC.01 
*TO CLIP NAME:  86BK3/01.SYNC.01 
*SOURCE FILE: 19Y08M12
011867  19Y08M12                         A2    C        21:35:46:21 21:35:46:21 02:05:40:21 02:05:40:21 
011867  19Y08M12                         A2    D    005 21:10:23:22 21:10:24:02 02:05:40:21 02:05:41:01 
*FROM CLIP NAME:  86BK5/02.SYNC.01 
*TO CLIP NAME:  86BK3/01.SYNC.01 
*SOURCE FILE: 19Y08M12
011868  19Y08M12                         A3    C        21:35:46:21 21:35:46:21 02:05:40:21 02:05:40:21 
011868  19Y08M12                         A3    D    005 21:10:23:22 21:10:24:02 02:05:40:21 02:05:41:01 
*FROM CLIP NAME:  86BK5/02.SYNC.01 
*TO CLIP NAME:  86BK3/01.SYNC.01 
*PATCH 19Y08M12:  FROM SOURCE 7 TO RECORD 3 
*PATCH 19Y08M12:  FROM SOURCE 7 TO RECORD 3 
*SOURCE FILE: 19Y08M12
011869  19Y08M12                         A4    C        21:35:46:21 21:35:46:21 02:05:40:21 02:05:40:21 
011869  19Y08M12                         A4    D    005 21:10:23:22 21:10:24:02 02:05:40:21 02:05:41:01 
*FROM CLIP NAME:  86BK5/02.SYNC.01 
*TO CLIP NAME:  86BK3/01.SYNC.01 
*PATCH 19Y08M12:  FROM SOURCE 8 TO RECORD 4 
*PATCH 19Y08M12:  FROM SOURCE 8 TO RECORD 4 
*SOURCE FILE: 19Y08M12
011870  MSMMMOB.46                       V     C        21:10:24:01 21:10:32:22 02:05:40:23 02:05:49:19 
M2      MSMMMOB.46                                025.0 21:10:24:01 
*FROM CLIP NAME:  A069C001_190812_R32C 
*SOURCE FILE: MSMMMOB.46
011871  19Y08M12                         A     C        21:10:24:02 21:10:33:10 02:05:41:01 02:05:50:09 
*FROM CLIP NAME:  86BK3/01.SYNC.01 
*SOURCE FILE: 19Y08M12
011872  19Y08M12                         A2    C        21:10:24:02 21:10:33:10 02:05:41:01 02:05:50:09 
*FROM CLIP NAME:  86BK3/01.SYNC.01 
*SOURCE FILE: 19Y08M12
011873  19Y08M12                         A3    C        21:10:24:02 21:10:33:10 02:05:41:01 02:05:50:09 
*FROM CLIP NAME:  86BK3/01.SYNC.01 
*PATCH 19Y08M12:  FROM SOURCE 7 TO RECORD 3 
*SOURCE FILE: 19Y08M12
011874  19Y08M12                         A4    C        21:10:24:02 21:10:33:10 02:05:41:01 02:05:50:09 
*FROM CLIP NAME:  86BK3/01.SYNC.01 
*PATCH 19Y08M12:  FROM SOURCE 8 TO RECORD 4 
*SOURCE FILE: 19Y08M12
011875  MSMMMOB.33                       V     C        21:35:58:11 21:36:13:18 02:05:49:19 02:06:05:01 
M2      MSMMMOB.33                                025.0 21:35:58:11 
*FROM CLIP NAME:  A070C001_190812_R32C 
*SOURCE FILE: MSMMMOB.33
011876  19Y08M12                         A     C        21:35:58:24 21:36:13:00 02:05:50:09 02:06:04:10 
*FROM CLIP NAME:  86BK5/02.SYNC.01 
*SOURCE FILE: 19Y08M12
011877  19Y08M12                         A2    C        21:35:58:24 21:36:13:00 02:05:50:09 02:06:04:10 
*FROM CLIP NAME:  86BK5/02.SYNC.01 
*SOURCE FILE: 19Y08M12
011878  19Y08M12                         A3    C        21:35:58:24 21:36:13:00 02:05:50:09 02:06:04:10 
*FROM CLIP NAME:  86BK5/02.SYNC.01 
*PATCH 19Y08M12:  FROM SOURCE 7 TO RECORD 3 
*SOURCE FILE: 19Y08M12
011879  19Y08M12                         A4    C        21:35:58:24 21:36:13:00 02:05:50:09 02:06:04:10 
*FROM CLIP NAME:  86BK5/02.SYNC.01 
*PATCH 19Y08M12:  FROM SOURCE 8 TO RECORD 4 
*SOURCE FILE: 19Y08M12
011880  19Y08M12                         A     C        21:10:49:04 21:10:53:24 02:06:04:10 02:06:09:05 
*FROM CLIP NAME:  86BK3/01.SYNC.01 
*SOURCE FILE: 19Y08M12
011881  19Y08M12                         A2    C        21:10:49:04 21:10:53:24 02:06:04:10 02:06:09:05 
*FROM CLIP NAME:  86BK3/01.SYNC.01 
*SOURCE FILE: 19Y08M12
011882  19Y08M12                         A3    C        21:10:49:04 21:10:53:24 02:06:04:10 02:06:09:05 
*FROM CLIP NAME:  86BK3/01.SYNC.01 
*PATCH 19Y08M12:  FROM SOURCE 7 TO RECORD 3 
*SOURCE FILE: 19Y08M12
011883  19Y08M12                         A4    C        21:10:49:04 21:10:53:24 02:06:04:10 02:06:09:05 
*FROM CLIP NAME:  86BK3/01.SYNC.01 
*PATCH 19Y08M12:  FROM SOURCE 8 TO RECORD 4 
*SOURCE FILE: 19Y08M12
011884  MSMMMOB.46                       V     C        21:10:49:22 21:10:53:17 02:06:05:01 02:06:08:21 
M2      MSMMMOB.46                                025.0 21:10:49:22 
*FROM CLIP NAME:  A069C001_190812_R32C 
*SOURCE FILE: MSMMMOB.46
011885  MSMMMOB.47                       V     C        21:31:14:11 21:31:20:05 02:06:08:21 02:06:14:15 
M2      MSMMMOB.47                                025.0 21:31:14:11 
*FROM CLIP NAME:  A069C003_190812_R32C 
*SOURCE FILE: MSMMMOB.47
011886  19Y08M12                         A     C        21:10:53:24 21:10:53:24 02:06:09:05 02:06:09:05 
011886  19Y08M12                         A     D    002 21:31:14:18 21:31:14:20 02:06:09:05 02:06:09:07 
*FROM CLIP NAME:  86BK3/01.SYNC.01 
*TO CLIP NAME:  86BK5/01.SYNC.01 
*PATCH 19Y08M12:  FROM SOURCE 7 TO RECORD 1 
*SOURCE FILE: 19Y08M12
011887  19Y08M12                         A2    C        21:10:53:24 21:10:53:24 02:06:09:05 02:06:09:05 
011887  19Y08M12                         A2    D    002 21:31:14:18 21:31:14:20 02:06:09:05 02:06:09:07 
*FROM CLIP NAME:  86BK3/01.SYNC.01 
*TO CLIP NAME:  86BK5/01.SYNC.01 
*SOURCE FILE: 19Y08M12
011888  19Y08M12                         A3    C        21:10:53:24 21:10:53:24 02:06:09:05 02:06:09:05 
011888  19Y08M12                         A3    D    002 21:31:14:18 21:31:14:20 02:06:09:05 02:06:09:07 
*FROM CLIP NAME:  86BK3/01.SYNC.01 
*TO CLIP NAME:  86BK5/01.SYNC.01 
*PATCH 19Y08M12:  FROM SOURCE 7 TO RECORD 3 
*PATCH 19Y08M12:  FROM SOURCE 1 TO RECORD 3 
*SOURCE FILE: 19Y08M12
011889  19Y08M12                         A4    C        21:10:53:24 21:10:53:24 02:06:09:05 02:06:09:05 
011889  19Y08M12                         A4    D    002 21:31:14:18 21:31:14:20 02:06:09:05 02:06:09:07 
*FROM CLIP NAME:  86BK3/01.SYNC.01 
*TO CLIP NAME:  86BK5/01.SYNC.01 
*PATCH 19Y08M12:  FROM SOURCE 8 TO RECORD 4 
*PATCH 19Y08M12:  FROM SOURCE 8 TO RECORD 4 
*SOURCE FILE: 19Y08M12
011890  19Y08M12                         A     C        21:31:14:20 21:31:20:05 02:06:09:07 02:06:14:17 
*FROM CLIP NAME:  86BK5/01.SYNC.01 
*PATCH 19Y08M12:  FROM SOURCE 7 TO RECORD 1 
*SOURCE FILE: 19Y08M12
011891  19Y08M12                         A2    C        21:31:14:20 21:31:20:05 02:06:09:07 02:06:14:17 
*FROM CLIP NAME:  86BK5/01.SYNC.01 
*SOURCE FILE: 19Y08M12
011892  19Y08M12                         A3    C        21:31:14:20 21:31:20:05 02:06:09:07 02:06:14:17 
*FROM CLIP NAME:  86BK5/01.SYNC.01 
*PATCH 19Y08M12:  FROM SOURCE 1 TO RECORD 3 
*SOURCE FILE: 19Y08M12
011893  19Y08M12                         A4    C        21:31:14:20 21:31:20:05 02:06:09:07 02:06:14:17 
*FROM CLIP NAME:  86BK5/01.SYNC.01 
*PATCH 19Y08M12:  FROM SOURCE 8 TO RECORD 4 
*SOURCE FILE: 19Y08M12
011894  MSMMMOB.46                       V     C        21:10:59:16 21:11:02:01 02:06:14:15 02:06:17:00 
M2      MSMMMOB.46                                025.0 21:10:59:16 
*FROM CLIP NAME:  A069C001_190812_R32C 
*SOURCE FILE: MSMMMOB.46
011895  19Y08M12                         A     C        21:31:20:05 21:31:20:05 02:06:14:17 02:06:14:17 
011895  19Y08M12                         A     D    002 21:10:59:16 21:10:59:18 02:06:14:17 02:06:14:19 
*FROM CLIP NAME:  86BK5/01.SYNC.01 
*TO CLIP NAME:  86BK3/01.SYNC.01 
*PATCH 19Y08M12:  FROM SOURCE 7 TO RECORD 1 
*SOURCE FILE: 19Y08M12
011896  19Y08M12                         A2    C        21:31:20:05 21:31:20:05 02:06:14:17 02:06:14:17 
011896  19Y08M12                         A2    D    002 21:10:59:16 21:10:59:18 02:06:14:17 02:06:14:19 
*FROM CLIP NAME:  86BK5/01.SYNC.01 
*TO CLIP NAME:  86BK3/01.SYNC.01 
*SOURCE FILE: 19Y08M12
011897  19Y08M12                         A3    C        21:31:20:05 21:31:20:05 02:06:14:17 02:06:14:17 
011897  19Y08M12                         A3    D    002 21:10:59:16 21:10:59:18 02:06:14:17 02:06:14:19 
*FROM CLIP NAME:  86BK5/01.SYNC.01 
*TO CLIP NAME:  86BK3/01.SYNC.01 
*PATCH 19Y08M12:  FROM SOURCE 1 TO RECORD 3 
*PATCH 19Y08M12:  FROM SOURCE 7 TO RECORD 3 
*SOURCE FILE: 19Y08M12
011898  19Y08M12                         A4    C        21:31:20:05 21:31:20:05 02:06:14:17 02:06:14:17 
011898  19Y08M12                         A4    D    002 21:10:59:16 21:10:59:18 02:06:14:17 02:06:14:19 
*FROM CLIP NAME:  86BK5/01.SYNC.01 
*TO CLIP NAME:  86BK3/01.SYNC.01 
*PATCH 19Y08M12:  FROM SOURCE 8 TO RECORD 4 
*PATCH 19Y08M12:  FROM SOURCE 8 TO RECORD 4 
*SOURCE FILE: 19Y08M12
011899  19Y08M12                         A     C        21:10:59:18 21:11:02:00 02:06:14:19 02:06:17:01 
*FROM CLIP NAME:  86BK3/01.SYNC.01 
*SOURCE FILE: 19Y08M12
011900  19Y08M12                         A2    C        21:10:59:18 21:11:02:00 02:06:14:19 02:06:17:01 
*FROM CLIP NAME:  86BK3/01.SYNC.01 
*SOURCE FILE: 19Y08M12
011901  19Y08M12                         A3    C        21:10:59:18 21:11:02:00 02:06:14:19 02:06:17:01 
*FROM CLIP NAME:  86BK3/01.SYNC.01 
*PATCH 19Y08M12:  FROM SOURCE 7 TO RECORD 3 
*SOURCE FILE: 19Y08M12
011902  19Y08M12                         A4    C        21:10:59:18 21:11:02:00 02:06:14:19 02:06:17:01 
*FROM CLIP NAME:  86BK3/01.SYNC.01 
*PATCH 19Y08M12:  FROM SOURCE 8 TO RECORD 4 
*SOURCE FILE: 19Y08M12
011903  MSMMMOB.34                       V     C        21:54:25:09 21:54:30:18 02:06:17:00 02:06:22:09 
M2      MSMMMOB.34                                025.0 21:54:25:09 
*FROM CLIP NAME:  A070C003_190812_R32C 
*SOURCE FILE: MSMMMOB.34
011904  19Y08M12                         A     C        21:11:02:00 21:11:02:00 02:06:17:01 02:06:17:01 
011904  19Y08M12                         A     D    002 21:54:25:08 21:54:25:10 02:06:17:01 02:06:17:03 
*FROM CLIP NAME:  86BK3/01.SYNC.01 
*TO CLIP NAME:  86BK6/02.SYNC.01 
*SOURCE FILE: 19Y08M12
011905  19Y08M12                         A2    C        21:11:02:00 21:11:02:00 02:06:17:01 02:06:17:01 
011905  19Y08M12                         A2    D    002 21:54:25:08 21:54:25:10 02:06:17:01 02:06:17:03 
*FROM CLIP NAME:  86BK3/01.SYNC.01 
*TO CLIP NAME:  86BK6/02.SYNC.01 
*SOURCE FILE: 19Y08M12
011906  19Y08M12                         A3    C        21:11:02:00 21:11:02:00 02:06:17:01 02:06:17:01 
011906  19Y08M12                         A3    D    002 21:54:25:08 21:54:25:10 02:06:17:01 02:06:17:03 
*FROM CLIP NAME:  86BK3/01.SYNC.01 
*TO CLIP NAME:  86BK6/02.SYNC.01 
*PATCH 19Y08M12:  FROM SOURCE 7 TO RECORD 3 
*PATCH 19Y08M12:  FROM SOURCE 7 TO RECORD 3 
*SOURCE FILE: 19Y08M12
011907  19Y08M12                         A4    C        21:11:02:00 21:11:02:00 02:06:17:01 02:06:17:01 
011907  19Y08M12                         A4    D    002 21:54:25:08 21:54:25:10 02:06:17:01 02:06:17:03 
*FROM CLIP NAME:  86BK3/01.SYNC.01 
*TO CLIP NAME:  86BK6/02.SYNC.01 
*PATCH 19Y08M12:  FROM SOURCE 8 TO RECORD 4 
*PATCH 19Y08M12:  FROM SOURCE 8 TO RECORD 4 
*SOURCE FILE: 19Y08M12
011908  19Y08M12                         A     C        21:54:25:10 21:54:31:11 02:06:17:03 02:06:23:04 
*FROM CLIP NAME:  86BK6/02.SYNC.01 
*SOURCE FILE: 19Y08M12
011909  19Y08M12                         A2    C        21:54:25:10 21:54:31:11 02:06:17:03 02:06:23:04 
*FROM CLIP NAME:  86BK6/02.SYNC.01 
*SOURCE FILE: 19Y08M12
011910  19Y08M12                         A3    C        21:54:25:10 21:54:31:11 02:06:17:03 02:06:23:04 
*FROM CLIP NAME:  86BK6/02.SYNC.01 
*PATCH 19Y08M12:  FROM SOURCE 7 TO RECORD 3 
*SOURCE FILE: 19Y08M12
011911  19Y08M12                         A4    C        21:54:25:10 21:54:31:11 02:06:17:03 02:06:23:04 
*FROM CLIP NAME:  86BK6/02.SYNC.01 
*PATCH 19Y08M12:  FROM SOURCE 8 TO RECORD 4 
*SOURCE FILE: 19Y08M12
011912  MSMMMOB.11                       V     C        21:20:35:20 21:20:41:09 02:06:22:09 02:06:27:23 
M2      MSMMMOB.11                                025.0 21:20:35:20 
*FROM CLIP NAME:  A069C002_190812_R32C 
*SOURCE FILE: MSMMMOB.11
011913  19Y08M12                         A     C        21:54:31:11 21:54:31:11 02:06:23:04 02:06:23:04 
011913  19Y08M12                         A     D    005 21:11:10:15 21:11:10:20 02:06:23:04 02:06:23:09 
*FROM CLIP NAME:  86BK6/02.SYNC.01 
*TO CLIP NAME:  86BK3/01.SYNC.01 
*SOURCE FILE: 19Y08M12
011914  19Y08M12                         A2    C        21:54:31:11 21:54:31:11 02:06:23:04 02:06:23:04 
011914  19Y08M12                         A2    D    005 21:11:10:15 21:11:10:20 02:06:23:04 02:06:23:09 
*FROM CLIP NAME:  86BK6/02.SYNC.01 
*TO CLIP NAME:  86BK3/01.SYNC.01 
*SOURCE FILE: 19Y08M12
011915  19Y08M12                         A3    C        21:54:31:11 21:54:31:11 02:06:23:04 02:06:23:04 
011915  19Y08M12                         A3    D    005 21:11:10:15 21:11:10:20 02:06:23:04 02:06:23:09 
*FROM CLIP NAME:  86BK6/02.SYNC.01 
*TO CLIP NAME:  86BK3/01.SYNC.01 
*PATCH 19Y08M12:  FROM SOURCE 7 TO RECORD 3 
*PATCH 19Y08M12:  FROM SOURCE 7 TO RECORD 3 
*SOURCE FILE: 19Y08M12
011916  19Y08M12                         A4    C        21:54:31:11 21:54:31:11 02:06:23:04 02:06:23:04 
011916  19Y08M12                         A4    D    005 21:11:10:15 21:11:10:20 02:06:23:04 02:06:23:09 
*FROM CLIP NAME:  86BK6/02.SYNC.01 
*TO CLIP NAME:  86BK3/01.SYNC.01 
*PATCH 19Y08M12:  FROM SOURCE 8 TO RECORD 4 
*PATCH 19Y08M12:  FROM SOURCE 8 TO RECORD 4 
*SOURCE FILE: 19Y08M12
011917  19Y08M12                         A     C        21:11:10:20 21:11:25:18 02:06:23:09 02:06:38:07 
*FROM CLIP NAME:  86BK3/01.SYNC.01 
*SOURCE FILE: 19Y08M12
011918  19Y08M12                         A2    C        21:11:10:20 21:11:25:18 02:06:23:09 02:06:38:07 
*FROM CLIP NAME:  86BK3/01.SYNC.01 
*SOURCE FILE: 19Y08M12
011919  19Y08M12                         A3    C        21:11:10:20 21:11:25:18 02:06:23:09 02:06:38:07 
*FROM CLIP NAME:  86BK3/01.SYNC.01 
*PATCH 19Y08M12:  FROM SOURCE 7 TO RECORD 3 
*SOURCE FILE: 19Y08M12
011920  19Y08M12                         A4    C        21:11:10:20 21:11:25:18 02:06:23:09 02:06:38:07 
*FROM CLIP NAME:  86BK3/01.SYNC.01 
*PATCH 19Y08M12:  FROM SOURCE 8 TO RECORD 4 
*SOURCE FILE: 19Y08M12
011921  MSMMMOB.46                       V     C        21:11:15:11 21:11:17:18 02:06:27:23 02:06:30:05 
M2      MSMMMOB.46                                025.0 21:11:15:11 
*FROM CLIP NAME:  A069C001_190812_R32C 
*SOURCE FILE: MSMMMOB.46
011922  MSMMMOB.34                       V     C        21:54:32:15 21:54:35:23 02:06:30:05 02:06:33:13 
M2      MSMMMOB.34                                025.0 21:54:32:15 
*FROM CLIP NAME:  A070C003_190812_R32C 
*SOURCE FILE: MSMMMOB.34
011923  MSMMMOB.46                       V     C        21:11:21:01 21:11:25:22 02:06:33:13 02:06:38:09 
M2      MSMMMOB.46                                025.0 21:11:21:01 
*FROM CLIP NAME:  A069C001_190812_R32C 
*SOURCE FILE: MSMMMOB.46
011924  19Y08M12                         A     C        21:11:25:18 21:11:25:18 02:06:38:07 02:06:38:07 
011924  19Y08M12                         A     D    005 21:54:47:16 21:54:47:21 02:06:38:07 02:06:38:12 
*FROM CLIP NAME:  86BK3/01.SYNC.01 
*TO CLIP NAME:  86BK6/02.SYNC.01 
*SOURCE FILE: 19Y08M12
011925  19Y08M12                         A2    C        21:11:25:18 21:11:25:18 02:06:38:07 02:06:38:07 
011925  19Y08M12                         A2    D    005 21:54:47:16 21:54:47:21 02:06:38:07 02:06:38:12 
*FROM CLIP NAME:  86BK3/01.SYNC.01 
*TO CLIP NAME:  86BK6/02.SYNC.01 
*SOURCE FILE: 19Y08M12
011926  19Y08M12                         A3    C        21:11:25:18 21:11:25:18 02:06:38:07 02:06:38:07 
011926  19Y08M12                         A3    D    005 21:54:47:16 21:54:47:21 02:06:38:07 02:06:38:12 
*FROM CLIP NAME:  86BK3/01.SYNC.01 
*TO CLIP NAME:  86BK6/02.SYNC.01 
*PATCH 19Y08M12:  FROM SOURCE 7 TO RECORD 3 
*PATCH 19Y08M12:  FROM SOURCE 7 TO RECORD 3 
*SOURCE FILE: 19Y08M12
011927  19Y08M12                         A4    C        21:11:25:18 21:11:25:18 02:06:38:07 02:06:38:07 
011927  19Y08M12                         A4    D    005 21:54:47:16 21:54:47:21 02:06:38:07 02:06:38:12 
*FROM CLIP NAME:  86BK3/01.SYNC.01 
*TO CLIP NAME:  86BK6/02.SYNC.01 
*PATCH 19Y08M12:  FROM SOURCE 8 TO RECORD 4 
*PATCH 19Y08M12:  FROM SOURCE 8 TO RECORD 4 
*SOURCE FILE: 19Y08M12
011928  MSMMMOB.34                       V     C        21:54:47:20 21:54:53:13 02:06:38:09 02:06:44:02 
M2      MSMMMOB.34                                025.0 21:54:47:20 
*FROM CLIP NAME:  A070C003_190812_R32C 
*SOURCE FILE: MSMMMOB.34
011929  19Y08M12                         A     C        21:54:47:21 21:54:53:21 02:06:38:12 02:06:44:12 
*FROM CLIP NAME:  86BK6/02.SYNC.01 
*SOURCE FILE: 19Y08M12
011930  19Y08M12                         A2    C        21:54:47:21 21:54:53:21 02:06:38:12 02:06:44:12 
*FROM CLIP NAME:  86BK6/02.SYNC.01 
*SOURCE FILE: 19Y08M12
011931  19Y08M12                         A3    C        21:54:47:21 21:54:53:21 02:06:38:12 02:06:44:12 
*FROM CLIP NAME:  86BK6/02.SYNC.01 
*PATCH 19Y08M12:  FROM SOURCE 7 TO RECORD 3 
*SOURCE FILE: 19Y08M12
011932  19Y08M12                         A4    C        21:54:47:21 21:54:53:21 02:06:38:12 02:06:44:12 
*FROM CLIP NAME:  86BK6/02.SYNC.01 
*PATCH 19Y08M12:  FROM SOURCE 8 TO RECORD 4 
*SOURCE FILE: 19Y08M12
011933  MSMMMOB.52                       V     C        20:58:55:02 20:58:58:16 02:06:44:02 02:06:47:16 
M2      MSMMMOB.52                                025.0 20:58:55:02 
*FROM CLIP NAME:  A068C006_190812_R32C 
*SOURCE FILE: MSMMMOB.52
011934  19Y08M12                         A     C        20:58:55:10 20:58:58:14 02:06:44:12 02:06:47:16 
*FROM CLIP NAME:  86BK2/02.SYNC.01 
*SOURCE FILE: 19Y08M12
011935  19Y08M12                         A2    C        20:58:55:10 20:58:58:14 02:06:44:12 02:06:47:16 
*FROM CLIP NAME:  86BK2/02.SYNC.01 
*SOURCE FILE: 19Y08M12
011936  19Y08M12                         A3    C        20:58:55:10 20:58:58:14 02:06:44:12 02:06:47:16 
*FROM CLIP NAME:  86BK2/02.SYNC.01 
*PATCH 19Y08M12:  FROM SOURCE 7 TO RECORD 3 
*SOURCE FILE: 19Y08M12
011937  19Y08M12                         A4    C        20:58:55:10 20:58:58:14 02:06:44:12 02:06:47:16 
*FROM CLIP NAME:  86BK2/02.SYNC.01 
*PATCH 19Y08M12:  FROM SOURCE 8 TO RECORD 4 
*SOURCE FILE: 19Y08M12
011938  19Y08M12                         A     C        21:36:53:14 21:36:57:13 02:06:47:16 02:06:51:15 
*FROM CLIP NAME:  86BK5/02.SYNC.01 
*SOURCE FILE: 19Y08M12
011939  19Y08M12                         A2    C        21:36:53:14 21:36:57:13 02:06:47:16 02:06:51:15 
*FROM CLIP NAME:  86BK5/02.SYNC.01 
*SOURCE FILE: 19Y08M12
011940  19Y08M12                         A3    C        21:36:53:14 21:36:57:13 02:06:47:16 02:06:51:15 
*FROM CLIP NAME:  86BK5/02.SYNC.01 
*PATCH 19Y08M12:  FROM SOURCE 7 TO RECORD 3 
*SOURCE FILE: 19Y08M12
011941  19Y08M12                         A4    C        21:36:53:14 21:36:57:13 02:06:47:16 02:06:51:15 
*FROM CLIP NAME:  86BK5/02.SYNC.01 
*PATCH 19Y08M12:  FROM SOURCE 8 TO RECORD 4 
*SOURCE FILE: 19Y08M12
011942  MSMMMOB.34                       V     C        21:54:57:18 21:55:03:20 02:06:47:16 02:06:53:18 
M2      MSMMMOB.34                                025.0 21:54:57:18 
*FROM CLIP NAME:  A070C003_190812_R32C 
*SOURCE FILE: MSMMMOB.34
011943  19Y08M12                         A     C        21:36:57:13 21:36:57:13 02:06:51:15 02:06:51:15 
011943  19Y08M12                         A     D    002 21:11:36:08 21:11:36:10 02:06:51:15 02:06:51:17 
*FROM CLIP NAME:  86BK5/02.SYNC.01 
*TO CLIP NAME:  86BK3/01.SYNC.01 
*SOURCE FILE: 19Y08M12
011944  19Y08M12                         A2    C        21:36:57:13 21:36:57:13 02:06:51:15 02:06:51:15 
011944  19Y08M12                         A2    D    002 21:11:36:08 21:11:36:10 02:06:51:15 02:06:51:17 
*FROM CLIP NAME:  86BK5/02.SYNC.01 
*TO CLIP NAME:  86BK3/01.SYNC.01 
*SOURCE FILE: 19Y08M12
011945  19Y08M12                         A3    C        21:36:57:13 21:36:57:13 02:06:51:15 02:06:51:15 
011945  19Y08M12                         A3    D    002 21:11:36:08 21:11:36:10 02:06:51:15 02:06:51:17 
*FROM CLIP NAME:  86BK5/02.SYNC.01 
*TO CLIP NAME:  86BK3/01.SYNC.01 
*PATCH 19Y08M12:  FROM SOURCE 7 TO RECORD 3 
*PATCH 19Y08M12:  FROM SOURCE 7 TO RECORD 3 
*SOURCE FILE: 19Y08M12
011946  19Y08M12                         A4    C        21:36:57:13 21:36:57:13 02:06:51:15 02:06:51:15 
011946  19Y08M12                         A4    D    002 21:11:36:08 21:11:36:10 02:06:51:15 02:06:51:17 
*FROM CLIP NAME:  86BK5/02.SYNC.01 
*TO CLIP NAME:  86BK3/01.SYNC.01 
*PATCH 19Y08M12:  FROM SOURCE 8 TO RECORD 4 
*PATCH 19Y08M12:  FROM SOURCE 8 TO RECORD 4 
*SOURCE FILE: 19Y08M12
011947  19Y08M12                         A     C        21:11:36:10 21:11:40:05 02:06:51:17 02:06:55:12 
*FROM CLIP NAME:  86BK3/01.SYNC.01 
*SOURCE FILE: 19Y08M12
011948  19Y08M12                         A2    C        21:11:36:10 21:11:40:05 02:06:51:17 02:06:55:12 
*FROM CLIP NAME:  86BK3/01.SYNC.01 
*SOURCE FILE: 19Y08M12
011949  19Y08M12                         A3    C        21:11:36:10 21:11:40:05 02:06:51:17 02:06:55:12 
*FROM CLIP NAME:  86BK3/01.SYNC.01 
*PATCH 19Y08M12:  FROM SOURCE 7 TO RECORD 3 
*SOURCE FILE: 19Y08M12
011950  19Y08M12                         A4    C        21:11:36:10 21:11:40:05 02:06:51:17 02:06:55:12 
*FROM CLIP NAME:  86BK3/01.SYNC.01 
*PATCH 19Y08M12:  FROM SOURCE 8 TO RECORD 4 
*SOURCE FILE: 19Y08M12
011951  MSMMMOB.11                       V     C        21:20:55:15 21:20:59:02 02:06:53:18 02:06:57:05 
M2      MSMMMOB.11                                025.0 21:20:55:15 
*FROM CLIP NAME:  A069C002_190812_R32C 
*SOURCE FILE: MSMMMOB.11
011952  19Y08M12                         A     C        21:11:40:05 21:11:40:05 02:06:55:12 02:06:55:12 
011952  19Y08M12                         A     D    002 20:59:02:19 20:59:02:21 02:06:55:12 02:06:55:14 
*FROM CLIP NAME:  86BK3/01.SYNC.01 
*TO CLIP NAME:  86BK2/02.SYNC.01 
*SOURCE FILE: 19Y08M12
011953  19Y08M12                         A2    C        21:11:40:05 21:11:40:05 02:06:55:12 02:06:55:12 
011953  19Y08M12                         A2    D    002 20:59:02:19 20:59:02:21 02:06:55:12 02:06:55:14 
*FROM CLIP NAME:  86BK3/01.SYNC.01 
*TO CLIP NAME:  86BK2/02.SYNC.01 
*SOURCE FILE: 19Y08M12
011954  19Y08M12                         A3    C        21:11:40:05 21:11:40:05 02:06:55:12 02:06:55:12 
011954  19Y08M12                         A3    D    002 20:59:02:19 20:59:02:21 02:06:55:12 02:06:55:14 
*FROM CLIP NAME:  86BK3/01.SYNC.01 
*TO CLIP NAME:  86BK2/02.SYNC.01 
*PATCH 19Y08M12:  FROM SOURCE 7 TO RECORD 3 
*PATCH 19Y08M12:  FROM SOURCE 7 TO RECORD 3 
*SOURCE FILE: 19Y08M12
011955  19Y08M12                         A4    C        21:11:40:05 21:11:40:05 02:06:55:12 02:06:55:12 
011955  19Y08M12                         A4    D    002 20:59:02:19 20:59:02:21 02:06:55:12 02:06:55:14 
*FROM CLIP NAME:  86BK3/01.SYNC.01 
*TO CLIP NAME:  86BK2/02.SYNC.01 
*PATCH 19Y08M12:  FROM SOURCE 8 TO RECORD 4 
*PATCH 19Y08M12:  FROM SOURCE 8 TO RECORD 4 
*SOURCE FILE: 19Y08M12
011956  19Y08M12                         A     C        20:59:02:21 20:59:08:06 02:06:55:14 02:07:00:24 
*FROM CLIP NAME:  86BK2/02.SYNC.01 
*SOURCE FILE: 19Y08M12
011957  19Y08M12                         A2    C        20:59:02:21 20:59:08:06 02:06:55:14 02:07:00:24 
*FROM CLIP NAME:  86BK2/02.SYNC.01 
*SOURCE FILE: 19Y08M12
011958  19Y08M12                         A3    C        20:59:02:21 20:59:08:06 02:06:55:14 02:07:00:24 
*FROM CLIP NAME:  86BK2/02.SYNC.01 
*PATCH 19Y08M12:  FROM SOURCE 7 TO RECORD 3 
*SOURCE FILE: 19Y08M12
011959  19Y08M12                         A4    C        20:59:02:21 20:59:08:06 02:06:55:14 02:07:00:24 
*FROM CLIP NAME:  86BK2/02.SYNC.01 
*PATCH 19Y08M12:  FROM SOURCE 8 TO RECORD 4 
*SOURCE FILE: 19Y08M12
011960  MSMMMOB.52                       V     C        20:59:04:14 20:59:07:16 02:06:57:05 02:07:00:07 
M2      MSMMMOB.52                                025.0 20:59:04:14 
*FROM CLIP NAME:  A068C006_190812_R32C 
*SOURCE FILE: MSMMMOB.52
011961  MSMMMOB.34                       V     C        21:55:11:00 21:55:13:02 02:07:00:07 02:07:02:09 
M2      MSMMMOB.34                                025.0 21:55:11:00 
*FROM CLIP NAME:  A070C003_190812_R32C 
*SOURCE FILE: MSMMMOB.34
011962  19Y08M12                         A     C        21:55:11:15 21:55:12:22 02:07:00:24 02:07:02:06 
*FROM CLIP NAME:  86BK6/02.SYNC.01 
*SOURCE FILE: 19Y08M12
011963  19Y08M12                         A2    C        21:55:11:15 21:55:12:22 02:07:00:24 02:07:02:06 
*FROM CLIP NAME:  86BK6/02.SYNC.01 
*SOURCE FILE: 19Y08M12
011964  19Y08M12                         A3    C        21:55:11:15 21:55:12:22 02:07:00:24 02:07:02:06 
*FROM CLIP NAME:  86BK6/02.SYNC.01 
*PATCH 19Y08M12:  FROM SOURCE 7 TO RECORD 3 
*SOURCE FILE: 19Y08M12
011965  19Y08M12                         A4    C        21:55:11:15 21:55:12:22 02:07:00:24 02:07:02:06 
*FROM CLIP NAME:  86BK6/02.SYNC.01 
*PATCH 19Y08M12:  FROM SOURCE 8 TO RECORD 4 
*SOURCE FILE: 19Y08M12
011966  19Y08M12                         A     C        21:55:12:22 21:55:12:22 02:07:02:06 02:07:02:06 
011966  19Y08M12                         A     D    002 20:59:10:15 20:59:10:17 02:07:02:06 02:07:02:08 
*FROM CLIP NAME:  86BK6/02.SYNC.01 
*TO CLIP NAME:  86BK2/02.SYNC.01 
*SOURCE FILE: 19Y08M12
011967  19Y08M12                         A2    C        21:55:12:22 21:55:12:22 02:07:02:06 02:07:02:06 
011967  19Y08M12                         A2    D    002 20:59:10:15 20:59:10:17 02:07:02:06 02:07:02:08 
*FROM CLIP NAME:  86BK6/02.SYNC.01 
*TO CLIP NAME:  86BK2/02.SYNC.01 
*SOURCE FILE: 19Y08M12
011968  19Y08M12                         A3    C        21:55:12:22 21:55:12:22 02:07:02:06 02:07:02:06 
011968  19Y08M12                         A3    D    002 20:59:10:15 20:59:10:17 02:07:02:06 02:07:02:08 
*FROM CLIP NAME:  86BK6/02.SYNC.01 
*TO CLIP NAME:  86BK2/02.SYNC.01 
*PATCH 19Y08M12:  FROM SOURCE 7 TO RECORD 3 
*PATCH 19Y08M12:  FROM SOURCE 7 TO RECORD 3 
*SOURCE FILE: 19Y08M12
011969  19Y08M12                         A4    C        21:55:12:22 21:55:12:22 02:07:02:06 02:07:02:06 
011969  19Y08M12                         A4    D    002 20:59:10:15 20:59:10:17 02:07:02:06 02:07:02:08 
*FROM CLIP NAME:  86BK6/02.SYNC.01 
*TO CLIP NAME:  86BK2/02.SYNC.01 
*PATCH 19Y08M12:  FROM SOURCE 8 TO RECORD 4 
*PATCH 19Y08M12:  FROM SOURCE 8 TO RECORD 4 
*SOURCE FILE: 19Y08M12
011970  19Y08M12                         A     C        20:59:10:17 20:59:10:18 02:07:02:08 02:07:02:09 
*FROM CLIP NAME:  86BK2/02.SYNC.01 
*SOURCE FILE: 19Y08M12
011971  19Y08M12                         A2    C        20:59:10:17 20:59:10:18 02:07:02:08 02:07:02:09 
*FROM CLIP NAME:  86BK2/02.SYNC.01 
*SOURCE FILE: 19Y08M12
011972  19Y08M12                         A3    C        20:59:10:17 20:59:10:18 02:07:02:08 02:07:02:09 
*FROM CLIP NAME:  86BK2/02.SYNC.01 
*PATCH 19Y08M12:  FROM SOURCE 7 TO RECORD 3 
*SOURCE FILE: 19Y08M12
011973  19Y08M12                         A4    C        20:59:10:17 20:59:10:18 02:07:02:08 02:07:02:09 
*FROM CLIP NAME:  86BK2/02.SYNC.01 
*PATCH 19Y08M12:  FROM SOURCE 8 TO RECORD 4 
*SOURCE FILE: 19Y08M12
011974  19Y08M12                         A     C        20:59:09:03 20:59:14:03 02:07:02:09 02:07:07:09 
*FROM CLIP NAME:  86BK2/02.SYNC.01 
*SOURCE FILE: 19Y08M12
011975  19Y08M12                         A2    C        20:59:09:03 20:59:14:03 02:07:02:09 02:07:07:09 
*FROM CLIP NAME:  86BK2/02.SYNC.01 
*SOURCE FILE: 19Y08M12
011976  19Y08M12                         A3    C        20:59:09:03 20:59:14:03 02:07:02:09 02:07:07:09 
*FROM CLIP NAME:  86BK2/02.SYNC.01 
*PATCH 19Y08M12:  FROM SOURCE 7 TO RECORD 3 
*SOURCE FILE: 19Y08M12
011977  19Y08M12                         A4    C        20:59:09:03 20:59:14:03 02:07:02:09 02:07:07:09 
*FROM CLIP NAME:  86BK2/02.SYNC.01 
*PATCH 19Y08M12:  FROM SOURCE 8 TO RECORD 4 
*SOURCE FILE: 19Y08M12
011978  MSMMMOB.52                       V     C        20:59:09:05 20:59:14:07 02:07:02:09 02:07:07:11 
M2      MSMMMOB.52                                025.0 20:59:09:05 
*FROM CLIP NAME:  A068C006_190812_R32C 
*SOURCE FILE: MSMMMOB.52
011979  19Y08M12                         A     C        20:59:14:03 20:59:14:03 02:07:07:09 02:07:07:09 
011979  19Y08M12                         A     D    005 21:37:11:24 21:37:12:04 02:07:07:09 02:07:07:14 
*FROM CLIP NAME:  86BK2/02.SYNC.01 
*TO CLIP NAME:  86BK5/02.SYNC.01 
*SOURCE FILE: 19Y08M12
011980  19Y08M12                         A2    C        20:59:14:03 20:59:14:03 02:07:07:09 02:07:07:09 
011980  19Y08M12                         A2    D    005 21:37:11:24 21:37:12:04 02:07:07:09 02:07:07:14 
*FROM CLIP NAME:  86BK2/02.SYNC.01 
*TO CLIP NAME:  86BK5/02.SYNC.01 
*SOURCE FILE: 19Y08M12
011981  19Y08M12                         A3    C        20:59:14:03 20:59:14:03 02:07:07:09 02:07:07:09 
011981  19Y08M12                         A3    D    005 21:37:11:24 21:37:12:04 02:07:07:09 02:07:07:14 
*FROM CLIP NAME:  86BK2/02.SYNC.01 
*TO CLIP NAME:  86BK5/02.SYNC.01 
*PATCH 19Y08M12:  FROM SOURCE 7 TO RECORD 3 
*PATCH 19Y08M12:  FROM SOURCE 7 TO RECORD 3 
*SOURCE FILE: 19Y08M12
011982  19Y08M12                         A4    C        20:59:14:03 20:59:14:03 02:07:07:09 02:07:07:09 
011982  19Y08M12                         A4    D    005 21:37:11:24 21:37:12:04 02:07:07:09 02:07:07:14 
*FROM CLIP NAME:  86BK2/02.SYNC.01 
*TO CLIP NAME:  86BK5/02.SYNC.01 
*PATCH 19Y08M12:  FROM SOURCE 8 TO RECORD 4 
*PATCH 19Y08M12:  FROM SOURCE 8 TO RECORD 4 
*SOURCE FILE: 19Y08M12
011983  MSMMMOB.33                       V     C        21:37:12:03 21:37:13:09 02:07:07:11 02:07:08:17 
M2      MSMMMOB.33                                025.0 21:37:12:03 
*FROM CLIP NAME:  A070C001_190812_R32C 
*SOURCE FILE: MSMMMOB.33
011984  19Y08M12                         A     C        21:37:12:04 21:37:13:07 02:07:07:14 02:07:08:17 
*FROM CLIP NAME:  86BK5/02.SYNC.01 
*SOURCE FILE: 19Y08M12
011985  19Y08M12                         A2    C        21:37:12:04 21:37:13:07 02:07:07:14 02:07:08:17 
*FROM CLIP NAME:  86BK5/02.SYNC.01 
*SOURCE FILE: 19Y08M12
011986  19Y08M12                         A3    C        21:37:12:04 21:37:13:07 02:07:07:14 02:07:08:17 
*FROM CLIP NAME:  86BK5/02.SYNC.01 
*PATCH 19Y08M12:  FROM SOURCE 7 TO RECORD 3 
*SOURCE FILE: 19Y08M12
011987  19Y08M12                         A4    C        21:37:12:04 21:37:13:07 02:07:07:14 02:07:08:17 
*FROM CLIP NAME:  86BK5/02.SYNC.01 
*PATCH 19Y08M12:  FROM SOURCE 8 TO RECORD 4 
*SOURCE FILE: 19Y08M12
011988  MSMMMOB.52                       V     C        20:59:16:06 20:59:19:21 02:07:08:17 02:07:12:07 
M2      MSMMMOB.52                                025.0 20:59:16:06 
*FROM CLIP NAME:  A068C006_190812_R32C 
*SOURCE FILE: MSMMMOB.52
011989  19Y08M12                         A     C        20:59:16:04 20:59:19:21 02:07:08:17 02:07:12:09 
*FROM CLIP NAME:  86BK2/02.SYNC.01 
*SOURCE FILE: 19Y08M12
011990  19Y08M12                         A2    C        20:59:16:04 20:59:19:21 02:07:08:17 02:07:12:09 
*FROM CLIP NAME:  86BK2/02.SYNC.01 
*SOURCE FILE: 19Y08M12
011991  19Y08M12                         A3    C        20:59:16:04 20:59:19:21 02:07:08:17 02:07:12:09 
*FROM CLIP NAME:  86BK2/02.SYNC.01 
*PATCH 19Y08M12:  FROM SOURCE 7 TO RECORD 3 
*SOURCE FILE: 19Y08M12
011992  19Y08M12                         A4    C        20:59:16:04 20:59:19:21 02:07:08:17 02:07:12:09 
*FROM CLIP NAME:  86BK2/02.SYNC.01 
*PATCH 19Y08M12:  FROM SOURCE 8 TO RECORD 4 
*SOURCE FILE: 19Y08M12
011993  MSMMMOB.33                       V     C        21:37:18:09 21:37:20:22 02:07:12:07 02:07:14:20 
M2      MSMMMOB.33                                025.0 21:37:18:09 
*FROM CLIP NAME:  A070C001_190812_R32C 
*SOURCE FILE: MSMMMOB.33
011994  19Y08M12                         A     C        20:59:19:21 20:59:19:21 02:07:12:09 02:07:12:09 
011994  19Y08M12                         A     D    002 21:37:18:09 21:37:18:11 02:07:12:09 02:07:12:11 
*FROM CLIP NAME:  86BK2/02.SYNC.01 
*TO CLIP NAME:  86BK5/02.SYNC.01 
*SOURCE FILE: 19Y08M12
011995  19Y08M12                         A2    C        20:59:19:21 20:59:19:21 02:07:12:09 02:07:12:09 
011995  19Y08M12                         A2    D    002 21:37:18:09 21:37:18:11 02:07:12:09 02:07:12:11 
*FROM CLIP NAME:  86BK2/02.SYNC.01 
*TO CLIP NAME:  86BK5/02.SYNC.01 
*SOURCE FILE: 19Y08M12
011996  19Y08M12                         A3    C        20:59:19:21 20:59:19:21 02:07:12:09 02:07:12:09 
011996  19Y08M12                         A3    D    002 21:37:18:09 21:37:18:11 02:07:12:09 02:07:12:11 
*FROM CLIP NAME:  86BK2/02.SYNC.01 
*TO CLIP NAME:  86BK5/02.SYNC.01 
*PATCH 19Y08M12:  FROM SOURCE 7 TO RECORD 3 
*PATCH 19Y08M12:  FROM SOURCE 7 TO RECORD 3 
*SOURCE FILE: 19Y08M12
011997  19Y08M12                         A4    C        20:59:19:21 20:59:19:21 02:07:12:09 02:07:12:09 
011997  19Y08M12                         A4    D    002 21:37:18:09 21:37:18:11 02:07:12:09 02:07:12:11 
*FROM CLIP NAME:  86BK2/02.SYNC.01 
*TO CLIP NAME:  86BK5/02.SYNC.01 
*PATCH 19Y08M12:  FROM SOURCE 8 TO RECORD 4 
*PATCH 19Y08M12:  FROM SOURCE 8 TO RECORD 4 
*SOURCE FILE: 19Y08M12
011998  19Y08M12                         A     C        21:37:18:11 21:37:20:19 02:07:12:11 02:07:14:19 
*FROM CLIP NAME:  86BK5/02.SYNC.01 
*SOURCE FILE: 19Y08M12
011999  19Y08M12                         A2    C        21:37:18:11 21:37:20:19 02:07:12:11 02:07:14:19 
*FROM CLIP NAME:  86BK5/02.SYNC.01 
*SOURCE FILE: 19Y08M12
012000  19Y08M12                         A3    C        21:37:18:11 21:37:20:19 02:07:12:11 02:07:14:19 
*FROM CLIP NAME:  86BK5/02.SYNC.01 
*PATCH 19Y08M12:  FROM SOURCE 7 TO RECORD 3 
*SOURCE FILE: 19Y08M12
012001  19Y08M12                         A4    C        21:37:18:11 21:37:20:19 02:07:12:11 02:07:14:19 
*FROM CLIP NAME:  86BK5/02.SYNC.01 
*PATCH 19Y08M12:  FROM SOURCE 8 TO RECORD 4 
*SOURCE FILE: 19Y08M12
012002  19Y08M12                         A     C        21:37:20:19 21:37:20:19 02:07:14:19 02:07:14:19 
012002  19Y08M12                         A     D    002 21:37:17:17 21:37:17:19 02:07:14:19 02:07:14:21 
*FROM CLIP NAME:  86BK5/02.SYNC.01 
*TO CLIP NAME:  86BK5/02.SYNC.01 
*SOURCE FILE: 19Y08M12
012003  19Y08M12                         A2    C        21:37:20:19 21:37:20:19 02:07:14:19 02:07:14:19 
012003  19Y08M12                         A2    D    002 21:37:17:17 21:37:17:19 02:07:14:19 02:07:14:21 
*FROM CLIP NAME:  86BK5/02.SYNC.01 
*TO CLIP NAME:  86BK5/02.SYNC.01 
*SOURCE FILE: 19Y08M12
012004  19Y08M12                         A3    C        21:37:20:19 21:37:20:19 02:07:14:19 02:07:14:19 
012004  19Y08M12                         A3    D    002 21:37:17:17 21:37:17:19 02:07:14:19 02:07:14:21 
*FROM CLIP NAME:  86BK5/02.SYNC.01 
*TO CLIP NAME:  86BK5/02.SYNC.01 
*PATCH 19Y08M12:  FROM SOURCE 7 TO RECORD 3 
*PATCH 19Y08M12:  FROM SOURCE 7 TO RECORD 3 
*SOURCE FILE: 19Y08M12
012005  19Y08M12                         A4    C        21:37:20:19 21:37:20:19 02:07:14:19 02:07:14:19 
012005  19Y08M12                         A4    D    002 21:37:17:17 21:37:17:19 02:07:14:19 02:07:14:21 
*FROM CLIP NAME:  86BK5/02.SYNC.01 
*TO CLIP NAME:  86BK5/02.SYNC.01 
*PATCH 19Y08M12:  FROM SOURCE 8 TO RECORD 4 
*PATCH 19Y08M12:  FROM SOURCE 8 TO RECORD 4 
*SOURCE FILE: 19Y08M12
012006  MSMMMOB.52                       V     C        20:59:24:19 20:59:27:11 02:07:14:20 02:07:17:12 
M2      MSMMMOB.52                                025.0 20:59:24:19 
*FROM CLIP NAME:  A068C006_190812_R32C 
*SOURCE FILE: MSMMMOB.52
012007  19Y08M12                         A     C        21:37:17:19 21:37:18:13 02:07:14:21 02:07:15:15 
*FROM CLIP NAME:  86BK5/02.SYNC.01 
*SOURCE FILE: 19Y08M12
012008  19Y08M12                         A2    C        21:37:17:19 21:37:18:13 02:07:14:21 02:07:15:15 
*FROM CLIP NAME:  86BK5/02.SYNC.01 
*SOURCE FILE: 19Y08M12
012009  19Y08M12                         A3    C        21:37:17:19 21:37:18:13 02:07:14:21 02:07:15:15 
*FROM CLIP NAME:  86BK5/02.SYNC.01 
*PATCH 19Y08M12:  FROM SOURCE 7 TO RECORD 3 
*SOURCE FILE: 19Y08M12
012010  19Y08M12                         A4    C        21:37:17:19 21:37:18:13 02:07:14:21 02:07:15:15 
*FROM CLIP NAME:  86BK5/02.SYNC.01 
*PATCH 19Y08M12:  FROM SOURCE 8 TO RECORD 4 
*SOURCE FILE: 19Y08M12
012011  19Y08M12                         A5    C        20:59:25:03 20:59:26:06 02:07:15:09 02:07:16:12 
*FROM CLIP NAME:  86BK2/02.SYNC.01 
*PATCH 19Y08M12:  FROM SOURCE 1 TO RECORD 5 
*SOURCE FILE: 19Y08M12
012012  19Y08M12                         A6    C        20:59:25:03 20:59:26:06 02:07:15:09 02:07:16:12 
*FROM CLIP NAME:  86BK2/02.SYNC.01 
*PATCH 19Y08M12:  FROM SOURCE 2 TO RECORD 6 
*SOURCE FILE: 19Y08M12
012013  19Y08M12                         A7    C        20:59:25:03 20:59:26:06 02:07:15:09 02:07:16:12 
*FROM CLIP NAME:  86BK2/02.SYNC.01 
*SOURCE FILE: 19Y08M12
012014  19Y08M12                         A8    C        20:59:25:03 20:59:26:06 02:07:15:09 02:07:16:12 
*FROM CLIP NAME:  86BK2/02.SYNC.01 
*SOURCE FILE: 19Y08M12
012015  19Y08M12                         A     C        21:37:18:13 21:37:18:13 02:07:15:15 02:07:15:15 
012015  19Y08M12                         A     D    002 21:37:21:16 21:37:21:18 02:07:15:15 02:07:15:17 
*FROM CLIP NAME:  86BK5/02.SYNC.01 
*TO CLIP NAME:  86BK5/02.SYNC.01 
*SOURCE FILE: 19Y08M12
012016  19Y08M12                         A2    C        21:37:18:13 21:37:18:13 02:07:15:15 02:07:15:15 
012016  19Y08M12                         A2    D    002 21:37:21:16 21:37:21:18 02:07:15:15 02:07:15:17 
*FROM CLIP NAME:  86BK5/02.SYNC.01 
*TO CLIP NAME:  86BK5/02.SYNC.01 
*SOURCE FILE: 19Y08M12
012017  19Y08M12                         A3    C        21:37:18:13 21:37:18:13 02:07:15:15 02:07:15:15 
012017  19Y08M12                         A3    D    002 21:37:21:16 21:37:21:18 02:07:15:15 02:07:15:17 
*FROM CLIP NAME:  86BK5/02.SYNC.01 
*TO CLIP NAME:  86BK5/02.SYNC.01 
*PATCH 19Y08M12:  FROM SOURCE 7 TO RECORD 3 
*PATCH 19Y08M12:  FROM SOURCE 7 TO RECORD 3 
*SOURCE FILE: 19Y08M12
012018  19Y08M12                         A4    C        21:37:18:13 21:37:18:13 02:07:15:15 02:07:15:15 
012018  19Y08M12                         A4    D    002 21:37:21:16 21:37:21:18 02:07:15:15 02:07:15:17 
*FROM CLIP NAME:  86BK5/02.SYNC.01 
*TO CLIP NAME:  86BK5/02.SYNC.01 
*PATCH 19Y08M12:  FROM SOURCE 8 TO RECORD 4 
*PATCH 19Y08M12:  FROM SOURCE 8 TO RECORD 4 
*SOURCE FILE: 19Y08M12
012019  19Y08M12                         A     C        21:37:21:18 21:37:25:08 02:07:15:17 02:07:19:07 
*FROM CLIP NAME:  86BK5/02.SYNC.01 
*SOURCE FILE: 19Y08M12
012020  19Y08M12                         A2    C        21:37:21:18 21:37:25:08 02:07:15:17 02:07:19:07 
*FROM CLIP NAME:  86BK5/02.SYNC.01 
*SOURCE FILE: 19Y08M12
012021  19Y08M12                         A3    C        21:37:21:18 21:37:25:08 02:07:15:17 02:07:19:07 
*FROM CLIP NAME:  86BK5/02.SYNC.01 
*PATCH 19Y08M12:  FROM SOURCE 7 TO RECORD 3 
*SOURCE FILE: 19Y08M12
012022  19Y08M12                         A4    C        21:37:21:18 21:37:25:08 02:07:15:17 02:07:19:07 
*FROM CLIP NAME:  86BK5/02.SYNC.01 
*PATCH 19Y08M12:  FROM SOURCE 8 TO RECORD 4 
*SOURCE FILE: 19Y08M12
012023  MSMMMOB.33                       V     C        21:37:23:15 21:37:25:11 02:07:17:12 02:07:19:08 
M2      MSMMMOB.33                                025.0 21:37:23:15 
*FROM CLIP NAME:  A070C001_190812_R32C 
*SOURCE FILE: MSMMMOB.33
012024  19Y08M12                         A     C        21:37:25:08 21:37:25:08 02:07:19:07 02:07:19:07 
012024  19Y08M12                         A     D    002 20:59:27:20 20:59:27:22 02:07:19:07 02:07:19:09 
*FROM CLIP NAME:  86BK5/02.SYNC.01 
*TO CLIP NAME:  86BK2/02.SYNC.01 
*SOURCE FILE: 19Y08M12
012025  19Y08M12                         A2    C        21:37:25:08 21:37:25:08 02:07:19:07 02:07:19:07 
012025  19Y08M12                         A2    D    002 20:59:27:20 20:59:27:22 02:07:19:07 02:07:19:09 
*FROM CLIP NAME:  86BK5/02.SYNC.01 
*TO CLIP NAME:  86BK2/02.SYNC.01 
*SOURCE FILE: 19Y08M12
012026  19Y08M12                         A3    C        21:37:25:08 21:37:25:08 02:07:19:07 02:07:19:07 
012026  19Y08M12                         A3    D    002 20:59:27:20 20:59:27:22 02:07:19:07 02:07:19:09 
*FROM CLIP NAME:  86BK5/02.SYNC.01 
*TO CLIP NAME:  86BK2/02.SYNC.01 
*PATCH 19Y08M12:  FROM SOURCE 7 TO RECORD 3 
*PATCH 19Y08M12:  FROM SOURCE 7 TO RECORD 3 
*SOURCE FILE: 19Y08M12
012027  19Y08M12                         A4    C        21:37:25:08 21:37:25:08 02:07:19:07 02:07:19:07 
012027  19Y08M12                         A4    D    002 20:59:27:20 20:59:27:22 02:07:19:07 02:07:19:09 
*FROM CLIP NAME:  86BK5/02.SYNC.01 
*TO CLIP NAME:  86BK2/02.SYNC.01 
*PATCH 19Y08M12:  FROM SOURCE 8 TO RECORD 4 
*PATCH 19Y08M12:  FROM SOURCE 8 TO RECORD 4 
*SOURCE FILE: 19Y08M12
012028  MSMMMOB.52                       V     C        20:59:27:23 20:59:36:08 02:07:19:08 02:07:27:18 
M2      MSMMMOB.52                                025.0 20:59:27:23 
*FROM CLIP NAME:  A068C006_190812_R32C 
*SOURCE FILE: MSMMMOB.52
012029  19Y08M12                         A     C        20:59:27:22 20:59:36:05 02:07:19:09 02:07:27:17 
*FROM CLIP NAME:  86BK2/02.SYNC.01 
*SOURCE FILE: 19Y08M12
012030  19Y08M12                         A2    C        20:59:27:22 20:59:36:05 02:07:19:09 02:07:27:17 
*FROM CLIP NAME:  86BK2/02.SYNC.01 
*SOURCE FILE: 19Y08M12
012031  19Y08M12                         A3    C        20:59:27:22 20:59:36:05 02:07:19:09 02:07:27:17 
*FROM CLIP NAME:  86BK2/02.SYNC.01 
*PATCH 19Y08M12:  FROM SOURCE 7 TO RECORD 3 
*SOURCE FILE: 19Y08M12
012032  19Y08M12                         A4    C        20:59:27:22 20:59:36:05 02:07:19:09 02:07:27:17 
*FROM CLIP NAME:  86BK2/02.SYNC.01 
*PATCH 19Y08M12:  FROM SOURCE 8 TO RECORD 4 
*SOURCE FILE: 19Y08M12
012033  19Y08M12                         A     C        20:59:36:05 20:59:36:05 02:07:27:17 02:07:27:17 
012033  19Y08M12                         A     D    002 20:59:35:06 20:59:35:08 02:07:27:17 02:07:27:19 
*FROM CLIP NAME:  86BK2/02.SYNC.01 
*TO CLIP NAME:  86BK2/02.SYNC.01 
*SOURCE FILE: 19Y08M12
012034  19Y08M12                         A2    C        20:59:36:05 20:59:36:05 02:07:27:17 02:07:27:17 
012034  19Y08M12                         A2    D    002 20:59:35:06 20:59:35:08 02:07:27:17 02:07:27:19 
*FROM CLIP NAME:  86BK2/02.SYNC.01 
*TO CLIP NAME:  86BK2/02.SYNC.01 
*SOURCE FILE: 19Y08M12
012035  19Y08M12                         A3    C        20:59:36:05 20:59:36:05 02:07:27:17 02:07:27:17 
012035  19Y08M12                         A3    D    002 20:59:35:06 20:59:35:08 02:07:27:17 02:07:27:19 
*FROM CLIP NAME:  86BK2/02.SYNC.01 
*TO CLIP NAME:  86BK2/02.SYNC.01 
*PATCH 19Y08M12:  FROM SOURCE 7 TO RECORD 3 
*PATCH 19Y08M12:  FROM SOURCE 7 TO RECORD 3 
*SOURCE FILE: 19Y08M12
012036  19Y08M12                         A4    C        20:59:36:05 20:59:36:05 02:07:27:17 02:07:27:17 
012036  19Y08M12                         A4    D    002 20:59:35:06 20:59:35:08 02:07:27:17 02:07:27:19 
*FROM CLIP NAME:  86BK2/02.SYNC.01 
*TO CLIP NAME:  86BK2/02.SYNC.01 
*PATCH 19Y08M12:  FROM SOURCE 8 TO RECORD 4 
*PATCH 19Y08M12:  FROM SOURCE 8 TO RECORD 4 
*SOURCE FILE: 19Y08M12
012037  MSMMMOB.33                       V     C        21:37:27:24 21:37:29:13 02:07:27:18 02:07:29:07 
M2      MSMMMOB.33                                025.0 21:37:27:24 
*FROM CLIP NAME:  A070C001_190812_R32C 
*SOURCE FILE: MSMMMOB.33
012038  19Y08M12                         A     C        20:59:35:08 20:59:36:20 02:07:27:19 02:07:29:06 
*FROM CLIP NAME:  86BK2/02.SYNC.01 
*SOURCE FILE: 19Y08M12
012039  19Y08M12                         A2    C        20:59:35:08 20:59:36:20 02:07:27:19 02:07:29:06 
*FROM CLIP NAME:  86BK2/02.SYNC.01 
*SOURCE FILE: 19Y08M12
012040  19Y08M12                         A3    C        20:59:35:08 20:59:36:20 02:07:27:19 02:07:29:06 
*FROM CLIP NAME:  86BK2/02.SYNC.01 
*PATCH 19Y08M12:  FROM SOURCE 7 TO RECORD 3 
*SOURCE FILE: 19Y08M12
012041  19Y08M12                         A4    C        20:59:35:08 20:59:36:20 02:07:27:19 02:07:29:06 
*FROM CLIP NAME:  86BK2/02.SYNC.01 
*PATCH 19Y08M12:  FROM SOURCE 8 TO RECORD 4 
*SOURCE FILE: 19Y08M12
012042  19Y08M12                         A     C        20:59:36:20 20:59:36:20 02:07:29:06 02:07:29:06 
012042  19Y08M12                         A     D    002 20:59:37:08 20:59:37:10 02:07:29:06 02:07:29:08 
*FROM CLIP NAME:  86BK2/02.SYNC.01 
*TO CLIP NAME:  86BK2/02.SYNC.01 
*SOURCE FILE: 19Y08M12
012043  19Y08M12                         A2    C        20:59:36:20 20:59:36:20 02:07:29:06 02:07:29:06 
012043  19Y08M12                         A2    D    002 20:59:37:08 20:59:37:10 02:07:29:06 02:07:29:08 
*FROM CLIP NAME:  86BK2/02.SYNC.01 
*TO CLIP NAME:  86BK2/02.SYNC.01 
*SOURCE FILE: 19Y08M12
012044  19Y08M12                         A3    C        20:59:36:20 20:59:36:20 02:07:29:06 02:07:29:06 
012044  19Y08M12                         A3    D    002 20:59:37:08 20:59:37:10 02:07:29:06 02:07:29:08 
*FROM CLIP NAME:  86BK2/02.SYNC.01 
*TO CLIP NAME:  86BK2/02.SYNC.01 
*PATCH 19Y08M12:  FROM SOURCE 7 TO RECORD 3 
*PATCH 19Y08M12:  FROM SOURCE 7 TO RECORD 3 
*SOURCE FILE: 19Y08M12
012045  19Y08M12                         A4    C        20:59:36:20 20:59:36:20 02:07:29:06 02:07:29:06 
012045  19Y08M12                         A4    D    002 20:59:37:08 20:59:37:10 02:07:29:06 02:07:29:08 
*FROM CLIP NAME:  86BK2/02.SYNC.01 
*TO CLIP NAME:  86BK2/02.SYNC.01 
*PATCH 19Y08M12:  FROM SOURCE 8 TO RECORD 4 
*PATCH 19Y08M12:  FROM SOURCE 8 TO RECORD 4 
*SOURCE FILE: 19Y08M12
012046  MSMMMOB.52                       V     C        20:59:37:11 20:59:45:01 02:07:29:07 02:07:36:22 
M2      MSMMMOB.52                                025.0 20:59:37:11 
*FROM CLIP NAME:  A068C006_190812_R32C 
*SOURCE FILE: MSMMMOB.52
012047  19Y08M12                         A     C        20:59:37:10 20:59:46:02 02:07:29:08 02:07:38:00 
*FROM CLIP NAME:  86BK2/02.SYNC.01 
*SOURCE FILE: 19Y08M12
012048  19Y08M12                         A2    C        20:59:37:10 20:59:46:02 02:07:29:08 02:07:38:00 
*FROM CLIP NAME:  86BK2/02.SYNC.01 
*SOURCE FILE: 19Y08M12
012049  19Y08M12                         A3    C        20:59:37:10 20:59:46:02 02:07:29:08 02:07:38:00 
*FROM CLIP NAME:  86BK2/02.SYNC.01 
*PATCH 19Y08M12:  FROM SOURCE 7 TO RECORD 3 
*SOURCE FILE: 19Y08M12
012050  19Y08M12                         A4    C        20:59:37:10 20:59:46:02 02:07:29:08 02:07:38:00 
*FROM CLIP NAME:  86BK2/02.SYNC.01 
*PATCH 19Y08M12:  FROM SOURCE 8 TO RECORD 4 
*SOURCE FILE: 19Y08M12
012051  MSMMMOB.33                       V     C        21:37:34:01 21:37:36:24 02:07:36:22 02:07:39:20 
M2      MSMMMOB.33                                025.0 21:37:34:01 
*FROM CLIP NAME:  A070C001_190812_R32C 
*SOURCE FILE: MSMMMOB.33
012052  19Y08M12                         A     C        20:59:46:02 20:59:46:02 02:07:38:00 02:07:38:00 
012052  19Y08M12                         A     D    002 21:37:35:02 21:37:35:04 02:07:38:00 02:07:38:02 
*FROM CLIP NAME:  86BK2/02.SYNC.01 
*TO CLIP NAME:  86BK5/02.SYNC.01 
*SOURCE FILE: 19Y08M12
012053  19Y08M12                         A2    C        20:59:46:02 20:59:46:02 02:07:38:00 02:07:38:00 
012053  19Y08M12                         A2    D    002 21:37:35:02 21:37:35:04 02:07:38:00 02:07:38:02 
*FROM CLIP NAME:  86BK2/02.SYNC.01 
*TO CLIP NAME:  86BK5/02.SYNC.01 
*SOURCE FILE: 19Y08M12
012054  19Y08M12                         A3    C        20:59:46:02 20:59:46:02 02:07:38:00 02:07:38:00 
012054  19Y08M12                         A3    D    002 21:37:35:02 21:37:35:04 02:07:38:00 02:07:38:02 
*FROM CLIP NAME:  86BK2/02.SYNC.01 
*TO CLIP NAME:  86BK5/02.SYNC.01 
*PATCH 19Y08M12:  FROM SOURCE 7 TO RECORD 3 
*PATCH 19Y08M12:  FROM SOURCE 7 TO RECORD 3 
*SOURCE FILE: 19Y08M12
012055  19Y08M12                         A4    C        20:59:46:02 20:59:46:02 02:07:38:00 02:07:38:00 
012055  19Y08M12                         A4    D    002 21:37:35:02 21:37:35:04 02:07:38:00 02:07:38:02 
*FROM CLIP NAME:  86BK2/02.SYNC.01 
*TO CLIP NAME:  86BK5/02.SYNC.01 
*PATCH 19Y08M12:  FROM SOURCE 8 TO RECORD 4 
*PATCH 19Y08M12:  FROM SOURCE 8 TO RECORD 4 
*SOURCE FILE: 19Y08M12
012056  19Y08M12                         A     C        21:37:35:04 21:37:36:21 02:07:38:02 02:07:39:19 
*FROM CLIP NAME:  86BK5/02.SYNC.01 
*SOURCE FILE: 19Y08M12
012057  19Y08M12                         A2    C        21:37:35:04 21:37:36:21 02:07:38:02 02:07:39:19 
*FROM CLIP NAME:  86BK5/02.SYNC.01 
*SOURCE FILE: 19Y08M12
012058  19Y08M12                         A3    C        21:37:35:04 21:37:36:21 02:07:38:02 02:07:39:19 
*FROM CLIP NAME:  86BK5/02.SYNC.01 
*PATCH 19Y08M12:  FROM SOURCE 7 TO RECORD 3 
*SOURCE FILE: 19Y08M12
012059  19Y08M12                         A4    C        21:37:35:04 21:37:36:21 02:07:38:02 02:07:39:19 
*FROM CLIP NAME:  86BK5/02.SYNC.01 
*PATCH 19Y08M12:  FROM SOURCE 8 TO RECORD 4 
*SOURCE FILE: 19Y08M12
012060  19Y08M12                         A     C        21:37:36:21 21:37:36:21 02:07:39:19 02:07:39:19 
012060  19Y08M12                         A     D    002 20:59:52:06 20:59:52:08 02:07:39:19 02:07:39:21 
*FROM CLIP NAME:  86BK5/02.SYNC.01 
*TO CLIP NAME:  86BK2/02.SYNC.01 
*SOURCE FILE: 19Y08M12
012061  19Y08M12                         A2    C        21:37:36:21 21:37:36:21 02:07:39:19 02:07:39:19 
012061  19Y08M12                         A2    D    002 20:59:52:06 20:59:52:08 02:07:39:19 02:07:39:21 
*FROM CLIP NAME:  86BK5/02.SYNC.01 
*TO CLIP NAME:  86BK2/02.SYNC.01 
*SOURCE FILE: 19Y08M12
012062  19Y08M12                         A3    C        21:37:36:21 21:37:36:21 02:07:39:19 02:07:39:19 
012062  19Y08M12                         A3    D    002 20:59:52:06 20:59:52:08 02:07:39:19 02:07:39:21 
*FROM CLIP NAME:  86BK5/02.SYNC.01 
*TO CLIP NAME:  86BK2/02.SYNC.01 
*PATCH 19Y08M12:  FROM SOURCE 7 TO RECORD 3 
*PATCH 19Y08M12:  FROM SOURCE 7 TO RECORD 3 
*SOURCE FILE: 19Y08M12
012063  19Y08M12                         A4    C        21:37:36:21 21:37:36:21 02:07:39:19 02:07:39:19 
012063  19Y08M12                         A4    D    002 20:59:52:06 20:59:52:08 02:07:39:19 02:07:39:21 
*FROM CLIP NAME:  86BK5/02.SYNC.01 
*TO CLIP NAME:  86BK2/02.SYNC.01 
*PATCH 19Y08M12:  FROM SOURCE 8 TO RECORD 4 
*PATCH 19Y08M12:  FROM SOURCE 8 TO RECORD 4 
*SOURCE FILE: 19Y08M12
012064  MSMMMOB.52                       V     C        20:59:52:09 20:59:53:22 02:07:39:20 02:07:41:08 
M2      MSMMMOB.52                                025.0 20:59:52:09 
*FROM CLIP NAME:  A068C006_190812_R32C 
*SOURCE FILE: MSMMMOB.52
012065  19Y08M12                         A     C        20:59:52:08 20:59:53:20 02:07:39:21 02:07:41:08 
*FROM CLIP NAME:  86BK2/02.SYNC.01 
*SOURCE FILE: 19Y08M12
012066  19Y08M12                         A2    C        20:59:52:08 20:59:53:20 02:07:39:21 02:07:41:08 
*FROM CLIP NAME:  86BK2/02.SYNC.01 
*SOURCE FILE: 19Y08M12
012067  19Y08M12                         A3    C        20:59:52:08 20:59:53:20 02:07:39:21 02:07:41:08 
*FROM CLIP NAME:  86BK2/02.SYNC.01 
*PATCH 19Y08M12:  FROM SOURCE 7 TO RECORD 3 
*SOURCE FILE: 19Y08M12
012068  19Y08M12                         A4    C        20:59:52:08 20:59:53:20 02:07:39:21 02:07:41:08 
*FROM CLIP NAME:  86BK2/02.SYNC.01 
*PATCH 19Y08M12:  FROM SOURCE 8 TO RECORD 4 
*SOURCE FILE: 19Y08M12
012069  MSMMMOB.33                       V     C        21:37:38:13 21:37:40:17 02:07:41:08 02:07:43:12 
M2      MSMMMOB.33                                025.0 21:37:38:13 
*FROM CLIP NAME:  A070C001_190812_R32C 
*SOURCE FILE: MSMMMOB.33
012070  19Y08M12                         A     C        21:37:38:11 21:37:43:23 02:07:41:08 02:07:46:20 
*FROM CLIP NAME:  86BK5/02.SYNC.01 
*SOURCE FILE: 19Y08M12
012071  19Y08M12                         A2    C        21:37:38:11 21:37:43:23 02:07:41:08 02:07:46:20 
*FROM CLIP NAME:  86BK5/02.SYNC.01 
*SOURCE FILE: 19Y08M12
012072  19Y08M12                         A3    C        21:37:38:11 21:37:43:23 02:07:41:08 02:07:46:20 
*FROM CLIP NAME:  86BK5/02.SYNC.01 
*PATCH 19Y08M12:  FROM SOURCE 7 TO RECORD 3 
*SOURCE FILE: 19Y08M12
012073  19Y08M12                         A4    C        21:37:38:11 21:37:43:23 02:07:41:08 02:07:46:20 
*FROM CLIP NAME:  86BK5/02.SYNC.01 
*PATCH 19Y08M12:  FROM SOURCE 8 TO RECORD 4 
*SOURCE FILE: 19Y08M12
012074  MSMMMOB.52                       V     C        20:59:57:15 21:00:00:02 02:07:43:12 02:07:45:24 
M2      MSMMMOB.52                                025.0 20:59:57:15 
*FROM CLIP NAME:  A068C006_190812_R32C 
*SOURCE FILE: MSMMMOB.52
012075  MSMMMOB.33                       V     C        21:37:43:04 21:37:44:14 02:07:45:24 02:07:47:09 
M2      MSMMMOB.33                                025.0 21:37:43:04 
*FROM CLIP NAME:  A070C001_190812_R32C 
*SOURCE FILE: MSMMMOB.33
012076  19Y08M12                         A5    C        21:00:02:17 21:00:04:12 02:07:46:13 02:07:48:08 
*FROM CLIP NAME:  86BK2/02.SYNC.01 
*PATCH 19Y08M12:  FROM SOURCE 1 TO RECORD 5 
*SOURCE FILE: 19Y08M12
012077  19Y08M12                         A6    C        21:00:02:17 21:00:04:12 02:07:46:13 02:07:48:08 
*FROM CLIP NAME:  86BK2/02.SYNC.01 
*PATCH 19Y08M12:  FROM SOURCE 7 TO RECORD 6 
*SOURCE FILE: 19Y08M12
012078  19Y08M12                         A7    C        21:00:02:17 21:00:04:12 02:07:46:13 02:07:48:08 
*FROM CLIP NAME:  86BK2/02.SYNC.01 
*PATCH 19Y08M12:  FROM SOURCE 2 TO RECORD 7 
*SOURCE FILE: 19Y08M12
012079  19Y08M12                         A8    C        21:00:02:17 21:00:04:12 02:07:46:13 02:07:48:08 
*FROM CLIP NAME:  86BK2/02.SYNC.01 
*SOURCE FILE: 19Y08M12
012080  MSMMMOB.52                       V     C        21:00:03:15 21:00:04:13 02:07:47:09 02:07:48:07 
M2      MSMMMOB.52                                025.0 21:00:03:15 
*FROM CLIP NAME:  A068C006_190812_R32C 
*SOURCE FILE: MSMMMOB.52
012081  MSMMMOB.45                       V     C        20:38:18:08 20:38:20:01 02:07:48:07 02:07:50:00 
M2      MSMMMOB.45                                025.0 20:38:18:08 
*FROM CLIP NAME:  A068C004_190812_R32C 
*SOURCE FILE: MSMMMOB.45
012082  19Y08M12                         A     C        20:38:18:07 20:38:19:24 02:07:48:08 02:07:50:00 
*FROM CLIP NAME:  86BK1/02.SYNC.01 
*SOURCE FILE: 19Y08M12
012083  19Y08M12                         A2    C        20:38:18:07 20:38:19:24 02:07:48:08 02:07:50:00 
*FROM CLIP NAME:  86BK1/02.SYNC.01 
*SOURCE FILE: 19Y08M12
012084  19Y08M12                         A3    C        20:38:18:07 20:38:19:24 02:07:48:08 02:07:50:00 
*FROM CLIP NAME:  86BK1/02.SYNC.01 
*PATCH 19Y08M12:  FROM SOURCE 7 TO RECORD 3 
*SOURCE FILE: 19Y08M12
012085  19Y08M12                         A4    C        20:38:18:07 20:38:19:24 02:07:48:08 02:07:50:00 
*FROM CLIP NAME:  86BK1/02.SYNC.01 
*PATCH 19Y08M12:  FROM SOURCE 8 TO RECORD 4 
*SOURCE FILE: 19Y08M12
012086  MSMMMOB.33                       V     C        21:37:49:07 21:37:50:17 02:07:50:00 02:07:51:10 
M2      MSMMMOB.33                                025.0 21:37:49:07 
*FROM CLIP NAME:  A070C001_190812_R32C 
*SOURCE FILE: MSMMMOB.33
012087  19Y08M12                         A     C        21:00:06:18 21:00:09:12 02:07:50:00 02:07:52:19 
*FROM CLIP NAME:  86BK2/02.SYNC.01 
*SOURCE FILE: 19Y08M12
012088  19Y08M12                         A2    C        21:00:06:18 21:00:09:12 02:07:50:00 02:07:52:19 
*FROM CLIP NAME:  86BK2/02.SYNC.01 
*SOURCE FILE: 19Y08M12
012089  19Y08M12                         A3    C        21:00:06:18 21:00:09:12 02:07:50:00 02:07:52:19 
*FROM CLIP NAME:  86BK2/02.SYNC.01 
*PATCH 19Y08M12:  FROM SOURCE 7 TO RECORD 3 
*SOURCE FILE: 19Y08M12
012090  19Y08M12                         A4    C        21:00:06:18 21:00:09:12 02:07:50:00 02:07:52:19 
*FROM CLIP NAME:  86BK2/02.SYNC.01 
*PATCH 19Y08M12:  FROM SOURCE 8 TO RECORD 4 
*SOURCE FILE: 19Y08M12
012091  MSMMMOB.52                       V     C        21:00:08:05 21:00:09:12 02:07:51:10 02:07:52:17 
M2      MSMMMOB.52                                025.0 21:00:08:05 
*FROM CLIP NAME:  A068C006_190812_R32C 
*SOURCE FILE: MSMMMOB.52
012092  MSMMMOB.45                       V     C        20:38:24:11 20:38:27:11 02:07:52:17 02:07:55:17 
M2      MSMMMOB.45                                025.0 20:38:24:11 
*FROM CLIP NAME:  A068C004_190812_R32C 
*SOURCE FILE: MSMMMOB.45
012093  19Y08M12                         A     C        20:38:24:11 20:38:27:05 02:07:52:19 02:07:55:13 
*FROM CLIP NAME:  86BK1/02.SYNC.01 
*SOURCE FILE: 19Y08M12
012094  19Y08M12                         A2    C        20:38:24:11 20:38:27:05 02:07:52:19 02:07:55:13 
*FROM CLIP NAME:  86BK1/02.SYNC.01 
*SOURCE FILE: 19Y08M12
012095  19Y08M12                         A3    C        20:38:24:11 20:38:27:05 02:07:52:19 02:07:55:13 
*FROM CLIP NAME:  86BK1/02.SYNC.01 
*PATCH 19Y08M12:  FROM SOURCE 7 TO RECORD 3 
*SOURCE FILE: 19Y08M12
012096  19Y08M12                         A4    C        20:38:24:11 20:38:27:05 02:07:52:19 02:07:55:13 
*FROM CLIP NAME:  86BK1/02.SYNC.01 
*PATCH 19Y08M12:  FROM SOURCE 8 TO RECORD 4 
*SOURCE FILE: 19Y08M12
012097  19Y08M12                         A     C        21:00:31:00 21:00:33:20 02:07:55:13 02:07:58:08 
*FROM CLIP NAME:  86BK2/02.SYNC.01 
*SOURCE FILE: 19Y08M12
012098  19Y08M12                         A2    C        21:00:31:00 21:00:33:20 02:07:55:13 02:07:58:08 
*FROM CLIP NAME:  86BK2/02.SYNC.01 
*SOURCE FILE: 19Y08M12
012099  19Y08M12                         A3    C        21:00:31:00 21:00:33:20 02:07:55:13 02:07:58:08 
*FROM CLIP NAME:  86BK2/02.SYNC.01 
*PATCH 19Y08M12:  FROM SOURCE 7 TO RECORD 3 
*SOURCE FILE: 19Y08M12
012100  19Y08M12                         A4    C        21:00:31:00 21:00:33:20 02:07:55:13 02:07:58:08 
*FROM CLIP NAME:  86BK2/02.SYNC.01 
*PATCH 19Y08M12:  FROM SOURCE 8 TO RECORD 4 
*SOURCE FILE: 19Y08M12
012101  MSMMMOB.52                       V     C        21:00:31:06 21:00:33:19 02:07:55:17 02:07:58:05 
M2      MSMMMOB.52                                025.0 21:00:31:06 
*FROM CLIP NAME:  A068C006_190812_R32C 
*SOURCE FILE: MSMMMOB.52
012102  MSMMMOB.33                       V     C        21:37:58:07 21:38:05:23 02:07:58:05 02:08:05:21 
M2      MSMMMOB.33                                025.0 21:37:58:07 
*FROM CLIP NAME:  A070C001_190812_R32C 
*SOURCE FILE: MSMMMOB.33
012103  19Y08M12                         A     C        21:00:33:20 21:00:33:20 02:07:58:08 02:07:58:08 
012103  19Y08M12                         A     D    005 21:37:58:08 21:37:58:13 02:07:58:08 02:07:58:13 
*FROM CLIP NAME:  86BK2/02.SYNC.01 
*TO CLIP NAME:  86BK5/02.SYNC.01 
*SOURCE FILE: 19Y08M12
012104  19Y08M12                         A2    C        21:00:33:20 21:00:33:20 02:07:58:08 02:07:58:08 
012104  19Y08M12                         A2    D    005 21:37:58:08 21:37:58:13 02:07:58:08 02:07:58:13 
*FROM CLIP NAME:  86BK2/02.SYNC.01 
*TO CLIP NAME:  86BK5/02.SYNC.01 
*SOURCE FILE: 19Y08M12
012105  19Y08M12                         A3    C        21:00:33:20 21:00:33:20 02:07:58:08 02:07:58:08 
012105  19Y08M12                         A3    D    005 21:37:58:08 21:37:58:13 02:07:58:08 02:07:58:13 
*FROM CLIP NAME:  86BK2/02.SYNC.01 
*TO CLIP NAME:  86BK5/02.SYNC.01 
*PATCH 19Y08M12:  FROM SOURCE 7 TO RECORD 3 
*PATCH 19Y08M12:  FROM SOURCE 7 TO RECORD 3 
*SOURCE FILE: 19Y08M12
012106  19Y08M12                         A4    C        21:00:33:20 21:00:33:20 02:07:58:08 02:07:58:08 
012106  19Y08M12                         A4    D    005 21:37:58:08 21:37:58:13 02:07:58:08 02:07:58:13 
*FROM CLIP NAME:  86BK2/02.SYNC.01 
*TO CLIP NAME:  86BK5/02.SYNC.01 
*PATCH 19Y08M12:  FROM SOURCE 8 TO RECORD 4 
*PATCH 19Y08M12:  FROM SOURCE 8 TO RECORD 4 
*SOURCE FILE: 19Y08M12
012107  19Y08M12                         A     C        21:37:58:13 21:38:05:19 02:07:58:13 02:08:05:19 
*FROM CLIP NAME:  86BK5/02.SYNC.01 
*SOURCE FILE: 19Y08M12
012108  19Y08M12                         A2    C        21:37:58:13 21:38:05:19 02:07:58:13 02:08:05:19 
*FROM CLIP NAME:  86BK5/02.SYNC.01 
*SOURCE FILE: 19Y08M12
012109  19Y08M12                         A3    C        21:37:58:13 21:38:05:19 02:07:58:13 02:08:05:19 
*FROM CLIP NAME:  86BK5/02.SYNC.01 
*PATCH 19Y08M12:  FROM SOURCE 7 TO RECORD 3 
*SOURCE FILE: 19Y08M12
012110  19Y08M12                         A4    C        21:37:58:13 21:38:05:19 02:07:58:13 02:08:05:19 
*FROM CLIP NAME:  86BK5/02.SYNC.01 
*PATCH 19Y08M12:  FROM SOURCE 8 TO RECORD 4 
*SOURCE FILE: 19Y08M12
012111  19Y08M12                         A     C        21:38:05:19 21:38:05:19 02:08:05:19 02:08:05:19 
012111  19Y08M12                         A     D    005 21:00:38:24 21:00:39:04 02:08:05:19 02:08:05:24 
*FROM CLIP NAME:  86BK5/02.SYNC.01 
*TO CLIP NAME:  86BK2/02.SYNC.01 
*SOURCE FILE: 19Y08M12
012112  19Y08M12                         A2    C        21:38:05:19 21:38:05:19 02:08:05:19 02:08:05:19 
012112  19Y08M12                         A2    D    005 21:00:38:24 21:00:39:04 02:08:05:19 02:08:05:24 
*FROM CLIP NAME:  86BK5/02.SYNC.01 
*TO CLIP NAME:  86BK2/02.SYNC.01 
*SOURCE FILE: 19Y08M12
012113  19Y08M12                         A3    C        21:38:05:19 21:38:05:19 02:08:05:19 02:08:05:19 
012113  19Y08M12                         A3    D    005 21:00:38:24 21:00:39:04 02:08:05:19 02:08:05:24 
*FROM CLIP NAME:  86BK5/02.SYNC.01 
*TO CLIP NAME:  86BK2/02.SYNC.01 
*PATCH 19Y08M12:  FROM SOURCE 7 TO RECORD 3 
*PATCH 19Y08M12:  FROM SOURCE 7 TO RECORD 3 
*SOURCE FILE: 19Y08M12
012114  19Y08M12                         A4    C        21:38:05:19 21:38:05:19 02:08:05:19 02:08:05:19 
012114  19Y08M12                         A4    D    005 21:00:38:24 21:00:39:04 02:08:05:19 02:08:05:24 
*FROM CLIP NAME:  86BK5/02.SYNC.01 
*TO CLIP NAME:  86BK2/02.SYNC.01 
*PATCH 19Y08M12:  FROM SOURCE 8 TO RECORD 4 
*PATCH 19Y08M12:  FROM SOURCE 8 TO RECORD 4 
*SOURCE FILE: 19Y08M12
012115  MSMMMOB.52                       V     C        21:00:39:03 21:00:45:00 02:08:05:21 02:08:11:18 
M2      MSMMMOB.52                                025.0 21:00:39:03 
*FROM CLIP NAME:  A068C006_190812_R32C 
*SOURCE FILE: MSMMMOB.52
012116  19Y08M12                         A     C        21:00:39:04 21:00:44:23 02:08:05:24 02:08:11:18 
*FROM CLIP NAME:  86BK2/02.SYNC.01 
*SOURCE FILE: 19Y08M12
012117  19Y08M12                         A2    C        21:00:39:04 21:00:44:23 02:08:05:24 02:08:11:18 
*FROM CLIP NAME:  86BK2/02.SYNC.01 
*SOURCE FILE: 19Y08M12
012118  19Y08M12                         A3    C        21:00:39:04 21:00:44:23 02:08:05:24 02:08:11:18 
*FROM CLIP NAME:  86BK2/02.SYNC.01 
*PATCH 19Y08M12:  FROM SOURCE 7 TO RECORD 3 
*SOURCE FILE: 19Y08M12
012119  19Y08M12                         A4    C        21:00:39:04 21:00:44:23 02:08:05:24 02:08:11:18 
*FROM CLIP NAME:  86BK2/02.SYNC.01 
*PATCH 19Y08M12:  FROM SOURCE 8 TO RECORD 4 
*SOURCE FILE: 19Y08M12
012120  19Y08M12                         A     C        21:00:44:23 21:00:44:23 02:08:11:18 02:08:11:18 
012120  19Y08M12                         A     D    005 21:38:11:24 21:38:12:04 02:08:11:18 02:08:11:23 
*FROM CLIP NAME:  86BK2/02.SYNC.01 
*TO CLIP NAME:  86BK5/02.SYNC.01 
*SOURCE FILE: 19Y08M12
012121  19Y08M12                         A2    C        21:00:44:23 21:00:44:23 02:08:11:18 02:08:11:18 
012121  19Y08M12                         A2    D    005 21:38:11:24 21:38:12:04 02:08:11:18 02:08:11:23 
*FROM CLIP NAME:  86BK2/02.SYNC.01 
*TO CLIP NAME:  86BK5/02.SYNC.01 
*SOURCE FILE: 19Y08M12
012122  19Y08M12                         A3    C        21:00:44:23 21:00:44:23 02:08:11:18 02:08:11:18 
012122  19Y08M12                         A3    D    005 21:38:11:24 21:38:12:04 02:08:11:18 02:08:11:23 
*FROM CLIP NAME:  86BK2/02.SYNC.01 
*TO CLIP NAME:  86BK5/02.SYNC.01 
*PATCH 19Y08M12:  FROM SOURCE 7 TO RECORD 3 
*PATCH 19Y08M12:  FROM SOURCE 7 TO RECORD 3 
*SOURCE FILE: 19Y08M12
012123  19Y08M12                         A4    C        21:00:44:23 21:00:44:23 02:08:11:18 02:08:11:18 
012123  19Y08M12                         A4    D    005 21:38:11:24 21:38:12:04 02:08:11:18 02:08:11:23 
*FROM CLIP NAME:  86BK2/02.SYNC.01 
*TO CLIP NAME:  86BK5/02.SYNC.01 
*PATCH 19Y08M12:  FROM SOURCE 8 TO RECORD 4 
*PATCH 19Y08M12:  FROM SOURCE 8 TO RECORD 4 
*SOURCE FILE: 19Y08M12
012124  MSMMMOB.33                       V     C        21:38:12:01 21:38:16:01 02:08:11:18 02:08:15:18 
M2      MSMMMOB.33                                025.0 21:38:12:01 
*FROM CLIP NAME:  A070C001_190812_R32C 
*SOURCE FILE: MSMMMOB.33
012125  19Y08M12                         A     C        21:38:12:04 21:38:15:09 02:08:11:23 02:08:15:03 
*FROM CLIP NAME:  86BK5/02.SYNC.01 
*SOURCE FILE: 19Y08M12
012126  19Y08M12                         A2    C        21:38:12:04 21:38:15:09 02:08:11:23 02:08:15:03 
*FROM CLIP NAME:  86BK5/02.SYNC.01 
*SOURCE FILE: 19Y08M12
012127  19Y08M12                         A3    C        21:38:12:04 21:38:15:09 02:08:11:23 02:08:15:03 
*FROM CLIP NAME:  86BK5/02.SYNC.01 
*PATCH 19Y08M12:  FROM SOURCE 7 TO RECORD 3 
*SOURCE FILE: 19Y08M12
012128  19Y08M12                         A4    C        21:38:12:04 21:38:15:09 02:08:11:23 02:08:15:03 
*FROM CLIP NAME:  86BK5/02.SYNC.01 
*PATCH 19Y08M12:  FROM SOURCE 8 TO RECORD 4 
*SOURCE FILE: 19Y08M12
012129  19Y08M12                         A     C        21:38:15:09 21:38:15:09 02:08:15:03 02:08:15:03 
012129  19Y08M12                         A     D    005 22:09:30:08 22:09:30:13 02:08:15:03 02:08:15:08 
*FROM CLIP NAME:  86BK5/02.SYNC.01 
*TO CLIP NAME:  86BK7/02.SYNC.01 
*SOURCE FILE: 19Y08M12
012130  19Y08M12                         A2    C        21:38:15:09 21:38:15:09 02:08:15:03 02:08:15:03 
012130  19Y08M12                         A2    D    005 22:09:30:08 22:09:30:13 02:08:15:03 02:08:15:08 
*FROM CLIP NAME:  86BK5/02.SYNC.01 
*TO CLIP NAME:  86BK7/02.SYNC.01 
*SOURCE FILE: 19Y08M12
012131  19Y08M12                         A3    C        21:38:15:09 21:38:15:09 02:08:15:03 02:08:15:03 
012131  19Y08M12                         A3    D    005 22:09:30:08 22:09:30:13 02:08:15:03 02:08:15:08 
*FROM CLIP NAME:  86BK5/02.SYNC.01 
*TO CLIP NAME:  86BK7/02.SYNC.01 
*PATCH 19Y08M12:  FROM SOURCE 7 TO RECORD 3 
*PATCH 19Y08M12:  FROM SOURCE 7 TO RECORD 3 
*SOURCE FILE: 19Y08M12
012132  19Y08M12                         A4    C        21:38:15:09 21:38:15:09 02:08:15:03 02:08:15:03 
012132  19Y08M12                         A4    D    005 22:09:30:08 22:09:30:13 02:08:15:03 02:08:15:08 
*FROM CLIP NAME:  86BK5/02.SYNC.01 
*TO CLIP NAME:  86BK7/02.SYNC.01 
*PATCH 19Y08M12:  FROM SOURCE 8 TO RECORD 4 
*PATCH 19Y08M12:  FROM SOURCE 8 TO RECORD 4 
*SOURCE FILE: 19Y08M12
012133  19Y08M12                         A     C        22:09:30:13 22:09:34:10 02:08:15:08 02:08:19:05 
*FROM CLIP NAME:  86BK7/02.SYNC.01 
*SOURCE FILE: 19Y08M12
012134  19Y08M12                         A2    C        22:09:30:13 22:09:34:10 02:08:15:08 02:08:19:05 
*FROM CLIP NAME:  86BK7/02.SYNC.01 
*SOURCE FILE: 19Y08M12
012135  19Y08M12                         A3    C        22:09:30:13 22:09:34:10 02:08:15:08 02:08:19:05 
*FROM CLIP NAME:  86BK7/02.SYNC.01 
*PATCH 19Y08M12:  FROM SOURCE 7 TO RECORD 3 
*SOURCE FILE: 19Y08M12
012136  19Y08M12                         A4    C        22:09:30:13 22:09:34:10 02:08:15:08 02:08:19:05 
*FROM CLIP NAME:  86BK7/02.SYNC.01 
*PATCH 19Y08M12:  FROM SOURCE 8 TO RECORD 4 
*SOURCE FILE: 19Y08M12
012137  MSMMMOB.29                       V     C        22:09:31:00 22:09:32:22 02:08:15:18 02:08:17:15 
M2      MSMMMOB.29                                025.0 22:09:31:00 
*FROM CLIP NAME:  A070C005_190812_R32C 
*SOURCE FILE: MSMMMOB.29
012138  MSMMMOB.34                       V     C        21:56:25:03 21:56:29:06 02:08:17:15 02:08:21:18 
M2      MSMMMOB.34                                025.0 21:56:25:03 
*FROM CLIP NAME:  A070C003_190812_R32C 
*SOURCE FILE: MSMMMOB.34
012139  19Y08M12                         A     C        21:38:18:17 21:38:21:05 02:08:19:05 02:08:21:18 
*FROM CLIP NAME:  86BK5/02.SYNC.01 
*SOURCE FILE: 19Y08M12
012140  19Y08M12                         A2    C        21:38:18:17 21:38:21:05 02:08:19:05 02:08:21:18 
*FROM CLIP NAME:  86BK5/02.SYNC.01 
*SOURCE FILE: 19Y08M12
012141  19Y08M12                         A3    C        21:38:18:17 21:38:21:05 02:08:19:05 02:08:21:18 
*FROM CLIP NAME:  86BK5/02.SYNC.01 
*PATCH 19Y08M12:  FROM SOURCE 7 TO RECORD 3 
*SOURCE FILE: 19Y08M12
012142  19Y08M12                         A4    C        21:38:18:17 21:38:21:05 02:08:19:05 02:08:21:18 
*FROM CLIP NAME:  86BK5/02.SYNC.01 
*PATCH 19Y08M12:  FROM SOURCE 8 TO RECORD 4 
*SOURCE FILE: 19Y08M12
012143  BL                               V     C        00:00:00:00 00:00:05:08 02:08:20:02 02:08:25:10 
*SOURCE FILE: (NULL)
012144  19Y08M12                         A     C        20:38:52:22 20:38:54:24 02:08:21:18 02:08:23:20 
*FROM CLIP NAME:  86BK1/02.SYNC.01 
*SOURCE FILE: 19Y08M12
012145  19Y08M12                         A2    C        20:38:52:22 20:38:54:24 02:08:21:18 02:08:23:20 
*FROM CLIP NAME:  86BK1/02.SYNC.01 
*SOURCE FILE: 19Y08M12
012146  19Y08M12                         A3    C        20:38:52:22 20:38:54:24 02:08:21:18 02:08:23:20 
*FROM CLIP NAME:  86BK1/02.SYNC.01 
*PATCH 19Y08M12:  FROM SOURCE 7 TO RECORD 3 
*SOURCE FILE: 19Y08M12
012147  19Y08M12                         A4    C        20:38:52:22 20:38:54:24 02:08:21:18 02:08:23:20 
*FROM CLIP NAME:  86BK1/02.SYNC.01 
*PATCH 19Y08M12:  FROM SOURCE 8 TO RECORD 4 
*SOURCE FILE: 19Y08M12
012148  MSMMMOB.29                       V     C        22:09:37:22 22:09:45:09 02:08:21:18 02:08:29:05 
M2      MSMMMOB.29                                025.0 22:09:37:22 
*FROM CLIP NAME:  A070C005_190812_R32C 
*SOURCE FILE: MSMMMOB.29
012149  19Y08M12                         A     C        22:09:39:22 22:09:45:07 02:08:23:20 02:08:29:05 
*FROM CLIP NAME:  86BK7/02.SYNC.01 
*SOURCE FILE: 19Y08M12
012150  19Y08M12                         A2    C        22:09:39:22 22:09:45:07 02:08:23:20 02:08:29:05 
*FROM CLIP NAME:  86BK7/02.SYNC.01 
*SOURCE FILE: 19Y08M12
012151  19Y08M12                         A3    C        22:09:39:22 22:09:45:07 02:08:23:20 02:08:29:05 
*FROM CLIP NAME:  86BK7/02.SYNC.01 
*PATCH 19Y08M12:  FROM SOURCE 7 TO RECORD 3 
*SOURCE FILE: 19Y08M12
012152  19Y08M12                         A4    C        22:09:39:22 22:09:45:07 02:08:23:20 02:08:29:05 
*FROM CLIP NAME:  86BK7/02.SYNC.01 
*PATCH 19Y08M12:  FROM SOURCE 8 TO RECORD 4 
*SOURCE FILE: 19Y08M12
012153  BL                               V     C        00:00:00:00 00:01:24:15 02:08:25:10 02:09:50:00 
*SOURCE FILE: (NULL)
012154  19Y08M12                         A     C        22:09:52:21 22:09:52:23 02:08:29:05 02:08:29:07 
*FROM CLIP NAME:  86BK7/02.SYNC.01 
*SOURCE FILE: 19Y08M12
012155  19Y08M12                         A2    C        22:09:52:21 22:09:52:23 02:08:29:05 02:08:29:07 
*FROM CLIP NAME:  86BK7/02.SYNC.01 
*SOURCE FILE: 19Y08M12
012156  19Y08M12                         A3    C        22:09:52:21 22:09:52:23 02:08:29:05 02:08:29:07 
*FROM CLIP NAME:  86BK7/02.SYNC.01 
*PATCH 19Y08M12:  FROM SOURCE 7 TO RECORD 3 
*SOURCE FILE: 19Y08M12
012157  19Y08M12                         A4    C        22:09:52:21 22:09:52:23 02:08:29:05 02:08:29:07 
*FROM CLIP NAME:  86BK7/02.SYNC.01 
*PATCH 19Y08M12:  FROM SOURCE 8 TO RECORD 4 
*SOURCE FILE: 19Y08M12
012158  MSMMMOB.29                       V     C        22:09:52:23 22:10:05:02 02:08:29:05 02:08:41:09 
M2      MSMMMOB.29                                025.0 22:09:52:23 
*FROM CLIP NAME:  A070C005_190812_R32C 
*SOURCE FILE: MSMMMOB.29
012159  19Y08M12                         A     C        22:09:46:18 22:09:47:21 02:08:29:07 02:08:30:10 
*FROM CLIP NAME:  86BK7/02.SYNC.01 
*SOURCE FILE: 19Y08M12
012160  19Y08M12                         A2    C        22:09:46:18 22:09:47:21 02:08:29:07 02:08:30:10 
*FROM CLIP NAME:  86BK7/02.SYNC.01 
*SOURCE FILE: 19Y08M12
012161  19Y08M12                         A3    C        22:09:46:18 22:09:47:21 02:08:29:07 02:08:30:10 
*FROM CLIP NAME:  86BK7/02.SYNC.01 
*PATCH 19Y08M12:  FROM SOURCE 7 TO RECORD 3 
*SOURCE FILE: 19Y08M12
012162  19Y08M12                         A4    C        22:09:46:18 22:09:47:21 02:08:29:07 02:08:30:10 
*FROM CLIP NAME:  86BK7/02.SYNC.01 
*PATCH 19Y08M12:  FROM SOURCE 8 TO RECORD 4 
*SOURCE FILE: 19Y08M12
012163  19Y08M12                         A     C        22:09:54:01 22:10:05:20 02:08:30:10 02:08:42:04 
*FROM CLIP NAME:  86BK7/02.SYNC.01 
*SOURCE FILE: 19Y08M12
012164  19Y08M12                         A2    C        22:09:54:01 22:10:05:20 02:08:30:10 02:08:42:04 
*FROM CLIP NAME:  86BK7/02.SYNC.01 
*SOURCE FILE: 19Y08M12
012165  19Y08M12                         A3    C        22:09:54:01 22:10:05:20 02:08:30:10 02:08:42:04 
*FROM CLIP NAME:  86BK7/02.SYNC.01 
*PATCH 19Y08M12:  FROM SOURCE 7 TO RECORD 3 
*SOURCE FILE: 19Y08M12
012166  19Y08M12                         A4    C        22:09:54:01 22:10:05:20 02:08:30:10 02:08:42:04 
*FROM CLIP NAME:  86BK7/02.SYNC.01 
*PATCH 19Y08M12:  FROM SOURCE 8 TO RECORD 4 
*SOURCE FILE: 19Y08M12
012167  MSMMMOB.07                       V     C        22:33:44:16 22:33:47:22 02:08:41:09 02:08:44:15 
M2      MSMMMOB.07                                025.0 22:33:44:16 
*FROM CLIP NAME:  A070C010_190812_R32C 
*SOURCE FILE: MSMMMOB.07
012168  19Y08M12                         A5    C        22:07:47:15 22:07:49:02 02:08:41:19 02:08:43:06 
*FROM CLIP NAME:  86BK7/01.SYNC.01 
*PATCH 19Y08M12:  FROM SOURCE 1 TO RECORD 5 
*SOURCE FILE: 19Y08M12
012169  19Y08M12                         A6    C        22:07:47:15 22:07:49:02 02:08:41:19 02:08:43:06 
*FROM CLIP NAME:  86BK7/01.SYNC.01 
*PATCH 19Y08M12:  FROM SOURCE 2 TO RECORD 6 
*SOURCE FILE: 19Y08M12
012170  19Y08M12                         A7    C        22:07:47:15 22:07:49:02 02:08:41:19 02:08:43:06 
*FROM CLIP NAME:  86BK7/01.SYNC.01 
*SOURCE FILE: 19Y08M12
012171  19Y08M12                         A8    C        22:07:47:15 22:07:49:02 02:08:41:19 02:08:43:06 
*FROM CLIP NAME:  86BK7/01.SYNC.01 
*SOURCE FILE: 19Y08M12
012172  19Y08M12                         A     C        22:33:45:09 22:33:47:20 02:08:42:04 02:08:44:15 
*FROM CLIP NAME:  86BK9/01.SYNC.01 
*SOURCE FILE: 19Y08M12
012173  19Y08M12                         A2    C        22:33:45:09 22:33:47:20 02:08:42:04 02:08:44:15 
*FROM CLIP NAME:  86BK9/01.SYNC.01 
*SOURCE FILE: 19Y08M12
012174  19Y08M12                         A3    C        22:33:45:09 22:33:47:20 02:08:42:04 02:08:44:15 
*FROM CLIP NAME:  86BK9/01.SYNC.01 
*PATCH 19Y08M12:  FROM SOURCE 7 TO RECORD 3 
*SOURCE FILE: 19Y08M12
012175  MSMMMOB.22                       V     C        13:24:31:07 13:24:41:14 02:08:44:15 02:08:54:22 
M2      MSMMMOB.22                                025.0 13:24:31:07 
*FROM CLIP NAME:  A066C014_190812_R32C 
*SOURCE FILE: MSMMMOB.22
012176  19Y08M12                         A     C        13:24:31:06 13:24:41:13 02:08:44:15 02:08:54:22 
*FROM CLIP NAME:  87K4/05.SYNC.01 
*SOURCE FILE: 19Y08M12
012177  19Y08M12                         A2    C        13:24:31:06 13:24:41:13 02:08:44:15 02:08:54:22 
*FROM CLIP NAME:  87K4/05.SYNC.01 
*SOURCE FILE: 19Y08M12
012178  19Y08M12                         A3    C        13:24:31:06 13:24:41:13 02:08:44:15 02:08:54:22 
*FROM CLIP NAME:  87K4/05.SYNC.01 
*PATCH 19Y08M12:  FROM SOURCE 7 TO RECORD 3 
*SOURCE FILE: 19Y08M12
012179  19Y08M12                         A4    C        13:24:31:06 13:24:41:13 02:08:44:15 02:08:54:22 
*FROM CLIP NAME:  87K4/05.SYNC.01 
*PATCH 19Y08M12:  FROM SOURCE 8 TO RECORD 4 
*SOURCE FILE: 19Y08M12
012180  MSMMMOB.03                       V     C        13:33:31:24 13:33:33:08 02:08:54:22 02:08:56:06 
M2      MSMMMOB.03                                025.0 13:33:31:24 
*FROM CLIP NAME:  A066C016_190812_R32C 
*SOURCE FILE: MSMMMOB.03
012181  19Y08M12                         A     C        13:33:31:23 13:33:33:07 02:08:54:22 02:08:56:06 
*FROM CLIP NAME:  87K5/02.SYNC.01 
*SOURCE FILE: 19Y08M12
012182  19Y08M12                         A2    C        13:33:31:23 13:33:33:07 02:08:54:22 02:08:56:06 
*FROM CLIP NAME:  87K5/02.SYNC.01 
*SOURCE FILE: 19Y08M12
012183  19Y08M12                         A3    C        13:33:31:23 13:33:33:07 02:08:54:22 02:08:56:06 
*FROM CLIP NAME:  87K5/02.SYNC.01 
*PATCH 19Y08M12:  FROM SOURCE 8 TO RECORD 3 
*SOURCE FILE: 19Y08M12
012184  19Y08M12                         A4    C        13:33:31:23 13:33:33:07 02:08:54:22 02:08:56:06 
*FROM CLIP NAME:  87K5/02.SYNC.01 
*PATCH 19Y08M12:  FROM SOURCE 7 TO RECORD 4 
*SOURCE FILE: 19Y08M12
012185  19Y08M12                         A     C        13:33:33:24 13:33:34:00 02:08:56:06 02:08:56:07 
*FROM CLIP NAME:  87K5/02.SYNC.01 
*SOURCE FILE: 19Y08M12
012186  19Y08M12                         A2    C        13:33:33:24 13:33:34:00 02:08:56:06 02:08:56:07 
*FROM CLIP NAME:  87K5/02.SYNC.01 
*SOURCE FILE: 19Y08M12
012187  19Y08M12                         A3    C        13:33:33:24 13:33:34:00 02:08:56:06 02:08:56:07 
*FROM CLIP NAME:  87K5/02.SYNC.01 
*PATCH 19Y08M12:  FROM SOURCE 8 TO RECORD 3 
*SOURCE FILE: 19Y08M12
012188  19Y08M12                         A4    C        13:33:33:24 13:33:34:00 02:08:56:06 02:08:56:07 
*FROM CLIP NAME:  87K5/02.SYNC.01 
*PATCH 19Y08M12:  FROM SOURCE 7 TO RECORD 4 
*SOURCE FILE: 19Y08M12
012189  MSMMMOB.22                       V     C        13:24:41:24 13:24:42:24 02:08:56:06 02:08:57:06 
M2      MSMMMOB.22                                025.0 13:24:41:24 
*FROM CLIP NAME:  A066C014_190812_R32C 
*SOURCE FILE: MSMMMOB.22
012190  19Y08M12                         A     C        13:24:41:24 13:24:43:04 02:08:56:07 02:08:57:12 
*FROM CLIP NAME:  87K4/05.SYNC.01 
*SOURCE FILE: 19Y08M12
012191  19Y08M12                         A2    C        13:24:41:24 13:24:43:04 02:08:56:07 02:08:57:12 
*FROM CLIP NAME:  87K4/05.SYNC.01 
*SOURCE FILE: 19Y08M12
012192  19Y08M12                         A3    C        13:24:41:24 13:24:43:04 02:08:56:07 02:08:57:12 
*FROM CLIP NAME:  87K4/05.SYNC.01 
*PATCH 19Y08M12:  FROM SOURCE 7 TO RECORD 3 
*SOURCE FILE: 19Y08M12
012193  19Y08M12                         A4    C        13:24:41:24 13:24:43:04 02:08:56:07 02:08:57:12 
*FROM CLIP NAME:  87K4/05.SYNC.01 
*PATCH 19Y08M12:  FROM SOURCE 8 TO RECORD 4 
*SOURCE FILE: 19Y08M12
012194  MSMMMOB.17                       V     C        13:35:29:09 13:35:34:13 02:08:57:06 02:09:02:10 
M2      MSMMMOB.17                                025.0 13:35:29:09 
*FROM CLIP NAME:  A066C017_190812_R32C 
*SOURCE FILE: MSMMMOB.17
012195  19Y08M12                         A     C        13:35:29:14 13:35:36:07 02:08:57:12 02:09:04:05 
*FROM CLIP NAME:  87K5/03.SYNC.01 
*SOURCE FILE: 19Y08M12
012196  19Y08M12                         A2    C        13:35:29:14 13:35:36:07 02:08:57:12 02:09:04:05 
*FROM CLIP NAME:  87K5/03.SYNC.01 
*SOURCE FILE: 19Y08M12
012197  19Y08M12                         A3    C        13:35:29:14 13:35:36:07 02:08:57:12 02:09:04:05 
*FROM CLIP NAME:  87K5/03.SYNC.01 
*PATCH 19Y08M12:  FROM SOURCE 8 TO RECORD 3 
*SOURCE FILE: 19Y08M12
012198  19Y08M12                         A4    C        13:35:29:14 13:35:36:07 02:08:57:12 02:09:04:05 
*FROM CLIP NAME:  87K5/03.SYNC.01 
*PATCH 19Y08M12:  FROM SOURCE 7 TO RECORD 4 
*SOURCE FILE: 19Y08M12
012199  MSMMMOB.22                       V     C        13:24:47:01 13:24:53:05 02:09:02:10 02:09:08:14 
M2      MSMMMOB.22                                025.0 13:24:47:01 
*FROM CLIP NAME:  A066C014_190812_R32C 
*SOURCE FILE: MSMMMOB.22
012200  19Y08M12                         A     C        13:24:48:20 13:24:53:14 02:09:04:05 02:09:08:24 
*FROM CLIP NAME:  87K4/05.SYNC.01 
*SOURCE FILE: 19Y08M12
012201  19Y08M12                         A2    C        13:24:48:20 13:24:53:14 02:09:04:05 02:09:08:24 
*FROM CLIP NAME:  87K4/05.SYNC.01 
*SOURCE FILE: 19Y08M12
012202  19Y08M12                         A3    C        13:24:48:20 13:24:53:14 02:09:04:05 02:09:08:24 
*FROM CLIP NAME:  87K4/05.SYNC.01 
*PATCH 19Y08M12:  FROM SOURCE 7 TO RECORD 3 
*SOURCE FILE: 19Y08M12
012203  19Y08M12                         A4    C        13:24:48:20 13:24:53:14 02:09:04:05 02:09:08:24 
*FROM CLIP NAME:  87K4/05.SYNC.01 
*PATCH 19Y08M12:  FROM SOURCE 8 TO RECORD 4 
*SOURCE FILE: 19Y08M12
012204  MSMMMOB.18                       V     C        13:41:55:02 13:41:57:08 02:09:08:14 02:09:10:20 
M2      MSMMMOB.18                                025.0 13:41:55:02 
*FROM CLIP NAME:  A066C019_190812_R32C 
*SOURCE FILE: MSMMMOB.18
012205  19Y08M12                         A     C        13:41:55:11 13:41:57:07 02:09:08:24 02:09:10:20 
*FROM CLIP NAME:  87K6/02.SYNC.01 
*SOURCE FILE: 19Y08M12
012206  19Y08M12                         A2    C        13:41:55:11 13:41:57:07 02:09:08:24 02:09:10:20 
*FROM CLIP NAME:  87K6/02.SYNC.01 
*SOURCE FILE: 19Y08M12
012207  19Y08M12                         A3    C        13:41:55:11 13:41:57:07 02:09:08:24 02:09:10:20 
*FROM CLIP NAME:  87K6/02.SYNC.01 
*PATCH 19Y08M12:  FROM SOURCE 8 TO RECORD 3 
*SOURCE FILE: 19Y08M12
012208  19Y08M12                         A4    C        13:41:55:11 13:41:57:07 02:09:08:24 02:09:10:20 
*FROM CLIP NAME:  87K6/02.SYNC.01 
*A4 VOL = +12.0 DB  PAN L100 
*PATCH 19Y08M12:  FROM SOURCE 7 TO RECORD 4 
*SOURCE FILE: 19Y08M12
012209  MSMMMOB.22                       V     C        13:24:54:16 13:24:56:04 02:09:10:20 02:09:12:08 
M2      MSMMMOB.22                                025.0 13:24:54:16 
*FROM CLIP NAME:  A066C014_190812_R32C 
*SOURCE FILE: MSMMMOB.22
012210  19Y08M12                         A     C        13:24:54:15 13:24:56:03 02:09:10:20 02:09:12:08 
*FROM CLIP NAME:  87K4/05.SYNC.01 
*SOURCE FILE: 19Y08M12
012211  19Y08M12                         A2    C        13:24:54:15 13:24:56:03 02:09:10:20 02:09:12:08 
*FROM CLIP NAME:  87K4/05.SYNC.01 
*SOURCE FILE: 19Y08M12
012212  19Y08M12                         A3    C        13:24:54:15 13:24:56:03 02:09:10:20 02:09:12:08 
*FROM CLIP NAME:  87K4/05.SYNC.01 
*PATCH 19Y08M12:  FROM SOURCE 7 TO RECORD 3 
*SOURCE FILE: 19Y08M12
012213  19Y08M12                         A4    C        13:24:54:15 13:24:56:03 02:09:10:20 02:09:12:08 
*FROM CLIP NAME:  87K4/05.SYNC.01 
*PATCH 19Y08M12:  FROM SOURCE 8 TO RECORD 4 
*SOURCE FILE: 19Y08M12
012214  MSMMMOB.18                       V     C        13:41:58:22 13:42:02:01 02:09:12:08 02:09:15:12 
M2      MSMMMOB.18                                025.0 13:41:58:22 
*FROM CLIP NAME:  A066C019_190812_R32C 
*SOURCE FILE: MSMMMOB.18
012215  19Y08M12                         A     C        13:41:58:21 13:42:02:00 02:09:12:08 02:09:15:12 
*FROM CLIP NAME:  87K6/02.SYNC.01 
*SOURCE FILE: 19Y08M12
012216  19Y08M12                         A2    C        13:41:58:21 13:42:02:00 02:09:12:08 02:09:15:12 
*FROM CLIP NAME:  87K6/02.SYNC.01 
*SOURCE FILE: 19Y08M12
012217  19Y08M12                         A3    C        13:41:58:21 13:42:02:00 02:09:12:08 02:09:15:12 
*FROM CLIP NAME:  87K6/02.SYNC.01 
*PATCH 19Y08M12:  FROM SOURCE 8 TO RECORD 3 
*SOURCE FILE: 19Y08M12
012218  19Y08M12                         A4    C        13:41:58:21 13:42:02:00 02:09:12:08 02:09:15:12 
*FROM CLIP NAME:  87K6/02.SYNC.01 
*PATCH 19Y08M12:  FROM SOURCE 7 TO RECORD 4 
*SOURCE FILE: 19Y08M12
012219  MSMMMOB.04                       V     C        13:27:25:07 13:27:27:21 02:09:15:12 02:09:18:01 
M2      MSMMMOB.04                                025.0 13:27:25:07 
*FROM CLIP NAME:  A042C010_190805_R32C 
*SOURCE FILE: MSMMMOB.04
012220  19Y08M05                         A     C        13:27:25:06 13:27:27:20 02:09:15:12 02:09:18:01 
*FROM CLIP NAME:  88K1/03.SYNC.01 
*SOURCE FILE: 19Y08M05
012221  19Y08M05                         A2    C        13:27:25:06 13:27:27:20 02:09:15:12 02:09:18:01 
*FROM CLIP NAME:  88K1/03.SYNC.01 
*SOURCE FILE: 19Y08M05
012222  19Y08M05                         A3    C        13:27:25:06 13:27:27:20 02:09:15:12 02:09:18:01 
*FROM CLIP NAME:  88K1/03.SYNC.01 
*SOURCE FILE: 19Y08M05
012223  19Y08M05                         A4    C        13:27:25:06 13:27:27:20 02:09:15:12 02:09:18:01 
*FROM CLIP NAME:  88K1/03.SYNC.01 
*PATCH 19Y08M05:  FROM SOURCE 5 TO RECORD 4 
*SOURCE FILE: 19Y08M05
012224  19Y08M05                         A5    C        13:27:25:06 13:27:27:20 02:09:15:12 02:09:18:01 
*FROM CLIP NAME:  88K1/03.SYNC.01 
*PATCH 19Y08M05:  FROM SOURCE 6 TO RECORD 5 
*SOURCE FILE: 19Y08M05
012225  19Y08M05                         A6    C        13:27:25:06 13:27:27:20 02:09:15:12 02:09:18:01 
*FROM CLIP NAME:  88K1/03.SYNC.01 
*PATCH 19Y08M05:  FROM SOURCE 7 TO RECORD 6 
*SOURCE FILE: 19Y08M05
012226  MSMMMOB.32                       V     C        13:42:31:21 13:42:42:12 02:09:18:01 02:09:28:17 
M2      MSMMMOB.32                                025.0 13:42:31:21 
*FROM CLIP NAME:  A043C004_190805_R32C 
*SOURCE FILE: MSMMMOB.32
012227  19Y08M05                         A     C        13:42:31:20 13:42:42:11 02:09:18:01 02:09:28:17 
*FROM CLIP NAME:  88K2/03.SYNC.01 
*SOURCE FILE: 19Y08M05
012228  19Y08M05                         A2    C        13:42:31:20 13:42:42:11 02:09:18:01 02:09:28:17 
*FROM CLIP NAME:  88K2/03.SYNC.01 
*SOURCE FILE: 19Y08M05
012229  19Y08M05                         A3    C        13:42:31:20 13:42:42:11 02:09:18:01 02:09:28:17 
*FROM CLIP NAME:  88K2/03.SYNC.01 
*SOURCE FILE: 19Y08M05
012230  19Y08M05                         A4    C        13:42:31:20 13:42:42:11 02:09:18:01 02:09:28:17 
*FROM CLIP NAME:  88K2/03.SYNC.01 
*PATCH 19Y08M05:  FROM SOURCE 7 TO RECORD 4 
*SOURCE FILE: 19Y08M05
012231  19Y08M05                         A5    C        13:42:31:20 13:42:42:11 02:09:18:01 02:09:28:17 
*FROM CLIP NAME:  88K2/03.SYNC.01 
*PATCH 19Y08M05:  FROM SOURCE 6 TO RECORD 5 
*SOURCE FILE: 19Y08M05
012232  MSMMMOB.14                       V     C        14:17:50:15 14:17:54:20 02:09:28:17 02:09:32:22 
M2      MSMMMOB.14                                025.0 14:17:50:15 
*FROM CLIP NAME:  A043C009_190805_R32C 
*SOURCE FILE: MSMMMOB.14
012233  19Y08M05                         A     C        14:17:50:14 14:17:54:19 02:09:28:17 02:09:32:22 
*FROM CLIP NAME:  88K4/02.SYNC.01 
*SOURCE FILE: 19Y08M05
012234  19Y08M05                         A2    C        14:17:50:14 14:17:54:19 02:09:28:17 02:09:32:22 
*FROM CLIP NAME:  88K4/02.SYNC.01 
*SOURCE FILE: 19Y08M05
012235  19Y08M05                         A3    C        14:17:50:14 14:17:54:19 02:09:28:17 02:09:32:22 
*FROM CLIP NAME:  88K4/02.SYNC.01 
*SOURCE FILE: 19Y08M05
012236  19Y08M05                         A4    C        14:17:50:14 14:17:54:19 02:09:28:17 02:09:32:22 
*FROM CLIP NAME:  88K4/02.SYNC.01 
*SOURCE FILE: 19Y08M05
012237  19Y08M05                         A5    C        14:17:50:14 14:17:54:19 02:09:28:17 02:09:32:22 
*FROM CLIP NAME:  88K4/02.SYNC.01 
*SOURCE FILE: 19Y08M05
012238  19Y08M05                         A6    C        14:17:50:14 14:17:54:19 02:09:28:17 02:09:32:22 
*FROM CLIP NAME:  88K4/02.SYNC.01 
*PATCH 19Y08M05:  FROM SOURCE 7 TO RECORD 6 
*SOURCE FILE: 19Y08M05
012239  19Y08M05                         A7    C        14:17:50:14 14:17:54:19 02:09:28:17 02:09:32:22 
*FROM CLIP NAME:  88K4/02.SYNC.01 
*PATCH 19Y08M05:  FROM SOURCE 6 TO RECORD 7 
*SOURCE FILE: 19Y08M05
012240  MSMMMOB.32                       V     C        13:42:55:10 13:43:03:05 02:09:32:22 02:09:40:17 
M2      MSMMMOB.32                                025.0 13:42:55:10 
*FROM CLIP NAME:  A043C004_190805_R32C 
*SOURCE FILE: MSMMMOB.32
012241  19Y08M05                         A     C        13:42:55:09 13:43:03:04 02:09:32:22 02:09:40:17 
*FROM CLIP NAME:  88K2/03.SYNC.01 
*SOURCE FILE: 19Y08M05
012242  19Y08M05                         A2    C        13:42:55:09 13:43:03:04 02:09:32:22 02:09:40:17 
*FROM CLIP NAME:  88K2/03.SYNC.01 
*SOURCE FILE: 19Y08M05
012243  19Y08M05                         A3    C        13:42:55:09 13:43:03:04 02:09:32:22 02:09:40:17 
*FROM CLIP NAME:  88K2/03.SYNC.01 
*SOURCE FILE: 19Y08M05
012244  19Y08M05                         A4    C        13:42:55:09 13:43:03:04 02:09:32:22 02:09:40:17 
*FROM CLIP NAME:  88K2/03.SYNC.01 
*PATCH 19Y08M05:  FROM SOURCE 6 TO RECORD 4 
*SOURCE FILE: 19Y08M05
012245  19Y08M05                         A5    C        13:42:55:09 13:43:03:04 02:09:32:22 02:09:40:17 
*FROM CLIP NAME:  88K2/03.SYNC.01 
*PATCH 19Y08M05:  FROM SOURCE 7 TO RECORD 5 
*SOURCE FILE: 19Y08M05
012246  19Y08M05                         A     C        13:43:03:20 13:43:04:03 02:09:40:17 02:09:41:00 
*FROM CLIP NAME:  88K2/03.SYNC.01 
*SOURCE FILE: 19Y08M05
012247  19Y08M05                         A2    C        13:43:03:20 13:43:04:03 02:09:40:17 02:09:41:00 
*FROM CLIP NAME:  88K2/03.SYNC.01 
*SOURCE FILE: 19Y08M05
012248  19Y08M05                         A3    C        13:43:03:20 13:43:04:03 02:09:40:17 02:09:41:00 
*FROM CLIP NAME:  88K2/03.SYNC.01 
*SOURCE FILE: 19Y08M05
012249  19Y08M05                         A4    C        13:43:03:20 13:43:04:03 02:09:40:17 02:09:41:00 
*FROM CLIP NAME:  88K2/03.SYNC.01 
*PATCH 19Y08M05:  FROM SOURCE 6 TO RECORD 4 
*SOURCE FILE: 19Y08M05
012250  19Y08M05                         A5    C        13:43:03:20 13:43:04:03 02:09:40:17 02:09:41:00 
*FROM CLIP NAME:  88K2/03.SYNC.01 
*PATCH 19Y08M05:  FROM SOURCE 7 TO RECORD 5 
*SOURCE FILE: 19Y08M05
012251  MSMMMOB.14                       V     C        14:18:06:24 14:18:10:14 02:09:40:17 02:09:44:07 
M2      MSMMMOB.14                                025.0 14:18:06:24 
*FROM CLIP NAME:  A043C009_190805_R32C 
*SOURCE FILE: MSMMMOB.14
012252  19Y08M05                         A     C        14:18:07:06 14:18:10:11 02:09:41:00 02:09:44:05 
*FROM CLIP NAME:  88K4/02.SYNC.01 
*SOURCE FILE: 19Y08M05
012253  19Y08M05                         A2    C        14:18:07:06 14:18:10:11 02:09:41:00 02:09:44:05 
*FROM CLIP NAME:  88K4/02.SYNC.01 
*SOURCE FILE: 19Y08M05
012254  19Y08M05                         A3    C        14:18:07:06 14:18:10:11 02:09:41:00 02:09:44:05 
*FROM CLIP NAME:  88K4/02.SYNC.01 
*SOURCE FILE: 19Y08M05
012255  19Y08M05                         A4    C        14:18:07:06 14:18:10:11 02:09:41:00 02:09:44:05 
*FROM CLIP NAME:  88K4/02.SYNC.01 
*SOURCE FILE: 19Y08M05
012256  19Y08M05                         A5    C        14:18:07:06 14:18:10:11 02:09:41:00 02:09:44:05 
*FROM CLIP NAME:  88K4/02.SYNC.01 
*SOURCE FILE: 19Y08M05
012257  19Y08M05                         A6    C        14:18:07:06 14:18:10:11 02:09:41:00 02:09:44:05 
*FROM CLIP NAME:  88K4/02.SYNC.01 
*PATCH 19Y08M05:  FROM SOURCE 7 TO RECORD 6 
*SOURCE FILE: 19Y08M05
012258  19Y08M05                         A7    C        14:18:07:06 14:18:10:13 02:09:41:00 02:09:44:07 
*FROM CLIP NAME:  88K4/02.SYNC.01 
*PATCH 19Y08M05:  FROM SOURCE 6 TO RECORD 7 
*SOURCE FILE: 19Y08M05
012259  19Y08M05                         A     C        14:18:10:11 14:18:10:11 02:09:44:05 02:09:44:05 
012259  19Y08M05                         A     D    005 14:59:40:13 14:59:40:18 02:09:44:05 02:09:44:10 
*FROM CLIP NAME:  88K4/02.SYNC.01 
*TO CLIP NAME:  88K9/02.SYNC.01 
*SOURCE FILE: 19Y08M05
012260  19Y08M05                         A2    C        14:18:10:11 14:18:10:11 02:09:44:05 02:09:44:05 
012260  19Y08M05                         A2    D    005 14:59:40:13 14:59:40:18 02:09:44:05 02:09:44:10 
*FROM CLIP NAME:  88K4/02.SYNC.01 
*TO CLIP NAME:  88K9/02.SYNC.01 
*SOURCE FILE: 19Y08M05
012261  19Y08M05                         A3    C        14:18:10:11 14:18:10:11 02:09:44:05 02:09:44:05 
012261  19Y08M05                         A3    D    005 14:59:40:13 14:59:40:18 02:09:44:05 02:09:44:10 
*FROM CLIP NAME:  88K4/02.SYNC.01 
*TO CLIP NAME:  88K9/02.SYNC.01 
*SOURCE FILE: 19Y08M05
012262  19Y08M05                         A4    C        14:18:10:11 14:18:10:11 02:09:44:05 02:09:44:05 
012262  19Y08M05                         A4    D    005 14:59:40:13 14:59:40:18 02:09:44:05 02:09:44:10 
*FROM CLIP NAME:  88K4/02.SYNC.01 
*TO CLIP NAME:  88K9/02.SYNC.01 
*SOURCE FILE: 19Y08M05
012263  19Y08M05                         A5    C        14:18:10:11 14:18:10:11 02:09:44:05 02:09:44:05 
012263  19Y08M05                         A5    D    005 14:59:40:13 14:59:40:18 02:09:44:05 02:09:44:10 
*FROM CLIP NAME:  88K4/02.SYNC.01 
*TO CLIP NAME:  88K9/02.SYNC.01 
*PATCH 19Y08M05:  FROM SOURCE 7 TO RECORD 5 
*SOURCE FILE: 19Y08M05
012264  19Y08M05                         A6    C        14:18:10:11 14:18:10:11 02:09:44:05 02:09:44:05 
012264  BL                               A6    D    005 00:00:00:00 00:00:00:05 02:09:44:05 02:09:44:10 
*FROM CLIP NAME:  88K4/02.SYNC.01 
*PATCH 19Y08M05:  FROM SOURCE 7 TO RECORD 6 
*SOURCE FILE: 19Y08M05
012265  MSMMMOB.36                       V     C        07:37:33:22 07:37:35:09 02:09:44:07 02:09:45:19 
M2      MSMMMOB.36                                025.0 07:37:33:22 
*FROM CLIP NAME:  A044C011_190805_R32C 
*SOURCE FILE: MSMMMOB.36
012266  19Y08M05                         A     C        14:59:40:18 14:59:42:02 02:09:44:10 02:09:45:19 
*FROM CLIP NAME:  88K9/02.SYNC.01 
*SOURCE FILE: 19Y08M05
012267  19Y08M05                         A2    C        14:59:40:18 14:59:42:02 02:09:44:10 02:09:45:19 
*FROM CLIP NAME:  88K9/02.SYNC.01 
*SOURCE FILE: 19Y08M05
012268  19Y08M05                         A3    C        14:59:40:18 14:59:42:02 02:09:44:10 02:09:45:19 
*FROM CLIP NAME:  88K9/02.SYNC.01 
*SOURCE FILE: 19Y08M05
012269  19Y08M05                         A4    C        14:59:40:18 14:59:42:02 02:09:44:10 02:09:45:19 
*FROM CLIP NAME:  88K9/02.SYNC.01 
*SOURCE FILE: 19Y08M05
012270  19Y08M05                         A5    C        14:59:40:18 14:59:42:02 02:09:44:10 02:09:45:19 
*FROM CLIP NAME:  88K9/02.SYNC.01 
*PATCH 19Y08M05:  FROM SOURCE 7 TO RECORD 5 
*SOURCE FILE: 19Y08M05
012271  MSMMMOB.14                       V     C        14:18:13:18 14:18:14:21 02:09:45:19 02:09:46:22 
M2      MSMMMOB.14                                025.0 14:18:13:18 
*FROM CLIP NAME:  A043C009_190805_R32C 
*SOURCE FILE: MSMMMOB.14
012272  19Y08M05                         A     C        14:18:13:17 14:18:14:20 02:09:45:19 02:09:46:22 
*FROM CLIP NAME:  88K4/02.SYNC.01 
*SOURCE FILE: 19Y08M05
012273  19Y08M05                         A2    C        14:18:13:17 14:18:14:20 02:09:45:19 02:09:46:22 
*FROM CLIP NAME:  88K4/02.SYNC.01 
*SOURCE FILE: 19Y08M05
012274  19Y08M05                         A3    C        14:18:13:17 14:18:14:20 02:09:45:19 02:09:46:22 
*FROM CLIP NAME:  88K4/02.SYNC.01 
*SOURCE FILE: 19Y08M05
012275  19Y08M05                         A4    C        14:18:13:17 14:18:14:20 02:09:45:19 02:09:46:22 
*FROM CLIP NAME:  88K4/02.SYNC.01 
*SOURCE FILE: 19Y08M05
012276  19Y08M05                         A5    C        14:18:13:17 14:18:14:20 02:09:45:19 02:09:46:22 
*FROM CLIP NAME:  88K4/02.SYNC.01 
*SOURCE FILE: 19Y08M05
012277  19Y08M05                         A6    C        14:18:13:17 14:18:14:20 02:09:45:19 02:09:46:22 
*FROM CLIP NAME:  88K4/02.SYNC.01 
*SOURCE FILE: 19Y08M05
012278  19Y08M05                         A7    C        14:18:13:17 14:18:14:20 02:09:45:19 02:09:46:22 
*FROM CLIP NAME:  88K4/02.SYNC.01 
*SOURCE FILE: 19Y08M05
012279  MSMMMOB.22                       V     C        13:35:12:06 13:35:14:20 02:09:46:22 02:09:49:11 
M2      MSMMMOB.22                                025.0 13:35:12:06 
*FROM CLIP NAME:  A043C002_190805_R32C 
*SOURCE FILE: MSMMMOB.22
012280  MSMMMOB.22                       A     C        13:35:12:06 13:35:14:20 02:09:46:22 02:09:49:11 
*FROM CLIP NAME:  A043C002_190805_R32C 
*SOURCE FILE: MSMMMOB.22
012281  MSMMMOB.22                       A2    C        13:35:12:06 13:35:14:20 02:09:46:22 02:09:49:11 
*FROM CLIP NAME:  A043C002_190805_R32C 
*SOURCE FILE: MSMMMOB.22
012282  19Y08M05                         A3    C        13:35:12:05 13:35:14:19 02:09:46:22 02:09:49:11 
*FROM CLIP NAME:  88K2/01.SYNC.01 
*SOURCE FILE: 19Y08M05
012283  19Y08M05                         A5    C        13:35:12:05 13:35:14:19 02:09:46:22 02:09:49:11 
*FROM CLIP NAME:  88K2/01.SYNC.01 
*SOURCE FILE: 19Y08M05
012284  19Y08M05                         A6    C        13:35:12:05 13:35:14:19 02:09:46:22 02:09:49:11 
*FROM CLIP NAME:  88K2/01.SYNC.01 
*SOURCE FILE: 19Y08M05
012285  19Y08M05                         A7    C        13:35:12:05 13:35:14:19 02:09:46:22 02:09:49:11 
*FROM CLIP NAME:  88K2/01.SYNC.01 
*SOURCE FILE: 19Y08M05
012286  19Y08M05                         A     C        14:59:42:02 14:59:42:15 02:09:49:11 02:09:49:24 
*FROM CLIP NAME:  88K9/02.SYNC.01 
*SOURCE FILE: 19Y08M05
012287  19Y08M05                         A2    C        14:59:42:02 14:59:42:15 02:09:49:11 02:09:49:24 
*FROM CLIP NAME:  88K9/02.SYNC.01 
*SOURCE FILE: 19Y08M05
012288  19Y08M05                         A3    C        14:59:42:02 14:59:42:15 02:09:49:11 02:09:49:24 
*FROM CLIP NAME:  88K9/02.SYNC.01 
*SOURCE FILE: 19Y08M05
012289  19Y08M05                         A4    C        14:59:42:02 14:59:42:15 02:09:49:11 02:09:49:24 
*FROM CLIP NAME:  88K9/02.SYNC.01 
*SOURCE FILE: 19Y08M05
012290  19Y08M05                         A5    C        14:59:42:02 14:59:42:15 02:09:49:11 02:09:49:24 
*FROM CLIP NAME:  88K9/02.SYNC.01 
*PATCH 19Y08M05:  FROM SOURCE 7 TO RECORD 5 
*SOURCE FILE: 19Y08M05
012291  MSMMMOB.36                       V     C        07:37:35:09 07:37:37:05 02:09:49:11 02:09:51:07 
M2      MSMMMOB.36                                025.0 07:37:35:09 
*FROM CLIP NAME:  A044C011_190805_R32C 
*SOURCE FILE: MSMMMOB.36
012292  19Y08M05                         A     C        13:47:43:10 13:47:43:19 02:09:49:24 02:09:50:08 
*FROM CLIP NAME:  88K3/01.SYNC.01 
*SOURCE FILE: 19Y08M05
012293  19Y08M05                         A2    C        13:47:43:10 13:47:43:19 02:09:49:24 02:09:50:08 
*FROM CLIP NAME:  88K3/01.SYNC.01 
*SOURCE FILE: 19Y08M05
012294  19Y08M05                         A3    C        13:47:43:10 13:47:43:19 02:09:49:24 02:09:50:08 
*FROM CLIP NAME:  88K3/01.SYNC.01 
*SOURCE FILE: 19Y08M05
012295  19Y08M05                         A4    C        13:47:43:10 13:47:43:19 02:09:49:24 02:09:50:08 
*FROM CLIP NAME:  88K3/01.SYNC.01 
*SOURCE FILE: 19Y08M05
012296  19Y08M05                         A5    C        13:47:43:10 13:47:43:19 02:09:49:24 02:09:50:08 
*FROM CLIP NAME:  88K3/01.SYNC.01 
*SOURCE FILE: 19Y08M05
012297  19Y08M05                         A6    C        13:47:43:10 13:47:43:19 02:09:49:24 02:09:50:08 
*FROM CLIP NAME:  88K3/01.SYNC.01 
*SOURCE FILE: 19Y08M05
012298  19Y08M05                         A7    C        13:47:43:10 13:47:43:19 02:09:49:24 02:09:50:08 
*FROM CLIP NAME:  88K3/01.SYNC.01 
*SOURCE FILE: 19Y08M05
012299  BL                               V     C        00:00:00:00 00:00:01:07 02:09:50:00 02:09:51:07 
*SOURCE FILE: (NULL)
012300  19Y08M05                         A     C        14:59:42:24 14:59:43:23 02:09:50:08 02:09:51:07 
*FROM CLIP NAME:  88K9/02.SYNC.01 
*SOURCE FILE: 19Y08M05
012301  19Y08M05                         A2    C        14:59:42:24 14:59:43:23 02:09:50:08 02:09:51:07 
*FROM CLIP NAME:  88K9/02.SYNC.01 
*SOURCE FILE: 19Y08M05
012302  19Y08M05                         A3    C        14:59:42:24 14:59:43:23 02:09:50:08 02:09:51:07 
*FROM CLIP NAME:  88K9/02.SYNC.01 
*SOURCE FILE: 19Y08M05
012303  19Y08M05                         A4    C        14:59:42:24 14:59:43:23 02:09:50:08 02:09:51:07 
*FROM CLIP NAME:  88K9/02.SYNC.01 
*SOURCE FILE: 19Y08M05
012304  19Y08M05                         A5    C        14:59:42:24 14:59:43:23 02:09:50:08 02:09:51:07 
*FROM CLIP NAME:  88K9/02.SYNC.01 
*PATCH 19Y08M05:  FROM SOURCE 7 TO RECORD 5 
*SOURCE FILE: 19Y08M05
012305  MSMMMOB.14                       V     C        14:18:29:10 14:18:30:09 02:09:51:07 02:09:52:06 
M2      MSMMMOB.14                                025.0 14:18:29:10 
*FROM CLIP NAME:  A043C009_190805_R32C 
*SOURCE FILE: MSMMMOB.14
012306  19Y08M05                         A     C        14:18:29:09 14:18:30:08 02:09:51:07 02:09:52:06 
*FROM CLIP NAME:  88K4/02.SYNC.01 
*SOURCE FILE: 19Y08M05
012307  19Y08M05                         A2    C        14:18:29:09 14:18:30:08 02:09:51:07 02:09:52:06 
*FROM CLIP NAME:  88K4/02.SYNC.01 
*SOURCE FILE: 19Y08M05
012308  19Y08M05                         A3    C        14:18:29:09 14:18:30:08 02:09:51:07 02:09:52:06 
*FROM CLIP NAME:  88K4/02.SYNC.01 
*SOURCE FILE: 19Y08M05
012309  19Y08M05                         A4    C        14:18:29:09 14:18:30:08 02:09:51:07 02:09:52:06 
*FROM CLIP NAME:  88K4/02.SYNC.01 
*SOURCE FILE: 19Y08M05
012310  19Y08M05                         A5    C        14:18:29:09 14:18:30:08 02:09:51:07 02:09:52:06 
*FROM CLIP NAME:  88K4/02.SYNC.01 
*SOURCE FILE: 19Y08M05
012311  19Y08M05                         A6    C        14:18:29:09 14:18:30:08 02:09:51:07 02:09:52:06 
*FROM CLIP NAME:  88K4/02.SYNC.01 
*PATCH 19Y08M05:  FROM SOURCE 7 TO RECORD 6 
*SOURCE FILE: 19Y08M05
012312  19Y08M05                         A7    C        14:18:29:09 14:18:30:08 02:09:51:07 02:09:52:06 
*FROM CLIP NAME:  88K4/02.SYNC.01 
*PATCH 19Y08M05:  FROM SOURCE 6 TO RECORD 7 
*SOURCE FILE: 19Y08M05
012313  BL                               V     C        00:00:00:00 00:01:43:17 02:09:51:07 02:11:34:24 
*SOURCE FILE: (NULL)
012314  19Y08M05                         A     C        14:18:37:02 14:18:37:05 02:09:52:06 02:09:52:09 
*FROM CLIP NAME:  88K4/02.SYNC.01 
*SOURCE FILE: 19Y08M05
012315  19Y08M05                         A2    C        14:18:37:02 14:18:37:05 02:09:52:06 02:09:52:09 
*FROM CLIP NAME:  88K4/02.SYNC.01 
*SOURCE FILE: 19Y08M05
012316  19Y08M05                         A3    C        14:18:37:02 14:18:37:05 02:09:52:06 02:09:52:09 
*FROM CLIP NAME:  88K4/02.SYNC.01 
*SOURCE FILE: 19Y08M05
012317  19Y08M05                         A4    C        14:18:37:02 14:18:37:05 02:09:52:06 02:09:52:09 
*FROM CLIP NAME:  88K4/02.SYNC.01 
*SOURCE FILE: 19Y08M05
012318  19Y08M05                         A5    C        14:18:37:02 14:18:37:05 02:09:52:06 02:09:52:09 
*FROM CLIP NAME:  88K4/02.SYNC.01 
*SOURCE FILE: 19Y08M05
012319  19Y08M05                         A6    C        14:18:37:02 14:18:37:05 02:09:52:06 02:09:52:09 
*FROM CLIP NAME:  88K4/02.SYNC.01 
*SOURCE FILE: 19Y08M05
012320  19Y08M05                         A7    C        14:18:37:02 14:18:37:05 02:09:52:06 02:09:52:09 
*FROM CLIP NAME:  88K4/02.SYNC.01 
*SOURCE FILE: 19Y08M05
012321  MSMMMOB.51                       V     C        13:52:49:12 13:52:50:19 02:09:52:06 02:09:53:13 
M2      MSMMMOB.51                                025.0 13:52:49:12 
*FROM CLIP NAME:  A043C007_190805_R32C 
*SOURCE FILE: MSMMMOB.51
012322  19Y08M05                         A     C        14:18:35:13 14:18:36:03 02:09:52:09 02:09:52:24 
*FROM CLIP NAME:  88K4/02.SYNC.01 
*SOURCE FILE: 19Y08M05
012323  19Y08M05                         A2    C        14:18:35:13 14:18:36:03 02:09:52:09 02:09:52:24 
*FROM CLIP NAME:  88K4/02.SYNC.01 
*SOURCE FILE: 19Y08M05
012324  19Y08M05                         A3    C        14:18:35:13 14:18:36:03 02:09:52:09 02:09:52:24 
*FROM CLIP NAME:  88K4/02.SYNC.01 
*SOURCE FILE: 19Y08M05
012325  19Y08M05                         A4    C        14:18:35:13 14:18:36:03 02:09:52:09 02:09:52:24 
*FROM CLIP NAME:  88K4/02.SYNC.01 
*SOURCE FILE: 19Y08M05
012326  19Y08M05                         A5    C        14:18:35:13 14:18:36:03 02:09:52:09 02:09:52:24 
*FROM CLIP NAME:  88K4/02.SYNC.01 
*SOURCE FILE: 19Y08M05
012327  19Y08M05                         A6    C        14:18:35:13 14:18:36:03 02:09:52:09 02:09:52:24 
*FROM CLIP NAME:  88K4/02.SYNC.01 
*PATCH 19Y08M05:  FROM SOURCE 7 TO RECORD 6 
*SOURCE FILE: 19Y08M05
012328  19Y08M05                         A7    C        14:18:35:13 14:18:36:03 02:09:52:09 02:09:52:24 
*FROM CLIP NAME:  88K4/02.SYNC.01 
*PATCH 19Y08M05:  FROM SOURCE 6 TO RECORD 7 
*SOURCE FILE: 19Y08M05
012329  03237.MP3                        A8    C        01:00:00:16 01:00:01:19 02:09:52:17 02:09:53:20 
*FROM CLIP NAME:  03237.MP3 
*PATCH 03237.MP3:  FROM SOURCE 2 TO RECORD 8 
*SOURCE FILE: 03237.MP3
012330  03237.MP3                        A9    C        01:00:00:16 01:00:01:19 02:09:52:17 02:09:53:20 
*FROM CLIP NAME:  03237.MP3 
*PATCH 03237.MP3:  FROM SOURCE 1 TO RECORD 9 
*SOURCE FILE: 03237.MP3
012331  19Y08M05                         A     C        13:52:46:16 13:52:47:05 02:09:52:24 02:09:53:13 
*FROM CLIP NAME:  88K3/03.SYNC.01 
*SOURCE FILE: 19Y08M05
012332  19Y08M05                         A2    C        13:52:46:16 13:52:47:05 02:09:52:24 02:09:53:13 
*FROM CLIP NAME:  88K3/03.SYNC.01 
*SOURCE FILE: 19Y08M05
012333  19Y08M05                         A3    C        13:52:46:16 13:52:47:05 02:09:52:24 02:09:53:13 
*FROM CLIP NAME:  88K3/03.SYNC.01 
*SOURCE FILE: 19Y08M05
012334  19Y08M05                         A4    C        13:52:46:16 13:52:47:05 02:09:52:24 02:09:53:13 
*FROM CLIP NAME:  88K3/03.SYNC.01 
*SOURCE FILE: 19Y08M05
012335  19Y08M05                         A5    C        13:52:46:16 13:52:47:05 02:09:52:24 02:09:53:13 
*FROM CLIP NAME:  88K3/03.SYNC.01 
*SOURCE FILE: 19Y08M05
012336  19Y08M05                         A6    C        13:52:46:16 13:52:47:05 02:09:52:24 02:09:53:13 
*FROM CLIP NAME:  88K3/03.SYNC.01 
*PATCH 19Y08M05:  FROM SOURCE 7 TO RECORD 6 
*SOURCE FILE: 19Y08M05
012337  19Y08M05                         A7    C        13:52:46:16 13:52:47:05 02:09:52:24 02:09:53:13 
*FROM CLIP NAME:  88K3/03.SYNC.01 
*PATCH 19Y08M05:  FROM SOURCE 6 TO RECORD 7 
*SOURCE FILE: 19Y08M05
012338  19Y08M05                         A     C        14:18:36:11 14:18:36:19 02:09:53:13 02:09:53:21 
*FROM CLIP NAME:  88K4/02.SYNC.01 
*SOURCE FILE: 19Y08M05
012339  19Y08M05                         A2    C        14:18:36:11 14:18:36:19 02:09:53:13 02:09:53:21 
*FROM CLIP NAME:  88K4/02.SYNC.01 
*A2 VOL = -14.0 DB  PAN L100 
*SOURCE FILE: 19Y08M05
012340  19Y08M05                         A3    C        14:18:36:11 14:18:36:19 02:09:53:13 02:09:53:21 
*FROM CLIP NAME:  88K4/02.SYNC.01 
*SOURCE FILE: 19Y08M05
012341  19Y08M05                         A4    C        14:18:36:11 14:18:36:19 02:09:53:13 02:09:53:21 
*FROM CLIP NAME:  88K4/02.SYNC.01 
*SOURCE FILE: 19Y08M05
012342  19Y08M05                         A5    C        14:18:36:11 14:18:36:19 02:09:53:13 02:09:53:21 
*FROM CLIP NAME:  88K4/02.SYNC.01 
*SOURCE FILE: 19Y08M05
012343  19Y08M05                         A6    C        14:18:36:11 14:18:36:19 02:09:53:13 02:09:53:21 
*FROM CLIP NAME:  88K4/02.SYNC.01 
*A6 VOL = -25.2 DB  PAN L100 
*SOURCE FILE: 19Y08M05
012344  19Y08M05                         A7    C        14:18:36:11 14:18:36:19 02:09:53:13 02:09:53:21 
*FROM CLIP NAME:  88K4/02.SYNC.01 
*SOURCE FILE: 19Y08M05
012345  MSMMMOB.16                       V     C        14:35:08:18 14:35:10:12 02:09:53:13 02:09:55:07 
M2      MSMMMOB.16                                025.0 14:35:08:18 
*FROM CLIP NAME:  A044C003_190805_R32C 
*SOURCE FILE: MSMMMOB.16
012346  19Y08M05                         A8    C        13:52:51:02 13:52:52:03 02:09:53:20 02:09:54:21 
*FROM CLIP NAME:  88K3/03.SYNC.01 
*PATCH 19Y08M05:  FROM SOURCE 2 TO RECORD 8 
*SOURCE FILE: 19Y08M05
012347  19Y08M05                         A9    C        13:52:51:02 13:52:52:03 02:09:53:20 02:09:54:21 
*FROM CLIP NAME:  88K3/03.SYNC.01 
*PATCH 19Y08M05:  FROM SOURCE 1 TO RECORD 9 
*SOURCE FILE: 19Y08M05
012348  19Y08M05                         A10   C        13:52:51:02 13:52:52:03 02:09:53:20 02:09:54:21 
*FROM CLIP NAME:  88K3/03.SYNC.01 
*PATCH 19Y08M05:  FROM SOURCE 4 TO RECORD 10 
*SOURCE FILE: 19Y08M05
012349  19Y08M05                         A11   C        13:52:51:02 13:52:52:03 02:09:53:20 02:09:54:21 
*FROM CLIP NAME:  88K3/03.SYNC.01 
*PATCH 19Y08M05:  FROM SOURCE 3 TO RECORD 11 
*SOURCE FILE: 19Y08M05
012350  19Y08M05                         A12   C        13:52:51:02 13:52:52:03 02:09:53:20 02:09:54:21 
*FROM CLIP NAME:  88K3/03.SYNC.01 
*PATCH 19Y08M05:  FROM SOURCE 6 TO RECORD 12 
*SOURCE FILE: 19Y08M05
012351  19Y08M05                         A13   C        13:52:51:02 13:52:52:03 02:09:53:20 02:09:54:21 
*FROM CLIP NAME:  88K3/03.SYNC.01 
*PATCH 19Y08M05:  FROM SOURCE 5 TO RECORD 13 
*SOURCE FILE: 19Y08M05
012352  19Y08M05                         A14   C        13:52:51:02 13:52:52:03 02:09:53:20 02:09:54:21 
*FROM CLIP NAME:  88K3/03.SYNC.01 
*PATCH 19Y08M05:  FROM SOURCE 7 TO RECORD 14 
*SOURCE FILE: 19Y08M05
012353  19Y08M05                         A     C        14:35:09:00 14:35:11:05 02:09:53:21 02:09:56:01 
*FROM CLIP NAME:  88K5/03.SYNC.01 
*SOURCE FILE: 19Y08M05
012354  19Y08M05                         A2    C        14:35:09:00 14:35:11:05 02:09:53:21 02:09:56:01 
*FROM CLIP NAME:  88K5/03.SYNC.01 
*SOURCE FILE: 19Y08M05
012355  19Y08M05                         A3    C        14:35:09:00 14:35:11:05 02:09:53:21 02:09:56:01 
*FROM CLIP NAME:  88K5/03.SYNC.01 
*SOURCE FILE: 19Y08M05
012356  19Y08M05                         A4    C        14:35:09:00 14:35:11:05 02:09:53:21 02:09:56:01 
*FROM CLIP NAME:  88K5/03.SYNC.01 
*SOURCE FILE: 19Y08M05
012357  19Y08M05                         A5    C        14:35:09:00 14:35:11:05 02:09:53:21 02:09:56:01 
*FROM CLIP NAME:  88K5/03.SYNC.01 
*SOURCE FILE: 19Y08M05
012358  19Y08M05                         A6    C        14:35:09:00 14:35:11:05 02:09:53:21 02:09:56:01 
*FROM CLIP NAME:  88K5/03.SYNC.01 
*PATCH 19Y08M05:  FROM SOURCE 7 TO RECORD 6 
*SOURCE FILE: 19Y08M05
012359  19Y08M05                         A7    C        14:35:09:00 14:35:11:05 02:09:53:21 02:09:56:01 
*FROM CLIP NAME:  88K5/03.SYNC.01 
*PATCH 19Y08M05:  FROM SOURCE 6 TO RECORD 7 
*SOURCE FILE: 19Y08M05
012360  19Y08M05                         A8    C        13:52:53:20 13:52:54:12 02:09:54:21 02:09:55:13 
*FROM CLIP NAME:  88K3/03.SYNC.01 
*PATCH 19Y08M05:  FROM SOURCE 2 TO RECORD 8 
*SOURCE FILE: 19Y08M05
012361  19Y08M05                         A9    C        13:52:53:20 13:52:54:12 02:09:54:21 02:09:55:13 
*FROM CLIP NAME:  88K3/03.SYNC.01 
*PATCH 19Y08M05:  FROM SOURCE 1 TO RECORD 9 
*SOURCE FILE: 19Y08M05
012362  19Y08M05                         A10   C        13:52:53:20 13:52:54:12 02:09:54:21 02:09:55:13 
*FROM CLIP NAME:  88K3/03.SYNC.01 
*PATCH 19Y08M05:  FROM SOURCE 4 TO RECORD 10 
*SOURCE FILE: 19Y08M05
012363  19Y08M05                         A11   C        13:52:53:20 13:52:54:12 02:09:54:21 02:09:55:13 
*FROM CLIP NAME:  88K3/03.SYNC.01 
*PATCH 19Y08M05:  FROM SOURCE 3 TO RECORD 11 
*SOURCE FILE: 19Y08M05
012364  19Y08M05                         A12   C        13:52:53:20 13:52:54:12 02:09:54:21 02:09:55:13 
*FROM CLIP NAME:  88K3/03.SYNC.01 
*PATCH 19Y08M05:  FROM SOURCE 6 TO RECORD 12 
*SOURCE FILE: 19Y08M05
012365  19Y08M05                         A13   C        13:52:53:20 13:52:54:12 02:09:54:21 02:09:55:13 
*FROM CLIP NAME:  88K3/03.SYNC.01 
*PATCH 19Y08M05:  FROM SOURCE 5 TO RECORD 13 
*SOURCE FILE: 19Y08M05
012366  19Y08M05                         A14   C        13:52:53:20 13:52:54:12 02:09:54:21 02:09:55:13 
*FROM CLIP NAME:  88K3/03.SYNC.01 
*PATCH 19Y08M05:  FROM SOURCE 7 TO RECORD 14 
*SOURCE FILE: 19Y08M05
012367  MSMMMOB.14                       V     C        14:18:46:02 14:18:47:05 02:09:55:07 02:09:56:10 
M2      MSMMMOB.14                                025.0 14:18:46:02 
*FROM CLIP NAME:  A043C009_190805_R32C 
*SOURCE FILE: MSMMMOB.14
012368  19Y08M05                         A     C        14:35:11:05 14:35:11:05 02:09:56:01 02:09:56:01 
012368  19Y08M05                         A     D    002 14:18:46:20 14:18:46:22 02:09:56:01 02:09:56:03 
*FROM CLIP NAME:  88K5/03.SYNC.01 
*TO CLIP NAME:  88K4/02.SYNC.01 
*SOURCE FILE: 19Y08M05
012369  19Y08M05                         A2    C        14:35:11:05 14:35:11:05 02:09:56:01 02:09:56:01 
012369  19Y08M05                         A2    D    002 14:18:46:20 14:18:46:22 02:09:56:01 02:09:56:03 
*FROM CLIP NAME:  88K5/03.SYNC.01 
*TO CLIP NAME:  88K4/02.SYNC.01 
*SOURCE FILE: 19Y08M05
012370  19Y08M05                         A3    C        14:35:11:05 14:35:11:05 02:09:56:01 02:09:56:01 
012370  19Y08M05                         A3    D    002 14:18:46:20 14:18:46:22 02:09:56:01 02:09:56:03 
*FROM CLIP NAME:  88K5/03.SYNC.01 
*TO CLIP NAME:  88K4/02.SYNC.01 
*SOURCE FILE: 19Y08M05
012371  19Y08M05                         A4    C        14:35:11:05 14:35:11:05 02:09:56:01 02:09:56:01 
012371  19Y08M05                         A4    D    002 14:18:46:20 14:18:46:22 02:09:56:01 02:09:56:03 
*FROM CLIP NAME:  88K5/03.SYNC.01 
*TO CLIP NAME:  88K4/02.SYNC.01 
*SOURCE FILE: 19Y08M05
012372  19Y08M05                         A5    C        14:35:11:05 14:35:11:05 02:09:56:01 02:09:56:01 
012372  19Y08M05                         A5    D    002 14:18:46:20 14:18:46:22 02:09:56:01 02:09:56:03 
*FROM CLIP NAME:  88K5/03.SYNC.01 
*TO CLIP NAME:  88K4/02.SYNC.01 
*SOURCE FILE: 19Y08M05
012373  19Y08M05                         A6    C        14:35:11:05 14:35:11:05 02:09:56:01 02:09:56:01 
012373  19Y08M05                         A6    D    002 14:18:46:20 14:18:46:22 02:09:56:01 02:09:56:03 
*FROM CLIP NAME:  88K5/03.SYNC.01 
*TO CLIP NAME:  88K4/02.SYNC.01 
*PATCH 19Y08M05:  FROM SOURCE 7 TO RECORD 6 
*PATCH 19Y08M05:  FROM SOURCE 7 TO RECORD 6 
*SOURCE FILE: 19Y08M05
012374  19Y08M05                         A7    C        14:35:11:05 14:35:11:05 02:09:56:01 02:09:56:01 
012374  19Y08M05                         A7    D    002 14:18:46:20 14:18:46:22 02:09:56:01 02:09:56:03 
*FROM CLIP NAME:  88K5/03.SYNC.01 
*TO CLIP NAME:  88K4/02.SYNC.01 
*PATCH 19Y08M05:  FROM SOURCE 6 TO RECORD 7 
*PATCH 19Y08M05:  FROM SOURCE 6 TO RECORD 7 
*SOURCE FILE: 19Y08M05
012375  19Y08M05                         A     C        14:18:46:22 14:18:48:09 02:09:56:03 02:09:57:15 
*FROM CLIP NAME:  88K4/02.SYNC.01 
*SOURCE FILE: 19Y08M05
012376  19Y08M05                         A2    C        14:18:46:22 14:18:48:09 02:09:56:03 02:09:57:15 
*FROM CLIP NAME:  88K4/02.SYNC.01 
*SOURCE FILE: 19Y08M05
012377  19Y08M05                         A3    C        14:18:46:22 14:18:48:09 02:09:56:03 02:09:57:15 
*FROM CLIP NAME:  88K4/02.SYNC.01 
*SOURCE FILE: 19Y08M05
012378  19Y08M05                         A4    C        14:18:46:22 14:18:48:09 02:09:56:03 02:09:57:15 
*FROM CLIP NAME:  88K4/02.SYNC.01 
*SOURCE FILE: 19Y08M05
012379  19Y08M05                         A5    C        14:18:46:22 14:18:48:09 02:09:56:03 02:09:57:15 
*FROM CLIP NAME:  88K4/02.SYNC.01 
*SOURCE FILE: 19Y08M05
012380  19Y08M05                         A6    C        14:18:46:22 14:18:48:09 02:09:56:03 02:09:57:15 
*FROM CLIP NAME:  88K4/02.SYNC.01 
*PATCH 19Y08M05:  FROM SOURCE 7 TO RECORD 6 
*SOURCE FILE: 19Y08M05
012381  19Y08M05                         A7    C        14:18:46:22 14:18:48:09 02:09:56:03 02:09:57:15 
*FROM CLIP NAME:  88K4/02.SYNC.01 
*PATCH 19Y08M05:  FROM SOURCE 6 TO RECORD 7 
*SOURCE FILE: 19Y08M05
012382  MSMMMOB.51                       V     C        13:52:58:10 13:52:59:13 02:09:56:10 02:09:57:13 
M2      MSMMMOB.51                                025.0 13:52:58:10 
*FROM CLIP NAME:  A043C007_190805_R32C 
*SOURCE FILE: MSMMMOB.51
012383  MSMMMOB.14                       V     C        14:18:47:24 14:18:49:23 02:09:57:13 02:09:59:12 
M2      MSMMMOB.14                                025.0 14:18:47:24 
*FROM CLIP NAME:  A043C009_190805_R32C 
*SOURCE FILE: MSMMMOB.14
012384  19Y08M05                         A     C        13:28:23:07 13:28:24:22 02:09:57:15 02:09:59:05 
*FROM CLIP NAME:  88K1/03.SYNC.01 
*SOURCE FILE: 19Y08M05
012385  19Y08M05                         A2    C        13:28:23:07 13:28:24:22 02:09:57:15 02:09:59:05 
*FROM CLIP NAME:  88K1/03.SYNC.01 
*SOURCE FILE: 19Y08M05
012386  19Y08M05                         A3    C        13:28:23:07 13:28:24:22 02:09:57:15 02:09:59:05 
*FROM CLIP NAME:  88K1/03.SYNC.01 
*SOURCE FILE: 19Y08M05
012387  19Y08M05                         A5    C        13:28:23:07 13:28:24:22 02:09:57:15 02:09:59:05 
*FROM CLIP NAME:  88K1/03.SYNC.01 
*SOURCE FILE: 19Y08M05
012388  19Y08M05                         A6    C        13:28:23:07 13:28:24:22 02:09:57:15 02:09:59:05 
*FROM CLIP NAME:  88K1/03.SYNC.01 
*PATCH 19Y08M05:  FROM SOURCE 7 TO RECORD 6 
*SOURCE FILE: 19Y08M05
012389  19Y08M05                         A7    C        13:28:23:07 13:28:24:22 02:09:57:15 02:09:59:05 
*FROM CLIP NAME:  88K1/03.SYNC.01 
*PATCH 19Y08M05:  FROM SOURCE 6 TO RECORD 7 
*SOURCE FILE: 19Y08M05
012390  CINEMASCOPE_2-35-1_CROPLINES.PNG V     C        01:00:00:00 01:04:05:07 02:09:57:19 02:14:03:01 
*FROM CLIP NAME:  CINEMASCOPE 2-35-1 CROPLINES.PNG 
*SOURCE FILE: CINEMASCOPE 2-35-1 CROPLINES.PNG
012391  19Y08M05                         A     C        14:18:49:11 14:18:50:05 02:09:59:05 02:09:59:24 
*FROM CLIP NAME:  88K4/02.SYNC.01 
*SOURCE FILE: 19Y08M05
012392  19Y08M05                         A2    C        14:18:49:11 14:18:50:05 02:09:59:05 02:09:59:24 
*FROM CLIP NAME:  88K4/02.SYNC.01 
*SOURCE FILE: 19Y08M05
012393  19Y08M05                         A3    C        14:18:49:11 14:18:50:05 02:09:59:05 02:09:59:24 
*FROM CLIP NAME:  88K4/02.SYNC.01 
*SOURCE FILE: 19Y08M05
012394  19Y08M05                         A4    C        14:18:49:11 14:18:50:05 02:09:59:05 02:09:59:24 
*FROM CLIP NAME:  88K4/02.SYNC.01 
*SOURCE FILE: 19Y08M05
012395  19Y08M05                         A5    C        14:18:49:11 14:18:50:05 02:09:59:05 02:09:59:24 
*FROM CLIP NAME:  88K4/02.SYNC.01 
*SOURCE FILE: 19Y08M05
012396  19Y08M05                         A6    C        14:18:49:11 14:18:50:05 02:09:59:05 02:09:59:24 
*FROM CLIP NAME:  88K4/02.SYNC.01 
*PATCH 19Y08M05:  FROM SOURCE 7 TO RECORD 6 
*SOURCE FILE: 19Y08M05
012397  19Y08M05                         A7    C        14:18:49:11 14:18:50:05 02:09:59:05 02:09:59:24 
*FROM CLIP NAME:  88K4/02.SYNC.01 
*PATCH 19Y08M05:  FROM SOURCE 6 TO RECORD 7 
*SOURCE FILE: 19Y08M05
012398  MSMMMOB.12                       V     C        14:45:17:23 14:45:23:05 02:09:59:12 02:10:04:19 
M2      MSMMMOB.12                                025.0 14:45:17:23 
*FROM CLIP NAME:  A044C005_190805_R32C 
*SOURCE FILE: MSMMMOB.12
012399  19Y08M05                         A     C        14:45:18:09 14:45:23:06 02:09:59:24 02:10:04:21 
*FROM CLIP NAME:  88K6/02.SYNC.01 
*SOURCE FILE: 19Y08M05
012400  19Y08M05                         A2    C        14:45:18:09 14:45:23:06 02:09:59:24 02:10:04:21 
*FROM CLIP NAME:  88K6/02.SYNC.01 
*SOURCE FILE: 19Y08M05
012401  19Y08M05                         A3    C        14:45:18:09 14:45:23:06 02:09:59:24 02:10:04:21 
*FROM CLIP NAME:  88K6/02.SYNC.01 
*SOURCE FILE: 19Y08M05
012402  19Y08M05                         A4    C        14:45:18:09 14:45:23:06 02:09:59:24 02:10:04:21 
*FROM CLIP NAME:  88K6/02.SYNC.01 
*SOURCE FILE: 19Y08M05
012403  19Y08M05                         A5    C        14:45:18:09 14:45:23:06 02:09:59:24 02:10:04:21 
*FROM CLIP NAME:  88K6/02.SYNC.01 
*SOURCE FILE: 19Y08M05
012404  19Y08M05                         A6    C        14:45:18:09 14:45:23:06 02:09:59:24 02:10:04:21 
*FROM CLIP NAME:  88K6/02.SYNC.01 
*PATCH 19Y08M05:  FROM SOURCE 7 TO RECORD 6 
*SOURCE FILE: 19Y08M05
012405  19Y08M05                         A7    C        14:45:18:09 14:45:23:06 02:09:59:24 02:10:04:21 
*FROM CLIP NAME:  88K6/02.SYNC.01 
*PATCH 19Y08M05:  FROM SOURCE 6 TO RECORD 7 
*SOURCE FILE: 19Y08M05
012406  MSMMMOB.16                       V     C        14:35:18:12 14:35:22:21 02:10:04:19 02:10:09:03 
M2      MSMMMOB.16                                025.0 14:35:18:12 
*FROM CLIP NAME:  A044C003_190805_R32C 
*SOURCE FILE: MSMMMOB.16
012407  19Y08M05                         A     C        14:35:18:13 14:35:22:20 02:10:04:21 02:10:09:03 
*FROM CLIP NAME:  88K5/03.SYNC.01 
*SOURCE FILE: 19Y08M05
012408  19Y08M05                         A2    C        14:35:18:13 14:35:22:20 02:10:04:21 02:10:09:03 
*FROM CLIP NAME:  88K5/03.SYNC.01 
*SOURCE FILE: 19Y08M05
012409  19Y08M05                         A3    C        14:35:18:13 14:35:22:20 02:10:04:21 02:10:09:03 
*FROM CLIP NAME:  88K5/03.SYNC.01 
*SOURCE FILE: 19Y08M05
012410  19Y08M05                         A4    C        14:35:18:13 14:35:22:20 02:10:04:21 02:10:09:03 
*FROM CLIP NAME:  88K5/03.SYNC.01 
*SOURCE FILE: 19Y08M05
012411  19Y08M05                         A5    C        14:35:18:13 14:35:22:20 02:10:04:21 02:10:09:03 
*FROM CLIP NAME:  88K5/03.SYNC.01 
*SOURCE FILE: 19Y08M05
012412  19Y08M05                         A6    C        14:35:18:13 14:35:22:20 02:10:04:21 02:10:09:03 
*FROM CLIP NAME:  88K5/03.SYNC.01 
*PATCH 19Y08M05:  FROM SOURCE 7 TO RECORD 6 
*SOURCE FILE: 19Y08M05
012413  19Y08M05                         A7    C        14:35:18:13 14:35:22:20 02:10:04:21 02:10:09:03 
*FROM CLIP NAME:  88K5/03.SYNC.01 
*PATCH 19Y08M05:  FROM SOURCE 6 TO RECORD 7 
*SOURCE FILE: 19Y08M05
012414  19Y08M05                         A     C        14:43:40:12 14:43:50:13 02:10:09:03 02:10:19:04 
*FROM CLIP NAME:  88K6/01.SYNC.01 
*SOURCE FILE: 19Y08M05
012415  19Y08M05                         A2    C        14:43:40:12 14:43:50:13 02:10:09:03 02:10:19:04 
*FROM CLIP NAME:  88K6/01.SYNC.01 
*SOURCE FILE: 19Y08M05
012416  19Y08M05                         A3    C        14:43:40:12 14:43:50:13 02:10:09:03 02:10:19:04 
*FROM CLIP NAME:  88K6/01.SYNC.01 
*SOURCE FILE: 19Y08M05
012417  19Y08M05                         A4    C        14:43:40:12 14:43:50:13 02:10:09:03 02:10:19:04 
*FROM CLIP NAME:  88K6/01.SYNC.01 
*SOURCE FILE: 19Y08M05
012418  19Y08M05                         A5    C        14:43:40:12 14:43:50:13 02:10:09:03 02:10:19:04 
*FROM CLIP NAME:  88K6/01.SYNC.01 
*SOURCE FILE: 19Y08M05
012419  19Y08M05                         A6    C        14:43:40:12 14:43:50:13 02:10:09:03 02:10:19:04 
*FROM CLIP NAME:  88K6/01.SYNC.01 
*SOURCE FILE: 19Y08M05
012420  19Y08M05                         A7    C        14:43:40:12 14:43:50:13 02:10:09:03 02:10:19:04 
*FROM CLIP NAME:  88K6/01.SYNC.01 
*SOURCE FILE: 19Y08M05
012421  MSMMMOB.24                       V     C        14:43:40:13 14:43:50:16 02:10:09:03 02:10:19:06 
M2      MSMMMOB.24                                025.0 14:43:40:13 
*FROM CLIP NAME:  A044C004_190805_R32C 
*SOURCE FILE: MSMMMOB.24
012422  19Y08M05                         A     C        14:43:50:13 14:43:50:13 02:10:19:04 02:10:19:04 
012422  19Y08M05                         A     D    003 14:35:35:07 14:35:35:10 02:10:19:04 02:10:19:07 
*FROM CLIP NAME:  88K6/01.SYNC.01 
*TO CLIP NAME:  88K5/03.SYNC.01 
*SOURCE FILE: 19Y08M05
012423  19Y08M05                         A2    C        14:43:50:13 14:43:50:13 02:10:19:04 02:10:19:04 
012423  19Y08M05                         A2    D    003 14:35:35:07 14:35:35:10 02:10:19:04 02:10:19:07 
*FROM CLIP NAME:  88K6/01.SYNC.01 
*TO CLIP NAME:  88K5/03.SYNC.01 
*SOURCE FILE: 19Y08M05
012424  19Y08M05                         A3    C        14:43:50:13 14:43:50:13 02:10:19:04 02:10:19:04 
012424  19Y08M05                         A3    D    003 14:35:35:07 14:35:35:10 02:10:19:04 02:10:19:07 
*FROM CLIP NAME:  88K6/01.SYNC.01 
*TO CLIP NAME:  88K5/03.SYNC.01 
*PATCH 19Y08M05:  FROM SOURCE 7 TO RECORD 3 
*SOURCE FILE: 19Y08M05
012425  19Y08M05                         A4    C        14:43:50:13 14:43:50:13 02:10:19:04 02:10:19:04 
012425  19Y08M05                         A4    D    003 14:35:35:07 14:35:35:10 02:10:19:04 02:10:19:07 
*FROM CLIP NAME:  88K6/01.SYNC.01 
*TO CLIP NAME:  88K5/03.SYNC.01 
*SOURCE FILE: 19Y08M05
012426  19Y08M05                         A5    C        14:43:50:13 14:43:50:13 02:10:19:04 02:10:19:04 
012426  19Y08M05                         A5    D    003 14:35:35:07 14:35:35:10 02:10:19:04 02:10:19:07 
*FROM CLIP NAME:  88K6/01.SYNC.01 
*TO CLIP NAME:  88K5/03.SYNC.01 
*SOURCE FILE: 19Y08M05
012427  19Y08M05                         A6    C        14:43:50:13 14:43:50:13 02:10:19:04 02:10:19:04 
012427  19Y08M05                         A6    D    003 14:35:35:07 14:35:35:10 02:10:19:04 02:10:19:07 
*FROM CLIP NAME:  88K6/01.SYNC.01 
*TO CLIP NAME:  88K5/03.SYNC.01 
*SOURCE FILE: 19Y08M05
012428  19Y08M05                         A7    C        14:43:50:13 14:43:50:13 02:10:19:04 02:10:19:04 
012428  19Y08M05                         A7    D    003 14:35:35:07 14:35:35:10 02:10:19:04 02:10:19:07 
*FROM CLIP NAME:  88K6/01.SYNC.01 
*TO CLIP NAME:  88K5/03.SYNC.01 
*PATCH 19Y08M05:  FROM SOURCE 3 TO RECORD 7 
*SOURCE FILE: 19Y08M05
012429  MSMMMOB.16                       V     C        14:35:35:10 14:35:41:11 02:10:19:06 02:10:25:07 
M2      MSMMMOB.16                                025.0 14:35:35:10 
*FROM CLIP NAME:  A044C003_190805_R32C 
*SOURCE FILE: MSMMMOB.16
012430  19Y08M05                         A     C        14:35:35:10 14:35:41:10 02:10:19:07 02:10:25:07 
*FROM CLIP NAME:  88K5/03.SYNC.01 
*SOURCE FILE: 19Y08M05
012431  19Y08M05                         A2    C        14:35:35:10 14:35:41:10 02:10:19:07 02:10:25:07 
*FROM CLIP NAME:  88K5/03.SYNC.01 
*SOURCE FILE: 19Y08M05
012432  19Y08M05                         A3    C        14:35:35:10 14:35:41:10 02:10:19:07 02:10:25:07 
*FROM CLIP NAME:  88K5/03.SYNC.01 
*PATCH 19Y08M05:  FROM SOURCE 7 TO RECORD 3 
*SOURCE FILE: 19Y08M05
012433  19Y08M05                         A4    C        14:35:35:10 14:35:41:10 02:10:19:07 02:10:25:07 
*FROM CLIP NAME:  88K5/03.SYNC.01 
*SOURCE FILE: 19Y08M05
012434  19Y08M05                         A5    C        14:35:35:10 14:35:41:10 02:10:19:07 02:10:25:07 
*FROM CLIP NAME:  88K5/03.SYNC.01 
*SOURCE FILE: 19Y08M05
012435  19Y08M05                         A6    C        14:35:35:10 14:35:41:10 02:10:19:07 02:10:25:07 
*FROM CLIP NAME:  88K5/03.SYNC.01 
*SOURCE FILE: 19Y08M05
012436  19Y08M05                         A7    C        14:35:35:10 14:35:41:10 02:10:19:07 02:10:25:07 
*FROM CLIP NAME:  88K5/03.SYNC.01 
*PATCH 19Y08M05:  FROM SOURCE 3 TO RECORD 7 
*SOURCE FILE: 19Y08M05
012437  19Y08M28                         A     C        13:56:00:01 13:56:02:23 02:10:25:07 02:10:28:04 
*FROM CLIP NAME:  89K1/01 
*SOURCE FILE: 19Y08M28
012438  MSMMMOB.33                       A2    C        13:56:00:02 13:56:02:24 02:10:25:07 02:10:28:04 
*FROM CLIP NAME:  A104C007_190828_R3DN 
*SOURCE FILE: MSMMMOB.33
012439  19Y08M28                         A3    C        13:56:00:01 13:56:02:23 02:10:25:07 02:10:28:04 
*FROM CLIP NAME:  89K1/01 
*SOURCE FILE: 19Y08M28
012440  MSMMMOB.38                       V     C        15:36:04:16 15:36:08:19 02:10:25:07 02:10:29:10 
M2      MSMMMOB.38                                025.0 15:36:04:16 
*FROM CLIP NAME:  89-2-1 
*SOURCE FILE: MSMMMOB.38
012441  01408.MP3                        A10   C        01:00:03:18 01:00:07:21 02:10:25:07 02:10:29:10 
*FROM CLIP NAME:  01408.MP3 
*A10 VOL = -12.5 DB  PAN L100 
*PATCH 01408.MP3:  FROM SOURCE 2 TO RECORD 10 
*SOURCE FILE: 01408.MP3
012442  01408.MP3                        A11   C        01:00:03:18 01:00:07:21 02:10:25:07 02:10:29:10 
*FROM CLIP NAME:  01408.MP3 
*A11 VOL = -12.5 DB  PAN R100 
*PATCH 01408.MP3:  FROM SOURCE 1 TO RECORD 11 
*SOURCE FILE: 01408.MP3
012443  19Y08M28                         A     C        13:56:00:01 13:56:01:07 02:10:28:04 02:10:29:10 
*FROM CLIP NAME:  89K1/01 
*SOURCE FILE: 19Y08M28
012444  MSMMMOB.33                       A2    C        13:56:00:02 13:56:01:08 02:10:28:04 02:10:29:10 
*FROM CLIP NAME:  A104C007_190828_R3DN 
*SOURCE FILE: MSMMMOB.33
012445  19Y08M28                         A3    C        13:56:00:01 13:56:01:07 02:10:28:04 02:10:29:10 
*FROM CLIP NAME:  89K1/01 
*SOURCE FILE: 19Y08M28
012446  MSMMMOB.33                       V     C        13:56:01:13 13:56:12:20 02:10:29:10 02:10:40:17 
M2      MSMMMOB.33                                025.0 13:56:01:13 
*FROM CLIP NAME:  A104C007_190828_R3DN 
*SOURCE FILE: MSMMMOB.33
012447  19Y08M28                         A     C        13:56:01:12 13:56:12:19 02:10:29:10 02:10:40:17 
*FROM CLIP NAME:  89K1/01 
*SOURCE FILE: 19Y08M28
012448  MSMMMOB.33                       A2    C        13:56:01:13 13:56:12:20 02:10:29:10 02:10:40:17 
*FROM CLIP NAME:  A104C007_190828_R3DN 
*SOURCE FILE: MSMMMOB.33
012449  19Y08M28                         A3    C        13:56:01:12 13:56:12:19 02:10:29:10 02:10:40:17 
*FROM CLIP NAME:  89K1/01 
*SOURCE FILE: 19Y08M28
012450  01408.MP3                        A10   C        01:00:07:21 01:00:40:16 02:10:29:10 02:11:02:05 
*FROM CLIP NAME:  01408.MP3 
*A10 VOL = -25.0 DB  PAN L100 
*PATCH 01408.MP3:  FROM SOURCE 2 TO RECORD 10 
*SOURCE FILE: 01408.MP3
012451  01408.MP3                        A11   C        01:00:07:21 01:00:40:16 02:10:29:10 02:11:02:05 
*FROM CLIP NAME:  01408.MP3 
*A11 VOL = -25.0 DB  PAN R100 
*PATCH 01408.MP3:  FROM SOURCE 1 TO RECORD 11 
*SOURCE FILE: 01408.MP3
012452  KROSHKA_MIDI.MP4                 A8    C        01:01:01:03 01:01:09:05 02:10:31:06 02:10:39:08 
*FROM CLIP NAME:  KROSHKA_MIDI.MP4 
*A8 VOL = -15.0 DB  PAN L100 
*PATCH KROSHKA_MIDI.MP4:  FROM SOURCE 2 TO RECORD 8 
*SOURCE FILE: KROSHKA_MIDI.MP4
012453  KROSHKA_MIDI.MP4                 A9    C        01:01:01:03 01:01:09:05 02:10:31:06 02:10:39:08 
*FROM CLIP NAME:  KROSHKA_MIDI.MP4 
*A9 VOL = -15.0 DB  PAN R100 
*PATCH KROSHKA_MIDI.MP4:  FROM SOURCE 1 TO RECORD 9 
*SOURCE FILE: KROSHKA_MIDI.MP4
012454  MSMMMOB.33                       V     C        13:56:16:09 13:56:18:16 02:10:40:17 02:10:42:24 
M2      MSMMMOB.33                                025.0 13:56:16:09 
*FROM CLIP NAME:  A104C007_190828_R3DN 
*SOURCE FILE: MSMMMOB.33
012455  19Y08M28                         A     C        13:56:16:08 13:56:18:15 02:10:40:17 02:10:42:24 
*FROM CLIP NAME:  89K1/01 
*SOURCE FILE: 19Y08M28
012456  MSMMMOB.33                       A2    C        13:56:16:09 13:56:18:16 02:10:40:17 02:10:42:24 
*FROM CLIP NAME:  A104C007_190828_R3DN 
*SOURCE FILE: MSMMMOB.33
012457  19Y08M28                         A3    C        13:56:16:08 13:56:18:15 02:10:40:17 02:10:42:24 
*FROM CLIP NAME:  89K1/01 
*SOURCE FILE: 19Y08M28
012458  MSMMMOB.33                       V     C        13:56:20:23 13:56:33:05 02:10:42:24 02:10:55:06 
M2      MSMMMOB.33                                025.0 13:56:20:23 
*FROM CLIP NAME:  A104C007_190828_R3DN 
*SOURCE FILE: MSMMMOB.33
012459  19Y08M28                         A     C        13:56:20:22 13:56:33:04 02:10:42:24 02:10:55:06 
*FROM CLIP NAME:  89K1/01 
*SOURCE FILE: 19Y08M28
012460  MSMMMOB.33                       A2    C        13:56:20:23 13:56:33:05 02:10:42:24 02:10:55:06 
*FROM CLIP NAME:  A104C007_190828_R3DN 
*SOURCE FILE: MSMMMOB.33
012461  19Y08M28                         A3    C        13:56:20:22 13:56:33:04 02:10:42:24 02:10:55:06 
*FROM CLIP NAME:  89K1/01 
*SOURCE FILE: 19Y08M28
012462  KROSHKA_MIDI.MP4                 A8    C        01:01:02:06 01:01:06:11 02:10:44:24 02:10:49:04 
*FROM CLIP NAME:  KROSHKA_MIDI.MP4 
*A8 VOL = -13.3 DB  PAN L100 
*PATCH KROSHKA_MIDI.MP4:  FROM SOURCE 2 TO RECORD 8 
*SOURCE FILE: KROSHKA_MIDI.MP4
012463  KROSHKA_MIDI.MP4                 A9    C        01:01:02:06 01:01:06:11 02:10:44:24 02:10:49:04 
*FROM CLIP NAME:  KROSHKA_MIDI.MP4 
*A9 VOL = -13.3 DB  PAN R100 
*PATCH KROSHKA_MIDI.MP4:  FROM SOURCE 1 TO RECORD 9 
*SOURCE FILE: KROSHKA_MIDI.MP4
012464  19Y08M28                         A     C        13:56:34:05 13:56:35:08 02:10:55:06 02:10:56:09 
*FROM CLIP NAME:  89K1/01 
*SOURCE FILE: 19Y08M28
012465  MSMMMOB.33                       A2    C        13:56:34:06 13:56:35:09 02:10:55:06 02:10:56:09 
*FROM CLIP NAME:  A104C007_190828_R3DN 
*SOURCE FILE: MSMMMOB.33
012466  19Y08M28                         A3    C        13:56:34:05 13:56:35:08 02:10:55:06 02:10:56:09 
*FROM CLIP NAME:  89K1/01 
*SOURCE FILE: 19Y08M28
012467  MSMMMOB.73                       V     C        15:46:42:23 15:46:46:05 02:10:55:06 02:10:58:13 
*FROM CLIP NAME:  89-4-1 
*SOURCE FILE: MSMMMOB.73
012468  19Y08M28                         A     C        13:56:35:08 13:56:35:08 02:10:56:09 02:10:56:09 
012468  19Y08M28                         A     D    005 13:56:36:01 13:56:36:06 02:10:56:09 02:10:56:14 
*FROM CLIP NAME:  89K1/01 
*TO CLIP NAME:  89K1/01 
*SOURCE FILE: 19Y08M28
012469  MSMMMOB.33                       A2    C        13:56:35:09 13:56:35:09 02:10:56:09 02:10:56:09 
012469  MSMMMOB.33                       A2    D    005 13:56:36:02 13:56:36:07 02:10:56:09 02:10:56:14 
*FROM CLIP NAME:  A104C007_190828_R3DN 
*TO CLIP NAME:  A104C007_190828_R3DN 
*SOURCE FILE: MSMMMOB.33
012470  19Y08M28                         A3    C        13:56:35:08 13:56:35:08 02:10:56:09 02:10:56:09 
012470  19Y08M28                         A3    D    005 13:56:36:01 13:56:36:06 02:10:56:09 02:10:56:14 
*FROM CLIP NAME:  89K1/01 
*TO CLIP NAME:  89K1/01 
*SOURCE FILE: 19Y08M28
012471  19Y08M28                         A     C        13:56:36:06 13:56:38:05 02:10:56:14 02:10:58:13 
*FROM CLIP NAME:  89K1/01 
*SOURCE FILE: 19Y08M28
012472  MSMMMOB.33                       A2    C        13:56:36:07 13:56:38:06 02:10:56:14 02:10:58:13 
*FROM CLIP NAME:  A104C007_190828_R3DN 
*SOURCE FILE: MSMMMOB.33
012473  19Y08M28                         A3    C        13:56:36:06 13:56:38:05 02:10:56:14 02:10:58:13 
*FROM CLIP NAME:  89K1/01 
*SOURCE FILE: 19Y08M28
012474  MSMMMOB.33                       V     C        13:56:34:21 13:56:38:13 02:10:58:13 02:11:02:05 
M2      MSMMMOB.33                                025.0 13:56:34:21 
*FROM CLIP NAME:  A104C007_190828_R3DN 
*SOURCE FILE: MSMMMOB.33
012475  19Y08M28                         A     C        13:56:34:20 13:56:38:12 02:10:58:13 02:11:02:05 
*FROM CLIP NAME:  89K1/01 
*SOURCE FILE: 19Y08M28
012476  MSMMMOB.33                       A2    C        13:56:34:21 13:56:38:13 02:10:58:13 02:11:02:05 
*FROM CLIP NAME:  A104C007_190828_R3DN 
*SOURCE FILE: MSMMMOB.33
012477  19Y08M28                         A3    C        13:56:34:20 13:56:38:12 02:10:58:13 02:11:02:05 
*FROM CLIP NAME:  89K1/01 
*SOURCE FILE: 19Y08M28
012478  MSMMMOB.14                       V     C        19:55:20:19 19:55:20:21 02:11:02:05 02:11:06:18 
M2      MSMMMOB.14                               -024.0 19:55:20:19 
*FROM CLIP NAME:  M097_C029_20190720_R 
*SOURCE FILE: MSMMMOB.14
012479  19Y08M15                         A6    C        18:20:46:06 18:20:52:10 02:11:02:05 02:11:08:09 
*FROM CLIP NAME:  90K2/01.SYNC.01 
*PATCH 19Y08M15:  FROM SOURCE 1 TO RECORD 6 
*SOURCE FILE: 19Y08M15
012480  19Y08M15                         A8    C        18:20:46:06 18:20:52:10 02:11:02:05 02:11:08:09 
*FROM CLIP NAME:  90K2/01.SYNC.01 
*PATCH 19Y08M15:  FROM SOURCE 2 TO RECORD 8 
*SOURCE FILE: 19Y08M15
012481  XSP022_01_IM_COMING_HOME.MP3     A17   C        01:00:53:03 01:02:25:02 02:11:02:05 02:12:34:04 
*, D-VERB 
*FROM CLIP NAME:  XSP022_01 IM COMING HOME.MP3 
*A17 VOL = -21.0 DB  PAN R100 
*PATCH XSP022_01_IM_COMING_HOME.MP3:  FROM SOURCE 1 TO RECORD 17 
*SOURCE FILE: XSP022_01 IM COMING HOME.MP3
012482  XSP022_01_IM_COMING_HOME.MP3     A18   C        01:00:53:03 01:02:25:02 02:11:02:05 02:12:34:04 
*, D-VERB 
*FROM CLIP NAME:  XSP022_01 IM COMING HOME.MP3 
*A18 VOL = -21.0 DB  PAN L100 
*PATCH XSP022_01_IM_COMING_HOME.MP3:  FROM SOURCE 2 TO RECORD 18 
*SOURCE FILE: XSP022_01 IM COMING HOME.MP3
012483  MSMMMOB.29                       V     C        18:20:49:20 18:20:53:24 02:11:06:18 02:11:10:22 
M2      MSMMMOB.29                                025.0 18:20:49:20 
*FROM CLIP NAME:  A083C007_190815_R32C 
*SOURCE FILE: MSMMMOB.29
012484  19Y08M15                         A     C        18:33:29:08 18:33:58:14 02:11:06:18 02:11:35:24 
*FROM CLIP NAME:  90K3/03.SYNC.01 
*SOURCE FILE: 19Y08M15
012485  19Y08M15                         A2    C        18:33:29:08 18:33:58:14 02:11:06:18 02:11:35:24 
*FROM CLIP NAME:  90K3/03.SYNC.01 
*SOURCE FILE: 19Y08M15
012486  19Y08M15                         A3    C        18:33:29:08 18:33:58:14 02:11:06:18 02:11:35:24 
*FROM CLIP NAME:  90K3/03.SYNC.01 
*SOURCE FILE: 19Y08M15
012487  19Y08M15                         A4    C        18:33:29:08 18:33:58:14 02:11:06:18 02:11:35:24 
*FROM CLIP NAME:  90K3/03.SYNC.01 
*SOURCE FILE: 19Y08M15
012488  19Y08M15                         A5    C        18:33:29:08 18:33:58:14 02:11:06:18 02:11:35:24 
*FROM CLIP NAME:  90K3/03.SYNC.01 
*PATCH 19Y08M15:  FROM SOURCE 7 TO RECORD 5 
*SOURCE FILE: 19Y08M15
012489  19Y08M15                         A7    C        18:33:29:08 18:33:58:14 02:11:06:18 02:11:35:24 
*FROM CLIP NAME:  90K3/03.SYNC.01 
*PATCH 19Y08M15:  FROM SOURCE 8 TO RECORD 7 
*SOURCE FILE: 19Y08M15
012490  19Y08M15                         A6    C        18:20:52:10 18:20:52:10 02:11:08:09 02:11:08:09 
012490  BL                               A6    D    038 00:00:00:00 00:00:01:13 02:11:08:09 02:11:09:22 
*FROM CLIP NAME:  90K2/01.SYNC.01 
*PATCH 19Y08M15:  FROM SOURCE 1 TO RECORD 6 
*SOURCE FILE: 19Y08M15
012491  19Y08M15                         A8    C        18:20:52:10 18:20:52:10 02:11:08:09 02:11:08:09 
012491  BL                               A8    D    038 00:00:00:00 00:00:01:13 02:11:08:09 02:11:09:22 
*FROM CLIP NAME:  90K2/01.SYNC.01 
*PATCH 19Y08M15:  FROM SOURCE 2 TO RECORD 8 
*SOURCE FILE: 19Y08M15
012492  MSMMMOB.46                       V     C        18:33:33:13 18:33:57:07 02:11:10:22 02:11:34:16 
M2      MSMMMOB.46                                025.0 18:33:33:13 
*FROM CLIP NAME:  A083C010_190815_R32C 
*SOURCE FILE: MSMMMOB.46
012493  MSMMMOB.26                       V     C        18:56:29:19 18:56:35:07 02:11:34:16 02:11:40:04 
M2      MSMMMOB.26                                025.0 18:56:29:19 
*FROM CLIP NAME:  A083C012_190815_R32C 
*SOURCE FILE: MSMMMOB.26
012494  BL                               V     C        00:00:00:00 00:00:01:17 02:11:34:24 02:11:36:16 
*SOURCE FILE: (NULL)
012495  19Y08M15                         A     C        18:33:53:23 18:33:55:06 02:11:35:24 02:11:37:07 
*FROM CLIP NAME:  90K3/03.SYNC.01 
*SOURCE FILE: 19Y08M15
012496  19Y08M15                         A2    C        18:33:53:23 18:33:55:06 02:11:35:24 02:11:37:07 
*FROM CLIP NAME:  90K3/03.SYNC.01 
*SOURCE FILE: 19Y08M15
012497  19Y08M15                         A3    C        18:33:53:23 18:33:55:06 02:11:35:24 02:11:37:07 
*FROM CLIP NAME:  90K3/03.SYNC.01 
*SOURCE FILE: 19Y08M15
012498  19Y08M15                         A4    C        18:33:53:23 18:33:55:06 02:11:35:24 02:11:37:07 
*FROM CLIP NAME:  90K3/03.SYNC.01 
*SOURCE FILE: 19Y08M15
012499  19Y08M15                         A5    C        18:33:53:23 18:33:55:06 02:11:35:24 02:11:37:07 
*FROM CLIP NAME:  90K3/03.SYNC.01 
*PATCH 19Y08M15:  FROM SOURCE 7 TO RECORD 5 
*SOURCE FILE: 19Y08M15
012500  19Y08M15                         A7    C        18:33:53:23 18:33:55:06 02:11:35:24 02:11:37:07 
*FROM CLIP NAME:  90K3/03.SYNC.01 
*PATCH 19Y08M15:  FROM SOURCE 8 TO RECORD 7 
*SOURCE FILE: 19Y08M15
012501  BL                               V     C        00:00:00:00 00:00:03:04 02:11:36:16 02:11:39:20 
*SOURCE FILE: (NULL)
012502  19Y08M15                         A     C        18:33:55:06 18:33:55:06 02:11:37:07 02:11:37:07 
012502  19Y08M15                         A     D    002 18:33:53:22 18:33:53:24 02:11:37:07 02:11:37:09 
*FROM CLIP NAME:  90K3/03.SYNC.01 
*TO CLIP NAME:  90K3/03.SYNC.01 
*SOURCE FILE: 19Y08M15
012503  19Y08M15                         A2    C        18:33:55:06 18:33:55:06 02:11:37:07 02:11:37:07 
012503  19Y08M15                         A2    D    002 18:33:53:22 18:33:53:24 02:11:37:07 02:11:37:09 
*FROM CLIP NAME:  90K3/03.SYNC.01 
*TO CLIP NAME:  90K3/03.SYNC.01 
*SOURCE FILE: 19Y08M15
012504  19Y08M15                         A3    C        18:33:55:06 18:33:55:06 02:11:37:07 02:11:37:07 
012504  19Y08M15                         A3    D    002 18:33:53:22 18:33:53:24 02:11:37:07 02:11:37:09 
*FROM CLIP NAME:  90K3/03.SYNC.01 
*TO CLIP NAME:  90K3/03.SYNC.01 
*SOURCE FILE: 19Y08M15
012505  19Y08M15                         A4    C        18:33:55:06 18:33:55:06 02:11:37:07 02:11:37:07 
012505  19Y08M15                         A4    D    002 18:33:53:22 18:33:53:24 02:11:37:07 02:11:37:09 
*FROM CLIP NAME:  90K3/03.SYNC.01 
*TO CLIP NAME:  90K3/03.SYNC.01 
*SOURCE FILE: 19Y08M15
012506  19Y08M15                         A5    C        18:33:55:06 18:33:55:06 02:11:37:07 02:11:37:07 
012506  19Y08M15                         A5    D    002 18:33:53:22 18:33:53:24 02:11:37:07 02:11:37:09 
*FROM CLIP NAME:  90K3/03.SYNC.01 
*TO CLIP NAME:  90K3/03.SYNC.01 
*PATCH 19Y08M15:  FROM SOURCE 7 TO RECORD 5 
*PATCH 19Y08M15:  FROM SOURCE 7 TO RECORD 5 
*SOURCE FILE: 19Y08M15
012507  19Y08M15                         A7    C        18:33:55:06 18:33:55:06 02:11:37:07 02:11:37:07 
012507  19Y08M15                         A7    D    002 18:33:53:22 18:33:53:24 02:11:37:07 02:11:37:09 
*FROM CLIP NAME:  90K3/03.SYNC.01 
*TO CLIP NAME:  90K3/03.SYNC.01 
*PATCH 19Y08M15:  FROM SOURCE 8 TO RECORD 7 
*PATCH 19Y08M15:  FROM SOURCE 8 TO RECORD 7 
*SOURCE FILE: 19Y08M15
012508  19Y08M15                         A     C        18:33:53:24 18:33:54:09 02:11:37:09 02:11:37:19 
*FROM CLIP NAME:  90K3/03.SYNC.01 
*SOURCE FILE: 19Y08M15
012509  19Y08M15                         A2    C        18:33:53:24 18:33:54:09 02:11:37:09 02:11:37:19 
*FROM CLIP NAME:  90K3/03.SYNC.01 
*SOURCE FILE: 19Y08M15
012510  19Y08M15                         A3    C        18:33:53:24 18:33:54:09 02:11:37:09 02:11:37:19 
*FROM CLIP NAME:  90K3/03.SYNC.01 
*SOURCE FILE: 19Y08M15
012511  19Y08M15                         A4    C        18:33:53:24 18:33:54:09 02:11:37:09 02:11:37:19 
*FROM CLIP NAME:  90K3/03.SYNC.01 
*SOURCE FILE: 19Y08M15
012512  19Y08M15                         A5    C        18:33:53:24 18:33:54:09 02:11:37:09 02:11:37:19 
*FROM CLIP NAME:  90K3/03.SYNC.01 
*PATCH 19Y08M15:  FROM SOURCE 7 TO RECORD 5 
*SOURCE FILE: 19Y08M15
012513  19Y08M15                         A7    C        18:33:53:24 18:33:54:09 02:11:37:09 02:11:37:19 
*FROM CLIP NAME:  90K3/03.SYNC.01 
*PATCH 19Y08M15:  FROM SOURCE 8 TO RECORD 7 
*SOURCE FILE: 19Y08M15
012514  19Y08M15                         A     C        18:56:32:21 18:56:34:20 02:11:37:19 02:11:39:18 
*FROM CLIP NAME:  90K5/01.SYNC.01 
*SOURCE FILE: 19Y08M15
012515  19Y08M15                         A2    C        18:56:32:21 18:56:34:20 02:11:37:19 02:11:39:18 
*FROM CLIP NAME:  90K5/01.SYNC.01 
*SOURCE FILE: 19Y08M15
012516  19Y08M15                         A3    C        18:56:32:21 18:56:34:20 02:11:37:19 02:11:39:18 
*FROM CLIP NAME:  90K5/01.SYNC.01 
*SOURCE FILE: 19Y08M15
012517  19Y08M15                         A4    C        18:56:32:21 18:56:34:20 02:11:37:19 02:11:39:18 
*FROM CLIP NAME:  90K5/01.SYNC.01 
*SOURCE FILE: 19Y08M15
012518  19Y08M15                         A5    C        18:56:32:21 18:56:34:20 02:11:37:19 02:11:39:18 
*FROM CLIP NAME:  90K5/01.SYNC.01 
*PATCH 19Y08M15:  FROM SOURCE 7 TO RECORD 5 
*SOURCE FILE: 19Y08M15
012519  19Y08M15                         A7    C        18:56:32:21 18:56:34:20 02:11:37:19 02:11:39:18 
*FROM CLIP NAME:  90K5/01.SYNC.01 
*PATCH 19Y08M15:  FROM SOURCE 8 TO RECORD 7 
*SOURCE FILE: 19Y08M15
012520  19Y08M15                         A     C        18:56:34:20 18:56:34:20 02:11:39:18 02:11:39:18 
012520  19Y08M15                         A     D    002 18:45:08:20 18:45:08:22 02:11:39:18 02:11:39:20 
*FROM CLIP NAME:  90K5/01.SYNC.01 
*TO CLIP NAME:  90K4/01.SYNC.01 
*SOURCE FILE: 19Y08M15
012521  19Y08M15                         A2    C        18:56:34:20 18:56:34:20 02:11:39:18 02:11:39:18 
012521  19Y08M15                         A2    D    002 18:45:08:20 18:45:08:22 02:11:39:18 02:11:39:20 
*FROM CLIP NAME:  90K5/01.SYNC.01 
*TO CLIP NAME:  90K4/01.SYNC.01 
*SOURCE FILE: 19Y08M15
012522  19Y08M15                         A3    C        18:56:34:20 18:56:34:20 02:11:39:18 02:11:39:18 
012522  19Y08M15                         A3    D    002 18:45:08:20 18:45:08:22 02:11:39:18 02:11:39:20 
*FROM CLIP NAME:  90K5/01.SYNC.01 
*TO CLIP NAME:  90K4/01.SYNC.01 
*SOURCE FILE: 19Y08M15
012523  19Y08M15                         A4    C        18:56:34:20 18:56:34:20 02:11:39:18 02:11:39:18 
012523  19Y08M15                         A4    D    002 18:45:08:20 18:45:08:22 02:11:39:18 02:11:39:20 
*FROM CLIP NAME:  90K5/01.SYNC.01 
*TO CLIP NAME:  90K4/01.SYNC.01 
*SOURCE FILE: 19Y08M15
012524  19Y08M15                         A5    C        18:56:34:20 18:56:34:20 02:11:39:18 02:11:39:18 
012524  19Y08M15                         A5    D    002 18:45:08:20 18:45:08:22 02:11:39:18 02:11:39:20 
*FROM CLIP NAME:  90K5/01.SYNC.01 
*TO CLIP NAME:  90K4/01.SYNC.01 
*PATCH 19Y08M15:  FROM SOURCE 7 TO RECORD 5 
*PATCH 19Y08M15:  FROM SOURCE 7 TO RECORD 5 
*SOURCE FILE: 19Y08M15
012525  19Y08M15                         A7    C        18:56:34:20 18:56:34:20 02:11:39:18 02:11:39:18 
012525  19Y08M15                         A7    D    002 18:45:08:20 18:45:08:22 02:11:39:18 02:11:39:20 
*FROM CLIP NAME:  90K5/01.SYNC.01 
*TO CLIP NAME:  90K4/01.SYNC.01 
*PATCH 19Y08M15:  FROM SOURCE 8 TO RECORD 7 
*PATCH 19Y08M15:  FROM SOURCE 8 TO RECORD 7 
*SOURCE FILE: 19Y08M15
012526  19Y08M15                         A     C        18:45:08:22 18:45:09:02 02:11:39:20 02:11:40:00 
*FROM CLIP NAME:  90K4/01.SYNC.01 
*SOURCE FILE: 19Y08M15
012527  19Y08M15                         A2    C        18:45:08:22 18:45:09:02 02:11:39:20 02:11:40:00 
*FROM CLIP NAME:  90K4/01.SYNC.01 
*SOURCE FILE: 19Y08M15
012528  19Y08M15                         A3    C        18:45:08:22 18:45:09:02 02:11:39:20 02:11:40:00 
*FROM CLIP NAME:  90K4/01.SYNC.01 
*SOURCE FILE: 19Y08M15
012529  19Y08M15                         A4    C        18:45:08:22 18:45:09:02 02:11:39:20 02:11:40:00 
*FROM CLIP NAME:  90K4/01.SYNC.01 
*SOURCE FILE: 19Y08M15
012530  19Y08M15                         A5    C        18:45:08:22 18:45:09:02 02:11:39:20 02:11:40:00 
*FROM CLIP NAME:  90K4/01.SYNC.01 
*PATCH 19Y08M15:  FROM SOURCE 7 TO RECORD 5 
*SOURCE FILE: 19Y08M15
012531  19Y08M15                         A7    C        18:45:08:22 18:45:09:02 02:11:39:20 02:11:40:00 
*FROM CLIP NAME:  90K4/01.SYNC.01 
*PATCH 19Y08M15:  FROM SOURCE 8 TO RECORD 7 
*SOURCE FILE: 19Y08M15
012532  BL                               V     C        00:00:00:00 00:00:10:21 02:11:39:20 02:11:50:16 
*SOURCE FILE: (NULL)
012533  19Y08M15                         A     C        18:45:09:02 18:45:09:02 02:11:40:00 02:11:40:00 
012533  19Y08M15                         A     D    002 18:56:35:02 18:56:35:04 02:11:40:00 02:11:40:02 
*FROM CLIP NAME:  90K4/01.SYNC.01 
*TO CLIP NAME:  90K5/01.SYNC.01 
*SOURCE FILE: 19Y08M15
012534  19Y08M15                         A2    C        18:45:09:02 18:45:09:02 02:11:40:00 02:11:40:00 
012534  19Y08M15                         A2    D    002 18:56:35:02 18:56:35:04 02:11:40:00 02:11:40:02 
*FROM CLIP NAME:  90K4/01.SYNC.01 
*TO CLIP NAME:  90K5/01.SYNC.01 
*SOURCE FILE: 19Y08M15
012535  19Y08M15                         A3    C        18:45:09:02 18:45:09:02 02:11:40:00 02:11:40:00 
012535  19Y08M15                         A3    D    002 18:56:35:02 18:56:35:04 02:11:40:00 02:11:40:02 
*FROM CLIP NAME:  90K4/01.SYNC.01 
*TO CLIP NAME:  90K5/01.SYNC.01 
*SOURCE FILE: 19Y08M15
012536  19Y08M15                         A4    C        18:45:09:02 18:45:09:02 02:11:40:00 02:11:40:00 
012536  19Y08M15                         A4    D    002 18:56:35:02 18:56:35:04 02:11:40:00 02:11:40:02 
*FROM CLIP NAME:  90K4/01.SYNC.01 
*TO CLIP NAME:  90K5/01.SYNC.01 
*SOURCE FILE: 19Y08M15
012537  19Y08M15                         A5    C        18:45:09:02 18:45:09:02 02:11:40:00 02:11:40:00 
012537  19Y08M15                         A5    D    002 18:56:35:02 18:56:35:04 02:11:40:00 02:11:40:02 
*FROM CLIP NAME:  90K4/01.SYNC.01 
*TO CLIP NAME:  90K5/01.SYNC.01 
*PATCH 19Y08M15:  FROM SOURCE 7 TO RECORD 5 
*PATCH 19Y08M15:  FROM SOURCE 7 TO RECORD 5 
*SOURCE FILE: 19Y08M15
012538  19Y08M15                         A7    C        18:45:09:02 18:45:09:02 02:11:40:00 02:11:40:00 
012538  19Y08M15                         A7    D    002 18:56:35:02 18:56:35:04 02:11:40:00 02:11:40:02 
*FROM CLIP NAME:  90K4/01.SYNC.01 
*TO CLIP NAME:  90K5/01.SYNC.01 
*PATCH 19Y08M15:  FROM SOURCE 8 TO RECORD 7 
*PATCH 19Y08M15:  FROM SOURCE 8 TO RECORD 7 
*SOURCE FILE: 19Y08M15
012539  19Y08M15                         A     C        18:56:35:04 18:56:38:10 02:11:40:02 02:11:43:08 
*FROM CLIP NAME:  90K5/01.SYNC.01 
*SOURCE FILE: 19Y08M15
012540  19Y08M15                         A2    C        18:56:35:04 18:56:38:10 02:11:40:02 02:11:43:08 
*FROM CLIP NAME:  90K5/01.SYNC.01 
*SOURCE FILE: 19Y08M15
012541  19Y08M15                         A3    C        18:56:35:04 18:56:38:10 02:11:40:02 02:11:43:08 
*FROM CLIP NAME:  90K5/01.SYNC.01 
*SOURCE FILE: 19Y08M15
012542  19Y08M15                         A4    C        18:56:35:04 18:56:38:10 02:11:40:02 02:11:43:08 
*FROM CLIP NAME:  90K5/01.SYNC.01 
*SOURCE FILE: 19Y08M15
012543  19Y08M15                         A5    C        18:56:35:04 18:56:38:10 02:11:40:02 02:11:43:08 
*FROM CLIP NAME:  90K5/01.SYNC.01 
*PATCH 19Y08M15:  FROM SOURCE 7 TO RECORD 5 
*SOURCE FILE: 19Y08M15
012544  19Y08M15                         A7    C        18:56:35:04 18:56:38:10 02:11:40:02 02:11:43:08 
*FROM CLIP NAME:  90K5/01.SYNC.01 
*PATCH 19Y08M15:  FROM SOURCE 8 TO RECORD 7 
*SOURCE FILE: 19Y08M15
012545  MSMMMOB.74                       V     C        18:56:35:06 18:56:38:23 02:11:40:04 02:11:43:21 
M2      MSMMMOB.74                                025.0 18:56:35:06 
*FROM CLIP NAME:  B028C016_120101_R0BA 
*SOURCE FILE: MSMMMOB.74
012546  19Y08M15                         A     C        18:45:14:22 18:45:16:07 02:11:43:08 02:11:44:18 
*FROM CLIP NAME:  90K4/01.SYNC.01 
*SOURCE FILE: 19Y08M15
012547  19Y08M15                         A2    C        18:45:14:22 18:45:16:07 02:11:43:08 02:11:44:18 
*FROM CLIP NAME:  90K4/01.SYNC.01 
*SOURCE FILE: 19Y08M15
012548  19Y08M15                         A3    C        18:45:14:22 18:45:16:07 02:11:43:08 02:11:44:18 
*FROM CLIP NAME:  90K4/01.SYNC.01 
*SOURCE FILE: 19Y08M15
012549  19Y08M15                         A4    C        18:45:14:22 18:45:16:07 02:11:43:08 02:11:44:18 
*FROM CLIP NAME:  90K4/01.SYNC.01 
*SOURCE FILE: 19Y08M15
012550  19Y08M15                         A5    C        18:45:14:22 18:45:16:07 02:11:43:08 02:11:44:18 
*FROM CLIP NAME:  90K4/01.SYNC.01 
*PATCH 19Y08M15:  FROM SOURCE 7 TO RECORD 5 
*SOURCE FILE: 19Y08M15
012551  19Y08M15                         A7    C        18:45:14:22 18:45:16:07 02:11:43:08 02:11:44:18 
*FROM CLIP NAME:  90K4/01.SYNC.01 
*PATCH 19Y08M15:  FROM SOURCE 8 TO RECORD 7 
*SOURCE FILE: 19Y08M15
012552  MSMMMOB.26                       V     C        18:56:38:24 18:56:43:24 02:11:43:21 02:11:48:21 
M2      MSMMMOB.26                                025.0 18:56:38:24 
*FROM CLIP NAME:  A083C012_190815_R32C 
*SOURCE FILE: MSMMMOB.26
012553  19Y08M15                         A     C        18:56:39:20 18:56:43:08 02:11:44:18 02:11:48:06 
*FROM CLIP NAME:  90K5/01.SYNC.01 
*SOURCE FILE: 19Y08M15
012554  19Y08M15                         A2    C        18:56:39:20 18:56:43:08 02:11:44:18 02:11:48:06 
*FROM CLIP NAME:  90K5/01.SYNC.01 
*SOURCE FILE: 19Y08M15
012555  19Y08M15                         A3    C        18:56:39:20 18:56:43:08 02:11:44:18 02:11:48:06 
*FROM CLIP NAME:  90K5/01.SYNC.01 
*SOURCE FILE: 19Y08M15
012556  19Y08M15                         A4    C        18:56:39:20 18:56:43:08 02:11:44:18 02:11:48:06 
*FROM CLIP NAME:  90K5/01.SYNC.01 
*SOURCE FILE: 19Y08M15
012557  19Y08M15                         A5    C        18:56:39:20 18:56:43:08 02:11:44:18 02:11:48:06 
*FROM CLIP NAME:  90K5/01.SYNC.01 
*PATCH 19Y08M15:  FROM SOURCE 7 TO RECORD 5 
*SOURCE FILE: 19Y08M15
012558  19Y08M15                         A7    C        18:56:39:20 18:56:43:08 02:11:44:18 02:11:48:06 
*FROM CLIP NAME:  90K5/01.SYNC.01 
*PATCH 19Y08M15:  FROM SOURCE 8 TO RECORD 7 
*SOURCE FILE: 19Y08M15
012559  19Y08M15                         A     C        18:45:16:16 18:45:17:17 02:11:48:06 02:11:49:07 
*FROM CLIP NAME:  90K4/01.SYNC.01 
*SOURCE FILE: 19Y08M15
012560  19Y08M15                         A2    C        18:45:16:16 18:45:17:17 02:11:48:06 02:11:49:07 
*FROM CLIP NAME:  90K4/01.SYNC.01 
*SOURCE FILE: 19Y08M15
012561  19Y08M15                         A3    C        18:45:16:16 18:45:17:17 02:11:48:06 02:11:49:07 
*FROM CLIP NAME:  90K4/01.SYNC.01 
*SOURCE FILE: 19Y08M15
012562  19Y08M15                         A4    C        18:45:16:16 18:45:17:17 02:11:48:06 02:11:49:07 
*FROM CLIP NAME:  90K4/01.SYNC.01 
*SOURCE FILE: 19Y08M15
012563  19Y08M15                         A5    C        18:45:16:16 18:45:17:17 02:11:48:06 02:11:49:07 
*FROM CLIP NAME:  90K4/01.SYNC.01 
*PATCH 19Y08M15:  FROM SOURCE 7 TO RECORD 5 
*SOURCE FILE: 19Y08M15
012564  19Y08M15                         A7    C        18:45:16:16 18:45:17:17 02:11:48:06 02:11:49:07 
*FROM CLIP NAME:  90K4/01.SYNC.01 
*PATCH 19Y08M15:  FROM SOURCE 8 TO RECORD 7 
*SOURCE FILE: 19Y08M15
012565  MSMMMOB.82                       V     C        19:11:24:24 19:11:26:05 02:11:48:21 02:11:50:02 
M2      MSMMMOB.82                                025.0 19:11:24:24 
*FROM CLIP NAME:  A083C015_190815_R32C 
*SOURCE FILE: MSMMMOB.82
012566  19Y08M15                         A     C        18:56:48:01 18:56:49:14 02:11:49:07 02:11:50:20 
*FROM CLIP NAME:  90K5/01.SYNC.01 
*SOURCE FILE: 19Y08M15
012567  19Y08M15                         A2    C        18:56:48:01 18:56:49:14 02:11:49:07 02:11:50:20 
*FROM CLIP NAME:  90K5/01.SYNC.01 
*SOURCE FILE: 19Y08M15
012568  19Y08M15                         A3    C        18:56:48:01 18:56:49:14 02:11:49:07 02:11:50:20 
*FROM CLIP NAME:  90K5/01.SYNC.01 
*SOURCE FILE: 19Y08M15
012569  19Y08M15                         A4    C        18:56:48:01 18:56:49:14 02:11:49:07 02:11:50:20 
*FROM CLIP NAME:  90K5/01.SYNC.01 
*SOURCE FILE: 19Y08M15
012570  19Y08M15                         A5    C        18:56:48:01 18:56:49:14 02:11:49:07 02:11:50:20 
*FROM CLIP NAME:  90K5/01.SYNC.01 
*PATCH 19Y08M15:  FROM SOURCE 7 TO RECORD 5 
*SOURCE FILE: 19Y08M15
012571  19Y08M15                         A7    C        18:56:48:01 18:56:49:14 02:11:49:07 02:11:50:20 
*FROM CLIP NAME:  90K5/01.SYNC.01 
*PATCH 19Y08M15:  FROM SOURCE 8 TO RECORD 7 
*SOURCE FILE: 19Y08M15
012572  MSMMMOB.26                       V     C        18:56:48:22 18:56:51:19 02:11:50:02 02:11:52:24 
M2      MSMMMOB.26                                025.0 18:56:48:22 
*FROM CLIP NAME:  A083C012_190815_R32C 
*SOURCE FILE: MSMMMOB.26
012573  BL                               V     C        00:00:00:00 00:00:00:04 02:11:50:16 02:11:50:20 
*SOURCE FILE: (NULL)
012574  19Y08M15                         A     C        19:11:59:16 19:12:00:20 02:11:50:20 02:11:51:24 
*FROM CLIP NAME:  90K6/03.SYNC.01 
*SOURCE FILE: 19Y08M15
012575  19Y08M15                         A2    C        19:11:59:16 19:12:00:20 02:11:50:20 02:11:51:24 
*FROM CLIP NAME:  90K6/03.SYNC.01 
*SOURCE FILE: 19Y08M15
012576  19Y08M15                         A3    C        19:11:59:16 19:12:00:20 02:11:50:20 02:11:51:24 
*FROM CLIP NAME:  90K6/03.SYNC.01 
*SOURCE FILE: 19Y08M15
012577  19Y08M15                         A4    C        19:11:59:16 19:12:00:20 02:11:50:20 02:11:51:24 
*FROM CLIP NAME:  90K6/03.SYNC.01 
*SOURCE FILE: 19Y08M15
012578  19Y08M15                         A5    C        19:11:59:16 19:12:00:20 02:11:50:20 02:11:51:24 
*FROM CLIP NAME:  90K6/03.SYNC.01 
*PATCH 19Y08M15:  FROM SOURCE 7 TO RECORD 5 
*SOURCE FILE: 19Y08M15
012579  19Y08M15                         A7    C        19:11:59:16 19:12:00:20 02:11:50:20 02:11:51:24 
*FROM CLIP NAME:  90K6/03.SYNC.01 
*PATCH 19Y08M15:  FROM SOURCE 8 TO RECORD 7 
*SOURCE FILE: 19Y08M15
012580  BL                               V     C        00:00:00:00 00:00:01:17 02:11:50:20 02:11:52:12 
*SOURCE FILE: (NULL)
012581  19Y08M15                         A     C        18:56:50:18 18:56:51:18 02:11:51:24 02:11:52:24 
*FROM CLIP NAME:  90K5/01.SYNC.01 
*SOURCE FILE: 19Y08M15
012582  19Y08M15                         A2    C        18:56:50:18 18:56:51:18 02:11:51:24 02:11:52:24 
*FROM CLIP NAME:  90K5/01.SYNC.01 
*SOURCE FILE: 19Y08M15
012583  19Y08M15                         A3    C        18:56:50:18 18:56:51:18 02:11:51:24 02:11:52:24 
*FROM CLIP NAME:  90K5/01.SYNC.01 
*SOURCE FILE: 19Y08M15
012584  19Y08M15                         A4    C        18:56:50:18 18:56:51:18 02:11:51:24 02:11:52:24 
*FROM CLIP NAME:  90K5/01.SYNC.01 
*SOURCE FILE: 19Y08M15
012585  19Y08M15                         A5    C        18:56:50:18 18:56:51:18 02:11:51:24 02:11:52:24 
*FROM CLIP NAME:  90K5/01.SYNC.01 
*PATCH 19Y08M15:  FROM SOURCE 7 TO RECORD 5 
*SOURCE FILE: 19Y08M15
012586  19Y08M15                         A7    C        18:56:50:18 18:56:51:18 02:11:51:24 02:11:52:24 
*FROM CLIP NAME:  90K5/01.SYNC.01 
*PATCH 19Y08M15:  FROM SOURCE 8 TO RECORD 7 
*SOURCE FILE: 19Y08M15
012587  BL                               V     C        00:00:00:00 00:00:28:15 02:11:52:12 02:12:21:02 
*SOURCE FILE: (NULL)
012588  MSMMMOB.21                       V     C        20:24:57:18 20:25:01:18 02:11:52:24 02:11:56:24 
M2      MSMMMOB.21                                025.0 20:24:57:18 
*FROM CLIP NAME:  A084C014_190815_R32C 
*SOURCE FILE: MSMMMOB.21
012589  19Y08M15                         A     C        20:24:57:17 20:25:01:17 02:11:52:24 02:11:56:24 
*FROM CLIP NAME:  90K15/02.SYNC.01 
*SOURCE FILE: 19Y08M15
012590  19Y08M15                         A2    C        20:24:57:17 20:25:01:17 02:11:52:24 02:11:56:24 
*FROM CLIP NAME:  90K15/02.SYNC.01 
*SOURCE FILE: 19Y08M15
012591  19Y08M15                         A3    C        20:24:57:17 20:25:01:17 02:11:52:24 02:11:56:24 
*FROM CLIP NAME:  90K15/02.SYNC.01 
*PATCH 19Y08M15:  FROM SOURCE 4 TO RECORD 3 
*SOURCE FILE: 19Y08M15
012592  19Y08M15                         A     C        19:16:42:02 19:16:47:08 02:11:56:24 02:12:02:05 
*FROM CLIP NAME:  90K7/01.SYNC.01 
*SOURCE FILE: 19Y08M15
012593  19Y08M15                         A2    C        19:16:42:02 19:16:47:08 02:11:56:24 02:12:02:05 
*FROM CLIP NAME:  90K7/01.SYNC.01 
*SOURCE FILE: 19Y08M15
012594  19Y08M15                         A3    C        19:16:42:02 19:16:47:08 02:11:56:24 02:12:02:05 
*FROM CLIP NAME:  90K7/01.SYNC.01 
*SOURCE FILE: 19Y08M15
012595  19Y08M15                         A4    C        19:16:42:02 19:16:47:08 02:11:56:24 02:12:02:05 
*FROM CLIP NAME:  90K7/01.SYNC.01 
*SOURCE FILE: 19Y08M15
012596  19Y08M15                         A5    C        19:16:42:02 19:16:47:08 02:11:56:24 02:12:02:05 
*FROM CLIP NAME:  90K7/01.SYNC.01 
*PATCH 19Y08M15:  FROM SOURCE 7 TO RECORD 5 
*SOURCE FILE: 19Y08M15
012597  19Y08M15                         A6    C        19:16:42:02 19:16:47:08 02:11:56:24 02:12:02:05 
*FROM CLIP NAME:  90K7/01.SYNC.01 
*PATCH 19Y08M15:  FROM SOURCE 8 TO RECORD 6 
*SOURCE FILE: 19Y08M15
012598  MSMMMOB.31                       V     C        19:16:42:02 19:16:47:20 02:11:56:24 02:12:02:17 
M2      MSMMMOB.31                                025.0 19:16:42:02 
*FROM CLIP NAME:  B028C021_120101_R0BA 
*SOURCE FILE: MSMMMOB.31
012599  19Y08M15                         A     C        19:16:47:08 19:16:47:08 02:12:02:05 02:12:02:05 
012599  19Y08M15                         A     D    002 19:17:12:15 19:17:12:17 02:12:02:05 02:12:02:07 
*FROM CLIP NAME:  90K7/01.SYNC.01 
*TO CLIP NAME:  90K7/01.SYNC.01 
*SOURCE FILE: 19Y08M15
012600  19Y08M15                         A2    C        19:16:47:08 19:16:47:08 02:12:02:05 02:12:02:05 
012600  19Y08M15                         A2    D    002 19:17:12:15 19:17:12:17 02:12:02:05 02:12:02:07 
*FROM CLIP NAME:  90K7/01.SYNC.01 
*TO CLIP NAME:  90K7/01.SYNC.01 
*SOURCE FILE: 19Y08M15
012601  19Y08M15                         A3    C        19:16:47:08 19:16:47:08 02:12:02:05 02:12:02:05 
012601  19Y08M15                         A3    D    002 19:17:12:15 19:17:12:17 02:12:02:05 02:12:02:07 
*FROM CLIP NAME:  90K7/01.SYNC.01 
*TO CLIP NAME:  90K7/01.SYNC.01 
*SOURCE FILE: 19Y08M15
012602  19Y08M15                         A4    C        19:16:47:08 19:16:47:08 02:12:02:05 02:12:02:05 
012602  19Y08M15                         A4    D    002 19:17:12:15 19:17:12:17 02:12:02:05 02:12:02:07 
*FROM CLIP NAME:  90K7/01.SYNC.01 
*TO CLIP NAME:  90K7/01.SYNC.01 
*SOURCE FILE: 19Y08M15
012603  19Y08M15                         A5    C        19:16:47:08 19:16:47:08 02:12:02:05 02:12:02:05 
012603  19Y08M15                         A5    D    002 19:17:12:15 19:17:12:17 02:12:02:05 02:12:02:07 
*FROM CLIP NAME:  90K7/01.SYNC.01 
*TO CLIP NAME:  90K7/01.SYNC.01 
*PATCH 19Y08M15:  FROM SOURCE 7 TO RECORD 5 
*PATCH 19Y08M15:  FROM SOURCE 7 TO RECORD 5 
*SOURCE FILE: 19Y08M15
012604  19Y08M15                         A6    C        19:16:47:08 19:16:47:08 02:12:02:05 02:12:02:05 
012604  19Y08M15                         A6    D    002 19:17:12:15 19:17:12:17 02:12:02:05 02:12:02:07 
*FROM CLIP NAME:  90K7/01.SYNC.01 
*TO CLIP NAME:  90K7/01.SYNC.01 
*PATCH 19Y08M15:  FROM SOURCE 8 TO RECORD 6 
*PATCH 19Y08M15:  FROM SOURCE 8 TO RECORD 6 
*SOURCE FILE: 19Y08M15
012605  19Y08M15                         A     C        19:17:12:17 19:17:14:00 02:12:02:07 02:12:03:15 
*FROM CLIP NAME:  90K7/01.SYNC.01 
*SOURCE FILE: 19Y08M15
012606  19Y08M15                         A2    C        19:17:12:17 19:17:14:00 02:12:02:07 02:12:03:15 
*FROM CLIP NAME:  90K7/01.SYNC.01 
*SOURCE FILE: 19Y08M15
012607  19Y08M15                         A3    C        19:17:12:17 19:17:14:00 02:12:02:07 02:12:03:15 
*FROM CLIP NAME:  90K7/01.SYNC.01 
*SOURCE FILE: 19Y08M15
012608  19Y08M15                         A4    C        19:17:12:17 19:17:14:00 02:12:02:07 02:12:03:15 
*FROM CLIP NAME:  90K7/01.SYNC.01 
*SOURCE FILE: 19Y08M15
012609  19Y08M15                         A5    C        19:17:12:17 19:17:14:00 02:12:02:07 02:12:03:15 
*FROM CLIP NAME:  90K7/01.SYNC.01 
*PATCH 19Y08M15:  FROM SOURCE 7 TO RECORD 5 
*SOURCE FILE: 19Y08M15
012610  19Y08M15                         A6    C        19:17:12:17 19:17:14:00 02:12:02:07 02:12:03:15 
*FROM CLIP NAME:  90K7/01.SYNC.01 
*PATCH 19Y08M15:  FROM SOURCE 8 TO RECORD 6 
*SOURCE FILE: 19Y08M15
012611  MSMMMOB.82                       V     C        19:11:27:09 19:11:28:15 02:12:02:17 02:12:03:23 
M2      MSMMMOB.82                                025.0 19:11:27:09 
*FROM CLIP NAME:  A083C015_190815_R32C 
*SOURCE FILE: MSMMMOB.82
012612  19Y08M15                         A7    C        19:16:47:09 19:16:47:24 02:12:03:03 02:12:03:18 
*FROM CLIP NAME:  90K7/01.SYNC.01 
*SOURCE FILE: 19Y08M15
012613  19Y08M15                         A8    C        19:16:47:09 19:16:47:24 02:12:03:03 02:12:03:18 
*FROM CLIP NAME:  90K7/01.SYNC.01 
*SOURCE FILE: 19Y08M15
012614  19Y08M15                         A9    C        19:16:47:09 19:16:47:24 02:12:03:03 02:12:03:18 
*FROM CLIP NAME:  90K7/01.SYNC.01 
*PATCH 19Y08M15:  FROM SOURCE 1 TO RECORD 9 
*SOURCE FILE: 19Y08M15
012615  19Y08M15                         A10   C        19:16:47:09 19:16:47:24 02:12:03:03 02:12:03:18 
*FROM CLIP NAME:  90K7/01.SYNC.01 
*PATCH 19Y08M15:  FROM SOURCE 2 TO RECORD 10 
*SOURCE FILE: 19Y08M15
012616  19Y08M15                         A11   C        19:16:47:09 19:16:47:24 02:12:03:03 02:12:03:18 
*FROM CLIP NAME:  90K7/01.SYNC.01 
*PATCH 19Y08M15:  FROM SOURCE 3 TO RECORD 11 
*SOURCE FILE: 19Y08M15
012617  19Y08M15                         A12   C        19:16:47:09 19:16:47:24 02:12:03:03 02:12:03:18 
*FROM CLIP NAME:  90K7/01.SYNC.01 
*PATCH 19Y08M15:  FROM SOURCE 4 TO RECORD 12 
*SOURCE FILE: 19Y08M15
012618  19Y08M15                         A     C        19:17:14:00 19:17:14:00 02:12:03:15 02:12:03:15 
012618  19Y08M15                         A     D    002 19:17:12:15 19:17:12:17 02:12:03:15 02:12:03:17 
*FROM CLIP NAME:  90K7/01.SYNC.01 
*TO CLIP NAME:  90K7/01.SYNC.01 
*SOURCE FILE: 19Y08M15
012619  19Y08M15                         A2    C        19:17:14:00 19:17:14:00 02:12:03:15 02:12:03:15 
012619  19Y08M15                         A2    D    002 19:17:12:15 19:17:12:17 02:12:03:15 02:12:03:17 
*FROM CLIP NAME:  90K7/01.SYNC.01 
*TO CLIP NAME:  90K7/01.SYNC.01 
*SOURCE FILE: 19Y08M15
012620  19Y08M15                         A3    C        19:17:14:00 19:17:14:00 02:12:03:15 02:12:03:15 
012620  19Y08M15                         A3    D    002 19:17:12:15 19:17:12:17 02:12:03:15 02:12:03:17 
*FROM CLIP NAME:  90K7/01.SYNC.01 
*TO CLIP NAME:  90K7/01.SYNC.01 
*SOURCE FILE: 19Y08M15
012621  19Y08M15                         A4    C        19:17:14:00 19:17:14:00 02:12:03:15 02:12:03:15 
012621  19Y08M15                         A4    D    002 19:17:12:15 19:17:12:17 02:12:03:15 02:12:03:17 
*FROM CLIP NAME:  90K7/01.SYNC.01 
*TO CLIP NAME:  90K7/01.SYNC.01 
*SOURCE FILE: 19Y08M15
012622  19Y08M15                         A5    C        19:17:14:00 19:17:14:00 02:12:03:15 02:12:03:15 
012622  19Y08M15                         A5    D    002 19:17:12:15 19:17:12:17 02:12:03:15 02:12:03:17 
*FROM CLIP NAME:  90K7/01.SYNC.01 
*TO CLIP NAME:  90K7/01.SYNC.01 
*PATCH 19Y08M15:  FROM SOURCE 7 TO RECORD 5 
*PATCH 19Y08M15:  FROM SOURCE 7 TO RECORD 5 
*SOURCE FILE: 19Y08M15
012623  19Y08M15                         A6    C        19:17:14:00 19:17:14:00 02:12:03:15 02:12:03:15 
012623  19Y08M15                         A6    D    002 19:17:12:15 19:17:12:17 02:12:03:15 02:12:03:17 
*FROM CLIP NAME:  90K7/01.SYNC.01 
*TO CLIP NAME:  90K7/01.SYNC.01 
*PATCH 19Y08M15:  FROM SOURCE 8 TO RECORD 6 
*PATCH 19Y08M15:  FROM SOURCE 8 TO RECORD 6 
*SOURCE FILE: 19Y08M15
012624  19Y08M15                         A     C        19:17:12:17 19:17:12:22 02:12:03:17 02:12:03:22 
*FROM CLIP NAME:  90K7/01.SYNC.01 
*SOURCE FILE: 19Y08M15
012625  19Y08M15                         A2    C        19:17:12:17 19:17:12:22 02:12:03:17 02:12:03:22 
*FROM CLIP NAME:  90K7/01.SYNC.01 
*SOURCE FILE: 19Y08M15
012626  19Y08M15                         A3    C        19:17:12:17 19:17:12:22 02:12:03:17 02:12:03:22 
*FROM CLIP NAME:  90K7/01.SYNC.01 
*SOURCE FILE: 19Y08M15
012627  19Y08M15                         A4    C        19:17:12:17 19:17:12:22 02:12:03:17 02:12:03:22 
*FROM CLIP NAME:  90K7/01.SYNC.01 
*SOURCE FILE: 19Y08M15
012628  19Y08M15                         A5    C        19:17:12:17 19:17:12:22 02:12:03:17 02:12:03:22 
*FROM CLIP NAME:  90K7/01.SYNC.01 
*PATCH 19Y08M15:  FROM SOURCE 7 TO RECORD 5 
*SOURCE FILE: 19Y08M15
012629  19Y08M15                         A6    C        19:17:12:17 19:17:12:22 02:12:03:17 02:12:03:22 
*FROM CLIP NAME:  90K7/01.SYNC.01 
*PATCH 19Y08M15:  FROM SOURCE 8 TO RECORD 6 
*SOURCE FILE: 19Y08M15
012630  19Y08M15                         A     C        19:17:12:22 19:17:12:22 02:12:03:22 02:12:03:22 
012630  19Y08M15                         A     D    002 19:26:12:20 19:26:12:22 02:12:03:22 02:12:03:24 
*FROM CLIP NAME:  90K7/01.SYNC.01 
*TO CLIP NAME:  90K8/01.SYNC.01 
*SOURCE FILE: 19Y08M15
012631  19Y08M15                         A2    C        19:17:12:22 19:17:12:22 02:12:03:22 02:12:03:22 
012631  19Y08M15                         A2    D    002 19:26:12:20 19:26:12:22 02:12:03:22 02:12:03:24 
*FROM CLIP NAME:  90K7/01.SYNC.01 
*TO CLIP NAME:  90K8/01.SYNC.01 
*SOURCE FILE: 19Y08M15
012632  19Y08M15                         A3    C        19:17:12:22 19:17:12:22 02:12:03:22 02:12:03:22 
012632  19Y08M15                         A3    D    002 19:26:12:20 19:26:12:22 02:12:03:22 02:12:03:24 
*FROM CLIP NAME:  90K7/01.SYNC.01 
*TO CLIP NAME:  90K8/01.SYNC.01 
*SOURCE FILE: 19Y08M15
012633  19Y08M15                         A4    C        19:17:12:22 19:17:12:22 02:12:03:22 02:12:03:22 
012633  19Y08M15                         A4    D    002 19:26:12:20 19:26:12:22 02:12:03:22 02:12:03:24 
*FROM CLIP NAME:  90K7/01.SYNC.01 
*TO CLIP NAME:  90K8/01.SYNC.01 
*A4 VOL =  +7.0 DB  PAN L100 
*SOURCE FILE: 19Y08M15
012634  19Y08M15                         A5    C        19:17:12:22 19:17:12:22 02:12:03:22 02:12:03:22 
012634  19Y08M15                         A5    D    002 19:26:12:20 19:26:12:22 02:12:03:22 02:12:03:24 
*FROM CLIP NAME:  90K7/01.SYNC.01 
*TO CLIP NAME:  90K8/01.SYNC.01 
*PATCH 19Y08M15:  FROM SOURCE 7 TO RECORD 5 
*PATCH 19Y08M15:  FROM SOURCE 7 TO RECORD 5 
*SOURCE FILE: 19Y08M15
012635  19Y08M15                         A6    C        19:17:12:22 19:17:12:22 02:12:03:22 02:12:03:22 
012635  BL                               A6    D    002 00:00:00:00 00:00:00:02 02:12:03:22 02:12:03:24 
*FROM CLIP NAME:  90K7/01.SYNC.01 
*PATCH 19Y08M15:  FROM SOURCE 8 TO RECORD 6 
*SOURCE FILE: 19Y08M15
012636  MSMMMOB.09                       V     C        19:26:12:22 19:26:16:15 02:12:03:23 02:12:07:16 
M2      MSMMMOB.09                                025.0 19:26:12:22 
*FROM CLIP NAME:  A084C002_190815_R32C 
*SOURCE FILE: MSMMMOB.09
012637  19Y08M15                         A     C        19:26:12:22 19:26:16:14 02:12:03:24 02:12:07:16 
*FROM CLIP NAME:  90K8/01.SYNC.01 
*SOURCE FILE: 19Y08M15
012638  19Y08M15                         A2    C        19:26:12:22 19:26:16:14 02:12:03:24 02:12:07:16 
*FROM CLIP NAME:  90K8/01.SYNC.01 
*SOURCE FILE: 19Y08M15
012639  19Y08M15                         A3    C        19:26:12:22 19:26:16:14 02:12:03:24 02:12:07:16 
*FROM CLIP NAME:  90K8/01.SYNC.01 
*SOURCE FILE: 19Y08M15
012640  19Y08M15                         A4    C        19:26:12:22 19:26:16:14 02:12:03:24 02:12:07:16 
*FROM CLIP NAME:  90K8/01.SYNC.01 
*A4 VOL =  +7.0 DB  PAN L100 
*SOURCE FILE: 19Y08M15
012641  19Y08M15                         A5    C        19:26:12:22 19:26:16:14 02:12:03:24 02:12:07:16 
*FROM CLIP NAME:  90K8/01.SYNC.01 
*PATCH 19Y08M15:  FROM SOURCE 7 TO RECORD 5 
*SOURCE FILE: 19Y08M15
012642  MSMMMOB.65                       V     C        19:40:40:12 19:40:41:06 02:12:07:16 02:12:08:10 
M2      MSMMMOB.65                                025.0 19:40:40:12 
*FROM CLIP NAME:  B028C027_120101_R0BA 
*SOURCE FILE: MSMMMOB.65
012643  19Y08M15                         A     C        19:40:40:12 19:40:41:06 02:12:07:16 02:12:08:10 
*FROM CLIP NAME:  90K9/02.SYNC.01 
*A1 VOL =  +7.0 DB  PAN R100 
*SOURCE FILE: 19Y08M15
012644  19Y08M15                         A2    C        19:40:40:12 19:40:41:06 02:12:07:16 02:12:08:10 
*FROM CLIP NAME:  90K9/02.SYNC.01 
*A2 VOL =  +6.7 DB  PAN L100 
*SOURCE FILE: 19Y08M15
012645  19Y08M15                         A3    C        19:40:40:12 19:40:41:06 02:12:07:16 02:12:08:10 
*FROM CLIP NAME:  90K9/02.SYNC.01 
*SOURCE FILE: 19Y08M15
012646  19Y08M15                         A4    C        19:40:40:12 19:40:41:06 02:12:07:16 02:12:08:10 
*FROM CLIP NAME:  90K9/02.SYNC.01 
*SOURCE FILE: 19Y08M15
012647  19Y08M15                         A5    C        19:40:40:12 19:40:41:06 02:12:07:16 02:12:08:10 
*FROM CLIP NAME:  90K9/02.SYNC.01 
*PATCH 19Y08M15:  FROM SOURCE 7 TO RECORD 5 
*SOURCE FILE: 19Y08M15
012648  19Y08M15                         A     C        19:40:41:06 19:40:41:06 02:12:08:10 02:12:08:10 
012648  19Y08M15                         A     D    002 19:40:42:12 19:40:42:14 02:12:08:10 02:12:08:12 
*FROM CLIP NAME:  90K9/02.SYNC.01 
*TO CLIP NAME:  90K9/02.SYNC.01 
*A1 VOL =  +7.0 DB  PAN R100 
*A1 VOL =  +8.0 DB  PAN R100 
*SOURCE FILE: 19Y08M15
012649  19Y08M15                         A2    C        19:40:41:06 19:40:41:06 02:12:08:10 02:12:08:10 
012649  19Y08M15                         A2    D    002 19:40:42:12 19:40:42:14 02:12:08:10 02:12:08:12 
*FROM CLIP NAME:  90K9/02.SYNC.01 
*TO CLIP NAME:  90K9/02.SYNC.01 
*A2 VOL =  +6.7 DB  PAN L100 
*SOURCE FILE: 19Y08M15
012650  19Y08M15                         A3    C        19:40:41:06 19:40:41:06 02:12:08:10 02:12:08:10 
012650  19Y08M15                         A3    D    002 19:40:42:12 19:40:42:14 02:12:08:10 02:12:08:12 
*FROM CLIP NAME:  90K9/02.SYNC.01 
*TO CLIP NAME:  90K9/02.SYNC.01 
*SOURCE FILE: 19Y08M15
012651  19Y08M15                         A4    C        19:40:41:06 19:40:41:06 02:12:08:10 02:12:08:10 
012651  19Y08M15                         A4    D    002 19:40:42:12 19:40:42:14 02:12:08:10 02:12:08:12 
*FROM CLIP NAME:  90K9/02.SYNC.01 
*TO CLIP NAME:  90K9/02.SYNC.01 
*A4 VOL =  +7.0 DB  PAN L100 
*SOURCE FILE: 19Y08M15
012652  19Y08M15                         A5    C        19:40:41:06 19:40:41:06 02:12:08:10 02:12:08:10 
012652  19Y08M15                         A5    D    002 19:40:42:12 19:40:42:14 02:12:08:10 02:12:08:12 
*FROM CLIP NAME:  90K9/02.SYNC.01 
*TO CLIP NAME:  90K9/02.SYNC.01 
*PATCH 19Y08M15:  FROM SOURCE 7 TO RECORD 5 
*PATCH 19Y08M15:  FROM SOURCE 7 TO RECORD 5 
*SOURCE FILE: 19Y08M15
012653  MSMMMOB.86                       V     C        19:40:42:13 19:40:44:01 02:12:08:10 02:12:09:23 
M2      MSMMMOB.86                                025.0 19:40:42:13 
*FROM CLIP NAME:  A084C006_190815_R32C 
*SOURCE FILE: MSMMMOB.86
012654  19Y08M15                         A     C        19:40:42:14 19:40:43:24 02:12:08:12 02:12:09:22 
*FROM CLIP NAME:  90K9/02.SYNC.01 
*A1 VOL =  +8.0 DB  PAN R100 
*SOURCE FILE: 19Y08M15
012655  19Y08M15                         A2    C        19:40:42:14 19:40:43:24 02:12:08:12 02:12:09:22 
*FROM CLIP NAME:  90K9/02.SYNC.01 
*SOURCE FILE: 19Y08M15
012656  19Y08M15                         A3    C        19:40:42:14 19:40:43:24 02:12:08:12 02:12:09:22 
*FROM CLIP NAME:  90K9/02.SYNC.01 
*SOURCE FILE: 19Y08M15
012657  19Y08M15                         A4    C        19:40:42:14 19:40:43:24 02:12:08:12 02:12:09:22 
*FROM CLIP NAME:  90K9/02.SYNC.01 
*A4 VOL =  +7.0 DB  PAN L100 
*SOURCE FILE: 19Y08M15
012658  19Y08M15                         A5    C        19:40:42:14 19:40:43:24 02:12:08:12 02:12:09:22 
*FROM CLIP NAME:  90K9/02.SYNC.01 
*PATCH 19Y08M15:  FROM SOURCE 7 TO RECORD 5 
*SOURCE FILE: 19Y08M15
012659  19Y08M15                         A     C        19:40:43:24 19:40:43:24 02:12:09:22 02:12:09:22 
012659  19Y08M15                         A     D    002 19:32:23:08 19:32:23:10 02:12:09:22 02:12:09:24 
*FROM CLIP NAME:  90K9/02.SYNC.01 
*TO CLIP NAME:  90K8/03.SYNC.01 
*A1 VOL =  +8.0 DB  PAN R100 
*SOURCE FILE: 19Y08M15
012660  19Y08M15                         A2    C        19:40:43:24 19:40:43:24 02:12:09:22 02:12:09:22 
012660  19Y08M15                         A2    D    002 19:32:23:08 19:32:23:10 02:12:09:22 02:12:09:24 
*FROM CLIP NAME:  90K9/02.SYNC.01 
*TO CLIP NAME:  90K8/03.SYNC.01 
*SOURCE FILE: 19Y08M15
012661  19Y08M15                         A3    C        19:40:43:24 19:40:43:24 02:12:09:22 02:12:09:22 
012661  19Y08M15                         A3    D    002 19:32:23:08 19:32:23:10 02:12:09:22 02:12:09:24 
*FROM CLIP NAME:  90K9/02.SYNC.01 
*TO CLIP NAME:  90K8/03.SYNC.01 
*SOURCE FILE: 19Y08M15
012662  19Y08M15                         A4    C        19:40:43:24 19:40:43:24 02:12:09:22 02:12:09:22 
012662  19Y08M15                         A4    D    002 19:32:23:08 19:32:23:10 02:12:09:22 02:12:09:24 
*FROM CLIP NAME:  90K9/02.SYNC.01 
*TO CLIP NAME:  90K8/03.SYNC.01 
*A4 VOL =  +7.0 DB  PAN L100 
*SOURCE FILE: 19Y08M15
012663  19Y08M15                         A5    C        19:40:43:24 19:40:43:24 02:12:09:22 02:12:09:22 
012663  19Y08M15                         A5    D    002 19:32:23:08 19:32:23:10 02:12:09:22 02:12:09:24 
*FROM CLIP NAME:  90K9/02.SYNC.01 
*TO CLIP NAME:  90K8/03.SYNC.01 
*PATCH 19Y08M15:  FROM SOURCE 7 TO RECORD 5 
*PATCH 19Y08M15:  FROM SOURCE 7 TO RECORD 5 
*SOURCE FILE: 19Y08M15
012664  MSMMMOB.12                       V     C        19:32:23:09 19:32:24:13 02:12:09:23 02:12:11:02 
M2      MSMMMOB.12                                025.0 19:32:23:09 
*FROM CLIP NAME:  B028C025_120101_R0BA 
*SOURCE FILE: MSMMMOB.12
012665  19Y08M15                         A     C        19:32:23:10 19:32:25:18 02:12:09:24 02:12:12:07 
*FROM CLIP NAME:  90K8/03.SYNC.01 
*SOURCE FILE: 19Y08M15
012666  19Y08M15                         A2    C        19:32:23:10 19:32:25:18 02:12:09:24 02:12:12:07 
*FROM CLIP NAME:  90K8/03.SYNC.01 
*SOURCE FILE: 19Y08M15
012667  19Y08M15                         A3    C        19:32:23:10 19:32:25:18 02:12:09:24 02:12:12:07 
*FROM CLIP NAME:  90K8/03.SYNC.01 
*SOURCE FILE: 19Y08M15
012668  19Y08M15                         A4    C        19:32:23:10 19:32:25:18 02:12:09:24 02:12:12:07 
*FROM CLIP NAME:  90K8/03.SYNC.01 
*SOURCE FILE: 19Y08M15
012669  19Y08M15                         A5    C        19:32:23:10 19:32:25:18 02:12:09:24 02:12:12:07 
*FROM CLIP NAME:  90K8/03.SYNC.01 
*PATCH 19Y08M15:  FROM SOURCE 7 TO RECORD 5 
*SOURCE FILE: 19Y08M15
012670  MSMMMOB.71                       V     C        19:32:24:14 19:32:25:19 02:12:11:02 02:12:12:07 
M2      MSMMMOB.71                                025.0 19:32:24:14 
*FROM CLIP NAME:  A084C004_190815_R32C 
*SOURCE FILE: MSMMMOB.71
012671  MSMMMOB.38                       V     C        19:29:48:12 19:29:50:07 02:12:12:07 02:12:14:02 
M2      MSMMMOB.38                                025.0 19:29:48:12 
*FROM CLIP NAME:  B028C024_120101_R0BA 
*SOURCE FILE: MSMMMOB.38
012672  19Y08M15                         A     C        19:29:48:12 19:29:50:07 02:12:12:07 02:12:14:02 
*FROM CLIP NAME:  90K8/02.SYNC.01 
*SOURCE FILE: 19Y08M15
012673  19Y08M15                         A2    C        19:29:48:12 19:29:50:07 02:12:12:07 02:12:14:02 
*FROM CLIP NAME:  90K8/02.SYNC.01 
*SOURCE FILE: 19Y08M15
012674  19Y08M15                         A3    C        19:29:48:12 19:29:50:07 02:12:12:07 02:12:14:02 
*FROM CLIP NAME:  90K8/02.SYNC.01 
*SOURCE FILE: 19Y08M15
012675  19Y08M15                         A4    C        19:29:48:12 19:29:50:07 02:12:12:07 02:12:14:02 
*FROM CLIP NAME:  90K8/02.SYNC.01 
*SOURCE FILE: 19Y08M15
012676  19Y08M15                         A5    C        19:29:48:12 19:29:50:07 02:12:12:07 02:12:14:02 
*FROM CLIP NAME:  90K8/02.SYNC.01 
*PATCH 19Y08M15:  FROM SOURCE 7 TO RECORD 5 
*SOURCE FILE: 19Y08M15
012677  MSMMMOB.82                       V     C        19:11:41:00 19:11:42:16 02:12:14:02 02:12:15:18 
M2      MSMMMOB.82                                025.0 19:11:41:00 
*FROM CLIP NAME:  A083C015_190815_R32C 
*SOURCE FILE: MSMMMOB.82
012678  19Y08M15                         A6    C        20:04:33:15 20:04:35:16 02:12:14:02 02:12:16:03 
*FROM CLIP NAME:  90K12/02.SYNC.01 
*PATCH 19Y08M15:  FROM SOURCE 2 TO RECORD 6 
*SOURCE FILE: 19Y08M15
012679  19Y08M15                         A7    C        20:04:33:15 20:04:35:16 02:12:14:02 02:12:16:03 
*FROM CLIP NAME:  90K12/02.SYNC.01 
*SOURCE FILE: 19Y08M15
012680  19Y08M15                         A8    C        20:04:33:15 20:04:35:16 02:12:14:02 02:12:16:03 
*FROM CLIP NAME:  90K12/02.SYNC.01 
*PATCH 19Y08M15:  FROM SOURCE 4 TO RECORD 8 
*SOURCE FILE: 19Y08M15
012681  19Y08M15                         A9    C        20:04:33:15 20:04:35:16 02:12:14:02 02:12:16:03 
*FROM CLIP NAME:  90K12/02.SYNC.01 
*PATCH 19Y08M15:  FROM SOURCE 1 TO RECORD 9 
*SOURCE FILE: 19Y08M15
012682  MSMMMOB.04                       V     C        19:47:08:11 19:47:10:02 02:12:15:18 02:12:17:09 
M2      MSMMMOB.04                                025.0 19:47:08:11 
*FROM CLIP NAME:  B028C029_120101_R0BA 
*SOURCE FILE: MSMMMOB.04
012683  19Y08M15                         A     C        19:47:08:11 19:47:11:04 02:12:15:18 02:12:18:11 
*FROM CLIP NAME:  90K10/02.SYNC.01 
*SOURCE FILE: 19Y08M15
012684  19Y08M15                         A2    C        19:47:08:11 19:47:11:04 02:12:15:18 02:12:18:11 
*FROM CLIP NAME:  90K10/02.SYNC.01 
*SOURCE FILE: 19Y08M15
012685  19Y08M15                         A3    C        19:47:08:11 19:47:11:04 02:12:15:18 02:12:18:11 
*FROM CLIP NAME:  90K10/02.SYNC.01 
*SOURCE FILE: 19Y08M15
012686  19Y08M15                         A4    C        19:47:08:11 19:47:11:04 02:12:15:18 02:12:18:11 
*FROM CLIP NAME:  90K10/02.SYNC.01 
*SOURCE FILE: 19Y08M15
012687  19Y08M15                         A5    C        19:47:08:11 19:47:11:04 02:12:15:18 02:12:18:11 
*FROM CLIP NAME:  90K10/02.SYNC.01 
*PATCH 19Y08M15:  FROM SOURCE 7 TO RECORD 5 
*SOURCE FILE: 19Y08M15
012688  MSMMMOB.49                       V     C        19:47:10:03 19:47:11:05 02:12:17:09 02:12:18:11 
M2      MSMMMOB.49                                025.0 19:47:10:03 
*FROM CLIP NAME:  A084C008_190815_R32C 
*SOURCE FILE: MSMMMOB.49
012689  MSMMMOB.27                       V     C        20:13:37:00 20:13:38:12 02:12:18:11 02:12:19:23 
M2      MSMMMOB.27                                025.0 20:13:37:00 
*FROM CLIP NAME:  A084C012_190815_R32C 
*SOURCE FILE: MSMMMOB.27
012690  19Y08M15                         A     C        20:13:37:00 20:13:38:12 02:12:18:11 02:12:19:23 
*FROM CLIP NAME:  90K14/01.SYNC.01 
*SOURCE FILE: 19Y08M15
012691  19Y08M15                         A2    C        20:13:37:00 20:13:38:12 02:12:18:11 02:12:19:23 
*FROM CLIP NAME:  90K14/01.SYNC.01 
*SOURCE FILE: 19Y08M15
012692  19Y08M15                         A3    C        20:13:37:00 20:13:38:12 02:12:18:11 02:12:19:23 
*FROM CLIP NAME:  90K14/01.SYNC.01 
*SOURCE FILE: 19Y08M15
012693  19Y08M15                         A4    C        20:13:37:00 20:13:38:12 02:12:18:11 02:12:19:23 
*FROM CLIP NAME:  90K14/01.SYNC.01 
*SOURCE FILE: 19Y08M15
012694  19Y08M15                         A5    C        20:13:37:00 20:13:38:12 02:12:18:11 02:12:19:23 
*FROM CLIP NAME:  90K14/01.SYNC.01 
*PATCH 19Y08M15:  FROM SOURCE 7 TO RECORD 5 
*SOURCE FILE: 19Y08M15
012696  GLDR-APN-490_V01                 V     C        00:00:00:00 00:00:01:04 02:12:19:23 02:12:21:02 
*FROM CLIP NAME:  GLDR-APN-490_V01 
*SOURCE FILE: GLDR-APN-490_V01
012695  MSMMMOB.06                       V     C        20:05:01:06 20:05:02:10 02:12:19:23 02:12:21:02 
M2      MSMMMOB.06                                025.0 20:05:01:06 
*FROM CLIP NAME:  B028C034_120101_R0BA 
*SOURCE FILE: MSMMMOB.06
012697  19Y08M15                         A     C        20:05:01:06 20:05:02:10 02:12:19:23 02:12:21:02 
*FROM CLIP NAME:  90K12/02.SYNC.01 
*SOURCE FILE: 19Y08M15
012698  19Y08M15                         A2    C        20:05:01:06 20:05:02:10 02:12:19:23 02:12:21:02 
*FROM CLIP NAME:  90K12/02.SYNC.01 
*SOURCE FILE: 19Y08M15
012699  19Y08M15                         A3    C        20:05:01:06 20:05:02:10 02:12:19:23 02:12:21:02 
*FROM CLIP NAME:  90K12/02.SYNC.01 
*PATCH 19Y08M15:  FROM SOURCE 4 TO RECORD 3 
*SOURCE FILE: 19Y08M15
012700  19Y08M15                         A4    C        20:05:01:06 20:05:02:10 02:12:19:23 02:12:21:02 
*FROM CLIP NAME:  90K12/02.SYNC.01 
*PATCH 19Y08M15:  FROM SOURCE 7 TO RECORD 4 
*SOURCE FILE: 19Y08M15
012701  BL                               V     C        00:00:00:00 00:00:07:04 02:12:21:02 02:12:28:06 
*SOURCE FILE: (NULL)
012702  MSMMMOB.43                       V     C        19:04:27:20 19:04:34:24 02:12:21:02 02:12:28:06 
M2      MSMMMOB.43                                025.0 19:04:27:20 
*FROM CLIP NAME:  B028C017_120101_R0BA 
*SOURCE FILE: MSMMMOB.43
012703  19Y08M15                         A     C        19:04:27:20 19:04:34:24 02:12:21:02 02:12:28:06 
*FROM CLIP NAME:  90K6/01.SYNC.01 
*SOURCE FILE: 19Y08M15
012704  19Y08M15                         A2    C        19:04:27:20 19:04:34:24 02:12:21:02 02:12:28:06 
*FROM CLIP NAME:  90K6/01.SYNC.01 
*SOURCE FILE: 19Y08M15
012705  19Y08M15                         A3    C        19:04:27:20 19:04:34:24 02:12:21:02 02:12:28:06 
*FROM CLIP NAME:  90K6/01.SYNC.01 
*SOURCE FILE: 19Y08M15
012706  19Y08M15                         A4    C        19:04:27:20 19:04:34:24 02:12:21:02 02:12:28:06 
*FROM CLIP NAME:  90K6/01.SYNC.01 
*SOURCE FILE: 19Y08M15
012707  19Y08M15                         A5    C        19:04:27:20 19:04:34:24 02:12:21:02 02:12:28:06 
*FROM CLIP NAME:  90K6/01.SYNC.01 
*PATCH 19Y08M15:  FROM SOURCE 7 TO RECORD 5 
*SOURCE FILE: 19Y08M15
012708  19Y08M15                         A6    C        19:04:27:20 19:04:34:24 02:12:21:02 02:12:28:06 
*FROM CLIP NAME:  90K6/01.SYNC.01 
*PATCH 19Y08M15:  FROM SOURCE 8 TO RECORD 6 
*SOURCE FILE: 19Y08M15
012709  19Y08M15                         A7    C        20:35:53:01 20:36:00:05 02:12:21:02 02:12:28:06 
*FROM CLIP NAME:  90KZ/05.SYNC.01 
*A7 VOL = -16.2 DB  PAN R100 
*PATCH 19Y08M15:  FROM SOURCE 1 TO RECORD 7 
*SOURCE FILE: 19Y08M15
012710  19Y08M15                         A8    C        20:35:53:01 20:36:00:05 02:12:21:02 02:12:28:06 
*FROM CLIP NAME:  90KZ/05.SYNC.01 
*A8 VOL = -16.2 DB  PAN L100 
*PATCH 19Y08M15:  FROM SOURCE 2 TO RECORD 8 
*SOURCE FILE: 19Y08M15
012711  BL                               V     C        00:00:00:00 00:03:21:02 02:12:21:02 02:15:42:04 
*SOURCE FILE: (NULL)
012712  19Y08M15                         A7    C        20:36:26:19 20:36:29:20 02:12:28:06 02:12:31:07 
*FROM CLIP NAME:  90KZ/05.SYNC.01 
*A7 VOL = -18.6 DB  PAN R100 
*PATCH 19Y08M15:  FROM SOURCE 1 TO RECORD 7 
*SOURCE FILE: 19Y08M15
012713  19Y08M15                         A8    C        20:36:26:19 20:36:29:20 02:12:28:06 02:12:31:07 
*FROM CLIP NAME:  90KZ/05.SYNC.01 
*A8 VOL = -18.6 DB  PAN L100 
*PATCH 19Y08M15:  FROM SOURCE 2 TO RECORD 8 
*SOURCE FILE: 19Y08M15
012714  MSMMMOB.59                       V     C        20:05:11:20 20:05:15:03 02:12:28:06 02:12:31:14 
M2      MSMMMOB.59                                025.0 20:05:11:20 
*FROM CLIP NAME:  A084C010_190815_R32C 
*SOURCE FILE: MSMMMOB.59
012715  19Y08M15                         A     C        20:05:11:19 20:05:15:02 02:12:28:06 02:12:31:14 
*FROM CLIP NAME:  90K12/02.SYNC.01 
*SOURCE FILE: 19Y08M15
012716  19Y08M15                         A2    C        20:05:11:19 20:05:15:02 02:12:28:06 02:12:31:14 
*FROM CLIP NAME:  90K12/02.SYNC.01 
*SOURCE FILE: 19Y08M15
012717  19Y08M15                         A3    C        20:05:11:19 20:05:15:02 02:12:28:06 02:12:31:14 
*FROM CLIP NAME:  90K12/02.SYNC.01 
*PATCH 19Y08M15:  FROM SOURCE 4 TO RECORD 3 
*SOURCE FILE: 19Y08M15
012718  19Y08M15                         A4    C        20:05:11:19 20:05:15:02 02:12:28:06 02:12:31:14 
*FROM CLIP NAME:  90K12/02.SYNC.01 
*PATCH 19Y08M15:  FROM SOURCE 7 TO RECORD 4 
*SOURCE FILE: 19Y08M15
012719  BL                               V     C        00:00:00:00 00:00:10:07 02:12:28:06 02:12:38:13 
*SOURCE FILE: (NULL)
012720  19Y08M15                         A7    C        20:36:28:08 20:36:28:15 02:12:31:07 02:12:31:14 
*FROM CLIP NAME:  90KZ/05.SYNC.01 
*A7 VOL = -18.6 DB  PAN R100 
*PATCH 19Y08M15:  FROM SOURCE 1 TO RECORD 7 
*SOURCE FILE: 19Y08M15
012721  19Y08M15                         A8    C        20:36:28:08 20:36:28:15 02:12:31:07 02:12:31:14 
*FROM CLIP NAME:  90KZ/05.SYNC.01 
*A8 VOL = -18.6 DB  PAN L100 
*PATCH 19Y08M15:  FROM SOURCE 2 TO RECORD 8 
*SOURCE FILE: 19Y08M15
012722  MSMMMOB.28                       V     C        20:07:28:23 20:07:31:13 02:12:31:14 02:12:34:04 
*FROM CLIP NAME:  M097_C037_20190720_R 
*SOURCE FILE: MSMMMOB.28
012723  19Y08M15                         A7    C        20:04:52:13 20:04:55:03 02:12:31:14 02:12:34:04 
*FROM CLIP NAME:  90K12/02.SYNC.01 
*A7 VOL = -26.0 DB  PAN R100 
*SOURCE FILE: 19Y08M15
012724  19Y08M15                         A8    C        20:04:52:13 20:04:55:03 02:12:31:14 02:12:34:04 
*FROM CLIP NAME:  90K12/02.SYNC.01 
*A8 VOL = -26.0 DB  PAN L100 
*PATCH 19Y08M15:  FROM SOURCE 2 TO RECORD 8 
*SOURCE FILE: 19Y08M15
012725  MSMMMOB.23                       V     C        11:56:41:04 11:56:42:15 02:12:34:04 02:12:35:15 
M2      MSMMMOB.23                                025.0 11:56:41:04 
*FROM CLIP NAME:  A037C016_190804_R32C 
*SOURCE FILE: MSMMMOB.23
012726  19Y08M04                         A     C        11:56:41:04 11:56:42:15 02:12:34:04 02:12:35:15 
*FROM CLIP NAME:  92K3/01 
*SOURCE FILE: 19Y08M04
012727  19Y08M04                         A2    C        11:56:41:04 11:56:42:15 02:12:34:04 02:12:35:15 
*FROM CLIP NAME:  92K3/01 
*SOURCE FILE: 19Y08M04
012728  19Y08M04                         A3    C        11:56:41:04 11:56:42:15 02:12:34:04 02:12:35:15 
*FROM CLIP NAME:  92K3/01 
*SOURCE FILE: 19Y08M04
012729  19Y08M04                         A4    C        11:56:41:04 11:56:42:15 02:12:34:04 02:12:35:15 
*FROM CLIP NAME:  92K3/01 
*SOURCE FILE: 19Y08M04
012730  MSMMMOB.23                       A5    C        11:56:41:04 11:56:42:15 02:12:34:04 02:12:35:15 
*FROM CLIP NAME:  A037C016_190804_R32C 
*SOURCE FILE: MSMMMOB.23
012731  19Y08M04                         A6    C        11:56:41:04 11:56:42:15 02:12:34:04 02:12:35:15 
*FROM CLIP NAME:  92K3/01 
*PATCH 19Y08M04:  FROM SOURCE 7 TO RECORD 6 
*SOURCE FILE: 19Y08M04
012732  19Y08M04                         A7    C        11:56:41:04 11:56:42:15 02:12:34:04 02:12:35:15 
*FROM CLIP NAME:  92K3/01 
*PATCH 19Y08M04:  FROM SOURCE 8 TO RECORD 7 
*SOURCE FILE: 19Y08M04
012733  MSMMMOB.17                       V     C        11:46:20:00 11:46:21:23 02:12:35:15 02:12:37:13 
M2      MSMMMOB.17                                025.0 11:46:20:00 
*FROM CLIP NAME:  A037C014_190804_R32C 
*SOURCE FILE: MSMMMOB.17
012734  19Y08M04                         A     C        11:48:22:06 11:48:24:04 02:12:35:15 02:12:37:13 
*FROM CLIP NAME:  92K2/02 
*SOURCE FILE: 19Y08M04
012735  19Y08M04                         A2    C        11:48:22:06 11:48:24:04 02:12:35:15 02:12:37:13 
*FROM CLIP NAME:  92K2/02 
*SOURCE FILE: 19Y08M04
012736  19Y08M04                         A3    C        11:48:22:06 11:48:24:04 02:12:35:15 02:12:37:13 
*FROM CLIP NAME:  92K2/02 
*SOURCE FILE: 19Y08M04
012737  19Y08M04                         A4    C        11:48:22:06 11:48:24:04 02:12:35:15 02:12:37:13 
*FROM CLIP NAME:  92K2/02 
*SOURCE FILE: 19Y08M04
012738  MSMMMOB.03                       A5    C        11:48:22:06 11:48:24:04 02:12:35:15 02:12:37:13 
*FROM CLIP NAME:  A037C015_190804_R32C 
*SOURCE FILE: MSMMMOB.03
012739  19Y08M04                         A7    C        11:48:22:06 11:48:24:04 02:12:35:15 02:12:37:13 
*FROM CLIP NAME:  92K2/02 
*SOURCE FILE: 19Y08M04
012740  TINDER_NOTIFICACION_SOUND_EFFECT A6    C        01:00:02:24 01:00:03:20 02:12:36:02 02:12:36:23 
*FROM CLIP NAME:  TINDER NOTIFICACION SOUND EFFECT.MP4 
*PATCH TINDER_NOTIFICACION_SOUND_EFFECT:  FROM SOURCE 1 TO RECORD 6 
*SOURCE FILE: TINDER NOTIFICACION SOUND EFFECT.MP4
012741  TINDER_NOTIFICACION_SOUND_EFFECT A8    C        01:00:02:24 01:00:03:20 02:12:36:02 02:12:36:23 
*FROM CLIP NAME:  TINDER NOTIFICACION SOUND EFFECT.MP4 
*PATCH TINDER_NOTIFICACION_SOUND_EFFECT:  FROM SOURCE 2 TO RECORD 8 
*SOURCE FILE: TINDER NOTIFICACION SOUND EFFECT.MP4
012742  19Y08M04                         A     C        11:48:23:20 11:48:25:00 02:12:37:13 02:12:38:18 
*FROM CLIP NAME:  92K2/02 
*SOURCE FILE: 19Y08M04
012743  19Y08M04                         A2    C        11:48:23:20 11:48:25:00 02:12:37:13 02:12:38:18 
*FROM CLIP NAME:  92K2/02 
*SOURCE FILE: 19Y08M04
012744  19Y08M04                         A3    C        11:48:23:20 11:48:25:00 02:12:37:13 02:12:38:18 
*FROM CLIP NAME:  92K2/02 
*SOURCE FILE: 19Y08M04
012745  19Y08M04                         A4    C        11:48:23:20 11:48:25:00 02:12:37:13 02:12:38:18 
*FROM CLIP NAME:  92K2/02 
*SOURCE FILE: 19Y08M04
012746  MSMMMOB.03                       A5    C        11:48:23:20 11:48:25:00 02:12:37:13 02:12:38:18 
*FROM CLIP NAME:  A037C015_190804_R32C 
*SOURCE FILE: MSMMMOB.03
012747  19Y08M04                         A6    C        11:48:23:20 11:48:25:00 02:12:37:13 02:12:38:18 
*FROM CLIP NAME:  92K2/02 
*PATCH 19Y08M04:  FROM SOURCE 7 TO RECORD 6 
*SOURCE FILE: 19Y08M04
012748  MSMMMOB.08                       V     C        11:38:57:05 11:39:01:19 02:12:37:13 02:12:42:02 
M2      MSMMMOB.08                                025.0 11:38:57:05 
*FROM CLIP NAME:  A037C013_190804_R32C 
*SOURCE FILE: MSMMMOB.08
012750  TITLE.01                         V     C        01:00:17:23 01:00:20:23 02:12:38:13 02:12:41:13 
*FROM CLIP NAME:  TITLE.01 
*SOURCE FILE: TITLE.01
012749  BL                               V     C        00:00:00:00 00:00:03:00 02:12:38:13 02:12:41:13 
*SOURCE FILE: (NULL)
012751  19Y08M04                         A     C        11:38:58:10 11:39:01:19 02:12:38:18 02:12:42:02 
*FROM CLIP NAME:  92K1/02 
*SOURCE FILE: 19Y08M04
012752  19Y08M04                         A2    C        11:38:58:10 11:39:01:19 02:12:38:18 02:12:42:02 
*FROM CLIP NAME:  92K1/02 
*SOURCE FILE: 19Y08M04
012753  19Y08M04                         A3    C        11:38:58:10 11:39:01:19 02:12:38:18 02:12:42:02 
*FROM CLIP NAME:  92K1/02 
*SOURCE FILE: 19Y08M04
012754  19Y08M04                         A4    C        11:38:58:10 11:39:01:19 02:12:38:18 02:12:42:02 
*FROM CLIP NAME:  92K1/02 
*SOURCE FILE: 19Y08M04
012755  MSMMMOB.08                       A5    C        11:38:58:10 11:39:01:19 02:12:38:18 02:12:42:02 
*FROM CLIP NAME:  A037C013_190804_R32C 
*SOURCE FILE: MSMMMOB.08
012756  19Y08M04                         A6    C        11:38:58:10 11:39:01:19 02:12:38:18 02:12:42:02 
*FROM CLIP NAME:  92K1/02 
*PATCH 19Y08M04:  FROM SOURCE 7 TO RECORD 6 
*SOURCE FILE: 19Y08M04
012758  BL                               V     C        00:00:00:00 00:00:06:17 02:12:41:13 02:12:48:05 
*SOURCE FILE: (NULL)
012757  BL                               V     C        00:00:00:00 00:00:06:17 02:12:41:13 02:12:48:05 
*SOURCE FILE: (NULL)
012759  MSMMMOB.17                       V     C        11:46:25:13 11:46:28:07 02:12:42:02 02:12:44:21 
M2      MSMMMOB.17                                025.0 11:46:25:13 
*FROM CLIP NAME:  A037C014_190804_R32C 
*SOURCE FILE: MSMMMOB.17
012760  19Y08M04                         A     C        11:46:25:13 11:46:28:07 02:12:42:02 02:12:44:21 
*FROM CLIP NAME:  92K2/01 
*SOURCE FILE: 19Y08M04
012761  19Y08M04                         A2    C        11:46:25:13 11:46:28:07 02:12:42:02 02:12:44:21 
*FROM CLIP NAME:  92K2/01 
*SOURCE FILE: 19Y08M04
012762  19Y08M04                         A3    C        11:46:25:13 11:46:28:07 02:12:42:02 02:12:44:21 
*FROM CLIP NAME:  92K2/01 
*SOURCE FILE: 19Y08M04
012763  19Y08M04                         A4    C        11:46:25:13 11:46:28:07 02:12:42:02 02:12:44:21 
*FROM CLIP NAME:  92K2/01 
*SOURCE FILE: 19Y08M04
012764  MSMMMOB.17                       A5    C        11:46:25:13 11:46:28:07 02:12:42:02 02:12:44:21 
*FROM CLIP NAME:  A037C014_190804_R32C 
*SOURCE FILE: MSMMMOB.17
012765  19Y08M04                         A6    C        11:46:25:13 11:46:28:07 02:12:42:02 02:12:44:21 
*FROM CLIP NAME:  92K2/01 
*PATCH 19Y08M04:  FROM SOURCE 7 TO RECORD 6 
*SOURCE FILE: 19Y08M04
012766  MSMMMOB.08                       V     C        11:39:04:13 11:39:21:02 02:12:44:21 02:13:01:10 
M2      MSMMMOB.08                                025.0 11:39:04:13 
*FROM CLIP NAME:  A037C013_190804_R32C 
*SOURCE FILE: MSMMMOB.08
012767  19Y08M04                         A     C        11:39:04:13 11:39:21:02 02:12:44:21 02:13:01:10 
*FROM CLIP NAME:  92K1/02 
*SOURCE FILE: 19Y08M04
012768  19Y08M04                         A2    C        11:39:04:13 11:39:21:02 02:12:44:21 02:13:01:10 
*FROM CLIP NAME:  92K1/02 
*SOURCE FILE: 19Y08M04
012769  19Y08M04                         A3    C        11:39:04:13 11:39:21:02 02:12:44:21 02:13:01:10 
*FROM CLIP NAME:  92K1/02 
*SOURCE FILE: 19Y08M04
012770  19Y08M04                         A4    C        11:39:04:13 11:39:21:02 02:12:44:21 02:13:01:10 
*FROM CLIP NAME:  92K1/02 
*SOURCE FILE: 19Y08M04
012771  MSMMMOB.08                       A5    C        11:39:04:13 11:39:21:02 02:12:44:21 02:13:01:10 
*FROM CLIP NAME:  A037C013_190804_R32C 
*SOURCE FILE: MSMMMOB.08
012772  19Y08M04                         A6    C        11:39:04:13 11:39:21:02 02:12:44:21 02:13:01:10 
*FROM CLIP NAME:  92K1/02 
*PATCH 19Y08M04:  FROM SOURCE 7 TO RECORD 6 
*SOURCE FILE: 19Y08M04
012774  TITLE.01                         V     C        01:00:17:23 01:00:30:19 02:12:48:05 02:13:01:01 
*FROM CLIP NAME:  TITLE.01 
*SOURCE FILE: TITLE.01
012773  BL                               V     C        00:00:00:00 00:00:12:21 02:12:48:05 02:13:01:01 
*SOURCE FILE: (NULL)
012775  BL                               V     C        00:00:00:00 00:01:34:11 02:13:01:01 02:14:35:12 
*SOURCE FILE: (NULL)
012776  BL                               V     C        00:00:00:00 00:04:21:17 02:13:01:01 02:17:22:18 
*SOURCE FILE: (NULL)
012777  MINUS40.MP3                      A10   C        01:00:45:09 01:00:50:04 02:13:01:05 02:13:06:00 
*FROM CLIP NAME:  MINUS40.MP3 
*A10 VOL = -31.5 DB  PAN L100 
*PATCH MINUS40.MP3:  FROM SOURCE 1 TO RECORD 10 
*SOURCE FILE: MINUS40.MP3
012778  MINUS40.MP3                      A11   C        01:00:45:09 01:00:50:04 02:13:01:05 02:13:06:00 
*FROM CLIP NAME:  MINUS40.MP3 
*A11 VOL = -31.5 DB  PAN R100 
*PATCH MINUS40.MP3:  FROM SOURCE 2 TO RECORD 11 
*SOURCE FILE: MINUS40.MP3
012779  19Y08M04                         A     C        11:39:21:08 11:39:21:16 02:13:01:10 02:13:01:18 
*FROM CLIP NAME:  92K1/02 
*SOURCE FILE: 19Y08M04
012780  19Y08M04                         A2    C        11:39:21:08 11:39:21:16 02:13:01:10 02:13:01:18 
*FROM CLIP NAME:  92K1/02 
*SOURCE FILE: 19Y08M04
012781  19Y08M04                         A3    C        11:39:21:08 11:39:21:16 02:13:01:10 02:13:01:18 
*FROM CLIP NAME:  92K1/02 
*SOURCE FILE: 19Y08M04
012782  19Y08M04                         A4    C        11:39:21:08 11:39:21:16 02:13:01:10 02:13:01:18 
*FROM CLIP NAME:  92K1/02 
*SOURCE FILE: 19Y08M04
012783  MSMMMOB.08                       A5    C        11:39:21:08 11:39:21:16 02:13:01:10 02:13:01:18 
*FROM CLIP NAME:  A037C013_190804_R32C 
*SOURCE FILE: MSMMMOB.08
012784  19Y08M04                         A6    C        11:39:21:08 11:39:21:16 02:13:01:10 02:13:01:18 
*FROM CLIP NAME:  92K1/02 
*PATCH 19Y08M04:  FROM SOURCE 7 TO RECORD 6 
*SOURCE FILE: 19Y08M04
012785  MSMMMOB.03                       V     C        11:48:40:10 11:48:42:06 02:13:01:10 02:13:03:06 
M2      MSMMMOB.03                                025.0 11:48:40:10 
*FROM CLIP NAME:  A037C015_190804_R32C 
*SOURCE FILE: MSMMMOB.03
012786  19Y08M04                         A     C        11:39:20:17 11:39:21:23 02:13:01:18 02:13:02:24 
*FROM CLIP NAME:  92K1/02 
*SOURCE FILE: 19Y08M04
012787  19Y08M04                         A2    C        11:39:20:17 11:39:21:23 02:13:01:18 02:13:02:24 
*FROM CLIP NAME:  92K1/02 
*SOURCE FILE: 19Y08M04
012788  19Y08M04                         A3    C        11:39:20:17 11:39:21:23 02:13:01:18 02:13:02:24 
*FROM CLIP NAME:  92K1/02 
*SOURCE FILE: 19Y08M04
012789  19Y08M04                         A4    C        11:39:20:17 11:39:21:23 02:13:01:18 02:13:02:24 
*FROM CLIP NAME:  92K1/02 
*SOURCE FILE: 19Y08M04
012790  MSMMMOB.08                       A5    C        11:39:20:17 11:39:21:23 02:13:01:18 02:13:02:24 
*FROM CLIP NAME:  A037C013_190804_R32C 
*SOURCE FILE: MSMMMOB.08
012791  19Y08M04                         A6    C        11:39:20:17 11:39:21:23 02:13:01:18 02:13:02:24 
*FROM CLIP NAME:  92K1/02 
*PATCH 19Y08M04:  FROM SOURCE 7 TO RECORD 6 
*SOURCE FILE: 19Y08M04
012792  19Y08M04                         A     C        11:48:35:22 11:48:37:09 02:13:02:24 02:13:04:11 
*FROM CLIP NAME:  92K2/02 
*SOURCE FILE: 19Y08M04
012793  19Y08M04                         A2    C        11:48:35:22 11:48:37:09 02:13:02:24 02:13:04:11 
*FROM CLIP NAME:  92K2/02 
*SOURCE FILE: 19Y08M04
012794  19Y08M04                         A3    C        11:48:35:22 11:48:37:09 02:13:02:24 02:13:04:11 
*FROM CLIP NAME:  92K2/02 
*SOURCE FILE: 19Y08M04
012795  19Y08M04                         A4    C        11:48:35:22 11:48:37:09 02:13:02:24 02:13:04:11 
*FROM CLIP NAME:  92K2/02 
*SOURCE FILE: 19Y08M04
012796  MSMMMOB.03                       A5    C        11:48:35:22 11:48:37:09 02:13:02:24 02:13:04:11 
*FROM CLIP NAME:  A037C015_190804_R32C 
*SOURCE FILE: MSMMMOB.03
012797  19Y08M04                         A6    C        11:48:35:22 11:48:37:09 02:13:02:24 02:13:04:11 
*FROM CLIP NAME:  92K2/02 
*PATCH 19Y08M04:  FROM SOURCE 7 TO RECORD 6 
*SOURCE FILE: 19Y08M04
012798  MSMMMOB.08                       V     C        11:39:25:14 11:39:28:08 02:13:03:06 02:13:06:00 
M2      MSMMMOB.08                                025.0 11:39:25:14 
*FROM CLIP NAME:  A037C013_190804_R32C 
*SOURCE FILE: MSMMMOB.08
012799  19Y08M04                         A     C        11:39:26:19 11:39:28:08 02:13:04:11 02:13:06:00 
*FROM CLIP NAME:  92K1/02 
*SOURCE FILE: 19Y08M04
012800  19Y08M04                         A2    C        11:39:26:19 11:39:28:08 02:13:04:11 02:13:06:00 
*FROM CLIP NAME:  92K1/02 
*SOURCE FILE: 19Y08M04
012801  19Y08M04                         A3    C        11:39:26:19 11:39:28:08 02:13:04:11 02:13:06:00 
*FROM CLIP NAME:  92K1/02 
*SOURCE FILE: 19Y08M04
012802  19Y08M04                         A4    C        11:39:26:19 11:39:28:08 02:13:04:11 02:13:06:00 
*FROM CLIP NAME:  92K1/02 
*SOURCE FILE: 19Y08M04
012803  MSMMMOB.08                       A5    C        11:39:26:19 11:39:28:08 02:13:04:11 02:13:06:00 
*FROM CLIP NAME:  A037C013_190804_R32C 
*SOURCE FILE: MSMMMOB.08
012804  19Y08M04                         A6    C        11:39:26:19 11:39:28:08 02:13:04:11 02:13:06:00 
*FROM CLIP NAME:  92K1/02 
*PATCH 19Y08M04:  FROM SOURCE 7 TO RECORD 6 
*SOURCE FILE: 19Y08M04
012805  MSMMMOB.35                       V     C        11:39:02:18 11:39:04:17 02:13:06:00 02:13:07:24 
M2      MSMMMOB.35                                025.0 11:39:02:18 
*FROM CLIP NAME:  B030C016_190828_A1Y8 
*SOURCE FILE: MSMMMOB.35
012806  19Y08M28                         A     C        11:39:02:18 11:39:04:17 02:13:06:00 02:13:07:24 
*FROM CLIP NAME:  93K2/02 
*A1 VOL = -22.1 DB  PAN R100 
*SOURCE FILE: 19Y08M28
012807  19Y08M28                         A2    C        11:39:02:18 11:39:04:17 02:13:06:00 02:13:07:24 
*FROM CLIP NAME:  93K2/02 
*A2 VOL = -15.5 DB  PAN L100 
*SOURCE FILE: 19Y08M28
012808  19Y08M28                         A3    C        11:39:02:18 11:39:04:17 02:13:06:00 02:13:07:24 
*FROM CLIP NAME:  93K2/02 
*A3 VOL = -20.2 DB  PAN R100 
*SOURCE FILE: 19Y08M28
012809  19Y08M28                         A4    C        11:39:02:18 11:39:04:17 02:13:06:00 02:13:07:24 
*FROM CLIP NAME:  93K2/02 
*SOURCE FILE: 19Y08M28
012810  19Y08M28                         A5    C        11:39:02:18 11:39:04:17 02:13:06:00 02:13:07:24 
*FROM CLIP NAME:  93K2/02 
*SOURCE FILE: 19Y08M28
012811  19Y08M28                         A6    C        11:39:02:18 11:39:04:17 02:13:06:00 02:13:07:24 
*FROM CLIP NAME:  93K2/02 
*PATCH 19Y08M28:  FROM SOURCE 8 TO RECORD 6 
*SOURCE FILE: 19Y08M28
012812  MINUS40.MP3                      A10   C        01:00:50:04 01:01:26:12 02:13:06:00 02:13:42:08 
*FROM CLIP NAME:  MINUS40.MP3 
*A10 VOL = -15.0 DB  PAN L100 
*PATCH MINUS40.MP3:  FROM SOURCE 1 TO RECORD 10 
*SOURCE FILE: MINUS40.MP3
012813  MINUS40.MP3                      A11   C        01:00:50:04 01:01:26:12 02:13:06:00 02:13:42:08 
*FROM CLIP NAME:  MINUS40.MP3 
*A11 VOL = -15.0 DB  PAN R100 
*PATCH MINUS40.MP3:  FROM SOURCE 2 TO RECORD 11 
*SOURCE FILE: MINUS40.MP3
012814  19Y08M28                         A     C        12:08:00:10 12:08:02:02 02:13:07:24 02:13:09:16 
*FROM CLIP NAME:  93K3/04 
*A1 VOL = -17.8 DB  PAN R100 
*SOURCE FILE: 19Y08M28
012815  19Y08M28                         A2    C        12:08:00:10 12:08:02:02 02:13:07:24 02:13:09:16 
*FROM CLIP NAME:  93K3/04 
*A2 VOL = -30.0 DB  PAN L100 
*SOURCE FILE: 19Y08M28
012816  19Y08M28                         A3    C        12:08:00:10 12:08:02:02 02:13:07:24 02:13:09:16 
*FROM CLIP NAME:  93K3/04 
*A3 VOL = -22.1 DB  PAN R100 
*SOURCE FILE: 19Y08M28
012817  19Y08M28                         A4    C        12:08:00:10 12:08:02:02 02:13:07:24 02:13:09:16 
*FROM CLIP NAME:  93K3/04 
*SOURCE FILE: 19Y08M28
012818  19Y08M28                         A5    C        12:08:00:10 12:08:02:02 02:13:07:24 02:13:09:16 
*FROM CLIP NAME:  93K3/04 
*SOURCE FILE: 19Y08M28
012819  MSMMMOB.57                       V     C        12:08:00:10 12:08:03:05 02:13:07:24 02:13:10:19 
M2      MSMMMOB.57                                025.0 12:08:00:10 
*FROM CLIP NAME:  A103C001_190828_R3DN 
*SOURCE FILE: MSMMMOB.57
012820  19Y08M28                         A6    C        12:08:00:10 12:08:03:05 02:13:07:24 02:13:10:19 
*FROM CLIP NAME:  93K3/04 
*A6 VOL = -28.3 DB  PAN L100 
*PATCH 19Y08M28:  FROM SOURCE 7 TO RECORD 6 
*SOURCE FILE: 19Y08M28
012821  19Y08M28                         A7    C        12:08:00:10 12:08:03:05 02:13:07:24 02:13:10:19 
*FROM CLIP NAME:  93K3/04 
*PATCH 19Y08M28:  FROM SOURCE 8 TO RECORD 7 
*SOURCE FILE: 19Y08M28
012822  19Y08M28                         A     C        12:47:39:06 12:47:40:09 02:13:09:16 02:13:10:19 
*FROM CLIP NAME:  93K9/01 
*SOURCE FILE: 19Y08M28
012823  19Y08M28                         A2    C        12:47:39:06 12:47:40:09 02:13:09:16 02:13:10:19 
*FROM CLIP NAME:  93K9/01 
*SOURCE FILE: 19Y08M28
012824  19Y08M28                         A3    C        12:47:39:06 12:47:40:09 02:13:09:16 02:13:10:19 
*FROM CLIP NAME:  93K9/01 
*SOURCE FILE: 19Y08M28
012825  19Y08M28                         A4    C        12:47:39:06 12:47:40:09 02:13:09:16 02:13:10:19 
*FROM CLIP NAME:  93K9/01 
*SOURCE FILE: 19Y08M28
012826  19Y08M28                         A5    C        12:47:39:06 12:47:40:09 02:13:09:16 02:13:10:19 
*FROM CLIP NAME:  93K9/01 
*SOURCE FILE: 19Y08M28
012827  19Y08M28                         A     C        11:39:12:00 11:39:14:00 02:13:10:19 02:13:12:19 
*FROM CLIP NAME:  93K2/02 
*SOURCE FILE: 19Y08M28
012828  19Y08M28                         A2    C        11:39:12:00 11:39:14:00 02:13:10:19 02:13:12:19 
*FROM CLIP NAME:  93K2/02 
*SOURCE FILE: 19Y08M28
012829  19Y08M28                         A3    C        11:39:12:00 11:39:14:00 02:13:10:19 02:13:12:19 
*FROM CLIP NAME:  93K2/02 
*SOURCE FILE: 19Y08M28
012830  MSMMMOB.35                       V     C        11:39:12:00 11:39:17:22 02:13:10:19 02:13:16:16 
M2      MSMMMOB.35                                025.0 11:39:12:00 
*FROM CLIP NAME:  B030C016_190828_A1Y8 
*SOURCE FILE: MSMMMOB.35
012831  19Y08M28                         A     C        12:47:42:24 12:47:44:09 02:13:12:19 02:13:14:04 
*FROM CLIP NAME:  93K9/01 
*SOURCE FILE: 19Y08M28
012832  19Y08M28                         A2    C        12:47:42:24 12:47:44:09 02:13:12:19 02:13:14:04 
*FROM CLIP NAME:  93K9/01 
*SOURCE FILE: 19Y08M28
012833  19Y08M28                         A3    C        12:47:42:24 12:47:44:09 02:13:12:19 02:13:14:04 
*FROM CLIP NAME:  93K9/01 
*SOURCE FILE: 19Y08M28
012834  19Y08M28                         A4    C        12:47:42:24 12:47:44:09 02:13:12:19 02:13:14:04 
*FROM CLIP NAME:  93K9/01 
*SOURCE FILE: 19Y08M28
012835  19Y08M28                         A5    C        12:47:42:24 12:47:44:09 02:13:12:19 02:13:14:04 
*FROM CLIP NAME:  93K9/01 
*SOURCE FILE: 19Y08M28
012836  19Y08M28                         A     C        12:08:10:13 12:08:11:24 02:13:14:04 02:13:15:15 
*FROM CLIP NAME:  93K3/04 
*A1 VOL =  -9.9 DB  PAN R100 
*SOURCE FILE: 19Y08M28
012837  19Y08M28                         A2    C        12:08:10:13 12:08:11:24 02:13:14:04 02:13:15:15 
*FROM CLIP NAME:  93K3/04 
*A2 VOL =  -9.0 DB  PAN L100 
*SOURCE FILE: 19Y08M28
012838  19Y08M28                         A3    C        12:08:10:13 12:08:11:24 02:13:14:04 02:13:15:15 
*FROM CLIP NAME:  93K3/04 
*SOURCE FILE: 19Y08M28
012839  19Y08M28                         A4    C        12:08:10:13 12:08:11:24 02:13:14:04 02:13:15:15 
*FROM CLIP NAME:  93K3/04 
*A4 VOL =  +8.5 DB  PAN L100 
*SOURCE FILE: 19Y08M28
012840  19Y08M28                         A5    C        12:08:10:13 12:08:11:24 02:13:14:04 02:13:15:15 
*FROM CLIP NAME:  93K3/04 
*SOURCE FILE: 19Y08M28
012841  19Y08M28                         A6    C        12:08:10:13 12:08:11:24 02:13:14:04 02:13:15:15 
*FROM CLIP NAME:  93K3/04 
*A6 VOL = -30.0 DB  PAN L100 
*PATCH 19Y08M28:  FROM SOURCE 7 TO RECORD 6 
*SOURCE FILE: 19Y08M28
012842  19Y08M28                         A7    C        12:08:10:13 12:08:11:24 02:13:14:04 02:13:15:15 
*FROM CLIP NAME:  93K3/04 
*PATCH 19Y08M28:  FROM SOURCE 8 TO RECORD 7 
*SOURCE FILE: 19Y08M28
012843  19Y08M28                         A     C        11:39:16:21 11:39:19:23 02:13:15:15 02:13:18:17 
*FROM CLIP NAME:  93K2/02 
*SOURCE FILE: 19Y08M28
012844  19Y08M28                         A2    C        11:39:16:21 11:39:19:23 02:13:15:15 02:13:18:17 
*FROM CLIP NAME:  93K2/02 
*SOURCE FILE: 19Y08M28
012845  19Y08M28                         A3    C        11:39:16:21 11:39:19:23 02:13:15:15 02:13:18:17 
*FROM CLIP NAME:  93K2/02 
*SOURCE FILE: 19Y08M28
012846  19Y08M28                         A4    C        11:39:16:21 11:39:19:23 02:13:15:15 02:13:18:17 
*FROM CLIP NAME:  93K2/02 
*SOURCE FILE: 19Y08M28
012847  19Y08M28                         A5    C        11:39:16:21 11:39:19:23 02:13:15:15 02:13:18:17 
*FROM CLIP NAME:  93K2/02 
*SOURCE FILE: 19Y08M28
012848  19Y08M28                         A6    C        11:39:16:21 11:39:19:23 02:13:15:15 02:13:18:17 
*FROM CLIP NAME:  93K2/02 
*PATCH 19Y08M28:  FROM SOURCE 8 TO RECORD 6 
*SOURCE FILE: 19Y08M28
012849  MSMMMOB.57                       V     C        12:08:13:12 12:08:18:23 02:13:16:16 02:13:22:02 
M2      MSMMMOB.57                                025.0 12:08:13:12 
*FROM CLIP NAME:  A103C001_190828_R3DN 
*SOURCE FILE: MSMMMOB.57
012850  19Y08M28                         A     C        12:08:15:13 12:08:22:06 02:13:18:17 02:13:25:10 
*FROM CLIP NAME:  93K3/04 
*A1 VOL =  -9.9 DB  PAN R100 
*SOURCE FILE: 19Y08M28
012851  19Y08M28                         A2    C        12:08:15:13 12:08:22:06 02:13:18:17 02:13:25:10 
*FROM CLIP NAME:  93K3/04 
*A2 VOL =  -9.0 DB  PAN L100 
*SOURCE FILE: 19Y08M28
012852  19Y08M28                         A3    C        12:08:15:13 12:08:22:06 02:13:18:17 02:13:25:10 
*FROM CLIP NAME:  93K3/04 
*SOURCE FILE: 19Y08M28
012853  19Y08M28                         A4    C        12:08:15:13 12:08:22:06 02:13:18:17 02:13:25:10 
*FROM CLIP NAME:  93K3/04 
*A4 VOL =  +8.5 DB  PAN L100 
*SOURCE FILE: 19Y08M28
012854  19Y08M28                         A5    C        12:08:15:13 12:08:22:06 02:13:18:17 02:13:25:10 
*FROM CLIP NAME:  93K3/04 
*SOURCE FILE: 19Y08M28
012855  19Y08M28                         A6    C        12:08:15:13 12:08:22:06 02:13:18:17 02:13:25:10 
*FROM CLIP NAME:  93K3/04 
*A6 VOL = -30.0 DB  PAN L100 
*PATCH 19Y08M28:  FROM SOURCE 7 TO RECORD 6 
*SOURCE FILE: 19Y08M28
012856  19Y08M28                         A7    C        12:08:15:13 12:08:22:06 02:13:18:17 02:13:25:10 
*FROM CLIP NAME:  93K3/04 
*PATCH 19Y08M28:  FROM SOURCE 8 TO RECORD 7 
*SOURCE FILE: 19Y08M28
012857  MSMMMOB.49                       V     C        12:40:44:06 12:40:47:16 02:13:22:02 02:13:25:12 
M2      MSMMMOB.49                                025.0 12:40:44:06 
*FROM CLIP NAME:  A103C007_190828_R3DN 
*SOURCE FILE: MSMMMOB.49
012858  19Y08M28                         A     C        12:40:48:05 12:40:48:13 02:13:25:10 02:13:25:18 
*FROM CLIP NAME:  93K7/02 
*SOURCE FILE: 19Y08M28
012859  19Y08M28                         A2    C        12:40:48:05 12:40:48:13 02:13:25:10 02:13:25:18 
*FROM CLIP NAME:  93K7/02 
*SOURCE FILE: 19Y08M28
012860  19Y08M28                         A3    C        12:40:48:05 12:40:48:13 02:13:25:10 02:13:25:18 
*FROM CLIP NAME:  93K7/02 
*PATCH 19Y08M28:  FROM SOURCE 5 TO RECORD 3 
*SOURCE FILE: 19Y08M28
012861  19Y08M28                         A4    C        12:40:48:05 12:40:48:13 02:13:25:10 02:13:25:18 
*FROM CLIP NAME:  93K7/02 
*PATCH 19Y08M28:  FROM SOURCE 7 TO RECORD 4 
*SOURCE FILE: 19Y08M28
012862  MSMMMOB.06                       V     C        12:08:22:01 12:08:26:08 02:13:25:12 02:13:29:19 
M2      MSMMMOB.06                                025.0 12:08:22:01 
*FROM CLIP NAME:  B031C001_190828_A1Y8 
*SOURCE FILE: MSMMMOB.06
012863  19Y08M28                         A5    C        12:08:22:07 12:08:23:16 02:13:25:18 02:13:27:02 
*FROM CLIP NAME:  93K3/04 
*SOURCE FILE: 19Y08M28
012864  19Y08M28                         A7    C        12:08:22:07 12:08:23:16 02:13:25:18 02:13:27:02 
*FROM CLIP NAME:  93K3/04 
*PATCH 19Y08M28:  FROM SOURCE 8 TO RECORD 7 
*SOURCE FILE: 19Y08M28
012865  19Y08M28                         A     C        12:08:22:07 12:08:32:03 02:13:25:18 02:13:35:14 
*FROM CLIP NAME:  93K3/04 
*A1 VOL =  -9.9 DB  PAN R100 
*SOURCE FILE: 19Y08M28
012866  19Y08M28                         A2    C        12:08:22:07 12:08:32:03 02:13:25:18 02:13:35:14 
*FROM CLIP NAME:  93K3/04 
*A2 VOL =  -9.0 DB  PAN L100 
*SOURCE FILE: 19Y08M28
012867  19Y08M28                         A3    C        12:08:22:07 12:08:32:03 02:13:25:18 02:13:35:14 
*FROM CLIP NAME:  93K3/04 
*SOURCE FILE: 19Y08M28
012868  19Y08M28                         A4    C        12:08:22:07 12:08:32:03 02:13:25:18 02:13:35:14 
*FROM CLIP NAME:  93K3/04 
*A4 VOL =  +8.5 DB  PAN L100 
*SOURCE FILE: 19Y08M28
012869  19Y08M28                         A6    C        12:08:22:07 12:08:32:03 02:13:25:18 02:13:35:14 
*FROM CLIP NAME:  93K3/04 
*A6 VOL = -30.0 DB  PAN L100 
*PATCH 19Y08M28:  FROM SOURCE 7 TO RECORD 6 
*SOURCE FILE: 19Y08M28
012870  19Y08M28                         A5    C        12:54:28:19 12:54:29:22 02:13:27:02 02:13:28:05 
*FROM CLIP NAME:  93K1Z/01.SUB.01 
*PATCH 19Y08M28:  FROM SOURCE 1 TO RECORD 5 
*SOURCE FILE: 19Y08M28
012871  19Y08M28                         A7    C        12:54:28:19 12:54:29:22 02:13:27:02 02:13:28:05 
*FROM CLIP NAME:  93K1Z/01.SUB.01 
*PATCH 19Y08M28:  FROM SOURCE 4 TO RECORD 7 
*SOURCE FILE: 19Y08M28
012872  19Y08M28                         A5    C        12:08:24:19 12:08:32:03 02:13:28:05 02:13:35:14 
*FROM CLIP NAME:  93K3/04 
*SOURCE FILE: 19Y08M28
012873  19Y08M28                         A7    C        12:08:24:19 12:08:32:03 02:13:28:05 02:13:35:14 
*FROM CLIP NAME:  93K3/04 
*PATCH 19Y08M28:  FROM SOURCE 8 TO RECORD 7 
*SOURCE FILE: 19Y08M28
012874  MSMMMOB.49                       V     C        12:40:48:02 12:40:50:10 02:13:29:19 02:13:32:02 
M2      MSMMMOB.49                                025.0 12:40:48:02 
*FROM CLIP NAME:  A103C007_190828_R3DN 
*SOURCE FILE: MSMMMOB.49
012875  MSMMMOB.06                       V     C        12:08:28:16 12:08:30:00 02:13:32:02 02:13:33:11 
M2      MSMMMOB.06                                025.0 12:08:28:16 
*FROM CLIP NAME:  B031C001_190828_A1Y8 
*SOURCE FILE: MSMMMOB.06
012876  MSMMMOB.31                       V     C        12:37:52:03 12:37:53:15 02:13:33:11 02:13:34:23 
M2      MSMMMOB.31                                025.0 12:37:52:03 
*FROM CLIP NAME:  A103C006_190828_R3DN 
*SOURCE FILE: MSMMMOB.31
012877  MSMMMOB.89                       V     C        11:34:31:17 11:34:33:07 02:13:34:23 02:13:36:13 
M2      MSMMMOB.89                                025.0 11:34:31:17 
*FROM CLIP NAME:  A102C003_190828_R3DN 
*SOURCE FILE: MSMMMOB.89
012878  19Y08M28                         A8    C        11:34:31:21 11:34:33:06 02:13:35:02 02:13:36:12 
*FROM CLIP NAME:  93K2/01 
*SOURCE FILE: 19Y08M28
012879  19Y08M28                         A9    C        11:34:31:21 11:34:33:06 02:13:35:02 02:13:36:12 
*FROM CLIP NAME:  93K2/01 
*PATCH 19Y08M28:  FROM SOURCE 1 TO RECORD 9 
*SOURCE FILE: 19Y08M28
012880  19Y08M28                         A     C        11:33:26:10 11:33:29:02 02:13:35:14 02:13:38:06 
*FROM CLIP NAME:  93K2/01 
*SOURCE FILE: 19Y08M28
012881  19Y08M28                         A2    C        11:33:26:10 11:33:29:02 02:13:35:14 02:13:38:06 
*FROM CLIP NAME:  93K2/01 
*SOURCE FILE: 19Y08M28
012882  19Y08M28                         A3    C        11:33:26:10 11:33:29:02 02:13:35:14 02:13:38:06 
*FROM CLIP NAME:  93K2/01 
*SOURCE FILE: 19Y08M28
012883  19Y08M28                         A4    C        11:33:26:10 11:33:29:02 02:13:35:14 02:13:38:06 
*FROM CLIP NAME:  93K2/01 
*SOURCE FILE: 19Y08M28
012884  19Y08M28                         A5    C        11:33:26:10 11:33:29:02 02:13:35:14 02:13:38:06 
*FROM CLIP NAME:  93K2/01 
*SOURCE FILE: 19Y08M28
012885  19Y08M28                         A6    C        11:33:26:10 11:33:29:02 02:13:35:14 02:13:38:06 
*FROM CLIP NAME:  93K2/01 
*PATCH 19Y08M28:  FROM SOURCE 8 TO RECORD 6 
*SOURCE FILE: 19Y08M28
012886  MSMMMOB.35                       V     C        11:39:47:22 11:39:49:15 02:13:36:13 02:13:38:06 
M2      MSMMMOB.35                                025.0 11:39:47:22 
*FROM CLIP NAME:  B030C016_190828_A1Y8 
*SOURCE FILE: MSMMMOB.35
012887  MSMMMOB.89                       V     C        11:34:37:01 11:34:38:17 02:13:38:06 02:13:39:22 
M2      MSMMMOB.89                                025.0 11:34:37:01 
*FROM CLIP NAME:  A102C003_190828_R3DN 
*SOURCE FILE: MSMMMOB.89
012888  19Y08M28                         A     C        11:33:29:15 11:33:32:19 02:13:38:06 02:13:41:10 
*FROM CLIP NAME:  93K2/01 
*SOURCE FILE: 19Y08M28
012889  19Y08M28                         A2    C        11:33:29:15 11:33:32:19 02:13:38:06 02:13:41:10 
*FROM CLIP NAME:  93K2/01 
*SOURCE FILE: 19Y08M28
012890  19Y08M28                         A3    C        11:33:29:15 11:33:32:19 02:13:38:06 02:13:41:10 
*FROM CLIP NAME:  93K2/01 
*SOURCE FILE: 19Y08M28
012891  19Y08M28                         A4    C        11:33:29:15 11:33:32:19 02:13:38:06 02:13:41:10 
*FROM CLIP NAME:  93K2/01 
*SOURCE FILE: 19Y08M28
012892  19Y08M28                         A5    C        11:33:29:15 11:33:32:19 02:13:38:06 02:13:41:10 
*FROM CLIP NAME:  93K2/01 
*SOURCE FILE: 19Y08M28
012893  19Y08M28                         A6    C        11:33:29:15 11:33:32:19 02:13:38:06 02:13:41:10 
*FROM CLIP NAME:  93K2/01 
*PATCH 19Y08M28:  FROM SOURCE 8 TO RECORD 6 
*SOURCE FILE: 19Y08M28
012894  MSMMMOB.31                       V     C        12:38:03:10 12:38:04:23 02:13:39:22 02:13:41:10 
M2      MSMMMOB.31                                025.0 12:38:03:10 
*FROM CLIP NAME:  A103C006_190828_R3DN 
*SOURCE FILE: MSMMMOB.31
012895  MSMMMOB.18                       V     C        11:34:43:01 11:34:45:03 02:13:41:10 02:13:43:12 
M2      MSMMMOB.18                                025.0 11:34:43:01 
*FROM CLIP NAME:  B030C015_190828_A1Y8 
*SOURCE FILE: MSMMMOB.18
012896  19Y08M28                         A     C        12:09:04:19 12:09:10:01 02:13:41:10 02:13:46:17 
*FROM CLIP NAME:  93K3/04 
*SOURCE FILE: 19Y08M28
012897  19Y08M28                         A2    C        12:09:04:19 12:09:10:01 02:13:41:10 02:13:46:17 
*FROM CLIP NAME:  93K3/04 
*SOURCE FILE: 19Y08M28
012898  19Y08M28                         A3    C        12:09:04:19 12:09:10:01 02:13:41:10 02:13:46:17 
*FROM CLIP NAME:  93K3/04 
*SOURCE FILE: 19Y08M28
012899  19Y08M28                         A4    C        12:09:04:19 12:09:10:01 02:13:41:10 02:13:46:17 
*FROM CLIP NAME:  93K3/04 
*SOURCE FILE: 19Y08M28
012900  19Y08M28                         A5    C        12:09:04:19 12:09:10:01 02:13:41:10 02:13:46:17 
*FROM CLIP NAME:  93K3/04 
*SOURCE FILE: 19Y08M28
012901  19Y08M28                         A6    C        12:09:04:19 12:09:10:01 02:13:41:10 02:13:46:17 
*FROM CLIP NAME:  93K3/04 
*PATCH 19Y08M28:  FROM SOURCE 7 TO RECORD 6 
*SOURCE FILE: 19Y08M28
012902  19Y08M28                         A7    C        12:09:04:19 12:09:10:01 02:13:41:10 02:13:46:17 
*FROM CLIP NAME:  93K3/04 
*PATCH 19Y08M28:  FROM SOURCE 8 TO RECORD 7 
*SOURCE FILE: 19Y08M28
012903  MINUS40.MP3                      A8    C        01:01:52:02 01:01:58:21 02:13:41:10 02:13:48:04 
*FROM CLIP NAME:  MINUS40.MP3 
*A8 VOL = -15.0 DB  PAN L100 
*PATCH MINUS40.MP3:  FROM SOURCE 1 TO RECORD 8 
*SOURCE FILE: MINUS40.MP3
012904  MINUS40.MP3                      A9    C        01:01:52:02 01:01:58:21 02:13:41:10 02:13:48:04 
*FROM CLIP NAME:  MINUS40.MP3 
*A9 VOL = -15.0 DB  PAN R100 
*PATCH MINUS40.MP3:  FROM SOURCE 2 TO RECORD 9 
*SOURCE FILE: MINUS40.MP3
012905  MINUS40.MP3                      A10   C        01:01:26:12 01:01:26:12 02:13:42:08 02:13:42:08 
012905  BL                               A10   D    005 00:00:00:00 00:00:00:05 02:13:42:08 02:13:42:13 
*FROM CLIP NAME:  MINUS40.MP3 
*A10 VOL = -15.0 DB  PAN L100 
*PATCH MINUS40.MP3:  FROM SOURCE 1 TO RECORD 10 
*SOURCE FILE: MINUS40.MP3
012906  MINUS40.MP3                      A11   C        01:01:26:12 01:01:26:12 02:13:42:08 02:13:42:08 
012906  BL                               A11   D    005 00:00:00:00 00:00:00:05 02:13:42:08 02:13:42:13 
*FROM CLIP NAME:  MINUS40.MP3 
*A11 VOL = -15.0 DB  PAN R100 
*PATCH MINUS40.MP3:  FROM SOURCE 2 TO RECORD 11 
*SOURCE FILE: MINUS40.MP3
012907  MSMMMOB.06                       V     C        12:09:06:21 12:09:08:07 02:13:43:12 02:13:44:23 
M2      MSMMMOB.06                                025.0 12:09:06:21 
*FROM CLIP NAME:  B031C001_190828_A1Y8 
*SOURCE FILE: MSMMMOB.06
012908  MSMMMOB.82                       V     C        12:22:05:00 12:22:06:19 02:13:44:23 02:13:46:17 
M2      MSMMMOB.82                                025.0 12:22:05:00 
*FROM CLIP NAME:  B031C003_190828_A1Y8 
*SOURCE FILE: MSMMMOB.82
012909  19Y08M28                         A     C        12:09:13:07 12:09:13:13 02:13:46:17 02:13:46:23 
*FROM CLIP NAME:  93K3/04 
*SOURCE FILE: 19Y08M28
012910  19Y08M28                         A2    C        12:09:13:07 12:09:13:13 02:13:46:17 02:13:46:23 
*FROM CLIP NAME:  93K3/04 
*SOURCE FILE: 19Y08M28
012911  19Y08M28                         A3    C        12:09:13:07 12:09:13:13 02:13:46:17 02:13:46:23 
*FROM CLIP NAME:  93K3/04 
*SOURCE FILE: 19Y08M28
012912  19Y08M28                         A4    C        12:09:13:07 12:09:13:13 02:13:46:17 02:13:46:23 
*FROM CLIP NAME:  93K3/04 
*SOURCE FILE: 19Y08M28
012913  19Y08M28                         A5    C        12:09:13:07 12:09:13:13 02:13:46:17 02:13:46:23 
*FROM CLIP NAME:  93K3/04 
*SOURCE FILE: 19Y08M28
012914  19Y08M28                         A6    C        12:09:13:07 12:09:13:13 02:13:46:17 02:13:46:23 
*FROM CLIP NAME:  93K3/04 
*PATCH 19Y08M28:  FROM SOURCE 7 TO RECORD 6 
*SOURCE FILE: 19Y08M28
012915  19Y08M28                         A7    C        12:09:13:07 12:09:13:13 02:13:46:17 02:13:46:23 
*FROM CLIP NAME:  93K3/04 
*PATCH 19Y08M28:  FROM SOURCE 8 TO RECORD 7 
*SOURCE FILE: 19Y08M28
012916  MSMMMOB.06                       V     C        12:09:13:07 12:09:15:07 02:13:46:17 02:13:48:17 
M2      MSMMMOB.06                                025.0 12:09:13:07 
*FROM CLIP NAME:  B031C001_190828_A1Y8 
*SOURCE FILE: MSMMMOB.06
012917  19Y08M28                         A     C        12:09:13:13 12:09:14:18 02:13:46:23 02:13:48:03 
*FROM CLIP NAME:  93K3/04 
*A1 VOL = -36.4 DB  PAN R100 
*SOURCE FILE: 19Y08M28
012918  19Y08M28                         A2    C        12:09:13:13 12:09:14:18 02:13:46:23 02:13:48:03 
*FROM CLIP NAME:  93K3/04 
*A2 VOL = -36.4 DB  PAN L100 
*SOURCE FILE: 19Y08M28
012919  19Y08M28                         A3    C        12:09:13:13 12:09:14:18 02:13:46:23 02:13:48:03 
*FROM CLIP NAME:  93K3/04 
*A3 VOL = -36.4 DB  PAN R100 
*SOURCE FILE: 19Y08M28
012920  19Y08M28                         A4    C        12:09:13:13 12:09:14:18 02:13:46:23 02:13:48:03 
*FROM CLIP NAME:  93K3/04 
*A4 VOL = -36.4 DB  PAN L100 
*SOURCE FILE: 19Y08M28
012921  19Y08M28                         A5    C        12:09:13:13 12:09:14:18 02:13:46:23 02:13:48:03 
*FROM CLIP NAME:  93K3/04 
*A5 VOL = -36.4 DB  PAN R100 
*SOURCE FILE: 19Y08M28
012922  19Y08M28                         A6    C        12:09:13:13 12:09:15:02 02:13:46:23 02:13:48:12 
*FROM CLIP NAME:  93K3/04 
*A6 VOL = -36.4 DB  PAN L100 
*PATCH 19Y08M28:  FROM SOURCE 7 TO RECORD 6 
*SOURCE FILE: 19Y08M28
012923  19Y08M28                         A7    C        12:09:13:13 12:09:15:02 02:13:46:23 02:13:48:12 
*FROM CLIP NAME:  93K3/04 
*A7 VOL = -36.4 DB  PAN R100 
*PATCH 19Y08M28:  FROM SOURCE 8 TO RECORD 7 
*SOURCE FILE: 19Y08M28
012924  19Y08M28                         A     C        12:22:09:05 12:22:09:11 02:13:48:03 02:13:48:09 
*FROM CLIP NAME:  93K4/02 
*SOURCE FILE: 19Y08M28
012925  19Y08M28                         A2    C        12:22:09:05 12:22:09:11 02:13:48:03 02:13:48:09 
*FROM CLIP NAME:  93K4/02 
*SOURCE FILE: 19Y08M28
012926  19Y08M28                         A3    C        12:22:09:05 12:22:09:11 02:13:48:03 02:13:48:09 
*FROM CLIP NAME:  93K4/02 
*SOURCE FILE: 19Y08M28
012927  19Y08M28                         A4    C        12:22:09:05 12:22:09:11 02:13:48:03 02:13:48:09 
*FROM CLIP NAME:  93K4/02 
*SOURCE FILE: 19Y08M28
012928  19Y08M28                         A5    C        12:22:09:05 12:22:09:11 02:13:48:03 02:13:48:09 
*FROM CLIP NAME:  93K4/02 
*SOURCE FILE: 19Y08M28
012929  19Y08M28                         A     C        12:22:08:00 12:22:08:10 02:13:48:09 02:13:48:19 
*FROM CLIP NAME:  93K4/02 
*PATCH 19Y08M28:  FROM SOURCE 3 TO RECORD 1 
*SOURCE FILE: 19Y08M28
012930  19Y08M28                         A2    C        12:22:08:00 12:22:08:10 02:13:48:09 02:13:48:19 
*FROM CLIP NAME:  93K4/02 
*SOURCE FILE: 19Y08M28
012931  19Y08M28                         A3    C        12:22:08:00 12:22:08:10 02:13:48:09 02:13:48:19 
*FROM CLIP NAME:  93K4/02 
*PATCH 19Y08M28:  FROM SOURCE 5 TO RECORD 3 
*SOURCE FILE: 19Y08M28
012932  19Y08M28                         A4    C        12:22:08:00 12:22:08:10 02:13:48:09 02:13:48:19 
*FROM CLIP NAME:  93K4/02 
*SOURCE FILE: 19Y08M28
012933  19Y08M28                         A5    C        12:22:08:00 12:22:08:10 02:13:48:09 02:13:48:19 
*FROM CLIP NAME:  93K4/02 
*PATCH 19Y08M28:  FROM SOURCE 8 TO RECORD 5 
*SOURCE FILE: 19Y08M28
012934  19Y08M28                         A6    C        12:09:15:02 12:09:15:02 02:13:48:12 02:13:48:12 
012934  BL                               A6    D    002 00:00:00:00 00:00:00:02 02:13:48:12 02:13:48:14 
*FROM CLIP NAME:  93K3/04 
*A6 VOL = -36.4 DB  PAN L100 
*PATCH 19Y08M28:  FROM SOURCE 7 TO RECORD 6 
*SOURCE FILE: 19Y08M28
012935  19Y08M28                         A7    C        12:09:15:02 12:09:15:02 02:13:48:12 02:13:48:12 
012935  19Y08M28                         A7    D    002 12:22:09:04 12:22:09:06 02:13:48:12 02:13:48:14 
*FROM CLIP NAME:  93K3/04 
*TO CLIP NAME:  93K4/02 
*A7 VOL = -36.4 DB  PAN R100 
*PATCH 19Y08M28:  FROM SOURCE 8 TO RECORD 7 
*PATCH 19Y08M28:  FROM SOURCE 8 TO RECORD 7 
*SOURCE FILE: 19Y08M28
012936  19Y08M28                         A7    C        12:22:09:06 12:22:14:17 02:13:48:14 02:13:54:00 
*FROM CLIP NAME:  93K4/02 
*PATCH 19Y08M28:  FROM SOURCE 8 TO RECORD 7 
*SOURCE FILE: 19Y08M28
012937  MSMMMOB.82                       V     C        12:22:09:09 12:22:14:17 02:13:48:17 02:13:54:00 
M2      MSMMMOB.82                                025.0 12:22:09:09 
*FROM CLIP NAME:  B031C003_190828_A1Y8 
*SOURCE FILE: MSMMMOB.82
012938  19Y08M28                         A     C        12:22:09:11 12:22:14:17 02:13:48:19 02:13:54:00 
*FROM CLIP NAME:  93K4/02 
*SOURCE FILE: 19Y08M28
012939  19Y08M28                         A2    C        12:22:09:11 12:22:14:17 02:13:48:19 02:13:54:00 
*FROM CLIP NAME:  93K4/02 
*SOURCE FILE: 19Y08M28
012940  19Y08M28                         A3    C        12:22:09:11 12:22:14:17 02:13:48:19 02:13:54:00 
*FROM CLIP NAME:  93K4/02 
*SOURCE FILE: 19Y08M28
012941  19Y08M28                         A4    C        12:22:09:11 12:22:14:17 02:13:48:19 02:13:54:00 
*FROM CLIP NAME:  93K4/02 
*SOURCE FILE: 19Y08M28
012942  19Y08M28                         A5    C        12:22:09:11 12:22:14:17 02:13:48:19 02:13:54:00 
*FROM CLIP NAME:  93K4/02 
*SOURCE FILE: 19Y08M28
012943  19Y08M28                         A8    C        14:16:07:12 14:16:10:18 02:13:50:19 02:13:54:00 
*FROM CLIP NAME:  93K13/01 
*PATCH 19Y08M28:  FROM SOURCE 1 TO RECORD 8 
*SOURCE FILE: 19Y08M28
012944  19Y08M28                         A9    C        14:16:07:12 14:16:10:18 02:13:50:19 02:13:54:00 
*FROM CLIP NAME:  93K13/01 
*PATCH 19Y08M28:  FROM SOURCE 2 TO RECORD 9 
*SOURCE FILE: 19Y08M28
012945  19Y08M28                         A5    C        11:17:29:10 11:17:30:23 02:13:54:00 02:13:55:13 
*FROM CLIP NAME:  93K1/01 
*SOURCE FILE: 19Y08M28
012946  MSMMMOB.47                       V     C        11:17:29:10 11:17:32:09 02:13:54:00 02:13:56:24 
M2      MSMMMOB.47                                025.0 11:17:29:10 
*FROM CLIP NAME:  A102C001_190828_R3DN 
*SOURCE FILE: MSMMMOB.47
012947  19Y08M28                         A     C        11:17:29:10 11:17:32:09 02:13:54:00 02:13:56:24 
*FROM CLIP NAME:  93K1/01 
*SOURCE FILE: 19Y08M28
012948  19Y08M28                         A2    C        11:17:29:10 11:17:32:09 02:13:54:00 02:13:56:24 
*FROM CLIP NAME:  93K1/01 
*SOURCE FILE: 19Y08M28
012949  19Y08M28                         A3    C        11:17:29:10 11:17:32:09 02:13:54:00 02:13:56:24 
*FROM CLIP NAME:  93K1/01 
*SOURCE FILE: 19Y08M28
012950  19Y08M28                         A4    C        11:17:29:10 11:17:32:09 02:13:54:00 02:13:56:24 
*FROM CLIP NAME:  93K1/01 
*SOURCE FILE: 19Y08M28
012951  19Y08M28                         A7    C        11:17:29:10 11:17:32:09 02:13:54:00 02:13:56:24 
*FROM CLIP NAME:  93K1/01 
*PATCH 19Y08M28:  FROM SOURCE 8 TO RECORD 7 
*SOURCE FILE: 19Y08M28
012952  19Y08M28                         A8    C        14:16:11:00 14:16:13:24 02:13:54:00 02:13:56:24 
*FROM CLIP NAME:  93K13/01 
*PATCH 19Y08M28:  FROM SOURCE 1 TO RECORD 8 
*SOURCE FILE: 19Y08M28
012953  19Y08M28                         A9    C        14:16:11:00 14:16:13:24 02:13:54:00 02:13:56:24 
*FROM CLIP NAME:  93K13/01 
*PATCH 19Y08M28:  FROM SOURCE 2 TO RECORD 9 
*SOURCE FILE: 19Y08M28
012954  19Y08M28                         A5    C        11:17:31:19 11:17:32:09 02:13:56:09 02:13:56:24 
*FROM CLIP NAME:  93K1/01 
*SOURCE FILE: 19Y08M28
012955  04292.MP3                        A10   C        01:00:03:16 01:00:05:16 02:13:56:16 02:13:58:16 
*FROM CLIP NAME:  04292.MP3 
*A10 VOL =  +6.3 DB  PAN L100 
*PATCH 04292.MP3:  FROM SOURCE 2 TO RECORD 10 
*SOURCE FILE: 04292.MP3
012956  04292.MP3                        A11   C        01:00:03:16 01:00:05:16 02:13:56:16 02:13:58:16 
*FROM CLIP NAME:  04292.MP3 
*A11 VOL =  +6.3 DB  PAN R100 
*PATCH 04292.MP3:  FROM SOURCE 1 TO RECORD 11 
*SOURCE FILE: 04292.MP3
012957  MSMMMOB.37                       V     C        12:20:00:18 12:20:02:10 02:13:56:24 02:13:58:16 
M2      MSMMMOB.37                                025.0 12:20:00:18 
*FROM CLIP NAME:  A103C002_190828_R3DN 
*SOURCE FILE: MSMMMOB.37
012958  19Y08M28                         A     C        12:20:00:18 12:20:02:10 02:13:56:24 02:13:58:16 
*FROM CLIP NAME:  93K4/01 
*SOURCE FILE: 19Y08M28
012959  19Y08M28                         A2    C        12:20:00:18 12:20:02:10 02:13:56:24 02:13:58:16 
*FROM CLIP NAME:  93K4/01 
*SOURCE FILE: 19Y08M28
012960  19Y08M28                         A3    C        12:20:00:18 12:20:02:10 02:13:56:24 02:13:58:16 
*FROM CLIP NAME:  93K4/01 
*SOURCE FILE: 19Y08M28
012961  19Y08M28                         A4    C        12:20:00:18 12:20:02:10 02:13:56:24 02:13:58:16 
*FROM CLIP NAME:  93K4/01 
*SOURCE FILE: 19Y08M28
012962  19Y08M28                         A5    C        12:20:00:18 12:20:02:10 02:13:56:24 02:13:58:16 
*FROM CLIP NAME:  93K4/01 
*SOURCE FILE: 19Y08M28
012963  19Y08M28                         A7    C        12:20:00:18 12:20:02:10 02:13:56:24 02:13:58:16 
*FROM CLIP NAME:  93K4/01 
*PATCH 19Y08M28:  FROM SOURCE 8 TO RECORD 7 
*SOURCE FILE: 19Y08M28
012964  19Y08M28                         A8    C        14:16:14:16 14:16:16:08 02:13:56:24 02:13:58:16 
*FROM CLIP NAME:  93K13/01 
*A8 VOL =  +8.0 DB  PAN L100 
*PATCH 19Y08M28:  FROM SOURCE 1 TO RECORD 8 
*SOURCE FILE: 19Y08M28
012965  19Y08M28                         A9    C        14:16:14:16 14:16:16:08 02:13:56:24 02:13:58:16 
*FROM CLIP NAME:  93K13/01 
*A9 VOL =  +8.0 DB  PAN R100 
*PATCH 19Y08M28:  FROM SOURCE 2 TO RECORD 9 
*SOURCE FILE: 19Y08M28
012966  19Y08M28                         A     C        12:10:21:16 12:10:22:01 02:13:58:16 02:13:59:01 
*FROM CLIP NAME:  93K3/04 
*SOURCE FILE: 19Y08M28
012967  19Y08M28                         A2    C        12:10:21:16 12:10:22:01 02:13:58:16 02:13:59:01 
*FROM CLIP NAME:  93K3/04 
*SOURCE FILE: 19Y08M28
012968  19Y08M28                         A3    C        12:10:21:16 12:10:22:01 02:13:58:16 02:13:59:01 
*FROM CLIP NAME:  93K3/04 
*SOURCE FILE: 19Y08M28
012969  19Y08M28                         A4    C        12:10:21:16 12:10:22:01 02:13:58:16 02:13:59:01 
*FROM CLIP NAME:  93K3/04 
*SOURCE FILE: 19Y08M28
012970  19Y08M28                         A5    C        12:10:21:16 12:10:22:01 02:13:58:16 02:13:59:01 
*FROM CLIP NAME:  93K3/04 
*SOURCE FILE: 19Y08M28
012971  19Y08M28                         A6    C        12:10:21:16 12:10:22:01 02:13:58:16 02:13:59:01 
*FROM CLIP NAME:  93K3/04 
*PATCH 19Y08M28:  FROM SOURCE 8 TO RECORD 6 
*SOURCE FILE: 19Y08M28
012972  19Y08M28                         A7    C        12:10:21:16 12:10:22:01 02:13:58:16 02:13:59:01 
*FROM CLIP NAME:  93K3/04 
*SOURCE FILE: 19Y08M28
012973  MSMMMOB.46                       V     C        14:16:18:00 14:16:19:23 02:13:58:16 02:14:00:14 
M2      MSMMMOB.46                                025.0 14:16:18:00 
*FROM CLIP NAME:  A104C010_190828_R3DN 
*SOURCE FILE: MSMMMOB.46
012974  19Y08M28                         A10   C        14:16:17:24 14:16:19:22 02:13:58:16 02:14:00:14 
*FROM CLIP NAME:  93K13/01 
*PATCH 19Y08M28:  FROM SOURCE 2 TO RECORD 10 
*SOURCE FILE: 19Y08M28
012975  19Y08M28                         A11   C        14:16:17:24 14:16:19:22 02:13:58:16 02:14:00:14 
*FROM CLIP NAME:  93K13/01 
*PATCH 19Y08M28:  FROM SOURCE 1 TO RECORD 11 
*SOURCE FILE: 19Y08M28
012976  19Y08M28                         A     C        12:10:22:04 12:10:23:08 02:13:59:01 02:14:00:05 
*FROM CLIP NAME:  93K3/04 
*SOURCE FILE: 19Y08M28
012977  19Y08M28                         A2    C        12:10:22:04 12:10:23:08 02:13:59:01 02:14:00:05 
*FROM CLIP NAME:  93K3/04 
*SOURCE FILE: 19Y08M28
012978  19Y08M28                         A3    C        12:10:22:04 12:10:23:08 02:13:59:01 02:14:00:05 
*FROM CLIP NAME:  93K3/04 
*SOURCE FILE: 19Y08M28
012979  19Y08M28                         A4    C        12:10:22:04 12:10:23:08 02:13:59:01 02:14:00:05 
*FROM CLIP NAME:  93K3/04 
*SOURCE FILE: 19Y08M28
012980  19Y08M28                         A5    C        12:10:22:04 12:10:23:08 02:13:59:01 02:14:00:05 
*FROM CLIP NAME:  93K3/04 
*SOURCE FILE: 19Y08M28
012981  19Y08M28                         A6    C        12:10:22:04 12:10:23:08 02:13:59:01 02:14:00:05 
*FROM CLIP NAME:  93K3/04 
*PATCH 19Y08M28:  FROM SOURCE 8 TO RECORD 6 
*SOURCE FILE: 19Y08M28
012982  19Y08M28                         A7    C        12:10:22:04 12:10:23:08 02:13:59:01 02:14:00:05 
*FROM CLIP NAME:  93K3/04 
*SOURCE FILE: 19Y08M28
012983  MSMMMOB.22                       V     C        12:22:18:22 12:22:24:10 02:14:00:14 02:14:06:02 
M2      MSMMMOB.22                                025.0 12:22:18:22 
*FROM CLIP NAME:  A103C003_190828_R3DN 
*SOURCE FILE: MSMMMOB.22
012984  19Y08M28                         A     C        12:22:18:22 12:22:24:10 02:14:00:14 02:14:06:02 
*FROM CLIP NAME:  93K4/02 
*SOURCE FILE: 19Y08M28
012985  19Y08M28                         A2    C        12:22:18:22 12:22:24:10 02:14:00:14 02:14:06:02 
*FROM CLIP NAME:  93K4/02 
*SOURCE FILE: 19Y08M28
012986  19Y08M28                         A3    C        12:22:18:22 12:22:24:10 02:14:00:14 02:14:06:02 
*FROM CLIP NAME:  93K4/02 
*SOURCE FILE: 19Y08M28
012987  19Y08M28                         A4    C        12:22:18:22 12:22:24:10 02:14:00:14 02:14:06:02 
*FROM CLIP NAME:  93K4/02 
*SOURCE FILE: 19Y08M28
012988  19Y08M28                         A5    C        12:22:18:22 12:22:24:10 02:14:00:14 02:14:06:02 
*FROM CLIP NAME:  93K4/02 
*SOURCE FILE: 19Y08M28
012989  19Y08M28                         A7    C        12:22:18:22 12:22:24:10 02:14:00:14 02:14:06:02 
*FROM CLIP NAME:  93K4/02 
*PATCH 19Y08M28:  FROM SOURCE 8 TO RECORD 7 
*SOURCE FILE: 19Y08M28
012990  19Y08M28                         A8    C        14:16:14:23 14:16:23:23 02:14:00:14 02:14:09:14 
*FROM CLIP NAME:  93K13/01 
*PATCH 19Y08M28:  FROM SOURCE 2 TO RECORD 8 
*SOURCE FILE: 19Y08M28
012991  19Y08M28                         A9    C        14:16:14:23 14:16:23:23 02:14:00:14 02:14:09:14 
*FROM CLIP NAME:  93K13/01 
*PATCH 19Y08M28:  FROM SOURCE 1 TO RECORD 9 
*SOURCE FILE: 19Y08M28
012992  CINEMASCOPE_2-35-1_CROPLINES.PNG V     C        01:00:00:00 01:02:53:09 02:14:03:01 02:16:56:10 
*FROM CLIP NAME:  CINEMASCOPE 2-35-1 CROPLINES.PNG 
*SOURCE FILE: CINEMASCOPE 2-35-1 CROPLINES.PNG
012993  19Y08M28                         A     C        12:22:24:10 12:22:24:10 02:14:06:02 02:14:06:02 
012993  19Y08M28                         A     D    002 12:03:43:22 12:03:43:24 02:14:06:02 02:14:06:04 
*FROM CLIP NAME:  93K4/02 
*TO CLIP NAME:  93K3/03 
*SOURCE FILE: 19Y08M28
012994  19Y08M28                         A2    C        12:22:24:10 12:22:24:10 02:14:06:02 02:14:06:02 
012994  19Y08M28                         A2    D    002 12:03:43:22 12:03:43:24 02:14:06:02 02:14:06:04 
*FROM CLIP NAME:  93K4/02 
*TO CLIP NAME:  93K3/03 
*SOURCE FILE: 19Y08M28
012995  19Y08M28                         A3    C        12:22:24:10 12:22:24:10 02:14:06:02 02:14:06:02 
012995  19Y08M28                         A3    D    002 12:03:43:22 12:03:43:24 02:14:06:02 02:14:06:04 
*FROM CLIP NAME:  93K4/02 
*TO CLIP NAME:  93K3/03 
*SOURCE FILE: 19Y08M28
012996  19Y08M28                         A4    C        12:22:24:10 12:22:24:10 02:14:06:02 02:14:06:02 
012996  19Y08M28                         A4    D    002 12:03:43:22 12:03:43:24 02:14:06:02 02:14:06:04 
*FROM CLIP NAME:  93K4/02 
*TO CLIP NAME:  93K3/03 
*SOURCE FILE: 19Y08M28
012997  19Y08M28                         A5    C        12:22:24:10 12:22:24:10 02:14:06:02 02:14:06:02 
012997  19Y08M28                         A5    D    002 12:03:43:22 12:03:43:24 02:14:06:02 02:14:06:04 
*FROM CLIP NAME:  93K4/02 
*TO CLIP NAME:  93K3/03 
*SOURCE FILE: 19Y08M28
012998  BL                               A6    C        00:00:00:00 00:00:00:00 02:14:06:02 02:14:06:02 
012998  19Y08M28                         A6    D    002 12:03:43:22 12:03:43:24 02:14:06:02 02:14:06:04 
*TO CLIP NAME:  93K3/03 
*PATCH 19Y08M28:  FROM SOURCE 8 TO RECORD 6 
*SOURCE FILE: (NULL)
012999  19Y08M28                         A7    C        12:22:24:10 12:22:24:10 02:14:06:02 02:14:06:02 
012999  19Y08M28                         A7    D    002 12:03:43:22 12:03:43:24 02:14:06:02 02:14:06:04 
*FROM CLIP NAME:  93K4/02 
*TO CLIP NAME:  93K3/03 
*PATCH 19Y08M28:  FROM SOURCE 8 TO RECORD 7 
*SOURCE FILE: 19Y08M28
013000  MSMMMOB.66                       V     C        12:03:43:22 12:03:45:18 02:14:06:02 02:14:07:23 
M2      MSMMMOB.66                                025.0 12:03:43:22 
*FROM CLIP NAME:  A102C007_190828_R3DN 
*SOURCE FILE: MSMMMOB.66
013001  19Y08M28                         A     C        12:03:43:24 12:03:45:17 02:14:06:04 02:14:07:22 
*FROM CLIP NAME:  93K3/03 
*SOURCE FILE: 19Y08M28
013002  19Y08M28                         A2    C        12:03:43:24 12:03:45:17 02:14:06:04 02:14:07:22 
*FROM CLIP NAME:  93K3/03 
*SOURCE FILE: 19Y08M28
013003  19Y08M28                         A3    C        12:03:43:24 12:03:45:17 02:14:06:04 02:14:07:22 
*FROM CLIP NAME:  93K3/03 
*SOURCE FILE: 19Y08M28
013004  19Y08M28                         A4    C        12:03:43:24 12:03:45:17 02:14:06:04 02:14:07:22 
*FROM CLIP NAME:  93K3/03 
*SOURCE FILE: 19Y08M28
013005  19Y08M28                         A5    C        12:03:43:24 12:03:45:17 02:14:06:04 02:14:07:22 
*FROM CLIP NAME:  93K3/03 
*SOURCE FILE: 19Y08M28
013006  19Y08M28                         A6    C        12:03:43:24 12:03:45:17 02:14:06:04 02:14:07:22 
*FROM CLIP NAME:  93K3/03 
*PATCH 19Y08M28:  FROM SOURCE 8 TO RECORD 6 
*SOURCE FILE: 19Y08M28
013007  19Y08M28                         A7    C        12:03:43:24 12:03:45:17 02:14:06:04 02:14:07:22 
*FROM CLIP NAME:  93K3/03 
*SOURCE FILE: 19Y08M28
013008  19Y08M28                         A     C        12:03:45:17 12:03:45:17 02:14:07:22 02:14:07:22 
013008  19Y08M28                         A     D    002 12:10:30:03 12:10:30:05 02:14:07:22 02:14:07:24 
*FROM CLIP NAME:  93K3/03 
*TO CLIP NAME:  93K3/04 
*SOURCE FILE: 19Y08M28
013009  19Y08M28                         A2    C        12:03:45:17 12:03:45:17 02:14:07:22 02:14:07:22 
013009  19Y08M28                         A2    D    002 12:10:30:03 12:10:30:05 02:14:07:22 02:14:07:24 
*FROM CLIP NAME:  93K3/03 
*TO CLIP NAME:  93K3/04 
*SOURCE FILE: 19Y08M28
013010  19Y08M28                         A3    C        12:03:45:17 12:03:45:17 02:14:07:22 02:14:07:22 
013010  19Y08M28                         A3    D    002 12:10:30:03 12:10:30:05 02:14:07:22 02:14:07:24 
*FROM CLIP NAME:  93K3/03 
*TO CLIP NAME:  93K3/04 
*SOURCE FILE: 19Y08M28
013011  19Y08M28                         A4    C        12:03:45:17 12:03:45:17 02:14:07:22 02:14:07:22 
013011  19Y08M28                         A4    D    002 12:10:30:03 12:10:30:05 02:14:07:22 02:14:07:24 
*FROM CLIP NAME:  93K3/03 
*TO CLIP NAME:  93K3/04 
*SOURCE FILE: 19Y08M28
013012  19Y08M28                         A5    C        12:03:45:17 12:03:45:17 02:14:07:22 02:14:07:22 
013012  19Y08M28                         A5    D    002 12:10:30:03 12:10:30:05 02:14:07:22 02:14:07:24 
*FROM CLIP NAME:  93K3/03 
*TO CLIP NAME:  93K3/04 
*SOURCE FILE: 19Y08M28
013013  19Y08M28                         A6    C        12:03:45:17 12:03:45:17 02:14:07:22 02:14:07:22 
013013  19Y08M28                         A6    D    002 12:10:30:03 12:10:30:05 02:14:07:22 02:14:07:24 
*FROM CLIP NAME:  93K3/03 
*TO CLIP NAME:  93K3/04 
*PATCH 19Y08M28:  FROM SOURCE 8 TO RECORD 6 
*PATCH 19Y08M28:  FROM SOURCE 8 TO RECORD 6 
*SOURCE FILE: 19Y08M28
013014  19Y08M28                         A7    C        12:03:45:17 12:03:45:17 02:14:07:22 02:14:07:22 
013014  19Y08M28                         A7    D    002 12:10:30:03 12:10:30:05 02:14:07:22 02:14:07:24 
*FROM CLIP NAME:  93K3/03 
*TO CLIP NAME:  93K3/04 
*SOURCE FILE: 19Y08M28
013015  MSMMMOB.22                       V     C        12:22:25:23 12:22:27:18 02:14:07:23 02:14:09:18 
M2      MSMMMOB.22                                025.0 12:22:25:23 
*FROM CLIP NAME:  A103C003_190828_R3DN 
*SOURCE FILE: MSMMMOB.22
013016  19Y08M28                         A     C        12:10:30:05 12:10:32:01 02:14:07:24 02:14:09:20 
*FROM CLIP NAME:  93K3/04 
*SOURCE FILE: 19Y08M28
013017  19Y08M28                         A2    C        12:10:30:05 12:10:32:01 02:14:07:24 02:14:09:20 
*FROM CLIP NAME:  93K3/04 
*SOURCE FILE: 19Y08M28
013018  19Y08M28                         A3    C        12:10:30:05 12:10:32:01 02:14:07:24 02:14:09:20 
*FROM CLIP NAME:  93K3/04 
*SOURCE FILE: 19Y08M28
013019  19Y08M28                         A4    C        12:10:30:05 12:10:32:01 02:14:07:24 02:14:09:20 
*FROM CLIP NAME:  93K3/04 
*SOURCE FILE: 19Y08M28
013020  19Y08M28                         A5    C        12:10:30:05 12:10:32:01 02:14:07:24 02:14:09:20 
*FROM CLIP NAME:  93K3/04 
*SOURCE FILE: 19Y08M28
013021  19Y08M28                         A6    C        12:10:30:05 12:10:32:01 02:14:07:24 02:14:09:20 
*FROM CLIP NAME:  93K3/04 
*PATCH 19Y08M28:  FROM SOURCE 8 TO RECORD 6 
*SOURCE FILE: 19Y08M28
013022  19Y08M28                         A7    C        12:10:30:05 12:10:32:01 02:14:07:24 02:14:09:20 
*FROM CLIP NAME:  93K3/04 
*SOURCE FILE: 19Y08M28
013023  MSMMMOB.06                       V     C        12:10:34:05 12:10:38:02 02:14:09:18 02:14:13:15 
M2      MSMMMOB.06                                025.0 12:10:34:05 
*FROM CLIP NAME:  B031C001_190828_A1Y8 
*SOURCE FILE: MSMMMOB.06
013024  19Y08M28                         A     C        12:10:34:07 12:10:38:16 02:14:09:20 02:14:14:04 
*FROM CLIP NAME:  93K3/04 
*SOURCE FILE: 19Y08M28
013025  19Y08M28                         A2    C        12:10:34:07 12:10:38:16 02:14:09:20 02:14:14:04 
*FROM CLIP NAME:  93K3/04 
*SOURCE FILE: 19Y08M28
013026  19Y08M28                         A3    C        12:10:34:07 12:10:38:16 02:14:09:20 02:14:14:04 
*FROM CLIP NAME:  93K3/04 
*SOURCE FILE: 19Y08M28
013027  19Y08M28                         A4    C        12:10:34:07 12:10:38:16 02:14:09:20 02:14:14:04 
*FROM CLIP NAME:  93K3/04 
*SOURCE FILE: 19Y08M28
013028  19Y08M28                         A5    C        12:10:34:07 12:10:38:16 02:14:09:20 02:14:14:04 
*FROM CLIP NAME:  93K3/04 
*SOURCE FILE: 19Y08M28
013029  19Y08M28                         A6    C        12:10:34:07 12:10:38:16 02:14:09:20 02:14:14:04 
*FROM CLIP NAME:  93K3/04 
*PATCH 19Y08M28:  FROM SOURCE 8 TO RECORD 6 
*SOURCE FILE: 19Y08M28
013030  19Y08M28                         A7    C        12:10:34:07 12:10:38:16 02:14:09:20 02:14:14:04 
*FROM CLIP NAME:  93K3/04 
*SOURCE FILE: 19Y08M28
013031  MSMMMOB.47                       V     C        11:17:46:09 11:17:48:04 02:14:13:15 02:14:15:10 
M2      MSMMMOB.47                                025.0 11:17:46:09 
*FROM CLIP NAME:  A102C001_190828_R3DN 
*SOURCE FILE: MSMMMOB.47
013032  19Y08M28                         A     C        11:17:46:23 11:17:49:22 02:14:14:04 02:14:17:03 
*FROM CLIP NAME:  93K1/01 
*SOURCE FILE: 19Y08M28
013033  19Y08M28                         A2    C        11:17:46:23 11:17:49:22 02:14:14:04 02:14:17:03 
*FROM CLIP NAME:  93K1/01 
*SOURCE FILE: 19Y08M28
013034  19Y08M28                         A3    C        11:17:46:23 11:17:49:22 02:14:14:04 02:14:17:03 
*FROM CLIP NAME:  93K1/01 
*SOURCE FILE: 19Y08M28
013035  19Y08M28                         A4    C        11:17:46:23 11:17:49:22 02:14:14:04 02:14:17:03 
*FROM CLIP NAME:  93K1/01 
*SOURCE FILE: 19Y08M28
013036  19Y08M28                         A5    C        11:17:46:23 11:17:49:22 02:14:14:04 02:14:17:03 
*FROM CLIP NAME:  93K1/01 
*SOURCE FILE: 19Y08M28
013037  19Y08M28                         A6    C        11:17:46:23 11:17:49:22 02:14:14:04 02:14:17:03 
*FROM CLIP NAME:  93K1/01 
*PATCH 19Y08M28:  FROM SOURCE 8 TO RECORD 6 
*SOURCE FILE: 19Y08M28
013038  MSMMMOB.82                       V     C        12:22:33:07 12:22:35:00 02:14:15:10 02:14:17:03 
M2      MSMMMOB.82                                025.0 12:22:33:07 
*FROM CLIP NAME:  B031C003_190828_A1Y8 
*SOURCE FILE: MSMMMOB.82
013039  MSMMMOB.02                       V     C        14:06:47:09 14:06:50:06 02:14:17:03 02:14:20:00 
M2      MSMMMOB.02                                025.0 14:06:47:09 
*FROM CLIP NAME:  A104C009_190828_R3DN 
*SOURCE FILE: MSMMMOB.02
013040  19Y08M28                         A     C        11:41:23:24 11:41:26:21 02:14:17:03 02:14:20:00 
*FROM CLIP NAME:  93K2/02 
*SOURCE FILE: 19Y08M28
013041  19Y08M28                         A2    C        11:41:23:24 11:41:26:21 02:14:17:03 02:14:20:00 
*FROM CLIP NAME:  93K2/02 
*SOURCE FILE: 19Y08M28
013042  19Y08M28                         A3    C        11:41:23:24 11:41:26:21 02:14:17:03 02:14:20:00 
*FROM CLIP NAME:  93K2/02 
*SOURCE FILE: 19Y08M28
013043  19Y08M28                         A4    C        11:41:23:24 11:41:26:21 02:14:17:03 02:14:20:00 
*FROM CLIP NAME:  93K2/02 
*SOURCE FILE: 19Y08M28
013044  19Y08M28                         A5    C        11:41:23:24 11:41:26:21 02:14:17:03 02:14:20:00 
*FROM CLIP NAME:  93K2/02 
*SOURCE FILE: 19Y08M28
013045  19Y08M28                         A6    C        11:41:23:24 11:41:26:21 02:14:17:03 02:14:20:00 
*FROM CLIP NAME:  93K2/02 
*PATCH 19Y08M28:  FROM SOURCE 8 TO RECORD 6 
*SOURCE FILE: 19Y08M28
013046  19Y08M28                         A7    C        14:06:47:08 14:06:50:05 02:14:17:03 02:14:20:00 
*FROM CLIP NAME:  93K12/02 
*PATCH 19Y08M28:  FROM SOURCE 1 TO RECORD 7 
*SOURCE FILE: 19Y08M28
013047  19Y08M28                         A8    C        14:06:47:08 14:06:50:05 02:14:17:03 02:14:20:00 
*FROM CLIP NAME:  93K12/02 
*PATCH 19Y08M28:  FROM SOURCE 2 TO RECORD 8 
*SOURCE FILE: 19Y08M28
013048  19Y08M28                         A9    C        14:06:47:08 14:06:50:05 02:14:17:03 02:14:20:00 
*FROM CLIP NAME:  93K12/02 
*PATCH 19Y08M28:  FROM SOURCE 5 TO RECORD 9 
*SOURCE FILE: 19Y08M28
013049  MSMMMOB.07                       V     C        12:51:17:08 12:51:19:01 02:14:20:00 02:14:21:18 
M2      MSMMMOB.07                                025.0 12:51:17:08 
*FROM CLIP NAME:  A103C010_190828_R3DN 
*SOURCE FILE: MSMMMOB.07
013050  19Y08M28                         A     C        12:51:17:07 12:51:19:00 02:14:20:00 02:14:21:18 
*FROM CLIP NAME:  93K11/01 
*SOURCE FILE: 19Y08M28
013051  19Y08M28                         A2    C        12:51:17:07 12:51:19:00 02:14:20:00 02:14:21:18 
*FROM CLIP NAME:  93K11/01 
*SOURCE FILE: 19Y08M28
013052  19Y08M28                         A3    C        12:51:17:07 12:51:19:00 02:14:20:00 02:14:21:18 
*FROM CLIP NAME:  93K11/01 
*SOURCE FILE: 19Y08M28
013053  MSMMMOB.23                       V     C        12:50:06:06 12:50:08:13 02:14:21:18 02:14:24:00 
M2      MSMMMOB.23                                025.0 12:50:06:06 
*FROM CLIP NAME:  B031C006_190828_A1Y8 
*SOURCE FILE: MSMMMOB.23
013054  19Y08M28                         A     C        12:50:06:06 12:50:09:06 02:14:21:18 02:14:24:18 
*FROM CLIP NAME:  93K10/01 
*SOURCE FILE: 19Y08M28
013055  19Y08M28                         A2    C        12:50:06:06 12:50:09:06 02:14:21:18 02:14:24:18 
*FROM CLIP NAME:  93K10/01 
*SOURCE FILE: 19Y08M28
013056  19Y08M28                         A3    C        12:50:06:06 12:50:09:06 02:14:21:18 02:14:24:18 
*FROM CLIP NAME:  93K10/01 
*SOURCE FILE: 19Y08M28
013057  MSMMMOB.49                       V     C        12:41:24:12 12:41:27:08 02:14:24:00 02:14:26:21 
M2      MSMMMOB.49                                025.0 12:41:24:12 
*FROM CLIP NAME:  A103C007_190828_R3DN 
*SOURCE FILE: MSMMMOB.49
013058  19Y08M28                         A     C        12:50:09:06 12:50:09:06 02:14:24:18 02:14:24:18 
013058  19Y08M28                         A     D    005 12:50:07:08 12:50:07:13 02:14:24:18 02:14:24:23 
*FROM CLIP NAME:  93K10/01 
*TO CLIP NAME:  93K10/01 
*SOURCE FILE: 19Y08M28
013059  19Y08M28                         A2    C        12:50:09:06 12:50:09:06 02:14:24:18 02:14:24:18 
013059  19Y08M28                         A2    D    005 12:50:07:08 12:50:07:13 02:14:24:18 02:14:24:23 
*FROM CLIP NAME:  93K10/01 
*TO CLIP NAME:  93K10/01 
*SOURCE FILE: 19Y08M28
013060  19Y08M28                         A3    C        12:50:09:06 12:50:09:06 02:14:24:18 02:14:24:18 
013060  19Y08M28                         A3    D    005 12:50:07:08 12:50:07:13 02:14:24:18 02:14:24:23 
*FROM CLIP NAME:  93K10/01 
*TO CLIP NAME:  93K10/01 
*SOURCE FILE: 19Y08M28
013061  19Y08M28                         A     C        12:50:07:13 12:50:09:11 02:14:24:23 02:14:26:21 
*FROM CLIP NAME:  93K10/01 
*SOURCE FILE: 19Y08M28
013062  19Y08M28                         A2    C        12:50:07:13 12:50:09:11 02:14:24:23 02:14:26:21 
*FROM CLIP NAME:  93K10/01 
*SOURCE FILE: 19Y08M28
013063  19Y08M28                         A3    C        12:50:07:13 12:50:09:11 02:14:24:23 02:14:26:21 
*FROM CLIP NAME:  93K10/01 
*SOURCE FILE: 19Y08M28
013064  19Y08M21                         A     C        18:51:15:12 18:51:18:05 02:14:26:21 02:14:29:14 
*FROM CLIP NAME:  95K1/01 
*PATCH 19Y08M21:  FROM SOURCE 2 TO RECORD 1 
*SOURCE FILE: 19Y08M21
013065  19Y08M21                         A2    C        18:51:15:12 18:51:18:05 02:14:26:21 02:14:29:14 
*FROM CLIP NAME:  95K1/01 
*PATCH 19Y08M21:  FROM SOURCE 7 TO RECORD 2 
*SOURCE FILE: 19Y08M21
013066  19Y08M21                         A3    C        18:51:15:12 18:51:18:05 02:14:26:21 02:14:29:14 
*FROM CLIP NAME:  95K1/01 
*PATCH 19Y08M21:  FROM SOURCE 4 TO RECORD 3 
*SOURCE FILE: 19Y08M21
013067  MSMMMOB.63                       V     C        19:45:25:22 19:45:31:10 02:14:26:21 02:14:32:09 
M2      MSMMMOB.63                                025.0 19:45:25:22 
*FROM CLIP NAME:  M120_C001_20190821_R 
*SOURCE FILE: MSMMMOB.63
013068  475506__O-CIZ__AMBIENT-LIGHT-WIN A7    C        08:04:25:00 08:05:36:05 02:14:26:21 02:15:38:01 
*FROM CLIP NAME:  475506__O-CIZ__AMBIENT-LIGHT-WIND.WAV 
*A7 VOL =  +6.3 DB  PAN L100 
*PATCH 475506__O-CIZ__AMBIENT-LIGHT-WIN:  FROM SOURCE 1 TO RECORD 7 
*SOURCE FILE: 475506__O-CIZ__AMBIENT-LIGHT-WIND.WAV
013069  475506__O-CIZ__AMBIENT-LIGHT-WIN A8    C        08:04:25:00 08:05:36:05 02:14:26:21 02:15:38:01 
*FROM CLIP NAME:  475506__O-CIZ__AMBIENT-LIGHT-WIND.WAV 
*A8 VOL =  +6.3 DB  PAN R100 
*PATCH 475506__O-CIZ__AMBIENT-LIGHT-WIN:  FROM SOURCE 2 TO RECORD 8 
*SOURCE FILE: 475506__O-CIZ__AMBIENT-LIGHT-WIND.WAV
013070  19Y08M21                         A     C        18:51:15:12 18:51:18:07 02:14:29:14 02:14:32:09 
*FROM CLIP NAME:  95K1/01 
*PATCH 19Y08M21:  FROM SOURCE 2 TO RECORD 1 
*SOURCE FILE: 19Y08M21
013071  19Y08M21                         A2    C        18:51:15:12 18:51:18:07 02:14:29:14 02:14:32:09 
*FROM CLIP NAME:  95K1/01 
*PATCH 19Y08M21:  FROM SOURCE 7 TO RECORD 2 
*SOURCE FILE: 19Y08M21
013072  19Y08M21                         A3    C        18:51:15:12 18:51:18:07 02:14:29:14 02:14:32:09 
*FROM CLIP NAME:  95K1/01 
*PATCH 19Y08M21:  FROM SOURCE 4 TO RECORD 3 
*SOURCE FILE: 19Y08M21
013073  19Y08M21                         A4    C        19:02:13:24 19:02:17:08 02:14:29:14 02:14:32:23 
*FROM CLIP NAME:  95K1/03 
*A4 VOL =  +7.0 DB  PAN L100 
*SOURCE FILE: 19Y08M21
013074  19Y08M21                         A5    C        19:02:13:24 19:02:17:08 02:14:29:14 02:14:32:23 
*FROM CLIP NAME:  95K1/03 
*A5 VOL = -53.4 DB  PAN R100 
*PATCH 19Y08M21:  FROM SOURCE 7 TO RECORD 5 
*SOURCE FILE: 19Y08M21
013075  19Y08M21                         A6    C        19:02:13:24 19:02:17:08 02:14:29:14 02:14:32:23 
*FROM CLIP NAME:  95K1/03 
*A6 VOL = -49.6 DB  PAN L100 
*PATCH 19Y08M21:  FROM SOURCE 2 TO RECORD 6 
*SOURCE FILE: 19Y08M21
013076  19Y08M21                         A     C        18:52:09:11 18:52:12:00 02:14:32:09 02:14:34:23 
*FROM CLIP NAME:  95K1/01 
*PATCH 19Y08M21:  FROM SOURCE 2 TO RECORD 1 
*SOURCE FILE: 19Y08M21
013077  19Y08M21                         A2    C        18:52:09:11 18:52:12:00 02:14:32:09 02:14:34:23 
*FROM CLIP NAME:  95K1/01 
*PATCH 19Y08M21:  FROM SOURCE 7 TO RECORD 2 
*SOURCE FILE: 19Y08M21
013078  19Y08M21                         A3    C        18:52:09:11 18:52:12:00 02:14:32:09 02:14:34:23 
*FROM CLIP NAME:  95K1/01 
*PATCH 19Y08M21:  FROM SOURCE 4 TO RECORD 3 
*SOURCE FILE: 19Y08M21
013079  MSMMMOB.61                       V     C        18:52:09:13 18:52:12:16 02:14:32:09 02:14:35:12 
M2      MSMMMOB.61                                025.0 18:52:09:13 
*FROM CLIP NAME:  A095C001_190821_R32C 
*SOURCE FILE: MSMMMOB.61
013080  19Y08M21                         A     C        18:52:12:00 18:52:12:00 02:14:34:23 02:14:34:23 
013080  19Y08M21                         A     D    002 19:32:40:03 19:32:40:05 02:14:34:23 02:14:35:00 
*FROM CLIP NAME:  95K1/01 
*TO CLIP NAME:  95K3/01 
*A1 VOL =  +4.8 DB  PAN R100 
*PATCH 19Y08M21:  FROM SOURCE 2 TO RECORD 1 
*PATCH 19Y08M21:  FROM SOURCE 2 TO RECORD 1 
*SOURCE FILE: 19Y08M21
013081  19Y08M21                         A2    C        18:52:12:00 18:52:12:00 02:14:34:23 02:14:34:23 
013081  19Y08M21                         A2    D    002 19:32:40:03 19:32:40:05 02:14:34:23 02:14:35:00 
*FROM CLIP NAME:  95K1/01 
*TO CLIP NAME:  95K3/01 
*A2 VOL =  +5.8 DB  PAN L100 
*PATCH 19Y08M21:  FROM SOURCE 7 TO RECORD 2 
*PATCH 19Y08M21:  FROM SOURCE 7 TO RECORD 2 
*SOURCE FILE: 19Y08M21
013082  19Y08M21                         A3    C        18:52:12:00 18:52:12:00 02:14:34:23 02:14:34:23 
013082  19Y08M21                         A3    D    002 19:32:40:03 19:32:40:05 02:14:34:23 02:14:35:00 
*FROM CLIP NAME:  95K1/01 
*TO CLIP NAME:  95K3/01 
*PATCH 19Y08M21:  FROM SOURCE 4 TO RECORD 3 
*PATCH 19Y08M21:  FROM SOURCE 4 TO RECORD 3 
*SOURCE FILE: 19Y08M21
013083  19Y08M21                         A     C        19:32:40:05 19:32:40:17 02:14:35:00 02:14:35:12 
*FROM CLIP NAME:  95K3/01 
*A1 VOL =  +4.8 DB  PAN R100 
*PATCH 19Y08M21:  FROM SOURCE 2 TO RECORD 1 
*SOURCE FILE: 19Y08M21
013084  19Y08M21                         A2    C        19:32:40:05 19:32:40:17 02:14:35:00 02:14:35:12 
*FROM CLIP NAME:  95K3/01 
*A2 VOL =  +5.8 DB  PAN L100 
*PATCH 19Y08M21:  FROM SOURCE 7 TO RECORD 2 
*SOURCE FILE: 19Y08M21
013085  19Y08M21                         A3    C        19:32:40:05 19:32:40:17 02:14:35:00 02:14:35:12 
*FROM CLIP NAME:  95K3/01 
*PATCH 19Y08M21:  FROM SOURCE 4 TO RECORD 3 
*SOURCE FILE: 19Y08M21
013086  19Y08M21                         A     C        19:32:47:22 19:32:52:08 02:14:35:12 02:14:39:23 
*FROM CLIP NAME:  95K3/01 
*A1 VOL =  +9.1 DB  PAN R100 
*PATCH 19Y08M21:  FROM SOURCE 2 TO RECORD 1 
*SOURCE FILE: 19Y08M21
013087  19Y08M21                         A2    C        19:32:47:22 19:32:52:08 02:14:35:12 02:14:39:23 
*FROM CLIP NAME:  95K3/01 
*A2 VOL =  +9.0 DB  PAN L100 
*PATCH 19Y08M21:  FROM SOURCE 7 TO RECORD 2 
*SOURCE FILE: 19Y08M21
013088  19Y08M21                         A3    C        19:32:47:22 19:32:52:08 02:14:35:12 02:14:39:23 
*FROM CLIP NAME:  95K3/01 
*A3 VOL =  +9.0 DB  PAN R100 
*PATCH 19Y08M21:  FROM SOURCE 4 TO RECORD 3 
*SOURCE FILE: 19Y08M21
013089  MSMMMOB.58                       V     C        19:32:47:24 19:33:00:11 02:14:35:12 02:14:47:24 
M2      MSMMMOB.58                                025.0 19:32:47:24 
*FROM CLIP NAME:  A095C008_190821_R32C 
*SOURCE FILE: MSMMMOB.58
013090  BL                               V     C        00:00:00:00 00:00:12:12 02:14:35:12 02:14:47:24 
*SOURCE FILE: (NULL)
013091  19Y08M21                         A     C        19:32:52:08 19:32:56:05 02:14:39:23 02:14:43:20 
*FROM CLIP NAME:  95K3/01 
*A1 VOL = +12.0 DB  PAN R100 
*PATCH 19Y08M21:  FROM SOURCE 2 TO RECORD 1 
*SOURCE FILE: 19Y08M21
013092  19Y08M21                         A2    C        19:32:52:08 19:32:56:05 02:14:39:23 02:14:43:20 
*FROM CLIP NAME:  95K3/01 
*A2 VOL = +12.0 DB  PAN L100 
*PATCH 19Y08M21:  FROM SOURCE 7 TO RECORD 2 
*SOURCE FILE: 19Y08M21
013093  19Y08M21                         A3    C        19:32:52:08 19:32:56:05 02:14:39:23 02:14:43:20 
*FROM CLIP NAME:  95K3/01 
*A3 VOL =  +9.0 DB  PAN R100 
*PATCH 19Y08M21:  FROM SOURCE 4 TO RECORD 3 
*SOURCE FILE: 19Y08M21
013094  19Y08M21                         A     C        19:32:56:05 19:33:00:10 02:14:43:20 02:14:48:00 
*FROM CLIP NAME:  95K3/01 
*A1 VOL = +12.0 DB  PAN R100 
*PATCH 19Y08M21:  FROM SOURCE 2 TO RECORD 1 
*SOURCE FILE: 19Y08M21
013095  19Y08M21                         A2    C        19:32:56:05 19:33:00:10 02:14:43:20 02:14:48:00 
*FROM CLIP NAME:  95K3/01 
*A2 VOL = +12.0 DB  PAN L100 
*PATCH 19Y08M21:  FROM SOURCE 7 TO RECORD 2 
*SOURCE FILE: 19Y08M21
013096  19Y08M21                         A3    C        19:32:56:05 19:33:00:10 02:14:43:20 02:14:48:00 
*FROM CLIP NAME:  95K3/01 
*A3 VOL =  +9.0 DB  PAN R100 
*PATCH 19Y08M21:  FROM SOURCE 4 TO RECORD 3 
*SOURCE FILE: 19Y08M21
013097  MSMMMOB.41                       V     C        19:19:18:19 19:19:23:24 02:14:47:24 02:14:53:04 
M2      MSMMMOB.41                                025.0 19:19:18:19 
*FROM CLIP NAME:  A095C007_190821_R32C 
*SOURCE FILE: MSMMMOB.41
013098  BL                               V     C        00:00:00:00 00:00:29:11 02:14:47:24 02:15:17:10 
*SOURCE FILE: (NULL)
013099  19Y08M21                         A     C        19:33:00:10 19:33:00:10 02:14:48:00 02:14:48:00 
013099  19Y08M21                         A     D    005 19:19:18:18 19:19:18:23 02:14:48:00 02:14:48:05 
*FROM CLIP NAME:  95K3/01 
*TO CLIP NAME:  95K2/03 
*A1 VOL = +12.0 DB  PAN R100 
*A1 VOL = +10.5 DB  PAN R100 
*PATCH 19Y08M21:  FROM SOURCE 2 TO RECORD 1 
*PATCH 19Y08M21:  FROM SOURCE 2 TO RECORD 1 
*SOURCE FILE: 19Y08M21
013100  19Y08M21                         A2    C        19:33:00:10 19:33:00:10 02:14:48:00 02:14:48:00 
013100  19Y08M21                         A2    D    005 19:19:18:18 19:19:18:23 02:14:48:00 02:14:48:05 
*FROM CLIP NAME:  95K3/01 
*TO CLIP NAME:  95K2/03 
*A2 VOL = +12.0 DB  PAN L100 
*A2 VOL = -31.5 DB  PAN L100 
*PATCH 19Y08M21:  FROM SOURCE 7 TO RECORD 2 
*PATCH 19Y08M21:  FROM SOURCE 7 TO RECORD 2 
*SOURCE FILE: 19Y08M21
013101  19Y08M21                         A3    C        19:33:00:10 19:33:00:10 02:14:48:00 02:14:48:00 
013101  19Y08M21                         A3    D    005 19:19:18:18 19:19:18:23 02:14:48:00 02:14:48:05 
*FROM CLIP NAME:  95K3/01 
*TO CLIP NAME:  95K2/03 
*A3 VOL =  +9.0 DB  PAN R100 
*A3 VOL = +10.0 DB  PAN R100 
*PATCH 19Y08M21:  FROM SOURCE 4 TO RECORD 3 
*PATCH 19Y08M21:  FROM SOURCE 4 TO RECORD 3 
*SOURCE FILE: 19Y08M21
013102  19Y08M21                         A     C        19:19:18:23 19:19:24:16 02:14:48:05 02:14:53:23 
*FROM CLIP NAME:  95K2/03 
*A1 VOL = +10.5 DB  PAN R100 
*PATCH 19Y08M21:  FROM SOURCE 2 TO RECORD 1 
*SOURCE FILE: 19Y08M21
013103  19Y08M21                         A2    C        19:19:18:23 19:19:24:16 02:14:48:05 02:14:53:23 
*FROM CLIP NAME:  95K2/03 
*A2 VOL = -31.5 DB  PAN L100 
*PATCH 19Y08M21:  FROM SOURCE 7 TO RECORD 2 
*SOURCE FILE: 19Y08M21
013104  19Y08M21                         A3    C        19:19:18:23 19:19:24:16 02:14:48:05 02:14:53:23 
*FROM CLIP NAME:  95K2/03 
*A3 VOL = +10.0 DB  PAN R100 
*PATCH 19Y08M21:  FROM SOURCE 4 TO RECORD 3 
*SOURCE FILE: 19Y08M21
013105  MSMMMOB.61                       V     C        18:51:28:07 18:51:30:15 02:14:53:04 02:14:55:12 
M2      MSMMMOB.61                                025.0 18:51:28:07 
*FROM CLIP NAME:  A095C001_190821_R32C 
*SOURCE FILE: MSMMMOB.61
013106  19Y08M21                         A     C        19:13:45:10 19:13:55:21 02:14:53:23 02:15:04:09 
*FROM CLIP NAME:  95K2/02 
*A1 VOL =  +6.7 DB  PAN R100 
*PATCH 19Y08M21:  FROM SOURCE 2 TO RECORD 1 
*SOURCE FILE: 19Y08M21
013107  19Y08M21                         A2    C        19:13:45:10 19:13:55:21 02:14:53:23 02:15:04:09 
*FROM CLIP NAME:  95K2/02 
*PATCH 19Y08M21:  FROM SOURCE 7 TO RECORD 2 
*SOURCE FILE: 19Y08M21
013108  19Y08M21                         A3    C        19:13:45:10 19:13:55:21 02:14:53:23 02:15:04:09 
*FROM CLIP NAME:  95K2/02 
*A3 VOL =  +5.0 DB  PAN R100 
*PATCH 19Y08M21:  FROM SOURCE 4 TO RECORD 3 
*SOURCE FILE: 19Y08M21
013109  MSMMMOB.75                       V     C        19:13:47:01 19:13:56:00 02:14:55:12 02:15:04:11 
M2      MSMMMOB.75                                025.0 19:13:47:01 
*FROM CLIP NAME:  A095C006_190821_R32C 
*SOURCE FILE: MSMMMOB.75
013110  19Y08M21                         A     C        19:13:55:21 19:13:55:21 02:15:04:09 02:15:04:09 
013110  MSMMMOB.75                       A     D    005 19:13:54:19 19:13:54:24 02:15:04:09 02:15:04:14 
*FROM CLIP NAME:  95K2/02 
*TO CLIP NAME:  A095C006_190821_R32C 
*A1 VOL =  +6.7 DB  PAN R100 
*PATCH 19Y08M21:  FROM SOURCE 2 TO RECORD 1 
*SOURCE FILE: 19Y08M21
013111  19Y08M21                         A2    C        19:13:55:21 19:13:55:21 02:15:04:09 02:15:04:09 
013111  19Y08M21                         A2    D    005 19:13:54:17 19:13:54:22 02:15:04:09 02:15:04:14 
*FROM CLIP NAME:  95K2/02 
*TO CLIP NAME:  95K2/02 
*PATCH 19Y08M21:  FROM SOURCE 7 TO RECORD 2 
*SOURCE FILE: 19Y08M21
013112  19Y08M21                         A3    C        19:13:55:21 19:13:55:21 02:15:04:09 02:15:04:09 
013112  19Y08M21                         A3    D    005 19:13:54:17 19:13:54:22 02:15:04:09 02:15:04:14 
*FROM CLIP NAME:  95K2/02 
*TO CLIP NAME:  95K2/02 
*A3 VOL =  +5.0 DB  PAN R100 
*PATCH 19Y08M21:  FROM SOURCE 4 TO RECORD 3 
*PATCH 19Y08M21:  FROM SOURCE 4 TO RECORD 3 
*SOURCE FILE: 19Y08M21
013113  BL                               A4    C        00:00:00:00 00:00:00:00 02:15:04:09 02:15:04:09 
013113  19Y08M21                         A4    D    005 19:13:54:17 19:13:54:22 02:15:04:09 02:15:04:14 
*TO CLIP NAME:  95K2/02 
*PATCH 19Y08M21:  FROM SOURCE 7 TO RECORD 4 
*SOURCE FILE: (NULL)
013114  MSMMMOB.61                       V     C        18:51:41:05 18:51:43:11 02:15:04:11 02:15:06:17 
M2      MSMMMOB.61                                025.0 18:51:41:05 
*FROM CLIP NAME:  A095C001_190821_R32C 
*SOURCE FILE: MSMMMOB.61
013115  MSMMMOB.75                       A     C        19:13:54:24 19:13:56:15 02:15:04:14 02:15:06:05 
*FROM CLIP NAME:  A095C006_190821_R32C 
*SOURCE FILE: MSMMMOB.75
013116  19Y08M21                         A2    C        19:13:54:22 19:13:56:13 02:15:04:14 02:15:06:05 
*FROM CLIP NAME:  95K2/02 
*SOURCE FILE: 19Y08M21
013117  19Y08M21                         A3    C        19:13:54:22 19:13:56:13 02:15:04:14 02:15:06:05 
*FROM CLIP NAME:  95K2/02 
*PATCH 19Y08M21:  FROM SOURCE 4 TO RECORD 3 
*SOURCE FILE: 19Y08M21
013118  19Y08M21                         A4    C        19:13:54:22 19:13:56:13 02:15:04:14 02:15:06:05 
*FROM CLIP NAME:  95K2/02 
*PATCH 19Y08M21:  FROM SOURCE 7 TO RECORD 4 
*SOURCE FILE: 19Y08M21
013119  MSMMMOB.75                       A     C        19:13:56:15 19:13:56:15 02:15:06:05 02:15:06:05 
013119  19Y08M21                         A     D    005 19:13:55:11 19:13:55:16 02:15:06:05 02:15:06:10 
*FROM CLIP NAME:  A095C006_190821_R32C 
*TO CLIP NAME:  95K2/02 
*A1 VOL =  +8.0 DB  PAN R100 
*PATCH 19Y08M21:  FROM SOURCE 2 TO RECORD 1 
*SOURCE FILE: MSMMMOB.75
013120  19Y08M21                         A2    C        19:13:56:13 19:13:56:13 02:15:06:05 02:15:06:05 
013120  19Y08M21                         A2    D    005 19:13:55:11 19:13:55:16 02:15:06:05 02:15:06:10 
*FROM CLIP NAME:  95K2/02 
*TO CLIP NAME:  95K2/02 
*PATCH 19Y08M21:  FROM SOURCE 7 TO RECORD 2 
*SOURCE FILE: 19Y08M21
013121  19Y08M21                         A3    C        19:13:56:13 19:13:56:13 02:15:06:05 02:15:06:05 
013121  19Y08M21                         A3    D    005 19:13:55:11 19:13:55:16 02:15:06:05 02:15:06:10 
*FROM CLIP NAME:  95K2/02 
*TO CLIP NAME:  95K2/02 
*A3 VOL =  +9.1 DB  PAN R100 
*PATCH 19Y08M21:  FROM SOURCE 4 TO RECORD 3 
*PATCH 19Y08M21:  FROM SOURCE 4 TO RECORD 3 
*SOURCE FILE: 19Y08M21
013122  19Y08M21                         A4    C        19:13:56:13 19:13:56:13 02:15:06:05 02:15:06:05 
013122  BL                               A4    D    005 00:00:00:00 00:00:00:05 02:15:06:05 02:15:06:10 
*FROM CLIP NAME:  95K2/02 
*PATCH 19Y08M21:  FROM SOURCE 7 TO RECORD 4 
*SOURCE FILE: 19Y08M21
013123  19Y08M21                         A     C        19:13:55:16 19:14:02:11 02:15:06:10 02:15:13:05 
*FROM CLIP NAME:  95K2/02 
*A1 VOL =  +8.0 DB  PAN R100 
*PATCH 19Y08M21:  FROM SOURCE 2 TO RECORD 1 
*SOURCE FILE: 19Y08M21
013124  19Y08M21                         A2    C        19:13:55:16 19:14:02:11 02:15:06:10 02:15:13:05 
*FROM CLIP NAME:  95K2/02 
*PATCH 19Y08M21:  FROM SOURCE 7 TO RECORD 2 
*SOURCE FILE: 19Y08M21
013125  19Y08M21                         A3    C        19:13:55:16 19:14:02:11 02:15:06:10 02:15:13:05 
*FROM CLIP NAME:  95K2/02 
*A3 VOL =  +9.1 DB  PAN R100 
*PATCH 19Y08M21:  FROM SOURCE 4 TO RECORD 3 
*SOURCE FILE: 19Y08M21
013126  MSMMMOB.75                       V     C        19:13:56:00 19:14:02:07 02:15:06:17 02:15:12:24 
M2      MSMMMOB.75                                025.0 19:13:56:00 
*FROM CLIP NAME:  A095C006_190821_R32C 
*SOURCE FILE: MSMMMOB.75
013127  MSMMMOB.69                       V     C        19:03:35:12 19:03:39:22 02:15:12:24 02:15:17:09 
M2      MSMMMOB.69                                025.0 19:03:35:12 
*FROM CLIP NAME:  A095C003_190821_R32C 
*SOURCE FILE: MSMMMOB.69
013128  19Y08M21                         A     C        19:14:02:11 19:14:02:11 02:15:13:05 02:15:13:05 
013128  19Y08M21                         A     D    002 19:03:35:16 19:03:35:18 02:15:13:05 02:15:13:07 
*FROM CLIP NAME:  95K2/02 
*TO CLIP NAME:  95K1/03 
*A1 VOL =  +8.0 DB  PAN R100 
*PATCH 19Y08M21:  FROM SOURCE 2 TO RECORD 1 
*PATCH 19Y08M21:  FROM SOURCE 2 TO RECORD 1 
*SOURCE FILE: 19Y08M21
013129  19Y08M21                         A2    C        19:14:02:11 19:14:02:11 02:15:13:05 02:15:13:05 
013129  19Y08M21                         A2    D    002 19:03:35:16 19:03:35:18 02:15:13:05 02:15:13:07 
*FROM CLIP NAME:  95K2/02 
*TO CLIP NAME:  95K1/03 
*A2 VOL =  +8.5 DB  PAN L100 
*PATCH 19Y08M21:  FROM SOURCE 7 TO RECORD 2 
*PATCH 19Y08M21:  FROM SOURCE 7 TO RECORD 2 
*SOURCE FILE: 19Y08M21
013130  19Y08M21                         A3    C        19:14:02:11 19:14:02:11 02:15:13:05 02:15:13:05 
013130  19Y08M21                         A3    D    002 19:03:35:16 19:03:35:18 02:15:13:05 02:15:13:07 
*FROM CLIP NAME:  95K2/02 
*TO CLIP NAME:  95K1/03 
*A3 VOL =  +9.1 DB  PAN R100 
*A3 VOL =  +8.0 DB  PAN R100 
*PATCH 19Y08M21:  FROM SOURCE 4 TO RECORD 3 
*PATCH 19Y08M21:  FROM SOURCE 4 TO RECORD 3 
*SOURCE FILE: 19Y08M21
013131  19Y08M21                         A     C        19:03:35:18 19:03:39:19 02:15:13:07 02:15:17:08 
*FROM CLIP NAME:  95K1/03 
*PATCH 19Y08M21:  FROM SOURCE 2 TO RECORD 1 
*SOURCE FILE: 19Y08M21
013132  19Y08M21                         A2    C        19:03:35:18 19:03:39:19 02:15:13:07 02:15:17:08 
*FROM CLIP NAME:  95K1/03 
*A2 VOL =  +8.5 DB  PAN L100 
*PATCH 19Y08M21:  FROM SOURCE 7 TO RECORD 2 
*SOURCE FILE: 19Y08M21
013133  19Y08M21                         A3    C        19:03:35:18 19:03:39:19 02:15:13:07 02:15:17:08 
*FROM CLIP NAME:  95K1/03 
*A3 VOL =  +8.0 DB  PAN R100 
*PATCH 19Y08M21:  FROM SOURCE 4 TO RECORD 3 
*SOURCE FILE: 19Y08M21
013134  19Y08M21                         A     C        19:03:39:19 19:03:39:19 02:15:17:08 02:15:17:08 
013134  19Y08M21                         A     D    002 19:14:18:01 19:14:18:03 02:15:17:08 02:15:17:10 
*FROM CLIP NAME:  95K1/03 
*TO CLIP NAME:  95K2/02 
*PATCH 19Y08M21:  FROM SOURCE 2 TO RECORD 1 
*PATCH 19Y08M21:  FROM SOURCE 2 TO RECORD 1 
*SOURCE FILE: 19Y08M21
013135  19Y08M21                         A2    C        19:03:39:19 19:03:39:19 02:15:17:08 02:15:17:08 
013135  19Y08M21                         A2    D    002 19:14:18:01 19:14:18:03 02:15:17:08 02:15:17:10 
*FROM CLIP NAME:  95K1/03 
*TO CLIP NAME:  95K2/02 
*A2 VOL =  +8.5 DB  PAN L100 
*PATCH 19Y08M21:  FROM SOURCE 7 TO RECORD 2 
*PATCH 19Y08M21:  FROM SOURCE 7 TO RECORD 2 
*SOURCE FILE: 19Y08M21
013136  19Y08M21                         A3    C        19:03:39:19 19:03:39:19 02:15:17:08 02:15:17:08 
013136  19Y08M21                         A3    D    002 19:14:18:01 19:14:18:03 02:15:17:08 02:15:17:10 
*FROM CLIP NAME:  95K1/03 
*TO CLIP NAME:  95K2/02 
*A3 VOL =  +8.0 DB  PAN R100 
*PATCH 19Y08M21:  FROM SOURCE 4 TO RECORD 3 
*PATCH 19Y08M21:  FROM SOURCE 4 TO RECORD 3 
*SOURCE FILE: 19Y08M21
013137  MSMMMOB.41                       V     C        19:19:44:12 19:19:50:23 02:15:17:09 02:15:23:20 
M2      MSMMMOB.41                                025.0 19:19:44:12 
*FROM CLIP NAME:  A095C007_190821_R32C 
*SOURCE FILE: MSMMMOB.41
013138  19Y08M21                         A     C        19:14:18:03 19:14:18:22 02:15:17:10 02:15:18:04 
*FROM CLIP NAME:  95K2/02 
*PATCH 19Y08M21:  FROM SOURCE 2 TO RECORD 1 
*SOURCE FILE: 19Y08M21
013139  19Y08M21                         A2    C        19:14:18:03 19:14:18:22 02:15:17:10 02:15:18:04 
*FROM CLIP NAME:  95K2/02 
*PATCH 19Y08M21:  FROM SOURCE 7 TO RECORD 2 
*SOURCE FILE: 19Y08M21
013140  19Y08M21                         A3    C        19:14:18:03 19:14:18:22 02:15:17:10 02:15:18:04 
*FROM CLIP NAME:  95K2/02 
*PATCH 19Y08M21:  FROM SOURCE 4 TO RECORD 3 
*SOURCE FILE: 19Y08M21
013141  BL                               V     C        00:00:00:00 00:00:06:10 02:15:17:10 02:15:23:20 
*SOURCE FILE: (NULL)
013142  19Y08M21                         A     C        19:14:18:22 19:14:18:22 02:15:18:04 02:15:18:04 
013142  19Y08M21                         A     D    002 19:19:45:05 19:19:45:07 02:15:18:04 02:15:18:06 
*FROM CLIP NAME:  95K2/02 
*TO CLIP NAME:  95K2/03 
*A1 VOL =  +7.3 DB  PAN R100 
*PATCH 19Y08M21:  FROM SOURCE 2 TO RECORD 1 
*PATCH 19Y08M21:  FROM SOURCE 2 TO RECORD 1 
*SOURCE FILE: 19Y08M21
013143  19Y08M21                         A2    C        19:14:18:22 19:14:18:22 02:15:18:04 02:15:18:04 
013143  19Y08M21                         A2    D    002 19:19:45:05 19:19:45:07 02:15:18:04 02:15:18:06 
*FROM CLIP NAME:  95K2/02 
*TO CLIP NAME:  95K2/03 
*A2 VOL =  +6.0 DB  PAN L100 
*PATCH 19Y08M21:  FROM SOURCE 7 TO RECORD 2 
*PATCH 19Y08M21:  FROM SOURCE 7 TO RECORD 2 
*SOURCE FILE: 19Y08M21
013144  19Y08M21                         A3    C        19:14:18:22 19:14:18:22 02:15:18:04 02:15:18:04 
013144  19Y08M21                         A3    D    002 19:19:45:05 19:19:45:07 02:15:18:04 02:15:18:06 
*FROM CLIP NAME:  95K2/02 
*TO CLIP NAME:  95K2/03 
*A3 VOL =  +7.7 DB  PAN R100 
*PATCH 19Y08M21:  FROM SOURCE 4 TO RECORD 3 
*PATCH 19Y08M21:  FROM SOURCE 4 TO RECORD 3 
*SOURCE FILE: 19Y08M21
013145  19Y08M21                         A     C        19:19:45:07 19:19:50:20 02:15:18:06 02:15:23:19 
*FROM CLIP NAME:  95K2/03 
*A1 VOL =  +7.3 DB  PAN R100 
*PATCH 19Y08M21:  FROM SOURCE 2 TO RECORD 1 
*SOURCE FILE: 19Y08M21
013146  19Y08M21                         A2    C        19:19:45:07 19:19:50:20 02:15:18:06 02:15:23:19 
*FROM CLIP NAME:  95K2/03 
*A2 VOL =  +6.0 DB  PAN L100 
*PATCH 19Y08M21:  FROM SOURCE 7 TO RECORD 2 
*SOURCE FILE: 19Y08M21
013147  19Y08M21                         A3    C        19:19:45:07 19:19:50:20 02:15:18:06 02:15:23:19 
*FROM CLIP NAME:  95K2/03 
*A3 VOL =  +7.7 DB  PAN R100 
*PATCH 19Y08M21:  FROM SOURCE 4 TO RECORD 3 
*SOURCE FILE: 19Y08M21
013148  19Y08M21                         A     C        19:19:50:20 19:19:50:20 02:15:23:19 02:15:23:19 
013148  19Y08M21                         A     D    002 19:03:47:04 19:03:47:06 02:15:23:19 02:15:23:21 
*FROM CLIP NAME:  95K2/03 
*TO CLIP NAME:  95K1/03 
*A1 VOL =  +7.3 DB  PAN R100 
*PATCH 19Y08M21:  FROM SOURCE 2 TO RECORD 1 
*PATCH 19Y08M21:  FROM SOURCE 2 TO RECORD 1 
*SOURCE FILE: 19Y08M21
013149  19Y08M21                         A2    C        19:19:50:20 19:19:50:20 02:15:23:19 02:15:23:19 
013149  19Y08M21                         A2    D    002 19:03:47:04 19:03:47:06 02:15:23:19 02:15:23:21 
*FROM CLIP NAME:  95K2/03 
*TO CLIP NAME:  95K1/03 
*A2 VOL =  +6.0 DB  PAN L100 
*PATCH 19Y08M21:  FROM SOURCE 7 TO RECORD 2 
*PATCH 19Y08M21:  FROM SOURCE 7 TO RECORD 2 
*SOURCE FILE: 19Y08M21
013150  19Y08M21                         A3    C        19:19:50:20 19:19:50:20 02:15:23:19 02:15:23:19 
013150  19Y08M21                         A3    D    002 19:03:47:04 19:03:47:06 02:15:23:19 02:15:23:21 
*FROM CLIP NAME:  95K2/03 
*TO CLIP NAME:  95K1/03 
*A3 VOL =  +7.7 DB  PAN R100 
*PATCH 19Y08M21:  FROM SOURCE 4 TO RECORD 3 
*PATCH 19Y08M21:  FROM SOURCE 4 TO RECORD 3 
*SOURCE FILE: 19Y08M21
013151  MSMMMOB.69                       V     C        19:03:47:07 19:03:49:21 02:15:23:20 02:15:26:09 
M2      MSMMMOB.69                                025.0 19:03:47:07 
*FROM CLIP NAME:  A095C003_190821_R32C 
*SOURCE FILE: MSMMMOB.69
013152  BL                               V     C        00:00:00:00 00:00:18:09 02:15:23:20 02:15:42:04 
*SOURCE FILE: (NULL)
013153  19Y08M21                         A     C        19:03:47:06 19:03:49:18 02:15:23:21 02:15:26:08 
*FROM CLIP NAME:  95K1/03 
*PATCH 19Y08M21:  FROM SOURCE 2 TO RECORD 1 
*SOURCE FILE: 19Y08M21
013154  19Y08M21                         A2    C        19:03:47:06 19:03:49:18 02:15:23:21 02:15:26:08 
*FROM CLIP NAME:  95K1/03 
*PATCH 19Y08M21:  FROM SOURCE 7 TO RECORD 2 
*SOURCE FILE: 19Y08M21
013155  19Y08M21                         A3    C        19:03:47:06 19:03:49:18 02:15:23:21 02:15:26:08 
*FROM CLIP NAME:  95K1/03 
*PATCH 19Y08M21:  FROM SOURCE 4 TO RECORD 3 
*SOURCE FILE: 19Y08M21
013156  BESPECHNO_AMEDIA_2_MUSIC_2ND_VER A12   C        01:00:42:08 01:00:53:13 02:15:24:15 02:15:35:20 
*FROM CLIP NAME:  BESPECHNO AMEDIA 2 MUSIC 2ND VERSION 3.WAV 
*A12 VOL = -15.0 DB  PAN L100 
*PATCH BESPECHNO_AMEDIA_2_MUSIC_2ND_VER:  FROM SOURCE 2 TO RECORD 12 
*SOURCE FILE: BESPECHNO AMEDIA 2 MUSIC 2ND VERSION 3.WAV
013157  BESPECHNO_AMEDIA_2_MUSIC_2ND_VER A13   C        01:00:42:08 01:00:53:13 02:15:24:15 02:15:35:20 
*FROM CLIP NAME:  BESPECHNO AMEDIA 2 MUSIC 2ND VERSION 3.WAV 
*A13 VOL = -15.0 DB  PAN R100 
*PATCH BESPECHNO_AMEDIA_2_MUSIC_2ND_VER:  FROM SOURCE 1 TO RECORD 13 
*SOURCE FILE: BESPECHNO AMEDIA 2 MUSIC 2ND VERSION 3.WAV
013158  19Y08M21                         A     C        19:03:49:18 19:03:49:18 02:15:26:08 02:15:26:08 
013158  19Y08M21                         A     D    002 19:19:50:20 19:19:50:22 02:15:26:08 02:15:26:10 
*FROM CLIP NAME:  95K1/03 
*TO CLIP NAME:  95K2/03 
*A1 VOL =  +8.5 DB  PAN R100 
*PATCH 19Y08M21:  FROM SOURCE 2 TO RECORD 1 
*PATCH 19Y08M21:  FROM SOURCE 2 TO RECORD 1 
*SOURCE FILE: 19Y08M21
013159  19Y08M21                         A2    C        19:03:49:18 19:03:49:18 02:15:26:08 02:15:26:08 
013159  19Y08M21                         A2    D    002 19:19:50:20 19:19:50:22 02:15:26:08 02:15:26:10 
*FROM CLIP NAME:  95K1/03 
*TO CLIP NAME:  95K2/03 
*PATCH 19Y08M21:  FROM SOURCE 7 TO RECORD 2 
*PATCH 19Y08M21:  FROM SOURCE 7 TO RECORD 2 
*SOURCE FILE: 19Y08M21
013160  19Y08M21                         A3    C        19:03:49:18 19:03:49:18 02:15:26:08 02:15:26:08 
013160  19Y08M21                         A3    D    002 19:19:50:20 19:19:50:22 02:15:26:08 02:15:26:10 
*FROM CLIP NAME:  95K1/03 
*TO CLIP NAME:  95K2/03 
*A3 VOL =  +9.0 DB  PAN R100 
*PATCH 19Y08M21:  FROM SOURCE 4 TO RECORD 3 
*PATCH 19Y08M21:  FROM SOURCE 4 TO RECORD 3 
*SOURCE FILE: 19Y08M21
013161  MSMMMOB.41                       V     C        19:19:50:23 19:19:53:22 02:15:26:09 02:15:29:08 
M2      MSMMMOB.41                                025.0 19:19:50:23 
*FROM CLIP NAME:  A095C007_190821_R32C 
*SOURCE FILE: MSMMMOB.41
013162  19Y08M21                         A     C        19:19:50:22 19:19:53:19 02:15:26:10 02:15:29:07 
*FROM CLIP NAME:  95K2/03 
*A1 VOL =  +8.5 DB  PAN R100 
*PATCH 19Y08M21:  FROM SOURCE 2 TO RECORD 1 
*SOURCE FILE: 19Y08M21
013163  19Y08M21                         A2    C        19:19:50:22 19:19:53:19 02:15:26:10 02:15:29:07 
*FROM CLIP NAME:  95K2/03 
*PATCH 19Y08M21:  FROM SOURCE 7 TO RECORD 2 
*SOURCE FILE: 19Y08M21
013164  19Y08M21                         A3    C        19:19:50:22 19:19:53:19 02:15:26:10 02:15:29:07 
*FROM CLIP NAME:  95K2/03 
*A3 VOL =  +9.0 DB  PAN R100 
*PATCH 19Y08M21:  FROM SOURCE 4 TO RECORD 3 
*SOURCE FILE: 19Y08M21
013165  19Y08M21                         A     C        19:19:53:19 19:19:53:19 02:15:29:07 02:15:29:07 
013165  19Y08M21                         A     D    002 19:03:50:10 19:03:50:12 02:15:29:07 02:15:29:09 
*FROM CLIP NAME:  95K2/03 
*TO CLIP NAME:  95K1/03 
*A1 VOL =  +8.5 DB  PAN R100 
*A1 VOL =  +9.0 DB  PAN R100 
*PATCH 19Y08M21:  FROM SOURCE 2 TO RECORD 1 
*PATCH 19Y08M21:  FROM SOURCE 2 TO RECORD 1 
*SOURCE FILE: 19Y08M21
013166  19Y08M21                         A2    C        19:19:53:19 19:19:53:19 02:15:29:07 02:15:29:07 
013166  19Y08M21                         A2    D    002 19:03:50:10 19:03:50:12 02:15:29:07 02:15:29:09 
*FROM CLIP NAME:  95K2/03 
*TO CLIP NAME:  95K1/03 
*A2 VOL = +10.0 DB  PAN L100 
*PATCH 19Y08M21:  FROM SOURCE 7 TO RECORD 2 
*PATCH 19Y08M21:  FROM SOURCE 4 TO RECORD 2 
*SOURCE FILE: 19Y08M21
013167  19Y08M21                         A3    C        19:19:53:19 19:19:53:19 02:15:29:07 02:15:29:07 
013167  19Y08M21                         A3    D    002 19:03:50:10 19:03:50:12 02:15:29:07 02:15:29:09 
*FROM CLIP NAME:  95K2/03 
*TO CLIP NAME:  95K1/03 
*A3 VOL =  +9.0 DB  PAN R100 
*PATCH 19Y08M21:  FROM SOURCE 4 TO RECORD 3 
*PATCH 19Y08M21:  FROM SOURCE 7 TO RECORD 3 
*SOURCE FILE: 19Y08M21
013168  MSMMMOB.69                       V     C        19:03:50:13 19:03:59:12 02:15:29:08 02:15:38:07 
M2      MSMMMOB.69                                025.0 19:03:50:13 
*FROM CLIP NAME:  A095C003_190821_R32C 
*SOURCE FILE: MSMMMOB.69
013169  19Y08M21                         A3    C        19:03:50:12 19:03:55:23 02:15:29:09 02:15:34:20 
*FROM CLIP NAME:  95K1/03 
*PATCH 19Y08M21:  FROM SOURCE 7 TO RECORD 3 
*SOURCE FILE: 19Y08M21
013170  19Y08M21                         A     C        19:03:50:12 19:03:56:08 02:15:29:09 02:15:35:05 
*FROM CLIP NAME:  95K1/03 
*A1 VOL =  +9.0 DB  PAN R100 
*PATCH 19Y08M21:  FROM SOURCE 2 TO RECORD 1 
*SOURCE FILE: 19Y08M21
013171  19Y08M21                         A2    C        19:03:50:12 19:03:56:08 02:15:29:09 02:15:35:05 
*FROM CLIP NAME:  95K1/03 
*A2 VOL = +10.0 DB  PAN L100 
*PATCH 19Y08M21:  FROM SOURCE 4 TO RECORD 2 
*SOURCE FILE: 19Y08M21
013172  19Y08M21                         A     C        19:03:56:08 19:03:56:08 02:15:35:05 02:15:35:05 
013172  BL                               A     D    065 00:00:00:00 00:00:02:15 02:15:35:05 02:15:37:20 
*FROM CLIP NAME:  95K1/03 
*A1 VOL =  +9.0 DB  PAN R100 
*PATCH 19Y08M21:  FROM SOURCE 2 TO RECORD 1 
*SOURCE FILE: 19Y08M21
013173  19Y08M21                         A2    C        19:03:56:08 19:03:56:08 02:15:35:05 02:15:35:05 
013173  BL                               A2    D    065 00:00:00:00 00:00:02:15 02:15:35:05 02:15:37:20 
*FROM CLIP NAME:  95K1/03 
*A2 VOL = +10.0 DB  PAN L100 
*PATCH 19Y08M21:  FROM SOURCE 4 TO RECORD 2 
*SOURCE FILE: 19Y08M21
013174  BESPECHNO_AMEDIA_2_MUSIC_2ND_VER A12   C        01:00:53:13 01:00:53:13 02:15:35:20 02:15:35:20 
013174  BESPECHNO_AMEDIA_2_MUSIC_2ND_VER A12   D    075 01:00:53:13 01:00:56:13 02:15:35:20 02:15:38:20 
*FROM CLIP NAME:  BESPECHNO AMEDIA 2 MUSIC 2ND VERSION 3.WAV 
*TO CLIP NAME:  BESPECHNO AMEDIA 2 MUSIC 2ND VERSION 3.WAV 
*A12 VOL = -15.0 DB  PAN L100 
*A12 VOL =  -9.0 DB  PAN L100 
*PATCH BESPECHNO_AMEDIA_2_MUSIC_2ND_VER:  FROM SOURCE 2 TO RECORD 12 
*PATCH BESPECHNO_AMEDIA_2_MUSIC_2ND_VER:  FROM SOURCE 2 TO RECORD 12 
*SOURCE FILE: BESPECHNO AMEDIA 2 MUSIC 2ND VERSION 3.WAV
013175  BESPECHNO_AMEDIA_2_MUSIC_2ND_VER A13   C        01:00:53:13 01:00:53:13 02:15:35:20 02:15:35:20 
013175  BESPECHNO_AMEDIA_2_MUSIC_2ND_VER A13   D    075 01:00:53:13 01:00:56:13 02:15:35:20 02:15:38:20 
*FROM CLIP NAME:  BESPECHNO AMEDIA 2 MUSIC 2ND VERSION 3.WAV 
*TO CLIP NAME:  BESPECHNO AMEDIA 2 MUSIC 2ND VERSION 3.WAV 
*A13 VOL = -15.0 DB  PAN R100 
*A13 VOL =  -9.0 DB  PAN R100 
*PATCH BESPECHNO_AMEDIA_2_MUSIC_2ND_VER:  FROM SOURCE 1 TO RECORD 13 
*PATCH BESPECHNO_AMEDIA_2_MUSIC_2ND_VER:  FROM SOURCE 1 TO RECORD 13 
*SOURCE FILE: BESPECHNO AMEDIA 2 MUSIC 2ND VERSION 3.WAV
013176  MSMMMOB.75                       V     C        19:14:29:16 19:14:31:11 02:15:38:07 02:15:40:02 
M2      MSMMMOB.75                                025.0 19:14:29:16 
*FROM CLIP NAME:  A095C006_190821_R32C 
*SOURCE FILE: MSMMMOB.75
013177  BESPECHNO_AMEDIA_2_MUSIC_2ND_VER A12   C        01:00:56:13 01:01:44:22 02:15:38:20 02:16:27:04 
*FROM CLIP NAME:  BESPECHNO AMEDIA 2 MUSIC 2ND VERSION 3.WAV 
*A12 VOL =  -9.0 DB  PAN L100 
*PATCH BESPECHNO_AMEDIA_2_MUSIC_2ND_VER:  FROM SOURCE 2 TO RECORD 12 
*SOURCE FILE: BESPECHNO AMEDIA 2 MUSIC 2ND VERSION 3.WAV
013178  BESPECHNO_AMEDIA_2_MUSIC_2ND_VER A13   C        01:00:56:13 01:01:44:22 02:15:38:20 02:16:27:04 
*FROM CLIP NAME:  BESPECHNO AMEDIA 2 MUSIC 2ND VERSION 3.WAV 
*A13 VOL =  -9.0 DB  PAN R100 
*PATCH BESPECHNO_AMEDIA_2_MUSIC_2ND_VER:  FROM SOURCE 1 TO RECORD 13 
*SOURCE FILE: BESPECHNO AMEDIA 2 MUSIC 2ND VERSION 3.WAV
013179  MSMMMOB.38                       V     C        19:40:34:01 19:40:36:03 02:15:40:02 02:15:42:04 
M2      MSMMMOB.38                                025.0 19:40:34:01 
*FROM CLIP NAME:  A096C001_190821_R32C 
*SOURCE FILE: MSMMMOB.38
013182  BL                               V     C        00:00:00:00 00:00:02:07 02:15:42:04 02:15:44:11 
*SOURCE FILE: (NULL)
013180  MSMMMOB.63                       V     C        19:46:08:10 19:46:10:17 02:15:42:04 02:15:44:11 
M2      MSMMMOB.63                                025.0 19:46:08:10 
*FROM CLIP NAME:  M120_C001_20190821_R 
*SOURCE FILE: MSMMMOB.63
013181  GLDR-BAL-030_V01                 V     C        00:00:00:00 00:00:02:07 02:15:42:04 02:15:44:11 
*FROM CLIP NAME:  GLDR-BAL-030_V01 
*SOURCE FILE: GLDR-BAL-030_V01
013184  MSMMMOB.19                       V     C        20:35:23:19 20:35:30:03 02:15:44:11 02:15:50:20 
*FROM CLIP NAME:  M097_C044_20190720_R 
*SOURCE FILE: MSMMMOB.19
013183  BL                               V     C        00:00:00:00 00:00:06:09 02:15:44:11 02:15:50:20 
*SOURCE FILE: (NULL)
013185  BL                               V     C        00:00:00:00 00:00:10:04 02:15:44:11 02:15:54:15 
*SOURCE FILE: (NULL)
013186  MSMMMOB.69                       V     C        19:03:59:10 19:04:03:05 02:15:50:20 02:15:54:15 
M2      MSMMMOB.69                                025.0 19:03:59:10 
*FROM CLIP NAME:  A095C003_190821_R32C 
*SOURCE FILE: MSMMMOB.69
013187  BL                               V     C        00:00:00:00 00:00:03:21 02:15:50:20 02:15:54:16 
*SOURCE FILE: (NULL)
013188  MSMMMOB.19                       V     C        20:35:34:07 20:35:38:24 02:15:54:15 02:15:59:07 
M2      MSMMMOB.19                                025.0 20:35:34:07 
*FROM CLIP NAME:  M097_C044_20190720_R 
*SOURCE FILE: MSMMMOB.19
013189  GLDR-BAL-050_V03                 V     C        00:00:00:00 00:00:05:00 02:15:54:15 02:15:59:15 
*FROM CLIP NAME:  GLDR-BAL-050_V03 
*SOURCE FILE: GLDR-BAL-050_V03
013190  BL                               V     C        00:00:00:00 00:00:04:16 02:15:54:16 02:15:59:07 
*SOURCE FILE: (NULL)
013191  MSMMMOB.63                       V     C        19:46:03:01 19:46:03:02 02:15:59:07 02:16:03:17 
M2      MSMMMOB.63                               -025.0 19:46:03:01 
*FROM CLIP NAME:  M120_C001_20190821_R 
*SOURCE FILE: MSMMMOB.63
013192  BL                               V     C        00:00:00:00 00:00:04:11 02:15:59:07 02:16:03:18 
*SOURCE FILE: (NULL)
013193  BL                               V     C        00:00:00:00 00:00:07:15 02:15:59:15 02:16:07:05 
*SOURCE FILE: (NULL)
013194  MSMMMOB.19                       V     C        19:47:33:23 19:47:37:11 02:16:03:17 02:16:07:05 
M2      MSMMMOB.19                                025.0 19:47:33:23 
*FROM CLIP NAME:  M120_C002_20190821_R 
*SOURCE FILE: MSMMMOB.19
013195  BL                               V     C        00:00:00:00 00:00:03:12 02:16:03:18 02:16:07:05 
*SOURCE FILE: (NULL)
013196  BL                               A     C        00:00:00:00 00:00:00:00 02:16:07:05 02:16:07:05 
013196  19Y08M21                         A     D    036 19:04:11:21 19:04:13:07 02:16:07:05 02:16:08:16 
*TO CLIP NAME:  95K1/03 
*A1 VOL =  +6.0 DB  PAN R100 
*PATCH 19Y08M21:  FROM SOURCE 2 TO RECORD 1 
*SOURCE FILE: (NULL)
013197  BL                               A2    C        00:00:00:00 00:00:00:00 02:16:07:05 02:16:07:05 
013197  19Y08M21                         A2    D    036 19:04:11:21 19:04:13:07 02:16:07:05 02:16:08:16 
*TO CLIP NAME:  95K1/03 
*PATCH 19Y08M21:  FROM SOURCE 7 TO RECORD 2 
*SOURCE FILE: (NULL)
013198  BL                               A3    C        00:00:00:00 00:00:00:00 02:16:07:05 02:16:07:05 
013198  19Y08M21                         A3    D    036 19:04:11:21 19:04:13:07 02:16:07:05 02:16:08:16 
*TO CLIP NAME:  95K1/03 
*A3 VOL =  +6.7 DB  PAN R100 
*PATCH 19Y08M21:  FROM SOURCE 4 TO RECORD 3 
*SOURCE FILE: (NULL)
013200  GLDR-BAL-080_V01                 V     C        00:00:00:00 00:00:02:21 02:16:07:05 02:16:10:01 
*FROM CLIP NAME:  GLDR-BAL-080_V01 
*SOURCE FILE: GLDR-BAL-080_V01
013199  MSMMMOB.69                       V     C        19:04:11:23 19:04:14:19 02:16:07:05 02:16:10:01 
M2      MSMMMOB.69                                025.0 19:04:11:23 
*FROM CLIP NAME:  A095C003_190821_R32C 
*SOURCE FILE: MSMMMOB.69
013201  475506__O-CIZ__AMBIENT-LIGHT-WIN A7    C        08:04:27:01 08:04:29:22 02:16:07:05 02:16:10:01 
*FROM CLIP NAME:  475506__O-CIZ__AMBIENT-LIGHT-WIND.WAV 
*PATCH 475506__O-CIZ__AMBIENT-LIGHT-WIN:  FROM SOURCE 1 TO RECORD 7 
*SOURCE FILE: 475506__O-CIZ__AMBIENT-LIGHT-WIND.WAV
013202  475506__O-CIZ__AMBIENT-LIGHT-WIN A8    C        08:04:27:01 08:04:29:22 02:16:07:05 02:16:10:01 
*FROM CLIP NAME:  475506__O-CIZ__AMBIENT-LIGHT-WIND.WAV 
*PATCH 475506__O-CIZ__AMBIENT-LIGHT-WIN:  FROM SOURCE 2 TO RECORD 8 
*SOURCE FILE: 475506__O-CIZ__AMBIENT-LIGHT-WIND.WAV
013203  BL                               V     C        00:00:00:00 00:00:20:15 02:16:07:05 02:16:27:20 
*SOURCE FILE: (NULL)
013204  19Y08M21                         A     C        19:04:13:07 19:04:14:17 02:16:08:16 02:16:10:01 
*FROM CLIP NAME:  95K1/03 
*A1 VOL =  +6.0 DB  PAN R100 
*PATCH 19Y08M21:  FROM SOURCE 2 TO RECORD 1 
*SOURCE FILE: 19Y08M21
013205  19Y08M21                         A2    C        19:04:13:07 19:04:14:17 02:16:08:16 02:16:10:01 
*FROM CLIP NAME:  95K1/03 
*PATCH 19Y08M21:  FROM SOURCE 7 TO RECORD 2 
*SOURCE FILE: 19Y08M21
013206  19Y08M21                         A3    C        19:04:13:07 19:04:14:17 02:16:08:16 02:16:10:01 
*FROM CLIP NAME:  95K1/03 
*A3 VOL =  +6.7 DB  PAN R100 
*PATCH 19Y08M21:  FROM SOURCE 4 TO RECORD 3 
*SOURCE FILE: 19Y08M21
013207  19Y08M21                         A     C        19:20:06:23 19:20:12:11 02:16:10:01 02:16:15:14 
*FROM CLIP NAME:  95K2/03 
*PATCH 19Y08M21:  FROM SOURCE 2 TO RECORD 1 
*SOURCE FILE: 19Y08M21
013208  19Y08M21                         A2    C        19:20:06:23 19:20:12:11 02:16:10:01 02:16:15:14 
*FROM CLIP NAME:  95K2/03 
*PATCH 19Y08M21:  FROM SOURCE 7 TO RECORD 2 
*SOURCE FILE: 19Y08M21
013209  19Y08M21                         A3    C        19:20:06:23 19:20:12:11 02:16:10:01 02:16:15:14 
*FROM CLIP NAME:  95K2/03 
*A3 VOL =  +7.0 DB  PAN R100 
*PATCH 19Y08M21:  FROM SOURCE 4 TO RECORD 3 
*SOURCE FILE: 19Y08M21
013210  MSMMMOB.41                       V     C        19:20:07:00 19:20:13:23 02:16:10:01 02:16:16:24 
M2      MSMMMOB.41                                025.0 19:20:07:00 
*FROM CLIP NAME:  A095C007_190821_R32C 
*SOURCE FILE: MSMMMOB.41
013211  GLDR-BAL-090_V02                 V     C        00:00:00:00 00:00:06:23 02:16:10:01 02:16:16:24 
*FROM CLIP NAME:  GLDR-BAL-090_V02 
*SOURCE FILE: GLDR-BAL-090_V02
013212  475506__O-CIZ__AMBIENT-LIGHT-WIN A7    C        08:04:34:13 08:04:57:00 02:16:10:01 02:16:32:13 
*FROM CLIP NAME:  475506__O-CIZ__AMBIENT-LIGHT-WIND.WAV 
*PATCH 475506__O-CIZ__AMBIENT-LIGHT-WIN:  FROM SOURCE 1 TO RECORD 7 
*SOURCE FILE: 475506__O-CIZ__AMBIENT-LIGHT-WIND.WAV
013213  475506__O-CIZ__AMBIENT-LIGHT-WIN A8    C        08:04:34:13 08:04:57:00 02:16:10:01 02:16:32:13 
*FROM CLIP NAME:  475506__O-CIZ__AMBIENT-LIGHT-WIND.WAV 
*PATCH 475506__O-CIZ__AMBIENT-LIGHT-WIN:  FROM SOURCE 2 TO RECORD 8 
*SOURCE FILE: 475506__O-CIZ__AMBIENT-LIGHT-WIND.WAV
013214  19Y08M21                         A4    C        19:04:23:18 19:04:25:00 02:16:15:02 02:16:16:09 
*FROM CLIP NAME:  95K1/03 
*SOURCE FILE: 19Y08M21
013215  19Y08M21                         A5    C        19:04:23:18 19:04:25:00 02:16:15:02 02:16:16:09 
*FROM CLIP NAME:  95K1/03 
*PATCH 19Y08M21:  FROM SOURCE 7 TO RECORD 5 
*SOURCE FILE: 19Y08M21
013216  19Y08M21                         A     C        19:20:12:11 19:20:12:20 02:16:15:14 02:16:15:23 
*FROM CLIP NAME:  95K2/03 
*PATCH 19Y08M21:  FROM SOURCE 2 TO RECORD 1 
*SOURCE FILE: 19Y08M21
013217  19Y08M21                         A2    C        19:20:12:11 19:20:12:20 02:16:15:14 02:16:15:23 
*FROM CLIP NAME:  95K2/03 
*PATCH 19Y08M21:  FROM SOURCE 7 TO RECORD 2 
*SOURCE FILE: 19Y08M21
013218  19Y08M21                         A3    C        19:20:12:11 19:20:12:20 02:16:15:14 02:16:15:23 
*FROM CLIP NAME:  95K2/03 
*PATCH 19Y08M21:  FROM SOURCE 4 TO RECORD 3 
*SOURCE FILE: 19Y08M21
013219  19Y08M21                         A     C        19:20:13:06 19:20:13:21 02:16:16:09 02:16:16:24 
*FROM CLIP NAME:  95K2/03 
*PATCH 19Y08M21:  FROM SOURCE 2 TO RECORD 1 
*SOURCE FILE: 19Y08M21
013220  19Y08M21                         A2    C        19:20:13:06 19:20:13:21 02:16:16:09 02:16:16:24 
*FROM CLIP NAME:  95K2/03 
*PATCH 19Y08M21:  FROM SOURCE 7 TO RECORD 2 
*SOURCE FILE: 19Y08M21
013221  19Y08M21                         A3    C        19:20:13:06 19:20:13:21 02:16:16:09 02:16:16:24 
*FROM CLIP NAME:  95K2/03 
*PATCH 19Y08M21:  FROM SOURCE 4 TO RECORD 3 
*SOURCE FILE: 19Y08M21
013222  MSMMMOB.69                       V     C        19:04:43:01 19:04:46:10 02:16:16:24 02:16:20:08 
M2      MSMMMOB.69                                025.0 19:04:43:01 
*FROM CLIP NAME:  A095C003_190821_R32C 
*SOURCE FILE: MSMMMOB.69
013223  GLDR-BAL-100_V01                 V     C        00:00:00:00 00:00:03:09 02:16:16:24 02:16:20:08 
*FROM CLIP NAME:  GLDR-BAL-100_V01 
*SOURCE FILE: GLDR-BAL-100_V01
013224  19Y08M21                         A     C        19:04:42:24 19:04:46:24 02:16:16:24 02:16:20:24 
*FROM CLIP NAME:  95K1/03 
*PATCH 19Y08M21:  FROM SOURCE 2 TO RECORD 1 
*SOURCE FILE: 19Y08M21
013225  19Y08M21                         A2    C        19:04:42:24 19:04:46:24 02:16:16:24 02:16:20:24 
*FROM CLIP NAME:  95K1/03 
*PATCH 19Y08M21:  FROM SOURCE 7 TO RECORD 2 
*SOURCE FILE: 19Y08M21
013226  19Y08M21                         A3    C        19:04:42:24 19:04:46:24 02:16:16:24 02:16:20:24 
*FROM CLIP NAME:  95K1/03 
*PATCH 19Y08M21:  FROM SOURCE 4 TO RECORD 3 
*SOURCE FILE: 19Y08M21
013228  MSMMMOB.41                       V     C        19:20:18:19 19:20:21:11 02:16:20:08 02:16:23:00 
M2      MSMMMOB.41                                025.0 19:20:18:19 
*FROM CLIP NAME:  A095C007_190821_R32C 
*SOURCE FILE: MSMMMOB.41
013227  BL                               V     C        00:00:00:00 00:00:02:17 02:16:20:08 02:16:23:00 
*SOURCE FILE: (NULL)
013229  19Y08M21                         A     C        19:20:19:08 19:20:21:00 02:16:20:24 02:16:22:16 
*FROM CLIP NAME:  95K2/03 
*A1 VOL =  +7.7 DB  PAN R100 
*PATCH 19Y08M21:  FROM SOURCE 2 TO RECORD 1 
*SOURCE FILE: 19Y08M21
013230  19Y08M21                         A2    C        19:20:19:08 19:20:21:00 02:16:20:24 02:16:22:16 
*FROM CLIP NAME:  95K2/03 
*PATCH 19Y08M21:  FROM SOURCE 7 TO RECORD 2 
*SOURCE FILE: 19Y08M21
013231  19Y08M21                         A3    C        19:20:19:08 19:20:21:00 02:16:20:24 02:16:22:16 
*FROM CLIP NAME:  95K2/03 
*A3 VOL =  +7.0 DB  PAN R100 
*PATCH 19Y08M21:  FROM SOURCE 4 TO RECORD 3 
*SOURCE FILE: 19Y08M21
013232  19Y08M21                         A     C        19:04:49:12 19:04:54:16 02:16:22:16 02:16:27:20 
*FROM CLIP NAME:  95K1/03 
*PATCH 19Y08M21:  FROM SOURCE 2 TO RECORD 1 
*SOURCE FILE: 19Y08M21
013233  19Y08M21                         A2    C        19:04:49:12 19:04:54:16 02:16:22:16 02:16:27:20 
*FROM CLIP NAME:  95K1/03 
*PATCH 19Y08M21:  FROM SOURCE 7 TO RECORD 2 
*SOURCE FILE: 19Y08M21
013234  19Y08M21                         A3    C        19:04:49:12 19:04:54:16 02:16:22:16 02:16:27:20 
*FROM CLIP NAME:  95K1/03 
*PATCH 19Y08M21:  FROM SOURCE 4 TO RECORD 3 
*SOURCE FILE: 19Y08M21
013235  GLDR-BAL-120_V01                 V     C        00:00:00:00 00:00:04:20 02:16:23:00 02:16:27:20 
*FROM CLIP NAME:  GLDR-BAL-120_V01 
*SOURCE FILE: GLDR-BAL-120_V01
013236  MSMMMOB.69                       V     C        19:04:49:23 19:04:54:18 02:16:23:00 02:16:27:20 
M2      MSMMMOB.69                                025.0 19:04:49:23 
*FROM CLIP NAME:  A095C003_190821_R32C 
*SOURCE FILE: MSMMMOB.69
013237  19Y08M21                         A     C        19:42:56:15 19:42:57:04 02:16:27:20 02:16:28:09 
*FROM CLIP NAME:  95K4/1 
*PATCH 19Y08M21:  FROM SOURCE 2 TO RECORD 1 
*SOURCE FILE: 19Y08M21
013238  19Y08M21                         A2    C        19:42:56:15 19:42:57:04 02:16:27:20 02:16:28:09 
*FROM CLIP NAME:  95K4/1 
*PATCH 19Y08M21:  FROM SOURCE 7 TO RECORD 2 
*SOURCE FILE: 19Y08M21
013239  19Y08M21                         A3    C        19:42:56:15 19:42:57:04 02:16:27:20 02:16:28:09 
*FROM CLIP NAME:  95K4/1 
*PATCH 19Y08M21:  FROM SOURCE 4 TO RECORD 3 
*SOURCE FILE: 19Y08M21
013240  GLDR-BAL-130_TEST_02             V     C        00:00:00:00 00:00:02:05 02:16:27:20 02:16:30:00 
*FROM CLIP NAME:  GLDR-BAL-130_TEST_02 
*SOURCE FILE: GLDR-BAL-130_TEST_02
013242                                   V     C        14:58:24:21 14:58:27:01 02:16:27:20 02:16:30:00 
M2                                                025.0 14:58:24:21 
*FROM CLIP NAME:  M118_C018_20190821_R 
*SOURCE FILE:
013243  BL                               V     C        00:00:00:00 00:00:02:05 02:16:27:20 02:16:30:00 
*SOURCE FILE: (NULL)
013241  GLDR-BAL-130_V01                 V     C        00:00:00:00 00:00:02:05 02:16:27:20 02:16:30:00 
*FROM CLIP NAME:  GLDR-BAL-130_V01 
*SOURCE FILE: GLDR-BAL-130_V01
013244  19Y08M21                         A     C        19:42:54:04 19:42:55:20 02:16:28:09 02:16:30:00 
*FROM CLIP NAME:  95K4/1 
*PATCH 19Y08M21:  FROM SOURCE 2 TO RECORD 1 
*SOURCE FILE: 19Y08M21
013245  19Y08M21                         A2    C        19:42:54:04 19:42:55:20 02:16:28:09 02:16:30:00 
*FROM CLIP NAME:  95K4/1 
*PATCH 19Y08M21:  FROM SOURCE 7 TO RECORD 2 
*SOURCE FILE: 19Y08M21
013246  19Y08M21                         A3    C        19:42:54:04 19:42:55:20 02:16:28:09 02:16:30:00 
*FROM CLIP NAME:  95K4/1 
*PATCH 19Y08M21:  FROM SOURCE 4 TO RECORD 3 
*SOURCE FILE: 19Y08M21
013248  MSMMMOB.69                       V     C        19:04:54:22 19:04:57:10 02:16:30:00 02:16:32:13 
M2      MSMMMOB.69                                025.0 19:04:54:22 
*FROM CLIP NAME:  A095C003_190821_R32C 
*SOURCE FILE: MSMMMOB.69
013247  GLDR-BAL-140_V02                 V     C        00:00:00:00 00:00:02:13 02:16:30:00 02:16:32:13 
*FROM CLIP NAME:  GLDR-BAL-140_V02 
*SOURCE FILE: GLDR-BAL-140_V02
013249  19Y08M21                         A     C        19:04:54:20 19:04:57:08 02:16:30:00 02:16:32:13 
*FROM CLIP NAME:  95K1/03 
*PATCH 19Y08M21:  FROM SOURCE 2 TO RECORD 1 
*SOURCE FILE: 19Y08M21
013250  19Y08M21                         A2    C        19:04:54:20 19:04:57:08 02:16:30:00 02:16:32:13 
*FROM CLIP NAME:  95K1/03 
*PATCH 19Y08M21:  FROM SOURCE 7 TO RECORD 2 
*SOURCE FILE: 19Y08M21
013251  19Y08M21                         A3    C        19:04:54:20 19:04:57:08 02:16:30:00 02:16:32:13 
*FROM CLIP NAME:  95K1/03 
*PATCH 19Y08M21:  FROM SOURCE 4 TO RECORD 3 
*SOURCE FILE: 19Y08M21
013252  BL                               V     C        00:00:00:00 00:00:06:17 02:16:30:00 02:16:36:17 
*SOURCE FILE: (NULL)
013253  BL                               V     C        00:00:00:00 00:00:12:17 02:16:30:00 02:16:42:17 
*SOURCE FILE: (NULL)
013254  19Y08M14                         A     C        18:57:25:17 18:57:27:00 02:16:32:13 02:16:33:21 
*FROM CLIP NAME:  96-98K4/01.SYNC.01 
*SOURCE FILE: 19Y08M14
013255  19Y08M14                         A2    C        18:57:25:17 18:57:27:00 02:16:32:13 02:16:33:21 
*FROM CLIP NAME:  96-98K4/01.SYNC.01 
*SOURCE FILE: 19Y08M14
013256  19Y08M14                         A3    C        18:57:25:17 18:57:27:00 02:16:32:13 02:16:33:21 
*FROM CLIP NAME:  96-98K4/01.SYNC.01 
*SOURCE FILE: 19Y08M14
013257  19Y08M14                         A4    C        18:57:25:17 18:57:27:00 02:16:32:13 02:16:33:21 
*FROM CLIP NAME:  96-98K4/01.SYNC.01 
*PATCH 19Y08M14:  FROM SOURCE 8 TO RECORD 4 
*SOURCE FILE: 19Y08M14
013258  19Y08M14                         A5    C        18:57:25:17 18:57:27:00 02:16:32:13 02:16:33:21 
*FROM CLIP NAME:  96-98K4/01.SYNC.01 
*SOURCE FILE: 19Y08M14
013259  MSMMMOB.22                       V     C        20:18:37:06 20:18:39:18 02:16:32:13 02:16:35:00 
M2      MSMMMOB.22                                025.0 20:18:37:06 
*FROM CLIP NAME:  A079C005_190814_R32C 
*SOURCE FILE: MSMMMOB.22
013260  19Y08M21                         A12   C        10:46:18:15 10:46:21:02 02:16:32:13 02:16:35:00 
*FROM CLIP NAME:  96AK1/01.SUB.01 
*PATCH 19Y08M21:  FROM SOURCE 1 TO RECORD 12 
*SOURCE FILE: 19Y08M21
013261  BL                               V     C        00:00:00:00 00:00:04:04 02:16:32:13 02:16:36:17 
*SOURCE FILE: (NULL)
013262  19Y08M14                         A     C        18:57:27:00 18:57:27:00 02:16:33:21 02:16:33:21 
013262  19Y08M14                         A     D    002 18:59:35:18 18:59:35:20 02:16:33:21 02:16:33:23 
*FROM CLIP NAME:  96-98K4/01.SYNC.01 
*TO CLIP NAME:  96-98K4/02.SYNC.01 
*SOURCE FILE: 19Y08M14
013263  19Y08M14                         A2    C        18:57:27:00 18:57:27:00 02:16:33:21 02:16:33:21 
013263  19Y08M14                         A2    D    002 18:59:35:18 18:59:35:20 02:16:33:21 02:16:33:23 
*FROM CLIP NAME:  96-98K4/01.SYNC.01 
*TO CLIP NAME:  96-98K4/02.SYNC.01 
*SOURCE FILE: 19Y08M14
013264  19Y08M14                         A3    C        18:57:27:00 18:57:27:00 02:16:33:21 02:16:33:21 
013264  19Y08M14                         A3    D    002 18:59:35:18 18:59:35:20 02:16:33:21 02:16:33:23 
*FROM CLIP NAME:  96-98K4/01.SYNC.01 
*TO CLIP NAME:  96-98K4/02.SYNC.01 
*SOURCE FILE: 19Y08M14
013265  19Y08M14                         A4    C        18:57:27:00 18:57:27:00 02:16:33:21 02:16:33:21 
013265  19Y08M14                         A4    D    002 18:59:35:18 18:59:35:20 02:16:33:21 02:16:33:23 
*FROM CLIP NAME:  96-98K4/01.SYNC.01 
*TO CLIP NAME:  96-98K4/02.SYNC.01 
*PATCH 19Y08M14:  FROM SOURCE 8 TO RECORD 4 
*PATCH 19Y08M14:  FROM SOURCE 8 TO RECORD 4 
*SOURCE FILE: 19Y08M14
013266  19Y08M14                         A5    C        18:57:27:00 18:57:27:00 02:16:33:21 02:16:33:21 
013266  19Y08M14                         A5    D    002 18:59:35:18 18:59:35:20 02:16:33:21 02:16:33:23 
*FROM CLIP NAME:  96-98K4/01.SYNC.01 
*TO CLIP NAME:  96-98K4/02.SYNC.01 
*SOURCE FILE: 19Y08M14
013267  19Y08M14                         A     C        18:59:35:20 18:59:38:14 02:16:33:23 02:16:36:17 
*FROM CLIP NAME:  96-98K4/02.SYNC.01 
*SOURCE FILE: 19Y08M14
013268  19Y08M14                         A2    C        18:59:35:20 18:59:38:14 02:16:33:23 02:16:36:17 
*FROM CLIP NAME:  96-98K4/02.SYNC.01 
*SOURCE FILE: 19Y08M14
013269  19Y08M14                         A3    C        18:59:35:20 18:59:38:14 02:16:33:23 02:16:36:17 
*FROM CLIP NAME:  96-98K4/02.SYNC.01 
*SOURCE FILE: 19Y08M14
013270  19Y08M14                         A4    C        18:59:35:20 18:59:38:14 02:16:33:23 02:16:36:17 
*FROM CLIP NAME:  96-98K4/02.SYNC.01 
*PATCH 19Y08M14:  FROM SOURCE 8 TO RECORD 4 
*SOURCE FILE: 19Y08M14
013271  19Y08M14                         A5    C        18:59:35:20 18:59:38:14 02:16:33:23 02:16:36:17 
*FROM CLIP NAME:  96-98K4/02.SYNC.01 
*SOURCE FILE: 19Y08M14
013272  MSMMMOB.52                       V     C        18:59:36:23 18:59:38:15 02:16:35:00 02:16:36:17 
M2      MSMMMOB.52                                025.0 18:59:36:23 
*FROM CLIP NAME:  B026C012_190814_R481 
*SOURCE FILE: MSMMMOB.52
013273  19Y08M21                         A12   C        10:46:22:04 10:46:31:17 02:16:35:00 02:16:44:13 
*FROM CLIP NAME:  96AK1/01.SUB.01 
*PATCH 19Y08M21:  FROM SOURCE 1 TO RECORD 12 
*SOURCE FILE: 19Y08M21
013274  19Y08M14                         A     C        18:57:25:18 18:57:27:10 02:16:36:17 02:16:38:09 
*FROM CLIP NAME:  96-98K4/01.SYNC.01 
*SOURCE FILE: 19Y08M14
013275  19Y08M14                         A2    C        18:57:25:18 18:57:27:10 02:16:36:17 02:16:38:09 
*FROM CLIP NAME:  96-98K4/01.SYNC.01 
*SOURCE FILE: 19Y08M14
013276  19Y08M14                         A3    C        18:57:25:18 18:57:27:10 02:16:36:17 02:16:38:09 
*FROM CLIP NAME:  96-98K4/01.SYNC.01 
*SOURCE FILE: 19Y08M14
013277  19Y08M14                         A4    C        18:57:25:18 18:57:27:10 02:16:36:17 02:16:38:09 
*FROM CLIP NAME:  96-98K4/01.SYNC.01 
*PATCH 19Y08M14:  FROM SOURCE 8 TO RECORD 4 
*SOURCE FILE: 19Y08M14
013278  19Y08M14                         A5    C        18:57:25:18 18:57:27:10 02:16:36:17 02:16:38:09 
*FROM CLIP NAME:  96-98K4/01.SYNC.01 
*SOURCE FILE: 19Y08M14
013279  BL                               V     C        00:00:00:00 00:00:02:00 02:16:36:17 02:16:38:17 
*SOURCE FILE: (NULL)
013281  GLDR-BAL-150_V01                 V     C        00:00:00:00 00:00:02:04 02:16:36:17 02:16:38:21 
*FROM CLIP NAME:  GLDR-BAL-150_V01 
*SOURCE FILE: GLDR-BAL-150_V01
013280  MSMMMOB.13                       V     C        20:18:38:09 20:18:40:13 02:16:36:17 02:16:38:21 
M2      MSMMMOB.13                                025.0 20:18:38:09 
*FROM CLIP NAME:  B027C005_190814_R481 
*SOURCE FILE: MSMMMOB.13
013282  BONEY_M_-_SUNNY.MP3              A13   C        01:00:15:02 01:00:21:16 02:16:37:17 02:16:44:06 
*FROM CLIP NAME:  BONEY M - SUNNY.MP3 
*A13 VOL = -10.0 DB  PAN L100 
*PATCH BONEY_M_-_SUNNY.MP3:  FROM SOURCE 1 TO RECORD 13 
*SOURCE FILE: BONEY M - SUNNY.MP3
013283  BONEY_M_-_SUNNY.MP3              A14   C        01:00:15:02 01:00:21:16 02:16:37:17 02:16:44:06 
*FROM CLIP NAME:  BONEY M - SUNNY.MP3 
*A14 VOL = -10.0 DB  PAN R100 
*PATCH BONEY_M_-_SUNNY.MP3:  FROM SOURCE 2 TO RECORD 14 
*SOURCE FILE: BONEY M - SUNNY.MP3
013284  19Y08M14                         A     C        19:00:23:06 19:00:25:16 02:16:38:09 02:16:40:19 
*FROM CLIP NAME:  96-98K4/02.SYNC.01 
*SOURCE FILE: 19Y08M14
013285  19Y08M14                         A2    C        19:00:23:06 19:00:25:16 02:16:38:09 02:16:40:19 
*FROM CLIP NAME:  96-98K4/02.SYNC.01 
*SOURCE FILE: 19Y08M14
013286  19Y08M14                         A3    C        19:00:23:06 19:00:25:16 02:16:38:09 02:16:40:19 
*FROM CLIP NAME:  96-98K4/02.SYNC.01 
*SOURCE FILE: 19Y08M14
013287  19Y08M14                         A4    C        19:00:23:06 19:00:25:16 02:16:38:09 02:16:40:19 
*FROM CLIP NAME:  96-98K4/02.SYNC.01 
*PATCH 19Y08M14:  FROM SOURCE 5 TO RECORD 4 
*SOURCE FILE: 19Y08M14
013288  19Y08M14                         A5    C        19:00:23:06 19:00:25:16 02:16:38:09 02:16:40:19 
*FROM CLIP NAME:  96-98K4/02.SYNC.01 
*PATCH 19Y08M14:  FROM SOURCE 8 TO RECORD 5 
*SOURCE FILE: 19Y08M14
013289  BL                               V     C        00:00:00:00 00:00:04:00 02:16:38:17 02:16:42:17 
*SOURCE FILE: (NULL)
013290  MSMMMOB.52                       V     C        19:00:23:19 19:00:24:10 02:16:38:21 02:16:39:12 
M2      MSMMMOB.52                                025.0 19:00:23:19 
*FROM CLIP NAME:  B026C012_190814_R481 
*SOURCE FILE: MSMMMOB.52
013291  BL                               V     C        00:00:00:00 00:00:03:21 02:16:38:21 02:16:42:17 
*SOURCE FILE: (NULL)
013292  MSMMMOB.81                       V     C        12:14:58:20 12:14:59:06 02:16:39:12 02:16:39:23 
M2      MSMMMOB.81                                025.0 12:14:58:20 
*FROM CLIP NAME:  96A_103_98A-3-2 
*SOURCE FILE: MSMMMOB.81
013293  MSMMMOB.47                       V     C        10:46:41:01 10:46:41:21 02:16:39:23 02:16:40:18 
M2      MSMMMOB.47                                025.0 10:46:41:01 
*FROM CLIP NAME:  96A_103_98A-1-2 
*SOURCE FILE: MSMMMOB.47
013294  19Y08M14                         A6    C        18:16:49:08 18:16:50:08 02:16:40:07 02:16:41:07 
*FROM CLIP NAME:  97K2/02.SYNC.01 
*PATCH 19Y08M14:  FROM SOURCE 1 TO RECORD 6 
*SOURCE FILE: 19Y08M14
013295  19Y08M14                         A7    C        18:16:49:08 18:16:50:08 02:16:40:07 02:16:41:07 
*FROM CLIP NAME:  97K2/02.SYNC.01 
*PATCH 19Y08M14:  FROM SOURCE 2 TO RECORD 7 
*SOURCE FILE: 19Y08M14
013296  19Y08M14                         A8    C        18:16:49:08 18:16:50:08 02:16:40:07 02:16:41:07 
*FROM CLIP NAME:  97K2/02.SYNC.01 
*PATCH 19Y08M14:  FROM SOURCE 3 TO RECORD 8 
*SOURCE FILE: 19Y08M14
013297  19Y08M14                         A9    C        18:16:49:08 18:16:50:08 02:16:40:07 02:16:41:07 
*FROM CLIP NAME:  97K2/02.SYNC.01 
*PATCH 19Y08M14:  FROM SOURCE 5 TO RECORD 9 
*SOURCE FILE: 19Y08M14
013298  19Y08M14                         A10   C        18:16:49:08 18:16:50:08 02:16:40:07 02:16:41:07 
*FROM CLIP NAME:  97K2/02.SYNC.01 
*PATCH 19Y08M14:  FROM SOURCE 8 TO RECORD 10 
*SOURCE FILE: 19Y08M14
013299  MSMMMOB.52                       V     C        19:00:24:10 19:00:24:24 02:16:40:18 02:16:41:07 
M2      MSMMMOB.52                                025.0 19:00:24:10 
*FROM CLIP NAME:  B026C012_190814_R481 
*SOURCE FILE: MSMMMOB.52
013300  19Y08M14                         A     C        18:16:41:11 18:16:41:21 02:16:40:19 02:16:41:04 
*FROM CLIP NAME:  97K2/02.SYNC.01 
*SOURCE FILE: 19Y08M14
013301  19Y08M14                         A2    C        18:16:41:11 18:16:41:21 02:16:40:19 02:16:41:04 
*FROM CLIP NAME:  97K2/02.SYNC.01 
*SOURCE FILE: 19Y08M14
013302  19Y08M14                         A3    C        18:16:41:11 18:16:41:21 02:16:40:19 02:16:41:04 
*FROM CLIP NAME:  97K2/02.SYNC.01 
*SOURCE FILE: 19Y08M14
013303  19Y08M14                         A4    C        18:16:41:11 18:16:41:21 02:16:40:19 02:16:41:04 
*FROM CLIP NAME:  97K2/02.SYNC.01 
*PATCH 19Y08M14:  FROM SOURCE 8 TO RECORD 4 
*SOURCE FILE: 19Y08M14
013304  19Y08M14                         A5    C        18:16:41:11 18:16:41:21 02:16:40:19 02:16:41:04 
*FROM CLIP NAME:  97K2/02.SYNC.01 
*SOURCE FILE: 19Y08M14
013305  19Y08M14                         A6    C        18:16:50:19 18:16:51:04 02:16:41:07 02:16:41:17 
*FROM CLIP NAME:  97K2/02.SYNC.01 
*PATCH 19Y08M14:  FROM SOURCE 1 TO RECORD 6 
*SOURCE FILE: 19Y08M14
013306  19Y08M14                         A7    C        18:16:50:19 18:16:51:04 02:16:41:07 02:16:41:17 
*FROM CLIP NAME:  97K2/02.SYNC.01 
*PATCH 19Y08M14:  FROM SOURCE 2 TO RECORD 7 
*SOURCE FILE: 19Y08M14
013307  19Y08M14                         A8    C        18:16:50:19 18:16:51:04 02:16:41:07 02:16:41:17 
*FROM CLIP NAME:  97K2/02.SYNC.01 
*PATCH 19Y08M14:  FROM SOURCE 3 TO RECORD 8 
*SOURCE FILE: 19Y08M14
013308  19Y08M14                         A9    C        18:16:50:19 18:16:51:04 02:16:41:07 02:16:41:17 
*FROM CLIP NAME:  97K2/02.SYNC.01 
*PATCH 19Y08M14:  FROM SOURCE 5 TO RECORD 9 
*SOURCE FILE: 19Y08M14
013309  19Y08M14                         A10   C        18:16:50:19 18:16:51:04 02:16:41:07 02:16:41:17 
*FROM CLIP NAME:  97K2/02.SYNC.01 
*PATCH 19Y08M14:  FROM SOURCE 8 TO RECORD 10 
*SOURCE FILE: 19Y08M14
013310  MSMMMOB.17                       V     C        18:16:51:01 18:16:52:11 02:16:41:07 02:16:42:17 
M2      MSMMMOB.17                                025.0 18:16:51:01 
*FROM CLIP NAME:  B026C008_190814_R481 
*SOURCE FILE: MSMMMOB.17
013311  19Y08M14                         A     C        18:16:52:22 18:16:53:23 02:16:41:16 02:16:42:17 
*FROM CLIP NAME:  97K2/02.SYNC.01 
*SOURCE FILE: 19Y08M14
013312  19Y08M14                         A2    C        18:16:52:22 18:16:53:23 02:16:41:16 02:16:42:17 
*FROM CLIP NAME:  97K2/02.SYNC.01 
*SOURCE FILE: 19Y08M14
013313  19Y08M14                         A3    C        18:16:52:22 18:16:53:23 02:16:41:16 02:16:42:17 
*FROM CLIP NAME:  97K2/02.SYNC.01 
*SOURCE FILE: 19Y08M14
013314  19Y08M14                         A4    C        18:16:52:22 18:16:53:23 02:16:41:16 02:16:42:17 
*FROM CLIP NAME:  97K2/02.SYNC.01 
*PATCH 19Y08M14:  FROM SOURCE 5 TO RECORD 4 
*SOURCE FILE: 19Y08M14
013315  19Y08M14                         A5    C        18:16:52:22 18:16:53:23 02:16:41:16 02:16:42:17 
*FROM CLIP NAME:  97K2/02.SYNC.01 
*PATCH 19Y08M14:  FROM SOURCE 8 TO RECORD 5 
*SOURCE FILE: 19Y08M14
013316  19Y08M14                         A6    C        18:16:42:18 18:16:45:02 02:16:42:07 02:16:44:16 
*FROM CLIP NAME:  97K2/02.SYNC.01 
*PATCH 19Y08M14:  FROM SOURCE 2 TO RECORD 6 
*SOURCE FILE: 19Y08M14
013317  19Y08M14                         A7    C        18:16:42:18 18:16:45:02 02:16:42:07 02:16:44:16 
*FROM CLIP NAME:  97K2/02.SYNC.01 
*PATCH 19Y08M14:  FROM SOURCE 1 TO RECORD 7 
*SOURCE FILE: 19Y08M14
013318  19Y08M14                         A8    C        18:16:42:18 18:16:45:02 02:16:42:07 02:16:44:16 
*FROM CLIP NAME:  97K2/02.SYNC.01 
*SOURCE FILE: 19Y08M14
013319  19Y08M14                         A9    C        18:16:42:18 18:16:45:02 02:16:42:07 02:16:44:16 
*FROM CLIP NAME:  97K2/02.SYNC.01 
*PATCH 19Y08M14:  FROM SOURCE 3 TO RECORD 9 
*SOURCE FILE: 19Y08M14
013320  19Y08M14                         A10   C        18:16:42:18 18:16:45:02 02:16:42:07 02:16:44:16 
*FROM CLIP NAME:  97K2/02.SYNC.01 
*PATCH 19Y08M14:  FROM SOURCE 5 TO RECORD 10 
*SOURCE FILE: 19Y08M14
013321  BL                               V     C        00:00:00:00 00:00:01:21 02:16:42:17 02:16:44:13 
*SOURCE FILE: (NULL)
013324                                   V     C        13:52:05:01 13:52:06:22 02:16:42:17 02:16:44:13 
M2                                                025.0 13:52:05:01 
*FROM CLIP NAME:  M118_C009_20190821_R 
*SOURCE FILE:
013322  GLDR-BAL-160_01                  V     C        00:00:00:00 00:00:01:21 02:16:42:17 02:16:44:13 
*FROM CLIP NAME:  GLDR-BAL-160_01 
*SOURCE FILE: GLDR-BAL-160_01
013323  GLDR-BAL-160_TEST_01             V     C        00:00:00:00 00:00:01:21 02:16:42:17 02:16:44:13 
*FROM CLIP NAME:  GLDR-BAL-160_TEST_01 
*SOURCE FILE: GLDR-BAL-160_TEST_01
013325  BONEY_M_-_SUNNY.MP3              A13   C        01:00:21:16 01:00:21:16 02:16:44:06 02:16:44:06 
013325  BONEY_M_-_SUNNY.MP3              A13   D    015 01:00:21:16 01:00:22:06 02:16:44:06 02:16:44:21 
*FROM CLIP NAME:  BONEY M - SUNNY.MP3 
*TO CLIP NAME:  BONEY M - SUNNY.MP3 
*A13 VOL = -10.0 DB  PAN L100 
*A13 VOL = -15.0 DB  PAN L100 
*PATCH BONEY_M_-_SUNNY.MP3:  FROM SOURCE 1 TO RECORD 13 
*PATCH BONEY_M_-_SUNNY.MP3:  FROM SOURCE 1 TO RECORD 13 
*SOURCE FILE: BONEY M - SUNNY.MP3
013326  BONEY_M_-_SUNNY.MP3              A14   C        01:00:21:16 01:00:21:16 02:16:44:06 02:16:44:06 
013326  BONEY_M_-_SUNNY.MP3              A14   D    015 01:00:21:16 01:00:22:06 02:16:44:06 02:16:44:21 
*FROM CLIP NAME:  BONEY M - SUNNY.MP3 
*TO CLIP NAME:  BONEY M - SUNNY.MP3 
*A14 VOL = -10.0 DB  PAN R100 
*A14 VOL = -15.0 DB  PAN R100 
*PATCH BONEY_M_-_SUNNY.MP3:  FROM SOURCE 2 TO RECORD 14 
*PATCH BONEY_M_-_SUNNY.MP3:  FROM SOURCE 2 TO RECORD 14 
*SOURCE FILE: BONEY M - SUNNY.MP3
013327  MSMMMOB.58                       A     C        19:34:38:06 19:34:39:02 02:16:44:13 02:16:45:09 
*FROM CLIP NAME:  A095C008_190821_R32C 
*A1 VOL =  +7.0 DB  PAN R100 
*SOURCE FILE: MSMMMOB.58
013328  19Y08M21                         A2    C        19:34:38:04 19:34:39:00 02:16:44:13 02:16:45:09 
*FROM CLIP NAME:  95K3/01 
*A2 VOL =  +7.0 DB  PAN L100 
*SOURCE FILE: 19Y08M21
013329  19Y08M21                         A3    C        19:34:38:04 19:34:39:00 02:16:44:13 02:16:45:09 
*FROM CLIP NAME:  95K3/01 
*A3 VOL =  +6.3 DB  PAN R100 
*PATCH 19Y08M21:  FROM SOURCE 7 TO RECORD 3 
*SOURCE FILE: 19Y08M21
013330  19Y08M21                         A4    C        19:34:38:04 19:34:39:00 02:16:44:13 02:16:45:09 
*FROM CLIP NAME:  95K3/01 
*A4 VOL =  +7.0 DB  PAN L100 
*SOURCE FILE: 19Y08M21
013331  MSMMMOB.63                       V     C        19:46:13:06 19:46:14:22 02:16:44:13 02:16:46:04 
M2      MSMMMOB.63                                025.0 19:46:13:06 
*FROM CLIP NAME:  M120_C001_20190821_R 
*SOURCE FILE: MSMMMOB.63
013332  BL                               V     C        00:00:00:00 00:00:08:12 02:16:44:13 02:16:53:00 
*SOURCE FILE: (NULL)
013333  BL                               V     C        00:00:00:00 00:00:09:21 02:16:44:13 02:16:54:09 
*SOURCE FILE: (NULL)
013334  BL                               V     C        00:00:00:00 00:00:09:21 02:16:44:13 02:16:54:09 
*SOURCE FILE: (NULL)
013335  BONEY_M_-_SUNNY.MP3              A13   C        01:00:22:06 01:00:31:12 02:16:44:21 02:16:54:02 
*FROM CLIP NAME:  BONEY M - SUNNY.MP3 
*A13 VOL = -15.0 DB  PAN L100 
*PATCH BONEY_M_-_SUNNY.MP3:  FROM SOURCE 1 TO RECORD 13 
*SOURCE FILE: BONEY M - SUNNY.MP3
013336  BONEY_M_-_SUNNY.MP3              A14   C        01:00:22:06 01:00:31:12 02:16:44:21 02:16:54:02 
*FROM CLIP NAME:  BONEY M - SUNNY.MP3 
*A14 VOL = -15.0 DB  PAN R100 
*PATCH BONEY_M_-_SUNNY.MP3:  FROM SOURCE 2 TO RECORD 14 
*SOURCE FILE: BONEY M - SUNNY.MP3
013337  MSMMMOB.58                       A     C        19:34:39:11 19:34:40:01 02:16:45:09 02:16:45:24 
*FROM CLIP NAME:  A095C008_190821_R32C 
*A1 VOL =  +8.0 DB  PAN R100 
*SOURCE FILE: MSMMMOB.58
013338  19Y08M21                         A2    C        19:34:39:09 19:34:39:24 02:16:45:09 02:16:45:24 
*FROM CLIP NAME:  95K3/01 
*A2 VOL =  +8.0 DB  PAN L100 
*SOURCE FILE: 19Y08M21
013339  19Y08M21                         A3    C        19:34:39:09 19:34:39:24 02:16:45:09 02:16:45:24 
*FROM CLIP NAME:  95K3/01 
*A3 VOL =  +8.0 DB  PAN R100 
*PATCH 19Y08M21:  FROM SOURCE 7 TO RECORD 3 
*SOURCE FILE: 19Y08M21
013340  19Y08M21                         A4    C        19:34:39:09 19:34:39:24 02:16:45:09 02:16:45:24 
*FROM CLIP NAME:  95K3/01 
*A4 VOL =  +8.0 DB  PAN L100 
*SOURCE FILE: 19Y08M21
013341  MSMMMOB.38                       A5    C        19:43:19:13 19:43:20:12 02:16:45:17 02:16:46:16 
*FROM CLIP NAME:  A096C001_190821_R32C 
*A5 VOL =  +5.8 DB  PAN R100 
*PATCH MSMMMOB.38:  FROM SOURCE 1 TO RECORD 5 
*SOURCE FILE: MSMMMOB.38
013342  19Y08M21                         A6    C        19:43:19:11 19:43:20:10 02:16:45:17 02:16:46:16 
*FROM CLIP NAME:  95K4/1 
*A6 VOL =  +5.0 DB  PAN L100 
*PATCH 19Y08M21:  FROM SOURCE 2 TO RECORD 6 
*SOURCE FILE: 19Y08M21
013343  19Y08M21                         A7    C        19:43:19:11 19:43:20:10 02:16:45:17 02:16:46:16 
*FROM CLIP NAME:  95K4/1 
*A7 VOL =  +5.8 DB  PAN R100 
*SOURCE FILE: 19Y08M21
013344  19Y08M21                         A8    C        19:43:19:11 19:43:20:10 02:16:45:17 02:16:46:16 
*FROM CLIP NAME:  95K4/1 
*A8 VOL =  +5.8 DB  PAN L100 
*PATCH 19Y08M21:  FROM SOURCE 4 TO RECORD 8 
*SOURCE FILE: 19Y08M21
013345  MSMMMOB.58                       A     C        19:34:38:06 19:34:39:01 02:16:45:24 02:16:46:19 
*FROM CLIP NAME:  A095C008_190821_R32C 
*A1 VOL =  +7.0 DB  PAN R100 
*SOURCE FILE: MSMMMOB.58
013346  19Y08M21                         A2    C        19:34:38:04 19:34:38:24 02:16:45:24 02:16:46:19 
*FROM CLIP NAME:  95K3/01 
*A2 VOL =  +7.0 DB  PAN L100 
*SOURCE FILE: 19Y08M21
013347  19Y08M21                         A3    C        19:34:38:04 19:34:38:24 02:16:45:24 02:16:46:19 
*FROM CLIP NAME:  95K3/01 
*A3 VOL =  +7.0 DB  PAN R100 
*PATCH 19Y08M21:  FROM SOURCE 7 TO RECORD 3 
*SOURCE FILE: 19Y08M21
013348  19Y08M21                         A4    C        19:34:38:04 19:34:38:24 02:16:45:24 02:16:46:19 
*FROM CLIP NAME:  95K3/01 
*A4 VOL =  +7.0 DB  PAN L100 
*SOURCE FILE: 19Y08M21
013349  MSMMMOB.69                       V     C        19:05:22:08 19:05:24:10 02:16:46:04 02:16:48:06 
M2      MSMMMOB.69                                025.0 19:05:22:08 
*FROM CLIP NAME:  A095C003_190821_R32C 
*SOURCE FILE: MSMMMOB.69
013350  MSMMMOB.69                       A     C        19:05:22:23 19:05:24:10 02:16:46:19 02:16:48:06 
*FROM CLIP NAME:  A095C003_190821_R32C 
*SOURCE FILE: MSMMMOB.69
013351  19Y08M21                         A2    C        19:05:22:21 19:05:24:08 02:16:46:19 02:16:48:06 
*FROM CLIP NAME:  95K1/03 
*SOURCE FILE: 19Y08M21
013352  19Y08M21                         A3    C        19:05:22:21 19:05:24:08 02:16:46:19 02:16:48:06 
*FROM CLIP NAME:  95K1/03 
*PATCH 19Y08M21:  FROM SOURCE 7 TO RECORD 3 
*SOURCE FILE: 19Y08M21
013353  19Y08M21                         A4    C        19:05:22:21 19:05:24:08 02:16:46:19 02:16:48:06 
*FROM CLIP NAME:  95K1/03 
*SOURCE FILE: 19Y08M21
013354  MSMMMOB.69                       V     C        19:05:27:23 19:05:29:17 02:16:48:06 02:16:50:00 
M2      MSMMMOB.69                                025.0 19:05:27:23 
*FROM CLIP NAME:  A095C003_190821_R32C 
*SOURCE FILE: MSMMMOB.69
013355  MSMMMOB.69                       A     C        19:05:27:23 19:05:29:17 02:16:48:06 02:16:50:00 
*FROM CLIP NAME:  A095C003_190821_R32C 
*SOURCE FILE: MSMMMOB.69
013356  19Y08M21                         A2    C        19:05:27:21 19:05:29:15 02:16:48:06 02:16:50:00 
*FROM CLIP NAME:  95K1/03 
*SOURCE FILE: 19Y08M21
013357  19Y08M21                         A3    C        19:05:27:21 19:05:29:15 02:16:48:06 02:16:50:00 
*FROM CLIP NAME:  95K1/03 
*PATCH 19Y08M21:  FROM SOURCE 7 TO RECORD 3 
*SOURCE FILE: 19Y08M21
013358  19Y08M21                         A4    C        19:05:27:21 19:05:29:15 02:16:48:06 02:16:50:00 
*FROM CLIP NAME:  95K1/03 
*SOURCE FILE: 19Y08M21
013359  MSMMMOB.69                       V     C        19:05:30:08 19:05:31:20 02:16:50:00 02:16:51:12 
M2      MSMMMOB.69                                025.0 19:05:30:08 
*FROM CLIP NAME:  A095C003_190821_R32C 
*SOURCE FILE: MSMMMOB.69
013360  MSMMMOB.69                       A     C        19:05:30:08 19:05:31:20 02:16:50:00 02:16:51:12 
*FROM CLIP NAME:  A095C003_190821_R32C 
*SOURCE FILE: MSMMMOB.69
013361  19Y08M21                         A2    C        19:05:30:06 19:05:31:18 02:16:50:00 02:16:51:12 
*FROM CLIP NAME:  95K1/03 
*SOURCE FILE: 19Y08M21
013362  19Y08M21                         A3    C        19:05:30:06 19:05:31:18 02:16:50:00 02:16:51:12 
*FROM CLIP NAME:  95K1/03 
*PATCH 19Y08M21:  FROM SOURCE 7 TO RECORD 3 
*SOURCE FILE: 19Y08M21
013363  19Y08M21                         A4    C        19:05:30:06 19:05:31:18 02:16:50:00 02:16:51:12 
*FROM CLIP NAME:  95K1/03 
*SOURCE FILE: 19Y08M21
013364  MSMMMOB.69                       V     C        19:05:32:20 19:05:34:08 02:16:51:12 02:16:53:00 
M2      MSMMMOB.69                                025.0 19:05:32:20 
*FROM CLIP NAME:  A095C003_190821_R32C 
*SOURCE FILE: MSMMMOB.69
013365  MSMMMOB.69                       A     C        19:05:32:20 19:05:35:02 02:16:51:12 02:16:53:19 
*FROM CLIP NAME:  A095C003_190821_R32C 
*SOURCE FILE: MSMMMOB.69
013366  19Y08M21                         A2    C        19:05:32:18 19:05:35:00 02:16:51:12 02:16:53:19 
*FROM CLIP NAME:  95K1/03 
*SOURCE FILE: 19Y08M21
013367  19Y08M21                         A3    C        19:05:32:18 19:05:35:00 02:16:51:12 02:16:53:19 
*FROM CLIP NAME:  95K1/03 
*PATCH 19Y08M21:  FROM SOURCE 7 TO RECORD 3 
*SOURCE FILE: 19Y08M21
013368  19Y08M21                         A4    C        19:05:32:18 19:05:35:00 02:16:51:12 02:16:53:19 
*FROM CLIP NAME:  95K1/03 
*SOURCE FILE: 19Y08M21
013369  BL                               V     C        00:00:00:00 00:00:01:09 02:16:53:00 02:16:54:09 
*SOURCE FILE: (NULL)
013370  MSMMMOB.32                       V     C        20:09:32:03 20:09:33:12 02:16:53:00 02:16:54:09 
M2      MSMMMOB.32                                025.0 20:09:32:03 
*FROM CLIP NAME:  A096C004_190821_R32C 
*SOURCE FILE: MSMMMOB.32
013371  MSMMMOB.38                       A     C        19:43:29:21 19:43:30:11 02:16:53:19 02:16:54:09 
*FROM CLIP NAME:  A096C001_190821_R32C 
*SOURCE FILE: MSMMMOB.38
013372  19Y08M21                         A2    C        19:43:29:19 19:43:30:09 02:16:53:19 02:16:54:09 
*FROM CLIP NAME:  95K4/1 
*SOURCE FILE: 19Y08M21
013373  19Y08M21                         A3    C        19:43:29:19 19:43:30:09 02:16:53:19 02:16:54:09 
*FROM CLIP NAME:  95K4/1 
*PATCH 19Y08M21:  FROM SOURCE 7 TO RECORD 3 
*SOURCE FILE: 19Y08M21
013374  19Y08M21                         A4    C        19:43:29:19 19:43:30:09 02:16:53:19 02:16:54:09 
*FROM CLIP NAME:  95K4/1 
*SOURCE FILE: 19Y08M21
013375  BONEY_M_-_SUNNY.MP3              A13   C        01:00:31:12 01:00:31:12 02:16:54:02 02:16:54:02 
013375  BONEY_M_-_SUNNY.MP3              A13   D    015 01:00:31:12 01:00:32:02 02:16:54:02 02:16:54:17 
*FROM CLIP NAME:  BONEY M - SUNNY.MP3 
*TO CLIP NAME:  BONEY M - SUNNY.MP3 
*A13 VOL = -15.0 DB  PAN L100 
*A13 VOL = -10.0 DB  PAN L100 
*PATCH BONEY_M_-_SUNNY.MP3:  FROM SOURCE 1 TO RECORD 13 
*PATCH BONEY_M_-_SUNNY.MP3:  FROM SOURCE 1 TO RECORD 13 
*SOURCE FILE: BONEY M - SUNNY.MP3
013376  BONEY_M_-_SUNNY.MP3              A14   C        01:00:31:12 01:00:31:12 02:16:54:02 02:16:54:02 
013376  BONEY_M_-_SUNNY.MP3              A14   D    015 01:00:31:12 01:00:32:02 02:16:54:02 02:16:54:17 
*FROM CLIP NAME:  BONEY M - SUNNY.MP3 
*TO CLIP NAME:  BONEY M - SUNNY.MP3 
*A14 VOL = -15.0 DB  PAN R100 
*A14 VOL = -10.0 DB  PAN R100 
*PATCH BONEY_M_-_SUNNY.MP3:  FROM SOURCE 2 TO RECORD 14 
*PATCH BONEY_M_-_SUNNY.MP3:  FROM SOURCE 2 TO RECORD 14 
*SOURCE FILE: BONEY M - SUNNY.MP3
013378  BL                               V     C        00:00:00:00 00:00:02:11 02:16:54:09 02:16:56:20 
*SOURCE FILE: (NULL)
013377  GLDR-BAL-220_TEST_03             V     C        00:00:00:00 00:00:03:11 02:16:54:09 02:16:56:20 
M2      GLDR-BAL-220_TEST_03                      035.7 00:00:00:00 
*FROM CLIP NAME:  GLDR-BAL-220_TEST_03 
*SOURCE FILE: GLDR-BAL-220_TEST_03 
*REPAIR: FROM SOURCE TRUE SPEED IS 35.655739 FPS
013379  GLDR-BAL-220_V02                 V     C        00:00:00:00 00:00:03:15 02:16:54:09 02:16:56:20 
M2      GLDR-BAL-220_V02                          037.3 00:00:00:00 
*FROM CLIP NAME:  GLDR-BAL-220_V02 
*SOURCE FILE: GLDR-BAL-220_V02 
*REPAIR: FROM SOURCE TRUE SPEED IS 37.295082 FPS
013380  GLDR-BAL-220_V01                 V     C        00:00:00:00 00:00:03:15 02:16:54:09 02:16:56:20 
M2      GLDR-BAL-220_V01                          037.3 00:00:00:00 
*FROM CLIP NAME:  GLDR-BAL-220_V01 
*SOURCE FILE: GLDR-BAL-220_V01 
*REPAIR: FROM SOURCE TRUE SPEED IS 37.295082 FPS
013381                                   V     C        14:52:49:19 14:52:53:10 02:16:54:09 02:16:56:20 
M2                                                037.5 14:52:49:19 
*FROM CLIP NAME:  M118_C017_20190821_R 
*SOURCE FILE:
013382  19Y08M21                         A6    C        10:46:16:08 10:46:18:19 02:16:54:09 02:16:56:20 
*FROM CLIP NAME:  96AK1/01.SUB.01 
*A6 VOL =  +8.0 DB  PAN L100 
*PATCH 19Y08M21:  FROM SOURCE 1 TO RECORD 6 
*SOURCE FILE: 19Y08M21
013383  BONEY_M_-_SUNNY.MP3              A13   C        01:00:32:02 01:00:54:06 02:16:54:17 02:17:16:21 
*FROM CLIP NAME:  BONEY M - SUNNY.MP3 
*A13 VOL = -10.0 DB  PAN L100 
*PATCH BONEY_M_-_SUNNY.MP3:  FROM SOURCE 1 TO RECORD 13 
*SOURCE FILE: BONEY M - SUNNY.MP3
013384  BONEY_M_-_SUNNY.MP3              A14   C        01:00:32:02 01:00:54:06 02:16:54:17 02:17:16:21 
*FROM CLIP NAME:  BONEY M - SUNNY.MP3 
*A14 VOL = -10.0 DB  PAN R100 
*PATCH BONEY_M_-_SUNNY.MP3:  FROM SOURCE 2 TO RECORD 14 
*SOURCE FILE: BONEY M - SUNNY.MP3
013385  BL                               V     C        00:00:00:00 00:00:07:16 02:16:56:10 02:17:04:01 
*SOURCE FILE: (NULL)
013386  CINEMASCOPE_2-35-1_CROPLINES.PNG V     C        01:00:00:00 01:01:53:09 02:16:56:10 02:18:49:19 
*FROM CLIP NAME:  CINEMASCOPE 2-35-1 CROPLINES.PNG 
*SOURCE FILE: CINEMASCOPE 2-35-1 CROPLINES.PNG
013387  19Y08M21                         A6    C        10:46:18:19 10:46:18:19 02:16:56:20 02:16:56:20 
013387  BL                               A6    D    020 00:00:00:00 00:00:00:20 02:16:56:20 02:16:57:15 
*FROM CLIP NAME:  96AK1/01.SUB.01 
*A6 VOL =  +8.0 DB  PAN L100 
*PATCH 19Y08M21:  FROM SOURCE 1 TO RECORD 6 
*SOURCE FILE: 19Y08M21
013389  BL                               V     C        00:00:00:00 00:00:02:23 02:16:56:20 02:16:59:18 
*SOURCE FILE: (NULL)
013388                                   V     C        17:34:21:05 17:34:24:03 02:16:56:20 02:16:59:18 
M2                                                025.0 17:34:21:05 
*FROM CLIP NAME:  A094C007_190821_R32C 
*SOURCE FILE:
013390  19Y08M21                         A     C        17:34:21:04 17:34:24:02 02:16:56:20 02:16:59:18 
*FROM CLIP NAME:  95GK1/01 
*SOURCE FILE: 19Y08M21
013391  19Y08M21                         A2    C        17:34:21:04 17:34:24:02 02:16:56:20 02:16:59:18 
*FROM CLIP NAME:  95GK1/01 
*SOURCE FILE: 19Y08M21
013392  19Y08M21                         A3    C        17:34:21:04 17:34:24:02 02:16:56:20 02:16:59:18 
*FROM CLIP NAME:  95GK1/01 
*SOURCE FILE: 19Y08M21
013393  19Y08M21                         A4    C        17:34:21:04 17:34:24:02 02:16:56:20 02:16:59:18 
*FROM CLIP NAME:  95GK1/01 
*SOURCE FILE: 19Y08M21
013394  19Y08M21                         A5    C        17:34:21:04 17:34:24:02 02:16:56:20 02:16:59:18 
*FROM CLIP NAME:  95GK1/01 
*PATCH 19Y08M21:  FROM SOURCE 7 TO RECORD 5 
*SOURCE FILE: 19Y08M21
013395  BL                               V     C        00:00:00:00 00:00:07:06 02:16:56:20 02:17:04:01 
*SOURCE FILE: (NULL)
013396  BL                               V     C        00:00:00:00 00:00:32:11 02:16:56:20 02:17:29:06 
*SOURCE FILE: (NULL)
013397  BL                               V     C        00:00:00:00 00:10:17:06 02:16:56:20 02:27:14:01 
*SOURCE FILE: (NULL)
013398                                   V     C        15:07:57:04 15:07:59:24 02:16:59:18 02:17:02:13 
M2                                                025.0 15:07:57:04 
*FROM CLIP NAME:  M118_C019_20190821_R 
*SOURCE FILE:
013399  BL                               V     C        00:00:00:00 00:00:02:20 02:16:59:18 02:17:02:13 
*SOURCE FILE: (NULL)
013400  19Y08M14                         A     C        18:07:23:11 18:07:26:06 02:16:59:18 02:17:02:13 
*FROM CLIP NAME:  97K1/06.SYNC.01 
*SOURCE FILE: 19Y08M14
013401  19Y08M14                         A2    C        18:07:23:11 18:07:26:06 02:16:59:18 02:17:02:13 
*FROM CLIP NAME:  97K1/06.SYNC.01 
*SOURCE FILE: 19Y08M14
013402  19Y08M14                         A3    C        18:07:23:11 18:07:26:06 02:16:59:18 02:17:02:13 
*FROM CLIP NAME:  97K1/06.SYNC.01 
*SOURCE FILE: 19Y08M14
013403  19Y08M14                         A4    C        18:07:23:11 18:07:26:06 02:16:59:18 02:17:02:13 
*FROM CLIP NAME:  97K1/06.SYNC.01 
*PATCH 19Y08M14:  FROM SOURCE 8 TO RECORD 4 
*SOURCE FILE: 19Y08M14
013404  19Y08M14                         A5    C        18:07:23:11 18:07:26:06 02:16:59:18 02:17:02:13 
*FROM CLIP NAME:  97K1/06.SYNC.01 
*SOURCE FILE: 19Y08M14
013405  19Y08M21                         A     C        19:21:32:20 19:21:34:06 02:17:02:13 02:17:03:24 
*FROM CLIP NAME:  95K2/03 
*PATCH 19Y08M21:  FROM SOURCE 2 TO RECORD 1 
*SOURCE FILE: 19Y08M21
013406  19Y08M21                         A2    C        19:21:32:20 19:21:34:06 02:17:02:13 02:17:03:24 
*FROM CLIP NAME:  95K2/03 
*PATCH 19Y08M21:  FROM SOURCE 7 TO RECORD 2 
*SOURCE FILE: 19Y08M21
013407  19Y08M21                         A3    C        19:21:32:20 19:21:34:06 02:17:02:13 02:17:03:24 
*FROM CLIP NAME:  95K2/03 
*PATCH 19Y08M21:  FROM SOURCE 4 TO RECORD 3 
*SOURCE FILE: 19Y08M21
013408  MSMMMOB.38                       V     C        19:43:32:11 19:43:33:24 02:17:02:13 02:17:04:01 
M2      MSMMMOB.38                                025.0 19:43:32:11 
*FROM CLIP NAME:  A096C001_190821_R32C 
*SOURCE FILE: MSMMMOB.38
013409  BL                               V     C        00:00:00:00 00:00:01:13 02:17:02:13 02:17:04:01 
*SOURCE FILE: (NULL)
013410  19Y08M21                         A6    C        19:21:34:14 19:21:34:23 02:17:03:09 02:17:03:18 
*FROM CLIP NAME:  95K2/03 
*PATCH 19Y08M21:  FROM SOURCE 2 TO RECORD 6 
*SOURCE FILE: 19Y08M21
013411  19Y08M21                         A7    C        19:21:34:14 19:21:34:23 02:17:03:09 02:17:03:18 
*FROM CLIP NAME:  95K2/03 
*SOURCE FILE: 19Y08M21
013412  19Y08M21                         A8    C        19:21:34:14 19:21:34:23 02:17:03:09 02:17:03:18 
*FROM CLIP NAME:  95K2/03 
*PATCH 19Y08M21:  FROM SOURCE 4 TO RECORD 8 
*SOURCE FILE: 19Y08M21
013413  MSMMMOB.41                       A9    C        19:21:34:16 19:21:35:00 02:17:03:09 02:17:03:18 
*FROM CLIP NAME:  A095C007_190821_R32C 
*PATCH MSMMMOB.41:  FROM SOURCE 1 TO RECORD 9 
*SOURCE FILE: MSMMMOB.41
013414  19Y08M21                         A     C        19:43:29:24 19:43:30:17 02:17:03:24 02:17:04:17 
*FROM CLIP NAME:  95K4/1 
*PATCH 19Y08M21:  FROM SOURCE 2 TO RECORD 1 
*SOURCE FILE: 19Y08M21
013415  19Y08M21                         A2    C        19:43:29:24 19:43:30:17 02:17:03:24 02:17:04:17 
*FROM CLIP NAME:  95K4/1 
*PATCH 19Y08M21:  FROM SOURCE 7 TO RECORD 2 
*SOURCE FILE: 19Y08M21
013416  19Y08M21                         A3    C        19:43:29:24 19:43:30:17 02:17:03:24 02:17:04:17 
*FROM CLIP NAME:  95K4/1 
*PATCH 19Y08M21:  FROM SOURCE 4 TO RECORD 3 
*SOURCE FILE: 19Y08M21
013420  GLDR-BAL-260_V02                 V     C        00:00:00:00 00:00:02:09 02:17:04:01 02:17:06:10 
*FROM CLIP NAME:  GLDR-BAL-260_V02 
*SOURCE FILE: GLDR-BAL-260_V02
013419  M108_C023_20190729_R.MOV         V     C        15:54:10:04 15:54:12:13 02:17:04:01 02:17:06:10 
*FROM CLIP NAME:  M108_C023_20190729_R.NEW.01 
*SOURCE FILE: M108_C023_20190729_R.MOV
013417  BL                               V     C        00:00:00:00 00:00:02:09 02:17:04:01 02:17:06:10 
*SOURCE FILE: (NULL)
013418                                   V     C        18:05:47:17 18:05:50:01 02:17:04:01 02:17:06:10 
M2                                                025.0 18:05:47:17 
*FROM CLIP NAME:  A094C012_190821_R32C 
*SOURCE FILE:
013421  MSMMMOB.38                       A     C        19:43:30:02 19:43:31:19 02:17:04:17 02:17:06:09 
*FROM CLIP NAME:  A096C001_190821_R32C 
*SOURCE FILE: MSMMMOB.38
013422  19Y08M21                         A2    C        19:43:30:00 19:43:31:17 02:17:04:17 02:17:06:09 
*FROM CLIP NAME:  95K4/1 
*SOURCE FILE: 19Y08M21
013423  19Y08M21                         A3    C        19:43:30:00 19:43:31:17 02:17:04:17 02:17:06:09 
*FROM CLIP NAME:  95K4/1 
*PATCH 19Y08M21:  FROM SOURCE 7 TO RECORD 3 
*SOURCE FILE: 19Y08M21
013424  19Y08M21                         A4    C        19:43:30:00 19:43:31:17 02:17:04:17 02:17:06:09 
*FROM CLIP NAME:  95K4/1 
*SOURCE FILE: 19Y08M21
013425  MSMMMOB.38                       A     C        19:43:31:19 19:43:31:19 02:17:06:09 02:17:06:09 
013425  MSMMMOB.38                       A     D    002 19:43:30:00 19:43:30:02 02:17:06:09 02:17:06:11 
*FROM CLIP NAME:  A096C001_190821_R32C 
*TO CLIP NAME:  A096C001_190821_R32C 
*SOURCE FILE: MSMMMOB.38
013426  19Y08M21                         A2    C        19:43:31:17 19:43:31:17 02:17:06:09 02:17:06:09 
013426  19Y08M21                         A2    D    002 19:43:29:23 19:43:30:00 02:17:06:09 02:17:06:11 
*FROM CLIP NAME:  95K4/1 
*TO CLIP NAME:  95K4/1 
*SOURCE FILE: 19Y08M21
013427  19Y08M21                         A3    C        19:43:31:17 19:43:31:17 02:17:06:09 02:17:06:09 
013427  19Y08M21                         A3    D    002 19:43:29:23 19:43:30:00 02:17:06:09 02:17:06:11 
*FROM CLIP NAME:  95K4/1 
*TO CLIP NAME:  95K4/1 
*PATCH 19Y08M21:  FROM SOURCE 7 TO RECORD 3 
*PATCH 19Y08M21:  FROM SOURCE 7 TO RECORD 3 
*SOURCE FILE: 19Y08M21
013428  19Y08M21                         A4    C        19:43:31:17 19:43:31:17 02:17:06:09 02:17:06:09 
013428  19Y08M21                         A4    D    002 19:43:29:23 19:43:30:00 02:17:06:09 02:17:06:11 
*FROM CLIP NAME:  95K4/1 
*TO CLIP NAME:  95K4/1 
*SOURCE FILE: 19Y08M21
013429  BL                               A5    C        00:00:00:00 00:00:00:00 02:17:06:09 02:17:06:09 
013429  19Y08M21                         A5    D    002 17:36:15:20 17:36:15:22 02:17:06:09 02:17:06:11 
*TO CLIP NAME:  95GK1/02 
*PATCH 19Y08M21:  FROM SOURCE 7 TO RECORD 5 
*SOURCE FILE: (NULL)
013430  MSMMMOB.38                       V     C        19:43:33:22 19:43:35:09 02:17:06:10 02:17:07:22 
M2      MSMMMOB.38                                025.0 19:43:33:22 
*FROM CLIP NAME:  A096C001_190821_R32C 
*SOURCE FILE: MSMMMOB.38
013431  BL                               V     C        00:00:00:00 00:00:01:13 02:17:06:10 02:17:07:23 
*SOURCE FILE: (NULL)
013433  BL                               V     C        00:00:00:00 00:00:02:24 02:17:06:10 02:17:09:09 
*SOURCE FILE: (NULL)
013432  BL                               V     C        00:00:00:00 00:00:02:24 02:17:06:10 02:17:09:09 
*SOURCE FILE: (NULL)
013434  MSMMMOB.38                       A     C        19:43:30:02 19:43:30:19 02:17:06:11 02:17:07:03 
*FROM CLIP NAME:  A096C001_190821_R32C 
*SOURCE FILE: MSMMMOB.38
013435  19Y08M21                         A2    C        19:43:30:00 19:43:30:17 02:17:06:11 02:17:07:03 
*FROM CLIP NAME:  95K4/1 
*SOURCE FILE: 19Y08M21
013436  19Y08M21                         A3    C        19:43:30:00 19:43:30:17 02:17:06:11 02:17:07:03 
*FROM CLIP NAME:  95K4/1 
*PATCH 19Y08M21:  FROM SOURCE 7 TO RECORD 3 
*SOURCE FILE: 19Y08M21
013437  19Y08M21                         A4    C        19:43:30:00 19:43:30:17 02:17:06:11 02:17:07:03 
*FROM CLIP NAME:  95K4/1 
*SOURCE FILE: 19Y08M21
013438  19Y08M21                         A5    C        17:36:15:22 17:36:18:20 02:17:06:11 02:17:09:09 
*FROM CLIP NAME:  95GK1/02 
*PATCH 19Y08M21:  FROM SOURCE 7 TO RECORD 5 
*SOURCE FILE: 19Y08M21
013439  19Y08M21                         A     C        17:36:16:14 17:36:18:20 02:17:07:03 02:17:09:09 
*FROM CLIP NAME:  95GK1/02 
*SOURCE FILE: 19Y08M21
013440  19Y08M21                         A2    C        17:36:16:14 17:36:18:20 02:17:07:03 02:17:09:09 
*FROM CLIP NAME:  95GK1/02 
*SOURCE FILE: 19Y08M21
013441  19Y08M21                         A3    C        17:36:16:14 17:36:18:20 02:17:07:03 02:17:09:09 
*FROM CLIP NAME:  95GK1/02 
*SOURCE FILE: 19Y08M21
013442  19Y08M21                         A4    C        17:36:16:14 17:36:18:20 02:17:07:03 02:17:09:09 
*FROM CLIP NAME:  95GK1/02 
*SOURCE FILE: 19Y08M21
013443  19Y08M21                         A6    C        17:40:30:18 17:40:33:02 02:17:07:08 02:17:09:17 
*FROM CLIP NAME:  95GK2/01 
*PATCH 19Y08M21:  FROM SOURCE 2 TO RECORD 6 
*SOURCE FILE: 19Y08M21
013444  19Y08M21                         A7    C        17:40:30:18 17:40:33:02 02:17:07:08 02:17:09:17 
*FROM CLIP NAME:  95GK2/01 
*SOURCE FILE: 19Y08M21
013445  19Y08M21                         A8    C        17:40:30:18 17:40:33:02 02:17:07:08 02:17:09:17 
*FROM CLIP NAME:  95GK2/01 
*PATCH 19Y08M21:  FROM SOURCE 4 TO RECORD 8 
*SOURCE FILE: 19Y08M21
013446  19Y08M21                         A9    C        17:40:30:18 17:40:33:02 02:17:07:08 02:17:09:17 
*FROM CLIP NAME:  95GK2/01 
*PATCH 19Y08M21:  FROM SOURCE 1 TO RECORD 9 
*SOURCE FILE: 19Y08M21
013447  19Y08M21                         A10   C        17:40:30:18 17:40:33:02 02:17:07:08 02:17:09:17 
*FROM CLIP NAME:  95GK2/01 
*PATCH 19Y08M21:  FROM SOURCE 3 TO RECORD 10 
*SOURCE FILE: 19Y08M21
013448                                   V     C        17:36:17:09 17:36:18:21 02:17:07:22 02:17:09:09 
M2                                                025.0 17:36:17:09 
*FROM CLIP NAME:  A094C008_190821_R32C 
*SOURCE FILE:
013449  BL                               V     C        00:00:00:00 00:00:01:11 02:17:07:23 02:17:09:09 
*SOURCE FILE: (NULL)
013450  19Y08M14                         A     C        18:57:25:18 18:57:27:16 02:17:09:09 02:17:11:07 
*FROM CLIP NAME:  96-98K4/01.SYNC.01 
*SOURCE FILE: 19Y08M14
013451  19Y08M14                         A2    C        18:57:25:18 18:57:27:16 02:17:09:09 02:17:11:07 
*FROM CLIP NAME:  96-98K4/01.SYNC.01 
*SOURCE FILE: 19Y08M14
013452  19Y08M14                         A3    C        18:57:25:18 18:57:27:16 02:17:09:09 02:17:11:07 
*FROM CLIP NAME:  96-98K4/01.SYNC.01 
*SOURCE FILE: 19Y08M14
013453  19Y08M14                         A4    C        18:57:25:18 18:57:27:16 02:17:09:09 02:17:11:07 
*FROM CLIP NAME:  96-98K4/01.SYNC.01 
*PATCH 19Y08M14:  FROM SOURCE 8 TO RECORD 4 
*SOURCE FILE: 19Y08M14
013454  19Y08M14                         A5    C        18:57:25:18 18:57:27:16 02:17:09:09 02:17:11:07 
*FROM CLIP NAME:  96-98K4/01.SYNC.01 
*SOURCE FILE: 19Y08M14
013456  MSMMMOB.13                       V     C        20:18:59:06 20:19:01:05 02:17:09:09 02:17:11:08 
M2      MSMMMOB.13                                025.0 20:18:59:06 
*FROM CLIP NAME:  B027C005_190814_R481 
*SOURCE FILE: MSMMMOB.13
013455  GLDR-BAL-290_V01                 V     C        00:00:00:00 00:00:01:24 02:17:09:09 02:17:11:08 
*FROM CLIP NAME:  GLDR-BAL-290_V01 
*SOURCE FILE: GLDR-BAL-290_V01
013457                                   V     C        17:36:18:21 17:36:20:20 02:17:09:09 02:17:11:08 
M2                                                025.0 17:36:18:21 
*FROM CLIP NAME:  A094C008_190821_R32C 
*SOURCE FILE:
013458  BL                               V     C        00:00:00:00 00:00:01:24 02:17:09:09 02:17:11:08 
*SOURCE FILE: (NULL)
013459  19Y08M14                         A     C        18:57:27:16 18:57:27:16 02:17:11:07 02:17:11:07 
013459  19Y08M14                         A     D    002 18:15:06:11 18:15:06:13 02:17:11:07 02:17:11:09 
*FROM CLIP NAME:  96-98K4/01.SYNC.01 
*TO CLIP NAME:  97K2/01.SYNC.01 
*SOURCE FILE: 19Y08M14
013460  19Y08M14                         A2    C        18:57:27:16 18:57:27:16 02:17:11:07 02:17:11:07 
013460  19Y08M14                         A2    D    002 18:15:06:11 18:15:06:13 02:17:11:07 02:17:11:09 
*FROM CLIP NAME:  96-98K4/01.SYNC.01 
*TO CLIP NAME:  97K2/01.SYNC.01 
*SOURCE FILE: 19Y08M14
013461  19Y08M14                         A3    C        18:57:27:16 18:57:27:16 02:17:11:07 02:17:11:07 
013461  19Y08M14                         A3    D    002 18:15:06:11 18:15:06:13 02:17:11:07 02:17:11:09 
*FROM CLIP NAME:  96-98K4/01.SYNC.01 
*TO CLIP NAME:  97K2/01.SYNC.01 
*SOURCE FILE: 19Y08M14
013462  19Y08M14                         A4    C        18:57:27:16 18:57:27:16 02:17:11:07 02:17:11:07 
013462  19Y08M14                         A4    D    002 18:15:06:11 18:15:06:13 02:17:11:07 02:17:11:09 
*FROM CLIP NAME:  96-98K4/01.SYNC.01 
*TO CLIP NAME:  97K2/01.SYNC.01 
*PATCH 19Y08M14:  FROM SOURCE 8 TO RECORD 4 
*PATCH 19Y08M14:  FROM SOURCE 8 TO RECORD 4 
*SOURCE FILE: 19Y08M14
013463  19Y08M14                         A5    C        18:57:27:16 18:57:27:16 02:17:11:07 02:17:11:07 
013463  19Y08M14                         A5    D    002 18:15:06:11 18:15:06:13 02:17:11:07 02:17:11:09 
*FROM CLIP NAME:  96-98K4/01.SYNC.01 
*TO CLIP NAME:  97K2/01.SYNC.01 
*SOURCE FILE: 19Y08M14
013464  MSMMMOB.20                       V     C        18:15:06:13 18:15:07:14 02:17:11:08 02:17:12:09 
M2      MSMMMOB.20                                025.0 18:15:06:13 
*FROM CLIP NAME:  B026C007_190814_R481 
*SOURCE FILE: MSMMMOB.20
013465  BL                               V     C        00:00:00:00 00:00:11:08 02:17:11:08 02:17:22:16 
*SOURCE FILE: (NULL)
013466  BL                               V     C        00:00:00:00 00:00:11:10 02:17:11:08 02:17:22:18 
*SOURCE FILE: (NULL)
013467  BL                               V     C        00:00:00:00 00:00:40:10 02:17:11:08 02:17:51:18 
*SOURCE FILE: (NULL)
013468  19Y08M14                         A     C        18:15:06:13 18:15:07:22 02:17:11:09 02:17:12:18 
*FROM CLIP NAME:  97K2/01.SYNC.01 
*SOURCE FILE: 19Y08M14
013469  19Y08M14                         A2    C        18:15:06:13 18:15:07:22 02:17:11:09 02:17:12:18 
*FROM CLIP NAME:  97K2/01.SYNC.01 
*SOURCE FILE: 19Y08M14
013470  19Y08M14                         A3    C        18:15:06:13 18:15:07:22 02:17:11:09 02:17:12:18 
*FROM CLIP NAME:  97K2/01.SYNC.01 
*SOURCE FILE: 19Y08M14
013471  19Y08M14                         A4    C        18:15:06:13 18:15:07:22 02:17:11:09 02:17:12:18 
*FROM CLIP NAME:  97K2/01.SYNC.01 
*PATCH 19Y08M14:  FROM SOURCE 8 TO RECORD 4 
*SOURCE FILE: 19Y08M14
013472  19Y08M14                         A5    C        18:15:06:13 18:15:07:22 02:17:11:09 02:17:12:18 
*FROM CLIP NAME:  97K2/01.SYNC.01 
*SOURCE FILE: 19Y08M14
013473  MSMMMOB.52                       V     C        19:00:04:13 19:00:09:00 02:17:12:09 02:17:16:21 
M2      MSMMMOB.52                                025.0 19:00:04:13 
*FROM CLIP NAME:  B026C012_190814_R481 
*SOURCE FILE: MSMMMOB.52
013474  19Y08M14                         A     C        18:15:07:22 18:15:07:22 02:17:12:18 02:17:12:18 
013474  19Y08M14                         A     D    002 19:00:04:21 19:00:04:23 02:17:12:18 02:17:12:20 
*FROM CLIP NAME:  97K2/01.SYNC.01 
*TO CLIP NAME:  96-98K4/02.SYNC.01 
*SOURCE FILE: 19Y08M14
013475  19Y08M14                         A2    C        18:15:07:22 18:15:07:22 02:17:12:18 02:17:12:18 
013475  19Y08M14                         A2    D    002 19:00:04:21 19:00:04:23 02:17:12:18 02:17:12:20 
*FROM CLIP NAME:  97K2/01.SYNC.01 
*TO CLIP NAME:  96-98K4/02.SYNC.01 
*SOURCE FILE: 19Y08M14
013476  19Y08M14                         A3    C        18:15:07:22 18:15:07:22 02:17:12:18 02:17:12:18 
013476  19Y08M14                         A3    D    002 19:00:04:21 19:00:04:23 02:17:12:18 02:17:12:20 
*FROM CLIP NAME:  97K2/01.SYNC.01 
*TO CLIP NAME:  96-98K4/02.SYNC.01 
*SOURCE FILE: 19Y08M14
013477  19Y08M14                         A4    C        18:15:07:22 18:15:07:22 02:17:12:18 02:17:12:18 
013477  19Y08M14                         A4    D    002 19:00:04:21 19:00:04:23 02:17:12:18 02:17:12:20 
*FROM CLIP NAME:  97K2/01.SYNC.01 
*TO CLIP NAME:  96-98K4/02.SYNC.01 
*PATCH 19Y08M14:  FROM SOURCE 8 TO RECORD 4 
*PATCH 19Y08M14:  FROM SOURCE 8 TO RECORD 4 
*SOURCE FILE: 19Y08M14
013478  19Y08M14                         A5    C        18:15:07:22 18:15:07:22 02:17:12:18 02:17:12:18 
013478  19Y08M14                         A5    D    002 19:00:04:21 19:00:04:23 02:17:12:18 02:17:12:20 
*FROM CLIP NAME:  97K2/01.SYNC.01 
*TO CLIP NAME:  96-98K4/02.SYNC.01 
*SOURCE FILE: 19Y08M14
013479  19Y08M14                         A     C        19:00:04:23 19:00:08:24 02:17:12:20 02:17:16:21 
*FROM CLIP NAME:  96-98K4/02.SYNC.01 
*SOURCE FILE: 19Y08M14
013480  19Y08M14                         A2    C        19:00:04:23 19:00:08:24 02:17:12:20 02:17:16:21 
*FROM CLIP NAME:  96-98K4/02.SYNC.01 
*SOURCE FILE: 19Y08M14
013481  19Y08M14                         A3    C        19:00:04:23 19:00:08:24 02:17:12:20 02:17:16:21 
*FROM CLIP NAME:  96-98K4/02.SYNC.01 
*SOURCE FILE: 19Y08M14
013482  19Y08M14                         A4    C        19:00:04:23 19:00:08:24 02:17:12:20 02:17:16:21 
*FROM CLIP NAME:  96-98K4/02.SYNC.01 
*PATCH 19Y08M14:  FROM SOURCE 8 TO RECORD 4 
*SOURCE FILE: 19Y08M14
013483  19Y08M14                         A5    C        19:00:04:23 19:00:08:24 02:17:12:20 02:17:16:21 
*FROM CLIP NAME:  96-98K4/02.SYNC.01 
*SOURCE FILE: 19Y08M14
013484  19Y08M28                         A     C        00:19:58:09 00:20:02:21 02:17:16:21 02:17:21:08 
*FROM CLIP NAME:  99-1/02 
*PATCH 19Y08M28:  FROM SOURCE 4 TO RECORD 1 
*SOURCE FILE: 19Y08M28
013485  19Y08M28                         A2    C        00:19:58:09 00:20:02:21 02:17:16:21 02:17:21:08 
*FROM CLIP NAME:  99-1/02 
*PATCH 19Y08M28:  FROM SOURCE 7 TO RECORD 2 
*SOURCE FILE: 19Y08M28
013486  MSMMMOB.39                       V     C        00:25:00:19 00:25:06:14 02:17:16:21 02:17:22:16 
M2      MSMMMOB.39                                025.0 00:25:00:19 
*FROM CLIP NAME:  A104C017_190828_R3DN 
*SOURCE FILE: MSMMMOB.39
013487  MSMMMOB.41                       A3    C        19:21:50:12 19:21:54:00 02:17:18:22 02:17:22:10 
*FROM CLIP NAME:  A095C007_190821_R32C 
*A3 VOL = -32.3 DB  PAN R100 
*PATCH MSMMMOB.41:  FROM SOURCE 1 TO RECORD 3 
*SOURCE FILE: MSMMMOB.41
013488  19Y08M21                         A4    C        19:21:50:10 19:21:53:23 02:17:18:22 02:17:22:10 
*FROM CLIP NAME:  95K2/03 
*A4 VOL = -32.3 DB  PAN L100 
*PATCH 19Y08M21:  FROM SOURCE 7 TO RECORD 4 
*SOURCE FILE: 19Y08M21
013489  19Y08M21                         A5    C        19:21:50:10 19:21:53:23 02:17:18:22 02:17:22:10 
*FROM CLIP NAME:  95K2/03 
*A5 VOL = -32.3 DB  PAN R100 
*PATCH 19Y08M21:  FROM SOURCE 4 TO RECORD 5 
*SOURCE FILE: 19Y08M21
013490  19Y08M21                         A7    C        19:21:50:10 19:21:53:23 02:17:18:22 02:17:22:10 
*FROM CLIP NAME:  95K2/03 
*A7 VOL = -32.3 DB  PAN R100 
*PATCH 19Y08M21:  FROM SOURCE 2 TO RECORD 7 
*SOURCE FILE: 19Y08M21
013491  19Y08M28                         A6    C        00:44:13:02 00:44:18:05 02:17:20:14 02:17:25:17 
*FROM CLIP NAME:  99-4/02 
*PATCH 19Y08M28:  FROM SOURCE 7 TO RECORD 6 
*SOURCE FILE: 19Y08M28
013492  19Y08M28                         A8    C        00:44:13:02 00:44:18:05 02:17:20:14 02:17:25:17 
*FROM CLIP NAME:  99-4/02 
*PATCH 19Y08M28:  FROM SOURCE 4 TO RECORD 8 
*SOURCE FILE: 19Y08M28
013493  19Y08M28                         A     C        00:25:04:23 00:25:09:07 02:17:21:08 02:17:25:17 
*FROM CLIP NAME:  99-2/02 
*PATCH 19Y08M28:  FROM SOURCE 4 TO RECORD 1 
*SOURCE FILE: 19Y08M28
013494  19Y08M28                         A2    C        00:25:04:23 00:25:09:07 02:17:21:08 02:17:25:17 
*FROM CLIP NAME:  99-2/02 
*PATCH 19Y08M28:  FROM SOURCE 7 TO RECORD 2 
*SOURCE FILE: 19Y08M28
013495  MSMMMOB.72                       A5    C        00:44:14:24 00:44:18:06 02:17:22:10 02:17:25:17 
*FROM CLIP NAME:  A104C021_190828_R3DN 
*PATCH MSMMMOB.72:  FROM SOURCE 1 TO RECORD 5 
*SOURCE FILE: MSMMMOB.72
013496  MSMMMOB.72                       A7    C        00:44:14:24 00:44:18:06 02:17:22:10 02:17:25:17 
*FROM CLIP NAME:  A104C021_190828_R3DN 
*PATCH MSMMMOB.72:  FROM SOURCE 2 TO RECORD 7 
*SOURCE FILE: MSMMMOB.72
013497  GLDR-BAL-300_V02                 V     C        00:00:00:00 00:00:02:23 02:17:22:16 02:17:25:14 
*FROM CLIP NAME:  GLDR-BAL-300_V02 
*SOURCE FILE: GLDR-BAL-300_V02
013498  MSMMMOB.77                       V     C        00:19:02:24 00:19:05:22 02:17:22:16 02:17:25:14 
M2      MSMMMOB.77                                025.0 00:19:02:24 
*FROM CLIP NAME:  A104C014_190828_R3DN 
*SOURCE FILE: MSMMMOB.77
013499  BL                               V     C        00:00:00:00 00:00:02:01 02:17:22:18 02:17:24:19 
*SOURCE FILE: (NULL)
013500  3                                V     C        01:00:00:00 01:00:02:01 02:17:22:18 02:17:24:19 
*FROM CLIP NAME:  3 
*SOURCE FILE: 3
013501  BL                               V     C        00:00:00:00 00:00:05:20 02:17:24:19 02:17:30:14 
*SOURCE FILE: (NULL)
013502  BL                               V     C        00:00:00:00 00:07:03:17 02:17:24:19 02:24:28:11 
*SOURCE FILE: (NULL)
013503  GLDR-BAL-310_V01                 V     C        00:00:00:00 00:00:02:13 02:17:25:14 02:17:28:02 
*FROM CLIP NAME:  GLDR-BAL-310_V01 
*SOURCE FILE: GLDR-BAL-310_V01
013504  MSMMMOB.72                       V     C        00:44:18:10 00:44:20:23 02:17:25:14 02:17:28:02 
M2      MSMMMOB.72                                025.0 00:44:18:10 
*FROM CLIP NAME:  A104C021_190828_R3DN 
*SOURCE FILE: MSMMMOB.72
013505  19Y08M28                         A     C        00:44:18:12 00:44:20:22 02:17:25:17 02:17:28:02 
*FROM CLIP NAME:  99-4/02 
*PATCH 19Y08M28:  FROM SOURCE 4 TO RECORD 1 
*SOURCE FILE: 19Y08M28
013506  19Y08M28                         A2    C        00:44:18:12 00:44:20:22 02:17:25:17 02:17:28:02 
*FROM CLIP NAME:  99-4/02 
*PATCH 19Y08M28:  FROM SOURCE 7 TO RECORD 2 
*SOURCE FILE: 19Y08M28
013507  BL                               A13   C        00:00:00:00 00:00:00:00 02:17:27:06 02:17:27:06 
013507  BONEY_M_-_SUNNY.MP3              A13   D    018 01:02:34:02 01:02:34:20 02:17:27:06 02:17:27:24 
*TO CLIP NAME:  BONEY M - SUNNY.MP3 
*A13 VOL = -10.0 DB  PAN L100 
*PATCH BONEY_M_-_SUNNY.MP3:  FROM SOURCE 1 TO RECORD 13 
*SOURCE FILE: (NULL)
013508  BL                               A14   C        00:00:00:00 00:00:00:00 02:17:27:06 02:17:27:06 
013508  BONEY_M_-_SUNNY.MP3              A14   D    018 01:02:34:02 01:02:34:20 02:17:27:06 02:17:27:24 
*TO CLIP NAME:  BONEY M - SUNNY.MP3 
*A14 VOL = -10.0 DB  PAN R98 
*PATCH BONEY_M_-_SUNNY.MP3:  FROM SOURCE 2 TO RECORD 14 
*SOURCE FILE: (NULL)
013509  BONEY_M_-_SUNNY.MP3              A13   C        01:02:34:20 01:03:49:09 02:17:27:24 02:18:42:13 
*FROM CLIP NAME:  BONEY M - SUNNY.MP3 
*A13 VOL = -10.0 DB  PAN L100 
*PATCH BONEY_M_-_SUNNY.MP3:  FROM SOURCE 1 TO RECORD 13 
*SOURCE FILE: BONEY M - SUNNY.MP3
013510  BONEY_M_-_SUNNY.MP3              A14   C        01:02:34:20 01:03:49:09 02:17:27:24 02:18:42:13 
*FROM CLIP NAME:  BONEY M - SUNNY.MP3 
*A14 VOL = -10.0 DB  PAN R98 
*PATCH BONEY_M_-_SUNNY.MP3:  FROM SOURCE 2 TO RECORD 14 
*SOURCE FILE: BONEY M - SUNNY.MP3
013511  MSMMMOB.32                       V     C        00:35:11:00 00:35:12:04 02:17:28:02 02:17:29:06 
M2      MSMMMOB.32                                025.0 00:35:11:00 
*FROM CLIP NAME:  A104C019_190828_R3DN 
*SOURCE FILE: MSMMMOB.32
013512  BL                               V     C        00:00:00:00 00:00:01:04 02:17:28:02 02:17:29:06 
*SOURCE FILE: (NULL)
013513  19Y08M28                         A     C        00:35:10:24 00:35:12:03 02:17:28:02 02:17:29:06 
*FROM CLIP NAME:  99-3/02 
*PATCH 19Y08M28:  FROM SOURCE 4 TO RECORD 1 
*SOURCE FILE: 19Y08M28
013514  19Y08M28                         A2    C        00:35:10:24 00:35:12:03 02:17:28:02 02:17:29:06 
*FROM CLIP NAME:  99-3/02 
*PATCH 19Y08M28:  FROM SOURCE 7 TO RECORD 2 
*SOURCE FILE: 19Y08M28
013515                                   A     C        14:30:08:03 14:30:12:09 02:17:29:06 02:17:33:12 
M2                                                025.0 14:30:08:03 
*FROM CLIP NAME:  M118_C014_20190821_R 
*SOURCE FILE:
013516                                   A2    C        14:30:08:03 14:30:12:09 02:17:29:06 02:17:33:12 
M2                                                025.0 14:30:08:03 
*FROM CLIP NAME:  M118_C014_20190821_R 
*SOURCE FILE:
013517  MSMMMOB.72                       A5    C        00:44:13:05 00:44:17:12 02:17:29:06 02:17:33:13 
*FROM CLIP NAME:  A104C021_190828_R3DN 
*PATCH MSMMMOB.72:  FROM SOURCE 1 TO RECORD 5 
*SOURCE FILE: MSMMMOB.72
013518  19Y08M28                         A6    C        00:44:13:04 00:44:17:11 02:17:29:06 02:17:33:13 
*FROM CLIP NAME:  99-4/02 
*PATCH 19Y08M28:  FROM SOURCE 7 TO RECORD 6 
*SOURCE FILE: 19Y08M28
013519  MSMMMOB.72                       A7    C        00:44:13:05 00:44:17:12 02:17:29:06 02:17:33:13 
*FROM CLIP NAME:  A104C021_190828_R3DN 
*PATCH MSMMMOB.72:  FROM SOURCE 2 TO RECORD 7 
*SOURCE FILE: MSMMMOB.72
013520  19Y08M28                         A8    C        00:44:13:04 00:44:17:11 02:17:29:06 02:17:33:13 
*FROM CLIP NAME:  99-4/02 
*PATCH 19Y08M28:  FROM SOURCE 4 TO RECORD 8 
*SOURCE FILE: 19Y08M28
013521                                   V     C        14:30:08:03 14:30:14:23 02:17:29:06 02:17:35:04 
M2                                                028.8 14:30:08:03 
*FROM CLIP NAME:  M118_C014_20190821_R 
*SOURCE FILE: 
*REPAIR: FROM SOURCE TRUE SPEED IS 28.750000 FPS
013522  GLDR-BAL-320_01                  V     C        00:00:00:00 00:00:06:19 02:17:29:06 02:17:35:04 
M2      GLDR-BAL-320_01                           028.7 00:00:00:00 
*FROM CLIP NAME:  GLDR-BAL-320_01 
*SOURCE FILE: GLDR-BAL-320_01 
*REPAIR: FROM SOURCE TRUE SPEED IS 28.716217 FPS
013523  GLDR-BAL-320_TEST_01             V     C        00:00:00:00 00:00:06:17 02:17:29:06 02:17:35:04 
M2      GLDR-BAL-320_TEST_01                      028.4 00:00:00:00 
*FROM CLIP NAME:  GLDR-BAL-320_TEST_01 
*SOURCE FILE: GLDR-BAL-320_TEST_01 
*REPAIR: FROM SOURCE TRUE SPEED IS 28.378378 FPS
013524  BL                               V     C        00:00:00:00 00:00:04:15 02:17:30:14 02:17:35:04 
*SOURCE FILE: (NULL)
013525  19Y08M14                         A     C        19:59:23:14 19:59:24:15 02:17:33:12 02:17:34:13 
*FROM CLIP NAME:  102K1/01.SYNC.01 
*SOURCE FILE: 19Y08M14
013526  19Y08M14                         A2    C        19:59:23:14 19:59:24:15 02:17:33:12 02:17:34:13 
*FROM CLIP NAME:  102K1/01.SYNC.01 
*SOURCE FILE: 19Y08M14
013527  19Y08M14                         A3    C        19:59:23:14 19:59:24:15 02:17:33:12 02:17:34:13 
*FROM CLIP NAME:  102K1/01.SYNC.01 
*SOURCE FILE: 19Y08M14
013528  19Y08M14                         A4    C        19:59:23:14 19:59:24:15 02:17:33:12 02:17:34:13 
*FROM CLIP NAME:  102K1/01.SYNC.01 
*PATCH 19Y08M14:  FROM SOURCE 8 TO RECORD 4 
*SOURCE FILE: 19Y08M14
013529  MSMMMOB.72                       A5    C        00:44:17:12 00:44:17:12 02:17:33:13 02:17:33:13 
013529  BL                               A5    D    041 00:00:00:00 00:00:01:16 02:17:33:13 02:17:35:04 
*FROM CLIP NAME:  A104C021_190828_R3DN 
*PATCH MSMMMOB.72:  FROM SOURCE 1 TO RECORD 5 
*SOURCE FILE: MSMMMOB.72
013530  19Y08M28                         A6    C        00:44:17:11 00:44:17:11 02:17:33:13 02:17:33:13 
013530  BL                               A6    D    041 00:00:00:00 00:00:01:16 02:17:33:13 02:17:35:04 
*FROM CLIP NAME:  99-4/02 
*PATCH 19Y08M28:  FROM SOURCE 7 TO RECORD 6 
*SOURCE FILE: 19Y08M28
013531  MSMMMOB.72                       A7    C        00:44:17:12 00:44:17:12 02:17:33:13 02:17:33:13 
013531  BL                               A7    D    041 00:00:00:00 00:00:01:16 02:17:33:13 02:17:35:04 
*FROM CLIP NAME:  A104C021_190828_R3DN 
*PATCH MSMMMOB.72:  FROM SOURCE 2 TO RECORD 7 
*SOURCE FILE: MSMMMOB.72
013532  19Y08M28                         A8    C        00:44:17:11 00:44:17:11 02:17:33:13 02:17:33:13 
013532  BL                               A8    D    041 00:00:00:00 00:00:01:16 02:17:33:13 02:17:35:04 
*FROM CLIP NAME:  99-4/02 
*PATCH 19Y08M28:  FROM SOURCE 4 TO RECORD 8 
*SOURCE FILE: 19Y08M28
013533  19Y08M14                         A     C        19:59:25:02 19:59:25:17 02:17:34:13 02:17:35:03 
*FROM CLIP NAME:  102K1/01.SYNC.01 
*SOURCE FILE: 19Y08M14
013534  19Y08M14                         A2    C        19:59:25:02 19:59:25:17 02:17:34:13 02:17:35:03 
*FROM CLIP NAME:  102K1/01.SYNC.01 
*SOURCE FILE: 19Y08M14
013535  19Y08M14                         A3    C        19:59:25:02 19:59:25:17 02:17:34:13 02:17:35:03 
*FROM CLIP NAME:  102K1/01.SYNC.01 
*SOURCE FILE: 19Y08M14
013536  19Y08M14                         A4    C        19:59:25:02 19:59:25:17 02:17:34:13 02:17:35:03 
*FROM CLIP NAME:  102K1/01.SYNC.01 
*PATCH 19Y08M14:  FROM SOURCE 8 TO RECORD 4 
*SOURCE FILE: 19Y08M14
013537  19Y08M14                         A     C        19:59:25:17 19:59:25:17 02:17:35:03 02:17:35:03 
013537  19Y08M14                         A     D    002 20:03:29:12 20:03:29:14 02:17:35:03 02:17:35:05 
*FROM CLIP NAME:  102K1/01.SYNC.01 
*TO CLIP NAME:  102K1/03.SYNC.01 
*SOURCE FILE: 19Y08M14
013538  19Y08M14                         A2    C        19:59:25:17 19:59:25:17 02:17:35:03 02:17:35:03 
013538  19Y08M14                         A2    D    002 20:03:29:12 20:03:29:14 02:17:35:03 02:17:35:05 
*FROM CLIP NAME:  102K1/01.SYNC.01 
*TO CLIP NAME:  102K1/03.SYNC.01 
*SOURCE FILE: 19Y08M14
013539  19Y08M14                         A3    C        19:59:25:17 19:59:25:17 02:17:35:03 02:17:35:03 
013539  19Y08M14                         A3    D    002 20:03:29:12 20:03:29:14 02:17:35:03 02:17:35:05 
*FROM CLIP NAME:  102K1/01.SYNC.01 
*TO CLIP NAME:  102K1/03.SYNC.01 
*SOURCE FILE: 19Y08M14
013540  19Y08M14                         A4    C        19:59:25:17 19:59:25:17 02:17:35:03 02:17:35:03 
013540  19Y08M14                         A4    D    002 20:03:29:12 20:03:29:14 02:17:35:03 02:17:35:05 
*FROM CLIP NAME:  102K1/01.SYNC.01 
*TO CLIP NAME:  102K1/03.SYNC.01 
*PATCH 19Y08M14:  FROM SOURCE 8 TO RECORD 4 
*PATCH 19Y08M14:  FROM SOURCE 8 TO RECORD 4 
*SOURCE FILE: 19Y08M14
013541  MSMMMOB.58                       V     C        18:31:57:05 18:31:59:00 02:17:35:04 02:17:36:24 
M2      MSMMMOB.58                                025.0 18:31:57:05 
*FROM CLIP NAME:  B026C010_190814_R481 
*SOURCE FILE: MSMMMOB.58
013543  BL                               V     C        00:00:00:00 00:00:03:20 02:17:35:04 02:17:38:24 
*SOURCE FILE: (NULL)
013542  BL                               V     C        00:00:00:00 00:00:03:20 02:17:35:04 02:17:38:24 
*SOURCE FILE: (NULL)
013544  BL                               V     C        00:00:00:00 00:00:07:16 02:17:35:04 02:17:42:20 
*SOURCE FILE: (NULL)
013545  19Y08M14                         A     C        20:03:29:14 20:03:29:15 02:17:35:05 02:17:35:06 
*FROM CLIP NAME:  102K1/03.SYNC.01 
*SOURCE FILE: 19Y08M14
013546  19Y08M14                         A2    C        20:03:29:14 20:03:29:15 02:17:35:05 02:17:35:06 
*FROM CLIP NAME:  102K1/03.SYNC.01 
*SOURCE FILE: 19Y08M14
013547  19Y08M14                         A3    C        20:03:29:14 20:03:29:15 02:17:35:05 02:17:35:06 
*FROM CLIP NAME:  102K1/03.SYNC.01 
*SOURCE FILE: 19Y08M14
013548  19Y08M14                         A4    C        20:03:29:14 20:03:29:15 02:17:35:05 02:17:35:06 
*FROM CLIP NAME:  102K1/03.SYNC.01 
*PATCH 19Y08M14:  FROM SOURCE 8 TO RECORD 4 
*SOURCE FILE: 19Y08M14
013549  19Y08M14                         A     C        18:31:57:06 18:32:00:03 02:17:35:06 02:17:38:03 
*FROM CLIP NAME:  97K3/02.SYNC.01 
*SOURCE FILE: 19Y08M14
013550  19Y08M14                         A2    C        18:31:57:06 18:32:00:03 02:17:35:06 02:17:38:03 
*FROM CLIP NAME:  97K3/02.SYNC.01 
*SOURCE FILE: 19Y08M14
013551  19Y08M14                         A3    C        18:31:57:06 18:32:00:03 02:17:35:06 02:17:38:03 
*FROM CLIP NAME:  97K3/02.SYNC.01 
*SOURCE FILE: 19Y08M14
013552  19Y08M14                         A4    C        18:31:57:06 18:32:01:09 02:17:35:06 02:17:39:09 
*FROM CLIP NAME:  97K3/02.SYNC.01 
*PATCH 19Y08M14:  FROM SOURCE 5 TO RECORD 4 
*SOURCE FILE: 19Y08M14
013553  19Y08M14                         A5    C        18:31:57:06 18:32:01:09 02:17:35:06 02:17:39:09 
*FROM CLIP NAME:  97K3/02.SYNC.01 
*PATCH 19Y08M14:  FROM SOURCE 8 TO RECORD 5 
*SOURCE FILE: 19Y08M14
013554  MSMMMOB.03                       V     C        20:23:00:23 20:23:02:23 02:17:36:24 02:17:38:24 
M2      MSMMMOB.03                                025.0 20:23:00:23 
*FROM CLIP NAME:  A079C006_190814_R32C 
*SOURCE FILE: MSMMMOB.03
013555  19Y08M14                         A     C        20:23:01:02 20:23:02:08 02:17:38:03 02:17:39:09 
*FROM CLIP NAME:  102K2/02.SYNC.01 
*SOURCE FILE: 19Y08M14
013556  MSMMMOB.03                       A2    C        20:23:01:03 20:23:02:09 02:17:38:03 02:17:39:09 
*FROM CLIP NAME:  A079C006_190814_R32C 
*SOURCE FILE: MSMMMOB.03
013557  19Y08M14                         A3    C        20:23:01:02 20:23:02:08 02:17:38:03 02:17:39:09 
*FROM CLIP NAME:  102K2/02.SYNC.01 
*SOURCE FILE: 19Y08M14
013558  GLDR-BAL-330_V01                 V     C        00:00:00:00 00:00:02:08 02:17:38:24 02:17:41:07 
*FROM CLIP NAME:  GLDR-BAL-330_V01 
*SOURCE FILE: GLDR-BAL-330_V01
013560  BL                               V     C        00:00:00:00 00:00:02:08 02:17:38:24 02:17:41:07 
*SOURCE FILE: (NULL)
013559  MSMMMOB.66                       V     C        20:03:29:22 20:03:32:05 02:17:38:24 02:17:41:07 
M2      MSMMMOB.66                                025.0 20:03:29:22 
*FROM CLIP NAME:  B027C004_190814_R481 
*SOURCE FILE: MSMMMOB.66
013561  19Y08M14                         A     C        20:03:30:06 20:03:32:04 02:17:39:09 02:17:41:07 
*FROM CLIP NAME:  102K1/03.SYNC.01 
*SOURCE FILE: 19Y08M14
013562  19Y08M14                         A2    C        20:03:30:06 20:03:32:04 02:17:39:09 02:17:41:07 
*FROM CLIP NAME:  102K1/03.SYNC.01 
*SOURCE FILE: 19Y08M14
013563  19Y08M14                         A3    C        20:03:30:06 20:03:32:04 02:17:39:09 02:17:41:07 
*FROM CLIP NAME:  102K1/03.SYNC.01 
*SOURCE FILE: 19Y08M14
013564  19Y08M14                         A4    C        20:03:30:06 20:03:32:04 02:17:39:09 02:17:41:07 
*FROM CLIP NAME:  102K1/03.SYNC.01 
*PATCH 19Y08M14:  FROM SOURCE 8 TO RECORD 4 
*SOURCE FILE: 19Y08M14
013566                                   V     C        17:36:28:23 17:36:30:11 02:17:41:07 02:17:42:20 
M2                                                025.0 17:36:28:23 
*FROM CLIP NAME:  A094C008_190821_R32C 
*SOURCE FILE:
013565  BL                               V     C        00:00:00:00 00:00:01:13 02:17:41:07 02:17:42:20 
*SOURCE FILE: (NULL)
013567  BL                               V     C        00:00:00:00 00:00:01:13 02:17:41:07 02:17:42:20 
*SOURCE FILE: (NULL)
013568  19Y08M21                         A     C        17:36:28:22 17:36:30:10 02:17:41:07 02:17:42:20 
*FROM CLIP NAME:  95GK1/02 
*SOURCE FILE: 19Y08M21
013569  19Y08M21                         A2    C        17:36:28:22 17:36:30:10 02:17:41:07 02:17:42:20 
*FROM CLIP NAME:  95GK1/02 
*SOURCE FILE: 19Y08M21
013570  19Y08M21                         A3    C        17:36:28:22 17:36:30:10 02:17:41:07 02:17:42:20 
*FROM CLIP NAME:  95GK1/02 
*SOURCE FILE: 19Y08M21
013571  19Y08M21                         A4    C        17:36:28:22 17:36:30:10 02:17:41:07 02:17:42:20 
*FROM CLIP NAME:  95GK1/02 
*SOURCE FILE: 19Y08M21
013572  19Y08M21                         A5    C        17:36:28:22 17:36:30:10 02:17:41:07 02:17:42:20 
*FROM CLIP NAME:  95GK1/02 
*PATCH 19Y08M21:  FROM SOURCE 7 TO RECORD 5 
*SOURCE FILE: 19Y08M21
013574  BL                               V     C        00:00:00:00 00:00:02:05 02:17:42:20 02:17:45:00 
*SOURCE FILE: (NULL)
013573  GLDR-BAL-350_V01                 V     C        00:00:00:00 00:00:02:05 02:17:42:20 02:17:45:00 
*FROM CLIP NAME:  GLDR-BAL-350_V01 
*SOURCE FILE: GLDR-BAL-350_V01
013575                                   V     C        14:45:03:20 14:45:06:00 02:17:42:20 02:17:45:00 
M2                                                025.0 14:45:03:20 
*FROM CLIP NAME:  M118_C016_20190821_R 
*SOURCE FILE:
013576  GLDR-BAL-350_TEST_V01.1          V     C        00:00:00:00 00:00:02:05 02:17:42:20 02:17:45:00 
*FROM CLIP NAME:  GLDR-BAL-350_TEST_V01 
*SOURCE FILE: GLDR-BAL-350_TEST_V01.1
013577                                   A     C        14:45:03:20 14:45:06:00 02:17:42:20 02:17:45:00 
M2                                                025.0 14:45:03:20 
*FROM CLIP NAME:  M118_C016_20190821_R 
*SOURCE FILE:
013578                                   A2    C        14:45:03:20 14:45:06:00 02:17:42:20 02:17:45:00 
M2                                                025.0 14:45:03:20 
*FROM CLIP NAME:  M118_C016_20190821_R 
*SOURCE FILE:
013580  MSMMMOB.41                       V     C        19:22:37:08 19:22:38:17 02:17:45:00 02:17:46:09 
M2      MSMMMOB.41                                025.0 19:22:37:08 
*FROM CLIP NAME:  A095C007_190821_R32C 
*SOURCE FILE: MSMMMOB.41
013581  BL                               V     C        00:00:00:00 00:00:01:09 02:17:45:00 02:17:46:09 
*SOURCE FILE: (NULL)
013579  BL                               V     C        00:00:00:00 00:00:01:09 02:17:45:00 02:17:46:09 
*SOURCE FILE: (NULL)
013582  MSMMMOB.41                       A     C        19:22:37:08 19:22:38:17 02:17:45:00 02:17:46:09 
*FROM CLIP NAME:  A095C007_190821_R32C 
*SOURCE FILE: MSMMMOB.41
013583  19Y08M21                         A2    C        19:22:37:06 19:22:38:15 02:17:45:00 02:17:46:09 
*FROM CLIP NAME:  95K2/03 
*SOURCE FILE: 19Y08M21
013584  19Y08M21                         A3    C        19:22:37:06 19:22:38:15 02:17:45:00 02:17:46:09 
*FROM CLIP NAME:  95K2/03 
*PATCH 19Y08M21:  FROM SOURCE 7 TO RECORD 3 
*SOURCE FILE: 19Y08M21
013585  19Y08M21                         A4    C        19:22:37:06 19:22:38:15 02:17:45:00 02:17:46:09 
*FROM CLIP NAME:  95K2/03 
*SOURCE FILE: 19Y08M21
013586  BL                               V     C        00:00:00:00 00:00:17:15 02:17:45:00 02:18:02:15 
*SOURCE FILE: (NULL)
013588  GLDR-BAL-370_V01                 V     C        00:00:00:00 00:00:01:06 02:17:46:09 02:17:47:15 
*FROM CLIP NAME:  GLDR-BAL-370_V01 
*SOURCE FILE: GLDR-BAL-370_V01
013589  BL                               V     C        00:00:00:00 00:00:01:06 02:17:46:09 02:17:47:15 
*SOURCE FILE: (NULL)
013587  MSMMMOB.66                       V     C        20:03:35:23 20:03:37:04 02:17:46:09 02:17:47:15 
M2      MSMMMOB.66                                025.0 20:03:35:23 
*FROM CLIP NAME:  B027C004_190814_R481 
*SOURCE FILE: MSMMMOB.66
013590  19Y08M14                         A     C        20:03:35:22 20:03:39:19 02:17:46:09 02:17:50:06 
*FROM CLIP NAME:  102K1/03.SYNC.01 
*SOURCE FILE: 19Y08M14
013591  19Y08M14                         A2    C        20:03:35:22 20:03:39:19 02:17:46:09 02:17:50:06 
*FROM CLIP NAME:  102K1/03.SYNC.01 
*SOURCE FILE: 19Y08M14
013592  19Y08M14                         A3    C        20:03:35:22 20:03:39:19 02:17:46:09 02:17:50:06 
*FROM CLIP NAME:  102K1/03.SYNC.01 
*SOURCE FILE: 19Y08M14
013593  19Y08M14                         A4    C        20:03:35:22 20:03:39:19 02:17:46:09 02:17:50:06 
*FROM CLIP NAME:  102K1/03.SYNC.01 
*PATCH 19Y08M14:  FROM SOURCE 8 TO RECORD 4 
*SOURCE FILE: 19Y08M14
013596  BL                               V     C        00:00:00:00 00:00:01:08 02:17:47:15 02:17:48:23 
*SOURCE FILE: (NULL)
013595  MSMMMOB.30                       V     C        20:03:37:04 20:03:38:12 02:17:47:15 02:17:48:23 
M2      MSMMMOB.30                                025.0 20:03:37:04 
*FROM CLIP NAME:  A079C004_190814_R32C 
*SOURCE FILE: MSMMMOB.30
013594  BL                               V     C        00:00:00:00 00:00:01:08 02:17:47:15 02:17:48:23 
*SOURCE FILE: (NULL)
013597  19Y08M14                         A6    C        18:32:37:17 18:32:38:20 02:17:48:18 02:17:49:21 
*FROM CLIP NAME:  97K3/02.SYNC.01 
*PATCH 19Y08M14:  FROM SOURCE 2 TO RECORD 6 
*SOURCE FILE: 19Y08M14
013598  19Y08M14                         A7    C        18:32:37:17 18:32:38:20 02:17:48:18 02:17:49:21 
*FROM CLIP NAME:  97K3/02.SYNC.01 
*PATCH 19Y08M14:  FROM SOURCE 1 TO RECORD 7 
*SOURCE FILE: 19Y08M14
013599  19Y08M14                         A8    C        18:32:37:17 18:32:38:20 02:17:48:18 02:17:49:21 
*FROM CLIP NAME:  97K3/02.SYNC.01 
*SOURCE FILE: 19Y08M14
013600  19Y08M14                         A9    C        18:32:37:17 18:32:38:20 02:17:48:18 02:17:49:21 
*FROM CLIP NAME:  97K3/02.SYNC.01 
*PATCH 19Y08M14:  FROM SOURCE 3 TO RECORD 9 
*SOURCE FILE: 19Y08M14
013601  19Y08M14                         A10   C        18:32:37:17 18:32:38:20 02:17:48:18 02:17:49:21 
*FROM CLIP NAME:  97K3/02.SYNC.01 
*PATCH 19Y08M14:  FROM SOURCE 5 TO RECORD 10 
*SOURCE FILE: 19Y08M14
013604  BL                               V     C        00:00:00:00 00:00:01:08 02:17:48:23 02:17:50:06 
*SOURCE FILE: (NULL)
013602  GLDR-BAL-380_V01                 V     C        00:00:00:00 00:00:01:08 02:17:48:23 02:17:50:06 
*FROM CLIP NAME:  GLDR-BAL-380_V01 
*SOURCE FILE: GLDR-BAL-380_V01
013603  MSMMMOB.66                       V     C        20:03:38:12 20:03:39:20 02:17:48:23 02:17:50:06 
M2      MSMMMOB.66                                025.0 20:03:38:12 
*FROM CLIP NAME:  B027C004_190814_R481 
*SOURCE FILE: MSMMMOB.66
013606  BL                               V     C        00:00:00:00 00:00:01:12 02:17:50:06 02:17:51:18 
*SOURCE FILE: (NULL)
013607  GLDR-BAL-390_V01                 V     C        00:00:00:00 00:00:01:12 02:17:50:06 02:17:51:18 
*FROM CLIP NAME:  GLDR-BAL-390_V01 
*SOURCE FILE: GLDR-BAL-390_V01
013605                                   V     C        17:45:15:05 17:45:16:17 02:17:50:06 02:17:51:18 
M2                                                025.0 17:45:15:05 
*FROM CLIP NAME:  A094C010_190821_R32C 
*SOURCE FILE:
013608  19Y08M21                         A     C        17:45:15:04 17:45:16:16 02:17:50:06 02:17:51:18 
*FROM CLIP NAME:  95GK3/01 
*SOURCE FILE: 19Y08M21
013609  19Y08M21                         A2    C        17:45:15:04 17:45:16:16 02:17:50:06 02:17:51:18 
*FROM CLIP NAME:  95GK3/01 
*SOURCE FILE: 19Y08M21
013610  19Y08M21                         A3    C        17:45:15:04 17:45:16:16 02:17:50:06 02:17:51:18 
*FROM CLIP NAME:  95GK3/01 
*SOURCE FILE: 19Y08M21
013611  19Y08M21                         A4    C        17:45:15:04 17:45:16:16 02:17:50:06 02:17:51:18 
*FROM CLIP NAME:  95GK3/01 
*SOURCE FILE: 19Y08M21
013612  19Y08M21                         A5    C        17:45:15:04 17:45:16:16 02:17:50:06 02:17:51:18 
*FROM CLIP NAME:  95GK3/01 
*PATCH 19Y08M21:  FROM SOURCE 7 TO RECORD 5 
*SOURCE FILE: 19Y08M21
013613  MSMMMOB.41                       A3    C        19:22:01:15 19:22:03:02 02:17:51:18 02:17:53:05 
*FROM CLIP NAME:  A095C007_190821_R32C 
*PATCH MSMMMOB.41:  FROM SOURCE 1 TO RECORD 3 
*SOURCE FILE: MSMMMOB.41
013614  19Y08M21                         A4    C        19:22:01:13 19:22:03:00 02:17:51:18 02:17:53:05 
*FROM CLIP NAME:  95K2/03 
*PATCH 19Y08M21:  FROM SOURCE 2 TO RECORD 4 
*SOURCE FILE: 19Y08M21
013615  19Y08M21                         A5    C        19:22:01:13 19:22:03:00 02:17:51:18 02:17:53:05 
*FROM CLIP NAME:  95K2/03 
*PATCH 19Y08M21:  FROM SOURCE 7 TO RECORD 5 
*SOURCE FILE: 19Y08M21
013616  19Y08M21                         A7    C        19:22:01:13 19:22:03:00 02:17:51:18 02:17:53:05 
*FROM CLIP NAME:  95K2/03 
*PATCH 19Y08M21:  FROM SOURCE 4 TO RECORD 7 
*SOURCE FILE: 19Y08M21
013617                                   A     C        15:07:41:24 15:07:43:14 02:17:51:18 02:17:53:08 
M2                                                025.0 15:07:41:24 
*FROM CLIP NAME:  M118_C019_20190821_R 
*SOURCE FILE:
013618                                   A2    C        15:07:41:24 15:07:43:14 02:17:51:18 02:17:53:08 
M2                                                025.0 15:07:41:24 
*FROM CLIP NAME:  M118_C019_20190821_R 
*SOURCE FILE:
013622  GLDR-BAL-400_V01                 V     C        00:00:00:00 00:00:01:17 02:17:51:18 02:17:53:10 
*FROM CLIP NAME:  GLDR-BAL-400_V01 
*SOURCE FILE: GLDR-BAL-400_V01
013620                                   V     C        18:13:20:02 18:13:21:19 02:17:51:18 02:17:53:10 
M2                                                025.0 18:13:20:02 
*FROM CLIP NAME:  95G_100B_100D-6-1 
*SOURCE FILE:
013619  BL                               V     C        00:00:00:00 00:00:01:17 02:17:51:18 02:17:53:10 
*SOURCE FILE: (NULL)
013621                                   V     C        15:07:41:24 15:07:43:16 02:17:51:18 02:17:53:10 
M2                                                025.0 15:07:41:24 
*FROM CLIP NAME:  M118_C019_20190821_R 
*SOURCE FILE:
013623                                   A     C        15:07:43:14 15:07:43:14 02:17:53:08 02:17:53:08 
013623  19Y08M14                         A     D    005 20:03:44:01 20:03:44:06 02:17:53:08 02:17:53:13 
M2                                                025.0 15:07:43:14 
*FROM CLIP NAME:  M118_C019_20190821_R 
*TO CLIP NAME:  102K1/03.SYNC.01 
*SOURCE FILE:
013624                                   A2    C        15:07:43:14 15:07:43:14 02:17:53:08 02:17:53:08 
013624  19Y08M14                         A2    D    005 20:03:44:01 20:03:44:06 02:17:53:08 02:17:53:13 
M2                                                025.0 15:07:43:14 
*FROM CLIP NAME:  M118_C019_20190821_R 
*TO CLIP NAME:  102K1/03.SYNC.01 
*SOURCE FILE:
013625  BL                               A3    C        00:00:00:00 00:00:00:00 02:17:53:08 02:17:53:08 
013625  19Y08M14                         A3    D    005 20:03:44:01 20:03:44:06 02:17:53:08 02:17:53:13 
*TO CLIP NAME:  102K1/03.SYNC.01 
*SOURCE FILE: (NULL)
013626  BL                               A4    C        00:00:00:00 00:00:00:00 02:17:53:08 02:17:53:08 
013626  19Y08M14                         A4    D    005 20:03:44:01 20:03:44:06 02:17:53:08 02:17:53:13 
*TO CLIP NAME:  102K1/03.SYNC.01 
*PATCH 19Y08M14:  FROM SOURCE 8 TO RECORD 4 
*SOURCE FILE: (NULL)
013627  GLDR-BAL-410_V01                 V     C        00:00:00:00 00:00:02:01 02:17:53:10 02:17:55:11 
*FROM CLIP NAME:  GLDR-BAL-410_V01 
*SOURCE FILE: GLDR-BAL-410_V01
013628  MSMMMOB.66                       V     C        20:03:44:04 20:03:46:05 02:17:53:10 02:17:55:11 
M2      MSMMMOB.66                                025.0 20:03:44:04 
*FROM CLIP NAME:  B027C004_190814_R481 
*SOURCE FILE: MSMMMOB.66
013629  BL                               V     C        00:00:00:00 00:00:02:01 02:17:53:10 02:17:55:11 
*SOURCE FILE: (NULL)
013630  BL                               V     C        00:00:00:00 00:00:20:04 02:17:53:10 02:18:13:14 
*SOURCE FILE: (NULL)
013631  19Y08M14                         A     C        20:03:44:06 20:03:47:07 02:17:53:13 02:17:56:14 
*FROM CLIP NAME:  102K1/03.SYNC.01 
*SOURCE FILE: 19Y08M14
013632  19Y08M14                         A2    C        20:03:44:06 20:03:47:07 02:17:53:13 02:17:56:14 
*FROM CLIP NAME:  102K1/03.SYNC.01 
*SOURCE FILE: 19Y08M14
013633  19Y08M14                         A3    C        20:03:44:06 20:03:47:07 02:17:53:13 02:17:56:14 
*FROM CLIP NAME:  102K1/03.SYNC.01 
*SOURCE FILE: 19Y08M14
013634  19Y08M14                         A4    C        20:03:44:06 20:03:47:07 02:17:53:13 02:17:56:14 
*FROM CLIP NAME:  102K1/03.SYNC.01 
*PATCH 19Y08M14:  FROM SOURCE 8 TO RECORD 4 
*SOURCE FILE: 19Y08M14
013636  BL                               V     C        00:00:00:00 00:00:01:03 02:17:55:11 02:17:56:14 
*SOURCE FILE: (NULL)
013637  BL                               V     C        00:00:00:00 00:00:01:03 02:17:55:11 02:17:56:14 
*SOURCE FILE: (NULL)
013635  MSMMMOB.30                       V     C        20:03:46:05 20:03:47:08 02:17:55:11 02:17:56:14 
M2      MSMMMOB.30                                025.0 20:03:46:05 
*FROM CLIP NAME:  A079C004_190814_R32C 
*SOURCE FILE: MSMMMOB.30
013638  19Y08M14                         A6    C        18:32:45:11 18:32:46:22 02:17:56:03 02:17:57:14 
*FROM CLIP NAME:  97K3/02.SYNC.01 
*PATCH 19Y08M14:  FROM SOURCE 2 TO RECORD 6 
*SOURCE FILE: 19Y08M14
013639  19Y08M14                         A7    C        18:32:45:11 18:32:46:22 02:17:56:03 02:17:57:14 
*FROM CLIP NAME:  97K3/02.SYNC.01 
*PATCH 19Y08M14:  FROM SOURCE 1 TO RECORD 7 
*SOURCE FILE: 19Y08M14
013640  19Y08M14                         A8    C        18:32:45:11 18:32:46:22 02:17:56:03 02:17:57:14 
*FROM CLIP NAME:  97K3/02.SYNC.01 
*SOURCE FILE: 19Y08M14
013641  19Y08M14                         A9    C        18:32:45:11 18:32:46:22 02:17:56:03 02:17:57:14 
*FROM CLIP NAME:  97K3/02.SYNC.01 
*PATCH 19Y08M14:  FROM SOURCE 3 TO RECORD 9 
*SOURCE FILE: 19Y08M14
013642  19Y08M14                         A10   C        18:32:45:11 18:32:46:22 02:17:56:03 02:17:57:14 
*FROM CLIP NAME:  97K3/02.SYNC.01 
*PATCH 19Y08M14:  FROM SOURCE 5 TO RECORD 10 
*SOURCE FILE: 19Y08M14
013643  19Y08M14                         A     C        20:03:38:07 20:03:39:01 02:17:56:14 02:17:57:08 
*FROM CLIP NAME:  102K1/03.SYNC.01 
*SOURCE FILE: 19Y08M14
013644  19Y08M14                         A2    C        20:03:38:07 20:03:39:01 02:17:56:14 02:17:57:08 
*FROM CLIP NAME:  102K1/03.SYNC.01 
*SOURCE FILE: 19Y08M14
013645  19Y08M14                         A3    C        20:03:38:07 20:03:39:01 02:17:56:14 02:17:57:08 
*FROM CLIP NAME:  102K1/03.SYNC.01 
*SOURCE FILE: 19Y08M14
013646  19Y08M14                         A4    C        20:03:38:07 20:03:39:01 02:17:56:14 02:17:57:08 
*FROM CLIP NAME:  102K1/03.SYNC.01 
*PATCH 19Y08M14:  FROM SOURCE 8 TO RECORD 4 
*SOURCE FILE: 19Y08M14
013648  MSMMMOB.03                       V     C        20:23:10:11 20:23:12:19 02:17:56:14 02:17:58:22 
M2      MSMMMOB.03                                025.0 20:23:10:11 
*FROM CLIP NAME:  A079C006_190814_R32C 
*SOURCE FILE: MSMMMOB.03
013647  BL                               V     C        00:00:00:00 00:00:02:08 02:17:56:14 02:17:58:22 
*SOURCE FILE: (NULL)
013649  GLDR-BAL-420_V01                 V     C        00:00:00:00 00:00:02:08 02:17:56:14 02:17:58:22 
*FROM CLIP NAME:  GLDR-BAL-420_V01 
*SOURCE FILE: GLDR-BAL-420_V01
013650  MSMMMOB.03                       A2    C        20:23:10:06 20:23:11:19 02:17:57:08 02:17:58:21 
*FROM CLIP NAME:  A079C006_190814_R32C 
*SOURCE FILE: MSMMMOB.03
013651  19Y08M14                         A3    C        20:23:10:05 20:23:11:18 02:17:57:08 02:17:58:21 
*FROM CLIP NAME:  102K2/02.SYNC.01 
*SOURCE FILE: 19Y08M14
013652  BL                               A     C        00:00:00:00 00:00:00:00 02:17:58:21 02:17:58:21 
013652  19Y08M14                         A     D    002 20:03:47:06 20:03:47:08 02:17:58:21 02:17:58:23 
*TO CLIP NAME:  102K1/03.SYNC.01 
*SOURCE FILE: (NULL)
013653  MSMMMOB.03                       A2    C        20:23:11:19 20:23:11:19 02:17:58:21 02:17:58:21 
013653  19Y08M14                         A2    D    002 20:03:47:06 20:03:47:08 02:17:58:21 02:17:58:23 
*FROM CLIP NAME:  A079C006_190814_R32C 
*TO CLIP NAME:  102K1/03.SYNC.01 
*SOURCE FILE: MSMMMOB.03
013654  19Y08M14                         A3    C        20:23:11:18 20:23:11:18 02:17:58:21 02:17:58:21 
013654  19Y08M14                         A3    D    002 20:03:47:06 20:03:47:08 02:17:58:21 02:17:58:23 
*FROM CLIP NAME:  102K2/02.SYNC.01 
*TO CLIP NAME:  102K1/03.SYNC.01 
*SOURCE FILE: 19Y08M14
013655  BL                               A4    C        00:00:00:00 00:00:00:00 02:17:58:21 02:17:58:21 
013655  19Y08M14                         A4    D    002 20:03:47:06 20:03:47:08 02:17:58:21 02:17:58:23 
*TO CLIP NAME:  102K1/03.SYNC.01 
*PATCH 19Y08M14:  FROM SOURCE 8 TO RECORD 4 
*SOURCE FILE: (NULL)
013657  BL                               V     C        00:00:00:00 00:00:01:17 02:17:58:22 02:18:00:14 
*SOURCE FILE: (NULL)
013658  MSMMMOB.66                       V     C        20:03:47:08 20:03:49:00 02:17:58:22 02:18:00:14 
M2      MSMMMOB.66                                025.0 20:03:47:08 
*FROM CLIP NAME:  B027C004_190814_R481 
*SOURCE FILE: MSMMMOB.66
013656  GLDR-BAL-430_V01                 V     C        00:00:00:00 00:00:01:17 02:17:58:22 02:18:00:14 
*FROM CLIP NAME:  GLDR-BAL-430_V01 
*SOURCE FILE: GLDR-BAL-430_V01
013659  19Y08M14                         A4    C        20:03:47:08 20:03:48:13 02:17:58:23 02:18:00:03 
*FROM CLIP NAME:  102K1/03.SYNC.01 
*PATCH 19Y08M14:  FROM SOURCE 8 TO RECORD 4 
*SOURCE FILE: 19Y08M14
013660  19Y08M14                         A     C        20:03:47:08 20:03:48:23 02:17:58:23 02:18:00:13 
*FROM CLIP NAME:  102K1/03.SYNC.01 
*SOURCE FILE: 19Y08M14
013661  19Y08M14                         A2    C        20:03:47:08 20:03:48:23 02:17:58:23 02:18:00:13 
*FROM CLIP NAME:  102K1/03.SYNC.01 
*SOURCE FILE: 19Y08M14
013662  19Y08M14                         A3    C        20:03:47:08 20:03:48:23 02:17:58:23 02:18:00:13 
*FROM CLIP NAME:  102K1/03.SYNC.01 
*SOURCE FILE: 19Y08M14
013663  19Y08M14                         A     C        20:03:48:23 20:03:48:23 02:18:00:13 02:18:00:13 
013663  MSMMMOB.41                       A     D    002 19:22:23:08 19:22:23:10 02:18:00:13 02:18:00:15 
*FROM CLIP NAME:  102K1/03.SYNC.01 
*TO CLIP NAME:  A095C007_190821_R32C 
*SOURCE FILE: 19Y08M14
013664  19Y08M14                         A2    C        20:03:48:23 20:03:48:23 02:18:00:13 02:18:00:13 
013664  19Y08M21                         A2    D    002 19:22:23:06 19:22:23:08 02:18:00:13 02:18:00:15 
*FROM CLIP NAME:  102K1/03.SYNC.01 
*TO CLIP NAME:  95K2/03 
*SOURCE FILE: 19Y08M14
013665  19Y08M14                         A3    C        20:03:48:23 20:03:48:23 02:18:00:13 02:18:00:13 
013665  19Y08M21                         A3    D    002 19:22:23:06 19:22:23:08 02:18:00:13 02:18:00:15 
*FROM CLIP NAME:  102K1/03.SYNC.01 
*TO CLIP NAME:  95K2/03 
*PATCH 19Y08M21:  FROM SOURCE 7 TO RECORD 3 
*SOURCE FILE: 19Y08M14
013666  BL                               A4    C        00:00:00:00 00:00:00:00 02:18:00:13 02:18:00:13 
013666  19Y08M21                         A4    D    002 19:22:23:06 19:22:23:08 02:18:00:13 02:18:00:15 
*TO CLIP NAME:  95K2/03 
*SOURCE FILE: (NULL)
013667  BL                               V     C        00:00:00:00 00:00:02:01 02:18:00:14 02:18:02:15 
*SOURCE FILE: (NULL)
013669  MSMMMOB.41                       V     C        19:22:23:09 19:22:25:10 02:18:00:14 02:18:02:15 
M2      MSMMMOB.41                                025.0 19:22:23:09 
*FROM CLIP NAME:  A095C007_190821_R32C 
*SOURCE FILE: MSMMMOB.41
013668  BL                               V     C        00:00:00:00 00:00:02:01 02:18:00:14 02:18:02:15 
*SOURCE FILE: (NULL)
013670  MSMMMOB.41                       A     C        19:22:23:10 19:22:25:10 02:18:00:15 02:18:02:15 
*FROM CLIP NAME:  A095C007_190821_R32C 
*SOURCE FILE: MSMMMOB.41
013671  19Y08M21                         A2    C        19:22:23:08 19:22:25:08 02:18:00:15 02:18:02:15 
*FROM CLIP NAME:  95K2/03 
*SOURCE FILE: 19Y08M21
013672  19Y08M21                         A3    C        19:22:23:08 19:22:25:08 02:18:00:15 02:18:02:15 
*FROM CLIP NAME:  95K2/03 
*PATCH 19Y08M21:  FROM SOURCE 7 TO RECORD 3 
*SOURCE FILE: 19Y08M21
013673  19Y08M21                         A4    C        19:22:23:08 19:22:25:08 02:18:00:15 02:18:02:15 
*FROM CLIP NAME:  95K2/03 
*SOURCE FILE: 19Y08M21
013674  MSMMMOB.41                       A     C        19:22:25:10 19:22:25:17 02:18:02:15 02:18:02:22 
*FROM CLIP NAME:  A095C007_190821_R32C 
*A1 VOL = -17.8 DB  PAN R100 
*SOURCE FILE: MSMMMOB.41
013675  19Y08M21                         A2    C        19:22:25:08 19:22:25:15 02:18:02:15 02:18:02:22 
*FROM CLIP NAME:  95K2/03 
*A2 VOL = -17.8 DB  PAN L100 
*SOURCE FILE: 19Y08M21
013676  19Y08M21                         A3    C        19:22:25:08 19:22:25:15 02:18:02:15 02:18:02:22 
*FROM CLIP NAME:  95K2/03 
*A3 VOL = -17.8 DB  PAN R100 
*PATCH 19Y08M21:  FROM SOURCE 7 TO RECORD 3 
*SOURCE FILE: 19Y08M21
013677  19Y08M21                         A4    C        19:22:25:08 19:22:25:15 02:18:02:15 02:18:02:22 
*FROM CLIP NAME:  95K2/03 
*A4 VOL = -17.8 DB  PAN L100 
*SOURCE FILE: 19Y08M21
013678  GLDR-BAL-450_TEST_V01            V     C        00:00:00:00 00:00:01:14 02:18:02:15 02:18:04:04 
*FROM CLIP NAME:  GLDR-BAL-450_TEST_V01 
*SOURCE FILE: GLDR-BAL-450_TEST_V01
013680  GLDR-BAL-450_V01                 V     C        00:00:00:00 00:00:01:14 02:18:02:15 02:18:04:04 
*FROM CLIP NAME:  GLDR-BAL-450_V01 
*SOURCE FILE: GLDR-BAL-450_V01
013679                                   V     C        14:45:11:06 14:45:12:20 02:18:02:15 02:18:04:04 
M2                                                025.0 14:45:11:06 
*FROM CLIP NAME:  M118_C016_20190821_R 
*SOURCE FILE:
013681  BL                               V     C        00:00:00:00 00:00:03:06 02:18:02:15 02:18:05:21 
*SOURCE FILE: (NULL)
013682  MSMMMOB.41                       A     C        19:22:28:02 19:22:29:21 02:18:02:22 02:18:04:16 
*FROM CLIP NAME:  A095C007_190821_R32C 
*A1 VOL =  -5.2 DB  PAN R100 
*SOURCE FILE: MSMMMOB.41
013683  19Y08M21                         A2    C        19:22:28:00 19:22:29:19 02:18:02:22 02:18:04:16 
*FROM CLIP NAME:  95K2/03 
*A2 VOL =  -5.2 DB  PAN L100 
*SOURCE FILE: 19Y08M21
013684  19Y08M21                         A3    C        19:22:28:00 19:22:29:19 02:18:02:22 02:18:04:16 
*FROM CLIP NAME:  95K2/03 
*A3 VOL =  -4.0 DB  PAN R100 
*PATCH 19Y08M21:  FROM SOURCE 7 TO RECORD 3 
*SOURCE FILE: 19Y08M21
013685  19Y08M21                         A4    C        19:22:28:00 19:22:29:19 02:18:02:22 02:18:04:16 
*FROM CLIP NAME:  95K2/03 
*A4 VOL =  -4.0 DB  PAN L100 
*SOURCE FILE: 19Y08M21
013687                                   V     C        14:36:11:18 14:36:13:10 02:18:04:04 02:18:05:21 
M2                                                025.0 14:36:11:18 
*FROM CLIP NAME:  M118_C015_20190821_R 
*SOURCE FILE:
013686  GLDR-BAL-460_V01                 V     C        00:00:00:00 00:00:01:17 02:18:04:04 02:18:05:21 
*FROM CLIP NAME:  GLDR-BAL-460_V01 
*SOURCE FILE: GLDR-BAL-460_V01
013688  GLDR-BAL-460_TEST_01             V     C        00:00:00:00 00:00:01:17 02:18:04:04 02:18:05:21 
*FROM CLIP NAME:  GLDR-BAL-460_TEST_01 
*SOURCE FILE: GLDR-BAL-460_TEST_01
013689  BL                               A     C        00:00:00:00 00:00:00:00 02:18:04:16 02:18:04:16 
013689  19Y08M14                         A     D    002 20:03:38:06 20:03:38:08 02:18:04:16 02:18:04:18 
*TO CLIP NAME:  102K1/03.SYNC.01 
*SOURCE FILE: (NULL)
013690  BL                               A2    C        00:00:00:00 00:00:00:00 02:18:04:16 02:18:04:16 
013690  19Y08M14                         A2    D    002 20:03:38:06 20:03:38:08 02:18:04:16 02:18:04:18 
*TO CLIP NAME:  102K1/03.SYNC.01 
*SOURCE FILE: (NULL)
013691  BL                               A3    C        00:00:00:00 00:00:00:00 02:18:04:16 02:18:04:16 
013691  19Y08M14                         A3    D    002 20:03:38:06 20:03:38:08 02:18:04:16 02:18:04:18 
*TO CLIP NAME:  102K1/03.SYNC.01 
*SOURCE FILE: (NULL)
013692  BL                               A4    C        00:00:00:00 00:00:00:00 02:18:04:16 02:18:04:16 
013692  19Y08M14                         A4    D    002 20:03:38:06 20:03:38:08 02:18:04:16 02:18:04:18 
*TO CLIP NAME:  102K1/03.SYNC.01 
*PATCH 19Y08M14:  FROM SOURCE 8 TO RECORD 4 
*SOURCE FILE: (NULL)
013693  19Y08M14                         A     C        20:03:38:08 20:03:38:19 02:18:04:18 02:18:05:04 
*FROM CLIP NAME:  102K1/03.SYNC.01 
*SOURCE FILE: 19Y08M14
013694  19Y08M14                         A2    C        20:03:38:08 20:03:38:19 02:18:04:18 02:18:05:04 
*FROM CLIP NAME:  102K1/03.SYNC.01 
*SOURCE FILE: 19Y08M14
013695  19Y08M14                         A3    C        20:03:38:08 20:03:38:19 02:18:04:18 02:18:05:04 
*FROM CLIP NAME:  102K1/03.SYNC.01 
*SOURCE FILE: 19Y08M14
013696  19Y08M14                         A4    C        20:03:38:08 20:03:38:19 02:18:04:18 02:18:05:04 
*FROM CLIP NAME:  102K1/03.SYNC.01 
*PATCH 19Y08M14:  FROM SOURCE 8 TO RECORD 4 
*SOURCE FILE: 19Y08M14
013697  19Y08M14                         A     C        20:03:38:19 20:03:38:19 02:18:05:04 02:18:05:04 
013697  19Y08M14                         A     D    002 20:03:50:08 20:03:50:10 02:18:05:04 02:18:05:06 
*FROM CLIP NAME:  102K1/03.SYNC.01 
*TO CLIP NAME:  102K1/03.SYNC.01 
*SOURCE FILE: 19Y08M14
013698  19Y08M14                         A2    C        20:03:38:19 20:03:38:19 02:18:05:04 02:18:05:04 
013698  19Y08M14                         A2    D    002 20:03:50:08 20:03:50:10 02:18:05:04 02:18:05:06 
*FROM CLIP NAME:  102K1/03.SYNC.01 
*TO CLIP NAME:  102K1/03.SYNC.01 
*SOURCE FILE: 19Y08M14
013699  19Y08M14                         A3    C        20:03:38:19 20:03:38:19 02:18:05:04 02:18:05:04 
013699  19Y08M14                         A3    D    002 20:03:50:08 20:03:50:10 02:18:05:04 02:18:05:06 
*FROM CLIP NAME:  102K1/03.SYNC.01 
*TO CLIP NAME:  102K1/03.SYNC.01 
*SOURCE FILE: 19Y08M14
013700  19Y08M14                         A4    C        20:03:38:19 20:03:38:19 02:18:05:04 02:18:05:04 
013700  19Y08M14                         A4    D    002 20:03:50:08 20:03:50:10 02:18:05:04 02:18:05:06 
*FROM CLIP NAME:  102K1/03.SYNC.01 
*TO CLIP NAME:  102K1/03.SYNC.01 
*PATCH 19Y08M14:  FROM SOURCE 8 TO RECORD 4 
*PATCH 19Y08M14:  FROM SOURCE 8 TO RECORD 4 
*SOURCE FILE: 19Y08M14
013701  19Y08M14                         A     C        20:03:50:10 20:03:50:24 02:18:05:06 02:18:05:20 
*FROM CLIP NAME:  102K1/03.SYNC.01 
*SOURCE FILE: 19Y08M14
013702  19Y08M14                         A2    C        20:03:50:10 20:03:50:24 02:18:05:06 02:18:05:20 
*FROM CLIP NAME:  102K1/03.SYNC.01 
*SOURCE FILE: 19Y08M14
013703  19Y08M14                         A3    C        20:03:50:10 20:03:50:24 02:18:05:06 02:18:05:20 
*FROM CLIP NAME:  102K1/03.SYNC.01 
*SOURCE FILE: 19Y08M14
013704  19Y08M14                         A4    C        20:03:50:10 20:03:50:24 02:18:05:06 02:18:05:20 
*FROM CLIP NAME:  102K1/03.SYNC.01 
*PATCH 19Y08M14:  FROM SOURCE 8 TO RECORD 4 
*SOURCE FILE: 19Y08M14
013705  19Y08M14                         A     C        20:03:50:24 20:03:50:24 02:18:05:20 02:18:05:20 
013705  MSMMMOB.41                       A     D    002 19:22:40:01 19:22:40:03 02:18:05:20 02:18:05:22 
*FROM CLIP NAME:  102K1/03.SYNC.01 
*TO CLIP NAME:  A095C007_190821_R32C 
*SOURCE FILE: 19Y08M14
013706  19Y08M14                         A2    C        20:03:50:24 20:03:50:24 02:18:05:20 02:18:05:20 
013706  19Y08M21                         A2    D    002 19:22:39:24 19:22:40:01 02:18:05:20 02:18:05:22 
*FROM CLIP NAME:  102K1/03.SYNC.01 
*TO CLIP NAME:  95K2/03 
*SOURCE FILE: 19Y08M14
013707  19Y08M14                         A3    C        20:03:50:24 20:03:50:24 02:18:05:20 02:18:05:20 
013707  19Y08M21                         A3    D    002 19:22:39:24 19:22:40:01 02:18:05:20 02:18:05:22 
*FROM CLIP NAME:  102K1/03.SYNC.01 
*TO CLIP NAME:  95K2/03 
*PATCH 19Y08M21:  FROM SOURCE 7 TO RECORD 3 
*SOURCE FILE: 19Y08M14
013708  19Y08M14                         A4    C        20:03:50:24 20:03:50:24 02:18:05:20 02:18:05:20 
013708  19Y08M21                         A4    D    002 19:22:39:24 19:22:40:01 02:18:05:20 02:18:05:22 
*FROM CLIP NAME:  102K1/03.SYNC.01 
*TO CLIP NAME:  95K2/03 
*PATCH 19Y08M14:  FROM SOURCE 8 TO RECORD 4 
*SOURCE FILE: 19Y08M14
013711  BL                               V     C        00:00:00:00 00:00:00:18 02:18:05:21 02:18:06:14 
*SOURCE FILE: (NULL)
013710  BL                               V     C        00:00:00:00 00:00:00:18 02:18:05:21 02:18:06:14 
*SOURCE FILE: (NULL)
013709  MSMMMOB.41                       V     C        19:22:40:02 19:22:40:20 02:18:05:21 02:18:06:14 
M2      MSMMMOB.41                                025.0 19:22:40:02 
*FROM CLIP NAME:  A095C007_190821_R32C 
*SOURCE FILE: MSMMMOB.41
013712  BL                               V     C        00:00:00:00 00:00:24:15 02:18:05:21 02:18:30:11 
*SOURCE FILE: (NULL)
013713  MSMMMOB.41                       A     C        19:22:40:03 19:22:40:19 02:18:05:22 02:18:06:13 
*FROM CLIP NAME:  A095C007_190821_R32C 
*SOURCE FILE: MSMMMOB.41
013714  19Y08M21                         A2    C        19:22:40:01 19:22:40:17 02:18:05:22 02:18:06:13 
*FROM CLIP NAME:  95K2/03 
*SOURCE FILE: 19Y08M21
013715  19Y08M21                         A3    C        19:22:40:01 19:22:40:17 02:18:05:22 02:18:06:13 
*FROM CLIP NAME:  95K2/03 
*PATCH 19Y08M21:  FROM SOURCE 7 TO RECORD 3 
*SOURCE FILE: 19Y08M21
013716  19Y08M21                         A4    C        19:22:40:01 19:22:40:17 02:18:05:22 02:18:06:13 
*FROM CLIP NAME:  95K2/03 
*SOURCE FILE: 19Y08M21
013717  MSMMMOB.41                       A     C        19:22:40:19 19:22:40:19 02:18:06:13 02:18:06:13 
013717  19Y08M14                         A     D    002 20:03:55:20 20:03:55:22 02:18:06:13 02:18:06:15 
*FROM CLIP NAME:  A095C007_190821_R32C 
*TO CLIP NAME:  102K1/03.SYNC.01 
*SOURCE FILE: MSMMMOB.41
013718  19Y08M21                         A2    C        19:22:40:17 19:22:40:17 02:18:06:13 02:18:06:13 
013718  19Y08M14                         A2    D    002 20:03:55:20 20:03:55:22 02:18:06:13 02:18:06:15 
*FROM CLIP NAME:  95K2/03 
*TO CLIP NAME:  102K1/03.SYNC.01 
*SOURCE FILE: 19Y08M21
013719  19Y08M21                         A3    C        19:22:40:17 19:22:40:17 02:18:06:13 02:18:06:13 
013719  19Y08M14                         A3    D    002 20:03:55:20 20:03:55:22 02:18:06:13 02:18:06:15 
*FROM CLIP NAME:  95K2/03 
*TO CLIP NAME:  102K1/03.SYNC.01 
*PATCH 19Y08M21:  FROM SOURCE 7 TO RECORD 3 
*SOURCE FILE: 19Y08M21
013720  19Y08M21                         A4    C        19:22:40:17 19:22:40:17 02:18:06:13 02:18:06:13 
013720  19Y08M14                         A4    D    002 20:03:55:20 20:03:55:22 02:18:06:13 02:18:06:15 
*FROM CLIP NAME:  95K2/03 
*TO CLIP NAME:  102K1/03.SYNC.01 
*PATCH 19Y08M14:  FROM SOURCE 8 TO RECORD 4 
*SOURCE FILE: 19Y08M21
013721  MSMMMOB.66                       V     C        20:03:55:22 20:03:59:23 02:18:06:14 02:18:10:15 
M2      MSMMMOB.66                                025.0 20:03:55:22 
*FROM CLIP NAME:  B027C004_190814_R481 
*SOURCE FILE: MSMMMOB.66
013722  GLDR-BAL-480_V01                 V     C        00:00:00:00 00:00:04:01 02:18:06:14 02:18:10:15 
*FROM CLIP NAME:  GLDR-BAL-480_V01 
*SOURCE FILE: GLDR-BAL-480_V01
013723  BL                               V     C        00:00:00:00 00:00:04:01 02:18:06:14 02:18:10:15 
*SOURCE FILE: (NULL)
013724  19Y08M14                         A     C        20:03:55:22 20:04:00:05 02:18:06:15 02:18:10:23 
*FROM CLIP NAME:  102K1/03.SYNC.01 
*SOURCE FILE: 19Y08M14
013725  19Y08M14                         A2    C        20:03:55:22 20:04:00:05 02:18:06:15 02:18:10:23 
*FROM CLIP NAME:  102K1/03.SYNC.01 
*SOURCE FILE: 19Y08M14
013726  19Y08M14                         A3    C        20:03:55:22 20:04:00:05 02:18:06:15 02:18:10:23 
*FROM CLIP NAME:  102K1/03.SYNC.01 
*SOURCE FILE: 19Y08M14
013727  19Y08M14                         A4    C        20:03:55:22 20:04:00:05 02:18:06:15 02:18:10:23 
*FROM CLIP NAME:  102K1/03.SYNC.01 
*PATCH 19Y08M14:  FROM SOURCE 8 TO RECORD 4 
*SOURCE FILE: 19Y08M14
013730  GLDR-BAL-490_V01                 V     C        00:00:00:00 00:00:02:24 02:18:10:15 02:18:13:14 
*FROM CLIP NAME:  GLDR-BAL-490_V01 
*SOURCE FILE: GLDR-BAL-490_V01
013728  BL                               V     C        00:00:00:00 00:00:02:24 02:18:10:15 02:18:13:14 
*SOURCE FILE: (NULL)
013729                                   V     C        17:45:31:17 17:45:34:16 02:18:10:15 02:18:13:14 
M2                                                025.0 17:45:31:17 
*FROM CLIP NAME:  A094C010_190821_R32C 
*SOURCE FILE:
013731  19Y08M14                         A     C        20:04:00:05 20:04:00:05 02:18:10:23 02:18:10:23 
013731  19Y08M21                         A     D    002 17:45:29:12 17:45:29:14 02:18:10:23 02:18:11:00 
*FROM CLIP NAME:  102K1/03.SYNC.01 
*TO CLIP NAME:  95GK3/01 
*SOURCE FILE: 19Y08M14
013732  19Y08M14                         A2    C        20:04:00:05 20:04:00:05 02:18:10:23 02:18:10:23 
013732  19Y08M21                         A2    D    002 17:45:29:12 17:45:29:14 02:18:10:23 02:18:11:00 
*FROM CLIP NAME:  102K1/03.SYNC.01 
*TO CLIP NAME:  95GK3/01 
*SOURCE FILE: 19Y08M14
013733  19Y08M14                         A3    C        20:04:00:05 20:04:00:05 02:18:10:23 02:18:10:23 
013733  19Y08M21                         A3    D    002 17:45:29:12 17:45:29:14 02:18:10:23 02:18:11:00 
*FROM CLIP NAME:  102K1/03.SYNC.01 
*TO CLIP NAME:  95GK3/01 
*SOURCE FILE: 19Y08M14
013734  19Y08M14                         A4    C        20:04:00:05 20:04:00:05 02:18:10:23 02:18:10:23 
013734  19Y08M21                         A4    D    002 17:45:29:12 17:45:29:14 02:18:10:23 02:18:11:00 
*FROM CLIP NAME:  102K1/03.SYNC.01 
*TO CLIP NAME:  95GK3/01 
*PATCH 19Y08M14:  FROM SOURCE 8 TO RECORD 4 
*SOURCE FILE: 19Y08M14
013735  BL                               A5    C        00:00:00:00 00:00:00:00 02:18:10:23 02:18:10:23 
013735  19Y08M21                         A5    D    002 17:45:29:12 17:45:29:14 02:18:10:23 02:18:11:00 
*TO CLIP NAME:  95GK3/01 
*PATCH 19Y08M21:  FROM SOURCE 7 TO RECORD 5 
*SOURCE FILE: (NULL)
013736  19Y08M21                         A     C        17:45:29:14 17:45:29:16 02:18:11:00 02:18:11:02 
*FROM CLIP NAME:  95GK3/01 
*SOURCE FILE: 19Y08M21
013737  19Y08M21                         A2    C        17:45:29:14 17:45:29:16 02:18:11:00 02:18:11:02 
*FROM CLIP NAME:  95GK3/01 
*SOURCE FILE: 19Y08M21
013738  19Y08M21                         A3    C        17:45:29:14 17:45:29:16 02:18:11:00 02:18:11:02 
*FROM CLIP NAME:  95GK3/01 
*SOURCE FILE: 19Y08M21
013739  19Y08M21                         A4    C        17:45:29:14 17:45:29:16 02:18:11:00 02:18:11:02 
*FROM CLIP NAME:  95GK3/01 
*SOURCE FILE: 19Y08M21
013740  19Y08M21                         A5    C        17:45:29:14 17:45:29:16 02:18:11:00 02:18:11:02 
*FROM CLIP NAME:  95GK3/01 
*PATCH 19Y08M21:  FROM SOURCE 7 TO RECORD 5 
*SOURCE FILE: 19Y08M21
013741  19Y08M21                         A     C        17:45:32:13 17:45:34:19 02:18:11:02 02:18:13:08 
*FROM CLIP NAME:  95GK3/01 
*SOURCE FILE: 19Y08M21
013742  19Y08M21                         A2    C        17:45:32:13 17:45:34:19 02:18:11:02 02:18:13:08 
*FROM CLIP NAME:  95GK3/01 
*SOURCE FILE: 19Y08M21
013743  19Y08M21                         A3    C        17:45:32:13 17:45:34:19 02:18:11:02 02:18:13:08 
*FROM CLIP NAME:  95GK3/01 
*SOURCE FILE: 19Y08M21
013744  19Y08M21                         A4    C        17:45:32:13 17:45:34:19 02:18:11:02 02:18:13:08 
*FROM CLIP NAME:  95GK3/01 
*SOURCE FILE: 19Y08M21
013745  19Y08M21                         A5    C        17:45:32:13 17:45:34:19 02:18:11:02 02:18:13:08 
*FROM CLIP NAME:  95GK3/01 
*PATCH 19Y08M21:  FROM SOURCE 7 TO RECORD 5 
*SOURCE FILE: 19Y08M21
013746  M108_C023_20190729_R.MOV         A     C        15:54:10:20 15:54:11:14 02:18:13:08 02:18:14:02 
*FROM CLIP NAME:  M108_C023_20190729_R.NEW.01 
*SOURCE FILE: M108_C023_20190729_R.MOV
013747  M108_C023_20190729_R.MOV         A2    C        15:54:10:20 15:54:11:14 02:18:13:08 02:18:14:02 
*FROM CLIP NAME:  M108_C023_20190729_R.NEW.01 
*SOURCE FILE: M108_C023_20190729_R.MOV
013749                                   V     C        18:05:02:24 18:05:04:16 02:18:13:14 02:18:15:06 
M2                                                025.0 18:05:02:24 
*FROM CLIP NAME:  A094C012_190821_R32C 
*SOURCE FILE:
013751  GLDR-BAL-500_V01                 V     C        00:00:00:00 00:00:01:17 02:18:13:14 02:18:15:06 
*FROM CLIP NAME:  GLDR-BAL-500_V01 
*SOURCE FILE: GLDR-BAL-500_V01
013750  M108_C023_20190729_R.MOV         V     C        15:54:10:09 15:54:12:01 02:18:13:14 02:18:15:06 
*FROM CLIP NAME:  M108_C023_20190729_R.NEW.01 
*SOURCE FILE: M108_C023_20190729_R.MOV
013748  BL                               V     C        00:00:00:00 00:00:01:17 02:18:13:14 02:18:15:06 
*SOURCE FILE: (NULL)
013752  19Y08M21                         A     C        17:45:54:04 17:45:55:08 02:18:14:02 02:18:15:06 
*FROM CLIP NAME:  95GK3/01 
*SOURCE FILE: 19Y08M21
013753  19Y08M21                         A2    C        17:45:54:04 17:45:55:08 02:18:14:02 02:18:15:06 
*FROM CLIP NAME:  95GK3/01 
*SOURCE FILE: 19Y08M21
013754  19Y08M21                         A3    C        17:45:54:04 17:45:55:08 02:18:14:02 02:18:15:06 
*FROM CLIP NAME:  95GK3/01 
*SOURCE FILE: 19Y08M21
013755  19Y08M21                         A4    C        17:45:54:04 17:45:55:08 02:18:14:02 02:18:15:06 
*FROM CLIP NAME:  95GK3/01 
*SOURCE FILE: 19Y08M21
013756  19Y08M21                         A5    C        17:45:54:04 17:45:55:08 02:18:14:02 02:18:15:06 
*FROM CLIP NAME:  95GK3/01 
*PATCH 19Y08M21:  FROM SOURCE 7 TO RECORD 5 
*SOURCE FILE: 19Y08M21
013757  MSMMMOB.32                       A     C        20:09:38:12 20:09:39:17 02:18:15:06 02:18:16:11 
*FROM CLIP NAME:  A096C004_190821_R32C 
*SOURCE FILE: MSMMMOB.32
013758  19Y08M21                         A2    C        20:09:38:10 20:09:39:15 02:18:15:06 02:18:16:11 
*FROM CLIP NAME:  95K5/01 
*SOURCE FILE: 19Y08M21
013761  BL                               V     C        00:00:00:00 00:00:01:10 02:18:15:06 02:18:16:16 
*SOURCE FILE: (NULL)
013760  MSMMMOB.32                       V     C        20:09:38:12 20:09:39:22 02:18:15:06 02:18:16:16 
M2      MSMMMOB.32                                025.0 20:09:38:12 
*FROM CLIP NAME:  A096C004_190821_R32C 
*SOURCE FILE: MSMMMOB.32
013759  BL                               V     C        00:00:00:00 00:00:01:10 02:18:15:06 02:18:16:16 
*SOURCE FILE: (NULL)
013762  BL                               V     C        00:00:00:00 00:00:06:12 02:18:15:06 02:18:21:18 
*SOURCE FILE: (NULL)
013763  19Y08M21                         A     C        17:45:51:10 17:45:51:14 02:18:16:11 02:18:16:15 
*FROM CLIP NAME:  95GK3/01 
*SOURCE FILE: 19Y08M21
013764  19Y08M21                         A2    C        17:45:51:10 17:45:51:14 02:18:16:11 02:18:16:15 
*FROM CLIP NAME:  95GK3/01 
*SOURCE FILE: 19Y08M21
013765  19Y08M21                         A3    C        17:45:51:10 17:45:51:14 02:18:16:11 02:18:16:15 
*FROM CLIP NAME:  95GK3/01 
*SOURCE FILE: 19Y08M21
013766  19Y08M21                         A4    C        17:45:51:10 17:45:51:14 02:18:16:11 02:18:16:15 
*FROM CLIP NAME:  95GK3/01 
*SOURCE FILE: 19Y08M21
013767  19Y08M21                         A5    C        17:45:51:10 17:45:51:15 02:18:16:11 02:18:16:16 
*FROM CLIP NAME:  95GK3/01 
*PATCH 19Y08M21:  FROM SOURCE 7 TO RECORD 5 
*SOURCE FILE: 19Y08M21
013768  19Y08M21                         A     C        17:45:51:14 17:45:51:14 02:18:16:15 02:18:16:15 
013768  19Y08M14                         A     D    002 20:04:00:05 20:04:00:07 02:18:16:15 02:18:16:17 
*FROM CLIP NAME:  95GK3/01 
*TO CLIP NAME:  102K1/03.SYNC.01 
*SOURCE FILE: 19Y08M21
013769  19Y08M21                         A2    C        17:45:51:14 17:45:51:14 02:18:16:15 02:18:16:15 
013769  19Y08M14                         A2    D    002 20:04:00:05 20:04:00:07 02:18:16:15 02:18:16:17 
*FROM CLIP NAME:  95GK3/01 
*TO CLIP NAME:  102K1/03.SYNC.01 
*SOURCE FILE: 19Y08M21
013770  19Y08M21                         A3    C        17:45:51:14 17:45:51:14 02:18:16:15 02:18:16:15 
013770  19Y08M14                         A3    D    002 20:04:00:05 20:04:00:07 02:18:16:15 02:18:16:17 
*FROM CLIP NAME:  95GK3/01 
*TO CLIP NAME:  102K1/03.SYNC.01 
*SOURCE FILE: 19Y08M21
013771  19Y08M21                         A4    C        17:45:51:14 17:45:51:14 02:18:16:15 02:18:16:15 
013771  19Y08M14                         A4    D    002 20:04:00:05 20:04:00:07 02:18:16:15 02:18:16:17 
*FROM CLIP NAME:  95GK3/01 
*TO CLIP NAME:  102K1/03.SYNC.01 
*PATCH 19Y08M14:  FROM SOURCE 8 TO RECORD 4 
*SOURCE FILE: 19Y08M21
013773  MSMMMOB.66                       V     C        20:04:00:07 20:04:01:15 02:18:16:16 02:18:17:24 
M2      MSMMMOB.66                                025.0 20:04:00:07 
*FROM CLIP NAME:  B027C004_190814_R481 
*SOURCE FILE: MSMMMOB.66
013772  BL                               V     C        00:00:00:00 00:00:01:08 02:18:16:16 02:18:17:24 
*SOURCE FILE: (NULL)
013774  GLDR-BAL-510_V01                 V     C        00:00:00:00 00:00:01:08 02:18:16:16 02:18:17:24 
*FROM CLIP NAME:  GLDR-BAL-510_V01 
*SOURCE FILE: GLDR-BAL-510_V01
013775  19Y08M14                         A     C        20:04:00:07 20:04:03:01 02:18:16:17 02:18:19:11 
*FROM CLIP NAME:  102K1/03.SYNC.01 
*SOURCE FILE: 19Y08M14
013776  19Y08M14                         A2    C        20:04:00:07 20:04:03:01 02:18:16:17 02:18:19:11 
*FROM CLIP NAME:  102K1/03.SYNC.01 
*SOURCE FILE: 19Y08M14
013777  19Y08M14                         A3    C        20:04:00:07 20:04:03:01 02:18:16:17 02:18:19:11 
*FROM CLIP NAME:  102K1/03.SYNC.01 
*SOURCE FILE: 19Y08M14
013778  19Y08M14                         A4    C        20:04:00:07 20:04:03:01 02:18:16:17 02:18:19:11 
*FROM CLIP NAME:  102K1/03.SYNC.01 
*PATCH 19Y08M14:  FROM SOURCE 8 TO RECORD 4 
*SOURCE FILE: 19Y08M14
013780  BL                               V     C        00:00:00:00 00:00:01:16 02:18:17:24 02:18:19:15 
*SOURCE FILE: (NULL)
013779  MSMMMOB.30                       V     C        20:04:01:15 20:04:03:06 02:18:17:24 02:18:19:15 
M2      MSMMMOB.30                                025.0 20:04:01:15 
*FROM CLIP NAME:  A079C004_190814_R32C 
*SOURCE FILE: MSMMMOB.30
013781  BL                               V     C        00:00:00:00 00:00:03:19 02:18:17:24 02:18:21:18 
*SOURCE FILE: (NULL)
013782  19Y08M14                         A6    C        18:32:02:16 18:32:03:19 02:18:18:09 02:18:19:12 
*FROM CLIP NAME:  97K3/02.SYNC.01 
*PATCH 19Y08M14:  FROM SOURCE 2 TO RECORD 6 
*SOURCE FILE: 19Y08M14
013783  19Y08M14                         A7    C        18:32:02:16 18:32:03:19 02:18:18:09 02:18:19:12 
*FROM CLIP NAME:  97K3/02.SYNC.01 
*PATCH 19Y08M14:  FROM SOURCE 1 TO RECORD 7 
*SOURCE FILE: 19Y08M14
013784  19Y08M14                         A8    C        18:32:02:16 18:32:03:19 02:18:18:09 02:18:19:12 
*FROM CLIP NAME:  97K3/02.SYNC.01 
*SOURCE FILE: 19Y08M14
013785  19Y08M14                         A9    C        18:32:02:16 18:32:03:19 02:18:18:09 02:18:19:12 
*FROM CLIP NAME:  97K3/02.SYNC.01 
*PATCH 19Y08M14:  FROM SOURCE 3 TO RECORD 9 
*SOURCE FILE: 19Y08M14
013786  19Y08M14                         A10   C        18:32:02:16 18:32:03:19 02:18:18:09 02:18:19:12 
*FROM CLIP NAME:  97K3/02.SYNC.01 
*PATCH 19Y08M14:  FROM SOURCE 5 TO RECORD 10 
*SOURCE FILE: 19Y08M14
013787  19Y08M14                         A     C        20:04:03:01 20:04:03:01 02:18:19:11 02:18:19:11 
013787  19Y08M14                         A     D    002 19:12:26:05 19:12:26:07 02:18:19:11 02:18:19:13 
*FROM CLIP NAME:  102K1/03.SYNC.01 
*TO CLIP NAME:  96-98K4/03.SYNC.01 
*SOURCE FILE: 19Y08M14
013788  19Y08M14                         A2    C        20:04:03:01 20:04:03:01 02:18:19:11 02:18:19:11 
013788  19Y08M14                         A2    D    002 19:12:26:05 19:12:26:07 02:18:19:11 02:18:19:13 
*FROM CLIP NAME:  102K1/03.SYNC.01 
*TO CLIP NAME:  96-98K4/03.SYNC.01 
*SOURCE FILE: 19Y08M14
013789  19Y08M14                         A3    C        20:04:03:01 20:04:03:01 02:18:19:11 02:18:19:11 
013789  19Y08M14                         A3    D    002 19:12:26:05 19:12:26:07 02:18:19:11 02:18:19:13 
*FROM CLIP NAME:  102K1/03.SYNC.01 
*TO CLIP NAME:  96-98K4/03.SYNC.01 
*SOURCE FILE: 19Y08M14
013790  19Y08M14                         A4    C        20:04:03:01 20:04:03:01 02:18:19:11 02:18:19:11 
013790  19Y08M14                         A4    D    002 19:12:26:05 19:12:26:07 02:18:19:11 02:18:19:13 
*FROM CLIP NAME:  102K1/03.SYNC.01 
*TO CLIP NAME:  96-98K4/03.SYNC.01 
*PATCH 19Y08M14:  FROM SOURCE 8 TO RECORD 4 
*PATCH 19Y08M14:  FROM SOURCE 8 TO RECORD 4 
*SOURCE FILE: 19Y08M14
013791  BL                               A5    C        00:00:00:00 00:00:00:00 02:18:19:11 02:18:19:11 
013791  19Y08M14                         A5    D    002 19:12:26:05 19:12:26:07 02:18:19:11 02:18:19:13 
*TO CLIP NAME:  96-98K4/03.SYNC.01 
*SOURCE FILE: (NULL)
013792  19Y08M14                         A     C        19:12:26:07 19:12:26:09 02:18:19:13 02:18:19:15 
*FROM CLIP NAME:  96-98K4/03.SYNC.01 
*SOURCE FILE: 19Y08M14
013793  19Y08M14                         A2    C        19:12:26:07 19:12:26:09 02:18:19:13 02:18:19:15 
*FROM CLIP NAME:  96-98K4/03.SYNC.01 
*SOURCE FILE: 19Y08M14
013794  19Y08M14                         A3    C        19:12:26:07 19:12:26:09 02:18:19:13 02:18:19:15 
*FROM CLIP NAME:  96-98K4/03.SYNC.01 
*SOURCE FILE: 19Y08M14
013795  19Y08M14                         A4    C        19:12:26:07 19:12:26:09 02:18:19:13 02:18:19:15 
*FROM CLIP NAME:  96-98K4/03.SYNC.01 
*PATCH 19Y08M14:  FROM SOURCE 8 TO RECORD 4 
*SOURCE FILE: 19Y08M14
013796  19Y08M14                         A5    C        19:12:26:07 19:12:26:09 02:18:19:13 02:18:19:15 
*FROM CLIP NAME:  96-98K4/03.SYNC.01 
*SOURCE FILE: 19Y08M14
013797  MSMMMOB.60                       V     C        19:12:27:09 19:12:28:12 02:18:19:15 02:18:20:18 
M2      MSMMMOB.60                                025.0 19:12:27:09 
*FROM CLIP NAME:  B027C001_190814_R481 
*SOURCE FILE: MSMMMOB.60
013798  BL                               V     C        00:00:00:00 00:00:02:03 02:18:19:15 02:18:21:18 
*SOURCE FILE: (NULL)
013799  19Y08M14                         A     C        19:12:27:08 19:12:33:18 02:18:19:15 02:18:26:00 
*FROM CLIP NAME:  96-98K4/03.SYNC.01 
*SOURCE FILE: 19Y08M14
013800  19Y08M14                         A2    C        19:12:27:08 19:12:33:18 02:18:19:15 02:18:26:00 
*FROM CLIP NAME:  96-98K4/03.SYNC.01 
*SOURCE FILE: 19Y08M14
013801  19Y08M14                         A3    C        19:12:27:08 19:12:33:18 02:18:19:15 02:18:26:00 
*FROM CLIP NAME:  96-98K4/03.SYNC.01 
*SOURCE FILE: 19Y08M14
013802  19Y08M14                         A4    C        19:12:27:08 19:12:33:18 02:18:19:15 02:18:26:00 
*FROM CLIP NAME:  96-98K4/03.SYNC.01 
*PATCH 19Y08M14:  FROM SOURCE 8 TO RECORD 4 
*SOURCE FILE: 19Y08M14
013803  19Y08M14                         A5    C        19:12:27:08 19:12:33:18 02:18:19:15 02:18:26:00 
*FROM CLIP NAME:  96-98K4/03.SYNC.01 
*SOURCE FILE: 19Y08M14
013804  MSMMMOB.22                       V     C        10:41:41:23 10:41:42:23 02:18:20:18 02:18:21:18 
M2      MSMMMOB.22                                025.0 10:41:41:23 
*FROM CLIP NAME:  96A_103_98A-1-1 
*SOURCE FILE: MSMMMOB.22
013805  GLDR-BAL-520_TEST_01             V     C        00:00:00:00 00:00:01:15 02:18:21:18 02:18:23:08 
*FROM CLIP NAME:  GLDR-BAL-520_TEST_01 
*SOURCE FILE: GLDR-BAL-520_TEST_01
013807                                   V     C        15:41:32:18 15:41:41:11 02:18:21:18 02:18:30:11 
M2                                                025.0 15:41:32:18 
*FROM CLIP NAME:  M118_C024_20190821_R 
*SOURCE FILE:
013806  MSMMMOB.19                       V     C        19:49:46:02 19:49:54:20 02:18:21:18 02:18:30:11 
M2      MSMMMOB.19                                025.0 19:49:46:02 
*FROM CLIP NAME:  M120_C002_20190821_R 
*SOURCE FILE: MSMMMOB.19
013808  BL                               V     C        00:00:00:00 00:00:08:18 02:18:21:18 02:18:30:11 
*SOURCE FILE: (NULL)
013809  BL                               V     C        00:00:00:00 00:00:07:03 02:18:23:08 02:18:30:11 
*SOURCE FILE: (NULL)
013810                                   A     C        15:41:36:05 15:41:41:21 02:18:26:00 02:18:31:16 
M2                                                025.0 15:41:36:05 
*FROM CLIP NAME:  M118_C024_20190821_R 
*SOURCE FILE:
013811                                   A2    C        15:41:36:05 15:41:41:21 02:18:26:00 02:18:31:16 
M2                                                025.0 15:41:36:05 
*FROM CLIP NAME:  M118_C024_20190821_R 
*SOURCE FILE:
013813  BL                               V     C        00:00:00:00 00:00:01:24 02:18:30:11 02:18:32:10 
*SOURCE FILE: (NULL)
013816  MSMMMOB.207                      V     C        00:54:44:08 00:54:44:09 02:18:30:11 02:18:32:10 
M2      MSMMMOB.207                              -025.0 00:54:44:08 
*FROM CLIP NAME:  UNTITLED00080940 
*SOURCE FILE: MSMMMOB.207
013812  BL                               V     C        00:00:00:00 00:00:01:24 02:18:30:11 02:18:32:10 
*SOURCE FILE: (NULL)
013814  GLDR-BAL-530_TEST_V01            V     C        00:00:03:15 00:00:03:16 02:18:30:11 02:18:32:10 
M2      GLDR-BAL-530_TEST_V01                    -037.2 00:00:03:15 
*FROM CLIP NAME:  GLDR-BAL-530_TEST_V01 
*SOURCE FILE: GLDR-BAL-530_TEST_V01 
*REPAIR: FROM SOURCE TRUE SPEED == -37.244900 FPS
013815  GLDR-BAL-530_V02                 V     C        00:00:03:15 00:00:03:16 02:18:30:11 02:18:32:10 
M2      GLDR-BAL-530_V02                         -037.2 00:00:03:15 
*FROM CLIP NAME:  GLDR-BAL-530_V02 
*SOURCE FILE: GLDR-BAL-530_V02 
*REPAIR: FROM SOURCE TRUE SPEED == -37.244900 FPS
013820  BL                               V     C        00:00:00:00 00:00:01:15 02:18:32:10 02:18:34:00 
*SOURCE FILE: (NULL)
013819                                   V     C        15:39:10:19 15:39:12:09 02:18:32:10 02:18:34:00 
M2                                                025.0 15:39:10:19 
*FROM CLIP NAME:  M118_C023_20190821_R 
*SOURCE FILE:
013817  GLDR-BAL-540_TEST_03             V     C        00:00:00:00 00:00:01:15 02:18:32:10 02:18:34:00 
*FROM CLIP NAME:  GLDR-BAL-540_TEST_03 
*SOURCE FILE: GLDR-BAL-540_TEST_03
013818  MSMMMOB.19                       V     C        19:49:45:15 19:49:47:05 02:18:32:10 02:18:34:00 
M2      MSMMMOB.19                                025.0 19:49:45:15 
*FROM CLIP NAME:  M120_C002_20190821_R 
*SOURCE FILE: MSMMMOB.19
013821  BL                               V     C        00:00:00:00 00:08:41:16 02:18:32:10 02:27:14:01 
*SOURCE FILE: (NULL)
013822  MSMMMOB.207                      V     C        00:54:30:13 00:54:31:20 02:18:34:00 02:18:35:07 
M2      MSMMMOB.207                               025.0 00:54:30:13 
*FROM CLIP NAME:  UNTITLED00080940 
*SOURCE FILE: MSMMMOB.207
013825  BL                               V     C        00:00:00:00 00:00:01:07 02:18:34:00 02:18:35:07 
*SOURCE FILE: (NULL)
013824  BL                               V     C        00:00:00:00 00:00:01:07 02:18:34:00 02:18:35:07 
*SOURCE FILE: (NULL)
013823  BL                               V     C        00:00:00:00 00:00:01:07 02:18:34:00 02:18:35:07 
*SOURCE FILE: (NULL)
013826  MSMMMOB.207                      A3    C        00:56:43:00 00:56:44:07 02:18:34:00 02:18:35:07 
M2      MSMMMOB.207                               025.0 00:56:43:00 
*FROM CLIP NAME:  UNTITLED00080940 
*PATCH MSMMMOB.207:  FROM SOURCE 1 TO RECORD 3 
*SOURCE FILE: MSMMMOB.207
013827  MSMMMOB.207                      A4    C        00:56:43:00 00:56:44:07 02:18:34:00 02:18:35:07 
M2      MSMMMOB.207                               025.0 00:56:43:00 
*FROM CLIP NAME:  UNTITLED00080940 
*PATCH MSMMMOB.207:  FROM SOURCE 2 TO RECORD 4 
*SOURCE FILE: MSMMMOB.207
013831                                   V     C        15:39:16:24 15:39:18:15 02:18:35:07 02:18:36:23 
M2                                                025.0 15:39:16:24 
*FROM CLIP NAME:  M118_C023_20190821_R 
*SOURCE FILE:
013829  GLDR-BAL-550_TEST_01             V     C        00:00:00:00 00:00:01:16 02:18:35:07 02:18:36:23 
*FROM CLIP NAME:  GLDR-BAL-550_TEST_01 
*SOURCE FILE: GLDR-BAL-550_TEST_01
013830  BL                               V     C        00:00:00:00 00:00:01:16 02:18:35:07 02:18:36:23 
*SOURCE FILE: (NULL)
013828  MSMMMOB.24                       V     C        19:57:14:00 19:57:15:16 02:18:35:07 02:18:36:23 
M2      MSMMMOB.24                                025.0 19:57:14:00 
*FROM CLIP NAME:  M120_C005_20190821_R 
*SOURCE FILE: MSMMMOB.24
013832                                   A     C        15:41:41:21 15:41:43:03 02:18:35:16 02:18:36:23 
M2                                                025.0 15:41:41:21 
*FROM CLIP NAME:  M118_C024_20190821_R 
*SOURCE FILE:
013833                                   A2    C        15:41:41:21 15:41:43:03 02:18:35:16 02:18:36:23 
M2                                                025.0 15:41:41:21 
*FROM CLIP NAME:  M118_C024_20190821_R 
*SOURCE FILE:
013834                                   A     C        15:41:45:21 15:41:46:07 02:18:36:23 02:18:37:09 
M2                                                025.0 15:41:45:21 
*FROM CLIP NAME:  M118_C024_20190821_R 
*SOURCE FILE:
013835                                   A2    C        15:41:45:21 15:41:46:07 02:18:36:23 02:18:37:09 
M2                                                025.0 15:41:45:21 
*FROM CLIP NAME:  M118_C024_20190821_R 
*SOURCE FILE:
013836  MSMMMOB.207                      V     C        00:56:42:06 00:56:43:22 02:18:36:23 02:18:38:14 
M2      MSMMMOB.207                               025.0 00:56:42:06 
*FROM CLIP NAME:  UNTITLED00080940 
*SOURCE FILE: MSMMMOB.207
013837  MSMMMOB.207                      A3    C        00:56:42:23 00:56:44:14 02:18:36:23 02:18:38:14 
M2      MSMMMOB.207                               025.0 00:56:42:23 
*FROM CLIP NAME:  UNTITLED00080940 
*PATCH MSMMMOB.207:  FROM SOURCE 1 TO RECORD 3 
*SOURCE FILE: MSMMMOB.207
013838  MSMMMOB.207                      A4    C        00:56:42:23 00:56:44:14 02:18:36:23 02:18:38:14 
M2      MSMMMOB.207                               025.0 00:56:42:23 
*FROM CLIP NAME:  UNTITLED00080940 
*PATCH MSMMMOB.207:  FROM SOURCE 2 TO RECORD 4 
*SOURCE FILE: MSMMMOB.207
013839  BL                               V     C        00:00:00:00 00:00:05:15 02:18:36:23 02:18:42:13 
*SOURCE FILE: (NULL)
013840  BL                               V     C        00:00:00:00 00:00:42:07 02:18:36:23 02:19:19:05 
*SOURCE FILE: (NULL)
013841  BL                               V     C        00:00:00:00 00:06:59:01 02:18:36:23 02:25:35:24 
*SOURCE FILE: (NULL)
013842  MSMMMOB.207                      V     C        00:56:47:04 00:56:48:11 02:18:38:14 02:18:39:21 
M2      MSMMMOB.207                               025.0 00:56:47:04 
*FROM CLIP NAME:  UNTITLED00080940 
*SOURCE FILE: MSMMMOB.207
013843                                   A     C        15:41:49:14 15:41:50:21 02:18:38:14 02:18:39:21 
M2                                                025.0 15:41:49:14 
*FROM CLIP NAME:  M118_C024_20190821_R 
*SOURCE FILE:
013844                                   A2    C        15:41:49:14 15:41:50:21 02:18:38:14 02:18:39:21 
M2                                                025.0 15:41:49:14 
*FROM CLIP NAME:  M118_C024_20190821_R 
*SOURCE FILE:
013845  MSMMMOB.207                      A3    C        00:56:47:21 00:56:49:03 02:18:38:14 02:18:39:21 
M2      MSMMMOB.207                               025.0 00:56:47:21 
*FROM CLIP NAME:  UNTITLED00080940 
*PATCH MSMMMOB.207:  FROM SOURCE 1 TO RECORD 3 
*SOURCE FILE: MSMMMOB.207
013846  MSMMMOB.207                      A4    C        00:56:47:21 00:56:49:03 02:18:38:14 02:18:39:21 
M2      MSMMMOB.207                               025.0 00:56:47:21 
*FROM CLIP NAME:  UNTITLED00080940 
*PATCH MSMMMOB.207:  FROM SOURCE 2 TO RECORD 4 
*SOURCE FILE: MSMMMOB.207
013847  MSMMMOB.207                      V     C        00:56:57:13 00:57:00:05 02:18:39:21 02:18:42:13 
M2      MSMMMOB.207                               025.0 00:56:57:13 
*FROM CLIP NAME:  UNTITLED00080940 
*SOURCE FILE: MSMMMOB.207
013848  MSMMMOB.207                      A3    C        00:56:57:13 00:57:00:05 02:18:39:21 02:18:42:13 
M2      MSMMMOB.207                               025.0 00:56:57:13 
*FROM CLIP NAME:  UNTITLED00080940 
*PATCH MSMMMOB.207:  FROM SOURCE 1 TO RECORD 3 
*SOURCE FILE: MSMMMOB.207
013849  MSMMMOB.207                      A4    C        00:56:57:13 00:57:00:05 02:18:39:21 02:18:42:13 
M2      MSMMMOB.207                               025.0 00:56:57:13 
*FROM CLIP NAME:  UNTITLED00080940 
*PATCH MSMMMOB.207:  FROM SOURCE 2 TO RECORD 4 
*SOURCE FILE: MSMMMOB.207
013850  BL                               V     C        00:00:00:00 00:00:01:17 02:18:42:13 02:18:44:05 
*SOURCE FILE: (NULL)
013851  BL                               V     C        00:00:00:00 00:00:01:17 02:18:42:13 02:18:44:05 
*SOURCE FILE: (NULL)
013852  BL                               V     C        00:00:00:00 00:00:00:00 02:18:44:05 02:18:44:05 
013852  MSMMMOB.36                       V     D    040 20:10:25:02 20:10:26:17 02:18:44:05 02:18:45:20 
M2      MSMMMOB.36                                025.0 20:10:25:02 
*FILM, FILM DISSOLVE 
*TO CLIP NAME:  M097_C039_20190720_R 
*SOURCE FILE: (NULL)
013853  BL                               A6    C        00:00:00:00 00:00:00:00 02:18:44:05 02:18:44:05 
013853  01408.MP3                        A6    D    040 01:00:02:03 01:00:03:18 02:18:44:05 02:18:45:20 
*TO CLIP NAME:  01408.MP3 
*A6 VOL = -17.8 DB  PAN L100 
*PATCH 01408.MP3:  FROM SOURCE 2 TO RECORD 6 
*SOURCE FILE: (NULL)
013854  BL                               A7    C        00:00:00:00 00:00:00:00 02:18:44:05 02:18:44:05 
013854  01408.MP3                        A7    D    040 01:00:02:03 01:00:03:18 02:18:44:05 02:18:45:20 
*TO CLIP NAME:  01408.MP3 
*A7 VOL = -17.8 DB  PAN R100 
*PATCH 01408.MP3:  FROM SOURCE 1 TO RECORD 7 
*SOURCE FILE: (NULL)
013855  BL                               V     C        00:00:00:00 00:00:05:13 02:18:44:05 02:18:49:18 
*SOURCE FILE: (NULL)
013856  MSMMMOB.36                       V     C        20:10:26:17 20:10:30:15 02:18:45:20 02:18:49:18 
M2      MSMMMOB.36                                025.0 20:10:26:17 
*FROM CLIP NAME:  M097_C039_20190720_R 
*SOURCE FILE: MSMMMOB.36
013857  01408.MP3                        A6    C        01:00:03:18 01:00:07:16 02:18:45:20 02:18:49:18 
*FROM CLIP NAME:  01408.MP3 
*A6 VOL = -17.8 DB  PAN L100 
*PATCH 01408.MP3:  FROM SOURCE 2 TO RECORD 6 
*SOURCE FILE: 01408.MP3
013858  01408.MP3                        A7    C        01:00:03:18 01:00:07:16 02:18:45:20 02:18:49:18 
*FROM CLIP NAME:  01408.MP3 
*A7 VOL = -17.8 DB  PAN R100 
*PATCH 01408.MP3:  FROM SOURCE 1 TO RECORD 7 
*SOURCE FILE: 01408.MP3
013859  19Y08M14                         A     C        14:57:29:19 14:57:29:24 02:18:49:18 02:18:49:23 
*FROM CLIP NAME:  104105K13/01.SYNC.01 
*SOURCE FILE: 19Y08M14
013860  19Y08M14                         A2    C        14:57:29:19 14:57:29:24 02:18:49:18 02:18:49:23 
*FROM CLIP NAME:  104105K13/01.SYNC.01 
*SOURCE FILE: 19Y08M14
013861  19Y08M14                         A3    C        14:57:29:19 14:57:29:24 02:18:49:18 02:18:49:23 
*FROM CLIP NAME:  104105K13/01.SYNC.01 
*SOURCE FILE: 19Y08M14
013862  19Y08M14                         A4    C        14:57:29:19 14:57:29:24 02:18:49:18 02:18:49:23 
*FROM CLIP NAME:  104105K13/01.SYNC.01 
*PATCH 19Y08M14:  FROM SOURCE 5 TO RECORD 4 
*SOURCE FILE: 19Y08M14
013863  19Y08M14                         A5    C        14:57:29:19 14:57:29:24 02:18:49:18 02:18:49:23 
*FROM CLIP NAME:  104105K13/01.SYNC.01 
*PATCH 19Y08M14:  FROM SOURCE 8 TO RECORD 5 
*SOURCE FILE: 19Y08M14
013864  MSMMMOB.48                       V     C        15:34:07:02 15:34:11:09 02:18:49:18 02:18:51:22 
M2      MSMMMOB.48                                050.0 15:34:07:02 
*FROM CLIP NAME:  104/105-18-1_RAPID 
*SOURCE FILE: MSMMMOB.48
013865  01408.MP3                        A6    C        01:00:07:16 01:00:11:14 02:18:49:18 02:18:53:16 
*FROM CLIP NAME:  01408.MP3 
*A6 VOL = -34.7 DB  PAN L100 
*PATCH 01408.MP3:  FROM SOURCE 2 TO RECORD 6 
*SOURCE FILE: 01408.MP3
013866  01408.MP3                        A7    C        01:00:07:16 01:00:11:14 02:18:49:18 02:18:53:16 
*FROM CLIP NAME:  01408.MP3 
*A7 VOL = -34.7 DB  PAN R100 
*PATCH 01408.MP3:  FROM SOURCE 1 TO RECORD 7 
*SOURCE FILE: 01408.MP3
013867  BL                               V     C        00:00:00:00 00:01:29:02 02:18:49:18 02:20:18:20 
*SOURCE FILE: (NULL)
013868  CINEMASCOPE_2-35-1_CROPLINES.PNG V     C        01:00:00:00 01:05:07:14 02:18:49:19 02:23:57:08 
*FROM CLIP NAME:  CINEMASCOPE 2-35-1 CROPLINES.PNG 
*SOURCE FILE: CINEMASCOPE 2-35-1 CROPLINES.PNG
013869  19Y08M14                         A     C        14:57:32:00 14:57:35:18 02:18:49:23 02:18:53:16 
*FROM CLIP NAME:  104105K13/01.SYNC.01 
*SOURCE FILE: 19Y08M14
013870  19Y08M14                         A2    C        14:57:32:00 14:57:35:18 02:18:49:23 02:18:53:16 
*FROM CLIP NAME:  104105K13/01.SYNC.01 
*SOURCE FILE: 19Y08M14
013871  19Y08M14                         A3    C        14:57:32:00 14:57:35:18 02:18:49:23 02:18:53:16 
*FROM CLIP NAME:  104105K13/01.SYNC.01 
*SOURCE FILE: 19Y08M14
013872  19Y08M14                         A4    C        14:57:32:00 14:57:35:18 02:18:49:23 02:18:53:16 
*FROM CLIP NAME:  104105K13/01.SYNC.01 
*PATCH 19Y08M14:  FROM SOURCE 8 TO RECORD 4 
*SOURCE FILE: 19Y08M14
013873  19Y08M14                         A5    C        14:57:32:00 14:57:35:18 02:18:49:23 02:18:53:16 
*FROM CLIP NAME:  104105K13/01.SYNC.01 
*SOURCE FILE: 19Y08M14
013874  MSMMMOB.53                       V     C        14:57:29:24 14:57:31:18 02:18:51:22 02:18:53:16 
M2      MSMMMOB.53                                025.0 14:57:29:24 
*FROM CLIP NAME:  A078C009_190814_R32C 
*SOURCE FILE: MSMMMOB.53
013875  MSMMMOB.59                       V     C        14:38:13:17 14:38:23:09 02:18:53:16 02:19:03:08 
M2      MSMMMOB.59                                025.0 14:38:13:17 
*FROM CLIP NAME:  A078C007_190814_R32C 
*SOURCE FILE: MSMMMOB.59
013876  19Y08M14                         A     C        14:38:13:17 14:38:24:02 02:18:53:16 02:19:04:01 
*FROM CLIP NAME:  104105K11/02.SYNC.01 
*SOURCE FILE: 19Y08M14
013877  19Y08M14                         A2    C        14:38:13:17 14:38:24:02 02:18:53:16 02:19:04:01 
*FROM CLIP NAME:  104105K11/02.SYNC.01 
*SOURCE FILE: 19Y08M14
013878  19Y08M14                         A3    C        14:38:13:17 14:38:24:02 02:18:53:16 02:19:04:01 
*FROM CLIP NAME:  104105K11/02.SYNC.01 
*PATCH 19Y08M14:  FROM SOURCE 4 TO RECORD 3 
*SOURCE FILE: 19Y08M14
013879  19Y08M14                         A4    C        14:38:13:17 14:38:24:02 02:18:53:16 02:19:04:01 
*FROM CLIP NAME:  104105K11/02.SYNC.01 
*PATCH 19Y08M14:  FROM SOURCE 6 TO RECORD 4 
*SOURCE FILE: 19Y08M14
013880  MSMMMOB.14                       V     C        14:41:55:19 14:42:11:16 02:19:03:08 02:19:19:05 
M2      MSMMMOB.14                                025.0 14:41:55:19 
*FROM CLIP NAME:  A078C008_190814_R32C 
*SOURCE FILE: MSMMMOB.14
013881  19Y08M14                         A     C        14:38:24:02 14:38:24:02 02:19:04:01 02:19:04:01 
013881  19Y08M14                         A     D    005 14:38:25:18 14:38:25:23 02:19:04:01 02:19:04:06 
*FROM CLIP NAME:  104105K11/02.SYNC.01 
*TO CLIP NAME:  104105K11/02.SYNC.01 
*SOURCE FILE: 19Y08M14
013882  19Y08M14                         A2    C        14:38:24:02 14:38:24:02 02:19:04:01 02:19:04:01 
013882  19Y08M14                         A2    D    005 14:38:25:18 14:38:25:23 02:19:04:01 02:19:04:06 
*FROM CLIP NAME:  104105K11/02.SYNC.01 
*TO CLIP NAME:  104105K11/02.SYNC.01 
*SOURCE FILE: 19Y08M14
013883  19Y08M14                         A3    C        14:38:24:02 14:38:24:02 02:19:04:01 02:19:04:01 
013883  19Y08M14                         A3    D    005 14:38:25:18 14:38:25:23 02:19:04:01 02:19:04:06 
*FROM CLIP NAME:  104105K11/02.SYNC.01 
*TO CLIP NAME:  104105K11/02.SYNC.01 
*PATCH 19Y08M14:  FROM SOURCE 4 TO RECORD 3 
*PATCH 19Y08M14:  FROM SOURCE 4 TO RECORD 3 
*SOURCE FILE: 19Y08M14
013884  19Y08M14                         A4    C        14:38:24:02 14:38:24:02 02:19:04:01 02:19:04:01 
013884  19Y08M14                         A4    D    005 14:38:25:18 14:38:25:23 02:19:04:01 02:19:04:06 
*FROM CLIP NAME:  104105K11/02.SYNC.01 
*TO CLIP NAME:  104105K11/02.SYNC.01 
*PATCH 19Y08M14:  FROM SOURCE 6 TO RECORD 4 
*PATCH 19Y08M14:  FROM SOURCE 6 TO RECORD 4 
*SOURCE FILE: 19Y08M14
013885  19Y08M14                         A     C        14:38:25:23 14:38:31:03 02:19:04:06 02:19:09:11 
*FROM CLIP NAME:  104105K11/02.SYNC.01 
*SOURCE FILE: 19Y08M14
013886  19Y08M14                         A2    C        14:38:25:23 14:38:31:03 02:19:04:06 02:19:09:11 
*FROM CLIP NAME:  104105K11/02.SYNC.01 
*SOURCE FILE: 19Y08M14
013887  19Y08M14                         A3    C        14:38:25:23 14:38:31:03 02:19:04:06 02:19:09:11 
*FROM CLIP NAME:  104105K11/02.SYNC.01 
*PATCH 19Y08M14:  FROM SOURCE 4 TO RECORD 3 
*SOURCE FILE: 19Y08M14
013888  19Y08M14                         A4    C        14:38:25:23 14:38:31:03 02:19:04:06 02:19:09:11 
*FROM CLIP NAME:  104105K11/02.SYNC.01 
*PATCH 19Y08M14:  FROM SOURCE 6 TO RECORD 4 
*SOURCE FILE: 19Y08M14
013889  19Y08M14                         A     C        14:38:31:03 14:38:31:03 02:19:09:11 02:19:09:11 
013889  19Y08M14                         A     D    005 14:42:01:22 14:42:02:02 02:19:09:11 02:19:09:16 
*FROM CLIP NAME:  104105K11/02.SYNC.01 
*TO CLIP NAME:  104105K12/01.SYNC.01 
*SOURCE FILE: 19Y08M14
013890  19Y08M14                         A2    C        14:38:31:03 14:38:31:03 02:19:09:11 02:19:09:11 
013890  19Y08M14                         A2    D    005 14:42:01:22 14:42:02:02 02:19:09:11 02:19:09:16 
*FROM CLIP NAME:  104105K11/02.SYNC.01 
*TO CLIP NAME:  104105K12/01.SYNC.01 
*SOURCE FILE: 19Y08M14
013891  19Y08M14                         A3    C        14:38:31:03 14:38:31:03 02:19:09:11 02:19:09:11 
013891  19Y08M14                         A3    D    005 14:42:01:22 14:42:02:02 02:19:09:11 02:19:09:16 
*FROM CLIP NAME:  104105K11/02.SYNC.01 
*TO CLIP NAME:  104105K12/01.SYNC.01 
*PATCH 19Y08M14:  FROM SOURCE 4 TO RECORD 3 
*PATCH 19Y08M14:  FROM SOURCE 4 TO RECORD 3 
*SOURCE FILE: 19Y08M14
013892  19Y08M14                         A4    C        14:38:31:03 14:38:31:03 02:19:09:11 02:19:09:11 
013892  19Y08M14                         A4    D    005 14:42:01:22 14:42:02:02 02:19:09:11 02:19:09:16 
*FROM CLIP NAME:  104105K11/02.SYNC.01 
*TO CLIP NAME:  104105K12/01.SYNC.01 
*PATCH 19Y08M14:  FROM SOURCE 6 TO RECORD 4 
*PATCH 19Y08M14:  FROM SOURCE 6 TO RECORD 4 
*SOURCE FILE: 19Y08M14
013893  19Y08M14                         A     C        14:42:02:02 14:42:11:16 02:19:09:16 02:19:19:05 
*FROM CLIP NAME:  104105K12/01.SYNC.01 
*SOURCE FILE: 19Y08M14
013894  19Y08M14                         A2    C        14:42:02:02 14:42:11:16 02:19:09:16 02:19:19:05 
*FROM CLIP NAME:  104105K12/01.SYNC.01 
*SOURCE FILE: 19Y08M14
013895  19Y08M14                         A3    C        14:42:02:02 14:42:11:16 02:19:09:16 02:19:19:05 
*FROM CLIP NAME:  104105K12/01.SYNC.01 
*PATCH 19Y08M14:  FROM SOURCE 4 TO RECORD 3 
*SOURCE FILE: 19Y08M14
013896  19Y08M14                         A4    C        14:42:02:02 14:42:11:16 02:19:09:16 02:19:19:05 
*FROM CLIP NAME:  104105K12/01.SYNC.01 
*PATCH 19Y08M14:  FROM SOURCE 6 TO RECORD 4 
*SOURCE FILE: 19Y08M14
013897  19Y08M14                         A     C        11:46:23:04 11:46:26:01 02:19:19:05 02:19:22:02 
*FROM CLIP NAME:  104-105K1/01.SYNC.01 
*SOURCE FILE: 19Y08M14
013898  19Y08M14                         A2    C        11:46:23:04 11:46:26:01 02:19:19:05 02:19:22:02 
*FROM CLIP NAME:  104-105K1/01.SYNC.01 
*SOURCE FILE: 19Y08M14
013899  19Y08M14                         A3    C        11:46:23:04 11:46:26:01 02:19:19:05 02:19:22:02 
*FROM CLIP NAME:  104-105K1/01.SYNC.01 
*SOURCE FILE: 19Y08M14
013900  19Y08M14                         A4    C        11:46:23:04 11:46:26:01 02:19:19:05 02:19:22:02 
*FROM CLIP NAME:  104-105K1/01.SYNC.01 
*SOURCE FILE: 19Y08M14
013901  19Y08M14                         A5    C        11:46:23:04 11:46:26:01 02:19:19:05 02:19:22:02 
*FROM CLIP NAME:  104-105K1/01.SYNC.01 
*SOURCE FILE: 19Y08M14
013902  19Y08M14                         A6    C        11:46:23:04 11:46:26:01 02:19:19:05 02:19:22:02 
*FROM CLIP NAME:  104-105K1/01.SYNC.01 
*PATCH 19Y08M14:  FROM SOURCE 7 TO RECORD 6 
*SOURCE FILE: 19Y08M14
013903  19Y08M14                         A7    C        11:46:23:04 11:46:26:01 02:19:19:05 02:19:22:02 
*FROM CLIP NAME:  104-105K1/01.SYNC.01 
*PATCH 19Y08M14:  FROM SOURCE 6 TO RECORD 7 
*SOURCE FILE: 19Y08M14
013904  19Y08M14                         A8    C        11:46:23:04 11:46:26:01 02:19:19:05 02:19:22:02 
*FROM CLIP NAME:  104-105K1/01.SYNC.01 
*SOURCE FILE: 19Y08M14
013906  GLDR-CND-010_V02                 V     C        00:00:00:00 00:00:03:17 02:19:19:05 02:19:22:22 
*FROM CLIP NAME:  GLDR-CND-010_V02 
*SOURCE FILE: GLDR-CND-010_V02
013905  MSMMMOB.11                       V     C        01:32:25:04 01:32:28:21 02:19:19:05 02:19:22:22 
M2      MSMMMOB.11                                025.0 01:32:25:04 
*FROM CLIP NAME:  B023C001_190814_R481 
*SOURCE FILE: MSMMMOB.11
013907  19Y08M14                         A     C        15:33:45:02 15:33:48:19 02:19:22:02 02:19:25:19 
*FROM CLIP NAME:  104105K17/01.SYNC.01.SUB.01 
*SOURCE FILE: 19Y08M14
013908  19Y08M14                         A2    C        15:33:45:02 15:33:48:19 02:19:22:02 02:19:25:19 
*FROM CLIP NAME:  104105K17/01.SYNC.01.SUB.01 
*SOURCE FILE: 19Y08M14
013909  19Y08M14                         A3    C        15:33:45:02 15:33:48:19 02:19:22:02 02:19:25:19 
*FROM CLIP NAME:  104105K17/01.SYNC.01.SUB.01 
*SOURCE FILE: 19Y08M14
013910  19Y08M14                         A4    C        15:33:45:02 15:33:48:19 02:19:22:02 02:19:25:19 
*FROM CLIP NAME:  104105K17/01.SYNC.01.SUB.01 
*PATCH 19Y08M14:  FROM SOURCE 8 TO RECORD 4 
*SOURCE FILE: 19Y08M14
013911  MSMMMOB.48                       V     C        15:34:17:18 15:34:23:11 02:19:22:22 02:19:25:19 
M2      MSMMMOB.48                                050.0 15:34:17:18 
*FROM CLIP NAME:  104/105-18-1_RAPID 
*SOURCE FILE: MSMMMOB.48
013912  BL                               V     C        00:00:00:00 00:00:28:21 02:19:22:22 02:19:51:18 
*SOURCE FILE: (NULL)
013913  MSMMMOB.44                       V     C        14:36:48:03 14:36:51:01 02:19:25:19 02:19:28:17 
M2      MSMMMOB.44                                025.0 14:36:48:03 
*FROM CLIP NAME:  A078C006_190814_R32C 
*SOURCE FILE: MSMMMOB.44
013914  19Y08M14                         A     C        14:36:48:02 14:36:51:00 02:19:25:19 02:19:28:17 
*FROM CLIP NAME:  104105K11/01.SYNC.01 
*SOURCE FILE: 19Y08M14
013915  19Y08M14                         A2    C        14:36:48:02 14:36:51:00 02:19:25:19 02:19:28:17 
*FROM CLIP NAME:  104105K11/01.SYNC.01 
*SOURCE FILE: 19Y08M14
013916  19Y08M14                         A3    C        14:36:48:02 14:36:51:00 02:19:25:19 02:19:28:17 
*FROM CLIP NAME:  104105K11/01.SYNC.01 
*PATCH 19Y08M14:  FROM SOURCE 4 TO RECORD 3 
*SOURCE FILE: 19Y08M14
013917  19Y08M14                         A4    C        14:36:48:02 14:36:51:00 02:19:25:19 02:19:28:17 
*FROM CLIP NAME:  104105K11/01.SYNC.01 
*PATCH 19Y08M14:  FROM SOURCE 6 TO RECORD 4 
*SOURCE FILE: 19Y08M14
013918  19Y08M14                         A5    C        15:20:35:02 15:20:36:08 02:19:26:11 02:19:27:17 
*FROM CLIP NAME:  104105K16/02.SYNC.01 
*SOURCE FILE: 19Y08M14
013919  MSMMMOB.10                       V     C        15:20:36:18 15:20:38:00 02:19:28:17 02:19:29:24 
M2      MSMMMOB.10                                025.0 15:20:36:18 
*FROM CLIP NAME:  A078C013_190814_R32C 
*SOURCE FILE: MSMMMOB.10
013920  19Y08M14                         A     C        15:20:36:18 15:20:38:00 02:19:28:17 02:19:29:24 
*FROM CLIP NAME:  104105K16/02.SYNC.01 
*SOURCE FILE: 19Y08M14
013921  19Y08M14                         A2    C        15:20:36:18 15:20:38:00 02:19:28:17 02:19:29:24 
*FROM CLIP NAME:  104105K16/02.SYNC.01 
*SOURCE FILE: 19Y08M14
013922  19Y08M14                         A3    C        15:20:36:18 15:20:38:00 02:19:28:17 02:19:29:24 
*FROM CLIP NAME:  104105K16/02.SYNC.01 
*SOURCE FILE: 19Y08M14
013923  19Y08M14                         A4    C        15:20:36:18 15:20:38:00 02:19:28:17 02:19:29:24 
*FROM CLIP NAME:  104105K16/02.SYNC.01 
*PATCH 19Y08M14:  FROM SOURCE 8 TO RECORD 4 
*SOURCE FILE: 19Y08M14
013924  19Y08M14                         A5    C        15:20:36:18 15:20:38:00 02:19:28:17 02:19:29:24 
*FROM CLIP NAME:  104105K16/02.SYNC.01 
*SOURCE FILE: 19Y08M14
013925  19Y08M14                         A     C        14:25:12:19 14:25:14:17 02:19:29:24 02:19:31:22 
*FROM CLIP NAME:  104105K10/02.SYNC.01 
*SOURCE FILE: 19Y08M14
013926  19Y08M14                         A2    C        14:25:12:19 14:25:14:17 02:19:29:24 02:19:31:22 
*FROM CLIP NAME:  104105K10/02.SYNC.01 
*SOURCE FILE: 19Y08M14
013927  19Y08M14                         A4    C        14:25:12:19 14:25:14:17 02:19:29:24 02:19:31:22 
*FROM CLIP NAME:  104105K10/02.SYNC.01 
*SOURCE FILE: 19Y08M14
013928  19Y08M14                         A6    C        14:25:12:19 14:25:14:17 02:19:29:24 02:19:31:22 
*FROM CLIP NAME:  104105K10/02.SYNC.01 
*PATCH 19Y08M14:  FROM SOURCE 8 TO RECORD 6 
*SOURCE FILE: 19Y08M14
013929  19Y08M14                         A7    C        14:25:12:19 14:25:14:17 02:19:29:24 02:19:31:22 
*FROM CLIP NAME:  104105K10/02.SYNC.01 
*PATCH 19Y08M14:  FROM SOURCE 6 TO RECORD 7 
*SOURCE FILE: 19Y08M14
013930  MSMMMOB.61                       V     C        14:25:12:19 14:25:14:18 02:19:29:24 02:19:31:23 
M2      MSMMMOB.61                                025.0 14:25:12:19 
*FROM CLIP NAME:  A078C005_190814_R32C 
*SOURCE FILE: MSMMMOB.61
013931  19Y08M14                         A5    C        14:25:14:03 14:25:14:17 02:19:31:08 02:19:31:22 
*FROM CLIP NAME:  104105K10/02.SYNC.01 
*SOURCE FILE: 19Y08M14
013932  19Y08M14                         A     C        14:25:14:17 14:25:14:17 02:19:31:22 02:19:31:22 
013932  19Y08M14                         A     D    002 14:25:17:06 14:25:17:08 02:19:31:22 02:19:31:24 
*FROM CLIP NAME:  104105K10/02.SYNC.01 
*TO CLIP NAME:  104105K10/02.SYNC.01 
*SOURCE FILE: 19Y08M14
013933  19Y08M14                         A2    C        14:25:14:17 14:25:14:17 02:19:31:22 02:19:31:22 
013933  19Y08M14                         A2    D    002 14:25:17:06 14:25:17:08 02:19:31:22 02:19:31:24 
*FROM CLIP NAME:  104105K10/02.SYNC.01 
*TO CLIP NAME:  104105K10/02.SYNC.01 
*SOURCE FILE: 19Y08M14
013934  19Y08M14                         A3    C        14:25:14:17 14:25:14:17 02:19:31:22 02:19:31:22 
013934  BL                               A3    D    002 00:00:00:00 00:00:00:02 02:19:31:22 02:19:31:24 
*FROM CLIP NAME:  104105K10/02.SYNC.01 
*SOURCE FILE: 19Y08M14
013935  19Y08M14                         A4    C        14:25:14:17 14:25:14:17 02:19:31:22 02:19:31:22 
013935  BL                               A4    D    002 00:00:00:00 00:00:00:02 02:19:31:22 02:19:31:24 
*FROM CLIP NAME:  104105K10/02.SYNC.01 
*SOURCE FILE: 19Y08M14
013936  19Y08M14                         A5    C        14:25:14:17 14:25:14:17 02:19:31:22 02:19:31:22 
013936  BL                               A5    D    002 00:00:00:00 00:00:00:02 02:19:31:22 02:19:31:24 
*FROM CLIP NAME:  104105K10/02.SYNC.01 
*SOURCE FILE: 19Y08M14
013937  19Y08M14                         A6    C        14:25:14:17 14:25:14:17 02:19:31:22 02:19:31:22 
013937  BL                               A6    D    002 00:00:00:00 00:00:00:02 02:19:31:22 02:19:31:24 
*FROM CLIP NAME:  104105K10/02.SYNC.01 
*PATCH 19Y08M14:  FROM SOURCE 8 TO RECORD 6 
*SOURCE FILE: 19Y08M14
013938  19Y08M14                         A7    C        14:25:14:17 14:25:14:17 02:19:31:22 02:19:31:22 
013938  BL                               A7    D    002 00:00:00:00 00:00:00:02 02:19:31:22 02:19:31:24 
*FROM CLIP NAME:  104105K10/02.SYNC.01 
*PATCH 19Y08M14:  FROM SOURCE 6 TO RECORD 7 
*SOURCE FILE: 19Y08M14
013939  MSMMMOB.10                       V     C        15:20:39:19 15:20:53:08 02:19:31:23 02:19:45:12 
M2      MSMMMOB.10                                025.0 15:20:39:19 
*FROM CLIP NAME:  A078C013_190814_R32C 
*SOURCE FILE: MSMMMOB.10
013940  19Y08M14                         A     C        14:25:17:08 14:25:19:05 02:19:31:24 02:19:33:21 
*FROM CLIP NAME:  104105K10/02.SYNC.01 
*SOURCE FILE: 19Y08M14
013941  19Y08M14                         A2    C        14:25:17:08 14:25:19:05 02:19:31:24 02:19:33:21 
*FROM CLIP NAME:  104105K10/02.SYNC.01 
*SOURCE FILE: 19Y08M14
013942  19Y08M14                         A6    C        14:25:16:10 14:25:18:09 02:19:32:05 02:19:34:04 
*FROM CLIP NAME:  104105K10/02.SYNC.01 
*PATCH 19Y08M14:  FROM SOURCE 5 TO RECORD 6 
*SOURCE FILE: 19Y08M14
013943  19Y08M14                         A     C        15:20:41:17 15:20:51:05 02:19:33:21 02:19:43:09 
*FROM CLIP NAME:  104105K16/02.SYNC.01 
*SOURCE FILE: 19Y08M14
013944  19Y08M14                         A2    C        15:20:41:17 15:20:51:05 02:19:33:21 02:19:43:09 
*FROM CLIP NAME:  104105K16/02.SYNC.01 
*SOURCE FILE: 19Y08M14
013945  19Y08M14                         A3    C        15:20:41:17 15:20:51:05 02:19:33:21 02:19:43:09 
*FROM CLIP NAME:  104105K16/02.SYNC.01 
*SOURCE FILE: 19Y08M14
013946  19Y08M14                         A4    C        15:20:41:17 15:20:51:05 02:19:33:21 02:19:43:09 
*FROM CLIP NAME:  104105K16/02.SYNC.01 
*PATCH 19Y08M14:  FROM SOURCE 8 TO RECORD 4 
*SOURCE FILE: 19Y08M14
013947  19Y08M14                         A5    C        15:20:41:17 15:20:51:05 02:19:33:21 02:19:43:09 
*FROM CLIP NAME:  104105K16/02.SYNC.01 
*SOURCE FILE: 19Y08M14
013948  19Y08M14                         A     C        15:20:51:05 15:20:52:24 02:19:43:09 02:19:45:03 
*FROM CLIP NAME:  104105K16/02.SYNC.01 
*SOURCE FILE: 19Y08M14
013949  19Y08M14                         A2    C        15:20:51:05 15:20:52:24 02:19:43:09 02:19:45:03 
*FROM CLIP NAME:  104105K16/02.SYNC.01 
*SOURCE FILE: 19Y08M14
013950  19Y08M14                         A3    C        15:20:51:05 15:20:52:24 02:19:43:09 02:19:45:03 
*FROM CLIP NAME:  104105K16/02.SYNC.01 
*SOURCE FILE: 19Y08M14
013951  19Y08M14                         A4    C        15:20:51:05 15:20:52:24 02:19:43:09 02:19:45:03 
*FROM CLIP NAME:  104105K16/02.SYNC.01 
*PATCH 19Y08M14:  FROM SOURCE 5 TO RECORD 4 
*SOURCE FILE: 19Y08M14
013952  19Y08M14                         A5    C        15:20:51:05 15:20:52:24 02:19:43:09 02:19:45:03 
*FROM CLIP NAME:  104105K16/02.SYNC.01 
*PATCH 19Y08M14:  FROM SOURCE 8 TO RECORD 5 
*SOURCE FILE: 19Y08M14
013953  19Y08M14                         A     C        12:02:15:10 12:02:21:23 02:19:45:03 02:19:51:16 
*FROM CLIP NAME:  104-105K2/01.SYNC.01 
*SOURCE FILE: 19Y08M14
013954  19Y08M14                         A2    C        12:02:15:10 12:02:21:23 02:19:45:03 02:19:51:16 
*FROM CLIP NAME:  104-105K2/01.SYNC.01 
*SOURCE FILE: 19Y08M14
013955  19Y08M14                         A3    C        12:02:15:10 12:02:21:23 02:19:45:03 02:19:51:16 
*FROM CLIP NAME:  104-105K2/01.SYNC.01 
*SOURCE FILE: 19Y08M14
013956  19Y08M14                         A4    C        12:02:15:10 12:02:21:23 02:19:45:03 02:19:51:16 
*FROM CLIP NAME:  104-105K2/01.SYNC.01 
*SOURCE FILE: 19Y08M14
013957  19Y08M14                         A5    C        12:02:15:10 12:02:21:23 02:19:45:03 02:19:51:16 
*FROM CLIP NAME:  104-105K2/01.SYNC.01 
*SOURCE FILE: 19Y08M14
013958  19Y08M14                         A6    C        12:02:15:10 12:02:21:23 02:19:45:03 02:19:51:16 
*FROM CLIP NAME:  104-105K2/01.SYNC.01 
*SOURCE FILE: 19Y08M14
013959  19Y08M14                         A7    C        12:02:15:10 12:02:21:23 02:19:45:03 02:19:51:16 
*FROM CLIP NAME:  104-105K2/01.SYNC.01 
*SOURCE FILE: 19Y08M14
013960  19Y08M14                         A8    C        12:02:15:10 12:02:21:23 02:19:45:03 02:19:51:16 
*FROM CLIP NAME:  104-105K2/01.SYNC.01 
*SOURCE FILE: 19Y08M14
013961  MSMMMOB.26                       V     C        12:02:15:19 12:02:22:00 02:19:45:12 02:19:51:18 
M2      MSMMMOB.26                                025.0 12:02:15:19 
*FROM CLIP NAME:  B023C002_190814_R481 
*SOURCE FILE: MSMMMOB.26
013962  00334.MP3                        A9    C        01:00:00:00 01:00:03:14 02:19:51:08 02:19:54:22 
*FROM CLIP NAME:  00334.MP3 
*A9 VOL =  +5.4 DB  PAN L100 
*PATCH 00334.MP3:  FROM SOURCE 1 TO RECORD 9 
*SOURCE FILE: 00334.MP3
013963  00334.MP3                        A10   C        01:00:00:00 01:00:03:14 02:19:51:08 02:19:54:22 
*FROM CLIP NAME:  00334.MP3 
*A10 VOL =  +5.4 DB  PAN R100 
*PATCH 00334.MP3:  FROM SOURCE 2 TO RECORD 10 
*SOURCE FILE: 00334.MP3
013964  19Y08M14                         A     C        12:02:21:23 12:02:21:23 02:19:51:16 02:19:51:16 
013964  19Y08M14                         A     D    005 11:46:54:22 11:46:55:02 02:19:51:16 02:19:51:21 
*FROM CLIP NAME:  104-105K2/01.SYNC.01 
*TO CLIP NAME:  104-105K1/01.SYNC.01 
*A1 VOL =  -8.5 DB  PAN R100 
*SOURCE FILE: 19Y08M14
013965  19Y08M14                         A2    C        12:02:21:23 12:02:21:23 02:19:51:16 02:19:51:16 
013965  19Y08M14                         A2    D    005 11:46:54:22 11:46:55:02 02:19:51:16 02:19:51:21 
*FROM CLIP NAME:  104-105K2/01.SYNC.01 
*TO CLIP NAME:  104-105K1/01.SYNC.01 
*A2 VOL =  -8.5 DB  PAN L100 
*SOURCE FILE: 19Y08M14
013966  19Y08M14                         A3    C        12:02:21:23 12:02:21:23 02:19:51:16 02:19:51:16 
013966  19Y08M14                         A3    D    005 11:46:54:22 11:46:55:02 02:19:51:16 02:19:51:21 
*FROM CLIP NAME:  104-105K2/01.SYNC.01 
*TO CLIP NAME:  104-105K1/01.SYNC.01 
*A3 VOL =  -8.5 DB  PAN R100 
*SOURCE FILE: 19Y08M14
013967  19Y08M14                         A4    C        12:02:21:23 12:02:21:23 02:19:51:16 02:19:51:16 
013967  19Y08M14                         A4    D    005 11:46:54:22 11:46:55:02 02:19:51:16 02:19:51:21 
*FROM CLIP NAME:  104-105K2/01.SYNC.01 
*TO CLIP NAME:  104-105K1/01.SYNC.01 
*A4 VOL =  -8.5 DB  PAN L100 
*SOURCE FILE: 19Y08M14
013968  19Y08M14                         A5    C        12:02:21:23 12:02:21:23 02:19:51:16 02:19:51:16 
013968  19Y08M14                         A5    D    005 11:46:54:22 11:46:55:02 02:19:51:16 02:19:51:21 
*FROM CLIP NAME:  104-105K2/01.SYNC.01 
*TO CLIP NAME:  104-105K1/01.SYNC.01 
*A5 VOL =  -8.5 DB  PAN R100 
*SOURCE FILE: 19Y08M14
013969  19Y08M14                         A6    C        12:02:21:23 12:02:21:23 02:19:51:16 02:19:51:16 
013969  19Y08M14                         A6    D    005 11:46:54:22 11:46:55:02 02:19:51:16 02:19:51:21 
*FROM CLIP NAME:  104-105K2/01.SYNC.01 
*TO CLIP NAME:  104-105K1/01.SYNC.01 
*A6 VOL =  -8.5 DB  PAN L100 
*PATCH 19Y08M14:  FROM SOURCE 7 TO RECORD 6 
*SOURCE FILE: 19Y08M14
013970  19Y08M14                         A7    C        12:02:21:23 12:02:21:23 02:19:51:16 02:19:51:16 
013970  19Y08M14                         A7    D    005 11:46:54:22 11:46:55:02 02:19:51:16 02:19:51:21 
*FROM CLIP NAME:  104-105K2/01.SYNC.01 
*TO CLIP NAME:  104-105K1/01.SYNC.01 
*A7 VOL =  -8.5 DB  PAN R100 
*PATCH 19Y08M14:  FROM SOURCE 6 TO RECORD 7 
*SOURCE FILE: 19Y08M14
013971  19Y08M14                         A8    C        12:02:21:23 12:02:21:23 02:19:51:16 02:19:51:16 
013971  19Y08M14                         A8    D    005 11:46:54:22 11:46:55:02 02:19:51:16 02:19:51:21 
*FROM CLIP NAME:  104-105K2/01.SYNC.01 
*TO CLIP NAME:  104-105K1/01.SYNC.01 
*SOURCE FILE: 19Y08M14
013973  GLDR-CND-020_V01                 V     C        00:00:00:00 00:00:02:11 02:19:51:18 02:19:54:04 
*FROM CLIP NAME:  GLDR-CND-020_V01 
*SOURCE FILE: GLDR-CND-020_V01
013972  MSMMMOB.11                       V     C        01:32:56:24 01:32:59:10 02:19:51:18 02:19:54:04 
M2      MSMMMOB.11                                025.0 01:32:56:24 
*FROM CLIP NAME:  B023C001_190814_R481 
*SOURCE FILE: MSMMMOB.11
013974  19Y08M14                         A     C        11:46:55:02 11:46:57:09 02:19:51:21 02:19:54:03 
*FROM CLIP NAME:  104-105K1/01.SYNC.01 
*A1 VOL =  -8.5 DB  PAN R100 
*SOURCE FILE: 19Y08M14
013975  19Y08M14                         A2    C        11:46:55:02 11:46:57:09 02:19:51:21 02:19:54:03 
*FROM CLIP NAME:  104-105K1/01.SYNC.01 
*A2 VOL =  -8.5 DB  PAN L100 
*SOURCE FILE: 19Y08M14
013976  19Y08M14                         A3    C        11:46:55:02 11:46:57:09 02:19:51:21 02:19:54:03 
*FROM CLIP NAME:  104-105K1/01.SYNC.01 
*A3 VOL =  -8.5 DB  PAN R100 
*SOURCE FILE: 19Y08M14
013977  19Y08M14                         A4    C        11:46:55:02 11:46:57:09 02:19:51:21 02:19:54:03 
*FROM CLIP NAME:  104-105K1/01.SYNC.01 
*A4 VOL =  -8.5 DB  PAN L100 
*SOURCE FILE: 19Y08M14
013978  19Y08M14                         A5    C        11:46:55:02 11:46:57:09 02:19:51:21 02:19:54:03 
*FROM CLIP NAME:  104-105K1/01.SYNC.01 
*A5 VOL =  -8.5 DB  PAN R100 
*SOURCE FILE: 19Y08M14
013979  19Y08M14                         A6    C        11:46:55:02 11:46:57:09 02:19:51:21 02:19:54:03 
*FROM CLIP NAME:  104-105K1/01.SYNC.01 
*A6 VOL =  -8.5 DB  PAN L100 
*PATCH 19Y08M14:  FROM SOURCE 7 TO RECORD 6 
*SOURCE FILE: 19Y08M14
013980  19Y08M14                         A7    C        11:46:55:02 11:46:57:09 02:19:51:21 02:19:54:03 
*FROM CLIP NAME:  104-105K1/01.SYNC.01 
*A7 VOL =  -8.5 DB  PAN R100 
*PATCH 19Y08M14:  FROM SOURCE 6 TO RECORD 7 
*SOURCE FILE: 19Y08M14
013981  19Y08M14                         A8    C        11:46:55:02 11:46:57:09 02:19:51:21 02:19:54:03 
*FROM CLIP NAME:  104-105K1/01.SYNC.01 
*SOURCE FILE: 19Y08M14
013982  19Y08M14                         A     C        11:46:57:09 11:46:57:09 02:19:54:03 02:19:54:03 
013982  19Y08M14                         A     D    002 13:09:54:06 13:09:54:08 02:19:54:03 02:19:54:05 
*FROM CLIP NAME:  104-105K1/01.SYNC.01 
*TO CLIP NAME:  104-105K6/02.SYNC.01 
*A1 VOL =  -8.5 DB  PAN R100 
*SOURCE FILE: 19Y08M14
013983  19Y08M14                         A2    C        11:46:57:09 11:46:57:09 02:19:54:03 02:19:54:03 
013983  19Y08M14                         A2    D    002 13:09:54:06 13:09:54:08 02:19:54:03 02:19:54:05 
*FROM CLIP NAME:  104-105K1/01.SYNC.01 
*TO CLIP NAME:  104-105K6/02.SYNC.01 
*A2 VOL =  -8.5 DB  PAN L100 
*SOURCE FILE: 19Y08M14
013984  19Y08M14                         A3    C        11:46:57:09 11:46:57:09 02:19:54:03 02:19:54:03 
013984  19Y08M14                         A3    D    002 13:09:54:06 13:09:54:08 02:19:54:03 02:19:54:05 
*FROM CLIP NAME:  104-105K1/01.SYNC.01 
*TO CLIP NAME:  104-105K6/02.SYNC.01 
*A3 VOL =  -8.5 DB  PAN R100 
*SOURCE FILE: 19Y08M14
013985  19Y08M14                         A4    C        11:46:57:09 11:46:57:09 02:19:54:03 02:19:54:03 
013985  19Y08M14                         A4    D    002 13:09:54:06 13:09:54:08 02:19:54:03 02:19:54:05 
*FROM CLIP NAME:  104-105K1/01.SYNC.01 
*TO CLIP NAME:  104-105K6/02.SYNC.01 
*A4 VOL =  -8.5 DB  PAN L100 
*SOURCE FILE: 19Y08M14
013986  19Y08M14                         A5    C        11:46:57:09 11:46:57:09 02:19:54:03 02:19:54:03 
013986  19Y08M14                         A5    D    002 13:09:54:06 13:09:54:08 02:19:54:03 02:19:54:05 
*FROM CLIP NAME:  104-105K1/01.SYNC.01 
*TO CLIP NAME:  104-105K6/02.SYNC.01 
*A5 VOL =  -8.5 DB  PAN R100 
*SOURCE FILE: 19Y08M14
013987  19Y08M14                         A6    C        11:46:57:09 11:46:57:09 02:19:54:03 02:19:54:03 
013987  19Y08M14                         A6    D    002 13:09:54:06 13:09:54:08 02:19:54:03 02:19:54:05 
*FROM CLIP NAME:  104-105K1/01.SYNC.01 
*TO CLIP NAME:  104-105K6/02.SYNC.01 
*A6 VOL =  -8.5 DB  PAN L100 
*PATCH 19Y08M14:  FROM SOURCE 7 TO RECORD 6 
*PATCH 19Y08M14:  FROM SOURCE 7 TO RECORD 6 
*SOURCE FILE: 19Y08M14
013988  19Y08M14                         A7    C        11:46:57:09 11:46:57:09 02:19:54:03 02:19:54:03 
013988  19Y08M14                         A7    D    002 13:09:54:06 13:09:54:08 02:19:54:03 02:19:54:05 
*FROM CLIP NAME:  104-105K1/01.SYNC.01 
*TO CLIP NAME:  104-105K6/02.SYNC.01 
*A7 VOL =  -8.5 DB  PAN R100 
*PATCH 19Y08M14:  FROM SOURCE 6 TO RECORD 7 
*PATCH 19Y08M14:  FROM SOURCE 6 TO RECORD 7 
*SOURCE FILE: 19Y08M14
013989  19Y08M14                         A8    C        11:46:57:09 11:46:57:09 02:19:54:03 02:19:54:03 
013989  19Y08M14                         A8    D    002 13:09:54:06 13:09:54:08 02:19:54:03 02:19:54:05 
*FROM CLIP NAME:  104-105K1/01.SYNC.01 
*TO CLIP NAME:  104-105K6/02.SYNC.01 
*SOURCE FILE: 19Y08M14
013990  MSMMMOB.32                       V     C        13:09:54:07 13:09:58:00 02:19:54:04 02:19:57:22 
M2      MSMMMOB.32                                025.0 13:09:54:07 
*FROM CLIP NAME:  A077C003_190814_R32C 
*SOURCE FILE: MSMMMOB.32
013991  BL                               V     C        00:00:00:00 00:03:02:06 02:19:54:04 02:22:56:10 
*SOURCE FILE: (NULL)
013992  19Y08M14                         A     C        13:09:54:08 13:09:57:06 02:19:54:05 02:19:57:03 
*FROM CLIP NAME:  104-105K6/02.SYNC.01 
*SOURCE FILE: 19Y08M14
013993  19Y08M14                         A2    C        13:09:54:08 13:09:57:06 02:19:54:05 02:19:57:03 
*FROM CLIP NAME:  104-105K6/02.SYNC.01 
*SOURCE FILE: 19Y08M14
013994  19Y08M14                         A3    C        13:09:54:08 13:09:57:06 02:19:54:05 02:19:57:03 
*FROM CLIP NAME:  104-105K6/02.SYNC.01 
*SOURCE FILE: 19Y08M14
013995  19Y08M14                         A4    C        13:09:54:08 13:09:57:06 02:19:54:05 02:19:57:03 
*FROM CLIP NAME:  104-105K6/02.SYNC.01 
*SOURCE FILE: 19Y08M14
013996  19Y08M14                         A5    C        13:09:54:08 13:09:57:06 02:19:54:05 02:19:57:03 
*FROM CLIP NAME:  104-105K6/02.SYNC.01 
*SOURCE FILE: 19Y08M14
013997  19Y08M14                         A6    C        13:09:54:08 13:09:57:06 02:19:54:05 02:19:57:03 
*FROM CLIP NAME:  104-105K6/02.SYNC.01 
*PATCH 19Y08M14:  FROM SOURCE 7 TO RECORD 6 
*SOURCE FILE: 19Y08M14
013998  19Y08M14                         A7    C        13:09:54:08 13:09:57:06 02:19:54:05 02:19:57:03 
*FROM CLIP NAME:  104-105K6/02.SYNC.01 
*PATCH 19Y08M14:  FROM SOURCE 6 TO RECORD 7 
*SOURCE FILE: 19Y08M14
013999  19Y08M14                         A8    C        13:09:54:08 13:09:57:06 02:19:54:05 02:19:57:03 
*FROM CLIP NAME:  104-105K6/02.SYNC.01 
*SOURCE FILE: 19Y08M14
014000  00334.MP3                        A9    C        01:00:03:14 01:00:03:14 02:19:54:22 02:19:54:22 
014000  BL                               A9    D    018 00:00:00:00 00:00:00:18 02:19:54:22 02:19:55:15 
*FROM CLIP NAME:  00334.MP3 
*A9 VOL =  +5.4 DB  PAN L100 
*PATCH 00334.MP3:  FROM SOURCE 1 TO RECORD 9 
*SOURCE FILE: 00334.MP3
014001  00334.MP3                        A10   C        01:00:03:14 01:00:03:14 02:19:54:22 02:19:54:22 
014001  BL                               A10   D    018 00:00:00:00 00:00:00:18 02:19:54:22 02:19:55:15 
*FROM CLIP NAME:  00334.MP3 
*A10 VOL =  +5.4 DB  PAN R100 
*PATCH 00334.MP3:  FROM SOURCE 2 TO RECORD 10 
*SOURCE FILE: 00334.MP3
014002  19Y08M14                         A     C        12:31:19:04 12:31:23:11 02:19:57:03 02:20:01:10 
*FROM CLIP NAME:  104-105K3/02.SYNC.01 
*SOURCE FILE: 19Y08M14
014003  19Y08M14                         A2    C        12:31:19:04 12:31:23:11 02:19:57:03 02:20:01:10 
*FROM CLIP NAME:  104-105K3/02.SYNC.01 
*SOURCE FILE: 19Y08M14
014004  19Y08M14                         A3    C        12:31:19:04 12:31:23:11 02:19:57:03 02:20:01:10 
*FROM CLIP NAME:  104-105K3/02.SYNC.01 
*SOURCE FILE: 19Y08M14
014005  19Y08M14                         A4    C        12:31:19:04 12:31:23:11 02:19:57:03 02:20:01:10 
*FROM CLIP NAME:  104-105K3/02.SYNC.01 
*SOURCE FILE: 19Y08M14
014006  19Y08M14                         A5    C        12:31:19:04 12:31:23:11 02:19:57:03 02:20:01:10 
*FROM CLIP NAME:  104-105K3/02.SYNC.01 
*SOURCE FILE: 19Y08M14
014007  19Y08M14                         A6    C        12:31:19:04 12:31:23:11 02:19:57:03 02:20:01:10 
*FROM CLIP NAME:  104-105K3/02.SYNC.01 
*PATCH 19Y08M14:  FROM SOURCE 7 TO RECORD 6 
*SOURCE FILE: 19Y08M14
014008  19Y08M14                         A7    C        12:31:19:04 12:31:23:11 02:19:57:03 02:20:01:10 
*FROM CLIP NAME:  104-105K3/02.SYNC.01 
*PATCH 19Y08M14:  FROM SOURCE 6 TO RECORD 7 
*SOURCE FILE: 19Y08M14
014009  19Y08M14                         A8    C        12:31:19:04 12:31:23:11 02:19:57:03 02:20:01:10 
*FROM CLIP NAME:  104-105K3/02.SYNC.01 
*SOURCE FILE: 19Y08M14
014010  MSMMMOB.07                       V     C        12:31:19:23 12:31:24:06 02:19:57:22 02:20:02:05 
M2      MSMMMOB.07                                025.0 12:31:19:23 
*FROM CLIP NAME:  B023C004_190814_R481 
*SOURCE FILE: MSMMMOB.07
014011  19Y08M14                         A     C        13:09:58:07 13:10:02:03 02:20:01:10 02:20:05:06 
*FROM CLIP NAME:  104-105K6/02.SYNC.01 
*SOURCE FILE: 19Y08M14
014012  19Y08M14                         A2    C        13:09:58:07 13:10:02:03 02:20:01:10 02:20:05:06 
*FROM CLIP NAME:  104-105K6/02.SYNC.01 
*SOURCE FILE: 19Y08M14
014013  19Y08M14                         A3    C        13:09:58:07 13:10:02:03 02:20:01:10 02:20:05:06 
*FROM CLIP NAME:  104-105K6/02.SYNC.01 
*SOURCE FILE: 19Y08M14
014014  19Y08M14                         A4    C        13:09:58:07 13:10:02:03 02:20:01:10 02:20:05:06 
*FROM CLIP NAME:  104-105K6/02.SYNC.01 
*SOURCE FILE: 19Y08M14
014015  19Y08M14                         A5    C        13:09:58:07 13:10:02:03 02:20:01:10 02:20:05:06 
*FROM CLIP NAME:  104-105K6/02.SYNC.01 
*SOURCE FILE: 19Y08M14
014016  19Y08M14                         A6    C        13:09:58:07 13:10:02:03 02:20:01:10 02:20:05:06 
*FROM CLIP NAME:  104-105K6/02.SYNC.01 
*PATCH 19Y08M14:  FROM SOURCE 7 TO RECORD 6 
*SOURCE FILE: 19Y08M14
014017  19Y08M14                         A7    C        13:09:58:07 13:10:02:03 02:20:01:10 02:20:05:06 
*FROM CLIP NAME:  104-105K6/02.SYNC.01 
*PATCH 19Y08M14:  FROM SOURCE 6 TO RECORD 7 
*SOURCE FILE: 19Y08M14
014018  19Y08M14                         A8    C        13:09:58:07 13:10:02:03 02:20:01:10 02:20:05:06 
*FROM CLIP NAME:  104-105K6/02.SYNC.01 
*SOURCE FILE: 19Y08M14
014019  MSMMMOB.32                       V     C        13:09:59:02 13:10:01:19 02:20:02:05 02:20:04:22 
M2      MSMMMOB.32                                025.0 13:09:59:02 
*FROM CLIP NAME:  A077C003_190814_R32C 
*SOURCE FILE: MSMMMOB.32
014020  MSMMMOB.07                       V     C        12:31:26:15 12:31:32:20 02:20:04:22 02:20:11:02 
M2      MSMMMOB.07                                025.0 12:31:26:15 
*FROM CLIP NAME:  B023C004_190814_R481 
*SOURCE FILE: MSMMMOB.07
014021  19Y08M14                         A     C        13:10:02:03 13:10:02:03 02:20:05:06 02:20:05:06 
014021  19Y08M14                         A     D    002 12:31:26:24 12:31:27:01 02:20:05:06 02:20:05:08 
*FROM CLIP NAME:  104-105K6/02.SYNC.01 
*TO CLIP NAME:  104-105K3/02.SYNC.01 
*SOURCE FILE: 19Y08M14
014022  19Y08M14                         A2    C        13:10:02:03 13:10:02:03 02:20:05:06 02:20:05:06 
014022  19Y08M14                         A2    D    002 12:31:26:24 12:31:27:01 02:20:05:06 02:20:05:08 
*FROM CLIP NAME:  104-105K6/02.SYNC.01 
*TO CLIP NAME:  104-105K3/02.SYNC.01 
*SOURCE FILE: 19Y08M14
014023  19Y08M14                         A3    C        13:10:02:03 13:10:02:03 02:20:05:06 02:20:05:06 
014023  19Y08M14                         A3    D    002 12:31:26:24 12:31:27:01 02:20:05:06 02:20:05:08 
*FROM CLIP NAME:  104-105K6/02.SYNC.01 
*TO CLIP NAME:  104-105K3/02.SYNC.01 
*SOURCE FILE: 19Y08M14
014024  19Y08M14                         A4    C        13:10:02:03 13:10:02:03 02:20:05:06 02:20:05:06 
014024  19Y08M14                         A4    D    002 12:31:26:24 12:31:27:01 02:20:05:06 02:20:05:08 
*FROM CLIP NAME:  104-105K6/02.SYNC.01 
*TO CLIP NAME:  104-105K3/02.SYNC.01 
*SOURCE FILE: 19Y08M14
014025  19Y08M14                         A5    C        13:10:02:03 13:10:02:03 02:20:05:06 02:20:05:06 
014025  19Y08M14                         A5    D    002 12:31:26:24 12:31:27:01 02:20:05:06 02:20:05:08 
*FROM CLIP NAME:  104-105K6/02.SYNC.01 
*TO CLIP NAME:  104-105K3/02.SYNC.01 
*SOURCE FILE: 19Y08M14
014026  19Y08M14                         A6    C        13:10:02:03 13:10:02:03 02:20:05:06 02:20:05:06 
014026  19Y08M14                         A6    D    002 12:31:26:24 12:31:27:01 02:20:05:06 02:20:05:08 
*FROM CLIP NAME:  104-105K6/02.SYNC.01 
*TO CLIP NAME:  104-105K3/02.SYNC.01 
*PATCH 19Y08M14:  FROM SOURCE 7 TO RECORD 6 
*PATCH 19Y08M14:  FROM SOURCE 7 TO RECORD 6 
*SOURCE FILE: 19Y08M14
014027  19Y08M14                         A7    C        13:10:02:03 13:10:02:03 02:20:05:06 02:20:05:06 
014027  19Y08M14                         A7    D    002 12:31:26:24 12:31:27:01 02:20:05:06 02:20:05:08 
*FROM CLIP NAME:  104-105K6/02.SYNC.01 
*TO CLIP NAME:  104-105K3/02.SYNC.01 
*PATCH 19Y08M14:  FROM SOURCE 6 TO RECORD 7 
*PATCH 19Y08M14:  FROM SOURCE 6 TO RECORD 7 
*SOURCE FILE: 19Y08M14
014028  19Y08M14                         A8    C        13:10:02:03 13:10:02:03 02:20:05:06 02:20:05:06 
014028  19Y08M14                         A8    D    002 12:31:26:24 12:31:27:01 02:20:05:06 02:20:05:08 
*FROM CLIP NAME:  104-105K6/02.SYNC.01 
*TO CLIP NAME:  104-105K3/02.SYNC.01 
*SOURCE FILE: 19Y08M14
014029  19Y08M14                         A     C        12:31:27:01 12:31:33:04 02:20:05:08 02:20:11:11 
*FROM CLIP NAME:  104-105K3/02.SYNC.01 
*SOURCE FILE: 19Y08M14
014030  19Y08M14                         A2    C        12:31:27:01 12:31:33:04 02:20:05:08 02:20:11:11 
*FROM CLIP NAME:  104-105K3/02.SYNC.01 
*SOURCE FILE: 19Y08M14
014031  19Y08M14                         A3    C        12:31:27:01 12:31:33:04 02:20:05:08 02:20:11:11 
*FROM CLIP NAME:  104-105K3/02.SYNC.01 
*SOURCE FILE: 19Y08M14
014032  19Y08M14                         A4    C        12:31:27:01 12:31:33:04 02:20:05:08 02:20:11:11 
*FROM CLIP NAME:  104-105K3/02.SYNC.01 
*SOURCE FILE: 19Y08M14
014033  19Y08M14                         A5    C        12:31:27:01 12:31:33:04 02:20:05:08 02:20:11:11 
*FROM CLIP NAME:  104-105K3/02.SYNC.01 
*SOURCE FILE: 19Y08M14
014034  19Y08M14                         A6    C        12:31:27:01 12:31:33:04 02:20:05:08 02:20:11:11 
*FROM CLIP NAME:  104-105K3/02.SYNC.01 
*PATCH 19Y08M14:  FROM SOURCE 7 TO RECORD 6 
*SOURCE FILE: 19Y08M14
014035  19Y08M14                         A7    C        12:31:27:01 12:31:33:04 02:20:05:08 02:20:11:11 
*FROM CLIP NAME:  104-105K3/02.SYNC.01 
*PATCH 19Y08M14:  FROM SOURCE 6 TO RECORD 7 
*SOURCE FILE: 19Y08M14
014036  19Y08M14                         A8    C        12:31:27:01 12:31:33:04 02:20:05:08 02:20:11:11 
*FROM CLIP NAME:  104-105K3/02.SYNC.01 
*SOURCE FILE: 19Y08M14
014037  MSMMMOB.63                       V     C        13:10:06:13 13:10:08:17 02:20:11:02 02:20:13:06 
M2      MSMMMOB.63                                025.0 13:10:06:13 
*FROM CLIP NAME:  B024C003_190814_R481 
*SOURCE FILE: MSMMMOB.63
014038  19Y08M14                         A     C        12:31:33:04 12:31:33:04 02:20:11:11 02:20:11:11 
014038  19Y08M14                         A     D    002 12:31:28:03 12:31:28:05 02:20:11:11 02:20:11:13 
*FROM CLIP NAME:  104-105K3/02.SYNC.01 
*TO CLIP NAME:  104-105K3/02.SYNC.01 
*PATCH 19Y08M14:  FROM SOURCE 7 TO RECORD 1 
*SOURCE FILE: 19Y08M14
014039  19Y08M14                         A2    C        12:31:33:04 12:31:33:04 02:20:11:11 02:20:11:11 
014039  19Y08M14                         A2    D    002 12:31:28:03 12:31:28:05 02:20:11:11 02:20:11:13 
*FROM CLIP NAME:  104-105K3/02.SYNC.01 
*TO CLIP NAME:  104-105K3/02.SYNC.01 
*PATCH 19Y08M14:  FROM SOURCE 6 TO RECORD 2 
*SOURCE FILE: 19Y08M14
014040  19Y08M14                         A3    C        12:31:33:04 12:31:33:04 02:20:11:11 02:20:11:11 
014040  19Y08M14                         A3    D    002 12:31:28:03 12:31:28:05 02:20:11:11 02:20:11:13 
*FROM CLIP NAME:  104-105K3/02.SYNC.01 
*TO CLIP NAME:  104-105K3/02.SYNC.01 
*SOURCE FILE: 19Y08M14
014041  19Y08M14                         A4    C        12:31:33:04 12:31:33:04 02:20:11:11 02:20:11:11 
014041  19Y08M14                         A4    D    002 12:31:28:03 12:31:28:05 02:20:11:11 02:20:11:13 
*FROM CLIP NAME:  104-105K3/02.SYNC.01 
*TO CLIP NAME:  104-105K3/02.SYNC.01 
*SOURCE FILE: 19Y08M14
014042  19Y08M14                         A5    C        12:31:33:04 12:31:33:04 02:20:11:11 02:20:11:11 
014042  19Y08M14                         A5    D    002 12:31:28:03 12:31:28:05 02:20:11:11 02:20:11:13 
*FROM CLIP NAME:  104-105K3/02.SYNC.01 
*TO CLIP NAME:  104-105K3/02.SYNC.01 
*SOURCE FILE: 19Y08M14
014043  19Y08M14                         A6    C        12:31:33:04 12:31:33:04 02:20:11:11 02:20:11:11 
014043  19Y08M14                         A6    D    002 12:31:28:03 12:31:28:05 02:20:11:11 02:20:11:13 
*FROM CLIP NAME:  104-105K3/02.SYNC.01 
*TO CLIP NAME:  104-105K3/02.SYNC.01 
*PATCH 19Y08M14:  FROM SOURCE 7 TO RECORD 6 
*PATCH 19Y08M14:  FROM SOURCE 2 TO RECORD 6 
*SOURCE FILE: 19Y08M14
014044  19Y08M14                         A7    C        12:31:33:04 12:31:33:04 02:20:11:11 02:20:11:11 
014044  19Y08M14                         A7    D    002 12:31:28:03 12:31:28:05 02:20:11:11 02:20:11:13 
*FROM CLIP NAME:  104-105K3/02.SYNC.01 
*TO CLIP NAME:  104-105K3/02.SYNC.01 
*PATCH 19Y08M14:  FROM SOURCE 6 TO RECORD 7 
*PATCH 19Y08M14:  FROM SOURCE 1 TO RECORD 7 
*SOURCE FILE: 19Y08M14
014045  19Y08M14                         A8    C        12:31:33:04 12:31:33:04 02:20:11:11 02:20:11:11 
014045  19Y08M14                         A8    D    002 12:31:28:03 12:31:28:05 02:20:11:11 02:20:11:13 
*FROM CLIP NAME:  104-105K3/02.SYNC.01 
*TO CLIP NAME:  104-105K3/02.SYNC.01 
*SOURCE FILE: 19Y08M14
014046  19Y08M14                         A     C        12:31:28:05 12:31:28:19 02:20:11:13 02:20:12:02 
*FROM CLIP NAME:  104-105K3/02.SYNC.01 
*PATCH 19Y08M14:  FROM SOURCE 7 TO RECORD 1 
*SOURCE FILE: 19Y08M14
014047  19Y08M14                         A2    C        12:31:28:05 12:31:28:19 02:20:11:13 02:20:12:02 
*FROM CLIP NAME:  104-105K3/02.SYNC.01 
*PATCH 19Y08M14:  FROM SOURCE 6 TO RECORD 2 
*SOURCE FILE: 19Y08M14
014048  19Y08M14                         A3    C        12:31:28:05 12:31:28:19 02:20:11:13 02:20:12:02 
*FROM CLIP NAME:  104-105K3/02.SYNC.01 
*SOURCE FILE: 19Y08M14
014049  19Y08M14                         A4    C        12:31:28:05 12:31:28:19 02:20:11:13 02:20:12:02 
*FROM CLIP NAME:  104-105K3/02.SYNC.01 
*SOURCE FILE: 19Y08M14
014050  19Y08M14                         A5    C        12:31:28:05 12:31:28:19 02:20:11:13 02:20:12:02 
*FROM CLIP NAME:  104-105K3/02.SYNC.01 
*SOURCE FILE: 19Y08M14
014051  19Y08M14                         A6    C        12:31:28:05 12:31:28:19 02:20:11:13 02:20:12:02 
*FROM CLIP NAME:  104-105K3/02.SYNC.01 
*PATCH 19Y08M14:  FROM SOURCE 2 TO RECORD 6 
*SOURCE FILE: 19Y08M14
014052  19Y08M14                         A7    C        12:31:28:05 12:31:28:19 02:20:11:13 02:20:12:02 
*FROM CLIP NAME:  104-105K3/02.SYNC.01 
*PATCH 19Y08M14:  FROM SOURCE 1 TO RECORD 7 
*SOURCE FILE: 19Y08M14
014053  19Y08M14                         A8    C        12:31:28:05 12:31:28:19 02:20:11:13 02:20:12:02 
*FROM CLIP NAME:  104-105K3/02.SYNC.01 
*SOURCE FILE: 19Y08M14
014054  19Y08M14                         A     C        12:31:28:19 12:31:28:19 02:20:12:02 02:20:12:02 
014054  19Y08M14                         A     D    002 13:10:07:12 13:10:07:14 02:20:12:02 02:20:12:04 
*FROM CLIP NAME:  104-105K3/02.SYNC.01 
*TO CLIP NAME:  104-105K6/02.SYNC.01 
*PATCH 19Y08M14:  FROM SOURCE 7 TO RECORD 1 
*SOURCE FILE: 19Y08M14
014055  19Y08M14                         A2    C        12:31:28:19 12:31:28:19 02:20:12:02 02:20:12:02 
014055  19Y08M14                         A2    D    002 13:10:07:12 13:10:07:14 02:20:12:02 02:20:12:04 
*FROM CLIP NAME:  104-105K3/02.SYNC.01 
*TO CLIP NAME:  104-105K6/02.SYNC.01 
*PATCH 19Y08M14:  FROM SOURCE 6 TO RECORD 2 
*SOURCE FILE: 19Y08M14
014056  19Y08M14                         A3    C        12:31:28:19 12:31:28:19 02:20:12:02 02:20:12:02 
014056  19Y08M14                         A3    D    002 13:10:07:12 13:10:07:14 02:20:12:02 02:20:12:04 
*FROM CLIP NAME:  104-105K3/02.SYNC.01 
*TO CLIP NAME:  104-105K6/02.SYNC.01 
*SOURCE FILE: 19Y08M14
014057  19Y08M14                         A4    C        12:31:28:19 12:31:28:19 02:20:12:02 02:20:12:02 
014057  19Y08M14                         A4    D    002 13:10:07:12 13:10:07:14 02:20:12:02 02:20:12:04 
*FROM CLIP NAME:  104-105K3/02.SYNC.01 
*TO CLIP NAME:  104-105K6/02.SYNC.01 
*SOURCE FILE: 19Y08M14
014058  19Y08M14                         A5    C        12:31:28:19 12:31:28:19 02:20:12:02 02:20:12:02 
014058  19Y08M14                         A5    D    002 13:10:07:12 13:10:07:14 02:20:12:02 02:20:12:04 
*FROM CLIP NAME:  104-105K3/02.SYNC.01 
*TO CLIP NAME:  104-105K6/02.SYNC.01 
*SOURCE FILE: 19Y08M14
014059  19Y08M14                         A6    C        12:31:28:19 12:31:28:19 02:20:12:02 02:20:12:02 
014059  19Y08M14                         A6    D    002 13:10:07:12 13:10:07:14 02:20:12:02 02:20:12:04 
*FROM CLIP NAME:  104-105K3/02.SYNC.01 
*TO CLIP NAME:  104-105K6/02.SYNC.01 
*PATCH 19Y08M14:  FROM SOURCE 2 TO RECORD 6 
*PATCH 19Y08M14:  FROM SOURCE 7 TO RECORD 6 
*SOURCE FILE: 19Y08M14
014060  19Y08M14                         A7    C        12:31:28:19 12:31:28:19 02:20:12:02 02:20:12:02 
014060  19Y08M14                         A7    D    002 13:10:07:12 13:10:07:14 02:20:12:02 02:20:12:04 
*FROM CLIP NAME:  104-105K3/02.SYNC.01 
*TO CLIP NAME:  104-105K6/02.SYNC.01 
*PATCH 19Y08M14:  FROM SOURCE 1 TO RECORD 7 
*PATCH 19Y08M14:  FROM SOURCE 6 TO RECORD 7 
*SOURCE FILE: 19Y08M14
014061  19Y08M14                         A8    C        12:31:28:19 12:31:28:19 02:20:12:02 02:20:12:02 
014061  19Y08M14                         A8    D    002 13:10:07:12 13:10:07:14 02:20:12:02 02:20:12:04 
*FROM CLIP NAME:  104-105K3/02.SYNC.01 
*TO CLIP NAME:  104-105K6/02.SYNC.01 
*SOURCE FILE: 19Y08M14
014062  19Y08M14                         A     C        13:10:07:14 13:10:08:17 02:20:12:04 02:20:13:07 
*FROM CLIP NAME:  104-105K6/02.SYNC.01 
*SOURCE FILE: 19Y08M14
014063  19Y08M14                         A2    C        13:10:07:14 13:10:08:17 02:20:12:04 02:20:13:07 
*FROM CLIP NAME:  104-105K6/02.SYNC.01 
*SOURCE FILE: 19Y08M14
014064  19Y08M14                         A3    C        13:10:07:14 13:10:08:17 02:20:12:04 02:20:13:07 
*FROM CLIP NAME:  104-105K6/02.SYNC.01 
*SOURCE FILE: 19Y08M14
014065  19Y08M14                         A4    C        13:10:07:14 13:10:08:17 02:20:12:04 02:20:13:07 
*FROM CLIP NAME:  104-105K6/02.SYNC.01 
*SOURCE FILE: 19Y08M14
014066  19Y08M14                         A5    C        13:10:07:14 13:10:08:17 02:20:12:04 02:20:13:07 
*FROM CLIP NAME:  104-105K6/02.SYNC.01 
*SOURCE FILE: 19Y08M14
014067  19Y08M14                         A6    C        13:10:07:14 13:10:08:17 02:20:12:04 02:20:13:07 
*FROM CLIP NAME:  104-105K6/02.SYNC.01 
*PATCH 19Y08M14:  FROM SOURCE 7 TO RECORD 6 
*SOURCE FILE: 19Y08M14
014068  19Y08M14                         A7    C        13:10:07:14 13:10:08:17 02:20:12:04 02:20:13:07 
*FROM CLIP NAME:  104-105K6/02.SYNC.01 
*PATCH 19Y08M14:  FROM SOURCE 6 TO RECORD 7 
*SOURCE FILE: 19Y08M14
014069  19Y08M14                         A8    C        13:10:07:14 13:10:08:17 02:20:12:04 02:20:13:07 
*FROM CLIP NAME:  104-105K6/02.SYNC.01 
*SOURCE FILE: 19Y08M14
014070  MSMMMOB.07                       V     C        12:31:33:24 12:31:36:07 02:20:13:06 02:20:15:14 
M2      MSMMMOB.07                                025.0 12:31:33:24 
*FROM CLIP NAME:  B023C004_190814_R481 
*SOURCE FILE: MSMMMOB.07
014071  19Y08M14                         A     C        13:10:08:17 13:10:08:17 02:20:13:07 02:20:13:07 
014071  19Y08M14                         A     D    002 12:31:34:00 12:31:34:02 02:20:13:07 02:20:13:09 
*FROM CLIP NAME:  104-105K6/02.SYNC.01 
*TO CLIP NAME:  104-105K3/02.SYNC.01 
*SOURCE FILE: 19Y08M14
014072  19Y08M14                         A2    C        13:10:08:17 13:10:08:17 02:20:13:07 02:20:13:07 
014072  19Y08M14                         A2    D    002 12:31:34:00 12:31:34:02 02:20:13:07 02:20:13:09 
*FROM CLIP NAME:  104-105K6/02.SYNC.01 
*TO CLIP NAME:  104-105K3/02.SYNC.01 
*SOURCE FILE: 19Y08M14
014073  19Y08M14                         A3    C        13:10:08:17 13:10:08:17 02:20:13:07 02:20:13:07 
014073  19Y08M14                         A3    D    002 12:31:34:00 12:31:34:02 02:20:13:07 02:20:13:09 
*FROM CLIP NAME:  104-105K6/02.SYNC.01 
*TO CLIP NAME:  104-105K3/02.SYNC.01 
*SOURCE FILE: 19Y08M14
014074  19Y08M14                         A4    C        13:10:08:17 13:10:08:17 02:20:13:07 02:20:13:07 
014074  19Y08M14                         A4    D    002 12:31:34:00 12:31:34:02 02:20:13:07 02:20:13:09 
*FROM CLIP NAME:  104-105K6/02.SYNC.01 
*TO CLIP NAME:  104-105K3/02.SYNC.01 
*SOURCE FILE: 19Y08M14
014075  19Y08M14                         A5    C        13:10:08:17 13:10:08:17 02:20:13:07 02:20:13:07 
014075  19Y08M14                         A5    D    002 12:31:34:00 12:31:34:02 02:20:13:07 02:20:13:09 
*FROM CLIP NAME:  104-105K6/02.SYNC.01 
*TO CLIP NAME:  104-105K3/02.SYNC.01 
*SOURCE FILE: 19Y08M14
014076  19Y08M14                         A6    C        13:10:08:17 13:10:08:17 02:20:13:07 02:20:13:07 
014076  19Y08M14                         A6    D    002 12:31:34:00 12:31:34:02 02:20:13:07 02:20:13:09 
*FROM CLIP NAME:  104-105K6/02.SYNC.01 
*TO CLIP NAME:  104-105K3/02.SYNC.01 
*PATCH 19Y08M14:  FROM SOURCE 7 TO RECORD 6 
*PATCH 19Y08M14:  FROM SOURCE 7 TO RECORD 6 
*SOURCE FILE: 19Y08M14
014077  19Y08M14                         A7    C        13:10:08:17 13:10:08:17 02:20:13:07 02:20:13:07 
014077  19Y08M14                         A7    D    002 12:31:34:00 12:31:34:02 02:20:13:07 02:20:13:09 
*FROM CLIP NAME:  104-105K6/02.SYNC.01 
*TO CLIP NAME:  104-105K3/02.SYNC.01 
*PATCH 19Y08M14:  FROM SOURCE 6 TO RECORD 7 
*PATCH 19Y08M14:  FROM SOURCE 6 TO RECORD 7 
*SOURCE FILE: 19Y08M14
014078  19Y08M14                         A8    C        13:10:08:17 13:10:08:17 02:20:13:07 02:20:13:07 
014078  19Y08M14                         A8    D    002 12:31:34:00 12:31:34:02 02:20:13:07 02:20:13:09 
*FROM CLIP NAME:  104-105K6/02.SYNC.01 
*TO CLIP NAME:  104-105K3/02.SYNC.01 
*SOURCE FILE: 19Y08M14
014079  19Y08M14                         A     C        12:31:34:02 12:31:39:04 02:20:13:09 02:20:18:11 
*FROM CLIP NAME:  104-105K3/02.SYNC.01 
*SOURCE FILE: 19Y08M14
014080  19Y08M14                         A2    C        12:31:34:02 12:31:39:04 02:20:13:09 02:20:18:11 
*FROM CLIP NAME:  104-105K3/02.SYNC.01 
*SOURCE FILE: 19Y08M14
014081  19Y08M14                         A3    C        12:31:34:02 12:31:39:04 02:20:13:09 02:20:18:11 
*FROM CLIP NAME:  104-105K3/02.SYNC.01 
*SOURCE FILE: 19Y08M14
014082  19Y08M14                         A4    C        12:31:34:02 12:31:39:04 02:20:13:09 02:20:18:11 
*FROM CLIP NAME:  104-105K3/02.SYNC.01 
*SOURCE FILE: 19Y08M14
014083  19Y08M14                         A5    C        12:31:34:02 12:31:39:04 02:20:13:09 02:20:18:11 
*FROM CLIP NAME:  104-105K3/02.SYNC.01 
*SOURCE FILE: 19Y08M14
014084  19Y08M14                         A6    C        12:31:34:02 12:31:39:04 02:20:13:09 02:20:18:11 
*FROM CLIP NAME:  104-105K3/02.SYNC.01 
*PATCH 19Y08M14:  FROM SOURCE 7 TO RECORD 6 
*SOURCE FILE: 19Y08M14
014085  19Y08M14                         A7    C        12:31:34:02 12:31:39:04 02:20:13:09 02:20:18:11 
*FROM CLIP NAME:  104-105K3/02.SYNC.01 
*PATCH 19Y08M14:  FROM SOURCE 6 TO RECORD 7 
*SOURCE FILE: 19Y08M14
014086  19Y08M14                         A8    C        12:31:34:02 12:31:39:04 02:20:13:09 02:20:18:11 
*FROM CLIP NAME:  104-105K3/02.SYNC.01 
*SOURCE FILE: 19Y08M14
014087  MSMMMOB.63                       V     C        13:10:10:18 13:10:13:16 02:20:15:14 02:20:18:12 
M2      MSMMMOB.63                                025.0 13:10:10:18 
*FROM CLIP NAME:  B024C003_190814_R481 
*SOURCE FILE: MSMMMOB.63
014088  19Y08M14                         A     C        12:31:39:04 12:31:39:04 02:20:18:11 02:20:18:11 
014088  19Y08M14                         A     D    002 12:31:40:07 12:31:40:09 02:20:18:11 02:20:18:13 
*FROM CLIP NAME:  104-105K3/02.SYNC.01 
*TO CLIP NAME:  104-105K3/02.SYNC.01 
*SOURCE FILE: 19Y08M14
014089  19Y08M14                         A2    C        12:31:39:04 12:31:39:04 02:20:18:11 02:20:18:11 
014089  19Y08M14                         A2    D    002 12:31:40:07 12:31:40:09 02:20:18:11 02:20:18:13 
*FROM CLIP NAME:  104-105K3/02.SYNC.01 
*TO CLIP NAME:  104-105K3/02.SYNC.01 
*SOURCE FILE: 19Y08M14
014090  19Y08M14                         A3    C        12:31:39:04 12:31:39:04 02:20:18:11 02:20:18:11 
014090  19Y08M14                         A3    D    002 12:31:40:07 12:31:40:09 02:20:18:11 02:20:18:13 
*FROM CLIP NAME:  104-105K3/02.SYNC.01 
*TO CLIP NAME:  104-105K3/02.SYNC.01 
*SOURCE FILE: 19Y08M14
014091  19Y08M14                         A4    C        12:31:39:04 12:31:39:04 02:20:18:11 02:20:18:11 
014091  19Y08M14                         A4    D    002 12:31:40:07 12:31:40:09 02:20:18:11 02:20:18:13 
*FROM CLIP NAME:  104-105K3/02.SYNC.01 
*TO CLIP NAME:  104-105K3/02.SYNC.01 
*SOURCE FILE: 19Y08M14
014092  19Y08M14                         A5    C        12:31:39:04 12:31:39:04 02:20:18:11 02:20:18:11 
014092  19Y08M14                         A5    D    002 12:31:40:07 12:31:40:09 02:20:18:11 02:20:18:13 
*FROM CLIP NAME:  104-105K3/02.SYNC.01 
*TO CLIP NAME:  104-105K3/02.SYNC.01 
*SOURCE FILE: 19Y08M14
014093  19Y08M14                         A6    C        12:31:39:04 12:31:39:04 02:20:18:11 02:20:18:11 
014093  19Y08M14                         A6    D    002 12:31:40:07 12:31:40:09 02:20:18:11 02:20:18:13 
*FROM CLIP NAME:  104-105K3/02.SYNC.01 
*TO CLIP NAME:  104-105K3/02.SYNC.01 
*PATCH 19Y08M14:  FROM SOURCE 7 TO RECORD 6 
*PATCH 19Y08M14:  FROM SOURCE 7 TO RECORD 6 
*SOURCE FILE: 19Y08M14
014094  19Y08M14                         A7    C        12:31:39:04 12:31:39:04 02:20:18:11 02:20:18:11 
014094  19Y08M14                         A7    D    002 12:31:40:07 12:31:40:09 02:20:18:11 02:20:18:13 
*FROM CLIP NAME:  104-105K3/02.SYNC.01 
*TO CLIP NAME:  104-105K3/02.SYNC.01 
*PATCH 19Y08M14:  FROM SOURCE 6 TO RECORD 7 
*PATCH 19Y08M14:  FROM SOURCE 6 TO RECORD 7 
*SOURCE FILE: 19Y08M14
014095  19Y08M14                         A8    C        12:31:39:04 12:31:39:04 02:20:18:11 02:20:18:11 
014095  19Y08M14                         A8    D    002 12:31:40:07 12:31:40:09 02:20:18:11 02:20:18:13 
*FROM CLIP NAME:  104-105K3/02.SYNC.01 
*TO CLIP NAME:  104-105K3/02.SYNC.01 
*SOURCE FILE: 19Y08M14
014096  MSMMMOB.29                       V     C        12:31:40:08 12:31:43:20 02:20:18:12 02:20:21:24 
M2      MSMMMOB.29                                025.0 12:31:40:08 
*FROM CLIP NAME:  A076C004_190814_R32C 
*SOURCE FILE: MSMMMOB.29
014097  19Y08M14                         A     C        12:31:40:09 12:31:43:20 02:20:18:13 02:20:21:24 
*FROM CLIP NAME:  104-105K3/02.SYNC.01 
*SOURCE FILE: 19Y08M14
014098  19Y08M14                         A2    C        12:31:40:09 12:31:43:20 02:20:18:13 02:20:21:24 
*FROM CLIP NAME:  104-105K3/02.SYNC.01 
*SOURCE FILE: 19Y08M14
014099  19Y08M14                         A3    C        12:31:40:09 12:31:43:20 02:20:18:13 02:20:21:24 
*FROM CLIP NAME:  104-105K3/02.SYNC.01 
*SOURCE FILE: 19Y08M14
014100  19Y08M14                         A4    C        12:31:40:09 12:31:43:20 02:20:18:13 02:20:21:24 
*FROM CLIP NAME:  104-105K3/02.SYNC.01 
*SOURCE FILE: 19Y08M14
014101  19Y08M14                         A5    C        12:31:40:09 12:31:43:20 02:20:18:13 02:20:21:24 
*FROM CLIP NAME:  104-105K3/02.SYNC.01 
*SOURCE FILE: 19Y08M14
014102  19Y08M14                         A6    C        12:31:40:09 12:31:43:20 02:20:18:13 02:20:21:24 
*FROM CLIP NAME:  104-105K3/02.SYNC.01 
*PATCH 19Y08M14:  FROM SOURCE 7 TO RECORD 6 
*SOURCE FILE: 19Y08M14
014103  19Y08M14                         A7    C        12:31:40:09 12:31:43:20 02:20:18:13 02:20:21:24 
*FROM CLIP NAME:  104-105K3/02.SYNC.01 
*PATCH 19Y08M14:  FROM SOURCE 6 TO RECORD 7 
*SOURCE FILE: 19Y08M14
014104  19Y08M14                         A8    C        12:31:40:09 12:31:43:20 02:20:18:13 02:20:21:24 
*FROM CLIP NAME:  104-105K3/02.SYNC.01 
*SOURCE FILE: 19Y08M14
014105  BL                               V     C        00:00:00:00 00:00:03:04 02:20:18:20 02:20:21:24 
*SOURCE FILE: (NULL)
014106  19Y08M14                         A     C        13:10:14:24 13:10:17:13 02:20:21:24 02:20:24:13 
*FROM CLIP NAME:  104-105K6/02.SYNC.01 
*SOURCE FILE: 19Y08M14
014107  19Y08M14                         A2    C        13:10:14:24 13:10:17:13 02:20:21:24 02:20:24:13 
*FROM CLIP NAME:  104-105K6/02.SYNC.01 
*SOURCE FILE: 19Y08M14
014108  19Y08M14                         A3    C        13:10:14:24 13:10:17:13 02:20:21:24 02:20:24:13 
*FROM CLIP NAME:  104-105K6/02.SYNC.01 
*SOURCE FILE: 19Y08M14
014109  19Y08M14                         A4    C        13:10:14:24 13:10:17:13 02:20:21:24 02:20:24:13 
*FROM CLIP NAME:  104-105K6/02.SYNC.01 
*SOURCE FILE: 19Y08M14
014110  19Y08M14                         A5    C        13:10:14:24 13:10:17:13 02:20:21:24 02:20:24:13 
*FROM CLIP NAME:  104-105K6/02.SYNC.01 
*SOURCE FILE: 19Y08M14
014111  19Y08M14                         A6    C        13:10:14:24 13:10:17:13 02:20:21:24 02:20:24:13 
*FROM CLIP NAME:  104-105K6/02.SYNC.01 
*PATCH 19Y08M14:  FROM SOURCE 7 TO RECORD 6 
*SOURCE FILE: 19Y08M14
014112  19Y08M14                         A7    C        13:10:14:24 13:10:17:13 02:20:21:24 02:20:24:13 
*FROM CLIP NAME:  104-105K6/02.SYNC.01 
*PATCH 19Y08M14:  FROM SOURCE 6 TO RECORD 7 
*SOURCE FILE: 19Y08M14
014113  19Y08M14                         A8    C        13:10:14:24 13:10:17:13 02:20:21:24 02:20:24:13 
*FROM CLIP NAME:  104-105K6/02.SYNC.01 
*SOURCE FILE: 19Y08M14
014114  MSMMMOB.63                       V     C        13:10:15:00 13:10:18:03 02:20:21:24 02:20:25:02 
M2      MSMMMOB.63                                025.0 13:10:15:00 
*FROM CLIP NAME:  B024C003_190814_R481 
*SOURCE FILE: MSMMMOB.63
014115  BL                               V     C        00:00:00:00 00:01:44:16 02:20:21:24 02:22:06:15 
*SOURCE FILE: (NULL)
014116  19Y08M14                         A     C        13:10:18:00 13:10:18:13 02:20:24:13 02:20:25:01 
*FROM CLIP NAME:  104-105K6/02.SYNC.01 
*SOURCE FILE: 19Y08M14
014117  19Y08M14                         A2    C        13:10:18:00 13:10:18:13 02:20:24:13 02:20:25:01 
*FROM CLIP NAME:  104-105K6/02.SYNC.01 
*SOURCE FILE: 19Y08M14
014118  19Y08M14                         A3    C        13:10:18:00 13:10:18:13 02:20:24:13 02:20:25:01 
*FROM CLIP NAME:  104-105K6/02.SYNC.01 
*SOURCE FILE: 19Y08M14
014119  19Y08M14                         A4    C        13:10:18:00 13:10:18:13 02:20:24:13 02:20:25:01 
*FROM CLIP NAME:  104-105K6/02.SYNC.01 
*SOURCE FILE: 19Y08M14
014120  19Y08M14                         A5    C        13:10:18:00 13:10:18:13 02:20:24:13 02:20:25:01 
*FROM CLIP NAME:  104-105K6/02.SYNC.01 
*SOURCE FILE: 19Y08M14
014121  19Y08M14                         A6    C        13:10:18:00 13:10:18:13 02:20:24:13 02:20:25:01 
*FROM CLIP NAME:  104-105K6/02.SYNC.01 
*PATCH 19Y08M14:  FROM SOURCE 7 TO RECORD 6 
*SOURCE FILE: 19Y08M14
014122  19Y08M14                         A7    C        13:10:18:00 13:10:18:13 02:20:24:13 02:20:25:01 
*FROM CLIP NAME:  104-105K6/02.SYNC.01 
*PATCH 19Y08M14:  FROM SOURCE 6 TO RECORD 7 
*SOURCE FILE: 19Y08M14
014123  19Y08M14                         A8    C        13:10:18:00 13:10:18:13 02:20:24:13 02:20:25:01 
*FROM CLIP NAME:  104-105K6/02.SYNC.01 
*SOURCE FILE: 19Y08M14
014124  19Y08M14                         A     C        13:10:18:13 13:10:18:13 02:20:25:01 02:20:25:01 
014124  19Y08M14                         A     D    002 12:31:47:09 12:31:47:11 02:20:25:01 02:20:25:03 
*FROM CLIP NAME:  104-105K6/02.SYNC.01 
*TO CLIP NAME:  104-105K3/02.SYNC.01 
*SOURCE FILE: 19Y08M14
014125  19Y08M14                         A2    C        13:10:18:13 13:10:18:13 02:20:25:01 02:20:25:01 
014125  19Y08M14                         A2    D    002 12:31:47:09 12:31:47:11 02:20:25:01 02:20:25:03 
*FROM CLIP NAME:  104-105K6/02.SYNC.01 
*TO CLIP NAME:  104-105K3/02.SYNC.01 
*SOURCE FILE: 19Y08M14
014126  19Y08M14                         A3    C        13:10:18:13 13:10:18:13 02:20:25:01 02:20:25:01 
014126  19Y08M14                         A3    D    002 12:31:47:09 12:31:47:11 02:20:25:01 02:20:25:03 
*FROM CLIP NAME:  104-105K6/02.SYNC.01 
*TO CLIP NAME:  104-105K3/02.SYNC.01 
*SOURCE FILE: 19Y08M14
014127  19Y08M14                         A4    C        13:10:18:13 13:10:18:13 02:20:25:01 02:20:25:01 
014127  19Y08M14                         A4    D    002 12:31:47:09 12:31:47:11 02:20:25:01 02:20:25:03 
*FROM CLIP NAME:  104-105K6/02.SYNC.01 
*TO CLIP NAME:  104-105K3/02.SYNC.01 
*SOURCE FILE: 19Y08M14
014128  19Y08M14                         A5    C        13:10:18:13 13:10:18:13 02:20:25:01 02:20:25:01 
014128  19Y08M14                         A5    D    002 12:31:47:09 12:31:47:11 02:20:25:01 02:20:25:03 
*FROM CLIP NAME:  104-105K6/02.SYNC.01 
*TO CLIP NAME:  104-105K3/02.SYNC.01 
*SOURCE FILE: 19Y08M14
014129  19Y08M14                         A6    C        13:10:18:13 13:10:18:13 02:20:25:01 02:20:25:01 
014129  19Y08M14                         A6    D    002 12:31:47:09 12:31:47:11 02:20:25:01 02:20:25:03 
*FROM CLIP NAME:  104-105K6/02.SYNC.01 
*TO CLIP NAME:  104-105K3/02.SYNC.01 
*PATCH 19Y08M14:  FROM SOURCE 7 TO RECORD 6 
*PATCH 19Y08M14:  FROM SOURCE 7 TO RECORD 6 
*SOURCE FILE: 19Y08M14
014130  19Y08M14                         A7    C        13:10:18:13 13:10:18:13 02:20:25:01 02:20:25:01 
014130  19Y08M14                         A7    D    002 12:31:47:09 12:31:47:11 02:20:25:01 02:20:25:03 
*FROM CLIP NAME:  104-105K6/02.SYNC.01 
*TO CLIP NAME:  104-105K3/02.SYNC.01 
*PATCH 19Y08M14:  FROM SOURCE 6 TO RECORD 7 
*PATCH 19Y08M14:  FROM SOURCE 6 TO RECORD 7 
*SOURCE FILE: 19Y08M14
014131  19Y08M14                         A8    C        13:10:18:13 13:10:18:13 02:20:25:01 02:20:25:01 
014131  19Y08M14                         A8    D    002 12:31:47:09 12:31:47:11 02:20:25:01 02:20:25:03 
*FROM CLIP NAME:  104-105K6/02.SYNC.01 
*TO CLIP NAME:  104-105K3/02.SYNC.01 
*SOURCE FILE: 19Y08M14
014132  MSMMMOB.07                       V     C        12:31:47:10 12:31:51:08 02:20:25:02 02:20:29:00 
M2      MSMMMOB.07                                025.0 12:31:47:10 
*FROM CLIP NAME:  B023C004_190814_R481 
*SOURCE FILE: MSMMMOB.07
014133  19Y08M14                         A     C        12:31:47:11 12:31:51:07 02:20:25:03 02:20:28:24 
*FROM CLIP NAME:  104-105K3/02.SYNC.01 
*SOURCE FILE: 19Y08M14
014134  19Y08M14                         A2    C        12:31:47:11 12:31:51:07 02:20:25:03 02:20:28:24 
*FROM CLIP NAME:  104-105K3/02.SYNC.01 
*SOURCE FILE: 19Y08M14
014135  19Y08M14                         A3    C        12:31:47:11 12:31:51:07 02:20:25:03 02:20:28:24 
*FROM CLIP NAME:  104-105K3/02.SYNC.01 
*SOURCE FILE: 19Y08M14
014136  19Y08M14                         A4    C        12:31:47:11 12:31:51:07 02:20:25:03 02:20:28:24 
*FROM CLIP NAME:  104-105K3/02.SYNC.01 
*SOURCE FILE: 19Y08M14
014137  19Y08M14                         A5    C        12:31:47:11 12:31:51:07 02:20:25:03 02:20:28:24 
*FROM CLIP NAME:  104-105K3/02.SYNC.01 
*SOURCE FILE: 19Y08M14
014138  19Y08M14                         A6    C        12:31:47:11 12:31:51:07 02:20:25:03 02:20:28:24 
*FROM CLIP NAME:  104-105K3/02.SYNC.01 
*PATCH 19Y08M14:  FROM SOURCE 7 TO RECORD 6 
*SOURCE FILE: 19Y08M14
014139  19Y08M14                         A7    C        12:31:47:11 12:31:51:07 02:20:25:03 02:20:28:24 
*FROM CLIP NAME:  104-105K3/02.SYNC.01 
*PATCH 19Y08M14:  FROM SOURCE 6 TO RECORD 7 
*SOURCE FILE: 19Y08M14
014140  19Y08M14                         A8    C        12:31:47:11 12:31:51:07 02:20:25:03 02:20:28:24 
*FROM CLIP NAME:  104-105K3/02.SYNC.01 
*SOURCE FILE: 19Y08M14
014141  19Y08M14                         A     C        12:31:51:07 12:31:51:07 02:20:28:24 02:20:28:24 
014141  19Y08M14                         A     D    002 13:10:24:03 13:10:24:05 02:20:28:24 02:20:29:01 
*FROM CLIP NAME:  104-105K3/02.SYNC.01 
*TO CLIP NAME:  104-105K6/02.SYNC.01 
*SOURCE FILE: 19Y08M14
014142  19Y08M14                         A2    C        12:31:51:07 12:31:51:07 02:20:28:24 02:20:28:24 
014142  19Y08M14                         A2    D    002 13:10:24:03 13:10:24:05 02:20:28:24 02:20:29:01 
*FROM CLIP NAME:  104-105K3/02.SYNC.01 
*TO CLIP NAME:  104-105K6/02.SYNC.01 
*SOURCE FILE: 19Y08M14
014143  19Y08M14                         A3    C        12:31:51:07 12:31:51:07 02:20:28:24 02:20:28:24 
014143  19Y08M14                         A3    D    002 13:10:24:03 13:10:24:05 02:20:28:24 02:20:29:01 
*FROM CLIP NAME:  104-105K3/02.SYNC.01 
*TO CLIP NAME:  104-105K6/02.SYNC.01 
*SOURCE FILE: 19Y08M14
014144  19Y08M14                         A4    C        12:31:51:07 12:31:51:07 02:20:28:24 02:20:28:24 
014144  19Y08M14                         A4    D    002 13:10:24:03 13:10:24:05 02:20:28:24 02:20:29:01 
*FROM CLIP NAME:  104-105K3/02.SYNC.01 
*TO CLIP NAME:  104-105K6/02.SYNC.01 
*SOURCE FILE: 19Y08M14
014145  19Y08M14                         A5    C        12:31:51:07 12:31:51:07 02:20:28:24 02:20:28:24 
014145  19Y08M14                         A5    D    002 13:10:24:03 13:10:24:05 02:20:28:24 02:20:29:01 
*FROM CLIP NAME:  104-105K3/02.SYNC.01 
*TO CLIP NAME:  104-105K6/02.SYNC.01 
*SOURCE FILE: 19Y08M14
014146  19Y08M14                         A6    C        12:31:51:07 12:31:51:07 02:20:28:24 02:20:28:24 
014146  19Y08M14                         A6    D    002 13:10:24:03 13:10:24:05 02:20:28:24 02:20:29:01 
*FROM CLIP NAME:  104-105K3/02.SYNC.01 
*TO CLIP NAME:  104-105K6/02.SYNC.01 
*PATCH 19Y08M14:  FROM SOURCE 7 TO RECORD 6 
*PATCH 19Y08M14:  FROM SOURCE 7 TO RECORD 6 
*SOURCE FILE: 19Y08M14
014147  19Y08M14                         A7    C        12:31:51:07 12:31:51:07 02:20:28:24 02:20:28:24 
014147  19Y08M14                         A7    D    002 13:10:24:03 13:10:24:05 02:20:28:24 02:20:29:01 
*FROM CLIP NAME:  104-105K3/02.SYNC.01 
*TO CLIP NAME:  104-105K6/02.SYNC.01 
*PATCH 19Y08M14:  FROM SOURCE 6 TO RECORD 7 
*PATCH 19Y08M14:  FROM SOURCE 6 TO RECORD 7 
*SOURCE FILE: 19Y08M14
014148  19Y08M14                         A8    C        12:31:51:07 12:31:51:07 02:20:28:24 02:20:28:24 
014148  19Y08M14                         A8    D    002 13:10:24:03 13:10:24:05 02:20:28:24 02:20:29:01 
*FROM CLIP NAME:  104-105K3/02.SYNC.01 
*TO CLIP NAME:  104-105K6/02.SYNC.01 
*SOURCE FILE: 19Y08M14
014149  MSMMMOB.32                       V     C        13:10:24:04 13:10:25:11 02:20:29:00 02:20:30:07 
M2      MSMMMOB.32                                025.0 13:10:24:04 
*FROM CLIP NAME:  A077C003_190814_R32C 
*SOURCE FILE: MSMMMOB.32
014150  19Y08M14                         A     C        13:10:24:05 13:10:25:10 02:20:29:01 02:20:30:06 
*FROM CLIP NAME:  104-105K6/02.SYNC.01 
*SOURCE FILE: 19Y08M14
014151  19Y08M14                         A2    C        13:10:24:05 13:10:25:10 02:20:29:01 02:20:30:06 
*FROM CLIP NAME:  104-105K6/02.SYNC.01 
*SOURCE FILE: 19Y08M14
014152  19Y08M14                         A3    C        13:10:24:05 13:10:25:10 02:20:29:01 02:20:30:06 
*FROM CLIP NAME:  104-105K6/02.SYNC.01 
*SOURCE FILE: 19Y08M14
014153  19Y08M14                         A4    C        13:10:24:05 13:10:25:10 02:20:29:01 02:20:30:06 
*FROM CLIP NAME:  104-105K6/02.SYNC.01 
*SOURCE FILE: 19Y08M14
014154  19Y08M14                         A5    C        13:10:24:05 13:10:25:10 02:20:29:01 02:20:30:06 
*FROM CLIP NAME:  104-105K6/02.SYNC.01 
*SOURCE FILE: 19Y08M14
014155  19Y08M14                         A6    C        13:10:24:05 13:10:25:10 02:20:29:01 02:20:30:06 
*FROM CLIP NAME:  104-105K6/02.SYNC.01 
*PATCH 19Y08M14:  FROM SOURCE 7 TO RECORD 6 
*SOURCE FILE: 19Y08M14
014156  19Y08M14                         A7    C        13:10:24:05 13:10:25:10 02:20:29:01 02:20:30:06 
*FROM CLIP NAME:  104-105K6/02.SYNC.01 
*PATCH 19Y08M14:  FROM SOURCE 6 TO RECORD 7 
*SOURCE FILE: 19Y08M14
014157  19Y08M14                         A8    C        13:10:24:05 13:10:25:10 02:20:29:01 02:20:30:06 
*FROM CLIP NAME:  104-105K6/02.SYNC.01 
*SOURCE FILE: 19Y08M14
014158  19Y08M14                         A     C        13:10:25:10 13:10:25:10 02:20:30:06 02:20:30:06 
014158  19Y08M14                         A     D    002 12:31:51:16 12:31:51:18 02:20:30:06 02:20:30:08 
*FROM CLIP NAME:  104-105K6/02.SYNC.01 
*TO CLIP NAME:  104-105K3/02.SYNC.01 
*SOURCE FILE: 19Y08M14
014159  19Y08M14                         A2    C        13:10:25:10 13:10:25:10 02:20:30:06 02:20:30:06 
014159  19Y08M14                         A2    D    002 12:31:51:16 12:31:51:18 02:20:30:06 02:20:30:08 
*FROM CLIP NAME:  104-105K6/02.SYNC.01 
*TO CLIP NAME:  104-105K3/02.SYNC.01 
*SOURCE FILE: 19Y08M14
014160  19Y08M14                         A3    C        13:10:25:10 13:10:25:10 02:20:30:06 02:20:30:06 
014160  19Y08M14                         A3    D    002 12:31:51:16 12:31:51:18 02:20:30:06 02:20:30:08 
*FROM CLIP NAME:  104-105K6/02.SYNC.01 
*TO CLIP NAME:  104-105K3/02.SYNC.01 
*SOURCE FILE: 19Y08M14
014161  19Y08M14                         A4    C        13:10:25:10 13:10:25:10 02:20:30:06 02:20:30:06 
014161  19Y08M14                         A4    D    002 12:31:51:16 12:31:51:18 02:20:30:06 02:20:30:08 
*FROM CLIP NAME:  104-105K6/02.SYNC.01 
*TO CLIP NAME:  104-105K3/02.SYNC.01 
*SOURCE FILE: 19Y08M14
014162  19Y08M14                         A5    C        13:10:25:10 13:10:25:10 02:20:30:06 02:20:30:06 
014162  19Y08M14                         A5    D    002 12:31:51:16 12:31:51:18 02:20:30:06 02:20:30:08 
*FROM CLIP NAME:  104-105K6/02.SYNC.01 
*TO CLIP NAME:  104-105K3/02.SYNC.01 
*SOURCE FILE: 19Y08M14
014163  19Y08M14                         A6    C        13:10:25:10 13:10:25:10 02:20:30:06 02:20:30:06 
014163  19Y08M14                         A6    D    002 12:31:51:16 12:31:51:18 02:20:30:06 02:20:30:08 
*FROM CLIP NAME:  104-105K6/02.SYNC.01 
*TO CLIP NAME:  104-105K3/02.SYNC.01 
*PATCH 19Y08M14:  FROM SOURCE 7 TO RECORD 6 
*PATCH 19Y08M14:  FROM SOURCE 7 TO RECORD 6 
*SOURCE FILE: 19Y08M14
014164  19Y08M14                         A7    C        13:10:25:10 13:10:25:10 02:20:30:06 02:20:30:06 
014164  19Y08M14                         A7    D    002 12:31:51:16 12:31:51:18 02:20:30:06 02:20:30:08 
*FROM CLIP NAME:  104-105K6/02.SYNC.01 
*TO CLIP NAME:  104-105K3/02.SYNC.01 
*PATCH 19Y08M14:  FROM SOURCE 6 TO RECORD 7 
*PATCH 19Y08M14:  FROM SOURCE 6 TO RECORD 7 
*SOURCE FILE: 19Y08M14
014165  19Y08M14                         A8    C        13:10:25:10 13:10:25:10 02:20:30:06 02:20:30:06 
014165  19Y08M14                         A8    D    002 12:31:51:16 12:31:51:18 02:20:30:06 02:20:30:08 
*FROM CLIP NAME:  104-105K6/02.SYNC.01 
*TO CLIP NAME:  104-105K3/02.SYNC.01 
*SOURCE FILE: 19Y08M14
014166  MSMMMOB.29                       V     C        12:31:51:17 12:31:55:21 02:20:30:07 02:20:34:11 
M2      MSMMMOB.29                                025.0 12:31:51:17 
*FROM CLIP NAME:  A076C004_190814_R32C 
*SOURCE FILE: MSMMMOB.29
014167  19Y08M14                         A     C        12:31:51:18 12:31:55:21 02:20:30:08 02:20:34:11 
*FROM CLIP NAME:  104-105K3/02.SYNC.01 
*SOURCE FILE: 19Y08M14
014168  19Y08M14                         A2    C        12:31:51:18 12:31:55:21 02:20:30:08 02:20:34:11 
*FROM CLIP NAME:  104-105K3/02.SYNC.01 
*SOURCE FILE: 19Y08M14
014169  19Y08M14                         A3    C        12:31:51:18 12:31:55:21 02:20:30:08 02:20:34:11 
*FROM CLIP NAME:  104-105K3/02.SYNC.01 
*SOURCE FILE: 19Y08M14
014170  19Y08M14                         A4    C        12:31:51:18 12:31:55:21 02:20:30:08 02:20:34:11 
*FROM CLIP NAME:  104-105K3/02.SYNC.01 
*SOURCE FILE: 19Y08M14
014171  19Y08M14                         A5    C        12:31:51:18 12:31:55:21 02:20:30:08 02:20:34:11 
*FROM CLIP NAME:  104-105K3/02.SYNC.01 
*SOURCE FILE: 19Y08M14
014172  19Y08M14                         A6    C        12:31:51:18 12:31:55:21 02:20:30:08 02:20:34:11 
*FROM CLIP NAME:  104-105K3/02.SYNC.01 
*PATCH 19Y08M14:  FROM SOURCE 7 TO RECORD 6 
*SOURCE FILE: 19Y08M14
014173  19Y08M14                         A7    C        12:31:51:18 12:31:55:21 02:20:30:08 02:20:34:11 
*FROM CLIP NAME:  104-105K3/02.SYNC.01 
*PATCH 19Y08M14:  FROM SOURCE 6 TO RECORD 7 
*SOURCE FILE: 19Y08M14
014174  19Y08M14                         A8    C        12:31:51:18 12:31:55:21 02:20:30:08 02:20:34:11 
*FROM CLIP NAME:  104-105K3/02.SYNC.01 
*SOURCE FILE: 19Y08M14
014175  MSMMMOB.63                       V     C        13:10:29:13 13:10:32:05 02:20:34:11 02:20:37:03 
M2      MSMMMOB.63                                025.0 13:10:29:13 
*FROM CLIP NAME:  B024C003_190814_R481 
*SOURCE FILE: MSMMMOB.63
014176  19Y08M14                         A     C        13:10:29:12 13:10:32:06 02:20:34:11 02:20:37:05 
*FROM CLIP NAME:  104-105K6/02.SYNC.01 
*SOURCE FILE: 19Y08M14
014177  19Y08M14                         A2    C        13:10:29:12 13:10:32:06 02:20:34:11 02:20:37:05 
*FROM CLIP NAME:  104-105K6/02.SYNC.01 
*SOURCE FILE: 19Y08M14
014178  19Y08M14                         A3    C        13:10:29:12 13:10:32:06 02:20:34:11 02:20:37:05 
*FROM CLIP NAME:  104-105K6/02.SYNC.01 
*SOURCE FILE: 19Y08M14
014179  19Y08M14                         A4    C        13:10:29:12 13:10:32:06 02:20:34:11 02:20:37:05 
*FROM CLIP NAME:  104-105K6/02.SYNC.01 
*SOURCE FILE: 19Y08M14
014180  19Y08M14                         A5    C        13:10:29:12 13:10:32:06 02:20:34:11 02:20:37:05 
*FROM CLIP NAME:  104-105K6/02.SYNC.01 
*SOURCE FILE: 19Y08M14
014181  19Y08M14                         A6    C        13:10:29:12 13:10:32:06 02:20:34:11 02:20:37:05 
*FROM CLIP NAME:  104-105K6/02.SYNC.01 
*PATCH 19Y08M14:  FROM SOURCE 7 TO RECORD 6 
*SOURCE FILE: 19Y08M14
014182  19Y08M14                         A7    C        13:10:29:12 13:10:32:06 02:20:34:11 02:20:37:05 
*FROM CLIP NAME:  104-105K6/02.SYNC.01 
*PATCH 19Y08M14:  FROM SOURCE 6 TO RECORD 7 
*SOURCE FILE: 19Y08M14
014183  19Y08M14                         A8    C        13:10:29:12 13:10:32:06 02:20:34:11 02:20:37:05 
*FROM CLIP NAME:  104-105K6/02.SYNC.01 
*SOURCE FILE: 19Y08M14
014184  MSMMMOB.07                       V     C        12:32:02:00 12:32:05:08 02:20:37:03 02:20:40:11 
M2      MSMMMOB.07                                025.0 12:32:02:00 
*FROM CLIP NAME:  B023C004_190814_R481 
*SOURCE FILE: MSMMMOB.07
014185  19Y08M14                         A     C        12:32:02:02 12:32:07:12 02:20:37:05 02:20:42:15 
*FROM CLIP NAME:  104-105K3/02.SYNC.01 
*SOURCE FILE: 19Y08M14
014186  19Y08M14                         A2    C        12:32:02:02 12:32:07:12 02:20:37:05 02:20:42:15 
*FROM CLIP NAME:  104-105K3/02.SYNC.01 
*SOURCE FILE: 19Y08M14
014187  19Y08M14                         A3    C        12:32:02:02 12:32:07:12 02:20:37:05 02:20:42:15 
*FROM CLIP NAME:  104-105K3/02.SYNC.01 
*SOURCE FILE: 19Y08M14
014188  19Y08M14                         A4    C        12:32:02:02 12:32:07:12 02:20:37:05 02:20:42:15 
*FROM CLIP NAME:  104-105K3/02.SYNC.01 
*SOURCE FILE: 19Y08M14
014189  19Y08M14                         A5    C        12:32:02:02 12:32:07:12 02:20:37:05 02:20:42:15 
*FROM CLIP NAME:  104-105K3/02.SYNC.01 
*SOURCE FILE: 19Y08M14
014190  19Y08M14                         A6    C        12:32:02:02 12:32:07:12 02:20:37:05 02:20:42:15 
*FROM CLIP NAME:  104-105K3/02.SYNC.01 
*PATCH 19Y08M14:  FROM SOURCE 7 TO RECORD 6 
*SOURCE FILE: 19Y08M14
014191  19Y08M14                         A7    C        12:32:02:02 12:32:07:12 02:20:37:05 02:20:42:15 
*FROM CLIP NAME:  104-105K3/02.SYNC.01 
*PATCH 19Y08M14:  FROM SOURCE 6 TO RECORD 7 
*SOURCE FILE: 19Y08M14
014192  19Y08M14                         A8    C        12:32:02:02 12:32:07:12 02:20:37:05 02:20:42:15 
*FROM CLIP NAME:  104-105K3/02.SYNC.01 
*SOURCE FILE: 19Y08M14
014193  MSMMMOB.01                       V     C        13:36:06:09 13:36:08:24 02:20:40:11 02:20:43:01 
M2      MSMMMOB.01                                025.0 13:36:06:09 
*FROM CLIP NAME:  A077C005_190814_R32C 
*SOURCE FILE: MSMMMOB.01
014194  19Y08M14                         A     C        12:44:07:14 12:44:12:20 02:20:42:15 02:20:47:21 
*FROM CLIP NAME:  104-105K4/01.SYNC.01 
*SOURCE FILE: 19Y08M14
014195  19Y08M14                         A2    C        12:44:07:14 12:44:12:20 02:20:42:15 02:20:47:21 
*FROM CLIP NAME:  104-105K4/01.SYNC.01 
*SOURCE FILE: 19Y08M14
014196  19Y08M14                         A3    C        12:44:07:14 12:44:12:20 02:20:42:15 02:20:47:21 
*FROM CLIP NAME:  104-105K4/01.SYNC.01 
*SOURCE FILE: 19Y08M14
014197  19Y08M14                         A4    C        12:44:07:14 12:44:12:20 02:20:42:15 02:20:47:21 
*FROM CLIP NAME:  104-105K4/01.SYNC.01 
*SOURCE FILE: 19Y08M14
014198  19Y08M14                         A5    C        12:44:07:14 12:44:12:20 02:20:42:15 02:20:47:21 
*FROM CLIP NAME:  104-105K4/01.SYNC.01 
*SOURCE FILE: 19Y08M14
014199  19Y08M14                         A6    C        12:44:07:14 12:44:12:20 02:20:42:15 02:20:47:21 
*FROM CLIP NAME:  104-105K4/01.SYNC.01 
*PATCH 19Y08M14:  FROM SOURCE 8 TO RECORD 6 
*SOURCE FILE: 19Y08M14
014200  19Y08M14                         A7    C        12:44:07:14 12:44:12:20 02:20:42:15 02:20:47:21 
*FROM CLIP NAME:  104-105K4/01.SYNC.01 
*PATCH 19Y08M14:  FROM SOURCE 6 TO RECORD 7 
*SOURCE FILE: 19Y08M14
014201  19Y08M14                         A8    C        12:44:07:14 12:44:19:09 02:20:42:15 02:20:54:10 
*FROM CLIP NAME:  104-105K4/01.SYNC.01 
*PATCH 19Y08M14:  FROM SOURCE 7 TO RECORD 8 
*SOURCE FILE: 19Y08M14
014202  MSMMMOB.34                       V     C        12:44:08:00 12:44:19:09 02:20:43:01 02:20:54:10 
M2      MSMMMOB.34                                025.0 12:44:08:00 
*FROM CLIP NAME:  B023C005_190814_R481 
*SOURCE FILE: MSMMMOB.34
014203  19Y08M14                         A     C        12:32:59:08 12:33:01:04 02:20:47:21 02:20:49:17 
*FROM CLIP NAME:  104-105K3/02.SYNC.01 
*SOURCE FILE: 19Y08M14
014204  19Y08M14                         A2    C        12:32:59:08 12:33:01:04 02:20:47:21 02:20:49:17 
*FROM CLIP NAME:  104-105K3/02.SYNC.01 
*PATCH 19Y08M14:  FROM SOURCE 5 TO RECORD 2 
*SOURCE FILE: 19Y08M14
014205  19Y08M14                         A3    C        12:32:59:08 12:33:01:04 02:20:47:21 02:20:49:17 
*FROM CLIP NAME:  104-105K3/02.SYNC.01 
*SOURCE FILE: 19Y08M14
014206  19Y08M14                         A4    C        12:32:59:08 12:33:01:04 02:20:47:21 02:20:49:17 
*FROM CLIP NAME:  104-105K3/02.SYNC.01 
*SOURCE FILE: 19Y08M14
014207  19Y08M14                         A5    C        12:32:59:08 12:33:01:04 02:20:47:21 02:20:49:17 
*FROM CLIP NAME:  104-105K3/02.SYNC.01 
*PATCH 19Y08M14:  FROM SOURCE 7 TO RECORD 5 
*SOURCE FILE: 19Y08M14
014208  19Y08M14                         A6    C        12:32:59:08 12:33:01:04 02:20:47:21 02:20:49:17 
*FROM CLIP NAME:  104-105K3/02.SYNC.01 
*PATCH 19Y08M14:  FROM SOURCE 2 TO RECORD 6 
*SOURCE FILE: 19Y08M14
014209  19Y08M14                         A7    C        12:32:59:08 12:33:01:04 02:20:47:21 02:20:49:17 
*FROM CLIP NAME:  104-105K3/02.SYNC.01 
*PATCH 19Y08M14:  FROM SOURCE 6 TO RECORD 7 
*SOURCE FILE: 19Y08M14
014210  19Y08M14                         A     C        12:44:14:16 12:44:19:09 02:20:49:17 02:20:54:10 
*FROM CLIP NAME:  104-105K4/01.SYNC.01 
*SOURCE FILE: 19Y08M14
014211  19Y08M14                         A2    C        12:44:14:16 12:44:19:09 02:20:49:17 02:20:54:10 
*FROM CLIP NAME:  104-105K4/01.SYNC.01 
*SOURCE FILE: 19Y08M14
014212  19Y08M14                         A3    C        12:44:14:16 12:44:19:09 02:20:49:17 02:20:54:10 
*FROM CLIP NAME:  104-105K4/01.SYNC.01 
*SOURCE FILE: 19Y08M14
014213  19Y08M14                         A4    C        12:44:14:16 12:44:19:09 02:20:49:17 02:20:54:10 
*FROM CLIP NAME:  104-105K4/01.SYNC.01 
*SOURCE FILE: 19Y08M14
014214  19Y08M14                         A5    C        12:44:14:16 12:44:19:09 02:20:49:17 02:20:54:10 
*FROM CLIP NAME:  104-105K4/01.SYNC.01 
*SOURCE FILE: 19Y08M14
014215  19Y08M14                         A6    C        12:44:14:16 12:44:19:09 02:20:49:17 02:20:54:10 
*FROM CLIP NAME:  104-105K4/01.SYNC.01 
*PATCH 19Y08M14:  FROM SOURCE 8 TO RECORD 6 
*SOURCE FILE: 19Y08M14
014216  19Y08M14                         A7    C        12:44:14:16 12:44:19:09 02:20:49:17 02:20:54:10 
*FROM CLIP NAME:  104-105K4/01.SYNC.01 
*PATCH 19Y08M14:  FROM SOURCE 6 TO RECORD 7 
*SOURCE FILE: 19Y08M14
014217  19Y08M14                         A     C        12:44:19:13 12:44:20:15 02:20:54:10 02:20:55:12 
*FROM CLIP NAME:  104-105K4/01.SYNC.01 
*SOURCE FILE: 19Y08M14
014218  19Y08M14                         A2    C        12:44:19:13 12:44:20:15 02:20:54:10 02:20:55:12 
*FROM CLIP NAME:  104-105K4/01.SYNC.01 
*SOURCE FILE: 19Y08M14
014219  19Y08M14                         A3    C        12:44:19:13 12:44:20:15 02:20:54:10 02:20:55:12 
*FROM CLIP NAME:  104-105K4/01.SYNC.01 
*SOURCE FILE: 19Y08M14
014220  19Y08M14                         A4    C        12:44:19:13 12:44:20:15 02:20:54:10 02:20:55:12 
*FROM CLIP NAME:  104-105K4/01.SYNC.01 
*SOURCE FILE: 19Y08M14
014221  19Y08M14                         A5    C        12:44:19:13 12:44:20:15 02:20:54:10 02:20:55:12 
*FROM CLIP NAME:  104-105K4/01.SYNC.01 
*SOURCE FILE: 19Y08M14
014222  19Y08M14                         A6    C        12:44:19:13 12:44:20:15 02:20:54:10 02:20:55:12 
*FROM CLIP NAME:  104-105K4/01.SYNC.01 
*PATCH 19Y08M14:  FROM SOURCE 8 TO RECORD 6 
*SOURCE FILE: 19Y08M14
014223  19Y08M14                         A7    C        12:44:19:13 12:44:20:15 02:20:54:10 02:20:55:12 
*FROM CLIP NAME:  104-105K4/01.SYNC.01 
*PATCH 19Y08M14:  FROM SOURCE 6 TO RECORD 7 
*SOURCE FILE: 19Y08M14
014224  19Y08M14                         A8    C        12:44:19:13 12:44:20:15 02:20:54:10 02:20:55:12 
*FROM CLIP NAME:  104-105K4/01.SYNC.01 
*PATCH 19Y08M14:  FROM SOURCE 7 TO RECORD 8 
*SOURCE FILE: 19Y08M14
014225  MSMMMOB.63                       V     C        13:10:44:10 13:10:47:10 02:20:54:10 02:20:57:10 
M2      MSMMMOB.63                                025.0 13:10:44:10 
*FROM CLIP NAME:  B024C003_190814_R481 
*SOURCE FILE: MSMMMOB.63
014226  19Y08M14                         A9    C        12:31:41:13 12:31:42:10 02:20:54:15 02:20:55:12 
*FROM CLIP NAME:  104-105K3/02.SYNC.01 
*PATCH 19Y08M14:  FROM SOURCE 1 TO RECORD 9 
*SOURCE FILE: 19Y08M14
014227  19Y08M14                         A10   C        12:31:41:13 12:31:42:10 02:20:54:15 02:20:55:12 
*FROM CLIP NAME:  104-105K3/02.SYNC.01 
*PATCH 19Y08M14:  FROM SOURCE 2 TO RECORD 10 
*SOURCE FILE: 19Y08M14
014228  19Y08M14                         A11   C        12:31:41:13 12:31:42:10 02:20:54:15 02:20:55:12 
*FROM CLIP NAME:  104-105K3/02.SYNC.01 
*PATCH 19Y08M14:  FROM SOURCE 3 TO RECORD 11 
*SOURCE FILE: 19Y08M14
014229  19Y08M14                         A12   C        12:31:41:13 12:31:42:10 02:20:54:15 02:20:55:12 
*FROM CLIP NAME:  104-105K3/02.SYNC.01 
*PATCH 19Y08M14:  FROM SOURCE 4 TO RECORD 12 
*SOURCE FILE: 19Y08M14
014230  19Y08M14                         A13   C        12:31:41:13 12:31:42:10 02:20:54:15 02:20:55:12 
*FROM CLIP NAME:  104-105K3/02.SYNC.01 
*PATCH 19Y08M14:  FROM SOURCE 5 TO RECORD 13 
*SOURCE FILE: 19Y08M14
014231  19Y08M14                         A14   C        12:31:41:13 12:31:42:10 02:20:54:15 02:20:55:12 
*FROM CLIP NAME:  104-105K3/02.SYNC.01 
*PATCH 19Y08M14:  FROM SOURCE 6 TO RECORD 14 
*SOURCE FILE: 19Y08M14
014232  19Y08M14                         A15   C        12:31:41:13 12:31:42:10 02:20:54:15 02:20:55:12 
*FROM CLIP NAME:  104-105K3/02.SYNC.01 
*PATCH 19Y08M14:  FROM SOURCE 7 TO RECORD 15 
*SOURCE FILE: 19Y08M14
014233  19Y08M14                         A16   C        12:31:41:13 12:31:42:10 02:20:54:15 02:20:55:12 
*FROM CLIP NAME:  104-105K3/02.SYNC.01 
*PATCH 19Y08M14:  FROM SOURCE 8 TO RECORD 16 
*SOURCE FILE: 19Y08M14
014234  19Y08M14                         A     C        12:31:42:10 12:31:44:06 02:20:55:12 02:20:57:08 
*FROM CLIP NAME:  104-105K3/02.SYNC.01 
*SOURCE FILE: 19Y08M14
014235  19Y08M14                         A2    C        12:31:42:10 12:31:44:06 02:20:55:12 02:20:57:08 
*FROM CLIP NAME:  104-105K3/02.SYNC.01 
*SOURCE FILE: 19Y08M14
014236  19Y08M14                         A3    C        12:31:42:10 12:31:44:06 02:20:55:12 02:20:57:08 
*FROM CLIP NAME:  104-105K3/02.SYNC.01 
*SOURCE FILE: 19Y08M14
014237  19Y08M14                         A4    C        12:31:42:10 12:31:44:06 02:20:55:12 02:20:57:08 
*FROM CLIP NAME:  104-105K3/02.SYNC.01 
*SOURCE FILE: 19Y08M14
014238  19Y08M14                         A5    C        12:31:42:10 12:31:44:06 02:20:55:12 02:20:57:08 
*FROM CLIP NAME:  104-105K3/02.SYNC.01 
*SOURCE FILE: 19Y08M14
014239  19Y08M14                         A6    C        12:31:42:10 12:31:44:06 02:20:55:12 02:20:57:08 
*FROM CLIP NAME:  104-105K3/02.SYNC.01 
*SOURCE FILE: 19Y08M14
014240  19Y08M14                         A7    C        12:31:42:10 12:31:44:06 02:20:55:12 02:20:57:08 
*FROM CLIP NAME:  104-105K3/02.SYNC.01 
*SOURCE FILE: 19Y08M14
014241  19Y08M14                         A8    C        12:31:42:10 12:31:44:06 02:20:55:12 02:20:57:08 
*FROM CLIP NAME:  104-105K3/02.SYNC.01 
*SOURCE FILE: 19Y08M14
014242  19Y08M14                         A     C        12:31:44:06 12:31:44:06 02:20:57:08 02:20:57:08 
014242  19Y08M14                         A     D    005 12:44:23:03 12:44:23:08 02:20:57:08 02:20:57:13 
*FROM CLIP NAME:  104-105K3/02.SYNC.01 
*TO CLIP NAME:  104-105K4/01.SYNC.01 
*SOURCE FILE: 19Y08M14
014243  19Y08M14                         A2    C        12:31:44:06 12:31:44:06 02:20:57:08 02:20:57:08 
014243  19Y08M14                         A2    D    005 12:44:23:03 12:44:23:08 02:20:57:08 02:20:57:13 
*FROM CLIP NAME:  104-105K3/02.SYNC.01 
*TO CLIP NAME:  104-105K4/01.SYNC.01 
*SOURCE FILE: 19Y08M14
014244  19Y08M14                         A3    C        12:31:44:06 12:31:44:06 02:20:57:08 02:20:57:08 
014244  19Y08M14                         A3    D    005 12:44:23:03 12:44:23:08 02:20:57:08 02:20:57:13 
*FROM CLIP NAME:  104-105K3/02.SYNC.01 
*TO CLIP NAME:  104-105K4/01.SYNC.01 
*SOURCE FILE: 19Y08M14
014245  19Y08M14                         A4    C        12:31:44:06 12:31:44:06 02:20:57:08 02:20:57:08 
014245  19Y08M14                         A4    D    005 12:44:23:03 12:44:23:08 02:20:57:08 02:20:57:13 
*FROM CLIP NAME:  104-105K3/02.SYNC.01 
*TO CLIP NAME:  104-105K4/01.SYNC.01 
*SOURCE FILE: 19Y08M14
014246  19Y08M14                         A5    C        12:31:44:06 12:31:44:06 02:20:57:08 02:20:57:08 
014246  19Y08M14                         A5    D    005 12:44:23:03 12:44:23:08 02:20:57:08 02:20:57:13 
*FROM CLIP NAME:  104-105K3/02.SYNC.01 
*TO CLIP NAME:  104-105K4/01.SYNC.01 
*SOURCE FILE: 19Y08M14
014247  19Y08M14                         A6    C        12:31:44:06 12:31:44:06 02:20:57:08 02:20:57:08 
014247  19Y08M14                         A6    D    005 12:44:23:03 12:44:23:08 02:20:57:08 02:20:57:13 
*FROM CLIP NAME:  104-105K3/02.SYNC.01 
*TO CLIP NAME:  104-105K4/01.SYNC.01 
*PATCH 19Y08M14:  FROM SOURCE 7 TO RECORD 6 
*SOURCE FILE: 19Y08M14
014248  19Y08M14                         A7    C        12:31:44:06 12:31:44:06 02:20:57:08 02:20:57:08 
014248  19Y08M14                         A7    D    005 12:44:23:03 12:44:23:08 02:20:57:08 02:20:57:13 
*FROM CLIP NAME:  104-105K3/02.SYNC.01 
*TO CLIP NAME:  104-105K4/01.SYNC.01 
*PATCH 19Y08M14:  FROM SOURCE 6 TO RECORD 7 
*SOURCE FILE: 19Y08M14
014249  19Y08M14                         A8    C        12:31:44:06 12:31:44:06 02:20:57:08 02:20:57:08 
014249  19Y08M14                         A8    D    005 12:44:23:03 12:44:23:08 02:20:57:08 02:20:57:13 
*FROM CLIP NAME:  104-105K3/02.SYNC.01 
*TO CLIP NAME:  104-105K4/01.SYNC.01 
*SOURCE FILE: 19Y08M14
014250  MSMMMOB.15                       V     C        12:44:23:05 12:44:30:08 02:20:57:10 02:21:04:13 
M2      MSMMMOB.15                                025.0 12:44:23:05 
*FROM CLIP NAME:  A076C005_190814_R32C 
*SOURCE FILE: MSMMMOB.15
014251  19Y08M14                         A     C        12:44:23:08 12:44:30:08 02:20:57:13 02:21:04:13 
*FROM CLIP NAME:  104-105K4/01.SYNC.01 
*SOURCE FILE: 19Y08M14
014252  19Y08M14                         A2    C        12:44:23:08 12:44:30:08 02:20:57:13 02:21:04:13 
*FROM CLIP NAME:  104-105K4/01.SYNC.01 
*SOURCE FILE: 19Y08M14
014253  19Y08M14                         A3    C        12:44:23:08 12:44:30:08 02:20:57:13 02:21:04:13 
*FROM CLIP NAME:  104-105K4/01.SYNC.01 
*SOURCE FILE: 19Y08M14
014254  19Y08M14                         A4    C        12:44:23:08 12:44:30:08 02:20:57:13 02:21:04:13 
*FROM CLIP NAME:  104-105K4/01.SYNC.01 
*SOURCE FILE: 19Y08M14
014255  19Y08M14                         A5    C        12:44:23:08 12:44:30:08 02:20:57:13 02:21:04:13 
*FROM CLIP NAME:  104-105K4/01.SYNC.01 
*SOURCE FILE: 19Y08M14
014256  19Y08M14                         A6    C        12:44:23:08 12:44:30:08 02:20:57:13 02:21:04:13 
*FROM CLIP NAME:  104-105K4/01.SYNC.01 
*PATCH 19Y08M14:  FROM SOURCE 7 TO RECORD 6 
*SOURCE FILE: 19Y08M14
014257  19Y08M14                         A7    C        12:44:23:08 12:44:30:08 02:20:57:13 02:21:04:13 
*FROM CLIP NAME:  104-105K4/01.SYNC.01 
*PATCH 19Y08M14:  FROM SOURCE 6 TO RECORD 7 
*SOURCE FILE: 19Y08M14
014258  19Y08M14                         A8    C        12:44:23:08 12:44:30:08 02:20:57:13 02:21:04:13 
*FROM CLIP NAME:  104-105K4/01.SYNC.01 
*SOURCE FILE: 19Y08M14
014259  19Y08M14                         A     C        13:10:54:09 13:10:55:06 02:21:04:13 02:21:05:10 
*FROM CLIP NAME:  104-105K6/02.SYNC.01 
*SOURCE FILE: 19Y08M14
014260  19Y08M14                         A2    C        13:10:54:09 13:10:55:06 02:21:04:13 02:21:05:10 
*FROM CLIP NAME:  104-105K6/02.SYNC.01 
*SOURCE FILE: 19Y08M14
014261  19Y08M14                         A3    C        13:10:54:09 13:10:55:06 02:21:04:13 02:21:05:10 
*FROM CLIP NAME:  104-105K6/02.SYNC.01 
*SOURCE FILE: 19Y08M14
014262  19Y08M14                         A4    C        13:10:54:09 13:10:55:06 02:21:04:13 02:21:05:10 
*FROM CLIP NAME:  104-105K6/02.SYNC.01 
*SOURCE FILE: 19Y08M14
014263  19Y08M14                         A5    C        13:10:54:09 13:10:55:06 02:21:04:13 02:21:05:10 
*FROM CLIP NAME:  104-105K6/02.SYNC.01 
*SOURCE FILE: 19Y08M14
014264  19Y08M14                         A6    C        13:10:54:09 13:10:55:06 02:21:04:13 02:21:05:10 
*FROM CLIP NAME:  104-105K6/02.SYNC.01 
*PATCH 19Y08M14:  FROM SOURCE 7 TO RECORD 6 
*SOURCE FILE: 19Y08M14
014265  19Y08M14                         A7    C        13:10:54:09 13:10:55:06 02:21:04:13 02:21:05:10 
*FROM CLIP NAME:  104-105K6/02.SYNC.01 
*PATCH 19Y08M14:  FROM SOURCE 6 TO RECORD 7 
*SOURCE FILE: 19Y08M14
014266  19Y08M14                         A8    C        13:10:54:09 13:10:55:06 02:21:04:13 02:21:05:10 
*FROM CLIP NAME:  104-105K6/02.SYNC.01 
*SOURCE FILE: 19Y08M14
014267  MSMMMOB.32                       V     C        13:10:54:09 13:10:56:00 02:21:04:13 02:21:06:04 
M2      MSMMMOB.32                                025.0 13:10:54:09 
*FROM CLIP NAME:  A077C003_190814_R32C 
*SOURCE FILE: MSMMMOB.32
014268  19Y08M14                         A     C        12:44:31:18 12:44:36:11 02:21:05:10 02:21:10:03 
*FROM CLIP NAME:  104-105K4/01.SYNC.01 
*SOURCE FILE: 19Y08M14
014269  19Y08M14                         A2    C        12:44:31:18 12:44:36:11 02:21:05:10 02:21:10:03 
*FROM CLIP NAME:  104-105K4/01.SYNC.01 
*SOURCE FILE: 19Y08M14
014270  19Y08M14                         A3    C        12:44:31:18 12:44:36:11 02:21:05:10 02:21:10:03 
*FROM CLIP NAME:  104-105K4/01.SYNC.01 
*SOURCE FILE: 19Y08M14
014271  19Y08M14                         A4    C        12:44:31:18 12:44:36:11 02:21:05:10 02:21:10:03 
*FROM CLIP NAME:  104-105K4/01.SYNC.01 
*SOURCE FILE: 19Y08M14
014272  19Y08M14                         A5    C        12:44:31:18 12:44:36:11 02:21:05:10 02:21:10:03 
*FROM CLIP NAME:  104-105K4/01.SYNC.01 
*SOURCE FILE: 19Y08M14
014273  19Y08M14                         A6    C        12:44:31:18 12:44:36:11 02:21:05:10 02:21:10:03 
*FROM CLIP NAME:  104-105K4/01.SYNC.01 
*PATCH 19Y08M14:  FROM SOURCE 7 TO RECORD 6 
*SOURCE FILE: 19Y08M14
014274  19Y08M14                         A7    C        12:44:31:18 12:44:36:11 02:21:05:10 02:21:10:03 
*FROM CLIP NAME:  104-105K4/01.SYNC.01 
*PATCH 19Y08M14:  FROM SOURCE 6 TO RECORD 7 
*SOURCE FILE: 19Y08M14
014275  19Y08M14                         A8    C        12:44:31:18 12:44:36:11 02:21:05:10 02:21:10:03 
*FROM CLIP NAME:  104-105K4/01.SYNC.01 
*SOURCE FILE: 19Y08M14
014276  MSMMMOB.15                       V     C        12:44:32:12 12:44:36:00 02:21:06:04 02:21:09:17 
M2      MSMMMOB.15                                025.0 12:44:32:12 
*FROM CLIP NAME:  A076C005_190814_R32C 
*SOURCE FILE: MSMMMOB.15
014277  MSMMMOB.32                       V     C        13:11:02:08 13:11:04:02 02:21:09:17 02:21:11:11 
M2      MSMMMOB.32                                025.0 13:11:02:08 
*FROM CLIP NAME:  A077C003_190814_R32C 
*SOURCE FILE: MSMMMOB.32
014278  19Y08M14                         A     C        12:43:59:15 12:44:00:10 02:21:10:03 02:21:10:23 
*FROM CLIP NAME:  104-105K4/01.SYNC.01 
*SOURCE FILE: 19Y08M14
014279  19Y08M14                         A2    C        12:43:59:15 12:44:00:10 02:21:10:03 02:21:10:23 
*FROM CLIP NAME:  104-105K4/01.SYNC.01 
*SOURCE FILE: 19Y08M14
014280  19Y08M14                         A3    C        12:43:59:15 12:44:00:10 02:21:10:03 02:21:10:23 
*FROM CLIP NAME:  104-105K4/01.SYNC.01 
*SOURCE FILE: 19Y08M14
014281  19Y08M14                         A4    C        12:43:59:15 12:44:00:10 02:21:10:03 02:21:10:23 
*FROM CLIP NAME:  104-105K4/01.SYNC.01 
*SOURCE FILE: 19Y08M14
014282  19Y08M14                         A5    C        12:43:59:15 12:44:00:10 02:21:10:03 02:21:10:23 
*FROM CLIP NAME:  104-105K4/01.SYNC.01 
*SOURCE FILE: 19Y08M14
014283  19Y08M14                         A6    C        12:43:59:15 12:44:00:10 02:21:10:03 02:21:10:23 
*FROM CLIP NAME:  104-105K4/01.SYNC.01 
*SOURCE FILE: 19Y08M14
014284  19Y08M14                         A7    C        12:43:59:15 12:44:00:10 02:21:10:03 02:21:10:23 
*FROM CLIP NAME:  104-105K4/01.SYNC.01 
*SOURCE FILE: 19Y08M14
014285  19Y08M14                         A8    C        12:43:59:15 12:44:00:10 02:21:10:03 02:21:10:23 
*FROM CLIP NAME:  104-105K4/01.SYNC.01 
*SOURCE FILE: 19Y08M14
014286  19Y08M14                         A     C        12:44:39:14 12:44:43:23 02:21:10:23 02:21:15:07 
*FROM CLIP NAME:  104-105K4/01.SYNC.01 
*SOURCE FILE: 19Y08M14
014287  19Y08M14                         A2    C        12:44:39:14 12:44:43:23 02:21:10:23 02:21:15:07 
*FROM CLIP NAME:  104-105K4/01.SYNC.01 
*SOURCE FILE: 19Y08M14
014288  19Y08M14                         A3    C        12:44:39:14 12:44:43:23 02:21:10:23 02:21:15:07 
*FROM CLIP NAME:  104-105K4/01.SYNC.01 
*SOURCE FILE: 19Y08M14
014289  19Y08M14                         A4    C        12:44:39:14 12:44:43:23 02:21:10:23 02:21:15:07 
*FROM CLIP NAME:  104-105K4/01.SYNC.01 
*SOURCE FILE: 19Y08M14
014290  19Y08M14                         A5    C        12:44:39:14 12:44:43:23 02:21:10:23 02:21:15:07 
*FROM CLIP NAME:  104-105K4/01.SYNC.01 
*SOURCE FILE: 19Y08M14
014291  19Y08M14                         A6    C        12:44:39:14 12:44:43:23 02:21:10:23 02:21:15:07 
*FROM CLIP NAME:  104-105K4/01.SYNC.01 
*PATCH 19Y08M14:  FROM SOURCE 7 TO RECORD 6 
*SOURCE FILE: 19Y08M14
014292  19Y08M14                         A7    C        12:44:39:14 12:44:43:23 02:21:10:23 02:21:15:07 
*FROM CLIP NAME:  104-105K4/01.SYNC.01 
*PATCH 19Y08M14:  FROM SOURCE 6 TO RECORD 7 
*SOURCE FILE: 19Y08M14
014293  19Y08M14                         A8    C        12:44:39:14 12:44:43:23 02:21:10:23 02:21:15:07 
*FROM CLIP NAME:  104-105K4/01.SYNC.01 
*SOURCE FILE: 19Y08M14
014294  MSMMMOB.15                       V     C        12:44:40:02 12:44:43:24 02:21:11:11 02:21:15:08 
M2      MSMMMOB.15                                025.0 12:44:40:02 
*FROM CLIP NAME:  A076C005_190814_R32C 
*SOURCE FILE: MSMMMOB.15
014295  19Y08M14                         A     C        12:44:43:23 12:44:43:23 02:21:15:07 02:21:15:07 
014295  19Y08M14                         A     D    002 12:32:59:09 12:32:59:11 02:21:15:07 02:21:15:09 
*FROM CLIP NAME:  104-105K4/01.SYNC.01 
*TO CLIP NAME:  104-105K3/02.SYNC.01 
*SOURCE FILE: 19Y08M14
014296  19Y08M14                         A2    C        12:44:43:23 12:44:43:23 02:21:15:07 02:21:15:07 
014296  19Y08M14                         A2    D    002 12:32:59:09 12:32:59:11 02:21:15:07 02:21:15:09 
*FROM CLIP NAME:  104-105K4/01.SYNC.01 
*TO CLIP NAME:  104-105K3/02.SYNC.01 
*SOURCE FILE: 19Y08M14
014297  19Y08M14                         A3    C        12:44:43:23 12:44:43:23 02:21:15:07 02:21:15:07 
014297  19Y08M14                         A3    D    002 12:32:59:09 12:32:59:11 02:21:15:07 02:21:15:09 
*FROM CLIP NAME:  104-105K4/01.SYNC.01 
*TO CLIP NAME:  104-105K3/02.SYNC.01 
*SOURCE FILE: 19Y08M14
014298  19Y08M14                         A4    C        12:44:43:23 12:44:43:23 02:21:15:07 02:21:15:07 
014298  19Y08M14                         A4    D    002 12:32:59:09 12:32:59:11 02:21:15:07 02:21:15:09 
*FROM CLIP NAME:  104-105K4/01.SYNC.01 
*TO CLIP NAME:  104-105K3/02.SYNC.01 
*SOURCE FILE: 19Y08M14
014299  19Y08M14                         A5    C        12:44:43:23 12:44:43:23 02:21:15:07 02:21:15:07 
014299  19Y08M14                         A5    D    002 12:32:59:09 12:32:59:11 02:21:15:07 02:21:15:09 
*FROM CLIP NAME:  104-105K4/01.SYNC.01 
*TO CLIP NAME:  104-105K3/02.SYNC.01 
*SOURCE FILE: 19Y08M14
014300  19Y08M14                         A6    C        12:44:43:23 12:44:43:23 02:21:15:07 02:21:15:07 
014300  19Y08M14                         A6    D    002 12:32:59:09 12:32:59:11 02:21:15:07 02:21:15:09 
*FROM CLIP NAME:  104-105K4/01.SYNC.01 
*TO CLIP NAME:  104-105K3/02.SYNC.01 
*PATCH 19Y08M14:  FROM SOURCE 7 TO RECORD 6 
*PATCH 19Y08M14:  FROM SOURCE 7 TO RECORD 6 
*SOURCE FILE: 19Y08M14
014301  19Y08M14                         A7    C        12:44:43:23 12:44:43:23 02:21:15:07 02:21:15:07 
014301  19Y08M14                         A7    D    002 12:32:59:09 12:32:59:11 02:21:15:07 02:21:15:09 
*FROM CLIP NAME:  104-105K4/01.SYNC.01 
*TO CLIP NAME:  104-105K3/02.SYNC.01 
*PATCH 19Y08M14:  FROM SOURCE 6 TO RECORD 7 
*PATCH 19Y08M14:  FROM SOURCE 6 TO RECORD 7 
*SOURCE FILE: 19Y08M14
014302  19Y08M14                         A8    C        12:44:43:23 12:44:43:23 02:21:15:07 02:21:15:07 
014302  19Y08M14                         A8    D    002 12:32:59:09 12:32:59:11 02:21:15:07 02:21:15:09 
*FROM CLIP NAME:  104-105K4/01.SYNC.01 
*TO CLIP NAME:  104-105K3/02.SYNC.01 
*SOURCE FILE: 19Y08M14
014303  MSMMMOB.07                       V     C        12:32:59:10 12:33:01:19 02:21:15:08 02:21:17:17 
M2      MSMMMOB.07                                025.0 12:32:59:10 
*FROM CLIP NAME:  B023C004_190814_R481 
*SOURCE FILE: MSMMMOB.07
014304  19Y08M14                         A     C        12:32:59:11 12:33:01:19 02:21:15:09 02:21:17:17 
*FROM CLIP NAME:  104-105K3/02.SYNC.01 
*SOURCE FILE: 19Y08M14
014305  19Y08M14                         A2    C        12:32:59:11 12:33:01:19 02:21:15:09 02:21:17:17 
*FROM CLIP NAME:  104-105K3/02.SYNC.01 
*SOURCE FILE: 19Y08M14
014306  19Y08M14                         A3    C        12:32:59:11 12:33:01:19 02:21:15:09 02:21:17:17 
*FROM CLIP NAME:  104-105K3/02.SYNC.01 
*SOURCE FILE: 19Y08M14
014307  19Y08M14                         A4    C        12:32:59:11 12:33:01:19 02:21:15:09 02:21:17:17 
*FROM CLIP NAME:  104-105K3/02.SYNC.01 
*SOURCE FILE: 19Y08M14
014308  19Y08M14                         A5    C        12:32:59:11 12:33:01:19 02:21:15:09 02:21:17:17 
*FROM CLIP NAME:  104-105K3/02.SYNC.01 
*SOURCE FILE: 19Y08M14
014309  19Y08M14                         A6    C        12:32:59:11 12:33:01:19 02:21:15:09 02:21:17:17 
*FROM CLIP NAME:  104-105K3/02.SYNC.01 
*PATCH 19Y08M14:  FROM SOURCE 7 TO RECORD 6 
*SOURCE FILE: 19Y08M14
014310  19Y08M14                         A7    C        12:32:59:11 12:33:01:19 02:21:15:09 02:21:17:17 
*FROM CLIP NAME:  104-105K3/02.SYNC.01 
*PATCH 19Y08M14:  FROM SOURCE 6 TO RECORD 7 
*SOURCE FILE: 19Y08M14
014311  19Y08M14                         A8    C        12:32:59:11 12:33:01:19 02:21:15:09 02:21:17:17 
*FROM CLIP NAME:  104-105K3/02.SYNC.01 
*SOURCE FILE: 19Y08M14
014312  MSMMMOB.40                       V     C        12:56:14:16 12:56:20:06 02:21:17:17 02:21:23:07 
M2      MSMMMOB.40                                025.0 12:56:14:16 
*FROM CLIP NAME:  A077C001_190814_R32C 
*SOURCE FILE: MSMMMOB.40
014313  19Y08M14                         A     C        12:56:14:15 12:56:21:04 02:21:17:17 02:21:24:06 
*FROM CLIP NAME:  104-105K5/01.SYNC.01 
*SOURCE FILE: 19Y08M14
014314  19Y08M14                         A2    C        12:56:14:15 12:56:21:04 02:21:17:17 02:21:24:06 
*FROM CLIP NAME:  104-105K5/01.SYNC.01 
*SOURCE FILE: 19Y08M14
014315  19Y08M14                         A3    C        12:56:14:15 12:56:21:04 02:21:17:17 02:21:24:06 
*FROM CLIP NAME:  104-105K5/01.SYNC.01 
*SOURCE FILE: 19Y08M14
014316  19Y08M14                         A4    C        12:56:14:15 12:56:21:04 02:21:17:17 02:21:24:06 
*FROM CLIP NAME:  104-105K5/01.SYNC.01 
*SOURCE FILE: 19Y08M14
014317  19Y08M14                         A5    C        12:56:14:15 12:56:21:04 02:21:17:17 02:21:24:06 
*FROM CLIP NAME:  104-105K5/01.SYNC.01 
*SOURCE FILE: 19Y08M14
014318  19Y08M14                         A6    C        12:56:14:15 12:56:21:04 02:21:17:17 02:21:24:06 
*FROM CLIP NAME:  104-105K5/01.SYNC.01 
*SOURCE FILE: 19Y08M14
014319  19Y08M14                         A7    C        12:56:14:15 12:56:21:04 02:21:17:17 02:21:24:06 
*FROM CLIP NAME:  104-105K5/01.SYNC.01 
*SOURCE FILE: 19Y08M14
014320  19Y08M14                         A8    C        12:56:14:15 12:56:21:04 02:21:17:17 02:21:24:06 
*FROM CLIP NAME:  104-105K5/01.SYNC.01 
*SOURCE FILE: 19Y08M14
014321  MSMMMOB.28                       V     C        13:05:43:19 13:05:45:21 02:21:23:07 02:21:25:09 
M2      MSMMMOB.28                                025.0 13:05:43:19 
*FROM CLIP NAME:  B024C002_190814_R481 
*SOURCE FILE: MSMMMOB.28
014322  19Y08M14                         A     C        12:45:08:11 12:45:12:04 02:21:24:06 02:21:27:24 
*FROM CLIP NAME:  104-105K4/01.SYNC.01 
*SOURCE FILE: 19Y08M14
014323  19Y08M14                         A2    C        12:45:08:11 12:45:12:04 02:21:24:06 02:21:27:24 
*FROM CLIP NAME:  104-105K4/01.SYNC.01 
*SOURCE FILE: 19Y08M14
014324  19Y08M14                         A3    C        12:45:08:11 12:45:12:04 02:21:24:06 02:21:27:24 
*FROM CLIP NAME:  104-105K4/01.SYNC.01 
*SOURCE FILE: 19Y08M14
014325  19Y08M14                         A4    C        12:45:08:11 12:45:12:04 02:21:24:06 02:21:27:24 
*FROM CLIP NAME:  104-105K4/01.SYNC.01 
*SOURCE FILE: 19Y08M14
014326  19Y08M14                         A5    C        12:45:08:11 12:45:12:04 02:21:24:06 02:21:27:24 
*FROM CLIP NAME:  104-105K4/01.SYNC.01 
*SOURCE FILE: 19Y08M14
014327  19Y08M14                         A6    C        12:45:08:11 12:45:12:04 02:21:24:06 02:21:27:24 
*FROM CLIP NAME:  104-105K4/01.SYNC.01 
*SOURCE FILE: 19Y08M14
014328  19Y08M14                         A7    C        12:45:08:11 12:45:12:04 02:21:24:06 02:21:27:24 
*FROM CLIP NAME:  104-105K4/01.SYNC.01 
*SOURCE FILE: 19Y08M14
014329  19Y08M14                         A8    C        12:45:08:11 12:45:12:04 02:21:24:06 02:21:27:24 
*FROM CLIP NAME:  104-105K4/01.SYNC.01 
*SOURCE FILE: 19Y08M14
014330  MSMMMOB.34                       V     C        12:45:09:14 12:45:12:04 02:21:25:09 02:21:27:24 
M2      MSMMMOB.34                                025.0 12:45:09:14 
*FROM CLIP NAME:  B023C005_190814_R481 
*SOURCE FILE: MSMMMOB.34
014331  19Y08M14                         A     C        12:33:10:10 12:33:12:01 02:21:27:24 02:21:29:15 
*FROM CLIP NAME:  104-105K3/02.SYNC.01 
*SOURCE FILE: 19Y08M14
014332  19Y08M14                         A2    C        12:33:10:10 12:33:12:01 02:21:27:24 02:21:29:15 
*FROM CLIP NAME:  104-105K3/02.SYNC.01 
*SOURCE FILE: 19Y08M14
014333  19Y08M14                         A3    C        12:33:10:10 12:33:12:01 02:21:27:24 02:21:29:15 
*FROM CLIP NAME:  104-105K3/02.SYNC.01 
*SOURCE FILE: 19Y08M14
014334  19Y08M14                         A4    C        12:33:10:10 12:33:12:01 02:21:27:24 02:21:29:15 
*FROM CLIP NAME:  104-105K3/02.SYNC.01 
*SOURCE FILE: 19Y08M14
014335  19Y08M14                         A5    C        12:33:10:10 12:33:12:01 02:21:27:24 02:21:29:15 
*FROM CLIP NAME:  104-105K3/02.SYNC.01 
*SOURCE FILE: 19Y08M14
014336  19Y08M14                         A6    C        12:33:10:10 12:33:12:01 02:21:27:24 02:21:29:15 
*FROM CLIP NAME:  104-105K3/02.SYNC.01 
*PATCH 19Y08M14:  FROM SOURCE 7 TO RECORD 6 
*SOURCE FILE: 19Y08M14
014337  19Y08M14                         A7    C        12:33:10:10 12:33:12:01 02:21:27:24 02:21:29:15 
*FROM CLIP NAME:  104-105K3/02.SYNC.01 
*PATCH 19Y08M14:  FROM SOURCE 6 TO RECORD 7 
*SOURCE FILE: 19Y08M14
014338  19Y08M14                         A8    C        12:33:10:10 12:33:12:01 02:21:27:24 02:21:29:15 
*FROM CLIP NAME:  104-105K3/02.SYNC.01 
*SOURCE FILE: 19Y08M14
014339  MSMMMOB.63                       V     C        13:11:15:20 13:11:17:12 02:21:27:24 02:21:29:16 
M2      MSMMMOB.63                                025.0 13:11:15:20 
*FROM CLIP NAME:  B024C003_190814_R481 
*SOURCE FILE: MSMMMOB.63
014340  19Y08M14                         A     C        12:33:12:01 12:33:12:01 02:21:29:15 02:21:29:15 
014340  19Y08M14                         A     D    002 12:33:11:18 12:33:11:20 02:21:29:15 02:21:29:17 
*FROM CLIP NAME:  104-105K3/02.SYNC.01 
*TO CLIP NAME:  104-105K3/02.SYNC.01 
*SOURCE FILE: 19Y08M14
014341  19Y08M14                         A2    C        12:33:12:01 12:33:12:01 02:21:29:15 02:21:29:15 
014341  19Y08M14                         A2    D    002 12:33:11:18 12:33:11:20 02:21:29:15 02:21:29:17 
*FROM CLIP NAME:  104-105K3/02.SYNC.01 
*TO CLIP NAME:  104-105K3/02.SYNC.01 
*SOURCE FILE: 19Y08M14
014342  19Y08M14                         A3    C        12:33:12:01 12:33:12:01 02:21:29:15 02:21:29:15 
014342  19Y08M14                         A3    D    002 12:33:11:18 12:33:11:20 02:21:29:15 02:21:29:17 
*FROM CLIP NAME:  104-105K3/02.SYNC.01 
*TO CLIP NAME:  104-105K3/02.SYNC.01 
*SOURCE FILE: 19Y08M14
014343  19Y08M14                         A4    C        12:33:12:01 12:33:12:01 02:21:29:15 02:21:29:15 
014343  19Y08M14                         A4    D    002 12:33:11:18 12:33:11:20 02:21:29:15 02:21:29:17 
*FROM CLIP NAME:  104-105K3/02.SYNC.01 
*TO CLIP NAME:  104-105K3/02.SYNC.01 
*SOURCE FILE: 19Y08M14
014344  19Y08M14                         A5    C        12:33:12:01 12:33:12:01 02:21:29:15 02:21:29:15 
014344  19Y08M14                         A5    D    002 12:33:11:18 12:33:11:20 02:21:29:15 02:21:29:17 
*FROM CLIP NAME:  104-105K3/02.SYNC.01 
*TO CLIP NAME:  104-105K3/02.SYNC.01 
*SOURCE FILE: 19Y08M14
014345  19Y08M14                         A6    C        12:33:12:01 12:33:12:01 02:21:29:15 02:21:29:15 
014345  19Y08M14                         A6    D    002 12:33:11:18 12:33:11:20 02:21:29:15 02:21:29:17 
*FROM CLIP NAME:  104-105K3/02.SYNC.01 
*TO CLIP NAME:  104-105K3/02.SYNC.01 
*PATCH 19Y08M14:  FROM SOURCE 7 TO RECORD 6 
*SOURCE FILE: 19Y08M14
014346  19Y08M14                         A7    C        12:33:12:01 12:33:12:01 02:21:29:15 02:21:29:15 
014346  19Y08M14                         A7    D    002 12:33:11:18 12:33:11:20 02:21:29:15 02:21:29:17 
*FROM CLIP NAME:  104-105K3/02.SYNC.01 
*TO CLIP NAME:  104-105K3/02.SYNC.01 
*PATCH 19Y08M14:  FROM SOURCE 6 TO RECORD 7 
*SOURCE FILE: 19Y08M14
014347  19Y08M14                         A8    C        12:33:12:01 12:33:12:01 02:21:29:15 02:21:29:15 
014347  19Y08M14                         A8    D    002 12:33:11:18 12:33:11:20 02:21:29:15 02:21:29:17 
*FROM CLIP NAME:  104-105K3/02.SYNC.01 
*TO CLIP NAME:  104-105K3/02.SYNC.01 
*SOURCE FILE: 19Y08M14
014348  MSMMMOB.07                       V     C        12:33:11:19 12:33:18:07 02:21:29:16 02:21:36:04 
M2      MSMMMOB.07                                025.0 12:33:11:19 
*FROM CLIP NAME:  B023C004_190814_R481 
*SOURCE FILE: MSMMMOB.07
014349  19Y08M14                         A     C        12:33:11:20 12:33:17:06 02:21:29:17 02:21:35:03 
*FROM CLIP NAME:  104-105K3/02.SYNC.01 
*SOURCE FILE: 19Y08M14
014350  19Y08M14                         A2    C        12:33:11:20 12:33:17:06 02:21:29:17 02:21:35:03 
*FROM CLIP NAME:  104-105K3/02.SYNC.01 
*SOURCE FILE: 19Y08M14
014351  19Y08M14                         A3    C        12:33:11:20 12:33:17:06 02:21:29:17 02:21:35:03 
*FROM CLIP NAME:  104-105K3/02.SYNC.01 
*SOURCE FILE: 19Y08M14
014352  19Y08M14                         A4    C        12:33:11:20 12:33:17:06 02:21:29:17 02:21:35:03 
*FROM CLIP NAME:  104-105K3/02.SYNC.01 
*SOURCE FILE: 19Y08M14
014353  19Y08M14                         A5    C        12:33:11:20 12:33:17:06 02:21:29:17 02:21:35:03 
*FROM CLIP NAME:  104-105K3/02.SYNC.01 
*SOURCE FILE: 19Y08M14
014354  19Y08M14                         A6    C        12:33:11:20 12:33:17:06 02:21:29:17 02:21:35:03 
*FROM CLIP NAME:  104-105K3/02.SYNC.01 
*SOURCE FILE: 19Y08M14
014355  19Y08M14                         A7    C        12:33:11:20 12:33:17:06 02:21:29:17 02:21:35:03 
*FROM CLIP NAME:  104-105K3/02.SYNC.01 
*SOURCE FILE: 19Y08M14
014356  19Y08M14                         A8    C        12:33:11:20 12:33:17:06 02:21:29:17 02:21:35:03 
*FROM CLIP NAME:  104-105K3/02.SYNC.01 
*SOURCE FILE: 19Y08M14
014357  19Y08M14                         A     C        12:33:17:06 12:33:17:06 02:21:35:03 02:21:35:03 
014357  19Y08M14                         A     D    002 13:11:23:07 13:11:23:09 02:21:35:03 02:21:35:05 
*FROM CLIP NAME:  104-105K3/02.SYNC.01 
*TO CLIP NAME:  104-105K6/02.SYNC.01 
*SOURCE FILE: 19Y08M14
014358  19Y08M14                         A2    C        12:33:17:06 12:33:17:06 02:21:35:03 02:21:35:03 
014358  19Y08M14                         A2    D    002 13:11:23:07 13:11:23:09 02:21:35:03 02:21:35:05 
*FROM CLIP NAME:  104-105K3/02.SYNC.01 
*TO CLIP NAME:  104-105K6/02.SYNC.01 
*SOURCE FILE: 19Y08M14
014359  19Y08M14                         A3    C        12:33:17:06 12:33:17:06 02:21:35:03 02:21:35:03 
014359  19Y08M14                         A3    D    002 13:11:23:07 13:11:23:09 02:21:35:03 02:21:35:05 
*FROM CLIP NAME:  104-105K3/02.SYNC.01 
*TO CLIP NAME:  104-105K6/02.SYNC.01 
*SOURCE FILE: 19Y08M14
014360  19Y08M14                         A4    C        12:33:17:06 12:33:17:06 02:21:35:03 02:21:35:03 
014360  19Y08M14                         A4    D    002 13:11:23:07 13:11:23:09 02:21:35:03 02:21:35:05 
*FROM CLIP NAME:  104-105K3/02.SYNC.01 
*TO CLIP NAME:  104-105K6/02.SYNC.01 
*SOURCE FILE: 19Y08M14
014361  19Y08M14                         A5    C        12:33:17:06 12:33:17:06 02:21:35:03 02:21:35:03 
014361  19Y08M14                         A5    D    002 13:11:23:07 13:11:23:09 02:21:35:03 02:21:35:05 
*FROM CLIP NAME:  104-105K3/02.SYNC.01 
*TO CLIP NAME:  104-105K6/02.SYNC.01 
*SOURCE FILE: 19Y08M14
014362  19Y08M14                         A6    C        12:33:17:06 12:33:17:06 02:21:35:03 02:21:35:03 
014362  19Y08M14                         A6    D    002 13:11:23:07 13:11:23:09 02:21:35:03 02:21:35:05 
*FROM CLIP NAME:  104-105K3/02.SYNC.01 
*TO CLIP NAME:  104-105K6/02.SYNC.01 
*PATCH 19Y08M14:  FROM SOURCE 7 TO RECORD 6 
*SOURCE FILE: 19Y08M14
014363  19Y08M14                         A7    C        12:33:17:06 12:33:17:06 02:21:35:03 02:21:35:03 
014363  19Y08M14                         A7    D    002 13:11:23:07 13:11:23:09 02:21:35:03 02:21:35:05 
*FROM CLIP NAME:  104-105K3/02.SYNC.01 
*TO CLIP NAME:  104-105K6/02.SYNC.01 
*PATCH 19Y08M14:  FROM SOURCE 6 TO RECORD 7 
*SOURCE FILE: 19Y08M14
014364  19Y08M14                         A8    C        12:33:17:06 12:33:17:06 02:21:35:03 02:21:35:03 
014364  19Y08M14                         A8    D    002 13:11:23:07 13:11:23:09 02:21:35:03 02:21:35:05 
*FROM CLIP NAME:  104-105K3/02.SYNC.01 
*TO CLIP NAME:  104-105K6/02.SYNC.01 
*SOURCE FILE: 19Y08M14
014365  19Y08M14                         A     C        13:11:23:09 13:11:26:22 02:21:35:05 02:21:38:18 
*FROM CLIP NAME:  104-105K6/02.SYNC.01 
*SOURCE FILE: 19Y08M14
014366  19Y08M14                         A2    C        13:11:23:09 13:11:26:22 02:21:35:05 02:21:38:18 
*FROM CLIP NAME:  104-105K6/02.SYNC.01 
*SOURCE FILE: 19Y08M14
014367  19Y08M14                         A3    C        13:11:23:09 13:11:26:22 02:21:35:05 02:21:38:18 
*FROM CLIP NAME:  104-105K6/02.SYNC.01 
*SOURCE FILE: 19Y08M14
014368  19Y08M14                         A4    C        13:11:23:09 13:11:26:22 02:21:35:05 02:21:38:18 
*FROM CLIP NAME:  104-105K6/02.SYNC.01 
*SOURCE FILE: 19Y08M14
014369  19Y08M14                         A5    C        13:11:23:09 13:11:26:22 02:21:35:05 02:21:38:18 
*FROM CLIP NAME:  104-105K6/02.SYNC.01 
*SOURCE FILE: 19Y08M14
014370  19Y08M14                         A6    C        13:11:23:09 13:11:26:22 02:21:35:05 02:21:38:18 
*FROM CLIP NAME:  104-105K6/02.SYNC.01 
*PATCH 19Y08M14:  FROM SOURCE 7 TO RECORD 6 
*SOURCE FILE: 19Y08M14
014371  19Y08M14                         A7    C        13:11:23:09 13:11:26:22 02:21:35:05 02:21:38:18 
*FROM CLIP NAME:  104-105K6/02.SYNC.01 
*PATCH 19Y08M14:  FROM SOURCE 6 TO RECORD 7 
*SOURCE FILE: 19Y08M14
014372  19Y08M14                         A8    C        13:11:23:09 13:11:26:22 02:21:35:05 02:21:38:18 
*FROM CLIP NAME:  104-105K6/02.SYNC.01 
*SOURCE FILE: 19Y08M14
014373  MSMMMOB.63                       V     C        13:11:24:09 13:11:26:24 02:21:36:04 02:21:38:19 
M2      MSMMMOB.63                                025.0 13:11:24:09 
*FROM CLIP NAME:  B024C003_190814_R481 
*SOURCE FILE: MSMMMOB.63
014374  19Y08M14                         A     C        13:11:26:22 13:11:26:22 02:21:38:18 02:21:38:18 
014374  19Y08M14                         A     D    002 12:33:19:09 12:33:19:11 02:21:38:18 02:21:38:20 
*FROM CLIP NAME:  104-105K6/02.SYNC.01 
*TO CLIP NAME:  104-105K3/02.SYNC.01 
*SOURCE FILE: 19Y08M14
014375  19Y08M14                         A2    C        13:11:26:22 13:11:26:22 02:21:38:18 02:21:38:18 
014375  19Y08M14                         A2    D    002 12:33:19:09 12:33:19:11 02:21:38:18 02:21:38:20 
*FROM CLIP NAME:  104-105K6/02.SYNC.01 
*TO CLIP NAME:  104-105K3/02.SYNC.01 
*SOURCE FILE: 19Y08M14
014376  19Y08M14                         A3    C        13:11:26:22 13:11:26:22 02:21:38:18 02:21:38:18 
014376  19Y08M14                         A3    D    002 12:33:19:09 12:33:19:11 02:21:38:18 02:21:38:20 
*FROM CLIP NAME:  104-105K6/02.SYNC.01 
*TO CLIP NAME:  104-105K3/02.SYNC.01 
*SOURCE FILE: 19Y08M14
014377  19Y08M14                         A4    C        13:11:26:22 13:11:26:22 02:21:38:18 02:21:38:18 
014377  19Y08M14                         A4    D    002 12:33:19:09 12:33:19:11 02:21:38:18 02:21:38:20 
*FROM CLIP NAME:  104-105K6/02.SYNC.01 
*TO CLIP NAME:  104-105K3/02.SYNC.01 
*SOURCE FILE: 19Y08M14
014378  19Y08M14                         A5    C        13:11:26:22 13:11:26:22 02:21:38:18 02:21:38:18 
014378  19Y08M14                         A5    D    002 12:33:19:09 12:33:19:11 02:21:38:18 02:21:38:20 
*FROM CLIP NAME:  104-105K6/02.SYNC.01 
*TO CLIP NAME:  104-105K3/02.SYNC.01 
*SOURCE FILE: 19Y08M14
014379  19Y08M14                         A6    C        13:11:26:22 13:11:26:22 02:21:38:18 02:21:38:18 
014379  19Y08M14                         A6    D    002 12:33:19:09 12:33:19:11 02:21:38:18 02:21:38:20 
*FROM CLIP NAME:  104-105K6/02.SYNC.01 
*TO CLIP NAME:  104-105K3/02.SYNC.01 
*PATCH 19Y08M14:  FROM SOURCE 7 TO RECORD 6 
*PATCH 19Y08M14:  FROM SOURCE 7 TO RECORD 6 
*SOURCE FILE: 19Y08M14
014380  19Y08M14                         A7    C        13:11:26:22 13:11:26:22 02:21:38:18 02:21:38:18 
014380  19Y08M14                         A7    D    002 12:33:19:09 12:33:19:11 02:21:38:18 02:21:38:20 
*FROM CLIP NAME:  104-105K6/02.SYNC.01 
*TO CLIP NAME:  104-105K3/02.SYNC.01 
*PATCH 19Y08M14:  FROM SOURCE 6 TO RECORD 7 
*PATCH 19Y08M14:  FROM SOURCE 6 TO RECORD 7 
*SOURCE FILE: 19Y08M14
014381  19Y08M14                         A8    C        13:11:26:22 13:11:26:22 02:21:38:18 02:21:38:18 
014381  19Y08M14                         A8    D    002 12:33:19:09 12:33:19:11 02:21:38:18 02:21:38:20 
*FROM CLIP NAME:  104-105K6/02.SYNC.01 
*TO CLIP NAME:  104-105K3/02.SYNC.01 
*SOURCE FILE: 19Y08M14
014382  MSMMMOB.07                       V     C        12:33:19:10 12:33:24:10 02:21:38:19 02:21:43:19 
M2      MSMMMOB.07                                025.0 12:33:19:10 
*FROM CLIP NAME:  B023C004_190814_R481 
*SOURCE FILE: MSMMMOB.07
014383  19Y08M14                         A     C        12:33:19:11 12:33:26:07 02:21:38:20 02:21:45:16 
*FROM CLIP NAME:  104-105K3/02.SYNC.01 
*SOURCE FILE: 19Y08M14
014384  19Y08M14                         A2    C        12:33:19:11 12:33:26:07 02:21:38:20 02:21:45:16 
*FROM CLIP NAME:  104-105K3/02.SYNC.01 
*SOURCE FILE: 19Y08M14
014385  19Y08M14                         A3    C        12:33:19:11 12:33:26:07 02:21:38:20 02:21:45:16 
*FROM CLIP NAME:  104-105K3/02.SYNC.01 
*SOURCE FILE: 19Y08M14
014386  19Y08M14                         A4    C        12:33:19:11 12:33:26:07 02:21:38:20 02:21:45:16 
*FROM CLIP NAME:  104-105K3/02.SYNC.01 
*SOURCE FILE: 19Y08M14
014387  19Y08M14                         A5    C        12:33:19:11 12:33:26:07 02:21:38:20 02:21:45:16 
*FROM CLIP NAME:  104-105K3/02.SYNC.01 
*SOURCE FILE: 19Y08M14
014388  19Y08M14                         A6    C        12:33:19:11 12:33:26:07 02:21:38:20 02:21:45:16 
*FROM CLIP NAME:  104-105K3/02.SYNC.01 
*PATCH 19Y08M14:  FROM SOURCE 7 TO RECORD 6 
*SOURCE FILE: 19Y08M14
014389  19Y08M14                         A7    C        12:33:19:11 12:33:26:07 02:21:38:20 02:21:45:16 
*FROM CLIP NAME:  104-105K3/02.SYNC.01 
*PATCH 19Y08M14:  FROM SOURCE 6 TO RECORD 7 
*SOURCE FILE: 19Y08M14
014390  19Y08M14                         A8    C        12:33:19:11 12:33:26:07 02:21:38:20 02:21:45:16 
*FROM CLIP NAME:  104-105K3/02.SYNC.01 
*SOURCE FILE: 19Y08M14
014391  MSMMMOB.63                       V     C        13:11:33:00 13:11:39:21 02:21:43:19 02:21:50:15 
M2      MSMMMOB.63                                025.0 13:11:33:00 
*FROM CLIP NAME:  B024C003_190814_R481 
*SOURCE FILE: MSMMMOB.63
014392  19Y08M14                         A     C        12:33:26:07 12:33:26:07 02:21:45:16 02:21:45:16 
014392  19Y08M14                         A     D    002 13:11:34:21 13:11:34:23 02:21:45:16 02:21:45:18 
*FROM CLIP NAME:  104-105K3/02.SYNC.01 
*TO CLIP NAME:  104-105K6/02.SYNC.01 
*SOURCE FILE: 19Y08M14
014393  19Y08M14                         A2    C        12:33:26:07 12:33:26:07 02:21:45:16 02:21:45:16 
014393  19Y08M14                         A2    D    002 13:11:34:21 13:11:34:23 02:21:45:16 02:21:45:18 
*FROM CLIP NAME:  104-105K3/02.SYNC.01 
*TO CLIP NAME:  104-105K6/02.SYNC.01 
*SOURCE FILE: 19Y08M14
014394  19Y08M14                         A3    C        12:33:26:07 12:33:26:07 02:21:45:16 02:21:45:16 
014394  19Y08M14                         A3    D    002 13:11:34:21 13:11:34:23 02:21:45:16 02:21:45:18 
*FROM CLIP NAME:  104-105K3/02.SYNC.01 
*TO CLIP NAME:  104-105K6/02.SYNC.01 
*SOURCE FILE: 19Y08M14
014395  19Y08M14                         A4    C        12:33:26:07 12:33:26:07 02:21:45:16 02:21:45:16 
014395  19Y08M14                         A4    D    002 13:11:34:21 13:11:34:23 02:21:45:16 02:21:45:18 
*FROM CLIP NAME:  104-105K3/02.SYNC.01 
*TO CLIP NAME:  104-105K6/02.SYNC.01 
*SOURCE FILE: 19Y08M14
014396  19Y08M14                         A5    C        12:33:26:07 12:33:26:07 02:21:45:16 02:21:45:16 
014396  19Y08M14                         A5    D    002 13:11:34:21 13:11:34:23 02:21:45:16 02:21:45:18 
*FROM CLIP NAME:  104-105K3/02.SYNC.01 
*TO CLIP NAME:  104-105K6/02.SYNC.01 
*SOURCE FILE: 19Y08M14
014397  19Y08M14                         A6    C        12:33:26:07 12:33:26:07 02:21:45:16 02:21:45:16 
014397  19Y08M14                         A6    D    002 13:11:34:21 13:11:34:23 02:21:45:16 02:21:45:18 
*FROM CLIP NAME:  104-105K3/02.SYNC.01 
*TO CLIP NAME:  104-105K6/02.SYNC.01 
*PATCH 19Y08M14:  FROM SOURCE 7 TO RECORD 6 
*PATCH 19Y08M14:  FROM SOURCE 7 TO RECORD 6 
*SOURCE FILE: 19Y08M14
014398  19Y08M14                         A7    C        12:33:26:07 12:33:26:07 02:21:45:16 02:21:45:16 
014398  19Y08M14                         A7    D    002 13:11:34:21 13:11:34:23 02:21:45:16 02:21:45:18 
*FROM CLIP NAME:  104-105K3/02.SYNC.01 
*TO CLIP NAME:  104-105K6/02.SYNC.01 
*PATCH 19Y08M14:  FROM SOURCE 6 TO RECORD 7 
*PATCH 19Y08M14:  FROM SOURCE 6 TO RECORD 7 
*SOURCE FILE: 19Y08M14
014399  19Y08M14                         A8    C        12:33:26:07 12:33:26:07 02:21:45:16 02:21:45:16 
014399  19Y08M14                         A8    D    002 13:11:34:21 13:11:34:23 02:21:45:16 02:21:45:18 
*FROM CLIP NAME:  104-105K3/02.SYNC.01 
*TO CLIP NAME:  104-105K6/02.SYNC.01 
*SOURCE FILE: 19Y08M14
014400  19Y08M14                         A     C        13:11:34:23 13:11:39:23 02:21:45:18 02:21:50:18 
*FROM CLIP NAME:  104-105K6/02.SYNC.01 
*SOURCE FILE: 19Y08M14
014401  19Y08M14                         A2    C        13:11:34:23 13:11:39:23 02:21:45:18 02:21:50:18 
*FROM CLIP NAME:  104-105K6/02.SYNC.01 
*SOURCE FILE: 19Y08M14
014402  19Y08M14                         A3    C        13:11:34:23 13:11:39:23 02:21:45:18 02:21:50:18 
*FROM CLIP NAME:  104-105K6/02.SYNC.01 
*SOURCE FILE: 19Y08M14
014403  19Y08M14                         A4    C        13:11:34:23 13:11:39:23 02:21:45:18 02:21:50:18 
*FROM CLIP NAME:  104-105K6/02.SYNC.01 
*SOURCE FILE: 19Y08M14
014404  19Y08M14                         A5    C        13:11:34:23 13:11:39:23 02:21:45:18 02:21:50:18 
*FROM CLIP NAME:  104-105K6/02.SYNC.01 
*SOURCE FILE: 19Y08M14
014405  19Y08M14                         A6    C        13:11:34:23 13:11:39:23 02:21:45:18 02:21:50:18 
*FROM CLIP NAME:  104-105K6/02.SYNC.01 
*PATCH 19Y08M14:  FROM SOURCE 7 TO RECORD 6 
*SOURCE FILE: 19Y08M14
014406  19Y08M14                         A7    C        13:11:34:23 13:11:39:23 02:21:45:18 02:21:50:18 
*FROM CLIP NAME:  104-105K6/02.SYNC.01 
*PATCH 19Y08M14:  FROM SOURCE 6 TO RECORD 7 
*SOURCE FILE: 19Y08M14
014407  19Y08M14                         A8    C        13:11:34:23 13:11:39:23 02:21:45:18 02:21:50:18 
*FROM CLIP NAME:  104-105K6/02.SYNC.01 
*SOURCE FILE: 19Y08M14
014408  MSMMMOB.29                       V     C        12:33:28:15 12:33:31:03 02:21:50:15 02:21:53:03 
M2      MSMMMOB.29                                025.0 12:33:28:15 
*FROM CLIP NAME:  A076C004_190814_R32C 
*SOURCE FILE: MSMMMOB.29
014409  19Y08M14                         A     C        13:11:29:18 13:11:32:03 02:21:50:18 02:21:53:03 
*FROM CLIP NAME:  104-105K6/02.SYNC.01 
*SOURCE FILE: 19Y08M14
014410  19Y08M14                         A2    C        13:11:29:18 13:11:32:03 02:21:50:18 02:21:53:03 
*FROM CLIP NAME:  104-105K6/02.SYNC.01 
*PATCH 19Y08M14:  FROM SOURCE 5 TO RECORD 2 
*SOURCE FILE: 19Y08M14
014411  19Y08M14                         A3    C        13:11:29:18 13:11:32:03 02:21:50:18 02:21:53:03 
*FROM CLIP NAME:  104-105K6/02.SYNC.01 
*SOURCE FILE: 19Y08M14
014412  19Y08M14                         A4    C        13:11:29:18 13:11:32:03 02:21:50:18 02:21:53:03 
*FROM CLIP NAME:  104-105K6/02.SYNC.01 
*SOURCE FILE: 19Y08M14
014413  19Y08M14                         A5    C        13:11:29:18 13:11:32:03 02:21:50:18 02:21:53:03 
*FROM CLIP NAME:  104-105K6/02.SYNC.01 
*PATCH 19Y08M14:  FROM SOURCE 7 TO RECORD 5 
*SOURCE FILE: 19Y08M14
014414  19Y08M14                         A6    C        13:11:29:18 13:11:32:03 02:21:50:18 02:21:53:03 
*FROM CLIP NAME:  104-105K6/02.SYNC.01 
*PATCH 19Y08M14:  FROM SOURCE 2 TO RECORD 6 
*SOURCE FILE: 19Y08M14
014415  19Y08M14                         A7    C        13:11:29:18 13:11:32:03 02:21:50:18 02:21:53:03 
*FROM CLIP NAME:  104-105K6/02.SYNC.01 
*PATCH 19Y08M14:  FROM SOURCE 6 TO RECORD 7 
*SOURCE FILE: 19Y08M14
014416  19Y08M14                         A8    C        13:11:29:18 13:11:32:03 02:21:50:18 02:21:53:03 
*FROM CLIP NAME:  104-105K6/02.SYNC.01 
*SOURCE FILE: 19Y08M14
014417  19Y08M14                         A     C        13:37:03:00 13:37:04:05 02:21:53:03 02:21:54:08 
*FROM CLIP NAME:  104-105K7/02.SYNC.01 
*SOURCE FILE: 19Y08M14
014418  19Y08M14                         A2    C        13:37:03:00 13:37:04:05 02:21:53:03 02:21:54:08 
*FROM CLIP NAME:  104-105K7/02.SYNC.01 
*SOURCE FILE: 19Y08M14
014419  19Y08M14                         A3    C        13:37:03:00 13:37:04:05 02:21:53:03 02:21:54:08 
*FROM CLIP NAME:  104-105K7/02.SYNC.01 
*SOURCE FILE: 19Y08M14
014420  19Y08M14                         A4    C        13:37:03:00 13:37:04:05 02:21:53:03 02:21:54:08 
*FROM CLIP NAME:  104-105K7/02.SYNC.01 
*SOURCE FILE: 19Y08M14
014421  19Y08M14                         A5    C        13:37:03:00 13:37:04:05 02:21:53:03 02:21:54:08 
*FROM CLIP NAME:  104-105K7/02.SYNC.01 
*SOURCE FILE: 19Y08M14
014422  19Y08M14                         A6    C        13:37:03:00 13:37:04:05 02:21:53:03 02:21:54:08 
*FROM CLIP NAME:  104-105K7/02.SYNC.01 
*PATCH 19Y08M14:  FROM SOURCE 8 TO RECORD 6 
*SOURCE FILE: 19Y08M14
014423  19Y08M14                         A7    C        13:37:03:00 13:37:04:05 02:21:53:03 02:21:54:08 
*FROM CLIP NAME:  104-105K7/02.SYNC.01 
*PATCH 19Y08M14:  FROM SOURCE 6 TO RECORD 7 
*SOURCE FILE: 19Y08M14
014424  MSMMMOB.01                       V     C        13:37:03:00 13:37:05:07 02:21:53:03 02:21:55:10 
M2      MSMMMOB.01                                025.0 13:37:03:00 
*FROM CLIP NAME:  A077C005_190814_R32C 
*SOURCE FILE: MSMMMOB.01
014425  19Y08M14                         A     C        13:37:04:05 13:37:04:05 02:21:54:08 02:21:54:08 
014425  19Y08M14                         A     D    002 12:33:49:03 12:33:49:05 02:21:54:08 02:21:54:10 
*FROM CLIP NAME:  104-105K7/02.SYNC.01 
*TO CLIP NAME:  104-105K3/02.SYNC.01 
*SOURCE FILE: 19Y08M14
014426  19Y08M14                         A2    C        13:37:04:05 13:37:04:05 02:21:54:08 02:21:54:08 
014426  19Y08M14                         A2    D    002 12:33:49:03 12:33:49:05 02:21:54:08 02:21:54:10 
*FROM CLIP NAME:  104-105K7/02.SYNC.01 
*TO CLIP NAME:  104-105K3/02.SYNC.01 
*SOURCE FILE: 19Y08M14
014427  19Y08M14                         A3    C        13:37:04:05 13:37:04:05 02:21:54:08 02:21:54:08 
014427  19Y08M14                         A3    D    002 12:33:49:03 12:33:49:05 02:21:54:08 02:21:54:10 
*FROM CLIP NAME:  104-105K7/02.SYNC.01 
*TO CLIP NAME:  104-105K3/02.SYNC.01 
*SOURCE FILE: 19Y08M14
014428  19Y08M14                         A4    C        13:37:04:05 13:37:04:05 02:21:54:08 02:21:54:08 
014428  19Y08M14                         A4    D    002 12:33:49:03 12:33:49:05 02:21:54:08 02:21:54:10 
*FROM CLIP NAME:  104-105K7/02.SYNC.01 
*TO CLIP NAME:  104-105K3/02.SYNC.01 
*SOURCE FILE: 19Y08M14
014429  19Y08M14                         A5    C        13:37:04:05 13:37:04:05 02:21:54:08 02:21:54:08 
014429  19Y08M14                         A5    D    002 12:33:49:03 12:33:49:05 02:21:54:08 02:21:54:10 
*FROM CLIP NAME:  104-105K7/02.SYNC.01 
*TO CLIP NAME:  104-105K3/02.SYNC.01 
*SOURCE FILE: 19Y08M14
014430  19Y08M14                         A6    C        13:37:04:05 13:37:04:05 02:21:54:08 02:21:54:08 
014430  19Y08M14                         A6    D    002 12:33:49:03 12:33:49:05 02:21:54:08 02:21:54:10 
*FROM CLIP NAME:  104-105K7/02.SYNC.01 
*TO CLIP NAME:  104-105K3/02.SYNC.01 
*PATCH 19Y08M14:  FROM SOURCE 8 TO RECORD 6 
*PATCH 19Y08M14:  FROM SOURCE 7 TO RECORD 6 
*SOURCE FILE: 19Y08M14
014431  19Y08M14                         A7    C        13:37:04:05 13:37:04:05 02:21:54:08 02:21:54:08 
014431  19Y08M14                         A7    D    002 12:33:49:03 12:33:49:05 02:21:54:08 02:21:54:10 
*FROM CLIP NAME:  104-105K7/02.SYNC.01 
*TO CLIP NAME:  104-105K3/02.SYNC.01 
*PATCH 19Y08M14:  FROM SOURCE 6 TO RECORD 7 
*PATCH 19Y08M14:  FROM SOURCE 6 TO RECORD 7 
*SOURCE FILE: 19Y08M14
014432  BL                               A8    C        00:00:00:00 00:00:00:00 02:21:54:08 02:21:54:08 
014432  19Y08M14                         A8    D    002 12:33:49:03 12:33:49:05 02:21:54:08 02:21:54:10 
*TO CLIP NAME:  104-105K3/02.SYNC.01 
*SOURCE FILE: (NULL)
014433  19Y08M14                         A     C        12:33:49:05 12:33:51:05 02:21:54:10 02:21:56:10 
*FROM CLIP NAME:  104-105K3/02.SYNC.01 
*SOURCE FILE: 19Y08M14
014434  19Y08M14                         A2    C        12:33:49:05 12:33:51:05 02:21:54:10 02:21:56:10 
*FROM CLIP NAME:  104-105K3/02.SYNC.01 
*SOURCE FILE: 19Y08M14
014435  19Y08M14                         A3    C        12:33:49:05 12:33:51:05 02:21:54:10 02:21:56:10 
*FROM CLIP NAME:  104-105K3/02.SYNC.01 
*SOURCE FILE: 19Y08M14
014436  19Y08M14                         A4    C        12:33:49:05 12:33:51:05 02:21:54:10 02:21:56:10 
*FROM CLIP NAME:  104-105K3/02.SYNC.01 
*SOURCE FILE: 19Y08M14
014437  19Y08M14                         A5    C        12:33:49:05 12:33:51:05 02:21:54:10 02:21:56:10 
*FROM CLIP NAME:  104-105K3/02.SYNC.01 
*SOURCE FILE: 19Y08M14
014438  19Y08M14                         A6    C        12:33:49:05 12:33:51:05 02:21:54:10 02:21:56:10 
*FROM CLIP NAME:  104-105K3/02.SYNC.01 
*PATCH 19Y08M14:  FROM SOURCE 7 TO RECORD 6 
*SOURCE FILE: 19Y08M14
014439  19Y08M14                         A7    C        12:33:49:05 12:33:51:05 02:21:54:10 02:21:56:10 
*FROM CLIP NAME:  104-105K3/02.SYNC.01 
*PATCH 19Y08M14:  FROM SOURCE 6 TO RECORD 7 
*SOURCE FILE: 19Y08M14
014440  19Y08M14                         A8    C        12:33:49:05 12:33:51:05 02:21:54:10 02:21:56:10 
*FROM CLIP NAME:  104-105K3/02.SYNC.01 
*SOURCE FILE: 19Y08M14
014441  MSMMMOB.40                       V     C        12:56:54:23 12:57:00:05 02:21:55:10 02:22:00:17 
M2      MSMMMOB.40                                025.0 12:56:54:23 
*FROM CLIP NAME:  A077C001_190814_R32C 
*SOURCE FILE: MSMMMOB.40
014442  19Y08M14                         A     C        12:33:51:05 12:33:51:05 02:21:56:10 02:21:56:10 
014442  19Y08M14                         A     D    002 12:56:55:22 12:56:55:24 02:21:56:10 02:21:56:12 
*FROM CLIP NAME:  104-105K3/02.SYNC.01 
*TO CLIP NAME:  104-105K5/01.SYNC.01 
*SOURCE FILE: 19Y08M14
014443  19Y08M14                         A2    C        12:33:51:05 12:33:51:05 02:21:56:10 02:21:56:10 
014443  19Y08M14                         A2    D    002 12:56:55:22 12:56:55:24 02:21:56:10 02:21:56:12 
*FROM CLIP NAME:  104-105K3/02.SYNC.01 
*TO CLIP NAME:  104-105K5/01.SYNC.01 
*SOURCE FILE: 19Y08M14
014444  19Y08M14                         A3    C        12:33:51:05 12:33:51:05 02:21:56:10 02:21:56:10 
014444  19Y08M14                         A3    D    002 12:56:55:22 12:56:55:24 02:21:56:10 02:21:56:12 
*FROM CLIP NAME:  104-105K3/02.SYNC.01 
*TO CLIP NAME:  104-105K5/01.SYNC.01 
*SOURCE FILE: 19Y08M14
014445  19Y08M14                         A4    C        12:33:51:05 12:33:51:05 02:21:56:10 02:21:56:10 
014445  19Y08M14                         A4    D    002 12:56:55:22 12:56:55:24 02:21:56:10 02:21:56:12 
*FROM CLIP NAME:  104-105K3/02.SYNC.01 
*TO CLIP NAME:  104-105K5/01.SYNC.01 
*SOURCE FILE: 19Y08M14
014446  19Y08M14                         A5    C        12:33:51:05 12:33:51:05 02:21:56:10 02:21:56:10 
014446  19Y08M14                         A5    D    002 12:56:55:22 12:56:55:24 02:21:56:10 02:21:56:12 
*FROM CLIP NAME:  104-105K3/02.SYNC.01 
*TO CLIP NAME:  104-105K5/01.SYNC.01 
*SOURCE FILE: 19Y08M14
014447  19Y08M14                         A6    C        12:33:51:05 12:33:51:05 02:21:56:10 02:21:56:10 
014447  19Y08M14                         A6    D    002 12:56:55:22 12:56:55:24 02:21:56:10 02:21:56:12 
*FROM CLIP NAME:  104-105K3/02.SYNC.01 
*TO CLIP NAME:  104-105K5/01.SYNC.01 
*PATCH 19Y08M14:  FROM SOURCE 7 TO RECORD 6 
*PATCH 19Y08M14:  FROM SOURCE 7 TO RECORD 6 
*SOURCE FILE: 19Y08M14
014448  19Y08M14                         A7    C        12:33:51:05 12:33:51:05 02:21:56:10 02:21:56:10 
014448  19Y08M14                         A7    D    002 12:56:55:22 12:56:55:24 02:21:56:10 02:21:56:12 
*FROM CLIP NAME:  104-105K3/02.SYNC.01 
*TO CLIP NAME:  104-105K5/01.SYNC.01 
*PATCH 19Y08M14:  FROM SOURCE 6 TO RECORD 7 
*PATCH 19Y08M14:  FROM SOURCE 6 TO RECORD 7 
*SOURCE FILE: 19Y08M14
014449  19Y08M14                         A8    C        12:33:51:05 12:33:51:05 02:21:56:10 02:21:56:10 
014449  BL                               A8    D    002 00:00:00:00 00:00:00:02 02:21:56:10 02:21:56:12 
*FROM CLIP NAME:  104-105K3/02.SYNC.01 
*SOURCE FILE: 19Y08M14
014450  19Y08M14                         A     C        12:56:55:24 12:57:02:15 02:21:56:12 02:22:03:03 
*FROM CLIP NAME:  104-105K5/01.SYNC.01 
*SOURCE FILE: 19Y08M14
014451  19Y08M14                         A2    C        12:56:55:24 12:57:02:15 02:21:56:12 02:22:03:03 
*FROM CLIP NAME:  104-105K5/01.SYNC.01 
*SOURCE FILE: 19Y08M14
014452  19Y08M14                         A3    C        12:56:55:24 12:57:02:15 02:21:56:12 02:22:03:03 
*FROM CLIP NAME:  104-105K5/01.SYNC.01 
*SOURCE FILE: 19Y08M14
014453  19Y08M14                         A4    C        12:56:55:24 12:57:02:15 02:21:56:12 02:22:03:03 
*FROM CLIP NAME:  104-105K5/01.SYNC.01 
*SOURCE FILE: 19Y08M14
014454  19Y08M14                         A5    C        12:56:55:24 12:57:02:15 02:21:56:12 02:22:03:03 
*FROM CLIP NAME:  104-105K5/01.SYNC.01 
*SOURCE FILE: 19Y08M14
014455  19Y08M14                         A6    C        12:56:55:24 12:57:02:15 02:21:56:12 02:22:03:03 
*FROM CLIP NAME:  104-105K5/01.SYNC.01 
*PATCH 19Y08M14:  FROM SOURCE 7 TO RECORD 6 
*SOURCE FILE: 19Y08M14
014456  19Y08M14                         A7    C        12:56:55:24 12:57:02:15 02:21:56:12 02:22:03:03 
*FROM CLIP NAME:  104-105K5/01.SYNC.01 
*PATCH 19Y08M14:  FROM SOURCE 6 TO RECORD 7 
*SOURCE FILE: 19Y08M14
014457  BL                               A8    C        00:00:00:00 00:00:00:00 02:21:57:01 02:21:57:01 
014457  19Y08M14                         A8    D    002 12:56:56:13 12:56:56:15 02:21:57:01 02:21:57:03 
*TO CLIP NAME:  104-105K5/01.SYNC.01 
*SOURCE FILE: (NULL)
014458  19Y08M14                         A8    C        12:56:56:15 12:57:02:15 02:21:57:03 02:22:03:03 
*FROM CLIP NAME:  104-105K5/01.SYNC.01 
*SOURCE FILE: 19Y08M14
014459  MSMMMOB.41                       V     C        13:37:04:13 13:37:06:24 02:22:00:17 02:22:03:03 
M2      MSMMMOB.41                                025.0 13:37:04:13 
*FROM CLIP NAME:  B025C001_190814_R481 
*SOURCE FILE: MSMMMOB.41
014460  MSMMMOB.40                       V     C        12:57:03:16 12:57:06:20 02:22:03:03 02:22:06:07 
M2      MSMMMOB.40                                025.0 12:57:03:16 
*FROM CLIP NAME:  A077C001_190814_R32C 
*SOURCE FILE: MSMMMOB.40
014461  19Y08M14                         A     C        12:57:03:15 12:57:07:22 02:22:03:03 02:22:07:10 
*FROM CLIP NAME:  104-105K5/01.SYNC.01 
*SOURCE FILE: 19Y08M14
014462  19Y08M14                         A2    C        12:57:03:15 12:57:07:22 02:22:03:03 02:22:07:10 
*FROM CLIP NAME:  104-105K5/01.SYNC.01 
*SOURCE FILE: 19Y08M14
014463  19Y08M14                         A3    C        12:57:03:15 12:57:07:22 02:22:03:03 02:22:07:10 
*FROM CLIP NAME:  104-105K5/01.SYNC.01 
*SOURCE FILE: 19Y08M14
014464  19Y08M14                         A4    C        12:57:03:15 12:57:07:22 02:22:03:03 02:22:07:10 
*FROM CLIP NAME:  104-105K5/01.SYNC.01 
*SOURCE FILE: 19Y08M14
014465  19Y08M14                         A5    C        12:57:03:15 12:57:07:22 02:22:03:03 02:22:07:10 
*FROM CLIP NAME:  104-105K5/01.SYNC.01 
*SOURCE FILE: 19Y08M14
014466  19Y08M14                         A6    C        12:57:03:15 12:57:07:22 02:22:03:03 02:22:07:10 
*FROM CLIP NAME:  104-105K5/01.SYNC.01 
*PATCH 19Y08M14:  FROM SOURCE 7 TO RECORD 6 
*SOURCE FILE: 19Y08M14
014467  19Y08M14                         A7    C        12:57:03:15 12:57:07:22 02:22:03:03 02:22:07:10 
*FROM CLIP NAME:  104-105K5/01.SYNC.01 
*PATCH 19Y08M14:  FROM SOURCE 6 TO RECORD 7 
*SOURCE FILE: 19Y08M14
014468  19Y08M14                         A8    C        12:57:03:15 12:57:07:22 02:22:03:03 02:22:07:10 
*FROM CLIP NAME:  104-105K5/01.SYNC.01 
*SOURCE FILE: 19Y08M14
014469  MSMMMOB.63                       V     C        13:11:54:02 13:11:58:13 02:22:06:07 02:22:10:18 
M2      MSMMMOB.63                                025.0 13:11:54:02 
*FROM CLIP NAME:  B024C003_190814_R481 
*SOURCE FILE: MSMMMOB.63
014470  BL                               V     C        00:00:00:00 00:00:01:16 02:22:06:15 02:22:08:06 
*SOURCE FILE: (NULL)
014471  19Y08M14                         A     C        12:57:06:04 12:57:07:23 02:22:07:10 02:22:09:04 
*FROM CLIP NAME:  104-105K5/01.SYNC.01 
*SOURCE FILE: 19Y08M14
014472  19Y08M14                         A2    C        12:57:06:04 12:57:07:23 02:22:07:10 02:22:09:04 
*FROM CLIP NAME:  104-105K5/01.SYNC.01 
*SOURCE FILE: 19Y08M14
014473  19Y08M14                         A3    C        12:57:06:04 12:57:07:23 02:22:07:10 02:22:09:04 
*FROM CLIP NAME:  104-105K5/01.SYNC.01 
*SOURCE FILE: 19Y08M14
014474  19Y08M14                         A4    C        12:57:06:04 12:57:07:23 02:22:07:10 02:22:09:04 
*FROM CLIP NAME:  104-105K5/01.SYNC.01 
*SOURCE FILE: 19Y08M14
014475  19Y08M14                         A5    C        12:57:06:04 12:57:07:23 02:22:07:10 02:22:09:04 
*FROM CLIP NAME:  104-105K5/01.SYNC.01 
*SOURCE FILE: 19Y08M14
014476  19Y08M14                         A6    C        12:57:06:04 12:57:07:23 02:22:07:10 02:22:09:04 
*FROM CLIP NAME:  104-105K5/01.SYNC.01 
*PATCH 19Y08M14:  FROM SOURCE 7 TO RECORD 6 
*SOURCE FILE: 19Y08M14
014477  19Y08M14                         A7    C        12:57:06:04 12:57:07:23 02:22:07:10 02:22:09:04 
*FROM CLIP NAME:  104-105K5/01.SYNC.01 
*PATCH 19Y08M14:  FROM SOURCE 6 TO RECORD 7 
*SOURCE FILE: 19Y08M14
014478  19Y08M14                         A8    C        12:57:06:04 12:57:07:23 02:22:07:10 02:22:09:04 
*FROM CLIP NAME:  104-105K5/01.SYNC.01 
*SOURCE FILE: 19Y08M14
014479  BL                               V     C        00:00:00:00 00:00:48:04 02:22:08:06 02:22:56:10 
*SOURCE FILE: (NULL)
014480  19Y08M14                         A     C        13:11:56:23 13:11:58:18 02:22:09:04 02:22:10:24 
*FROM CLIP NAME:  104-105K6/02.SYNC.01 
*SOURCE FILE: 19Y08M14
014481  19Y08M14                         A2    C        13:11:56:23 13:11:58:18 02:22:09:04 02:22:10:24 
*FROM CLIP NAME:  104-105K6/02.SYNC.01 
*SOURCE FILE: 19Y08M14
014482  19Y08M14                         A3    C        13:11:56:23 13:11:58:18 02:22:09:04 02:22:10:24 
*FROM CLIP NAME:  104-105K6/02.SYNC.01 
*SOURCE FILE: 19Y08M14
014483  19Y08M14                         A4    C        13:11:56:23 13:11:58:18 02:22:09:04 02:22:10:24 
*FROM CLIP NAME:  104-105K6/02.SYNC.01 
*SOURCE FILE: 19Y08M14
014484  19Y08M14                         A6    C        13:11:56:23 13:11:58:18 02:22:09:04 02:22:10:24 
*FROM CLIP NAME:  104-105K6/02.SYNC.01 
*PATCH 19Y08M14:  FROM SOURCE 7 TO RECORD 6 
*SOURCE FILE: 19Y08M14
014485  19Y08M14                         A7    C        13:11:56:23 13:11:58:18 02:22:09:04 02:22:10:24 
*FROM CLIP NAME:  104-105K6/02.SYNC.01 
*PATCH 19Y08M14:  FROM SOURCE 6 TO RECORD 7 
*SOURCE FILE: 19Y08M14
014486  19Y08M14                         A8    C        13:11:56:23 13:11:58:18 02:22:09:04 02:22:10:24 
*FROM CLIP NAME:  104-105K6/02.SYNC.01 
*SOURCE FILE: 19Y08M14
014487  19Y08M14                         A9    C        13:37:14:19 13:37:15:12 02:22:09:21 02:22:10:14 
*FROM CLIP NAME:  104-105K7/02.SYNC.01 
*PATCH 19Y08M14:  FROM SOURCE 1 TO RECORD 9 
*SOURCE FILE: 19Y08M14
014488  19Y08M14                         A10   C        13:37:14:19 13:37:15:12 02:22:09:21 02:22:10:14 
*FROM CLIP NAME:  104-105K7/02.SYNC.01 
*PATCH 19Y08M14:  FROM SOURCE 2 TO RECORD 10 
*SOURCE FILE: 19Y08M14
014489  19Y08M14                         A11   C        13:37:14:19 13:37:15:12 02:22:09:21 02:22:10:14 
*FROM CLIP NAME:  104-105K7/02.SYNC.01 
*PATCH 19Y08M14:  FROM SOURCE 3 TO RECORD 11 
*SOURCE FILE: 19Y08M14
014490  19Y08M14                         A12   C        13:37:14:19 13:37:15:12 02:22:09:21 02:22:10:14 
*FROM CLIP NAME:  104-105K7/02.SYNC.01 
*PATCH 19Y08M14:  FROM SOURCE 4 TO RECORD 12 
*SOURCE FILE: 19Y08M14
014491  19Y08M14                         A13   C        13:37:14:19 13:37:15:12 02:22:09:21 02:22:10:14 
*FROM CLIP NAME:  104-105K7/02.SYNC.01 
*PATCH 19Y08M14:  FROM SOURCE 5 TO RECORD 13 
*SOURCE FILE: 19Y08M14
014492  19Y08M14                         A14   C        13:37:14:19 13:37:15:12 02:22:09:21 02:22:10:14 
*FROM CLIP NAME:  104-105K7/02.SYNC.01 
*PATCH 19Y08M14:  FROM SOURCE 8 TO RECORD 14 
*SOURCE FILE: 19Y08M14
014493  19Y08M14                         A15   C        13:37:14:19 13:37:15:12 02:22:09:21 02:22:10:14 
*FROM CLIP NAME:  104-105K7/02.SYNC.01 
*PATCH 19Y08M14:  FROM SOURCE 6 TO RECORD 15 
*SOURCE FILE: 19Y08M14
014494  MSMMMOB.23                       V     C        14:00:23:21 14:00:25:16 02:22:10:18 02:22:12:13 
M2      MSMMMOB.23                                025.0 14:00:23:21 
*FROM CLIP NAME:  A078C003_190814_R32C 
*SOURCE FILE: MSMMMOB.23
014495  19Y08M14                         A     C        14:00:24:02 14:00:25:15 02:22:10:24 02:22:12:12 
*FROM CLIP NAME:  104-105K9/02.SYNC.01 
*SOURCE FILE: 19Y08M14
014496  19Y08M14                         A2    C        14:00:24:02 14:00:25:15 02:22:10:24 02:22:12:12 
*FROM CLIP NAME:  104-105K9/02.SYNC.01 
*SOURCE FILE: 19Y08M14
014497  19Y08M14                         A3    C        14:00:24:02 14:00:25:15 02:22:10:24 02:22:12:12 
*FROM CLIP NAME:  104-105K9/02.SYNC.01 
*SOURCE FILE: 19Y08M14
014498  19Y08M14                         A4    C        14:00:24:02 14:00:25:15 02:22:10:24 02:22:12:12 
*FROM CLIP NAME:  104-105K9/02.SYNC.01 
*SOURCE FILE: 19Y08M14
014499  19Y08M14                         A5    C        14:00:24:02 14:00:25:15 02:22:10:24 02:22:12:12 
*FROM CLIP NAME:  104-105K9/02.SYNC.01 
*SOURCE FILE: 19Y08M14
014500  19Y08M14                         A6    C        14:00:24:02 14:00:25:15 02:22:10:24 02:22:12:12 
*FROM CLIP NAME:  104-105K9/02.SYNC.01 
*PATCH 19Y08M14:  FROM SOURCE 8 TO RECORD 6 
*SOURCE FILE: 19Y08M14
014501  19Y08M14                         A7    C        14:00:24:02 14:00:25:15 02:22:10:24 02:22:12:12 
*FROM CLIP NAME:  104-105K9/02.SYNC.01 
*PATCH 19Y08M14:  FROM SOURCE 6 TO RECORD 7 
*SOURCE FILE: 19Y08M14
014502  19Y08M14                         A     C        14:00:25:15 14:00:25:15 02:22:12:12 02:22:12:12 
014502  19Y08M14                         A     D    002 13:12:05:05 13:12:05:07 02:22:12:12 02:22:12:14 
*FROM CLIP NAME:  104-105K9/02.SYNC.01 
*TO CLIP NAME:  104-105K6/02.SYNC.01 
*SOURCE FILE: 19Y08M14
014503  19Y08M14                         A2    C        14:00:25:15 14:00:25:15 02:22:12:12 02:22:12:12 
014503  19Y08M14                         A2    D    002 13:12:05:05 13:12:05:07 02:22:12:12 02:22:12:14 
*FROM CLIP NAME:  104-105K9/02.SYNC.01 
*TO CLIP NAME:  104-105K6/02.SYNC.01 
*SOURCE FILE: 19Y08M14
014504  19Y08M14                         A3    C        14:00:25:15 14:00:25:15 02:22:12:12 02:22:12:12 
014504  19Y08M14                         A3    D    002 13:12:05:05 13:12:05:07 02:22:12:12 02:22:12:14 
*FROM CLIP NAME:  104-105K9/02.SYNC.01 
*TO CLIP NAME:  104-105K6/02.SYNC.01 
*SOURCE FILE: 19Y08M14
014505  19Y08M14                         A4    C        14:00:25:15 14:00:25:15 02:22:12:12 02:22:12:12 
014505  19Y08M14                         A4    D    002 13:12:05:05 13:12:05:07 02:22:12:12 02:22:12:14 
*FROM CLIP NAME:  104-105K9/02.SYNC.01 
*TO CLIP NAME:  104-105K6/02.SYNC.01 
*SOURCE FILE: 19Y08M14
014506  19Y08M14                         A5    C        14:00:25:15 14:00:25:15 02:22:12:12 02:22:12:12 
014506  19Y08M14                         A5    D    002 13:12:05:05 13:12:05:07 02:22:12:12 02:22:12:14 
*FROM CLIP NAME:  104-105K9/02.SYNC.01 
*TO CLIP NAME:  104-105K6/02.SYNC.01 
*SOURCE FILE: 19Y08M14
014507  19Y08M14                         A6    C        14:00:25:15 14:00:25:15 02:22:12:12 02:22:12:12 
014507  19Y08M14                         A6    D    002 13:12:05:05 13:12:05:07 02:22:12:12 02:22:12:14 
*FROM CLIP NAME:  104-105K9/02.SYNC.01 
*TO CLIP NAME:  104-105K6/02.SYNC.01 
*PATCH 19Y08M14:  FROM SOURCE 8 TO RECORD 6 
*PATCH 19Y08M14:  FROM SOURCE 7 TO RECORD 6 
*SOURCE FILE: 19Y08M14
014508  19Y08M14                         A7    C        14:00:25:15 14:00:25:15 02:22:12:12 02:22:12:12 
014508  19Y08M14                         A7    D    002 13:12:05:05 13:12:05:07 02:22:12:12 02:22:12:14 
*FROM CLIP NAME:  104-105K9/02.SYNC.01 
*TO CLIP NAME:  104-105K6/02.SYNC.01 
*PATCH 19Y08M14:  FROM SOURCE 6 TO RECORD 7 
*PATCH 19Y08M14:  FROM SOURCE 6 TO RECORD 7 
*SOURCE FILE: 19Y08M14
014509  BL                               A8    C        00:00:00:00 00:00:00:00 02:22:12:12 02:22:12:12 
014509  19Y08M14                         A8    D    002 13:12:05:05 13:12:05:07 02:22:12:12 02:22:12:14 
*TO CLIP NAME:  104-105K6/02.SYNC.01 
*SOURCE FILE: (NULL)
014510  MSMMMOB.63                       V     C        13:12:05:07 13:12:08:18 02:22:12:13 02:22:15:24 
M2      MSMMMOB.63                                025.0 13:12:05:07 
*FROM CLIP NAME:  B024C003_190814_R481 
*SOURCE FILE: MSMMMOB.63
014511  19Y08M14                         A     C        13:12:05:07 13:12:08:17 02:22:12:14 02:22:15:24 
*FROM CLIP NAME:  104-105K6/02.SYNC.01 
*SOURCE FILE: 19Y08M14
014512  19Y08M14                         A2    C        13:12:05:07 13:12:08:17 02:22:12:14 02:22:15:24 
*FROM CLIP NAME:  104-105K6/02.SYNC.01 
*SOURCE FILE: 19Y08M14
014513  19Y08M14                         A3    C        13:12:05:07 13:12:08:17 02:22:12:14 02:22:15:24 
*FROM CLIP NAME:  104-105K6/02.SYNC.01 
*SOURCE FILE: 19Y08M14
014514  19Y08M14                         A4    C        13:12:05:07 13:12:08:17 02:22:12:14 02:22:15:24 
*FROM CLIP NAME:  104-105K6/02.SYNC.01 
*SOURCE FILE: 19Y08M14
014515  19Y08M14                         A5    C        13:12:05:07 13:12:08:17 02:22:12:14 02:22:15:24 
*FROM CLIP NAME:  104-105K6/02.SYNC.01 
*SOURCE FILE: 19Y08M14
014516  19Y08M14                         A6    C        13:12:05:07 13:12:08:17 02:22:12:14 02:22:15:24 
*FROM CLIP NAME:  104-105K6/02.SYNC.01 
*PATCH 19Y08M14:  FROM SOURCE 7 TO RECORD 6 
*SOURCE FILE: 19Y08M14
014517  19Y08M14                         A7    C        13:12:05:07 13:12:08:17 02:22:12:14 02:22:15:24 
*FROM CLIP NAME:  104-105K6/02.SYNC.01 
*PATCH 19Y08M14:  FROM SOURCE 6 TO RECORD 7 
*SOURCE FILE: 19Y08M14
014518  19Y08M14                         A8    C        13:12:05:07 13:12:08:17 02:22:12:14 02:22:15:24 
*FROM CLIP NAME:  104-105K6/02.SYNC.01 
*SOURCE FILE: 19Y08M14
014519  19Y08M14                         A     C        13:12:08:17 13:12:08:17 02:22:15:24 02:22:15:24 
014519  19Y08M14                         A     D    005 12:34:05:04 12:34:05:09 02:22:15:24 02:22:16:04 
*FROM CLIP NAME:  104-105K6/02.SYNC.01 
*TO CLIP NAME:  104-105K3/02.SYNC.01 
*SOURCE FILE: 19Y08M14
014520  19Y08M14                         A2    C        13:12:08:17 13:12:08:17 02:22:15:24 02:22:15:24 
014520  19Y08M14                         A2    D    005 12:34:05:04 12:34:05:09 02:22:15:24 02:22:16:04 
*FROM CLIP NAME:  104-105K6/02.SYNC.01 
*TO CLIP NAME:  104-105K3/02.SYNC.01 
*SOURCE FILE: 19Y08M14
014521  19Y08M14                         A3    C        13:12:08:17 13:12:08:17 02:22:15:24 02:22:15:24 
014521  19Y08M14                         A3    D    005 12:34:05:04 12:34:05:09 02:22:15:24 02:22:16:04 
*FROM CLIP NAME:  104-105K6/02.SYNC.01 
*TO CLIP NAME:  104-105K3/02.SYNC.01 
*SOURCE FILE: 19Y08M14
014522  19Y08M14                         A4    C        13:12:08:17 13:12:08:17 02:22:15:24 02:22:15:24 
014522  19Y08M14                         A4    D    005 12:34:05:04 12:34:05:09 02:22:15:24 02:22:16:04 
*FROM CLIP NAME:  104-105K6/02.SYNC.01 
*TO CLIP NAME:  104-105K3/02.SYNC.01 
*SOURCE FILE: 19Y08M14
014523  19Y08M14                         A5    C        13:12:08:17 13:12:08:17 02:22:15:24 02:22:15:24 
014523  19Y08M14                         A5    D    005 12:34:05:04 12:34:05:09 02:22:15:24 02:22:16:04 
*FROM CLIP NAME:  104-105K6/02.SYNC.01 
*TO CLIP NAME:  104-105K3/02.SYNC.01 
*SOURCE FILE: 19Y08M14
014524  19Y08M14                         A6    C        13:12:08:17 13:12:08:17 02:22:15:24 02:22:15:24 
014524  19Y08M14                         A6    D    005 12:34:05:04 12:34:05:09 02:22:15:24 02:22:16:04 
*FROM CLIP NAME:  104-105K6/02.SYNC.01 
*TO CLIP NAME:  104-105K3/02.SYNC.01 
*PATCH 19Y08M14:  FROM SOURCE 7 TO RECORD 6 
*PATCH 19Y08M14:  FROM SOURCE 7 TO RECORD 6 
*SOURCE FILE: 19Y08M14
014525  19Y08M14                         A7    C        13:12:08:17 13:12:08:17 02:22:15:24 02:22:15:24 
014525  19Y08M14                         A7    D    005 12:34:05:04 12:34:05:09 02:22:15:24 02:22:16:04 
*FROM CLIP NAME:  104-105K6/02.SYNC.01 
*TO CLIP NAME:  104-105K3/02.SYNC.01 
*PATCH 19Y08M14:  FROM SOURCE 6 TO RECORD 7 
*PATCH 19Y08M14:  FROM SOURCE 6 TO RECORD 7 
*SOURCE FILE: 19Y08M14
014526  19Y08M14                         A8    C        13:12:08:17 13:12:08:17 02:22:15:24 02:22:15:24 
014526  19Y08M14                         A8    D    005 12:34:05:04 12:34:05:09 02:22:15:24 02:22:16:04 
*FROM CLIP NAME:  104-105K6/02.SYNC.01 
*TO CLIP NAME:  104-105K3/02.SYNC.01 
*SOURCE FILE: 19Y08M14
014527  MSMMMOB.29                       V     C        12:34:05:04 12:34:09:06 02:22:15:24 02:22:20:01 
M2      MSMMMOB.29                                025.0 12:34:05:04 
*FROM CLIP NAME:  A076C004_190814_R32C 
*SOURCE FILE: MSMMMOB.29
014528  BL                               A16   C        00:00:00:00 00:00:00:00 02:22:16:01 02:22:16:01 
014528  BONEY_M_-_SUNNY.MP3              A16   D    505 01:03:04:20 01:03:25:00 02:22:16:01 02:22:36:06 
*TO CLIP NAME:  BONEY M - SUNNY.MP3 
*A16 VOL = -14.3 DB  PAN L100 
*PATCH BONEY_M_-_SUNNY.MP3:  FROM SOURCE 2 TO RECORD 16 
*SOURCE FILE: (NULL) 
*REPAIR:  TRANSITION DURATION TRIMMED FROM 505 FRAMES DUE TO FORMAT LIMITS
014529  BL                               A17   C        00:00:00:00 00:00:00:00 02:22:16:01 02:22:16:01 
014529  BONEY_M_-_SUNNY.MP3              A17   D    505 01:03:04:20 01:03:25:00 02:22:16:01 02:22:36:06 
*TO CLIP NAME:  BONEY M - SUNNY.MP3 
*A17 VOL = -14.3 DB  PAN R100 
*PATCH BONEY_M_-_SUNNY.MP3:  FROM SOURCE 1 TO RECORD 17 
*SOURCE FILE: (NULL) 
*REPAIR:  TRANSITION DURATION TRIMMED FROM 505 FRAMES DUE TO FORMAT LIMITS
014530  19Y08M14                         A     C        12:34:05:09 12:34:09:15 02:22:16:04 02:22:20:10 
*FROM CLIP NAME:  104-105K3/02.SYNC.01 
*SOURCE FILE: 19Y08M14
014531  19Y08M14                         A2    C        12:34:05:09 12:34:09:15 02:22:16:04 02:22:20:10 
*FROM CLIP NAME:  104-105K3/02.SYNC.01 
*SOURCE FILE: 19Y08M14
014532  19Y08M14                         A3    C        12:34:05:09 12:34:09:15 02:22:16:04 02:22:20:10 
*FROM CLIP NAME:  104-105K3/02.SYNC.01 
*SOURCE FILE: 19Y08M14
014533  19Y08M14                         A4    C        12:34:05:09 12:34:09:15 02:22:16:04 02:22:20:10 
*FROM CLIP NAME:  104-105K3/02.SYNC.01 
*SOURCE FILE: 19Y08M14
014534  19Y08M14                         A5    C        12:34:05:09 12:34:09:15 02:22:16:04 02:22:20:10 
*FROM CLIP NAME:  104-105K3/02.SYNC.01 
*SOURCE FILE: 19Y08M14
014535  19Y08M14                         A6    C        12:34:05:09 12:34:09:15 02:22:16:04 02:22:20:10 
*FROM CLIP NAME:  104-105K3/02.SYNC.01 
*PATCH 19Y08M14:  FROM SOURCE 7 TO RECORD 6 
*SOURCE FILE: 19Y08M14
014536  19Y08M14                         A7    C        12:34:05:09 12:34:09:15 02:22:16:04 02:22:20:10 
*FROM CLIP NAME:  104-105K3/02.SYNC.01 
*PATCH 19Y08M14:  FROM SOURCE 6 TO RECORD 7 
*SOURCE FILE: 19Y08M14
014537  19Y08M14                         A8    C        12:34:05:09 12:34:09:15 02:22:16:04 02:22:20:10 
*FROM CLIP NAME:  104-105K3/02.SYNC.01 
*SOURCE FILE: 19Y08M14
014538  MSMMMOB.63                       V     C        13:12:11:14 13:12:14:06 02:22:20:01 02:22:22:18 
M2      MSMMMOB.63                                025.0 13:12:11:14 
*FROM CLIP NAME:  B024C003_190814_R481 
*SOURCE FILE: MSMMMOB.63
014539  19Y08M14                         A     C        12:34:09:15 12:34:09:15 02:22:20:10 02:22:20:10 
014539  19Y08M14                         A     D    002 13:12:11:22 13:12:11:24 02:22:20:10 02:22:20:12 
*FROM CLIP NAME:  104-105K3/02.SYNC.01 
*TO CLIP NAME:  104-105K6/02.SYNC.01 
*SOURCE FILE: 19Y08M14
014540  19Y08M14                         A2    C        12:34:09:15 12:34:09:15 02:22:20:10 02:22:20:10 
014540  19Y08M14                         A2    D    002 13:12:11:22 13:12:11:24 02:22:20:10 02:22:20:12 
*FROM CLIP NAME:  104-105K3/02.SYNC.01 
*TO CLIP NAME:  104-105K6/02.SYNC.01 
*SOURCE FILE: 19Y08M14
014541  19Y08M14                         A3    C        12:34:09:15 12:34:09:15 02:22:20:10 02:22:20:10 
014541  19Y08M14                         A3    D    002 13:12:11:22 13:12:11:24 02:22:20:10 02:22:20:12 
*FROM CLIP NAME:  104-105K3/02.SYNC.01 
*TO CLIP NAME:  104-105K6/02.SYNC.01 
*SOURCE FILE: 19Y08M14
014542  19Y08M14                         A4    C        12:34:09:15 12:34:09:15 02:22:20:10 02:22:20:10 
014542  19Y08M14                         A4    D    002 13:12:11:22 13:12:11:24 02:22:20:10 02:22:20:12 
*FROM CLIP NAME:  104-105K3/02.SYNC.01 
*TO CLIP NAME:  104-105K6/02.SYNC.01 
*SOURCE FILE: 19Y08M14
014543  19Y08M14                         A5    C        12:34:09:15 12:34:09:15 02:22:20:10 02:22:20:10 
014543  19Y08M14                         A5    D    002 13:12:11:22 13:12:11:24 02:22:20:10 02:22:20:12 
*FROM CLIP NAME:  104-105K3/02.SYNC.01 
*TO CLIP NAME:  104-105K6/02.SYNC.01 
*SOURCE FILE: 19Y08M14
014544  19Y08M14                         A6    C        12:34:09:15 12:34:09:15 02:22:20:10 02:22:20:10 
014544  19Y08M14                         A6    D    002 13:12:11:22 13:12:11:24 02:22:20:10 02:22:20:12 
*FROM CLIP NAME:  104-105K3/02.SYNC.01 
*TO CLIP NAME:  104-105K6/02.SYNC.01 
*PATCH 19Y08M14:  FROM SOURCE 7 TO RECORD 6 
*PATCH 19Y08M14:  FROM SOURCE 7 TO RECORD 6 
*SOURCE FILE: 19Y08M14
014545  19Y08M14                         A7    C        12:34:09:15 12:34:09:15 02:22:20:10 02:22:20:10 
014545  19Y08M14                         A7    D    002 13:12:11:22 13:12:11:24 02:22:20:10 02:22:20:12 
*FROM CLIP NAME:  104-105K3/02.SYNC.01 
*TO CLIP NAME:  104-105K6/02.SYNC.01 
*PATCH 19Y08M14:  FROM SOURCE 6 TO RECORD 7 
*PATCH 19Y08M14:  FROM SOURCE 6 TO RECORD 7 
*SOURCE FILE: 19Y08M14
014546  19Y08M14                         A8    C        12:34:09:15 12:34:09:15 02:22:20:10 02:22:20:10 
014546  19Y08M14                         A8    D    002 13:12:11:22 13:12:11:24 02:22:20:10 02:22:20:12 
*FROM CLIP NAME:  104-105K3/02.SYNC.01 
*TO CLIP NAME:  104-105K6/02.SYNC.01 
*SOURCE FILE: 19Y08M14
014547  19Y08M14                         A     C        13:12:11:24 13:12:14:05 02:22:20:12 02:22:22:18 
*FROM CLIP NAME:  104-105K6/02.SYNC.01 
*SOURCE FILE: 19Y08M14
014548  19Y08M14                         A2    C        13:12:11:24 13:12:14:05 02:22:20:12 02:22:22:18 
*FROM CLIP NAME:  104-105K6/02.SYNC.01 
*SOURCE FILE: 19Y08M14
014549  19Y08M14                         A3    C        13:12:11:24 13:12:14:05 02:22:20:12 02:22:22:18 
*FROM CLIP NAME:  104-105K6/02.SYNC.01 
*SOURCE FILE: 19Y08M14
014550  19Y08M14                         A4    C        13:12:11:24 13:12:14:05 02:22:20:12 02:22:22:18 
*FROM CLIP NAME:  104-105K6/02.SYNC.01 
*SOURCE FILE: 19Y08M14
014551  19Y08M14                         A5    C        13:12:11:24 13:12:14:05 02:22:20:12 02:22:22:18 
*FROM CLIP NAME:  104-105K6/02.SYNC.01 
*SOURCE FILE: 19Y08M14
014552  19Y08M14                         A6    C        13:12:11:24 13:12:14:05 02:22:20:12 02:22:22:18 
*FROM CLIP NAME:  104-105K6/02.SYNC.01 
*PATCH 19Y08M14:  FROM SOURCE 7 TO RECORD 6 
*SOURCE FILE: 19Y08M14
014553  19Y08M14                         A7    C        13:12:11:24 13:12:14:05 02:22:20:12 02:22:22:18 
*FROM CLIP NAME:  104-105K6/02.SYNC.01 
*PATCH 19Y08M14:  FROM SOURCE 6 TO RECORD 7 
*SOURCE FILE: 19Y08M14
014554  19Y08M14                         A8    C        13:12:11:24 13:12:14:05 02:22:20:12 02:22:22:18 
*FROM CLIP NAME:  104-105K6/02.SYNC.01 
*SOURCE FILE: 19Y08M14
014555  MSMMMOB.23                       V     C        14:00:36:05 14:00:41:15 02:22:22:18 02:22:28:03 
M2      MSMMMOB.23                                025.0 14:00:36:05 
*FROM CLIP NAME:  A078C003_190814_R32C 
*SOURCE FILE: MSMMMOB.23
014556  19Y08M14                         A     C        14:00:36:05 14:00:41:15 02:22:22:18 02:22:28:03 
*FROM CLIP NAME:  104-105K9/02.SYNC.01 
*SOURCE FILE: 19Y08M14
014557  19Y08M14                         A2    C        14:00:36:05 14:00:41:15 02:22:22:18 02:22:28:03 
*FROM CLIP NAME:  104-105K9/02.SYNC.01 
*SOURCE FILE: 19Y08M14
014558  MSMMMOB.28                       V     C        13:07:26:16 13:07:28:16 02:22:28:03 02:22:30:03 
M2      MSMMMOB.28                                025.0 13:07:26:16 
*FROM CLIP NAME:  B024C002_190814_R481 
*SOURCE FILE: MSMMMOB.28
014559  19Y08M14                         A     C        13:37:18:13 13:37:20:13 02:22:28:03 02:22:30:03 
*FROM CLIP NAME:  104-105K7/02.SYNC.01 
*SOURCE FILE: 19Y08M14
014560  19Y08M14                         A2    C        13:37:18:13 13:37:20:13 02:22:28:03 02:22:30:03 
*FROM CLIP NAME:  104-105K7/02.SYNC.01 
*SOURCE FILE: 19Y08M14
014561  19Y08M14                         A3    C        13:37:18:13 13:37:20:13 02:22:28:03 02:22:30:03 
*FROM CLIP NAME:  104-105K7/02.SYNC.01 
*SOURCE FILE: 19Y08M14
014562  19Y08M14                         A4    C        13:37:18:13 13:37:20:13 02:22:28:03 02:22:30:03 
*FROM CLIP NAME:  104-105K7/02.SYNC.01 
*SOURCE FILE: 19Y08M14
014563  19Y08M14                         A5    C        13:37:18:13 13:37:20:13 02:22:28:03 02:22:30:03 
*FROM CLIP NAME:  104-105K7/02.SYNC.01 
*SOURCE FILE: 19Y08M14
014564  19Y08M14                         A6    C        13:37:18:13 13:37:20:13 02:22:28:03 02:22:30:03 
*FROM CLIP NAME:  104-105K7/02.SYNC.01 
*PATCH 19Y08M14:  FROM SOURCE 8 TO RECORD 6 
*SOURCE FILE: 19Y08M14
014565  19Y08M14                         A7    C        13:37:18:13 13:37:20:13 02:22:28:03 02:22:30:03 
*FROM CLIP NAME:  104-105K7/02.SYNC.01 
*PATCH 19Y08M14:  FROM SOURCE 6 TO RECORD 7 
*SOURCE FILE: 19Y08M14
014566  MSMMMOB.23                       V     C        14:00:41:15 14:00:44:19 02:22:30:03 02:22:33:07 
M2      MSMMMOB.23                                025.0 14:00:41:15 
*FROM CLIP NAME:  A078C003_190814_R32C 
*SOURCE FILE: MSMMMOB.23
014567  19Y08M14                         A     C        14:00:41:15 14:00:44:19 02:22:30:03 02:22:33:07 
*FROM CLIP NAME:  104-105K9/02.SYNC.01 
*SOURCE FILE: 19Y08M14
014568  19Y08M14                         A2    C        14:00:41:15 14:00:44:19 02:22:30:03 02:22:33:07 
*FROM CLIP NAME:  104-105K9/02.SYNC.01 
*SOURCE FILE: 19Y08M14
014569  19Y08M14                         A3    C        13:37:19:13 13:37:23:23 02:22:30:13 02:22:34:23 
*FROM CLIP NAME:  104-105K7/02.SYNC.01 
*SOURCE FILE: 19Y08M14
014570  19Y08M14                         A4    C        13:37:19:13 13:37:23:23 02:22:30:13 02:22:34:23 
*FROM CLIP NAME:  104-105K7/02.SYNC.01 
*SOURCE FILE: 19Y08M14
014571  19Y08M14                         A5    C        13:37:19:13 13:37:23:23 02:22:30:13 02:22:34:23 
*FROM CLIP NAME:  104-105K7/02.SYNC.01 
*SOURCE FILE: 19Y08M14
014572  19Y08M14                         A6    C        13:37:19:13 13:37:23:23 02:22:30:13 02:22:34:23 
*FROM CLIP NAME:  104-105K7/02.SYNC.01 
*PATCH 19Y08M14:  FROM SOURCE 8 TO RECORD 6 
*SOURCE FILE: 19Y08M14
014573  19Y08M14                         A7    C        13:37:19:13 13:37:23:23 02:22:30:13 02:22:34:23 
*FROM CLIP NAME:  104-105K7/02.SYNC.01 
*PATCH 19Y08M14:  FROM SOURCE 6 TO RECORD 7 
*SOURCE FILE: 19Y08M14
014574  MSMMMOB.01                       V     C        13:37:22:07 13:37:23:04 02:22:33:07 02:22:34:04 
M2      MSMMMOB.01                                025.0 13:37:22:07 
*FROM CLIP NAME:  A077C005_190814_R32C 
*SOURCE FILE: MSMMMOB.01
014575  19Y08M14                         A     C        13:37:22:07 13:37:23:04 02:22:33:07 02:22:34:04 
*FROM CLIP NAME:  104-105K7/02.SYNC.01 
*SOURCE FILE: 19Y08M14
014576  19Y08M14                         A2    C        13:37:22:07 13:37:23:04 02:22:33:07 02:22:34:04 
*FROM CLIP NAME:  104-105K7/02.SYNC.01 
*SOURCE FILE: 19Y08M14
014577  MSMMMOB.23                       V     C        14:00:44:19 14:00:45:13 02:22:34:04 02:22:34:23 
M2      MSMMMOB.23                                025.0 14:00:44:19 
*FROM CLIP NAME:  A078C003_190814_R32C 
*SOURCE FILE: MSMMMOB.23
014578  19Y08M14                         A     C        14:00:44:19 14:00:45:13 02:22:34:04 02:22:34:23 
*FROM CLIP NAME:  104-105K9/02.SYNC.01 
*SOURCE FILE: 19Y08M14
014579  19Y08M14                         A2    C        14:00:44:19 14:00:45:13 02:22:34:04 02:22:34:23 
*FROM CLIP NAME:  104-105K9/02.SYNC.01 
*SOURCE FILE: 19Y08M14
014580  19Y08M14                         A     C        13:07:32:20 13:07:37:01 02:22:34:23 02:22:39:04 
*FROM CLIP NAME:  104-105K6/01.SYNC.01 
*SOURCE FILE: 19Y08M14
014581  19Y08M14                         A2    C        13:07:32:20 13:07:37:01 02:22:34:23 02:22:39:04 
*FROM CLIP NAME:  104-105K6/01.SYNC.01 
*SOURCE FILE: 19Y08M14
014582  19Y08M14                         A3    C        13:07:32:20 13:07:37:01 02:22:34:23 02:22:39:04 
*FROM CLIP NAME:  104-105K6/01.SYNC.01 
*SOURCE FILE: 19Y08M14
014583  19Y08M14                         A4    C        13:07:32:20 13:07:37:01 02:22:34:23 02:22:39:04 
*FROM CLIP NAME:  104-105K6/01.SYNC.01 
*SOURCE FILE: 19Y08M14
014584  19Y08M14                         A5    C        13:07:32:20 13:07:37:01 02:22:34:23 02:22:39:04 
*FROM CLIP NAME:  104-105K6/01.SYNC.01 
*SOURCE FILE: 19Y08M14
014585  19Y08M14                         A6    C        13:07:32:20 13:07:37:01 02:22:34:23 02:22:39:04 
*FROM CLIP NAME:  104-105K6/01.SYNC.01 
*PATCH 19Y08M14:  FROM SOURCE 7 TO RECORD 6 
*SOURCE FILE: 19Y08M14
014586  19Y08M14                         A7    C        13:07:32:20 13:07:37:01 02:22:34:23 02:22:39:04 
*FROM CLIP NAME:  104-105K6/01.SYNC.01 
*PATCH 19Y08M14:  FROM SOURCE 6 TO RECORD 7 
*SOURCE FILE: 19Y08M14
014587  19Y08M14                         A8    C        13:07:32:20 13:07:37:01 02:22:34:23 02:22:39:04 
*FROM CLIP NAME:  104-105K6/01.SYNC.01 
*SOURCE FILE: 19Y08M14
014588  MSMMMOB.28                       V     C        13:07:32:21 13:07:38:14 02:22:34:23 02:22:40:16 
M2      MSMMMOB.28                                025.0 13:07:32:21 
*FROM CLIP NAME:  B024C002_190814_R481 
*SOURCE FILE: MSMMMOB.28
014589  BONEY_M_-_SUNNY.MP3              A16   C        01:03:25:00 01:03:36:14 02:22:36:06 02:22:47:20 
*FROM CLIP NAME:  BONEY M - SUNNY.MP3 
*A16 VOL = -14.3 DB  PAN L100 
*PATCH BONEY_M_-_SUNNY.MP3:  FROM SOURCE 2 TO RECORD 16 
*SOURCE FILE: BONEY M - SUNNY.MP3
014590  BONEY_M_-_SUNNY.MP3              A17   C        01:03:25:00 01:03:36:14 02:22:36:06 02:22:47:20 
*FROM CLIP NAME:  BONEY M - SUNNY.MP3 
*A17 VOL = -14.3 DB  PAN R100 
*PATCH BONEY_M_-_SUNNY.MP3:  FROM SOURCE 1 TO RECORD 17 
*SOURCE FILE: BONEY M - SUNNY.MP3
014591  19Y08M14                         A     C        12:57:32:03 12:57:34:02 02:22:39:04 02:22:41:03 
*FROM CLIP NAME:  104-105K5/01.SYNC.01 
*SOURCE FILE: 19Y08M14
014592  19Y08M14                         A2    C        12:57:32:03 12:57:34:02 02:22:39:04 02:22:41:03 
*FROM CLIP NAME:  104-105K5/01.SYNC.01 
*SOURCE FILE: 19Y08M14
014593  19Y08M14                         A3    C        12:57:32:03 12:57:34:02 02:22:39:04 02:22:41:03 
*FROM CLIP NAME:  104-105K5/01.SYNC.01 
*SOURCE FILE: 19Y08M14
014594  19Y08M14                         A4    C        12:57:32:03 12:57:34:02 02:22:39:04 02:22:41:03 
*FROM CLIP NAME:  104-105K5/01.SYNC.01 
*SOURCE FILE: 19Y08M14
014595  19Y08M14                         A5    C        12:57:32:03 12:57:34:02 02:22:39:04 02:22:41:03 
*FROM CLIP NAME:  104-105K5/01.SYNC.01 
*SOURCE FILE: 19Y08M14
014596  19Y08M14                         A6    C        12:57:32:03 12:57:34:02 02:22:39:04 02:22:41:03 
*FROM CLIP NAME:  104-105K5/01.SYNC.01 
*PATCH 19Y08M14:  FROM SOURCE 7 TO RECORD 6 
*SOURCE FILE: 19Y08M14
014597  19Y08M14                         A7    C        12:57:32:03 12:57:34:02 02:22:39:04 02:22:41:03 
*FROM CLIP NAME:  104-105K5/01.SYNC.01 
*PATCH 19Y08M14:  FROM SOURCE 6 TO RECORD 7 
*SOURCE FILE: 19Y08M14
014598  19Y08M14                         A8    C        12:57:32:03 12:57:34:02 02:22:39:04 02:22:41:03 
*FROM CLIP NAME:  104-105K5/01.SYNC.01 
*SOURCE FILE: 19Y08M14
014599  MSMMMOB.07                       V     C        12:34:19:15 12:34:27:06 02:22:40:16 02:22:48:07 
M2      MSMMMOB.07                                025.0 12:34:19:15 
*FROM CLIP NAME:  B023C004_190814_R481 
*SOURCE FILE: MSMMMOB.07
014600  19Y08M14                         A     C        12:34:20:02 12:34:27:06 02:22:41:03 02:22:48:07 
*FROM CLIP NAME:  104-105K3/02.SYNC.01 
*A1 VOL =  -9.5 DB  PAN R100 
*SOURCE FILE: 19Y08M14
014601  19Y08M14                         A2    C        12:34:20:02 12:34:27:06 02:22:41:03 02:22:48:07 
*FROM CLIP NAME:  104-105K3/02.SYNC.01 
*A2 VOL =  -9.1 DB  PAN L100 
*SOURCE FILE: 19Y08M14
014602  19Y08M14                         A3    C        12:34:20:02 12:34:27:06 02:22:41:03 02:22:48:07 
*FROM CLIP NAME:  104-105K3/02.SYNC.01 
*A3 VOL =  -9.9 DB  PAN R100 
*SOURCE FILE: 19Y08M14
014603  19Y08M14                         A4    C        12:34:20:02 12:34:27:06 02:22:41:03 02:22:48:07 
*FROM CLIP NAME:  104-105K3/02.SYNC.01 
*A4 VOL = -32.3 DB  PAN L100 
*SOURCE FILE: 19Y08M14
014604  19Y08M14                         A5    C        12:34:20:02 12:34:27:06 02:22:41:03 02:22:48:07 
*FROM CLIP NAME:  104-105K3/02.SYNC.01 
*A5 VOL = -24.4 DB  PAN R100 
*SOURCE FILE: 19Y08M14
014605  19Y08M14                         A6    C        12:34:20:02 12:34:27:06 02:22:41:03 02:22:48:07 
*FROM CLIP NAME:  104-105K3/02.SYNC.01 
*A6 VOL = -18.6 DB  PAN L100 
*SOURCE FILE: 19Y08M14
014606  19Y08M14                         A7    C        12:34:20:02 12:34:27:06 02:22:41:03 02:22:48:07 
*FROM CLIP NAME:  104-105K3/02.SYNC.01 
*A7 VOL = -13.7 DB  PAN R100 
*SOURCE FILE: 19Y08M14
014607  19Y08M14                         A8    C        12:34:20:02 12:34:27:06 02:22:41:03 02:22:48:07 
*FROM CLIP NAME:  104-105K3/02.SYNC.01 
*A8 VOL = -23.4 DB  PAN L100 
*SOURCE FILE: 19Y08M14
014608  BONEY_M_-_SUNNY.MP3              A16   C        01:03:36:14 01:03:36:14 02:22:47:20 02:22:47:20 
014608  BONEY_M_-_SUNNY.MP3              A16   D    025 01:03:36:14 01:03:37:14 02:22:47:20 02:22:48:20 
*FROM CLIP NAME:  BONEY M - SUNNY.MP3 
*TO CLIP NAME:  BONEY M - SUNNY.MP3 
*A16 VOL = -14.3 DB  PAN L100 
*A16 VOL =  -9.0 DB  PAN L100 
*PATCH BONEY_M_-_SUNNY.MP3:  FROM SOURCE 2 TO RECORD 16 
*PATCH BONEY_M_-_SUNNY.MP3:  FROM SOURCE 2 TO RECORD 16 
*SOURCE FILE: BONEY M - SUNNY.MP3
014609  BONEY_M_-_SUNNY.MP3              A17   C        01:03:36:14 01:03:36:14 02:22:47:20 02:22:47:20 
014609  BONEY_M_-_SUNNY.MP3              A17   D    025 01:03:36:14 01:03:37:14 02:22:47:20 02:22:48:20 
*FROM CLIP NAME:  BONEY M - SUNNY.MP3 
*TO CLIP NAME:  BONEY M - SUNNY.MP3 
*A17 VOL = -14.3 DB  PAN R100 
*A17 VOL =  -9.0 DB  PAN R100 
*PATCH BONEY_M_-_SUNNY.MP3:  FROM SOURCE 1 TO RECORD 17 
*PATCH BONEY_M_-_SUNNY.MP3:  FROM SOURCE 1 TO RECORD 17 
*SOURCE FILE: BONEY M - SUNNY.MP3
014610  MSMMMOB.121                      V     C        01:38:20:00 01:38:21:05 02:22:48:07 02:22:49:12 
*FROM CLIP NAME:  UNTITLED00147480 
*SOURCE FILE: MSMMMOB.121
014611  BONEY_M_-_SUNNY.MP3              A16   C        01:03:37:14 01:04:03:09 02:22:48:20 02:23:14:15 
*FROM CLIP NAME:  BONEY M - SUNNY.MP3 
*A16 VOL =  -9.0 DB  PAN L100 
*PATCH BONEY_M_-_SUNNY.MP3:  FROM SOURCE 2 TO RECORD 16 
*SOURCE FILE: BONEY M - SUNNY.MP3
014612  BONEY_M_-_SUNNY.MP3              A17   C        01:03:37:14 01:04:03:09 02:22:48:20 02:23:14:15 
*FROM CLIP NAME:  BONEY M - SUNNY.MP3 
*A17 VOL =  -9.0 DB  PAN R100 
*PATCH BONEY_M_-_SUNNY.MP3:  FROM SOURCE 1 TO RECORD 17 
*SOURCE FILE: BONEY M - SUNNY.MP3
014613  C0146                            V     C        01:37:50:06 01:37:51:07 02:22:49:12 02:22:50:13 
*FROM CLIP NAME:  C0146.NEW.01 
*SOURCE FILE: C0146
014614  MSMMMOB.23                       V     C        20:06:07:10 20:06:08:10 02:22:50:13 02:22:51:13 
M2      MSMMMOB.23                                025.0 20:06:07:10 
*FROM CLIP NAME:  M097_C036_20190720_R 
*SOURCE FILE: MSMMMOB.23
014615  C0150                            V     C        01:38:47:23 01:38:49:14 02:22:51:13 02:22:53:04 
*FROM CLIP NAME:  C0150.NEW.01 
*SOURCE FILE: C0150
014616  MSMMMOB.53                       V     C        20:31:59:15 20:32:00:15 02:22:53:04 02:22:54:04 
*FROM CLIP NAME:  M097_C041_20190720_R 
*SOURCE FILE: MSMMMOB.53
014617  MSMMMOB.23                       V     C        20:06:32:04 20:06:34:10 02:22:54:04 02:22:56:10 
*FROM CLIP NAME:  M097_C036_20190720_R 
*SOURCE FILE: MSMMMOB.23
014618  NEIZVESTEN-ZVUKI-DACHNOGO-OZERA- A13   C        01:00:06:04 01:00:06:20 02:22:55:19 02:22:56:10 
*FROM CLIP NAME:  NEIZVESTEN-ZVUKI-DACHNOGO-OZERA-VECHEROM.MP3 
*PATCH NEIZVESTEN-ZVUKI-DACHNOGO-OZERA-:  FROM SOURCE 1 TO RECORD 13 
*SOURCE FILE: NEIZVESTEN-ZVUKI-DACHNOGO-OZERA-VECHEROM.MP3
014619  NEIZVESTEN-ZVUKI-DACHNOGO-OZERA- A14   C        01:00:06:04 01:00:06:20 02:22:55:19 02:22:56:10 
*FROM CLIP NAME:  NEIZVESTEN-ZVUKI-DACHNOGO-OZERA-VECHEROM.MP3 
*PATCH NEIZVESTEN-ZVUKI-DACHNOGO-OZERA-:  FROM SOURCE 2 TO RECORD 14 
*SOURCE FILE: NEIZVESTEN-ZVUKI-DACHNOGO-OZERA-VECHEROM.MP3
014621  MSMMMOB.48                       V     C        19:35:43:20 19:35:48:08 02:22:56:10 02:23:00:23 
M2      MSMMMOB.48                                025.0 19:35:43:20 
*FROM CLIP NAME:  A105C001_190828_R3DN 
*SOURCE FILE: MSMMMOB.48
014620  GLDR-CND-080_V02                 V     C        00:00:00:00 00:00:04:13 02:22:56:10 02:23:00:23 
*FROM CLIP NAME:  GLDR-CND-080_V02 
*SOURCE FILE: GLDR-CND-080_V02
014622  19Y08M28                         A     C        18:54:45:24 18:54:50:12 02:22:56:10 02:23:00:23 
*FROM CLIP NAME:  106K1/01 
*SOURCE FILE: 19Y08M28
014623  19Y08M28                         A2    C        18:54:45:24 18:54:50:12 02:22:56:10 02:23:00:23 
*FROM CLIP NAME:  106K1/01 
*SOURCE FILE: 19Y08M28
014624  19Y08M28                         A4    C        18:54:45:24 18:54:50:12 02:22:56:10 02:23:00:23 
*FROM CLIP NAME:  106K1/01 
*SOURCE FILE: 19Y08M28
014625  19Y08M28                         A5    C        18:54:45:24 18:54:50:12 02:22:56:10 02:23:00:23 
*FROM CLIP NAME:  106K1/01 
*SOURCE FILE: 19Y08M28
014626  19Y08M28                         A6    C        18:54:45:24 18:54:50:12 02:22:56:10 02:23:00:23 
*FROM CLIP NAME:  106K1/01 
*SOURCE FILE: 19Y08M28
014627  19Y08M28                         A7    C        18:54:45:24 18:54:50:12 02:22:56:10 02:23:00:23 
*FROM CLIP NAME:  106K1/01 
*SOURCE FILE: 19Y08M28
014628  19Y08M28                         A8    C        18:54:45:24 18:54:50:12 02:22:56:10 02:23:00:23 
*FROM CLIP NAME:  106K1/01 
*SOURCE FILE: 19Y08M28
014629  NEIZVESTEN-ZVUKI-DACHNOGO-OZERA- A13   C        01:00:00:00 01:00:08:11 02:22:56:10 02:23:04:21 
*FROM CLIP NAME:  NEIZVESTEN-ZVUKI-DACHNOGO-OZERA-VECHEROM.MP3 
*PATCH NEIZVESTEN-ZVUKI-DACHNOGO-OZERA-:  FROM SOURCE 1 TO RECORD 13 
*SOURCE FILE: NEIZVESTEN-ZVUKI-DACHNOGO-OZERA-VECHEROM.MP3
014630  NEIZVESTEN-ZVUKI-DACHNOGO-OZERA- A14   C        01:00:00:00 01:00:08:11 02:22:56:10 02:23:04:21 
*FROM CLIP NAME:  NEIZVESTEN-ZVUKI-DACHNOGO-OZERA-VECHEROM.MP3 
*PATCH NEIZVESTEN-ZVUKI-DACHNOGO-OZERA-:  FROM SOURCE 2 TO RECORD 14 
*SOURCE FILE: NEIZVESTEN-ZVUKI-DACHNOGO-OZERA-VECHEROM.MP3
014631  BL                               V     C        00:00:00:00 00:00:15:21 02:22:56:10 02:23:12:06 
*SOURCE FILE: (NULL)
014632  MSMMMOB.93                       V     C        18:54:47:01 18:54:50:24 02:23:00:23 02:23:04:21 
M2      MSMMMOB.93                                025.0 18:54:47:01 
*FROM CLIP NAME:  B033C001_190828_A1Y8 
*SOURCE FILE: MSMMMOB.93
014633  BL                               V     C        00:00:00:00 00:00:03:23 02:23:00:23 02:23:04:21 
*SOURCE FILE: (NULL)
014634  19Y08M28                         A     C        18:54:47:01 18:54:50:24 02:23:00:23 02:23:04:21 
*FROM CLIP NAME:  106K1/01 
*SOURCE FILE: 19Y08M28
014635  19Y08M28                         A2    C        18:54:47:01 18:54:50:24 02:23:00:23 02:23:04:21 
*FROM CLIP NAME:  106K1/01 
*SOURCE FILE: 19Y08M28
014636  19Y08M28                         A3    C        18:54:47:01 18:54:50:24 02:23:00:23 02:23:04:21 
*FROM CLIP NAME:  106K1/01 
*SOURCE FILE: 19Y08M28
014637  19Y08M28                         A4    C        18:54:47:01 18:54:50:24 02:23:00:23 02:23:04:21 
*FROM CLIP NAME:  106K1/01 
*SOURCE FILE: 19Y08M28
014638  19Y08M28                         A5    C        18:54:47:01 18:54:50:24 02:23:00:23 02:23:04:21 
*FROM CLIP NAME:  106K1/01 
*SOURCE FILE: 19Y08M28
014639  19Y08M28                         A6    C        18:54:47:01 18:54:50:24 02:23:00:23 02:23:04:21 
*FROM CLIP NAME:  106K1/01 
*SOURCE FILE: 19Y08M28
014640  19Y08M28                         A7    C        18:54:47:01 18:54:50:24 02:23:00:23 02:23:04:21 
*FROM CLIP NAME:  106K1/01 
*SOURCE FILE: 19Y08M28
014641  19Y08M28                         A8    C        18:54:47:01 18:54:50:24 02:23:00:23 02:23:04:21 
*FROM CLIP NAME:  106K1/01 
*SOURCE FILE: 19Y08M28
014642  19Y08M28                         A     C        19:35:13:10 19:35:13:22 02:23:04:21 02:23:05:08 
*FROM CLIP NAME:  106K5/01 
*SOURCE FILE: 19Y08M28
014643  19Y08M28                         A2    C        19:35:13:10 19:35:13:22 02:23:04:21 02:23:05:08 
*FROM CLIP NAME:  106K5/01 
*SOURCE FILE: 19Y08M28
014644  19Y08M28                         A3    C        19:35:13:10 19:35:13:22 02:23:04:21 02:23:05:08 
*FROM CLIP NAME:  106K5/01 
*SOURCE FILE: 19Y08M28
014645  19Y08M28                         A4    C        19:35:13:10 19:35:13:22 02:23:04:21 02:23:05:08 
*FROM CLIP NAME:  106K5/01 
*SOURCE FILE: 19Y08M28
014646  19Y08M28                         A5    C        19:35:13:10 19:35:13:22 02:23:04:21 02:23:05:08 
*FROM CLIP NAME:  106K5/01 
*SOURCE FILE: 19Y08M28
014647  19Y08M28                         A6    C        19:35:13:10 19:35:13:22 02:23:04:21 02:23:05:08 
*FROM CLIP NAME:  106K5/01 
*SOURCE FILE: 19Y08M28
014648  19Y08M28                         A7    C        19:35:13:10 19:35:13:22 02:23:04:21 02:23:05:08 
*FROM CLIP NAME:  106K5/01 
*PATCH 19Y08M28:  FROM SOURCE 8 TO RECORD 7 
*SOURCE FILE: 19Y08M28
014650  GLDR-CND-090_V02                 V     C        00:00:00:00 00:00:07:10 02:23:04:21 02:23:12:06 
*FROM CLIP NAME:  GLDR-CND-090_V02 
*SOURCE FILE: GLDR-CND-090_V02
014649  MSMMMOB.48                       V     C        19:35:13:11 19:35:20:21 02:23:04:21 02:23:12:06 
M2      MSMMMOB.48                                025.0 19:35:13:11 
*FROM CLIP NAME:  A105C001_190828_R3DN 
*SOURCE FILE: MSMMMOB.48
014651  NEIZVESTEN-ZVUKI-DACHNOGO-OZERA- A13   C        01:00:09:22 01:00:25:13 02:23:04:21 02:23:20:12 
*FROM CLIP NAME:  NEIZVESTEN-ZVUKI-DACHNOGO-OZERA-VECHEROM.MP3 
*PATCH NEIZVESTEN-ZVUKI-DACHNOGO-OZERA-:  FROM SOURCE 1 TO RECORD 13 
*SOURCE FILE: NEIZVESTEN-ZVUKI-DACHNOGO-OZERA-VECHEROM.MP3
014652  NEIZVESTEN-ZVUKI-DACHNOGO-OZERA- A14   C        01:00:09:22 01:00:25:13 02:23:04:21 02:23:20:12 
*FROM CLIP NAME:  NEIZVESTEN-ZVUKI-DACHNOGO-OZERA-VECHEROM.MP3 
*PATCH NEIZVESTEN-ZVUKI-DACHNOGO-OZERA-:  FROM SOURCE 2 TO RECORD 14 
*SOURCE FILE: NEIZVESTEN-ZVUKI-DACHNOGO-OZERA-VECHEROM.MP3
014653  19Y08M28                         A     C        18:58:37:08 18:58:38:20 02:23:05:08 02:23:06:20 
*FROM CLIP NAME:  106K1/02 
*SOURCE FILE: 19Y08M28
014654  19Y08M28                         A2    C        18:58:37:08 18:58:38:20 02:23:05:08 02:23:06:20 
*FROM CLIP NAME:  106K1/02 
*SOURCE FILE: 19Y08M28
014655  19Y08M28                         A3    C        18:58:37:08 18:58:38:20 02:23:05:08 02:23:06:20 
*FROM CLIP NAME:  106K1/02 
*SOURCE FILE: 19Y08M28
014656  19Y08M28                         A4    C        18:58:37:08 18:58:38:20 02:23:05:08 02:23:06:20 
*FROM CLIP NAME:  106K1/02 
*SOURCE FILE: 19Y08M28
014657  19Y08M28                         A5    C        18:58:37:08 18:58:38:20 02:23:05:08 02:23:06:20 
*FROM CLIP NAME:  106K1/02 
*SOURCE FILE: 19Y08M28
014658  19Y08M28                         A6    C        18:58:37:08 18:58:38:20 02:23:05:08 02:23:06:20 
*FROM CLIP NAME:  106K1/02 
*SOURCE FILE: 19Y08M28
014659  19Y08M28                         A7    C        18:58:37:08 18:58:38:20 02:23:05:08 02:23:06:20 
*FROM CLIP NAME:  106K1/02 
*SOURCE FILE: 19Y08M28
014660  19Y08M28                         A8    C        18:58:37:08 18:58:38:20 02:23:05:08 02:23:06:20 
*FROM CLIP NAME:  106K1/02 
*SOURCE FILE: 19Y08M28
014661  19Y08M28                         A     C        19:35:15:09 19:35:15:22 02:23:06:20 02:23:07:08 
*FROM CLIP NAME:  106K5/01 
*SOURCE FILE: 19Y08M28
014662  19Y08M28                         A2    C        19:35:15:09 19:35:15:22 02:23:06:20 02:23:07:08 
*FROM CLIP NAME:  106K5/01 
*SOURCE FILE: 19Y08M28
014663  19Y08M28                         A3    C        19:35:15:09 19:35:15:22 02:23:06:20 02:23:07:08 
*FROM CLIP NAME:  106K5/01 
*SOURCE FILE: 19Y08M28
014664  19Y08M28                         A4    C        19:35:15:09 19:35:15:22 02:23:06:20 02:23:07:08 
*FROM CLIP NAME:  106K5/01 
*SOURCE FILE: 19Y08M28
014665  19Y08M28                         A5    C        19:35:15:09 19:35:15:22 02:23:06:20 02:23:07:08 
*FROM CLIP NAME:  106K5/01 
*SOURCE FILE: 19Y08M28
014666  19Y08M28                         A6    C        19:35:15:09 19:35:15:22 02:23:06:20 02:23:07:08 
*FROM CLIP NAME:  106K5/01 
*SOURCE FILE: 19Y08M28
014667  19Y08M28                         A7    C        19:35:15:09 19:35:15:22 02:23:06:20 02:23:07:08 
*FROM CLIP NAME:  106K5/01 
*PATCH 19Y08M28:  FROM SOURCE 8 TO RECORD 7 
*SOURCE FILE: 19Y08M28
014668  19Y08M28                         A     C        19:10:50:12 19:10:52:21 02:23:07:08 02:23:09:17 
*FROM CLIP NAME:  106K2/01 
*SOURCE FILE: 19Y08M28
014669  19Y08M28                         A2    C        19:10:50:12 19:10:52:21 02:23:07:08 02:23:09:17 
*FROM CLIP NAME:  106K2/01 
*SOURCE FILE: 19Y08M28
014670  19Y08M28                         A3    C        19:10:50:12 19:10:52:21 02:23:07:08 02:23:09:17 
*FROM CLIP NAME:  106K2/01 
*SOURCE FILE: 19Y08M28
014671  19Y08M28                         A4    C        19:10:50:12 19:10:52:21 02:23:07:08 02:23:09:17 
*FROM CLIP NAME:  106K2/01 
*SOURCE FILE: 19Y08M28
014672  19Y08M28                         A5    C        19:10:50:12 19:10:52:21 02:23:07:08 02:23:09:17 
*FROM CLIP NAME:  106K2/01 
*SOURCE FILE: 19Y08M28
014673  19Y08M28                         A6    C        19:10:50:12 19:10:52:21 02:23:07:08 02:23:09:17 
*FROM CLIP NAME:  106K2/01 
*SOURCE FILE: 19Y08M28
014674  19Y08M28                         A7    C        19:10:50:12 19:10:52:21 02:23:07:08 02:23:09:17 
*FROM CLIP NAME:  106K2/01 
*PATCH 19Y08M28:  FROM SOURCE 8 TO RECORD 7 
*SOURCE FILE: 19Y08M28
014675  19Y08M28                         A     C        19:10:52:21 19:10:52:21 02:23:09:17 02:23:09:17 
014675  19Y08M28                         A     D    002 19:22:14:07 19:22:14:09 02:23:09:17 02:23:09:19 
*FROM CLIP NAME:  106K2/01 
*TO CLIP NAME:  106K3/02 
*SOURCE FILE: 19Y08M28
014676  19Y08M28                         A2    C        19:10:52:21 19:10:52:21 02:23:09:17 02:23:09:17 
014676  19Y08M28                         A2    D    002 19:22:14:07 19:22:14:09 02:23:09:17 02:23:09:19 
*FROM CLIP NAME:  106K2/01 
*TO CLIP NAME:  106K3/02 
*SOURCE FILE: 19Y08M28
014677  19Y08M28                         A3    C        19:10:52:21 19:10:52:21 02:23:09:17 02:23:09:17 
014677  19Y08M28                         A3    D    002 19:22:14:07 19:22:14:09 02:23:09:17 02:23:09:19 
*FROM CLIP NAME:  106K2/01 
*TO CLIP NAME:  106K3/02 
*SOURCE FILE: 19Y08M28
014678  19Y08M28                         A4    C        19:10:52:21 19:10:52:21 02:23:09:17 02:23:09:17 
014678  19Y08M28                         A4    D    002 19:22:14:07 19:22:14:09 02:23:09:17 02:23:09:19 
*FROM CLIP NAME:  106K2/01 
*TO CLIP NAME:  106K3/02 
*SOURCE FILE: 19Y08M28
014679  19Y08M28                         A5    C        19:10:52:21 19:10:52:21 02:23:09:17 02:23:09:17 
014679  19Y08M28                         A5    D    002 19:22:14:07 19:22:14:09 02:23:09:17 02:23:09:19 
*FROM CLIP NAME:  106K2/01 
*TO CLIP NAME:  106K3/02 
*SOURCE FILE: 19Y08M28
014680  19Y08M28                         A6    C        19:10:52:21 19:10:52:21 02:23:09:17 02:23:09:17 
014680  19Y08M28                         A6    D    002 19:22:14:07 19:22:14:09 02:23:09:17 02:23:09:19 
*FROM CLIP NAME:  106K2/01 
*TO CLIP NAME:  106K3/02 
*SOURCE FILE: 19Y08M28
014681  19Y08M28                         A7    C        19:10:52:21 19:10:52:21 02:23:09:17 02:23:09:17 
014681  19Y08M28                         A7    D    002 19:22:14:07 19:22:14:09 02:23:09:17 02:23:09:19 
*FROM CLIP NAME:  106K2/01 
*TO CLIP NAME:  106K3/02 
*PATCH 19Y08M28:  FROM SOURCE 8 TO RECORD 7 
*PATCH 19Y08M28:  FROM SOURCE 8 TO RECORD 7 
*SOURCE FILE: 19Y08M28
014682  19Y08M28                         A     C        19:22:14:09 19:22:16:20 02:23:09:19 02:23:12:05 
*FROM CLIP NAME:  106K3/02 
*SOURCE FILE: 19Y08M28
014683  19Y08M28                         A2    C        19:22:14:09 19:22:16:20 02:23:09:19 02:23:12:05 
*FROM CLIP NAME:  106K3/02 
*SOURCE FILE: 19Y08M28
014684  19Y08M28                         A3    C        19:22:14:09 19:22:16:20 02:23:09:19 02:23:12:05 
*FROM CLIP NAME:  106K3/02 
*SOURCE FILE: 19Y08M28
014685  19Y08M28                         A4    C        19:22:14:09 19:22:16:20 02:23:09:19 02:23:12:05 
*FROM CLIP NAME:  106K3/02 
*SOURCE FILE: 19Y08M28
014686  19Y08M28                         A5    C        19:22:14:09 19:22:16:20 02:23:09:19 02:23:12:05 
*FROM CLIP NAME:  106K3/02 
*SOURCE FILE: 19Y08M28
014687  19Y08M28                         A6    C        19:22:14:09 19:22:16:20 02:23:09:19 02:23:12:05 
*FROM CLIP NAME:  106K3/02 
*SOURCE FILE: 19Y08M28
014688  19Y08M28                         A7    C        19:22:14:09 19:22:16:20 02:23:09:19 02:23:12:05 
*FROM CLIP NAME:  106K3/02 
*PATCH 19Y08M28:  FROM SOURCE 8 TO RECORD 7 
*SOURCE FILE: 19Y08M28
014689  19Y08M28                         A     C        19:22:16:20 19:22:16:20 02:23:12:05 02:23:12:05 
014689  19Y08M28                         A     D    002 19:10:55:03 19:10:55:05 02:23:12:05 02:23:12:07 
*FROM CLIP NAME:  106K3/02 
*TO CLIP NAME:  106K2/01 
*SOURCE FILE: 19Y08M28
014690  19Y08M28                         A2    C        19:22:16:20 19:22:16:20 02:23:12:05 02:23:12:05 
014690  19Y08M28                         A2    D    002 19:10:55:03 19:10:55:05 02:23:12:05 02:23:12:07 
*FROM CLIP NAME:  106K3/02 
*TO CLIP NAME:  106K2/01 
*SOURCE FILE: 19Y08M28
014691  19Y08M28                         A3    C        19:22:16:20 19:22:16:20 02:23:12:05 02:23:12:05 
014691  19Y08M28                         A3    D    002 19:10:55:03 19:10:55:05 02:23:12:05 02:23:12:07 
*FROM CLIP NAME:  106K3/02 
*TO CLIP NAME:  106K2/01 
*SOURCE FILE: 19Y08M28
014692  19Y08M28                         A4    C        19:22:16:20 19:22:16:20 02:23:12:05 02:23:12:05 
014692  19Y08M28                         A4    D    002 19:10:55:03 19:10:55:05 02:23:12:05 02:23:12:07 
*FROM CLIP NAME:  106K3/02 
*TO CLIP NAME:  106K2/01 
*SOURCE FILE: 19Y08M28
014693  19Y08M28                         A5    C        19:22:16:20 19:22:16:20 02:23:12:05 02:23:12:05 
014693  19Y08M28                         A5    D    002 19:10:55:03 19:10:55:05 02:23:12:05 02:23:12:07 
*FROM CLIP NAME:  106K3/02 
*TO CLIP NAME:  106K2/01 
*SOURCE FILE: 19Y08M28
014694  19Y08M28                         A6    C        19:22:16:20 19:22:16:20 02:23:12:05 02:23:12:05 
014694  19Y08M28                         A6    D    002 19:10:55:03 19:10:55:05 02:23:12:05 02:23:12:07 
*FROM CLIP NAME:  106K3/02 
*TO CLIP NAME:  106K2/01 
*SOURCE FILE: 19Y08M28
014695  19Y08M28                         A7    C        19:22:16:20 19:22:16:20 02:23:12:05 02:23:12:05 
014695  19Y08M28                         A7    D    002 19:10:55:03 19:10:55:05 02:23:12:05 02:23:12:07 
*FROM CLIP NAME:  106K3/02 
*TO CLIP NAME:  106K2/01 
*PATCH 19Y08M28:  FROM SOURCE 8 TO RECORD 7 
*PATCH 19Y08M28:  FROM SOURCE 8 TO RECORD 7 
*SOURCE FILE: 19Y08M28
014696  MSMMMOB.58                       V     C        19:10:55:05 19:10:58:07 02:23:12:06 02:23:15:08 
M2      MSMMMOB.58                                025.0 19:10:55:05 
*FROM CLIP NAME:  A104C027_190828_R3DN 
*SOURCE FILE: MSMMMOB.58
014697  BL                               V     C        00:00:00:00 00:00:06:24 02:23:12:06 02:23:19:05 
*SOURCE FILE: (NULL)
014698  BL                               V     C        00:00:00:00 00:00:07:07 02:23:12:06 02:23:19:13 
*SOURCE FILE: (NULL)
014699  19Y08M28                         A     C        19:10:55:05 19:11:01:03 02:23:12:07 02:23:18:05 
*FROM CLIP NAME:  106K2/01 
*SOURCE FILE: 19Y08M28
014700  19Y08M28                         A2    C        19:10:55:05 19:11:01:03 02:23:12:07 02:23:18:05 
*FROM CLIP NAME:  106K2/01 
*SOURCE FILE: 19Y08M28
014701  19Y08M28                         A3    C        19:10:55:05 19:11:01:03 02:23:12:07 02:23:18:05 
*FROM CLIP NAME:  106K2/01 
*SOURCE FILE: 19Y08M28
014702  19Y08M28                         A4    C        19:10:55:05 19:11:01:03 02:23:12:07 02:23:18:05 
*FROM CLIP NAME:  106K2/01 
*SOURCE FILE: 19Y08M28
014703  19Y08M28                         A5    C        19:10:55:05 19:11:01:03 02:23:12:07 02:23:18:05 
*FROM CLIP NAME:  106K2/01 
*SOURCE FILE: 19Y08M28
014704  19Y08M28                         A6    C        19:10:55:05 19:11:01:03 02:23:12:07 02:23:18:05 
*FROM CLIP NAME:  106K2/01 
*SOURCE FILE: 19Y08M28
014705  19Y08M28                         A7    C        19:10:55:05 19:11:01:03 02:23:12:07 02:23:18:05 
*FROM CLIP NAME:  106K2/01 
*PATCH 19Y08M28:  FROM SOURCE 8 TO RECORD 7 
*SOURCE FILE: 19Y08M28
014706  BONEY_M_-_SUNNY.MP3              A16   C        01:04:03:09 01:04:03:09 02:23:14:15 02:23:14:15 
014706  BL                               A16   D    012 00:00:00:00 00:00:00:12 02:23:14:15 02:23:15:02 
*FROM CLIP NAME:  BONEY M - SUNNY.MP3 
*A16 VOL =  -9.0 DB  PAN L100 
*PATCH BONEY_M_-_SUNNY.MP3:  FROM SOURCE 2 TO RECORD 16 
*SOURCE FILE: BONEY M - SUNNY.MP3
014707  BONEY_M_-_SUNNY.MP3              A17   C        01:04:03:09 01:04:03:09 02:23:14:15 02:23:14:15 
014707  BL                               A17   D    012 00:00:00:00 00:00:00:12 02:23:14:15 02:23:15:02 
*FROM CLIP NAME:  BONEY M - SUNNY.MP3 
*A17 VOL =  -9.0 DB  PAN R100 
*PATCH BONEY_M_-_SUNNY.MP3:  FROM SOURCE 1 TO RECORD 17 
*SOURCE FILE: BONEY M - SUNNY.MP3
014708  MSMMMOB.28                       V     C        19:10:58:06 19:11:01:00 02:23:15:08 02:23:18:02 
M2      MSMMMOB.28                                025.0 19:10:58:06 
*FROM CLIP NAME:  B033C003_190828_A1Y8 
*SOURCE FILE: MSMMMOB.28
014709  MSMMMOB.68                       V     C        19:27:44:07 19:27:45:18 02:23:18:02 02:23:19:13 
M2      MSMMMOB.68                                025.0 19:27:44:07 
*FROM CLIP NAME:  B033C006_190828_A1Y8 
*SOURCE FILE: MSMMMOB.68
014710  19Y08M28                         A     C        19:11:06:07 19:11:06:24 02:23:18:05 02:23:18:22 
*FROM CLIP NAME:  106K2/01 
*SOURCE FILE: 19Y08M28
014711  19Y08M28                         A2    C        19:11:06:07 19:11:06:24 02:23:18:05 02:23:18:22 
*FROM CLIP NAME:  106K2/01 
*SOURCE FILE: 19Y08M28
014712  19Y08M28                         A3    C        19:11:06:07 19:11:06:24 02:23:18:05 02:23:18:22 
*FROM CLIP NAME:  106K2/01 
*SOURCE FILE: 19Y08M28
014713  19Y08M28                         A4    C        19:11:06:07 19:11:06:24 02:23:18:05 02:23:18:22 
*FROM CLIP NAME:  106K2/01 
*SOURCE FILE: 19Y08M28
014714  19Y08M28                         A5    C        19:11:06:07 19:11:06:24 02:23:18:05 02:23:18:22 
*FROM CLIP NAME:  106K2/01 
*SOURCE FILE: 19Y08M28
014715  19Y08M28                         A6    C        19:11:06:07 19:11:06:24 02:23:18:05 02:23:18:22 
*FROM CLIP NAME:  106K2/01 
*SOURCE FILE: 19Y08M28
014716  19Y08M28                         A7    C        19:11:06:07 19:11:06:24 02:23:18:05 02:23:18:22 
*FROM CLIP NAME:  106K2/01 
*PATCH 19Y08M28:  FROM SOURCE 8 TO RECORD 7 
*SOURCE FILE: 19Y08M28
014717  19Y08M28                         A     C        19:22:22:19 19:22:28:02 02:23:18:22 02:23:24:05 
*FROM CLIP NAME:  106K3/02 
*SOURCE FILE: 19Y08M28
014718  19Y08M28                         A2    C        19:22:22:19 19:22:28:02 02:23:18:22 02:23:24:05 
*FROM CLIP NAME:  106K3/02 
*SOURCE FILE: 19Y08M28
014719  19Y08M28                         A3    C        19:22:22:19 19:22:28:02 02:23:18:22 02:23:24:05 
*FROM CLIP NAME:  106K3/02 
*SOURCE FILE: 19Y08M28
014720  19Y08M28                         A4    C        19:22:22:19 19:22:28:02 02:23:18:22 02:23:24:05 
*FROM CLIP NAME:  106K3/02 
*SOURCE FILE: 19Y08M28
014721  19Y08M28                         A5    C        19:22:22:19 19:22:28:02 02:23:18:22 02:23:24:05 
*FROM CLIP NAME:  106K3/02 
*SOURCE FILE: 19Y08M28
014722  19Y08M28                         A6    C        19:22:22:19 19:22:28:02 02:23:18:22 02:23:24:05 
*FROM CLIP NAME:  106K3/02 
*SOURCE FILE: 19Y08M28
014723  19Y08M28                         A7    C        19:22:22:19 19:22:28:02 02:23:18:22 02:23:24:05 
*FROM CLIP NAME:  106K3/02 
*PATCH 19Y08M28:  FROM SOURCE 8 TO RECORD 7 
*SOURCE FILE: 19Y08M28
014724  BL                               V     C        00:00:00:00 00:00:01:22 02:23:19:05 02:23:21:02 
*SOURCE FILE: (NULL)
014726  GLDR-CND-100_V01                 V     C        00:00:00:00 00:00:01:14 02:23:19:13 02:23:21:02 
*FROM CLIP NAME:  GLDR-CND-100_V01 
*SOURCE FILE: GLDR-CND-100_V01
014725  MSMMMOB.44                       V     C        19:34:28:13 19:34:30:02 02:23:19:13 02:23:21:02 
M2      MSMMMOB.44                                025.0 19:34:28:13 
*FROM CLIP NAME:  106-5-3 
*SOURCE FILE: MSMMMOB.44
014727  NEIZVESTEN-ZVUKI-DACHNOGO-OZERA- A13   C        01:00:27:08 01:00:46:13 02:23:20:12 02:23:39:17 
*FROM CLIP NAME:  NEIZVESTEN-ZVUKI-DACHNOGO-OZERA-VECHEROM.MP3 
*PATCH NEIZVESTEN-ZVUKI-DACHNOGO-OZERA-:  FROM SOURCE 1 TO RECORD 13 
*SOURCE FILE: NEIZVESTEN-ZVUKI-DACHNOGO-OZERA-VECHEROM.MP3
014728  NEIZVESTEN-ZVUKI-DACHNOGO-OZERA- A14   C        01:00:27:08 01:00:46:13 02:23:20:12 02:23:39:17 
*FROM CLIP NAME:  NEIZVESTEN-ZVUKI-DACHNOGO-OZERA-VECHEROM.MP3 
*PATCH NEIZVESTEN-ZVUKI-DACHNOGO-OZERA-:  FROM SOURCE 2 TO RECORD 14 
*SOURCE FILE: NEIZVESTEN-ZVUKI-DACHNOGO-OZERA-VECHEROM.MP3
014729  MSMMMOB.05                       V     C        19:22:25:00 19:22:28:02 02:23:21:02 02:23:24:04 
M2      MSMMMOB.05                                025.0 19:22:25:00 
*FROM CLIP NAME:  A104C029_190828_R3DN 
*SOURCE FILE: MSMMMOB.05
014730  BL                               V     C        00:00:00:00 00:00:10:04 02:23:21:02 02:23:31:06 
*SOURCE FILE: (NULL)
014731  BL                               V     C        00:00:00:00 00:00:10:04 02:23:21:02 02:23:31:06 
*SOURCE FILE: (NULL)
014732  MSMMMOB.58                       V     C        19:11:07:15 19:11:12:01 02:23:24:04 02:23:28:15 
M2      MSMMMOB.58                                025.0 19:11:07:15 
*FROM CLIP NAME:  A104C027_190828_R3DN 
*SOURCE FILE: MSMMMOB.58
014733  19Y08M28                         A     C        19:22:28:02 19:22:28:02 02:23:24:05 02:23:24:05 
014733  19Y08M28                         A     D    002 19:11:07:15 19:11:07:17 02:23:24:05 02:23:24:07 
*FROM CLIP NAME:  106K3/02 
*TO CLIP NAME:  106K2/01 
*SOURCE FILE: 19Y08M28
014734  19Y08M28                         A2    C        19:22:28:02 19:22:28:02 02:23:24:05 02:23:24:05 
014734  19Y08M28                         A2    D    002 19:11:07:15 19:11:07:17 02:23:24:05 02:23:24:07 
*FROM CLIP NAME:  106K3/02 
*TO CLIP NAME:  106K2/01 
*SOURCE FILE: 19Y08M28
014735  19Y08M28                         A3    C        19:22:28:02 19:22:28:02 02:23:24:05 02:23:24:05 
014735  19Y08M28                         A3    D    002 19:11:07:15 19:11:07:17 02:23:24:05 02:23:24:07 
*FROM CLIP NAME:  106K3/02 
*TO CLIP NAME:  106K2/01 
*SOURCE FILE: 19Y08M28
014736  19Y08M28                         A4    C        19:22:28:02 19:22:28:02 02:23:24:05 02:23:24:05 
014736  19Y08M28                         A4    D    002 19:11:07:15 19:11:07:17 02:23:24:05 02:23:24:07 
*FROM CLIP NAME:  106K3/02 
*TO CLIP NAME:  106K2/01 
*SOURCE FILE: 19Y08M28
014737  19Y08M28                         A5    C        19:22:28:02 19:22:28:02 02:23:24:05 02:23:24:05 
014737  19Y08M28                         A5    D    002 19:11:07:15 19:11:07:17 02:23:24:05 02:23:24:07 
*FROM CLIP NAME:  106K3/02 
*TO CLIP NAME:  106K2/01 
*SOURCE FILE: 19Y08M28
014738  19Y08M28                         A6    C        19:22:28:02 19:22:28:02 02:23:24:05 02:23:24:05 
014738  19Y08M28                         A6    D    002 19:11:07:15 19:11:07:17 02:23:24:05 02:23:24:07 
*FROM CLIP NAME:  106K3/02 
*TO CLIP NAME:  106K2/01 
*SOURCE FILE: 19Y08M28
014739  19Y08M28                         A7    C        19:22:28:02 19:22:28:02 02:23:24:05 02:23:24:05 
014739  19Y08M28                         A7    D    002 19:11:07:15 19:11:07:17 02:23:24:05 02:23:24:07 
*FROM CLIP NAME:  106K3/02 
*TO CLIP NAME:  106K2/01 
*PATCH 19Y08M28:  FROM SOURCE 8 TO RECORD 7 
*PATCH 19Y08M28:  FROM SOURCE 8 TO RECORD 7 
*SOURCE FILE: 19Y08M28
014740  19Y08M28                         A     C        19:11:07:17 19:11:15:15 02:23:24:07 02:23:32:05 
*FROM CLIP NAME:  106K2/01 
*SOURCE FILE: 19Y08M28
014741  19Y08M28                         A2    C        19:11:07:17 19:11:15:15 02:23:24:07 02:23:32:05 
*FROM CLIP NAME:  106K2/01 
*SOURCE FILE: 19Y08M28
014742  19Y08M28                         A3    C        19:11:07:17 19:11:15:15 02:23:24:07 02:23:32:05 
*FROM CLIP NAME:  106K2/01 
*SOURCE FILE: 19Y08M28
014743  19Y08M28                         A4    C        19:11:07:17 19:11:15:15 02:23:24:07 02:23:32:05 
*FROM CLIP NAME:  106K2/01 
*SOURCE FILE: 19Y08M28
014744  19Y08M28                         A5    C        19:11:07:17 19:11:15:15 02:23:24:07 02:23:32:05 
*FROM CLIP NAME:  106K2/01 
*SOURCE FILE: 19Y08M28
014745  19Y08M28                         A6    C        19:11:07:17 19:11:15:15 02:23:24:07 02:23:32:05 
*FROM CLIP NAME:  106K2/01 
*SOURCE FILE: 19Y08M28
014746  19Y08M28                         A7    C        19:11:07:17 19:11:15:15 02:23:24:07 02:23:32:05 
*FROM CLIP NAME:  106K2/01 
*PATCH 19Y08M28:  FROM SOURCE 8 TO RECORD 7 
*SOURCE FILE: 19Y08M28
014747  MSMMMOB.28                       V     C        19:11:12:00 19:11:14:16 02:23:28:15 02:23:31:06 
M2      MSMMMOB.28                                025.0 19:11:12:00 
*FROM CLIP NAME:  B033C003_190828_A1Y8 
*SOURCE FILE: MSMMMOB.28
014749  BL                               V     C        00:00:00:00 00:00:03:06 02:23:31:06 02:23:34:12 
*SOURCE FILE: (NULL)
014750  MSMMMOB.48                       V     C        19:35:40:01 19:35:43:07 02:23:31:06 02:23:34:12 
M2      MSMMMOB.48                                025.0 19:35:40:01 
*FROM CLIP NAME:  A105C001_190828_R3DN 
*SOURCE FILE: MSMMMOB.48
014748  GLDR-CND-110_V02                 V     C        00:00:00:00 00:00:03:06 02:23:31:06 02:23:34:12 
*FROM CLIP NAME:  GLDR-CND-110_V02 
*SOURCE FILE: GLDR-CND-110_V02
014751  19Y08M28                         A     C        19:11:14:04 19:11:31:07 02:23:32:05 02:23:49:08 
*FROM CLIP NAME:  106K2/01 
*SOURCE FILE: 19Y08M28
014752  19Y08M28                         A2    C        19:11:14:04 19:11:31:07 02:23:32:05 02:23:49:08 
*FROM CLIP NAME:  106K2/01 
*SOURCE FILE: 19Y08M28
014753  19Y08M28                         A3    C        19:11:14:04 19:11:31:07 02:23:32:05 02:23:49:08 
*FROM CLIP NAME:  106K2/01 
*SOURCE FILE: 19Y08M28
014754  19Y08M28                         A4    C        19:11:14:04 19:11:31:07 02:23:32:05 02:23:49:08 
*FROM CLIP NAME:  106K2/01 
*SOURCE FILE: 19Y08M28
014755  19Y08M28                         A5    C        19:11:14:04 19:11:31:07 02:23:32:05 02:23:49:08 
*FROM CLIP NAME:  106K2/01 
*SOURCE FILE: 19Y08M28
014756  19Y08M28                         A6    C        19:11:14:04 19:11:31:07 02:23:32:05 02:23:49:08 
*FROM CLIP NAME:  106K2/01 
*SOURCE FILE: 19Y08M28
014757  19Y08M28                         A7    C        19:11:14:04 19:11:31:07 02:23:32:05 02:23:49:08 
*FROM CLIP NAME:  106K2/01 
*PATCH 19Y08M28:  FROM SOURCE 8 TO RECORD 7 
*SOURCE FILE: 19Y08M28
014758  MSMMMOB.28                       V     C        19:11:16:11 19:11:28:07 02:23:34:12 02:23:46:08 
M2      MSMMMOB.28                                025.0 19:11:16:11 
*FROM CLIP NAME:  B033C003_190828_A1Y8 
*SOURCE FILE: MSMMMOB.28
014759  BL                               V     C        00:00:00:00 00:00:40:22 02:23:34:12 02:24:15:09 
*SOURCE FILE: (NULL)
014760  BL                               V     C        00:00:00:00 00:00:42:12 02:23:34:12 02:24:16:24 
*SOURCE FILE: (NULL)
014761  NEIZVESTEN-ZVUKI-DACHNOGO-OZERA- A13   C        01:00:20:04 01:00:24:09 02:23:39:17 02:23:43:22 
*FROM CLIP NAME:  NEIZVESTEN-ZVUKI-DACHNOGO-OZERA-VECHEROM.MP3 
*PATCH NEIZVESTEN-ZVUKI-DACHNOGO-OZERA-:  FROM SOURCE 1 TO RECORD 13 
*SOURCE FILE: NEIZVESTEN-ZVUKI-DACHNOGO-OZERA-VECHEROM.MP3
014762  NEIZVESTEN-ZVUKI-DACHNOGO-OZERA- A14   C        01:00:20:04 01:00:24:09 02:23:39:17 02:23:43:22 
*FROM CLIP NAME:  NEIZVESTEN-ZVUKI-DACHNOGO-OZERA-VECHEROM.MP3 
*PATCH NEIZVESTEN-ZVUKI-DACHNOGO-OZERA-:  FROM SOURCE 2 TO RECORD 14 
*SOURCE FILE: NEIZVESTEN-ZVUKI-DACHNOGO-OZERA-VECHEROM.MP3
014763  NEIZVESTEN-ZVUKI-DACHNOGO-OZERA- A13   C        01:00:50:18 01:01:04:04 02:23:43:22 02:23:57:08 
*FROM CLIP NAME:  NEIZVESTEN-ZVUKI-DACHNOGO-OZERA-VECHEROM.MP3 
*PATCH NEIZVESTEN-ZVUKI-DACHNOGO-OZERA-:  FROM SOURCE 1 TO RECORD 13 
*SOURCE FILE: NEIZVESTEN-ZVUKI-DACHNOGO-OZERA-VECHEROM.MP3
014764  NEIZVESTEN-ZVUKI-DACHNOGO-OZERA- A14   C        01:00:50:18 01:01:04:04 02:23:43:22 02:23:57:08 
*FROM CLIP NAME:  NEIZVESTEN-ZVUKI-DACHNOGO-OZERA-VECHEROM.MP3 
*PATCH NEIZVESTEN-ZVUKI-DACHNOGO-OZERA-:  FROM SOURCE 2 TO RECORD 14 
*SOURCE FILE: NEIZVESTEN-ZVUKI-DACHNOGO-OZERA-VECHEROM.MP3
014765  MSMMMOB.58                       V     C        19:11:28:08 19:11:31:08 02:23:46:08 02:23:49:08 
M2      MSMMMOB.58                                025.0 19:11:28:08 
*FROM CLIP NAME:  A104C027_190828_R3DN 
*SOURCE FILE: MSMMMOB.58
014766  MSMMMOB.05                       V     C        19:22:48:08 19:22:54:13 02:23:49:08 02:23:55:13 
M2      MSMMMOB.05                                025.0 19:22:48:08 
*FROM CLIP NAME:  A104C029_190828_R3DN 
*SOURCE FILE: MSMMMOB.05
014767  19Y08M28                         A     C        19:22:48:07 19:22:54:12 02:23:49:08 02:23:55:13 
*FROM CLIP NAME:  106K3/02 
*SOURCE FILE: 19Y08M28
014768  19Y08M28                         A2    C        19:22:48:07 19:22:54:12 02:23:49:08 02:23:55:13 
*FROM CLIP NAME:  106K3/02 
*SOURCE FILE: 19Y08M28
014769  19Y08M28                         A3    C        19:22:48:07 19:22:54:12 02:23:49:08 02:23:55:13 
*FROM CLIP NAME:  106K3/02 
*SOURCE FILE: 19Y08M28
014770  19Y08M28                         A4    C        19:22:48:07 19:22:54:12 02:23:49:08 02:23:55:13 
*FROM CLIP NAME:  106K3/02 
*SOURCE FILE: 19Y08M28
014771  19Y08M28                         A5    C        19:22:48:07 19:22:54:12 02:23:49:08 02:23:55:13 
*FROM CLIP NAME:  106K3/02 
*SOURCE FILE: 19Y08M28
014772  19Y08M28                         A6    C        19:22:48:07 19:22:54:12 02:23:49:08 02:23:55:13 
*FROM CLIP NAME:  106K3/02 
*SOURCE FILE: 19Y08M28
014773  19Y08M28                         A7    C        19:22:48:07 19:22:54:12 02:23:49:08 02:23:55:13 
*FROM CLIP NAME:  106K3/02 
*PATCH 19Y08M28:  FROM SOURCE 8 TO RECORD 7 
*SOURCE FILE: 19Y08M28
014774  MSMMMOB.58                       V     C        19:11:37:06 19:11:39:01 02:23:55:13 02:23:57:08 
M2      MSMMMOB.58                                025.0 19:11:37:06 
*FROM CLIP NAME:  A104C027_190828_R3DN 
*SOURCE FILE: MSMMMOB.58
014775  19Y08M28                         A     C        19:11:37:05 19:11:39:00 02:23:55:13 02:23:57:08 
*FROM CLIP NAME:  106K2/01 
*SOURCE FILE: 19Y08M28
014776  19Y08M28                         A2    C        19:11:37:05 19:11:39:00 02:23:55:13 02:23:57:08 
*FROM CLIP NAME:  106K2/01 
*SOURCE FILE: 19Y08M28
014777  19Y08M28                         A3    C        19:11:37:05 19:11:39:00 02:23:55:13 02:23:57:08 
*FROM CLIP NAME:  106K2/01 
*SOURCE FILE: 19Y08M28
014778  19Y08M28                         A4    C        19:11:37:05 19:11:39:00 02:23:55:13 02:23:57:08 
*FROM CLIP NAME:  106K2/01 
*SOURCE FILE: 19Y08M28
014779  19Y08M28                         A5    C        19:11:37:05 19:11:39:00 02:23:55:13 02:23:57:08 
*FROM CLIP NAME:  106K2/01 
*SOURCE FILE: 19Y08M28
014780  19Y08M28                         A6    C        19:11:37:05 19:11:39:00 02:23:55:13 02:23:57:08 
*FROM CLIP NAME:  106K2/01 
*SOURCE FILE: 19Y08M28
014781  19Y08M28                         A7    C        19:11:37:05 19:11:39:00 02:23:55:13 02:23:57:08 
*FROM CLIP NAME:  106K2/01 
*PATCH 19Y08M28:  FROM SOURCE 8 TO RECORD 7 
*SOURCE FILE: 19Y08M28
014782  MSMMMOB.26                       V     C        19:22:55:15 19:23:00:05 02:23:57:08 02:24:01:23 
M2      MSMMMOB.26                                025.0 19:22:55:15 
*FROM CLIP NAME:  B033C005_190828_A1Y8 
*SOURCE FILE: MSMMMOB.26
014783  19Y08M28                         A     C        19:22:55:15 19:23:00:06 02:23:57:08 02:24:01:24 
*FROM CLIP NAME:  106K3/02 
*SOURCE FILE: 19Y08M28
014784  19Y08M28                         A2    C        19:22:55:15 19:23:00:06 02:23:57:08 02:24:01:24 
*FROM CLIP NAME:  106K3/02 
*SOURCE FILE: 19Y08M28
014785  19Y08M28                         A3    C        19:22:55:15 19:23:00:06 02:23:57:08 02:24:01:24 
*FROM CLIP NAME:  106K3/02 
*SOURCE FILE: 19Y08M28
014786  19Y08M28                         A4    C        19:22:55:15 19:23:00:06 02:23:57:08 02:24:01:24 
*FROM CLIP NAME:  106K3/02 
*SOURCE FILE: 19Y08M28
014787  19Y08M28                         A5    C        19:22:55:15 19:23:00:06 02:23:57:08 02:24:01:24 
*FROM CLIP NAME:  106K3/02 
*SOURCE FILE: 19Y08M28
014788  19Y08M28                         A6    C        19:22:55:15 19:23:00:06 02:23:57:08 02:24:01:24 
*FROM CLIP NAME:  106K3/02 
*SOURCE FILE: 19Y08M28
014789  19Y08M28                         A7    C        19:22:55:15 19:23:00:06 02:23:57:08 02:24:01:24 
*FROM CLIP NAME:  106K3/02 
*PATCH 19Y08M28:  FROM SOURCE 8 TO RECORD 7 
*SOURCE FILE: 19Y08M28
014790  NEIZVESTEN-ZVUKI-DACHNOGO-OZERA- A13   C        01:01:04:23 01:01:27:17 02:23:57:08 02:24:20:02 
*FROM CLIP NAME:  NEIZVESTEN-ZVUKI-DACHNOGO-OZERA-VECHEROM.MP3 
*PATCH NEIZVESTEN-ZVUKI-DACHNOGO-OZERA-:  FROM SOURCE 1 TO RECORD 13 
*SOURCE FILE: NEIZVESTEN-ZVUKI-DACHNOGO-OZERA-VECHEROM.MP3
014791  NEIZVESTEN-ZVUKI-DACHNOGO-OZERA- A14   C        01:01:04:23 01:01:27:17 02:23:57:08 02:24:20:02 
*FROM CLIP NAME:  NEIZVESTEN-ZVUKI-DACHNOGO-OZERA-VECHEROM.MP3 
*PATCH NEIZVESTEN-ZVUKI-DACHNOGO-OZERA-:  FROM SOURCE 2 TO RECORD 14 
*SOURCE FILE: NEIZVESTEN-ZVUKI-DACHNOGO-OZERA-VECHEROM.MP3
014792  CINEMASCOPE_2-35-1_CROPLINES.PNG V     C        01:01:56:09 01:03:28:09 02:23:57:08 02:25:29:08 
*FROM CLIP NAME:  CINEMASCOPE 2-35-1 CROPLINES.PNG 
*SOURCE FILE: CINEMASCOPE 2-35-1 CROPLINES.PNG
014793  MSMMMOB.58                       V     C        19:11:41:24 19:11:43:18 02:24:01:23 02:24:03:17 
M2      MSMMMOB.58                                025.0 19:11:41:24 
*FROM CLIP NAME:  A104C027_190828_R3DN 
*SOURCE FILE: MSMMMOB.58
014794  19Y08M28                         A     C        19:23:00:06 19:23:00:06 02:24:01:24 02:24:01:24 
014794  19Y08M28                         A     D    002 19:11:41:24 19:11:42:01 02:24:01:24 02:24:02:01 
*FROM CLIP NAME:  106K3/02 
*TO CLIP NAME:  106K2/01 
*SOURCE FILE: 19Y08M28
014795  19Y08M28                         A2    C        19:23:00:06 19:23:00:06 02:24:01:24 02:24:01:24 
014795  19Y08M28                         A2    D    002 19:11:41:24 19:11:42:01 02:24:01:24 02:24:02:01 
*FROM CLIP NAME:  106K3/02 
*TO CLIP NAME:  106K2/01 
*SOURCE FILE: 19Y08M28
014796  19Y08M28                         A3    C        19:23:00:06 19:23:00:06 02:24:01:24 02:24:01:24 
014796  19Y08M28                         A3    D    002 19:11:41:24 19:11:42:01 02:24:01:24 02:24:02:01 
*FROM CLIP NAME:  106K3/02 
*TO CLIP NAME:  106K2/01 
*SOURCE FILE: 19Y08M28
014797  19Y08M28                         A4    C        19:23:00:06 19:23:00:06 02:24:01:24 02:24:01:24 
014797  19Y08M28                         A4    D    002 19:11:41:24 19:11:42:01 02:24:01:24 02:24:02:01 
*FROM CLIP NAME:  106K3/02 
*TO CLIP NAME:  106K2/01 
*SOURCE FILE: 19Y08M28
014798  19Y08M28                         A5    C        19:23:00:06 19:23:00:06 02:24:01:24 02:24:01:24 
014798  19Y08M28                         A5    D    002 19:11:41:24 19:11:42:01 02:24:01:24 02:24:02:01 
*FROM CLIP NAME:  106K3/02 
*TO CLIP NAME:  106K2/01 
*SOURCE FILE: 19Y08M28
014799  19Y08M28                         A6    C        19:23:00:06 19:23:00:06 02:24:01:24 02:24:01:24 
014799  19Y08M28                         A6    D    002 19:11:41:24 19:11:42:01 02:24:01:24 02:24:02:01 
*FROM CLIP NAME:  106K3/02 
*TO CLIP NAME:  106K2/01 
*SOURCE FILE: 19Y08M28
014800  19Y08M28                         A7    C        19:23:00:06 19:23:00:06 02:24:01:24 02:24:01:24 
014800  19Y08M28                         A7    D    002 19:11:41:24 19:11:42:01 02:24:01:24 02:24:02:01 
*FROM CLIP NAME:  106K3/02 
*TO CLIP NAME:  106K2/01 
*PATCH 19Y08M28:  FROM SOURCE 8 TO RECORD 7 
*PATCH 19Y08M28:  FROM SOURCE 8 TO RECORD 7 
*SOURCE FILE: 19Y08M28
014801  19Y08M28                         A     C        19:11:42:01 19:11:43:17 02:24:02:01 02:24:03:17 
*FROM CLIP NAME:  106K2/01 
*SOURCE FILE: 19Y08M28
014802  19Y08M28                         A2    C        19:11:42:01 19:11:43:17 02:24:02:01 02:24:03:17 
*FROM CLIP NAME:  106K2/01 
*SOURCE FILE: 19Y08M28
014803  19Y08M28                         A3    C        19:11:42:01 19:11:43:17 02:24:02:01 02:24:03:17 
*FROM CLIP NAME:  106K2/01 
*SOURCE FILE: 19Y08M28
014804  19Y08M28                         A4    C        19:11:42:01 19:11:43:17 02:24:02:01 02:24:03:17 
*FROM CLIP NAME:  106K2/01 
*SOURCE FILE: 19Y08M28
014805  19Y08M28                         A5    C        19:11:42:01 19:11:43:17 02:24:02:01 02:24:03:17 
*FROM CLIP NAME:  106K2/01 
*SOURCE FILE: 19Y08M28
014806  19Y08M28                         A6    C        19:11:42:01 19:11:43:17 02:24:02:01 02:24:03:17 
*FROM CLIP NAME:  106K2/01 
*SOURCE FILE: 19Y08M28
014807  19Y08M28                         A7    C        19:11:42:01 19:11:43:17 02:24:02:01 02:24:03:17 
*FROM CLIP NAME:  106K2/01 
*PATCH 19Y08M28:  FROM SOURCE 8 TO RECORD 7 
*SOURCE FILE: 19Y08M28
014808  MSMMMOB.68                       V     C        19:28:05:21 19:28:08:02 02:24:03:17 02:24:05:23 
M2      MSMMMOB.68                                025.0 19:28:05:21 
*FROM CLIP NAME:  B033C006_190828_A1Y8 
*SOURCE FILE: MSMMMOB.68
014809  19Y08M28                         A     C        19:28:05:21 19:28:08:02 02:24:03:17 02:24:05:23 
*FROM CLIP NAME:  106K4/01 
*SOURCE FILE: 19Y08M28
014810  19Y08M28                         A2    C        19:28:05:21 19:28:08:02 02:24:03:17 02:24:05:23 
*FROM CLIP NAME:  106K4/01 
*SOURCE FILE: 19Y08M28
014811  19Y08M28                         A3    C        19:28:05:21 19:28:08:02 02:24:03:17 02:24:05:23 
*FROM CLIP NAME:  106K4/01 
*SOURCE FILE: 19Y08M28
014812  19Y08M28                         A4    C        19:28:05:21 19:28:08:02 02:24:03:17 02:24:05:23 
*FROM CLIP NAME:  106K4/01 
*SOURCE FILE: 19Y08M28
014813  19Y08M28                         A5    C        19:28:05:21 19:28:08:02 02:24:03:17 02:24:05:23 
*FROM CLIP NAME:  106K4/01 
*SOURCE FILE: 19Y08M28
014814  19Y08M28                         A6    C        19:28:05:21 19:28:08:02 02:24:03:17 02:24:05:23 
*FROM CLIP NAME:  106K4/01 
*SOURCE FILE: 19Y08M28
014815  19Y08M28                         A7    C        19:28:05:21 19:28:08:02 02:24:03:17 02:24:05:23 
*FROM CLIP NAME:  106K4/01 
*PATCH 19Y08M28:  FROM SOURCE 8 TO RECORD 7 
*SOURCE FILE: 19Y08M28
014816  19Y08M28                         A     C        19:28:09:03 19:28:11:17 02:24:05:23 02:24:08:12 
*FROM CLIP NAME:  106K4/01 
*SOURCE FILE: 19Y08M28
014817  19Y08M28                         A2    C        19:28:09:03 19:28:11:17 02:24:05:23 02:24:08:12 
*FROM CLIP NAME:  106K4/01 
*SOURCE FILE: 19Y08M28
014818  19Y08M28                         A3    C        19:28:09:03 19:28:11:17 02:24:05:23 02:24:08:12 
*FROM CLIP NAME:  106K4/01 
*SOURCE FILE: 19Y08M28
014819  19Y08M28                         A4    C        19:28:09:03 19:28:11:17 02:24:05:23 02:24:08:12 
*FROM CLIP NAME:  106K4/01 
*SOURCE FILE: 19Y08M28
014820  19Y08M28                         A5    C        19:28:09:03 19:28:11:17 02:24:05:23 02:24:08:12 
*FROM CLIP NAME:  106K4/01 
*SOURCE FILE: 19Y08M28
014821  19Y08M28                         A6    C        19:28:09:03 19:28:11:17 02:24:05:23 02:24:08:12 
*FROM CLIP NAME:  106K4/01 
*SOURCE FILE: 19Y08M28
014822  19Y08M28                         A7    C        19:28:09:03 19:28:11:17 02:24:05:23 02:24:08:12 
*FROM CLIP NAME:  106K4/01 
*PATCH 19Y08M28:  FROM SOURCE 8 TO RECORD 7 
*SOURCE FILE: 19Y08M28
014823  MSMMMOB.10                       V     C        19:28:09:04 19:28:11:19 02:24:05:23 02:24:08:13 
M2      MSMMMOB.10                                025.0 19:28:09:04 
*FROM CLIP NAME:  A104C030_190828_R3DN 
*SOURCE FILE: MSMMMOB.10
014824  19Y08M28                         A     C        19:28:11:17 19:28:11:17 02:24:08:12 02:24:08:12 
014824  19Y08M28                         A     D    002 19:11:48:24 19:11:49:01 02:24:08:12 02:24:08:14 
*FROM CLIP NAME:  106K4/01 
*TO CLIP NAME:  106K2/01 
*SOURCE FILE: 19Y08M28
014825  19Y08M28                         A2    C        19:28:11:17 19:28:11:17 02:24:08:12 02:24:08:12 
014825  19Y08M28                         A2    D    002 19:11:48:24 19:11:49:01 02:24:08:12 02:24:08:14 
*FROM CLIP NAME:  106K4/01 
*TO CLIP NAME:  106K2/01 
*SOURCE FILE: 19Y08M28
014826  19Y08M28                         A3    C        19:28:11:17 19:28:11:17 02:24:08:12 02:24:08:12 
014826  19Y08M28                         A3    D    002 19:11:48:24 19:11:49:01 02:24:08:12 02:24:08:14 
*FROM CLIP NAME:  106K4/01 
*TO CLIP NAME:  106K2/01 
*SOURCE FILE: 19Y08M28
014827  19Y08M28                         A4    C        19:28:11:17 19:28:11:17 02:24:08:12 02:24:08:12 
014827  19Y08M28                         A4    D    002 19:11:48:24 19:11:49:01 02:24:08:12 02:24:08:14 
*FROM CLIP NAME:  106K4/01 
*TO CLIP NAME:  106K2/01 
*SOURCE FILE: 19Y08M28
014828  19Y08M28                         A5    C        19:28:11:17 19:28:11:17 02:24:08:12 02:24:08:12 
014828  19Y08M28                         A5    D    002 19:11:48:24 19:11:49:01 02:24:08:12 02:24:08:14 
*FROM CLIP NAME:  106K4/01 
*TO CLIP NAME:  106K2/01 
*SOURCE FILE: 19Y08M28
014829  19Y08M28                         A6    C        19:28:11:17 19:28:11:17 02:24:08:12 02:24:08:12 
014829  19Y08M28                         A6    D    002 19:11:48:24 19:11:49:01 02:24:08:12 02:24:08:14 
*FROM CLIP NAME:  106K4/01 
*TO CLIP NAME:  106K2/01 
*SOURCE FILE: 19Y08M28
014830  19Y08M28                         A7    C        19:28:11:17 19:28:11:17 02:24:08:12 02:24:08:12 
014830  19Y08M28                         A7    D    002 19:11:48:24 19:11:49:01 02:24:08:12 02:24:08:14 
*FROM CLIP NAME:  106K4/01 
*TO CLIP NAME:  106K2/01 
*PATCH 19Y08M28:  FROM SOURCE 8 TO RECORD 7 
*PATCH 19Y08M28:  FROM SOURCE 8 TO RECORD 7 
*SOURCE FILE: 19Y08M28
014831  MSMMMOB.28                       V     C        19:11:49:00 19:11:51:15 02:24:08:13 02:24:11:03 
M2      MSMMMOB.28                                025.0 19:11:49:00 
*FROM CLIP NAME:  B033C003_190828_A1Y8 
*SOURCE FILE: MSMMMOB.28
014832  19Y08M28                         A     C        19:11:49:01 19:11:51:14 02:24:08:14 02:24:11:02 
*FROM CLIP NAME:  106K2/01 
*SOURCE FILE: 19Y08M28
014833  19Y08M28                         A2    C        19:11:49:01 19:11:51:14 02:24:08:14 02:24:11:02 
*FROM CLIP NAME:  106K2/01 
*SOURCE FILE: 19Y08M28
014834  19Y08M28                         A3    C        19:11:49:01 19:11:51:14 02:24:08:14 02:24:11:02 
*FROM CLIP NAME:  106K2/01 
*SOURCE FILE: 19Y08M28
014835  19Y08M28                         A4    C        19:11:49:01 19:11:51:14 02:24:08:14 02:24:11:02 
*FROM CLIP NAME:  106K2/01 
*SOURCE FILE: 19Y08M28
014836  19Y08M28                         A5    C        19:11:49:01 19:11:51:14 02:24:08:14 02:24:11:02 
*FROM CLIP NAME:  106K2/01 
*SOURCE FILE: 19Y08M28
014837  19Y08M28                         A6    C        19:11:49:01 19:11:51:14 02:24:08:14 02:24:11:02 
*FROM CLIP NAME:  106K2/01 
*SOURCE FILE: 19Y08M28
014838  19Y08M28                         A7    C        19:11:49:01 19:11:51:14 02:24:08:14 02:24:11:02 
*FROM CLIP NAME:  106K2/01 
*PATCH 19Y08M28:  FROM SOURCE 8 TO RECORD 7 
*SOURCE FILE: 19Y08M28
014839  19Y08M28                         A     C        19:11:51:14 19:11:51:14 02:24:11:02 02:24:11:02 
014839  19Y08M28                         A     D    002 19:28:13:20 19:28:13:22 02:24:11:02 02:24:11:04 
*FROM CLIP NAME:  106K2/01 
*TO CLIP NAME:  106K4/01 
*SOURCE FILE: 19Y08M28
014840  19Y08M28                         A2    C        19:11:51:14 19:11:51:14 02:24:11:02 02:24:11:02 
014840  19Y08M28                         A2    D    002 19:28:13:20 19:28:13:22 02:24:11:02 02:24:11:04 
*FROM CLIP NAME:  106K2/01 
*TO CLIP NAME:  106K4/01 
*SOURCE FILE: 19Y08M28
014841  19Y08M28                         A3    C        19:11:51:14 19:11:51:14 02:24:11:02 02:24:11:02 
014841  19Y08M28                         A3    D    002 19:28:13:20 19:28:13:22 02:24:11:02 02:24:11:04 
*FROM CLIP NAME:  106K2/01 
*TO CLIP NAME:  106K4/01 
*SOURCE FILE: 19Y08M28
014842  19Y08M28                         A4    C        19:11:51:14 19:11:51:14 02:24:11:02 02:24:11:02 
014842  19Y08M28                         A4    D    002 19:28:13:20 19:28:13:22 02:24:11:02 02:24:11:04 
*FROM CLIP NAME:  106K2/01 
*TO CLIP NAME:  106K4/01 
*SOURCE FILE: 19Y08M28
014843  19Y08M28                         A5    C        19:11:51:14 19:11:51:14 02:24:11:02 02:24:11:02 
014843  19Y08M28                         A5    D    002 19:28:13:20 19:28:13:22 02:24:11:02 02:24:11:04 
*FROM CLIP NAME:  106K2/01 
*TO CLIP NAME:  106K4/01 
*SOURCE FILE: 19Y08M28
014844  19Y08M28                         A6    C        19:11:51:14 19:11:51:14 02:24:11:02 02:24:11:02 
014844  19Y08M28                         A6    D    002 19:28:13:20 19:28:13:22 02:24:11:02 02:24:11:04 
*FROM CLIP NAME:  106K2/01 
*TO CLIP NAME:  106K4/01 
*SOURCE FILE: 19Y08M28
014845  19Y08M28                         A7    C        19:11:51:14 19:11:51:14 02:24:11:02 02:24:11:02 
014845  19Y08M28                         A7    D    002 19:28:13:20 19:28:13:22 02:24:11:02 02:24:11:04 
*FROM CLIP NAME:  106K2/01 
*TO CLIP NAME:  106K4/01 
*PATCH 19Y08M28:  FROM SOURCE 8 TO RECORD 7 
*PATCH 19Y08M28:  FROM SOURCE 8 TO RECORD 7 
*SOURCE FILE: 19Y08M28
014846  MSMMMOB.26                       V     C        19:23:07:04 19:23:11:10 02:24:11:03 02:24:15:09 
M2      MSMMMOB.26                                025.0 19:23:07:04 
*FROM CLIP NAME:  B033C005_190828_A1Y8 
*SOURCE FILE: MSMMMOB.26
014847  19Y08M28                         A     C        19:28:13:22 19:28:14:15 02:24:11:04 02:24:11:22 
*FROM CLIP NAME:  106K4/01 
*SOURCE FILE: 19Y08M28
014848  19Y08M28                         A2    C        19:28:13:22 19:28:14:15 02:24:11:04 02:24:11:22 
*FROM CLIP NAME:  106K4/01 
*SOURCE FILE: 19Y08M28
014849  19Y08M28                         A3    C        19:28:13:22 19:28:14:15 02:24:11:04 02:24:11:22 
*FROM CLIP NAME:  106K4/01 
*SOURCE FILE: 19Y08M28
014850  19Y08M28                         A4    C        19:28:13:22 19:28:14:15 02:24:11:04 02:24:11:22 
*FROM CLIP NAME:  106K4/01 
*SOURCE FILE: 19Y08M28
014851  19Y08M28                         A5    C        19:28:13:22 19:28:14:15 02:24:11:04 02:24:11:22 
*FROM CLIP NAME:  106K4/01 
*SOURCE FILE: 19Y08M28
014852  19Y08M28                         A6    C        19:28:13:22 19:28:14:15 02:24:11:04 02:24:11:22 
*FROM CLIP NAME:  106K4/01 
*SOURCE FILE: 19Y08M28
014853  19Y08M28                         A7    C        19:28:13:22 19:28:14:15 02:24:11:04 02:24:11:22 
*FROM CLIP NAME:  106K4/01 
*PATCH 19Y08M28:  FROM SOURCE 8 TO RECORD 7 
*SOURCE FILE: 19Y08M28
014854  BL                               A15   C        00:00:00:00 00:00:00:00 02:24:11:19 02:24:11:19 
014854  KROSHKA_MOYA.MP3                 A15   D    448 01:00:42:03 01:01:00:01 02:24:11:19 02:24:29:17 
*TO CLIP NAME:  KROSHKA MOYA.MP3 
*A15 VOL = -15.0 DB  PAN R100 
*PATCH KROSHKA_MOYA.MP3:  FROM SOURCE 1 TO RECORD 15 
*SOURCE FILE: (NULL) 
*REPAIR:  TRANSITION DURATION TRIMMED FROM 448 FRAMES DUE TO FORMAT LIMITS
014855  BL                               A16   C        00:00:00:00 00:00:00:00 02:24:11:19 02:24:11:19 
014855  KROSHKA_MOYA.MP3                 A16   D    448 01:00:42:03 01:01:00:01 02:24:11:19 02:24:29:17 
*TO CLIP NAME:  KROSHKA MOYA.MP3 
*A16 VOL = -15.0 DB  PAN L100 
*PATCH KROSHKA_MOYA.MP3:  FROM SOURCE 2 TO RECORD 16 
*SOURCE FILE: (NULL) 
*REPAIR:  TRANSITION DURATION TRIMMED FROM 448 FRAMES DUE TO FORMAT LIMITS
014856  19Y08M28                         A     C        19:28:14:15 19:28:14:15 02:24:11:22 02:24:11:22 
014856  19Y08M28                         A     D    002 19:23:07:23 19:23:08:00 02:24:11:22 02:24:11:24 
*FROM CLIP NAME:  106K4/01 
*TO CLIP NAME:  106K3/02 
*SOURCE FILE: 19Y08M28
014857  19Y08M28                         A2    C        19:28:14:15 19:28:14:15 02:24:11:22 02:24:11:22 
014857  19Y08M28                         A2    D    002 19:23:07:23 19:23:08:00 02:24:11:22 02:24:11:24 
*FROM CLIP NAME:  106K4/01 
*TO CLIP NAME:  106K3/02 
*SOURCE FILE: 19Y08M28
014858  19Y08M28                         A3    C        19:28:14:15 19:28:14:15 02:24:11:22 02:24:11:22 
014858  19Y08M28                         A3    D    002 19:23:07:23 19:23:08:00 02:24:11:22 02:24:11:24 
*FROM CLIP NAME:  106K4/01 
*TO CLIP NAME:  106K3/02 
*SOURCE FILE: 19Y08M28
014859  19Y08M28                         A4    C        19:28:14:15 19:28:14:15 02:24:11:22 02:24:11:22 
014859  19Y08M28                         A4    D    002 19:23:07:23 19:23:08:00 02:24:11:22 02:24:11:24 
*FROM CLIP NAME:  106K4/01 
*TO CLIP NAME:  106K3/02 
*SOURCE FILE: 19Y08M28
014860  19Y08M28                         A5    C        19:28:14:15 19:28:14:15 02:24:11:22 02:24:11:22 
014860  19Y08M28                         A5    D    002 19:23:07:23 19:23:08:00 02:24:11:22 02:24:11:24 
*FROM CLIP NAME:  106K4/01 
*TO CLIP NAME:  106K3/02 
*SOURCE FILE: 19Y08M28
014861  19Y08M28                         A6    C        19:28:14:15 19:28:14:15 02:24:11:22 02:24:11:22 
014861  19Y08M28                         A6    D    002 19:23:07:23 19:23:08:00 02:24:11:22 02:24:11:24 
*FROM CLIP NAME:  106K4/01 
*TO CLIP NAME:  106K3/02 
*SOURCE FILE: 19Y08M28
014862  19Y08M28                         A7    C        19:28:14:15 19:28:14:15 02:24:11:22 02:24:11:22 
014862  19Y08M28                         A7    D    002 19:23:07:23 19:23:08:00 02:24:11:22 02:24:11:24 
*FROM CLIP NAME:  106K4/01 
*TO CLIP NAME:  106K3/02 
*PATCH 19Y08M28:  FROM SOURCE 8 TO RECORD 7 
*PATCH 19Y08M28:  FROM SOURCE 8 TO RECORD 7 
*SOURCE FILE: 19Y08M28
014863  19Y08M28                         A     C        19:23:08:00 19:23:08:13 02:24:11:24 02:24:12:12 
*FROM CLIP NAME:  106K3/02 
*SOURCE FILE: 19Y08M28
014864  19Y08M28                         A2    C        19:23:08:00 19:23:08:13 02:24:11:24 02:24:12:12 
*FROM CLIP NAME:  106K3/02 
*SOURCE FILE: 19Y08M28
014865  19Y08M28                         A3    C        19:23:08:00 19:23:08:13 02:24:11:24 02:24:12:12 
*FROM CLIP NAME:  106K3/02 
*SOURCE FILE: 19Y08M28
014866  19Y08M28                         A4    C        19:23:08:00 19:23:08:13 02:24:11:24 02:24:12:12 
*FROM CLIP NAME:  106K3/02 
*SOURCE FILE: 19Y08M28
014867  19Y08M28                         A5    C        19:23:08:00 19:23:08:13 02:24:11:24 02:24:12:12 
*FROM CLIP NAME:  106K3/02 
*SOURCE FILE: 19Y08M28
014868  19Y08M28                         A6    C        19:23:08:00 19:23:08:13 02:24:11:24 02:24:12:12 
*FROM CLIP NAME:  106K3/02 
*SOURCE FILE: 19Y08M28
014869  19Y08M28                         A7    C        19:23:08:00 19:23:08:13 02:24:11:24 02:24:12:12 
*FROM CLIP NAME:  106K3/02 
*PATCH 19Y08M28:  FROM SOURCE 8 TO RECORD 7 
*SOURCE FILE: 19Y08M28
014870  19Y08M28                         A     C        19:23:08:13 19:23:08:13 02:24:12:12 02:24:12:12 
014870  19Y08M28                         A     D    002 19:28:13:12 19:28:13:14 02:24:12:12 02:24:12:14 
*FROM CLIP NAME:  106K3/02 
*TO CLIP NAME:  106K4/01 
*SOURCE FILE: 19Y08M28
014871  19Y08M28                         A2    C        19:23:08:13 19:23:08:13 02:24:12:12 02:24:12:12 
014871  19Y08M28                         A2    D    002 19:28:13:12 19:28:13:14 02:24:12:12 02:24:12:14 
*FROM CLIP NAME:  106K3/02 
*TO CLIP NAME:  106K4/01 
*SOURCE FILE: 19Y08M28
014872  19Y08M28                         A3    C        19:23:08:13 19:23:08:13 02:24:12:12 02:24:12:12 
014872  19Y08M28                         A3    D    002 19:28:13:12 19:28:13:14 02:24:12:12 02:24:12:14 
*FROM CLIP NAME:  106K3/02 
*TO CLIP NAME:  106K4/01 
*SOURCE FILE: 19Y08M28
014873  19Y08M28                         A4    C        19:23:08:13 19:23:08:13 02:24:12:12 02:24:12:12 
014873  19Y08M28                         A4    D    002 19:28:13:12 19:28:13:14 02:24:12:12 02:24:12:14 
*FROM CLIP NAME:  106K3/02 
*TO CLIP NAME:  106K4/01 
*SOURCE FILE: 19Y08M28
014874  19Y08M28                         A5    C        19:23:08:13 19:23:08:13 02:24:12:12 02:24:12:12 
014874  19Y08M28                         A5    D    002 19:28:13:12 19:28:13:14 02:24:12:12 02:24:12:14 
*FROM CLIP NAME:  106K3/02 
*TO CLIP NAME:  106K4/01 
*SOURCE FILE: 19Y08M28
014875  19Y08M28                         A6    C        19:23:08:13 19:23:08:13 02:24:12:12 02:24:12:12 
014875  19Y08M28                         A6    D    002 19:28:13:12 19:28:13:14 02:24:12:12 02:24:12:14 
*FROM CLIP NAME:  106K3/02 
*TO CLIP NAME:  106K4/01 
*SOURCE FILE: 19Y08M28
014876  19Y08M28                         A7    C        19:23:08:13 19:23:08:13 02:24:12:12 02:24:12:12 
014876  19Y08M28                         A7    D    002 19:28:13:12 19:28:13:14 02:24:12:12 02:24:12:14 
*FROM CLIP NAME:  106K3/02 
*TO CLIP NAME:  106K4/01 
*PATCH 19Y08M28:  FROM SOURCE 8 TO RECORD 7 
*PATCH 19Y08M28:  FROM SOURCE 8 TO RECORD 7 
*SOURCE FILE: 19Y08M28
014877  19Y08M28                         A     C        19:28:13:14 19:28:14:15 02:24:12:14 02:24:13:15 
*FROM CLIP NAME:  106K4/01 
*SOURCE FILE: 19Y08M28
014878  19Y08M28                         A2    C        19:28:13:14 19:28:14:15 02:24:12:14 02:24:13:15 
*FROM CLIP NAME:  106K4/01 
*SOURCE FILE: 19Y08M28
014879  19Y08M28                         A3    C        19:28:13:14 19:28:14:15 02:24:12:14 02:24:13:15 
*FROM CLIP NAME:  106K4/01 
*SOURCE FILE: 19Y08M28
014880  19Y08M28                         A4    C        19:28:13:14 19:28:14:15 02:24:12:14 02:24:13:15 
*FROM CLIP NAME:  106K4/01 
*SOURCE FILE: 19Y08M28
014881  19Y08M28                         A5    C        19:28:13:14 19:28:14:15 02:24:12:14 02:24:13:15 
*FROM CLIP NAME:  106K4/01 
*SOURCE FILE: 19Y08M28
014882  19Y08M28                         A6    C        19:28:13:14 19:28:14:15 02:24:12:14 02:24:13:15 
*FROM CLIP NAME:  106K4/01 
*SOURCE FILE: 19Y08M28
014883  19Y08M28                         A7    C        19:28:13:14 19:28:14:15 02:24:12:14 02:24:13:15 
*FROM CLIP NAME:  106K4/01 
*PATCH 19Y08M28:  FROM SOURCE 8 TO RECORD 7 
*SOURCE FILE: 19Y08M28
014884  19Y08M28                         A     C        19:28:14:15 19:28:14:15 02:24:13:15 02:24:13:15 
014884  19Y08M28                         A     D    002 19:28:13:12 19:28:13:14 02:24:13:15 02:24:13:17 
*FROM CLIP NAME:  106K4/01 
*TO CLIP NAME:  106K4/01 
*SOURCE FILE: 19Y08M28
014885  19Y08M28                         A2    C        19:28:14:15 19:28:14:15 02:24:13:15 02:24:13:15 
014885  19Y08M28                         A2    D    002 19:28:13:12 19:28:13:14 02:24:13:15 02:24:13:17 
*FROM CLIP NAME:  106K4/01 
*TO CLIP NAME:  106K4/01 
*SOURCE FILE: 19Y08M28
014886  19Y08M28                         A3    C        19:28:14:15 19:28:14:15 02:24:13:15 02:24:13:15 
014886  19Y08M28                         A3    D    002 19:28:13:12 19:28:13:14 02:24:13:15 02:24:13:17 
*FROM CLIP NAME:  106K4/01 
*TO CLIP NAME:  106K4/01 
*SOURCE FILE: 19Y08M28
014887  19Y08M28                         A4    C        19:28:14:15 19:28:14:15 02:24:13:15 02:24:13:15 
014887  19Y08M28                         A4    D    002 19:28:13:12 19:28:13:14 02:24:13:15 02:24:13:17 
*FROM CLIP NAME:  106K4/01 
*TO CLIP NAME:  106K4/01 
*SOURCE FILE: 19Y08M28
014888  19Y08M28                         A5    C        19:28:14:15 19:28:14:15 02:24:13:15 02:24:13:15 
014888  19Y08M28                         A5    D    002 19:28:13:12 19:28:13:14 02:24:13:15 02:24:13:17 
*FROM CLIP NAME:  106K4/01 
*TO CLIP NAME:  106K4/01 
*SOURCE FILE: 19Y08M28
014889  19Y08M28                         A6    C        19:28:14:15 19:28:14:15 02:24:13:15 02:24:13:15 
014889  19Y08M28                         A6    D    002 19:28:13:12 19:28:13:14 02:24:13:15 02:24:13:17 
*FROM CLIP NAME:  106K4/01 
*TO CLIP NAME:  106K4/01 
*SOURCE FILE: 19Y08M28
014890  19Y08M28                         A7    C        19:28:14:15 19:28:14:15 02:24:13:15 02:24:13:15 
014890  19Y08M28                         A7    D    002 19:28:13:12 19:28:13:14 02:24:13:15 02:24:13:17 
*FROM CLIP NAME:  106K4/01 
*TO CLIP NAME:  106K4/01 
*PATCH 19Y08M28:  FROM SOURCE 8 TO RECORD 7 
*PATCH 19Y08M28:  FROM SOURCE 8 TO RECORD 7 
*SOURCE FILE: 19Y08M28
014891  19Y08M28                         A     C        19:28:13:14 19:28:14:01 02:24:13:17 02:24:14:04 
*FROM CLIP NAME:  106K4/01 
*SOURCE FILE: 19Y08M28
014892  19Y08M28                         A2    C        19:28:13:14 19:28:14:01 02:24:13:17 02:24:14:04 
*FROM CLIP NAME:  106K4/01 
*SOURCE FILE: 19Y08M28
014893  19Y08M28                         A3    C        19:28:13:14 19:28:14:01 02:24:13:17 02:24:14:04 
*FROM CLIP NAME:  106K4/01 
*SOURCE FILE: 19Y08M28
014894  19Y08M28                         A4    C        19:28:13:14 19:28:14:01 02:24:13:17 02:24:14:04 
*FROM CLIP NAME:  106K4/01 
*SOURCE FILE: 19Y08M28
014895  19Y08M28                         A5    C        19:28:13:14 19:28:14:01 02:24:13:17 02:24:14:04 
*FROM CLIP NAME:  106K4/01 
*SOURCE FILE: 19Y08M28
014896  19Y08M28                         A6    C        19:28:13:14 19:28:14:01 02:24:13:17 02:24:14:04 
*FROM CLIP NAME:  106K4/01 
*SOURCE FILE: 19Y08M28
014897  19Y08M28                         A7    C        19:28:13:14 19:28:14:01 02:24:13:17 02:24:14:04 
*FROM CLIP NAME:  106K4/01 
*PATCH 19Y08M28:  FROM SOURCE 8 TO RECORD 7 
*SOURCE FILE: 19Y08M28
014898  19Y08M28                         A     C        19:28:14:01 19:28:14:01 02:24:14:04 02:24:14:04 
014898  19Y08M28                         A     D    002 19:28:15:04 19:28:15:06 02:24:14:04 02:24:14:06 
*FROM CLIP NAME:  106K4/01 
*TO CLIP NAME:  106K4/01 
*SOURCE FILE: 19Y08M28
014899  19Y08M28                         A2    C        19:28:14:01 19:28:14:01 02:24:14:04 02:24:14:04 
014899  19Y08M28                         A2    D    002 19:28:15:04 19:28:15:06 02:24:14:04 02:24:14:06 
*FROM CLIP NAME:  106K4/01 
*TO CLIP NAME:  106K4/01 
*SOURCE FILE: 19Y08M28
014900  19Y08M28                         A3    C        19:28:14:01 19:28:14:01 02:24:14:04 02:24:14:04 
014900  19Y08M28                         A3    D    002 19:28:15:04 19:28:15:06 02:24:14:04 02:24:14:06 
*FROM CLIP NAME:  106K4/01 
*TO CLIP NAME:  106K4/01 
*SOURCE FILE: 19Y08M28
014901  19Y08M28                         A4    C        19:28:14:01 19:28:14:01 02:24:14:04 02:24:14:04 
014901  19Y08M28                         A4    D    002 19:28:15:04 19:28:15:06 02:24:14:04 02:24:14:06 
*FROM CLIP NAME:  106K4/01 
*TO CLIP NAME:  106K4/01 
*SOURCE FILE: 19Y08M28
014902  19Y08M28                         A5    C        19:28:14:01 19:28:14:01 02:24:14:04 02:24:14:04 
014902  19Y08M28                         A5    D    002 19:28:15:04 19:28:15:06 02:24:14:04 02:24:14:06 
*FROM CLIP NAME:  106K4/01 
*TO CLIP NAME:  106K4/01 
*SOURCE FILE: 19Y08M28
014903  19Y08M28                         A6    C        19:28:14:01 19:28:14:01 02:24:14:04 02:24:14:04 
014903  19Y08M28                         A6    D    002 19:28:15:04 19:28:15:06 02:24:14:04 02:24:14:06 
*FROM CLIP NAME:  106K4/01 
*TO CLIP NAME:  106K4/01 
*SOURCE FILE: 19Y08M28
014904  19Y08M28                         A7    C        19:28:14:01 19:28:14:01 02:24:14:04 02:24:14:04 
014904  19Y08M28                         A7    D    002 19:28:15:04 19:28:15:06 02:24:14:04 02:24:14:06 
*FROM CLIP NAME:  106K4/01 
*TO CLIP NAME:  106K4/01 
*PATCH 19Y08M28:  FROM SOURCE 8 TO RECORD 7 
*PATCH 19Y08M28:  FROM SOURCE 8 TO RECORD 7 
*SOURCE FILE: 19Y08M28
014905  19Y08M28                         A     C        19:28:15:06 19:28:16:08 02:24:14:06 02:24:15:08 
*FROM CLIP NAME:  106K4/01 
*SOURCE FILE: 19Y08M28
014906  19Y08M28                         A2    C        19:28:15:06 19:28:16:08 02:24:14:06 02:24:15:08 
*FROM CLIP NAME:  106K4/01 
*SOURCE FILE: 19Y08M28
014907  19Y08M28                         A3    C        19:28:15:06 19:28:16:08 02:24:14:06 02:24:15:08 
*FROM CLIP NAME:  106K4/01 
*SOURCE FILE: 19Y08M28
014908  19Y08M28                         A4    C        19:28:15:06 19:28:16:08 02:24:14:06 02:24:15:08 
*FROM CLIP NAME:  106K4/01 
*SOURCE FILE: 19Y08M28
014909  19Y08M28                         A5    C        19:28:15:06 19:28:16:08 02:24:14:06 02:24:15:08 
*FROM CLIP NAME:  106K4/01 
*SOURCE FILE: 19Y08M28
014910  19Y08M28                         A6    C        19:28:15:06 19:28:16:08 02:24:14:06 02:24:15:08 
*FROM CLIP NAME:  106K4/01 
*SOURCE FILE: 19Y08M28
014911  19Y08M28                         A7    C        19:28:15:06 19:28:16:08 02:24:14:06 02:24:15:08 
*FROM CLIP NAME:  106K4/01 
*PATCH 19Y08M28:  FROM SOURCE 8 TO RECORD 7 
*SOURCE FILE: 19Y08M28
014912  19Y08M28                         A     C        19:28:16:08 19:28:16:08 02:24:15:08 02:24:15:08 
014912  19Y08M28                         A     D    002 19:36:16:10 19:36:16:12 02:24:15:08 02:24:15:10 
*FROM CLIP NAME:  106K4/01 
*TO CLIP NAME:  106K5/01 
*SOURCE FILE: 19Y08M28
014913  19Y08M28                         A2    C        19:28:16:08 19:28:16:08 02:24:15:08 02:24:15:08 
014913  19Y08M28                         A2    D    002 19:36:16:10 19:36:16:12 02:24:15:08 02:24:15:10 
*FROM CLIP NAME:  106K4/01 
*TO CLIP NAME:  106K5/01 
*SOURCE FILE: 19Y08M28
014914  19Y08M28                         A3    C        19:28:16:08 19:28:16:08 02:24:15:08 02:24:15:08 
014914  19Y08M28                         A3    D    002 19:36:16:10 19:36:16:12 02:24:15:08 02:24:15:10 
*FROM CLIP NAME:  106K4/01 
*TO CLIP NAME:  106K5/01 
*SOURCE FILE: 19Y08M28
014915  19Y08M28                         A4    C        19:28:16:08 19:28:16:08 02:24:15:08 02:24:15:08 
014915  19Y08M28                         A4    D    002 19:36:16:10 19:36:16:12 02:24:15:08 02:24:15:10 
*FROM CLIP NAME:  106K4/01 
*TO CLIP NAME:  106K5/01 
*SOURCE FILE: 19Y08M28
014916  19Y08M28                         A5    C        19:28:16:08 19:28:16:08 02:24:15:08 02:24:15:08 
014916  19Y08M28                         A5    D    002 19:36:16:10 19:36:16:12 02:24:15:08 02:24:15:10 
*FROM CLIP NAME:  106K4/01 
*TO CLIP NAME:  106K5/01 
*SOURCE FILE: 19Y08M28
014917  19Y08M28                         A6    C        19:28:16:08 19:28:16:08 02:24:15:08 02:24:15:08 
014917  19Y08M28                         A6    D    002 19:36:16:10 19:36:16:12 02:24:15:08 02:24:15:10 
*FROM CLIP NAME:  106K4/01 
*TO CLIP NAME:  106K5/01 
*SOURCE FILE: 19Y08M28
014918  19Y08M28                         A7    C        19:28:16:08 19:28:16:08 02:24:15:08 02:24:15:08 
014918  19Y08M28                         A7    D    002 19:36:16:10 19:36:16:12 02:24:15:08 02:24:15:10 
*FROM CLIP NAME:  106K4/01 
*TO CLIP NAME:  106K5/01 
*PATCH 19Y08M28:  FROM SOURCE 8 TO RECORD 7 
*PATCH 19Y08M28:  FROM SOURCE 8 TO RECORD 7 
*SOURCE FILE: 19Y08M28
014919  MSMMMOB.93                       V     C        18:56:06:21 18:56:08:11 02:24:15:09 02:24:16:24 
M2      MSMMMOB.93                                025.0 18:56:06:21 
*FROM CLIP NAME:  B033C001_190828_A1Y8 
*SOURCE FILE: MSMMMOB.93
014920  BL                               V     C        00:00:00:00 00:00:04:18 02:24:15:09 02:24:20:02 
*SOURCE FILE: (NULL)
014921  19Y08M28                         A     C        19:36:16:12 19:36:21:04 02:24:15:10 02:24:20:02 
*FROM CLIP NAME:  106K5/01 
*SOURCE FILE: 19Y08M28
014922  19Y08M28                         A2    C        19:36:16:12 19:36:21:04 02:24:15:10 02:24:20:02 
*FROM CLIP NAME:  106K5/01 
*SOURCE FILE: 19Y08M28
014923  19Y08M28                         A3    C        19:36:16:12 19:36:21:04 02:24:15:10 02:24:20:02 
*FROM CLIP NAME:  106K5/01 
*SOURCE FILE: 19Y08M28
014924  19Y08M28                         A4    C        19:36:16:12 19:36:21:04 02:24:15:10 02:24:20:02 
*FROM CLIP NAME:  106K5/01 
*SOURCE FILE: 19Y08M28
014925  19Y08M28                         A5    C        19:36:16:12 19:36:21:04 02:24:15:10 02:24:20:02 
*FROM CLIP NAME:  106K5/01 
*SOURCE FILE: 19Y08M28
014926  19Y08M28                         A6    C        19:36:16:12 19:36:21:04 02:24:15:10 02:24:20:02 
*FROM CLIP NAME:  106K5/01 
*SOURCE FILE: 19Y08M28
014927  19Y08M28                         A7    C        19:36:16:12 19:36:21:04 02:24:15:10 02:24:20:02 
*FROM CLIP NAME:  106K5/01 
*PATCH 19Y08M28:  FROM SOURCE 8 TO RECORD 7 
*SOURCE FILE: 19Y08M28
014928  GLDR-CND-120_V01                 V     C        00:00:00:00 00:00:03:03 02:24:16:24 02:24:20:02 
*FROM CLIP NAME:  GLDR-CND-120_V01 
*SOURCE FILE: GLDR-CND-120_V01
014929  MSMMMOB.48                       V     C        19:36:18:02 19:36:21:05 02:24:16:24 02:24:20:02 
M2      MSMMMOB.48                                025.0 19:36:18:02 
*FROM CLIP NAME:  A105C001_190828_R3DN 
*SOURCE FILE: MSMMMOB.48
014931  MSMMMOB.41                       V     C        01:22:22:21 01:22:25:09 02:24:20:02 02:24:22:15 
*FROM CLIP NAME:  107-4-2 
*SOURCE FILE: MSMMMOB.41
014930  GLDR-CND-130_V01                 V     C        00:00:00:00 00:00:02:13 02:24:20:02 02:24:22:15 
*FROM CLIP NAME:  GLDR-CND-130_V01 
*SOURCE FILE: GLDR-CND-130_V01
014932  19Y08M28                         A     C        13:20:57:01 13:20:59:14 02:24:20:02 02:24:22:15 
*FROM CLIP NAME:  107K1/04 
*SOURCE FILE: 19Y08M28
014933  19Y08M28                         A2    C        13:20:57:01 13:20:59:14 02:24:20:02 02:24:22:15 
*FROM CLIP NAME:  107K1/04 
*SOURCE FILE: 19Y08M28
014934  19Y08M28                         A3    C        13:20:57:01 13:20:59:14 02:24:20:02 02:24:22:15 
*FROM CLIP NAME:  107K1/04 
*SOURCE FILE: 19Y08M28
014935  19Y08M28                         A4    C        13:20:57:01 13:20:59:14 02:24:20:02 02:24:22:15 
*FROM CLIP NAME:  107K1/04 
*PATCH 19Y08M28:  FROM SOURCE 5 TO RECORD 4 
*SOURCE FILE: 19Y08M28
014936  BL                               V     C        00:00:00:00 00:00:08:09 02:24:20:02 02:24:28:11 
*SOURCE FILE: (NULL)
014937  BL                               V     C        00:00:00:00 00:00:05:21 02:24:22:15 02:24:28:11 
*SOURCE FILE: (NULL)
014938  MSMMMOB.53                       V     C        13:21:18:20 13:21:24:16 02:24:22:15 02:24:28:11 
M2      MSMMMOB.53                                025.0 13:21:18:20 
*FROM CLIP NAME:  A104C002_190828_R3DN 
*SOURCE FILE: MSMMMOB.53
014939  19Y08M28                         A     C        13:21:18:20 13:21:30:02 02:24:22:15 02:24:33:22 
*FROM CLIP NAME:  107K1/04 
*A1 VOL =  +8.0 DB  PAN R100 
*SOURCE FILE: 19Y08M28
014940  19Y08M28                         A2    C        13:21:18:20 13:21:30:02 02:24:22:15 02:24:33:22 
*FROM CLIP NAME:  107K1/04 
*A2 VOL =  +8.0 DB  PAN L100 
*SOURCE FILE: 19Y08M28
014941  19Y08M28                         A3    C        13:21:18:20 13:21:30:02 02:24:22:15 02:24:33:22 
*FROM CLIP NAME:  107K1/04 
*SOURCE FILE: 19Y08M28
014942  19Y08M28                         A4    C        13:21:18:20 13:21:30:02 02:24:22:15 02:24:33:22 
*FROM CLIP NAME:  107K1/04 
*PATCH 19Y08M28:  FROM SOURCE 5 TO RECORD 4 
*SOURCE FILE: 19Y08M28
014945  GLDR-CND-140_V02                 V     C        00:00:00:00 00:00:03:03 02:24:28:11 02:24:31:14 
*FROM CLIP NAME:  GLDR-CND-140_V02 
*SOURCE FILE: GLDR-CND-140_V02
014943  MSMMMOB.67                       V     C        13:32:52:22 13:32:56:00 02:24:28:11 02:24:31:14 
M2      MSMMMOB.67                                025.0 13:32:52:22 
*FROM CLIP NAME:  A104C004_190828_R3DN 
*SOURCE FILE: MSMMMOB.67
014944  MSMMMOB.41                       V     C        01:22:24:17 01:22:27:20 02:24:28:11 02:24:31:14 
*FROM CLIP NAME:  107-4-2 
*SOURCE FILE: MSMMMOB.41
014946  BL                               V     C        00:00:00:00 00:00:14:16 02:24:28:11 02:24:43:02 
*SOURCE FILE: (NULL)
014947  KROSHKA_MOYA.MP3                 A15   C        01:01:00:01 01:01:13:03 02:24:29:17 02:24:42:19 
*FROM CLIP NAME:  KROSHKA MOYA.MP3 
*A15 VOL = -15.0 DB  PAN R100 
*PATCH KROSHKA_MOYA.MP3:  FROM SOURCE 1 TO RECORD 15 
*SOURCE FILE: KROSHKA MOYA.MP3
014948  KROSHKA_MOYA.MP3                 A16   C        01:01:00:01 01:01:13:03 02:24:29:17 02:24:42:19 
*FROM CLIP NAME:  KROSHKA MOYA.MP3 
*A16 VOL = -15.0 DB  PAN L100 
*PATCH KROSHKA_MOYA.MP3:  FROM SOURCE 2 TO RECORD 16 
*SOURCE FILE: KROSHKA MOYA.MP3
014949  BL                               V     C        00:00:00:00 00:00:02:21 02:24:31:14 02:24:34:10 
*SOURCE FILE: (NULL)
014950  MSMMMOB.53                       V     C        13:21:30:07 13:21:33:03 02:24:31:14 02:24:34:10 
M2      MSMMMOB.53                                025.0 13:21:30:07 
*FROM CLIP NAME:  A104C002_190828_R3DN 
*SOURCE FILE: MSMMMOB.53
014951  19Y08M28                         A5    C        13:21:30:07 13:21:34:07 02:24:31:14 02:24:35:14 
*FROM CLIP NAME:  107K1/04 
*PATCH 19Y08M28:  FROM SOURCE 1 TO RECORD 5 
*SOURCE FILE: 19Y08M28
014952  19Y08M28                         A6    C        13:21:30:07 13:21:34:07 02:24:31:14 02:24:35:14 
*FROM CLIP NAME:  107K1/04 
*PATCH 19Y08M28:  FROM SOURCE 2 TO RECORD 6 
*SOURCE FILE: 19Y08M28
014953  19Y08M28                         A7    C        13:21:30:07 13:21:34:07 02:24:31:14 02:24:35:14 
*FROM CLIP NAME:  107K1/04 
*PATCH 19Y08M28:  FROM SOURCE 3 TO RECORD 7 
*SOURCE FILE: 19Y08M28
014954  19Y08M28                         A8    C        13:21:30:07 13:21:34:07 02:24:31:14 02:24:35:14 
*FROM CLIP NAME:  107K1/04 
*PATCH 19Y08M28:  FROM SOURCE 5 TO RECORD 8 
*SOURCE FILE: 19Y08M28
014955  BL                               V     C        00:00:00:00 00:01:04:10 02:24:31:14 02:25:35:24 
*SOURCE FILE: (NULL)
014956  MSMMMOB.52                       V     C        13:45:59:15 13:46:08:07 02:24:34:10 02:24:43:02 
M2      MSMMMOB.52                                025.0 13:45:59:15 
*FROM CLIP NAME:  A104C006_190828_R3DN 
*SOURCE FILE: MSMMMOB.52
014957  GLDR-CND-150_V02                 V     C        00:00:00:00 00:00:08:17 02:24:34:10 02:24:43:02 
*FROM CLIP NAME:  GLDR-CND-150_V02 
*SOURCE FILE: GLDR-CND-150_V02
014958  19Y08M28                         A     C        13:46:00:18 13:46:07:00 02:24:35:14 02:24:41:21 
*FROM CLIP NAME:  107K3/01 
*SOURCE FILE: 19Y08M28
014959  19Y08M28                         A2    C        13:46:00:18 13:46:07:00 02:24:35:14 02:24:41:21 
*FROM CLIP NAME:  107K3/01 
*SOURCE FILE: 19Y08M28
014960  19Y08M28                         A3    C        13:46:00:18 13:46:07:00 02:24:35:14 02:24:41:21 
*FROM CLIP NAME:  107K3/01 
*SOURCE FILE: 19Y08M28
014961  19Y08M28                         A5    C        13:21:34:14 13:21:38:05 02:24:37:19 02:24:41:10 
*FROM CLIP NAME:  107K1/04 
*SOURCE FILE: 19Y08M28
014962  19Y08M28                         A6    C        13:21:34:14 13:21:38:05 02:24:37:19 02:24:41:10 
*FROM CLIP NAME:  107K1/04 
*PATCH 19Y08M28:  FROM SOURCE 2 TO RECORD 6 
*SOURCE FILE: 19Y08M28
014963  19Y08M28                         A7    C        13:21:34:14 13:21:38:05 02:24:37:19 02:24:41:10 
*FROM CLIP NAME:  107K1/04 
*PATCH 19Y08M28:  FROM SOURCE 1 TO RECORD 7 
*SOURCE FILE: 19Y08M28
014964  19Y08M28                         A8    C        13:21:34:14 13:21:38:05 02:24:37:19 02:24:41:10 
*FROM CLIP NAME:  107K1/04 
*PATCH 19Y08M28:  FROM SOURCE 3 TO RECORD 8 
*SOURCE FILE: 19Y08M28
014965  KROSHKA_MOYA.MP3                 A15   C        01:01:13:03 01:01:39:20 02:24:42:19 02:25:09:11 
*FROM CLIP NAME:  KROSHKA MOYA.MP3 
*A15 VOL = -15.0 DB  PAN R100 
*PATCH KROSHKA_MOYA.MP3:  FROM SOURCE 1 TO RECORD 15 
*SOURCE FILE: KROSHKA MOYA.MP3
014966  KROSHKA_MOYA.MP3                 A16   C        01:01:13:03 01:01:39:20 02:24:42:19 02:25:09:11 
*FROM CLIP NAME:  KROSHKA MOYA.MP3 
*A16 VOL = -15.0 DB  PAN L100 
*PATCH KROSHKA_MOYA.MP3:  FROM SOURCE 2 TO RECORD 16 
*SOURCE FILE: KROSHKA MOYA.MP3
014967  M108_C007_20190729_R             V     C        11:53:48:03 11:53:52:17 02:24:43:02 02:24:46:09 
M2      M108_C007_20190729_R                      035.0 11:53:48:03 
*FROM CLIP NAME:  M108_C007_20190729_R.NEW.01 
*SOURCE FILE: M108_C007_20190729_R
014968  M108_C009_20190729_R             A     C        12:38:32:06 12:38:35:13 02:24:43:02 02:24:46:09 
*FROM CLIP NAME:  M108_C009_20190729_R.NEW.01 
*SOURCE FILE: M108_C009_20190729_R
014969  M108_C009_20190729_R             A2    C        12:38:32:06 12:38:35:13 02:24:43:02 02:24:46:09 
*FROM CLIP NAME:  M108_C009_20190729_R.NEW.01 
*SOURCE FILE: M108_C009_20190729_R
014970  BL                               V     C        00:00:00:00 00:00:46:06 02:24:43:02 02:25:29:08 
*SOURCE FILE: (NULL)
014971  BL                               V     C        00:00:00:00 00:02:30:24 02:24:43:02 02:27:14:01 
*SOURCE FILE: (NULL)
014972  M108_C003_20190729_R             V     C        11:25:25:12 11:25:28:18 02:24:46:09 02:24:49:15 
*FROM CLIP NAME:  M108_C003_20190729_R.NEW.01 
*SOURCE FILE: M108_C003_20190729_R
014973  M108_C003_20190729_R             V     C        11:25:37:11 11:25:41:00 02:24:49:15 02:24:53:04 
*FROM CLIP NAME:  M108_C003_20190729_R.NEW.01 
*SOURCE FILE: M108_C003_20190729_R
014974  M108_C014_20190729_R             A     C        14:38:36:17 14:38:37:13 02:24:53:04 02:24:54:00 
*FROM CLIP NAME:  M108_C014_20190729_R.NEW.01 
*SOURCE FILE: M108_C014_20190729_R
014975  M108_C014_20190729_R             A2    C        14:38:36:17 14:38:37:13 02:24:53:04 02:24:54:00 
*FROM CLIP NAME:  M108_C014_20190729_R.NEW.01 
*SOURCE FILE: M108_C014_20190729_R
014976  MSMMMOB.22                       V     C        17:41:23:08 17:41:26:05 02:24:53:04 02:24:56:01 
M2      MSMMMOB.22                                025.0 17:41:23:08 
*FROM CLIP NAME:  A049C003_190807_R32C 
*SOURCE FILE: MSMMMOB.22
014977  19Y08M07                         A     C        17:41:24:03 17:41:26:04 02:24:54:00 02:24:56:01 
*FROM CLIP NAME:  109K1/03 
*SOURCE FILE: 19Y08M07
014978  19Y08M07                         A2    C        17:41:24:03 17:41:26:04 02:24:54:00 02:24:56:01 
*FROM CLIP NAME:  109K1/03 
*SOURCE FILE: 19Y08M07
014979  19Y08M07                         A3    C        17:41:24:03 17:41:26:04 02:24:54:00 02:24:56:01 
*FROM CLIP NAME:  109K1/03 
*SOURCE FILE: 19Y08M07
014980  19Y08M07                         A4    C        17:41:24:03 17:41:26:04 02:24:54:00 02:24:56:01 
*FROM CLIP NAME:  109K1/03 
*SOURCE FILE: 19Y08M07
014981  19Y08M07                         A5    C        17:41:24:03 17:41:26:04 02:24:54:00 02:24:56:01 
*FROM CLIP NAME:  109K1/03 
*PATCH 19Y08M07:  FROM SOURCE 6 TO RECORD 5 
*SOURCE FILE: 19Y08M07
014982  19Y08M07                         A6    C        17:41:24:03 17:41:26:04 02:24:54:00 02:24:56:01 
*FROM CLIP NAME:  109K1/03 
*PATCH 19Y08M07:  FROM SOURCE 8 TO RECORD 6 
*SOURCE FILE: 19Y08M07
014983  MSMMMOB.24                       V     C        18:03:02:05 18:03:03:10 02:24:56:01 02:24:57:06 
M2      MSMMMOB.24                                025.0 18:03:02:05 
*FROM CLIP NAME:  A049C006_190807_R32C 
*SOURCE FILE: MSMMMOB.24
014984  19Y08M07                         A     C        18:03:02:05 18:03:04:18 02:24:56:01 02:24:58:14 
*FROM CLIP NAME:  109K2/02 
*SOURCE FILE: 19Y08M07
014985  19Y08M07                         A2    C        18:03:02:05 18:03:04:18 02:24:56:01 02:24:58:14 
*FROM CLIP NAME:  109K2/02 
*SOURCE FILE: 19Y08M07
014986  19Y08M07                         A3    C        18:03:02:05 18:03:04:18 02:24:56:01 02:24:58:14 
*FROM CLIP NAME:  109K2/02 
*SOURCE FILE: 19Y08M07
014987  19Y08M07                         A4    C        18:03:02:05 18:03:04:18 02:24:56:01 02:24:58:14 
*FROM CLIP NAME:  109K2/02 
*SOURCE FILE: 19Y08M07
014988  19Y08M07                         A5    C        18:03:02:05 18:03:04:18 02:24:56:01 02:24:58:14 
*FROM CLIP NAME:  109K2/02 
*PATCH 19Y08M07:  FROM SOURCE 8 TO RECORD 5 
*SOURCE FILE: 19Y08M07
014989  19Y08M07                         A6    C        18:03:02:05 18:03:04:18 02:24:56:01 02:24:58:14 
*FROM CLIP NAME:  109K2/02 
*SOURCE FILE: 19Y08M07
014990  MSMMMOB.28                       V     C        18:15:19:18 18:15:21:01 02:24:57:06 02:24:58:14 
M2      MSMMMOB.28                                025.0 18:15:19:18 
*FROM CLIP NAME:  A049C008_190807_R32C 
*SOURCE FILE: MSMMMOB.28
014991  MSMMMOB.22                       V     C        17:41:31:02 17:41:32:22 02:24:58:14 02:25:00:09 
M2      MSMMMOB.22                                025.0 17:41:31:02 
*FROM CLIP NAME:  A049C003_190807_R32C 
*SOURCE FILE: MSMMMOB.22
014992  19Y08M07                         A     C        17:41:31:01 17:41:32:21 02:24:58:14 02:25:00:09 
*FROM CLIP NAME:  109K1/03 
*SOURCE FILE: 19Y08M07
014993  19Y08M07                         A2    C        17:41:31:01 17:41:32:21 02:24:58:14 02:25:00:09 
*FROM CLIP NAME:  109K1/03 
*SOURCE FILE: 19Y08M07
014994  19Y08M07                         A3    C        17:41:31:01 17:41:32:21 02:24:58:14 02:25:00:09 
*FROM CLIP NAME:  109K1/03 
*SOURCE FILE: 19Y08M07
014995  19Y08M07                         A4    C        17:41:31:01 17:41:32:21 02:24:58:14 02:25:00:09 
*FROM CLIP NAME:  109K1/03 
*SOURCE FILE: 19Y08M07
014996  19Y08M07                         A5    C        17:41:31:01 17:41:32:21 02:24:58:14 02:25:00:09 
*FROM CLIP NAME:  109K1/03 
*PATCH 19Y08M07:  FROM SOURCE 6 TO RECORD 5 
*SOURCE FILE: 19Y08M07
014997  19Y08M07                         A6    C        17:41:31:01 17:41:32:21 02:24:58:14 02:25:00:09 
*FROM CLIP NAME:  109K1/03 
*PATCH 19Y08M07:  FROM SOURCE 8 TO RECORD 6 
*SOURCE FILE: 19Y08M07
014998  MSMMMOB.24                       V     C        18:03:38:08 18:03:39:12 02:25:00:09 02:25:01:13 
M2      MSMMMOB.24                                025.0 18:03:38:08 
*FROM CLIP NAME:  A049C006_190807_R32C 
*SOURCE FILE: MSMMMOB.24
014999  19Y08M07                         A     C        17:41:33:05 17:41:34:09 02:25:00:09 02:25:01:13 
*FROM CLIP NAME:  109K1/03 
*SOURCE FILE: 19Y08M07
015000  19Y08M07                         A2    C        17:41:33:05 17:41:34:09 02:25:00:09 02:25:01:13 
*FROM CLIP NAME:  109K1/03 
*SOURCE FILE: 19Y08M07
015001  19Y08M07                         A3    C        17:41:33:05 17:41:34:09 02:25:00:09 02:25:01:13 
*FROM CLIP NAME:  109K1/03 
*SOURCE FILE: 19Y08M07
015002  19Y08M07                         A4    C        17:41:33:05 17:41:34:09 02:25:00:09 02:25:01:13 
*FROM CLIP NAME:  109K1/03 
*SOURCE FILE: 19Y08M07
015003  19Y08M07                         A5    C        17:41:33:05 17:41:34:09 02:25:00:09 02:25:01:13 
*FROM CLIP NAME:  109K1/03 
*PATCH 19Y08M07:  FROM SOURCE 6 TO RECORD 5 
*SOURCE FILE: 19Y08M07
015004  19Y08M07                         A6    C        17:41:33:05 17:41:34:09 02:25:00:09 02:25:01:13 
*FROM CLIP NAME:  109K1/03 
*PATCH 19Y08M07:  FROM SOURCE 8 TO RECORD 6 
*SOURCE FILE: 19Y08M07
015005  MSMMMOB.75                       V     C        19:07:12:02 19:07:13:20 02:25:01:13 02:25:03:06 
M2      MSMMMOB.75                                025.0 19:07:12:02 
*FROM CLIP NAME:  A049C016_190807_R32C 
*SOURCE FILE: MSMMMOB.75
015006  19Y08M07                         A     C        17:41:27:11 17:41:29:04 02:25:01:13 02:25:03:06 
*FROM CLIP NAME:  109K1/03 
*SOURCE FILE: 19Y08M07
015007  19Y08M07                         A2    C        17:41:27:11 17:41:29:04 02:25:01:13 02:25:03:06 
*FROM CLIP NAME:  109K1/03 
*SOURCE FILE: 19Y08M07
015008  19Y08M07                         A3    C        17:41:27:11 17:41:29:04 02:25:01:13 02:25:03:06 
*FROM CLIP NAME:  109K1/03 
*SOURCE FILE: 19Y08M07
015009  19Y08M07                         A4    C        17:41:27:11 17:41:29:04 02:25:01:13 02:25:03:06 
*FROM CLIP NAME:  109K1/03 
*SOURCE FILE: 19Y08M07
015010  19Y08M07                         A5    C        17:41:27:11 17:41:29:04 02:25:01:13 02:25:03:06 
*FROM CLIP NAME:  109K1/03 
*PATCH 19Y08M07:  FROM SOURCE 8 TO RECORD 5 
*SOURCE FILE: 19Y08M07
015011  19Y08M07                         A6    C        17:41:27:11 17:41:29:04 02:25:01:13 02:25:03:06 
*FROM CLIP NAME:  109K1/03 
*SOURCE FILE: 19Y08M07
015012  19Y08M07                         A10   C        17:41:26:03 17:41:26:08 02:25:03:01 02:25:03:06 
*FROM CLIP NAME:  109K1/03 
*PATCH 19Y08M07:  FROM SOURCE 4 TO RECORD 10 
*SOURCE FILE: 19Y08M07
015013  19Y08M07                         A11   C        17:41:26:03 17:41:26:08 02:25:03:01 02:25:03:06 
*FROM CLIP NAME:  109K1/03 
*PATCH 19Y08M07:  FROM SOURCE 3 TO RECORD 11 
*SOURCE FILE: 19Y08M07
015014  19Y08M07                         A12   C        17:41:26:03 17:41:26:08 02:25:03:01 02:25:03:06 
*FROM CLIP NAME:  109K1/03 
*PATCH 19Y08M07:  FROM SOURCE 2 TO RECORD 12 
*SOURCE FILE: 19Y08M07
015015  MSMMMOB.24                       V     C        18:03:41:00 18:03:42:08 02:25:03:06 02:25:04:14 
M2      MSMMMOB.24                                025.0 18:03:41:00 
*FROM CLIP NAME:  A049C006_190807_R32C 
*SOURCE FILE: MSMMMOB.24
015016  19Y08M07                         A     C        18:03:41:00 18:03:42:08 02:25:03:06 02:25:04:14 
*FROM CLIP NAME:  109K2/02 
*SOURCE FILE: 19Y08M07
015017  19Y08M07                         A2    C        18:03:41:00 18:03:42:08 02:25:03:06 02:25:04:14 
*FROM CLIP NAME:  109K2/02 
*SOURCE FILE: 19Y08M07
015018  19Y08M07                         A3    C        18:03:41:00 18:03:42:08 02:25:03:06 02:25:04:14 
*FROM CLIP NAME:  109K2/02 
*SOURCE FILE: 19Y08M07
015019  19Y08M07                         A4    C        18:03:41:00 18:03:42:08 02:25:03:06 02:25:04:14 
*FROM CLIP NAME:  109K2/02 
*SOURCE FILE: 19Y08M07
015020  19Y08M07                         A5    C        18:03:41:00 18:03:42:08 02:25:03:06 02:25:04:14 
*FROM CLIP NAME:  109K2/02 
*PATCH 19Y08M07:  FROM SOURCE 8 TO RECORD 5 
*SOURCE FILE: 19Y08M07
015021  19Y08M07                         A6    C        18:03:41:00 18:03:42:08 02:25:03:06 02:25:04:14 
*FROM CLIP NAME:  109K2/02 
*SOURCE FILE: 19Y08M07
015022  19Y08M07                         A7    C        17:41:27:02 17:41:28:10 02:25:03:06 02:25:04:14 
*FROM CLIP NAME:  109K1/03 
*PATCH 19Y08M07:  FROM SOURCE 1 TO RECORD 7 
*SOURCE FILE: 19Y08M07
015023  19Y08M07                         A8    C        17:41:27:02 17:41:28:10 02:25:03:06 02:25:04:14 
*FROM CLIP NAME:  109K1/03 
*SOURCE FILE: 19Y08M07
015024  19Y08M07                         A9    C        17:41:27:02 17:41:28:10 02:25:03:06 02:25:04:14 
*FROM CLIP NAME:  109K1/03 
*PATCH 19Y08M07:  FROM SOURCE 6 TO RECORD 9 
*SOURCE FILE: 19Y08M07
015025  19Y08M07                         A10   C        17:41:31:04 17:41:32:12 02:25:03:06 02:25:04:14 
*FROM CLIP NAME:  109K1/03 
*PATCH 19Y08M07:  FROM SOURCE 4 TO RECORD 10 
*SOURCE FILE: 19Y08M07
015026  19Y08M07                         A11   C        17:41:31:04 17:41:32:12 02:25:03:06 02:25:04:14 
*FROM CLIP NAME:  109K1/03 
*PATCH 19Y08M07:  FROM SOURCE 3 TO RECORD 11 
*SOURCE FILE: 19Y08M07
015027  19Y08M07                         A12   C        17:41:31:04 17:41:32:12 02:25:03:06 02:25:04:14 
*FROM CLIP NAME:  109K1/03 
*PATCH 19Y08M07:  FROM SOURCE 2 TO RECORD 12 
*SOURCE FILE: 19Y08M07
015028  MSMMMOB.75                       V     C        19:07:19:05 19:07:20:10 02:25:04:14 02:25:05:19 
M2      MSMMMOB.75                                025.0 19:07:19:05 
*FROM CLIP NAME:  A049C016_190807_R32C 
*SOURCE FILE: MSMMMOB.75
015029  19Y08M07                         A     C        17:41:31:16 17:41:32:21 02:25:04:14 02:25:05:19 
*FROM CLIP NAME:  109K1/03 
*SOURCE FILE: 19Y08M07
015030  19Y08M07                         A2    C        17:41:31:16 17:41:32:21 02:25:04:14 02:25:05:19 
*FROM CLIP NAME:  109K1/03 
*SOURCE FILE: 19Y08M07
015031  19Y08M07                         A3    C        17:41:31:16 17:41:32:21 02:25:04:14 02:25:05:19 
*FROM CLIP NAME:  109K1/03 
*SOURCE FILE: 19Y08M07
015032  19Y08M07                         A4    C        17:41:31:16 17:41:32:21 02:25:04:14 02:25:05:19 
*FROM CLIP NAME:  109K1/03 
*SOURCE FILE: 19Y08M07
015033  19Y08M07                         A5    C        17:41:31:16 17:41:32:21 02:25:04:14 02:25:05:19 
*FROM CLIP NAME:  109K1/03 
*PATCH 19Y08M07:  FROM SOURCE 6 TO RECORD 5 
*SOURCE FILE: 19Y08M07
015034  19Y08M07                         A6    C        17:41:31:16 17:41:32:21 02:25:04:14 02:25:05:19 
*FROM CLIP NAME:  109K1/03 
*PATCH 19Y08M07:  FROM SOURCE 8 TO RECORD 6 
*SOURCE FILE: 19Y08M07
015035  19Y08M07                         A     C        17:41:34:23 17:41:35:07 02:25:05:19 02:25:06:03 
*FROM CLIP NAME:  109K1/03 
*SOURCE FILE: 19Y08M07
015036  19Y08M07                         A2    C        17:41:34:23 17:41:35:07 02:25:05:19 02:25:06:03 
*FROM CLIP NAME:  109K1/03 
*SOURCE FILE: 19Y08M07
015037  19Y08M07                         A3    C        17:41:34:23 17:41:35:07 02:25:05:19 02:25:06:03 
*FROM CLIP NAME:  109K1/03 
*SOURCE FILE: 19Y08M07
015038  19Y08M07                         A4    C        17:41:34:23 17:41:35:07 02:25:05:19 02:25:06:03 
*FROM CLIP NAME:  109K1/03 
*SOURCE FILE: 19Y08M07
015039  19Y08M07                         A5    C        17:41:34:23 17:41:35:07 02:25:05:19 02:25:06:03 
*FROM CLIP NAME:  109K1/03 
*PATCH 19Y08M07:  FROM SOURCE 6 TO RECORD 5 
*SOURCE FILE: 19Y08M07
015040  19Y08M07                         A6    C        17:41:34:23 17:41:35:07 02:25:05:19 02:25:06:03 
*FROM CLIP NAME:  109K1/03 
*PATCH 19Y08M07:  FROM SOURCE 8 TO RECORD 6 
*SOURCE FILE: 19Y08M07
015041  MSMMMOB.22                       V     C        17:41:35:17 17:41:39:06 02:25:05:19 02:25:09:08 
M2      MSMMMOB.22                                025.0 17:41:35:17 
*FROM CLIP NAME:  A049C003_190807_R32C 
*SOURCE FILE: MSMMMOB.22
015042  19Y08M07                         A     C        17:41:36:00 17:41:39:05 02:25:06:03 02:25:09:08 
*FROM CLIP NAME:  109K1/03 
*SOURCE FILE: 19Y08M07
015043  19Y08M07                         A2    C        17:41:36:00 17:41:39:05 02:25:06:03 02:25:09:08 
*FROM CLIP NAME:  109K1/03 
*SOURCE FILE: 19Y08M07
015044  19Y08M07                         A3    C        17:41:36:00 17:41:39:05 02:25:06:03 02:25:09:08 
*FROM CLIP NAME:  109K1/03 
*SOURCE FILE: 19Y08M07
015045  19Y08M07                         A4    C        17:41:36:00 17:41:39:05 02:25:06:03 02:25:09:08 
*FROM CLIP NAME:  109K1/03 
*SOURCE FILE: 19Y08M07
015046  19Y08M07                         A5    C        17:41:36:00 17:41:39:05 02:25:06:03 02:25:09:08 
*FROM CLIP NAME:  109K1/03 
*PATCH 19Y08M07:  FROM SOURCE 6 TO RECORD 5 
*SOURCE FILE: 19Y08M07
015047  19Y08M07                         A6    C        17:41:36:00 17:41:39:05 02:25:06:03 02:25:09:08 
*FROM CLIP NAME:  109K1/03 
*PATCH 19Y08M07:  FROM SOURCE 8 TO RECORD 6 
*SOURCE FILE: 19Y08M07
015048  KROSHKA_MOYA.MP3                 A17   C        01:02:06:02 01:02:46:01 02:25:09:06 02:25:49:05 
*FROM CLIP NAME:  KROSHKA MOYA.MP3 
*A17 VOL = -12.1 DB  PAN R100 
*PATCH KROSHKA_MOYA.MP3:  FROM SOURCE 1 TO RECORD 17 
*SOURCE FILE: KROSHKA MOYA.MP3
015049  KROSHKA_MOYA.MP3                 A18   C        01:02:06:02 01:02:46:01 02:25:09:06 02:25:49:05 
*FROM CLIP NAME:  KROSHKA MOYA.MP3 
*A18 VOL = -12.1 DB  PAN L100 
*PATCH KROSHKA_MOYA.MP3:  FROM SOURCE 2 TO RECORD 18 
*SOURCE FILE: KROSHKA MOYA.MP3
015050  A013C002_190728_R32C             V     C        00:40:20:18 00:40:23:22 02:25:09:08 02:25:12:12 
*FROM CLIP NAME:  A013C002_190728_R32C.NEW.01 
*SOURCE FILE: A013C002_190728_R32C
015051  19Y07M28                         A     C        13:01:36:15 13:01:39:23 02:25:09:08 02:25:12:16 
*FROM CLIP NAME:  109AK3/02.SYNC.01 
*A1 VOL = -17.8 DB  PAN R100 
*SOURCE FILE: 19Y07M28
015052  19Y07M28                         A2    C        13:01:36:15 13:01:39:23 02:25:09:08 02:25:12:16 
*FROM CLIP NAME:  109AK3/02.SYNC.01 
*A2 VOL = -17.8 DB  PAN L100 
*SOURCE FILE: 19Y07M28
015053  19Y07M28                         A3    C        13:01:36:15 13:01:39:23 02:25:09:08 02:25:12:16 
*FROM CLIP NAME:  109AK3/02.SYNC.01 
*A3 VOL = -17.8 DB  PAN R100 
*SOURCE FILE: 19Y07M28
015054  19Y07M28                         A4    C        13:01:36:15 13:01:39:23 02:25:09:08 02:25:12:16 
*FROM CLIP NAME:  109AK3/02.SYNC.01 
*A4 VOL = -17.8 DB  PAN L100 
*SOURCE FILE: 19Y07M28
015055  19Y07M28                         A5    C        13:01:36:15 13:01:39:23 02:25:09:08 02:25:12:16 
*FROM CLIP NAME:  109AK3/02.SYNC.01 
*A5 VOL = -22.1 DB  PAN R100 
*SOURCE FILE: 19Y07M28
015056  19Y07M28                         A6    C        13:01:36:15 13:01:39:23 02:25:09:08 02:25:12:16 
*FROM CLIP NAME:  109AK3/02.SYNC.01 
*A6 VOL = -17.8 DB  PAN L100 
*PATCH 19Y07M28:  FROM SOURCE 1 TO RECORD 6 
*SOURCE FILE: 19Y07M28
015057  19Y07M28                         A7    C        13:01:36:15 13:01:39:23 02:25:09:08 02:25:12:16 
*FROM CLIP NAME:  109AK3/02.SYNC.01 
*A7 VOL = -17.8 DB  PAN R100 
*SOURCE FILE: 19Y07M28
015058  19Y07M28                         A8    C        13:01:36:15 13:01:39:23 02:25:09:08 02:25:12:16 
*FROM CLIP NAME:  109AK3/02.SYNC.01 
*A8 VOL = -17.8 DB  PAN L100 
*PATCH 19Y07M28:  FROM SOURCE 9 TO RECORD 8 
*SOURCE FILE: 19Y07M28
015059  A012C005_190728_R32C             V     C        11:52:40:01 11:52:43:18 02:25:12:12 02:25:16:04 
*FROM CLIP NAME:  A012C005_190728_R32C.NEW.01 
*SOURCE FILE: A012C005_190728_R32C
015060  19Y07M28                         A     C        11:58:42:18 11:58:49:13 02:25:12:16 02:25:19:11 
*FROM CLIP NAME:  109AK2/02.SYNC.01 
*A1 VOL = -14.0 DB  PAN R100 
*SOURCE FILE: 19Y07M28
015061  19Y07M28                         A2    C        11:58:42:18 11:58:49:13 02:25:12:16 02:25:19:11 
*FROM CLIP NAME:  109AK2/02.SYNC.01 
*A2 VOL = -14.0 DB  PAN L100 
*SOURCE FILE: 19Y07M28
015062  19Y07M28                         A3    C        11:58:42:18 11:58:49:13 02:25:12:16 02:25:19:11 
*FROM CLIP NAME:  109AK2/02.SYNC.01 
*A3 VOL = -14.0 DB  PAN R100 
*SOURCE FILE: 19Y07M28
015063  19Y07M28                         A4    C        11:58:42:18 11:58:49:13 02:25:12:16 02:25:19:11 
*FROM CLIP NAME:  109AK2/02.SYNC.01 
*A4 VOL = -14.0 DB  PAN L100 
*SOURCE FILE: 19Y07M28
015064  19Y07M28                         A5    C        11:58:42:18 11:58:49:13 02:25:12:16 02:25:19:11 
*FROM CLIP NAME:  109AK2/02.SYNC.01 
*A5 VOL = -14.0 DB  PAN R100 
*SOURCE FILE: 19Y07M28
015065  19Y07M28                         A6    C        11:58:42:18 11:58:49:13 02:25:12:16 02:25:19:11 
*FROM CLIP NAME:  109AK2/02.SYNC.01 
*A6 VOL = -14.0 DB  PAN L100 
*PATCH 19Y07M28:  FROM SOURCE 1 TO RECORD 6 
*SOURCE FILE: 19Y07M28
015066  19Y07M28                         A7    C        11:58:42:18 11:58:49:13 02:25:12:16 02:25:19:11 
*FROM CLIP NAME:  109AK2/02.SYNC.01 
*A7 VOL = -14.0 DB  PAN R100 
*SOURCE FILE: 19Y07M28
015067  19Y07M28                         A8    C        11:58:42:18 11:58:49:13 02:25:12:16 02:25:19:11 
*FROM CLIP NAME:  109AK2/02.SYNC.01 
*A8 VOL = -14.0 DB  PAN L100 
*PATCH 19Y07M28:  FROM SOURCE 9 TO RECORD 8 
*SOURCE FILE: 19Y07M28
015068  A012C006_190728_R32C             V     C        11:58:46:06 11:58:49:13 02:25:16:04 02:25:19:11 
*FROM CLIP NAME:  A012C006_190728_R32C.NEW.01 
*SOURCE FILE: A012C006_190728_R32C
015069  A013C002_190728_R32C             V     C        00:40:34:15 00:40:35:23 02:25:19:11 02:25:20:19 
*FROM CLIP NAME:  A013C002_190728_R32C.NEW.01 
*SOURCE FILE: A013C002_190728_R32C
015070  19Y07M28                         A     C        13:01:47:06 13:01:53:24 02:25:19:11 02:25:26:04 
*FROM CLIP NAME:  109AK3/02.SYNC.01 
*A1 VOL = -11.7 DB  PAN R100 
*SOURCE FILE: 19Y07M28
015071  19Y07M28                         A2    C        13:01:47:06 13:01:53:24 02:25:19:11 02:25:26:04 
*FROM CLIP NAME:  109AK3/02.SYNC.01 
*A2 VOL = -11.7 DB  PAN L100 
*SOURCE FILE: 19Y07M28
015072  19Y07M28                         A3    C        13:01:47:06 13:01:53:24 02:25:19:11 02:25:26:04 
*FROM CLIP NAME:  109AK3/02.SYNC.01 
*A3 VOL = -11.7 DB  PAN R100 
*SOURCE FILE: 19Y07M28
015073  19Y07M28                         A4    C        13:01:47:06 13:01:53:24 02:25:19:11 02:25:26:04 
*FROM CLIP NAME:  109AK3/02.SYNC.01 
*A4 VOL = -11.7 DB  PAN L100 
*SOURCE FILE: 19Y07M28
015074  19Y07M28                         A5    C        13:01:47:06 13:01:53:24 02:25:19:11 02:25:26:04 
*FROM CLIP NAME:  109AK3/02.SYNC.01 
*A5 VOL = -11.7 DB  PAN R100 
*SOURCE FILE: 19Y07M28
015075  19Y07M28                         A6    C        13:01:47:06 13:01:53:24 02:25:19:11 02:25:26:04 
*FROM CLIP NAME:  109AK3/02.SYNC.01 
*A6 VOL = -11.7 DB  PAN L100 
*PATCH 19Y07M28:  FROM SOURCE 1 TO RECORD 6 
*SOURCE FILE: 19Y07M28
015076  19Y07M28                         A7    C        13:01:47:06 13:01:53:24 02:25:19:11 02:25:26:04 
*FROM CLIP NAME:  109AK3/02.SYNC.01 
*A7 VOL = -11.7 DB  PAN R100 
*SOURCE FILE: 19Y07M28
015077  19Y07M28                         A8    C        13:01:47:06 13:01:53:24 02:25:19:11 02:25:26:04 
*FROM CLIP NAME:  109AK3/02.SYNC.01 
*A8 VOL = -11.7 DB  PAN L100 
*PATCH 19Y07M28:  FROM SOURCE 9 TO RECORD 8 
*SOURCE FILE: 19Y07M28
015078  A012C006_190728_R32C             V     C        11:58:57:09 11:58:59:14 02:25:20:19 02:25:22:24 
*FROM CLIP NAME:  A012C006_190728_R32C.NEW.01 
*SOURCE FILE: A012C006_190728_R32C
015079  M108_C009_20190729_R             V     C        12:38:33:12 12:38:35:19 02:25:22:24 02:25:25:06 
*FROM CLIP NAME:  M108_C009_20190729_R.NEW.01 
*SOURCE FILE: M108_C009_20190729_R
015080  MSMMMOB.13                       V     C        16:41:12:19 16:41:14:07 02:25:25:06 02:25:26:19 
M2      MSMMMOB.13                                025.0 16:41:12:19 
*FROM CLIP NAME:  B032C007_190828_A1Y8 
*SOURCE FILE: MSMMMOB.13
015081  MSMMMOB.13                       V     C        16:39:51:11 16:39:52:15 02:25:26:19 02:25:27:23 
M2      MSMMMOB.13                                025.0 16:39:51:11 
*FROM CLIP NAME:  B032C007_190828_A1Y8 
*SOURCE FILE: MSMMMOB.13
015082  MSMMMOB.13                       V     C        16:39:41:13 16:39:42:23 02:25:27:23 02:25:29:08 
M2      MSMMMOB.13                                025.0 16:39:41:13 
*FROM CLIP NAME:  B032C007_190828_A1Y8 
*SOURCE FILE: MSMMMOB.13
015083  DSC00750.JPG                     V     C        01:00:00:00 01:00:01:19 02:25:29:08 02:25:31:02 
*FROM CLIP NAME:  DSC00750.JPG 
*SOURCE FILE: DSC00750.JPG
015085  M108_C034_20190729_R             V     C        17:26:50:01 17:26:56:17 02:25:29:08 02:25:35:24 
*FROM CLIP NAME:  M108_C034_20190729_R.NEW.01 
*SOURCE FILE: M108_C034_20190729_R
015084  CINEMASCOPE_2-35-1_CROPLINES.PNG V     C        01:03:54:23 01:04:01:14 02:25:29:08 02:25:35:24 
*FROM CLIP NAME:  CINEMASCOPE 2-35-1 CROPLINES.PNG 
*SOURCE FILE: CINEMASCOPE 2-35-1 CROPLINES.PNG
015086  M108_C043_20190729_R             A     C        20:18:54:16 20:19:01:07 02:25:29:08 02:25:35:24 
*FROM CLIP NAME:  M108_C043_20190729_R.NEW.01 
*SOURCE FILE: M108_C043_20190729_R
015087  M108_C043_20190729_R             A2    C        20:18:54:16 20:19:01:07 02:25:29:08 02:25:35:24 
*FROM CLIP NAME:  M108_C043_20190729_R.NEW.01 
*SOURCE FILE: M108_C043_20190729_R
015088  DSC00860.JPG                     V     C        01:00:00:00 01:00:01:17 02:25:31:02 02:25:32:19 
*FROM CLIP NAME:  DSC00860.JPG 
*SOURCE FILE: DSC00860.JPG
015089  DSC00775.JPG                     V     C        01:00:00:00 01:00:01:17 02:25:32:19 02:25:34:11 
*FROM CLIP NAME:  DSC00775.JPG 
*SOURCE FILE: DSC00775.JPG
015090  DSC00681.JPG                     V     C        01:00:46:02 01:00:47:15 02:25:34:11 02:25:35:24 
*FROM CLIP NAME:  DSC00681.JPG 
*SOURCE FILE: DSC00681.JPG
015091  DSC00681.JPG                     V     C        01:00:47:15 01:00:49:23 02:25:35:24 02:25:38:07 
*FROM CLIP NAME:  DSC00681.JPG 
*SOURCE FILE: DSC00681.JPG
015092  MSMMMOB.07                       V     C        00:00:04:14 00:00:11:05 02:25:35:24 02:25:42:15 
*FROM CLIP NAME:  1-15-3-0 
*SOURCE FILE: MSMMMOB.07
015093  CINEMASCOPE_2-35-1_CROPLINES.PNG V     C        01:04:08:08 01:04:25:10 02:25:35:24 02:25:53:01 
*FROM CLIP NAME:  CINEMASCOPE 2-35-1 CROPLINES.PNG 
*SOURCE FILE: CINEMASCOPE 2-35-1 CROPLINES.PNG
015094  BL                               V     C        00:00:00:00 00:00:25:06 02:25:35:24 02:26:01:05 
*SOURCE FILE: (NULL)
015095  BL                               V     C        00:00:00:00 00:01:38:02 02:25:35:24 02:27:14:01 
*SOURCE FILE: (NULL)
015096  BL                               V     C        00:00:00:00 00:00:11:00 02:25:38:07 02:25:49:07 
*SOURCE FILE: (NULL)
015097  MSMMMOB.07                       A     C        00:00:07:14 00:00:11:05 02:25:38:24 02:25:42:15 
*FROM CLIP NAME:  1-15-3-0 
*SOURCE FILE: MSMMMOB.07
015098  MSMMMOB.07                       A2    C        00:00:07:14 00:00:11:05 02:25:38:24 02:25:42:15 
*FROM CLIP NAME:  1-15-3-0 
*SOURCE FILE: MSMMMOB.07
015099  MSMMMOB.40                       V     C        00:00:12:18 00:00:15:24 02:25:42:15 02:25:45:21 
M2      MSMMMOB.40                                025.0 00:00:12:18 
*FROM CLIP NAME:  11242019_190406 
*SOURCE FILE: MSMMMOB.40
015100  19Y11M24                         A     C        19:03:42:15 19:03:45:21 02:25:42:15 02:25:45:21 
*FROM CLIP NAME:  01-15-2/02 
*A1 VOL = -13.7 DB  PAN R100 
*SOURCE FILE: 19Y11M24
015101  19Y11M24                         A2    C        19:03:42:15 19:03:45:21 02:25:42:15 02:25:45:21 
*FROM CLIP NAME:  01-15-2/02 
*A2 VOL = -13.7 DB  PAN L100 
*SOURCE FILE: 19Y11M24
015102  MSMMMOB.40                       V     C        00:00:20:12 00:00:23:23 02:25:45:21 02:25:49:07 
M2      MSMMMOB.40                                025.0 00:00:20:12 
*FROM CLIP NAME:  11242019_190406 
*SOURCE FILE: MSMMMOB.40
015103  19Y11M24                         A     C        19:03:50:09 19:03:53:20 02:25:45:21 02:25:49:07 
*FROM CLIP NAME:  01-15-2/02 
*A1 VOL = -13.7 DB  PAN R100 
*SOURCE FILE: 19Y11M24
015104  19Y11M24                         A2    C        19:03:50:09 19:03:53:20 02:25:45:21 02:25:49:07 
*FROM CLIP NAME:  01-15-2/02 
*A2 VOL = -13.7 DB  PAN L100 
*SOURCE FILE: 19Y11M24
015105  KROSHKA_MOYA.MP3                 A19   C        01:04:05:12 01:04:08:11 02:25:49:05 02:25:52:04 
*FROM CLIP NAME:  KROSHKA MOYA.MP3 
*A19 VOL = -13.0 DB  PAN R100 
*PATCH KROSHKA_MOYA.MP3:  FROM SOURCE 1 TO RECORD 19 
*SOURCE FILE: KROSHKA MOYA.MP3
015106  KROSHKA_MOYA.MP3                 A20   C        01:04:05:12 01:04:08:11 02:25:49:05 02:25:52:04 
*FROM CLIP NAME:  KROSHKA MOYA.MP3 
*A20 VOL = -13.0 DB  PAN L100 
*PATCH KROSHKA_MOYA.MP3:  FROM SOURCE 2 TO RECORD 20 
*SOURCE FILE: KROSHKA MOYA.MP3
015107  MSMMMOB.40                       V     C        00:00:23:22 00:00:23:23 02:25:49:07 02:25:52:13 
M2      MSMMMOB.40                                000.0 00:00:23:22 
*FROM CLIP NAME:  11242019_190406 
** FREEZE FRAME 
*SOURCE FILE: MSMMMOB.40
015108  BL                               V     C        00:00:00:00 00:00:03:06 02:25:49:07 02:25:52:13 
*SOURCE FILE: (NULL)
015109  SUNSAY_-_HAPPY_PEOPLE.MP3        A7    C        01:00:00:00 01:01:22:10 02:25:51:16 02:27:14:01 
*FROM CLIP NAME:  SUNSAY_-_HAPPY_PEOPLE.MP3 
*PATCH SUNSAY_-_HAPPY_PEOPLE.MP3:  FROM SOURCE 1 TO RECORD 7 
*SOURCE FILE: SUNSAY_-_HAPPY_PEOPLE.MP3
015110  SUNSAY_-_HAPPY_PEOPLE.MP3        A8    C        01:00:00:00 01:01:22:10 02:25:51:16 02:27:14:01 
*FROM CLIP NAME:  SUNSAY_-_HAPPY_PEOPLE.MP3 
*PATCH SUNSAY_-_HAPPY_PEOPLE.MP3:  FROM SOURCE 2 TO RECORD 8 
*SOURCE FILE: SUNSAY_-_HAPPY_PEOPLE.MP3
015111  BL                               V     C        00:00:00:00 00:00:00:18 02:25:52:13 02:25:53:06 
*SOURCE FILE: (NULL)
015112  BL                               V     C        00:00:00:00 00:01:21:13 02:25:52:13 02:27:14:01 
*SOURCE FILE: (NULL)
015113  CINEMASCOPE_2-35-1_CROPLINES.PNG V     C        01:04:26:01 01:05:47:01 02:25:53:01 02:27:14:01 
*FROM CLIP NAME:  CINEMASCOPE 2-35-1 CROPLINES.PNG 
*SOURCE FILE: CINEMASCOPE 2-35-1 CROPLINES.PNG
015114  _MG_0101.JPG                     V     C        01:00:00:00 01:00:01:24 02:25:53:06 02:25:55:05 
*FROM CLIP NAME:  _MG_0101.JPG 
*SOURCE FILE: _MG_0101.JPG
015115  _MG_0639.JPG                     V     C        01:00:00:00 01:00:02:00 02:25:55:05 02:25:57:05 
*FROM CLIP NAME:  _MG_0639.JPG 
*SOURCE FILE: _MG_0639.JPG
015116  _MG_0857.JPG                     V     C        01:00:00:00 01:00:02:00 02:25:57:05 02:25:59:05 
*FROM CLIP NAME:  _MG_0857.JPG 
*SOURCE FILE: _MG_0857.JPG
015117  IMG_0283.JPG                     V     C        01:00:00:00 01:00:02:00 02:25:59:05 02:26:01:05 
*FROM CLIP NAME:  IMG_0283.JPG 
*SOURCE FILE: IMG_0283.JPG
015118  IMG_7608.JPG                     V     C        01:00:00:00 01:00:02:03 02:26:01:05 02:26:03:08 
*FROM CLIP NAME:  IMG_7608.JPG 
*SOURCE FILE: IMG_7608.JPG
015119  BL                               V     C        00:00:00:00 00:01:12:21 02:26:01:05 02:27:14:01 
*SOURCE FILE: (NULL)
015120  IMG_7911.JPG                     V     C        01:00:00:02 01:00:02:00 02:26:03:08 02:26:05:06 
*FROM CLIP NAME:  IMG_7911.JPG 
*SOURCE FILE: IMG_7911.JPG
015121  IMG_7352.JPG                     V     C        01:00:00:00 01:00:02:00 02:26:05:06 02:26:07:06 
*FROM CLIP NAME:  IMG_7352.JPG 
*SOURCE FILE: IMG_7352.JPG
015122  IMG_9295.JPG                     V     C        01:00:00:00 01:00:01:21 02:26:07:06 02:26:09:02 
*FROM CLIP NAME:  IMG_9295.JPG 
*SOURCE FILE: IMG_9295.JPG
015123  IMG_9536.JPG                     V     C        01:00:00:00 01:00:02:00 02:26:09:02 02:26:11:02 
*FROM CLIP NAME:  IMG_9536.JPG 
*SOURCE FILE: IMG_9536.JPG
015124  IMG_7498.JPG                     V     C        01:00:00:00 01:00:02:01 02:26:11:02 02:26:13:03 
*FROM CLIP NAME:  IMG_7498.JPG 
*SOURCE FILE: IMG_7498.JPG
015125  _MG_0958.JPG                     V     C        01:00:00:00 01:00:02:03 02:26:13:03 02:26:15:06 
*FROM CLIP NAME:  _MG_0958.JPG 
*SOURCE FILE: _MG_0958.JPG
015126  _MG_7743.JPG                     V     C        01:00:00:00 01:00:02:01 02:26:15:06 02:26:17:07 
*FROM CLIP NAME:  _MG_7743.JPG 
*SOURCE FILE: _MG_7743.JPG
015127  _MG_8260.JPG                     V     C        01:00:00:00 01:00:02:01 02:26:17:07 02:26:19:08 
*FROM CLIP NAME:  _MG_8260.JPG 
*SOURCE FILE: _MG_8260.JPG
015128  _MG_8868.JPG                     V     C        01:00:00:00 01:00:02:00 02:26:19:08 02:26:21:08 
*FROM CLIP NAME:  _MG_8868.JPG 
*SOURCE FILE: _MG_8868.JPG
015129  _MG_9736.JPG                     V     C        01:00:00:00 01:00:02:00 02:26:21:08 02:26:23:08 
*FROM CLIP NAME:  _MG_9736.JPG 
*SOURCE FILE: _MG_9736.JPG
015130  IMG_0616.JPG                     V     C        01:00:00:00 01:00:02:00 02:26:23:08 02:26:25:08 
*FROM CLIP NAME:  IMG_0616.JPG 
*SOURCE FILE: IMG_0616.JPG
015131  IMG_7380.JPG                     V     C        01:00:00:00 01:00:02:01 02:26:25:08 02:26:27:09 
*FROM CLIP NAME:  IMG_7380.JPG 
*SOURCE FILE: IMG_7380.JPG
015132  IMG_0411.JPG                     V     C        01:00:00:00 01:00:02:00 02:26:27:09 02:26:29:09 
*FROM CLIP NAME:  IMG_0411.JPG 
*SOURCE FILE: IMG_0411.JPG
015133  IMG_7538.JPG                     V     C        01:00:00:00 01:00:02:00 02:26:29:09 02:26:31:09 
*FROM CLIP NAME:  IMG_7538.JPG 
*SOURCE FILE: IMG_7538.JPG
015134  IMG_7875.JPG                     V     C        01:00:00:00 01:00:02:00 02:26:31:09 02:26:33:09 
*FROM CLIP NAME:  IMG_7875.JPG 
*SOURCE FILE: IMG_7875.JPG
015135  IMG_0798.JPG                     V     C        01:00:00:00 01:00:02:00 02:26:33:09 02:26:35:09 
*FROM CLIP NAME:  IMG_0798.JPG 
*SOURCE FILE: IMG_0798.JPG
015136  IMG_8138.JPG                     V     C        01:00:00:00 01:00:02:00 02:26:35:09 02:26:37:09 
*FROM CLIP NAME:  IMG_8138.JPG 
*SOURCE FILE: IMG_8138.JPG
015137  IMG_8139.JPG                     V     C        01:00:00:00 01:00:02:00 02:26:37:09 02:26:39:09 
*FROM CLIP NAME:  IMG_8139.JPG 
*SOURCE FILE: IMG_8139.JPG
015138  IMG_8738.JPG                     V     C        01:00:00:00 01:00:02:00 02:26:39:09 02:26:41:09 
*FROM CLIP NAME:  IMG_8738.JPG 
*SOURCE FILE: IMG_8738.JPG
015139  IMG_8760.JPG                     V     C        01:00:00:00 01:00:02:00 02:26:41:09 02:26:43:09 
*FROM CLIP NAME:  IMG_8760.JPG 
*SOURCE FILE: IMG_8760.JPG
015140  IMG_0822.JPG                     V     C        01:00:00:00 01:00:02:00 02:26:43:09 02:26:45:09 
*FROM CLIP NAME:  IMG_0822.JPG 
*SOURCE FILE: IMG_0822.JPG
015141  IMG_9095.JPG                     V     C        01:00:00:00 01:00:02:00 02:26:45:09 02:26:47:09 
*FROM CLIP NAME:  IMG_9095.JPG 
*SOURCE FILE: IMG_9095.JPG
015142  IMG_9425.JPG                     V     C        01:00:00:00 01:00:02:00 02:26:47:09 02:26:49:09 
*FROM CLIP NAME:  IMG_9425.JPG 
*SOURCE FILE: IMG_9425.JPG
015143  IMG_8344.JPG                     V     C        01:00:00:00 01:00:02:03 02:26:49:09 02:26:51:12 
*FROM CLIP NAME:  IMG_8344.JPG 
*SOURCE FILE: IMG_8344.JPG
015144  IMG_9554.JPG                     V     C        01:00:00:00 01:00:01:20 02:26:51:12 02:26:53:07 
*FROM CLIP NAME:  IMG_9554.JPG 
*SOURCE FILE: IMG_9554.JPG
015145  IMG_8766.JPG                     V     C        01:00:00:00 01:00:02:00 02:26:53:07 02:26:55:07 
*FROM CLIP NAME:  IMG_8766.JPG 
*SOURCE FILE: IMG_8766.JPG
015146  IMG_9583.JPG                     V     C        01:00:00:00 01:00:02:00 02:26:55:07 02:26:57:07 
*FROM CLIP NAME:  IMG_9583.JPG 
*SOURCE FILE: IMG_9583.JPG
015147  IMG_9590.JPG                     V     C        01:00:00:00 01:00:02:00 02:26:57:07 02:26:59:07 
*FROM CLIP NAME:  IMG_9590.JPG 
*SOURCE FILE: IMG_9590.JPG
015148  IMG_9828.JPG                     V     C        01:00:00:00 01:00:02:00 02:26:59:07 02:27:01:07 
*FROM CLIP NAME:  IMG_9828.JPG 
*SOURCE FILE: IMG_9828.JPG
015149  IMG_9916.JPG                     V     C        01:00:00:00 01:00:02:00 02:27:01:07 02:27:03:07 
*FROM CLIP NAME:  IMG_9916.JPG 
*SOURCE FILE: IMG_9916.JPG
015150  BL                               V     C        00:00:00:00 00:00:10:19 02:27:03:07 02:27:14:01 
*SOURCE FILE: (NULL)