TITLE: GOLDRING_PREDMASTER_TO_SOUND_EDL_20191204

000001 BL                               V     C        00:00:00:00 00:00:01:10 01:00:00:00 01:00:01:10
* SOURCE FILE: (NULL)

000004 BL                               V     C        00:00:00:00 00:01:21:09 01:00:00:00 01:01:21:09
* SOURCE FILE: (NULL)

000005 BL                               V     C        00:00:00:00 00:01:29:19 01:00:00:00 01:01:29:19
* SOURCE FILE: (NULL)

000006 BL                               V     C        00:00:00:00 00:01:51:02 01:00:00:00 01:01:51:02
* SOURCE FILE: (NULL)

000007 CINEMASCOPE_2-35-1_CROPLINES.PNG V     C        01:01:57:05 01:06:00:00 01:00:00:00 01:04:02:20
* FROM CLIP NAME:  CINEMASCOPE 2-35-1 CROPLINES.PNG 
* SOURCE FILE: CINEMASCOPE 2-35-1 CROPLINES.PNG

000008 BL                               V     C        00:00:00:00 00:12:40:00 01:00:00:00 01:12:40:00
* SOURCE FILE: (NULL)

000009 BL                               V     C        00:00:00:00 00:13:32:17 01:00:00:00 01:13:32:17
* SOURCE FILE: (NULL)

000010 BL                               V     C        00:00:00:00 00:14:18:18 01:00:00:00 01:14:18:18
* SOURCE FILE: (NULL)

000011 BL                               V     C        00:00:00:00 00:28:26:00 01:00:00:00 01:28:26:00
* SOURCE FILE: (NULL)

000012 BL                               V     C        00:00:00:00 01:16:27:20 01:00:00:00 02:16:27:20
* SOURCE FILE: (NULL)

000013 BL                               V     C        00:00:00:00 01:16:54:09 01:00:00:00 02:16:54:09
* SOURCE FILE: (NULL)

000014 BL                               V     C        00:00:00:00 01:27:14:01 01:00:00:00 02:27:14:01
* SOURCE FILE: (NULL)

000015 BL                               V     C        00:00:00:00 01:27:14:01 01:00:00:00 02:27:14:01
* SOURCE FILE: (NULL)

000018 MSMMMOB.67                       V     C        00:00:15:05 00:00:15:22 01:00:01:10 01:00:02:02
* FROM CLIP NAME:  08072019_131733.NEW.02 
* SOURCE FILE: MSMMMOB.67

000031 MSMMMOB.45                       V     C        00:00:12:10 00:00:16:00 01:00:02:02 01:00:05:17
* FROM CLIP NAME:  08072019_131231.NEW.01 
* SOURCE FILE: MSMMMOB.45

000034 MSMMMOB.45                       V     C        00:00:17:19 00:00:19:02 01:00:05:17 01:00:07:00
* FROM CLIP NAME:  08072019_131231.NEW.01 
* SOURCE FILE: MSMMMOB.45

000045 MSMMMOB.45                       V     C        00:00:20:20 00:00:21:22 01:00:07:00 01:00:08:02
* FROM CLIP NAME:  08072019_131231.NEW.01 
* SOURCE FILE: MSMMMOB.45

000066 MSMMMOB.67                       V     C        00:00:33:21 00:00:36:15 01:00:08:02 01:00:10:21
* FROM CLIP NAME:  08072019_131733.NEW.02 
* SOURCE FILE: MSMMMOB.67

000089 MSMMMOB.45                       V     C        00:00:35:21 00:00:37:23 01:00:10:21 01:00:12:23
* FROM CLIP NAME:  08072019_131231.NEW.01 
* SOURCE FILE: MSMMMOB.45

000100 MSMMMOB.67                       V     C        00:00:41:00 00:00:45:04 01:00:12:23 01:00:17:03
* FROM CLIP NAME:  08072019_131733.NEW.02 
* SOURCE FILE: MSMMMOB.67

000111 MSMMMOB.45                       V     C        00:00:55:00 00:00:58:02 01:00:17:03 01:00:20:06
* FROM CLIP NAME:  08072019_131231.NEW.01 
* SOURCE FILE: MSMMMOB.45

000122 MSMMMOB.45                       V     C        00:01:03:03 00:01:13:15 01:00:20:06 01:00:30:18
* FROM CLIP NAME:  08072019_131231.NEW.01 
* SOURCE FILE: MSMMMOB.45

000133 MSMMMOB.67                       V     C        00:00:14:16 00:00:15:07 01:00:30:18 01:00:31:09
* FROM CLIP NAME:  08072019_131733.NEW.02 
* SOURCE FILE: MSMMMOB.67

000138 MSMMMOB.67                       V     C        00:01:40:17 00:01:41:22 01:00:31:09 01:00:32:14
* FROM CLIP NAME:  08072019_131733.NEW.02 
* SOURCE FILE: MSMMMOB.67

000153 MSMMMOB.13                       V     C        00:01:04:04 00:01:05:11 01:00:32:14 01:00:33:21
* FROM CLIP NAME:  08072019_142231.NEW.01 
* SOURCE FILE: MSMMMOB.13

000162 MSMMMOB.13                       V     C        00:01:07:23 00:01:09:03 01:00:33:21 01:00:35:01
* FROM CLIP NAME:  08072019_142231.NEW.01 
* SOURCE FILE: MSMMMOB.13

000171 MSMMMOB.82                       V     C        00:00:51:11 00:00:52:18 01:00:35:01 01:00:36:08
* FROM CLIP NAME:  08072019_143702.NEW.01 
* SOURCE FILE: MSMMMOB.82

000180 MSMMMOB.04                       V     C        00:01:02:23 00:01:03:20 01:00:36:08 01:00:37:05
* FROM CLIP NAME:  08072019_142935.NEW.01 
* SOURCE FILE: MSMMMOB.04

000189 MSMMMOB.82                       V     C        00:00:58:16 00:01:01:01 01:00:37:05 01:00:39:15
* FROM CLIP NAME:  08072019_143702.NEW.01 
* SOURCE FILE: MSMMMOB.82

000215 MSMMMOB.35                       V     C        14:41:39:00 14:41:41:14 01:00:39:15 01:00:42:04
* FROM CLIP NAME:  1A-9-4-CAMA 
* SOURCE FILE: MSMMMOB.35

000253 MSMMMOB.57                       V     C        00:00:59:16 00:01:01:11 01:00:42:04 01:00:44:00
* FROM CLIP NAME:  CAM3_S001_S001_T003 
* SOURCE FILE: MSMMMOB.57

000264 MSMMMOB.66                       V     C        00:00:57:06 00:01:00:01 01:00:44:00 01:00:46:19
* FROM CLIP NAME:  CAM5___S001_S001_T003 
* SOURCE FILE: MSMMMOB.66

000283 MSMMMOB.61                       V     C        02:14:34:20 02:14:37:05 01:00:46:19 01:00:49:04
* FROM CLIP NAME:  C0003_V1-0005 
* SOURCE FILE: MSMMMOB.61

000285 MSMMMOB.25                       V     C        05:45:27:11 05:45:30:14 01:00:49:04 01:00:52:07
* FROM CLIP NAME:  C0003_V1-0006 
* SOURCE FILE: MSMMMOB.25

000294 MSMMMOB.57                       V     C        00:01:09:19 00:01:13:06 01:00:52:07 01:00:55:19
* FROM CLIP NAME:  CAM3_S001_S001_T003 
* SOURCE FILE: MSMMMOB.57

000305 MSMMMOB.66                       V     C        00:01:09:01 00:01:11:01 01:00:55:19 01:00:57:19
* FROM CLIP NAME:  CAM5___S001_S001_T003 
* SOURCE FILE: MSMMMOB.66

000306 MSMMMOB.57                       V     C        00:01:15:06 00:01:17:14 01:00:57:19 01:01:00:02
* FROM CLIP NAME:  CAM3_S001_S001_T003 
* SOURCE FILE: MSMMMOB.57

000315 MSMMMOB.66                       V     C        00:01:13:09 00:01:14:23 01:01:00:02 01:01:01:16
* FROM CLIP NAME:  CAM5___S001_S001_T003 
* SOURCE FILE: MSMMMOB.66

000320 MSMMMOB.04                       V     C        00:01:42:21 00:01:44:14 01:01:01:16 01:01:03:09
* FROM CLIP NAME:  08072019_142935.NEW.01 
* SOURCE FILE: MSMMMOB.04

000327 MSMMMOB.35                       V     C        14:42:02:00 14:42:03:08 01:01:03:09 01:01:04:15
* FROM CLIP NAME:  1A-9-4-CAMA 
* SOURCE FILE: MSMMMOB.35

000330 MSMMMOB.01                       V     C        09:39:04:07 09:39:07:04 01:01:04:15 01:01:05:20
* FROM CLIP NAME:  GX013210 
* SOURCE FILE: MSMMMOB.01

000337 MSMMMOB.61                       V     C        02:14:53:00 02:14:53:20 01:01:05:20 01:01:06:15
* FROM CLIP NAME:  C0003_V1-0005 
* SOURCE FILE: MSMMMOB.61

000338 MSMMMOB.82                       V     C        00:01:44:09 00:01:46:00 01:01:06:15 01:01:08:05
* FROM CLIP NAME:  08072019_143702.NEW.01 
* SOURCE FILE: MSMMMOB.82

000347 MSMMMOB.01                       V     C        09:39:07:03 09:39:08:15 01:01:08:05 01:01:08:20
* FROM CLIP NAME:  GX013210 
* SOURCE FILE: MSMMMOB.01

000348 MSMMMOB.35                       V     C        14:42:04:13 14:42:05:04 01:01:08:20 01:01:09:10
* FROM CLIP NAME:  1A-9-4-CAMA 
* SOURCE FILE: MSMMMOB.35

000357 MSMMMOB.57                       V     C        00:01:44:04 00:01:45:10 01:01:09:10 01:01:10:16
* FROM CLIP NAME:  CAM3_S001_S001_T003 
* SOURCE FILE: MSMMMOB.57

000366 MSMMMOB.82                       V     C        00:01:56:14 00:01:59:00 01:01:10:16 01:01:13:01
* FROM CLIP NAME:  08072019_143702.NEW.01 
* SOURCE FILE: MSMMMOB.82

000369 MSMMMOB.35                       V     C        14:42:14:00 14:42:15:10 01:01:13:01 01:01:14:08
* FROM CLIP NAME:  1A-9-4-CAMA 
* SOURCE FILE: MSMMMOB.35

000370 MSMMMOB.04                       V     C        14:43:01:03 14:43:02:18 01:01:14:08 01:01:15:10
* FROM CLIP NAME:  GX016378 
* SOURCE FILE: MSMMMOB.04

000371 MSMMMOB.06                       V     C        14:35:47:02 14:35:48:17 01:01:15:10 01:01:16:12
* FROM CLIP NAME:  GX013214 
* SOURCE FILE: MSMMMOB.06

000380 MSMMMOB.31                       V     C        15:20:58:20 15:20:59:05 01:01:16:12 01:01:16:21
* FROM CLIP NAME:  1A-9-3-CAMA 
* SOURCE FILE: MSMMMOB.31

000381 MSMMMOB.35                       V     C        14:42:17:11 14:42:18:18 01:01:16:21 01:01:17:21
* FROM CLIP NAME:  1A-9-4-CAMA 
* SOURCE FILE: MSMMMOB.35

000384 MSMMMOB.82                       V     C        00:01:52:19 00:01:54:00 01:01:17:21 01:01:19:02
* FROM CLIP NAME:  08072019_143702.NEW.01 
* SOURCE FILE: MSMMMOB.82

000393 MSMMMOB.21                       V     C        02:12:34:11 02:12:35:15 01:01:19:02 01:01:20:06
* FROM CLIP NAME:  C0002_V1-0003.NEW.01 
* SOURCE FILE: MSMMMOB.21

000394 MSMMMOB.82                       V     C        00:01:39:14 00:01:40:17 01:01:20:06 01:01:21:09
* FROM CLIP NAME:  08072019_143702.NEW.01 
* SOURCE FILE: MSMMMOB.82

000407 GLDR-APN-005_V01                 V     C        00:00:00:00 00:00:02:06 01:01:21:09 01:01:22:13
* FROM CLIP NAME:  GLDR-APN-005_V01 
* SOURCE FILE: GLDR-APN-005_V01 
* REPAIR: FROM SOURCE TRUE SPEED IS 49.137932 FPS

000408 MSMMMOB.01                       V     C        09:51:22:18 09:51:24:11 01:01:21:09 01:01:22:13
* FROM CLIP NAME:  GX016375 
* SOURCE FILE: MSMMMOB.01

000413 IMG_2602.JPG                     V     C        01:00:00:00 01:00:02:08 01:01:22:13 01:01:24:21
* FROM CLIP NAME:  IMG_2602.JPG 
* SOURCE FILE: IMG_2602.JPG

000414 BL                               V     C        00:00:00:00 00:50:54:06 01:01:22:13 01:52:16:19
* SOURCE FILE: (NULL)

000421 1_FOTO.JPG                       V     C        01:00:00:00 01:00:02:16 01:01:24:21 01:01:27:12
* FROM CLIP NAME:  1_FOTO.JPG 
* SOURCE FILE: 1_FOTO.JPG

000424 2_FOTO.JPG                       V     C        01:00:00:00 01:00:02:07 01:01:27:12 01:01:29:19
* FROM CLIP NAME:  2_FOTO.JPG 
* SOURCE FILE: 2_FOTO.JPG

000428 3_FOTO.JPG                       V     C        01:00:00:00 01:00:02:05 01:01:29:19 01:01:32:00
* FROM CLIP NAME:  3_FOTO.JPG 
* SOURCE FILE: 3_FOTO.JPG

000427 BL                               V     C        00:00:00:00 00:00:02:05 01:01:29:19 01:01:32:00
* SOURCE FILE: (NULL)

000441 4_FOTO.JPG                       V     C        01:00:00:00 01:00:01:11 01:01:32:00 01:01:33:10
* FROM CLIP NAME:  4_FOTO.JPG 
* SOURCE FILE: 4_FOTO.JPG

000442 BL                               V     C        00:00:00:00 00:05:27:23 01:01:32:00 01:06:59:22
* SOURCE FILE: (NULL)

000445 5_FOTO.JPG                       V     C        01:00:00:06 01:00:01:10 01:01:33:10 01:01:34:14
* FROM CLIP NAME:  5_FOTO.JPG 
* SOURCE FILE: 5_FOTO.JPG

000448 6_FOTO.JPG                       V     C        01:00:00:00 01:00:01:05 01:01:34:14 01:01:35:19
* FROM CLIP NAME:  6_FOTO.JPG 
* SOURCE FILE: 6_FOTO.JPG

000451 7_FOTO.JPG                       V     C        01:00:00:00 01:00:01:07 01:01:35:19 01:01:37:01
* FROM CLIP NAME:  7_FOTO.JPG 
* SOURCE FILE: 7_FOTO.JPG

000454 8_FOTO.JPG                       V     C        01:00:00:00 01:00:01:05 01:01:37:01 01:01:38:06
* FROM CLIP NAME:  8_FOTO.JPG 
* SOURCE FILE: 8_FOTO.JPG

000457 21_FOTO.JPG                      V     C        01:00:00:00 01:00:01:03 01:01:38:06 01:01:39:09
* FROM CLIP NAME:  21_FOTO.JPG 
* SOURCE FILE: 21_FOTO.JPG

000460 9_FOTO.JPG                       V     C        01:00:00:00 01:00:01:05 01:01:39:09 01:01:40:14
* FROM CLIP NAME:  9_FOTO.JPG 
* SOURCE FILE: 9_FOTO.JPG

000463 10_FOTO.JPG                      V     C        01:00:00:06 01:00:01:09 01:01:40:14 01:01:41:17
* FROM CLIP NAME:  10_FOTO.JPG 
* SOURCE FILE: 10_FOTO.JPG

000466 11_FOTO.JPG                      V     C        01:00:00:00 01:00:01:07 01:01:41:17 01:01:43:00
* FROM CLIP NAME:  11_FOTO.JPG 
* SOURCE FILE: 11_FOTO.JPG

000469 12_FOTO.JPG                      V     C        01:00:00:00 01:00:01:05 01:01:43:00 01:01:44:04
* FROM CLIP NAME:  12_FOTO.JPG 
* SOURCE FILE: 12_FOTO.JPG

000472 13_FOTO.JPG                      V     C        01:00:00:00 01:00:02:11 01:01:44:04 01:01:46:15
* FROM CLIP NAME:  13_FOTO.JPG 
* SOURCE FILE: 13_FOTO.JPG

000475 14_FOTO.JPG                      V     C        01:00:00:02 01:00:01:06 01:01:46:15 01:01:47:19
* FROM CLIP NAME:  14_FOTO.JPG 
* SOURCE FILE: 14_FOTO.JPG

000478 15_FOTO.JPG                      V     C        01:00:00:00 01:00:01:05 01:01:47:19 01:01:49:00
* FROM CLIP NAME:  15_FOTO.JPG 
* SOURCE FILE: 15_FOTO.JPG

000481 16_FOTO.JPG                      V     C        01:00:00:00 01:00:02:03 01:01:49:00 01:01:51:02
* FROM CLIP NAME:  16_FOTO.JPG 
* SOURCE FILE: 16_FOTO.JPG

000484 17_FOTO.JPG                      V     C        01:00:01:02 01:00:02:01 01:01:51:02 01:01:52:01
* FROM CLIP NAME:  17_FOTO.JPG 
* SOURCE FILE: 17_FOTO.JPG

000485 MSMMMOB.15                       V     C        19:13:34:19 19:13:41:19 01:01:51:02 01:01:58:02
* FROM CLIP NAME:  03-09-01NS 
* SOURCE FILE: MSMMMOB.15

000488 18_FOTO.JPG                      V     C        01:00:00:10 01:00:01:09 01:01:52:01 01:01:53:00
* FROM CLIP NAME:  18_FOTO.JPG 
* SOURCE FILE: 18_FOTO.JPG

000491 19_FOTO.JPG                      V     C        01:00:01:18 01:00:02:17 01:01:53:00 01:01:54:00
* FROM CLIP NAME:  19_FOTO.JPG 
* SOURCE FILE: 19_FOTO.JPG

000500 20_FOTO.JPG                      V     C        01:00:01:05 01:00:02:05 01:01:54:00 01:01:55:00
* FROM CLIP NAME:  20_FOTO.JPG 
* SOURCE FILE: 20_FOTO.JPG

000503 STOCK-PHOTO-BEAUTIFUL-PASSIONATE V     C        01:00:01:10 01:00:02:15 01:01:55:00 01:01:56:04
* FROM CLIP NAME:  STOCK-PHOTO-BEAUTIFUL-PASSIONATE-COUPLE-IS-HAVING-SEX-ON-BED-662146459.JPG 
* SOURCE FILE: STOCK-PHOTO-BEAUTIFUL-PASSIONATE-COUPLE-IS-HAVING-SEX-ON-BED-662146459.JPG

000504 STOCK-PHOTO-NUDE-COUPLE-PASSIONA V     C        01:00:00:10 01:00:02:02 01:01:56:04 01:01:57:21
* FROM CLIP NAME:  STOCK-PHOTO-NUDE-COUPLE-PASSIONATE-COUPLE-KISSING-BOY-AND-GIRL-HAVING-SEX-YOUNG-LOVERS-PEOPLE-IN-LOVE-1287826540.JPG 
* SOURCE FILE: STOCK-PHOTO-NUDE-COUPLE-PASSIONATE-COUPLE-KISSING-BOY-AND-GIRL-HAVING-SEX-YOUNG-LOVERS-PEOPLE-IN-LOVE-1287826540.JPG

000507 BL                               V     C        00:00:00:00 00:11:30:23 01:01:57:21 01:13:28:19
* SOURCE FILE: (NULL)

000508 MSMMMOB.24                       V     C        17:21:56:22 17:22:00:02 01:01:58:02 01:02:01:07
* FROM CLIP NAME:  A054C007_190808_R32C 
* SOURCE FILE: MSMMMOB.24

000519 MSMMMOB.42                       V     C        17:22:00:02 17:22:02:00 01:02:01:07 01:02:03:04
* FROM CLIP NAME:  B009C001_190808_R16N 
* SOURCE FILE: MSMMMOB.42

000520 MSMMMOB.45                       V     C        17:33:17:13 17:33:18:16 01:02:03:04 01:02:04:07
* FROM CLIP NAME:  A054C008_190808_R32C 
* SOURCE FILE: MSMMMOB.45

000522 MSMMMOB.42                       V     C        17:22:03:02 17:22:04:15 01:02:04:07 01:02:05:20
* FROM CLIP NAME:  B009C001_190808_R16N 
* SOURCE FILE: MSMMMOB.42

000541 MSMMMOB.59                       V     C        18:18:49:23 18:18:51:20 01:02:05:20 01:02:07:17
* FROM CLIP NAME:  B010C001_190808_R16N 
* SOURCE FILE: MSMMMOB.59

000542 MSMMMOB.53                       V     C        18:18:51:18 18:18:52:20 01:02:07:17 01:02:08:19
* FROM CLIP NAME:  A055C005_190808_R32C 
* SOURCE FILE: MSMMMOB.53

000561 MSMMMOB.69                       V     C        17:33:24:23 17:33:25:23 01:02:08:19 01:02:09:19
* FROM CLIP NAME:  B009C002_190808_R16N 
* SOURCE FILE: MSMMMOB.69

000562 MSMMMOB.80                       V     C        19:05:16:00 19:05:19:06 01:02:09:19 01:02:13:01
* FROM CLIP NAME:  B010C008_190808_R16N 
* SOURCE FILE: MSMMMOB.80

000573 MSMMMOB.69                       V     C        17:33:29:19 17:33:31:23 01:02:13:01 01:02:15:05
* FROM CLIP NAME:  B009C002_190808_R16N 
* SOURCE FILE: MSMMMOB.69

000593 MSMMMOB.63                       V     C        18:52:34:05 18:52:36:05 01:02:15:05 01:02:17:05
* FROM CLIP NAME:  B010C006_190808_R16N 
* SOURCE FILE: MSMMMOB.63

000594 MSMMMOB.82                       V     C        17:56:10:16 17:56:13:00 01:02:17:05 01:02:19:13
* FROM CLIP NAME:  B009C005_190808_R16N 
* SOURCE FILE: MSMMMOB.82

000613 MSMMMOB.35                       V     C        17:37:15:14 17:37:17:18 01:02:19:13 01:02:21:17
* FROM CLIP NAME:  A054C009_190808_R32C 
* SOURCE FILE: MSMMMOB.35

000632 MSMMMOB.82                       V     C        17:56:14:14 17:56:16:01 01:02:21:17 01:02:23:04
* FROM CLIP NAME:  B009C005_190808_R16N 
* SOURCE FILE: MSMMMOB.82

000633 MSMMMOB.80                       V     C        19:05:30:08 19:05:32:20 01:02:23:04 01:02:25:16
* FROM CLIP NAME:  B010C008_190808_R16N 
* SOURCE FILE: MSMMMOB.80

000634 MSMMMOB.82                       V     C        17:56:17:06 17:56:21:08 01:02:25:16 01:02:29:18
* FROM CLIP NAME:  B009C005_190808_R16N 
* SOURCE FILE: MSMMMOB.82

000644 MSMMMOB.42                       V     C        17:22:27:11 17:22:32:12 01:02:29:18 01:02:34:19
* FROM CLIP NAME:  B009C001_190808_R16N 
* SOURCE FILE: MSMMMOB.42

000655 MSMMMOB.53                       V     C        18:19:22:00 18:19:23:00 01:02:34:19 01:02:35:20
* FROM CLIP NAME:  A055C005_190808_R32C 
* SOURCE FILE: MSMMMOB.53

000665 MSMMMOB.09                       V     C        19:05:44:18 19:05:45:21 01:02:35:20 01:02:36:23
* FROM CLIP NAME:  A056C005_190808_R32C 
* SOURCE FILE: MSMMMOB.09

000666 MSMMMOB.69                       V     C        17:33:50:15 17:33:51:22 01:02:36:23 01:02:38:05
* FROM CLIP NAME:  B009C002_190808_R16N 
* SOURCE FILE: MSMMMOB.69

000687 MSMMMOB.09                       V     C        19:05:48:22 19:05:50:17 01:02:38:05 01:02:40:00
* FROM CLIP NAME:  A056C005_190808_R32C 
* SOURCE FILE: MSMMMOB.09

000698 MSMMMOB.69                       V     C        17:33:54:06 17:33:56:01 01:02:40:00 01:02:41:20
* FROM CLIP NAME:  B009C002_190808_R16N 
* SOURCE FILE: MSMMMOB.69

000699 MSMMMOB.09                       V     C        19:05:52:12 19:05:54:18 01:02:41:20 01:02:44:01
* FROM CLIP NAME:  A056C005_190808_R32C 
* SOURCE FILE: MSMMMOB.09

000709 MSMMMOB.69                       V     C        17:33:59:03 17:34:00:16 01:02:44:01 01:02:45:14
* FROM CLIP NAME:  B009C002_190808_R16N 
* SOURCE FILE: MSMMMOB.69

000710 MSMMMOB.09                       V     C        19:05:56:06 19:05:57:08 01:02:45:14 01:02:46:16
* FROM CLIP NAME:  A056C005_190808_R32C 
* SOURCE FILE: MSMMMOB.09

000729 MSMMMOB.69                       V     C        17:34:01:10 17:34:02:10 01:02:46:16 01:02:47:16
* FROM CLIP NAME:  B009C002_190808_R16N 
* SOURCE FILE: MSMMMOB.69

000750 MSMMMOB.23                       V     C        18:53:10:11 18:53:12:14 01:02:47:16 01:02:49:19
* FROM CLIP NAME:  A056C003_190808_R32C 
* SOURCE FILE: MSMMMOB.23

000760 MSMMMOB.35                       V     C        17:37:49:19 17:37:53:04 01:02:49:19 01:02:53:04
* FROM CLIP NAME:  A054C009_190808_R32C 
* SOURCE FILE: MSMMMOB.35

000771 MSMMMOB.23                       V     C        18:53:18:04 18:53:20:00 01:02:53:04 01:02:55:00
* FROM CLIP NAME:  A056C003_190808_R32C 
* SOURCE FILE: MSMMMOB.23

000781 MSMMMOB.41                       V     C        17:37:58:05 17:37:59:10 01:02:55:00 01:02:56:04
* FROM CLIP NAME:  B009C003_190808_R16N 
* SOURCE FILE: MSMMMOB.41

000801 MSMMMOB.35                       V     C        17:37:59:22 17:38:01:19 01:02:56:04 01:02:58:01
* FROM CLIP NAME:  A054C009_190808_R32C 
* SOURCE FILE: MSMMMOB.35

000811 MSMMMOB.23                       V     C        18:53:22:22 18:53:26:04 01:02:58:01 01:03:01:08
* FROM CLIP NAME:  A056C003_190808_R32C 
* SOURCE FILE: MSMMMOB.23

000821 MSMMMOB.45                       V     C        17:34:22:18 17:34:25:01 01:03:01:08 01:03:03:16
* FROM CLIP NAME:  A054C008_190808_R32C 
* SOURCE FILE: MSMMMOB.45

000822 MSMMMOB.23                       V     C        18:53:26:04 18:53:27:20 01:03:03:16 01:03:05:07
* FROM CLIP NAME:  A056C003_190808_R32C 
* SOURCE FILE: MSMMMOB.23

000845 MSMMMOB.41                       V     C        17:38:04:22 17:38:06:08 01:03:05:07 01:03:06:18
* FROM CLIP NAME:  B009C003_190808_R16N 
* SOURCE FILE: MSMMMOB.41

000866 MSMMMOB.23                       V     C        18:53:27:22 18:53:29:02 01:03:06:18 01:03:07:23
* FROM CLIP NAME:  A056C003_190808_R32C 
* SOURCE FILE: MSMMMOB.23

000867 MSMMMOB.45                       V     C        17:34:26:09 17:34:30:04 01:03:07:23 01:03:11:18
* FROM CLIP NAME:  A054C008_190808_R32C 
* SOURCE FILE: MSMMMOB.45

000877 MSMMMOB.80                       V     C        19:07:24:11 19:07:27:14 01:03:11:18 01:03:14:21
* FROM CLIP NAME:  B010C008_190808_R16N 
* SOURCE FILE: MSMMMOB.80

000887 MSMMMOB.24                       V     C        17:23:15:18 17:23:18:07 01:03:14:21 01:03:17:10
* FROM CLIP NAME:  A054C007_190808_R32C 
* SOURCE FILE: MSMMMOB.24

000897 MSMMMOB.23                       V     C        18:53:35:16 18:53:36:18 01:03:17:10 01:03:18:12
* FROM CLIP NAME:  A056C003_190808_R32C 
* SOURCE FILE: MSMMMOB.23

000900 MSMMMOB.69                       V     C        17:34:34:00 17:34:35:22 01:03:18:12 01:03:20:10
* FROM CLIP NAME:  B009C002_190808_R16N 
* SOURCE FILE: MSMMMOB.69

000917 MSMMMOB.96                       V     C        19:02:24:07 19:02:27:17 01:03:20:10 01:03:23:20
* FROM CLIP NAME:  A074C008_190813_R32C 
* SOURCE FILE: MSMMMOB.96

000930 MSMMMOB.16                       V     C        18:17:16:16 18:17:18:03 01:03:23:20 01:03:25:07
* FROM CLIP NAME:  A073C007_190813_R32C 
* SOURCE FILE: MSMMMOB.16

000939 MSMMMOB.96                       V     C        19:02:29:14 19:02:35:07 01:03:25:07 01:03:31:00
* FROM CLIP NAME:  A074C008_190813_R32C 
* SOURCE FILE: MSMMMOB.96

000956 MSMMMOB.32                       V     C        18:38:57:12 18:38:58:16 01:03:31:00 01:03:32:04
* FROM CLIP NAME:  B021C001_190813_R481 
* SOURCE FILE: MSMMMOB.32

000973 MSMMMOB.18                       V     C        19:47:07:06 19:47:10:11 01:03:32:04 01:03:35:09
* FROM CLIP NAME:  A074C009_190813_R32C 
* SOURCE FILE: MSMMMOB.18

000974 MSMMMOB.11                       V     C        19:47:10:11 19:47:13:10 01:03:35:09 01:03:38:08
* FROM CLIP NAME:  B021C002_190813_R481 
* SOURCE FILE: MSMMMOB.11

000983 MSMMMOB.83                       V     C        18:49:44:18 18:49:46:19 01:03:38:08 01:03:40:09
* FROM CLIP NAME:  A074C005_190813_R32C 
* SOURCE FILE: MSMMMOB.83

000992 MSMMMOB.68                       V     C        19:50:22:00 19:50:23:10 01:03:40:09 01:03:41:19
* FROM CLIP NAME:  A074C010_190813_R32C 
* SOURCE FILE: MSMMMOB.68

001001 MSMMMOB.32                       V     C        18:39:11:02 18:39:12:16 01:03:41:19 01:03:43:08
* FROM CLIP NAME:  B021C001_190813_R481 
* SOURCE FILE: MSMMMOB.32

001018 MSMMMOB.83                       V     C        18:49:49:00 18:49:52:05 01:03:43:08 01:03:46:13
* FROM CLIP NAME:  A074C005_190813_R32C 
* SOURCE FILE: MSMMMOB.83

001027 MSMMMOB.93                       V     C        20:00:38:13 20:00:40:09 01:03:46:13 01:03:48:09
* FROM CLIP NAME:  B021C005_190813_R481 
* SOURCE FILE: MSMMMOB.93

001044 MSMMMOB.41                       V     C        18:39:18:16 18:39:19:15 01:03:48:09 01:03:49:08
* FROM CLIP NAME:  A074C001_190813_R32C 
* SOURCE FILE: MSMMMOB.41

001069 MSMMMOB.83                       V     C        18:49:55:06 18:49:57:05 01:03:49:08 01:03:51:07
* FROM CLIP NAME:  A074C005_190813_R32C 
* SOURCE FILE: MSMMMOB.83

001070 MSMMMOB.32                       V     C        18:39:22:19 18:39:23:22 01:03:51:07 01:03:52:10
* FROM CLIP NAME:  B021C001_190813_R481 
* SOURCE FILE: MSMMMOB.32

001079 MSMMMOB.93                       V     C        20:01:25:03 20:01:27:07 01:03:52:10 01:03:54:14
* FROM CLIP NAME:  B021C005_190813_R481 
* SOURCE FILE: MSMMMOB.93

001088 MSMMMOB.83                       V     C        18:49:59:23 18:50:01:12 01:03:54:14 01:03:56:03
* FROM CLIP NAME:  A074C005_190813_R32C 
* SOURCE FILE: MSMMMOB.83

001097 MSMMMOB.93                       V     C        20:01:28:12 20:01:29:15 01:03:56:03 01:03:57:06
* FROM CLIP NAME:  B021C005_190813_R481 
* SOURCE FILE: MSMMMOB.93

001114 MSMMMOB.83                       V     C        18:50:01:22 18:50:02:22 01:03:57:06 01:03:58:06
* FROM CLIP NAME:  A074C005_190813_R32C 
* SOURCE FILE: MSMMMOB.83

001123 MSMMMOB.93                       V     C        20:01:30:06 20:01:32:10 01:03:58:06 01:04:00:10
* FROM CLIP NAME:  B021C005_190813_R481 
* SOURCE FILE: MSMMMOB.93

001132 MSMMMOB.32                       V     C        18:39:31:00 18:39:33:10 01:04:00:10 01:04:02:20
* FROM CLIP NAME:  B021C001_190813_R481 
* SOURCE FILE: MSMMMOB.32

001133 MSMMMOB.16                       V     C        18:17:56:03 18:17:58:12 01:04:02:20 01:04:05:04
* FROM CLIP NAME:  A073C007_190813_R32C 
* SOURCE FILE: MSMMMOB.16

001134 CINEMASCOPE_2-35-1_CROPLINES.PNG V     C        01:01:57:05 01:05:53:15 01:04:02:20 01:07:59:05
* FROM CLIP NAME:  CINEMASCOPE 2-35-1 CROPLINES.PNG 
* SOURCE FILE: CINEMASCOPE 2-35-1 CROPLINES.PNG

001151 MSMMMOB.96                       V     C        19:03:28:15 19:03:29:17 01:04:05:04 01:04:06:06
* FROM CLIP NAME:  A074C008_190813_R32C 
* SOURCE FILE: MSMMMOB.96

001160 MSMMMOB.64                       V     C        19:58:34:22 19:58:36:07 01:04:06:06 01:04:07:16
* FROM CLIP NAME:  B021C004_190813_R481 
* SOURCE FILE: MSMMMOB.64

001169 MSMMMOB.32                       V     C        18:39:36:08 18:39:38:04 01:04:07:16 01:04:09:12
* FROM CLIP NAME:  B021C001_190813_R481 
* SOURCE FILE: MSMMMOB.32

001170 MSMMMOB.34                       V     C        20:01:40:05 20:01:42:07 01:04:09:12 01:04:11:14
* FROM CLIP NAME:  A074C012_190813_R32C 
* SOURCE FILE: MSMMMOB.34

001179 MSMMMOB.32                       V     C        18:39:38:18 18:39:39:14 01:04:11:14 01:04:12:10
* FROM CLIP NAME:  B021C001_190813_R481 
* SOURCE FILE: MSMMMOB.32

001180 MSMMMOB.34                       V     C        20:01:43:03 20:01:44:18 01:04:12:10 01:04:14:00
* FROM CLIP NAME:  A074C012_190813_R32C 
* SOURCE FILE: MSMMMOB.34

001181 MSMMMOB.32                       V     C        18:39:41:05 18:39:42:12 01:04:14:00 01:04:15:07
* FROM CLIP NAME:  B021C001_190813_R481 
* SOURCE FILE: MSMMMOB.32

001198 MSMMMOB.59                       V     C        19:50:49:21 19:50:51:00 01:04:15:07 01:04:16:10
* FROM CLIP NAME:  B021C003_190813_R481 
* SOURCE FILE: MSMMMOB.59

001207 MSMMMOB.83                       V     C        18:50:16:00 18:50:17:09 01:04:16:10 01:04:17:19
* FROM CLIP NAME:  A074C005_190813_R32C 
* SOURCE FILE: MSMMMOB.83

001224 MSMMMOB.96                       V     C        19:03:33:03 19:03:37:01 01:04:17:19 01:04:21:17
* FROM CLIP NAME:  A074C008_190813_R32C 
* SOURCE FILE: MSMMMOB.96

001225 MSMMMOB.59                       V     C        19:50:56:15 19:50:57:23 01:04:21:17 01:04:23:00
* FROM CLIP NAME:  B021C003_190813_R481 
* SOURCE FILE: MSMMMOB.59

001234 MSMMMOB.83                       V     C        18:50:19:12 18:50:20:19 01:04:23:00 01:04:24:07
* FROM CLIP NAME:  A074C005_190813_R32C 
* SOURCE FILE: MSMMMOB.83

001251 MSMMMOB.32                       V     C        18:39:46:22 18:39:54:03 01:04:24:07 01:04:31:13
* FROM CLIP NAME:  B021C001_190813_R481 
* SOURCE FILE: MSMMMOB.32

001284 MSMMMOB.68                       V     C        19:51:06:09 19:51:10:17 01:04:31:13 01:04:35:21
* FROM CLIP NAME:  A074C010_190813_R32C 
* SOURCE FILE: MSMMMOB.68

001287 MSMMMOB.62                       V     C        18:31:01:14 18:31:05:23 01:04:35:21 01:04:40:05
* FROM CLIP NAME:  A073C009_190813_R32C 
* SOURCE FILE: MSMMMOB.62

001297 MSMMMOB.39                       V     C        13:40:05:21 13:40:06:14 01:04:40:05 01:04:40:23
* FROM CLIP NAME:  A052C006_190808_R32C 
* SOURCE FILE: MSMMMOB.39

001299 MSMMMOB.01                       V     C        13:32:53:21 13:32:54:10 01:04:40:23 01:04:41:12
* FROM CLIP NAME:  A052C005_190808_R32C 
* SOURCE FILE: MSMMMOB.01

001302 MSMMMOB.39                       V     C        13:40:20:23 13:40:21:15 01:04:41:12 01:04:42:04
* FROM CLIP NAME:  A052C006_190808_R32C 
* SOURCE FILE: MSMMMOB.39

001303 MSMMMOB.39                       V     C        13:40:29:18 13:40:30:12 01:04:42:04 01:04:42:23
* FROM CLIP NAME:  A052C006_190808_R32C 
* SOURCE FILE: MSMMMOB.39

001304 MSMMMOB.65                       V     C        11:13:20:21 11:13:22:13 01:04:42:23 01:04:44:15
* FROM CLIP NAME:  B004C005_190808_R16N 
* SOURCE FILE: MSMMMOB.65

001305 MSMMMOB.39                       V     C        13:40:24:00 13:40:24:20 01:04:44:15 01:04:45:11
* FROM CLIP NAME:  A052C006_190808_R32C 
* SOURCE FILE: MSMMMOB.39

001306 MSMMMOB.50                       V     C        13:54:16:19 13:54:17:15 01:04:45:11 01:04:46:07
* FROM CLIP NAME:  A053C001_190808_R32C 
* SOURCE FILE: MSMMMOB.50

001307 MSMMMOB.74                       V     C        12:52:09:00 12:52:10:03 01:04:46:07 01:04:47:11
* FROM CLIP NAME:  B007C002_190808_R16N 
* SOURCE FILE: MSMMMOB.74

001308 MSMMMOB.51                       V     C        11:50:20:03 11:50:21:13 01:04:47:11 01:04:48:21
* FROM CLIP NAME:  B005C002_190808_R16N 
* SOURCE FILE: MSMMMOB.51

001309 MSMMMOB.39                       V     C        13:40:43:02 13:40:44:11 01:04:48:21 01:04:50:05
* FROM CLIP NAME:  A052C006_190808_R32C 
* SOURCE FILE: MSMMMOB.39

001320 MSMMMOB.02                       V     C        12:27:29:08 12:27:30:03 01:04:50:05 01:04:51:00
* FROM CLIP NAME:  B006C001_190808_R16N 
* SOURCE FILE: MSMMMOB.02

001323 MSMMMOB.39                       V     C        13:40:49:18 13:40:51:02 01:04:51:00 01:04:52:09
* FROM CLIP NAME:  A052C006_190808_R32C 
* SOURCE FILE: MSMMMOB.39

001336 MSMMMOB.74                       V     C        12:52:25:09 12:52:26:16 01:04:52:09 01:04:53:16
* FROM CLIP NAME:  B007C002_190808_R16N 
* SOURCE FILE: MSMMMOB.74

001347 MSMMMOB.39                       V     C        13:40:51:07 13:40:52:10 01:04:53:16 01:04:54:19
* FROM CLIP NAME:  A052C006_190808_R32C 
* SOURCE FILE: MSMMMOB.39

001348 MSMMMOB.85                       V     C        14:07:49:05 14:07:54:11 01:04:54:19 01:05:00:00
* FROM CLIP NAME:  A053C003_190808_R32C 
* SOURCE FILE: MSMMMOB.85

001377 MSMMMOB.74                       V     C        12:52:31:22 12:52:33:00 01:05:00:00 01:05:01:03
* FROM CLIP NAME:  B007C002_190808_R16N 
* SOURCE FILE: MSMMMOB.74

001388 MSMMMOB.04                       V     C        13:40:58:00 13:40:59:03 01:05:01:03 01:05:02:07
* FROM CLIP NAME:  B007C006_190808_R16N 
* SOURCE FILE: MSMMMOB.04

001422 MSMMMOB.85                       V     C        14:07:57:18 14:08:02:07 01:05:02:07 01:05:06:21
* FROM CLIP NAME:  A053C003_190808_R32C 
* SOURCE FILE: MSMMMOB.85

001423 MSMMMOB.51                       V     C        11:50:53:01 11:50:54:00 01:05:06:21 01:05:07:19
* FROM CLIP NAME:  B005C002_190808_R16N 
* SOURCE FILE: MSMMMOB.51

001426 MSMMMOB.51                       V     C        11:50:56:03 11:50:56:13 01:05:07:19 01:05:08:04
* FROM CLIP NAME:  B005C002_190808_R16N 
* SOURCE FILE: MSMMMOB.51

001427 MSMMMOB.51                       V     C        11:51:00:19 11:51:01:04 01:05:08:04 01:05:08:14
* FROM CLIP NAME:  B005C002_190808_R16N 
* SOURCE FILE: MSMMMOB.51

001428 MSMMMOB.51                       V     C        11:51:06:20 11:51:07:05 01:05:08:14 01:05:09:00
* FROM CLIP NAME:  B005C002_190808_R16N 
* SOURCE FILE: MSMMMOB.51

001429 MSMMMOB.02                       V     C        12:28:30:04 12:28:31:02 01:05:09:00 01:05:09:22
* FROM CLIP NAME:  B006C001_190808_R16N 
* SOURCE FILE: MSMMMOB.02

001430 MSMMMOB.85                       V     C        14:08:21:07 14:08:22:00 01:05:09:22 01:05:10:15
* FROM CLIP NAME:  A053C003_190808_R32C 
* SOURCE FILE: MSMMMOB.85

001431 MSMMMOB.52                       V     C        14:08:17:12 14:08:18:04 01:05:10:15 01:05:11:07
* FROM CLIP NAME:  B007C009_190808_R16N 
* SOURCE FILE: MSMMMOB.52

001432 MSMMMOB.39                       V     C        13:41:43:13 13:41:44:06 01:05:11:07 01:05:12:00
* FROM CLIP NAME:  A052C006_190808_R32C 
* SOURCE FILE: MSMMMOB.39

001433 MSMMMOB.04                       V     C        13:41:50:15 13:41:51:17 01:05:12:00 01:05:13:02
* FROM CLIP NAME:  B007C006_190808_R16N 
* SOURCE FILE: MSMMMOB.04

001434 MSMMMOB.17                       V     C        13:56:20:04 13:56:23:04 01:05:13:02 01:05:16:02
* FROM CLIP NAME:  B007C007_190808_R16N 
* SOURCE FILE: MSMMMOB.17

001444 MSMMMOB.39                       V     C        13:41:58:18 13:41:59:12 01:05:16:02 01:05:16:21
* FROM CLIP NAME:  A052C006_190808_R32C 
* SOURCE FILE: MSMMMOB.39

001455 MSMMMOB.38                       V     C        12:44:02:08 12:44:03:12 01:05:16:21 01:05:18:00
* FROM CLIP NAME:  A051C005_190808_R32C 
* SOURCE FILE: MSMMMOB.38

001457 MSMMMOB.39                       V     C        13:42:07:21 13:42:09:04 01:05:18:00 01:05:19:08
* FROM CLIP NAME:  A052C006_190808_R32C 
* SOURCE FILE: MSMMMOB.39

001485 MSMMMOB.85                       V     C        14:09:49:16 14:09:51:02 01:05:19:08 01:05:20:19
* FROM CLIP NAME:  A053C003_190808_R32C 
* SOURCE FILE: MSMMMOB.85

001496 MSMMMOB.74                       V     C        12:54:02:11 12:54:04:00 01:05:20:19 01:05:22:08
* FROM CLIP NAME:  B007C002_190808_R16N 
* SOURCE FILE: MSMMMOB.74

001507 MSMMMOB.39                       V     C        13:42:24:09 13:42:27:14 01:05:22:08 01:05:25:13
* FROM CLIP NAME:  A052C006_190808_R32C 
* SOURCE FILE: MSMMMOB.39

001518 MSMMMOB.17                       V     C        13:56:47:06 13:56:48:08 01:05:25:13 01:05:26:15
* FROM CLIP NAME:  B007C007_190808_R16N 
* SOURCE FILE: MSMMMOB.17

001530 MSMMMOB.39                       V     C        13:42:28:08 13:42:31:06 01:05:26:15 01:05:29:13
* FROM CLIP NAME:  A052C006_190808_R32C 
* SOURCE FILE: MSMMMOB.39

001541 MSMMMOB.08                       V     C        13:20:28:08 13:20:30:11 01:05:29:13 01:05:31:16
* FROM CLIP NAME:  B007C004_190808_R16N 
* SOURCE FILE: MSMMMOB.08

001554 MSMMMOB.39                       V     C        13:42:54:03 13:42:56:02 01:05:31:16 01:05:33:15
* FROM CLIP NAME:  A052C006_190808_R32C 
* SOURCE FILE: MSMMMOB.39

001567 MSMMMOB.50                       V     C        13:58:29:01 13:58:30:14 01:05:33:15 01:05:35:03
* FROM CLIP NAME:  A053C001_190808_R32C 
* SOURCE FILE: MSMMMOB.50

001577 MSMMMOB.46                       V     C        12:45:42:09 12:45:43:11 01:05:35:03 01:05:36:05
* FROM CLIP NAME:  B006C003_190808_R16N 
* SOURCE FILE: MSMMMOB.46

001588 MSMMMOB.04                       V     C        13:43:13:06 13:43:15:13 01:05:36:05 01:05:38:12
* FROM CLIP NAME:  B007C006_190808_R16N 
* SOURCE FILE: MSMMMOB.04

001599 MSMMMOB.52                       V     C        14:12:09:14 14:12:10:09 01:05:38:12 01:05:39:07
* FROM CLIP NAME:  B007C009_190808_R16N 
* SOURCE FILE: MSMMMOB.52

001619 MSMMMOB.04                       V     C        13:43:18:13 13:43:19:22 01:05:39:07 01:05:40:16
* FROM CLIP NAME:  B007C006_190808_R16N 
* SOURCE FILE: MSMMMOB.04

001629 MSMMMOB.74                       V     C        12:54:57:22 12:54:59:00 01:05:40:16 01:05:41:19
* FROM CLIP NAME:  B007C002_190808_R16N 
* SOURCE FILE: MSMMMOB.74

001640 MSMMMOB.06                       V     C        11:16:21:05 11:16:22:11 01:05:41:19 01:05:43:00
* FROM CLIP NAME:  A050C003_190808_R32C 
* SOURCE FILE: MSMMMOB.06

001649 MSMMMOB.50                       V     C        13:58:40:17 13:58:41:15 01:05:43:00 01:05:43:23
* FROM CLIP NAME:  A053C001_190808_R32C 
* SOURCE FILE: MSMMMOB.50

001659 MSMMMOB.39                       V     C        13:43:26:11 13:43:28:04 01:05:43:23 01:05:45:16
* FROM CLIP NAME:  A052C006_190808_R32C 
* SOURCE FILE: MSMMMOB.39

001670 MSMMMOB.22                       V     C        13:21:22:09 13:21:23:18 01:05:45:16 01:05:47:00
* FROM CLIP NAME:  A052C004_190808_R32C 
* SOURCE FILE: MSMMMOB.22

001691 MSMMMOB.39                       V     C        13:43:32:18 13:43:35:06 01:05:47:00 01:05:49:13
* FROM CLIP NAME:  A052C006_190808_R32C 
* SOURCE FILE: MSMMMOB.39

001712 MSMMMOB.85                       V     C        14:12:23:06 14:12:24:17 01:05:49:13 01:05:51:00
* FROM CLIP NAME:  A053C003_190808_R32C 
* SOURCE FILE: MSMMMOB.85

001732 MSMMMOB.67                       V     C        13:36:06:12 13:36:08:07 01:05:51:00 01:05:52:19
* FROM CLIP NAME:  B007C005_190808_R16N 
* SOURCE FILE: MSMMMOB.67

001743 MSMMMOB.47                       V     C        12:55:12:21 12:55:13:16 01:05:52:19 01:05:53:14
* FROM CLIP NAME:  A052C002_190808_R32C 
* SOURCE FILE: MSMMMOB.47

001754 MSMMMOB.22                       V     C        13:21:33:11 13:21:39:12 01:05:53:14 01:05:59:15
* FROM CLIP NAME:  A052C004_190808_R32C 
* SOURCE FILE: MSMMMOB.22

001765 MSMMMOB.39                       V     C        13:43:48:07 13:43:49:15 01:05:59:15 01:06:00:23
* FROM CLIP NAME:  A052C006_190808_R32C 
* SOURCE FILE: MSMMMOB.39

001776 MSMMMOB.22                       V     C        13:21:41:10 13:21:44:07 01:06:00:23 01:06:03:20
* FROM CLIP NAME:  A052C004_190808_R32C 
* SOURCE FILE: MSMMMOB.22

001807 MSMMMOB.67                       V     C        13:36:21:16 13:36:24:00 01:06:03:20 01:06:06:04
* FROM CLIP NAME:  B007C005_190808_R16N 
* SOURCE FILE: MSMMMOB.67

001868 MSMMMOB.22                       V     C        13:21:44:21 13:21:47:05 01:06:06:04 01:06:08:13
* FROM CLIP NAME:  A052C004_190808_R32C 
* SOURCE FILE: MSMMMOB.22

001889 MSMMMOB.74                       V     C        12:55:27:08 12:55:29:04 01:06:08:13 01:06:10:09
* FROM CLIP NAME:  B007C002_190808_R16N 
* SOURCE FILE: MSMMMOB.74

001900 MSMMMOB.39                       V     C        13:43:58:16 13:44:00:03 01:06:10:09 01:06:11:21
* FROM CLIP NAME:  A052C006_190808_R32C 
* SOURCE FILE: MSMMMOB.39

001901 MSMMMOB.22                       V     C        13:21:49:00 13:21:50:14 01:06:11:21 01:06:13:10
* FROM CLIP NAME:  A052C004_190808_R32C 
* SOURCE FILE: MSMMMOB.22

001902 MSMMMOB.04                       V     C        13:44:02:02 13:44:04:04 01:06:13:10 01:06:15:12
* FROM CLIP NAME:  B007C006_190808_R16N 
* SOURCE FILE: MSMMMOB.04

001903 MSMMMOB.10                       V     C        12:12:54:19 12:12:57:09 01:06:15:12 01:06:18:02
* FROM CLIP NAME:  B005C004_190808_R16N 
* SOURCE FILE: MSMMMOB.10

001914 MSMMMOB.51                       V     C        11:53:38:14 11:53:42:11 01:06:18:02 01:06:22:00
* FROM CLIP NAME:  B005C002_190808_R16N 
* SOURCE FILE: MSMMMOB.51

001928 MSMMMOB.22                       V     C        13:22:04:00 13:22:13:18 01:06:22:00 01:06:31:17
* FROM CLIP NAME:  A052C004_190808_R32C 
* SOURCE FILE: MSMMMOB.22

001949 MSMMMOB.51                       V     C        11:53:49:04 11:53:51:08 01:06:31:17 01:06:33:21
* FROM CLIP NAME:  B005C002_190808_R16N 
* SOURCE FILE: MSMMMOB.51

001969 MSMMMOB.18                       V     C        11:23:40:15 11:23:43:12 01:06:33:21 01:06:36:18
* FROM CLIP NAME:  A057C007_190809_R32C 
* SOURCE FILE: MSMMMOB.18

001982 MSMMMOB.44                       V     C        12:27:21:22 12:27:24:16 01:06:36:18 01:06:39:12
* FROM CLIP NAME:  A058C007_190809_R32C 
* SOURCE FILE: MSMMMOB.44

001989 MSMMMOB.01                       V     C        11:57:13:04 11:57:19:02 01:06:39:12 01:06:45:10
* FROM CLIP NAME:  A058C002_190809_R32C 
* SOURCE FILE: MSMMMOB.01

002002 MSMMMOB.38                       V     C        12:30:53:02 12:30:55:22 01:06:45:10 01:06:48:05
* FROM CLIP NAME:  A058C008_190809_R32C 
* SOURCE FILE: MSMMMOB.38

002009 MSMMMOB.26                       V     C        11:52:58:04 11:52:59:21 01:06:48:05 01:06:49:22
* FROM CLIP NAME:  A058C001_190809_R32C 
* SOURCE FILE: MSMMMOB.26

002022 MSMMMOB.44                       V     C        12:27:36:03 12:27:39:02 01:06:49:22 01:06:52:21
* FROM CLIP NAME:  A058C007_190809_R32C 
* SOURCE FILE: MSMMMOB.44

002041 MSMMMOB.18                       V     C        11:24:00:22 11:24:07:23 01:06:52:21 01:06:59:22
* FROM CLIP NAME:  A057C007_190809_R32C 
* SOURCE FILE: MSMMMOB.18

002043 BL                               V     C        00:00:00:00 00:00:01:19 01:06:59:22 01:07:01:16
* SOURCE FILE: (NULL)

002042 MSMMMOB.06                       V     C        12:53:19:13 12:53:21:07 01:06:59:22 01:07:01:16
* FROM CLIP NAME:  A059C003_190809_R32C 
* SOURCE FILE: MSMMMOB.06

002050 MSMMMOB.01                       V     C        11:57:36:02 11:57:38:21 01:07:01:16 01:07:04:10
* FROM CLIP NAME:  A058C002_190809_R32C 
* SOURCE FILE: MSMMMOB.01

002051 BL                               V     C        00:00:00:00 00:00:02:19 01:07:01:16 01:07:04:10
* SOURCE FILE: (NULL)

002058 BL                               V     C        00:00:00:00 00:00:02:16 01:07:04:10 01:07:07:01
* SOURCE FILE: (NULL)

002059 MSMMMOB.06                       V     C        12:53:26:15 12:53:29:06 01:07:04:10 01:07:07:01
* FROM CLIP NAME:  A059C003_190809_R32C 
* SOURCE FILE: MSMMMOB.06

002078 MSMMMOB.31                       V     C        11:47:40:01 11:47:43:05 01:07:07:01 01:07:10:05
* FROM CLIP NAME:  A057C010_190809_R32C 
* SOURCE FILE: MSMMMOB.31

002079 BL                               V     C        00:00:00:00 00:00:10:01 01:07:07:01 01:07:17:02
* SOURCE FILE: (NULL)

002080 MSMMMOB.18                       V     C        11:24:18:14 11:24:25:11 01:07:10:05 01:07:17:02
* FROM CLIP NAME:  A057C007_190809_R32C 
* SOURCE FILE: MSMMMOB.18

002090 MSMMMOB.06                       V     C        12:54:05:23 12:54:08:00 01:07:17:02 01:07:19:03
* FROM CLIP NAME:  A059C003_190809_R32C 
* SOURCE FILE: MSMMMOB.06

002089 BL                               V     C        00:00:00:00 00:00:02:01 01:07:17:02 01:07:19:03
* SOURCE FILE: (NULL)

002102 MSMMMOB.23                       V     C        11:43:29:10 11:43:34:14 01:07:19:03 01:07:24:07
* FROM CLIP NAME:  A057C009_190809_R32C 
* SOURCE FILE: MSMMMOB.23

002103 BL                               V     C        00:00:00:00 00:00:51:00 01:07:19:03 01:08:10:03
* SOURCE FILE: (NULL)

002110 MSMMMOB.18                       V     C        11:24:36:20 11:24:41:23 01:07:24:07 01:07:29:10
* FROM CLIP NAME:  A057C007_190809_R32C 
* SOURCE FILE: MSMMMOB.18

002111 MSMMMOB.44                       V     C        12:28:24:18 12:28:27:00 01:07:29:10 01:07:31:17
* FROM CLIP NAME:  A058C007_190809_R32C 
* SOURCE FILE: MSMMMOB.44

002130 MSMMMOB.26                       V     C        11:53:50:14 11:53:55:22 01:07:31:17 01:07:37:00
* FROM CLIP NAME:  A058C001_190809_R32C 
* SOURCE FILE: MSMMMOB.26

002131 MSMMMOB.38                       V     C        12:32:07:07 12:32:09:10 01:07:37:00 01:07:39:03
* FROM CLIP NAME:  A058C008_190809_R32C 
* SOURCE FILE: MSMMMOB.38

002144 MSMMMOB.01                       V     C        11:58:32:09 11:58:38:16 01:07:39:03 01:07:45:10
* FROM CLIP NAME:  A058C002_190809_R32C 
* SOURCE FILE: MSMMMOB.01

002145 MSMMMOB.54                       V     C        12:43:03:11 12:43:05:21 01:07:45:10 01:07:47:20
* FROM CLIP NAME:  A059C001_190809_R32C 
* SOURCE FILE: MSMMMOB.54

002146 MSMMMOB.01                       V     C        11:58:41:01 11:58:44:20 01:07:47:20 01:07:51:14
* FROM CLIP NAME:  A058C002_190809_R32C 
* SOURCE FILE: MSMMMOB.01

002153 MSMMMOB.54                       V     C        12:43:09:00 12:43:09:16 01:07:51:14 01:07:52:06
* FROM CLIP NAME:  A059C001_190809_R32C 
* SOURCE FILE: MSMMMOB.54

002160 MSMMMOB.01                       V     C        11:58:45:12 11:58:46:13 01:07:52:06 01:07:53:07
* FROM CLIP NAME:  A058C002_190809_R32C 
* SOURCE FILE: MSMMMOB.01

002179 MSMMMOB.38                       V     C        12:32:37:07 12:32:39:16 01:07:53:07 01:07:55:16
* FROM CLIP NAME:  A058C008_190809_R32C 
* SOURCE FILE: MSMMMOB.38

002192 MSMMMOB.01                       V     C        11:58:50:23 11:58:54:13 01:07:55:16 01:07:59:06
* FROM CLIP NAME:  A058C002_190809_R32C 
* SOURCE FILE: MSMMMOB.01

002199 CINEMASCOPE_2-35-1_CROPLINES.PNG V     C        01:00:00:00 01:03:05:01 01:07:59:05 01:11:04:06
* FROM CLIP NAME:  CINEMASCOPE 2-35-1 CROPLINES.PNG 
* SOURCE FILE: CINEMASCOPE 2-35-1 CROPLINES.PNG

002200 MSMMMOB.38                       V     C        12:32:42:00 12:32:43:09 01:07:59:06 01:08:00:16
* FROM CLIP NAME:  A058C008_190809_R32C 
* SOURCE FILE: MSMMMOB.38

002207 MSMMMOB.01                       V     C        11:58:54:13 11:58:58:15 01:08:00:16 01:08:04:18
* FROM CLIP NAME:  A058C002_190809_R32C 
* SOURCE FILE: MSMMMOB.01

002220 MSMMMOB.44                       V     C        12:29:06:11 12:29:09:23 01:08:04:18 01:08:08:05
* FROM CLIP NAME:  A058C007_190809_R32C 
* SOURCE FILE: MSMMMOB.44

002233 MSMMMOB.01                       V     C        11:59:00:12 11:59:02:10 01:08:08:05 01:08:10:03
* FROM CLIP NAME:  A058C002_190809_R32C 
* SOURCE FILE: MSMMMOB.01

002241 TITLE.01                         V     C        01:00:17:23 01:00:20:21 01:08:10:03 01:08:13:01
* FROM CLIP NAME:  TITLE.01 
* SOURCE FILE: TITLE.01

002242 MSMMMOB.55                       V     C        20:59:42:22 20:59:45:20 01:08:10:03 01:08:13:01
* FROM CLIP NAME:  A075C006_190813_R32C 
* SOURCE FILE: MSMMMOB.55

002254 MSMMMOB.46                       V     C        20:47:15:10 20:47:19:00 01:08:13:01 01:08:16:15
* FROM CLIP NAME:  A075C004_190813_R32C 
* SOURCE FILE: MSMMMOB.46

002255 BL                               V     C        00:00:00:00 00:00:16:17 01:08:13:01 01:08:29:18
* SOURCE FILE: (NULL)

002258 MSMMMOB.17                       V     C        20:47:19:00 20:47:26:13 01:08:16:15 01:08:24:04
* FROM CLIP NAME:  B022C004_190813_R481 
* SOURCE FILE: MSMMMOB.17

002259 MSMMMOB.08                       V     C        20:54:18:00 20:54:21:01 01:08:24:04 01:08:27:05
* FROM CLIP NAME:  B022C005_190813_R481 
* SOURCE FILE: MSMMMOB.08

002271 MSMMMOB.21                       V     C        20:54:21:01 20:54:23:14 01:08:27:05 01:08:29:18
* FROM CLIP NAME:  A075C005_190813_R32C 
* SOURCE FILE: MSMMMOB.21

002272 TITLE.01                         V     C        01:00:42:10 01:00:44:17 01:08:29:18 01:08:32:00
* FROM CLIP NAME:  TITLE.01 
* SOURCE FILE: TITLE.01

002273 MSMMMOB.55                       V     C        20:59:45:00 20:59:47:07 01:08:29:18 01:08:32:00
* FROM CLIP NAME:  A075C006_190813_R32C 
* SOURCE FILE: MSMMMOB.55

002281 MSMMMOB.08                       V     C        20:54:25:04 20:54:26:07 01:08:32:00 01:08:33:03
* FROM CLIP NAME:  B022C005_190813_R481 
* SOURCE FILE: MSMMMOB.08

002282 BL                               V     C        00:00:00:00 00:05:04:19 01:08:32:00 01:13:36:19
* SOURCE FILE: (NULL)

002290 MSMMMOB.46                       V     C        20:47:33:00 20:47:35:17 01:08:33:03 01:08:35:20
* FROM CLIP NAME:  A075C004_190813_R32C 
* SOURCE FILE: MSMMMOB.46

002298 MSMMMOB.21                       V     C        20:54:30:04 20:54:33:00 01:08:35:20 01:08:38:15
* FROM CLIP NAME:  A075C005_190813_R32C 
* SOURCE FILE: MSMMMOB.21

002306 MSMMMOB.08                       V     C        20:54:33:00 20:54:35:17 01:08:38:15 01:08:41:08
* FROM CLIP NAME:  B022C005_190813_R481 
* SOURCE FILE: MSMMMOB.08

002307 MSMMMOB.17                       V     C        20:47:41:01 20:47:42:02 01:08:41:08 01:08:42:09
* FROM CLIP NAME:  B022C004_190813_R481 
* SOURCE FILE: MSMMMOB.17

002317 MSMMMOB.46                       V     C        20:47:42:02 20:47:44:19 01:08:42:09 01:08:45:01
* FROM CLIP NAME:  A075C004_190813_R32C 
* SOURCE FILE: MSMMMOB.46

002327 MSMMMOB.17                       V     C        20:47:44:19 20:47:47:00 01:08:45:01 01:08:47:06
* FROM CLIP NAME:  B022C004_190813_R481 
* SOURCE FILE: MSMMMOB.17

002337 MSMMMOB.21                       V     C        20:54:41:21 20:54:49:00 01:08:47:06 01:08:54:10
* FROM CLIP NAME:  A075C005_190813_R32C 
* SOURCE FILE: MSMMMOB.21

002338 MSMMMOB.89                       V     C        20:45:51:15 20:45:53:09 01:08:54:10 01:08:56:04
* FROM CLIP NAME:  B022C003_190813_R481 
* SOURCE FILE: MSMMMOB.89

002346 MSMMMOB.21                       V     C        20:54:51:19 20:54:54:19 01:08:56:04 01:08:59:04
* FROM CLIP NAME:  A075C005_190813_R32C 
* SOURCE FILE: MSMMMOB.21

002354 MSMMMOB.08                       V     C        20:54:54:00 20:54:56:00 01:08:59:04 01:09:01:04
* FROM CLIP NAME:  B022C005_190813_R481 
* SOURCE FILE: MSMMMOB.08

002357 MSMMMOB.21                       V     C        20:54:56:19 20:54:58:11 01:09:01:04 01:09:02:21
* FROM CLIP NAME:  A075C005_190813_R32C 
* SOURCE FILE: MSMMMOB.21

002365 MSMMMOB.46                       V     C        20:48:04:00 20:48:11:04 01:09:02:21 01:09:10:00
* FROM CLIP NAME:  A075C004_190813_R32C 
* SOURCE FILE: MSMMMOB.46

002374 MSMMMOB.47                       V     C        13:29:03:02 13:29:07:07 01:09:10:00 01:09:14:05
* FROM CLIP NAME:  A059C006_190809_R32C 
* SOURCE FILE: MSMMMOB.47

002383 MSMMMOB.20                       V     C        13:40:09:03 13:40:13:00 01:09:14:05 01:09:18:02
* FROM CLIP NAME:  A059C009_190809_R32C 
* SOURCE FILE: MSMMMOB.20

002402 MSMMMOB.48                       V     C        14:00:34:13 14:00:36:04 01:09:18:02 01:09:19:18
* FROM CLIP NAME:  A060C005_190809_R32C 
* SOURCE FILE: MSMMMOB.48

002403 MSMMMOB.19                       V     C        13:46:08:13 13:46:09:08 01:09:19:18 01:09:20:13
* FROM CLIP NAME:  A060C001_190809_R32C 
* SOURCE FILE: MSMMMOB.19

002410 MSMMMOB.48                       V     C        14:00:36:22 14:00:38:05 01:09:20:13 01:09:21:21
* FROM CLIP NAME:  A060C005_190809_R32C 
* SOURCE FILE: MSMMMOB.48

002423 MSMMMOB.19                       V     C        13:46:09:06 13:46:11:04 01:09:21:21 01:09:23:19
* FROM CLIP NAME:  A060C001_190809_R32C 
* SOURCE FILE: MSMMMOB.19

002430 MSMMMOB.48                       V     C        14:00:39:06 14:00:41:07 01:09:23:19 01:09:25:20
* FROM CLIP NAME:  A060C005_190809_R32C 
* SOURCE FILE: MSMMMOB.48

002437 MSMMMOB.19                       V     C        13:46:13:10 13:46:15:00 01:09:25:20 01:09:27:10
* FROM CLIP NAME:  A060C001_190809_R32C 
* SOURCE FILE: MSMMMOB.19

002444 MSMMMOB.34                       V     C        13:58:50:04 13:58:51:22 01:09:27:10 01:09:29:03
* FROM CLIP NAME:  A060C004_190809_R32C 
* SOURCE FILE: MSMMMOB.34

002457 MSMMMOB.20                       V     C        13:40:22:00 13:40:23:07 01:09:29:03 01:09:30:10
* FROM CLIP NAME:  A059C009_190809_R32C 
* SOURCE FILE: MSMMMOB.20

002464 MSMMMOB.27                       V     C        14:07:06:04 14:07:07:17 01:09:30:10 01:09:31:23
* FROM CLIP NAME:  A060C007_190809_R32C 
* SOURCE FILE: MSMMMOB.27

002471 MSMMMOB.52                       V     C        13:38:06:13 13:38:08:17 01:09:31:23 01:09:34:02
* FROM CLIP NAME:  A059C008_190809_R32C 
* SOURCE FILE: MSMMMOB.52

002484 MSMMMOB.47                       V     C        13:29:27:06 13:29:32:08 01:09:34:02 01:09:39:04
* FROM CLIP NAME:  A059C006_190809_R32C 
* SOURCE FILE: MSMMMOB.47

002491 MSMMMOB.27                       V     C        14:07:09:07 14:07:11:21 01:09:39:04 01:09:41:18
* FROM CLIP NAME:  A060C007_190809_R32C 
* SOURCE FILE: MSMMMOB.27

002504 MSMMMOB.52                       V     C        13:38:16:05 13:38:20:12 01:09:41:18 01:09:46:00
* FROM CLIP NAME:  A059C008_190809_R32C 
* SOURCE FILE: MSMMMOB.52

002511 MSMMMOB.48                       V     C        14:00:58:11 14:01:01:01 01:09:46:00 01:09:48:15
* FROM CLIP NAME:  A060C005_190809_R32C 
* SOURCE FILE: MSMMMOB.48

002538 MSMMMOB.20                       V     C        13:40:42:00 13:40:43:03 01:09:48:15 01:09:49:18
* FROM CLIP NAME:  A059C009_190809_R32C 
* SOURCE FILE: MSMMMOB.20

002541 MSMMMOB.27                       V     C        14:07:23:15 14:07:24:20 01:09:49:18 01:09:50:23
* FROM CLIP NAME:  A060C007_190809_R32C 
* SOURCE FILE: MSMMMOB.27

002542 MSMMMOB.20                       V     C        13:40:45:18 13:40:49:09 01:09:50:23 01:09:54:14
* FROM CLIP NAME:  A059C009_190809_R32C 
* SOURCE FILE: MSMMMOB.20

002555 MSMMMOB.48                       V     C        14:01:05:13 14:01:07:08 01:09:54:14 01:09:56:09
* FROM CLIP NAME:  A060C005_190809_R32C 
* SOURCE FILE: MSMMMOB.48

002562 MSMMMOB.20                       V     C        13:40:51:18 13:40:54:14 01:09:56:09 01:09:59:05
* FROM CLIP NAME:  A059C009_190809_R32C 
* SOURCE FILE: MSMMMOB.20

002563 MSMMMOB.48                       V     C        14:01:09:09 14:01:12:22 01:09:59:05 01:10:02:18
* FROM CLIP NAME:  A060C005_190809_R32C 
* SOURCE FILE: MSMMMOB.48

002570 MSMMMOB.20                       V     C        13:41:02:23 13:41:05:03 01:10:02:18 01:10:04:23
* FROM CLIP NAME:  A059C009_190809_R32C 
* SOURCE FILE: MSMMMOB.20

002583 MSMMMOB.27                       V     C        14:07:36:10 14:07:38:14 01:10:04:23 01:10:07:02
* FROM CLIP NAME:  A060C007_190809_R32C 
* SOURCE FILE: MSMMMOB.27

002590 MSMMMOB.34                       V     C        13:59:23:12 13:59:24:17 01:10:07:02 01:10:08:07
* FROM CLIP NAME:  A060C004_190809_R32C 
* SOURCE FILE: MSMMMOB.34

002597 MSMMMOB.20                       V     C        13:41:07:18 13:41:10:18 01:10:08:07 01:10:11:07
* FROM CLIP NAME:  A059C009_190809_R32C 
* SOURCE FILE: MSMMMOB.20

002604 MSMMMOB.48                       V     C        14:00:18:21 14:00:21:09 01:10:11:07 01:10:13:20
* FROM CLIP NAME:  A060C005_190809_R32C 
* SOURCE FILE: MSMMMOB.48

002621 MSMMMOB.33                       V     C        16:19:10:12 16:19:12:02 01:10:13:20 01:10:15:10
* FROM CLIP NAME:  A061C006_190809_R32C 
* SOURCE FILE: MSMMMOB.33

002634 MSMMMOB.05                       V     C        16:13:03:14 16:13:06:19 01:10:15:10 01:10:18:15
* FROM CLIP NAME:  A061C005_190809_R32C 
* SOURCE FILE: MSMMMOB.05

002647 MSMMMOB.13                       V     C        15:58:27:20 15:58:31:06 01:10:18:15 01:10:22:01
* FROM CLIP NAME:  A061C002_190809_R32C 
* SOURCE FILE: MSMMMOB.13

002654 MSMMMOB.05                       V     C        16:13:11:00 16:13:14:02 01:10:22:01 01:10:25:03
* FROM CLIP NAME:  A061C005_190809_R32C 
* SOURCE FILE: MSMMMOB.05

002661 MSMMMOB.33                       V     C        16:19:32:05 16:19:33:04 01:10:25:03 01:10:26:02
* FROM CLIP NAME:  A061C006_190809_R32C 
* SOURCE FILE: MSMMMOB.33

002674 MSMMMOB.22                       V     C        16:08:21:19 16:08:23:05 01:10:26:02 01:10:27:13
* FROM CLIP NAME:  A061C003_190809_R32C 
* SOURCE FILE: MSMMMOB.22

002681 MSMMMOB.02                       V     C        15:56:20:23 15:56:25:20 01:10:27:13 01:10:32:10
* FROM CLIP NAME:  A061C001_190809_R32C 
* SOURCE FILE: MSMMMOB.02

002706 MSMMMOB.05                       V     C        16:13:22:10 16:13:28:15 01:10:32:10 01:10:38:15
* FROM CLIP NAME:  A061C005_190809_R32C 
* SOURCE FILE: MSMMMOB.05

002725 MSMMMOB.02                       V     C        15:56:31:08 15:56:38:23 01:10:38:15 01:10:46:05
* FROM CLIP NAME:  A061C001_190809_R32C 
* SOURCE FILE: MSMMMOB.02

002738 MSMMMOB.15                       V     C        15:46:18:05 15:46:20:05 01:10:46:05 01:10:48:05
* FROM CLIP NAME:  A060C009_190809_R32C 
* SOURCE FILE: MSMMMOB.15

002745 MSMMMOB.02                       V     C        15:56:40:08 15:56:43:20 01:10:48:05 01:10:51:17
* FROM CLIP NAME:  A061C001_190809_R32C 
* SOURCE FILE: MSMMMOB.02

002752 MSMMMOB.22                       V     C        16:08:47:02 16:08:51:13 01:10:51:17 01:10:56:03
* FROM CLIP NAME:  A061C003_190809_R32C 
* SOURCE FILE: MSMMMOB.22

002765 MSMMMOB.13                       V     C        16:00:14:13 16:00:19:05 01:10:56:03 01:11:00:20
* FROM CLIP NAME:  A061C002_190809_R32C 
* SOURCE FILE: MSMMMOB.13

002778 MSMMMOB.22                       V     C        16:08:55:23 16:09:00:02 01:11:00:20 01:11:05:00
* FROM CLIP NAME:  A061C003_190809_R32C 
* SOURCE FILE: MSMMMOB.22

002779 CINEMASCOPE_2-35-1_CROPLINES.PNG V     C        01:00:12:08 01:01:48:01 01:11:04:06 01:12:40:00
* FROM CLIP NAME:  CINEMASCOPE 2-35-1 CROPLINES.PNG 
* SOURCE FILE: CINEMASCOPE 2-35-1 CROPLINES.PNG

002786 MSMMMOB.43                       V     C        15:49:28:09 15:49:31:09 01:11:05:00 01:11:08:00
* FROM CLIP NAME:  A060C010_190809_R32C 
* SOURCE FILE: MSMMMOB.43

002811 MSMMMOB.92                       V     C        12:25:50:00 12:25:52:10 01:11:08:00 01:11:10:10
* FROM CLIP NAME:  B018C009_190813_R481 
* SOURCE FILE: MSMMMOB.92

002820 MSMMMOB.58                       V     C        12:49:21:03 12:49:22:14 01:11:10:10 01:11:11:21
* FROM CLIP NAME:  B018C013_190813_R481 
* SOURCE FILE: MSMMMOB.58

002829 MSMMMOB.01                       V     C        12:25:54:12 12:25:55:21 01:11:11:21 01:11:13:05
* FROM CLIP NAME:  A071C008_190813_R32C 
* SOURCE FILE: MSMMMOB.01

002830 MSMMMOB.74                       V     C        12:46:56:16 12:46:58:06 01:11:13:05 01:11:14:20
* FROM CLIP NAME:  B018C012_190813_R481 
* SOURCE FILE: MSMMMOB.74

002839 MSMMMOB.02                       V     C        12:40:24:18 12:40:27:17 01:11:14:20 01:11:17:19
* FROM CLIP NAME:  A071C010_190813_R32C 
* SOURCE FILE: MSMMMOB.02

002872 MSMMMOB.15                       V     C        12:20:38:07 12:20:41:07 01:11:17:19 01:11:20:19
* FROM CLIP NAME:  A071C007_190813_R32C 
* SOURCE FILE: MSMMMOB.15

002881 MSMMMOB.02                       V     C        12:40:33:16 12:40:36:22 01:11:20:19 01:11:24:00
* FROM CLIP NAME:  A071C010_190813_R32C 
* SOURCE FILE: MSMMMOB.02

002882 MSMMMOB.15                       V     C        12:20:44:14 12:20:46:09 01:11:24:00 01:11:25:20
* FROM CLIP NAME:  A071C007_190813_R32C 
* SOURCE FILE: MSMMMOB.15

002899 MSMMMOB.02                       V     C        12:40:37:22 12:40:40:14 01:11:25:20 01:11:28:12
* FROM CLIP NAME:  A071C010_190813_R32C 
* SOURCE FILE: MSMMMOB.02

002918 MSMMMOB.15                       V     C        12:20:48:11 12:20:51:00 01:11:28:12 01:11:31:00
* FROM CLIP NAME:  A071C007_190813_R32C 
* SOURCE FILE: MSMMMOB.15

002943 MSMMMOB.02                       V     C        12:40:43:17 12:40:46:10 01:11:31:00 01:11:33:18
* FROM CLIP NAME:  A071C010_190813_R32C 
* SOURCE FILE: MSMMMOB.02

002980 MSMMMOB.90                       V     C        12:20:52:17 12:20:54:00 01:11:33:18 01:11:35:01
* FROM CLIP NAME:  B018C008_190813_R481 
* SOURCE FILE: MSMMMOB.90

002992 MSMMMOB.77                       V     C        17:14:01:08 17:14:04:08 01:11:35:01 01:11:38:01
* FROM CLIP NAME:  11-14-5 
* SOURCE FILE: MSMMMOB.77

003034 MSMMMOB.78                       V     C        12:40:46:22 12:40:51:23 01:11:38:01 01:11:43:02
* FROM CLIP NAME:  B018C011_190813_R481 
* SOURCE FILE: MSMMMOB.78

003039 MSMMMOB.35                       V     C        16:12:29:19 16:12:34:12 01:11:43:02 01:11:47:20
* FROM CLIP NAME:  A072C007_190813_R32C 
* SOURCE FILE: MSMMMOB.35

003050 MSMMMOB.22                       V     C        14:00:27:14 14:00:30:09 01:11:47:20 01:11:50:15
* FROM CLIP NAME:  A072C001_190813_R32C 
* SOURCE FILE: MSMMMOB.22

003067 MSMMMOB.84                       V     C        16:25:29:04 16:25:32:07 01:11:50:15 01:11:53:18
* FROM CLIP NAME:  B019C009_190813_R481 
* SOURCE FILE: MSMMMOB.84

003076 MSMMMOB.40                       V     C        14:24:52:22 14:24:57:14 01:11:53:18 01:11:58:10
* FROM CLIP NAME:  A072C005_190813_R32C 
* SOURCE FILE: MSMMMOB.40

003087 MSMMMOB.26                       V     C        16:25:34:17 16:25:35:23 01:11:58:10 01:11:59:16
* FROM CLIP NAME:  A072C008_190813_R32C 
* SOURCE FILE: MSMMMOB.26

003090 MSMMMOB.05                       V     C        14:20:27:16 14:20:34:05 01:11:59:16 01:12:06:05
* FROM CLIP NAME:  A072C004_190813_R32C 
* SOURCE FILE: MSMMMOB.05

003099 MSMMMOB.26                       V     C        16:25:40:13 16:25:43:00 01:12:06:05 01:12:08:17
* FROM CLIP NAME:  A072C008_190813_R32C 
* SOURCE FILE: MSMMMOB.26

003108 MSMMMOB.72                       V     C        14:25:06:16 14:25:08:09 01:12:08:17 01:12:10:10
* FROM CLIP NAME:  B019C008_190813_R481 
* SOURCE FILE: MSMMMOB.72

003119 MSMMMOB.26                       V     C        16:25:44:16 16:25:46:15 01:12:10:10 01:12:12:09
* FROM CLIP NAME:  A072C008_190813_R32C 
* SOURCE FILE: MSMMMOB.26

003136 MSMMMOB.72                       V     C        14:25:10:04 14:25:11:09 01:12:12:09 01:12:13:14
* FROM CLIP NAME:  B019C008_190813_R481 
* SOURCE FILE: MSMMMOB.72

003145 MSMMMOB.51                       V     C        16:29:46:03 16:29:48:04 01:12:13:14 01:12:15:15
* FROM CLIP NAME:  B019C010_190813_R481 
* SOURCE FILE: MSMMMOB.51

003154 MSMMMOB.72                       V     C        14:25:12:17 14:25:13:16 01:12:15:15 01:12:16:14
* FROM CLIP NAME:  B019C008_190813_R481 
* SOURCE FILE: MSMMMOB.72

003163 MSMMMOB.51                       V     C        16:29:48:08 16:29:51:14 01:12:16:14 01:12:19:20
* FROM CLIP NAME:  B019C010_190813_R481 
* SOURCE FILE: MSMMMOB.51

003172 MSMMMOB.65                       V     C        14:13:57:03 14:13:59:04 01:12:19:20 01:12:21:21
* FROM CLIP NAME:  B019C005_190813_R481 
* SOURCE FILE: MSMMMOB.65

003189 MSMMMOB.51                       V     C        16:29:53:18 16:29:57:14 01:12:21:21 01:12:25:17
* FROM CLIP NAME:  B019C010_190813_R481 
* SOURCE FILE: MSMMMOB.51

003198 MSMMMOB.72                       V     C        14:25:23:03 14:25:24:08 01:12:25:17 01:12:26:22
* FROM CLIP NAME:  B019C008_190813_R481 
* SOURCE FILE: MSMMMOB.72

003206 MSMMMOB.37                       V     C        16:29:58:21 16:30:04:05 01:12:26:22 01:12:32:06
* FROM CLIP NAME:  A072C009_190813_R32C 
* SOURCE FILE: MSMMMOB.37

003217 MSMMMOB.72                       V     C        14:25:29:09 14:25:31:07 01:12:32:06 01:12:34:04
* FROM CLIP NAME:  B019C008_190813_R481 
* SOURCE FILE: MSMMMOB.72

003234 MSMMMOB.37                       V     C        16:30:05:18 16:30:09:06 01:12:34:04 01:12:37:17
* FROM CLIP NAME:  A072C009_190813_R32C 
* SOURCE FILE: MSMMMOB.37

003243 MSMMMOB.72                       V     C        14:25:34:09 14:25:36:16 01:12:37:17 01:12:40:00
* FROM CLIP NAME:  B019C008_190813_R481 
* SOURCE FILE: MSMMMOB.72

003244 MSMMMOB.84                       V     C        16:26:18:04 16:26:22:03 01:12:40:00 01:12:43:23
* FROM CLIP NAME:  B019C009_190813_R481 
* SOURCE FILE: MSMMMOB.84

003253 BL                               V     C        00:00:00:00 00:00:48:20 01:12:40:00 01:13:28:19
* SOURCE FILE: (NULL)

003254 CINEMASCOPE_2-35-1_CROPLINES.PNG V     C        01:01:56:09 01:03:17:08 01:12:40:00 01:14:00:23
* FROM CLIP NAME:  CINEMASCOPE 2-35-1 CROPLINES.PNG 
* SOURCE FILE: CINEMASCOPE 2-35-1 CROPLINES.PNG

003255 MSMMMOB.26                       V     C        16:26:22:03 16:26:24:12 01:12:43:23 01:12:46:07
* FROM CLIP NAME:  A072C008_190813_R32C 
* SOURCE FILE: MSMMMOB.26

003264 MSMMMOB.72                       V     C        14:25:42:14 14:25:43:22 01:12:46:07 01:12:47:15
* FROM CLIP NAME:  B019C008_190813_R481 
* SOURCE FILE: MSMMMOB.72

003281 MSMMMOB.51                       V     C        16:30:20:11 16:30:22:02 01:12:47:15 01:12:49:06
* FROM CLIP NAME:  B019C010_190813_R481 
* SOURCE FILE: MSMMMOB.51

003290 MSMMMOB.40                       V     C        14:25:46:02 14:25:48:00 01:12:49:06 01:12:51:04
* FROM CLIP NAME:  A072C005_190813_R32C 
* SOURCE FILE: MSMMMOB.40

003307 MSMMMOB.26                       V     C        16:26:28:22 16:26:31:00 01:12:51:04 01:12:53:06
* FROM CLIP NAME:  A072C008_190813_R32C 
* SOURCE FILE: MSMMMOB.26

003324 MSMMMOB.91                       V     C        16:33:40:20 16:33:42:11 01:12:53:06 01:12:54:22
* FROM CLIP NAME:  A073C001_190813_R32C 
* SOURCE FILE: MSMMMOB.91

003343 MSMMMOB.40                       V     C        14:25:50:21 14:25:53:00 01:12:54:22 01:12:57:00
* FROM CLIP NAME:  A072C005_190813_R32C 
* SOURCE FILE: MSMMMOB.40

003354 MSMMMOB.37                       V     C        16:30:29:16 16:30:31:13 01:12:57:00 01:12:58:22
* FROM CLIP NAME:  A072C009_190813_R32C 
* SOURCE FILE: MSMMMOB.37

003379 MSMMMOB.31                       V     C        14:01:28:03 14:01:33:21 01:12:58:22 01:13:04:15
* FROM CLIP NAME:  B019C003_190813_R481 
* SOURCE FILE: MSMMMOB.31

003381 MSMMMOB.73                       V     C        17:01:28:07 17:01:30:08 01:13:04:15 01:13:06:16
* FROM CLIP NAME:  A073C004_190813_R32C 
* SOURCE FILE: MSMMMOB.73

003388 MSMMMOB.87                       V     C        17:01:30:08 17:01:34:16 01:13:06:16 01:13:11:00
* FROM CLIP NAME:  B020C003_190813_R481 
* SOURCE FILE: MSMMMOB.87

003389 MSMMMOB.73                       V     C        17:01:35:10 17:01:39:08 01:13:11:00 01:13:14:22
* FROM CLIP NAME:  A073C004_190813_R32C 
* SOURCE FILE: MSMMMOB.73

003398 MSMMMOB.87                       V     C        17:01:39:13 17:01:45:21 01:13:14:22 01:13:21:05
* FROM CLIP NAME:  B020C003_190813_R481 
* SOURCE FILE: MSMMMOB.87

003410 MSMMMOB.31                       V     C        14:01:40:08 14:01:43:10 01:13:21:05 01:13:24:07
* FROM CLIP NAME:  B019C003_190813_R481 
* SOURCE FILE: MSMMMOB.31

003423 MSMMMOB.31                       V     C        14:01:44:17 14:01:47:09 01:13:24:07 01:13:27:00
* FROM CLIP NAME:  B019C003_190813_R481 
* SOURCE FILE: MSMMMOB.31

003428 MSMMMOB.37                       V     C        16:30:39:23 16:30:41:23 01:13:27:00 01:13:29:00
* FROM CLIP NAME:  A072C009_190813_R32C 
* SOURCE FILE: MSMMMOB.37

003441 BL                               V     C        00:00:00:00 00:00:03:23 01:13:28:19 01:13:32:17
* SOURCE FILE: (NULL)

003442 TITLE.01                         V     C        01:00:17:23 01:00:21:21 01:13:28:19 01:13:32:17
* FROM CLIP NAME:  TITLE.01 
* SOURCE FILE: TITLE.01

003443 MSMMMOB.37                       V     C        16:30:49:01 16:30:51:14 01:13:29:00 01:13:31:12
* FROM CLIP NAME:  A072C009_190813_R32C 
* SOURCE FILE: MSMMMOB.37

003454 MSMMMOB.51                       V     C        16:30:54:23 16:30:56:03 01:13:31:12 01:13:32:17
* FROM CLIP NAME:  B019C010_190813_R481 
* SOURCE FILE: MSMMMOB.51

003465 MSMMMOB.01                       V     C        00:00:09:08 00:00:10:21 01:13:32:17 01:13:34:05
* FROM CLIP NAME:  11242019_184133 
* SOURCE FILE: MSMMMOB.01

003466 BL                               V     C        00:00:00:00 00:00:05:15 01:13:32:17 01:13:38:07
* SOURCE FILE: (NULL)

003467 BL                               V     C        00:00:00:00 00:00:10:01 01:13:32:17 01:13:42:18
* SOURCE FILE: (NULL)

003468 BL                               V     C        00:00:00:00 00:00:22:06 01:13:32:17 01:13:54:23
* SOURCE FILE: (NULL)

003473 MSMMMOB.16                       V     C        00:00:17:17 00:00:19:01 01:13:34:05 01:13:35:14
* FROM CLIP NAME:  11242019_184315 
* SOURCE FILE: MSMMMOB.16

003474 MSMMMOB.16                       V     C        00:00:19:20 00:00:21:00 01:13:35:14 01:13:36:19
* FROM CLIP NAME:  11242019_184315 
* SOURCE FILE: MSMMMOB.16

003475 MSMMMOB.16                       V     C        00:00:29:02 00:00:30:15 01:13:36:19 01:13:38:07
* FROM CLIP NAME:  11242019_184315 
* SOURCE FILE: MSMMMOB.16

003476 MSMMMOB.16                       V     C        00:00:37:14 00:00:39:02 01:13:36:19 01:13:38:07
* FROM CLIP NAME:  11242019_184315 
* SOURCE FILE: MSMMMOB.16

003477 MSMMMOB.26                       V     C        00:00:03:16 00:00:04:13 01:13:38:07 01:13:39:04
* FROM CLIP NAME:  11272019_114041 
* SOURCE FILE: MSMMMOB.26

003478 BL                               V     C        00:00:00:00 00:00:01:13 01:13:38:07 01:13:39:20
* SOURCE FILE: (NULL)

003479 BL                               V     C        00:00:00:00 00:00:05:15 01:13:38:07 01:13:43:22
* SOURCE FILE: (NULL)

003480 MSMMMOB.26                       V     C        00:00:07:05 00:00:07:21 01:13:39:04 01:13:39:20
* FROM CLIP NAME:  11272019_114041 
* SOURCE FILE: MSMMMOB.26

003481 MSMMMOB.26                       V     C        00:00:14:07 00:00:15:16 01:13:39:20 01:13:41:04
* FROM CLIP NAME:  11272019_114041 
* SOURCE FILE: MSMMMOB.26

003482 BL                               V     C        00:00:00:00 00:00:52:17 01:13:39:20 01:14:32:12
* SOURCE FILE: (NULL)

003483 MSMMMOB.26                       V     C        00:00:18:06 00:00:19:20 01:13:41:04 01:13:42:18
* FROM CLIP NAME:  11272019_114041 
* SOURCE FILE: MSMMMOB.26

003484 MSMMMOB.14                       V     C        00:00:05:04 00:00:06:08 01:13:42:18 01:13:43:22
* FROM CLIP NAME:  11272019_133206 
* SOURCE FILE: MSMMMOB.14

003485 BL                               V     C        00:00:00:00 00:01:09:19 01:13:42:18 01:14:52:12
* SOURCE FILE: (NULL)

003486 MSMMMOB.27                       V     C        00:00:03:04 00:00:03:21 01:13:43:22 01:13:44:14
* FROM CLIP NAME:  11272019_194537 
* SOURCE FILE: MSMMMOB.27

003487 BL                               V     C        00:00:00:00 00:00:05:12 01:13:43:22 01:13:49:09
* SOURCE FILE: (NULL)

003488 MSMMMOB.27                       V     C        00:00:06:22 00:00:07:17 01:13:44:14 01:13:45:09
* FROM CLIP NAME:  11272019_194537 
* SOURCE FILE: MSMMMOB.27

003489 MSMMMOB.27                       V     C        00:00:15:00 00:00:15:22 01:13:45:09 01:13:46:07
* FROM CLIP NAME:  11272019_194537 
* SOURCE FILE: MSMMMOB.27

003490 MSMMMOB.27                       V     C        00:00:16:14 00:00:18:04 01:13:46:07 01:13:47:22
* FROM CLIP NAME:  11272019_194537 
* SOURCE FILE: MSMMMOB.27

003491 MSMMMOB.27                       V     C        00:00:21:00 00:00:22:12 01:13:47:22 01:13:49:09
* FROM CLIP NAME:  11272019_194537 
* SOURCE FILE: MSMMMOB.27

003493 MSMMMOB.20                       V     C        00:00:00:08 00:00:03:23 01:13:49:09 01:13:53:00
* FROM CLIP NAME:  11272019_195929 
* SOURCE FILE: MSMMMOB.20

003492 BL                               V     C        00:00:00:00 00:00:03:15 01:13:49:09 01:13:53:00
* SOURCE FILE: (NULL)

003494 BL                               V     C        00:00:00:00 00:00:02:00 01:13:53:00 01:13:54:23
* SOURCE FILE: (NULL)

003495 BL                               V     C        00:00:00:00 00:00:39:13 01:13:53:00 01:14:32:12
* SOURCE FILE: (NULL)

003511 BL                               V     C        00:00:00:00 00:04:20:00 01:13:54:23 01:18:14:23
* SOURCE FILE: (NULL)

003542 CINEMASCOPE_2-35-1_CROPLINES.PNG V     C        01:03:20:18 01:03:58:15 01:14:00:23 01:14:38:20
* FROM CLIP NAME:  CINEMASCOPE 2-35-1 CROPLINES.PNG 
* SOURCE FILE: CINEMASCOPE 2-35-1 CROPLINES.PNG

003558 BL                               V     C        00:00:00:00 00:00:01:17 01:14:18:18 01:14:20:10
* SOURCE FILE: (NULL)
* FROM CLIP NAME:  A020C011_190731_R32C 
* SOURCE FILE:

003571 BL                               V     C        00:00:00:00 00:14:30:18 01:14:20:10 01:28:51:03
* SOURCE FILE: (NULL)

003617 MSMMMOB.22                       V     C        12:56:18:03 12:56:26:10 01:14:30:13 01:14:38:20
* FROM CLIP NAME:  A020C015_190731_R32C 
* SOURCE FILE: MSMMMOB.22

003624 TITLE.01                         V     C        01:00:43:06 01:00:49:14 01:14:32:12 01:14:38:20
* FROM CLIP NAME:  TITLE.01 
* SOURCE FILE: TITLE.01

003625 BL                               V     C        00:00:00:00 00:00:06:08 01:14:32:12 01:14:38:20
* SOURCE FILE: (NULL)

003629 MSMMMOB.04                       V     C        18:31:42:12 18:31:48:00 01:14:38:20 01:14:44:07
* FROM CLIP NAME:  A062C006_190809_R32C 
* SOURCE FILE: MSMMMOB.04

003631 CINEMASCOPE_2-35-1_CROPLINES.PNG V     C        01:00:00:00 01:04:06:02 01:14:38:20 01:18:44:22
* FROM CLIP NAME:  CINEMASCOPE 2-35-1 CROPLINES.PNG 
* SOURCE FILE: CINEMASCOPE 2-35-1 CROPLINES.PNG

003632 BL                               V     C        00:00:00:00 00:04:24:00 01:14:38:20 01:19:02:20
* SOURCE FILE: (NULL)

003633 BL                               V     C        00:00:00:00 00:13:47:05 01:14:38:20 01:28:26:00
* SOURCE FILE: (NULL)

003644 MSMMMOB.22                       V     C        12:56:27:11 12:56:35:16 01:14:44:07 01:14:52:12
* FROM CLIP NAME:  A020C015_190731_R32C 
* SOURCE FILE: MSMMMOB.22

003665 BL                               V     C        00:00:00:00 00:00:02:14 01:14:52:12 01:14:55:01
* SOURCE FILE: (NULL)

003666 MSMMMOB.04                       V     C        18:31:53:14 18:32:00:18 01:14:52:12 01:14:59:16
* FROM CLIP NAME:  A062C006_190809_R32C 
* SOURCE FILE: MSMMMOB.04

003672 BL                               V     C        00:00:00:00 00:00:02:12 01:14:55:01 01:14:57:13
* SOURCE FILE: (NULL)

003673 BL                               V     C        00:00:00:00 00:00:02:03 01:14:57:13 01:14:59:16
* SOURCE FILE: (NULL)

003682 MSMMMOB.22                       V     C        12:56:39:22 12:56:45:07 01:14:59:16 01:15:05:01
* FROM CLIP NAME:  A020C015_190731_R32C 
* SOURCE FILE: MSMMMOB.22

003691 BL                               V     C        00:00:00:00 00:03:15:07 01:14:59:16 01:18:14:23
* SOURCE FILE: (NULL)

003692 MSMMMOB.04                       V     C        18:32:05:00 18:32:10:18 01:15:05:01 01:15:10:20
* FROM CLIP NAME:  A062C006_190809_R32C 
* SOURCE FILE: MSMMMOB.04

003698 MSMMMOB.22                       V     C        12:56:48:07 12:56:54:03 01:15:10:20 01:15:16:16
* FROM CLIP NAME:  A020C015_190731_R32C 
* SOURCE FILE: MSMMMOB.22

003707 MSMMMOB.04                       V     C        18:32:15:01 18:32:16:23 01:15:16:16 01:15:18:13
* FROM CLIP NAME:  A062C006_190809_R32C 
* SOURCE FILE: MSMMMOB.04

003726 MSMMMOB.22                       V     C        12:56:56:07 12:56:58:01 01:15:18:13 01:15:20:07
* FROM CLIP NAME:  A020C015_190731_R32C 
* SOURCE FILE: MSMMMOB.22

003740 MSMMMOB.04                       V     C        18:32:18:23 18:32:24:07 01:15:20:07 01:15:25:16
* FROM CLIP NAME:  A062C006_190809_R32C 
* SOURCE FILE: MSMMMOB.04

003741 MSMMMOB.22                       V     C        12:56:58:04 12:57:04:20 01:15:25:16 01:15:32:07
* FROM CLIP NAME:  A020C015_190731_R32C 
* SOURCE FILE: MSMMMOB.22

003750 MSMMMOB.51                       V     C        14:38:31:12 14:38:37:19 01:15:32:07 01:15:38:14
* FROM CLIP NAME:  A021C007_190731_R32C 
* SOURCE FILE: MSMMMOB.51

003769 MSMMMOB.57                       V     C        18:21:49:21 18:21:52:10 01:15:38:14 01:15:41:03
* FROM CLIP NAME:  A022C011_190731_R32C 
* SOURCE FILE: MSMMMOB.57

003780 MSMMMOB.21                       V     C        17:23:24:00 17:23:26:15 01:15:41:03 01:15:43:18
* FROM CLIP NAME:  A022C002_190731_R32C 
* SOURCE FILE: MSMMMOB.21

003791 MSMMMOB.43                       V     C        17:58:03:07 17:58:05:23 01:15:43:18 01:15:46:09
* FROM CLIP NAME:  A022C009_190731_R32C 
* SOURCE FILE: MSMMMOB.43

003802 MSMMMOB.57                       V     C        18:21:54:18 18:21:57:11 01:15:46:09 01:15:49:02
* FROM CLIP NAME:  A022C011_190731_R32C 
* SOURCE FILE: MSMMMOB.57

003813 MSMMMOB.26                       V     C        17:31:10:15 17:31:18:12 01:15:49:02 01:15:57:00
* FROM CLIP NAME:  A022C003_190731_R32C 
* SOURCE FILE: MSMMMOB.26

003823 MSMMMOB.21                       V     C        17:23:38:00 17:23:39:14 01:15:57:00 01:15:58:13
* FROM CLIP NAME:  A022C002_190731_R32C 
* SOURCE FILE: MSMMMOB.21

003834 MSMMMOB.27                       V     C        17:33:26:17 17:33:28:12 01:15:58:13 01:16:00:08
* FROM CLIP NAME:  A022C004_190731_R32C 
* SOURCE FILE: MSMMMOB.27

003862 MSMMMOB.51                       V     C        14:38:54:17 14:38:56:13 01:16:00:08 01:16:02:04
* FROM CLIP NAME:  A021C007_190731_R32C 
* SOURCE FILE: MSMMMOB.51

003881 MSMMMOB.37                       V     C        17:45:27:14 17:45:36:09 01:16:02:04 01:16:11:00
* FROM CLIP NAME:  A022C006_190731_R32C 
* SOURCE FILE: MSMMMOB.37

003887 MSMMMOB.27                       V     C        17:33:34:20 17:33:35:20 01:16:11:00 01:16:12:00
* FROM CLIP NAME:  A022C004_190731_R32C 
* SOURCE FILE: MSMMMOB.27

003898 MSMMMOB.49                       V     C        18:16:46:08 18:16:47:19 01:16:12:00 01:16:13:10
* FROM CLIP NAME:  A022C010_190731_R32C 
* SOURCE FILE: MSMMMOB.49

003908 MSMMMOB.51                       V     C        14:39:06:17 14:39:08:10 01:16:13:10 01:16:15:03
* FROM CLIP NAME:  A021C007_190731_R32C 
* SOURCE FILE: MSMMMOB.51

003909 MSMMMOB.17                       V     C        17:20:38:01 17:20:40:02 01:16:15:03 01:16:17:04
* FROM CLIP NAME:  A022C001_190731_R32C 
* SOURCE FILE: MSMMMOB.17

003921 MSMMMOB.51                       V     C        14:39:10:01 14:39:13:15 01:16:17:04 01:16:20:18
* FROM CLIP NAME:  A021C007_190731_R32C 
* SOURCE FILE: MSMMMOB.51

003930 MSMMMOB.08                       V     C        18:37:07:16 18:37:21:04 01:16:20:18 01:16:34:06
* FROM CLIP NAME:  A023C001_190731_R32C 
* SOURCE FILE: MSMMMOB.08

003943 MSMMMOB.10                       V     C        19:46:14:16 19:46:18:19 01:16:34:06 01:16:38:09
* FROM CLIP NAME:  A024C003_190731_R32C 
* SOURCE FILE: MSMMMOB.10

003955 MSMMMOB.51                       V     C        14:39:32:21 14:39:35:09 01:16:38:09 01:16:40:22
* FROM CLIP NAME:  A021C007_190731_R32C 
* SOURCE FILE: MSMMMOB.51

003965 MSMMMOB.49                       V     C        18:17:08:07 18:17:09:22 01:16:40:22 01:16:42:12
* FROM CLIP NAME:  A022C010_190731_R32C 
* SOURCE FILE: MSMMMOB.49

003974 MSMMMOB.61                       V     C        19:22:01:15 19:22:02:12 01:16:42:12 01:16:43:09
* FROM CLIP NAME:  A023C012_190731_R32C 
* SOURCE FILE: MSMMMOB.61

003981 MSMMMOB.55                       V     C        16:22:03:09 16:22:05:10 01:16:43:09 01:16:45:10
* FROM CLIP NAME:  A021C008_190731_R32C 
* SOURCE FILE: MSMMMOB.55

003986 MSMMMOB.20                       V     C        18:52:49:16 18:52:54:08 01:16:45:10 01:16:50:02
* FROM CLIP NAME:  A023C003_190731_R32C 
* SOURCE FILE: MSMMMOB.20

003997 MSMMMOB.08                       V     C        18:38:04:00 18:38:07:02 01:16:50:02 01:16:53:04
* FROM CLIP NAME:  A023C001_190731_R32C 
* SOURCE FILE: MSMMMOB.08

003998 MSMMMOB.20                       V     C        18:52:57:10 18:53:00:09 01:16:53:04 01:16:56:03
* FROM CLIP NAME:  A023C003_190731_R32C 
* SOURCE FILE: MSMMMOB.20

003999 MSMMMOB.08                       V     C        18:38:08:17 18:38:10:22 01:16:56:03 01:16:58:08
* FROM CLIP NAME:  A023C001_190731_R32C 
* SOURCE FILE: MSMMMOB.08

004000 MSMMMOB.20                       V     C        18:53:02:14 18:53:07:14 01:16:58:08 01:17:03:08
* FROM CLIP NAME:  A023C003_190731_R32C 
* SOURCE FILE: MSMMMOB.20

004001 MSMMMOB.08                       V     C        18:38:15:10 18:38:18:04 01:17:03:08 01:17:06:02
* FROM CLIP NAME:  A023C001_190731_R32C 
* SOURCE FILE: MSMMMOB.08

004002 MSMMMOB.20                       V     C        18:53:10:08 18:53:14:00 01:17:06:02 01:17:09:18
* FROM CLIP NAME:  A023C003_190731_R32C 
* SOURCE FILE: MSMMMOB.20

004003 MSMMMOB.08                       V     C        18:38:21:03 18:38:25:20 01:17:09:18 01:17:14:10
* FROM CLIP NAME:  A023C001_190731_R32C 
* SOURCE FILE: MSMMMOB.08

004014 MSMMMOB.20                       V     C        18:53:14:19 18:53:16:07 01:17:14:10 01:17:15:23
* FROM CLIP NAME:  A023C003_190731_R32C 
* SOURCE FILE: MSMMMOB.20

004015 MSMMMOB.08                       V     C        18:38:29:16 18:38:31:03 01:17:15:23 01:17:17:10
* FROM CLIP NAME:  A023C001_190731_R32C 
* SOURCE FILE: MSMMMOB.08

004036 MSMMMOB.20                       V     C        18:53:17:12 18:53:27:12 01:17:17:10 01:17:27:10
* FROM CLIP NAME:  A023C003_190731_R32C 
* SOURCE FILE: MSMMMOB.20

004057 MSMMMOB.08                       V     C        18:38:38:13 18:38:41:03 01:17:27:10 01:17:30:00
* FROM CLIP NAME:  A023C001_190731_R32C 
* SOURCE FILE: MSMMMOB.08

004060 MSMMMOB.29                       V     C        19:00:46:03 19:00:48:11 01:17:30:00 01:17:32:08
* FROM CLIP NAME:  A023C005_190731_R32C 
* SOURCE FILE: MSMMMOB.29

004073 MSMMMOB.12                       V     C        17:02:57:00 17:02:59:09 01:17:32:08 01:17:34:18
* FROM CLIP NAME:  A021C013_190731_R32C 
* SOURCE FILE: MSMMMOB.12

004084 MSMMMOB.05                       V     C        19:35:15:02 19:35:16:06 01:17:34:18 01:17:35:22
* FROM CLIP NAME:  A024C002_190731_R32C 
* SOURCE FILE: MSMMMOB.05

004097 MSMMMOB.12                       V     C        17:03:06:02 17:03:07:12 01:17:35:22 01:17:37:07
* FROM CLIP NAME:  A021C013_190731_R32C 
* SOURCE FILE: MSMMMOB.12

004108 MSMMMOB.01                       V     C        19:32:14:18 19:32:15:15 01:17:37:07 01:17:38:04
* FROM CLIP NAME:  A024C001_190731_R32C 
* SOURCE FILE: MSMMMOB.01

004119 MSMMMOB.01                       V     C        19:32:20:13 19:32:21:22 01:17:38:04 01:17:39:13
* FROM CLIP NAME:  A024C001_190731_R32C 
* SOURCE FILE: MSMMMOB.01

004259 BL                               V     C        00:00:00:00 00:00:04:00 01:18:14:23 01:18:18:22
* SOURCE FILE: (NULL)

004260 TITLE.01                         V     C        01:00:44:11 01:00:55:00 01:18:14:23 01:18:25:11
* FROM CLIP NAME:  TITLE.01 
* SOURCE FILE: TITLE.01

004261 BL                               V     C        00:00:00:00 00:00:07:00 01:18:18:22 01:18:25:21
* SOURCE FILE: (NULL)

004274 TITLE.01                         V     C        01:00:55:00 01:01:00:20 01:18:25:11 01:18:31:07
* FROM CLIP NAME:  TITLE.01 
* SOURCE FILE: TITLE.01

004273 MSMMMOB.41                       V     C        12:27:33:05 12:27:39:01 01:18:25:11 01:18:31:07
* FROM CLIP NAME:  A081C001_190815_R32C 
* SOURCE FILE: MSMMMOB.41

004280 BL                               V     C        00:00:00:00 00:00:05:11 01:18:25:21 01:18:31:07
* SOURCE FILE: (NULL)
* FROM CLIP NAME:  A024C005_190731_R32C 
* SOURCE FILE:

004288 BL                               V     C        00:00:00:00 00:00:13:15 01:18:31:07 01:18:44:22
* SOURCE FILE: (NULL)

004289 BL                               V     C        00:00:00:00 00:01:28:17 01:18:31:07 01:20:00:00
* SOURCE FILE: (NULL)
* FROM CLIP NAME:  A024C005_190731_R32C 
* SOURCE FILE:

004321 BL                               V     C        00:00:00:00 00:00:02:00 01:18:44:22 01:18:46:22
* SOURCE FILE: (NULL)

004322 MSMMMOB.07                       V     C        12:50:48:18 12:50:53:16 01:18:44:22 01:18:46:22
* FROM CLIP NAME:  S003_C004_20190819_R 
* SOURCE FILE: MSMMMOB.07

004325 CINEMASCOPE_2-35-1_CROPLINES.PNG V     C        01:00:00:00 01:01:15:02 01:18:44:22 01:20:00:00
* FROM CLIP NAME:  CINEMASCOPE 2-35-1 CROPLINES.PNG 
* SOURCE FILE: CINEMASCOPE 2-35-1 CROPLINES.PNG

004326 MSMMMOB.2115                     V     C        12:48:40:22 12:48:42:15 01:18:46:22 01:18:48:15
* FROM CLIP NAME:  S003_C004_20190819_R 
* SOURCE FILE: MSMMMOB.2115

004327 BL                               V     C        00:00:00:00 00:00:13:16 01:18:46:22 01:19:00:13
* SOURCE FILE: (NULL)

004328 A013C003_190728_R32C             V     C        13:34:50:09 13:34:52:14 01:18:48:15 01:18:50:20
* FROM CLIP NAME:  A013C003_190728_R32C.NEW.01 
* SOURCE FILE: A013C003_190728_R32C

004329 MSMMMOB.40                       V     C        17:46:10:00 17:46:12:00 01:18:50:20 01:18:52:20
* FROM CLIP NAME:  B032C009_190828_A1Y8 
* SOURCE FILE: MSMMMOB.40

004330 MSMMMOB.39                       V     C        13:20:59:12 13:21:00:22 01:18:52:20 01:18:54:05
* FROM CLIP NAME:  A082C005_190815_R32C 
* SOURCE FILE: MSMMMOB.39

004333 MSMMMOB.39                       V     C        13:21:01:23 13:21:03:13 01:18:54:05 01:18:55:20
* FROM CLIP NAME:  A082C005_190815_R32C 
* SOURCE FILE: MSMMMOB.39

004336 MSMMMOB.39                       V     C        13:21:06:00 13:21:07:08 01:18:55:20 01:18:57:03
* FROM CLIP NAME:  A082C005_190815_R32C 
* SOURCE FILE: MSMMMOB.39

004339 MSMMMOB.39                       V     C        13:21:10:11 13:21:11:07 01:18:57:03 01:18:58:00
* FROM CLIP NAME:  A082C005_190815_R32C 
* SOURCE FILE: MSMMMOB.39

004342 MSMMMOB.28                       V     C        13:47:13:01 13:47:14:01 01:18:58:00 01:18:59:00
* FROM CLIP NAME:  24-2-3 
* SOURCE FILE: MSMMMOB.28

004345 MSMMMOB.39                       V     C        13:21:12:02 13:21:13:16 01:18:59:00 01:19:00:13
* FROM CLIP NAME:  A082C005_190815_R32C 
* SOURCE FILE: MSMMMOB.39

004350 M108_C025_20190729_R             V     C        16:10:53:09 16:10:55:16 01:19:00:13 01:19:02:20
* FROM CLIP NAME:  M108_C025_20190729_R.NEW.01 
* SOURCE FILE: M108_C025_20190729_R

004351 BL                               V     C        00:00:00:00 00:00:02:07 01:19:00:13 01:19:02:20
* SOURCE FILE: (NULL)

004354 M108_C029_20190729_R             V     C        16:57:30:05 16:57:32:22 01:19:02:20 01:19:04:16
* FROM CLIP NAME:  M108_C029_20190729_R.NEW.01 
* SOURCE FILE: M108_C029_20190729_R 
* REPAIR: FROM SOURCE TRUE SPEED IS 36.250000 FPS
M2   M108_C029_20190729_R 36.2                      16:57:30:05 

004352 BL                               V     C        00:00:00:00 00:00:01:21 01:19:02:20 01:19:04:16
* SOURCE FILE: (NULL)

004353 BL                               V     C        00:00:00:00 00:00:01:21 01:19:02:20 01:19:04:16
* SOURCE FILE: (NULL)

004357 M108_C009_20190729_R             V     C        12:38:39:00 12:38:43:17 01:19:04:16 01:19:08:13
* FROM CLIP NAME:  M108_C009_20190729_R.NEW.01 
* SOURCE FILE: M108_C009_20190729_R
M2   M108_C009_20190729_R 30.0                      12:38:39:00 

004358 BL                               V     C        00:00:00:00 00:00:03:22 01:19:04:16 01:19:08:13
* SOURCE FILE: (NULL)

004359 BL                               V     C        00:00:00:00 00:10:14:20 01:19:04:16 01:29:19:11
* SOURCE FILE: (NULL)

004360 MSMMMOB.61                       V     C        10:31:04:15 10:31:06:06 01:19:08:13 01:19:10:04
* FROM CLIP NAME:  A080C002_190815_R32C 
* SOURCE FILE: MSMMMOB.61

004363 BL                               V     C        00:00:00:00 00:11:14:00 01:19:08:13 01:30:22:13
* SOURCE FILE: (NULL)

004364 MSMMMOB.17                       V     C        10:46:29:23 10:46:31:02 01:19:10:04 01:19:11:08
* FROM CLIP NAME:  A080C005_190815_R32C 
* SOURCE FILE: MSMMMOB.17

004371 MSMMMOB.87                       V     C        11:08:19:19 11:08:21:12 01:19:11:08 01:19:13:01
* FROM CLIP NAME:  A080C009_190815_R32C 
* SOURCE FILE: MSMMMOB.87

004374 MSMMMOB.17                       V     C        10:46:34:11 10:46:36:12 01:19:13:01 01:19:15:02
* FROM CLIP NAME:  A080C005_190815_R32C 
* SOURCE FILE: MSMMMOB.17

004379 MSMMMOB.61                       V     C        10:31:13:20 10:31:15:06 01:19:15:02 01:19:16:13
* FROM CLIP NAME:  A080C002_190815_R32C 
* SOURCE FILE: MSMMMOB.61

004384 M108_C033_20190729_R             V     C        17:23:58:04 17:24:00:02 01:19:16:13 01:19:18:11
* FROM CLIP NAME:  M108_C033_20190729_R.NEW.01 
* SOURCE FILE: M108_C033_20190729_R

004385 MSMMMOB.16                       V     C        12:09:24:02 12:09:25:14 01:19:18:11 01:19:19:23
* FROM CLIP NAME:  A080C011_190815_R32C 
* SOURCE FILE: MSMMMOB.16

004387 M108_C032_20190729_R             V     C        17:03:53:23 17:04:02:20 01:19:19:23 01:19:28:20
* FROM CLIP NAME:  M108_C032_20190729_R.NEW.01 
* SOURCE FILE: M108_C032_20190729_R

004402 A014C002_190728_R32C             V     C        15:06:31:23 15:06:33:00 01:19:28:20 01:19:29:22
* FROM CLIP NAME:  A014C002_190728_R32C.NEW.01 
* SOURCE FILE: A014C002_190728_R32C

004405 A013C004_190728_R32C             V     C        13:53:25:10 13:53:27:18 01:19:29:22 01:19:32:05
* FROM CLIP NAME:  A013C004_190728_R32C.NEW.01 
* SOURCE FILE: A013C004_190728_R32C

004406 MSMMMOB.12                       V     C        16:01:44:07 16:01:44:08 01:19:32:05 01:19:34:06
* FROM CLIP NAME:  S003_C018_20190819_R 
* SOURCE FILE: MSMMMOB.12

004407 MSMMMOB.12                       V     C        16:01:17:12 16:01:17:13 01:19:34:06 01:19:36:05
* FROM CLIP NAME:  S003_C018_20190819_R 
* SOURCE FILE: MSMMMOB.12

004410 MSMMMOB.43                       V     C        15:54:36:07 15:54:41:14 01:19:36:05 01:19:40:03
* FROM CLIP NAME:  S003_C015_20190819_R 
* SOURCE FILE: MSMMMOB.43 
* REPAIR: FROM SOURCE TRUE SPEED IS 33.750000 FPS

004412 MSMMMOB.56                       V     C        15:58:26:07 15:58:33:13 01:19:40:03 01:19:47:09
* FROM CLIP NAME:  S003_C017_20190819_R 
* SOURCE FILE: MSMMMOB.56

004419 A019C010_190729_R32C             V     C        06:06:53:08 06:06:53:23 01:19:47:09 01:19:48:00
* FROM CLIP NAME:  A019C010_190729_R32C.NEW.01.SUB.01 
* SOURCE FILE: A019C010_190729_R32C

004422 MSMMMOB.04                       V     C        14:35:10:10 14:35:11:20 01:19:48:00 01:19:49:09
* FROM CLIP NAME:  A085C021_190819_R32C 
* SOURCE FILE: MSMMMOB.04

004423 MSMMMOB.09                       V     C        14:19:47:11 14:19:48:23 01:19:49:09 01:19:50:21
* FROM CLIP NAME:  A085C020_190819_R32C 
* SOURCE FILE: MSMMMOB.09

004424 B003C003_190726_R4CP             V     C        10:57:52:22 10:57:54:21 01:19:50:21 01:19:52:20
* FROM CLIP NAME:  B003C003_190726_R4CP.NEW.01.SUB.01 
* SOURCE FILE: B003C003_190726_R4CP

004427 MSMMMOB.42                       V     C        18:52:12:06 18:52:14:11 01:19:52:20 01:19:54:18
* FROM CLIP NAME:  S003_C019_20190819_R 
* SOURCE FILE: MSMMMOB.42 
* REPAIR: FROM SOURCE TRUE SPEED IS 28.750000 FPS

004428 MSMMMOB.42                       V     C        18:52:25:10 18:52:25:11 01:19:54:18 01:19:54:23
* FROM CLIP NAME:  S003_C019_20190819_R 
* * FREEZE FRAME 
* SOURCE FILE: MSMMMOB.42

004429 MSMMMOB.42                       V     C        18:52:28:03 18:52:28:04 01:19:54:23 01:19:55:03
* FROM CLIP NAME:  S003_C019_20190819_R 
* * FREEZE FRAME 
* SOURCE FILE: MSMMMOB.42

004430 MSMMMOB.60                       V     C        19:27:30:08 19:27:30:09 01:19:55:03 01:19:55:08
* FROM CLIP NAME:  S003_C027_20190819_R 
* * FREEZE FRAME 
* SOURCE FILE: MSMMMOB.60

004431 MSMMMOB.47                       V     C        20:39:53:22 20:39:53:23 01:19:55:08 01:19:55:13
* FROM CLIP NAME:  S003_C034_20190819_R 
* * FREEZE FRAME 
* SOURCE FILE: MSMMMOB.47

004432 MSMMMOB.05                       V     C        20:41:06:13 20:41:06:14 01:19:55:13 01:19:55:18
* FROM CLIP NAME:  S003_C035_20190819_R 
* * FREEZE FRAME 
* SOURCE FILE: MSMMMOB.05

004433 MSMMMOB.05                       V     C        20:41:06:13 20:41:09:03 01:19:55:18 01:19:57:23
* FROM CLIP NAME:  S003_C035_20190819_R 
* SOURCE FILE: MSMMMOB.05

004434 MSMMMOB.49                       V     C        15:48:29:23 15:48:31:00 01:19:57:23 01:19:59:00
* FROM CLIP NAME:  A085C027_190819_R32C 
* SOURCE FILE: MSMMMOB.49

004435 MSMMMOB.17                       V     C        15:46:52:05 15:46:53:05 01:19:59:00 01:20:00:00
* FROM CLIP NAME:  A085C026_190819_R32C 
* SOURCE FILE: MSMMMOB.17

004438 BL                               V     C        00:00:00:00 00:00:07:19 01:20:00:00 01:20:07:18
* SOURCE FILE: (NULL)

004437 MSMMMOB.14                       V     C        20:37:54:23 20:38:02:17 01:20:00:00 01:20:07:18
* FROM CLIP NAME:  S003_C033_20190819_R 
* SOURCE FILE: MSMMMOB.14

004439 CINEMASCOPE_2-35-1_CROPLINES.PNG V     C        01:00:00:00 01:06:00:00 01:20:00:00 01:26:00:00
* FROM CLIP NAME:  CINEMASCOPE 2-35-1 CROPLINES.PNG 
* SOURCE FILE: CINEMASCOPE 2-35-1 CROPLINES.PNG

004444 C0074                            V     C        00:17:42:21 00:17:43:19 01:20:07:18 01:20:08:16
* FROM CLIP NAME:  C0074.NEW.01 
* SOURCE FILE: C0074

004445 BL                               V     C        00:00:00:00 00:00:45:04 01:20:07:18 01:20:52:22
* SOURCE FILE: (NULL)

004446 M108_C016_20190729_R             V     C        15:14:27:16 15:14:28:18 01:20:08:16 01:20:09:18
* FROM CLIP NAME:  M108_C016_20190729_R.NEW.01 
* SOURCE FILE: M108_C016_20190729_R

004447 M108_C019_20190729_R             V     C        15:20:21:02 15:20:21:14 01:20:09:18 01:20:10:05
* FROM CLIP NAME:  M108_C019_20190729_R.NEW.01 
* SOURCE FILE: M108_C019_20190729_R

004448 M108_C017_20190729_R             V     C        15:17:28:00 15:17:28:11 01:20:10:05 01:20:10:17
* FROM CLIP NAME:  M108_C017_20190729_R.NEW.01 
* SOURCE FILE: M108_C017_20190729_R

004449 M108_C019_20190729_R             V     C        15:20:40:12 15:20:41:00 01:20:10:17 01:20:11:04
* FROM CLIP NAME:  M108_C019_20190729_R.NEW.01 
* SOURCE FILE: M108_C019_20190729_R

004450 M108_C017_20190729_R             V     C        15:17:37:04 15:17:37:16 01:20:11:04 01:20:11:16
* FROM CLIP NAME:  M108_C017_20190729_R.NEW.01 
* SOURCE FILE: M108_C017_20190729_R

004451 M108_C024_20190729_R             V     C        16:07:56:18 16:07:58:11 01:20:11:16 01:20:13:09
* FROM CLIP NAME:  M108_C024_20190729_R.NEW.01 
* SOURCE FILE: M108_C024_20190729_R

004452 A014C001_190728_R32C             V     C        14:47:03:22 14:47:05:03 01:20:13:09 01:20:14:15
* FROM CLIP NAME:  A014C001_190728_R32C.NEW.01 
* SOURCE FILE: A014C001_190728_R32C

004461 A014C001_190728_R32C             V     C        14:47:07:16 14:47:09:11 01:20:14:15 01:20:16:10
* FROM CLIP NAME:  A014C001_190728_R32C.NEW.01 
* SOURCE FILE: A014C001_190728_R32C

004470 CAM3_S001_S001_T003              V     C        00:00:55:08 00:00:56:11 01:20:16:10 01:20:17:13
* FROM CLIP NAME:  CAM3_S001_S001_T003.NEW.01 
* SOURCE FILE: CAM3_S001_S001_T003

004479 A013C004_190728_R32C             V     C        13:50:35:15 13:50:37:02 01:20:17:13 01:20:19:00
* FROM CLIP NAME:  A013C004_190728_R32C.NEW.01 
* SOURCE FILE: A013C004_190728_R32C

004487 A013C003_190728_R32C             V     C        13:37:30:03 13:37:32:18 01:20:19:00 01:20:21:15
* FROM CLIP NAME:  A013C003_190728_R32C.NEW.01 
* SOURCE FILE: A013C003_190728_R32C

004495 A013C003_190728_R32C             V     C        13:37:34:13 13:37:35:16 01:20:21:15 01:20:22:18
* FROM CLIP NAME:  A013C003_190728_R32C.NEW.01 
* SOURCE FILE: A013C003_190728_R32C

004504 A013C003_190728_R32C             V     C        13:37:37:12 13:37:39:05 01:20:22:18 01:20:24:11
* FROM CLIP NAME:  A013C003_190728_R32C.NEW.01 
* SOURCE FILE: A013C003_190728_R32C

004511 A019C013_190729_R32C             V     C        08:07:06:20 08:07:07:04 01:20:24:11 01:20:24:20
* FROM CLIP NAME:  A019C013_190729_R32C.NEW.01.SUB.01 
* SOURCE FILE: A019C013_190729_R32C

004512 A019C013_190729_R32C             V     C        08:07:19:20 08:07:20:09 01:20:24:20 01:20:25:09
* FROM CLIP NAME:  A019C013_190729_R32C.NEW.01.SUB.01 
* SOURCE FILE: A019C013_190729_R32C

004513 A019C013_190729_R32C             V     C        08:06:43:21 08:06:44:11 01:20:25:09 01:20:26:00
* FROM CLIP NAME:  A019C013_190729_R32C.NEW.01.SUB.01 
* SOURCE FILE: A019C013_190729_R32C

004514 A010C012_190727_R32C             V     C        01:31:15:00 01:31:16:14 01:20:26:00 01:20:27:13
* FROM CLIP NAME:  A010C012_190727_R32C.NEW.01.SUB.01 
* SOURCE FILE: A010C012_190727_R32C

004515 A010C023_190727_R32C             V     C        03:49:59:05 03:50:00:02 01:20:27:13 01:20:28:10
* FROM CLIP NAME:  A010C023_190727_R32C.NEW.01.SUB.01 
* SOURCE FILE: A010C023_190727_R32C

004516 MSMMMOB.40                       V     C        17:47:14:18 17:47:16:04 01:20:28:10 01:20:29:21
* FROM CLIP NAME:  B032C009_190828_A1Y8 
* SOURCE FILE: MSMMMOB.40

004517 A010C017_190727_R32C             V     C        03:10:36:23 03:10:37:13 01:20:29:21 01:20:30:11
* FROM CLIP NAME:  A010C017_190727_R32C.NEW.01.SUB.01 
* SOURCE FILE: A010C017_190727_R32C

004518 A010C017_190727_R32C             V     C        03:10:38:23 03:10:39:09 01:20:30:11 01:20:30:22
* FROM CLIP NAME:  A010C017_190727_R32C.NEW.01.SUB.01 
* SOURCE FILE: A010C017_190727_R32C

004519 A010C017_190727_R32C             V     C        03:10:40:11 03:10:40:22 01:20:30:22 01:20:31:08
* FROM CLIP NAME:  A010C017_190727_R32C.NEW.01.SUB.01 
* SOURCE FILE: A010C017_190727_R32C

004520 C0038                            V     C        00:10:11:00 00:10:12:14 01:20:31:08 01:20:32:23
* FROM CLIP NAME:  C0038.NEW.01 
* SOURCE FILE: C0038

004521 A011C006_190727_R32C             V     C        04:07:55:06 04:07:57:18 01:20:32:23 01:20:35:10
* FROM CLIP NAME:  A011C006_190727_R32C.NEW.01.SUB.01 
* SOURCE FILE: A011C006_190727_R32C

004522 C0075                            V     C        00:18:13:11 00:18:15:08 01:20:35:10 01:20:37:07
* FROM CLIP NAME:  C0075.NEW.01 
* SOURCE FILE: C0075

004523 MSMMMOB.40                       V     C        17:47:29:22 17:47:31:22 01:20:37:07 01:20:39:07
* FROM CLIP NAME:  B032C009_190828_A1Y8 
* SOURCE FILE: MSMMMOB.40

004532 M108_C039_20190729_R             V     C        20:00:08:18 20:00:19:20 01:20:39:07 01:20:46:17
* FROM CLIP NAME:  M108_C039_20190729_R.NEW.01 
* SOURCE FILE: M108_C039_20190729_R
M2   M108_C039_20190729_R 37.5                      20:00:08:18 

004535 A005C003_190726_R32C             V     C        10:04:42:21 10:04:46:23 01:20:46:17 01:20:50:19
* FROM CLIP NAME:  A005C003_190726_R32C.NEW.01 
* SOURCE FILE: A005C003_190726_R32C

004547 A005C006_190726_R32C             V     C        10:17:51:14 10:17:53:17 01:20:50:19 01:20:52:22
* FROM CLIP NAME:  A005C006_190726_R32C.NEW.01 
* SOURCE FILE: A005C006_190726_R32C

004550 A006C008_190726_R32C             V     C        11:39:14:02 11:39:22:03 01:20:52:22 01:21:00:23
* FROM CLIP NAME:  26-10-1 
* SOURCE FILE: A006C008_190726_R32C

004551 BL                               V     C        00:00:00:00 00:00:08:01 01:20:52:22 01:21:00:23
* SOURCE FILE: (NULL)

004563 A005C005_190726_R32C             V     C        10:12:55:06 10:12:59:23 01:21:00:23 01:21:05:15
* FROM CLIP NAME:  A005C005_190726_R32C.NEW.01 
* SOURCE FILE: A005C005_190726_R32C

004566 BL                               V     C        00:00:00:00 00:02:00:06 01:21:00:23 01:23:01:04
* SOURCE FILE: (NULL)

004578 A005C007_190726_R32C             V     C        10:31:02:17 10:31:06:02 01:21:05:15 01:21:09:00
* FROM CLIP NAME:  A005C007_190726_R32C.NEW.01 
* SOURCE FILE: A005C007_190726_R32C

004590 A005C005_190726_R32C             V     C        10:13:01:20 10:13:03:01 01:21:09:00 01:21:10:06
* FROM CLIP NAME:  A005C005_190726_R32C.NEW.01 
* SOURCE FILE: A005C005_190726_R32C

004610 A006C007_190726_R32C             V     C        11:34:13:13 11:34:15:07 01:21:10:06 01:21:12:00
* FROM CLIP NAME:  A006C007_190726_R32C.NEW.01 
* SOURCE FILE: A006C007_190726_R32C

004622 A005C016_190726_R32C             V     C        11:07:03:04 11:07:05:16 01:21:12:00 01:21:14:12
* FROM CLIP NAME:  A005C016_190726_R32C.NEW.01 
* SOURCE FILE: A005C016_190726_R32C

004640 A006C007_190726_R32C             V     C        11:34:16:11 11:34:17:23 01:21:14:12 01:21:16:00
* FROM CLIP NAME:  A006C007_190726_R32C.NEW.01 
* SOURCE FILE: A006C007_190726_R32C

004652 A005C005_190726_R32C             V     C        10:13:04:04 10:13:08:05 01:21:16:00 01:21:20:00
* FROM CLIP NAME:  A005C005_190726_R32C.NEW.01 
* SOURCE FILE: A005C005_190726_R32C

004664 A005C002_190726_R32C             V     C        09:55:36:17 09:55:38:15 01:21:20:00 01:21:21:23
* FROM CLIP NAME:  A005C002_190726_R32C.NEW.01 
* SOURCE FILE: A005C002_190726_R32C

004665 A005C012_190726_R32C             V     C        10:57:00:05 10:57:03:00 01:21:21:23 01:21:24:18
* FROM CLIP NAME:  A005C012_190726_R32C.NEW.01 
* SOURCE FILE: A005C012_190726_R32C

004675 A006C006_190726_R32C             V     C        11:30:10:13 11:30:13:04 01:21:24:18 01:21:27:09
* FROM CLIP NAME:  A006C006_190726_R32C.NEW.01 
* SOURCE FILE: A006C006_190726_R32C

004703 A005C012_190726_R32C             V     C        10:57:05:00 10:57:07:04 01:21:27:09 01:21:29:13
* FROM CLIP NAME:  A005C012_190726_R32C.NEW.01 
* SOURCE FILE: A005C012_190726_R32C

004713 A006C006_190726_R32C             V     C        11:30:13:20 11:30:16:13 01:21:29:13 01:21:32:06
* FROM CLIP NAME:  A006C006_190726_R32C.NEW.01 
* SOURCE FILE: A006C006_190726_R32C

004732 B002C001_190726_R4CP             V     C        09:52:19:03 09:52:22:06 01:21:32:06 01:21:35:09
* FROM CLIP NAME:  B002C001_190726_R4CP.NEW.01 
* SOURCE FILE: B002C001_190726_R4CP

004753 A005C008_190726_R32C             V     C        10:36:12:00 10:36:18:19 01:21:35:09 01:21:42:04
* FROM CLIP NAME:  A005C008_190726_R32C.NEW.01 
* SOURCE FILE: A005C008_190726_R32C

004783 A005C003_190726_R32C             V     C        10:05:25:04 10:05:27:09 01:21:42:04 01:21:44:09
* FROM CLIP NAME:  A005C003_190726_R32C.NEW.01 
* SOURCE FILE: A005C003_190726_R32C

004788 A005C003_190726_R32C             V     C        10:05:37:02 10:05:39:00 01:21:44:09 01:21:46:07
* FROM CLIP NAME:  A005C003_190726_R32C.NEW.01 
* SOURCE FILE: A005C003_190726_R32C

004802 IMG_0082.JPG                     V     C        01:00:00:00 01:00:01:01 01:21:46:07 01:21:47:08
* FROM CLIP NAME:  IMG_0082.JPG 
* SOURCE FILE: IMG_0082.JPG

004812 A007C015_190726_R32C             V     C        19:36:51:11 19:37:05:23 01:21:47:08 01:22:01:20
* FROM CLIP NAME:  A007C015_190726_R32C.NEW.01 
* SOURCE FILE: A007C015_190726_R32C

004839 A007C010_190726_R32C             V     C        18:57:08:02 18:57:12:14 01:22:01:20 01:22:06:07
* FROM CLIP NAME:  A007C010_190726_R32C.NEW.01 
* SOURCE FILE: A007C010_190726_R32C

004849 B005C009_190726_R4CP             V     C        19:01:36:07 19:01:38:17 01:22:06:07 01:22:08:17
* FROM CLIP NAME:  B005C009_190726_R4CP.NEW.01 
* SOURCE FILE: B005C009_190726_R4CP

004858 B005C012_190726_R4CP             V     C        19:08:19:17 19:08:22:06 01:22:08:17 01:22:11:06
* FROM CLIP NAME:  B005C012_190726_R4CP.NEW.01 
* SOURCE FILE: B005C012_190726_R4CP

004869 A007C010_190726_R32C             V     C        18:57:24:07 18:57:25:21 01:22:11:06 01:22:12:20
* FROM CLIP NAME:  A007C010_190726_R32C.NEW.01 
* SOURCE FILE: A007C010_190726_R32C

004878 B005C012_190726_R4CP             V     C        19:08:29:02 19:08:32:12 01:22:12:20 01:22:16:05
* FROM CLIP NAME:  B005C012_190726_R4CP.NEW.01 
* SOURCE FILE: B005C012_190726_R4CP

004888 A007C018_190726_R32C             V     C        20:34:45:00 20:34:52:16 01:22:16:05 01:22:23:21
* FROM CLIP NAME:  A007C018_190726_R32C.NEW.01 
* SOURCE FILE: A007C018_190726_R32C

004901 A009C004_190726_R32C             V     C        21:29:04:00 21:29:06:02 01:22:23:21 01:22:25:23
* FROM CLIP NAME:  A009C004_190726_R32C.NEW.01 
* SOURCE FILE: A009C004_190726_R32C

004908 B007C004_190726_R4CP             V     C        21:29:06:11 21:29:08:16 01:22:25:23 01:22:28:03
* FROM CLIP NAME:  B007C004_190726_R4CP.NEW.01 
* SOURCE FILE: B007C004_190726_R4CP

004926 A008C001_190726_R32C             V     C        20:44:31:02 20:44:33:02 01:22:28:03 01:22:30:03
* FROM CLIP NAME:  A008C001_190726_R32C.NEW.01 
* SOURCE FILE: A008C001_190726_R32C

004938 A009C002_190726_R32C             V     C        21:17:00:18 21:17:03:16 01:22:30:03 01:22:33:01
* FROM CLIP NAME:  A009C002_190726_R32C.NEW.01 
* SOURCE FILE: A009C002_190726_R32C

004950 B006C001_190726_R4CP             V     C        20:44:34:12 20:44:41:00 01:22:33:01 01:22:39:14
* FROM CLIP NAME:  B006C001_190726_R4CP.NEW.01 
* SOURCE FILE: B006C001_190726_R4CP

004995 A008C001_190726_R32C             V     C        20:44:41:00 20:44:44:02 01:22:39:14 01:22:42:16
* FROM CLIP NAME:  A008C001_190726_R32C.NEW.01 
* SOURCE FILE: A008C001_190726_R32C

005018 A009C002_190726_R32C             V     C        21:17:11:21 21:17:15:05 01:22:42:16 01:22:46:00
* FROM CLIP NAME:  A009C002_190726_R32C.NEW.01 
* SOURCE FILE: A009C002_190726_R32C

005046 B006C002_190726_R4CP             V     C        20:49:58:03 20:50:01:13 01:22:46:00 01:22:49:10
* FROM CLIP NAME:  B006C002_190726_R4CP.NEW.01 
* SOURCE FILE: B006C002_190726_R4CP

005058 A009C002_190726_R32C             V     C        21:17:17:05 21:17:21:22 01:22:49:10 01:22:54:02
* FROM CLIP NAME:  A009C002_190726_R32C.NEW.01 
* SOURCE FILE: A009C002_190726_R32C

005070 B007C003_190726_R4CP             V     C        21:26:47:17 21:26:49:21 01:22:54:02 01:22:56:06
* FROM CLIP NAME:  B007C003_190726_R4CP.NEW.01 
* SOURCE FILE: B007C003_190726_R4CP

005076 B007C002_190726_R4CP             V     C        21:17:21:13 21:17:23:09 01:22:56:06 01:22:58:02
* FROM CLIP NAME:  B007C002_190726_R4CP.NEW.01 
* SOURCE FILE: B007C002_190726_R4CP

005088 A008C003_190726_R32C             V     C        20:50:07:11 20:50:13:17 01:22:58:02 01:23:04:08
* FROM CLIP NAME:  A008C003_190726_R32C.NEW.01 
* SOURCE FILE: A008C003_190726_R32C

005105 BL                               V     C        00:00:00:00 00:00:03:04 01:23:01:04 01:23:04:08
* SOURCE FILE: (NULL)

005106 A008C007_190726_R32C             V     C        21:10:53:01 21:11:01:13 01:23:04:08 01:23:12:20
* FROM CLIP NAME:  A008C007_190726_R32C.NEW.01 
* SOURCE FILE: A008C007_190726_R32C

005107 BL                               V     C        00:00:00:00 00:00:35:06 01:23:04:08 01:23:39:14
* SOURCE FILE: (NULL)

005135 A008C003_190726_R32C             V     C        20:50:23:18 20:50:28:22 01:23:12:20 01:23:18:00
* FROM CLIP NAME:  A008C003_190726_R32C.NEW.01 
* SOURCE FILE: A008C003_190726_R32C

005169 A008C007_190726_R32C             V     C        21:11:06:00 21:11:08:09 01:23:18:00 01:23:20:08
* FROM CLIP NAME:  A008C007_190726_R32C.NEW.01 
* SOURCE FILE: A008C007_190726_R32C

005192 A008C003_190726_R32C             V     C        20:50:31:15 20:50:36:00 01:23:20:08 01:23:24:17
* FROM CLIP NAME:  A008C003_190726_R32C.NEW.01 
* SOURCE FILE: A008C003_190726_R32C

005215 A008C007_190726_R32C             V     C        21:11:13:20 21:11:19:01 01:23:24:17 01:23:29:23
* FROM CLIP NAME:  A008C007_190726_R32C.NEW.01 
* SOURCE FILE: A008C007_190726_R32C

005260 B006C002_190726_R4CP             V     C        20:50:42:03 20:50:50:05 01:23:29:23 01:23:38:00
* FROM CLIP NAME:  B006C002_190726_R4CP.NEW.01 
* SOURCE FILE: B006C002_190726_R4CP

005283 A009C003_190726_R32C             V     C        21:26:21:02 21:26:22:16 01:23:38:00 01:23:39:14
* FROM CLIP NAME:  A009C003_190726_R32C.NEW.01 
* SOURCE FILE: A009C003_190726_R32C

005295 B007C003_190726_R4CP             V     C        21:26:23:01 21:26:24:20 01:23:39:14 01:23:41:08
* FROM CLIP NAME:  B007C003_190726_R4CP.NEW.01 
* SOURCE FILE: B007C003_190726_R4CP

005296 BL                               V     C        00:00:00:00 00:00:03:04 01:23:39:14 01:23:42:18
* SOURCE FILE: (NULL)

005302 B006C002_190726_R4CP             V     C        20:50:52:23 20:50:55:01 01:23:41:08 01:23:43:11
* FROM CLIP NAME:  B006C002_190726_R4CP.NEW.01 
* SOURCE FILE: B006C002_190726_R4CP

005303 BL                               V     C        00:00:00:00 00:03:44:19 01:23:42:18 01:27:27:12
* SOURCE FILE: (NULL)

005337 B006C003_190726_R4CP             V     C        21:02:18:06 21:02:23:10 01:23:43:11 01:23:48:15
* FROM CLIP NAME:  B006C003_190726_R4CP.NEW.01 
* SOURCE FILE: B006C003_190726_R4CP

005362 A008C003_190726_R32C             V     C        20:51:01:23 20:51:05:05 01:23:48:15 01:23:51:22
* FROM CLIP NAME:  A008C003_190726_R32C.NEW.01 
* SOURCE FILE: A008C003_190726_R32C

005428 A008C005_190726_R32C             V     C        21:06:32:22 21:06:35:12 01:23:51:22 01:23:54:12
* FROM CLIP NAME:  A008C005_190726_R32C.NEW.01 
* SOURCE FILE: A008C005_190726_R32C

005440 B006C001_190726_R4CP             V     C        20:46:05:09 20:46:08:02 01:23:54:12 01:23:57:05
* FROM CLIP NAME:  B006C001_190726_R4CP.NEW.01 
* SOURCE FILE: B006C001_190726_R4CP

005457 MSMMMOB.35                       V     C        17:36:49:15 17:36:53:05 01:23:57:05 01:24:00:20
* FROM CLIP NAME:  A045C002_190805_R32C 
* SOURCE FILE: MSMMMOB.35

005474 MSMMMOB.44                       V     C        17:50:38:05 17:50:41:08 01:24:00:20 01:24:03:23
* FROM CLIP NAME:  A045C004_190805_R32C 
* SOURCE FILE: MSMMMOB.44

005493 MSMMMOB.03                       V     C        18:13:31:15 18:13:36:10 01:24:03:23 01:24:08:18
* FROM CLIP NAME:  A045C005_190805_R32C 
* SOURCE FILE: MSMMMOB.03

005512 MSMMMOB.44                       V     C        17:50:45:05 17:50:47:14 01:24:08:18 01:24:11:02
* FROM CLIP NAME:  A045C004_190805_R32C 
* SOURCE FILE: MSMMMOB.44

005525 MSMMMOB.03                       V     C        18:13:38:00 18:13:40:00 01:24:11:02 01:24:13:02
* FROM CLIP NAME:  A045C005_190805_R32C 
* SOURCE FILE: MSMMMOB.03

005538 MSMMMOB.44                       V     C        17:50:48:21 17:50:53:04 01:24:13:02 01:24:17:10
* FROM CLIP NAME:  A045C004_190805_R32C 
* SOURCE FILE: MSMMMOB.44

005551 MSMMMOB.03                       V     C        18:13:44:19 18:13:49:04 01:24:17:10 01:24:21:20
* FROM CLIP NAME:  A045C005_190805_R32C 
* SOURCE FILE: MSMMMOB.03

005570 MSMMMOB.02                       V     C        17:35:03:21 17:35:06:14 01:24:21:20 01:24:24:13
* FROM CLIP NAME:  A045C001_190805_R32C 
* SOURCE FILE: MSMMMOB.02

005595 MSMMMOB.03                       V     C        18:14:23:06 18:14:25:23 01:24:24:13 01:24:27:05
* FROM CLIP NAME:  A045C005_190805_R32C 
* SOURCE FILE: MSMMMOB.03

005608 MSMMMOB.44                       V     C        17:51:31:00 17:51:34:16 01:24:27:05 01:24:30:22
* FROM CLIP NAME:  A045C004_190805_R32C 
* SOURCE FILE: MSMMMOB.44

005627 MSMMMOB.03                       V     C        18:13:50:01 18:13:56:20 01:24:30:22 01:24:37:16
* FROM CLIP NAME:  A045C005_190805_R32C 
* SOURCE FILE: MSMMMOB.03

005634 MSMMMOB.44                       V     C        17:51:02:12 17:51:04:10 01:24:37:16 01:24:39:14
* FROM CLIP NAME:  A045C004_190805_R32C 
* SOURCE FILE: MSMMMOB.44

005641 MSMMMOB.03                       V     C        18:13:58:09 18:14:00:16 01:24:39:14 01:24:41:21
* FROM CLIP NAME:  A045C005_190805_R32C 
* SOURCE FILE: MSMMMOB.03

005654 MSMMMOB.44                       V     C        17:51:06:12 17:51:07:15 01:24:41:21 01:24:43:00
* FROM CLIP NAME:  A045C004_190805_R32C 
* SOURCE FILE: MSMMMOB.44

005661 MSMMMOB.35                       V     C        17:37:26:03 17:37:29:08 01:24:43:00 01:24:46:04
* FROM CLIP NAME:  A045C002_190805_R32C 
* SOURCE FILE: MSMMMOB.35

005668 MSMMMOB.03                       V     C        18:14:05:09 18:14:07:13 01:24:46:04 01:24:48:08
* FROM CLIP NAME:  A045C005_190805_R32C 
* SOURCE FILE: MSMMMOB.03

005675 MSMMMOB.35                       V     C        17:37:31:19 17:37:36:00 01:24:48:08 01:24:52:13
* FROM CLIP NAME:  A045C002_190805_R32C 
* SOURCE FILE: MSMMMOB.35

005682 MSMMMOB.03                       V     C        18:14:10:10 18:14:13:02 01:24:52:13 01:24:55:05
* FROM CLIP NAME:  A045C005_190805_R32C 
* SOURCE FILE: MSMMMOB.03

005695 MSMMMOB.44                       V     C        17:51:17:08 17:51:19:15 01:24:55:05 01:24:57:12
* FROM CLIP NAME:  A045C004_190805_R32C 
* SOURCE FILE: MSMMMOB.44

005708 MSMMMOB.03                       V     C        18:14:14:13 18:14:18:07 01:24:57:12 01:25:01:06
* FROM CLIP NAME:  A045C005_190805_R32C 
* SOURCE FILE: MSMMMOB.03

005718 MSMMMOB.44                       V     C        17:51:26:11 17:51:27:17 01:25:01:06 01:25:02:12
* FROM CLIP NAME:  A045C004_190805_R32C 
* SOURCE FILE: MSMMMOB.44

005737 MSMMMOB.03                       V     C        18:14:27:23 18:14:31:12 01:25:02:12 01:25:06:01
* FROM CLIP NAME:  A045C005_190805_R32C 
* SOURCE FILE: MSMMMOB.03

005750 MSMMMOB.44                       V     C        17:51:27:22 17:51:29:07 01:25:06:01 01:25:07:11
* FROM CLIP NAME:  A045C004_190805_R32C 
* SOURCE FILE: MSMMMOB.44

005751 MSMMMOB.10                       V     C        18:25:14:18 18:25:21:20 01:25:07:11 01:25:14:13
* FROM CLIP NAME:  A045C006_190805_R32C 
* SOURCE FILE: MSMMMOB.10

005758 MSMMMOB.35                       V     C        17:38:25:00 17:38:35:22 01:25:14:13 01:25:25:10
* FROM CLIP NAME:  A045C002_190805_R32C 
* SOURCE FILE: MSMMMOB.35

005771 A003C008_190725_R32C             V     C        17:38:15:16 17:38:17:22 01:25:25:10 01:25:27:16
* FROM CLIP NAME:  A003C008_190725_R32C.NEW.01 
* SOURCE FILE: A003C008_190725_R32C

005778 A003C003_190725_R32C             V     C        17:07:06:23 17:07:11:09 01:25:27:16 01:25:32:02
* FROM CLIP NAME:  A003C003_190725_R32C.NEW.01 
* SOURCE FILE: A003C003_190725_R32C

005794 A001C003_190725_R32C             V     C        12:16:35:10 12:16:38:20 01:25:32:02 01:25:35:12
* FROM CLIP NAME:  A001C003_190725_R32C.NEW.01 
* SOURCE FILE: A001C003_190725_R32C

005798 A002C005_190725_R32C             V     C        00:34:03:22 00:34:07:17 01:25:35:12 01:25:39:07
* FROM CLIP NAME:  A002C005_190725_R32C.NEW.01 
* SOURCE FILE: A002C005_190725_R32C

005809 A001C003_190725_R32C             V     C        12:16:39:17 12:16:44:07 01:25:39:07 01:25:43:22
* FROM CLIP NAME:  A001C003_190725_R32C.NEW.01 
* SOURCE FILE: A001C003_190725_R32C

005815 A002C005_190725_R32C             V     C        00:34:13:07 00:34:18:02 01:25:43:22 01:25:48:17
* FROM CLIP NAME:  A002C005_190725_R32C.NEW.01 
* SOURCE FILE: A002C005_190725_R32C

005821 A001C003_190725_R32C             V     C        12:16:43:13 12:16:46:17 01:25:48:17 01:25:51:21
* FROM CLIP NAME:  A001C003_190725_R32C.NEW.01 
* SOURCE FILE: A001C003_190725_R32C

005825 A002C005_190725_R32C             V     C        00:34:17:08 00:34:21:23 01:25:51:21 01:25:56:11
* FROM CLIP NAME:  A002C005_190725_R32C.NEW.01 
* SOURCE FILE: A002C005_190725_R32C

005831 A001C002_190725_R32C             V     C        12:08:18:05 12:08:24:22 01:25:56:11 01:26:03:03
* FROM CLIP NAME:  A001C002_190725_R32C.NEW.01 
* SOURCE FILE: A001C002_190725_R32C

005837 CINEMASCOPE_2-35-1_CROPLINES.PNG V     C        01:00:00:00 01:02:51:04 01:26:00:00 01:28:51:03
* FROM CLIP NAME:  CINEMASCOPE 2-35-1 CROPLINES.PNG 
* SOURCE FILE: CINEMASCOPE 2-35-1 CROPLINES.PNG

005838 A002C004_190725_R32C             V     C        00:28:11:05 00:28:14:20 01:26:03:03 01:26:06:18
* FROM CLIP NAME:  A002C004_190725_R32C.NEW.01 
* SOURCE FILE: A002C004_190725_R32C

005844 A001C002_190725_R32C             V     C        12:08:28:14 12:08:34:10 01:26:06:18 01:26:12:14
* FROM CLIP NAME:  A001C002_190725_R32C.NEW.01 
* SOURCE FILE: A001C002_190725_R32C

005850 A002C005_190725_R32C             V     C        00:34:38:21 00:34:42:12 01:26:12:14 01:26:16:05
* FROM CLIP NAME:  A002C005_190725_R32C.NEW.01 
* SOURCE FILE: A002C005_190725_R32C

005856 A003C004_190725_R32C             V     C        17:12:33:01 17:12:35:04 01:26:16:05 01:26:18:08
* FROM CLIP NAME:  A003C004_190725_R32C.NEW.01 
* SOURCE FILE: A003C004_190725_R32C

005868 A002C005_190725_R32C             V     C        00:34:50:07 00:34:55:06 01:26:18:08 01:26:23:07
* FROM CLIP NAME:  A002C005_190725_R32C.NEW.01 
* SOURCE FILE: A002C005_190725_R32C

005879 A001C002_190725_R32C             V     C        12:08:50:10 12:08:52:14 01:26:23:07 01:26:25:11
* FROM CLIP NAME:  A001C002_190725_R32C.NEW.01 
* SOURCE FILE: A001C002_190725_R32C

005885 A002C005_190725_R32C             V     C        00:34:56:04 00:34:58:19 01:26:25:11 01:26:28:01
* FROM CLIP NAME:  A002C005_190725_R32C.NEW.01 
* SOURCE FILE: A002C005_190725_R32C

005891 A001C003_190725_R32C             V     C        12:17:27:00 12:17:30:08 01:26:28:01 01:26:31:09
* FROM CLIP NAME:  A001C003_190725_R32C.NEW.01 
* SOURCE FILE: A001C003_190725_R32C

005897 A002C005_190725_R32C             V     C        00:35:04:02 00:35:05:15 01:26:31:09 01:26:32:22
* FROM CLIP NAME:  A002C005_190725_R32C.NEW.01 
* SOURCE FILE: A002C005_190725_R32C

005903 A001C003_190725_R32C             V     C        12:17:34:12 12:17:37:12 01:26:32:22 01:26:35:22
* FROM CLIP NAME:  A001C003_190725_R32C.NEW.01 
* SOURCE FILE: A001C003_190725_R32C

005914 A002C004_190725_R32C             V     C        00:28:53:02 00:28:56:19 01:26:35:22 01:26:39:14
* FROM CLIP NAME:  A002C004_190725_R32C.NEW.01 
* SOURCE FILE: A002C004_190725_R32C

005920 A001C003_190725_R32C             V     C        12:17:43:15 12:17:50:02 01:26:39:14 01:26:46:01
* FROM CLIP NAME:  A001C003_190725_R32C.NEW.01 
* SOURCE FILE: A001C003_190725_R32C

005926 A002C004_190725_R32C             V     C        00:29:06:08 00:29:08:09 01:26:46:01 01:26:48:02
* FROM CLIP NAME:  A002C004_190725_R32C.NEW.01 
* SOURCE FILE: A002C004_190725_R32C

005932 A001C003_190725_R32C             V     C        12:17:52:08 12:17:54:09 01:26:48:02 01:26:50:03
* FROM CLIP NAME:  A001C003_190725_R32C.NEW.01 
* SOURCE FILE: A001C003_190725_R32C

005933 A002C004_190725_R32C             V     C        00:29:10:10 00:29:11:19 01:26:50:03 01:26:51:12
* FROM CLIP NAME:  A002C004_190725_R32C.NEW.01 
* SOURCE FILE: A002C004_190725_R32C

005934 A001C003_190725_R32C             V     C        12:18:00:15 12:18:02:00 01:26:51:12 01:26:52:22
* FROM CLIP NAME:  A001C003_190725_R32C.NEW.01 
* SOURCE FILE: A001C003_190725_R32C

005935 A002C004_190725_R32C             V     C        00:29:13:04 00:29:17:11 01:26:52:22 01:26:57:04
* FROM CLIP NAME:  A002C004_190725_R32C.NEW.01 
* SOURCE FILE: A002C004_190725_R32C

005936 A001C003_190725_R32C             V     C        12:18:02:10 12:18:08:20 01:26:57:04 01:27:03:14
* FROM CLIP NAME:  A001C003_190725_R32C.NEW.01 
* SOURCE FILE: A001C003_190725_R32C

005942 A002C004_190725_R32C             V     C        00:29:21:09 00:29:22:22 01:27:03:14 01:27:05:02
* FROM CLIP NAME:  A002C004_190725_R32C.NEW.01 
* SOURCE FILE: A002C004_190725_R32C

005943 A001C003_190725_R32C             V     C        12:18:10:08 12:18:13:15 01:27:05:02 01:27:08:09
* FROM CLIP NAME:  A001C003_190725_R32C.NEW.01 
* SOURCE FILE: A001C003_190725_R32C

005944 A002C004_190725_R32C             V     C        00:29:28:18 00:29:33:10 01:27:08:09 01:27:13:01
* FROM CLIP NAME:  A002C004_190725_R32C.NEW.01 
* SOURCE FILE: A002C004_190725_R32C

005950 A001C003_190725_R32C             V     C        12:18:18:01 12:18:21:09 01:27:13:01 01:27:16:09
* FROM CLIP NAME:  A001C003_190725_R32C.NEW.01 
* SOURCE FILE: A001C003_190725_R32C

005956 A002C005_190725_R32C             V     C        00:39:10:13 00:39:17:20 01:27:16:09 01:27:23:16
* FROM CLIP NAME:  A002C005_190725_R32C.NEW.01 
* SOURCE FILE: A002C005_190725_R32C

005967 A001C001_190725_R32C             V     C        12:01:37:17 12:01:39:13 01:27:23:16 01:27:25:12
* FROM CLIP NAME:  A001C001_190725_R32C.NEW.01 
* SOURCE FILE: A001C001_190725_R32C

005973 A003C010_190725_R32C             V     C        18:18:55:03 18:18:58:09 01:27:25:12 01:27:28:18
* FROM CLIP NAME:  A003C010_190725_R32C.NEW.01 
* SOURCE FILE: A003C010_190725_R32C

005988 BL                               V     C        00:00:00:00 00:00:00:19 01:27:27:12 01:27:28:06
* SOURCE FILE: (NULL)

005989 BL                               V     C        00:00:00:00 00:00:00:08 01:27:28:06 01:27:28:14
* SOURCE FILE: (NULL)

005990 BL                               V     C        00:00:00:00 00:00:03:16 01:27:28:14 01:27:32:05
* SOURCE FILE: (NULL)

006001 B001C016_190725_R4CP             V     C        19:00:22:21 19:00:24:00 01:27:28:18 01:27:29:22
* FROM CLIP NAME:  B001C016_190725_R4CP.NEW.01 
* SOURCE FILE: B001C016_190725_R4CP

006011 B001C012_190725_R4CP             V     C        18:18:57:20 18:18:59:05 01:27:29:22 01:27:31:07
* FROM CLIP NAME:  B001C012_190725_R4CP.NEW.01 
* SOURCE FILE: B001C012_190725_R4CP

006023 B001C017_190725_R4CP             V     C        19:05:45:08 19:05:46:15 01:27:31:07 01:27:32:14
* FROM CLIP NAME:  B001C017_190725_R4CP.NEW.01 
* SOURCE FILE: B001C017_190725_R4CP

006029 BL                               V     C        00:00:00:00 00:01:47:13 01:27:32:05 01:29:19:18
* SOURCE FILE: (NULL)

006030 A003C010_190725_R32C             V     C        18:19:02:01 18:19:03:00 01:27:32:14 01:27:33:12
* FROM CLIP NAME:  A003C010_190725_R32C.NEW.01 
* SOURCE FILE: A003C010_190725_R32C

006041 A003C012_190725_R32C             V     C        18:36:40:14 18:36:42:11 01:27:33:12 01:27:35:09
* FROM CLIP NAME:  A003C012_190725_R32C.NEW.01 
* SOURCE FILE: A003C012_190725_R32C

006042 B001C014_190725_R4CP             V     C        18:52:18:08 18:52:25:11 01:27:35:09 01:27:42:12
* FROM CLIP NAME:  B001C014_190725_R4CP.NEW.01 
* SOURCE FILE: B001C014_190725_R4CP

006048 A003C012_190725_R32C             V     C        18:36:52:03 18:36:55:23 01:27:42:12 01:27:46:07
* FROM CLIP NAME:  A003C012_190725_R32C.NEW.01 
* SOURCE FILE: A003C012_190725_R32C

006053 B001C014_190725_R4CP             V     C        18:52:32:17 18:52:35:04 01:27:46:07 01:27:48:19
* FROM CLIP NAME:  B001C014_190725_R4CP.NEW.01 
* SOURCE FILE: B001C014_190725_R4CP

006059 C0167                            V     C        01:47:19:08 01:47:21:08 01:27:48:19 01:27:50:19
* FROM CLIP NAME:  C0167.NEW.01 
* SOURCE FILE: C0167

006064 B001C013_190725_R4CP             V     C        18:50:23:10 18:50:27:02 01:27:50:19 01:27:54:11
* FROM CLIP NAME:  B001C013_190725_R4CP.NEW.01 
* SOURCE FILE: B001C013_190725_R4CP

006070 A003C011_190725_R32C             V     C        18:34:34:05 18:34:35:11 01:27:54:11 01:27:55:17
* FROM CLIP NAME:  A003C011_190725_R32C.NEW.01 
* SOURCE FILE: A003C011_190725_R32C

006085 B001C017_190725_R4CP             V     C        19:06:07:00 19:06:07:12 01:27:55:17 01:27:56:05
* FROM CLIP NAME:  B001C017_190725_R4CP.NEW.01 
* SOURCE FILE: B001C017_190725_R4CP

006091 A003C010_190725_R32C             V     C        18:19:22:09 18:19:29:06 01:27:56:05 01:28:03:02
* FROM CLIP NAME:  A003C010_190725_R32C.NEW.01 
* SOURCE FILE: A003C010_190725_R32C

006107 A004C004_190725_R32C             V     C        20:00:08:09 20:00:29:10 01:28:03:02 01:28:24:03
* FROM CLIP NAME:  A004C004_190725_R32C.NEW.01 
* SOURCE FILE: A004C004_190725_R32C

006126 A004C006_190725_R32C             V     C        20:09:05:10 20:09:16:15 01:28:24:03 01:28:35:08
* FROM CLIP NAME:  A004C006_190725_R32C.NEW.01 
* SOURCE FILE: A004C006_190725_R32C

006129 BL                               V     C        00:00:00:00 00:00:00:00 01:28:26:00 01:28:26:00

006129 TITLE.01                         V     D   024  01:00:43:06 01:00:44:05 01:28:26:00 01:28:27:00
* BLEND, DISSOLVE 
* TO CLIP NAME:  TITLE.01 
* SOURCE FILE: (NULL)

006130 BL                               V     C        00:00:00:00 00:00:04:00 01:28:26:00 01:28:30:00
* SOURCE FILE: (NULL)

006131 TITLE.01                         V     C        01:00:44:05 01:00:47:09 01:28:27:00 01:28:30:03
* FROM CLIP NAME:  TITLE.01 
* SOURCE FILE: TITLE.01

006132 BL                               V     C        00:00:00:00 00:00:21:04 01:28:30:00 01:28:51:03
* SOURCE FILE: (NULL)

006133 BL                               V     C        00:00:00:00 00:00:22:08 01:28:30:03 01:28:52:11
* SOURCE FILE: (NULL)

006146 C0073                            V     C        00:17:12:10 00:17:14:00 01:28:35:08 01:28:36:22
* FROM CLIP NAME:  C0073.NEW.01 
* SOURCE FILE: C0073

006149 A010C021_190727_R32C             V     C        03:43:13:05 03:43:14:06 01:28:36:22 01:28:37:23
* FROM CLIP NAME:  A010C021_190727_R32C.NEW.01.SUB.01 
* SOURCE FILE: A010C021_190727_R32C

006150 A010C023_190727_R32C             V     C        03:49:28:04 03:49:29:04 01:28:37:23 01:28:38:23
* FROM CLIP NAME:  A010C023_190727_R32C.NEW.01.SUB.01 
* SOURCE FILE: A010C023_190727_R32C

006151 B003C003_190726_R4CP             V     C        10:54:27:01 10:54:28:12 01:28:38:23 01:28:40:09
* FROM CLIP NAME:  B003C003_190726_R4CP.NEW.01.SUB.01 
* SOURCE FILE: B003C003_190726_R4CP

006154 B003C001_190726_R4CP             V     C        10:50:19:00 10:50:20:05 01:28:40:09 01:28:41:15
* FROM CLIP NAME:  B003C001_190726_R4CP.NEW.01.SUB.01 
* SOURCE FILE: B003C001_190726_R4CP

006157 MSMMMOB.90                       V     C        16:49:22:01 16:49:23:18 01:28:41:15 01:28:43:07
* FROM CLIP NAME:  A083C006_190815_R32C 
* SOURCE FILE: MSMMMOB.90

006158 A010C018_190727_R32C             V     C        03:21:08:09 03:21:09:10 01:28:43:07 01:28:44:08
* FROM CLIP NAME:  A010C018_190727_R32C.NEW.01.SUB.01 
* SOURCE FILE: A010C018_190727_R32C

006159 A010C018_190727_R32C             V     C        03:21:11:21 03:21:13:18 01:28:44:08 01:28:46:05
* FROM CLIP NAME:  A010C018_190727_R32C.NEW.01.SUB.01 
* SOURCE FILE: A010C018_190727_R32C

006160 A014C001_190728_R32C             V     C        14:50:51:02 14:50:53:13 01:28:46:05 01:28:48:16
* FROM CLIP NAME:  A014C001_190728_R32C.NEW.01 
* SOURCE FILE: A014C001_190728_R32C

006161 A010C023_190727_R32C             V     C        03:49:40:19 03:49:41:19 01:28:48:16 01:28:49:16
* FROM CLIP NAME:  A010C023_190727_R32C.NEW.01.SUB.01 
* SOURCE FILE: A010C023_190727_R32C

006163 C0061                            V     C        00:14:00:08 00:14:01:20 01:28:49:16 01:28:51:03
* FROM CLIP NAME:  C0061.NEW.01 
* SOURCE FILE: C0061

006168 M108_C030_20190729_R             V     C        17:00:19:13 17:00:25:09 01:28:51:03 01:28:57:00
* FROM CLIP NAME:  M108_C030_20190729_R.NEW.01 
* SOURCE FILE: M108_C030_20190729_R

006167 CINEMASCOPE_2-35-1_CROPLINES.PNG V     C        01:00:17:22 01:00:23:18 01:28:51:03 01:28:57:00
* FROM CLIP NAME:  CINEMASCOPE 2-35-1 CROPLINES.PNG 
* SOURCE FILE: CINEMASCOPE 2-35-1 CROPLINES.PNG

006166 CLIP2_SC1.MOV                    V     C        00:00:00:00 00:00:05:21 01:28:51:03 01:28:57:00
* FROM CLIP NAME:  CLIP2_SC1.MOV 
* SOURCE FILE: CLIP2_SC1.MOV

006171 CINEMASCOPE_2-35-1_CROPLINES.PNG V     C        01:00:00:00 01:01:31:10 01:28:51:03 01:30:22:13
* FROM CLIP NAME:  CINEMASCOPE 2-35-1 CROPLINES.PNG 
* SOURCE FILE: CINEMASCOPE 2-35-1 CROPLINES.PNG

006173 BL                               V     C        00:00:00:00 00:00:03:07 01:28:52:11 01:28:55:18
* SOURCE FILE: (NULL)

006174 BL                               V     C        00:00:00:00 00:00:01:06 01:28:55:18 01:28:57:00
* SOURCE FILE: (NULL)

006175 MSMMMOB.85                       V     C        11:07:47:07 11:07:49:06 01:28:57:00 01:28:58:23
* FROM CLIP NAME:  A097C001_190822_R32C 
* SOURCE FILE: MSMMMOB.85

006181 BL                               V     C        00:00:00:00 00:00:23:07 01:28:57:00 01:29:20:06
* SOURCE FILE: (NULL)

006182 BL                               V     C        00:00:00:00 00:00:23:19 01:28:57:00 01:29:20:18
* SOURCE FILE: (NULL)

006183 BL                               V     C        00:00:00:00 00:00:24:07 01:28:57:00 01:29:21:06
* SOURCE FILE: (NULL)

006184 MSMMMOB.31                       V     C        11:38:39:12 11:38:41:13 01:28:58:23 01:29:01:00
* FROM CLIP NAME:  A097C004_190822_R32C 
* SOURCE FILE: MSMMMOB.31

006191 MSMMMOB.31                       V     C        11:38:49:18 11:38:51:03 01:29:01:00 01:29:02:09
* FROM CLIP NAME:  A097C004_190822_R32C 
* SOURCE FILE: MSMMMOB.31

006198 MSMMMOB.91                       V     C        11:43:51:19 11:43:52:08 01:29:02:09 01:29:02:23
* FROM CLIP NAME:  A097C005_190822_R32C 
* SOURCE FILE: MSMMMOB.91

006205 MSMMMOB.31                       V     C        11:38:51:22 11:38:53:05 01:29:02:23 01:29:04:06
* FROM CLIP NAME:  A097C004_190822_R32C 
* SOURCE FILE: MSMMMOB.31

006212 MSMMMOB.91                       V     C        11:43:54:04 11:43:54:23 01:29:04:06 01:29:05:00
* FROM CLIP NAME:  A097C005_190822_R32C 
* SOURCE FILE: MSMMMOB.91

006219 MSMMMOB.31                       V     C        11:38:55:11 11:38:57:07 01:29:05:00 01:29:06:21
* FROM CLIP NAME:  A097C004_190822_R32C 
* SOURCE FILE: MSMMMOB.31

006226 MSMMMOB.46                       V     C        15:11:41:10 15:11:42:18 01:29:06:21 01:29:08:04
* FROM CLIP NAME:  S003_C013_20190819_R 
* SOURCE FILE: MSMMMOB.46

006227 MSMMMOB.19                       V     C        14:58:39:22 14:58:40:18 01:29:08:04 01:29:09:00
* FROM CLIP NAME:  S003_C010_20190819_R 
* SOURCE FILE: MSMMMOB.19

006228 MSMMMOB.62                       V     C        10:19:38:00 10:19:39:05 01:29:09:00 01:29:10:00
* FROM CLIP NAME:  A085C009_190819_R32C 
* SOURCE FILE: MSMMMOB.62

006229 MSMMMOB.90                       V     C        16:50:04:22 16:50:06:16 01:29:10:00 01:29:11:18
* FROM CLIP NAME:  A083C006_190815_R32C 
* SOURCE FILE: MSMMMOB.90

006236 MSMMMOB.90                       V     C        16:50:08:14 16:50:11:06 01:29:11:18 01:29:14:10
* FROM CLIP NAME:  A083C006_190815_R32C 
* SOURCE FILE: MSMMMOB.90

006245 MSMMMOB.90                       V     C        16:50:20:22 16:50:24:12 01:29:14:10 01:29:18:00
* FROM CLIP NAME:  A083C006_190815_R32C 
* SOURCE FILE: MSMMMOB.90

006254 B003C001_190726_R4CP             V     C        10:50:52:03 10:50:53:14 01:29:18:00 01:29:19:11
* FROM CLIP NAME:  B003C001_190726_R4CP.NEW.01.SUB.01 
* SOURCE FILE: B003C001_190726_R4CP

006261 M108_C034_20190729_R             V     C        17:26:49:03 17:26:51:11 01:29:19:11 01:29:21:19
* FROM CLIP NAME:  M108_C034_20190729_R.NEW.01 
* SOURCE FILE: M108_C034_20190729_R

006260 BL                               V     C        00:00:00:00 00:00:02:08 01:29:19:11 01:29:21:19
* SOURCE FILE: (NULL)

006263 IMG_0066.JPG                     V     C        01:00:00:14 01:00:02:15 01:29:19:18 01:29:21:19
* FROM CLIP NAME:  IMG_0066.JPG 
* SOURCE FILE: IMG_0066.JPG

006265 IMG_0071.JPG                     V     C        01:00:01:02 01:00:02:15 01:29:20:06 01:29:21:19
* FROM CLIP NAME:  IMG_0071.JPG 
* SOURCE FILE: IMG_0071.JPG

006267 IMG_0070.JPG                     V     C        01:00:01:14 01:00:02:15 01:29:20:18 01:29:21:19
* FROM CLIP NAME:  IMG_0070.JPG 
* SOURCE FILE: IMG_0070.JPG

006269 IMG_0063.JPG                     V     C        01:00:00:03 01:00:00:16 01:29:21:06 01:29:21:19
* FROM CLIP NAME:  IMG_0063.JPG 
* SOURCE FILE: IMG_0063.JPG

006270 B005C002_190726_R4CP             V     C        17:50:47:07 17:50:48:02 01:29:21:19 01:29:22:14
* FROM CLIP NAME:  B005C002_190726_R4CP.NEW.01 
* SOURCE FILE: B005C002_190726_R4CP

006276 BL                               V     C        00:00:00:00 00:00:04:06 01:29:21:19 01:29:26:00
* SOURCE FILE: (NULL)

006277 BL                               V     C        00:00:00:00 00:00:16:05 01:29:21:19 01:29:38:00
* SOURCE FILE: (NULL)

006278 BL                               V     C        00:00:00:00 00:00:25:00 01:29:21:19 01:29:46:19
* SOURCE FILE: (NULL)

006279 BL                               V     C        00:00:00:00 00:27:13:18 01:29:21:19 01:56:35:12
* SOURCE FILE: (NULL)

006280 BL                               V     C        00:00:00:00 00:27:38:06 01:29:21:19 01:57:00:00
* SOURCE FILE: (NULL)

006281 B005C001_190726_R4CP             V     C        17:49:12:12 17:49:13:12 01:29:22:14 01:29:23:14
* FROM CLIP NAME:  B005C001_190726_R4CP.NEW.01 
* SOURCE FILE: B005C001_190726_R4CP

006287 B005C001_190726_R4CP             V     C        17:49:26:21 17:49:28:00 01:29:23:14 01:29:24:18
* FROM CLIP NAME:  B005C001_190726_R4CP.NEW.01 
* SOURCE FILE: B005C001_190726_R4CP

006293 B005C008_190726_R4CP             V     C        18:21:40:04 18:21:41:05 01:29:24:18 01:29:25:19
* FROM CLIP NAME:  B005C008_190726_R4CP.NEW.01 
* SOURCE FILE: B005C008_190726_R4CP

006300 B005C008_190726_R4CP             V     C        18:21:43:00 18:21:46:22 01:29:25:19 01:29:29:17
* FROM CLIP NAME:  B005C008_190726_R4CP.NEW.01 
* SOURCE FILE: B005C008_190726_R4CP

006301 CLIP3_SC3.MOV                    V     C        00:00:01:03 00:00:06:13 01:29:26:00 01:29:31:10
* FROM CLIP NAME:  CLIP3_SC3.MOV 
* SOURCE FILE: CLIP3_SC3.MOV

006313 B005C008_190726_R4CP             V     C        18:21:51:01 18:21:52:19 01:29:29:17 01:29:31:10
* FROM CLIP NAME:  B005C008_190726_R4CP.NEW.01 
* SOURCE FILE: B005C008_190726_R4CP

006314 B005C003_190726_R4CP             V     C        17:53:11:20 17:53:13:14 01:29:31:10 01:29:33:04
* FROM CLIP NAME:  B005C003_190726_R4CP.NEW.01 
* SOURCE FILE: B005C003_190726_R4CP

006315 BL                               V     C        00:00:00:00 00:27:14:04 01:29:31:10 01:56:45:14
* SOURCE FILE: (NULL)

006316 B005C008_190726_R4CP             V     C        18:21:52:21 18:21:54:05 01:29:33:04 01:29:34:13
* FROM CLIP NAME:  B005C008_190726_R4CP.NEW.01 
* SOURCE FILE: B005C008_190726_R4CP

006323 B005C008_190726_R4CP             V     C        18:22:00:05 18:22:01:05 01:29:34:13 01:29:35:13
* FROM CLIP NAME:  B005C008_190726_R4CP.NEW.01 
* SOURCE FILE: B005C008_190726_R4CP

006324 B005C008_190726_R4CP             V     C        18:22:02:08 18:22:03:07 01:29:35:13 01:29:36:12
* FROM CLIP NAME:  B005C008_190726_R4CP.NEW.01 
* SOURCE FILE: B005C008_190726_R4CP

006325 B005C008_190726_R4CP             V     C        18:22:05:08 18:22:06:20 01:29:36:12 01:29:38:00
* FROM CLIP NAME:  B005C008_190726_R4CP.NEW.01 
* SOURCE FILE: B005C008_190726_R4CP

006326 B001C011_190725_R4CP             V     C        10:23:53:08 10:23:56:08 01:29:38:00 01:29:41:00
* FROM CLIP NAME:  B001C011_190725_R4CP.NEW.01 
* SOURCE FILE: B001C011_190725_R4CP

006329 CLIP4_SC4.MOV                    V     C        00:00:00:00 00:00:07:03 01:29:38:00 01:29:45:02
* FROM CLIP NAME:  CLIP4_SC4.MOV 
* SOURCE FILE: CLIP4_SC4.MOV

006334 MSMMMOB.29                       V     C        17:09:36:07 17:09:40:10 01:29:41:00 01:29:45:02
* FROM CLIP NAME:  A061C008_190809_R32C 
* SOURCE FILE: MSMMMOB.29

006341 MSMMMOB.55                       V     C        18:12:14:16 18:12:16:08 01:29:45:02 01:29:46:19
* FROM CLIP NAME:  A061C011_190809_R32C 
* SOURCE FILE: MSMMMOB.55

006347 BL                               V     C        00:00:00:00 00:00:25:04 01:29:45:02 01:30:10:06
* SOURCE FILE: (NULL)

006350 MSMMMOB.55                       V     C        18:12:38:21 18:12:42:09 01:29:46:19 01:29:50:07
* FROM CLIP NAME:  A061C011_190809_R32C 
* SOURCE FILE: MSMMMOB.55

006351 CLIP5_SC5.MOV                    V     C        00:00:00:00 00:00:03:13 01:29:46:19 01:29:50:07
* FROM CLIP NAME:  CLIP5_SC5.MOV 
* SOURCE FILE: CLIP5_SC5.MOV

006359 CLIP5_SC5.MOV                    V     C        00:00:04:03 00:00:06:16 01:29:50:07 01:29:52:20
* FROM CLIP NAME:  CLIP5_SC5.MOV 
* SOURCE FILE: CLIP5_SC5.MOV

006358 MSMMMOB.55                       V     C        18:13:00:08 18:13:02:21 01:29:50:07 01:29:52:20
* FROM CLIP NAME:  A061C011_190809_R32C 
* SOURCE FILE: MSMMMOB.55

006367 MSMMMOB.35                       V     C        19:26:45:05 19:26:46:14 01:29:52:20 01:29:54:04
* FROM CLIP NAME:  A101C004_190822_R32C 
* SOURCE FILE: MSMMMOB.35

006373 BL                               V     C        00:00:00:00 00:00:09:11 01:29:52:20 01:30:02:06
* SOURCE FILE: (NULL)

006374 MSMMMOB.35                       V     C        19:26:48:17 19:26:50:06 01:29:54:04 01:29:55:18
* FROM CLIP NAME:  A101C004_190822_R32C 
* SOURCE FILE: MSMMMOB.35

006380 MSMMMOB.35                       V     C        19:26:54:19 19:26:56:10 01:29:55:18 01:29:57:09
* FROM CLIP NAME:  A101C004_190822_R32C 
* SOURCE FILE: MSMMMOB.35

006386 MSMMMOB.35                       V     C        19:26:57:15 19:27:00:00 01:29:57:09 01:29:59:18
* FROM CLIP NAME:  A101C004_190822_R32C 
* SOURCE FILE: MSMMMOB.35

006397 MSMMMOB.89                       V     C        19:28:18:13 19:28:21:01 01:29:59:18 01:30:02:06
* FROM CLIP NAME:  A101C006_190822_R32C 
* SOURCE FILE: MSMMMOB.89

006403 BL                               V     C        00:00:00:00 00:00:03:21 01:30:02:06 01:30:06:02
* SOURCE FILE: (NULL)

006402 M108_C024_20190729_R             V     C        16:08:12:20 16:08:16:16 01:30:02:06 01:30:06:02
* FROM CLIP NAME:  M108_C024_20190729_R.NEW.01 
* SOURCE FILE: M108_C024_20190729_R

006406 C0008                            V     C        00:01:44:14 00:01:45:16 01:30:06:02 01:30:07:04
* FROM CLIP NAME:  C0008.NEW.01 
* SOURCE FILE: C0008

006411 BL                               V     C        00:00:00:00 00:00:35:02 01:30:06:02 01:30:41:04
* SOURCE FILE: (NULL)

006412 C0011                            V     C        00:02:53:07 00:02:54:13 01:30:07:04 01:30:08:10
* FROM CLIP NAME:  C0011.NEW.01 
* SOURCE FILE: C0011

006413 C0013                            V     C        00:03:59:22 00:04:01:08 01:30:08:10 01:30:09:21
* FROM CLIP NAME:  C0013.NEW.01 
* SOURCE FILE: C0013

006416 B001C009_190725_R4CP             V     C        09:54:06:07 09:54:08:05 01:30:09:21 01:30:11:19
* FROM CLIP NAME:  B001C009_190725_R4CP.NEW.01 
* SOURCE FILE: B001C009_190725_R4CP

006417 CLIP6_SC6.MOV                    V     C        00:00:00:00 00:00:04:04 01:30:10:06 01:30:14:10
* FROM CLIP NAME:  CLIP6_SC6.MOV 
* SOURCE FILE: CLIP6_SC6.MOV

006419 B001C009_190725_R4CP             V     C        09:54:14:04 09:54:16:20 01:30:11:19 01:30:14:10
* FROM CLIP NAME:  B001C009_190725_R4CP.NEW.01 
* SOURCE FILE: B001C009_190725_R4CP

006421 CLIP6_SC6.MOV                    V     C        00:00:05:13 00:00:08:10 01:30:14:10 01:30:17:07
* FROM CLIP NAME:  CLIP6_SC6.MOV 
* SOURCE FILE: CLIP6_SC6.MOV

006422 B001C009_190725_R4CP             V     C        09:54:24:15 09:54:27:22 01:30:14:10 01:30:17:17
* FROM CLIP NAME:  B001C009_190725_R4CP.NEW.01 
* SOURCE FILE: B001C009_190725_R4CP

006424 CLIP6_SC6.MOV                    V     C        00:00:07:15 00:00:10:22 01:30:17:07 01:30:20:14
* FROM CLIP NAME:  CLIP6_SC6.MOV 
* SOURCE FILE: CLIP6_SC6.MOV

006425 B001C009_190725_R4CP             V     C        09:54:32:07 09:54:35:20 01:30:17:17 01:30:21:05
* FROM CLIP NAME:  B001C009_190725_R4CP.NEW.01 
* SOURCE FILE: B001C009_190725_R4CP

006427 CLIP6_SC6.MOV                    V     C        00:00:10:22 00:00:10:22 01:30:20:14 01:30:20:14

006427 BL                               V     D   011  00:00:00:00 00:00:00:11 01:30:20:14 01:30:21:00
* BLEND, DISSOLVE 
* FROM CLIP NAME:  CLIP6_SC6.MOV 
* SOURCE FILE: CLIP6_SC6.MOV

006428 BL                               V     C        00:00:00:00 00:02:48:09 01:30:21:00 01:33:09:09
* SOURCE FILE: (NULL)

006429 C0077                            V     C        00:19:19:02 00:19:20:10 01:30:21:05 01:30:22:13
* FROM CLIP NAME:  C0077.NEW.01 
* SOURCE FILE: C0077

006430 MSMMMOB.39                       V     C        20:08:59:05 20:09:00:20 01:30:22:13 01:30:24:03
* FROM CLIP NAME:  S003_C031_20190819_R 
* SOURCE FILE: MSMMMOB.39

006433 BL                               V     C        00:00:00:00 00:00:02:10 01:30:22:13 01:30:24:23
* SOURCE FILE: (NULL)

006434 CINEMASCOPE_2-35-1_CROPLINES.PNG V     C        01:00:00:00 01:02:46:21 01:30:22:13 01:33:09:09
* FROM CLIP NAME:  CINEMASCOPE 2-35-1 CROPLINES.PNG 
* SOURCE FILE: CINEMASCOPE 2-35-1 CROPLINES.PNG

006435 A018C003_190728_R32C             V     C        22:13:09:00 22:13:10:17 01:30:24:03 01:30:25:21
* FROM CLIP NAME:  A018C003_190728_R32C.NEW.01 
* SOURCE FILE: A018C003_190728_R32C

006442 CLIP7_SC7.MOV                    V     C        00:00:01:00 00:00:01:17 01:30:24:23 01:30:25:15
* FROM CLIP NAME:  CLIP7_SC7.MOV 
* SOURCE FILE: CLIP7_SC7.MOV

006443 CLIP7_SC7.MOV                    V     C        00:00:01:13 00:00:01:17 01:30:25:15 01:30:25:19
* FROM CLIP NAME:  CLIP7_SC7.MOV 
* SOURCE FILE: CLIP7_SC7.MOV

006444 CLIP7_SC7.MOV                    V     C        00:00:01:13 00:00:01:15 01:30:25:19 01:30:25:21
* FROM CLIP NAME:  CLIP7_SC7.MOV 
* SOURCE FILE: CLIP7_SC7.MOV

006445 A018C003_190728_R32C             V     C        22:12:15:07 22:12:17:11 01:30:25:21 01:30:28:00
* FROM CLIP NAME:  A018C003_190728_R32C.NEW.01 
* SOURCE FILE: A018C003_190728_R32C

006446 CLIP7_SC7.MOV                    V     C        00:00:01:18 00:00:05:08 01:30:25:21 01:30:29:11
* FROM CLIP NAME:  CLIP7_SC7.MOV 
* SOURCE FILE: CLIP7_SC7.MOV

006459 A018C003_190728_R32C             V     C        22:11:34:22 22:11:36:08 01:30:28:00 01:30:29:11
* FROM CLIP NAME:  A018C003_190728_R32C.NEW.01 
* SOURCE FILE: A018C003_190728_R32C

006467 A018C003_190728_R32C             V     C        22:11:46:05 22:11:48:17 01:30:29:11 01:30:31:23
* FROM CLIP NAME:  A018C003_190728_R32C.NEW.01 
* SOURCE FILE: A018C003_190728_R32C

006466 CLIP7_SC7.MOV                    V     C        00:00:05:18 00:00:08:05 01:30:29:11 01:30:31:23
* FROM CLIP NAME:  CLIP7_SC7.MOV 
* SOURCE FILE: CLIP7_SC7.MOV

006474 CLIP7_SC7.MOV                    V     C        00:00:09:07 00:00:10:12 01:30:31:23 01:30:33:03
* FROM CLIP NAME:  CLIP7_SC7.MOV 
* SOURCE FILE: CLIP7_SC7.MOV

006475 A018C003_190728_R32C             V     C        22:11:59:07 22:12:02:06 01:30:31:23 01:30:34:22
* FROM CLIP NAME:  A018C003_190728_R32C.NEW.01 
* SOURCE FILE: A018C003_190728_R32C

006476 CLIP7_SC7.MOV                    V     C        00:00:10:22 00:00:12:16 01:30:33:03 01:30:34:22
* FROM CLIP NAME:  CLIP7_SC7.MOV 
* SOURCE FILE: CLIP7_SC7.MOV

006478 CLIP7_SC7.MOV                    V     C        00:00:13:03 00:00:13:23 01:30:34:22 01:30:35:17
* FROM CLIP NAME:  CLIP7_SC7.MOV 
* SOURCE FILE: CLIP7_SC7.MOV

006477 A018C003_190728_R32C             V     C        22:13:21:08 22:13:22:03 01:30:34:22 01:30:35:17
* FROM CLIP NAME:  A018C003_190728_R32C.NEW.01 
* SOURCE FILE: A018C003_190728_R32C

006480 A018C003_190728_R32C             V     C        22:12:37:11 22:12:38:10 01:30:35:17 01:30:36:16
* FROM CLIP NAME:  A018C003_190728_R32C.NEW.01 
* SOURCE FILE: A018C003_190728_R32C

006479 CLIP7_SC7.MOV                    V     C        00:00:13:03 00:00:14:02 01:30:35:17 01:30:36:16
* FROM CLIP NAME:  CLIP7_SC7.MOV 
* SOURCE FILE: CLIP7_SC7.MOV

006486 A018C003_190728_R32C             V     C        22:13:29:00 22:13:30:01 01:30:36:16 01:30:37:17
* FROM CLIP NAME:  A018C003_190728_R32C.NEW.01 
* SOURCE FILE: A018C003_190728_R32C

006485 CLIP7_SC7.MOV                    V     C        00:00:13:03 00:00:14:04 01:30:36:16 01:30:37:17
* FROM CLIP NAME:  CLIP7_SC7.MOV 
* SOURCE FILE: CLIP7_SC7.MOV

006489 MSMMMOB.59                       V     C        20:05:35:14 20:05:36:15 01:30:37:17 01:30:38:18
* FROM CLIP NAME:  S003_C030_20190819_R 
* SOURCE FILE: MSMMMOB.59

006490 BL                               V     C        00:00:00:00 00:06:59:00 01:30:37:17 01:37:36:17
* SOURCE FILE: (NULL)

006491 C0077                            V     C        00:20:15:06 00:20:16:04 01:30:38:18 01:30:39:16
* FROM CLIP NAME:  C0077.NEW.01 
* SOURCE FILE: C0077

006492 A019C019_190729_R32C             V     C        10:08:01:20 10:08:02:07 01:30:39:16 01:30:40:03
* FROM CLIP NAME:  A019C019_190729_R32C.NEW.01.SUB.01 
* SOURCE FILE: A019C019_190729_R32C

006493 A019C019_190729_R32C             V     C        10:08:04:21 10:08:05:08 01:30:40:03 01:30:40:15
* FROM CLIP NAME:  A019C019_190729_R32C.NEW.01.SUB.01 
* SOURCE FILE: A019C019_190729_R32C

006494 A019C019_190729_R32C             V     C        10:08:06:11 10:08:07:00 01:30:40:15 01:30:41:04
* FROM CLIP NAME:  A019C019_190729_R32C.NEW.01.SUB.01 
* SOURCE FILE: A019C019_190729_R32C

006496 BL                               V     C        00:00:00:00 00:00:01:23 01:30:41:04 01:30:43:02
* SOURCE FILE: (NULL)

006495 A019C016_190729_R32C             V     C        09:58:34:04 09:58:36:02 01:30:41:04 01:30:43:02
* FROM CLIP NAME:  A019C016_190729_R32C.NEW.01.SUB.01 
* SOURCE FILE: A019C016_190729_R32C

006497 MSMMMOB.31                       V     C        00:00:14:12 00:00:15:17 01:30:43:02 01:30:44:07
* FROM CLIP NAME:  08222019_183617 
* SOURCE FILE: MSMMMOB.31

006500 BL                               V     C        00:00:00:00 00:08:14:14 01:30:43:02 01:38:57:16
* SOURCE FILE: (NULL)

006501 MSMMMOB.31                       V     C        00:00:20:00 00:00:22:01 01:30:44:07 01:30:46:08
* FROM CLIP NAME:  08222019_183617 
* SOURCE FILE: MSMMMOB.31

006504 MSMMMOB.31                       V     C        00:00:24:21 00:00:26:09 01:30:46:08 01:30:47:21
* FROM CLIP NAME:  08222019_183617 
* SOURCE FILE: MSMMMOB.31

006507 MSMMMOB.67                       V     C        14:29:47:01 14:29:49:21 01:30:47:21 01:30:50:16
* FROM CLIP NAME:  A098C007_190822_R32C 
* SOURCE FILE: MSMMMOB.67

006514 MSMMMOB.34                       V     C        00:00:15:18 00:00:18:17 01:30:50:16 01:30:53:15
* FROM CLIP NAME:  08222019_123333 
* SOURCE FILE: MSMMMOB.34

006515 MSMMMOB.20                       V     C        18:14:36:13 18:14:39:21 01:30:53:15 01:30:56:23
* FROM CLIP NAME:  46-5-1 
* SOURCE FILE: MSMMMOB.20

006527 MSMMMOB.62                       V     C        17:03:05:06 17:03:26:21 01:30:56:23 01:31:18:13
* FROM CLIP NAME:  A099C004_190822_R32C 
* SOURCE FILE: MSMMMOB.62

006528 MSMMMOB.48                       V     C        17:29:41:02 17:29:45:07 01:31:18:13 01:31:22:18
* FROM CLIP NAME:  A099C007_190822_R32C 
* SOURCE FILE: MSMMMOB.48

006536 MSMMMOB.77                       V     C        18:05:27:13 18:05:30:03 01:31:22:18 01:31:25:08
* FROM CLIP NAME:  A100C004_190822_R32C 
* SOURCE FILE: MSMMMOB.77

006544 MSMMMOB.62                       V     C        17:03:26:14 17:03:30:05 01:31:25:08 01:31:29:00
* FROM CLIP NAME:  A099C004_190822_R32C 
* SOURCE FILE: MSMMMOB.62

006554 MSMMMOB.77                       V     C        18:06:09:19 18:06:11:08 01:31:29:00 01:31:30:13
* FROM CLIP NAME:  A100C004_190822_R32C 
* SOURCE FILE: MSMMMOB.77

006562 MSMMMOB.48                       V     C        17:29:51:23 17:29:53:00 01:31:30:13 01:31:31:14
* FROM CLIP NAME:  A099C007_190822_R32C 
* SOURCE FILE: MSMMMOB.48

006570 MSMMMOB.77                       V     C        18:06:13:00 18:06:14:04 01:31:31:14 01:31:32:18
* FROM CLIP NAME:  A100C004_190822_R32C 
* SOURCE FILE: MSMMMOB.77

006578 MSMMMOB.48                       V     C        17:29:53:20 17:29:56:16 01:31:32:18 01:31:35:14
* FROM CLIP NAME:  A099C007_190822_R32C 
* SOURCE FILE: MSMMMOB.48

006586 MSMMMOB.62                       V     C        17:03:36:10 17:03:46:08 01:31:35:14 01:31:45:12
* FROM CLIP NAME:  A099C004_190822_R32C 
* SOURCE FILE: MSMMMOB.62

006598 MSMMMOB.43                       V     C        17:22:03:07 17:22:08:23 01:31:45:12 01:31:51:03
* FROM CLIP NAME:  A099C005_190822_R32C 
* SOURCE FILE: MSMMMOB.43

006613 MSMMMOB.77                       V     C        18:06:24:09 18:06:28:07 01:31:51:03 01:31:55:01
* FROM CLIP NAME:  A100C004_190822_R32C 
* SOURCE FILE: MSMMMOB.77

006628 MSMMMOB.48                       V     C        17:30:12:16 17:30:17:11 01:31:55:01 01:31:59:21
* FROM CLIP NAME:  A099C007_190822_R32C 
* SOURCE FILE: MSMMMOB.48

006638 MSMMMOB.77                       V     C        18:06:35:11 18:06:36:17 01:31:59:21 01:32:01:02
* FROM CLIP NAME:  A100C004_190822_R32C 
* SOURCE FILE: MSMMMOB.77

006653 MSMMMOB.43                       V     C        17:22:23:05 17:22:25:05 01:32:01:02 01:32:03:02
* FROM CLIP NAME:  A099C005_190822_R32C 
* SOURCE FILE: MSMMMOB.43

006677 MSMMMOB.77                       V     C        18:06:42:21 18:06:48:15 01:32:03:02 01:32:08:21
* FROM CLIP NAME:  A100C004_190822_R32C 
* SOURCE FILE: MSMMMOB.77

006678 MSMMMOB.48                       V     C        17:30:30:04 17:30:35:20 01:32:08:21 01:32:14:12
* FROM CLIP NAME:  A099C007_190822_R32C 
* SOURCE FILE: MSMMMOB.48

006697 MSMMMOB.77                       V     C        18:06:54:15 18:06:56:22 01:32:14:12 01:32:16:19
* FROM CLIP NAME:  A100C004_190822_R32C 
* SOURCE FILE: MSMMMOB.77

006712 MSMMMOB.49                       V     C        17:27:18:22 17:27:20:21 01:32:16:19 01:32:18:18
* FROM CLIP NAME:  A099C006_190822_R32C 
* SOURCE FILE: MSMMMOB.49

006713 MSMMMOB.02                       V     C        18:02:56:09 18:02:58:14 01:32:18:18 01:32:20:23
* FROM CLIP NAME:  A100C003_190822_R32C 
* SOURCE FILE: MSMMMOB.02

006723 MSMMMOB.43                       V     C        17:22:46:23 17:22:49:01 01:32:20:23 01:32:23:01
* FROM CLIP NAME:  A099C005_190822_R32C 
* SOURCE FILE: MSMMMOB.43

006731 MSMMMOB.02                       V     C        18:02:59:01 18:03:02:02 01:32:23:01 01:32:26:02
* FROM CLIP NAME:  A100C003_190822_R32C 
* SOURCE FILE: MSMMMOB.02

006739 MSMMMOB.48                       V     C        17:30:51:01 17:30:53:00 01:32:26:02 01:32:28:00
* FROM CLIP NAME:  A099C007_190822_R32C 
* SOURCE FILE: MSMMMOB.48

006747 MSMMMOB.77                       V     C        18:07:14:01 18:07:15:19 01:32:28:00 01:32:29:18
* FROM CLIP NAME:  A100C004_190822_R32C 
* SOURCE FILE: MSMMMOB.77

006748 MSMMMOB.48                       V     C        17:30:54:17 17:30:58:10 01:32:29:18 01:32:33:11
* FROM CLIP NAME:  A099C007_190822_R32C 
* SOURCE FILE: MSMMMOB.48

006751 MSMMMOB.77                       V     C        18:07:19:17 18:07:24:21 01:32:33:11 01:32:38:15
* FROM CLIP NAME:  A100C004_190822_R32C 
* SOURCE FILE: MSMMMOB.77

006766 MSMMMOB.48                       V     C        17:31:02:20 17:31:08:09 01:32:38:15 01:32:44:04
* FROM CLIP NAME:  A099C007_190822_R32C 
* SOURCE FILE: MSMMMOB.48

006781 MSMMMOB.77                       V     C        18:07:28:14 18:07:33:00 01:32:44:04 01:32:48:14
* FROM CLIP NAME:  A100C004_190822_R32C 
* SOURCE FILE: MSMMMOB.77

006796 MSMMMOB.19                       V     C        16:45:41:05 16:45:43:03 01:32:48:14 01:32:50:12
* FROM CLIP NAME:  A098C013_190822_R32C 
* SOURCE FILE: MSMMMOB.19

006797 MSMMMOB.02                       V     C        18:03:23:01 18:03:24:23 01:32:50:12 01:32:52:09
* FROM CLIP NAME:  A100C003_190822_R32C 
* SOURCE FILE: MSMMMOB.02

006805 MSMMMOB.43                       V     C        17:23:11:19 17:23:16:18 01:32:52:09 01:32:57:08
* FROM CLIP NAME:  A099C005_190822_R32C 
* SOURCE FILE: MSMMMOB.43

006813 MSMMMOB.77                       V     C        18:07:37:22 18:07:42:15 01:32:57:08 01:33:02:01
* FROM CLIP NAME:  A100C004_190822_R32C 
* SOURCE FILE: MSMMMOB.77

006821 MSMMMOB.57                       V     C        16:50:22:18 16:50:24:03 01:33:02:01 01:33:03:11
* FROM CLIP NAME:  A099C001_190822_R32C 
* SOURCE FILE: MSMMMOB.57

006836 MSMMMOB.48                       V     C        17:31:28:17 17:31:34:15 01:33:03:11 01:33:09:09
* FROM CLIP NAME:  A099C007_190822_R32C 
* SOURCE FILE: MSMMMOB.48

006850 MSMMMOB.33                       V     C        13:37:59:08 13:38:03:09 01:33:09:09 01:33:13:10
* FROM CLIP NAME:  A097C011_190822_R32C 
* SOURCE FILE: MSMMMOB.33

006851 CINEMASCOPE_2-35-1_CROPLINES.PNG V     C        01:00:00:00 01:01:27:12 01:33:09:09 01:34:36:21
* FROM CLIP NAME:  CINEMASCOPE 2-35-1 CROPLINES.PNG 
* SOURCE FILE: CINEMASCOPE 2-35-1 CROPLINES.PNG

006852 BL                               V     C        00:00:00:00 00:04:27:08 01:33:09:09 01:37:36:17
* SOURCE FILE: (NULL)

006859 MSMMMOB.24                       V     C        14:03:18:04 14:03:21:00 01:33:13:10 01:33:16:06
* FROM CLIP NAME:  A098C004_190822_R32C 
* SOURCE FILE: MSMMMOB.24

006866 MSMMMOB.33                       V     C        13:38:08:18 13:38:12:04 01:33:16:06 01:33:19:17
* FROM CLIP NAME:  A097C011_190822_R32C 
* SOURCE FILE: MSMMMOB.33

006885 MSMMMOB.23                       V     C        14:09:20:06 14:09:22:08 01:33:19:17 01:33:21:19
* FROM CLIP NAME:  A098C005_190822_R32C 
* SOURCE FILE: MSMMMOB.23

006904 MSMMMOB.24                       V     C        14:03:24:11 14:03:26:02 01:33:21:19 01:33:23:10
* FROM CLIP NAME:  A098C004_190822_R32C 
* SOURCE FILE: MSMMMOB.24

006917 MSMMMOB.33                       V     C        13:38:13:00 13:38:23:04 01:33:23:10 01:33:33:14
* FROM CLIP NAME:  A097C011_190822_R32C 
* SOURCE FILE: MSMMMOB.33

006918 MSMMMOB.24                       V     C        14:03:38:05 14:03:46:01 01:33:33:14 01:33:41:10
* FROM CLIP NAME:  A098C004_190822_R32C 
* SOURCE FILE: MSMMMOB.24

006937 MSMMMOB.33                       V     C        13:38:29:12 13:38:32:13 01:33:41:10 01:33:44:11
* FROM CLIP NAME:  A097C011_190822_R32C 
* SOURCE FILE: MSMMMOB.33

006944 MSMMMOB.24                       V     C        14:03:45:23 14:03:49:20 01:33:44:11 01:33:48:08
* FROM CLIP NAME:  A098C004_190822_R32C 
* SOURCE FILE: MSMMMOB.24

006993 MSMMMOB.33                       V     C        13:38:34:14 13:38:41:15 01:33:48:08 01:33:55:09
* FROM CLIP NAME:  A097C011_190822_R32C 
* SOURCE FILE: MSMMMOB.33

007006 MSMMMOB.24                       V     C        14:03:57:06 14:03:58:22 01:33:55:09 01:33:57:00
* FROM CLIP NAME:  A098C004_190822_R32C 
* SOURCE FILE: MSMMMOB.24

007019 MSMMMOB.33                       V     C        13:38:46:17 13:38:50:07 01:33:57:00 01:34:00:15
* FROM CLIP NAME:  A097C011_190822_R32C 
* SOURCE FILE: MSMMMOB.33

007038 MSMMMOB.24                       V     C        14:04:00:16 14:04:04:03 01:34:00:15 01:34:04:02
* FROM CLIP NAME:  A098C004_190822_R32C 
* SOURCE FILE: MSMMMOB.24

007051 MSMMMOB.33                       V     C        13:38:50:10 13:38:52:05 01:34:04:02 01:34:05:22
* FROM CLIP NAME:  A097C011_190822_R32C 
* SOURCE FILE: MSMMMOB.33

007058 MSMMMOB.87                       V     C        13:22:17:14 13:22:26:01 01:34:05:22 01:34:14:09
* FROM CLIP NAME:  A097C008_190822_R32C 
* SOURCE FILE: MSMMMOB.87

007095 MSMMMOB.33                       V     C        13:38:59:22 13:39:01:20 01:34:14:09 01:34:16:07
* FROM CLIP NAME:  A097C011_190822_R32C 
* SOURCE FILE: MSMMMOB.33

007114 MSMMMOB.11                       V     C        13:59:21:04 13:59:26:14 01:34:16:07 01:34:21:17
* FROM CLIP NAME:  A098C003_190822_R32C 
* SOURCE FILE: MSMMMOB.11

007121 MSMMMOB.33                       V     C        13:39:06:18 13:39:10:03 01:34:21:17 01:34:25:02
* FROM CLIP NAME:  A097C011_190822_R32C 
* SOURCE FILE: MSMMMOB.33

007134 MSMMMOB.24                       V     C        14:04:39:10 14:04:47:17 01:34:25:02 01:34:33:09
* FROM CLIP NAME:  A098C004_190822_R32C 
* SOURCE FILE: MSMMMOB.24

007153 MSMMMOB.33                       V     C        13:39:15:19 13:39:19:06 01:34:33:09 01:34:36:21
* FROM CLIP NAME:  A097C011_190822_R32C 
* SOURCE FILE: MSMMMOB.33

007174 MSMMMOB.21                       V     C        14:21:44:16 14:21:45:19 01:34:36:21 01:34:38:00
* FROM CLIP NAME:  A001C016_191124_R481 
* SOURCE FILE: MSMMMOB.21

007178 CINEMASCOPE_2-35-1_CROPLINES.PNG V     C        01:01:26:02 01:01:50:11 01:34:36:21 01:35:01:05
* FROM CLIP NAME:  CINEMASCOPE 2-35-1 CROPLINES.PNG 
* SOURCE FILE: CINEMASCOPE 2-35-1 CROPLINES.PNG

007182 MSMMMOB.21                       V     C        14:21:47:15 14:21:48:10 01:34:38:00 01:34:38:19
* FROM CLIP NAME:  A001C016_191124_R481 
* SOURCE FILE: MSMMMOB.21

007186 MSMMMOB.21                       V     C        14:21:48:22 14:21:52:00 01:34:38:19 01:34:41:21
* FROM CLIP NAME:  A001C016_191124_R481 
* SOURCE FILE: MSMMMOB.21

007190 MSMMMOB.04                       V     C        14:11:57:17 14:11:58:20 01:34:41:21 01:34:43:00
* FROM CLIP NAME:  A001C012_191124_R481 
* SOURCE FILE: MSMMMOB.04

007194 MSMMMOB.57                       V     C        14:16:35:15 14:16:36:11 01:34:43:00 01:34:43:20
* FROM CLIP NAME:  A001C014_191124_R481 
* SOURCE FILE: MSMMMOB.57

007198 MSMMMOB.04                       V     C        14:11:59:08 14:12:01:01 01:34:43:20 01:34:45:13
* FROM CLIP NAME:  A001C012_191124_R481 
* SOURCE FILE: MSMMMOB.04

007202 MSMMMOB.21                       V     C        14:21:59:04 14:22:00:09 01:34:45:13 01:34:46:18
* FROM CLIP NAME:  A001C016_191124_R481 
* SOURCE FILE: MSMMMOB.21

007206 MSMMMOB.02                       V     C        14:46:53:22 14:46:54:17 01:34:46:18 01:34:47:13
* FROM CLIP NAME:  A002C008_191124_R481 
* SOURCE FILE: MSMMMOB.02

007210 MSMMMOB.60                       V     C        14:48:54:05 14:48:55:01 01:34:47:13 01:34:48:09
* FROM CLIP NAME:  A002C010_191124_R481 
* SOURCE FILE: MSMMMOB.60

007214 MSMMMOB.18                       V     C        14:43:18:20 14:43:21:13 01:34:48:09 01:34:51:02
* FROM CLIP NAME:  A002C007_191124_R481 
* SOURCE FILE: MSMMMOB.18

007218 MSMMMOB.60                       V     C        14:48:55:21 14:48:57:04 01:34:51:02 01:34:52:10
* FROM CLIP NAME:  A002C010_191124_R481 
* SOURCE FILE: MSMMMOB.60

007222 MSMMMOB.32                       V     C        14:30:46:21 14:30:50:15 01:34:52:10 01:34:56:04
* FROM CLIP NAME:  A002C001_191124_R481 
* SOURCE FILE: MSMMMOB.32

007226 MSMMMOB.04                       V     C        14:12:06:05 14:12:08:04 01:34:56:04 01:34:58:03
* FROM CLIP NAME:  A001C012_191124_R481 
* SOURCE FILE: MSMMMOB.04

007230 MSMMMOB.28                       V     C        14:32:46:08 14:32:47:20 01:34:58:03 01:34:59:15
* FROM CLIP NAME:  A002C003_191124_R481 
* SOURCE FILE: MSMMMOB.28

007234 MSMMMOB.28                       V     C        14:32:49:18 14:32:51:08 01:34:59:15 01:35:01:05
* FROM CLIP NAME:  A002C003_191124_R481 
* SOURCE FILE: MSMMMOB.28

007246 MSMMMOB.39                       V     C        13:41:57:01 13:42:01:16 01:35:01:05 01:35:05:20
* FROM CLIP NAME:  A030C002_190802_R32C 
* SOURCE FILE: MSMMMOB.39

007247 CINEMASCOPE_2-35-1_CROPLINES.PNG V     C        01:01:47:05 01:01:56:21 01:35:01:05 01:35:10:21
* FROM CLIP NAME:  CINEMASCOPE 2-35-1 CROPLINES.PNG 
* SOURCE FILE: CINEMASCOPE 2-35-1 CROPLINES.PNG

007284 MSMMMOB.45                       V     C        13:58:58:11 13:59:01:06 01:35:05:20 01:35:08:15
* FROM CLIP NAME:  A030C004_190802_R32C 
* SOURCE FILE: MSMMMOB.45

007293 MSMMMOB.47                       V     C        12:44:06:21 12:44:09:02 01:35:08:15 01:35:10:21
* FROM CLIP NAME:  A029C002_190802_R32C 
* SOURCE FILE: MSMMMOB.47

007302 MSMMMOB.39                       V     C        13:42:03:14 13:42:05:08 01:35:10:21 01:35:12:15
* FROM CLIP NAME:  A030C002_190802_R32C 
* SOURCE FILE: MSMMMOB.39

007303 CINEMASCOPE_2-35-1_CROPLINES.PNG V     C        01:02:19:16 01:03:37:12 01:35:10:21 01:36:28:17
* FROM CLIP NAME:  CINEMASCOPE 2-35-1 CROPLINES.PNG 
* SOURCE FILE: CINEMASCOPE 2-35-1 CROPLINES.PNG

007304 MSMMMOB.62                       V     C        12:49:18:12 12:49:21:07 01:35:12:15 01:35:15:10
* FROM CLIP NAME:  A029C003_190802_R32C 
* SOURCE FILE: MSMMMOB.62

007313 MSMMMOB.39                       V     C        13:42:06:16 13:42:07:17 01:35:15:10 01:35:16:11
* FROM CLIP NAME:  A030C002_190802_R32C 
* SOURCE FILE: MSMMMOB.39

007314 MSMMMOB.02                       V     C        13:19:23:12 13:19:24:09 01:35:16:11 01:35:17:08
* FROM CLIP NAME:  A029C007_190802_R32C 
* SOURCE FILE: MSMMMOB.02

007323 MSMMMOB.59                       V     C        14:08:30:22 14:08:31:17 01:35:17:08 01:35:18:03
* FROM CLIP NAME:  A030C006_190802_R32C 
* SOURCE FILE: MSMMMOB.59

007332 MSMMMOB.11                       V     C        13:02:10:00 13:02:10:21 01:35:18:03 01:35:19:00
* FROM CLIP NAME:  A029C004_190802_R32C 
* SOURCE FILE: MSMMMOB.11

007341 MSMMMOB.39                       V     C        13:42:11:03 13:42:15:02 01:35:19:00 01:35:22:23
* FROM CLIP NAME:  A030C002_190802_R32C 
* SOURCE FILE: MSMMMOB.39

007350 MSMMMOB.62                       V     C        12:49:29:10 12:49:32:00 01:35:22:23 01:35:25:12
* FROM CLIP NAME:  A029C003_190802_R32C 
* SOURCE FILE: MSMMMOB.62

007359 MSMMMOB.39                       V     C        13:42:18:21 13:42:20:03 01:35:25:12 01:35:26:19
* FROM CLIP NAME:  A030C002_190802_R32C 
* SOURCE FILE: MSMMMOB.39

007376 MSMMMOB.02                       V     C        13:19:34:16 13:19:36:01 01:35:26:19 01:35:28:04
* FROM CLIP NAME:  A029C007_190802_R32C 
* SOURCE FILE: MSMMMOB.02

007377 MSMMMOB.59                       V     C        14:08:42:00 14:08:43:05 01:35:28:04 01:35:29:09
* FROM CLIP NAME:  A030C006_190802_R32C 
* SOURCE FILE: MSMMMOB.59

007386 MSMMMOB.02                       V     C        13:19:36:09 13:19:37:16 01:35:29:09 01:35:30:16
* FROM CLIP NAME:  A029C007_190802_R32C 
* SOURCE FILE: MSMMMOB.02

007387 MSMMMOB.39                       V     C        13:42:24:22 13:42:28:12 01:35:30:16 01:35:34:06
* FROM CLIP NAME:  A030C002_190802_R32C 
* SOURCE FILE: MSMMMOB.39

007392 MSMMMOB.45                       V     C        13:59:31:00 13:59:33:05 01:35:34:06 01:35:36:12
* FROM CLIP NAME:  A030C004_190802_R32C 
* SOURCE FILE: MSMMMOB.45

007401 MSMMMOB.02                       V     C        13:19:45:12 13:19:46:07 01:35:36:12 01:35:37:07
* FROM CLIP NAME:  A029C007_190802_R32C 
* SOURCE FILE: MSMMMOB.02

007410 MSMMMOB.59                       V     C        14:08:51:07 14:08:52:20 01:35:37:07 01:35:38:20
* FROM CLIP NAME:  A030C006_190802_R32C 
* SOURCE FILE: MSMMMOB.59

007411 MSMMMOB.02                       V     C        13:19:47:20 13:19:57:09 01:35:38:20 01:35:48:09
* FROM CLIP NAME:  A029C007_190802_R32C 
* SOURCE FILE: MSMMMOB.02

007412 MSMMMOB.38                       V     C        14:07:14:03 14:07:15:08 01:35:48:09 01:35:49:14
* FROM CLIP NAME:  A030C005_190802_R32C 
* SOURCE FILE: MSMMMOB.38

007421 MSMMMOB.54                       V     C        13:15:46:09 13:15:48:17 01:35:49:14 01:35:51:22
* FROM CLIP NAME:  A029C006_190802_R32C 
* SOURCE FILE: MSMMMOB.54

007438 MSMMMOB.59                       V     C        14:08:59:20 14:09:01:21 01:35:51:22 01:35:53:23
* FROM CLIP NAME:  A030C006_190802_R32C 
* SOURCE FILE: MSMMMOB.59

007455 MSMMMOB.54                       V     C        13:15:48:17 13:15:51:11 01:35:53:23 01:35:56:17
* FROM CLIP NAME:  A029C006_190802_R32C 
* SOURCE FILE: MSMMMOB.54

007472 MSMMMOB.39                       V     C        13:42:41:04 13:42:42:20 01:35:56:17 01:35:58:08
* FROM CLIP NAME:  A030C002_190802_R32C 
* SOURCE FILE: MSMMMOB.39

007489 MSMMMOB.45                       V     C        13:59:48:04 13:59:49:09 01:35:58:08 01:35:59:13
* FROM CLIP NAME:  A030C004_190802_R32C 
* SOURCE FILE: MSMMMOB.45

007498 MSMMMOB.39                       V     C        13:42:44:11 13:42:47:11 01:35:59:13 01:36:02:13
* FROM CLIP NAME:  A030C002_190802_R32C 
* SOURCE FILE: MSMMMOB.39

007507 MSMMMOB.02                       V     C        13:20:03:14 13:20:04:10 01:36:02:13 01:36:03:09
* FROM CLIP NAME:  A029C007_190802_R32C 
* SOURCE FILE: MSMMMOB.02

007516 MSMMMOB.15                       V     C        13:55:24:10 13:55:25:06 01:36:03:09 01:36:04:05
* FROM CLIP NAME:  A030C003_190802_R32C 
* SOURCE FILE: MSMMMOB.15

007525 MSMMMOB.39                       V     C        13:42:49:12 13:42:51:16 01:36:04:05 01:36:06:09
* FROM CLIP NAME:  A030C002_190802_R32C 
* SOURCE FILE: MSMMMOB.39

007534 MSMMMOB.15                       V     C        13:55:26:07 13:55:27:06 01:36:06:09 01:36:07:08
* FROM CLIP NAME:  A030C003_190802_R32C 
* SOURCE FILE: MSMMMOB.15

007551 MSMMMOB.39                       V     C        13:42:53:07 13:42:55:23 01:36:07:08 01:36:10:00
* FROM CLIP NAME:  A030C002_190802_R32C 
* SOURCE FILE: MSMMMOB.39

007560 MSMMMOB.45                       V     C        13:59:58:18 13:59:59:17 01:36:10:00 01:36:10:23
* FROM CLIP NAME:  A030C004_190802_R32C 
* SOURCE FILE: MSMMMOB.45

007569 MSMMMOB.32                       V     C        13:08:25:02 13:08:26:18 01:36:10:23 01:36:12:14
* FROM CLIP NAME:  A029C005_190802_R32C 
* SOURCE FILE: MSMMMOB.32

007586 MSMMMOB.39                       V     C        13:42:57:00 13:42:59:03 01:36:12:14 01:36:14:17
* FROM CLIP NAME:  A030C002_190802_R32C 
* SOURCE FILE: MSMMMOB.39

007595 MSMMMOB.32                       V     C        13:08:28:00 13:08:29:17 01:36:14:17 01:36:16:10
* FROM CLIP NAME:  A029C005_190802_R32C 
* SOURCE FILE: MSMMMOB.32

007604 MSMMMOB.62                       V     C        12:50:18:17 12:50:25:04 01:36:16:10 01:36:22:22
* FROM CLIP NAME:  A029C003_190802_R32C 
* SOURCE FILE: MSMMMOB.62

007613 MSMMMOB.32                       V     C        13:08:37:02 13:08:42:22 01:36:22:22 01:36:28:17
* FROM CLIP NAME:  A029C005_190802_R32C 
* SOURCE FILE: MSMMMOB.32

007627 CINEMASCOPE_2-35-1_CROPLINES.PNG V     C        01:00:25:20 01:00:42:00 01:36:28:17 01:36:44:21
* FROM CLIP NAME:  CINEMASCOPE 2-35-1 CROPLINES.PNG 
* SOURCE FILE: CINEMASCOPE 2-35-1 CROPLINES.PNG

007628 MSMMMOB.31                       V     C        21:09:35:18 21:09:51:22 01:36:28:17 01:36:44:21
* FROM CLIP NAME:  A004C001_191124_R481 
* SOURCE FILE: MSMMMOB.31

007666 MSMMMOB.26                       V     C        21:51:38:16 21:51:40:16 01:36:44:21 01:36:46:21
* FROM CLIP NAME:  A005C001_191124_R481 
* SOURCE FILE: MSMMMOB.26

007665 CINEMASCOPE_2-35-1_CROPLINES.PNG V     C        01:00:42:08 01:00:44:08 01:36:44:21 01:36:46:21
* FROM CLIP NAME:  CINEMASCOPE 2-35-1 CROPLINES.PNG 
* SOURCE FILE: CINEMASCOPE 2-35-1 CROPLINES.PNG

007682 MSMMMOB.27                       V     C        21:05:01:01 21:05:04:17 01:36:46:21 01:36:50:12
* FROM CLIP NAME:  A003C009_191124_R481 
* SOURCE FILE: MSMMMOB.27

007683 CINEMASCOPE_2-35-1_CROPLINES.PNG V     C        01:00:43:16 01:00:47:07 01:36:46:21 01:36:50:12
* FROM CLIP NAME:  CINEMASCOPE 2-35-1 CROPLINES.PNG 
* SOURCE FILE: CINEMASCOPE 2-35-1 CROPLINES.PNG

007687 MSMMMOB.26                       V     C        21:51:43:01 21:51:45:16 01:36:50:12 01:36:53:02
* FROM CLIP NAME:  A005C001_191124_R481 
* SOURCE FILE: MSMMMOB.26

007691 CINEMASCOPE_2-35-1_CROPLINES.PNG V     C        01:00:47:06 01:00:53:06 01:36:50:12 01:36:56:12
* FROM CLIP NAME:  CINEMASCOPE 2-35-1 CROPLINES.PNG 
* SOURCE FILE: CINEMASCOPE 2-35-1 CROPLINES.PNG

007692 MSMMMOB.27                       V     C        21:05:07:21 21:05:11:06 01:36:53:02 01:36:56:12
* FROM CLIP NAME:  A003C009_191124_R481 
* SOURCE FILE: MSMMMOB.27

007699 MSMMMOB.24                       V     C        21:56:29:20 21:56:32:01 01:36:56:12 01:36:58:18
* FROM CLIP NAME:  A005C003_191124_R481 
* SOURCE FILE: MSMMMOB.24

007700 CINEMASCOPE_2-35-1_CROPLINES.PNG V     C        01:00:56:09 01:00:58:15 01:36:56:12 01:36:58:18
* FROM CLIP NAME:  CINEMASCOPE 2-35-1 CROPLINES.PNG 
* SOURCE FILE: CINEMASCOPE 2-35-1 CROPLINES.PNG

007707 MSMMMOB.63                       V     C        21:01:52:02 21:02:02:16 01:36:58:18 01:37:09:07
* FROM CLIP NAME:  A003C008_191124_R481 
* SOURCE FILE: MSMMMOB.63

007708 CINEMASCOPE_2-35-1_CROPLINES.PNG V     C        01:00:57:12 01:01:09:19 01:36:58:18 01:37:11:00
* FROM CLIP NAME:  CINEMASCOPE 2-35-1 CROPLINES.PNG 
* SOURCE FILE: CINEMASCOPE 2-35-1 CROPLINES.PNG

007718 MSMMMOB.11                       V     C        21:25:18:21 21:25:20:14 01:37:09:07 01:37:11:00
* FROM CLIP NAME:  A004C003_191124_R481 
* SOURCE FILE: MSMMMOB.11

007722 MSMMMOB.54                       V     C        21:40:00:14 21:40:04:10 01:37:11:00 01:37:14:21
* FROM CLIP NAME:  A004C005_191124_R481 
* SOURCE FILE: MSMMMOB.54

007723 CINEMASCOPE_2-35-1_CROPLINES.PNG V     C        01:01:07:19 01:01:20:09 01:37:11:00 01:37:23:15
* FROM CLIP NAME:  CINEMASCOPE 2-35-1 CROPLINES.PNG 
* SOURCE FILE: CINEMASCOPE 2-35-1 CROPLINES.PNG

007730 MSMMMOB.11                       V     C        21:25:22:23 21:25:25:09 01:37:14:21 01:37:17:07
* FROM CLIP NAME:  A004C003_191124_R481 
* SOURCE FILE: MSMMMOB.11

007734 MSMMMOB.54                       V     C        21:40:06:10 21:40:07:23 01:37:17:07 01:37:18:20
* FROM CLIP NAME:  A004C005_191124_R481 
* SOURCE FILE: MSMMMOB.54

007738 MSMMMOB.31                       V     C        21:10:28:03 21:10:32:23 01:37:18:20 01:37:23:15
* FROM CLIP NAME:  A004C001_191124_R481 
* SOURCE FILE: MSMMMOB.31

007746 MSMMMOB.11                       V     C        21:25:32:05 21:25:36:19 01:37:23:15 01:37:28:04
* FROM CLIP NAME:  A004C003_191124_R481 
* SOURCE FILE: MSMMMOB.11

007745 CINEMASCOPE_2-35-1_CROPLINES.PNG V     C        01:01:19:15 01:01:24:04 01:37:23:15 01:37:28:04
* FROM CLIP NAME:  CINEMASCOPE 2-35-1 CROPLINES.PNG 
* SOURCE FILE: CINEMASCOPE 2-35-1 CROPLINES.PNG

007753 MSMMMOB.26                       V     C        21:52:22:00 21:52:23:13 01:37:28:04 01:37:29:18
* FROM CLIP NAME:  A005C001_191124_R481 
* SOURCE FILE: MSMMMOB.26

007754 CINEMASCOPE_2-35-1_CROPLINES.PNG V     C        01:01:23:20 01:01:32:08 01:37:28:04 01:37:36:17
* FROM CLIP NAME:  CINEMASCOPE 2-35-1 CROPLINES.PNG 
* SOURCE FILE: CINEMASCOPE 2-35-1 CROPLINES.PNG

007761 MSMMMOB.11                       V     C        21:25:39:11 21:25:40:23 01:37:29:18 01:37:31:05
* FROM CLIP NAME:  A004C003_191124_R481 
* SOURCE FILE: MSMMMOB.11

007762 MSMMMOB.09                       V     C        21:36:56:04 21:37:01:16 01:37:31:05 01:37:36:17
* FROM CLIP NAME:  A004C004_191124_R481 
* SOURCE FILE: MSMMMOB.09

007779 BL                               V     C        00:00:00:00 00:00:01:16 01:37:36:17 01:37:38:08
* SOURCE FILE: (NULL)

007781 MSMMMOB.11                       V     C        21:25:44:03 21:25:45:19 01:37:36:17 01:37:38:08
* FROM CLIP NAME:  A004C003_191124_R481 
* SOURCE FILE: MSMMMOB.11

007780 CINEMASCOPE_2-35-1_CROPLINES.PNG V     C        01:01:32:02 01:01:33:18 01:37:36:17 01:37:38:08
* FROM CLIP NAME:  CINEMASCOPE 2-35-1 CROPLINES.PNG 
* SOURCE FILE: CINEMASCOPE 2-35-1 CROPLINES.PNG

007778 MSMMMOB.11                       V     C        21:25:45:19 21:25:45:20 01:37:36:17 01:37:38:08
* FROM CLIP NAME:  A004C003_191124_R481 
* * FREEZE FRAME 
* SOURCE FILE: MSMMMOB.11

007792 MSMMMOB.31                       V     C        21:10:47:05 21:10:49:20 01:37:38:08 01:37:40:23
* FROM CLIP NAME:  A004C001_191124_R481 
* SOURCE FILE: MSMMMOB.31

007791 CINEMASCOPE_2-35-1_CROPLINES.PNG V     C        01:01:35:09 01:01:38:00 01:37:38:08 01:37:40:23
* FROM CLIP NAME:  CINEMASCOPE 2-35-1 CROPLINES.PNG 
* SOURCE FILE: CINEMASCOPE 2-35-1 CROPLINES.PNG

007793 BL                               V     C        00:00:00:00 00:00:33:23 01:37:38:08 01:38:12:06
* SOURCE FILE: (NULL)

007794 BL                               V     C        00:00:00:00 00:04:05:08 01:37:38:08 01:41:43:16
* SOURCE FILE: (NULL)

007798 MSMMMOB.24                       V     C        21:57:10:15 21:57:13:04 01:37:40:23 01:37:43:12
* FROM CLIP NAME:  A005C003_191124_R481 
* SOURCE FILE: MSMMMOB.24

007799 CINEMASCOPE_2-35-1_CROPLINES.PNG V     C        01:01:38:19 01:01:46:07 01:37:40:23 01:37:48:11
* FROM CLIP NAME:  CINEMASCOPE 2-35-1 CROPLINES.PNG 
* SOURCE FILE: CINEMASCOPE 2-35-1 CROPLINES.PNG

007800 MSMMMOB.54                       V     C        21:40:34:18 21:40:39:17 01:37:43:12 01:37:48:11
* FROM CLIP NAME:  A004C005_191124_R481 
* SOURCE FILE: MSMMMOB.54

007804 MSMMMOB.26                       V     C        21:52:40:14 21:52:42:13 01:37:48:11 01:37:50:10
* FROM CLIP NAME:  A005C001_191124_R481 
* SOURCE FILE: MSMMMOB.26

007808 CINEMASCOPE_2-35-1_CROPLINES.PNG V     C        01:01:47:21 01:01:52:11 01:37:48:11 01:37:53:01
* FROM CLIP NAME:  CINEMASCOPE 2-35-1 CROPLINES.PNG 
* SOURCE FILE: CINEMASCOPE 2-35-1 CROPLINES.PNG

007809 MSMMMOB.54                       V     C        21:40:44:07 21:40:46:23 01:37:50:10 01:37:53:01
* FROM CLIP NAME:  A004C005_191124_R481 
* SOURCE FILE: MSMMMOB.54

007813 MSMMMOB.24                       V     C        21:57:33:08 21:57:38:13 01:37:53:01 01:37:58:06
* FROM CLIP NAME:  A005C003_191124_R481 
* SOURCE FILE: MSMMMOB.24

007817 CINEMASCOPE_2-35-1_CROPLINES.PNG V     C        01:01:56:20 01:02:14:10 01:37:53:01 01:38:10:16
* FROM CLIP NAME:  CINEMASCOPE 2-35-1 CROPLINES.PNG 
* SOURCE FILE: CINEMASCOPE 2-35-1 CROPLINES.PNG

007818 MSMMMOB.31                       V     C        21:11:10:12 21:11:14:17 01:37:58:06 01:38:02:11
* FROM CLIP NAME:  A004C001_191124_R481 
* SOURCE FILE: MSMMMOB.31

007822 MSMMMOB.11                       V     C        21:26:22:23 21:26:28:01 01:38:02:11 01:38:07:14
* FROM CLIP NAME:  A004C003_191124_R481 
* SOURCE FILE: MSMMMOB.11

007829 MSMMMOB.54                       V     C        21:41:04:10 21:41:07:12 01:38:07:14 01:38:10:16
* FROM CLIP NAME:  A004C005_191124_R481 
* SOURCE FILE: MSMMMOB.54

007839 CINEMASCOPE_2-35-1_CROPLINES.PNG V     C        01:02:14:00 01:02:15:15 01:38:10:16 01:38:12:06
* FROM CLIP NAME:  CINEMASCOPE 2-35-1 CROPLINES.PNG 
* SOURCE FILE: CINEMASCOPE 2-35-1 CROPLINES.PNG

007840 MSMMMOB.11                       V     C        21:26:28:12 21:26:30:02 01:38:10:16 01:38:12:06
* FROM CLIP NAME:  A004C003_191124_R481 
* SOURCE FILE: MSMMMOB.11

007844 MSMMMOB.13                       V     C        15:14:34:22 15:14:40:08 01:38:12:06 01:38:17:17
* FROM CLIP NAME:  A031C003_190802_R32C 
* SOURCE FILE: MSMMMOB.13

007853 CINEMASCOPE_2-35-1_CROPLINES.PNG V     C        01:00:00:00 01:04:48:16 01:38:12:06 01:43:00:22
* FROM CLIP NAME:  CINEMASCOPE 2-35-1 CROPLINES.PNG 
* SOURCE FILE: CINEMASCOPE 2-35-1 CROPLINES.PNG

007854 BL                               V     C        00:00:00:00 00:04:48:16 01:38:12:06 01:43:00:22
* SOURCE FILE: (NULL)

007855 MSMMMOB.50                       V     C        15:52:51:05 15:52:53:10 01:38:17:17 01:38:19:22
* FROM CLIP NAME:  A031C011_190802_R32C 
* SOURCE FILE: MSMMMOB.50

007864 MSMMMOB.42                       V     C        15:24:00:12 15:24:01:01 01:38:19:22 01:38:20:11
* FROM CLIP NAME:  A031C005_190802_R32C 
* SOURCE FILE: MSMMMOB.42

007873 MSMMMOB.23                       V     C        15:47:57:09 15:47:58:08 01:38:20:11 01:38:21:10
* FROM CLIP NAME:  A031C009_190802_R32C 
* SOURCE FILE: MSMMMOB.23

007874 MSMMMOB.42                       V     C        15:24:02:00 15:24:03:16 01:38:21:10 01:38:23:01
* FROM CLIP NAME:  A031C005_190802_R32C 
* SOURCE FILE: MSMMMOB.42

007883 MSMMMOB.36                       V     C        15:50:43:02 15:50:46:00 01:38:23:01 01:38:25:23
* FROM CLIP NAME:  A031C010_190802_R32C 
* SOURCE FILE: MSMMMOB.36

007892 MSMMMOB.42                       V     C        15:24:07:13 15:24:10:13 01:38:25:23 01:38:28:23
* FROM CLIP NAME:  A031C005_190802_R32C 
* SOURCE FILE: MSMMMOB.42

007909 MSMMMOB.36                       V     C        15:50:48:00 15:50:50:21 01:38:28:23 01:38:31:19
* FROM CLIP NAME:  A031C010_190802_R32C 
* SOURCE FILE: MSMMMOB.36

007910 MSMMMOB.42                       V     C        15:24:13:12 15:24:17:01 01:38:31:19 01:38:35:08
* FROM CLIP NAME:  A031C005_190802_R32C 
* SOURCE FILE: MSMMMOB.42

007919 MSMMMOB.50                       V     C        15:53:07:03 15:53:09:05 01:38:35:08 01:38:37:10
* FROM CLIP NAME:  A031C011_190802_R32C 
* SOURCE FILE: MSMMMOB.50

007920 MSMMMOB.42                       V     C        15:24:19:03 15:24:24:17 01:38:37:10 01:38:43:00
* FROM CLIP NAME:  A031C005_190802_R32C 
* SOURCE FILE: MSMMMOB.42

007923 MSMMMOB.50                       V     C        15:53:13:19 15:53:16:03 01:38:43:00 01:38:45:08
* FROM CLIP NAME:  A031C011_190802_R32C 
* SOURCE FILE: MSMMMOB.50

007940 MSMMMOB.49                       V     C        15:38:09:00 15:38:10:23 01:38:45:08 01:38:47:07
* FROM CLIP NAME:  A031C008_190802_R32C 
* SOURCE FILE: MSMMMOB.49

007949 MSMMMOB.17                       V     C        17:31:39:01 17:31:42:21 01:38:47:07 01:38:51:02
* FROM CLIP NAME:  A031C013_190802_R32C 
* SOURCE FILE: MSMMMOB.17

007956 MSMMMOB.13                       V     C        15:15:15:09 15:15:19:08 01:38:51:02 01:38:55:01
* FROM CLIP NAME:  A031C003_190802_R32C 
* SOURCE FILE: MSMMMOB.13

007965 MSMMMOB.14                       V     C        15:34:27:09 15:34:30:00 01:38:55:01 01:38:57:16
* FROM CLIP NAME:  A031C007_190802_R32C 
* SOURCE FILE: MSMMMOB.14

007974 MSMMMOB.04                       V     C        17:36:44:17 17:36:46:09 01:38:57:16 01:38:59:08
* FROM CLIP NAME:  A031C014_190802_R32C 
* SOURCE FILE: MSMMMOB.04

007975 BL                               V     C        00:00:00:00 00:00:01:17 01:38:57:16 01:38:59:08
* SOURCE FILE: (NULL)

007988 MSMMMOB.14                       V     C        15:34:31:09 15:34:33:21 01:38:59:08 01:39:01:20
* FROM CLIP NAME:  A031C007_190802_R32C 
* SOURCE FILE: MSMMMOB.14

007989 BL                               V     C        00:00:00:00 00:00:05:13 01:38:59:08 01:39:04:21
* SOURCE FILE: (NULL)

008008 MSMMMOB.08                       V     C        17:38:44:20 17:38:47:21 01:39:01:20 01:39:04:21
* FROM CLIP NAME:  A031C016_190802_R32C 
* SOURCE FILE: MSMMMOB.08

008015 BL                               V     C        00:00:00:00 00:00:02:00 01:39:04:21 01:39:06:20
* SOURCE FILE: (NULL)

008026 MSMMMOB.51                       V     C        21:58:38:09 21:58:42:17 01:39:04:21 01:39:09:04
* FROM CLIP NAME:  A036C005_190802_R32C 
* SOURCE FILE: MSMMMOB.51

008027 BL                               V     C        00:00:00:00 00:00:00:12 01:39:06:20 01:39:07:07
* SOURCE FILE: (NULL)

008028 BL                               V     C        00:00:00:00 00:00:01:22 01:39:07:07 01:39:09:04
* SOURCE FILE: (NULL)

008064 BL                               V     C        00:00:00:00 00:00:03:23 01:39:09:04 01:39:13:02
* SOURCE FILE: (NULL)

008065 MSMMMOB.63                       V     C        18:48:09:01 18:48:13:00 01:39:09:04 01:39:13:02
* FROM CLIP NAME:  A032C004_190802_R32C 
* SOURCE FILE: MSMMMOB.63

008076 BL                               V     C        00:00:00:00 00:00:01:14 01:39:13:02 01:39:14:16
* SOURCE FILE: (NULL)

008077 MSMMMOB.51                       V     C        21:58:43:19 21:58:45:20 01:39:13:02 01:39:15:03
* FROM CLIP NAME:  A036C005_190802_R32C 
* SOURCE FILE: MSMMMOB.51

008083 BL                               V     C        00:00:00:00 00:00:40:14 01:39:14:16 01:39:55:05
* SOURCE FILE: (NULL)

008094 MSMMMOB.63                       V     C        18:48:13:00 18:48:24:08 01:39:15:03 01:39:26:12
* FROM CLIP NAME:  A032C004_190802_R32C 
* SOURCE FILE: MSMMMOB.63

008179 MSMMMOB.26                       V     C        21:06:40:17 21:06:42:00 01:39:26:12 01:39:27:20
* FROM CLIP NAME:  A034C007_190802_R32C 
* SOURCE FILE: MSMMMOB.26

008190 MSMMMOB.27                       V     C        19:38:53:19 19:38:54:19 01:39:27:20 01:39:28:20
* FROM CLIP NAME:  A032C012_190802_R32C 
* SOURCE FILE: MSMMMOB.27

008211 MSMMMOB.26                       V     C        21:06:42:00 21:06:44:19 01:39:28:20 01:39:31:14
* FROM CLIP NAME:  A034C007_190802_R32C 
* SOURCE FILE: MSMMMOB.26

008222 MSMMMOB.03                       V     C        20:51:34:12 20:51:37:05 01:39:31:14 01:39:34:07
* FROM CLIP NAME:  A034C005_190802_R32C 
* SOURCE FILE: MSMMMOB.03

008233 MSMMMOB.33                       V     C        21:17:10:09 21:17:11:15 01:39:34:07 01:39:35:13
* FROM CLIP NAME:  A035C001_190802_R32C 
* SOURCE FILE: MSMMMOB.33

008244 MSMMMOB.27                       V     C        19:39:00:21 19:39:02:22 01:39:35:13 01:39:37:14
* FROM CLIP NAME:  A032C012_190802_R32C 
* SOURCE FILE: MSMMMOB.27

008255 MSMMMOB.03                       V     C        20:51:47:17 20:51:48:15 01:39:37:14 01:39:38:12
* FROM CLIP NAME:  A034C005_190802_R32C 
* SOURCE FILE: MSMMMOB.03

008256 MSMMMOB.57                       V     C        21:04:11:16 21:04:12:16 01:39:38:12 01:39:39:12
* FROM CLIP NAME:  A034C006_190802_R32C 
* SOURCE FILE: MSMMMOB.57

008257 MSMMMOB.03                       V     C        20:51:49:15 20:51:51:10 01:39:39:12 01:39:41:07
* FROM CLIP NAME:  A034C005_190802_R32C 
* SOURCE FILE: MSMMMOB.03

008258 MSMMMOB.12                       V     C        21:24:36:13 21:24:38:05 01:39:41:07 01:39:43:00
* FROM CLIP NAME:  A035C003_190802_R32C 
* SOURCE FILE: MSMMMOB.12

008269 MSMMMOB.16                       V     C        19:57:15:11 19:57:17:15 01:39:43:00 01:39:45:03
* FROM CLIP NAME:  A033C002_190802_R32C 
* SOURCE FILE: MSMMMOB.16

008270 MSMMMOB.27                       V     C        19:39:16:06 19:39:18:14 01:39:45:03 01:39:47:11
* FROM CLIP NAME:  A032C012_190802_R32C 
* SOURCE FILE: MSMMMOB.27

008281 MSMMMOB.12                       V     C        21:24:39:04 21:24:43:01 01:39:47:11 01:39:51:08
* FROM CLIP NAME:  A035C003_190802_R32C 
* SOURCE FILE: MSMMMOB.12

008292 MSMMMOB.43                       V     C        19:47:27:18 19:47:29:00 01:39:51:08 01:39:52:15
* FROM CLIP NAME:  A032C013_190802_R32C 
* SOURCE FILE: MSMMMOB.43

008303 MSMMMOB.12                       V     C        21:24:43:00 21:24:45:14 01:39:52:15 01:39:55:05
* FROM CLIP NAME:  A035C003_190802_R32C 
* SOURCE FILE: MSMMMOB.12

008315 BL                               V     C        00:00:00:00 00:00:01:19 01:39:55:05 01:39:57:00
* SOURCE FILE: (NULL)

008314 MSMMMOB.27                       V     C        19:39:21:14 19:39:23:08 01:39:55:05 01:39:57:00
* FROM CLIP NAME:  A032C012_190802_R32C 
* SOURCE FILE: MSMMMOB.27

008326 MSMMMOB.12                       V     C        21:24:47:17 21:24:51:18 01:39:57:00 01:40:01:00
* FROM CLIP NAME:  A035C003_190802_R32C 
* SOURCE FILE: MSMMMOB.12

008337 BL                               V     C        00:00:00:00 00:00:55:15 01:39:57:00 01:40:52:14
* SOURCE FILE: (NULL)

008348 MSMMMOB.43                       V     C        19:47:33:04 19:47:35:17 01:40:01:00 01:40:03:13
* FROM CLIP NAME:  A032C013_190802_R32C 
* SOURCE FILE: MSMMMOB.43

008359 MSMMMOB.12                       V     C        21:24:53:15 21:24:55:22 01:40:03:13 01:40:05:20
* FROM CLIP NAME:  A035C003_190802_R32C 
* SOURCE FILE: MSMMMOB.12

008360 MSMMMOB.43                       V     C        19:47:43:00 19:47:44:08 01:40:05:20 01:40:07:04
* FROM CLIP NAME:  A032C013_190802_R32C 
* SOURCE FILE: MSMMMOB.43

008371 MSMMMOB.12                       V     C        21:24:56:10 21:24:58:17 01:40:07:04 01:40:09:11
* FROM CLIP NAME:  A035C003_190802_R32C 
* SOURCE FILE: MSMMMOB.12

008382 MSMMMOB.40                       V     C        19:25:09:15 19:25:11:06 01:40:09:11 01:40:11:02
* FROM CLIP NAME:  A032C009_190802_R32C 
* SOURCE FILE: MSMMMOB.40

008383 MSMMMOB.52                       V     C        21:39:35:23 21:39:38:03 01:40:11:02 01:40:13:07
* FROM CLIP NAME:  A035C005_190802_R32C 
* SOURCE FILE: MSMMMOB.52

008406 MSMMMOB.03                       V     C        20:52:17:17 20:52:21:06 01:40:13:07 01:40:16:21
* FROM CLIP NAME:  A034C005_190802_R32C 
* SOURCE FILE: MSMMMOB.03

008417 MSMMMOB.26                       V     C        21:07:32:13 21:07:34:08 01:40:16:21 01:40:18:16
* FROM CLIP NAME:  A034C007_190802_R32C 
* SOURCE FILE: MSMMMOB.26

008438 MSMMMOB.43                       V     C        19:47:52:20 19:47:53:22 01:40:18:16 01:40:19:18
* FROM CLIP NAME:  A032C013_190802_R32C 
* SOURCE FILE: MSMMMOB.43

008449 MSMMMOB.56                       V     C        21:51:17:21 21:51:19:09 01:40:19:18 01:40:21:06
* FROM CLIP NAME:  A036C003_190802_R32C 
* SOURCE FILE: MSMMMOB.56

008464 MSMMMOB.37                       V     C        20:30:03:03 20:30:07:18 01:40:21:06 01:40:25:21
* FROM CLIP NAME:  A034C001_190802_R32C 
* SOURCE FILE: MSMMMOB.37

008475 MSMMMOB.53                       V     C        21:32:40:00 21:32:41:07 01:40:25:21 01:40:27:03
* FROM CLIP NAME:  A035C004_190802_R32C 
* SOURCE FILE: MSMMMOB.53

008486 MSMMMOB.28                       V     C        19:51:12:08 19:51:13:19 01:40:27:03 01:40:28:14
* FROM CLIP NAME:  A033C001_190802_R32C 
* SOURCE FILE: MSMMMOB.28

008497 MSMMMOB.53                       V     C        21:32:41:19 21:32:46:03 01:40:28:14 01:40:32:23
* FROM CLIP NAME:  A035C004_190802_R32C 
* SOURCE FILE: MSMMMOB.53

008508 MSMMMOB.28                       V     C        19:51:16:02 19:51:17:21 01:40:32:23 01:40:34:17
* FROM CLIP NAME:  A033C001_190802_R32C 
* SOURCE FILE: MSMMMOB.28

008519 MSMMMOB.53                       V     C        21:32:48:02 21:32:51:17 01:40:34:17 01:40:38:07
* FROM CLIP NAME:  A035C004_190802_R32C 
* SOURCE FILE: MSMMMOB.53

008530 MSMMMOB.28                       V     C        19:51:22:14 19:51:24:02 01:40:38:07 01:40:39:20
* FROM CLIP NAME:  A033C001_190802_R32C 
* SOURCE FILE: MSMMMOB.28

008541 MSMMMOB.53                       V     C        21:32:51:17 21:32:55:01 01:40:39:20 01:40:43:04
* FROM CLIP NAME:  A035C004_190802_R32C 
* SOURCE FILE: MSMMMOB.53

008552 MSMMMOB.28                       V     C        19:51:25:18 19:51:27:09 01:40:43:04 01:40:44:20
* FROM CLIP NAME:  A033C001_190802_R32C 
* SOURCE FILE: MSMMMOB.28

008573 MSMMMOB.53                       V     C        21:32:55:12 21:32:59:00 01:40:44:20 01:40:48:07
* FROM CLIP NAME:  A035C004_190802_R32C 
* SOURCE FILE: MSMMMOB.53

008584 MSMMMOB.27                       V     C        19:40:17:13 19:40:19:00 01:40:48:07 01:40:49:19
* FROM CLIP NAME:  A032C012_190802_R32C 
* SOURCE FILE: MSMMMOB.27

008585 MSMMMOB.58                       V     C        21:22:25:01 21:22:26:11 01:40:49:19 01:40:51:04
* FROM CLIP NAME:  A035C002_190802_R32C 
* SOURCE FILE: MSMMMOB.58

008596 MSMMMOB.27                       V     C        19:40:20:07 19:40:21:17 01:40:51:04 01:40:52:14
* FROM CLIP NAME:  A032C012_190802_R32C 
* SOURCE FILE: MSMMMOB.27

008607 MSMMMOB.58                       V     C        21:22:28:14 21:22:31:00 01:40:52:14 01:40:55:00
* FROM CLIP NAME:  A035C002_190802_R32C 
* SOURCE FILE: MSMMMOB.58

008608 BL                               V     C        00:00:00:00 00:00:02:10 01:40:52:14 01:40:55:00
* SOURCE FILE: (NULL)

008619 MSMMMOB.16                       V     C        19:58:46:20 19:58:49:05 01:40:55:00 01:40:57:09
* FROM CLIP NAME:  A033C002_190802_R32C 
* SOURCE FILE: MSMMMOB.16

008630 BL                               V     C        00:00:00:00 00:00:14:01 01:40:55:00 01:41:09:00
* SOURCE FILE: (NULL)

008641 MSMMMOB.58                       V     C        21:22:30:23 21:22:33:02 01:40:57:09 01:40:59:13
* FROM CLIP NAME:  A035C002_190802_R32C 
* SOURCE FILE: MSMMMOB.58

008652 MSMMMOB.27                       V     C        19:40:25:03 19:40:27:06 01:40:59:13 01:41:01:16
* FROM CLIP NAME:  A032C012_190802_R32C 
* SOURCE FILE: MSMMMOB.27

008653 MSMMMOB.58                       V     C        21:22:34:07 21:22:36:12 01:41:01:16 01:41:03:21
* FROM CLIP NAME:  A035C002_190802_R32C 
* SOURCE FILE: MSMMMOB.58

008674 MSMMMOB.40                       V     C        19:26:00:03 19:26:01:14 01:41:03:21 01:41:05:07
* FROM CLIP NAME:  A032C009_190802_R32C 
* SOURCE FILE: MSMMMOB.40

008695 MSMMMOB.28                       V     C        19:51:43:20 19:51:45:07 01:41:05:07 01:41:06:19
* FROM CLIP NAME:  A033C001_190802_R32C 
* SOURCE FILE: MSMMMOB.28

008706 MSMMMOB.12                       V     C        21:25:50:13 21:25:52:19 01:41:06:19 01:41:09:00
* FROM CLIP NAME:  A035C003_190802_R32C 
* SOURCE FILE: MSMMMOB.12

008717 BL                               V     C        00:00:00:00 00:00:02:05 01:41:09:00 01:41:11:05
* SOURCE FILE: (NULL)

008718 MSMMMOB.27                       V     C        19:40:33:07 19:40:35:19 01:41:09:00 01:41:11:12
* FROM CLIP NAME:  A032C012_190802_R32C 
* SOURCE FILE: MSMMMOB.27

008719 BL                               V     C        00:00:00:00 00:00:32:11 01:41:11:05 01:41:43:16
* SOURCE FILE: (NULL)

008720 MSMMMOB.12                       V     C        21:25:55:06 21:25:56:22 01:41:11:12 01:41:13:03
* FROM CLIP NAME:  A035C003_190802_R32C 
* SOURCE FILE: MSMMMOB.12

008721 MSMMMOB.27                       V     C        19:40:38:18 19:40:40:01 01:41:13:03 01:41:14:11
* FROM CLIP NAME:  A032C012_190802_R32C 
* SOURCE FILE: MSMMMOB.27

008732 MSMMMOB.12                       V     C        21:25:59:14 21:26:03:07 01:41:14:11 01:41:18:04
* FROM CLIP NAME:  A035C003_190802_R32C 
* SOURCE FILE: MSMMMOB.12

008743 MSMMMOB.27                       V     C        19:40:44:03 19:40:51:02 01:41:18:04 01:41:25:03
* FROM CLIP NAME:  A032C012_190802_R32C 
* SOURCE FILE: MSMMMOB.27

008764 MSMMMOB.44                       V     C        20:22:37:23 20:22:39:17 01:41:25:03 01:41:26:22
* FROM CLIP NAME:  A033C007_190802_R32C 
* SOURCE FILE: MSMMMOB.44

008765 MSMMMOB.34                       V     C        20:04:08:15 20:04:10:16 01:41:26:22 01:41:28:23
* FROM CLIP NAME:  A033C004_190802_R32C 
* SOURCE FILE: MSMMMOB.34

008776 MSMMMOB.44                       V     C        20:22:42:12 20:22:47:15 01:41:28:23 01:41:34:01
* FROM CLIP NAME:  A033C007_190802_R32C 
* SOURCE FILE: MSMMMOB.44

008791 MSMMMOB.61                       V     C        14:05:31:05 14:05:40:20 01:41:34:01 01:41:43:16
* FROM CLIP NAME:  A026C009_190801_R32C 
* SOURCE FILE: MSMMMOB.61

008800 BL                               V     C        00:00:00:00 00:00:08:11 01:41:43:16 01:41:52:02
* SOURCE FILE: (NULL)

008802 MSMMMOB.51                       V     C        11:48:51:05 11:49:01:00 01:41:43:16 01:41:53:11
* FROM CLIP NAME:  B011C013_190811_R481 
* SOURCE FILE: MSMMMOB.51

008801 TITLE.01                         V     C        01:00:23:22 01:00:33:17 01:41:43:16 01:41:53:11
* FROM CLIP NAME:  TITLE.01 
* SOURCE FILE: TITLE.01

008805 BL                               V     C        00:00:00:00 00:00:14:23 01:41:52:02 01:42:07:00
* SOURCE FILE: (NULL)

008806 B007C006_190726_R4CP             V     C        23:03:43:11 23:03:45:20 01:41:53:11 01:41:55:20
* FROM CLIP NAME:  B007C006_190726_R4CP.NEW.01 
* SOURCE FILE: B007C006_190726_R4CP

008812 BL                               V     C        00:00:00:00 00:00:19:13 01:41:53:11 01:42:13:00
* SOURCE FILE: (NULL)

008813 B007C007_190726_R4CP             V     C        23:11:29:17 23:11:30:09 01:41:55:20 01:41:56:12
* FROM CLIP NAME:  B007C007_190726_R4CP.NEW.01 
* SOURCE FILE: B007C007_190726_R4CP

008819 B007C007_190726_R4CP             V     C        23:11:34:08 23:11:35:10 01:41:56:12 01:41:57:14
* FROM CLIP NAME:  B007C007_190726_R4CP.NEW.01 
* SOURCE FILE: B007C007_190726_R4CP

008825 B007C007_190726_R4CP             V     C        23:11:40:19 23:11:42:05 01:41:57:14 01:41:59:00
* FROM CLIP NAME:  B007C007_190726_R4CP.NEW.01 
* SOURCE FILE: B007C007_190726_R4CP

008836 B007C006_190726_R4CP             V     C        23:04:08:07 23:04:09:19 01:41:59:00 01:42:00:12
* FROM CLIP NAME:  B007C006_190726_R4CP.NEW.01 
* SOURCE FILE: B007C006_190726_R4CP

008841 B007C010_190726_R4CP             V     C        23:38:02:05 23:38:03:05 01:42:00:12 01:42:01:12
* FROM CLIP NAME:  B007C010_190726_R4CP.NEW.01 
* SOURCE FILE: B007C010_190726_R4CP

008842 B007C007_190726_R4CP             V     C        23:11:53:10 23:11:55:02 01:42:01:12 01:42:03:04
* FROM CLIP NAME:  B007C007_190726_R4CP.NEW.01 
* SOURCE FILE: B007C007_190726_R4CP

008853 B007C011_190726_R4CP             V     C        23:39:11:05 23:39:12:02 01:42:03:04 01:42:04:01
* FROM CLIP NAME:  B007C011_190726_R4CP.NEW.01 
* SOURCE FILE: B007C011_190726_R4CP

008858 B007C006_190726_R4CP             V     C        23:04:37:14 23:04:39:04 01:42:04:01 01:42:05:16
* FROM CLIP NAME:  B007C006_190726_R4CP.NEW.01 
* SOURCE FILE: B007C006_190726_R4CP

008869 B007C007_190726_R4CP             V     C        23:12:25:07 23:12:26:16 01:42:05:16 01:42:07:00
* FROM CLIP NAME:  B007C007_190726_R4CP.NEW.01 
* SOURCE FILE: B007C007_190726_R4CP

008874 BL                               V     C        00:00:00:00 00:00:02:00 01:42:07:00 01:42:09:00
* SOURCE FILE: (NULL)

008875 B007C012_190726_R4CP             V     C        23:40:01:06 23:40:03:06 01:42:07:00 01:42:09:00
* FROM CLIP NAME:  B007C012_190726_R4CP.NEW.01 
* SOURCE FILE: B007C012_190726_R4CP

008876 B007C009_190726_R4CP             V     C        23:30:32:12 23:30:34:02 01:42:09:00 01:42:10:15
* FROM CLIP NAME:  B007C009_190726_R4CP.NEW.01 
* SOURCE FILE: B007C009_190726_R4CP

008881 BL                               V     C        00:00:00:00 00:00:06:09 01:42:09:00 01:42:15:09
* SOURCE FILE: (NULL)

008882 B007C013_190726_R4CP             V     C        23:50:00:22 23:50:03:06 01:42:10:15 01:42:13:00
* FROM CLIP NAME:  B007C013_190726_R4CP.NEW.01 
* SOURCE FILE: B007C013_190726_R4CP

008888 TITLE.01                         V     C        01:00:37:08 01:00:41:00 01:42:13:00 01:42:16:15
* FROM CLIP NAME:  TITLE.01 
* SOURCE FILE: TITLE.01

008887 MSMMMOB.51                       V     C        11:49:04:16 11:49:08:07 01:42:13:00 01:42:16:15
* FROM CLIP NAME:  B011C013_190811_R481 
* SOURCE FILE: MSMMMOB.51

008891 BL                               V     C        00:00:00:00 00:00:01:06 01:42:15:09 01:42:16:15
* SOURCE FILE: (NULL)

008892 BL                               V     C        00:00:00:00 00:00:00:17 01:42:16:15 01:42:17:07
* SOURCE FILE: (NULL)

008893 TITLE.01                         V     C        01:00:47:19 01:00:48:11 01:42:16:15 01:42:17:07
* FROM CLIP NAME:  TITLE.01 
* SOURCE FILE: TITLE.01

008894 MSMMMOB.51                       V     C        11:49:15:02 11:49:17:13 01:42:16:15 01:42:19:01
* FROM CLIP NAME:  B011C013_190811_R481 
* SOURCE FILE: MSMMMOB.51

008897 BL                               V     C        00:00:00:00 00:01:34:00 01:42:17:07 01:43:51:06
* SOURCE FILE: (NULL)

008898 BL                               V     C        00:00:00:00 00:05:11:16 01:42:17:07 01:47:28:23
* SOURCE FILE: (NULL)

008899 MSMMMOB.51                       V     C        11:49:20:12 11:49:24:01 01:42:19:01 01:42:22:15
* FROM CLIP NAME:  B011C013_190811_R481 
* SOURCE FILE: MSMMMOB.51

008904 MSMMMOB.27                       V     C        12:48:35:04 12:48:43:23 01:42:22:15 01:42:31:09
* FROM CLIP NAME:  A063C006_190811_R32C 
* SOURCE FILE: MSMMMOB.27

008909 MSMMMOB.27                       V     C        12:48:48:09 12:48:53:07 01:42:31:09 01:42:36:07
* FROM CLIP NAME:  A063C006_190811_R32C 
* SOURCE FILE: MSMMMOB.27

008917 MSMMMOB.38                       V     C        15:04:40:14 15:04:59:15 01:42:36:07 01:42:55:08
* FROM CLIP NAME:  A026C015_190801_R32C 
* SOURCE FILE: MSMMMOB.38

008940 MSMMMOB.32                       V     C        00:00:39:19 00:00:45:08 01:42:55:08 01:43:00:22
* FROM CLIP NAME:  DJI_0034 
* SOURCE FILE: MSMMMOB.32

008945 B004C010_190726_R4CP             V     C        17:11:34:14 17:11:39:06 01:43:00:22 01:43:05:14
* FROM CLIP NAME:  57-8-1 
* SOURCE FILE: B004C010_190726_R4CP

008946 SHAR                             V     C        00:00:56:11 00:01:01:03 01:43:00:22 01:43:05:14
* FROM CLIP NAME:  SHAR.NEW.01 
* SOURCE FILE: SHAR

008951 CINEMASCOPE_2-35-1_CROPLINES.PNG V     C        01:00:00:00 01:04:28:01 01:43:00:22 01:47:28:23
* FROM CLIP NAME:  CINEMASCOPE 2-35-1 CROPLINES.PNG 
* SOURCE FILE: CINEMASCOPE 2-35-1 CROPLINES.PNG

008979 B004C007_190726_R4CP             V     C        16:48:40:23 16:48:42:15 01:43:05:14 01:43:07:06
* FROM CLIP NAME:  B004C007_190726_R4CP.NEW.01 
* SOURCE FILE: B004C007_190726_R4CP

008980 BL                               V     C        00:00:00:00 00:04:23:09 01:43:05:14 01:47:28:23
* SOURCE FILE: (NULL)

008993 A007C002_190726_R32C             V     C        16:45:51:15 16:45:55:21 01:43:07:06 01:43:11:12
* FROM CLIP NAME:  A007C002_190726_R32C.NEW.01 
* SOURCE FILE: A007C002_190726_R32C

009003 A006C016_190726_R32C             V     C        16:23:10:07 16:23:12:09 01:43:11:12 01:43:13:14
* FROM CLIP NAME:  A006C016_190726_R32C.NEW.01 
* SOURCE FILE: A006C016_190726_R32C

009015 B004C007_190726_R4CP             V     C        16:48:48:08 16:48:50:21 01:43:13:14 01:43:16:02
* FROM CLIP NAME:  B004C007_190726_R4CP.NEW.01 
* SOURCE FILE: B004C007_190726_R4CP

009043 A006C011_190726_R32C             V     C        15:50:26:12 15:50:30:01 01:43:16:02 01:43:19:16
* FROM CLIP NAME:  A006C011_190726_R32C.NEW.01 
* SOURCE FILE: A006C011_190726_R32C

009053 B004C009_190726_R4CP             V     C        17:04:55:05 17:04:59:13 01:43:19:16 01:43:24:00
* FROM CLIP NAME:  B004C009_190726_R4CP.NEW.01 
* SOURCE FILE: B004C009_190726_R4CP

009080 A007C003_190726_R32C             V     C        16:48:57:11 16:49:08:23 01:43:24:00 01:43:35:11
* FROM CLIP NAME:  A007C003_190726_R32C.NEW.01 
* SOURCE FILE: A007C003_190726_R32C

009090 B004C009_190726_R4CP             V     C        17:05:08:20 17:05:12:02 01:43:35:11 01:43:38:18
* FROM CLIP NAME:  B004C009_190726_R4CP.NEW.01 
* SOURCE FILE: B004C009_190726_R4CP

009099 B004C002_190726_R4CP             V     C        16:20:27:00 16:20:32:01 01:43:38:18 01:43:43:19
* FROM CLIP NAME:  B004C002_190726_R4CP.NEW.01 
* SOURCE FILE: B004C002_190726_R4CP

009126 A007C007_190726_R32C             V     C        17:05:16:04 17:05:19:20 01:43:43:19 01:43:47:10
* FROM CLIP NAME:  A007C007_190726_R32C.NEW.01 
* SOURCE FILE: A007C007_190726_R32C

009146 A006C016_190726_R32C             V     C        16:23:41:01 16:23:44:19 01:43:47:10 01:43:51:03
* FROM CLIP NAME:  A006C016_190726_R32C.NEW.01 
* SOURCE FILE: A006C016_190726_R32C

009147 A006C013_190726_R32C             V     C        15:59:53:20 16:00:02:05 01:43:51:03 01:43:59:13
* FROM CLIP NAME:  A006C013_190726_R32C.NEW.01 
* SOURCE FILE: A006C013_190726_R32C

009148 BL                               V     C        00:00:00:00 00:00:02:14 01:43:51:06 01:43:53:20
* SOURCE FILE: (NULL)

009158 BL                               V     C        00:00:00:00 00:00:02:00 01:43:53:20 01:43:55:20
* SOURCE FILE: (NULL)

009159 BL                               V     C        00:00:00:00 00:00:04:07 01:43:55:20 01:44:00:02
* SOURCE FILE: (NULL)

009160 B004C003_190726_R4CP             V     C        16:24:24:00 16:24:31:23 01:43:59:13 01:44:07:11
* FROM CLIP NAME:  B004C003_190726_R4CP.NEW.01 
* SOURCE FILE: B004C003_190726_R4CP

009161 BL                               V     C        00:00:00:00 00:00:04:17 01:44:00:02 01:44:04:19
* SOURCE FILE: (NULL)

009171 BL                               V     C        00:00:00:00 00:00:02:17 01:44:04:19 01:44:07:11
* SOURCE FILE: (NULL)

009183 A006C013_190726_R32C             V     C        16:00:10:14 16:00:13:22 01:44:07:11 01:44:10:19
* FROM CLIP NAME:  A006C013_190726_R32C.NEW.01 
* SOURCE FILE: A006C013_190726_R32C

009184 BL                               V     C        00:00:00:00 00:00:08:04 01:44:07:11 01:44:15:15
* SOURCE FILE: (NULL)

009185 B004C004_190726_R4CP             V     C        16:33:27:23 16:33:32:19 01:44:10:19 01:44:15:15
* FROM CLIP NAME:  B004C004_190726_R4CP.NEW.01 
* SOURCE FILE: B004C004_190726_R4CP

009199 M108_C002_20190729_R             V     C        11:23:33:23 11:23:40:22 01:44:15:15 01:44:21:17
* FROM CLIP NAME:  M108_C002_20190729_R.NEW.01 
* SOURCE FILE: M108_C002_20190729_R 
* REPAIR: FROM SOURCE TRUE SPEED IS 28.750000 FPS
M2   M108_C002_20190729_R 28.8                      11:23:33:23 

009200 BL                               V     C        00:00:00:00 00:01:19:06 01:44:15:15 01:45:34:21
* SOURCE FILE: (NULL)

009201 A011C021_190727_R32C             V     C        06:08:56:01 06:08:59:18 01:44:21:17 01:44:25:09
* FROM CLIP NAME:  A011C021_190727_R32C.NEW.01.SUB.01 
* SOURCE FILE: A011C021_190727_R32C

009202 A010C021_190727_R32C             V     C        03:44:18:10 03:44:21:15 01:44:25:09 01:44:28:14
* FROM CLIP NAME:  A010C021_190727_R32C.NEW.01.SUB.01 
* SOURCE FILE: A010C021_190727_R32C

009211 B002C007_190726_R4CP             V     C        10:43:39:12 10:43:42:13 01:44:28:14 01:44:31:15
* FROM CLIP NAME:  B002C007_190726_R4CP.NEW.01.SUB.01 
* SOURCE FILE: B002C007_190726_R4CP

009220 MSMMMOB.54                       V     C        16:45:38:04 16:45:41:17 01:44:31:15 01:44:35:03
* FROM CLIP NAME:  A083C005_190815_R32C 
* SOURCE FILE: MSMMMOB.54

009229 B002C007_190726_R4CP             V     C        10:43:45:13 10:43:50:19 01:44:35:03 01:44:40:09
* FROM CLIP NAME:  B002C007_190726_R4CP.NEW.01.SUB.01 
* SOURCE FILE: B002C007_190726_R4CP

009236 MSMMMOB.54                       V     C        16:45:45:19 16:45:47:23 01:44:40:09 01:44:42:13
* FROM CLIP NAME:  A083C005_190815_R32C 
* SOURCE FILE: MSMMMOB.54

009245 B002C007_190726_R4CP             V     C        10:43:51:20 10:43:56:23 01:44:42:13 01:44:47:16
* FROM CLIP NAME:  B002C007_190726_R4CP.NEW.01.SUB.01 
* SOURCE FILE: B002C007_190726_R4CP

009248 MSMMMOB.54                       V     C        16:45:54:02 16:45:58:13 01:44:47:16 01:44:52:02
* FROM CLIP NAME:  A083C005_190815_R32C 
* SOURCE FILE: MSMMMOB.54

009257 MSMMMOB.34                       V     C        16:20:40:09 16:20:43:05 01:44:52:02 01:44:54:23
* FROM CLIP NAME:  A083C001_190815_R32C 
* SOURCE FILE: MSMMMOB.34

009266 A010C022_190727_R32C             V     C        03:46:09:06 03:46:10:17 01:44:54:23 01:44:56:09
* FROM CLIP NAME:  A010C022_190727_R32C.NEW.01.SUB.01 
* SOURCE FILE: A010C022_190727_R32C

009269 A015C003_190728_R32C             V     C        15:38:03:01 15:38:04:10 01:44:56:09 01:44:57:18
* FROM CLIP NAME:  A015C003_190728_R32C.NEW.01 
* SOURCE FILE: A015C003_190728_R32C

009270 A015C003_190728_R32C             V     C        15:39:20:03 15:39:21:18 01:44:57:18 01:44:59:08
* FROM CLIP NAME:  A015C003_190728_R32C.NEW.01 
* SOURCE FILE: A015C003_190728_R32C

009271 A013C004_190728_R32C             V     C        13:54:13:20 13:54:18:10 01:44:59:08 01:45:03:23
* FROM CLIP NAME:  A013C004_190728_R32C.NEW.01 
* SOURCE FILE: A013C004_190728_R32C

009272 A019C009_190729_R32C             V     C        06:05:08:15 06:05:11:14 01:45:03:23 01:45:06:22
* FROM CLIP NAME:  A019C009_190729_R32C.NEW.01.SUB.01 
* SOURCE FILE: A019C009_190729_R32C

009275 A019C009_190729_R32C             V     C        06:05:15:09 06:05:17:14 01:45:06:22 01:45:09:02
* FROM CLIP NAME:  A019C009_190729_R32C.NEW.01.SUB.01 
* SOURCE FILE: A019C009_190729_R32C

009276 M108_C032_20190729_R             V     C        17:04:20:02 17:04:24:04 01:45:09:02 01:45:13:04
* FROM CLIP NAME:  M108_C032_20190729_R.NEW.01 
* SOURCE FILE: M108_C032_20190729_R

009279 MSMMMOB.52                       V     C        10:17:51:22 10:18:03:00 01:45:13:04 01:45:22:11
* FROM CLIP NAME:  A086C005_190820_R32C 
* SOURCE FILE: MSMMMOB.52

009284 MSMMMOB.24                       V     C        11:50:31:04 11:50:38:13 01:45:22:11 01:45:29:20
* FROM CLIP NAME:  A087C001_190820_R32C 
* SOURCE FILE: MSMMMOB.24

009293 MSMMMOB.71                       V     C        11:56:04:19 11:56:07:11 01:45:29:20 01:45:32:12
* FROM CLIP NAME:  A087C003_190820_R32C 
* SOURCE FILE: MSMMMOB.71

009300 MSMMMOB.24                       V     C        11:50:40:18 11:50:42:20 01:45:32:12 01:45:34:14
* FROM CLIP NAME:  A087C001_190820_R32C 
* SOURCE FILE: MSMMMOB.24

009305 MSMMMOB.38                       V     C        11:28:16:02 11:28:17:20 01:45:34:14 01:45:36:07
* FROM CLIP NAME:  A086C008_190820_R32C 
* SOURCE FILE: MSMMMOB.38

009310 BL                               V     C        00:00:00:00 00:00:01:11 01:45:34:21 01:45:36:07
* SOURCE FILE: (NULL)

009311 MSMMMOB.30                       V     C        12:08:35:18 12:08:37:13 01:45:36:07 01:45:38:02
* FROM CLIP NAME:  A087C005_190820_R32C 
* SOURCE FILE: MSMMMOB.30

009312 BL                               V     C        00:00:00:00 00:00:17:23 01:45:36:07 01:45:54:05
* SOURCE FILE: (NULL)

009317 MSMMMOB.12                       V     C        12:11:03:18 12:11:05:01 01:45:38:02 01:45:39:10
* FROM CLIP NAME:  A087C006_190820_R32C 
* SOURCE FILE: MSMMMOB.12

009320 MSMMMOB.12                       V     C        12:11:06:07 12:11:08:10 01:45:39:10 01:45:41:13
* FROM CLIP NAME:  A087C006_190820_R32C 
* SOURCE FILE: MSMMMOB.12

009325 MSMMMOB.12                       V     C        12:11:11:06 12:11:14:13 01:45:41:13 01:45:44:20
* FROM CLIP NAME:  A087C006_190820_R32C 
* SOURCE FILE: MSMMMOB.12

009328 MSMMMOB.83                       V     C        12:21:56:19 12:21:58:02 01:45:44:20 01:45:46:03
* FROM CLIP NAME:  A087C008_190820_R32C 
* SOURCE FILE: MSMMMOB.83

009335 MSMMMOB.83                       V     C        12:21:59:20 12:22:01:19 01:45:46:03 01:45:48:02
* FROM CLIP NAME:  A087C008_190820_R32C 
* SOURCE FILE: MSMMMOB.83

009340 MSMMMOB.30                       V     C        12:08:51:19 12:08:53:01 01:45:48:02 01:45:49:09
* FROM CLIP NAME:  A087C005_190820_R32C 
* SOURCE FILE: MSMMMOB.30

009343 MSMMMOB.83                       V     C        12:22:10:09 12:22:12:11 01:45:49:09 01:45:51:11
* FROM CLIP NAME:  A087C008_190820_R32C 
* SOURCE FILE: MSMMMOB.83

009350 MSMMMOB.30                       V     C        12:09:15:03 12:09:20:16 01:45:51:11 01:45:57:00
* FROM CLIP NAME:  A087C005_190820_R32C 
* SOURCE FILE: MSMMMOB.30

009353 BL                               V     C        00:00:00:00 00:00:06:07 01:45:54:05 01:46:00:12
* SOURCE FILE: (NULL)

009358 MSMMMOB.42                       V     C        11:39:18:18 11:39:23:08 01:45:57:00 01:46:01:14
* FROM CLIP NAME:  A086C010_190820_R32C 
* SOURCE FILE: MSMMMOB.42

009367 BL                               V     C        00:00:00:00 00:00:00:01 01:46:00:12 01:46:00:13
* SOURCE FILE: (NULL)

009368 BL                               V     C        00:00:00:00 00:00:07:21 01:46:00:13 01:46:08:09
* SOURCE FILE: (NULL)

009369 MSMMMOB.63                       V     C        12:39:43:20 12:39:45:16 01:46:01:14 01:46:03:10
* FROM CLIP NAME:  A087C011_190820_R32C 
* SOURCE FILE: MSMMMOB.63

009370 MSMMMOB.42                       V     C        11:39:24:05 11:39:29:06 01:46:03:10 01:46:08:11
* FROM CLIP NAME:  A086C010_190820_R32C 
* SOURCE FILE: MSMMMOB.42

009373 BL                               V     C        00:00:00:00 00:00:56:03 01:46:08:09 01:47:04:12
* SOURCE FILE: (NULL)

009374 MSMMMOB.47                       V     C        13:30:09:07 13:30:14:22 01:46:08:11 01:46:14:01
* FROM CLIP NAME:  A088C009_190820_R32C 
* SOURCE FILE: MSMMMOB.47

009379 MSMMMOB.38                       V     C        11:28:56:05 11:28:58:20 01:46:14:01 01:46:16:16
* FROM CLIP NAME:  A086C008_190820_R32C 
* SOURCE FILE: MSMMMOB.38

009384 MSMMMOB.63                       V     C        12:39:59:17 12:40:06:03 01:46:16:16 01:46:23:02
* FROM CLIP NAME:  A087C011_190820_R32C 
* SOURCE FILE: MSMMMOB.63

009389 MSMMMOB.38                       V     C        11:28:58:20 11:29:03:19 01:46:23:02 01:46:28:01
* FROM CLIP NAME:  A086C008_190820_R32C 
* SOURCE FILE: MSMMMOB.38

009396 MSMMMOB.41                       V     C        12:56:50:01 12:56:54:04 01:46:28:01 01:46:32:04
* FROM CLIP NAME:  A088C005_190820_R32C 
* SOURCE FILE: MSMMMOB.41

009403 MSMMMOB.67                       V     C        13:05:02:02 13:05:05:19 01:46:32:04 01:46:35:21
* FROM CLIP NAME:  A088C006_190820_R32C 
* SOURCE FILE: MSMMMOB.67

009412 MSMMMOB.77                       V     C        12:54:14:10 12:54:19:03 01:46:35:21 01:46:40:14
* FROM CLIP NAME:  A088C003_190820_R32C 
* SOURCE FILE: MSMMMOB.77

009419 MSMMMOB.05                       V     C        13:16:20:04 13:16:22:23 01:46:40:14 01:46:43:08
* FROM CLIP NAME:  A088C007_190820_R32C 
* SOURCE FILE: MSMMMOB.05

009422 MSMMMOB.32                       V     C        15:06:46:15 15:06:50:00 01:46:43:08 01:46:46:18
* FROM CLIP NAME:  A089C005_190820_R32C 
* SOURCE FILE: MSMMMOB.32

009431 MSMMMOB.49                       V     C        14:54:09:15 14:54:17:19 01:46:46:18 01:46:54:22
* FROM CLIP NAME:  A089C003_190820_R32C 
* SOURCE FILE: MSMMMOB.49

009440 MSMMMOB.50                       V     C        14:36:19:08 14:36:21:15 01:46:54:22 01:46:57:04
* FROM CLIP NAME:  A088C013_190820_R32C 
* SOURCE FILE: MSMMMOB.50

009443 MSMMMOB.32                       V     C        15:07:15:22 15:07:19:01 01:46:57:04 01:47:00:08
* FROM CLIP NAME:  A089C005_190820_R32C 
* SOURCE FILE: MSMMMOB.32

009446 MSMMMOB.32                       V     C        15:07:27:13 15:07:31:17 01:47:00:08 01:47:04:12
* FROM CLIP NAME:  A089C005_190820_R32C 
* SOURCE FILE: MSMMMOB.32

009451 BL                               V     C        00:00:00:00 00:00:02:10 01:47:04:12 01:47:06:22
* SOURCE FILE: (NULL)

009452 MSMMMOB.34                       V     C        15:18:55:20 15:18:58:05 01:47:04:12 01:47:06:22
* FROM CLIP NAME:  A089C010_190820_R32C 
* SOURCE FILE: MSMMMOB.34

009455 MSMMMOB.04                       V     C        15:17:14:02 15:17:16:20 01:47:06:22 01:47:09:15
* FROM CLIP NAME:  A089C009_190820_R32C 
* SOURCE FILE: MSMMMOB.04

009458 BL                               V     C        00:00:00:00 00:00:07:18 01:47:06:22 01:47:14:15
* SOURCE FILE: (NULL)

009459 MSMMMOB.34                       V     C        15:19:14:07 15:19:16:00 01:47:09:15 01:47:11:07
* FROM CLIP NAME:  A089C010_190820_R32C 
* SOURCE FILE: MSMMMOB.34

009462 MSMMMOB.34                       V     C        15:19:09:18 15:19:10:19 01:47:11:07 01:47:12:08
* FROM CLIP NAME:  A089C010_190820_R32C 
* SOURCE FILE: MSMMMOB.34

009463 MSMMMOB.82                       V     C        15:14:26:09 15:14:28:16 01:47:12:08 01:47:14:15
* FROM CLIP NAME:  A089C008_190820_R32C 
* SOURCE FILE: MSMMMOB.82

009466 BL                               V     C        00:00:00:00 00:00:02:19 01:47:14:15 01:47:17:09
* SOURCE FILE: (NULL)

009467 MSMMMOB.34                       V     C        15:18:52:07 15:18:55:01 01:47:14:15 01:47:17:09
* FROM CLIP NAME:  A089C010_190820_R32C 
* SOURCE FILE: MSMMMOB.34

009468 MSMMMOB.04                       V     C        15:17:20:09 15:17:22:10 01:47:17:09 01:47:19:10
* FROM CLIP NAME:  A089C009_190820_R32C 
* SOURCE FILE: MSMMMOB.04

009471 BL                               V     C        00:00:00:00 00:00:11:14 01:47:17:09 01:47:28:23
* SOURCE FILE: (NULL)

009472 MSMMMOB.26                       V     C        15:04:41:02 15:04:42:20 01:47:19:10 01:47:21:03
* FROM CLIP NAME:  A089C004_190820_R32C 
* SOURCE FILE: MSMMMOB.26

009475 MSMMMOB.32                       V     C        15:07:56:05 15:08:04:00 01:47:21:03 01:47:28:23
* FROM CLIP NAME:  A089C005_190820_R32C 
* SOURCE FILE: MSMMMOB.32

009478 BL                               V     C        00:00:00:00 00:00:01:23 01:47:28:23 01:47:30:21
* SOURCE FILE: (NULL)

009481 BL                               V     C        00:00:00:00 00:00:05:17 01:47:28:23 01:47:34:15
* SOURCE FILE: (NULL)

009480 BL                               V     C        00:00:00:00 00:00:05:17 01:47:28:23 01:47:34:15
* SOURCE FILE: (NULL)

009479 M108_C008_20190729_R             V     C        11:55:23:02 11:55:28:19 01:47:28:23 01:47:34:15
* FROM CLIP NAME:  M108_C008_20190729_R.NEW.01 
* SOURCE FILE: M108_C008_20190729_R

009482 CINEMASCOPE_2-35-1_CROPLINES.PNG V     C        01:00:00:00 01:06:00:00 01:47:28:23 01:53:28:22
* FROM CLIP NAME:  CINEMASCOPE 2-35-1 CROPLINES.PNG 
* SOURCE FILE: CINEMASCOPE 2-35-1 CROPLINES.PNG

009483 BL                               V     C        00:00:00:00 00:00:00:00 01:47:30:21 01:47:30:21

009483 BL                               V     D   018  00:00:00:00 00:00:00:18 01:47:30:21 01:47:31:14
* BLEND, DISSOLVE 
* SOURCE FILE: (NULL)

009484 BL                               V     C        00:00:00:00 00:00:03:01 01:47:31:14 01:47:34:15
* SOURCE FILE: (NULL)

009487 MSMMMOB.13                       V     C        10:13:18:02 10:13:20:13 01:47:34:15 01:47:37:01
* FROM CLIP NAME:  A037C004_190804_R32C 
* SOURCE FILE: MSMMMOB.13

009495 BL                               V     C        00:00:00:00 00:00:11:23 01:47:34:15 01:47:46:13
* SOURCE FILE: (NULL)

009496 BL                               V     C        00:00:00:00 00:00:11:23 01:47:34:15 01:47:46:13
* SOURCE FILE: (NULL)

009497 BL                               V     C        00:00:00:00 00:14:32:23 01:47:34:15 02:02:07:13
* SOURCE FILE: (NULL)

009498 MSMMMOB.65                       V     C        10:26:19:15 10:26:24:22 01:47:37:01 01:47:42:08
* FROM CLIP NAME:  A037C006_190804_R32C 
* SOURCE FILE: MSMMMOB.65

009506 MSMMMOB.13                       V     C        10:13:26:13 10:13:28:06 01:47:42:08 01:47:44:01
* FROM CLIP NAME:  A037C004_190804_R32C 
* SOURCE FILE: MSMMMOB.13

009514 MSMMMOB.39                       V     C        10:49:37:23 10:49:39:02 01:47:44:01 01:47:45:05
* FROM CLIP NAME:  A037C011_190804_R32C 
* SOURCE FILE: MSMMMOB.39

009523 MSMMMOB.13                       V     C        10:13:28:06 10:13:32:07 01:47:45:05 01:47:49:06
* FROM CLIP NAME:  A037C004_190804_R32C 
* SOURCE FILE: MSMMMOB.13

009529 BL                               V     C        00:00:00:00 00:00:03:08 01:47:46:13 01:47:49:21
* SOURCE FILE: (NULL)

009530 TITLE.01                         V     C        01:00:38:02 01:00:49:13 01:47:46:13 01:47:58:00
* FROM CLIP NAME:  TITLE.01 
* SOURCE FILE: TITLE.01

009533 MSMMMOB.26                       V     C        10:39:39:16 10:39:52:07 01:47:49:06 01:48:01:22
* FROM CLIP NAME:  A037C010_190804_R32C 
* SOURCE FILE: MSMMMOB.26

009534 BL                               V     C        00:00:00:00 00:00:02:07 01:47:49:21 01:47:52:03
* SOURCE FILE: (NULL)

009541 BL                               V     C        00:00:00:00 00:00:05:21 01:47:52:03 01:47:58:00
* SOURCE FILE: (NULL)

009557 BL                               V     C        00:00:00:00 00:00:18:07 01:47:58:00 01:48:16:06
* SOURCE FILE: (NULL)

009558 BL                               V     C        00:00:00:00 00:00:18:07 01:47:58:00 01:48:16:06
* SOURCE FILE: (NULL)

009559 MSMMMOB.13                       V     C        10:13:47:16 10:14:02:00 01:48:01:22 01:48:16:06
* FROM CLIP NAME:  A037C004_190804_R32C 
* SOURCE FILE: MSMMMOB.13

009593 MSMMMOB.61                       V     C        19:12:27:11 19:12:30:03 01:48:16:06 01:48:18:23
* FROM CLIP NAME:  A040C010_190804_R32C 
* SOURCE FILE: MSMMMOB.61

009595 BL                               V     C        00:00:00:00 00:00:05:00 01:48:16:06 01:48:21:06
* SOURCE FILE: (NULL)

009596 TITLE.01                         V     C        01:00:17:23 01:00:22:23 01:48:16:06 01:48:21:06
* FROM CLIP NAME:  TITLE.01 
* SOURCE FILE: TITLE.01

009600 MSMMMOB.19                       V     C        18:46:43:12 18:46:55:08 01:48:18:23 01:48:30:19
* FROM CLIP NAME:  A040C003_190804_R32C 
* SOURCE FILE: MSMMMOB.19

009601 BL                               V     C        00:00:00:00 00:00:04:04 01:48:21:06 01:48:25:10
* SOURCE FILE: (NULL)

009602 BL                               V     C        00:00:00:00 00:00:04:04 01:48:21:06 01:48:25:10
* SOURCE FILE: (NULL)

009626 TITLE.01                         V     C        01:00:17:23 01:00:23:07 01:48:25:10 01:48:30:19
* FROM CLIP NAME:  TITLE.01 
* SOURCE FILE: TITLE.01

009625 BL                               V     C        00:00:00:00 00:00:05:09 01:48:25:10 01:48:30:19
* SOURCE FILE: (NULL)

009630 MSMMMOB.87                       V     C        10:29:09:04 10:29:13:19 01:48:30:19 01:48:35:09
* FROM CLIP NAME:  B011C002_190811_R481 
* SOURCE FILE: MSMMMOB.87

009633 BL                               V     C        00:00:00:00 00:00:05:21 01:48:30:19 01:48:36:15
* SOURCE FILE: (NULL)

009634 BL                               V     C        00:00:00:00 00:00:05:21 01:48:30:19 01:48:36:15
* SOURCE FILE: (NULL)

009641 MSMMMOB.43                       V     C        11:06:28:03 11:06:34:09 01:48:35:09 01:48:41:15
* FROM CLIP NAME:  B011C010_190811_R481 
* SOURCE FILE: MSMMMOB.43

009645 BL                               V     C        00:00:00:00 00:00:03:23 01:48:36:15 01:48:40:13
* SOURCE FILE: (NULL)

009646 TITLE.01                         V     C        01:00:23:05 01:00:28:05 01:48:36:15 01:48:41:15
* FROM CLIP NAME:  TITLE.01 
* SOURCE FILE: TITLE.01

009648 BL                               V     C        00:00:00:00 00:00:01:14 01:48:40:13 01:48:42:02
* SOURCE FILE: (NULL)

009652 TITLE.01                         V     C        01:00:17:10 01:00:21:05 01:48:41:15 01:48:45:10
* FROM CLIP NAME:  TITLE.01 
* SOURCE FILE: TITLE.01

009653 MSMMMOB.41                       V     C        18:48:38:10 18:48:43:19 01:48:41:15 01:48:47:00
* FROM CLIP NAME:  A040C004_190804_R32C 
* SOURCE FILE: MSMMMOB.41

009659 BL                               V     C        00:00:00:00 00:00:03:08 01:48:42:02 01:48:45:10
* SOURCE FILE: (NULL)

009666 BL                               V     C        00:00:00:00 00:00:01:14 01:48:45:10 01:48:47:00
* SOURCE FILE: (NULL)

009667 BL                               V     C        00:00:00:00 00:00:01:14 01:48:45:10 01:48:47:00
* SOURCE FILE: (NULL)

009670 TITLE.01                         V     C        01:00:22:19 01:00:29:21 01:48:47:00 01:48:54:01
* FROM CLIP NAME:  TITLE.01 
* SOURCE FILE: TITLE.01

009669 BL                               V     C        00:00:00:00 00:00:07:02 01:48:47:00 01:48:54:01
* SOURCE FILE: (NULL)

009672 MSMMMOB.43                       V     C        11:06:10:06 11:06:18:00 01:48:47:00 01:48:54:17
* FROM CLIP NAME:  B011C010_190811_R481 
* SOURCE FILE: MSMMMOB.43

009674 BL                               V     C        00:00:00:00 00:00:00:16 01:48:54:01 01:48:54:17
* SOURCE FILE: (NULL)

009675 BL                               V     C        00:00:00:00 00:00:00:16 01:48:54:01 01:48:54:17
* SOURCE FILE: (NULL)

009677 BL                               V     C        00:00:00:00 00:00:02:00 01:48:54:17 01:48:56:16
* SOURCE FILE: (NULL)

009678 TITLE.01                         V     C        01:00:32:05 01:00:34:04 01:48:54:17 01:48:56:16
* FROM CLIP NAME:  TITLE.01 
* SOURCE FILE: TITLE.01

009685 MSMMMOB.36                       V     C        19:02:21:02 19:02:29:07 01:48:54:17 01:49:02:22
* FROM CLIP NAME:  A040C006_190804_R32C 
* SOURCE FILE: MSMMMOB.36

009688 BL                               V     C        00:00:00:00 00:00:01:07 01:48:56:16 01:48:57:23
* SOURCE FILE: (NULL)

009687 BL                               V     C        00:00:00:00 00:00:01:07 01:48:56:16 01:48:57:23
* SOURCE FILE: (NULL)

009696 TITLE.01                         V     C        01:00:35:14 01:00:37:00 01:48:57:23 01:48:59:09
* FROM CLIP NAME:  TITLE.01 
* SOURCE FILE: TITLE.01

009695 BL                               V     C        00:00:00:00 00:00:01:11 01:48:57:23 01:48:59:09
* SOURCE FILE: (NULL)

009704 BL                               V     C        00:00:00:00 00:00:05:11 01:48:59:09 01:49:04:20
* SOURCE FILE: (NULL)

009705 BL                               V     C        00:00:00:00 00:00:05:11 01:48:59:09 01:49:04:20
* SOURCE FILE: (NULL)

009713 MSMMMOB.43                       V     C        11:06:41:14 11:06:48:21 01:49:02:22 01:49:10:04
* FROM CLIP NAME:  B011C010_190811_R481 
* SOURCE FILE: MSMMMOB.43

009720 TITLE.01                         V     C        01:00:42:08 01:00:46:11 01:49:04:20 01:49:08:23
* FROM CLIP NAME:  TITLE.01 
* SOURCE FILE: TITLE.01

009721 BL                               V     C        00:00:00:00 00:00:04:03 01:49:04:20 01:49:08:23
* SOURCE FILE: (NULL)

009723 BL                               V     C        00:00:00:00 00:00:01:06 01:49:08:23 01:49:10:04
* SOURCE FILE: (NULL)

009724 BL                               V     C        00:00:00:00 00:00:02:07 01:49:08:23 01:49:11:05
* SOURCE FILE: (NULL)

009729 TITLE.01                         V     C        01:00:17:15 01:00:32:18 01:49:10:04 01:49:25:07
* FROM CLIP NAME:  TITLE.01 
* SOURCE FILE: TITLE.01

009730 MSMMMOB.56                       V     C        19:04:42:05 19:04:58:15 01:49:10:04 01:49:26:14
* FROM CLIP NAME:  A040C007_190804_R32C 
* SOURCE FILE: MSMMMOB.56

009741 BL                               V     C        00:00:00:00 00:00:04:09 01:49:11:05 01:49:15:14
* SOURCE FILE: (NULL)

009743 BL                               V     C        00:00:00:00 00:00:06:01 01:49:15:14 01:49:21:15
* SOURCE FILE: (NULL)

009748 BL                               V     C        00:00:00:00 00:00:02:12 01:49:21:15 01:49:24:02
* SOURCE FILE: (NULL)

009753 BL                               V     C        00:00:00:00 00:01:15:12 01:49:24:02 01:50:39:14
* SOURCE FILE: (NULL)

009757 BL                               V     C        00:00:00:00 00:01:13:12 01:49:25:07 01:50:38:19
* SOURCE FILE: (NULL)

009758 MSMMMOB.46                       V     C        19:17:27:15 19:17:31:03 01:49:26:14 01:49:30:02
* FROM CLIP NAME:  A040C012_190804_R32C 
* SOURCE FILE: MSMMMOB.46

009765 MSMMMOB.43                       V     C        11:07:17:14 11:07:21:11 01:49:30:02 01:49:34:00
* FROM CLIP NAME:  B011C010_190811_R481 
* SOURCE FILE: MSMMMOB.43

009770 MSMMMOB.60                       V     C        16:59:55:14 16:59:57:18 01:49:34:00 01:49:36:03
* FROM CLIP NAME:  A039C009_190804_R32C 
* SOURCE FILE: MSMMMOB.60

009777 MSMMMOB.09                       V     C        16:42:00:21 16:42:03:05 01:49:36:03 01:49:38:12
* FROM CLIP NAME:  A039C007_190804_R32C 
* SOURCE FILE: MSMMMOB.09

009784 MSMMMOB.29                       V     C        13:38:59:05 13:39:03:13 01:49:38:12 01:49:42:20
* FROM CLIP NAME:  A038C010_190804_R32C 
* SOURCE FILE: MSMMMOB.29

009793 MSMMMOB.43                       V     C        11:07:33:11 11:07:38:00 01:49:42:20 01:49:47:08
* FROM CLIP NAME:  B011C010_190811_R481 
* SOURCE FILE: MSMMMOB.43

009800 MSMMMOB.38                       V     C        14:06:23:16 14:06:37:11 01:49:47:08 01:50:01:03
* FROM CLIP NAME:  A038C013_190804_R32C 
* SOURCE FILE: MSMMMOB.38

009812 MSMMMOB.21                       V     C        16:04:30:13 16:04:32:11 01:50:01:03 01:50:03:01
* FROM CLIP NAME:  A039C003_190804_R32C 
* SOURCE FILE: MSMMMOB.21

009821 MSMMMOB.02                       V     C        16:13:02:11 16:13:06:21 01:50:03:01 01:50:07:11
* FROM CLIP NAME:  A039C005_190804_R32C 
* SOURCE FILE: MSMMMOB.02

009830 MSMMMOB.20                       V     C        14:23:07:02 14:23:09:03 01:50:07:11 01:50:09:12
* FROM CLIP NAME:  A038C016_190804_R32C 
* SOURCE FILE: MSMMMOB.20

009839 MSMMMOB.29                       V     C        13:39:28:08 13:39:30:18 01:50:09:12 01:50:11:22
* FROM CLIP NAME:  A038C010_190804_R32C 
* SOURCE FILE: MSMMMOB.29

009840 MSMMMOB.20                       V     C        14:23:10:21 14:23:14:18 01:50:11:22 01:50:15:19
* FROM CLIP NAME:  A038C016_190804_R32C 
* SOURCE FILE: MSMMMOB.20

009849 MSMMMOB.21                       V     C        16:04:44:04 16:04:47:05 01:50:15:19 01:50:18:20
* FROM CLIP NAME:  A039C003_190804_R32C 
* SOURCE FILE: MSMMMOB.21

009858 MSMMMOB.20                       V     C        14:23:15:23 14:23:20:04 01:50:18:20 01:50:23:01
* FROM CLIP NAME:  A038C016_190804_R32C 
* SOURCE FILE: MSMMMOB.20

009883 MSMMMOB.21                       V     C        16:04:51:08 16:04:53:23 01:50:23:01 01:50:25:16
* FROM CLIP NAME:  A039C003_190804_R32C 
* SOURCE FILE: MSMMMOB.21

009884 MSMMMOB.38                       V     C        14:06:58:11 14:07:04:10 01:50:25:16 01:50:31:15
* FROM CLIP NAME:  A038C013_190804_R32C 
* SOURCE FILE: MSMMMOB.38

009893 MSMMMOB.21                       V     C        16:05:01:12 16:05:18:17 01:50:31:15 01:50:48:20
* FROM CLIP NAME:  A039C003_190804_R32C 
* SOURCE FILE: MSMMMOB.21

009908 TITLE.01                         V     C        01:00:43:06 01:00:49:08 01:50:38:19 01:50:44:21
* FROM CLIP NAME:  TITLE.01 
* SOURCE FILE: TITLE.01

009910 BL                               V     C        00:00:00:00 00:00:04:10 01:50:39:14 01:50:44:00
* SOURCE FILE: (NULL)

009913 BL                               V     C        00:00:00:00 00:00:49:10 01:50:44:00 01:51:33:09
* SOURCE FILE: (NULL)

009914 TITLE.01                         V     C        01:00:49:08 01:00:49:08 01:50:44:21 01:50:44:21

009914 BL                               V     D   021  00:00:00:00 00:00:00:21 01:50:44:21 01:50:45:17
* BLEND, DISSOLVE 
* FROM CLIP NAME:  TITLE.01 
* SOURCE FILE: TITLE.01

009933 BL                               V     C        00:00:00:00 00:01:41:14 01:50:45:17 01:52:27:06
* SOURCE FILE: (NULL)

009934 MSMMMOB.80                       V     C        16:45:55:11 16:45:57:17 01:50:48:20 01:50:51:01
* FROM CLIP NAME:  A090C004_190820_R32C 
* SOURCE FILE: MSMMMOB.80

009939 MSMMMOB.29                       V     C        16:42:56:05 16:42:58:13 01:50:51:01 01:50:53:09
* FROM CLIP NAME:  A090C002_190820_R32C 
* SOURCE FILE: MSMMMOB.29

009944 MSMMMOB.86                       V     C        18:04:26:23 18:04:29:14 01:50:53:09 01:50:56:00
* FROM CLIP NAME:  A090C018_190820_R32C 
* SOURCE FILE: MSMMMOB.86

009951 MSMMMOB.54                       V     C        17:59:31:06 17:59:34:08 01:50:56:00 01:50:59:02
* FROM CLIP NAME:  A090C017_190820_R32C 
* SOURCE FILE: MSMMMOB.54

009954 MSMMMOB.35                       V     C        18:10:07:01 18:10:09:02 01:50:59:02 01:51:01:03
* FROM CLIP NAME:  A091C001_190820_R32C 
* SOURCE FILE: MSMMMOB.35

009959 MSMMMOB.86                       V     C        18:04:35:02 18:04:36:23 01:51:01:03 01:51:03:00
* FROM CLIP NAME:  A090C018_190820_R32C 
* SOURCE FILE: MSMMMOB.86

009963 MSMMMOB.33                       V     C        17:29:40:00 17:29:43:01 01:51:03:00 01:51:06:01
* FROM CLIP NAME:  A090C010_190820_R32C 
* SOURCE FILE: MSMMMOB.33

009968 MSMMMOB.27                       V     C        10:47:02:21 10:47:04:12 01:51:06:01 01:51:07:17
* FROM CLIP NAME:  B030C007_190828_A1Y8 
* SOURCE FILE: MSMMMOB.27

009975 MSMMMOB.27                       V     C        10:47:06:00 10:47:08:03 01:51:07:17 01:51:09:20
* FROM CLIP NAME:  B030C007_190828_A1Y8 
* SOURCE FILE: MSMMMOB.27

009980 MSMMMOB.85                       V     C        11:26:00:11 11:26:01:09 01:51:09:20 01:51:10:18
* FROM CLIP NAME:  B030C012_190828_A1Y8 
* SOURCE FILE: MSMMMOB.85

009983 MSMMMOB.15                       V     C        14:03:32:11 14:03:33:22 01:51:10:18 01:51:12:04
* FROM CLIP NAME:  B032C002_190828_A1Y8 
* SOURCE FILE: MSMMMOB.15

009986 MSMMMOB.85                       V     C        11:26:57:22 11:26:59:02 01:51:12:04 01:51:13:09
* FROM CLIP NAME:  B030C012_190828_A1Y8 
* SOURCE FILE: MSMMMOB.85

009989 MSMMMOB.15                       V     C        14:03:38:03 14:03:40:00 01:51:13:09 01:51:15:06
* FROM CLIP NAME:  B032C002_190828_A1Y8 
* SOURCE FILE: MSMMMOB.15

009992 MSMMMOB.15                       V     C        14:03:51:17 14:03:53:02 01:51:15:06 01:51:16:16
* FROM CLIP NAME:  B032C002_190828_A1Y8 
* SOURCE FILE: MSMMMOB.15

009995 MSMMMOB.15                       V     C        14:03:55:07 14:03:56:18 01:51:16:16 01:51:18:02
* FROM CLIP NAME:  B032C002_190828_A1Y8 
* SOURCE FILE: MSMMMOB.15

009998 MSMMMOB.74                       V     C        11:04:20:21 11:04:24:11 01:51:18:02 01:51:21:17
* FROM CLIP NAME:  B030C010_190828_A1Y8 
* SOURCE FILE: MSMMMOB.74

010001 MSMMMOB.74                       V     C        11:04:28:15 11:04:30:12 01:51:21:17 01:51:23:14
* FROM CLIP NAME:  B030C010_190828_A1Y8 
* SOURCE FILE: MSMMMOB.74

010004 MSMMMOB.81                       V     C        11:02:04:07 11:02:05:19 01:51:23:14 01:51:25:01
* FROM CLIP NAME:  B030C009_190828_A1Y8 
* SOURCE FILE: MSMMMOB.81

010009 MSMMMOB.74                       V     C        11:04:33:16 11:04:35:20 01:51:25:01 01:51:27:05
* FROM CLIP NAME:  B030C010_190828_A1Y8 
* SOURCE FILE: MSMMMOB.74

010012 MSMMMOB.27                       V     C        17:32:14:12 17:32:16:20 01:51:27:05 01:51:29:13
* FROM CLIP NAME:  A090C012_190820_R32C 
* SOURCE FILE: MSMMMOB.27

010021 MSMMMOB.17                       V     C        17:31:05:14 17:31:07:14 01:51:29:13 01:51:31:13
* FROM CLIP NAME:  A090C011_190820_R32C 
* SOURCE FILE: MSMMMOB.17

010027 MSMMMOB.14                       V     C        17:44:49:15 17:44:55:20 01:51:31:13 01:51:37:18
* FROM CLIP NAME:  A090C016_190820_R32C 
* SOURCE FILE: MSMMMOB.14

010033 BL                               V     C        00:00:00:00 00:00:04:09 01:51:33:09 01:51:37:18
* SOURCE FILE: (NULL)

010040 BL                               V     C        00:00:00:00 00:00:02:17 01:51:37:18 01:51:40:10
* SOURCE FILE: (NULL)

010041 MSMMMOB.27                       V     C        17:32:22:17 17:32:26:01 01:51:37:18 01:51:41:02
* FROM CLIP NAME:  A090C012_190820_R32C 
* SOURCE FILE: MSMMMOB.27

010050 BL                               V     C        00:00:00:00 00:00:02:16 01:51:40:10 01:51:43:01
* SOURCE FILE: (NULL)

010055 MSMMMOB.65                       V     C        17:43:39:10 17:43:41:09 01:51:41:02 01:51:43:01
* FROM CLIP NAME:  A090C015_190820_R32C 
* SOURCE FILE: MSMMMOB.65

010060 MSMMMOB.27                       V     C        17:32:32:22 17:32:34:09 01:51:43:01 01:51:44:13
* FROM CLIP NAME:  A090C012_190820_R32C 
* SOURCE FILE: MSMMMOB.27

010063 BL                               V     C        00:00:00:00 00:00:12:09 01:51:43:01 01:51:55:10
* SOURCE FILE: (NULL)

010073 MSMMMOB.75                       V     C        17:38:04:23 17:38:08:11 01:51:44:13 01:51:48:01
* FROM CLIP NAME:  A090C013_190820_R32C 
* SOURCE FILE: MSMMMOB.75

010083 MSMMMOB.62                       V     C        18:45:09:00 18:45:11:10 01:51:48:01 01:51:50:11
* FROM CLIP NAME:  A091C004_190820_R32C 
* SOURCE FILE: MSMMMOB.62

010089 MSMMMOB.62                       V     C        18:45:15:06 18:45:18:18 01:51:50:11 01:51:53:23
* FROM CLIP NAME:  A091C004_190820_R32C 
* SOURCE FILE: MSMMMOB.62

010093 MSMMMOB.66                       V     C        19:02:13:08 19:02:18:03 01:51:53:23 01:51:58:18
* FROM CLIP NAME:  A091C013_190820_R32C 
* SOURCE FILE: MSMMMOB.66

010097 BL                               V     C        00:00:00:00 00:00:03:08 01:51:55:10 01:51:58:18
* SOURCE FILE: (NULL)

010098 MSMMMOB.02                       V     C        18:52:24:21 18:52:26:19 01:51:58:18 01:52:00:16
* FROM CLIP NAME:  A091C008_190820_R32C 
* SOURCE FILE: MSMMMOB.02

010102 BL                               V     C        00:00:00:00 00:00:27:15 01:51:58:18 01:52:26:08
* SOURCE FILE: (NULL)

010103 MSMMMOB.84                       V     C        19:49:38:18 19:49:43:04 01:52:00:16 01:52:05:02
* FROM CLIP NAME:  A091C020_190820_R32C 
* SOURCE FILE: MSMMMOB.84

010107 MSMMMOB.16                       V     C        19:32:37:18 19:32:39:14 01:52:05:02 01:52:06:23
* FROM CLIP NAME:  A091C016_190820_R32C 
* SOURCE FILE: MSMMMOB.16

010111 MSMMMOB.03                       V     C        19:40:52:08 19:40:54:12 01:52:06:23 01:52:09:02
* FROM CLIP NAME:  A091C017_190820_R32C 
* SOURCE FILE: MSMMMOB.03

010115 MSMMMOB.03                       V     C        19:40:56:16 19:40:59:17 01:52:09:02 01:52:12:03
* FROM CLIP NAME:  A091C017_190820_R32C 
* SOURCE FILE: MSMMMOB.03

010119 MSMMMOB.18                       V     C        19:46:44:09 19:46:46:00 01:52:12:03 01:52:13:19
* FROM CLIP NAME:  A091C019_190820_R32C 
* SOURCE FILE: MSMMMOB.18

010123 MSMMMOB.18                       V     C        19:46:47:09 19:46:50:09 01:52:13:19 01:52:16:19
* FROM CLIP NAME:  A091C019_190820_R32C 
* SOURCE FILE: MSMMMOB.18

010131 MSMMMOB.18                       V     C        19:46:53:16 19:46:57:22 01:52:16:19 01:52:21:00
* FROM CLIP NAME:  A091C019_190820_R32C 
* SOURCE FILE: MSMMMOB.18

010130 GLDR-APN-280_V01                 V     C        00:00:00:00 00:00:04:06 01:52:16:19 01:52:21:00
* FROM CLIP NAME:  GLDR-APN-280_V01 
* SOURCE FILE: GLDR-APN-280_V01

010139 MSMMMOB.14                       V     C        17:24:09:05 17:24:37:21 01:52:21:00 01:52:49:16
* FROM CLIP NAME:  A067C001_190812_R32C 
* SOURCE FILE: MSMMMOB.14

010140 BL                               V     C        00:00:00:00 00:01:07:22 01:52:21:00 01:53:28:22
* SOURCE FILE: (NULL)

010141 BL                               V     C        00:00:00:00 00:00:05:04 01:52:26:08 01:52:31:12
* SOURCE FILE: (NULL)

010142 TITLE.01                         V     C        01:00:17:23 01:00:21:23 01:52:27:06 01:52:31:06
* FROM CLIP NAME:  TITLE.01 
* SOURCE FILE: TITLE.01

010143 BL                               V     C        00:00:00:00 00:03:12:00 01:52:31:06 01:55:43:06
* SOURCE FILE: (NULL)

010144 BL                               V     C        00:00:00:00 00:01:01:23 01:52:31:12 01:53:33:10
* SOURCE FILE: (NULL)

010149 MSMMMOB.21                       V     C        18:15:00:02 18:15:03:13 01:52:49:16 01:52:53:02
* FROM CLIP NAME:  A067C009_190812_R32C 
* SOURCE FILE: MSMMMOB.21

010170 MSMMMOB.14                       V     C        17:24:41:17 17:24:47:07 01:52:53:02 01:52:58:17
* FROM CLIP NAME:  A067C001_190812_R32C 
* SOURCE FILE: MSMMMOB.14

010171 MSMMMOB.21                       V     C        18:15:08:16 18:15:10:15 01:52:58:17 01:53:00:16
* FROM CLIP NAME:  A067C009_190812_R32C 
* SOURCE FILE: MSMMMOB.21

010180 MSMMMOB.14                       V     C        17:24:49:02 17:24:51:17 01:53:00:16 01:53:03:06
* FROM CLIP NAME:  A067C001_190812_R32C 
* SOURCE FILE: MSMMMOB.14

010189 MSMMMOB.21                       V     C        18:15:12:15 18:15:19:07 01:53:03:06 01:53:09:23
* FROM CLIP NAME:  A067C009_190812_R32C 
* SOURCE FILE: MSMMMOB.21

010197 MSMMMOB.32                       V     C        17:41:35:20 17:41:47:21 01:53:09:23 01:53:22:00
* FROM CLIP NAME:  A067C003_190812_R32C 
* SOURCE FILE: MSMMMOB.32

010201 MSMMMOB.15                       V     C        17:55:50:01 17:55:53:18 01:53:22:00 01:53:25:16
* FROM CLIP NAME:  A067C006_190812_R32C 
* SOURCE FILE: MSMMMOB.15

010205 MSMMMOB.32                       V     C        17:41:50:06 17:41:53:12 01:53:25:16 01:53:28:22
* FROM CLIP NAME:  A067C003_190812_R32C 
* SOURCE FILE: MSMMMOB.32

010211 MSMMMOB.18                       V     C        19:47:16:01 19:47:18:14 01:53:28:22 01:53:31:10
* FROM CLIP NAME:  A091C019_190820_R32C 
* SOURCE FILE: MSMMMOB.18

010212 GLDR-APN-290_V01                 V     C        00:00:00:00 00:00:02:13 01:53:28:22 01:53:31:10
* FROM CLIP NAME:  GLDR-APN-290_V01 
* SOURCE FILE: GLDR-APN-290_V01

010216 CINEMASCOPE_2-35-1_CROPLINES.PNG V     C        01:00:00:00 01:03:06:15 01:53:28:22 01:56:35:12
* FROM CLIP NAME:  CINEMASCOPE 2-35-1 CROPLINES.PNG 
* SOURCE FILE: CINEMASCOPE 2-35-1 CROPLINES.PNG

010219 MSMMMOB.43                       V     C        19:55:01:22 19:55:03:22 01:53:31:10 01:53:33:10
* FROM CLIP NAME:  A092C001_190820_R32C 
* SOURCE FILE: MSMMMOB.43

010223 BL                               V     C        00:00:00:00 00:05:56:16 01:53:31:10 01:59:28:01
* SOURCE FILE: (NULL)

010224 BL                               V     C        00:00:00:00 00:00:02:03 01:53:33:10 01:53:35:13
* SOURCE FILE: (NULL)

010225 DSC00131.JPG                     V     C        01:00:00:00 01:00:02:03 01:53:33:10 01:53:35:13
* FROM CLIP NAME:  DSC00131.JPG 
* SOURCE FILE: DSC00131.JPG

010226 MSMMMOB.43                       V     C        19:55:04:10 19:55:07:12 01:53:35:13 01:53:38:15
* FROM CLIP NAME:  A092C001_190820_R32C 
* SOURCE FILE: MSMMMOB.43

010230 BL                               V     C        00:00:00:00 00:02:07:18 01:53:35:13 01:55:43:06
* SOURCE FILE: (NULL)

010233 A016C006_190728_R32C             V     C        19:10:31:04 19:10:34:11 01:53:38:15 01:53:41:22
* FROM CLIP NAME:  A016C006_190728_R32C.NEW.01 
* SOURCE FILE: A016C006_190728_R32C

010246 A016C003_190728_R32C             V     C        18:51:45:16 18:51:51:21 01:53:41:22 01:53:48:02
* FROM CLIP NAME:  A016C003_190728_R32C.NEW.01 
* SOURCE FILE: A016C003_190728_R32C

010259 A016C006_190728_R32C             V     C        19:10:33:20 19:10:38:17 01:53:48:02 01:53:53:00
* FROM CLIP NAME:  A016C006_190728_R32C.NEW.01 
* SOURCE FILE: A016C006_190728_R32C

010284 A017C002_190728_R32C             V     C        20:02:08:06 20:02:09:13 01:53:53:00 01:53:54:06
* FROM CLIP NAME:  A017C002_190728_R32C.NEW.01 
* SOURCE FILE: A017C002_190728_R32C

010293 A016C006_190728_R32C             V     C        19:10:39:12 19:10:41:01 01:53:54:06 01:53:55:20
* FROM CLIP NAME:  A016C006_190728_R32C.NEW.01 
* SOURCE FILE: A016C006_190728_R32C

010312 A016C003_190728_R32C             V     C        18:52:10:05 18:52:12:02 01:53:55:20 01:53:57:17
* FROM CLIP NAME:  A016C003_190728_R32C.NEW.01 
* SOURCE FILE: A016C003_190728_R32C

010331 A017C002_190728_R32C             V     C        20:02:14:19 20:02:17:01 01:53:57:17 01:54:00:00
* FROM CLIP NAME:  A017C002_190728_R32C.NEW.01 
* SOURCE FILE: A017C002_190728_R32C

010338 A016C011_190728_R32C             V     C        19:36:09:09 19:36:11:18 01:54:00:00 01:54:02:08
* FROM CLIP NAME:  A016C011_190728_R32C.NEW.01 
* SOURCE FILE: A016C011_190728_R32C

010339 A017C003_190728_R32C             V     C        20:06:42:20 20:06:46:04 01:54:02:08 01:54:05:17
* FROM CLIP NAME:  A017C003_190728_R32C.NEW.01 
* SOURCE FILE: A017C003_190728_R32C

010350 A016C006_190728_R32C             V     C        19:11:00:02 19:11:01:18 01:54:05:17 01:54:07:08
* FROM CLIP NAME:  A016C006_190728_R32C.NEW.01 
* SOURCE FILE: A016C006_190728_R32C

010357 A017C003_190728_R32C             V     C        20:06:49:02 20:06:50:19 01:54:07:08 01:54:09:00
* FROM CLIP NAME:  A017C003_190728_R32C.NEW.01 
* SOURCE FILE: A017C003_190728_R32C

010360 A016C011_190728_R32C             V     C        19:36:17:16 19:36:21:09 01:54:09:00 01:54:12:18
* FROM CLIP NAME:  A016C011_190728_R32C.NEW.01 
* SOURCE FILE: A016C011_190728_R32C

010373 A017C005_190728_R32C             V     C        20:35:32:11 20:35:34:10 01:54:12:18 01:54:14:17
* FROM CLIP NAME:  A017C005_190728_R32C.NEW.01 
* SOURCE FILE: A017C005_190728_R32C

010379 A016C006_190728_R32C             V     C        19:11:19:00 19:11:26:15 01:54:14:17 01:54:22:07
* FROM CLIP NAME:  A016C006_190728_R32C.NEW.01 
* SOURCE FILE: A016C006_190728_R32C

010386 A017C007_190728_R32C             V     C        20:42:34:00 20:42:38:03 01:54:22:07 01:54:26:10
* FROM CLIP NAME:  A017C007_190728_R32C.NEW.01 
* SOURCE FILE: A017C007_190728_R32C

010397 A016C006_190728_R32C             V     C        19:11:29:15 19:11:35:15 01:54:26:10 01:54:32:10
* FROM CLIP NAME:  A016C006_190728_R32C.NEW.01 
* SOURCE FILE: A016C006_190728_R32C

010421 A016C003_190728_R32C             V     C        18:53:05:14 18:53:09:19 01:54:32:10 01:54:36:15
* FROM CLIP NAME:  A016C003_190728_R32C.NEW.01 
* SOURCE FILE: A016C003_190728_R32C

010428 A016C009_190728_R32C             V     C        19:22:23:02 19:22:27:09 01:54:36:15 01:54:40:22
* FROM CLIP NAME:  A016C009_190728_R32C.NEW.01 
* SOURCE FILE: A016C009_190728_R32C

010437 A017C007_190728_R32C             V     C        20:42:48:21 20:42:51:22 01:54:40:22 01:54:43:23
* FROM CLIP NAME:  A017C007_190728_R32C.NEW.01 
* SOURCE FILE: A017C007_190728_R32C

010438 A016C009_190728_R32C             V     C        19:22:30:10 19:22:33:01 01:54:43:23 01:54:46:14
* FROM CLIP NAME:  A016C009_190728_R32C.NEW.01 
* SOURCE FILE: A016C009_190728_R32C

010439 A017C007_190728_R32C             V     C        20:42:53:01 20:42:58:12 01:54:46:14 01:54:52:00
* FROM CLIP NAME:  A017C007_190728_R32C.NEW.01 
* SOURCE FILE: A017C007_190728_R32C

010463 A016C009_190728_R32C             V     C        19:22:38:21 19:22:41:00 01:54:52:00 01:54:54:03
* FROM CLIP NAME:  A016C009_190728_R32C.NEW.01 
* SOURCE FILE: A016C009_190728_R32C

010470 A017C007_190728_R32C             V     C        20:43:00:18 20:43:03:19 01:54:54:03 01:54:57:04
* FROM CLIP NAME:  A017C007_190728_R32C.NEW.01 
* SOURCE FILE: A017C007_190728_R32C

010484 A016C009_190728_R32C             V     C        19:22:42:11 19:22:46:06 01:54:57:04 01:55:01:00
* FROM CLIP NAME:  A016C009_190728_R32C.NEW.01 
* SOURCE FILE: A016C009_190728_R32C

010499 A016C003_190728_R32C             V     C        18:53:35:20 18:53:37:15 01:55:01:00 01:55:02:19
* FROM CLIP NAME:  A016C003_190728_R32C.NEW.01 
* SOURCE FILE: A016C003_190728_R32C

010506 A016C006_190728_R32C             V     C        19:12:05:06 19:12:07:03 01:55:02:19 01:55:04:16
* FROM CLIP NAME:  A016C006_190728_R32C.NEW.01 
* SOURCE FILE: A016C006_190728_R32C

010507 A017C007_190728_R32C             V     C        20:43:10:05 20:43:13:16 01:55:04:16 01:55:08:02
* FROM CLIP NAME:  A017C007_190728_R32C.NEW.01 
* SOURCE FILE: A017C007_190728_R32C

010513 A016C009_190728_R32C             V     C        19:22:54:13 19:23:01:16 01:55:08:02 01:55:15:05
* FROM CLIP NAME:  A016C009_190728_R32C.NEW.01 
* SOURCE FILE: A016C009_190728_R32C

010528 A017C007_190728_R32C             V     C        20:43:19:01 20:43:21:05 01:55:15:05 01:55:17:09
* FROM CLIP NAME:  A017C007_190728_R32C.NEW.01 
* SOURCE FILE: A017C007_190728_R32C

010531 A016C009_190728_R32C             V     C        19:23:03:20 19:23:06:17 01:55:17:09 01:55:20:06
* FROM CLIP NAME:  A016C009_190728_R32C.NEW.01 
* SOURCE FILE: A016C009_190728_R32C

010538 A016C003_190728_R32C             V     C        18:53:54:23 18:53:57:08 01:55:20:06 01:55:22:16
* FROM CLIP NAME:  A016C003_190728_R32C.NEW.01 
* SOURCE FILE: A016C003_190728_R32C

010545 A017C003_190728_R32C             V     C        20:08:14:01 20:08:16:12 01:55:22:16 01:55:25:02
* FROM CLIP NAME:  A017C003_190728_R32C.NEW.01 
* SOURCE FILE: A017C003_190728_R32C

010552 MSMMMOB.30                       V     C        19:02:22:05 19:02:31:11 01:55:25:02 01:55:34:08
* FROM CLIP NAME:  A067C012_190812_R32C 
* SOURCE FILE: MSMMMOB.30

010557 MSMMMOB.05                       V     C        19:20:51:14 19:20:57:15 01:55:34:08 01:55:40:09
* FROM CLIP NAME:  A068C001_190812_R32C 
* SOURCE FILE: MSMMMOB.05

010568 MSMMMOB.30                       V     C        19:02:37:13 19:02:45:06 01:55:40:09 01:55:48:02
* FROM CLIP NAME:  A067C012_190812_R32C 
* SOURCE FILE: MSMMMOB.30

010574 TITLE.01                         V     C        01:00:17:23 01:00:21:10 01:55:43:06 01:55:46:18
* FROM CLIP NAME:  TITLE.01 
* SOURCE FILE: TITLE.01

010573 BL                               V     C        00:00:00:00 00:00:03:12 01:55:43:06 01:55:46:18
* SOURCE FILE: (NULL)

010581 BL                               V     C        00:00:00:00 00:00:46:09 01:55:46:18 01:56:33:02
* SOURCE FILE: (NULL)

010582 BL                               V     C        00:00:00:00 00:07:11:03 01:55:46:18 02:02:57:21
* SOURCE FILE: (NULL)

010583 MSMMMOB.05                       V     C        19:21:12:18 19:21:16:04 01:55:48:02 01:55:51:13
* FROM CLIP NAME:  A068C001_190812_R32C 
* SOURCE FILE: MSMMMOB.05

010590 MSMMMOB.30                       V     C        19:02:53:03 19:02:57:05 01:55:51:13 01:55:55:15
* FROM CLIP NAME:  A067C012_190812_R32C 
* SOURCE FILE: MSMMMOB.30

010597 MSMMMOB.05                       V     C        19:21:26:09 19:21:31:12 01:55:55:15 01:56:00:18
* FROM CLIP NAME:  A068C001_190812_R32C 
* SOURCE FILE: MSMMMOB.05

010604 MSMMMOB.01                       V     C        18:53:18:13 18:53:20:18 01:56:00:18 01:56:02:23
* FROM CLIP NAME:  A067C010_190812_R32C 
* SOURCE FILE: MSMMMOB.01

010609 MSMMMOB.43                       V     C        19:27:50:19 19:27:57:02 01:56:02:23 01:56:09:06
* FROM CLIP NAME:  A068C002_190812_R32C 
* SOURCE FILE: MSMMMOB.43

010613 MSMMMOB.08                       V     C        19:55:25:11 19:55:37:14 01:56:09:06 01:56:21:09
* FROM CLIP NAME:  A027C012_190801_R32C 
* SOURCE FILE: MSMMMOB.08

010631 MSMMMOB.15                       V     C        20:23:25:19 20:23:28:03 01:56:21:09 01:56:23:18
* FROM CLIP NAME:  A027C017_190801_R32C 
* SOURCE FILE: MSMMMOB.15

010645 MSMMMOB.08                       V     C        19:55:38:13 19:55:40:21 01:56:23:18 01:56:26:01
* FROM CLIP NAME:  A027C012_190801_R32C 
* SOURCE FILE: MSMMMOB.08

010653 MSMMMOB.15                       V     C        20:23:29:14 20:23:31:07 01:56:26:01 01:56:27:19
* FROM CLIP NAME:  A027C017_190801_R32C 
* SOURCE FILE: MSMMMOB.15

010668 MSMMMOB.44                       V     C        20:09:56:07 20:10:04:00 01:56:27:19 01:56:35:12
* FROM CLIP NAME:  A027C015_190801_R32C 
* SOURCE FILE: MSMMMOB.44

010688 BL                               V     C        00:00:00:00 00:00:01:01 01:56:33:02 01:56:34:03
* SOURCE FILE: (NULL)

010696 BL                               V     C        00:00:00:00 00:03:40:11 01:56:34:03 02:00:14:14
* SOURCE FILE: (NULL)

010697 MSMMMOB.65                       V     C        21:30:18:08 21:30:49:22 01:56:35:12 01:57:07:01
* FROM CLIP NAME:  A028C006_190801_R32C 
* SOURCE FILE: MSMMMOB.65

010707 CINEMASCOPE_2-35-1_CROPLINES.PNG V     C        01:00:00:00 01:00:40:04 01:56:35:12 01:57:15:16
* FROM CLIP NAME:  CINEMASCOPE 2-35-1 CROPLINES.PNG 
* SOURCE FILE: CINEMASCOPE 2-35-1 CROPLINES.PNG

010708 BL                               V     C        00:00:00:00 00:03:09:22 01:56:35:12 01:59:45:09
* SOURCE FILE: (NULL)

010711 BL                               V     C        00:00:00:00 00:00:03:20 01:56:45:14 01:56:49:09
* SOURCE FILE: (NULL)

010712 BL                               V     C        00:00:00:00 00:00:10:16 01:56:49:09 01:57:00:00
* SOURCE FILE: (NULL)

010715 TITLE.01                         V     C        01:00:43:06 01:00:45:05 01:57:00:00 01:57:02:00
* FROM CLIP NAME:  TITLE.01 
* SOURCE FILE: TITLE.01

010716 BL                               V     C        00:00:00:00 00:00:03:20 01:57:00:00 01:57:03:20
* SOURCE FILE: (NULL)

010717 BL                               V     C        00:00:00:00 00:00:16:12 01:57:02:00 01:57:18:11
* SOURCE FILE: (NULL)

010718 BL                               V     C        00:00:00:00 00:30:10:06 01:57:03:20 02:27:14:01
* SOURCE FILE: (NULL)

010725 MSMMMOB.19                       V     C        22:13:49:09 22:13:58:00 01:57:07:01 01:57:15:16
* FROM CLIP NAME:  A028C010_190801_R32C 
* SOURCE FILE: MSMMMOB.19

010739 MSMMMOB.43                       V     C        15:20:48:14 15:20:53:19 01:57:15:16 01:57:20:21
* FROM CLIP NAME:  A002C015_191124_R481 
* SOURCE FILE: MSMMMOB.43

010743 CINEMASCOPE_2-35-1_CROPLINES.PNG V     C        01:00:46:12 01:00:54:05 01:57:15:16 01:57:23:09
* FROM CLIP NAME:  CINEMASCOPE 2-35-1 CROPLINES.PNG 
* SOURCE FILE: CINEMASCOPE 2-35-1 CROPLINES.PNG

010744 BL                               V     C        00:00:00:00 00:00:02:10 01:57:18:11 01:57:20:21
* SOURCE FILE: (NULL)

010745 MSMMMOB.01                       V     C        22:30:12:19 22:30:15:07 01:57:20:21 01:57:23:09
* FROM CLIP NAME:  A028C013_190801_R32C 
* SOURCE FILE: MSMMMOB.01

010757 BL                               V     C        00:00:00:00 00:00:11:07 01:57:20:21 01:57:32:03
* SOURCE FILE: (NULL)

010758 MSMMMOB.43                       V     C        15:20:59:00 15:21:03:08 01:57:23:09 01:57:27:17
* FROM CLIP NAME:  A002C015_191124_R481 
* SOURCE FILE: MSMMMOB.43

010759 CINEMASCOPE_2-35-1_CROPLINES.PNG V     C        01:00:55:10 01:00:59:18 01:57:23:09 01:57:27:17
* FROM CLIP NAME:  CINEMASCOPE 2-35-1 CROPLINES.PNG 
* SOURCE FILE: CINEMASCOPE 2-35-1 CROPLINES.PNG

010769 MSMMMOB.01                       V     C        22:30:16:11 22:30:19:08 01:57:27:17 01:57:30:14
* FROM CLIP NAME:  A028C013_190801_R32C 
* SOURCE FILE: MSMMMOB.01

010772 CINEMASCOPE_2-35-1_CROPLINES.PNG V     C        01:01:00:08 01:01:06:06 01:57:27:17 01:57:33:15
* FROM CLIP NAME:  CINEMASCOPE 2-35-1 CROPLINES.PNG 
* SOURCE FILE: CINEMASCOPE 2-35-1 CROPLINES.PNG

010782 MSMMMOB.43                       V     C        15:21:16:19 15:21:19:20 01:57:30:14 01:57:33:15
* FROM CLIP NAME:  A002C015_191124_R481 
* SOURCE FILE: MSMMMOB.43

010786 BL                               V     C        00:00:00:00 00:00:01:12 01:57:32:03 01:57:33:15
* SOURCE FILE: (NULL)

010793 MSMMMOB.01                       V     C        22:30:23:13 22:30:32:20 01:57:33:15 01:57:42:22
* FROM CLIP NAME:  A028C013_190801_R32C 
* SOURCE FILE: MSMMMOB.01

010796 BL                               V     C        00:00:00:00 00:00:15:20 01:57:33:15 01:57:49:10
* SOURCE FILE: (NULL)

010797 CINEMASCOPE_2-35-1_CROPLINES.PNG V     C        01:01:06:14 01:01:24:00 01:57:33:15 01:57:51:01
* FROM CLIP NAME:  CINEMASCOPE 2-35-1 CROPLINES.PNG 
* SOURCE FILE: CINEMASCOPE 2-35-1 CROPLINES.PNG

010807 MSMMMOB.43                       V     C        15:21:28:04 15:21:36:08 01:57:42:22 01:57:51:01
* FROM CLIP NAME:  A002C015_191124_R481 
* SOURCE FILE: MSMMMOB.43

010808 BL                               V     C        00:00:00:00 00:00:01:16 01:57:49:10 01:57:51:01
* SOURCE FILE: (NULL)

010809 MSMMMOB.01                       V     C        22:30:34:18 22:30:50:21 01:57:51:01 01:58:07:04
* FROM CLIP NAME:  A028C013_190801_R32C 
* SOURCE FILE: MSMMMOB.01

010810 CINEMASCOPE_2-35-1_CROPLINES.PNG V     C        01:01:23:03 01:03:17:11 01:57:51:01 01:59:45:09
* FROM CLIP NAME:  CINEMASCOPE 2-35-1 CROPLINES.PNG 
* SOURCE FILE: CINEMASCOPE 2-35-1 CROPLINES.PNG

010811 BL                               V     C        00:00:00:00 00:29:23:00 01:57:51:01 02:27:14:01
* SOURCE FILE: (NULL)

010825 MSMMMOB.31                       V     C        16:42:12:13 16:42:18:00 01:58:07:04 01:58:12:16
* FROM CLIP NAME:  A064C006_190811_R32C 
* SOURCE FILE: MSMMMOB.31

010835 MSMMMOB.34                       V     C        14:22:19:20 14:22:27:03 01:58:12:16 01:58:20:00
* FROM CLIP NAME:  B012C003_190811_R481 
* SOURCE FILE: MSMMMOB.34

010836 MSMMMOB.49                       V     C        15:18:07:16 15:18:11:00 01:58:20:00 01:58:23:07
* FROM CLIP NAME:  B013C002_190811_R481 
* SOURCE FILE: MSMMMOB.49

010848 MSMMMOB.32                       V     C        14:47:35:08 14:47:43:05 01:58:23:07 01:58:31:04
* FROM CLIP NAME:  B012C005_190811_R481 
* SOURCE FILE: MSMMMOB.32

010858 MSMMMOB.21                       V     C        15:18:18:23 15:18:22:17 01:58:31:04 01:58:34:23
* FROM CLIP NAME:  A064C002_190811_R32C 
* SOURCE FILE: MSMMMOB.21

010866 MSMMMOB.67                       V     C        14:47:48:04 14:47:55:05 01:58:34:23 01:58:42:00
* FROM CLIP NAME:  A063C012_190811_R32C 
* SOURCE FILE: MSMMMOB.67

010874 MSMMMOB.32                       V     C        14:47:55:05 14:48:00:01 01:58:42:00 01:58:46:20
* FROM CLIP NAME:  B012C005_190811_R481 
* SOURCE FILE: MSMMMOB.32

010875 MSMMMOB.49                       V     C        15:18:35:11 15:18:41:10 01:58:46:20 01:58:52:19
* FROM CLIP NAME:  B013C002_190811_R481 
* SOURCE FILE: MSMMMOB.49

010883 MSMMMOB.80                       V     C        14:43:17:17 14:43:23:20 01:58:52:19 01:58:58:22
* FROM CLIP NAME:  B012C004_190811_R481 
* SOURCE FILE: MSMMMOB.80

010900 MSMMMOB.77                       V     C        17:17:51:17 17:17:57:02 01:58:58:22 01:59:04:07
* FROM CLIP NAME:  A064C008_190811_R32C 
* SOURCE FILE: MSMMMOB.77

010915 MSMMMOB.67                       V     C        14:48:34:00 14:48:36:06 01:59:04:07 01:59:06:14
* FROM CLIP NAME:  A063C012_190811_R32C 
* SOURCE FILE: MSMMMOB.67

010916 MSMMMOB.21                       V     C        15:19:07:16 15:19:10:07 01:59:06:14 01:59:09:05
* FROM CLIP NAME:  A064C002_190811_R32C 
* SOURCE FILE: MSMMMOB.21

010930 MSMMMOB.32                       V     C        14:48:38:22 14:48:39:21 01:59:09:05 01:59:10:04
* FROM CLIP NAME:  B012C005_190811_R481 
* SOURCE FILE: MSMMMOB.32

010938 MSMMMOB.77                       V     C        17:18:02:18 17:18:04:15 01:59:10:04 01:59:12:01
* FROM CLIP NAME:  A064C008_190811_R32C 
* SOURCE FILE: MSMMMOB.77

010953 MSMMMOB.67                       V     C        14:48:42:08 14:48:45:23 01:59:12:01 01:59:15:16
* FROM CLIP NAME:  A063C012_190811_R32C 
* SOURCE FILE: MSMMMOB.67

010961 MSMMMOB.35                       V     C        17:31:00:00 17:31:02:18 01:59:15:16 01:59:18:09
* FROM CLIP NAME:  B013C008_190811_R481 
* SOURCE FILE: MSMMMOB.35

010976 MSMMMOB.67                       V     C        14:48:49:11 14:48:52:14 01:59:18:09 01:59:21:12
* FROM CLIP NAME:  A063C012_190811_R32C 
* SOURCE FILE: MSMMMOB.67

010984 MSMMMOB.35                       V     C        17:31:05:10 17:31:07:20 01:59:21:12 01:59:23:22
* FROM CLIP NAME:  B013C008_190811_R481 
* SOURCE FILE: MSMMMOB.35

010991 MSMMMOB.67                       V     C        14:48:57:05 14:48:58:17 01:59:23:22 01:59:25:09
* FROM CLIP NAME:  A063C012_190811_R32C 
* SOURCE FILE: MSMMMOB.67

010999 MSMMMOB.73                       V     C        17:27:20:19 17:27:23:11 01:59:25:09 01:59:28:01
* FROM CLIP NAME:  B013C006_190811_R481 
* SOURCE FILE: MSMMMOB.73

011000 GLDR-APN-390_COMP_V001           V     C        00:00:00:00 00:00:02:10 01:59:28:01 01:59:30:11
* FROM CLIP NAME:  GLDR-APN-390_COMP_V001 
* SOURCE FILE: GLDR-APN-390_COMP_V001

011001 MSMMMOB.15                       V     C        17:27:23:11 17:27:25:21 01:59:28:01 01:59:30:11
* FROM CLIP NAME:  A064C010_190811_R32C 
* SOURCE FILE: MSMMMOB.15

011009 BL                               V     C        00:00:00:00 00:00:03:00 01:59:30:11 01:59:33:10
* SOURCE FILE: (NULL)

011010 MSMMMOB.67                       V     C        14:49:04:05 14:49:07:04 01:59:30:11 01:59:33:10
* FROM CLIP NAME:  A063C012_190811_R32C 
* SOURCE FILE: MSMMMOB.67

011019 MSMMMOB.15                       V     C        17:27:30:02 17:27:31:05 01:59:33:10 01:59:34:13
* FROM CLIP NAME:  A064C010_190811_R32C 
* SOURCE FILE: MSMMMOB.15

011018 GLDR-APN-400_COMP_V001           V     C        00:00:00:00 00:00:01:03 01:59:33:10 01:59:34:13
* FROM CLIP NAME:  GLDR-APN-400_COMP_V001 
* SOURCE FILE: GLDR-APN-400_COMP_V001

011022 MSMMMOB.67                       V     C        14:49:08:18 14:49:10:06 01:59:34:13 01:59:36:01
* FROM CLIP NAME:  A063C012_190811_R32C 
* SOURCE FILE: MSMMMOB.67

011030 BL                               V     C        00:00:00:00 00:01:20:07 01:59:34:13 02:00:54:20
* SOURCE FILE: (NULL)

011031 MSMMMOB.35                       V     C        17:31:22:13 17:31:24:09 01:59:36:01 01:59:37:22
* FROM CLIP NAME:  B013C008_190811_R481 
* SOURCE FILE: MSMMMOB.35

011039 MSMMMOB.49                       V     C        15:19:41:19 15:19:44:00 01:59:37:22 01:59:40:02
* FROM CLIP NAME:  B013C002_190811_R481 
* SOURCE FILE: MSMMMOB.49

011047 MSMMMOB.73                       V     C        17:27:37:06 17:27:39:10 01:59:40:02 01:59:42:06
* FROM CLIP NAME:  B013C006_190811_R481 
* SOURCE FILE: MSMMMOB.73

011049 MSMMMOB.21                       V     C        15:19:46:04 15:19:49:07 01:59:42:06 01:59:45:09
* FROM CLIP NAME:  A064C002_190811_R32C 
* SOURCE FILE: MSMMMOB.21

011057 MSMMMOB.32                       V     C        14:49:24:00 14:49:27:19 01:59:45:09 01:59:49:03
* FROM CLIP NAME:  B012C005_190811_R481 
* SOURCE FILE: MSMMMOB.32

011064 CINEMASCOPE_2-35-1_CROPLINES.PNG V     C        01:00:00:00 01:02:22:04 01:59:45:09 02:02:07:13
* FROM CLIP NAME:  CINEMASCOPE 2-35-1 CROPLINES.PNG 
* SOURCE FILE: CINEMASCOPE 2-35-1 CROPLINES.PNG

011065 BL                               V     C        00:00:00:00 00:27:28:17 01:59:45:09 02:27:14:01
* SOURCE FILE: (NULL)

011073 MSMMMOB.69                       V     C        18:35:21:20 18:35:23:22 01:59:49:03 01:59:51:05
* FROM CLIP NAME:  A065C003_190811_R32C 
* SOURCE FILE: MSMMMOB.69

011081 MSMMMOB.77                       V     C        17:18:50:00 17:18:51:10 01:59:51:05 01:59:52:15
* FROM CLIP NAME:  A064C008_190811_R32C 
* SOURCE FILE: MSMMMOB.77

011082 MSMMMOB.44                       V     C        19:20:49:17 19:20:53:16 01:59:52:15 01:59:56:14
* FROM CLIP NAME:  A065C009_190811_R32C 
* SOURCE FILE: MSMMMOB.44

011083 MSMMMOB.57                       V     C        18:23:18:10 18:23:21:06 01:59:56:14 01:59:59:10
* FROM CLIP NAME:  B014C003_190811_R481 
* SOURCE FILE: MSMMMOB.57

011084 MSMMMOB.61                       V     C        18:50:06:03 18:50:08:00 01:59:59:10 02:00:01:06
* FROM CLIP NAME:  B014C008_190811_R481 
* SOURCE FILE: MSMMMOB.61

011085 MSMMMOB.07                       V     C        18:23:22:01 18:23:25:12 02:00:01:06 02:00:04:17
* FROM CLIP NAME:  A065C002_190811_R32C 
* SOURCE FILE: MSMMMOB.07

011091 MSMMMOB.61                       V     C        18:50:11:06 18:50:15:08 02:00:04:17 02:00:08:19
* FROM CLIP NAME:  B014C008_190811_R481 
* SOURCE FILE: MSMMMOB.61

011092 MSMMMOB.39                       V     C        18:06:36:05 18:06:38:21 02:00:08:19 02:00:11:10
* FROM CLIP NAME:  B014C001_190811_R481 
* SOURCE FILE: MSMMMOB.39

011093 MSMMMOB.41                       V     C        19:32:21:00 19:32:22:12 02:00:11:10 02:00:12:23
* FROM CLIP NAME:  B015C004_190811_R481 
* SOURCE FILE: MSMMMOB.41

011094 MSMMMOB.45                       V     C        19:23:55:12 19:23:57:09 02:00:12:23 02:00:14:20
* FROM CLIP NAME:  B015C003_190811_R481 
* SOURCE FILE: MSMMMOB.45

011103 BL                               V     C        00:00:00:00 00:00:08:03 02:00:14:14 02:00:22:17
* SOURCE FILE: (NULL)

011106 MSMMMOB.07                       V     C        18:23:41:03 18:23:42:16 02:00:14:20 02:00:16:08
* FROM CLIP NAME:  A065C002_190811_R32C 
* SOURCE FILE: MSMMMOB.07

011110 MSMMMOB.61                       V     C        18:50:22:22 18:50:25:15 02:00:16:08 02:00:19:01
* FROM CLIP NAME:  B014C008_190811_R481 
* SOURCE FILE: MSMMMOB.61

011115 MSMMMOB.07                       V     C        18:23:48:04 18:23:51:20 02:00:19:01 02:00:22:17
* FROM CLIP NAME:  A065C002_190811_R32C 
* SOURCE FILE: MSMMMOB.07

011125 MSMMMOB.46                       V     C        18:50:29:06 18:50:34:20 02:00:22:17 02:00:28:06
* FROM CLIP NAME:  A065C007_190811_R32C 
* SOURCE FILE: MSMMMOB.46

011126 BL                               V     C        00:00:00:00 00:00:23:17 02:00:22:17 02:00:46:09
* SOURCE FILE: (NULL)

011137 MSMMMOB.61                       V     C        18:50:34:20 18:50:37:05 02:00:28:06 02:00:30:16
* FROM CLIP NAME:  B014C008_190811_R481 
* SOURCE FILE: MSMMMOB.61

011143 MSMMMOB.07                       V     C        18:24:03:13 18:24:07:05 02:00:30:16 02:00:34:08
* FROM CLIP NAME:  A065C002_190811_R32C 
* SOURCE FILE: MSMMMOB.07

011151 MSMMMOB.61                       V     C        18:50:40:22 18:50:43:22 02:00:34:08 02:00:37:08
* FROM CLIP NAME:  B014C008_190811_R481 
* SOURCE FILE: MSMMMOB.61

011158 MSMMMOB.54                       V     C        19:06:50:08 19:06:52:16 02:00:37:08 02:00:39:16
* FROM CLIP NAME:  A065C008_190811_R32C 
* SOURCE FILE: MSMMMOB.54

011163 MSMMMOB.46                       V     C        18:50:46:05 18:50:54:04 02:00:39:16 02:00:47:15
* FROM CLIP NAME:  A065C007_190811_R32C 
* SOURCE FILE: MSMMMOB.46

011178 BL                               V     C        00:00:00:00 00:00:53:00 02:00:46:09 02:01:39:09
* SOURCE FILE: (NULL)

011183 MSMMMOB.57                       V     C        18:24:18:00 18:24:20:10 02:00:47:15 02:00:50:00
* FROM CLIP NAME:  B014C003_190811_R481 
* SOURCE FILE: MSMMMOB.57

011192 MSMMMOB.07                       V     C        18:24:20:10 18:24:25:05 02:00:50:00 02:00:54:20
* FROM CLIP NAME:  A065C002_190811_R32C 
* SOURCE FILE: MSMMMOB.07

011200 MSMMMOB.65                       V     C        19:59:36:20 19:59:40:11 02:00:54:20 02:00:58:11
* FROM CLIP NAME:  B015C007_190811_R481 
* SOURCE FILE: MSMMMOB.65

011201 GLDR-APN-430_COMP_V001           V     C        00:00:00:00 00:00:03:16 02:00:54:20 02:00:58:11
* FROM CLIP NAME:  GLDR-APN-430_COMP_V001 
* SOURCE FILE: GLDR-APN-430_COMP_V001

011213 MSMMMOB.72                       V     C        22:14:35:15 22:14:40:07 02:00:58:11 02:01:03:03
* FROM CLIP NAME:  B017C008_190811_R481 
* SOURCE FILE: MSMMMOB.72

011214 BL                               V     C        00:00:00:00 00:00:19:10 02:00:58:11 02:01:17:21
* SOURCE FILE: (NULL)

011223 MSMMMOB.12                       V     C        22:05:58:00 22:06:00:23 02:01:03:03 02:01:06:01
* FROM CLIP NAME:  B017C005_190811_R481 
* SOURCE FILE: MSMMMOB.12

011224 MSMMMOB.72                       V     C        22:14:42:22 22:14:44:05 02:01:06:01 02:01:07:09
* FROM CLIP NAME:  B017C008_190811_R481 
* SOURCE FILE: MSMMMOB.72

011225 MSMMMOB.12                       V     C        22:06:03:00 22:06:06:06 02:01:07:09 02:01:10:16
* FROM CLIP NAME:  B017C005_190811_R481 
* SOURCE FILE: MSMMMOB.12

011232 MSMMMOB.72                       V     C        22:14:46:04 22:14:48:06 02:01:10:16 02:01:12:18
* FROM CLIP NAME:  B017C008_190811_R481 
* SOURCE FILE: MSMMMOB.72

011243 MSMMMOB.12                       V     C        22:06:08:04 22:06:09:08 02:01:12:18 02:01:13:22
* FROM CLIP NAME:  B017C005_190811_R481 
* SOURCE FILE: MSMMMOB.12

011256 MSMMMOB.02                       V     C        22:13:18:19 22:13:21:16 02:01:13:22 02:01:16:19
* FROM CLIP NAME:  B017C007_190811_R481 
* SOURCE FILE: MSMMMOB.02

011269 MSMMMOB.12                       V     C        22:06:11:12 22:06:12:14 02:01:16:19 02:01:17:21
* FROM CLIP NAME:  B017C005_190811_R481 
* SOURCE FILE: MSMMMOB.12

011276 MSMMMOB.65                       V     C        19:59:53:04 19:59:57:09 02:01:17:21 02:01:22:01
* FROM CLIP NAME:  B015C007_190811_R481 
* SOURCE FILE: MSMMMOB.65

011277 GLDR-APN-440_COMP_V001           V     C        00:00:00:00 00:00:04:05 02:01:17:21 02:01:22:01
* FROM CLIP NAME:  GLDR-APN-440_COMP_V001 
* SOURCE FILE: GLDR-APN-440_COMP_V001

011293 MSMMMOB.36                       V     C        19:40:57:12 19:41:01:08 02:01:22:01 02:01:25:22
* FROM CLIP NAME:  B015C005_190811_R481 
* SOURCE FILE: MSMMMOB.36

011292 BL                               V     C        00:00:00:00 00:00:03:21 02:01:22:01 02:01:25:22
* SOURCE FILE: (NULL)

011300 GLDR-APN-450_COMP_V001           V     C        00:00:00:00 00:00:02:22 02:01:25:22 02:01:28:19
* FROM CLIP NAME:  GLDR-APN-450_COMP_V001 
* SOURCE FILE: GLDR-APN-450_COMP_V001

011301 MSMMMOB.65                       V     C        19:59:58:07 20:00:01:04 02:01:25:22 02:01:28:19
* FROM CLIP NAME:  B015C007_190811_R481 
* SOURCE FILE: MSMMMOB.65

011309 MSMMMOB.12                       V     C        22:06:18:02 22:06:18:19 02:01:28:19 02:01:29:11
* FROM CLIP NAME:  B017C005_190811_R481 
* SOURCE FILE: MSMMMOB.12

011310 BL                               V     C        00:00:00:00 00:00:07:22 02:01:28:19 02:01:36:16
* SOURCE FILE: (NULL)

011325 MSMMMOB.72                       V     C        22:15:00:00 22:15:04:23 02:01:29:11 02:01:34:09
* FROM CLIP NAME:  B017C008_190811_R481 
* SOURCE FILE: MSMMMOB.72

011326 MSMMMOB.12                       V     C        22:06:27:00 22:06:29:06 02:01:34:09 02:01:36:16
* FROM CLIP NAME:  B017C005_190811_R481 
* SOURCE FILE: MSMMMOB.12

011336 GLDR-APN-460_COMP_V001           V     C        00:00:00:00 00:00:04:00 02:01:36:16 02:01:40:16
* FROM CLIP NAME:  GLDR-APN-460_COMP_V001 
* SOURCE FILE: GLDR-APN-460_COMP_V001

011337 MSMMMOB.81                       V     C        20:01:20:18 20:01:24:18 02:01:36:16 02:01:40:16
* FROM CLIP NAME:  B015C008_190811_R481 
* SOURCE FILE: MSMMMOB.81

011347 BL                               V     C        00:00:00:00 00:00:04:12 02:01:39:09 02:01:43:21
* SOURCE FILE: (NULL)

011354 MSMMMOB.45                       V     C        19:24:18:08 19:24:19:14 02:01:40:16 02:01:41:22
* FROM CLIP NAME:  B015C003_190811_R481 
* SOURCE FILE: MSMMMOB.45

011355 BL                               V     C        00:00:00:00 00:10:39:07 02:01:40:16 02:12:19:23
* SOURCE FILE: (NULL)

011356 MSMMMOB.29                       V     C        19:20:19:16 19:20:21:15 02:01:41:22 02:01:43:21
* FROM CLIP NAME:  B015C002_190811_R481 
* SOURCE FILE: MSMMMOB.29

011364 MSMMMOB.63                       V     C        20:33:13:04 20:33:24:02 02:01:43:21 02:01:54:19
* FROM CLIP NAME:  B016C003_190811_R481 
* SOURCE FILE: MSMMMOB.63

011367 BL                               V     C        00:00:00:00 00:01:14:00 02:01:43:21 02:02:57:21
* SOURCE FILE: (NULL)

011374 MSMMMOB.40                       V     C        20:47:33:02 20:47:34:04 02:01:54:19 02:01:55:21
* FROM CLIP NAME:  B016C005_190811_R481 
* SOURCE FILE: MSMMMOB.40

011381 MSMMMOB.22                       V     C        20:58:06:13 20:58:08:00 02:01:55:21 02:01:57:08
* FROM CLIP NAME:  B016C008_190811_R481 
* SOURCE FILE: MSMMMOB.22

011388 MSMMMOB.40                       V     C        20:47:35:11 20:47:37:17 02:01:57:08 02:01:59:14
* FROM CLIP NAME:  B016C005_190811_R481 
* SOURCE FILE: MSMMMOB.40

011401 MSMMMOB.22                       V     C        20:58:10:05 20:58:18:04 02:01:59:14 02:02:07:13
* FROM CLIP NAME:  B016C008_190811_R481 
* SOURCE FILE: MSMMMOB.22

011414 MSMMMOB.40                       V     C        20:47:46:00 20:47:49:04 02:02:07:13 02:02:10:17
* FROM CLIP NAME:  B016C005_190811_R481 
* SOURCE FILE: MSMMMOB.40

011417 CINEMASCOPE_2-35-1_CROPLINES.PNG V     C        01:03:54:23 01:04:48:20 02:02:07:13 02:03:01:10
* FROM CLIP NAME:  CINEMASCOPE 2-35-1 CROPLINES.PNG 
* SOURCE FILE: CINEMASCOPE 2-35-1 CROPLINES.PNG

011418 BL                               V     C        00:00:00:00 00:01:50:06 02:02:07:13 02:03:57:19
* SOURCE FILE: (NULL)

011426 MSMMMOB.63                       V     C        20:33:42:07 20:33:50:19 02:02:10:17 02:02:19:04
* FROM CLIP NAME:  B016C003_190811_R481 
* SOURCE FILE: MSMMMOB.63

011440 MSMMMOB.17                       V     C        22:44:49:05 22:44:52:19 02:02:19:04 02:02:22:18
* FROM CLIP NAME:  A028C015_190801_R32C 
* SOURCE FILE: MSMMMOB.17

011447 MSMMMOB.60                       V     C        22:51:31:02 22:51:35:23 02:02:22:18 02:02:27:14
* FROM CLIP NAME:  A028C016_190801_R32C 
* SOURCE FILE: MSMMMOB.60

011454 MSMMMOB.60                       V     C        22:51:37:13 22:51:39:21 02:02:27:14 02:02:29:22
* FROM CLIP NAME:  A028C016_190801_R32C 
* SOURCE FILE: MSMMMOB.60

011461 MSMMMOB.60                       V     C        22:51:42:11 22:51:46:06 02:02:29:22 02:02:33:17
* FROM CLIP NAME:  A028C016_190801_R32C 
* SOURCE FILE: MSMMMOB.60

011474 MSMMMOB.17                       V     C        22:45:15:17 22:45:18:04 02:02:33:17 02:02:36:04
* FROM CLIP NAME:  A028C015_190801_R32C 
* SOURCE FILE: MSMMMOB.17

011483 MSMMMOB.66                       V     C        20:04:22:17 20:04:30:07 02:02:36:04 02:02:43:19
* FROM CLIP NAME:  A003C005_191124_R481 
* SOURCE FILE: MSMMMOB.66

011490 MSMMMOB.66                       V     C        20:04:32:06 20:04:35:01 02:02:43:19 02:02:46:14
* FROM CLIP NAME:  A003C005_191124_R481 
* SOURCE FILE: MSMMMOB.66

011493 MSMMMOB.66                       V     C        20:04:37:12 20:04:41:05 02:02:46:14 02:02:50:07
* FROM CLIP NAME:  A003C005_191124_R481 
* SOURCE FILE: MSMMMOB.66

011496 MSMMMOB.66                       V     C        20:04:42:03 20:04:44:19 02:02:50:07 02:02:52:23
* FROM CLIP NAME:  A003C005_191124_R481 
* SOURCE FILE: MSMMMOB.66

011499 MSMMMOB.36                       V     C        10:23:28:23 10:23:32:09 02:02:52:23 02:02:56:09
* FROM CLIP NAME:  A001C004_191124_R481 
* SOURCE FILE: MSMMMOB.36

011504 MSMMMOB.36                       V     C        10:23:34:21 10:23:36:08 02:02:56:09 02:02:57:21
* FROM CLIP NAME:  A001C004_191124_R481 
* SOURCE FILE: MSMMMOB.36

011508 TITLE.01                         V     C        01:00:13:08 01:00:16:22 02:02:57:21 02:03:01:10
* FROM CLIP NAME:  TITLE.01 
* SOURCE FILE: TITLE.01

011507 BL                               V     C        00:00:00:00 00:00:03:14 02:02:57:21 02:03:01:10
* SOURCE FILE: (NULL)

011509 MSMMMOB.36                       V     C        10:23:40:13 10:23:46:10 02:02:57:21 02:03:03:18
* FROM CLIP NAME:  A001C004_191124_R481 
* SOURCE FILE: MSMMMOB.36

011512 BL                               V     C        00:00:00:00 00:00:09:02 02:03:01:10 02:03:10:12
* SOURCE FILE: (NULL)

011513 BL                               V     C        00:00:00:00 00:00:09:02 02:03:01:10 02:03:10:12
* SOURCE FILE: (NULL)

011514 CINEMASCOPE_2-35-1_CROPLINES.PNG V     C        01:04:50:03 01:05:21:05 02:03:01:10 02:03:32:12
* FROM CLIP NAME:  CINEMASCOPE 2-35-1 CROPLINES.PNG 
* SOURCE FILE: CINEMASCOPE 2-35-1 CROPLINES.PNG

011515 MSMMMOB.36                       V     C        10:24:07:21 10:24:14:15 02:03:03:18 02:03:10:12
* FROM CLIP NAME:  A001C004_191124_R481 
* SOURCE FILE: MSMMMOB.36

011518 MSMMMOB.03                       V     C        12:32:40:13 12:32:44:21 02:03:10:12 02:03:14:20
* FROM CLIP NAME:  A001C007_191124_R481 
* SOURCE FILE: MSMMMOB.03

011522 TITLE.01                         V     C        01:00:09:03 01:00:17:23 02:03:10:12 02:03:19:07
* FROM CLIP NAME:  TITLE.01 
* SOURCE FILE: TITLE.01

011521 BL                               V     C        00:00:00:00 00:00:08:20 02:03:10:12 02:03:19:07
* SOURCE FILE: (NULL)

011523 MSMMMOB.03                       V     C        12:32:48:18 12:32:53:05 02:03:14:20 02:03:19:07
* FROM CLIP NAME:  A001C007_191124_R481 
* SOURCE FILE: MSMMMOB.03

011532 BL                               V     C        00:00:00:00 00:00:02:02 02:03:19:07 02:03:21:09
* SOURCE FILE: (NULL)

011533 BL                               V     C        00:00:00:00 00:00:05:17 02:03:19:07 02:03:25:00
* SOURCE FILE: (NULL)

011534 MSMMMOB.74                       V     C        21:04:41:04 21:04:54:09 02:03:19:07 02:03:32:12
* FROM CLIP NAME:  B016C009_190811_R481 
* SOURCE FILE: MSMMMOB.74

011541 TITLE.01                         V     C        01:00:15:06 01:00:22:07 02:03:21:09 02:03:28:10
* FROM CLIP NAME:  TITLE.01 
* SOURCE FILE: TITLE.01

011548 BL                               V     C        00:00:00:00 00:00:03:11 02:03:25:00 02:03:28:10
* SOURCE FILE: (NULL)

011549 BL                               V     C        00:00:00:00 00:01:47:13 02:03:28:10 02:05:15:23
* SOURCE FILE: (NULL)

011550 BL                               V     C        00:00:00:00 00:09:10:03 02:03:28:10 02:12:38:13
* SOURCE FILE: (NULL)

011564 MSMMMOB.18                       V     C        20:33:02:16 20:33:05:03 02:03:32:12 02:03:35:00
* FROM CLIP NAME:  83-LUNA 
* SOURCE FILE: MSMMMOB.18

011563 CINEMASCOPE_2-35-1_CROPLINES.PNG V     C        01:05:18:14 01:05:21:01 02:03:32:12 02:03:35:00
* FROM CLIP NAME:  CINEMASCOPE 2-35-1 CROPLINES.PNG 
* SOURCE FILE: CINEMASCOPE 2-35-1 CROPLINES.PNG

011575 MSMMMOB.35                       V     C        20:38:25:01 20:38:35:20 02:03:35:00 02:03:45:18
* FROM CLIP NAME:  B027C009_190814_R481 
* SOURCE FILE: MSMMMOB.35

011576 CINEMASCOPE_2-35-1_CROPLINES.PNG V     C        01:05:21:16 01:05:44:11 02:03:35:00 02:03:57:19
* FROM CLIP NAME:  CINEMASCOPE 2-35-1 CROPLINES.PNG 
* SOURCE FILE: CINEMASCOPE 2-35-1 CROPLINES.PNG

011593 BL                               V     C        00:00:00:00 00:00:03:11 02:03:45:18 02:03:49:04
* SOURCE FILE: (NULL)

011600 BL                               V     C        00:00:00:00 00:00:00:00 02:03:49:04 02:03:49:04

011600 MSMMMOB.55                       V     D   061  21:11:20:11 21:11:22:22 02:03:49:04 02:03:51:15
* FILM, FILM DISSOLVE 
* TO CLIP NAME:  M097_C051_20190720_R 
* SOURCE FILE: (NULL)

011605 MSMMMOB.55                       V     C        21:11:22:22 21:11:29:01 02:03:51:15 02:03:57:19
* FROM CLIP NAME:  M097_C051_20190720_R 
* SOURCE FILE: MSMMMOB.55

011614 MSMMMOB.25                       V     C        10:41:17:13 10:41:26:18 02:03:57:19 02:04:07:00
* FROM CLIP NAME:  A041C002_190805_R32C 
* SOURCE FILE: MSMMMOB.25

011619 CINEMASCOPE_2-35-1_CROPLINES.PNG V     C        01:00:00:00 01:06:00:00 02:03:57:19 02:09:57:19
* FROM CLIP NAME:  CINEMASCOPE 2-35-1 CROPLINES.PNG 
* SOURCE FILE: CINEMASCOPE 2-35-1 CROPLINES.PNG

011620 BL                               V     C        00:00:00:00 00:12:58:16 02:03:57:19 02:16:56:10
* SOURCE FILE: (NULL)

011639 MSMMMOB.20                       V     C        11:30:16:07 11:30:18:00 02:04:07:00 02:04:08:16
* FROM CLIP NAME:  A041C008_190805_R32C 
* SOURCE FILE: MSMMMOB.20

011650 MSMMMOB.27                       V     C        11:38:40:11 11:38:44:01 02:04:08:16 02:04:12:06
* FROM CLIP NAME:  A041C009_190805_R32C 
* SOURCE FILE: MSMMMOB.27

011657 MSMMMOB.20                       V     C        11:30:22:18 11:30:32:06 02:04:12:06 02:04:21:19
* FROM CLIP NAME:  A041C008_190805_R32C 
* SOURCE FILE: MSMMMOB.20

011666 MSMMMOB.07                       V     C        12:01:20:23 12:01:23:18 02:04:21:19 02:04:24:14
* FROM CLIP NAME:  A042C004_190805_R32C 
* SOURCE FILE: MSMMMOB.07

011667 MSMMMOB.20                       V     C        11:30:34:03 11:30:36:02 02:04:24:14 02:04:26:13
* FROM CLIP NAME:  A041C008_190805_R32C 
* SOURCE FILE: MSMMMOB.20

011674 MSMMMOB.34                       V     C        11:58:20:22 11:58:23:11 02:04:26:13 02:04:29:02
* FROM CLIP NAME:  A042C003_190805_R32C 
* SOURCE FILE: MSMMMOB.34

011687 MSMMMOB.20                       V     C        11:30:40:04 11:30:44:13 02:04:29:02 02:04:33:11
* FROM CLIP NAME:  A041C008_190805_R32C 
* SOURCE FILE: MSMMMOB.20

011698 MSMMMOB.34                       V     C        11:58:27:12 11:58:30:22 02:04:33:11 02:04:36:21
* FROM CLIP NAME:  A042C003_190805_R32C 
* SOURCE FILE: MSMMMOB.34

011706 MSMMMOB.20                       V     C        11:30:50:08 11:30:52:08 02:04:36:21 02:04:38:21
* FROM CLIP NAME:  A041C008_190805_R32C 
* SOURCE FILE: MSMMMOB.20

011717 MSMMMOB.18                       V     C        11:04:55:08 11:04:59:00 02:04:38:21 02:04:42:13
* FROM CLIP NAME:  A041C005_190805_R32C 
* SOURCE FILE: MSMMMOB.18

011724 MSMMMOB.20                       V     C        11:30:55:23 11:30:58:22 02:04:42:13 02:04:45:12
* FROM CLIP NAME:  A041C008_190805_R32C 
* SOURCE FILE: MSMMMOB.20

011731 MSMMMOB.07                       V     C        12:01:49:03 12:01:51:18 02:04:45:12 02:04:48:02
* FROM CLIP NAME:  A042C004_190805_R32C 
* SOURCE FILE: MSMMMOB.07

011746 MSMMMOB.20                       V     C        11:31:01:00 11:31:02:20 02:04:48:02 02:04:49:23
* FROM CLIP NAME:  A041C008_190805_R32C 
* SOURCE FILE: MSMMMOB.20

011753 MSMMMOB.07                       V     C        12:01:52:15 12:01:55:03 02:04:49:23 02:04:52:11
* FROM CLIP NAME:  A042C004_190805_R32C 
* SOURCE FILE: MSMMMOB.07

011760 MSMMMOB.20                       V     C        11:31:04:00 11:31:06:11 02:04:52:11 02:04:54:22
* FROM CLIP NAME:  A041C008_190805_R32C 
* SOURCE FILE: MSMMMOB.20

011767 MSMMMOB.42                       V     C        12:07:17:01 12:07:19:00 02:04:54:22 02:04:56:20
* FROM CLIP NAME:  A042C006_190805_R32C 
* SOURCE FILE: MSMMMOB.42

011774 MSMMMOB.20                       V     C        11:31:09:00 11:31:11:22 02:04:56:20 02:04:59:18
* FROM CLIP NAME:  A041C008_190805_R32C 
* SOURCE FILE: MSMMMOB.20

011783 MSMMMOB.07                       V     C        12:02:02:21 12:02:04:20 02:04:59:18 02:05:01:17
* FROM CLIP NAME:  A042C004_190805_R32C 
* SOURCE FILE: MSMMMOB.07

011790 MSMMMOB.20                       V     C        11:31:13:08 11:31:17:06 02:05:01:17 02:05:05:15
* FROM CLIP NAME:  A041C008_190805_R32C 
* SOURCE FILE: MSMMMOB.20

011803 MSMMMOB.07                       V     C        12:02:09:08 12:02:13:19 02:05:05:15 02:05:10:01
* FROM CLIP NAME:  A042C004_190805_R32C 
* SOURCE FILE: MSMMMOB.07

011804 MSMMMOB.20                       V     C        11:31:19:15 11:31:22:06 02:05:10:01 02:05:12:17
* FROM CLIP NAME:  A041C008_190805_R32C 
* SOURCE FILE: MSMMMOB.20

011805 MSMMMOB.07                       V     C        12:02:16:10 12:02:19:16 02:05:12:17 02:05:15:23
* FROM CLIP NAME:  A042C004_190805_R32C 
* SOURCE FILE: MSMMMOB.07

011815 BL                               V     C        00:00:00:00 00:00:03:08 02:05:15:23 02:05:19:06
* SOURCE FILE: (NULL)

011814 MSMMMOB.18                       V     C        11:05:27:10 11:05:30:18 02:05:15:23 02:05:19:06
* FROM CLIP NAME:  A041C005_190805_R32C 
* SOURCE FILE: MSMMMOB.18

011824 MSMMMOB.20                       V     C        11:31:29:06 11:31:37:17 02:05:19:06 02:05:27:17
* FROM CLIP NAME:  A041C008_190805_R32C 
* SOURCE FILE: MSMMMOB.20

011833 BL                               V     C        00:00:00:00 00:03:00:21 02:05:19:06 02:08:20:02
* SOURCE FILE: (NULL)

011840 MSMMMOB.21                       V     C        12:15:40:00 12:15:42:12 02:05:27:17 02:05:30:05
* FROM CLIP NAME:  A042C007_190805_R32C 
* SOURCE FILE: MSMMMOB.21

011847 MSMMMOB.45                       V     C        20:35:49:00 20:35:52:00 02:05:30:05 02:05:33:05
* FROM CLIP NAME:  A068C004_190812_R32C 
* SOURCE FILE: MSMMMOB.45

011856 MSMMMOB.46                       V     C        21:10:16:18 21:10:22:16 02:05:33:05 02:05:39:03
* FROM CLIP NAME:  A069C001_190812_R32C 
* SOURCE FILE: MSMMMOB.46

011861 MSMMMOB.33                       V     C        21:35:45:05 21:35:47:00 02:05:39:03 02:05:40:23
* FROM CLIP NAME:  A070C001_190812_R32C 
* SOURCE FILE: MSMMMOB.33

011870 MSMMMOB.46                       V     C        21:10:24:01 21:10:32:22 02:05:40:23 02:05:49:19
* FROM CLIP NAME:  A069C001_190812_R32C 
* SOURCE FILE: MSMMMOB.46

011875 MSMMMOB.33                       V     C        21:35:58:11 21:36:13:18 02:05:49:19 02:06:05:01
* FROM CLIP NAME:  A070C001_190812_R32C 
* SOURCE FILE: MSMMMOB.33

011884 MSMMMOB.46                       V     C        21:10:49:22 21:10:53:17 02:06:05:01 02:06:08:21
* FROM CLIP NAME:  A069C001_190812_R32C 
* SOURCE FILE: MSMMMOB.46

011885 MSMMMOB.47                       V     C        21:31:14:11 21:31:20:05 02:06:08:21 02:06:14:15
* FROM CLIP NAME:  A069C003_190812_R32C 
* SOURCE FILE: MSMMMOB.47

011894 MSMMMOB.46                       V     C        21:10:59:16 21:11:02:01 02:06:14:15 02:06:17:00
* FROM CLIP NAME:  A069C001_190812_R32C 
* SOURCE FILE: MSMMMOB.46

011903 MSMMMOB.34                       V     C        21:54:25:09 21:54:30:18 02:06:17:00 02:06:22:09
* FROM CLIP NAME:  A070C003_190812_R32C 
* SOURCE FILE: MSMMMOB.34

011912 MSMMMOB.11                       V     C        21:20:35:20 21:20:41:09 02:06:22:09 02:06:27:23
* FROM CLIP NAME:  A069C002_190812_R32C 
* SOURCE FILE: MSMMMOB.11

011921 MSMMMOB.46                       V     C        21:11:15:11 21:11:17:18 02:06:27:23 02:06:30:05
* FROM CLIP NAME:  A069C001_190812_R32C 
* SOURCE FILE: MSMMMOB.46

011922 MSMMMOB.34                       V     C        21:54:32:15 21:54:35:23 02:06:30:05 02:06:33:13
* FROM CLIP NAME:  A070C003_190812_R32C 
* SOURCE FILE: MSMMMOB.34

011923 MSMMMOB.46                       V     C        21:11:21:01 21:11:25:22 02:06:33:13 02:06:38:09
* FROM CLIP NAME:  A069C001_190812_R32C 
* SOURCE FILE: MSMMMOB.46

011928 MSMMMOB.34                       V     C        21:54:47:20 21:54:53:13 02:06:38:09 02:06:44:02
* FROM CLIP NAME:  A070C003_190812_R32C 
* SOURCE FILE: MSMMMOB.34

011933 MSMMMOB.52                       V     C        20:58:55:02 20:58:58:16 02:06:44:02 02:06:47:16
* FROM CLIP NAME:  A068C006_190812_R32C 
* SOURCE FILE: MSMMMOB.52

011942 MSMMMOB.34                       V     C        21:54:57:18 21:55:03:20 02:06:47:16 02:06:53:18
* FROM CLIP NAME:  A070C003_190812_R32C 
* SOURCE FILE: MSMMMOB.34

011951 MSMMMOB.11                       V     C        21:20:55:15 21:20:59:02 02:06:53:18 02:06:57:05
* FROM CLIP NAME:  A069C002_190812_R32C 
* SOURCE FILE: MSMMMOB.11

011960 MSMMMOB.52                       V     C        20:59:04:14 20:59:07:16 02:06:57:05 02:07:00:07
* FROM CLIP NAME:  A068C006_190812_R32C 
* SOURCE FILE: MSMMMOB.52

011961 MSMMMOB.34                       V     C        21:55:11:00 21:55:13:02 02:07:00:07 02:07:02:09
* FROM CLIP NAME:  A070C003_190812_R32C 
* SOURCE FILE: MSMMMOB.34

011978 MSMMMOB.52                       V     C        20:59:09:05 20:59:14:07 02:07:02:09 02:07:07:11
* FROM CLIP NAME:  A068C006_190812_R32C 
* SOURCE FILE: MSMMMOB.52

011983 MSMMMOB.33                       V     C        21:37:12:03 21:37:13:09 02:07:07:11 02:07:08:17
* FROM CLIP NAME:  A070C001_190812_R32C 
* SOURCE FILE: MSMMMOB.33

011988 MSMMMOB.52                       V     C        20:59:16:06 20:59:19:21 02:07:08:17 02:07:12:07
* FROM CLIP NAME:  A068C006_190812_R32C 
* SOURCE FILE: MSMMMOB.52

011993 MSMMMOB.33                       V     C        21:37:18:09 21:37:20:22 02:07:12:07 02:07:14:20
* FROM CLIP NAME:  A070C001_190812_R32C 
* SOURCE FILE: MSMMMOB.33

012006 MSMMMOB.52                       V     C        20:59:24:19 20:59:27:11 02:07:14:20 02:07:17:12
* FROM CLIP NAME:  A068C006_190812_R32C 
* SOURCE FILE: MSMMMOB.52

012023 MSMMMOB.33                       V     C        21:37:23:15 21:37:25:11 02:07:17:12 02:07:19:08
* FROM CLIP NAME:  A070C001_190812_R32C 
* SOURCE FILE: MSMMMOB.33

012028 MSMMMOB.52                       V     C        20:59:27:23 20:59:36:08 02:07:19:08 02:07:27:18
* FROM CLIP NAME:  A068C006_190812_R32C 
* SOURCE FILE: MSMMMOB.52

012037 MSMMMOB.33                       V     C        21:37:28:00 21:37:29:13 02:07:27:18 02:07:29:07
* FROM CLIP NAME:  A070C001_190812_R32C 
* SOURCE FILE: MSMMMOB.33

012046 MSMMMOB.52                       V     C        20:59:37:11 20:59:45:01 02:07:29:07 02:07:36:22
* FROM CLIP NAME:  A068C006_190812_R32C 
* SOURCE FILE: MSMMMOB.52

012051 MSMMMOB.33                       V     C        21:37:34:01 21:37:37:00 02:07:36:22 02:07:39:20
* FROM CLIP NAME:  A070C001_190812_R32C 
* SOURCE FILE: MSMMMOB.33

012064 MSMMMOB.52                       V     C        20:59:52:09 20:59:53:22 02:07:39:20 02:07:41:08
* FROM CLIP NAME:  A068C006_190812_R32C 
* SOURCE FILE: MSMMMOB.52

012069 MSMMMOB.33                       V     C        21:37:38:13 21:37:40:17 02:07:41:08 02:07:43:12
* FROM CLIP NAME:  A070C001_190812_R32C 
* SOURCE FILE: MSMMMOB.33

012074 MSMMMOB.52                       V     C        20:59:57:15 21:00:00:02 02:07:43:12 02:07:46:00
* FROM CLIP NAME:  A068C006_190812_R32C 
* SOURCE FILE: MSMMMOB.52

012075 MSMMMOB.33                       V     C        21:37:43:04 21:37:44:14 02:07:46:00 02:07:47:09
* FROM CLIP NAME:  A070C001_190812_R32C 
* SOURCE FILE: MSMMMOB.33

012080 MSMMMOB.52                       V     C        21:00:03:15 21:00:04:13 02:07:47:09 02:07:48:07
* FROM CLIP NAME:  A068C006_190812_R32C 
* SOURCE FILE: MSMMMOB.52

012081 MSMMMOB.45                       V     C        20:38:18:08 20:38:20:01 02:07:48:07 02:07:50:00
* FROM CLIP NAME:  A068C004_190812_R32C 
* SOURCE FILE: MSMMMOB.45

012086 MSMMMOB.33                       V     C        21:37:49:07 21:37:50:17 02:07:50:00 02:07:51:10
* FROM CLIP NAME:  A070C001_190812_R32C 
* SOURCE FILE: MSMMMOB.33

012091 MSMMMOB.52                       V     C        21:00:08:05 21:00:09:12 02:07:51:10 02:07:52:17
* FROM CLIP NAME:  A068C006_190812_R32C 
* SOURCE FILE: MSMMMOB.52

012092 MSMMMOB.45                       V     C        20:38:24:11 20:38:27:11 02:07:52:17 02:07:55:17
* FROM CLIP NAME:  A068C004_190812_R32C 
* SOURCE FILE: MSMMMOB.45

012101 MSMMMOB.52                       V     C        21:00:31:06 21:00:33:19 02:07:55:17 02:07:58:05
* FROM CLIP NAME:  A068C006_190812_R32C 
* SOURCE FILE: MSMMMOB.52

012102 MSMMMOB.33                       V     C        21:37:58:07 21:38:05:23 02:07:58:05 02:08:05:21
* FROM CLIP NAME:  A070C001_190812_R32C 
* SOURCE FILE: MSMMMOB.33

012115 MSMMMOB.52                       V     C        21:00:39:03 21:00:45:00 02:08:05:21 02:08:11:18
* FROM CLIP NAME:  A068C006_190812_R32C 
* SOURCE FILE: MSMMMOB.52

012124 MSMMMOB.33                       V     C        21:38:12:01 21:38:16:01 02:08:11:18 02:08:15:18
* FROM CLIP NAME:  A070C001_190812_R32C 
* SOURCE FILE: MSMMMOB.33

012137 MSMMMOB.29                       V     C        22:09:31:00 22:09:32:22 02:08:15:18 02:08:17:15
* FROM CLIP NAME:  A070C005_190812_R32C 
* SOURCE FILE: MSMMMOB.29

012138 MSMMMOB.34                       V     C        21:56:25:03 21:56:29:06 02:08:17:15 02:08:21:18
* FROM CLIP NAME:  A070C003_190812_R32C 
* SOURCE FILE: MSMMMOB.34

012143 BL                               V     C        00:00:00:00 00:00:05:08 02:08:20:02 02:08:25:10
* SOURCE FILE: (NULL)

012148 MSMMMOB.29                       V     C        22:09:37:22 22:09:45:09 02:08:21:18 02:08:29:05
* FROM CLIP NAME:  A070C005_190812_R32C 
* SOURCE FILE: MSMMMOB.29

012153 BL                               V     C        00:00:00:00 00:01:24:15 02:08:25:10 02:09:50:00
* SOURCE FILE: (NULL)

012158 MSMMMOB.29                       V     C        22:09:52:23 22:10:05:02 02:08:29:05 02:08:41:09
* FROM CLIP NAME:  A070C005_190812_R32C 
* SOURCE FILE: MSMMMOB.29

012167 MSMMMOB.07                       V     C        22:33:44:16 22:33:47:22 02:08:41:09 02:08:44:15
* FROM CLIP NAME:  A070C010_190812_R32C 
* SOURCE FILE: MSMMMOB.07

012175 MSMMMOB.22                       V     C        13:24:31:07 13:24:41:14 02:08:44:15 02:08:54:22
* FROM CLIP NAME:  A066C014_190812_R32C 
* SOURCE FILE: MSMMMOB.22

012180 MSMMMOB.03                       V     C        13:33:32:00 13:33:33:08 02:08:54:22 02:08:56:06
* FROM CLIP NAME:  A066C016_190812_R32C 
* SOURCE FILE: MSMMMOB.03

012189 MSMMMOB.22                       V     C        13:24:42:00 13:24:43:00 02:08:56:06 02:08:57:06
* FROM CLIP NAME:  A066C014_190812_R32C 
* SOURCE FILE: MSMMMOB.22

012194 MSMMMOB.17                       V     C        13:35:29:09 13:35:34:13 02:08:57:06 02:09:02:10
* FROM CLIP NAME:  A066C017_190812_R32C 
* SOURCE FILE: MSMMMOB.17

012199 MSMMMOB.22                       V     C        13:24:47:01 13:24:53:05 02:09:02:10 02:09:08:14
* FROM CLIP NAME:  A066C014_190812_R32C 
* SOURCE FILE: MSMMMOB.22

012204 MSMMMOB.18                       V     C        13:41:55:02 13:41:57:08 02:09:08:14 02:09:10:20
* FROM CLIP NAME:  A066C019_190812_R32C 
* SOURCE FILE: MSMMMOB.18

012209 MSMMMOB.22                       V     C        13:24:54:16 13:24:56:04 02:09:10:20 02:09:12:08
* FROM CLIP NAME:  A066C014_190812_R32C 
* SOURCE FILE: MSMMMOB.22

012214 MSMMMOB.18                       V     C        13:41:58:22 13:42:02:01 02:09:12:08 02:09:15:12
* FROM CLIP NAME:  A066C019_190812_R32C 
* SOURCE FILE: MSMMMOB.18

012219 MSMMMOB.04                       V     C        13:27:25:07 13:27:27:21 02:09:15:12 02:09:18:01
* FROM CLIP NAME:  A042C010_190805_R32C 
* SOURCE FILE: MSMMMOB.04

012226 MSMMMOB.32                       V     C        13:42:31:21 13:42:42:12 02:09:18:01 02:09:28:17
* FROM CLIP NAME:  A043C004_190805_R32C 
* SOURCE FILE: MSMMMOB.32

012232 MSMMMOB.14                       V     C        14:17:50:15 14:17:54:20 02:09:28:17 02:09:32:22
* FROM CLIP NAME:  A043C009_190805_R32C 
* SOURCE FILE: MSMMMOB.14

012240 MSMMMOB.32                       V     C        13:42:55:10 13:43:03:05 02:09:32:22 02:09:40:17
* FROM CLIP NAME:  A043C004_190805_R32C 
* SOURCE FILE: MSMMMOB.32

012251 MSMMMOB.14                       V     C        14:18:07:00 14:18:10:14 02:09:40:17 02:09:44:07
* FROM CLIP NAME:  A043C009_190805_R32C 
* SOURCE FILE: MSMMMOB.14

012265 MSMMMOB.36                       V     C        07:37:33:22 07:37:35:09 02:09:44:07 02:09:45:19
* FROM CLIP NAME:  A044C011_190805_R32C 
* SOURCE FILE: MSMMMOB.36

012271 MSMMMOB.14                       V     C        14:18:13:18 14:18:14:21 02:09:45:19 02:09:46:22
* FROM CLIP NAME:  A043C009_190805_R32C 
* SOURCE FILE: MSMMMOB.14

012279 MSMMMOB.22                       V     C        13:35:12:06 13:35:14:20 02:09:46:22 02:09:49:11
* FROM CLIP NAME:  A043C002_190805_R32C 
* SOURCE FILE: MSMMMOB.22

012291 MSMMMOB.36                       V     C        07:37:35:09 07:37:37:05 02:09:49:11 02:09:51:07
* FROM CLIP NAME:  A044C011_190805_R32C 
* SOURCE FILE: MSMMMOB.36

012299 BL                               V     C        00:00:00:00 00:00:01:07 02:09:50:00 02:09:51:07
* SOURCE FILE: (NULL)

012305 MSMMMOB.14                       V     C        14:18:29:10 14:18:30:09 02:09:51:07 02:09:52:06
* FROM CLIP NAME:  A043C009_190805_R32C 
* SOURCE FILE: MSMMMOB.14

012313 BL                               V     C        00:00:00:00 00:01:43:17 02:09:51:07 02:11:35:00
* SOURCE FILE: (NULL)

012321 MSMMMOB.51                       V     C        13:52:49:12 13:52:50:19 02:09:52:06 02:09:53:13
* FROM CLIP NAME:  A043C007_190805_R32C 
* SOURCE FILE: MSMMMOB.51

012345 MSMMMOB.16                       V     C        14:35:08:18 14:35:10:12 02:09:53:13 02:09:55:07
* FROM CLIP NAME:  A044C003_190805_R32C 
* SOURCE FILE: MSMMMOB.16

012367 MSMMMOB.14                       V     C        14:18:46:02 14:18:47:05 02:09:55:07 02:09:56:10
* FROM CLIP NAME:  A043C009_190805_R32C 
* SOURCE FILE: MSMMMOB.14

012382 MSMMMOB.51                       V     C        13:52:58:10 13:52:59:13 02:09:56:10 02:09:57:13
* FROM CLIP NAME:  A043C007_190805_R32C 
* SOURCE FILE: MSMMMOB.51

012383 MSMMMOB.14                       V     C        14:18:48:00 14:18:49:23 02:09:57:13 02:09:59:12
* FROM CLIP NAME:  A043C009_190805_R32C 
* SOURCE FILE: MSMMMOB.14

012390 CINEMASCOPE_2-35-1_CROPLINES.PNG V     C        01:00:00:00 01:04:05:07 02:09:57:19 02:14:03:01
* FROM CLIP NAME:  CINEMASCOPE 2-35-1 CROPLINES.PNG 
* SOURCE FILE: CINEMASCOPE 2-35-1 CROPLINES.PNG

012398 MSMMMOB.12                       V     C        14:45:17:23 14:45:23:05 02:09:59:12 02:10:04:19
* FROM CLIP NAME:  A044C005_190805_R32C 
* SOURCE FILE: MSMMMOB.12

012406 MSMMMOB.16                       V     C        14:35:18:12 14:35:22:21 02:10:04:19 02:10:09:03
* FROM CLIP NAME:  A044C003_190805_R32C 
* SOURCE FILE: MSMMMOB.16

012421 MSMMMOB.24                       V     C        14:43:40:13 14:43:50:16 02:10:09:03 02:10:19:06
* FROM CLIP NAME:  A044C004_190805_R32C 
* SOURCE FILE: MSMMMOB.24

012429 MSMMMOB.16                       V     C        14:35:35:10 14:35:41:11 02:10:19:06 02:10:25:07
* FROM CLIP NAME:  A044C003_190805_R32C 
* SOURCE FILE: MSMMMOB.16

012440 MSMMMOB.38                       V     C        15:36:04:16 15:36:08:19 02:10:25:07 02:10:29:10
* FROM CLIP NAME:  89-2-1 
* SOURCE FILE: MSMMMOB.38

012446 MSMMMOB.33                       V     C        13:56:01:13 13:56:12:20 02:10:29:10 02:10:40:17
* FROM CLIP NAME:  A104C007_190828_R3DN 
* SOURCE FILE: MSMMMOB.33

012454 MSMMMOB.33                       V     C        13:56:16:09 13:56:18:16 02:10:40:17 02:10:43:00
* FROM CLIP NAME:  A104C007_190828_R3DN 
* SOURCE FILE: MSMMMOB.33

012458 MSMMMOB.33                       V     C        13:56:20:23 13:56:33:05 02:10:43:00 02:10:55:06
* FROM CLIP NAME:  A104C007_190828_R3DN 
* SOURCE FILE: MSMMMOB.33

012467 MSMMMOB.73                       V     C        15:46:42:23 15:46:46:05 02:10:55:06 02:10:58:13
* FROM CLIP NAME:  89-4-1 
* SOURCE FILE: MSMMMOB.73

012474 MSMMMOB.33                       V     C        13:56:34:21 13:56:38:13 02:10:58:13 02:11:02:05
* FROM CLIP NAME:  A104C007_190828_R3DN 
* SOURCE FILE: MSMMMOB.33

012478 MSMMMOB.14                       V     C        19:55:20:19 19:55:20:21 02:11:02:05 02:11:06:18
* FROM CLIP NAME:  M097_C029_20190720_R 
* SOURCE FILE: MSMMMOB.14

012483 MSMMMOB.29                       V     C        18:20:49:20 18:20:54:00 02:11:06:18 02:11:10:22
* FROM CLIP NAME:  A083C007_190815_R32C 
* SOURCE FILE: MSMMMOB.29

012492 MSMMMOB.46                       V     C        18:33:33:13 18:33:57:07 02:11:10:22 02:11:34:16
* FROM CLIP NAME:  A083C010_190815_R32C 
* SOURCE FILE: MSMMMOB.46

012493 MSMMMOB.26                       V     C        18:56:29:19 18:56:35:07 02:11:34:16 02:11:40:04
* FROM CLIP NAME:  A083C012_190815_R32C 
* SOURCE FILE: MSMMMOB.26

012494 BL                               V     C        00:00:00:00 00:00:01:17 02:11:35:00 02:11:36:16
* SOURCE FILE: (NULL)

012501 BL                               V     C        00:00:00:00 00:00:03:04 02:11:36:16 02:11:39:20
* SOURCE FILE: (NULL)

012532 BL                               V     C        00:00:00:00 00:00:10:21 02:11:39:20 02:11:50:16
* SOURCE FILE: (NULL)

012545 MSMMMOB.74                       V     C        18:56:35:06 18:56:38:23 02:11:40:04 02:11:43:21
* FROM CLIP NAME:  B028C016_120101_R0BA 
* SOURCE FILE: MSMMMOB.74

012552 MSMMMOB.26                       V     C        18:56:39:00 18:56:44:00 02:11:43:21 02:11:48:21
* FROM CLIP NAME:  A083C012_190815_R32C 
* SOURCE FILE: MSMMMOB.26

012565 MSMMMOB.82                       V     C        19:11:25:00 19:11:26:05 02:11:48:21 02:11:50:02
* FROM CLIP NAME:  A083C015_190815_R32C 
* SOURCE FILE: MSMMMOB.82

012572 MSMMMOB.26                       V     C        18:56:48:22 18:56:51:19 02:11:50:02 02:11:53:00
* FROM CLIP NAME:  A083C012_190815_R32C 
* SOURCE FILE: MSMMMOB.26

012573 BL                               V     C        00:00:00:00 00:00:00:04 02:11:50:16 02:11:50:20
* SOURCE FILE: (NULL)

012580 BL                               V     C        00:00:00:00 00:00:01:17 02:11:50:20 02:11:52:12
* SOURCE FILE: (NULL)

012587 BL                               V     C        00:00:00:00 00:00:28:15 02:11:52:12 02:12:21:02
* SOURCE FILE: (NULL)

012588 MSMMMOB.21                       V     C        20:24:57:18 20:25:01:18 02:11:53:00 02:11:57:00
* FROM CLIP NAME:  A084C014_190815_R32C 
* SOURCE FILE: MSMMMOB.21

012598 MSMMMOB.31                       V     C        19:16:42:02 19:16:47:20 02:11:57:00 02:12:02:17
* FROM CLIP NAME:  B028C021_120101_R0BA 
* SOURCE FILE: MSMMMOB.31

012611 MSMMMOB.82                       V     C        19:11:27:09 19:11:28:15 02:12:02:17 02:12:03:23
* FROM CLIP NAME:  A083C015_190815_R32C 
* SOURCE FILE: MSMMMOB.82

012636 MSMMMOB.09                       V     C        19:26:12:22 19:26:16:15 02:12:03:23 02:12:07:16
* FROM CLIP NAME:  A084C002_190815_R32C 
* SOURCE FILE: MSMMMOB.09

012642 MSMMMOB.65                       V     C        19:40:40:12 19:40:41:06 02:12:07:16 02:12:08:10
* FROM CLIP NAME:  B028C027_120101_R0BA 
* SOURCE FILE: MSMMMOB.65

012653 MSMMMOB.86                       V     C        19:40:42:13 19:40:44:01 02:12:08:10 02:12:09:23
* FROM CLIP NAME:  A084C006_190815_R32C 
* SOURCE FILE: MSMMMOB.86

012664 MSMMMOB.12                       V     C        19:32:23:09 19:32:24:13 02:12:09:23 02:12:11:02
* FROM CLIP NAME:  B028C025_120101_R0BA 
* SOURCE FILE: MSMMMOB.12

012670 MSMMMOB.71                       V     C        19:32:24:14 19:32:25:19 02:12:11:02 02:12:12:07
* FROM CLIP NAME:  A084C004_190815_R32C 
* SOURCE FILE: MSMMMOB.71

012671 MSMMMOB.38                       V     C        19:29:48:12 19:29:50:07 02:12:12:07 02:12:14:02
* FROM CLIP NAME:  B028C024_120101_R0BA 
* SOURCE FILE: MSMMMOB.38

012677 MSMMMOB.82                       V     C        19:11:41:00 19:11:42:16 02:12:14:02 02:12:15:18
* FROM CLIP NAME:  A083C015_190815_R32C 
* SOURCE FILE: MSMMMOB.82

012682 MSMMMOB.04                       V     C        19:47:08:11 19:47:10:02 02:12:15:18 02:12:17:09
* FROM CLIP NAME:  B028C029_120101_R0BA 
* SOURCE FILE: MSMMMOB.04

012688 MSMMMOB.49                       V     C        19:47:10:03 19:47:11:05 02:12:17:09 02:12:18:11
* FROM CLIP NAME:  A084C008_190815_R32C 
* SOURCE FILE: MSMMMOB.49

012689 MSMMMOB.27                       V     C        20:13:37:00 20:13:38:12 02:12:18:11 02:12:19:23
* FROM CLIP NAME:  A084C012_190815_R32C 
* SOURCE FILE: MSMMMOB.27

012696 GLDR-APN-490_V01                 V     C        00:00:00:00 00:00:01:04 02:12:19:23 02:12:21:02
* FROM CLIP NAME:  GLDR-APN-490_V01 
* SOURCE FILE: GLDR-APN-490_V01

012695 MSMMMOB.06                       V     C        20:05:01:06 20:05:02:10 02:12:19:23 02:12:21:02
* FROM CLIP NAME:  B028C034_120101_R0BA 
* SOURCE FILE: MSMMMOB.06

012701 BL                               V     C        00:00:00:00 00:00:07:04 02:12:21:02 02:12:28:06
* SOURCE FILE: (NULL)

012702 MSMMMOB.43                       V     C        19:04:27:20 19:04:35:00 02:12:21:02 02:12:28:06
* FROM CLIP NAME:  B028C017_120101_R0BA 
* SOURCE FILE: MSMMMOB.43

012711 BL                               V     C        00:00:00:00 00:03:21:02 02:12:21:02 02:15:42:04
* SOURCE FILE: (NULL)

012714 MSMMMOB.59                       V     C        20:05:11:20 20:05:15:03 02:12:28:06 02:12:31:14
* FROM CLIP NAME:  A084C010_190815_R32C 
* SOURCE FILE: MSMMMOB.59

012719 BL                               V     C        00:00:00:00 00:00:10:07 02:12:28:06 02:12:38:13
* SOURCE FILE: (NULL)

012722 MSMMMOB.28                       V     C        20:07:28:23 20:07:31:13 02:12:31:14 02:12:34:04
* FROM CLIP NAME:  M097_C037_20190720_R 
* SOURCE FILE: MSMMMOB.28

012725 MSMMMOB.23                       V     C        11:56:41:04 11:56:42:15 02:12:34:04 02:12:35:15
* FROM CLIP NAME:  A037C016_190804_R32C 
* SOURCE FILE: MSMMMOB.23

012733 MSMMMOB.17                       V     C        11:46:20:00 11:46:21:23 02:12:35:15 02:12:37:13
* FROM CLIP NAME:  A037C014_190804_R32C 
* SOURCE FILE: MSMMMOB.17

012748 MSMMMOB.08                       V     C        11:38:57:05 11:39:01:19 02:12:37:13 02:12:42:02
* FROM CLIP NAME:  A037C013_190804_R32C 
* SOURCE FILE: MSMMMOB.08

012750 TITLE.01                         V     C        01:00:17:23 01:00:20:23 02:12:38:13 02:12:41:13
* FROM CLIP NAME:  TITLE.01 
* SOURCE FILE: TITLE.01

012749 BL                               V     C        00:00:00:00 00:00:03:00 02:12:38:13 02:12:41:13
* SOURCE FILE: (NULL)

012758 BL                               V     C        00:00:00:00 00:00:06:17 02:12:41:13 02:12:48:05
* SOURCE FILE: (NULL)

012757 BL                               V     C        00:00:00:00 00:00:06:17 02:12:41:13 02:12:48:05
* SOURCE FILE: (NULL)

012759 MSMMMOB.17                       V     C        11:46:25:13 11:46:28:07 02:12:42:02 02:12:44:21
* FROM CLIP NAME:  A037C014_190804_R32C 
* SOURCE FILE: MSMMMOB.17

012766 MSMMMOB.08                       V     C        11:39:04:13 11:39:21:02 02:12:44:21 02:13:01:10
* FROM CLIP NAME:  A037C013_190804_R32C 
* SOURCE FILE: MSMMMOB.08

012774 TITLE.01                         V     C        01:00:17:23 01:00:30:19 02:12:48:05 02:13:01:01
* FROM CLIP NAME:  TITLE.01 
* SOURCE FILE: TITLE.01

012773 BL                               V     C        00:00:00:00 00:00:12:21 02:12:48:05 02:13:01:01
* SOURCE FILE: (NULL)

012775 BL                               V     C        00:00:00:00 00:01:34:11 02:13:01:01 02:14:35:12
* SOURCE FILE: (NULL)

012776 BL                               V     C        00:00:00:00 00:04:21:17 02:13:01:01 02:17:22:18
* SOURCE FILE: (NULL)

012785 MSMMMOB.03                       V     C        11:48:40:10 11:48:42:06 02:13:01:10 02:13:03:06
* FROM CLIP NAME:  A037C015_190804_R32C 
* SOURCE FILE: MSMMMOB.03

012798 MSMMMOB.08                       V     C        11:39:25:14 11:39:28:08 02:13:03:06 02:13:06:00
* FROM CLIP NAME:  A037C013_190804_R32C 
* SOURCE FILE: MSMMMOB.08

012805 MSMMMOB.35                       V     C        11:39:02:18 11:39:04:17 02:13:06:00 02:13:08:00
* FROM CLIP NAME:  B030C016_190828_A1Y8 
* SOURCE FILE: MSMMMOB.35

012819 MSMMMOB.57                       V     C        12:08:00:10 12:08:03:05 02:13:08:00 02:13:10:19
* FROM CLIP NAME:  A103C001_190828_R3DN 
* SOURCE FILE: MSMMMOB.57

012830 MSMMMOB.35                       V     C        11:39:12:00 11:39:17:22 02:13:10:19 02:13:16:16
* FROM CLIP NAME:  B030C016_190828_A1Y8 
* SOURCE FILE: MSMMMOB.35

012849 MSMMMOB.57                       V     C        12:08:13:12 12:08:18:23 02:13:16:16 02:13:22:02
* FROM CLIP NAME:  A103C001_190828_R3DN 
* SOURCE FILE: MSMMMOB.57

012857 MSMMMOB.49                       V     C        12:40:44:06 12:40:47:16 02:13:22:02 02:13:25:12
* FROM CLIP NAME:  A103C007_190828_R3DN 
* SOURCE FILE: MSMMMOB.49

012862 MSMMMOB.06                       V     C        12:08:22:01 12:08:26:08 02:13:25:12 02:13:29:19
* FROM CLIP NAME:  B031C001_190828_A1Y8 
* SOURCE FILE: MSMMMOB.06

012874 MSMMMOB.49                       V     C        12:40:48:02 12:40:50:10 02:13:29:19 02:13:32:02
* FROM CLIP NAME:  A103C007_190828_R3DN 
* SOURCE FILE: MSMMMOB.49

012875 MSMMMOB.06                       V     C        12:08:28:16 12:08:30:00 02:13:32:02 02:13:33:11
* FROM CLIP NAME:  B031C001_190828_A1Y8 
* SOURCE FILE: MSMMMOB.06

012876 MSMMMOB.31                       V     C        12:37:52:03 12:37:53:15 02:13:33:11 02:13:34:23
* FROM CLIP NAME:  A103C006_190828_R3DN 
* SOURCE FILE: MSMMMOB.31

012877 MSMMMOB.89                       V     C        11:34:31:17 11:34:33:07 02:13:34:23 02:13:36:13
* FROM CLIP NAME:  A102C003_190828_R3DN 
* SOURCE FILE: MSMMMOB.89

012886 MSMMMOB.35                       V     C        11:39:47:22 11:39:49:15 02:13:36:13 02:13:38:06
* FROM CLIP NAME:  B030C016_190828_A1Y8 
* SOURCE FILE: MSMMMOB.35

012887 MSMMMOB.89                       V     C        11:34:37:01 11:34:38:17 02:13:38:06 02:13:39:22
* FROM CLIP NAME:  A102C003_190828_R3DN 
* SOURCE FILE: MSMMMOB.89

012894 MSMMMOB.31                       V     C        12:38:03:10 12:38:04:23 02:13:39:22 02:13:41:10
* FROM CLIP NAME:  A103C006_190828_R3DN 
* SOURCE FILE: MSMMMOB.31

012895 MSMMMOB.18                       V     C        11:34:43:01 11:34:45:03 02:13:41:10 02:13:43:12
* FROM CLIP NAME:  B030C015_190828_A1Y8 
* SOURCE FILE: MSMMMOB.18

012907 MSMMMOB.06                       V     C        12:09:06:21 12:09:08:07 02:13:43:12 02:13:44:23
* FROM CLIP NAME:  B031C001_190828_A1Y8 
* SOURCE FILE: MSMMMOB.06

012908 MSMMMOB.82                       V     C        12:22:05:00 12:22:06:19 02:13:44:23 02:13:46:17
* FROM CLIP NAME:  B031C003_190828_A1Y8 
* SOURCE FILE: MSMMMOB.82

012916 MSMMMOB.06                       V     C        12:09:13:07 12:09:15:07 02:13:46:17 02:13:48:17
* FROM CLIP NAME:  B031C001_190828_A1Y8 
* SOURCE FILE: MSMMMOB.06

012937 MSMMMOB.82                       V     C        12:22:09:09 12:22:14:17 02:13:48:17 02:13:54:00
* FROM CLIP NAME:  B031C003_190828_A1Y8 
* SOURCE FILE: MSMMMOB.82

012946 MSMMMOB.47                       V     C        11:17:29:10 11:17:32:09 02:13:54:00 02:13:57:00
* FROM CLIP NAME:  A102C001_190828_R3DN 
* SOURCE FILE: MSMMMOB.47

012957 MSMMMOB.37                       V     C        12:20:00:18 12:20:02:10 02:13:57:00 02:13:58:16
* FROM CLIP NAME:  A103C002_190828_R3DN 
* SOURCE FILE: MSMMMOB.37

012973 MSMMMOB.46                       V     C        14:16:18:00 14:16:19:23 02:13:58:16 02:14:00:14
* FROM CLIP NAME:  A104C010_190828_R3DN 
* SOURCE FILE: MSMMMOB.46

012983 MSMMMOB.22                       V     C        12:22:18:22 12:22:24:10 02:14:00:14 02:14:06:02
* FROM CLIP NAME:  A103C003_190828_R3DN 
* SOURCE FILE: MSMMMOB.22

012992 CINEMASCOPE_2-35-1_CROPLINES.PNG V     C        01:00:00:00 01:02:53:09 02:14:03:01 02:16:56:10
* FROM CLIP NAME:  CINEMASCOPE 2-35-1 CROPLINES.PNG 
* SOURCE FILE: CINEMASCOPE 2-35-1 CROPLINES.PNG

013000 MSMMMOB.66                       V     C        12:03:43:22 12:03:45:18 02:14:06:02 02:14:07:23
* FROM CLIP NAME:  A102C007_190828_R3DN 
* SOURCE FILE: MSMMMOB.66

013015 MSMMMOB.22                       V     C        12:22:25:23 12:22:27:18 02:14:07:23 02:14:09:18
* FROM CLIP NAME:  A103C003_190828_R3DN 
* SOURCE FILE: MSMMMOB.22

013023 MSMMMOB.06                       V     C        12:10:34:05 12:10:38:02 02:14:09:18 02:14:13:15
* FROM CLIP NAME:  B031C001_190828_A1Y8 
* SOURCE FILE: MSMMMOB.06

013031 MSMMMOB.47                       V     C        11:17:46:09 11:17:48:04 02:14:13:15 02:14:15:10
* FROM CLIP NAME:  A102C001_190828_R3DN 
* SOURCE FILE: MSMMMOB.47

013038 MSMMMOB.82                       V     C        12:22:33:07 12:22:35:00 02:14:15:10 02:14:17:03
* FROM CLIP NAME:  B031C003_190828_A1Y8 
* SOURCE FILE: MSMMMOB.82

013039 MSMMMOB.02                       V     C        14:06:47:09 14:06:50:06 02:14:17:03 02:14:20:00
* FROM CLIP NAME:  A104C009_190828_R3DN 
* SOURCE FILE: MSMMMOB.02

013049 MSMMMOB.07                       V     C        12:51:17:08 12:51:19:01 02:14:20:00 02:14:21:18
* FROM CLIP NAME:  A103C010_190828_R3DN 
* SOURCE FILE: MSMMMOB.07

013053 MSMMMOB.23                       V     C        12:50:06:06 12:50:08:13 02:14:21:18 02:14:24:00
* FROM CLIP NAME:  B031C006_190828_A1Y8 
* SOURCE FILE: MSMMMOB.23

013057 MSMMMOB.49                       V     C        12:41:24:12 12:41:27:08 02:14:24:00 02:14:26:21
* FROM CLIP NAME:  A103C007_190828_R3DN 
* SOURCE FILE: MSMMMOB.49

013067 MSMMMOB.63                       V     C        19:45:25:22 19:45:31:10 02:14:26:21 02:14:32:09
* FROM CLIP NAME:  M120_C001_20190821_R 
* SOURCE FILE: MSMMMOB.63

013079 MSMMMOB.61                       V     C        18:52:09:13 18:52:12:16 02:14:32:09 02:14:35:12
* FROM CLIP NAME:  A095C001_190821_R32C 
* SOURCE FILE: MSMMMOB.61

013089 MSMMMOB.58                       V     C        19:32:48:00 19:33:00:11 02:14:35:12 02:14:48:00
* FROM CLIP NAME:  A095C008_190821_R32C 
* SOURCE FILE: MSMMMOB.58

013090 BL                               V     C        00:00:00:00 00:00:12:12 02:14:35:12 02:14:48:00
* SOURCE FILE: (NULL)

013097 MSMMMOB.41                       V     C        19:19:18:19 19:19:24:00 02:14:48:00 02:14:53:04
* FROM CLIP NAME:  A095C007_190821_R32C 
* SOURCE FILE: MSMMMOB.41

013098 BL                               V     C        00:00:00:00 00:00:29:11 02:14:48:00 02:15:17:10
* SOURCE FILE: (NULL)

013105 MSMMMOB.61                       V     C        18:51:28:07 18:51:30:15 02:14:53:04 02:14:55:12
* FROM CLIP NAME:  A095C001_190821_R32C 
* SOURCE FILE: MSMMMOB.61

013109 MSMMMOB.75                       V     C        19:13:47:01 19:13:56:00 02:14:55:12 02:15:04:11
* FROM CLIP NAME:  A095C006_190821_R32C 
* SOURCE FILE: MSMMMOB.75

013114 MSMMMOB.61                       V     C        18:51:41:05 18:51:43:11 02:15:04:11 02:15:06:17
* FROM CLIP NAME:  A095C001_190821_R32C 
* SOURCE FILE: MSMMMOB.61

013126 MSMMMOB.75                       V     C        19:13:56:00 19:14:02:07 02:15:06:17 02:15:13:00
* FROM CLIP NAME:  A095C006_190821_R32C 
* SOURCE FILE: MSMMMOB.75

013127 MSMMMOB.69                       V     C        19:03:35:12 19:03:39:22 02:15:13:00 02:15:17:09
* FROM CLIP NAME:  A095C003_190821_R32C 
* SOURCE FILE: MSMMMOB.69

013137 MSMMMOB.41                       V     C        19:19:44:12 19:19:50:23 02:15:17:09 02:15:23:20
* FROM CLIP NAME:  A095C007_190821_R32C 
* SOURCE FILE: MSMMMOB.41

013141 BL                               V     C        00:00:00:00 00:00:06:10 02:15:17:10 02:15:23:20
* SOURCE FILE: (NULL)

013151 MSMMMOB.69                       V     C        19:03:47:07 19:03:49:21 02:15:23:20 02:15:26:09
* FROM CLIP NAME:  A095C003_190821_R32C 
* SOURCE FILE: MSMMMOB.69

013152 BL                               V     C        00:00:00:00 00:00:18:09 02:15:23:20 02:15:42:04
* SOURCE FILE: (NULL)

013161 MSMMMOB.41                       V     C        19:19:50:23 19:19:53:22 02:15:26:09 02:15:29:08
* FROM CLIP NAME:  A095C007_190821_R32C 
* SOURCE FILE: MSMMMOB.41

013168 MSMMMOB.69                       V     C        19:03:50:13 19:03:59:12 02:15:29:08 02:15:38:07
* FROM CLIP NAME:  A095C003_190821_R32C 
* SOURCE FILE: MSMMMOB.69

013176 MSMMMOB.75                       V     C        19:14:29:16 19:14:31:11 02:15:38:07 02:15:40:02
* FROM CLIP NAME:  A095C006_190821_R32C 
* SOURCE FILE: MSMMMOB.75

013179 MSMMMOB.38                       V     C        19:40:34:01 19:40:36:03 02:15:40:02 02:15:42:04
* FROM CLIP NAME:  A096C001_190821_R32C 
* SOURCE FILE: MSMMMOB.38

013182 BL                               V     C        00:00:00:00 00:00:02:07 02:15:42:04 02:15:44:11
* SOURCE FILE: (NULL)

013180 MSMMMOB.63                       V     C        19:46:08:10 19:46:10:17 02:15:42:04 02:15:44:11
* FROM CLIP NAME:  M120_C001_20190821_R 
* SOURCE FILE: MSMMMOB.63

013181 GLDR-BAL-030_V01                 V     C        00:00:00:00 00:00:02:07 02:15:42:04 02:15:44:11
* FROM CLIP NAME:  GLDR-BAL-030_V01 
* SOURCE FILE: GLDR-BAL-030_V01

013184 MSMMMOB.19                       V     C        20:35:23:19 20:35:30:03 02:15:44:11 02:15:50:20
* FROM CLIP NAME:  M097_C044_20190720_R 
* SOURCE FILE: MSMMMOB.19

013183 BL                               V     C        00:00:00:00 00:00:06:09 02:15:44:11 02:15:50:20
* SOURCE FILE: (NULL)

013185 BL                               V     C        00:00:00:00 00:00:10:04 02:15:44:11 02:15:54:15
* SOURCE FILE: (NULL)

013186 MSMMMOB.69                       V     C        19:03:59:10 19:04:03:05 02:15:50:20 02:15:54:15
* FROM CLIP NAME:  A095C003_190821_R32C 
* SOURCE FILE: MSMMMOB.69

013187 BL                               V     C        00:00:00:00 00:00:03:21 02:15:50:20 02:15:54:16
* SOURCE FILE: (NULL)

013188 MSMMMOB.19                       V     C        20:35:34:07 20:35:39:00 02:15:54:15 02:15:59:07
* FROM CLIP NAME:  M097_C044_20190720_R 
* SOURCE FILE: MSMMMOB.19

013189 GLDR-BAL-050_V03                 V     C        00:00:00:00 00:00:05:00 02:15:54:15 02:15:59:15
* FROM CLIP NAME:  GLDR-BAL-050_V03 
* SOURCE FILE: GLDR-BAL-050_V03

013190 BL                               V     C        00:00:00:00 00:00:04:16 02:15:54:16 02:15:59:07
* SOURCE FILE: (NULL)

013191 MSMMMOB.63                       V     C        19:46:03:01 19:46:03:02 02:15:59:07 02:16:03:17
* FROM CLIP NAME:  M120_C001_20190821_R 
* SOURCE FILE: MSMMMOB.63

013192 BL                               V     C        00:00:00:00 00:00:04:11 02:15:59:07 02:16:03:18
* SOURCE FILE: (NULL)

013193 BL                               V     C        00:00:00:00 00:00:07:15 02:15:59:15 02:16:07:05
* SOURCE FILE: (NULL)

013194 MSMMMOB.19                       V     C        19:47:33:23 19:47:37:11 02:16:03:17 02:16:07:05
* FROM CLIP NAME:  M120_C002_20190821_R 
* SOURCE FILE: MSMMMOB.19

013195 BL                               V     C        00:00:00:00 00:00:03:12 02:16:03:18 02:16:07:05
* SOURCE FILE: (NULL)

013200 GLDR-BAL-080_V01                 V     C        00:00:00:00 00:00:02:21 02:16:07:05 02:16:10:01
* FROM CLIP NAME:  GLDR-BAL-080_V01 
* SOURCE FILE: GLDR-BAL-080_V01

013199 MSMMMOB.69                       V     C        19:04:11:23 19:04:14:19 02:16:07:05 02:16:10:01
* FROM CLIP NAME:  A095C003_190821_R32C 
* SOURCE FILE: MSMMMOB.69

013203 BL                               V     C        00:00:00:00 00:00:20:15 02:16:07:05 02:16:27:20
* SOURCE FILE: (NULL)

013210 MSMMMOB.41                       V     C        19:20:07:00 19:20:13:23 02:16:10:01 02:16:17:00
* FROM CLIP NAME:  A095C007_190821_R32C 
* SOURCE FILE: MSMMMOB.41

013211 GLDR-BAL-090_V02                 V     C        00:00:00:00 00:00:06:23 02:16:10:01 02:16:17:00
* FROM CLIP NAME:  GLDR-BAL-090_V02 
* SOURCE FILE: GLDR-BAL-090_V02

013222 MSMMMOB.69                       V     C        19:04:43:01 19:04:46:10 02:16:17:00 02:16:20:08
* FROM CLIP NAME:  A095C003_190821_R32C 
* SOURCE FILE: MSMMMOB.69

013223 GLDR-BAL-100_V01                 V     C        00:00:00:00 00:00:03:09 02:16:17:00 02:16:20:08
* FROM CLIP NAME:  GLDR-BAL-100_V01 
* SOURCE FILE: GLDR-BAL-100_V01

013228 MSMMMOB.41                       V     C        19:20:18:19 19:20:21:11 02:16:20:08 02:16:23:00
* FROM CLIP NAME:  A095C007_190821_R32C 
* SOURCE FILE: MSMMMOB.41

013227 BL                               V     C        00:00:00:00 00:00:02:17 02:16:20:08 02:16:23:00
* SOURCE FILE: (NULL)

013235 GLDR-BAL-120_V01                 V     C        00:00:00:00 00:00:04:20 02:16:23:00 02:16:27:20
* FROM CLIP NAME:  GLDR-BAL-120_V01 
* SOURCE FILE: GLDR-BAL-120_V01

013236 MSMMMOB.69                       V     C        19:04:49:23 19:04:54:18 02:16:23:00 02:16:27:20
* FROM CLIP NAME:  A095C003_190821_R32C 
* SOURCE FILE: MSMMMOB.69

013240 GLDR-BAL-130_TEST_02             V     C        00:00:00:00 00:00:02:05 02:16:27:20 02:16:30:00
* FROM CLIP NAME:  GLDR-BAL-130_TEST_02 
* SOURCE FILE: GLDR-BAL-130_TEST_02
* FROM CLIP NAME:  M118_C018_20190821_R 
* SOURCE FILE:

013243 BL                               V     C        00:00:00:00 00:00:02:05 02:16:27:20 02:16:30:00
* SOURCE FILE: (NULL)

013241 GLDR-BAL-130_V01                 V     C        00:00:00:00 00:00:02:05 02:16:27:20 02:16:30:00
* FROM CLIP NAME:  GLDR-BAL-130_V01 
* SOURCE FILE: GLDR-BAL-130_V01

013248 MSMMMOB.69                       V     C        19:04:54:22 19:04:57:10 02:16:30:00 02:16:32:13
* FROM CLIP NAME:  A095C003_190821_R32C 
* SOURCE FILE: MSMMMOB.69

013247 GLDR-BAL-140_V02                 V     C        00:00:00:00 00:00:02:13 02:16:30:00 02:16:32:13
* FROM CLIP NAME:  GLDR-BAL-140_V02 
* SOURCE FILE: GLDR-BAL-140_V02

013252 BL                               V     C        00:00:00:00 00:00:06:17 02:16:30:00 02:16:36:17
* SOURCE FILE: (NULL)

013253 BL                               V     C        00:00:00:00 00:00:12:17 02:16:30:00 02:16:42:17
* SOURCE FILE: (NULL)

013259 MSMMMOB.22                       V     C        20:18:37:06 20:18:39:18 02:16:32:13 02:16:35:00
* FROM CLIP NAME:  A079C005_190814_R32C 
* SOURCE FILE: MSMMMOB.22

013261 BL                               V     C        00:00:00:00 00:00:04:04 02:16:32:13 02:16:36:17
* SOURCE FILE: (NULL)

013272 MSMMMOB.52                       V     C        18:59:36:23 18:59:38:15 02:16:35:00 02:16:36:17
* FROM CLIP NAME:  B026C012_190814_R481 
* SOURCE FILE: MSMMMOB.52

013279 BL                               V     C        00:00:00:00 00:00:02:00 02:16:36:17 02:16:38:17
* SOURCE FILE: (NULL)

013281 GLDR-BAL-150_V01                 V     C        00:00:00:00 00:00:02:04 02:16:36:17 02:16:38:21
* FROM CLIP NAME:  GLDR-BAL-150_V01 
* SOURCE FILE: GLDR-BAL-150_V01

013280 MSMMMOB.13                       V     C        20:18:38:09 20:18:40:13 02:16:36:17 02:16:38:21
* FROM CLIP NAME:  B027C005_190814_R481 
* SOURCE FILE: MSMMMOB.13

013289 BL                               V     C        00:00:00:00 00:00:04:00 02:16:38:17 02:16:42:17
* SOURCE FILE: (NULL)

013290 MSMMMOB.52                       V     C        19:00:23:19 19:00:24:10 02:16:38:21 02:16:39:12
* FROM CLIP NAME:  B026C012_190814_R481 
* SOURCE FILE: MSMMMOB.52

013291 BL                               V     C        00:00:00:00 00:00:03:21 02:16:38:21 02:16:42:17
* SOURCE FILE: (NULL)

013292 MSMMMOB.81                       V     C        12:14:58:20 12:14:59:06 02:16:39:12 02:16:39:23
* FROM CLIP NAME:  96A_103_98A-3-2 
* SOURCE FILE: MSMMMOB.81

013293 MSMMMOB.47                       V     C        10:46:41:01 10:46:41:21 02:16:39:23 02:16:40:18
* FROM CLIP NAME:  96A_103_98A-1-2 
* SOURCE FILE: MSMMMOB.47

013299 MSMMMOB.52                       V     C        19:00:24:10 19:00:25:00 02:16:40:18 02:16:41:07
* FROM CLIP NAME:  B026C012_190814_R481 
* SOURCE FILE: MSMMMOB.52

013310 MSMMMOB.17                       V     C        18:16:51:01 18:16:52:11 02:16:41:07 02:16:42:17
* FROM CLIP NAME:  B026C008_190814_R481 
* SOURCE FILE: MSMMMOB.17

013321 BL                               V     C        00:00:00:00 00:00:01:21 02:16:42:17 02:16:44:13
* SOURCE FILE: (NULL)
* FROM CLIP NAME:  M118_C009_20190821_R 
* SOURCE FILE:

013322 GLDR-BAL-160_01                  V     C        00:00:00:00 00:00:01:21 02:16:42:17 02:16:44:13
* FROM CLIP NAME:  GLDR-BAL-160_01 
* SOURCE FILE: GLDR-BAL-160_01

013323 GLDR-BAL-160_TEST_01             V     C        00:00:00:00 00:00:01:21 02:16:42:17 02:16:44:13
* FROM CLIP NAME:  GLDR-BAL-160_TEST_01 
* SOURCE FILE: GLDR-BAL-160_TEST_01

013331 MSMMMOB.63                       V     C        19:46:13:06 19:46:14:22 02:16:44:13 02:16:46:04
* FROM CLIP NAME:  M120_C001_20190821_R 
* SOURCE FILE: MSMMMOB.63

013332 BL                               V     C        00:00:00:00 00:00:08:12 02:16:44:13 02:16:53:00
* SOURCE FILE: (NULL)

013333 BL                               V     C        00:00:00:00 00:00:09:21 02:16:44:13 02:16:54:09
* SOURCE FILE: (NULL)

013334 BL                               V     C        00:00:00:00 00:00:09:21 02:16:44:13 02:16:54:09
* SOURCE FILE: (NULL)

013349 MSMMMOB.69                       V     C        19:05:22:08 19:05:24:10 02:16:46:04 02:16:48:06
* FROM CLIP NAME:  A095C003_190821_R32C 
* SOURCE FILE: MSMMMOB.69

013354 MSMMMOB.69                       V     C        19:05:27:23 19:05:29:17 02:16:48:06 02:16:50:00
* FROM CLIP NAME:  A095C003_190821_R32C 
* SOURCE FILE: MSMMMOB.69

013359 MSMMMOB.69                       V     C        19:05:30:08 19:05:31:20 02:16:50:00 02:16:51:12
* FROM CLIP NAME:  A095C003_190821_R32C 
* SOURCE FILE: MSMMMOB.69

013364 MSMMMOB.69                       V     C        19:05:32:20 19:05:34:08 02:16:51:12 02:16:53:00
* FROM CLIP NAME:  A095C003_190821_R32C 
* SOURCE FILE: MSMMMOB.69

013369 BL                               V     C        00:00:00:00 00:00:01:09 02:16:53:00 02:16:54:09
* SOURCE FILE: (NULL)

013370 MSMMMOB.32                       V     C        20:09:32:03 20:09:33:12 02:16:53:00 02:16:54:09
* FROM CLIP NAME:  A096C004_190821_R32C 
* SOURCE FILE: MSMMMOB.32

013378 BL                               V     C        00:00:00:00 00:00:02:11 02:16:54:09 02:16:56:20
* SOURCE FILE: (NULL)

013377 GLDR-BAL-220_TEST_03             V     C        00:00:00:00 00:00:03:11 02:16:54:09 02:16:56:20
* FROM CLIP NAME:  GLDR-BAL-220_TEST_03 
* SOURCE FILE: GLDR-BAL-220_TEST_03 
* REPAIR: FROM SOURCE TRUE SPEED IS 35.655739 FPS

013379 GLDR-BAL-220_V02                 V     C        00:00:00:00 00:00:03:15 02:16:54:09 02:16:56:20
* FROM CLIP NAME:  GLDR-BAL-220_V02 
* SOURCE FILE: GLDR-BAL-220_V02 
* REPAIR: FROM SOURCE TRUE SPEED IS 37.295082 FPS

013380 GLDR-BAL-220_V01                 V     C        00:00:00:00 00:00:03:15 02:16:54:09 02:16:56:20
* FROM CLIP NAME:  GLDR-BAL-220_V01 
* SOURCE FILE: GLDR-BAL-220_V01 
* REPAIR: FROM SOURCE TRUE SPEED IS 37.295082 FPS
* FROM CLIP NAME:  M118_C017_20190821_R 
* SOURCE FILE:

013385 BL                               V     C        00:00:00:00 00:00:07:16 02:16:56:10 02:17:04:01
* SOURCE FILE: (NULL)

013386 CINEMASCOPE_2-35-1_CROPLINES.PNG V     C        01:00:00:00 01:01:53:09 02:16:56:10 02:18:49:19
* FROM CLIP NAME:  CINEMASCOPE 2-35-1 CROPLINES.PNG 
* SOURCE FILE: CINEMASCOPE 2-35-1 CROPLINES.PNG

013389 BL                               V     C        00:00:00:00 00:00:02:23 02:16:56:20 02:16:59:18
* SOURCE FILE: (NULL)
* FROM CLIP NAME:  A094C007_190821_R32C 
* SOURCE FILE:

013395 BL                               V     C        00:00:00:00 00:00:07:06 02:16:56:20 02:17:04:01
* SOURCE FILE: (NULL)

013396 BL                               V     C        00:00:00:00 00:00:32:11 02:16:56:20 02:17:29:06
* SOURCE FILE: (NULL)

013397 BL                               V     C        00:00:00:00 00:10:17:06 02:16:56:20 02:27:14:01
* SOURCE FILE: (NULL)
* FROM CLIP NAME:  M118_C019_20190821_R 
* SOURCE FILE:

013399 BL                               V     C        00:00:00:00 00:00:02:20 02:16:59:18 02:17:02:13
* SOURCE FILE: (NULL)

013408 MSMMMOB.38                       V     C        19:43:32:11 19:43:34:00 02:17:02:13 02:17:04:01
* FROM CLIP NAME:  A096C001_190821_R32C 
* SOURCE FILE: MSMMMOB.38

013409 BL                               V     C        00:00:00:00 00:00:01:13 02:17:02:13 02:17:04:01
* SOURCE FILE: (NULL)

013420 GLDR-BAL-260_V02                 V     C        00:00:00:00 00:00:02:09 02:17:04:01 02:17:06:10
* FROM CLIP NAME:  GLDR-BAL-260_V02 
* SOURCE FILE: GLDR-BAL-260_V02

013419 M108_C023_20190729_R.MOV         V     C        15:54:10:04 15:54:12:13 02:17:04:01 02:17:06:10
* FROM CLIP NAME:  M108_C023_20190729_R.NEW.01 
* SOURCE FILE: M108_C023_20190729_R.MOV

013417 BL                               V     C        00:00:00:00 00:00:02:09 02:17:04:01 02:17:06:10
* SOURCE FILE: (NULL)
* FROM CLIP NAME:  A094C012_190821_R32C 
* SOURCE FILE:

013430 MSMMMOB.38                       V     C        19:43:33:22 19:43:35:09 02:17:06:10 02:17:07:22
* FROM CLIP NAME:  A096C001_190821_R32C 
* SOURCE FILE: MSMMMOB.38

013431 BL                               V     C        00:00:00:00 00:00:01:13 02:17:06:10 02:17:07:23
* SOURCE FILE: (NULL)

013433 BL                               V     C        00:00:00:00 00:00:03:00 02:17:06:10 02:17:09:09
* SOURCE FILE: (NULL)

013432 BL                               V     C        00:00:00:00 00:00:03:00 02:17:06:10 02:17:09:09
* SOURCE FILE: (NULL)

013449 BL                               V     C        00:00:00:00 00:00:01:11 02:17:07:23 02:17:09:09
* SOURCE FILE: (NULL)

013456 MSMMMOB.13                       V     C        20:18:59:06 20:19:01:05 02:17:09:09 02:17:11:08
* FROM CLIP NAME:  B027C005_190814_R481 
* SOURCE FILE: MSMMMOB.13

013455 GLDR-BAL-290_V01                 V     C        00:00:00:00 00:00:02:00 02:17:09:09 02:17:11:08
* FROM CLIP NAME:  GLDR-BAL-290_V01 
* SOURCE FILE: GLDR-BAL-290_V01
* FROM CLIP NAME:  A094C008_190821_R32C 
* SOURCE FILE:

013458 BL                               V     C        00:00:00:00 00:00:02:00 02:17:09:09 02:17:11:08
* SOURCE FILE: (NULL)

013464 MSMMMOB.20                       V     C        18:15:06:13 18:15:07:14 02:17:11:08 02:17:12:09
* FROM CLIP NAME:  B026C007_190814_R481 
* SOURCE FILE: MSMMMOB.20

013465 BL                               V     C        00:00:00:00 00:00:11:08 02:17:11:08 02:17:22:16
* SOURCE FILE: (NULL)

013466 BL                               V     C        00:00:00:00 00:00:11:10 02:17:11:08 02:17:22:18
* SOURCE FILE: (NULL)

013467 BL                               V     C        00:00:00:00 00:00:40:10 02:17:11:08 02:17:51:18
* SOURCE FILE: (NULL)

013473 MSMMMOB.52                       V     C        19:00:04:13 19:00:09:00 02:17:12:09 02:17:16:21
* FROM CLIP NAME:  B026C012_190814_R481 
* SOURCE FILE: MSMMMOB.52

013486 MSMMMOB.39                       V     C        00:25:00:19 00:25:06:14 02:17:16:21 02:17:22:16
* FROM CLIP NAME:  A104C017_190828_R3DN 
* SOURCE FILE: MSMMMOB.39

013497 GLDR-BAL-300_V02                 V     C        00:00:00:00 00:00:02:23 02:17:22:16 02:17:25:14
* FROM CLIP NAME:  GLDR-BAL-300_V02 
* SOURCE FILE: GLDR-BAL-300_V02

013498 MSMMMOB.77                       V     C        00:19:03:00 00:19:05:22 02:17:22:16 02:17:25:14
* FROM CLIP NAME:  A104C014_190828_R3DN 
* SOURCE FILE: MSMMMOB.77

013499 BL                               V     C        00:00:00:00 00:00:02:01 02:17:22:18 02:17:24:19
* SOURCE FILE: (NULL)

013500 3                                V     C        01:00:00:00 01:00:02:01 02:17:22:18 02:17:24:19
* FROM CLIP NAME:  3 
* SOURCE FILE: 3

013501 BL                               V     C        00:00:00:00 00:00:05:20 02:17:24:19 02:17:30:14
* SOURCE FILE: (NULL)

013502 BL                               V     C        00:00:00:00 00:07:03:17 02:17:24:19 02:24:28:11
* SOURCE FILE: (NULL)

013503 GLDR-BAL-310_V01                 V     C        00:00:00:00 00:00:02:13 02:17:25:14 02:17:28:02
* FROM CLIP NAME:  GLDR-BAL-310_V01 
* SOURCE FILE: GLDR-BAL-310_V01

013504 MSMMMOB.72                       V     C        00:44:18:10 00:44:20:23 02:17:25:14 02:17:28:02
* FROM CLIP NAME:  A104C021_190828_R3DN 
* SOURCE FILE: MSMMMOB.72

013511 MSMMMOB.32                       V     C        00:35:11:00 00:35:12:04 02:17:28:02 02:17:29:06
* FROM CLIP NAME:  A104C019_190828_R3DN 
* SOURCE FILE: MSMMMOB.32

013512 BL                               V     C        00:00:00:00 00:00:01:04 02:17:28:02 02:17:29:06
* SOURCE FILE: (NULL)

013522 GLDR-BAL-320_01                  V     C        00:00:00:00 00:00:06:19 02:17:29:06 02:17:35:04
* FROM CLIP NAME:  GLDR-BAL-320_01 
* SOURCE FILE: GLDR-BAL-320_01 
* REPAIR: FROM SOURCE TRUE SPEED IS 28.716217 FPS

013523 GLDR-BAL-320_TEST_01             V     C        00:00:00:00 00:00:06:17 02:17:29:06 02:17:35:04
* FROM CLIP NAME:  GLDR-BAL-320_TEST_01 
* SOURCE FILE: GLDR-BAL-320_TEST_01 
* REPAIR: FROM SOURCE TRUE SPEED IS 28.378378 FPS

013524 BL                               V     C        00:00:00:00 00:00:04:15 02:17:30:14 02:17:35:04
* SOURCE FILE: (NULL)

013541 MSMMMOB.58                       V     C        18:31:57:05 18:31:59:00 02:17:35:04 02:17:37:00
* FROM CLIP NAME:  B026C010_190814_R481 
* SOURCE FILE: MSMMMOB.58

013543 BL                               V     C        00:00:00:00 00:00:03:20 02:17:35:04 02:17:39:00
* SOURCE FILE: (NULL)

013542 BL                               V     C        00:00:00:00 00:00:03:20 02:17:35:04 02:17:39:00
* SOURCE FILE: (NULL)

013544 BL                               V     C        00:00:00:00 00:00:07:16 02:17:35:04 02:17:42:20
* SOURCE FILE: (NULL)

013554 MSMMMOB.03                       V     C        20:23:00:23 20:23:02:23 02:17:37:00 02:17:39:00
* FROM CLIP NAME:  A079C006_190814_R32C 
* SOURCE FILE: MSMMMOB.03

013558 GLDR-BAL-330_V01                 V     C        00:00:00:00 00:00:02:08 02:17:39:00 02:17:41:07
* FROM CLIP NAME:  GLDR-BAL-330_V01 
* SOURCE FILE: GLDR-BAL-330_V01

013560 BL                               V     C        00:00:00:00 00:00:02:08 02:17:39:00 02:17:41:07
* SOURCE FILE: (NULL)

013559 MSMMMOB.66                       V     C        20:03:29:22 20:03:32:05 02:17:39:00 02:17:41:07
* FROM CLIP NAME:  B027C004_190814_R481 
* SOURCE FILE: MSMMMOB.66

013565 BL                               V     C        00:00:00:00 00:00:01:13 02:17:41:07 02:17:42:20
* SOURCE FILE: (NULL)

013567 BL                               V     C        00:00:00:00 00:00:01:13 02:17:41:07 02:17:42:20
* SOURCE FILE: (NULL)

013574 BL                               V     C        00:00:00:00 00:00:02:05 02:17:42:20 02:17:45:00
* SOURCE FILE: (NULL)

013573 GLDR-BAL-350_V01                 V     C        00:00:00:00 00:00:02:05 02:17:42:20 02:17:45:00
* FROM CLIP NAME:  GLDR-BAL-350_V01 
* SOURCE FILE: GLDR-BAL-350_V01
* FROM CLIP NAME:  M118_C016_20190821_R 
* SOURCE FILE:

013576 GLDR-BAL-350_TEST_V01.1          V     C        00:00:00:00 00:00:02:05 02:17:42:20 02:17:45:00
* FROM CLIP NAME:  GLDR-BAL-350_TEST_V01 
* SOURCE FILE: GLDR-BAL-350_TEST_V01.1
* FROM CLIP NAME:  M118_C016_20190821_R 
* SOURCE FILE:
* FROM CLIP NAME:  M118_C016_20190821_R 
* SOURCE FILE:

013580 MSMMMOB.41                       V     C        19:22:37:08 19:22:38:17 02:17:45:00 02:17:46:09
* FROM CLIP NAME:  A095C007_190821_R32C 
* SOURCE FILE: MSMMMOB.41

013581 BL                               V     C        00:00:00:00 00:00:01:09 02:17:45:00 02:17:46:09
* SOURCE FILE: (NULL)

013579 BL                               V     C        00:00:00:00 00:00:01:09 02:17:45:00 02:17:46:09
* SOURCE FILE: (NULL)

013586 BL                               V     C        00:00:00:00 00:00:17:15 02:17:45:00 02:18:02:15
* SOURCE FILE: (NULL)

013588 GLDR-BAL-370_V01                 V     C        00:00:00:00 00:00:01:06 02:17:46:09 02:17:47:15
* FROM CLIP NAME:  GLDR-BAL-370_V01 
* SOURCE FILE: GLDR-BAL-370_V01

013589 BL                               V     C        00:00:00:00 00:00:01:06 02:17:46:09 02:17:47:15
* SOURCE FILE: (NULL)

013587 MSMMMOB.66                       V     C        20:03:35:23 20:03:37:04 02:17:46:09 02:17:47:15
* FROM CLIP NAME:  B027C004_190814_R481 
* SOURCE FILE: MSMMMOB.66

013596 BL                               V     C        00:00:00:00 00:00:01:08 02:17:47:15 02:17:48:23
* SOURCE FILE: (NULL)

013595 MSMMMOB.30                       V     C        20:03:37:04 20:03:38:12 02:17:47:15 02:17:48:23
* FROM CLIP NAME:  A079C004_190814_R32C 
* SOURCE FILE: MSMMMOB.30

013594 BL                               V     C        00:00:00:00 00:00:01:08 02:17:47:15 02:17:48:23
* SOURCE FILE: (NULL)

013604 BL                               V     C        00:00:00:00 00:00:01:08 02:17:48:23 02:17:50:06
* SOURCE FILE: (NULL)

013602 GLDR-BAL-380_V01                 V     C        00:00:00:00 00:00:01:08 02:17:48:23 02:17:50:06
* FROM CLIP NAME:  GLDR-BAL-380_V01 
* SOURCE FILE: GLDR-BAL-380_V01

013603 MSMMMOB.66                       V     C        20:03:38:12 20:03:39:20 02:17:48:23 02:17:50:06
* FROM CLIP NAME:  B027C004_190814_R481 
* SOURCE FILE: MSMMMOB.66

013606 BL                               V     C        00:00:00:00 00:00:01:12 02:17:50:06 02:17:51:18
* SOURCE FILE: (NULL)

013607 GLDR-BAL-390_V01                 V     C        00:00:00:00 00:00:01:12 02:17:50:06 02:17:51:18
* FROM CLIP NAME:  GLDR-BAL-390_V01 
* SOURCE FILE: GLDR-BAL-390_V01
* FROM CLIP NAME:  A094C010_190821_R32C 
* SOURCE FILE:

013622 GLDR-BAL-400_V01                 V     C        00:00:00:00 00:00:01:17 02:17:51:18 02:17:53:10
* FROM CLIP NAME:  GLDR-BAL-400_V01 
* SOURCE FILE: GLDR-BAL-400_V01
* FROM CLIP NAME:  95G_100B_100D-6-1 
* SOURCE FILE:

013619 BL                               V     C        00:00:00:00 00:00:01:17 02:17:51:18 02:17:53:10
* SOURCE FILE: (NULL)
* FROM CLIP NAME:  M118_C019_20190821_R 
* SOURCE FILE:

013627 GLDR-BAL-410_V01                 V     C        00:00:00:00 00:00:02:01 02:17:53:10 02:17:55:11
* FROM CLIP NAME:  GLDR-BAL-410_V01 
* SOURCE FILE: GLDR-BAL-410_V01

013628 MSMMMOB.66                       V     C        20:03:44:04 20:03:46:05 02:17:53:10 02:17:55:11
* FROM CLIP NAME:  B027C004_190814_R481 
* SOURCE FILE: MSMMMOB.66

013629 BL                               V     C        00:00:00:00 00:00:02:01 02:17:53:10 02:17:55:11
* SOURCE FILE: (NULL)

013630 BL                               V     C        00:00:00:00 00:00:20:04 02:17:53:10 02:18:13:14
* SOURCE FILE: (NULL)

013636 BL                               V     C        00:00:00:00 00:00:01:03 02:17:55:11 02:17:56:14
* SOURCE FILE: (NULL)

013637 BL                               V     C        00:00:00:00 00:00:01:03 02:17:55:11 02:17:56:14
* SOURCE FILE: (NULL)

013635 MSMMMOB.30                       V     C        20:03:46:05 20:03:47:08 02:17:55:11 02:17:56:14
* FROM CLIP NAME:  A079C004_190814_R32C 
* SOURCE FILE: MSMMMOB.30

013648 MSMMMOB.03                       V     C        20:23:10:11 20:23:12:19 02:17:56:14 02:17:58:22
* FROM CLIP NAME:  A079C006_190814_R32C 
* SOURCE FILE: MSMMMOB.03

013647 BL                               V     C        00:00:00:00 00:00:02:08 02:17:56:14 02:17:58:22
* SOURCE FILE: (NULL)

013649 GLDR-BAL-420_V01                 V     C        00:00:00:00 00:00:02:08 02:17:56:14 02:17:58:22
* FROM CLIP NAME:  GLDR-BAL-420_V01 
* SOURCE FILE: GLDR-BAL-420_V01

013657 BL                               V     C        00:00:00:00 00:00:01:17 02:17:58:22 02:18:00:14
* SOURCE FILE: (NULL)

013658 MSMMMOB.66                       V     C        20:03:47:08 20:03:49:00 02:17:58:22 02:18:00:14
* FROM CLIP NAME:  B027C004_190814_R481 
* SOURCE FILE: MSMMMOB.66

013656 GLDR-BAL-430_V01                 V     C        00:00:00:00 00:00:01:17 02:17:58:22 02:18:00:14
* FROM CLIP NAME:  GLDR-BAL-430_V01 
* SOURCE FILE: GLDR-BAL-430_V01

013667 BL                               V     C        00:00:00:00 00:00:02:01 02:18:00:14 02:18:02:15
* SOURCE FILE: (NULL)

013669 MSMMMOB.41                       V     C        19:22:23:09 19:22:25:10 02:18:00:14 02:18:02:15
* FROM CLIP NAME:  A095C007_190821_R32C 
* SOURCE FILE: MSMMMOB.41

013668 BL                               V     C        00:00:00:00 00:00:02:01 02:18:00:14 02:18:02:15
* SOURCE FILE: (NULL)

013678 GLDR-BAL-450_TEST_V01            V     C        00:00:00:00 00:00:01:14 02:18:02:15 02:18:04:04
* FROM CLIP NAME:  GLDR-BAL-450_TEST_V01 
* SOURCE FILE: GLDR-BAL-450_TEST_V01

013680 GLDR-BAL-450_V01                 V     C        00:00:00:00 00:00:01:14 02:18:02:15 02:18:04:04
* FROM CLIP NAME:  GLDR-BAL-450_V01 
* SOURCE FILE: GLDR-BAL-450_V01
* FROM CLIP NAME:  M118_C016_20190821_R 
* SOURCE FILE:

013681 BL                               V     C        00:00:00:00 00:00:03:06 02:18:02:15 02:18:05:21
* SOURCE FILE: (NULL)

013686 GLDR-BAL-460_V01                 V     C        00:00:00:00 00:00:01:17 02:18:04:04 02:18:05:21
* FROM CLIP NAME:  GLDR-BAL-460_V01 
* SOURCE FILE: GLDR-BAL-460_V01

013688 GLDR-BAL-460_TEST_01             V     C        00:00:00:00 00:00:01:17 02:18:04:04 02:18:05:21
* FROM CLIP NAME:  GLDR-BAL-460_TEST_01 
* SOURCE FILE: GLDR-BAL-460_TEST_01

013711 BL                               V     C        00:00:00:00 00:00:00:18 02:18:05:21 02:18:06:14
* SOURCE FILE: (NULL)

013710 BL                               V     C        00:00:00:00 00:00:00:18 02:18:05:21 02:18:06:14
* SOURCE FILE: (NULL)

013709 MSMMMOB.41                       V     C        19:22:40:02 19:22:40:20 02:18:05:21 02:18:06:14
* FROM CLIP NAME:  A095C007_190821_R32C 
* SOURCE FILE: MSMMMOB.41

013712 BL                               V     C        00:00:00:00 00:00:24:15 02:18:05:21 02:18:30:11
* SOURCE FILE: (NULL)

013721 MSMMMOB.66                       V     C        20:03:55:22 20:03:59:23 02:18:06:14 02:18:10:15
* FROM CLIP NAME:  B027C004_190814_R481 
* SOURCE FILE: MSMMMOB.66

013722 GLDR-BAL-480_V01                 V     C        00:00:00:00 00:00:04:01 02:18:06:14 02:18:10:15
* FROM CLIP NAME:  GLDR-BAL-480_V01 
* SOURCE FILE: GLDR-BAL-480_V01

013723 BL                               V     C        00:00:00:00 00:00:04:01 02:18:06:14 02:18:10:15
* SOURCE FILE: (NULL)

013730 GLDR-BAL-490_V01                 V     C        00:00:00:00 00:00:03:00 02:18:10:15 02:18:13:14
* FROM CLIP NAME:  GLDR-BAL-490_V01 
* SOURCE FILE: GLDR-BAL-490_V01

013728 BL                               V     C        00:00:00:00 00:00:03:00 02:18:10:15 02:18:13:14
* SOURCE FILE: (NULL)
* FROM CLIP NAME:  A094C010_190821_R32C 
* SOURCE FILE:

013751 GLDR-BAL-500_V01                 V     C        00:00:00:00 00:00:01:17 02:18:13:14 02:18:15:06
* FROM CLIP NAME:  GLDR-BAL-500_V01 
* SOURCE FILE: GLDR-BAL-500_V01

013750 M108_C023_20190729_R.MOV         V     C        15:54:10:09 15:54:12:01 02:18:13:14 02:18:15:06
* FROM CLIP NAME:  M108_C023_20190729_R.NEW.01 
* SOURCE FILE: M108_C023_20190729_R.MOV

013748 BL                               V     C        00:00:00:00 00:00:01:17 02:18:13:14 02:18:15:06
* SOURCE FILE: (NULL)

013761 BL                               V     C        00:00:00:00 00:00:01:10 02:18:15:06 02:18:16:16
* SOURCE FILE: (NULL)

013760 MSMMMOB.32                       V     C        20:09:38:12 20:09:39:22 02:18:15:06 02:18:16:16
* FROM CLIP NAME:  A096C004_190821_R32C 
* SOURCE FILE: MSMMMOB.32

013759 BL                               V     C        00:00:00:00 00:00:01:10 02:18:15:06 02:18:16:16
* SOURCE FILE: (NULL)

013762 BL                               V     C        00:00:00:00 00:00:06:12 02:18:15:06 02:18:21:18
* SOURCE FILE: (NULL)

013773 MSMMMOB.66                       V     C        20:04:00:07 20:04:01:15 02:18:16:16 02:18:18:00
* FROM CLIP NAME:  B027C004_190814_R481 
* SOURCE FILE: MSMMMOB.66

013772 BL                               V     C        00:00:00:00 00:00:01:08 02:18:16:16 02:18:18:00
* SOURCE FILE: (NULL)

013774 GLDR-BAL-510_V01                 V     C        00:00:00:00 00:00:01:08 02:18:16:16 02:18:18:00
* FROM CLIP NAME:  GLDR-BAL-510_V01 
* SOURCE FILE: GLDR-BAL-510_V01

013780 BL                               V     C        00:00:00:00 00:00:01:16 02:18:18:00 02:18:19:15
* SOURCE FILE: (NULL)

013779 MSMMMOB.30                       V     C        20:04:01:15 20:04:03:06 02:18:18:00 02:18:19:15
* FROM CLIP NAME:  A079C004_190814_R32C 
* SOURCE FILE: MSMMMOB.30

013781 BL                               V     C        00:00:00:00 00:00:03:19 02:18:18:00 02:18:21:18
* SOURCE FILE: (NULL)

013797 MSMMMOB.60                       V     C        19:12:27:09 19:12:28:12 02:18:19:15 02:18:20:18
* FROM CLIP NAME:  B027C001_190814_R481 
* SOURCE FILE: MSMMMOB.60

013798 BL                               V     C        00:00:00:00 00:00:02:03 02:18:19:15 02:18:21:18
* SOURCE FILE: (NULL)

013804 MSMMMOB.22                       V     C        10:41:41:23 10:41:42:23 02:18:20:18 02:18:21:18
* FROM CLIP NAME:  96A_103_98A-1-1 
* SOURCE FILE: MSMMMOB.22

013805 GLDR-BAL-520_TEST_01             V     C        00:00:00:00 00:00:01:15 02:18:21:18 02:18:23:08
* FROM CLIP NAME:  GLDR-BAL-520_TEST_01 
* SOURCE FILE: GLDR-BAL-520_TEST_01
* FROM CLIP NAME:  M118_C024_20190821_R 
* SOURCE FILE:

013806 MSMMMOB.19                       V     C        19:49:46:02 19:49:54:20 02:18:21:18 02:18:30:11
* FROM CLIP NAME:  M120_C002_20190821_R 
* SOURCE FILE: MSMMMOB.19

013808 BL                               V     C        00:00:00:00 00:00:08:18 02:18:21:18 02:18:30:11
* SOURCE FILE: (NULL)

013809 BL                               V     C        00:00:00:00 00:00:07:03 02:18:23:08 02:18:30:11
* SOURCE FILE: (NULL)
* FROM CLIP NAME:  M118_C024_20190821_R 
* SOURCE FILE:
* FROM CLIP NAME:  M118_C024_20190821_R 
* SOURCE FILE:

013813 BL                               V     C        00:00:00:00 00:00:02:00 02:18:30:11 02:18:32:10
* SOURCE FILE: (NULL)

013816 MSMMMOB.207                      V     C        00:54:44:08 00:54:44:09 02:18:30:11 02:18:32:10
* FROM CLIP NAME:  UNTITLED00080940 
* SOURCE FILE: MSMMMOB.207

013812 BL                               V     C        00:00:00:00 00:00:02:00 02:18:30:11 02:18:32:10
* SOURCE FILE: (NULL)

013814 GLDR-BAL-530_TEST_V01            V     C        00:00:03:15 00:00:03:16 02:18:30:11 02:18:32:10
* FROM CLIP NAME:  GLDR-BAL-530_TEST_V01 
* SOURCE FILE: GLDR-BAL-530_TEST_V01 
* REPAIR: FROM SOURCE TRUE SPEED == -37.244900 FPS

013815 GLDR-BAL-530_V02                 V     C        00:00:03:15 00:00:03:16 02:18:30:11 02:18:32:10
* FROM CLIP NAME:  GLDR-BAL-530_V02 
* SOURCE FILE: GLDR-BAL-530_V02 
* REPAIR: FROM SOURCE TRUE SPEED == -37.244900 FPS

013820 BL                               V     C        00:00:00:00 00:00:01:15 02:18:32:10 02:18:34:00
* SOURCE FILE: (NULL)
* FROM CLIP NAME:  M118_C023_20190821_R 
* SOURCE FILE:

013817 GLDR-BAL-540_TEST_03             V     C        00:00:00:00 00:00:01:15 02:18:32:10 02:18:34:00
* FROM CLIP NAME:  GLDR-BAL-540_TEST_03 
* SOURCE FILE: GLDR-BAL-540_TEST_03

013818 MSMMMOB.19                       V     C        19:49:45:15 19:49:47:05 02:18:32:10 02:18:34:00
* FROM CLIP NAME:  M120_C002_20190821_R 
* SOURCE FILE: MSMMMOB.19

013821 BL                               V     C        00:00:00:00 00:08:41:16 02:18:32:10 02:27:14:01
* SOURCE FILE: (NULL)

013822 MSMMMOB.207                      V     C        00:54:30:13 00:54:31:20 02:18:34:00 02:18:35:07
* FROM CLIP NAME:  UNTITLED00080940 
* SOURCE FILE: MSMMMOB.207

013825 BL                               V     C        00:00:00:00 00:00:01:07 02:18:34:00 02:18:35:07
* SOURCE FILE: (NULL)

013824 BL                               V     C        00:00:00:00 00:00:01:07 02:18:34:00 02:18:35:07
* SOURCE FILE: (NULL)

013823 BL                               V     C        00:00:00:00 00:00:01:07 02:18:34:00 02:18:35:07
* SOURCE FILE: (NULL)

013829 GLDR-BAL-550_TEST_01             V     C        00:00:00:00 00:00:01:16 02:18:35:07 02:18:36:23
* FROM CLIP NAME:  GLDR-BAL-550_TEST_01 
* SOURCE FILE: GLDR-BAL-550_TEST_01

013830 BL                               V     C        00:00:00:00 00:00:01:16 02:18:35:07 02:18:36:23
* SOURCE FILE: (NULL)

013828 MSMMMOB.24                       V     C        19:57:14:00 19:57:15:16 02:18:35:07 02:18:36:23
* FROM CLIP NAME:  M120_C005_20190821_R 
* SOURCE FILE: MSMMMOB.24
* FROM CLIP NAME:  M118_C024_20190821_R 
* SOURCE FILE:
* FROM CLIP NAME:  M118_C024_20190821_R 
* SOURCE FILE:
* FROM CLIP NAME:  M118_C024_20190821_R 
* SOURCE FILE:
* FROM CLIP NAME:  M118_C024_20190821_R 
* SOURCE FILE:

013836 MSMMMOB.207                      V     C        00:56:42:06 00:56:43:22 02:18:36:23 02:18:38:14
* FROM CLIP NAME:  UNTITLED00080940 
* SOURCE FILE: MSMMMOB.207

013839 BL                               V     C        00:00:00:00 00:00:05:15 02:18:36:23 02:18:42:13
* SOURCE FILE: (NULL)

013840 BL                               V     C        00:00:00:00 00:00:42:07 02:18:36:23 02:19:19:05
* SOURCE FILE: (NULL)

013841 BL                               V     C        00:00:00:00 00:06:59:01 02:18:36:23 02:25:36:00
* SOURCE FILE: (NULL)

013842 MSMMMOB.207                      V     C        00:56:47:04 00:56:48:11 02:18:38:14 02:18:39:21
* FROM CLIP NAME:  UNTITLED00080940 
* SOURCE FILE: MSMMMOB.207
* FROM CLIP NAME:  M118_C024_20190821_R 
* SOURCE FILE:
* FROM CLIP NAME:  M118_C024_20190821_R 
* SOURCE FILE:

013847 MSMMMOB.207                      V     C        00:56:57:13 00:57:00:05 02:18:39:21 02:18:42:13
* FROM CLIP NAME:  UNTITLED00080940 
* SOURCE FILE: MSMMMOB.207

013850 BL                               V     C        00:00:00:00 00:00:01:17 02:18:42:13 02:18:44:05
* SOURCE FILE: (NULL)

013851 BL                               V     C        00:00:00:00 00:00:01:17 02:18:42:13 02:18:44:05
* SOURCE FILE: (NULL)

013852 BL                               V     C        00:00:00:00 00:00:00:00 02:18:44:05 02:18:44:05

013852 MSMMMOB.36                       V     D   040  20:10:25:02 20:10:26:17 02:18:44:05 02:18:45:20
* FILM, FILM DISSOLVE 
* TO CLIP NAME:  M097_C039_20190720_R 
* SOURCE FILE: (NULL)

013855 BL                               V     C        00:00:00:00 00:00:05:13 02:18:44:05 02:18:49:18
* SOURCE FILE: (NULL)

013856 MSMMMOB.36                       V     C        20:10:26:17 20:10:30:15 02:18:45:20 02:18:49:18
* FROM CLIP NAME:  M097_C039_20190720_R 
* SOURCE FILE: MSMMMOB.36

013864 MSMMMOB.48                       V     C        15:34:07:02 15:34:11:09 02:18:49:18 02:18:51:22
* FROM CLIP NAME:  104/105-18-1_RAPID 
* SOURCE FILE: MSMMMOB.48

013867 BL                               V     C        00:00:00:00 00:01:29:02 02:18:49:18 02:20:18:20
* SOURCE FILE: (NULL)

013868 CINEMASCOPE_2-35-1_CROPLINES.PNG V     C        01:00:00:00 01:05:07:14 02:18:49:19 02:23:57:08
* FROM CLIP NAME:  CINEMASCOPE 2-35-1 CROPLINES.PNG 
* SOURCE FILE: CINEMASCOPE 2-35-1 CROPLINES.PNG

013874 MSMMMOB.53                       V     C        14:57:30:00 14:57:31:18 02:18:51:22 02:18:53:16
* FROM CLIP NAME:  A078C009_190814_R32C 
* SOURCE FILE: MSMMMOB.53

013875 MSMMMOB.59                       V     C        14:38:13:17 14:38:23:09 02:18:53:16 02:19:03:08
* FROM CLIP NAME:  A078C007_190814_R32C 
* SOURCE FILE: MSMMMOB.59

013880 MSMMMOB.14                       V     C        14:41:55:19 14:42:11:16 02:19:03:08 02:19:19:05
* FROM CLIP NAME:  A078C008_190814_R32C 
* SOURCE FILE: MSMMMOB.14

013906 GLDR-CND-010_V02                 V     C        00:00:00:00 00:00:03:17 02:19:19:05 02:19:22:22
* FROM CLIP NAME:  GLDR-CND-010_V02 
* SOURCE FILE: GLDR-CND-010_V02

013905 MSMMMOB.11                       V     C        01:32:25:04 01:32:28:21 02:19:19:05 02:19:22:22
* FROM CLIP NAME:  B023C001_190814_R481 
* SOURCE FILE: MSMMMOB.11

013911 MSMMMOB.48                       V     C        15:34:17:18 15:34:23:11 02:19:22:22 02:19:25:19
* FROM CLIP NAME:  104/105-18-1_RAPID 
* SOURCE FILE: MSMMMOB.48

013912 BL                               V     C        00:00:00:00 00:00:28:21 02:19:22:22 02:19:51:18
* SOURCE FILE: (NULL)

013913 MSMMMOB.44                       V     C        14:36:48:03 14:36:51:01 02:19:25:19 02:19:28:17
* FROM CLIP NAME:  A078C006_190814_R32C 
* SOURCE FILE: MSMMMOB.44

013919 MSMMMOB.10                       V     C        15:20:36:18 15:20:38:00 02:19:28:17 02:19:30:00
* FROM CLIP NAME:  A078C013_190814_R32C 
* SOURCE FILE: MSMMMOB.10

013930 MSMMMOB.61                       V     C        14:25:12:19 14:25:14:18 02:19:30:00 02:19:31:23
* FROM CLIP NAME:  A078C005_190814_R32C 
* SOURCE FILE: MSMMMOB.61

013939 MSMMMOB.10                       V     C        15:20:39:19 15:20:53:08 02:19:31:23 02:19:45:12
* FROM CLIP NAME:  A078C013_190814_R32C 
* SOURCE FILE: MSMMMOB.10

013961 MSMMMOB.26                       V     C        12:02:15:19 12:02:22:00 02:19:45:12 02:19:51:18
* FROM CLIP NAME:  B023C002_190814_R481 
* SOURCE FILE: MSMMMOB.26

013973 GLDR-CND-020_V01                 V     C        00:00:00:00 00:00:02:11 02:19:51:18 02:19:54:04
* FROM CLIP NAME:  GLDR-CND-020_V01 
* SOURCE FILE: GLDR-CND-020_V01

013972 MSMMMOB.11                       V     C        01:32:57:00 01:32:59:10 02:19:51:18 02:19:54:04
* FROM CLIP NAME:  B023C001_190814_R481 
* SOURCE FILE: MSMMMOB.11

013990 MSMMMOB.32                       V     C        13:09:54:07 13:09:58:00 02:19:54:04 02:19:57:22
* FROM CLIP NAME:  A077C003_190814_R32C 
* SOURCE FILE: MSMMMOB.32

013991 BL                               V     C        00:00:00:00 00:03:02:06 02:19:54:04 02:22:56:10
* SOURCE FILE: (NULL)

014010 MSMMMOB.07                       V     C        12:31:19:23 12:31:24:06 02:19:57:22 02:20:02:05
* FROM CLIP NAME:  B023C004_190814_R481 
* SOURCE FILE: MSMMMOB.07

014019 MSMMMOB.32                       V     C        13:09:59:02 13:10:01:19 02:20:02:05 02:20:04:22
* FROM CLIP NAME:  A077C003_190814_R32C 
* SOURCE FILE: MSMMMOB.32

014020 MSMMMOB.07                       V     C        12:31:26:15 12:31:32:20 02:20:04:22 02:20:11:02
* FROM CLIP NAME:  B023C004_190814_R481 
* SOURCE FILE: MSMMMOB.07

014037 MSMMMOB.63                       V     C        13:10:06:13 13:10:08:17 02:20:11:02 02:20:13:06
* FROM CLIP NAME:  B024C003_190814_R481 
* SOURCE FILE: MSMMMOB.63

014070 MSMMMOB.07                       V     C        12:31:34:00 12:31:36:07 02:20:13:06 02:20:15:14
* FROM CLIP NAME:  B023C004_190814_R481 
* SOURCE FILE: MSMMMOB.07

014087 MSMMMOB.63                       V     C        13:10:10:18 13:10:13:16 02:20:15:14 02:20:18:12
* FROM CLIP NAME:  B024C003_190814_R481 
* SOURCE FILE: MSMMMOB.63

014096 MSMMMOB.29                       V     C        12:31:40:08 12:31:43:20 02:20:18:12 02:20:22:00
* FROM CLIP NAME:  A076C004_190814_R32C 
* SOURCE FILE: MSMMMOB.29

014105 BL                               V     C        00:00:00:00 00:00:03:04 02:20:18:20 02:20:22:00
* SOURCE FILE: (NULL)

014114 MSMMMOB.63                       V     C        13:10:15:00 13:10:18:03 02:20:22:00 02:20:25:02
* FROM CLIP NAME:  B024C003_190814_R481 
* SOURCE FILE: MSMMMOB.63

014115 BL                               V     C        00:00:00:00 00:01:44:16 02:20:22:00 02:22:06:15
* SOURCE FILE: (NULL)

014132 MSMMMOB.07                       V     C        12:31:47:10 12:31:51:08 02:20:25:02 02:20:29:00
* FROM CLIP NAME:  B023C004_190814_R481 
* SOURCE FILE: MSMMMOB.07

014149 MSMMMOB.32                       V     C        13:10:24:04 13:10:25:11 02:20:29:00 02:20:30:07
* FROM CLIP NAME:  A077C003_190814_R32C 
* SOURCE FILE: MSMMMOB.32

014166 MSMMMOB.29                       V     C        12:31:51:17 12:31:55:21 02:20:30:07 02:20:34:11
* FROM CLIP NAME:  A076C004_190814_R32C 
* SOURCE FILE: MSMMMOB.29

014175 MSMMMOB.63                       V     C        13:10:29:13 13:10:32:05 02:20:34:11 02:20:37:03
* FROM CLIP NAME:  B024C003_190814_R481 
* SOURCE FILE: MSMMMOB.63

014184 MSMMMOB.07                       V     C        12:32:02:00 12:32:05:08 02:20:37:03 02:20:40:11
* FROM CLIP NAME:  B023C004_190814_R481 
* SOURCE FILE: MSMMMOB.07

014193 MSMMMOB.01                       V     C        13:36:06:09 13:36:09:00 02:20:40:11 02:20:43:01
* FROM CLIP NAME:  A077C005_190814_R32C 
* SOURCE FILE: MSMMMOB.01

014202 MSMMMOB.34                       V     C        12:44:08:00 12:44:19:09 02:20:43:01 02:20:54:10
* FROM CLIP NAME:  B023C005_190814_R481 
* SOURCE FILE: MSMMMOB.34

014225 MSMMMOB.63                       V     C        13:10:44:10 13:10:47:10 02:20:54:10 02:20:57:10
* FROM CLIP NAME:  B024C003_190814_R481 
* SOURCE FILE: MSMMMOB.63

014250 MSMMMOB.15                       V     C        12:44:23:05 12:44:30:08 02:20:57:10 02:21:04:13
* FROM CLIP NAME:  A076C005_190814_R32C 
* SOURCE FILE: MSMMMOB.15

014267 MSMMMOB.32                       V     C        13:10:54:09 13:10:56:00 02:21:04:13 02:21:06:04
* FROM CLIP NAME:  A077C003_190814_R32C 
* SOURCE FILE: MSMMMOB.32

014276 MSMMMOB.15                       V     C        12:44:32:12 12:44:36:00 02:21:06:04 02:21:09:17
* FROM CLIP NAME:  A076C005_190814_R32C 
* SOURCE FILE: MSMMMOB.15

014277 MSMMMOB.32                       V     C        13:11:02:08 13:11:04:02 02:21:09:17 02:21:11:11
* FROM CLIP NAME:  A077C003_190814_R32C 
* SOURCE FILE: MSMMMOB.32

014294 MSMMMOB.15                       V     C        12:44:40:02 12:44:44:00 02:21:11:11 02:21:15:08
* FROM CLIP NAME:  A076C005_190814_R32C 
* SOURCE FILE: MSMMMOB.15

014303 MSMMMOB.07                       V     C        12:32:59:10 12:33:01:19 02:21:15:08 02:21:17:17
* FROM CLIP NAME:  B023C004_190814_R481 
* SOURCE FILE: MSMMMOB.07

014312 MSMMMOB.40                       V     C        12:56:14:16 12:56:20:06 02:21:17:17 02:21:23:07
* FROM CLIP NAME:  A077C001_190814_R32C 
* SOURCE FILE: MSMMMOB.40

014321 MSMMMOB.28                       V     C        13:05:43:19 13:05:45:21 02:21:23:07 02:21:25:09
* FROM CLIP NAME:  B024C002_190814_R481 
* SOURCE FILE: MSMMMOB.28

014330 MSMMMOB.34                       V     C        12:45:09:14 12:45:12:04 02:21:25:09 02:21:28:00
* FROM CLIP NAME:  B023C005_190814_R481 
* SOURCE FILE: MSMMMOB.34

014339 MSMMMOB.63                       V     C        13:11:15:20 13:11:17:12 02:21:28:00 02:21:29:16
* FROM CLIP NAME:  B024C003_190814_R481 
* SOURCE FILE: MSMMMOB.63

014348 MSMMMOB.07                       V     C        12:33:11:19 12:33:18:07 02:21:29:16 02:21:36:04
* FROM CLIP NAME:  B023C004_190814_R481 
* SOURCE FILE: MSMMMOB.07

014373 MSMMMOB.63                       V     C        13:11:24:09 13:11:27:00 02:21:36:04 02:21:38:19
* FROM CLIP NAME:  B024C003_190814_R481 
* SOURCE FILE: MSMMMOB.63

014382 MSMMMOB.07                       V     C        12:33:19:10 12:33:24:10 02:21:38:19 02:21:43:19
* FROM CLIP NAME:  B023C004_190814_R481 
* SOURCE FILE: MSMMMOB.07

014391 MSMMMOB.63                       V     C        13:11:33:00 13:11:39:21 02:21:43:19 02:21:50:15
* FROM CLIP NAME:  B024C003_190814_R481 
* SOURCE FILE: MSMMMOB.63

014408 MSMMMOB.29                       V     C        12:33:28:15 12:33:31:03 02:21:50:15 02:21:53:03
* FROM CLIP NAME:  A076C004_190814_R32C 
* SOURCE FILE: MSMMMOB.29

014424 MSMMMOB.01                       V     C        13:37:03:00 13:37:05:07 02:21:53:03 02:21:55:10
* FROM CLIP NAME:  A077C005_190814_R32C 
* SOURCE FILE: MSMMMOB.01

014441 MSMMMOB.40                       V     C        12:56:54:23 12:57:00:05 02:21:55:10 02:22:00:17
* FROM CLIP NAME:  A077C001_190814_R32C 
* SOURCE FILE: MSMMMOB.40

014459 MSMMMOB.41                       V     C        13:37:04:13 13:37:07:00 02:22:00:17 02:22:03:03
* FROM CLIP NAME:  B025C001_190814_R481 
* SOURCE FILE: MSMMMOB.41

014460 MSMMMOB.40                       V     C        12:57:03:16 12:57:06:20 02:22:03:03 02:22:06:07
* FROM CLIP NAME:  A077C001_190814_R32C 
* SOURCE FILE: MSMMMOB.40

014469 MSMMMOB.63                       V     C        13:11:54:02 13:11:58:13 02:22:06:07 02:22:10:18
* FROM CLIP NAME:  B024C003_190814_R481 
* SOURCE FILE: MSMMMOB.63

014470 BL                               V     C        00:00:00:00 00:00:01:16 02:22:06:15 02:22:08:06
* SOURCE FILE: (NULL)

014479 BL                               V     C        00:00:00:00 00:00:48:04 02:22:08:06 02:22:56:10
* SOURCE FILE: (NULL)

014494 MSMMMOB.23                       V     C        14:00:23:21 14:00:25:16 02:22:10:18 02:22:12:13
* FROM CLIP NAME:  A078C003_190814_R32C 
* SOURCE FILE: MSMMMOB.23

014510 MSMMMOB.63                       V     C        13:12:05:07 13:12:08:18 02:22:12:13 02:22:16:00
* FROM CLIP NAME:  B024C003_190814_R481 
* SOURCE FILE: MSMMMOB.63

014527 MSMMMOB.29                       V     C        12:34:05:04 12:34:09:06 02:22:16:00 02:22:20:01
* FROM CLIP NAME:  A076C004_190814_R32C 
* SOURCE FILE: MSMMMOB.29

014538 MSMMMOB.63                       V     C        13:12:11:14 13:12:14:06 02:22:20:01 02:22:22:18
* FROM CLIP NAME:  B024C003_190814_R481 
* SOURCE FILE: MSMMMOB.63

014555 MSMMMOB.23                       V     C        14:00:36:05 14:00:41:15 02:22:22:18 02:22:28:03
* FROM CLIP NAME:  A078C003_190814_R32C 
* SOURCE FILE: MSMMMOB.23

014558 MSMMMOB.28                       V     C        13:07:26:16 13:07:28:16 02:22:28:03 02:22:30:03
* FROM CLIP NAME:  B024C002_190814_R481 
* SOURCE FILE: MSMMMOB.28

014566 MSMMMOB.23                       V     C        14:00:41:15 14:00:44:19 02:22:30:03 02:22:33:07
* FROM CLIP NAME:  A078C003_190814_R32C 
* SOURCE FILE: MSMMMOB.23

014574 MSMMMOB.01                       V     C        13:37:22:07 13:37:23:04 02:22:33:07 02:22:34:04
* FROM CLIP NAME:  A077C005_190814_R32C 
* SOURCE FILE: MSMMMOB.01

014577 MSMMMOB.23                       V     C        14:00:44:19 14:00:45:13 02:22:34:04 02:22:34:23
* FROM CLIP NAME:  A078C003_190814_R32C 
* SOURCE FILE: MSMMMOB.23

014588 MSMMMOB.28                       V     C        13:07:32:21 13:07:38:14 02:22:34:23 02:22:40:16
* FROM CLIP NAME:  B024C002_190814_R481 
* SOURCE FILE: MSMMMOB.28

014599 MSMMMOB.07                       V     C        12:34:19:15 12:34:27:06 02:22:40:16 02:22:48:07
* FROM CLIP NAME:  B023C004_190814_R481 
* SOURCE FILE: MSMMMOB.07

014610 MSMMMOB.121                      V     C        01:38:20:00 01:38:21:05 02:22:48:07 02:22:49:12
* FROM CLIP NAME:  UNTITLED00147480 
* SOURCE FILE: MSMMMOB.121

014613 C0146                            V     C        01:37:50:06 01:37:51:07 02:22:49:12 02:22:50:13
* FROM CLIP NAME:  C0146.NEW.01 
* SOURCE FILE: C0146

014614 MSMMMOB.23                       V     C        20:06:07:10 20:06:08:10 02:22:50:13 02:22:51:13
* FROM CLIP NAME:  M097_C036_20190720_R 
* SOURCE FILE: MSMMMOB.23

014615 C0150                            V     C        01:38:47:23 01:38:49:14 02:22:51:13 02:22:53:04
* FROM CLIP NAME:  C0150.NEW.01 
* SOURCE FILE: C0150

014616 MSMMMOB.53                       V     C        20:31:59:15 20:32:00:15 02:22:53:04 02:22:54:04
* FROM CLIP NAME:  M097_C041_20190720_R 
* SOURCE FILE: MSMMMOB.53

014617 MSMMMOB.23                       V     C        20:06:32:04 20:06:34:10 02:22:54:04 02:22:56:10
* FROM CLIP NAME:  M097_C036_20190720_R 
* SOURCE FILE: MSMMMOB.23

014621 MSMMMOB.48                       V     C        19:35:43:20 19:35:48:08 02:22:56:10 02:23:00:23
* FROM CLIP NAME:  A105C001_190828_R3DN 
* SOURCE FILE: MSMMMOB.48

014620 GLDR-CND-080_V02                 V     C        00:00:00:00 00:00:04:13 02:22:56:10 02:23:00:23
* FROM CLIP NAME:  GLDR-CND-080_V02 
* SOURCE FILE: GLDR-CND-080_V02

014631 BL                               V     C        00:00:00:00 00:00:15:21 02:22:56:10 02:23:12:06
* SOURCE FILE: (NULL)

014632 MSMMMOB.93                       V     C        18:54:47:01 18:54:51:00 02:23:00:23 02:23:04:21
* FROM CLIP NAME:  B033C001_190828_A1Y8 
* SOURCE FILE: MSMMMOB.93

014633 BL                               V     C        00:00:00:00 00:00:03:23 02:23:00:23 02:23:04:21
* SOURCE FILE: (NULL)

014650 GLDR-CND-090_V02                 V     C        00:00:00:00 00:00:07:10 02:23:04:21 02:23:12:06
* FROM CLIP NAME:  GLDR-CND-090_V02 
* SOURCE FILE: GLDR-CND-090_V02

014649 MSMMMOB.48                       V     C        19:35:13:11 19:35:20:21 02:23:04:21 02:23:12:06
* FROM CLIP NAME:  A105C001_190828_R3DN 
* SOURCE FILE: MSMMMOB.48

014696 MSMMMOB.58                       V     C        19:10:55:05 19:10:58:07 02:23:12:06 02:23:15:08
* FROM CLIP NAME:  A104C027_190828_R3DN 
* SOURCE FILE: MSMMMOB.58

014697 BL                               V     C        00:00:00:00 00:00:07:00 02:23:12:06 02:23:19:05
* SOURCE FILE: (NULL)

014698 BL                               V     C        00:00:00:00 00:00:07:07 02:23:12:06 02:23:19:13
* SOURCE FILE: (NULL)

014708 MSMMMOB.28                       V     C        19:10:58:06 19:11:01:00 02:23:15:08 02:23:18:02
* FROM CLIP NAME:  B033C003_190828_A1Y8 
* SOURCE FILE: MSMMMOB.28

014709 MSMMMOB.68                       V     C        19:27:44:07 19:27:45:18 02:23:18:02 02:23:19:13
* FROM CLIP NAME:  B033C006_190828_A1Y8 
* SOURCE FILE: MSMMMOB.68

014724 BL                               V     C        00:00:00:00 00:00:01:22 02:23:19:05 02:23:21:02
* SOURCE FILE: (NULL)

014726 GLDR-CND-100_V01                 V     C        00:00:00:00 00:00:01:14 02:23:19:13 02:23:21:02
* FROM CLIP NAME:  GLDR-CND-100_V01 
* SOURCE FILE: GLDR-CND-100_V01

014725 MSMMMOB.44                       V     C        19:34:28:13 19:34:30:02 02:23:19:13 02:23:21:02
* FROM CLIP NAME:  106-5-3 
* SOURCE FILE: MSMMMOB.44

014729 MSMMMOB.05                       V     C        19:22:25:00 19:22:28:02 02:23:21:02 02:23:24:04
* FROM CLIP NAME:  A104C029_190828_R3DN 
* SOURCE FILE: MSMMMOB.05

014730 BL                               V     C        00:00:00:00 00:00:10:04 02:23:21:02 02:23:31:06
* SOURCE FILE: (NULL)

014731 BL                               V     C        00:00:00:00 00:00:10:04 02:23:21:02 02:23:31:06
* SOURCE FILE: (NULL)

014732 MSMMMOB.58                       V     C        19:11:07:15 19:11:12:01 02:23:24:04 02:23:28:15
* FROM CLIP NAME:  A104C027_190828_R3DN 
* SOURCE FILE: MSMMMOB.58

014747 MSMMMOB.28                       V     C        19:11:12:00 19:11:14:16 02:23:28:15 02:23:31:06
* FROM CLIP NAME:  B033C003_190828_A1Y8 
* SOURCE FILE: MSMMMOB.28

014749 BL                               V     C        00:00:00:00 00:00:03:06 02:23:31:06 02:23:34:12
* SOURCE FILE: (NULL)

014750 MSMMMOB.48                       V     C        19:35:40:01 19:35:43:07 02:23:31:06 02:23:34:12
* FROM CLIP NAME:  A105C001_190828_R3DN 
* SOURCE FILE: MSMMMOB.48

014748 GLDR-CND-110_V02                 V     C        00:00:00:00 00:00:03:06 02:23:31:06 02:23:34:12
* FROM CLIP NAME:  GLDR-CND-110_V02 
* SOURCE FILE: GLDR-CND-110_V02

014758 MSMMMOB.28                       V     C        19:11:16:11 19:11:28:07 02:23:34:12 02:23:46:08
* FROM CLIP NAME:  B033C003_190828_A1Y8 
* SOURCE FILE: MSMMMOB.28

014759 BL                               V     C        00:00:00:00 00:00:40:22 02:23:34:12 02:24:15:09
* SOURCE FILE: (NULL)

014760 BL                               V     C        00:00:00:00 00:00:42:12 02:23:34:12 02:24:17:00
* SOURCE FILE: (NULL)

014765 MSMMMOB.58                       V     C        19:11:28:08 19:11:31:08 02:23:46:08 02:23:49:08
* FROM CLIP NAME:  A104C027_190828_R3DN 
* SOURCE FILE: MSMMMOB.58

014766 MSMMMOB.05                       V     C        19:22:48:08 19:22:54:13 02:23:49:08 02:23:55:13
* FROM CLIP NAME:  A104C029_190828_R3DN 
* SOURCE FILE: MSMMMOB.05

014774 MSMMMOB.58                       V     C        19:11:37:06 19:11:39:01 02:23:55:13 02:23:57:08
* FROM CLIP NAME:  A104C027_190828_R3DN 
* SOURCE FILE: MSMMMOB.58

014782 MSMMMOB.26                       V     C        19:22:55:15 19:23:00:05 02:23:57:08 02:24:01:23
* FROM CLIP NAME:  B033C005_190828_A1Y8 
* SOURCE FILE: MSMMMOB.26

014792 CINEMASCOPE_2-35-1_CROPLINES.PNG V     C        01:01:56:09 01:03:28:09 02:23:57:08 02:25:29:08
* FROM CLIP NAME:  CINEMASCOPE 2-35-1 CROPLINES.PNG 
* SOURCE FILE: CINEMASCOPE 2-35-1 CROPLINES.PNG

014793 MSMMMOB.58                       V     C        19:11:42:00 19:11:43:18 02:24:01:23 02:24:03:17
* FROM CLIP NAME:  A104C027_190828_R3DN 
* SOURCE FILE: MSMMMOB.58

014808 MSMMMOB.68                       V     C        19:28:05:21 19:28:08:02 02:24:03:17 02:24:05:23
* FROM CLIP NAME:  B033C006_190828_A1Y8 
* SOURCE FILE: MSMMMOB.68

014823 MSMMMOB.10                       V     C        19:28:09:04 19:28:11:19 02:24:05:23 02:24:08:13
* FROM CLIP NAME:  A104C030_190828_R3DN 
* SOURCE FILE: MSMMMOB.10

014831 MSMMMOB.28                       V     C        19:11:49:00 19:11:51:15 02:24:08:13 02:24:11:03
* FROM CLIP NAME:  B033C003_190828_A1Y8 
* SOURCE FILE: MSMMMOB.28

014846 MSMMMOB.26                       V     C        19:23:07:04 19:23:11:10 02:24:11:03 02:24:15:09
* FROM CLIP NAME:  B033C005_190828_A1Y8 
* SOURCE FILE: MSMMMOB.26

014919 MSMMMOB.93                       V     C        18:56:06:21 18:56:08:11 02:24:15:09 02:24:17:00
* FROM CLIP NAME:  B033C001_190828_A1Y8 
* SOURCE FILE: MSMMMOB.93

014920 BL                               V     C        00:00:00:00 00:00:04:18 02:24:15:09 02:24:20:02
* SOURCE FILE: (NULL)

014928 GLDR-CND-120_V01                 V     C        00:00:00:00 00:00:03:03 02:24:17:00 02:24:20:02
* FROM CLIP NAME:  GLDR-CND-120_V01 
* SOURCE FILE: GLDR-CND-120_V01

014929 MSMMMOB.48                       V     C        19:36:18:02 19:36:21:05 02:24:17:00 02:24:20:02
* FROM CLIP NAME:  A105C001_190828_R3DN 
* SOURCE FILE: MSMMMOB.48

014931 MSMMMOB.41                       V     C        01:22:22:21 01:22:25:09 02:24:20:02 02:24:22:15
* FROM CLIP NAME:  107-4-2 
* SOURCE FILE: MSMMMOB.41

014930 GLDR-CND-130_V01                 V     C        00:00:00:00 00:00:02:13 02:24:20:02 02:24:22:15
* FROM CLIP NAME:  GLDR-CND-130_V01 
* SOURCE FILE: GLDR-CND-130_V01

014936 BL                               V     C        00:00:00:00 00:00:08:09 02:24:20:02 02:24:28:11
* SOURCE FILE: (NULL)

014937 BL                               V     C        00:00:00:00 00:00:05:21 02:24:22:15 02:24:28:11
* SOURCE FILE: (NULL)

014938 MSMMMOB.53                       V     C        13:21:18:20 13:21:24:16 02:24:22:15 02:24:28:11
* FROM CLIP NAME:  A104C002_190828_R3DN 
* SOURCE FILE: MSMMMOB.53

014945 GLDR-CND-140_V02                 V     C        00:00:00:00 00:00:03:03 02:24:28:11 02:24:31:14
* FROM CLIP NAME:  GLDR-CND-140_V02 
* SOURCE FILE: GLDR-CND-140_V02

014943 MSMMMOB.67                       V     C        13:32:52:22 13:32:56:00 02:24:28:11 02:24:31:14
* FROM CLIP NAME:  A104C004_190828_R3DN 
* SOURCE FILE: MSMMMOB.67

014944 MSMMMOB.41                       V     C        01:22:24:17 01:22:27:20 02:24:28:11 02:24:31:14
* FROM CLIP NAME:  107-4-2 
* SOURCE FILE: MSMMMOB.41

014946 BL                               V     C        00:00:00:00 00:00:14:16 02:24:28:11 02:24:43:02
* SOURCE FILE: (NULL)

014949 BL                               V     C        00:00:00:00 00:00:02:21 02:24:31:14 02:24:34:10
* SOURCE FILE: (NULL)

014950 MSMMMOB.53                       V     C        13:21:30:07 13:21:33:03 02:24:31:14 02:24:34:10
* FROM CLIP NAME:  A104C002_190828_R3DN 
* SOURCE FILE: MSMMMOB.53

014955 BL                               V     C        00:00:00:00 00:01:04:10 02:24:31:14 02:25:36:00
* SOURCE FILE: (NULL)

014956 MSMMMOB.52                       V     C        13:45:59:15 13:46:08:07 02:24:34:10 02:24:43:02
* FROM CLIP NAME:  A104C006_190828_R3DN 
* SOURCE FILE: MSMMMOB.52

014957 GLDR-CND-150_V02                 V     C        00:00:00:00 00:00:08:17 02:24:34:10 02:24:43:02
* FROM CLIP NAME:  GLDR-CND-150_V02 
* SOURCE FILE: GLDR-CND-150_V02

014967 M108_C007_20190729_R             V     C        11:53:48:03 11:53:52:17 02:24:43:02 02:24:46:09
* FROM CLIP NAME:  M108_C007_20190729_R.NEW.01 
* SOURCE FILE: M108_C007_20190729_R
M2   M108_C007_20190729_R 35.0                      11:53:48:03 

014970 BL                               V     C        00:00:00:00 00:00:46:06 02:24:43:02 02:25:29:08
* SOURCE FILE: (NULL)

014971 BL                               V     C        00:00:00:00 00:02:31:00 02:24:43:02 02:27:14:01
* SOURCE FILE: (NULL)

014972 M108_C003_20190729_R             V     C        11:25:25:12 11:25:28:18 02:24:46:09 02:24:49:15
* FROM CLIP NAME:  M108_C003_20190729_R.NEW.01 
* SOURCE FILE: M108_C003_20190729_R

014973 M108_C003_20190729_R             V     C        11:25:37:11 11:25:41:00 02:24:49:15 02:24:53:04
* FROM CLIP NAME:  M108_C003_20190729_R.NEW.01 
* SOURCE FILE: M108_C003_20190729_R

014976 MSMMMOB.22                       V     C        17:41:23:08 17:41:26:05 02:24:53:04 02:24:56:01
* FROM CLIP NAME:  A049C003_190807_R32C 
* SOURCE FILE: MSMMMOB.22

014983 MSMMMOB.24                       V     C        18:03:02:05 18:03:03:10 02:24:56:01 02:24:57:06
* FROM CLIP NAME:  A049C006_190807_R32C 
* SOURCE FILE: MSMMMOB.24

014990 MSMMMOB.28                       V     C        18:15:19:18 18:15:21:01 02:24:57:06 02:24:58:14
* FROM CLIP NAME:  A049C008_190807_R32C 
* SOURCE FILE: MSMMMOB.28

014991 MSMMMOB.22                       V     C        17:41:31:02 17:41:32:22 02:24:58:14 02:25:00:09
* FROM CLIP NAME:  A049C003_190807_R32C 
* SOURCE FILE: MSMMMOB.22

014998 MSMMMOB.24                       V     C        18:03:38:08 18:03:39:12 02:25:00:09 02:25:01:13
* FROM CLIP NAME:  A049C006_190807_R32C 
* SOURCE FILE: MSMMMOB.24

015005 MSMMMOB.75                       V     C        19:07:12:02 19:07:13:20 02:25:01:13 02:25:03:06
* FROM CLIP NAME:  A049C016_190807_R32C 
* SOURCE FILE: MSMMMOB.75

015015 MSMMMOB.24                       V     C        18:03:41:00 18:03:42:08 02:25:03:06 02:25:04:14
* FROM CLIP NAME:  A049C006_190807_R32C 
* SOURCE FILE: MSMMMOB.24

015028 MSMMMOB.75                       V     C        19:07:19:05 19:07:20:10 02:25:04:14 02:25:05:19
* FROM CLIP NAME:  A049C016_190807_R32C 
* SOURCE FILE: MSMMMOB.75

015041 MSMMMOB.22                       V     C        17:41:35:17 17:41:39:06 02:25:05:19 02:25:09:08
* FROM CLIP NAME:  A049C003_190807_R32C 
* SOURCE FILE: MSMMMOB.22

015050 A013C002_190728_R32C             V     C        00:40:20:18 00:40:23:22 02:25:09:08 02:25:12:12
* FROM CLIP NAME:  A013C002_190728_R32C.NEW.01 
* SOURCE FILE: A013C002_190728_R32C

015059 A012C005_190728_R32C             V     C        11:52:40:01 11:52:43:18 02:25:12:12 02:25:16:04
* FROM CLIP NAME:  A012C005_190728_R32C.NEW.01 
* SOURCE FILE: A012C005_190728_R32C

015068 A012C006_190728_R32C             V     C        11:58:46:06 11:58:49:13 02:25:16:04 02:25:19:11
* FROM CLIP NAME:  A012C006_190728_R32C.NEW.01 
* SOURCE FILE: A012C006_190728_R32C

015069 A013C002_190728_R32C             V     C        00:40:34:15 00:40:35:23 02:25:19:11 02:25:20:19
* FROM CLIP NAME:  A013C002_190728_R32C.NEW.01 
* SOURCE FILE: A013C002_190728_R32C

015078 A012C006_190728_R32C             V     C        11:58:57:09 11:58:59:14 02:25:20:19 02:25:23:00
* FROM CLIP NAME:  A012C006_190728_R32C.NEW.01 
* SOURCE FILE: A012C006_190728_R32C

015079 M108_C009_20190729_R             V     C        12:38:33:12 12:38:35:19 02:25:23:00 02:25:25:06
* FROM CLIP NAME:  M108_C009_20190729_R.NEW.01 
* SOURCE FILE: M108_C009_20190729_R

015080 MSMMMOB.13                       V     C        16:41:12:19 16:41:14:07 02:25:25:06 02:25:26:19
* FROM CLIP NAME:  B032C007_190828_A1Y8 
* SOURCE FILE: MSMMMOB.13

015081 MSMMMOB.13                       V     C        16:39:51:11 16:39:52:15 02:25:26:19 02:25:27:23
* FROM CLIP NAME:  B032C007_190828_A1Y8 
* SOURCE FILE: MSMMMOB.13

015082 MSMMMOB.13                       V     C        16:39:41:13 16:39:42:23 02:25:27:23 02:25:29:08
* FROM CLIP NAME:  B032C007_190828_A1Y8 
* SOURCE FILE: MSMMMOB.13

015083 DSC00750.JPG                     V     C        01:00:00:00 01:00:01:19 02:25:29:08 02:25:31:02
* FROM CLIP NAME:  DSC00750.JPG 
* SOURCE FILE: DSC00750.JPG

015085 M108_C034_20190729_R             V     C        17:26:50:01 17:26:56:17 02:25:29:08 02:25:36:00
* FROM CLIP NAME:  M108_C034_20190729_R.NEW.01 
* SOURCE FILE: M108_C034_20190729_R

015084 CINEMASCOPE_2-35-1_CROPLINES.PNG V     C        01:03:54:23 01:04:01:14 02:25:29:08 02:25:36:00
* FROM CLIP NAME:  CINEMASCOPE 2-35-1 CROPLINES.PNG 
* SOURCE FILE: CINEMASCOPE 2-35-1 CROPLINES.PNG

015088 DSC00860.JPG                     V     C        01:00:00:00 01:00:01:17 02:25:31:02 02:25:32:19
* FROM CLIP NAME:  DSC00860.JPG 
* SOURCE FILE: DSC00860.JPG

015089 DSC00775.JPG                     V     C        01:00:00:00 01:00:01:17 02:25:32:19 02:25:34:11
* FROM CLIP NAME:  DSC00775.JPG 
* SOURCE FILE: DSC00775.JPG

015090 DSC00681.JPG                     V     C        01:00:46:02 01:00:47:15 02:25:34:11 02:25:36:00
* FROM CLIP NAME:  DSC00681.JPG 
* SOURCE FILE: DSC00681.JPG

015091 DSC00681.JPG                     V     C        01:00:47:15 01:00:49:23 02:25:36:00 02:25:38:07
* FROM CLIP NAME:  DSC00681.JPG 
* SOURCE FILE: DSC00681.JPG

015092 MSMMMOB.07                       V     C        00:00:04:14 00:00:11:05 02:25:36:00 02:25:42:15
* FROM CLIP NAME:  1-15-3-0 
* SOURCE FILE: MSMMMOB.07

015093 CINEMASCOPE_2-35-1_CROPLINES.PNG V     C        01:04:08:08 01:04:25:10 02:25:36:00 02:25:53:01
* FROM CLIP NAME:  CINEMASCOPE 2-35-1 CROPLINES.PNG 
* SOURCE FILE: CINEMASCOPE 2-35-1 CROPLINES.PNG

015094 BL                               V     C        00:00:00:00 00:00:25:06 02:25:36:00 02:26:01:05
* SOURCE FILE: (NULL)

015095 BL                               V     C        00:00:00:00 00:01:38:02 02:25:36:00 02:27:14:01
* SOURCE FILE: (NULL)

015096 BL                               V     C        00:00:00:00 00:00:11:00 02:25:38:07 02:25:49:07
* SOURCE FILE: (NULL)

015099 MSMMMOB.40                       V     C        00:00:12:18 00:00:16:00 02:25:42:15 02:25:45:21
* FROM CLIP NAME:  11242019_190406 
* SOURCE FILE: MSMMMOB.40

015102 MSMMMOB.40                       V     C        00:00:20:12 00:00:23:23 02:25:45:21 02:25:49:07
* FROM CLIP NAME:  11242019_190406 
* SOURCE FILE: MSMMMOB.40

015107 MSMMMOB.40                       V     C        00:00:23:22 00:00:23:23 02:25:49:07 02:25:52:13
* FROM CLIP NAME:  11242019_190406 
* * FREEZE FRAME 
* SOURCE FILE: MSMMMOB.40

015108 BL                               V     C        00:00:00:00 00:00:03:06 02:25:49:07 02:25:52:13
* SOURCE FILE: (NULL)

015111 BL                               V     C        00:00:00:00 00:00:00:18 02:25:52:13 02:25:53:06
* SOURCE FILE: (NULL)

015112 BL                               V     C        00:00:00:00 00:01:21:13 02:25:52:13 02:27:14:01
* SOURCE FILE: (NULL)

015113 CINEMASCOPE_2-35-1_CROPLINES.PNG V     C        01:04:26:01 01:05:47:01 02:25:53:01 02:27:14:01
* FROM CLIP NAME:  CINEMASCOPE 2-35-1 CROPLINES.PNG 
* SOURCE FILE: CINEMASCOPE 2-35-1 CROPLINES.PNG

015114 _MG_0101.JPG                     V     C        01:00:00:00 01:00:02:00 02:25:53:06 02:25:55:05
* FROM CLIP NAME:  _MG_0101.JPG 
* SOURCE FILE: _MG_0101.JPG

015115 _MG_0639.JPG                     V     C        01:00:00:00 01:00:02:00 02:25:55:05 02:25:57:05
* FROM CLIP NAME:  _MG_0639.JPG 
* SOURCE FILE: _MG_0639.JPG

015116 _MG_0857.JPG                     V     C        01:00:00:00 01:00:02:00 02:25:57:05 02:25:59:05
* FROM CLIP NAME:  _MG_0857.JPG 
* SOURCE FILE: _MG_0857.JPG

015117 IMG_0283.JPG                     V     C        01:00:00:00 01:00:02:00 02:25:59:05 02:26:01:05
* FROM CLIP NAME:  IMG_0283.JPG 
* SOURCE FILE: IMG_0283.JPG

015118 IMG_7608.JPG                     V     C        01:00:00:00 01:00:02:03 02:26:01:05 02:26:03:08
* FROM CLIP NAME:  IMG_7608.JPG 
* SOURCE FILE: IMG_7608.JPG

015119 BL                               V     C        00:00:00:00 00:01:12:21 02:26:01:05 02:27:14:01
* SOURCE FILE: (NULL)

015120 IMG_7911.JPG                     V     C        01:00:00:02 01:00:02:00 02:26:03:08 02:26:05:06
* FROM CLIP NAME:  IMG_7911.JPG 
* SOURCE FILE: IMG_7911.JPG

015121 IMG_7352.JPG                     V     C        01:00:00:00 01:00:02:00 02:26:05:06 02:26:07:06
* FROM CLIP NAME:  IMG_7352.JPG 
* SOURCE FILE: IMG_7352.JPG

015122 IMG_9295.JPG                     V     C        01:00:00:00 01:00:01:21 02:26:07:06 02:26:09:02
* FROM CLIP NAME:  IMG_9295.JPG 
* SOURCE FILE: IMG_9295.JPG

015123 IMG_9536.JPG                     V     C        01:00:00:00 01:00:02:00 02:26:09:02 02:26:11:02
* FROM CLIP NAME:  IMG_9536.JPG 
* SOURCE FILE: IMG_9536.JPG

015124 IMG_7498.JPG                     V     C        01:00:00:00 01:00:02:01 02:26:11:02 02:26:13:03
* FROM CLIP NAME:  IMG_7498.JPG 
* SOURCE FILE: IMG_7498.JPG

015125 _MG_0958.JPG                     V     C        01:00:00:00 01:00:02:03 02:26:13:03 02:26:15:06
* FROM CLIP NAME:  _MG_0958.JPG 
* SOURCE FILE: _MG_0958.JPG

015126 _MG_7743.JPG                     V     C        01:00:00:00 01:00:02:01 02:26:15:06 02:26:17:07
* FROM CLIP NAME:  _MG_7743.JPG 
* SOURCE FILE: _MG_7743.JPG

015127 _MG_8260.JPG                     V     C        01:00:00:00 01:00:02:01 02:26:17:07 02:26:19:08
* FROM CLIP NAME:  _MG_8260.JPG 
* SOURCE FILE: _MG_8260.JPG

015128 _MG_8868.JPG                     V     C        01:00:00:00 01:00:02:00 02:26:19:08 02:26:21:08
* FROM CLIP NAME:  _MG_8868.JPG 
* SOURCE FILE: _MG_8868.JPG

015129 _MG_9736.JPG                     V     C        01:00:00:00 01:00:02:00 02:26:21:08 02:26:23:08
* FROM CLIP NAME:  _MG_9736.JPG 
* SOURCE FILE: _MG_9736.JPG

015130 IMG_0616.JPG                     V     C        01:00:00:00 01:00:02:00 02:26:23:08 02:26:25:08
* FROM CLIP NAME:  IMG_0616.JPG 
* SOURCE FILE: IMG_0616.JPG

015131 IMG_7380.JPG                     V     C        01:00:00:00 01:00:02:01 02:26:25:08 02:26:27:09
* FROM CLIP NAME:  IMG_7380.JPG 
* SOURCE FILE: IMG_7380.JPG

015132 IMG_0411.JPG                     V     C        01:00:00:00 01:00:02:00 02:26:27:09 02:26:29:09
* FROM CLIP NAME:  IMG_0411.JPG 
* SOURCE FILE: IMG_0411.JPG

015133 IMG_7538.JPG                     V     C        01:00:00:00 01:00:02:00 02:26:29:09 02:26:31:09
* FROM CLIP NAME:  IMG_7538.JPG 
* SOURCE FILE: IMG_7538.JPG

015134 IMG_7875.JPG                     V     C        01:00:00:00 01:00:02:00 02:26:31:09 02:26:33:09
* FROM CLIP NAME:  IMG_7875.JPG 
* SOURCE FILE: IMG_7875.JPG

015135 IMG_0798.JPG                     V     C        01:00:00:00 01:00:02:00 02:26:33:09 02:26:35:09
* FROM CLIP NAME:  IMG_0798.JPG 
* SOURCE FILE: IMG_0798.JPG

015136 IMG_8138.JPG                     V     C        01:00:00:00 01:00:02:00 02:26:35:09 02:26:37:09
* FROM CLIP NAME:  IMG_8138.JPG 
* SOURCE FILE: IMG_8138.JPG

015137 IMG_8139.JPG                     V     C        01:00:00:00 01:00:02:00 02:26:37:09 02:26:39:09
* FROM CLIP NAME:  IMG_8139.JPG 
* SOURCE FILE: IMG_8139.JPG

015138 IMG_8738.JPG                     V     C        01:00:00:00 01:00:02:00 02:26:39:09 02:26:41:09
* FROM CLIP NAME:  IMG_8738.JPG 
* SOURCE FILE: IMG_8738.JPG

015139 IMG_8760.JPG                     V     C        01:00:00:00 01:00:02:00 02:26:41:09 02:26:43:09
* FROM CLIP NAME:  IMG_8760.JPG 
* SOURCE FILE: IMG_8760.JPG

015140 IMG_0822.JPG                     V     C        01:00:00:00 01:00:02:00 02:26:43:09 02:26:45:09
* FROM CLIP NAME:  IMG_0822.JPG 
* SOURCE FILE: IMG_0822.JPG

015141 IMG_9095.JPG                     V     C        01:00:00:00 01:00:02:00 02:26:45:09 02:26:47:09
* FROM CLIP NAME:  IMG_9095.JPG 
* SOURCE FILE: IMG_9095.JPG

015142 IMG_9425.JPG                     V     C        01:00:00:00 01:00:02:00 02:26:47:09 02:26:49:09
* FROM CLIP NAME:  IMG_9425.JPG 
* SOURCE FILE: IMG_9425.JPG

015143 IMG_8344.JPG                     V     C        01:00:00:00 01:00:02:03 02:26:49:09 02:26:51:12
* FROM CLIP NAME:  IMG_8344.JPG 
* SOURCE FILE: IMG_8344.JPG

015144 IMG_9554.JPG                     V     C        01:00:00:00 01:00:01:20 02:26:51:12 02:26:53:07
* FROM CLIP NAME:  IMG_9554.JPG 
* SOURCE FILE: IMG_9554.JPG

015145 IMG_8766.JPG                     V     C        01:00:00:00 01:00:02:00 02:26:53:07 02:26:55:07
* FROM CLIP NAME:  IMG_8766.JPG 
* SOURCE FILE: IMG_8766.JPG

015146 IMG_9583.JPG                     V     C        01:00:00:00 01:00:02:00 02:26:55:07 02:26:57:07
* FROM CLIP NAME:  IMG_9583.JPG 
* SOURCE FILE: IMG_9583.JPG

015147 IMG_9590.JPG                     V     C        01:00:00:00 01:00:02:00 02:26:57:07 02:26:59:07
* FROM CLIP NAME:  IMG_9590.JPG 
* SOURCE FILE: IMG_9590.JPG

015148 IMG_9828.JPG                     V     C        01:00:00:00 01:00:02:00 02:26:59:07 02:27:01:07
* FROM CLIP NAME:  IMG_9828.JPG 
* SOURCE FILE: IMG_9828.JPG

015149 IMG_9916.JPG                     V     C        01:00:00:00 01:00:02:00 02:27:01:07 02:27:03:07
* FROM CLIP NAME:  IMG_9916.JPG 
* SOURCE FILE: IMG_9916.JPG

015150 BL                               V     C        00:00:00:00 00:00:10:19 02:27:03:07 02:27:14:01
* SOURCE FILE: (NULL)
